<?xml version="1.0" encoding="utf-8" standalone="no"?>
<!DOCTYPE svg PUBLIC "-//W3C//DTD SVG 1.1//EN"
  "http://www.w3.org/Graphics/SVG/1.1/DTD/svg11.dtd">
<svg height="345.6pt" version="1.1" viewBox="0 0 460.8 345.6" width="460.8pt" xmlns="http://www.w3.org/2000/svg" xmlns:xlink="http://www.w3.org/1999/xlink">
 <metadata>
  <rdf:RDF xmlns:cc="http://creativecommons.org/ns#" xmlns:dc="http://purl.org/dc/elements/1.1/" xmlns:rdf="http://www.w3.org/1999/02/22-rdf-syntax-ns#">
   <cc:Work>
    <dc:type rdf:resource="http://purl.org/dc/dcmitype/StillImage"/>
    <dc:date>2021-11-04T09:48:13.952742</dc:date>
    <dc:description>{"agent.algorithm": "RayProximalPolicyOptimization", "agent.algorithm.render_env": false, "agent.algorithm.num_workers": 0, "agent.algorithm.batch_mode": "complete_episodes", "agent.algorithm.lr": 1e-05, "agent.algorithm.train_batch_size": 200, "agent.algorithm.optimizer": "Adam", "agent.algorithm.vf_clip_param": 10, "agent.algorithm.model": {"fcnet_activation": "tanh", "fcnet_hiddens": [30, 30]}, "env.env_class": "SchedulerPolicyRayEnvironment", "env.env_config": {"solver_driver": "CMAdriver", "solver_driver_args": [5, 10, 9, 0.5], "maximize": false, "steps": 50, "state_metrics_names": ["DifferenceOfBest", "SolverStateHistory"], "state_metrics_config": [[40, false, 1, true, false], [{"step_size": {"max": 3, "min": 0}}, 40]], "reward_metric": "Best", "reward_metric_config": [false, false], "memes_no": 1, "action_space_config": {"step_size": {"max": 3, "min": 1e-10}}}}</dc:description>
    <dc:format>image/svg+xml</dc:format>
    <dc:creator>
     <cc:Agent>
      <dc:title>Matplotlib v3.4.3, https://matplotlib.org/</dc:title>
     </cc:Agent>
    </dc:creator>
   </cc:Work>
  </rdf:RDF>
 </metadata>
 <defs>
  <style type="text/css">*{stroke-linecap:butt;stroke-linejoin:round;}</style>
 </defs>
 <g id="figure_1">
  <g id="patch_1">
   <path d="M 0 345.6 
L 460.8 345.6 
L 460.8 0 
L 0 0 
z
" style="fill:#ffffff;"/>
  </g>
  <g id="axes_1">
   <g id="patch_2">
    <path d="M 57.6 307.584 
L 414.72 307.584 
L 414.72 41.472 
L 57.6 41.472 
z
" style="fill:#ffffff;"/>
   </g>
   <g id="matplotlib.axis_1">
    <g id="xtick_1">
     <g id="line2d_1">
      <path clip-path="url(#p3ddd64886c)" d="M 57.6 307.584 
L 57.6 41.472 
" style="fill:none;stroke:#b0b0b0;stroke-linecap:square;stroke-width:0.8;"/>
     </g>
     <g id="line2d_2">
      <defs>
       <path d="M 0 0 
L 0 3.5 
" id="mf094ea99ac" style="stroke:#000000;stroke-width:0.8;"/>
      </defs>
      <g>
       <use style="stroke:#000000;stroke-width:0.8;" x="57.6" xlink:href="#mf094ea99ac" y="307.584"/>
      </g>
     </g>
     <g id="text_1">
      <!-- 0 -->
      <g transform="translate(52.51 326.7415)scale(0.16 -0.16)">
       <defs>
        <path d="M 2034 4250 
Q 1547 4250 1301 3770 
Q 1056 3291 1056 2328 
Q 1056 1369 1301 889 
Q 1547 409 2034 409 
Q 2525 409 2770 889 
Q 3016 1369 3016 2328 
Q 3016 3291 2770 3770 
Q 2525 4250 2034 4250 
z
M 2034 4750 
Q 2819 4750 3233 4129 
Q 3647 3509 3647 2328 
Q 3647 1150 3233 529 
Q 2819 -91 2034 -91 
Q 1250 -91 836 529 
Q 422 1150 422 2328 
Q 422 3509 836 4129 
Q 1250 4750 2034 4750 
z
" id="DejaVuSans-30" transform="scale(0.015625)"/>
       </defs>
       <use xlink:href="#DejaVuSans-30"/>
      </g>
     </g>
    </g>
    <g id="xtick_2">
     <g id="line2d_3">
      <path clip-path="url(#p3ddd64886c)" d="M 146.88 307.584 
L 146.88 41.472 
" style="fill:none;stroke:#b0b0b0;stroke-linecap:square;stroke-width:0.8;"/>
     </g>
     <g id="line2d_4">
      <g>
       <use style="stroke:#000000;stroke-width:0.8;" x="146.88" xlink:href="#mf094ea99ac" y="307.584"/>
      </g>
     </g>
     <g id="text_2">
      <!-- 1000 -->
      <g transform="translate(126.52 326.7415)scale(0.16 -0.16)">
       <defs>
        <path d="M 794 531 
L 1825 531 
L 1825 4091 
L 703 3866 
L 703 4441 
L 1819 4666 
L 2450 4666 
L 2450 531 
L 3481 531 
L 3481 0 
L 794 0 
L 794 531 
z
" id="DejaVuSans-31" transform="scale(0.015625)"/>
       </defs>
       <use xlink:href="#DejaVuSans-31"/>
       <use x="63.623047" xlink:href="#DejaVuSans-30"/>
       <use x="127.246094" xlink:href="#DejaVuSans-30"/>
       <use x="190.869141" xlink:href="#DejaVuSans-30"/>
      </g>
     </g>
    </g>
    <g id="xtick_3">
     <g id="line2d_5">
      <path clip-path="url(#p3ddd64886c)" d="M 236.16 307.584 
L 236.16 41.472 
" style="fill:none;stroke:#b0b0b0;stroke-linecap:square;stroke-width:0.8;"/>
     </g>
     <g id="line2d_6">
      <g>
       <use style="stroke:#000000;stroke-width:0.8;" x="236.16" xlink:href="#mf094ea99ac" y="307.584"/>
      </g>
     </g>
     <g id="text_3">
      <!-- 2000 -->
      <g transform="translate(215.8 326.7415)scale(0.16 -0.16)">
       <defs>
        <path d="M 1228 531 
L 3431 531 
L 3431 0 
L 469 0 
L 469 531 
Q 828 903 1448 1529 
Q 2069 2156 2228 2338 
Q 2531 2678 2651 2914 
Q 2772 3150 2772 3378 
Q 2772 3750 2511 3984 
Q 2250 4219 1831 4219 
Q 1534 4219 1204 4116 
Q 875 4013 500 3803 
L 500 4441 
Q 881 4594 1212 4672 
Q 1544 4750 1819 4750 
Q 2544 4750 2975 4387 
Q 3406 4025 3406 3419 
Q 3406 3131 3298 2873 
Q 3191 2616 2906 2266 
Q 2828 2175 2409 1742 
Q 1991 1309 1228 531 
z
" id="DejaVuSans-32" transform="scale(0.015625)"/>
       </defs>
       <use xlink:href="#DejaVuSans-32"/>
       <use x="63.623047" xlink:href="#DejaVuSans-30"/>
       <use x="127.246094" xlink:href="#DejaVuSans-30"/>
       <use x="190.869141" xlink:href="#DejaVuSans-30"/>
      </g>
     </g>
    </g>
    <g id="xtick_4">
     <g id="line2d_7">
      <path clip-path="url(#p3ddd64886c)" d="M 325.44 307.584 
L 325.44 41.472 
" style="fill:none;stroke:#b0b0b0;stroke-linecap:square;stroke-width:0.8;"/>
     </g>
     <g id="line2d_8">
      <g>
       <use style="stroke:#000000;stroke-width:0.8;" x="325.44" xlink:href="#mf094ea99ac" y="307.584"/>
      </g>
     </g>
     <g id="text_4">
      <!-- 3000 -->
      <g transform="translate(305.08 326.7415)scale(0.16 -0.16)">
       <defs>
        <path d="M 2597 2516 
Q 3050 2419 3304 2112 
Q 3559 1806 3559 1356 
Q 3559 666 3084 287 
Q 2609 -91 1734 -91 
Q 1441 -91 1130 -33 
Q 819 25 488 141 
L 488 750 
Q 750 597 1062 519 
Q 1375 441 1716 441 
Q 2309 441 2620 675 
Q 2931 909 2931 1356 
Q 2931 1769 2642 2001 
Q 2353 2234 1838 2234 
L 1294 2234 
L 1294 2753 
L 1863 2753 
Q 2328 2753 2575 2939 
Q 2822 3125 2822 3475 
Q 2822 3834 2567 4026 
Q 2313 4219 1838 4219 
Q 1578 4219 1281 4162 
Q 984 4106 628 3988 
L 628 4550 
Q 988 4650 1302 4700 
Q 1616 4750 1894 4750 
Q 2613 4750 3031 4423 
Q 3450 4097 3450 3541 
Q 3450 3153 3228 2886 
Q 3006 2619 2597 2516 
z
" id="DejaVuSans-33" transform="scale(0.015625)"/>
       </defs>
       <use xlink:href="#DejaVuSans-33"/>
       <use x="63.623047" xlink:href="#DejaVuSans-30"/>
       <use x="127.246094" xlink:href="#DejaVuSans-30"/>
       <use x="190.869141" xlink:href="#DejaVuSans-30"/>
      </g>
     </g>
    </g>
    <g id="xtick_5">
     <g id="line2d_9">
      <path clip-path="url(#p3ddd64886c)" d="M 414.72 307.584 
L 414.72 41.472 
" style="fill:none;stroke:#b0b0b0;stroke-linecap:square;stroke-width:0.8;"/>
     </g>
     <g id="line2d_10">
      <g>
       <use style="stroke:#000000;stroke-width:0.8;" x="414.72" xlink:href="#mf094ea99ac" y="307.584"/>
      </g>
     </g>
     <g id="text_5">
      <!-- 4000 -->
      <g transform="translate(394.36 326.7415)scale(0.16 -0.16)">
       <defs>
        <path d="M 2419 4116 
L 825 1625 
L 2419 1625 
L 2419 4116 
z
M 2253 4666 
L 3047 4666 
L 3047 1625 
L 3713 1625 
L 3713 1100 
L 3047 1100 
L 3047 0 
L 2419 0 
L 2419 1100 
L 313 1100 
L 313 1709 
L 2253 4666 
z
" id="DejaVuSans-34" transform="scale(0.015625)"/>
       </defs>
       <use xlink:href="#DejaVuSans-34"/>
       <use x="63.623047" xlink:href="#DejaVuSans-30"/>
       <use x="127.246094" xlink:href="#DejaVuSans-30"/>
       <use x="190.869141" xlink:href="#DejaVuSans-30"/>
      </g>
     </g>
    </g>
    <g id="text_6">
     <!-- Episodes -->
     <g transform="translate(200.5725 346.2265)scale(0.16 -0.16)">
      <defs>
       <path d="M 628 4666 
L 3578 4666 
L 3578 4134 
L 1259 4134 
L 1259 2753 
L 3481 2753 
L 3481 2222 
L 1259 2222 
L 1259 531 
L 3634 531 
L 3634 0 
L 628 0 
L 628 4666 
z
" id="DejaVuSans-45" transform="scale(0.015625)"/>
       <path d="M 1159 525 
L 1159 -1331 
L 581 -1331 
L 581 3500 
L 1159 3500 
L 1159 2969 
Q 1341 3281 1617 3432 
Q 1894 3584 2278 3584 
Q 2916 3584 3314 3078 
Q 3713 2572 3713 1747 
Q 3713 922 3314 415 
Q 2916 -91 2278 -91 
Q 1894 -91 1617 61 
Q 1341 213 1159 525 
z
M 3116 1747 
Q 3116 2381 2855 2742 
Q 2594 3103 2138 3103 
Q 1681 3103 1420 2742 
Q 1159 2381 1159 1747 
Q 1159 1113 1420 752 
Q 1681 391 2138 391 
Q 2594 391 2855 752 
Q 3116 1113 3116 1747 
z
" id="DejaVuSans-70" transform="scale(0.015625)"/>
       <path d="M 603 3500 
L 1178 3500 
L 1178 0 
L 603 0 
L 603 3500 
z
M 603 4863 
L 1178 4863 
L 1178 4134 
L 603 4134 
L 603 4863 
z
" id="DejaVuSans-69" transform="scale(0.015625)"/>
       <path d="M 2834 3397 
L 2834 2853 
Q 2591 2978 2328 3040 
Q 2066 3103 1784 3103 
Q 1356 3103 1142 2972 
Q 928 2841 928 2578 
Q 928 2378 1081 2264 
Q 1234 2150 1697 2047 
L 1894 2003 
Q 2506 1872 2764 1633 
Q 3022 1394 3022 966 
Q 3022 478 2636 193 
Q 2250 -91 1575 -91 
Q 1294 -91 989 -36 
Q 684 19 347 128 
L 347 722 
Q 666 556 975 473 
Q 1284 391 1588 391 
Q 1994 391 2212 530 
Q 2431 669 2431 922 
Q 2431 1156 2273 1281 
Q 2116 1406 1581 1522 
L 1381 1569 
Q 847 1681 609 1914 
Q 372 2147 372 2553 
Q 372 3047 722 3315 
Q 1072 3584 1716 3584 
Q 2034 3584 2315 3537 
Q 2597 3491 2834 3397 
z
" id="DejaVuSans-73" transform="scale(0.015625)"/>
       <path d="M 1959 3097 
Q 1497 3097 1228 2736 
Q 959 2375 959 1747 
Q 959 1119 1226 758 
Q 1494 397 1959 397 
Q 2419 397 2687 759 
Q 2956 1122 2956 1747 
Q 2956 2369 2687 2733 
Q 2419 3097 1959 3097 
z
M 1959 3584 
Q 2709 3584 3137 3096 
Q 3566 2609 3566 1747 
Q 3566 888 3137 398 
Q 2709 -91 1959 -91 
Q 1206 -91 779 398 
Q 353 888 353 1747 
Q 353 2609 779 3096 
Q 1206 3584 1959 3584 
z
" id="DejaVuSans-6f" transform="scale(0.015625)"/>
       <path d="M 2906 2969 
L 2906 4863 
L 3481 4863 
L 3481 0 
L 2906 0 
L 2906 525 
Q 2725 213 2448 61 
Q 2172 -91 1784 -91 
Q 1150 -91 751 415 
Q 353 922 353 1747 
Q 353 2572 751 3078 
Q 1150 3584 1784 3584 
Q 2172 3584 2448 3432 
Q 2725 3281 2906 2969 
z
M 947 1747 
Q 947 1113 1208 752 
Q 1469 391 1925 391 
Q 2381 391 2643 752 
Q 2906 1113 2906 1747 
Q 2906 2381 2643 2742 
Q 2381 3103 1925 3103 
Q 1469 3103 1208 2742 
Q 947 2381 947 1747 
z
" id="DejaVuSans-64" transform="scale(0.015625)"/>
       <path d="M 3597 1894 
L 3597 1613 
L 953 1613 
Q 991 1019 1311 708 
Q 1631 397 2203 397 
Q 2534 397 2845 478 
Q 3156 559 3463 722 
L 3463 178 
Q 3153 47 2828 -22 
Q 2503 -91 2169 -91 
Q 1331 -91 842 396 
Q 353 884 353 1716 
Q 353 2575 817 3079 
Q 1281 3584 2069 3584 
Q 2775 3584 3186 3129 
Q 3597 2675 3597 1894 
z
M 3022 2063 
Q 3016 2534 2758 2815 
Q 2500 3097 2075 3097 
Q 1594 3097 1305 2825 
Q 1016 2553 972 2059 
L 3022 2063 
z
" id="DejaVuSans-65" transform="scale(0.015625)"/>
      </defs>
      <use xlink:href="#DejaVuSans-45"/>
      <use x="63.183594" xlink:href="#DejaVuSans-70"/>
      <use x="126.660156" xlink:href="#DejaVuSans-69"/>
      <use x="154.443359" xlink:href="#DejaVuSans-73"/>
      <use x="206.542969" xlink:href="#DejaVuSans-6f"/>
      <use x="267.724609" xlink:href="#DejaVuSans-64"/>
      <use x="331.201172" xlink:href="#DejaVuSans-65"/>
      <use x="392.724609" xlink:href="#DejaVuSans-73"/>
     </g>
    </g>
   </g>
   <g id="matplotlib.axis_2">
    <g id="ytick_1">
     <g id="line2d_11">
      <path clip-path="url(#p3ddd64886c)" d="M 57.6 276.388663 
L 414.72 276.388663 
" style="fill:none;stroke:#b0b0b0;stroke-linecap:square;stroke-width:0.8;"/>
     </g>
     <g id="line2d_12">
      <defs>
       <path d="M 0 0 
L -3.5 0 
" id="mb57258cfbe" style="stroke:#000000;stroke-width:0.8;"/>
      </defs>
      <g>
       <use style="stroke:#000000;stroke-width:0.8;" x="57.6" xlink:href="#mb57258cfbe" y="276.388663"/>
      </g>
     </g>
     <g id="text_7">
      <!-- −60000 -->
      <g transform="translate(-13.7075 282.467413)scale(0.16 -0.16)">
       <defs>
        <path d="M 678 2272 
L 4684 2272 
L 4684 1741 
L 678 1741 
L 678 2272 
z
" id="DejaVuSans-2212" transform="scale(0.015625)"/>
        <path d="M 2113 2584 
Q 1688 2584 1439 2293 
Q 1191 2003 1191 1497 
Q 1191 994 1439 701 
Q 1688 409 2113 409 
Q 2538 409 2786 701 
Q 3034 994 3034 1497 
Q 3034 2003 2786 2293 
Q 2538 2584 2113 2584 
z
M 3366 4563 
L 3366 3988 
Q 3128 4100 2886 4159 
Q 2644 4219 2406 4219 
Q 1781 4219 1451 3797 
Q 1122 3375 1075 2522 
Q 1259 2794 1537 2939 
Q 1816 3084 2150 3084 
Q 2853 3084 3261 2657 
Q 3669 2231 3669 1497 
Q 3669 778 3244 343 
Q 2819 -91 2113 -91 
Q 1303 -91 875 529 
Q 447 1150 447 2328 
Q 447 3434 972 4092 
Q 1497 4750 2381 4750 
Q 2619 4750 2861 4703 
Q 3103 4656 3366 4563 
z
" id="DejaVuSans-36" transform="scale(0.015625)"/>
       </defs>
       <use xlink:href="#DejaVuSans-2212"/>
       <use x="83.789062" xlink:href="#DejaVuSans-36"/>
       <use x="147.412109" xlink:href="#DejaVuSans-30"/>
       <use x="211.035156" xlink:href="#DejaVuSans-30"/>
       <use x="274.658203" xlink:href="#DejaVuSans-30"/>
       <use x="338.28125" xlink:href="#DejaVuSans-30"/>
      </g>
     </g>
    </g>
    <g id="ytick_2">
     <g id="line2d_13">
      <path clip-path="url(#p3ddd64886c)" d="M 57.6 221.608937 
L 414.72 221.608937 
" style="fill:none;stroke:#b0b0b0;stroke-linecap:square;stroke-width:0.8;"/>
     </g>
     <g id="line2d_14">
      <g>
       <use style="stroke:#000000;stroke-width:0.8;" x="57.6" xlink:href="#mb57258cfbe" y="221.608937"/>
      </g>
     </g>
     <g id="text_8">
      <!-- −40000 -->
      <g transform="translate(-13.7075 227.687687)scale(0.16 -0.16)">
       <use xlink:href="#DejaVuSans-2212"/>
       <use x="83.789062" xlink:href="#DejaVuSans-34"/>
       <use x="147.412109" xlink:href="#DejaVuSans-30"/>
       <use x="211.035156" xlink:href="#DejaVuSans-30"/>
       <use x="274.658203" xlink:href="#DejaVuSans-30"/>
       <use x="338.28125" xlink:href="#DejaVuSans-30"/>
      </g>
     </g>
    </g>
    <g id="ytick_3">
     <g id="line2d_15">
      <path clip-path="url(#p3ddd64886c)" d="M 57.6 166.829212 
L 414.72 166.829212 
" style="fill:none;stroke:#b0b0b0;stroke-linecap:square;stroke-width:0.8;"/>
     </g>
     <g id="line2d_16">
      <g>
       <use style="stroke:#000000;stroke-width:0.8;" x="57.6" xlink:href="#mb57258cfbe" y="166.829212"/>
      </g>
     </g>
     <g id="text_9">
      <!-- −20000 -->
      <g transform="translate(-13.7075 172.907962)scale(0.16 -0.16)">
       <use xlink:href="#DejaVuSans-2212"/>
       <use x="83.789062" xlink:href="#DejaVuSans-32"/>
       <use x="147.412109" xlink:href="#DejaVuSans-30"/>
       <use x="211.035156" xlink:href="#DejaVuSans-30"/>
       <use x="274.658203" xlink:href="#DejaVuSans-30"/>
       <use x="338.28125" xlink:href="#DejaVuSans-30"/>
      </g>
     </g>
    </g>
    <g id="ytick_4">
     <g id="line2d_17">
      <path clip-path="url(#p3ddd64886c)" d="M 57.6 112.049486 
L 414.72 112.049486 
" style="fill:none;stroke:#b0b0b0;stroke-linecap:square;stroke-width:0.8;"/>
     </g>
     <g id="line2d_18">
      <g>
       <use style="stroke:#000000;stroke-width:0.8;" x="57.6" xlink:href="#mb57258cfbe" y="112.049486"/>
      </g>
     </g>
     <g id="text_10">
      <!-- 0 -->
      <g transform="translate(40.42 118.128236)scale(0.16 -0.16)">
       <use xlink:href="#DejaVuSans-30"/>
      </g>
     </g>
    </g>
    <g id="ytick_5">
     <g id="line2d_19">
      <path clip-path="url(#p3ddd64886c)" d="M 57.6 57.269761 
L 414.72 57.269761 
" style="fill:none;stroke:#b0b0b0;stroke-linecap:square;stroke-width:0.8;"/>
     </g>
     <g id="line2d_20">
      <g>
       <use style="stroke:#000000;stroke-width:0.8;" x="57.6" xlink:href="#mb57258cfbe" y="57.269761"/>
      </g>
     </g>
     <g id="text_11">
      <!-- 20000 -->
      <g transform="translate(-0.3 63.348511)scale(0.16 -0.16)">
       <use xlink:href="#DejaVuSans-32"/>
       <use x="63.623047" xlink:href="#DejaVuSans-30"/>
       <use x="127.246094" xlink:href="#DejaVuSans-30"/>
       <use x="190.869141" xlink:href="#DejaVuSans-30"/>
       <use x="254.492188" xlink:href="#DejaVuSans-30"/>
      </g>
     </g>
    </g>
    <g id="text_12">
     <!-- Cumulative Reward -->
     <g transform="translate(-21.035 252.52425)rotate(-90)scale(0.16 -0.16)">
      <defs>
       <path d="M 4122 4306 
L 4122 3641 
Q 3803 3938 3442 4084 
Q 3081 4231 2675 4231 
Q 1875 4231 1450 3742 
Q 1025 3253 1025 2328 
Q 1025 1406 1450 917 
Q 1875 428 2675 428 
Q 3081 428 3442 575 
Q 3803 722 4122 1019 
L 4122 359 
Q 3791 134 3420 21 
Q 3050 -91 2638 -91 
Q 1578 -91 968 557 
Q 359 1206 359 2328 
Q 359 3453 968 4101 
Q 1578 4750 2638 4750 
Q 3056 4750 3426 4639 
Q 3797 4528 4122 4306 
z
" id="DejaVuSans-43" transform="scale(0.015625)"/>
       <path d="M 544 1381 
L 544 3500 
L 1119 3500 
L 1119 1403 
Q 1119 906 1312 657 
Q 1506 409 1894 409 
Q 2359 409 2629 706 
Q 2900 1003 2900 1516 
L 2900 3500 
L 3475 3500 
L 3475 0 
L 2900 0 
L 2900 538 
Q 2691 219 2414 64 
Q 2138 -91 1772 -91 
Q 1169 -91 856 284 
Q 544 659 544 1381 
z
M 1991 3584 
L 1991 3584 
z
" id="DejaVuSans-75" transform="scale(0.015625)"/>
       <path d="M 3328 2828 
Q 3544 3216 3844 3400 
Q 4144 3584 4550 3584 
Q 5097 3584 5394 3201 
Q 5691 2819 5691 2113 
L 5691 0 
L 5113 0 
L 5113 2094 
Q 5113 2597 4934 2840 
Q 4756 3084 4391 3084 
Q 3944 3084 3684 2787 
Q 3425 2491 3425 1978 
L 3425 0 
L 2847 0 
L 2847 2094 
Q 2847 2600 2669 2842 
Q 2491 3084 2119 3084 
Q 1678 3084 1418 2786 
Q 1159 2488 1159 1978 
L 1159 0 
L 581 0 
L 581 3500 
L 1159 3500 
L 1159 2956 
Q 1356 3278 1631 3431 
Q 1906 3584 2284 3584 
Q 2666 3584 2933 3390 
Q 3200 3197 3328 2828 
z
" id="DejaVuSans-6d" transform="scale(0.015625)"/>
       <path d="M 603 4863 
L 1178 4863 
L 1178 0 
L 603 0 
L 603 4863 
z
" id="DejaVuSans-6c" transform="scale(0.015625)"/>
       <path d="M 2194 1759 
Q 1497 1759 1228 1600 
Q 959 1441 959 1056 
Q 959 750 1161 570 
Q 1363 391 1709 391 
Q 2188 391 2477 730 
Q 2766 1069 2766 1631 
L 2766 1759 
L 2194 1759 
z
M 3341 1997 
L 3341 0 
L 2766 0 
L 2766 531 
Q 2569 213 2275 61 
Q 1981 -91 1556 -91 
Q 1019 -91 701 211 
Q 384 513 384 1019 
Q 384 1609 779 1909 
Q 1175 2209 1959 2209 
L 2766 2209 
L 2766 2266 
Q 2766 2663 2505 2880 
Q 2244 3097 1772 3097 
Q 1472 3097 1187 3025 
Q 903 2953 641 2809 
L 641 3341 
Q 956 3463 1253 3523 
Q 1550 3584 1831 3584 
Q 2591 3584 2966 3190 
Q 3341 2797 3341 1997 
z
" id="DejaVuSans-61" transform="scale(0.015625)"/>
       <path d="M 1172 4494 
L 1172 3500 
L 2356 3500 
L 2356 3053 
L 1172 3053 
L 1172 1153 
Q 1172 725 1289 603 
Q 1406 481 1766 481 
L 2356 481 
L 2356 0 
L 1766 0 
Q 1100 0 847 248 
Q 594 497 594 1153 
L 594 3053 
L 172 3053 
L 172 3500 
L 594 3500 
L 594 4494 
L 1172 4494 
z
" id="DejaVuSans-74" transform="scale(0.015625)"/>
       <path d="M 191 3500 
L 800 3500 
L 1894 563 
L 2988 3500 
L 3597 3500 
L 2284 0 
L 1503 0 
L 191 3500 
z
" id="DejaVuSans-76" transform="scale(0.015625)"/>
       <path id="DejaVuSans-20" transform="scale(0.015625)"/>
       <path d="M 2841 2188 
Q 3044 2119 3236 1894 
Q 3428 1669 3622 1275 
L 4263 0 
L 3584 0 
L 2988 1197 
Q 2756 1666 2539 1819 
Q 2322 1972 1947 1972 
L 1259 1972 
L 1259 0 
L 628 0 
L 628 4666 
L 2053 4666 
Q 2853 4666 3247 4331 
Q 3641 3997 3641 3322 
Q 3641 2881 3436 2590 
Q 3231 2300 2841 2188 
z
M 1259 4147 
L 1259 2491 
L 2053 2491 
Q 2509 2491 2742 2702 
Q 2975 2913 2975 3322 
Q 2975 3731 2742 3939 
Q 2509 4147 2053 4147 
L 1259 4147 
z
" id="DejaVuSans-52" transform="scale(0.015625)"/>
       <path d="M 269 3500 
L 844 3500 
L 1563 769 
L 2278 3500 
L 2956 3500 
L 3675 769 
L 4391 3500 
L 4966 3500 
L 4050 0 
L 3372 0 
L 2619 2869 
L 1863 0 
L 1184 0 
L 269 3500 
z
" id="DejaVuSans-77" transform="scale(0.015625)"/>
       <path d="M 2631 2963 
Q 2534 3019 2420 3045 
Q 2306 3072 2169 3072 
Q 1681 3072 1420 2755 
Q 1159 2438 1159 1844 
L 1159 0 
L 581 0 
L 581 3500 
L 1159 3500 
L 1159 2956 
Q 1341 3275 1631 3429 
Q 1922 3584 2338 3584 
Q 2397 3584 2469 3576 
Q 2541 3569 2628 3553 
L 2631 2963 
z
" id="DejaVuSans-72" transform="scale(0.015625)"/>
      </defs>
      <use xlink:href="#DejaVuSans-43"/>
      <use x="69.824219" xlink:href="#DejaVuSans-75"/>
      <use x="133.203125" xlink:href="#DejaVuSans-6d"/>
      <use x="230.615234" xlink:href="#DejaVuSans-75"/>
      <use x="293.994141" xlink:href="#DejaVuSans-6c"/>
      <use x="321.777344" xlink:href="#DejaVuSans-61"/>
      <use x="383.056641" xlink:href="#DejaVuSans-74"/>
      <use x="422.265625" xlink:href="#DejaVuSans-69"/>
      <use x="450.048828" xlink:href="#DejaVuSans-76"/>
      <use x="509.228516" xlink:href="#DejaVuSans-65"/>
      <use x="570.751953" xlink:href="#DejaVuSans-20"/>
      <use x="602.539062" xlink:href="#DejaVuSans-52"/>
      <use x="667.521484" xlink:href="#DejaVuSans-65"/>
      <use x="729.044922" xlink:href="#DejaVuSans-77"/>
      <use x="810.832031" xlink:href="#DejaVuSans-61"/>
      <use x="872.111328" xlink:href="#DejaVuSans-72"/>
      <use x="911.474609" xlink:href="#DejaVuSans-64"/>
     </g>
    </g>
   </g>
   <g id="line2d_21">
    <path clip-path="url(#p3ddd64886c)" d="M 57.6 161.894533 
L 57.68928 128.410072 
L 57.77856 135.754774 
L 57.86784 117.095309 
L 57.95712 161.894533 
L 58.0464 128.410072 
L 58.13568 135.754774 
L 58.22496 117.095309 
L 58.31424 161.894533 
L 58.40352 128.410072 
L 58.4928 135.754774 
L 58.58208 117.095309 
L 58.67136 161.894533 
L 58.76064 128.410072 
L 58.84992 135.754774 
L 58.9392 117.095309 
L 59.02848 161.894533 
L 59.11776 128.410072 
L 59.20704 135.754774 
L 59.29632 117.095309 
L 59.3856 161.894533 
L 59.47488 128.410072 
L 59.56416 135.754774 
L 59.65344 117.095309 
L 59.74272 161.894533 
L 59.832 128.410072 
L 59.92128 135.754774 
L 60.01056 117.095309 
L 60.09984 161.894533 
L 60.18912 128.410072 
L 60.2784 135.754774 
L 60.36768 117.095309 
L 60.45696 161.894533 
L 60.54624 128.410072 
L 60.63552 135.754774 
L 60.7248 117.095309 
L 60.81408 161.894533 
L 60.90336 128.410072 
L 60.99264 135.754774 
L 61.08192 117.095309 
L 61.1712 161.894533 
L 61.26048 128.410072 
L 61.34976 135.754774 
L 61.43904 117.095309 
L 61.52832 161.894533 
L 61.6176 128.410072 
L 61.70688 135.754774 
L 61.79616 117.095309 
L 61.88544 161.894533 
L 61.97472 128.410072 
L 62.064 135.754774 
L 62.15328 117.095309 
L 62.24256 161.894533 
L 62.33184 128.410072 
L 62.42112 135.754774 
L 62.5104 117.095309 
L 62.59968 161.894533 
L 62.68896 128.410072 
L 62.77824 135.754774 
L 62.86752 117.095309 
L 62.9568 161.894533 
L 63.04608 128.410072 
L 63.13536 135.754774 
L 63.22464 117.095309 
L 63.31392 161.894533 
L 63.4032 128.410072 
L 63.49248 135.754774 
L 63.58176 117.095309 
L 63.67104 161.894533 
L 63.76032 128.410072 
L 63.8496 135.754774 
L 63.93888 117.095309 
L 64.02816 161.894533 
L 64.11744 128.410072 
L 64.20672 135.754774 
L 64.296 117.095309 
L 64.38528 161.894533 
L 64.47456 128.410072 
L 64.56384 135.754774 
L 64.65312 117.095309 
L 64.7424 161.894533 
L 64.83168 128.410072 
L 64.92096 135.754774 
L 65.01024 117.095309 
L 65.09952 161.894533 
L 65.1888 128.410072 
L 65.27808 135.754774 
L 65.36736 117.095309 
L 65.45664 161.894533 
L 65.54592 128.410072 
L 65.6352 135.754774 
L 65.72448 117.095309 
L 65.81376 161.894533 
L 65.90304 128.410072 
L 65.99232 135.754774 
L 66.0816 117.095309 
L 66.17088 161.894533 
L 66.26016 128.410072 
L 66.34944 135.754774 
L 66.528 110.834305 
L 66.61728 145.301728 
L 66.70656 93.598667 
L 66.79584 154.806521 
L 66.88512 129.195086 
L 66.9744 138.877708 
L 67.06368 185.494277 
L 67.15296 116.016873 
L 67.24224 131.097381 
L 67.33152 155.403654 
L 67.4208 121.200997 
L 67.51008 162.236487 
L 67.59936 115.955006 
L 67.77792 144.406145 
L 67.95648 124.423264 
L 68.04576 177.818096 
L 68.13504 109.902648 
L 68.22432 128.661059 
L 68.3136 106.788258 
L 68.40288 164.585441 
L 68.49216 112.589818 
L 68.58144 112.76521 
L 68.76 121.060278 
L 68.84928 152.983865 
L 68.93856 92.415304 
L 69.02784 113.531367 
L 69.11712 184.822665 
L 69.2064 113.765069 
L 69.29568 116.705519 
L 69.38496 154.771258 
L 69.47424 102.269906 
L 69.56352 152.075397 
L 69.6528 142.346276 
L 69.74208 129.930171 
L 69.83136 99.138185 
L 70.00992 154.769065 
L 70.0992 119.434885 
L 70.18848 152.648704 
L 70.45632 112.080599 
L 70.5456 116.254711 
L 70.63488 132.775597 
L 70.81344 108.026759 
L 70.90272 117.708028 
L 70.992 223.295941 
L 71.08128 132.550433 
L 71.17056 135.694362 
L 71.4384 91.293229 
L 71.52768 108.194373 
L 71.61696 165.86645 
L 71.70624 93.6563 
L 71.79552 96.574799 
L 71.8848 132.458661 
L 71.97408 114.88759 
L 72.15264 131.990227 
L 72.3312 93.776557 
L 72.42048 129.59633 
L 72.50976 128.913098 
L 72.59904 106.832755 
L 72.68832 164.114413 
L 72.7776 87.866088 
L 72.95616 211.070393 
L 73.13472 90.686231 
L 73.40256 185.209164 
L 73.49184 106.885257 
L 73.58112 124.541185 
L 73.84896 108.591242 
L 73.93824 154.150748 
L 74.02752 101.827843 
L 74.1168 168.204268 
L 74.20608 144.412429 
L 74.29536 235.786135 
L 74.47392 100.1235 
L 74.5632 133.706147 
L 74.65248 108.62118 
L 74.74176 109.074474 
L 74.83104 121.198279 
L 74.92032 111.033395 
L 75.0096 158.90517 
L 75.18816 87.67078 
L 75.36672 144.100448 
L 75.456 109.875101 
L 75.54528 180.637387 
L 75.63456 92.034727 
L 75.72384 100.26752 
L 75.81312 91.574925 
L 75.99168 137.178194 
L 76.08096 130.139087 
L 76.17024 92.457183 
L 76.25952 139.311555 
L 76.43808 92.222304 
L 76.52736 126.839436 
L 76.61664 125.311109 
L 76.70592 108.588779 
L 76.7952 137.560586 
L 76.88448 118.057029 
L 76.97376 171.051173 
L 77.15232 110.486966 
L 77.2416 149.359291 
L 77.33088 130.379856 
L 77.42016 141.850915 
L 77.50944 140.033124 
L 77.59872 112.040422 
L 77.688 147.155188 
L 77.77728 106.507127 
L 78.04512 164.66585 
L 78.22368 91.280086 
L 78.31296 171.782686 
L 78.5808 98.650714 
L 78.67008 118.105345 
L 78.75936 114.873141 
L 78.84864 123.090469 
L 78.93792 79.949351 
L 79.20576 112.471103 
L 79.29504 115.026304 
L 79.38432 129.094122 
L 79.4736 95.551974 
L 79.56288 98.041994 
L 79.65216 98.594845 
L 79.74144 108.423438 
L 79.83072 101.690114 
L 80.00928 137.222736 
L 80.18784 111.204503 
L 80.3664 164.521739 
L 80.45568 114.268036 
L 80.54496 127.177132 
L 80.63424 88.688419 
L 80.72352 121.785505 
L 80.8128 114.952475 
L 80.90208 107.863637 
L 80.99136 112.838779 
L 81.08064 97.195088 
L 81.2592 128.634207 
L 81.34848 124.073355 
L 81.43776 131.677769 
L 81.52704 108.533111 
L 81.61632 115.31271 
L 81.7056 113.787635 
L 81.88416 101.568457 
L 81.97344 173.907754 
L 82.152 105.558366 
L 82.33056 166.008898 
L 82.41984 135.868568 
L 82.50912 145.140451 
L 82.5984 137.175974 
L 82.77696 97.133331 
L 82.86624 115.060994 
L 82.95552 106.171876 
L 83.0448 152.221405 
L 83.13408 122.928613 
L 83.22336 145.948022 
L 83.31264 116.781733 
L 83.40192 139.42168 
L 83.4912 123.546547 
L 83.58048 201.494568 
L 83.66976 96.92183 
L 83.75904 160.212955 
L 83.9376 106.652629 
L 84.11616 86.38047 
L 84.29472 125.745403 
L 84.384 95.415335 
L 84.47328 135.393225 
L 84.56256 109.282067 
L 84.74112 159.100624 
L 84.8304 86.91328 
L 85.00896 152.432791 
L 85.09824 106.404132 
L 85.18752 129.387502 
L 85.36608 89.310222 
L 85.54464 159.526303 
L 85.63392 123.068854 
L 85.7232 177.461212 
L 85.90176 131.177921 
L 85.99104 132.65229 
L 86.1696 88.700313 
L 86.25888 120.66894 
L 86.43744 94.713957 
L 86.52672 94.536619 
L 86.616 91.437558 
L 86.70528 98.017768 
L 86.88384 134.584725 
L 86.97312 133.439046 
L 87.15168 100.000855 
L 87.24096 103.776444 
L 87.33024 97.60391 
L 87.41952 98.473585 
L 87.5088 122.07347 
L 87.59808 92.656332 
L 87.86592 134.210271 
L 87.9552 125.82229 
L 88.04448 127.548416 
L 88.13376 87.014824 
L 88.22304 150.75023 
L 88.31232 113.698648 
L 88.4016 121.16291 
L 88.49088 104.117868 
L 88.58016 109.160808 
L 88.66944 102.897935 
L 88.848 196.815125 
L 88.93728 97.02933 
L 89.02656 141.084628 
L 89.11584 108.93875 
L 89.20512 167.663063 
L 89.2944 94.225539 
L 89.38368 127.632304 
L 89.47296 119.867568 
L 89.56224 93.780668 
L 89.65152 101.253339 
L 89.83008 125.029977 
L 89.91936 135.11728 
L 90.00864 107.521251 
L 90.09792 149.890219 
L 90.1872 118.999027 
L 90.27648 174.467562 
L 90.45504 96.567818 
L 90.54432 112.167405 
L 90.6336 101.258451 
L 90.72288 103.108616 
L 90.81216 108.553026 
L 90.90144 124.171923 
L 91.08 79.958055 
L 91.16928 186.415014 
L 91.25856 94.038994 
L 91.34784 142.544796 
L 91.43712 88.68102 
L 91.5264 149.306395 
L 91.61568 89.728049 
L 91.70496 103.228797 
L 91.79424 120.540035 
L 91.88352 101.198992 
L 91.9728 126.734027 
L 92.06208 88.890875 
L 92.15136 141.379765 
L 92.24064 93.468924 
L 92.32992 145.62006 
L 92.50848 110.136864 
L 92.59776 121.215983 
L 92.68704 104.566087 
L 92.77632 144.161887 
L 92.95488 97.403004 
L 93.04416 100.744127 
L 93.13344 89.957913 
L 93.22272 167.988939 
L 93.40128 106.639479 
L 93.57984 143.251689 
L 93.7584 86.098201 
L 93.84768 117.783398 
L 93.93696 94.63848 
L 94.02624 125.430307 
L 94.11552 90.94398 
L 94.2048 189.676123 
L 94.38336 90.608804 
L 94.47264 93.378727 
L 94.56192 113.251238 
L 94.6512 98.296418 
L 94.74048 112.09639 
L 94.82976 90.735561 
L 94.91904 98.755044 
L 95.00832 191.871817 
L 95.0976 81.063794 
L 95.18688 180.983629 
L 95.36544 101.513246 
L 95.45472 105.851783 
L 95.544 91.285061 
L 95.63328 197.062066 
L 95.72256 101.788706 
L 95.90112 193.821909 
L 95.9904 93.454257 
L 96.07968 189.298763 
L 96.25824 85.272553 
L 96.34752 156.044302 
L 96.70464 88.803899 
L 96.8832 178.721386 
L 96.97248 85.987875 
L 97.24032 198.659264 
L 97.41888 118.514695 
L 97.50816 122.629378 
L 97.68672 77.175375 
L 97.776 94.794361 
L 97.86528 92.312513 
L 97.95456 203.670305 
L 98.13312 102.0399 
L 98.2224 167.357863 
L 98.31168 130.348997 
L 98.40096 285.408 
L 98.49024 116.320671 
L 98.57952 121.421105 
L 98.84736 81.183362 
L 98.93664 86.373398 
L 99.20448 190.169534 
L 99.38304 89.565191 
L 99.5616 97.877424 
L 99.65088 121.363565 
L 99.82944 80.725639 
L 99.91872 197.261237 
L 100.008 92.542521 
L 100.09728 132.982291 
L 100.18656 110.406808 
L 100.36512 128.569658 
L 100.54368 88.375231 
L 100.72224 121.165575 
L 100.9008 87.388993 
L 101.07936 114.402296 
L 101.16864 80.422931 
L 101.25792 132.898657 
L 101.43648 81.21173 
L 101.52576 83.346138 
L 101.70432 97.780616 
L 101.7936 96.128434 
L 101.88288 77.34681 
L 101.97216 89.519458 
L 102.06144 82.173423 
L 102.15072 103.585064 
L 102.24 83.759844 
L 102.32928 118.232418 
L 102.50784 74.273158 
L 102.6864 179.011652 
L 102.95424 100.376991 
L 103.04352 82.731975 
L 103.1328 108.785015 
L 103.22208 83.194134 
L 103.40064 92.208 
L 103.48992 95.331537 
L 103.5792 139.405436 
L 103.66848 87.39353 
L 103.75776 88.456406 
L 103.93632 79.268046 
L 104.11488 102.242907 
L 104.29344 85.166225 
L 104.472 134.405954 
L 104.56128 99.666548 
L 104.65056 112.432718 
L 104.73984 80.733665 
L 104.82912 107.179683 
L 105.00768 81.523547 
L 105.09696 102.971425 
L 105.18624 75.618527 
L 105.3648 135.011354 
L 105.54336 78.979642 
L 105.63264 79.481042 
L 105.8112 163.957513 
L 106.07904 85.781173 
L 106.16832 114.863063 
L 106.2576 80.431551 
L 106.43616 107.90369 
L 106.52544 104.040185 
L 106.61472 95.162672 
L 106.704 117 
L 106.79328 73.826398 
L 107.1504 130.275204 
L 107.23968 92.567317 
L 107.32896 94.771641 
L 107.50752 85.240386 
L 107.5968 96.52523 
L 107.68608 128.196634 
L 107.77536 104.738974 
L 107.86464 148.905529 
L 108.13248 72.623424 
L 108.22176 92.435515 
L 108.40032 74.930437 
L 108.4896 77.15573 
L 108.57888 96.596927 
L 108.66816 157.569136 
L 108.84672 87.015825 
L 108.936 75.218582 
L 109.20384 86.141472 
L 109.29312 117.750676 
L 109.3824 84.477787 
L 109.47168 89.877184 
L 109.56096 91.499971 
L 109.65024 115.056569 
L 109.73952 83.380229 
L 109.8288 90.480908 
L 109.91808 90.842007 
L 110.00736 102.850576 
L 110.09664 84.210683 
L 110.18592 85.607281 
L 110.2752 88.51782 
L 110.36448 76.354231 
L 110.54304 94.200721 
L 110.63232 76.870271 
L 110.81088 105.179188 
L 110.90016 169.509269 
L 111.07872 81.316998 
L 111.168 94.081302 
L 111.25728 126.830626 
L 111.34656 72.961162 
L 111.43584 97.392166 
L 111.52512 92.384671 
L 111.6144 85.280045 
L 111.70368 86.195897 
L 111.79296 100.516479 
L 111.97152 74.007642 
L 112.0608 134.544251 
L 112.23936 81.920268 
L 112.32864 78.295718 
L 112.5072 99.376638 
L 112.59648 98.914718 
L 112.68576 77.203836 
L 112.77504 78.403736 
L 112.86432 131.497132 
L 112.9536 91.595166 
L 113.04288 93.431095 
L 113.22144 73.92097 
L 113.31072 93.119603 
L 113.4 81.943936 
L 113.48928 90.73362 
L 113.57856 85.250927 
L 113.66784 93.230438 
L 113.75712 74.515047 
L 113.93568 87.471409 
L 114.02496 77.947181 
L 114.11424 88.603368 
L 114.20352 125.159162 
L 114.2928 117.495278 
L 114.38208 69.465729 
L 114.47136 79.025657 
L 114.56064 164.845175 
L 114.64992 144.869669 
L 114.7392 81.262246 
L 114.82848 87.963266 
L 114.91776 138.97907 
L 115.09632 75.084808 
L 115.27488 119.192657 
L 115.36416 83.033371 
L 115.45344 107.747609 
L 115.54272 225.079931 
L 115.632 83.641274 
L 115.72128 86.652365 
L 115.81056 91.938807 
L 115.89984 78.63477 
L 115.98912 88.191053 
L 116.0784 85.069537 
L 116.16768 76.445798 
L 116.25696 116.757627 
L 116.34624 80.074179 
L 116.43552 84.915015 
L 116.5248 82.50517 
L 116.61408 69.774095 
L 116.70336 110.781543 
L 116.79264 75.722202 
L 116.88192 82.993273 
L 117.06048 70.489095 
L 117.14976 106.108158 
L 117.32832 74.993766 
L 117.4176 120.679118 
L 117.59616 80.667508 
L 117.77472 108.759832 
L 118.04256 72.105823 
L 118.3104 86.724553 
L 118.48896 70.170113 
L 118.57824 139.545932 
L 118.66752 71.835114 
L 118.7568 80.089125 
L 118.84608 70.706579 
L 118.93536 94.473471 
L 119.11392 73.645397 
L 119.2032 82.617481 
L 119.29248 75.226115 
L 119.38176 84.470031 
L 119.47104 79.590699 
L 119.56032 101.676604 
L 119.73888 84.906188 
L 119.82816 110.242911 
L 120.00672 73.378 
L 120.36384 93.197356 
L 120.45312 90.216644 
L 120.5424 71.693993 
L 120.63168 73.523792 
L 120.72096 82.599912 
L 120.89952 72.435741 
L 121.07808 105.263093 
L 121.25664 69.595987 
L 121.34592 70.931061 
L 121.4352 77.005857 
L 121.52448 76.564919 
L 121.70304 77.370778 
L 121.79232 74.07483 
L 121.8816 79.537076 
L 121.97088 78.16454 
L 122.06016 89.779649 
L 122.23872 72.417611 
L 122.328 72.971685 
L 122.41728 72.473093 
L 122.59584 89.265669 
L 122.68512 75.121481 
L 122.7744 85.99116 
L 122.86368 115.615134 
L 122.95296 77.217631 
L 123.04224 104.061491 
L 123.13152 69.206229 
L 123.2208 77.250301 
L 123.31008 84.475867 
L 123.39936 84.102035 
L 123.57792 72.752514 
L 123.6672 81.947688 
L 123.75648 70.663753 
L 123.84576 72.410826 
L 123.93504 68.506203 
L 124.02432 81.42911 
L 124.20288 70.283873 
L 124.29216 90.221396 
L 124.38144 69.625141 
L 124.47072 75.311842 
L 124.56 94.090933 
L 124.73856 72.266849 
L 124.82784 75.92532 
L 124.91712 73.609482 
L 125.0064 93.797686 
L 125.09568 75.015266 
L 125.18496 79.697592 
L 125.27424 70.681737 
L 125.4528 86.916461 
L 125.54208 96.077699 
L 125.63136 73.56181 
L 125.72064 82.14493 
L 125.80992 79.380672 
L 125.8992 71.791092 
L 125.98848 78.13287 
L 126.07776 98.380104 
L 126.16704 90.227716 
L 126.25632 92.704685 
L 126.43488 83.092377 
L 126.52416 84.584277 
L 126.70272 71.749818 
L 126.792 80.423183 
L 126.88128 75.231611 
L 126.97056 99.934547 
L 127.14912 77.696701 
L 127.2384 75.945704 
L 127.32768 78.099171 
L 127.41696 97.189371 
L 127.50624 68.886674 
L 127.59552 80.767744 
L 127.6848 132.160485 
L 127.77408 80.873327 
L 127.86336 109.864059 
L 127.95264 72.212152 
L 128.04192 74.580279 
L 128.1312 72.132039 
L 128.22048 72.382303 
L 128.30976 86.142317 
L 128.39904 70.09259 
L 128.48832 72.290373 
L 128.75616 78.16567 
L 128.84544 75.526606 
L 129.024 91.976113 
L 129.11328 79.156967 
L 129.20256 87.362106 
L 129.29184 73.033931 
L 129.38112 88.262201 
L 129.55968 68.597955 
L 129.82752 76.961747 
L 130.00608 69.024581 
L 130.18464 84.228236 
L 130.27392 82.63188 
L 130.3632 79.630954 
L 130.45248 67.764429 
L 130.54176 80.40417 
L 130.63104 71.001281 
L 130.72032 75.45198 
L 130.8096 74.315429 
L 130.89888 74.979835 
L 130.98816 78.175714 
L 131.07744 75.266239 
L 131.16672 88.61439 
L 131.34528 70.190969 
L 131.43456 91.149952 
L 131.52384 69.745942 
L 131.61312 77.433678 
L 131.7024 70.091619 
L 131.79168 75.421924 
L 131.88096 91.355716 
L 131.97024 89.389169 
L 132.05952 75.633559 
L 132.1488 97.330568 
L 132.32736 68.05077 
L 132.41664 92.144277 
L 132.50592 73.739063 
L 132.5952 75.903533 
L 132.68448 70.234747 
L 132.77376 96.127603 
L 132.86304 84.773936 
L 132.95232 92.834399 
L 133.13088 71.233844 
L 133.22016 76.371578 
L 133.30944 90.995687 
L 133.39872 67.657157 
L 133.488 83.338902 
L 133.75584 75.163814 
L 133.84512 82.816888 
L 133.9344 69.936691 
L 134.02368 74.166043 
L 134.11296 112.832651 
L 134.20224 70.253198 
L 134.29152 77.595363 
L 134.3808 67.11748 
L 134.47008 69.370612 
L 134.55936 85.864511 
L 134.64864 69.122396 
L 134.8272 77.31498 
L 135.09504 69.232893 
L 135.18432 90.955272 
L 135.2736 70.891661 
L 135.36288 88.123045 
L 135.54144 68.198318 
L 135.63072 82.356596 
L 135.80928 69.453812 
L 135.89856 68.934397 
L 135.98784 70.11587 
L 136.07712 73.931462 
L 136.1664 130.39993 
L 136.34496 75.574213 
L 136.43424 78.537171 
L 136.6128 69.267692 
L 136.70208 76.766666 
L 136.79136 71.136077 
L 136.88064 72.47684 
L 136.96992 68.299207 
L 137.0592 71.986596 
L 137.14848 68.8116 
L 137.23776 69.21648 
L 137.41632 76.678917 
L 137.5056 76.367614 
L 137.59488 70.526027 
L 137.68416 74.879837 
L 137.952 70.279922 
L 138.04128 91.681277 
L 138.21984 71.553321 
L 138.30912 72.992989 
L 138.48768 85.921814 
L 138.57696 68.722106 
L 138.66624 69.236849 
L 138.75552 79.056181 
L 138.8448 68.782939 
L 139.02336 79.556852 
L 139.20192 66.681102 
L 139.38048 73.018314 
L 139.46976 68.833684 
L 139.55904 76.392125 
L 139.82688 69.543293 
L 139.91616 71.315793 
L 140.00544 103.151557 
L 140.184 66.667106 
L 140.27328 109.042398 
L 140.36256 70.340201 
L 140.45184 72.660196 
L 140.54112 70.991563 
L 140.6304 71.172756 
L 140.80896 87.948195 
L 140.89824 67.404536 
L 140.98752 78.957035 
L 141.0768 67.065152 
L 141.25536 78.361455 
L 141.34464 73.14815 
L 141.43392 96.957382 
L 141.61248 67.412098 
L 141.70176 81.28024 
L 141.79104 66.66771 
L 141.88032 69.178057 
L 141.9696 78.896312 
L 142.14816 71.951875 
L 142.23744 67.833616 
L 142.416 82.907574 
L 142.59456 68.307776 
L 142.68384 78.25147 
L 142.77312 76.776157 
L 142.95168 68.887551 
L 143.04096 70.939448 
L 143.13024 66.268143 
L 143.3088 78.577106 
L 143.48736 67.935191 
L 143.66592 93.186736 
L 143.7552 69.654234 
L 143.84448 71.619812 
L 144.02304 82.067129 
L 144.2016 67.650233 
L 144.29088 72.254397 
L 144.46944 68.387845 
L 144.55872 72.670604 
L 144.648 71.573653 
L 144.73728 67.761297 
L 144.91584 71.177026 
L 145.00512 92.77732 
L 145.0944 67.651842 
L 145.18368 71.243314 
L 145.36224 79.889704 
L 145.45152 66.502103 
L 145.71936 81.267737 
L 145.80864 75.002229 
L 145.9872 79.636892 
L 146.16576 68.408042 
L 146.25504 71.661683 
L 146.4336 69.952098 
L 146.52288 92.872913 
L 146.61216 67.575972 
L 146.70144 67.739541 
L 146.79072 68.167519 
L 146.88 71.93376 
L 147.05856 70.219757 
L 147.14784 86.856012 
L 147.3264 72.989471 
L 147.41568 78.989599 
L 147.50496 72.709079 
L 147.68352 91.364051 
L 147.7728 69.96833 
L 147.86208 77.777728 
L 148.04064 71.068418 
L 148.12992 73.067287 
L 148.30848 75.642608 
L 148.39776 80.080197 
L 148.57632 69.188283 
L 148.6656 75.900582 
L 148.75488 67.325703 
L 148.84416 69.658472 
L 148.93344 68.149643 
L 149.02272 86.861079 
L 149.20128 68.310571 
L 149.29056 68.061666 
L 149.37984 69.189327 
L 149.46912 68.422217 
L 149.5584 69.078606 
L 149.64768 76.543142 
L 149.73696 68.62029 
L 149.82624 76.680976 
L 150.0048 69.09359 
L 150.09408 67.930078 
L 150.18336 69.334283 
L 150.27264 96.920001 
L 150.4512 67.09428 
L 150.54048 78.347142 
L 150.62976 71.736919 
L 150.71904 75.108715 
L 150.80832 68.272189 
L 150.8976 73.062244 
L 151.07616 66.385484 
L 151.16544 71.032961 
L 151.25472 68.367287 
L 151.344 102.041198 
L 151.52256 69.057432 
L 151.61184 70.035106 
L 151.70112 67.806286 
L 151.7904 72.040823 
L 151.87968 68.498708 
L 151.96896 72.383018 
L 152.05824 123.670138 
L 152.2368 69.661909 
L 152.32608 71.560071 
L 152.50464 68.600559 
L 152.59392 69.812609 
L 152.6832 68.511783 
L 152.77248 68.681539 
L 152.86176 71.59798 
L 153.04032 67.194368 
L 153.21888 71.85479 
L 153.30816 67.996961 
L 153.39744 68.762467 
L 153.48672 68.103438 
L 153.576 75.758606 
L 153.66528 68.164882 
L 153.84384 73.827859 
L 153.93312 71.323905 
L 154.0224 75.655108 
L 154.20096 71.212782 
L 154.37952 67.867213 
L 154.4688 85.394037 
L 154.55808 66.087142 
L 154.64736 68.783582 
L 154.73664 75.387682 
L 154.82592 74.957817 
L 155.00448 67.745609 
L 155.09376 73.94497 
L 155.18304 68.482295 
L 155.27232 69.448313 
L 155.3616 72.95538 
L 155.45088 66.952394 
L 155.54016 67.279223 
L 155.62944 203.418109 
L 155.808 67.445193 
L 155.98656 82.454951 
L 156.07584 66.731217 
L 156.16512 67.180886 
L 156.2544 96.322301 
L 156.43296 66.37542 
L 156.52224 69.771668 
L 156.61152 88.900032 
L 156.79008 65.92812 
L 156.96864 68.824935 
L 157.05792 65.720639 
L 157.23648 71.153915 
L 157.32576 70.83246 
L 157.41504 77.528253 
L 157.5936 66.628261 
L 157.68288 68.897654 
L 157.77216 105.341823 
L 157.86144 71.441663 
L 157.95072 73.918071 
L 158.04 74.076391 
L 158.12928 99.62627 
L 158.21856 66.792161 
L 158.30784 72.270179 
L 158.39712 92.451195 
L 158.57568 68.300399 
L 158.66496 130.463983 
L 158.75424 66.75344 
L 158.84352 70.69199 
L 158.9328 69.275411 
L 159.11136 70.050037 
L 159.20064 69.815779 
L 159.28992 77.302123 
L 159.3792 69.056272 
L 159.46848 69.137623 
L 159.55776 71.607018 
L 159.64704 68.247442 
L 159.73632 70.767293 
L 159.91488 68.57922 
L 160.00416 65.125182 
L 160.18272 67.584435 
L 160.272 67.653151 
L 160.36128 71.171711 
L 160.45056 68.221796 
L 160.53984 69.259539 
L 160.62912 92.36395 
L 160.7184 69.50339 
L 160.80768 72.830413 
L 161.07552 66.185001 
L 161.1648 67.275778 
L 161.25408 76.516993 
L 161.34336 69.600735 
L 161.43264 69.918885 
L 161.52192 66.072117 
L 161.70048 74.39699 
L 161.78976 65.974986 
L 161.87904 72.651355 
L 161.96832 111.513779 
L 162.0576 68.895498 
L 162.14688 75.421731 
L 162.23616 70.484891 
L 162.32544 71.276369 
L 162.504 67.163227 
L 162.68256 73.825057 
L 162.9504 66.169516 
L 163.03968 69.846426 
L 163.21824 67.186555 
L 163.30752 67.39721 
L 163.3968 66.331336 
L 163.57536 68.70985 
L 163.66464 66.540258 
L 163.75392 67.273879 
L 163.8432 69.103647 
L 163.93248 66.168889 
L 164.02176 67.101342 
L 164.11104 65.443338 
L 164.20032 67.000746 
L 164.37888 79.379784 
L 164.55744 66.322351 
L 164.64672 66.418681 
L 164.736 65.900136 
L 164.82528 72.635065 
L 165.00384 65.945913 
L 165.09312 65.921189 
L 165.1824 69.68543 
L 165.27168 68.647889 
L 165.36096 65.977613 
L 165.45024 67.716793 
L 165.53952 71.839679 
L 165.71808 67.415764 
L 165.89664 70.336295 
L 166.0752 66.012634 
L 166.16448 68.69493 
L 166.25376 68.515737 
L 166.43232 69.317745 
L 166.61088 64.991426 
L 166.70016 73.459411 
L 166.78944 68.004312 
L 166.87872 69.268625 
L 166.968 68.186494 
L 167.14656 92.72066 
L 167.32512 67.308563 
L 167.4144 67.591942 
L 167.50368 64.999757 
L 167.59296 70.645741 
L 167.68224 69.614228 
L 167.77152 65.615167 
L 167.8608 69.811386 
L 167.95008 65.946186 
L 168.12864 74.875361 
L 168.3072 66.860945 
L 168.48576 70.89738 
L 168.66432 66.613546 
L 168.7536 68.95965 
L 168.84288 67.768265 
L 168.93216 69.684965 
L 169.11072 65.271301 
L 169.2 66.231885 
L 169.28928 70.684012 
L 169.37856 68.913801 
L 169.46784 69.55842 
L 169.55712 66.913937 
L 169.6464 68.767584 
L 169.73568 79.902203 
L 169.82496 66.544389 
L 169.91424 73.807982 
L 170.00352 65.445262 
L 170.0928 66.873389 
L 170.18208 101.349008 
L 170.27136 66.043009 
L 170.36064 66.401295 
L 170.44992 65.036986 
L 170.5392 65.819594 
L 170.62848 70.633751 
L 170.71776 66.387579 
L 170.80704 67.422569 
L 170.9856 68.691683 
L 171.07488 65.016744 
L 171.25344 74.633596 
L 171.432 66.027932 
L 171.52128 66.207504 
L 171.61056 67.251563 
L 171.69984 77.754075 
L 171.8784 65.496478 
L 172.05696 69.047423 
L 172.14624 65.589841 
L 172.23552 67.482296 
L 172.3248 73.024537 
L 172.41408 66.372121 
L 172.50336 67.762915 
L 172.68192 65.068603 
L 172.7712 65.344782 
L 173.03904 70.665718 
L 173.12832 82.674236 
L 173.2176 69.797222 
L 173.30688 74.037269 
L 173.39616 66.107604 
L 173.48544 66.903942 
L 173.57472 66.352326 
L 173.664 68.582605 
L 173.84256 65.308561 
L 173.93184 69.918772 
L 174.1104 65.627861 
L 174.37824 73.931525 
L 174.46752 65.894948 
L 174.5568 71.657272 
L 174.73536 66.263512 
L 174.82464 66.803038 
L 175.0032 65.125837 
L 175.09248 65.74854 
L 175.18176 64.862736 
L 175.36032 66.508914 
L 175.62816 64.589461 
L 175.80672 67.408547 
L 175.896 66.716899 
L 175.98528 67.08833 
L 176.16384 69.186518 
L 176.25312 65.935626 
L 176.3424 69.48444 
L 176.52096 65.129587 
L 176.61024 77.43923 
L 176.69952 66.537303 
L 176.7888 68.548363 
L 176.87808 67.52598 
L 176.96736 67.958063 
L 177.05664 66.342209 
L 177.14592 66.452025 
L 177.2352 67.17337 
L 177.41376 72.747951 
L 177.59232 68.493825 
L 177.6816 70.113988 
L 177.77088 85.267982 
L 177.86016 64.606111 
L 177.94944 72.783962 
L 178.128 66.073762 
L 178.21728 71.288242 
L 178.30656 66.482618 
L 178.39584 80.032991 
L 178.48512 65.410528 
L 178.66368 71.43603 
L 178.84224 65.586413 
L 179.0208 73.97911 
L 179.11008 67.326779 
L 179.19936 72.454936 
L 179.37792 66.71886 
L 179.4672 69.766255 
L 179.55648 81.112574 
L 179.64576 64.989261 
L 179.73504 70.163277 
L 179.9136 66.016501 
L 180.09216 71.852502 
L 180.18144 70.916939 
L 180.36 67.563364 
L 180.44928 69.74019 
L 180.62784 66.09247 
L 180.71712 70.552774 
L 180.89568 66.311891 
L 180.98496 66.160559 
L 181.07424 66.559937 
L 181.16352 65.960513 
L 181.2528 66.780867 
L 181.34208 65.140866 
L 181.52064 68.84223 
L 181.60992 66.162827 
L 181.6992 66.319022 
L 181.78848 65.534926 
L 181.87776 66.367845 
L 181.96704 70.193651 
L 182.05632 67.993969 
L 182.1456 70.283144 
L 182.32416 64.833979 
L 182.41344 71.191646 
L 182.50272 65.190034 
L 182.592 66.3774 
L 182.68128 69.048429 
L 182.77056 66.141946 
L 182.85984 67.720533 
L 183.21696 65.857038 
L 183.30624 67.163836 
L 183.39552 74.398835 
L 183.4848 66.951285 
L 183.57408 72.190641 
L 183.66336 64.779632 
L 183.75264 66.460344 
L 183.84192 64.706055 
L 184.02048 66.882117 
L 184.10976 66.476749 
L 184.19904 66.854029 
L 184.28832 70.693138 
L 184.3776 68.186413 
L 184.46688 70.567431 
L 184.55616 66.229545 
L 184.64544 66.28106 
L 184.73472 67.66286 
L 184.824 67.004462 
L 184.91328 65.242358 
L 185.00256 65.315721 
L 185.09184 64.193539 
L 185.35968 67.856734 
L 185.44896 82.329942 
L 185.62752 64.98836 
L 185.7168 65.272773 
L 185.80608 64.96992 
L 185.98464 67.854571 
L 186.1632 68.814483 
L 186.25248 65.180997 
L 186.34176 67.131266 
L 186.43104 67.01267 
L 186.52032 65.585916 
L 186.69888 68.492605 
L 186.78816 65.786536 
L 186.87744 67.029067 
L 186.96672 65.036966 
L 187.056 66.143081 
L 187.14528 74.600642 
L 187.23456 66.751356 
L 187.32384 67.571328 
L 187.41312 65.24743 
L 187.5024 67.047175 
L 187.59168 65.112875 
L 187.68096 66.181086 
L 187.77024 65.413467 
L 187.85952 68.983737 
L 187.9488 68.433563 
L 188.3952 64.619469 
L 188.48448 65.750721 
L 188.57376 82.53086 
L 188.66304 66.050742 
L 188.75232 68.803597 
L 188.93088 66.585398 
L 189.02016 65.29191 
L 189.288 66.595169 
L 189.37728 65.410612 
L 189.46656 68.014436 
L 189.55584 64.450581 
L 189.64512 70.269153 
L 189.82368 65.160149 
L 189.91296 66.390329 
L 190.00224 84.232555 
L 190.09152 65.871772 
L 190.1808 68.67669 
L 190.27008 64.288021 
L 190.35936 65.1414 
L 190.44864 66.069858 
L 190.53792 72.872811 
L 190.71648 65.948444 
L 190.80576 64.847808 
L 190.89504 66.731211 
L 191.0736 64.49906 
L 191.16288 70.026994 
L 191.25216 64.912096 
L 191.34144 81.000103 
L 191.43072 65.06388 
L 191.52 65.914476 
L 191.60928 66.603404 
L 191.69856 64.330321 
L 191.78784 65.915986 
L 191.87712 64.457931 
L 191.9664 77.875063 
L 192.05568 65.640561 
L 192.14496 66.533167 
L 192.23424 66.124289 
L 192.32352 64.920552 
L 192.4128 69.589809 
L 192.50208 66.7895 
L 192.59136 67.42838 
L 192.68064 66.761387 
L 192.76992 76.683182 
L 192.8592 65.076799 
L 192.94848 65.466107 
L 193.03776 68.938127 
L 193.12704 68.4913 
L 193.21632 65.317096 
L 193.3056 66.110433 
L 193.39488 65.12523 
L 193.57344 67.276658 
L 193.752 64.050617 
L 193.84128 67.007964 
L 193.93056 65.50837 
L 194.01984 66.292297 
L 194.10912 76.163706 
L 194.1984 65.028166 
L 194.28768 65.415855 
L 194.37696 65.27158 
L 194.46624 66.120872 
L 194.55552 64.718943 
L 194.6448 64.88091 
L 194.73408 68.013534 
L 194.82336 67.303752 
L 194.91264 66.351664 
L 195.00192 71.905298 
L 195.0912 64.465737 
L 195.26976 69.412861 
L 195.35904 68.584566 
L 195.44832 64.570857 
L 195.5376 67.515463 
L 195.62688 67.03766 
L 195.80544 64.894587 
L 195.89472 68.10367 
L 195.984 64.855855 
L 196.07328 67.09251 
L 196.25184 64.988427 
L 196.34112 64.697817 
L 196.4304 66.703421 
L 196.51968 65.257929 
L 196.60896 71.671557 
L 196.78752 64.812612 
L 196.8768 65.413492 
L 196.96608 67.54139 
L 197.05536 63.950398 
L 197.14464 64.607104 
L 197.23392 65.68564 
L 197.3232 64.366778 
L 197.50176 69.857919 
L 197.59104 64.749718 
L 197.68032 74.902078 
L 197.85888 67.131892 
L 197.94816 69.262535 
L 198.03744 65.808424 
L 198.12672 71.111266 
L 198.30528 64.985526 
L 198.57312 68.609062 
L 198.6624 65.484661 
L 198.75168 66.84109 
L 198.93024 65.20053 
L 199.01952 65.933826 
L 199.1088 65.749411 
L 199.19808 66.408367 
L 199.28736 65.464048 
L 199.37664 67.077616 
L 199.46592 66.442293 
L 199.5552 66.948704 
L 199.64448 64.25589 
L 199.73376 65.447224 
L 199.82304 68.307362 
L 199.91232 67.400334 
L 200.0016 64.530306 
L 200.18016 68.021368 
L 200.26944 64.01213 
L 200.35872 67.15909 
L 200.448 77.861036 
L 200.53728 65.467743 
L 200.62656 67.394162 
L 200.71584 64.970777 
L 200.98368 71.487561 
L 201.16224 65.220531 
L 201.25152 66.603394 
L 201.3408 76.807303 
L 201.51936 65.804378 
L 201.60864 67.152032 
L 201.87648 64.546558 
L 201.96576 70.163645 
L 202.14432 64.929136 
L 202.2336 65.337509 
L 202.32288 68.64097 
L 202.41216 64.436439 
L 202.50144 73.756062 
L 202.68 64.285689 
L 202.76928 65.032794 
L 202.85856 68.328608 
L 202.94784 64.900936 
L 203.03712 66.255516 
L 203.1264 65.997355 
L 203.30496 66.782968 
L 203.39424 66.528274 
L 203.48352 64.790307 
L 203.5728 66.306042 
L 203.66208 66.050078 
L 203.84064 68.129646 
L 203.92992 64.863299 
L 204.0192 68.707865 
L 204.10848 65.394304 
L 204.19776 69.21138 
L 204.28704 80.472484 
L 204.4656 64.78413 
L 204.55488 65.340104 
L 204.64416 72.285218 
L 204.82272 64.208221 
L 204.912 64.752444 
L 205.09056 68.422716 
L 205.26912 65.615361 
L 205.3584 66.068903 
L 205.44768 87.405926 
L 205.53696 64.830367 
L 205.62624 66.809419 
L 205.8048 64.51069 
L 206.07264 68.771926 
L 206.2512 66.095006 
L 206.42976 66.902235 
L 206.51904 70.954474 
L 206.60832 64.990135 
L 206.6976 65.504888 
L 206.87616 66.914216 
L 207.144 64.374127 
L 207.23328 71.062088 
L 207.41184 65.706273 
L 207.50112 64.509613 
L 207.67968 65.249663 
L 207.76896 69.161922 
L 207.94752 65.251673 
L 208.0368 64.480851 
L 208.12608 65.584324 
L 208.21536 65.565076 
L 208.30464 64.650243 
L 208.39392 68.362218 
L 208.4832 83.458226 
L 208.66176 65.613172 
L 208.84032 66.032787 
L 208.9296 67.824172 
L 209.01888 65.064648 
L 209.10816 71.060411 
L 209.19744 66.811199 
L 209.28672 73.72279 
L 209.64384 64.757514 
L 209.73312 64.582883 
L 209.8224 65.978234 
L 209.91168 64.869626 
L 210.17952 67.397534 
L 210.2688 66.82158 
L 210.35808 65.370913 
L 210.44736 66.016217 
L 210.53664 68.383393 
L 210.7152 65.575889 
L 210.98304 67.325369 
L 211.07232 65.252342 
L 211.1616 74.167563 
L 211.25088 67.166567 
L 211.34016 72.761348 
L 211.42944 65.259427 
L 211.51872 66.59067 
L 211.608 66.602011 
L 211.69728 65.1006 
L 211.87584 66.720837 
L 211.96512 64.687459 
L 212.0544 66.515792 
L 212.14368 71.934172 
L 212.32224 65.969796 
L 212.41152 69.671309 
L 212.5008 66.13107 
L 212.59008 69.364358 
L 212.67936 68.306611 
L 212.76864 65.03006 
L 212.85792 67.207963 
L 212.9472 67.03945 
L 213.03648 67.255913 
L 213.12576 66.043742 
L 213.21504 68.484956 
L 213.30432 67.91254 
L 213.48288 65.735736 
L 213.57216 72.036679 
L 213.66144 66.001385 
L 213.75072 66.888571 
L 213.92928 67.045528 
L 214.01856 66.600798 
L 214.10784 66.876264 
L 214.19712 69.87121 
L 214.2864 68.695276 
L 214.37568 65.151546 
L 214.46496 65.820604 
L 214.55424 70.437009 
L 214.64352 65.482862 
L 214.7328 66.494189 
L 214.82208 69.129565 
L 214.91136 65.738902 
L 215.00064 70.836863 
L 215.08992 65.064098 
L 215.1792 68.795869 
L 215.26848 67.769322 
L 215.35776 64.963418 
L 215.44704 65.584416 
L 215.53632 69.383846 
L 215.80416 65.236791 
L 215.89344 66.219924 
L 215.98272 65.157578 
L 216.072 66.540227 
L 216.16128 65.512073 
L 216.25056 75.633573 
L 216.42912 65.560081 
L 216.5184 64.776989 
L 216.60768 66.312088 
L 216.69696 64.390225 
L 216.78624 69.806667 
L 216.87552 64.791592 
L 216.9648 65.065484 
L 217.05408 72.466072 
L 217.14336 66.000334 
L 217.32192 71.286646 
L 217.4112 66.808253 
L 217.50048 76.513605 
L 217.58976 65.278319 
L 217.67904 66.898539 
L 217.76832 66.253843 
L 217.8576 68.305028 
L 217.94688 66.353087 
L 218.03616 66.87704 
L 218.12544 64.802453 
L 218.21472 69.421589 
L 218.304 64.661221 
L 218.48256 70.090143 
L 218.57184 65.598983 
L 218.66112 66.38196 
L 218.7504 65.139953 
L 218.83968 66.763509 
L 218.92896 65.59426 
L 219.01824 67.378784 
L 219.10752 67.233249 
L 219.37536 65.22412 
L 219.46464 65.525123 
L 219.55392 71.845215 
L 219.6432 65.518047 
L 219.73248 65.836096 
L 219.82176 69.521545 
L 220.0896 64.493402 
L 220.17888 65.648949 
L 220.26816 65.563567 
L 220.35744 65.442191 
L 220.44672 92.836331 
L 220.62528 67.421637 
L 220.71456 66.001519 
L 220.80384 106.682887 
L 220.89312 66.375473 
L 220.9824 67.986787 
L 221.25024 65.65026 
L 221.33952 69.239227 
L 221.4288 65.929099 
L 221.51808 68.307832 
L 221.69664 65.734726 
L 221.78592 64.607341 
L 221.8752 68.909808 
L 221.96448 66.91381 
L 222.05376 69.322503 
L 222.23232 66.1744 
L 222.3216 71.032983 
L 222.41088 65.339346 
L 222.50016 72.123887 
L 222.67872 64.329195 
L 222.768 73.014657 
L 222.94656 67.937944 
L 223.12512 75.388852 
L 223.2144 68.789895 
L 223.30368 69.262931 
L 223.39296 64.924925 
L 223.57152 74.976356 
L 223.75008 68.06536 
L 223.83936 67.974398 
L 223.92864 65.153782 
L 224.01792 65.472914 
L 224.1072 65.230241 
L 224.19648 66.908461 
L 224.28576 64.45084 
L 224.37504 72.625056 
L 224.46432 66.870119 
L 224.5536 67.410914 
L 224.64288 64.947137 
L 224.73216 66.559131 
L 224.82144 65.635468 
L 224.91072 67.306053 
L 225 66.27726 
L 225.08928 80.584857 
L 225.17856 78.623457 
L 225.35712 64.531136 
L 225.53568 66.750856 
L 225.62496 65.810094 
L 225.71424 66.395744 
L 225.80352 64.94798 
L 225.8928 65.232398 
L 225.98208 65.747081 
L 226.16064 64.57019 
L 226.24992 68.252439 
L 226.3392 65.42058 
L 226.42848 66.123388 
L 226.60704 65.061996 
L 226.7856 68.082708 
L 226.87488 66.758364 
L 226.96416 74.854014 
L 227.232 65.571808 
L 227.32128 65.880449 
L 227.41056 65.386317 
L 227.49984 69.027702 
L 227.76768 64.268437 
L 227.85696 67.221395 
L 227.94624 155.050681 
L 228.03552 69.626442 
L 228.1248 76.028158 
L 228.21408 65.942654 
L 228.30336 66.432454 
L 228.39264 68.115353 
L 228.5712 65.155378 
L 228.66048 76.361112 
L 228.74976 67.954307 
L 228.83904 70.602897 
L 228.92832 66.218906 
L 229.0176 67.687798 
L 229.10688 65.609015 
L 229.28544 67.089566 
L 229.464 66.766798 
L 229.55328 67.13428 
L 229.64256 68.678932 
L 229.73184 66.102597 
L 229.82112 70.872878 
L 229.9104 67.635159 
L 229.99968 69.756803 
L 230.08896 67.640249 
L 230.17824 69.023459 
L 230.3568 66.178567 
L 230.53536 65.557635 
L 230.71392 66.149524 
L 230.8032 65.832755 
L 231.2496 68.639461 
L 231.33888 66.221074 
L 231.51744 68.809373 
L 231.60672 65.61348 
L 231.696 65.713475 
L 231.87456 67.845401 
L 231.96384 65.343881 
L 232.05312 66.28142 
L 232.23168 65.281728 
L 232.32096 69.541951 
L 232.41024 67.115207 
L 232.49952 67.398198 
L 232.5888 68.676051 
L 232.67808 67.985159 
L 232.76736 70.634208 
L 232.85664 66.151117 
L 232.94592 67.65406 
L 233.0352 65.339579 
L 233.12448 66.560853 
L 233.21376 71.175078 
L 233.30304 65.927147 
L 233.39232 77.595412 
L 233.57088 66.222791 
L 233.74944 104.81266 
L 233.83872 65.521626 
L 233.928 69.695661 
L 234.01728 66.095745 
L 234.10656 66.601526 
L 234.19584 74.952919 
L 234.3744 65.618862 
L 234.46368 66.405167 
L 234.55296 65.696688 
L 234.64224 68.664418 
L 234.8208 66.515198 
L 234.91008 66.426177 
L 234.99936 65.725069 
L 235.08864 112.097726 
L 235.17792 66.282392 
L 235.2672 66.773195 
L 235.35648 70.477169 
L 235.44576 66.18224 
L 235.62432 72.069553 
L 235.7136 67.034625 
L 235.89216 74.560484 
L 236.07072 66.462298 
L 236.16 71.444107 
L 236.33856 66.065726 
L 236.42784 66.178701 
L 236.51712 68.476648 
L 236.6064 65.689615 
L 236.69568 72.366916 
L 236.78496 66.962901 
L 236.87424 71.672537 
L 237.0528 66.43487 
L 237.14208 76.82058 
L 237.32064 65.965185 
L 237.40992 65.255193 
L 237.4992 70.323107 
L 237.67776 67.868004 
L 237.76704 66.525575 
L 237.85632 66.956265 
L 237.9456 65.05495 
L 238.03488 66.361968 
L 238.12416 65.937036 
L 238.30272 69.104918 
L 238.392 67.894197 
L 238.48128 64.692464 
L 238.57056 65.88108 
L 238.65984 70.021204 
L 238.74912 65.972034 
L 238.8384 67.22482 
L 238.92768 66.992771 
L 239.01696 67.068578 
L 239.10624 66.239435 
L 239.19552 66.770476 
L 239.2848 65.914323 
L 239.37408 69.612273 
L 239.46336 66.081223 
L 239.55264 68.894032 
L 239.64192 66.313241 
L 239.7312 72.131358 
L 239.90976 66.336096 
L 239.99904 65.957597 
L 240.08832 73.321638 
L 240.1776 66.271009 
L 240.26688 67.953005 
L 240.35616 72.423298 
L 240.44544 65.709112 
L 240.53472 66.280445 
L 240.624 66.18392 
L 240.71328 66.98222 
L 240.80256 66.873307 
L 240.98112 64.966334 
L 241.15968 66.799122 
L 241.24896 65.120504 
L 241.33824 66.714055 
L 241.42752 65.133704 
L 241.5168 65.726696 
L 241.60608 65.487952 
L 241.69536 64.784069 
L 241.78464 66.041155 
L 241.87392 64.402844 
L 241.9632 65.158127 
L 242.14176 67.838632 
L 242.23104 125.088934 
L 242.32032 64.85199 
L 242.4096 66.408008 
L 242.49888 65.239704 
L 242.58816 68.291091 
L 242.67744 65.689684 
L 242.76672 66.013634 
L 242.856 72.044954 
L 243.03456 66.539515 
L 243.12384 65.029503 
L 243.21312 65.50983 
L 243.3024 64.559113 
L 243.48096 68.655541 
L 243.57024 71.12312 
L 243.65952 65.30618 
L 243.7488 65.758723 
L 243.83808 65.995018 
L 243.92736 65.841321 
L 244.01664 73.816946 
L 244.1952 65.161055 
L 244.28448 65.396648 
L 244.37376 69.955121 
L 244.46304 64.978032 
L 244.55232 65.724858 
L 244.73088 71.287192 
L 244.82016 65.89592 
L 244.90944 70.100314 
L 245.088 65.896361 
L 245.17728 66.375321 
L 245.26656 65.312443 
L 245.35584 65.445654 
L 245.44512 65.238117 
L 245.5344 66.867673 
L 245.62368 65.303619 
L 245.71296 65.629023 
L 245.80224 65.284835 
L 246.07008 72.182954 
L 246.15936 65.880539 
L 246.24864 67.911398 
L 246.33792 67.523898 
L 246.4272 65.172432 
L 246.51648 66.513755 
L 246.69504 65.024601 
L 246.78432 89.59177 
L 246.8736 65.33677 
L 246.96288 65.864612 
L 247.05216 66.431005 
L 247.14144 68.576435 
L 247.40928 65.282733 
L 247.58784 68.215964 
L 247.7664 64.983729 
L 247.85568 65.315489 
L 247.94496 67.052728 
L 248.03424 65.843818 
L 248.12352 71.762084 
L 248.30208 65.000377 
L 248.39136 65.244056 
L 248.48064 68.981327 
L 248.56992 68.334422 
L 248.6592 98.712014 
L 248.83776 65.066479 
L 248.92704 77.128106 
L 249.01632 65.314089 
L 249.1056 67.519227 
L 249.19488 64.789918 
L 249.28416 65.371871 
L 249.46272 69.716475 
L 249.552 65.912067 
L 249.73056 67.462661 
L 249.90912 66.558168 
L 249.9984 68.196861 
L 250.17696 65.394205 
L 250.35552 64.639227 
L 250.62336 66.672935 
L 250.71264 66.224328 
L 250.80192 66.631761 
L 250.8912 69.699197 
L 250.98048 65.74689 
L 251.15904 66.978191 
L 251.24832 66.650208 
L 251.3376 68.174541 
L 251.42688 73.593238 
L 251.60544 66.029902 
L 251.69472 65.426813 
L 251.784 66.788954 
L 251.87328 65.401664 
L 251.96256 67.550445 
L 252.05184 75.644056 
L 252.2304 65.184233 
L 252.31968 68.248553 
L 252.40896 66.201451 
L 252.49824 66.419982 
L 252.58752 65.171879 
L 252.76608 70.348489 
L 252.85536 65.327569 
L 252.94464 67.127614 
L 253.03392 71.973364 
L 253.21248 65.531472 
L 253.30176 65.797508 
L 253.48032 68.992626 
L 253.65888 64.853743 
L 253.74816 67.394814 
L 253.83744 65.267558 
L 253.92672 68.115392 
L 254.10528 64.777965 
L 254.19456 65.246513 
L 254.37312 72.926077 
L 254.55168 65.624533 
L 254.64096 67.721022 
L 254.81952 66.212509 
L 254.9088 66.399486 
L 254.99808 106.200746 
L 255.08736 64.662893 
L 255.17664 65.355912 
L 255.3552 65.883739 
L 255.44448 68.375661 
L 255.53376 65.557832 
L 255.62304 66.198311 
L 255.71232 66.983597 
L 255.89088 66.245417 
L 255.98016 66.755146 
L 256.06944 65.147163 
L 256.15872 66.878263 
L 256.248 66.646496 
L 256.33728 66.879503 
L 256.42656 66.555577 
L 256.60512 69.185985 
L 256.6944 64.37107 
L 256.78368 68.342607 
L 256.87296 65.166852 
L 256.96224 65.608576 
L 257.05152 67.129203 
L 257.1408 73.864873 
L 257.23008 65.399579 
L 257.31936 70.937618 
L 257.49792 65.299068 
L 257.5872 66.039542 
L 257.67648 65.120795 
L 257.76576 66.177643 
L 257.94432 71.618626 
L 258.0336 69.592689 
L 258.12288 64.820422 
L 258.21216 74.591351 
L 258.39072 65.465065 
L 258.48 65.068243 
L 258.56928 65.800003 
L 258.65856 65.552805 
L 258.74784 66.463054 
L 258.83712 65.218952 
L 258.9264 65.978128 
L 259.01568 65.084041 
L 259.10496 65.701533 
L 259.19424 68.243527 
L 259.28352 65.345588 
L 259.55136 73.228677 
L 259.72992 64.902091 
L 259.8192 68.199809 
L 259.90848 67.703417 
L 259.99776 67.962664 
L 260.17632 65.51262 
L 260.2656 67.809987 
L 260.35488 65.795713 
L 260.44416 76.562725 
L 260.53344 64.871482 
L 260.62272 66.481671 
L 260.712 65.774685 
L 260.80128 66.762795 
L 260.89056 65.152883 
L 260.97984 66.25718 
L 261.06912 65.064884 
L 261.1584 65.479162 
L 261.24768 66.947852 
L 261.33696 66.162946 
L 261.42624 66.277865 
L 261.51552 79.28701 
L 261.69408 64.630984 
L 261.78336 67.155207 
L 261.87264 65.699904 
L 261.96192 67.705378 
L 262.0512 65.548689 
L 262.14048 66.230664 
L 262.22976 66.062167 
L 262.40832 64.353404 
L 262.4976 66.518294 
L 262.58688 65.31845 
L 262.67616 67.416677 
L 262.76544 67.182835 
L 262.85472 64.950242 
L 262.944 71.367221 
L 263.12256 64.330349 
L 263.21184 64.718609 
L 263.30112 65.607261 
L 263.3904 64.990453 
L 263.47968 65.075079 
L 263.56896 65.296561 
L 263.65824 67.492204 
L 263.74752 66.030976 
L 263.92608 67.792301 
L 264.01536 66.223965 
L 264.10464 66.600788 
L 264.19392 66.921458 
L 264.37248 64.35184 
L 264.46176 64.439932 
L 264.55104 76.311637 
L 264.64032 65.336916 
L 264.7296 66.541763 
L 264.81888 68.437682 
L 264.90816 66.053997 
L 264.99744 66.425786 
L 265.08672 65.110748 
L 265.176 65.963983 
L 265.35456 70.421709 
L 265.44384 64.97113 
L 265.53312 67.274819 
L 265.6224 64.224595 
L 265.71168 64.861612 
L 265.89024 66.092566 
L 265.97952 65.180048 
L 266.0688 66.400727 
L 266.15808 64.346071 
L 266.24736 96.749473 
L 266.33664 65.770153 
L 266.42592 67.590791 
L 266.69376 65.649697 
L 266.78304 64.259455 
L 266.87232 67.311636 
L 266.9616 64.894737 
L 267.05088 65.911944 
L 267.22944 65.237217 
L 267.31872 65.832502 
L 267.408 68.973683 
L 267.58656 64.720932 
L 267.76512 67.180929 
L 267.8544 70.401675 
L 267.94368 66.742822 
L 268.03296 68.837683 
L 268.21152 66.154466 
L 268.3008 64.519087 
L 268.47936 69.014104 
L 268.56864 64.782791 
L 268.65792 65.173913 
L 268.7472 65.544921 
L 268.83648 65.274032 
L 268.92576 65.506266 
L 269.01504 65.451035 
L 269.1936 67.408902 
L 269.37216 65.144387 
L 269.46144 65.050639 
L 269.55072 66.005809 
L 269.64 65.273336 
L 269.72928 65.689335 
L 269.81856 75.528742 
L 269.90784 74.016077 
L 270.0864 65.621463 
L 270.17568 65.093343 
L 270.35424 68.513836 
L 270.62208 64.129346 
L 270.71136 65.93801 
L 270.80064 64.674261 
L 270.88992 67.856619 
L 271.06848 64.795084 
L 271.15776 64.979057 
L 271.33632 66.907402 
L 271.51488 67.131755 
L 271.60416 67.299769 
L 271.69344 65.541079 
L 271.78272 69.756698 
L 271.96128 65.011746 
L 272.05056 65.48153 
L 272.13984 67.690856 
L 272.22912 64.540882 
L 272.3184 64.798866 
L 272.40768 68.335623 
L 272.49696 67.876976 
L 272.58624 65.83969 
L 272.67552 66.1599 
L 272.7648 68.923372 
L 272.94336 65.633418 
L 273.03264 64.072925 
L 273.12192 66.160041 
L 273.2112 64.088245 
L 273.30048 66.351975 
L 273.47904 64.621669 
L 273.6576 65.55376 
L 273.74688 65.771733 
L 273.83616 70.139034 
L 273.92544 64.428315 
L 274.01472 65.645926 
L 274.104 64.865151 
L 274.19328 66.157114 
L 274.28256 64.461929 
L 274.37184 65.638823 
L 274.46112 65.510954 
L 274.5504 64.777243 
L 274.63968 64.945997 
L 274.72896 66.310392 
L 274.90752 64.651324 
L 274.9968 65.722381 
L 275.08608 64.582154 
L 275.35392 67.817017 
L 275.53248 64.393486 
L 275.62176 65.276619 
L 275.80032 64.574096 
L 275.8896 66.063267 
L 276.06816 64.68276 
L 276.15744 65.078734 
L 276.24672 64.622088 
L 276.336 67.525552 
L 276.51456 65.399032 
L 276.60384 67.943209 
L 276.7824 65.719997 
L 276.96096 65.771843 
L 277.05024 65.369048 
L 277.13952 67.102126 
L 277.31808 65.414048 
L 277.40736 67.21104 
L 277.6752 64.716871 
L 277.76448 64.567517 
L 277.85376 64.643777 
L 277.94304 65.350178 
L 278.03232 64.302258 
L 278.1216 66.899001 
L 278.21088 65.518509 
L 278.30016 65.873846 
L 278.47872 68.437422 
L 278.568 67.794865 
L 278.65728 66.209876 
L 278.83584 68.503473 
L 278.92512 65.351953 
L 279.0144 65.91692 
L 279.19296 64.913141 
L 279.28224 66.395093 
L 279.37152 65.756876 
L 279.4608 66.933369 
L 279.55008 72.950577 
L 279.72864 63.92515 
L 279.81792 65.781306 
L 279.9072 71.339945 
L 280.08576 65.857299 
L 280.3536 64.160212 
L 280.44288 64.593837 
L 280.62144 67.135651 
L 280.71072 65.718083 
L 280.8 66.810418 
L 280.88928 66.410028 
L 281.06784 64.265955 
L 281.15712 65.020441 
L 281.2464 67.966566 
L 281.33568 64.759401 
L 281.42496 65.073715 
L 281.51424 64.538813 
L 281.78208 65.526708 
L 281.87136 65.437327 
L 281.96064 64.44094 
L 282.04992 65.589647 
L 282.1392 64.46536 
L 282.31776 67.251483 
L 282.49632 65.5064 
L 282.5856 65.455081 
L 282.67488 66.63852 
L 282.76416 66.42971 
L 282.85344 109.245137 
L 283.032 64.813417 
L 283.12128 65.700609 
L 283.38912 65.075002 
L 283.4784 65.699467 
L 283.65696 64.537577 
L 283.83552 64.336217 
L 283.9248 66.92449 
L 284.01408 66.151073 
L 284.10336 67.743974 
L 284.28192 64.588018 
L 284.54976 68.775312 
L 284.63904 64.692601 
L 284.72832 64.861746 
L 284.8176 64.686684 
L 284.90688 65.374485 
L 284.99616 64.466581 
L 285.17472 66.884254 
L 285.35328 64.896052 
L 285.44256 66.331595 
L 285.53184 64.729184 
L 285.62112 64.899378 
L 285.7104 64.776819 
L 285.88896 65.971234 
L 285.97824 64.852467 
L 286.06752 67.792874 
L 286.24608 64.372637 
L 286.42464 64.401464 
L 286.51392 64.4209 
L 286.69248 64.895709 
L 286.87104 66.105681 
L 286.96032 65.32075 
L 287.0496 68.274134 
L 287.13888 65.339247 
L 287.22816 66.145982 
L 287.40672 64.777949 
L 287.496 66.591268 
L 287.58528 64.38981 
L 287.67456 66.378368 
L 287.85312 64.315323 
L 287.9424 64.19726 
L 288.03168 67.117514 
L 288.21024 64.333038 
L 288.29952 64.609482 
L 288.3888 67.034416 
L 288.47808 64.606563 
L 288.56736 65.37915 
L 288.65664 65.257162 
L 288.74592 65.736898 
L 288.8352 64.393553 
L 288.92448 67.144868 
L 289.01376 64.163843 
L 289.10304 66.549793 
L 289.19232 65.201106 
L 289.2816 66.318221 
L 289.37088 65.597536 
L 289.46016 66.499801 
L 289.54944 64.261248 
L 289.63872 65.748053 
L 289.728 65.414118 
L 289.81728 65.324892 
L 289.90656 66.293798 
L 289.99584 69.290323 
L 290.1744 65.80675 
L 290.26368 64.873069 
L 290.35296 65.302363 
L 290.44224 71.574609 
L 290.6208 64.060738 
L 290.71008 64.78599 
L 290.79936 64.267318 
L 290.88864 65.666143 
L 290.97792 64.079985 
L 291.0672 64.950979 
L 291.15648 68.206254 
L 291.24576 64.908423 
L 291.33504 65.029193 
L 291.42432 64.351356 
L 291.5136 64.434952 
L 291.60288 64.583736 
L 291.78144 66.962088 
L 291.87072 65.652191 
L 291.96 67.07765 
L 292.04928 66.990696 
L 292.13856 64.538692 
L 292.22784 66.023861 
L 292.31712 64.359615 
L 292.4064 66.427913 
L 292.49568 65.490942 
L 292.67424 67.361886 
L 292.8528 65.568966 
L 292.94208 67.091375 
L 293.03136 65.12347 
L 293.12064 66.771032 
L 293.20992 64.917418 
L 293.2992 66.568052 
L 293.38848 65.96174 
L 293.47776 69.036403 
L 293.56704 65.390115 
L 293.65632 66.727382 
L 293.83488 66.018154 
L 293.92416 68.476495 
L 294.10272 65.217838 
L 294.192 64.528698 
L 294.28128 64.740434 
L 294.37056 64.060176 
L 294.45984 65.670478 
L 294.54912 64.638265 
L 294.72768 66.835146 
L 294.81696 64.113327 
L 294.90624 66.314098 
L 294.99552 64.814485 
L 295.0848 65.366999 
L 295.17408 64.755663 
L 295.26336 65.606282 
L 295.35264 65.253102 
L 295.5312 67.707929 
L 295.70976 65.114891 
L 295.79904 67.919795 
L 295.88832 65.255092 
L 295.9776 66.917724 
L 296.06688 65.645058 
L 296.15616 65.796245 
L 296.24544 65.882768 
L 296.33472 65.501752 
L 296.424 66.444759 
L 296.51328 66.199003 
L 296.60256 65.326005 
L 296.69184 69.129016 
L 296.78112 68.45886 
L 296.8704 65.016088 
L 296.95968 65.6172 
L 297.04896 67.624803 
L 297.13824 65.450349 
L 297.22752 65.849517 
L 297.3168 64.763821 
L 297.49536 66.814141 
L 297.67392 64.802476 
L 297.7632 64.527685 
L 297.85248 64.82717 
L 297.94176 69.310819 
L 298.03104 64.230124 
L 298.12032 64.56901 
L 298.2096 64.621634 
L 298.29888 65.389886 
L 298.38816 65.23539 
L 298.47744 64.49937 
L 298.56672 65.682497 
L 298.74528 64.351063 
L 299.1024 66.361037 
L 299.28096 64.357863 
L 299.5488 66.121596 
L 299.72736 64.33919 
L 299.81664 64.474287 
L 299.90592 64.599531 
L 300.08448 66.642493 
L 300.17376 65.096059 
L 300.26304 65.625166 
L 300.35232 65.398802 
L 300.4416 66.853775 
L 300.53088 64.780677 
L 300.62016 67.548851 
L 300.79872 64.968795 
L 300.888 64.759014 
L 300.97728 65.132051 
L 301.06656 66.906965 
L 301.15584 65.586771 
L 301.24512 65.692606 
L 301.3344 69.228016 
L 301.51296 65.288663 
L 301.60224 66.484864 
L 301.69152 64.677164 
L 301.7808 64.981933 
L 301.87008 65.367656 
L 301.95936 64.535708 
L 302.04864 69.380781 
L 302.2272 64.469774 
L 302.31648 68.147901 
L 302.58432 64.418022 
L 303.03072 67.589398 
L 303.12 64.976315 
L 303.20928 65.175626 
L 303.29856 68.151063 
L 303.38784 66.448155 
L 303.47712 67.345881 
L 303.5664 65.116703 
L 303.65568 65.755503 
L 303.74496 63.866344 
L 303.83424 65.26996 
L 303.92352 64.568987 
L 304.0128 66.06323 
L 304.10208 64.283517 
L 304.19136 65.328951 
L 304.28064 70.490164 
L 304.4592 64.884514 
L 304.63776 66.684467 
L 304.72704 64.587545 
L 304.81632 65.335142 
L 304.9056 64.483537 
L 304.99488 68.214841 
L 305.08416 66.484743 
L 305.17344 66.993538 
L 305.26272 66.832014 
L 305.44128 64.852112 
L 305.61984 66.427295 
L 305.70912 66.411259 
L 305.7984 65.714789 
L 305.88768 68.63082 
L 306.06624 64.86056 
L 306.15552 66.329468 
L 306.2448 65.202607 
L 306.33408 68.437786 
L 306.51264 66.129391 
L 306.60192 65.868907 
L 306.6912 65.228661 
L 306.78048 69.461884 
L 306.86976 64.559431 
L 306.95904 64.803786 
L 307.04832 65.97811 
L 307.1376 64.731654 
L 307.22688 65.496226 
L 307.31616 64.630789 
L 307.49472 66.503808 
L 307.76256 64.841788 
L 307.85184 65.410111 
L 308.0304 64.642436 
L 308.11968 65.731553 
L 308.20896 64.320239 
L 308.29824 66.439189 
L 308.56608 64.75542 
L 308.65536 66.469437 
L 308.74464 63.961329 
L 308.83392 65.076389 
L 308.9232 64.844556 
L 309.01248 65.762145 
L 309.10176 64.512009 
L 309.19104 64.956562 
L 309.28032 64.302682 
L 309.54816 65.416301 
L 309.63744 67.194884 
L 309.72672 66.408635 
L 309.816 70.392573 
L 310.08384 64.531572 
L 310.2624 66.396878 
L 310.35168 68.546773 
L 310.53024 65.385962 
L 310.61952 67.13043 
L 310.79808 64.629842 
L 310.88736 64.615726 
L 310.97664 68.083281 
L 311.06592 64.564087 
L 311.1552 69.751535 
L 311.24448 65.181007 
L 311.33376 68.064927 
L 311.42304 64.660166 
L 311.51232 65.112407 
L 311.6016 66.344014 
L 311.69088 65.755045 
L 311.78016 66.089981 
L 311.86944 68.303822 
L 311.95872 64.594421 
L 312.048 65.938379 
L 312.13728 64.916099 
L 312.22656 66.677026 
L 312.31584 65.235472 
L 312.40512 66.034056 
L 312.58368 64.440038 
L 312.67296 65.182508 
L 312.76224 64.274785 
L 313.11936 66.624177 
L 313.29792 65.734344 
L 313.3872 66.391515 
L 313.47648 65.168452 
L 313.56576 67.16653 
L 313.74432 65.425715 
L 313.8336 69.275181 
L 313.92288 64.687912 
L 314.01216 65.489629 
L 314.10144 65.101148 
L 314.19072 68.837392 
L 314.28 64.676878 
L 314.36928 65.126061 
L 314.45856 68.033322 
L 314.54784 64.31294 
L 314.63712 64.622486 
L 314.7264 65.379765 
L 314.81568 64.623037 
L 314.99424 65.217208 
L 315.08352 71.033283 
L 315.26208 64.775503 
L 315.35136 66.210762 
L 315.44064 64.199977 
L 315.52992 69.528131 
L 315.6192 65.16256 
L 315.70848 65.613611 
L 315.88704 64.354049 
L 315.97632 66.05108 
L 316.33344 64.334642 
L 316.42272 66.629798 
L 316.512 64.807288 
L 316.60128 66.129528 
L 316.69056 65.379725 
L 316.86912 65.730237 
L 316.9584 64.558916 
L 317.04768 65.151996 
L 317.13696 64.736969 
L 317.22624 66.972361 
L 317.31552 65.417977 
L 317.4048 65.785462 
L 317.49408 64.902843 
L 317.67264 69.533332 
L 317.8512 65.006863 
L 318.02976 65.114803 
L 318.11904 64.441289 
L 318.2976 65.033703 
L 318.38688 65.716688 
L 318.47616 64.88509 
L 318.56544 65.841514 
L 318.65472 65.761412 
L 318.744 66.375973 
L 319.01184 64.588637 
L 319.10112 65.719202 
L 319.1904 65.139849 
L 319.27968 124.213039 
L 319.36896 64.570674 
L 319.45824 64.991241 
L 319.54752 67.933447 
L 319.6368 65.028662 
L 319.72608 65.148252 
L 319.81536 66.162275 
L 319.99392 65.562735 
L 320.0832 64.797815 
L 320.17248 64.92842 
L 320.35104 67.367517 
L 320.44032 70.330293 
L 320.5296 65.917998 
L 320.61888 75.488317 
L 320.79744 64.721279 
L 320.88672 66.255367 
L 320.976 64.74607 
L 321.06528 66.381732 
L 321.24384 65.17679 
L 321.33312 68.141136 
L 321.51168 65.139632 
L 321.60096 65.789551 
L 321.69024 65.119828 
L 321.77952 67.735856 
L 321.95808 65.483118 
L 322.04736 64.469933 
L 322.13664 64.739818 
L 322.3152 66.335226 
L 322.49376 65.141148 
L 322.58304 65.543311 
L 322.67232 67.80749 
L 322.85088 64.554213 
L 322.94016 64.618258 
L 323.02944 67.817516 
L 323.208 64.891103 
L 323.29728 66.276928 
L 323.47584 65.21028 
L 323.56512 65.21243 
L 323.6544 64.787601 
L 323.74368 65.794022 
L 323.83296 65.013954 
L 323.92224 66.958202 
L 324.01152 66.154444 
L 324.1008 66.454758 
L 324.19008 65.005516 
L 324.27936 67.972434 
L 324.5472 64.81749 
L 324.63648 66.291947 
L 324.72576 65.151899 
L 324.81504 65.161355 
L 325.08288 67.108078 
L 325.17216 64.40978 
L 325.35072 67.891558 
L 325.44 65.018713 
L 325.52928 65.307092 
L 325.61856 65.585852 
L 325.70784 65.375854 
L 325.79712 73.569747 
L 325.97568 65.013722 
L 326.24352 67.805107 
L 326.3328 64.788558 
L 326.42208 66.330697 
L 326.51136 64.751164 
L 326.60064 66.621591 
L 326.68992 64.407323 
L 326.7792 65.356219 
L 326.86848 69.35347 
L 326.95776 64.493116 
L 327.04704 66.619069 
L 327.2256 65.104964 
L 327.31488 65.493833 
L 327.40416 65.22615 
L 327.49344 67.401881 
L 327.672 65.136493 
L 327.76128 68.151663 
L 327.85056 64.693579 
L 327.93984 65.951539 
L 328.1184 64.404037 
L 328.20768 64.22232 
L 328.29696 65.305654 
L 328.38624 64.431197 
L 328.65408 66.333797 
L 328.92192 64.205417 
L 329.0112 67.911327 
L 329.18976 65.32834 
L 329.27904 66.32845 
L 329.36832 64.150451 
L 329.4576 66.949576 
L 329.63616 65.486578 
L 329.72544 65.452136 
L 329.81472 64.420557 
L 329.904 64.644285 
L 329.99328 69.486294 
L 330.17184 64.673125 
L 330.26112 65.104989 
L 330.3504 64.14265 
L 330.43968 110.8347 
L 330.52896 66.903477 
L 330.61824 69.240463 
L 330.70752 65.303465 
L 330.7968 66.92372 
L 331.06464 64.762533 
L 331.2432 65.681124 
L 331.33248 67.993233 
L 331.51104 65.27438 
L 331.60032 75.639727 
L 331.77888 65.743535 
L 331.86816 64.637647 
L 331.95744 64.817982 
L 332.04672 66.314054 
L 332.136 65.698132 
L 332.31456 71.008449 
L 332.40384 64.832973 
L 332.49312 65.545933 
L 332.5824 67.023111 
L 332.67168 64.878044 
L 332.76096 67.359902 
L 332.85024 65.535847 
L 332.93952 70.483184 
L 333.0288 64.537449 
L 333.11808 66.807222 
L 333.20736 65.104764 
L 333.38592 67.158064 
L 333.4752 66.47908 
L 333.65376 64.593598 
L 333.83232 67.198017 
L 333.9216 64.525966 
L 334.01088 66.740421 
L 334.10016 65.196149 
L 334.18944 65.319798 
L 334.368 64.477769 
L 334.45728 66.729594 
L 334.54656 64.617173 
L 334.63584 66.480031 
L 334.72512 65.388694 
L 334.90368 68.824817 
L 335.08224 65.32748 
L 335.17152 71.942814 
L 335.2608 64.512096 
L 335.35008 65.147982 
L 335.52864 67.645061 
L 335.61792 64.639291 
L 335.7072 65.741618 
L 335.97504 64.325976 
L 336.06432 75.199878 
L 336.1536 64.313444 
L 336.33216 68.985984 
L 336.51072 65.280223 
L 336.6 67.080331 
L 336.68928 64.515397 
L 336.86784 67.019622 
L 336.95712 65.485193 
L 337.0464 73.0466 
L 337.13568 65.167768 
L 337.22496 68.817566 
L 337.31424 67.307448 
L 337.40352 70.832096 
L 337.4928 64.399034 
L 337.58208 64.861842 
L 337.76064 66.728154 
L 337.84992 64.109548 
L 337.9392 65.284624 
L 338.11776 64.023351 
L 338.29632 66.632902 
L 338.3856 64.945678 
L 338.47488 65.044853 
L 338.56416 65.418448 
L 338.65344 64.853154 
L 338.74272 67.563169 
L 338.92128 64.974459 
L 339.09984 67.048585 
L 339.2784 64.357462 
L 339.36768 64.899248 
L 339.45696 69.51437 
L 339.7248 65.233274 
L 339.81408 65.497381 
L 339.90336 68.161468 
L 339.99264 64.703651 
L 340.08192 65.535169 
L 340.1712 66.596155 
L 340.26048 64.316745 
L 340.43904 66.662419 
L 340.52832 73.458442 
L 340.70688 64.799121 
L 340.79616 66.08704 
L 340.88544 74.896437 
L 341.064 65.229184 
L 341.15328 70.063438 
L 341.33184 64.706824 
L 341.42112 68.937971 
L 341.5104 64.247178 
L 341.59968 64.691341 
L 341.68896 66.996624 
L 341.77824 64.619126 
L 341.86752 68.533318 
L 342.04608 64.992127 
L 342.13536 64.348242 
L 342.22464 64.558884 
L 342.31392 67.091728 
L 342.4032 64.008528 
L 342.49248 69.779046 
L 342.67104 63.907476 
L 342.8496 67.560799 
L 343.11744 65.467366 
L 343.20672 74.627198 
L 343.296 65.969865 
L 343.38528 66.976039 
L 343.47456 69.0281 
L 343.65312 64.846709 
L 343.83168 64.216795 
L 343.92096 65.371545 
L 344.09952 64.566926 
L 344.1888 66.200424 
L 344.36736 64.339134 
L 344.45664 65.551978 
L 344.54592 64.378221 
L 344.6352 70.492251 
L 344.72448 67.367485 
L 344.81376 68.993227 
L 344.90304 64.384143 
L 344.99232 65.201379 
L 345.0816 64.872221 
L 345.43872 66.140929 
L 345.61728 64.559303 
L 345.88512 65.51117 
L 345.9744 69.113961 
L 346.06368 64.629725 
L 346.15296 66.94683 
L 346.24224 65.225423 
L 346.33152 71.293781 
L 346.51008 64.714696 
L 346.59936 63.954454 
L 346.68864 65.992494 
L 346.77792 63.89034 
L 346.8672 65.341568 
L 346.95648 64.542919 
L 347.04576 66.469068 
L 347.13504 64.955553 
L 347.22432 65.066629 
L 347.40288 65.144206 
L 347.49216 65.668671 
L 347.58144 65.63748 
L 347.67072 64.232698 
L 347.84928 65.548727 
L 347.93856 65.228063 
L 348.02784 68.370959 
L 348.11712 67.848911 
L 348.29568 65.590484 
L 348.38496 66.1417 
L 348.47424 65.065651 
L 348.56352 66.130135 
L 348.6528 63.648 
L 348.74208 65.498466 
L 348.83136 65.267143 
L 349.00992 64.414175 
L 349.0992 64.624883 
L 349.18848 66.365223 
L 349.45632 64.281346 
L 349.5456 66.121959 
L 349.63488 64.726962 
L 349.72416 68.896526 
L 349.90272 64.509307 
L 349.992 66.576986 
L 350.08128 65.564258 
L 350.17056 65.64056 
L 350.25984 65.471492 
L 350.34912 64.908835 
L 350.52768 65.374021 
L 350.61696 64.236145 
L 350.70624 65.220148 
L 350.8848 70.14466 
L 350.97408 64.588144 
L 351.06336 65.749758 
L 351.15264 65.626706 
L 351.24192 64.684011 
L 351.3312 66.54298 
L 351.42048 64.33655 
L 351.59904 66.916489 
L 351.68832 65.222663 
L 351.7776 66.465158 
L 351.95616 64.253641 
L 352.04544 66.572518 
L 352.13472 66.562903 
L 352.224 64.809711 
L 352.31328 64.908551 
L 352.40256 68.864958 
L 352.49184 65.213069 
L 352.58112 71.083577 
L 352.75968 64.932777 
L 352.84896 64.462465 
L 353.1168 65.941555 
L 353.20608 64.283486 
L 353.29536 64.502096 
L 353.38464 66.469138 
L 353.47392 64.114484 
L 353.5632 66.768682 
L 353.74176 64.686583 
L 353.83104 65.805097 
L 354.0096 64.799365 
L 354.09888 64.921434 
L 354.18816 66.682562 
L 354.27744 65.253583 
L 354.456 68.103593 
L 354.63456 64.460928 
L 354.72384 68.223647 
L 354.81312 64.847784 
L 354.9024 67.706946 
L 354.99168 64.826426 
L 355.08096 67.069157 
L 355.17024 66.116804 
L 355.25952 66.92443 
L 355.3488 66.239154 
L 355.43808 64.610601 
L 355.52736 64.740135 
L 355.61664 69.068233 
L 355.7952 64.235421 
L 355.88448 65.202921 
L 355.97376 64.127869 
L 356.15232 66.382817 
L 356.33088 64.569409 
L 356.42016 66.252598 
L 356.50944 64.292014 
L 356.59872 67.010008 
L 356.688 66.622692 
L 356.77728 66.739421 
L 356.95584 65.095029 
L 357.04512 66.45804 
L 357.22368 65.615507 
L 357.31296 64.742123 
L 357.40224 65.479252 
L 357.49152 71.478075 
L 357.5808 64.995774 
L 357.67008 65.342207 
L 357.84864 66.705762 
L 357.93792 65.545243 
L 358.0272 65.563651 
L 358.11648 66.582588 
L 358.29504 64.206209 
L 358.38432 67.732232 
L 358.4736 67.079577 
L 358.65216 65.618438 
L 358.74144 66.937919 
L 358.83072 64.270094 
L 358.92 64.337583 
L 359.00928 64.826362 
L 359.27712 70.847643 
L 359.3664 64.811549 
L 359.45568 66.272747 
L 359.63424 64.241307 
L 359.72352 66.220285 
L 359.8128 66.05962 
L 359.90208 64.841142 
L 359.99136 64.911822 
L 360.08064 64.982019 
L 360.16992 66.114364 
L 360.2592 65.591634 
L 360.34848 75.768629 
L 360.43776 64.396787 
L 360.52704 66.728999 
L 360.61632 64.854893 
L 360.79488 69.605444 
L 360.88416 65.158825 
L 360.97344 66.589632 
L 361.06272 65.855579 
L 361.152 64.092729 
L 361.41984 65.665434 
L 361.50912 65.256272 
L 361.5984 65.327436 
L 361.68768 65.87273 
L 361.86624 64.966316 
L 361.95552 74.349881 
L 362.13408 66.330325 
L 362.22336 68.609101 
L 362.4912 64.445807 
L 362.66976 67.278 
L 362.75904 66.065084 
L 362.84832 66.406364 
L 362.9376 65.349944 
L 363.02688 65.414579 
L 363.20544 66.561554 
L 363.29472 65.504189 
L 363.384 66.980344 
L 363.47328 66.071372 
L 363.56256 67.701511 
L 363.65184 64.064147 
L 363.74112 64.408201 
L 363.8304 66.282041 
L 363.91968 71.334898 
L 364.00896 65.616813 
L 364.09824 65.804492 
L 364.18752 65.391469 
L 364.2768 65.710026 
L 364.36608 66.992299 
L 364.54464 64.378202 
L 364.63392 67.710895 
L 364.81248 64.803936 
L 364.90176 63.965609 
L 365.25888 66.133475 
L 365.34816 64.83781 
L 365.43744 66.362176 
L 365.70528 64.134651 
L 365.79456 67.230377 
L 365.97312 64.067086 
L 366.0624 65.383881 
L 366.15168 64.201202 
L 366.41952 66.679146 
L 366.68736 64.603309 
L 366.86592 64.809671 
L 366.9552 64.728619 
L 367.04448 68.237677 
L 367.22304 64.02541 
L 367.31232 66.163905 
L 367.4016 65.789886 
L 367.49088 65.512481 
L 367.58016 64.656342 
L 367.66944 65.112789 
L 367.75872 65.07741 
L 367.848 66.918659 
L 367.93728 64.300731 
L 368.02656 66.010207 
L 368.11584 65.57502 
L 368.20512 65.599094 
L 368.2944 65.800439 
L 368.38368 67.327939 
L 368.47296 66.959644 
L 368.65152 64.582179 
L 368.7408 65.059323 
L 368.83008 64.77183 
L 368.91936 66.358219 
L 369.00864 64.665591 
L 369.09792 65.382182 
L 369.1872 64.672064 
L 369.27648 65.33236 
L 369.36576 64.251883 
L 369.54432 67.114255 
L 369.6336 64.724109 
L 369.72288 65.032587 
L 369.81216 66.10708 
L 369.90144 65.871884 
L 369.99072 65.838949 
L 370.08 64.032358 
L 370.16928 64.487835 
L 370.25856 64.26931 
L 370.34784 64.659495 
L 370.43712 65.996375 
L 370.70496 64.67867 
L 370.79424 66.033567 
L 370.88352 65.591601 
L 370.9728 66.784519 
L 371.06208 64.038535 
L 371.15136 64.268425 
L 371.32992 65.21736 
L 371.4192 64.718213 
L 371.50848 66.170774 
L 371.59776 71.683843 
L 371.8656 64.328421 
L 371.95488 65.346094 
L 372.13344 65.024824 
L 372.22272 67.598795 
L 372.40128 64.08482 
L 372.49056 64.899189 
L 372.57984 68.275509 
L 372.66912 67.796394 
L 372.7584 68.719881 
L 372.84768 64.332508 
L 372.93696 67.377741 
L 373.11552 64.726355 
L 373.2048 69.54914 
L 373.38336 66.462607 
L 373.47264 64.228729 
L 373.56192 65.566808 
L 373.74048 64.124822 
L 373.82976 66.231018 
L 373.91904 64.385568 
L 374.00832 65.010024 
L 374.0976 64.560939 
L 374.36544 65.853861 
L 374.45472 65.298459 
L 374.544 65.448994 
L 374.63328 70.013761 
L 374.72256 64.666856 
L 374.81184 65.389339 
L 374.90112 65.461569 
L 374.9904 65.265737 
L 375.07968 70.827076 
L 375.25824 64.434661 
L 375.4368 66.616579 
L 375.61536 63.979067 
L 375.70464 66.143018 
L 375.79392 65.743849 
L 375.8832 66.251301 
L 375.97248 67.530184 
L 376.15104 64.584366 
L 376.24032 71.618731 
L 376.3296 64.858116 
L 376.41888 66.542812 
L 376.50816 65.341238 
L 376.68672 65.956494 
L 376.86528 65.580132 
L 377.04384 65.90795 
L 377.13312 64.398338 
L 377.2224 66.073116 
L 377.31168 65.440258 
L 377.40096 65.585796 
L 377.49024 65.117575 
L 377.57952 67.393277 
L 377.6688 66.824507 
L 377.75808 65.266261 
L 377.84736 65.813306 
L 378.1152 64.692946 
L 378.20448 65.946549 
L 378.29376 69.426196 
L 378.38304 65.747722 
L 378.47232 66.342942 
L 378.5616 64.551401 
L 378.65088 68.037556 
L 378.74016 64.945591 
L 378.82944 65.987802 
L 378.91872 65.339399 
L 379.09728 66.264126 
L 379.18656 63.985453 
L 379.4544 69.043099 
L 379.54368 67.805483 
L 379.63296 64.641603 
L 379.72224 72.73251 
L 379.81152 64.959864 
L 379.9008 65.877667 
L 379.99008 64.607287 
L 380.07936 65.835292 
L 380.16864 64.688589 
L 380.25792 64.971054 
L 380.3472 64.99393 
L 380.52576 65.459082 
L 380.61504 64.896039 
L 380.70432 134.29322 
L 380.7936 65.31474 
L 380.88288 66.933776 
L 380.97216 65.687545 
L 381.06144 65.851353 
L 381.24 66.613393 
L 381.41856 65.159163 
L 381.50784 65.743786 
L 381.77568 64.856076 
L 381.86496 65.606511 
L 382.1328 64.531117 
L 382.31136 66.107647 
L 382.40064 64.722954 
L 382.75776 67.184939 
L 382.84704 68.817694 
L 382.93632 66.803196 
L 383.0256 68.173347 
L 383.20416 65.827939 
L 383.38272 67.664324 
L 383.56128 65.10342 
L 383.65056 70.979443 
L 383.73984 65.288178 
L 383.82912 66.005736 
L 384.00768 64.24813 
L 384.09696 67.419951 
L 384.18624 66.149542 
L 384.27552 68.966884 
L 384.3648 64.489086 
L 384.54336 68.714419 
L 384.72192 64.880964 
L 384.90048 64.265355 
L 384.98976 64.521258 
L 385.16832 65.924033 
L 385.34688 64.543309 
L 385.43616 64.496696 
L 385.52544 63.850308 
L 385.61472 67.631027 
L 385.79328 64.855429 
L 385.88256 64.811049 
L 385.97184 64.629353 
L 386.06112 65.015339 
L 386.1504 65.970176 
L 386.32896 64.540072 
L 386.41824 69.363727 
L 386.50752 65.097564 
L 386.5968 65.153257 
L 386.68608 64.367519 
L 386.77536 64.459591 
L 386.86464 64.87115 
L 386.95392 70.037708 
L 387.13248 64.685393 
L 387.40032 65.499788 
L 387.4896 64.334076 
L 387.57888 69.123876 
L 387.66816 64.979169 
L 387.75744 65.478859 
L 387.84672 65.110234 
L 387.936 69.366172 
L 388.02528 64.497535 
L 388.11456 64.985834 
L 388.20384 65.467719 
L 388.29312 65.328466 
L 388.3824 66.138213 
L 388.47168 65.950564 
L 388.56096 64.670832 
L 388.65024 64.955309 
L 388.73952 64.803871 
L 388.91808 67.503448 
L 389.09664 64.459615 
L 389.18592 65.205553 
L 389.2752 64.903941 
L 389.36448 65.897836 
L 389.45376 64.17337 
L 389.54304 65.356369 
L 389.63232 64.654844 
L 389.7216 64.988189 
L 389.81088 66.192323 
L 389.90016 69.30162 
L 389.98944 64.86338 
L 390.07872 65.014404 
L 390.168 64.882844 
L 390.25728 66.138531 
L 390.34656 65.556301 
L 390.43584 68.02521 
L 390.6144 64.682163 
L 390.70368 64.814564 
L 390.79296 65.238438 
L 390.88224 66.352021 
L 390.97152 83.442666 
L 391.0608 64.386653 
L 391.15008 64.782776 
L 391.23936 65.618191 
L 391.32864 69.337547 
L 391.41792 110.304949 
L 391.5072 65.672594 
L 391.59648 66.436754 
L 391.68576 65.40448 
L 391.77504 69.479043 
L 391.9536 64.207894 
L 392.04288 64.909749 
L 392.13216 67.551025 
L 392.22144 65.185018 
L 392.31072 65.859264 
L 392.4 65.327555 
L 392.48928 65.757124 
L 392.57856 64.269135 
L 392.66784 65.418555 
L 392.75712 65.372865 
L 392.8464 65.146361 
L 392.93568 66.518944 
L 393.02496 64.672455 
L 393.11424 64.706856 
L 393.20352 65.410261 
L 393.38208 64.22839 
L 393.47136 68.940286 
L 393.56064 64.490826 
L 393.64992 67.402935 
L 393.82848 64.820571 
L 393.91776 66.264407 
L 394.00704 65.178927 
L 394.09632 65.731889 
L 394.1856 65.396508 
L 394.27488 64.369193 
L 394.36416 64.453218 
L 394.45344 64.814316 
L 394.54272 64.160557 
L 394.632 64.369111 
L 394.72128 66.023052 
L 394.81056 64.428335 
L 394.89984 65.181107 
L 394.98912 67.254051 
L 395.16768 64.485427 
L 395.34624 70.178205 
L 395.43552 64.634988 
L 395.5248 65.045438 
L 395.61408 69.739473 
L 395.79264 65.321899 
L 395.88192 64.269397 
L 395.9712 64.403686 
L 396.14976 66.353641 
L 396.23904 64.608506 
L 396.4176 65.982709 
L 396.59616 64.692066 
L 396.68544 64.718699 
L 396.864 67.151484 
L 396.95328 64.83694 
L 397.04256 65.216778 
L 397.3104 67.18336 
L 397.48896 64.329641 
L 397.57824 65.449138 
L 397.7568 64.530281 
L 397.84608 66.673043 
L 397.93536 65.903232 
L 398.02464 69.749114 
L 398.11392 65.079708 
L 398.2032 66.723643 
L 398.29248 64.294007 
L 398.38176 66.169231 
L 398.47104 64.8189 
L 398.56032 69.506622 
L 398.73888 64.533853 
L 399.00672 65.683114 
L 399.18528 65.203815 
L 399.27456 65.0149 
L 399.36384 65.863961 
L 399.45312 67.98314 
L 399.63168 63.870838 
L 399.72096 65.522524 
L 399.89952 64.658345 
L 399.9888 67.784659 
L 400.07808 64.300247 
L 400.16736 65.781091 
L 400.34592 65.013859 
L 400.52448 67.53676 
L 400.70304 64.898127 
L 400.8816 65.872113 
L 400.97088 65.767252 
L 401.06016 65.410344 
L 401.14944 65.721855 
L 401.23872 64.306142 
L 401.328 67.416075 
L 401.41728 64.359124 
L 401.59584 65.501024 
L 401.68512 65.509641 
L 401.7744 65.121653 
L 401.86368 65.234214 
L 401.95296 66.488184 
L 402.04224 65.957812 
L 402.13152 64.588856 
L 402.2208 65.062031 
L 402.31008 64.455753 
L 402.39936 64.604226 
L 402.48864 66.247261 
L 402.57792 64.467499 
L 402.75648 68.644058 
L 402.84576 64.698308 
L 402.93504 65.152546 
L 403.02432 64.955281 
L 403.20288 66.672087 
L 403.29216 65.995158 
L 403.38144 64.030258 
L 403.47072 65.573675 
L 403.56 64.231874 
L 403.64928 66.842297 
L 403.82784 64.547176 
L 403.91712 65.966529 
L 404.0064 65.041043 
L 404.09568 65.25645 
L 404.18496 65.243814 
L 404.27424 66.740185 
L 404.36352 64.769763 
L 404.4528 65.519526 
L 404.63136 64.585138 
L 404.80992 65.311768 
L 404.8992 64.4702 
L 405.07776 64.94695 
L 405.16704 64.38593 
L 405.25632 65.787143 
L 405.43488 63.955887 
L 405.61344 67.933487 
L 405.70272 67.181249 
L 405.792 65.298857 
L 405.88128 67.846923 
L 406.05984 64.600732 
L 406.2384 65.845602 
L 406.32768 65.171564 
L 406.41696 65.333221 
L 406.50624 67.677188 
L 406.6848 64.36361 
L 406.77408 64.870436 
L 406.86336 64.714289 
L 406.95264 64.854773 
L 407.1312 65.426127 
L 407.22048 64.502082 
L 407.30976 65.11783 
L 407.39904 63.94706 
L 407.48832 66.344068 
L 407.5776 64.968519 
L 407.66688 66.48658 
L 407.75616 64.300152 
L 407.84544 65.956008 
L 407.93472 64.264528 
L 408.024 64.402316 
L 408.29184 67.335547 
L 408.4704 69.774384 
L 408.55968 65.071252 
L 408.64896 66.087962 
L 408.73824 64.517059 
L 408.82752 65.905783 
L 408.9168 64.481383 
L 409.00608 65.482086 
L 409.09536 64.927831 
L 409.18464 66.440366 
L 409.3632 64.078477 
L 409.45248 64.889827 
L 409.54176 64.5 
L 409.8096 65.489155 
L 409.89888 64.921315 
L 410.07744 65.066744 
L 410.16672 64.847868 
L 410.256 65.528719 
L 410.34528 64.891035 
L 410.43456 67.65508 
L 410.79168 64.574609 
L 410.88096 66.971397 
L 410.97024 65.717214 
L 411.05952 65.961463 
L 411.1488 66.447776 
L 411.23808 64.832008 
L 411.32736 67.457159 
L 411.50592 65.468394 
L 411.5952 65.718772 
L 411.77376 64.510793 
L 411.86304 65.892378 
L 411.95232 65.695003 
L 412.0416 66.325955 
L 412.13088 65.138652 
L 412.22016 70.45621 
L 412.30944 64.844187 
L 412.39872 65.029621 
L 412.488 67.301417 
L 412.66656 65.650433 
L 412.75584 74.418528 
L 412.9344 64.32746 
L 413.20224 65.990106 
L 413.29152 64.102699 
L 413.3808 66.669815 
L 413.47008 64.806218 
L 413.55936 68.841111 
L 413.64864 64.282677 
L 413.73792 66.456163 
L 413.8272 64.776716 
L 413.91648 66.368344 
L 414.00576 119.531322 
L 414.09504 64.166701 
L 414.18432 65.171893 
L 414.2736 64.989735 
L 414.36288 64.341552 
L 414.45216 64.899923 
L 414.54144 64.637506 
L 414.63072 65.312154 
L 414.63072 65.312154 
" style="fill:none;stroke:#0000ff;stroke-linecap:square;stroke-width:1.5;"/>
   </g>
   <g id="patch_3">
    <path d="M 57.6 307.584 
L 57.6 41.472 
" style="fill:none;stroke:#000000;stroke-linecap:square;stroke-linejoin:miter;stroke-width:0.8;"/>
   </g>
   <g id="patch_4">
    <path d="M 414.72 307.584 
L 414.72 41.472 
" style="fill:none;stroke:#000000;stroke-linecap:square;stroke-linejoin:miter;stroke-width:0.8;"/>
   </g>
   <g id="patch_5">
    <path d="M 57.6 307.584 
L 414.72 307.584 
" style="fill:none;stroke:#000000;stroke-linecap:square;stroke-linejoin:miter;stroke-width:0.8;"/>
   </g>
   <g id="patch_6">
    <path d="M 57.6 41.472 
L 414.72 41.472 
" style="fill:none;stroke:#000000;stroke-linecap:square;stroke-linejoin:miter;stroke-width:0.8;"/>
   </g>
   <g id="legend_1">
    <g id="patch_7">
     <path d="M 202.8825 299.584 
L 403.52 299.584 
Q 406.72 299.584 406.72 296.384 
L 406.72 274.499 
Q 406.72 271.299 403.52 271.299 
L 202.8825 271.299 
Q 199.6825 271.299 199.6825 274.499 
L 199.6825 296.384 
Q 199.6825 299.584 202.8825 299.584 
z
" style="fill:#ffffff;opacity:0.8;stroke:#cccccc;stroke-linejoin:miter;"/>
    </g>
    <g id="line2d_22">
     <path d="M 206.0825 284.2565 
L 238.0825 284.2565 
" style="fill:none;stroke:#0000ff;stroke-linecap:square;stroke-width:1.5;"/>
    </g>
    <g id="line2d_23"/>
    <g id="text_13">
     <!-- cumulative reward -->
     <g transform="translate(250.8825 289.8565)scale(0.16 -0.16)">
      <defs>
       <path d="M 3122 3366 
L 3122 2828 
Q 2878 2963 2633 3030 
Q 2388 3097 2138 3097 
Q 1578 3097 1268 2742 
Q 959 2388 959 1747 
Q 959 1106 1268 751 
Q 1578 397 2138 397 
Q 2388 397 2633 464 
Q 2878 531 3122 666 
L 3122 134 
Q 2881 22 2623 -34 
Q 2366 -91 2075 -91 
Q 1284 -91 818 406 
Q 353 903 353 1747 
Q 353 2603 823 3093 
Q 1294 3584 2113 3584 
Q 2378 3584 2631 3529 
Q 2884 3475 3122 3366 
z
" id="DejaVuSans-63" transform="scale(0.015625)"/>
      </defs>
      <use xlink:href="#DejaVuSans-63"/>
      <use x="54.980469" xlink:href="#DejaVuSans-75"/>
      <use x="118.359375" xlink:href="#DejaVuSans-6d"/>
      <use x="215.771484" xlink:href="#DejaVuSans-75"/>
      <use x="279.150391" xlink:href="#DejaVuSans-6c"/>
      <use x="306.933594" xlink:href="#DejaVuSans-61"/>
      <use x="368.212891" xlink:href="#DejaVuSans-74"/>
      <use x="407.421875" xlink:href="#DejaVuSans-69"/>
      <use x="435.205078" xlink:href="#DejaVuSans-76"/>
      <use x="494.384766" xlink:href="#DejaVuSans-65"/>
      <use x="555.908203" xlink:href="#DejaVuSans-20"/>
      <use x="587.695312" xlink:href="#DejaVuSans-72"/>
      <use x="626.558594" xlink:href="#DejaVuSans-65"/>
      <use x="688.082031" xlink:href="#DejaVuSans-77"/>
      <use x="769.869141" xlink:href="#DejaVuSans-61"/>
      <use x="831.148438" xlink:href="#DejaVuSans-72"/>
      <use x="870.511719" xlink:href="#DejaVuSans-64"/>
     </g>
    </g>
   </g>
  </g>
 </g>
 <defs>
  <clipPath id="p3ddd64886c">
   <rect height="266.112" width="357.12" x="57.6" y="41.472"/>
  </clipPath>
 </defs>
</svg>
