<?xml version="1.0" encoding="utf-8" standalone="no"?>
<!DOCTYPE svg PUBLIC "-//W3C//DTD SVG 1.1//EN"
  "http://www.w3.org/Graphics/SVG/1.1/DTD/svg11.dtd">
<svg height="345.6pt" version="1.1" viewBox="0 0 460.8 345.6" width="460.8pt" xmlns="http://www.w3.org/2000/svg" xmlns:xlink="http://www.w3.org/1999/xlink">
 <metadata>
  <rdf:RDF xmlns:cc="http://creativecommons.org/ns#" xmlns:dc="http://purl.org/dc/elements/1.1/" xmlns:rdf="http://www.w3.org/1999/02/22-rdf-syntax-ns#">
   <cc:Work>
    <dc:type rdf:resource="http://purl.org/dc/dcmitype/StillImage"/>
    <dc:date>2021-11-03T17:01:32.294026</dc:date>
    <dc:description>{"agent.algorithm": "RayProximalPolicyOptimization", "agent.algorithm.render_env": false, "agent.algorithm.num_workers": 0, "agent.algorithm.batch_mode": "complete_episodes", "agent.algorithm.lr": 1e-05, "agent.algorithm.train_batch_size": 200, "agent.algorithm.optimizer": "Adam", "agent.algorithm.vf_clip_param": 1000.0, "agent.algorithm.model": {"fcnet_activation": "tanh", "fcnet_hiddens": [30, 30]}, "env.env_class": "SchedulerPolicyRayEnvironment", "env.env_config": {"solver_driver": "CMAdriver", "solver_driver_args": [5, 10, 6, 0.5], "maximize": false, "steps": 50, "state_metrics_names": ["DifferenceOfBest", "SolverStateHistory"], "state_metrics_config": [[40, false, 1, true, false], [{"step_size": {"max": 3, "min": 0}}, 40]], "reward_metric": "Best", "reward_metric_config": [false, false], "memes_no": 1, "action_space_config": {"step_size": {"max": 3, "min": 1e-10}}}}</dc:description>
    <dc:format>image/svg+xml</dc:format>
    <dc:creator>
     <cc:Agent>
      <dc:title>Matplotlib v3.4.2, https://matplotlib.org/</dc:title>
     </cc:Agent>
    </dc:creator>
   </cc:Work>
  </rdf:RDF>
 </metadata>
 <defs>
  <style type="text/css">*{stroke-linecap:butt;stroke-linejoin:round;}</style>
 </defs>
 <g id="figure_1">
  <g id="patch_1">
   <path d="M 0 345.6 
L 460.8 345.6 
L 460.8 0 
L 0 0 
z
" style="fill:#ffffff;"/>
  </g>
  <g id="axes_1">
   <g id="patch_2">
    <path d="M 57.6 307.584 
L 414.72 307.584 
L 414.72 41.472 
L 57.6 41.472 
z
" style="fill:#ffffff;"/>
   </g>
   <g id="matplotlib.axis_1">
    <g id="xtick_1">
     <g id="line2d_1">
      <path clip-path="url(#p892ffda4d6)" d="M 57.6 307.584 
L 57.6 41.472 
" style="fill:none;stroke:#b0b0b0;stroke-linecap:square;stroke-width:0.8;"/>
     </g>
     <g id="line2d_2">
      <defs>
       <path d="M 0 0 
L 0 3.5 
" id="m65ec7ff73a" style="stroke:#000000;stroke-width:0.8;"/>
      </defs>
      <g>
       <use style="stroke:#000000;stroke-width:0.8;" x="57.6" xlink:href="#m65ec7ff73a" y="307.584"/>
      </g>
     </g>
     <g id="text_1">
      <!-- 0 -->
      <g transform="translate(52.51 326.7415)scale(0.16 -0.16)">
       <defs>
        <path d="M 2034 4250 
Q 1547 4250 1301 3770 
Q 1056 3291 1056 2328 
Q 1056 1369 1301 889 
Q 1547 409 2034 409 
Q 2525 409 2770 889 
Q 3016 1369 3016 2328 
Q 3016 3291 2770 3770 
Q 2525 4250 2034 4250 
z
M 2034 4750 
Q 2819 4750 3233 4129 
Q 3647 3509 3647 2328 
Q 3647 1150 3233 529 
Q 2819 -91 2034 -91 
Q 1250 -91 836 529 
Q 422 1150 422 2328 
Q 422 3509 836 4129 
Q 1250 4750 2034 4750 
z
" id="DejaVuSans-30" transform="scale(0.015625)"/>
       </defs>
       <use xlink:href="#DejaVuSans-30"/>
      </g>
     </g>
    </g>
    <g id="xtick_2">
     <g id="line2d_3">
      <path clip-path="url(#p892ffda4d6)" d="M 146.88 307.584 
L 146.88 41.472 
" style="fill:none;stroke:#b0b0b0;stroke-linecap:square;stroke-width:0.8;"/>
     </g>
     <g id="line2d_4">
      <g>
       <use style="stroke:#000000;stroke-width:0.8;" x="146.88" xlink:href="#m65ec7ff73a" y="307.584"/>
      </g>
     </g>
     <g id="text_2">
      <!-- 1000 -->
      <g transform="translate(126.52 326.7415)scale(0.16 -0.16)">
       <defs>
        <path d="M 794 531 
L 1825 531 
L 1825 4091 
L 703 3866 
L 703 4441 
L 1819 4666 
L 2450 4666 
L 2450 531 
L 3481 531 
L 3481 0 
L 794 0 
L 794 531 
z
" id="DejaVuSans-31" transform="scale(0.015625)"/>
       </defs>
       <use xlink:href="#DejaVuSans-31"/>
       <use x="63.623047" xlink:href="#DejaVuSans-30"/>
       <use x="127.246094" xlink:href="#DejaVuSans-30"/>
       <use x="190.869141" xlink:href="#DejaVuSans-30"/>
      </g>
     </g>
    </g>
    <g id="xtick_3">
     <g id="line2d_5">
      <path clip-path="url(#p892ffda4d6)" d="M 236.16 307.584 
L 236.16 41.472 
" style="fill:none;stroke:#b0b0b0;stroke-linecap:square;stroke-width:0.8;"/>
     </g>
     <g id="line2d_6">
      <g>
       <use style="stroke:#000000;stroke-width:0.8;" x="236.16" xlink:href="#m65ec7ff73a" y="307.584"/>
      </g>
     </g>
     <g id="text_3">
      <!-- 2000 -->
      <g transform="translate(215.8 326.7415)scale(0.16 -0.16)">
       <defs>
        <path d="M 1228 531 
L 3431 531 
L 3431 0 
L 469 0 
L 469 531 
Q 828 903 1448 1529 
Q 2069 2156 2228 2338 
Q 2531 2678 2651 2914 
Q 2772 3150 2772 3378 
Q 2772 3750 2511 3984 
Q 2250 4219 1831 4219 
Q 1534 4219 1204 4116 
Q 875 4013 500 3803 
L 500 4441 
Q 881 4594 1212 4672 
Q 1544 4750 1819 4750 
Q 2544 4750 2975 4387 
Q 3406 4025 3406 3419 
Q 3406 3131 3298 2873 
Q 3191 2616 2906 2266 
Q 2828 2175 2409 1742 
Q 1991 1309 1228 531 
z
" id="DejaVuSans-32" transform="scale(0.015625)"/>
       </defs>
       <use xlink:href="#DejaVuSans-32"/>
       <use x="63.623047" xlink:href="#DejaVuSans-30"/>
       <use x="127.246094" xlink:href="#DejaVuSans-30"/>
       <use x="190.869141" xlink:href="#DejaVuSans-30"/>
      </g>
     </g>
    </g>
    <g id="xtick_4">
     <g id="line2d_7">
      <path clip-path="url(#p892ffda4d6)" d="M 325.44 307.584 
L 325.44 41.472 
" style="fill:none;stroke:#b0b0b0;stroke-linecap:square;stroke-width:0.8;"/>
     </g>
     <g id="line2d_8">
      <g>
       <use style="stroke:#000000;stroke-width:0.8;" x="325.44" xlink:href="#m65ec7ff73a" y="307.584"/>
      </g>
     </g>
     <g id="text_4">
      <!-- 3000 -->
      <g transform="translate(305.08 326.7415)scale(0.16 -0.16)">
       <defs>
        <path d="M 2597 2516 
Q 3050 2419 3304 2112 
Q 3559 1806 3559 1356 
Q 3559 666 3084 287 
Q 2609 -91 1734 -91 
Q 1441 -91 1130 -33 
Q 819 25 488 141 
L 488 750 
Q 750 597 1062 519 
Q 1375 441 1716 441 
Q 2309 441 2620 675 
Q 2931 909 2931 1356 
Q 2931 1769 2642 2001 
Q 2353 2234 1838 2234 
L 1294 2234 
L 1294 2753 
L 1863 2753 
Q 2328 2753 2575 2939 
Q 2822 3125 2822 3475 
Q 2822 3834 2567 4026 
Q 2313 4219 1838 4219 
Q 1578 4219 1281 4162 
Q 984 4106 628 3988 
L 628 4550 
Q 988 4650 1302 4700 
Q 1616 4750 1894 4750 
Q 2613 4750 3031 4423 
Q 3450 4097 3450 3541 
Q 3450 3153 3228 2886 
Q 3006 2619 2597 2516 
z
" id="DejaVuSans-33" transform="scale(0.015625)"/>
       </defs>
       <use xlink:href="#DejaVuSans-33"/>
       <use x="63.623047" xlink:href="#DejaVuSans-30"/>
       <use x="127.246094" xlink:href="#DejaVuSans-30"/>
       <use x="190.869141" xlink:href="#DejaVuSans-30"/>
      </g>
     </g>
    </g>
    <g id="xtick_5">
     <g id="line2d_9">
      <path clip-path="url(#p892ffda4d6)" d="M 414.72 307.584 
L 414.72 41.472 
" style="fill:none;stroke:#b0b0b0;stroke-linecap:square;stroke-width:0.8;"/>
     </g>
     <g id="line2d_10">
      <g>
       <use style="stroke:#000000;stroke-width:0.8;" x="414.72" xlink:href="#m65ec7ff73a" y="307.584"/>
      </g>
     </g>
     <g id="text_5">
      <!-- 4000 -->
      <g transform="translate(394.36 326.7415)scale(0.16 -0.16)">
       <defs>
        <path d="M 2419 4116 
L 825 1625 
L 2419 1625 
L 2419 4116 
z
M 2253 4666 
L 3047 4666 
L 3047 1625 
L 3713 1625 
L 3713 1100 
L 3047 1100 
L 3047 0 
L 2419 0 
L 2419 1100 
L 313 1100 
L 313 1709 
L 2253 4666 
z
" id="DejaVuSans-34" transform="scale(0.015625)"/>
       </defs>
       <use xlink:href="#DejaVuSans-34"/>
       <use x="63.623047" xlink:href="#DejaVuSans-30"/>
       <use x="127.246094" xlink:href="#DejaVuSans-30"/>
       <use x="190.869141" xlink:href="#DejaVuSans-30"/>
      </g>
     </g>
    </g>
    <g id="text_6">
     <!-- Episodes -->
     <g transform="translate(200.5725 346.2265)scale(0.16 -0.16)">
      <defs>
       <path d="M 628 4666 
L 3578 4666 
L 3578 4134 
L 1259 4134 
L 1259 2753 
L 3481 2753 
L 3481 2222 
L 1259 2222 
L 1259 531 
L 3634 531 
L 3634 0 
L 628 0 
L 628 4666 
z
" id="DejaVuSans-45" transform="scale(0.015625)"/>
       <path d="M 1159 525 
L 1159 -1331 
L 581 -1331 
L 581 3500 
L 1159 3500 
L 1159 2969 
Q 1341 3281 1617 3432 
Q 1894 3584 2278 3584 
Q 2916 3584 3314 3078 
Q 3713 2572 3713 1747 
Q 3713 922 3314 415 
Q 2916 -91 2278 -91 
Q 1894 -91 1617 61 
Q 1341 213 1159 525 
z
M 3116 1747 
Q 3116 2381 2855 2742 
Q 2594 3103 2138 3103 
Q 1681 3103 1420 2742 
Q 1159 2381 1159 1747 
Q 1159 1113 1420 752 
Q 1681 391 2138 391 
Q 2594 391 2855 752 
Q 3116 1113 3116 1747 
z
" id="DejaVuSans-70" transform="scale(0.015625)"/>
       <path d="M 603 3500 
L 1178 3500 
L 1178 0 
L 603 0 
L 603 3500 
z
M 603 4863 
L 1178 4863 
L 1178 4134 
L 603 4134 
L 603 4863 
z
" id="DejaVuSans-69" transform="scale(0.015625)"/>
       <path d="M 2834 3397 
L 2834 2853 
Q 2591 2978 2328 3040 
Q 2066 3103 1784 3103 
Q 1356 3103 1142 2972 
Q 928 2841 928 2578 
Q 928 2378 1081 2264 
Q 1234 2150 1697 2047 
L 1894 2003 
Q 2506 1872 2764 1633 
Q 3022 1394 3022 966 
Q 3022 478 2636 193 
Q 2250 -91 1575 -91 
Q 1294 -91 989 -36 
Q 684 19 347 128 
L 347 722 
Q 666 556 975 473 
Q 1284 391 1588 391 
Q 1994 391 2212 530 
Q 2431 669 2431 922 
Q 2431 1156 2273 1281 
Q 2116 1406 1581 1522 
L 1381 1569 
Q 847 1681 609 1914 
Q 372 2147 372 2553 
Q 372 3047 722 3315 
Q 1072 3584 1716 3584 
Q 2034 3584 2315 3537 
Q 2597 3491 2834 3397 
z
" id="DejaVuSans-73" transform="scale(0.015625)"/>
       <path d="M 1959 3097 
Q 1497 3097 1228 2736 
Q 959 2375 959 1747 
Q 959 1119 1226 758 
Q 1494 397 1959 397 
Q 2419 397 2687 759 
Q 2956 1122 2956 1747 
Q 2956 2369 2687 2733 
Q 2419 3097 1959 3097 
z
M 1959 3584 
Q 2709 3584 3137 3096 
Q 3566 2609 3566 1747 
Q 3566 888 3137 398 
Q 2709 -91 1959 -91 
Q 1206 -91 779 398 
Q 353 888 353 1747 
Q 353 2609 779 3096 
Q 1206 3584 1959 3584 
z
" id="DejaVuSans-6f" transform="scale(0.015625)"/>
       <path d="M 2906 2969 
L 2906 4863 
L 3481 4863 
L 3481 0 
L 2906 0 
L 2906 525 
Q 2725 213 2448 61 
Q 2172 -91 1784 -91 
Q 1150 -91 751 415 
Q 353 922 353 1747 
Q 353 2572 751 3078 
Q 1150 3584 1784 3584 
Q 2172 3584 2448 3432 
Q 2725 3281 2906 2969 
z
M 947 1747 
Q 947 1113 1208 752 
Q 1469 391 1925 391 
Q 2381 391 2643 752 
Q 2906 1113 2906 1747 
Q 2906 2381 2643 2742 
Q 2381 3103 1925 3103 
Q 1469 3103 1208 2742 
Q 947 2381 947 1747 
z
" id="DejaVuSans-64" transform="scale(0.015625)"/>
       <path d="M 3597 1894 
L 3597 1613 
L 953 1613 
Q 991 1019 1311 708 
Q 1631 397 2203 397 
Q 2534 397 2845 478 
Q 3156 559 3463 722 
L 3463 178 
Q 3153 47 2828 -22 
Q 2503 -91 2169 -91 
Q 1331 -91 842 396 
Q 353 884 353 1716 
Q 353 2575 817 3079 
Q 1281 3584 2069 3584 
Q 2775 3584 3186 3129 
Q 3597 2675 3597 1894 
z
M 3022 2063 
Q 3016 2534 2758 2815 
Q 2500 3097 2075 3097 
Q 1594 3097 1305 2825 
Q 1016 2553 972 2059 
L 3022 2063 
z
" id="DejaVuSans-65" transform="scale(0.015625)"/>
      </defs>
      <use xlink:href="#DejaVuSans-45"/>
      <use x="63.183594" xlink:href="#DejaVuSans-70"/>
      <use x="126.660156" xlink:href="#DejaVuSans-69"/>
      <use x="154.443359" xlink:href="#DejaVuSans-73"/>
      <use x="206.542969" xlink:href="#DejaVuSans-6f"/>
      <use x="267.724609" xlink:href="#DejaVuSans-64"/>
      <use x="331.201172" xlink:href="#DejaVuSans-65"/>
      <use x="392.724609" xlink:href="#DejaVuSans-73"/>
     </g>
    </g>
   </g>
   <g id="matplotlib.axis_2">
    <g id="ytick_1">
     <g id="line2d_11">
      <path clip-path="url(#p892ffda4d6)" d="M 57.6 278.675183 
L 414.72 278.675183 
" style="fill:none;stroke:#b0b0b0;stroke-linecap:square;stroke-width:0.8;"/>
     </g>
     <g id="line2d_12">
      <defs>
       <path d="M 0 0 
L -3.5 0 
" id="mc60874ad98" style="stroke:#000000;stroke-width:0.8;"/>
      </defs>
      <g>
       <use style="stroke:#000000;stroke-width:0.8;" x="57.6" xlink:href="#mc60874ad98" y="278.675183"/>
      </g>
     </g>
     <g id="text_7">
      <!-- −800000 -->
      <g transform="translate(-23.8875 284.753933)scale(0.16 -0.16)">
       <defs>
        <path d="M 678 2272 
L 4684 2272 
L 4684 1741 
L 678 1741 
L 678 2272 
z
" id="DejaVuSans-2212" transform="scale(0.015625)"/>
        <path d="M 2034 2216 
Q 1584 2216 1326 1975 
Q 1069 1734 1069 1313 
Q 1069 891 1326 650 
Q 1584 409 2034 409 
Q 2484 409 2743 651 
Q 3003 894 3003 1313 
Q 3003 1734 2745 1975 
Q 2488 2216 2034 2216 
z
M 1403 2484 
Q 997 2584 770 2862 
Q 544 3141 544 3541 
Q 544 4100 942 4425 
Q 1341 4750 2034 4750 
Q 2731 4750 3128 4425 
Q 3525 4100 3525 3541 
Q 3525 3141 3298 2862 
Q 3072 2584 2669 2484 
Q 3125 2378 3379 2068 
Q 3634 1759 3634 1313 
Q 3634 634 3220 271 
Q 2806 -91 2034 -91 
Q 1263 -91 848 271 
Q 434 634 434 1313 
Q 434 1759 690 2068 
Q 947 2378 1403 2484 
z
M 1172 3481 
Q 1172 3119 1398 2916 
Q 1625 2713 2034 2713 
Q 2441 2713 2670 2916 
Q 2900 3119 2900 3481 
Q 2900 3844 2670 4047 
Q 2441 4250 2034 4250 
Q 1625 4250 1398 4047 
Q 1172 3844 1172 3481 
z
" id="DejaVuSans-38" transform="scale(0.015625)"/>
       </defs>
       <use xlink:href="#DejaVuSans-2212"/>
       <use x="83.789062" xlink:href="#DejaVuSans-38"/>
       <use x="147.412109" xlink:href="#DejaVuSans-30"/>
       <use x="211.035156" xlink:href="#DejaVuSans-30"/>
       <use x="274.658203" xlink:href="#DejaVuSans-30"/>
       <use x="338.28125" xlink:href="#DejaVuSans-30"/>
       <use x="401.904297" xlink:href="#DejaVuSans-30"/>
      </g>
     </g>
    </g>
    <g id="ytick_2">
     <g id="line2d_13">
      <path clip-path="url(#p892ffda4d6)" d="M 57.6 224.563257 
L 414.72 224.563257 
" style="fill:none;stroke:#b0b0b0;stroke-linecap:square;stroke-width:0.8;"/>
     </g>
     <g id="line2d_14">
      <g>
       <use style="stroke:#000000;stroke-width:0.8;" x="57.6" xlink:href="#mc60874ad98" y="224.563257"/>
      </g>
     </g>
     <g id="text_8">
      <!-- −600000 -->
      <g transform="translate(-23.8875 230.642007)scale(0.16 -0.16)">
       <defs>
        <path d="M 2113 2584 
Q 1688 2584 1439 2293 
Q 1191 2003 1191 1497 
Q 1191 994 1439 701 
Q 1688 409 2113 409 
Q 2538 409 2786 701 
Q 3034 994 3034 1497 
Q 3034 2003 2786 2293 
Q 2538 2584 2113 2584 
z
M 3366 4563 
L 3366 3988 
Q 3128 4100 2886 4159 
Q 2644 4219 2406 4219 
Q 1781 4219 1451 3797 
Q 1122 3375 1075 2522 
Q 1259 2794 1537 2939 
Q 1816 3084 2150 3084 
Q 2853 3084 3261 2657 
Q 3669 2231 3669 1497 
Q 3669 778 3244 343 
Q 2819 -91 2113 -91 
Q 1303 -91 875 529 
Q 447 1150 447 2328 
Q 447 3434 972 4092 
Q 1497 4750 2381 4750 
Q 2619 4750 2861 4703 
Q 3103 4656 3366 4563 
z
" id="DejaVuSans-36" transform="scale(0.015625)"/>
       </defs>
       <use xlink:href="#DejaVuSans-2212"/>
       <use x="83.789062" xlink:href="#DejaVuSans-36"/>
       <use x="147.412109" xlink:href="#DejaVuSans-30"/>
       <use x="211.035156" xlink:href="#DejaVuSans-30"/>
       <use x="274.658203" xlink:href="#DejaVuSans-30"/>
       <use x="338.28125" xlink:href="#DejaVuSans-30"/>
       <use x="401.904297" xlink:href="#DejaVuSans-30"/>
      </g>
     </g>
    </g>
    <g id="ytick_3">
     <g id="line2d_15">
      <path clip-path="url(#p892ffda4d6)" d="M 57.6 170.451332 
L 414.72 170.451332 
" style="fill:none;stroke:#b0b0b0;stroke-linecap:square;stroke-width:0.8;"/>
     </g>
     <g id="line2d_16">
      <g>
       <use style="stroke:#000000;stroke-width:0.8;" x="57.6" xlink:href="#mc60874ad98" y="170.451332"/>
      </g>
     </g>
     <g id="text_9">
      <!-- −400000 -->
      <g transform="translate(-23.8875 176.530082)scale(0.16 -0.16)">
       <use xlink:href="#DejaVuSans-2212"/>
       <use x="83.789062" xlink:href="#DejaVuSans-34"/>
       <use x="147.412109" xlink:href="#DejaVuSans-30"/>
       <use x="211.035156" xlink:href="#DejaVuSans-30"/>
       <use x="274.658203" xlink:href="#DejaVuSans-30"/>
       <use x="338.28125" xlink:href="#DejaVuSans-30"/>
       <use x="401.904297" xlink:href="#DejaVuSans-30"/>
      </g>
     </g>
    </g>
    <g id="ytick_4">
     <g id="line2d_17">
      <path clip-path="url(#p892ffda4d6)" d="M 57.6 116.339406 
L 414.72 116.339406 
" style="fill:none;stroke:#b0b0b0;stroke-linecap:square;stroke-width:0.8;"/>
     </g>
     <g id="line2d_18">
      <g>
       <use style="stroke:#000000;stroke-width:0.8;" x="57.6" xlink:href="#mc60874ad98" y="116.339406"/>
      </g>
     </g>
     <g id="text_10">
      <!-- −200000 -->
      <g transform="translate(-23.8875 122.418156)scale(0.16 -0.16)">
       <use xlink:href="#DejaVuSans-2212"/>
       <use x="83.789062" xlink:href="#DejaVuSans-32"/>
       <use x="147.412109" xlink:href="#DejaVuSans-30"/>
       <use x="211.035156" xlink:href="#DejaVuSans-30"/>
       <use x="274.658203" xlink:href="#DejaVuSans-30"/>
       <use x="338.28125" xlink:href="#DejaVuSans-30"/>
       <use x="401.904297" xlink:href="#DejaVuSans-30"/>
      </g>
     </g>
    </g>
    <g id="ytick_5">
     <g id="line2d_19">
      <path clip-path="url(#p892ffda4d6)" d="M 57.6 62.227481 
L 414.72 62.227481 
" style="fill:none;stroke:#b0b0b0;stroke-linecap:square;stroke-width:0.8;"/>
     </g>
     <g id="line2d_20">
      <g>
       <use style="stroke:#000000;stroke-width:0.8;" x="57.6" xlink:href="#mc60874ad98" y="62.227481"/>
      </g>
     </g>
     <g id="text_11">
      <!-- 0 -->
      <g transform="translate(40.42 68.306231)scale(0.16 -0.16)">
       <use xlink:href="#DejaVuSans-30"/>
      </g>
     </g>
    </g>
    <g id="text_12">
     <!-- Cumulative Reward -->
     <g transform="translate(-31.215 252.52425)rotate(-90)scale(0.16 -0.16)">
      <defs>
       <path d="M 4122 4306 
L 4122 3641 
Q 3803 3938 3442 4084 
Q 3081 4231 2675 4231 
Q 1875 4231 1450 3742 
Q 1025 3253 1025 2328 
Q 1025 1406 1450 917 
Q 1875 428 2675 428 
Q 3081 428 3442 575 
Q 3803 722 4122 1019 
L 4122 359 
Q 3791 134 3420 21 
Q 3050 -91 2638 -91 
Q 1578 -91 968 557 
Q 359 1206 359 2328 
Q 359 3453 968 4101 
Q 1578 4750 2638 4750 
Q 3056 4750 3426 4639 
Q 3797 4528 4122 4306 
z
" id="DejaVuSans-43" transform="scale(0.015625)"/>
       <path d="M 544 1381 
L 544 3500 
L 1119 3500 
L 1119 1403 
Q 1119 906 1312 657 
Q 1506 409 1894 409 
Q 2359 409 2629 706 
Q 2900 1003 2900 1516 
L 2900 3500 
L 3475 3500 
L 3475 0 
L 2900 0 
L 2900 538 
Q 2691 219 2414 64 
Q 2138 -91 1772 -91 
Q 1169 -91 856 284 
Q 544 659 544 1381 
z
M 1991 3584 
L 1991 3584 
z
" id="DejaVuSans-75" transform="scale(0.015625)"/>
       <path d="M 3328 2828 
Q 3544 3216 3844 3400 
Q 4144 3584 4550 3584 
Q 5097 3584 5394 3201 
Q 5691 2819 5691 2113 
L 5691 0 
L 5113 0 
L 5113 2094 
Q 5113 2597 4934 2840 
Q 4756 3084 4391 3084 
Q 3944 3084 3684 2787 
Q 3425 2491 3425 1978 
L 3425 0 
L 2847 0 
L 2847 2094 
Q 2847 2600 2669 2842 
Q 2491 3084 2119 3084 
Q 1678 3084 1418 2786 
Q 1159 2488 1159 1978 
L 1159 0 
L 581 0 
L 581 3500 
L 1159 3500 
L 1159 2956 
Q 1356 3278 1631 3431 
Q 1906 3584 2284 3584 
Q 2666 3584 2933 3390 
Q 3200 3197 3328 2828 
z
" id="DejaVuSans-6d" transform="scale(0.015625)"/>
       <path d="M 603 4863 
L 1178 4863 
L 1178 0 
L 603 0 
L 603 4863 
z
" id="DejaVuSans-6c" transform="scale(0.015625)"/>
       <path d="M 2194 1759 
Q 1497 1759 1228 1600 
Q 959 1441 959 1056 
Q 959 750 1161 570 
Q 1363 391 1709 391 
Q 2188 391 2477 730 
Q 2766 1069 2766 1631 
L 2766 1759 
L 2194 1759 
z
M 3341 1997 
L 3341 0 
L 2766 0 
L 2766 531 
Q 2569 213 2275 61 
Q 1981 -91 1556 -91 
Q 1019 -91 701 211 
Q 384 513 384 1019 
Q 384 1609 779 1909 
Q 1175 2209 1959 2209 
L 2766 2209 
L 2766 2266 
Q 2766 2663 2505 2880 
Q 2244 3097 1772 3097 
Q 1472 3097 1187 3025 
Q 903 2953 641 2809 
L 641 3341 
Q 956 3463 1253 3523 
Q 1550 3584 1831 3584 
Q 2591 3584 2966 3190 
Q 3341 2797 3341 1997 
z
" id="DejaVuSans-61" transform="scale(0.015625)"/>
       <path d="M 1172 4494 
L 1172 3500 
L 2356 3500 
L 2356 3053 
L 1172 3053 
L 1172 1153 
Q 1172 725 1289 603 
Q 1406 481 1766 481 
L 2356 481 
L 2356 0 
L 1766 0 
Q 1100 0 847 248 
Q 594 497 594 1153 
L 594 3053 
L 172 3053 
L 172 3500 
L 594 3500 
L 594 4494 
L 1172 4494 
z
" id="DejaVuSans-74" transform="scale(0.015625)"/>
       <path d="M 191 3500 
L 800 3500 
L 1894 563 
L 2988 3500 
L 3597 3500 
L 2284 0 
L 1503 0 
L 191 3500 
z
" id="DejaVuSans-76" transform="scale(0.015625)"/>
       <path id="DejaVuSans-20" transform="scale(0.015625)"/>
       <path d="M 2841 2188 
Q 3044 2119 3236 1894 
Q 3428 1669 3622 1275 
L 4263 0 
L 3584 0 
L 2988 1197 
Q 2756 1666 2539 1819 
Q 2322 1972 1947 1972 
L 1259 1972 
L 1259 0 
L 628 0 
L 628 4666 
L 2053 4666 
Q 2853 4666 3247 4331 
Q 3641 3997 3641 3322 
Q 3641 2881 3436 2590 
Q 3231 2300 2841 2188 
z
M 1259 4147 
L 1259 2491 
L 2053 2491 
Q 2509 2491 2742 2702 
Q 2975 2913 2975 3322 
Q 2975 3731 2742 3939 
Q 2509 4147 2053 4147 
L 1259 4147 
z
" id="DejaVuSans-52" transform="scale(0.015625)"/>
       <path d="M 269 3500 
L 844 3500 
L 1563 769 
L 2278 3500 
L 2956 3500 
L 3675 769 
L 4391 3500 
L 4966 3500 
L 4050 0 
L 3372 0 
L 2619 2869 
L 1863 0 
L 1184 0 
L 269 3500 
z
" id="DejaVuSans-77" transform="scale(0.015625)"/>
       <path d="M 2631 2963 
Q 2534 3019 2420 3045 
Q 2306 3072 2169 3072 
Q 1681 3072 1420 2755 
Q 1159 2438 1159 1844 
L 1159 0 
L 581 0 
L 581 3500 
L 1159 3500 
L 1159 2956 
Q 1341 3275 1631 3429 
Q 1922 3584 2338 3584 
Q 2397 3584 2469 3576 
Q 2541 3569 2628 3553 
L 2631 2963 
z
" id="DejaVuSans-72" transform="scale(0.015625)"/>
      </defs>
      <use xlink:href="#DejaVuSans-43"/>
      <use x="69.824219" xlink:href="#DejaVuSans-75"/>
      <use x="133.203125" xlink:href="#DejaVuSans-6d"/>
      <use x="230.615234" xlink:href="#DejaVuSans-75"/>
      <use x="293.994141" xlink:href="#DejaVuSans-6c"/>
      <use x="321.777344" xlink:href="#DejaVuSans-61"/>
      <use x="383.056641" xlink:href="#DejaVuSans-74"/>
      <use x="422.265625" xlink:href="#DejaVuSans-69"/>
      <use x="450.048828" xlink:href="#DejaVuSans-76"/>
      <use x="509.228516" xlink:href="#DejaVuSans-65"/>
      <use x="570.751953" xlink:href="#DejaVuSans-20"/>
      <use x="602.539062" xlink:href="#DejaVuSans-52"/>
      <use x="667.521484" xlink:href="#DejaVuSans-65"/>
      <use x="729.044922" xlink:href="#DejaVuSans-77"/>
      <use x="810.832031" xlink:href="#DejaVuSans-61"/>
      <use x="872.111328" xlink:href="#DejaVuSans-72"/>
      <use x="911.474609" xlink:href="#DejaVuSans-64"/>
     </g>
    </g>
   </g>
   <g id="line2d_21">
    <path clip-path="url(#p892ffda4d6)" d="M 57.6 87.682646 
L 57.68928 81.47262 
L 57.77856 82.634014 
L 57.86784 77.458251 
L 57.95712 87.682646 
L 58.0464 81.47262 
L 58.13568 82.634014 
L 58.22496 77.458251 
L 58.31424 87.682646 
L 58.40352 81.47262 
L 58.4928 82.634014 
L 58.58208 77.458251 
L 58.67136 87.682646 
L 58.76064 81.47262 
L 58.84992 82.634014 
L 58.9392 77.458251 
L 59.02848 87.682646 
L 59.11776 81.47262 
L 59.20704 82.634014 
L 59.29632 77.458251 
L 59.3856 87.682646 
L 59.47488 81.47262 
L 59.56416 82.634014 
L 59.65344 77.458251 
L 59.74272 87.682646 
L 59.832 81.47262 
L 59.92128 82.634014 
L 60.01056 77.458251 
L 60.09984 87.682646 
L 60.18912 81.47262 
L 60.2784 82.634014 
L 60.36768 77.458251 
L 60.45696 87.682646 
L 60.54624 81.47262 
L 60.63552 82.634014 
L 60.7248 77.458251 
L 60.81408 87.682646 
L 60.90336 81.47262 
L 60.99264 82.634014 
L 61.08192 77.458251 
L 61.1712 87.682646 
L 61.26048 81.47262 
L 61.34976 82.634014 
L 61.43904 77.458251 
L 61.52832 87.682646 
L 61.6176 81.47262 
L 61.70688 82.634014 
L 61.79616 77.458251 
L 61.88544 87.682646 
L 61.97472 81.47262 
L 62.064 82.634014 
L 62.15328 77.458251 
L 62.24256 87.682646 
L 62.33184 81.47262 
L 62.42112 82.634014 
L 62.5104 77.458251 
L 62.59968 87.682646 
L 62.68896 81.47262 
L 62.77824 82.634014 
L 62.86752 77.458251 
L 62.9568 87.682646 
L 63.04608 81.47262 
L 63.13536 82.634014 
L 63.22464 77.458251 
L 63.31392 87.682646 
L 63.4032 81.47262 
L 63.49248 82.634014 
L 63.58176 77.458251 
L 63.67104 87.682646 
L 63.76032 81.47262 
L 63.8496 82.634014 
L 63.93888 77.458251 
L 64.02816 87.682646 
L 64.11744 81.47262 
L 64.20672 82.634014 
L 64.296 77.458251 
L 64.38528 87.682646 
L 64.47456 81.47262 
L 64.56384 82.634014 
L 64.65312 77.458251 
L 64.7424 87.682646 
L 64.83168 81.47262 
L 64.92096 82.634014 
L 65.01024 77.458251 
L 65.09952 87.682646 
L 65.1888 81.47262 
L 65.27808 82.634014 
L 65.36736 77.458251 
L 65.45664 87.682646 
L 65.54592 81.47262 
L 65.6352 82.634014 
L 65.72448 77.458251 
L 65.81376 87.682646 
L 65.90304 81.47262 
L 65.99232 82.634014 
L 66.0816 77.458251 
L 66.17088 87.682646 
L 66.26016 81.47262 
L 66.34944 82.634014 
L 66.43872 77.458251 
L 66.61728 98.022517 
L 66.70656 121.275054 
L 66.79584 97.197593 
L 66.88512 98.040272 
L 66.9744 88.412517 
L 67.06368 110.849338 
L 67.33152 78.264708 
L 67.4208 112.914351 
L 67.59936 65.558287 
L 67.8672 123.695656 
L 68.04576 70.723257 
L 68.13504 83.96784 
L 68.22432 82.549787 
L 68.40288 80.276403 
L 68.49216 88.489663 
L 68.67072 76.400548 
L 68.76 112.326582 
L 68.93856 69.618276 
L 69.02784 66.234911 
L 69.11712 87.835892 
L 69.29568 73.977066 
L 69.38496 105.231875 
L 69.47424 71.978382 
L 69.56352 96.410647 
L 69.6528 68.762425 
L 69.74208 89.357506 
L 69.83136 86.790399 
L 70.0992 100.443485 
L 70.18848 73.995835 
L 70.27776 92.131188 
L 70.36704 75.64224 
L 70.45632 93.753321 
L 70.63488 230.875951 
L 70.81344 76.615978 
L 70.90272 78.189598 
L 70.992 72.105704 
L 71.08128 146.823522 
L 71.17056 66.75331 
L 71.25984 80.461529 
L 71.34912 110.89405 
L 71.4384 80.740503 
L 71.52768 94.284431 
L 71.61696 65.526848 
L 71.70624 68.738796 
L 71.79552 72.694067 
L 71.8848 215.385574 
L 71.97408 72.53726 
L 72.06336 78.691643 
L 72.15264 105.054024 
L 72.24192 68.618999 
L 72.3312 75.136598 
L 72.42048 80.513281 
L 72.50976 113.489471 
L 72.59904 86.745289 
L 72.68832 114.811812 
L 72.7776 72.443002 
L 72.86688 74.305812 
L 72.95616 81.049147 
L 73.04544 74.348357 
L 73.13472 97.595171 
L 73.31328 73.387024 
L 73.49184 100.479368 
L 73.6704 80.036467 
L 73.75968 92.542627 
L 73.93824 66.655009 
L 74.02752 155.374121 
L 74.20608 64.915579 
L 74.29536 109.499949 
L 74.38464 68.003418 
L 74.47392 75.828418 
L 74.5632 111.263581 
L 74.65248 67.75499 
L 74.74176 69.156847 
L 74.92032 97.529735 
L 75.0096 97.759595 
L 75.09888 94.347672 
L 75.36672 66.993432 
L 75.63456 106.470749 
L 75.72384 85.590874 
L 75.81312 93.188667 
L 75.9024 122.738187 
L 75.99168 67.993043 
L 76.08096 80.949601 
L 76.17024 107.69251 
L 76.25952 101.211862 
L 76.3488 96.122151 
L 76.43808 74.68112 
L 76.61664 88.087383 
L 76.7952 79.167794 
L 76.88448 285.408 
L 76.97376 75.979686 
L 77.06304 82.938018 
L 77.15232 86.373162 
L 77.2416 83.24608 
L 77.33088 87.204245 
L 77.42016 129.62777 
L 77.59872 74.642696 
L 77.77728 111.357961 
L 77.86656 66.597024 
L 77.95584 86.511643 
L 78.04512 85.075974 
L 78.1344 72.577115 
L 78.22368 77.326332 
L 78.31296 119.8232 
L 78.40224 68.376768 
L 78.49152 103.76931 
L 78.5808 74.67821 
L 78.67008 77.872796 
L 78.75936 87.602137 
L 78.84864 82.602741 
L 78.93792 149.108552 
L 79.11648 69.692877 
L 79.20576 94.423761 
L 79.38432 78.268146 
L 79.4736 121.069724 
L 79.56288 76.767616 
L 79.65216 84.370512 
L 79.83072 93.222284 
L 79.92 77.261078 
L 80.00928 84.613441 
L 80.09856 104.383855 
L 80.27712 67.467126 
L 80.3664 65.786756 
L 80.45568 67.084542 
L 80.54496 131.191575 
L 80.72352 80.091445 
L 80.8128 244.848236 
L 80.99136 78.996245 
L 81.08064 123.269876 
L 81.16992 83.794095 
L 81.2592 104.084435 
L 81.34848 100.312 
L 81.61632 75.2652 
L 81.79488 112.020278 
L 81.88416 89.551982 
L 82.06272 115.063571 
L 82.24128 86.919153 
L 82.33056 94.656402 
L 82.50912 126.837844 
L 82.68768 68.772488 
L 82.77696 90.061674 
L 82.86624 151.693995 
L 83.0448 73.555061 
L 83.13408 85.735983 
L 83.22336 153.751095 
L 83.31264 102.191701 
L 83.40192 152.961898 
L 83.4912 64.152258 
L 83.58048 87.28116 
L 83.66976 75.827276 
L 83.75904 149.375209 
L 83.9376 73.492535 
L 84.02688 79.407775 
L 84.11616 94.026127 
L 84.20544 132.257383 
L 84.384 86.303967 
L 84.47328 110.141245 
L 84.56256 99.738659 
L 84.65184 68.483697 
L 84.74112 84.832084 
L 84.8304 68.152681 
L 84.91968 96.847804 
L 85.00896 78.903868 
L 85.36608 128.260939 
L 85.45536 70.361665 
L 85.54464 76.519979 
L 85.63392 77.664954 
L 85.7232 129.480139 
L 85.81248 86.526841 
L 85.90176 90.33982 
L 85.99104 69.317735 
L 86.08032 97.756167 
L 86.1696 74.955702 
L 86.25888 182.798605 
L 86.34816 84.191583 
L 86.43744 192.996494 
L 86.52672 88.989247 
L 86.616 127.04938 
L 86.88384 85.785633 
L 86.97312 98.849152 
L 87.0624 87.650168 
L 87.15168 143.456249 
L 87.41952 75.280788 
L 87.59808 131.259634 
L 87.68736 112.965291 
L 87.77664 81.12517 
L 87.86592 87.362745 
L 88.04448 104.691969 
L 88.13376 104.253721 
L 88.22304 67.013884 
L 88.31232 125.140089 
L 88.4016 88.061318 
L 88.49088 88.720042 
L 88.58016 88.216879 
L 88.75872 76.844818 
L 88.848 77.367068 
L 88.93728 85.044475 
L 89.02656 73.159512 
L 89.11584 84.794697 
L 89.20512 78.148029 
L 89.2944 103.08305 
L 89.47296 71.682339 
L 89.56224 71.7744 
L 89.7408 93.614516 
L 89.83008 73.856314 
L 89.91936 93.175203 
L 90.09792 68.136487 
L 90.1872 112.663296 
L 90.27648 76.277675 
L 90.36576 110.826208 
L 90.54432 73.483193 
L 90.6336 97.222573 
L 90.72288 95.490232 
L 90.81216 110.294167 
L 90.99072 72.02251 
L 91.16928 112.719419 
L 91.25856 81.876229 
L 91.34784 98.356232 
L 91.43712 246.27402 
L 91.61568 82.043296 
L 91.70496 140.372437 
L 91.79424 71.657793 
L 91.88352 113.530421 
L 92.06208 70.156111 
L 92.24064 65.297822 
L 92.32992 67.132441 
L 92.50848 102.766678 
L 92.59776 106.276039 
L 92.68704 78.945894 
L 92.8656 123.710732 
L 92.95488 73.192622 
L 93.04416 107.613107 
L 93.22272 72.055992 
L 93.312 153.480148 
L 93.40128 77.346919 
L 93.49056 82.811151 
L 93.57984 73.974801 
L 93.7584 143.002863 
L 93.93696 77.533039 
L 94.11552 122.035583 
L 94.2048 68.091137 
L 94.29408 82.940412 
L 94.38336 76.217144 
L 94.47264 78.430052 
L 94.56192 87.089967 
L 94.6512 71.13218 
L 94.82976 102.340164 
L 94.91904 75.598813 
L 95.00832 113.970509 
L 95.0976 74.169938 
L 95.18688 81.942025 
L 95.27616 79.300779 
L 95.36544 103.153672 
L 95.544 74.348685 
L 95.63328 79.843229 
L 95.72256 68.145765 
L 95.81184 85.880516 
L 95.90112 73.179255 
L 96.07968 89.829567 
L 96.16896 89.75513 
L 96.25824 155.775255 
L 96.4368 76.53011 
L 96.52608 87.883918 
L 96.61536 83.825216 
L 96.70464 67.937034 
L 96.97248 99.488449 
L 97.06176 83.088502 
L 97.24032 95.841797 
L 97.3296 94.381314 
L 97.41888 81.540793 
L 97.59744 93.699466 
L 97.68672 92.235919 
L 97.776 66.527037 
L 98.04384 100.490446 
L 98.13312 93.911187 
L 98.2224 78.347314 
L 98.31168 94.124876 
L 98.40096 71.300216 
L 98.49024 77.254489 
L 98.57952 125.567753 
L 98.6688 69.40879 
L 98.75808 91.774413 
L 98.84736 91.642157 
L 98.93664 85.904899 
L 99.02592 67.237667 
L 99.29376 134.763533 
L 99.47232 74.674226 
L 99.5616 104.9157 
L 99.65088 198.624516 
L 99.74016 87.777172 
L 99.82944 173.856861 
L 99.91872 77.923717 
L 100.008 101.656857 
L 100.09728 81.742436 
L 100.27584 123.43525 
L 100.4544 75.500066 
L 100.54368 74.414749 
L 100.63296 69.617302 
L 100.72224 73.07314 
L 100.99008 99.205575 
L 101.07936 78.493024 
L 101.25792 113.235789 
L 101.3472 63.884294 
L 101.52576 91.585558 
L 101.61504 96.656856 
L 101.70432 91.911806 
L 101.88288 125.589912 
L 101.97216 85.23592 
L 102.15072 149.870278 
L 102.32928 65.040394 
L 102.41856 86.936141 
L 102.50784 79.878066 
L 102.59712 115.952407 
L 102.77568 71.356039 
L 102.95424 125.492624 
L 103.1328 68.889735 
L 103.22208 76.395142 
L 103.31136 121.013908 
L 103.40064 84.044009 
L 103.48992 164.177165 
L 103.66848 79.008917 
L 103.84704 107.521526 
L 104.0256 72.11463 
L 104.11488 90.860987 
L 104.20416 84.067499 
L 104.29344 68.762884 
L 104.38272 93.948341 
L 104.56128 67.9544 
L 104.73984 119.52037 
L 104.82912 71.528437 
L 105.00768 95.917025 
L 105.09696 70.728619 
L 105.18624 81.897074 
L 105.27552 121.451234 
L 105.45408 91.316063 
L 105.54336 98.326766 
L 105.63264 78.383496 
L 105.72192 112.29411 
L 105.8112 96.506484 
L 105.90048 114.307326 
L 106.16832 69.411156 
L 106.2576 69.785594 
L 106.43616 90.610991 
L 106.52544 71.509269 
L 106.61472 186.496338 
L 106.704 70.958674 
L 106.79328 86.927284 
L 106.88256 73.602722 
L 107.06112 135.419287 
L 107.1504 85.705512 
L 107.23968 113.714252 
L 107.41824 82.808333 
L 107.50752 80.322658 
L 107.5968 83.244171 
L 107.68608 100.105869 
L 107.77536 99.284982 
L 107.86464 89.673083 
L 107.95392 103.608413 
L 108.0432 65.636423 
L 108.13248 74.83711 
L 108.22176 75.902461 
L 108.31104 73.474347 
L 108.40032 74.516482 
L 108.4896 85.382566 
L 108.57888 74.784738 
L 108.84672 109.606253 
L 108.936 68.144331 
L 109.02528 76.132399 
L 109.20384 119.414103 
L 109.3824 76.069456 
L 109.47168 73.764984 
L 109.56096 80.962619 
L 109.65024 126.191684 
L 109.8288 83.279543 
L 109.91808 124.198772 
L 110.09664 68.509812 
L 110.18592 69.403187 
L 110.2752 107.332894 
L 110.36448 77.132155 
L 110.45376 82.98868 
L 110.54304 73.630094 
L 110.63232 98.101257 
L 110.7216 95.147085 
L 110.81088 106.796732 
L 110.90016 135.607678 
L 111.07872 83.547873 
L 111.168 124.388036 
L 111.25728 83.964701 
L 111.34656 87.77003 
L 111.43584 76.197353 
L 111.52512 81.076512 
L 111.6144 102.321129 
L 111.70368 64.068441 
L 111.88224 108.190631 
L 111.97152 101.515583 
L 112.0608 107.802372 
L 112.15008 124.340843 
L 112.32864 73.313287 
L 112.41792 93.29269 
L 112.5072 83.781213 
L 112.68576 106.119241 
L 112.77504 154.577029 
L 112.9536 69.520409 
L 113.13216 120.579674 
L 113.22144 79.245251 
L 113.31072 90.045003 
L 113.4 84.151813 
L 113.48928 128.250089 
L 113.75712 88.252224 
L 113.93568 74.786261 
L 114.02496 72.045396 
L 114.11424 74.192052 
L 114.20352 178.306609 
L 114.38208 115.960859 
L 114.56064 81.128582 
L 114.64992 81.424954 
L 114.7392 84.3831 
L 114.91776 113.928342 
L 115.00704 69.979984 
L 115.09632 131.355337 
L 115.1856 81.162049 
L 115.27488 109.06355 
L 115.36416 73.733467 
L 115.45344 101.476198 
L 115.632 79.746404 
L 115.72128 95.661333 
L 115.89984 72.102531 
L 115.98912 102.943866 
L 116.0784 95.30273 
L 116.16768 116.451243 
L 116.25696 87.157524 
L 116.43552 101.485917 
L 116.5248 74.051897 
L 116.70336 82.136233 
L 116.79264 74.924529 
L 117.06048 88.556349 
L 117.14976 129.500092 
L 117.23904 85.154854 
L 117.32832 97.47573 
L 117.4176 96.567759 
L 117.50688 81.504676 
L 117.59616 110.409338 
L 117.68544 77.978828 
L 117.77472 156.658088 
L 117.95328 78.70985 
L 118.13184 117.915799 
L 118.22112 79.130518 
L 118.3104 86.264443 
L 118.39968 77.718228 
L 118.48896 154.99064 
L 118.66752 65.051215 
L 118.7568 193.228127 
L 118.84608 82.280562 
L 118.93536 85.800186 
L 119.02464 147.548045 
L 119.11392 143.163718 
L 119.2032 64.70761 
L 119.29248 100.75035 
L 119.38176 96.60739 
L 119.47104 79.745998 
L 119.56032 94.556648 
L 119.6496 179.031746 
L 119.82816 94.715625 
L 119.91744 125.362133 
L 120.00672 124.29968 
L 120.18528 78.215522 
L 120.45312 94.948468 
L 120.63168 69.227885 
L 120.72096 74.70412 
L 120.81024 87.407332 
L 120.89952 87.215627 
L 120.9888 92.171239 
L 121.07808 77.643074 
L 121.25664 130.741216 
L 121.4352 70.139675 
L 121.52448 82.306689 
L 121.61376 65.938698 
L 121.70304 79.873506 
L 121.8816 71.650598 
L 121.97088 107.308758 
L 122.14944 80.333304 
L 122.23872 87.902736 
L 122.328 71.013559 
L 122.50656 118.673979 
L 122.59584 79.579556 
L 122.68512 133.304978 
L 122.7744 75.461814 
L 122.86368 78.466817 
L 122.95296 103.713569 
L 123.04224 72.445115 
L 123.13152 105.111013 
L 123.2208 85.284462 
L 123.31008 101.347806 
L 123.39936 100.447743 
L 123.48864 97.215211 
L 123.57792 70.960215 
L 123.75648 94.066737 
L 123.84576 65.136191 
L 123.93504 104.083204 
L 124.1136 88.186642 
L 124.29216 74.780762 
L 124.38144 110.772536 
L 124.47072 66.913683 
L 124.56 96.762548 
L 124.64928 83.683167 
L 124.73856 107.870817 
L 124.82784 84.84189 
L 125.0064 129.446482 
L 125.09568 88.774342 
L 125.18496 142.265293 
L 125.27424 73.546688 
L 125.4528 95.539772 
L 125.54208 70.558797 
L 125.63136 87.423126 
L 125.72064 72.999435 
L 125.8992 93.028957 
L 125.98848 91.233671 
L 126.07776 70.344494 
L 126.16704 72.513361 
L 126.25632 80.303072 
L 126.3456 67.588278 
L 126.43488 132.67175 
L 126.61344 75.457274 
L 126.70272 74.337896 
L 126.792 67.943139 
L 126.97056 87.226361 
L 127.14912 67.035567 
L 127.2384 154.83801 
L 127.32768 90.987762 
L 127.41696 101.665995 
L 127.50624 114.117862 
L 127.59552 84.6061 
L 127.6848 140.145523 
L 127.77408 77.740004 
L 127.86336 82.392335 
L 127.95264 99.513205 
L 128.04192 87.513545 
L 128.1312 106.718015 
L 128.22048 76.423151 
L 128.30976 84.972004 
L 128.39904 66.189565 
L 128.48832 86.401283 
L 128.5776 73.622583 
L 128.66688 81.122967 
L 128.75616 63.961131 
L 128.84544 71.126986 
L 129.024 145.622825 
L 129.11328 121.348884 
L 129.20256 66.115425 
L 129.29184 79.211573 
L 129.38112 123.55631 
L 129.4704 65.950284 
L 129.55968 98.244823 
L 129.64896 68.191467 
L 129.73824 129.609063 
L 129.82752 80.22233 
L 129.9168 84.141836 
L 130.00608 75.288791 
L 130.09536 79.774516 
L 130.18464 72.102951 
L 130.27392 111.374684 
L 130.3632 81.563553 
L 130.45248 87.452439 
L 130.63104 114.950517 
L 130.8096 63.795587 
L 130.89888 100.31021 
L 131.07744 71.814798 
L 131.16672 71.611217 
L 131.256 71.93439 
L 131.43456 93.058726 
L 131.52384 77.597733 
L 131.61312 95.353804 
L 131.7024 84.911517 
L 131.79168 85.801672 
L 131.88096 109.69559 
L 131.97024 74.232473 
L 132.05952 88.753594 
L 132.1488 83.955126 
L 132.23808 117.843309 
L 132.41664 85.921073 
L 132.50592 87.68979 
L 132.5952 82.384143 
L 132.68448 87.346575 
L 132.77376 99.471831 
L 132.95232 79.957279 
L 133.13088 99.719741 
L 133.22016 79.275811 
L 133.39872 105.385822 
L 133.488 79.715523 
L 133.66656 98.592377 
L 133.75584 95.458336 
L 133.84512 88.286736 
L 134.02368 98.513795 
L 134.20224 66.592025 
L 134.29152 84.509663 
L 134.3808 134.136018 
L 134.47008 64.443049 
L 134.55936 69.382525 
L 134.73792 79.829016 
L 134.8272 69.097379 
L 134.91648 92.463313 
L 135.00576 68.037028 
L 135.09504 151.093858 
L 135.2736 72.846606 
L 135.36288 94.259203 
L 135.45216 87.305403 
L 135.54144 67.526564 
L 135.63072 73.144516 
L 135.72 96.855888 
L 135.80928 68.89452 
L 135.98784 94.696087 
L 136.07712 83.476989 
L 136.1664 77.884155 
L 136.25568 109.663322 
L 136.34496 94.127928 
L 136.43424 102.194363 
L 136.52352 120.568611 
L 136.70208 73.601267 
L 136.79136 85.986935 
L 136.88064 76.540739 
L 136.96992 156.591449 
L 137.0592 72.682798 
L 137.14848 80.463436 
L 137.23776 91.812138 
L 137.41632 74.183289 
L 137.5056 118.765392 
L 137.59488 108.555114 
L 137.68416 73.096459 
L 137.77344 88.497903 
L 137.86272 71.01524 
L 137.952 78.173735 
L 138.04128 74.61451 
L 138.13056 122.495907 
L 138.21984 64.382283 
L 138.30912 71.670822 
L 138.3984 93.295654 
L 138.48768 69.222167 
L 138.57696 96.055798 
L 138.75552 74.863309 
L 138.93408 119.931504 
L 139.11264 82.86202 
L 139.20192 98.925378 
L 139.38048 72.646565 
L 139.46976 152.684714 
L 139.64832 90.584091 
L 139.7376 77.562212 
L 139.82688 85.345187 
L 139.91616 75.182201 
L 140.00544 116.609471 
L 140.09472 93.490005 
L 140.184 154.966845 
L 140.27328 77.09233 
L 140.36256 104.648023 
L 140.6304 78.408554 
L 140.71968 68.309895 
L 140.80896 88.165557 
L 140.89824 69.183856 
L 140.98752 175.283782 
L 141.16608 98.308542 
L 141.25536 76.213431 
L 141.34464 93.625229 
L 141.5232 72.776066 
L 141.61248 101.964571 
L 141.70176 78.738027 
L 141.88032 85.542501 
L 141.9696 76.112113 
L 142.14816 91.209163 
L 142.23744 81.923632 
L 142.416 101.846866 
L 142.59456 71.730963 
L 142.68384 91.849866 
L 142.77312 74.118771 
L 142.8624 74.610913 
L 142.95168 71.929828 
L 143.04096 81.664328 
L 143.13024 73.432413 
L 143.21952 75.931436 
L 143.3088 132.343091 
L 143.48736 72.689107 
L 143.66592 85.019895 
L 143.7552 65.963066 
L 144.02304 93.047348 
L 144.11232 96.433198 
L 144.29088 69.084944 
L 144.46944 109.493638 
L 144.55872 105.02185 
L 144.648 117.803535 
L 144.82656 70.672259 
L 144.91584 82.895866 
L 145.00512 77.921069 
L 145.0944 64.794974 
L 145.18368 82.722629 
L 145.27296 137.40911 
L 145.45152 70.070931 
L 145.5408 84.281233 
L 145.63008 63.896887 
L 145.89792 133.004971 
L 146.16576 88.766895 
L 146.25504 90.964473 
L 146.34432 78.05645 
L 146.4336 167.628503 
L 146.61216 68.820813 
L 146.70144 83.68866 
L 146.79072 132.498986 
L 146.96928 77.891665 
L 147.05856 85.639521 
L 147.14784 84.252587 
L 147.3264 88.303216 
L 147.50496 114.67972 
L 147.68352 70.542603 
L 147.7728 80.680987 
L 147.86208 75.545508 
L 147.95136 64.00429 
L 148.04064 65.0155 
L 148.12992 78.622401 
L 148.2192 129.158683 
L 148.30848 68.103981 
L 148.39776 80.372563 
L 148.48704 140.407892 
L 148.6656 72.126892 
L 148.75488 104.754192 
L 148.93344 64.877986 
L 149.112 74.278952 
L 149.20128 143.650977 
L 149.29056 126.079714 
L 149.37984 72.198582 
L 149.46912 107.412896 
L 149.5584 67.071225 
L 149.64768 114.586791 
L 149.73696 98.461928 
L 149.82624 117.029858 
L 149.91552 75.650807 
L 150.18336 113.785393 
L 150.54048 73.817296 
L 150.62976 117.611158 
L 150.71904 81.310913 
L 150.80832 87.3014 
L 150.8976 92.100492 
L 150.98688 90.954499 
L 151.07616 67.271968 
L 151.16544 103.593791 
L 151.344 72.353782 
L 151.43328 139.754449 
L 151.52256 64.212609 
L 151.61184 97.098251 
L 151.7904 69.921854 
L 151.87968 120.726959 
L 152.05824 76.974594 
L 152.14752 81.288939 
L 152.2368 75.862202 
L 152.32608 82.729924 
L 152.41536 68.335911 
L 152.59392 85.673373 
L 152.77248 79.495683 
L 152.86176 97.570448 
L 153.1296 65.571356 
L 153.30816 105.798989 
L 153.39744 76.700356 
L 153.576 105.230681 
L 153.66528 90.193343 
L 153.75456 155.134753 
L 153.93312 76.368517 
L 154.0224 97.884957 
L 154.11168 96.862298 
L 154.20096 74.100756 
L 154.29024 83.29305 
L 154.37952 82.458845 
L 154.4688 82.969832 
L 154.55808 82.387155 
L 154.64736 69.021137 
L 154.73664 78.406053 
L 154.82592 68.583983 
L 155.00448 77.310792 
L 155.09376 104.558245 
L 155.3616 68.404891 
L 155.45088 79.718004 
L 155.54016 121.348218 
L 155.71872 78.228927 
L 155.808 226.019213 
L 155.98656 79.319934 
L 156.07584 69.190214 
L 156.2544 115.851599 
L 156.34368 80.824785 
L 156.43296 111.773886 
L 156.52224 74.88538 
L 156.61152 79.661616 
L 156.7008 97.834926 
L 156.79008 97.350218 
L 157.05792 72.842718 
L 157.1472 79.902801 
L 157.23648 100.255114 
L 157.32576 70.602718 
L 157.50432 103.165687 
L 157.68288 72.793682 
L 157.77216 81.863794 
L 157.86144 119.938947 
L 157.95072 104.257121 
L 158.04 64.846934 
L 158.12928 75.777401 
L 158.21856 114.513831 
L 158.39712 72.839102 
L 158.4864 76.277585 
L 158.57568 118.072371 
L 158.75424 85.130506 
L 158.84352 91.382564 
L 158.9328 79.010367 
L 159.02208 109.43861 
L 159.11136 85.493553 
L 159.20064 103.658925 
L 159.28992 96.534628 
L 159.3792 99.163225 
L 159.46848 96.272864 
L 159.55776 81.562066 
L 159.64704 90.331925 
L 159.73632 67.651028 
L 159.8256 111.125647 
L 160.00416 75.679392 
L 160.09344 72.857466 
L 160.18272 85.245274 
L 160.272 125.177439 
L 160.53984 69.651786 
L 160.62912 112.413076 
L 160.80768 77.160958 
L 160.89696 87.481757 
L 160.98624 76.445781 
L 161.1648 105.761568 
L 161.34336 64.275604 
L 161.52192 115.592485 
L 161.70048 75.995679 
L 161.87904 82.310898 
L 162.0576 72.111558 
L 162.14688 84.192113 
L 162.32544 69.333803 
L 162.41472 66.379703 
L 162.68256 88.597283 
L 162.86112 71.344895 
L 162.9504 73.472698 
L 163.21824 97.586407 
L 163.30752 74.052495 
L 163.48608 95.116588 
L 163.57536 66.167169 
L 163.66464 90.283477 
L 163.75392 85.821757 
L 163.8432 71.616252 
L 163.93248 101.029038 
L 164.11104 82.564014 
L 164.2896 68.302311 
L 164.37888 75.650534 
L 164.46816 74.174324 
L 164.64672 111.56484 
L 164.736 73.397297 
L 164.82528 126.635721 
L 164.91456 94.233016 
L 165.00384 117.224235 
L 165.09312 71.023581 
L 165.1824 93.187164 
L 165.27168 65.338791 
L 165.36096 130.625437 
L 165.6288 65.275691 
L 165.80736 85.070115 
L 165.98592 64.138466 
L 166.0752 80.144132 
L 166.16448 69.127429 
L 166.34304 107.909101 
L 166.43232 96.677169 
L 166.5216 79.297672 
L 166.61088 118.303413 
L 166.78944 73.489148 
L 166.87872 104.926404 
L 166.968 65.835448 
L 167.05728 110.457626 
L 167.23584 71.200084 
L 167.32512 90.47447 
L 167.4144 76.750177 
L 167.50368 79.583983 
L 167.59296 79.129142 
L 167.68224 115.762999 
L 167.8608 77.111187 
L 167.95008 69.128827 
L 168.03936 77.255254 
L 168.12864 66.626409 
L 168.21792 103.768287 
L 168.48576 71.98275 
L 168.57504 69.614459 
L 168.66432 70.004676 
L 168.84288 119.518291 
L 168.93216 73.726594 
L 169.02144 81.623214 
L 169.11072 74.018844 
L 169.2 81.638235 
L 169.28928 109.61399 
L 169.37856 71.536499 
L 169.46784 77.539285 
L 169.73568 71.109904 
L 169.82496 71.535148 
L 169.91424 77.471315 
L 170.00352 75.03392 
L 170.0928 64.729809 
L 170.18208 74.239298 
L 170.27136 72.489159 
L 170.36064 65.452724 
L 170.44992 80.201317 
L 170.5392 73.084436 
L 170.62848 84.575931 
L 170.71776 122.4895 
L 170.89632 91.227339 
L 170.9856 77.254022 
L 171.07488 99.421535 
L 171.34272 65.078086 
L 171.432 74.914585 
L 171.52128 65.46967 
L 171.61056 80.72145 
L 171.69984 72.262942 
L 171.8784 91.031506 
L 171.96768 82.965126 
L 172.05696 94.162003 
L 172.14624 65.943377 
L 172.23552 67.539182 
L 172.50336 87.181472 
L 172.59264 88.025574 
L 172.68192 81.140587 
L 172.7712 135.147015 
L 172.86048 80.181768 
L 172.94976 83.336539 
L 173.12832 69.944269 
L 173.2176 75.546986 
L 173.30688 69.856989 
L 173.39616 108.292737 
L 173.48544 86.440085 
L 173.57472 124.453483 
L 173.75328 65.093487 
L 173.84256 66.81312 
L 173.93184 151.434071 
L 174.02112 73.956232 
L 174.1104 75.44613 
L 174.19968 73.880563 
L 174.28896 80.05854 
L 174.37824 70.886317 
L 174.46752 132.443583 
L 174.73536 87.309557 
L 174.91392 97.900782 
L 175.0032 92.581597 
L 175.09248 97.767819 
L 175.36032 82.675698 
L 175.4496 128.926161 
L 175.53888 81.507032 
L 175.62816 91.222013 
L 175.71744 70.863156 
L 175.80672 95.371655 
L 175.896 76.071563 
L 175.98528 76.55392 
L 176.07456 93.704173 
L 176.16384 90.278916 
L 176.25312 80.783846 
L 176.3424 97.194233 
L 176.52096 69.452896 
L 176.69952 78.927872 
L 176.7888 95.569804 
L 176.96736 73.630414 
L 177.05664 76.345618 
L 177.14592 111.17331 
L 177.41376 77.247583 
L 177.6816 71.89002 
L 177.77088 97.426086 
L 177.94944 76.826892 
L 178.03872 96.70231 
L 178.128 70.813947 
L 178.21728 74.153178 
L 178.39584 86.188721 
L 178.48512 63.739454 
L 178.5744 93.832318 
L 178.84224 64.203139 
L 178.93152 65.008433 
L 179.0208 109.634969 
L 179.19936 63.790143 
L 179.28864 104.42021 
L 179.37792 73.532437 
L 179.4672 75.206048 
L 179.55648 91.47986 
L 179.64576 68.472376 
L 179.73504 74.413277 
L 179.82432 73.307066 
L 179.9136 94.534494 
L 180.09216 63.792718 
L 180.27072 105.817483 
L 180.44928 69.720808 
L 180.53856 91.004716 
L 180.62784 71.0515 
L 180.89568 101.381969 
L 181.07424 67.593841 
L 181.2528 104.54485 
L 181.34208 95.03045 
L 181.43136 109.095845 
L 181.52064 103.139466 
L 181.60992 72.567472 
L 181.6992 75.051631 
L 181.78848 104.97162 
L 181.87776 64.68575 
L 181.96704 72.929017 
L 182.1456 84.832884 
L 182.23488 117.524149 
L 182.32416 115.086946 
L 182.50272 73.298294 
L 182.592 116.531929 
L 182.68128 65.255613 
L 182.77056 79.85554 
L 182.85984 72.560321 
L 182.94912 72.615229 
L 183.12768 94.129298 
L 183.21696 69.642015 
L 183.30624 86.542983 
L 183.39552 70.463633 
L 183.57408 122.77995 
L 183.66336 74.365625 
L 183.75264 92.732337 
L 183.9312 78.313531 
L 184.02048 71.885299 
L 184.10976 79.336834 
L 184.19904 72.446236 
L 184.3776 102.852886 
L 184.55616 73.514191 
L 184.64544 84.293356 
L 184.824 129.438743 
L 184.91328 76.238396 
L 185.00256 91.584666 
L 185.09184 71.167976 
L 185.18112 79.730922 
L 185.2704 105.12938 
L 185.44896 78.9463 
L 185.53824 73.571728 
L 185.62752 87.128226 
L 185.7168 73.751221 
L 185.89536 94.131696 
L 186.07392 79.622262 
L 186.1632 95.575782 
L 186.34176 72.985735 
L 186.52032 83.753856 
L 186.6096 74.134281 
L 186.69888 159.314662 
L 186.87744 78.128504 
L 187.056 65.344824 
L 187.23456 108.672533 
L 187.32384 85.57341 
L 187.41312 96.270243 
L 187.68096 72.820413 
L 187.77024 89.054482 
L 187.85952 88.882316 
L 187.9488 92.7987 
L 188.03808 76.148408 
L 188.12736 126.69135 
L 188.30592 64.853629 
L 188.48448 88.234822 
L 188.57376 85.371626 
L 188.66304 69.171287 
L 188.75232 76.319627 
L 188.8416 102.981646 
L 188.93088 72.320554 
L 189.02016 92.796253 
L 189.19872 70.324105 
L 189.288 81.950914 
L 189.37728 65.515612 
L 189.46656 76.921158 
L 189.55584 102.749365 
L 189.64512 67.763229 
L 189.82368 88.566934 
L 189.91296 65.620819 
L 190.00224 77.941337 
L 190.09152 69.774431 
L 190.27008 91.676796 
L 190.35936 116.228768 
L 190.44864 178.183223 
L 190.53792 69.259975 
L 190.6272 74.174125 
L 190.71648 69.929479 
L 190.89504 75.65131 
L 190.98432 78.091367 
L 191.0736 97.702572 
L 191.25216 74.560864 
L 191.34144 69.419164 
L 191.43072 72.831678 
L 191.60928 90.924969 
L 191.69856 68.439245 
L 191.78784 92.353985 
L 191.87712 85.359658 
L 191.9664 102.37738 
L 192.05568 79.013197 
L 192.23424 96.314548 
L 192.50208 77.784797 
L 192.59136 69.091589 
L 192.76992 145.211224 
L 192.94848 65.591298 
L 193.03776 118.916102 
L 193.21632 85.430057 
L 193.39488 71.384732 
L 193.48416 89.892384 
L 193.66272 63.82729 
L 193.84128 82.566114 
L 193.93056 75.712758 
L 194.01984 166.249565 
L 194.1984 70.392331 
L 194.37696 75.345331 
L 194.46624 116.04874 
L 194.6448 79.857802 
L 194.82336 86.607406 
L 194.91264 116.847267 
L 195.0912 68.063105 
L 195.26976 93.095335 
L 195.44832 104.246107 
L 195.5376 77.927559 
L 195.62688 77.940194 
L 195.71616 63.809835 
L 195.80544 73.577312 
L 195.89472 68.491502 
L 196.07328 89.013633 
L 196.16256 76.509077 
L 196.25184 84.838765 
L 196.34112 72.011493 
L 196.4304 84.733875 
L 196.60896 75.338043 
L 196.69824 94.276372 
L 196.78752 91.493984 
L 196.8768 78.038418 
L 196.96608 82.351836 
L 197.05536 92.490421 
L 197.14464 85.49306 
L 197.23392 122.963088 
L 197.41248 68.631723 
L 197.50176 119.407794 
L 197.68032 65.204732 
L 197.7696 69.085479 
L 197.85888 88.177779 
L 197.94816 66.921008 
L 198.03744 88.360198 
L 198.216 65.541828 
L 198.30528 79.243788 
L 198.39456 77.257839 
L 198.48384 70.769743 
L 198.57312 91.361452 
L 198.6624 66.953063 
L 198.75168 136.05391 
L 198.93024 68.211257 
L 199.01952 74.090388 
L 199.19808 107.191231 
L 199.28736 99.957901 
L 199.37664 75.385013 
L 199.46592 85.53841 
L 199.5552 66.11123 
L 199.73376 76.089107 
L 199.82304 69.351625 
L 200.0016 76.123692 
L 200.18016 112.496015 
L 200.26944 67.922906 
L 200.35872 72.685548 
L 200.448 74.89966 
L 200.53728 80.16366 
L 200.62656 77.248687 
L 200.71584 77.722191 
L 200.80512 113.916563 
L 200.8944 69.490474 
L 200.98368 76.61762 
L 201.25152 114.403816 
L 201.51936 69.115459 
L 201.60864 66.289039 
L 201.87648 108.737756 
L 202.14432 75.666634 
L 202.2336 107.085221 
L 202.50144 67.779927 
L 202.59072 140.094744 
L 202.68 89.090329 
L 202.76928 91.190141 
L 202.94784 69.79825 
L 203.03712 69.7402 
L 203.21568 113.796845 
L 203.30496 71.47902 
L 203.39424 96.395075 
L 203.48352 96.33386 
L 203.5728 71.905584 
L 203.66208 134.897754 
L 203.84064 68.636242 
L 203.92992 79.691168 
L 204.0192 70.121894 
L 204.10848 83.224132 
L 204.19776 69.276848 
L 204.37632 89.850674 
L 204.4656 109.494047 
L 204.55488 70.808468 
L 204.64416 106.750087 
L 204.82272 68.646876 
L 204.912 119.455959 
L 205.00128 112.584124 
L 205.09056 66.614537 
L 205.17984 76.61082 
L 205.26912 88.576735 
L 205.3584 67.246237 
L 205.44768 73.924862 
L 205.53696 98.920801 
L 205.62624 66.020984 
L 205.71552 74.257232 
L 205.89408 65.682406 
L 205.98336 104.062367 
L 206.07264 78.486628 
L 206.16192 80.748342 
L 206.2512 72.44085 
L 206.34048 78.112968 
L 206.51904 65.361322 
L 206.60832 68.889952 
L 206.6976 106.813582 
L 206.87616 73.792671 
L 206.96544 130.988803 
L 207.05472 83.806712 
L 207.144 239.508451 
L 207.32256 85.251235 
L 207.41184 79.382757 
L 207.50112 79.511314 
L 207.5904 80.984645 
L 207.67968 67.077059 
L 207.76896 97.200366 
L 207.94752 63.792537 
L 208.12608 149.506543 
L 208.30464 64.359442 
L 208.57248 88.024005 
L 208.66176 100.059086 
L 208.75104 95.456102 
L 208.84032 65.20592 
L 208.9296 71.525552 
L 209.01888 71.402087 
L 209.10816 95.432639 
L 209.28672 67.146876 
L 209.46528 108.204511 
L 209.64384 75.443258 
L 209.73312 116.441302 
L 209.8224 73.935268 
L 209.91168 79.956226 
L 210.09024 69.038191 
L 210.2688 91.966709 
L 210.44736 77.486146 
L 210.62592 83.091541 
L 210.7152 97.717407 
L 210.80448 67.042932 
L 210.98304 106.506864 
L 211.1616 80.818093 
L 211.25088 89.25065 
L 211.34016 76.435332 
L 211.42944 114.441543 
L 211.51872 105.669835 
L 211.608 78.682018 
L 211.69728 84.679218 
L 211.78656 82.634615 
L 212.0544 69.301256 
L 212.14368 79.453136 
L 212.23296 66.592682 
L 212.32224 81.550962 
L 212.41152 70.702741 
L 212.5008 78.714211 
L 212.59008 69.085776 
L 212.67936 82.265638 
L 212.76864 81.433369 
L 212.85792 79.616228 
L 212.9472 94.367208 
L 213.03648 67.776652 
L 213.12576 74.178148 
L 213.21504 89.587035 
L 213.30432 67.642204 
L 213.3936 81.901169 
L 213.48288 79.137559 
L 213.66144 75.402295 
L 213.75072 114.14433 
L 213.84 105.790082 
L 213.92928 80.094515 
L 214.01856 125.118535 
L 214.19712 65.619034 
L 214.2864 82.837851 
L 214.37568 67.630485 
L 214.46496 69.903457 
L 214.55424 81.418213 
L 214.64352 65.591365 
L 214.7328 83.565923 
L 214.82208 81.693126 
L 214.91136 78.598293 
L 215.00064 83.564207 
L 215.08992 103.033547 
L 215.1792 91.287099 
L 215.26848 128.747578 
L 215.44704 72.632335 
L 215.53632 96.973728 
L 215.6256 63.922724 
L 215.71488 108.158382 
L 215.89344 79.830068 
L 216.072 65.022573 
L 216.25056 91.911252 
L 216.33984 84.523607 
L 216.42912 90.276114 
L 216.5184 80.199977 
L 216.60768 88.047326 
L 216.78624 75.21883 
L 216.87552 105.478511 
L 217.05408 79.603213 
L 217.23264 131.809741 
L 217.32192 77.466004 
L 217.4112 138.923709 
L 217.58976 82.938632 
L 217.67904 84.014744 
L 217.76832 71.393569 
L 217.8576 72.977787 
L 217.94688 72.895015 
L 218.03616 76.220058 
L 218.12544 90.016657 
L 218.21472 85.720068 
L 218.304 64.400179 
L 218.39328 90.144589 
L 218.57184 64.142758 
L 218.66112 71.997039 
L 218.7504 99.440664 
L 218.83968 174.761702 
L 218.92896 71.002436 
L 219.01824 72.416921 
L 219.10752 71.227363 
L 219.1968 88.981733 
L 219.28608 84.028252 
L 219.37536 65.508346 
L 219.55392 109.693675 
L 219.6432 83.685576 
L 219.73248 89.670476 
L 219.82176 90.605861 
L 220.00032 69.008973 
L 220.0896 125.057988 
L 220.26816 85.995543 
L 220.44672 110.224467 
L 220.62528 67.693435 
L 220.80384 122.23387 
L 220.9824 70.508471 
L 221.16096 76.713753 
L 221.25024 103.160914 
L 221.4288 74.300134 
L 221.69664 91.224563 
L 221.78592 100.808381 
L 221.8752 94.72861 
L 222.05376 71.47112 
L 222.23232 91.973471 
L 222.3216 68.1971 
L 222.41088 70.868515 
L 222.58944 92.508203 
L 222.67872 90.488624 
L 222.768 69.588019 
L 222.94656 84.508499 
L 223.03584 81.464203 
L 223.12512 64.245735 
L 223.2144 164.23021 
L 223.39296 76.598676 
L 223.48224 75.596534 
L 223.57152 144.119189 
L 223.6608 67.914562 
L 223.75008 91.126221 
L 223.83936 70.305961 
L 223.92864 109.770599 
L 224.01792 68.869409 
L 224.1072 73.792301 
L 224.19648 77.161208 
L 224.28576 63.89082 
L 224.64288 98.804334 
L 224.73216 72.582306 
L 224.82144 75.42931 
L 224.91072 92.062823 
L 225 91.981098 
L 225.08928 69.620078 
L 225.17856 95.080842 
L 225.26784 66.796755 
L 225.35712 120.450936 
L 225.4464 77.743636 
L 225.53568 93.550076 
L 225.62496 84.73721 
L 225.71424 64.011325 
L 225.80352 67.596383 
L 225.8928 120.995384 
L 225.98208 99.221336 
L 226.07136 112.547348 
L 226.24992 72.53307 
L 226.3392 104.25529 
L 226.42848 70.172685 
L 226.69632 111.186522 
L 226.7856 66.809563 
L 226.87488 69.95383 
L 226.96416 115.133355 
L 227.05344 78.487343 
L 227.14272 111.563947 
L 227.32128 74.127386 
L 227.41056 64.503908 
L 227.49984 99.54699 
L 227.58912 73.277579 
L 227.76768 97.617057 
L 228.03552 63.795112 
L 228.1248 73.521359 
L 228.21408 69.918355 
L 228.30336 76.027016 
L 228.39264 91.041767 
L 228.5712 66.879484 
L 228.66048 76.072716 
L 228.74976 67.558516 
L 229.19616 104.780742 
L 229.37472 87.695273 
L 229.55328 123.243063 
L 229.64256 75.402797 
L 229.73184 88.176329 
L 229.82112 80.506048 
L 229.9104 87.228819 
L 229.99968 71.059582 
L 230.08896 98.34167 
L 230.17824 69.766002 
L 230.26752 74.734485 
L 230.3568 68.234478 
L 230.44608 84.398543 
L 230.62464 73.341144 
L 230.71392 77.528521 
L 230.8032 107.840017 
L 230.98176 72.677526 
L 231.07104 150.687945 
L 231.16032 78.864223 
L 231.2496 156.217353 
L 231.33888 74.012719 
L 231.42816 112.058274 
L 231.60672 73.576425 
L 231.696 74.650283 
L 231.78528 88.773891 
L 231.87456 70.628653 
L 231.96384 87.523153 
L 232.05312 76.865779 
L 232.1424 77.331375 
L 232.23168 69.441385 
L 232.32096 95.001244 
L 232.41024 77.678792 
L 232.49952 78.380228 
L 232.5888 78.665935 
L 232.67808 95.995089 
L 232.76736 72.053853 
L 232.94592 133.486991 
L 233.0352 83.734584 
L 233.12448 108.055687 
L 233.30304 78.441021 
L 233.39232 65.630398 
L 233.4816 101.373692 
L 233.57088 71.564659 
L 233.74944 104.348765 
L 233.83872 102.9392 
L 234.01728 78.090143 
L 234.10656 116.942344 
L 234.28512 67.185927 
L 234.3744 97.818146 
L 234.55296 76.186501 
L 234.8208 104.113013 
L 234.91008 85.294084 
L 234.99936 85.66696 
L 235.08864 90.907691 
L 235.17792 89.900172 
L 235.2672 67.717542 
L 235.35648 119.057031 
L 235.44576 65.76888 
L 235.53504 81.378262 
L 235.62432 80.827496 
L 235.7136 83.965 
L 235.80288 63.807628 
L 235.89216 111.679012 
L 235.98144 67.594931 
L 236.16 87.664607 
L 236.24928 74.780381 
L 236.33856 101.869854 
L 236.51712 71.386163 
L 236.69568 79.383596 
L 236.78496 69.663758 
L 236.87424 87.536903 
L 236.96352 68.879167 
L 237.14208 88.064051 
L 237.23136 77.07927 
L 237.32064 86.194184 
L 237.40992 69.691072 
L 237.4992 106.134272 
L 237.58848 96.27035 
L 237.67776 67.33266 
L 237.76704 79.564953 
L 237.85632 113.453878 
L 238.03488 73.899022 
L 238.21344 83.685573 
L 238.30272 80.192488 
L 238.392 71.692249 
L 238.48128 76.994891 
L 238.57056 66.001083 
L 238.74912 73.182464 
L 238.8384 70.622847 
L 238.92768 92.306057 
L 239.2848 67.589056 
L 239.37408 80.772995 
L 239.46336 73.613945 
L 239.55264 85.915521 
L 239.7312 68.668392 
L 239.82048 71.094029 
L 239.90976 72.862784 
L 239.99904 70.854062 
L 240.08832 76.67187 
L 240.1776 66.252267 
L 240.35616 98.817122 
L 240.44544 128.310549 
L 240.624 69.79093 
L 240.80256 83.292319 
L 240.89184 65.717707 
L 240.98112 93.266361 
L 241.0704 74.477106 
L 241.15968 74.951514 
L 241.33824 92.424023 
L 241.60608 71.136281 
L 241.69536 105.37715 
L 241.9632 68.577266 
L 242.14176 91.272404 
L 242.23104 84.934897 
L 242.32032 64.454334 
L 242.49888 106.248106 
L 242.58816 76.208584 
L 242.76672 108.604199 
L 242.856 94.606138 
L 242.94528 94.332206 
L 243.03456 97.927475 
L 243.12384 74.831245 
L 243.21312 84.862326 
L 243.3024 69.498602 
L 243.39168 89.612937 
L 243.48096 89.110207 
L 243.57024 84.059875 
L 243.65952 66.426928 
L 243.7488 81.634358 
L 243.83808 67.612019 
L 243.92736 68.535425 
L 244.10592 63.987776 
L 244.1952 68.765221 
L 244.28448 66.915719 
L 244.37376 75.758082 
L 244.46304 95.713918 
L 244.55232 78.715587 
L 244.6416 82.716744 
L 244.73088 99.000717 
L 244.82016 79.632809 
L 244.90944 85.744112 
L 244.99872 76.191128 
L 245.088 111.180432 
L 245.26656 64.031699 
L 245.35584 68.978537 
L 245.5344 125.028651 
L 245.80224 69.880141 
L 245.89152 87.393654 
L 245.9808 70.632918 
L 246.07008 77.856979 
L 246.15936 116.041066 
L 246.33792 66.488152 
L 246.4272 93.536205 
L 246.69504 75.779078 
L 246.8736 72.201628 
L 246.96288 83.933424 
L 247.05216 133.012543 
L 247.14144 118.771612 
L 247.23072 73.742995 
L 247.32 78.521838 
L 247.40928 88.791802 
L 247.58784 68.556803 
L 247.67712 110.475486 
L 247.85568 65.105605 
L 247.94496 78.200118 
L 248.03424 71.651463 
L 248.12352 96.924005 
L 248.2128 67.311751 
L 248.39136 93.378692 
L 248.48064 74.603652 
L 248.6592 101.594292 
L 248.74848 70.643509 
L 248.83776 75.714437 
L 248.92704 76.993458 
L 249.01632 96.174797 
L 249.1056 85.76149 
L 249.19488 89.417283 
L 249.28416 69.290921 
L 249.46272 93.909209 
L 249.552 85.026591 
L 249.64128 102.103793 
L 249.73056 69.199279 
L 249.81984 102.322894 
L 249.9984 63.939802 
L 250.17696 74.481262 
L 250.26624 64.035017 
L 250.53408 90.580205 
L 250.62336 64.64617 
L 250.80192 84.83849 
L 250.8912 73.90044 
L 250.98048 114.340454 
L 251.06976 64.993389 
L 251.15904 87.841341 
L 251.24832 77.95346 
L 251.3376 78.946725 
L 251.42688 110.895321 
L 251.51616 70.940779 
L 251.60544 75.98634 
L 251.69472 121.709685 
L 251.784 80.472059 
L 251.87328 128.856245 
L 251.96256 80.183082 
L 252.05184 87.783308 
L 252.14112 87.794214 
L 252.2304 73.958485 
L 252.31968 74.719894 
L 252.40896 72.675077 
L 252.58752 78.726283 
L 252.76608 71.613152 
L 252.94464 101.883273 
L 253.03392 68.453088 
L 253.1232 99.221572 
L 253.21248 69.713729 
L 253.30176 134.135872 
L 253.39104 73.974928 
L 253.48032 97.68312 
L 253.65888 73.206149 
L 253.74816 111.854252 
L 253.83744 73.344195 
L 253.92672 87.199489 
L 254.016 80.799811 
L 254.10528 92.31421 
L 254.19456 77.33901 
L 254.28384 107.983681 
L 254.37312 95.393212 
L 254.4624 99.045389 
L 254.55168 64.903424 
L 254.64096 82.779602 
L 254.81952 72.469016 
L 254.9088 137.883829 
L 255.08736 70.759683 
L 255.17664 88.871173 
L 255.26592 72.568597 
L 255.3552 73.125261 
L 255.44448 69.562207 
L 255.53376 84.455765 
L 255.62304 64.144511 
L 255.71232 104.393892 
L 255.89088 68.973141 
L 256.06944 117.331762 
L 256.15872 99.966594 
L 256.248 130.652582 
L 256.51584 67.846757 
L 256.60512 96.105278 
L 256.6944 76.209403 
L 256.78368 80.082011 
L 256.87296 67.078423 
L 257.05152 93.310352 
L 257.31936 69.828287 
L 257.49792 72.928406 
L 257.67648 66.283061 
L 257.85504 93.829362 
L 257.94432 88.425356 
L 258.0336 69.77229 
L 258.12288 89.086999 
L 258.21216 80.970711 
L 258.30144 83.502344 
L 258.39072 123.722859 
L 258.48 78.12278 
L 258.56928 87.554796 
L 258.65856 71.977359 
L 258.74784 74.63297 
L 258.83712 86.502542 
L 258.9264 76.892646 
L 259.01568 83.514906 
L 259.10496 72.790713 
L 259.19424 94.6574 
L 259.28352 79.52569 
L 259.3728 110.157033 
L 259.46208 73.109954 
L 259.64064 101.224316 
L 259.90848 67.954702 
L 259.99776 89.517608 
L 260.17632 75.426691 
L 260.2656 124.823136 
L 260.35488 94.928073 
L 260.53344 122.482833 
L 260.712 65.104278 
L 260.80128 64.155754 
L 260.89056 85.897982 
L 260.97984 72.067077 
L 261.06912 84.910543 
L 261.24768 65.904917 
L 261.33696 78.162033 
L 261.51552 71.702059 
L 261.6048 91.037154 
L 261.69408 76.539648 
L 261.78336 129.792209 
L 261.87264 117.494591 
L 262.0512 69.370579 
L 262.14048 90.148259 
L 262.22976 74.803819 
L 262.31904 80.489175 
L 262.40832 105.331093 
L 262.58688 70.138283 
L 262.67616 73.16467 
L 262.76544 83.685709 
L 262.85472 113.284639 
L 263.03328 68.575396 
L 263.12256 87.112017 
L 263.21184 63.882188 
L 263.30112 104.603974 
L 263.3904 95.679227 
L 263.47968 65.446453 
L 263.65824 89.508112 
L 263.74752 105.064977 
L 263.8368 70.891486 
L 263.92608 72.000216 
L 264.01536 117.338578 
L 264.19392 82.438141 
L 264.2832 122.443174 
L 264.37248 68.163246 
L 264.46176 69.337121 
L 264.55104 77.628486 
L 264.64032 104.013461 
L 264.7296 88.047178 
L 264.90816 118.628052 
L 264.99744 73.916319 
L 265.08672 77.042997 
L 265.176 127.958721 
L 265.35456 87.097211 
L 265.44384 109.113744 
L 265.53312 73.298612 
L 265.6224 108.644648 
L 265.71168 107.475064 
L 265.80096 98.812205 
L 265.89024 71.394089 
L 265.97952 93.811059 
L 266.0688 89.483956 
L 266.15808 70.958498 
L 266.24736 98.857355 
L 266.42592 70.751723 
L 266.5152 81.890938 
L 266.60448 73.801579 
L 266.69376 102.973362 
L 266.87232 73.498454 
L 266.9616 104.849058 
L 267.05088 68.849617 
L 267.14016 101.832968 
L 267.22944 95.118394 
L 267.31872 67.105331 
L 267.408 86.938757 
L 267.49728 131.465452 
L 267.58656 73.976522 
L 267.67584 81.233667 
L 267.8544 63.794056 
L 268.03296 86.715963 
L 268.12224 71.241692 
L 268.21152 79.44228 
L 268.3008 73.29788 
L 268.47936 104.103438 
L 268.83648 82.361122 
L 268.92576 90.895398 
L 269.01504 81.79791 
L 269.10432 90.409089 
L 269.1936 82.969033 
L 269.28288 84.570185 
L 269.37216 97.364648 
L 269.64 70.71472 
L 269.72928 96.004634 
L 269.81856 90.405993 
L 269.90784 74.423944 
L 269.99712 88.212391 
L 270.0864 73.212312 
L 270.26496 100.577169 
L 270.35424 81.845234 
L 270.44352 136.589268 
L 270.62208 67.31318 
L 270.71136 72.545522 
L 270.80064 100.017702 
L 270.88992 81.655237 
L 271.06848 125.056011 
L 271.15776 82.451527 
L 271.24704 84.62923 
L 271.33632 80.711778 
L 271.4256 113.540928 
L 271.51488 80.648366 
L 271.78272 102.061273 
L 271.872 101.711683 
L 271.96128 67.604035 
L 272.05056 89.703451 
L 272.13984 65.963269 
L 272.22912 106.258914 
L 272.40768 66.639541 
L 272.49696 69.746298 
L 272.58624 129.045777 
L 272.67552 72.716779 
L 272.7648 91.172232 
L 272.85408 69.13391 
L 273.03264 87.143242 
L 273.12192 76.432114 
L 273.2112 81.427734 
L 273.30048 77.778478 
L 273.38976 91.46465 
L 273.47904 71.452423 
L 273.56832 85.632178 
L 273.74688 69.056012 
L 273.92544 76.98047 
L 274.104 114.260465 
L 274.19328 77.902773 
L 274.28256 139.169732 
L 274.37184 75.460806 
L 274.46112 78.676033 
L 274.5504 95.065529 
L 274.72896 68.923886 
L 274.81824 67.529331 
L 274.9968 113.469495 
L 275.35392 64.784613 
L 275.4432 101.349962 
L 275.53248 83.098079 
L 275.62176 97.699667 
L 275.71104 92.004484 
L 275.80032 92.816282 
L 275.8896 65.737794 
L 276.06816 90.704472 
L 276.15744 83.712854 
L 276.24672 74.52084 
L 276.336 141.081828 
L 276.42528 98.463445 
L 276.51456 106.279921 
L 276.60384 102.963619 
L 276.69312 71.146309 
L 276.7824 124.25845 
L 276.87168 68.859873 
L 276.96096 96.870973 
L 277.05024 90.027143 
L 277.13952 85.684012 
L 277.2288 96.975248 
L 277.31808 69.427604 
L 277.58592 91.613216 
L 277.6752 68.560074 
L 277.76448 121.777359 
L 277.85376 68.263214 
L 277.94304 75.715327 
L 278.03232 91.401836 
L 278.1216 69.449403 
L 278.21088 74.602715 
L 278.30016 73.315986 
L 278.38944 70.271354 
L 278.47872 85.874329 
L 278.568 63.925866 
L 278.65728 75.749383 
L 278.74656 72.466419 
L 278.83584 98.495029 
L 278.92512 86.19739 
L 279.0144 89.250633 
L 279.10368 64.208257 
L 279.19296 92.781256 
L 279.4608 65.121297 
L 279.55008 69.948588 
L 279.72864 98.354651 
L 279.81792 81.517132 
L 279.9072 106.421643 
L 280.08576 65.390882 
L 280.17504 86.63985 
L 280.26432 73.23647 
L 280.3536 98.611833 
L 280.44288 71.06008 
L 280.53216 88.019836 
L 280.62144 136.544897 
L 280.8 73.642672 
L 280.88928 83.90131 
L 280.97856 76.959043 
L 281.15712 103.439968 
L 281.33568 70.283755 
L 281.42496 68.348349 
L 281.51424 74.765259 
L 281.60352 124.244227 
L 281.6928 81.923822 
L 281.78208 84.973133 
L 281.96064 64.649255 
L 282.04992 89.269659 
L 282.1392 69.899372 
L 282.22848 115.799876 
L 282.31776 71.223254 
L 282.40704 90.192474 
L 282.49632 70.383285 
L 282.5856 115.152571 
L 282.67488 96.045115 
L 282.76416 120.305009 
L 282.85344 65.011334 
L 282.94272 104.806769 
L 283.032 66.846264 
L 283.21056 87.652278 
L 283.29984 86.018542 
L 283.38912 65.828598 
L 283.4784 103.8384 
L 283.65696 71.495922 
L 283.74624 82.559151 
L 283.83552 69.292452 
L 283.9248 96.489273 
L 284.01408 72.677835 
L 284.10336 72.793331 
L 284.28192 74.179895 
L 284.3712 91.273605 
L 284.46048 77.454329 
L 284.54976 96.077947 
L 284.63904 72.605428 
L 284.72832 79.884914 
L 284.8176 66.557603 
L 284.90688 76.917871 
L 285.08544 70.478991 
L 285.17472 78.642203 
L 285.264 119.183902 
L 285.44256 70.091507 
L 285.53184 72.399387 
L 285.62112 86.887696 
L 285.7104 73.089724 
L 285.79968 79.403635 
L 285.88896 72.078614 
L 285.97824 80.993065 
L 286.06752 78.382478 
L 286.1568 70.369575 
L 286.24608 75.99393 
L 286.33536 150.008102 
L 286.51392 78.676179 
L 286.6032 80.114864 
L 286.69248 105.878709 
L 286.78176 68.969022 
L 286.87104 77.003846 
L 286.96032 74.034251 
L 287.0496 89.715898 
L 287.13888 74.148524 
L 287.22816 103.348415 
L 287.31744 67.53398 
L 287.40672 110.813605 
L 287.58528 74.259234 
L 287.67456 79.70958 
L 287.76384 163.044224 
L 287.85312 75.233286 
L 287.9424 76.116531 
L 288.12096 74.018708 
L 288.21024 84.94182 
L 288.29952 73.169315 
L 288.3888 87.154365 
L 288.47808 64.486524 
L 288.56736 104.495268 
L 288.65664 101.389203 
L 288.74592 80.548838 
L 288.8352 112.583934 
L 289.01376 65.472722 
L 289.10304 66.372058 
L 289.19232 126.219477 
L 289.2816 72.224853 
L 289.37088 81.207967 
L 289.46016 121.6268 
L 289.54944 70.719091 
L 289.728 96.10111 
L 289.81728 73.610458 
L 289.90656 85.351091 
L 290.1744 70.434382 
L 290.26368 72.693512 
L 290.35296 86.476364 
L 290.44224 121.912375 
L 290.6208 75.344381 
L 290.71008 63.919237 
L 290.88864 93.455247 
L 290.97792 188.813633 
L 291.0672 67.720028 
L 291.15648 85.782948 
L 291.24576 77.116922 
L 291.33504 80.555164 
L 291.42432 92.035402 
L 291.5136 89.363243 
L 291.60288 85.206038 
L 291.69216 87.110403 
L 291.78144 96.206027 
L 291.87072 63.727694 
L 292.13856 101.628152 
L 292.22784 78.066736 
L 292.31712 115.886728 
L 292.4064 66.834609 
L 292.49568 73.318467 
L 292.58496 64.354426 
L 292.67424 79.07599 
L 292.76352 66.0208 
L 292.8528 69.830484 
L 292.94208 113.858817 
L 293.03136 67.627992 
L 293.20992 101.280919 
L 293.38848 71.955229 
L 293.47776 96.782263 
L 293.56704 68.165394 
L 293.65632 79.313 
L 293.7456 112.251167 
L 293.92416 75.719681 
L 294.01344 109.362447 
L 294.10272 69.417683 
L 294.192 109.041327 
L 294.28128 67.482955 
L 294.54912 128.987301 
L 294.72768 73.554594 
L 294.81696 81.927026 
L 294.90624 71.454606 
L 294.99552 76.813815 
L 295.0848 65.04892 
L 295.17408 80.58336 
L 295.26336 76.01297 
L 295.35264 81.753178 
L 295.44192 66.997181 
L 295.5312 130.769656 
L 295.62048 66.946584 
L 295.70976 75.804198 
L 295.79904 82.572499 
L 295.9776 72.669812 
L 296.06688 76.66376 
L 296.15616 67.187652 
L 296.24544 73.487873 
L 296.33472 64.421525 
L 296.424 65.869344 
L 296.51328 99.741187 
L 296.69184 63.82708 
L 296.78112 72.399499 
L 296.8704 68.905397 
L 296.95968 73.661229 
L 297.04896 71.237744 
L 297.13824 86.021847 
L 297.3168 65.727153 
L 297.40608 104.375031 
L 297.58464 73.817331 
L 297.67392 70.981224 
L 297.7632 81.097228 
L 297.85248 71.806701 
L 297.94176 104.039766 
L 298.03104 66.428742 
L 298.12032 105.59467 
L 298.29888 77.980131 
L 298.38816 87.837302 
L 298.47744 69.485165 
L 298.56672 74.907635 
L 298.656 91.956146 
L 298.74528 70.565195 
L 299.01312 95.77622 
L 299.28096 75.451122 
L 299.37024 70.347057 
L 299.5488 87.203126 
L 299.72736 71.859975 
L 299.81664 74.836682 
L 299.90592 101.290933 
L 299.9952 78.727008 
L 300.08448 87.751811 
L 300.17376 80.087127 
L 300.26304 85.159224 
L 300.4416 64.346676 
L 300.53088 77.749018 
L 300.62016 127.073632 
L 300.70944 74.266683 
L 300.79872 75.424567 
L 300.888 104.667932 
L 300.97728 71.4137 
L 301.06656 125.868943 
L 301.15584 85.047204 
L 301.24512 97.435894 
L 301.3344 74.636669 
L 301.51296 96.968099 
L 301.60224 69.379687 
L 301.69152 79.669649 
L 301.7808 66.8416 
L 302.04864 97.363577 
L 302.31648 69.555709 
L 302.40576 108.882262 
L 302.49504 68.95308 
L 302.58432 88.096271 
L 302.6736 72.774197 
L 302.76288 94.293405 
L 302.94144 72.418876 
L 303.12 67.118193 
L 303.20928 91.682062 
L 303.29856 90.392107 
L 303.38784 72.782673 
L 303.65568 91.600644 
L 303.74496 133.327787 
L 303.83424 96.490495 
L 303.92352 102.389184 
L 304.0128 81.308495 
L 304.10208 93.136398 
L 304.19136 77.001372 
L 304.28064 101.440514 
L 304.36992 76.925932 
L 304.54848 121.210771 
L 304.63776 78.695447 
L 304.72704 81.042934 
L 304.81632 66.935128 
L 304.9056 70.077211 
L 305.08416 111.586921 
L 305.17344 101.710143 
L 305.26272 110.45697 
L 305.352 72.503727 
L 305.44128 84.737216 
L 305.53056 64.317461 
L 305.61984 88.034067 
L 305.70912 66.341149 
L 305.88768 106.476955 
L 306.06624 71.99651 
L 306.15552 101.982172 
L 306.2448 72.739342 
L 306.33408 77.598471 
L 306.42336 80.545354 
L 306.51264 80.41766 
L 306.60192 65.477923 
L 306.6912 80.815223 
L 306.95904 64.010547 
L 307.04832 100.412232 
L 307.1376 84.223245 
L 307.22688 106.918306 
L 307.40544 65.698585 
L 307.584 140.677267 
L 307.67328 75.425265 
L 307.76256 110.902772 
L 307.94112 75.579489 
L 308.0304 68.954083 
L 308.20896 79.157864 
L 308.29824 73.107173 
L 308.38752 88.692425 
L 308.4768 69.69142 
L 308.56608 91.544564 
L 308.74464 66.887023 
L 308.83392 69.087811 
L 308.9232 88.755484 
L 309.01248 84.483337 
L 309.10176 80.772047 
L 309.19104 70.663624 
L 309.3696 89.581461 
L 309.45888 64.011782 
L 309.54816 89.402195 
L 309.63744 63.73407 
L 309.72672 87.453441 
L 309.90528 67.68805 
L 309.99456 72.950815 
L 310.08384 64.097041 
L 310.2624 98.597945 
L 310.35168 84.075492 
L 310.44096 118.625663 
L 310.53024 73.73427 
L 310.61952 80.482616 
L 310.7088 102.27555 
L 310.79808 76.420615 
L 310.88736 142.742354 
L 311.06592 76.969129 
L 311.1552 109.006213 
L 311.24448 64.537687 
L 311.33376 79.66949 
L 311.42304 76.304758 
L 311.51232 68.142635 
L 311.6016 75.397302 
L 311.69088 104.425209 
L 311.78016 98.026661 
L 311.86944 100.682206 
L 311.95872 79.114327 
L 312.13728 115.968971 
L 312.22656 70.009794 
L 312.31584 98.280302 
L 312.40512 90.695671 
L 312.58368 157.465024 
L 312.67296 75.424099 
L 312.76224 90.118891 
L 312.85152 93.454766 
L 312.9408 72.94304 
L 313.03008 74.480819 
L 313.11936 70.074699 
L 313.29792 141.034632 
L 313.3872 109.96656 
L 313.47648 127.379369 
L 313.56576 67.911312 
L 313.65504 70.124368 
L 313.8336 109.061215 
L 313.92288 64.285974 
L 314.01216 80.554579 
L 314.10144 124.305459 
L 314.19072 92.59814 
L 314.28 99.631488 
L 314.36928 97.510824 
L 314.45856 74.363048 
L 314.54784 76.81195 
L 314.63712 115.412908 
L 314.90496 78.056304 
L 314.99424 99.381595 
L 315.08352 84.704479 
L 315.1728 99.205303 
L 315.35136 77.98267 
L 315.44064 75.726653 
L 315.52992 82.02382 
L 315.6192 76.040716 
L 315.70848 99.912475 
L 315.79776 76.145075 
L 315.88704 96.782849 
L 315.97632 92.840518 
L 316.0656 73.486479 
L 316.15488 119.802817 
L 316.24416 70.236611 
L 316.33344 75.167549 
L 316.42272 134.882715 
L 316.512 77.178584 
L 316.60128 85.385761 
L 316.69056 77.471412 
L 316.86912 102.662113 
L 316.9584 77.744312 
L 317.04768 91.718499 
L 317.22624 82.62412 
L 317.31552 87.071843 
L 317.4048 67.674722 
L 317.49408 72.863384 
L 317.58336 101.335541 
L 317.76192 79.366952 
L 317.8512 73.543496 
L 317.94048 73.959832 
L 318.02976 73.494889 
L 318.11904 89.621118 
L 318.20832 87.853862 
L 318.2976 77.059213 
L 318.38688 88.488519 
L 318.47616 74.591115 
L 318.65472 86.813277 
L 318.744 109.620261 
L 319.01184 68.863892 
L 319.10112 121.997584 
L 319.1904 78.334683 
L 319.27968 99.708001 
L 319.6368 66.144223 
L 319.81536 82.222738 
L 319.99392 64.398227 
L 320.0832 109.918973 
L 320.17248 80.183404 
L 320.26176 80.726786 
L 320.35104 83.407815 
L 320.44032 74.212196 
L 320.61888 90.538086 
L 320.79744 69.085293 
L 320.88672 74.136692 
L 320.976 110.242283 
L 321.06528 74.171279 
L 321.15456 92.178144 
L 321.24384 70.32157 
L 321.4224 92.378296 
L 321.51168 79.646526 
L 321.60096 103.813379 
L 321.69024 78.522152 
L 321.77952 81.440397 
L 321.8688 80.523376 
L 321.95808 82.570266 
L 322.04736 110.763131 
L 322.13664 64.369836 
L 322.22592 98.507843 
L 322.40448 73.168853 
L 322.49376 86.971808 
L 322.58304 73.717729 
L 322.67232 81.176575 
L 322.94016 67.99146 
L 323.02944 89.869058 
L 323.208 69.21088 
L 323.29728 72.454581 
L 323.38656 104.583449 
L 323.56512 70.85747 
L 323.6544 73.061406 
L 323.74368 86.913635 
L 323.83296 83.67492 
L 323.92224 88.764513 
L 324.01152 71.14652 
L 324.1008 116.484033 
L 324.19008 64.703959 
L 324.36864 114.529075 
L 324.5472 66.333865 
L 324.63648 80.218779 
L 324.72576 68.341676 
L 324.81504 72.195083 
L 324.90432 110.223258 
L 325.08288 79.011841 
L 325.26144 72.458575 
L 325.44 113.973819 
L 325.61856 68.090204 
L 325.70784 75.012624 
L 325.79712 72.569267 
L 325.8864 108.588146 
L 326.06496 65.525585 
L 326.15424 69.891014 
L 326.24352 84.522668 
L 326.42208 70.415295 
L 326.51136 75.744203 
L 326.68992 68.876817 
L 326.86848 91.407555 
L 326.95776 69.327164 
L 327.04704 102.480241 
L 327.13632 77.762781 
L 327.49344 129.09636 
L 327.672 71.819377 
L 327.76128 68.266003 
L 327.93984 99.464693 
L 328.02912 65.782094 
L 328.20768 100.290439 
L 328.29696 90.291992 
L 328.38624 68.66286 
L 328.5648 89.290489 
L 328.65408 80.966442 
L 328.74336 126.843789 
L 328.92192 66.448756 
L 329.0112 71.346442 
L 329.10048 100.12322 
L 329.18976 95.711437 
L 329.27904 64.839868 
L 329.36832 81.155495 
L 329.4576 66.738694 
L 329.54688 68.384963 
L 329.72544 82.701373 
L 329.904 70.627835 
L 329.99328 92.336129 
L 330.17184 70.966367 
L 330.26112 110.160111 
L 330.52896 79.051923 
L 330.61824 100.6964 
L 330.70752 99.436111 
L 330.7968 74.855903 
L 330.88608 76.197305 
L 330.97536 78.844617 
L 331.06464 84.978505 
L 331.15392 104.814368 
L 331.2432 68.821213 
L 331.33248 124.657293 
L 331.42176 82.723602 
L 331.51104 93.61421 
L 331.60032 67.597038 
L 331.6896 91.097071 
L 331.77888 65.480147 
L 331.86816 97.963623 
L 332.04672 68.265141 
L 332.136 91.222262 
L 332.22528 67.986015 
L 332.31456 103.073079 
L 332.5824 65.041898 
L 332.67168 74.34535 
L 332.76096 99.741653 
L 332.85024 68.246969 
L 333.0288 109.924871 
L 333.11808 73.313739 
L 333.20736 89.108971 
L 333.38592 66.08696 
L 333.4752 83.789274 
L 333.65376 69.826768 
L 333.74304 68.575361 
L 334.18944 109.69444 
L 334.45728 66.191531 
L 334.54656 92.737891 
L 334.63584 68.463805 
L 334.72512 86.980128 
L 334.90368 67.582617 
L 334.99296 109.819796 
L 335.17152 71.132879 
L 335.2608 85.782588 
L 335.35008 69.772614 
L 335.52864 83.821739 
L 335.7072 71.817389 
L 335.79648 82.979431 
L 335.97504 75.289402 
L 336.06432 76.227982 
L 336.1536 92.547417 
L 336.24288 88.209151 
L 336.42144 65.670267 
L 336.51072 70.083294 
L 336.6 89.297313 
L 336.68928 65.380241 
L 336.77856 73.5466 
L 336.86784 96.83257 
L 336.95712 65.868176 
L 337.0464 68.073171 
L 337.13568 69.959231 
L 337.40352 87.145395 
L 337.4928 93.079548 
L 337.67136 69.177658 
L 337.76064 93.831875 
L 337.84992 85.32101 
L 337.9392 64.424837 
L 338.11776 92.201878 
L 338.29632 71.082385 
L 338.3856 74.631811 
L 338.56416 99.834201 
L 338.74272 66.198635 
L 338.92128 81.504484 
L 339.01056 75.490923 
L 339.09984 162.242759 
L 339.2784 65.843183 
L 339.36768 69.256379 
L 339.54624 84.704026 
L 339.63552 76.030101 
L 339.7248 90.874688 
L 339.90336 79.992825 
L 339.99264 101.765702 
L 340.08192 83.544338 
L 340.1712 90.002379 
L 340.26048 131.903134 
L 340.34976 66.326515 
L 340.43904 84.053342 
L 340.52832 67.484613 
L 340.6176 98.423037 
L 340.79616 68.518607 
L 340.88544 71.896147 
L 340.97472 88.681669 
L 341.064 72.78786 
L 341.24256 100.074579 
L 341.33184 82.955294 
L 341.5104 99.290325 
L 341.59968 85.294992 
L 341.68896 101.853568 
L 341.77824 63.906911 
L 341.9568 84.342274 
L 342.04608 79.498322 
L 342.13536 80.180689 
L 342.22464 77.265363 
L 342.31392 67.999346 
L 342.4032 100.318307 
L 342.49248 97.683808 
L 342.67104 79.504131 
L 342.76032 109.327743 
L 342.8496 72.920821 
L 343.02816 91.267535 
L 343.11744 172.214452 
L 343.296 88.3844 
L 343.47456 66.891713 
L 343.65312 81.112992 
L 343.7424 76.520086 
L 343.83168 98.994905 
L 343.92096 74.225652 
L 344.01024 76.819426 
L 344.09952 72.354712 
L 344.36736 91.184705 
L 344.45664 93.005711 
L 344.54592 74.206946 
L 344.6352 75.130474 
L 344.72448 81.540761 
L 344.81376 117.722352 
L 344.90304 68.711295 
L 344.99232 77.169401 
L 345.17088 89.747864 
L 345.34944 76.057872 
L 345.43872 83.502983 
L 345.528 114.20195 
L 345.61728 79.424898 
L 345.79584 97.702002 
L 345.88512 64.73031 
L 345.9744 70.811256 
L 346.06368 69.227507 
L 346.15296 99.887994 
L 346.24224 65.490814 
L 346.33152 73.69554 
L 346.4208 80.761285 
L 346.59936 112.714952 
L 346.77792 69.886637 
L 346.95648 87.233731 
L 347.04576 74.421649 
L 347.22432 116.250807 
L 347.49216 68.134793 
L 347.58144 64.649442 
L 347.67072 65.90236 
L 347.76 64.793264 
L 347.84928 73.287521 
L 347.93856 68.707682 
L 348.02784 78.163307 
L 348.11712 63.860556 
L 348.2064 80.645584 
L 348.29568 80.218164 
L 348.38496 73.607133 
L 348.47424 87.831055 
L 348.56352 68.543327 
L 348.6528 86.354467 
L 348.74208 85.456182 
L 348.83136 64.474734 
L 348.92064 106.30459 
L 349.0992 68.96107 
L 349.18848 141.686308 
L 349.36704 77.703035 
L 349.45632 69.145423 
L 349.5456 73.087688 
L 349.63488 112.321292 
L 349.81344 82.576993 
L 349.90272 68.296476 
L 350.08128 96.074557 
L 350.25984 65.159651 
L 350.34912 66.051391 
L 350.52768 79.518552 
L 350.61696 78.993344 
L 350.79552 86.496074 
L 350.8848 75.055915 
L 350.97408 77.684176 
L 351.15264 101.710018 
L 351.24192 66.430258 
L 351.50976 105.454786 
L 351.59904 84.605353 
L 351.68832 89.529659 
L 351.7776 116.890762 
L 351.86688 73.660368 
L 351.95616 91.840355 
L 352.13472 68.616865 
L 352.40256 93.124944 
L 352.49184 64.742616 
L 352.6704 78.931277 
L 352.75968 67.902797 
L 352.84896 70.183748 
L 352.93824 88.874737 
L 353.02752 64.460207 
L 353.1168 119.931453 
L 353.29536 78.908964 
L 353.38464 76.166432 
L 353.5632 85.751632 
L 353.65248 66.681124 
L 353.74176 77.7765 
L 353.83104 66.735091 
L 353.92032 147.616769 
L 354.0096 71.373791 
L 354.18816 99.75014 
L 354.36672 64.514293 
L 354.456 66.575297 
L 354.63456 109.686853 
L 354.72384 68.68132 
L 354.81312 74.453668 
L 354.9024 65.448542 
L 354.99168 91.94484 
L 355.17024 63.738043 
L 355.25952 83.271708 
L 355.3488 73.986435 
L 355.43808 100.697932 
L 355.7952 64.521882 
L 355.88448 90.783588 
L 356.06304 72.574452 
L 356.33088 99.275497 
L 356.42016 71.578971 
L 356.59872 138.018958 
L 356.77728 68.197418 
L 356.86656 104.462717 
L 356.95584 77.473336 
L 357.04512 105.659958 
L 357.1344 65.673167 
L 357.22368 95.419089 
L 357.31296 88.901626 
L 357.40224 67.577673 
L 357.49152 77.214823 
L 357.5808 68.400057 
L 357.67008 82.555275 
L 357.75936 65.063498 
L 357.93792 92.966242 
L 358.0272 69.562815 
L 358.20576 116.799362 
L 358.29504 77.343018 
L 358.38432 112.336299 
L 358.4736 81.248501 
L 358.56288 81.62426 
L 358.65216 73.836392 
L 358.74144 76.367438 
L 358.92 120.013887 
L 359.00928 87.517148 
L 359.09856 92.424173 
L 359.18784 97.684582 
L 359.3664 75.714323 
L 359.54496 84.696157 
L 359.63424 65.503507 
L 359.72352 67.994227 
L 359.90208 82.309276 
L 359.99136 65.668068 
L 360.2592 82.961627 
L 360.34848 74.165933 
L 360.43776 82.732303 
L 360.52704 64.471634 
L 360.61632 84.712048 
L 360.7056 75.582845 
L 360.79488 77.013393 
L 360.97344 75.319884 
L 361.06272 79.277249 
L 361.152 66.811936 
L 361.33056 89.284355 
L 361.41984 98.302903 
L 361.5984 71.216317 
L 361.77696 94.988587 
L 361.95552 66.605066 
L 362.0448 80.472751 
L 362.13408 68.542278 
L 362.40192 96.146521 
L 362.4912 65.341225 
L 362.66976 82.709208 
L 362.84832 69.237232 
L 362.9376 84.266802 
L 363.11616 66.454034 
L 363.20544 68.979599 
L 363.384 96.936357 
L 363.56256 64.206197 
L 363.65184 76.121761 
L 363.8304 67.933593 
L 363.91968 92.163414 
L 364.00896 69.821134 
L 364.18752 111.777984 
L 364.2768 63.856122 
L 364.36608 103.320128 
L 364.45536 83.668519 
L 364.54464 113.967373 
L 364.63392 71.719671 
L 364.7232 76.18465 
L 364.81248 91.395762 
L 364.99104 71.174204 
L 365.1696 91.64065 
L 365.34816 67.830969 
L 365.43744 71.939428 
L 365.52672 96.390954 
L 365.616 70.87837 
L 365.79456 140.2341 
L 365.88384 72.62802 
L 365.97312 77.860027 
L 366.0624 113.206714 
L 366.15168 75.963052 
L 366.24096 82.321742 
L 366.41952 112.399629 
L 366.5088 107.887734 
L 366.59808 70.867027 
L 366.68736 73.461 
L 366.77664 73.835957 
L 366.86592 87.05556 
L 366.9552 73.471564 
L 367.04448 73.703694 
L 367.13376 84.040719 
L 367.22304 63.932289 
L 367.31232 77.818729 
L 367.4016 76.090645 
L 367.49088 72.21373 
L 367.58016 74.091472 
L 367.66944 66.672925 
L 367.75872 68.518921 
L 367.93728 117.114799 
L 368.02656 68.414524 
L 368.11584 69.483753 
L 368.20512 67.304947 
L 368.2944 73.688747 
L 368.38368 92.832128 
L 368.47296 69.668868 
L 368.56224 73.769382 
L 368.65152 66.352493 
L 368.7408 111.63151 
L 368.83008 71.094605 
L 368.91936 77.551886 
L 369.00864 92.854389 
L 369.09792 76.228365 
L 369.27648 83.604496 
L 369.36576 78.548791 
L 369.45504 91.178204 
L 369.54432 89.202975 
L 369.6336 77.558865 
L 369.72288 87.025992 
L 369.81216 109.170818 
L 369.99072 82.07246 
L 370.08 86.542961 
L 370.16928 68.970681 
L 370.25856 94.308954 
L 370.43712 76.508972 
L 370.5264 82.236003 
L 370.61568 69.179111 
L 370.70496 71.859773 
L 370.79424 72.146931 
L 370.88352 95.85158 
L 371.06208 77.34212 
L 371.15136 68.925249 
L 371.24064 84.8369 
L 371.32992 73.489648 
L 371.4192 111.088205 
L 371.50848 79.552761 
L 371.59776 94.011316 
L 371.68704 65.083717 
L 371.8656 77.638951 
L 371.95488 116.23113 
L 372.13344 76.171416 
L 372.22272 124.541382 
L 372.40128 73.773426 
L 372.49056 76.449406 
L 372.57984 75.759932 
L 372.84768 64.559251 
L 373.02624 78.331198 
L 373.11552 80.048519 
L 373.29408 65.591653 
L 373.47264 77.485169 
L 373.56192 67.036591 
L 373.6512 81.456518 
L 373.74048 75.562066 
L 373.82976 96.064016 
L 373.91904 78.021252 
L 374.00832 78.418767 
L 374.0976 65.776385 
L 374.18688 89.769396 
L 374.45472 66.019965 
L 374.63328 106.367725 
L 374.81184 66.81594 
L 374.9904 122.882412 
L 375.16896 70.967603 
L 375.25824 138.792597 
L 375.34752 88.546973 
L 375.4368 91.768228 
L 375.52608 76.925265 
L 375.61536 81.321807 
L 375.70464 67.641172 
L 375.79392 86.31276 
L 375.8832 77.67295 
L 375.97248 125.929493 
L 376.06176 67.520275 
L 376.15104 118.773117 
L 376.24032 106.433138 
L 376.3296 102.814326 
L 376.50816 111.930117 
L 376.68672 75.240417 
L 376.776 68.270883 
L 376.86528 120.724864 
L 377.04384 69.520394 
L 377.13312 82.949038 
L 377.2224 66.108271 
L 377.40096 79.327705 
L 377.49024 66.537631 
L 377.57952 95.594699 
L 377.6688 76.498796 
L 377.84736 97.916344 
L 378.02592 65.561669 
L 378.1152 80.141035 
L 378.20448 70.553207 
L 378.38304 76.886974 
L 378.47232 72.13792 
L 378.65088 83.877723 
L 378.74016 67.970202 
L 378.82944 91.827264 
L 378.91872 78.023719 
L 379.008 80.332543 
L 379.09728 86.240982 
L 379.18656 73.10233 
L 379.27584 101.645553 
L 379.54368 88.160465 
L 379.63296 92.477955 
L 379.81152 77.158006 
L 379.9008 89.404281 
L 379.99008 77.575923 
L 380.07936 95.009307 
L 380.16864 76.855527 
L 380.25792 79.474298 
L 380.3472 87.811218 
L 380.43648 74.144641 
L 380.52576 107.081357 
L 380.61504 90.86484 
L 380.7936 102.567637 
L 380.88288 69.797309 
L 380.97216 72.141326 
L 381.06144 85.253592 
L 381.15072 69.228503 
L 381.32928 86.138249 
L 381.41856 71.51017 
L 381.59712 87.348863 
L 381.77568 67.77107 
L 381.86496 96.104097 
L 382.04352 70.764571 
L 382.1328 96.598611 
L 382.22208 67.693142 
L 382.40064 93.857987 
L 382.48992 92.573611 
L 382.66848 78.341932 
L 382.75776 96.677321 
L 382.84704 66.842283 
L 382.93632 71.187038 
L 383.0256 73.170825 
L 383.11488 80.867135 
L 383.20416 72.598811 
L 383.56128 93.306892 
L 383.82912 73.891297 
L 383.9184 72.927859 
L 384.00768 150.815764 
L 384.18624 73.31211 
L 384.27552 122.364561 
L 384.45408 66.374342 
L 384.54336 71.999982 
L 384.63264 106.56178 
L 384.72192 79.770424 
L 384.8112 84.381434 
L 384.98976 64.2929 
L 385.16832 81.419067 
L 385.2576 67.624292 
L 385.34688 69.052712 
L 385.43616 116.513301 
L 385.52544 78.002842 
L 385.61472 81.185158 
L 385.79328 74.969831 
L 385.88256 97.198026 
L 385.97184 67.634301 
L 386.06112 70.159314 
L 386.23968 79.275201 
L 386.32896 122.986379 
L 386.41824 93.448593 
L 386.50752 125.066471 
L 386.5968 70.514456 
L 386.68608 94.055675 
L 386.95392 66.965744 
L 387.0432 97.201196 
L 387.13248 66.340292 
L 387.22176 85.180813 
L 387.40032 68.433383 
L 387.4896 94.2875 
L 387.66816 73.396001 
L 387.75744 128.140624 
L 387.84672 68.455515 
L 387.936 68.779698 
L 388.02528 87.635283 
L 388.11456 68.278294 
L 388.20384 86.427425 
L 388.3824 69.363609 
L 388.47168 93.317073 
L 388.56096 64.806007 
L 388.65024 91.223837 
L 388.73952 71.241686 
L 388.8288 115.275306 
L 388.91808 74.397788 
L 389.00736 95.939022 
L 389.18592 75.526947 
L 389.2752 113.380709 
L 389.36448 63.648 
L 389.45376 72.455871 
L 389.54304 66.913696 
L 389.63232 97.813552 
L 389.7216 67.65093 
L 389.81088 75.720638 
L 389.90016 121.009941 
L 390.07872 77.981514 
L 390.168 84.150203 
L 390.25728 71.241425 
L 390.34656 94.44575 
L 390.43584 88.157089 
L 390.6144 70.77198 
L 390.70368 93.707616 
L 390.79296 83.568649 
L 390.88224 92.600781 
L 390.97152 72.140945 
L 391.0608 103.214964 
L 391.15008 74.828583 
L 391.23936 77.384704 
L 391.41792 90.444536 
L 391.59648 69.531412 
L 391.68576 80.773197 
L 391.77504 75.434997 
L 391.86432 104.014432 
L 391.9536 99.819265 
L 392.04288 71.476705 
L 392.13216 79.017568 
L 392.22144 145.287549 
L 392.4 70.734684 
L 392.48928 72.081171 
L 392.57856 87.875074 
L 392.75712 65.267385 
L 392.8464 70.58499 
L 392.93568 64.62747 
L 393.02496 95.413508 
L 393.20352 66.239252 
L 393.2928 102.100327 
L 393.38208 74.942122 
L 393.47136 82.246601 
L 393.56064 103.594753 
L 393.64992 71.669073 
L 393.82848 122.900036 
L 394.00704 76.44129 
L 394.09632 81.613555 
L 394.1856 77.013315 
L 394.27488 63.843353 
L 394.36416 64.928596 
L 394.54272 77.053429 
L 394.632 76.703507 
L 394.72128 85.212679 
L 394.81056 76.309812 
L 394.89984 80.053963 
L 395.0784 109.862959 
L 395.16768 66.887742 
L 395.34624 85.304162 
L 395.5248 63.874929 
L 395.61408 85.361053 
L 395.70336 63.672129 
L 395.79264 102.109064 
L 395.88192 100.647014 
L 396.06048 72.086833 
L 396.14976 69.520055 
L 396.23904 81.917985 
L 396.32832 67.939226 
L 396.4176 87.286789 
L 396.50688 84.632605 
L 396.59616 67.556185 
L 396.68544 98.430431 
L 396.77472 68.003871 
L 396.864 78.802099 
L 397.04256 68.231175 
L 397.22112 88.188381 
L 397.3104 83.28839 
L 397.39968 85.298961 
L 397.48896 80.306667 
L 397.57824 98.217036 
L 397.7568 64.282356 
L 397.84608 84.876438 
L 398.02464 70.484187 
L 398.11392 75.494097 
L 398.2032 71.403317 
L 398.29248 92.362137 
L 398.38176 76.374986 
L 398.47104 79.712814 
L 398.56032 79.456207 
L 398.6496 79.997078 
L 398.73888 78.189396 
L 398.82816 83.377448 
L 399.00672 72.322905 
L 399.096 74.955161 
L 399.18528 73.263314 
L 399.27456 121.901858 
L 399.5424 67.749411 
L 399.72096 112.775012 
L 399.89952 65.602523 
L 399.9888 96.563266 
L 400.16736 73.28231 
L 400.25664 76.249852 
L 400.34592 68.476291 
L 400.4352 106.071482 
L 400.52448 100.182396 
L 400.61376 73.667313 
L 400.70304 79.991454 
L 400.79232 81.059389 
L 400.8816 79.88822 
L 401.14944 66.479521 
L 401.23872 92.862044 
L 401.41728 68.991269 
L 401.50656 74.678972 
L 401.59584 87.878469 
L 401.86368 72.752822 
L 402.13152 82.135674 
L 402.2208 69.54491 
L 402.39936 86.431606 
L 402.48864 78.84116 
L 402.6672 87.586679 
L 402.75648 86.778808 
L 402.84576 75.270894 
L 402.93504 85.696541 
L 403.1136 71.383761 
L 403.29216 88.784904 
L 403.38144 67.922157 
L 403.47072 71.078867 
L 403.56 64.405261 
L 403.73856 80.165631 
L 403.82784 78.69726 
L 403.91712 65.836186 
L 404.09568 73.354136 
L 404.18496 74.735974 
L 404.27424 120.224822 
L 404.36352 72.600808 
L 404.4528 72.608179 
L 404.54208 90.082706 
L 404.72064 73.10485 
L 404.80992 97.397356 
L 404.8992 90.31081 
L 404.98848 71.8619 
L 405.16704 87.468302 
L 405.25632 69.60328 
L 405.3456 90.063894 
L 405.52416 69.888218 
L 405.70272 97.141136 
L 405.792 78.239615 
L 405.88128 84.681256 
L 405.97056 74.239675 
L 406.05984 77.218622 
L 406.14912 74.747917 
L 406.2384 83.114359 
L 406.32768 64.316794 
L 406.41696 84.393848 
L 406.50624 71.960394 
L 406.86336 83.887633 
L 407.04192 73.130452 
L 407.22048 85.335804 
L 407.48832 65.025452 
L 407.66688 75.516779 
L 407.84544 63.827553 
L 407.93472 83.880371 
L 408.024 78.843275 
L 408.11328 129.699621 
L 408.29184 71.953349 
L 408.38112 102.66712 
L 408.4704 65.708229 
L 408.55968 71.289819 
L 408.73824 91.864757 
L 408.82752 70.103762 
L 408.9168 86.877908 
L 409.00608 81.995842 
L 409.09536 85.159675 
L 409.18464 102.805303 
L 409.27392 81.275989 
L 409.3632 88.268015 
L 409.45248 111.349582 
L 409.72032 74.604768 
L 409.8096 74.129448 
L 409.89888 70.463112 
L 410.16672 99.459499 
L 410.34528 79.875071 
L 410.43456 104.079382 
L 410.52384 65.503536 
L 410.61312 95.00127 
L 410.7024 80.317856 
L 410.79168 87.975726 
L 410.88096 72.898181 
L 411.1488 95.928131 
L 411.23808 68.181312 
L 411.50592 116.498224 
L 411.5952 77.530552 
L 411.68448 84.542129 
L 411.86304 119.996083 
L 411.95232 77.390939 
L 412.0416 82.255528 
L 412.22016 70.370339 
L 412.30944 181.925599 
L 412.488 72.341935 
L 412.57728 81.52964 
L 412.75584 71.420994 
L 412.84512 100.140234 
L 413.11296 68.351819 
L 413.20224 87.141924 
L 413.29152 67.987001 
L 413.3808 95.498934 
L 413.47008 72.846156 
L 413.55936 91.259351 
L 413.64864 66.718925 
L 413.73792 107.627006 
L 413.91648 74.252411 
L 414.00576 71.13881 
L 414.18432 83.44321 
L 414.2736 72.54077 
L 414.36288 94.825134 
L 414.45216 75.374692 
L 414.54144 118.988822 
L 414.63072 91.796087 
L 414.63072 91.796087 
" style="fill:none;stroke:#0000ff;stroke-linecap:square;stroke-width:1.5;"/>
   </g>
   <g id="patch_3">
    <path d="M 57.6 307.584 
L 57.6 41.472 
" style="fill:none;stroke:#000000;stroke-linecap:square;stroke-linejoin:miter;stroke-width:0.8;"/>
   </g>
   <g id="patch_4">
    <path d="M 414.72 307.584 
L 414.72 41.472 
" style="fill:none;stroke:#000000;stroke-linecap:square;stroke-linejoin:miter;stroke-width:0.8;"/>
   </g>
   <g id="patch_5">
    <path d="M 57.6 307.584 
L 414.72 307.584 
" style="fill:none;stroke:#000000;stroke-linecap:square;stroke-linejoin:miter;stroke-width:0.8;"/>
   </g>
   <g id="patch_6">
    <path d="M 57.6 41.472 
L 414.72 41.472 
" style="fill:none;stroke:#000000;stroke-linecap:square;stroke-linejoin:miter;stroke-width:0.8;"/>
   </g>
   <g id="legend_1">
    <g id="patch_7">
     <path d="M 202.8825 299.584 
L 403.52 299.584 
Q 406.72 299.584 406.72 296.384 
L 406.72 274.499 
Q 406.72 271.299 403.52 271.299 
L 202.8825 271.299 
Q 199.6825 271.299 199.6825 274.499 
L 199.6825 296.384 
Q 199.6825 299.584 202.8825 299.584 
z
" style="fill:#ffffff;opacity:0.8;stroke:#cccccc;stroke-linejoin:miter;"/>
    </g>
    <g id="line2d_22">
     <path d="M 206.0825 284.2565 
L 238.0825 284.2565 
" style="fill:none;stroke:#0000ff;stroke-linecap:square;stroke-width:1.5;"/>
    </g>
    <g id="line2d_23"/>
    <g id="text_13">
     <!-- cumulative reward -->
     <g transform="translate(250.8825 289.8565)scale(0.16 -0.16)">
      <defs>
       <path d="M 3122 3366 
L 3122 2828 
Q 2878 2963 2633 3030 
Q 2388 3097 2138 3097 
Q 1578 3097 1268 2742 
Q 959 2388 959 1747 
Q 959 1106 1268 751 
Q 1578 397 2138 397 
Q 2388 397 2633 464 
Q 2878 531 3122 666 
L 3122 134 
Q 2881 22 2623 -34 
Q 2366 -91 2075 -91 
Q 1284 -91 818 406 
Q 353 903 353 1747 
Q 353 2603 823 3093 
Q 1294 3584 2113 3584 
Q 2378 3584 2631 3529 
Q 2884 3475 3122 3366 
z
" id="DejaVuSans-63" transform="scale(0.015625)"/>
      </defs>
      <use xlink:href="#DejaVuSans-63"/>
      <use x="54.980469" xlink:href="#DejaVuSans-75"/>
      <use x="118.359375" xlink:href="#DejaVuSans-6d"/>
      <use x="215.771484" xlink:href="#DejaVuSans-75"/>
      <use x="279.150391" xlink:href="#DejaVuSans-6c"/>
      <use x="306.933594" xlink:href="#DejaVuSans-61"/>
      <use x="368.212891" xlink:href="#DejaVuSans-74"/>
      <use x="407.421875" xlink:href="#DejaVuSans-69"/>
      <use x="435.205078" xlink:href="#DejaVuSans-76"/>
      <use x="494.384766" xlink:href="#DejaVuSans-65"/>
      <use x="555.908203" xlink:href="#DejaVuSans-20"/>
      <use x="587.695312" xlink:href="#DejaVuSans-72"/>
      <use x="626.558594" xlink:href="#DejaVuSans-65"/>
      <use x="688.082031" xlink:href="#DejaVuSans-77"/>
      <use x="769.869141" xlink:href="#DejaVuSans-61"/>
      <use x="831.148438" xlink:href="#DejaVuSans-72"/>
      <use x="870.511719" xlink:href="#DejaVuSans-64"/>
     </g>
    </g>
   </g>
  </g>
 </g>
 <defs>
  <clipPath id="p892ffda4d6">
   <rect height="266.112" width="357.12" x="57.6" y="41.472"/>
  </clipPath>
 </defs>
</svg>
