<?xml version="1.0" encoding="utf-8" standalone="no"?>
<!DOCTYPE svg PUBLIC "-//W3C//DTD SVG 1.1//EN"
  "http://www.w3.org/Graphics/SVG/1.1/DTD/svg11.dtd">
<svg height="345.6pt" version="1.1" viewBox="0 0 460.8 345.6" width="460.8pt" xmlns="http://www.w3.org/2000/svg" xmlns:xlink="http://www.w3.org/1999/xlink">
 <metadata>
  <rdf:RDF xmlns:cc="http://creativecommons.org/ns#" xmlns:dc="http://purl.org/dc/elements/1.1/" xmlns:rdf="http://www.w3.org/1999/02/22-rdf-syntax-ns#">
   <cc:Work>
    <dc:type rdf:resource="http://purl.org/dc/dcmitype/StillImage"/>
    <dc:date>2021-10-19T18:13:41.772967</dc:date>
    <dc:description>{"agent.algorithm": "RayProximalPolicyOptimization", "agent.algorithm.render_env": false, "agent.algorithm.batch_mode": "complete_episodes", "agent.algorithm.train_batch_size": 200, "agent.algorithm.optimizer": "Adam", "agent.algorithm.vf_clip_param": 1000000.0, "agent.algorithm.model": {"fcnet_activation": "tanh", "fcnet_hiddens": [30, 30]}, "env.env_class": "SchedulerPolicyRayEnvironment", "env.env_config": {"solver_driver": "CMAdriver", "solver_driver_args": [10, 10, "bent cigar"], "maximize": false, "steps": 50, "state_metrics_names": ["DifferenceOfBest", "SolverState"], "state_metrics_config": [[40, false, 1, true, true], [{"step_size": {"max": 3, "min": 1e-10}}]], "reward_metric": "Best", "reward_metric_config": [false, false], "memes_no": 1, "parameter_tune_config": {"step_size": {"max": 3, "min": 1e-10}}}}</dc:description>
    <dc:format>image/svg+xml</dc:format>
    <dc:creator>
     <cc:Agent>
      <dc:title>Matplotlib v3.4.2, https://matplotlib.org/</dc:title>
     </cc:Agent>
    </dc:creator>
   </cc:Work>
  </rdf:RDF>
 </metadata>
 <defs>
  <style type="text/css">*{stroke-linecap:butt;stroke-linejoin:round;}</style>
 </defs>
 <g id="figure_1">
  <g id="patch_1">
   <path d="M 0 345.6 
L 460.8 345.6 
L 460.8 0 
L 0 0 
z
" style="fill:#ffffff;"/>
  </g>
  <g id="axes_1">
   <g id="patch_2">
    <path d="M 57.6 307.584 
L 414.72 307.584 
L 414.72 41.472 
L 57.6 41.472 
z
" style="fill:#ffffff;"/>
   </g>
   <g id="matplotlib.axis_1">
    <g id="xtick_1">
     <g id="line2d_1">
      <path clip-path="url(#p4fa0f86358)" d="M 57.6 307.584 
L 57.6 41.472 
" style="fill:none;stroke:#b0b0b0;stroke-linecap:square;stroke-width:0.8;"/>
     </g>
     <g id="line2d_2">
      <defs>
       <path d="M 0 0 
L 0 3.5 
" id="md2b27a102c" style="stroke:#000000;stroke-width:0.8;"/>
      </defs>
      <g>
       <use style="stroke:#000000;stroke-width:0.8;" x="57.6" xlink:href="#md2b27a102c" y="307.584"/>
      </g>
     </g>
     <g id="text_1">
      <!-- 0 -->
      <g transform="translate(54.41875 322.182437)scale(0.1 -0.1)">
       <defs>
        <path d="M 2034 4250 
Q 1547 4250 1301 3770 
Q 1056 3291 1056 2328 
Q 1056 1369 1301 889 
Q 1547 409 2034 409 
Q 2525 409 2770 889 
Q 3016 1369 3016 2328 
Q 3016 3291 2770 3770 
Q 2525 4250 2034 4250 
z
M 2034 4750 
Q 2819 4750 3233 4129 
Q 3647 3509 3647 2328 
Q 3647 1150 3233 529 
Q 2819 -91 2034 -91 
Q 1250 -91 836 529 
Q 422 1150 422 2328 
Q 422 3509 836 4129 
Q 1250 4750 2034 4750 
z
" id="DejaVuSans-30" transform="scale(0.015625)"/>
       </defs>
       <use xlink:href="#DejaVuSans-30"/>
      </g>
     </g>
    </g>
    <g id="xtick_2">
     <g id="line2d_3">
      <path clip-path="url(#p4fa0f86358)" d="M 102.24 307.584 
L 102.24 41.472 
" style="fill:none;stroke:#b0b0b0;stroke-linecap:square;stroke-width:0.8;"/>
     </g>
     <g id="line2d_4">
      <g>
       <use style="stroke:#000000;stroke-width:0.8;" x="102.24" xlink:href="#md2b27a102c" y="307.584"/>
      </g>
     </g>
     <g id="text_2">
      <!-- 250 -->
      <g transform="translate(92.69625 322.182437)scale(0.1 -0.1)">
       <defs>
        <path d="M 1228 531 
L 3431 531 
L 3431 0 
L 469 0 
L 469 531 
Q 828 903 1448 1529 
Q 2069 2156 2228 2338 
Q 2531 2678 2651 2914 
Q 2772 3150 2772 3378 
Q 2772 3750 2511 3984 
Q 2250 4219 1831 4219 
Q 1534 4219 1204 4116 
Q 875 4013 500 3803 
L 500 4441 
Q 881 4594 1212 4672 
Q 1544 4750 1819 4750 
Q 2544 4750 2975 4387 
Q 3406 4025 3406 3419 
Q 3406 3131 3298 2873 
Q 3191 2616 2906 2266 
Q 2828 2175 2409 1742 
Q 1991 1309 1228 531 
z
" id="DejaVuSans-32" transform="scale(0.015625)"/>
        <path d="M 691 4666 
L 3169 4666 
L 3169 4134 
L 1269 4134 
L 1269 2991 
Q 1406 3038 1543 3061 
Q 1681 3084 1819 3084 
Q 2600 3084 3056 2656 
Q 3513 2228 3513 1497 
Q 3513 744 3044 326 
Q 2575 -91 1722 -91 
Q 1428 -91 1123 -41 
Q 819 9 494 109 
L 494 744 
Q 775 591 1075 516 
Q 1375 441 1709 441 
Q 2250 441 2565 725 
Q 2881 1009 2881 1497 
Q 2881 1984 2565 2268 
Q 2250 2553 1709 2553 
Q 1456 2553 1204 2497 
Q 953 2441 691 2322 
L 691 4666 
z
" id="DejaVuSans-35" transform="scale(0.015625)"/>
       </defs>
       <use xlink:href="#DejaVuSans-32"/>
       <use x="63.623047" xlink:href="#DejaVuSans-35"/>
       <use x="127.246094" xlink:href="#DejaVuSans-30"/>
      </g>
     </g>
    </g>
    <g id="xtick_3">
     <g id="line2d_5">
      <path clip-path="url(#p4fa0f86358)" d="M 146.88 307.584 
L 146.88 41.472 
" style="fill:none;stroke:#b0b0b0;stroke-linecap:square;stroke-width:0.8;"/>
     </g>
     <g id="line2d_6">
      <g>
       <use style="stroke:#000000;stroke-width:0.8;" x="146.88" xlink:href="#md2b27a102c" y="307.584"/>
      </g>
     </g>
     <g id="text_3">
      <!-- 500 -->
      <g transform="translate(137.33625 322.182437)scale(0.1 -0.1)">
       <use xlink:href="#DejaVuSans-35"/>
       <use x="63.623047" xlink:href="#DejaVuSans-30"/>
       <use x="127.246094" xlink:href="#DejaVuSans-30"/>
      </g>
     </g>
    </g>
    <g id="xtick_4">
     <g id="line2d_7">
      <path clip-path="url(#p4fa0f86358)" d="M 191.52 307.584 
L 191.52 41.472 
" style="fill:none;stroke:#b0b0b0;stroke-linecap:square;stroke-width:0.8;"/>
     </g>
     <g id="line2d_8">
      <g>
       <use style="stroke:#000000;stroke-width:0.8;" x="191.52" xlink:href="#md2b27a102c" y="307.584"/>
      </g>
     </g>
     <g id="text_4">
      <!-- 750 -->
      <g transform="translate(181.97625 322.182437)scale(0.1 -0.1)">
       <defs>
        <path d="M 525 4666 
L 3525 4666 
L 3525 4397 
L 1831 0 
L 1172 0 
L 2766 4134 
L 525 4134 
L 525 4666 
z
" id="DejaVuSans-37" transform="scale(0.015625)"/>
       </defs>
       <use xlink:href="#DejaVuSans-37"/>
       <use x="63.623047" xlink:href="#DejaVuSans-35"/>
       <use x="127.246094" xlink:href="#DejaVuSans-30"/>
      </g>
     </g>
    </g>
    <g id="xtick_5">
     <g id="line2d_9">
      <path clip-path="url(#p4fa0f86358)" d="M 236.16 307.584 
L 236.16 41.472 
" style="fill:none;stroke:#b0b0b0;stroke-linecap:square;stroke-width:0.8;"/>
     </g>
     <g id="line2d_10">
      <g>
       <use style="stroke:#000000;stroke-width:0.8;" x="236.16" xlink:href="#md2b27a102c" y="307.584"/>
      </g>
     </g>
     <g id="text_5">
      <!-- 1000 -->
      <g transform="translate(223.435 322.182437)scale(0.1 -0.1)">
       <defs>
        <path d="M 794 531 
L 1825 531 
L 1825 4091 
L 703 3866 
L 703 4441 
L 1819 4666 
L 2450 4666 
L 2450 531 
L 3481 531 
L 3481 0 
L 794 0 
L 794 531 
z
" id="DejaVuSans-31" transform="scale(0.015625)"/>
       </defs>
       <use xlink:href="#DejaVuSans-31"/>
       <use x="63.623047" xlink:href="#DejaVuSans-30"/>
       <use x="127.246094" xlink:href="#DejaVuSans-30"/>
       <use x="190.869141" xlink:href="#DejaVuSans-30"/>
      </g>
     </g>
    </g>
    <g id="xtick_6">
     <g id="line2d_11">
      <path clip-path="url(#p4fa0f86358)" d="M 280.8 307.584 
L 280.8 41.472 
" style="fill:none;stroke:#b0b0b0;stroke-linecap:square;stroke-width:0.8;"/>
     </g>
     <g id="line2d_12">
      <g>
       <use style="stroke:#000000;stroke-width:0.8;" x="280.8" xlink:href="#md2b27a102c" y="307.584"/>
      </g>
     </g>
     <g id="text_6">
      <!-- 1250 -->
      <g transform="translate(268.075 322.182437)scale(0.1 -0.1)">
       <use xlink:href="#DejaVuSans-31"/>
       <use x="63.623047" xlink:href="#DejaVuSans-32"/>
       <use x="127.246094" xlink:href="#DejaVuSans-35"/>
       <use x="190.869141" xlink:href="#DejaVuSans-30"/>
      </g>
     </g>
    </g>
    <g id="xtick_7">
     <g id="line2d_13">
      <path clip-path="url(#p4fa0f86358)" d="M 325.44 307.584 
L 325.44 41.472 
" style="fill:none;stroke:#b0b0b0;stroke-linecap:square;stroke-width:0.8;"/>
     </g>
     <g id="line2d_14">
      <g>
       <use style="stroke:#000000;stroke-width:0.8;" x="325.44" xlink:href="#md2b27a102c" y="307.584"/>
      </g>
     </g>
     <g id="text_7">
      <!-- 1500 -->
      <g transform="translate(312.715 322.182437)scale(0.1 -0.1)">
       <use xlink:href="#DejaVuSans-31"/>
       <use x="63.623047" xlink:href="#DejaVuSans-35"/>
       <use x="127.246094" xlink:href="#DejaVuSans-30"/>
       <use x="190.869141" xlink:href="#DejaVuSans-30"/>
      </g>
     </g>
    </g>
    <g id="xtick_8">
     <g id="line2d_15">
      <path clip-path="url(#p4fa0f86358)" d="M 370.08 307.584 
L 370.08 41.472 
" style="fill:none;stroke:#b0b0b0;stroke-linecap:square;stroke-width:0.8;"/>
     </g>
     <g id="line2d_16">
      <g>
       <use style="stroke:#000000;stroke-width:0.8;" x="370.08" xlink:href="#md2b27a102c" y="307.584"/>
      </g>
     </g>
     <g id="text_8">
      <!-- 1750 -->
      <g transform="translate(357.355 322.182437)scale(0.1 -0.1)">
       <use xlink:href="#DejaVuSans-31"/>
       <use x="63.623047" xlink:href="#DejaVuSans-37"/>
       <use x="127.246094" xlink:href="#DejaVuSans-35"/>
       <use x="190.869141" xlink:href="#DejaVuSans-30"/>
      </g>
     </g>
    </g>
    <g id="xtick_9">
     <g id="line2d_17">
      <path clip-path="url(#p4fa0f86358)" d="M 414.72 307.584 
L 414.72 41.472 
" style="fill:none;stroke:#b0b0b0;stroke-linecap:square;stroke-width:0.8;"/>
     </g>
     <g id="line2d_18">
      <g>
       <use style="stroke:#000000;stroke-width:0.8;" x="414.72" xlink:href="#md2b27a102c" y="307.584"/>
      </g>
     </g>
     <g id="text_9">
      <!-- 2000 -->
      <g transform="translate(401.995 322.182437)scale(0.1 -0.1)">
       <use xlink:href="#DejaVuSans-32"/>
       <use x="63.623047" xlink:href="#DejaVuSans-30"/>
       <use x="127.246094" xlink:href="#DejaVuSans-30"/>
       <use x="190.869141" xlink:href="#DejaVuSans-30"/>
      </g>
     </g>
    </g>
    <g id="text_10">
     <!-- Episodes -->
     <g transform="translate(213.917812 335.860562)scale(0.1 -0.1)">
      <defs>
       <path d="M 628 4666 
L 3578 4666 
L 3578 4134 
L 1259 4134 
L 1259 2753 
L 3481 2753 
L 3481 2222 
L 1259 2222 
L 1259 531 
L 3634 531 
L 3634 0 
L 628 0 
L 628 4666 
z
" id="DejaVuSans-45" transform="scale(0.015625)"/>
       <path d="M 1159 525 
L 1159 -1331 
L 581 -1331 
L 581 3500 
L 1159 3500 
L 1159 2969 
Q 1341 3281 1617 3432 
Q 1894 3584 2278 3584 
Q 2916 3584 3314 3078 
Q 3713 2572 3713 1747 
Q 3713 922 3314 415 
Q 2916 -91 2278 -91 
Q 1894 -91 1617 61 
Q 1341 213 1159 525 
z
M 3116 1747 
Q 3116 2381 2855 2742 
Q 2594 3103 2138 3103 
Q 1681 3103 1420 2742 
Q 1159 2381 1159 1747 
Q 1159 1113 1420 752 
Q 1681 391 2138 391 
Q 2594 391 2855 752 
Q 3116 1113 3116 1747 
z
" id="DejaVuSans-70" transform="scale(0.015625)"/>
       <path d="M 603 3500 
L 1178 3500 
L 1178 0 
L 603 0 
L 603 3500 
z
M 603 4863 
L 1178 4863 
L 1178 4134 
L 603 4134 
L 603 4863 
z
" id="DejaVuSans-69" transform="scale(0.015625)"/>
       <path d="M 2834 3397 
L 2834 2853 
Q 2591 2978 2328 3040 
Q 2066 3103 1784 3103 
Q 1356 3103 1142 2972 
Q 928 2841 928 2578 
Q 928 2378 1081 2264 
Q 1234 2150 1697 2047 
L 1894 2003 
Q 2506 1872 2764 1633 
Q 3022 1394 3022 966 
Q 3022 478 2636 193 
Q 2250 -91 1575 -91 
Q 1294 -91 989 -36 
Q 684 19 347 128 
L 347 722 
Q 666 556 975 473 
Q 1284 391 1588 391 
Q 1994 391 2212 530 
Q 2431 669 2431 922 
Q 2431 1156 2273 1281 
Q 2116 1406 1581 1522 
L 1381 1569 
Q 847 1681 609 1914 
Q 372 2147 372 2553 
Q 372 3047 722 3315 
Q 1072 3584 1716 3584 
Q 2034 3584 2315 3537 
Q 2597 3491 2834 3397 
z
" id="DejaVuSans-73" transform="scale(0.015625)"/>
       <path d="M 1959 3097 
Q 1497 3097 1228 2736 
Q 959 2375 959 1747 
Q 959 1119 1226 758 
Q 1494 397 1959 397 
Q 2419 397 2687 759 
Q 2956 1122 2956 1747 
Q 2956 2369 2687 2733 
Q 2419 3097 1959 3097 
z
M 1959 3584 
Q 2709 3584 3137 3096 
Q 3566 2609 3566 1747 
Q 3566 888 3137 398 
Q 2709 -91 1959 -91 
Q 1206 -91 779 398 
Q 353 888 353 1747 
Q 353 2609 779 3096 
Q 1206 3584 1959 3584 
z
" id="DejaVuSans-6f" transform="scale(0.015625)"/>
       <path d="M 2906 2969 
L 2906 4863 
L 3481 4863 
L 3481 0 
L 2906 0 
L 2906 525 
Q 2725 213 2448 61 
Q 2172 -91 1784 -91 
Q 1150 -91 751 415 
Q 353 922 353 1747 
Q 353 2572 751 3078 
Q 1150 3584 1784 3584 
Q 2172 3584 2448 3432 
Q 2725 3281 2906 2969 
z
M 947 1747 
Q 947 1113 1208 752 
Q 1469 391 1925 391 
Q 2381 391 2643 752 
Q 2906 1113 2906 1747 
Q 2906 2381 2643 2742 
Q 2381 3103 1925 3103 
Q 1469 3103 1208 2742 
Q 947 2381 947 1747 
z
" id="DejaVuSans-64" transform="scale(0.015625)"/>
       <path d="M 3597 1894 
L 3597 1613 
L 953 1613 
Q 991 1019 1311 708 
Q 1631 397 2203 397 
Q 2534 397 2845 478 
Q 3156 559 3463 722 
L 3463 178 
Q 3153 47 2828 -22 
Q 2503 -91 2169 -91 
Q 1331 -91 842 396 
Q 353 884 353 1716 
Q 353 2575 817 3079 
Q 1281 3584 2069 3584 
Q 2775 3584 3186 3129 
Q 3597 2675 3597 1894 
z
M 3022 2063 
Q 3016 2534 2758 2815 
Q 2500 3097 2075 3097 
Q 1594 3097 1305 2825 
Q 1016 2553 972 2059 
L 3022 2063 
z
" id="DejaVuSans-65" transform="scale(0.015625)"/>
      </defs>
      <use xlink:href="#DejaVuSans-45"/>
      <use x="63.183594" xlink:href="#DejaVuSans-70"/>
      <use x="126.660156" xlink:href="#DejaVuSans-69"/>
      <use x="154.443359" xlink:href="#DejaVuSans-73"/>
      <use x="206.542969" xlink:href="#DejaVuSans-6f"/>
      <use x="267.724609" xlink:href="#DejaVuSans-64"/>
      <use x="331.201172" xlink:href="#DejaVuSans-65"/>
      <use x="392.724609" xlink:href="#DejaVuSans-73"/>
     </g>
    </g>
   </g>
   <g id="matplotlib.axis_2">
    <g id="ytick_1">
     <g id="line2d_19">
      <path clip-path="url(#p4fa0f86358)" d="M 57.6 288.896519 
L 414.72 288.896519 
" style="fill:none;stroke:#b0b0b0;stroke-linecap:square;stroke-width:0.8;"/>
     </g>
     <g id="line2d_20">
      <defs>
       <path d="M 0 0 
L -3.5 0 
" id="m3dee8f4e6b" style="stroke:#000000;stroke-width:0.8;"/>
      </defs>
      <g>
       <use style="stroke:#000000;stroke-width:0.8;" x="57.6" xlink:href="#m3dee8f4e6b" y="288.896519"/>
      </g>
     </g>
     <g id="text_11">
      <!-- −4 -->
      <g transform="translate(35.857813 292.695738)scale(0.1 -0.1)">
       <defs>
        <path d="M 678 2272 
L 4684 2272 
L 4684 1741 
L 678 1741 
L 678 2272 
z
" id="DejaVuSans-2212" transform="scale(0.015625)"/>
        <path d="M 2419 4116 
L 825 1625 
L 2419 1625 
L 2419 4116 
z
M 2253 4666 
L 3047 4666 
L 3047 1625 
L 3713 1625 
L 3713 1100 
L 3047 1100 
L 3047 0 
L 2419 0 
L 2419 1100 
L 313 1100 
L 313 1709 
L 2253 4666 
z
" id="DejaVuSans-34" transform="scale(0.015625)"/>
       </defs>
       <use xlink:href="#DejaVuSans-2212"/>
       <use x="83.789062" xlink:href="#DejaVuSans-34"/>
      </g>
     </g>
    </g>
    <g id="ytick_2">
     <g id="line2d_21">
      <path clip-path="url(#p4fa0f86358)" d="M 57.6 232.401067 
L 414.72 232.401067 
" style="fill:none;stroke:#b0b0b0;stroke-linecap:square;stroke-width:0.8;"/>
     </g>
     <g id="line2d_22">
      <g>
       <use style="stroke:#000000;stroke-width:0.8;" x="57.6" xlink:href="#m3dee8f4e6b" y="232.401067"/>
      </g>
     </g>
     <g id="text_12">
      <!-- −3 -->
      <g transform="translate(35.857813 236.200286)scale(0.1 -0.1)">
       <defs>
        <path d="M 2597 2516 
Q 3050 2419 3304 2112 
Q 3559 1806 3559 1356 
Q 3559 666 3084 287 
Q 2609 -91 1734 -91 
Q 1441 -91 1130 -33 
Q 819 25 488 141 
L 488 750 
Q 750 597 1062 519 
Q 1375 441 1716 441 
Q 2309 441 2620 675 
Q 2931 909 2931 1356 
Q 2931 1769 2642 2001 
Q 2353 2234 1838 2234 
L 1294 2234 
L 1294 2753 
L 1863 2753 
Q 2328 2753 2575 2939 
Q 2822 3125 2822 3475 
Q 2822 3834 2567 4026 
Q 2313 4219 1838 4219 
Q 1578 4219 1281 4162 
Q 984 4106 628 3988 
L 628 4550 
Q 988 4650 1302 4700 
Q 1616 4750 1894 4750 
Q 2613 4750 3031 4423 
Q 3450 4097 3450 3541 
Q 3450 3153 3228 2886 
Q 3006 2619 2597 2516 
z
" id="DejaVuSans-33" transform="scale(0.015625)"/>
       </defs>
       <use xlink:href="#DejaVuSans-2212"/>
       <use x="83.789062" xlink:href="#DejaVuSans-33"/>
      </g>
     </g>
    </g>
    <g id="ytick_3">
     <g id="line2d_23">
      <path clip-path="url(#p4fa0f86358)" d="M 57.6 175.905615 
L 414.72 175.905615 
" style="fill:none;stroke:#b0b0b0;stroke-linecap:square;stroke-width:0.8;"/>
     </g>
     <g id="line2d_24">
      <g>
       <use style="stroke:#000000;stroke-width:0.8;" x="57.6" xlink:href="#m3dee8f4e6b" y="175.905615"/>
      </g>
     </g>
     <g id="text_13">
      <!-- −2 -->
      <g transform="translate(35.857813 179.704833)scale(0.1 -0.1)">
       <use xlink:href="#DejaVuSans-2212"/>
       <use x="83.789062" xlink:href="#DejaVuSans-32"/>
      </g>
     </g>
    </g>
    <g id="ytick_4">
     <g id="line2d_25">
      <path clip-path="url(#p4fa0f86358)" d="M 57.6 119.410162 
L 414.72 119.410162 
" style="fill:none;stroke:#b0b0b0;stroke-linecap:square;stroke-width:0.8;"/>
     </g>
     <g id="line2d_26">
      <g>
       <use style="stroke:#000000;stroke-width:0.8;" x="57.6" xlink:href="#m3dee8f4e6b" y="119.410162"/>
      </g>
     </g>
     <g id="text_14">
      <!-- −1 -->
      <g transform="translate(35.857813 123.209381)scale(0.1 -0.1)">
       <use xlink:href="#DejaVuSans-2212"/>
       <use x="83.789062" xlink:href="#DejaVuSans-31"/>
      </g>
     </g>
    </g>
    <g id="ytick_5">
     <g id="line2d_27">
      <path clip-path="url(#p4fa0f86358)" d="M 57.6 62.91471 
L 414.72 62.91471 
" style="fill:none;stroke:#b0b0b0;stroke-linecap:square;stroke-width:0.8;"/>
     </g>
     <g id="line2d_28">
      <g>
       <use style="stroke:#000000;stroke-width:0.8;" x="57.6" xlink:href="#m3dee8f4e6b" y="62.91471"/>
      </g>
     </g>
     <g id="text_15">
      <!-- 0 -->
      <g transform="translate(44.2375 66.713929)scale(0.1 -0.1)">
       <use xlink:href="#DejaVuSans-30"/>
      </g>
     </g>
    </g>
    <g id="text_16">
     <!-- Cumulative Reward -->
     <g transform="translate(29.778125 223.275656)rotate(-90)scale(0.1 -0.1)">
      <defs>
       <path d="M 4122 4306 
L 4122 3641 
Q 3803 3938 3442 4084 
Q 3081 4231 2675 4231 
Q 1875 4231 1450 3742 
Q 1025 3253 1025 2328 
Q 1025 1406 1450 917 
Q 1875 428 2675 428 
Q 3081 428 3442 575 
Q 3803 722 4122 1019 
L 4122 359 
Q 3791 134 3420 21 
Q 3050 -91 2638 -91 
Q 1578 -91 968 557 
Q 359 1206 359 2328 
Q 359 3453 968 4101 
Q 1578 4750 2638 4750 
Q 3056 4750 3426 4639 
Q 3797 4528 4122 4306 
z
" id="DejaVuSans-43" transform="scale(0.015625)"/>
       <path d="M 544 1381 
L 544 3500 
L 1119 3500 
L 1119 1403 
Q 1119 906 1312 657 
Q 1506 409 1894 409 
Q 2359 409 2629 706 
Q 2900 1003 2900 1516 
L 2900 3500 
L 3475 3500 
L 3475 0 
L 2900 0 
L 2900 538 
Q 2691 219 2414 64 
Q 2138 -91 1772 -91 
Q 1169 -91 856 284 
Q 544 659 544 1381 
z
M 1991 3584 
L 1991 3584 
z
" id="DejaVuSans-75" transform="scale(0.015625)"/>
       <path d="M 3328 2828 
Q 3544 3216 3844 3400 
Q 4144 3584 4550 3584 
Q 5097 3584 5394 3201 
Q 5691 2819 5691 2113 
L 5691 0 
L 5113 0 
L 5113 2094 
Q 5113 2597 4934 2840 
Q 4756 3084 4391 3084 
Q 3944 3084 3684 2787 
Q 3425 2491 3425 1978 
L 3425 0 
L 2847 0 
L 2847 2094 
Q 2847 2600 2669 2842 
Q 2491 3084 2119 3084 
Q 1678 3084 1418 2786 
Q 1159 2488 1159 1978 
L 1159 0 
L 581 0 
L 581 3500 
L 1159 3500 
L 1159 2956 
Q 1356 3278 1631 3431 
Q 1906 3584 2284 3584 
Q 2666 3584 2933 3390 
Q 3200 3197 3328 2828 
z
" id="DejaVuSans-6d" transform="scale(0.015625)"/>
       <path d="M 603 4863 
L 1178 4863 
L 1178 0 
L 603 0 
L 603 4863 
z
" id="DejaVuSans-6c" transform="scale(0.015625)"/>
       <path d="M 2194 1759 
Q 1497 1759 1228 1600 
Q 959 1441 959 1056 
Q 959 750 1161 570 
Q 1363 391 1709 391 
Q 2188 391 2477 730 
Q 2766 1069 2766 1631 
L 2766 1759 
L 2194 1759 
z
M 3341 1997 
L 3341 0 
L 2766 0 
L 2766 531 
Q 2569 213 2275 61 
Q 1981 -91 1556 -91 
Q 1019 -91 701 211 
Q 384 513 384 1019 
Q 384 1609 779 1909 
Q 1175 2209 1959 2209 
L 2766 2209 
L 2766 2266 
Q 2766 2663 2505 2880 
Q 2244 3097 1772 3097 
Q 1472 3097 1187 3025 
Q 903 2953 641 2809 
L 641 3341 
Q 956 3463 1253 3523 
Q 1550 3584 1831 3584 
Q 2591 3584 2966 3190 
Q 3341 2797 3341 1997 
z
" id="DejaVuSans-61" transform="scale(0.015625)"/>
       <path d="M 1172 4494 
L 1172 3500 
L 2356 3500 
L 2356 3053 
L 1172 3053 
L 1172 1153 
Q 1172 725 1289 603 
Q 1406 481 1766 481 
L 2356 481 
L 2356 0 
L 1766 0 
Q 1100 0 847 248 
Q 594 497 594 1153 
L 594 3053 
L 172 3053 
L 172 3500 
L 594 3500 
L 594 4494 
L 1172 4494 
z
" id="DejaVuSans-74" transform="scale(0.015625)"/>
       <path d="M 191 3500 
L 800 3500 
L 1894 563 
L 2988 3500 
L 3597 3500 
L 2284 0 
L 1503 0 
L 191 3500 
z
" id="DejaVuSans-76" transform="scale(0.015625)"/>
       <path id="DejaVuSans-20" transform="scale(0.015625)"/>
       <path d="M 2841 2188 
Q 3044 2119 3236 1894 
Q 3428 1669 3622 1275 
L 4263 0 
L 3584 0 
L 2988 1197 
Q 2756 1666 2539 1819 
Q 2322 1972 1947 1972 
L 1259 1972 
L 1259 0 
L 628 0 
L 628 4666 
L 2053 4666 
Q 2853 4666 3247 4331 
Q 3641 3997 3641 3322 
Q 3641 2881 3436 2590 
Q 3231 2300 2841 2188 
z
M 1259 4147 
L 1259 2491 
L 2053 2491 
Q 2509 2491 2742 2702 
Q 2975 2913 2975 3322 
Q 2975 3731 2742 3939 
Q 2509 4147 2053 4147 
L 1259 4147 
z
" id="DejaVuSans-52" transform="scale(0.015625)"/>
       <path d="M 269 3500 
L 844 3500 
L 1563 769 
L 2278 3500 
L 2956 3500 
L 3675 769 
L 4391 3500 
L 4966 3500 
L 4050 0 
L 3372 0 
L 2619 2869 
L 1863 0 
L 1184 0 
L 269 3500 
z
" id="DejaVuSans-77" transform="scale(0.015625)"/>
       <path d="M 2631 2963 
Q 2534 3019 2420 3045 
Q 2306 3072 2169 3072 
Q 1681 3072 1420 2755 
Q 1159 2438 1159 1844 
L 1159 0 
L 581 0 
L 581 3500 
L 1159 3500 
L 1159 2956 
Q 1341 3275 1631 3429 
Q 1922 3584 2338 3584 
Q 2397 3584 2469 3576 
Q 2541 3569 2628 3553 
L 2631 2963 
z
" id="DejaVuSans-72" transform="scale(0.015625)"/>
      </defs>
      <use xlink:href="#DejaVuSans-43"/>
      <use x="69.824219" xlink:href="#DejaVuSans-75"/>
      <use x="133.203125" xlink:href="#DejaVuSans-6d"/>
      <use x="230.615234" xlink:href="#DejaVuSans-75"/>
      <use x="293.994141" xlink:href="#DejaVuSans-6c"/>
      <use x="321.777344" xlink:href="#DejaVuSans-61"/>
      <use x="383.056641" xlink:href="#DejaVuSans-74"/>
      <use x="422.265625" xlink:href="#DejaVuSans-69"/>
      <use x="450.048828" xlink:href="#DejaVuSans-76"/>
      <use x="509.228516" xlink:href="#DejaVuSans-65"/>
      <use x="570.751953" xlink:href="#DejaVuSans-20"/>
      <use x="602.539062" xlink:href="#DejaVuSans-52"/>
      <use x="667.521484" xlink:href="#DejaVuSans-65"/>
      <use x="729.044922" xlink:href="#DejaVuSans-77"/>
      <use x="810.832031" xlink:href="#DejaVuSans-61"/>
      <use x="872.111328" xlink:href="#DejaVuSans-72"/>
      <use x="911.474609" xlink:href="#DejaVuSans-64"/>
     </g>
    </g>
    <g id="text_17">
     <!-- 1e10 -->
     <g transform="translate(57.6 38.472)scale(0.1 -0.1)">
      <use xlink:href="#DejaVuSans-31"/>
      <use x="63.623047" xlink:href="#DejaVuSans-65"/>
      <use x="125.146484" xlink:href="#DejaVuSans-31"/>
      <use x="188.769531" xlink:href="#DejaVuSans-30"/>
     </g>
    </g>
   </g>
   <g id="line2d_29">
    <path clip-path="url(#p4fa0f86358)" d="M 57.6 70.228919 
L 57.77856 68.580941 
L 57.95712 68.778809 
L 58.13568 72.016444 
L 58.4928 68.580941 
L 58.67136 68.778809 
L 58.84992 72.016444 
L 59.20704 68.580941 
L 59.3856 68.778809 
L 59.56416 72.016444 
L 59.92128 68.580941 
L 60.09984 68.778809 
L 60.2784 72.016444 
L 60.63552 68.580941 
L 60.81408 68.778809 
L 60.99264 72.016444 
L 61.34976 68.580941 
L 61.52832 68.778809 
L 61.70688 72.016444 
L 62.064 68.580941 
L 62.24256 68.778809 
L 62.42112 72.016444 
L 62.77824 68.580941 
L 62.9568 68.778809 
L 63.13536 72.016444 
L 63.49248 68.580941 
L 63.67104 68.778809 
L 63.8496 72.016444 
L 64.20672 68.580941 
L 64.38528 68.778809 
L 64.56384 72.016444 
L 64.92096 68.580941 
L 65.09952 68.778809 
L 65.27808 72.016444 
L 65.6352 68.580941 
L 65.81376 68.778809 
L 65.99232 72.016444 
L 66.34944 68.580941 
L 66.528 68.778809 
L 66.70656 72.016444 
L 67.06368 68.580941 
L 67.24224 68.778809 
L 67.4208 72.016444 
L 67.77792 68.580941 
L 67.95648 68.778809 
L 68.13504 72.016444 
L 68.49216 68.580941 
L 68.67072 68.778809 
L 68.84928 72.016444 
L 69.2064 68.580941 
L 69.38496 68.778809 
L 69.56352 72.016444 
L 69.92064 68.580941 
L 70.0992 68.778809 
L 70.27776 72.016444 
L 70.63488 68.580941 
L 70.81344 68.778809 
L 70.992 72.016444 
L 71.34912 68.580941 
L 71.52768 68.778809 
L 71.70624 72.016444 
L 72.06336 68.580941 
L 72.24192 68.778809 
L 72.42048 72.016444 
L 72.7776 68.580941 
L 72.95616 68.778809 
L 73.13472 72.016444 
L 73.49184 68.580941 
L 73.6704 68.778809 
L 73.84896 72.016444 
L 74.20608 68.580941 
L 74.38464 68.778809 
L 74.5632 72.016444 
L 74.92032 68.580941 
L 75.09888 68.778809 
L 75.27744 72.016444 
L 75.456 69.088833 
L 75.63456 68.088816 
L 75.81312 72.972517 
L 75.99168 68.93007 
L 76.17024 69.844022 
L 76.3488 69.959476 
L 76.52736 71.444628 
L 76.88448 66.832902 
L 77.06304 73.983796 
L 77.2416 68.119304 
L 77.42016 77.407404 
L 77.59872 72.883607 
L 77.77728 71.487124 
L 77.95584 71.420047 
L 78.1344 72.501116 
L 78.31296 72.488246 
L 78.49152 90.711924 
L 78.67008 68.310553 
L 78.84864 82.791506 
L 79.0272 69.111046 
L 79.20576 71.572719 
L 79.38432 68.951304 
L 79.56288 70.641733 
L 79.74144 68.212354 
L 79.92 75.271468 
L 80.09856 69.932665 
L 80.27712 130.910108 
L 80.45568 69.597337 
L 80.63424 76.479748 
L 80.8128 77.124143 
L 80.99136 69.433158 
L 81.16992 78.476197 
L 81.34848 70.908929 
L 81.52704 74.383773 
L 81.7056 70.510131 
L 81.88416 77.280445 
L 82.24128 72.163553 
L 82.41984 75.957405 
L 82.77696 70.640925 
L 82.95552 73.325647 
L 83.13408 70.863876 
L 83.31264 83.669327 
L 83.4912 68.560052 
L 83.66976 83.898037 
L 83.84832 69.590791 
L 84.02688 69.179602 
L 84.20544 69.488102 
L 84.384 70.839119 
L 84.56256 78.662676 
L 84.91968 69.582971 
L 85.09824 71.64229 
L 85.2768 68.441374 
L 85.63392 72.441548 
L 85.81248 67.704408 
L 85.99104 74.139387 
L 86.1696 71.077482 
L 86.34816 71.141411 
L 86.52672 68.320023 
L 86.70528 73.196359 
L 86.88384 71.541439 
L 87.0624 70.932551 
L 87.24096 68.87245 
L 87.41952 69.858843 
L 87.59808 74.006839 
L 87.77664 70.329526 
L 87.9552 70.538084 
L 88.13376 71.45686 
L 88.31232 106.016394 
L 88.49088 74.014125 
L 88.66944 77.872449 
L 88.848 72.871957 
L 89.20512 72.349967 
L 89.38368 80.762152 
L 89.56224 74.660877 
L 89.7408 75.525046 
L 89.91936 70.416776 
L 90.09792 73.009827 
L 90.27648 68.455859 
L 90.6336 77.57179 
L 90.99072 69.350045 
L 91.16928 70.032948 
L 91.34784 67.070298 
L 91.5264 70.044143 
L 91.70496 68.762518 
L 91.88352 68.969551 
L 92.06208 90.814416 
L 92.24064 66.887531 
L 92.4192 71.976191 
L 92.59776 70.188866 
L 92.77632 70.073469 
L 92.95488 70.252397 
L 93.13344 69.970272 
L 93.312 71.282207 
L 93.49056 76.048341 
L 93.66912 72.325275 
L 93.84768 89.815856 
L 94.02624 66.819732 
L 94.2048 85.553457 
L 94.38336 70.619287 
L 94.56192 77.87636 
L 94.74048 72.844165 
L 94.91904 71.105406 
L 95.0976 72.488786 
L 95.27616 72.011719 
L 95.45472 67.805625 
L 95.81184 72.449008 
L 95.9904 69.197162 
L 96.16896 71.179842 
L 96.34752 69.600793 
L 96.52608 75.330693 
L 96.70464 69.164299 
L 96.8832 67.132361 
L 97.06176 73.588126 
L 97.24032 69.747555 
L 97.41888 69.459849 
L 97.59744 69.917119 
L 97.776 78.523094 
L 97.95456 71.643059 
L 98.13312 71.398327 
L 98.31168 67.248285 
L 98.49024 72.502496 
L 98.6688 67.197155 
L 98.84736 73.125711 
L 99.02592 68.656101 
L 99.20448 68.042153 
L 99.38304 72.237364 
L 99.74016 67.488896 
L 99.91872 68.213502 
L 100.09728 67.668247 
L 100.27584 73.245406 
L 100.4544 75.103405 
L 100.63296 68.777434 
L 100.81152 88.505821 
L 100.99008 68.86877 
L 101.3472 68.176439 
L 101.52576 71.701142 
L 101.70432 68.406768 
L 102.06144 76.146174 
L 102.24 71.068534 
L 102.41856 77.45535 
L 102.59712 69.406787 
L 102.77568 71.17216 
L 103.1328 66.543566 
L 103.31136 69.806316 
L 103.48992 68.274206 
L 103.66848 69.954827 
L 103.84704 73.677904 
L 104.0256 69.944483 
L 104.38272 77.482747 
L 104.56128 76.1579 
L 104.9184 67.211012 
L 105.09696 70.069038 
L 105.27552 69.093984 
L 105.45408 71.709855 
L 105.63264 70.899016 
L 105.8112 71.45232 
L 106.16832 67.227463 
L 106.34688 69.65206 
L 106.704 70.000193 
L 106.88256 69.137321 
L 107.23968 78.034311 
L 107.5968 67.617806 
L 107.77536 69.913138 
L 107.95392 69.130767 
L 108.13248 69.629397 
L 108.31104 69.129722 
L 108.4896 69.935168 
L 108.66816 75.565501 
L 108.84672 68.044928 
L 109.02528 68.613871 
L 109.20384 67.764079 
L 109.56096 69.06427 
L 109.73952 67.60231 
L 109.91808 69.136063 
L 110.09664 69.418833 
L 110.2752 71.107587 
L 110.45376 69.687004 
L 110.63232 69.430183 
L 110.81088 71.603026 
L 110.98944 69.24172 
L 111.168 73.811705 
L 111.34656 71.202455 
L 111.70368 69.572422 
L 111.88224 73.867448 
L 112.0608 69.940574 
L 112.23936 70.47018 
L 112.41792 71.48962 
L 112.59648 68.101057 
L 112.77504 79.204269 
L 112.9536 71.357925 
L 113.13216 70.566347 
L 113.31072 75.128341 
L 113.48928 69.631825 
L 113.66784 70.196253 
L 114.02496 69.61433 
L 114.20352 71.553658 
L 114.38208 70.496271 
L 114.56064 70.972933 
L 114.7392 70.356618 
L 114.91776 72.308009 
L 115.09632 69.483908 
L 115.27488 70.490606 
L 115.45344 68.648898 
L 115.632 70.10992 
L 115.81056 68.111709 
L 115.98912 68.632022 
L 116.16768 79.343088 
L 116.34624 72.405323 
L 116.5248 94.725602 
L 116.70336 70.446107 
L 116.88192 67.901468 
L 117.06048 71.633581 
L 117.23904 69.928691 
L 117.4176 69.439872 
L 117.59616 71.162934 
L 117.95328 68.232416 
L 118.3104 70.270727 
L 118.48896 70.032744 
L 118.84608 68.77931 
L 119.02464 68.54354 
L 119.2032 70.918308 
L 119.38176 68.570414 
L 119.56032 71.385932 
L 119.73888 71.611138 
L 120.096 73.751777 
L 120.27456 73.623558 
L 120.63168 68.392116 
L 120.81024 68.671097 
L 120.9888 69.66269 
L 121.16736 72.668529 
L 121.34592 69.715625 
L 121.52448 71.856785 
L 121.70304 71.145328 
L 121.8816 68.206723 
L 122.06016 68.375636 
L 122.23872 68.148823 
L 122.41728 69.844316 
L 122.59584 67.122846 
L 122.95296 71.133926 
L 123.31008 68.818636 
L 123.48864 68.694488 
L 123.6672 67.57083 
L 123.84576 67.825499 
L 124.20288 70.854618 
L 124.38144 69.818299 
L 124.56 71.142776 
L 124.73856 69.843883 
L 124.91712 71.359267 
L 125.09568 69.136597 
L 125.27424 70.771283 
L 125.4528 66.445682 
L 125.63136 68.40282 
L 125.80992 66.72931 
L 125.98848 70.066504 
L 126.16704 68.341389 
L 126.3456 68.077514 
L 126.52416 66.642728 
L 126.88128 65.968774 
L 127.05984 68.686837 
L 127.2384 66.811556 
L 127.41696 67.560087 
L 127.59552 67.300463 
L 127.77408 66.440411 
L 128.1312 68.648604 
L 128.30976 71.55636 
L 128.48832 66.894934 
L 128.66688 68.650878 
L 129.024 65.189009 
L 129.20256 66.444984 
L 129.55968 65.483425 
L 129.73824 66.687707 
L 129.9168 66.613791 
L 130.09536 68.530924 
L 130.27392 66.947301 
L 130.45248 70.222277 
L 130.63104 66.105465 
L 130.8096 67.050772 
L 130.98816 65.881708 
L 131.16672 68.34864 
L 131.34528 65.607947 
L 131.52384 71.216079 
L 131.7024 65.192982 
L 131.88096 70.830589 
L 132.05952 65.666356 
L 132.23808 69.030252 
L 132.41664 65.670278 
L 132.5952 65.557606 
L 132.77376 67.270148 
L 132.95232 65.009992 
L 133.13088 66.000639 
L 133.488 70.874959 
L 133.66656 65.517811 
L 133.84512 73.112511 
L 134.02368 65.335972 
L 134.3808 66.215909 
L 134.55936 65.354746 
L 134.73792 67.127292 
L 134.91648 65.690323 
L 135.09504 67.55489 
L 135.2736 65.251142 
L 135.45216 68.042438 
L 135.63072 81.076424 
L 135.80928 68.940742 
L 136.1664 83.820642 
L 136.34496 70.859372 
L 136.52352 73.074449 
L 136.88064 66.591726 
L 137.0592 67.642859 
L 137.23776 76.502778 
L 137.41632 68.074523 
L 137.59488 69.092314 
L 137.77344 66.178018 
L 137.952 68.321932 
L 138.13056 66.483213 
L 138.30912 68.388395 
L 138.48768 66.459766 
L 138.8448 66.013282 
L 139.02336 67.03484 
L 139.20192 64.465634 
L 139.38048 66.692975 
L 139.55904 65.028655 
L 139.7376 65.954041 
L 139.91616 65.371633 
L 140.09472 66.26244 
L 140.27328 68.68365 
L 140.6304 65.558505 
L 140.80896 73.250026 
L 140.98752 66.229502 
L 141.16608 65.592611 
L 141.34464 66.215119 
L 141.5232 64.800252 
L 141.70176 65.773359 
L 141.88032 68.47333 
L 142.05888 68.381508 
L 142.23744 68.868823 
L 142.416 66.716155 
L 142.59456 70.752573 
L 142.77312 65.099702 
L 142.95168 70.974217 
L 143.13024 65.418318 
L 143.3088 64.243265 
L 143.48736 67.203036 
L 143.66592 65.310774 
L 143.84448 68.171431 
L 144.02304 95.255459 
L 144.2016 70.128167 
L 144.38016 82.425416 
L 144.55872 65.835993 
L 144.73728 64.298744 
L 144.91584 67.41203 
L 145.0944 64.558151 
L 145.27296 65.960299 
L 145.45152 66.32793 
L 145.63008 76.141753 
L 145.80864 72.904903 
L 145.9872 77.466265 
L 146.16576 67.340585 
L 146.34432 64.308782 
L 146.52288 70.418498 
L 146.70144 64.358781 
L 146.88 64.931098 
L 147.23712 78.958571 
L 147.41568 66.002606 
L 147.59424 68.380159 
L 147.7728 66.178756 
L 147.95136 66.10582 
L 148.12992 65.845554 
L 148.30848 68.938282 
L 148.48704 66.07973 
L 148.6656 73.619832 
L 148.84416 65.481348 
L 149.02272 64.384649 
L 149.20128 69.029509 
L 149.37984 65.209798 
L 149.5584 66.270618 
L 149.73696 65.229448 
L 149.91552 68.419782 
L 150.09408 66.445592 
L 150.27264 66.448071 
L 150.4512 66.889118 
L 150.62976 67.748153 
L 150.80832 67.273217 
L 150.98688 67.853846 
L 151.16544 66.571656 
L 151.52256 73.336628 
L 151.70112 71.522408 
L 151.87968 65.526097 
L 152.05824 64.316183 
L 152.2368 64.885968 
L 152.59392 66.985771 
L 152.77248 66.085944 
L 152.95104 68.319811 
L 153.1296 66.713219 
L 153.48672 66.956329 
L 153.66528 65.570665 
L 153.84384 72.498885 
L 154.0224 64.553413 
L 154.20096 97.279938 
L 154.37952 64.527515 
L 154.55808 82.521072 
L 154.73664 67.413301 
L 154.9152 68.891461 
L 155.09376 67.112216 
L 155.27232 70.664202 
L 155.45088 66.814761 
L 155.62944 67.119886 
L 155.808 68.62815 
L 155.98656 66.381262 
L 156.16512 67.555325 
L 156.34368 64.483477 
L 156.52224 67.783891 
L 156.7008 65.473762 
L 156.87936 70.258071 
L 157.05792 65.922523 
L 157.23648 69.100758 
L 157.5936 65.058546 
L 157.77216 75.758693 
L 157.95072 70.615295 
L 158.12928 70.545265 
L 158.30784 65.468209 
L 158.4864 70.727903 
L 158.66496 66.56515 
L 158.84352 72.397244 
L 159.02208 66.819097 
L 159.3792 65.691042 
L 159.55776 66.283704 
L 159.73632 70.116531 
L 160.09344 66.767263 
L 160.272 69.019869 
L 160.62912 66.16858 
L 160.80768 68.909698 
L 161.1648 64.916747 
L 161.34336 69.936977 
L 161.52192 65.328555 
L 161.70048 70.6941 
L 161.87904 65.552683 
L 162.0576 66.727424 
L 162.23616 64.733241 
L 162.41472 68.123504 
L 162.59328 66.702883 
L 162.77184 71.185476 
L 162.9504 64.298569 
L 163.30752 71.927899 
L 163.48608 73.769361 
L 164.02176 64.29304 
L 164.20032 64.473077 
L 164.37888 65.56514 
L 164.55744 64.191926 
L 164.736 76.771251 
L 164.91456 64.597827 
L 165.09312 78.562821 
L 165.27168 66.340952 
L 165.45024 69.041102 
L 165.6288 69.159297 
L 165.80736 75.484492 
L 165.98592 67.839019 
L 166.16448 65.516989 
L 166.34304 70.638687 
L 166.5216 65.014464 
L 166.70016 67.831034 
L 166.87872 122.832302 
L 167.05728 67.888875 
L 167.23584 109.996265 
L 167.4144 65.049055 
L 167.59296 64.684581 
L 167.77152 65.863093 
L 167.95008 64.967277 
L 168.12864 65.184884 
L 168.66432 66.53691 
L 169.02144 66.133423 
L 169.37856 64.738329 
L 169.55712 66.328621 
L 169.73568 69.713825 
L 169.91424 66.154233 
L 170.0928 70.816324 
L 170.27136 65.112429 
L 170.44992 67.237851 
L 170.62848 65.42626 
L 170.80704 65.627986 
L 170.9856 66.172801 
L 171.16416 65.235738 
L 171.34272 69.30371 
L 171.52128 64.531097 
L 171.69984 71.30242 
L 171.8784 65.902262 
L 172.05696 65.191312 
L 172.23552 65.490182 
L 172.41408 64.525534 
L 172.59264 67.133904 
L 172.7712 67.280244 
L 172.94976 70.990789 
L 173.48544 64.438281 
L 173.664 67.230733 
L 173.84256 64.663497 
L 174.02112 64.522279 
L 174.19968 67.687533 
L 174.37824 65.117448 
L 174.5568 66.045211 
L 174.73536 65.137032 
L 174.91392 67.718635 
L 175.09248 65.092716 
L 175.27104 65.126613 
L 175.4496 69.028779 
L 175.62816 65.945852 
L 175.80672 72.653315 
L 175.98528 65.499551 
L 176.16384 70.136108 
L 176.3424 66.205783 
L 176.52096 67.442166 
L 176.69952 66.590998 
L 176.87808 64.879665 
L 177.05664 65.140357 
L 177.2352 71.617831 
L 177.41376 65.659019 
L 177.77088 68.717624 
L 177.94944 66.075141 
L 178.128 70.067172 
L 178.30656 69.146171 
L 178.48512 65.672011 
L 178.66368 82.991729 
L 178.84224 66.055835 
L 179.0208 65.089717 
L 179.55648 67.359304 
L 179.73504 66.953163 
L 179.9136 68.285559 
L 180.09216 65.11257 
L 180.27072 65.497163 
L 180.44928 75.582606 
L 180.62784 67.990639 
L 180.8064 67.433661 
L 180.98496 66.226884 
L 181.16352 67.175375 
L 181.34208 66.428725 
L 181.6992 66.295817 
L 181.87776 64.788243 
L 182.05632 64.449949 
L 182.23488 64.529271 
L 182.41344 65.719106 
L 182.592 68.608628 
L 182.77056 68.621013 
L 183.12768 78.302248 
L 183.30624 64.331644 
L 183.4848 66.52194 
L 183.66336 64.663121 
L 183.84192 65.587718 
L 184.02048 65.035847 
L 184.3776 66.332284 
L 184.55616 66.525818 
L 184.73472 69.861641 
L 184.91328 64.889207 
L 185.09184 65.80441 
L 185.2704 66.082005 
L 185.44896 65.010465 
L 185.62752 72.385407 
L 185.80608 65.220927 
L 185.98464 67.585355 
L 186.1632 64.628486 
L 186.34176 65.580458 
L 186.52032 65.859539 
L 186.69888 65.693414 
L 186.87744 66.208008 
L 187.056 66.125397 
L 187.23456 64.70371 
L 187.41312 69.965324 
L 187.59168 66.209658 
L 187.77024 64.893242 
L 187.9488 64.703811 
L 188.12736 65.242364 
L 188.30592 64.762084 
L 188.48448 65.504278 
L 188.66304 64.826322 
L 188.8416 65.846674 
L 189.02016 65.863096 
L 189.19872 67.5183 
L 189.37728 64.490502 
L 189.55584 67.220711 
L 189.7344 65.681067 
L 189.91296 70.585619 
L 190.09152 65.423174 
L 190.27008 69.167445 
L 190.44864 65.976717 
L 190.6272 66.061632 
L 190.80576 64.494389 
L 191.16288 66.430995 
L 191.34144 66.281497 
L 191.52 65.556186 
L 191.69856 65.336125 
L 191.87712 72.450872 
L 192.05568 64.23309 
L 192.23424 66.507991 
L 192.4128 65.055795 
L 192.59136 65.751538 
L 192.76992 65.825564 
L 193.12704 64.741697 
L 193.3056 67.440911 
L 193.48416 67.697593 
L 193.66272 67.73929 
L 193.84128 65.738018 
L 194.01984 67.213831 
L 194.1984 66.414696 
L 194.37696 64.777596 
L 194.55552 67.495479 
L 194.91264 64.389858 
L 195.0912 66.461267 
L 195.26976 65.373851 
L 195.44832 65.448434 
L 195.62688 68.458012 
L 195.80544 64.970737 
L 195.984 65.100528 
L 196.16256 64.607291 
L 196.34112 66.136232 
L 196.51968 64.903732 
L 196.8768 66.048002 
L 197.05536 66.385838 
L 197.23392 64.307376 
L 197.41248 64.580611 
L 197.59104 69.303798 
L 197.7696 68.133306 
L 197.94816 68.458308 
L 198.12672 75.617561 
L 198.30528 66.031178 
L 198.6624 64.553897 
L 198.84096 67.557092 
L 199.19808 64.94133 
L 199.37664 64.972632 
L 199.5552 68.653346 
L 199.73376 64.571431 
L 200.09088 65.348366 
L 200.26944 65.740091 
L 200.448 72.719504 
L 200.62656 64.899138 
L 200.98368 65.498258 
L 201.16224 72.981711 
L 201.3408 63.859996 
L 201.51936 68.566209 
L 201.69792 64.361497 
L 201.87648 67.294504 
L 202.05504 65.755612 
L 202.2336 67.664694 
L 202.59072 67.678369 
L 202.76928 67.73052 
L 202.94784 66.042132 
L 203.1264 72.339877 
L 203.30496 65.394456 
L 203.48352 64.892999 
L 203.66208 65.171738 
L 203.84064 66.106523 
L 204.19776 64.803851 
L 204.37632 65.73768 
L 204.55488 64.589543 
L 204.73344 66.940284 
L 204.912 65.020852 
L 205.09056 69.524181 
L 205.26912 67.010707 
L 205.44768 66.746703 
L 205.62624 64.11881 
L 205.8048 67.198197 
L 205.98336 64.617124 
L 206.16192 64.225239 
L 206.34048 64.898523 
L 206.51904 64.052658 
L 206.6976 64.192872 
L 206.87616 67.662995 
L 207.05472 64.565046 
L 207.23328 66.857135 
L 207.41184 64.805836 
L 207.5904 67.421394 
L 207.76896 66.792271 
L 207.94752 67.323395 
L 208.30464 64.7103 
L 208.4832 68.772606 
L 208.66176 66.247366 
L 208.84032 67.966176 
L 209.01888 67.521503 
L 209.19744 66.220189 
L 209.376 67.968277 
L 209.73312 65.407777 
L 209.91168 67.157664 
L 210.09024 65.575113 
L 210.2688 65.080335 
L 210.44736 68.019676 
L 210.62592 65.071355 
L 210.80448 64.943471 
L 211.1616 70.217171 
L 211.34016 68.387292 
L 211.51872 68.692213 
L 211.87584 64.741632 
L 212.0544 65.932624 
L 212.23296 64.666788 
L 212.41152 73.618306 
L 212.59008 64.415771 
L 212.76864 65.094687 
L 212.9472 65.180462 
L 213.12576 66.95015 
L 213.30432 64.888366 
L 213.48288 64.927931 
L 213.66144 64.465985 
L 213.84 66.772418 
L 214.01856 67.602775 
L 214.19712 65.379711 
L 214.37568 65.743441 
L 214.55424 66.481674 
L 214.91136 64.893936 
L 215.08992 66.40861 
L 215.44704 64.414701 
L 215.6256 67.928084 
L 215.80416 64.697899 
L 215.98272 66.294271 
L 216.16128 64.027097 
L 216.33984 65.97927 
L 216.5184 64.908294 
L 216.69696 65.231973 
L 216.87552 66.515622 
L 217.05408 66.232501 
L 217.23264 67.934682 
L 217.4112 73.084376 
L 217.58976 65.259415 
L 217.76832 65.004381 
L 217.94688 66.490181 
L 218.12544 65.025924 
L 218.304 105.803176 
L 218.48256 67.564045 
L 218.66112 70.157668 
L 219.01824 65.251814 
L 219.1968 68.494377 
L 219.37536 65.885096 
L 219.55392 68.640432 
L 219.73248 65.123536 
L 219.91104 65.165072 
L 220.0896 66.044252 
L 220.44672 65.015379 
L 220.62528 70.130198 
L 220.80384 64.279123 
L 220.9824 67.146234 
L 221.16096 64.965571 
L 221.33952 64.559071 
L 221.51808 65.27586 
L 221.69664 63.952435 
L 221.8752 80.328941 
L 222.05376 65.795575 
L 222.23232 136.341723 
L 222.41088 68.584855 
L 222.58944 64.651826 
L 222.768 64.634121 
L 222.94656 65.108526 
L 223.12512 64.856835 
L 223.30368 69.715242 
L 223.48224 64.919234 
L 223.6608 67.923604 
L 223.83936 65.225623 
L 224.01792 68.81471 
L 224.19648 66.750942 
L 224.37504 69.367254 
L 224.5536 68.043202 
L 224.73216 65.296971 
L 224.91072 64.756272 
L 225.08928 66.301761 
L 225.26784 65.214255 
L 225.62496 69.064988 
L 225.80352 67.188403 
L 225.98208 99.577592 
L 226.16064 97.346776 
L 226.3392 66.216518 
L 226.51776 76.949423 
L 226.69632 67.325241 
L 227.05344 63.81168 
L 227.232 64.444998 
L 227.41056 63.975554 
L 227.58912 64.364018 
L 227.76768 68.295691 
L 227.94624 64.959418 
L 228.30336 71.422751 
L 228.48192 65.545709 
L 228.66048 66.339919 
L 228.83904 65.217212 
L 229.0176 65.011412 
L 229.19616 65.353066 
L 229.55328 64.384443 
L 230.08896 65.622679 
L 230.26752 64.796254 
L 230.44608 68.010649 
L 230.62464 67.911446 
L 230.8032 66.455966 
L 230.98176 69.187088 
L 231.16032 65.822698 
L 231.33888 67.687137 
L 231.51744 65.465384 
L 231.696 72.360932 
L 231.87456 64.877657 
L 232.05312 65.469774 
L 232.23168 64.546707 
L 232.41024 66.627899 
L 232.5888 66.694861 
L 232.76736 66.319996 
L 232.94592 67.093245 
L 233.12448 65.08744 
L 233.30304 67.514706 
L 233.66016 64.246271 
L 233.83872 66.356277 
L 234.01728 64.838214 
L 234.19584 65.731587 
L 234.3744 64.576974 
L 234.55296 65.483485 
L 234.73152 67.986567 
L 234.91008 65.187547 
L 235.08864 66.419115 
L 235.2672 64.59514 
L 235.44576 65.028599 
L 235.62432 64.218138 
L 235.80288 64.940398 
L 235.98144 66.893933 
L 236.16 65.366966 
L 236.33856 69.356432 
L 236.51712 67.337158 
L 236.69568 71.00895 
L 237.23136 67.059705 
L 237.40992 68.889573 
L 237.58848 64.031672 
L 237.76704 64.797687 
L 237.9456 63.648 
L 238.12416 65.414348 
L 238.30272 65.104011 
L 238.48128 64.559245 
L 238.8384 64.427193 
L 239.01696 71.050011 
L 239.19552 65.991302 
L 239.37408 69.756216 
L 239.55264 67.178745 
L 239.7312 67.750503 
L 239.90976 71.141906 
L 240.08832 65.743718 
L 240.26688 71.891876 
L 240.624 64.122955 
L 240.80256 66.218295 
L 240.98112 64.006723 
L 241.15968 64.222355 
L 241.33824 65.057396 
L 241.5168 65.063511 
L 241.87392 65.734368 
L 242.05248 64.46658 
L 242.23104 66.159622 
L 242.4096 64.225832 
L 242.58816 90.109126 
L 242.76672 64.227093 
L 242.94528 71.619608 
L 243.12384 66.917321 
L 243.3024 67.106055 
L 243.48096 71.800594 
L 243.65952 66.767467 
L 243.83808 89.621351 
L 244.01664 68.987955 
L 244.1952 64.682289 
L 244.37376 68.069603 
L 244.55232 65.081042 
L 244.73088 76.419593 
L 245.088 66.818213 
L 245.26656 70.448668 
L 245.44512 64.178058 
L 245.62368 67.616636 
L 245.80224 64.249734 
L 245.9808 69.300443 
L 246.15936 79.7591 
L 246.33792 64.203996 
L 246.51648 71.283362 
L 246.69504 64.741026 
L 246.8736 64.136487 
L 247.05216 67.749932 
L 247.23072 65.063993 
L 247.40928 68.356716 
L 247.58784 66.252395 
L 247.7664 68.834504 
L 247.94496 65.405197 
L 248.12352 68.180711 
L 248.30208 89.684277 
L 248.48064 69.811801 
L 248.6592 83.055039 
L 248.83776 66.988092 
L 249.19488 64.231399 
L 249.37344 65.539241 
L 249.552 64.142612 
L 249.73056 67.600936 
L 249.90912 65.863216 
L 250.08768 67.901151 
L 250.26624 65.233995 
L 250.4448 68.740995 
L 250.62336 80.56883 
L 250.80192 68.363634 
L 250.98048 80.033443 
L 251.15904 65.698745 
L 251.3376 64.707298 
L 251.51616 64.764073 
L 251.69472 66.218867 
L 251.87328 70.062379 
L 252.05184 65.304652 
L 252.2304 66.355809 
L 252.40896 64.377594 
L 252.76608 64.630589 
L 252.94464 64.605057 
L 253.1232 65.790636 
L 253.30176 66.138179 
L 253.48032 65.289546 
L 253.65888 65.378015 
L 253.83744 64.920861 
L 254.016 66.753196 
L 254.19456 64.579426 
L 254.37312 67.598422 
L 254.55168 64.908531 
L 254.73024 66.148112 
L 254.9088 68.224071 
L 255.08736 66.360338 
L 255.26592 67.975858 
L 255.44448 64.703723 
L 255.62304 65.647752 
L 255.8016 64.114332 
L 255.98016 67.36581 
L 256.15872 73.386479 
L 256.33728 65.196431 
L 256.51584 66.699762 
L 256.6944 65.894371 
L 256.87296 63.886617 
L 257.05152 64.389264 
L 257.23008 63.922811 
L 257.5872 66.431623 
L 257.76576 64.14588 
L 257.94432 65.692113 
L 258.12288 64.835029 
L 258.30144 80.566346 
L 258.48 64.604387 
L 258.65856 71.04987 
L 258.83712 64.577998 
L 259.01568 70.735863 
L 259.19424 70.770449 
L 259.3728 75.226227 
L 259.72992 65.279265 
L 260.08704 64.45512 
L 260.2656 65.824562 
L 260.44416 65.175352 
L 260.62272 66.606269 
L 260.80128 64.000362 
L 261.1584 68.689954 
L 261.33696 68.802778 
L 261.51552 69.158026 
L 261.87264 64.932793 
L 262.40832 65.365986 
L 262.58688 65.299275 
L 262.76544 64.283851 
L 262.944 66.04513 
L 263.12256 64.187865 
L 263.30112 64.298971 
L 263.47968 66.12703 
L 263.65824 64.684521 
L 263.8368 69.94348 
L 264.01536 66.480999 
L 264.19392 66.956449 
L 264.37248 64.729801 
L 264.7296 67.293025 
L 264.90816 65.055166 
L 265.08672 67.488052 
L 265.26528 64.807185 
L 265.44384 69.161502 
L 265.6224 65.156505 
L 265.80096 67.823274 
L 265.97952 65.51781 
L 266.15808 73.729501 
L 266.5152 66.221083 
L 266.69376 68.837517 
L 266.87232 64.128877 
L 267.408 65.197007 
L 267.58656 69.483751 
L 267.76512 66.617125 
L 267.94368 71.525067 
L 268.12224 66.615988 
L 268.47936 64.463524 
L 268.65792 65.97535 
L 268.83648 64.722956 
L 269.01504 72.501875 
L 269.1936 64.995308 
L 269.37216 77.681298 
L 269.55072 65.173723 
L 269.90784 65.62262 
L 270.0864 65.450964 
L 270.26496 66.209064 
L 270.62208 71.179821 
L 270.80064 67.131278 
L 270.9792 68.152242 
L 271.15776 68.418405 
L 271.33632 69.957023 
L 271.51488 66.794122 
L 271.69344 81.199629 
L 271.872 67.40172 
L 272.05056 67.579319 
L 272.22912 69.5717 
L 272.40768 65.880314 
L 272.7648 63.906073 
L 272.94336 64.44896 
L 273.12192 64.181101 
L 273.30048 67.610148 
L 273.47904 64.148223 
L 273.6576 66.873446 
L 274.01472 64.534693 
L 274.19328 66.087883 
L 274.37184 64.535335 
L 274.5504 66.096629 
L 274.72896 66.522405 
L 274.90752 64.644662 
L 275.08608 66.435349 
L 275.62176 65.18578 
L 275.97888 65.41565 
L 276.15744 65.065505 
L 276.336 63.966872 
L 276.51456 64.945872 
L 276.69312 64.061589 
L 276.87168 66.353309 
L 277.05024 65.388391 
L 277.2288 65.272369 
L 277.40736 68.342475 
L 277.58592 65.904122 
L 277.94304 66.431074 
L 278.1216 66.367599 
L 278.30016 65.432032 
L 278.47872 70.565913 
L 278.65728 65.277604 
L 278.83584 66.813475 
L 279.19296 64.666492 
L 279.37152 66.594864 
L 279.55008 65.718826 
L 279.72864 66.267069 
L 279.9072 65.068565 
L 280.08576 70.050434 
L 280.26432 65.297925 
L 280.44288 65.912921 
L 280.62144 65.962542 
L 280.8 64.324369 
L 281.15712 67.642151 
L 281.33568 66.638701 
L 281.51424 66.352813 
L 281.6928 67.593635 
L 282.04992 65.773024 
L 282.40704 64.692279 
L 282.5856 65.135834 
L 282.76416 69.182889 
L 282.94272 65.006802 
L 283.12128 68.438525 
L 283.29984 67.27216 
L 283.4784 64.949614 
L 283.65696 65.227624 
L 283.83552 65.207397 
L 284.01408 64.339292 
L 284.19264 65.580552 
L 284.3712 64.298314 
L 284.72832 67.133681 
L 284.90688 67.13802 
L 285.264 68.553999 
L 285.62112 65.362536 
L 285.79968 66.81203 
L 286.1568 65.282471 
L 286.33536 64.762877 
L 286.51392 66.272383 
L 286.87104 64.91911 
L 287.0496 66.148985 
L 287.22816 65.441458 
L 287.40672 66.707787 
L 287.58528 66.336283 
L 287.76384 67.678002 
L 287.9424 66.047974 
L 288.12096 66.429612 
L 288.29952 77.53906 
L 288.47808 68.459708 
L 288.65664 78.674079 
L 288.8352 66.603342 
L 289.01376 64.868949 
L 289.19232 68.01706 
L 289.37088 66.734107 
L 289.54944 73.073318 
L 289.90656 64.386235 
L 290.08512 65.136027 
L 290.26368 64.802453 
L 290.44224 65.05079 
L 290.6208 67.127281 
L 290.79936 65.458843 
L 290.97792 68.091498 
L 291.15648 68.078656 
L 291.33504 66.312569 
L 291.5136 68.197235 
L 291.69216 65.147058 
L 291.87072 66.006834 
L 292.22784 64.423426 
L 292.4064 66.012521 
L 292.58496 70.288557 
L 292.76352 69.127522 
L 292.94208 77.74552 
L 293.12064 66.118916 
L 293.2992 67.609653 
L 293.65632 74.586935 
L 293.83488 92.861772 
L 294.01344 66.076686 
L 294.192 66.290713 
L 294.37056 67.273796 
L 294.54912 65.552394 
L 294.72768 68.172181 
L 295.0848 66.3651 
L 295.26336 69.206418 
L 295.62048 65.890698 
L 295.79904 64.920644 
L 295.9776 65.391066 
L 296.15616 67.01642 
L 296.33472 65.155598 
L 296.51328 67.733618 
L 296.69184 64.793916 
L 296.8704 65.972993 
L 297.04896 64.943009 
L 297.22752 66.647113 
L 297.40608 64.338939 
L 297.58464 65.274282 
L 297.7632 66.931659 
L 297.94176 64.79795 
L 298.12032 65.777979 
L 298.29888 69.667674 
L 298.47744 65.694444 
L 298.656 65.824648 
L 298.83456 65.486128 
L 299.01312 67.078209 
L 299.19168 66.538177 
L 299.37024 65.176455 
L 299.5488 65.761599 
L 299.72736 64.797396 
L 299.90592 64.701342 
L 300.26304 65.645765 
L 300.4416 66.723829 
L 300.62016 64.784684 
L 300.79872 67.082307 
L 300.97728 65.240004 
L 301.15584 65.158766 
L 301.3344 70.57593 
L 301.51296 65.477875 
L 301.69152 78.97721 
L 301.87008 69.507865 
L 302.04864 66.090315 
L 302.2272 79.896888 
L 302.40576 65.671947 
L 302.58432 64.793179 
L 302.76288 65.134757 
L 302.94144 65.8241 
L 303.12 67.451951 
L 303.29856 75.69838 
L 303.47712 65.696454 
L 303.65568 67.957457 
L 303.83424 64.981948 
L 304.0128 65.339398 
L 304.19136 74.446031 
L 304.36992 64.755453 
L 304.54848 70.864292 
L 304.72704 64.961638 
L 304.9056 66.816296 
L 305.08416 64.519701 
L 305.26272 65.634839 
L 305.44128 68.21396 
L 305.61984 66.146209 
L 305.7984 66.831641 
L 305.97696 66.026232 
L 306.15552 64.46598 
L 306.33408 67.659298 
L 306.51264 64.798573 
L 306.6912 66.322569 
L 306.86976 66.761066 
L 307.04832 66.232824 
L 307.22688 66.762782 
L 307.40544 68.341583 
L 307.584 64.676245 
L 307.76256 67.256754 
L 307.94112 65.185074 
L 308.11968 66.371239 
L 308.29824 95.44755 
L 308.4768 73.111749 
L 308.65536 86.613958 
L 308.83392 67.473364 
L 309.01248 65.030755 
L 309.19104 65.70958 
L 309.3696 68.861023 
L 309.72672 65.667326 
L 309.90528 67.391483 
L 310.08384 65.5907 
L 310.2624 66.009377 
L 310.44096 66.904393 
L 310.61952 68.385747 
L 310.79808 65.698673 
L 310.97664 67.967625 
L 311.1552 64.828132 
L 311.33376 65.900881 
L 311.51232 65.26421 
L 311.69088 67.367414 
L 311.86944 65.861451 
L 312.048 67.371181 
L 312.22656 65.956267 
L 312.40512 67.452037 
L 312.58368 74.375737 
L 312.76224 71.170741 
L 312.9408 74.892248 
L 313.11936 67.658438 
L 313.29792 66.117238 
L 313.47648 69.707873 
L 313.65504 65.899547 
L 314.01216 70.646451 
L 314.19072 65.370961 
L 314.36928 72.657322 
L 314.54784 65.542368 
L 314.7264 65.129312 
L 314.90496 63.973238 
L 315.08352 65.563254 
L 315.26208 65.016518 
L 315.44064 71.572016 
L 315.6192 70.072283 
L 315.79776 75.275346 
L 316.15488 67.348855 
L 316.33344 65.656348 
L 316.512 81.946216 
L 316.69056 65.170329 
L 316.86912 72.419898 
L 317.04768 70.137426 
L 317.22624 72.1029 
L 317.4048 66.852316 
L 317.58336 65.579835 
L 317.76192 88.960314 
L 317.94048 65.69505 
L 318.11904 65.98373 
L 318.2976 67.446637 
L 318.47616 66.360613 
L 318.65472 68.164732 
L 318.83328 67.464874 
L 319.01184 67.805695 
L 319.1904 67.224738 
L 319.36896 65.733117 
L 319.54752 65.785305 
L 319.90464 67.152136 
L 320.0832 67.884234 
L 320.26176 66.936663 
L 320.44032 65.236925 
L 320.976 68.245257 
L 321.33312 64.811346 
L 321.51168 69.021623 
L 321.69024 66.421806 
L 321.8688 99.610461 
L 322.04736 66.541331 
L 322.22592 74.788554 
L 322.40448 65.806185 
L 322.58304 73.572672 
L 322.7616 67.566665 
L 322.94016 68.312069 
L 323.47584 66.827882 
L 323.6544 66.935262 
L 323.83296 68.56358 
L 324.01152 67.816285 
L 324.19008 66.382316 
L 324.5472 68.71964 
L 324.72576 64.953934 
L 324.90432 67.308736 
L 325.08288 64.434784 
L 325.26144 68.383805 
L 325.44 66.288143 
L 325.61856 69.632839 
L 325.79712 67.315423 
L 325.97568 67.341821 
L 326.15424 68.083949 
L 326.3328 67.627959 
L 326.51136 66.27086 
L 326.68992 69.223773 
L 326.86848 65.199076 
L 327.04704 66.287179 
L 327.2256 64.857815 
L 327.40416 65.482352 
L 327.58272 86.877988 
L 327.76128 65.241708 
L 327.93984 72.285838 
L 328.1184 64.930608 
L 328.29696 85.407336 
L 328.47552 68.363003 
L 328.83264 65.865877 
L 329.18976 65.269059 
L 329.36832 66.094102 
L 329.54688 65.086 
L 329.72544 65.719849 
L 329.904 78.812516 
L 330.08256 65.786597 
L 330.26112 68.815481 
L 330.43968 67.005294 
L 330.61824 74.654614 
L 330.7968 70.252926 
L 330.97536 76.288094 
L 331.15392 68.222214 
L 331.33248 66.594438 
L 331.51104 76.752646 
L 331.6896 68.438995 
L 331.86816 71.607169 
L 332.04672 68.061577 
L 332.22528 89.403002 
L 332.40384 65.793202 
L 332.5824 66.543925 
L 332.76096 80.192978 
L 332.93952 68.540328 
L 333.11808 69.388859 
L 333.4752 66.924876 
L 333.65376 66.659045 
L 333.83232 66.915309 
L 334.01088 65.63174 
L 334.18944 69.437527 
L 334.54656 65.123572 
L 334.72512 67.08676 
L 334.90368 67.397664 
L 335.08224 66.00103 
L 335.2608 68.881127 
L 335.43936 65.778362 
L 335.61792 66.202398 
L 335.79648 65.055415 
L 336.1536 66.607346 
L 336.51072 65.202251 
L 336.68928 66.844065 
L 336.86784 64.920181 
L 337.0464 64.331446 
L 337.40352 65.838879 
L 337.58208 66.256779 
L 337.76064 65.01807 
L 337.9392 66.281257 
L 338.29632 66.279879 
L 338.47488 71.592861 
L 338.65344 66.701266 
L 338.832 67.211316 
L 339.01056 65.566943 
L 339.18912 65.012267 
L 339.36768 65.952354 
L 339.54624 67.672933 
L 339.7248 67.630081 
L 339.90336 65.177007 
L 340.08192 67.658944 
L 340.26048 65.36841 
L 340.43904 67.556729 
L 340.6176 65.824182 
L 340.79616 65.600188 
L 340.97472 70.067105 
L 341.15328 65.749775 
L 341.5104 66.777122 
L 341.68896 65.908963 
L 341.86752 69.263679 
L 342.04608 266.487773 
L 342.22464 68.828739 
L 342.4032 74.134799 
L 342.58176 69.438023 
L 342.76032 69.585474 
L 342.93888 67.726133 
L 343.11744 68.089117 
L 343.47456 65.190286 
L 343.65312 66.245895 
L 343.83168 64.999 
L 344.1888 68.285754 
L 344.36736 67.78802 
L 344.54592 66.022954 
L 344.72448 65.796195 
L 344.90304 65.936499 
L 345.26016 68.050583 
L 345.43872 65.978829 
L 345.61728 65.608027 
L 345.79584 66.004953 
L 345.9744 67.859937 
L 346.15296 66.0442 
L 346.33152 67.124872 
L 346.51008 65.457444 
L 346.68864 68.111402 
L 347.22432 64.671406 
L 347.40288 64.217563 
L 347.58144 65.142742 
L 347.76 64.239689 
L 347.93856 66.145556 
L 348.11712 65.257793 
L 348.29568 65.519134 
L 348.47424 67.604639 
L 348.6528 65.710861 
L 348.83136 73.607085 
L 349.18848 67.380049 
L 349.36704 67.311714 
L 349.5456 66.578367 
L 349.72416 68.761267 
L 349.90272 65.840221 
L 350.08128 67.018982 
L 350.25984 65.562661 
L 350.4384 65.201219 
L 350.79552 67.438565 
L 350.97408 67.104381 
L 351.15264 65.277559 
L 351.3312 66.747933 
L 351.68832 66.160674 
L 351.86688 65.06137 
L 352.04544 65.277285 
L 352.224 65.76758 
L 352.40256 64.379189 
L 352.58112 67.230866 
L 352.75968 66.118436 
L 352.93824 68.624368 
L 353.1168 69.230346 
L 353.29536 67.284631 
L 353.47392 67.838517 
L 353.65248 69.317763 
L 353.83104 68.982627 
L 354.0096 66.370987 
L 354.18816 67.531246 
L 354.36672 69.727971 
L 354.54528 66.30021 
L 354.72384 201.132604 
L 354.9024 67.372141 
L 355.08096 130.086193 
L 355.25952 67.803559 
L 355.61664 65.472666 
L 355.7952 68.698462 
L 355.97376 65.677639 
L 356.15232 70.643564 
L 356.33088 71.084073 
L 356.50944 66.189125 
L 356.688 68.114874 
L 356.86656 65.23892 
L 357.04512 67.188071 
L 357.22368 65.925115 
L 357.40224 67.493186 
L 357.5808 65.754025 
L 357.75936 68.488089 
L 357.93792 66.22128 
L 358.11648 69.265033 
L 358.29504 66.885223 
L 358.4736 66.034236 
L 358.65216 66.501153 
L 358.83072 67.604346 
L 359.00928 67.215866 
L 359.18784 65.38587 
L 359.3664 67.384397 
L 359.54496 67.239437 
L 359.72352 66.853355 
L 359.90208 64.727789 
L 360.08064 67.709101 
L 360.2592 64.471536 
L 360.43776 70.717787 
L 360.61632 66.530208 
L 360.79488 68.947337 
L 360.97344 66.006541 
L 361.152 67.200496 
L 361.33056 66.790161 
L 361.50912 65.41942 
L 361.68768 65.357025 
L 361.86624 65.532779 
L 362.0448 66.910248 
L 362.22336 64.848746 
L 362.40192 69.222463 
L 362.75904 65.724586 
L 362.9376 75.579713 
L 363.11616 67.298177 
L 363.29472 66.732859 
L 363.47328 64.791133 
L 363.65184 65.316816 
L 363.8304 64.920849 
L 364.00896 66.437997 
L 364.18752 65.447415 
L 364.36608 70.222363 
L 364.54464 65.452167 
L 364.7232 65.927754 
L 365.08032 64.964006 
L 365.25888 66.097036 
L 365.43744 64.856656 
L 365.616 65.550629 
L 365.79456 65.324998 
L 365.97312 66.284222 
L 366.15168 66.075697 
L 366.33024 65.495163 
L 366.5088 65.513431 
L 366.68736 65.296905 
L 367.04448 67.734174 
L 367.22304 65.140633 
L 367.4016 69.130548 
L 367.58016 66.740779 
L 367.75872 72.200649 
L 367.93728 68.252889 
L 368.11584 71.10825 
L 368.2944 66.462285 
L 368.47296 65.880333 
L 368.65152 66.595312 
L 369.00864 66.566752 
L 369.1872 66.1344 
L 369.36576 66.028502 
L 369.54432 65.117932 
L 369.72288 70.885257 
L 369.90144 64.438151 
L 370.08 74.40191 
L 370.25856 65.728579 
L 370.43712 66.449929 
L 370.61568 64.755167 
L 370.9728 65.704875 
L 371.15136 70.786704 
L 371.32992 68.448786 
L 371.50848 77.194473 
L 371.68704 67.895062 
L 371.8656 65.764758 
L 372.04416 66.105498 
L 372.22272 65.007425 
L 372.40128 66.555342 
L 372.57984 66.352022 
L 372.7584 65.095467 
L 372.93696 66.611662 
L 373.11552 65.271445 
L 373.29408 65.598466 
L 373.47264 67.355061 
L 373.6512 73.652254 
L 373.82976 65.778547 
L 374.00832 80.309385 
L 374.18688 66.178806 
L 374.36544 87.358895 
L 374.544 65.807198 
L 374.72256 70.669866 
L 374.90112 68.122787 
L 375.07968 73.01428 
L 375.25824 66.494857 
L 375.4368 65.762322 
L 375.61536 65.543533 
L 375.79392 66.062766 
L 375.97248 115.803426 
L 376.15104 67.158111 
L 376.3296 66.657172 
L 376.50816 66.742822 
L 376.68672 68.786207 
L 376.86528 66.501788 
L 377.04384 66.29435 
L 377.2224 67.193764 
L 377.40096 67.335705 
L 377.57952 67.79659 
L 377.75808 65.421096 
L 377.93664 68.169779 
L 378.29376 65.425833 
L 378.47232 76.560179 
L 378.65088 67.171976 
L 378.82944 78.550321 
L 379.008 66.194 
L 379.18656 75.9926 
L 379.36512 65.980214 
L 379.54368 69.88629 
L 379.72224 65.922351 
L 379.9008 66.835748 
L 380.07936 68.666006 
L 380.25792 65.735151 
L 380.43648 65.202346 
L 380.61504 66.332474 
L 380.7936 65.959262 
L 380.97216 75.841448 
L 381.15072 66.114849 
L 381.32928 66.924315 
L 381.50784 66.884672 
L 381.6864 67.745272 
L 381.86496 65.862971 
L 382.04352 76.38793 
L 382.22208 65.605004 
L 382.40064 85.455266 
L 382.5792 69.696545 
L 382.75776 69.397538 
L 382.93632 79.699814 
L 383.29344 67.370681 
L 383.472 65.229398 
L 383.65056 70.209145 
L 383.82912 65.319554 
L 384.00768 65.806151 
L 384.18624 68.033803 
L 384.3648 67.004651 
L 384.54336 66.961166 
L 384.72192 134.781627 
L 384.90048 65.692326 
L 385.07904 89.52308 
L 385.2576 66.171734 
L 385.43616 70.198026 
L 385.61472 66.042975 
L 385.79328 80.358268 
L 385.97184 66.453708 
L 386.1504 66.580236 
L 386.32896 66.452131 
L 386.50752 66.64206 
L 386.68608 66.206151 
L 386.86464 67.537589 
L 387.0432 100.991181 
L 387.22176 67.700959 
L 387.40032 67.963073 
L 387.75744 66.130884 
L 387.936 65.534029 
L 388.11456 66.063887 
L 388.29312 66.230606 
L 388.47168 67.991797 
L 388.65024 64.681932 
L 388.8288 66.108455 
L 389.00736 65.415743 
L 389.18592 66.020974 
L 389.36448 64.829138 
L 389.7216 69.733662 
L 389.90016 64.80254 
L 390.07872 78.526877 
L 390.25728 66.868121 
L 390.43584 66.750628 
L 390.6144 67.986314 
L 390.79296 66.115982 
L 391.15008 68.997003 
L 391.32864 82.452208 
L 391.5072 68.316624 
L 391.68576 68.361374 
L 391.86432 66.458253 
L 392.04288 70.536868 
L 392.22144 65.590249 
L 392.4 71.617618 
L 392.75712 65.144467 
L 392.93568 68.164764 
L 393.11424 65.242201 
L 393.2928 65.439055 
L 393.47136 67.303132 
L 393.64992 66.620734 
L 393.82848 68.322857 
L 394.36416 65.441282 
L 394.54272 66.078606 
L 394.72128 76.914384 
L 394.89984 72.158484 
L 395.0784 72.718973 
L 395.43552 67.771325 
L 395.61408 68.09446 
L 395.79264 68.827597 
L 395.9712 74.076254 
L 396.32832 65.832786 
L 396.50688 69.371102 
L 396.68544 65.738859 
L 396.864 68.418171 
L 397.04256 65.152746 
L 397.22112 66.526278 
L 397.39968 66.089685 
L 397.57824 68.160473 
L 397.7568 65.368742 
L 397.93536 67.729949 
L 398.11392 65.445104 
L 398.47104 71.620993 
L 398.6496 66.898057 
L 398.82816 67.464245 
L 399.00672 66.159722 
L 399.18528 65.871943 
L 399.36384 67.043864 
L 399.5424 65.099973 
L 399.72096 70.812366 
L 399.89952 68.285928 
L 400.07808 69.17468 
L 400.25664 81.044092 
L 400.4352 65.249823 
L 400.61376 69.200843 
L 400.79232 65.095968 
L 400.97088 68.899925 
L 401.14944 66.669747 
L 401.50656 65.493019 
L 401.68512 68.751138 
L 401.86368 65.671957 
L 402.04224 71.021348 
L 402.2208 65.970244 
L 402.39936 69.76049 
L 402.57792 65.55252 
L 402.75648 68.857255 
L 402.93504 65.106013 
L 403.1136 75.996263 
L 403.29216 66.219596 
L 403.82784 65.337626 
L 404.0064 66.607131 
L 404.18496 66.530718 
L 404.54208 70.946761 
L 404.72064 285.408 
L 404.8992 66.388491 
L 405.07776 123.135841 
L 405.25632 65.542447 
L 405.43488 65.601772 
L 405.61344 65.243461 
L 405.792 65.685226 
L 405.97056 65.354042 
L 406.14912 68.278202 
L 406.32768 67.752616 
L 406.50624 70.003405 
L 406.6848 65.806042 
L 406.86336 72.926811 
L 407.04192 66.42311 
L 407.22048 68.680829 
L 407.39904 64.935908 
L 407.5776 66.946467 
L 407.75616 65.923842 
L 407.93472 69.219902 
L 408.11328 66.842346 
L 408.4704 68.970409 
L 408.64896 65.097506 
L 408.82752 68.16796 
L 409.00608 68.274333 
L 409.18464 65.30717 
L 409.3632 67.151965 
L 409.54176 66.202454 
L 409.72032 66.542826 
L 409.89888 65.788838 
L 410.07744 67.692492 
L 410.256 65.585829 
L 410.43456 66.148713 
L 410.61312 65.217389 
L 410.79168 65.942687 
L 410.97024 65.482824 
L 411.1488 66.597883 
L 411.32736 66.361085 
L 411.50592 67.169432 
L 411.68448 70.018251 
L 412.0416 67.256167 
L 412.39872 69.948535 
L 412.75584 65.390826 
L 412.9344 69.000188 
L 413.29152 66.113341 
L 413.64864 67.237807 
L 413.8272 67.180092 
L 414.00576 67.487268 
L 414.18432 66.024297 
L 414.36288 71.822127 
L 414.54144 66.31401 
L 414.54144 66.31401 
" style="fill:none;stroke:#0000ff;stroke-linecap:square;stroke-width:1.5;"/>
   </g>
   <g id="patch_3">
    <path d="M 57.6 307.584 
L 57.6 41.472 
" style="fill:none;stroke:#000000;stroke-linecap:square;stroke-linejoin:miter;stroke-width:0.8;"/>
   </g>
   <g id="patch_4">
    <path d="M 414.72 307.584 
L 414.72 41.472 
" style="fill:none;stroke:#000000;stroke-linecap:square;stroke-linejoin:miter;stroke-width:0.8;"/>
   </g>
   <g id="patch_5">
    <path d="M 57.6 307.584 
L 414.72 307.584 
" style="fill:none;stroke:#000000;stroke-linecap:square;stroke-linejoin:miter;stroke-width:0.8;"/>
   </g>
   <g id="patch_6">
    <path d="M 57.6 41.472 
L 414.72 41.472 
" style="fill:none;stroke:#000000;stroke-linecap:square;stroke-linejoin:miter;stroke-width:0.8;"/>
   </g>
   <g id="legend_1">
    <g id="patch_7">
     <path d="M 64.6 64.150125 
L 189.998437 64.150125 
Q 191.998437 64.150125 191.998437 62.150125 
L 191.998437 48.472 
Q 191.998437 46.472 189.998437 46.472 
L 64.6 46.472 
Q 62.6 46.472 62.6 48.472 
L 62.6 62.150125 
Q 62.6 64.150125 64.6 64.150125 
z
" style="fill:#ffffff;opacity:0.8;stroke:#cccccc;stroke-linejoin:miter;"/>
    </g>
    <g id="line2d_30">
     <path d="M 66.6 54.570438 
L 86.6 54.570438 
" style="fill:none;stroke:#0000ff;stroke-linecap:square;stroke-width:1.5;"/>
    </g>
    <g id="line2d_31"/>
    <g id="text_18">
     <!-- cumulative reward -->
     <g transform="translate(94.6 58.070438)scale(0.1 -0.1)">
      <defs>
       <path d="M 3122 3366 
L 3122 2828 
Q 2878 2963 2633 3030 
Q 2388 3097 2138 3097 
Q 1578 3097 1268 2742 
Q 959 2388 959 1747 
Q 959 1106 1268 751 
Q 1578 397 2138 397 
Q 2388 397 2633 464 
Q 2878 531 3122 666 
L 3122 134 
Q 2881 22 2623 -34 
Q 2366 -91 2075 -91 
Q 1284 -91 818 406 
Q 353 903 353 1747 
Q 353 2603 823 3093 
Q 1294 3584 2113 3584 
Q 2378 3584 2631 3529 
Q 2884 3475 3122 3366 
z
" id="DejaVuSans-63" transform="scale(0.015625)"/>
      </defs>
      <use xlink:href="#DejaVuSans-63"/>
      <use x="54.980469" xlink:href="#DejaVuSans-75"/>
      <use x="118.359375" xlink:href="#DejaVuSans-6d"/>
      <use x="215.771484" xlink:href="#DejaVuSans-75"/>
      <use x="279.150391" xlink:href="#DejaVuSans-6c"/>
      <use x="306.933594" xlink:href="#DejaVuSans-61"/>
      <use x="368.212891" xlink:href="#DejaVuSans-74"/>
      <use x="407.421875" xlink:href="#DejaVuSans-69"/>
      <use x="435.205078" xlink:href="#DejaVuSans-76"/>
      <use x="494.384766" xlink:href="#DejaVuSans-65"/>
      <use x="555.908203" xlink:href="#DejaVuSans-20"/>
      <use x="587.695312" xlink:href="#DejaVuSans-72"/>
      <use x="626.558594" xlink:href="#DejaVuSans-65"/>
      <use x="688.082031" xlink:href="#DejaVuSans-77"/>
      <use x="769.869141" xlink:href="#DejaVuSans-61"/>
      <use x="831.148438" xlink:href="#DejaVuSans-72"/>
      <use x="870.511719" xlink:href="#DejaVuSans-64"/>
     </g>
    </g>
   </g>
  </g>
 </g>
 <defs>
  <clipPath id="p4fa0f86358">
   <rect height="266.112" width="357.12" x="57.6" y="41.472"/>
  </clipPath>
 </defs>
</svg>
