<?xml version="1.0" encoding="utf-8" standalone="no"?>
<!DOCTYPE svg PUBLIC "-//W3C//DTD SVG 1.1//EN"
  "http://www.w3.org/Graphics/SVG/1.1/DTD/svg11.dtd">
<svg height="345.6pt" version="1.1" viewBox="0 0 460.8 345.6" width="460.8pt" xmlns="http://www.w3.org/2000/svg" xmlns:xlink="http://www.w3.org/1999/xlink">
 <metadata>
  <rdf:RDF xmlns:cc="http://creativecommons.org/ns#" xmlns:dc="http://purl.org/dc/elements/1.1/" xmlns:rdf="http://www.w3.org/1999/02/22-rdf-syntax-ns#">
   <cc:Work>
    <dc:type rdf:resource="http://purl.org/dc/dcmitype/StillImage"/>
    <dc:date>2021-10-19T18:11:40.483191</dc:date>
    <dc:description>{"agent.algorithm": "RayProximalPolicyOptimization", "agent.algorithm.render_env": false, "agent.algorithm.batch_mode": "complete_episodes", "agent.algorithm.train_batch_size": 200, "agent.algorithm.optimizer": "Adam", "agent.algorithm.vf_clip_param": 1000000.0, "agent.algorithm.model": {"fcnet_activation": "tanh", "fcnet_hiddens": [30, 30]}, "env.env_class": "SchedulerPolicyRayEnvironment", "env.env_config": {"solver_driver": "CMAdriver", "solver_driver_args": [10, 10, "bent cigar"], "maximize": false, "steps": 50, "state_metrics_names": ["DifferenceOfBest", "SolverState"], "state_metrics_config": [[40, false, 1, true, true], [{"step_size": {"max": 3, "min": 1e-10}}]], "reward_metric": "Best", "reward_metric_config": [false, false], "memes_no": 1, "parameter_tune_config": {"step_size": {"max": 3, "min": 1e-10}}}}</dc:description>
    <dc:format>image/svg+xml</dc:format>
    <dc:creator>
     <cc:Agent>
      <dc:title>Matplotlib v3.4.2, https://matplotlib.org/</dc:title>
     </cc:Agent>
    </dc:creator>
   </cc:Work>
  </rdf:RDF>
 </metadata>
 <defs>
  <style type="text/css">*{stroke-linecap:butt;stroke-linejoin:round;}</style>
 </defs>
 <g id="figure_1">
  <g id="patch_1">
   <path d="M 0 345.6 
L 460.8 345.6 
L 460.8 0 
L 0 0 
z
" style="fill:#ffffff;"/>
  </g>
  <g id="axes_1">
   <g id="patch_2">
    <path d="M 57.6 307.584 
L 414.72 307.584 
L 414.72 41.472 
L 57.6 41.472 
z
" style="fill:#ffffff;"/>
   </g>
   <g id="matplotlib.axis_1">
    <g id="xtick_1">
     <g id="line2d_1">
      <path clip-path="url(#pdb10e5da6d)" d="M 57.6 307.584 
L 57.6 41.472 
" style="fill:none;stroke:#b0b0b0;stroke-linecap:square;stroke-width:0.8;"/>
     </g>
     <g id="line2d_2">
      <defs>
       <path d="M 0 0 
L 0 3.5 
" id="mf88cec9744" style="stroke:#000000;stroke-width:0.8;"/>
      </defs>
      <g>
       <use style="stroke:#000000;stroke-width:0.8;" x="57.6" xlink:href="#mf88cec9744" y="307.584"/>
      </g>
     </g>
     <g id="text_1">
      <!-- 0 -->
      <g transform="translate(54.41875 322.182437)scale(0.1 -0.1)">
       <defs>
        <path d="M 2034 4250 
Q 1547 4250 1301 3770 
Q 1056 3291 1056 2328 
Q 1056 1369 1301 889 
Q 1547 409 2034 409 
Q 2525 409 2770 889 
Q 3016 1369 3016 2328 
Q 3016 3291 2770 3770 
Q 2525 4250 2034 4250 
z
M 2034 4750 
Q 2819 4750 3233 4129 
Q 3647 3509 3647 2328 
Q 3647 1150 3233 529 
Q 2819 -91 2034 -91 
Q 1250 -91 836 529 
Q 422 1150 422 2328 
Q 422 3509 836 4129 
Q 1250 4750 2034 4750 
z
" id="DejaVuSans-30" transform="scale(0.015625)"/>
       </defs>
       <use xlink:href="#DejaVuSans-30"/>
      </g>
     </g>
    </g>
    <g id="xtick_2">
     <g id="line2d_3">
      <path clip-path="url(#pdb10e5da6d)" d="M 129.024 307.584 
L 129.024 41.472 
" style="fill:none;stroke:#b0b0b0;stroke-linecap:square;stroke-width:0.8;"/>
     </g>
     <g id="line2d_4">
      <g>
       <use style="stroke:#000000;stroke-width:0.8;" x="129.024" xlink:href="#mf88cec9744" y="307.584"/>
      </g>
     </g>
     <g id="text_2">
      <!-- 200 -->
      <g transform="translate(119.48025 322.182437)scale(0.1 -0.1)">
       <defs>
        <path d="M 1228 531 
L 3431 531 
L 3431 0 
L 469 0 
L 469 531 
Q 828 903 1448 1529 
Q 2069 2156 2228 2338 
Q 2531 2678 2651 2914 
Q 2772 3150 2772 3378 
Q 2772 3750 2511 3984 
Q 2250 4219 1831 4219 
Q 1534 4219 1204 4116 
Q 875 4013 500 3803 
L 500 4441 
Q 881 4594 1212 4672 
Q 1544 4750 1819 4750 
Q 2544 4750 2975 4387 
Q 3406 4025 3406 3419 
Q 3406 3131 3298 2873 
Q 3191 2616 2906 2266 
Q 2828 2175 2409 1742 
Q 1991 1309 1228 531 
z
" id="DejaVuSans-32" transform="scale(0.015625)"/>
       </defs>
       <use xlink:href="#DejaVuSans-32"/>
       <use x="63.623047" xlink:href="#DejaVuSans-30"/>
       <use x="127.246094" xlink:href="#DejaVuSans-30"/>
      </g>
     </g>
    </g>
    <g id="xtick_3">
     <g id="line2d_5">
      <path clip-path="url(#pdb10e5da6d)" d="M 200.448 307.584 
L 200.448 41.472 
" style="fill:none;stroke:#b0b0b0;stroke-linecap:square;stroke-width:0.8;"/>
     </g>
     <g id="line2d_6">
      <g>
       <use style="stroke:#000000;stroke-width:0.8;" x="200.448" xlink:href="#mf88cec9744" y="307.584"/>
      </g>
     </g>
     <g id="text_3">
      <!-- 400 -->
      <g transform="translate(190.90425 322.182437)scale(0.1 -0.1)">
       <defs>
        <path d="M 2419 4116 
L 825 1625 
L 2419 1625 
L 2419 4116 
z
M 2253 4666 
L 3047 4666 
L 3047 1625 
L 3713 1625 
L 3713 1100 
L 3047 1100 
L 3047 0 
L 2419 0 
L 2419 1100 
L 313 1100 
L 313 1709 
L 2253 4666 
z
" id="DejaVuSans-34" transform="scale(0.015625)"/>
       </defs>
       <use xlink:href="#DejaVuSans-34"/>
       <use x="63.623047" xlink:href="#DejaVuSans-30"/>
       <use x="127.246094" xlink:href="#DejaVuSans-30"/>
      </g>
     </g>
    </g>
    <g id="xtick_4">
     <g id="line2d_7">
      <path clip-path="url(#pdb10e5da6d)" d="M 271.872 307.584 
L 271.872 41.472 
" style="fill:none;stroke:#b0b0b0;stroke-linecap:square;stroke-width:0.8;"/>
     </g>
     <g id="line2d_8">
      <g>
       <use style="stroke:#000000;stroke-width:0.8;" x="271.872" xlink:href="#mf88cec9744" y="307.584"/>
      </g>
     </g>
     <g id="text_4">
      <!-- 600 -->
      <g transform="translate(262.32825 322.182437)scale(0.1 -0.1)">
       <defs>
        <path d="M 2113 2584 
Q 1688 2584 1439 2293 
Q 1191 2003 1191 1497 
Q 1191 994 1439 701 
Q 1688 409 2113 409 
Q 2538 409 2786 701 
Q 3034 994 3034 1497 
Q 3034 2003 2786 2293 
Q 2538 2584 2113 2584 
z
M 3366 4563 
L 3366 3988 
Q 3128 4100 2886 4159 
Q 2644 4219 2406 4219 
Q 1781 4219 1451 3797 
Q 1122 3375 1075 2522 
Q 1259 2794 1537 2939 
Q 1816 3084 2150 3084 
Q 2853 3084 3261 2657 
Q 3669 2231 3669 1497 
Q 3669 778 3244 343 
Q 2819 -91 2113 -91 
Q 1303 -91 875 529 
Q 447 1150 447 2328 
Q 447 3434 972 4092 
Q 1497 4750 2381 4750 
Q 2619 4750 2861 4703 
Q 3103 4656 3366 4563 
z
" id="DejaVuSans-36" transform="scale(0.015625)"/>
       </defs>
       <use xlink:href="#DejaVuSans-36"/>
       <use x="63.623047" xlink:href="#DejaVuSans-30"/>
       <use x="127.246094" xlink:href="#DejaVuSans-30"/>
      </g>
     </g>
    </g>
    <g id="xtick_5">
     <g id="line2d_9">
      <path clip-path="url(#pdb10e5da6d)" d="M 343.296 307.584 
L 343.296 41.472 
" style="fill:none;stroke:#b0b0b0;stroke-linecap:square;stroke-width:0.8;"/>
     </g>
     <g id="line2d_10">
      <g>
       <use style="stroke:#000000;stroke-width:0.8;" x="343.296" xlink:href="#mf88cec9744" y="307.584"/>
      </g>
     </g>
     <g id="text_5">
      <!-- 800 -->
      <g transform="translate(333.75225 322.182437)scale(0.1 -0.1)">
       <defs>
        <path d="M 2034 2216 
Q 1584 2216 1326 1975 
Q 1069 1734 1069 1313 
Q 1069 891 1326 650 
Q 1584 409 2034 409 
Q 2484 409 2743 651 
Q 3003 894 3003 1313 
Q 3003 1734 2745 1975 
Q 2488 2216 2034 2216 
z
M 1403 2484 
Q 997 2584 770 2862 
Q 544 3141 544 3541 
Q 544 4100 942 4425 
Q 1341 4750 2034 4750 
Q 2731 4750 3128 4425 
Q 3525 4100 3525 3541 
Q 3525 3141 3298 2862 
Q 3072 2584 2669 2484 
Q 3125 2378 3379 2068 
Q 3634 1759 3634 1313 
Q 3634 634 3220 271 
Q 2806 -91 2034 -91 
Q 1263 -91 848 271 
Q 434 634 434 1313 
Q 434 1759 690 2068 
Q 947 2378 1403 2484 
z
M 1172 3481 
Q 1172 3119 1398 2916 
Q 1625 2713 2034 2713 
Q 2441 2713 2670 2916 
Q 2900 3119 2900 3481 
Q 2900 3844 2670 4047 
Q 2441 4250 2034 4250 
Q 1625 4250 1398 4047 
Q 1172 3844 1172 3481 
z
" id="DejaVuSans-38" transform="scale(0.015625)"/>
       </defs>
       <use xlink:href="#DejaVuSans-38"/>
       <use x="63.623047" xlink:href="#DejaVuSans-30"/>
       <use x="127.246094" xlink:href="#DejaVuSans-30"/>
      </g>
     </g>
    </g>
    <g id="xtick_6">
     <g id="line2d_11">
      <path clip-path="url(#pdb10e5da6d)" d="M 414.72 307.584 
L 414.72 41.472 
" style="fill:none;stroke:#b0b0b0;stroke-linecap:square;stroke-width:0.8;"/>
     </g>
     <g id="line2d_12">
      <g>
       <use style="stroke:#000000;stroke-width:0.8;" x="414.72" xlink:href="#mf88cec9744" y="307.584"/>
      </g>
     </g>
     <g id="text_6">
      <!-- 1000 -->
      <g transform="translate(401.995 322.182437)scale(0.1 -0.1)">
       <defs>
        <path d="M 794 531 
L 1825 531 
L 1825 4091 
L 703 3866 
L 703 4441 
L 1819 4666 
L 2450 4666 
L 2450 531 
L 3481 531 
L 3481 0 
L 794 0 
L 794 531 
z
" id="DejaVuSans-31" transform="scale(0.015625)"/>
       </defs>
       <use xlink:href="#DejaVuSans-31"/>
       <use x="63.623047" xlink:href="#DejaVuSans-30"/>
       <use x="127.246094" xlink:href="#DejaVuSans-30"/>
       <use x="190.869141" xlink:href="#DejaVuSans-30"/>
      </g>
     </g>
    </g>
    <g id="text_7">
     <!-- Episodes -->
     <g transform="translate(213.917812 335.860562)scale(0.1 -0.1)">
      <defs>
       <path d="M 628 4666 
L 3578 4666 
L 3578 4134 
L 1259 4134 
L 1259 2753 
L 3481 2753 
L 3481 2222 
L 1259 2222 
L 1259 531 
L 3634 531 
L 3634 0 
L 628 0 
L 628 4666 
z
" id="DejaVuSans-45" transform="scale(0.015625)"/>
       <path d="M 1159 525 
L 1159 -1331 
L 581 -1331 
L 581 3500 
L 1159 3500 
L 1159 2969 
Q 1341 3281 1617 3432 
Q 1894 3584 2278 3584 
Q 2916 3584 3314 3078 
Q 3713 2572 3713 1747 
Q 3713 922 3314 415 
Q 2916 -91 2278 -91 
Q 1894 -91 1617 61 
Q 1341 213 1159 525 
z
M 3116 1747 
Q 3116 2381 2855 2742 
Q 2594 3103 2138 3103 
Q 1681 3103 1420 2742 
Q 1159 2381 1159 1747 
Q 1159 1113 1420 752 
Q 1681 391 2138 391 
Q 2594 391 2855 752 
Q 3116 1113 3116 1747 
z
" id="DejaVuSans-70" transform="scale(0.015625)"/>
       <path d="M 603 3500 
L 1178 3500 
L 1178 0 
L 603 0 
L 603 3500 
z
M 603 4863 
L 1178 4863 
L 1178 4134 
L 603 4134 
L 603 4863 
z
" id="DejaVuSans-69" transform="scale(0.015625)"/>
       <path d="M 2834 3397 
L 2834 2853 
Q 2591 2978 2328 3040 
Q 2066 3103 1784 3103 
Q 1356 3103 1142 2972 
Q 928 2841 928 2578 
Q 928 2378 1081 2264 
Q 1234 2150 1697 2047 
L 1894 2003 
Q 2506 1872 2764 1633 
Q 3022 1394 3022 966 
Q 3022 478 2636 193 
Q 2250 -91 1575 -91 
Q 1294 -91 989 -36 
Q 684 19 347 128 
L 347 722 
Q 666 556 975 473 
Q 1284 391 1588 391 
Q 1994 391 2212 530 
Q 2431 669 2431 922 
Q 2431 1156 2273 1281 
Q 2116 1406 1581 1522 
L 1381 1569 
Q 847 1681 609 1914 
Q 372 2147 372 2553 
Q 372 3047 722 3315 
Q 1072 3584 1716 3584 
Q 2034 3584 2315 3537 
Q 2597 3491 2834 3397 
z
" id="DejaVuSans-73" transform="scale(0.015625)"/>
       <path d="M 1959 3097 
Q 1497 3097 1228 2736 
Q 959 2375 959 1747 
Q 959 1119 1226 758 
Q 1494 397 1959 397 
Q 2419 397 2687 759 
Q 2956 1122 2956 1747 
Q 2956 2369 2687 2733 
Q 2419 3097 1959 3097 
z
M 1959 3584 
Q 2709 3584 3137 3096 
Q 3566 2609 3566 1747 
Q 3566 888 3137 398 
Q 2709 -91 1959 -91 
Q 1206 -91 779 398 
Q 353 888 353 1747 
Q 353 2609 779 3096 
Q 1206 3584 1959 3584 
z
" id="DejaVuSans-6f" transform="scale(0.015625)"/>
       <path d="M 2906 2969 
L 2906 4863 
L 3481 4863 
L 3481 0 
L 2906 0 
L 2906 525 
Q 2725 213 2448 61 
Q 2172 -91 1784 -91 
Q 1150 -91 751 415 
Q 353 922 353 1747 
Q 353 2572 751 3078 
Q 1150 3584 1784 3584 
Q 2172 3584 2448 3432 
Q 2725 3281 2906 2969 
z
M 947 1747 
Q 947 1113 1208 752 
Q 1469 391 1925 391 
Q 2381 391 2643 752 
Q 2906 1113 2906 1747 
Q 2906 2381 2643 2742 
Q 2381 3103 1925 3103 
Q 1469 3103 1208 2742 
Q 947 2381 947 1747 
z
" id="DejaVuSans-64" transform="scale(0.015625)"/>
       <path d="M 3597 1894 
L 3597 1613 
L 953 1613 
Q 991 1019 1311 708 
Q 1631 397 2203 397 
Q 2534 397 2845 478 
Q 3156 559 3463 722 
L 3463 178 
Q 3153 47 2828 -22 
Q 2503 -91 2169 -91 
Q 1331 -91 842 396 
Q 353 884 353 1716 
Q 353 2575 817 3079 
Q 1281 3584 2069 3584 
Q 2775 3584 3186 3129 
Q 3597 2675 3597 1894 
z
M 3022 2063 
Q 3016 2534 2758 2815 
Q 2500 3097 2075 3097 
Q 1594 3097 1305 2825 
Q 1016 2553 972 2059 
L 3022 2063 
z
" id="DejaVuSans-65" transform="scale(0.015625)"/>
      </defs>
      <use xlink:href="#DejaVuSans-45"/>
      <use x="63.183594" xlink:href="#DejaVuSans-70"/>
      <use x="126.660156" xlink:href="#DejaVuSans-69"/>
      <use x="154.443359" xlink:href="#DejaVuSans-73"/>
      <use x="206.542969" xlink:href="#DejaVuSans-6f"/>
      <use x="267.724609" xlink:href="#DejaVuSans-64"/>
      <use x="331.201172" xlink:href="#DejaVuSans-65"/>
      <use x="392.724609" xlink:href="#DejaVuSans-73"/>
     </g>
    </g>
   </g>
   <g id="matplotlib.axis_2">
    <g id="ytick_1">
     <g id="line2d_13">
      <path clip-path="url(#pdb10e5da6d)" d="M 57.6 302.733644 
L 414.72 302.733644 
" style="fill:none;stroke:#b0b0b0;stroke-linecap:square;stroke-width:0.8;"/>
     </g>
     <g id="line2d_14">
      <defs>
       <path d="M 0 0 
L -3.5 0 
" id="m41034fea51" style="stroke:#000000;stroke-width:0.8;"/>
      </defs>
      <g>
       <use style="stroke:#000000;stroke-width:0.8;" x="57.6" xlink:href="#m41034fea51" y="302.733644"/>
      </g>
     </g>
     <g id="text_8">
      <!-- −1.4 -->
      <g transform="translate(26.317187 306.532863)scale(0.1 -0.1)">
       <defs>
        <path d="M 678 2272 
L 4684 2272 
L 4684 1741 
L 678 1741 
L 678 2272 
z
" id="DejaVuSans-2212" transform="scale(0.015625)"/>
        <path d="M 684 794 
L 1344 794 
L 1344 0 
L 684 0 
L 684 794 
z
" id="DejaVuSans-2e" transform="scale(0.015625)"/>
       </defs>
       <use xlink:href="#DejaVuSans-2212"/>
       <use x="83.789062" xlink:href="#DejaVuSans-31"/>
       <use x="147.412109" xlink:href="#DejaVuSans-2e"/>
       <use x="179.199219" xlink:href="#DejaVuSans-34"/>
      </g>
     </g>
    </g>
    <g id="ytick_2">
     <g id="line2d_15">
      <path clip-path="url(#pdb10e5da6d)" d="M 57.6 268.186769 
L 414.72 268.186769 
" style="fill:none;stroke:#b0b0b0;stroke-linecap:square;stroke-width:0.8;"/>
     </g>
     <g id="line2d_16">
      <g>
       <use style="stroke:#000000;stroke-width:0.8;" x="57.6" xlink:href="#m41034fea51" y="268.186769"/>
      </g>
     </g>
     <g id="text_9">
      <!-- −1.2 -->
      <g transform="translate(26.317187 271.985988)scale(0.1 -0.1)">
       <use xlink:href="#DejaVuSans-2212"/>
       <use x="83.789062" xlink:href="#DejaVuSans-31"/>
       <use x="147.412109" xlink:href="#DejaVuSans-2e"/>
       <use x="179.199219" xlink:href="#DejaVuSans-32"/>
      </g>
     </g>
    </g>
    <g id="ytick_3">
     <g id="line2d_17">
      <path clip-path="url(#pdb10e5da6d)" d="M 57.6 233.639895 
L 414.72 233.639895 
" style="fill:none;stroke:#b0b0b0;stroke-linecap:square;stroke-width:0.8;"/>
     </g>
     <g id="line2d_18">
      <g>
       <use style="stroke:#000000;stroke-width:0.8;" x="57.6" xlink:href="#m41034fea51" y="233.639895"/>
      </g>
     </g>
     <g id="text_10">
      <!-- −1.0 -->
      <g transform="translate(26.317187 237.439114)scale(0.1 -0.1)">
       <use xlink:href="#DejaVuSans-2212"/>
       <use x="83.789062" xlink:href="#DejaVuSans-31"/>
       <use x="147.412109" xlink:href="#DejaVuSans-2e"/>
       <use x="179.199219" xlink:href="#DejaVuSans-30"/>
      </g>
     </g>
    </g>
    <g id="ytick_4">
     <g id="line2d_19">
      <path clip-path="url(#pdb10e5da6d)" d="M 57.6 199.09302 
L 414.72 199.09302 
" style="fill:none;stroke:#b0b0b0;stroke-linecap:square;stroke-width:0.8;"/>
     </g>
     <g id="line2d_20">
      <g>
       <use style="stroke:#000000;stroke-width:0.8;" x="57.6" xlink:href="#m41034fea51" y="199.09302"/>
      </g>
     </g>
     <g id="text_11">
      <!-- −0.8 -->
      <g transform="translate(26.317187 202.892239)scale(0.1 -0.1)">
       <use xlink:href="#DejaVuSans-2212"/>
       <use x="83.789062" xlink:href="#DejaVuSans-30"/>
       <use x="147.412109" xlink:href="#DejaVuSans-2e"/>
       <use x="179.199219" xlink:href="#DejaVuSans-38"/>
      </g>
     </g>
    </g>
    <g id="ytick_5">
     <g id="line2d_21">
      <path clip-path="url(#pdb10e5da6d)" d="M 57.6 164.546145 
L 414.72 164.546145 
" style="fill:none;stroke:#b0b0b0;stroke-linecap:square;stroke-width:0.8;"/>
     </g>
     <g id="line2d_22">
      <g>
       <use style="stroke:#000000;stroke-width:0.8;" x="57.6" xlink:href="#m41034fea51" y="164.546145"/>
      </g>
     </g>
     <g id="text_12">
      <!-- −0.6 -->
      <g transform="translate(26.317187 168.345364)scale(0.1 -0.1)">
       <use xlink:href="#DejaVuSans-2212"/>
       <use x="83.789062" xlink:href="#DejaVuSans-30"/>
       <use x="147.412109" xlink:href="#DejaVuSans-2e"/>
       <use x="179.199219" xlink:href="#DejaVuSans-36"/>
      </g>
     </g>
    </g>
    <g id="ytick_6">
     <g id="line2d_23">
      <path clip-path="url(#pdb10e5da6d)" d="M 57.6 129.999271 
L 414.72 129.999271 
" style="fill:none;stroke:#b0b0b0;stroke-linecap:square;stroke-width:0.8;"/>
     </g>
     <g id="line2d_24">
      <g>
       <use style="stroke:#000000;stroke-width:0.8;" x="57.6" xlink:href="#m41034fea51" y="129.999271"/>
      </g>
     </g>
     <g id="text_13">
      <!-- −0.4 -->
      <g transform="translate(26.317187 133.79849)scale(0.1 -0.1)">
       <use xlink:href="#DejaVuSans-2212"/>
       <use x="83.789062" xlink:href="#DejaVuSans-30"/>
       <use x="147.412109" xlink:href="#DejaVuSans-2e"/>
       <use x="179.199219" xlink:href="#DejaVuSans-34"/>
      </g>
     </g>
    </g>
    <g id="ytick_7">
     <g id="line2d_25">
      <path clip-path="url(#pdb10e5da6d)" d="M 57.6 95.452396 
L 414.72 95.452396 
" style="fill:none;stroke:#b0b0b0;stroke-linecap:square;stroke-width:0.8;"/>
     </g>
     <g id="line2d_26">
      <g>
       <use style="stroke:#000000;stroke-width:0.8;" x="57.6" xlink:href="#m41034fea51" y="95.452396"/>
      </g>
     </g>
     <g id="text_14">
      <!-- −0.2 -->
      <g transform="translate(26.317187 99.251615)scale(0.1 -0.1)">
       <use xlink:href="#DejaVuSans-2212"/>
       <use x="83.789062" xlink:href="#DejaVuSans-30"/>
       <use x="147.412109" xlink:href="#DejaVuSans-2e"/>
       <use x="179.199219" xlink:href="#DejaVuSans-32"/>
      </g>
     </g>
    </g>
    <g id="ytick_8">
     <g id="line2d_27">
      <path clip-path="url(#pdb10e5da6d)" d="M 57.6 60.905522 
L 414.72 60.905522 
" style="fill:none;stroke:#b0b0b0;stroke-linecap:square;stroke-width:0.8;"/>
     </g>
     <g id="line2d_28">
      <g>
       <use style="stroke:#000000;stroke-width:0.8;" x="57.6" xlink:href="#m41034fea51" y="60.905522"/>
      </g>
     </g>
     <g id="text_15">
      <!-- 0.0 -->
      <g transform="translate(34.696875 64.70474)scale(0.1 -0.1)">
       <use xlink:href="#DejaVuSans-30"/>
       <use x="63.623047" xlink:href="#DejaVuSans-2e"/>
       <use x="95.410156" xlink:href="#DejaVuSans-30"/>
      </g>
     </g>
    </g>
    <g id="text_16">
     <!-- Cumulative Reward -->
     <g transform="translate(20.2375 223.275656)rotate(-90)scale(0.1 -0.1)">
      <defs>
       <path d="M 4122 4306 
L 4122 3641 
Q 3803 3938 3442 4084 
Q 3081 4231 2675 4231 
Q 1875 4231 1450 3742 
Q 1025 3253 1025 2328 
Q 1025 1406 1450 917 
Q 1875 428 2675 428 
Q 3081 428 3442 575 
Q 3803 722 4122 1019 
L 4122 359 
Q 3791 134 3420 21 
Q 3050 -91 2638 -91 
Q 1578 -91 968 557 
Q 359 1206 359 2328 
Q 359 3453 968 4101 
Q 1578 4750 2638 4750 
Q 3056 4750 3426 4639 
Q 3797 4528 4122 4306 
z
" id="DejaVuSans-43" transform="scale(0.015625)"/>
       <path d="M 544 1381 
L 544 3500 
L 1119 3500 
L 1119 1403 
Q 1119 906 1312 657 
Q 1506 409 1894 409 
Q 2359 409 2629 706 
Q 2900 1003 2900 1516 
L 2900 3500 
L 3475 3500 
L 3475 0 
L 2900 0 
L 2900 538 
Q 2691 219 2414 64 
Q 2138 -91 1772 -91 
Q 1169 -91 856 284 
Q 544 659 544 1381 
z
M 1991 3584 
L 1991 3584 
z
" id="DejaVuSans-75" transform="scale(0.015625)"/>
       <path d="M 3328 2828 
Q 3544 3216 3844 3400 
Q 4144 3584 4550 3584 
Q 5097 3584 5394 3201 
Q 5691 2819 5691 2113 
L 5691 0 
L 5113 0 
L 5113 2094 
Q 5113 2597 4934 2840 
Q 4756 3084 4391 3084 
Q 3944 3084 3684 2787 
Q 3425 2491 3425 1978 
L 3425 0 
L 2847 0 
L 2847 2094 
Q 2847 2600 2669 2842 
Q 2491 3084 2119 3084 
Q 1678 3084 1418 2786 
Q 1159 2488 1159 1978 
L 1159 0 
L 581 0 
L 581 3500 
L 1159 3500 
L 1159 2956 
Q 1356 3278 1631 3431 
Q 1906 3584 2284 3584 
Q 2666 3584 2933 3390 
Q 3200 3197 3328 2828 
z
" id="DejaVuSans-6d" transform="scale(0.015625)"/>
       <path d="M 603 4863 
L 1178 4863 
L 1178 0 
L 603 0 
L 603 4863 
z
" id="DejaVuSans-6c" transform="scale(0.015625)"/>
       <path d="M 2194 1759 
Q 1497 1759 1228 1600 
Q 959 1441 959 1056 
Q 959 750 1161 570 
Q 1363 391 1709 391 
Q 2188 391 2477 730 
Q 2766 1069 2766 1631 
L 2766 1759 
L 2194 1759 
z
M 3341 1997 
L 3341 0 
L 2766 0 
L 2766 531 
Q 2569 213 2275 61 
Q 1981 -91 1556 -91 
Q 1019 -91 701 211 
Q 384 513 384 1019 
Q 384 1609 779 1909 
Q 1175 2209 1959 2209 
L 2766 2209 
L 2766 2266 
Q 2766 2663 2505 2880 
Q 2244 3097 1772 3097 
Q 1472 3097 1187 3025 
Q 903 2953 641 2809 
L 641 3341 
Q 956 3463 1253 3523 
Q 1550 3584 1831 3584 
Q 2591 3584 2966 3190 
Q 3341 2797 3341 1997 
z
" id="DejaVuSans-61" transform="scale(0.015625)"/>
       <path d="M 1172 4494 
L 1172 3500 
L 2356 3500 
L 2356 3053 
L 1172 3053 
L 1172 1153 
Q 1172 725 1289 603 
Q 1406 481 1766 481 
L 2356 481 
L 2356 0 
L 1766 0 
Q 1100 0 847 248 
Q 594 497 594 1153 
L 594 3053 
L 172 3053 
L 172 3500 
L 594 3500 
L 594 4494 
L 1172 4494 
z
" id="DejaVuSans-74" transform="scale(0.015625)"/>
       <path d="M 191 3500 
L 800 3500 
L 1894 563 
L 2988 3500 
L 3597 3500 
L 2284 0 
L 1503 0 
L 191 3500 
z
" id="DejaVuSans-76" transform="scale(0.015625)"/>
       <path id="DejaVuSans-20" transform="scale(0.015625)"/>
       <path d="M 2841 2188 
Q 3044 2119 3236 1894 
Q 3428 1669 3622 1275 
L 4263 0 
L 3584 0 
L 2988 1197 
Q 2756 1666 2539 1819 
Q 2322 1972 1947 1972 
L 1259 1972 
L 1259 0 
L 628 0 
L 628 4666 
L 2053 4666 
Q 2853 4666 3247 4331 
Q 3641 3997 3641 3322 
Q 3641 2881 3436 2590 
Q 3231 2300 2841 2188 
z
M 1259 4147 
L 1259 2491 
L 2053 2491 
Q 2509 2491 2742 2702 
Q 2975 2913 2975 3322 
Q 2975 3731 2742 3939 
Q 2509 4147 2053 4147 
L 1259 4147 
z
" id="DejaVuSans-52" transform="scale(0.015625)"/>
       <path d="M 269 3500 
L 844 3500 
L 1563 769 
L 2278 3500 
L 2956 3500 
L 3675 769 
L 4391 3500 
L 4966 3500 
L 4050 0 
L 3372 0 
L 2619 2869 
L 1863 0 
L 1184 0 
L 269 3500 
z
" id="DejaVuSans-77" transform="scale(0.015625)"/>
       <path d="M 2631 2963 
Q 2534 3019 2420 3045 
Q 2306 3072 2169 3072 
Q 1681 3072 1420 2755 
Q 1159 2438 1159 1844 
L 1159 0 
L 581 0 
L 581 3500 
L 1159 3500 
L 1159 2956 
Q 1341 3275 1631 3429 
Q 1922 3584 2338 3584 
Q 2397 3584 2469 3576 
Q 2541 3569 2628 3553 
L 2631 2963 
z
" id="DejaVuSans-72" transform="scale(0.015625)"/>
      </defs>
      <use xlink:href="#DejaVuSans-43"/>
      <use x="69.824219" xlink:href="#DejaVuSans-75"/>
      <use x="133.203125" xlink:href="#DejaVuSans-6d"/>
      <use x="230.615234" xlink:href="#DejaVuSans-75"/>
      <use x="293.994141" xlink:href="#DejaVuSans-6c"/>
      <use x="321.777344" xlink:href="#DejaVuSans-61"/>
      <use x="383.056641" xlink:href="#DejaVuSans-74"/>
      <use x="422.265625" xlink:href="#DejaVuSans-69"/>
      <use x="450.048828" xlink:href="#DejaVuSans-76"/>
      <use x="509.228516" xlink:href="#DejaVuSans-65"/>
      <use x="570.751953" xlink:href="#DejaVuSans-20"/>
      <use x="602.539062" xlink:href="#DejaVuSans-52"/>
      <use x="667.521484" xlink:href="#DejaVuSans-65"/>
      <use x="729.044922" xlink:href="#DejaVuSans-77"/>
      <use x="810.832031" xlink:href="#DejaVuSans-61"/>
      <use x="872.111328" xlink:href="#DejaVuSans-72"/>
      <use x="911.474609" xlink:href="#DejaVuSans-64"/>
     </g>
    </g>
    <g id="text_17">
     <!-- 1e10 -->
     <g transform="translate(57.6 38.472)scale(0.1 -0.1)">
      <use xlink:href="#DejaVuSans-31"/>
      <use x="63.623047" xlink:href="#DejaVuSans-65"/>
      <use x="125.146484" xlink:href="#DejaVuSans-31"/>
      <use x="188.769531" xlink:href="#DejaVuSans-30"/>
     </g>
    </g>
   </g>
   <g id="line2d_29">
    <path clip-path="url(#pdb10e5da6d)" d="M 57.6 83.268655 
L 57.95712 78.229975 
L 58.31424 78.834955 
L 58.67136 88.733997 
L 59.3856 78.229975 
L 59.74272 78.834955 
L 60.09984 88.733997 
L 60.81408 78.229975 
L 61.1712 78.834955 
L 61.52832 88.733997 
L 62.24256 78.229975 
L 62.59968 78.834955 
L 62.9568 88.733997 
L 63.67104 78.229975 
L 64.02816 78.834955 
L 64.38528 88.733997 
L 65.09952 78.229975 
L 65.45664 78.834955 
L 65.81376 88.733997 
L 66.528 78.229975 
L 66.88512 78.834955 
L 67.24224 88.733997 
L 67.95648 78.229975 
L 68.3136 78.834955 
L 68.67072 88.733997 
L 69.38496 78.229975 
L 69.74208 78.834955 
L 70.0992 88.733997 
L 70.81344 78.229975 
L 71.17056 78.834955 
L 71.52768 88.733997 
L 72.24192 78.229975 
L 72.59904 78.834955 
L 72.95616 88.733997 
L 73.6704 78.229975 
L 74.02752 78.834955 
L 74.38464 88.733997 
L 75.09888 78.229975 
L 75.456 78.834955 
L 75.81312 88.733997 
L 76.52736 78.229975 
L 76.88448 78.834955 
L 77.2416 88.733997 
L 77.95584 78.229975 
L 78.31296 78.834955 
L 78.67008 88.733997 
L 79.38432 78.229975 
L 79.74144 78.834955 
L 80.09856 88.733997 
L 80.8128 78.229975 
L 81.16992 78.834955 
L 81.52704 88.733997 
L 82.24128 78.229975 
L 82.5984 78.834955 
L 82.95552 88.733997 
L 83.66976 78.229975 
L 84.02688 78.834955 
L 84.384 88.733997 
L 85.09824 78.229975 
L 85.45536 78.834955 
L 85.81248 88.733997 
L 86.52672 78.229975 
L 86.88384 78.834955 
L 87.24096 88.733997 
L 87.9552 78.229975 
L 88.31232 78.834955 
L 88.66944 88.733997 
L 89.38368 78.229975 
L 89.7408 78.834955 
L 90.09792 88.733997 
L 90.81216 78.229975 
L 91.16928 78.834955 
L 91.5264 88.733997 
L 92.24064 78.229975 
L 92.59776 78.834955 
L 92.95488 88.733997 
L 93.312 79.78285 
L 93.66912 76.725307 
L 94.02624 91.657184 
L 94.38336 79.297435 
L 94.74048 82.091836 
L 95.0976 82.444835 
L 95.45472 86.985675 
L 96.16896 72.885361 
L 96.52608 94.749161 
L 96.8832 76.818526 
L 97.24032 105.216813 
L 97.59744 91.385342 
L 97.95456 87.115608 
L 98.31168 86.910518 
L 98.6688 90.215878 
L 99.02592 90.176528 
L 99.38304 145.895271 
L 99.74016 77.403267 
L 100.09728 121.678661 
L 100.4544 79.850768 
L 100.81152 87.377311 
L 101.16864 79.362358 
L 101.52576 84.530829 
L 101.88288 77.103024 
L 102.24 98.686207 
L 102.59712 82.36286 
L 102.95424 268.800882 
L 103.31136 81.337599 
L 103.66848 102.380512 
L 104.0256 104.350745 
L 104.38272 80.835624 
L 104.73984 108.48464 
L 105.09696 85.34778 
L 105.45408 95.972088 
L 105.8112 84.128457 
L 106.16832 104.828638 
L 106.88256 89.183781 
L 107.23968 100.783452 
L 107.5968 91.022009 
L 107.95392 84.528359 
L 108.31104 92.736875 
L 108.66816 85.210031 
L 109.02528 124.362591 
L 109.3824 78.166109 
L 109.73952 125.061869 
L 110.09664 81.317584 
L 110.45376 80.060377 
L 110.81088 81.003612 
L 111.168 85.134336 
L 111.52512 109.054796 
L 112.23936 81.293676 
L 112.59648 87.590024 
L 112.9536 77.803251 
L 113.66784 90.033751 
L 114.02496 75.549983 
L 114.38208 95.224878 
L 114.7392 85.86313 
L 115.09632 86.058591 
L 115.45344 77.432221 
L 115.81056 92.341577 
L 116.16768 87.281673 
L 116.5248 85.420004 
L 116.88192 79.121263 
L 117.23904 82.137151 
L 117.59616 94.819613 
L 117.95328 83.576262 
L 118.3104 84.213924 
L 118.66752 87.023074 
L 119.02464 192.68856 
L 119.38176 94.84189 
L 119.73888 106.638684 
L 120.096 91.349723 
L 120.45312 90.195242 
L 120.81024 89.753742 
L 121.16736 115.473926 
L 121.52448 96.819328 
L 121.8816 99.461519 
L 122.23872 83.843028 
L 122.59584 91.771256 
L 122.95296 77.84754 
L 123.31008 97.717917 
L 123.6672 105.719421 
L 124.38144 80.581506 
L 124.73856 82.669475 
L 125.09568 73.611198 
L 125.4528 82.703702 
L 125.80992 78.785146 
L 126.16704 79.418148 
L 126.52416 146.208638 
L 126.88128 73.052389 
L 127.2384 88.610924 
L 127.59552 83.146195 
L 127.95264 82.793368 
L 128.30976 83.340438 
L 128.66688 82.477844 
L 129.024 86.489073 
L 129.38112 101.06149 
L 129.73824 89.678244 
L 130.09536 143.15555 
L 130.45248 72.845094 
L 130.8096 130.123301 
L 131.16672 84.4622 
L 131.52384 106.650642 
L 131.88096 91.264749 
L 132.23808 85.948506 
L 132.5952 90.178179 
L 132.95232 88.71955 
L 133.30944 75.859454 
L 134.02368 90.056558 
L 134.3808 80.114066 
L 134.73792 86.176093 
L 135.09504 81.348166 
L 135.45216 98.867287 
L 135.80928 80.013588 
L 136.1664 73.800956 
L 136.52352 93.539403 
L 136.88064 81.796889 
L 137.23776 80.917231 
L 137.59488 82.31533 
L 137.952 108.628025 
L 138.30912 87.592377 
L 138.66624 86.844109 
L 139.02336 74.155392 
L 139.38048 90.220097 
L 139.7376 73.999063 
L 140.09472 92.125572 
L 140.45184 78.459778 
L 140.80896 76.582637 
L 141.16608 89.409458 
L 141.5232 79.461231 
L 141.88032 74.891057 
L 142.23744 77.106534 
L 142.59456 75.439423 
L 142.95168 92.491537 
L 143.3088 98.172355 
L 143.66592 78.83075 
L 144.02304 139.150131 
L 144.38016 79.11001 
L 144.73728 77.73517 
L 145.0944 76.993215 
L 145.45152 87.769965 
L 145.80864 77.697443 
L 146.52288 101.360613 
L 146.88 85.83577 
L 147.23712 105.363406 
L 147.59424 80.754995 
L 147.95136 86.152606 
L 148.30848 80.75147 
L 148.6656 72.000718 
L 149.02272 81.976551 
L 149.37984 77.292137 
L 149.73696 82.430622 
L 150.09408 93.813897 
L 150.4512 82.398995 
L 150.80832 91.701885 
L 151.16544 105.447173 
L 151.52256 101.396464 
L 151.87968 83.211922 
L 152.2368 74.041428 
L 152.59392 82.779819 
L 152.95104 79.798601 
L 153.30816 87.796605 
L 153.66528 85.317471 
L 154.0224 87.009194 
L 154.73664 74.091728 
L 155.09376 81.504914 
L 155.45088 82.232173 
L 155.808 82.569328 
L 156.16512 79.931104 
L 156.52224 91.528284 
L 156.87936 107.133577 
L 157.5936 75.2852 
L 157.95072 82.303156 
L 158.30784 79.911065 
L 158.66496 81.435621 
L 159.02208 79.907871 
L 159.3792 82.370515 
L 159.73632 99.585209 
L 160.09344 76.59112 
L 160.45056 78.33066 
L 160.80768 75.732426 
L 161.52192 79.707751 
L 161.87904 75.237819 
L 162.23616 79.927257 
L 162.59328 80.791824 
L 162.9504 85.955176 
L 163.30752 81.611754 
L 163.66464 80.826525 
L 164.02176 87.469976 
L 164.37888 80.250304 
L 164.736 94.222992 
L 165.09312 86.245234 
L 165.45024 84.306874 
L 165.80736 81.261421 
L 166.16448 94.393428 
L 166.5216 82.387043 
L 166.87872 84.006308 
L 167.23584 87.123237 
L 167.59296 76.762736 
L 167.95008 110.710713 
L 168.3072 86.720582 
L 168.66432 84.300339 
L 169.02144 98.248598 
L 169.37856 81.443046 
L 169.73568 83.16878 
L 170.0928 81.843838 
L 170.44992 81.389554 
L 170.80704 87.319034 
L 171.16416 84.086082 
L 171.52128 85.543472 
L 171.8784 83.659095 
L 172.23552 89.625455 
L 172.59264 80.990789 
L 172.94976 84.068762 
L 173.30688 78.437755 
L 173.664 82.904816 
L 174.02112 76.795303 
L 174.37824 78.386155 
L 174.73536 111.13515 
L 175.09248 89.922992 
L 175.4496 158.167058 
L 175.80672 83.932705 
L 176.16384 76.152492 
L 176.52096 87.563399 
L 176.87808 82.350709 
L 177.2352 80.85615 
L 177.59232 86.124397 
L 177.94944 80.786377 
L 178.30656 77.164363 
L 179.0208 83.396482 
L 179.37792 82.668851 
L 179.73504 80.111527 
L 180.09216 78.836488 
L 180.44928 78.115623 
L 180.8064 85.376458 
L 181.16352 78.197789 
L 181.52064 86.806212 
L 181.87776 87.494777 
L 182.23488 91.657821 
L 182.592 94.039765 
L 182.94912 93.647735 
L 183.30624 83.163817 
L 183.66336 77.652647 
L 184.02048 78.505627 
L 184.3776 81.537415 
L 184.73472 90.727744 
L 185.09184 81.699262 
L 185.44896 88.245841 
L 185.80608 86.070566 
L 186.1632 77.085808 
L 186.52032 77.602258 
L 186.87744 76.90878 
L 187.23456 82.092736 
L 187.59168 73.771863 
L 187.9488 78.525535 
L 188.30592 86.035707 
L 188.66304 81.150979 
L 189.02016 78.956726 
L 189.37728 78.577147 
L 189.7344 75.141569 
L 190.09152 75.920219 
L 190.80576 85.181725 
L 191.16288 82.013188 
L 191.52 86.062764 
L 191.87712 82.091411 
L 192.23424 86.724684 
L 192.59136 79.92889 
L 192.94848 84.926928 
L 193.3056 71.70144 
L 193.66272 77.685373 
L 194.01984 72.56863 
L 194.37696 82.772074 
L 194.73408 77.497547 
L 195.0912 76.690753 
L 195.44832 72.303905 
L 196.16256 70.243298 
L 196.51968 78.553753 
L 196.8768 72.820096 
L 197.23392 75.108724 
L 197.59104 74.314925 
L 197.94816 71.685324 
L 198.6624 78.436855 
L 199.01952 87.327295 
L 199.37664 73.075025 
L 199.73376 78.443808 
L 200.09088 72.150302 
L 200.448 67.859172 
L 200.80512 71.699306 
L 201.16224 69.93899 
L 201.51936 68.759347 
L 201.87648 72.441428 
L 202.2336 72.215433 
L 202.59072 78.077051 
L 202.94784 73.235136 
L 203.30496 83.248346 
L 203.66208 70.661228 
L 204.0192 73.551496 
L 204.37632 69.977094 
L 204.73344 77.519717 
L 205.09056 69.140072 
L 205.44768 86.28689 
L 205.8048 67.87132 
L 206.16192 85.108255 
L 206.51904 69.318657 
L 206.87616 79.603742 
L 207.23328 69.330648 
L 207.5904 68.986156 
L 207.94752 74.222237 
L 208.30464 67.311828 
L 208.66176 70.340724 
L 209.01888 76.104754 
L 209.376 85.243917 
L 209.73312 68.864481 
L 210.09024 92.085214 
L 210.44736 68.30851 
L 210.80448 70.002476 
L 211.1616 70.99891 
L 211.51872 68.365911 
L 211.87584 73.785456 
L 212.23296 69.391935 
L 212.59008 75.092833 
L 212.9472 68.049142 
L 213.30432 76.583508 
L 213.66144 116.43481 
L 214.01856 79.330065 
L 214.7328 124.825235 
L 215.08992 85.196258 
L 215.44704 91.968838 
L 215.80416 83.828395 
L 216.16128 72.147967 
L 216.5184 75.361798 
L 216.87552 102.450927 
L 217.23264 76.681608 
L 217.58976 79.793496 
L 217.94688 70.883058 
L 218.304 77.438058 
L 218.66112 71.816191 
L 219.01824 77.641269 
L 219.37536 71.7445 
L 219.73248 71.168314 
L 220.0896 70.379381 
L 220.44672 73.502784 
L 220.80384 65.64746 
L 221.16096 72.457536 
L 221.51808 67.368891 
L 221.8752 70.19825 
L 222.23232 68.417543 
L 222.58944 71.141179 
L 222.94656 78.544009 
L 223.30368 72.358003 
L 223.6608 68.988904 
L 224.01792 92.505666 
L 224.37504 71.040471 
L 224.73216 69.093183 
L 225.08928 70.996496 
L 225.4464 66.670552 
L 225.80352 69.645817 
L 226.16064 77.900955 
L 226.51776 77.620211 
L 226.87488 79.110172 
L 227.232 72.528408 
L 227.58912 84.869722 
L 227.94624 67.586117 
L 228.30336 85.547397 
L 228.66048 68.560282 
L 229.0176 64.967569 
L 229.37472 74.017043 
L 229.73184 68.231469 
L 230.08896 76.977904 
L 230.44608 159.787092 
L 230.8032 82.960606 
L 231.16032 120.559341 
L 231.51744 69.837321 
L 231.87456 65.137196 
L 232.23168 74.656039 
L 232.5888 65.930329 
L 232.94592 70.217386 
L 233.30304 71.341413 
L 233.66016 101.347096 
L 234.01728 91.450453 
L 234.3744 105.39678 
L 234.73152 74.437597 
L 235.08864 65.167885 
L 235.44576 83.848291 
L 235.80288 65.320756 
L 236.16 67.070613 
L 236.87424 109.959493 
L 237.23136 70.346738 
L 237.58848 77.616085 
L 237.9456 70.885316 
L 238.30272 70.662314 
L 238.65984 69.866554 
L 239.01696 79.322544 
L 239.37408 70.582544 
L 239.7312 93.636343 
L 240.08832 68.752996 
L 240.44544 65.39985 
L 240.80256 79.60147 
L 241.15968 67.922733 
L 241.5168 71.166181 
L 241.87392 67.982813 
L 242.23104 77.737234 
L 242.58816 71.701165 
L 242.94528 71.708744 
L 243.3024 73.057241 
L 243.65952 75.683734 
L 244.01664 74.231622 
L 244.37376 76.00689 
L 244.73088 72.086604 
L 245.44512 92.770448 
L 245.80224 87.223486 
L 246.15936 68.889816 
L 246.51648 65.190513 
L 246.8736 66.932626 
L 247.58784 73.352758 
L 247.94496 70.601543 
L 248.30208 77.431575 
L 248.6592 72.51943 
L 249.01632 73.067785 
L 249.37344 73.262737 
L 249.73056 69.026081 
L 250.08768 90.209057 
L 250.4448 65.915844 
L 250.80192 165.97692 
L 251.15904 65.836661 
L 251.51616 120.851811 
L 251.87328 74.659927 
L 252.2304 79.179387 
L 252.58752 73.739363 
L 252.94464 84.599528 
L 253.30176 72.829896 
L 253.65888 73.762812 
L 254.016 78.374317 
L 254.37312 71.504476 
L 254.73024 75.094165 
L 255.08736 65.702015 
L 255.44448 75.793002 
L 255.8016 68.729803 
L 256.15872 83.357788 
L 256.51584 70.101885 
L 256.87296 79.819311 
L 257.23008 72.498146 
L 257.5872 67.460281 
L 257.94432 100.175892 
L 258.30144 84.449998 
L 258.65856 84.235881 
L 259.01568 68.712823 
L 259.3728 84.794293 
L 259.72992 72.066712 
L 260.08704 89.89829 
L 260.44416 72.843154 
L 261.1584 69.394135 
L 261.51552 71.206192 
L 261.87264 82.925028 
L 262.58688 72.684671 
L 262.944 79.571996 
L 263.30112 73.792912 
L 263.65824 70.854202 
L 264.01536 79.235147 
L 264.37248 71.658143 
L 264.7296 67.026733 
L 265.08672 82.376046 
L 265.44384 68.285834 
L 265.80096 84.690943 
L 266.15808 68.971104 
L 266.5152 72.562862 
L 266.87232 66.465664 
L 267.22944 76.831367 
L 267.58656 72.48783 
L 267.94368 86.193321 
L 268.3008 65.13666 
L 269.01504 88.463272 
L 269.37216 94.093526 
L 270.0864 79.422072 
L 270.44352 65.119755 
L 270.80064 65.670216 
L 271.15776 69.009189 
L 271.51488 64.8106 
L 271.872 103.271779 
L 272.22912 66.051638 
L 272.58624 108.749491 
L 272.94336 71.381229 
L 273.30048 79.636913 
L 273.6576 79.998294 
L 274.01472 99.337526 
L 274.37184 75.961554 
L 274.72896 68.861969 
L 275.08608 84.521519 
L 275.4432 67.325502 
L 275.80032 75.93714 
L 276.15744 244.103059 
L 276.51456 76.113989 
L 276.87168 204.856984 
L 277.2288 67.431265 
L 277.58592 66.316888 
L 277.94304 69.920179 
L 278.30016 67.18123 
L 278.65728 67.84656 
L 279.37152 71.365893 
L 279.72864 71.98037 
L 280.08576 71.128163 
L 280.44288 70.746711 
L 281.15712 66.481221 
L 281.51424 71.343526 
L 281.87136 81.69376 
L 282.22848 70.810336 
L 282.5856 85.064641 
L 282.94272 67.625029 
L 283.29984 74.123488 
L 283.65696 68.584567 
L 284.01408 69.201342 
L 284.3712 70.867107 
L 284.72832 68.002046 
L 285.08544 80.439836 
L 285.44256 65.847613 
L 285.79968 86.550875 
L 286.1568 70.039938 
L 286.51392 67.866215 
L 286.87104 68.780007 
L 287.22816 65.830604 
L 287.58528 73.805673 
L 287.9424 74.253106 
L 288.29952 85.598066 
L 289.01376 71.4825 
L 289.37088 65.563828 
L 289.728 74.101727 
L 290.08512 66.252423 
L 290.44224 65.820652 
L 290.79936 75.498387 
L 291.15648 67.640376 
L 291.5136 70.477003 
L 291.87072 67.700253 
L 292.22784 75.593482 
L 292.58496 67.564758 
L 292.94208 67.668397 
L 293.2992 79.599236 
L 293.65632 70.173214 
L 294.01344 90.681226 
L 294.37056 68.80865 
L 294.72768 82.984887 
L 295.0848 70.967949 
L 295.44192 74.748182 
L 295.79904 72.145742 
L 296.15616 66.913357 
L 296.51328 67.710419 
L 296.8704 87.515241 
L 297.22752 69.296225 
L 297.58464 75.222967 
L 297.94176 78.647884 
L 298.29888 70.568515 
L 298.656 82.774113 
L 299.01312 79.958161 
L 299.37024 69.335947 
L 299.72736 122.290839 
L 300.08448 70.509486 
L 300.4416 67.555587 
L 300.79872 70.272026 
L 301.15584 71.911014 
L 301.51296 74.494832 
L 301.87008 73.253059 
L 302.2272 77.326847 
L 302.58432 67.625461 
L 302.94144 68.801349 
L 303.29856 99.637509 
L 303.65568 76.425132 
L 304.0128 74.722176 
L 304.36992 71.032465 
L 304.72704 73.932469 
L 305.08416 71.649595 
L 305.7984 71.243227 
L 306.15552 66.633834 
L 306.51264 65.599504 
L 306.86976 65.842029 
L 307.22688 69.479938 
L 307.584 78.31463 
L 307.94112 78.352497 
L 308.29824 90.418591 
L 308.65536 107.952791 
L 309.01248 65.237786 
L 309.3696 71.934599 
L 309.72672 66.251273 
L 310.08384 69.07822 
L 310.44096 67.390881 
L 310.79808 70.224505 
L 311.1552 71.354726 
L 311.51232 71.946454 
L 311.86944 82.145706 
L 312.22656 66.94253 
L 312.58368 69.740757 
L 312.9408 70.5895 
L 313.29792 67.313276 
L 313.65504 89.862099 
L 314.01216 67.956761 
L 314.36928 75.185981 
L 314.7264 66.145378 
L 315.08352 69.056023 
L 315.44064 69.909312 
L 315.79776 69.401387 
L 316.15488 70.974753 
L 316.512 70.722169 
L 316.86912 66.375374 
L 317.22624 82.462714 
L 317.58336 70.979797 
L 317.94048 66.954869 
L 318.2976 66.375682 
L 318.65472 68.022304 
L 319.01184 66.553852 
L 319.36896 68.823106 
L 319.72608 66.750261 
L 320.0832 69.869979 
L 320.44032 69.920188 
L 320.79744 74.98096 
L 321.15456 65.723494 
L 321.51168 74.071083 
L 321.8688 69.363636 
L 322.22592 84.359263 
L 322.58304 68.575131 
L 322.94016 80.023209 
L 323.29728 70.267584 
L 323.6544 70.527209 
L 324.01152 65.735379 
L 324.36864 69.33887 
L 324.72576 71.656534 
L 325.08288 71.199444 
L 325.44 68.981813 
L 325.79712 68.308977 
L 326.15424 90.062257 
L 326.51136 64.936457 
L 326.86848 71.891949 
L 327.2256 67.451872 
L 327.58272 69.579101 
L 327.93984 69.805434 
L 328.29696 67.513339 
L 328.65408 66.491519 
L 329.0112 74.744344 
L 329.36832 75.529147 
L 329.72544 75.656636 
L 330.08256 69.537762 
L 330.43968 74.05005 
L 330.7968 71.6067 
L 331.15392 66.601281 
L 331.51104 74.911186 
L 332.22528 65.415774 
L 332.5824 71.749091 
L 332.93952 68.424327 
L 333.29664 68.652362 
L 333.65376 77.854123 
L 334.01088 67.191808 
L 334.368 67.588641 
L 334.72512 66.080575 
L 335.08224 70.755299 
L 335.43936 66.986939 
L 336.1536 70.485537 
L 336.51072 71.518468 
L 336.86784 65.163587 
L 337.22496 65.999 
L 337.58208 80.440107 
L 337.9392 76.861337 
L 338.29632 77.855028 
L 338.65344 99.744382 
L 339.01056 70.434097 
L 339.36768 68.630752 
L 339.7248 65.917323 
L 340.08192 75.099568 
L 340.43904 71.776644 
L 340.79616 67.101896 
L 341.15328 67.197601 
L 341.5104 78.451353 
L 341.86752 65.970933 
L 342.22464 66.898638 
L 342.93888 69.544101 
L 343.296 90.883599 
L 343.65312 66.972894 
L 344.36736 68.804699 
L 344.72448 91.685293 
L 345.0816 63.795725 
L 345.43872 78.184934 
L 345.79584 65.329061 
L 346.15296 74.296706 
L 346.51008 69.591557 
L 346.8672 75.428557 
L 347.22432 75.288079 
L 347.93856 75.629822 
L 348.29568 70.467588 
L 348.6528 89.722891 
L 349.00992 68.487326 
L 349.36704 66.954124 
L 349.72416 67.806365 
L 350.08128 70.664463 
L 350.79552 66.681556 
L 351.15264 69.536729 
L 351.50976 66.02631 
L 351.86688 73.213681 
L 352.224 67.345033 
L 352.58112 81.113923 
L 352.93824 73.429 
L 353.29536 72.62181 
L 353.65248 64.587049 
L 354.0096 74.002249 
L 354.36672 66.110637 
L 354.72384 64.912455 
L 355.08096 66.971015 
L 355.43808 64.38479 
L 355.7952 64.813492 
L 356.15232 75.423365 
L 356.50944 65.95141 
L 356.86656 72.959453 
L 357.22368 66.687625 
L 357.5808 74.684672 
L 357.93792 72.761131 
L 358.29504 74.385038 
L 359.00928 66.395523 
L 359.3664 78.815991 
L 359.72352 71.095091 
L 360.08064 76.350336 
L 360.43776 74.990752 
L 360.79488 71.011998 
L 361.152 76.356762 
L 361.86624 68.528055 
L 362.22336 73.878318 
L 362.58048 69.039683 
L 362.9376 67.526902 
L 363.29472 76.513914 
L 363.65184 67.499447 
L 364.00896 67.108441 
L 364.36608 73.318066 
L 364.7232 83.232735 
L 365.08032 77.637895 
L 365.43744 78.57019 
L 366.15168 66.491322 
L 366.5088 70.13277 
L 366.86592 66.262486 
L 367.22304 93.631676 
L 367.58016 65.495003 
L 367.93728 67.570783 
L 368.2944 67.833039 
L 368.65152 73.243846 
L 369.00864 66.939959 
L 369.36576 67.060929 
L 369.72288 65.648532 
L 370.08 72.700433 
L 370.43712 75.23924 
L 370.79424 68.442241 
L 371.15136 69.554342 
L 371.50848 71.811485 
L 371.8656 69.914791 
L 372.22272 66.95699 
L 372.57984 71.588092 
L 372.93696 67.207121 
L 373.29408 65.491731 
L 373.6512 76.23387 
L 374.00832 66.357609 
L 374.36544 71.2385 
L 374.72256 64.306637 
L 375.07968 70.275389 
L 375.4368 67.000888 
L 375.79392 67.990533 
L 376.15104 71.91528 
L 376.50816 71.049641 
L 376.86528 76.254044 
L 377.2224 91.99919 
L 377.57952 68.074438 
L 377.93664 67.294673 
L 378.29376 71.837495 
L 378.65088 67.360541 
L 379.008 192.036648 
L 379.36512 75.120824 
L 379.72224 83.050805 
L 380.07936 73.080379 
L 380.43648 68.051197 
L 380.7936 77.965309 
L 381.15072 69.987452 
L 381.50784 78.411869 
L 381.86496 67.658989 
L 382.22208 67.785984 
L 382.5792 70.474071 
L 382.93632 68.170604 
L 383.29344 67.328299 
L 383.65056 82.966815 
L 384.00768 65.077204 
L 384.3648 73.843371 
L 384.72192 67.176011 
L 385.07904 65.933142 
L 385.43616 68.124719 
L 385.79328 64.078356 
L 386.1504 114.149389 
L 386.50752 69.713742 
L 386.86464 285.408 
L 387.22176 78.241943 
L 387.57888 66.216739 
L 387.936 66.162606 
L 388.29312 67.613096 
L 388.65024 66.843554 
L 389.00736 81.698092 
L 389.36448 67.034338 
L 389.7216 76.220175 
L 390.07872 67.97112 
L 390.43584 78.944724 
L 390.79296 72.63477 
L 391.15008 80.63412 
L 391.5072 76.585845 
L 391.86432 68.189265 
L 392.22144 66.536082 
L 392.57856 71.261403 
L 392.93568 67.93636 
L 393.64992 79.709944 
L 394.00704 73.972302 
L 394.36416 173.001977 
L 394.72128 166.181275 
L 395.0784 71.000774 
L 395.43552 103.81654 
L 395.79264 74.390684 
L 396.50688 63.648 
L 396.864 65.584365 
L 397.22112 64.149044 
L 397.57824 65.33677 
L 397.93536 77.357826 
L 398.29248 67.157199 
L 399.00672 86.918788 
L 399.36384 68.94978 
L 399.72096 71.37807 
L 400.07808 67.945404 
L 400.4352 67.316171 
L 400.79232 68.360775 
L 401.50656 65.399219 
L 402.57792 69.185114 
L 402.93504 66.658326 
L 403.29216 76.486314 
L 403.64928 76.183 
L 404.0064 71.732883 
L 404.36352 80.083266 
L 404.72064 69.796671 
L 405.07776 75.497178 
L 405.43488 68.704185 
L 405.792 89.787267 
L 406.14912 66.907217 
L 406.50624 68.71761 
L 406.86336 65.89534 
L 407.22048 72.258568 
L 407.5776 72.463303 
L 407.93472 71.317157 
L 408.29184 73.681359 
L 408.64896 67.548627 
L 409.00608 74.969971 
L 409.72032 64.976759 
L 410.07744 71.428084 
L 410.43456 66.78662 
L 410.79168 69.518101 
L 411.1488 65.987879 
L 411.50592 68.759531 
L 411.86304 76.412682 
L 412.22016 67.854704 
L 412.57728 71.620213 
L 412.9344 66.043423 
L 413.29152 67.368721 
L 413.64864 64.890743 
L 414.00576 67.099047 
L 414.36288 73.071964 
L 414.36288 73.071964 
" style="fill:none;stroke:#0000ff;stroke-linecap:square;stroke-width:1.5;"/>
   </g>
   <g id="patch_3">
    <path d="M 57.6 307.584 
L 57.6 41.472 
" style="fill:none;stroke:#000000;stroke-linecap:square;stroke-linejoin:miter;stroke-width:0.8;"/>
   </g>
   <g id="patch_4">
    <path d="M 414.72 307.584 
L 414.72 41.472 
" style="fill:none;stroke:#000000;stroke-linecap:square;stroke-linejoin:miter;stroke-width:0.8;"/>
   </g>
   <g id="patch_5">
    <path d="M 57.6 307.584 
L 414.72 307.584 
" style="fill:none;stroke:#000000;stroke-linecap:square;stroke-linejoin:miter;stroke-width:0.8;"/>
   </g>
   <g id="patch_6">
    <path d="M 57.6 41.472 
L 414.72 41.472 
" style="fill:none;stroke:#000000;stroke-linecap:square;stroke-linejoin:miter;stroke-width:0.8;"/>
   </g>
   <g id="legend_1">
    <g id="patch_7">
     <path d="M 64.6 64.150125 
L 189.998437 64.150125 
Q 191.998437 64.150125 191.998437 62.150125 
L 191.998437 48.472 
Q 191.998437 46.472 189.998437 46.472 
L 64.6 46.472 
Q 62.6 46.472 62.6 48.472 
L 62.6 62.150125 
Q 62.6 64.150125 64.6 64.150125 
z
" style="fill:#ffffff;opacity:0.8;stroke:#cccccc;stroke-linejoin:miter;"/>
    </g>
    <g id="line2d_30">
     <path d="M 66.6 54.570438 
L 86.6 54.570438 
" style="fill:none;stroke:#0000ff;stroke-linecap:square;stroke-width:1.5;"/>
    </g>
    <g id="line2d_31"/>
    <g id="text_18">
     <!-- cumulative reward -->
     <g transform="translate(94.6 58.070438)scale(0.1 -0.1)">
      <defs>
       <path d="M 3122 3366 
L 3122 2828 
Q 2878 2963 2633 3030 
Q 2388 3097 2138 3097 
Q 1578 3097 1268 2742 
Q 959 2388 959 1747 
Q 959 1106 1268 751 
Q 1578 397 2138 397 
Q 2388 397 2633 464 
Q 2878 531 3122 666 
L 3122 134 
Q 2881 22 2623 -34 
Q 2366 -91 2075 -91 
Q 1284 -91 818 406 
Q 353 903 353 1747 
Q 353 2603 823 3093 
Q 1294 3584 2113 3584 
Q 2378 3584 2631 3529 
Q 2884 3475 3122 3366 
z
" id="DejaVuSans-63" transform="scale(0.015625)"/>
      </defs>
      <use xlink:href="#DejaVuSans-63"/>
      <use x="54.980469" xlink:href="#DejaVuSans-75"/>
      <use x="118.359375" xlink:href="#DejaVuSans-6d"/>
      <use x="215.771484" xlink:href="#DejaVuSans-75"/>
      <use x="279.150391" xlink:href="#DejaVuSans-6c"/>
      <use x="306.933594" xlink:href="#DejaVuSans-61"/>
      <use x="368.212891" xlink:href="#DejaVuSans-74"/>
      <use x="407.421875" xlink:href="#DejaVuSans-69"/>
      <use x="435.205078" xlink:href="#DejaVuSans-76"/>
      <use x="494.384766" xlink:href="#DejaVuSans-65"/>
      <use x="555.908203" xlink:href="#DejaVuSans-20"/>
      <use x="587.695312" xlink:href="#DejaVuSans-72"/>
      <use x="626.558594" xlink:href="#DejaVuSans-65"/>
      <use x="688.082031" xlink:href="#DejaVuSans-77"/>
      <use x="769.869141" xlink:href="#DejaVuSans-61"/>
      <use x="831.148438" xlink:href="#DejaVuSans-72"/>
      <use x="870.511719" xlink:href="#DejaVuSans-64"/>
     </g>
    </g>
   </g>
  </g>
 </g>
 <defs>
  <clipPath id="pdb10e5da6d">
   <rect height="266.112" width="357.12" x="57.6" y="41.472"/>
  </clipPath>
 </defs>
</svg>
