<?xml version="1.0" encoding="utf-8" standalone="no"?>
<!DOCTYPE svg PUBLIC "-//W3C//DTD SVG 1.1//EN"
  "http://www.w3.org/Graphics/SVG/1.1/DTD/svg11.dtd">
<svg xmlns:xlink="http://www.w3.org/1999/xlink" width="460.8pt" height="345.6pt" viewBox="0 0 460.8 345.6" xmlns="http://www.w3.org/2000/svg" version="1.1">
 <metadata>
  <rdf:RDF xmlns:dc="http://purl.org/dc/elements/1.1/" xmlns:cc="http://creativecommons.org/ns#" xmlns:rdf="http://www.w3.org/1999/02/22-rdf-syntax-ns#">
   <cc:Work>
    <dc:type rdf:resource="http://purl.org/dc/dcmitype/StillImage"/>
    <dc:date>2022-03-29T18:02:51.916609</dc:date>
    <dc:description>{"agent.algorithm": "RayProximalPolicyOptimization", "agent.algorithm.render_env": false, "agent.algorithm.num_workers": 0, "agent.algorithm.batch_mode": "complete_episodes", "agent.algorithm.lr": 5e-05, "agent.algorithm.train_batch_size": 200, "agent.algorithm.optimizer": "Adam", "agent.algorithm.vf_clip_param": 10, "agent.algorithm.model": {"fcnet_activation": "relu", "fcnet_hiddens": [50, 50]}, "env.env_class": "SchedulerPolicyRayEnvironment", "env.env_config": {"solver_driver": "DEdriver", "solver_driver_args": [10, 10, 15, "best1bin"], "maximize": false, "steps": 50, "state_metrics_names": ["DifferenceOfBest", "SolverStateHistory"], "state_metrics_config": [[40, false, 1, true, true], [{"CR": {"max": [1], "min": [0]}}, 40]], "reward_metric": "DeltaBest", "reward_metric_config": [false, true, true], "memes_no": 1, "action_space_config": {"CR": {"max": 1, "min": 0}}}}</dc:description>
    <dc:format>image/svg+xml</dc:format>
    <dc:creator>
     <cc:Agent>
      <dc:title>Matplotlib v3.5.0, https://matplotlib.org/</dc:title>
     </cc:Agent>
    </dc:creator>
   </cc:Work>
  </rdf:RDF>
 </metadata>
 <defs>
  <style type="text/css">*{stroke-linejoin: round; stroke-linecap: butt}</style>
 </defs>
 <g id="figure_1">
  <g id="patch_1">
   <path d="M 0 345.6 
L 460.8 345.6 
L 460.8 0 
L 0 0 
z
" style="fill: #ffffff"/>
  </g>
  <g id="axes_1">
   <g id="patch_2">
    <path d="M 57.6 307.584 
L 414.72 307.584 
L 414.72 41.472 
L 57.6 41.472 
z
" style="fill: #ffffff"/>
   </g>
   <g id="matplotlib.axis_1">
    <g id="xtick_1">
     <g id="line2d_1">
      <path d="M 57.6 307.584 
L 57.6 41.472 
" clip-path="url(#p9b726b3267)" style="fill: none; stroke: #b0b0b0; stroke-width: 0.8; stroke-linecap: square"/>
     </g>
     <g id="line2d_2">
      <defs>
       <path id="mfc0f18abd8" d="M 0 0 
L 0 3.5 
" style="stroke: #000000; stroke-width: 0.8"/>
      </defs>
      <g>
       <use xlink:href="#mfc0f18abd8" x="57.6" y="307.584" style="stroke: #000000; stroke-width: 0.8"/>
      </g>
     </g>
     <g id="text_1">
      <!-- 0 -->
      <g transform="translate(52.51 326.7415)scale(0.16 -0.16)">
       <defs>
        <path id="DejaVuSans-30" d="M 2034 4250 
Q 1547 4250 1301 3770 
Q 1056 3291 1056 2328 
Q 1056 1369 1301 889 
Q 1547 409 2034 409 
Q 2525 409 2770 889 
Q 3016 1369 3016 2328 
Q 3016 3291 2770 3770 
Q 2525 4250 2034 4250 
z
M 2034 4750 
Q 2819 4750 3233 4129 
Q 3647 3509 3647 2328 
Q 3647 1150 3233 529 
Q 2819 -91 2034 -91 
Q 1250 -91 836 529 
Q 422 1150 422 2328 
Q 422 3509 836 4129 
Q 1250 4750 2034 4750 
z
" transform="scale(0.015625)"/>
       </defs>
       <use xlink:href="#DejaVuSans-30"/>
      </g>
     </g>
    </g>
    <g id="xtick_2">
     <g id="line2d_3">
      <path d="M 129.024 307.584 
L 129.024 41.472 
" clip-path="url(#p9b726b3267)" style="fill: none; stroke: #b0b0b0; stroke-width: 0.8; stroke-linecap: square"/>
     </g>
     <g id="line2d_4">
      <g>
       <use xlink:href="#mfc0f18abd8" x="129.024" y="307.584" style="stroke: #000000; stroke-width: 0.8"/>
      </g>
     </g>
     <g id="text_2">
      <!-- 200 -->
      <g transform="translate(113.754 326.7415)scale(0.16 -0.16)">
       <defs>
        <path id="DejaVuSans-32" d="M 1228 531 
L 3431 531 
L 3431 0 
L 469 0 
L 469 531 
Q 828 903 1448 1529 
Q 2069 2156 2228 2338 
Q 2531 2678 2651 2914 
Q 2772 3150 2772 3378 
Q 2772 3750 2511 3984 
Q 2250 4219 1831 4219 
Q 1534 4219 1204 4116 
Q 875 4013 500 3803 
L 500 4441 
Q 881 4594 1212 4672 
Q 1544 4750 1819 4750 
Q 2544 4750 2975 4387 
Q 3406 4025 3406 3419 
Q 3406 3131 3298 2873 
Q 3191 2616 2906 2266 
Q 2828 2175 2409 1742 
Q 1991 1309 1228 531 
z
" transform="scale(0.015625)"/>
       </defs>
       <use xlink:href="#DejaVuSans-32"/>
       <use xlink:href="#DejaVuSans-30" x="63.623047"/>
       <use xlink:href="#DejaVuSans-30" x="127.246094"/>
      </g>
     </g>
    </g>
    <g id="xtick_3">
     <g id="line2d_5">
      <path d="M 200.448 307.584 
L 200.448 41.472 
" clip-path="url(#p9b726b3267)" style="fill: none; stroke: #b0b0b0; stroke-width: 0.8; stroke-linecap: square"/>
     </g>
     <g id="line2d_6">
      <g>
       <use xlink:href="#mfc0f18abd8" x="200.448" y="307.584" style="stroke: #000000; stroke-width: 0.8"/>
      </g>
     </g>
     <g id="text_3">
      <!-- 400 -->
      <g transform="translate(185.178 326.7415)scale(0.16 -0.16)">
       <defs>
        <path id="DejaVuSans-34" d="M 2419 4116 
L 825 1625 
L 2419 1625 
L 2419 4116 
z
M 2253 4666 
L 3047 4666 
L 3047 1625 
L 3713 1625 
L 3713 1100 
L 3047 1100 
L 3047 0 
L 2419 0 
L 2419 1100 
L 313 1100 
L 313 1709 
L 2253 4666 
z
" transform="scale(0.015625)"/>
       </defs>
       <use xlink:href="#DejaVuSans-34"/>
       <use xlink:href="#DejaVuSans-30" x="63.623047"/>
       <use xlink:href="#DejaVuSans-30" x="127.246094"/>
      </g>
     </g>
    </g>
    <g id="xtick_4">
     <g id="line2d_7">
      <path d="M 271.872 307.584 
L 271.872 41.472 
" clip-path="url(#p9b726b3267)" style="fill: none; stroke: #b0b0b0; stroke-width: 0.8; stroke-linecap: square"/>
     </g>
     <g id="line2d_8">
      <g>
       <use xlink:href="#mfc0f18abd8" x="271.872" y="307.584" style="stroke: #000000; stroke-width: 0.8"/>
      </g>
     </g>
     <g id="text_4">
      <!-- 600 -->
      <g transform="translate(256.602 326.7415)scale(0.16 -0.16)">
       <defs>
        <path id="DejaVuSans-36" d="M 2113 2584 
Q 1688 2584 1439 2293 
Q 1191 2003 1191 1497 
Q 1191 994 1439 701 
Q 1688 409 2113 409 
Q 2538 409 2786 701 
Q 3034 994 3034 1497 
Q 3034 2003 2786 2293 
Q 2538 2584 2113 2584 
z
M 3366 4563 
L 3366 3988 
Q 3128 4100 2886 4159 
Q 2644 4219 2406 4219 
Q 1781 4219 1451 3797 
Q 1122 3375 1075 2522 
Q 1259 2794 1537 2939 
Q 1816 3084 2150 3084 
Q 2853 3084 3261 2657 
Q 3669 2231 3669 1497 
Q 3669 778 3244 343 
Q 2819 -91 2113 -91 
Q 1303 -91 875 529 
Q 447 1150 447 2328 
Q 447 3434 972 4092 
Q 1497 4750 2381 4750 
Q 2619 4750 2861 4703 
Q 3103 4656 3366 4563 
z
" transform="scale(0.015625)"/>
       </defs>
       <use xlink:href="#DejaVuSans-36"/>
       <use xlink:href="#DejaVuSans-30" x="63.623047"/>
       <use xlink:href="#DejaVuSans-30" x="127.246094"/>
      </g>
     </g>
    </g>
    <g id="xtick_5">
     <g id="line2d_9">
      <path d="M 343.296 307.584 
L 343.296 41.472 
" clip-path="url(#p9b726b3267)" style="fill: none; stroke: #b0b0b0; stroke-width: 0.8; stroke-linecap: square"/>
     </g>
     <g id="line2d_10">
      <g>
       <use xlink:href="#mfc0f18abd8" x="343.296" y="307.584" style="stroke: #000000; stroke-width: 0.8"/>
      </g>
     </g>
     <g id="text_5">
      <!-- 800 -->
      <g transform="translate(328.026 326.7415)scale(0.16 -0.16)">
       <defs>
        <path id="DejaVuSans-38" d="M 2034 2216 
Q 1584 2216 1326 1975 
Q 1069 1734 1069 1313 
Q 1069 891 1326 650 
Q 1584 409 2034 409 
Q 2484 409 2743 651 
Q 3003 894 3003 1313 
Q 3003 1734 2745 1975 
Q 2488 2216 2034 2216 
z
M 1403 2484 
Q 997 2584 770 2862 
Q 544 3141 544 3541 
Q 544 4100 942 4425 
Q 1341 4750 2034 4750 
Q 2731 4750 3128 4425 
Q 3525 4100 3525 3541 
Q 3525 3141 3298 2862 
Q 3072 2584 2669 2484 
Q 3125 2378 3379 2068 
Q 3634 1759 3634 1313 
Q 3634 634 3220 271 
Q 2806 -91 2034 -91 
Q 1263 -91 848 271 
Q 434 634 434 1313 
Q 434 1759 690 2068 
Q 947 2378 1403 2484 
z
M 1172 3481 
Q 1172 3119 1398 2916 
Q 1625 2713 2034 2713 
Q 2441 2713 2670 2916 
Q 2900 3119 2900 3481 
Q 2900 3844 2670 4047 
Q 2441 4250 2034 4250 
Q 1625 4250 1398 4047 
Q 1172 3844 1172 3481 
z
" transform="scale(0.015625)"/>
       </defs>
       <use xlink:href="#DejaVuSans-38"/>
       <use xlink:href="#DejaVuSans-30" x="63.623047"/>
       <use xlink:href="#DejaVuSans-30" x="127.246094"/>
      </g>
     </g>
    </g>
    <g id="xtick_6">
     <g id="line2d_11">
      <path d="M 414.72 307.584 
L 414.72 41.472 
" clip-path="url(#p9b726b3267)" style="fill: none; stroke: #b0b0b0; stroke-width: 0.8; stroke-linecap: square"/>
     </g>
     <g id="line2d_12">
      <g>
       <use xlink:href="#mfc0f18abd8" x="414.72" y="307.584" style="stroke: #000000; stroke-width: 0.8"/>
      </g>
     </g>
     <g id="text_6">
      <!-- 1000 -->
      <g transform="translate(394.36 326.7415)scale(0.16 -0.16)">
       <defs>
        <path id="DejaVuSans-31" d="M 794 531 
L 1825 531 
L 1825 4091 
L 703 3866 
L 703 4441 
L 1819 4666 
L 2450 4666 
L 2450 531 
L 3481 531 
L 3481 0 
L 794 0 
L 794 531 
z
" transform="scale(0.015625)"/>
       </defs>
       <use xlink:href="#DejaVuSans-31"/>
       <use xlink:href="#DejaVuSans-30" x="63.623047"/>
       <use xlink:href="#DejaVuSans-30" x="127.246094"/>
       <use xlink:href="#DejaVuSans-30" x="190.869141"/>
      </g>
     </g>
    </g>
    <g id="text_7">
     <!-- Episodes -->
     <g transform="translate(200.5725 346.2265)scale(0.16 -0.16)">
      <defs>
       <path id="DejaVuSans-45" d="M 628 4666 
L 3578 4666 
L 3578 4134 
L 1259 4134 
L 1259 2753 
L 3481 2753 
L 3481 2222 
L 1259 2222 
L 1259 531 
L 3634 531 
L 3634 0 
L 628 0 
L 628 4666 
z
" transform="scale(0.015625)"/>
       <path id="DejaVuSans-70" d="M 1159 525 
L 1159 -1331 
L 581 -1331 
L 581 3500 
L 1159 3500 
L 1159 2969 
Q 1341 3281 1617 3432 
Q 1894 3584 2278 3584 
Q 2916 3584 3314 3078 
Q 3713 2572 3713 1747 
Q 3713 922 3314 415 
Q 2916 -91 2278 -91 
Q 1894 -91 1617 61 
Q 1341 213 1159 525 
z
M 3116 1747 
Q 3116 2381 2855 2742 
Q 2594 3103 2138 3103 
Q 1681 3103 1420 2742 
Q 1159 2381 1159 1747 
Q 1159 1113 1420 752 
Q 1681 391 2138 391 
Q 2594 391 2855 752 
Q 3116 1113 3116 1747 
z
" transform="scale(0.015625)"/>
       <path id="DejaVuSans-69" d="M 603 3500 
L 1178 3500 
L 1178 0 
L 603 0 
L 603 3500 
z
M 603 4863 
L 1178 4863 
L 1178 4134 
L 603 4134 
L 603 4863 
z
" transform="scale(0.015625)"/>
       <path id="DejaVuSans-73" d="M 2834 3397 
L 2834 2853 
Q 2591 2978 2328 3040 
Q 2066 3103 1784 3103 
Q 1356 3103 1142 2972 
Q 928 2841 928 2578 
Q 928 2378 1081 2264 
Q 1234 2150 1697 2047 
L 1894 2003 
Q 2506 1872 2764 1633 
Q 3022 1394 3022 966 
Q 3022 478 2636 193 
Q 2250 -91 1575 -91 
Q 1294 -91 989 -36 
Q 684 19 347 128 
L 347 722 
Q 666 556 975 473 
Q 1284 391 1588 391 
Q 1994 391 2212 530 
Q 2431 669 2431 922 
Q 2431 1156 2273 1281 
Q 2116 1406 1581 1522 
L 1381 1569 
Q 847 1681 609 1914 
Q 372 2147 372 2553 
Q 372 3047 722 3315 
Q 1072 3584 1716 3584 
Q 2034 3584 2315 3537 
Q 2597 3491 2834 3397 
z
" transform="scale(0.015625)"/>
       <path id="DejaVuSans-6f" d="M 1959 3097 
Q 1497 3097 1228 2736 
Q 959 2375 959 1747 
Q 959 1119 1226 758 
Q 1494 397 1959 397 
Q 2419 397 2687 759 
Q 2956 1122 2956 1747 
Q 2956 2369 2687 2733 
Q 2419 3097 1959 3097 
z
M 1959 3584 
Q 2709 3584 3137 3096 
Q 3566 2609 3566 1747 
Q 3566 888 3137 398 
Q 2709 -91 1959 -91 
Q 1206 -91 779 398 
Q 353 888 353 1747 
Q 353 2609 779 3096 
Q 1206 3584 1959 3584 
z
" transform="scale(0.015625)"/>
       <path id="DejaVuSans-64" d="M 2906 2969 
L 2906 4863 
L 3481 4863 
L 3481 0 
L 2906 0 
L 2906 525 
Q 2725 213 2448 61 
Q 2172 -91 1784 -91 
Q 1150 -91 751 415 
Q 353 922 353 1747 
Q 353 2572 751 3078 
Q 1150 3584 1784 3584 
Q 2172 3584 2448 3432 
Q 2725 3281 2906 2969 
z
M 947 1747 
Q 947 1113 1208 752 
Q 1469 391 1925 391 
Q 2381 391 2643 752 
Q 2906 1113 2906 1747 
Q 2906 2381 2643 2742 
Q 2381 3103 1925 3103 
Q 1469 3103 1208 2742 
Q 947 2381 947 1747 
z
" transform="scale(0.015625)"/>
       <path id="DejaVuSans-65" d="M 3597 1894 
L 3597 1613 
L 953 1613 
Q 991 1019 1311 708 
Q 1631 397 2203 397 
Q 2534 397 2845 478 
Q 3156 559 3463 722 
L 3463 178 
Q 3153 47 2828 -22 
Q 2503 -91 2169 -91 
Q 1331 -91 842 396 
Q 353 884 353 1716 
Q 353 2575 817 3079 
Q 1281 3584 2069 3584 
Q 2775 3584 3186 3129 
Q 3597 2675 3597 1894 
z
M 3022 2063 
Q 3016 2534 2758 2815 
Q 2500 3097 2075 3097 
Q 1594 3097 1305 2825 
Q 1016 2553 972 2059 
L 3022 2063 
z
" transform="scale(0.015625)"/>
      </defs>
      <use xlink:href="#DejaVuSans-45"/>
      <use xlink:href="#DejaVuSans-70" x="63.183594"/>
      <use xlink:href="#DejaVuSans-69" x="126.660156"/>
      <use xlink:href="#DejaVuSans-73" x="154.443359"/>
      <use xlink:href="#DejaVuSans-6f" x="206.542969"/>
      <use xlink:href="#DejaVuSans-64" x="267.724609"/>
      <use xlink:href="#DejaVuSans-65" x="331.201172"/>
      <use xlink:href="#DejaVuSans-73" x="392.724609"/>
     </g>
    </g>
   </g>
   <g id="matplotlib.axis_2">
    <g id="ytick_1">
     <g id="line2d_13">
      <path d="M 57.6 296.773407 
L 414.72 296.773407 
" clip-path="url(#p9b726b3267)" style="fill: none; stroke: #b0b0b0; stroke-width: 0.8; stroke-linecap: square"/>
     </g>
     <g id="line2d_14">
      <defs>
       <path id="m0e1af1f85c" d="M 0 0 
L -3.5 0 
" style="stroke: #000000; stroke-width: 0.8"/>
      </defs>
      <g>
       <use xlink:href="#m0e1af1f85c" x="57.6" y="296.773407" style="stroke: #000000; stroke-width: 0.8"/>
      </g>
     </g>
     <g id="text_8">
      <!-- 0 -->
      <g transform="translate(40.42 302.852157)scale(0.16 -0.16)">
       <use xlink:href="#DejaVuSans-30"/>
      </g>
     </g>
    </g>
    <g id="ytick_2">
     <g id="line2d_15">
      <path d="M 57.6 256.461711 
L 414.72 256.461711 
" clip-path="url(#p9b726b3267)" style="fill: none; stroke: #b0b0b0; stroke-width: 0.8; stroke-linecap: square"/>
     </g>
     <g id="line2d_16">
      <g>
       <use xlink:href="#m0e1af1f85c" x="57.6" y="256.461711" style="stroke: #000000; stroke-width: 0.8"/>
      </g>
     </g>
     <g id="text_9">
      <!-- 1 -->
      <g transform="translate(40.42 262.540461)scale(0.16 -0.16)">
       <use xlink:href="#DejaVuSans-31"/>
      </g>
     </g>
    </g>
    <g id="ytick_3">
     <g id="line2d_17">
      <path d="M 57.6 216.150014 
L 414.72 216.150014 
" clip-path="url(#p9b726b3267)" style="fill: none; stroke: #b0b0b0; stroke-width: 0.8; stroke-linecap: square"/>
     </g>
     <g id="line2d_18">
      <g>
       <use xlink:href="#m0e1af1f85c" x="57.6" y="216.150014" style="stroke: #000000; stroke-width: 0.8"/>
      </g>
     </g>
     <g id="text_10">
      <!-- 2 -->
      <g transform="translate(40.42 222.228764)scale(0.16 -0.16)">
       <use xlink:href="#DejaVuSans-32"/>
      </g>
     </g>
    </g>
    <g id="ytick_4">
     <g id="line2d_19">
      <path d="M 57.6 175.838318 
L 414.72 175.838318 
" clip-path="url(#p9b726b3267)" style="fill: none; stroke: #b0b0b0; stroke-width: 0.8; stroke-linecap: square"/>
     </g>
     <g id="line2d_20">
      <g>
       <use xlink:href="#m0e1af1f85c" x="57.6" y="175.838318" style="stroke: #000000; stroke-width: 0.8"/>
      </g>
     </g>
     <g id="text_11">
      <!-- 3 -->
      <g transform="translate(40.42 181.917068)scale(0.16 -0.16)">
       <defs>
        <path id="DejaVuSans-33" d="M 2597 2516 
Q 3050 2419 3304 2112 
Q 3559 1806 3559 1356 
Q 3559 666 3084 287 
Q 2609 -91 1734 -91 
Q 1441 -91 1130 -33 
Q 819 25 488 141 
L 488 750 
Q 750 597 1062 519 
Q 1375 441 1716 441 
Q 2309 441 2620 675 
Q 2931 909 2931 1356 
Q 2931 1769 2642 2001 
Q 2353 2234 1838 2234 
L 1294 2234 
L 1294 2753 
L 1863 2753 
Q 2328 2753 2575 2939 
Q 2822 3125 2822 3475 
Q 2822 3834 2567 4026 
Q 2313 4219 1838 4219 
Q 1578 4219 1281 4162 
Q 984 4106 628 3988 
L 628 4550 
Q 988 4650 1302 4700 
Q 1616 4750 1894 4750 
Q 2613 4750 3031 4423 
Q 3450 4097 3450 3541 
Q 3450 3153 3228 2886 
Q 3006 2619 2597 2516 
z
" transform="scale(0.015625)"/>
       </defs>
       <use xlink:href="#DejaVuSans-33"/>
      </g>
     </g>
    </g>
    <g id="ytick_5">
     <g id="line2d_21">
      <path d="M 57.6 135.526621 
L 414.72 135.526621 
" clip-path="url(#p9b726b3267)" style="fill: none; stroke: #b0b0b0; stroke-width: 0.8; stroke-linecap: square"/>
     </g>
     <g id="line2d_22">
      <g>
       <use xlink:href="#m0e1af1f85c" x="57.6" y="135.526621" style="stroke: #000000; stroke-width: 0.8"/>
      </g>
     </g>
     <g id="text_12">
      <!-- 4 -->
      <g transform="translate(40.42 141.605371)scale(0.16 -0.16)">
       <use xlink:href="#DejaVuSans-34"/>
      </g>
     </g>
    </g>
    <g id="ytick_6">
     <g id="line2d_23">
      <path d="M 57.6 95.214924 
L 414.72 95.214924 
" clip-path="url(#p9b726b3267)" style="fill: none; stroke: #b0b0b0; stroke-width: 0.8; stroke-linecap: square"/>
     </g>
     <g id="line2d_24">
      <g>
       <use xlink:href="#m0e1af1f85c" x="57.6" y="95.214924" style="stroke: #000000; stroke-width: 0.8"/>
      </g>
     </g>
     <g id="text_13">
      <!-- 5 -->
      <g transform="translate(40.42 101.293674)scale(0.16 -0.16)">
       <defs>
        <path id="DejaVuSans-35" d="M 691 4666 
L 3169 4666 
L 3169 4134 
L 1269 4134 
L 1269 2991 
Q 1406 3038 1543 3061 
Q 1681 3084 1819 3084 
Q 2600 3084 3056 2656 
Q 3513 2228 3513 1497 
Q 3513 744 3044 326 
Q 2575 -91 1722 -91 
Q 1428 -91 1123 -41 
Q 819 9 494 109 
L 494 744 
Q 775 591 1075 516 
Q 1375 441 1709 441 
Q 2250 441 2565 725 
Q 2881 1009 2881 1497 
Q 2881 1984 2565 2268 
Q 2250 2553 1709 2553 
Q 1456 2553 1204 2497 
Q 953 2441 691 2322 
L 691 4666 
z
" transform="scale(0.015625)"/>
       </defs>
       <use xlink:href="#DejaVuSans-35"/>
      </g>
     </g>
    </g>
    <g id="ytick_7">
     <g id="line2d_25">
      <path d="M 57.6 54.903228 
L 414.72 54.903228 
" clip-path="url(#p9b726b3267)" style="fill: none; stroke: #b0b0b0; stroke-width: 0.8; stroke-linecap: square"/>
     </g>
     <g id="line2d_26">
      <g>
       <use xlink:href="#m0e1af1f85c" x="57.6" y="54.903228" style="stroke: #000000; stroke-width: 0.8"/>
      </g>
     </g>
     <g id="text_14">
      <!-- 6 -->
      <g transform="translate(40.42 60.981978)scale(0.16 -0.16)">
       <use xlink:href="#DejaVuSans-36"/>
      </g>
     </g>
    </g>
    <g id="text_15">
     <!-- Cumulative Reward -->
     <g transform="translate(33.0925 252.52425)rotate(-90)scale(0.16 -0.16)">
      <defs>
       <path id="DejaVuSans-43" d="M 4122 4306 
L 4122 3641 
Q 3803 3938 3442 4084 
Q 3081 4231 2675 4231 
Q 1875 4231 1450 3742 
Q 1025 3253 1025 2328 
Q 1025 1406 1450 917 
Q 1875 428 2675 428 
Q 3081 428 3442 575 
Q 3803 722 4122 1019 
L 4122 359 
Q 3791 134 3420 21 
Q 3050 -91 2638 -91 
Q 1578 -91 968 557 
Q 359 1206 359 2328 
Q 359 3453 968 4101 
Q 1578 4750 2638 4750 
Q 3056 4750 3426 4639 
Q 3797 4528 4122 4306 
z
" transform="scale(0.015625)"/>
       <path id="DejaVuSans-75" d="M 544 1381 
L 544 3500 
L 1119 3500 
L 1119 1403 
Q 1119 906 1312 657 
Q 1506 409 1894 409 
Q 2359 409 2629 706 
Q 2900 1003 2900 1516 
L 2900 3500 
L 3475 3500 
L 3475 0 
L 2900 0 
L 2900 538 
Q 2691 219 2414 64 
Q 2138 -91 1772 -91 
Q 1169 -91 856 284 
Q 544 659 544 1381 
z
M 1991 3584 
L 1991 3584 
z
" transform="scale(0.015625)"/>
       <path id="DejaVuSans-6d" d="M 3328 2828 
Q 3544 3216 3844 3400 
Q 4144 3584 4550 3584 
Q 5097 3584 5394 3201 
Q 5691 2819 5691 2113 
L 5691 0 
L 5113 0 
L 5113 2094 
Q 5113 2597 4934 2840 
Q 4756 3084 4391 3084 
Q 3944 3084 3684 2787 
Q 3425 2491 3425 1978 
L 3425 0 
L 2847 0 
L 2847 2094 
Q 2847 2600 2669 2842 
Q 2491 3084 2119 3084 
Q 1678 3084 1418 2786 
Q 1159 2488 1159 1978 
L 1159 0 
L 581 0 
L 581 3500 
L 1159 3500 
L 1159 2956 
Q 1356 3278 1631 3431 
Q 1906 3584 2284 3584 
Q 2666 3584 2933 3390 
Q 3200 3197 3328 2828 
z
" transform="scale(0.015625)"/>
       <path id="DejaVuSans-6c" d="M 603 4863 
L 1178 4863 
L 1178 0 
L 603 0 
L 603 4863 
z
" transform="scale(0.015625)"/>
       <path id="DejaVuSans-61" d="M 2194 1759 
Q 1497 1759 1228 1600 
Q 959 1441 959 1056 
Q 959 750 1161 570 
Q 1363 391 1709 391 
Q 2188 391 2477 730 
Q 2766 1069 2766 1631 
L 2766 1759 
L 2194 1759 
z
M 3341 1997 
L 3341 0 
L 2766 0 
L 2766 531 
Q 2569 213 2275 61 
Q 1981 -91 1556 -91 
Q 1019 -91 701 211 
Q 384 513 384 1019 
Q 384 1609 779 1909 
Q 1175 2209 1959 2209 
L 2766 2209 
L 2766 2266 
Q 2766 2663 2505 2880 
Q 2244 3097 1772 3097 
Q 1472 3097 1187 3025 
Q 903 2953 641 2809 
L 641 3341 
Q 956 3463 1253 3523 
Q 1550 3584 1831 3584 
Q 2591 3584 2966 3190 
Q 3341 2797 3341 1997 
z
" transform="scale(0.015625)"/>
       <path id="DejaVuSans-74" d="M 1172 4494 
L 1172 3500 
L 2356 3500 
L 2356 3053 
L 1172 3053 
L 1172 1153 
Q 1172 725 1289 603 
Q 1406 481 1766 481 
L 2356 481 
L 2356 0 
L 1766 0 
Q 1100 0 847 248 
Q 594 497 594 1153 
L 594 3053 
L 172 3053 
L 172 3500 
L 594 3500 
L 594 4494 
L 1172 4494 
z
" transform="scale(0.015625)"/>
       <path id="DejaVuSans-76" d="M 191 3500 
L 800 3500 
L 1894 563 
L 2988 3500 
L 3597 3500 
L 2284 0 
L 1503 0 
L 191 3500 
z
" transform="scale(0.015625)"/>
       <path id="DejaVuSans-20" transform="scale(0.015625)"/>
       <path id="DejaVuSans-52" d="M 2841 2188 
Q 3044 2119 3236 1894 
Q 3428 1669 3622 1275 
L 4263 0 
L 3584 0 
L 2988 1197 
Q 2756 1666 2539 1819 
Q 2322 1972 1947 1972 
L 1259 1972 
L 1259 0 
L 628 0 
L 628 4666 
L 2053 4666 
Q 2853 4666 3247 4331 
Q 3641 3997 3641 3322 
Q 3641 2881 3436 2590 
Q 3231 2300 2841 2188 
z
M 1259 4147 
L 1259 2491 
L 2053 2491 
Q 2509 2491 2742 2702 
Q 2975 2913 2975 3322 
Q 2975 3731 2742 3939 
Q 2509 4147 2053 4147 
L 1259 4147 
z
" transform="scale(0.015625)"/>
       <path id="DejaVuSans-77" d="M 269 3500 
L 844 3500 
L 1563 769 
L 2278 3500 
L 2956 3500 
L 3675 769 
L 4391 3500 
L 4966 3500 
L 4050 0 
L 3372 0 
L 2619 2869 
L 1863 0 
L 1184 0 
L 269 3500 
z
" transform="scale(0.015625)"/>
       <path id="DejaVuSans-72" d="M 2631 2963 
Q 2534 3019 2420 3045 
Q 2306 3072 2169 3072 
Q 1681 3072 1420 2755 
Q 1159 2438 1159 1844 
L 1159 0 
L 581 0 
L 581 3500 
L 1159 3500 
L 1159 2956 
Q 1341 3275 1631 3429 
Q 1922 3584 2338 3584 
Q 2397 3584 2469 3576 
Q 2541 3569 2628 3553 
L 2631 2963 
z
" transform="scale(0.015625)"/>
      </defs>
      <use xlink:href="#DejaVuSans-43"/>
      <use xlink:href="#DejaVuSans-75" x="69.824219"/>
      <use xlink:href="#DejaVuSans-6d" x="133.203125"/>
      <use xlink:href="#DejaVuSans-75" x="230.615234"/>
      <use xlink:href="#DejaVuSans-6c" x="293.994141"/>
      <use xlink:href="#DejaVuSans-61" x="321.777344"/>
      <use xlink:href="#DejaVuSans-74" x="383.056641"/>
      <use xlink:href="#DejaVuSans-69" x="422.265625"/>
      <use xlink:href="#DejaVuSans-76" x="450.048828"/>
      <use xlink:href="#DejaVuSans-65" x="509.228516"/>
      <use xlink:href="#DejaVuSans-20" x="570.751953"/>
      <use xlink:href="#DejaVuSans-52" x="602.539062"/>
      <use xlink:href="#DejaVuSans-65" x="667.521484"/>
      <use xlink:href="#DejaVuSans-77" x="729.044922"/>
      <use xlink:href="#DejaVuSans-61" x="810.832031"/>
      <use xlink:href="#DejaVuSans-72" x="872.111328"/>
      <use xlink:href="#DejaVuSans-64" x="911.474609"/>
     </g>
    </g>
   </g>
   <g id="line2d_27">
    <path d="M 57.6 251.991446 
L 57.95712 240.414962 
L 58.31424 248.819558 
L 58.67136 240.310573 
L 59.02848 251.991446 
L 59.3856 240.414962 
L 59.74272 248.819558 
L 60.09984 240.310573 
L 60.45696 251.991446 
L 60.81408 240.414962 
L 61.1712 248.819558 
L 61.52832 240.310573 
L 61.88544 251.991446 
L 62.24256 240.414962 
L 62.59968 248.819558 
L 62.9568 240.310573 
L 63.31392 251.991446 
L 63.67104 240.414962 
L 64.02816 248.819558 
L 64.38528 240.310573 
L 64.7424 251.991446 
L 65.09952 240.414962 
L 65.45664 248.819558 
L 65.81376 240.310573 
L 66.17088 251.991446 
L 66.528 240.414962 
L 66.88512 248.819558 
L 67.24224 240.310573 
L 67.59936 251.991446 
L 67.95648 240.414962 
L 68.3136 248.819558 
L 68.67072 240.310573 
L 69.02784 251.991446 
L 69.38496 240.414962 
L 69.74208 248.819558 
L 70.0992 240.310573 
L 70.45632 251.991446 
L 70.81344 240.414962 
L 71.17056 248.819558 
L 71.52768 240.310573 
L 71.8848 251.991446 
L 72.24192 240.414962 
L 72.59904 248.819558 
L 72.95616 240.310573 
L 73.31328 251.991446 
L 73.6704 240.414962 
L 74.02752 248.819558 
L 74.38464 240.310573 
L 74.74176 251.991446 
L 75.09888 240.414962 
L 75.456 248.819558 
L 75.81312 240.310573 
L 76.17024 251.991446 
L 76.52736 240.414962 
L 76.88448 248.819558 
L 77.2416 240.310573 
L 77.59872 251.991446 
L 77.95584 240.414962 
L 78.31296 248.819558 
L 78.67008 240.310573 
L 79.0272 251.991446 
L 79.38432 240.414962 
L 79.74144 248.819558 
L 80.09856 240.310573 
L 80.45568 251.991446 
L 80.8128 240.414962 
L 81.16992 248.819558 
L 81.52704 240.310573 
L 81.88416 251.991446 
L 82.24128 240.414962 
L 82.5984 248.819558 
L 82.95552 240.310573 
L 83.31264 251.991446 
L 83.66976 240.414962 
L 84.02688 248.819558 
L 84.384 240.310573 
L 84.74112 251.991446 
L 85.09824 240.414962 
L 85.45536 248.819558 
L 85.81248 240.310573 
L 86.1696 251.991446 
L 86.52672 240.414962 
L 86.88384 248.819558 
L 87.24096 240.310573 
L 87.59808 251.991446 
L 87.9552 240.414962 
L 88.31232 248.819558 
L 88.66944 240.310573 
L 89.02656 251.991446 
L 89.38368 240.414962 
L 89.7408 248.819558 
L 90.09792 240.310573 
L 90.45504 251.991446 
L 90.81216 240.414962 
L 91.16928 248.819558 
L 91.5264 240.310573 
L 91.88352 251.991446 
L 92.24064 240.414962 
L 92.59776 248.819558 
L 92.95488 240.310573 
L 93.312 211.157315 
L 93.66912 243.483365 
L 94.02624 245.134767 
L 94.38336 227.307672 
L 94.74048 248.898196 
L 95.0976 254.170492 
L 95.81184 193.16069 
L 96.16896 249.742915 
L 96.52608 247.019504 
L 96.8832 240.712447 
L 97.24032 250.145424 
L 97.59744 224.785628 
L 97.95456 239.089571 
L 98.31168 262.805765 
L 98.6688 226.737464 
L 99.02592 249.567222 
L 99.38304 263.313208 
L 99.74016 242.868321 
L 100.09728 255.763126 
L 100.4544 232.200332 
L 100.81152 237.295233 
L 101.16864 232.388273 
L 101.52576 225.725333 
L 101.88288 279.206116 
L 102.24 241.190908 
L 102.59712 255.941642 
L 102.95424 216.762822 
L 103.31136 235.664422 
L 103.66848 221.467899 
L 104.0256 251.183028 
L 104.73984 222.961861 
L 105.09696 237.051806 
L 105.45408 257.138032 
L 105.8112 250.301158 
L 106.16832 248.975244 
L 106.52544 253.637259 
L 106.88256 246.071975 
L 107.23968 249.691724 
L 107.5968 243.679095 
L 107.95392 245.724172 
L 108.31104 260.116181 
L 108.66816 218.867214 
L 109.02528 227.271427 
L 109.3824 238.414479 
L 109.73952 136.424518 
L 110.09664 231.313908 
L 110.45376 240.422299 
L 110.81088 181.373742 
L 111.168 249.394499 
L 111.52512 242.063881 
L 111.88224 259.450489 
L 112.23936 236.626319 
L 112.59648 272.814765 
L 112.9536 244.065724 
L 113.31072 234.138715 
L 113.66784 165.215086 
L 114.02496 257.379187 
L 114.38208 250.451904 
L 114.7392 236.904915 
L 115.09632 246.739964 
L 115.45344 207.32375 
L 115.81056 254.468466 
L 116.16768 231.85891 
L 116.5248 255.8061 
L 116.88192 232.201574 
L 117.23904 218.561687 
L 117.59616 258.561244 
L 117.95328 216.620059 
L 118.3104 251.393537 
L 118.66752 243.392544 
L 119.02464 218.947779 
L 119.38176 119.38217 
L 119.73888 229.384302 
L 120.096 247.362064 
L 120.45312 241.88269 
L 120.81024 118.158855 
L 121.16736 232.880852 
L 121.52448 82.454026 
L 121.8816 285.408 
L 122.23872 248.307602 
L 122.59584 242.35876 
L 122.95296 230.818105 
L 123.31008 227.200812 
L 123.6672 152.832396 
L 124.02432 218.355092 
L 124.73856 268.207479 
L 125.09568 256.491089 
L 125.4528 209.961162 
L 125.80992 251.579544 
L 126.16704 250.629981 
L 126.52416 223.256876 
L 126.88128 220.015434 
L 127.2384 249.225892 
L 127.59552 254.640891 
L 127.95264 246.795568 
L 128.30976 255.275879 
L 128.66688 231.460025 
L 129.024 215.077012 
L 129.38112 233.834841 
L 129.73824 260.270771 
L 130.09536 156.083297 
L 130.45248 245.13628 
L 130.8096 205.137233 
L 131.16672 211.956227 
L 131.52384 241.351492 
L 131.88096 224.771305 
L 132.23808 76.929531 
L 132.5952 225.783654 
L 132.95232 244.895296 
L 133.30944 241.559657 
L 133.66656 247.297236 
L 134.02368 245.892516 
L 134.3808 264.535958 
L 134.73792 229.962994 
L 135.09504 246.751702 
L 135.45216 234.495396 
L 135.80928 197.740107 
L 136.1664 255.2661 
L 136.52352 144.673818 
L 136.88064 257.945307 
L 137.23776 255.435531 
L 137.59488 242.404253 
L 137.952 224.266836 
L 138.30912 247.049951 
L 138.66624 234.905396 
L 139.38048 268.790854 
L 139.7376 190.870521 
L 140.09472 180.19433 
L 140.45184 254.859179 
L 140.80896 250.132557 
L 141.16608 249.615199 
L 141.5232 265.063262 
L 141.88032 257.298391 
L 142.23744 261.565258 
L 142.59456 259.391978 
L 142.95168 244.803129 
L 143.3088 236.994667 
L 143.66592 199.041986 
L 144.02304 253.929954 
L 144.38016 243.456515 
L 145.0944 204.425137 
L 145.45152 243.880955 
L 145.80864 239.820273 
L 146.16576 242.248136 
L 146.52288 257.362891 
L 146.88 236.414961 
L 147.23712 256.010317 
L 147.59424 255.082172 
L 147.95136 218.955876 
L 148.30848 234.079972 
L 148.6656 207.921271 
L 149.02272 229.452578 
L 149.37984 230.424064 
L 149.73696 255.871127 
L 150.4512 235.112757 
L 150.80832 246.924509 
L 151.16544 211.082545 
L 151.52256 247.208324 
L 151.87968 250.55481 
L 152.2368 220.749655 
L 152.59392 211.916566 
L 152.95104 255.497969 
L 153.66528 95.914617 
L 154.0224 243.944283 
L 154.37952 255.309123 
L 154.73664 245.510682 
L 155.09376 254.001749 
L 155.45088 229.72123 
L 155.808 109.989019 
L 156.16512 242.316541 
L 157.23648 255.205271 
L 157.5936 241.846697 
L 157.95072 261.521807 
L 158.30784 251.374627 
L 158.66496 245.953087 
L 159.3792 229.872282 
L 159.73632 240.4265 
L 160.09344 243.136024 
L 160.45056 253.759659 
L 160.80768 249.61338 
L 161.1648 257.763939 
L 161.52192 211.709867 
L 162.23616 264.315296 
L 162.59328 227.99164 
L 162.9504 252.567524 
L 163.30752 267.187043 
L 163.66464 79.363274 
L 164.02176 263.454998 
L 164.37888 241.354951 
L 164.736 280.980324 
L 165.09312 213.870529 
L 165.45024 193.169192 
L 165.80736 260.50016 
L 166.16448 269.303651 
L 166.87872 235.188546 
L 167.23584 230.381384 
L 167.59296 261.69627 
L 167.95008 236.949172 
L 168.3072 274.243389 
L 168.66432 224.540479 
L 169.02144 222.050341 
L 169.37856 247.785167 
L 169.73568 253.419438 
L 170.0928 213.933284 
L 170.44992 257.581118 
L 170.80704 264.864634 
L 171.16416 228.100211 
L 171.52128 246.368047 
L 171.8784 240.27386 
L 172.23552 238.31258 
L 172.59264 261.16163 
L 172.94976 241.576142 
L 173.30688 98.168642 
L 173.664 143.826234 
L 174.02112 246.328442 
L 174.37824 264.637056 
L 174.73536 232.962773 
L 175.09248 226.362818 
L 175.4496 228.824181 
L 175.80672 244.022721 
L 176.16384 239.780532 
L 176.52096 177.604252 
L 176.87808 245.50124 
L 177.2352 184.011695 
L 177.59232 260.97655 
L 177.94944 257.225843 
L 178.30656 225.80676 
L 178.66368 212.33975 
L 179.0208 258.83762 
L 179.37792 238.01054 
L 179.73504 247.832118 
L 180.09216 247.376378 
L 180.44928 267.514977 
L 180.8064 230.291496 
L 181.52064 247.009658 
L 182.23488 239.057426 
L 182.592 158.220405 
L 182.94912 162.458239 
L 183.30624 244.468833 
L 183.66336 259.550943 
L 184.02048 233.567717 
L 184.3776 229.584126 
L 184.73472 183.079081 
L 185.09184 255.544265 
L 185.44896 262.043187 
L 185.80608 229.633333 
L 186.1632 128.45034 
L 186.52032 211.801132 
L 186.87744 252.607778 
L 187.23456 204.045152 
L 187.59168 233.817914 
L 187.9488 210.151816 
L 188.30592 241.7405 
L 188.66304 243.041928 
L 189.37728 262.117519 
L 189.7344 243.477754 
L 190.09152 181.328103 
L 190.44864 262.866478 
L 190.80576 194.35167 
L 191.16288 208.188509 
L 191.52 248.696979 
L 191.87712 247.303141 
L 192.23424 239.811806 
L 192.59136 140.971099 
L 192.94848 232.865194 
L 193.66272 255.654288 
L 194.01984 252.155953 
L 194.37696 240.698867 
L 194.73408 208.335315 
L 195.0912 222.918692 
L 195.44832 213.843313 
L 195.80544 224.761797 
L 196.16256 240.658579 
L 196.51968 210.561921 
L 196.8768 268.574844 
L 197.23392 250.195472 
L 197.59104 215.459854 
L 197.94816 251.190652 
L 198.30528 259.891626 
L 198.6624 241.023732 
L 199.01952 245.834337 
L 199.37664 256.718283 
L 199.73376 232.620826 
L 200.09088 257.905584 
L 200.448 266.170558 
L 200.80512 226.198449 
L 201.16224 224.77371 
L 201.51936 233.439855 
L 201.87648 233.542153 
L 202.2336 248.195104 
L 202.59072 231.18545 
L 202.94784 242.943652 
L 203.30496 259.205554 
L 203.66208 221.666076 
L 204.0192 264.794413 
L 204.37632 225.050986 
L 204.73344 246.853827 
L 205.09056 244.583461 
L 205.44768 260.316008 
L 205.8048 237.45968 
L 206.16192 237.846216 
L 206.51904 244.773018 
L 206.87616 246.086513 
L 207.23328 266.998707 
L 207.5904 258.583023 
L 207.94752 255.499935 
L 208.30464 239.694401 
L 208.66176 182.906253 
L 209.01888 225.478981 
L 209.376 247.778634 
L 209.73312 233.275956 
L 210.09024 242.542665 
L 210.44736 257.684093 
L 210.80448 203.159526 
L 211.1616 259.353018 
L 211.51872 254.949493 
L 211.87584 239.059324 
L 212.23296 249.285891 
L 212.59008 183.259947 
L 212.9472 247.839626 
L 213.30432 224.40049 
L 214.01856 246.495523 
L 214.37568 236.735238 
L 214.7328 244.118124 
L 215.08992 263.836541 
L 215.44704 179.176667 
L 215.80416 240.358562 
L 216.16128 263.47265 
L 216.5184 261.986026 
L 216.87552 206.686221 
L 217.23264 219.519965 
L 217.58976 248.16618 
L 217.94688 225.155284 
L 218.304 259.99995 
L 219.01824 231.509244 
L 219.37536 270.391302 
L 220.0896 223.369638 
L 220.44672 232.088722 
L 220.80384 237.655764 
L 221.16096 120.05017 
L 221.51808 236.104258 
L 221.8752 239.956017 
L 222.23232 231.838746 
L 222.58944 246.105277 
L 222.94656 234.814389 
L 223.30368 262.41986 
L 223.6608 218.367652 
L 224.01792 235.365953 
L 224.37504 224.556375 
L 224.73216 263.528322 
L 225.08928 215.279637 
L 225.4464 230.345198 
L 225.80352 239.228788 
L 226.16064 216.365372 
L 226.51776 228.752422 
L 226.87488 250.590341 
L 227.232 239.663893 
L 227.58912 260.643781 
L 227.94624 256.013205 
L 228.30336 212.948786 
L 228.66048 217.613919 
L 229.0176 259.877152 
L 229.37472 166.212017 
L 229.73184 244.410892 
L 230.08896 241.912138 
L 230.44608 240.776783 
L 230.8032 229.060422 
L 231.16032 250.702424 
L 231.51744 232.222423 
L 231.87456 175.031195 
L 232.23168 163.745 
L 232.5888 224.737856 
L 232.94592 212.544462 
L 233.30304 273.131055 
L 233.66016 233.541544 
L 234.01728 263.524223 
L 234.3744 244.742902 
L 235.08864 260.767129 
L 235.44576 263.261051 
L 235.80288 238.252104 
L 236.16 236.474689 
L 236.51712 222.925441 
L 236.87424 244.587987 
L 237.23136 255.66096 
L 237.58848 253.49639 
L 237.9456 225.033245 
L 238.30272 248.734997 
L 238.65984 258.7315 
L 239.01696 251.038591 
L 239.37408 232.420112 
L 239.7312 254.291899 
L 240.44544 228.029052 
L 240.80256 256.051123 
L 241.15968 252.766074 
L 241.5168 246.303155 
L 241.87392 80.781072 
L 242.23104 220.188817 
L 242.94528 254.104936 
L 243.3024 255.332222 
L 243.65952 240.825629 
L 244.01664 254.969187 
L 244.37376 256.653571 
L 244.73088 235.872334 
L 245.088 244.727406 
L 245.44512 241.977059 
L 245.80224 228.488997 
L 246.15936 246.127079 
L 246.51648 234.124187 
L 246.8736 246.632615 
L 247.23072 249.979366 
L 247.58784 256.391995 
L 247.94496 257.609201 
L 248.30208 246.7723 
L 248.6592 216.865644 
L 249.01632 242.337186 
L 249.37344 195.488967 
L 249.73056 206.636992 
L 250.08768 244.483172 
L 250.4448 222.279487 
L 250.80192 246.255882 
L 251.15904 246.948197 
L 251.51616 243.405379 
L 251.87328 234.865894 
L 252.2304 259.96695 
L 252.58752 241.409514 
L 252.94464 216.417557 
L 253.30176 233.275136 
L 253.65888 244.695141 
L 254.016 250.717586 
L 254.37312 239.694286 
L 254.73024 236.710114 
L 255.08736 261.021996 
L 255.44448 198.229199 
L 255.8016 239.321101 
L 256.15872 219.671819 
L 256.51584 214.477557 
L 257.23008 262.251203 
L 257.5872 248.495864 
L 257.94432 281.907517 
L 258.65856 215.443234 
L 259.01568 260.249771 
L 259.3728 222.969747 
L 259.72992 251.844344 
L 260.08704 237.139206 
L 260.44416 236.419843 
L 260.80128 224.65447 
L 261.1584 229.447281 
L 261.51552 248.7147 
L 261.87264 261.386898 
L 262.22976 238.962102 
L 262.58688 237.877767 
L 262.944 205.063523 
L 263.30112 240.330386 
L 263.65824 249.552578 
L 264.01536 240.221431 
L 264.37248 266.540102 
L 264.7296 213.104045 
L 265.08672 204.863331 
L 265.44384 234.267567 
L 265.80096 233.130799 
L 266.15808 226.877473 
L 266.5152 250.196114 
L 266.87232 210.502884 
L 267.22944 255.739952 
L 267.58656 213.045441 
L 267.94368 229.992566 
L 268.3008 266.565691 
L 268.65792 258.172816 
L 269.01504 224.693306 
L 269.37216 232.518271 
L 269.72928 247.561745 
L 270.0864 246.23847 
L 270.44352 228.281219 
L 270.80064 248.397162 
L 271.51488 246.908541 
L 271.872 257.470635 
L 272.22912 253.198214 
L 272.58624 238.399721 
L 272.94336 192.238112 
L 273.6576 247.735449 
L 274.01472 261.919456 
L 274.37184 259.767748 
L 274.72896 227.999817 
L 275.08608 259.146661 
L 275.4432 222.640447 
L 275.80032 268.221997 
L 276.15744 239.586645 
L 276.87168 259.922336 
L 277.2288 228.764834 
L 277.58592 250.530116 
L 277.94304 219.994437 
L 278.30016 216.712914 
L 278.65728 224.233976 
L 279.0144 234.174117 
L 279.37152 213.089947 
L 279.72864 261.323102 
L 280.08576 243.020065 
L 280.44288 230.92985 
L 280.8 248.418271 
L 281.15712 232.018298 
L 281.51424 221.135026 
L 281.87136 256.932634 
L 282.22848 248.912768 
L 282.5856 229.075495 
L 282.94272 240.633095 
L 283.29984 236.568046 
L 283.65696 278.038928 
L 284.01408 268.693327 
L 284.72832 229.513011 
L 285.08544 252.236737 
L 285.44256 258.033165 
L 285.79968 260.708272 
L 286.1568 241.025387 
L 286.51392 162.224013 
L 286.87104 245.66059 
L 287.22816 251.218396 
L 287.58528 231.032533 
L 287.9424 248.409919 
L 288.29952 216.214838 
L 288.65664 225.05863 
L 289.37088 207.767264 
L 289.728 91.795079 
L 290.08512 243.901045 
L 290.44224 251.980741 
L 290.79936 248.317924 
L 291.15648 260.279877 
L 291.5136 238.969489 
L 291.87072 253.295994 
L 292.22784 240.123868 
L 292.58496 237.148504 
L 292.94208 131.806169 
L 293.2992 255.054854 
L 293.65632 270.49235 
L 294.37056 108.370177 
L 294.72768 245.964328 
L 295.0848 242.920584 
L 295.44192 235.646752 
L 295.79904 265.471784 
L 296.15616 235.252312 
L 296.51328 261.922226 
L 296.8704 211.805801 
L 297.22752 242.206051 
L 298.29888 264.195682 
L 298.656 173.939121 
L 299.01312 240.037475 
L 299.37024 238.108608 
L 299.72736 227.749075 
L 300.08448 221.128039 
L 300.4416 63.648 
L 300.79872 281.668817 
L 301.15584 243.667621 
L 301.51296 262.461656 
L 301.87008 232.280412 
L 302.2272 242.864253 
L 302.58432 241.451181 
L 302.94144 263.719445 
L 303.29856 233.69456 
L 303.65568 248.6663 
L 304.0128 232.188805 
L 304.36992 244.98386 
L 304.72704 246.440825 
L 305.08416 246.69969 
L 305.44128 230.499572 
L 305.7984 219.358847 
L 306.15552 253.715048 
L 306.51264 265.625186 
L 306.86976 257.614238 
L 307.22688 232.755749 
L 307.584 173.72099 
L 307.94112 244.649667 
L 308.29824 258.515858 
L 308.65536 116.682783 
L 309.01248 234.724202 
L 309.3696 258.504011 
L 309.72672 234.43243 
L 310.08384 234.896537 
L 310.44096 263.133829 
L 310.79808 182.386179 
L 311.1552 253.276707 
L 311.51232 187.40466 
L 311.86944 234.630405 
L 312.22656 260.893631 
L 312.58368 239.457108 
L 312.9408 245.772335 
L 313.29792 245.210491 
L 313.65504 261.282759 
L 314.01216 240.359511 
L 314.36928 138.914415 
L 314.7264 252.317685 
L 315.08352 259.255186 
L 315.44064 216.567221 
L 315.79776 242.453329 
L 316.15488 259.887106 
L 316.512 247.859242 
L 316.86912 253.06697 
L 317.22624 226.700919 
L 317.58336 222.100421 
L 317.94048 224.1617 
L 318.2976 249.435355 
L 318.65472 258.470076 
L 319.01184 242.854816 
L 319.36896 243.007782 
L 319.72608 242.570213 
L 320.0832 228.417388 
L 320.44032 256.990932 
L 320.79744 231.014886 
L 321.15456 215.438932 
L 321.51168 225.386522 
L 321.8688 249.597721 
L 322.22592 238.98279 
L 322.58304 239.518789 
L 322.94016 250.967856 
L 323.29728 250.184517 
L 323.6544 246.472134 
L 324.01152 256.028802 
L 324.36864 239.244399 
L 324.72576 230.667606 
L 325.08288 247.103507 
L 325.44 271.764255 
L 325.79712 231.794655 
L 326.15424 222.414283 
L 326.51136 264.275254 
L 327.2256 246.46128 
L 327.58272 219.2609 
L 327.93984 213.899017 
L 328.29696 235.98925 
L 329.0112 255.733226 
L 329.36832 267.517829 
L 329.72544 151.792994 
L 330.08256 212.27508 
L 330.43968 220.779585 
L 330.7968 114.417171 
L 331.15392 236.539282 
L 331.51104 239.601691 
L 331.86816 265.574701 
L 332.22528 219.324515 
L 332.5824 252.796675 
L 332.93952 180.770605 
L 333.29664 234.117597 
L 333.65376 240.811835 
L 334.01088 237.385778 
L 334.368 222.86831 
L 334.72512 129.669224 
L 335.08224 228.840341 
L 335.43936 246.056997 
L 335.79648 228.829422 
L 336.1536 239.939695 
L 336.51072 259.137105 
L 336.86784 262.08568 
L 337.22496 103.116535 
L 337.58208 256.897679 
L 337.9392 243.346739 
L 338.29632 271.22331 
L 338.65344 235.639849 
L 339.01056 240.625135 
L 339.36768 241.716662 
L 339.7248 268.383674 
L 340.08192 224.306248 
L 340.43904 254.845075 
L 340.79616 268.490244 
L 341.15328 253.435443 
L 341.5104 217.613406 
L 341.86752 254.18538 
L 342.22464 254.209965 
L 342.58176 200.420372 
L 342.93888 243.672811 
L 343.296 186.538608 
L 343.65312 264.6498 
L 344.01024 233.238748 
L 344.36736 174.161619 
L 344.72448 250.050574 
L 345.0816 216.743841 
L 345.43872 224.24673 
L 345.79584 251.848872 
L 346.15296 117.878711 
L 346.51008 249.92081 
L 346.8672 241.519328 
L 347.22432 261.322504 
L 347.58144 239.609493 
L 347.93856 119.025768 
L 348.29568 256.53073 
L 348.6528 249.236246 
L 349.00992 89.163835 
L 349.36704 260.469468 
L 349.72416 220.055427 
L 350.08128 238.556951 
L 350.4384 249.459504 
L 350.79552 234.887985 
L 351.15264 248.342977 
L 351.50976 229.652994 
L 351.86688 251.038878 
L 352.224 240.596286 
L 352.58112 253.358265 
L 352.93824 216.808359 
L 353.29536 259.364326 
L 353.65248 267.69401 
L 354.0096 230.766929 
L 354.36672 233.445837 
L 354.72384 96.014587 
L 355.08096 224.613868 
L 355.43808 222.263012 
L 355.7952 260.766673 
L 356.15232 232.88538 
L 356.50944 248.788691 
L 357.22368 236.54138 
L 357.5808 244.62509 
L 357.93792 243.59728 
L 358.29504 188.831206 
L 358.65216 251.74169 
L 359.00928 229.421883 
L 359.72352 252.004224 
L 360.08064 236.932202 
L 360.43776 250.778101 
L 360.79488 248.859314 
L 361.152 268.453064 
L 361.86624 150.547106 
L 362.58048 223.796176 
L 363.65184 252.624433 
L 364.00896 206.981431 
L 364.36608 240.693247 
L 364.7232 245.048056 
L 365.08032 256.292091 
L 365.43744 213.988996 
L 365.79456 244.067301 
L 366.15168 214.168145 
L 366.5088 239.238891 
L 366.86592 249.478185 
L 367.22304 250.601473 
L 367.58016 185.830743 
L 367.93728 251.916115 
L 368.65152 242.886674 
L 369.00864 251.316092 
L 369.36576 248.777455 
L 369.72288 250.850723 
L 370.08 242.796846 
L 370.43712 260.871677 
L 370.79424 219.450175 
L 371.15136 261.627335 
L 371.50848 226.945972 
L 371.8656 259.387013 
L 372.22272 228.227642 
L 372.57984 253.415482 
L 372.93696 246.224365 
L 373.29408 212.882415 
L 373.6512 257.743755 
L 374.00832 213.327719 
L 374.36544 246.353942 
L 374.72256 224.838475 
L 375.07968 259.067547 
L 375.4368 244.255172 
L 375.79392 246.775482 
L 376.15104 178.087413 
L 376.50816 209.644586 
L 376.86528 256.015632 
L 377.2224 231.504767 
L 377.57952 271.162423 
L 377.93664 241.134645 
L 378.29376 179.829342 
L 378.65088 209.602972 
L 379.008 252.632248 
L 379.36512 236.976583 
L 379.72224 239.157943 
L 380.07936 237.054872 
L 380.43648 252.832205 
L 380.7936 243.951906 
L 381.15072 249.60186 
L 381.50784 243.250179 
L 381.86496 250.026114 
L 382.22208 191.577047 
L 382.5792 235.986606 
L 382.93632 256.739619 
L 383.29344 208.852868 
L 383.65056 87.049814 
L 384.00768 269.159148 
L 384.3648 268.522866 
L 384.72192 240.987668 
L 385.07904 241.597361 
L 385.43616 249.538308 
L 385.79328 237.351228 
L 386.1504 253.414714 
L 386.50752 171.906521 
L 386.86464 244.419866 
L 387.22176 243.843001 
L 387.57888 244.819616 
L 387.936 270.510929 
L 388.29312 263.413507 
L 388.65024 248.286918 
L 389.00736 254.251474 
L 389.36448 251.830536 
L 389.7216 282.956443 
L 390.07872 259.64612 
L 390.43584 246.82362 
L 390.79296 222.849609 
L 391.15008 235.638396 
L 391.5072 258.387586 
L 391.86432 260.144037 
L 392.22144 198.095903 
L 392.57856 264.046952 
L 392.93568 242.327894 
L 393.2928 135.319377 
L 393.64992 252.832073 
L 394.00704 251.015199 
L 394.36416 261.600419 
L 394.72128 259.821164 
L 395.0784 164.808434 
L 395.43552 267.646807 
L 395.79264 253.657021 
L 396.14976 187.502501 
L 396.50688 240.569058 
L 396.864 226.115904 
L 397.22112 236.126299 
L 397.57824 252.853141 
L 397.93536 186.000018 
L 398.29248 246.168759 
L 398.6496 226.235769 
L 399.00672 241.599494 
L 399.36384 246.215282 
L 400.07808 225.612412 
L 400.4352 228.365539 
L 400.79232 235.229164 
L 401.14944 239.697931 
L 401.50656 215.580072 
L 401.86368 260.211034 
L 402.2208 261.73554 
L 402.57792 185.670681 
L 402.93504 240.468841 
L 403.29216 231.458795 
L 403.64928 229.756464 
L 404.0064 136.810945 
L 404.36352 250.885172 
L 404.72064 262.110408 
L 405.07776 156.131146 
L 405.43488 256.622663 
L 405.792 248.487945 
L 406.14912 131.216091 
L 406.50624 223.395928 
L 407.22048 255.757902 
L 407.5776 246.529067 
L 407.93472 251.818005 
L 408.29184 233.54958 
L 408.64896 248.477107 
L 409.00608 231.881349 
L 409.3632 195.7564 
L 409.72032 239.299083 
L 410.07744 244.145608 
L 410.43456 233.316211 
L 410.79168 257.638844 
L 411.1488 168.341504 
L 411.50592 231.915653 
L 412.22016 236.833544 
L 412.57728 217.946091 
L 412.9344 252.45958 
L 413.29152 254.034331 
L 413.64864 206.032461 
L 414.00576 218.464802 
L 414.36288 254.779143 
L 414.36288 254.779143 
" clip-path="url(#p9b726b3267)" style="fill: none; stroke: #0000ff; stroke-width: 1.5; stroke-linecap: square"/>
   </g>
   <g id="patch_3">
    <path d="M 57.6 307.584 
L 57.6 41.472 
" style="fill: none; stroke: #000000; stroke-width: 0.8; stroke-linejoin: miter; stroke-linecap: square"/>
   </g>
   <g id="patch_4">
    <path d="M 414.72 307.584 
L 414.72 41.472 
" style="fill: none; stroke: #000000; stroke-width: 0.8; stroke-linejoin: miter; stroke-linecap: square"/>
   </g>
   <g id="patch_5">
    <path d="M 57.6 307.584 
L 414.72 307.584 
" style="fill: none; stroke: #000000; stroke-width: 0.8; stroke-linejoin: miter; stroke-linecap: square"/>
   </g>
   <g id="patch_6">
    <path d="M 57.6 41.472 
L 414.72 41.472 
" style="fill: none; stroke: #000000; stroke-width: 0.8; stroke-linejoin: miter; stroke-linecap: square"/>
   </g>
   <g id="legend_1">
    <g id="patch_7">
     <path d="M 202.8825 77.757 
L 403.52 77.757 
Q 406.72 77.757 406.72 74.557 
L 406.72 52.672 
Q 406.72 49.472 403.52 49.472 
L 202.8825 49.472 
Q 199.6825 49.472 199.6825 52.672 
L 199.6825 74.557 
Q 199.6825 77.757 202.8825 77.757 
z
" style="fill: #ffffff; opacity: 0.8; stroke: #cccccc; stroke-linejoin: miter"/>
    </g>
    <g id="line2d_28">
     <path d="M 206.0825 62.4295 
L 222.0825 62.4295 
L 238.0825 62.4295 
" style="fill: none; stroke: #0000ff; stroke-width: 1.5; stroke-linecap: square"/>
    </g>
    <g id="text_16">
     <!-- cumulative reward -->
     <g transform="translate(250.8825 68.0295)scale(0.16 -0.16)">
      <defs>
       <path id="DejaVuSans-63" d="M 3122 3366 
L 3122 2828 
Q 2878 2963 2633 3030 
Q 2388 3097 2138 3097 
Q 1578 3097 1268 2742 
Q 959 2388 959 1747 
Q 959 1106 1268 751 
Q 1578 397 2138 397 
Q 2388 397 2633 464 
Q 2878 531 3122 666 
L 3122 134 
Q 2881 22 2623 -34 
Q 2366 -91 2075 -91 
Q 1284 -91 818 406 
Q 353 903 353 1747 
Q 353 2603 823 3093 
Q 1294 3584 2113 3584 
Q 2378 3584 2631 3529 
Q 2884 3475 3122 3366 
z
" transform="scale(0.015625)"/>
      </defs>
      <use xlink:href="#DejaVuSans-63"/>
      <use xlink:href="#DejaVuSans-75" x="54.980469"/>
      <use xlink:href="#DejaVuSans-6d" x="118.359375"/>
      <use xlink:href="#DejaVuSans-75" x="215.771484"/>
      <use xlink:href="#DejaVuSans-6c" x="279.150391"/>
      <use xlink:href="#DejaVuSans-61" x="306.933594"/>
      <use xlink:href="#DejaVuSans-74" x="368.212891"/>
      <use xlink:href="#DejaVuSans-69" x="407.421875"/>
      <use xlink:href="#DejaVuSans-76" x="435.205078"/>
      <use xlink:href="#DejaVuSans-65" x="494.384766"/>
      <use xlink:href="#DejaVuSans-20" x="555.908203"/>
      <use xlink:href="#DejaVuSans-72" x="587.695312"/>
      <use xlink:href="#DejaVuSans-65" x="626.558594"/>
      <use xlink:href="#DejaVuSans-77" x="688.082031"/>
      <use xlink:href="#DejaVuSans-61" x="769.869141"/>
      <use xlink:href="#DejaVuSans-72" x="831.148438"/>
      <use xlink:href="#DejaVuSans-64" x="870.511719"/>
     </g>
    </g>
   </g>
  </g>
 </g>
 <defs>
  <clipPath id="p9b726b3267">
   <rect x="57.6" y="41.472" width="357.12" height="266.112"/>
  </clipPath>
 </defs>
</svg>
