<?xml version="1.0" encoding="utf-8" standalone="no"?>
<!DOCTYPE svg PUBLIC "-//W3C//DTD SVG 1.1//EN"
  "http://www.w3.org/Graphics/SVG/1.1/DTD/svg11.dtd">
<svg height="345.6pt" version="1.1" viewBox="0 0 460.8 345.6" width="460.8pt" xmlns="http://www.w3.org/2000/svg" xmlns:xlink="http://www.w3.org/1999/xlink">
 <metadata>
  <rdf:RDF xmlns:cc="http://creativecommons.org/ns#" xmlns:dc="http://purl.org/dc/elements/1.1/" xmlns:rdf="http://www.w3.org/1999/02/22-rdf-syntax-ns#">
   <cc:Work>
    <dc:type rdf:resource="http://purl.org/dc/dcmitype/StillImage"/>
    <dc:date>2021-11-03T17:51:55.042690</dc:date>
    <dc:description>{"agent.algorithm": "RayProximalPolicyOptimization", "agent.algorithm.render_env": false, "agent.algorithm.num_workers": 0, "agent.algorithm.batch_mode": "complete_episodes", "agent.algorithm.lr": 1e-05, "agent.algorithm.train_batch_size": 200, "agent.algorithm.optimizer": "Adam", "agent.algorithm.vf_clip_param": 100, "agent.algorithm.model": {"fcnet_activation": "tanh", "fcnet_hiddens": [30, 30]}, "env.env_class": "SchedulerPolicyRayEnvironment", "env.env_config": {"solver_driver": "CMAdriver", "solver_driver_args": [10, 10, 4, 0.5], "maximize": false, "steps": 50, "state_metrics_names": ["DifferenceOfBest", "SolverStateHistory"], "state_metrics_config": [[40, false, 1, true, false], [{"step_size": {"max": 3, "min": 0}}, 40]], "reward_metric": "Best", "reward_metric_config": [false, false], "memes_no": 1, "action_space_config": {"step_size": {"max": 3, "min": 1e-10}}}}</dc:description>
    <dc:format>image/svg+xml</dc:format>
    <dc:creator>
     <cc:Agent>
      <dc:title>Matplotlib v3.4.2, https://matplotlib.org/</dc:title>
     </cc:Agent>
    </dc:creator>
   </cc:Work>
  </rdf:RDF>
 </metadata>
 <defs>
  <style type="text/css">*{stroke-linecap:butt;stroke-linejoin:round;}</style>
 </defs>
 <g id="figure_1">
  <g id="patch_1">
   <path d="M 0 345.6 
L 460.8 345.6 
L 460.8 0 
L 0 0 
z
" style="fill:#ffffff;"/>
  </g>
  <g id="axes_1">
   <g id="patch_2">
    <path d="M 57.6 307.584 
L 414.72 307.584 
L 414.72 41.472 
L 57.6 41.472 
z
" style="fill:#ffffff;"/>
   </g>
   <g id="matplotlib.axis_1">
    <g id="xtick_1">
     <g id="line2d_1">
      <path clip-path="url(#p29feedc4c2)" d="M 57.6 307.584 
L 57.6 41.472 
" style="fill:none;stroke:#b0b0b0;stroke-linecap:square;stroke-width:0.8;"/>
     </g>
     <g id="line2d_2">
      <defs>
       <path d="M 0 0 
L 0 3.5 
" id="mb2f4160cd9" style="stroke:#000000;stroke-width:0.8;"/>
      </defs>
      <g>
       <use style="stroke:#000000;stroke-width:0.8;" x="57.6" xlink:href="#mb2f4160cd9" y="307.584"/>
      </g>
     </g>
     <g id="text_1">
      <!-- 0 -->
      <g transform="translate(52.51 326.7415)scale(0.16 -0.16)">
       <defs>
        <path d="M 2034 4250 
Q 1547 4250 1301 3770 
Q 1056 3291 1056 2328 
Q 1056 1369 1301 889 
Q 1547 409 2034 409 
Q 2525 409 2770 889 
Q 3016 1369 3016 2328 
Q 3016 3291 2770 3770 
Q 2525 4250 2034 4250 
z
M 2034 4750 
Q 2819 4750 3233 4129 
Q 3647 3509 3647 2328 
Q 3647 1150 3233 529 
Q 2819 -91 2034 -91 
Q 1250 -91 836 529 
Q 422 1150 422 2328 
Q 422 3509 836 4129 
Q 1250 4750 2034 4750 
z
" id="DejaVuSans-30" transform="scale(0.015625)"/>
       </defs>
       <use xlink:href="#DejaVuSans-30"/>
      </g>
     </g>
    </g>
    <g id="xtick_2">
     <g id="line2d_3">
      <path clip-path="url(#p29feedc4c2)" d="M 146.88 307.584 
L 146.88 41.472 
" style="fill:none;stroke:#b0b0b0;stroke-linecap:square;stroke-width:0.8;"/>
     </g>
     <g id="line2d_4">
      <g>
       <use style="stroke:#000000;stroke-width:0.8;" x="146.88" xlink:href="#mb2f4160cd9" y="307.584"/>
      </g>
     </g>
     <g id="text_2">
      <!-- 1000 -->
      <g transform="translate(126.52 326.7415)scale(0.16 -0.16)">
       <defs>
        <path d="M 794 531 
L 1825 531 
L 1825 4091 
L 703 3866 
L 703 4441 
L 1819 4666 
L 2450 4666 
L 2450 531 
L 3481 531 
L 3481 0 
L 794 0 
L 794 531 
z
" id="DejaVuSans-31" transform="scale(0.015625)"/>
       </defs>
       <use xlink:href="#DejaVuSans-31"/>
       <use x="63.623047" xlink:href="#DejaVuSans-30"/>
       <use x="127.246094" xlink:href="#DejaVuSans-30"/>
       <use x="190.869141" xlink:href="#DejaVuSans-30"/>
      </g>
     </g>
    </g>
    <g id="xtick_3">
     <g id="line2d_5">
      <path clip-path="url(#p29feedc4c2)" d="M 236.16 307.584 
L 236.16 41.472 
" style="fill:none;stroke:#b0b0b0;stroke-linecap:square;stroke-width:0.8;"/>
     </g>
     <g id="line2d_6">
      <g>
       <use style="stroke:#000000;stroke-width:0.8;" x="236.16" xlink:href="#mb2f4160cd9" y="307.584"/>
      </g>
     </g>
     <g id="text_3">
      <!-- 2000 -->
      <g transform="translate(215.8 326.7415)scale(0.16 -0.16)">
       <defs>
        <path d="M 1228 531 
L 3431 531 
L 3431 0 
L 469 0 
L 469 531 
Q 828 903 1448 1529 
Q 2069 2156 2228 2338 
Q 2531 2678 2651 2914 
Q 2772 3150 2772 3378 
Q 2772 3750 2511 3984 
Q 2250 4219 1831 4219 
Q 1534 4219 1204 4116 
Q 875 4013 500 3803 
L 500 4441 
Q 881 4594 1212 4672 
Q 1544 4750 1819 4750 
Q 2544 4750 2975 4387 
Q 3406 4025 3406 3419 
Q 3406 3131 3298 2873 
Q 3191 2616 2906 2266 
Q 2828 2175 2409 1742 
Q 1991 1309 1228 531 
z
" id="DejaVuSans-32" transform="scale(0.015625)"/>
       </defs>
       <use xlink:href="#DejaVuSans-32"/>
       <use x="63.623047" xlink:href="#DejaVuSans-30"/>
       <use x="127.246094" xlink:href="#DejaVuSans-30"/>
       <use x="190.869141" xlink:href="#DejaVuSans-30"/>
      </g>
     </g>
    </g>
    <g id="xtick_4">
     <g id="line2d_7">
      <path clip-path="url(#p29feedc4c2)" d="M 325.44 307.584 
L 325.44 41.472 
" style="fill:none;stroke:#b0b0b0;stroke-linecap:square;stroke-width:0.8;"/>
     </g>
     <g id="line2d_8">
      <g>
       <use style="stroke:#000000;stroke-width:0.8;" x="325.44" xlink:href="#mb2f4160cd9" y="307.584"/>
      </g>
     </g>
     <g id="text_4">
      <!-- 3000 -->
      <g transform="translate(305.08 326.7415)scale(0.16 -0.16)">
       <defs>
        <path d="M 2597 2516 
Q 3050 2419 3304 2112 
Q 3559 1806 3559 1356 
Q 3559 666 3084 287 
Q 2609 -91 1734 -91 
Q 1441 -91 1130 -33 
Q 819 25 488 141 
L 488 750 
Q 750 597 1062 519 
Q 1375 441 1716 441 
Q 2309 441 2620 675 
Q 2931 909 2931 1356 
Q 2931 1769 2642 2001 
Q 2353 2234 1838 2234 
L 1294 2234 
L 1294 2753 
L 1863 2753 
Q 2328 2753 2575 2939 
Q 2822 3125 2822 3475 
Q 2822 3834 2567 4026 
Q 2313 4219 1838 4219 
Q 1578 4219 1281 4162 
Q 984 4106 628 3988 
L 628 4550 
Q 988 4650 1302 4700 
Q 1616 4750 1894 4750 
Q 2613 4750 3031 4423 
Q 3450 4097 3450 3541 
Q 3450 3153 3228 2886 
Q 3006 2619 2597 2516 
z
" id="DejaVuSans-33" transform="scale(0.015625)"/>
       </defs>
       <use xlink:href="#DejaVuSans-33"/>
       <use x="63.623047" xlink:href="#DejaVuSans-30"/>
       <use x="127.246094" xlink:href="#DejaVuSans-30"/>
       <use x="190.869141" xlink:href="#DejaVuSans-30"/>
      </g>
     </g>
    </g>
    <g id="xtick_5">
     <g id="line2d_9">
      <path clip-path="url(#p29feedc4c2)" d="M 414.72 307.584 
L 414.72 41.472 
" style="fill:none;stroke:#b0b0b0;stroke-linecap:square;stroke-width:0.8;"/>
     </g>
     <g id="line2d_10">
      <g>
       <use style="stroke:#000000;stroke-width:0.8;" x="414.72" xlink:href="#mb2f4160cd9" y="307.584"/>
      </g>
     </g>
     <g id="text_5">
      <!-- 4000 -->
      <g transform="translate(394.36 326.7415)scale(0.16 -0.16)">
       <defs>
        <path d="M 2419 4116 
L 825 1625 
L 2419 1625 
L 2419 4116 
z
M 2253 4666 
L 3047 4666 
L 3047 1625 
L 3713 1625 
L 3713 1100 
L 3047 1100 
L 3047 0 
L 2419 0 
L 2419 1100 
L 313 1100 
L 313 1709 
L 2253 4666 
z
" id="DejaVuSans-34" transform="scale(0.015625)"/>
       </defs>
       <use xlink:href="#DejaVuSans-34"/>
       <use x="63.623047" xlink:href="#DejaVuSans-30"/>
       <use x="127.246094" xlink:href="#DejaVuSans-30"/>
       <use x="190.869141" xlink:href="#DejaVuSans-30"/>
      </g>
     </g>
    </g>
    <g id="text_6">
     <!-- Episodes -->
     <g transform="translate(200.5725 346.2265)scale(0.16 -0.16)">
      <defs>
       <path d="M 628 4666 
L 3578 4666 
L 3578 4134 
L 1259 4134 
L 1259 2753 
L 3481 2753 
L 3481 2222 
L 1259 2222 
L 1259 531 
L 3634 531 
L 3634 0 
L 628 0 
L 628 4666 
z
" id="DejaVuSans-45" transform="scale(0.015625)"/>
       <path d="M 1159 525 
L 1159 -1331 
L 581 -1331 
L 581 3500 
L 1159 3500 
L 1159 2969 
Q 1341 3281 1617 3432 
Q 1894 3584 2278 3584 
Q 2916 3584 3314 3078 
Q 3713 2572 3713 1747 
Q 3713 922 3314 415 
Q 2916 -91 2278 -91 
Q 1894 -91 1617 61 
Q 1341 213 1159 525 
z
M 3116 1747 
Q 3116 2381 2855 2742 
Q 2594 3103 2138 3103 
Q 1681 3103 1420 2742 
Q 1159 2381 1159 1747 
Q 1159 1113 1420 752 
Q 1681 391 2138 391 
Q 2594 391 2855 752 
Q 3116 1113 3116 1747 
z
" id="DejaVuSans-70" transform="scale(0.015625)"/>
       <path d="M 603 3500 
L 1178 3500 
L 1178 0 
L 603 0 
L 603 3500 
z
M 603 4863 
L 1178 4863 
L 1178 4134 
L 603 4134 
L 603 4863 
z
" id="DejaVuSans-69" transform="scale(0.015625)"/>
       <path d="M 2834 3397 
L 2834 2853 
Q 2591 2978 2328 3040 
Q 2066 3103 1784 3103 
Q 1356 3103 1142 2972 
Q 928 2841 928 2578 
Q 928 2378 1081 2264 
Q 1234 2150 1697 2047 
L 1894 2003 
Q 2506 1872 2764 1633 
Q 3022 1394 3022 966 
Q 3022 478 2636 193 
Q 2250 -91 1575 -91 
Q 1294 -91 989 -36 
Q 684 19 347 128 
L 347 722 
Q 666 556 975 473 
Q 1284 391 1588 391 
Q 1994 391 2212 530 
Q 2431 669 2431 922 
Q 2431 1156 2273 1281 
Q 2116 1406 1581 1522 
L 1381 1569 
Q 847 1681 609 1914 
Q 372 2147 372 2553 
Q 372 3047 722 3315 
Q 1072 3584 1716 3584 
Q 2034 3584 2315 3537 
Q 2597 3491 2834 3397 
z
" id="DejaVuSans-73" transform="scale(0.015625)"/>
       <path d="M 1959 3097 
Q 1497 3097 1228 2736 
Q 959 2375 959 1747 
Q 959 1119 1226 758 
Q 1494 397 1959 397 
Q 2419 397 2687 759 
Q 2956 1122 2956 1747 
Q 2956 2369 2687 2733 
Q 2419 3097 1959 3097 
z
M 1959 3584 
Q 2709 3584 3137 3096 
Q 3566 2609 3566 1747 
Q 3566 888 3137 398 
Q 2709 -91 1959 -91 
Q 1206 -91 779 398 
Q 353 888 353 1747 
Q 353 2609 779 3096 
Q 1206 3584 1959 3584 
z
" id="DejaVuSans-6f" transform="scale(0.015625)"/>
       <path d="M 2906 2969 
L 2906 4863 
L 3481 4863 
L 3481 0 
L 2906 0 
L 2906 525 
Q 2725 213 2448 61 
Q 2172 -91 1784 -91 
Q 1150 -91 751 415 
Q 353 922 353 1747 
Q 353 2572 751 3078 
Q 1150 3584 1784 3584 
Q 2172 3584 2448 3432 
Q 2725 3281 2906 2969 
z
M 947 1747 
Q 947 1113 1208 752 
Q 1469 391 1925 391 
Q 2381 391 2643 752 
Q 2906 1113 2906 1747 
Q 2906 2381 2643 2742 
Q 2381 3103 1925 3103 
Q 1469 3103 1208 2742 
Q 947 2381 947 1747 
z
" id="DejaVuSans-64" transform="scale(0.015625)"/>
       <path d="M 3597 1894 
L 3597 1613 
L 953 1613 
Q 991 1019 1311 708 
Q 1631 397 2203 397 
Q 2534 397 2845 478 
Q 3156 559 3463 722 
L 3463 178 
Q 3153 47 2828 -22 
Q 2503 -91 2169 -91 
Q 1331 -91 842 396 
Q 353 884 353 1716 
Q 353 2575 817 3079 
Q 1281 3584 2069 3584 
Q 2775 3584 3186 3129 
Q 3597 2675 3597 1894 
z
M 3022 2063 
Q 3016 2534 2758 2815 
Q 2500 3097 2075 3097 
Q 1594 3097 1305 2825 
Q 1016 2553 972 2059 
L 3022 2063 
z
" id="DejaVuSans-65" transform="scale(0.015625)"/>
      </defs>
      <use xlink:href="#DejaVuSans-45"/>
      <use x="63.183594" xlink:href="#DejaVuSans-70"/>
      <use x="126.660156" xlink:href="#DejaVuSans-69"/>
      <use x="154.443359" xlink:href="#DejaVuSans-73"/>
      <use x="206.542969" xlink:href="#DejaVuSans-6f"/>
      <use x="267.724609" xlink:href="#DejaVuSans-64"/>
      <use x="331.201172" xlink:href="#DejaVuSans-65"/>
      <use x="392.724609" xlink:href="#DejaVuSans-73"/>
     </g>
    </g>
   </g>
   <g id="matplotlib.axis_2">
    <g id="ytick_1">
     <g id="line2d_11">
      <path clip-path="url(#p29feedc4c2)" d="M 57.6 281.100849 
L 414.72 281.100849 
" style="fill:none;stroke:#b0b0b0;stroke-linecap:square;stroke-width:0.8;"/>
     </g>
     <g id="line2d_12">
      <defs>
       <path d="M 0 0 
L -3.5 0 
" id="m4a51a354d8" style="stroke:#000000;stroke-width:0.8;"/>
      </defs>
      <g>
       <use style="stroke:#000000;stroke-width:0.8;" x="57.6" xlink:href="#m4a51a354d8" y="281.100849"/>
      </g>
     </g>
     <g id="text_7">
      <!-- −25000 -->
      <g transform="translate(-13.7075 287.179599)scale(0.16 -0.16)">
       <defs>
        <path d="M 678 2272 
L 4684 2272 
L 4684 1741 
L 678 1741 
L 678 2272 
z
" id="DejaVuSans-2212" transform="scale(0.015625)"/>
        <path d="M 691 4666 
L 3169 4666 
L 3169 4134 
L 1269 4134 
L 1269 2991 
Q 1406 3038 1543 3061 
Q 1681 3084 1819 3084 
Q 2600 3084 3056 2656 
Q 3513 2228 3513 1497 
Q 3513 744 3044 326 
Q 2575 -91 1722 -91 
Q 1428 -91 1123 -41 
Q 819 9 494 109 
L 494 744 
Q 775 591 1075 516 
Q 1375 441 1709 441 
Q 2250 441 2565 725 
Q 2881 1009 2881 1497 
Q 2881 1984 2565 2268 
Q 2250 2553 1709 2553 
Q 1456 2553 1204 2497 
Q 953 2441 691 2322 
L 691 4666 
z
" id="DejaVuSans-35" transform="scale(0.015625)"/>
       </defs>
       <use xlink:href="#DejaVuSans-2212"/>
       <use x="83.789062" xlink:href="#DejaVuSans-32"/>
       <use x="147.412109" xlink:href="#DejaVuSans-35"/>
       <use x="211.035156" xlink:href="#DejaVuSans-30"/>
       <use x="274.658203" xlink:href="#DejaVuSans-30"/>
       <use x="338.28125" xlink:href="#DejaVuSans-30"/>
      </g>
     </g>
    </g>
    <g id="ytick_2">
     <g id="line2d_13">
      <path clip-path="url(#p29feedc4c2)" d="M 57.6 222.830163 
L 414.72 222.830163 
" style="fill:none;stroke:#b0b0b0;stroke-linecap:square;stroke-width:0.8;"/>
     </g>
     <g id="line2d_14">
      <g>
       <use style="stroke:#000000;stroke-width:0.8;" x="57.6" xlink:href="#m4a51a354d8" y="222.830163"/>
      </g>
     </g>
     <g id="text_8">
      <!-- −20000 -->
      <g transform="translate(-13.7075 228.908913)scale(0.16 -0.16)">
       <use xlink:href="#DejaVuSans-2212"/>
       <use x="83.789062" xlink:href="#DejaVuSans-32"/>
       <use x="147.412109" xlink:href="#DejaVuSans-30"/>
       <use x="211.035156" xlink:href="#DejaVuSans-30"/>
       <use x="274.658203" xlink:href="#DejaVuSans-30"/>
       <use x="338.28125" xlink:href="#DejaVuSans-30"/>
      </g>
     </g>
    </g>
    <g id="ytick_3">
     <g id="line2d_15">
      <path clip-path="url(#p29feedc4c2)" d="M 57.6 164.559476 
L 414.72 164.559476 
" style="fill:none;stroke:#b0b0b0;stroke-linecap:square;stroke-width:0.8;"/>
     </g>
     <g id="line2d_16">
      <g>
       <use style="stroke:#000000;stroke-width:0.8;" x="57.6" xlink:href="#m4a51a354d8" y="164.559476"/>
      </g>
     </g>
     <g id="text_9">
      <!-- −15000 -->
      <g transform="translate(-13.7075 170.638226)scale(0.16 -0.16)">
       <use xlink:href="#DejaVuSans-2212"/>
       <use x="83.789062" xlink:href="#DejaVuSans-31"/>
       <use x="147.412109" xlink:href="#DejaVuSans-35"/>
       <use x="211.035156" xlink:href="#DejaVuSans-30"/>
       <use x="274.658203" xlink:href="#DejaVuSans-30"/>
       <use x="338.28125" xlink:href="#DejaVuSans-30"/>
      </g>
     </g>
    </g>
    <g id="ytick_4">
     <g id="line2d_17">
      <path clip-path="url(#p29feedc4c2)" d="M 57.6 106.28879 
L 414.72 106.28879 
" style="fill:none;stroke:#b0b0b0;stroke-linecap:square;stroke-width:0.8;"/>
     </g>
     <g id="line2d_18">
      <g>
       <use style="stroke:#000000;stroke-width:0.8;" x="57.6" xlink:href="#m4a51a354d8" y="106.28879"/>
      </g>
     </g>
     <g id="text_10">
      <!-- −10000 -->
      <g transform="translate(-13.7075 112.36754)scale(0.16 -0.16)">
       <use xlink:href="#DejaVuSans-2212"/>
       <use x="83.789062" xlink:href="#DejaVuSans-31"/>
       <use x="147.412109" xlink:href="#DejaVuSans-30"/>
       <use x="211.035156" xlink:href="#DejaVuSans-30"/>
       <use x="274.658203" xlink:href="#DejaVuSans-30"/>
       <use x="338.28125" xlink:href="#DejaVuSans-30"/>
      </g>
     </g>
    </g>
    <g id="ytick_5">
     <g id="line2d_19">
      <path clip-path="url(#p29feedc4c2)" d="M 57.6 48.018103 
L 414.72 48.018103 
" style="fill:none;stroke:#b0b0b0;stroke-linecap:square;stroke-width:0.8;"/>
     </g>
     <g id="line2d_20">
      <g>
       <use style="stroke:#000000;stroke-width:0.8;" x="57.6" xlink:href="#m4a51a354d8" y="48.018103"/>
      </g>
     </g>
     <g id="text_11">
      <!-- −5000 -->
      <g transform="translate(-3.5275 54.096853)scale(0.16 -0.16)">
       <use xlink:href="#DejaVuSans-2212"/>
       <use x="83.789062" xlink:href="#DejaVuSans-35"/>
       <use x="147.412109" xlink:href="#DejaVuSans-30"/>
       <use x="211.035156" xlink:href="#DejaVuSans-30"/>
       <use x="274.658203" xlink:href="#DejaVuSans-30"/>
      </g>
     </g>
    </g>
    <g id="text_12">
     <!-- Cumulative Reward -->
     <g transform="translate(-21.035 252.52425)rotate(-90)scale(0.16 -0.16)">
      <defs>
       <path d="M 4122 4306 
L 4122 3641 
Q 3803 3938 3442 4084 
Q 3081 4231 2675 4231 
Q 1875 4231 1450 3742 
Q 1025 3253 1025 2328 
Q 1025 1406 1450 917 
Q 1875 428 2675 428 
Q 3081 428 3442 575 
Q 3803 722 4122 1019 
L 4122 359 
Q 3791 134 3420 21 
Q 3050 -91 2638 -91 
Q 1578 -91 968 557 
Q 359 1206 359 2328 
Q 359 3453 968 4101 
Q 1578 4750 2638 4750 
Q 3056 4750 3426 4639 
Q 3797 4528 4122 4306 
z
" id="DejaVuSans-43" transform="scale(0.015625)"/>
       <path d="M 544 1381 
L 544 3500 
L 1119 3500 
L 1119 1403 
Q 1119 906 1312 657 
Q 1506 409 1894 409 
Q 2359 409 2629 706 
Q 2900 1003 2900 1516 
L 2900 3500 
L 3475 3500 
L 3475 0 
L 2900 0 
L 2900 538 
Q 2691 219 2414 64 
Q 2138 -91 1772 -91 
Q 1169 -91 856 284 
Q 544 659 544 1381 
z
M 1991 3584 
L 1991 3584 
z
" id="DejaVuSans-75" transform="scale(0.015625)"/>
       <path d="M 3328 2828 
Q 3544 3216 3844 3400 
Q 4144 3584 4550 3584 
Q 5097 3584 5394 3201 
Q 5691 2819 5691 2113 
L 5691 0 
L 5113 0 
L 5113 2094 
Q 5113 2597 4934 2840 
Q 4756 3084 4391 3084 
Q 3944 3084 3684 2787 
Q 3425 2491 3425 1978 
L 3425 0 
L 2847 0 
L 2847 2094 
Q 2847 2600 2669 2842 
Q 2491 3084 2119 3084 
Q 1678 3084 1418 2786 
Q 1159 2488 1159 1978 
L 1159 0 
L 581 0 
L 581 3500 
L 1159 3500 
L 1159 2956 
Q 1356 3278 1631 3431 
Q 1906 3584 2284 3584 
Q 2666 3584 2933 3390 
Q 3200 3197 3328 2828 
z
" id="DejaVuSans-6d" transform="scale(0.015625)"/>
       <path d="M 603 4863 
L 1178 4863 
L 1178 0 
L 603 0 
L 603 4863 
z
" id="DejaVuSans-6c" transform="scale(0.015625)"/>
       <path d="M 2194 1759 
Q 1497 1759 1228 1600 
Q 959 1441 959 1056 
Q 959 750 1161 570 
Q 1363 391 1709 391 
Q 2188 391 2477 730 
Q 2766 1069 2766 1631 
L 2766 1759 
L 2194 1759 
z
M 3341 1997 
L 3341 0 
L 2766 0 
L 2766 531 
Q 2569 213 2275 61 
Q 1981 -91 1556 -91 
Q 1019 -91 701 211 
Q 384 513 384 1019 
Q 384 1609 779 1909 
Q 1175 2209 1959 2209 
L 2766 2209 
L 2766 2266 
Q 2766 2663 2505 2880 
Q 2244 3097 1772 3097 
Q 1472 3097 1187 3025 
Q 903 2953 641 2809 
L 641 3341 
Q 956 3463 1253 3523 
Q 1550 3584 1831 3584 
Q 2591 3584 2966 3190 
Q 3341 2797 3341 1997 
z
" id="DejaVuSans-61" transform="scale(0.015625)"/>
       <path d="M 1172 4494 
L 1172 3500 
L 2356 3500 
L 2356 3053 
L 1172 3053 
L 1172 1153 
Q 1172 725 1289 603 
Q 1406 481 1766 481 
L 2356 481 
L 2356 0 
L 1766 0 
Q 1100 0 847 248 
Q 594 497 594 1153 
L 594 3053 
L 172 3053 
L 172 3500 
L 594 3500 
L 594 4494 
L 1172 4494 
z
" id="DejaVuSans-74" transform="scale(0.015625)"/>
       <path d="M 191 3500 
L 800 3500 
L 1894 563 
L 2988 3500 
L 3597 3500 
L 2284 0 
L 1503 0 
L 191 3500 
z
" id="DejaVuSans-76" transform="scale(0.015625)"/>
       <path id="DejaVuSans-20" transform="scale(0.015625)"/>
       <path d="M 2841 2188 
Q 3044 2119 3236 1894 
Q 3428 1669 3622 1275 
L 4263 0 
L 3584 0 
L 2988 1197 
Q 2756 1666 2539 1819 
Q 2322 1972 1947 1972 
L 1259 1972 
L 1259 0 
L 628 0 
L 628 4666 
L 2053 4666 
Q 2853 4666 3247 4331 
Q 3641 3997 3641 3322 
Q 3641 2881 3436 2590 
Q 3231 2300 2841 2188 
z
M 1259 4147 
L 1259 2491 
L 2053 2491 
Q 2509 2491 2742 2702 
Q 2975 2913 2975 3322 
Q 2975 3731 2742 3939 
Q 2509 4147 2053 4147 
L 1259 4147 
z
" id="DejaVuSans-52" transform="scale(0.015625)"/>
       <path d="M 269 3500 
L 844 3500 
L 1563 769 
L 2278 3500 
L 2956 3500 
L 3675 769 
L 4391 3500 
L 4966 3500 
L 4050 0 
L 3372 0 
L 2619 2869 
L 1863 0 
L 1184 0 
L 269 3500 
z
" id="DejaVuSans-77" transform="scale(0.015625)"/>
       <path d="M 2631 2963 
Q 2534 3019 2420 3045 
Q 2306 3072 2169 3072 
Q 1681 3072 1420 2755 
Q 1159 2438 1159 1844 
L 1159 0 
L 581 0 
L 581 3500 
L 1159 3500 
L 1159 2956 
Q 1341 3275 1631 3429 
Q 1922 3584 2338 3584 
Q 2397 3584 2469 3576 
Q 2541 3569 2628 3553 
L 2631 2963 
z
" id="DejaVuSans-72" transform="scale(0.015625)"/>
      </defs>
      <use xlink:href="#DejaVuSans-43"/>
      <use x="69.824219" xlink:href="#DejaVuSans-75"/>
      <use x="133.203125" xlink:href="#DejaVuSans-6d"/>
      <use x="230.615234" xlink:href="#DejaVuSans-75"/>
      <use x="293.994141" xlink:href="#DejaVuSans-6c"/>
      <use x="321.777344" xlink:href="#DejaVuSans-61"/>
      <use x="383.056641" xlink:href="#DejaVuSans-74"/>
      <use x="422.265625" xlink:href="#DejaVuSans-69"/>
      <use x="450.048828" xlink:href="#DejaVuSans-76"/>
      <use x="509.228516" xlink:href="#DejaVuSans-65"/>
      <use x="570.751953" xlink:href="#DejaVuSans-20"/>
      <use x="602.539062" xlink:href="#DejaVuSans-52"/>
      <use x="667.521484" xlink:href="#DejaVuSans-65"/>
      <use x="729.044922" xlink:href="#DejaVuSans-77"/>
      <use x="810.832031" xlink:href="#DejaVuSans-61"/>
      <use x="872.111328" xlink:href="#DejaVuSans-72"/>
      <use x="911.474609" xlink:href="#DejaVuSans-64"/>
     </g>
    </g>
   </g>
   <g id="line2d_21">
    <path clip-path="url(#p29feedc4c2)" d="M 57.6 186.54268 
L 57.68928 198.913545 
L 57.77856 158.761589 
L 57.86784 192.865977 
L 57.95712 186.54268 
L 58.0464 198.913545 
L 58.13568 158.761589 
L 58.22496 192.865977 
L 58.31424 186.54268 
L 58.40352 198.913545 
L 58.4928 158.761589 
L 58.58208 192.865977 
L 58.67136 186.54268 
L 58.76064 198.913545 
L 58.84992 158.761589 
L 58.9392 192.865977 
L 59.02848 186.54268 
L 59.11776 198.913545 
L 59.20704 158.761589 
L 59.29632 192.865977 
L 59.3856 186.54268 
L 59.47488 198.913545 
L 59.56416 158.761589 
L 59.65344 192.865977 
L 59.74272 186.54268 
L 59.832 198.913545 
L 59.92128 158.761589 
L 60.01056 192.865977 
L 60.09984 186.54268 
L 60.18912 198.913545 
L 60.2784 158.761589 
L 60.36768 192.865977 
L 60.45696 186.54268 
L 60.54624 198.913545 
L 60.63552 158.761589 
L 60.7248 192.865977 
L 60.81408 186.54268 
L 60.90336 198.913545 
L 60.99264 158.761589 
L 61.08192 192.865977 
L 61.1712 186.54268 
L 61.26048 198.913545 
L 61.34976 158.761589 
L 61.43904 192.865977 
L 61.52832 186.54268 
L 61.6176 198.913545 
L 61.70688 158.761589 
L 61.79616 192.865977 
L 61.88544 186.54268 
L 61.97472 198.913545 
L 62.064 158.761589 
L 62.15328 192.865977 
L 62.24256 186.54268 
L 62.33184 198.913545 
L 62.42112 158.761589 
L 62.5104 192.865977 
L 62.59968 186.54268 
L 62.68896 198.913545 
L 62.77824 158.761589 
L 62.86752 192.865977 
L 62.9568 186.54268 
L 63.04608 198.913545 
L 63.13536 158.761589 
L 63.22464 192.865977 
L 63.31392 186.54268 
L 63.4032 198.913545 
L 63.49248 158.761589 
L 63.58176 192.865977 
L 63.67104 186.54268 
L 63.76032 198.913545 
L 63.8496 158.761589 
L 63.93888 192.865977 
L 64.02816 186.54268 
L 64.11744 198.913545 
L 64.20672 158.761589 
L 64.296 192.865977 
L 64.38528 186.54268 
L 64.47456 198.913545 
L 64.56384 158.761589 
L 64.65312 192.865977 
L 64.7424 186.54268 
L 64.83168 198.913545 
L 64.92096 158.761589 
L 65.01024 192.865977 
L 65.09952 186.54268 
L 65.1888 198.913545 
L 65.27808 158.761589 
L 65.36736 192.865977 
L 65.45664 186.54268 
L 65.54592 198.913545 
L 65.6352 158.761589 
L 65.72448 192.865977 
L 65.81376 186.54268 
L 65.90304 198.913545 
L 65.99232 158.761589 
L 66.0816 192.865977 
L 66.17088 186.54268 
L 66.26016 198.913545 
L 66.34944 158.761589 
L 66.43872 192.865977 
L 66.528 161.435696 
L 66.70656 209.298552 
L 66.79584 188.770338 
L 66.88512 204.247912 
L 66.9744 177.099673 
L 67.06368 208.410133 
L 67.15296 169.761344 
L 67.24224 170.968948 
L 67.33152 208.332217 
L 67.4208 184.266213 
L 67.51008 213.474346 
L 67.59936 155.658995 
L 67.77792 219.456689 
L 67.95648 157.581804 
L 68.04576 170.823888 
L 68.13504 206.288435 
L 68.3136 166.979467 
L 68.40288 201.412814 
L 68.49216 193.396563 
L 68.58144 162.790045 
L 68.67072 166.22059 
L 68.84928 175.227308 
L 68.93856 217.108942 
L 69.02784 174.995022 
L 69.11712 182.29982 
L 69.2064 186.736551 
L 69.29568 179.651596 
L 69.38496 183.16741 
L 69.47424 206.462587 
L 69.56352 151.824854 
L 69.74208 179.051442 
L 69.83136 148.315429 
L 69.92064 204.757659 
L 70.00992 168.474926 
L 70.0992 168.672952 
L 70.18848 213.856505 
L 70.36704 169.886049 
L 70.45632 181.893897 
L 70.5456 228.564155 
L 70.63488 162.428486 
L 70.72416 222.519109 
L 70.81344 136.993219 
L 70.90272 221.778421 
L 70.992 215.44202 
L 71.08128 170.795814 
L 71.17056 241.276388 
L 71.4384 170.503525 
L 71.52768 193.715487 
L 71.61696 186.002355 
L 71.79552 222.191883 
L 71.8848 166.064227 
L 71.97408 249.938034 
L 72.06336 152.158155 
L 72.15264 193.325426 
L 72.24192 143.23633 
L 72.42048 200.211909 
L 72.50976 174.193622 
L 72.59904 199.264248 
L 72.68832 177.635155 
L 72.7776 200.250578 
L 72.95616 175.146432 
L 73.04544 196.248887 
L 73.13472 147.386061 
L 73.31328 184.95198 
L 73.40256 168.159758 
L 73.49184 189.783397 
L 73.58112 152.638628 
L 73.75968 179.780763 
L 73.84896 252.482724 
L 74.02752 160.407279 
L 74.1168 187.932728 
L 74.20608 165.493433 
L 74.38464 193.417888 
L 74.65248 152.524309 
L 74.74176 242.90064 
L 74.92032 173.389369 
L 75.0096 177.119368 
L 75.18816 192.682755 
L 75.27744 198.642805 
L 75.36672 153.121044 
L 75.54528 225.081941 
L 75.63456 174.623592 
L 75.72384 199.984004 
L 75.81312 169.110553 
L 75.9024 192.319275 
L 76.08096 166.849194 
L 76.17024 210.048408 
L 76.43808 167.556381 
L 76.61664 210.039338 
L 76.70592 198.938642 
L 76.7952 208.16885 
L 76.88448 178.903625 
L 76.97376 195.728403 
L 77.06304 156.777413 
L 77.2416 244.615051 
L 77.33088 183.315491 
L 77.42016 191.108214 
L 77.50944 189.322836 
L 77.59872 200.605625 
L 77.688 155.439669 
L 77.95584 194.345333 
L 78.04512 187.743964 
L 78.1344 195.481989 
L 78.22368 139.345099 
L 78.31296 196.257803 
L 78.40224 191.832736 
L 78.49152 182.72868 
L 78.5808 147.737392 
L 78.75936 201.441566 
L 78.84864 169.157603 
L 78.93792 199.941216 
L 79.11648 162.736521 
L 79.20576 179.080136 
L 79.29504 215.847067 
L 79.38432 201.071143 
L 79.4736 162.357953 
L 79.56288 262.761667 
L 79.83072 164.203017 
L 79.92 226.695915 
L 80.00928 161.025998 
L 80.18784 200.868987 
L 80.27712 183.486508 
L 80.3664 215.548389 
L 80.54496 179.940182 
L 80.63424 200.974159 
L 80.72352 200.089182 
L 80.8128 169.547884 
L 80.90208 171.631531 
L 80.99136 217.996878 
L 81.16992 170.84539 
L 81.2592 151.800127 
L 81.34848 168.892191 
L 81.43776 163.924154 
L 81.52704 143.304023 
L 81.7056 223.825072 
L 81.97344 167.962849 
L 82.06272 154.774523 
L 82.152 191.028558 
L 82.24128 168.469197 
L 82.33056 175.218513 
L 82.5984 140.688648 
L 82.77696 196.049165 
L 82.95552 153.246273 
L 83.0448 204.011259 
L 83.13408 201.351806 
L 83.31264 165.013996 
L 83.4912 206.823932 
L 83.58048 158.560402 
L 83.66976 167.517771 
L 83.75904 190.919758 
L 83.84832 178.374516 
L 83.9376 146.938872 
L 84.02688 245.252626 
L 84.20544 172.348378 
L 84.29472 160.494106 
L 84.384 171.241933 
L 84.47328 237.879063 
L 84.56256 186.507168 
L 84.65184 231.956292 
L 84.74112 143.136319 
L 84.8304 222.57555 
L 85.00896 164.381388 
L 85.18752 213.172195 
L 85.2768 192.732323 
L 85.36608 232.563395 
L 85.54464 151.639198 
L 85.81248 215.192077 
L 85.90176 162.122887 
L 86.08032 231.160427 
L 86.25888 160.663728 
L 86.616 180.02299 
L 86.79456 192.007091 
L 86.97312 169.720769 
L 87.15168 196.135351 
L 87.24096 166.834239 
L 87.33024 275.838644 
L 87.41952 173.862335 
L 87.5088 218.827788 
L 87.59808 179.549415 
L 87.68736 202.674339 
L 87.77664 169.750409 
L 87.86592 177.033764 
L 87.9552 172.40314 
L 88.04448 193.776407 
L 88.13376 188.366407 
L 88.22304 192.298692 
L 88.4016 174.968576 
L 88.58016 193.963081 
L 88.66944 151.626353 
L 88.75872 158.092332 
L 88.848 179.809483 
L 89.02656 148.936819 
L 89.2944 200.175781 
L 89.38368 160.956765 
L 89.65152 185.671257 
L 89.7408 138.91579 
L 90.00864 242.051816 
L 90.09792 185.717748 
L 90.1872 199.869075 
L 90.27648 253.548562 
L 90.45504 169.673676 
L 90.54432 172.771869 
L 90.6336 221.389887 
L 90.72288 185.683754 
L 90.81216 190.901614 
L 90.99072 168.617106 
L 91.08 178.164365 
L 91.25856 141.210903 
L 91.43712 210.047579 
L 91.5264 203.203887 
L 91.70496 172.665509 
L 91.79424 170.299464 
L 91.88352 175.396893 
L 91.9728 192.280946 
L 92.06208 177.085831 
L 92.15136 193.05674 
L 92.24064 191.431924 
L 92.32992 140.8796 
L 92.4192 212.878013 
L 92.50848 146.843311 
L 92.59776 165.420155 
L 92.68704 220.78893 
L 92.77632 146.421153 
L 92.8656 230.861282 
L 92.95488 164.063754 
L 93.04416 171.287462 
L 93.13344 195.729321 
L 93.22272 150.971815 
L 93.312 154.901238 
L 93.49056 210.526802 
L 93.57984 220.02747 
L 93.66912 175.227037 
L 93.84768 215.986375 
L 94.02624 146.875648 
L 94.11552 218.673744 
L 94.2048 153.427603 
L 94.38336 231.331027 
L 94.56192 143.122312 
L 94.6512 188.753525 
L 94.74048 177.601486 
L 94.82976 144.013249 
L 94.91904 170.906394 
L 95.00832 159.857525 
L 95.0976 160.976604 
L 95.27616 208.997518 
L 95.36544 148.560214 
L 95.45472 181.423108 
L 95.544 140.195111 
L 95.81184 170.272559 
L 95.90112 153.864056 
L 96.25824 239.808833 
L 96.34752 148.371455 
L 96.4368 169.450797 
L 96.52608 167.567379 
L 96.61536 131.856981 
L 96.70464 196.868849 
L 96.79392 156.59413 
L 96.8832 159.605552 
L 96.97248 144.411411 
L 97.15104 190.722239 
L 97.24032 149.031002 
L 97.3296 194.461514 
L 97.41888 159.742475 
L 97.50816 164.54545 
L 97.59744 207.002019 
L 97.68672 170.051653 
L 97.776 182.076897 
L 97.86528 142.263446 
L 97.95456 189.531517 
L 98.04384 188.743979 
L 98.2224 203.216358 
L 98.40096 185.319657 
L 98.49024 182.992913 
L 98.57952 169.305502 
L 98.6688 270.686699 
L 98.84736 173.390341 
L 98.93664 212.833336 
L 99.02592 134.129267 
L 99.1152 190.602219 
L 99.29376 161.183662 
L 99.5616 220.156207 
L 99.82944 137.745265 
L 99.91872 208.572883 
L 100.008 158.1939 
L 100.27584 211.697823 
L 100.54368 146.028394 
L 100.63296 148.615104 
L 100.81152 194.103387 
L 100.9008 160.891759 
L 100.99008 241.147799 
L 101.16864 156.68767 
L 101.3472 190.644493 
L 101.43648 159.137155 
L 101.52576 190.929899 
L 101.61504 158.481072 
L 101.70432 238.582474 
L 101.7936 120.44233 
L 101.88288 183.891214 
L 101.97216 129.053894 
L 102.06144 132.392028 
L 102.24 196.202292 
L 102.32928 187.582815 
L 102.41856 147.153551 
L 102.50784 162.22814 
L 102.59712 129.285227 
L 102.6864 135.460601 
L 102.95424 186.243877 
L 103.04352 189.048295 
L 103.1328 204.605396 
L 103.22208 167.440896 
L 103.31136 217.444208 
L 103.5792 150.078996 
L 103.66848 171.522428 
L 103.75776 160.903562 
L 103.93632 252.478634 
L 104.11488 151.70275 
L 104.20416 198.053371 
L 104.29344 186.196649 
L 104.38272 186.623525 
L 104.472 204.609824 
L 104.65056 154.025686 
L 104.73984 159.380851 
L 104.82912 167.294557 
L 104.9184 143.464534 
L 105.09696 188.009867 
L 105.18624 158.57763 
L 105.27552 186.708688 
L 105.3648 160.708023 
L 105.45408 202.015457 
L 105.54336 135.421109 
L 105.63264 156.235834 
L 105.72192 137.421343 
L 105.90048 158.649103 
L 105.98976 194.109824 
L 106.16832 157.427832 
L 106.34688 191.838557 
L 106.52544 165.832264 
L 106.61472 169.302491 
L 106.704 140.585842 
L 106.88256 171.91494 
L 107.06112 151.879679 
L 107.1504 195.327919 
L 107.23968 191.825133 
L 107.32896 150.540263 
L 107.41824 199.195761 
L 107.5968 143.919801 
L 107.68608 147.030725 
L 107.77536 134.40417 
L 107.86464 181.146389 
L 107.95392 142.359705 
L 108.0432 171.552012 
L 108.22176 151.588449 
L 108.31104 190.814242 
L 108.4896 155.998728 
L 108.57888 162.687111 
L 108.66816 204.076394 
L 108.84672 133.927065 
L 109.02528 182.600173 
L 109.20384 130.436898 
L 109.29312 177.461978 
L 109.3824 145.541498 
L 109.47168 190.492238 
L 109.56096 173.123296 
L 109.65024 188.428231 
L 109.73952 173.138463 
L 109.8288 213.652069 
L 110.09664 155.369377 
L 110.18592 186.988916 
L 110.2752 164.890669 
L 110.36448 180.504376 
L 110.45376 147.480919 
L 110.54304 147.710923 
L 110.63232 180.790848 
L 110.7216 133.458685 
L 110.81088 138.241515 
L 110.90016 135.36937 
L 110.98944 201.930511 
L 111.07872 183.887795 
L 111.168 128.883244 
L 111.34656 168.896586 
L 111.43584 150.710572 
L 111.52512 156.470114 
L 111.6144 137.779907 
L 111.70368 156.953131 
L 111.79296 155.534478 
L 111.88224 285.408 
L 111.97152 149.117674 
L 112.0608 170.715322 
L 112.15008 152.116227 
L 112.23936 205.243534 
L 112.32864 153.224199 
L 112.41792 178.900714 
L 112.5072 154.998782 
L 112.59648 175.188251 
L 112.68576 147.858565 
L 112.77504 164.619376 
L 112.86432 160.109838 
L 112.9536 141.045295 
L 113.04288 190.187931 
L 113.22144 158.574332 
L 113.31072 158.784961 
L 113.4 161.32696 
L 113.48928 150.717426 
L 113.57856 159.984869 
L 113.66784 152.099486 
L 113.75712 161.538746 
L 113.93568 137.980658 
L 114.02496 191.178519 
L 114.11424 147.820282 
L 114.20352 169.838224 
L 114.2928 159.246171 
L 114.38208 170.396617 
L 114.47136 127.608409 
L 114.64992 186.369117 
L 114.7392 151.559931 
L 114.82848 163.188923 
L 114.91776 152.952451 
L 115.1856 194.032991 
L 115.27488 222.201483 
L 115.54272 168.491062 
L 115.632 173.732688 
L 115.72128 145.147401 
L 115.81056 172.123231 
L 115.89984 149.636307 
L 115.98912 169.09673 
L 116.0784 127.344495 
L 116.25696 183.931104 
L 116.34624 177.315871 
L 116.5248 125.515048 
L 116.70336 148.559292 
L 116.79264 220.042108 
L 116.88192 133.269528 
L 117.06048 186.611094 
L 117.14976 123.03842 
L 117.23904 197.645164 
L 117.4176 122.980379 
L 117.50688 126.674616 
L 117.59616 185.815779 
L 117.68544 125.821267 
L 117.77472 183.915082 
L 117.864 137.561686 
L 117.95328 163.27289 
L 118.04256 161.521214 
L 118.13184 159.116132 
L 118.3104 201.190135 
L 118.57824 134.314238 
L 118.66752 142.280055 
L 118.7568 168.049267 
L 118.93536 116.978316 
L 119.11392 155.469436 
L 119.2032 137.551588 
L 119.29248 146.719396 
L 119.47104 138.498693 
L 119.56032 149.266222 
L 119.73888 190.599117 
L 119.91744 142.737464 
L 120.00672 163.851296 
L 120.18528 122.51607 
L 120.36384 162.898658 
L 120.45312 180.160794 
L 120.5424 147.543362 
L 120.63168 154.793522 
L 120.81024 193.111131 
L 121.07808 145.410218 
L 121.16736 171.639658 
L 121.4352 131.473289 
L 121.70304 171.514969 
L 121.8816 128.455941 
L 122.14944 164.400288 
L 122.23872 109.888715 
L 122.41728 155.837501 
L 122.50656 152.924004 
L 122.59584 125.28518 
L 122.68512 155.71548 
L 122.7744 149.874868 
L 122.86368 164.479086 
L 122.95296 151.875832 
L 123.13152 178.731508 
L 123.2208 215.72559 
L 123.48864 129.155675 
L 123.57792 181.797885 
L 123.75648 118.960088 
L 123.93504 196.847273 
L 124.02432 167.769777 
L 124.1136 242.801988 
L 124.29216 134.079354 
L 124.38144 134.252003 
L 124.47072 159.17404 
L 124.64928 127.593819 
L 124.73856 130.334753 
L 124.82784 140.433318 
L 124.91712 137.429516 
L 125.0064 183.264876 
L 125.18496 148.886067 
L 125.27424 157.92703 
L 125.36352 149.097352 
L 125.4528 155.977391 
L 125.63136 180.108681 
L 125.80992 133.43023 
L 125.8992 172.19061 
L 126.07776 137.504825 
L 126.16704 152.376004 
L 126.25632 138.981066 
L 126.3456 168.069604 
L 126.52416 137.343409 
L 126.61344 151.749027 
L 126.70272 190.35318 
L 126.792 131.920345 
L 126.88128 154.195214 
L 127.05984 116.507729 
L 127.14912 130.825231 
L 127.2384 117.789884 
L 127.41696 169.311494 
L 127.50624 134.393492 
L 127.59552 160.109492 
L 127.86336 119.914703 
L 127.95264 169.31076 
L 128.04192 164.059033 
L 128.30976 123.285144 
L 128.39904 139.66389 
L 128.48832 212.728146 
L 128.66688 164.21206 
L 128.75616 163.584013 
L 128.93472 205.973991 
L 129.024 149.703764 
L 129.20256 183.576693 
L 129.4704 139.114696 
L 129.55968 174.639416 
L 129.64896 136.762358 
L 129.82752 208.176063 
L 129.9168 128.482539 
L 130.00608 137.95458 
L 130.09536 132.594509 
L 130.18464 153.30447 
L 130.45248 127.928096 
L 130.54176 161.785961 
L 130.72032 141.668561 
L 130.8096 138.364826 
L 130.89888 109.210304 
L 131.07744 150.661713 
L 131.16672 138.275151 
L 131.256 151.996871 
L 131.34528 122.525295 
L 131.52384 154.162026 
L 131.7024 139.132736 
L 131.79168 141.581758 
L 131.88096 157.95542 
L 131.97024 128.445419 
L 132.05952 179.681375 
L 132.23808 120.998967 
L 132.41664 142.310562 
L 132.50592 110.592307 
L 132.5952 156.505466 
L 132.68448 125.094346 
L 132.77376 126.61748 
L 132.95232 153.311031 
L 133.0416 185.484062 
L 133.22016 128.54926 
L 133.30944 171.372105 
L 133.39872 109.465121 
L 133.57728 170.146515 
L 133.66656 162.393025 
L 133.9344 133.867678 
L 134.20224 172.274405 
L 134.29152 183.349622 
L 134.47008 132.080989 
L 134.64864 117.612235 
L 134.73792 122.502425 
L 134.91648 137.569504 
L 135.00576 121.508071 
L 135.09504 128.407051 
L 135.18432 201.044748 
L 135.36288 118.99883 
L 135.45216 193.780999 
L 135.54144 110.137042 
L 135.63072 148.695654 
L 135.72 107.259874 
L 135.80928 140.834081 
L 135.89856 137.815136 
L 135.98784 143.700284 
L 136.1664 130.320582 
L 136.25568 160.185724 
L 136.34496 112.850108 
L 136.43424 136.226577 
L 136.52352 131.030418 
L 136.70208 140.048004 
L 136.79136 163.031326 
L 136.96992 130.059122 
L 137.0592 133.572115 
L 137.14848 154.01508 
L 137.23776 116.279983 
L 137.32704 163.994375 
L 137.41632 148.845368 
L 137.5056 114.79837 
L 137.59488 120.946545 
L 137.68416 108.400199 
L 137.77344 159.03827 
L 137.86272 109.807865 
L 137.952 142.090382 
L 138.04128 138.790484 
L 138.13056 112.635713 
L 138.30912 141.116181 
L 138.3984 133.351576 
L 138.48768 105.914514 
L 138.66624 135.629142 
L 138.75552 131.979226 
L 138.8448 100.48605 
L 138.93408 126.851962 
L 139.02336 123.751834 
L 139.11264 118.383017 
L 139.2912 134.037265 
L 139.38048 138.850837 
L 139.46976 120.309186 
L 139.64832 136.204778 
L 139.7376 163.166439 
L 139.82688 126.359081 
L 139.91616 128.695055 
L 140.00544 148.973511 
L 140.27328 102.542359 
L 140.36256 134.565657 
L 140.45184 132.987203 
L 140.54112 114.620908 
L 140.71968 121.028586 
L 140.80896 98.991593 
L 140.89824 139.512483 
L 140.98752 135.908333 
L 141.0768 118.46042 
L 141.25536 134.455331 
L 141.34464 132.555079 
L 141.43392 115.974799 
L 141.5232 149.202336 
L 141.61248 143.568569 
L 141.70176 119.792324 
L 141.79104 129.980625 
L 141.88032 180.753666 
L 141.9696 125.725919 
L 142.05888 129.56057 
L 142.14816 157.98655 
L 142.32672 105.387733 
L 142.416 149.005518 
L 142.50528 139.197298 
L 142.59456 155.19347 
L 142.68384 113.810833 
L 142.77312 129.767588 
L 142.8624 116.975266 
L 142.95168 152.166168 
L 143.04096 111.491358 
L 143.13024 116.167805 
L 143.21952 135.259455 
L 143.3088 184.211535 
L 143.39808 117.546175 
L 143.48736 137.099833 
L 143.66592 117.720053 
L 143.84448 157.611323 
L 143.93376 115.075368 
L 144.02304 127.393348 
L 144.2016 102.292166 
L 144.29088 106.950629 
L 144.38016 129.730345 
L 144.46944 111.989413 
L 144.55872 138.522835 
L 144.648 123.633943 
L 144.82656 162.327983 
L 144.91584 128.425278 
L 145.00512 204.09584 
L 145.0944 105.045609 
L 145.18368 151.176938 
L 145.36224 114.24298 
L 145.45152 136.358501 
L 145.5408 133.087224 
L 145.63008 110.200425 
L 145.71936 118.815118 
L 145.89792 146.406616 
L 146.07648 125.606985 
L 146.16576 115.347706 
L 146.25504 131.768689 
L 146.34432 125.555732 
L 146.4336 126.185884 
L 146.52288 103.161295 
L 146.70144 140.44206 
L 146.96928 105.183921 
L 147.05856 134.083424 
L 147.14784 121.466232 
L 147.3264 135.675195 
L 147.50496 114.394563 
L 147.59424 165.319275 
L 147.68352 110.646384 
L 147.7728 114.516579 
L 147.86208 120.339005 
L 147.95136 93.07144 
L 148.12992 126.468302 
L 148.2192 137.199384 
L 148.39776 116.540007 
L 148.57632 118.593172 
L 148.6656 127.98907 
L 148.75488 122.107175 
L 148.84416 169.602716 
L 148.93344 131.789244 
L 149.02272 138.306989 
L 149.112 141.08613 
L 149.20128 135.529513 
L 149.29056 120.171645 
L 149.37984 142.956048 
L 149.5584 104.006812 
L 149.64768 200.090036 
L 149.82624 135.17984 
L 149.91552 131.396675 
L 150.09408 108.521224 
L 150.18336 135.133285 
L 150.27264 116.299019 
L 150.36192 145.349132 
L 150.54048 122.729467 
L 150.62976 144.522179 
L 150.71904 107.874136 
L 150.8976 140.050738 
L 150.98688 130.382871 
L 151.07616 128.363028 
L 151.25472 131.721526 
L 151.52256 104.958822 
L 151.61184 118.928429 
L 151.70112 171.499477 
L 151.7904 104.450289 
L 151.87968 138.444615 
L 151.96896 119.303933 
L 152.05824 152.867981 
L 152.2368 118.049389 
L 152.32608 122.303111 
L 152.41536 142.373403 
L 152.59392 109.769425 
L 152.6832 104.896013 
L 152.77248 167.801385 
L 152.86176 119.607969 
L 152.95104 141.782982 
L 153.04032 120.056171 
L 153.1296 147.840827 
L 153.21888 146.13629 
L 153.39744 126.341091 
L 153.48672 140.984081 
L 153.66528 121.170932 
L 153.75456 122.558003 
L 153.93312 140.819562 
L 154.20096 105.746967 
L 154.29024 152.752612 
L 154.4688 119.265878 
L 154.64736 156.562856 
L 154.73664 136.571306 
L 154.82592 155.622997 
L 154.9152 129.48539 
L 155.00448 145.471411 
L 155.09376 124.406819 
L 155.27232 140.218285 
L 155.3616 117.504224 
L 155.45088 123.574156 
L 155.54016 177.512145 
L 155.62944 138.411824 
L 155.71872 181.70772 
L 155.808 130.849834 
L 155.89728 131.636228 
L 156.07584 146.185676 
L 156.16512 108.534545 
L 156.2544 140.946635 
L 156.43296 117.558073 
L 156.61152 138.934757 
L 156.7008 113.06303 
L 156.79008 119.352839 
L 156.87936 103.819474 
L 157.1472 131.209906 
L 157.23648 131.504682 
L 157.32576 120.131433 
L 157.41504 140.068741 
L 157.50432 133.422813 
L 157.5936 104.803828 
L 157.68288 117.993683 
L 157.77216 105.540405 
L 157.95072 157.324183 
L 158.04 104.602013 
L 158.21856 144.075817 
L 158.30784 94.418258 
L 158.4864 120.438094 
L 158.57568 94.683793 
L 158.66496 116.264787 
L 158.75424 109.105985 
L 158.84352 164.035985 
L 159.02208 129.35918 
L 159.11136 146.132329 
L 159.28992 123.114163 
L 159.3792 89.936903 
L 159.73632 135.16771 
L 159.8256 106.57091 
L 160.00416 134.467367 
L 160.18272 100.580872 
L 160.36128 127.222711 
L 160.45056 95.700567 
L 160.62912 135.013172 
L 160.80768 112.314598 
L 160.89696 122.77202 
L 160.98624 149.674198 
L 161.25408 98.803561 
L 161.43264 130.132552 
L 161.52192 131.819237 
L 161.70048 101.369182 
L 161.78976 142.819974 
L 161.87904 99.444535 
L 161.96832 150.040883 
L 162.0576 107.767734 
L 162.14688 117.599101 
L 162.23616 114.604457 
L 162.32544 105.380051 
L 162.59328 129.960585 
L 162.86112 98.333655 
L 162.9504 117.732914 
L 163.03968 109.307467 
L 163.12896 142.287813 
L 163.21824 127.693172 
L 163.30752 148.368218 
L 163.3968 104.300573 
L 163.48608 141.888938 
L 163.66464 112.058113 
L 163.75392 92.589781 
L 163.93248 141.94232 
L 164.02176 125.684233 
L 164.11104 132.159418 
L 164.2896 109.493386 
L 164.37888 110.993446 
L 164.46816 128.998251 
L 164.55744 108.476881 
L 164.64672 119.210636 
L 164.82528 100.612222 
L 164.91456 128.622606 
L 165.09312 101.08796 
L 165.45024 131.58217 
L 165.53952 125.336944 
L 165.6288 100.541998 
L 165.71808 147.770844 
L 165.89664 113.230056 
L 165.98592 108.3919 
L 166.0752 120.705857 
L 166.16448 118.037643 
L 166.25376 106.279786 
L 166.34304 111.777908 
L 166.43232 133.634608 
L 166.70016 99.430524 
L 166.78944 95.763882 
L 166.87872 125.0323 
L 167.05728 108.359041 
L 167.14656 116.445099 
L 167.23584 114.649431 
L 167.32512 118.948595 
L 167.4144 113.350546 
L 167.50368 127.593679 
L 167.77152 91.484397 
L 167.95008 141.428307 
L 168.03936 109.825891 
L 168.12864 115.555446 
L 168.21792 98.710837 
L 168.3072 160.655233 
L 168.48576 110.775419 
L 168.57504 112.321351 
L 168.66432 118.127241 
L 168.84288 138.26322 
L 168.93216 117.260792 
L 169.02144 122.052116 
L 169.11072 109.697624 
L 169.2 145.076619 
L 169.28928 107.211075 
L 169.37856 111.516664 
L 169.55712 158.112284 
L 169.6464 96.718213 
L 169.82496 132.1916 
L 169.91424 122.522696 
L 170.00352 126.225652 
L 170.0928 135.423401 
L 170.18208 112.138859 
L 170.27136 119.162801 
L 170.36064 116.165716 
L 170.44992 120.910696 
L 170.62848 104.122754 
L 170.71776 123.983256 
L 170.89632 111.637426 
L 170.9856 122.226723 
L 171.07488 113.490855 
L 171.16416 128.037002 
L 171.25344 105.605984 
L 171.34272 126.280777 
L 171.432 107.796517 
L 171.52128 118.28454 
L 171.61056 110.61422 
L 171.78912 117.087002 
L 171.8784 106.80312 
L 171.96768 136.635518 
L 172.05696 133.3697 
L 172.14624 104.551832 
L 172.23552 123.105197 
L 172.3248 114.920368 
L 172.41408 134.837338 
L 172.59264 113.102354 
L 172.68192 144.568 
L 172.86048 119.546842 
L 172.94976 113.525008 
L 173.03904 99.114146 
L 173.12832 128.684503 
L 173.2176 95.438752 
L 173.30688 125.71635 
L 173.39616 100.51047 
L 173.48544 104.821418 
L 173.57472 101.962886 
L 173.664 138.917635 
L 173.75328 133.590549 
L 173.93184 106.662418 
L 174.02112 132.120012 
L 174.1104 103.001623 
L 174.28896 127.495183 
L 174.46752 104.383225 
L 174.5568 110.490701 
L 174.64608 95.94077 
L 174.73536 116.241448 
L 174.82464 101.317389 
L 175.18176 142.512594 
L 175.36032 123.617055 
L 175.4496 115.132072 
L 175.71744 137.44251 
L 175.896 113.546123 
L 175.98528 129.71744 
L 176.07456 129.443015 
L 176.16384 114.146488 
L 176.25312 131.361931 
L 176.3424 102.030147 
L 176.43168 127.045966 
L 176.52096 120.80787 
L 176.61024 140.714939 
L 176.7888 105.267565 
L 176.87808 112.704505 
L 176.96736 170.736562 
L 177.14592 105.295159 
L 177.2352 135.572941 
L 177.32448 105.03096 
L 177.59232 147.733384 
L 177.6816 110.501386 
L 177.77088 116.264057 
L 177.86016 147.922583 
L 178.03872 99.791623 
L 178.128 127.084557 
L 178.21728 125.202743 
L 178.30656 141.263486 
L 178.39584 121.102396 
L 178.48512 133.051851 
L 178.66368 115.253605 
L 178.75296 105.855754 
L 178.84224 106.732153 
L 179.0208 130.71699 
L 179.11008 91.26419 
L 179.19936 116.334371 
L 179.28864 108.185547 
L 179.37792 111.366323 
L 179.4672 106.626983 
L 179.55648 138.399404 
L 179.64576 99.012605 
L 179.73504 134.903386 
L 179.82432 114.900504 
L 179.9136 138.488941 
L 180.00288 132.517528 
L 180.09216 148.594837 
L 180.18144 121.300159 
L 180.27072 145.871993 
L 180.36 103.155569 
L 180.44928 133.382803 
L 180.53856 98.855387 
L 180.62784 148.428536 
L 180.8064 108.783223 
L 180.89568 126.442167 
L 180.98496 120.557688 
L 181.16352 144.178314 
L 181.34208 110.385871 
L 181.43136 111.95226 
L 181.52064 128.935583 
L 181.60992 128.309983 
L 181.78848 90.15965 
L 181.96704 117.414941 
L 182.05632 125.371413 
L 182.1456 109.276525 
L 182.23488 111.828048 
L 182.32416 119.179757 
L 182.41344 115.324106 
L 182.50272 127.873285 
L 182.592 113.435499 
L 182.77056 129.193836 
L 182.85984 105.691455 
L 183.0384 130.061964 
L 183.12768 100.287335 
L 183.21696 106.681607 
L 183.30624 96.721883 
L 183.57408 120.940233 
L 183.66336 105.405086 
L 183.84192 142.242614 
L 184.02048 113.95606 
L 184.10976 123.386836 
L 184.28832 101.818988 
L 184.3776 110.991158 
L 184.46688 143.034644 
L 184.64544 112.859532 
L 184.73472 120.041944 
L 184.824 142.71751 
L 184.91328 120.926834 
L 185.00256 132.208565 
L 185.09184 115.285942 
L 185.18112 127.590317 
L 185.35968 107.567973 
L 185.44896 121.94403 
L 185.53824 108.965031 
L 185.62752 124.680642 
L 185.7168 110.400093 
L 185.80608 124.091176 
L 185.89536 111.890013 
L 186.07392 148.78184 
L 186.1632 120.60012 
L 186.34176 177.148662 
L 186.43104 113.213994 
L 186.52032 123.005468 
L 186.6096 134.257214 
L 186.69888 105.28183 
L 186.96672 132.522358 
L 187.056 106.938569 
L 187.14528 127.532785 
L 187.23456 102.323189 
L 187.32384 107.314535 
L 187.41312 101.268272 
L 187.5024 138.404409 
L 187.59168 120.271214 
L 187.68096 123.018578 
L 187.85952 94.921978 
L 187.9488 139.067061 
L 188.03808 113.923922 
L 188.12736 124.971744 
L 188.21664 98.760783 
L 188.3952 123.150862 
L 188.48448 89.922121 
L 188.75232 126.375828 
L 188.8416 104.699415 
L 189.02016 117.828324 
L 189.10944 117.114606 
L 189.19872 132.723466 
L 189.288 129.460373 
L 189.37728 127.109068 
L 189.46656 145.907023 
L 189.64512 100.313887 
L 189.7344 133.080314 
L 189.82368 89.008167 
L 189.91296 132.924092 
L 190.00224 130.728054 
L 190.09152 127.274979 
L 190.1808 153.626762 
L 190.27008 117.446118 
L 190.35936 126.155659 
L 190.44864 135.981673 
L 190.6272 99.809397 
L 190.71648 136.928859 
L 190.80576 104.060404 
L 191.16288 165.107535 
L 191.43072 100.458896 
L 191.52 137.272078 
L 191.60928 127.988186 
L 191.69856 128.973501 
L 191.87712 114.900152 
L 191.9664 93.715155 
L 192.14496 127.25926 
L 192.23424 143.709435 
L 192.32352 125.397815 
L 192.4128 137.291136 
L 192.50208 121.788622 
L 192.59136 147.960751 
L 192.68064 101.914985 
L 192.76992 118.275735 
L 192.8592 92.943191 
L 192.94848 129.385979 
L 193.03776 95.09272 
L 193.12704 128.334802 
L 193.21632 106.677368 
L 193.3056 189.868006 
L 193.39488 131.584879 
L 193.48416 139.680586 
L 193.57344 146.766378 
L 193.752 94.995297 
L 193.84128 127.030766 
L 194.01984 114.945898 
L 194.1984 121.45508 
L 194.28768 102.327797 
L 194.37696 125.862033 
L 194.46624 124.145971 
L 194.55552 107.426502 
L 194.6448 126.67083 
L 194.73408 109.008709 
L 194.91264 157.886999 
L 195.00192 124.782125 
L 195.0912 139.289069 
L 195.18048 102.448109 
L 195.26976 178.740077 
L 195.35904 109.844375 
L 195.44832 128.117466 
L 195.5376 117.189891 
L 195.62688 126.846802 
L 195.80544 110.990186 
L 195.89472 112.063529 
L 196.07328 133.974006 
L 196.25184 106.556338 
L 196.34112 131.353553 
L 196.4304 97.966705 
L 196.51968 168.136934 
L 196.60896 100.936027 
L 196.69824 165.337607 
L 196.78752 150.128794 
L 196.96608 110.167777 
L 197.05536 129.358876 
L 197.14464 125.897568 
L 197.23392 116.373808 
L 197.3232 122.137645 
L 197.41248 151.671504 
L 197.50176 118.462816 
L 197.59104 193.160878 
L 197.68032 87.486691 
L 197.7696 99.639694 
L 197.85888 136.559878 
L 197.94816 102.34009 
L 198.03744 127.324751 
L 198.12672 109.918878 
L 198.216 124.824855 
L 198.30528 85.049212 
L 198.39456 124.861122 
L 198.48384 120.719639 
L 198.57312 120.096456 
L 198.6624 97.793131 
L 198.75168 128.599005 
L 198.84096 107.730395 
L 198.93024 133.683033 
L 199.01952 105.843056 
L 199.1088 128.659782 
L 199.19808 110.962854 
L 199.28736 111.626432 
L 199.37664 150.699288 
L 199.46592 106.831802 
L 199.5552 110.973304 
L 199.64448 110.428321 
L 199.73376 112.766997 
L 199.82304 158.289157 
L 200.09088 100.530356 
L 200.26944 128.109441 
L 200.35872 106.257079 
L 200.448 122.662966 
L 200.53728 115.402683 
L 200.62656 147.715727 
L 200.80512 110.476566 
L 200.8944 96.475393 
L 201.07296 113.974594 
L 201.16224 106.486974 
L 201.3408 122.060176 
L 201.43008 91.364515 
L 201.51936 124.932801 
L 201.60864 92.647158 
L 201.7872 132.368155 
L 201.96576 99.762575 
L 202.2336 139.145064 
L 202.50144 97.899312 
L 202.59072 116.128549 
L 202.76928 98.626027 
L 202.85856 174.782502 
L 202.94784 105.40291 
L 203.03712 108.212083 
L 203.1264 126.149368 
L 203.21568 111.343317 
L 203.30496 128.295546 
L 203.39424 104.699117 
L 203.48352 110.457463 
L 203.5728 114.664391 
L 203.66208 126.886347 
L 203.75136 111.150717 
L 203.84064 119.02508 
L 203.92992 109.784088 
L 204.0192 122.842347 
L 204.10848 88.532315 
L 204.19776 93.350538 
L 204.37632 109.552508 
L 204.4656 92.950556 
L 204.55488 111.886017 
L 204.64416 97.554815 
L 204.73344 125.8339 
L 204.82272 119.700446 
L 205.00128 97.136964 
L 205.09056 127.136057 
L 205.17984 120.472069 
L 205.26912 119.600919 
L 205.3584 104.45211 
L 205.44768 134.773261 
L 205.53696 105.933508 
L 205.62624 109.301903 
L 205.71552 109.811521 
L 205.89408 101.945537 
L 205.98336 128.275806 
L 206.16192 93.324327 
L 206.2512 105.851112 
L 206.34048 93.355512 
L 206.42976 139.58728 
L 206.6976 100.843886 
L 206.78688 124.491833 
L 206.87616 89.920985 
L 206.96544 122.281671 
L 207.05472 94.639722 
L 207.144 124.682086 
L 207.23328 96.867758 
L 207.32256 109.971035 
L 207.41184 175.466613 
L 207.50112 93.471724 
L 207.5904 103.454589 
L 207.76896 116.224228 
L 207.85824 108.487204 
L 207.94752 138.832038 
L 208.12608 107.891921 
L 208.21536 95.942245 
L 208.30464 116.899143 
L 208.39392 96.579377 
L 208.4832 155.589244 
L 208.57248 121.383597 
L 208.66176 137.448663 
L 208.75104 91.953462 
L 208.84032 99.342978 
L 208.9296 85.015013 
L 209.01888 135.603994 
L 209.10816 124.469429 
L 209.19744 102.829157 
L 209.376 131.691119 
L 209.46528 103.403718 
L 209.55456 110.696037 
L 209.64384 93.094173 
L 209.91168 137.327884 
L 210.00096 90.574444 
L 210.09024 112.737977 
L 210.17952 101.982079 
L 210.2688 105.498151 
L 210.44736 140.639518 
L 210.53664 102.988297 
L 210.62592 108.290042 
L 210.7152 95.874949 
L 210.80448 123.939849 
L 211.07232 87.429687 
L 211.25088 110.964754 
L 211.34016 107.588754 
L 211.42944 104.157062 
L 211.51872 91.495659 
L 211.78656 109.813952 
L 211.87584 92.035555 
L 211.96512 93.996523 
L 212.0544 124.803473 
L 212.14368 98.117873 
L 212.23296 102.710051 
L 212.41152 120.851995 
L 212.5008 94.070382 
L 212.59008 100.085238 
L 212.67936 92.961458 
L 212.85792 112.81324 
L 213.03648 116.079895 
L 213.12576 123.934457 
L 213.3936 88.774662 
L 213.48288 93.754009 
L 213.57216 93.580598 
L 213.66144 95.757232 
L 213.75072 94.373937 
L 213.92928 85.745573 
L 214.01856 94.751624 
L 214.10784 87.957032 
L 214.19712 93.364148 
L 214.2864 125.630733 
L 214.46496 101.840643 
L 214.64352 111.438261 
L 214.7328 91.011341 
L 214.82208 106.982252 
L 214.91136 103.125247 
L 215.00064 97.046072 
L 215.08992 121.478163 
L 215.1792 88.798579 
L 215.26848 96.286142 
L 215.35776 126.480156 
L 215.44704 97.009651 
L 215.53632 116.2722 
L 215.6256 102.193993 
L 215.80416 121.894282 
L 215.98272 121.279178 
L 216.16128 95.127989 
L 216.25056 128.208334 
L 216.33984 108.719234 
L 216.42912 112.666488 
L 216.5184 100.746051 
L 216.60768 121.391683 
L 216.78624 92.560023 
L 216.87552 96.912268 
L 216.9648 95.817642 
L 217.05408 101.033655 
L 217.14336 98.026757 
L 217.23264 100.580097 
L 217.32192 97.636362 
L 217.4112 97.73938 
L 217.50048 107.900727 
L 217.58976 106.625369 
L 217.67904 91.222381 
L 217.76832 109.132575 
L 217.8576 91.104237 
L 217.94688 107.062982 
L 218.03616 101.071022 
L 218.12544 105.704236 
L 218.21472 121.688194 
L 218.304 106.70364 
L 218.39328 115.15222 
L 218.48256 112.89175 
L 218.66112 119.597684 
L 218.7504 114.175551 
L 218.92896 98.229931 
L 219.01824 129.59066 
L 219.10752 89.275114 
L 219.1968 127.475872 
L 219.28608 127.365075 
L 219.46464 91.754917 
L 219.55392 94.031187 
L 219.73248 105.363075 
L 219.82176 87.635259 
L 219.91104 105.188028 
L 220.00032 99.251873 
L 220.0896 132.434076 
L 220.17888 88.678482 
L 220.26816 118.750772 
L 220.35744 112.421395 
L 220.44672 101.682003 
L 220.536 111.355115 
L 220.62528 96.614289 
L 220.71456 97.910729 
L 220.89312 102.12792 
L 220.9824 90.71353 
L 221.07168 119.709062 
L 221.25024 88.707468 
L 221.33952 93.494 
L 221.51808 110.75316 
L 221.60736 110.593628 
L 221.69664 90.169979 
L 221.96448 130.118336 
L 222.14304 82.662287 
L 222.23232 170.059545 
L 222.41088 99.245795 
L 222.50016 86.895388 
L 222.58944 101.735161 
L 222.67872 98.19443 
L 222.768 103.590709 
L 222.85728 99.993771 
L 222.94656 91.714917 
L 223.03584 112.547941 
L 223.12512 101.880191 
L 223.2144 106.179976 
L 223.30368 93.69038 
L 223.39296 105.835953 
L 223.48224 96.362821 
L 223.6608 106.820358 
L 223.83936 86.281452 
L 224.01792 104.412485 
L 224.1072 117.93115 
L 224.19648 103.160413 
L 224.28576 116.424533 
L 224.37504 80.574289 
L 224.64288 132.836318 
L 224.73216 83.819047 
L 224.82144 107.996057 
L 224.91072 106.415432 
L 225 122.992313 
L 225.17856 95.06148 
L 225.26784 136.425351 
L 225.35712 101.133107 
L 225.53568 114.227066 
L 225.71424 84.054855 
L 225.80352 115.862658 
L 225.8928 110.762526 
L 225.98208 92.322369 
L 226.07136 137.980115 
L 226.24992 94.63914 
L 226.42848 127.34624 
L 226.60704 108.822774 
L 226.69632 118.111634 
L 226.7856 93.510144 
L 226.96416 117.460456 
L 227.232 83.72755 
L 227.49984 116.642497 
L 227.58912 109.720349 
L 227.6784 84.444464 
L 227.76768 104.825283 
L 227.85696 95.531359 
L 227.94624 95.975091 
L 228.1248 123.298736 
L 228.21408 119.392128 
L 228.30336 91.076501 
L 228.39264 110.762404 
L 228.48192 93.838126 
L 228.5712 120.75065 
L 228.66048 103.82404 
L 228.83904 129.807954 
L 229.10688 89.956068 
L 229.19616 114.327597 
L 229.28544 80.430688 
L 229.37472 83.427963 
L 229.55328 117.004805 
L 229.73184 92.63398 
L 229.82112 105.54342 
L 229.9104 83.18386 
L 230.08896 116.994176 
L 230.17824 113.02007 
L 230.26752 158.276318 
L 230.44608 101.563378 
L 230.53536 99.243663 
L 230.62464 107.436526 
L 230.71392 126.773904 
L 230.89248 87.356729 
L 230.98176 105.116062 
L 231.16032 88.552893 
L 231.33888 112.181936 
L 231.42816 92.357636 
L 231.51744 111.924946 
L 231.60672 237.324918 
L 231.78528 88.892024 
L 231.87456 84.173897 
L 232.05312 103.598314 
L 232.23168 90.982274 
L 232.32096 88.71064 
L 232.49952 112.081304 
L 232.67808 83.395918 
L 232.76736 84.9277 
L 232.85664 106.409533 
L 232.94592 93.951708 
L 233.0352 136.606929 
L 233.12448 90.806051 
L 233.21376 96.89571 
L 233.30304 88.085915 
L 233.39232 96.82348 
L 233.4816 141.412851 
L 233.66016 94.550157 
L 233.74944 120.206475 
L 233.928 84.749221 
L 234.28512 122.909698 
L 234.3744 103.222751 
L 234.46368 110.040861 
L 234.55296 105.36788 
L 234.64224 83.958993 
L 234.73152 98.989816 
L 234.8208 93.165393 
L 234.91008 110.219273 
L 234.99936 96.691873 
L 235.08864 99.614065 
L 235.17792 127.999265 
L 235.35648 99.002254 
L 235.44576 100.665743 
L 235.53504 111.948782 
L 235.89216 99.470622 
L 236.07072 103.660267 
L 236.24928 80.785883 
L 236.33856 104.715259 
L 236.42784 104.09957 
L 236.51712 98.151431 
L 236.6064 102.639024 
L 236.69568 90.712621 
L 236.87424 120.762129 
L 236.96352 93.443115 
L 237.0528 94.70723 
L 237.14208 104.726407 
L 237.23136 94.034535 
L 237.40992 131.274223 
L 237.67776 98.325428 
L 237.76704 91.227094 
L 237.85632 104.661144 
L 237.9456 94.343096 
L 238.03488 115.377738 
L 238.12416 113.274371 
L 238.21344 91.498605 
L 238.392 112.475699 
L 238.65984 87.692957 
L 238.8384 101.505067 
L 238.92768 131.989876 
L 239.01696 96.327022 
L 239.10624 101.428231 
L 239.19552 102.284573 
L 239.2848 91.662942 
L 239.37408 97.507857 
L 239.46336 91.966765 
L 239.55264 110.749818 
L 239.64192 98.74078 
L 239.7312 103.346545 
L 239.82048 119.910969 
L 239.90976 94.599629 
L 239.99904 126.012567 
L 240.08832 105.244851 
L 240.1776 127.647217 
L 240.35616 93.035633 
L 240.44544 119.220805 
L 240.53472 108.411126 
L 240.624 130.385005 
L 240.71328 102.310886 
L 240.80256 113.260022 
L 240.89184 90.920429 
L 240.98112 134.452245 
L 241.15968 93.388567 
L 241.33824 101.859622 
L 241.42752 88.24728 
L 241.5168 90.083927 
L 241.60608 92.535081 
L 241.78464 107.72013 
L 241.87392 108.874301 
L 242.05248 91.166617 
L 242.14176 102.964065 
L 242.23104 137.755622 
L 242.4096 90.816555 
L 242.49888 112.407443 
L 242.58816 84.093986 
L 242.76672 105.436794 
L 242.94528 87.534274 
L 243.03456 86.854241 
L 243.39168 123.018001 
L 243.48096 85.781868 
L 243.57024 111.124082 
L 243.65952 93.6125 
L 243.7488 101.676565 
L 243.83808 88.264644 
L 243.92736 89.931438 
L 244.01664 92.538492 
L 244.1952 116.083234 
L 244.37376 88.111324 
L 244.46304 123.320967 
L 244.73088 75.264809 
L 244.90944 85.664978 
L 244.99872 110.841292 
L 245.088 83.551752 
L 245.26656 113.826666 
L 245.35584 89.376656 
L 245.44512 98.056638 
L 245.5344 89.806709 
L 245.71296 110.067994 
L 245.89152 94.974198 
L 245.9808 110.498427 
L 246.15936 90.477457 
L 246.33792 120.343602 
L 246.4272 113.268594 
L 246.51648 110.593881 
L 246.60576 114.090567 
L 246.69504 108.885923 
L 246.78432 114.43655 
L 246.8736 96.31129 
L 246.96288 102.931642 
L 247.05216 96.707891 
L 247.23072 129.737391 
L 247.40928 96.017174 
L 247.49856 96.385057 
L 247.67712 129.688546 
L 247.85568 110.35954 
L 248.03424 91.35309 
L 248.12352 100.637762 
L 248.2128 97.100775 
L 248.30208 86.173963 
L 248.39136 87.096569 
L 248.48064 94.697531 
L 248.56992 70.202289 
L 248.83776 144.349555 
L 249.01632 91.909229 
L 249.28416 107.520397 
L 249.37344 100.702352 
L 249.46272 100.874594 
L 249.552 109.404906 
L 249.73056 93.329169 
L 249.81984 118.915433 
L 249.9984 92.985349 
L 250.08768 129.526555 
L 250.26624 102.985483 
L 250.4448 87.059664 
L 250.53408 102.576337 
L 250.62336 84.444786 
L 250.80192 122.591729 
L 250.8912 83.303794 
L 250.98048 92.098329 
L 251.24832 122.359187 
L 251.3376 92.996403 
L 251.42688 98.231397 
L 251.60544 120.073309 
L 251.69472 84.144686 
L 251.784 108.434334 
L 251.96256 90.097588 
L 252.05184 106.68416 
L 252.14112 90.914847 
L 252.31968 111.204252 
L 252.49824 88.090671 
L 252.58752 91.073069 
L 252.76608 107.272656 
L 252.85536 94.284062 
L 253.03392 116.038282 
L 253.1232 125.079863 
L 253.21248 92.252403 
L 253.39104 110.264419 
L 253.48032 92.312012 
L 253.5696 124.695042 
L 253.65888 94.209917 
L 253.74816 123.986785 
L 253.83744 89.10773 
L 253.92672 100.120265 
L 254.016 95.137125 
L 254.10528 110.355479 
L 254.19456 86.716402 
L 254.37312 113.859991 
L 254.55168 88.893773 
L 254.64096 113.590298 
L 254.81952 89.374131 
L 254.9088 88.133952 
L 255.08736 101.569061 
L 255.17664 103.893236 
L 255.26592 94.788285 
L 255.3552 96.71689 
L 255.44448 107.398657 
L 255.53376 89.079688 
L 255.71232 121.40413 
L 255.89088 98.210861 
L 255.98016 122.761419 
L 256.15872 88.923004 
L 256.248 96.828833 
L 256.33728 92.148913 
L 256.42656 94.270692 
L 256.60512 112.536188 
L 256.78368 85.414261 
L 256.96224 96.14492 
L 257.05152 97.342932 
L 257.1408 120.667349 
L 257.23008 117.462146 
L 257.40864 95.348285 
L 257.49792 104.594856 
L 257.5872 83.047546 
L 257.67648 113.791635 
L 257.76576 83.498537 
L 257.85504 117.606167 
L 257.94432 91.257401 
L 258.0336 95.779627 
L 258.12288 110.212913 
L 258.39072 74.504218 
L 258.48 111.03556 
L 258.56928 105.798308 
L 258.65856 100.951377 
L 258.74784 83.058285 
L 258.9264 128.561817 
L 259.01568 94.767286 
L 259.28352 130.488248 
L 259.55136 81.372374 
L 259.72992 116.59421 
L 259.8192 109.850919 
L 259.90848 81.9271 
L 259.99776 138.999764 
L 260.08704 132.53603 
L 260.17632 90.538492 
L 260.2656 96.844662 
L 260.35488 101.300242 
L 260.44416 100.147347 
L 260.53344 107.714726 
L 260.62272 106.124076 
L 260.712 111.358294 
L 260.80128 91.449338 
L 260.89056 96.880318 
L 261.06912 121.633322 
L 261.24768 88.672033 
L 261.42624 95.990317 
L 261.51552 92.934946 
L 261.6048 117.987988 
L 261.78336 94.624006 
L 261.87264 112.413494 
L 262.0512 96.455984 
L 262.14048 98.633863 
L 262.31904 89.504295 
L 262.4976 113.03071 
L 262.58688 83.042227 
L 262.85472 117.56423 
L 262.944 85.52768 
L 263.03328 88.632135 
L 263.12256 86.937924 
L 263.21184 91.618524 
L 263.30112 77.525132 
L 263.47968 108.950559 
L 263.56896 171.829402 
L 263.65824 82.837549 
L 263.74752 114.220317 
L 263.92608 69.526653 
L 264.10464 147.975652 
L 264.19392 95.273451 
L 264.2832 116.249668 
L 264.46176 91.485351 
L 264.55104 89.130601 
L 264.64032 112.360603 
L 264.7296 103.730437 
L 264.81888 116.070876 
L 264.90816 92.279097 
L 264.99744 108.483773 
L 265.176 79.550333 
L 265.26528 100.202845 
L 265.35456 83.776193 
L 265.44384 123.329041 
L 265.53312 97.84998 
L 265.6224 102.718317 
L 265.80096 108.585653 
L 265.89024 91.238432 
L 265.97952 110.801753 
L 266.0688 104.985026 
L 266.15808 81.391738 
L 266.33664 133.420483 
L 266.60448 92.190872 
L 266.69376 119.759154 
L 266.78304 104.275161 
L 266.87232 117.46337 
L 266.9616 79.49514 
L 267.05088 86.201225 
L 267.31872 96.196598 
L 267.49728 129.719925 
L 267.58656 85.187024 
L 267.67584 102.986028 
L 267.76512 157.646654 
L 267.8544 82.348739 
L 267.94368 111.665052 
L 268.03296 109.771055 
L 268.21152 84.641735 
L 268.3008 81.719244 
L 268.39008 113.171177 
L 268.47936 92.80156 
L 268.65792 122.915411 
L 268.7472 105.032961 
L 268.83648 119.544774 
L 269.01504 109.47997 
L 269.10432 82.882662 
L 269.28288 113.233189 
L 269.46144 94.715579 
L 269.55072 109.643426 
L 269.64 105.816478 
L 269.72928 89.191047 
L 269.81856 91.39234 
L 269.90784 123.223786 
L 270.17568 72.816841 
L 270.35424 126.518891 
L 270.44352 109.242784 
L 270.5328 114.190233 
L 270.62208 104.797355 
L 270.71136 82.969753 
L 270.88992 105.161766 
L 270.9792 94.659879 
L 271.06848 95.020741 
L 271.24704 110.310827 
L 271.4256 82.206894 
L 271.51488 94.633777 
L 271.60416 77.973872 
L 271.69344 113.957275 
L 271.78272 85.909119 
L 271.872 109.414841 
L 271.96128 86.710947 
L 272.13984 115.568429 
L 272.22912 87.784559 
L 272.3184 106.324092 
L 272.49696 95.962017 
L 272.58624 92.548183 
L 272.67552 93.735835 
L 272.7648 91.924399 
L 272.85408 98.598566 
L 272.94336 92.060956 
L 273.03264 112.793394 
L 273.12192 107.361153 
L 273.2112 130.118813 
L 273.30048 82.230636 
L 273.38976 113.973345 
L 273.56832 74.266161 
L 273.6576 94.019092 
L 273.74688 82.787982 
L 273.83616 108.863136 
L 273.92544 89.134892 
L 274.01472 90.523935 
L 274.104 96.632237 
L 274.19328 113.24992 
L 274.37184 89.042944 
L 274.46112 106.846099 
L 274.81824 80.979544 
L 274.90752 101.01124 
L 274.9968 97.832268 
L 275.08608 91.000981 
L 275.26464 97.757893 
L 275.35392 123.580476 
L 275.4432 96.520352 
L 275.53248 130.280995 
L 275.62176 90.833155 
L 275.71104 104.76354 
L 275.80032 93.48932 
L 275.8896 119.774572 
L 276.06816 95.844802 
L 276.24672 120.035064 
L 276.336 102.246266 
L 276.42528 109.6852 
L 276.51456 73.97931 
L 276.60384 97.884622 
L 276.69312 81.311723 
L 276.87168 129.983978 
L 276.96096 138.49424 
L 277.2288 83.73299 
L 277.31808 86.964573 
L 277.49664 105.77665 
L 277.6752 94.906793 
L 277.76448 98.350559 
L 277.85376 106.89517 
L 277.94304 95.64111 
L 278.1216 118.067327 
L 278.21088 92.045602 
L 278.30016 101.804458 
L 278.38944 138.410383 
L 278.65728 80.104189 
L 278.83584 111.268196 
L 278.92512 91.275146 
L 279.0144 94.15334 
L 279.10368 80.040033 
L 279.37152 119.663994 
L 279.55008 102.19751 
L 279.63936 92.194073 
L 279.72864 118.628563 
L 279.9072 76.222134 
L 279.99648 92.293519 
L 280.08576 91.431232 
L 280.17504 90.18204 
L 280.26432 96.320188 
L 280.3536 95.504298 
L 280.53216 90.021731 
L 280.62144 128.728477 
L 280.8 81.483202 
L 280.97856 104.449588 
L 281.06784 97.05192 
L 281.15712 115.788694 
L 281.2464 95.806433 
L 281.33568 119.51553 
L 281.42496 96.672374 
L 281.51424 104.88994 
L 281.60352 127.536282 
L 281.6928 112.615241 
L 281.87136 123.40704 
L 281.96064 88.35531 
L 282.04992 99.086979 
L 282.1392 80.571159 
L 282.22848 104.68323 
L 282.31776 91.469191 
L 282.40704 104.206113 
L 282.49632 79.793207 
L 282.5856 93.76176 
L 282.67488 86.76377 
L 282.76416 109.737598 
L 283.032 77.02287 
L 283.29984 147.418509 
L 283.38912 82.879482 
L 283.4784 98.453824 
L 283.56768 89.644179 
L 283.74624 103.538161 
L 283.83552 146.724895 
L 284.01408 87.537841 
L 284.10336 92.281669 
L 284.28192 114.429599 
L 284.3712 110.290519 
L 284.46048 125.217885 
L 284.54976 97.129006 
L 284.63904 128.11638 
L 284.72832 81.832478 
L 284.8176 85.475199 
L 284.90688 92.177926 
L 284.99616 146.408314 
L 285.17472 106.642882 
L 285.35328 74.221378 
L 285.44256 115.034935 
L 285.53184 80.984409 
L 285.62112 110.552008 
L 285.88896 78.42715 
L 285.97824 127.592536 
L 286.06752 79.391956 
L 286.24608 104.216984 
L 286.33536 82.941394 
L 286.51392 96.316679 
L 286.6032 89.687812 
L 286.69248 98.307491 
L 286.78176 120.162839 
L 286.87104 95.853789 
L 286.96032 104.193394 
L 287.13888 90.476874 
L 287.22816 92.269331 
L 287.31744 118.433249 
L 287.40672 93.36285 
L 287.496 99.033862 
L 287.58528 93.430382 
L 287.76384 113.532712 
L 287.85312 92.299575 
L 287.9424 100.565586 
L 288.03168 95.760457 
L 288.12096 96.249315 
L 288.21024 105.830355 
L 288.29952 132.045011 
L 288.3888 98.198258 
L 288.47808 122.986304 
L 288.56736 102.963113 
L 288.65664 120.524233 
L 288.74592 83.235407 
L 288.8352 106.956104 
L 288.92448 76.710799 
L 289.10304 113.133021 
L 289.19232 92.010677 
L 289.2816 97.597251 
L 289.37088 115.295565 
L 289.46016 97.649932 
L 289.54944 114.320368 
L 289.728 85.997845 
L 289.81728 129.057027 
L 289.90656 83.963251 
L 289.99584 98.288888 
L 290.08512 83.391082 
L 290.1744 84.497781 
L 290.44224 114.947581 
L 290.53152 84.601895 
L 290.6208 119.194804 
L 290.71008 102.021611 
L 290.79936 113.504009 
L 290.88864 99.803079 
L 290.97792 100.807661 
L 291.0672 106.711828 
L 291.15648 98.878003 
L 291.24576 99.80031 
L 291.33504 113.144615 
L 291.5136 83.15597 
L 291.60288 108.661998 
L 291.69216 83.874311 
L 291.96 109.671938 
L 292.04928 103.319819 
L 292.13856 83.24614 
L 292.22784 103.439978 
L 292.31712 90.327794 
L 292.4064 92.324051 
L 292.49568 97.677548 
L 292.58496 86.557486 
L 292.76352 108.252257 
L 292.8528 97.952687 
L 292.94208 110.503397 
L 293.12064 88.097861 
L 293.20992 116.459336 
L 293.2992 104.139132 
L 293.38848 106.73317 
L 293.47776 115.368777 
L 293.56704 84.848361 
L 293.65632 112.634112 
L 293.7456 81.854373 
L 293.83488 83.333665 
L 293.92416 96.661039 
L 294.01344 91.492898 
L 294.10272 106.103195 
L 294.192 101.831348 
L 294.28128 119.329815 
L 294.37056 88.360872 
L 294.45984 102.769615 
L 294.54912 87.077108 
L 294.6384 104.95565 
L 294.81696 81.540622 
L 294.99552 117.295551 
L 295.0848 98.623425 
L 295.17408 121.90497 
L 295.26336 83.550296 
L 295.35264 106.968164 
L 295.44192 93.41409 
L 295.5312 96.355021 
L 295.62048 101.146344 
L 295.70976 112.188101 
L 295.79904 111.609231 
L 295.88832 110.903168 
L 296.06688 81.79827 
L 296.24544 130.535338 
L 296.60256 86.529854 
L 296.69184 121.639726 
L 296.78112 110.072613 
L 296.8704 69.042793 
L 297.04896 115.208923 
L 297.13824 108.822289 
L 297.3168 92.228449 
L 297.58464 126.765721 
L 297.85248 80.407989 
L 297.94176 116.511611 
L 298.03104 93.856425 
L 298.12032 95.707866 
L 298.2096 86.984527 
L 298.29888 116.180897 
L 298.38816 78.860765 
L 298.47744 114.264046 
L 298.74528 90.498912 
L 298.83456 108.19056 
L 299.01312 87.252202 
L 299.1024 106.876278 
L 299.19168 98.066055 
L 299.37024 113.944418 
L 299.5488 82.2573 
L 299.63808 85.911398 
L 299.81664 100.519653 
L 299.9952 79.521763 
L 300.17376 121.36255 
L 300.26304 108.390461 
L 300.35232 105.290213 
L 300.4416 111.097978 
L 300.62016 95.764508 
L 300.70944 128.052764 
L 300.79872 91.587042 
L 300.888 127.354866 
L 300.97728 95.474539 
L 301.06656 102.497532 
L 301.15584 110.857638 
L 301.24512 109.560921 
L 301.3344 106.757455 
L 301.42368 108.052543 
L 301.60224 94.119642 
L 301.7808 104.221472 
L 301.87008 142.053445 
L 301.95936 126.174387 
L 302.04864 142.797505 
L 302.13792 96.540353 
L 302.2272 130.237729 
L 302.31648 86.899687 
L 302.40576 129.797159 
L 302.49504 96.456967 
L 302.58432 99.558562 
L 302.6736 96.054674 
L 302.76288 107.914612 
L 302.85216 90.783467 
L 302.94144 120.10212 
L 303.03072 93.742445 
L 303.12 116.357383 
L 303.29856 87.201885 
L 303.38784 81.110642 
L 303.47712 106.906789 
L 303.5664 97.661912 
L 303.65568 104.376302 
L 303.74496 75.114533 
L 303.83424 109.242044 
L 303.92352 96.737365 
L 304.0128 98.335864 
L 304.10208 91.342214 
L 304.19136 106.120598 
L 304.28064 92.732961 
L 304.36992 115.922206 
L 304.4592 111.018941 
L 304.54848 82.875823 
L 304.72704 113.673993 
L 304.81632 104.94366 
L 304.9056 81.689189 
L 304.99488 130.566423 
L 305.26272 87.67002 
L 305.352 115.036705 
L 305.44128 90.991527 
L 305.53056 115.923899 
L 305.61984 97.166453 
L 305.70912 99.886075 
L 305.7984 116.304588 
L 305.88768 110.876513 
L 306.15552 82.110215 
L 306.2448 118.4093 
L 306.42336 71.270913 
L 306.60192 119.560409 
L 306.86976 104.633505 
L 306.95904 115.480397 
L 307.1376 78.514126 
L 307.22688 97.901621 
L 307.31616 78.609426 
L 307.49472 93.095288 
L 307.67328 82.279895 
L 307.76256 128.819292 
L 307.94112 98.617836 
L 308.0304 101.379631 
L 308.11968 88.192959 
L 308.20896 115.176723 
L 308.38752 88.651609 
L 308.4768 108.986785 
L 308.56608 88.048403 
L 308.65536 99.876709 
L 308.74464 97.479048 
L 308.83392 100.62307 
L 308.9232 97.864848 
L 309.01248 101.025006 
L 309.10176 140.260212 
L 309.28032 99.210587 
L 309.3696 100.108711 
L 309.45888 126.020609 
L 309.63744 88.256931 
L 309.72672 91.152177 
L 309.816 82.747363 
L 309.99456 121.872865 
L 310.08384 87.341602 
L 310.35168 111.25302 
L 310.53024 96.216477 
L 310.61952 108.741548 
L 310.79808 95.914559 
L 310.97664 108.895686 
L 311.06592 97.66087 
L 311.1552 106.85541 
L 311.24448 94.941976 
L 311.42304 107.547393 
L 311.51232 84.323243 
L 311.78016 111.263119 
L 311.86944 113.342789 
L 311.95872 124.43494 
L 312.048 109.918472 
L 312.31584 128.454065 
L 312.4944 114.879597 
L 312.58368 87.880082 
L 312.76224 112.079976 
L 312.85152 87.973189 
L 313.03008 106.468582 
L 313.11936 101.52934 
L 313.20864 89.034024 
L 313.47648 121.178262 
L 313.56576 93.59967 
L 313.65504 103.876289 
L 313.92288 87.360671 
L 314.01216 114.675837 
L 314.10144 91.368178 
L 314.28 148.355696 
L 314.36928 108.874665 
L 314.45856 138.393503 
L 314.54784 91.599464 
L 314.63712 117.31544 
L 314.90496 93.669857 
L 314.99424 112.480145 
L 315.08352 93.599073 
L 315.1728 94.637922 
L 315.26208 120.113858 
L 315.35136 85.289516 
L 315.52992 136.929376 
L 315.6192 97.68426 
L 315.70848 108.725637 
L 315.79776 91.094545 
L 315.88704 109.695446 
L 316.0656 100.354286 
L 316.15488 106.01428 
L 316.24416 88.075261 
L 316.33344 92.358144 
L 316.42272 110.823264 
L 316.512 92.398531 
L 316.60128 97.126327 
L 316.69056 116.601586 
L 316.77984 113.114148 
L 316.9584 94.875419 
L 317.13696 109.835961 
L 317.22624 86.564176 
L 317.31552 92.730393 
L 317.49408 129.093468 
L 317.67264 88.755671 
L 317.76192 99.547288 
L 317.94048 106.563591 
L 318.02976 77.785574 
L 318.11904 102.328797 
L 318.2976 79.212211 
L 318.47616 104.410744 
L 318.56544 136.341437 
L 318.65472 96.342771 
L 318.744 119.021433 
L 318.83328 108.863091 
L 318.92256 120.913216 
L 319.01184 110.84788 
L 319.10112 151.564089 
L 319.27968 96.335621 
L 319.36896 101.847723 
L 319.45824 97.861714 
L 319.54752 85.732494 
L 319.6368 102.637956 
L 319.72608 97.705676 
L 319.81536 84.496626 
L 319.90464 115.620978 
L 319.99392 90.163967 
L 320.0832 112.983419 
L 320.17248 91.796139 
L 320.26176 147.570471 
L 320.35104 100.701125 
L 320.44032 105.379123 
L 320.5296 77.652982 
L 320.70816 99.175724 
L 320.79744 87.656284 
L 320.88672 96.134766 
L 320.976 119.15651 
L 321.06528 103.38272 
L 321.15456 108.577295 
L 321.24384 142.167614 
L 321.33312 112.139189 
L 321.4224 126.327968 
L 321.60096 86.012375 
L 321.69024 88.656772 
L 321.8688 105.607644 
L 321.95808 100.892141 
L 322.13664 91.373239 
L 322.22592 107.438654 
L 322.3152 77.462677 
L 322.40448 103.13537 
L 322.49376 79.310234 
L 322.58304 138.285576 
L 322.85088 95.643831 
L 322.94016 86.078767 
L 323.02944 144.348577 
L 323.11872 76.712889 
L 323.208 106.737415 
L 323.29728 92.807757 
L 323.38656 94.15189 
L 323.47584 115.700681 
L 323.6544 89.619926 
L 323.92224 113.261634 
L 324.01152 96.462756 
L 324.1008 181.696421 
L 324.27936 104.712034 
L 324.36864 124.3394 
L 324.45792 88.432848 
L 324.63648 104.814853 
L 324.72576 104.581749 
L 324.81504 119.601192 
L 324.90432 98.562619 
L 324.9936 105.592857 
L 325.08288 102.336156 
L 325.17216 77.056578 
L 325.35072 96.276606 
L 325.44 89.757797 
L 325.52928 152.687482 
L 325.61856 90.960433 
L 325.70784 101.65195 
L 325.79712 84.729125 
L 325.97568 117.92584 
L 326.15424 83.740467 
L 326.24352 123.863813 
L 326.42208 101.767439 
L 326.60064 131.983283 
L 326.7792 93.635419 
L 326.86848 122.866423 
L 326.95776 78.846697 
L 327.04704 115.967751 
L 327.2256 88.723235 
L 327.40416 110.275245 
L 327.49344 101.02727 
L 327.58272 112.778092 
L 327.672 95.568524 
L 327.76128 96.064885 
L 327.85056 97.82752 
L 327.93984 96.436909 
L 328.02912 91.149593 
L 328.20768 120.219348 
L 328.29696 95.603988 
L 328.38624 127.251909 
L 328.47552 107.624696 
L 328.5648 114.8731 
L 328.65408 86.228343 
L 328.74336 88.53648 
L 328.83264 123.846654 
L 329.0112 84.559724 
L 329.10048 117.493478 
L 329.18976 113.315993 
L 329.27904 76.954351 
L 329.36832 81.995965 
L 329.4576 84.25371 
L 329.54688 110.617427 
L 329.63616 83.603488 
L 329.72544 134.075065 
L 329.81472 102.617244 
L 329.99328 125.538878 
L 330.17184 105.369865 
L 330.26112 107.476674 
L 330.3504 114.670295 
L 330.43968 111.316244 
L 330.52896 78.234425 
L 330.61824 132.621146 
L 330.70752 83.569479 
L 330.7968 88.58263 
L 330.88608 98.261494 
L 330.97536 123.915995 
L 331.15392 92.443681 
L 331.2432 115.524358 
L 331.42176 88.496917 
L 331.51104 112.798438 
L 331.60032 109.080156 
L 331.86816 78.188022 
L 331.95744 102.727076 
L 332.136 87.387734 
L 332.22528 114.377907 
L 332.31456 94.55002 
L 332.40384 126.52004 
L 332.5824 96.134942 
L 332.76096 102.058673 
L 332.85024 89.625324 
L 332.93952 116.973374 
L 333.11808 92.251772 
L 333.20736 123.786568 
L 333.29664 99.75155 
L 333.38592 110.668623 
L 333.4752 109.4365 
L 333.56448 108.522239 
L 333.65376 77.29751 
L 333.74304 121.664403 
L 334.01088 80.428408 
L 334.10016 93.550573 
L 334.18944 91.360269 
L 334.27872 93.450945 
L 334.45728 87.484056 
L 334.54656 106.209876 
L 334.63584 90.873036 
L 334.72512 106.641808 
L 334.8144 103.381601 
L 334.99296 83.642803 
L 335.08224 95.300436 
L 335.17152 88.146569 
L 335.2608 89.259479 
L 335.35008 92.321939 
L 335.43936 104.472599 
L 335.52864 102.118426 
L 335.61792 104.105303 
L 335.7072 84.928695 
L 335.79648 85.99168 
L 335.88576 109.829985 
L 335.97504 108.94387 
L 336.1536 78.228006 
L 336.33216 128.624697 
L 336.51072 85.633436 
L 336.6 87.609117 
L 336.77856 106.416553 
L 336.95712 84.53616 
L 337.0464 112.090396 
L 337.13568 100.121114 
L 337.22496 105.593326 
L 337.31424 89.350791 
L 337.40352 97.940193 
L 337.4928 84.829067 
L 337.67136 104.832741 
L 337.76064 108.605793 
L 337.84992 134.279598 
L 337.9392 94.776037 
L 338.02848 100.517095 
L 338.11776 127.174805 
L 338.29632 90.544471 
L 338.3856 102.737197 
L 338.47488 98.148121 
L 338.56416 81.61715 
L 338.832 107.205767 
L 338.92128 91.749561 
L 339.09984 117.428575 
L 339.18912 86.675567 
L 339.2784 87.539408 
L 339.36768 132.619834 
L 339.63552 103.796459 
L 339.7248 109.866446 
L 339.81408 108.665696 
L 339.90336 96.590628 
L 339.99264 110.774511 
L 340.1712 79.675389 
L 340.26048 99.594063 
L 340.34976 89.851219 
L 340.43904 91.450748 
L 340.70688 109.977924 
L 340.79616 90.987646 
L 340.88544 121.810368 
L 341.064 97.943673 
L 341.15328 90.202946 
L 341.24256 94.387605 
L 341.42112 90.032904 
L 341.5104 92.830027 
L 341.59968 85.992211 
L 341.68896 98.998614 
L 341.77824 90.983317 
L 341.86752 96.009359 
L 342.04608 108.061404 
L 342.13536 79.091972 
L 342.31392 125.38877 
L 342.4032 88.20303 
L 342.49248 95.575257 
L 342.76032 81.375632 
L 342.93888 111.075646 
L 343.11744 78.781193 
L 343.20672 103.709591 
L 343.296 100.784834 
L 343.38528 101.390573 
L 343.56384 87.682635 
L 343.65312 92.231401 
L 343.7424 104.640978 
L 343.83168 90.593284 
L 344.01024 109.512453 
L 344.36736 84.791436 
L 344.54592 106.095164 
L 344.6352 94.069309 
L 344.72448 113.603283 
L 344.81376 88.644011 
L 344.90304 88.93893 
L 344.99232 111.798231 
L 345.0816 93.073451 
L 345.26016 106.870125 
L 345.34944 80.997328 
L 345.528 106.354104 
L 345.61728 93.242203 
L 345.70656 94.212281 
L 345.79584 86.653682 
L 346.15296 133.160547 
L 346.24224 96.918331 
L 346.33152 134.124309 
L 346.51008 82.3571 
L 346.59936 82.842797 
L 346.68864 81.340215 
L 346.77792 95.600808 
L 346.8672 87.679553 
L 346.95648 97.778614 
L 347.04576 80.034508 
L 347.13504 97.655391 
L 347.22432 85.729861 
L 347.3136 96.682457 
L 347.40288 95.689131 
L 347.49216 94.213046 
L 347.58144 74.242137 
L 347.67072 104.90499 
L 347.84928 85.765266 
L 348.02784 93.361445 
L 348.2064 89.789631 
L 348.29568 139.070272 
L 348.38496 71.677055 
L 348.47424 112.48137 
L 348.6528 95.156655 
L 348.74208 89.906325 
L 348.83136 100.522304 
L 348.92064 93.120688 
L 349.00992 104.53765 
L 349.0992 100.836543 
L 349.18848 85.14573 
L 349.36704 97.664101 
L 349.45632 81.945146 
L 349.5456 104.685286 
L 349.63488 89.543771 
L 349.72416 93.024532 
L 349.81344 82.910519 
L 349.90272 94.910122 
L 350.08128 77.281305 
L 350.17056 94.631047 
L 350.25984 83.445804 
L 350.34912 89.382559 
L 350.4384 84.025657 
L 350.61696 91.680386 
L 350.70624 90.746028 
L 350.79552 84.662426 
L 350.97408 94.60615 
L 351.06336 92.808071 
L 351.15264 122.560671 
L 351.24192 70.996518 
L 351.42048 105.127392 
L 351.50976 93.931426 
L 351.59904 127.546976 
L 351.68832 101.95723 
L 351.7776 122.276578 
L 351.95616 79.554694 
L 352.04544 126.794543 
L 352.13472 88.287911 
L 352.224 90.718835 
L 352.31328 109.478158 
L 352.49184 91.80211 
L 352.58112 96.587382 
L 352.6704 97.159802 
L 352.75968 88.091406 
L 352.84896 110.706923 
L 353.02752 76.771239 
L 353.1168 107.083113 
L 353.20608 79.5549 
L 353.38464 96.439524 
L 353.47392 93.392133 
L 353.5632 104.590822 
L 353.74176 96.703888 
L 353.83104 99.739473 
L 354.0096 89.093888 
L 354.27744 75.750595 
L 354.36672 101.911925 
L 354.456 93.522837 
L 354.54528 102.959878 
L 354.72384 94.776606 
L 354.81312 63.648 
L 354.9024 166.757531 
L 354.99168 76.754375 
L 355.08096 106.002715 
L 355.17024 100.392475 
L 355.25952 99.950874 
L 355.3488 86.37437 
L 355.43808 86.64439 
L 355.52736 94.484746 
L 355.61664 93.915119 
L 355.70592 91.932114 
L 355.7952 86.565303 
L 355.88448 102.441729 
L 355.97376 90.668808 
L 356.06304 92.067697 
L 356.15232 90.116492 
L 356.2416 107.358662 
L 356.42016 83.659938 
L 356.50944 103.387593 
L 356.688 84.60858 
L 356.86656 112.492051 
L 357.04512 80.56288 
L 357.22368 110.702194 
L 357.31296 84.869877 
L 357.40224 85.040465 
L 357.49152 90.471654 
L 357.5808 106.178954 
L 357.67008 84.246681 
L 357.75936 104.84556 
L 357.84864 88.023614 
L 358.0272 111.43709 
L 358.11648 100.67704 
L 358.20576 116.732193 
L 358.38432 79.532795 
L 358.4736 94.246889 
L 358.56288 83.601412 
L 358.65216 111.60328 
L 358.74144 89.937079 
L 358.83072 120.475128 
L 358.92 84.209576 
L 359.09856 102.368265 
L 359.27712 96.885336 
L 359.3664 86.46407 
L 359.54496 108.501466 
L 359.63424 95.656606 
L 359.72352 98.332723 
L 359.90208 81.337709 
L 359.99136 85.881785 
L 360.08064 82.153189 
L 360.16992 84.352729 
L 360.2592 134.032644 
L 360.34848 89.019766 
L 360.43776 106.335381 
L 360.52704 103.273363 
L 360.61632 78.344368 
L 360.7056 105.471295 
L 360.79488 100.261093 
L 360.88416 106.320754 
L 361.06272 91.127335 
L 361.152 106.463806 
L 361.24128 83.805338 
L 361.33056 112.867281 
L 361.5984 80.172256 
L 361.68768 84.742028 
L 361.77696 109.703271 
L 361.86624 104.205745 
L 362.0448 88.155304 
L 362.13408 99.767141 
L 362.22336 82.962516 
L 362.31264 117.213481 
L 362.40192 107.295215 
L 362.4912 77.951851 
L 362.58048 100.256788 
L 362.66976 83.754302 
L 362.75904 91.009596 
L 362.84832 158.728891 
L 363.02688 87.471059 
L 363.11616 80.503419 
L 363.20544 111.143693 
L 363.29472 110.436121 
L 363.384 81.64999 
L 363.47328 110.353326 
L 363.56256 72.313874 
L 363.65184 84.790022 
L 363.74112 76.910733 
L 363.91968 123.89558 
L 364.09824 93.746378 
L 364.18752 90.663847 
L 364.36608 102.805947 
L 364.45536 115.793798 
L 364.7232 85.977269 
L 364.81248 98.450675 
L 364.90176 85.932003 
L 364.99104 90.657184 
L 365.08032 108.600605 
L 365.1696 76.032642 
L 365.25888 80.838983 
L 365.34816 97.128999 
L 365.43744 77.809001 
L 365.52672 120.977711 
L 365.616 91.407315 
L 365.70528 101.829899 
L 365.88384 84.529728 
L 365.97312 112.947979 
L 366.15168 76.992256 
L 366.24096 96.358803 
L 366.33024 72.76678 
L 366.5088 81.132228 
L 366.59808 79.52623 
L 366.68736 101.210531 
L 366.77664 178.584782 
L 366.86592 110.012888 
L 366.9552 117.745954 
L 367.13376 78.154335 
L 367.22304 93.616151 
L 367.31232 93.424674 
L 367.49088 81.542713 
L 367.58016 100.015147 
L 367.66944 92.333786 
L 367.75872 112.532461 
L 367.848 89.771854 
L 367.93728 100.892113 
L 368.02656 92.941496 
L 368.11584 96.37646 
L 368.20512 120.374416 
L 368.2944 84.958127 
L 368.38368 120.637928 
L 368.47296 94.82672 
L 368.56224 113.814187 
L 368.65152 89.936519 
L 368.7408 105.000947 
L 368.83008 87.43394 
L 368.91936 90.942572 
L 369.09792 85.287732 
L 369.1872 91.82961 
L 369.27648 108.103977 
L 369.36576 100.993803 
L 369.45504 81.523111 
L 369.54432 107.091435 
L 369.6336 86.525949 
L 369.72288 89.791364 
L 369.81216 90.643447 
L 369.90144 86.613334 
L 370.08 114.192162 
L 370.43712 88.997638 
L 370.70496 96.971876 
L 370.79424 99.89156 
L 370.88352 111.059638 
L 370.9728 83.690159 
L 371.06208 92.303631 
L 371.15136 112.06752 
L 371.24064 80.106541 
L 371.32992 94.798216 
L 371.4192 83.743507 
L 371.50848 111.274492 
L 371.68704 89.293671 
L 371.77632 90.027015 
L 371.95488 82.051347 
L 372.04416 95.45695 
L 372.22272 83.695451 
L 372.312 98.641168 
L 372.40128 93.208972 
L 372.49056 110.75886 
L 372.66912 84.287984 
L 372.7584 94.295819 
L 372.93696 87.904831 
L 373.02624 106.599873 
L 373.11552 87.561329 
L 373.2048 106.324284 
L 373.38336 84.258428 
L 373.47264 86.660392 
L 373.56192 101.716814 
L 373.6512 99.659529 
L 373.82976 85.460121 
L 374.00832 114.513146 
L 374.0976 87.155303 
L 374.18688 87.455796 
L 374.27616 98.712786 
L 374.36544 87.68983 
L 374.45472 107.892563 
L 374.544 90.314491 
L 374.63328 94.392041 
L 374.72256 80.841442 
L 374.81184 97.025661 
L 374.90112 88.040822 
L 374.9904 92.362955 
L 375.16896 82.386255 
L 375.34752 87.567067 
L 375.4368 89.65756 
L 375.52608 94.40547 
L 375.70464 87.978684 
L 375.8832 99.058577 
L 375.97248 86.964665 
L 376.06176 87.380688 
L 376.15104 98.080458 
L 376.24032 94.779683 
L 376.3296 109.348693 
L 376.50816 80.390379 
L 376.776 94.786999 
L 376.86528 92.176434 
L 376.95456 93.361678 
L 377.13312 87.938881 
L 377.2224 92.859257 
L 377.31168 88.272703 
L 377.49024 108.311378 
L 377.6688 84.043818 
L 377.75808 95.67999 
L 377.84736 88.413466 
L 377.93664 110.790405 
L 378.02592 100.433016 
L 378.1152 141.971657 
L 378.29376 72.158515 
L 378.38304 81.355082 
L 378.47232 78.864384 
L 378.5616 93.49478 
L 378.65088 79.764154 
L 378.74016 101.492411 
L 378.82944 85.210843 
L 378.91872 88.949134 
L 379.09728 77.512244 
L 379.18656 94.208898 
L 379.27584 93.255316 
L 379.4544 76.995466 
L 379.54368 92.850706 
L 379.63296 91.595958 
L 379.72224 80.449628 
L 379.81152 90.246507 
L 379.9008 87.256923 
L 380.16864 94.989908 
L 380.25792 82.68198 
L 380.3472 89.933813 
L 380.43648 107.503135 
L 380.52576 97.48977 
L 380.61504 104.996312 
L 380.70432 91.496049 
L 380.7936 107.767018 
L 380.97216 94.329019 
L 381.06144 97.568975 
L 381.15072 89.920235 
L 381.24 92.280843 
L 381.32928 85.539686 
L 381.41856 95.418362 
L 381.50784 92.752747 
L 381.59712 81.646243 
L 381.6864 104.506743 
L 381.86496 81.228216 
L 381.95424 95.021404 
L 382.1328 85.764268 
L 382.22208 115.659323 
L 382.40064 79.461332 
L 382.5792 82.182749 
L 382.66848 86.112121 
L 382.75776 82.713348 
L 382.84704 99.000253 
L 382.93632 75.517437 
L 383.0256 88.698889 
L 383.11488 80.141797 
L 383.38272 104.328488 
L 383.472 88.103086 
L 383.73984 112.056655 
L 383.82912 86.442344 
L 383.9184 105.466945 
L 384.00768 97.966611 
L 384.09696 129.141449 
L 384.27552 82.835188 
L 384.3648 74.322402 
L 384.45408 109.329407 
L 384.54336 77.118901 
L 384.63264 84.127683 
L 384.72192 86.151376 
L 384.8112 95.235475 
L 384.90048 81.808215 
L 384.98976 100.53856 
L 385.07904 96.140757 
L 385.16832 95.588065 
L 385.2576 79.326817 
L 385.34688 81.387 
L 385.43616 93.388461 
L 385.52544 85.457163 
L 385.61472 109.770269 
L 385.704 103.101473 
L 385.79328 106.216813 
L 386.06112 71.444643 
L 386.23968 119.303146 
L 386.41824 78.036969 
L 386.50752 81.95745 
L 386.5968 88.041624 
L 386.68608 79.309758 
L 386.77536 91.63296 
L 387.13248 72.405919 
L 387.22176 106.256376 
L 387.40032 74.623569 
L 387.4896 95.059588 
L 387.57888 86.322116 
L 387.66816 87.592174 
L 387.75744 82.981423 
L 387.84672 84.031877 
L 387.936 94.026001 
L 388.02528 79.613842 
L 388.11456 81.478914 
L 388.20384 108.335004 
L 388.3824 84.601619 
L 388.47168 90.734917 
L 388.56096 84.910212 
L 388.65024 115.623658 
L 388.73952 84.80646 
L 388.8288 87.734243 
L 388.91808 105.18921 
L 389.36448 81.173568 
L 389.45376 78.911869 
L 389.54304 96.895977 
L 389.63232 91.74533 
L 389.7216 74.939874 
L 389.81088 84.560073 
L 389.90016 80.458153 
L 390.07872 111.304761 
L 390.168 110.769112 
L 390.25728 86.486389 
L 390.34656 100.303533 
L 390.52512 79.877076 
L 390.70368 94.161982 
L 390.88224 83.366166 
L 390.97152 103.43631 
L 391.0608 87.054787 
L 391.15008 94.681169 
L 391.23936 117.680862 
L 391.41792 82.08623 
L 391.5072 110.851946 
L 391.59648 101.87846 
L 391.68576 75.258715 
L 391.77504 106.206613 
L 391.9536 83.484323 
L 392.04288 87.409427 
L 392.31072 107.670491 
L 392.4 80.666079 
L 392.66784 106.702352 
L 392.8464 91.133932 
L 392.93568 85.807442 
L 393.02496 107.15471 
L 393.20352 84.834503 
L 393.2928 74.473143 
L 393.38208 84.715341 
L 393.47136 78.455433 
L 393.64992 101.445012 
L 393.82848 84.423444 
L 393.91776 96.654355 
L 394.00704 81.96868 
L 394.09632 88.935402 
L 394.27488 75.628215 
L 394.36416 96.405078 
L 394.54272 85.945335 
L 394.632 85.184991 
L 394.72128 82.905412 
L 394.81056 89.174333 
L 394.89984 84.588023 
L 394.98912 86.627131 
L 395.0784 106.447789 
L 395.16768 96.163661 
L 395.25696 108.137005 
L 395.34624 83.288512 
L 395.43552 96.333596 
L 395.5248 91.986354 
L 395.61408 100.535963 
L 395.79264 81.839337 
L 395.9712 102.43469 
L 396.06048 81.53341 
L 396.23904 91.991499 
L 396.32832 93.682771 
L 396.4176 84.503345 
L 396.50688 92.173632 
L 396.59616 76.091996 
L 396.68544 104.905301 
L 396.864 75.468371 
L 396.95328 103.85169 
L 397.04256 85.683964 
L 397.22112 116.563063 
L 397.3104 79.695073 
L 397.39968 86.063942 
L 397.57824 103.876816 
L 397.7568 80.067492 
L 397.84608 98.474786 
L 397.93536 81.217845 
L 398.02464 93.434587 
L 398.11392 78.883191 
L 398.2032 86.641776 
L 398.29248 81.943177 
L 398.38176 70.081453 
L 398.47104 96.239882 
L 398.56032 82.13511 
L 398.73888 91.988789 
L 398.91744 74.971726 
L 399.096 97.643485 
L 399.18528 97.649232 
L 399.36384 80.693452 
L 399.45312 102.427264 
L 399.63168 78.024512 
L 399.72096 90.994547 
L 399.81024 90.100261 
L 399.89952 90.289177 
L 399.9888 82.899331 
L 400.07808 114.831815 
L 400.16736 85.073348 
L 400.25664 85.652477 
L 400.34592 99.462265 
L 400.4352 88.692463 
L 400.52448 92.46536 
L 400.61376 85.857539 
L 400.70304 93.609286 
L 400.79232 75.664747 
L 400.97088 87.780304 
L 401.14944 73.190225 
L 401.23872 96.37825 
L 401.328 92.768057 
L 401.50656 83.113937 
L 401.7744 89.615026 
L 401.86368 82.362957 
L 401.95296 97.194758 
L 402.04224 82.787453 
L 402.13152 86.541879 
L 402.2208 82.225512 
L 402.31008 99.656332 
L 402.39936 79.470667 
L 402.48864 87.921238 
L 402.57792 84.553658 
L 402.84576 91.030615 
L 402.93504 80.842411 
L 403.02432 88.308157 
L 403.1136 81.185216 
L 403.38144 89.992029 
L 403.47072 83.386468 
L 403.56 85.853887 
L 403.64928 80.640495 
L 403.82784 99.977525 
L 403.91712 90.088954 
L 404.0064 91.920522 
L 404.09568 114.163482 
L 404.18496 79.475869 
L 404.27424 85.740658 
L 404.36352 83.638477 
L 404.4528 75.349672 
L 404.54208 83.984745 
L 404.63136 78.731046 
L 404.8992 92.435219 
L 404.98848 67.691017 
L 405.07776 81.803808 
L 405.16704 76.913239 
L 405.25632 90.36863 
L 405.3456 87.202285 
L 405.43488 78.346296 
L 405.52416 98.81876 
L 405.70272 80.561482 
L 405.792 80.980857 
L 405.88128 74.039047 
L 405.97056 93.18445 
L 406.14912 84.350946 
L 406.32768 95.352679 
L 406.41696 86.750016 
L 406.50624 98.713985 
L 406.59552 98.50322 
L 406.6848 86.261001 
L 406.77408 87.369392 
L 406.86336 89.271955 
L 406.95264 85.336349 
L 407.04192 100.950127 
L 407.1312 77.795986 
L 407.22048 94.828461 
L 407.39904 83.007166 
L 407.48832 96.342231 
L 407.5776 91.40409 
L 407.66688 98.657591 
L 407.75616 119.260689 
L 407.84544 112.272943 
L 407.93472 90.695697 
L 408.11328 104.811797 
L 408.29184 78.854102 
L 408.38112 109.161457 
L 408.55968 89.913693 
L 408.64896 79.167817 
L 408.73824 87.939092 
L 408.82752 85.361613 
L 408.9168 75.668108 
L 409.00608 90.301356 
L 409.18464 75.851805 
L 409.3632 90.327485 
L 409.45248 81.842468 
L 409.54176 100.960745 
L 409.63104 97.93198 
L 409.72032 86.913802 
L 409.8096 122.272801 
L 410.07744 79.695811 
L 410.16672 94.134078 
L 410.34528 79.62026 
L 410.52384 94.433196 
L 410.7024 76.973889 
L 410.79168 80.734565 
L 410.88096 89.836362 
L 410.97024 111.734726 
L 411.1488 86.055747 
L 411.23808 79.277374 
L 411.32736 104.673261 
L 411.41664 82.024863 
L 411.68448 100.552053 
L 411.86304 83.388981 
L 411.95232 105.13789 
L 412.0416 84.64967 
L 412.13088 119.55726 
L 412.22016 79.008268 
L 412.30944 89.821941 
L 412.39872 77.456314 
L 412.488 98.870033 
L 412.66656 81.15462 
L 412.75584 97.318106 
L 412.84512 80.727803 
L 412.9344 88.344955 
L 413.02368 85.281657 
L 413.11296 93.2483 
L 413.29152 85.37134 
L 413.3808 73.482442 
L 413.47008 103.682346 
L 413.55936 72.31587 
L 413.64864 91.766397 
L 413.73792 89.642616 
L 413.8272 87.135994 
L 413.91648 81.126793 
L 414.00576 92.486245 
L 414.09504 88.823916 
L 414.18432 80.199483 
L 414.2736 92.954983 
L 414.45216 74.359133 
L 414.54144 99.600517 
L 414.63072 87.088301 
L 414.63072 87.088301 
" style="fill:none;stroke:#0000ff;stroke-linecap:square;stroke-width:1.5;"/>
   </g>
   <g id="patch_3">
    <path d="M 57.6 307.584 
L 57.6 41.472 
" style="fill:none;stroke:#000000;stroke-linecap:square;stroke-linejoin:miter;stroke-width:0.8;"/>
   </g>
   <g id="patch_4">
    <path d="M 414.72 307.584 
L 414.72 41.472 
" style="fill:none;stroke:#000000;stroke-linecap:square;stroke-linejoin:miter;stroke-width:0.8;"/>
   </g>
   <g id="patch_5">
    <path d="M 57.6 307.584 
L 414.72 307.584 
" style="fill:none;stroke:#000000;stroke-linecap:square;stroke-linejoin:miter;stroke-width:0.8;"/>
   </g>
   <g id="patch_6">
    <path d="M 57.6 41.472 
L 414.72 41.472 
" style="fill:none;stroke:#000000;stroke-linecap:square;stroke-linejoin:miter;stroke-width:0.8;"/>
   </g>
   <g id="legend_1">
    <g id="patch_7">
     <path d="M 202.8825 299.584 
L 403.52 299.584 
Q 406.72 299.584 406.72 296.384 
L 406.72 274.499 
Q 406.72 271.299 403.52 271.299 
L 202.8825 271.299 
Q 199.6825 271.299 199.6825 274.499 
L 199.6825 296.384 
Q 199.6825 299.584 202.8825 299.584 
z
" style="fill:#ffffff;opacity:0.8;stroke:#cccccc;stroke-linejoin:miter;"/>
    </g>
    <g id="line2d_22">
     <path d="M 206.0825 284.2565 
L 238.0825 284.2565 
" style="fill:none;stroke:#0000ff;stroke-linecap:square;stroke-width:1.5;"/>
    </g>
    <g id="line2d_23"/>
    <g id="text_13">
     <!-- cumulative reward -->
     <g transform="translate(250.8825 289.8565)scale(0.16 -0.16)">
      <defs>
       <path d="M 3122 3366 
L 3122 2828 
Q 2878 2963 2633 3030 
Q 2388 3097 2138 3097 
Q 1578 3097 1268 2742 
Q 959 2388 959 1747 
Q 959 1106 1268 751 
Q 1578 397 2138 397 
Q 2388 397 2633 464 
Q 2878 531 3122 666 
L 3122 134 
Q 2881 22 2623 -34 
Q 2366 -91 2075 -91 
Q 1284 -91 818 406 
Q 353 903 353 1747 
Q 353 2603 823 3093 
Q 1294 3584 2113 3584 
Q 2378 3584 2631 3529 
Q 2884 3475 3122 3366 
z
" id="DejaVuSans-63" transform="scale(0.015625)"/>
      </defs>
      <use xlink:href="#DejaVuSans-63"/>
      <use x="54.980469" xlink:href="#DejaVuSans-75"/>
      <use x="118.359375" xlink:href="#DejaVuSans-6d"/>
      <use x="215.771484" xlink:href="#DejaVuSans-75"/>
      <use x="279.150391" xlink:href="#DejaVuSans-6c"/>
      <use x="306.933594" xlink:href="#DejaVuSans-61"/>
      <use x="368.212891" xlink:href="#DejaVuSans-74"/>
      <use x="407.421875" xlink:href="#DejaVuSans-69"/>
      <use x="435.205078" xlink:href="#DejaVuSans-76"/>
      <use x="494.384766" xlink:href="#DejaVuSans-65"/>
      <use x="555.908203" xlink:href="#DejaVuSans-20"/>
      <use x="587.695312" xlink:href="#DejaVuSans-72"/>
      <use x="626.558594" xlink:href="#DejaVuSans-65"/>
      <use x="688.082031" xlink:href="#DejaVuSans-77"/>
      <use x="769.869141" xlink:href="#DejaVuSans-61"/>
      <use x="831.148438" xlink:href="#DejaVuSans-72"/>
      <use x="870.511719" xlink:href="#DejaVuSans-64"/>
     </g>
    </g>
   </g>
  </g>
 </g>
 <defs>
  <clipPath id="p29feedc4c2">
   <rect height="266.112" width="357.12" x="57.6" y="41.472"/>
  </clipPath>
 </defs>
</svg>
