<?xml version="1.0" encoding="utf-8" standalone="no"?>
<!DOCTYPE svg PUBLIC "-//W3C//DTD SVG 1.1//EN"
  "http://www.w3.org/Graphics/SVG/1.1/DTD/svg11.dtd">
<svg height="345.6pt" version="1.1" viewBox="0 0 460.8 345.6" width="460.8pt" xmlns="http://www.w3.org/2000/svg" xmlns:xlink="http://www.w3.org/1999/xlink">
 <metadata>
  <rdf:RDF xmlns:cc="http://creativecommons.org/ns#" xmlns:dc="http://purl.org/dc/elements/1.1/" xmlns:rdf="http://www.w3.org/1999/02/22-rdf-syntax-ns#">
   <cc:Work>
    <dc:type rdf:resource="http://purl.org/dc/dcmitype/StillImage"/>
    <dc:date>2021-11-04T10:11:02.681596</dc:date>
    <dc:description>{"agent.algorithm": "RayProximalPolicyOptimization", "agent.algorithm.render_env": false, "agent.algorithm.num_workers": 0, "agent.algorithm.batch_mode": "complete_episodes", "agent.algorithm.lr": 1e-05, "agent.algorithm.train_batch_size": 200, "agent.algorithm.optimizer": "Adam", "agent.algorithm.vf_clip_param": 50, "agent.algorithm.model": {"fcnet_activation": "tanh", "fcnet_hiddens": [30, 30]}, "env.env_class": "SchedulerPolicyRayEnvironment", "env.env_config": {"solver_driver": "CMAdriver", "solver_driver_args": [20, 10, 9, 0.5], "maximize": false, "steps": 50, "state_metrics_names": ["DifferenceOfBest", "SolverStateHistory"], "state_metrics_config": [[40, false, 1, true, false], [{"step_size": {"max": 3, "min": 0}}, 40]], "reward_metric": "Best", "reward_metric_config": [false, false], "memes_no": 1, "action_space_config": {"step_size": {"max": 3, "min": 1e-10}}}}</dc:description>
    <dc:format>image/svg+xml</dc:format>
    <dc:creator>
     <cc:Agent>
      <dc:title>Matplotlib v3.4.3, https://matplotlib.org/</dc:title>
     </cc:Agent>
    </dc:creator>
   </cc:Work>
  </rdf:RDF>
 </metadata>
 <defs>
  <style type="text/css">*{stroke-linecap:butt;stroke-linejoin:round;}</style>
 </defs>
 <g id="figure_1">
  <g id="patch_1">
   <path d="M 0 345.6 
L 460.8 345.6 
L 460.8 0 
L 0 0 
z
" style="fill:#ffffff;"/>
  </g>
  <g id="axes_1">
   <g id="patch_2">
    <path d="M 57.6 307.584 
L 414.72 307.584 
L 414.72 41.472 
L 57.6 41.472 
z
" style="fill:#ffffff;"/>
   </g>
   <g id="matplotlib.axis_1">
    <g id="xtick_1">
     <g id="line2d_1">
      <path clip-path="url(#pa37d5b6171)" d="M 57.6 307.584 
L 57.6 41.472 
" style="fill:none;stroke:#b0b0b0;stroke-linecap:square;stroke-width:0.8;"/>
     </g>
     <g id="line2d_2">
      <defs>
       <path d="M 0 0 
L 0 3.5 
" id="m0287e7acab" style="stroke:#000000;stroke-width:0.8;"/>
      </defs>
      <g>
       <use style="stroke:#000000;stroke-width:0.8;" x="57.6" xlink:href="#m0287e7acab" y="307.584"/>
      </g>
     </g>
     <g id="text_1">
      <!-- 0 -->
      <g transform="translate(52.51 326.7415)scale(0.16 -0.16)">
       <defs>
        <path d="M 2034 4250 
Q 1547 4250 1301 3770 
Q 1056 3291 1056 2328 
Q 1056 1369 1301 889 
Q 1547 409 2034 409 
Q 2525 409 2770 889 
Q 3016 1369 3016 2328 
Q 3016 3291 2770 3770 
Q 2525 4250 2034 4250 
z
M 2034 4750 
Q 2819 4750 3233 4129 
Q 3647 3509 3647 2328 
Q 3647 1150 3233 529 
Q 2819 -91 2034 -91 
Q 1250 -91 836 529 
Q 422 1150 422 2328 
Q 422 3509 836 4129 
Q 1250 4750 2034 4750 
z
" id="DejaVuSans-30" transform="scale(0.015625)"/>
       </defs>
       <use xlink:href="#DejaVuSans-30"/>
      </g>
     </g>
    </g>
    <g id="xtick_2">
     <g id="line2d_3">
      <path clip-path="url(#pa37d5b6171)" d="M 146.88 307.584 
L 146.88 41.472 
" style="fill:none;stroke:#b0b0b0;stroke-linecap:square;stroke-width:0.8;"/>
     </g>
     <g id="line2d_4">
      <g>
       <use style="stroke:#000000;stroke-width:0.8;" x="146.88" xlink:href="#m0287e7acab" y="307.584"/>
      </g>
     </g>
     <g id="text_2">
      <!-- 1000 -->
      <g transform="translate(126.52 326.7415)scale(0.16 -0.16)">
       <defs>
        <path d="M 794 531 
L 1825 531 
L 1825 4091 
L 703 3866 
L 703 4441 
L 1819 4666 
L 2450 4666 
L 2450 531 
L 3481 531 
L 3481 0 
L 794 0 
L 794 531 
z
" id="DejaVuSans-31" transform="scale(0.015625)"/>
       </defs>
       <use xlink:href="#DejaVuSans-31"/>
       <use x="63.623047" xlink:href="#DejaVuSans-30"/>
       <use x="127.246094" xlink:href="#DejaVuSans-30"/>
       <use x="190.869141" xlink:href="#DejaVuSans-30"/>
      </g>
     </g>
    </g>
    <g id="xtick_3">
     <g id="line2d_5">
      <path clip-path="url(#pa37d5b6171)" d="M 236.16 307.584 
L 236.16 41.472 
" style="fill:none;stroke:#b0b0b0;stroke-linecap:square;stroke-width:0.8;"/>
     </g>
     <g id="line2d_6">
      <g>
       <use style="stroke:#000000;stroke-width:0.8;" x="236.16" xlink:href="#m0287e7acab" y="307.584"/>
      </g>
     </g>
     <g id="text_3">
      <!-- 2000 -->
      <g transform="translate(215.8 326.7415)scale(0.16 -0.16)">
       <defs>
        <path d="M 1228 531 
L 3431 531 
L 3431 0 
L 469 0 
L 469 531 
Q 828 903 1448 1529 
Q 2069 2156 2228 2338 
Q 2531 2678 2651 2914 
Q 2772 3150 2772 3378 
Q 2772 3750 2511 3984 
Q 2250 4219 1831 4219 
Q 1534 4219 1204 4116 
Q 875 4013 500 3803 
L 500 4441 
Q 881 4594 1212 4672 
Q 1544 4750 1819 4750 
Q 2544 4750 2975 4387 
Q 3406 4025 3406 3419 
Q 3406 3131 3298 2873 
Q 3191 2616 2906 2266 
Q 2828 2175 2409 1742 
Q 1991 1309 1228 531 
z
" id="DejaVuSans-32" transform="scale(0.015625)"/>
       </defs>
       <use xlink:href="#DejaVuSans-32"/>
       <use x="63.623047" xlink:href="#DejaVuSans-30"/>
       <use x="127.246094" xlink:href="#DejaVuSans-30"/>
       <use x="190.869141" xlink:href="#DejaVuSans-30"/>
      </g>
     </g>
    </g>
    <g id="xtick_4">
     <g id="line2d_7">
      <path clip-path="url(#pa37d5b6171)" d="M 325.44 307.584 
L 325.44 41.472 
" style="fill:none;stroke:#b0b0b0;stroke-linecap:square;stroke-width:0.8;"/>
     </g>
     <g id="line2d_8">
      <g>
       <use style="stroke:#000000;stroke-width:0.8;" x="325.44" xlink:href="#m0287e7acab" y="307.584"/>
      </g>
     </g>
     <g id="text_4">
      <!-- 3000 -->
      <g transform="translate(305.08 326.7415)scale(0.16 -0.16)">
       <defs>
        <path d="M 2597 2516 
Q 3050 2419 3304 2112 
Q 3559 1806 3559 1356 
Q 3559 666 3084 287 
Q 2609 -91 1734 -91 
Q 1441 -91 1130 -33 
Q 819 25 488 141 
L 488 750 
Q 750 597 1062 519 
Q 1375 441 1716 441 
Q 2309 441 2620 675 
Q 2931 909 2931 1356 
Q 2931 1769 2642 2001 
Q 2353 2234 1838 2234 
L 1294 2234 
L 1294 2753 
L 1863 2753 
Q 2328 2753 2575 2939 
Q 2822 3125 2822 3475 
Q 2822 3834 2567 4026 
Q 2313 4219 1838 4219 
Q 1578 4219 1281 4162 
Q 984 4106 628 3988 
L 628 4550 
Q 988 4650 1302 4700 
Q 1616 4750 1894 4750 
Q 2613 4750 3031 4423 
Q 3450 4097 3450 3541 
Q 3450 3153 3228 2886 
Q 3006 2619 2597 2516 
z
" id="DejaVuSans-33" transform="scale(0.015625)"/>
       </defs>
       <use xlink:href="#DejaVuSans-33"/>
       <use x="63.623047" xlink:href="#DejaVuSans-30"/>
       <use x="127.246094" xlink:href="#DejaVuSans-30"/>
       <use x="190.869141" xlink:href="#DejaVuSans-30"/>
      </g>
     </g>
    </g>
    <g id="xtick_5">
     <g id="line2d_9">
      <path clip-path="url(#pa37d5b6171)" d="M 414.72 307.584 
L 414.72 41.472 
" style="fill:none;stroke:#b0b0b0;stroke-linecap:square;stroke-width:0.8;"/>
     </g>
     <g id="line2d_10">
      <g>
       <use style="stroke:#000000;stroke-width:0.8;" x="414.72" xlink:href="#m0287e7acab" y="307.584"/>
      </g>
     </g>
     <g id="text_5">
      <!-- 4000 -->
      <g transform="translate(394.36 326.7415)scale(0.16 -0.16)">
       <defs>
        <path d="M 2419 4116 
L 825 1625 
L 2419 1625 
L 2419 4116 
z
M 2253 4666 
L 3047 4666 
L 3047 1625 
L 3713 1625 
L 3713 1100 
L 3047 1100 
L 3047 0 
L 2419 0 
L 2419 1100 
L 313 1100 
L 313 1709 
L 2253 4666 
z
" id="DejaVuSans-34" transform="scale(0.015625)"/>
       </defs>
       <use xlink:href="#DejaVuSans-34"/>
       <use x="63.623047" xlink:href="#DejaVuSans-30"/>
       <use x="127.246094" xlink:href="#DejaVuSans-30"/>
       <use x="190.869141" xlink:href="#DejaVuSans-30"/>
      </g>
     </g>
    </g>
    <g id="text_6">
     <!-- Episodes -->
     <g transform="translate(200.5725 346.2265)scale(0.16 -0.16)">
      <defs>
       <path d="M 628 4666 
L 3578 4666 
L 3578 4134 
L 1259 4134 
L 1259 2753 
L 3481 2753 
L 3481 2222 
L 1259 2222 
L 1259 531 
L 3634 531 
L 3634 0 
L 628 0 
L 628 4666 
z
" id="DejaVuSans-45" transform="scale(0.015625)"/>
       <path d="M 1159 525 
L 1159 -1331 
L 581 -1331 
L 581 3500 
L 1159 3500 
L 1159 2969 
Q 1341 3281 1617 3432 
Q 1894 3584 2278 3584 
Q 2916 3584 3314 3078 
Q 3713 2572 3713 1747 
Q 3713 922 3314 415 
Q 2916 -91 2278 -91 
Q 1894 -91 1617 61 
Q 1341 213 1159 525 
z
M 3116 1747 
Q 3116 2381 2855 2742 
Q 2594 3103 2138 3103 
Q 1681 3103 1420 2742 
Q 1159 2381 1159 1747 
Q 1159 1113 1420 752 
Q 1681 391 2138 391 
Q 2594 391 2855 752 
Q 3116 1113 3116 1747 
z
" id="DejaVuSans-70" transform="scale(0.015625)"/>
       <path d="M 603 3500 
L 1178 3500 
L 1178 0 
L 603 0 
L 603 3500 
z
M 603 4863 
L 1178 4863 
L 1178 4134 
L 603 4134 
L 603 4863 
z
" id="DejaVuSans-69" transform="scale(0.015625)"/>
       <path d="M 2834 3397 
L 2834 2853 
Q 2591 2978 2328 3040 
Q 2066 3103 1784 3103 
Q 1356 3103 1142 2972 
Q 928 2841 928 2578 
Q 928 2378 1081 2264 
Q 1234 2150 1697 2047 
L 1894 2003 
Q 2506 1872 2764 1633 
Q 3022 1394 3022 966 
Q 3022 478 2636 193 
Q 2250 -91 1575 -91 
Q 1294 -91 989 -36 
Q 684 19 347 128 
L 347 722 
Q 666 556 975 473 
Q 1284 391 1588 391 
Q 1994 391 2212 530 
Q 2431 669 2431 922 
Q 2431 1156 2273 1281 
Q 2116 1406 1581 1522 
L 1381 1569 
Q 847 1681 609 1914 
Q 372 2147 372 2553 
Q 372 3047 722 3315 
Q 1072 3584 1716 3584 
Q 2034 3584 2315 3537 
Q 2597 3491 2834 3397 
z
" id="DejaVuSans-73" transform="scale(0.015625)"/>
       <path d="M 1959 3097 
Q 1497 3097 1228 2736 
Q 959 2375 959 1747 
Q 959 1119 1226 758 
Q 1494 397 1959 397 
Q 2419 397 2687 759 
Q 2956 1122 2956 1747 
Q 2956 2369 2687 2733 
Q 2419 3097 1959 3097 
z
M 1959 3584 
Q 2709 3584 3137 3096 
Q 3566 2609 3566 1747 
Q 3566 888 3137 398 
Q 2709 -91 1959 -91 
Q 1206 -91 779 398 
Q 353 888 353 1747 
Q 353 2609 779 3096 
Q 1206 3584 1959 3584 
z
" id="DejaVuSans-6f" transform="scale(0.015625)"/>
       <path d="M 2906 2969 
L 2906 4863 
L 3481 4863 
L 3481 0 
L 2906 0 
L 2906 525 
Q 2725 213 2448 61 
Q 2172 -91 1784 -91 
Q 1150 -91 751 415 
Q 353 922 353 1747 
Q 353 2572 751 3078 
Q 1150 3584 1784 3584 
Q 2172 3584 2448 3432 
Q 2725 3281 2906 2969 
z
M 947 1747 
Q 947 1113 1208 752 
Q 1469 391 1925 391 
Q 2381 391 2643 752 
Q 2906 1113 2906 1747 
Q 2906 2381 2643 2742 
Q 2381 3103 1925 3103 
Q 1469 3103 1208 2742 
Q 947 2381 947 1747 
z
" id="DejaVuSans-64" transform="scale(0.015625)"/>
       <path d="M 3597 1894 
L 3597 1613 
L 953 1613 
Q 991 1019 1311 708 
Q 1631 397 2203 397 
Q 2534 397 2845 478 
Q 3156 559 3463 722 
L 3463 178 
Q 3153 47 2828 -22 
Q 2503 -91 2169 -91 
Q 1331 -91 842 396 
Q 353 884 353 1716 
Q 353 2575 817 3079 
Q 1281 3584 2069 3584 
Q 2775 3584 3186 3129 
Q 3597 2675 3597 1894 
z
M 3022 2063 
Q 3016 2534 2758 2815 
Q 2500 3097 2075 3097 
Q 1594 3097 1305 2825 
Q 1016 2553 972 2059 
L 3022 2063 
z
" id="DejaVuSans-65" transform="scale(0.015625)"/>
      </defs>
      <use xlink:href="#DejaVuSans-45"/>
      <use x="63.183594" xlink:href="#DejaVuSans-70"/>
      <use x="126.660156" xlink:href="#DejaVuSans-69"/>
      <use x="154.443359" xlink:href="#DejaVuSans-73"/>
      <use x="206.542969" xlink:href="#DejaVuSans-6f"/>
      <use x="267.724609" xlink:href="#DejaVuSans-64"/>
      <use x="331.201172" xlink:href="#DejaVuSans-65"/>
      <use x="392.724609" xlink:href="#DejaVuSans-73"/>
     </g>
    </g>
   </g>
   <g id="matplotlib.axis_2">
    <g id="ytick_1">
     <g id="line2d_11">
      <path clip-path="url(#pa37d5b6171)" d="M 57.6 290.437392 
L 414.72 290.437392 
" style="fill:none;stroke:#b0b0b0;stroke-linecap:square;stroke-width:0.8;"/>
     </g>
     <g id="line2d_12">
      <defs>
       <path d="M 0 0 
L -3.5 0 
" id="m91a530a1fb" style="stroke:#000000;stroke-width:0.8;"/>
      </defs>
      <g>
       <use style="stroke:#000000;stroke-width:0.8;" x="57.6" xlink:href="#m91a530a1fb" y="290.437392"/>
      </g>
     </g>
     <g id="text_7">
      <!-- −1.0 -->
      <g transform="translate(11.7475 296.516142)scale(0.16 -0.16)">
       <defs>
        <path d="M 678 2272 
L 4684 2272 
L 4684 1741 
L 678 1741 
L 678 2272 
z
" id="DejaVuSans-2212" transform="scale(0.015625)"/>
        <path d="M 684 794 
L 1344 794 
L 1344 0 
L 684 0 
L 684 794 
z
" id="DejaVuSans-2e" transform="scale(0.015625)"/>
       </defs>
       <use xlink:href="#DejaVuSans-2212"/>
       <use x="83.789062" xlink:href="#DejaVuSans-31"/>
       <use x="147.412109" xlink:href="#DejaVuSans-2e"/>
       <use x="179.199219" xlink:href="#DejaVuSans-30"/>
      </g>
     </g>
    </g>
    <g id="ytick_2">
     <g id="line2d_13">
      <path clip-path="url(#pa37d5b6171)" d="M 57.6 245.140038 
L 414.72 245.140038 
" style="fill:none;stroke:#b0b0b0;stroke-linecap:square;stroke-width:0.8;"/>
     </g>
     <g id="line2d_14">
      <g>
       <use style="stroke:#000000;stroke-width:0.8;" x="57.6" xlink:href="#m91a530a1fb" y="245.140038"/>
      </g>
     </g>
     <g id="text_8">
      <!-- −0.8 -->
      <g transform="translate(11.7475 251.218788)scale(0.16 -0.16)">
       <defs>
        <path d="M 2034 2216 
Q 1584 2216 1326 1975 
Q 1069 1734 1069 1313 
Q 1069 891 1326 650 
Q 1584 409 2034 409 
Q 2484 409 2743 651 
Q 3003 894 3003 1313 
Q 3003 1734 2745 1975 
Q 2488 2216 2034 2216 
z
M 1403 2484 
Q 997 2584 770 2862 
Q 544 3141 544 3541 
Q 544 4100 942 4425 
Q 1341 4750 2034 4750 
Q 2731 4750 3128 4425 
Q 3525 4100 3525 3541 
Q 3525 3141 3298 2862 
Q 3072 2584 2669 2484 
Q 3125 2378 3379 2068 
Q 3634 1759 3634 1313 
Q 3634 634 3220 271 
Q 2806 -91 2034 -91 
Q 1263 -91 848 271 
Q 434 634 434 1313 
Q 434 1759 690 2068 
Q 947 2378 1403 2484 
z
M 1172 3481 
Q 1172 3119 1398 2916 
Q 1625 2713 2034 2713 
Q 2441 2713 2670 2916 
Q 2900 3119 2900 3481 
Q 2900 3844 2670 4047 
Q 2441 4250 2034 4250 
Q 1625 4250 1398 4047 
Q 1172 3844 1172 3481 
z
" id="DejaVuSans-38" transform="scale(0.015625)"/>
       </defs>
       <use xlink:href="#DejaVuSans-2212"/>
       <use x="83.789062" xlink:href="#DejaVuSans-30"/>
       <use x="147.412109" xlink:href="#DejaVuSans-2e"/>
       <use x="179.199219" xlink:href="#DejaVuSans-38"/>
      </g>
     </g>
    </g>
    <g id="ytick_3">
     <g id="line2d_15">
      <path clip-path="url(#pa37d5b6171)" d="M 57.6 199.842685 
L 414.72 199.842685 
" style="fill:none;stroke:#b0b0b0;stroke-linecap:square;stroke-width:0.8;"/>
     </g>
     <g id="line2d_16">
      <g>
       <use style="stroke:#000000;stroke-width:0.8;" x="57.6" xlink:href="#m91a530a1fb" y="199.842685"/>
      </g>
     </g>
     <g id="text_9">
      <!-- −0.6 -->
      <g transform="translate(11.7475 205.921435)scale(0.16 -0.16)">
       <defs>
        <path d="M 2113 2584 
Q 1688 2584 1439 2293 
Q 1191 2003 1191 1497 
Q 1191 994 1439 701 
Q 1688 409 2113 409 
Q 2538 409 2786 701 
Q 3034 994 3034 1497 
Q 3034 2003 2786 2293 
Q 2538 2584 2113 2584 
z
M 3366 4563 
L 3366 3988 
Q 3128 4100 2886 4159 
Q 2644 4219 2406 4219 
Q 1781 4219 1451 3797 
Q 1122 3375 1075 2522 
Q 1259 2794 1537 2939 
Q 1816 3084 2150 3084 
Q 2853 3084 3261 2657 
Q 3669 2231 3669 1497 
Q 3669 778 3244 343 
Q 2819 -91 2113 -91 
Q 1303 -91 875 529 
Q 447 1150 447 2328 
Q 447 3434 972 4092 
Q 1497 4750 2381 4750 
Q 2619 4750 2861 4703 
Q 3103 4656 3366 4563 
z
" id="DejaVuSans-36" transform="scale(0.015625)"/>
       </defs>
       <use xlink:href="#DejaVuSans-2212"/>
       <use x="83.789062" xlink:href="#DejaVuSans-30"/>
       <use x="147.412109" xlink:href="#DejaVuSans-2e"/>
       <use x="179.199219" xlink:href="#DejaVuSans-36"/>
      </g>
     </g>
    </g>
    <g id="ytick_4">
     <g id="line2d_17">
      <path clip-path="url(#pa37d5b6171)" d="M 57.6 154.545331 
L 414.72 154.545331 
" style="fill:none;stroke:#b0b0b0;stroke-linecap:square;stroke-width:0.8;"/>
     </g>
     <g id="line2d_18">
      <g>
       <use style="stroke:#000000;stroke-width:0.8;" x="57.6" xlink:href="#m91a530a1fb" y="154.545331"/>
      </g>
     </g>
     <g id="text_10">
      <!-- −0.4 -->
      <g transform="translate(11.7475 160.624081)scale(0.16 -0.16)">
       <use xlink:href="#DejaVuSans-2212"/>
       <use x="83.789062" xlink:href="#DejaVuSans-30"/>
       <use x="147.412109" xlink:href="#DejaVuSans-2e"/>
       <use x="179.199219" xlink:href="#DejaVuSans-34"/>
      </g>
     </g>
    </g>
    <g id="ytick_5">
     <g id="line2d_19">
      <path clip-path="url(#pa37d5b6171)" d="M 57.6 109.247978 
L 414.72 109.247978 
" style="fill:none;stroke:#b0b0b0;stroke-linecap:square;stroke-width:0.8;"/>
     </g>
     <g id="line2d_20">
      <g>
       <use style="stroke:#000000;stroke-width:0.8;" x="57.6" xlink:href="#m91a530a1fb" y="109.247978"/>
      </g>
     </g>
     <g id="text_11">
      <!-- −0.2 -->
      <g transform="translate(11.7475 115.326728)scale(0.16 -0.16)">
       <use xlink:href="#DejaVuSans-2212"/>
       <use x="83.789062" xlink:href="#DejaVuSans-30"/>
       <use x="147.412109" xlink:href="#DejaVuSans-2e"/>
       <use x="179.199219" xlink:href="#DejaVuSans-32"/>
      </g>
     </g>
    </g>
    <g id="ytick_6">
     <g id="line2d_21">
      <path clip-path="url(#pa37d5b6171)" d="M 57.6 63.950624 
L 414.72 63.950624 
" style="fill:none;stroke:#b0b0b0;stroke-linecap:square;stroke-width:0.8;"/>
     </g>
     <g id="line2d_22">
      <g>
       <use style="stroke:#000000;stroke-width:0.8;" x="57.6" xlink:href="#m91a530a1fb" y="63.950624"/>
      </g>
     </g>
     <g id="text_12">
      <!-- 0.0 -->
      <g transform="translate(25.155 70.029374)scale(0.16 -0.16)">
       <use xlink:href="#DejaVuSans-30"/>
       <use x="63.623047" xlink:href="#DejaVuSans-2e"/>
       <use x="95.410156" xlink:href="#DejaVuSans-30"/>
      </g>
     </g>
    </g>
    <g id="text_13">
     <!-- Cumulative Reward -->
     <g transform="translate(4.42 252.52425)rotate(-90)scale(0.16 -0.16)">
      <defs>
       <path d="M 4122 4306 
L 4122 3641 
Q 3803 3938 3442 4084 
Q 3081 4231 2675 4231 
Q 1875 4231 1450 3742 
Q 1025 3253 1025 2328 
Q 1025 1406 1450 917 
Q 1875 428 2675 428 
Q 3081 428 3442 575 
Q 3803 722 4122 1019 
L 4122 359 
Q 3791 134 3420 21 
Q 3050 -91 2638 -91 
Q 1578 -91 968 557 
Q 359 1206 359 2328 
Q 359 3453 968 4101 
Q 1578 4750 2638 4750 
Q 3056 4750 3426 4639 
Q 3797 4528 4122 4306 
z
" id="DejaVuSans-43" transform="scale(0.015625)"/>
       <path d="M 544 1381 
L 544 3500 
L 1119 3500 
L 1119 1403 
Q 1119 906 1312 657 
Q 1506 409 1894 409 
Q 2359 409 2629 706 
Q 2900 1003 2900 1516 
L 2900 3500 
L 3475 3500 
L 3475 0 
L 2900 0 
L 2900 538 
Q 2691 219 2414 64 
Q 2138 -91 1772 -91 
Q 1169 -91 856 284 
Q 544 659 544 1381 
z
M 1991 3584 
L 1991 3584 
z
" id="DejaVuSans-75" transform="scale(0.015625)"/>
       <path d="M 3328 2828 
Q 3544 3216 3844 3400 
Q 4144 3584 4550 3584 
Q 5097 3584 5394 3201 
Q 5691 2819 5691 2113 
L 5691 0 
L 5113 0 
L 5113 2094 
Q 5113 2597 4934 2840 
Q 4756 3084 4391 3084 
Q 3944 3084 3684 2787 
Q 3425 2491 3425 1978 
L 3425 0 
L 2847 0 
L 2847 2094 
Q 2847 2600 2669 2842 
Q 2491 3084 2119 3084 
Q 1678 3084 1418 2786 
Q 1159 2488 1159 1978 
L 1159 0 
L 581 0 
L 581 3500 
L 1159 3500 
L 1159 2956 
Q 1356 3278 1631 3431 
Q 1906 3584 2284 3584 
Q 2666 3584 2933 3390 
Q 3200 3197 3328 2828 
z
" id="DejaVuSans-6d" transform="scale(0.015625)"/>
       <path d="M 603 4863 
L 1178 4863 
L 1178 0 
L 603 0 
L 603 4863 
z
" id="DejaVuSans-6c" transform="scale(0.015625)"/>
       <path d="M 2194 1759 
Q 1497 1759 1228 1600 
Q 959 1441 959 1056 
Q 959 750 1161 570 
Q 1363 391 1709 391 
Q 2188 391 2477 730 
Q 2766 1069 2766 1631 
L 2766 1759 
L 2194 1759 
z
M 3341 1997 
L 3341 0 
L 2766 0 
L 2766 531 
Q 2569 213 2275 61 
Q 1981 -91 1556 -91 
Q 1019 -91 701 211 
Q 384 513 384 1019 
Q 384 1609 779 1909 
Q 1175 2209 1959 2209 
L 2766 2209 
L 2766 2266 
Q 2766 2663 2505 2880 
Q 2244 3097 1772 3097 
Q 1472 3097 1187 3025 
Q 903 2953 641 2809 
L 641 3341 
Q 956 3463 1253 3523 
Q 1550 3584 1831 3584 
Q 2591 3584 2966 3190 
Q 3341 2797 3341 1997 
z
" id="DejaVuSans-61" transform="scale(0.015625)"/>
       <path d="M 1172 4494 
L 1172 3500 
L 2356 3500 
L 2356 3053 
L 1172 3053 
L 1172 1153 
Q 1172 725 1289 603 
Q 1406 481 1766 481 
L 2356 481 
L 2356 0 
L 1766 0 
Q 1100 0 847 248 
Q 594 497 594 1153 
L 594 3053 
L 172 3053 
L 172 3500 
L 594 3500 
L 594 4494 
L 1172 4494 
z
" id="DejaVuSans-74" transform="scale(0.015625)"/>
       <path d="M 191 3500 
L 800 3500 
L 1894 563 
L 2988 3500 
L 3597 3500 
L 2284 0 
L 1503 0 
L 191 3500 
z
" id="DejaVuSans-76" transform="scale(0.015625)"/>
       <path id="DejaVuSans-20" transform="scale(0.015625)"/>
       <path d="M 2841 2188 
Q 3044 2119 3236 1894 
Q 3428 1669 3622 1275 
L 4263 0 
L 3584 0 
L 2988 1197 
Q 2756 1666 2539 1819 
Q 2322 1972 1947 1972 
L 1259 1972 
L 1259 0 
L 628 0 
L 628 4666 
L 2053 4666 
Q 2853 4666 3247 4331 
Q 3641 3997 3641 3322 
Q 3641 2881 3436 2590 
Q 3231 2300 2841 2188 
z
M 1259 4147 
L 1259 2491 
L 2053 2491 
Q 2509 2491 2742 2702 
Q 2975 2913 2975 3322 
Q 2975 3731 2742 3939 
Q 2509 4147 2053 4147 
L 1259 4147 
z
" id="DejaVuSans-52" transform="scale(0.015625)"/>
       <path d="M 269 3500 
L 844 3500 
L 1563 769 
L 2278 3500 
L 2956 3500 
L 3675 769 
L 4391 3500 
L 4966 3500 
L 4050 0 
L 3372 0 
L 2619 2869 
L 1863 0 
L 1184 0 
L 269 3500 
z
" id="DejaVuSans-77" transform="scale(0.015625)"/>
       <path d="M 2631 2963 
Q 2534 3019 2420 3045 
Q 2306 3072 2169 3072 
Q 1681 3072 1420 2755 
Q 1159 2438 1159 1844 
L 1159 0 
L 581 0 
L 581 3500 
L 1159 3500 
L 1159 2956 
Q 1341 3275 1631 3429 
Q 1922 3584 2338 3584 
Q 2397 3584 2469 3576 
Q 2541 3569 2628 3553 
L 2631 2963 
z
" id="DejaVuSans-72" transform="scale(0.015625)"/>
      </defs>
      <use xlink:href="#DejaVuSans-43"/>
      <use x="69.824219" xlink:href="#DejaVuSans-75"/>
      <use x="133.203125" xlink:href="#DejaVuSans-6d"/>
      <use x="230.615234" xlink:href="#DejaVuSans-75"/>
      <use x="293.994141" xlink:href="#DejaVuSans-6c"/>
      <use x="321.777344" xlink:href="#DejaVuSans-61"/>
      <use x="383.056641" xlink:href="#DejaVuSans-74"/>
      <use x="422.265625" xlink:href="#DejaVuSans-69"/>
      <use x="450.048828" xlink:href="#DejaVuSans-76"/>
      <use x="509.228516" xlink:href="#DejaVuSans-65"/>
      <use x="570.751953" xlink:href="#DejaVuSans-20"/>
      <use x="602.539062" xlink:href="#DejaVuSans-52"/>
      <use x="667.521484" xlink:href="#DejaVuSans-65"/>
      <use x="729.044922" xlink:href="#DejaVuSans-77"/>
      <use x="810.832031" xlink:href="#DejaVuSans-61"/>
      <use x="872.111328" xlink:href="#DejaVuSans-72"/>
      <use x="911.474609" xlink:href="#DejaVuSans-64"/>
     </g>
    </g>
    <g id="text_14">
     <!-- 1e7 -->
     <g transform="translate(57.6 38.472)scale(0.16 -0.16)">
      <defs>
       <path d="M 525 4666 
L 3525 4666 
L 3525 4397 
L 1831 0 
L 1172 0 
L 2766 4134 
L 525 4134 
L 525 4666 
z
" id="DejaVuSans-37" transform="scale(0.015625)"/>
      </defs>
      <use xlink:href="#DejaVuSans-31"/>
      <use x="63.623047" xlink:href="#DejaVuSans-65"/>
      <use x="125.146484" xlink:href="#DejaVuSans-37"/>
     </g>
    </g>
   </g>
   <g id="line2d_23">
    <path clip-path="url(#pa37d5b6171)" d="M 57.6 162.429379 
L 57.77856 153.357861 
L 57.95712 162.429379 
L 58.13568 153.357861 
L 58.31424 162.429379 
L 58.4928 153.357861 
L 58.67136 162.429379 
L 58.84992 153.357861 
L 59.02848 162.429379 
L 59.20704 153.357861 
L 59.3856 162.429379 
L 59.56416 153.357861 
L 59.74272 162.429379 
L 59.92128 153.357861 
L 60.09984 162.429379 
L 60.2784 153.357861 
L 60.45696 162.429379 
L 60.63552 153.357861 
L 60.81408 162.429379 
L 60.99264 153.357861 
L 61.1712 162.429379 
L 61.34976 153.357861 
L 61.52832 162.429379 
L 61.70688 153.357861 
L 61.88544 162.429379 
L 62.064 153.357861 
L 62.24256 162.429379 
L 62.42112 153.357861 
L 62.59968 162.429379 
L 62.77824 153.357861 
L 62.9568 162.429379 
L 63.13536 153.357861 
L 63.31392 162.429379 
L 63.49248 153.357861 
L 63.67104 162.429379 
L 63.8496 153.357861 
L 64.02816 162.429379 
L 64.20672 153.357861 
L 64.38528 162.429379 
L 64.56384 153.357861 
L 64.7424 162.429379 
L 64.92096 153.357861 
L 65.09952 162.429379 
L 65.27808 153.357861 
L 65.45664 162.429379 
L 65.6352 153.357861 
L 65.81376 162.429379 
L 65.99232 153.357861 
L 66.17088 162.429379 
L 66.34944 153.357861 
L 66.43872 162.210802 
L 66.61728 142.757098 
L 66.70656 142.587965 
L 66.79584 145.52779 
L 66.88512 192.190649 
L 66.9744 110.882458 
L 67.15296 173.54073 
L 67.24224 183.935911 
L 67.33152 163.124876 
L 67.51008 175.143683 
L 67.8672 161.518311 
L 67.95648 157.660817 
L 68.13504 130.439363 
L 68.3136 188.954768 
L 68.58144 122.715987 
L 68.67072 157.31394 
L 68.76 129.375998 
L 68.84928 160.756992 
L 68.93856 157.799748 
L 69.02784 143.104202 
L 69.11712 182.317646 
L 69.2064 120.020336 
L 69.29568 169.034911 
L 69.47424 137.83755 
L 69.56352 156.963826 
L 69.6528 148.321208 
L 69.74208 116.655631 
L 69.83136 161.551051 
L 69.92064 136.750686 
L 70.0992 194.484619 
L 70.27776 163.57291 
L 70.36704 156.786128 
L 70.5456 185.650905 
L 70.63488 125.572301 
L 70.72416 174.513534 
L 70.81344 165.486214 
L 70.90272 153.370645 
L 70.992 155.163107 
L 71.08128 188.114138 
L 71.17056 183.925729 
L 71.25984 149.569998 
L 71.34912 150.939108 
L 71.4384 131.426578 
L 71.52768 152.256035 
L 71.61696 141.134497 
L 71.70624 160.204398 
L 71.8848 130.710943 
L 71.97408 160.957642 
L 72.06336 156.582601 
L 72.24192 170.641821 
L 72.3312 147.224149 
L 72.42048 161.778831 
L 72.50976 137.539819 
L 72.59904 277.84127 
L 72.68832 145.146041 
L 72.7776 151.400536 
L 72.86688 131.108437 
L 72.95616 170.784556 
L 73.04544 122.067547 
L 73.224 146.463937 
L 73.31328 233.36682 
L 73.49184 149.870406 
L 73.58112 202.542867 
L 73.75968 136.79238 
L 74.02752 161.304852 
L 74.1168 132.243926 
L 74.20608 133.051846 
L 74.29536 166.14517 
L 74.38464 156.560244 
L 74.47392 169.121675 
L 74.5632 140.108289 
L 74.65248 149.779776 
L 74.74176 130.433217 
L 74.92032 228.703969 
L 75.0096 150.508099 
L 75.09888 212.374542 
L 75.18816 124.263707 
L 75.27744 140.216339 
L 75.36672 209.98233 
L 75.54528 112.567146 
L 75.72384 156.374112 
L 75.81312 164.509759 
L 75.9024 149.97437 
L 75.99168 178.796049 
L 76.25952 112.705048 
L 76.43808 204.084184 
L 76.52736 162.581956 
L 76.61664 195.260352 
L 76.70592 138.791272 
L 76.7952 181.360152 
L 76.97376 134.644246 
L 77.06304 166.281814 
L 77.2416 120.917218 
L 77.33088 147.564865 
L 77.42016 138.879799 
L 77.59872 174.642267 
L 77.688 189.843845 
L 77.86656 132.590531 
L 77.95584 137.352215 
L 78.04512 134.514288 
L 78.22368 189.193431 
L 78.49152 125.903938 
L 78.5808 141.143381 
L 78.67008 136.096104 
L 78.75936 175.077239 
L 78.84864 171.88433 
L 78.93792 129.764937 
L 79.0272 169.986931 
L 79.11648 146.597132 
L 79.38432 205.333638 
L 79.56288 134.801543 
L 79.74144 218.120637 
L 79.83072 197.775743 
L 79.92 153.758255 
L 80.00928 216.558487 
L 80.09856 150.054065 
L 80.18784 152.93892 
L 80.3664 128.924332 
L 80.45568 135.426897 
L 80.54496 130.420532 
L 80.72352 222.748727 
L 80.90208 137.651375 
L 80.99136 175.118541 
L 81.08064 170.803064 
L 81.16992 137.663438 
L 81.2592 137.799794 
L 81.34848 139.565402 
L 81.43776 145.630342 
L 81.52704 119.636413 
L 81.61632 124.635718 
L 81.7056 139.84276 
L 81.79488 178.84004 
L 81.88416 173.746837 
L 82.06272 212.606481 
L 82.152 137.063081 
L 82.24128 195.247932 
L 82.33056 130.856103 
L 82.41984 148.21051 
L 82.50912 189.893162 
L 82.5984 151.838999 
L 82.77696 175.379425 
L 82.86624 168.85792 
L 82.95552 173.952893 
L 83.0448 122.437387 
L 83.13408 126.622522 
L 83.22336 170.234745 
L 83.31264 169.175764 
L 83.4912 130.46226 
L 83.58048 176.521528 
L 83.66976 175.550534 
L 83.75904 169.466445 
L 84.02688 127.192501 
L 84.11616 157.280156 
L 84.20544 120.572926 
L 84.384 156.205556 
L 84.65184 124.003255 
L 84.8304 162.068798 
L 84.91968 178.651143 
L 85.00896 134.808925 
L 85.09824 143.613854 
L 85.18752 172.22268 
L 85.2768 139.465962 
L 85.45536 211.716592 
L 85.63392 161.710654 
L 85.7232 217.303566 
L 85.81248 137.199627 
L 85.90176 140.288001 
L 86.08032 227.170696 
L 86.1696 145.47463 
L 86.25888 164.899329 
L 86.34816 215.992475 
L 86.43744 140.610047 
L 86.52672 157.551357 
L 86.616 165.261658 
L 86.70528 140.066519 
L 86.79456 146.33027 
L 86.97312 223.981997 
L 87.15168 163.89105 
L 87.33024 144.709144 
L 87.41952 150.20058 
L 87.59808 128.719504 
L 87.77664 166.102492 
L 87.86592 119.259792 
L 88.13376 184.473779 
L 88.31232 165.446067 
L 88.4016 158.38907 
L 88.49088 136.851463 
L 88.58016 203.864351 
L 88.75872 132.161711 
L 88.848 176.840946 
L 89.02656 146.220206 
L 89.20512 187.130371 
L 89.2944 133.755189 
L 89.38368 175.581124 
L 89.65152 133.231149 
L 89.91936 191.360383 
L 90.09792 135.452147 
L 90.1872 145.483209 
L 90.27648 199.98143 
L 90.36576 174.332168 
L 90.45504 181.590736 
L 90.54432 128.289015 
L 90.6336 157.797454 
L 90.72288 109.29351 
L 90.81216 122.88121 
L 90.90144 176.81024 
L 90.99072 164.155735 
L 91.08 140.839415 
L 91.16928 147.344264 
L 91.25856 167.159751 
L 91.34784 239.08268 
L 91.43712 185.455271 
L 91.5264 187.602805 
L 91.61568 176.588199 
L 91.79424 267.598739 
L 91.9728 152.306948 
L 92.06208 187.159783 
L 92.15136 118.708078 
L 92.32992 169.673169 
L 92.4192 122.400375 
L 92.50848 136.366517 
L 92.59776 108.407017 
L 92.77632 152.475809 
L 92.95488 140.732015 
L 93.04416 148.163691 
L 93.13344 213.81444 
L 93.312 158.124779 
L 93.40128 224.557034 
L 93.49056 162.531724 
L 93.57984 165.466546 
L 93.66912 143.986029 
L 93.7584 145.980332 
L 93.84768 241.631771 
L 93.93696 125.246125 
L 94.02624 141.584402 
L 94.11552 178.207328 
L 94.29408 125.272853 
L 94.38336 158.320575 
L 94.56192 118.287388 
L 94.6512 144.061792 
L 94.74048 131.186374 
L 94.82976 163.401713 
L 95.00832 140.160065 
L 95.0976 164.081215 
L 95.18688 142.783858 
L 95.27616 165.970261 
L 95.36544 137.963454 
L 95.45472 144.79532 
L 95.544 168.850172 
L 95.63328 130.376669 
L 95.81184 179.98059 
L 95.90112 166.463947 
L 95.9904 120.256329 
L 96.07968 191.206466 
L 96.16896 183.40548 
L 96.25824 147.315351 
L 96.34752 153.876595 
L 96.52608 195.410115 
L 96.79392 156.248237 
L 96.8832 155.252931 
L 97.15104 131.017033 
L 97.24032 157.149934 
L 97.3296 145.844986 
L 97.41888 189.718197 
L 97.59744 124.153906 
L 97.776 135.817623 
L 97.86528 122.671751 
L 97.95456 188.468628 
L 98.04384 153.538024 
L 98.13312 196.964524 
L 98.2224 132.297293 
L 98.31168 177.638946 
L 98.40096 140.639073 
L 98.49024 207.991237 
L 98.6688 158.251262 
L 98.75808 149.906005 
L 98.84736 129.749485 
L 98.93664 169.335248 
L 99.02592 147.084263 
L 99.20448 169.978247 
L 99.29376 145.358438 
L 99.38304 169.197164 
L 99.47232 166.988076 
L 99.5616 105.449345 
L 99.74016 173.838101 
L 99.82944 159.289428 
L 100.008 127.574146 
L 100.09728 167.070939 
L 100.18656 149.863078 
L 100.27584 182.144069 
L 100.36512 133.003864 
L 100.4544 175.480657 
L 100.54368 130.42187 
L 100.72224 202.543352 
L 100.81152 105.519875 
L 100.99008 188.930801 
L 101.07936 123.973002 
L 101.16864 197.46004 
L 101.25792 120.515494 
L 101.3472 124.582131 
L 101.43648 138.20609 
L 101.52576 127.022123 
L 101.61504 165.906715 
L 101.88288 127.300458 
L 101.97216 203.645329 
L 102.06144 119.33086 
L 102.15072 154.04074 
L 102.24 140.072129 
L 102.32928 223.861756 
L 102.50784 143.538884 
L 102.59712 123.291512 
L 102.77568 162.49647 
L 102.86496 137.203765 
L 102.95424 139.082132 
L 103.04352 124.767138 
L 103.1328 172.451589 
L 103.22208 163.157851 
L 103.31136 140.969774 
L 103.40064 146.476985 
L 103.48992 194.381146 
L 103.5792 130.618042 
L 103.66848 156.983211 
L 103.93632 130.638211 
L 104.0256 165.610088 
L 104.11488 164.300274 
L 104.20416 188.403144 
L 104.38272 118.18005 
L 104.472 181.973635 
L 104.73984 132.4383 
L 104.82912 169.401901 
L 105.00768 142.713638 
L 105.09696 140.96091 
L 105.18624 165.745891 
L 105.27552 138.844304 
L 105.3648 154.506725 
L 105.45408 154.447075 
L 105.54336 152.206451 
L 105.63264 159.323656 
L 105.72192 180.583732 
L 105.8112 123.037056 
L 105.90048 186.158923 
L 106.16832 129.699027 
L 106.2576 122.735688 
L 106.34688 132.299283 
L 106.52544 167.226532 
L 106.79328 115.884543 
L 106.97184 193.045108 
L 107.06112 176.734418 
L 107.23968 126.191375 
L 107.32896 178.024648 
L 107.41824 167.70443 
L 107.50752 160.920183 
L 107.5968 120.090621 
L 107.77536 154.256332 
L 107.86464 126.953906 
L 107.95392 174.824376 
L 108.22176 113.940886 
L 108.31104 116.063703 
L 108.40032 154.327452 
L 108.4896 147.074637 
L 108.57888 156.872806 
L 108.66816 155.934294 
L 108.75744 190.767331 
L 108.84672 163.506393 
L 108.936 183.440083 
L 109.11456 123.889948 
L 109.20384 164.78042 
L 109.3824 98.026582 
L 109.47168 183.906135 
L 109.56096 126.348565 
L 109.73952 181.889824 
L 109.8288 149.587602 
L 109.91808 182.33661 
L 110.00736 168.905804 
L 110.09664 196.785358 
L 110.2752 121.214066 
L 110.36448 135.343621 
L 110.63232 116.833274 
L 110.7216 186.546196 
L 110.81088 147.316941 
L 110.90016 152.776885 
L 110.98944 184.209616 
L 111.07872 148.011933 
L 111.168 157.205557 
L 111.25728 144.247684 
L 111.43584 184.185145 
L 111.52512 171.225594 
L 111.6144 115.773533 
L 111.70368 175.711874 
L 111.97152 130.610526 
L 112.15008 167.301705 
L 112.23936 116.734657 
L 112.41792 176.64034 
L 112.5072 151.570643 
L 112.59648 189.524921 
L 112.77504 145.526534 
L 112.86432 149.698571 
L 112.9536 171.753565 
L 113.13216 95.823901 
L 113.31072 139.495922 
L 113.4 119.61273 
L 113.48928 163.473418 
L 113.57856 126.618958 
L 113.66784 216.477942 
L 113.8464 133.886656 
L 114.02496 170.135971 
L 114.20352 125.043045 
L 114.2928 137.277485 
L 114.38208 167.524498 
L 114.47136 165.381184 
L 114.7392 119.851447 
L 114.91776 162.558835 
L 115.00704 154.94871 
L 115.09632 156.615783 
L 115.1856 159.738888 
L 115.27488 180.293545 
L 115.36416 161.078462 
L 115.45344 172.033889 
L 115.54272 160.294025 
L 115.632 105.157475 
L 115.81056 128.477665 
L 115.89984 138.63451 
L 116.0784 186.903088 
L 116.16768 121.469505 
L 116.25696 132.26416 
L 116.34624 183.170304 
L 116.5248 131.341022 
L 116.61408 157.276279 
L 116.70336 138.202394 
L 116.79264 138.246034 
L 116.88192 137.389337 
L 116.9712 139.434883 
L 117.14976 166.103616 
L 117.32832 143.725246 
L 117.4176 153.821698 
L 117.68544 114.08405 
L 117.864 183.895905 
L 118.13184 139.524321 
L 118.22112 154.677819 
L 118.3104 140.703509 
L 118.39968 197.054203 
L 118.48896 123.266901 
L 118.57824 164.945259 
L 118.66752 142.595701 
L 118.7568 160.020262 
L 118.84608 154.953183 
L 118.93536 164.025974 
L 119.02464 156.165605 
L 119.11392 128.886123 
L 119.2032 138.410705 
L 119.47104 285.408 
L 119.6496 154.011073 
L 119.73888 139.564642 
L 119.82816 150.320313 
L 119.91744 219.116934 
L 120.00672 116.641625 
L 120.18528 149.099676 
L 120.27456 169.625991 
L 120.45312 141.509564 
L 120.5424 165.254219 
L 120.63168 106.057402 
L 120.72096 195.041882 
L 120.81024 144.041559 
L 120.89952 165.980644 
L 121.07808 117.397959 
L 121.16736 191.779736 
L 121.34592 123.313457 
L 121.4352 173.460375 
L 121.52448 128.621986 
L 121.61376 132.925103 
L 121.70304 133.682131 
L 121.8816 207.271701 
L 122.06016 120.303934 
L 122.23872 161.420139 
L 122.328 155.69619 
L 122.41728 133.089344 
L 122.50656 169.455304 
L 122.59584 133.631407 
L 122.68512 197.242152 
L 122.95296 141.576358 
L 123.13152 153.630816 
L 123.2208 135.766726 
L 123.31008 203.77199 
L 123.39936 95.380998 
L 123.57792 155.085909 
L 123.6672 149.027773 
L 123.75648 197.726366 
L 123.84576 153.370583 
L 123.93504 155.710513 
L 124.02432 158.375491 
L 124.1136 148.755824 
L 124.29216 174.269545 
L 124.38144 122.722283 
L 124.47072 149.34068 
L 124.56 142.799592 
L 124.64928 148.236058 
L 124.73856 191.240015 
L 124.82784 120.437137 
L 125.0064 157.280694 
L 125.09568 130.013111 
L 125.18496 207.182213 
L 125.36352 155.717965 
L 125.4528 165.434659 
L 125.54208 130.050585 
L 125.63136 172.237591 
L 125.72064 124.817 
L 125.8992 254.759816 
L 125.98848 178.619656 
L 126.07776 218.379516 
L 126.25632 137.620167 
L 126.3456 129.848062 
L 126.43488 163.330047 
L 126.52416 118.156407 
L 126.61344 213.457336 
L 126.70272 125.296573 
L 126.792 170.443923 
L 126.88128 153.424589 
L 127.05984 160.726716 
L 127.14912 143.456728 
L 127.2384 149.444329 
L 127.32768 106.79787 
L 127.41696 151.673282 
L 127.50624 129.556727 
L 127.6848 171.929056 
L 127.86336 139.779148 
L 127.95264 140.945377 
L 128.1312 165.604219 
L 128.22048 131.450632 
L 128.30976 195.166551 
L 128.48832 124.763225 
L 128.5776 161.036235 
L 128.66688 157.634423 
L 128.75616 129.583322 
L 128.84544 176.806158 
L 128.93472 130.857661 
L 129.024 148.640703 
L 129.11328 134.310844 
L 129.20256 211.985454 
L 129.38112 120.137747 
L 129.4704 153.386821 
L 129.55968 148.176165 
L 129.64896 169.742408 
L 129.82752 129.782304 
L 130.00608 188.808626 
L 130.09536 170.282242 
L 130.27392 129.396818 
L 130.3632 174.581569 
L 130.45248 125.715166 
L 130.54176 169.557525 
L 130.72032 128.574423 
L 130.8096 139.533845 
L 130.89888 136.006011 
L 130.98816 155.224465 
L 131.07744 147.421966 
L 131.16672 171.956056 
L 131.256 120.875963 
L 131.34528 125.712632 
L 131.52384 177.844877 
L 131.61312 94.613565 
L 131.7024 153.598868 
L 131.79168 133.089816 
L 131.97024 199.46125 
L 132.05952 112.04265 
L 132.1488 220.240611 
L 132.32736 133.434952 
L 132.68448 231.634531 
L 132.77376 123.227147 
L 132.86304 179.904244 
L 132.95232 113.120729 
L 133.0416 159.293349 
L 133.13088 144.146132 
L 133.22016 167.721197 
L 133.30944 147.304834 
L 133.488 177.323321 
L 133.66656 115.64695 
L 133.75584 127.465771 
L 133.84512 118.207305 
L 134.02368 173.214214 
L 134.11296 142.315991 
L 134.20224 232.676504 
L 134.3808 154.685239 
L 134.47008 149.104441 
L 134.55936 161.882951 
L 134.64864 127.225 
L 134.73792 174.877957 
L 134.8272 127.240896 
L 134.91648 164.156175 
L 135.09504 125.404024 
L 135.18432 121.414658 
L 135.36288 126.751915 
L 135.45216 167.752828 
L 135.54144 155.590488 
L 135.63072 192.268311 
L 135.72 163.956575 
L 135.80928 175.422542 
L 135.89856 123.305701 
L 135.98784 173.337909 
L 136.07712 151.57353 
L 136.1664 169.996483 
L 136.43424 114.922558 
L 136.6128 168.201797 
L 136.70208 116.739323 
L 136.79136 160.122369 
L 136.88064 149.022953 
L 136.96992 101.396691 
L 137.0592 124.837764 
L 137.14848 111.95779 
L 137.32704 144.063761 
L 137.5056 107.353334 
L 137.59488 155.207115 
L 137.68416 143.721519 
L 137.77344 177.045037 
L 137.86272 165.407719 
L 137.952 179.148831 
L 138.04128 213.982357 
L 138.21984 133.762509 
L 138.30912 154.983945 
L 138.3984 137.020834 
L 138.48768 138.64421 
L 138.57696 126.083471 
L 138.66624 139.277332 
L 138.75552 116.689063 
L 138.93408 132.06784 
L 139.02336 140.489422 
L 139.20192 124.942132 
L 139.2912 170.612411 
L 139.46976 146.025888 
L 139.55904 170.448499 
L 139.64832 163.32307 
L 139.7376 179.444414 
L 139.82688 132.747283 
L 139.91616 181.379109 
L 140.00544 118.339497 
L 140.09472 139.983859 
L 140.184 131.613711 
L 140.27328 180.704011 
L 140.36256 109.284335 
L 140.45184 121.665341 
L 140.6304 157.385516 
L 140.71968 105.535877 
L 140.80896 158.945348 
L 140.89824 117.118347 
L 141.16608 151.721149 
L 141.25536 133.814809 
L 141.34464 154.281048 
L 141.43392 112.671379 
L 141.5232 142.02514 
L 141.61248 126.469856 
L 141.70176 137.37739 
L 141.79104 97.562871 
L 141.9696 169.340524 
L 142.14816 112.071854 
L 142.32672 131.133238 
L 142.416 135.21985 
L 142.59456 108.948183 
L 142.77312 164.580361 
L 142.95168 118.854641 
L 143.04096 169.557064 
L 143.13024 130.131037 
L 143.21952 150.061231 
L 143.39808 131.950349 
L 143.48736 160.901911 
L 143.66592 102.101567 
L 143.93376 173.75855 
L 144.02304 142.282127 
L 144.11232 153.641006 
L 144.2016 150.956938 
L 144.38016 134.233438 
L 144.46944 137.658775 
L 144.55872 137.720652 
L 144.648 111.357764 
L 144.73728 155.731482 
L 144.91584 126.729663 
L 145.00512 133.373115 
L 145.18368 118.087808 
L 145.27296 149.552788 
L 145.36224 132.972654 
L 145.5408 164.428873 
L 145.63008 109.010769 
L 145.71936 149.648867 
L 145.80864 142.188715 
L 145.89792 120.86001 
L 146.16576 175.082494 
L 146.25504 102.52395 
L 146.34432 114.710589 
L 146.4336 158.717681 
L 146.52288 110.049899 
L 146.61216 115.622559 
L 146.70144 134.774811 
L 146.79072 109.78722 
L 146.88 112.663679 
L 147.05856 138.906084 
L 147.14784 132.525977 
L 147.23712 114.091077 
L 147.41568 141.666062 
L 147.50496 191.963963 
L 147.59424 147.980703 
L 147.68352 191.159569 
L 147.86208 111.193051 
L 148.04064 158.299383 
L 148.2192 149.59019 
L 148.30848 111.53705 
L 148.39776 116.325833 
L 148.48704 116.483218 
L 148.57632 107.062199 
L 148.6656 111.159341 
L 148.75488 121.966389 
L 148.84416 176.472823 
L 148.93344 110.617747 
L 149.02272 126.101985 
L 149.112 143.842231 
L 149.20128 235.615873 
L 149.29056 114.359841 
L 149.37984 116.128572 
L 149.46912 164.20587 
L 149.5584 145.309329 
L 149.64768 100.615175 
L 149.73696 160.544463 
L 149.82624 117.775411 
L 150.0048 149.558232 
L 150.09408 122.629244 
L 150.18336 123.680665 
L 150.27264 151.509376 
L 150.36192 144.765141 
L 150.4512 108.407531 
L 150.54048 148.567658 
L 150.62976 104.022136 
L 150.71904 121.812956 
L 150.80832 109.682763 
L 150.8976 149.92699 
L 150.98688 141.213537 
L 151.07616 141.933034 
L 151.16544 106.809672 
L 151.43328 181.50928 
L 151.61184 99.441399 
L 151.70112 157.105276 
L 151.7904 143.160962 
L 151.87968 140.676941 
L 152.14752 155.95645 
L 152.2368 122.873509 
L 152.32608 141.142976 
L 152.41536 97.758698 
L 152.6832 196.676927 
L 152.77248 143.403684 
L 152.86176 162.65193 
L 152.95104 118.993705 
L 153.04032 146.872145 
L 153.1296 92.907036 
L 153.21888 145.927405 
L 153.39744 123.781156 
L 153.48672 140.169702 
L 153.576 100.452337 
L 153.66528 115.969756 
L 153.75456 166.908819 
L 153.84384 94.549959 
L 153.93312 140.027966 
L 154.0224 122.918609 
L 154.11168 138.132487 
L 154.20096 133.591377 
L 154.29024 136.957978 
L 154.37952 122.982387 
L 154.4688 135.022922 
L 154.55808 109.137114 
L 154.64736 173.196781 
L 154.73664 103.420486 
L 154.82592 112.916726 
L 155.00448 138.825597 
L 155.09376 97.663348 
L 155.27232 167.216341 
L 155.3616 127.872645 
L 155.45088 156.97868 
L 155.54016 120.064962 
L 155.62944 128.995382 
L 155.89728 120.48435 
L 156.07584 136.809523 
L 156.16512 140.599344 
L 156.2544 221.54615 
L 156.43296 119.713256 
L 156.52224 163.559202 
L 156.61152 135.817154 
L 156.7008 161.735243 
L 156.79008 109.187721 
L 156.96864 144.395082 
L 157.05792 92.942652 
L 157.23648 172.723289 
L 157.32576 133.639704 
L 157.41504 138.687563 
L 157.50432 154.200921 
L 157.5936 138.362601 
L 157.77216 197.856801 
L 157.95072 116.60868 
L 158.04 122.378046 
L 158.12928 111.52116 
L 158.21856 124.84733 
L 158.30784 96.188269 
L 158.4864 137.962289 
L 158.66496 121.999086 
L 158.75424 162.907345 
L 158.84352 120.28024 
L 158.9328 129.08957 
L 159.02208 168.451817 
L 159.20064 99.952293 
L 159.3792 137.336441 
L 159.46848 173.452997 
L 159.55776 128.550709 
L 159.64704 182.198794 
L 159.8256 105.536873 
L 160.00416 168.495367 
L 160.09344 106.569781 
L 160.18272 156.112125 
L 160.36128 123.964658 
L 160.45056 119.3981 
L 160.62912 170.876876 
L 160.98624 110.148265 
L 161.07552 124.597626 
L 161.1648 119.149705 
L 161.25408 187.227944 
L 161.34336 96.608152 
L 161.43264 102.741983 
L 161.52192 119.680616 
L 161.6112 190.616132 
L 161.78976 125.623556 
L 161.87904 127.635204 
L 161.96832 225.140854 
L 162.0576 116.216827 
L 162.14688 116.498491 
L 162.23616 151.2392 
L 162.32544 140.215075 
L 162.41472 104.777252 
L 162.504 105.045442 
L 162.59328 127.490912 
L 162.68256 114.31165 
L 162.77184 118.259634 
L 162.86112 110.332516 
L 163.03968 133.896612 
L 163.12896 168.797466 
L 163.21824 155.832749 
L 163.30752 124.169154 
L 163.3968 134.638666 
L 163.48608 133.089537 
L 163.57536 126.286127 
L 163.75392 94.00944 
L 163.8432 132.932901 
L 163.93248 114.877076 
L 164.02176 127.544816 
L 164.11104 171.124265 
L 164.2896 123.756723 
L 164.37888 96.846494 
L 164.55744 143.113029 
L 164.82528 92.313216 
L 164.91456 111.313635 
L 165.00384 182.847982 
L 165.1824 104.347931 
L 165.27168 136.774153 
L 165.36096 128.76191 
L 165.45024 135.573029 
L 165.6288 178.160851 
L 165.71808 122.204686 
L 165.80736 130.167078 
L 165.89664 110.251978 
L 165.98592 113.848517 
L 166.0752 149.266618 
L 166.16448 141.797272 
L 166.25376 131.234293 
L 166.34304 106.839645 
L 166.43232 147.860651 
L 166.5216 105.661688 
L 166.61088 151.106519 
L 166.70016 130.321288 
L 166.87872 143.888667 
L 167.05728 108.098384 
L 167.14656 166.995277 
L 167.32512 101.137615 
L 167.4144 132.435185 
L 167.59296 119.638586 
L 167.77152 154.730002 
L 167.95008 123.716012 
L 168.03936 232.698269 
L 168.12864 87.127172 
L 168.21792 118.270793 
L 168.3072 126.623078 
L 168.39648 109.217003 
L 168.48576 110.215225 
L 168.57504 104.114644 
L 168.66432 121.473236 
L 168.84288 100.397091 
L 168.93216 162.325227 
L 169.11072 110.528973 
L 169.28928 196.139354 
L 169.37856 96.402203 
L 169.46784 146.216668 
L 169.6464 105.505425 
L 169.73568 113.050409 
L 169.82496 142.56401 
L 169.91424 112.675832 
L 170.00352 127.530294 
L 170.0928 118.675942 
L 170.18208 129.306926 
L 170.27136 153.202237 
L 170.36064 94.129171 
L 170.44992 172.39374 
L 170.5392 109.401747 
L 170.71776 144.752513 
L 170.80704 132.638774 
L 170.89632 186.09732 
L 170.9856 99.915697 
L 171.07488 131.830387 
L 171.16416 127.189016 
L 171.34272 107.918779 
L 171.432 91.247402 
L 171.52128 129.358155 
L 171.61056 125.454799 
L 171.69984 91.956394 
L 171.78912 138.485829 
L 171.8784 110.985759 
L 172.05696 151.764768 
L 172.14624 91.025647 
L 172.23552 152.019901 
L 172.3248 141.708359 
L 172.41408 109.873105 
L 172.50336 155.265998 
L 172.59264 129.113057 
L 172.68192 163.772056 
L 172.86048 117.407767 
L 172.94976 125.126676 
L 173.03904 119.926991 
L 173.2176 98.028156 
L 173.30688 111.323425 
L 173.39616 152.927057 
L 173.48544 135.22155 
L 173.57472 146.250688 
L 173.75328 115.036974 
L 173.84256 111.764292 
L 173.93184 165.579807 
L 174.28896 99.790792 
L 174.37824 159.935527 
L 174.64608 100.070084 
L 174.82464 177.969616 
L 175.18176 108.819066 
L 175.27104 113.254986 
L 175.4496 145.386848 
L 175.53888 97.694255 
L 175.71744 152.330483 
L 175.80672 120.469873 
L 175.896 137.691409 
L 175.98528 117.582542 
L 176.07456 151.997318 
L 176.25312 112.313622 
L 176.3424 99.664897 
L 176.61024 135.797546 
L 176.69952 140.524652 
L 176.96736 82.713347 
L 177.05664 173.589935 
L 177.14592 160.296283 
L 177.2352 182.325593 
L 177.41376 101.059337 
L 177.50304 74.976225 
L 177.6816 133.31299 
L 177.77088 132.587098 
L 177.86016 106.232299 
L 178.03872 168.052192 
L 178.128 155.017691 
L 178.30656 108.191104 
L 178.39584 157.915378 
L 178.48512 93.945204 
L 178.5744 112.434594 
L 178.66368 82.31961 
L 178.84224 130.149995 
L 178.93152 133.204447 
L 179.0208 128.336364 
L 179.11008 106.930241 
L 179.28864 133.244439 
L 179.37792 94.737277 
L 179.64576 154.236524 
L 179.73504 118.320485 
L 179.9136 170.380312 
L 180.09216 124.778112 
L 180.18144 158.580289 
L 180.36 99.108166 
L 180.44928 124.829952 
L 180.53856 103.753886 
L 180.8064 141.637789 
L 180.98496 106.656864 
L 181.07424 106.726226 
L 181.2528 154.781178 
L 181.43136 123.71613 
L 181.52064 108.983557 
L 181.60992 146.224316 
L 181.6992 121.774051 
L 181.78848 156.162162 
L 181.87776 98.93598 
L 181.96704 191.536294 
L 182.05632 85.115456 
L 182.1456 124.444166 
L 182.23488 113.405216 
L 182.32416 115.361005 
L 182.41344 106.883532 
L 182.50272 113.027526 
L 182.68128 151.974969 
L 182.77056 193.834915 
L 182.85984 94.647951 
L 182.94912 114.748826 
L 183.0384 116.181919 
L 183.12768 146.761319 
L 183.21696 105.401425 
L 183.30624 115.340797 
L 183.39552 92.475747 
L 183.66336 160.467497 
L 183.75264 118.89248 
L 183.9312 147.219435 
L 184.10976 98.270115 
L 184.19904 107.435458 
L 184.28832 101.853181 
L 184.3776 113.391818 
L 184.46688 86.240673 
L 184.73472 132.421203 
L 184.91328 137.979406 
L 185.00256 86.16993 
L 185.09184 166.545935 
L 185.18112 91.959588 
L 185.2704 107.018979 
L 185.44896 112.411223 
L 185.53824 165.846788 
L 185.62752 151.792346 
L 185.80608 96.354805 
L 185.89536 118.747522 
L 185.98464 179.73289 
L 186.07392 90.263551 
L 186.1632 96.821603 
L 186.34176 120.980028 
L 186.43104 205.956105 
L 186.69888 97.506184 
L 186.78816 90.175353 
L 186.87744 113.162345 
L 187.056 89.422632 
L 187.14528 122.364985 
L 187.23456 110.896541 
L 187.41312 153.268329 
L 187.5024 155.360285 
L 187.68096 89.901725 
L 187.77024 108.895539 
L 187.85952 162.822239 
L 187.9488 90.358357 
L 188.03808 126.176202 
L 188.12736 92.459924 
L 188.21664 147.068914 
L 188.30592 124.719302 
L 188.3952 174.838088 
L 188.48448 92.085969 
L 188.57376 93.303005 
L 188.66304 95.415938 
L 189.02016 124.624428 
L 189.19872 92.356081 
L 189.288 147.231263 
L 189.37728 84.66732 
L 189.55584 122.28041 
L 189.64512 96.767886 
L 189.7344 123.141914 
L 189.82368 78.562284 
L 190.00224 134.094178 
L 190.09152 131.47236 
L 190.27008 102.21054 
L 190.35936 142.474833 
L 190.44864 139.540175 
L 190.53792 97.959454 
L 190.6272 142.097436 
L 190.71648 132.753399 
L 190.89504 89.249113 
L 190.98432 184.435732 
L 191.0736 83.094871 
L 191.16288 131.263452 
L 191.25216 110.753211 
L 191.34144 127.588789 
L 191.43072 81.063953 
L 191.52 144.54264 
L 191.60928 104.081618 
L 191.69856 140.643577 
L 191.78784 90.957993 
L 191.87712 99.691799 
L 191.9664 128.31066 
L 192.05568 87.564936 
L 192.14496 109.360956 
L 192.23424 181.446866 
L 192.32352 83.693114 
L 192.50208 122.239497 
L 192.59136 120.903862 
L 192.68064 139.354049 
L 192.76992 91.681131 
L 192.8592 92.607206 
L 192.94848 105.647535 
L 193.03776 152.632539 
L 193.12704 81.857944 
L 193.21632 107.202881 
L 193.3056 176.95637 
L 193.39488 151.05437 
L 193.48416 79.63162 
L 193.66272 136.68376 
L 193.93056 82.850483 
L 194.01984 91.637878 
L 194.10912 165.462252 
L 194.28768 79.207111 
L 194.37696 99.256769 
L 194.46624 88.338796 
L 194.55552 130.499323 
L 194.6448 126.369417 
L 194.73408 105.45077 
L 194.82336 132.772632 
L 194.91264 126.82766 
L 195.00192 125.333497 
L 195.0912 100.75054 
L 195.18048 118.178579 
L 195.26976 71.95231 
L 195.35904 126.6809 
L 195.62688 88.159465 
L 195.71616 119.455475 
L 195.80544 104.863931 
L 195.89472 122.32747 
L 195.984 90.55025 
L 196.07328 143.89659 
L 196.25184 84.294248 
L 196.34112 111.387578 
L 196.4304 93.067757 
L 196.60896 119.321882 
L 196.78752 96.566898 
L 196.8768 162.902679 
L 197.05536 94.52805 
L 197.23392 156.302941 
L 197.3232 103.601798 
L 197.41248 109.861831 
L 197.50176 189.169084 
L 197.59104 81.916201 
L 197.68032 132.820064 
L 197.7696 117.760671 
L 197.85888 142.203408 
L 197.94816 91.802077 
L 198.03744 135.754752 
L 198.12672 93.134896 
L 198.216 155.55999 
L 198.48384 76.518047 
L 198.57312 81.870424 
L 198.84096 96.429609 
L 198.93024 83.714171 
L 199.01952 84.927547 
L 199.19808 154.179068 
L 199.37664 90.368577 
L 199.46592 139.966491 
L 199.5552 91.335265 
L 199.64448 95.24341 
L 199.82304 115.939455 
L 199.91232 77.368383 
L 200.0016 87.952666 
L 200.09088 81.140616 
L 200.18016 161.89105 
L 200.26944 75.108759 
L 200.35872 129.12915 
L 200.448 118.086096 
L 200.53728 161.537187 
L 200.62656 98.490267 
L 200.71584 104.725166 
L 200.80512 83.82182 
L 200.8944 94.787808 
L 200.98368 73.202776 
L 201.16224 120.453923 
L 201.3408 143.325884 
L 201.43008 141.405712 
L 201.51936 143.252303 
L 201.60864 142.075868 
L 201.7872 74.046867 
L 201.96576 99.357567 
L 202.05504 71.948423 
L 202.2336 114.106967 
L 202.32288 81.202267 
L 202.41216 85.019189 
L 202.50144 102.194604 
L 202.59072 91.23563 
L 202.68 92.365599 
L 202.76928 105.119436 
L 202.85856 86.409133 
L 202.94784 110.889461 
L 203.03712 100.963031 
L 203.1264 131.280299 
L 203.21568 129.525282 
L 203.30496 130.716024 
L 203.48352 75.713396 
L 203.5728 138.879204 
L 203.66208 129.187057 
L 203.75136 124.229364 
L 203.92992 97.389356 
L 204.0192 117.541571 
L 204.10848 115.100283 
L 204.19776 118.14946 
L 204.28704 163.449432 
L 204.37632 109.327402 
L 204.4656 148.347352 
L 204.55488 74.057413 
L 204.64416 85.542354 
L 204.73344 119.932433 
L 204.82272 114.813204 
L 205.00128 149.142255 
L 205.09056 101.983115 
L 205.26912 119.922208 
L 205.3584 162.938758 
L 205.53696 94.790813 
L 205.62624 112.227563 
L 205.71552 185.914502 
L 205.89408 80.457514 
L 205.98336 84.906206 
L 206.07264 183.661787 
L 206.2512 84.148057 
L 206.34048 199.71163 
L 206.42976 130.786063 
L 206.51904 142.439791 
L 206.6976 87.17737 
L 206.78688 192.470867 
L 206.96544 110.921218 
L 207.05472 137.131569 
L 207.144 99.532152 
L 207.23328 106.092835 
L 207.41184 115.666658 
L 207.50112 90.632757 
L 207.85824 169.675859 
L 207.94752 76.104178 
L 208.12608 140.261751 
L 208.30464 103.486425 
L 208.39392 102.858476 
L 208.4832 74.881227 
L 208.57248 161.898215 
L 208.66176 120.161034 
L 208.75104 149.217858 
L 208.9296 70.203191 
L 209.01888 91.773596 
L 209.10816 150.424511 
L 209.28672 82.510914 
L 209.46528 98.063216 
L 209.55456 119.146544 
L 209.64384 78.250347 
L 209.73312 79.436183 
L 209.8224 71.465289 
L 210.00096 123.798394 
L 210.09024 86.044339 
L 210.2688 137.656082 
L 210.35808 140.318441 
L 210.53664 84.825485 
L 210.7152 97.778126 
L 210.89376 78.418502 
L 211.07232 120.244638 
L 211.1616 116.68009 
L 211.25088 141.617163 
L 211.34016 89.993198 
L 211.42944 140.391577 
L 211.51872 117.926821 
L 211.608 123.532849 
L 211.69728 80.721097 
L 211.87584 103.337174 
L 211.96512 90.758583 
L 212.0544 91.143621 
L 212.23296 131.052972 
L 212.32224 96.44958 
L 212.41152 107.516583 
L 212.5008 209.006725 
L 212.67936 91.170866 
L 212.76864 169.834714 
L 212.85792 152.043504 
L 212.9472 81.34356 
L 213.03648 95.004939 
L 213.12576 124.264061 
L 213.3936 82.311525 
L 213.48288 103.416478 
L 213.66144 72.533024 
L 213.75072 84.079009 
L 213.84 175.384187 
L 213.92928 80.724361 
L 214.01856 104.884211 
L 214.19712 79.374345 
L 214.37568 92.174949 
L 214.46496 79.598677 
L 214.55424 187.750765 
L 214.64352 85.318794 
L 214.82208 136.04311 
L 214.91136 123.957113 
L 215.00064 74.745998 
L 215.08992 82.662106 
L 215.1792 77.325969 
L 215.26848 156.267604 
L 215.44704 73.674494 
L 215.53632 97.478611 
L 215.6256 77.221607 
L 215.71488 107.652823 
L 215.80416 102.4807 
L 215.89344 95.013332 
L 216.072 137.107372 
L 216.25056 90.634874 
L 216.33984 115.661689 
L 216.42912 73.673958 
L 216.5184 80.559438 
L 216.60768 72.413607 
L 216.69696 88.665574 
L 216.78624 71.069079 
L 216.87552 122.472464 
L 217.05408 90.216403 
L 217.14336 122.898859 
L 217.32192 73.801501 
L 217.50048 117.149368 
L 217.67904 99.901816 
L 217.76832 99.006376 
L 217.8576 73.83533 
L 217.94688 118.455546 
L 218.12544 71.331447 
L 218.21472 72.069743 
L 218.304 166.795993 
L 218.57184 78.359037 
L 218.66112 117.056383 
L 218.7504 90.16968 
L 218.83968 114.313285 
L 218.92896 81.854429 
L 219.01824 83.442733 
L 219.10752 107.022718 
L 219.1968 90.358913 
L 219.28608 162.533142 
L 219.46464 77.219219 
L 219.55392 137.160593 
L 219.6432 106.02339 
L 219.73248 108.598836 
L 219.82176 115.965635 
L 219.91104 144.434939 
L 220.0896 108.488352 
L 220.17888 127.04926 
L 220.26816 77.419568 
L 220.35744 119.183663 
L 220.44672 71.674474 
L 220.536 104.256431 
L 220.62528 69.783124 
L 220.71456 128.161675 
L 220.89312 85.208871 
L 221.07168 132.945932 
L 221.25024 76.394393 
L 221.33952 104.039591 
L 221.4288 70.555843 
L 221.51808 100.177522 
L 221.60736 84.596118 
L 221.78592 93.405019 
L 221.8752 93.123356 
L 221.96448 95.854884 
L 222.14304 83.219608 
L 222.3216 174.971588 
L 222.50016 71.059743 
L 222.58944 91.848577 
L 222.67872 84.168234 
L 222.768 148.572094 
L 222.94656 75.933715 
L 223.03584 146.17164 
L 223.12512 68.187459 
L 223.2144 121.96903 
L 223.30368 101.151119 
L 223.39296 131.664223 
L 223.48224 81.633049 
L 223.57152 126.321744 
L 223.6608 90.611466 
L 223.75008 133.784732 
L 223.92864 70.937209 
L 224.01792 72.274827 
L 224.1072 81.157937 
L 224.28576 117.838213 
L 224.37504 73.456744 
L 224.5536 111.032667 
L 224.64288 70.056556 
L 224.73216 130.448581 
L 224.91072 84.143221 
L 225 92.420193 
L 225.08928 147.045789 
L 225.26784 88.053429 
L 225.35712 122.297836 
L 225.4464 92.125596 
L 225.53568 94.87815 
L 225.62496 93.455524 
L 225.71424 158.636779 
L 225.8928 73.576679 
L 225.98208 99.396272 
L 226.07136 91.718227 
L 226.16064 124.964774 
L 226.24992 78.036404 
L 226.3392 80.511198 
L 226.42848 95.528395 
L 226.51776 93.112453 
L 226.60704 166.716585 
L 226.87488 68.631518 
L 226.96416 128.388487 
L 227.14272 73.897612 
L 227.32128 112.871112 
L 227.41056 84.733995 
L 227.49984 149.729885 
L 227.6784 76.909356 
L 227.76768 83.249737 
L 227.94624 67.509612 
L 228.03552 112.370092 
L 228.1248 86.800314 
L 228.21408 94.11956 
L 228.30336 65.390517 
L 228.39264 198.576427 
L 228.48192 122.370305 
L 228.5712 178.115037 
L 228.83904 77.725822 
L 228.92832 74.668333 
L 229.0176 119.540134 
L 229.10688 106.755954 
L 229.19616 127.661095 
L 229.28544 73.408579 
L 229.464 123.322874 
L 229.73184 92.399396 
L 229.82112 122.983134 
L 229.9104 69.208862 
L 229.99968 73.776315 
L 230.17824 139.992666 
L 230.26752 122.086041 
L 230.44608 70.434619 
L 230.53536 113.067112 
L 230.62464 67.584032 
L 230.71392 126.340984 
L 230.8032 70.05315 
L 230.89248 74.412763 
L 231.16032 142.34397 
L 231.2496 87.350189 
L 231.33888 119.577804 
L 231.42816 77.326559 
L 231.51744 125.515006 
L 231.60672 83.477794 
L 231.696 86.122505 
L 231.78528 83.906687 
L 231.87456 84.016407 
L 232.1424 125.513251 
L 232.23168 71.76828 
L 232.32096 105.77657 
L 232.49952 71.288765 
L 232.5888 124.161919 
L 232.67808 112.228248 
L 232.85664 86.069323 
L 232.94592 92.413772 
L 233.0352 67.631139 
L 233.12448 92.048534 
L 233.21376 77.522404 
L 233.39232 140.938994 
L 233.4816 67.988454 
L 233.57088 86.634055 
L 233.66016 69.148463 
L 233.74944 77.018179 
L 233.83872 153.032681 
L 233.928 84.154805 
L 234.01728 90.329073 
L 234.19584 67.055906 
L 234.28512 67.119129 
L 234.3744 81.523277 
L 234.46368 75.836229 
L 234.55296 119.67329 
L 234.64224 73.07253 
L 234.73152 149.777785 
L 234.8208 81.0196 
L 234.91008 119.465879 
L 234.99936 108.943028 
L 235.08864 67.360549 
L 235.17792 68.346704 
L 235.2672 81.709157 
L 235.35648 150.275441 
L 235.53504 82.675865 
L 235.7136 66.990866 
L 235.89216 170.686914 
L 235.98144 68.902992 
L 236.07072 135.387059 
L 236.16 68.075706 
L 236.33856 111.920046 
L 236.42784 70.59696 
L 236.51712 127.438524 
L 236.78496 69.923451 
L 236.87424 107.151776 
L 236.96352 100.682701 
L 237.14208 74.025778 
L 237.32064 95.423798 
L 237.40992 92.369299 
L 237.58848 70.929584 
L 237.67776 81.327001 
L 237.76704 66.149227 
L 237.85632 147.322215 
L 238.03488 67.874938 
L 238.30272 128.623713 
L 238.57056 92.619534 
L 238.65984 126.409011 
L 238.8384 81.552437 
L 239.10624 66.615068 
L 239.19552 116.699567 
L 239.2848 103.028036 
L 239.37408 137.861483 
L 239.46336 126.512855 
L 239.64192 65.515697 
L 239.90976 149.592088 
L 240.08832 72.112624 
L 240.26688 90.125018 
L 240.35616 72.957825 
L 240.53472 117.027192 
L 240.71328 70.93196 
L 240.80256 71.103085 
L 240.89184 75.061081 
L 240.98112 67.077974 
L 241.0704 69.532717 
L 241.33824 110.070828 
L 241.42752 104.784798 
L 241.5168 67.78092 
L 241.60608 69.389295 
L 241.69536 98.255105 
L 241.78464 68.166809 
L 241.87392 123.249336 
L 242.05248 70.800984 
L 242.14176 80.179054 
L 242.23104 122.545971 
L 242.4096 93.050109 
L 242.49888 106.88876 
L 242.58816 71.211578 
L 242.856 105.231559 
L 243.03456 68.872448 
L 243.12384 92.084044 
L 243.21312 90.120921 
L 243.39168 65.53256 
L 243.48096 66.518905 
L 243.7488 109.863634 
L 243.83808 68.679846 
L 244.01664 115.288455 
L 244.10592 153.574727 
L 244.37376 78.146787 
L 244.55232 69.834326 
L 244.6416 115.463688 
L 244.82016 66.479424 
L 244.90944 92.973768 
L 244.99872 66.900945 
L 245.088 88.062843 
L 245.26656 65.886017 
L 245.44512 83.666905 
L 245.5344 94.777921 
L 245.62368 68.839445 
L 245.71296 75.481321 
L 245.80224 68.088892 
L 245.89152 93.514532 
L 245.9808 75.646542 
L 246.07008 80.577023 
L 246.15936 72.937334 
L 246.33792 95.785072 
L 246.4272 121.994808 
L 246.51648 76.66998 
L 246.60576 84.970802 
L 246.69504 73.108865 
L 246.96288 91.99032 
L 247.05216 65.021389 
L 247.23072 115.064652 
L 247.32 80.959727 
L 247.40928 93.199591 
L 247.58784 67.757152 
L 247.67712 87.362083 
L 247.94496 65.657517 
L 248.03424 67.971131 
L 248.2128 93.434408 
L 248.30208 93.364991 
L 248.39136 94.899999 
L 248.48064 66.474989 
L 248.56992 86.568773 
L 248.6592 67.436288 
L 248.74848 67.720015 
L 248.83776 65.330018 
L 248.92704 122.116468 
L 249.1056 65.601132 
L 249.19488 120.040735 
L 249.37344 74.259056 
L 249.552 136.407719 
L 249.64128 77.280055 
L 249.73056 85.102422 
L 249.81984 96.794504 
L 249.9984 71.042183 
L 250.08768 79.779761 
L 250.17696 66.036426 
L 250.26624 68.757421 
L 250.35552 68.639438 
L 250.62336 96.624361 
L 250.71264 124.403627 
L 250.8912 87.49858 
L 251.06976 66.131017 
L 251.15904 73.396553 
L 251.24832 100.326643 
L 251.42688 65.893165 
L 251.51616 66.805193 
L 251.60544 83.386582 
L 251.784 65.314976 
L 251.87328 70.70358 
L 251.96256 142.479072 
L 252.14112 70.287503 
L 252.2304 101.351998 
L 252.31968 66.303235 
L 252.49824 82.739786 
L 252.58752 89.909222 
L 252.6768 84.60571 
L 252.76608 68.021096 
L 252.85536 98.87099 
L 252.94464 71.810249 
L 253.03392 73.290121 
L 253.21248 95.009207 
L 253.30176 70.746203 
L 253.39104 116.736797 
L 253.48032 71.18335 
L 253.65888 134.297696 
L 253.74816 67.337751 
L 253.83744 99.890248 
L 254.10528 66.253698 
L 254.19456 84.915456 
L 254.4624 67.976016 
L 254.55168 72.485901 
L 254.81952 97.314855 
L 254.9088 153.179731 
L 254.99808 77.052924 
L 255.08736 85.545201 
L 255.17664 65.316891 
L 255.26592 89.927764 
L 255.44448 64.762557 
L 255.53376 66.2908 
L 255.62304 102.366027 
L 255.71232 79.152135 
L 255.8016 126.370812 
L 255.89088 67.10515 
L 255.98016 72.370138 
L 256.06944 69.522859 
L 256.15872 113.863156 
L 256.248 88.709658 
L 256.33728 117.177011 
L 256.42656 71.518064 
L 256.51584 88.059592 
L 256.60512 148.648916 
L 256.6944 85.071373 
L 256.78368 86.500012 
L 256.96224 115.192916 
L 257.05152 109.981329 
L 257.1408 71.351242 
L 257.23008 105.21683 
L 257.31936 72.977965 
L 257.40864 88.977452 
L 257.5872 64.706852 
L 257.67648 76.790505 
L 257.76576 121.635746 
L 257.94432 64.608661 
L 258.0336 83.139779 
L 258.12288 79.992586 
L 258.21216 66.464011 
L 258.30144 68.288825 
L 258.39072 66.203955 
L 258.48 92.237326 
L 258.56928 72.108712 
L 258.65856 75.980527 
L 258.74784 79.783848 
L 258.9264 65.558311 
L 259.01568 65.754522 
L 259.10496 64.836092 
L 259.19424 64.851273 
L 259.28352 65.613772 
L 259.3728 71.715977 
L 259.46208 120.790034 
L 259.64064 87.525381 
L 259.72992 110.304842 
L 259.90848 86.381652 
L 260.08704 70.775386 
L 260.17632 129.268001 
L 260.35488 67.013723 
L 260.44416 65.908241 
L 260.53344 141.411112 
L 260.89056 68.112041 
L 260.97984 118.972753 
L 261.06912 68.244352 
L 261.1584 76.803598 
L 261.24768 65.804691 
L 261.33696 67.827889 
L 261.42624 151.088783 
L 261.51552 64.234984 
L 261.6048 80.415127 
L 261.69408 79.717379 
L 261.78336 107.219 
L 261.87264 65.003759 
L 261.96192 102.373239 
L 262.0512 84.846126 
L 262.14048 91.302141 
L 262.22976 69.794866 
L 262.31904 107.076539 
L 262.40832 66.203968 
L 262.58688 99.260319 
L 262.76544 73.198981 
L 262.85472 77.961042 
L 262.944 72.962421 
L 263.12256 130.292983 
L 263.3904 68.605585 
L 263.47968 67.712283 
L 263.56896 68.320075 
L 263.65824 71.228395 
L 263.74752 66.541248 
L 263.8368 69.826552 
L 263.92608 99.906989 
L 264.01536 65.099325 
L 264.10464 87.291326 
L 264.2832 64.81781 
L 264.46176 65.166866 
L 264.64032 107.919793 
L 264.7296 68.497808 
L 264.81888 74.468529 
L 264.90816 66.018847 
L 265.08672 97.957138 
L 265.176 94.076147 
L 265.35456 67.654348 
L 265.44384 96.415822 
L 265.53312 64.531237 
L 265.6224 75.970194 
L 265.71168 67.261585 
L 265.89024 106.830002 
L 265.97952 64.519015 
L 266.0688 115.083438 
L 266.15808 100.506678 
L 266.24736 67.238255 
L 266.33664 74.388561 
L 266.5152 64.80446 
L 266.69376 66.158159 
L 266.78304 112.563472 
L 266.9616 69.079186 
L 267.05088 138.263759 
L 267.14016 64.124461 
L 267.22944 81.676606 
L 267.31872 69.650483 
L 267.408 104.226296 
L 267.58656 65.357179 
L 267.67584 67.006925 
L 267.76512 65.607541 
L 267.8544 68.367051 
L 267.94368 63.762746 
L 268.12224 96.345571 
L 268.3008 65.100897 
L 268.39008 106.140203 
L 268.47936 74.842911 
L 268.56864 80.395136 
L 268.65792 63.945127 
L 268.7472 74.220609 
L 268.92576 65.246348 
L 269.01504 65.19805 
L 269.10432 95.886729 
L 269.1936 65.636701 
L 269.28288 74.751079 
L 269.55072 64.629685 
L 269.64 74.988402 
L 269.72928 66.71298 
L 269.81856 100.336227 
L 269.90784 65.920153 
L 270.0864 80.176696 
L 270.17568 65.391923 
L 270.26496 74.505879 
L 270.5328 64.470449 
L 270.62208 66.241467 
L 270.71136 65.81828 
L 270.80064 65.617336 
L 270.88992 74.456469 
L 270.9792 102.170151 
L 271.06848 64.498749 
L 271.15776 93.371134 
L 271.33632 66.207739 
L 271.4256 88.845413 
L 271.51488 64.884713 
L 271.60416 72.266723 
L 271.69344 213.228666 
L 271.872 72.018617 
L 272.05056 64.723475 
L 272.13984 77.631339 
L 272.3184 63.851708 
L 272.40768 69.817712 
L 272.49696 64.676466 
L 272.58624 65.538428 
L 272.67552 118.47074 
L 272.7648 76.878447 
L 272.85408 86.687724 
L 272.94336 66.377104 
L 273.03264 69.8207 
L 273.12192 68.621825 
L 273.2112 75.788199 
L 273.38976 67.115797 
L 273.47904 65.706072 
L 273.56832 77.368116 
L 273.6576 66.537331 
L 273.74688 112.42254 
L 273.92544 66.957518 
L 274.01472 65.109596 
L 274.104 94.639134 
L 274.37184 63.981846 
L 274.46112 119.04286 
L 274.5504 84.639972 
L 274.63968 101.317487 
L 274.81824 69.607742 
L 274.90752 74.166615 
L 274.9968 92.135878 
L 275.08608 67.949883 
L 275.17536 68.622393 
L 275.35392 71.634022 
L 275.53248 64.04319 
L 275.62176 64.818324 
L 275.71104 64.286105 
L 275.80032 74.204519 
L 275.97888 64.684735 
L 276.06816 94.363438 
L 276.24672 64.314487 
L 276.336 77.85894 
L 276.42528 76.355581 
L 276.60384 85.046439 
L 276.69312 65.243431 
L 276.7824 68.573134 
L 276.87168 121.821822 
L 276.96096 66.3186 
L 277.05024 68.912962 
L 277.13952 111.192835 
L 277.2288 69.546419 
L 277.31808 74.825651 
L 277.40736 96.613252 
L 277.49664 64.872188 
L 277.58592 66.932876 
L 277.76448 64.446601 
L 277.85376 67.879851 
L 277.94304 67.065041 
L 278.1216 107.407806 
L 278.21088 94.658638 
L 278.30016 104.426569 
L 278.38944 74.500273 
L 278.47872 114.298161 
L 278.65728 65.454411 
L 278.74656 64.951594 
L 278.83584 102.826763 
L 279.0144 67.566504 
L 279.10368 68.459296 
L 279.19296 129.735748 
L 279.28224 64.086813 
L 279.37152 97.322942 
L 279.55008 65.673821 
L 279.63936 94.689566 
L 279.72864 63.853574 
L 279.9072 72.814558 
L 279.99648 63.791174 
L 280.17504 121.13292 
L 280.26432 64.449508 
L 280.3536 70.873707 
L 280.44288 65.521229 
L 280.53216 111.599891 
L 280.62144 64.471557 
L 280.71072 65.011389 
L 280.8 97.647822 
L 280.88928 64.335982 
L 280.97856 66.751641 
L 281.06784 78.545403 
L 281.15712 74.860342 
L 281.2464 65.417886 
L 281.33568 73.638194 
L 281.42496 67.561861 
L 281.51424 102.757389 
L 281.60352 63.987598 
L 281.6928 64.828695 
L 281.78208 70.592781 
L 281.87136 68.057541 
L 281.96064 75.501213 
L 282.1392 71.282945 
L 282.31776 64.940427 
L 282.40704 64.467415 
L 282.5856 90.910367 
L 282.67488 93.265263 
L 282.85344 63.883359 
L 282.94272 65.993319 
L 283.032 77.065854 
L 283.12128 64.973022 
L 283.21056 95.634691 
L 283.29984 64.784481 
L 283.38912 75.526079 
L 283.4784 64.976975 
L 283.56768 81.85033 
L 283.65696 74.37157 
L 283.74624 80.253477 
L 283.83552 142.297922 
L 283.9248 64.883415 
L 284.01408 96.390435 
L 284.19264 63.830623 
L 284.28192 121.157184 
L 284.3712 110.377368 
L 284.54976 63.818978 
L 284.63904 65.836065 
L 284.8176 121.951191 
L 284.90688 97.62487 
L 284.99616 105.694197 
L 285.08544 74.07554 
L 285.17472 86.808085 
L 285.264 64.850494 
L 285.35328 72.51751 
L 285.44256 65.78284 
L 285.53184 66.668725 
L 285.62112 63.836005 
L 285.7104 63.983372 
L 285.79968 78.351478 
L 285.88896 70.523838 
L 286.06752 105.137709 
L 286.1568 65.018936 
L 286.24608 66.592544 
L 286.42464 65.760177 
L 286.51392 74.160993 
L 286.6032 64.373806 
L 286.69248 64.552813 
L 286.87104 87.533529 
L 287.0496 65.341364 
L 287.13888 102.572408 
L 287.496 63.914678 
L 287.58528 70.003202 
L 287.85312 64.487328 
L 287.9424 64.173421 
L 288.12096 87.04976 
L 288.21024 65.636781 
L 288.29952 66.222228 
L 288.3888 83.622946 
L 288.56736 64.783031 
L 288.65664 64.814241 
L 288.8352 65.546094 
L 288.92448 71.803027 
L 289.01376 64.241669 
L 289.19232 80.146299 
L 289.2816 64.148983 
L 289.37088 64.320223 
L 289.46016 78.991425 
L 289.63872 63.825791 
L 289.728 63.969271 
L 289.81728 84.631044 
L 289.99584 63.829654 
L 290.08512 91.321045 
L 290.1744 63.782997 
L 290.26368 64.002657 
L 290.35296 67.750801 
L 290.44224 76.674613 
L 290.6208 63.769021 
L 290.79936 71.102141 
L 290.88864 67.130595 
L 290.97792 91.639249 
L 291.15648 63.77605 
L 291.24576 63.854869 
L 291.33504 113.630266 
L 291.5136 64.178001 
L 291.60288 92.277802 
L 291.78144 63.734461 
L 291.87072 73.219634 
L 291.96 63.831455 
L 292.04928 67.278176 
L 292.13856 76.267105 
L 292.22784 64.317371 
L 292.31712 88.144289 
L 292.4064 64.954903 
L 292.49568 65.169705 
L 292.67424 63.815204 
L 292.8528 64.479352 
L 292.94208 63.706868 
L 293.03136 63.868606 
L 293.12064 63.778274 
L 293.2992 63.866726 
L 293.38848 73.009641 
L 293.47776 152.817985 
L 293.65632 64.372465 
L 293.7456 63.769509 
L 293.83488 64.019182 
L 293.92416 68.567929 
L 294.01344 90.71055 
L 294.10272 63.799932 
L 294.192 63.848714 
L 294.37056 64.219395 
L 294.45984 63.738104 
L 294.54912 63.848512 
L 294.6384 64.620538 
L 294.72768 64.267886 
L 294.81696 95.842773 
L 294.99552 64.03037 
L 295.0848 63.957292 
L 295.17408 64.685574 
L 295.26336 64.215101 
L 295.35264 68.963111 
L 295.44192 98.201064 
L 295.5312 63.911069 
L 295.62048 65.098889 
L 295.70976 64.034896 
L 295.79904 74.888037 
L 295.9776 63.805496 
L 296.424 63.826379 
L 296.51328 63.967854 
L 296.60256 90.283514 
L 296.78112 63.747825 
L 296.8704 88.34343 
L 297.13824 63.699321 
L 297.22752 63.854096 
L 297.3168 77.966479 
L 297.40608 63.976995 
L 297.49536 100.156039 
L 297.67392 64.016369 
L 297.7632 63.75819 
L 297.85248 143.051451 
L 298.03104 64.000433 
L 298.12032 64.510717 
L 298.2096 64.249068 
L 298.29888 97.689302 
L 298.38816 74.204693 
L 298.47744 99.754936 
L 298.56672 63.942704 
L 298.656 68.255804 
L 298.74528 70.525267 
L 298.83456 63.917287 
L 298.92384 66.882386 
L 299.01312 63.778812 
L 299.19168 65.743469 
L 299.28096 63.741962 
L 299.37024 63.797013 
L 299.45952 63.717183 
L 299.5488 78.326512 
L 299.63808 63.808321 
L 299.72736 72.195584 
L 299.81664 130.911322 
L 299.9952 63.698841 
L 300.08448 68.375676 
L 300.26304 63.658855 
L 300.35232 63.813995 
L 300.4416 96.386813 
L 300.53088 63.759184 
L 300.62016 63.961379 
L 300.70944 64.422508 
L 300.79872 76.89485 
L 300.888 63.981162 
L 300.97728 65.217182 
L 301.06656 63.760397 
L 301.15584 94.473866 
L 301.3344 64.566585 
L 301.42368 63.89177 
L 301.51296 73.514333 
L 301.60224 63.762635 
L 301.69152 71.384273 
L 301.7808 63.839659 
L 301.87008 64.6089 
L 301.95936 66.471801 
L 302.04864 84.505964 
L 302.13792 78.293939 
L 302.31648 63.741753 
L 302.40576 64.347071 
L 302.49504 119.864936 
L 302.58432 63.793139 
L 302.6736 116.718029 
L 302.76288 63.775406 
L 302.85216 63.848375 
L 303.12 64.01244 
L 303.20928 64.166383 
L 303.29856 63.854066 
L 303.38784 69.311364 
L 303.47712 88.811223 
L 303.65568 63.829342 
L 303.74496 63.775345 
L 304.0128 74.914331 
L 304.10208 72.460751 
L 304.28064 63.765662 
L 304.4592 63.748909 
L 304.54848 80.380083 
L 304.72704 66.660076 
L 304.81632 111.162229 
L 304.9056 64.022306 
L 304.99488 64.45141 
L 305.08416 63.730277 
L 305.26272 64.431558 
L 305.352 103.280066 
L 305.44128 66.36745 
L 305.53056 67.957443 
L 305.61984 63.77023 
L 305.70912 63.860998 
L 305.88768 63.843636 
L 305.97696 71.431936 
L 306.06624 63.797145 
L 306.15552 63.875167 
L 306.2448 64.005122 
L 306.33408 64.529046 
L 306.42336 63.864914 
L 306.51264 115.300757 
L 306.60192 63.726896 
L 306.6912 120.330257 
L 306.86976 63.866996 
L 306.95904 63.70016 
L 307.04832 67.043894 
L 307.1376 63.726169 
L 307.31616 95.510507 
L 307.40544 63.71753 
L 307.49472 98.878203 
L 307.67328 64.41521 
L 307.76256 63.882164 
L 307.85184 64.082388 
L 307.94112 63.780594 
L 308.0304 63.821603 
L 308.11968 63.691579 
L 308.20896 63.905574 
L 308.29824 79.811586 
L 308.4768 63.696892 
L 308.56608 63.685184 
L 308.65536 67.334333 
L 308.74464 82.37713 
L 308.83392 63.807355 
L 308.9232 66.816435 
L 309.01248 66.9414 
L 309.10176 63.730651 
L 309.19104 63.824493 
L 309.28032 71.784695 
L 309.3696 120.500724 
L 309.45888 63.909004 
L 309.54816 93.544421 
L 309.72672 63.796111 
L 309.816 81.373916 
L 309.99456 63.907645 
L 310.08384 121.320192 
L 310.17312 64.836684 
L 310.2624 114.321442 
L 310.35168 102.709284 
L 310.44096 63.708124 
L 310.53024 63.787835 
L 310.61952 63.740327 
L 310.7088 92.077802 
L 310.79808 63.854803 
L 310.88736 64.058981 
L 310.97664 123.132857 
L 311.1552 63.781846 
L 311.24448 63.842018 
L 311.33376 132.188228 
L 311.42304 64.815013 
L 311.51232 103.373718 
L 311.6016 63.938224 
L 311.69088 64.193054 
L 311.86944 63.79024 
L 312.22656 63.703326 
L 312.31584 64.523677 
L 312.40512 63.786065 
L 312.4944 63.810896 
L 312.58368 63.969962 
L 312.67296 63.799329 
L 312.76224 84.257681 
L 312.9408 63.869684 
L 313.03008 64.345917 
L 313.11936 78.672482 
L 313.29792 63.762807 
L 313.3872 63.805327 
L 313.47648 125.17573 
L 313.65504 63.687838 
L 313.74432 63.950575 
L 313.92288 70.233948 
L 314.01216 63.778394 
L 314.10144 68.076213 
L 314.19072 63.751842 
L 314.28 64.492303 
L 314.36928 63.713899 
L 314.45856 63.872275 
L 314.54784 66.45736 
L 314.7264 63.828573 
L 314.90496 63.778467 
L 315.08352 65.148026 
L 315.1728 64.023781 
L 315.26208 66.0301 
L 315.35136 63.721239 
L 315.44064 108.950068 
L 315.6192 63.725818 
L 315.88704 63.831438 
L 316.0656 63.829346 
L 316.15488 67.209936 
L 316.24416 85.695932 
L 316.42272 63.775002 
L 316.512 63.648 
L 316.69056 71.838914 
L 316.86912 63.736563 
L 316.9584 77.769439 
L 317.13696 64.086619 
L 317.22624 64.97453 
L 317.4048 63.745769 
L 317.58336 63.765479 
L 317.67264 64.228221 
L 317.8512 63.782755 
L 318.02976 63.898132 
L 318.11904 65.556265 
L 318.20832 63.799087 
L 318.2976 77.750062 
L 318.47616 63.749273 
L 318.56544 97.133159 
L 318.65472 63.70875 
L 318.744 63.739852 
L 318.83328 63.816069 
L 318.92256 64.146958 
L 319.01184 64.949655 
L 319.10112 89.716552 
L 319.1904 63.673834 
L 319.27968 63.813293 
L 319.36896 64.311668 
L 319.45824 63.730794 
L 319.54752 63.850778 
L 319.81536 63.732312 
L 319.90464 63.882373 
L 319.99392 63.725328 
L 320.26176 63.915166 
L 320.35104 63.85629 
L 320.44032 64.954455 
L 320.61888 63.879501 
L 320.79744 63.780092 
L 320.88672 63.722923 
L 320.976 64.228816 
L 321.15456 63.765511 
L 321.24384 63.769298 
L 321.33312 63.892975 
L 321.4224 63.790825 
L 321.51168 77.976377 
L 321.60096 63.740013 
L 321.69024 63.755931 
L 321.77952 65.024577 
L 321.95808 63.720347 
L 322.04736 64.085962 
L 322.13664 63.758627 
L 322.22592 64.134987 
L 322.40448 63.798347 
L 322.49376 63.77011 
L 322.58304 64.073196 
L 322.7616 63.725222 
L 322.85088 64.053355 
L 323.02944 63.695608 
L 323.11872 63.760508 
L 323.208 64.307364 
L 323.38656 63.737393 
L 323.47584 63.863519 
L 323.6544 63.747721 
L 323.92224 63.852804 
L 324.01152 73.356003 
L 324.1008 66.797809 
L 324.19008 97.715777 
L 324.36864 63.698217 
L 324.45792 63.911594 
L 324.5472 68.078071 
L 324.63648 63.770934 
L 324.72576 63.814421 
L 324.81504 76.962101 
L 324.90432 63.758937 
L 324.9936 80.1252 
L 325.17216 63.740426 
L 325.26144 73.488847 
L 325.44 63.857069 
L 325.52928 63.905479 
L 325.70784 63.767736 
L 325.79712 64.541183 
L 325.8864 63.80494 
L 325.97568 63.993032 
L 326.15424 72.930665 
L 326.24352 63.752646 
L 326.3328 63.962107 
L 326.42208 64.172488 
L 326.51136 142.827138 
L 326.68992 63.744897 
L 326.7792 63.7679 
L 326.86848 129.317521 
L 326.95776 63.716544 
L 327.04704 113.976202 
L 327.2256 63.710913 
L 327.31488 74.992331 
L 327.40416 63.738621 
L 327.49344 63.915375 
L 327.58272 65.291606 
L 327.672 63.765746 
L 327.76128 76.488535 
L 327.85056 63.865098 
L 327.93984 64.292857 
L 328.02912 65.282424 
L 328.1184 69.594284 
L 328.29696 63.788972 
L 328.38624 63.797583 
L 328.47552 64.490083 
L 328.65408 63.708203 
L 328.92192 63.830011 
L 329.0112 63.726124 
L 329.18976 63.906349 
L 329.36832 63.761979 
L 329.54688 63.789304 
L 329.63616 63.866697 
L 329.72544 70.776578 
L 329.81472 63.784157 
L 329.904 63.831369 
L 330.26112 63.770454 
L 330.3504 115.794376 
L 330.43968 63.69468 
L 330.52896 63.715104 
L 330.70752 63.763506 
L 330.7968 64.63177 
L 330.97536 63.748351 
L 331.15392 63.856176 
L 331.2432 63.714874 
L 331.33248 63.784643 
L 331.42176 94.940234 
L 331.51104 63.843246 
L 331.60032 63.848848 
L 331.77888 64.046237 
L 331.86816 64.031336 
L 331.95744 64.245416 
L 332.04672 63.790317 
L 332.136 63.832816 
L 332.40384 63.777358 
L 332.5824 64.418289 
L 332.67168 63.786611 
L 332.76096 63.823391 
L 332.85024 63.840096 
L 332.93952 63.726005 
L 333.0288 63.818744 
L 333.11808 63.743475 
L 333.20736 63.880805 
L 333.38592 63.691818 
L 333.4752 63.83014 
L 333.56448 63.733262 
L 333.65376 131.127215 
L 333.83232 63.727166 
L 334.10016 63.939538 
L 334.27872 63.766737 
L 334.54656 63.882587 
L 334.63584 63.894148 
L 334.72512 64.041178 
L 334.90368 63.805925 
L 335.08224 63.838534 
L 335.17152 63.83065 
L 335.2608 64.77729 
L 335.35008 63.774767 
L 335.43936 63.936251 
L 335.61792 63.762086 
L 335.7072 63.938289 
L 335.79648 63.880466 
L 335.97504 63.759432 
L 336.06432 67.554179 
L 336.1536 63.685674 
L 336.24288 63.787909 
L 336.33216 63.689641 
L 336.6 63.886107 
L 336.68928 63.736088 
L 336.86784 63.846002 
L 337.0464 63.691043 
L 337.22496 63.750722 
L 337.31424 63.983899 
L 337.4928 63.866065 
L 337.76064 63.723833 
L 338.02848 63.892275 
L 338.11776 63.78045 
L 338.20704 66.540323 
L 338.29632 63.75308 
L 338.3856 63.757962 
L 338.65344 63.949541 
L 338.832 63.814872 
L 339.54624 63.688859 
L 339.63552 64.021926 
L 339.81408 63.769893 
L 339.90336 93.678833 
L 340.08192 63.836562 
L 340.26048 63.692865 
L 340.43904 64.537172 
L 340.52832 63.777051 
L 340.6176 63.888461 
L 340.79616 63.766608 
L 340.88544 79.295858 
L 340.97472 63.843539 
L 341.064 64.117857 
L 341.24256 63.718327 
L 341.33184 63.999196 
L 341.42112 63.943768 
L 341.5104 63.898362 
L 341.59968 64.403135 
L 341.77824 63.855581 
L 341.86752 63.825153 
L 341.9568 63.933611 
L 342.13536 63.698039 
L 342.22464 63.892574 
L 342.4032 63.728063 
L 342.58176 63.804962 
L 342.67104 63.752145 
L 342.76032 63.830749 
L 342.8496 63.691709 
L 343.02816 63.800807 
L 343.20672 63.714859 
L 343.296 63.989043 
L 343.38528 63.755402 
L 343.47456 63.91853 
L 343.56384 64.489938 
L 343.7424 63.757114 
L 343.92096 63.796701 
L 344.01024 64.007516 
L 344.09952 63.80145 
L 344.1888 64.388728 
L 344.45664 63.806932 
L 344.6352 63.804612 
L 344.81376 63.756221 
L 344.90304 64.010026 
L 344.99232 63.726114 
L 345.0816 63.83546 
L 345.17088 63.717518 
L 345.26016 98.523453 
L 345.43872 63.776745 
L 345.528 101.441546 
L 345.61728 63.892043 
L 345.70656 63.892656 
L 345.79584 63.842753 
L 345.88512 64.805572 
L 346.06368 63.763681 
L 346.15296 64.821858 
L 346.33152 63.866601 
L 346.51008 63.727303 
L 346.59936 64.04035 
L 346.77792 63.832075 
L 346.95648 63.767584 
L 347.04576 63.860783 
L 347.13504 63.755687 
L 347.22432 63.905777 
L 347.3136 63.782912 
L 347.40288 63.849661 
L 347.49216 64.120264 
L 347.58144 63.807692 
L 347.76 63.989275 
L 347.93856 63.760834 
L 348.02784 63.883325 
L 348.11712 63.697357 
L 348.2064 63.790981 
L 348.38496 63.745413 
L 348.47424 63.770381 
L 348.56352 63.926962 
L 348.74208 63.773233 
L 348.83136 66.09763 
L 349.00992 63.810717 
L 349.0992 63.781842 
L 349.27776 63.931983 
L 349.45632 63.723191 
L 349.72416 63.839792 
L 349.81344 63.692066 
L 349.90272 63.799263 
L 349.992 63.717478 
L 350.17056 63.813058 
L 350.61696 63.723813 
L 350.70624 64.028251 
L 350.8848 63.775671 
L 350.97408 63.727302 
L 351.06336 63.945524 
L 351.15264 63.771063 
L 351.3312 63.83972 
L 351.42048 63.836843 
L 351.50976 64.07732 
L 351.59904 63.781507 
L 351.68832 63.816695 
L 351.7776 91.943529 
L 351.95616 63.869675 
L 352.13472 63.792463 
L 352.224 63.886191 
L 352.40256 63.762152 
L 352.75968 63.761742 
L 352.93824 63.915212 
L 353.02752 63.756288 
L 353.1168 63.882605 
L 353.20608 63.662864 
L 353.29536 63.725732 
L 353.38464 63.933051 
L 353.47392 63.737313 
L 353.5632 63.914612 
L 353.65248 63.724885 
L 353.74176 63.922375 
L 353.83104 63.8775 
L 354.27744 63.855857 
L 354.36672 63.925371 
L 354.456 82.033173 
L 354.54528 63.735022 
L 354.63456 63.748829 
L 354.81312 63.808993 
L 355.08096 63.710555 
L 355.7952 63.775965 
L 355.88448 63.687754 
L 355.97376 63.897589 
L 356.06304 63.774306 
L 356.15232 63.871304 
L 356.2416 64.16163 
L 356.33088 65.418822 
L 356.50944 63.746593 
L 356.688 63.754705 
L 356.77728 63.73318 
L 356.86656 63.986953 
L 356.95584 66.919822 
L 357.04512 63.732695 
L 357.1344 63.752661 
L 357.22368 63.729989 
L 357.31296 63.850394 
L 357.49152 63.731541 
L 357.5808 63.818538 
L 357.75936 63.700965 
L 358.29504 63.922747 
L 358.4736 63.772406 
L 358.56288 78.183627 
L 358.74144 63.709048 
L 358.83072 63.810564 
L 358.92 65.386771 
L 359.09856 63.752719 
L 359.18784 63.9496 
L 359.3664 63.786226 
L 359.45568 63.851585 
L 359.54496 159.071773 
L 359.63424 63.739957 
L 359.72352 63.913431 
L 359.8128 63.884274 
L 359.90208 65.325584 
L 359.99136 63.883731 
L 360.08064 64.486917 
L 360.16992 63.79116 
L 360.2592 63.847335 
L 360.34848 63.767729 
L 360.43776 63.884842 
L 360.61632 63.733715 
L 360.79488 63.95052 
L 360.97344 63.757998 
L 361.33056 64.019725 
L 361.41984 63.810047 
L 361.50912 63.882244 
L 361.68768 63.800189 
L 361.77696 63.767233 
L 361.86624 63.858974 
L 362.0448 63.750495 
L 362.4912 63.795484 
L 362.58048 63.955816 
L 362.66976 90.512087 
L 362.75904 63.860169 
L 362.84832 64.128751 
L 363.02688 63.769354 
L 363.11616 64.124223 
L 363.20544 63.776146 
L 363.29472 63.80731 
L 363.384 63.857497 
L 363.56256 63.745359 
L 363.65184 63.952149 
L 363.74112 63.733554 
L 363.91968 63.900656 
L 364.00896 63.787313 
L 364.09824 63.878458 
L 364.18752 63.797387 
L 364.2768 64.119266 
L 364.45536 63.746946 
L 364.63392 63.758564 
L 364.7232 63.831949 
L 364.81248 63.758927 
L 364.99104 63.846857 
L 365.08032 63.715454 
L 365.25888 63.80546 
L 365.43744 63.8251 
L 365.616 64.045095 
L 365.79456 63.782779 
L 365.88384 63.897339 
L 366.0624 63.809388 
L 366.15168 63.986869 
L 366.33024 63.852399 
L 366.41952 64.124904 
L 366.5088 63.815043 
L 366.59808 63.947227 
L 366.77664 63.822122 
L 366.86592 63.733738 
L 367.04448 63.764617 
L 367.22304 63.757304 
L 367.66944 63.842907 
L 367.848 63.776978 
L 367.93728 63.956438 
L 368.11584 63.779825 
L 368.2944 63.849839 
L 368.38368 63.889159 
L 368.56224 63.854606 
L 368.7408 63.789532 
L 368.83008 63.881981 
L 369.09792 63.743051 
L 369.36576 63.844222 
L 369.45504 63.798751 
L 369.54432 63.923629 
L 369.72288 63.751476 
L 369.99072 63.856686 
L 370.25856 63.807857 
L 370.34784 63.963688 
L 370.43712 73.830271 
L 370.61568 63.754657 
L 370.70496 63.857248 
L 370.88352 63.826605 
L 370.9728 119.3111 
L 371.06208 63.784183 
L 371.15136 63.876071 
L 371.32992 63.762009 
L 371.95488 63.82906 
L 372.13344 63.762473 
L 372.22272 64.068604 
L 372.312 63.796341 
L 372.40128 63.837323 
L 372.66912 63.732921 
L 372.7584 63.859168 
L 372.93696 63.742918 
L 373.02624 63.896525 
L 373.2048 63.78395 
L 373.47264 63.855313 
L 373.74048 63.786512 
L 374.00832 63.779137 
L 374.0976 63.846917 
L 374.27616 63.762716 
L 374.36544 64.001861 
L 374.63328 63.759437 
L 374.81184 63.899212 
L 374.9904 63.78296 
L 375.16896 63.7701 
L 375.25824 63.731105 
L 375.4368 63.804959 
L 375.52608 65.440413 
L 375.70464 63.751475 
L 375.8832 63.798373 
L 376.06176 63.699739 
L 376.15104 63.882967 
L 376.3296 63.7815 
L 376.41888 63.877502 
L 376.50816 63.769808 
L 376.68672 63.973976 
L 376.86528 63.742599 
L 377.04384 63.898498 
L 377.2224 63.831721 
L 377.31168 63.851462 
L 377.40096 125.849963 
L 377.57952 63.728049 
L 377.75808 63.792062 
L 378.02592 63.810085 
L 378.1152 63.95089 
L 378.38304 63.707733 
L 378.5616 63.807793 
L 379.18656 63.763311 
L 379.36512 63.775687 
L 379.4544 66.069206 
L 379.63296 63.784146 
L 379.72224 63.904304 
L 379.9008 63.799406 
L 380.3472 63.865902 
L 380.43648 64.066294 
L 380.61504 63.918136 
L 381.06144 63.85161 
L 381.24 63.79448 
L 381.50784 63.764006 
L 381.59712 63.755969 
L 381.6864 89.49419 
L 381.86496 63.736285 
L 381.95424 63.74337 
L 382.04352 134.320071 
L 382.22208 63.752443 
L 382.31136 64.084277 
L 382.40064 63.739542 
L 382.48992 63.839131 
L 382.66848 63.756946 
L 382.75776 63.72283 
L 382.93632 63.848337 
L 383.20416 63.777255 
L 383.38272 63.88843 
L 383.472 63.784533 
L 383.56128 63.923161 
L 383.73984 63.851498 
L 384.00768 63.748567 
L 384.09696 66.996519 
L 384.18624 63.769807 
L 384.27552 63.795497 
L 384.63264 63.826842 
L 384.72192 64.003429 
L 384.8112 63.795757 
L 384.90048 63.940565 
L 384.98976 63.741287 
L 385.07904 63.978199 
L 385.2576 63.787451 
L 385.34688 63.765858 
L 385.43616 128.652554 
L 385.52544 63.818014 
L 385.61472 64.105518 
L 385.704 78.409268 
L 385.79328 63.748739 
L 385.88256 70.823815 
L 385.97184 63.793418 
L 386.06112 63.819825 
L 386.1504 64.065802 
L 386.23968 63.759029 
L 386.32896 64.073035 
L 386.41824 63.752619 
L 386.50752 63.791185 
L 386.5968 63.96287 
L 386.68608 63.707783 
L 386.77536 63.80971 
L 386.86464 65.022249 
L 386.95392 63.792683 
L 387.0432 63.805885 
L 387.22176 63.752302 
L 387.31104 65.592948 
L 387.4896 63.805362 
L 387.66816 64.031418 
L 387.84672 63.770318 
L 388.65024 63.808823 
L 388.73952 64.148469 
L 388.91808 63.832109 
L 389.00736 95.691586 
L 389.18592 63.760606 
L 389.45376 63.900447 
L 389.63232 63.740442 
L 389.7216 64.104189 
L 389.81088 63.741189 
L 389.90016 63.842904 
L 389.98944 64.841752 
L 390.168 63.835128 
L 390.34656 63.71286 
L 390.52512 63.767058 
L 390.70368 63.876497 
L 390.79296 68.223848 
L 390.97152 63.798301 
L 391.23936 63.872602 
L 391.41792 63.754536 
L 391.5072 63.731054 
L 391.59648 63.89785 
L 391.68576 63.720263 
L 391.77504 63.789057 
L 391.86432 63.94134 
L 391.9536 63.792312 
L 392.04288 63.852912 
L 392.31072 63.785584 
L 392.57856 63.788938 
L 392.66784 74.024657 
L 392.8464 63.833873 
L 393.11424 63.940199 
L 393.20352 63.806753 
L 393.2928 63.868761 
L 393.38208 63.885285 
L 393.56064 63.799075 
L 393.64992 63.908317 
L 393.82848 63.750914 
L 394.00704 63.854985 
L 394.09632 69.095467 
L 394.27488 63.902407 
L 394.89984 63.869614 
L 394.98912 63.976891 
L 395.0784 66.175636 
L 395.16768 63.736898 
L 395.25696 63.751244 
L 396.14976 63.949237 
L 396.32832 63.805024 
L 396.4176 63.870263 
L 396.50688 63.77894 
L 396.68544 63.905143 
L 396.77472 63.82785 
L 396.864 63.996001 
L 397.04256 63.685459 
L 397.22112 63.905527 
L 397.48896 63.748985 
L 397.57824 63.730743 
L 397.66752 63.859033 
L 397.7568 63.779473 
L 397.84608 63.920919 
L 397.93536 63.707281 
L 398.11392 63.780656 
L 398.29248 63.788 
L 398.38176 63.910273 
L 398.56032 63.760115 
L 398.6496 63.898576 
L 398.73888 63.831829 
L 398.82816 63.92626 
L 399.096 63.71306 
L 399.18528 63.931804 
L 399.27456 63.76294 
L 399.45312 63.849092 
L 399.5424 63.787596 
L 399.63168 63.931613 
L 399.72096 63.783216 
L 399.81024 95.54985 
L 399.89952 63.871226 
L 399.9888 63.918591 
L 400.25664 63.806103 
L 400.34592 63.874905 
L 400.4352 63.755672 
L 400.79232 64.154232 
L 400.8816 63.784703 
L 401.06016 63.901659 
L 401.23872 63.962471 
L 401.328 72.710814 
L 401.50656 63.797832 
L 402.2208 63.800265 
L 402.31008 63.747905 
L 402.48864 64.003669 
L 402.57792 63.691021 
L 402.6672 63.952001 
L 402.75648 63.910925 
L 403.02432 63.704342 
L 403.20288 63.817297 
L 403.29216 63.778601 
L 403.47072 63.83329 
L 404.36352 63.761602 
L 404.54208 63.920946 
L 404.72064 63.758922 
L 404.98848 63.79947 
L 405.07776 63.80124 
L 405.16704 67.96861 
L 405.3456 63.740432 
L 405.70272 63.838938 
L 405.88128 63.756759 
L 405.97056 63.828324 
L 406.05984 64.426434 
L 406.2384 63.835091 
L 406.32768 63.749833 
L 406.41696 64.305909 
L 406.50624 63.741789 
L 406.59552 63.841682 
L 406.77408 63.835212 
L 406.86336 63.894976 
L 406.95264 63.776773 
L 407.1312 63.841228 
L 407.22048 63.711279 
L 407.39904 63.99445 
L 407.48832 63.900203 
L 407.66688 63.736089 
L 407.93472 63.864342 
L 408.024 63.736469 
L 408.11328 91.21336 
L 408.29184 63.788265 
L 408.38112 63.693215 
L 408.4704 63.963101 
L 408.55968 63.766101 
L 408.64896 65.375104 
L 408.73824 63.778263 
L 408.82752 63.832626 
L 408.9168 63.830469 
L 409.00608 63.709762 
L 409.27392 63.836828 
L 409.45248 63.747335 
L 409.54176 64.053131 
L 409.8096 63.731644 
L 409.98816 63.8549 
L 410.07744 98.453117 
L 410.16672 63.739352 
L 410.256 63.758374 
L 410.43456 63.984424 
L 410.61312 63.755386 
L 410.7024 63.756223 
L 410.79168 63.913381 
L 411.1488 63.712297 
L 411.23808 63.938604 
L 411.41664 63.797074 
L 411.68448 63.883086 
L 411.86304 63.771704 
L 412.0416 63.742873 
L 412.66656 63.875851 
L 412.75584 63.73554 
L 412.84512 63.952048 
L 413.02368 63.811243 
L 413.11296 63.789811 
L 413.20224 101.267634 
L 413.29152 63.772621 
L 413.3808 63.822904 
L 413.55936 63.841607 
L 413.73792 63.788415 
L 413.8272 63.979394 
L 414.00576 63.808154 
L 414.09504 63.69497 
L 414.2736 63.768454 
L 414.36288 63.690301 
L 414.45216 63.859598 
L 414.54144 108.392221 
L 414.63072 63.824021 
L 414.63072 63.824021 
" style="fill:none;stroke:#0000ff;stroke-linecap:square;stroke-width:1.5;"/>
   </g>
   <g id="patch_3">
    <path d="M 57.6 307.584 
L 57.6 41.472 
" style="fill:none;stroke:#000000;stroke-linecap:square;stroke-linejoin:miter;stroke-width:0.8;"/>
   </g>
   <g id="patch_4">
    <path d="M 414.72 307.584 
L 414.72 41.472 
" style="fill:none;stroke:#000000;stroke-linecap:square;stroke-linejoin:miter;stroke-width:0.8;"/>
   </g>
   <g id="patch_5">
    <path d="M 57.6 307.584 
L 414.72 307.584 
" style="fill:none;stroke:#000000;stroke-linecap:square;stroke-linejoin:miter;stroke-width:0.8;"/>
   </g>
   <g id="patch_6">
    <path d="M 57.6 41.472 
L 414.72 41.472 
" style="fill:none;stroke:#000000;stroke-linecap:square;stroke-linejoin:miter;stroke-width:0.8;"/>
   </g>
   <g id="legend_1">
    <g id="patch_7">
     <path d="M 202.8825 299.584 
L 403.52 299.584 
Q 406.72 299.584 406.72 296.384 
L 406.72 274.499 
Q 406.72 271.299 403.52 271.299 
L 202.8825 271.299 
Q 199.6825 271.299 199.6825 274.499 
L 199.6825 296.384 
Q 199.6825 299.584 202.8825 299.584 
z
" style="fill:#ffffff;opacity:0.8;stroke:#cccccc;stroke-linejoin:miter;"/>
    </g>
    <g id="line2d_24">
     <path d="M 206.0825 284.2565 
L 238.0825 284.2565 
" style="fill:none;stroke:#0000ff;stroke-linecap:square;stroke-width:1.5;"/>
    </g>
    <g id="line2d_25"/>
    <g id="text_15">
     <!-- cumulative reward -->
     <g transform="translate(250.8825 289.8565)scale(0.16 -0.16)">
      <defs>
       <path d="M 3122 3366 
L 3122 2828 
Q 2878 2963 2633 3030 
Q 2388 3097 2138 3097 
Q 1578 3097 1268 2742 
Q 959 2388 959 1747 
Q 959 1106 1268 751 
Q 1578 397 2138 397 
Q 2388 397 2633 464 
Q 2878 531 3122 666 
L 3122 134 
Q 2881 22 2623 -34 
Q 2366 -91 2075 -91 
Q 1284 -91 818 406 
Q 353 903 353 1747 
Q 353 2603 823 3093 
Q 1294 3584 2113 3584 
Q 2378 3584 2631 3529 
Q 2884 3475 3122 3366 
z
" id="DejaVuSans-63" transform="scale(0.015625)"/>
      </defs>
      <use xlink:href="#DejaVuSans-63"/>
      <use x="54.980469" xlink:href="#DejaVuSans-75"/>
      <use x="118.359375" xlink:href="#DejaVuSans-6d"/>
      <use x="215.771484" xlink:href="#DejaVuSans-75"/>
      <use x="279.150391" xlink:href="#DejaVuSans-6c"/>
      <use x="306.933594" xlink:href="#DejaVuSans-61"/>
      <use x="368.212891" xlink:href="#DejaVuSans-74"/>
      <use x="407.421875" xlink:href="#DejaVuSans-69"/>
      <use x="435.205078" xlink:href="#DejaVuSans-76"/>
      <use x="494.384766" xlink:href="#DejaVuSans-65"/>
      <use x="555.908203" xlink:href="#DejaVuSans-20"/>
      <use x="587.695312" xlink:href="#DejaVuSans-72"/>
      <use x="626.558594" xlink:href="#DejaVuSans-65"/>
      <use x="688.082031" xlink:href="#DejaVuSans-77"/>
      <use x="769.869141" xlink:href="#DejaVuSans-61"/>
      <use x="831.148438" xlink:href="#DejaVuSans-72"/>
      <use x="870.511719" xlink:href="#DejaVuSans-64"/>
     </g>
    </g>
   </g>
  </g>
 </g>
 <defs>
  <clipPath id="pa37d5b6171">
   <rect height="266.112" width="357.12" x="57.6" y="41.472"/>
  </clipPath>
 </defs>
</svg>
