<?xml version="1.0" encoding="utf-8" standalone="no"?>
<!DOCTYPE svg PUBLIC "-//W3C//DTD SVG 1.1//EN"
  "http://www.w3.org/Graphics/SVG/1.1/DTD/svg11.dtd">
<svg xmlns:xlink="http://www.w3.org/1999/xlink" width="460.8pt" height="345.6pt" viewBox="0 0 460.8 345.6" xmlns="http://www.w3.org/2000/svg" version="1.1">
 <metadata>
  <rdf:RDF xmlns:dc="http://purl.org/dc/elements/1.1/" xmlns:cc="http://creativecommons.org/ns#" xmlns:rdf="http://www.w3.org/1999/02/22-rdf-syntax-ns#">
   <cc:Work>
    <dc:type rdf:resource="http://purl.org/dc/dcmitype/StillImage"/>
    <dc:date>2022-03-17T19:00:21.846280</dc:date>
    <dc:description>{"agent.algorithm": "RayProximalPolicyOptimization", "agent.algorithm.render_env": false, "agent.algorithm.num_workers": 0, "agent.algorithm.batch_mode": "complete_episodes", "agent.algorithm.lr": 5e-05, "agent.algorithm.train_batch_size": 200, "agent.algorithm.optimizer": "Adam", "agent.algorithm.vf_clip_param": 10, "agent.algorithm.model": {"fcnet_activation": "relu", "fcnet_hiddens": [50, 50]}, "env.env_class": "SchedulerPolicyMultiRayEnvironment", "env.env_config": {"solver_driver": "DEdriver", "solver_driver_args": [[10, 10, 12, "best1bin", "uniform"], [10, 10, 11, "best1bin", "uniform"], [10, 10, 2, "best1bin", "uniform"], [10, 10, 23, "best1bin", "uniform"], [10, 10, 15, "best1bin", "uniform"], [10, 10, 8, "best1bin", "uniform"], [10, 10, 17, "best1bin", "uniform"], [10, 10, 20, "best1bin", "uniform"], [10, 10, 1, "best1bin", "uniform"], [10, 10, 16, "best1bin", "uniform"], [5, 10, 6, "best1bin", "uniform"], [10, 10, 6, "best1bin", "uniform"], [20, 10, 6, "best1bin", "uniform"], [5, 10, 4, "best1bin", "uniform"], [10, 10, 4, "best1bin", "uniform"], [20, 10, 4, "best1bin", "uniform"], [5, 10, 19, "best1bin", "uniform"], [10, 10, 19, "best1bin", "uniform"], [20, 10, 19, "best1bin", "uniform"], [5, 10, 14, "best1bin", "uniform"], [10, 10, 14, "best1bin", "uniform"], [20, 10, 14, "best1bin", "uniform"], [5, 10, 5, "best1bin", "uniform"], [10, 10, 5, "best1bin", "uniform"], [20, 10, 5, "best1bin", "uniform"], [5, 10, 13, "best1bin", "uniform"], [10, 10, 13, "best1bin", "uniform"], [20, 10, 13, "best1bin", "uniform"], [5, 10, 7, "best1bin", "uniform"], [10, 10, 7, "best1bin", "uniform"], [20, 10, 7, "best1bin", "uniform"], [5, 10, 9, "best1bin", "uniform"], [10, 10, 9, "best1bin", "uniform"], [20, 10, 9, "best1bin", "uniform"], [5, 10, 18, "best1bin", "uniform"], [10, 10, 18, "best1bin", "uniform"], [20, 10, 18, "best1bin", "uniform"], [5, 10, 24, "best1bin", "uniform"], [10, 10, 24, "best1bin", "uniform"], [20, 10, 24, "best1bin", "uniform"], [5, 10, 21, "best1bin", "uniform"], [10, 10, 21, "best1bin", "uniform"], [20, 10, 21, "best1bin", "uniform"], [5, 10, 22, "best1bin", "uniform"], [10, 10, 22, "best1bin", "uniform"], [20, 10, 22, "best1bin", "uniform"]], "maximize": false, "steps": 50, "state_metrics_names": ["DifferenceOfBest", "DeltaFitPop", "DeltaX", "DeltaX", "SolverStateHistory"], "state_metrics_config": [[40, false, 1, true, false], [40, false], [40, false, true], [40, false, false], [{"F_min": {"max": [2], "min": [0]}, "F_max": {"max": [2], "min": [0]}, "CR_min": {"max": [1], "min": [0]}, "CR_max": {"max": [1], "min": [0]}}, 40]], "reward_metric": "DeltaBest", "reward_metric_config": [false, true, true], "memes_no": 1, "action_space_config": {"F_min": {"max": 2, "min": 0}, "F_max": {"max": 2, "min": 0}, "CR_min": {"max": 1, "min": 0}, "CR_max": {"max": 1, "min": 0}}}}</dc:description>
    <dc:format>image/svg+xml</dc:format>
    <dc:creator>
     <cc:Agent>
      <dc:title>Matplotlib v3.5.0, https://matplotlib.org/</dc:title>
     </cc:Agent>
    </dc:creator>
   </cc:Work>
  </rdf:RDF>
 </metadata>
 <defs>
  <style type="text/css">*{stroke-linejoin: round; stroke-linecap: butt}</style>
 </defs>
 <g id="figure_1">
  <g id="patch_1">
   <path d="M 0 345.6 
L 460.8 345.6 
L 460.8 0 
L 0 0 
z
" style="fill: #ffffff"/>
  </g>
  <g id="axes_1">
   <g id="patch_2">
    <path d="M 57.6 307.584 
L 414.72 307.584 
L 414.72 41.472 
L 57.6 41.472 
z
" style="fill: #ffffff"/>
   </g>
   <g id="matplotlib.axis_1">
    <g id="xtick_1">
     <g id="line2d_1">
      <path d="M 57.6 307.584 
L 57.6 41.472 
" clip-path="url(#pa118b2e45f)" style="fill: none; stroke: #b0b0b0; stroke-width: 0.8; stroke-linecap: square"/>
     </g>
     <g id="line2d_2">
      <defs>
       <path id="md348a1b499" d="M 0 0 
L 0 3.5 
" style="stroke: #000000; stroke-width: 0.8"/>
      </defs>
      <g>
       <use xlink:href="#md348a1b499" x="57.6" y="307.584" style="stroke: #000000; stroke-width: 0.8"/>
      </g>
     </g>
     <g id="text_1">
      <!-- 0 -->
      <g transform="translate(52.51 326.7415)scale(0.16 -0.16)">
       <defs>
        <path id="DejaVuSans-30" d="M 2034 4250 
Q 1547 4250 1301 3770 
Q 1056 3291 1056 2328 
Q 1056 1369 1301 889 
Q 1547 409 2034 409 
Q 2525 409 2770 889 
Q 3016 1369 3016 2328 
Q 3016 3291 2770 3770 
Q 2525 4250 2034 4250 
z
M 2034 4750 
Q 2819 4750 3233 4129 
Q 3647 3509 3647 2328 
Q 3647 1150 3233 529 
Q 2819 -91 2034 -91 
Q 1250 -91 836 529 
Q 422 1150 422 2328 
Q 422 3509 836 4129 
Q 1250 4750 2034 4750 
z
" transform="scale(0.015625)"/>
       </defs>
       <use xlink:href="#DejaVuSans-30"/>
      </g>
     </g>
    </g>
    <g id="xtick_2">
     <g id="line2d_3">
      <path d="M 129.024 307.584 
L 129.024 41.472 
" clip-path="url(#pa118b2e45f)" style="fill: none; stroke: #b0b0b0; stroke-width: 0.8; stroke-linecap: square"/>
     </g>
     <g id="line2d_4">
      <g>
       <use xlink:href="#md348a1b499" x="129.024" y="307.584" style="stroke: #000000; stroke-width: 0.8"/>
      </g>
     </g>
     <g id="text_2">
      <!-- 200 -->
      <g transform="translate(113.754 326.7415)scale(0.16 -0.16)">
       <defs>
        <path id="DejaVuSans-32" d="M 1228 531 
L 3431 531 
L 3431 0 
L 469 0 
L 469 531 
Q 828 903 1448 1529 
Q 2069 2156 2228 2338 
Q 2531 2678 2651 2914 
Q 2772 3150 2772 3378 
Q 2772 3750 2511 3984 
Q 2250 4219 1831 4219 
Q 1534 4219 1204 4116 
Q 875 4013 500 3803 
L 500 4441 
Q 881 4594 1212 4672 
Q 1544 4750 1819 4750 
Q 2544 4750 2975 4387 
Q 3406 4025 3406 3419 
Q 3406 3131 3298 2873 
Q 3191 2616 2906 2266 
Q 2828 2175 2409 1742 
Q 1991 1309 1228 531 
z
" transform="scale(0.015625)"/>
       </defs>
       <use xlink:href="#DejaVuSans-32"/>
       <use xlink:href="#DejaVuSans-30" x="63.623047"/>
       <use xlink:href="#DejaVuSans-30" x="127.246094"/>
      </g>
     </g>
    </g>
    <g id="xtick_3">
     <g id="line2d_5">
      <path d="M 200.448 307.584 
L 200.448 41.472 
" clip-path="url(#pa118b2e45f)" style="fill: none; stroke: #b0b0b0; stroke-width: 0.8; stroke-linecap: square"/>
     </g>
     <g id="line2d_6">
      <g>
       <use xlink:href="#md348a1b499" x="200.448" y="307.584" style="stroke: #000000; stroke-width: 0.8"/>
      </g>
     </g>
     <g id="text_3">
      <!-- 400 -->
      <g transform="translate(185.178 326.7415)scale(0.16 -0.16)">
       <defs>
        <path id="DejaVuSans-34" d="M 2419 4116 
L 825 1625 
L 2419 1625 
L 2419 4116 
z
M 2253 4666 
L 3047 4666 
L 3047 1625 
L 3713 1625 
L 3713 1100 
L 3047 1100 
L 3047 0 
L 2419 0 
L 2419 1100 
L 313 1100 
L 313 1709 
L 2253 4666 
z
" transform="scale(0.015625)"/>
       </defs>
       <use xlink:href="#DejaVuSans-34"/>
       <use xlink:href="#DejaVuSans-30" x="63.623047"/>
       <use xlink:href="#DejaVuSans-30" x="127.246094"/>
      </g>
     </g>
    </g>
    <g id="xtick_4">
     <g id="line2d_7">
      <path d="M 271.872 307.584 
L 271.872 41.472 
" clip-path="url(#pa118b2e45f)" style="fill: none; stroke: #b0b0b0; stroke-width: 0.8; stroke-linecap: square"/>
     </g>
     <g id="line2d_8">
      <g>
       <use xlink:href="#md348a1b499" x="271.872" y="307.584" style="stroke: #000000; stroke-width: 0.8"/>
      </g>
     </g>
     <g id="text_4">
      <!-- 600 -->
      <g transform="translate(256.602 326.7415)scale(0.16 -0.16)">
       <defs>
        <path id="DejaVuSans-36" d="M 2113 2584 
Q 1688 2584 1439 2293 
Q 1191 2003 1191 1497 
Q 1191 994 1439 701 
Q 1688 409 2113 409 
Q 2538 409 2786 701 
Q 3034 994 3034 1497 
Q 3034 2003 2786 2293 
Q 2538 2584 2113 2584 
z
M 3366 4563 
L 3366 3988 
Q 3128 4100 2886 4159 
Q 2644 4219 2406 4219 
Q 1781 4219 1451 3797 
Q 1122 3375 1075 2522 
Q 1259 2794 1537 2939 
Q 1816 3084 2150 3084 
Q 2853 3084 3261 2657 
Q 3669 2231 3669 1497 
Q 3669 778 3244 343 
Q 2819 -91 2113 -91 
Q 1303 -91 875 529 
Q 447 1150 447 2328 
Q 447 3434 972 4092 
Q 1497 4750 2381 4750 
Q 2619 4750 2861 4703 
Q 3103 4656 3366 4563 
z
" transform="scale(0.015625)"/>
       </defs>
       <use xlink:href="#DejaVuSans-36"/>
       <use xlink:href="#DejaVuSans-30" x="63.623047"/>
       <use xlink:href="#DejaVuSans-30" x="127.246094"/>
      </g>
     </g>
    </g>
    <g id="xtick_5">
     <g id="line2d_9">
      <path d="M 343.296 307.584 
L 343.296 41.472 
" clip-path="url(#pa118b2e45f)" style="fill: none; stroke: #b0b0b0; stroke-width: 0.8; stroke-linecap: square"/>
     </g>
     <g id="line2d_10">
      <g>
       <use xlink:href="#md348a1b499" x="343.296" y="307.584" style="stroke: #000000; stroke-width: 0.8"/>
      </g>
     </g>
     <g id="text_5">
      <!-- 800 -->
      <g transform="translate(328.026 326.7415)scale(0.16 -0.16)">
       <defs>
        <path id="DejaVuSans-38" d="M 2034 2216 
Q 1584 2216 1326 1975 
Q 1069 1734 1069 1313 
Q 1069 891 1326 650 
Q 1584 409 2034 409 
Q 2484 409 2743 651 
Q 3003 894 3003 1313 
Q 3003 1734 2745 1975 
Q 2488 2216 2034 2216 
z
M 1403 2484 
Q 997 2584 770 2862 
Q 544 3141 544 3541 
Q 544 4100 942 4425 
Q 1341 4750 2034 4750 
Q 2731 4750 3128 4425 
Q 3525 4100 3525 3541 
Q 3525 3141 3298 2862 
Q 3072 2584 2669 2484 
Q 3125 2378 3379 2068 
Q 3634 1759 3634 1313 
Q 3634 634 3220 271 
Q 2806 -91 2034 -91 
Q 1263 -91 848 271 
Q 434 634 434 1313 
Q 434 1759 690 2068 
Q 947 2378 1403 2484 
z
M 1172 3481 
Q 1172 3119 1398 2916 
Q 1625 2713 2034 2713 
Q 2441 2713 2670 2916 
Q 2900 3119 2900 3481 
Q 2900 3844 2670 4047 
Q 2441 4250 2034 4250 
Q 1625 4250 1398 4047 
Q 1172 3844 1172 3481 
z
" transform="scale(0.015625)"/>
       </defs>
       <use xlink:href="#DejaVuSans-38"/>
       <use xlink:href="#DejaVuSans-30" x="63.623047"/>
       <use xlink:href="#DejaVuSans-30" x="127.246094"/>
      </g>
     </g>
    </g>
    <g id="xtick_6">
     <g id="line2d_11">
      <path d="M 414.72 307.584 
L 414.72 41.472 
" clip-path="url(#pa118b2e45f)" style="fill: none; stroke: #b0b0b0; stroke-width: 0.8; stroke-linecap: square"/>
     </g>
     <g id="line2d_12">
      <g>
       <use xlink:href="#md348a1b499" x="414.72" y="307.584" style="stroke: #000000; stroke-width: 0.8"/>
      </g>
     </g>
     <g id="text_6">
      <!-- 1000 -->
      <g transform="translate(394.36 326.7415)scale(0.16 -0.16)">
       <defs>
        <path id="DejaVuSans-31" d="M 794 531 
L 1825 531 
L 1825 4091 
L 703 3866 
L 703 4441 
L 1819 4666 
L 2450 4666 
L 2450 531 
L 3481 531 
L 3481 0 
L 794 0 
L 794 531 
z
" transform="scale(0.015625)"/>
       </defs>
       <use xlink:href="#DejaVuSans-31"/>
       <use xlink:href="#DejaVuSans-30" x="63.623047"/>
       <use xlink:href="#DejaVuSans-30" x="127.246094"/>
       <use xlink:href="#DejaVuSans-30" x="190.869141"/>
      </g>
     </g>
    </g>
    <g id="text_7">
     <!-- Episodes -->
     <g transform="translate(200.5725 346.2265)scale(0.16 -0.16)">
      <defs>
       <path id="DejaVuSans-45" d="M 628 4666 
L 3578 4666 
L 3578 4134 
L 1259 4134 
L 1259 2753 
L 3481 2753 
L 3481 2222 
L 1259 2222 
L 1259 531 
L 3634 531 
L 3634 0 
L 628 0 
L 628 4666 
z
" transform="scale(0.015625)"/>
       <path id="DejaVuSans-70" d="M 1159 525 
L 1159 -1331 
L 581 -1331 
L 581 3500 
L 1159 3500 
L 1159 2969 
Q 1341 3281 1617 3432 
Q 1894 3584 2278 3584 
Q 2916 3584 3314 3078 
Q 3713 2572 3713 1747 
Q 3713 922 3314 415 
Q 2916 -91 2278 -91 
Q 1894 -91 1617 61 
Q 1341 213 1159 525 
z
M 3116 1747 
Q 3116 2381 2855 2742 
Q 2594 3103 2138 3103 
Q 1681 3103 1420 2742 
Q 1159 2381 1159 1747 
Q 1159 1113 1420 752 
Q 1681 391 2138 391 
Q 2594 391 2855 752 
Q 3116 1113 3116 1747 
z
" transform="scale(0.015625)"/>
       <path id="DejaVuSans-69" d="M 603 3500 
L 1178 3500 
L 1178 0 
L 603 0 
L 603 3500 
z
M 603 4863 
L 1178 4863 
L 1178 4134 
L 603 4134 
L 603 4863 
z
" transform="scale(0.015625)"/>
       <path id="DejaVuSans-73" d="M 2834 3397 
L 2834 2853 
Q 2591 2978 2328 3040 
Q 2066 3103 1784 3103 
Q 1356 3103 1142 2972 
Q 928 2841 928 2578 
Q 928 2378 1081 2264 
Q 1234 2150 1697 2047 
L 1894 2003 
Q 2506 1872 2764 1633 
Q 3022 1394 3022 966 
Q 3022 478 2636 193 
Q 2250 -91 1575 -91 
Q 1294 -91 989 -36 
Q 684 19 347 128 
L 347 722 
Q 666 556 975 473 
Q 1284 391 1588 391 
Q 1994 391 2212 530 
Q 2431 669 2431 922 
Q 2431 1156 2273 1281 
Q 2116 1406 1581 1522 
L 1381 1569 
Q 847 1681 609 1914 
Q 372 2147 372 2553 
Q 372 3047 722 3315 
Q 1072 3584 1716 3584 
Q 2034 3584 2315 3537 
Q 2597 3491 2834 3397 
z
" transform="scale(0.015625)"/>
       <path id="DejaVuSans-6f" d="M 1959 3097 
Q 1497 3097 1228 2736 
Q 959 2375 959 1747 
Q 959 1119 1226 758 
Q 1494 397 1959 397 
Q 2419 397 2687 759 
Q 2956 1122 2956 1747 
Q 2956 2369 2687 2733 
Q 2419 3097 1959 3097 
z
M 1959 3584 
Q 2709 3584 3137 3096 
Q 3566 2609 3566 1747 
Q 3566 888 3137 398 
Q 2709 -91 1959 -91 
Q 1206 -91 779 398 
Q 353 888 353 1747 
Q 353 2609 779 3096 
Q 1206 3584 1959 3584 
z
" transform="scale(0.015625)"/>
       <path id="DejaVuSans-64" d="M 2906 2969 
L 2906 4863 
L 3481 4863 
L 3481 0 
L 2906 0 
L 2906 525 
Q 2725 213 2448 61 
Q 2172 -91 1784 -91 
Q 1150 -91 751 415 
Q 353 922 353 1747 
Q 353 2572 751 3078 
Q 1150 3584 1784 3584 
Q 2172 3584 2448 3432 
Q 2725 3281 2906 2969 
z
M 947 1747 
Q 947 1113 1208 752 
Q 1469 391 1925 391 
Q 2381 391 2643 752 
Q 2906 1113 2906 1747 
Q 2906 2381 2643 2742 
Q 2381 3103 1925 3103 
Q 1469 3103 1208 2742 
Q 947 2381 947 1747 
z
" transform="scale(0.015625)"/>
       <path id="DejaVuSans-65" d="M 3597 1894 
L 3597 1613 
L 953 1613 
Q 991 1019 1311 708 
Q 1631 397 2203 397 
Q 2534 397 2845 478 
Q 3156 559 3463 722 
L 3463 178 
Q 3153 47 2828 -22 
Q 2503 -91 2169 -91 
Q 1331 -91 842 396 
Q 353 884 353 1716 
Q 353 2575 817 3079 
Q 1281 3584 2069 3584 
Q 2775 3584 3186 3129 
Q 3597 2675 3597 1894 
z
M 3022 2063 
Q 3016 2534 2758 2815 
Q 2500 3097 2075 3097 
Q 1594 3097 1305 2825 
Q 1016 2553 972 2059 
L 3022 2063 
z
" transform="scale(0.015625)"/>
      </defs>
      <use xlink:href="#DejaVuSans-45"/>
      <use xlink:href="#DejaVuSans-70" x="63.183594"/>
      <use xlink:href="#DejaVuSans-69" x="126.660156"/>
      <use xlink:href="#DejaVuSans-73" x="154.443359"/>
      <use xlink:href="#DejaVuSans-6f" x="206.542969"/>
      <use xlink:href="#DejaVuSans-64" x="267.724609"/>
      <use xlink:href="#DejaVuSans-65" x="331.201172"/>
      <use xlink:href="#DejaVuSans-73" x="392.724609"/>
     </g>
    </g>
   </g>
   <g id="matplotlib.axis_2">
    <g id="ytick_1">
     <g id="line2d_13">
      <path d="M 57.6 285.408 
L 414.72 285.408 
" clip-path="url(#pa118b2e45f)" style="fill: none; stroke: #b0b0b0; stroke-width: 0.8; stroke-linecap: square"/>
     </g>
     <g id="line2d_14">
      <defs>
       <path id="m2bf5e18610" d="M 0 0 
L -3.5 0 
" style="stroke: #000000; stroke-width: 0.8"/>
      </defs>
      <g>
       <use xlink:href="#m2bf5e18610" x="57.6" y="285.408" style="stroke: #000000; stroke-width: 0.8"/>
      </g>
     </g>
     <g id="text_8">
      <!-- 0 -->
      <g transform="translate(40.42 291.48675)scale(0.16 -0.16)">
       <use xlink:href="#DejaVuSans-30"/>
      </g>
     </g>
    </g>
    <g id="ytick_2">
     <g id="line2d_15">
      <path d="M 57.6 223.614526 
L 414.72 223.614526 
" clip-path="url(#pa118b2e45f)" style="fill: none; stroke: #b0b0b0; stroke-width: 0.8; stroke-linecap: square"/>
     </g>
     <g id="line2d_16">
      <g>
       <use xlink:href="#m2bf5e18610" x="57.6" y="223.614526" style="stroke: #000000; stroke-width: 0.8"/>
      </g>
     </g>
     <g id="text_9">
      <!-- 2 -->
      <g transform="translate(40.42 229.693276)scale(0.16 -0.16)">
       <use xlink:href="#DejaVuSans-32"/>
      </g>
     </g>
    </g>
    <g id="ytick_3">
     <g id="line2d_17">
      <path d="M 57.6 161.821051 
L 414.72 161.821051 
" clip-path="url(#pa118b2e45f)" style="fill: none; stroke: #b0b0b0; stroke-width: 0.8; stroke-linecap: square"/>
     </g>
     <g id="line2d_18">
      <g>
       <use xlink:href="#m2bf5e18610" x="57.6" y="161.821051" style="stroke: #000000; stroke-width: 0.8"/>
      </g>
     </g>
     <g id="text_10">
      <!-- 4 -->
      <g transform="translate(40.42 167.899801)scale(0.16 -0.16)">
       <use xlink:href="#DejaVuSans-34"/>
      </g>
     </g>
    </g>
    <g id="ytick_4">
     <g id="line2d_19">
      <path d="M 57.6 100.027577 
L 414.72 100.027577 
" clip-path="url(#pa118b2e45f)" style="fill: none; stroke: #b0b0b0; stroke-width: 0.8; stroke-linecap: square"/>
     </g>
     <g id="line2d_20">
      <g>
       <use xlink:href="#m2bf5e18610" x="57.6" y="100.027577" style="stroke: #000000; stroke-width: 0.8"/>
      </g>
     </g>
     <g id="text_11">
      <!-- 6 -->
      <g transform="translate(40.42 106.106327)scale(0.16 -0.16)">
       <use xlink:href="#DejaVuSans-36"/>
      </g>
     </g>
    </g>
    <g id="text_12">
     <!-- Cumulative Reward -->
     <g transform="translate(33.0925 252.52425)rotate(-90)scale(0.16 -0.16)">
      <defs>
       <path id="DejaVuSans-43" d="M 4122 4306 
L 4122 3641 
Q 3803 3938 3442 4084 
Q 3081 4231 2675 4231 
Q 1875 4231 1450 3742 
Q 1025 3253 1025 2328 
Q 1025 1406 1450 917 
Q 1875 428 2675 428 
Q 3081 428 3442 575 
Q 3803 722 4122 1019 
L 4122 359 
Q 3791 134 3420 21 
Q 3050 -91 2638 -91 
Q 1578 -91 968 557 
Q 359 1206 359 2328 
Q 359 3453 968 4101 
Q 1578 4750 2638 4750 
Q 3056 4750 3426 4639 
Q 3797 4528 4122 4306 
z
" transform="scale(0.015625)"/>
       <path id="DejaVuSans-75" d="M 544 1381 
L 544 3500 
L 1119 3500 
L 1119 1403 
Q 1119 906 1312 657 
Q 1506 409 1894 409 
Q 2359 409 2629 706 
Q 2900 1003 2900 1516 
L 2900 3500 
L 3475 3500 
L 3475 0 
L 2900 0 
L 2900 538 
Q 2691 219 2414 64 
Q 2138 -91 1772 -91 
Q 1169 -91 856 284 
Q 544 659 544 1381 
z
M 1991 3584 
L 1991 3584 
z
" transform="scale(0.015625)"/>
       <path id="DejaVuSans-6d" d="M 3328 2828 
Q 3544 3216 3844 3400 
Q 4144 3584 4550 3584 
Q 5097 3584 5394 3201 
Q 5691 2819 5691 2113 
L 5691 0 
L 5113 0 
L 5113 2094 
Q 5113 2597 4934 2840 
Q 4756 3084 4391 3084 
Q 3944 3084 3684 2787 
Q 3425 2491 3425 1978 
L 3425 0 
L 2847 0 
L 2847 2094 
Q 2847 2600 2669 2842 
Q 2491 3084 2119 3084 
Q 1678 3084 1418 2786 
Q 1159 2488 1159 1978 
L 1159 0 
L 581 0 
L 581 3500 
L 1159 3500 
L 1159 2956 
Q 1356 3278 1631 3431 
Q 1906 3584 2284 3584 
Q 2666 3584 2933 3390 
Q 3200 3197 3328 2828 
z
" transform="scale(0.015625)"/>
       <path id="DejaVuSans-6c" d="M 603 4863 
L 1178 4863 
L 1178 0 
L 603 0 
L 603 4863 
z
" transform="scale(0.015625)"/>
       <path id="DejaVuSans-61" d="M 2194 1759 
Q 1497 1759 1228 1600 
Q 959 1441 959 1056 
Q 959 750 1161 570 
Q 1363 391 1709 391 
Q 2188 391 2477 730 
Q 2766 1069 2766 1631 
L 2766 1759 
L 2194 1759 
z
M 3341 1997 
L 3341 0 
L 2766 0 
L 2766 531 
Q 2569 213 2275 61 
Q 1981 -91 1556 -91 
Q 1019 -91 701 211 
Q 384 513 384 1019 
Q 384 1609 779 1909 
Q 1175 2209 1959 2209 
L 2766 2209 
L 2766 2266 
Q 2766 2663 2505 2880 
Q 2244 3097 1772 3097 
Q 1472 3097 1187 3025 
Q 903 2953 641 2809 
L 641 3341 
Q 956 3463 1253 3523 
Q 1550 3584 1831 3584 
Q 2591 3584 2966 3190 
Q 3341 2797 3341 1997 
z
" transform="scale(0.015625)"/>
       <path id="DejaVuSans-74" d="M 1172 4494 
L 1172 3500 
L 2356 3500 
L 2356 3053 
L 1172 3053 
L 1172 1153 
Q 1172 725 1289 603 
Q 1406 481 1766 481 
L 2356 481 
L 2356 0 
L 1766 0 
Q 1100 0 847 248 
Q 594 497 594 1153 
L 594 3053 
L 172 3053 
L 172 3500 
L 594 3500 
L 594 4494 
L 1172 4494 
z
" transform="scale(0.015625)"/>
       <path id="DejaVuSans-76" d="M 191 3500 
L 800 3500 
L 1894 563 
L 2988 3500 
L 3597 3500 
L 2284 0 
L 1503 0 
L 191 3500 
z
" transform="scale(0.015625)"/>
       <path id="DejaVuSans-20" transform="scale(0.015625)"/>
       <path id="DejaVuSans-52" d="M 2841 2188 
Q 3044 2119 3236 1894 
Q 3428 1669 3622 1275 
L 4263 0 
L 3584 0 
L 2988 1197 
Q 2756 1666 2539 1819 
Q 2322 1972 1947 1972 
L 1259 1972 
L 1259 0 
L 628 0 
L 628 4666 
L 2053 4666 
Q 2853 4666 3247 4331 
Q 3641 3997 3641 3322 
Q 3641 2881 3436 2590 
Q 3231 2300 2841 2188 
z
M 1259 4147 
L 1259 2491 
L 2053 2491 
Q 2509 2491 2742 2702 
Q 2975 2913 2975 3322 
Q 2975 3731 2742 3939 
Q 2509 4147 2053 4147 
L 1259 4147 
z
" transform="scale(0.015625)"/>
       <path id="DejaVuSans-77" d="M 269 3500 
L 844 3500 
L 1563 769 
L 2278 3500 
L 2956 3500 
L 3675 769 
L 4391 3500 
L 4966 3500 
L 4050 0 
L 3372 0 
L 2619 2869 
L 1863 0 
L 1184 0 
L 269 3500 
z
" transform="scale(0.015625)"/>
       <path id="DejaVuSans-72" d="M 2631 2963 
Q 2534 3019 2420 3045 
Q 2306 3072 2169 3072 
Q 1681 3072 1420 2755 
Q 1159 2438 1159 1844 
L 1159 0 
L 581 0 
L 581 3500 
L 1159 3500 
L 1159 2956 
Q 1341 3275 1631 3429 
Q 1922 3584 2338 3584 
Q 2397 3584 2469 3576 
Q 2541 3569 2628 3553 
L 2631 2963 
z
" transform="scale(0.015625)"/>
      </defs>
      <use xlink:href="#DejaVuSans-43"/>
      <use xlink:href="#DejaVuSans-75" x="69.824219"/>
      <use xlink:href="#DejaVuSans-6d" x="133.203125"/>
      <use xlink:href="#DejaVuSans-75" x="230.615234"/>
      <use xlink:href="#DejaVuSans-6c" x="293.994141"/>
      <use xlink:href="#DejaVuSans-61" x="321.777344"/>
      <use xlink:href="#DejaVuSans-74" x="383.056641"/>
      <use xlink:href="#DejaVuSans-69" x="422.265625"/>
      <use xlink:href="#DejaVuSans-76" x="450.048828"/>
      <use xlink:href="#DejaVuSans-65" x="509.228516"/>
      <use xlink:href="#DejaVuSans-20" x="570.751953"/>
      <use xlink:href="#DejaVuSans-52" x="602.539062"/>
      <use xlink:href="#DejaVuSans-65" x="667.521484"/>
      <use xlink:href="#DejaVuSans-77" x="729.044922"/>
      <use xlink:href="#DejaVuSans-61" x="810.832031"/>
      <use xlink:href="#DejaVuSans-72" x="872.111328"/>
      <use xlink:href="#DejaVuSans-64" x="911.474609"/>
     </g>
    </g>
   </g>
   <g id="line2d_21">
    <path d="M 57.6 159.801945 
L 57.95712 270.866883 
L 58.31424 151.84603 
L 58.67136 285.045616 
L 59.02848 159.801945 
L 59.3856 270.866883 
L 59.74272 151.84603 
L 60.09984 285.045616 
L 60.45696 159.801945 
L 60.81408 270.866883 
L 61.1712 151.84603 
L 61.52832 285.045616 
L 61.88544 159.801945 
L 62.24256 270.866883 
L 62.59968 151.84603 
L 62.9568 285.045616 
L 63.31392 159.801945 
L 63.67104 270.866883 
L 64.02816 151.84603 
L 64.38528 285.045616 
L 64.7424 159.801945 
L 65.09952 270.866883 
L 65.45664 151.84603 
L 65.81376 285.045616 
L 66.17088 159.801945 
L 66.528 270.866883 
L 66.88512 151.84603 
L 67.24224 285.045616 
L 67.59936 159.801945 
L 67.95648 270.866883 
L 68.3136 151.84603 
L 68.67072 285.045616 
L 69.02784 159.801945 
L 69.38496 270.866883 
L 69.74208 151.84603 
L 70.0992 285.045616 
L 70.45632 159.801945 
L 70.81344 270.866883 
L 71.17056 151.84603 
L 71.52768 285.045616 
L 71.8848 159.801945 
L 72.24192 270.866883 
L 72.59904 151.84603 
L 72.95616 285.045616 
L 73.31328 159.801945 
L 73.6704 270.866883 
L 74.02752 151.84603 
L 74.38464 285.045616 
L 74.74176 159.801945 
L 75.09888 270.866883 
L 75.456 151.84603 
L 75.81312 285.045616 
L 76.17024 159.801945 
L 76.52736 270.866883 
L 76.88448 151.84603 
L 77.2416 285.045616 
L 77.59872 159.801945 
L 77.95584 270.866883 
L 78.31296 151.84603 
L 78.67008 285.045616 
L 79.0272 159.801945 
L 79.38432 270.866883 
L 79.74144 151.84603 
L 80.09856 285.045616 
L 80.45568 159.801945 
L 80.8128 270.866883 
L 81.16992 151.84603 
L 81.52704 285.045616 
L 81.88416 159.801945 
L 82.24128 270.866883 
L 82.5984 151.84603 
L 82.95552 285.045616 
L 83.31264 159.801945 
L 83.66976 270.866883 
L 84.02688 151.84603 
L 84.384 285.045616 
L 84.74112 159.801945 
L 85.09824 270.866883 
L 85.45536 151.84603 
L 85.81248 285.045616 
L 86.1696 159.801945 
L 86.52672 270.866883 
L 86.88384 151.84603 
L 87.24096 285.045616 
L 87.59808 159.801945 
L 87.9552 270.866883 
L 88.31232 151.84603 
L 88.66944 285.045616 
L 89.02656 159.801945 
L 89.38368 270.866883 
L 89.7408 151.84603 
L 90.09792 285.045616 
L 90.45504 159.801945 
L 90.81216 270.866883 
L 91.16928 151.84603 
L 91.5264 285.045616 
L 91.88352 159.801945 
L 92.24064 270.866883 
L 92.59776 151.84603 
L 92.95488 285.045616 
L 93.66912 182.59648 
L 94.02624 280.557649 
L 94.38336 236.451368 
L 95.0976 283.066053 
L 95.45472 281.222867 
L 95.81184 235.581225 
L 96.16896 158.061263 
L 96.52608 241.41842 
L 96.8832 250.473599 
L 97.24032 248.609111 
L 97.59744 282.093081 
L 97.95456 277.730566 
L 98.6688 283.041106 
L 99.38304 250.083523 
L 99.74016 278.734041 
L 100.09728 258.733554 
L 100.4544 255.721361 
L 100.81152 228.52376 
L 101.16864 190.889378 
L 101.52576 241.500478 
L 101.88288 274.06232 
L 102.24 209.080932 
L 102.59712 170.269664 
L 102.95424 223.431301 
L 103.31136 179.045869 
L 103.66848 177.170745 
L 104.0256 262.979221 
L 104.38272 209.024576 
L 104.73984 201.7407 
L 105.09696 277.146855 
L 105.45408 267.579962 
L 105.8112 266.218828 
L 106.16832 283.564982 
L 106.52544 279.744448 
L 106.88256 280.627876 
L 107.23968 283.844423 
L 107.5968 272.563147 
L 107.95392 273.528124 
L 108.31104 163.244792 
L 108.66816 254.864355 
L 109.02528 162.238185 
L 109.3824 285.408 
L 109.73952 252.016078 
L 110.09664 152.003576 
L 110.45376 275.976567 
L 110.81088 204.839403 
L 111.168 273.465657 
L 111.52512 281.902338 
L 112.23936 235.630946 
L 112.59648 151.026112 
L 112.9536 255.627881 
L 113.31072 250.164943 
L 113.66784 247.846074 
L 114.02496 281.678718 
L 114.38208 279.018848 
L 114.7392 277.264619 
L 115.09632 282.064121 
L 115.45344 274.687884 
L 115.81056 240.330869 
L 116.16768 273.875048 
L 116.5248 260.073747 
L 116.88192 262.399604 
L 117.23904 174.37837 
L 117.59616 244.269722 
L 118.3104 272.339767 
L 118.66752 169.964448 
L 119.02464 215.280423 
L 119.38176 171.524338 
L 119.73888 163.043534 
L 120.096 80.359794 
L 120.45312 256.549513 
L 120.81024 196.373159 
L 121.16736 205.090417 
L 121.52448 268.300472 
L 121.8816 266.02038 
L 122.23872 270.502502 
L 122.59584 284.09801 
L 122.95296 280.466846 
L 123.31008 280.292298 
L 123.6672 267.488214 
L 124.02432 269.956706 
L 124.38144 258.10889 
L 124.73856 173.277591 
L 125.09568 193.183313 
L 125.4528 193.522626 
L 125.80992 285.018837 
L 126.16704 271.560316 
L 126.52416 116.722788 
L 126.88128 278.396712 
L 127.2384 214.668199 
L 127.59552 280.496048 
L 127.95264 285.041082 
L 128.30976 264.459285 
L 129.024 198.290871 
L 129.38112 257.086745 
L 129.73824 235.677671 
L 130.09536 242.986853 
L 130.45248 281.274605 
L 130.8096 280.089976 
L 131.16672 274.078517 
L 131.52384 280.247791 
L 131.88096 273.779147 
L 132.23808 230.92935 
L 132.5952 263.901864 
L 132.95232 260.750919 
L 133.30944 263.786707 
L 133.66656 211.54774 
L 134.02368 199.148605 
L 134.3808 251.419888 
L 134.73792 251.115645 
L 135.09504 181.437593 
L 135.45216 164.379826 
L 135.80928 170.103252 
L 136.1664 92.963651 
L 136.88064 249.115981 
L 137.23776 239.935878 
L 137.59488 236.656676 
L 137.952 271.621771 
L 138.30912 265.526683 
L 138.66624 266.833854 
L 139.02336 282.32329 
L 139.38048 280.42048 
L 139.7376 282.92737 
L 140.09472 278.746472 
L 140.45184 263.553981 
L 140.80896 262.043035 
L 141.16608 163.016024 
L 141.5232 253.976119 
L 141.88032 160.578165 
L 142.23744 284.999842 
L 142.59456 241.584468 
L 142.95168 144.128409 
L 143.3088 273.113664 
L 143.66592 252.209004 
L 144.02304 273.63488 
L 144.38016 282.512371 
L 144.73728 235.897435 
L 145.0944 235.911019 
L 145.45152 151.695172 
L 145.80864 270.379793 
L 146.16576 246.949306 
L 146.52288 246.028425 
L 146.88 281.547883 
L 147.59424 279.749341 
L 147.95136 282.318531 
L 148.30848 271.463116 
L 148.6656 246.055541 
L 149.02272 266.236579 
L 149.37984 265.249035 
L 149.73696 263.160145 
L 150.09408 160.406233 
L 150.80832 245.827807 
L 151.16544 279.828576 
L 151.52256 216.415653 
L 152.2368 173.840848 
L 152.59392 152.848883 
L 152.95104 164.000687 
L 153.30816 272.981749 
L 153.66528 258.174715 
L 154.0224 211.325022 
L 154.37952 271.685415 
L 154.73664 263.198315 
L 155.09376 267.989812 
L 155.45088 284.797682 
L 155.808 280.223377 
L 156.16512 279.455661 
L 156.52224 282.381859 
L 156.87936 264.686694 
L 157.23648 262.336113 
L 157.5936 145.2971 
L 157.95072 214.324332 
L 158.30784 156.809204 
L 158.66496 285.121591 
L 159.02208 246.936008 
L 159.3792 63.648 
L 159.73632 274.357085 
L 160.09344 231.127043 
L 160.45056 277.832086 
L 160.80768 284.362143 
L 161.1648 270.972559 
L 161.87904 162.485639 
L 162.23616 244.711503 
L 162.59328 249.388598 
L 162.9504 237.910755 
L 163.30752 283.505884 
L 163.66464 283.24352 
L 164.02176 281.669523 
L 164.37888 285.0739 
L 164.736 263.823606 
L 165.09312 255.283343 
L 165.45024 266.929026 
L 165.80736 254.237639 
L 166.16448 257.309125 
L 166.5216 205.203839 
L 166.87872 120.096385 
L 167.23584 254.028337 
L 167.59296 226.264057 
L 168.3072 134.749654 
L 168.66432 205.091964 
L 169.02144 183.10578 
L 169.37856 193.000191 
L 169.73568 269.107919 
L 170.44992 219.053328 
L 170.80704 272.983534 
L 171.16416 271.698561 
L 171.52128 269.349274 
L 171.8784 284.551374 
L 172.23552 281.749616 
L 172.59264 282.431969 
L 172.94976 276.820028 
L 173.30688 265.838521 
L 173.664 277.65685 
L 174.02112 193.344449 
L 174.37824 233.946778 
L 174.73536 155.069758 
L 175.09248 285.182326 
L 175.4496 258.811866 
L 175.80672 110.791102 
L 176.16384 279.511316 
L 176.52096 225.722805 
L 176.87808 262.841251 
L 177.2352 284.282299 
L 177.94944 237.239592 
L 178.30656 238.642402 
L 178.66368 264.741961 
L 179.0208 225.010592 
L 179.37792 242.495031 
L 179.73504 281.420516 
L 180.09216 277.279846 
L 180.44928 278.178667 
L 180.8064 283.056639 
L 181.16352 282.127151 
L 181.52064 229.220721 
L 181.87776 268.047563 
L 182.23488 259.315685 
L 182.592 263.916679 
L 182.94912 176.928491 
L 183.30624 138.934493 
L 183.66336 254.24462 
L 184.02048 276.290766 
L 184.3776 205.927841 
L 184.73472 161.487185 
L 185.09184 201.314321 
L 185.44896 95.474561 
L 186.1632 244.726474 
L 186.52032 251.394189 
L 186.87744 212.016778 
L 187.23456 281.34874 
L 187.59168 271.568462 
L 187.9488 266.716444 
L 188.30592 284.954958 
L 188.66304 279.71626 
L 189.02016 280.008024 
L 189.37728 275.363689 
L 189.7344 264.434122 
L 190.09152 270.77334 
L 190.44864 166.764544 
L 190.80576 279.349164 
L 191.16288 177.8502 
L 191.52 284.879968 
L 191.87712 252.099274 
L 192.23424 149.00857 
L 192.59136 279.273522 
L 192.94848 259.868006 
L 193.3056 268.241156 
L 193.66272 282.866729 
L 194.01984 257.385886 
L 194.37696 257.529067 
L 194.73408 153.722151 
L 195.0912 256.097108 
L 195.44832 245.790298 
L 195.80544 244.65426 
L 196.16256 282.569258 
L 196.51968 281.303315 
L 196.8768 277.231685 
L 197.23392 283.513012 
L 197.59104 278.121798 
L 197.94816 231.546178 
L 198.30528 267.579673 
L 198.6624 264.713061 
L 199.01952 258.344797 
L 199.37664 244.809246 
L 199.73376 211.231923 
L 200.448 260.394126 
L 200.80512 193.9438 
L 201.16224 168.608056 
L 201.51936 233.599016 
L 201.87648 174.847597 
L 202.2336 166.216746 
L 202.59072 272.22072 
L 202.94784 262.537336 
L 203.30496 194.58055 
L 203.66208 273.518144 
L 204.0192 263.922921 
L 204.37632 263.640225 
L 204.73344 282.694171 
L 205.09056 283.169155 
L 205.44768 280.644331 
L 205.8048 267.784059 
L 206.16192 261.904735 
L 206.51904 264.341148 
L 206.87616 147.845547 
L 207.23328 205.184495 
L 207.5904 158.111239 
L 207.94752 284.954077 
L 208.30464 230.818612 
L 208.66176 85.664553 
L 209.01888 276.461819 
L 209.376 203.696114 
L 209.73312 259.987632 
L 210.09024 282.925976 
L 210.44736 249.815263 
L 210.80448 230.43833 
L 211.1616 166.533906 
L 211.51872 258.99947 
L 211.87584 236.673124 
L 212.23296 246.631691 
L 212.59008 282.123498 
L 212.9472 279.572904 
L 213.30432 280.345472 
L 213.66144 278.186259 
L 214.01856 280.342874 
L 214.37568 219.410457 
L 214.7328 271.148935 
L 215.08992 258.769222 
L 215.44704 256.961191 
L 215.80416 158.058333 
L 216.16128 95.741005 
L 216.5184 257.395822 
L 216.87552 283.790536 
L 217.58976 151.259956 
L 217.94688 196.607681 
L 218.304 178.393786 
L 219.01824 235.678982 
L 219.37536 247.406203 
L 219.73248 176.356795 
L 220.0896 267.750294 
L 220.80384 269.856357 
L 221.16096 283.586748 
L 221.51808 279.510604 
L 221.8752 281.096354 
L 222.23232 279.665164 
L 222.58944 263.153587 
L 222.94656 279.241994 
L 223.30368 180.834386 
L 223.6608 231.77105 
L 224.01792 194.510117 
L 224.37504 285.052322 
L 224.73216 251.855993 
L 225.08928 99.871774 
L 225.4464 275.853456 
L 225.80352 233.279749 
L 226.16064 272.849709 
L 226.51776 284.750104 
L 227.232 247.790189 
L 227.58912 173.191988 
L 227.94624 285.408 
L 228.30336 250.375646 
L 228.66048 244.669219 
L 229.0176 284.148811 
L 229.37472 277.869194 
L 229.73184 278.722232 
L 230.08896 282.170606 
L 230.44608 268.547651 
L 230.8032 212.100529 
L 231.16032 269.613054 
L 231.87456 253.855588 
L 232.23168 161.643395 
L 232.5888 192.01109 
L 232.94592 263.783849 
L 233.30304 272.859017 
L 233.66016 210.200882 
L 234.01728 210.032332 
L 234.3744 200.479012 
L 234.73152 159.5406 
L 235.08864 177.772172 
L 235.44576 251.855827 
L 235.80288 285.408 
L 236.16 244.220113 
L 236.51712 275.650457 
L 236.87424 272.246573 
L 237.23136 264.780852 
L 237.58848 283.776339 
L 237.9456 281.24234 
L 238.30272 282.082284 
L 238.65984 275.678002 
L 239.01696 264.040916 
L 239.37408 260.320122 
L 239.7312 146.082225 
L 240.08832 251.865811 
L 240.44544 167.38896 
L 240.80256 284.912957 
L 241.15968 228.963077 
L 241.5168 102.504748 
L 241.87392 275.904407 
L 242.23104 219.907333 
L 242.58816 259.850514 
L 242.94528 282.919117 
L 243.3024 240.35189 
L 243.65952 242.903643 
L 244.01664 162.793781 
L 244.37376 255.551593 
L 244.73088 254.308081 
L 245.088 257.837803 
L 245.44512 281.301102 
L 245.80224 278.518677 
L 246.15936 277.932775 
L 246.51648 281.76974 
L 246.8736 276.58508 
L 247.23072 235.837365 
L 247.58784 266.272182 
L 247.94496 257.619595 
L 248.30208 259.207059 
L 248.6592 181.652383 
L 249.01632 213.37094 
L 249.37344 260.805332 
L 249.73056 276.22826 
L 250.08768 205.598133 
L 250.4448 211.073682 
L 250.80192 240.290524 
L 251.15904 91.728861 
L 251.51616 229.491332 
L 251.87328 260.636625 
L 252.2304 217.144887 
L 252.58752 219.240924 
L 252.94464 273.179572 
L 253.30176 264.217232 
L 253.65888 259.893889 
L 254.016 283.611527 
L 254.37312 279.398039 
L 254.73024 281.166293 
L 255.08736 267.006735 
L 255.44448 268.722206 
L 255.8016 277.408445 
L 256.15872 271.708016 
L 256.51584 234.046536 
L 256.87296 178.09941 
L 257.23008 284.919409 
L 257.5872 233.921875 
L 257.94432 112.007769 
L 258.30144 279.529247 
L 258.65856 249.544756 
L 259.3728 284.773284 
L 259.72992 260.199273 
L 260.08704 225.09542 
L 260.44416 211.13184 
L 260.80128 246.125385 
L 261.1584 233.650133 
L 261.51552 248.295684 
L 261.87264 279.944757 
L 262.22976 282.048401 
L 262.58688 274.688448 
L 262.944 282.156534 
L 263.30112 276.658242 
L 263.65824 268.919035 
L 264.01536 268.943509 
L 264.37248 261.154641 
L 264.7296 258.863079 
L 265.08672 163.463281 
L 265.80096 262.573607 
L 266.15808 259.669761 
L 266.5152 194.112669 
L 266.87232 169.717422 
L 267.22944 234.927487 
L 267.58656 126.955525 
L 267.94368 207.361108 
L 268.3008 238.90049 
L 268.65792 237.525986 
L 269.01504 238.289018 
L 269.37216 270.832437 
L 269.72928 273.745522 
L 270.0864 263.729277 
L 270.44352 283.493782 
L 270.80064 280.80856 
L 271.15776 279.380355 
L 271.51488 275.618491 
L 271.872 275.895356 
L 272.22912 265.28175 
L 272.58624 164.503028 
L 272.94336 210.714349 
L 273.30048 212.349117 
L 273.6576 284.886052 
L 274.01472 238.365017 
L 274.37184 138.066809 
L 274.72896 278.685222 
L 275.08608 237.657819 
L 275.4432 266.841737 
L 275.80032 285.135062 
L 276.15744 244.792917 
L 276.51456 236.261439 
L 276.87168 199.81087 
L 277.2288 260.006379 
L 277.58592 247.214786 
L 277.94304 247.097913 
L 278.30016 281.352641 
L 278.65728 283.239629 
L 279.0144 277.890256 
L 279.37152 281.753242 
L 279.72864 278.368951 
L 280.08576 272.243987 
L 280.44288 270.984412 
L 280.8 257.421177 
L 281.15712 263.287462 
L 281.51424 183.72276 
L 281.87136 236.841465 
L 282.22848 245.623649 
L 282.5856 281.337557 
L 282.94272 206.875967 
L 283.29984 195.503313 
L 283.65696 235.559273 
L 284.01408 162.622249 
L 284.3712 166.945006 
L 284.72832 251.288802 
L 285.08544 230.522922 
L 285.44256 183.669307 
L 285.79968 270.778956 
L 286.1568 273.043987 
L 286.51392 263.238214 
L 286.87104 282.649062 
L 287.22816 280.194563 
L 287.58528 282.408492 
L 287.9424 280.791832 
L 288.29952 265.12792 
L 288.65664 263.130014 
L 289.01376 169.095583 
L 289.37088 249.219851 
L 289.728 166.380864 
L 290.08512 284.863627 
L 290.79936 194.769149 
L 291.15648 275.188296 
L 291.5136 247.860314 
L 291.87072 277.917789 
L 292.22784 283.107817 
L 292.58496 266.475676 
L 292.94208 230.788923 
L 293.2992 175.094202 
L 293.65632 246.017532 
L 294.01344 242.281837 
L 294.37056 257.793835 
L 294.72768 281.690118 
L 295.0848 281.049683 
L 295.44192 279.29988 
L 295.79904 285.053423 
L 296.15616 276.927476 
L 296.51328 265.165358 
L 296.8704 267.634174 
L 297.22752 256.609632 
L 297.58464 258.460953 
L 297.94176 167.085287 
L 298.29888 245.774793 
L 298.656 247.786142 
L 299.01312 275.403068 
L 299.37024 221.557539 
L 299.72736 243.62705 
L 300.08448 207.526852 
L 300.4416 112.51057 
L 301.15584 238.088533 
L 301.51296 250.054088 
L 301.87008 180.740037 
L 302.2272 273.204304 
L 302.58432 264.866911 
L 302.94144 265.507594 
L 303.29856 283.589537 
L 303.65568 281.360245 
L 304.0128 282.692926 
L 304.36992 276.489283 
L 304.72704 266.529416 
L 305.08416 264.176715 
L 305.44128 202.709946 
L 305.7984 230.208639 
L 306.15552 163.076796 
L 306.51264 284.976638 
L 306.86976 238.298258 
L 307.22688 116.519569 
L 307.584 272.500878 
L 307.94112 227.391412 
L 308.29824 264.41166 
L 308.65536 284.034141 
L 309.01248 263.266258 
L 309.72672 177.49968 
L 310.08384 246.217061 
L 310.44096 237.739451 
L 310.79808 249.285488 
L 311.1552 281.548511 
L 311.51232 281.238926 
L 311.86944 276.808282 
L 312.22656 284.391298 
L 312.58368 277.140285 
L 312.9408 253.547987 
L 313.29792 270.295075 
L 313.65504 257.720563 
L 314.01216 258.231482 
L 314.36928 159.374549 
L 314.7264 218.116578 
L 315.08352 255.63525 
L 315.44064 234.063111 
L 315.79776 192.130046 
L 316.15488 176.646578 
L 316.512 199.42582 
L 316.86912 122.763409 
L 317.22624 197.0566 
L 317.58336 244.643791 
L 317.94048 220.115359 
L 318.2976 205.499574 
L 318.65472 272.769362 
L 319.01184 263.953511 
L 319.36896 259.188221 
L 319.72608 284.614336 
L 320.44032 280.234517 
L 320.79744 282.832924 
L 321.15456 282.310597 
L 321.51168 262.483726 
L 321.8688 166.812582 
L 322.58304 258.936402 
L 322.94016 285.216671 
L 323.29728 243.106717 
L 323.6544 130.534411 
L 324.01152 278.557503 
L 324.36864 241.074183 
L 324.72576 267.21273 
L 325.08288 284.053419 
L 325.79712 231.530485 
L 326.15424 169.093643 
L 326.51136 244.377815 
L 326.86848 238.275004 
L 327.2256 242.439056 
L 327.58272 280.160861 
L 328.29696 275.348907 
L 328.65408 281.111364 
L 329.0112 273.970354 
L 329.36832 258.548974 
L 329.72544 266.167899 
L 330.08256 270.581435 
L 330.43968 256.060133 
L 330.7968 141.784367 
L 331.15392 212.978432 
L 331.51104 253.333135 
L 331.86816 191.631554 
L 332.22528 225.448256 
L 332.5824 164.333169 
L 332.93952 241.397212 
L 333.29664 157.859337 
L 333.65376 186.571043 
L 334.01088 263.171123 
L 334.72512 168.879213 
L 335.08224 273.764729 
L 335.43936 271.170605 
L 335.79648 265.146182 
L 336.1536 284.712176 
L 336.51072 280.409392 
L 336.86784 279.935651 
L 337.22496 266.11127 
L 337.58208 266.062675 
L 337.9392 267.173667 
L 338.29632 139.325243 
L 338.65344 248.170228 
L 339.01056 195.326225 
L 339.36768 284.974465 
L 339.7248 248.18757 
L 340.08192 87.500346 
L 340.43904 278.778586 
L 340.79616 240.490705 
L 341.15328 257.748931 
L 341.5104 285.31593 
L 341.86752 225.332054 
L 342.22464 213.407973 
L 342.58176 175.909367 
L 342.93888 264.770866 
L 343.296 233.384879 
L 343.65312 247.369024 
L 344.01024 279.422327 
L 344.36736 283.488897 
L 344.72448 274.236906 
L 345.0816 282.448361 
L 345.43872 279.221297 
L 345.79584 262.096929 
L 346.15296 271.018308 
L 346.51008 254.790967 
L 346.8672 257.760988 
L 347.22432 193.520467 
L 347.58144 253.256395 
L 347.93856 263.216935 
L 348.29568 283.197054 
L 348.6528 202.843499 
L 349.00992 206.624076 
L 349.36704 217.897745 
L 349.72416 162.503065 
L 350.08128 274.490982 
L 350.4384 243.675782 
L 350.79552 234.708235 
L 351.15264 218.663272 
L 351.50976 275.747367 
L 351.86688 266.946804 
L 352.224 268.930152 
L 352.58112 284.256929 
L 352.93824 280.627911 
L 353.29536 279.662148 
L 353.65248 264.020611 
L 354.0096 262.15656 
L 354.36672 263.388035 
L 354.72384 153.310569 
L 355.08096 230.2526 
L 355.43808 152.825757 
L 355.7952 284.936275 
L 356.15232 248.002126 
L 356.50944 152.399454 
L 356.86656 274.762937 
L 357.22368 219.889466 
L 357.5808 269.251059 
L 357.93792 283.316103 
L 358.29504 281.389526 
L 359.00928 175.282312 
L 359.3664 260.436321 
L 359.72352 285.408 
L 360.08064 254.491699 
L 360.43776 281.921672 
L 360.79488 280.359897 
L 361.152 277.946558 
L 361.50912 283.718658 
L 361.86624 267.353585 
L 362.22336 264.492574 
L 362.58048 270.398213 
L 363.29472 259.13039 
L 363.65184 181.882501 
L 364.00896 208.135857 
L 364.36608 252.823328 
L 364.7232 255.588553 
L 365.08032 194.193432 
L 365.43744 235.795 
L 365.79456 256.089369 
L 366.15168 126.898597 
L 366.86592 245.342868 
L 367.22304 236.572915 
L 367.58016 198.089681 
L 367.93728 273.93171 
L 368.2944 261.311942 
L 368.65152 265.395532 
L 369.00864 283.006046 
L 369.36576 279.942372 
L 369.72288 284.457977 
L 370.08 269.012531 
L 370.43712 262.497305 
L 370.79424 262.469928 
L 371.15136 285.408 
L 371.50848 194.993108 
L 371.8656 152.227545 
L 372.22272 284.96282 
L 372.93696 127.231373 
L 373.29408 277.736175 
L 374.00832 239.335618 
L 374.36544 281.798072 
L 374.72256 220.67926 
L 375.07968 266.038461 
L 375.4368 193.632327 
L 375.79392 248.140249 
L 376.15104 241.639501 
L 376.50816 243.734588 
L 376.86528 280.028952 
L 377.2224 277.54872 
L 377.57952 274.285457 
L 377.93664 284.525044 
L 378.29376 278.248269 
L 378.65088 232.37889 
L 379.008 268.943318 
L 379.36512 258.664303 
L 379.72224 257.870178 
L 380.07936 197.048408 
L 380.43648 220.504265 
L 380.7936 267.358352 
L 381.15072 281.219112 
L 381.50784 159.80802 
L 381.86496 227.136336 
L 382.22208 263.062249 
L 382.5792 285.408 
L 382.93632 205.449242 
L 383.29344 244.366175 
L 383.65056 258.23502 
L 384.00768 185.743797 
L 384.3648 267.861301 
L 384.72192 270.813434 
L 385.07904 265.40737 
L 385.43616 283.885419 
L 385.79328 284.726686 
L 386.1504 281.644234 
L 386.50752 280.181753 
L 386.86464 263.116716 
L 387.22176 265.173663 
L 387.57888 171.575801 
L 387.936 253.847105 
L 388.29312 160.904316 
L 388.65024 285.020388 
L 389.00736 253.633012 
L 389.36448 141.456732 
L 389.7216 277.207376 
L 390.07872 209.126667 
L 390.43584 276.005986 
L 390.79296 283.726053 
L 391.15008 222.402926 
L 391.5072 241.542425 
L 391.86432 178.412806 
L 392.22144 256.733743 
L 392.57856 245.567334 
L 392.93568 246.913444 
L 393.2928 284.264172 
L 394.00704 277.975317 
L 394.36416 281.701123 
L 394.72128 279.071249 
L 395.0784 268.919834 
L 395.43552 270.877427 
L 395.79264 259.391804 
L 396.14976 255.344632 
L 396.50688 136.544921 
L 396.864 132.98463 
L 397.22112 244.760371 
L 397.57824 245.262619 
L 397.93536 207.628964 
L 398.29248 231.861838 
L 398.6496 241.270811 
L 399.00672 107.572887 
L 399.36384 174.032739 
L 399.72096 262.004596 
L 400.07808 248.489058 
L 400.4352 212.707459 
L 400.79232 274.260579 
L 401.14944 269.803925 
L 401.50656 268.938797 
L 401.86368 285.23889 
L 402.2208 280.289984 
L 402.57792 281.729883 
L 402.93504 275.313865 
L 403.29216 266.75507 
L 403.64928 264.302747 
L 404.0064 191.038095 
L 404.36352 238.797247 
L 404.72064 157.476265 
L 405.07776 284.915288 
L 405.792 185.52424 
L 406.14912 282.499058 
L 406.50624 222.011143 
L 406.86336 266.881592 
L 407.22048 282.238348 
L 407.5776 255.174223 
L 407.93472 259.109658 
L 408.29184 137.949616 
L 408.64896 253.816236 
L 409.00608 261.263263 
L 409.3632 250.801441 
L 409.72032 280.417565 
L 410.07744 278.815938 
L 410.43456 281.244072 
L 410.79168 280.887515 
L 411.1488 277.508001 
L 411.50592 252.392065 
L 411.86304 273.976587 
L 412.22016 261.183601 
L 412.57728 258.841311 
L 412.9344 154.875672 
L 413.29152 151.104405 
L 413.64864 251.997719 
L 414.00576 268.422093 
L 414.36288 177.460755 
L 414.36288 177.460755 
" clip-path="url(#pa118b2e45f)" style="fill: none; stroke: #0000ff; stroke-width: 1.5; stroke-linecap: square"/>
   </g>
   <g id="patch_3">
    <path d="M 57.6 307.584 
L 57.6 41.472 
" style="fill: none; stroke: #000000; stroke-width: 0.8; stroke-linejoin: miter; stroke-linecap: square"/>
   </g>
   <g id="patch_4">
    <path d="M 414.72 307.584 
L 414.72 41.472 
" style="fill: none; stroke: #000000; stroke-width: 0.8; stroke-linejoin: miter; stroke-linecap: square"/>
   </g>
   <g id="patch_5">
    <path d="M 57.6 307.584 
L 414.72 307.584 
" style="fill: none; stroke: #000000; stroke-width: 0.8; stroke-linejoin: miter; stroke-linecap: square"/>
   </g>
   <g id="patch_6">
    <path d="M 57.6 41.472 
L 414.72 41.472 
" style="fill: none; stroke: #000000; stroke-width: 0.8; stroke-linejoin: miter; stroke-linecap: square"/>
   </g>
   <g id="legend_1">
    <g id="patch_7">
     <path d="M 202.8825 77.757 
L 403.52 77.757 
Q 406.72 77.757 406.72 74.557 
L 406.72 52.672 
Q 406.72 49.472 403.52 49.472 
L 202.8825 49.472 
Q 199.6825 49.472 199.6825 52.672 
L 199.6825 74.557 
Q 199.6825 77.757 202.8825 77.757 
z
" style="fill: #ffffff; opacity: 0.8; stroke: #cccccc; stroke-linejoin: miter"/>
    </g>
    <g id="line2d_22">
     <path d="M 206.0825 62.4295 
L 222.0825 62.4295 
L 238.0825 62.4295 
" style="fill: none; stroke: #0000ff; stroke-width: 1.5; stroke-linecap: square"/>
    </g>
    <g id="text_13">
     <!-- cumulative reward -->
     <g transform="translate(250.8825 68.0295)scale(0.16 -0.16)">
      <defs>
       <path id="DejaVuSans-63" d="M 3122 3366 
L 3122 2828 
Q 2878 2963 2633 3030 
Q 2388 3097 2138 3097 
Q 1578 3097 1268 2742 
Q 959 2388 959 1747 
Q 959 1106 1268 751 
Q 1578 397 2138 397 
Q 2388 397 2633 464 
Q 2878 531 3122 666 
L 3122 134 
Q 2881 22 2623 -34 
Q 2366 -91 2075 -91 
Q 1284 -91 818 406 
Q 353 903 353 1747 
Q 353 2603 823 3093 
Q 1294 3584 2113 3584 
Q 2378 3584 2631 3529 
Q 2884 3475 3122 3366 
z
" transform="scale(0.015625)"/>
      </defs>
      <use xlink:href="#DejaVuSans-63"/>
      <use xlink:href="#DejaVuSans-75" x="54.980469"/>
      <use xlink:href="#DejaVuSans-6d" x="118.359375"/>
      <use xlink:href="#DejaVuSans-75" x="215.771484"/>
      <use xlink:href="#DejaVuSans-6c" x="279.150391"/>
      <use xlink:href="#DejaVuSans-61" x="306.933594"/>
      <use xlink:href="#DejaVuSans-74" x="368.212891"/>
      <use xlink:href="#DejaVuSans-69" x="407.421875"/>
      <use xlink:href="#DejaVuSans-76" x="435.205078"/>
      <use xlink:href="#DejaVuSans-65" x="494.384766"/>
      <use xlink:href="#DejaVuSans-20" x="555.908203"/>
      <use xlink:href="#DejaVuSans-72" x="587.695312"/>
      <use xlink:href="#DejaVuSans-65" x="626.558594"/>
      <use xlink:href="#DejaVuSans-77" x="688.082031"/>
      <use xlink:href="#DejaVuSans-61" x="769.869141"/>
      <use xlink:href="#DejaVuSans-72" x="831.148438"/>
      <use xlink:href="#DejaVuSans-64" x="870.511719"/>
     </g>
    </g>
   </g>
  </g>
 </g>
 <defs>
  <clipPath id="pa118b2e45f">
   <rect x="57.6" y="41.472" width="357.12" height="266.112"/>
  </clipPath>
 </defs>
</svg>
