<?xml version="1.0" encoding="utf-8" standalone="no"?>
<!DOCTYPE svg PUBLIC "-//W3C//DTD SVG 1.1//EN"
  "http://www.w3.org/Graphics/SVG/1.1/DTD/svg11.dtd">
<svg height="345.6pt" version="1.1" viewBox="0 0 460.8 345.6" width="460.8pt" xmlns="http://www.w3.org/2000/svg" xmlns:xlink="http://www.w3.org/1999/xlink">
 <metadata>
  <rdf:RDF xmlns:cc="http://creativecommons.org/ns#" xmlns:dc="http://purl.org/dc/elements/1.1/" xmlns:rdf="http://www.w3.org/1999/02/22-rdf-syntax-ns#">
   <cc:Work>
    <dc:type rdf:resource="http://purl.org/dc/dcmitype/StillImage"/>
    <dc:date>2021-11-04T11:37:17.732008</dc:date>
    <dc:description>{"agent.algorithm": "RayProximalPolicyOptimization", "agent.algorithm.render_env": false, "agent.algorithm.num_workers": 0, "agent.algorithm.batch_mode": "complete_episodes", "agent.algorithm.lr": 1e-05, "agent.algorithm.train_batch_size": 200, "agent.algorithm.optimizer": "Adam", "agent.algorithm.vf_clip_param": 100, "agent.algorithm.model": {"fcnet_activation": "tanh", "fcnet_hiddens": [30, 30]}, "env.env_class": "SchedulerPolicyRayEnvironment", "env.env_config": {"solver_driver": "CMAdriver", "solver_driver_args": [5, 10, 21, 0.5], "maximize": false, "steps": 50, "state_metrics_names": ["DifferenceOfBest", "SolverStateHistory"], "state_metrics_config": [[40, false, 1, true, false], [{"step_size": {"max": 3, "min": 0}}, 40]], "reward_metric": "Best", "reward_metric_config": [false, false], "memes_no": 1, "action_space_config": {"step_size": {"max": 3, "min": 1e-10}}}}</dc:description>
    <dc:format>image/svg+xml</dc:format>
    <dc:creator>
     <cc:Agent>
      <dc:title>Matplotlib v3.4.3, https://matplotlib.org/</dc:title>
     </cc:Agent>
    </dc:creator>
   </cc:Work>
  </rdf:RDF>
 </metadata>
 <defs>
  <style type="text/css">*{stroke-linecap:butt;stroke-linejoin:round;}</style>
 </defs>
 <g id="figure_1">
  <g id="patch_1">
   <path d="M 0 345.6 
L 460.8 345.6 
L 460.8 0 
L 0 0 
z
" style="fill:#ffffff;"/>
  </g>
  <g id="axes_1">
   <g id="patch_2">
    <path d="M 57.6 307.584 
L 414.72 307.584 
L 414.72 41.472 
L 57.6 41.472 
z
" style="fill:#ffffff;"/>
   </g>
   <g id="matplotlib.axis_1">
    <g id="xtick_1">
     <g id="line2d_1">
      <path clip-path="url(#p6f2757f3b7)" d="M 57.6 307.584 
L 57.6 41.472 
" style="fill:none;stroke:#b0b0b0;stroke-linecap:square;stroke-width:0.8;"/>
     </g>
     <g id="line2d_2">
      <defs>
       <path d="M 0 0 
L 0 3.5 
" id="m46b9cf66e1" style="stroke:#000000;stroke-width:0.8;"/>
      </defs>
      <g>
       <use style="stroke:#000000;stroke-width:0.8;" x="57.6" xlink:href="#m46b9cf66e1" y="307.584"/>
      </g>
     </g>
     <g id="text_1">
      <!-- 0 -->
      <g transform="translate(52.51 326.7415)scale(0.16 -0.16)">
       <defs>
        <path d="M 2034 4250 
Q 1547 4250 1301 3770 
Q 1056 3291 1056 2328 
Q 1056 1369 1301 889 
Q 1547 409 2034 409 
Q 2525 409 2770 889 
Q 3016 1369 3016 2328 
Q 3016 3291 2770 3770 
Q 2525 4250 2034 4250 
z
M 2034 4750 
Q 2819 4750 3233 4129 
Q 3647 3509 3647 2328 
Q 3647 1150 3233 529 
Q 2819 -91 2034 -91 
Q 1250 -91 836 529 
Q 422 1150 422 2328 
Q 422 3509 836 4129 
Q 1250 4750 2034 4750 
z
" id="DejaVuSans-30" transform="scale(0.015625)"/>
       </defs>
       <use xlink:href="#DejaVuSans-30"/>
      </g>
     </g>
    </g>
    <g id="xtick_2">
     <g id="line2d_3">
      <path clip-path="url(#p6f2757f3b7)" d="M 146.88 307.584 
L 146.88 41.472 
" style="fill:none;stroke:#b0b0b0;stroke-linecap:square;stroke-width:0.8;"/>
     </g>
     <g id="line2d_4">
      <g>
       <use style="stroke:#000000;stroke-width:0.8;" x="146.88" xlink:href="#m46b9cf66e1" y="307.584"/>
      </g>
     </g>
     <g id="text_2">
      <!-- 1000 -->
      <g transform="translate(126.52 326.7415)scale(0.16 -0.16)">
       <defs>
        <path d="M 794 531 
L 1825 531 
L 1825 4091 
L 703 3866 
L 703 4441 
L 1819 4666 
L 2450 4666 
L 2450 531 
L 3481 531 
L 3481 0 
L 794 0 
L 794 531 
z
" id="DejaVuSans-31" transform="scale(0.015625)"/>
       </defs>
       <use xlink:href="#DejaVuSans-31"/>
       <use x="63.623047" xlink:href="#DejaVuSans-30"/>
       <use x="127.246094" xlink:href="#DejaVuSans-30"/>
       <use x="190.869141" xlink:href="#DejaVuSans-30"/>
      </g>
     </g>
    </g>
    <g id="xtick_3">
     <g id="line2d_5">
      <path clip-path="url(#p6f2757f3b7)" d="M 236.16 307.584 
L 236.16 41.472 
" style="fill:none;stroke:#b0b0b0;stroke-linecap:square;stroke-width:0.8;"/>
     </g>
     <g id="line2d_6">
      <g>
       <use style="stroke:#000000;stroke-width:0.8;" x="236.16" xlink:href="#m46b9cf66e1" y="307.584"/>
      </g>
     </g>
     <g id="text_3">
      <!-- 2000 -->
      <g transform="translate(215.8 326.7415)scale(0.16 -0.16)">
       <defs>
        <path d="M 1228 531 
L 3431 531 
L 3431 0 
L 469 0 
L 469 531 
Q 828 903 1448 1529 
Q 2069 2156 2228 2338 
Q 2531 2678 2651 2914 
Q 2772 3150 2772 3378 
Q 2772 3750 2511 3984 
Q 2250 4219 1831 4219 
Q 1534 4219 1204 4116 
Q 875 4013 500 3803 
L 500 4441 
Q 881 4594 1212 4672 
Q 1544 4750 1819 4750 
Q 2544 4750 2975 4387 
Q 3406 4025 3406 3419 
Q 3406 3131 3298 2873 
Q 3191 2616 2906 2266 
Q 2828 2175 2409 1742 
Q 1991 1309 1228 531 
z
" id="DejaVuSans-32" transform="scale(0.015625)"/>
       </defs>
       <use xlink:href="#DejaVuSans-32"/>
       <use x="63.623047" xlink:href="#DejaVuSans-30"/>
       <use x="127.246094" xlink:href="#DejaVuSans-30"/>
       <use x="190.869141" xlink:href="#DejaVuSans-30"/>
      </g>
     </g>
    </g>
    <g id="xtick_4">
     <g id="line2d_7">
      <path clip-path="url(#p6f2757f3b7)" d="M 325.44 307.584 
L 325.44 41.472 
" style="fill:none;stroke:#b0b0b0;stroke-linecap:square;stroke-width:0.8;"/>
     </g>
     <g id="line2d_8">
      <g>
       <use style="stroke:#000000;stroke-width:0.8;" x="325.44" xlink:href="#m46b9cf66e1" y="307.584"/>
      </g>
     </g>
     <g id="text_4">
      <!-- 3000 -->
      <g transform="translate(305.08 326.7415)scale(0.16 -0.16)">
       <defs>
        <path d="M 2597 2516 
Q 3050 2419 3304 2112 
Q 3559 1806 3559 1356 
Q 3559 666 3084 287 
Q 2609 -91 1734 -91 
Q 1441 -91 1130 -33 
Q 819 25 488 141 
L 488 750 
Q 750 597 1062 519 
Q 1375 441 1716 441 
Q 2309 441 2620 675 
Q 2931 909 2931 1356 
Q 2931 1769 2642 2001 
Q 2353 2234 1838 2234 
L 1294 2234 
L 1294 2753 
L 1863 2753 
Q 2328 2753 2575 2939 
Q 2822 3125 2822 3475 
Q 2822 3834 2567 4026 
Q 2313 4219 1838 4219 
Q 1578 4219 1281 4162 
Q 984 4106 628 3988 
L 628 4550 
Q 988 4650 1302 4700 
Q 1616 4750 1894 4750 
Q 2613 4750 3031 4423 
Q 3450 4097 3450 3541 
Q 3450 3153 3228 2886 
Q 3006 2619 2597 2516 
z
" id="DejaVuSans-33" transform="scale(0.015625)"/>
       </defs>
       <use xlink:href="#DejaVuSans-33"/>
       <use x="63.623047" xlink:href="#DejaVuSans-30"/>
       <use x="127.246094" xlink:href="#DejaVuSans-30"/>
       <use x="190.869141" xlink:href="#DejaVuSans-30"/>
      </g>
     </g>
    </g>
    <g id="xtick_5">
     <g id="line2d_9">
      <path clip-path="url(#p6f2757f3b7)" d="M 414.72 307.584 
L 414.72 41.472 
" style="fill:none;stroke:#b0b0b0;stroke-linecap:square;stroke-width:0.8;"/>
     </g>
     <g id="line2d_10">
      <g>
       <use style="stroke:#000000;stroke-width:0.8;" x="414.72" xlink:href="#m46b9cf66e1" y="307.584"/>
      </g>
     </g>
     <g id="text_5">
      <!-- 4000 -->
      <g transform="translate(394.36 326.7415)scale(0.16 -0.16)">
       <defs>
        <path d="M 2419 4116 
L 825 1625 
L 2419 1625 
L 2419 4116 
z
M 2253 4666 
L 3047 4666 
L 3047 1625 
L 3713 1625 
L 3713 1100 
L 3047 1100 
L 3047 0 
L 2419 0 
L 2419 1100 
L 313 1100 
L 313 1709 
L 2253 4666 
z
" id="DejaVuSans-34" transform="scale(0.015625)"/>
       </defs>
       <use xlink:href="#DejaVuSans-34"/>
       <use x="63.623047" xlink:href="#DejaVuSans-30"/>
       <use x="127.246094" xlink:href="#DejaVuSans-30"/>
       <use x="190.869141" xlink:href="#DejaVuSans-30"/>
      </g>
     </g>
    </g>
    <g id="text_6">
     <!-- Episodes -->
     <g transform="translate(200.5725 346.2265)scale(0.16 -0.16)">
      <defs>
       <path d="M 628 4666 
L 3578 4666 
L 3578 4134 
L 1259 4134 
L 1259 2753 
L 3481 2753 
L 3481 2222 
L 1259 2222 
L 1259 531 
L 3634 531 
L 3634 0 
L 628 0 
L 628 4666 
z
" id="DejaVuSans-45" transform="scale(0.015625)"/>
       <path d="M 1159 525 
L 1159 -1331 
L 581 -1331 
L 581 3500 
L 1159 3500 
L 1159 2969 
Q 1341 3281 1617 3432 
Q 1894 3584 2278 3584 
Q 2916 3584 3314 3078 
Q 3713 2572 3713 1747 
Q 3713 922 3314 415 
Q 2916 -91 2278 -91 
Q 1894 -91 1617 61 
Q 1341 213 1159 525 
z
M 3116 1747 
Q 3116 2381 2855 2742 
Q 2594 3103 2138 3103 
Q 1681 3103 1420 2742 
Q 1159 2381 1159 1747 
Q 1159 1113 1420 752 
Q 1681 391 2138 391 
Q 2594 391 2855 752 
Q 3116 1113 3116 1747 
z
" id="DejaVuSans-70" transform="scale(0.015625)"/>
       <path d="M 603 3500 
L 1178 3500 
L 1178 0 
L 603 0 
L 603 3500 
z
M 603 4863 
L 1178 4863 
L 1178 4134 
L 603 4134 
L 603 4863 
z
" id="DejaVuSans-69" transform="scale(0.015625)"/>
       <path d="M 2834 3397 
L 2834 2853 
Q 2591 2978 2328 3040 
Q 2066 3103 1784 3103 
Q 1356 3103 1142 2972 
Q 928 2841 928 2578 
Q 928 2378 1081 2264 
Q 1234 2150 1697 2047 
L 1894 2003 
Q 2506 1872 2764 1633 
Q 3022 1394 3022 966 
Q 3022 478 2636 193 
Q 2250 -91 1575 -91 
Q 1294 -91 989 -36 
Q 684 19 347 128 
L 347 722 
Q 666 556 975 473 
Q 1284 391 1588 391 
Q 1994 391 2212 530 
Q 2431 669 2431 922 
Q 2431 1156 2273 1281 
Q 2116 1406 1581 1522 
L 1381 1569 
Q 847 1681 609 1914 
Q 372 2147 372 2553 
Q 372 3047 722 3315 
Q 1072 3584 1716 3584 
Q 2034 3584 2315 3537 
Q 2597 3491 2834 3397 
z
" id="DejaVuSans-73" transform="scale(0.015625)"/>
       <path d="M 1959 3097 
Q 1497 3097 1228 2736 
Q 959 2375 959 1747 
Q 959 1119 1226 758 
Q 1494 397 1959 397 
Q 2419 397 2687 759 
Q 2956 1122 2956 1747 
Q 2956 2369 2687 2733 
Q 2419 3097 1959 3097 
z
M 1959 3584 
Q 2709 3584 3137 3096 
Q 3566 2609 3566 1747 
Q 3566 888 3137 398 
Q 2709 -91 1959 -91 
Q 1206 -91 779 398 
Q 353 888 353 1747 
Q 353 2609 779 3096 
Q 1206 3584 1959 3584 
z
" id="DejaVuSans-6f" transform="scale(0.015625)"/>
       <path d="M 2906 2969 
L 2906 4863 
L 3481 4863 
L 3481 0 
L 2906 0 
L 2906 525 
Q 2725 213 2448 61 
Q 2172 -91 1784 -91 
Q 1150 -91 751 415 
Q 353 922 353 1747 
Q 353 2572 751 3078 
Q 1150 3584 1784 3584 
Q 2172 3584 2448 3432 
Q 2725 3281 2906 2969 
z
M 947 1747 
Q 947 1113 1208 752 
Q 1469 391 1925 391 
Q 2381 391 2643 752 
Q 2906 1113 2906 1747 
Q 2906 2381 2643 2742 
Q 2381 3103 1925 3103 
Q 1469 3103 1208 2742 
Q 947 2381 947 1747 
z
" id="DejaVuSans-64" transform="scale(0.015625)"/>
       <path d="M 3597 1894 
L 3597 1613 
L 953 1613 
Q 991 1019 1311 708 
Q 1631 397 2203 397 
Q 2534 397 2845 478 
Q 3156 559 3463 722 
L 3463 178 
Q 3153 47 2828 -22 
Q 2503 -91 2169 -91 
Q 1331 -91 842 396 
Q 353 884 353 1716 
Q 353 2575 817 3079 
Q 1281 3584 2069 3584 
Q 2775 3584 3186 3129 
Q 3597 2675 3597 1894 
z
M 3022 2063 
Q 3016 2534 2758 2815 
Q 2500 3097 2075 3097 
Q 1594 3097 1305 2825 
Q 1016 2553 972 2059 
L 3022 2063 
z
" id="DejaVuSans-65" transform="scale(0.015625)"/>
      </defs>
      <use xlink:href="#DejaVuSans-45"/>
      <use x="63.183594" xlink:href="#DejaVuSans-70"/>
      <use x="126.660156" xlink:href="#DejaVuSans-69"/>
      <use x="154.443359" xlink:href="#DejaVuSans-73"/>
      <use x="206.542969" xlink:href="#DejaVuSans-6f"/>
      <use x="267.724609" xlink:href="#DejaVuSans-64"/>
      <use x="331.201172" xlink:href="#DejaVuSans-65"/>
      <use x="392.724609" xlink:href="#DejaVuSans-73"/>
     </g>
    </g>
   </g>
   <g id="matplotlib.axis_2">
    <g id="ytick_1">
     <g id="line2d_11">
      <path clip-path="url(#p6f2757f3b7)" d="M 57.6 274.14893 
L 414.72 274.14893 
" style="fill:none;stroke:#b0b0b0;stroke-linecap:square;stroke-width:0.8;"/>
     </g>
     <g id="line2d_12">
      <defs>
       <path d="M 0 0 
L -3.5 0 
" id="mc5bf1aeba1" style="stroke:#000000;stroke-width:0.8;"/>
      </defs>
      <g>
       <use style="stroke:#000000;stroke-width:0.8;" x="57.6" xlink:href="#mc5bf1aeba1" y="274.14893"/>
      </g>
     </g>
     <g id="text_7">
      <!-- −17500 -->
      <g transform="translate(-13.7075 280.22768)scale(0.16 -0.16)">
       <defs>
        <path d="M 678 2272 
L 4684 2272 
L 4684 1741 
L 678 1741 
L 678 2272 
z
" id="DejaVuSans-2212" transform="scale(0.015625)"/>
        <path d="M 525 4666 
L 3525 4666 
L 3525 4397 
L 1831 0 
L 1172 0 
L 2766 4134 
L 525 4134 
L 525 4666 
z
" id="DejaVuSans-37" transform="scale(0.015625)"/>
        <path d="M 691 4666 
L 3169 4666 
L 3169 4134 
L 1269 4134 
L 1269 2991 
Q 1406 3038 1543 3061 
Q 1681 3084 1819 3084 
Q 2600 3084 3056 2656 
Q 3513 2228 3513 1497 
Q 3513 744 3044 326 
Q 2575 -91 1722 -91 
Q 1428 -91 1123 -41 
Q 819 9 494 109 
L 494 744 
Q 775 591 1075 516 
Q 1375 441 1709 441 
Q 2250 441 2565 725 
Q 2881 1009 2881 1497 
Q 2881 1984 2565 2268 
Q 2250 2553 1709 2553 
Q 1456 2553 1204 2497 
Q 953 2441 691 2322 
L 691 4666 
z
" id="DejaVuSans-35" transform="scale(0.015625)"/>
       </defs>
       <use xlink:href="#DejaVuSans-2212"/>
       <use x="83.789062" xlink:href="#DejaVuSans-31"/>
       <use x="147.412109" xlink:href="#DejaVuSans-37"/>
       <use x="211.035156" xlink:href="#DejaVuSans-35"/>
       <use x="274.658203" xlink:href="#DejaVuSans-30"/>
       <use x="338.28125" xlink:href="#DejaVuSans-30"/>
      </g>
     </g>
    </g>
    <g id="ytick_2">
     <g id="line2d_13">
      <path clip-path="url(#p6f2757f3b7)" d="M 57.6 211.896047 
L 414.72 211.896047 
" style="fill:none;stroke:#b0b0b0;stroke-linecap:square;stroke-width:0.8;"/>
     </g>
     <g id="line2d_14">
      <g>
       <use style="stroke:#000000;stroke-width:0.8;" x="57.6" xlink:href="#mc5bf1aeba1" y="211.896047"/>
      </g>
     </g>
     <g id="text_8">
      <!-- −17000 -->
      <g transform="translate(-13.7075 217.974797)scale(0.16 -0.16)">
       <use xlink:href="#DejaVuSans-2212"/>
       <use x="83.789062" xlink:href="#DejaVuSans-31"/>
       <use x="147.412109" xlink:href="#DejaVuSans-37"/>
       <use x="211.035156" xlink:href="#DejaVuSans-30"/>
       <use x="274.658203" xlink:href="#DejaVuSans-30"/>
       <use x="338.28125" xlink:href="#DejaVuSans-30"/>
      </g>
     </g>
    </g>
    <g id="ytick_3">
     <g id="line2d_15">
      <path clip-path="url(#p6f2757f3b7)" d="M 57.6 149.643163 
L 414.72 149.643163 
" style="fill:none;stroke:#b0b0b0;stroke-linecap:square;stroke-width:0.8;"/>
     </g>
     <g id="line2d_16">
      <g>
       <use style="stroke:#000000;stroke-width:0.8;" x="57.6" xlink:href="#mc5bf1aeba1" y="149.643163"/>
      </g>
     </g>
     <g id="text_9">
      <!-- −16500 -->
      <g transform="translate(-13.7075 155.721913)scale(0.16 -0.16)">
       <defs>
        <path d="M 2113 2584 
Q 1688 2584 1439 2293 
Q 1191 2003 1191 1497 
Q 1191 994 1439 701 
Q 1688 409 2113 409 
Q 2538 409 2786 701 
Q 3034 994 3034 1497 
Q 3034 2003 2786 2293 
Q 2538 2584 2113 2584 
z
M 3366 4563 
L 3366 3988 
Q 3128 4100 2886 4159 
Q 2644 4219 2406 4219 
Q 1781 4219 1451 3797 
Q 1122 3375 1075 2522 
Q 1259 2794 1537 2939 
Q 1816 3084 2150 3084 
Q 2853 3084 3261 2657 
Q 3669 2231 3669 1497 
Q 3669 778 3244 343 
Q 2819 -91 2113 -91 
Q 1303 -91 875 529 
Q 447 1150 447 2328 
Q 447 3434 972 4092 
Q 1497 4750 2381 4750 
Q 2619 4750 2861 4703 
Q 3103 4656 3366 4563 
z
" id="DejaVuSans-36" transform="scale(0.015625)"/>
       </defs>
       <use xlink:href="#DejaVuSans-2212"/>
       <use x="83.789062" xlink:href="#DejaVuSans-31"/>
       <use x="147.412109" xlink:href="#DejaVuSans-36"/>
       <use x="211.035156" xlink:href="#DejaVuSans-35"/>
       <use x="274.658203" xlink:href="#DejaVuSans-30"/>
       <use x="338.28125" xlink:href="#DejaVuSans-30"/>
      </g>
     </g>
    </g>
    <g id="ytick_4">
     <g id="line2d_17">
      <path clip-path="url(#p6f2757f3b7)" d="M 57.6 87.390279 
L 414.72 87.390279 
" style="fill:none;stroke:#b0b0b0;stroke-linecap:square;stroke-width:0.8;"/>
     </g>
     <g id="line2d_18">
      <g>
       <use style="stroke:#000000;stroke-width:0.8;" x="57.6" xlink:href="#mc5bf1aeba1" y="87.390279"/>
      </g>
     </g>
     <g id="text_10">
      <!-- −16000 -->
      <g transform="translate(-13.7075 93.469029)scale(0.16 -0.16)">
       <use xlink:href="#DejaVuSans-2212"/>
       <use x="83.789062" xlink:href="#DejaVuSans-31"/>
       <use x="147.412109" xlink:href="#DejaVuSans-36"/>
       <use x="211.035156" xlink:href="#DejaVuSans-30"/>
       <use x="274.658203" xlink:href="#DejaVuSans-30"/>
       <use x="338.28125" xlink:href="#DejaVuSans-30"/>
      </g>
     </g>
    </g>
    <g id="text_11">
     <!-- Cumulative Reward -->
     <g transform="translate(-21.035 252.52425)rotate(-90)scale(0.16 -0.16)">
      <defs>
       <path d="M 4122 4306 
L 4122 3641 
Q 3803 3938 3442 4084 
Q 3081 4231 2675 4231 
Q 1875 4231 1450 3742 
Q 1025 3253 1025 2328 
Q 1025 1406 1450 917 
Q 1875 428 2675 428 
Q 3081 428 3442 575 
Q 3803 722 4122 1019 
L 4122 359 
Q 3791 134 3420 21 
Q 3050 -91 2638 -91 
Q 1578 -91 968 557 
Q 359 1206 359 2328 
Q 359 3453 968 4101 
Q 1578 4750 2638 4750 
Q 3056 4750 3426 4639 
Q 3797 4528 4122 4306 
z
" id="DejaVuSans-43" transform="scale(0.015625)"/>
       <path d="M 544 1381 
L 544 3500 
L 1119 3500 
L 1119 1403 
Q 1119 906 1312 657 
Q 1506 409 1894 409 
Q 2359 409 2629 706 
Q 2900 1003 2900 1516 
L 2900 3500 
L 3475 3500 
L 3475 0 
L 2900 0 
L 2900 538 
Q 2691 219 2414 64 
Q 2138 -91 1772 -91 
Q 1169 -91 856 284 
Q 544 659 544 1381 
z
M 1991 3584 
L 1991 3584 
z
" id="DejaVuSans-75" transform="scale(0.015625)"/>
       <path d="M 3328 2828 
Q 3544 3216 3844 3400 
Q 4144 3584 4550 3584 
Q 5097 3584 5394 3201 
Q 5691 2819 5691 2113 
L 5691 0 
L 5113 0 
L 5113 2094 
Q 5113 2597 4934 2840 
Q 4756 3084 4391 3084 
Q 3944 3084 3684 2787 
Q 3425 2491 3425 1978 
L 3425 0 
L 2847 0 
L 2847 2094 
Q 2847 2600 2669 2842 
Q 2491 3084 2119 3084 
Q 1678 3084 1418 2786 
Q 1159 2488 1159 1978 
L 1159 0 
L 581 0 
L 581 3500 
L 1159 3500 
L 1159 2956 
Q 1356 3278 1631 3431 
Q 1906 3584 2284 3584 
Q 2666 3584 2933 3390 
Q 3200 3197 3328 2828 
z
" id="DejaVuSans-6d" transform="scale(0.015625)"/>
       <path d="M 603 4863 
L 1178 4863 
L 1178 0 
L 603 0 
L 603 4863 
z
" id="DejaVuSans-6c" transform="scale(0.015625)"/>
       <path d="M 2194 1759 
Q 1497 1759 1228 1600 
Q 959 1441 959 1056 
Q 959 750 1161 570 
Q 1363 391 1709 391 
Q 2188 391 2477 730 
Q 2766 1069 2766 1631 
L 2766 1759 
L 2194 1759 
z
M 3341 1997 
L 3341 0 
L 2766 0 
L 2766 531 
Q 2569 213 2275 61 
Q 1981 -91 1556 -91 
Q 1019 -91 701 211 
Q 384 513 384 1019 
Q 384 1609 779 1909 
Q 1175 2209 1959 2209 
L 2766 2209 
L 2766 2266 
Q 2766 2663 2505 2880 
Q 2244 3097 1772 3097 
Q 1472 3097 1187 3025 
Q 903 2953 641 2809 
L 641 3341 
Q 956 3463 1253 3523 
Q 1550 3584 1831 3584 
Q 2591 3584 2966 3190 
Q 3341 2797 3341 1997 
z
" id="DejaVuSans-61" transform="scale(0.015625)"/>
       <path d="M 1172 4494 
L 1172 3500 
L 2356 3500 
L 2356 3053 
L 1172 3053 
L 1172 1153 
Q 1172 725 1289 603 
Q 1406 481 1766 481 
L 2356 481 
L 2356 0 
L 1766 0 
Q 1100 0 847 248 
Q 594 497 594 1153 
L 594 3053 
L 172 3053 
L 172 3500 
L 594 3500 
L 594 4494 
L 1172 4494 
z
" id="DejaVuSans-74" transform="scale(0.015625)"/>
       <path d="M 191 3500 
L 800 3500 
L 1894 563 
L 2988 3500 
L 3597 3500 
L 2284 0 
L 1503 0 
L 191 3500 
z
" id="DejaVuSans-76" transform="scale(0.015625)"/>
       <path id="DejaVuSans-20" transform="scale(0.015625)"/>
       <path d="M 2841 2188 
Q 3044 2119 3236 1894 
Q 3428 1669 3622 1275 
L 4263 0 
L 3584 0 
L 2988 1197 
Q 2756 1666 2539 1819 
Q 2322 1972 1947 1972 
L 1259 1972 
L 1259 0 
L 628 0 
L 628 4666 
L 2053 4666 
Q 2853 4666 3247 4331 
Q 3641 3997 3641 3322 
Q 3641 2881 3436 2590 
Q 3231 2300 2841 2188 
z
M 1259 4147 
L 1259 2491 
L 2053 2491 
Q 2509 2491 2742 2702 
Q 2975 2913 2975 3322 
Q 2975 3731 2742 3939 
Q 2509 4147 2053 4147 
L 1259 4147 
z
" id="DejaVuSans-52" transform="scale(0.015625)"/>
       <path d="M 269 3500 
L 844 3500 
L 1563 769 
L 2278 3500 
L 2956 3500 
L 3675 769 
L 4391 3500 
L 4966 3500 
L 4050 0 
L 3372 0 
L 2619 2869 
L 1863 0 
L 1184 0 
L 269 3500 
z
" id="DejaVuSans-77" transform="scale(0.015625)"/>
       <path d="M 2631 2963 
Q 2534 3019 2420 3045 
Q 2306 3072 2169 3072 
Q 1681 3072 1420 2755 
Q 1159 2438 1159 1844 
L 1159 0 
L 581 0 
L 581 3500 
L 1159 3500 
L 1159 2956 
Q 1341 3275 1631 3429 
Q 1922 3584 2338 3584 
Q 2397 3584 2469 3576 
Q 2541 3569 2628 3553 
L 2631 2963 
z
" id="DejaVuSans-72" transform="scale(0.015625)"/>
      </defs>
      <use xlink:href="#DejaVuSans-43"/>
      <use x="69.824219" xlink:href="#DejaVuSans-75"/>
      <use x="133.203125" xlink:href="#DejaVuSans-6d"/>
      <use x="230.615234" xlink:href="#DejaVuSans-75"/>
      <use x="293.994141" xlink:href="#DejaVuSans-6c"/>
      <use x="321.777344" xlink:href="#DejaVuSans-61"/>
      <use x="383.056641" xlink:href="#DejaVuSans-74"/>
      <use x="422.265625" xlink:href="#DejaVuSans-69"/>
      <use x="450.048828" xlink:href="#DejaVuSans-76"/>
      <use x="509.228516" xlink:href="#DejaVuSans-65"/>
      <use x="570.751953" xlink:href="#DejaVuSans-20"/>
      <use x="602.539062" xlink:href="#DejaVuSans-52"/>
      <use x="667.521484" xlink:href="#DejaVuSans-65"/>
      <use x="729.044922" xlink:href="#DejaVuSans-77"/>
      <use x="810.832031" xlink:href="#DejaVuSans-61"/>
      <use x="872.111328" xlink:href="#DejaVuSans-72"/>
      <use x="911.474609" xlink:href="#DejaVuSans-64"/>
     </g>
    </g>
   </g>
   <g id="line2d_19">
    <path clip-path="url(#p6f2757f3b7)" d="M 57.6 161.685887 
L 57.68928 102.816343 
L 57.77856 135.681373 
L 57.86784 82.854842 
L 57.95712 161.685887 
L 58.0464 102.816343 
L 58.13568 135.681373 
L 58.22496 82.854842 
L 58.31424 161.685887 
L 58.40352 102.816343 
L 58.4928 135.681373 
L 58.58208 82.854842 
L 58.67136 161.685887 
L 58.76064 102.816343 
L 58.84992 135.681373 
L 58.9392 82.854842 
L 59.02848 161.685887 
L 59.11776 102.816343 
L 59.20704 135.681373 
L 59.29632 82.854842 
L 59.3856 161.685887 
L 59.47488 102.816343 
L 59.56416 135.681373 
L 59.65344 82.854842 
L 59.74272 161.685887 
L 59.832 102.816343 
L 59.92128 135.681373 
L 60.01056 82.854842 
L 60.09984 161.685887 
L 60.18912 102.816343 
L 60.2784 135.681373 
L 60.36768 82.854842 
L 60.45696 161.685887 
L 60.54624 102.816343 
L 60.63552 135.681373 
L 60.7248 82.854842 
L 60.81408 161.685887 
L 60.90336 102.816343 
L 60.99264 135.681373 
L 61.08192 82.854842 
L 61.1712 161.685887 
L 61.26048 102.816343 
L 61.34976 135.681373 
L 61.43904 82.854842 
L 61.52832 161.685887 
L 61.6176 102.816343 
L 61.70688 135.681373 
L 61.79616 82.854842 
L 61.88544 161.685887 
L 61.97472 102.816343 
L 62.064 135.681373 
L 62.15328 82.854842 
L 62.24256 161.685887 
L 62.33184 102.816343 
L 62.42112 135.681373 
L 62.5104 82.854842 
L 62.59968 161.685887 
L 62.68896 102.816343 
L 62.77824 135.681373 
L 62.86752 82.854842 
L 62.9568 161.685887 
L 63.04608 102.816343 
L 63.13536 135.681373 
L 63.22464 82.854842 
L 63.31392 161.685887 
L 63.4032 102.816343 
L 63.49248 135.681373 
L 63.58176 82.854842 
L 63.67104 161.685887 
L 63.76032 102.816343 
L 63.8496 135.681373 
L 63.93888 82.854842 
L 64.02816 161.685887 
L 64.11744 102.816343 
L 64.20672 135.681373 
L 64.296 82.854842 
L 64.38528 161.685887 
L 64.47456 102.816343 
L 64.56384 135.681373 
L 64.65312 82.854842 
L 64.7424 161.685887 
L 64.83168 102.816343 
L 64.92096 135.681373 
L 65.01024 82.854842 
L 65.09952 161.685887 
L 65.1888 102.816343 
L 65.27808 135.681373 
L 65.36736 82.854842 
L 65.45664 161.685887 
L 65.54592 102.816343 
L 65.6352 135.681373 
L 65.72448 82.854842 
L 65.81376 161.685887 
L 65.90304 102.816343 
L 65.99232 135.681373 
L 66.0816 82.854842 
L 66.17088 161.685887 
L 66.26016 102.816343 
L 66.34944 135.681373 
L 66.43872 82.854842 
L 66.528 132.064201 
L 66.61728 87.463778 
L 66.70656 111.907047 
L 66.79584 92.959241 
L 67.06368 130.798644 
L 67.15296 116.412654 
L 67.24224 81.763189 
L 67.4208 161.965581 
L 67.51008 140.897502 
L 67.59936 140.975332 
L 67.68864 131.420064 
L 67.8672 173.892186 
L 67.95648 134.670985 
L 68.04576 158.495283 
L 68.13504 129.736759 
L 68.40288 200.588476 
L 68.49216 158.528163 
L 68.58144 177.109366 
L 68.76 130.480176 
L 68.84928 99.631432 
L 68.93856 176.598702 
L 69.02784 91.63878 
L 69.11712 102.38455 
L 69.2064 117.039517 
L 69.29568 167.672208 
L 69.38496 100.885261 
L 69.47424 149.218312 
L 69.56352 120.257916 
L 69.74208 136.8384 
L 69.83136 156.836982 
L 70.0992 98.213088 
L 70.18848 147.371723 
L 70.27776 145.895988 
L 70.36704 159.947238 
L 70.5456 109.935762 
L 70.63488 213.747282 
L 70.72416 170.092442 
L 70.81344 187.864188 
L 70.90272 142.320543 
L 70.992 181.519191 
L 71.17056 88.196362 
L 71.25984 124.973096 
L 71.34912 119.753928 
L 71.52768 145.682252 
L 71.61696 126.416607 
L 71.70624 161.261499 
L 71.79552 145.856118 
L 71.8848 103.706825 
L 71.97408 143.61458 
L 72.06336 104.277069 
L 72.15264 175.909553 
L 72.24192 120.073795 
L 72.3312 132.667288 
L 72.42048 214.032815 
L 72.50976 209.930961 
L 72.68832 97.304183 
L 72.7776 162.856477 
L 72.86688 83.327406 
L 72.95616 111.127653 
L 73.04544 97.705357 
L 73.224 209.518813 
L 73.31328 136.616197 
L 73.40256 143.796484 
L 73.49184 136.386571 
L 73.58112 92.911989 
L 73.6704 149.817435 
L 73.75968 143.428729 
L 73.84896 94.748396 
L 74.20608 197.166619 
L 74.47392 109.967419 
L 74.65248 84.876715 
L 74.83104 186.920243 
L 74.92032 156.487735 
L 75.0096 156.071349 
L 75.09888 132.548311 
L 75.18816 156.938905 
L 75.36672 102.725487 
L 75.456 152.556512 
L 75.63456 105.652149 
L 75.81312 146.775789 
L 75.99168 122.125464 
L 76.08096 153.501888 
L 76.17024 93.531538 
L 76.25952 107.953523 
L 76.3488 103.949515 
L 76.52736 195.542252 
L 76.61664 125.91967 
L 76.70592 138.576539 
L 76.7952 142.515154 
L 76.88448 113.369425 
L 77.06304 201.007572 
L 77.15232 142.955165 
L 77.2416 155.173266 
L 77.42016 138.903661 
L 77.50944 166.739383 
L 77.59872 96.992115 
L 77.688 142.790384 
L 77.77728 116.30986 
L 77.86656 162.813932 
L 77.95584 121.904032 
L 78.04512 195.308612 
L 78.1344 112.2599 
L 78.31296 142.020545 
L 78.40224 124.402007 
L 78.49152 172.35607 
L 78.5808 147.845232 
L 78.67008 85.983388 
L 78.84864 210.673645 
L 79.0272 104.494876 
L 79.11648 168.959366 
L 79.20576 160.222447 
L 79.29504 111.624512 
L 79.4736 160.922185 
L 79.56288 152.075506 
L 79.74144 102.958577 
L 79.83072 141.842292 
L 79.92 141.347528 
L 80.09856 175.738548 
L 80.18784 122.99418 
L 80.27712 134.899863 
L 80.3664 125.17955 
L 80.45568 80.611763 
L 80.72352 198.621705 
L 80.90208 71.713935 
L 80.99136 145.403556 
L 81.16992 120.641001 
L 81.2592 148.352049 
L 81.43776 81.26737 
L 81.61632 165.521236 
L 81.7056 190.120108 
L 81.79488 124.487436 
L 81.88416 169.748855 
L 81.97344 165.077844 
L 82.06272 110.83811 
L 82.152 117.738167 
L 82.24128 177.547324 
L 82.33056 161.010943 
L 82.41984 122.448121 
L 82.5984 162.966334 
L 82.68768 164.004976 
L 82.77696 198.656563 
L 82.95552 98.605758 
L 83.13408 111.350121 
L 83.31264 191.031127 
L 83.4912 86.31082 
L 83.58048 139.098333 
L 83.66976 133.215683 
L 83.75904 170.878101 
L 83.9376 135.081696 
L 84.02688 137.957654 
L 84.11616 212.364145 
L 84.384 123.247457 
L 84.47328 133.809705 
L 84.56256 175.712797 
L 84.65184 127.64909 
L 84.74112 138.395628 
L 84.8304 108.156413 
L 84.91968 175.8154 
L 85.00896 167.626535 
L 85.09824 108.147572 
L 85.18752 112.458878 
L 85.2768 107.31025 
L 85.36608 111.195381 
L 85.45536 107.174756 
L 85.54464 158.851071 
L 85.63392 104.094377 
L 85.81248 134.219173 
L 85.90176 110.738412 
L 85.99104 181.751337 
L 86.34816 87.128894 
L 86.43744 189.83869 
L 86.616 102.706213 
L 86.70528 122.77756 
L 86.79456 92.715632 
L 86.88384 127.332416 
L 86.97312 111.610705 
L 87.0624 162.051265 
L 87.24096 70.454068 
L 87.33024 176.846568 
L 87.41952 146.617264 
L 87.5088 167.797413 
L 87.68736 112.956856 
L 87.77664 178.768316 
L 87.86592 90.514089 
L 88.04448 173.08815 
L 88.22304 134.020529 
L 88.4016 160.632067 
L 88.58016 113.048975 
L 88.66944 197.222231 
L 88.75872 179.459302 
L 88.848 112.635365 
L 88.93728 168.905934 
L 89.02656 116.80776 
L 89.20512 148.520859 
L 89.38368 121.454686 
L 89.47296 129.322233 
L 89.65152 188.166839 
L 89.83008 99.666161 
L 90.09792 165.25499 
L 90.1872 110.486326 
L 90.27648 144.062359 
L 90.45504 114.275824 
L 90.54432 151.845356 
L 90.6336 110.6814 
L 90.72288 110.854193 
L 90.90144 154.683101 
L 90.99072 122.704721 
L 91.16928 192.681126 
L 91.34784 121.373935 
L 91.43712 111.310794 
L 91.5264 114.779542 
L 91.61568 193.601145 
L 91.79424 129.237628 
L 91.88352 90.927651 
L 91.9728 179.821477 
L 92.06208 140.448361 
L 92.15136 168.955751 
L 92.32992 134.303119 
L 92.4192 200.193788 
L 92.50848 196.329432 
L 92.68704 129.047775 
L 92.77632 177.897677 
L 92.8656 146.860061 
L 92.95488 166.396772 
L 93.13344 100.298347 
L 93.312 198.674952 
L 93.49056 117.027106 
L 93.57984 153.687207 
L 93.66912 132.521509 
L 93.7584 143.572925 
L 93.93696 88.045736 
L 94.11552 142.09268 
L 94.2048 111.135692 
L 94.29408 126.262159 
L 94.47264 105.28047 
L 94.56192 114.202994 
L 94.6512 84.886334 
L 95.00832 121.850935 
L 95.0976 167.062973 
L 95.27616 88.469697 
L 95.36544 173.876505 
L 95.45472 164.141778 
L 95.544 95.808085 
L 95.63328 190.050682 
L 95.90112 107.145068 
L 95.9904 163.087047 
L 96.07968 111.922096 
L 96.16896 124.839437 
L 96.34752 158.403711 
L 96.4368 105.69181 
L 96.52608 115.788618 
L 96.61536 195.865044 
L 96.79392 97.08402 
L 96.8832 232.767445 
L 97.06176 102.573886 
L 97.15104 151.058147 
L 97.3296 116.792481 
L 97.41888 158.043429 
L 97.776 96.424173 
L 97.86528 205.558936 
L 98.04384 125.318902 
L 98.2224 193.135578 
L 98.40096 104.38005 
L 98.49024 103.569661 
L 98.57952 174.826673 
L 98.6688 118.207418 
L 98.75808 161.536103 
L 98.84736 115.681173 
L 98.93664 120.764877 
L 99.1152 141.097733 
L 99.20448 135.487957 
L 99.38304 92.664059 
L 99.47232 95.682256 
L 99.65088 132.747156 
L 99.74016 117.823764 
L 99.82944 134.155273 
L 99.91872 225.949454 
L 100.09728 108.616135 
L 100.18656 145.231352 
L 100.27584 100.749436 
L 100.36512 213.381729 
L 100.4544 122.86985 
L 100.63296 213.699217 
L 100.72224 127.258163 
L 100.81152 178.175055 
L 100.9008 165.921921 
L 100.99008 147.41102 
L 101.07936 98.306792 
L 101.16864 190.824328 
L 101.3472 100.323784 
L 101.52576 147.201771 
L 101.61504 119.276694 
L 101.88288 190.689118 
L 101.97216 136.570698 
L 102.06144 193.92766 
L 102.32928 91.182684 
L 102.41856 186.061575 
L 102.50784 86.787344 
L 102.59712 231.152184 
L 102.77568 102.685264 
L 102.86496 152.860062 
L 103.04352 108.354956 
L 103.1328 157.510847 
L 103.22208 84.324406 
L 103.31136 134.370476 
L 103.40064 126.182043 
L 103.48992 133.564455 
L 103.5792 99.997372 
L 103.66848 129.374623 
L 103.75776 73.811669 
L 103.84704 76.177819 
L 104.0256 224.430211 
L 104.11488 185.435544 
L 104.20416 99.351359 
L 104.29344 158.383696 
L 104.38272 121.685896 
L 104.472 196.582184 
L 104.65056 93.297777 
L 104.73984 153.984603 
L 104.82912 123.343342 
L 104.9184 125.70024 
L 105.00768 223.436689 
L 105.18624 120.681969 
L 105.3648 160.345631 
L 105.45408 139.1713 
L 105.54336 188.989484 
L 105.63264 93.760917 
L 105.72192 139.15001 
L 105.8112 84.728691 
L 106.07904 121.946746 
L 106.16832 118.266697 
L 106.34688 106.957255 
L 106.43616 125.108975 
L 106.52544 105.963762 
L 106.61472 191.457904 
L 106.79328 112.534861 
L 106.88256 144.639991 
L 106.97184 104.046308 
L 107.06112 173.837541 
L 107.1504 120.504589 
L 107.23968 171.002968 
L 107.50752 86.142524 
L 107.5968 102.605931 
L 107.68608 173.703228 
L 107.77536 84.628829 
L 107.86464 149.165151 
L 107.95392 142.140491 
L 108.0432 157.998761 
L 108.13248 211.760557 
L 108.31104 118.036625 
L 108.40032 162.421951 
L 108.57888 116.008459 
L 108.66816 192.0824 
L 108.75744 148.830221 
L 108.84672 160.718078 
L 109.02528 86.967966 
L 109.11456 173.594014 
L 109.20384 94.534263 
L 109.29312 159.479563 
L 109.3824 105.63534 
L 109.47168 202.871798 
L 109.65024 95.578997 
L 109.91808 159.684305 
L 110.00736 133.957581 
L 110.09664 154.508411 
L 110.2752 111.118586 
L 110.36448 129.915926 
L 110.45376 187.294964 
L 110.63232 98.834553 
L 110.7216 115.57866 
L 110.81088 209.622758 
L 110.90016 205.802652 
L 110.98944 114.382134 
L 111.07872 171.606634 
L 111.25728 107.018741 
L 111.34656 208.097691 
L 111.43584 91.41544 
L 111.52512 230.53173 
L 111.70368 132.060749 
L 111.79296 157.785219 
L 111.88224 101.705768 
L 111.97152 129.681628 
L 112.0608 113.950625 
L 112.15008 132.107565 
L 112.32864 87.601773 
L 112.41792 202.094344 
L 112.68576 83.606598 
L 112.86432 137.387779 
L 112.9536 121.066028 
L 113.22144 173.110114 
L 113.48928 83.844893 
L 113.66784 175.854319 
L 113.75712 89.694146 
L 113.8464 157.103931 
L 114.02496 109.83145 
L 114.20352 239.329508 
L 114.2928 142.916853 
L 114.38208 154.748877 
L 114.47136 136.161301 
L 114.56064 155.991246 
L 114.64992 103.837371 
L 114.7392 113.437218 
L 114.82848 191.753429 
L 114.91776 92.803102 
L 115.00704 119.216023 
L 115.09632 209.305415 
L 115.1856 132.055341 
L 115.27488 193.239227 
L 115.36416 93.5432 
L 115.45344 157.222384 
L 115.54272 107.242316 
L 115.72128 168.809446 
L 115.81056 92.299991 
L 115.89984 141.080301 
L 116.0784 97.472452 
L 116.16768 112.916457 
L 116.34624 226.232045 
L 116.5248 99.802242 
L 116.61408 138.564218 
L 116.79264 118.743218 
L 116.9712 165.907616 
L 117.06048 136.867503 
L 117.14976 138.782292 
L 117.23904 143.641351 
L 117.4176 94.874018 
L 117.68544 124.264237 
L 117.77472 138.177945 
L 117.864 89.694664 
L 117.95328 141.910758 
L 118.04256 128.452666 
L 118.13184 159.108078 
L 118.39968 89.601694 
L 118.66752 152.708267 
L 118.7568 91.997934 
L 118.93536 126.692867 
L 119.02464 104.233114 
L 119.11392 113.79325 
L 119.2032 109.067952 
L 119.29248 95.070913 
L 119.38176 154.432352 
L 119.47104 107.965107 
L 119.56032 197.758185 
L 119.6496 122.933176 
L 119.82816 240.324791 
L 120.00672 93.869882 
L 120.27456 165.339002 
L 120.36384 151.927829 
L 120.45312 108.141286 
L 120.63168 181.357134 
L 120.81024 104.830631 
L 120.89952 114.548335 
L 121.07808 186.04793 
L 121.16736 85.587361 
L 121.34592 155.065496 
L 121.70304 101.688646 
L 121.79232 158.24185 
L 121.8816 104.154918 
L 122.06016 141.303275 
L 122.23872 112.378527 
L 122.41728 148.960277 
L 122.50656 148.406989 
L 122.68512 67.893582 
L 122.7744 120.393081 
L 122.86368 103.375181 
L 122.95296 109.65258 
L 123.13152 131.637187 
L 123.2208 99.121548 
L 123.31008 192.36811 
L 123.39936 115.464836 
L 123.48864 165.208496 
L 123.57792 160.230115 
L 123.6672 164.65814 
L 123.75648 130.576817 
L 124.1136 173.812305 
L 124.20288 103.051573 
L 124.29216 103.850614 
L 124.38144 110.997925 
L 124.47072 99.936473 
L 124.56 161.107456 
L 124.64928 153.391503 
L 124.82784 107.783087 
L 124.91712 193.916341 
L 125.0064 149.816917 
L 125.09568 167.872906 
L 125.18496 119.965861 
L 125.27424 141.573079 
L 125.4528 94.092656 
L 125.54208 134.883157 
L 125.63136 86.435751 
L 125.72064 118.909502 
L 125.80992 99.449432 
L 125.8992 123.9386 
L 125.98848 101.181496 
L 126.07776 157.547104 
L 126.16704 73.539476 
L 126.25632 152.179444 
L 126.3456 117.06653 
L 126.52416 212.728232 
L 126.61344 132.181284 
L 126.792 159.279589 
L 126.88128 119.04501 
L 126.97056 119.619377 
L 127.05984 114.403517 
L 127.14912 80.540454 
L 127.32768 139.389869 
L 127.41696 105.076466 
L 127.50624 128.2704 
L 127.59552 112.117413 
L 127.77408 177.150652 
L 127.86336 90.55506 
L 127.95264 144.946476 
L 128.04192 125.749474 
L 128.1312 73.666629 
L 128.22048 139.726463 
L 128.30976 138.236493 
L 128.39904 91.605949 
L 128.5776 153.621567 
L 128.66688 85.260345 
L 128.93472 163.113271 
L 129.024 103.218139 
L 129.11328 183.285239 
L 129.20256 108.118374 
L 129.29184 223.876824 
L 129.38112 124.066194 
L 129.55968 161.011415 
L 129.64896 118.089071 
L 129.73824 127.682716 
L 129.82752 212.241177 
L 129.9168 131.16154 
L 130.00608 170.722417 
L 130.09536 98.149829 
L 130.27392 152.940698 
L 130.45248 89.516121 
L 130.54176 128.063918 
L 130.63104 219.196417 
L 130.8096 123.628276 
L 130.89888 170.686404 
L 130.98816 132.849909 
L 131.16672 182.506617 
L 131.256 156.374815 
L 131.34528 180.790933 
L 131.43456 176.290921 
L 131.52384 124.59179 
L 131.7024 176.742258 
L 131.79168 99.954187 
L 131.97024 139.302496 
L 132.05952 108.131997 
L 132.1488 115.408583 
L 132.23808 90.655621 
L 132.32736 133.996744 
L 132.41664 93.401844 
L 132.5952 116.134348 
L 132.68448 94.487713 
L 132.86304 180.518626 
L 132.95232 142.147059 
L 133.0416 167.915087 
L 133.22016 92.561267 
L 133.30944 208.253022 
L 133.39872 85.790859 
L 133.57728 138.327473 
L 133.66656 123.332326 
L 133.84512 150.32425 
L 134.02368 121.580356 
L 134.11296 178.481931 
L 134.20224 162.183029 
L 134.29152 107.844533 
L 134.3808 115.027172 
L 134.47008 135.297693 
L 134.64864 104.711316 
L 134.8272 163.896039 
L 134.91648 203.143127 
L 135.09504 112.01342 
L 135.18432 123.84294 
L 135.36288 151.038104 
L 135.54144 85.544633 
L 135.63072 159.869575 
L 135.72 146.567629 
L 135.80928 157.606296 
L 135.89856 82.995266 
L 135.98784 245.707999 
L 136.1664 76.966771 
L 136.25568 156.349036 
L 136.34496 136.294722 
L 136.43424 175.907048 
L 136.70208 96.85463 
L 136.88064 185.303211 
L 136.96992 125.537044 
L 137.0592 178.633528 
L 137.14848 134.8625 
L 137.41632 194.533817 
L 137.5056 158.878937 
L 137.59488 188.290218 
L 137.68416 156.821192 
L 137.77344 170.165981 
L 137.952 118.822036 
L 138.04128 143.933637 
L 138.13056 101.647697 
L 138.30912 144.477006 
L 138.3984 112.223584 
L 138.48768 133.085077 
L 138.66624 92.742073 
L 138.8448 143.041839 
L 138.93408 103.4112 
L 139.11264 129.182536 
L 139.20192 103.859744 
L 139.2912 137.703128 
L 139.38048 96.958475 
L 139.46976 110.029219 
L 139.55904 174.562884 
L 139.64832 114.328909 
L 139.7376 145.071418 
L 139.82688 230.547561 
L 140.00544 68.935486 
L 140.09472 161.048045 
L 140.184 145.573938 
L 140.27328 119.808153 
L 140.36256 132.375606 
L 140.45184 163.523253 
L 140.54112 160.091181 
L 140.6304 168.102133 
L 140.80896 139.980924 
L 140.89824 146.061339 
L 141.16608 81.394957 
L 141.25536 128.881576 
L 141.34464 91.282115 
L 141.61248 181.319352 
L 141.70176 177.557993 
L 141.79104 119.57775 
L 141.88032 134.691074 
L 141.9696 129.581648 
L 142.05888 194.682811 
L 142.23744 106.494994 
L 142.416 181.146306 
L 142.50528 161.846004 
L 142.59456 166.862905 
L 142.68384 192.158897 
L 142.8624 154.049665 
L 142.95168 163.639139 
L 143.13024 111.75328 
L 143.21952 100.771422 
L 143.3088 134.611293 
L 143.39808 122.724265 
L 143.48736 140.919968 
L 143.57664 210.626041 
L 143.66592 96.601165 
L 143.84448 160.107261 
L 144.02304 131.718444 
L 144.11232 143.309267 
L 144.29088 88.812925 
L 144.38016 107.129052 
L 144.46944 190.281985 
L 144.648 107.94035 
L 144.73728 183.04205 
L 144.82656 175.620404 
L 145.00512 91.558008 
L 145.18368 169.10521 
L 145.27296 134.196042 
L 145.36224 183.58576 
L 145.45152 164.412422 
L 145.5408 113.664222 
L 145.63008 119.362053 
L 145.71936 131.556662 
L 145.80864 128.044969 
L 145.89792 220.562862 
L 145.9872 111.315569 
L 146.07648 162.320539 
L 146.16576 125.84853 
L 146.25504 164.672265 
L 146.34432 80.972325 
L 146.52288 222.210308 
L 146.61216 95.388541 
L 146.79072 155.449828 
L 146.88 82.884569 
L 146.96928 102.686982 
L 147.05856 215.606184 
L 147.14784 165.565298 
L 147.23712 173.333529 
L 147.50496 139.360016 
L 147.59424 186.552237 
L 147.86208 141.954855 
L 147.95136 157.877896 
L 148.04064 142.507872 
L 148.12992 104.739957 
L 148.39776 145.641308 
L 148.48704 145.269422 
L 148.57632 108.192659 
L 148.6656 150.613764 
L 148.93344 120.096075 
L 149.112 187.738622 
L 149.20128 93.912491 
L 149.29056 143.420973 
L 149.37984 132.519072 
L 149.46912 124.81117 
L 149.5584 153.125192 
L 149.64768 95.391596 
L 149.73696 166.679393 
L 149.82624 103.426272 
L 149.91552 116.266399 
L 150.0048 141.913452 
L 150.09408 113.489423 
L 150.27264 169.916046 
L 150.36192 125.454717 
L 150.54048 154.084323 
L 150.62976 122.834998 
L 150.71904 125.446301 
L 150.80832 106.193913 
L 150.8976 164.870752 
L 150.98688 125.995591 
L 151.07616 176.846512 
L 151.16544 151.227034 
L 151.25472 173.948779 
L 151.344 130.580159 
L 151.43328 143.814482 
L 151.52256 120.11511 
L 151.61184 145.485901 
L 151.70112 129.925641 
L 151.7904 163.691773 
L 151.96896 89.792432 
L 152.05824 163.459747 
L 152.14752 131.294353 
L 152.2368 231.381138 
L 152.41536 95.23943 
L 152.50464 86.06001 
L 152.77248 152.2696 
L 152.86176 122.35294 
L 152.95104 137.330337 
L 153.04032 128.903011 
L 153.1296 177.711977 
L 153.21888 173.961012 
L 153.39744 124.695725 
L 153.48672 139.248869 
L 153.576 112.326223 
L 153.66528 130.347656 
L 153.75456 89.490293 
L 153.93312 154.118343 
L 154.0224 102.867277 
L 154.11168 164.780113 
L 154.20096 120.324732 
L 154.29024 138.36261 
L 154.37952 187.964291 
L 154.4688 167.051105 
L 154.55808 179.934509 
L 154.64736 143.480189 
L 154.82592 168.092456 
L 155.00448 110.527578 
L 155.18304 174.721433 
L 155.27232 105.34156 
L 155.3616 147.008431 
L 155.54016 94.557495 
L 155.62944 166.478976 
L 155.71872 113.075648 
L 155.89728 162.654641 
L 155.98656 104.498227 
L 156.07584 142.134896 
L 156.16512 140.118737 
L 156.2544 124.438035 
L 156.34368 187.246653 
L 156.61152 93.828101 
L 156.7008 153.064244 
L 156.79008 152.934939 
L 156.87936 120.279751 
L 157.05792 144.454535 
L 157.1472 106.096652 
L 157.23648 111.568207 
L 157.32576 152.181569 
L 157.41504 116.865452 
L 157.50432 121.489275 
L 157.5936 201.199103 
L 157.68288 139.400434 
L 157.77216 159.598338 
L 157.86144 111.144995 
L 157.95072 117.075549 
L 158.04 153.741769 
L 158.30784 122.608975 
L 158.39712 140.005498 
L 158.4864 128.733785 
L 158.57568 142.257325 
L 158.75424 77.197134 
L 158.9328 130.127779 
L 159.02208 100.666701 
L 159.20064 160.476033 
L 159.28992 133.580886 
L 159.3792 169.357725 
L 159.46848 168.51451 
L 159.55776 97.534745 
L 159.64704 173.707586 
L 159.73632 167.921085 
L 159.8256 202.609354 
L 160.00416 131.759438 
L 160.09344 114.195025 
L 160.18272 117.768558 
L 160.36128 159.462548 
L 160.45056 100.400312 
L 160.53984 144.279186 
L 160.62912 123.633008 
L 160.7184 156.12179 
L 160.80768 121.802512 
L 160.89696 160.124218 
L 160.98624 131.559735 
L 161.07552 160.231315 
L 161.1648 115.241293 
L 161.25408 173.142817 
L 161.43264 115.34869 
L 161.52192 167.111872 
L 161.70048 87.957282 
L 161.96832 169.003021 
L 162.0576 123.44832 
L 162.14688 127.209136 
L 162.23616 121.191319 
L 162.32544 94.955754 
L 162.41472 134.143692 
L 162.59328 113.53926 
L 162.86112 177.379891 
L 162.9504 193.677834 
L 163.12896 87.118909 
L 163.21824 179.849173 
L 163.30752 121.065185 
L 163.3968 206.867412 
L 163.66464 87.384992 
L 163.75392 197.532344 
L 163.8432 133.811701 
L 163.93248 147.780181 
L 164.02176 123.595223 
L 164.11104 158.609564 
L 164.20032 90.477383 
L 164.2896 168.17461 
L 164.37888 89.79341 
L 164.46816 92.950975 
L 164.736 178.876933 
L 164.91456 114.546561 
L 165.09312 123.65822 
L 165.1824 122.173644 
L 165.27168 153.67921 
L 165.36096 93.402196 
L 165.45024 94.727622 
L 165.6288 137.199967 
L 165.71808 84.777536 
L 165.80736 140.676356 
L 165.89664 98.388003 
L 166.0752 195.121539 
L 166.25376 87.228893 
L 166.34304 151.032722 
L 166.43232 110.211173 
L 166.5216 153.848901 
L 166.61088 121.62684 
L 166.70016 141.536154 
L 166.78944 113.273407 
L 166.87872 114.078312 
L 167.05728 230.937918 
L 167.23584 126.540137 
L 167.32512 150.140466 
L 167.50368 84.580318 
L 167.77152 170.365317 
L 167.8608 182.582411 
L 167.95008 137.12575 
L 168.03936 148.010109 
L 168.12864 125.549519 
L 168.39648 234.083455 
L 168.57504 77.968119 
L 168.66432 178.112014 
L 168.7536 85.535891 
L 168.93216 150.68637 
L 169.02144 149.411903 
L 169.11072 89.2175 
L 169.2 138.081234 
L 169.28928 98.175162 
L 169.37856 153.383204 
L 169.46784 131.286387 
L 169.55712 184.174861 
L 169.73568 125.255264 
L 169.82496 122.362938 
L 169.91424 103.229473 
L 170.00352 198.317449 
L 170.0928 133.851287 
L 170.18208 144.940357 
L 170.27136 109.810364 
L 170.36064 169.355829 
L 170.44992 138.53558 
L 170.62848 161.854877 
L 170.80704 119.619066 
L 170.89632 126.675707 
L 170.9856 146.94753 
L 171.16416 112.255745 
L 171.25344 200.615946 
L 171.34272 103.045429 
L 171.432 193.49867 
L 171.52128 183.189505 
L 171.61056 187.902634 
L 171.69984 95.180859 
L 171.78912 156.526038 
L 171.8784 125.48284 
L 171.96768 188.500293 
L 172.05696 175.246091 
L 172.14624 144.366303 
L 172.23552 199.007916 
L 172.3248 119.662573 
L 172.41408 159.553934 
L 172.59264 115.638878 
L 172.68192 136.746005 
L 172.7712 116.664124 
L 172.86048 135.349916 
L 172.94976 203.664193 
L 173.03904 113.481706 
L 173.2176 168.841813 
L 173.39616 93.210743 
L 173.57472 131.748479 
L 173.664 100.40186 
L 173.84256 208.836052 
L 173.93184 102.925451 
L 174.1104 189.874232 
L 174.37824 90.269809 
L 174.46752 121.984607 
L 174.5568 112.105413 
L 174.64608 170.119487 
L 174.73536 169.595949 
L 174.91392 114.964426 
L 175.0032 198.397937 
L 175.09248 129.696564 
L 175.18176 136.138558 
L 175.27104 95.1523 
L 175.36032 194.210164 
L 175.4496 140.260354 
L 175.62816 214.295519 
L 175.71744 108.817064 
L 175.80672 113.366282 
L 175.896 125.353337 
L 175.98528 119.980803 
L 176.07456 123.875017 
L 176.3424 156.462596 
L 176.43168 145.592313 
L 176.52096 102.285471 
L 176.61024 203.720178 
L 176.69952 137.112072 
L 176.7888 160.795611 
L 176.87808 157.774752 
L 176.96736 120.511177 
L 177.05664 125.434528 
L 177.14592 104.705179 
L 177.32448 169.11388 
L 177.41376 141.74848 
L 177.50304 164.989627 
L 177.59232 104.151615 
L 177.6816 154.440541 
L 177.77088 132.958752 
L 177.86016 151.115857 
L 177.94944 143.73699 
L 178.128 171.911853 
L 178.21728 153.071002 
L 178.30656 161.733231 
L 178.48512 135.334838 
L 178.66368 160.339437 
L 178.75296 140.411108 
L 178.84224 179.162918 
L 178.93152 141.099179 
L 179.0208 190.890328 
L 179.19936 94.465389 
L 179.28864 148.366018 
L 179.37792 82.639503 
L 179.4672 171.91819 
L 179.64576 107.805235 
L 179.73504 133.095875 
L 179.82432 111.499719 
L 180.00288 157.118424 
L 180.09216 112.792259 
L 180.27072 214.87123 
L 180.44928 104.838156 
L 180.53856 197.004374 
L 180.62784 93.619662 
L 180.8064 259.535911 
L 180.98496 147.818582 
L 181.07424 130.188539 
L 181.16352 131.068539 
L 181.2528 173.008787 
L 181.43136 100.880769 
L 181.60992 138.110625 
L 181.6992 113.745147 
L 181.78848 147.365286 
L 181.96704 110.503707 
L 182.05632 207.270067 
L 182.1456 193.412549 
L 182.23488 118.66944 
L 182.32416 131.359673 
L 182.41344 170.348168 
L 182.592 120.064372 
L 182.68128 125.429107 
L 182.77056 141.752123 
L 182.94912 216.775624 
L 183.0384 104.023031 
L 183.12768 226.336153 
L 183.21696 109.927929 
L 183.30624 171.190351 
L 183.39552 120.358764 
L 183.4848 161.034386 
L 183.66336 85.464015 
L 183.84192 188.326803 
L 183.9312 117.029803 
L 184.02048 125.452806 
L 184.10976 180.730604 
L 184.19904 139.451932 
L 184.28832 196.746736 
L 184.3776 105.172465 
L 184.46688 106.723806 
L 184.55616 149.444853 
L 184.64544 128.140038 
L 184.73472 143.366554 
L 184.824 138.963287 
L 184.91328 124.985657 
L 185.00256 191.105763 
L 185.18112 129.858494 
L 185.2704 124.241044 
L 185.35968 108.232078 
L 185.44896 117.222501 
L 185.53824 106.646304 
L 185.62752 126.625856 
L 185.7168 120.177096 
L 185.80608 124.011016 
L 185.89536 186.97173 
L 185.98464 121.993695 
L 186.07392 202.836573 
L 186.1632 128.796292 
L 186.34176 155.34458 
L 186.43104 137.453468 
L 186.52032 159.049534 
L 186.6096 154.517553 
L 186.69888 165.333917 
L 186.87744 138.674187 
L 186.96672 174.754178 
L 187.056 64.002701 
L 187.23456 179.41933 
L 187.32384 118.953521 
L 187.41312 160.91746 
L 187.5024 154.992348 
L 187.59168 105.424386 
L 187.77024 134.577605 
L 187.85952 106.727626 
L 188.03808 144.95242 
L 188.12736 124.415988 
L 188.21664 171.655053 
L 188.3952 109.282255 
L 188.57376 152.693171 
L 188.66304 152.036076 
L 188.75232 130.723688 
L 188.8416 143.397822 
L 188.93088 107.506925 
L 189.02016 166.625353 
L 189.19872 112.43805 
L 189.288 114.813868 
L 189.46656 166.296096 
L 189.55584 147.95082 
L 189.7344 194.256324 
L 189.91296 100.832031 
L 190.09152 189.120755 
L 190.1808 133.15884 
L 190.27008 171.206192 
L 190.35936 100.454935 
L 190.53792 154.863663 
L 190.6272 171.202022 
L 190.71648 112.699746 
L 190.80576 204.44027 
L 190.89504 107.697147 
L 191.0736 215.562642 
L 191.25216 113.038258 
L 191.34144 122.988084 
L 191.43072 156.824705 
L 191.52 134.912388 
L 191.60928 137.254075 
L 191.69856 132.479248 
L 191.87712 107.347623 
L 192.05568 133.801806 
L 192.14496 226.58111 
L 192.23424 100.446041 
L 192.32352 211.233598 
L 192.50208 121.009678 
L 192.59136 115.967582 
L 192.76992 165.174941 
L 192.8592 116.949357 
L 192.94848 169.598404 
L 193.03776 160.884369 
L 193.12704 203.279276 
L 193.21632 119.371669 
L 193.3056 133.947816 
L 193.39488 127.111297 
L 193.48416 163.575354 
L 193.57344 128.36338 
L 193.66272 164.600081 
L 193.752 119.97317 
L 193.84128 191.245368 
L 194.01984 85.209217 
L 194.1984 192.582837 
L 194.28768 185.858786 
L 194.37696 107.378729 
L 194.46624 122.490614 
L 194.55552 114.513057 
L 194.6448 126.641024 
L 194.73408 122.904767 
L 194.82336 114.234298 
L 195.00192 159.648175 
L 195.0912 138.176169 
L 195.35904 163.632365 
L 195.44832 85.560966 
L 195.71616 175.494375 
L 196.07328 112.916919 
L 196.16256 114.701184 
L 196.25184 190.015385 
L 196.34112 131.723405 
L 196.51968 177.687064 
L 196.60896 173.976354 
L 196.8768 78.161215 
L 196.96608 157.689776 
L 197.05536 153.770424 
L 197.14464 96.665278 
L 197.3232 206.59599 
L 197.41248 117.645784 
L 197.50176 153.606821 
L 197.59104 134.033036 
L 197.68032 142.127917 
L 197.7696 122.881022 
L 197.94816 182.17481 
L 198.03744 85.75549 
L 198.12672 108.763762 
L 198.216 144.289161 
L 198.30528 97.896178 
L 198.39456 107.918802 
L 198.48384 154.827437 
L 198.57312 154.038471 
L 198.6624 111.254244 
L 198.75168 164.459302 
L 198.84096 109.192108 
L 198.93024 109.472513 
L 199.01952 102.432326 
L 199.19808 146.826496 
L 199.28736 87.234204 
L 199.37664 153.822537 
L 199.46592 96.406647 
L 199.64448 175.010596 
L 199.73376 121.107625 
L 199.82304 123.176304 
L 199.91232 103.251395 
L 200.0016 134.938889 
L 200.09088 121.217327 
L 200.26944 184.634306 
L 200.448 135.655224 
L 200.62656 109.978577 
L 200.71584 121.722835 
L 200.80512 171.922536 
L 200.8944 163.903671 
L 200.98368 97.532193 
L 201.16224 132.132195 
L 201.25152 143.863706 
L 201.51936 128.688743 
L 201.60864 180.273968 
L 201.69792 118.510748 
L 201.7872 183.660074 
L 201.87648 157.360533 
L 201.96576 174.545784 
L 202.05504 118.527707 
L 202.2336 169.137162 
L 202.32288 119.220807 
L 202.41216 156.301066 
L 202.50144 144.006295 
L 202.59072 181.426968 
L 202.68 137.011115 
L 202.76928 142.704894 
L 202.85856 130.401132 
L 202.94784 201.045939 
L 203.03712 126.443304 
L 203.1264 171.215015 
L 203.30496 92.604898 
L 203.5728 152.546652 
L 203.66208 137.960022 
L 203.75136 165.90649 
L 203.84064 94.88129 
L 204.0192 161.894155 
L 204.10848 119.356145 
L 204.19776 128.601932 
L 204.28704 104.688637 
L 204.37632 132.150277 
L 204.4656 130.163899 
L 204.55488 107.295089 
L 204.64416 146.663376 
L 204.73344 85.843007 
L 204.82272 207.878805 
L 204.912 128.443872 
L 205.00128 158.780087 
L 205.17984 103.535701 
L 205.26912 153.739785 
L 205.3584 141.140768 
L 205.44768 157.977388 
L 205.53696 116.235503 
L 205.62624 192.48382 
L 205.71552 98.923352 
L 205.8048 111.024448 
L 205.98336 169.433874 
L 206.2512 107.681003 
L 206.42976 204.823495 
L 206.51904 179.081755 
L 206.60832 122.118815 
L 206.6976 136.966799 
L 206.87616 109.995016 
L 206.96544 115.631016 
L 207.05472 106.708766 
L 207.144 123.72368 
L 207.23328 121.290037 
L 207.32256 185.609455 
L 207.41184 82.424688 
L 207.50112 182.268749 
L 207.76896 83.799302 
L 207.94752 164.438513 
L 208.12608 117.350512 
L 208.21536 119.725433 
L 208.30464 197.833831 
L 208.39392 120.335799 
L 208.4832 129.947984 
L 208.57248 132.565437 
L 208.66176 203.748716 
L 208.75104 141.924175 
L 208.84032 157.001716 
L 209.01888 105.735723 
L 209.10816 121.0801 
L 209.19744 181.450884 
L 209.28672 68.071302 
L 209.376 186.938589 
L 209.46528 163.210832 
L 209.64384 109.241269 
L 209.73312 123.561367 
L 209.8224 113.313357 
L 209.91168 152.486595 
L 210.09024 119.97326 
L 210.35808 171.60456 
L 210.44736 106.50632 
L 210.53664 140.841179 
L 210.62592 106.68034 
L 210.80448 171.433246 
L 210.89376 140.44686 
L 210.98304 168.803647 
L 211.07232 79.789102 
L 211.25088 186.309847 
L 211.34016 110.190387 
L 211.51872 177.006282 
L 211.608 120.511538 
L 211.69728 149.292616 
L 211.78656 104.945845 
L 211.87584 111.64119 
L 211.96512 162.528691 
L 212.0544 94.765372 
L 212.32224 185.087212 
L 212.41152 76.378259 
L 212.5008 198.395001 
L 212.67936 107.054842 
L 212.76864 133.158206 
L 212.85792 108.057404 
L 212.9472 173.236985 
L 213.12576 140.095294 
L 213.21504 138.281215 
L 213.30432 114.305565 
L 213.3936 119.021678 
L 213.48288 168.243278 
L 213.57216 130.610105 
L 213.66144 176.32594 
L 213.75072 151.399993 
L 213.84 197.455627 
L 213.92928 114.859998 
L 214.01856 122.128003 
L 214.10784 111.073114 
L 214.37568 198.14334 
L 214.55424 104.683685 
L 214.64352 152.284193 
L 214.7328 103.138458 
L 214.82208 159.550505 
L 214.91136 159.18568 
L 215.08992 114.02074 
L 215.1792 150.284113 
L 215.26848 89.455357 
L 215.53632 136.545926 
L 215.6256 127.220215 
L 215.71488 156.231532 
L 215.89344 133.088969 
L 215.98272 161.005563 
L 216.072 99.651663 
L 216.16128 128.954569 
L 216.25056 79.455252 
L 216.42912 148.581498 
L 216.5184 144.14115 
L 216.69696 162.071034 
L 216.9648 124.750454 
L 217.05408 157.237944 
L 217.23264 111.48043 
L 217.32192 162.107374 
L 217.4112 152.38098 
L 217.50048 117.528718 
L 217.58976 127.401466 
L 217.67904 102.664462 
L 217.76832 159.501365 
L 217.8576 120.85535 
L 217.94688 124.04268 
L 218.03616 204.481874 
L 218.12544 182.088753 
L 218.21472 119.449496 
L 218.304 143.439738 
L 218.48256 117.154921 
L 218.57184 176.454185 
L 218.66112 153.92678 
L 218.7504 78.522349 
L 218.92896 171.866063 
L 219.01824 138.213676 
L 219.1968 169.903813 
L 219.28608 113.368112 
L 219.37536 123.608991 
L 219.46464 120.37559 
L 219.55392 204.607147 
L 219.6432 132.848799 
L 219.73248 141.428224 
L 219.91104 109.022497 
L 220.17888 211.995042 
L 220.26816 127.503957 
L 220.35744 159.268078 
L 220.44672 107.114228 
L 220.536 115.715536 
L 220.62528 131.046179 
L 220.71456 103.891899 
L 220.80384 156.822581 
L 221.16096 109.532727 
L 221.25024 182.791885 
L 221.33952 142.048402 
L 221.4288 178.445718 
L 221.69664 120.613732 
L 221.96448 172.555343 
L 222.14304 84.124462 
L 222.23232 170.609349 
L 222.3216 128.540298 
L 222.41088 153.378174 
L 222.50016 104.089228 
L 222.67872 180.231184 
L 222.768 126.133559 
L 222.85728 148.192512 
L 222.94656 123.205473 
L 223.12512 191.105386 
L 223.2144 179.681512 
L 223.30368 144.944175 
L 223.39296 172.564178 
L 223.57152 137.144168 
L 223.6608 126.764742 
L 223.75008 166.398448 
L 223.83936 140.597339 
L 223.92864 164.744226 
L 224.1072 84.601236 
L 224.19648 169.520568 
L 224.28576 119.881942 
L 224.37504 134.61052 
L 224.46432 107.70761 
L 224.64288 190.83325 
L 224.73216 144.085722 
L 224.82144 153.149511 
L 224.91072 150.758328 
L 225.08928 132.369752 
L 225.17856 97.02344 
L 225.26784 164.107012 
L 225.4464 109.674179 
L 225.53568 177.185996 
L 225.71424 122.15039 
L 225.80352 102.23351 
L 225.8928 160.129457 
L 225.98208 101.493912 
L 226.07136 109.372497 
L 226.16064 106.643646 
L 226.24992 186.501859 
L 226.3392 117.575488 
L 226.42848 158.85568 
L 226.51776 86.982429 
L 226.60704 119.66709 
L 226.69632 89.410057 
L 226.87488 138.444078 
L 227.05344 106.490448 
L 227.232 213.92365 
L 227.41056 126.578364 
L 227.49984 129.796841 
L 227.58912 116.98867 
L 227.85696 170.722337 
L 227.94624 116.713348 
L 228.03552 121.442217 
L 228.1248 102.089682 
L 228.21408 114.11396 
L 228.30336 198.923147 
L 228.39264 149.714091 
L 228.48192 199.587871 
L 228.5712 124.444297 
L 228.74976 154.775777 
L 228.92832 128.691814 
L 229.28544 192.653351 
L 229.37472 174.492107 
L 229.464 107.276013 
L 229.55328 162.324683 
L 229.64256 145.095449 
L 229.73184 145.366059 
L 229.82112 164.817636 
L 229.9104 122.392667 
L 230.08896 156.919706 
L 230.17824 117.179232 
L 230.26752 137.912274 
L 230.3568 115.505197 
L 230.44608 149.559033 
L 230.53536 106.428964 
L 230.62464 120.65739 
L 230.71392 120.358458 
L 230.8032 112.994979 
L 230.89248 145.350977 
L 230.98176 135.427959 
L 231.07104 139.655985 
L 231.16032 155.081073 
L 231.33888 89.470805 
L 231.42816 208.26777 
L 231.51744 108.623986 
L 231.60672 128.284359 
L 231.696 187.226347 
L 231.78528 129.6476 
L 231.87456 157.532024 
L 231.96384 151.22629 
L 232.32096 103.668755 
L 232.49952 146.375369 
L 232.5888 153.601459 
L 232.67808 149.536923 
L 232.94592 111.207423 
L 233.0352 171.221958 
L 233.12448 170.150141 
L 233.21376 184.622435 
L 233.30304 141.277265 
L 233.4816 203.011517 
L 233.66016 111.006568 
L 233.74944 128.446152 
L 233.83872 81.989764 
L 234.10656 165.003077 
L 234.19584 138.663766 
L 234.28512 143.219831 
L 234.3744 165.544359 
L 234.46368 128.645641 
L 234.55296 204.258206 
L 234.64224 157.156519 
L 234.73152 181.985849 
L 234.91008 96.708453 
L 235.08864 174.117108 
L 235.17792 100.523954 
L 235.2672 155.869098 
L 235.35648 117.800884 
L 235.44576 122.045664 
L 235.53504 150.38224 
L 235.62432 123.296287 
L 235.80288 185.182548 
L 235.89216 112.595224 
L 235.98144 166.240372 
L 236.16 102.533516 
L 236.24928 157.763503 
L 236.33856 150.223406 
L 236.42784 156.793087 
L 236.51712 91.614711 
L 236.6064 107.741984 
L 236.69568 95.80368 
L 236.78496 180.889178 
L 236.87424 135.179565 
L 236.96352 238.107403 
L 237.0528 102.682024 
L 237.14208 109.034027 
L 237.23136 139.946402 
L 237.32064 100.869649 
L 237.4992 134.78195 
L 237.58848 120.925668 
L 237.67776 135.32413 
L 237.76704 200.892853 
L 238.03488 109.595738 
L 238.21344 175.981134 
L 238.30272 113.625575 
L 238.392 113.876112 
L 238.48128 102.870575 
L 238.57056 114.629292 
L 238.65984 158.807634 
L 238.74912 138.662173 
L 238.8384 148.989862 
L 238.92768 125.020468 
L 239.01696 150.793582 
L 239.10624 98.983291 
L 239.19552 185.962274 
L 239.37408 107.889259 
L 239.55264 170.126399 
L 239.64192 169.147029 
L 239.82048 102.883005 
L 240.08832 235.779224 
L 240.26688 133.362065 
L 240.35616 170.334441 
L 240.53472 106.257995 
L 240.624 84.080838 
L 240.80256 152.577254 
L 240.89184 146.458113 
L 240.98112 101.980749 
L 241.0704 149.356448 
L 241.15968 120.760398 
L 241.24896 120.921038 
L 241.33824 126.249474 
L 241.5168 164.458165 
L 241.60608 102.425577 
L 241.69536 154.326661 
L 241.87392 79.908245 
L 242.05248 167.520322 
L 242.14176 108.615612 
L 242.32032 185.925033 
L 242.49888 132.499773 
L 242.58816 121.97676 
L 242.67744 201.131266 
L 242.76672 103.538715 
L 242.856 186.744492 
L 242.94528 111.395071 
L 243.03456 165.752833 
L 243.12384 106.447327 
L 243.21312 193.056183 
L 243.39168 96.114013 
L 243.48096 110.031155 
L 243.57024 159.561345 
L 243.65952 143.666751 
L 243.83808 88.541105 
L 244.01664 148.372942 
L 244.10592 150.772805 
L 244.1952 127.406193 
L 244.28448 135.471468 
L 244.37376 201.70299 
L 244.46304 87.458223 
L 244.55232 183.367463 
L 244.82016 119.274409 
L 244.90944 179.897037 
L 244.99872 93.267707 
L 245.088 182.732118 
L 245.17728 118.566819 
L 245.26656 147.854417 
L 245.35584 143.430626 
L 245.44512 137.143448 
L 245.5344 95.402177 
L 245.62368 165.600208 
L 245.80224 120.629457 
L 245.89152 143.401884 
L 245.9808 140.09524 
L 246.07008 153.65054 
L 246.15936 132.035492 
L 246.24864 235.720169 
L 246.33792 134.018814 
L 246.4272 137.532737 
L 246.60576 107.681114 
L 246.69504 123.14471 
L 246.78432 170.173871 
L 246.8736 110.071148 
L 246.96288 202.150375 
L 247.14144 122.253052 
L 247.23072 129.128792 
L 247.49856 193.144827 
L 247.85568 94.883816 
L 248.03424 150.044482 
L 248.12352 99.580505 
L 248.2128 166.499443 
L 248.30208 138.046861 
L 248.39136 176.395944 
L 248.48064 114.107626 
L 248.6592 163.648066 
L 248.83776 106.564905 
L 248.92704 190.606827 
L 249.01632 136.608302 
L 249.1056 140.775651 
L 249.19488 158.738416 
L 249.28416 116.170374 
L 249.37344 174.60024 
L 249.46272 164.470378 
L 249.64128 105.433814 
L 249.73056 148.011423 
L 249.81984 138.517813 
L 249.90912 160.833336 
L 249.9984 148.954239 
L 250.08768 195.725055 
L 250.17696 106.122673 
L 250.26624 133.460362 
L 250.35552 116.326784 
L 250.4448 127.364613 
L 250.53408 114.346864 
L 250.62336 161.633132 
L 250.71264 127.924283 
L 250.80192 149.427841 
L 250.8912 116.545101 
L 250.98048 129.215191 
L 251.24832 198.241512 
L 251.42688 119.295229 
L 251.51616 94.317349 
L 251.69472 158.252227 
L 251.784 109.006994 
L 251.87328 117.52083 
L 251.96256 119.687281 
L 252.05184 138.627669 
L 252.14112 127.971812 
L 252.31968 186.184491 
L 252.40896 114.539482 
L 252.49824 126.621138 
L 252.6768 206.885004 
L 252.85536 86.011663 
L 252.94464 99.26251 
L 253.1232 167.874042 
L 253.21248 121.158717 
L 253.30176 148.744554 
L 253.39104 101.882255 
L 253.48032 115.349942 
L 253.5696 153.700105 
L 253.65888 139.65827 
L 253.74816 157.916868 
L 253.92672 116.64649 
L 254.016 165.912525 
L 254.19456 104.464433 
L 254.28384 119.408691 
L 254.37312 80.385012 
L 254.4624 197.003693 
L 254.55168 113.845962 
L 254.64096 185.690211 
L 254.99808 112.193356 
L 255.08736 114.887773 
L 255.17664 155.798851 
L 255.3552 121.787105 
L 255.44448 194.115633 
L 255.53376 132.670973 
L 255.62304 136.488816 
L 255.71232 142.893133 
L 255.8016 175.789038 
L 255.89088 132.189691 
L 255.98016 143.582013 
L 256.06944 174.501894 
L 256.15872 113.062004 
L 256.248 126.831992 
L 256.33728 135.567118 
L 256.42656 82.65281 
L 256.6944 179.842271 
L 256.87296 108.857187 
L 257.05152 173.269284 
L 257.1408 166.655057 
L 257.23008 146.89231 
L 257.31936 164.865511 
L 257.40864 71.201724 
L 257.67648 173.522229 
L 257.76576 129.406532 
L 257.85504 129.887597 
L 257.94432 99.088633 
L 258.21216 166.234226 
L 258.30144 131.598314 
L 258.39072 204.21386 
L 258.48 115.030401 
L 258.56928 142.535017 
L 258.65856 101.48498 
L 258.74784 112.209121 
L 258.83712 162.154132 
L 259.01568 119.930225 
L 259.10496 174.657337 
L 259.19424 169.954591 
L 259.28352 143.992308 
L 259.3728 152.035266 
L 259.46208 110.527686 
L 259.55136 162.496917 
L 259.72992 104.759632 
L 259.8192 123.613037 
L 259.90848 112.521274 
L 259.99776 121.64168 
L 260.08704 152.324602 
L 260.2656 92.778338 
L 260.35488 101.198766 
L 260.44416 129.858473 
L 260.53344 104.920126 
L 260.712 134.874679 
L 260.89056 109.997151 
L 260.97984 122.41089 
L 261.06912 114.070035 
L 261.1584 114.927855 
L 261.24768 111.086809 
L 261.33696 125.148911 
L 261.42624 91.784521 
L 261.51552 166.889905 
L 261.6048 117.661602 
L 261.69408 123.672634 
L 261.78336 119.120815 
L 261.87264 89.006 
L 262.0512 210.05479 
L 262.14048 208.403693 
L 262.22976 139.517061 
L 262.31904 149.769898 
L 262.4976 180.860507 
L 262.58688 122.063529 
L 262.67616 134.976419 
L 262.76544 108.616863 
L 262.85472 130.046999 
L 262.944 205.258691 
L 263.12256 104.400642 
L 263.21184 149.463271 
L 263.30112 149.220173 
L 263.47968 98.56865 
L 263.56896 152.439814 
L 263.65824 106.315551 
L 263.74752 108.598428 
L 263.8368 109.511737 
L 263.92608 142.133759 
L 264.01536 108.295127 
L 264.10464 191.534547 
L 264.2832 101.260294 
L 264.37248 132.26617 
L 264.46176 122.5257 
L 264.55104 177.802442 
L 264.64032 163.793432 
L 264.7296 178.174589 
L 264.81888 141.713253 
L 264.90816 187.855942 
L 265.08672 154.026973 
L 265.176 158.741156 
L 265.35456 92.45733 
L 265.44384 171.569323 
L 265.6224 130.163345 
L 265.71168 177.540119 
L 265.80096 100.940767 
L 265.89024 121.763828 
L 265.97952 99.504431 
L 266.15808 126.938779 
L 266.24736 103.548907 
L 266.33664 117.394823 
L 266.42592 94.110991 
L 266.5152 149.71315 
L 266.69376 121.316607 
L 266.78304 179.194568 
L 266.87232 162.598356 
L 266.9616 167.84626 
L 267.22944 106.878032 
L 267.31872 159.262708 
L 267.49728 114.527803 
L 267.58656 165.038906 
L 267.67584 108.919239 
L 267.76512 177.686853 
L 267.94368 127.711521 
L 268.03296 170.871069 
L 268.12224 114.244804 
L 268.3008 180.614583 
L 268.39008 83.84964 
L 268.47936 151.84665 
L 268.56864 119.46716 
L 268.65792 130.358757 
L 268.7472 116.095199 
L 268.83648 168.071858 
L 268.92576 144.848631 
L 269.01504 150.354539 
L 269.10432 134.767529 
L 269.1936 95.08131 
L 269.37216 133.052175 
L 269.46144 89.475288 
L 269.64 177.894006 
L 269.81856 86.782325 
L 269.90784 178.525723 
L 270.0864 130.876384 
L 270.17568 144.808734 
L 270.26496 128.258582 
L 270.35424 159.331699 
L 270.44352 122.866439 
L 270.5328 138.092776 
L 270.62208 104.628299 
L 270.71136 110.67971 
L 270.80064 88.191764 
L 271.06848 213.156005 
L 271.15776 110.343824 
L 271.24704 134.49499 
L 271.33632 127.724191 
L 271.4256 94.429491 
L 271.60416 173.340987 
L 271.78272 119.155489 
L 271.872 164.574681 
L 272.05056 86.191787 
L 272.3184 166.292274 
L 272.40768 90.988823 
L 272.49696 161.827355 
L 272.58624 124.475744 
L 272.67552 208.723517 
L 272.85408 80.846831 
L 272.94336 88.03027 
L 273.03264 166.587809 
L 273.12192 139.975388 
L 273.2112 156.697261 
L 273.38976 128.708179 
L 273.47904 193.161164 
L 273.6576 104.984172 
L 273.83616 149.14374 
L 273.92544 143.106701 
L 274.01472 127.187019 
L 274.19328 184.285564 
L 274.37184 79.43834 
L 274.5504 158.849623 
L 274.72896 102.8899 
L 274.81824 121.4174 
L 274.90752 96.46486 
L 274.9968 108.81123 
L 275.08608 140.17469 
L 275.17536 122.759805 
L 275.26464 184.079696 
L 275.35392 162.644353 
L 275.4432 173.225666 
L 275.53248 110.217175 
L 275.62176 178.099113 
L 275.80032 120.067576 
L 275.8896 151.62029 
L 275.97888 100.061915 
L 276.06816 107.673647 
L 276.15744 150.850075 
L 276.24672 87.482792 
L 276.42528 165.704602 
L 276.69312 94.275535 
L 276.87168 182.02922 
L 277.05024 121.604142 
L 277.13952 123.242453 
L 277.31808 161.184039 
L 277.40736 145.357899 
L 277.49664 160.291046 
L 277.58592 101.294588 
L 277.6752 138.879916 
L 277.76448 138.411958 
L 277.85376 118.505379 
L 277.94304 161.390761 
L 278.03232 93.894379 
L 278.1216 149.679223 
L 278.21088 138.804964 
L 278.30016 144.592871 
L 278.38944 173.041751 
L 278.568 118.209791 
L 278.74656 142.525626 
L 278.83584 124.421559 
L 278.92512 170.582037 
L 279.0144 102.503086 
L 279.10368 172.62086 
L 279.19296 164.615043 
L 279.28224 101.131762 
L 279.37152 127.966876 
L 279.4608 126.134321 
L 279.55008 138.396479 
L 279.63936 137.551287 
L 279.72864 198.076869 
L 279.81792 149.467408 
L 279.9072 204.479126 
L 280.08576 119.334516 
L 280.17504 91.092391 
L 280.3536 162.09554 
L 280.44288 96.077618 
L 280.53216 160.321041 
L 280.62144 155.359415 
L 280.8 101.955652 
L 280.88928 189.107503 
L 280.97856 154.487018 
L 281.15712 175.540092 
L 281.33568 98.005192 
L 281.42496 155.183119 
L 281.51424 116.748592 
L 281.6928 232.686035 
L 281.87136 124.037021 
L 281.96064 136.275143 
L 282.04992 123.891235 
L 282.1392 157.056564 
L 282.22848 154.126575 
L 282.31776 156.997933 
L 282.40704 128.588283 
L 282.49632 240.935988 
L 282.5856 132.177914 
L 282.67488 147.680896 
L 282.76416 93.134879 
L 282.85344 97.514015 
L 283.21056 217.067072 
L 283.29984 107.393559 
L 283.4784 163.153716 
L 283.56768 116.290164 
L 283.65696 198.112089 
L 283.74624 140.004571 
L 283.83552 218.90824 
L 284.01408 167.550028 
L 284.10336 169.152213 
L 284.19264 90.217036 
L 284.28192 163.844307 
L 284.3712 135.478072 
L 284.46048 145.845784 
L 284.54976 139.01108 
L 284.63904 115.047014 
L 284.72832 178.802064 
L 284.8176 133.062654 
L 284.90688 202.185605 
L 285.17472 142.537843 
L 285.264 152.13868 
L 285.35328 149.285645 
L 285.44256 120.738439 
L 285.53184 132.780963 
L 285.62112 102.518563 
L 285.7104 114.850126 
L 285.88896 172.211598 
L 285.97824 196.060054 
L 286.1568 119.310396 
L 286.24608 120.65996 
L 286.33536 96.268939 
L 286.42464 180.575242 
L 286.6032 126.371377 
L 286.78176 99.807275 
L 286.96032 163.327947 
L 287.0496 115.17467 
L 287.13888 123.163434 
L 287.22816 207.131618 
L 287.40672 111.294536 
L 287.67456 191.071497 
L 287.76384 100.05364 
L 287.9424 157.421243 
L 288.03168 143.74865 
L 288.12096 196.059457 
L 288.21024 101.322063 
L 288.29952 157.870848 
L 288.3888 116.29021 
L 288.47808 150.677326 
L 288.65664 82.818528 
L 288.74592 152.652421 
L 288.8352 97.105565 
L 288.92448 102.83476 
L 289.01376 137.044073 
L 289.19232 91.525069 
L 289.37088 189.210813 
L 289.46016 97.785275 
L 289.54944 118.458736 
L 289.63872 83.46818 
L 289.728 98.449056 
L 289.90656 169.696599 
L 289.99584 106.008529 
L 290.08512 111.58304 
L 290.26368 147.27875 
L 290.44224 190.39498 
L 290.53152 121.779035 
L 290.6208 170.567327 
L 290.71008 108.862827 
L 290.88864 179.402952 
L 291.0672 129.091414 
L 291.15648 138.231758 
L 291.24576 201.588276 
L 291.42432 133.53641 
L 291.5136 94.87481 
L 291.60288 97.55091 
L 291.69216 132.907283 
L 291.78144 77.252102 
L 292.04928 181.195278 
L 292.13856 171.83461 
L 292.22784 104.203548 
L 292.31712 138.034644 
L 292.49568 109.44384 
L 292.58496 126.237969 
L 292.76352 117.477073 
L 292.8528 127.54733 
L 292.94208 108.187517 
L 293.12064 153.321803 
L 293.20992 138.049521 
L 293.2992 138.876378 
L 293.38848 119.329769 
L 293.47776 145.994545 
L 293.56704 125.166667 
L 293.83488 209.384402 
L 293.92416 93.914756 
L 294.01344 108.212001 
L 294.10272 183.272394 
L 294.192 157.03803 
L 294.28128 285.408 
L 294.45984 97.545398 
L 294.54912 187.049056 
L 294.6384 142.03968 
L 294.72768 160.392868 
L 294.81696 138.875638 
L 294.90624 155.464011 
L 294.99552 96.087155 
L 295.0848 164.614587 
L 295.26336 140.488028 
L 295.35264 140.678804 
L 295.44192 83.621217 
L 295.62048 152.221172 
L 295.70976 109.307512 
L 295.79904 133.903792 
L 295.9776 94.736433 
L 296.06688 132.165405 
L 296.15616 109.570275 
L 296.33472 191.027015 
L 296.424 111.185187 
L 296.60256 171.097138 
L 296.78112 125.709815 
L 296.8704 131.402153 
L 296.95968 102.065287 
L 297.04896 185.396257 
L 297.3168 86.370796 
L 297.58464 184.772556 
L 297.67392 165.657319 
L 297.7632 154.458437 
L 297.85248 128.140226 
L 297.94176 162.894259 
L 298.03104 155.728426 
L 298.12032 168.677525 
L 298.29888 86.548467 
L 298.47744 152.39483 
L 298.56672 147.242062 
L 298.656 154.625917 
L 298.74528 207.316157 
L 298.92384 83.426935 
L 299.01312 142.063246 
L 299.1024 82.881395 
L 299.28096 143.915807 
L 299.37024 131.115735 
L 299.45952 150.857136 
L 299.72736 91.560973 
L 299.81664 128.354313 
L 299.9952 105.428024 
L 300.17376 164.672123 
L 300.35232 150.161816 
L 300.4416 104.472903 
L 300.53088 143.126269 
L 300.62016 113.129489 
L 300.70944 170.169078 
L 300.79872 142.531953 
L 300.888 169.582673 
L 301.06656 100.750957 
L 301.3344 154.67481 
L 301.42368 148.572797 
L 301.51296 108.266122 
L 301.60224 174.362484 
L 301.69152 125.398549 
L 301.7808 138.052361 
L 301.87008 114.786341 
L 301.95936 152.69593 
L 302.13792 105.243594 
L 302.31648 191.858797 
L 302.40576 187.768279 
L 302.58432 122.748298 
L 302.6736 208.572227 
L 302.76288 187.748613 
L 302.94144 93.366207 
L 303.20928 140.356924 
L 303.29856 158.018932 
L 303.38784 157.851086 
L 303.47712 144.167303 
L 303.5664 166.095802 
L 303.65568 117.684004 
L 303.74496 163.979413 
L 303.83424 110.131419 
L 303.92352 188.061042 
L 304.0128 96.233549 
L 304.10208 193.013155 
L 304.19136 114.887128 
L 304.28064 133.807702 
L 304.36992 142.786898 
L 304.4592 189.677076 
L 304.63776 114.288788 
L 304.72704 102.389081 
L 304.81632 173.997238 
L 304.99488 84.663131 
L 305.08416 163.791207 
L 305.17344 116.290375 
L 305.26272 127.700059 
L 305.352 141.753973 
L 305.53056 77.757451 
L 305.70912 136.957638 
L 305.7984 101.432647 
L 305.88768 165.801425 
L 305.97696 143.317175 
L 306.06624 171.923385 
L 306.15552 89.022291 
L 306.2448 152.067724 
L 306.33408 89.599691 
L 306.42336 118.379688 
L 306.51264 96.022016 
L 306.60192 171.359508 
L 306.6912 159.427826 
L 306.86976 124.852096 
L 306.95904 189.755729 
L 307.04832 142.84179 
L 307.1376 214.617322 
L 307.22688 193.471827 
L 307.31616 125.399162 
L 307.40544 131.874913 
L 307.49472 139.341016 
L 307.584 91.917405 
L 307.76256 120.900351 
L 307.85184 102.429282 
L 307.94112 119.591998 
L 308.0304 104.193892 
L 308.11968 106.692246 
L 308.20896 106.962562 
L 308.29824 167.441701 
L 308.38752 158.513546 
L 308.65536 110.435257 
L 308.74464 132.205312 
L 308.83392 107.999564 
L 308.9232 109.187333 
L 309.10176 139.90819 
L 309.19104 108.774162 
L 309.28032 110.984154 
L 309.3696 118.720199 
L 309.45888 112.244319 
L 309.54816 123.857897 
L 309.63744 116.83371 
L 309.72672 148.570189 
L 309.816 125.633567 
L 309.90528 155.659473 
L 310.08384 118.365747 
L 310.17312 123.260946 
L 310.2624 86.805357 
L 310.35168 97.537617 
L 310.61952 169.823052 
L 310.7088 169.186885 
L 310.79808 89.903392 
L 310.88736 140.992899 
L 310.97664 118.287596 
L 311.06592 158.605446 
L 311.1552 158.42065 
L 311.24448 119.832903 
L 311.33376 134.348543 
L 311.42304 107.174231 
L 311.69088 177.405384 
L 311.78016 144.540828 
L 311.86944 166.241735 
L 311.95872 106.19245 
L 312.13728 143.371684 
L 312.22656 158.050454 
L 312.31584 97.669202 
L 312.40512 120.84133 
L 312.4944 206.208606 
L 312.58368 130.091797 
L 312.67296 136.362479 
L 312.76224 171.46994 
L 313.03008 113.044166 
L 313.11936 205.951504 
L 313.20864 135.525985 
L 313.29792 140.109297 
L 313.3872 103.675763 
L 313.47648 108.590167 
L 313.56576 155.61637 
L 313.65504 142.594261 
L 313.74432 88.772568 
L 313.92288 210.569806 
L 314.01216 109.146682 
L 314.10144 132.430995 
L 314.19072 76.566968 
L 314.36928 171.810907 
L 314.54784 112.745171 
L 314.63712 127.544633 
L 314.7264 210.704322 
L 314.90496 113.49314 
L 314.99424 126.82761 
L 315.08352 120.064096 
L 315.1728 133.790669 
L 315.26208 96.737027 
L 315.35136 108.411516 
L 315.52992 96.096237 
L 315.70848 154.628978 
L 315.79776 180.957139 
L 316.0656 132.461523 
L 316.15488 164.167241 
L 316.24416 89.385032 
L 316.33344 175.373432 
L 316.512 121.147869 
L 316.60128 146.946819 
L 316.69056 112.876896 
L 316.86912 143.964646 
L 316.9584 197.871279 
L 317.04768 96.586867 
L 317.13696 133.001542 
L 317.31552 121.713614 
L 317.4048 140.679324 
L 317.58336 105.91464 
L 317.67264 168.607881 
L 317.76192 157.604291 
L 317.8512 156.185278 
L 317.94048 137.813471 
L 318.02976 143.107174 
L 318.11904 160.16918 
L 318.20832 93.579801 
L 318.38688 201.201757 
L 318.65472 94.200653 
L 318.744 136.113492 
L 318.83328 135.116821 
L 319.01184 185.044822 
L 319.1904 142.713901 
L 319.27968 142.502376 
L 319.36896 169.118844 
L 319.45824 161.92819 
L 319.72608 109.469905 
L 320.17248 155.19694 
L 320.35104 121.776418 
L 320.44032 112.73798 
L 320.5296 140.111974 
L 320.79744 115.418722 
L 320.88672 151.130825 
L 320.976 101.644647 
L 321.15456 149.611244 
L 321.24384 116.416844 
L 321.33312 134.442668 
L 321.4224 92.693207 
L 321.51168 118.172858 
L 321.60096 176.741445 
L 321.69024 124.355229 
L 321.77952 128.146967 
L 321.8688 180.242453 
L 321.95808 95.286996 
L 322.04736 110.679646 
L 322.13664 100.942801 
L 322.22592 153.323397 
L 322.3152 111.552468 
L 322.40448 191.924305 
L 322.49376 149.347256 
L 322.58304 165.762228 
L 322.67232 114.50718 
L 322.7616 160.124972 
L 322.85088 117.367149 
L 322.94016 138.769934 
L 323.02944 111.915669 
L 323.11872 131.942214 
L 323.208 89.131557 
L 323.29728 150.441803 
L 323.38656 148.892626 
L 323.56512 83.492903 
L 323.6544 140.548251 
L 323.74368 134.306441 
L 323.83296 121.050791 
L 323.92224 134.003611 
L 324.01152 102.780583 
L 324.27936 167.426606 
L 324.36864 129.352522 
L 324.45792 135.476798 
L 324.5472 225.639123 
L 324.63648 98.000975 
L 324.72576 113.6805 
L 324.81504 177.132111 
L 324.90432 97.651678 
L 324.9936 116.918247 
L 325.08288 125.901063 
L 325.17216 168.06125 
L 325.35072 99.735286 
L 325.52928 168.800262 
L 325.70784 141.896306 
L 325.79712 137.710125 
L 325.8864 96.250783 
L 325.97568 121.023769 
L 326.06496 116.615902 
L 326.15424 106.13647 
L 326.3328 122.170409 
L 326.42208 178.953615 
L 326.51136 137.099002 
L 326.60064 143.871583 
L 326.7792 104.429376 
L 326.95776 203.505709 
L 327.2256 68.604339 
L 327.31488 201.365752 
L 327.49344 104.262241 
L 327.58272 200.143213 
L 327.672 143.531083 
L 327.76128 151.611844 
L 327.85056 173.072141 
L 327.93984 86.680681 
L 328.02912 196.104515 
L 328.1184 97.543808 
L 328.20768 227.107066 
L 328.29696 126.110115 
L 328.38624 148.299586 
L 328.47552 190.637623 
L 328.5648 95.747364 
L 328.65408 169.69852 
L 328.74336 153.163883 
L 328.83264 194.532916 
L 328.92192 93.83198 
L 329.0112 228.910332 
L 329.10048 86.193421 
L 329.18976 141.709889 
L 329.4576 97.041419 
L 329.63616 150.154659 
L 329.72544 118.97881 
L 329.81472 174.539952 
L 329.904 118.169867 
L 329.99328 127.968782 
L 330.26112 179.50956 
L 330.43968 92.255298 
L 330.52896 147.664686 
L 330.61824 88.023577 
L 330.70752 99.490989 
L 330.7968 184.984845 
L 330.97536 85.506269 
L 331.15392 163.260462 
L 331.33248 146.778552 
L 331.51104 92.909152 
L 331.60032 104.292351 
L 331.6896 90.669019 
L 331.86816 114.67589 
L 331.95744 146.82457 
L 332.04672 108.443679 
L 332.22528 160.266627 
L 332.31456 119.160705 
L 332.40384 130.389461 
L 332.49312 121.884494 
L 332.67168 166.389264 
L 332.76096 100.545938 
L 332.85024 193.278317 
L 333.0288 121.972341 
L 333.29664 184.211958 
L 333.38592 185.628367 
L 333.56448 115.609641 
L 333.65376 117.362657 
L 333.74304 142.01538 
L 333.83232 134.212196 
L 333.9216 158.991865 
L 334.01088 150.145012 
L 334.10016 108.455032 
L 334.18944 166.909375 
L 334.27872 109.971458 
L 334.45728 177.696972 
L 334.72512 127.931511 
L 334.90368 182.124692 
L 335.17152 101.120574 
L 335.2608 88.300348 
L 335.35008 138.939135 
L 335.43936 111.993194 
L 335.61792 144.322015 
L 335.7072 134.224137 
L 335.79648 158.920889 
L 335.88576 99.547027 
L 336.06432 194.476706 
L 336.24288 112.007574 
L 336.42144 160.150995 
L 336.51072 146.129564 
L 336.6 147.634594 
L 336.68928 98.055766 
L 336.77856 154.381382 
L 336.86784 97.834194 
L 336.95712 140.511887 
L 337.0464 123.976199 
L 337.13568 151.595459 
L 337.31424 105.51137 
L 337.40352 145.785473 
L 337.4928 105.464251 
L 337.67136 153.651091 
L 337.76064 123.192976 
L 337.84992 154.656913 
L 338.02848 125.571496 
L 338.29632 226.452156 
L 338.3856 176.052097 
L 338.47488 203.573615 
L 338.65344 92.191521 
L 338.92128 148.821861 
L 339.01056 113.130628 
L 339.09984 177.772792 
L 339.18912 115.077834 
L 339.2784 127.294658 
L 339.45696 188.753611 
L 339.63552 104.95899 
L 339.7248 171.332223 
L 339.81408 138.71125 
L 339.90336 190.43111 
L 339.99264 144.876173 
L 340.08192 203.953732 
L 340.1712 84.551316 
L 340.26048 209.272876 
L 340.34976 165.184827 
L 340.43904 214.523254 
L 340.6176 106.648216 
L 340.70688 116.330263 
L 340.79616 150.045041 
L 340.88544 141.522367 
L 340.97472 153.441567 
L 341.064 111.636891 
L 341.15328 153.80578 
L 341.24256 136.929387 
L 341.33184 182.576613 
L 341.5104 93.813136 
L 341.68896 148.198326 
L 341.86752 100.265459 
L 342.04608 111.082712 
L 342.13536 112.219896 
L 342.22464 155.109428 
L 342.31392 131.186781 
L 342.4032 224.047251 
L 342.58176 88.791 
L 342.67104 126.37895 
L 342.76032 101.040515 
L 342.93888 150.814289 
L 343.02816 143.562843 
L 343.11744 229.220692 
L 343.20672 205.613702 
L 343.296 100.655846 
L 343.38528 180.734921 
L 343.47456 178.68278 
L 343.56384 138.115903 
L 343.65312 150.911134 
L 343.7424 145.996766 
L 343.92096 115.313815 
L 344.01024 159.220172 
L 344.1888 130.307414 
L 344.27808 77.05418 
L 344.36736 192.490252 
L 344.45664 103.058166 
L 344.54592 106.523957 
L 344.6352 144.410722 
L 344.72448 132.982187 
L 344.81376 102.976499 
L 344.90304 122.336834 
L 344.99232 97.267593 
L 345.0816 146.229147 
L 345.26016 118.823771 
L 345.34944 144.311956 
L 345.61728 92.826455 
L 345.88512 190.487739 
L 345.9744 111.17388 
L 346.06368 177.079335 
L 346.15296 114.098199 
L 346.24224 139.463197 
L 346.33152 122.490492 
L 346.4208 136.628369 
L 346.51008 69.737962 
L 346.59936 172.470651 
L 346.77792 96.10939 
L 346.8672 131.384339 
L 346.95648 119.770771 
L 347.04576 147.140603 
L 347.13504 144.841867 
L 347.40288 87.680075 
L 347.49216 146.179669 
L 347.58144 92.710874 
L 347.67072 104.861513 
L 347.76 163.358652 
L 347.93856 71.17629 
L 348.11712 152.50374 
L 348.2064 100.998519 
L 348.38496 154.761363 
L 348.56352 91.098728 
L 348.6528 175.308167 
L 348.92064 98.80982 
L 349.00992 156.563305 
L 349.0992 107.441619 
L 349.18848 116.184489 
L 349.27776 93.47982 
L 349.36704 144.320541 
L 349.45632 126.335398 
L 349.5456 165.07128 
L 349.63488 101.107831 
L 349.72416 168.824723 
L 349.81344 151.872269 
L 349.90272 168.63659 
L 350.08128 110.705081 
L 350.17056 160.473211 
L 350.25984 112.788272 
L 350.34912 128.600293 
L 350.70624 108.256632 
L 350.8848 137.713285 
L 350.97408 131.394917 
L 351.06336 167.446931 
L 351.3312 91.401966 
L 351.68832 174.626661 
L 351.7776 111.527945 
L 351.86688 179.236962 
L 351.95616 107.816997 
L 352.13472 162.012351 
L 352.224 149.159605 
L 352.31328 115.95153 
L 352.40256 127.644898 
L 352.49184 108.180433 
L 352.84896 251.754161 
L 353.02752 105.803534 
L 353.1168 90.386549 
L 353.20608 128.08581 
L 353.29536 93.239076 
L 353.38464 180.694756 
L 353.47392 106.163977 
L 353.5632 109.810668 
L 353.65248 129.337708 
L 353.74176 244.197851 
L 353.92032 103.141455 
L 354.09888 122.111983 
L 354.18816 92.318745 
L 354.36672 236.856254 
L 354.54528 107.070941 
L 354.72384 241.01445 
L 354.9024 98.837233 
L 354.99168 108.798183 
L 355.08096 158.45605 
L 355.17024 125.216144 
L 355.25952 132.101823 
L 355.3488 150.80876 
L 355.52736 102.304868 
L 355.61664 124.089169 
L 355.70592 228.019954 
L 355.7952 85.574342 
L 355.88448 160.470464 
L 356.06304 113.846061 
L 356.15232 100.270572 
L 356.2416 101.357807 
L 356.50944 151.84216 
L 356.59872 81.821908 
L 356.688 108.674289 
L 356.77728 178.48621 
L 356.86656 126.579802 
L 356.95584 162.23013 
L 357.04512 114.438826 
L 357.1344 155.419062 
L 357.22368 127.321553 
L 357.31296 136.926934 
L 357.40224 102.171036 
L 357.49152 148.689828 
L 357.5808 73.504959 
L 357.67008 110.560477 
L 357.75936 109.200999 
L 357.84864 104.671391 
L 357.93792 170.549084 
L 358.0272 163.06528 
L 358.11648 130.817343 
L 358.20576 145.597713 
L 358.29504 92.693275 
L 358.38432 146.107299 
L 358.56288 120.024944 
L 358.65216 175.361163 
L 358.74144 119.03917 
L 358.83072 134.432027 
L 359.00928 126.818206 
L 359.09856 93.369939 
L 359.45568 154.502725 
L 359.72352 74.401899 
L 359.90208 155.300473 
L 359.99136 97.111606 
L 360.08064 124.387823 
L 360.16992 120.65431 
L 360.2592 103.008295 
L 360.34848 148.848708 
L 360.52704 80.220654 
L 360.7056 117.173779 
L 360.79488 131.068456 
L 360.97344 110.898329 
L 361.06272 126.723479 
L 361.152 98.102785 
L 361.33056 127.278458 
L 361.41984 135.498879 
L 361.50912 120.050108 
L 361.5984 130.216408 
L 361.68768 208.770741 
L 361.86624 108.427785 
L 361.95552 116.157212 
L 362.0448 101.168714 
L 362.13408 104.503494 
L 362.22336 192.982826 
L 362.31264 128.687642 
L 362.40192 199.593497 
L 362.4912 176.064028 
L 362.58048 109.258114 
L 362.66976 115.001297 
L 362.75904 130.465018 
L 362.9376 73.316712 
L 363.11616 145.885828 
L 363.29472 102.755035 
L 363.384 113.313807 
L 363.47328 115.656705 
L 363.56256 98.552042 
L 363.74112 106.239803 
L 363.8304 105.134165 
L 363.91968 171.249102 
L 364.09824 132.4183 
L 364.2768 151.558514 
L 364.36608 123.749536 
L 364.45536 154.556405 
L 364.54464 114.416788 
L 364.7232 210.104189 
L 364.90176 94.603295 
L 365.08032 117.956672 
L 365.1696 199.312881 
L 365.25888 131.165031 
L 365.34816 172.802118 
L 365.52672 106.138596 
L 365.616 123.689846 
L 365.70528 97.176558 
L 365.97312 170.597234 
L 366.0624 214.775755 
L 366.33024 137.916755 
L 366.41952 124.811614 
L 366.5088 142.94737 
L 366.59808 101.311267 
L 366.68736 119.097953 
L 366.86592 96.044141 
L 366.9552 104.854835 
L 367.04448 81.015126 
L 367.13376 183.678919 
L 367.31232 85.457329 
L 367.4016 97.913988 
L 367.58016 185.630987 
L 367.66944 112.648179 
L 367.75872 113.529094 
L 367.848 83.703615 
L 368.02656 180.388357 
L 368.11584 129.48854 
L 368.20512 139.756722 
L 368.2944 118.089465 
L 368.38368 151.282067 
L 368.47296 139.392547 
L 368.56224 185.338034 
L 368.65152 124.22149 
L 368.7408 145.434963 
L 368.83008 99.932034 
L 369.00864 169.773914 
L 369.27648 90.801858 
L 369.36576 127.822031 
L 369.45504 122.691775 
L 369.54432 138.735763 
L 369.6336 120.134666 
L 369.72288 139.742099 
L 369.81216 137.305812 
L 370.08 92.464916 
L 370.16928 156.855029 
L 370.25856 112.116071 
L 370.34784 176.490306 
L 370.43712 104.784782 
L 370.61568 158.88181 
L 370.70496 152.951457 
L 370.79424 134.809997 
L 370.9728 146.354448 
L 371.24064 99.299156 
L 371.32992 76.2324 
L 371.59776 200.760505 
L 371.77632 116.799202 
L 371.8656 168.953349 
L 372.13344 91.98639 
L 372.312 213.158581 
L 372.49056 89.782208 
L 372.57984 101.374374 
L 372.84768 174.879457 
L 372.93696 149.864474 
L 373.02624 176.432324 
L 373.11552 133.413176 
L 373.2048 139.737895 
L 373.29408 156.364061 
L 373.38336 117.411669 
L 373.47264 181.209333 
L 373.56192 113.50913 
L 373.6512 169.234091 
L 373.74048 158.194352 
L 373.82976 129.218226 
L 374.00832 166.332878 
L 374.0976 145.157453 
L 374.18688 161.183913 
L 374.27616 108.796276 
L 374.45472 134.079936 
L 374.63328 100.778004 
L 374.72256 167.609098 
L 374.90112 126.341244 
L 374.9904 129.830402 
L 375.16896 123.775171 
L 375.25824 201.792564 
L 375.4368 86.639824 
L 375.61536 158.286394 
L 375.79392 97.550735 
L 375.8832 186.982437 
L 375.97248 130.918489 
L 376.06176 133.403311 
L 376.15104 121.179479 
L 376.3296 146.296822 
L 376.50816 118.319581 
L 376.59744 178.646782 
L 376.68672 116.561638 
L 376.776 123.021876 
L 376.86528 152.212814 
L 377.04384 111.432837 
L 377.13312 209.729468 
L 377.2224 88.430695 
L 377.31168 156.348426 
L 377.40096 150.923765 
L 377.57952 121.413911 
L 377.6688 132.392762 
L 377.75808 192.591643 
L 377.84736 101.035395 
L 377.93664 125.264956 
L 378.02592 98.033421 
L 378.1152 136.069451 
L 378.20448 126.628202 
L 378.29376 172.42415 
L 378.38304 96.370434 
L 378.5616 176.510131 
L 378.74016 97.719979 
L 378.82944 110.466561 
L 378.91872 154.33587 
L 379.09728 135.952724 
L 379.18656 93.187884 
L 379.27584 133.281656 
L 379.36512 237.03246 
L 379.54368 130.768043 
L 379.72224 152.154699 
L 379.81152 63.648 
L 379.99008 163.201723 
L 380.07936 133.951223 
L 380.16864 146.522286 
L 380.25792 125.550566 
L 380.43648 184.440907 
L 380.52576 162.804037 
L 380.61504 108.564352 
L 380.70432 146.237072 
L 380.88288 89.414548 
L 381.06144 160.8479 
L 381.15072 166.898263 
L 381.24 140.801834 
L 381.32928 182.702626 
L 381.59712 79.884233 
L 381.6864 156.290941 
L 381.77568 83.144989 
L 381.95424 127.372643 
L 382.04352 118.012478 
L 382.1328 93.629432 
L 382.31136 210.453974 
L 382.40064 86.278041 
L 382.48992 121.448146 
L 382.5792 100.022298 
L 382.66848 143.714495 
L 382.75776 135.982879 
L 382.84704 153.610857 
L 382.93632 103.994113 
L 383.0256 122.628773 
L 383.20416 191.464463 
L 383.29344 100.593631 
L 383.38272 108.6236 
L 383.472 121.294129 
L 383.56128 117.692334 
L 383.65056 182.235858 
L 383.73984 117.180629 
L 383.82912 128.747525 
L 383.9184 159.179215 
L 384.00768 77.269821 
L 384.27552 214.729378 
L 384.3648 163.634476 
L 384.45408 188.047009 
L 384.54336 104.622666 
L 384.63264 168.213286 
L 384.72192 104.620033 
L 384.8112 130.33825 
L 384.98976 73.862557 
L 385.07904 226.751023 
L 385.2576 144.329743 
L 385.34688 150.220057 
L 385.43616 126.185606 
L 385.52544 171.008897 
L 385.61472 118.100294 
L 385.704 145.95884 
L 385.79328 124.969568 
L 385.88256 137.474232 
L 386.06112 83.41493 
L 386.1504 144.366646 
L 386.23968 142.47768 
L 386.32896 125.718584 
L 386.41824 126.109259 
L 386.5968 130.993579 
L 386.77536 119.527169 
L 386.86464 137.877777 
L 386.95392 120.797394 
L 387.0432 157.87712 
L 387.13248 122.962011 
L 387.22176 141.807215 
L 387.31104 119.83417 
L 387.4896 154.158583 
L 387.57888 140.849282 
L 387.66816 79.269713 
L 387.75744 96.139696 
L 387.84672 91.518486 
L 388.02528 163.517884 
L 388.11456 138.78223 
L 388.20384 170.839292 
L 388.29312 108.602929 
L 388.3824 120.241376 
L 388.47168 128.331896 
L 388.56096 119.628402 
L 388.73952 158.900247 
L 388.8288 106.644383 
L 389.00736 140.211382 
L 389.09664 104.073309 
L 389.18592 160.935267 
L 389.2752 111.223801 
L 389.36448 147.344956 
L 389.45376 114.699376 
L 389.54304 147.121313 
L 389.63232 132.647705 
L 389.7216 137.65036 
L 389.81088 125.993917 
L 389.90016 133.144482 
L 389.98944 162.137918 
L 390.168 121.170479 
L 390.25728 181.17986 
L 390.34656 99.037029 
L 390.43584 162.233028 
L 390.52512 134.455286 
L 390.6144 156.725951 
L 390.70368 143.147034 
L 390.79296 84.952255 
L 391.0608 147.053211 
L 391.15008 119.590485 
L 391.23936 153.379157 
L 391.32864 127.126749 
L 391.41792 130.107532 
L 391.5072 217.983505 
L 391.59648 101.529956 
L 391.68576 136.480103 
L 391.77504 79.365264 
L 392.04288 146.791868 
L 392.13216 105.501055 
L 392.22144 142.969774 
L 392.31072 112.808134 
L 392.4 116.795171 
L 392.48928 147.055227 
L 392.66784 96.546116 
L 392.75712 117.392331 
L 392.8464 186.090768 
L 393.11424 118.176356 
L 393.20352 111.091589 
L 393.2928 131.628295 
L 393.47136 108.277864 
L 393.56064 157.610687 
L 393.64992 151.003443 
L 393.7392 116.700608 
L 393.91776 131.685696 
L 394.00704 114.007329 
L 394.09632 155.960423 
L 394.1856 129.695092 
L 394.27488 147.796738 
L 394.36416 104.575072 
L 394.45344 109.65946 
L 394.54272 111.899171 
L 394.632 178.392324 
L 394.81056 86.900251 
L 394.98912 173.637405 
L 395.0784 96.357964 
L 395.16768 101.421313 
L 395.25696 91.673799 
L 395.34624 148.6382 
L 395.43552 137.597052 
L 395.5248 141.535964 
L 395.61408 139.024682 
L 395.70336 125.522806 
L 395.79264 127.619579 
L 395.88192 148.059921 
L 396.06048 69.798483 
L 396.14976 111.037435 
L 396.23904 98.003315 
L 396.32832 147.173 
L 396.4176 136.470892 
L 396.50688 159.51485 
L 396.68544 101.79717 
L 396.77472 178.388805 
L 396.864 111.553302 
L 396.95328 126.730302 
L 397.04256 92.964821 
L 397.13184 94.646069 
L 397.22112 101.427686 
L 397.3104 74.142499 
L 397.57824 149.055882 
L 397.66752 78.728915 
L 397.7568 148.99471 
L 397.84608 130.785803 
L 397.93536 131.174896 
L 398.02464 132.154526 
L 398.11392 88.026307 
L 398.2032 157.69134 
L 398.29248 100.315474 
L 398.38176 129.1367 
L 398.47104 110.517438 
L 398.56032 119.484814 
L 398.6496 74.281337 
L 398.73888 185.776063 
L 398.82816 129.309104 
L 398.91744 135.855276 
L 399.00672 136.124936 
L 399.096 104.042397 
L 399.18528 131.324088 
L 399.27456 130.714646 
L 399.36384 102.511759 
L 399.45312 108.560263 
L 399.5424 132.40197 
L 399.72096 98.042071 
L 399.81024 137.824266 
L 399.89952 101.413818 
L 399.9888 171.344224 
L 400.25664 91.413433 
L 400.34592 118.976391 
L 400.61376 74.629338 
L 400.79232 161.249261 
L 400.8816 104.837375 
L 400.97088 107.72738 
L 401.14944 185.290592 
L 401.23872 209.744387 
L 401.41728 106.860292 
L 401.50656 98.847277 
L 401.68512 127.938214 
L 401.7744 132.989751 
L 401.86368 159.729411 
L 402.04224 79.748657 
L 402.2208 176.192697 
L 402.31008 112.869139 
L 402.39936 125.534096 
L 402.48864 89.559814 
L 402.57792 119.398674 
L 402.6672 97.00116 
L 402.84576 194.105517 
L 403.02432 106.318899 
L 403.1136 113.52842 
L 403.20288 168.337925 
L 403.29216 77.720591 
L 403.47072 126.805911 
L 403.56 118.477363 
L 403.64928 90.278887 
L 403.73856 147.198674 
L 403.82784 109.207823 
L 403.91712 160.180384 
L 404.0064 108.442816 
L 404.18496 136.705682 
L 404.27424 127.678421 
L 404.36352 89.555906 
L 404.4528 146.662366 
L 404.54208 136.191808 
L 404.63136 148.137074 
L 404.72064 112.2754 
L 404.8992 192.197533 
L 404.98848 171.772588 
L 405.07776 97.280066 
L 405.3456 164.120623 
L 405.43488 122.452486 
L 405.52416 148.888054 
L 405.70272 93.47824 
L 405.88128 159.867361 
L 406.05984 88.135193 
L 406.14912 159.258682 
L 406.32768 92.839539 
L 406.41696 101.913675 
L 406.59552 191.935762 
L 406.6848 120.780988 
L 406.77408 159.938617 
L 406.86336 95.550902 
L 407.04192 154.169138 
L 407.1312 136.954263 
L 407.22048 150.212063 
L 407.30976 147.642612 
L 407.48832 81.039886 
L 407.5776 155.954708 
L 407.66688 140.010049 
L 407.75616 192.311051 
L 407.93472 113.786819 
L 408.024 117.030329 
L 408.11328 149.935348 
L 408.20256 90.704483 
L 408.29184 99.326598 
L 408.38112 150.711731 
L 408.4704 65.180852 
L 408.55968 122.291358 
L 408.73824 89.439403 
L 408.82752 152.150933 
L 409.00608 116.043831 
L 409.09536 206.194802 
L 409.45248 113.921198 
L 409.54176 153.293799 
L 409.63104 108.418469 
L 409.72032 138.121036 
L 409.89888 81.42542 
L 409.98816 194.027307 
L 410.07744 155.512482 
L 410.16672 188.256748 
L 410.34528 119.051523 
L 410.43456 141.128476 
L 410.52384 85.665085 
L 410.61312 171.813078 
L 410.79168 90.790619 
L 410.97024 141.367944 
L 411.05952 137.954843 
L 411.1488 95.045658 
L 411.23808 117.595004 
L 411.32736 82.346016 
L 411.50592 164.251684 
L 411.68448 109.83523 
L 411.77376 167.324029 
L 411.86304 105.811376 
L 412.0416 138.261363 
L 412.13088 87.72189 
L 412.30944 131.426484 
L 412.39872 172.896582 
L 412.488 90.456385 
L 412.57728 142.586215 
L 412.66656 139.497241 
L 412.84512 151.30953 
L 412.9344 151.354372 
L 413.11296 113.263884 
L 413.20224 104.313856 
L 413.29152 175.739984 
L 413.3808 119.756902 
L 413.47008 130.304177 
L 413.55936 152.321833 
L 413.73792 98.637543 
L 413.8272 99.9723 
L 413.91648 132.619498 
L 414.00576 125.954278 
L 414.09504 121.298784 
L 414.2736 154.056199 
L 414.36288 154.014 
L 414.54144 100.973123 
L 414.63072 189.312452 
L 414.63072 189.312452 
" style="fill:none;stroke:#0000ff;stroke-linecap:square;stroke-width:1.5;"/>
   </g>
   <g id="patch_3">
    <path d="M 57.6 307.584 
L 57.6 41.472 
" style="fill:none;stroke:#000000;stroke-linecap:square;stroke-linejoin:miter;stroke-width:0.8;"/>
   </g>
   <g id="patch_4">
    <path d="M 414.72 307.584 
L 414.72 41.472 
" style="fill:none;stroke:#000000;stroke-linecap:square;stroke-linejoin:miter;stroke-width:0.8;"/>
   </g>
   <g id="patch_5">
    <path d="M 57.6 307.584 
L 414.72 307.584 
" style="fill:none;stroke:#000000;stroke-linecap:square;stroke-linejoin:miter;stroke-width:0.8;"/>
   </g>
   <g id="patch_6">
    <path d="M 57.6 41.472 
L 414.72 41.472 
" style="fill:none;stroke:#000000;stroke-linecap:square;stroke-linejoin:miter;stroke-width:0.8;"/>
   </g>
   <g id="legend_1">
    <g id="patch_7">
     <path d="M 68.8 299.584 
L 269.4375 299.584 
Q 272.6375 299.584 272.6375 296.384 
L 272.6375 274.499 
Q 272.6375 271.299 269.4375 271.299 
L 68.8 271.299 
Q 65.6 271.299 65.6 274.499 
L 65.6 296.384 
Q 65.6 299.584 68.8 299.584 
z
" style="fill:#ffffff;opacity:0.8;stroke:#cccccc;stroke-linejoin:miter;"/>
    </g>
    <g id="line2d_20">
     <path d="M 72 284.2565 
L 104 284.2565 
" style="fill:none;stroke:#0000ff;stroke-linecap:square;stroke-width:1.5;"/>
    </g>
    <g id="line2d_21"/>
    <g id="text_12">
     <!-- cumulative reward -->
     <g transform="translate(116.8 289.8565)scale(0.16 -0.16)">
      <defs>
       <path d="M 3122 3366 
L 3122 2828 
Q 2878 2963 2633 3030 
Q 2388 3097 2138 3097 
Q 1578 3097 1268 2742 
Q 959 2388 959 1747 
Q 959 1106 1268 751 
Q 1578 397 2138 397 
Q 2388 397 2633 464 
Q 2878 531 3122 666 
L 3122 134 
Q 2881 22 2623 -34 
Q 2366 -91 2075 -91 
Q 1284 -91 818 406 
Q 353 903 353 1747 
Q 353 2603 823 3093 
Q 1294 3584 2113 3584 
Q 2378 3584 2631 3529 
Q 2884 3475 3122 3366 
z
" id="DejaVuSans-63" transform="scale(0.015625)"/>
      </defs>
      <use xlink:href="#DejaVuSans-63"/>
      <use x="54.980469" xlink:href="#DejaVuSans-75"/>
      <use x="118.359375" xlink:href="#DejaVuSans-6d"/>
      <use x="215.771484" xlink:href="#DejaVuSans-75"/>
      <use x="279.150391" xlink:href="#DejaVuSans-6c"/>
      <use x="306.933594" xlink:href="#DejaVuSans-61"/>
      <use x="368.212891" xlink:href="#DejaVuSans-74"/>
      <use x="407.421875" xlink:href="#DejaVuSans-69"/>
      <use x="435.205078" xlink:href="#DejaVuSans-76"/>
      <use x="494.384766" xlink:href="#DejaVuSans-65"/>
      <use x="555.908203" xlink:href="#DejaVuSans-20"/>
      <use x="587.695312" xlink:href="#DejaVuSans-72"/>
      <use x="626.558594" xlink:href="#DejaVuSans-65"/>
      <use x="688.082031" xlink:href="#DejaVuSans-77"/>
      <use x="769.869141" xlink:href="#DejaVuSans-61"/>
      <use x="831.148438" xlink:href="#DejaVuSans-72"/>
      <use x="870.511719" xlink:href="#DejaVuSans-64"/>
     </g>
    </g>
   </g>
  </g>
 </g>
 <defs>
  <clipPath id="p6f2757f3b7">
   <rect height="266.112" width="357.12" x="57.6" y="41.472"/>
  </clipPath>
 </defs>
</svg>
