<?xml version="1.0" encoding="utf-8" standalone="no"?>
<!DOCTYPE svg PUBLIC "-//W3C//DTD SVG 1.1//EN"
  "http://www.w3.org/Graphics/SVG/1.1/DTD/svg11.dtd">
<svg height="345.6pt" version="1.1" viewBox="0 0 460.8 345.6" width="460.8pt" xmlns="http://www.w3.org/2000/svg" xmlns:xlink="http://www.w3.org/1999/xlink">
 <metadata>
  <rdf:RDF xmlns:cc="http://creativecommons.org/ns#" xmlns:dc="http://purl.org/dc/elements/1.1/" xmlns:rdf="http://www.w3.org/1999/02/22-rdf-syntax-ns#">
   <cc:Work>
    <dc:type rdf:resource="http://purl.org/dc/dcmitype/StillImage"/>
    <dc:date>2021-11-04T09:37:24.373865</dc:date>
    <dc:description>{"agent.algorithm": "RayProximalPolicyOptimization", "agent.algorithm.render_env": false, "agent.algorithm.num_workers": 0, "agent.algorithm.batch_mode": "complete_episodes", "agent.algorithm.lr": 1e-05, "agent.algorithm.train_batch_size": 200, "agent.algorithm.optimizer": "Adam", "agent.algorithm.vf_clip_param": 10000.0, "agent.algorithm.model": {"fcnet_activation": "tanh", "fcnet_hiddens": [30, 30]}, "env.env_class": "SchedulerPolicyRayEnvironment", "env.env_config": {"solver_driver": "CMAdriver", "solver_driver_args": [20, 10, 7, 0.5], "maximize": false, "steps": 50, "state_metrics_names": ["DifferenceOfBest", "SolverStateHistory"], "state_metrics_config": [[40, false, 1, true, false], [{"step_size": {"max": 3, "min": 0}}, 40]], "reward_metric": "Best", "reward_metric_config": [false, false], "memes_no": 1, "action_space_config": {"step_size": {"max": 3, "min": 1e-10}}}}</dc:description>
    <dc:format>image/svg+xml</dc:format>
    <dc:creator>
     <cc:Agent>
      <dc:title>Matplotlib v3.4.3, https://matplotlib.org/</dc:title>
     </cc:Agent>
    </dc:creator>
   </cc:Work>
  </rdf:RDF>
 </metadata>
 <defs>
  <style type="text/css">*{stroke-linecap:butt;stroke-linejoin:round;}</style>
 </defs>
 <g id="figure_1">
  <g id="patch_1">
   <path d="M 0 345.6 
L 460.8 345.6 
L 460.8 0 
L 0 0 
z
" style="fill:#ffffff;"/>
  </g>
  <g id="axes_1">
   <g id="patch_2">
    <path d="M 57.6 307.584 
L 414.72 307.584 
L 414.72 41.472 
L 57.6 41.472 
z
" style="fill:#ffffff;"/>
   </g>
   <g id="matplotlib.axis_1">
    <g id="xtick_1">
     <g id="line2d_1">
      <path clip-path="url(#p622df9dc4a)" d="M 57.6 307.584 
L 57.6 41.472 
" style="fill:none;stroke:#b0b0b0;stroke-linecap:square;stroke-width:0.8;"/>
     </g>
     <g id="line2d_2">
      <defs>
       <path d="M 0 0 
L 0 3.5 
" id="mdcce8deb9b" style="stroke:#000000;stroke-width:0.8;"/>
      </defs>
      <g>
       <use style="stroke:#000000;stroke-width:0.8;" x="57.6" xlink:href="#mdcce8deb9b" y="307.584"/>
      </g>
     </g>
     <g id="text_1">
      <!-- 0 -->
      <g transform="translate(52.51 326.7415)scale(0.16 -0.16)">
       <defs>
        <path d="M 2034 4250 
Q 1547 4250 1301 3770 
Q 1056 3291 1056 2328 
Q 1056 1369 1301 889 
Q 1547 409 2034 409 
Q 2525 409 2770 889 
Q 3016 1369 3016 2328 
Q 3016 3291 2770 3770 
Q 2525 4250 2034 4250 
z
M 2034 4750 
Q 2819 4750 3233 4129 
Q 3647 3509 3647 2328 
Q 3647 1150 3233 529 
Q 2819 -91 2034 -91 
Q 1250 -91 836 529 
Q 422 1150 422 2328 
Q 422 3509 836 4129 
Q 1250 4750 2034 4750 
z
" id="DejaVuSans-30" transform="scale(0.015625)"/>
       </defs>
       <use xlink:href="#DejaVuSans-30"/>
      </g>
     </g>
    </g>
    <g id="xtick_2">
     <g id="line2d_3">
      <path clip-path="url(#p622df9dc4a)" d="M 146.88 307.584 
L 146.88 41.472 
" style="fill:none;stroke:#b0b0b0;stroke-linecap:square;stroke-width:0.8;"/>
     </g>
     <g id="line2d_4">
      <g>
       <use style="stroke:#000000;stroke-width:0.8;" x="146.88" xlink:href="#mdcce8deb9b" y="307.584"/>
      </g>
     </g>
     <g id="text_2">
      <!-- 1000 -->
      <g transform="translate(126.52 326.7415)scale(0.16 -0.16)">
       <defs>
        <path d="M 794 531 
L 1825 531 
L 1825 4091 
L 703 3866 
L 703 4441 
L 1819 4666 
L 2450 4666 
L 2450 531 
L 3481 531 
L 3481 0 
L 794 0 
L 794 531 
z
" id="DejaVuSans-31" transform="scale(0.015625)"/>
       </defs>
       <use xlink:href="#DejaVuSans-31"/>
       <use x="63.623047" xlink:href="#DejaVuSans-30"/>
       <use x="127.246094" xlink:href="#DejaVuSans-30"/>
       <use x="190.869141" xlink:href="#DejaVuSans-30"/>
      </g>
     </g>
    </g>
    <g id="xtick_3">
     <g id="line2d_5">
      <path clip-path="url(#p622df9dc4a)" d="M 236.16 307.584 
L 236.16 41.472 
" style="fill:none;stroke:#b0b0b0;stroke-linecap:square;stroke-width:0.8;"/>
     </g>
     <g id="line2d_6">
      <g>
       <use style="stroke:#000000;stroke-width:0.8;" x="236.16" xlink:href="#mdcce8deb9b" y="307.584"/>
      </g>
     </g>
     <g id="text_3">
      <!-- 2000 -->
      <g transform="translate(215.8 326.7415)scale(0.16 -0.16)">
       <defs>
        <path d="M 1228 531 
L 3431 531 
L 3431 0 
L 469 0 
L 469 531 
Q 828 903 1448 1529 
Q 2069 2156 2228 2338 
Q 2531 2678 2651 2914 
Q 2772 3150 2772 3378 
Q 2772 3750 2511 3984 
Q 2250 4219 1831 4219 
Q 1534 4219 1204 4116 
Q 875 4013 500 3803 
L 500 4441 
Q 881 4594 1212 4672 
Q 1544 4750 1819 4750 
Q 2544 4750 2975 4387 
Q 3406 4025 3406 3419 
Q 3406 3131 3298 2873 
Q 3191 2616 2906 2266 
Q 2828 2175 2409 1742 
Q 1991 1309 1228 531 
z
" id="DejaVuSans-32" transform="scale(0.015625)"/>
       </defs>
       <use xlink:href="#DejaVuSans-32"/>
       <use x="63.623047" xlink:href="#DejaVuSans-30"/>
       <use x="127.246094" xlink:href="#DejaVuSans-30"/>
       <use x="190.869141" xlink:href="#DejaVuSans-30"/>
      </g>
     </g>
    </g>
    <g id="xtick_4">
     <g id="line2d_7">
      <path clip-path="url(#p622df9dc4a)" d="M 325.44 307.584 
L 325.44 41.472 
" style="fill:none;stroke:#b0b0b0;stroke-linecap:square;stroke-width:0.8;"/>
     </g>
     <g id="line2d_8">
      <g>
       <use style="stroke:#000000;stroke-width:0.8;" x="325.44" xlink:href="#mdcce8deb9b" y="307.584"/>
      </g>
     </g>
     <g id="text_4">
      <!-- 3000 -->
      <g transform="translate(305.08 326.7415)scale(0.16 -0.16)">
       <defs>
        <path d="M 2597 2516 
Q 3050 2419 3304 2112 
Q 3559 1806 3559 1356 
Q 3559 666 3084 287 
Q 2609 -91 1734 -91 
Q 1441 -91 1130 -33 
Q 819 25 488 141 
L 488 750 
Q 750 597 1062 519 
Q 1375 441 1716 441 
Q 2309 441 2620 675 
Q 2931 909 2931 1356 
Q 2931 1769 2642 2001 
Q 2353 2234 1838 2234 
L 1294 2234 
L 1294 2753 
L 1863 2753 
Q 2328 2753 2575 2939 
Q 2822 3125 2822 3475 
Q 2822 3834 2567 4026 
Q 2313 4219 1838 4219 
Q 1578 4219 1281 4162 
Q 984 4106 628 3988 
L 628 4550 
Q 988 4650 1302 4700 
Q 1616 4750 1894 4750 
Q 2613 4750 3031 4423 
Q 3450 4097 3450 3541 
Q 3450 3153 3228 2886 
Q 3006 2619 2597 2516 
z
" id="DejaVuSans-33" transform="scale(0.015625)"/>
       </defs>
       <use xlink:href="#DejaVuSans-33"/>
       <use x="63.623047" xlink:href="#DejaVuSans-30"/>
       <use x="127.246094" xlink:href="#DejaVuSans-30"/>
       <use x="190.869141" xlink:href="#DejaVuSans-30"/>
      </g>
     </g>
    </g>
    <g id="xtick_5">
     <g id="line2d_9">
      <path clip-path="url(#p622df9dc4a)" d="M 414.72 307.584 
L 414.72 41.472 
" style="fill:none;stroke:#b0b0b0;stroke-linecap:square;stroke-width:0.8;"/>
     </g>
     <g id="line2d_10">
      <g>
       <use style="stroke:#000000;stroke-width:0.8;" x="414.72" xlink:href="#mdcce8deb9b" y="307.584"/>
      </g>
     </g>
     <g id="text_5">
      <!-- 4000 -->
      <g transform="translate(394.36 326.7415)scale(0.16 -0.16)">
       <defs>
        <path d="M 2419 4116 
L 825 1625 
L 2419 1625 
L 2419 4116 
z
M 2253 4666 
L 3047 4666 
L 3047 1625 
L 3713 1625 
L 3713 1100 
L 3047 1100 
L 3047 0 
L 2419 0 
L 2419 1100 
L 313 1100 
L 313 1709 
L 2253 4666 
z
" id="DejaVuSans-34" transform="scale(0.015625)"/>
       </defs>
       <use xlink:href="#DejaVuSans-34"/>
       <use x="63.623047" xlink:href="#DejaVuSans-30"/>
       <use x="127.246094" xlink:href="#DejaVuSans-30"/>
       <use x="190.869141" xlink:href="#DejaVuSans-30"/>
      </g>
     </g>
    </g>
    <g id="text_6">
     <!-- Episodes -->
     <g transform="translate(200.5725 346.2265)scale(0.16 -0.16)">
      <defs>
       <path d="M 628 4666 
L 3578 4666 
L 3578 4134 
L 1259 4134 
L 1259 2753 
L 3481 2753 
L 3481 2222 
L 1259 2222 
L 1259 531 
L 3634 531 
L 3634 0 
L 628 0 
L 628 4666 
z
" id="DejaVuSans-45" transform="scale(0.015625)"/>
       <path d="M 1159 525 
L 1159 -1331 
L 581 -1331 
L 581 3500 
L 1159 3500 
L 1159 2969 
Q 1341 3281 1617 3432 
Q 1894 3584 2278 3584 
Q 2916 3584 3314 3078 
Q 3713 2572 3713 1747 
Q 3713 922 3314 415 
Q 2916 -91 2278 -91 
Q 1894 -91 1617 61 
Q 1341 213 1159 525 
z
M 3116 1747 
Q 3116 2381 2855 2742 
Q 2594 3103 2138 3103 
Q 1681 3103 1420 2742 
Q 1159 2381 1159 1747 
Q 1159 1113 1420 752 
Q 1681 391 2138 391 
Q 2594 391 2855 752 
Q 3116 1113 3116 1747 
z
" id="DejaVuSans-70" transform="scale(0.015625)"/>
       <path d="M 603 3500 
L 1178 3500 
L 1178 0 
L 603 0 
L 603 3500 
z
M 603 4863 
L 1178 4863 
L 1178 4134 
L 603 4134 
L 603 4863 
z
" id="DejaVuSans-69" transform="scale(0.015625)"/>
       <path d="M 2834 3397 
L 2834 2853 
Q 2591 2978 2328 3040 
Q 2066 3103 1784 3103 
Q 1356 3103 1142 2972 
Q 928 2841 928 2578 
Q 928 2378 1081 2264 
Q 1234 2150 1697 2047 
L 1894 2003 
Q 2506 1872 2764 1633 
Q 3022 1394 3022 966 
Q 3022 478 2636 193 
Q 2250 -91 1575 -91 
Q 1294 -91 989 -36 
Q 684 19 347 128 
L 347 722 
Q 666 556 975 473 
Q 1284 391 1588 391 
Q 1994 391 2212 530 
Q 2431 669 2431 922 
Q 2431 1156 2273 1281 
Q 2116 1406 1581 1522 
L 1381 1569 
Q 847 1681 609 1914 
Q 372 2147 372 2553 
Q 372 3047 722 3315 
Q 1072 3584 1716 3584 
Q 2034 3584 2315 3537 
Q 2597 3491 2834 3397 
z
" id="DejaVuSans-73" transform="scale(0.015625)"/>
       <path d="M 1959 3097 
Q 1497 3097 1228 2736 
Q 959 2375 959 1747 
Q 959 1119 1226 758 
Q 1494 397 1959 397 
Q 2419 397 2687 759 
Q 2956 1122 2956 1747 
Q 2956 2369 2687 2733 
Q 2419 3097 1959 3097 
z
M 1959 3584 
Q 2709 3584 3137 3096 
Q 3566 2609 3566 1747 
Q 3566 888 3137 398 
Q 2709 -91 1959 -91 
Q 1206 -91 779 398 
Q 353 888 353 1747 
Q 353 2609 779 3096 
Q 1206 3584 1959 3584 
z
" id="DejaVuSans-6f" transform="scale(0.015625)"/>
       <path d="M 2906 2969 
L 2906 4863 
L 3481 4863 
L 3481 0 
L 2906 0 
L 2906 525 
Q 2725 213 2448 61 
Q 2172 -91 1784 -91 
Q 1150 -91 751 415 
Q 353 922 353 1747 
Q 353 2572 751 3078 
Q 1150 3584 1784 3584 
Q 2172 3584 2448 3432 
Q 2725 3281 2906 2969 
z
M 947 1747 
Q 947 1113 1208 752 
Q 1469 391 1925 391 
Q 2381 391 2643 752 
Q 2906 1113 2906 1747 
Q 2906 2381 2643 2742 
Q 2381 3103 1925 3103 
Q 1469 3103 1208 2742 
Q 947 2381 947 1747 
z
" id="DejaVuSans-64" transform="scale(0.015625)"/>
       <path d="M 3597 1894 
L 3597 1613 
L 953 1613 
Q 991 1019 1311 708 
Q 1631 397 2203 397 
Q 2534 397 2845 478 
Q 3156 559 3463 722 
L 3463 178 
Q 3153 47 2828 -22 
Q 2503 -91 2169 -91 
Q 1331 -91 842 396 
Q 353 884 353 1716 
Q 353 2575 817 3079 
Q 1281 3584 2069 3584 
Q 2775 3584 3186 3129 
Q 3597 2675 3597 1894 
z
M 3022 2063 
Q 3016 2534 2758 2815 
Q 2500 3097 2075 3097 
Q 1594 3097 1305 2825 
Q 1016 2553 972 2059 
L 3022 2063 
z
" id="DejaVuSans-65" transform="scale(0.015625)"/>
      </defs>
      <use xlink:href="#DejaVuSans-45"/>
      <use x="63.183594" xlink:href="#DejaVuSans-70"/>
      <use x="126.660156" xlink:href="#DejaVuSans-69"/>
      <use x="154.443359" xlink:href="#DejaVuSans-73"/>
      <use x="206.542969" xlink:href="#DejaVuSans-6f"/>
      <use x="267.724609" xlink:href="#DejaVuSans-64"/>
      <use x="331.201172" xlink:href="#DejaVuSans-65"/>
      <use x="392.724609" xlink:href="#DejaVuSans-73"/>
     </g>
    </g>
   </g>
   <g id="matplotlib.axis_2">
    <g id="ytick_1">
     <g id="line2d_11">
      <path clip-path="url(#p622df9dc4a)" d="M 57.6 260.205773 
L 414.72 260.205773 
" style="fill:none;stroke:#b0b0b0;stroke-linecap:square;stroke-width:0.8;"/>
     </g>
     <g id="line2d_12">
      <defs>
       <path d="M 0 0 
L -3.5 0 
" id="mc038ee8817" style="stroke:#000000;stroke-width:0.8;"/>
      </defs>
      <g>
       <use style="stroke:#000000;stroke-width:0.8;" x="57.6" xlink:href="#mc038ee8817" y="260.205773"/>
      </g>
     </g>
     <g id="text_7">
      <!-- −30000 -->
      <g transform="translate(-13.7075 266.284523)scale(0.16 -0.16)">
       <defs>
        <path d="M 678 2272 
L 4684 2272 
L 4684 1741 
L 678 1741 
L 678 2272 
z
" id="DejaVuSans-2212" transform="scale(0.015625)"/>
       </defs>
       <use xlink:href="#DejaVuSans-2212"/>
       <use x="83.789062" xlink:href="#DejaVuSans-33"/>
       <use x="147.412109" xlink:href="#DejaVuSans-30"/>
       <use x="211.035156" xlink:href="#DejaVuSans-30"/>
       <use x="274.658203" xlink:href="#DejaVuSans-30"/>
       <use x="338.28125" xlink:href="#DejaVuSans-30"/>
      </g>
     </g>
    </g>
    <g id="ytick_2">
     <g id="line2d_13">
      <path clip-path="url(#p622df9dc4a)" d="M 57.6 197.289262 
L 414.72 197.289262 
" style="fill:none;stroke:#b0b0b0;stroke-linecap:square;stroke-width:0.8;"/>
     </g>
     <g id="line2d_14">
      <g>
       <use style="stroke:#000000;stroke-width:0.8;" x="57.6" xlink:href="#mc038ee8817" y="197.289262"/>
      </g>
     </g>
     <g id="text_8">
      <!-- −20000 -->
      <g transform="translate(-13.7075 203.368012)scale(0.16 -0.16)">
       <use xlink:href="#DejaVuSans-2212"/>
       <use x="83.789062" xlink:href="#DejaVuSans-32"/>
       <use x="147.412109" xlink:href="#DejaVuSans-30"/>
       <use x="211.035156" xlink:href="#DejaVuSans-30"/>
       <use x="274.658203" xlink:href="#DejaVuSans-30"/>
       <use x="338.28125" xlink:href="#DejaVuSans-30"/>
      </g>
     </g>
    </g>
    <g id="ytick_3">
     <g id="line2d_15">
      <path clip-path="url(#p622df9dc4a)" d="M 57.6 134.372751 
L 414.72 134.372751 
" style="fill:none;stroke:#b0b0b0;stroke-linecap:square;stroke-width:0.8;"/>
     </g>
     <g id="line2d_16">
      <g>
       <use style="stroke:#000000;stroke-width:0.8;" x="57.6" xlink:href="#mc038ee8817" y="134.372751"/>
      </g>
     </g>
     <g id="text_9">
      <!-- −10000 -->
      <g transform="translate(-13.7075 140.451501)scale(0.16 -0.16)">
       <use xlink:href="#DejaVuSans-2212"/>
       <use x="83.789062" xlink:href="#DejaVuSans-31"/>
       <use x="147.412109" xlink:href="#DejaVuSans-30"/>
       <use x="211.035156" xlink:href="#DejaVuSans-30"/>
       <use x="274.658203" xlink:href="#DejaVuSans-30"/>
       <use x="338.28125" xlink:href="#DejaVuSans-30"/>
      </g>
     </g>
    </g>
    <g id="ytick_4">
     <g id="line2d_17">
      <path clip-path="url(#p622df9dc4a)" d="M 57.6 71.45624 
L 414.72 71.45624 
" style="fill:none;stroke:#b0b0b0;stroke-linecap:square;stroke-width:0.8;"/>
     </g>
     <g id="line2d_18">
      <g>
       <use style="stroke:#000000;stroke-width:0.8;" x="57.6" xlink:href="#mc038ee8817" y="71.45624"/>
      </g>
     </g>
     <g id="text_10">
      <!-- 0 -->
      <g transform="translate(40.42 77.53499)scale(0.16 -0.16)">
       <use xlink:href="#DejaVuSans-30"/>
      </g>
     </g>
    </g>
    <g id="text_11">
     <!-- Cumulative Reward -->
     <g transform="translate(-21.035 252.52425)rotate(-90)scale(0.16 -0.16)">
      <defs>
       <path d="M 4122 4306 
L 4122 3641 
Q 3803 3938 3442 4084 
Q 3081 4231 2675 4231 
Q 1875 4231 1450 3742 
Q 1025 3253 1025 2328 
Q 1025 1406 1450 917 
Q 1875 428 2675 428 
Q 3081 428 3442 575 
Q 3803 722 4122 1019 
L 4122 359 
Q 3791 134 3420 21 
Q 3050 -91 2638 -91 
Q 1578 -91 968 557 
Q 359 1206 359 2328 
Q 359 3453 968 4101 
Q 1578 4750 2638 4750 
Q 3056 4750 3426 4639 
Q 3797 4528 4122 4306 
z
" id="DejaVuSans-43" transform="scale(0.015625)"/>
       <path d="M 544 1381 
L 544 3500 
L 1119 3500 
L 1119 1403 
Q 1119 906 1312 657 
Q 1506 409 1894 409 
Q 2359 409 2629 706 
Q 2900 1003 2900 1516 
L 2900 3500 
L 3475 3500 
L 3475 0 
L 2900 0 
L 2900 538 
Q 2691 219 2414 64 
Q 2138 -91 1772 -91 
Q 1169 -91 856 284 
Q 544 659 544 1381 
z
M 1991 3584 
L 1991 3584 
z
" id="DejaVuSans-75" transform="scale(0.015625)"/>
       <path d="M 3328 2828 
Q 3544 3216 3844 3400 
Q 4144 3584 4550 3584 
Q 5097 3584 5394 3201 
Q 5691 2819 5691 2113 
L 5691 0 
L 5113 0 
L 5113 2094 
Q 5113 2597 4934 2840 
Q 4756 3084 4391 3084 
Q 3944 3084 3684 2787 
Q 3425 2491 3425 1978 
L 3425 0 
L 2847 0 
L 2847 2094 
Q 2847 2600 2669 2842 
Q 2491 3084 2119 3084 
Q 1678 3084 1418 2786 
Q 1159 2488 1159 1978 
L 1159 0 
L 581 0 
L 581 3500 
L 1159 3500 
L 1159 2956 
Q 1356 3278 1631 3431 
Q 1906 3584 2284 3584 
Q 2666 3584 2933 3390 
Q 3200 3197 3328 2828 
z
" id="DejaVuSans-6d" transform="scale(0.015625)"/>
       <path d="M 603 4863 
L 1178 4863 
L 1178 0 
L 603 0 
L 603 4863 
z
" id="DejaVuSans-6c" transform="scale(0.015625)"/>
       <path d="M 2194 1759 
Q 1497 1759 1228 1600 
Q 959 1441 959 1056 
Q 959 750 1161 570 
Q 1363 391 1709 391 
Q 2188 391 2477 730 
Q 2766 1069 2766 1631 
L 2766 1759 
L 2194 1759 
z
M 3341 1997 
L 3341 0 
L 2766 0 
L 2766 531 
Q 2569 213 2275 61 
Q 1981 -91 1556 -91 
Q 1019 -91 701 211 
Q 384 513 384 1019 
Q 384 1609 779 1909 
Q 1175 2209 1959 2209 
L 2766 2209 
L 2766 2266 
Q 2766 2663 2505 2880 
Q 2244 3097 1772 3097 
Q 1472 3097 1187 3025 
Q 903 2953 641 2809 
L 641 3341 
Q 956 3463 1253 3523 
Q 1550 3584 1831 3584 
Q 2591 3584 2966 3190 
Q 3341 2797 3341 1997 
z
" id="DejaVuSans-61" transform="scale(0.015625)"/>
       <path d="M 1172 4494 
L 1172 3500 
L 2356 3500 
L 2356 3053 
L 1172 3053 
L 1172 1153 
Q 1172 725 1289 603 
Q 1406 481 1766 481 
L 2356 481 
L 2356 0 
L 1766 0 
Q 1100 0 847 248 
Q 594 497 594 1153 
L 594 3053 
L 172 3053 
L 172 3500 
L 594 3500 
L 594 4494 
L 1172 4494 
z
" id="DejaVuSans-74" transform="scale(0.015625)"/>
       <path d="M 191 3500 
L 800 3500 
L 1894 563 
L 2988 3500 
L 3597 3500 
L 2284 0 
L 1503 0 
L 191 3500 
z
" id="DejaVuSans-76" transform="scale(0.015625)"/>
       <path id="DejaVuSans-20" transform="scale(0.015625)"/>
       <path d="M 2841 2188 
Q 3044 2119 3236 1894 
Q 3428 1669 3622 1275 
L 4263 0 
L 3584 0 
L 2988 1197 
Q 2756 1666 2539 1819 
Q 2322 1972 1947 1972 
L 1259 1972 
L 1259 0 
L 628 0 
L 628 4666 
L 2053 4666 
Q 2853 4666 3247 4331 
Q 3641 3997 3641 3322 
Q 3641 2881 3436 2590 
Q 3231 2300 2841 2188 
z
M 1259 4147 
L 1259 2491 
L 2053 2491 
Q 2509 2491 2742 2702 
Q 2975 2913 2975 3322 
Q 2975 3731 2742 3939 
Q 2509 4147 2053 4147 
L 1259 4147 
z
" id="DejaVuSans-52" transform="scale(0.015625)"/>
       <path d="M 269 3500 
L 844 3500 
L 1563 769 
L 2278 3500 
L 2956 3500 
L 3675 769 
L 4391 3500 
L 4966 3500 
L 4050 0 
L 3372 0 
L 2619 2869 
L 1863 0 
L 1184 0 
L 269 3500 
z
" id="DejaVuSans-77" transform="scale(0.015625)"/>
       <path d="M 2631 2963 
Q 2534 3019 2420 3045 
Q 2306 3072 2169 3072 
Q 1681 3072 1420 2755 
Q 1159 2438 1159 1844 
L 1159 0 
L 581 0 
L 581 3500 
L 1159 3500 
L 1159 2956 
Q 1341 3275 1631 3429 
Q 1922 3584 2338 3584 
Q 2397 3584 2469 3576 
Q 2541 3569 2628 3553 
L 2631 2963 
z
" id="DejaVuSans-72" transform="scale(0.015625)"/>
      </defs>
      <use xlink:href="#DejaVuSans-43"/>
      <use x="69.824219" xlink:href="#DejaVuSans-75"/>
      <use x="133.203125" xlink:href="#DejaVuSans-6d"/>
      <use x="230.615234" xlink:href="#DejaVuSans-75"/>
      <use x="293.994141" xlink:href="#DejaVuSans-6c"/>
      <use x="321.777344" xlink:href="#DejaVuSans-61"/>
      <use x="383.056641" xlink:href="#DejaVuSans-74"/>
      <use x="422.265625" xlink:href="#DejaVuSans-69"/>
      <use x="450.048828" xlink:href="#DejaVuSans-76"/>
      <use x="509.228516" xlink:href="#DejaVuSans-65"/>
      <use x="570.751953" xlink:href="#DejaVuSans-20"/>
      <use x="602.539062" xlink:href="#DejaVuSans-52"/>
      <use x="667.521484" xlink:href="#DejaVuSans-65"/>
      <use x="729.044922" xlink:href="#DejaVuSans-77"/>
      <use x="810.832031" xlink:href="#DejaVuSans-61"/>
      <use x="872.111328" xlink:href="#DejaVuSans-72"/>
      <use x="911.474609" xlink:href="#DejaVuSans-64"/>
     </g>
    </g>
   </g>
   <g id="line2d_19">
    <path clip-path="url(#p622df9dc4a)" d="M 57.6 203.333528 
L 57.68928 241.502548 
L 57.95712 203.333528 
L 58.0464 241.502548 
L 58.31424 203.333528 
L 58.40352 241.502548 
L 58.67136 203.333528 
L 58.76064 241.502548 
L 59.02848 203.333528 
L 59.11776 241.502548 
L 59.3856 203.333528 
L 59.47488 241.502548 
L 59.74272 203.333528 
L 59.832 241.502548 
L 60.09984 203.333528 
L 60.18912 241.502548 
L 60.45696 203.333528 
L 60.54624 241.502548 
L 60.81408 203.333528 
L 60.90336 241.502548 
L 61.1712 203.333528 
L 61.26048 241.502548 
L 61.52832 203.333528 
L 61.6176 241.502548 
L 61.88544 203.333528 
L 61.97472 241.502548 
L 62.24256 203.333528 
L 62.33184 241.502548 
L 62.59968 203.333528 
L 62.68896 241.502548 
L 62.9568 203.333528 
L 63.04608 241.502548 
L 63.31392 203.333528 
L 63.4032 241.502548 
L 63.67104 203.333528 
L 63.76032 241.502548 
L 64.02816 203.333528 
L 64.11744 241.502548 
L 64.38528 203.333528 
L 64.47456 241.502548 
L 64.7424 203.333528 
L 64.83168 241.502548 
L 65.09952 203.333528 
L 65.1888 241.502548 
L 65.45664 203.333528 
L 65.54592 241.502548 
L 65.81376 203.333528 
L 65.90304 241.502548 
L 66.17088 203.333528 
L 66.26016 241.502548 
L 66.528 181.68227 
L 66.61728 221.940638 
L 66.79584 179.924832 
L 66.9744 207.55905 
L 67.06368 190.020569 
L 67.15296 232.748622 
L 67.24224 209.833036 
L 67.33152 219.658642 
L 67.4208 199.885803 
L 67.51008 262.960617 
L 67.59936 250.466309 
L 67.68864 208.843042 
L 67.8672 267.373958 
L 67.95648 214.52929 
L 68.04576 232.827164 
L 68.22432 187.846078 
L 68.40288 269.77891 
L 68.67072 176.836525 
L 68.76 210.384379 
L 68.84928 184.222369 
L 68.93856 234.707157 
L 69.2064 175.951484 
L 69.38496 271.411459 
L 69.47424 202.991169 
L 69.56352 257.797722 
L 69.74208 195.707537 
L 69.83136 220.784969 
L 69.92064 203.728245 
L 70.00992 246.255748 
L 70.0992 232.482179 
L 70.27776 186.705379 
L 70.36704 184.800808 
L 70.45632 200.079324 
L 70.5456 186.872515 
L 70.72416 285.408 
L 70.81344 199.883703 
L 70.90272 199.996505 
L 70.992 280.238059 
L 71.25984 172.250451 
L 71.4384 243.42224 
L 71.61696 162.217882 
L 71.79552 250.33254 
L 71.8848 242.269524 
L 71.97408 188.082347 
L 72.06336 199.418324 
L 72.24192 240.337034 
L 72.42048 202.017707 
L 72.50976 205.034726 
L 72.59904 270.625411 
L 72.7776 172.764967 
L 72.86688 200.486248 
L 72.95616 258.840537 
L 73.13472 202.896567 
L 73.224 205.755535 
L 73.31328 257.634851 
L 73.40256 208.830609 
L 73.49184 221.795332 
L 73.6704 176.309241 
L 73.75968 190.900382 
L 73.84896 232.821239 
L 74.1168 198.972287 
L 74.38464 220.960166 
L 74.47392 262.19294 
L 74.65248 200.78086 
L 74.74176 231.434655 
L 74.83104 193.524118 
L 74.92032 222.998026 
L 75.0096 204.305002 
L 75.09888 259.72489 
L 75.18816 192.694704 
L 75.27744 219.794002 
L 75.36672 202.795047 
L 75.456 249.218822 
L 75.63456 167.675694 
L 75.81312 281.435374 
L 75.99168 154.647606 
L 76.25952 217.462737 
L 76.3488 227.484924 
L 76.43808 155.941032 
L 76.52736 169.520046 
L 76.7952 247.825807 
L 76.97376 172.865544 
L 77.06304 180.453167 
L 77.15232 210.480711 
L 77.2416 174.053083 
L 77.33088 222.760937 
L 77.42016 216.612555 
L 77.50944 162.547763 
L 77.688 195.894403 
L 77.77728 173.631544 
L 77.86656 186.186427 
L 77.95584 181.425528 
L 78.04512 262.525534 
L 78.22368 195.800326 
L 78.40224 240.833618 
L 78.49152 179.699818 
L 78.67008 211.902691 
L 78.75936 202.739613 
L 78.84864 204.529706 
L 79.0272 230.470295 
L 79.11648 181.935957 
L 79.20576 243.076081 
L 79.38432 205.804893 
L 79.4736 225.317156 
L 79.56288 172.515623 
L 79.65216 214.117756 
L 79.74144 187.612611 
L 79.83072 188.560863 
L 80.00928 213.43771 
L 80.18784 196.426008 
L 80.27712 202.258119 
L 80.3664 218.250851 
L 80.45568 197.287688 
L 80.63424 222.858508 
L 80.8128 181.329693 
L 80.99136 213.362331 
L 81.08064 195.926129 
L 81.16992 221.784721 
L 81.2592 197.035061 
L 81.34848 222.357895 
L 81.43776 175.609992 
L 81.52704 204.856771 
L 81.61632 162.761461 
L 81.7056 215.340444 
L 81.88416 194.359416 
L 81.97344 217.244864 
L 82.06272 212.42691 
L 82.152 208.269836 
L 82.24128 221.826275 
L 82.41984 162.652248 
L 82.50912 209.764677 
L 82.5984 195.003184 
L 82.68768 200.227927 
L 82.77696 196.186314 
L 82.86624 218.005555 
L 83.0448 162.928486 
L 83.13408 163.851971 
L 83.22336 196.256554 
L 83.31264 149.671239 
L 83.4912 230.761983 
L 83.66976 163.021055 
L 83.75904 251.494205 
L 83.84832 161.086667 
L 83.9376 183.645147 
L 84.02688 181.599046 
L 84.11616 191.902612 
L 84.20544 160.691644 
L 84.29472 232.55196 
L 84.47328 172.069594 
L 84.56256 183.147896 
L 84.65184 250.160476 
L 84.74112 173.509699 
L 84.8304 181.725813 
L 84.91968 278.400586 
L 85.09824 171.710264 
L 85.18752 235.974094 
L 85.2768 171.962882 
L 85.36608 188.539832 
L 85.45536 174.452788 
L 85.63392 206.365591 
L 85.81248 164.507667 
L 85.90176 195.036563 
L 86.08032 146.91748 
L 86.1696 195.038384 
L 86.25888 181.25783 
L 86.34816 202.862144 
L 86.43744 175.98233 
L 86.52672 217.662895 
L 86.616 135.004898 
L 86.79456 215.342013 
L 86.88384 176.093873 
L 87.15168 214.424869 
L 87.24096 245.831751 
L 87.33024 154.267586 
L 87.41952 203.073917 
L 87.5088 166.012561 
L 87.59808 192.418196 
L 87.77664 161.174756 
L 87.9552 194.419792 
L 88.13376 157.349041 
L 88.22304 210.13571 
L 88.31232 151.196378 
L 88.4016 163.894023 
L 88.58016 217.658166 
L 88.66944 147.139708 
L 88.75872 157.556198 
L 88.848 155.363954 
L 88.93728 186.181476 
L 89.02656 182.553996 
L 89.11584 168.768872 
L 89.20512 211.425347 
L 89.2944 142.908729 
L 89.38368 189.97336 
L 89.56224 150.726876 
L 89.7408 203.212164 
L 89.91936 163.507056 
L 90.00864 181.893949 
L 90.09792 181.16831 
L 90.1872 167.601324 
L 90.27648 209.272689 
L 90.36576 156.785851 
L 90.45504 166.002032 
L 90.54432 189.693738 
L 90.6336 183.709602 
L 90.72288 145.477122 
L 90.81216 231.401094 
L 90.99072 200.913078 
L 91.08 191.158225 
L 91.25856 215.85536 
L 91.43712 146.052785 
L 91.5264 174.821712 
L 91.61568 168.095624 
L 91.70496 182.375255 
L 91.79424 166.733565 
L 91.88352 166.939049 
L 92.15136 207.554101 
L 92.24064 155.013606 
L 92.32992 222.237064 
L 92.4192 217.155419 
L 92.50848 222.191256 
L 92.68704 155.974267 
L 92.77632 194.46539 
L 92.8656 167.983737 
L 92.95488 175.279682 
L 93.04416 200.878223 
L 93.312 168.37012 
L 93.57984 146.531709 
L 93.66912 183.425579 
L 93.7584 146.771908 
L 93.84768 192.138056 
L 93.93696 170.628926 
L 94.02624 186.270665 
L 94.11552 148.467358 
L 94.2048 192.585557 
L 94.29408 174.107732 
L 94.38336 213.632994 
L 94.47264 166.407491 
L 94.56192 215.076205 
L 94.74048 157.886765 
L 94.82976 209.8753 
L 94.91904 165.13867 
L 95.0976 197.818304 
L 95.18688 168.382963 
L 95.27616 239.649385 
L 95.36544 149.411084 
L 95.45472 164.238691 
L 95.544 134.654301 
L 95.81184 198.484179 
L 95.90112 167.694976 
L 95.9904 182.97617 
L 96.07968 222.434386 
L 96.34752 148.176386 
L 96.4368 209.625198 
L 96.52608 120.971428 
L 96.61536 167.85123 
L 96.70464 166.485581 
L 96.79392 164.787961 
L 96.8832 185.111728 
L 96.97248 146.1968 
L 97.15104 198.717781 
L 97.24032 210.909112 
L 97.3296 154.087225 
L 97.41888 206.504677 
L 97.50816 142.494176 
L 97.59744 150.035981 
L 97.68672 170.170315 
L 97.776 153.213912 
L 97.95456 169.981287 
L 98.04384 171.468149 
L 98.13312 159.410429 
L 98.2224 169.178414 
L 98.31168 209.404574 
L 98.49024 143.65038 
L 98.57952 146.557791 
L 98.6688 164.422118 
L 98.75808 145.30794 
L 98.93664 192.479847 
L 99.02592 139.042092 
L 99.29376 181.621187 
L 99.38304 185.481314 
L 99.47232 184.812197 
L 99.65088 151.607039 
L 99.74016 189.78253 
L 99.82944 174.673346 
L 99.91872 178.471439 
L 100.008 140.303223 
L 100.09728 218.919143 
L 100.18656 208.836014 
L 100.36512 140.983302 
L 100.4544 153.299821 
L 100.54368 202.513254 
L 100.63296 144.51414 
L 100.72224 194.204221 
L 100.81152 131.454125 
L 100.9008 195.484809 
L 100.99008 181.978525 
L 101.07936 175.014627 
L 101.16864 135.169705 
L 101.25792 203.010565 
L 101.3472 178.04506 
L 101.43648 179.553983 
L 101.52576 195.170929 
L 101.70432 150.160871 
L 101.88288 181.134667 
L 101.97216 145.890849 
L 102.06144 156.812611 
L 102.15072 137.137443 
L 102.32928 188.843451 
L 102.41856 152.961853 
L 102.50784 219.18044 
L 102.6864 171.871279 
L 102.77568 184.623487 
L 102.86496 178.523317 
L 102.95424 145.208707 
L 103.1328 176.274497 
L 103.22208 147.512578 
L 103.40064 183.573785 
L 103.48992 182.770362 
L 103.66848 139.006212 
L 103.75776 139.394678 
L 103.84704 193.093828 
L 103.93632 174.093979 
L 104.11488 192.372112 
L 104.20416 187.391326 
L 104.38272 135.157727 
L 104.472 183.971175 
L 104.73984 134.758976 
L 104.82912 165.27562 
L 104.9184 154.210123 
L 105.00768 168.837483 
L 105.09696 164.618298 
L 105.18624 134.481897 
L 105.3648 180.594409 
L 105.45408 170.738757 
L 105.54336 135.826589 
L 105.72192 206.700771 
L 105.8112 208.093793 
L 105.98976 131.786309 
L 106.07904 164.095068 
L 106.16832 126.028543 
L 106.2576 145.993926 
L 106.34688 145.076813 
L 106.52544 157.976686 
L 106.79328 131.957591 
L 106.97184 157.459911 
L 107.06112 144.180721 
L 107.1504 179.342129 
L 107.23968 157.735492 
L 107.32896 158.751378 
L 107.41824 143.227695 
L 107.50752 143.996392 
L 107.5968 181.355835 
L 107.68608 140.286304 
L 107.86464 187.144304 
L 108.0432 139.340393 
L 108.13248 195.455934 
L 108.31104 147.548653 
L 108.40032 141.846431 
L 108.4896 151.12969 
L 108.66816 116.494604 
L 108.75744 174.582727 
L 108.84672 153.253738 
L 108.936 174.25361 
L 109.20384 116.19529 
L 109.29312 180.128572 
L 109.3824 138.121906 
L 109.56096 215.700372 
L 109.65024 128.711813 
L 109.8288 153.291944 
L 109.91808 132.163681 
L 110.00736 177.411857 
L 110.09664 177.139478 
L 110.18592 125.702577 
L 110.2752 133.104397 
L 110.36448 157.827602 
L 110.45376 146.108555 
L 110.54304 149.850242 
L 110.63232 164.825114 
L 110.7216 121.335676 
L 110.81088 126.080778 
L 111.07872 156.278686 
L 111.168 143.726193 
L 111.25728 182.453953 
L 111.34656 173.422176 
L 111.43584 122.277444 
L 111.52512 144.162021 
L 111.6144 139.105681 
L 111.79296 109.665214 
L 111.88224 180.548559 
L 111.97152 121.119063 
L 112.15008 173.102047 
L 112.32864 111.50581 
L 112.41792 152.968278 
L 112.5072 128.5398 
L 112.59648 162.641006 
L 112.68576 126.746585 
L 112.86432 152.184333 
L 112.9536 165.184602 
L 113.13216 138.439065 
L 113.22144 144.134573 
L 113.31072 173.535529 
L 113.4 141.127102 
L 113.57856 183.429081 
L 113.66784 143.817392 
L 113.75712 165.706031 
L 113.93568 135.464789 
L 114.02496 125.157708 
L 114.11424 154.769299 
L 114.20352 142.840938 
L 114.2928 145.88141 
L 114.38208 138.372883 
L 114.47136 149.880253 
L 114.64992 109.421268 
L 114.7392 119.093988 
L 114.82848 145.504155 
L 114.91776 119.419804 
L 115.09632 134.068869 
L 115.27488 114.928274 
L 115.36416 150.245673 
L 115.45344 143.032691 
L 115.54272 111.351075 
L 115.72128 137.916343 
L 115.81056 136.035543 
L 115.89984 146.897486 
L 115.98912 143.377456 
L 116.25696 102.525833 
L 116.43552 138.529613 
L 116.5248 110.897071 
L 116.70336 169.433739 
L 116.9712 118.034536 
L 117.14976 132.532598 
L 117.23904 132.044287 
L 117.32832 122.174953 
L 117.4176 127.512935 
L 117.50688 139.544001 
L 117.68544 125.001225 
L 117.77472 148.012236 
L 117.864 118.246011 
L 118.04256 138.239088 
L 118.13184 129.787399 
L 118.3104 172.125422 
L 118.39968 176.311832 
L 118.57824 138.479914 
L 118.66752 143.213633 
L 118.7568 123.341339 
L 118.84608 155.066415 
L 118.93536 151.175397 
L 119.11392 120.197455 
L 119.2032 135.589413 
L 119.29248 130.649702 
L 119.38176 176.772803 
L 119.47104 112.239023 
L 119.56032 154.128691 
L 119.6496 114.565194 
L 119.73888 128.534922 
L 119.91744 111.386044 
L 120.096 157.597525 
L 120.18528 124.449229 
L 120.27456 171.250904 
L 120.36384 112.002352 
L 120.45312 119.392423 
L 120.5424 146.272685 
L 120.72096 112.552643 
L 120.89952 125.49897 
L 121.07808 147.340215 
L 121.25664 122.713497 
L 121.34592 129.676589 
L 121.4352 120.262344 
L 121.52448 131.433117 
L 121.61376 121.725265 
L 121.70304 136.692645 
L 121.79232 114.634428 
L 121.8816 124.514873 
L 121.97088 148.848487 
L 122.06016 133.380703 
L 122.14944 141.143051 
L 122.23872 136.2892 
L 122.328 138.18452 
L 122.41728 176.524653 
L 122.59584 125.998109 
L 122.68512 119.144475 
L 122.7744 133.686683 
L 122.95296 122.58623 
L 123.04224 138.117567 
L 123.13152 99.656176 
L 123.31008 138.470053 
L 123.39936 137.45726 
L 123.48864 102.161389 
L 123.57792 132.649084 
L 123.6672 124.172946 
L 123.93504 166.918462 
L 124.1136 123.720481 
L 124.20288 124.596824 
L 124.29216 119.241476 
L 124.38144 134.507625 
L 124.64928 118.020941 
L 124.73856 151.171923 
L 125.0064 104.008351 
L 125.09568 122.156042 
L 125.18496 112.792172 
L 125.27424 118.427744 
L 125.36352 108.339914 
L 125.4528 118.64244 
L 125.54208 161.017398 
L 125.8992 123.701074 
L 125.98848 143.068927 
L 126.07776 99.366953 
L 126.25632 132.893608 
L 126.3456 118.459622 
L 126.43488 128.005442 
L 126.70272 110.097545 
L 126.97056 152.041429 
L 127.05984 117.392591 
L 127.2384 145.673252 
L 127.32768 106.285908 
L 127.41696 121.016269 
L 127.50624 168.84752 
L 127.6848 130.76129 
L 127.77408 116.47411 
L 127.86336 131.804608 
L 127.95264 121.182651 
L 128.04192 140.098522 
L 128.1312 110.538358 
L 128.22048 130.989719 
L 128.39904 106.959503 
L 128.48832 129.294076 
L 128.5776 117.68843 
L 128.66688 119.9186 
L 128.84544 141.890767 
L 129.11328 116.188208 
L 129.20256 131.153048 
L 129.29184 100.847659 
L 129.38112 112.858417 
L 129.4704 152.611874 
L 129.55968 125.024884 
L 129.64896 155.630108 
L 129.73824 136.651182 
L 129.82752 172.928422 
L 129.9168 96.551818 
L 130.00608 130.221714 
L 130.18464 120.346178 
L 130.27392 133.497801 
L 130.3632 128.347746 
L 130.54176 96.156772 
L 130.72032 117.545404 
L 130.89888 108.652249 
L 130.98816 120.479953 
L 131.07744 106.813235 
L 131.16672 117.517706 
L 131.256 101.309644 
L 131.34528 104.851359 
L 131.43456 146.984799 
L 131.52384 137.029545 
L 131.79168 104.620165 
L 131.88096 104.841769 
L 131.97024 99.056052 
L 132.1488 130.361928 
L 132.23808 128.912356 
L 132.32736 117.865822 
L 132.41664 140.36416 
L 132.50592 118.605669 
L 132.5952 130.29977 
L 132.68448 96.394965 
L 132.86304 111.702904 
L 132.95232 102.778318 
L 133.13088 129.152709 
L 133.22016 87.805933 
L 133.488 148.3946 
L 133.75584 101.053954 
L 133.84512 161.631015 
L 133.9344 150.792246 
L 134.20224 105.010278 
L 134.29152 111.665663 
L 134.47008 159.65977 
L 134.64864 118.205485 
L 134.73792 113.439941 
L 134.8272 95.148618 
L 134.91648 142.407673 
L 135.09504 112.990341 
L 135.18432 152.289035 
L 135.2736 105.555587 
L 135.45216 133.471847 
L 135.63072 97.07174 
L 135.80928 165.710676 
L 135.98784 98.8964 
L 136.1664 135.72625 
L 136.34496 102.61049 
L 136.43424 118.028144 
L 136.52352 107.482996 
L 136.6128 119.464288 
L 136.79136 100.99776 
L 136.88064 133.191894 
L 136.96992 103.308283 
L 137.0592 107.193053 
L 137.23776 140.00555 
L 137.32704 122.611466 
L 137.41632 151.449438 
L 137.59488 105.128458 
L 137.77344 120.617391 
L 137.86272 118.938894 
L 137.952 111.751117 
L 138.04128 128.256921 
L 138.13056 109.963756 
L 138.21984 118.733648 
L 138.48768 107.139819 
L 138.57696 91.40817 
L 138.66624 120.063712 
L 138.75552 102.116302 
L 138.8448 118.284511 
L 138.93408 106.256435 
L 139.02336 109.50179 
L 139.11264 91.180734 
L 139.20192 156.474337 
L 139.2912 116.098971 
L 139.38048 119.813257 
L 139.46976 92.332469 
L 139.55904 131.325695 
L 139.64832 116.437709 
L 139.7376 119.343119 
L 139.82688 111.522281 
L 139.91616 118.745476 
L 140.00544 111.345941 
L 140.09472 144.383872 
L 140.27328 94.006297 
L 140.54112 139.063289 
L 140.6304 113.691687 
L 140.71968 122.943191 
L 140.80896 96.994273 
L 140.98752 116.181283 
L 141.0768 107.148207 
L 141.16608 141.041245 
L 141.34464 121.599132 
L 141.43392 133.004903 
L 141.5232 101.17778 
L 141.70176 127.460776 
L 141.79104 127.218014 
L 141.9696 94.880034 
L 142.05888 119.180207 
L 142.14816 108.173256 
L 142.23744 152.80864 
L 142.32672 108.704158 
L 142.416 133.190637 
L 142.50528 104.98313 
L 142.59456 140.945315 
L 142.68384 103.580643 
L 142.8624 141.216663 
L 142.95168 133.896134 
L 143.04096 92.371804 
L 143.13024 125.37881 
L 143.21952 120.08495 
L 143.39808 102.519047 
L 143.48736 115.625107 
L 143.57664 111.897586 
L 143.66592 123.298525 
L 143.7552 115.844891 
L 143.84448 118.176388 
L 143.93376 112.647593 
L 144.02304 123.257948 
L 144.11232 121.912328 
L 144.2016 101.106665 
L 144.38016 145.151387 
L 144.46944 99.50369 
L 144.55872 128.816311 
L 144.648 121.869669 
L 144.73728 106.19388 
L 144.82656 108.341098 
L 144.91584 97.857238 
L 145.0944 114.206472 
L 145.18368 131.692753 
L 145.27296 121.714628 
L 145.36224 136.453876 
L 145.45152 99.683141 
L 145.5408 114.134076 
L 145.63008 113.525887 
L 145.71936 124.857159 
L 145.89792 108.536212 
L 145.9872 118.400679 
L 146.07648 101.603065 
L 146.16576 117.077593 
L 146.25504 112.873629 
L 146.34432 137.222563 
L 146.4336 123.94037 
L 146.61216 164.059361 
L 146.70144 119.05225 
L 146.79072 155.455251 
L 146.88 109.12293 
L 146.96928 121.568773 
L 147.05856 109.148845 
L 147.14784 147.288925 
L 147.23712 113.184128 
L 147.3264 114.581712 
L 147.41568 129.570216 
L 147.50496 115.168284 
L 147.68352 152.125191 
L 147.86208 108.198783 
L 147.95136 118.995238 
L 148.04064 99.465154 
L 148.12992 126.025248 
L 148.2192 122.835239 
L 148.30848 111.465466 
L 148.39776 115.471914 
L 148.48704 104.533392 
L 148.57632 107.607557 
L 148.6656 98.701832 
L 148.75488 131.694486 
L 148.93344 104.178067 
L 149.02272 107.220317 
L 149.20128 103.447881 
L 149.5584 118.017492 
L 149.73696 135.096182 
L 149.91552 99.560427 
L 150.0048 102.255627 
L 150.09408 118.256543 
L 150.27264 99.482815 
L 150.4512 108.559683 
L 150.54048 109.850534 
L 150.62976 100.708212 
L 150.71904 106.078897 
L 150.80832 94.173897 
L 151.344 131.473342 
L 151.43328 114.761791 
L 151.52256 125.947898 
L 151.61184 118.08995 
L 151.70112 118.80469 
L 151.7904 119.659431 
L 151.87968 109.604094 
L 151.96896 127.721109 
L 152.05824 95.071414 
L 152.14752 127.246374 
L 152.32608 87.254517 
L 152.50464 141.074303 
L 152.59392 83.227579 
L 152.6832 145.00785 
L 152.77248 131.320483 
L 152.86176 96.152598 
L 152.95104 133.358092 
L 153.21888 87.629279 
L 153.39744 153.688312 
L 153.48672 99.776032 
L 153.576 135.931859 
L 154.0224 87.541398 
L 154.20096 127.292473 
L 154.29024 99.50856 
L 154.37952 105.111946 
L 154.55808 89.570741 
L 154.73664 104.899442 
L 154.82592 122.660275 
L 154.9152 102.057972 
L 155.00448 107.680405 
L 155.09376 139.407537 
L 155.18304 110.33944 
L 155.27232 117.632508 
L 155.3616 82.815372 
L 155.71872 111.26635 
L 155.808 113.605308 
L 155.89728 96.160002 
L 155.98656 145.040367 
L 156.07584 105.65759 
L 156.16512 111.110905 
L 156.2544 114.254296 
L 156.34368 90.840742 
L 156.43296 91.111359 
L 156.61152 124.330066 
L 156.7008 100.120515 
L 156.79008 117.153177 
L 156.87936 80.975719 
L 156.96864 102.220236 
L 157.05792 79.250182 
L 157.23648 121.943684 
L 157.41504 89.467785 
L 157.5936 121.912238 
L 157.68288 92.656357 
L 157.86144 113.56634 
L 157.95072 91.612348 
L 158.21856 114.635897 
L 158.30784 178.263219 
L 158.4864 93.098047 
L 158.57568 122.392082 
L 158.75424 100.409105 
L 158.84352 120.531289 
L 158.9328 95.290397 
L 159.02208 125.340641 
L 159.20064 101.239158 
L 159.28992 131.537666 
L 159.46848 84.812912 
L 159.55776 105.210298 
L 159.73632 84.999357 
L 159.8256 115.408033 
L 159.91488 93.183355 
L 160.00416 132.536113 
L 160.18272 99.475596 
L 160.272 95.687148 
L 160.36128 102.559289 
L 160.45056 119.326325 
L 160.62912 88.60316 
L 160.80768 101.610265 
L 160.89696 115.667181 
L 160.98624 93.163502 
L 161.07552 97.664962 
L 161.1648 129.539898 
L 161.25408 122.722274 
L 161.34336 122.781455 
L 161.52192 100.509534 
L 161.6112 96.239493 
L 161.70048 75.066209 
L 161.78976 129.261187 
L 161.87904 117.413172 
L 162.0576 108.801914 
L 162.14688 110.937411 
L 162.23616 94.55661 
L 162.59328 149.988083 
L 162.68256 94.9517 
L 162.77184 115.854729 
L 162.9504 88.77667 
L 163.12896 113.303518 
L 163.21824 116.613188 
L 163.3968 89.413425 
L 163.48608 121.98901 
L 163.57536 117.064168 
L 163.66464 103.069454 
L 163.75392 108.636438 
L 163.8432 94.159559 
L 163.93248 113.572939 
L 164.02176 102.913028 
L 164.11104 111.057658 
L 164.20032 85.654316 
L 164.2896 89.669473 
L 164.46816 116.167504 
L 164.55744 99.150792 
L 164.64672 152.671829 
L 164.91456 95.126548 
L 165.09312 114.755708 
L 165.27168 91.08982 
L 165.45024 116.935114 
L 165.53952 90.429809 
L 165.6288 98.833739 
L 165.71808 94.49222 
L 165.98592 122.413532 
L 166.0752 102.09028 
L 166.16448 112.7423 
L 166.25376 101.141167 
L 166.34304 127.212103 
L 166.43232 102.627299 
L 166.5216 111.561782 
L 166.61088 142.160533 
L 166.78944 102.116804 
L 166.87872 97.942933 
L 166.968 116.643202 
L 167.14656 85.833447 
L 167.32512 124.802866 
L 167.4144 97.858232 
L 167.50368 109.181808 
L 167.59296 105.313626 
L 167.68224 90.462123 
L 167.77152 109.767268 
L 167.95008 95.116236 
L 168.03936 105.294598 
L 168.12864 102.550981 
L 168.3072 122.211861 
L 168.39648 98.859867 
L 168.48576 109.155365 
L 168.57504 99.040276 
L 168.66432 100.899652 
L 168.7536 102.555066 
L 168.84288 107.741252 
L 168.93216 99.569128 
L 169.11072 121.034448 
L 169.28928 102.837924 
L 169.37856 103.367591 
L 169.46784 101.141862 
L 169.55712 155.369254 
L 169.6464 92.340616 
L 169.73568 95.942211 
L 169.82496 99.192978 
L 169.91424 97.198114 
L 170.00352 102.788645 
L 170.0928 92.577988 
L 170.18208 96.694916 
L 170.27136 138.713085 
L 170.44992 115.869372 
L 170.5392 127.405659 
L 170.62848 91.537212 
L 170.71776 115.538291 
L 170.80704 94.301949 
L 170.89632 98.370333 
L 170.9856 98.201219 
L 171.07488 107.26977 
L 171.25344 98.504923 
L 171.34272 131.009413 
L 171.432 122.556053 
L 171.52128 103.491943 
L 171.61056 152.659614 
L 171.69984 88.068921 
L 171.78912 108.682857 
L 171.8784 91.265268 
L 171.96768 91.468927 
L 172.05696 102.401695 
L 172.14624 88.838207 
L 172.23552 109.411927 
L 172.3248 90.919135 
L 172.41408 123.63952 
L 172.50336 91.504311 
L 172.59264 138.195394 
L 172.7712 82.911161 
L 172.86048 117.742047 
L 172.94976 90.434124 
L 173.03904 93.939682 
L 173.12832 91.534655 
L 173.2176 109.329422 
L 173.30688 99.397821 
L 173.39616 148.00633 
L 173.48544 91.445159 
L 173.57472 97.470774 
L 173.664 99.786647 
L 173.75328 97.303288 
L 173.84256 108.053936 
L 173.93184 97.429813 
L 174.1104 108.900471 
L 174.19968 99.944764 
L 174.28896 107.617901 
L 174.37824 102.21031 
L 174.46752 107.044828 
L 174.5568 106.729757 
L 174.64608 92.695467 
L 174.82464 117.550938 
L 175.0032 91.181325 
L 175.09248 114.190267 
L 175.18176 88.323278 
L 175.27104 112.095476 
L 175.36032 106.107447 
L 175.4496 110.404982 
L 175.53888 92.445581 
L 175.62816 129.698767 
L 175.98528 89.88435 
L 176.07456 90.074886 
L 176.16384 105.636023 
L 176.25312 104.879001 
L 176.3424 96.992871 
L 176.43168 117.305409 
L 176.61024 108.652288 
L 176.69952 106.969369 
L 176.87808 150.153796 
L 176.96736 89.427931 
L 177.14592 131.211745 
L 177.2352 104.904911 
L 177.32448 108.994717 
L 177.41376 95.161997 
L 177.50304 98.405541 
L 177.59232 101.764197 
L 177.6816 111.214188 
L 177.86016 81.938964 
L 177.94944 105.275915 
L 178.03872 96.622199 
L 178.128 97.850511 
L 178.21728 107.296747 
L 178.39584 79.099143 
L 178.5744 90.216314 
L 178.66368 87.230751 
L 178.75296 92.026293 
L 178.93152 120.670437 
L 179.0208 98.743292 
L 179.11008 109.0203 
L 179.19936 89.723863 
L 179.28864 140.764829 
L 179.37792 106.882759 
L 179.4672 113.200088 
L 179.64576 90.029679 
L 179.73504 91.588056 
L 179.82432 107.729354 
L 180.00288 87.248563 
L 180.18144 110.388037 
L 180.27072 96.513174 
L 180.36 99.30728 
L 180.44928 88.769837 
L 180.62784 133.749962 
L 180.8064 78.740354 
L 180.98496 115.957442 
L 181.07424 103.61341 
L 181.16352 113.040411 
L 181.2528 89.515031 
L 181.34208 104.136965 
L 181.43136 80.000229 
L 181.52064 111.461414 
L 181.60992 104.251375 
L 181.6992 90.019526 
L 181.78848 93.740685 
L 181.87776 79.204402 
L 181.96704 108.885696 
L 182.1456 71.634012 
L 182.32416 108.305945 
L 182.41344 91.85292 
L 182.50272 137.774533 
L 182.592 83.923471 
L 182.68128 113.92832 
L 182.77056 86.066317 
L 182.94912 105.84327 
L 183.0384 96.563725 
L 183.12768 111.534866 
L 183.21696 95.054969 
L 183.30624 113.427615 
L 183.39552 95.521312 
L 183.4848 101.123573 
L 183.57408 86.18344 
L 183.75264 107.36749 
L 183.84192 107.12246 
L 184.02048 93.096346 
L 184.10976 90.201789 
L 184.19904 118.111075 
L 184.46688 90.515438 
L 184.55616 114.501576 
L 184.64544 112.824651 
L 184.91328 91.790499 
L 185.09184 104.869798 
L 185.18112 89.890896 
L 185.2704 103.99618 
L 185.35968 90.738046 
L 185.44896 106.583492 
L 185.53824 93.304475 
L 185.62752 109.785832 
L 185.7168 100.675412 
L 185.80608 126.674659 
L 185.89536 100.755223 
L 185.98464 127.398582 
L 186.07392 104.835353 
L 186.1632 110.456463 
L 186.34176 88.687795 
L 186.52032 124.292046 
L 186.6096 107.294295 
L 186.69888 128.638767 
L 186.78816 127.850598 
L 186.96672 82.460355 
L 187.14528 126.688376 
L 187.32384 89.393641 
L 187.5024 105.199426 
L 187.59168 109.578118 
L 187.68096 88.958591 
L 187.77024 105.695741 
L 187.9488 82.344035 
L 188.03808 98.176401 
L 188.21664 86.670576 
L 188.3952 111.995741 
L 188.48448 102.575982 
L 188.57376 81.062593 
L 188.75232 96.092446 
L 188.8416 96.79656 
L 188.93088 110.744403 
L 189.02016 84.543221 
L 189.10944 111.397057 
L 189.19872 93.340814 
L 189.288 138.365068 
L 189.37728 99.126628 
L 189.46656 99.477137 
L 189.55584 107.945249 
L 189.7344 85.229326 
L 190.00224 136.917683 
L 190.1808 86.242092 
L 190.35936 138.501739 
L 190.53792 108.412538 
L 190.6272 118.698022 
L 190.80576 97.779315 
L 190.89504 102.911061 
L 190.98432 81.320161 
L 191.0736 118.178158 
L 191.16288 95.813687 
L 191.25216 125.286645 
L 191.43072 88.203797 
L 191.52 91.745589 
L 191.60928 106.296989 
L 191.69856 88.803681 
L 191.78784 94.121494 
L 191.87712 78.720051 
L 191.9664 80.200461 
L 192.14496 128.143177 
L 192.4128 89.214922 
L 192.50208 138.548477 
L 192.59136 99.513868 
L 192.68064 137.847423 
L 192.94848 94.245691 
L 193.03776 111.177965 
L 193.21632 87.204953 
L 193.3056 111.12585 
L 193.48416 95.114403 
L 193.57344 93.538876 
L 193.66272 88.215236 
L 193.752 96.890023 
L 193.84128 121.293893 
L 193.93056 100.117579 
L 194.01984 107.396253 
L 194.10912 84.803246 
L 194.28768 94.087491 
L 194.37696 117.168208 
L 194.46624 93.490083 
L 194.55552 139.692564 
L 194.6448 95.638949 
L 194.73408 106.007578 
L 194.82336 101.238047 
L 194.91264 111.234923 
L 195.00192 86.806717 
L 195.0912 120.20231 
L 195.18048 85.799251 
L 195.26976 103.795807 
L 195.35904 103.693683 
L 195.44832 106.890071 
L 195.5376 115.438263 
L 195.80544 96.389005 
L 195.89472 117.491275 
L 195.984 98.358848 
L 196.07328 119.106114 
L 196.16256 88.116033 
L 196.25184 130.786849 
L 196.34112 103.119063 
L 196.4304 118.473587 
L 196.51968 82.606108 
L 196.69824 111.931643 
L 196.78752 104.479583 
L 196.8768 85.163089 
L 197.14464 106.667889 
L 197.23392 93.420463 
L 197.3232 127.376691 
L 197.41248 91.547764 
L 197.50176 92.305494 
L 197.59104 118.222236 
L 197.68032 104.106026 
L 197.7696 131.590842 
L 197.85888 100.613636 
L 197.94816 122.630713 
L 198.12672 94.000802 
L 198.216 105.779461 
L 198.30528 90.939663 
L 198.39456 115.786778 
L 198.48384 107.734087 
L 198.57312 110.365017 
L 198.6624 81.476075 
L 198.75168 89.429277 
L 198.84096 125.57094 
L 198.93024 96.415169 
L 199.01952 105.312861 
L 199.1088 144.944993 
L 199.28736 112.948802 
L 199.37664 101.035751 
L 199.46592 102.110382 
L 199.5552 119.700203 
L 199.64448 111.222342 
L 199.73376 90.071659 
L 200.0016 112.80807 
L 200.18016 91.69935 
L 200.26944 125.519888 
L 200.35872 100.224334 
L 200.62656 117.906775 
L 200.71584 80.991081 
L 200.8944 96.31097 
L 200.98368 98.808509 
L 201.07296 94.58291 
L 201.25152 119.064485 
L 201.3408 108.063525 
L 201.43008 131.207595 
L 201.51936 81.758489 
L 201.60864 100.0234 
L 201.69792 93.208409 
L 201.87648 142.215087 
L 201.96576 106.479074 
L 202.05504 117.24113 
L 202.14432 84.901354 
L 202.2336 106.276684 
L 202.32288 101.651016 
L 202.41216 104.311027 
L 202.59072 83.297355 
L 202.68 96.378581 
L 202.76928 128.228131 
L 202.85856 87.634563 
L 202.94784 115.790062 
L 203.03712 91.290223 
L 203.21568 108.914929 
L 203.30496 93.866642 
L 203.39424 94.067736 
L 203.48352 107.730621 
L 203.5728 97.149685 
L 203.66208 130.74887 
L 203.75136 115.8212 
L 203.84064 120.65818 
L 204.0192 78.556691 
L 204.19776 128.499839 
L 204.28704 85.765591 
L 204.37632 117.446763 
L 204.4656 103.340886 
L 204.55488 113.930934 
L 204.64416 91.160381 
L 204.73344 111.722886 
L 204.82272 110.958699 
L 204.912 73.96498 
L 205.00128 107.476271 
L 205.09056 85.246906 
L 205.17984 96.464162 
L 205.26912 91.441479 
L 205.3584 100.618459 
L 205.44768 99.13186 
L 205.53696 91.651788 
L 205.71552 120.376962 
L 205.8048 104.31547 
L 205.89408 126.680726 
L 205.98336 89.42187 
L 206.07264 95.494381 
L 206.16192 91.026736 
L 206.2512 126.233548 
L 206.34048 90.133952 
L 206.42976 124.22934 
L 206.60832 97.94043 
L 206.6976 98.371745 
L 206.78688 102.818045 
L 206.87616 124.471105 
L 206.96544 100.698784 
L 207.05472 137.463957 
L 207.23328 84.853566 
L 207.32256 95.997065 
L 207.41184 84.839478 
L 207.50112 114.925944 
L 207.67968 86.603221 
L 207.76896 90.444446 
L 207.85824 112.342739 
L 207.94752 96.451982 
L 208.0368 105.765176 
L 208.12608 103.937803 
L 208.21536 100.455206 
L 208.30464 120.855946 
L 208.4832 87.246688 
L 208.66176 101.58498 
L 208.75104 87.65157 
L 208.9296 102.244955 
L 209.01888 98.447122 
L 209.10816 104.285918 
L 209.19744 88.668737 
L 209.28672 103.509159 
L 209.46528 87.487223 
L 209.55456 107.682277 
L 209.64384 86.687038 
L 209.73312 111.573516 
L 209.8224 100.782969 
L 209.91168 108.226305 
L 210.09024 85.976129 
L 210.17952 116.654687 
L 210.35808 84.631579 
L 210.44736 104.930925 
L 210.53664 82.569567 
L 210.62592 89.466377 
L 210.7152 116.622106 
L 210.80448 112.414208 
L 210.89376 91.917939 
L 210.98304 95.387914 
L 211.07232 128.050429 
L 211.34016 83.169436 
L 211.51872 107.827584 
L 211.608 106.687455 
L 211.69728 106.760592 
L 211.78656 93.306854 
L 211.96512 132.163057 
L 212.0544 140.092291 
L 212.23296 103.2891 
L 212.32224 97.990967 
L 212.41152 166.853708 
L 212.59008 94.824667 
L 212.67936 81.125481 
L 212.76864 90.662017 
L 212.85792 122.620079 
L 212.9472 85.162743 
L 213.03648 88.298946 
L 213.3936 110.141087 
L 213.48288 95.46402 
L 213.57216 103.474757 
L 213.66144 96.170646 
L 213.75072 101.594864 
L 213.92928 83.680847 
L 214.01856 108.942252 
L 214.10784 106.621609 
L 214.19712 82.48859 
L 214.2864 132.225782 
L 214.46496 87.376198 
L 214.55424 84.588478 
L 214.7328 119.626227 
L 214.91136 85.133102 
L 215.08992 102.59452 
L 215.26848 84.520949 
L 215.35776 95.521726 
L 215.44704 81.623832 
L 215.6256 117.778282 
L 215.80416 85.626917 
L 215.98272 101.826697 
L 216.072 105.812763 
L 216.25056 88.191543 
L 216.42912 113.775735 
L 216.60768 83.623833 
L 216.69696 92.650936 
L 216.78624 110.502019 
L 216.87552 83.578406 
L 216.9648 86.979541 
L 217.23264 130.98426 
L 217.32192 90.04001 
L 217.4112 91.894888 
L 217.50048 117.054123 
L 217.67904 83.514967 
L 217.8576 110.194029 
L 217.94688 109.83585 
L 218.12544 81.161012 
L 218.21472 92.653685 
L 218.304 88.054175 
L 218.39328 102.693088 
L 218.48256 96.00104 
L 218.57184 108.760647 
L 218.66112 78.312876 
L 218.7504 108.243815 
L 218.92896 84.643512 
L 219.1968 101.021734 
L 219.46464 84.668475 
L 219.55392 103.162697 
L 219.6432 90.833359 
L 219.82176 98.066989 
L 219.91104 95.180133 
L 220.0896 80.075498 
L 220.26816 99.394999 
L 220.35744 121.318273 
L 220.44672 85.549881 
L 220.71456 120.781513 
L 220.80384 94.511958 
L 220.89312 96.707923 
L 220.9824 107.313332 
L 221.16096 87.135762 
L 221.25024 101.06143 
L 221.4288 86.227551 
L 221.51808 113.868479 
L 221.60736 82.241566 
L 221.8752 119.320178 
L 221.96448 116.372492 
L 222.05376 101.904642 
L 222.14304 129.909029 
L 222.23232 96.122685 
L 222.3216 126.564377 
L 222.41088 118.277037 
L 222.58944 97.320288 
L 222.768 118.067121 
L 222.85728 110.78924 
L 222.94656 88.992872 
L 223.2144 106.837455 
L 223.39296 88.682963 
L 223.48224 101.20451 
L 223.57152 88.261987 
L 223.6608 130.81249 
L 223.75008 97.877344 
L 223.83936 98.728693 
L 223.92864 96.845998 
L 224.01792 81.700064 
L 224.1072 114.968618 
L 224.19648 95.062191 
L 224.28576 95.235247 
L 224.37504 91.563147 
L 224.46432 152.353306 
L 224.5536 93.008707 
L 224.64288 100.696244 
L 224.73216 91.313676 
L 224.82144 94.689742 
L 225 83.512074 
L 225.08928 108.181513 
L 225.17856 92.774705 
L 225.26784 130.636703 
L 225.4464 90.577139 
L 225.53568 103.770629 
L 225.62496 92.327744 
L 225.71424 110.557517 
L 225.80352 92.250058 
L 225.8928 96.275406 
L 225.98208 98.347714 
L 226.07136 108.155518 
L 226.24992 86.400095 
L 226.3392 94.035657 
L 226.42848 79.479241 
L 226.60704 138.546668 
L 226.7856 81.298008 
L 227.05344 118.792077 
L 227.32128 86.345558 
L 227.41056 102.048964 
L 227.49984 98.635786 
L 227.58912 99.557008 
L 227.6784 103.664908 
L 227.85696 135.868871 
L 228.1248 83.148405 
L 228.30336 116.973758 
L 228.39264 110.453089 
L 228.48192 134.524924 
L 228.66048 78.690005 
L 228.74976 99.147833 
L 228.83904 94.267793 
L 228.92832 108.366202 
L 229.0176 90.868411 
L 229.10688 109.341549 
L 229.28544 90.984298 
L 229.37472 105.796023 
L 229.464 83.393333 
L 229.55328 84.816076 
L 229.82112 109.104718 
L 229.9104 93.353532 
L 229.99968 104.579728 
L 230.08896 98.240327 
L 230.17824 120.596827 
L 230.26752 119.219478 
L 230.3568 116.106675 
L 230.44608 85.502835 
L 230.53536 87.633731 
L 230.62464 98.204123 
L 230.71392 86.722615 
L 230.89248 116.602492 
L 230.98176 82.524677 
L 231.07104 89.128993 
L 231.16032 89.95564 
L 231.33888 79.304557 
L 231.60672 108.437989 
L 231.696 115.942125 
L 231.78528 91.918608 
L 231.87456 106.557035 
L 231.96384 78.629507 
L 232.23168 116.331867 
L 232.41024 91.419351 
L 232.49952 104.755791 
L 232.5888 82.489464 
L 232.67808 105.72045 
L 232.76736 87.473595 
L 232.85664 95.292811 
L 232.94592 86.632361 
L 233.0352 89.223017 
L 233.12448 141.291207 
L 233.21376 133.279988 
L 233.30304 137.85002 
L 233.39232 89.353794 
L 233.4816 106.453354 
L 233.57088 92.446208 
L 233.66016 95.493334 
L 233.83872 124.991651 
L 234.01728 114.970385 
L 234.10656 89.743302 
L 234.19584 106.717848 
L 234.3744 72.5054 
L 234.64224 89.922274 
L 234.73152 122.664772 
L 234.91008 90.269593 
L 234.99936 89.176158 
L 235.08864 94.207348 
L 235.17792 89.782347 
L 235.2672 76.838401 
L 235.44576 101.687383 
L 235.53504 96.949874 
L 235.62432 78.754199 
L 235.80288 92.095605 
L 235.89216 77.328808 
L 235.98144 101.369845 
L 236.16 80.417651 
L 236.24928 128.725709 
L 236.33856 89.374957 
L 236.51712 111.180003 
L 236.69568 80.811579 
L 236.78496 96.439012 
L 236.87424 80.210312 
L 236.96352 89.517086 
L 237.0528 73.355462 
L 237.23136 102.577773 
L 237.40992 83.210397 
L 237.4992 88.471571 
L 237.67776 82.807206 
L 237.76704 97.469678 
L 237.9456 86.627128 
L 238.03488 103.715741 
L 238.12416 100.054602 
L 238.21344 76.91443 
L 238.30272 80.709229 
L 238.392 85.174897 
L 238.48128 80.526756 
L 238.57056 125.870383 
L 238.65984 91.037343 
L 238.74912 111.739009 
L 238.8384 91.423183 
L 238.92768 91.562083 
L 239.01696 91.046035 
L 239.10624 84.778175 
L 239.19552 107.828454 
L 239.2848 80.828529 
L 239.37408 87.513283 
L 239.46336 79.038936 
L 239.55264 108.05475 
L 239.64192 86.746753 
L 239.7312 93.523795 
L 239.90976 89.051571 
L 239.99904 77.340348 
L 240.08832 93.286247 
L 240.1776 136.608269 
L 240.35616 82.080688 
L 240.44544 83.177472 
L 240.53472 77.211233 
L 240.624 99.241711 
L 240.80256 76.457835 
L 240.89184 122.377171 
L 241.0704 80.350688 
L 241.24896 95.119623 
L 241.33824 127.552834 
L 241.5168 88.858525 
L 241.60608 87.83885 
L 241.69536 89.01595 
L 241.78464 84.435477 
L 241.87392 108.084984 
L 242.05248 85.306922 
L 242.14176 93.50529 
L 242.23104 115.854505 
L 242.32032 90.437531 
L 242.4096 133.223527 
L 242.49888 85.498321 
L 242.58816 87.54038 
L 242.67744 107.653534 
L 242.76672 77.766388 
L 242.856 138.463624 
L 242.94528 93.564788 
L 243.03456 102.672621 
L 243.12384 81.730449 
L 243.21312 107.839767 
L 243.3024 105.363133 
L 243.39168 124.072431 
L 243.48096 83.887173 
L 243.57024 85.846975 
L 243.65952 102.262317 
L 243.83808 80.75499 
L 243.92736 83.432398 
L 244.01664 91.230294 
L 244.10592 90.063103 
L 244.28448 93.552525 
L 244.46304 86.889335 
L 244.55232 109.019394 
L 244.73088 73.048689 
L 244.82016 77.381681 
L 244.99872 96.807337 
L 245.088 81.63567 
L 245.17728 83.506936 
L 245.26656 76.992617 
L 245.35584 117.068387 
L 245.44512 93.322657 
L 245.5344 114.092149 
L 245.62368 78.130458 
L 245.71296 120.774903 
L 245.80224 91.464265 
L 245.89152 93.471881 
L 245.9808 96.081732 
L 246.07008 87.581495 
L 246.15936 117.530756 
L 246.24864 117.195726 
L 246.33792 91.332613 
L 246.4272 98.831676 
L 246.69504 78.778128 
L 246.78432 81.258214 
L 246.8736 97.086486 
L 247.05216 80.987547 
L 247.23072 95.350822 
L 247.32 92.075138 
L 247.40928 96.497333 
L 247.49856 107.076876 
L 247.58784 78.731667 
L 247.67712 80.447619 
L 247.7664 83.79696 
L 247.94496 101.520879 
L 248.12352 84.928401 
L 248.2128 91.056196 
L 248.39136 81.112345 
L 248.48064 135.541666 
L 248.56992 78.692211 
L 248.6592 127.721741 
L 248.74848 82.235597 
L 248.83776 84.574823 
L 248.92704 84.160987 
L 249.01632 94.435511 
L 249.1056 81.027464 
L 249.19488 98.696696 
L 249.28416 88.751567 
L 249.46272 99.865061 
L 249.64128 83.197582 
L 249.73056 104.797504 
L 249.81984 76.808503 
L 249.90912 78.317029 
L 249.9984 75.422799 
L 250.08768 92.709287 
L 250.17696 79.345807 
L 250.4448 111.496285 
L 250.53408 81.732422 
L 250.71264 90.675238 
L 250.80192 89.360515 
L 250.8912 75.946682 
L 250.98048 91.515572 
L 251.06976 85.522818 
L 251.24832 97.961464 
L 251.42688 77.871947 
L 251.51616 96.016898 
L 251.69472 83.578687 
L 251.784 136.642337 
L 251.96256 78.291496 
L 252.14112 119.160973 
L 252.31968 84.182686 
L 252.40896 98.265957 
L 252.49824 81.422586 
L 252.58752 84.139653 
L 252.6768 96.830493 
L 252.85536 86.686415 
L 253.03392 83.664113 
L 253.1232 122.168068 
L 253.21248 98.229971 
L 253.30176 140.525208 
L 253.39104 89.532622 
L 253.48032 97.804455 
L 253.5696 98.938418 
L 253.65888 84.964217 
L 253.83744 93.474723 
L 253.92672 119.823965 
L 254.10528 80.53644 
L 254.19456 105.99432 
L 254.37312 87.477093 
L 254.4624 82.478827 
L 254.64096 113.721681 
L 254.73024 78.555922 
L 254.81952 100.764769 
L 254.99808 82.710349 
L 255.08736 76.917399 
L 255.17664 128.365476 
L 255.26592 100.782051 
L 255.3552 170.617989 
L 255.53376 82.152763 
L 255.62304 87.73325 
L 255.71232 78.177313 
L 255.8016 81.803523 
L 255.89088 77.557393 
L 255.98016 98.889394 
L 256.06944 92.986621 
L 256.15872 67.404216 
L 256.33728 95.278905 
L 256.51584 81.297901 
L 256.78368 97.830107 
L 257.05152 77.520379 
L 257.23008 85.216483 
L 257.31936 77.775504 
L 257.40864 94.217897 
L 257.49792 80.783923 
L 257.67648 90.196477 
L 257.76576 80.674125 
L 257.94432 92.710241 
L 258.0336 69.839585 
L 258.21216 103.537664 
L 258.30144 107.185505 
L 258.39072 77.563726 
L 258.48 93.244048 
L 258.65856 74.974778 
L 258.74784 97.624886 
L 258.83712 81.324603 
L 258.9264 88.727446 
L 259.01568 129.359319 
L 259.10496 82.85634 
L 259.19424 85.631396 
L 259.28352 85.370846 
L 259.3728 76.494409 
L 259.55136 87.970536 
L 259.64064 90.318995 
L 259.72992 85.657828 
L 259.8192 111.432442 
L 259.90848 85.42355 
L 259.99776 87.132897 
L 260.08704 89.202432 
L 260.17632 105.022644 
L 260.35488 87.07209 
L 260.44416 95.809218 
L 260.53344 187.103515 
L 260.62272 80.919639 
L 260.712 106.993115 
L 260.80128 80.013875 
L 260.89056 113.921233 
L 261.06912 81.698201 
L 261.1584 79.580857 
L 261.24768 84.836553 
L 261.33696 83.331041 
L 261.42624 83.689956 
L 261.51552 122.375166 
L 261.6048 82.15392 
L 261.69408 85.852724 
L 261.78336 78.467745 
L 261.96192 99.239065 
L 262.0512 71.328286 
L 262.14048 83.950698 
L 262.22976 124.459917 
L 262.4976 81.448198 
L 262.67616 105.962471 
L 262.76544 79.67047 
L 262.85472 83.827296 
L 262.944 86.912886 
L 263.12256 102.277699 
L 263.21184 85.005003 
L 263.3904 91.960844 
L 263.47968 79.697364 
L 263.56896 98.229677 
L 263.74752 86.830432 
L 263.8368 89.288989 
L 263.92608 85.165199 
L 264.01536 90.540643 
L 264.10464 78.980341 
L 264.19392 86.828804 
L 264.2832 125.610597 
L 264.37248 84.395199 
L 264.46176 85.519201 
L 264.55104 78.23 
L 264.64032 81.021419 
L 264.7296 79.501666 
L 264.90816 88.902286 
L 264.99744 77.479345 
L 265.08672 80.218477 
L 265.176 80.544695 
L 265.26528 80.227561 
L 265.35456 86.723498 
L 265.44384 82.405866 
L 265.53312 89.234767 
L 265.6224 84.411438 
L 265.71168 93.419066 
L 265.80096 79.703591 
L 265.89024 96.674226 
L 265.97952 89.333513 
L 266.0688 69.228577 
L 266.24736 83.687521 
L 266.33664 124.274742 
L 266.42592 78.146212 
L 266.5152 78.200772 
L 266.60448 86.591516 
L 266.69376 78.514257 
L 266.78304 85.900165 
L 266.87232 79.85168 
L 267.05088 89.349098 
L 267.14016 74.569502 
L 267.22944 86.165152 
L 267.31872 84.497435 
L 267.408 94.004997 
L 267.49728 73.623969 
L 267.58656 77.065685 
L 267.67584 104.395832 
L 267.8544 83.53175 
L 267.94368 111.633005 
L 268.12224 82.067443 
L 268.21152 150.476081 
L 268.39008 84.664258 
L 268.47936 90.443111 
L 268.65792 73.493426 
L 268.7472 82.917902 
L 268.83648 77.303637 
L 268.92576 84.141618 
L 269.10432 71.548089 
L 269.1936 90.771626 
L 269.28288 75.774598 
L 269.37216 123.769119 
L 269.55072 85.19423 
L 269.64 109.628381 
L 269.81856 89.600704 
L 269.90784 100.344339 
L 269.99712 96.427964 
L 270.17568 78.961189 
L 270.26496 78.403523 
L 270.35424 87.455404 
L 270.44352 69.497688 
L 270.5328 80.56498 
L 270.62208 75.233144 
L 270.80064 83.852573 
L 270.88992 84.92121 
L 270.9792 82.71909 
L 271.06848 74.781197 
L 271.15776 94.988663 
L 271.33632 85.58584 
L 271.4256 82.092916 
L 271.51488 82.726189 
L 271.60416 90.830708 
L 271.69344 78.288532 
L 271.78272 78.482989 
L 271.96128 91.942008 
L 272.05056 80.76623 
L 272.22912 98.496786 
L 272.40768 75.267644 
L 272.58624 72.251945 
L 272.67552 89.310433 
L 272.7648 85.154734 
L 272.94336 95.427697 
L 273.03264 74.495074 
L 273.2112 99.993731 
L 273.30048 92.62066 
L 273.38976 119.368239 
L 273.47904 70.353593 
L 273.56832 78.951334 
L 273.6576 90.795298 
L 273.74688 87.189228 
L 273.83616 88.76542 
L 273.92544 103.611688 
L 274.01472 79.819395 
L 274.19328 108.020215 
L 274.37184 81.560897 
L 274.46112 73.810612 
L 274.5504 101.741012 
L 274.63968 79.880514 
L 274.81824 98.310566 
L 274.9968 76.378493 
L 275.08608 94.119954 
L 275.17536 85.965157 
L 275.26464 166.467504 
L 275.4432 92.156355 
L 275.53248 90.420825 
L 275.62176 95.283838 
L 275.71104 82.712702 
L 275.80032 100.795032 
L 275.8896 77.449744 
L 275.97888 93.331534 
L 276.06816 75.392361 
L 276.15744 80.0217 
L 276.24672 76.735326 
L 276.336 86.008885 
L 276.42528 81.765008 
L 276.69312 129.082223 
L 276.87168 85.468447 
L 276.96096 87.625242 
L 277.05024 87.613981 
L 277.13952 87.554728 
L 277.2288 68.868195 
L 277.31808 86.483095 
L 277.40736 78.402249 
L 277.49664 78.854278 
L 277.58592 73.063856 
L 277.85376 93.363848 
L 277.94304 81.211334 
L 278.1216 104.36899 
L 278.30016 74.035596 
L 278.47872 91.957322 
L 278.568 131.536812 
L 278.74656 95.521172 
L 278.83584 124.493596 
L 278.92512 75.277896 
L 279.0144 83.626514 
L 279.10368 94.154212 
L 279.19296 76.660887 
L 279.28224 104.703287 
L 279.37152 79.3193 
L 279.4608 87.431245 
L 279.63936 79.68337 
L 279.72864 78.882598 
L 279.99648 104.492727 
L 280.08576 76.964853 
L 280.17504 90.082323 
L 280.3536 75.342488 
L 280.44288 123.817061 
L 280.53216 81.899341 
L 280.62144 87.075316 
L 280.8 128.800269 
L 280.88928 109.533225 
L 280.97856 117.606173 
L 281.06784 84.438226 
L 281.15712 99.647134 
L 281.2464 79.256272 
L 281.33568 101.847732 
L 281.60352 73.885704 
L 281.6928 86.41032 
L 281.78208 125.054406 
L 281.96064 80.020434 
L 282.1392 98.700797 
L 282.31776 80.353293 
L 282.40704 104.247297 
L 282.5856 72.019329 
L 282.76416 98.594679 
L 282.85344 91.050458 
L 282.94272 73.225822 
L 283.032 77.457526 
L 283.12128 83.159539 
L 283.21056 80.655982 
L 283.4784 101.474034 
L 283.65696 69.949247 
L 283.74624 94.641435 
L 283.83552 83.018287 
L 283.9248 84.456919 
L 284.01408 83.281217 
L 284.10336 78.460637 
L 284.19264 84.007122 
L 284.28192 78.893498 
L 284.3712 83.308238 
L 284.46048 101.668673 
L 284.54976 80.337013 
L 284.63904 85.942289 
L 284.90688 73.494607 
L 284.99616 159.558215 
L 285.17472 74.947265 
L 285.35328 98.908962 
L 285.62112 76.448264 
L 285.79968 86.460823 
L 285.88896 76.939112 
L 285.97824 94.082245 
L 286.06752 90.674566 
L 286.1568 95.589391 
L 286.24608 85.073982 
L 286.33536 88.33233 
L 286.42464 123.330342 
L 286.51392 83.58073 
L 286.6032 92.499666 
L 286.78176 75.175144 
L 286.87104 77.769688 
L 286.96032 92.696312 
L 287.13888 81.338267 
L 287.22816 116.398143 
L 287.40672 88.807607 
L 287.496 81.786637 
L 287.58528 102.906213 
L 287.76384 87.857235 
L 287.85312 82.216183 
L 287.9424 115.118259 
L 288.21024 70.863401 
L 288.29952 103.490351 
L 288.3888 93.260823 
L 288.47808 129.667174 
L 288.56736 72.570389 
L 288.65664 84.14813 
L 288.74592 88.191781 
L 288.8352 101.515861 
L 289.01376 83.894021 
L 289.10304 75.475873 
L 289.19232 96.882251 
L 289.2816 80.921748 
L 289.37088 128.726321 
L 289.54944 78.08744 
L 289.63872 171.115223 
L 289.728 78.523705 
L 289.81728 85.624174 
L 289.99584 70.649869 
L 290.08512 74.139506 
L 290.1744 82.144138 
L 290.26368 118.719899 
L 290.35296 83.547592 
L 290.44224 88.976215 
L 290.6208 73.988223 
L 290.71008 81.525936 
L 290.88864 77.654711 
L 290.97792 80.142172 
L 291.15648 96.566626 
L 291.33504 79.349873 
L 291.42432 74.402814 
L 291.60288 104.533431 
L 291.69216 82.163407 
L 291.78144 88.444575 
L 291.96 79.778191 
L 292.13856 90.580918 
L 292.22784 70.515567 
L 292.4064 114.028013 
L 292.58496 74.21611 
L 292.67424 87.377448 
L 292.76352 83.934463 
L 292.8528 73.359264 
L 292.94208 89.263749 
L 293.03136 80.235126 
L 293.12064 94.60208 
L 293.20992 85.752438 
L 293.38848 97.589635 
L 293.47776 81.787085 
L 293.56704 84.260906 
L 293.65632 86.575451 
L 293.7456 78.02137 
L 294.01344 89.791613 
L 294.10272 97.963208 
L 294.192 83.569164 
L 294.28128 86.576824 
L 294.37056 79.017477 
L 294.45984 86.498185 
L 294.81696 77.445379 
L 294.90624 89.680023 
L 294.99552 89.62435 
L 295.0848 77.342918 
L 295.17408 77.34551 
L 295.26336 110.858678 
L 295.35264 101.003639 
L 295.44192 142.032672 
L 295.5312 85.206755 
L 295.62048 88.648014 
L 295.70976 76.814994 
L 295.79904 85.099216 
L 296.06688 80.416644 
L 296.24544 111.086414 
L 296.33472 73.929772 
L 296.424 111.153922 
L 296.60256 80.829108 
L 296.8704 93.49469 
L 296.95968 85.84684 
L 297.04896 68.23265 
L 297.13824 91.341235 
L 297.22752 86.741297 
L 297.3168 94.330219 
L 297.58464 73.696315 
L 297.7632 84.953963 
L 297.85248 77.649389 
L 298.03104 83.761229 
L 298.2096 101.012104 
L 298.38816 75.016131 
L 298.47744 92.844845 
L 298.656 77.034744 
L 298.74528 81.862504 
L 298.83456 102.551618 
L 299.01312 84.113268 
L 299.1024 83.809351 
L 299.19168 82.208695 
L 299.28096 86.158921 
L 299.45952 129.944977 
L 299.5488 75.979369 
L 299.63808 93.754408 
L 299.72736 76.393446 
L 299.81664 79.966337 
L 299.90592 109.789485 
L 299.9952 75.884714 
L 300.08448 124.715528 
L 300.17376 77.67195 
L 300.26304 85.584394 
L 300.4416 87.564302 
L 300.53088 84.37802 
L 300.62016 86.894382 
L 300.70944 83.029703 
L 300.79872 90.963538 
L 300.888 74.949329 
L 301.06656 83.726429 
L 301.15584 76.770577 
L 301.3344 83.603825 
L 301.42368 70.139213 
L 301.51296 78.466573 
L 301.60224 108.249105 
L 301.69152 105.945309 
L 301.7808 78.937573 
L 301.87008 91.872582 
L 301.95936 75.630666 
L 302.13792 88.39239 
L 302.2272 124.815698 
L 302.40576 90.491618 
L 302.58432 96.407544 
L 302.76288 84.37919 
L 302.94144 76.901082 
L 303.12 82.753708 
L 303.20928 83.584778 
L 303.29856 80.872666 
L 303.38784 92.464895 
L 303.47712 65.501298 
L 303.74496 124.959735 
L 303.92352 77.098495 
L 304.0128 73.209681 
L 304.19136 84.474965 
L 304.28064 69.568292 
L 304.4592 79.413645 
L 304.54848 95.047282 
L 304.72704 82.901004 
L 304.81632 76.39542 
L 304.9056 77.266723 
L 305.26272 94.449832 
L 305.352 90.162937 
L 305.53056 96.283393 
L 305.61984 150.581301 
L 305.7984 68.678355 
L 305.88768 83.838756 
L 305.97696 69.158482 
L 306.06624 83.095729 
L 306.15552 82.133094 
L 306.2448 88.17978 
L 306.33408 79.67906 
L 306.51264 94.048748 
L 306.60192 73.646105 
L 306.6912 125.22668 
L 306.86976 81.326689 
L 307.04832 86.983538 
L 307.1376 103.984156 
L 307.22688 100.859566 
L 307.40544 73.912709 
L 307.49472 75.800706 
L 307.584 96.777257 
L 307.67328 89.556029 
L 307.76256 93.892532 
L 307.85184 91.312536 
L 307.94112 70.267014 
L 308.0304 93.271769 
L 308.11968 88.176865 
L 308.20896 68.539163 
L 308.29824 98.549607 
L 308.38752 89.327265 
L 308.4768 97.643847 
L 308.56608 88.312771 
L 308.65536 90.850538 
L 308.74464 77.748596 
L 308.9232 103.107552 
L 309.10176 73.46414 
L 309.19104 93.228741 
L 309.28032 79.485287 
L 309.54816 104.744556 
L 309.63744 77.809257 
L 309.72672 90.09209 
L 309.816 87.314889 
L 309.90528 89.698594 
L 310.08384 80.631324 
L 310.17312 88.419861 
L 310.2624 74.173677 
L 310.35168 89.253223 
L 310.44096 87.765471 
L 310.53024 86.589159 
L 310.61952 77.919164 
L 310.7088 103.420717 
L 310.88736 78.262965 
L 311.24448 92.030815 
L 311.33376 79.243216 
L 311.42304 122.288924 
L 311.51232 79.220661 
L 311.6016 98.321435 
L 311.69088 82.625789 
L 311.78016 88.076415 
L 311.86944 78.586508 
L 311.95872 81.372137 
L 312.048 76.759261 
L 312.13728 79.996526 
L 312.22656 129.247542 
L 312.40512 78.070734 
L 312.4944 96.892939 
L 312.67296 79.174507 
L 312.76224 83.829442 
L 312.85152 86.955124 
L 312.9408 73.116182 
L 313.03008 77.606759 
L 313.11936 76.052361 
L 313.3872 90.37102 
L 313.56576 88.287182 
L 313.65504 94.446748 
L 313.74432 78.478969 
L 313.8336 86.232758 
L 313.92288 78.99962 
L 314.01216 93.841451 
L 314.10144 83.290064 
L 314.19072 121.343458 
L 314.28 80.682391 
L 314.36928 82.148353 
L 314.45856 87.107765 
L 314.7264 74.998491 
L 314.90496 89.550741 
L 314.99424 124.009737 
L 315.1728 89.720582 
L 315.35136 79.268534 
L 315.44064 136.691204 
L 315.52992 77.168979 
L 315.6192 77.466828 
L 315.70848 84.829845 
L 315.88704 78.673146 
L 316.0656 85.976177 
L 316.15488 112.834924 
L 316.24416 98.546295 
L 316.33344 98.961615 
L 316.42272 111.778205 
L 316.60128 78.934282 
L 316.69056 105.82768 
L 316.77984 73.097243 
L 317.04768 95.655039 
L 317.13696 78.733757 
L 317.22624 85.586946 
L 317.31552 75.903592 
L 317.4048 77.061332 
L 317.49408 84.199887 
L 317.58336 83.247989 
L 317.67264 85.998833 
L 317.76192 75.903756 
L 317.94048 112.898247 
L 318.11904 79.775708 
L 318.20832 90.558817 
L 318.2976 83.315507 
L 318.38688 84.831375 
L 318.47616 86.28414 
L 318.56544 104.978316 
L 318.65472 79.809384 
L 318.744 84.411884 
L 318.83328 73.393851 
L 319.10112 98.294333 
L 319.1904 90.458935 
L 319.27968 96.808525 
L 319.36896 73.452885 
L 319.45824 82.308565 
L 319.54752 79.152903 
L 319.81536 92.918563 
L 319.90464 72.448653 
L 320.0832 89.723055 
L 320.17248 143.460948 
L 320.35104 77.847299 
L 320.44032 91.927056 
L 320.70816 71.877666 
L 320.79744 93.429153 
L 320.88672 87.346645 
L 320.976 92.903851 
L 321.06528 105.832187 
L 321.24384 75.025701 
L 321.33312 114.61707 
L 321.51168 84.291065 
L 321.60096 85.231998 
L 321.69024 80.748967 
L 321.77952 87.862748 
L 321.8688 86.824908 
L 321.95808 90.488779 
L 322.13664 82.295986 
L 322.22592 92.065839 
L 322.3152 73.418847 
L 322.49376 90.769763 
L 322.58304 105.675093 
L 322.67232 81.886537 
L 322.7616 89.251944 
L 322.85088 78.066026 
L 322.94016 86.83861 
L 323.02944 72.854657 
L 323.11872 75.394034 
L 323.29728 76.306097 
L 323.38656 73.620932 
L 323.47584 82.444891 
L 323.56512 74.413328 
L 323.74368 82.038906 
L 323.83296 74.3528 
L 323.92224 87.898468 
L 324.01152 78.972891 
L 324.1008 88.884662 
L 324.19008 126.188812 
L 324.27936 94.745413 
L 324.36864 110.311211 
L 324.5472 81.562983 
L 324.63648 82.726652 
L 324.72576 80.89937 
L 324.81504 82.542148 
L 324.9936 91.000014 
L 325.08288 84.461232 
L 325.17216 86.672491 
L 325.26144 66.937048 
L 325.35072 112.263719 
L 325.52928 88.223158 
L 325.61856 73.938972 
L 325.79712 91.045128 
L 325.8864 82.255721 
L 325.97568 101.779689 
L 326.06496 80.164264 
L 326.15424 84.966455 
L 326.24352 87.112407 
L 326.3328 83.273834 
L 326.42208 88.045874 
L 326.51136 80.721748 
L 326.60064 87.040244 
L 326.7792 75.566952 
L 326.86848 84.380005 
L 326.95776 82.720374 
L 327.04704 72.353026 
L 327.31488 91.406076 
L 327.49344 93.634165 
L 327.58272 75.442685 
L 327.672 104.677044 
L 327.76128 86.608388 
L 327.85056 149.676746 
L 327.93984 90.43342 
L 328.02912 93.099014 
L 328.1184 97.54955 
L 328.29696 89.413813 
L 328.38624 102.555866 
L 328.47552 75.02061 
L 328.5648 91.647894 
L 328.65408 80.406999 
L 328.83264 92.689067 
L 329.10048 73.049345 
L 329.18976 85.529142 
L 329.27904 81.981696 
L 329.36832 70.523459 
L 329.4576 80.782828 
L 329.54688 105.706791 
L 329.63616 75.866008 
L 329.72544 79.313523 
L 329.81472 84.336818 
L 329.99328 73.718594 
L 330.08256 96.988876 
L 330.17184 73.179989 
L 330.26112 89.746237 
L 330.3504 76.441755 
L 330.43968 80.448561 
L 330.52896 78.537438 
L 330.61824 88.443326 
L 330.70752 86.215549 
L 330.7968 85.353411 
L 330.88608 78.511375 
L 331.15392 102.188538 
L 331.33248 77.711149 
L 331.42176 80.905262 
L 331.60032 105.179451 
L 331.6896 77.59045 
L 331.86816 111.536803 
L 332.04672 67.19294 
L 332.136 73.27269 
L 332.22528 97.868753 
L 332.31456 83.081459 
L 332.40384 86.385833 
L 332.49312 74.18164 
L 332.67168 86.635101 
L 332.76096 96.349595 
L 332.93952 81.154073 
L 333.0288 81.705697 
L 333.11808 94.715437 
L 333.20736 92.675311 
L 333.29664 74.77431 
L 333.4752 86.91908 
L 333.56448 78.239275 
L 333.65376 117.511355 
L 333.83232 80.914719 
L 334.01088 90.834427 
L 334.18944 82.618081 
L 334.27872 85.941068 
L 334.368 85.394392 
L 334.54656 87.291005 
L 334.63584 73.99124 
L 334.72512 92.569847 
L 334.90368 83.672269 
L 334.99296 82.049167 
L 335.08224 82.795911 
L 335.17152 77.07323 
L 335.2608 86.710557 
L 335.35008 76.777844 
L 335.52864 85.871725 
L 335.61792 79.172557 
L 335.7072 105.255806 
L 335.79648 82.417596 
L 335.88576 105.93025 
L 335.97504 78.538268 
L 336.06432 157.53867 
L 336.24288 86.396316 
L 336.33216 85.450036 
L 336.51072 76.873605 
L 336.6 85.795303 
L 336.68928 79.615116 
L 336.77856 95.306226 
L 336.86784 81.179741 
L 336.95712 95.957623 
L 337.0464 71.481634 
L 337.13568 77.059773 
L 337.31424 89.045757 
L 337.40352 76.663387 
L 337.58208 93.203609 
L 337.76064 83.468805 
L 338.02848 74.024795 
L 338.11776 83.149541 
L 338.20704 76.651095 
L 338.29632 89.757606 
L 338.3856 70.05602 
L 338.47488 73.197193 
L 338.56416 81.353355 
L 338.65344 77.852618 
L 338.832 103.016025 
L 339.01056 73.812659 
L 339.18912 89.017702 
L 339.2784 67.131276 
L 339.36768 83.998671 
L 339.54624 77.535014 
L 339.63552 88.016231 
L 339.7248 77.517706 
L 339.90336 87.818666 
L 339.99264 84.384352 
L 340.08192 85.028055 
L 340.1712 88.270707 
L 340.26048 71.089556 
L 340.34976 87.581225 
L 340.43904 77.566219 
L 340.52832 79.112719 
L 340.6176 74.597899 
L 340.70688 86.255449 
L 340.88544 75.557323 
L 340.97472 84.185263 
L 341.064 79.409379 
L 341.15328 111.257897 
L 341.33184 78.251496 
L 341.42112 82.527324 
L 341.5104 95.822965 
L 341.59968 70.008297 
L 341.68896 73.891525 
L 341.77824 81.771774 
L 341.86752 74.81065 
L 341.9568 77.807101 
L 342.04608 86.714955 
L 342.13536 73.807535 
L 342.22464 86.420503 
L 342.31392 78.377767 
L 342.4032 84.177562 
L 342.49248 72.326526 
L 342.67104 83.798485 
L 342.76032 83.032144 
L 342.8496 81.438579 
L 342.93888 67.195434 
L 343.02816 72.795949 
L 343.11744 89.294675 
L 343.38528 76.847934 
L 343.47456 83.282274 
L 343.56384 69.34314 
L 343.7424 76.613651 
L 343.83168 78.043682 
L 344.01024 87.197967 
L 344.09952 80.521558 
L 344.1888 83.959858 
L 344.27808 83.003941 
L 344.36736 88.770474 
L 344.6352 72.371172 
L 344.81376 104.3393 
L 344.90304 77.092776 
L 344.99232 90.441203 
L 345.0816 69.927608 
L 345.17088 120.486943 
L 345.26016 80.190186 
L 345.34944 90.155863 
L 345.43872 72.962094 
L 345.528 75.206419 
L 345.61728 88.934153 
L 345.79584 78.315943 
L 345.9744 83.335826 
L 346.06368 66.539655 
L 346.33152 85.562678 
L 346.4208 72.763253 
L 346.51008 95.345578 
L 346.59936 82.857243 
L 346.68864 92.646008 
L 346.8672 87.213236 
L 346.95648 87.115687 
L 347.04576 86.494245 
L 347.13504 94.710881 
L 347.22432 78.347778 
L 347.3136 79.748731 
L 347.40288 69.947524 
L 347.49216 71.364324 
L 347.67072 71.073668 
L 347.76 72.051518 
L 348.02784 106.554781 
L 348.2064 70.137909 
L 348.29568 71.364592 
L 348.38496 84.245297 
L 348.47424 81.575699 
L 348.6528 99.39442 
L 348.83136 81.905978 
L 349.00992 92.496965 
L 349.27776 74.291682 
L 349.36704 76.065407 
L 349.45632 91.412232 
L 349.63488 65.486671 
L 349.72416 88.561743 
L 349.81344 76.468206 
L 349.90272 97.092743 
L 349.992 77.181056 
L 350.08128 81.495872 
L 350.17056 82.60739 
L 350.25984 75.849315 
L 350.34912 137.334931 
L 350.52768 72.509041 
L 350.61696 95.684131 
L 350.70624 78.810725 
L 350.79552 85.250042 
L 350.8848 82.383866 
L 350.97408 128.45571 
L 351.24192 76.50214 
L 351.3312 71.823028 
L 351.68832 93.375114 
L 351.7776 80.870228 
L 351.86688 92.900577 
L 351.95616 85.171528 
L 352.04544 90.597487 
L 352.13472 70.121668 
L 352.224 71.289752 
L 352.31328 88.868064 
L 352.40256 72.912949 
L 352.49184 84.943706 
L 352.58112 70.964607 
L 352.6704 81.29521 
L 352.84896 70.739535 
L 352.93824 83.858549 
L 353.02752 66.992544 
L 353.20608 91.055939 
L 353.38464 74.107136 
L 353.47392 74.201696 
L 353.5632 77.261264 
L 353.65248 86.206324 
L 353.74176 77.165156 
L 353.83104 80.490948 
L 353.92032 88.647478 
L 354.0096 83.957377 
L 354.18816 93.123304 
L 354.27744 80.913803 
L 354.36672 94.94228 
L 354.63456 70.231387 
L 354.81312 84.896115 
L 354.9024 73.710152 
L 354.99168 97.036361 
L 355.17024 77.053745 
L 355.43808 94.154862 
L 355.52736 87.602283 
L 355.70592 89.911688 
L 355.7952 76.279308 
L 355.88448 88.574797 
L 355.97376 84.831247 
L 356.06304 97.268958 
L 356.2416 70.223477 
L 356.33088 144.187335 
L 356.50944 83.642038 
L 356.59872 74.972172 
L 356.77728 77.879961 
L 356.86656 101.202381 
L 356.95584 77.105959 
L 357.04512 110.960738 
L 357.1344 78.385967 
L 357.22368 86.907977 
L 357.31296 77.159197 
L 357.40224 89.462465 
L 357.49152 88.924168 
L 357.5808 64.372255 
L 357.67008 84.102875 
L 357.84864 76.652519 
L 357.93792 98.020422 
L 358.0272 95.09385 
L 358.20576 77.203534 
L 358.38432 78.540543 
L 358.65216 87.746721 
L 358.74144 78.57983 
L 358.83072 84.187526 
L 358.92 73.984639 
L 359.00928 75.507286 
L 359.09856 100.855057 
L 359.27712 79.678808 
L 359.3664 75.645538 
L 359.45568 89.465776 
L 359.54496 77.402333 
L 359.72352 92.654686 
L 359.8128 79.302365 
L 359.99136 85.27109 
L 360.08064 74.295899 
L 360.16992 117.273268 
L 360.34848 83.140731 
L 360.43776 97.025581 
L 360.61632 73.983761 
L 360.79488 103.684573 
L 360.97344 72.465912 
L 361.152 80.551458 
L 361.24128 75.388985 
L 361.33056 80.807498 
L 361.41984 68.016871 
L 361.5984 82.433519 
L 361.68768 77.911301 
L 361.86624 95.999863 
L 361.95552 95.729135 
L 362.0448 81.410056 
L 362.13408 88.685506 
L 362.22336 84.433054 
L 362.31264 84.567849 
L 362.40192 128.168294 
L 362.58048 82.834529 
L 362.66976 97.25751 
L 362.75904 72.646542 
L 362.84832 75.042484 
L 363.02688 79.485414 
L 363.11616 84.182451 
L 363.20544 80.913363 
L 363.29472 92.105595 
L 363.56256 76.924014 
L 363.65184 86.830176 
L 363.74112 74.557417 
L 363.8304 85.450521 
L 363.91968 76.027847 
L 364.00896 85.047401 
L 364.09824 110.278176 
L 364.2768 85.509665 
L 364.36608 108.919308 
L 364.54464 75.910442 
L 364.63392 76.477049 
L 364.81248 73.947562 
L 364.90176 74.092949 
L 364.99104 79.124392 
L 365.08032 74.647601 
L 365.25888 80.383656 
L 365.34816 66.235744 
L 365.43744 96.052115 
L 365.52672 80.027967 
L 365.616 84.678907 
L 365.70528 74.331992 
L 365.79456 75.53319 
L 365.88384 85.701557 
L 366.0624 74.886516 
L 366.15168 88.257629 
L 366.24096 76.776359 
L 366.33024 113.739568 
L 366.41952 70.477243 
L 366.5088 78.861592 
L 366.59808 77.569965 
L 366.68736 83.241441 
L 366.77664 75.340425 
L 366.86592 112.125151 
L 367.04448 69.875152 
L 367.13376 70.766383 
L 367.22304 70.519623 
L 367.49088 83.649627 
L 367.58016 104.788475 
L 367.848 67.332816 
L 368.02656 88.225438 
L 368.11584 80.767202 
L 368.20512 84.6103 
L 368.2944 65.95862 
L 368.47296 80.442659 
L 368.56224 71.707538 
L 368.65152 75.633125 
L 368.7408 85.173768 
L 368.83008 77.876685 
L 368.91936 96.150753 
L 369.09792 68.414527 
L 369.27648 74.156926 
L 369.36576 73.450518 
L 369.45504 82.376843 
L 369.6336 77.226384 
L 369.72288 89.505315 
L 369.81216 75.900624 
L 369.90144 90.706265 
L 370.16928 74.760021 
L 370.25856 81.903123 
L 370.34784 66.020764 
L 370.5264 86.054422 
L 370.61568 86.829463 
L 370.70496 84.91513 
L 370.79424 86.058338 
L 370.88352 81.383516 
L 370.9728 87.904178 
L 371.06208 131.773405 
L 371.24064 74.684554 
L 371.32992 79.722958 
L 371.4192 67.630603 
L 371.50848 76.505436 
L 371.59776 75.558981 
L 371.68704 77.190741 
L 371.8656 71.326125 
L 371.95488 79.372914 
L 372.13344 71.735297 
L 372.22272 95.713572 
L 372.40128 79.330697 
L 372.57984 86.720608 
L 372.66912 82.452953 
L 372.84768 87.499307 
L 372.93696 95.57448 
L 373.02624 87.900232 
L 373.11552 99.693711 
L 373.29408 71.3216 
L 373.47264 88.421791 
L 373.56192 84.46264 
L 373.6512 91.495395 
L 373.82976 73.024626 
L 373.91904 72.076092 
L 374.00832 80.947676 
L 374.0976 121.37954 
L 374.18688 80.285986 
L 374.27616 87.4918 
L 374.36544 106.346791 
L 374.45472 69.344828 
L 374.63328 85.950371 
L 374.72256 85.099088 
L 374.81184 70.398958 
L 374.9904 92.05272 
L 375.07968 72.931672 
L 375.16896 142.789261 
L 375.34752 75.597286 
L 375.4368 84.01305 
L 375.52608 68.18692 
L 375.61536 89.782026 
L 375.70464 81.500247 
L 375.79392 93.753591 
L 375.8832 74.961885 
L 376.06176 105.110412 
L 376.15104 96.372798 
L 376.24032 101.733158 
L 376.3296 90.803664 
L 376.41888 96.232155 
L 376.50816 80.460996 
L 376.59744 143.822835 
L 376.68672 64.696411 
L 376.776 118.583425 
L 376.95456 73.912989 
L 377.13312 74.816019 
L 377.2224 117.933116 
L 377.40096 72.874528 
L 377.49024 76.873316 
L 377.57952 86.012093 
L 377.6688 76.801579 
L 377.84736 88.026522 
L 377.93664 86.547047 
L 378.02592 93.330595 
L 378.1152 91.127364 
L 378.29376 68.852408 
L 378.38304 74.636809 
L 378.5616 70.739504 
L 378.74016 94.47254 
L 378.91872 70.411783 
L 379.008 97.237161 
L 379.09728 78.938427 
L 379.18656 89.202734 
L 379.27584 64.718103 
L 379.36512 95.186911 
L 379.4544 77.750003 
L 379.54368 87.977658 
L 379.63296 126.963612 
L 379.72224 74.575865 
L 379.81152 79.111763 
L 379.9008 88.068176 
L 379.99008 78.331726 
L 380.07936 81.901213 
L 380.25792 73.530856 
L 380.3472 72.869 
L 380.43648 75.088634 
L 380.52576 66.433677 
L 380.61504 67.435874 
L 380.70432 75.426696 
L 380.7936 73.799208 
L 380.88288 80.28509 
L 380.97216 71.823085 
L 381.15072 84.767642 
L 381.24 83.439365 
L 381.41856 75.830281 
L 381.50784 101.867593 
L 381.59712 78.87964 
L 381.6864 83.304994 
L 381.77568 96.763128 
L 381.86496 70.545772 
L 381.95424 75.533081 
L 382.1328 81.292419 
L 382.22208 84.139982 
L 382.31136 79.182491 
L 382.40064 80.028591 
L 382.48992 89.294316 
L 382.66848 78.536695 
L 382.75776 75.138109 
L 382.84704 78.893576 
L 382.93632 96.85706 
L 383.0256 75.357024 
L 383.20416 92.441369 
L 383.38272 70.640136 
L 383.472 106.0062 
L 383.65056 74.195312 
L 383.73984 104.764503 
L 383.82912 82.682638 
L 383.9184 85.150945 
L 384.00768 71.783283 
L 384.09696 99.44538 
L 384.18624 75.822839 
L 384.27552 80.201257 
L 384.45408 69.663148 
L 384.63264 94.194528 
L 384.72192 71.429545 
L 384.8112 86.999717 
L 384.90048 72.391199 
L 384.98976 72.396588 
L 385.07904 73.405106 
L 385.34688 88.154679 
L 385.43616 71.004427 
L 385.61472 94.298552 
L 385.704 90.679803 
L 385.88256 70.746337 
L 386.1504 89.424762 
L 386.23968 77.928206 
L 386.41824 90.419357 
L 386.5968 74.776595 
L 386.68608 92.420314 
L 386.77536 76.244642 
L 386.95392 97.50569 
L 387.0432 94.295502 
L 387.13248 72.535596 
L 387.22176 81.144761 
L 387.31104 65.056215 
L 387.4896 82.170435 
L 387.57888 84.646256 
L 387.66816 78.283206 
L 387.75744 81.996771 
L 387.84672 71.85531 
L 387.936 79.980156 
L 388.20384 73.015812 
L 388.29312 87.646269 
L 388.3824 80.692826 
L 388.47168 84.436149 
L 388.56096 76.942068 
L 388.65024 77.735322 
L 388.8288 87.437294 
L 388.91808 140.42821 
L 389.09664 72.808906 
L 389.18592 88.935048 
L 389.2752 83.092539 
L 389.36448 109.656817 
L 389.54304 80.583015 
L 389.63232 74.152692 
L 389.81088 89.789161 
L 389.90016 88.989612 
L 390.07872 76.718608 
L 390.168 87.212587 
L 390.43584 67.129485 
L 390.52512 96.737925 
L 390.6144 95.70121 
L 390.79296 71.279706 
L 391.0608 90.366094 
L 391.15008 74.742727 
L 391.41792 97.901292 
L 391.5072 79.965369 
L 391.68576 91.589893 
L 391.77504 82.880807 
L 391.86432 90.631154 
L 391.9536 74.770115 
L 392.04288 79.15675 
L 392.22144 72.141192 
L 392.48928 78.257418 
L 392.57856 69.430028 
L 392.66784 80.605775 
L 392.75712 77.173779 
L 392.8464 89.706722 
L 392.93568 75.217936 
L 393.11424 87.079792 
L 393.20352 85.974669 
L 393.2928 96.502219 
L 393.38208 74.090014 
L 393.56064 94.958403 
L 393.64992 116.662548 
L 393.82848 72.462581 
L 393.91776 79.41279 
L 394.00704 101.134804 
L 394.1856 67.76505 
L 394.27488 82.639442 
L 394.36416 77.703582 
L 394.45344 89.298709 
L 394.54272 80.625329 
L 394.632 83.351699 
L 394.72128 81.287614 
L 394.81056 81.718087 
L 394.89984 92.914906 
L 394.98912 82.05509 
L 395.0784 93.27259 
L 395.16768 78.588218 
L 395.25696 81.495877 
L 395.34624 86.317726 
L 395.43552 82.733195 
L 395.5248 71.024664 
L 395.70336 86.981002 
L 395.9712 71.53326 
L 396.06048 85.445207 
L 396.14976 74.198406 
L 396.23904 105.043294 
L 396.4176 73.458109 
L 396.59616 78.172697 
L 396.68544 83.437429 
L 396.95328 73.829631 
L 397.04256 114.618287 
L 397.22112 80.929368 
L 397.3104 110.772763 
L 397.57824 71.366703 
L 397.66752 96.041766 
L 397.84608 82.652262 
L 397.93536 79.135228 
L 398.02464 79.447064 
L 398.11392 101.216942 
L 398.38176 75.809714 
L 398.56032 81.628249 
L 398.6496 78.5581 
L 398.82816 84.236197 
L 398.91744 79.91212 
L 399.00672 84.964534 
L 399.18528 75.339929 
L 399.27456 73.965823 
L 399.36384 76.167748 
L 399.5424 92.543563 
L 399.63168 73.147262 
L 399.72096 73.379837 
L 399.89952 85.44965 
L 399.9888 86.328437 
L 400.07808 78.58361 
L 400.16736 98.545863 
L 400.25664 77.389823 
L 400.34592 86.753652 
L 400.61376 77.03039 
L 400.70304 79.95771 
L 400.79232 177.468495 
L 400.8816 80.300553 
L 400.97088 87.807407 
L 401.14944 80.310747 
L 401.23872 89.430829 
L 401.41728 73.401761 
L 401.59584 104.708183 
L 401.7744 76.638884 
L 401.86368 90.545416 
L 401.95296 74.9092 
L 402.04224 75.599156 
L 402.13152 84.617192 
L 402.2208 72.828768 
L 402.39936 90.651826 
L 402.48864 96.808848 
L 402.75648 81.009982 
L 402.84576 102.219368 
L 402.93504 63.648 
L 403.02432 88.213317 
L 403.1136 77.934636 
L 403.20288 79.31925 
L 403.29216 78.92429 
L 403.38144 81.552138 
L 403.47072 76.213707 
L 403.56 84.686138 
L 403.64928 74.352942 
L 403.82784 94.294805 
L 403.91712 75.115478 
L 404.0064 87.913698 
L 404.09568 85.157801 
L 404.18496 73.744709 
L 404.27424 147.839158 
L 404.4528 74.571541 
L 404.54208 96.930408 
L 404.72064 71.71467 
L 404.80992 83.267996 
L 404.8992 73.248825 
L 404.98848 86.750213 
L 405.07776 74.790824 
L 405.16704 75.567132 
L 405.25632 80.355953 
L 405.3456 75.314469 
L 405.43488 88.000898 
L 405.61344 74.459454 
L 405.70272 85.960237 
L 405.792 79.811612 
L 405.88128 80.88692 
L 405.97056 91.657836 
L 406.05984 79.586688 
L 406.14912 81.813673 
L 406.2384 87.802347 
L 406.32768 76.226301 
L 406.41696 87.060941 
L 406.59552 69.788302 
L 406.6848 73.108718 
L 406.95264 120.821304 
L 407.04192 74.255005 
L 407.1312 78.438407 
L 407.22048 138.442816 
L 407.39904 80.145507 
L 407.48832 76.627175 
L 407.5776 83.993779 
L 407.66688 74.573672 
L 407.75616 89.871754 
L 407.84544 87.174418 
L 407.93472 72.382347 
L 408.024 73.66835 
L 408.11328 80.704804 
L 408.20256 78.678251 
L 408.29184 86.831353 
L 408.38112 76.060339 
L 408.4704 84.85255 
L 408.55968 83.868246 
L 408.64896 85.381888 
L 408.73824 83.844025 
L 408.82752 77.51117 
L 408.9168 86.939441 
L 409.00608 70.471212 
L 409.18464 88.886863 
L 409.3632 77.48455 
L 409.45248 94.610473 
L 409.54176 81.844756 
L 409.63104 82.672402 
L 409.72032 84.314933 
L 409.8096 75.293941 
L 409.89888 85.928399 
L 409.98816 84.839165 
L 410.07744 75.269618 
L 410.16672 97.437585 
L 410.256 80.619844 
L 410.34528 87.848498 
L 410.43456 73.938032 
L 410.52384 80.857956 
L 410.61312 74.902577 
L 410.7024 86.123874 
L 411.05952 72.423783 
L 411.1488 85.793418 
L 411.23808 78.65011 
L 411.41664 82.528194 
L 411.50592 76.429254 
L 411.5952 77.36132 
L 411.68448 76.619994 
L 411.86304 80.083751 
L 411.95232 70.440576 
L 412.0416 90.981221 
L 412.30944 71.8047 
L 412.488 85.617847 
L 412.57728 75.76731 
L 412.66656 108.789279 
L 412.75584 84.52942 
L 412.84512 90.790644 
L 412.9344 79.67786 
L 413.11296 88.9302 
L 413.20224 70.01213 
L 413.3808 153.722673 
L 413.47008 68.114093 
L 413.55936 88.684115 
L 413.64864 86.418523 
L 413.73792 71.962717 
L 413.8272 74.946258 
L 413.91648 85.105055 
L 414.09504 73.7472 
L 414.18432 86.105738 
L 414.2736 83.853115 
L 414.45216 81.50599 
L 414.54144 96.208117 
L 414.63072 87.612925 
L 414.63072 87.612925 
" style="fill:none;stroke:#0000ff;stroke-linecap:square;stroke-width:1.5;"/>
   </g>
   <g id="patch_3">
    <path d="M 57.6 307.584 
L 57.6 41.472 
" style="fill:none;stroke:#000000;stroke-linecap:square;stroke-linejoin:miter;stroke-width:0.8;"/>
   </g>
   <g id="patch_4">
    <path d="M 414.72 307.584 
L 414.72 41.472 
" style="fill:none;stroke:#000000;stroke-linecap:square;stroke-linejoin:miter;stroke-width:0.8;"/>
   </g>
   <g id="patch_5">
    <path d="M 57.6 307.584 
L 414.72 307.584 
" style="fill:none;stroke:#000000;stroke-linecap:square;stroke-linejoin:miter;stroke-width:0.8;"/>
   </g>
   <g id="patch_6">
    <path d="M 57.6 41.472 
L 414.72 41.472 
" style="fill:none;stroke:#000000;stroke-linecap:square;stroke-linejoin:miter;stroke-width:0.8;"/>
   </g>
   <g id="legend_1">
    <g id="patch_7">
     <path d="M 202.8825 299.584 
L 403.52 299.584 
Q 406.72 299.584 406.72 296.384 
L 406.72 274.499 
Q 406.72 271.299 403.52 271.299 
L 202.8825 271.299 
Q 199.6825 271.299 199.6825 274.499 
L 199.6825 296.384 
Q 199.6825 299.584 202.8825 299.584 
z
" style="fill:#ffffff;opacity:0.8;stroke:#cccccc;stroke-linejoin:miter;"/>
    </g>
    <g id="line2d_20">
     <path d="M 206.0825 284.2565 
L 238.0825 284.2565 
" style="fill:none;stroke:#0000ff;stroke-linecap:square;stroke-width:1.5;"/>
    </g>
    <g id="line2d_21"/>
    <g id="text_12">
     <!-- cumulative reward -->
     <g transform="translate(250.8825 289.8565)scale(0.16 -0.16)">
      <defs>
       <path d="M 3122 3366 
L 3122 2828 
Q 2878 2963 2633 3030 
Q 2388 3097 2138 3097 
Q 1578 3097 1268 2742 
Q 959 2388 959 1747 
Q 959 1106 1268 751 
Q 1578 397 2138 397 
Q 2388 397 2633 464 
Q 2878 531 3122 666 
L 3122 134 
Q 2881 22 2623 -34 
Q 2366 -91 2075 -91 
Q 1284 -91 818 406 
Q 353 903 353 1747 
Q 353 2603 823 3093 
Q 1294 3584 2113 3584 
Q 2378 3584 2631 3529 
Q 2884 3475 3122 3366 
z
" id="DejaVuSans-63" transform="scale(0.015625)"/>
      </defs>
      <use xlink:href="#DejaVuSans-63"/>
      <use x="54.980469" xlink:href="#DejaVuSans-75"/>
      <use x="118.359375" xlink:href="#DejaVuSans-6d"/>
      <use x="215.771484" xlink:href="#DejaVuSans-75"/>
      <use x="279.150391" xlink:href="#DejaVuSans-6c"/>
      <use x="306.933594" xlink:href="#DejaVuSans-61"/>
      <use x="368.212891" xlink:href="#DejaVuSans-74"/>
      <use x="407.421875" xlink:href="#DejaVuSans-69"/>
      <use x="435.205078" xlink:href="#DejaVuSans-76"/>
      <use x="494.384766" xlink:href="#DejaVuSans-65"/>
      <use x="555.908203" xlink:href="#DejaVuSans-20"/>
      <use x="587.695312" xlink:href="#DejaVuSans-72"/>
      <use x="626.558594" xlink:href="#DejaVuSans-65"/>
      <use x="688.082031" xlink:href="#DejaVuSans-77"/>
      <use x="769.869141" xlink:href="#DejaVuSans-61"/>
      <use x="831.148438" xlink:href="#DejaVuSans-72"/>
      <use x="870.511719" xlink:href="#DejaVuSans-64"/>
     </g>
    </g>
   </g>
  </g>
 </g>
 <defs>
  <clipPath id="p622df9dc4a">
   <rect height="266.112" width="357.12" x="57.6" y="41.472"/>
  </clipPath>
 </defs>
</svg>
