<?xml version="1.0" encoding="utf-8" standalone="no"?>
<!DOCTYPE svg PUBLIC "-//W3C//DTD SVG 1.1//EN"
  "http://www.w3.org/Graphics/SVG/1.1/DTD/svg11.dtd">
<svg xmlns:xlink="http://www.w3.org/1999/xlink" width="460.8pt" height="345.6pt" viewBox="0 0 460.8 345.6" xmlns="http://www.w3.org/2000/svg" version="1.1">
 <metadata>
  <rdf:RDF xmlns:dc="http://purl.org/dc/elements/1.1/" xmlns:cc="http://creativecommons.org/ns#" xmlns:rdf="http://www.w3.org/1999/02/22-rdf-syntax-ns#">
   <cc:Work>
    <dc:type rdf:resource="http://purl.org/dc/dcmitype/StillImage"/>
    <dc:date>2021-12-06T15:36:50.063551</dc:date>
    <dc:description>{"agent.algorithm": "RayProximalPolicyOptimization", "agent.algorithm.render_env": false, "agent.algorithm.num_workers": 0, "agent.algorithm.batch_mode": "complete_episodes", "agent.algorithm.lr": 5e-05, "agent.algorithm.train_batch_size": 200, "agent.algorithm.optimizer": "Adam", "agent.algorithm.vf_clip_param": 10, "agent.algorithm.model": {"fcnet_activation": "relu", "fcnet_hiddens": [50, 50]}, "env.env_class": "SchedulerPolicyRayEnvironment", "env.env_config": {"solver_driver": "DEdriver", "solver_driver_args": [5, 10, 18, "best1bin", "normal"], "maximize": false, "steps": 50, "state_metrics_names": ["DifferenceOfBest", "SolverStateHistory"], "state_metrics_config": [[40, false, 1, true, false], [{"F_mean": {"max": [2], "min": [0]}, "F_stdev": {"max": [1], "min": [0]}, "CR_mean": {"max": [1], "min": [0]}, "CR_stdev": {"max": [1], "min": [0]}}, 40]], "reward_metric": "DeltaBest", "reward_metric_config": [false, true, true], "memes_no": 1, "action_space_config": {"F_mean": {"max": 2, "min": 0}, "F_stdev": {"max": 1, "min": 0}, "CR_mean": {"max": 1, "min": 0}, "CR_stdev": {"max": 1, "min": 0}}}}</dc:description>
    <dc:format>image/svg+xml</dc:format>
    <dc:creator>
     <cc:Agent>
      <dc:title>Matplotlib v3.5.0, https://matplotlib.org/</dc:title>
     </cc:Agent>
    </dc:creator>
   </cc:Work>
  </rdf:RDF>
 </metadata>
 <defs>
  <style type="text/css">*{stroke-linejoin: round; stroke-linecap: butt}</style>
 </defs>
 <g id="figure_1">
  <g id="patch_1">
   <path d="M 0 345.6 
L 460.8 345.6 
L 460.8 0 
L 0 0 
z
" style="fill: #ffffff"/>
  </g>
  <g id="axes_1">
   <g id="patch_2">
    <path d="M 57.6 307.584 
L 414.72 307.584 
L 414.72 41.472 
L 57.6 41.472 
z
" style="fill: #ffffff"/>
   </g>
   <g id="matplotlib.axis_1">
    <g id="xtick_1">
     <g id="line2d_1">
      <path d="M 57.6 307.584 
L 57.6 41.472 
" clip-path="url(#p283493576d)" style="fill: none; stroke: #b0b0b0; stroke-width: 0.8; stroke-linecap: square"/>
     </g>
     <g id="line2d_2">
      <defs>
       <path id="m3e4b1b85db" d="M 0 0 
L 0 3.5 
" style="stroke: #000000; stroke-width: 0.8"/>
      </defs>
      <g>
       <use xlink:href="#m3e4b1b85db" x="57.6" y="307.584" style="stroke: #000000; stroke-width: 0.8"/>
      </g>
     </g>
     <g id="text_1">
      <!-- 0 -->
      <g transform="translate(52.51 326.7415)scale(0.16 -0.16)">
       <defs>
        <path id="DejaVuSans-30" d="M 2034 4250 
Q 1547 4250 1301 3770 
Q 1056 3291 1056 2328 
Q 1056 1369 1301 889 
Q 1547 409 2034 409 
Q 2525 409 2770 889 
Q 3016 1369 3016 2328 
Q 3016 3291 2770 3770 
Q 2525 4250 2034 4250 
z
M 2034 4750 
Q 2819 4750 3233 4129 
Q 3647 3509 3647 2328 
Q 3647 1150 3233 529 
Q 2819 -91 2034 -91 
Q 1250 -91 836 529 
Q 422 1150 422 2328 
Q 422 3509 836 4129 
Q 1250 4750 2034 4750 
z
" transform="scale(0.015625)"/>
       </defs>
       <use xlink:href="#DejaVuSans-30"/>
      </g>
     </g>
    </g>
    <g id="xtick_2">
     <g id="line2d_3">
      <path d="M 146.88 307.584 
L 146.88 41.472 
" clip-path="url(#p283493576d)" style="fill: none; stroke: #b0b0b0; stroke-width: 0.8; stroke-linecap: square"/>
     </g>
     <g id="line2d_4">
      <g>
       <use xlink:href="#m3e4b1b85db" x="146.88" y="307.584" style="stroke: #000000; stroke-width: 0.8"/>
      </g>
     </g>
     <g id="text_2">
      <!-- 500 -->
      <g transform="translate(131.61 326.7415)scale(0.16 -0.16)">
       <defs>
        <path id="DejaVuSans-35" d="M 691 4666 
L 3169 4666 
L 3169 4134 
L 1269 4134 
L 1269 2991 
Q 1406 3038 1543 3061 
Q 1681 3084 1819 3084 
Q 2600 3084 3056 2656 
Q 3513 2228 3513 1497 
Q 3513 744 3044 326 
Q 2575 -91 1722 -91 
Q 1428 -91 1123 -41 
Q 819 9 494 109 
L 494 744 
Q 775 591 1075 516 
Q 1375 441 1709 441 
Q 2250 441 2565 725 
Q 2881 1009 2881 1497 
Q 2881 1984 2565 2268 
Q 2250 2553 1709 2553 
Q 1456 2553 1204 2497 
Q 953 2441 691 2322 
L 691 4666 
z
" transform="scale(0.015625)"/>
       </defs>
       <use xlink:href="#DejaVuSans-35"/>
       <use xlink:href="#DejaVuSans-30" x="63.623047"/>
       <use xlink:href="#DejaVuSans-30" x="127.246094"/>
      </g>
     </g>
    </g>
    <g id="xtick_3">
     <g id="line2d_5">
      <path d="M 236.16 307.584 
L 236.16 41.472 
" clip-path="url(#p283493576d)" style="fill: none; stroke: #b0b0b0; stroke-width: 0.8; stroke-linecap: square"/>
     </g>
     <g id="line2d_6">
      <g>
       <use xlink:href="#m3e4b1b85db" x="236.16" y="307.584" style="stroke: #000000; stroke-width: 0.8"/>
      </g>
     </g>
     <g id="text_3">
      <!-- 1000 -->
      <g transform="translate(215.8 326.7415)scale(0.16 -0.16)">
       <defs>
        <path id="DejaVuSans-31" d="M 794 531 
L 1825 531 
L 1825 4091 
L 703 3866 
L 703 4441 
L 1819 4666 
L 2450 4666 
L 2450 531 
L 3481 531 
L 3481 0 
L 794 0 
L 794 531 
z
" transform="scale(0.015625)"/>
       </defs>
       <use xlink:href="#DejaVuSans-31"/>
       <use xlink:href="#DejaVuSans-30" x="63.623047"/>
       <use xlink:href="#DejaVuSans-30" x="127.246094"/>
       <use xlink:href="#DejaVuSans-30" x="190.869141"/>
      </g>
     </g>
    </g>
    <g id="xtick_4">
     <g id="line2d_7">
      <path d="M 325.44 307.584 
L 325.44 41.472 
" clip-path="url(#p283493576d)" style="fill: none; stroke: #b0b0b0; stroke-width: 0.8; stroke-linecap: square"/>
     </g>
     <g id="line2d_8">
      <g>
       <use xlink:href="#m3e4b1b85db" x="325.44" y="307.584" style="stroke: #000000; stroke-width: 0.8"/>
      </g>
     </g>
     <g id="text_4">
      <!-- 1500 -->
      <g transform="translate(305.08 326.7415)scale(0.16 -0.16)">
       <use xlink:href="#DejaVuSans-31"/>
       <use xlink:href="#DejaVuSans-35" x="63.623047"/>
       <use xlink:href="#DejaVuSans-30" x="127.246094"/>
       <use xlink:href="#DejaVuSans-30" x="190.869141"/>
      </g>
     </g>
    </g>
    <g id="xtick_5">
     <g id="line2d_9">
      <path d="M 414.72 307.584 
L 414.72 41.472 
" clip-path="url(#p283493576d)" style="fill: none; stroke: #b0b0b0; stroke-width: 0.8; stroke-linecap: square"/>
     </g>
     <g id="line2d_10">
      <g>
       <use xlink:href="#m3e4b1b85db" x="414.72" y="307.584" style="stroke: #000000; stroke-width: 0.8"/>
      </g>
     </g>
     <g id="text_5">
      <!-- 2000 -->
      <g transform="translate(394.36 326.7415)scale(0.16 -0.16)">
       <defs>
        <path id="DejaVuSans-32" d="M 1228 531 
L 3431 531 
L 3431 0 
L 469 0 
L 469 531 
Q 828 903 1448 1529 
Q 2069 2156 2228 2338 
Q 2531 2678 2651 2914 
Q 2772 3150 2772 3378 
Q 2772 3750 2511 3984 
Q 2250 4219 1831 4219 
Q 1534 4219 1204 4116 
Q 875 4013 500 3803 
L 500 4441 
Q 881 4594 1212 4672 
Q 1544 4750 1819 4750 
Q 2544 4750 2975 4387 
Q 3406 4025 3406 3419 
Q 3406 3131 3298 2873 
Q 3191 2616 2906 2266 
Q 2828 2175 2409 1742 
Q 1991 1309 1228 531 
z
" transform="scale(0.015625)"/>
       </defs>
       <use xlink:href="#DejaVuSans-32"/>
       <use xlink:href="#DejaVuSans-30" x="63.623047"/>
       <use xlink:href="#DejaVuSans-30" x="127.246094"/>
       <use xlink:href="#DejaVuSans-30" x="190.869141"/>
      </g>
     </g>
    </g>
    <g id="text_6">
     <!-- Episodes -->
     <g transform="translate(200.5725 346.2265)scale(0.16 -0.16)">
      <defs>
       <path id="DejaVuSans-45" d="M 628 4666 
L 3578 4666 
L 3578 4134 
L 1259 4134 
L 1259 2753 
L 3481 2753 
L 3481 2222 
L 1259 2222 
L 1259 531 
L 3634 531 
L 3634 0 
L 628 0 
L 628 4666 
z
" transform="scale(0.015625)"/>
       <path id="DejaVuSans-70" d="M 1159 525 
L 1159 -1331 
L 581 -1331 
L 581 3500 
L 1159 3500 
L 1159 2969 
Q 1341 3281 1617 3432 
Q 1894 3584 2278 3584 
Q 2916 3584 3314 3078 
Q 3713 2572 3713 1747 
Q 3713 922 3314 415 
Q 2916 -91 2278 -91 
Q 1894 -91 1617 61 
Q 1341 213 1159 525 
z
M 3116 1747 
Q 3116 2381 2855 2742 
Q 2594 3103 2138 3103 
Q 1681 3103 1420 2742 
Q 1159 2381 1159 1747 
Q 1159 1113 1420 752 
Q 1681 391 2138 391 
Q 2594 391 2855 752 
Q 3116 1113 3116 1747 
z
" transform="scale(0.015625)"/>
       <path id="DejaVuSans-69" d="M 603 3500 
L 1178 3500 
L 1178 0 
L 603 0 
L 603 3500 
z
M 603 4863 
L 1178 4863 
L 1178 4134 
L 603 4134 
L 603 4863 
z
" transform="scale(0.015625)"/>
       <path id="DejaVuSans-73" d="M 2834 3397 
L 2834 2853 
Q 2591 2978 2328 3040 
Q 2066 3103 1784 3103 
Q 1356 3103 1142 2972 
Q 928 2841 928 2578 
Q 928 2378 1081 2264 
Q 1234 2150 1697 2047 
L 1894 2003 
Q 2506 1872 2764 1633 
Q 3022 1394 3022 966 
Q 3022 478 2636 193 
Q 2250 -91 1575 -91 
Q 1294 -91 989 -36 
Q 684 19 347 128 
L 347 722 
Q 666 556 975 473 
Q 1284 391 1588 391 
Q 1994 391 2212 530 
Q 2431 669 2431 922 
Q 2431 1156 2273 1281 
Q 2116 1406 1581 1522 
L 1381 1569 
Q 847 1681 609 1914 
Q 372 2147 372 2553 
Q 372 3047 722 3315 
Q 1072 3584 1716 3584 
Q 2034 3584 2315 3537 
Q 2597 3491 2834 3397 
z
" transform="scale(0.015625)"/>
       <path id="DejaVuSans-6f" d="M 1959 3097 
Q 1497 3097 1228 2736 
Q 959 2375 959 1747 
Q 959 1119 1226 758 
Q 1494 397 1959 397 
Q 2419 397 2687 759 
Q 2956 1122 2956 1747 
Q 2956 2369 2687 2733 
Q 2419 3097 1959 3097 
z
M 1959 3584 
Q 2709 3584 3137 3096 
Q 3566 2609 3566 1747 
Q 3566 888 3137 398 
Q 2709 -91 1959 -91 
Q 1206 -91 779 398 
Q 353 888 353 1747 
Q 353 2609 779 3096 
Q 1206 3584 1959 3584 
z
" transform="scale(0.015625)"/>
       <path id="DejaVuSans-64" d="M 2906 2969 
L 2906 4863 
L 3481 4863 
L 3481 0 
L 2906 0 
L 2906 525 
Q 2725 213 2448 61 
Q 2172 -91 1784 -91 
Q 1150 -91 751 415 
Q 353 922 353 1747 
Q 353 2572 751 3078 
Q 1150 3584 1784 3584 
Q 2172 3584 2448 3432 
Q 2725 3281 2906 2969 
z
M 947 1747 
Q 947 1113 1208 752 
Q 1469 391 1925 391 
Q 2381 391 2643 752 
Q 2906 1113 2906 1747 
Q 2906 2381 2643 2742 
Q 2381 3103 1925 3103 
Q 1469 3103 1208 2742 
Q 947 2381 947 1747 
z
" transform="scale(0.015625)"/>
       <path id="DejaVuSans-65" d="M 3597 1894 
L 3597 1613 
L 953 1613 
Q 991 1019 1311 708 
Q 1631 397 2203 397 
Q 2534 397 2845 478 
Q 3156 559 3463 722 
L 3463 178 
Q 3153 47 2828 -22 
Q 2503 -91 2169 -91 
Q 1331 -91 842 396 
Q 353 884 353 1716 
Q 353 2575 817 3079 
Q 1281 3584 2069 3584 
Q 2775 3584 3186 3129 
Q 3597 2675 3597 1894 
z
M 3022 2063 
Q 3016 2534 2758 2815 
Q 2500 3097 2075 3097 
Q 1594 3097 1305 2825 
Q 1016 2553 972 2059 
L 3022 2063 
z
" transform="scale(0.015625)"/>
      </defs>
      <use xlink:href="#DejaVuSans-45"/>
      <use xlink:href="#DejaVuSans-70" x="63.183594"/>
      <use xlink:href="#DejaVuSans-69" x="126.660156"/>
      <use xlink:href="#DejaVuSans-73" x="154.443359"/>
      <use xlink:href="#DejaVuSans-6f" x="206.542969"/>
      <use xlink:href="#DejaVuSans-64" x="267.724609"/>
      <use xlink:href="#DejaVuSans-65" x="331.201172"/>
      <use xlink:href="#DejaVuSans-73" x="392.724609"/>
     </g>
    </g>
   </g>
   <g id="matplotlib.axis_2">
    <g id="ytick_1">
     <g id="line2d_11">
      <path d="M 57.6 285.408 
L 414.72 285.408 
" clip-path="url(#p283493576d)" style="fill: none; stroke: #b0b0b0; stroke-width: 0.8; stroke-linecap: square"/>
     </g>
     <g id="line2d_12">
      <defs>
       <path id="m34d1d4c2b5" d="M 0 0 
L -3.5 0 
" style="stroke: #000000; stroke-width: 0.8"/>
      </defs>
      <g>
       <use xlink:href="#m34d1d4c2b5" x="57.6" y="285.408" style="stroke: #000000; stroke-width: 0.8"/>
      </g>
     </g>
     <g id="text_7">
      <!-- 0 -->
      <g transform="translate(40.42 291.48675)scale(0.16 -0.16)">
       <use xlink:href="#DejaVuSans-30"/>
      </g>
     </g>
    </g>
    <g id="ytick_2">
     <g id="line2d_13">
      <path d="M 57.6 220.445021 
L 414.72 220.445021 
" clip-path="url(#p283493576d)" style="fill: none; stroke: #b0b0b0; stroke-width: 0.8; stroke-linecap: square"/>
     </g>
     <g id="line2d_14">
      <g>
       <use xlink:href="#m34d1d4c2b5" x="57.6" y="220.445021" style="stroke: #000000; stroke-width: 0.8"/>
      </g>
     </g>
     <g id="text_8">
      <!-- 1 -->
      <g transform="translate(40.42 226.523771)scale(0.16 -0.16)">
       <use xlink:href="#DejaVuSans-31"/>
      </g>
     </g>
    </g>
    <g id="ytick_3">
     <g id="line2d_15">
      <path d="M 57.6 155.482042 
L 414.72 155.482042 
" clip-path="url(#p283493576d)" style="fill: none; stroke: #b0b0b0; stroke-width: 0.8; stroke-linecap: square"/>
     </g>
     <g id="line2d_16">
      <g>
       <use xlink:href="#m34d1d4c2b5" x="57.6" y="155.482042" style="stroke: #000000; stroke-width: 0.8"/>
      </g>
     </g>
     <g id="text_9">
      <!-- 2 -->
      <g transform="translate(40.42 161.560792)scale(0.16 -0.16)">
       <use xlink:href="#DejaVuSans-32"/>
      </g>
     </g>
    </g>
    <g id="ytick_4">
     <g id="line2d_17">
      <path d="M 57.6 90.519063 
L 414.72 90.519063 
" clip-path="url(#p283493576d)" style="fill: none; stroke: #b0b0b0; stroke-width: 0.8; stroke-linecap: square"/>
     </g>
     <g id="line2d_18">
      <g>
       <use xlink:href="#m34d1d4c2b5" x="57.6" y="90.519063" style="stroke: #000000; stroke-width: 0.8"/>
      </g>
     </g>
     <g id="text_10">
      <!-- 3 -->
      <g transform="translate(40.42 96.597813)scale(0.16 -0.16)">
       <defs>
        <path id="DejaVuSans-33" d="M 2597 2516 
Q 3050 2419 3304 2112 
Q 3559 1806 3559 1356 
Q 3559 666 3084 287 
Q 2609 -91 1734 -91 
Q 1441 -91 1130 -33 
Q 819 25 488 141 
L 488 750 
Q 750 597 1062 519 
Q 1375 441 1716 441 
Q 2309 441 2620 675 
Q 2931 909 2931 1356 
Q 2931 1769 2642 2001 
Q 2353 2234 1838 2234 
L 1294 2234 
L 1294 2753 
L 1863 2753 
Q 2328 2753 2575 2939 
Q 2822 3125 2822 3475 
Q 2822 3834 2567 4026 
Q 2313 4219 1838 4219 
Q 1578 4219 1281 4162 
Q 984 4106 628 3988 
L 628 4550 
Q 988 4650 1302 4700 
Q 1616 4750 1894 4750 
Q 2613 4750 3031 4423 
Q 3450 4097 3450 3541 
Q 3450 3153 3228 2886 
Q 3006 2619 2597 2516 
z
" transform="scale(0.015625)"/>
       </defs>
       <use xlink:href="#DejaVuSans-33"/>
      </g>
     </g>
    </g>
    <g id="text_11">
     <!-- Cumulative Reward -->
     <g transform="translate(33.0925 252.52425)rotate(-90)scale(0.16 -0.16)">
      <defs>
       <path id="DejaVuSans-43" d="M 4122 4306 
L 4122 3641 
Q 3803 3938 3442 4084 
Q 3081 4231 2675 4231 
Q 1875 4231 1450 3742 
Q 1025 3253 1025 2328 
Q 1025 1406 1450 917 
Q 1875 428 2675 428 
Q 3081 428 3442 575 
Q 3803 722 4122 1019 
L 4122 359 
Q 3791 134 3420 21 
Q 3050 -91 2638 -91 
Q 1578 -91 968 557 
Q 359 1206 359 2328 
Q 359 3453 968 4101 
Q 1578 4750 2638 4750 
Q 3056 4750 3426 4639 
Q 3797 4528 4122 4306 
z
" transform="scale(0.015625)"/>
       <path id="DejaVuSans-75" d="M 544 1381 
L 544 3500 
L 1119 3500 
L 1119 1403 
Q 1119 906 1312 657 
Q 1506 409 1894 409 
Q 2359 409 2629 706 
Q 2900 1003 2900 1516 
L 2900 3500 
L 3475 3500 
L 3475 0 
L 2900 0 
L 2900 538 
Q 2691 219 2414 64 
Q 2138 -91 1772 -91 
Q 1169 -91 856 284 
Q 544 659 544 1381 
z
M 1991 3584 
L 1991 3584 
z
" transform="scale(0.015625)"/>
       <path id="DejaVuSans-6d" d="M 3328 2828 
Q 3544 3216 3844 3400 
Q 4144 3584 4550 3584 
Q 5097 3584 5394 3201 
Q 5691 2819 5691 2113 
L 5691 0 
L 5113 0 
L 5113 2094 
Q 5113 2597 4934 2840 
Q 4756 3084 4391 3084 
Q 3944 3084 3684 2787 
Q 3425 2491 3425 1978 
L 3425 0 
L 2847 0 
L 2847 2094 
Q 2847 2600 2669 2842 
Q 2491 3084 2119 3084 
Q 1678 3084 1418 2786 
Q 1159 2488 1159 1978 
L 1159 0 
L 581 0 
L 581 3500 
L 1159 3500 
L 1159 2956 
Q 1356 3278 1631 3431 
Q 1906 3584 2284 3584 
Q 2666 3584 2933 3390 
Q 3200 3197 3328 2828 
z
" transform="scale(0.015625)"/>
       <path id="DejaVuSans-6c" d="M 603 4863 
L 1178 4863 
L 1178 0 
L 603 0 
L 603 4863 
z
" transform="scale(0.015625)"/>
       <path id="DejaVuSans-61" d="M 2194 1759 
Q 1497 1759 1228 1600 
Q 959 1441 959 1056 
Q 959 750 1161 570 
Q 1363 391 1709 391 
Q 2188 391 2477 730 
Q 2766 1069 2766 1631 
L 2766 1759 
L 2194 1759 
z
M 3341 1997 
L 3341 0 
L 2766 0 
L 2766 531 
Q 2569 213 2275 61 
Q 1981 -91 1556 -91 
Q 1019 -91 701 211 
Q 384 513 384 1019 
Q 384 1609 779 1909 
Q 1175 2209 1959 2209 
L 2766 2209 
L 2766 2266 
Q 2766 2663 2505 2880 
Q 2244 3097 1772 3097 
Q 1472 3097 1187 3025 
Q 903 2953 641 2809 
L 641 3341 
Q 956 3463 1253 3523 
Q 1550 3584 1831 3584 
Q 2591 3584 2966 3190 
Q 3341 2797 3341 1997 
z
" transform="scale(0.015625)"/>
       <path id="DejaVuSans-74" d="M 1172 4494 
L 1172 3500 
L 2356 3500 
L 2356 3053 
L 1172 3053 
L 1172 1153 
Q 1172 725 1289 603 
Q 1406 481 1766 481 
L 2356 481 
L 2356 0 
L 1766 0 
Q 1100 0 847 248 
Q 594 497 594 1153 
L 594 3053 
L 172 3053 
L 172 3500 
L 594 3500 
L 594 4494 
L 1172 4494 
z
" transform="scale(0.015625)"/>
       <path id="DejaVuSans-76" d="M 191 3500 
L 800 3500 
L 1894 563 
L 2988 3500 
L 3597 3500 
L 2284 0 
L 1503 0 
L 191 3500 
z
" transform="scale(0.015625)"/>
       <path id="DejaVuSans-20" transform="scale(0.015625)"/>
       <path id="DejaVuSans-52" d="M 2841 2188 
Q 3044 2119 3236 1894 
Q 3428 1669 3622 1275 
L 4263 0 
L 3584 0 
L 2988 1197 
Q 2756 1666 2539 1819 
Q 2322 1972 1947 1972 
L 1259 1972 
L 1259 0 
L 628 0 
L 628 4666 
L 2053 4666 
Q 2853 4666 3247 4331 
Q 3641 3997 3641 3322 
Q 3641 2881 3436 2590 
Q 3231 2300 2841 2188 
z
M 1259 4147 
L 1259 2491 
L 2053 2491 
Q 2509 2491 2742 2702 
Q 2975 2913 2975 3322 
Q 2975 3731 2742 3939 
Q 2509 4147 2053 4147 
L 1259 4147 
z
" transform="scale(0.015625)"/>
       <path id="DejaVuSans-77" d="M 269 3500 
L 844 3500 
L 1563 769 
L 2278 3500 
L 2956 3500 
L 3675 769 
L 4391 3500 
L 4966 3500 
L 4050 0 
L 3372 0 
L 2619 2869 
L 1863 0 
L 1184 0 
L 269 3500 
z
" transform="scale(0.015625)"/>
       <path id="DejaVuSans-72" d="M 2631 2963 
Q 2534 3019 2420 3045 
Q 2306 3072 2169 3072 
Q 1681 3072 1420 2755 
Q 1159 2438 1159 1844 
L 1159 0 
L 581 0 
L 581 3500 
L 1159 3500 
L 1159 2956 
Q 1341 3275 1631 3429 
Q 1922 3584 2338 3584 
Q 2397 3584 2469 3576 
Q 2541 3569 2628 3553 
L 2631 2963 
z
" transform="scale(0.015625)"/>
      </defs>
      <use xlink:href="#DejaVuSans-43"/>
      <use xlink:href="#DejaVuSans-75" x="69.824219"/>
      <use xlink:href="#DejaVuSans-6d" x="133.203125"/>
      <use xlink:href="#DejaVuSans-75" x="230.615234"/>
      <use xlink:href="#DejaVuSans-6c" x="293.994141"/>
      <use xlink:href="#DejaVuSans-61" x="321.777344"/>
      <use xlink:href="#DejaVuSans-74" x="383.056641"/>
      <use xlink:href="#DejaVuSans-69" x="422.265625"/>
      <use xlink:href="#DejaVuSans-76" x="450.048828"/>
      <use xlink:href="#DejaVuSans-65" x="509.228516"/>
      <use xlink:href="#DejaVuSans-20" x="570.751953"/>
      <use xlink:href="#DejaVuSans-52" x="602.539062"/>
      <use xlink:href="#DejaVuSans-65" x="667.521484"/>
      <use xlink:href="#DejaVuSans-77" x="729.044922"/>
      <use xlink:href="#DejaVuSans-61" x="810.832031"/>
      <use xlink:href="#DejaVuSans-72" x="872.111328"/>
      <use xlink:href="#DejaVuSans-64" x="911.474609"/>
     </g>
    </g>
   </g>
   <g id="line2d_19">
    <path d="M 57.6 247.276815 
L 57.95712 219.939257 
L 58.13568 259.506368 
L 58.67136 219.939257 
L 58.84992 259.506368 
L 59.3856 219.939257 
L 59.56416 259.506368 
L 60.09984 219.939257 
L 60.2784 259.506368 
L 60.81408 219.939257 
L 60.99264 259.506368 
L 61.52832 219.939257 
L 61.70688 259.506368 
L 62.24256 219.939257 
L 62.42112 259.506368 
L 62.9568 219.939257 
L 63.13536 259.506368 
L 63.67104 219.939257 
L 63.8496 259.506368 
L 64.38528 219.939257 
L 64.56384 259.506368 
L 65.09952 219.939257 
L 65.27808 259.506368 
L 65.81376 219.939257 
L 65.99232 259.506368 
L 66.528 219.939257 
L 66.70656 259.506368 
L 67.24224 219.939257 
L 67.4208 259.506368 
L 67.95648 219.939257 
L 68.13504 259.506368 
L 68.67072 219.939257 
L 68.84928 259.506368 
L 69.38496 219.939257 
L 69.56352 259.506368 
L 70.0992 219.939257 
L 70.27776 259.506368 
L 70.81344 219.939257 
L 70.992 259.506368 
L 71.52768 219.939257 
L 71.70624 259.506368 
L 72.24192 219.939257 
L 72.42048 259.506368 
L 72.95616 219.939257 
L 73.13472 259.506368 
L 73.6704 219.939257 
L 73.84896 259.506368 
L 74.38464 219.939257 
L 74.5632 259.506368 
L 75.09888 219.939257 
L 75.27744 259.506368 
L 75.63456 195.65081 
L 75.81312 242.067141 
L 75.99168 234.324059 
L 76.17024 196.784645 
L 76.3488 211.260103 
L 76.52736 251.8307 
L 76.70592 254.784057 
L 76.88448 245.455622 
L 77.06304 261.841379 
L 77.2416 249.655558 
L 77.42016 201.563224 
L 77.59872 205.456368 
L 77.77728 245.215535 
L 77.95584 232.941624 
L 78.1344 173.412016 
L 78.31296 239.144482 
L 78.49152 235.553569 
L 78.67008 273.809354 
L 78.84864 258.930227 
L 79.0272 218.34194 
L 79.20576 227.19686 
L 79.38432 243.904131 
L 79.56288 221.883321 
L 79.74144 233.854756 
L 79.92 130.194914 
L 80.09856 246.270742 
L 80.27712 276.424925 
L 80.45568 201.292684 
L 80.63424 270.764918 
L 80.8128 232.794884 
L 80.99136 153.532656 
L 81.16992 238.328326 
L 81.34848 259.17178 
L 81.7056 151.026058 
L 81.88416 270.816633 
L 82.24128 96.467341 
L 82.41984 215.347047 
L 82.5984 227.956511 
L 82.77696 131.575356 
L 83.31264 278.958341 
L 83.4912 219.151441 
L 83.66976 199.041653 
L 83.84832 230.493668 
L 84.02688 199.67879 
L 84.20544 257.430551 
L 84.384 246.576854 
L 84.56256 262.700107 
L 84.74112 235.781714 
L 84.91968 236.905244 
L 85.09824 129.382708 
L 85.2768 241.084385 
L 85.45536 160.380867 
L 85.63392 176.832742 
L 85.81248 175.524041 
L 85.99104 258.545987 
L 86.1696 243.948379 
L 86.34816 257.958061 
L 86.52672 259.577035 
L 86.88384 111.128234 
L 87.41952 259.63276 
L 87.77664 174.240562 
L 87.9552 266.553558 
L 88.13376 209.426789 
L 88.31232 244.751806 
L 88.49088 251.833321 
L 88.66944 249.826507 
L 88.848 236.304597 
L 89.02656 235.912381 
L 89.20512 266.86566 
L 89.38368 156.342691 
L 89.56224 225.61787 
L 89.7408 201.550407 
L 89.91936 256.121024 
L 90.09792 198.930684 
L 90.45504 241.524923 
L 90.81216 156.673393 
L 90.99072 248.415752 
L 91.16928 228.536826 
L 91.34784 263.485118 
L 91.5264 154.121035 
L 91.70496 252.018187 
L 91.88352 236.831264 
L 92.06208 241.724659 
L 92.24064 240.360692 
L 92.4192 195.287615 
L 92.77632 270.145626 
L 92.95488 201.236975 
L 93.13344 232.508498 
L 93.312 239.978776 
L 93.49056 147.982005 
L 93.84768 284.64704 
L 94.2048 229.565541 
L 94.38336 259.9874 
L 94.56192 270.594525 
L 94.74048 270.310164 
L 94.91904 278.672684 
L 95.0976 236.169294 
L 95.27616 247.83937 
L 95.45472 193.278892 
L 95.63328 192.512639 
L 95.81184 226.952614 
L 95.9904 225.419327 
L 96.16896 246.652789 
L 96.34752 249.837001 
L 96.52608 223.730126 
L 96.70464 246.811052 
L 97.06176 153.707557 
L 97.24032 261.715178 
L 97.41888 249.399324 
L 97.59744 194.775858 
L 97.95456 285.408 
L 98.13312 239.534375 
L 98.31168 236.144672 
L 98.49024 243.012438 
L 98.6688 257.848321 
L 98.84736 148.13047 
L 99.02592 276.298486 
L 99.20448 250.919941 
L 99.38304 171.559045 
L 99.5616 201.131034 
L 99.74016 199.879767 
L 99.91872 252.048976 
L 100.09728 221.872413 
L 100.27584 252.201955 
L 100.4544 256.347649 
L 100.63296 256.712484 
L 100.81152 255.357051 
L 100.99008 249.295166 
L 101.16864 285.408 
L 101.3472 246.131165 
L 101.52576 244.371423 
L 101.70432 257.949003 
L 101.88288 283.41213 
L 102.06144 204.875981 
L 102.24 235.436703 
L 102.41856 179.80061 
L 102.77568 259.445343 
L 102.95424 262.603134 
L 103.31136 220.559404 
L 103.66848 247.669756 
L 103.84704 216.167553 
L 104.20416 263.104692 
L 104.38272 236.088157 
L 104.56128 261.213276 
L 104.73984 268.729558 
L 104.9184 213.492592 
L 105.09696 244.974844 
L 105.27552 229.72425 
L 105.45408 233.909812 
L 105.63264 247.546353 
L 105.8112 202.575898 
L 106.16832 222.236346 
L 106.34688 190.317622 
L 106.52544 196.853611 
L 106.704 216.019561 
L 106.88256 155.711857 
L 107.06112 224.467857 
L 107.23968 222.939419 
L 107.41824 254.000146 
L 108.13248 205.83585 
L 108.31104 252.293693 
L 108.66816 238.419855 
L 108.84672 239.777554 
L 109.02528 263.254273 
L 109.20384 166.968498 
L 109.3824 224.745773 
L 109.56096 234.433117 
L 109.73952 216.961213 
L 109.91808 283.749632 
L 110.2752 196.7815 
L 110.45376 238.213495 
L 110.63232 245.676543 
L 110.81088 175.60487 
L 110.98944 270.737173 
L 111.168 176.168982 
L 111.34656 244.411737 
L 111.70368 263.691825 
L 111.88224 262.486858 
L 112.0608 250.021586 
L 112.41792 216.551158 
L 112.59648 255.414801 
L 112.77504 258.602189 
L 112.9536 270.007688 
L 113.31072 208.318882 
L 113.48928 208.167232 
L 113.8464 255.676123 
L 114.02496 151.645934 
L 114.20352 233.27678 
L 114.56064 272.386966 
L 115.27488 203.126167 
L 115.632 241.261351 
L 115.81056 179.075126 
L 115.98912 242.421961 
L 116.16768 229.918618 
L 116.5248 137.686904 
L 116.70336 212.810544 
L 116.88192 192.830455 
L 117.06048 255.435216 
L 117.23904 275.589712 
L 117.4176 193.733996 
L 117.59616 280.231367 
L 117.77472 240.109149 
L 117.95328 156.698678 
L 118.13184 245.382728 
L 118.3104 135.282939 
L 118.48896 204.867966 
L 118.66752 228.311344 
L 118.84608 217.88491 
L 119.02464 257.892247 
L 119.2032 185.175647 
L 119.38176 194.98984 
L 119.56032 233.832099 
L 119.73888 233.607163 
L 119.91744 208.868149 
L 120.096 247.260367 
L 120.27456 228.016531 
L 120.45312 232.158783 
L 120.63168 214.319851 
L 120.81024 256.282063 
L 120.9888 197.527071 
L 121.16736 263.943344 
L 121.34592 208.235704 
L 121.70304 251.503356 
L 121.8816 191.330671 
L 122.06016 201.2735 
L 122.23872 249.961753 
L 122.41728 236.041046 
L 122.59584 159.68989 
L 122.7744 249.526639 
L 122.95296 247.071485 
L 123.13152 208.52398 
L 123.31008 216.901977 
L 123.48864 240.538547 
L 123.6672 218.970604 
L 123.84576 215.087568 
L 124.02432 265.181067 
L 124.20288 281.92023 
L 124.38144 200.293963 
L 124.56 214.751222 
L 124.73856 246.116283 
L 124.91712 248.813132 
L 125.09568 242.077517 
L 125.27424 246.978761 
L 125.4528 246.486715 
L 125.63136 235.278338 
L 125.80992 267.698618 
L 125.98848 248.653735 
L 126.16704 209.331847 
L 126.3456 202.11438 
L 126.52416 248.291809 
L 126.70272 220.955566 
L 126.88128 252.137591 
L 127.05984 167.394628 
L 127.41696 251.02653 
L 127.59552 267.924245 
L 127.77408 238.954777 
L 127.95264 232.615666 
L 128.1312 244.203893 
L 128.30976 222.95463 
L 128.48832 234.064904 
L 128.66688 234.876549 
L 128.84544 198.529346 
L 129.024 257.319066 
L 129.20256 262.85292 
L 129.38112 245.80661 
L 129.55968 210.086806 
L 129.73824 285.408 
L 129.9168 269.206861 
L 130.45248 142.733524 
L 130.63104 121.297812 
L 130.98816 255.949165 
L 131.16672 243.724221 
L 131.34528 183.238212 
L 131.52384 240.436327 
L 131.7024 204.361476 
L 131.88096 228.376914 
L 132.05952 172.242989 
L 132.23808 258.009377 
L 132.41664 194.088283 
L 132.5952 188.825545 
L 132.77376 246.507074 
L 132.95232 151.505552 
L 133.13088 138.061098 
L 133.30944 262.126056 
L 133.488 214.542445 
L 133.66656 197.649027 
L 133.84512 265.114302 
L 134.02368 255.177679 
L 134.20224 130.474572 
L 134.3808 229.90719 
L 134.55936 266.368597 
L 134.73792 264.47903 
L 134.91648 242.042033 
L 135.09504 255.454007 
L 135.2736 189.664002 
L 135.45216 263.284637 
L 135.63072 273.990783 
L 135.80928 251.882533 
L 135.98784 267.299807 
L 136.1664 140.995534 
L 136.70208 234.648465 
L 136.88064 225.848025 
L 137.0592 249.099493 
L 137.23776 236.693154 
L 137.41632 171.05324 
L 137.59488 242.646963 
L 137.77344 175.577459 
L 138.13056 285.408 
L 138.48768 229.664528 
L 138.66624 253.130719 
L 138.8448 260.315318 
L 139.02336 273.502177 
L 139.20192 228.136454 
L 139.38048 227.392289 
L 139.55904 249.356501 
L 139.91616 158.867251 
L 140.27328 250.190615 
L 140.45184 249.678976 
L 140.6304 237.461004 
L 140.80896 242.565028 
L 140.98752 218.159338 
L 141.16608 257.527317 
L 141.34464 261.455787 
L 141.5232 101.020089 
L 141.70176 214.986789 
L 141.88032 252.797617 
L 142.05888 214.818296 
L 142.23744 249.167113 
L 142.416 217.127203 
L 142.59456 137.042633 
L 142.77312 259.850986 
L 143.3088 282.539582 
L 143.66592 247.374902 
L 143.84448 254.447493 
L 144.02304 151.426085 
L 144.2016 209.765063 
L 144.38016 217.417032 
L 144.55872 255.991183 
L 144.73728 188.951598 
L 145.0944 275.491445 
L 145.27296 264.770853 
L 145.45152 178.045275 
L 145.63008 279.648606 
L 145.80864 185.461431 
L 145.9872 197.9963 
L 146.16576 175.840317 
L 146.34432 268.660402 
L 146.52288 226.685775 
L 146.70144 271.48013 
L 146.88 202.20274 
L 147.05856 193.55182 
L 147.23712 221.640206 
L 147.41568 221.246184 
L 147.7728 273.000473 
L 147.95136 199.849551 
L 148.12992 228.183238 
L 148.30848 276.473182 
L 148.48704 204.490328 
L 148.6656 230.41396 
L 148.84416 166.017048 
L 149.02272 235.957918 
L 149.20128 198.313282 
L 149.37984 274.978804 
L 149.91552 191.880949 
L 150.09408 233.143432 
L 150.4512 198.574601 
L 150.62976 210.314177 
L 150.80832 282.469005 
L 150.98688 203.200007 
L 151.344 222.724129 
L 151.52256 205.864408 
L 151.70112 267.998965 
L 151.87968 206.910046 
L 152.05824 243.492199 
L 152.2368 200.977436 
L 152.41536 274.787248 
L 152.77248 214.039442 
L 152.95104 226.944606 
L 153.1296 255.689303 
L 153.30816 157.228285 
L 153.48672 165.475741 
L 153.66528 160.996089 
L 154.0224 258.832094 
L 154.20096 260.997324 
L 154.37952 156.721849 
L 154.55808 246.014016 
L 154.73664 255.286964 
L 155.27232 173.022584 
L 155.45088 225.635369 
L 155.62944 234.276944 
L 155.808 221.217294 
L 155.98656 227.990436 
L 156.16512 254.213053 
L 156.34368 166.878689 
L 156.52224 274.636118 
L 156.7008 269.985535 
L 156.87936 194.884781 
L 157.05792 238.842079 
L 157.23648 232.333437 
L 157.41504 250.97319 
L 157.5936 204.440793 
L 157.77216 240.911547 
L 158.12928 153.253888 
L 158.30784 261.565273 
L 158.4864 256.253943 
L 158.66496 267.157452 
L 158.84352 247.338131 
L 159.02208 169.432325 
L 159.20064 285.408 
L 159.3792 241.516122 
L 159.55776 249.726438 
L 159.73632 142.821093 
L 160.09344 269.214002 
L 160.272 120.151729 
L 160.62912 227.271816 
L 160.80768 259.564155 
L 160.98624 174.942111 
L 161.34336 257.504616 
L 161.52192 277.186811 
L 161.70048 274.602897 
L 161.87904 196.301996 
L 162.0576 275.404132 
L 162.23616 216.43872 
L 162.59328 252.795548 
L 162.77184 218.147849 
L 162.9504 239.571533 
L 163.12896 205.216413 
L 163.48608 260.910136 
L 163.66464 252.674731 
L 163.8432 257.537656 
L 164.20032 189.515706 
L 164.37888 257.389451 
L 164.736 131.895086 
L 164.91456 115.636554 
L 165.27168 253.341763 
L 165.45024 249.254705 
L 165.6288 285.408 
L 165.80736 250.349545 
L 165.98592 280.774288 
L 166.34304 252.529811 
L 166.5216 199.444998 
L 166.70016 285.408 
L 166.87872 216.738211 
L 167.05728 261.4293 
L 167.23584 227.282791 
L 167.4144 244.217648 
L 167.59296 204.77328 
L 167.77152 222.617077 
L 167.95008 197.942458 
L 168.12864 235.962227 
L 168.3072 186.664451 
L 169.02144 253.495199 
L 169.2 201.868248 
L 169.37856 191.593837 
L 169.55712 252.76681 
L 169.73568 163.4738 
L 169.91424 278.92275 
L 170.0928 178.894645 
L 170.27136 235.311992 
L 170.44992 213.073147 
L 170.62848 264.076052 
L 170.80704 250.790024 
L 170.9856 203.408468 
L 171.34272 266.312332 
L 171.52128 265.91921 
L 171.69984 222.268316 
L 171.8784 213.878344 
L 172.05696 265.317025 
L 172.41408 246.839939 
L 172.59264 242.026254 
L 172.7712 260.95565 
L 172.94976 210.313734 
L 173.12832 262.073824 
L 173.48544 157.235662 
L 173.664 232.30001 
L 173.84256 252.569719 
L 174.02112 121.331247 
L 174.19968 250.824156 
L 174.37824 201.313048 
L 174.5568 238.466386 
L 174.73536 223.9309 
L 174.91392 244.116838 
L 175.09248 233.13506 
L 175.27104 244.94443 
L 175.4496 186.198847 
L 175.62816 260.577904 
L 175.80672 225.925497 
L 175.98528 219.689918 
L 176.16384 283.952276 
L 176.3424 238.272609 
L 176.52096 244.822462 
L 176.69952 228.482563 
L 177.05664 262.786374 
L 177.2352 204.466963 
L 177.41376 191.186298 
L 177.77088 234.485696 
L 177.94944 247.393874 
L 178.128 251.748088 
L 178.30656 259.030888 
L 178.48512 279.337081 
L 178.66368 214.723893 
L 178.84224 249.315054 
L 179.0208 220.343344 
L 179.19936 274.003525 
L 179.37792 277.147918 
L 179.55648 265.610743 
L 179.73504 211.512458 
L 179.9136 267.436596 
L 180.09216 228.739275 
L 180.27072 143.025866 
L 180.44928 187.108346 
L 180.62784 260.810839 
L 180.8064 199.077671 
L 180.98496 252.032117 
L 181.16352 214.151727 
L 181.34208 262.779931 
L 181.52064 223.189872 
L 181.6992 222.910348 
L 181.87776 248.839446 
L 182.05632 248.919601 
L 182.23488 240.856643 
L 182.41344 275.2531 
L 182.592 235.733483 
L 182.77056 270.920766 
L 182.94912 241.114341 
L 183.12768 257.71072 
L 183.30624 258.031704 
L 183.4848 154.913844 
L 183.66336 267.679097 
L 183.84192 253.43856 
L 184.02048 275.10367 
L 184.19904 259.14631 
L 184.3776 253.251937 
L 184.55616 154.790865 
L 184.73472 155.354464 
L 184.91328 237.341623 
L 185.2704 168.688439 
L 185.62752 269.886333 
L 186.1632 170.697007 
L 186.52032 238.296485 
L 186.69888 229.406892 
L 186.87744 208.965971 
L 187.056 209.338253 
L 187.23456 247.256306 
L 187.41312 248.838998 
L 187.59168 266.106992 
L 187.77024 246.610505 
L 187.9488 267.129523 
L 188.12736 171.315934 
L 188.30592 152.593749 
L 188.66304 249.740181 
L 188.8416 246.896753 
L 189.02016 264.816007 
L 189.19872 226.276524 
L 189.37728 217.527603 
L 189.55584 257.128285 
L 189.7344 254.769481 
L 189.91296 275.224706 
L 190.09152 131.487184 
L 190.27008 210.464307 
L 190.44864 199.89512 
L 190.80576 219.841155 
L 190.98432 265.442392 
L 191.16288 249.928495 
L 191.34144 251.818716 
L 191.52 227.891135 
L 191.69856 162.581373 
L 191.87712 231.638109 
L 192.05568 153.452947 
L 192.4128 166.090382 
L 192.59136 263.793378 
L 192.76992 242.509331 
L 192.94848 236.668982 
L 193.12704 279.719325 
L 193.3056 285.408 
L 193.48416 238.030413 
L 193.66272 227.460281 
L 194.1984 273.217112 
L 194.37696 239.94004 
L 194.55552 266.956912 
L 194.73408 215.072166 
L 194.91264 263.192872 
L 195.0912 250.548081 
L 195.26976 154.964451 
L 195.44832 250.635276 
L 195.62688 185.345381 
L 195.80544 182.074298 
L 195.984 263.700333 
L 196.16256 208.544387 
L 196.34112 203.064644 
L 196.51968 226.921626 
L 196.8768 133.57029 
L 197.05536 133.196267 
L 197.23392 214.826571 
L 197.41248 223.731962 
L 197.59104 239.288709 
L 197.7696 213.095069 
L 198.12672 245.703031 
L 198.30528 261.45067 
L 198.48384 165.872681 
L 198.6624 247.368488 
L 198.84096 275.537144 
L 199.01952 230.436709 
L 199.19808 281.901329 
L 199.37664 234.807756 
L 199.5552 251.624914 
L 199.73376 223.023807 
L 199.91232 249.525131 
L 200.09088 168.475122 
L 200.26944 212.77217 
L 200.448 226.436792 
L 200.62656 272.16618 
L 200.80512 269.979163 
L 200.98368 248.362917 
L 201.16224 206.08841 
L 201.69792 259.2035 
L 201.87648 239.372453 
L 202.05504 271.464675 
L 202.2336 215.822469 
L 202.41216 216.161801 
L 202.59072 237.654315 
L 202.76928 235.016555 
L 202.94784 254.458996 
L 203.1264 222.949688 
L 203.30496 216.0129 
L 203.48352 258.359789 
L 203.66208 270.419074 
L 203.84064 257.232961 
L 204.0192 182.534317 
L 204.19776 243.893617 
L 204.37632 240.826897 
L 204.55488 243.340867 
L 204.73344 275.234665 
L 204.912 190.455015 
L 205.09056 269.991105 
L 205.26912 198.562208 
L 205.44768 269.429424 
L 205.62624 175.343928 
L 205.8048 240.843945 
L 205.98336 252.855742 
L 206.34048 210.628169 
L 206.6976 279.657261 
L 206.87616 164.831202 
L 207.05472 247.110613 
L 207.23328 268.795606 
L 207.41184 264.666241 
L 207.5904 241.692971 
L 207.76896 164.928446 
L 207.94752 193.829167 
L 208.12608 267.199946 
L 208.30464 204.284149 
L 208.84032 263.407799 
L 209.01888 217.222965 
L 209.19744 278.651937 
L 209.376 263.944595 
L 209.55456 216.234687 
L 209.73312 211.292774 
L 209.91168 179.610569 
L 210.09024 177.919193 
L 210.2688 203.177461 
L 210.44736 174.60249 
L 210.62592 166.827214 
L 210.98304 231.262006 
L 211.1616 207.436728 
L 211.34016 230.329617 
L 211.51872 152.607643 
L 211.69728 189.326894 
L 211.87584 144.287644 
L 212.0544 253.70824 
L 212.23296 250.88867 
L 212.41152 197.065683 
L 212.59008 266.983765 
L 212.76864 249.674371 
L 213.12576 190.22253 
L 213.30432 189.864108 
L 213.48288 187.578699 
L 213.84 285.408 
L 214.01856 243.485778 
L 214.37568 257.367091 
L 214.7328 199.223431 
L 214.91136 214.062646 
L 215.08992 255.229138 
L 215.26848 208.440848 
L 215.44704 237.72105 
L 215.6256 191.891908 
L 215.80416 192.145629 
L 215.98272 265.081399 
L 216.16128 263.732536 
L 216.33984 245.050644 
L 216.5184 244.962123 
L 216.87552 163.937417 
L 217.05408 209.658176 
L 217.23264 214.603303 
L 217.4112 240.333572 
L 217.58976 193.891528 
L 217.94688 268.19263 
L 218.12544 197.715353 
L 218.304 232.826766 
L 218.48256 166.413956 
L 218.66112 170.178103 
L 218.83968 268.286169 
L 219.01824 244.739371 
L 219.1968 260.992643 
L 219.37536 240.122448 
L 219.55392 242.547762 
L 219.73248 146.743153 
L 219.91104 159.54699 
L 220.0896 234.491603 
L 220.26816 253.577753 
L 220.44672 164.846562 
L 220.62528 196.169373 
L 220.80384 257.013016 
L 220.9824 248.028353 
L 221.16096 180.571082 
L 221.33952 198.110525 
L 221.51808 200.725884 
L 221.69664 208.515205 
L 221.8752 264.646179 
L 222.05376 273.63413 
L 222.23232 160.08337 
L 222.41088 173.541958 
L 222.58944 242.830345 
L 222.768 203.360035 
L 222.94656 269.665985 
L 223.12512 262.723682 
L 223.30368 204.133735 
L 223.48224 182.191207 
L 223.6608 239.172293 
L 223.83936 256.905781 
L 224.19648 234.664234 
L 224.37504 269.093483 
L 224.5536 237.156781 
L 224.73216 262.312913 
L 224.91072 253.810741 
L 225.08928 233.620546 
L 225.26784 261.477466 
L 225.4464 163.431394 
L 225.62496 269.596568 
L 225.80352 176.230554 
L 225.98208 186.671708 
L 226.16064 213.458239 
L 226.3392 174.711113 
L 226.51776 208.544983 
L 226.69632 193.898884 
L 227.05344 229.176812 
L 227.232 255.59336 
L 227.76768 225.365101 
L 227.94624 188.813144 
L 228.30336 257.75799 
L 228.66048 228.683001 
L 228.83904 230.258297 
L 229.0176 248.865563 
L 229.37472 195.678869 
L 229.55328 253.35662 
L 229.73184 211.455331 
L 229.9104 214.05563 
L 230.26752 192.499858 
L 230.44608 239.960422 
L 230.98176 172.754969 
L 231.16032 241.909286 
L 231.33888 191.022609 
L 231.696 254.576593 
L 231.87456 231.696463 
L 232.05312 258.597488 
L 232.5888 181.532345 
L 232.76736 146.984101 
L 232.94592 222.041033 
L 233.12448 228.054968 
L 233.30304 229.026378 
L 233.4816 248.276985 
L 233.66016 234.946066 
L 234.01728 154.88251 
L 234.19584 238.228101 
L 234.3744 257.039872 
L 234.55296 263.564102 
L 234.73152 216.624973 
L 234.91008 285.408 
L 235.2672 216.944623 
L 235.44576 272.475231 
L 235.62432 276.446457 
L 235.80288 121.364739 
L 236.16 256.224274 
L 236.33856 254.325394 
L 236.51712 273.62505 
L 236.87424 204.696606 
L 237.0528 235.562573 
L 237.23136 150.779235 
L 237.40992 230.093545 
L 237.58848 252.166356 
L 237.76704 245.075663 
L 237.9456 156.138946 
L 238.12416 250.547501 
L 238.30272 269.290197 
L 238.48128 186.028397 
L 238.65984 269.61114 
L 238.8384 255.293137 
L 239.19552 215.650823 
L 239.37408 240.62569 
L 239.55264 203.212594 
L 239.7312 263.285456 
L 239.90976 263.767182 
L 240.08832 250.331103 
L 240.26688 257.857804 
L 240.44544 206.952956 
L 240.624 255.237102 
L 240.80256 240.955321 
L 240.98112 251.153344 
L 241.33824 205.680972 
L 241.5168 252.965097 
L 241.69536 223.78896 
L 241.87392 277.126095 
L 242.05248 216.497963 
L 242.23104 238.052286 
L 242.4096 163.302858 
L 242.58816 230.712272 
L 242.76672 184.579185 
L 242.94528 183.760344 
L 243.12384 241.584062 
L 243.3024 170.75771 
L 243.48096 258.692893 
L 243.65952 164.075989 
L 243.83808 198.276639 
L 244.01664 173.304953 
L 244.1952 239.000793 
L 244.37376 159.434041 
L 244.55232 263.048313 
L 244.73088 280.276403 
L 244.90944 181.480614 
L 245.088 253.583112 
L 245.26656 215.022251 
L 245.44512 262.752989 
L 245.62368 276.486082 
L 245.80224 253.111345 
L 245.9808 245.87561 
L 246.15936 257.091214 
L 246.33792 276.986795 
L 246.51648 204.028926 
L 246.69504 179.529715 
L 246.8736 270.387001 
L 247.05216 181.629597 
L 247.23072 254.364466 
L 247.40928 274.554185 
L 247.58784 203.479231 
L 247.7664 263.640638 
L 247.94496 191.558952 
L 248.30208 253.418027 
L 248.48064 228.536852 
L 248.6592 156.435594 
L 248.83776 271.224978 
L 249.19488 207.149102 
L 249.37344 213.923159 
L 249.73056 259.611005 
L 249.90912 258.923408 
L 250.08768 243.17983 
L 250.4448 193.022034 
L 250.62336 240.759455 
L 250.80192 243.165009 
L 251.15904 224.757452 
L 251.3376 189.178154 
L 251.51616 241.169072 
L 251.69472 254.28544 
L 251.87328 254.713828 
L 252.05184 181.362351 
L 252.2304 218.27902 
L 252.40896 174.833016 
L 252.58752 176.134542 
L 252.76608 194.556508 
L 252.94464 266.047316 
L 253.1232 256.91946 
L 253.30176 195.942031 
L 253.48032 214.989665 
L 253.65888 251.36256 
L 253.83744 227.071966 
L 254.016 218.798474 
L 254.19456 233.241635 
L 254.37312 235.206777 
L 254.55168 214.14833 
L 254.73024 269.013248 
L 254.9088 233.499313 
L 255.08736 232.044994 
L 255.44448 264.295338 
L 255.62304 261.06153 
L 255.98016 169.882059 
L 256.33728 213.176557 
L 256.51584 215.821469 
L 256.6944 246.077969 
L 256.87296 230.338949 
L 257.05152 243.188802 
L 257.40864 191.142944 
L 257.5872 273.003364 
L 257.76576 246.65397 
L 257.94432 167.618129 
L 258.12288 196.294789 
L 258.30144 257.887624 
L 258.48 210.590851 
L 258.65856 265.923045 
L 258.83712 219.602398 
L 259.01568 230.291547 
L 259.19424 252.832901 
L 259.3728 217.751347 
L 259.55136 231.951242 
L 259.72992 261.948221 
L 259.90848 195.614034 
L 260.08704 261.403641 
L 260.2656 257.785007 
L 260.44416 202.950247 
L 260.62272 217.281589 
L 260.80128 262.367823 
L 260.97984 221.317661 
L 261.1584 258.619567 
L 261.33696 254.375379 
L 261.51552 159.903355 
L 261.69408 251.966736 
L 262.0512 180.619874 
L 262.22976 257.582323 
L 262.40832 174.643152 
L 262.58688 263.691213 
L 262.76544 139.564244 
L 262.944 238.777143 
L 263.12256 240.667018 
L 263.30112 266.672894 
L 263.47968 232.193608 
L 263.65824 169.53485 
L 263.8368 275.851921 
L 264.01536 255.550112 
L 264.19392 164.923992 
L 264.37248 166.202936 
L 264.55104 232.410247 
L 264.7296 251.400277 
L 264.90816 207.923711 
L 265.08672 198.321618 
L 265.26528 262.521185 
L 265.6224 222.653196 
L 265.80096 238.197714 
L 265.97952 157.96555 
L 266.15808 137.740155 
L 266.5152 271.535553 
L 266.69376 199.657669 
L 266.87232 222.880109 
L 267.05088 270.150041 
L 267.58656 102.100303 
L 267.76512 253.434578 
L 267.94368 273.446502 
L 268.12224 180.319921 
L 268.3008 163.996404 
L 268.47936 259.659388 
L 268.65792 240.669457 
L 268.83648 257.913733 
L 269.01504 238.657621 
L 269.1936 254.238005 
L 269.37216 221.952408 
L 269.55072 257.104179 
L 269.90784 167.613087 
L 270.0864 250.481825 
L 270.26496 248.400328 
L 270.44352 205.484815 
L 270.62208 267.990668 
L 270.80064 168.997244 
L 270.9792 232.857225 
L 271.15776 212.449507 
L 271.33632 249.133632 
L 271.51488 255.192237 
L 271.69344 148.775273 
L 271.872 281.631586 
L 272.05056 199.926339 
L 272.22912 202.58239 
L 272.40768 233.948644 
L 272.58624 122.682408 
L 272.7648 253.074605 
L 272.94336 237.100784 
L 273.12192 244.151436 
L 273.30048 278.572641 
L 273.47904 218.872222 
L 273.6576 257.389501 
L 273.83616 242.879024 
L 274.01472 266.794724 
L 274.19328 230.289972 
L 274.37184 232.462923 
L 274.5504 249.023149 
L 274.72896 189.825859 
L 274.90752 224.969363 
L 275.08608 227.770636 
L 275.62176 197.93614 
L 275.80032 281.244955 
L 275.97888 199.022639 
L 276.15744 215.848533 
L 276.336 246.166599 
L 276.69312 223.963846 
L 276.87168 253.965045 
L 277.05024 227.674955 
L 277.2288 222.626012 
L 277.40736 201.122491 
L 277.58592 247.426809 
L 277.76448 109.192103 
L 277.94304 158.701422 
L 278.1216 260.961254 
L 278.30016 239.834216 
L 278.47872 244.979063 
L 278.65728 245.632011 
L 278.83584 180.341436 
L 279.0144 192.663033 
L 279.37152 255.39421 
L 279.55008 254.972374 
L 279.72864 133.217854 
L 279.9072 202.09361 
L 280.08576 226.030874 
L 280.26432 201.327991 
L 280.62144 267.071665 
L 280.8 262.649659 
L 280.97856 160.422318 
L 281.33568 249.759515 
L 281.51424 257.341472 
L 281.6928 272.958497 
L 281.87136 250.268397 
L 282.04992 272.130496 
L 282.22848 254.895772 
L 282.40704 259.108216 
L 282.5856 142.349522 
L 282.94272 257.004483 
L 283.12128 263.207495 
L 283.65696 251.50853 
L 284.01408 183.487495 
L 284.19264 231.702516 
L 284.3712 202.405667 
L 284.54976 63.648 
L 284.72832 247.863161 
L 284.90688 242.828915 
L 285.08544 135.635135 
L 285.264 262.604424 
L 285.44256 222.482043 
L 285.62112 261.513845 
L 285.79968 247.954612 
L 285.97824 256.339886 
L 286.1568 247.355106 
L 286.33536 246.580261 
L 286.51392 225.620854 
L 286.69248 242.744326 
L 286.87104 111.953626 
L 287.0496 261.703805 
L 287.40672 247.456463 
L 287.58528 246.41561 
L 287.76384 232.055638 
L 288.12096 265.507452 
L 288.47808 256.044372 
L 288.8352 276.135247 
L 289.01376 195.226858 
L 289.19232 250.570671 
L 289.37088 190.472059 
L 289.54944 197.478342 
L 289.728 255.594438 
L 289.90656 256.080051 
L 290.08512 133.364565 
L 290.26368 118.636258 
L 290.6208 251.277306 
L 290.79936 235.015777 
L 290.97792 128.101989 
L 291.33504 241.883696 
L 291.5136 232.925281 
L 291.69216 278.937702 
L 291.87072 214.095697 
L 292.22784 267.921964 
L 292.4064 230.712093 
L 292.58496 239.969092 
L 292.76352 263.22892 
L 293.12064 148.693601 
L 293.2992 157.856326 
L 293.47776 264.63706 
L 293.65632 175.675483 
L 293.83488 250.084422 
L 294.01344 213.311864 
L 294.192 271.442196 
L 294.37056 176.605129 
L 294.54912 259.966792 
L 294.72768 262.079657 
L 294.90624 223.927152 
L 295.0848 278.542246 
L 295.26336 273.716069 
L 295.44192 262.75984 
L 295.62048 131.244456 
L 295.79904 264.296404 
L 295.9776 241.835389 
L 296.15616 183.712958 
L 296.33472 209.264791 
L 296.51328 197.438044 
L 296.69184 246.148558 
L 296.8704 206.125143 
L 297.22752 266.264305 
L 297.40608 164.071686 
L 297.58464 172.111004 
L 297.7632 149.729416 
L 297.94176 252.037913 
L 298.12032 251.120366 
L 298.47744 151.677694 
L 298.656 270.298829 
L 298.83456 245.6897 
L 299.01312 261.656726 
L 299.37024 186.541716 
L 299.5488 255.988182 
L 299.72736 261.371711 
L 300.08448 218.124274 
L 300.26304 220.42873 
L 300.4416 227.366795 
L 300.62016 194.491624 
L 300.79872 242.225683 
L 300.97728 240.446018 
L 301.15584 231.697237 
L 301.3344 229.918268 
L 301.51296 158.476671 
L 301.69152 174.343401 
L 301.87008 214.185356 
L 302.04864 198.524977 
L 302.2272 250.845832 
L 302.40576 261.196799 
L 302.58432 259.732254 
L 302.76288 213.38876 
L 302.94144 216.33835 
L 303.12 170.609256 
L 303.29856 175.012778 
L 303.47712 260.537875 
L 303.65568 237.746712 
L 303.83424 256.026215 
L 304.0128 189.971244 
L 304.19136 228.055136 
L 304.54848 224.904836 
L 304.72704 191.45906 
L 304.9056 243.789152 
L 305.08416 260.275291 
L 305.26272 187.818154 
L 305.44128 180.443439 
L 305.61984 256.627693 
L 305.7984 259.14702 
L 305.97696 213.129006 
L 306.15552 237.62598 
L 306.33408 221.184076 
L 306.51264 173.973468 
L 306.6912 207.791246 
L 306.86976 217.573839 
L 307.04832 258.810131 
L 307.22688 220.120143 
L 307.40544 233.87737 
L 307.584 197.577895 
L 307.76256 213.005158 
L 307.94112 138.01613 
L 308.11968 252.384639 
L 308.29824 199.622944 
L 308.4768 256.905492 
L 308.65536 207.298199 
L 309.01248 183.874688 
L 309.19104 204.174199 
L 309.3696 154.448615 
L 309.54816 240.793544 
L 309.72672 269.304294 
L 310.08384 233.235323 
L 310.2624 247.969414 
L 310.44096 130.844047 
L 310.97664 274.406402 
L 311.1552 186.794996 
L 311.33376 261.389076 
L 311.51232 227.293804 
L 311.69088 276.201369 
L 311.86944 247.936671 
L 312.22656 284.703598 
L 312.40512 248.461996 
L 312.58368 274.634947 
L 312.76224 244.046082 
L 312.9408 239.831187 
L 313.11936 255.762655 
L 313.29792 197.295049 
L 313.47648 235.738605 
L 313.65504 213.299659 
L 313.8336 253.58201 
L 314.01216 263.914798 
L 314.19072 222.399487 
L 314.36928 250.45134 
L 314.7264 208.595437 
L 314.90496 245.162312 
L 315.08352 219.767083 
L 315.26208 272.649276 
L 315.6192 177.402794 
L 315.79776 217.496087 
L 315.97632 207.204886 
L 316.33344 243.398828 
L 316.512 212.716621 
L 316.69056 250.85727 
L 316.86912 261.41927 
L 317.04768 212.326138 
L 317.4048 171.433796 
L 317.58336 191.43086 
L 317.76192 249.692507 
L 317.94048 221.192384 
L 318.11904 266.308628 
L 318.2976 162.589777 
L 318.65472 241.282869 
L 318.83328 218.917011 
L 319.01184 236.22832 
L 319.1904 210.366537 
L 319.36896 250.923161 
L 319.54752 240.223389 
L 319.72608 194.689764 
L 320.0832 248.731123 
L 320.26176 238.292305 
L 320.44032 263.997032 
L 320.976 219.028794 
L 321.15456 257.524307 
L 321.33312 198.478109 
L 321.51168 247.669913 
L 321.69024 259.113938 
L 322.04736 146.495567 
L 322.40448 271.924409 
L 322.58304 247.013833 
L 322.7616 258.406536 
L 322.94016 194.939599 
L 323.29728 258.11189 
L 323.47584 216.137147 
L 323.6544 237.997475 
L 323.83296 185.378588 
L 324.01152 250.148702 
L 324.19008 255.64619 
L 324.36864 191.501059 
L 324.72576 214.044803 
L 324.90432 242.703389 
L 325.08288 223.427245 
L 325.26144 262.803524 
L 325.44 255.238645 
L 325.79712 162.180825 
L 325.97568 245.472239 
L 326.15424 262.123139 
L 326.3328 267.750716 
L 326.51136 237.470783 
L 326.68992 232.16367 
L 326.86848 260.478533 
L 327.04704 267.789197 
L 327.2256 259.967508 
L 327.40416 267.67156 
L 327.58272 131.102614 
L 327.76128 260.754125 
L 328.1184 192.087482 
L 328.47552 269.521365 
L 328.65408 226.625855 
L 328.83264 258.69936 
L 329.0112 231.840784 
L 329.18976 240.167351 
L 329.36832 157.840769 
L 329.72544 159.969395 
L 329.904 207.964801 
L 330.08256 226.056287 
L 330.26112 144.891812 
L 330.43968 271.336562 
L 330.61824 236.948064 
L 330.97536 272.392599 
L 331.15392 251.358375 
L 331.33248 266.864324 
L 331.51104 146.796599 
L 331.6896 258.725791 
L 331.86816 165.614574 
L 332.04672 239.360759 
L 332.22528 187.93327 
L 332.5824 204.822792 
L 332.76096 254.10531 
L 332.93952 193.547647 
L 333.11808 198.744486 
L 333.29664 243.170675 
L 333.4752 253.439458 
L 333.65376 224.201251 
L 333.83232 242.599539 
L 334.01088 194.36339 
L 334.18944 200.62876 
L 334.368 227.458987 
L 334.54656 211.341292 
L 334.72512 227.715057 
L 334.90368 233.753893 
L 335.08224 250.450842 
L 335.2608 97.768533 
L 335.43936 263.093811 
L 335.61792 226.512927 
L 335.79648 244.069103 
L 335.97504 201.545883 
L 336.33216 241.048009 
L 336.51072 180.516061 
L 336.68928 204.422869 
L 336.86784 203.556062 
L 337.0464 268.601413 
L 337.22496 246.475207 
L 337.40352 208.137122 
L 337.58208 201.085185 
L 337.76064 247.623495 
L 338.11776 224.896714 
L 338.29632 270.615535 
L 338.47488 266.341008 
L 338.65344 217.239055 
L 338.832 275.237193 
L 339.01056 229.779327 
L 339.18912 275.142478 
L 339.36768 206.067323 
L 339.54624 263.530132 
L 339.7248 232.870562 
L 339.90336 124.971539 
L 340.08192 243.114421 
L 340.26048 262.016314 
L 340.43904 194.630373 
L 340.6176 188.411991 
L 340.97472 256.607355 
L 341.33184 193.163208 
L 341.5104 99.317072 
L 341.68896 247.461769 
L 341.86752 262.799516 
L 342.04608 243.257221 
L 342.22464 237.686572 
L 342.4032 259.908997 
L 342.58176 246.334208 
L 342.76032 282.949421 
L 343.11744 218.389691 
L 343.296 179.981919 
L 343.47456 233.916824 
L 343.65312 239.538312 
L 343.83168 233.795281 
L 344.01024 128.136145 
L 344.1888 172.783396 
L 344.36736 264.79847 
L 344.54592 182.714271 
L 344.72448 260.148976 
L 344.90304 278.473529 
L 345.0816 214.679245 
L 345.26016 215.688093 
L 345.43872 208.018286 
L 345.61728 156.085249 
L 345.79584 234.137975 
L 345.9744 253.834405 
L 346.15296 260.552468 
L 346.33152 209.545746 
L 346.68864 271.656878 
L 346.8672 265.274818 
L 347.04576 279.511328 
L 347.22432 255.415701 
L 347.40288 90.023249 
L 347.58144 240.248014 
L 347.76 154.445992 
L 348.11712 198.245218 
L 348.29568 163.017527 
L 348.47424 239.712701 
L 349.00992 200.058314 
L 349.18848 244.296741 
L 349.5456 155.513772 
L 349.90272 261.555655 
L 350.25984 184.292572 
L 350.61696 258.487376 
L 350.79552 279.249369 
L 350.97408 232.304967 
L 351.15264 281.054406 
L 351.50976 204.576688 
L 351.68832 190.046863 
L 351.86688 185.150083 
L 352.04544 217.505858 
L 352.224 209.26387 
L 352.40256 259.461344 
L 352.58112 217.898372 
L 352.75968 266.228413 
L 352.93824 156.059586 
L 353.1168 234.689968 
L 353.47392 269.882395 
L 353.65248 240.729609 
L 353.83104 232.788864 
L 354.0096 129.096336 
L 354.36672 159.124011 
L 354.54528 223.050004 
L 354.72384 235.119597 
L 354.9024 108.906887 
L 355.08096 223.978121 
L 355.25952 223.505418 
L 355.43808 265.129679 
L 355.61664 250.112807 
L 355.7952 145.482327 
L 356.15232 259.70211 
L 356.33088 115.356021 
L 356.50944 197.768787 
L 356.688 221.431347 
L 356.86656 201.565592 
L 357.04512 249.246655 
L 357.22368 225.252448 
L 357.40224 259.721407 
L 357.5808 266.462117 
L 357.75936 215.516444 
L 358.11648 256.899653 
L 358.29504 263.86771 
L 358.4736 238.682456 
L 358.65216 186.983888 
L 358.83072 277.361155 
L 359.00928 206.224453 
L 359.18784 213.683634 
L 359.3664 248.724338 
L 359.54496 186.353082 
L 359.72352 258.142644 
L 359.90208 270.152479 
L 360.08064 244.490283 
L 360.2592 258.356073 
L 360.43776 244.636765 
L 360.61632 160.819345 
L 360.79488 260.484355 
L 360.97344 242.322409 
L 361.152 263.006685 
L 361.33056 265.078432 
L 361.50912 215.18672 
L 361.68768 257.374475 
L 361.86624 239.978076 
L 362.0448 184.455857 
L 362.22336 199.64427 
L 362.40192 242.269423 
L 362.58048 248.235286 
L 362.75904 259.879788 
L 362.9376 166.438387 
L 363.11616 232.062425 
L 363.29472 235.364032 
L 363.65184 268.542519 
L 363.8304 202.456035 
L 364.00896 195.812385 
L 364.18752 279.27099 
L 364.36608 221.37662 
L 364.54464 239.489403 
L 364.7232 108.049199 
L 364.90176 262.073782 
L 365.08032 258.437565 
L 365.25888 102.578575 
L 365.43744 230.232273 
L 365.616 244.305618 
L 365.79456 216.651154 
L 365.97312 256.022787 
L 366.15168 252.25501 
L 366.33024 210.127937 
L 366.5088 259.082791 
L 366.68736 197.48609 
L 366.86592 261.363451 
L 367.04448 237.953539 
L 367.4016 120.17579 
L 367.58016 212.744447 
L 367.75872 189.627432 
L 367.93728 256.579242 
L 368.11584 207.806405 
L 368.47296 236.136098 
L 368.65152 210.002933 
L 368.83008 217.188067 
L 369.00864 146.73555 
L 369.1872 260.965903 
L 369.36576 248.435196 
L 369.54432 167.683597 
L 369.72288 245.30697 
L 369.90144 255.684294 
L 370.08 168.000959 
L 370.25856 150.880133 
L 370.43712 251.625657 
L 370.61568 249.770434 
L 370.79424 210.544161 
L 370.9728 242.893476 
L 371.15136 244.415105 
L 371.32992 231.1564 
L 371.50848 259.928421 
L 371.68704 128.42563 
L 372.04416 276.476266 
L 372.22272 245.305578 
L 372.40128 260.256969 
L 372.57984 247.623291 
L 372.7584 225.657612 
L 372.93696 232.542962 
L 373.29408 281.746212 
L 373.47264 256.839105 
L 373.6512 107.060885 
L 373.82976 219.988079 
L 374.00832 248.330133 
L 374.18688 231.988548 
L 374.36544 261.721054 
L 374.544 157.717436 
L 374.72256 258.606925 
L 374.90112 268.10467 
L 375.25824 208.139542 
L 375.4368 181.568154 
L 375.61536 262.26084 
L 375.79392 263.976883 
L 375.97248 229.432315 
L 376.15104 249.052118 
L 376.3296 247.583249 
L 376.50816 174.06326 
L 376.68672 183.60366 
L 376.86528 252.495381 
L 377.04384 241.805271 
L 377.2224 241.29119 
L 377.40096 228.010132 
L 377.57952 268.230601 
L 377.75808 245.566694 
L 377.93664 283.464481 
L 378.1152 254.810258 
L 378.29376 246.136798 
L 378.47232 231.872474 
L 378.65088 204.803309 
L 379.008 239.752711 
L 379.18656 254.544812 
L 379.36512 233.989584 
L 379.54368 256.649939 
L 379.72224 211.291529 
L 379.9008 260.533691 
L 380.07936 256.102307 
L 380.25792 241.610594 
L 380.43648 269.806854 
L 380.61504 251.434083 
L 380.7936 167.602936 
L 380.97216 233.599109 
L 381.15072 180.255128 
L 381.32928 267.179643 
L 381.50784 219.785754 
L 381.6864 235.155696 
L 381.86496 216.410641 
L 382.22208 214.226761 
L 382.40064 275.441339 
L 382.5792 226.56973 
L 383.11488 257.671962 
L 383.29344 167.232962 
L 383.472 260.125886 
L 383.65056 185.25451 
L 383.82912 258.991742 
L 384.00768 278.63154 
L 384.18624 206.480392 
L 384.54336 269.051209 
L 384.72192 208.956818 
L 384.90048 234.490445 
L 385.07904 189.633684 
L 385.2576 223.230649 
L 385.43616 232.87795 
L 385.61472 251.054508 
L 385.79328 202.308543 
L 385.97184 241.243874 
L 386.1504 240.851043 
L 386.32896 189.788752 
L 386.50752 253.132026 
L 386.68608 262.219403 
L 386.86464 260.897347 
L 387.0432 234.357003 
L 387.22176 247.216565 
L 387.40032 229.049936 
L 387.57888 281.536119 
L 387.75744 175.774199 
L 388.11456 243.442603 
L 388.29312 151.089364 
L 388.47168 250.985053 
L 388.65024 232.438661 
L 388.8288 266.327829 
L 389.00736 207.383722 
L 389.18592 216.684135 
L 389.36448 235.447172 
L 389.54304 218.928224 
L 389.7216 246.310894 
L 389.90016 240.808398 
L 390.07872 267.427442 
L 390.43584 176.24353 
L 390.6144 257.647798 
L 390.97152 217.444727 
L 391.15008 239.553839 
L 391.32864 148.077275 
L 391.86432 245.866219 
L 392.04288 253.017488 
L 392.4 216.815559 
L 392.57856 251.146701 
L 392.75712 258.713127 
L 392.93568 238.670629 
L 393.11424 190.626968 
L 393.2928 243.530306 
L 393.47136 248.372099 
L 393.64992 248.233071 
L 393.82848 244.332922 
L 394.00704 247.468563 
L 394.1856 138.279557 
L 394.36416 224.861979 
L 394.72128 272.083244 
L 394.89984 192.756167 
L 395.0784 186.284747 
L 395.25696 226.735786 
L 395.43552 231.129532 
L 395.61408 274.301214 
L 395.79264 195.358698 
L 396.14976 240.585125 
L 396.32832 116.281931 
L 396.50688 244.661439 
L 396.68544 227.157894 
L 396.864 255.059192 
L 397.04256 241.300448 
L 397.22112 146.009864 
L 397.39968 208.716472 
L 397.57824 201.37892 
L 397.7568 245.135974 
L 397.93536 139.645959 
L 398.11392 162.038782 
L 398.29248 229.282348 
L 398.6496 209.276544 
L 398.82816 216.633387 
L 399.00672 164.295158 
L 399.18528 150.824909 
L 399.36384 260.51653 
L 399.5424 271.72898 
L 399.72096 197.545642 
L 399.89952 181.054964 
L 400.07808 241.508977 
L 400.25664 205.052972 
L 400.4352 220.490644 
L 400.61376 214.087534 
L 400.79232 260.778836 
L 400.97088 246.160523 
L 401.14944 258.104529 
L 401.328 165.410716 
L 401.50656 257.518451 
L 401.68512 166.423684 
L 401.86368 256.954544 
L 402.04224 193.26416 
L 402.2208 229.563092 
L 402.39936 236.666925 
L 402.57792 252.34904 
L 402.75648 184.275629 
L 402.93504 201.097946 
L 403.1136 195.768391 
L 403.29216 229.183899 
L 403.47072 186.1126 
L 403.64928 256.526246 
L 404.18496 211.987314 
L 404.36352 265.247101 
L 404.54208 279.801664 
L 404.72064 247.048055 
L 404.8992 188.740713 
L 405.07776 251.494292 
L 405.25632 254.322853 
L 405.43488 254.035782 
L 405.61344 158.716352 
L 405.792 258.92542 
L 405.97056 229.211689 
L 406.14912 223.646606 
L 406.32768 251.167139 
L 406.50624 202.593106 
L 406.6848 201.78102 
L 407.04192 251.872172 
L 407.22048 241.80943 
L 407.39904 279.620659 
L 407.5776 192.48111 
L 407.75616 190.977115 
L 408.11328 270.315753 
L 408.29184 133.534295 
L 408.64896 199.766372 
L 408.82752 269.294874 
L 409.00608 206.72858 
L 409.18464 248.756387 
L 409.3632 255.065835 
L 409.72032 218.257825 
L 409.89888 130.9047 
L 410.43456 251.851562 
L 410.61312 238.805128 
L 410.97024 280.029649 
L 411.1488 248.990515 
L 411.32736 245.719915 
L 411.50592 228.763246 
L 411.86304 74.287166 
L 412.0416 226.873817 
L 412.22016 209.731698 
L 412.39872 177.508608 
L 412.75584 250.953904 
L 412.9344 100.386918 
L 413.11296 198.378071 
L 413.29152 186.406262 
L 413.47008 204.451221 
L 413.64864 252.712672 
L 413.8272 244.714516 
L 414.00576 261.32421 
L 414.18432 266.069847 
L 414.36288 212.390218 
L 414.54144 210.690298 
L 414.54144 210.690298 
" clip-path="url(#p283493576d)" style="fill: none; stroke: #0000ff; stroke-width: 1.5; stroke-linecap: square"/>
   </g>
   <g id="patch_3">
    <path d="M 57.6 307.584 
L 57.6 41.472 
" style="fill: none; stroke: #000000; stroke-width: 0.8; stroke-linejoin: miter; stroke-linecap: square"/>
   </g>
   <g id="patch_4">
    <path d="M 414.72 307.584 
L 414.72 41.472 
" style="fill: none; stroke: #000000; stroke-width: 0.8; stroke-linejoin: miter; stroke-linecap: square"/>
   </g>
   <g id="patch_5">
    <path d="M 57.6 307.584 
L 414.72 307.584 
" style="fill: none; stroke: #000000; stroke-width: 0.8; stroke-linejoin: miter; stroke-linecap: square"/>
   </g>
   <g id="patch_6">
    <path d="M 57.6 41.472 
L 414.72 41.472 
" style="fill: none; stroke: #000000; stroke-width: 0.8; stroke-linejoin: miter; stroke-linecap: square"/>
   </g>
   <g id="legend_1">
    <g id="patch_7">
     <path d="M 68.8 77.757 
L 269.4375 77.757 
Q 272.6375 77.757 272.6375 74.557 
L 272.6375 52.672 
Q 272.6375 49.472 269.4375 49.472 
L 68.8 49.472 
Q 65.6 49.472 65.6 52.672 
L 65.6 74.557 
Q 65.6 77.757 68.8 77.757 
z
" style="fill: #ffffff; opacity: 0.8; stroke: #cccccc; stroke-linejoin: miter"/>
    </g>
    <g id="line2d_20">
     <path d="M 72 62.4295 
L 88 62.4295 
L 104 62.4295 
" style="fill: none; stroke: #0000ff; stroke-width: 1.5; stroke-linecap: square"/>
    </g>
    <g id="text_12">
     <!-- cumulative reward -->
     <g transform="translate(116.8 68.0295)scale(0.16 -0.16)">
      <defs>
       <path id="DejaVuSans-63" d="M 3122 3366 
L 3122 2828 
Q 2878 2963 2633 3030 
Q 2388 3097 2138 3097 
Q 1578 3097 1268 2742 
Q 959 2388 959 1747 
Q 959 1106 1268 751 
Q 1578 397 2138 397 
Q 2388 397 2633 464 
Q 2878 531 3122 666 
L 3122 134 
Q 2881 22 2623 -34 
Q 2366 -91 2075 -91 
Q 1284 -91 818 406 
Q 353 903 353 1747 
Q 353 2603 823 3093 
Q 1294 3584 2113 3584 
Q 2378 3584 2631 3529 
Q 2884 3475 3122 3366 
z
" transform="scale(0.015625)"/>
      </defs>
      <use xlink:href="#DejaVuSans-63"/>
      <use xlink:href="#DejaVuSans-75" x="54.980469"/>
      <use xlink:href="#DejaVuSans-6d" x="118.359375"/>
      <use xlink:href="#DejaVuSans-75" x="215.771484"/>
      <use xlink:href="#DejaVuSans-6c" x="279.150391"/>
      <use xlink:href="#DejaVuSans-61" x="306.933594"/>
      <use xlink:href="#DejaVuSans-74" x="368.212891"/>
      <use xlink:href="#DejaVuSans-69" x="407.421875"/>
      <use xlink:href="#DejaVuSans-76" x="435.205078"/>
      <use xlink:href="#DejaVuSans-65" x="494.384766"/>
      <use xlink:href="#DejaVuSans-20" x="555.908203"/>
      <use xlink:href="#DejaVuSans-72" x="587.695312"/>
      <use xlink:href="#DejaVuSans-65" x="626.558594"/>
      <use xlink:href="#DejaVuSans-77" x="688.082031"/>
      <use xlink:href="#DejaVuSans-61" x="769.869141"/>
      <use xlink:href="#DejaVuSans-72" x="831.148438"/>
      <use xlink:href="#DejaVuSans-64" x="870.511719"/>
     </g>
    </g>
   </g>
  </g>
 </g>
 <defs>
  <clipPath id="p283493576d">
   <rect x="57.6" y="41.472" width="357.12" height="266.112"/>
  </clipPath>
 </defs>
</svg>
