<?xml version="1.0" encoding="utf-8" standalone="no"?>
<!DOCTYPE svg PUBLIC "-//W3C//DTD SVG 1.1//EN"
  "http://www.w3.org/Graphics/SVG/1.1/DTD/svg11.dtd">
<svg height="345.6pt" version="1.1" viewBox="0 0 460.8 345.6" width="460.8pt" xmlns="http://www.w3.org/2000/svg" xmlns:xlink="http://www.w3.org/1999/xlink">
 <metadata>
  <rdf:RDF xmlns:cc="http://creativecommons.org/ns#" xmlns:dc="http://purl.org/dc/elements/1.1/" xmlns:rdf="http://www.w3.org/1999/02/22-rdf-syntax-ns#">
   <cc:Work>
    <dc:type rdf:resource="http://purl.org/dc/dcmitype/StillImage"/>
    <dc:date>2021-11-03T17:13:01.797023</dc:date>
    <dc:description>{"agent.algorithm": "RayProximalPolicyOptimization", "agent.algorithm.render_env": false, "agent.algorithm.num_workers": 0, "agent.algorithm.batch_mode": "complete_episodes", "agent.algorithm.lr": 1e-05, "agent.algorithm.train_batch_size": 200, "agent.algorithm.optimizer": "Adam", "agent.algorithm.vf_clip_param": 10000.0, "agent.algorithm.model": {"fcnet_activation": "tanh", "fcnet_hiddens": [30, 30]}, "env.env_class": "SchedulerPolicyRayEnvironment", "env.env_config": {"solver_driver": "CMAdriver", "solver_driver_args": [10, 10, 6, 0.5], "maximize": false, "steps": 50, "state_metrics_names": ["DifferenceOfBest", "SolverStateHistory"], "state_metrics_config": [[40, false, 1, true, false], [{"step_size": {"max": 3, "min": 0}}, 40]], "reward_metric": "Best", "reward_metric_config": [false, false], "memes_no": 1, "action_space_config": {"step_size": {"max": 3, "min": 1e-10}}}}</dc:description>
    <dc:format>image/svg+xml</dc:format>
    <dc:creator>
     <cc:Agent>
      <dc:title>Matplotlib v3.4.2, https://matplotlib.org/</dc:title>
     </cc:Agent>
    </dc:creator>
   </cc:Work>
  </rdf:RDF>
 </metadata>
 <defs>
  <style type="text/css">*{stroke-linecap:butt;stroke-linejoin:round;}</style>
 </defs>
 <g id="figure_1">
  <g id="patch_1">
   <path d="M 0 345.6 
L 460.8 345.6 
L 460.8 0 
L 0 0 
z
" style="fill:#ffffff;"/>
  </g>
  <g id="axes_1">
   <g id="patch_2">
    <path d="M 57.6 307.584 
L 414.72 307.584 
L 414.72 41.472 
L 57.6 41.472 
z
" style="fill:#ffffff;"/>
   </g>
   <g id="matplotlib.axis_1">
    <g id="xtick_1">
     <g id="line2d_1">
      <path clip-path="url(#p17ce83136a)" d="M 57.6 307.584 
L 57.6 41.472 
" style="fill:none;stroke:#b0b0b0;stroke-linecap:square;stroke-width:0.8;"/>
     </g>
     <g id="line2d_2">
      <defs>
       <path d="M 0 0 
L 0 3.5 
" id="m431c73293b" style="stroke:#000000;stroke-width:0.8;"/>
      </defs>
      <g>
       <use style="stroke:#000000;stroke-width:0.8;" x="57.6" xlink:href="#m431c73293b" y="307.584"/>
      </g>
     </g>
     <g id="text_1">
      <!-- 0 -->
      <g transform="translate(52.51 326.7415)scale(0.16 -0.16)">
       <defs>
        <path d="M 2034 4250 
Q 1547 4250 1301 3770 
Q 1056 3291 1056 2328 
Q 1056 1369 1301 889 
Q 1547 409 2034 409 
Q 2525 409 2770 889 
Q 3016 1369 3016 2328 
Q 3016 3291 2770 3770 
Q 2525 4250 2034 4250 
z
M 2034 4750 
Q 2819 4750 3233 4129 
Q 3647 3509 3647 2328 
Q 3647 1150 3233 529 
Q 2819 -91 2034 -91 
Q 1250 -91 836 529 
Q 422 1150 422 2328 
Q 422 3509 836 4129 
Q 1250 4750 2034 4750 
z
" id="DejaVuSans-30" transform="scale(0.015625)"/>
       </defs>
       <use xlink:href="#DejaVuSans-30"/>
      </g>
     </g>
    </g>
    <g id="xtick_2">
     <g id="line2d_3">
      <path clip-path="url(#p17ce83136a)" d="M 146.88 307.584 
L 146.88 41.472 
" style="fill:none;stroke:#b0b0b0;stroke-linecap:square;stroke-width:0.8;"/>
     </g>
     <g id="line2d_4">
      <g>
       <use style="stroke:#000000;stroke-width:0.8;" x="146.88" xlink:href="#m431c73293b" y="307.584"/>
      </g>
     </g>
     <g id="text_2">
      <!-- 1000 -->
      <g transform="translate(126.52 326.7415)scale(0.16 -0.16)">
       <defs>
        <path d="M 794 531 
L 1825 531 
L 1825 4091 
L 703 3866 
L 703 4441 
L 1819 4666 
L 2450 4666 
L 2450 531 
L 3481 531 
L 3481 0 
L 794 0 
L 794 531 
z
" id="DejaVuSans-31" transform="scale(0.015625)"/>
       </defs>
       <use xlink:href="#DejaVuSans-31"/>
       <use x="63.623047" xlink:href="#DejaVuSans-30"/>
       <use x="127.246094" xlink:href="#DejaVuSans-30"/>
       <use x="190.869141" xlink:href="#DejaVuSans-30"/>
      </g>
     </g>
    </g>
    <g id="xtick_3">
     <g id="line2d_5">
      <path clip-path="url(#p17ce83136a)" d="M 236.16 307.584 
L 236.16 41.472 
" style="fill:none;stroke:#b0b0b0;stroke-linecap:square;stroke-width:0.8;"/>
     </g>
     <g id="line2d_6">
      <g>
       <use style="stroke:#000000;stroke-width:0.8;" x="236.16" xlink:href="#m431c73293b" y="307.584"/>
      </g>
     </g>
     <g id="text_3">
      <!-- 2000 -->
      <g transform="translate(215.8 326.7415)scale(0.16 -0.16)">
       <defs>
        <path d="M 1228 531 
L 3431 531 
L 3431 0 
L 469 0 
L 469 531 
Q 828 903 1448 1529 
Q 2069 2156 2228 2338 
Q 2531 2678 2651 2914 
Q 2772 3150 2772 3378 
Q 2772 3750 2511 3984 
Q 2250 4219 1831 4219 
Q 1534 4219 1204 4116 
Q 875 4013 500 3803 
L 500 4441 
Q 881 4594 1212 4672 
Q 1544 4750 1819 4750 
Q 2544 4750 2975 4387 
Q 3406 4025 3406 3419 
Q 3406 3131 3298 2873 
Q 3191 2616 2906 2266 
Q 2828 2175 2409 1742 
Q 1991 1309 1228 531 
z
" id="DejaVuSans-32" transform="scale(0.015625)"/>
       </defs>
       <use xlink:href="#DejaVuSans-32"/>
       <use x="63.623047" xlink:href="#DejaVuSans-30"/>
       <use x="127.246094" xlink:href="#DejaVuSans-30"/>
       <use x="190.869141" xlink:href="#DejaVuSans-30"/>
      </g>
     </g>
    </g>
    <g id="xtick_4">
     <g id="line2d_7">
      <path clip-path="url(#p17ce83136a)" d="M 325.44 307.584 
L 325.44 41.472 
" style="fill:none;stroke:#b0b0b0;stroke-linecap:square;stroke-width:0.8;"/>
     </g>
     <g id="line2d_8">
      <g>
       <use style="stroke:#000000;stroke-width:0.8;" x="325.44" xlink:href="#m431c73293b" y="307.584"/>
      </g>
     </g>
     <g id="text_4">
      <!-- 3000 -->
      <g transform="translate(305.08 326.7415)scale(0.16 -0.16)">
       <defs>
        <path d="M 2597 2516 
Q 3050 2419 3304 2112 
Q 3559 1806 3559 1356 
Q 3559 666 3084 287 
Q 2609 -91 1734 -91 
Q 1441 -91 1130 -33 
Q 819 25 488 141 
L 488 750 
Q 750 597 1062 519 
Q 1375 441 1716 441 
Q 2309 441 2620 675 
Q 2931 909 2931 1356 
Q 2931 1769 2642 2001 
Q 2353 2234 1838 2234 
L 1294 2234 
L 1294 2753 
L 1863 2753 
Q 2328 2753 2575 2939 
Q 2822 3125 2822 3475 
Q 2822 3834 2567 4026 
Q 2313 4219 1838 4219 
Q 1578 4219 1281 4162 
Q 984 4106 628 3988 
L 628 4550 
Q 988 4650 1302 4700 
Q 1616 4750 1894 4750 
Q 2613 4750 3031 4423 
Q 3450 4097 3450 3541 
Q 3450 3153 3228 2886 
Q 3006 2619 2597 2516 
z
" id="DejaVuSans-33" transform="scale(0.015625)"/>
       </defs>
       <use xlink:href="#DejaVuSans-33"/>
       <use x="63.623047" xlink:href="#DejaVuSans-30"/>
       <use x="127.246094" xlink:href="#DejaVuSans-30"/>
       <use x="190.869141" xlink:href="#DejaVuSans-30"/>
      </g>
     </g>
    </g>
    <g id="xtick_5">
     <g id="line2d_9">
      <path clip-path="url(#p17ce83136a)" d="M 414.72 307.584 
L 414.72 41.472 
" style="fill:none;stroke:#b0b0b0;stroke-linecap:square;stroke-width:0.8;"/>
     </g>
     <g id="line2d_10">
      <g>
       <use style="stroke:#000000;stroke-width:0.8;" x="414.72" xlink:href="#m431c73293b" y="307.584"/>
      </g>
     </g>
     <g id="text_5">
      <!-- 4000 -->
      <g transform="translate(394.36 326.7415)scale(0.16 -0.16)">
       <defs>
        <path d="M 2419 4116 
L 825 1625 
L 2419 1625 
L 2419 4116 
z
M 2253 4666 
L 3047 4666 
L 3047 1625 
L 3713 1625 
L 3713 1100 
L 3047 1100 
L 3047 0 
L 2419 0 
L 2419 1100 
L 313 1100 
L 313 1709 
L 2253 4666 
z
" id="DejaVuSans-34" transform="scale(0.015625)"/>
       </defs>
       <use xlink:href="#DejaVuSans-34"/>
       <use x="63.623047" xlink:href="#DejaVuSans-30"/>
       <use x="127.246094" xlink:href="#DejaVuSans-30"/>
       <use x="190.869141" xlink:href="#DejaVuSans-30"/>
      </g>
     </g>
    </g>
    <g id="text_6">
     <!-- Episodes -->
     <g transform="translate(200.5725 346.2265)scale(0.16 -0.16)">
      <defs>
       <path d="M 628 4666 
L 3578 4666 
L 3578 4134 
L 1259 4134 
L 1259 2753 
L 3481 2753 
L 3481 2222 
L 1259 2222 
L 1259 531 
L 3634 531 
L 3634 0 
L 628 0 
L 628 4666 
z
" id="DejaVuSans-45" transform="scale(0.015625)"/>
       <path d="M 1159 525 
L 1159 -1331 
L 581 -1331 
L 581 3500 
L 1159 3500 
L 1159 2969 
Q 1341 3281 1617 3432 
Q 1894 3584 2278 3584 
Q 2916 3584 3314 3078 
Q 3713 2572 3713 1747 
Q 3713 922 3314 415 
Q 2916 -91 2278 -91 
Q 1894 -91 1617 61 
Q 1341 213 1159 525 
z
M 3116 1747 
Q 3116 2381 2855 2742 
Q 2594 3103 2138 3103 
Q 1681 3103 1420 2742 
Q 1159 2381 1159 1747 
Q 1159 1113 1420 752 
Q 1681 391 2138 391 
Q 2594 391 2855 752 
Q 3116 1113 3116 1747 
z
" id="DejaVuSans-70" transform="scale(0.015625)"/>
       <path d="M 603 3500 
L 1178 3500 
L 1178 0 
L 603 0 
L 603 3500 
z
M 603 4863 
L 1178 4863 
L 1178 4134 
L 603 4134 
L 603 4863 
z
" id="DejaVuSans-69" transform="scale(0.015625)"/>
       <path d="M 2834 3397 
L 2834 2853 
Q 2591 2978 2328 3040 
Q 2066 3103 1784 3103 
Q 1356 3103 1142 2972 
Q 928 2841 928 2578 
Q 928 2378 1081 2264 
Q 1234 2150 1697 2047 
L 1894 2003 
Q 2506 1872 2764 1633 
Q 3022 1394 3022 966 
Q 3022 478 2636 193 
Q 2250 -91 1575 -91 
Q 1294 -91 989 -36 
Q 684 19 347 128 
L 347 722 
Q 666 556 975 473 
Q 1284 391 1588 391 
Q 1994 391 2212 530 
Q 2431 669 2431 922 
Q 2431 1156 2273 1281 
Q 2116 1406 1581 1522 
L 1381 1569 
Q 847 1681 609 1914 
Q 372 2147 372 2553 
Q 372 3047 722 3315 
Q 1072 3584 1716 3584 
Q 2034 3584 2315 3537 
Q 2597 3491 2834 3397 
z
" id="DejaVuSans-73" transform="scale(0.015625)"/>
       <path d="M 1959 3097 
Q 1497 3097 1228 2736 
Q 959 2375 959 1747 
Q 959 1119 1226 758 
Q 1494 397 1959 397 
Q 2419 397 2687 759 
Q 2956 1122 2956 1747 
Q 2956 2369 2687 2733 
Q 2419 3097 1959 3097 
z
M 1959 3584 
Q 2709 3584 3137 3096 
Q 3566 2609 3566 1747 
Q 3566 888 3137 398 
Q 2709 -91 1959 -91 
Q 1206 -91 779 398 
Q 353 888 353 1747 
Q 353 2609 779 3096 
Q 1206 3584 1959 3584 
z
" id="DejaVuSans-6f" transform="scale(0.015625)"/>
       <path d="M 2906 2969 
L 2906 4863 
L 3481 4863 
L 3481 0 
L 2906 0 
L 2906 525 
Q 2725 213 2448 61 
Q 2172 -91 1784 -91 
Q 1150 -91 751 415 
Q 353 922 353 1747 
Q 353 2572 751 3078 
Q 1150 3584 1784 3584 
Q 2172 3584 2448 3432 
Q 2725 3281 2906 2969 
z
M 947 1747 
Q 947 1113 1208 752 
Q 1469 391 1925 391 
Q 2381 391 2643 752 
Q 2906 1113 2906 1747 
Q 2906 2381 2643 2742 
Q 2381 3103 1925 3103 
Q 1469 3103 1208 2742 
Q 947 2381 947 1747 
z
" id="DejaVuSans-64" transform="scale(0.015625)"/>
       <path d="M 3597 1894 
L 3597 1613 
L 953 1613 
Q 991 1019 1311 708 
Q 1631 397 2203 397 
Q 2534 397 2845 478 
Q 3156 559 3463 722 
L 3463 178 
Q 3153 47 2828 -22 
Q 2503 -91 2169 -91 
Q 1331 -91 842 396 
Q 353 884 353 1716 
Q 353 2575 817 3079 
Q 1281 3584 2069 3584 
Q 2775 3584 3186 3129 
Q 3597 2675 3597 1894 
z
M 3022 2063 
Q 3016 2534 2758 2815 
Q 2500 3097 2075 3097 
Q 1594 3097 1305 2825 
Q 1016 2553 972 2059 
L 3022 2063 
z
" id="DejaVuSans-65" transform="scale(0.015625)"/>
      </defs>
      <use xlink:href="#DejaVuSans-45"/>
      <use x="63.183594" xlink:href="#DejaVuSans-70"/>
      <use x="126.660156" xlink:href="#DejaVuSans-69"/>
      <use x="154.443359" xlink:href="#DejaVuSans-73"/>
      <use x="206.542969" xlink:href="#DejaVuSans-6f"/>
      <use x="267.724609" xlink:href="#DejaVuSans-64"/>
      <use x="331.201172" xlink:href="#DejaVuSans-65"/>
      <use x="392.724609" xlink:href="#DejaVuSans-73"/>
     </g>
    </g>
   </g>
   <g id="matplotlib.axis_2">
    <g id="ytick_1">
     <g id="line2d_11">
      <path clip-path="url(#p17ce83136a)" d="M 57.6 280.248996 
L 414.72 280.248996 
" style="fill:none;stroke:#b0b0b0;stroke-linecap:square;stroke-width:0.8;"/>
     </g>
     <g id="line2d_12">
      <defs>
       <path d="M 0 0 
L -3.5 0 
" id="m4cec7d6d8d" style="stroke:#000000;stroke-width:0.8;"/>
      </defs>
      <g>
       <use style="stroke:#000000;stroke-width:0.8;" x="57.6" xlink:href="#m4cec7d6d8d" y="280.248996"/>
      </g>
     </g>
     <g id="text_7">
      <!-- −1.0 -->
      <g transform="translate(11.7475 286.327746)scale(0.16 -0.16)">
       <defs>
        <path d="M 678 2272 
L 4684 2272 
L 4684 1741 
L 678 1741 
L 678 2272 
z
" id="DejaVuSans-2212" transform="scale(0.015625)"/>
        <path d="M 684 794 
L 1344 794 
L 1344 0 
L 684 0 
L 684 794 
z
" id="DejaVuSans-2e" transform="scale(0.015625)"/>
       </defs>
       <use xlink:href="#DejaVuSans-2212"/>
       <use x="83.789062" xlink:href="#DejaVuSans-31"/>
       <use x="147.412109" xlink:href="#DejaVuSans-2e"/>
       <use x="179.199219" xlink:href="#DejaVuSans-30"/>
      </g>
     </g>
    </g>
    <g id="ytick_2">
     <g id="line2d_13">
      <path clip-path="url(#p17ce83136a)" d="M 57.6 236.680045 
L 414.72 236.680045 
" style="fill:none;stroke:#b0b0b0;stroke-linecap:square;stroke-width:0.8;"/>
     </g>
     <g id="line2d_14">
      <g>
       <use style="stroke:#000000;stroke-width:0.8;" x="57.6" xlink:href="#m4cec7d6d8d" y="236.680045"/>
      </g>
     </g>
     <g id="text_8">
      <!-- −0.8 -->
      <g transform="translate(11.7475 242.758795)scale(0.16 -0.16)">
       <defs>
        <path d="M 2034 2216 
Q 1584 2216 1326 1975 
Q 1069 1734 1069 1313 
Q 1069 891 1326 650 
Q 1584 409 2034 409 
Q 2484 409 2743 651 
Q 3003 894 3003 1313 
Q 3003 1734 2745 1975 
Q 2488 2216 2034 2216 
z
M 1403 2484 
Q 997 2584 770 2862 
Q 544 3141 544 3541 
Q 544 4100 942 4425 
Q 1341 4750 2034 4750 
Q 2731 4750 3128 4425 
Q 3525 4100 3525 3541 
Q 3525 3141 3298 2862 
Q 3072 2584 2669 2484 
Q 3125 2378 3379 2068 
Q 3634 1759 3634 1313 
Q 3634 634 3220 271 
Q 2806 -91 2034 -91 
Q 1263 -91 848 271 
Q 434 634 434 1313 
Q 434 1759 690 2068 
Q 947 2378 1403 2484 
z
M 1172 3481 
Q 1172 3119 1398 2916 
Q 1625 2713 2034 2713 
Q 2441 2713 2670 2916 
Q 2900 3119 2900 3481 
Q 2900 3844 2670 4047 
Q 2441 4250 2034 4250 
Q 1625 4250 1398 4047 
Q 1172 3844 1172 3481 
z
" id="DejaVuSans-38" transform="scale(0.015625)"/>
       </defs>
       <use xlink:href="#DejaVuSans-2212"/>
       <use x="83.789062" xlink:href="#DejaVuSans-30"/>
       <use x="147.412109" xlink:href="#DejaVuSans-2e"/>
       <use x="179.199219" xlink:href="#DejaVuSans-38"/>
      </g>
     </g>
    </g>
    <g id="ytick_3">
     <g id="line2d_15">
      <path clip-path="url(#p17ce83136a)" d="M 57.6 193.111094 
L 414.72 193.111094 
" style="fill:none;stroke:#b0b0b0;stroke-linecap:square;stroke-width:0.8;"/>
     </g>
     <g id="line2d_16">
      <g>
       <use style="stroke:#000000;stroke-width:0.8;" x="57.6" xlink:href="#m4cec7d6d8d" y="193.111094"/>
      </g>
     </g>
     <g id="text_9">
      <!-- −0.6 -->
      <g transform="translate(11.7475 199.189844)scale(0.16 -0.16)">
       <defs>
        <path d="M 2113 2584 
Q 1688 2584 1439 2293 
Q 1191 2003 1191 1497 
Q 1191 994 1439 701 
Q 1688 409 2113 409 
Q 2538 409 2786 701 
Q 3034 994 3034 1497 
Q 3034 2003 2786 2293 
Q 2538 2584 2113 2584 
z
M 3366 4563 
L 3366 3988 
Q 3128 4100 2886 4159 
Q 2644 4219 2406 4219 
Q 1781 4219 1451 3797 
Q 1122 3375 1075 2522 
Q 1259 2794 1537 2939 
Q 1816 3084 2150 3084 
Q 2853 3084 3261 2657 
Q 3669 2231 3669 1497 
Q 3669 778 3244 343 
Q 2819 -91 2113 -91 
Q 1303 -91 875 529 
Q 447 1150 447 2328 
Q 447 3434 972 4092 
Q 1497 4750 2381 4750 
Q 2619 4750 2861 4703 
Q 3103 4656 3366 4563 
z
" id="DejaVuSans-36" transform="scale(0.015625)"/>
       </defs>
       <use xlink:href="#DejaVuSans-2212"/>
       <use x="83.789062" xlink:href="#DejaVuSans-30"/>
       <use x="147.412109" xlink:href="#DejaVuSans-2e"/>
       <use x="179.199219" xlink:href="#DejaVuSans-36"/>
      </g>
     </g>
    </g>
    <g id="ytick_4">
     <g id="line2d_17">
      <path clip-path="url(#p17ce83136a)" d="M 57.6 149.542142 
L 414.72 149.542142 
" style="fill:none;stroke:#b0b0b0;stroke-linecap:square;stroke-width:0.8;"/>
     </g>
     <g id="line2d_18">
      <g>
       <use style="stroke:#000000;stroke-width:0.8;" x="57.6" xlink:href="#m4cec7d6d8d" y="149.542142"/>
      </g>
     </g>
     <g id="text_10">
      <!-- −0.4 -->
      <g transform="translate(11.7475 155.620892)scale(0.16 -0.16)">
       <use xlink:href="#DejaVuSans-2212"/>
       <use x="83.789062" xlink:href="#DejaVuSans-30"/>
       <use x="147.412109" xlink:href="#DejaVuSans-2e"/>
       <use x="179.199219" xlink:href="#DejaVuSans-34"/>
      </g>
     </g>
    </g>
    <g id="ytick_5">
     <g id="line2d_19">
      <path clip-path="url(#p17ce83136a)" d="M 57.6 105.973191 
L 414.72 105.973191 
" style="fill:none;stroke:#b0b0b0;stroke-linecap:square;stroke-width:0.8;"/>
     </g>
     <g id="line2d_20">
      <g>
       <use style="stroke:#000000;stroke-width:0.8;" x="57.6" xlink:href="#m4cec7d6d8d" y="105.973191"/>
      </g>
     </g>
     <g id="text_11">
      <!-- −0.2 -->
      <g transform="translate(11.7475 112.051941)scale(0.16 -0.16)">
       <use xlink:href="#DejaVuSans-2212"/>
       <use x="83.789062" xlink:href="#DejaVuSans-30"/>
       <use x="147.412109" xlink:href="#DejaVuSans-2e"/>
       <use x="179.199219" xlink:href="#DejaVuSans-32"/>
      </g>
     </g>
    </g>
    <g id="ytick_6">
     <g id="line2d_21">
      <path clip-path="url(#p17ce83136a)" d="M 57.6 62.40424 
L 414.72 62.40424 
" style="fill:none;stroke:#b0b0b0;stroke-linecap:square;stroke-width:0.8;"/>
     </g>
     <g id="line2d_22">
      <g>
       <use style="stroke:#000000;stroke-width:0.8;" x="57.6" xlink:href="#m4cec7d6d8d" y="62.40424"/>
      </g>
     </g>
     <g id="text_12">
      <!-- 0.0 -->
      <g transform="translate(25.155 68.48299)scale(0.16 -0.16)">
       <use xlink:href="#DejaVuSans-30"/>
       <use x="63.623047" xlink:href="#DejaVuSans-2e"/>
       <use x="95.410156" xlink:href="#DejaVuSans-30"/>
      </g>
     </g>
    </g>
    <g id="text_13">
     <!-- Cumulative Reward -->
     <g transform="translate(4.42 252.52425)rotate(-90)scale(0.16 -0.16)">
      <defs>
       <path d="M 4122 4306 
L 4122 3641 
Q 3803 3938 3442 4084 
Q 3081 4231 2675 4231 
Q 1875 4231 1450 3742 
Q 1025 3253 1025 2328 
Q 1025 1406 1450 917 
Q 1875 428 2675 428 
Q 3081 428 3442 575 
Q 3803 722 4122 1019 
L 4122 359 
Q 3791 134 3420 21 
Q 3050 -91 2638 -91 
Q 1578 -91 968 557 
Q 359 1206 359 2328 
Q 359 3453 968 4101 
Q 1578 4750 2638 4750 
Q 3056 4750 3426 4639 
Q 3797 4528 4122 4306 
z
" id="DejaVuSans-43" transform="scale(0.015625)"/>
       <path d="M 544 1381 
L 544 3500 
L 1119 3500 
L 1119 1403 
Q 1119 906 1312 657 
Q 1506 409 1894 409 
Q 2359 409 2629 706 
Q 2900 1003 2900 1516 
L 2900 3500 
L 3475 3500 
L 3475 0 
L 2900 0 
L 2900 538 
Q 2691 219 2414 64 
Q 2138 -91 1772 -91 
Q 1169 -91 856 284 
Q 544 659 544 1381 
z
M 1991 3584 
L 1991 3584 
z
" id="DejaVuSans-75" transform="scale(0.015625)"/>
       <path d="M 3328 2828 
Q 3544 3216 3844 3400 
Q 4144 3584 4550 3584 
Q 5097 3584 5394 3201 
Q 5691 2819 5691 2113 
L 5691 0 
L 5113 0 
L 5113 2094 
Q 5113 2597 4934 2840 
Q 4756 3084 4391 3084 
Q 3944 3084 3684 2787 
Q 3425 2491 3425 1978 
L 3425 0 
L 2847 0 
L 2847 2094 
Q 2847 2600 2669 2842 
Q 2491 3084 2119 3084 
Q 1678 3084 1418 2786 
Q 1159 2488 1159 1978 
L 1159 0 
L 581 0 
L 581 3500 
L 1159 3500 
L 1159 2956 
Q 1356 3278 1631 3431 
Q 1906 3584 2284 3584 
Q 2666 3584 2933 3390 
Q 3200 3197 3328 2828 
z
" id="DejaVuSans-6d" transform="scale(0.015625)"/>
       <path d="M 603 4863 
L 1178 4863 
L 1178 0 
L 603 0 
L 603 4863 
z
" id="DejaVuSans-6c" transform="scale(0.015625)"/>
       <path d="M 2194 1759 
Q 1497 1759 1228 1600 
Q 959 1441 959 1056 
Q 959 750 1161 570 
Q 1363 391 1709 391 
Q 2188 391 2477 730 
Q 2766 1069 2766 1631 
L 2766 1759 
L 2194 1759 
z
M 3341 1997 
L 3341 0 
L 2766 0 
L 2766 531 
Q 2569 213 2275 61 
Q 1981 -91 1556 -91 
Q 1019 -91 701 211 
Q 384 513 384 1019 
Q 384 1609 779 1909 
Q 1175 2209 1959 2209 
L 2766 2209 
L 2766 2266 
Q 2766 2663 2505 2880 
Q 2244 3097 1772 3097 
Q 1472 3097 1187 3025 
Q 903 2953 641 2809 
L 641 3341 
Q 956 3463 1253 3523 
Q 1550 3584 1831 3584 
Q 2591 3584 2966 3190 
Q 3341 2797 3341 1997 
z
" id="DejaVuSans-61" transform="scale(0.015625)"/>
       <path d="M 1172 4494 
L 1172 3500 
L 2356 3500 
L 2356 3053 
L 1172 3053 
L 1172 1153 
Q 1172 725 1289 603 
Q 1406 481 1766 481 
L 2356 481 
L 2356 0 
L 1766 0 
Q 1100 0 847 248 
Q 594 497 594 1153 
L 594 3053 
L 172 3053 
L 172 3500 
L 594 3500 
L 594 4494 
L 1172 4494 
z
" id="DejaVuSans-74" transform="scale(0.015625)"/>
       <path d="M 191 3500 
L 800 3500 
L 1894 563 
L 2988 3500 
L 3597 3500 
L 2284 0 
L 1503 0 
L 191 3500 
z
" id="DejaVuSans-76" transform="scale(0.015625)"/>
       <path id="DejaVuSans-20" transform="scale(0.015625)"/>
       <path d="M 2841 2188 
Q 3044 2119 3236 1894 
Q 3428 1669 3622 1275 
L 4263 0 
L 3584 0 
L 2988 1197 
Q 2756 1666 2539 1819 
Q 2322 1972 1947 1972 
L 1259 1972 
L 1259 0 
L 628 0 
L 628 4666 
L 2053 4666 
Q 2853 4666 3247 4331 
Q 3641 3997 3641 3322 
Q 3641 2881 3436 2590 
Q 3231 2300 2841 2188 
z
M 1259 4147 
L 1259 2491 
L 2053 2491 
Q 2509 2491 2742 2702 
Q 2975 2913 2975 3322 
Q 2975 3731 2742 3939 
Q 2509 4147 2053 4147 
L 1259 4147 
z
" id="DejaVuSans-52" transform="scale(0.015625)"/>
       <path d="M 269 3500 
L 844 3500 
L 1563 769 
L 2278 3500 
L 2956 3500 
L 3675 769 
L 4391 3500 
L 4966 3500 
L 4050 0 
L 3372 0 
L 2619 2869 
L 1863 0 
L 1184 0 
L 269 3500 
z
" id="DejaVuSans-77" transform="scale(0.015625)"/>
       <path d="M 2631 2963 
Q 2534 3019 2420 3045 
Q 2306 3072 2169 3072 
Q 1681 3072 1420 2755 
Q 1159 2438 1159 1844 
L 1159 0 
L 581 0 
L 581 3500 
L 1159 3500 
L 1159 2956 
Q 1341 3275 1631 3429 
Q 1922 3584 2338 3584 
Q 2397 3584 2469 3576 
Q 2541 3569 2628 3553 
L 2631 2963 
z
" id="DejaVuSans-72" transform="scale(0.015625)"/>
      </defs>
      <use xlink:href="#DejaVuSans-43"/>
      <use x="69.824219" xlink:href="#DejaVuSans-75"/>
      <use x="133.203125" xlink:href="#DejaVuSans-6d"/>
      <use x="230.615234" xlink:href="#DejaVuSans-75"/>
      <use x="293.994141" xlink:href="#DejaVuSans-6c"/>
      <use x="321.777344" xlink:href="#DejaVuSans-61"/>
      <use x="383.056641" xlink:href="#DejaVuSans-74"/>
      <use x="422.265625" xlink:href="#DejaVuSans-69"/>
      <use x="450.048828" xlink:href="#DejaVuSans-76"/>
      <use x="509.228516" xlink:href="#DejaVuSans-65"/>
      <use x="570.751953" xlink:href="#DejaVuSans-20"/>
      <use x="602.539062" xlink:href="#DejaVuSans-52"/>
      <use x="667.521484" xlink:href="#DejaVuSans-65"/>
      <use x="729.044922" xlink:href="#DejaVuSans-77"/>
      <use x="810.832031" xlink:href="#DejaVuSans-61"/>
      <use x="872.111328" xlink:href="#DejaVuSans-72"/>
      <use x="911.474609" xlink:href="#DejaVuSans-64"/>
     </g>
    </g>
    <g id="text_14">
     <!-- 1e6 -->
     <g transform="translate(57.6 38.472)scale(0.16 -0.16)">
      <use xlink:href="#DejaVuSans-31"/>
      <use x="63.623047" xlink:href="#DejaVuSans-65"/>
      <use x="125.146484" xlink:href="#DejaVuSans-36"/>
     </g>
    </g>
   </g>
   <g id="line2d_23">
    <path clip-path="url(#p17ce83136a)" d="M 57.6 88.635548 
L 57.68928 82.361914 
L 57.77856 96.492445 
L 57.86784 171.615596 
L 58.0464 82.361914 
L 58.13568 96.492445 
L 58.22496 171.615596 
L 58.40352 82.361914 
L 58.4928 96.492445 
L 58.58208 171.615596 
L 58.76064 82.361914 
L 58.84992 96.492445 
L 58.9392 171.615596 
L 59.11776 82.361914 
L 59.20704 96.492445 
L 59.29632 171.615596 
L 59.47488 82.361914 
L 59.56416 96.492445 
L 59.65344 171.615596 
L 59.832 82.361914 
L 59.92128 96.492445 
L 60.01056 171.615596 
L 60.18912 82.361914 
L 60.2784 96.492445 
L 60.36768 171.615596 
L 60.54624 82.361914 
L 60.63552 96.492445 
L 60.7248 171.615596 
L 60.90336 82.361914 
L 60.99264 96.492445 
L 61.08192 171.615596 
L 61.26048 82.361914 
L 61.34976 96.492445 
L 61.43904 171.615596 
L 61.6176 82.361914 
L 61.70688 96.492445 
L 61.79616 171.615596 
L 61.97472 82.361914 
L 62.064 96.492445 
L 62.15328 171.615596 
L 62.33184 82.361914 
L 62.42112 96.492445 
L 62.5104 171.615596 
L 62.68896 82.361914 
L 62.77824 96.492445 
L 62.86752 171.615596 
L 63.04608 82.361914 
L 63.13536 96.492445 
L 63.22464 171.615596 
L 63.4032 82.361914 
L 63.49248 96.492445 
L 63.58176 171.615596 
L 63.76032 82.361914 
L 63.8496 96.492445 
L 63.93888 171.615596 
L 64.11744 82.361914 
L 64.20672 96.492445 
L 64.296 171.615596 
L 64.47456 82.361914 
L 64.56384 96.492445 
L 64.65312 171.615596 
L 64.83168 82.361914 
L 64.92096 96.492445 
L 65.01024 171.615596 
L 65.1888 82.361914 
L 65.27808 96.492445 
L 65.36736 171.615596 
L 65.54592 82.361914 
L 65.6352 96.492445 
L 65.72448 171.615596 
L 65.90304 82.361914 
L 65.99232 96.492445 
L 66.0816 171.615596 
L 66.26016 82.361914 
L 66.34944 96.492445 
L 66.43872 171.615596 
L 66.61728 88.187966 
L 66.70656 107.72852 
L 66.79584 88.260609 
L 66.9744 127.369514 
L 67.15296 68.027003 
L 67.4208 98.738179 
L 67.51008 123.598288 
L 67.68864 82.455327 
L 67.77792 126.204382 
L 67.8672 119.072913 
L 67.95648 73.085114 
L 68.04576 82.9455 
L 68.13504 84.435594 
L 68.22432 69.006925 
L 68.3136 107.890431 
L 68.40288 74.529451 
L 68.49216 104.084272 
L 68.67072 85.521458 
L 68.76 88.063995 
L 68.84928 103.325913 
L 68.93856 84.253514 
L 69.02784 89.216167 
L 69.29568 73.324697 
L 69.38496 86.637205 
L 69.47424 77.141514 
L 69.56352 81.036356 
L 69.6528 111.734332 
L 69.74208 78.357595 
L 69.83136 160.283381 
L 69.92064 94.578335 
L 70.00992 118.087687 
L 70.0992 84.805846 
L 70.36704 122.71834 
L 70.45632 76.508481 
L 70.5456 84.662639 
L 70.63488 82.171842 
L 70.72416 74.022776 
L 70.81344 92.735998 
L 70.90272 73.048706 
L 70.992 112.313818 
L 71.08128 77.751105 
L 71.17056 143.599467 
L 71.25984 67.891081 
L 71.34912 88.655178 
L 71.52768 68.606942 
L 71.61696 70.515513 
L 71.79552 95.305265 
L 71.8848 157.329977 
L 72.06336 83.383642 
L 72.15264 73.980946 
L 72.3312 84.678501 
L 72.42048 85.711974 
L 72.50976 96.086744 
L 72.59904 84.505831 
L 72.68832 173.946643 
L 72.7776 90.371926 
L 72.86688 121.24075 
L 73.04544 84.587454 
L 73.13472 82.403934 
L 73.224 90.093078 
L 73.31328 164.065622 
L 73.40256 69.373357 
L 73.49184 123.214406 
L 73.6704 70.869979 
L 73.75968 129.222334 
L 73.84896 71.714552 
L 73.93824 85.750076 
L 74.1168 124.228887 
L 74.29536 81.724521 
L 74.38464 121.313454 
L 74.5632 67.855156 
L 74.65248 76.004429 
L 74.74176 152.042559 
L 74.83104 145.263639 
L 74.92032 85.234161 
L 75.0096 94.697888 
L 75.09888 96.14707 
L 75.18816 91.40779 
L 75.27744 69.34693 
L 75.36672 76.297918 
L 75.54528 96.304504 
L 75.63456 178.874792 
L 75.81312 79.069147 
L 76.08096 142.47699 
L 76.17024 73.305218 
L 76.25952 104.460702 
L 76.3488 74.316846 
L 76.52736 114.762634 
L 76.61664 72.919551 
L 76.7952 120.039687 
L 76.88448 77.430325 
L 76.97376 81.257888 
L 77.06304 122.03533 
L 77.2416 85.565555 
L 77.33088 74.083745 
L 77.59872 115.972183 
L 77.688 96.383971 
L 77.77728 148.605085 
L 77.95584 74.669852 
L 78.04512 198.703211 
L 78.1344 106.597454 
L 78.22368 125.719619 
L 78.31296 88.569047 
L 78.40224 104.20278 
L 78.5808 75.913777 
L 78.67008 83.507188 
L 78.84864 111.067617 
L 78.93792 109.632535 
L 79.0272 82.958556 
L 79.11648 83.737604 
L 79.29504 115.844739 
L 79.56288 70.565277 
L 79.65216 74.482226 
L 79.74144 86.92706 
L 79.83072 116.271476 
L 80.00928 73.179428 
L 80.09856 105.425872 
L 80.18784 88.592005 
L 80.27712 105.162402 
L 80.3664 68.097845 
L 80.45568 99.154491 
L 80.54496 98.876979 
L 80.63424 82.755686 
L 80.72352 110.452243 
L 80.90208 77.381401 
L 81.08064 122.076992 
L 81.16992 81.614774 
L 81.2592 110.967145 
L 81.43776 81.327612 
L 81.52704 82.31495 
L 81.7056 103.257786 
L 81.79488 81.439399 
L 81.88416 135.038771 
L 81.97344 129.586274 
L 82.152 94.77605 
L 82.24128 79.995804 
L 82.33056 182.848395 
L 82.50912 73.500579 
L 82.5984 75.284614 
L 82.68768 149.046867 
L 82.77696 81.448852 
L 83.0448 173.253338 
L 83.22336 76.448971 
L 83.4912 127.953536 
L 83.58048 81.339684 
L 83.66976 90.259305 
L 83.75904 88.066635 
L 83.9376 69.711562 
L 84.11616 97.339354 
L 84.20544 81.449187 
L 84.384 125.460663 
L 84.56256 71.782332 
L 84.65184 73.037741 
L 84.91968 139.4102 
L 85.00896 93.004733 
L 85.09824 148.342205 
L 85.18752 99.338282 
L 85.2768 111.318101 
L 85.36608 71.383251 
L 85.45536 126.739687 
L 85.63392 70.86887 
L 85.7232 122.406713 
L 85.81248 98.625619 
L 85.90176 119.97495 
L 85.99104 79.883914 
L 86.08032 88.657765 
L 86.1696 80.076799 
L 86.25888 96.643063 
L 86.43744 73.538217 
L 86.52672 118.019045 
L 86.616 69.600759 
L 86.70528 155.648679 
L 86.79456 90.508482 
L 86.88384 93.086851 
L 86.97312 79.962336 
L 87.0624 109.212315 
L 87.24096 77.672106 
L 87.33024 107.942208 
L 87.41952 103.764269 
L 87.5088 83.348191 
L 87.59808 113.637955 
L 87.68736 88.024305 
L 87.77664 95.04723 
L 87.86592 73.835993 
L 87.9552 99.39212 
L 88.04448 66.03525 
L 88.13376 89.286867 
L 88.22304 72.658179 
L 88.31232 78.718716 
L 88.4016 93.704637 
L 88.49088 142.250965 
L 88.58016 98.185046 
L 88.66944 125.757991 
L 88.75872 85.813061 
L 88.848 92.29071 
L 88.93728 75.527597 
L 89.11584 103.760897 
L 89.20512 71.840262 
L 89.47296 132.26038 
L 89.56224 73.691644 
L 89.65152 118.560495 
L 89.7408 113.214857 
L 89.83008 81.367782 
L 89.91936 140.826581 
L 90.00864 89.304094 
L 90.09792 94.891146 
L 90.1872 144.45625 
L 90.27648 78.363886 
L 90.36576 89.850619 
L 90.45504 70.237148 
L 90.54432 201.378844 
L 90.72288 73.157917 
L 90.81216 130.640998 
L 90.90144 87.432763 
L 91.08 136.706679 
L 91.16928 84.669201 
L 91.25856 95.129914 
L 91.34784 90.801445 
L 91.5264 106.864079 
L 91.61568 80.933392 
L 91.70496 95.412824 
L 91.79424 72.553294 
L 91.88352 79.081368 
L 92.06208 110.208769 
L 92.15136 78.794667 
L 92.32992 105.41753 
L 92.4192 107.39802 
L 92.50848 79.788197 
L 92.59776 112.589135 
L 92.68704 109.841899 
L 92.8656 74.254658 
L 93.04416 96.184542 
L 93.13344 69.296211 
L 93.40128 124.699862 
L 93.57984 84.521969 
L 93.7584 90.128175 
L 93.84768 81.426558 
L 93.93696 107.843027 
L 94.02624 92.64603 
L 94.11552 102.658219 
L 94.38336 70.004911 
L 94.47264 77.044823 
L 94.74048 160.538737 
L 94.82976 93.103076 
L 94.91904 123.242678 
L 95.00832 81.25186 
L 95.0976 103.29026 
L 95.18688 91.258348 
L 95.27616 114.817984 
L 95.45472 70.863872 
L 95.63328 98.602165 
L 95.72256 285.408 
L 95.90112 76.922339 
L 95.9904 82.174934 
L 96.07968 110.34068 
L 96.16896 75.012716 
L 96.25824 197.107211 
L 96.4368 66.634757 
L 96.52608 90.523537 
L 96.61536 76.935939 
L 96.70464 87.288879 
L 96.79392 74.636682 
L 96.8832 86.273025 
L 96.97248 76.130443 
L 97.06176 84.579 
L 97.15104 82.610376 
L 97.24032 82.92553 
L 97.3296 78.008139 
L 97.50816 86.360855 
L 97.59744 97.986733 
L 97.776 76.169341 
L 97.86528 86.655372 
L 98.04384 77.275534 
L 98.13312 94.829682 
L 98.2224 73.220771 
L 98.31168 75.894508 
L 98.40096 82.164304 
L 98.49024 67.954638 
L 98.57952 94.091969 
L 98.75808 72.649541 
L 98.84736 74.58122 
L 98.93664 87.028658 
L 99.1152 71.737872 
L 99.20448 114.124556 
L 99.38304 75.132953 
L 99.47232 70.559885 
L 99.65088 121.724596 
L 99.74016 76.791309 
L 99.82944 131.404393 
L 100.008 94.612095 
L 100.09728 102.422328 
L 100.27584 72.481145 
L 100.36512 77.995334 
L 100.4544 93.162983 
L 100.54368 88.940252 
L 100.63296 139.131219 
L 100.81152 83.230086 
L 100.9008 107.43364 
L 100.99008 90.954345 
L 101.07936 101.84889 
L 101.25792 68.836146 
L 101.43648 151.684128 
L 101.52576 88.375729 
L 101.70432 156.341686 
L 101.7936 80.187955 
L 101.88288 85.033556 
L 101.97216 69.689003 
L 102.06144 91.055364 
L 102.15072 81.480669 
L 102.24 82.228116 
L 102.32928 101.592246 
L 102.41856 90.871808 
L 102.50784 98.769879 
L 102.59712 138.574238 
L 102.77568 94.714809 
L 102.95424 71.719513 
L 103.22208 109.105185 
L 103.31136 75.188374 
L 103.40064 142.779353 
L 103.48992 80.650961 
L 103.5792 83.77894 
L 103.75776 68.593831 
L 103.93632 134.374627 
L 104.20416 78.193967 
L 104.29344 81.322571 
L 104.38272 92.036756 
L 104.472 81.246459 
L 104.65056 95.904495 
L 104.73984 70.989102 
L 104.82912 90.525274 
L 104.9184 76.466 
L 105.00768 100.749959 
L 105.18624 78.471503 
L 105.27552 83.674367 
L 105.3648 117.927789 
L 105.63264 69.468097 
L 105.72192 101.295427 
L 105.8112 92.371038 
L 105.90048 69.301923 
L 105.98976 80.52789 
L 106.07904 73.155761 
L 106.16832 132.705221 
L 106.2576 69.526467 
L 106.34688 82.180002 
L 106.43616 76.397533 
L 106.61472 86.778434 
L 106.704 79.175023 
L 106.79328 84.982362 
L 106.88256 79.024529 
L 106.97184 209.236212 
L 107.06112 71.718473 
L 107.1504 85.81853 
L 107.23968 80.497472 
L 107.32896 134.081247 
L 107.41824 67.502543 
L 107.5968 106.712205 
L 107.68608 108.030339 
L 107.77536 74.243165 
L 107.86464 154.894229 
L 108.0432 90.131595 
L 108.13248 94.617679 
L 108.22176 78.250659 
L 108.31104 115.784294 
L 108.40032 87.678863 
L 108.4896 95.002251 
L 108.66816 68.450709 
L 108.84672 76.001992 
L 108.936 111.012432 
L 109.02528 71.142209 
L 109.11456 78.518368 
L 109.29312 98.50162 
L 109.3824 73.204302 
L 109.47168 113.691982 
L 109.65024 74.424408 
L 109.73952 102.776967 
L 109.8288 73.099833 
L 109.91808 74.152001 
L 110.00736 121.526537 
L 110.18592 73.551748 
L 110.2752 74.294242 
L 110.45376 82.776937 
L 110.54304 80.070387 
L 110.63232 113.219325 
L 110.90016 69.655288 
L 111.07872 98.776921 
L 111.168 151.840353 
L 111.25728 83.962029 
L 111.34656 117.559273 
L 111.43584 79.327251 
L 111.52512 104.564072 
L 111.6144 81.125949 
L 111.70368 109.415569 
L 111.88224 82.395305 
L 111.97152 82.267469 
L 112.0608 94.353844 
L 112.15008 79.862053 
L 112.23936 90.224114 
L 112.32864 73.548354 
L 112.41792 76.270889 
L 112.5072 90.491501 
L 112.68576 74.505051 
L 112.77504 104.026282 
L 112.9536 71.694186 
L 113.13216 81.362749 
L 113.22144 76.528121 
L 113.4 83.755046 
L 113.48928 81.585293 
L 113.57856 69.354585 
L 113.66784 79.545866 
L 113.75712 109.487377 
L 113.8464 85.523273 
L 113.93568 100.410728 
L 114.11424 80.10664 
L 114.20352 77.600672 
L 114.2928 106.131643 
L 114.38208 65.890136 
L 114.47136 74.673491 
L 114.56064 121.654534 
L 114.64992 66.204069 
L 114.82848 124.562162 
L 114.91776 76.367928 
L 115.00704 98.225249 
L 115.09632 72.613982 
L 115.1856 98.183185 
L 115.27488 81.838874 
L 115.36416 82.797966 
L 115.45344 75.07291 
L 115.54272 113.791125 
L 115.72128 79.407302 
L 115.81056 77.836186 
L 115.89984 80.099184 
L 116.0784 96.744648 
L 116.16768 164.704211 
L 116.25696 91.696359 
L 116.34624 106.802811 
L 116.43552 106.25721 
L 116.61408 79.24502 
L 116.70336 79.749506 
L 116.79264 186.08394 
L 116.9712 83.388475 
L 117.06048 77.678256 
L 117.23904 114.772513 
L 117.32832 78.934871 
L 117.4176 84.896506 
L 117.50688 70.013142 
L 117.68544 81.044919 
L 117.77472 92.357158 
L 117.95328 73.767584 
L 118.13184 95.938045 
L 118.22112 127.006685 
L 118.39968 88.897885 
L 118.48896 102.944821 
L 118.66752 73.452804 
L 118.84608 100.63081 
L 118.93536 107.170989 
L 119.02464 84.130699 
L 119.2032 121.093413 
L 119.38176 76.58082 
L 119.56032 108.359928 
L 119.6496 82.26069 
L 119.73888 166.391009 
L 119.91744 78.325987 
L 120.00672 158.621668 
L 120.096 98.165227 
L 120.18528 154.908582 
L 120.27456 66.893441 
L 120.36384 86.975954 
L 120.45312 66.09147 
L 120.5424 98.109565 
L 120.63168 96.506843 
L 120.81024 65.728086 
L 120.89952 76.849511 
L 120.9888 67.404571 
L 121.07808 94.331299 
L 121.16736 70.560987 
L 121.25664 77.266454 
L 121.34592 77.18864 
L 121.4352 127.931535 
L 121.52448 103.416969 
L 121.61376 161.254956 
L 121.70304 80.832694 
L 121.79232 91.89146 
L 121.8816 93.870507 
L 121.97088 75.465232 
L 122.06016 99.30245 
L 122.14944 81.930933 
L 122.23872 180.163655 
L 122.328 76.844057 
L 122.41728 85.46361 
L 122.50656 82.29709 
L 122.59584 103.01569 
L 122.7744 68.951862 
L 122.86368 106.799208 
L 122.95296 77.485066 
L 123.04224 121.780425 
L 123.2208 78.915036 
L 123.39936 97.574346 
L 123.48864 75.223917 
L 123.57792 100.53517 
L 123.6672 181.934554 
L 123.84576 74.89013 
L 123.93504 67.932077 
L 124.02432 163.092316 
L 124.1136 85.311447 
L 124.20288 85.373062 
L 124.29216 93.137799 
L 124.38144 83.653656 
L 124.47072 160.85469 
L 124.56 70.175929 
L 124.64928 76.833875 
L 124.73856 141.543948 
L 124.91712 74.748923 
L 125.0064 84.597323 
L 125.18496 109.663991 
L 125.27424 84.559457 
L 125.4528 128.681542 
L 125.54208 113.324424 
L 125.63136 126.015174 
L 125.80992 85.335962 
L 125.8992 71.837101 
L 125.98848 112.549375 
L 126.07776 65.774634 
L 126.16704 82.149699 
L 126.25632 66.165541 
L 126.3456 104.757212 
L 126.43488 69.985465 
L 126.52416 78.64085 
L 126.792 166.59544 
L 126.88128 105.852287 
L 126.97056 140.671203 
L 127.05984 83.268604 
L 127.14912 112.030946 
L 127.2384 108.806756 
L 127.32768 81.575908 
L 127.41696 96.86728 
L 127.50624 146.234582 
L 127.6848 81.058462 
L 127.77408 79.477304 
L 127.95264 117.25751 
L 128.1312 74.478195 
L 128.22048 73.055767 
L 128.30976 120.922192 
L 128.39904 72.755164 
L 128.48832 77.914453 
L 128.5776 97.700059 
L 128.66688 91.775976 
L 128.75616 76.267245 
L 128.84544 82.377868 
L 129.024 139.441269 
L 129.11328 69.928528 
L 129.20256 114.618133 
L 129.29184 76.215015 
L 129.4704 93.010178 
L 129.55968 73.087097 
L 129.73824 113.820975 
L 129.9168 72.027206 
L 130.00608 96.295052 
L 130.09536 73.541106 
L 130.18464 75.786341 
L 130.27392 78.782916 
L 130.3632 75.193984 
L 130.45248 129.459845 
L 130.63104 66.041356 
L 130.72032 96.188254 
L 130.8096 76.642838 
L 130.89888 110.56221 
L 130.98816 87.031059 
L 131.07744 93.817768 
L 131.16672 79.333806 
L 131.256 89.405685 
L 131.34528 75.082601 
L 131.43456 95.750454 
L 131.52384 66.933436 
L 131.61312 119.724992 
L 131.7024 73.295488 
L 131.79168 82.308357 
L 131.97024 75.796993 
L 132.05952 98.270784 
L 132.1488 69.880176 
L 132.23808 83.335777 
L 132.32736 74.819023 
L 132.50592 131.935418 
L 132.5952 69.932522 
L 132.68448 88.732157 
L 132.77376 142.801427 
L 132.86304 78.801763 
L 132.95232 99.133829 
L 133.13088 71.225467 
L 133.22016 101.490357 
L 133.488 76.778958 
L 133.57728 86.207926 
L 133.66656 66.393057 
L 133.75584 73.025834 
L 133.84512 109.785614 
L 134.02368 75.465103 
L 134.29152 86.204392 
L 134.3808 85.536477 
L 134.47008 86.909732 
L 134.55936 101.301727 
L 134.64864 79.680751 
L 134.73792 116.358828 
L 134.8272 76.191555 
L 134.91648 82.493976 
L 135.00576 88.536818 
L 135.09504 86.022814 
L 135.18432 73.903262 
L 135.36288 173.099688 
L 135.45216 90.64115 
L 135.54144 126.282316 
L 135.63072 79.73366 
L 135.72 97.431873 
L 135.89856 75.326638 
L 135.98784 85.312778 
L 136.07712 69.121313 
L 136.25568 127.373717 
L 136.43424 103.105993 
L 136.70208 77.009309 
L 136.79136 153.036737 
L 136.96992 81.304274 
L 137.0592 82.179207 
L 137.14848 95.804848 
L 137.23776 76.91952 
L 137.32704 78.124721 
L 137.5056 91.968629 
L 137.59488 176.140054 
L 137.68416 95.161803 
L 137.77344 104.540004 
L 137.952 76.647574 
L 138.04128 145.224855 
L 138.13056 137.899458 
L 138.30912 79.258231 
L 138.3984 95.574467 
L 138.57696 81.451721 
L 138.66624 87.776142 
L 138.75552 85.438305 
L 138.8448 86.04161 
L 138.93408 69.289932 
L 139.20192 93.397229 
L 139.38048 79.136674 
L 139.46976 76.110056 
L 139.55904 85.220245 
L 139.7376 73.323413 
L 139.91616 143.03205 
L 140.09472 73.005413 
L 140.184 91.964831 
L 140.27328 153.624187 
L 140.36256 74.541226 
L 140.45184 91.70165 
L 140.54112 70.193119 
L 140.6304 72.181477 
L 140.89824 114.353115 
L 141.0768 101.268206 
L 141.16608 129.981583 
L 141.25536 81.602421 
L 141.34464 117.505596 
L 141.43392 74.313156 
L 141.5232 74.67321 
L 141.61248 79.922581 
L 141.79104 111.825211 
L 141.88032 79.722105 
L 142.05888 104.060266 
L 142.14816 82.767836 
L 142.23744 91.75368 
L 142.32672 65.555044 
L 142.416 103.896662 
L 142.59456 71.231749 
L 142.68384 79.771189 
L 142.77312 148.391906 
L 142.8624 129.163225 
L 142.95168 77.755634 
L 143.04096 80.170272 
L 143.13024 110.380964 
L 143.3088 73.65694 
L 143.39808 109.282747 
L 143.48736 74.336448 
L 143.57664 81.303558 
L 143.84448 115.258049 
L 143.93376 74.971886 
L 144.11232 89.560984 
L 144.2016 94.95394 
L 144.46944 75.291733 
L 144.648 85.177799 
L 144.73728 79.831468 
L 144.82656 80.228501 
L 144.91584 80.78313 
L 145.0944 110.357647 
L 145.18368 85.053536 
L 145.27296 88.94632 
L 145.45152 67.813848 
L 145.63008 95.798136 
L 145.80864 66.535238 
L 145.89792 101.353355 
L 145.9872 83.212395 
L 146.07648 87.04427 
L 146.16576 101.504988 
L 146.25504 166.160911 
L 146.34432 71.426951 
L 146.4336 106.273421 
L 146.52288 74.895333 
L 146.61216 76.26791 
L 146.70144 72.982168 
L 146.79072 87.570178 
L 146.88 83.45496 
L 146.96928 117.439239 
L 147.05856 105.316762 
L 147.14784 72.416647 
L 147.23712 78.736499 
L 147.3264 74.386855 
L 147.41568 96.521093 
L 147.59424 75.783559 
L 147.68352 77.519801 
L 147.7728 76.689261 
L 147.86208 70.197232 
L 147.95136 81.700219 
L 148.04064 74.235608 
L 148.12992 138.091022 
L 148.2192 69.643377 
L 148.30848 83.048549 
L 148.39776 66.842147 
L 148.48704 84.300327 
L 148.57632 66.241744 
L 148.75488 125.620615 
L 148.84416 70.892817 
L 148.93344 89.940795 
L 149.02272 67.105829 
L 149.112 70.383241 
L 149.37984 118.979845 
L 149.5584 90.266469 
L 149.64768 84.355604 
L 149.73696 159.881583 
L 149.91552 89.664439 
L 150.0048 91.082178 
L 150.18336 67.895502 
L 150.27264 75.633857 
L 150.36192 104.640507 
L 150.54048 74.377421 
L 150.62976 113.113844 
L 150.80832 76.690878 
L 150.8976 119.009928 
L 151.07616 65.979455 
L 151.16544 73.39011 
L 151.25472 96.461534 
L 151.43328 65.21673 
L 151.52256 74.245947 
L 151.61184 98.312707 
L 151.7904 79.570773 
L 151.87968 105.963339 
L 151.96896 87.444286 
L 152.05824 91.545076 
L 152.14752 146.395403 
L 152.32608 79.92503 
L 152.41536 80.477226 
L 152.50464 153.00752 
L 152.6832 93.217424 
L 152.95104 71.087627 
L 153.04032 99.079771 
L 153.1296 93.707881 
L 153.30816 77.904203 
L 153.39744 99.038867 
L 153.48672 65.981461 
L 153.75456 146.425105 
L 153.93312 74.827161 
L 154.0224 75.504721 
L 154.11168 108.884021 
L 154.29024 75.763762 
L 154.37952 113.571139 
L 154.55808 71.664582 
L 154.64736 68.322513 
L 154.82592 76.107805 
L 154.9152 93.307439 
L 155.00448 80.812727 
L 155.09376 95.728121 
L 155.18304 67.083328 
L 155.27232 67.38564 
L 155.45088 114.490998 
L 155.54016 68.328598 
L 155.71872 92.288374 
L 155.808 78.024073 
L 155.89728 99.832824 
L 155.98656 81.960348 
L 156.07584 111.284142 
L 156.16512 79.362942 
L 156.2544 103.239094 
L 156.43296 78.395491 
L 156.52224 113.088495 
L 156.61152 78.183089 
L 156.7008 80.380406 
L 156.79008 72.85776 
L 156.87936 128.230909 
L 156.96864 70.023717 
L 157.05792 83.863799 
L 157.1472 69.183855 
L 157.32576 103.472135 
L 157.41504 67.753149 
L 157.5936 152.416168 
L 157.77216 75.113163 
L 157.95072 110.088389 
L 158.04 73.215821 
L 158.21856 104.611774 
L 158.30784 67.033591 
L 158.39712 72.854664 
L 158.57568 107.83919 
L 158.66496 92.96651 
L 158.75424 105.187663 
L 158.84352 67.690406 
L 158.9328 75.786351 
L 159.02208 76.83974 
L 159.11136 66.985566 
L 159.20064 72.457433 
L 159.28992 93.002678 
L 159.46848 72.366665 
L 159.55776 70.795613 
L 159.64704 72.283416 
L 159.73632 85.708309 
L 159.8256 69.227108 
L 160.00416 86.012481 
L 160.09344 70.116479 
L 160.272 85.554936 
L 160.36128 87.987635 
L 160.45056 79.588334 
L 160.53984 87.703203 
L 160.62912 147.2496 
L 160.7184 69.424175 
L 160.80768 86.867827 
L 160.98624 65.795534 
L 161.07552 75.943739 
L 161.1648 69.603747 
L 161.43264 93.603547 
L 161.6112 75.561541 
L 161.78976 86.889652 
L 161.96832 113.229575 
L 162.0576 66.14764 
L 162.14688 70.527864 
L 162.23616 131.759655 
L 162.32544 91.648421 
L 162.41472 96.640936 
L 162.59328 71.310463 
L 162.68256 79.49898 
L 162.77184 74.134022 
L 162.86112 89.580875 
L 162.9504 79.526822 
L 163.03968 102.162287 
L 163.12896 89.432737 
L 163.21824 93.87394 
L 163.30752 71.488184 
L 163.3968 76.81676 
L 163.48608 88.649484 
L 163.66464 81.132161 
L 163.75392 108.083459 
L 163.8432 84.60868 
L 163.93248 89.007339 
L 164.02176 101.95123 
L 164.20032 81.615814 
L 164.2896 91.931526 
L 164.37888 70.576584 
L 164.46816 72.459401 
L 164.55744 142.643684 
L 164.736 67.132136 
L 164.82528 74.879663 
L 164.91456 157.436576 
L 165.09312 77.147163 
L 165.1824 179.31262 
L 165.27168 94.968451 
L 165.36096 103.79292 
L 165.45024 122.485387 
L 165.6288 82.821568 
L 165.71808 68.221922 
L 165.80736 147.467864 
L 165.98592 74.650687 
L 166.0752 108.725637 
L 166.34304 71.529167 
L 166.5216 103.730729 
L 166.61088 77.209308 
L 166.70016 78.163109 
L 166.78944 117.929982 
L 166.87872 65.909101 
L 166.968 76.241659 
L 167.05728 78.112599 
L 167.14656 73.334666 
L 167.23584 79.855843 
L 167.32512 71.748566 
L 167.4144 81.343661 
L 167.50368 126.754257 
L 167.59296 78.09009 
L 167.68224 124.792754 
L 167.77152 79.020671 
L 167.8608 80.219465 
L 167.95008 99.106258 
L 168.03936 96.993339 
L 168.21792 69.614759 
L 168.3072 74.066941 
L 168.48576 111.916795 
L 168.93216 70.39258 
L 169.11072 80.798505 
L 169.2 71.382866 
L 169.28928 109.871475 
L 169.37856 80.810745 
L 169.55712 99.129578 
L 169.6464 77.78761 
L 169.73568 80.568498 
L 169.82496 80.999422 
L 169.91424 96.676384 
L 170.00352 91.620916 
L 170.18208 67.416232 
L 170.27136 78.460683 
L 170.36064 69.630931 
L 170.44992 70.069161 
L 170.5392 106.035547 
L 170.62848 71.785378 
L 170.71776 95.400201 
L 170.80704 80.444287 
L 170.89632 83.093644 
L 170.9856 79.440254 
L 171.07488 105.813991 
L 171.16416 66.198305 
L 171.25344 67.466271 
L 171.34272 81.14453 
L 171.432 69.269122 
L 171.52128 89.698448 
L 171.61056 84.723288 
L 171.69984 93.753297 
L 171.78912 93.694498 
L 172.05696 66.648472 
L 172.14624 135.296171 
L 172.3248 79.804633 
L 172.41408 97.731256 
L 172.68192 70.688281 
L 172.86048 91.362555 
L 172.94976 71.368874 
L 173.03904 78.407229 
L 173.12832 155.098943 
L 173.2176 155.036557 
L 173.30688 77.379647 
L 173.39616 81.650793 
L 173.57472 71.586923 
L 173.664 74.910204 
L 173.75328 80.87349 
L 173.84256 73.554616 
L 173.93184 127.49396 
L 174.02112 64.511712 
L 174.1104 76.395495 
L 174.19968 93.051583 
L 174.28896 68.98372 
L 174.37824 87.30458 
L 174.64608 69.456955 
L 174.73536 83.901862 
L 174.82464 135.244758 
L 175.0032 85.097727 
L 175.09248 75.668641 
L 175.36032 94.931073 
L 175.62816 67.031579 
L 175.896 101.962778 
L 175.98528 72.088973 
L 176.07456 72.417673 
L 176.25312 95.06767 
L 176.3424 73.356719 
L 176.43168 112.744291 
L 176.61024 74.714985 
L 176.69952 91.157652 
L 176.7888 65.851952 
L 176.96736 91.778304 
L 177.05664 70.324101 
L 177.2352 104.391321 
L 177.41376 76.867742 
L 177.50304 138.323633 
L 177.59232 80.658562 
L 177.6816 95.627302 
L 177.77088 78.745412 
L 177.86016 96.324934 
L 177.94944 66.435283 
L 178.03872 68.340432 
L 178.128 87.371302 
L 178.21728 67.34295 
L 178.30656 73.845578 
L 178.39584 104.705614 
L 178.75296 74.313117 
L 178.84224 98.051984 
L 178.93152 68.75866 
L 179.0208 112.535748 
L 179.11008 76.634461 
L 179.19936 80.836526 
L 179.28864 115.670018 
L 179.55648 70.861139 
L 179.64576 70.970713 
L 179.9136 105.328669 
L 180.00288 64.641862 
L 180.09216 110.847856 
L 180.27072 77.390921 
L 180.44928 67.16779 
L 180.53856 77.578807 
L 180.62784 69.884405 
L 180.71712 89.124088 
L 180.8064 77.475114 
L 180.89568 108.323662 
L 180.98496 65.94993 
L 181.07424 71.86471 
L 181.16352 88.804141 
L 181.2528 83.831987 
L 181.34208 67.223686 
L 181.43136 71.858101 
L 181.52064 69.236266 
L 181.60992 69.761365 
L 181.6992 72.415914 
L 181.78848 95.27296 
L 181.87776 76.309523 
L 181.96704 101.31623 
L 182.05632 78.273899 
L 182.1456 95.106064 
L 182.23488 82.62364 
L 182.32416 108.462544 
L 182.41344 68.105538 
L 182.50272 103.293011 
L 182.592 67.067795 
L 182.68128 97.533305 
L 182.77056 70.824273 
L 182.85984 88.284704 
L 182.94912 77.194459 
L 183.0384 83.089208 
L 183.12768 79.941256 
L 183.21696 80.53779 
L 183.30624 68.786281 
L 183.39552 72.462889 
L 183.4848 92.926948 
L 183.57408 67.211495 
L 183.66336 85.954657 
L 183.75264 71.190983 
L 183.84192 78.76662 
L 183.9312 67.625699 
L 184.10976 77.064074 
L 184.19904 68.001909 
L 184.28832 131.285931 
L 184.3776 80.605043 
L 184.46688 83.729154 
L 184.55616 89.290081 
L 184.64544 67.722754 
L 184.73472 68.871686 
L 184.824 77.621979 
L 184.91328 72.528977 
L 185.00256 76.255104 
L 185.09184 70.10765 
L 185.18112 88.370285 
L 185.2704 76.793821 
L 185.35968 77.791854 
L 185.44896 73.604047 
L 185.53824 76.459483 
L 185.62752 73.341461 
L 185.7168 93.31298 
L 185.89536 69.523304 
L 185.98464 71.914445 
L 186.07392 66.633287 
L 186.1632 73.775971 
L 186.25248 73.207674 
L 186.34176 76.967061 
L 186.43104 68.593754 
L 186.52032 87.507874 
L 186.6096 73.681207 
L 186.69888 85.984565 
L 186.78816 72.7751 
L 186.87744 88.076051 
L 186.96672 85.42955 
L 187.14528 66.514442 
L 187.23456 104.564914 
L 187.41312 66.57583 
L 187.5024 77.025562 
L 187.59168 73.941687 
L 187.68096 78.485262 
L 187.77024 75.259612 
L 187.85952 122.848796 
L 187.9488 70.902725 
L 188.03808 76.477821 
L 188.12736 81.506239 
L 188.30592 75.182938 
L 188.3952 98.829679 
L 188.48448 67.229433 
L 188.66304 89.280634 
L 188.75232 87.62156 
L 188.93088 71.718941 
L 189.02016 85.120273 
L 189.19872 71.777958 
L 189.288 103.820016 
L 189.37728 103.120488 
L 189.55584 87.346674 
L 189.64512 81.519803 
L 189.7344 104.032294 
L 189.91296 66.734608 
L 190.00224 100.497229 
L 190.09152 70.475426 
L 190.1808 78.689936 
L 190.35936 69.622489 
L 190.53792 93.754464 
L 190.6272 71.609383 
L 190.80576 87.41875 
L 190.89504 85.850049 
L 190.98432 75.203484 
L 191.0736 82.012802 
L 191.16288 109.679948 
L 191.34144 73.940257 
L 191.43072 71.205492 
L 191.52 97.060501 
L 191.60928 64.225205 
L 191.69856 71.031421 
L 191.78784 65.296072 
L 191.87712 66.187983 
L 191.9664 110.714196 
L 192.14496 70.937709 
L 192.23424 65.005079 
L 192.32352 79.95445 
L 192.4128 75.139586 
L 192.50208 81.24505 
L 192.59136 73.536046 
L 192.68064 83.055938 
L 192.76992 69.073523 
L 192.8592 70.397236 
L 192.94848 86.18414 
L 193.03776 70.317262 
L 193.12704 72.808312 
L 193.3056 77.878017 
L 193.48416 68.585856 
L 193.84128 107.369797 
L 194.01984 77.079834 
L 194.10912 85.336264 
L 194.1984 76.844005 
L 194.28768 79.435601 
L 194.46624 68.786288 
L 194.55552 80.478788 
L 194.82336 67.174839 
L 194.91264 71.174319 
L 195.00192 86.585112 
L 195.0912 75.462116 
L 195.18048 81.995243 
L 195.26976 79.409393 
L 195.35904 90.362123 
L 195.44832 85.855285 
L 195.62688 73.721533 
L 195.71616 72.729619 
L 195.80544 86.242524 
L 195.984 75.968773 
L 196.07328 101.499225 
L 196.25184 66.63963 
L 196.34112 76.088809 
L 196.4304 72.034359 
L 196.60896 80.425401 
L 196.78752 77.082395 
L 196.8768 77.875124 
L 196.96608 105.197661 
L 197.14464 75.047666 
L 197.23392 84.596954 
L 197.3232 77.166939 
L 197.41248 79.968292 
L 197.50176 78.415221 
L 197.59104 80.215284 
L 197.68032 74.877295 
L 197.85888 81.980174 
L 197.94816 93.37466 
L 198.03744 73.339155 
L 198.12672 78.419061 
L 198.216 77.703246 
L 198.39456 74.749488 
L 198.48384 87.697502 
L 198.57312 83.301003 
L 198.6624 73.375869 
L 198.75168 86.212462 
L 198.84096 83.97728 
L 198.93024 71.244294 
L 199.01952 71.484499 
L 199.1088 79.43402 
L 199.28736 67.492092 
L 199.37664 98.516057 
L 199.46592 70.062036 
L 199.5552 71.082116 
L 199.64448 80.024435 
L 199.73376 78.194337 
L 199.82304 71.978774 
L 199.91232 72.975804 
L 200.0016 74.33559 
L 200.09088 68.741488 
L 200.18016 75.962296 
L 200.26944 98.208359 
L 200.35872 64.520113 
L 200.448 87.057555 
L 200.71584 65.611452 
L 200.8944 68.558682 
L 200.98368 105.204415 
L 201.16224 82.137879 
L 201.25152 97.776391 
L 201.3408 77.201259 
L 201.43008 78.525636 
L 201.51936 87.876373 
L 201.60864 78.706347 
L 201.69792 78.753783 
L 201.7872 87.906986 
L 202.05504 71.506767 
L 202.14432 73.719956 
L 202.2336 71.693867 
L 202.32288 75.714165 
L 202.41216 157.004945 
L 202.50144 75.202679 
L 202.59072 83.058744 
L 202.68 68.528178 
L 202.85856 77.508645 
L 202.94784 99.784109 
L 203.03712 64.753908 
L 203.1264 82.501219 
L 203.30496 69.215189 
L 203.39424 73.596626 
L 203.48352 87.963005 
L 203.5728 65.18979 
L 203.66208 105.039232 
L 203.75136 74.949889 
L 203.84064 80.835513 
L 203.92992 78.96718 
L 204.0192 69.990659 
L 204.19776 94.045246 
L 204.28704 76.069447 
L 204.37632 109.056369 
L 204.4656 72.00596 
L 204.55488 72.462404 
L 204.64416 74.857563 
L 204.73344 81.852017 
L 204.912 76.284385 
L 205.00128 117.022724 
L 205.17984 70.691693 
L 205.26912 65.646515 
L 205.53696 72.133884 
L 205.62624 118.451322 
L 205.71552 69.760638 
L 205.8048 76.734306 
L 205.89408 92.835932 
L 205.98336 90.294604 
L 206.16192 66.912277 
L 206.2512 87.534975 
L 206.34048 67.949594 
L 206.42976 75.121358 
L 206.51904 74.214477 
L 206.60832 74.88781 
L 206.6976 78.20408 
L 206.78688 75.676126 
L 206.87616 64.278047 
L 206.96544 66.193097 
L 207.05472 77.108253 
L 207.144 130.152259 
L 207.32256 70.114805 
L 207.50112 100.978671 
L 207.5904 71.367657 
L 207.67968 74.541367 
L 207.76896 74.69263 
L 207.85824 71.470307 
L 207.94752 104.144221 
L 208.0368 68.435761 
L 208.21536 107.487851 
L 208.30464 79.700776 
L 208.39392 110.706835 
L 208.57248 67.482138 
L 208.66176 94.333395 
L 208.75104 73.31204 
L 208.84032 83.388614 
L 209.01888 73.562477 
L 209.10816 72.147961 
L 209.19744 78.781039 
L 209.28672 99.301012 
L 209.46528 66.440838 
L 209.55456 83.49539 
L 209.73312 77.3738 
L 209.8224 94.028491 
L 209.91168 68.899332 
L 210.09024 89.25137 
L 210.17952 65.906929 
L 210.2688 71.969923 
L 210.35808 69.601634 
L 210.44736 96.791919 
L 210.53664 71.942525 
L 210.62592 75.657451 
L 210.7152 86.489888 
L 210.80448 75.594905 
L 210.89376 102.62745 
L 210.98304 78.175848 
L 211.07232 78.898799 
L 211.1616 95.105392 
L 211.34016 69.974617 
L 211.42944 86.185545 
L 211.51872 72.946014 
L 211.608 95.853235 
L 211.78656 74.338443 
L 211.87584 77.718331 
L 211.96512 65.437028 
L 212.0544 132.58422 
L 212.23296 74.106005 
L 212.32224 76.462579 
L 212.41152 76.595499 
L 212.5008 86.185271 
L 212.59008 69.026916 
L 212.67936 73.245711 
L 212.76864 85.045119 
L 213.03648 67.932502 
L 213.12576 85.58137 
L 213.21504 69.785306 
L 213.30432 90.422973 
L 213.3936 71.276254 
L 213.48288 75.551975 
L 213.66144 107.88095 
L 213.84 71.291213 
L 213.92928 64.872914 
L 214.01856 68.425632 
L 214.10784 85.250771 
L 214.19712 74.361823 
L 214.2864 74.44251 
L 214.37568 68.553924 
L 214.46496 87.173749 
L 214.55424 75.660664 
L 214.64352 88.358998 
L 214.7328 83.419777 
L 214.82208 84.957747 
L 214.91136 81.416562 
L 215.08992 68.102228 
L 215.1792 65.84077 
L 215.26848 71.450439 
L 215.35776 70.359006 
L 215.44704 102.447684 
L 215.6256 71.281893 
L 215.71488 82.727984 
L 215.89344 66.365724 
L 216.072 86.373986 
L 216.16128 94.800863 
L 216.33984 74.38004 
L 216.42912 90.808297 
L 216.5184 87.101848 
L 216.60768 94.125813 
L 216.69696 71.367024 
L 216.78624 90.673504 
L 216.87552 74.890135 
L 216.9648 86.286762 
L 217.14336 70.456063 
L 217.23264 83.352552 
L 217.32192 66.320123 
L 217.50048 88.26406 
L 217.58976 73.687307 
L 217.67904 93.496589 
L 217.8576 77.504463 
L 217.94688 101.599964 
L 218.12544 72.332399 
L 218.21472 76.582566 
L 218.304 88.212458 
L 218.39328 70.928735 
L 218.48256 72.014489 
L 218.57184 67.60849 
L 218.66112 71.672678 
L 218.7504 86.713543 
L 218.83968 72.87676 
L 219.01824 93.155626 
L 219.10752 67.800622 
L 219.1968 96.889143 
L 219.28608 67.930917 
L 219.37536 80.743226 
L 219.46464 80.729725 
L 219.55392 87.941253 
L 219.6432 81.67066 
L 219.73248 64.258443 
L 219.91104 83.209505 
L 220.00032 109.848245 
L 220.17888 79.309152 
L 220.26816 69.745166 
L 220.35744 87.106394 
L 220.536 71.855278 
L 220.62528 74.513362 
L 220.71456 85.462498 
L 220.80384 71.183658 
L 220.89312 84.023122 
L 220.9824 83.266895 
L 221.25024 64.285687 
L 221.33952 68.570472 
L 221.4288 79.091873 
L 221.51808 69.256169 
L 221.78592 87.065056 
L 221.8752 73.477049 
L 221.96448 75.343321 
L 222.05376 96.265743 
L 222.14304 72.408765 
L 222.23232 82.804826 
L 222.3216 69.5396 
L 222.41088 84.953703 
L 222.58944 63.910005 
L 222.768 99.742481 
L 222.85728 74.452675 
L 222.94656 80.314087 
L 223.03584 85.61553 
L 223.12512 82.870579 
L 223.2144 94.292015 
L 223.30368 71.353199 
L 223.39296 71.914351 
L 223.48224 64.48338 
L 223.57152 77.711146 
L 223.75008 66.709889 
L 223.83936 70.288333 
L 223.92864 64.948007 
L 224.01792 76.198536 
L 224.1072 72.484159 
L 224.28576 78.700384 
L 224.37504 64.587707 
L 224.46432 90.241791 
L 224.5536 75.510688 
L 224.64288 91.441619 
L 224.73216 67.804127 
L 225 89.898273 
L 225.17856 73.336844 
L 225.35712 76.759037 
L 225.4464 71.005598 
L 225.80352 87.909653 
L 225.8928 115.059533 
L 226.07136 73.72841 
L 226.16064 79.884345 
L 226.24992 72.476397 
L 226.3392 75.573059 
L 226.42848 68.723332 
L 226.51776 71.992573 
L 226.60704 91.52414 
L 226.69632 74.925891 
L 226.7856 78.454526 
L 226.96416 87.297249 
L 227.05344 75.80684 
L 227.14272 76.337786 
L 227.232 87.417007 
L 227.32128 81.800969 
L 227.41056 87.403431 
L 227.58912 64.973785 
L 227.6784 73.328385 
L 227.76768 72.201671 
L 227.85696 72.472136 
L 227.94624 66.0483 
L 228.03552 83.290428 
L 228.1248 64.469059 
L 228.21408 66.935125 
L 228.30336 66.358529 
L 228.48192 87.43903 
L 228.5712 68.728545 
L 228.66048 106.663718 
L 228.83904 65.276124 
L 228.92832 76.068463 
L 229.0176 72.119863 
L 229.10688 72.230649 
L 229.28544 76.649168 
L 229.37472 67.931957 
L 229.464 69.231282 
L 229.55328 73.667277 
L 229.64256 119.410167 
L 229.73184 74.46701 
L 229.82112 86.546515 
L 229.99968 64.724165 
L 230.08896 86.858989 
L 230.17824 72.313301 
L 230.26752 93.35462 
L 230.3568 69.996991 
L 230.44608 82.92687 
L 230.62464 76.404972 
L 230.71392 99.638053 
L 230.8032 66.082649 
L 230.89248 74.306329 
L 230.98176 72.354063 
L 231.07104 66.270517 
L 231.16032 82.165262 
L 231.2496 75.559311 
L 231.33888 78.322346 
L 231.42816 85.493296 
L 231.51744 70.491329 
L 231.60672 74.369037 
L 231.78528 105.998361 
L 231.87456 76.012917 
L 231.96384 80.562771 
L 232.05312 73.358353 
L 232.23168 90.135915 
L 232.32096 86.157843 
L 232.5888 68.582418 
L 232.67808 70.280135 
L 232.76736 90.047377 
L 232.85664 66.439487 
L 232.94592 71.904031 
L 233.0352 74.434083 
L 233.21376 65.566707 
L 233.39232 73.839078 
L 233.4816 99.600081 
L 233.66016 75.582998 
L 233.74944 68.098631 
L 233.83872 86.437621 
L 234.01728 64.495844 
L 234.10656 77.991662 
L 234.19584 74.761131 
L 234.3744 76.247108 
L 234.55296 71.102374 
L 234.64224 77.177412 
L 234.73152 64.769263 
L 234.99936 84.774611 
L 235.08864 91.32983 
L 235.2672 75.690936 
L 235.35648 73.682768 
L 235.44576 136.517401 
L 235.62432 72.374473 
L 235.7136 65.409701 
L 235.80288 73.497135 
L 235.89216 69.228316 
L 236.07072 88.071181 
L 236.16 80.794114 
L 236.24928 89.278779 
L 236.33856 65.411358 
L 236.42784 67.932501 
L 236.51712 71.344514 
L 236.78496 64.387085 
L 236.87424 78.282927 
L 236.96352 66.783785 
L 237.14208 94.114838 
L 237.23136 94.438149 
L 237.32064 137.044669 
L 237.40992 64.767581 
L 237.4992 77.035092 
L 237.58848 89.591465 
L 237.67776 75.650759 
L 237.76704 76.546898 
L 237.9456 67.375792 
L 238.21344 87.802938 
L 238.392 72.457393 
L 238.57056 78.195673 
L 238.65984 77.448514 
L 238.74912 75.187152 
L 238.8384 80.100019 
L 238.92768 67.600136 
L 239.01696 82.842628 
L 239.10624 74.249057 
L 239.19552 95.317216 
L 239.2848 69.356593 
L 239.37408 73.581999 
L 239.46336 88.755341 
L 239.55264 75.392792 
L 239.64192 89.704507 
L 239.7312 65.745245 
L 239.82048 73.504144 
L 239.90976 66.522797 
L 240.08832 83.973601 
L 240.1776 70.056969 
L 240.26688 73.338875 
L 240.35616 77.084206 
L 240.44544 73.395183 
L 240.53472 85.424314 
L 240.624 65.773292 
L 240.71328 78.484953 
L 240.98112 71.438773 
L 241.0704 72.35947 
L 241.15968 67.465451 
L 241.24896 135.992711 
L 241.33824 72.819409 
L 241.42752 73.132219 
L 241.5168 66.267749 
L 241.60608 70.344246 
L 241.69536 68.043127 
L 241.78464 69.973571 
L 241.87392 68.432612 
L 242.05248 75.289146 
L 242.14176 72.835138 
L 242.23104 75.093216 
L 242.32032 84.314168 
L 242.58816 67.314511 
L 242.67744 107.981599 
L 242.856 71.520223 
L 242.94528 89.677565 
L 243.03456 84.613683 
L 243.12384 72.969393 
L 243.21312 73.167882 
L 243.3024 89.43878 
L 243.39168 68.779386 
L 243.48096 78.010828 
L 243.65952 67.882227 
L 243.7488 73.344696 
L 243.83808 68.509705 
L 243.92736 83.825299 
L 244.01664 79.187609 
L 244.10592 63.767693 
L 244.1952 71.801221 
L 244.28448 70.550456 
L 244.37376 75.100249 
L 244.46304 85.687254 
L 244.55232 63.673987 
L 244.6416 74.298501 
L 244.73088 70.490352 
L 244.82016 85.228049 
L 245.088 65.797386 
L 245.17728 77.681976 
L 245.26656 70.627739 
L 245.35584 79.037491 
L 245.5344 68.506433 
L 245.62368 93.582453 
L 245.89152 68.368804 
L 245.9808 71.459437 
L 246.07008 87.56244 
L 246.24864 72.326817 
L 246.33792 75.24603 
L 246.4272 87.499428 
L 246.60576 71.365599 
L 246.69504 79.008468 
L 246.78432 64.482843 
L 246.8736 76.91821 
L 246.96288 66.932704 
L 247.14144 73.865723 
L 247.23072 64.709097 
L 247.58784 88.842964 
L 247.7664 71.967743 
L 247.85568 72.932402 
L 248.03424 95.373207 
L 248.2128 69.893901 
L 248.48064 79.022232 
L 248.56992 68.277403 
L 248.6592 92.865247 
L 248.83776 75.86977 
L 248.92704 83.32654 
L 249.01632 65.684685 
L 249.1056 66.135983 
L 249.28416 73.221556 
L 249.37344 69.08829 
L 249.46272 102.286646 
L 249.64128 72.53358 
L 249.73056 95.319929 
L 249.81984 74.149482 
L 249.90912 92.555441 
L 249.9984 66.490027 
L 250.08768 78.066751 
L 250.17696 68.506585 
L 250.26624 93.779786 
L 250.4448 72.773535 
L 250.53408 75.472835 
L 250.62336 76.732916 
L 250.71264 80.475338 
L 250.80192 70.901639 
L 250.8912 72.686051 
L 250.98048 72.660132 
L 251.06976 72.392983 
L 251.15904 75.456955 
L 251.3376 63.958327 
L 251.51616 83.733974 
L 251.60544 65.557865 
L 251.69472 70.145609 
L 251.784 66.16671 
L 251.87328 72.245085 
L 251.96256 71.319617 
L 252.05184 67.260018 
L 252.14112 73.227818 
L 252.31968 65.876671 
L 252.49824 79.95326 
L 252.58752 87.146822 
L 252.6768 66.850395 
L 252.76608 66.898126 
L 252.94464 77.040089 
L 253.03392 69.314672 
L 253.1232 84.959894 
L 253.21248 83.508491 
L 253.39104 68.380812 
L 253.48032 71.397276 
L 253.65888 66.438507 
L 253.74816 85.21771 
L 253.83744 69.929865 
L 253.92672 72.010972 
L 254.016 64.646241 
L 254.10528 80.01681 
L 254.19456 77.448334 
L 254.28384 72.849533 
L 254.37312 89.930379 
L 254.55168 66.129972 
L 254.64096 71.94581 
L 254.73024 71.776345 
L 254.81952 97.351305 
L 255.08736 66.332667 
L 255.3552 75.858948 
L 255.44448 76.600445 
L 255.53376 70.028412 
L 255.62304 82.94816 
L 255.8016 68.189008 
L 255.89088 71.879058 
L 255.98016 71.228952 
L 256.06944 88.864418 
L 256.15872 76.280989 
L 256.248 85.931481 
L 256.33728 71.435981 
L 256.42656 81.488798 
L 256.60512 66.723622 
L 256.87296 84.023588 
L 256.96224 74.837861 
L 257.05152 93.28465 
L 257.23008 74.130725 
L 257.31936 73.405311 
L 257.40864 71.222692 
L 257.49792 97.34447 
L 257.67648 65.22966 
L 257.76576 73.620149 
L 257.85504 99.779966 
L 257.94432 69.619871 
L 258.0336 80.66274 
L 258.12288 68.848745 
L 258.21216 88.045905 
L 258.39072 66.882836 
L 258.48 83.466181 
L 258.56928 67.351005 
L 258.74784 82.140678 
L 258.83712 119.110664 
L 259.01568 64.050357 
L 259.28352 77.765165 
L 259.3728 72.343416 
L 259.55136 98.812187 
L 259.64064 90.523887 
L 259.72992 66.536802 
L 259.8192 75.095231 
L 259.99776 69.633976 
L 260.08704 83.27839 
L 260.2656 66.457927 
L 260.35488 72.140978 
L 260.44416 69.41031 
L 260.53344 81.152033 
L 260.62272 67.893757 
L 260.712 108.666653 
L 260.80128 68.401533 
L 260.89056 83.315973 
L 260.97984 68.115623 
L 261.06912 75.184902 
L 261.1584 74.825431 
L 261.24768 68.203588 
L 261.33696 69.533718 
L 261.42624 80.964843 
L 261.51552 66.516669 
L 261.69408 98.890268 
L 261.87264 71.207004 
L 261.96192 76.132001 
L 262.14048 97.506148 
L 262.22976 67.228797 
L 262.31904 70.670153 
L 262.40832 67.367753 
L 262.4976 74.066485 
L 262.58688 68.252252 
L 262.944 82.336264 
L 263.03328 66.347582 
L 263.12256 67.811326 
L 263.21184 69.094263 
L 263.30112 66.158707 
L 263.47968 89.842906 
L 263.56896 76.828207 
L 263.65824 79.1179 
L 263.74752 72.550934 
L 263.8368 73.186721 
L 263.92608 75.115575 
L 264.01536 68.75814 
L 264.10464 116.494654 
L 264.2832 69.128126 
L 264.37248 75.642665 
L 264.55104 66.456823 
L 264.64032 86.386198 
L 264.7296 66.623468 
L 264.81888 79.393051 
L 264.90816 69.483753 
L 264.99744 70.237226 
L 265.08672 79.363861 
L 265.35456 64.471167 
L 265.44384 67.549159 
L 265.53312 64.63439 
L 265.71168 84.752692 
L 265.97952 70.238009 
L 266.15808 87.716008 
L 266.24736 68.990918 
L 266.33664 77.837865 
L 266.42592 107.504396 
L 266.60448 68.704719 
L 266.69376 98.285658 
L 266.9616 68.07115 
L 267.05088 69.997591 
L 267.14016 73.92205 
L 267.22944 64.691828 
L 267.31872 95.998139 
L 267.408 66.16055 
L 267.49728 72.918887 
L 267.58656 67.009362 
L 267.67584 73.574966 
L 267.76512 90.609595 
L 267.94368 65.038991 
L 268.12224 72.45223 
L 268.21152 81.458292 
L 268.3008 73.135688 
L 268.39008 88.27939 
L 268.47936 68.191525 
L 268.56864 68.812102 
L 268.65792 66.997493 
L 268.7472 74.063502 
L 268.83648 95.162148 
L 269.01504 64.787585 
L 269.28288 95.057444 
L 269.37216 91.597482 
L 269.46144 72.507954 
L 269.55072 72.731049 
L 269.64 75.618817 
L 269.72928 113.0966 
L 269.90784 69.400031 
L 269.99712 68.967414 
L 270.0864 78.314039 
L 270.17568 65.378715 
L 270.26496 74.827632 
L 270.35424 66.055529 
L 270.44352 67.462817 
L 270.5328 82.079626 
L 270.62208 69.664907 
L 270.71136 70.86966 
L 270.80064 71.446644 
L 270.88992 66.875324 
L 270.9792 74.735348 
L 271.15776 67.122167 
L 271.24704 75.794111 
L 271.33632 67.865293 
L 271.4256 68.320338 
L 271.51488 73.353642 
L 271.60416 69.208663 
L 271.69344 72.786847 
L 271.872 66.013946 
L 272.05056 64.690068 
L 272.13984 70.909183 
L 272.22912 70.772323 
L 272.3184 71.466371 
L 272.49696 66.764381 
L 272.58624 75.260567 
L 272.67552 73.787998 
L 272.7648 80.518394 
L 272.85408 96.571935 
L 273.03264 68.705766 
L 273.12192 72.488518 
L 273.2112 81.804624 
L 273.30048 66.60626 
L 273.38976 80.077655 
L 273.47904 79.547006 
L 273.56832 80.611398 
L 273.74688 67.897467 
L 273.83616 68.626789 
L 273.92544 66.826692 
L 274.01472 93.973094 
L 274.104 70.523639 
L 274.19328 73.702004 
L 274.28256 86.970396 
L 274.37184 71.014285 
L 274.46112 83.332919 
L 274.63968 69.347646 
L 274.72896 71.714441 
L 274.90752 67.338112 
L 274.9968 68.611972 
L 275.08608 82.179744 
L 275.17536 63.820937 
L 275.35392 80.293798 
L 275.4432 72.195002 
L 275.53248 82.158845 
L 275.71104 64.755887 
L 275.8896 82.764193 
L 275.97888 76.199206 
L 276.06816 67.906994 
L 276.336 78.148496 
L 276.42528 65.089924 
L 276.51456 75.249818 
L 276.60384 68.166653 
L 276.7824 79.466851 
L 276.87168 66.60525 
L 277.05024 75.627264 
L 277.2288 72.342747 
L 277.31808 135.30107 
L 277.58592 67.965216 
L 277.76448 77.005694 
L 277.85376 83.955509 
L 277.94304 70.604572 
L 278.03232 99.603039 
L 278.1216 64.22466 
L 278.21088 68.687628 
L 278.30016 79.522286 
L 278.47872 65.883686 
L 278.568 75.445695 
L 278.65728 75.048329 
L 278.83584 67.436928 
L 278.92512 76.153275 
L 279.10368 72.673228 
L 279.19296 73.271475 
L 279.28224 69.211567 
L 279.37152 70.811672 
L 279.4608 70.537397 
L 279.55008 76.887272 
L 279.72864 67.041836 
L 279.81792 73.062614 
L 280.08576 64.768365 
L 280.17504 80.224048 
L 280.3536 69.008517 
L 280.44288 71.728061 
L 280.53216 83.550645 
L 280.71072 69.889936 
L 280.8 72.343031 
L 280.88928 71.936654 
L 280.97856 68.455887 
L 281.06784 74.690023 
L 281.2464 69.038805 
L 281.33568 73.440649 
L 281.42496 100.437793 
L 281.60352 73.934587 
L 281.6928 84.972486 
L 281.78208 68.683408 
L 281.87136 68.855306 
L 281.96064 77.435481 
L 282.04992 71.605377 
L 282.1392 72.045565 
L 282.22848 81.550181 
L 282.40704 65.689058 
L 282.5856 77.303135 
L 282.67488 75.911959 
L 282.76416 93.376476 
L 282.85344 66.231445 
L 282.94272 72.541233 
L 283.12128 86.809119 
L 283.29984 70.145579 
L 283.4784 92.759913 
L 283.65696 66.310444 
L 283.74624 66.971575 
L 283.83552 65.512209 
L 283.9248 109.252041 
L 284.01408 66.789201 
L 284.10336 74.149718 
L 284.19264 77.860439 
L 284.28192 74.657378 
L 284.3712 75.171345 
L 284.46048 74.758491 
L 284.54976 67.726331 
L 284.63904 78.686282 
L 284.72832 66.316297 
L 284.99616 82.654457 
L 285.08544 78.96894 
L 285.17472 79.112115 
L 285.264 77.676857 
L 285.35328 87.27404 
L 285.53184 66.557284 
L 285.62112 75.518826 
L 285.79968 67.019469 
L 285.88896 69.126483 
L 286.06752 89.874695 
L 286.24608 70.017398 
L 286.33536 66.631127 
L 286.42464 79.6201 
L 286.51392 77.548168 
L 286.6032 65.815042 
L 286.78176 84.39454 
L 286.96032 80.158848 
L 287.0496 72.140861 
L 287.13888 73.094674 
L 287.22816 68.320379 
L 287.31744 87.410998 
L 287.40672 86.444102 
L 287.496 97.174879 
L 287.67456 64.687477 
L 287.76384 94.953313 
L 287.9424 72.986012 
L 288.03168 68.868215 
L 288.12096 83.494264 
L 288.21024 71.254788 
L 288.29952 78.252136 
L 288.3888 69.63894 
L 288.47808 71.082656 
L 288.56736 70.581515 
L 288.65664 67.773988 
L 288.8352 77.519757 
L 288.92448 65.36089 
L 289.01376 83.292493 
L 289.10304 70.952099 
L 289.19232 73.578233 
L 289.2816 72.781554 
L 289.37088 88.659345 
L 289.46016 66.513359 
L 289.54944 74.235266 
L 289.728 66.464309 
L 289.81728 82.232136 
L 289.90656 69.290281 
L 290.08512 82.256039 
L 290.1744 79.897634 
L 290.26368 67.878818 
L 290.35296 70.373838 
L 290.44224 66.011581 
L 290.53152 74.979685 
L 290.71008 67.505918 
L 290.88864 81.239743 
L 290.97792 72.839952 
L 291.0672 88.701102 
L 291.24576 68.872855 
L 291.33504 77.905414 
L 291.5136 65.897901 
L 291.69216 92.647533 
L 291.78144 71.68689 
L 291.87072 74.030535 
L 291.96 66.351266 
L 292.22784 85.869486 
L 292.4064 72.333625 
L 292.49568 72.603618 
L 292.58496 65.585017 
L 292.67424 91.019659 
L 292.8528 68.215528 
L 292.94208 82.176386 
L 293.12064 67.56921 
L 293.2992 107.864909 
L 293.38848 96.539046 
L 293.47776 65.363841 
L 293.56704 70.138622 
L 293.65632 68.26085 
L 293.7456 78.548407 
L 293.83488 67.708656 
L 293.92416 86.311336 
L 294.01344 65.154361 
L 294.10272 88.99102 
L 294.192 66.345459 
L 294.28128 71.445035 
L 294.37056 70.449779 
L 294.45984 66.520438 
L 294.72768 76.861655 
L 294.81696 66.848733 
L 294.90624 75.845731 
L 294.99552 70.572917 
L 295.0848 79.344867 
L 295.17408 71.13446 
L 295.26336 73.528129 
L 295.35264 64.240353 
L 295.44192 84.45126 
L 295.5312 69.814433 
L 295.62048 73.644359 
L 295.88832 64.759519 
L 295.9776 66.856235 
L 296.06688 93.105412 
L 296.24544 65.629989 
L 296.33472 68.868401 
L 296.424 66.749821 
L 296.51328 66.986453 
L 296.69184 80.822801 
L 296.78112 68.953493 
L 296.8704 73.957835 
L 296.95968 67.964951 
L 297.04896 70.853002 
L 297.13824 79.785944 
L 297.3168 70.710902 
L 297.40608 74.490832 
L 297.49536 67.887542 
L 297.58464 74.727939 
L 297.67392 73.970564 
L 297.7632 73.488993 
L 297.85248 74.035175 
L 297.94176 88.460856 
L 298.03104 72.237688 
L 298.2096 80.850317 
L 298.29888 66.295352 
L 298.47744 90.235352 
L 298.56672 66.952234 
L 298.656 77.094495 
L 298.74528 65.919536 
L 298.83456 74.163815 
L 298.92384 68.983633 
L 299.01312 71.987471 
L 299.19168 66.90699 
L 299.45952 84.735157 
L 299.63808 66.735263 
L 299.72736 64.466389 
L 299.81664 78.363107 
L 299.9952 66.160238 
L 300.17376 74.920307 
L 300.26304 68.119805 
L 300.35232 81.254831 
L 300.53088 66.982931 
L 300.62016 69.599774 
L 300.70944 80.793223 
L 300.79872 71.53098 
L 300.888 80.723486 
L 301.24512 70.600204 
L 301.3344 88.798244 
L 301.42368 63.993462 
L 301.60224 81.057309 
L 301.69152 83.806198 
L 301.87008 65.073079 
L 301.95936 93.329654 
L 302.04864 75.485641 
L 302.13792 97.167276 
L 302.2272 66.583746 
L 302.31648 68.66232 
L 302.40576 78.326762 
L 302.49504 69.820881 
L 302.58432 70.941647 
L 302.6736 71.52441 
L 302.76288 78.293857 
L 302.85216 71.433384 
L 302.94144 90.495791 
L 303.03072 69.175715 
L 303.12 81.156079 
L 303.29856 69.36477 
L 303.38784 92.891132 
L 303.47712 70.097291 
L 303.5664 72.156516 
L 303.65568 69.349912 
L 303.74496 71.304907 
L 303.83424 68.891131 
L 304.0128 85.477172 
L 304.10208 68.610829 
L 304.19136 72.788889 
L 304.28064 69.480482 
L 304.36992 71.20802 
L 304.4592 75.261607 
L 304.54848 73.417483 
L 304.63776 82.855153 
L 304.72704 68.84738 
L 304.81632 79.53015 
L 304.99488 66.482866 
L 305.08416 69.704923 
L 305.17344 65.303335 
L 305.352 74.894142 
L 305.44128 65.417579 
L 305.53056 74.440586 
L 305.61984 65.598477 
L 305.70912 67.060557 
L 305.7984 84.429909 
L 305.88768 83.517824 
L 305.97696 74.017477 
L 306.06624 84.346668 
L 306.15552 71.777075 
L 306.33408 85.211521 
L 306.42336 66.9593 
L 306.51264 71.411489 
L 306.60192 66.576324 
L 306.6912 77.696234 
L 306.78048 70.251267 
L 306.86976 86.443322 
L 306.95904 67.391875 
L 307.04832 75.072231 
L 307.1376 71.641107 
L 307.22688 76.587961 
L 307.31616 88.728601 
L 307.40544 77.133888 
L 307.49472 92.169359 
L 307.584 68.054923 
L 307.67328 68.787978 
L 307.76256 74.703045 
L 307.94112 68.166516 
L 308.0304 68.606969 
L 308.11968 77.646908 
L 308.20896 69.777992 
L 308.29824 85.699949 
L 308.38752 65.921061 
L 308.4768 71.881704 
L 308.56608 67.357132 
L 308.74464 89.328054 
L 308.83392 85.804298 
L 309.01248 64.689969 
L 309.10176 67.193771 
L 309.19104 78.961698 
L 309.45888 66.801392 
L 309.63744 85.874726 
L 309.72672 69.736385 
L 309.90528 88.923867 
L 309.99456 70.874776 
L 310.08384 104.235881 
L 310.2624 70.427316 
L 310.35168 69.323885 
L 310.44096 76.84002 
L 310.53024 66.987808 
L 310.61952 69.161224 
L 310.7088 66.08312 
L 310.79808 69.826825 
L 310.88736 67.5698 
L 310.97664 68.846737 
L 311.06592 72.774158 
L 311.1552 65.348694 
L 311.33376 72.243503 
L 311.42304 65.898845 
L 311.51232 66.056427 
L 311.6016 77.947143 
L 311.78016 63.817763 
L 311.95872 73.361581 
L 312.048 73.27847 
L 312.13728 65.502408 
L 312.22656 65.719677 
L 312.31584 70.596604 
L 312.40512 64.533412 
L 312.4944 89.500043 
L 312.58368 68.969625 
L 312.67296 71.148323 
L 312.76224 71.537409 
L 312.85152 67.083677 
L 312.9408 77.217091 
L 313.03008 73.733483 
L 313.11936 82.43315 
L 313.20864 71.106786 
L 313.29792 72.600947 
L 313.47648 78.104749 
L 313.56576 94.296779 
L 313.74432 65.586141 
L 313.92288 70.805853 
L 314.01216 66.688183 
L 314.10144 68.423722 
L 314.28 96.518196 
L 314.36928 65.627274 
L 314.45856 67.425802 
L 314.54784 74.259564 
L 314.63712 73.404771 
L 314.7264 72.928098 
L 314.90496 68.325093 
L 315.08352 75.162919 
L 315.1728 71.86904 
L 315.52992 105.395228 
L 315.70848 64.55325 
L 315.88704 81.412665 
L 315.97632 67.380398 
L 316.0656 69.859357 
L 316.15488 75.360789 
L 316.24416 65.739507 
L 316.33344 76.739171 
L 316.42272 71.055877 
L 316.512 89.902579 
L 316.60128 70.135802 
L 316.69056 84.376396 
L 316.77984 83.146476 
L 316.86912 71.382643 
L 316.9584 88.003566 
L 317.13696 78.416425 
L 317.22624 75.248943 
L 317.31552 75.421933 
L 317.4048 64.004851 
L 317.58336 78.931429 
L 317.67264 75.217619 
L 317.76192 77.48189 
L 317.8512 70.765466 
L 318.02976 76.195569 
L 318.11904 75.520263 
L 318.20832 81.768921 
L 318.2976 69.384075 
L 318.38688 70.394334 
L 318.47616 66.071469 
L 318.56544 73.92567 
L 318.65472 71.05706 
L 318.83328 83.37937 
L 318.92256 75.901332 
L 319.01184 81.64989 
L 319.1904 64.05077 
L 319.27968 73.475623 
L 319.36896 67.720537 
L 319.45824 89.388757 
L 319.6368 68.373841 
L 319.72608 70.475418 
L 319.81536 68.274905 
L 319.90464 71.70228 
L 319.99392 65.640573 
L 320.0832 86.713051 
L 320.17248 64.947973 
L 320.26176 68.311625 
L 320.35104 67.813938 
L 320.44032 71.886827 
L 320.5296 66.878911 
L 320.70816 78.925394 
L 320.79744 66.183242 
L 320.88672 67.464304 
L 320.976 66.236702 
L 321.15456 76.881888 
L 321.24384 89.179603 
L 321.33312 74.771633 
L 321.4224 113.333967 
L 321.60096 65.503822 
L 321.69024 64.230424 
L 321.77952 72.442732 
L 321.8688 70.688189 
L 321.95808 76.435183 
L 322.04736 63.941579 
L 322.13664 75.411385 
L 322.22592 73.326496 
L 322.3152 77.718709 
L 322.40448 65.103613 
L 322.49376 66.896995 
L 322.58304 68.70443 
L 322.67232 81.993232 
L 322.7616 73.687392 
L 322.94016 77.876811 
L 323.02944 69.523855 
L 323.11872 75.202105 
L 323.208 67.150306 
L 323.29728 86.660458 
L 323.38656 72.08428 
L 323.47584 78.260248 
L 323.74368 65.936355 
L 323.83296 78.808968 
L 323.92224 66.159711 
L 324.1008 88.383796 
L 324.27936 69.317643 
L 324.36864 66.399471 
L 324.45792 68.43484 
L 324.63648 65.532661 
L 324.72576 66.180168 
L 324.90432 73.21885 
L 325.08288 65.03122 
L 325.17216 76.97237 
L 325.35072 64.908764 
L 325.44 75.801196 
L 325.52928 68.172267 
L 325.61856 75.754306 
L 325.70784 67.681013 
L 325.8864 74.956834 
L 325.97568 87.176206 
L 326.06496 76.234106 
L 326.15424 81.001184 
L 326.24352 74.963208 
L 326.3328 88.671436 
L 326.51136 71.696857 
L 326.60064 66.192839 
L 326.68992 77.364851 
L 326.7792 68.586477 
L 326.86848 85.782185 
L 327.04704 69.437528 
L 327.13632 70.018611 
L 327.2256 94.55252 
L 327.40416 77.289882 
L 327.49344 68.002751 
L 327.58272 79.056111 
L 327.672 73.762902 
L 327.76128 75.126304 
L 327.85056 83.286072 
L 327.93984 66.20285 
L 328.02912 68.611553 
L 328.20768 89.326571 
L 328.29696 65.292723 
L 328.38624 82.704344 
L 328.74336 64.784485 
L 328.83264 71.820853 
L 328.92192 69.670239 
L 329.0112 77.225074 
L 329.18976 68.115792 
L 329.27904 73.716048 
L 329.36832 65.480779 
L 329.4576 73.948658 
L 329.54688 73.443088 
L 329.63616 70.725358 
L 329.81472 73.900208 
L 329.904 71.797832 
L 330.08256 80.49425 
L 330.17184 65.645544 
L 330.26112 66.010131 
L 330.3504 66.872532 
L 330.43968 86.537586 
L 330.52896 68.096457 
L 330.61824 74.434682 
L 330.70752 64.085524 
L 330.7968 68.257962 
L 330.88608 67.412432 
L 330.97536 84.532665 
L 331.15392 67.155122 
L 331.2432 79.927097 
L 331.33248 77.965115 
L 331.42176 71.51444 
L 331.51104 80.183796 
L 331.60032 69.459487 
L 331.77888 86.291413 
L 331.95744 66.444744 
L 332.04672 72.599585 
L 332.136 100.56531 
L 332.31456 69.33068 
L 332.40384 81.74362 
L 332.5824 67.642008 
L 332.76096 64.433382 
L 332.85024 75.815376 
L 332.93952 69.319683 
L 333.0288 77.984277 
L 333.11808 67.895966 
L 333.20736 80.615379 
L 333.29664 67.072772 
L 333.4752 79.025214 
L 333.83232 68.725962 
L 333.9216 71.20699 
L 334.01088 65.311428 
L 334.10016 76.358714 
L 334.18944 69.48085 
L 334.27872 75.643423 
L 334.368 64.329526 
L 334.45728 68.240035 
L 334.54656 67.374223 
L 334.63584 81.858733 
L 334.72512 81.146102 
L 334.90368 65.000402 
L 334.99296 70.11705 
L 335.08224 65.67363 
L 335.17152 66.112215 
L 335.2608 85.149399 
L 335.35008 74.404152 
L 335.43936 77.871284 
L 335.61792 66.869572 
L 335.7072 67.479546 
L 335.79648 88.445742 
L 335.88576 74.710646 
L 335.97504 79.936267 
L 336.06432 69.829459 
L 336.1536 87.182021 
L 336.33216 66.665961 
L 336.42144 78.056833 
L 336.6 65.161686 
L 336.68928 76.214652 
L 336.95712 64.311692 
L 337.0464 73.205473 
L 337.22496 67.75392 
L 337.31424 73.959249 
L 337.40352 70.580359 
L 337.4928 71.811598 
L 337.58208 67.155663 
L 337.76064 73.073142 
L 337.84992 74.652186 
L 337.9392 66.989043 
L 338.02848 68.797485 
L 338.20704 73.372209 
L 338.3856 64.916806 
L 338.47488 82.554274 
L 338.56416 68.126164 
L 338.65344 69.446627 
L 338.74272 71.287245 
L 338.832 69.9488 
L 338.92128 65.062986 
L 339.18912 67.4549 
L 339.2784 65.089277 
L 339.45696 71.954214 
L 339.54624 71.214565 
L 339.63552 78.808711 
L 339.7248 68.8028 
L 339.81408 84.440028 
L 339.90336 79.050321 
L 339.99264 82.705271 
L 340.1712 66.182114 
L 340.26048 75.84502 
L 340.34976 70.671676 
L 340.43904 72.161636 
L 340.52832 80.613847 
L 340.70688 69.062291 
L 340.88544 101.196969 
L 341.064 74.535554 
L 341.15328 77.989965 
L 341.24256 69.929481 
L 341.33184 82.272997 
L 341.42112 68.883234 
L 341.5104 72.058215 
L 341.59968 71.223525 
L 341.68896 78.427542 
L 341.77824 66.771481 
L 341.86752 72.193604 
L 341.9568 67.007994 
L 342.04608 77.217792 
L 342.13536 68.590297 
L 342.22464 78.770028 
L 342.4032 67.971931 
L 342.49248 74.839498 
L 342.58176 74.467983 
L 342.67104 70.172451 
L 342.76032 86.960203 
L 342.8496 66.628308 
L 342.93888 68.986284 
L 343.02816 67.553544 
L 343.11744 79.278017 
L 343.296 68.533093 
L 343.38528 75.433769 
L 343.56384 66.520116 
L 343.7424 72.95646 
L 343.83168 98.026339 
L 343.92096 66.660215 
L 344.01024 67.871661 
L 344.09952 85.059379 
L 344.27808 68.968322 
L 344.45664 89.392999 
L 344.54592 64.851031 
L 344.72448 77.556731 
L 344.99232 71.302704 
L 345.0816 79.714793 
L 345.17088 69.158087 
L 345.26016 75.600988 
L 345.34944 71.712773 
L 345.43872 73.247872 
L 345.528 63.688136 
L 345.61728 77.186757 
L 345.70656 68.940144 
L 345.79584 74.541563 
L 345.88512 73.431949 
L 345.9744 66.405854 
L 346.06368 71.47957 
L 346.15296 84.078197 
L 346.4208 65.342974 
L 346.59936 75.939518 
L 346.77792 67.521308 
L 346.8672 81.188432 
L 346.95648 70.287001 
L 347.04576 71.680964 
L 347.13504 98.782342 
L 347.22432 64.817131 
L 347.3136 96.135983 
L 347.49216 70.819385 
L 347.58144 68.13384 
L 347.67072 75.475891 
L 347.76 74.580164 
L 347.84928 77.725919 
L 347.93856 67.003828 
L 348.02784 68.787851 
L 348.11712 73.758345 
L 348.2064 72.790754 
L 348.29568 65.975682 
L 348.38496 68.302136 
L 348.47424 80.950923 
L 348.56352 66.516968 
L 348.6528 68.70326 
L 348.74208 84.731647 
L 348.83136 74.916403 
L 348.92064 80.670983 
L 349.00992 66.405698 
L 349.0992 70.735211 
L 349.18848 102.242502 
L 349.27776 76.270278 
L 349.36704 77.179443 
L 349.45632 71.662924 
L 349.5456 85.240716 
L 349.72416 68.641912 
L 349.81344 77.462126 
L 349.90272 71.149147 
L 349.992 91.411616 
L 350.17056 68.566639 
L 350.25984 67.098162 
L 350.34912 69.905174 
L 350.52768 63.966195 
L 350.61696 63.976451 
L 350.79552 74.407581 
L 350.8848 73.482357 
L 350.97408 73.985579 
L 351.06336 69.052349 
L 351.15264 70.567526 
L 351.24192 63.949103 
L 351.3312 85.419447 
L 351.42048 72.522891 
L 351.50976 79.20977 
L 351.7776 67.747568 
L 351.86688 92.989018 
L 352.04544 70.052769 
L 352.13472 68.411147 
L 352.224 105.714231 
L 352.40256 76.455511 
L 352.49184 76.962179 
L 352.58112 71.426951 
L 352.6704 79.272638 
L 352.75968 68.418575 
L 352.84896 81.232144 
L 352.93824 75.363499 
L 353.02752 80.904958 
L 353.29536 65.750367 
L 353.5632 79.612528 
L 353.74176 69.401066 
L 353.83104 76.191857 
L 353.92032 71.19844 
L 354.0096 71.677556 
L 354.09888 100.86656 
L 354.18816 68.532633 
L 354.27744 76.462841 
L 354.36672 69.496797 
L 354.456 69.580127 
L 354.54528 66.535526 
L 354.63456 68.162472 
L 354.81312 65.321426 
L 354.9024 70.887705 
L 354.99168 84.762151 
L 355.17024 69.137448 
L 355.25952 71.667105 
L 355.3488 65.545499 
L 355.52736 71.351947 
L 355.61664 76.478378 
L 355.88448 63.798684 
L 355.97376 72.466764 
L 356.06304 71.788195 
L 356.15232 77.664611 
L 356.2416 67.762221 
L 356.42016 92.837411 
L 356.59872 64.083423 
L 356.688 82.945183 
L 356.86656 64.08792 
L 356.95584 76.239514 
L 357.04512 73.587037 
L 357.1344 78.804346 
L 357.22368 76.918476 
L 357.31296 65.676545 
L 357.49152 78.852641 
L 357.5808 75.879767 
L 357.67008 68.282885 
L 357.75936 70.453148 
L 357.84864 75.341091 
L 357.93792 71.8629 
L 358.0272 84.71666 
L 358.20576 74.004599 
L 358.29504 110.739118 
L 358.38432 64.363931 
L 358.4736 83.020736 
L 358.56288 67.92045 
L 358.65216 69.724247 
L 358.83072 65.783036 
L 358.92 90.713868 
L 359.09856 69.002288 
L 359.18784 69.371488 
L 359.27712 73.651791 
L 359.45568 87.626177 
L 359.63424 67.357124 
L 359.72352 69.6956 
L 359.90208 83.116951 
L 359.99136 75.427179 
L 360.08064 80.033824 
L 360.34848 67.252684 
L 360.43776 72.019437 
L 360.52704 68.641528 
L 360.61632 70.578081 
L 360.7056 81.999505 
L 360.97344 69.445659 
L 361.06272 73.09145 
L 361.152 71.743956 
L 361.24128 78.377683 
L 361.41984 66.023338 
L 361.5984 77.287967 
L 361.77696 73.750709 
L 361.86624 80.994585 
L 361.95552 65.861854 
L 362.13408 79.713976 
L 362.31264 64.655373 
L 362.40192 79.362004 
L 362.4912 68.246357 
L 362.58048 70.320251 
L 362.66976 95.374395 
L 362.75904 70.627889 
L 362.84832 76.313636 
L 362.9376 76.051091 
L 363.02688 84.420003 
L 363.20544 65.176236 
L 363.29472 84.49932 
L 363.384 68.395095 
L 363.47328 68.485165 
L 363.65184 75.215464 
L 363.74112 74.162534 
L 363.8304 74.608894 
L 363.91968 64.366332 
L 364.18752 73.717073 
L 364.2768 70.19044 
L 364.36608 75.112609 
L 364.45536 65.167391 
L 364.54464 79.589045 
L 364.7232 72.802187 
L 364.81248 72.287029 
L 364.90176 68.483556 
L 364.99104 85.028631 
L 365.08032 67.446564 
L 365.1696 68.97257 
L 365.25888 67.713816 
L 365.34816 85.803081 
L 365.616 64.122763 
L 365.70528 73.491513 
L 365.79456 71.70123 
L 365.88384 77.924931 
L 366.15168 67.957151 
L 366.24096 74.904766 
L 366.33024 69.122365 
L 366.5088 92.054423 
L 366.68736 65.98115 
L 366.77664 72.138897 
L 366.86592 67.697187 
L 366.9552 67.961433 
L 367.04448 67.923923 
L 367.13376 76.365049 
L 367.22304 65.790757 
L 367.31232 92.448826 
L 367.49088 68.094543 
L 367.58016 65.385211 
L 367.66944 93.33015 
L 367.848 67.090595 
L 367.93728 65.614401 
L 368.02656 76.83894 
L 368.11584 75.940234 
L 368.20512 65.126362 
L 368.38368 82.088045 
L 368.56224 67.108279 
L 368.65152 70.460353 
L 368.7408 80.809672 
L 368.83008 68.542052 
L 368.91936 74.886531 
L 369.00864 74.689138 
L 369.09792 72.486009 
L 369.1872 83.589681 
L 369.27648 70.820074 
L 369.36576 71.367892 
L 369.45504 78.933377 
L 369.72288 66.610739 
L 369.90144 73.129544 
L 369.99072 69.460514 
L 370.08 77.744475 
L 370.25856 66.589918 
L 370.34784 76.230077 
L 370.5264 68.700226 
L 370.61568 66.326476 
L 370.79424 75.049554 
L 370.88352 72.222049 
L 370.9728 65.097164 
L 371.06208 74.34025 
L 371.15136 69.940902 
L 371.24064 97.674779 
L 371.4192 69.724735 
L 371.50848 64.446994 
L 371.68704 74.755951 
L 371.77632 69.77851 
L 371.8656 71.830532 
L 371.95488 67.764069 
L 372.04416 67.793539 
L 372.13344 72.702703 
L 372.22272 68.971908 
L 372.40128 79.244245 
L 372.49056 63.667562 
L 372.57984 71.942956 
L 372.66912 66.502851 
L 372.84768 81.163442 
L 372.93696 68.425114 
L 373.02624 78.934615 
L 373.2048 67.07252 
L 373.29408 71.038905 
L 373.38336 65.867173 
L 373.47264 77.112455 
L 373.74048 64.11819 
L 373.91904 70.415938 
L 374.00832 68.183148 
L 374.0976 72.611342 
L 374.18688 66.45248 
L 374.27616 83.544138 
L 374.544 68.36291 
L 374.63328 68.669209 
L 374.72256 70.099121 
L 374.81184 66.153288 
L 374.90112 68.236348 
L 374.9904 67.680283 
L 375.07968 74.981446 
L 375.16896 63.883683 
L 375.25824 69.769777 
L 375.34752 89.059899 
L 375.4368 67.432297 
L 375.61536 81.407908 
L 375.79392 68.703222 
L 375.8832 87.153921 
L 375.97248 85.289817 
L 376.06176 68.38136 
L 376.15104 69.612266 
L 376.24032 65.043373 
L 376.59744 72.646391 
L 376.68672 65.822093 
L 376.95456 90.318461 
L 377.13312 66.209391 
L 377.2224 72.62107 
L 377.31168 68.822485 
L 377.40096 69.757645 
L 377.49024 74.309763 
L 377.75808 64.462733 
L 377.84736 78.205264 
L 378.1152 65.15773 
L 378.20448 80.257895 
L 378.29376 66.844931 
L 378.38304 69.243564 
L 378.47232 72.028339 
L 378.5616 66.45807 
L 378.82944 77.841421 
L 378.91872 68.333805 
L 379.008 107.894105 
L 379.18656 69.400038 
L 379.27584 73.300833 
L 379.36512 112.057638 
L 379.54368 71.851855 
L 379.63296 81.914668 
L 379.81152 66.976706 
L 379.9008 76.754927 
L 380.07936 63.872871 
L 380.16864 74.03503 
L 380.25792 71.770916 
L 380.3472 77.827592 
L 380.43648 69.608404 
L 380.52576 78.215265 
L 380.61504 66.497606 
L 380.70432 79.475936 
L 380.97216 68.537368 
L 381.06144 73.632221 
L 381.24 63.76196 
L 381.32928 81.805509 
L 381.50784 68.0261 
L 381.59712 63.648 
L 381.77568 72.285542 
L 381.95424 66.196233 
L 382.31136 71.074929 
L 382.48992 64.236903 
L 382.5792 75.965372 
L 382.66848 66.264041 
L 382.75776 71.836455 
L 382.84704 85.72647 
L 383.0256 71.559866 
L 383.11488 73.424554 
L 383.20416 65.577045 
L 383.38272 74.243547 
L 383.472 66.823253 
L 383.56128 78.71601 
L 383.65056 68.072606 
L 383.73984 73.030457 
L 383.82912 89.950648 
L 383.9184 69.417976 
L 384.00768 75.124593 
L 384.09696 74.165477 
L 384.18624 68.414559 
L 384.27552 79.237456 
L 384.3648 68.953865 
L 384.54336 79.272115 
L 384.63264 68.154641 
L 384.72192 77.115151 
L 384.90048 71.536439 
L 384.98976 80.881342 
L 385.16832 70.88547 
L 385.2576 76.410187 
L 385.43616 64.376047 
L 385.704 76.887997 
L 385.79328 70.332851 
L 385.97184 78.426498 
L 386.06112 66.062412 
L 386.1504 70.771442 
L 386.23968 70.02654 
L 386.32896 68.211058 
L 386.41824 68.696368 
L 386.50752 79.949679 
L 386.5968 73.308737 
L 386.68608 79.486123 
L 386.77536 67.109064 
L 386.86464 71.561565 
L 386.95392 70.428704 
L 387.0432 81.951508 
L 387.13248 69.541977 
L 387.22176 74.376339 
L 387.31104 65.683976 
L 387.57888 78.843896 
L 387.75744 65.737789 
L 387.84672 72.260615 
L 387.936 71.012322 
L 388.11456 66.184676 
L 388.20384 77.888441 
L 388.29312 67.829423 
L 388.3824 76.728835 
L 388.47168 70.114323 
L 388.56096 84.960916 
L 388.65024 70.445883 
L 388.73952 75.086885 
L 388.8288 73.27627 
L 388.91808 80.013759 
L 389.00736 78.445792 
L 389.09664 68.706609 
L 389.18592 75.837118 
L 389.36448 68.563071 
L 389.45376 101.66242 
L 389.63232 70.359335 
L 389.7216 63.9474 
L 389.98944 88.821289 
L 390.168 65.008412 
L 390.25728 70.464929 
L 390.34656 70.229634 
L 390.43584 65.49615 
L 390.52512 89.084664 
L 390.70368 69.108514 
L 390.79296 67.835958 
L 390.97152 77.2447 
L 391.0608 64.058101 
L 391.15008 71.18693 
L 391.32864 63.971279 
L 391.41792 71.403779 
L 391.5072 66.025968 
L 391.59648 81.26934 
L 391.68576 78.350655 
L 391.77504 86.467719 
L 391.86432 69.242927 
L 391.9536 82.872724 
L 392.04288 76.559668 
L 392.13216 83.11519 
L 392.22144 65.034023 
L 392.31072 71.186462 
L 392.4 68.230386 
L 392.48928 76.710458 
L 392.57856 65.637122 
L 392.75712 84.950518 
L 392.8464 72.44829 
L 392.93568 74.143759 
L 393.11424 69.74521 
L 393.20352 66.354008 
L 393.2928 68.759312 
L 393.38208 80.264656 
L 393.47136 69.142136 
L 393.64992 80.251906 
L 393.82848 74.732983 
L 394.00704 64.881002 
L 394.1856 75.698964 
L 394.27488 65.692081 
L 394.36416 68.313939 
L 394.45344 65.597124 
L 394.54272 79.968421 
L 394.632 75.484884 
L 394.72128 64.129918 
L 394.81056 65.180569 
L 394.98912 72.929376 
L 395.0784 68.822788 
L 395.16768 87.110911 
L 395.25696 84.293618 
L 395.34624 68.06966 
L 395.43552 81.506339 
L 395.5248 71.497388 
L 395.61408 91.336108 
L 395.88192 64.906439 
L 395.9712 64.878597 
L 396.06048 67.485677 
L 396.14976 74.902473 
L 396.32832 67.216527 
L 396.4176 72.183814 
L 396.50688 92.143866 
L 396.68544 67.085585 
L 396.77472 70.090547 
L 396.864 65.375825 
L 397.04256 69.904909 
L 397.13184 67.395358 
L 397.39968 71.420937 
L 397.48896 79.263317 
L 397.57824 68.06933 
L 397.66752 71.765187 
L 397.7568 68.707778 
L 397.93536 73.010451 
L 398.02464 91.410221 
L 398.2032 66.4729 
L 398.29248 71.638575 
L 398.38176 68.038661 
L 398.47104 71.997532 
L 398.6496 65.628114 
L 398.73888 67.718896 
L 398.82816 66.649214 
L 398.91744 76.921421 
L 399.096 67.780983 
L 399.18528 65.467778 
L 399.36384 75.274704 
L 399.45312 67.299392 
L 399.5424 89.80657 
L 399.63168 71.50758 
L 399.72096 81.404805 
L 399.81024 67.328443 
L 399.89952 70.789052 
L 399.9888 68.586209 
L 400.16736 72.860277 
L 400.34592 68.029847 
L 400.4352 68.499685 
L 400.52448 81.090581 
L 400.70304 66.68573 
L 400.79232 74.188691 
L 400.8816 67.024929 
L 400.97088 70.708506 
L 401.06016 67.855352 
L 401.14944 75.10813 
L 401.23872 70.699302 
L 401.41728 81.742811 
L 401.59584 67.573346 
L 401.68512 67.918956 
L 401.7744 68.68192 
L 402.13152 80.775154 
L 402.31008 72.471513 
L 402.39936 81.376019 
L 402.48864 66.563028 
L 402.57792 77.57957 
L 402.6672 65.982132 
L 402.75648 81.523136 
L 402.84576 79.517891 
L 403.02432 65.208565 
L 403.1136 78.19731 
L 403.29216 65.71691 
L 403.38144 81.325153 
L 403.47072 79.386013 
L 403.56 77.259629 
L 403.64928 65.060957 
L 403.73856 79.672106 
L 403.91712 66.448516 
L 404.0064 68.086965 
L 404.09568 80.009478 
L 404.27424 65.507124 
L 404.36352 84.413523 
L 404.54208 65.686215 
L 404.63136 78.806589 
L 404.72064 70.746449 
L 404.80992 75.227773 
L 404.8992 70.238486 
L 404.98848 71.483534 
L 405.07776 64.187674 
L 405.3456 73.247205 
L 405.43488 76.897143 
L 405.61344 69.690897 
L 405.70272 76.012054 
L 405.88128 67.644942 
L 405.97056 63.919967 
L 406.05984 77.864843 
L 406.14912 75.541934 
L 406.2384 81.992112 
L 406.32768 76.761042 
L 406.41696 88.871092 
L 406.50624 73.04236 
L 406.59552 74.273915 
L 406.6848 70.722458 
L 406.86336 74.206985 
L 407.1312 70.97547 
L 407.30976 78.513726 
L 407.5776 68.024137 
L 407.75616 83.067312 
L 407.84544 67.307563 
L 407.93472 75.943022 
L 408.024 74.765351 
L 408.11328 70.572017 
L 408.20256 77.116203 
L 408.38112 65.375526 
L 408.4704 67.725932 
L 408.64896 75.664415 
L 408.73824 69.80678 
L 408.82752 75.711293 
L 408.9168 105.253877 
L 409.09536 64.740178 
L 409.27392 88.86106 
L 409.3632 68.963157 
L 409.45248 72.565844 
L 409.54176 70.641059 
L 409.63104 85.796679 
L 409.72032 68.766976 
L 409.8096 73.520676 
L 409.89888 65.240778 
L 410.07744 79.560753 
L 410.256 65.078245 
L 410.34528 82.432058 
L 410.43456 65.190993 
L 410.52384 67.044871 
L 410.79168 72.695305 
L 410.88096 64.741551 
L 410.97024 82.916212 
L 411.05952 77.306144 
L 411.1488 63.99884 
L 411.23808 78.912223 
L 411.32736 75.534682 
L 411.41664 74.833895 
L 411.50592 66.674106 
L 411.5952 80.963939 
L 411.68448 69.386265 
L 411.77376 74.149992 
L 411.95232 65.843726 
L 412.0416 66.588333 
L 412.13088 73.836781 
L 412.30944 64.389935 
L 412.488 70.307376 
L 412.57728 66.070969 
L 412.84512 77.98437 
L 412.9344 67.284183 
L 413.02368 68.294242 
L 413.11296 79.038746 
L 413.20224 67.902964 
L 413.29152 70.929519 
L 413.3808 67.778265 
L 413.47008 83.111953 
L 413.55936 79.109407 
L 413.64864 65.61202 
L 413.73792 78.594012 
L 413.8272 68.694107 
L 414.00576 74.672211 
L 414.09504 73.835997 
L 414.36288 78.702885 
L 414.45216 70.534348 
L 414.54144 75.57351 
L 414.63072 67.981341 
L 414.63072 67.981341 
" style="fill:none;stroke:#0000ff;stroke-linecap:square;stroke-width:1.5;"/>
   </g>
   <g id="patch_3">
    <path d="M 57.6 307.584 
L 57.6 41.472 
" style="fill:none;stroke:#000000;stroke-linecap:square;stroke-linejoin:miter;stroke-width:0.8;"/>
   </g>
   <g id="patch_4">
    <path d="M 414.72 307.584 
L 414.72 41.472 
" style="fill:none;stroke:#000000;stroke-linecap:square;stroke-linejoin:miter;stroke-width:0.8;"/>
   </g>
   <g id="patch_5">
    <path d="M 57.6 307.584 
L 414.72 307.584 
" style="fill:none;stroke:#000000;stroke-linecap:square;stroke-linejoin:miter;stroke-width:0.8;"/>
   </g>
   <g id="patch_6">
    <path d="M 57.6 41.472 
L 414.72 41.472 
" style="fill:none;stroke:#000000;stroke-linecap:square;stroke-linejoin:miter;stroke-width:0.8;"/>
   </g>
   <g id="legend_1">
    <g id="patch_7">
     <path d="M 202.8825 299.584 
L 403.52 299.584 
Q 406.72 299.584 406.72 296.384 
L 406.72 274.499 
Q 406.72 271.299 403.52 271.299 
L 202.8825 271.299 
Q 199.6825 271.299 199.6825 274.499 
L 199.6825 296.384 
Q 199.6825 299.584 202.8825 299.584 
z
" style="fill:#ffffff;opacity:0.8;stroke:#cccccc;stroke-linejoin:miter;"/>
    </g>
    <g id="line2d_24">
     <path d="M 206.0825 284.2565 
L 238.0825 284.2565 
" style="fill:none;stroke:#0000ff;stroke-linecap:square;stroke-width:1.5;"/>
    </g>
    <g id="line2d_25"/>
    <g id="text_15">
     <!-- cumulative reward -->
     <g transform="translate(250.8825 289.8565)scale(0.16 -0.16)">
      <defs>
       <path d="M 3122 3366 
L 3122 2828 
Q 2878 2963 2633 3030 
Q 2388 3097 2138 3097 
Q 1578 3097 1268 2742 
Q 959 2388 959 1747 
Q 959 1106 1268 751 
Q 1578 397 2138 397 
Q 2388 397 2633 464 
Q 2878 531 3122 666 
L 3122 134 
Q 2881 22 2623 -34 
Q 2366 -91 2075 -91 
Q 1284 -91 818 406 
Q 353 903 353 1747 
Q 353 2603 823 3093 
Q 1294 3584 2113 3584 
Q 2378 3584 2631 3529 
Q 2884 3475 3122 3366 
z
" id="DejaVuSans-63" transform="scale(0.015625)"/>
      </defs>
      <use xlink:href="#DejaVuSans-63"/>
      <use x="54.980469" xlink:href="#DejaVuSans-75"/>
      <use x="118.359375" xlink:href="#DejaVuSans-6d"/>
      <use x="215.771484" xlink:href="#DejaVuSans-75"/>
      <use x="279.150391" xlink:href="#DejaVuSans-6c"/>
      <use x="306.933594" xlink:href="#DejaVuSans-61"/>
      <use x="368.212891" xlink:href="#DejaVuSans-74"/>
      <use x="407.421875" xlink:href="#DejaVuSans-69"/>
      <use x="435.205078" xlink:href="#DejaVuSans-76"/>
      <use x="494.384766" xlink:href="#DejaVuSans-65"/>
      <use x="555.908203" xlink:href="#DejaVuSans-20"/>
      <use x="587.695312" xlink:href="#DejaVuSans-72"/>
      <use x="626.558594" xlink:href="#DejaVuSans-65"/>
      <use x="688.082031" xlink:href="#DejaVuSans-77"/>
      <use x="769.869141" xlink:href="#DejaVuSans-61"/>
      <use x="831.148438" xlink:href="#DejaVuSans-72"/>
      <use x="870.511719" xlink:href="#DejaVuSans-64"/>
     </g>
    </g>
   </g>
  </g>
 </g>
 <defs>
  <clipPath id="p17ce83136a">
   <rect height="266.112" width="357.12" x="57.6" y="41.472"/>
  </clipPath>
 </defs>
</svg>
