<?xml version="1.0" encoding="utf-8" standalone="no"?>
<!DOCTYPE svg PUBLIC "-//W3C//DTD SVG 1.1//EN"
  "http://www.w3.org/Graphics/SVG/1.1/DTD/svg11.dtd">
<svg height="345.6pt" version="1.1" viewBox="0 0 460.8 345.6" width="460.8pt" xmlns="http://www.w3.org/2000/svg" xmlns:xlink="http://www.w3.org/1999/xlink">
 <metadata>
  <rdf:RDF xmlns:cc="http://creativecommons.org/ns#" xmlns:dc="http://purl.org/dc/elements/1.1/" xmlns:rdf="http://www.w3.org/1999/02/22-rdf-syntax-ns#">
   <cc:Work>
    <dc:type rdf:resource="http://purl.org/dc/dcmitype/StillImage"/>
    <dc:date>2021-10-19T17:37:04.169172</dc:date>
    <dc:description>{"agent.algorithm": "RayProximalPolicyOptimization", "agent.algorithm.render_env": false, "agent.algorithm.batch_mode": "complete_episodes", "agent.algorithm.train_batch_size": 200, "agent.algorithm.optimizer": "Adam", "agent.algorithm.vf_clip_param": 5000, "agent.algorithm.model": {"fcnet_activation": "tanh", "fcnet_hiddens": [30, 30]}, "env.env_class": "SchedulerPolicyRayEnvironment", "env.env_config": {"solver_driver": "CMAdriver", "solver_driver_args": [10, 10, "ellipsoid"], "maximize": false, "steps": 50, "state_metrics_names": ["DifferenceOfBest", "SolverState"], "state_metrics_config": [[40, false, 1, true, true], [{"step_size": {"max": 3, "min": 1e-10}}]], "reward_metric": "Best", "reward_metric_config": [false, false], "memes_no": 1, "parameter_tune_config": {"step_size": {"max": 3, "min": 1e-10}}}}</dc:description>
    <dc:format>image/svg+xml</dc:format>
    <dc:creator>
     <cc:Agent>
      <dc:title>Matplotlib v3.4.2, https://matplotlib.org/</dc:title>
     </cc:Agent>
    </dc:creator>
   </cc:Work>
  </rdf:RDF>
 </metadata>
 <defs>
  <style type="text/css">*{stroke-linecap:butt;stroke-linejoin:round;}</style>
 </defs>
 <g id="figure_1">
  <g id="patch_1">
   <path d="M 0 345.6 
L 460.8 345.6 
L 460.8 0 
L 0 0 
z
" style="fill:#ffffff;"/>
  </g>
  <g id="axes_1">
   <g id="patch_2">
    <path d="M 57.6 307.584 
L 414.72 307.584 
L 414.72 41.472 
L 57.6 41.472 
z
" style="fill:#ffffff;"/>
   </g>
   <g id="matplotlib.axis_1">
    <g id="xtick_1">
     <g id="line2d_1">
      <path clip-path="url(#pf3cb4032bb)" d="M 57.6 307.584 
L 57.6 41.472 
" style="fill:none;stroke:#b0b0b0;stroke-linecap:square;stroke-width:0.8;"/>
     </g>
     <g id="line2d_2">
      <defs>
       <path d="M 0 0 
L 0 3.5 
" id="maecae384b0" style="stroke:#000000;stroke-width:0.8;"/>
      </defs>
      <g>
       <use style="stroke:#000000;stroke-width:0.8;" x="57.6" xlink:href="#maecae384b0" y="307.584"/>
      </g>
     </g>
     <g id="text_1">
      <!-- 0 -->
      <g transform="translate(54.41875 322.182437)scale(0.1 -0.1)">
       <defs>
        <path d="M 2034 4250 
Q 1547 4250 1301 3770 
Q 1056 3291 1056 2328 
Q 1056 1369 1301 889 
Q 1547 409 2034 409 
Q 2525 409 2770 889 
Q 3016 1369 3016 2328 
Q 3016 3291 2770 3770 
Q 2525 4250 2034 4250 
z
M 2034 4750 
Q 2819 4750 3233 4129 
Q 3647 3509 3647 2328 
Q 3647 1150 3233 529 
Q 2819 -91 2034 -91 
Q 1250 -91 836 529 
Q 422 1150 422 2328 
Q 422 3509 836 4129 
Q 1250 4750 2034 4750 
z
" id="DejaVuSans-30" transform="scale(0.015625)"/>
       </defs>
       <use xlink:href="#DejaVuSans-30"/>
      </g>
     </g>
    </g>
    <g id="xtick_2">
     <g id="line2d_3">
      <path clip-path="url(#pf3cb4032bb)" d="M 129.024 307.584 
L 129.024 41.472 
" style="fill:none;stroke:#b0b0b0;stroke-linecap:square;stroke-width:0.8;"/>
     </g>
     <g id="line2d_4">
      <g>
       <use style="stroke:#000000;stroke-width:0.8;" x="129.024" xlink:href="#maecae384b0" y="307.584"/>
      </g>
     </g>
     <g id="text_2">
      <!-- 200 -->
      <g transform="translate(119.48025 322.182437)scale(0.1 -0.1)">
       <defs>
        <path d="M 1228 531 
L 3431 531 
L 3431 0 
L 469 0 
L 469 531 
Q 828 903 1448 1529 
Q 2069 2156 2228 2338 
Q 2531 2678 2651 2914 
Q 2772 3150 2772 3378 
Q 2772 3750 2511 3984 
Q 2250 4219 1831 4219 
Q 1534 4219 1204 4116 
Q 875 4013 500 3803 
L 500 4441 
Q 881 4594 1212 4672 
Q 1544 4750 1819 4750 
Q 2544 4750 2975 4387 
Q 3406 4025 3406 3419 
Q 3406 3131 3298 2873 
Q 3191 2616 2906 2266 
Q 2828 2175 2409 1742 
Q 1991 1309 1228 531 
z
" id="DejaVuSans-32" transform="scale(0.015625)"/>
       </defs>
       <use xlink:href="#DejaVuSans-32"/>
       <use x="63.623047" xlink:href="#DejaVuSans-30"/>
       <use x="127.246094" xlink:href="#DejaVuSans-30"/>
      </g>
     </g>
    </g>
    <g id="xtick_3">
     <g id="line2d_5">
      <path clip-path="url(#pf3cb4032bb)" d="M 200.448 307.584 
L 200.448 41.472 
" style="fill:none;stroke:#b0b0b0;stroke-linecap:square;stroke-width:0.8;"/>
     </g>
     <g id="line2d_6">
      <g>
       <use style="stroke:#000000;stroke-width:0.8;" x="200.448" xlink:href="#maecae384b0" y="307.584"/>
      </g>
     </g>
     <g id="text_3">
      <!-- 400 -->
      <g transform="translate(190.90425 322.182437)scale(0.1 -0.1)">
       <defs>
        <path d="M 2419 4116 
L 825 1625 
L 2419 1625 
L 2419 4116 
z
M 2253 4666 
L 3047 4666 
L 3047 1625 
L 3713 1625 
L 3713 1100 
L 3047 1100 
L 3047 0 
L 2419 0 
L 2419 1100 
L 313 1100 
L 313 1709 
L 2253 4666 
z
" id="DejaVuSans-34" transform="scale(0.015625)"/>
       </defs>
       <use xlink:href="#DejaVuSans-34"/>
       <use x="63.623047" xlink:href="#DejaVuSans-30"/>
       <use x="127.246094" xlink:href="#DejaVuSans-30"/>
      </g>
     </g>
    </g>
    <g id="xtick_4">
     <g id="line2d_7">
      <path clip-path="url(#pf3cb4032bb)" d="M 271.872 307.584 
L 271.872 41.472 
" style="fill:none;stroke:#b0b0b0;stroke-linecap:square;stroke-width:0.8;"/>
     </g>
     <g id="line2d_8">
      <g>
       <use style="stroke:#000000;stroke-width:0.8;" x="271.872" xlink:href="#maecae384b0" y="307.584"/>
      </g>
     </g>
     <g id="text_4">
      <!-- 600 -->
      <g transform="translate(262.32825 322.182437)scale(0.1 -0.1)">
       <defs>
        <path d="M 2113 2584 
Q 1688 2584 1439 2293 
Q 1191 2003 1191 1497 
Q 1191 994 1439 701 
Q 1688 409 2113 409 
Q 2538 409 2786 701 
Q 3034 994 3034 1497 
Q 3034 2003 2786 2293 
Q 2538 2584 2113 2584 
z
M 3366 4563 
L 3366 3988 
Q 3128 4100 2886 4159 
Q 2644 4219 2406 4219 
Q 1781 4219 1451 3797 
Q 1122 3375 1075 2522 
Q 1259 2794 1537 2939 
Q 1816 3084 2150 3084 
Q 2853 3084 3261 2657 
Q 3669 2231 3669 1497 
Q 3669 778 3244 343 
Q 2819 -91 2113 -91 
Q 1303 -91 875 529 
Q 447 1150 447 2328 
Q 447 3434 972 4092 
Q 1497 4750 2381 4750 
Q 2619 4750 2861 4703 
Q 3103 4656 3366 4563 
z
" id="DejaVuSans-36" transform="scale(0.015625)"/>
       </defs>
       <use xlink:href="#DejaVuSans-36"/>
       <use x="63.623047" xlink:href="#DejaVuSans-30"/>
       <use x="127.246094" xlink:href="#DejaVuSans-30"/>
      </g>
     </g>
    </g>
    <g id="xtick_5">
     <g id="line2d_9">
      <path clip-path="url(#pf3cb4032bb)" d="M 343.296 307.584 
L 343.296 41.472 
" style="fill:none;stroke:#b0b0b0;stroke-linecap:square;stroke-width:0.8;"/>
     </g>
     <g id="line2d_10">
      <g>
       <use style="stroke:#000000;stroke-width:0.8;" x="343.296" xlink:href="#maecae384b0" y="307.584"/>
      </g>
     </g>
     <g id="text_5">
      <!-- 800 -->
      <g transform="translate(333.75225 322.182437)scale(0.1 -0.1)">
       <defs>
        <path d="M 2034 2216 
Q 1584 2216 1326 1975 
Q 1069 1734 1069 1313 
Q 1069 891 1326 650 
Q 1584 409 2034 409 
Q 2484 409 2743 651 
Q 3003 894 3003 1313 
Q 3003 1734 2745 1975 
Q 2488 2216 2034 2216 
z
M 1403 2484 
Q 997 2584 770 2862 
Q 544 3141 544 3541 
Q 544 4100 942 4425 
Q 1341 4750 2034 4750 
Q 2731 4750 3128 4425 
Q 3525 4100 3525 3541 
Q 3525 3141 3298 2862 
Q 3072 2584 2669 2484 
Q 3125 2378 3379 2068 
Q 3634 1759 3634 1313 
Q 3634 634 3220 271 
Q 2806 -91 2034 -91 
Q 1263 -91 848 271 
Q 434 634 434 1313 
Q 434 1759 690 2068 
Q 947 2378 1403 2484 
z
M 1172 3481 
Q 1172 3119 1398 2916 
Q 1625 2713 2034 2713 
Q 2441 2713 2670 2916 
Q 2900 3119 2900 3481 
Q 2900 3844 2670 4047 
Q 2441 4250 2034 4250 
Q 1625 4250 1398 4047 
Q 1172 3844 1172 3481 
z
" id="DejaVuSans-38" transform="scale(0.015625)"/>
       </defs>
       <use xlink:href="#DejaVuSans-38"/>
       <use x="63.623047" xlink:href="#DejaVuSans-30"/>
       <use x="127.246094" xlink:href="#DejaVuSans-30"/>
      </g>
     </g>
    </g>
    <g id="xtick_6">
     <g id="line2d_11">
      <path clip-path="url(#pf3cb4032bb)" d="M 414.72 307.584 
L 414.72 41.472 
" style="fill:none;stroke:#b0b0b0;stroke-linecap:square;stroke-width:0.8;"/>
     </g>
     <g id="line2d_12">
      <g>
       <use style="stroke:#000000;stroke-width:0.8;" x="414.72" xlink:href="#maecae384b0" y="307.584"/>
      </g>
     </g>
     <g id="text_6">
      <!-- 1000 -->
      <g transform="translate(401.995 322.182437)scale(0.1 -0.1)">
       <defs>
        <path d="M 794 531 
L 1825 531 
L 1825 4091 
L 703 3866 
L 703 4441 
L 1819 4666 
L 2450 4666 
L 2450 531 
L 3481 531 
L 3481 0 
L 794 0 
L 794 531 
z
" id="DejaVuSans-31" transform="scale(0.015625)"/>
       </defs>
       <use xlink:href="#DejaVuSans-31"/>
       <use x="63.623047" xlink:href="#DejaVuSans-30"/>
       <use x="127.246094" xlink:href="#DejaVuSans-30"/>
       <use x="190.869141" xlink:href="#DejaVuSans-30"/>
      </g>
     </g>
    </g>
    <g id="text_7">
     <!-- Episodes -->
     <g transform="translate(213.917812 335.860562)scale(0.1 -0.1)">
      <defs>
       <path d="M 628 4666 
L 3578 4666 
L 3578 4134 
L 1259 4134 
L 1259 2753 
L 3481 2753 
L 3481 2222 
L 1259 2222 
L 1259 531 
L 3634 531 
L 3634 0 
L 628 0 
L 628 4666 
z
" id="DejaVuSans-45" transform="scale(0.015625)"/>
       <path d="M 1159 525 
L 1159 -1331 
L 581 -1331 
L 581 3500 
L 1159 3500 
L 1159 2969 
Q 1341 3281 1617 3432 
Q 1894 3584 2278 3584 
Q 2916 3584 3314 3078 
Q 3713 2572 3713 1747 
Q 3713 922 3314 415 
Q 2916 -91 2278 -91 
Q 1894 -91 1617 61 
Q 1341 213 1159 525 
z
M 3116 1747 
Q 3116 2381 2855 2742 
Q 2594 3103 2138 3103 
Q 1681 3103 1420 2742 
Q 1159 2381 1159 1747 
Q 1159 1113 1420 752 
Q 1681 391 2138 391 
Q 2594 391 2855 752 
Q 3116 1113 3116 1747 
z
" id="DejaVuSans-70" transform="scale(0.015625)"/>
       <path d="M 603 3500 
L 1178 3500 
L 1178 0 
L 603 0 
L 603 3500 
z
M 603 4863 
L 1178 4863 
L 1178 4134 
L 603 4134 
L 603 4863 
z
" id="DejaVuSans-69" transform="scale(0.015625)"/>
       <path d="M 2834 3397 
L 2834 2853 
Q 2591 2978 2328 3040 
Q 2066 3103 1784 3103 
Q 1356 3103 1142 2972 
Q 928 2841 928 2578 
Q 928 2378 1081 2264 
Q 1234 2150 1697 2047 
L 1894 2003 
Q 2506 1872 2764 1633 
Q 3022 1394 3022 966 
Q 3022 478 2636 193 
Q 2250 -91 1575 -91 
Q 1294 -91 989 -36 
Q 684 19 347 128 
L 347 722 
Q 666 556 975 473 
Q 1284 391 1588 391 
Q 1994 391 2212 530 
Q 2431 669 2431 922 
Q 2431 1156 2273 1281 
Q 2116 1406 1581 1522 
L 1381 1569 
Q 847 1681 609 1914 
Q 372 2147 372 2553 
Q 372 3047 722 3315 
Q 1072 3584 1716 3584 
Q 2034 3584 2315 3537 
Q 2597 3491 2834 3397 
z
" id="DejaVuSans-73" transform="scale(0.015625)"/>
       <path d="M 1959 3097 
Q 1497 3097 1228 2736 
Q 959 2375 959 1747 
Q 959 1119 1226 758 
Q 1494 397 1959 397 
Q 2419 397 2687 759 
Q 2956 1122 2956 1747 
Q 2956 2369 2687 2733 
Q 2419 3097 1959 3097 
z
M 1959 3584 
Q 2709 3584 3137 3096 
Q 3566 2609 3566 1747 
Q 3566 888 3137 398 
Q 2709 -91 1959 -91 
Q 1206 -91 779 398 
Q 353 888 353 1747 
Q 353 2609 779 3096 
Q 1206 3584 1959 3584 
z
" id="DejaVuSans-6f" transform="scale(0.015625)"/>
       <path d="M 2906 2969 
L 2906 4863 
L 3481 4863 
L 3481 0 
L 2906 0 
L 2906 525 
Q 2725 213 2448 61 
Q 2172 -91 1784 -91 
Q 1150 -91 751 415 
Q 353 922 353 1747 
Q 353 2572 751 3078 
Q 1150 3584 1784 3584 
Q 2172 3584 2448 3432 
Q 2725 3281 2906 2969 
z
M 947 1747 
Q 947 1113 1208 752 
Q 1469 391 1925 391 
Q 2381 391 2643 752 
Q 2906 1113 2906 1747 
Q 2906 2381 2643 2742 
Q 2381 3103 1925 3103 
Q 1469 3103 1208 2742 
Q 947 2381 947 1747 
z
" id="DejaVuSans-64" transform="scale(0.015625)"/>
       <path d="M 3597 1894 
L 3597 1613 
L 953 1613 
Q 991 1019 1311 708 
Q 1631 397 2203 397 
Q 2534 397 2845 478 
Q 3156 559 3463 722 
L 3463 178 
Q 3153 47 2828 -22 
Q 2503 -91 2169 -91 
Q 1331 -91 842 396 
Q 353 884 353 1716 
Q 353 2575 817 3079 
Q 1281 3584 2069 3584 
Q 2775 3584 3186 3129 
Q 3597 2675 3597 1894 
z
M 3022 2063 
Q 3016 2534 2758 2815 
Q 2500 3097 2075 3097 
Q 1594 3097 1305 2825 
Q 1016 2553 972 2059 
L 3022 2063 
z
" id="DejaVuSans-65" transform="scale(0.015625)"/>
      </defs>
      <use xlink:href="#DejaVuSans-45"/>
      <use x="63.183594" xlink:href="#DejaVuSans-70"/>
      <use x="126.660156" xlink:href="#DejaVuSans-69"/>
      <use x="154.443359" xlink:href="#DejaVuSans-73"/>
      <use x="206.542969" xlink:href="#DejaVuSans-6f"/>
      <use x="267.724609" xlink:href="#DejaVuSans-64"/>
      <use x="331.201172" xlink:href="#DejaVuSans-65"/>
      <use x="392.724609" xlink:href="#DejaVuSans-73"/>
     </g>
    </g>
   </g>
   <g id="matplotlib.axis_2">
    <g id="ytick_1">
     <g id="line2d_13">
      <path clip-path="url(#pf3cb4032bb)" d="M 57.6 290.813441 
L 414.72 290.813441 
" style="fill:none;stroke:#b0b0b0;stroke-linecap:square;stroke-width:0.8;"/>
     </g>
     <g id="line2d_14">
      <defs>
       <path d="M 0 0 
L -3.5 0 
" id="m8895a0ccd6" style="stroke:#000000;stroke-width:0.8;"/>
      </defs>
      <g>
       <use style="stroke:#000000;stroke-width:0.8;" x="57.6" xlink:href="#m8895a0ccd6" y="290.813441"/>
      </g>
     </g>
     <g id="text_8">
      <!-- −2.0 -->
      <g transform="translate(26.317187 294.61266)scale(0.1 -0.1)">
       <defs>
        <path d="M 678 2272 
L 4684 2272 
L 4684 1741 
L 678 1741 
L 678 2272 
z
" id="DejaVuSans-2212" transform="scale(0.015625)"/>
        <path d="M 684 794 
L 1344 794 
L 1344 0 
L 684 0 
L 684 794 
z
" id="DejaVuSans-2e" transform="scale(0.015625)"/>
       </defs>
       <use xlink:href="#DejaVuSans-2212"/>
       <use x="83.789062" xlink:href="#DejaVuSans-32"/>
       <use x="147.412109" xlink:href="#DejaVuSans-2e"/>
       <use x="179.199219" xlink:href="#DejaVuSans-30"/>
      </g>
     </g>
    </g>
    <g id="ytick_2">
     <g id="line2d_15">
      <path clip-path="url(#pf3cb4032bb)" d="M 57.6 233.544526 
L 414.72 233.544526 
" style="fill:none;stroke:#b0b0b0;stroke-linecap:square;stroke-width:0.8;"/>
     </g>
     <g id="line2d_16">
      <g>
       <use style="stroke:#000000;stroke-width:0.8;" x="57.6" xlink:href="#m8895a0ccd6" y="233.544526"/>
      </g>
     </g>
     <g id="text_9">
      <!-- −1.5 -->
      <g transform="translate(26.317187 237.343745)scale(0.1 -0.1)">
       <defs>
        <path d="M 691 4666 
L 3169 4666 
L 3169 4134 
L 1269 4134 
L 1269 2991 
Q 1406 3038 1543 3061 
Q 1681 3084 1819 3084 
Q 2600 3084 3056 2656 
Q 3513 2228 3513 1497 
Q 3513 744 3044 326 
Q 2575 -91 1722 -91 
Q 1428 -91 1123 -41 
Q 819 9 494 109 
L 494 744 
Q 775 591 1075 516 
Q 1375 441 1709 441 
Q 2250 441 2565 725 
Q 2881 1009 2881 1497 
Q 2881 1984 2565 2268 
Q 2250 2553 1709 2553 
Q 1456 2553 1204 2497 
Q 953 2441 691 2322 
L 691 4666 
z
" id="DejaVuSans-35" transform="scale(0.015625)"/>
       </defs>
       <use xlink:href="#DejaVuSans-2212"/>
       <use x="83.789062" xlink:href="#DejaVuSans-31"/>
       <use x="147.412109" xlink:href="#DejaVuSans-2e"/>
       <use x="179.199219" xlink:href="#DejaVuSans-35"/>
      </g>
     </g>
    </g>
    <g id="ytick_3">
     <g id="line2d_17">
      <path clip-path="url(#pf3cb4032bb)" d="M 57.6 176.275612 
L 414.72 176.275612 
" style="fill:none;stroke:#b0b0b0;stroke-linecap:square;stroke-width:0.8;"/>
     </g>
     <g id="line2d_18">
      <g>
       <use style="stroke:#000000;stroke-width:0.8;" x="57.6" xlink:href="#m8895a0ccd6" y="176.275612"/>
      </g>
     </g>
     <g id="text_10">
      <!-- −1.0 -->
      <g transform="translate(26.317187 180.074831)scale(0.1 -0.1)">
       <use xlink:href="#DejaVuSans-2212"/>
       <use x="83.789062" xlink:href="#DejaVuSans-31"/>
       <use x="147.412109" xlink:href="#DejaVuSans-2e"/>
       <use x="179.199219" xlink:href="#DejaVuSans-30"/>
      </g>
     </g>
    </g>
    <g id="ytick_4">
     <g id="line2d_19">
      <path clip-path="url(#pf3cb4032bb)" d="M 57.6 119.006698 
L 414.72 119.006698 
" style="fill:none;stroke:#b0b0b0;stroke-linecap:square;stroke-width:0.8;"/>
     </g>
     <g id="line2d_20">
      <g>
       <use style="stroke:#000000;stroke-width:0.8;" x="57.6" xlink:href="#m8895a0ccd6" y="119.006698"/>
      </g>
     </g>
     <g id="text_11">
      <!-- −0.5 -->
      <g transform="translate(26.317187 122.805916)scale(0.1 -0.1)">
       <use xlink:href="#DejaVuSans-2212"/>
       <use x="83.789062" xlink:href="#DejaVuSans-30"/>
       <use x="147.412109" xlink:href="#DejaVuSans-2e"/>
       <use x="179.199219" xlink:href="#DejaVuSans-35"/>
      </g>
     </g>
    </g>
    <g id="ytick_5">
     <g id="line2d_21">
      <path clip-path="url(#pf3cb4032bb)" d="M 57.6 61.737783 
L 414.72 61.737783 
" style="fill:none;stroke:#b0b0b0;stroke-linecap:square;stroke-width:0.8;"/>
     </g>
     <g id="line2d_22">
      <g>
       <use style="stroke:#000000;stroke-width:0.8;" x="57.6" xlink:href="#m8895a0ccd6" y="61.737783"/>
      </g>
     </g>
     <g id="text_12">
      <!-- 0.0 -->
      <g transform="translate(34.696875 65.537002)scale(0.1 -0.1)">
       <use xlink:href="#DejaVuSans-30"/>
       <use x="63.623047" xlink:href="#DejaVuSans-2e"/>
       <use x="95.410156" xlink:href="#DejaVuSans-30"/>
      </g>
     </g>
    </g>
    <g id="text_13">
     <!-- Cumulative Reward -->
     <g transform="translate(20.2375 223.275656)rotate(-90)scale(0.1 -0.1)">
      <defs>
       <path d="M 4122 4306 
L 4122 3641 
Q 3803 3938 3442 4084 
Q 3081 4231 2675 4231 
Q 1875 4231 1450 3742 
Q 1025 3253 1025 2328 
Q 1025 1406 1450 917 
Q 1875 428 2675 428 
Q 3081 428 3442 575 
Q 3803 722 4122 1019 
L 4122 359 
Q 3791 134 3420 21 
Q 3050 -91 2638 -91 
Q 1578 -91 968 557 
Q 359 1206 359 2328 
Q 359 3453 968 4101 
Q 1578 4750 2638 4750 
Q 3056 4750 3426 4639 
Q 3797 4528 4122 4306 
z
" id="DejaVuSans-43" transform="scale(0.015625)"/>
       <path d="M 544 1381 
L 544 3500 
L 1119 3500 
L 1119 1403 
Q 1119 906 1312 657 
Q 1506 409 1894 409 
Q 2359 409 2629 706 
Q 2900 1003 2900 1516 
L 2900 3500 
L 3475 3500 
L 3475 0 
L 2900 0 
L 2900 538 
Q 2691 219 2414 64 
Q 2138 -91 1772 -91 
Q 1169 -91 856 284 
Q 544 659 544 1381 
z
M 1991 3584 
L 1991 3584 
z
" id="DejaVuSans-75" transform="scale(0.015625)"/>
       <path d="M 3328 2828 
Q 3544 3216 3844 3400 
Q 4144 3584 4550 3584 
Q 5097 3584 5394 3201 
Q 5691 2819 5691 2113 
L 5691 0 
L 5113 0 
L 5113 2094 
Q 5113 2597 4934 2840 
Q 4756 3084 4391 3084 
Q 3944 3084 3684 2787 
Q 3425 2491 3425 1978 
L 3425 0 
L 2847 0 
L 2847 2094 
Q 2847 2600 2669 2842 
Q 2491 3084 2119 3084 
Q 1678 3084 1418 2786 
Q 1159 2488 1159 1978 
L 1159 0 
L 581 0 
L 581 3500 
L 1159 3500 
L 1159 2956 
Q 1356 3278 1631 3431 
Q 1906 3584 2284 3584 
Q 2666 3584 2933 3390 
Q 3200 3197 3328 2828 
z
" id="DejaVuSans-6d" transform="scale(0.015625)"/>
       <path d="M 603 4863 
L 1178 4863 
L 1178 0 
L 603 0 
L 603 4863 
z
" id="DejaVuSans-6c" transform="scale(0.015625)"/>
       <path d="M 2194 1759 
Q 1497 1759 1228 1600 
Q 959 1441 959 1056 
Q 959 750 1161 570 
Q 1363 391 1709 391 
Q 2188 391 2477 730 
Q 2766 1069 2766 1631 
L 2766 1759 
L 2194 1759 
z
M 3341 1997 
L 3341 0 
L 2766 0 
L 2766 531 
Q 2569 213 2275 61 
Q 1981 -91 1556 -91 
Q 1019 -91 701 211 
Q 384 513 384 1019 
Q 384 1609 779 1909 
Q 1175 2209 1959 2209 
L 2766 2209 
L 2766 2266 
Q 2766 2663 2505 2880 
Q 2244 3097 1772 3097 
Q 1472 3097 1187 3025 
Q 903 2953 641 2809 
L 641 3341 
Q 956 3463 1253 3523 
Q 1550 3584 1831 3584 
Q 2591 3584 2966 3190 
Q 3341 2797 3341 1997 
z
" id="DejaVuSans-61" transform="scale(0.015625)"/>
       <path d="M 1172 4494 
L 1172 3500 
L 2356 3500 
L 2356 3053 
L 1172 3053 
L 1172 1153 
Q 1172 725 1289 603 
Q 1406 481 1766 481 
L 2356 481 
L 2356 0 
L 1766 0 
Q 1100 0 847 248 
Q 594 497 594 1153 
L 594 3053 
L 172 3053 
L 172 3500 
L 594 3500 
L 594 4494 
L 1172 4494 
z
" id="DejaVuSans-74" transform="scale(0.015625)"/>
       <path d="M 191 3500 
L 800 3500 
L 1894 563 
L 2988 3500 
L 3597 3500 
L 2284 0 
L 1503 0 
L 191 3500 
z
" id="DejaVuSans-76" transform="scale(0.015625)"/>
       <path id="DejaVuSans-20" transform="scale(0.015625)"/>
       <path d="M 2841 2188 
Q 3044 2119 3236 1894 
Q 3428 1669 3622 1275 
L 4263 0 
L 3584 0 
L 2988 1197 
Q 2756 1666 2539 1819 
Q 2322 1972 1947 1972 
L 1259 1972 
L 1259 0 
L 628 0 
L 628 4666 
L 2053 4666 
Q 2853 4666 3247 4331 
Q 3641 3997 3641 3322 
Q 3641 2881 3436 2590 
Q 3231 2300 2841 2188 
z
M 1259 4147 
L 1259 2491 
L 2053 2491 
Q 2509 2491 2742 2702 
Q 2975 2913 2975 3322 
Q 2975 3731 2742 3939 
Q 2509 4147 2053 4147 
L 1259 4147 
z
" id="DejaVuSans-52" transform="scale(0.015625)"/>
       <path d="M 269 3500 
L 844 3500 
L 1563 769 
L 2278 3500 
L 2956 3500 
L 3675 769 
L 4391 3500 
L 4966 3500 
L 4050 0 
L 3372 0 
L 2619 2869 
L 1863 0 
L 1184 0 
L 269 3500 
z
" id="DejaVuSans-77" transform="scale(0.015625)"/>
       <path d="M 2631 2963 
Q 2534 3019 2420 3045 
Q 2306 3072 2169 3072 
Q 1681 3072 1420 2755 
Q 1159 2438 1159 1844 
L 1159 0 
L 581 0 
L 581 3500 
L 1159 3500 
L 1159 2956 
Q 1341 3275 1631 3429 
Q 1922 3584 2338 3584 
Q 2397 3584 2469 3576 
Q 2541 3569 2628 3553 
L 2631 2963 
z
" id="DejaVuSans-72" transform="scale(0.015625)"/>
      </defs>
      <use xlink:href="#DejaVuSans-43"/>
      <use x="69.824219" xlink:href="#DejaVuSans-75"/>
      <use x="133.203125" xlink:href="#DejaVuSans-6d"/>
      <use x="230.615234" xlink:href="#DejaVuSans-75"/>
      <use x="293.994141" xlink:href="#DejaVuSans-6c"/>
      <use x="321.777344" xlink:href="#DejaVuSans-61"/>
      <use x="383.056641" xlink:href="#DejaVuSans-74"/>
      <use x="422.265625" xlink:href="#DejaVuSans-69"/>
      <use x="450.048828" xlink:href="#DejaVuSans-76"/>
      <use x="509.228516" xlink:href="#DejaVuSans-65"/>
      <use x="570.751953" xlink:href="#DejaVuSans-20"/>
      <use x="602.539062" xlink:href="#DejaVuSans-52"/>
      <use x="667.521484" xlink:href="#DejaVuSans-65"/>
      <use x="729.044922" xlink:href="#DejaVuSans-77"/>
      <use x="810.832031" xlink:href="#DejaVuSans-61"/>
      <use x="872.111328" xlink:href="#DejaVuSans-72"/>
      <use x="911.474609" xlink:href="#DejaVuSans-64"/>
     </g>
    </g>
    <g id="text_14">
     <!-- 1e8 -->
     <g transform="translate(57.6 38.472)scale(0.1 -0.1)">
      <use xlink:href="#DejaVuSans-31"/>
      <use x="63.623047" xlink:href="#DejaVuSans-65"/>
      <use x="125.146484" xlink:href="#DejaVuSans-38"/>
     </g>
    </g>
   </g>
   <g id="line2d_23">
    <path clip-path="url(#pf3cb4032bb)" d="M 57.6 111.907985 
L 57.95712 119.590055 
L 58.31424 92.161004 
L 59.3856 119.590055 
L 59.74272 92.161004 
L 60.81408 119.590055 
L 61.1712 92.161004 
L 62.24256 119.590055 
L 62.59968 92.161004 
L 63.67104 119.590055 
L 64.02816 92.161004 
L 65.09952 119.590055 
L 65.45664 92.161004 
L 66.528 119.590055 
L 66.88512 92.161004 
L 67.95648 119.590055 
L 68.3136 92.161004 
L 69.38496 119.590055 
L 69.74208 92.161004 
L 70.81344 119.590055 
L 71.17056 92.161004 
L 72.24192 119.590055 
L 72.59904 92.161004 
L 73.6704 119.590055 
L 74.02752 92.161004 
L 75.09888 119.590055 
L 75.456 92.161004 
L 76.52736 119.590055 
L 76.88448 92.161004 
L 77.95584 119.590055 
L 78.31296 92.161004 
L 79.38432 119.590055 
L 79.74144 92.161004 
L 80.8128 119.590055 
L 81.16992 92.161004 
L 82.24128 119.590055 
L 82.5984 92.161004 
L 83.66976 119.590055 
L 84.02688 92.161004 
L 85.09824 119.590055 
L 85.45536 92.161004 
L 86.52672 119.590055 
L 86.88384 92.161004 
L 87.9552 119.590055 
L 88.31232 92.161004 
L 89.38368 119.590055 
L 89.7408 92.161004 
L 90.81216 119.590055 
L 91.16928 92.161004 
L 92.24064 119.590055 
L 92.59776 92.161004 
L 92.95488 101.011208 
L 93.312 119.505768 
L 93.66912 117.771572 
L 94.02624 89.008358 
L 94.38336 103.274691 
L 94.74048 90.054031 
L 95.0976 157.864302 
L 95.45472 103.128624 
L 95.81184 158.091593 
L 96.16896 98.312275 
L 96.52608 110.635828 
L 96.8832 105.443047 
L 97.24032 119.040271 
L 97.59744 97.364178 
L 97.95456 128.707911 
L 98.31168 108.582577 
L 98.6688 104.243722 
L 99.02592 107.732957 
L 99.38304 86.310402 
L 99.74016 121.803043 
L 100.09728 215.961636 
L 100.81152 108.621723 
L 101.16864 284.811278 
L 101.52576 97.226759 
L 101.88288 97.957815 
L 102.24 93.656853 
L 102.95424 128.184289 
L 103.31136 89.441282 
L 103.66848 117.209693 
L 104.0256 81.273983 
L 104.38272 98.600686 
L 104.73984 136.303436 
L 105.09696 88.974263 
L 105.45408 94.328041 
L 105.8112 89.113995 
L 106.16832 138.228874 
L 106.52544 131.337202 
L 106.88256 197.984102 
L 107.23968 123.183219 
L 107.5968 108.673919 
L 107.95392 107.086668 
L 108.31104 89.212208 
L 108.66816 108.278501 
L 109.02528 81.254782 
L 109.3824 142.429738 
L 109.73952 78.845897 
L 110.09664 121.563346 
L 110.45376 112.629197 
L 110.81088 109.433601 
L 111.168 150.552848 
L 111.52512 106.97183 
L 111.88224 83.450921 
L 112.23936 86.738555 
L 112.59648 91.9343 
L 112.9536 88.419697 
L 113.31072 118.204499 
L 113.66784 115.054961 
L 114.02496 146.510263 
L 114.38208 133.678966 
L 114.7392 83.889387 
L 115.09632 144.245653 
L 115.45344 103.876527 
L 115.81056 131.24981 
L 116.16768 96.196232 
L 116.5248 103.040769 
L 116.88192 91.349442 
L 117.23904 115.883213 
L 117.59616 110.951548 
L 117.95328 80.534241 
L 118.66752 121.927225 
L 119.02464 107.098081 
L 119.38176 175.078168 
L 119.73888 142.631214 
L 120.096 90.225549 
L 120.45312 105.705352 
L 120.81024 90.091211 
L 121.16736 106.15056 
L 121.52448 88.975298 
L 121.8816 125.901652 
L 122.23872 112.829675 
L 122.59584 109.732913 
L 122.95296 97.634426 
L 123.31008 98.421758 
L 123.6672 135.317394 
L 124.02432 112.699675 
L 124.38144 103.786056 
L 124.73856 104.075845 
L 125.09568 88.053755 
L 125.4528 143.932505 
L 125.80992 77.181289 
L 126.16704 219.092209 
L 126.52416 124.05092 
L 126.88128 197.376188 
L 127.2384 80.144598 
L 127.59552 93.577379 
L 127.95264 134.564818 
L 128.30976 92.089059 
L 128.66688 147.969698 
L 129.024 124.788684 
L 129.38112 93.768287 
L 129.73824 102.754497 
L 130.09536 89.030818 
L 130.45248 100.878368 
L 130.8096 91.932271 
L 131.16672 88.432728 
L 131.52384 102.396237 
L 131.88096 92.578543 
L 132.23808 88.113891 
L 132.5952 105.771326 
L 132.95232 87.010941 
L 133.30944 83.032206 
L 133.66656 108.47413 
L 134.02368 78.674601 
L 134.3808 107.428875 
L 134.73792 89.593354 
L 135.09504 84.178209 
L 135.45216 107.950946 
L 135.80928 84.564435 
L 136.1664 114.394262 
L 136.52352 116.019728 
L 136.88064 185.85859 
L 137.23776 97.886359 
L 137.59488 87.840308 
L 137.952 164.572508 
L 139.02336 78.841875 
L 139.38048 285.408 
L 139.7376 106.068819 
L 140.09472 150.730734 
L 140.45184 78.552401 
L 140.80896 76.791498 
L 141.16608 78.995739 
L 141.5232 83.946317 
L 141.88032 123.752061 
L 142.23744 178.316655 
L 142.59456 203.482838 
L 142.95168 133.770299 
L 143.3088 94.642352 
L 143.66592 89.812496 
L 144.02304 115.050259 
L 144.38016 95.519169 
L 144.73728 115.270862 
L 145.0944 96.250451 
L 145.45152 83.544038 
L 145.80864 115.138109 
L 146.16576 104.677831 
L 146.52288 124.632071 
L 146.88 93.295708 
L 147.23712 120.577038 
L 147.59424 268.060673 
L 147.95136 99.466772 
L 148.30848 157.017353 
L 148.6656 107.570956 
L 149.02272 96.726383 
L 149.37984 80.687355 
L 149.73696 78.263429 
L 150.09408 74.567268 
L 150.80832 108.129575 
L 151.16544 81.41602 
L 151.52256 108.288265 
L 151.87968 80.51997 
L 152.2368 98.568457 
L 152.59392 109.375198 
L 152.95104 80.254979 
L 153.30816 109.232186 
L 153.66528 104.538984 
L 154.0224 140.989821 
L 154.37952 82.504437 
L 154.73664 159.93093 
L 155.09376 92.010678 
L 155.45088 178.95886 
L 155.808 81.075065 
L 156.16512 77.232425 
L 156.52224 94.545276 
L 156.87936 76.542729 
L 157.23648 74.459661 
L 157.5936 80.986728 
L 157.95072 77.90223 
L 158.30784 77.512179 
L 158.66496 79.938075 
L 159.02208 136.577301 
L 159.3792 92.812375 
L 159.73632 129.02476 
L 160.09344 93.876235 
L 160.45056 77.784282 
L 161.52192 89.263343 
L 161.87904 76.863148 
L 162.23616 86.502947 
L 162.59328 90.371081 
L 162.9504 115.169468 
L 163.30752 88.83032 
L 163.66464 85.637624 
L 164.02176 84.825667 
L 164.37888 88.982764 
L 164.736 155.090472 
L 165.09312 77.012807 
L 165.45024 118.357015 
L 165.80736 84.846583 
L 166.16448 87.199395 
L 166.5216 98.726923 
L 166.87872 76.225549 
L 167.23584 92.432017 
L 167.59296 76.43777 
L 167.95008 121.621296 
L 168.3072 80.928017 
L 168.66432 123.448817 
L 169.02144 85.302076 
L 169.37856 85.006413 
L 169.73568 95.446312 
L 170.0928 122.79993 
L 170.44992 84.011406 
L 171.16416 73.249257 
L 171.8784 83.882684 
L 172.23552 87.407605 
L 172.59264 78.419033 
L 172.94976 83.508847 
L 173.30688 134.050899 
L 173.664 70.968634 
L 174.02112 119.059889 
L 174.37824 70.52246 
L 174.73536 96.519023 
L 175.09248 77.26296 
L 175.4496 82.566093 
L 175.80672 70.768876 
L 176.16384 95.800813 
L 176.52096 98.020882 
L 176.87808 123.178533 
L 177.2352 121.294661 
L 177.59232 69.205905 
L 177.94944 106.616188 
L 178.30656 71.134174 
L 178.66368 96.465246 
L 179.0208 91.052806 
L 179.37792 144.124847 
L 179.73504 82.51273 
L 180.09216 112.886808 
L 180.44928 109.253589 
L 180.8064 82.614767 
L 181.16352 124.160194 
L 181.52064 84.715604 
L 182.23488 104.189656 
L 182.592 77.777986 
L 182.94912 193.990929 
L 183.30624 127.933443 
L 183.66336 118.838628 
L 184.02048 102.888286 
L 184.3776 136.386382 
L 184.73472 76.29814 
L 185.09184 75.031879 
L 185.44896 71.359676 
L 185.80608 84.753478 
L 186.1632 93.166989 
L 186.52032 94.944425 
L 186.87744 91.403005 
L 187.23456 98.859947 
L 187.59168 76.746577 
L 187.9488 91.191069 
L 188.30592 85.277623 
L 188.66304 112.137348 
L 189.02016 89.388036 
L 189.37728 79.792793 
L 189.7344 80.292811 
L 190.09152 80.098021 
L 190.44864 108.083918 
L 190.80576 97.721007 
L 191.16288 105.7386 
L 191.52 95.309156 
L 191.87712 80.075153 
L 192.23424 83.287813 
L 192.94848 102.547176 
L 193.3056 82.761051 
L 193.66272 74.406519 
L 194.01984 93.481585 
L 194.37696 75.329559 
L 195.0912 93.550544 
L 195.44832 76.634916 
L 195.80544 96.20561 
L 196.16256 72.411778 
L 196.51968 89.425186 
L 196.8768 82.047038 
L 197.23392 110.599865 
L 197.59104 77.424975 
L 197.94816 230.764911 
L 198.30528 110.628397 
L 198.6624 97.42897 
L 199.01952 69.987132 
L 199.37664 86.978113 
L 199.73376 77.869321 
L 200.09088 87.873309 
L 200.448 74.903189 
L 200.80512 76.07416 
L 201.16224 83.357076 
L 201.51936 81.000189 
L 201.87648 90.282429 
L 202.2336 74.958478 
L 202.94784 87.754999 
L 203.30496 85.240323 
L 203.66208 95.308727 
L 204.0192 111.086085 
L 204.37632 87.838638 
L 204.73344 103.436199 
L 205.09056 84.308254 
L 205.8048 119.515984 
L 206.16192 82.516475 
L 206.51904 177.562794 
L 206.87616 84.281857 
L 207.23328 121.52945 
L 207.5904 93.319155 
L 207.94752 79.619803 
L 208.30464 183.903252 
L 208.66176 77.920962 
L 209.01888 86.119784 
L 209.376 117.813157 
L 209.73312 112.451089 
L 210.09024 93.130191 
L 210.44736 100.08592 
L 210.80448 78.140857 
L 211.1616 101.10335 
L 211.51872 92.221531 
L 211.87584 97.111603 
L 212.23296 183.655298 
L 212.59008 87.806142 
L 212.9472 163.670755 
L 213.30432 82.564507 
L 213.66144 142.041523 
L 214.01856 76.925753 
L 214.37568 152.132992 
L 214.7328 73.655622 
L 215.08992 79.971354 
L 215.44704 80.351398 
L 215.80416 76.249519 
L 216.16128 80.424219 
L 216.5184 134.903173 
L 216.87552 76.72978 
L 217.23264 123.619392 
L 217.58976 75.714216 
L 217.94688 77.375955 
L 218.304 112.25135 
L 218.66112 67.662794 
L 219.01824 85.701362 
L 219.37536 86.457542 
L 219.73248 112.73285 
L 220.0896 84.518207 
L 220.44672 88.254667 
L 220.80384 73.229513 
L 221.16096 69.036515 
L 221.51808 110.162576 
L 221.8752 88.07342 
L 222.23232 73.359938 
L 222.58944 163.526576 
L 222.94656 71.70389 
L 223.30368 73.635372 
L 223.6608 142.491543 
L 224.01792 70.792599 
L 224.37504 133.828841 
L 224.73216 79.244859 
L 225.08928 82.182881 
L 225.4464 73.305954 
L 225.80352 72.806063 
L 226.16064 73.340612 
L 226.51776 82.028904 
L 226.87488 74.190308 
L 227.232 76.352461 
L 227.58912 75.584637 
L 227.94624 174.923149 
L 228.30336 75.321172 
L 228.66048 160.146666 
L 229.0176 70.97381 
L 229.37472 122.614121 
L 229.73184 67.945111 
L 230.08896 170.570298 
L 230.44608 69.277956 
L 230.8032 67.920353 
L 231.16032 69.305393 
L 231.51744 72.318903 
L 231.87456 70.05738 
L 232.5888 75.109582 
L 232.94592 80.416119 
L 233.30304 168.732169 
L 233.66016 98.44711 
L 234.01728 115.501409 
L 234.3744 85.644271 
L 234.73152 79.056792 
L 235.08864 82.27799 
L 235.44576 70.075949 
L 235.80288 73.734834 
L 236.51712 69.492698 
L 236.87424 102.598062 
L 237.58848 69.577634 
L 237.9456 81.665522 
L 238.30272 71.753368 
L 238.65984 107.01996 
L 239.7312 77.687062 
L 240.08832 80.754663 
L 240.44544 77.320307 
L 240.80256 91.061044 
L 241.15968 72.186674 
L 241.5168 102.892643 
L 241.87392 109.240207 
L 242.23104 71.944904 
L 242.58816 73.652778 
L 242.94528 69.484586 
L 243.65952 73.873979 
L 244.01664 70.793505 
L 244.37376 108.632343 
L 244.73088 75.593587 
L 245.088 67.9819 
L 245.44512 68.988548 
L 245.80224 74.739222 
L 246.15936 96.547531 
L 246.51648 95.156412 
L 246.8736 124.136572 
L 247.23072 76.884198 
L 247.58784 68.757551 
L 247.94496 100.549351 
L 248.30208 70.252969 
L 248.6592 118.680178 
L 249.01632 68.198289 
L 249.37344 95.832856 
L 249.73056 69.209929 
L 250.08768 78.361245 
L 250.4448 75.420897 
L 250.80192 77.567858 
L 251.15904 99.197578 
L 251.87328 81.134127 
L 252.2304 77.142833 
L 252.58752 87.200229 
L 252.94464 86.433415 
L 253.30176 69.504983 
L 253.65888 81.487546 
L 254.016 70.571136 
L 254.37312 79.470415 
L 254.73024 93.299486 
L 255.08736 73.925816 
L 255.44448 178.612491 
L 255.8016 88.294538 
L 256.15872 74.742878 
L 256.51584 80.519889 
L 256.87296 96.209686 
L 257.5872 71.583985 
L 257.94432 267.032263 
L 258.30144 71.605411 
L 258.65856 185.405052 
L 259.3728 70.785361 
L 259.72992 154.323238 
L 260.08704 71.115235 
L 260.44416 100.382539 
L 260.80128 144.507879 
L 261.1584 76.310211 
L 261.51552 141.675326 
L 261.87264 92.993855 
L 262.22976 108.689206 
L 262.58688 167.441764 
L 262.944 91.916798 
L 263.30112 125.295238 
L 263.65824 75.204741 
L 264.01536 133.717953 
L 264.37248 87.274344 
L 264.7296 70.395119 
L 265.08672 76.183501 
L 265.44384 70.848205 
L 265.80096 95.063367 
L 266.15808 71.542505 
L 266.5152 110.098563 
L 266.87232 68.091231 
L 267.22944 103.292946 
L 267.58656 72.889294 
L 267.94368 80.451858 
L 268.3008 74.435191 
L 268.65792 73.140344 
L 269.01504 104.03278 
L 269.37216 68.615495 
L 269.72928 78.750793 
L 270.0864 69.220132 
L 270.44352 76.245768 
L 270.80064 85.673812 
L 271.15776 70.972998 
L 271.51488 90.152478 
L 271.872 156.095248 
L 272.22912 100.281729 
L 272.58624 96.368617 
L 272.94336 100.680957 
L 273.30048 108.310337 
L 273.6576 137.456408 
L 274.01472 100.689783 
L 274.37184 87.101156 
L 274.72896 124.677763 
L 275.08608 71.545836 
L 275.4432 212.536595 
L 275.80032 82.436325 
L 276.15744 79.849559 
L 276.51456 73.09256 
L 276.87168 85.49764 
L 277.2288 70.608626 
L 277.58592 90.027521 
L 278.30016 83.162409 
L 278.65728 83.337096 
L 279.0144 77.829505 
L 279.37152 68.563788 
L 279.72864 85.750702 
L 280.08576 80.811218 
L 280.44288 77.640754 
L 280.8 65.653278 
L 281.15712 93.867427 
L 281.51424 70.13384 
L 281.87136 87.851408 
L 282.94272 68.943026 
L 283.29984 90.628506 
L 283.65696 67.243523 
L 284.01408 83.115202 
L 284.3712 70.965955 
L 284.72832 67.457156 
L 285.08544 91.497207 
L 285.44256 71.679795 
L 285.79968 99.878379 
L 286.1568 87.37237 
L 286.51392 81.008589 
L 286.87104 93.538222 
L 287.22816 73.742872 
L 287.58528 79.846402 
L 287.9424 131.749704 
L 288.29952 69.099362 
L 288.65664 127.008563 
L 289.01376 74.623028 
L 289.37088 70.911448 
L 290.08512 77.326938 
L 290.44224 67.585358 
L 290.79936 69.749458 
L 291.15648 67.509311 
L 291.87072 78.967067 
L 292.22784 64.944566 
L 292.58496 97.083398 
L 292.94208 70.161634 
L 293.2992 100.545244 
L 293.65632 93.684526 
L 294.01344 91.474866 
L 294.37056 103.498536 
L 294.72768 84.351132 
L 295.0848 77.834899 
L 295.44192 82.067359 
L 295.79904 69.382689 
L 296.15616 65.776567 
L 296.51328 207.303963 
L 296.8704 63.648 
L 297.22752 121.676236 
L 297.58464 79.406253 
L 297.94176 65.454394 
L 298.29888 74.066391 
L 298.656 77.350864 
L 299.01312 64.645209 
L 299.37024 93.094467 
L 299.72736 67.610246 
L 300.08448 101.791816 
L 300.4416 245.790623 
L 300.79872 85.199713 
L 301.15584 69.676124 
L 301.51296 161.19222 
L 301.87008 208.630076 
L 302.2272 115.094643 
L 302.58432 167.847554 
L 302.94144 151.68569 
L 303.29856 74.55542 
L 303.65568 71.256904 
L 304.0128 76.540432 
L 304.36992 102.232466 
L 304.72704 71.998504 
L 305.08416 78.990866 
L 305.44128 70.191543 
L 305.7984 115.0765 
L 306.15552 81.66496 
L 306.51264 130.728201 
L 306.86976 74.694745 
L 307.22688 147.563919 
L 307.584 68.895404 
L 307.94112 89.622737 
L 308.29824 73.649076 
L 308.65536 82.418736 
L 309.01248 160.451521 
L 309.3696 82.230038 
L 309.72672 148.173921 
L 310.08384 72.094643 
L 310.44096 182.540587 
L 310.79808 79.535182 
L 311.1552 112.145855 
L 311.51232 77.827957 
L 311.86944 85.148349 
L 312.22656 66.427195 
L 312.58368 78.194923 
L 312.9408 68.465163 
L 313.29792 68.112257 
L 313.65504 68.757128 
L 314.01216 68.447375 
L 314.36928 68.742018 
L 314.7264 86.027579 
L 315.08352 68.971904 
L 315.44064 76.397494 
L 315.79776 78.815784 
L 316.15488 78.325381 
L 316.512 68.672633 
L 316.86912 71.671735 
L 317.22624 73.249479 
L 317.58336 78.011166 
L 317.94048 118.619405 
L 318.2976 74.297837 
L 318.65472 84.853249 
L 319.01184 78.285493 
L 319.36896 77.722602 
L 319.72608 83.657276 
L 320.0832 78.338188 
L 320.44032 119.591448 
L 320.79744 71.554872 
L 321.15456 77.061629 
L 321.51168 74.215333 
L 321.8688 67.397155 
L 322.22592 86.355697 
L 322.58304 76.869524 
L 322.94016 83.24157 
L 323.29728 78.399804 
L 323.6544 101.311585 
L 324.01152 75.752336 
L 324.36864 99.038154 
L 324.72576 67.342433 
L 325.08288 77.345041 
L 325.44 68.963307 
L 325.79712 77.668974 
L 326.15424 98.510019 
L 326.51136 171.394302 
L 326.86848 95.02601 
L 327.2256 118.651883 
L 327.58272 81.790909 
L 327.93984 66.241524 
L 328.29696 92.278708 
L 328.65408 66.978858 
L 329.0112 74.716427 
L 329.36832 68.842415 
L 329.72544 70.281114 
L 330.08256 66.769169 
L 330.43968 75.732805 
L 330.7968 75.049619 
L 331.15392 80.946145 
L 331.51104 75.057679 
L 331.86816 96.013079 
L 332.22528 86.854151 
L 332.5824 164.309232 
L 332.93952 67.327886 
L 333.29664 68.981176 
L 333.65376 71.394424 
L 334.01088 86.693304 
L 334.368 74.89359 
L 334.72512 88.641975 
L 335.08224 93.393882 
L 335.43936 107.251324 
L 335.79648 86.327527 
L 336.1536 170.819648 
L 336.51072 97.343951 
L 336.86784 154.273317 
L 337.22496 123.653029 
L 337.58208 75.516065 
L 337.9392 79.48796 
L 338.29632 81.464559 
L 338.65344 70.938757 
L 339.01056 84.953549 
L 339.36768 82.334215 
L 339.7248 133.810061 
L 340.08192 86.53272 
L 340.43904 140.739644 
L 340.79616 125.214533 
L 341.15328 86.927718 
L 341.5104 106.664293 
L 341.86752 69.523733 
L 342.22464 68.140963 
L 342.58176 75.901404 
L 342.93888 70.17687 
L 343.296 73.82577 
L 343.65312 72.946506 
L 344.36736 75.439751 
L 344.72448 85.697697 
L 345.0816 67.641489 
L 345.43872 74.654578 
L 345.79584 76.429667 
L 346.15296 71.934011 
L 346.51008 65.587892 
L 346.8672 75.729696 
L 347.22432 66.760102 
L 347.58144 93.382997 
L 347.93856 71.345526 
L 348.29568 91.67984 
L 348.6528 77.750719 
L 349.00992 81.863936 
L 349.36704 74.391158 
L 349.72416 85.74686 
L 350.4384 67.97963 
L 351.15264 71.71093 
L 351.50976 67.532717 
L 351.86688 85.190759 
L 352.224 66.540634 
L 352.58112 79.935897 
L 352.93824 77.749724 
L 353.29536 74.332698 
L 353.65248 74.314476 
L 354.0096 71.899689 
L 354.72384 79.679704 
L 355.08096 67.99834 
L 355.43808 79.369502 
L 355.7952 71.751842 
L 356.15232 74.568839 
L 356.86656 76.982725 
L 357.5808 126.265208 
L 357.93792 108.058105 
L 358.29504 181.014605 
L 358.65216 86.955464 
L 359.00928 75.634756 
L 359.3664 74.213033 
L 359.72352 71.626147 
L 360.08064 76.514333 
L 360.43776 189.002602 
L 360.79488 80.586024 
L 361.152 114.630024 
L 361.50912 76.739905 
L 361.86624 80.832841 
L 362.22336 73.016459 
L 362.58048 94.259152 
L 362.9376 68.65712 
L 363.29472 78.494782 
L 363.65184 83.472036 
L 364.00896 70.324083 
L 364.36608 84.250346 
L 364.7232 65.772788 
L 365.08032 73.39867 
L 365.43744 75.851714 
L 365.79456 88.764617 
L 366.15168 69.5747 
L 366.5088 85.993596 
L 366.86592 82.348696 
L 367.22304 92.838232 
L 367.58016 193.56348 
L 367.93728 72.876646 
L 368.2944 164.944281 
L 368.65152 81.502537 
L 369.36576 66.695214 
L 370.08 79.551115 
L 370.43712 140.270511 
L 370.79424 75.558457 
L 371.15136 189.147328 
L 371.50848 81.58758 
L 371.8656 145.543959 
L 372.22272 89.690509 
L 372.57984 87.770777 
L 372.93696 83.7911 
L 373.29408 72.426254 
L 373.6512 85.907409 
L 374.00832 70.718994 
L 374.36544 81.304063 
L 374.72256 95.900032 
L 375.07968 71.092574 
L 375.4368 72.758829 
L 375.79392 69.437249 
L 376.15104 86.147589 
L 376.50816 72.145421 
L 376.86528 72.107289 
L 377.2224 84.083493 
L 377.57952 76.585524 
L 377.93664 80.051193 
L 378.29376 110.494453 
L 378.65088 76.450802 
L 379.008 80.939968 
L 379.36512 118.327059 
L 379.72224 66.292871 
L 380.07936 117.288201 
L 380.43648 77.414513 
L 380.7936 79.903348 
L 381.15072 71.045311 
L 381.50784 68.896102 
L 381.86496 70.169534 
L 382.22208 70.736318 
L 382.5792 72.924145 
L 382.93632 67.564439 
L 383.29344 140.169806 
L 383.65056 80.133751 
L 384.00768 152.750065 
L 384.3648 87.166704 
L 384.72192 81.146562 
L 385.07904 71.458803 
L 385.43616 124.098836 
L 385.79328 71.876263 
L 386.1504 80.058682 
L 386.50752 68.59716 
L 386.86464 82.821012 
L 387.22176 71.425857 
L 387.57888 80.607044 
L 387.936 72.934306 
L 388.29312 72.488716 
L 388.65024 74.85416 
L 389.00736 85.669854 
L 389.36448 89.178281 
L 389.7216 69.878198 
L 390.07872 68.587045 
L 390.43584 79.186352 
L 390.79296 119.484962 
L 391.15008 89.839494 
L 391.5072 185.219573 
L 391.86432 214.629774 
L 392.22144 86.068696 
L 392.57856 102.884694 
L 392.93568 82.346384 
L 393.2928 70.881119 
L 393.64992 151.091845 
L 394.00704 76.863544 
L 394.36416 181.380012 
L 394.72128 75.760477 
L 395.0784 66.807579 
L 395.43552 75.007826 
L 395.79264 78.078135 
L 396.14976 127.928282 
L 396.50688 85.428474 
L 396.864 162.488152 
L 397.22112 84.925461 
L 397.57824 65.565982 
L 397.93536 85.716736 
L 398.29248 66.98326 
L 398.6496 89.517258 
L 399.36384 70.031374 
L 399.72096 74.126319 
L 400.07808 70.769917 
L 400.4352 80.36523 
L 400.79232 95.39615 
L 401.14944 72.594803 
L 401.50656 81.34785 
L 401.86368 74.451758 
L 402.2208 263.531324 
L 402.57792 81.452201 
L 402.93504 102.622985 
L 403.29216 73.039319 
L 403.64928 99.050669 
L 404.0064 85.679353 
L 404.36352 109.745825 
L 404.72064 72.372566 
L 405.07776 127.651773 
L 405.43488 69.401611 
L 405.792 78.752234 
L 406.14912 74.927772 
L 406.50624 66.394859 
L 406.86336 97.504238 
L 407.22048 75.300642 
L 407.5776 73.037712 
L 407.93472 105.99786 
L 408.29184 70.871065 
L 408.64896 98.4388 
L 409.00608 77.009753 
L 409.3632 70.683945 
L 409.72032 122.909216 
L 410.07744 80.396647 
L 410.43456 181.735774 
L 410.79168 70.094696 
L 411.1488 148.425437 
L 411.86304 74.632161 
L 412.22016 146.412181 
L 412.57728 77.574205 
L 412.9344 101.604534 
L 413.29152 80.659416 
L 413.64864 86.585858 
L 414.00576 78.773655 
L 414.36288 79.268423 
L 414.36288 79.268423 
" style="fill:none;stroke:#0000ff;stroke-linecap:square;stroke-width:1.5;"/>
   </g>
   <g id="patch_3">
    <path d="M 57.6 307.584 
L 57.6 41.472 
" style="fill:none;stroke:#000000;stroke-linecap:square;stroke-linejoin:miter;stroke-width:0.8;"/>
   </g>
   <g id="patch_4">
    <path d="M 414.72 307.584 
L 414.72 41.472 
" style="fill:none;stroke:#000000;stroke-linecap:square;stroke-linejoin:miter;stroke-width:0.8;"/>
   </g>
   <g id="patch_5">
    <path d="M 57.6 307.584 
L 414.72 307.584 
" style="fill:none;stroke:#000000;stroke-linecap:square;stroke-linejoin:miter;stroke-width:0.8;"/>
   </g>
   <g id="patch_6">
    <path d="M 57.6 41.472 
L 414.72 41.472 
" style="fill:none;stroke:#000000;stroke-linecap:square;stroke-linejoin:miter;stroke-width:0.8;"/>
   </g>
   <g id="legend_1">
    <g id="patch_7">
     <path d="M 64.6 64.150125 
L 189.998437 64.150125 
Q 191.998437 64.150125 191.998437 62.150125 
L 191.998437 48.472 
Q 191.998437 46.472 189.998437 46.472 
L 64.6 46.472 
Q 62.6 46.472 62.6 48.472 
L 62.6 62.150125 
Q 62.6 64.150125 64.6 64.150125 
z
" style="fill:#ffffff;opacity:0.8;stroke:#cccccc;stroke-linejoin:miter;"/>
    </g>
    <g id="line2d_24">
     <path d="M 66.6 54.570438 
L 86.6 54.570438 
" style="fill:none;stroke:#0000ff;stroke-linecap:square;stroke-width:1.5;"/>
    </g>
    <g id="line2d_25"/>
    <g id="text_15">
     <!-- cumulative reward -->
     <g transform="translate(94.6 58.070438)scale(0.1 -0.1)">
      <defs>
       <path d="M 3122 3366 
L 3122 2828 
Q 2878 2963 2633 3030 
Q 2388 3097 2138 3097 
Q 1578 3097 1268 2742 
Q 959 2388 959 1747 
Q 959 1106 1268 751 
Q 1578 397 2138 397 
Q 2388 397 2633 464 
Q 2878 531 3122 666 
L 3122 134 
Q 2881 22 2623 -34 
Q 2366 -91 2075 -91 
Q 1284 -91 818 406 
Q 353 903 353 1747 
Q 353 2603 823 3093 
Q 1294 3584 2113 3584 
Q 2378 3584 2631 3529 
Q 2884 3475 3122 3366 
z
" id="DejaVuSans-63" transform="scale(0.015625)"/>
      </defs>
      <use xlink:href="#DejaVuSans-63"/>
      <use x="54.980469" xlink:href="#DejaVuSans-75"/>
      <use x="118.359375" xlink:href="#DejaVuSans-6d"/>
      <use x="215.771484" xlink:href="#DejaVuSans-75"/>
      <use x="279.150391" xlink:href="#DejaVuSans-6c"/>
      <use x="306.933594" xlink:href="#DejaVuSans-61"/>
      <use x="368.212891" xlink:href="#DejaVuSans-74"/>
      <use x="407.421875" xlink:href="#DejaVuSans-69"/>
      <use x="435.205078" xlink:href="#DejaVuSans-76"/>
      <use x="494.384766" xlink:href="#DejaVuSans-65"/>
      <use x="555.908203" xlink:href="#DejaVuSans-20"/>
      <use x="587.695312" xlink:href="#DejaVuSans-72"/>
      <use x="626.558594" xlink:href="#DejaVuSans-65"/>
      <use x="688.082031" xlink:href="#DejaVuSans-77"/>
      <use x="769.869141" xlink:href="#DejaVuSans-61"/>
      <use x="831.148438" xlink:href="#DejaVuSans-72"/>
      <use x="870.511719" xlink:href="#DejaVuSans-64"/>
     </g>
    </g>
   </g>
  </g>
 </g>
 <defs>
  <clipPath id="pf3cb4032bb">
   <rect height="266.112" width="357.12" x="57.6" y="41.472"/>
  </clipPath>
 </defs>
</svg>
