<?xml version="1.0" encoding="utf-8" standalone="no"?>
<!DOCTYPE svg PUBLIC "-//W3C//DTD SVG 1.1//EN"
  "http://www.w3.org/Graphics/SVG/1.1/DTD/svg11.dtd">
<svg height="345.6pt" version="1.1" viewBox="0 0 460.8 345.6" width="460.8pt" xmlns="http://www.w3.org/2000/svg" xmlns:xlink="http://www.w3.org/1999/xlink">
 <metadata>
  <rdf:RDF xmlns:cc="http://creativecommons.org/ns#" xmlns:dc="http://purl.org/dc/elements/1.1/" xmlns:rdf="http://www.w3.org/1999/02/22-rdf-syntax-ns#">
   <cc:Work>
    <dc:type rdf:resource="http://purl.org/dc/dcmitype/StillImage"/>
    <dc:date>2021-11-04T15:00:50.926545</dc:date>
    <dc:description>{"agent.algorithm": "RayProximalPolicyOptimization", "agent.algorithm.render_env": false, "agent.algorithm.num_workers": 0, "agent.algorithm.batch_mode": "complete_episodes", "agent.algorithm.lr": 1e-05, "agent.algorithm.train_batch_size": 200, "agent.algorithm.optimizer": "Adam", "agent.algorithm.vf_clip_param": 1000, "agent.algorithm.model": {"fcnet_activation": "tanh", "fcnet_hiddens": [30, 30]}, "env.env_class": "SchedulerPolicyRayEnvironment", "env.env_config": {"solver_driver": "CMAdriver", "solver_driver_args": [20, 10, 21, 0.5], "maximize": false, "steps": 50, "state_metrics_names": ["DifferenceOfBest", "SolverStateHistory"], "state_metrics_config": [[40, false, 1, true, false], [{"step_size": {"max": 3, "min": 0}}, 40]], "reward_metric": "Best", "reward_metric_config": [false, false], "memes_no": 1, "action_space_config": {"step_size": {"max": 3, "min": 1e-10}}}}</dc:description>
    <dc:format>image/svg+xml</dc:format>
    <dc:creator>
     <cc:Agent>
      <dc:title>Matplotlib v3.4.3, https://matplotlib.org/</dc:title>
     </cc:Agent>
    </dc:creator>
   </cc:Work>
  </rdf:RDF>
 </metadata>
 <defs>
  <style type="text/css">*{stroke-linecap:butt;stroke-linejoin:round;}</style>
 </defs>
 <g id="figure_1">
  <g id="patch_1">
   <path d="M 0 345.6 
L 460.8 345.6 
L 460.8 0 
L 0 0 
z
" style="fill:#ffffff;"/>
  </g>
  <g id="axes_1">
   <g id="patch_2">
    <path d="M 57.6 307.584 
L 414.72 307.584 
L 414.72 41.472 
L 57.6 41.472 
z
" style="fill:#ffffff;"/>
   </g>
   <g id="matplotlib.axis_1">
    <g id="xtick_1">
     <g id="line2d_1">
      <path clip-path="url(#p0468c2ef88)" d="M 57.6 307.584 
L 57.6 41.472 
" style="fill:none;stroke:#b0b0b0;stroke-linecap:square;stroke-width:0.8;"/>
     </g>
     <g id="line2d_2">
      <defs>
       <path d="M 0 0 
L 0 3.5 
" id="m219cf8a95e" style="stroke:#000000;stroke-width:0.8;"/>
      </defs>
      <g>
       <use style="stroke:#000000;stroke-width:0.8;" x="57.6" xlink:href="#m219cf8a95e" y="307.584"/>
      </g>
     </g>
     <g id="text_1">
      <!-- 0 -->
      <g transform="translate(52.51 326.7415)scale(0.16 -0.16)">
       <defs>
        <path d="M 2034 4250 
Q 1547 4250 1301 3770 
Q 1056 3291 1056 2328 
Q 1056 1369 1301 889 
Q 1547 409 2034 409 
Q 2525 409 2770 889 
Q 3016 1369 3016 2328 
Q 3016 3291 2770 3770 
Q 2525 4250 2034 4250 
z
M 2034 4750 
Q 2819 4750 3233 4129 
Q 3647 3509 3647 2328 
Q 3647 1150 3233 529 
Q 2819 -91 2034 -91 
Q 1250 -91 836 529 
Q 422 1150 422 2328 
Q 422 3509 836 4129 
Q 1250 4750 2034 4750 
z
" id="DejaVuSans-30" transform="scale(0.015625)"/>
       </defs>
       <use xlink:href="#DejaVuSans-30"/>
      </g>
     </g>
    </g>
    <g id="xtick_2">
     <g id="line2d_3">
      <path clip-path="url(#p0468c2ef88)" d="M 146.88 307.584 
L 146.88 41.472 
" style="fill:none;stroke:#b0b0b0;stroke-linecap:square;stroke-width:0.8;"/>
     </g>
     <g id="line2d_4">
      <g>
       <use style="stroke:#000000;stroke-width:0.8;" x="146.88" xlink:href="#m219cf8a95e" y="307.584"/>
      </g>
     </g>
     <g id="text_2">
      <!-- 1000 -->
      <g transform="translate(126.52 326.7415)scale(0.16 -0.16)">
       <defs>
        <path d="M 794 531 
L 1825 531 
L 1825 4091 
L 703 3866 
L 703 4441 
L 1819 4666 
L 2450 4666 
L 2450 531 
L 3481 531 
L 3481 0 
L 794 0 
L 794 531 
z
" id="DejaVuSans-31" transform="scale(0.015625)"/>
       </defs>
       <use xlink:href="#DejaVuSans-31"/>
       <use x="63.623047" xlink:href="#DejaVuSans-30"/>
       <use x="127.246094" xlink:href="#DejaVuSans-30"/>
       <use x="190.869141" xlink:href="#DejaVuSans-30"/>
      </g>
     </g>
    </g>
    <g id="xtick_3">
     <g id="line2d_5">
      <path clip-path="url(#p0468c2ef88)" d="M 236.16 307.584 
L 236.16 41.472 
" style="fill:none;stroke:#b0b0b0;stroke-linecap:square;stroke-width:0.8;"/>
     </g>
     <g id="line2d_6">
      <g>
       <use style="stroke:#000000;stroke-width:0.8;" x="236.16" xlink:href="#m219cf8a95e" y="307.584"/>
      </g>
     </g>
     <g id="text_3">
      <!-- 2000 -->
      <g transform="translate(215.8 326.7415)scale(0.16 -0.16)">
       <defs>
        <path d="M 1228 531 
L 3431 531 
L 3431 0 
L 469 0 
L 469 531 
Q 828 903 1448 1529 
Q 2069 2156 2228 2338 
Q 2531 2678 2651 2914 
Q 2772 3150 2772 3378 
Q 2772 3750 2511 3984 
Q 2250 4219 1831 4219 
Q 1534 4219 1204 4116 
Q 875 4013 500 3803 
L 500 4441 
Q 881 4594 1212 4672 
Q 1544 4750 1819 4750 
Q 2544 4750 2975 4387 
Q 3406 4025 3406 3419 
Q 3406 3131 3298 2873 
Q 3191 2616 2906 2266 
Q 2828 2175 2409 1742 
Q 1991 1309 1228 531 
z
" id="DejaVuSans-32" transform="scale(0.015625)"/>
       </defs>
       <use xlink:href="#DejaVuSans-32"/>
       <use x="63.623047" xlink:href="#DejaVuSans-30"/>
       <use x="127.246094" xlink:href="#DejaVuSans-30"/>
       <use x="190.869141" xlink:href="#DejaVuSans-30"/>
      </g>
     </g>
    </g>
    <g id="xtick_4">
     <g id="line2d_7">
      <path clip-path="url(#p0468c2ef88)" d="M 325.44 307.584 
L 325.44 41.472 
" style="fill:none;stroke:#b0b0b0;stroke-linecap:square;stroke-width:0.8;"/>
     </g>
     <g id="line2d_8">
      <g>
       <use style="stroke:#000000;stroke-width:0.8;" x="325.44" xlink:href="#m219cf8a95e" y="307.584"/>
      </g>
     </g>
     <g id="text_4">
      <!-- 3000 -->
      <g transform="translate(305.08 326.7415)scale(0.16 -0.16)">
       <defs>
        <path d="M 2597 2516 
Q 3050 2419 3304 2112 
Q 3559 1806 3559 1356 
Q 3559 666 3084 287 
Q 2609 -91 1734 -91 
Q 1441 -91 1130 -33 
Q 819 25 488 141 
L 488 750 
Q 750 597 1062 519 
Q 1375 441 1716 441 
Q 2309 441 2620 675 
Q 2931 909 2931 1356 
Q 2931 1769 2642 2001 
Q 2353 2234 1838 2234 
L 1294 2234 
L 1294 2753 
L 1863 2753 
Q 2328 2753 2575 2939 
Q 2822 3125 2822 3475 
Q 2822 3834 2567 4026 
Q 2313 4219 1838 4219 
Q 1578 4219 1281 4162 
Q 984 4106 628 3988 
L 628 4550 
Q 988 4650 1302 4700 
Q 1616 4750 1894 4750 
Q 2613 4750 3031 4423 
Q 3450 4097 3450 3541 
Q 3450 3153 3228 2886 
Q 3006 2619 2597 2516 
z
" id="DejaVuSans-33" transform="scale(0.015625)"/>
       </defs>
       <use xlink:href="#DejaVuSans-33"/>
       <use x="63.623047" xlink:href="#DejaVuSans-30"/>
       <use x="127.246094" xlink:href="#DejaVuSans-30"/>
       <use x="190.869141" xlink:href="#DejaVuSans-30"/>
      </g>
     </g>
    </g>
    <g id="xtick_5">
     <g id="line2d_9">
      <path clip-path="url(#p0468c2ef88)" d="M 414.72 307.584 
L 414.72 41.472 
" style="fill:none;stroke:#b0b0b0;stroke-linecap:square;stroke-width:0.8;"/>
     </g>
     <g id="line2d_10">
      <g>
       <use style="stroke:#000000;stroke-width:0.8;" x="414.72" xlink:href="#m219cf8a95e" y="307.584"/>
      </g>
     </g>
     <g id="text_5">
      <!-- 4000 -->
      <g transform="translate(394.36 326.7415)scale(0.16 -0.16)">
       <defs>
        <path d="M 2419 4116 
L 825 1625 
L 2419 1625 
L 2419 4116 
z
M 2253 4666 
L 3047 4666 
L 3047 1625 
L 3713 1625 
L 3713 1100 
L 3047 1100 
L 3047 0 
L 2419 0 
L 2419 1100 
L 313 1100 
L 313 1709 
L 2253 4666 
z
" id="DejaVuSans-34" transform="scale(0.015625)"/>
       </defs>
       <use xlink:href="#DejaVuSans-34"/>
       <use x="63.623047" xlink:href="#DejaVuSans-30"/>
       <use x="127.246094" xlink:href="#DejaVuSans-30"/>
       <use x="190.869141" xlink:href="#DejaVuSans-30"/>
      </g>
     </g>
    </g>
    <g id="text_6">
     <!-- Episodes -->
     <g transform="translate(200.5725 346.2265)scale(0.16 -0.16)">
      <defs>
       <path d="M 628 4666 
L 3578 4666 
L 3578 4134 
L 1259 4134 
L 1259 2753 
L 3481 2753 
L 3481 2222 
L 1259 2222 
L 1259 531 
L 3634 531 
L 3634 0 
L 628 0 
L 628 4666 
z
" id="DejaVuSans-45" transform="scale(0.015625)"/>
       <path d="M 1159 525 
L 1159 -1331 
L 581 -1331 
L 581 3500 
L 1159 3500 
L 1159 2969 
Q 1341 3281 1617 3432 
Q 1894 3584 2278 3584 
Q 2916 3584 3314 3078 
Q 3713 2572 3713 1747 
Q 3713 922 3314 415 
Q 2916 -91 2278 -91 
Q 1894 -91 1617 61 
Q 1341 213 1159 525 
z
M 3116 1747 
Q 3116 2381 2855 2742 
Q 2594 3103 2138 3103 
Q 1681 3103 1420 2742 
Q 1159 2381 1159 1747 
Q 1159 1113 1420 752 
Q 1681 391 2138 391 
Q 2594 391 2855 752 
Q 3116 1113 3116 1747 
z
" id="DejaVuSans-70" transform="scale(0.015625)"/>
       <path d="M 603 3500 
L 1178 3500 
L 1178 0 
L 603 0 
L 603 3500 
z
M 603 4863 
L 1178 4863 
L 1178 4134 
L 603 4134 
L 603 4863 
z
" id="DejaVuSans-69" transform="scale(0.015625)"/>
       <path d="M 2834 3397 
L 2834 2853 
Q 2591 2978 2328 3040 
Q 2066 3103 1784 3103 
Q 1356 3103 1142 2972 
Q 928 2841 928 2578 
Q 928 2378 1081 2264 
Q 1234 2150 1697 2047 
L 1894 2003 
Q 2506 1872 2764 1633 
Q 3022 1394 3022 966 
Q 3022 478 2636 193 
Q 2250 -91 1575 -91 
Q 1294 -91 989 -36 
Q 684 19 347 128 
L 347 722 
Q 666 556 975 473 
Q 1284 391 1588 391 
Q 1994 391 2212 530 
Q 2431 669 2431 922 
Q 2431 1156 2273 1281 
Q 2116 1406 1581 1522 
L 1381 1569 
Q 847 1681 609 1914 
Q 372 2147 372 2553 
Q 372 3047 722 3315 
Q 1072 3584 1716 3584 
Q 2034 3584 2315 3537 
Q 2597 3491 2834 3397 
z
" id="DejaVuSans-73" transform="scale(0.015625)"/>
       <path d="M 1959 3097 
Q 1497 3097 1228 2736 
Q 959 2375 959 1747 
Q 959 1119 1226 758 
Q 1494 397 1959 397 
Q 2419 397 2687 759 
Q 2956 1122 2956 1747 
Q 2956 2369 2687 2733 
Q 2419 3097 1959 3097 
z
M 1959 3584 
Q 2709 3584 3137 3096 
Q 3566 2609 3566 1747 
Q 3566 888 3137 398 
Q 2709 -91 1959 -91 
Q 1206 -91 779 398 
Q 353 888 353 1747 
Q 353 2609 779 3096 
Q 1206 3584 1959 3584 
z
" id="DejaVuSans-6f" transform="scale(0.015625)"/>
       <path d="M 2906 2969 
L 2906 4863 
L 3481 4863 
L 3481 0 
L 2906 0 
L 2906 525 
Q 2725 213 2448 61 
Q 2172 -91 1784 -91 
Q 1150 -91 751 415 
Q 353 922 353 1747 
Q 353 2572 751 3078 
Q 1150 3584 1784 3584 
Q 2172 3584 2448 3432 
Q 2725 3281 2906 2969 
z
M 947 1747 
Q 947 1113 1208 752 
Q 1469 391 1925 391 
Q 2381 391 2643 752 
Q 2906 1113 2906 1747 
Q 2906 2381 2643 2742 
Q 2381 3103 1925 3103 
Q 1469 3103 1208 2742 
Q 947 2381 947 1747 
z
" id="DejaVuSans-64" transform="scale(0.015625)"/>
       <path d="M 3597 1894 
L 3597 1613 
L 953 1613 
Q 991 1019 1311 708 
Q 1631 397 2203 397 
Q 2534 397 2845 478 
Q 3156 559 3463 722 
L 3463 178 
Q 3153 47 2828 -22 
Q 2503 -91 2169 -91 
Q 1331 -91 842 396 
Q 353 884 353 1716 
Q 353 2575 817 3079 
Q 1281 3584 2069 3584 
Q 2775 3584 3186 3129 
Q 3597 2675 3597 1894 
z
M 3022 2063 
Q 3016 2534 2758 2815 
Q 2500 3097 2075 3097 
Q 1594 3097 1305 2825 
Q 1016 2553 972 2059 
L 3022 2063 
z
" id="DejaVuSans-65" transform="scale(0.015625)"/>
      </defs>
      <use xlink:href="#DejaVuSans-45"/>
      <use x="63.183594" xlink:href="#DejaVuSans-70"/>
      <use x="126.660156" xlink:href="#DejaVuSans-69"/>
      <use x="154.443359" xlink:href="#DejaVuSans-73"/>
      <use x="206.542969" xlink:href="#DejaVuSans-6f"/>
      <use x="267.724609" xlink:href="#DejaVuSans-64"/>
      <use x="331.201172" xlink:href="#DejaVuSans-65"/>
      <use x="392.724609" xlink:href="#DejaVuSans-73"/>
     </g>
    </g>
   </g>
   <g id="matplotlib.axis_2">
    <g id="ytick_1">
     <g id="line2d_11">
      <path clip-path="url(#p0468c2ef88)" d="M 57.6 257.006485 
L 414.72 257.006485 
" style="fill:none;stroke:#b0b0b0;stroke-linecap:square;stroke-width:0.8;"/>
     </g>
     <g id="line2d_12">
      <defs>
       <path d="M 0 0 
L -3.5 0 
" id="mc484514f1d" style="stroke:#000000;stroke-width:0.8;"/>
      </defs>
      <g>
       <use style="stroke:#000000;stroke-width:0.8;" x="57.6" xlink:href="#mc484514f1d" y="257.006485"/>
      </g>
     </g>
     <g id="text_7">
      <!-- −19500 -->
      <g transform="translate(-13.7075 263.085235)scale(0.16 -0.16)">
       <defs>
        <path d="M 678 2272 
L 4684 2272 
L 4684 1741 
L 678 1741 
L 678 2272 
z
" id="DejaVuSans-2212" transform="scale(0.015625)"/>
        <path d="M 703 97 
L 703 672 
Q 941 559 1184 500 
Q 1428 441 1663 441 
Q 2288 441 2617 861 
Q 2947 1281 2994 2138 
Q 2813 1869 2534 1725 
Q 2256 1581 1919 1581 
Q 1219 1581 811 2004 
Q 403 2428 403 3163 
Q 403 3881 828 4315 
Q 1253 4750 1959 4750 
Q 2769 4750 3195 4129 
Q 3622 3509 3622 2328 
Q 3622 1225 3098 567 
Q 2575 -91 1691 -91 
Q 1453 -91 1209 -44 
Q 966 3 703 97 
z
M 1959 2075 
Q 2384 2075 2632 2365 
Q 2881 2656 2881 3163 
Q 2881 3666 2632 3958 
Q 2384 4250 1959 4250 
Q 1534 4250 1286 3958 
Q 1038 3666 1038 3163 
Q 1038 2656 1286 2365 
Q 1534 2075 1959 2075 
z
" id="DejaVuSans-39" transform="scale(0.015625)"/>
        <path d="M 691 4666 
L 3169 4666 
L 3169 4134 
L 1269 4134 
L 1269 2991 
Q 1406 3038 1543 3061 
Q 1681 3084 1819 3084 
Q 2600 3084 3056 2656 
Q 3513 2228 3513 1497 
Q 3513 744 3044 326 
Q 2575 -91 1722 -91 
Q 1428 -91 1123 -41 
Q 819 9 494 109 
L 494 744 
Q 775 591 1075 516 
Q 1375 441 1709 441 
Q 2250 441 2565 725 
Q 2881 1009 2881 1497 
Q 2881 1984 2565 2268 
Q 2250 2553 1709 2553 
Q 1456 2553 1204 2497 
Q 953 2441 691 2322 
L 691 4666 
z
" id="DejaVuSans-35" transform="scale(0.015625)"/>
       </defs>
       <use xlink:href="#DejaVuSans-2212"/>
       <use x="83.789062" xlink:href="#DejaVuSans-31"/>
       <use x="147.412109" xlink:href="#DejaVuSans-39"/>
       <use x="211.035156" xlink:href="#DejaVuSans-35"/>
       <use x="274.658203" xlink:href="#DejaVuSans-30"/>
       <use x="338.28125" xlink:href="#DejaVuSans-30"/>
      </g>
     </g>
    </g>
    <g id="ytick_2">
     <g id="line2d_13">
      <path clip-path="url(#p0468c2ef88)" d="M 57.6 200.823538 
L 414.72 200.823538 
" style="fill:none;stroke:#b0b0b0;stroke-linecap:square;stroke-width:0.8;"/>
     </g>
     <g id="line2d_14">
      <g>
       <use style="stroke:#000000;stroke-width:0.8;" x="57.6" xlink:href="#mc484514f1d" y="200.823538"/>
      </g>
     </g>
     <g id="text_8">
      <!-- −19000 -->
      <g transform="translate(-13.7075 206.902288)scale(0.16 -0.16)">
       <use xlink:href="#DejaVuSans-2212"/>
       <use x="83.789062" xlink:href="#DejaVuSans-31"/>
       <use x="147.412109" xlink:href="#DejaVuSans-39"/>
       <use x="211.035156" xlink:href="#DejaVuSans-30"/>
       <use x="274.658203" xlink:href="#DejaVuSans-30"/>
       <use x="338.28125" xlink:href="#DejaVuSans-30"/>
      </g>
     </g>
    </g>
    <g id="ytick_3">
     <g id="line2d_15">
      <path clip-path="url(#p0468c2ef88)" d="M 57.6 144.640591 
L 414.72 144.640591 
" style="fill:none;stroke:#b0b0b0;stroke-linecap:square;stroke-width:0.8;"/>
     </g>
     <g id="line2d_16">
      <g>
       <use style="stroke:#000000;stroke-width:0.8;" x="57.6" xlink:href="#mc484514f1d" y="144.640591"/>
      </g>
     </g>
     <g id="text_9">
      <!-- −18500 -->
      <g transform="translate(-13.7075 150.719341)scale(0.16 -0.16)">
       <defs>
        <path d="M 2034 2216 
Q 1584 2216 1326 1975 
Q 1069 1734 1069 1313 
Q 1069 891 1326 650 
Q 1584 409 2034 409 
Q 2484 409 2743 651 
Q 3003 894 3003 1313 
Q 3003 1734 2745 1975 
Q 2488 2216 2034 2216 
z
M 1403 2484 
Q 997 2584 770 2862 
Q 544 3141 544 3541 
Q 544 4100 942 4425 
Q 1341 4750 2034 4750 
Q 2731 4750 3128 4425 
Q 3525 4100 3525 3541 
Q 3525 3141 3298 2862 
Q 3072 2584 2669 2484 
Q 3125 2378 3379 2068 
Q 3634 1759 3634 1313 
Q 3634 634 3220 271 
Q 2806 -91 2034 -91 
Q 1263 -91 848 271 
Q 434 634 434 1313 
Q 434 1759 690 2068 
Q 947 2378 1403 2484 
z
M 1172 3481 
Q 1172 3119 1398 2916 
Q 1625 2713 2034 2713 
Q 2441 2713 2670 2916 
Q 2900 3119 2900 3481 
Q 2900 3844 2670 4047 
Q 2441 4250 2034 4250 
Q 1625 4250 1398 4047 
Q 1172 3844 1172 3481 
z
" id="DejaVuSans-38" transform="scale(0.015625)"/>
       </defs>
       <use xlink:href="#DejaVuSans-2212"/>
       <use x="83.789062" xlink:href="#DejaVuSans-31"/>
       <use x="147.412109" xlink:href="#DejaVuSans-38"/>
       <use x="211.035156" xlink:href="#DejaVuSans-35"/>
       <use x="274.658203" xlink:href="#DejaVuSans-30"/>
       <use x="338.28125" xlink:href="#DejaVuSans-30"/>
      </g>
     </g>
    </g>
    <g id="ytick_4">
     <g id="line2d_17">
      <path clip-path="url(#p0468c2ef88)" d="M 57.6 88.457644 
L 414.72 88.457644 
" style="fill:none;stroke:#b0b0b0;stroke-linecap:square;stroke-width:0.8;"/>
     </g>
     <g id="line2d_18">
      <g>
       <use style="stroke:#000000;stroke-width:0.8;" x="57.6" xlink:href="#mc484514f1d" y="88.457644"/>
      </g>
     </g>
     <g id="text_10">
      <!-- −18000 -->
      <g transform="translate(-13.7075 94.536394)scale(0.16 -0.16)">
       <use xlink:href="#DejaVuSans-2212"/>
       <use x="83.789062" xlink:href="#DejaVuSans-31"/>
       <use x="147.412109" xlink:href="#DejaVuSans-38"/>
       <use x="211.035156" xlink:href="#DejaVuSans-30"/>
       <use x="274.658203" xlink:href="#DejaVuSans-30"/>
       <use x="338.28125" xlink:href="#DejaVuSans-30"/>
      </g>
     </g>
    </g>
    <g id="text_11">
     <!-- Cumulative Reward -->
     <g transform="translate(-21.035 252.52425)rotate(-90)scale(0.16 -0.16)">
      <defs>
       <path d="M 4122 4306 
L 4122 3641 
Q 3803 3938 3442 4084 
Q 3081 4231 2675 4231 
Q 1875 4231 1450 3742 
Q 1025 3253 1025 2328 
Q 1025 1406 1450 917 
Q 1875 428 2675 428 
Q 3081 428 3442 575 
Q 3803 722 4122 1019 
L 4122 359 
Q 3791 134 3420 21 
Q 3050 -91 2638 -91 
Q 1578 -91 968 557 
Q 359 1206 359 2328 
Q 359 3453 968 4101 
Q 1578 4750 2638 4750 
Q 3056 4750 3426 4639 
Q 3797 4528 4122 4306 
z
" id="DejaVuSans-43" transform="scale(0.015625)"/>
       <path d="M 544 1381 
L 544 3500 
L 1119 3500 
L 1119 1403 
Q 1119 906 1312 657 
Q 1506 409 1894 409 
Q 2359 409 2629 706 
Q 2900 1003 2900 1516 
L 2900 3500 
L 3475 3500 
L 3475 0 
L 2900 0 
L 2900 538 
Q 2691 219 2414 64 
Q 2138 -91 1772 -91 
Q 1169 -91 856 284 
Q 544 659 544 1381 
z
M 1991 3584 
L 1991 3584 
z
" id="DejaVuSans-75" transform="scale(0.015625)"/>
       <path d="M 3328 2828 
Q 3544 3216 3844 3400 
Q 4144 3584 4550 3584 
Q 5097 3584 5394 3201 
Q 5691 2819 5691 2113 
L 5691 0 
L 5113 0 
L 5113 2094 
Q 5113 2597 4934 2840 
Q 4756 3084 4391 3084 
Q 3944 3084 3684 2787 
Q 3425 2491 3425 1978 
L 3425 0 
L 2847 0 
L 2847 2094 
Q 2847 2600 2669 2842 
Q 2491 3084 2119 3084 
Q 1678 3084 1418 2786 
Q 1159 2488 1159 1978 
L 1159 0 
L 581 0 
L 581 3500 
L 1159 3500 
L 1159 2956 
Q 1356 3278 1631 3431 
Q 1906 3584 2284 3584 
Q 2666 3584 2933 3390 
Q 3200 3197 3328 2828 
z
" id="DejaVuSans-6d" transform="scale(0.015625)"/>
       <path d="M 603 4863 
L 1178 4863 
L 1178 0 
L 603 0 
L 603 4863 
z
" id="DejaVuSans-6c" transform="scale(0.015625)"/>
       <path d="M 2194 1759 
Q 1497 1759 1228 1600 
Q 959 1441 959 1056 
Q 959 750 1161 570 
Q 1363 391 1709 391 
Q 2188 391 2477 730 
Q 2766 1069 2766 1631 
L 2766 1759 
L 2194 1759 
z
M 3341 1997 
L 3341 0 
L 2766 0 
L 2766 531 
Q 2569 213 2275 61 
Q 1981 -91 1556 -91 
Q 1019 -91 701 211 
Q 384 513 384 1019 
Q 384 1609 779 1909 
Q 1175 2209 1959 2209 
L 2766 2209 
L 2766 2266 
Q 2766 2663 2505 2880 
Q 2244 3097 1772 3097 
Q 1472 3097 1187 3025 
Q 903 2953 641 2809 
L 641 3341 
Q 956 3463 1253 3523 
Q 1550 3584 1831 3584 
Q 2591 3584 2966 3190 
Q 3341 2797 3341 1997 
z
" id="DejaVuSans-61" transform="scale(0.015625)"/>
       <path d="M 1172 4494 
L 1172 3500 
L 2356 3500 
L 2356 3053 
L 1172 3053 
L 1172 1153 
Q 1172 725 1289 603 
Q 1406 481 1766 481 
L 2356 481 
L 2356 0 
L 1766 0 
Q 1100 0 847 248 
Q 594 497 594 1153 
L 594 3053 
L 172 3053 
L 172 3500 
L 594 3500 
L 594 4494 
L 1172 4494 
z
" id="DejaVuSans-74" transform="scale(0.015625)"/>
       <path d="M 191 3500 
L 800 3500 
L 1894 563 
L 2988 3500 
L 3597 3500 
L 2284 0 
L 1503 0 
L 191 3500 
z
" id="DejaVuSans-76" transform="scale(0.015625)"/>
       <path id="DejaVuSans-20" transform="scale(0.015625)"/>
       <path d="M 2841 2188 
Q 3044 2119 3236 1894 
Q 3428 1669 3622 1275 
L 4263 0 
L 3584 0 
L 2988 1197 
Q 2756 1666 2539 1819 
Q 2322 1972 1947 1972 
L 1259 1972 
L 1259 0 
L 628 0 
L 628 4666 
L 2053 4666 
Q 2853 4666 3247 4331 
Q 3641 3997 3641 3322 
Q 3641 2881 3436 2590 
Q 3231 2300 2841 2188 
z
M 1259 4147 
L 1259 2491 
L 2053 2491 
Q 2509 2491 2742 2702 
Q 2975 2913 2975 3322 
Q 2975 3731 2742 3939 
Q 2509 4147 2053 4147 
L 1259 4147 
z
" id="DejaVuSans-52" transform="scale(0.015625)"/>
       <path d="M 269 3500 
L 844 3500 
L 1563 769 
L 2278 3500 
L 2956 3500 
L 3675 769 
L 4391 3500 
L 4966 3500 
L 4050 0 
L 3372 0 
L 2619 2869 
L 1863 0 
L 1184 0 
L 269 3500 
z
" id="DejaVuSans-77" transform="scale(0.015625)"/>
       <path d="M 2631 2963 
Q 2534 3019 2420 3045 
Q 2306 3072 2169 3072 
Q 1681 3072 1420 2755 
Q 1159 2438 1159 1844 
L 1159 0 
L 581 0 
L 581 3500 
L 1159 3500 
L 1159 2956 
Q 1341 3275 1631 3429 
Q 1922 3584 2338 3584 
Q 2397 3584 2469 3576 
Q 2541 3569 2628 3553 
L 2631 2963 
z
" id="DejaVuSans-72" transform="scale(0.015625)"/>
      </defs>
      <use xlink:href="#DejaVuSans-43"/>
      <use x="69.824219" xlink:href="#DejaVuSans-75"/>
      <use x="133.203125" xlink:href="#DejaVuSans-6d"/>
      <use x="230.615234" xlink:href="#DejaVuSans-75"/>
      <use x="293.994141" xlink:href="#DejaVuSans-6c"/>
      <use x="321.777344" xlink:href="#DejaVuSans-61"/>
      <use x="383.056641" xlink:href="#DejaVuSans-74"/>
      <use x="422.265625" xlink:href="#DejaVuSans-69"/>
      <use x="450.048828" xlink:href="#DejaVuSans-76"/>
      <use x="509.228516" xlink:href="#DejaVuSans-65"/>
      <use x="570.751953" xlink:href="#DejaVuSans-20"/>
      <use x="602.539062" xlink:href="#DejaVuSans-52"/>
      <use x="667.521484" xlink:href="#DejaVuSans-65"/>
      <use x="729.044922" xlink:href="#DejaVuSans-77"/>
      <use x="810.832031" xlink:href="#DejaVuSans-61"/>
      <use x="872.111328" xlink:href="#DejaVuSans-72"/>
      <use x="911.474609" xlink:href="#DejaVuSans-64"/>
     </g>
    </g>
   </g>
   <g id="line2d_19">
    <path clip-path="url(#p0468c2ef88)" d="M 57.6 241.127693 
L 57.68928 222.94671 
L 57.86784 247.490862 
L 57.95712 241.127693 
L 58.0464 222.94671 
L 58.22496 247.490862 
L 58.31424 241.127693 
L 58.40352 222.94671 
L 58.58208 247.490862 
L 58.67136 241.127693 
L 58.76064 222.94671 
L 58.9392 247.490862 
L 59.02848 241.127693 
L 59.11776 222.94671 
L 59.29632 247.490862 
L 59.3856 241.127693 
L 59.47488 222.94671 
L 59.65344 247.490862 
L 59.74272 241.127693 
L 59.832 222.94671 
L 60.01056 247.490862 
L 60.09984 241.127693 
L 60.18912 222.94671 
L 60.36768 247.490862 
L 60.45696 241.127693 
L 60.54624 222.94671 
L 60.7248 247.490862 
L 60.81408 241.127693 
L 60.90336 222.94671 
L 61.08192 247.490862 
L 61.1712 241.127693 
L 61.26048 222.94671 
L 61.43904 247.490862 
L 61.52832 241.127693 
L 61.6176 222.94671 
L 61.79616 247.490862 
L 61.88544 241.127693 
L 61.97472 222.94671 
L 62.15328 247.490862 
L 62.24256 241.127693 
L 62.33184 222.94671 
L 62.5104 247.490862 
L 62.59968 241.127693 
L 62.68896 222.94671 
L 62.86752 247.490862 
L 62.9568 241.127693 
L 63.04608 222.94671 
L 63.22464 247.490862 
L 63.31392 241.127693 
L 63.4032 222.94671 
L 63.58176 247.490862 
L 63.67104 241.127693 
L 63.76032 222.94671 
L 63.93888 247.490862 
L 64.02816 241.127693 
L 64.11744 222.94671 
L 64.296 247.490862 
L 64.38528 241.127693 
L 64.47456 222.94671 
L 64.65312 247.490862 
L 64.7424 241.127693 
L 64.83168 222.94671 
L 65.01024 247.490862 
L 65.09952 241.127693 
L 65.1888 222.94671 
L 65.36736 247.490862 
L 65.45664 241.127693 
L 65.54592 222.94671 
L 65.72448 247.490862 
L 65.81376 241.127693 
L 65.90304 222.94671 
L 66.0816 247.490862 
L 66.17088 241.127693 
L 66.26016 222.94671 
L 66.528 255.411119 
L 66.61728 237.100697 
L 66.79584 274.8208 
L 66.88512 252.21945 
L 66.9744 260.495949 
L 67.06368 257.546866 
L 67.15296 238.305746 
L 67.33152 255.265474 
L 67.4208 240.443621 
L 67.59936 246.481472 
L 67.8672 224.477741 
L 67.95648 248.741235 
L 68.04576 243.020434 
L 68.13504 245.511304 
L 68.22432 236.227539 
L 68.3136 255.991983 
L 68.40288 223.481693 
L 68.49216 253.789573 
L 68.58144 249.778931 
L 68.67072 242.699439 
L 68.76 260.25039 
L 68.93856 233.226942 
L 69.02784 251.167455 
L 69.2064 200.554949 
L 69.29568 275.795674 
L 69.47424 219.075097 
L 69.6528 260.900415 
L 69.74208 255.219293 
L 69.83136 260.599311 
L 70.00992 226.879102 
L 70.0992 249.232805 
L 70.18848 245.586468 
L 70.27776 252.189638 
L 70.36704 217.648059 
L 70.45632 233.784224 
L 70.5456 215.779953 
L 70.90272 264.646127 
L 70.992 258.468872 
L 71.17056 234.862936 
L 71.25984 264.170201 
L 71.4384 237.16786 
L 71.52768 237.874435 
L 71.61696 235.934009 
L 71.70624 267.399044 
L 71.79552 263.516146 
L 71.8848 243.059816 
L 71.97408 247.202322 
L 72.15264 252.070646 
L 72.24192 252.406797 
L 72.42048 206.022306 
L 72.50976 235.41128 
L 72.59904 234.377805 
L 72.68832 205.513202 
L 72.7776 246.702887 
L 72.86688 218.524987 
L 72.95616 261.439346 
L 73.04544 244.426355 
L 73.13472 250.148637 
L 73.224 210.474207 
L 73.31328 251.42789 
L 73.49184 236.698159 
L 73.58112 239.776772 
L 73.6704 236.546223 
L 73.84896 196.004082 
L 74.02752 246.671484 
L 74.1168 237.128926 
L 74.29536 276.493895 
L 74.38464 251.600674 
L 74.47392 275.446906 
L 74.5632 248.628157 
L 74.65248 250.84403 
L 74.74176 233.229482 
L 74.83104 264.624771 
L 74.92032 240.909976 
L 75.0096 172.897109 
L 75.09888 246.003977 
L 75.18816 237.204344 
L 75.27744 205.371453 
L 75.36672 217.551965 
L 75.54528 262.576995 
L 75.63456 234.45045 
L 75.72384 253.919717 
L 75.81312 240.107329 
L 75.99168 251.788084 
L 76.08096 243.70804 
L 76.17024 220.342198 
L 76.25952 230.247672 
L 76.3488 265.517904 
L 76.52736 252.480644 
L 76.61664 248.805963 
L 76.70592 252.843117 
L 76.7952 269.020506 
L 76.88448 255.379666 
L 76.97376 256.117501 
L 77.2416 170.988387 
L 77.42016 258.459672 
L 77.50944 258.130718 
L 77.59872 252.427367 
L 77.688 262.758955 
L 77.77728 251.438439 
L 77.86656 219.470451 
L 77.95584 273.232367 
L 78.1344 251.803296 
L 78.22368 246.322361 
L 78.31296 259.94883 
L 78.40224 236.745453 
L 78.49152 265.956212 
L 78.5808 242.205278 
L 78.67008 246.724177 
L 78.75936 247.148841 
L 78.84864 243.069948 
L 78.93792 222.703009 
L 79.0272 249.893873 
L 79.11648 216.507121 
L 79.20576 234.649511 
L 79.29504 227.042902 
L 79.38432 261.82059 
L 79.4736 228.988182 
L 79.56288 260.055274 
L 79.65216 254.656864 
L 79.74144 251.252622 
L 79.83072 222.989792 
L 79.92 266.117164 
L 80.00928 257.512301 
L 80.09856 245.361849 
L 80.18784 266.20845 
L 80.27712 260.925983 
L 80.3664 264.724526 
L 80.45568 226.548017 
L 80.54496 235.052522 
L 80.63424 256.644076 
L 80.72352 214.85295 
L 80.90208 239.131609 
L 80.99136 239.268634 
L 81.08064 212.589516 
L 81.2592 246.167184 
L 81.43776 226.84805 
L 81.61632 259.398136 
L 81.88416 190.242394 
L 81.97344 253.35057 
L 82.06272 245.149171 
L 82.24128 172.732845 
L 82.33056 234.702136 
L 82.41984 227.128741 
L 82.50912 224.156563 
L 82.5984 225.433793 
L 82.68768 203.242995 
L 82.77696 242.87666 
L 82.86624 225.029351 
L 83.0448 241.060869 
L 83.13408 248.116827 
L 83.22336 266.069499 
L 83.31264 206.814052 
L 83.40192 247.880199 
L 83.4912 240.818471 
L 83.58048 246.439558 
L 83.66976 270.242495 
L 83.75904 260.005734 
L 83.84832 205.32208 
L 84.02688 264.756302 
L 84.11616 199.308845 
L 84.20544 276.215895 
L 84.29472 246.060428 
L 84.384 254.361787 
L 84.47328 249.729269 
L 84.56256 253.598431 
L 84.65184 238.774978 
L 84.74112 258.916729 
L 84.8304 225.275857 
L 84.91968 250.282162 
L 85.00896 232.322351 
L 85.09824 247.671123 
L 85.18752 199.36357 
L 85.36608 255.715399 
L 85.45536 248.857898 
L 85.63392 256.840172 
L 85.81248 241.103469 
L 85.90176 253.061225 
L 85.99104 218.79734 
L 86.08032 256.365608 
L 86.25888 219.009913 
L 86.43744 254.254997 
L 86.52672 236.481586 
L 86.70528 261.833336 
L 86.88384 229.999033 
L 86.97312 252.408432 
L 87.0624 248.204639 
L 87.15168 237.908114 
L 87.33024 253.301632 
L 87.5088 214.408899 
L 87.68736 263.05565 
L 87.9552 219.992133 
L 88.04448 221.665994 
L 88.22304 235.439864 
L 88.31232 257.383475 
L 88.4016 230.916609 
L 88.58016 256.382281 
L 88.66944 256.334987 
L 88.75872 228.707679 
L 88.848 233.697045 
L 88.93728 256.035692 
L 89.02656 216.461067 
L 89.11584 264.491596 
L 89.20512 219.647613 
L 89.2944 263.69235 
L 89.47296 211.226532 
L 89.56224 211.972943 
L 89.7408 241.0714 
L 89.83008 249.97863 
L 89.91936 215.417041 
L 90.00864 252.026344 
L 90.09792 183.062762 
L 90.1872 259.871084 
L 90.27648 215.342478 
L 90.36576 247.514912 
L 90.54432 221.833978 
L 90.72288 266.753113 
L 90.90144 224.263522 
L 90.99072 251.383379 
L 91.08 243.368019 
L 91.16928 213.354607 
L 91.25856 257.797115 
L 91.34784 229.448442 
L 91.43712 256.847186 
L 91.5264 233.544437 
L 91.61568 237.516201 
L 91.70496 216.772409 
L 91.9728 272.393912 
L 92.06208 242.559607 
L 92.15136 254.879856 
L 92.24064 195.815301 
L 92.32992 196.915576 
L 92.4192 270.137807 
L 92.50848 260.511012 
L 92.59776 232.217524 
L 92.77632 256.30371 
L 92.8656 240.469854 
L 92.95488 248.589384 
L 93.13344 243.963332 
L 93.22272 253.64432 
L 93.312 242.127847 
L 93.40128 260.152072 
L 93.49056 251.573962 
L 93.57984 259.272682 
L 93.66912 241.896229 
L 93.7584 250.493536 
L 93.84768 169.831388 
L 93.93696 238.000641 
L 94.02624 190.956845 
L 94.11552 238.47536 
L 94.2048 227.893049 
L 94.38336 253.807806 
L 94.47264 254.112099 
L 94.56192 259.101156 
L 94.82976 244.028914 
L 94.91904 254.948874 
L 95.00832 241.333732 
L 95.0976 258.891791 
L 95.18688 249.410648 
L 95.27616 250.514824 
L 95.36544 207.858516 
L 95.544 258.317603 
L 95.63328 212.091166 
L 95.72256 250.535319 
L 95.81184 240.428408 
L 95.90112 246.017336 
L 95.9904 263.633276 
L 96.07968 225.331905 
L 96.16896 255.738854 
L 96.25824 211.289753 
L 96.34752 242.837815 
L 96.4368 190.581596 
L 96.52608 247.051504 
L 96.61536 222.658588 
L 96.70464 263.740261 
L 96.79392 256.159465 
L 96.8832 263.206389 
L 97.06176 232.424586 
L 97.15104 188.143225 
L 97.50816 268.408665 
L 97.59744 258.100279 
L 97.776 234.633821 
L 97.86528 232.391964 
L 97.95456 246.745368 
L 98.04384 229.306829 
L 98.13312 255.929783 
L 98.2224 204.737995 
L 98.31168 250.286132 
L 98.49024 232.434237 
L 98.57952 229.74332 
L 98.6688 264.64715 
L 98.75808 225.976617 
L 98.84736 259.320317 
L 98.93664 256.972042 
L 99.02592 222.646891 
L 99.20448 250.646093 
L 99.29376 192.410699 
L 99.47232 217.162086 
L 99.5616 257.420723 
L 99.74016 208.872158 
L 99.91872 253.937023 
L 100.008 234.949804 
L 100.09728 249.045603 
L 100.18656 233.457223 
L 100.27584 264.679671 
L 100.4544 238.973033 
L 100.54368 255.933382 
L 100.63296 189.313603 
L 100.72224 256.562069 
L 100.81152 254.086311 
L 100.99008 237.73262 
L 101.07936 270.506648 
L 101.25792 208.766855 
L 101.43648 254.163774 
L 101.52576 233.694815 
L 101.61504 265.105656 
L 101.70432 261.572221 
L 101.97216 242.891949 
L 102.06144 253.434648 
L 102.15072 206.034356 
L 102.32928 268.43326 
L 102.59712 242.594077 
L 102.86496 209.691012 
L 102.95424 255.902483 
L 103.04352 225.194372 
L 103.1328 265.955162 
L 103.31136 224.783885 
L 103.40064 247.786532 
L 103.48992 244.876409 
L 103.5792 233.704892 
L 103.66848 233.751943 
L 103.75776 253.891771 
L 104.0256 226.472524 
L 104.11488 273.681088 
L 104.29344 217.206305 
L 104.38272 251.491824 
L 104.472 221.554047 
L 104.56128 267.031162 
L 104.65056 225.190749 
L 104.73984 227.124236 
L 104.82912 249.186376 
L 104.9184 206.176423 
L 105.00768 253.260925 
L 105.09696 252.609318 
L 105.18624 230.751396 
L 105.3648 255.092555 
L 105.45408 235.560318 
L 105.54336 250.569114 
L 105.63264 231.509667 
L 105.72192 162.942849 
L 105.8112 236.997046 
L 106.07904 184.699155 
L 106.2576 239.519711 
L 106.34688 231.366355 
L 106.43616 251.613857 
L 106.52544 232.108735 
L 106.704 255.032352 
L 106.79328 197.374928 
L 106.97184 266.976806 
L 107.32896 200.632264 
L 107.50752 249.318916 
L 107.5968 219.802634 
L 107.77536 258.178054 
L 107.95392 226.515182 
L 108.0432 266.122463 
L 108.13248 215.957058 
L 108.22176 234.584354 
L 108.31104 213.647791 
L 108.4896 223.040606 
L 108.57888 259.091206 
L 108.75744 216.362238 
L 108.84672 242.140873 
L 108.936 215.880406 
L 109.02528 253.705215 
L 109.29312 212.044935 
L 109.3824 223.968384 
L 109.47168 259.744452 
L 109.73952 204.003928 
L 109.8288 234.441034 
L 109.91808 197.087198 
L 110.09664 263.458714 
L 110.2752 203.42582 
L 110.45376 242.299983 
L 110.63232 225.924543 
L 110.81088 245.86271 
L 110.90016 266.162531 
L 110.98944 193.461733 
L 111.07872 247.971144 
L 111.168 212.05851 
L 111.25728 247.167066 
L 111.43584 212.048016 
L 111.70368 267.985491 
L 111.97152 226.41757 
L 112.15008 249.416615 
L 112.23936 246.158479 
L 112.32864 232.026168 
L 112.41792 261.944552 
L 112.5072 225.396537 
L 112.68576 267.833142 
L 112.77504 231.145168 
L 112.86432 248.596521 
L 112.9536 234.199566 
L 113.04288 197.033319 
L 113.22144 254.431261 
L 113.31072 204.787751 
L 113.4 257.205579 
L 113.48928 235.787203 
L 113.57856 247.250986 
L 113.66784 207.086752 
L 113.75712 243.170811 
L 113.93568 208.418897 
L 114.02496 241.839088 
L 114.11424 235.51531 
L 114.20352 255.402356 
L 114.2928 236.164817 
L 114.47136 256.757038 
L 114.56064 206.388884 
L 114.64992 264.73943 
L 114.7392 225.271711 
L 114.82848 252.881748 
L 114.91776 211.789114 
L 115.09632 266.534456 
L 115.1856 248.705423 
L 115.27488 260.027372 
L 115.36416 249.070117 
L 115.45344 200.507123 
L 115.632 232.38008 
L 115.81056 237.188078 
L 115.89984 230.794078 
L 115.98912 238.676308 
L 116.0784 189.25667 
L 116.16768 237.389355 
L 116.25696 216.746328 
L 116.43552 256.18207 
L 116.79264 227.121053 
L 116.88192 233.225824 
L 117.06048 259.909949 
L 117.14976 220.699196 
L 117.32832 245.504434 
L 117.4176 216.594396 
L 117.50688 221.441147 
L 117.68544 254.547512 
L 117.77472 214.038285 
L 117.864 223.155732 
L 117.95328 221.946622 
L 118.04256 256.10405 
L 118.13184 208.517408 
L 118.22112 253.318608 
L 118.3104 238.181682 
L 118.39968 253.803842 
L 118.48896 249.913519 
L 118.57824 191.812179 
L 118.66752 245.749091 
L 118.7568 207.711655 
L 119.11392 259.636334 
L 119.29248 242.493621 
L 119.47104 256.683469 
L 119.56032 243.532514 
L 119.6496 249.705272 
L 119.82816 230.363718 
L 119.91744 222.115952 
L 120.00672 254.81619 
L 120.18528 195.140694 
L 120.27456 220.452682 
L 120.36384 197.806649 
L 120.5424 263.591046 
L 120.63168 235.705015 
L 120.72096 233.353998 
L 120.81024 251.496664 
L 120.89952 195.076592 
L 121.07808 265.005931 
L 121.16736 248.862431 
L 121.25664 266.214302 
L 121.34592 206.477425 
L 121.4352 251.661845 
L 121.52448 245.451684 
L 121.61376 245.169434 
L 121.70304 233.104049 
L 121.79232 249.391199 
L 121.8816 209.409287 
L 122.14944 247.800107 
L 122.23872 231.102514 
L 122.328 253.417799 
L 122.41728 252.570454 
L 122.50656 230.539581 
L 122.68512 257.013751 
L 122.7744 218.128089 
L 122.86368 242.591451 
L 122.95296 236.590832 
L 123.04224 243.492592 
L 123.13152 234.252126 
L 123.31008 264.534747 
L 123.48864 254.105051 
L 123.57792 251.355 
L 123.6672 225.030299 
L 123.84576 239.594354 
L 123.93504 230.707976 
L 124.02432 254.356277 
L 124.1136 243.878826 
L 124.20288 267.730447 
L 124.29216 233.58767 
L 124.38144 239.140285 
L 124.56 211.840203 
L 124.73856 254.00388 
L 124.82784 230.715593 
L 124.91712 252.434761 
L 125.0064 251.987383 
L 125.09568 186.37392 
L 125.27424 234.149525 
L 125.36352 205.774616 
L 125.54208 251.940896 
L 125.63136 260.763789 
L 125.8992 240.435525 
L 125.98848 258.409747 
L 126.07776 242.055065 
L 126.25632 184.89699 
L 126.3456 258.183439 
L 126.52416 220.054901 
L 126.70272 275.265157 
L 126.792 215.102536 
L 126.88128 236.206223 
L 126.97056 235.44044 
L 127.05984 246.788204 
L 127.2384 231.160354 
L 127.41696 253.484411 
L 127.50624 245.100285 
L 127.59552 210.845265 
L 127.6848 246.381408 
L 127.77408 239.715587 
L 127.86336 242.178317 
L 127.95264 152.720354 
L 128.04192 254.335582 
L 128.1312 207.135031 
L 128.30976 254.81193 
L 128.39904 237.008416 
L 128.48832 250.250203 
L 128.5776 241.287996 
L 128.66688 243.226955 
L 128.84544 198.307995 
L 129.024 248.554659 
L 129.20256 183.325061 
L 129.29184 251.328733 
L 129.38112 217.317262 
L 129.55968 256.645134 
L 129.64896 230.392375 
L 129.73824 267.441135 
L 129.82752 220.164347 
L 130.00608 241.5562 
L 130.09536 236.301117 
L 130.18464 212.711691 
L 130.45248 246.496111 
L 130.54176 242.428242 
L 130.63104 203.987025 
L 130.8096 252.072971 
L 130.89888 249.832016 
L 130.98816 254.008772 
L 131.07744 243.028226 
L 131.16672 264.642618 
L 131.256 216.836764 
L 131.43456 259.762464 
L 131.52384 256.32991 
L 131.61312 265.007214 
L 131.7024 237.496632 
L 131.88096 268.136712 
L 132.05952 249.177522 
L 132.1488 213.607088 
L 132.23808 247.440213 
L 132.32736 233.910671 
L 132.41664 243.666747 
L 132.50592 242.781449 
L 132.5952 243.688668 
L 132.68448 215.009655 
L 132.77376 252.617569 
L 132.86304 237.893343 
L 132.95232 277.41212 
L 133.22016 167.522208 
L 133.39872 249.345204 
L 133.488 256.71873 
L 133.57728 256.15449 
L 133.66656 164.803062 
L 133.75584 240.535269 
L 133.84512 222.736017 
L 134.02368 265.097676 
L 134.29152 226.494206 
L 134.55936 264.484372 
L 134.64864 261.021875 
L 134.8272 190.767848 
L 135.00576 251.0848 
L 135.18432 226.950627 
L 135.36288 262.242904 
L 135.45216 230.889644 
L 135.63072 252.244379 
L 135.72 221.145439 
L 135.80928 275.606753 
L 135.89856 228.486752 
L 135.98784 244.021089 
L 136.07712 224.004326 
L 136.25568 254.112125 
L 136.34496 230.870765 
L 136.52352 248.914324 
L 136.70208 209.937393 
L 136.96992 257.091627 
L 137.0592 245.611719 
L 137.14848 261.988076 
L 137.23776 246.28735 
L 137.32704 248.185874 
L 137.41632 249.149212 
L 137.5056 227.295397 
L 137.59488 237.813102 
L 137.86272 206.230923 
L 137.952 257.833454 
L 138.04128 211.122316 
L 138.21984 256.914026 
L 138.30912 209.289404 
L 138.3984 242.276359 
L 138.48768 233.806661 
L 138.57696 249.778098 
L 138.75552 223.177726 
L 138.8448 252.003912 
L 138.93408 241.075547 
L 139.11264 248.663817 
L 139.20192 260.440313 
L 139.38048 213.782704 
L 139.55904 262.555104 
L 139.64832 226.304733 
L 139.7376 249.830427 
L 139.91616 210.510156 
L 140.00544 270.202491 
L 140.09472 248.855108 
L 140.184 270.86883 
L 140.27328 227.853682 
L 140.36256 250.493082 
L 140.45184 172.535123 
L 140.54112 195.758507 
L 140.6304 249.575878 
L 140.80896 187.144459 
L 140.89824 249.497711 
L 140.98752 234.932293 
L 141.0768 238.749107 
L 141.16608 260.332526 
L 141.25536 227.952701 
L 141.34464 233.270693 
L 141.43392 250.438873 
L 141.61248 243.617045 
L 141.70176 260.355138 
L 141.79104 247.429201 
L 141.88032 265.4708 
L 141.9696 254.178501 
L 142.14816 131.416848 
L 142.23744 238.630455 
L 142.32672 237.778139 
L 142.416 242.042849 
L 142.59456 261.993418 
L 142.68384 232.372426 
L 142.77312 251.593631 
L 142.8624 251.284658 
L 142.95168 223.241747 
L 143.04096 255.302904 
L 143.13024 241.839717 
L 143.21952 186.251592 
L 143.39808 264.249523 
L 143.57664 236.612613 
L 143.66592 242.373628 
L 143.7552 268.776299 
L 143.84448 211.566166 
L 143.93376 255.453751 
L 144.02304 220.914999 
L 144.2016 257.698534 
L 144.29088 195.67027 
L 144.38016 257.661808 
L 144.46944 250.407293 
L 144.55872 245.534479 
L 144.73728 226.449868 
L 144.82656 245.76793 
L 144.91584 240.620803 
L 145.00512 222.154677 
L 145.0944 258.196913 
L 145.18368 229.243874 
L 145.27296 264.034765 
L 145.36224 227.653996 
L 145.45152 233.006389 
L 145.5408 254.815626 
L 145.63008 225.173627 
L 145.80864 266.985795 
L 146.07648 226.629781 
L 146.16576 231.849122 
L 146.25504 253.310556 
L 146.34432 249.548998 
L 146.4336 209.609227 
L 146.52288 221.018086 
L 146.70144 248.498104 
L 146.79072 234.657564 
L 146.96928 257.789036 
L 147.14784 240.644918 
L 147.23712 261.816617 
L 147.3264 219.069132 
L 147.41568 266.969833 
L 147.59424 214.296725 
L 147.7728 240.608657 
L 147.86208 253.339207 
L 147.95136 251.479469 
L 148.04064 228.471823 
L 148.12992 241.384808 
L 148.2192 224.812358 
L 148.30848 259.726731 
L 148.39776 210.316924 
L 148.48704 214.075732 
L 148.57632 217.88489 
L 148.6656 252.71878 
L 148.75488 248.336956 
L 148.84416 199.987828 
L 148.93344 220.78818 
L 149.02272 190.556712 
L 149.112 244.616228 
L 149.20128 231.04838 
L 149.37984 252.364529 
L 149.46912 232.58969 
L 149.5584 252.448652 
L 149.64768 235.690232 
L 149.73696 247.087672 
L 149.82624 215.000698 
L 150.09408 251.084046 
L 150.27264 218.461512 
L 150.36192 187.931497 
L 150.4512 251.007123 
L 150.54048 249.170859 
L 150.62976 254.03396 
L 150.71904 249.912442 
L 150.80832 227.033824 
L 150.98688 238.158712 
L 151.07616 239.685501 
L 151.16544 247.189944 
L 151.25472 241.873763 
L 151.344 219.44902 
L 151.61184 252.411722 
L 151.70112 241.154708 
L 151.87968 253.396742 
L 151.96896 236.086095 
L 152.05824 178.529271 
L 152.14752 268.343042 
L 152.2368 211.442878 
L 152.32608 239.562956 
L 152.41536 229.532174 
L 152.50464 255.932671 
L 152.59392 195.66635 
L 152.6832 234.070039 
L 152.77248 232.936769 
L 152.86176 253.81908 
L 153.04032 214.999277 
L 153.21888 264.505661 
L 153.30816 267.235762 
L 153.48672 237.78232 
L 153.576 245.28978 
L 153.66528 262.349353 
L 153.75456 249.907731 
L 153.84384 205.578158 
L 154.0224 277.361146 
L 154.11168 218.413565 
L 154.20096 272.099851 
L 154.37952 227.411157 
L 154.55808 256.999244 
L 154.64736 255.289081 
L 154.73664 235.749045 
L 154.82592 257.548869 
L 154.9152 215.266323 
L 155.00448 253.250288 
L 155.27232 188.725209 
L 155.3616 252.276508 
L 155.45088 251.107459 
L 155.62944 211.541929 
L 155.71872 259.937873 
L 155.808 229.734058 
L 155.98656 254.176242 
L 156.07584 252.534765 
L 156.16512 218.65867 
L 156.2544 218.676766 
L 156.34368 198.042835 
L 156.7008 251.317181 
L 156.79008 241.216298 
L 156.87936 215.124459 
L 157.05792 244.357128 
L 157.1472 178.792207 
L 157.23648 244.523375 
L 157.32576 235.530468 
L 157.41504 243.797881 
L 157.50432 269.093939 
L 157.77216 223.796963 
L 157.86144 244.820374 
L 157.95072 222.134436 
L 158.04 263.744418 
L 158.21856 202.6383 
L 158.30784 231.968995 
L 158.39712 223.43933 
L 158.4864 243.822791 
L 158.57568 227.934711 
L 158.66496 263.485632 
L 158.75424 213.572815 
L 158.84352 220.101356 
L 159.02208 253.633538 
L 159.11136 220.475493 
L 159.28992 253.778977 
L 159.3792 245.654218 
L 159.46848 248.110423 
L 159.55776 241.584624 
L 159.64704 266.824486 
L 159.73632 230.666293 
L 159.8256 236.168121 
L 159.91488 265.717129 
L 160.09344 232.462151 
L 160.18272 226.056112 
L 160.272 228.539255 
L 160.36128 125.418561 
L 160.45056 249.98889 
L 160.53984 229.450185 
L 160.62912 232.790893 
L 160.7184 231.010103 
L 160.80768 253.365555 
L 160.98624 218.350103 
L 161.07552 219.289426 
L 161.1648 250.032646 
L 161.25408 210.519752 
L 161.34336 212.375844 
L 161.52192 256.191701 
L 161.6112 231.472073 
L 161.78976 249.733333 
L 161.87904 219.223816 
L 161.96832 233.105255 
L 162.0576 217.091331 
L 162.14688 253.805789 
L 162.23616 209.257392 
L 162.41472 262.675983 
L 162.504 212.924602 
L 162.68256 257.190687 
L 162.77184 254.894164 
L 162.86112 226.861468 
L 162.9504 254.719163 
L 163.03968 191.944482 
L 163.21824 241.481596 
L 163.30752 237.982829 
L 163.3968 190.347704 
L 163.48608 242.102075 
L 163.57536 237.755717 
L 163.66464 243.101379 
L 163.75392 219.835951 
L 163.8432 246.010037 
L 163.93248 232.930829 
L 164.02176 256.180918 
L 164.11104 228.649194 
L 164.20032 252.604543 
L 164.2896 159.800664 
L 164.37888 256.108508 
L 164.46816 248.09019 
L 164.55744 253.336109 
L 164.64672 172.468569 
L 164.82528 247.514708 
L 165.00384 237.597162 
L 165.09312 251.867662 
L 165.27168 212.49976 
L 165.45024 244.664386 
L 165.6288 201.996845 
L 165.80736 239.02643 
L 165.89664 247.993408 
L 165.98592 182.45861 
L 166.16448 243.86886 
L 166.25376 226.966066 
L 166.34304 216.690636 
L 166.43232 263.006732 
L 166.61088 224.630083 
L 166.70016 234.610619 
L 166.78944 190.101954 
L 166.87872 252.176839 
L 166.968 200.49962 
L 167.05728 258.821451 
L 167.14656 236.206028 
L 167.23584 241.9154 
L 167.32512 285.408 
L 167.59296 201.771638 
L 167.68224 247.120776 
L 167.77152 215.051944 
L 167.8608 257.004268 
L 167.95008 222.687889 
L 168.12864 267.363219 
L 168.3072 235.246796 
L 168.39648 243.247435 
L 168.57504 223.736459 
L 168.66432 252.203449 
L 168.7536 237.947301 
L 168.84288 253.526098 
L 168.93216 184.839138 
L 169.02144 247.548084 
L 169.2 216.429884 
L 169.28928 255.45126 
L 169.37856 247.511606 
L 169.6464 234.385603 
L 169.73568 236.754602 
L 169.91424 231.59378 
L 170.00352 240.701898 
L 170.18208 213.516854 
L 170.27136 252.672001 
L 170.44992 239.860232 
L 170.5392 260.550431 
L 170.62848 219.73465 
L 170.80704 270.507398 
L 170.89632 223.088048 
L 170.9856 224.775508 
L 171.07488 239.886335 
L 171.16416 227.477545 
L 171.25344 245.155401 
L 171.34272 214.680865 
L 171.52128 258.80321 
L 171.61056 246.935231 
L 171.69984 139.268813 
L 171.8784 242.19872 
L 171.96768 220.967334 
L 172.14624 261.465589 
L 172.3248 223.312872 
L 172.41408 264.604247 
L 172.50336 240.52364 
L 172.59264 256.684658 
L 172.7712 211.275335 
L 172.86048 241.17739 
L 172.94976 192.242284 
L 173.03904 254.112301 
L 173.12832 218.954214 
L 173.39616 266.613792 
L 173.57472 219.575892 
L 173.664 237.89911 
L 173.75328 206.367584 
L 173.93184 270.323692 
L 174.1104 232.59064 
L 174.19968 222.533996 
L 174.28896 228.290796 
L 174.37824 267.294918 
L 174.5568 250.06892 
L 174.64608 222.074449 
L 174.73536 247.649338 
L 174.82464 235.352339 
L 174.91392 250.037875 
L 175.0032 206.477753 
L 175.09248 214.183632 
L 175.36032 260.94363 
L 175.4496 226.79566 
L 175.62816 267.858965 
L 175.71744 213.587853 
L 175.80672 234.243035 
L 175.896 226.780473 
L 175.98528 236.728046 
L 176.07456 232.578435 
L 176.16384 194.244605 
L 176.3424 237.831895 
L 176.43168 255.366856 
L 176.69952 232.476871 
L 176.7888 266.647811 
L 176.87808 229.490157 
L 176.96736 258.820295 
L 177.05664 180.162517 
L 177.14592 245.156516 
L 177.2352 225.214151 
L 177.32448 262.062492 
L 177.41376 255.415641 
L 177.50304 215.231418 
L 177.59232 252.47498 
L 177.77088 214.465183 
L 177.86016 248.536886 
L 177.94944 235.574282 
L 178.03872 177.350758 
L 178.21728 267.150179 
L 178.30656 237.524748 
L 178.39584 276.07053 
L 178.48512 216.697597 
L 178.66368 249.085463 
L 178.75296 246.020915 
L 178.84224 202.896127 
L 179.0208 231.260827 
L 179.11008 222.32157 
L 179.19936 270.716516 
L 179.28864 168.905586 
L 179.37792 259.943938 
L 179.4672 243.284932 
L 179.55648 237.520713 
L 179.64576 250.060694 
L 179.73504 223.278485 
L 179.9136 251.714314 
L 180.00288 160.546047 
L 180.18144 246.229807 
L 180.36 223.656961 
L 180.53856 243.227178 
L 180.62784 238.864889 
L 180.71712 198.693919 
L 180.89568 265.476474 
L 180.98496 252.044757 
L 181.07424 256.248923 
L 181.16352 248.957417 
L 181.2528 230.282975 
L 181.34208 238.352102 
L 181.43136 232.581239 
L 181.60992 246.4158 
L 181.78848 204.920826 
L 181.87776 258.933029 
L 181.96704 250.890987 
L 182.1456 230.778856 
L 182.32416 252.385405 
L 182.592 224.544545 
L 182.68128 233.105346 
L 182.77056 266.454112 
L 182.94912 253.194509 
L 183.0384 254.928139 
L 183.30624 202.154822 
L 183.39552 264.19585 
L 183.4848 235.637604 
L 183.57408 235.765868 
L 183.66336 257.080092 
L 183.84192 234.314733 
L 183.9312 261.136899 
L 184.02048 250.468846 
L 184.10976 220.921419 
L 184.19904 243.329298 
L 184.28832 213.26332 
L 184.55616 250.450373 
L 184.64544 214.498088 
L 184.824 252.36581 
L 184.91328 254.531258 
L 185.00256 247.799268 
L 185.09184 193.086667 
L 185.2704 256.581631 
L 185.35968 259.320309 
L 185.44896 240.649929 
L 185.53824 241.321323 
L 185.62752 250.252976 
L 185.80608 213.826939 
L 185.89536 233.941925 
L 185.98464 230.172727 
L 186.07392 243.965473 
L 186.1632 234.456994 
L 186.25248 251.113809 
L 186.52032 201.022699 
L 186.69888 244.129464 
L 186.78816 204.947922 
L 186.96672 261.229141 
L 187.056 230.530949 
L 187.14528 243.118979 
L 187.32384 228.061001 
L 187.41312 224.862253 
L 187.59168 258.293232 
L 187.68096 173.811592 
L 187.9488 237.522124 
L 188.03808 218.57145 
L 188.12736 268.528943 
L 188.30592 218.620799 
L 188.48448 245.141841 
L 188.57376 190.170902 
L 188.66304 211.292948 
L 188.75232 186.642516 
L 188.8416 235.812881 
L 188.93088 218.390032 
L 189.10944 253.547035 
L 189.19872 266.256611 
L 189.288 249.422356 
L 189.37728 186.678814 
L 189.46656 249.986893 
L 189.55584 173.716446 
L 189.7344 244.641274 
L 189.91296 265.663188 
L 190.1808 240.732337 
L 190.35936 236.426624 
L 190.44864 241.84759 
L 190.53792 233.882438 
L 190.6272 239.666544 
L 190.71648 235.204401 
L 190.80576 163.146334 
L 190.98432 219.042648 
L 191.0736 213.497077 
L 191.25216 252.335942 
L 191.34144 257.090199 
L 191.43072 207.937356 
L 191.52 260.171238 
L 191.60928 227.993104 
L 191.69856 244.674723 
L 191.87712 198.318362 
L 191.9664 235.161268 
L 192.05568 234.508871 
L 192.14496 230.238411 
L 192.23424 241.281926 
L 192.32352 235.45606 
L 192.4128 251.931138 
L 192.59136 215.352534 
L 192.68064 247.16138 
L 192.76992 234.97494 
L 192.8592 182.747019 
L 193.03776 238.375532 
L 193.12704 228.789231 
L 193.21632 147.592666 
L 193.3056 257.339995 
L 193.57344 189.777343 
L 193.66272 206.406067 
L 193.752 132.461917 
L 193.93056 253.661861 
L 194.10912 229.831142 
L 194.1984 230.494442 
L 194.37696 245.893985 
L 194.46624 207.337318 
L 194.6448 238.306987 
L 194.73408 232.617636 
L 194.82336 211.126385 
L 194.91264 233.422791 
L 195.00192 209.899884 
L 195.26976 268.075155 
L 195.35904 236.836783 
L 195.44832 238.900537 
L 195.5376 252.760574 
L 195.71616 222.167013 
L 195.80544 231.938062 
L 195.89472 225.328992 
L 195.984 226.79724 
L 196.07328 256.526043 
L 196.16256 247.674414 
L 196.34112 198.762847 
L 196.51968 252.756557 
L 196.8768 146.131898 
L 196.96608 263.908247 
L 197.05536 200.842933 
L 197.14464 239.670526 
L 197.23392 231.916812 
L 197.3232 209.524659 
L 197.50176 230.458358 
L 197.59104 220.522261 
L 197.68032 230.381574 
L 197.7696 202.211787 
L 198.03744 257.593125 
L 198.216 203.872622 
L 198.39456 239.452205 
L 198.48384 189.915041 
L 198.57312 190.885398 
L 198.6624 199.360991 
L 198.75168 231.673686 
L 198.93024 207.25561 
L 199.01952 157.997104 
L 199.1088 259.059053 
L 199.19808 253.295692 
L 199.28736 183.586172 
L 199.46592 232.151428 
L 199.5552 204.28757 
L 199.73376 251.544019 
L 199.91232 208.002932 
L 200.0016 245.344514 
L 200.09088 168.333769 
L 200.18016 239.081369 
L 200.26944 212.998088 
L 200.35872 238.191541 
L 200.448 221.67448 
L 200.53728 256.126131 
L 200.62656 244.380633 
L 200.80512 261.735004 
L 200.8944 201.733143 
L 200.98368 211.70961 
L 201.16224 227.382754 
L 201.25152 226.921258 
L 201.3408 254.09625 
L 201.43008 215.998593 
L 201.51936 222.333153 
L 201.69792 242.769294 
L 201.87648 208.805222 
L 201.96576 266.767853 
L 202.2336 206.170956 
L 202.32288 182.196611 
L 202.50144 244.340783 
L 202.59072 208.302997 
L 202.68 246.889511 
L 202.76928 173.299438 
L 202.94784 238.828593 
L 203.03712 244.07132 
L 203.21568 194.925407 
L 203.30496 240.353688 
L 203.39424 221.04052 
L 203.5728 238.338962 
L 203.66208 219.981443 
L 203.75136 232.683701 
L 203.84064 226.296462 
L 203.92992 246.658277 
L 204.0192 218.482827 
L 204.10848 252.96432 
L 204.19776 241.17719 
L 204.28704 248.819473 
L 204.4656 215.002946 
L 204.55488 215.577279 
L 204.64416 223.356819 
L 204.73344 178.038098 
L 204.912 243.56638 
L 205.00128 223.468737 
L 205.17984 247.456282 
L 205.3584 202.913909 
L 205.44768 259.455738 
L 205.53696 253.921887 
L 205.62624 251.067796 
L 205.71552 220.952946 
L 205.8048 248.174689 
L 205.98336 200.811845 
L 206.07264 259.356272 
L 206.16192 126.941601 
L 206.34048 227.148368 
L 206.51904 207.767112 
L 206.60832 227.974846 
L 206.6976 213.834367 
L 206.87616 244.843192 
L 207.05472 229.026391 
L 207.144 264.847934 
L 207.23328 259.109687 
L 207.32256 246.381447 
L 207.41184 254.816296 
L 207.50112 244.466363 
L 207.5904 247.779056 
L 207.67968 224.770243 
L 207.76896 252.740644 
L 207.94752 161.242106 
L 208.12608 244.757401 
L 208.30464 228.149588 
L 208.39392 229.212562 
L 208.4832 257.35889 
L 208.57248 202.428333 
L 208.66176 205.119681 
L 208.75104 205.309692 
L 209.01888 255.837733 
L 209.10816 252.886003 
L 209.19744 265.528245 
L 209.28672 228.193647 
L 209.46528 255.505261 
L 209.55456 232.088913 
L 209.64384 257.558319 
L 209.8224 195.347939 
L 209.91168 242.012044 
L 210.09024 203.804783 
L 210.17952 245.734613 
L 210.2688 229.64988 
L 210.35808 229.83823 
L 210.44736 250.593731 
L 210.62592 222.162316 
L 210.7152 243.248527 
L 210.80448 241.664345 
L 210.98304 252.508411 
L 211.1616 219.013737 
L 211.25088 223.330785 
L 211.51872 251.653884 
L 211.608 218.590803 
L 211.78656 241.408696 
L 211.87584 223.972261 
L 211.96512 231.414418 
L 212.0544 218.871261 
L 212.14368 271.315733 
L 212.41152 208.944816 
L 212.5008 251.186101 
L 212.59008 223.872399 
L 212.67936 246.714016 
L 212.76864 213.502351 
L 212.85792 218.447522 
L 212.9472 207.148886 
L 213.03648 238.997916 
L 213.12576 199.846407 
L 213.21504 205.478215 
L 213.30432 203.647271 
L 213.48288 221.761195 
L 213.57216 226.817635 
L 213.66144 207.972566 
L 213.75072 239.969845 
L 213.84 185.998182 
L 213.92928 232.077619 
L 214.01856 224.550265 
L 214.19712 257.026273 
L 214.2864 252.113636 
L 214.37568 202.733016 
L 214.46496 216.250634 
L 214.55424 250.865696 
L 214.91136 198.446707 
L 215.08992 247.010896 
L 215.1792 213.749516 
L 215.26848 219.496698 
L 215.35776 235.088378 
L 215.44704 230.704465 
L 215.53632 240.896056 
L 215.6256 138.5423 
L 215.80416 219.3943 
L 216.072 246.517993 
L 216.16128 194.092385 
L 216.25056 232.857288 
L 216.33984 132.162211 
L 216.42912 252.411393 
L 216.5184 192.096456 
L 216.60768 251.45319 
L 216.69696 239.84879 
L 216.78624 215.517678 
L 216.87552 231.072292 
L 216.9648 227.839118 
L 217.05408 238.245433 
L 217.14336 204.430886 
L 217.23264 228.126929 
L 217.32192 226.209769 
L 217.4112 215.994442 
L 217.50048 231.820425 
L 217.58976 209.015367 
L 217.67904 251.354433 
L 217.76832 191.440392 
L 217.94688 251.684716 
L 218.03616 218.799485 
L 218.12544 257.877062 
L 218.304 237.856078 
L 218.39328 252.228226 
L 218.48256 196.901592 
L 218.57184 239.005863 
L 218.66112 194.298297 
L 218.7504 206.849133 
L 218.92896 141.111053 
L 219.01824 266.463567 
L 219.10752 232.0264 
L 219.1968 238.507124 
L 219.28608 259.133877 
L 219.37536 214.510053 
L 219.46464 220.176855 
L 219.55392 235.212227 
L 219.73248 198.409198 
L 219.91104 249.97107 
L 220.26816 212.377251 
L 220.35744 207.169857 
L 220.44672 207.390535 
L 220.536 244.81731 
L 220.80384 172.042049 
L 220.89312 242.593238 
L 220.9824 221.16449 
L 221.07168 244.59794 
L 221.16096 200.769319 
L 221.25024 215.322648 
L 221.33952 203.814588 
L 221.4288 238.516553 
L 221.51808 158.272212 
L 221.60736 260.173391 
L 221.69664 212.552781 
L 221.78592 242.20325 
L 221.8752 224.714567 
L 221.96448 232.784051 
L 222.14304 173.436469 
L 222.23232 262.295873 
L 222.3216 247.707781 
L 222.41088 265.594702 
L 222.50016 249.026147 
L 222.58944 209.207496 
L 222.67872 230.591586 
L 222.768 206.677516 
L 222.94656 250.945978 
L 223.12512 171.040651 
L 223.30368 231.649606 
L 223.39296 249.406396 
L 223.48224 223.343833 
L 223.57152 229.973408 
L 223.6608 223.407279 
L 223.75008 165.579254 
L 224.01792 245.031922 
L 224.19648 224.913851 
L 224.28576 181.546557 
L 224.46432 248.480819 
L 224.5536 225.998058 
L 224.64288 98.445228 
L 224.82144 248.159437 
L 224.91072 243.915927 
L 225.17856 210.120196 
L 225.26784 145.107782 
L 225.35712 242.730745 
L 225.4464 216.558831 
L 225.53568 253.025954 
L 225.62496 221.456835 
L 225.71424 255.590195 
L 225.80352 216.771425 
L 225.8928 219.802107 
L 225.98208 213.281081 
L 226.07136 236.153496 
L 226.16064 189.33398 
L 226.24992 245.978543 
L 226.3392 225.056 
L 226.51776 249.09334 
L 226.60704 249.049506 
L 226.69632 223.964528 
L 226.7856 241.684394 
L 226.87488 235.107217 
L 226.96416 213.938732 
L 227.05344 226.585681 
L 227.14272 220.442921 
L 227.232 236.746907 
L 227.32128 197.359872 
L 227.41056 204.926553 
L 227.49984 236.032748 
L 227.94624 134.103271 
L 228.21408 244.956614 
L 228.30336 201.073931 
L 228.48192 241.898513 
L 228.5712 231.048327 
L 228.66048 235.623583 
L 228.74976 200.276445 
L 228.83904 230.71392 
L 228.92832 159.927943 
L 229.0176 258.536144 
L 229.10688 237.442158 
L 229.19616 198.411459 
L 229.28544 231.776154 
L 229.37472 228.101918 
L 229.464 224.898452 
L 229.55328 245.67783 
L 229.73184 220.940037 
L 229.82112 257.544982 
L 229.99968 216.336683 
L 230.08896 222.231499 
L 230.17824 218.38431 
L 230.26752 236.007025 
L 230.3568 161.723253 
L 230.44608 241.524859 
L 230.53536 239.4565 
L 230.62464 197.271047 
L 230.89248 264.691651 
L 231.07104 233.524809 
L 231.16032 260.250076 
L 231.2496 244.839781 
L 231.33888 204.488389 
L 231.42816 235.039283 
L 231.51744 222.036997 
L 231.696 248.812382 
L 231.87456 154.196599 
L 232.05312 235.212309 
L 232.1424 240.776287 
L 232.23168 194.679223 
L 232.41024 253.223229 
L 232.49952 235.461827 
L 232.5888 250.115429 
L 232.76736 150.872496 
L 232.85664 229.965913 
L 232.94592 224.636663 
L 233.0352 204.079974 
L 233.21376 219.993165 
L 233.30304 199.133863 
L 233.39232 227.647322 
L 233.57088 184.204229 
L 233.66016 241.989937 
L 233.83872 177.45723 
L 233.928 219.41453 
L 234.01728 217.443628 
L 234.10656 164.754148 
L 234.28512 207.558244 
L 234.3744 175.369181 
L 234.55296 223.33211 
L 234.64224 154.622622 
L 234.91008 220.798156 
L 234.99936 226.964315 
L 235.08864 182.197687 
L 235.2672 215.063532 
L 235.35648 206.856649 
L 235.44576 174.992376 
L 235.53504 256.297412 
L 235.62432 168.551865 
L 235.7136 232.179777 
L 235.80288 180.95669 
L 235.89216 238.308706 
L 236.07072 188.354741 
L 236.16 202.75701 
L 236.24928 243.880775 
L 236.42784 187.921471 
L 236.6064 259.005346 
L 236.69568 179.172491 
L 236.78496 224.545922 
L 236.96352 150.39264 
L 237.14208 224.346887 
L 237.23136 225.393702 
L 237.32064 237.037526 
L 237.4992 191.162712 
L 237.58848 227.118782 
L 237.67776 206.097977 
L 237.76704 259.081689 
L 237.85632 211.147497 
L 237.9456 239.293275 
L 238.03488 221.372563 
L 238.12416 232.361831 
L 238.21344 155.646273 
L 238.30272 233.617692 
L 238.392 215.743507 
L 238.48128 209.633893 
L 238.57056 189.05772 
L 238.65984 233.820472 
L 238.74912 226.211242 
L 238.8384 221.570545 
L 239.10624 154.523653 
L 239.2848 225.412509 
L 239.55264 209.566306 
L 239.64192 133.392414 
L 239.82048 204.750137 
L 239.90976 201.585336 
L 239.99904 234.571616 
L 240.1776 144.147789 
L 240.35616 213.358889 
L 240.44544 184.313333 
L 240.53472 235.047713 
L 240.624 230.297293 
L 240.71328 172.713793 
L 240.89184 269.03233 
L 240.98112 187.434044 
L 241.0704 227.446524 
L 241.15968 227.414341 
L 241.24896 233.126012 
L 241.33824 201.517406 
L 241.42752 214.095851 
L 241.5168 167.119623 
L 241.60608 216.070779 
L 241.69536 190.880678 
L 241.78464 197.431468 
L 241.87392 243.09142 
L 241.9632 234.904844 
L 242.05248 241.482867 
L 242.23104 206.632236 
L 242.32032 240.420397 
L 242.58816 198.864367 
L 242.67744 211.447009 
L 242.76672 271.292156 
L 242.856 142.275095 
L 243.03456 240.487833 
L 243.12384 213.035315 
L 243.3024 231.374105 
L 243.57024 211.566483 
L 243.7488 257.682377 
L 243.92736 228.140771 
L 244.01664 227.687735 
L 244.10592 240.127765 
L 244.1952 219.052634 
L 244.28448 247.838339 
L 244.37376 151.287431 
L 244.46304 226.460151 
L 244.55232 143.118973 
L 244.6416 219.979335 
L 244.73088 203.915244 
L 244.90944 247.601107 
L 244.99872 227.016098 
L 245.17728 253.547865 
L 245.35584 218.575672 
L 245.44512 249.339893 
L 245.71296 190.266093 
L 245.89152 229.380607 
L 245.9808 222.274745 
L 246.15936 250.156476 
L 246.24864 156.035718 
L 246.4272 218.970228 
L 246.51648 225.595798 
L 246.60576 221.169525 
L 246.78432 185.346652 
L 247.05216 233.720345 
L 247.14144 222.538006 
L 247.23072 191.176008 
L 247.32 251.292056 
L 247.40928 209.941082 
L 247.49856 245.310317 
L 247.58784 156.374336 
L 247.7664 227.703319 
L 247.85568 254.534186 
L 247.94496 206.195758 
L 248.03424 235.433405 
L 248.12352 216.82015 
L 248.39136 251.783548 
L 248.56992 174.922456 
L 248.83776 237.639874 
L 249.01632 198.54554 
L 249.1056 202.864015 
L 249.19488 181.809982 
L 249.37344 231.002783 
L 249.46272 227.799429 
L 249.64128 236.432514 
L 249.73056 212.503997 
L 249.81984 222.087443 
L 249.90912 219.136072 
L 250.08768 248.709156 
L 250.17696 256.073811 
L 250.26624 189.99989 
L 250.4448 238.384994 
L 250.53408 228.4744 
L 250.62336 198.992713 
L 250.80192 224.673114 
L 250.8912 167.479022 
L 250.98048 233.504044 
L 251.06976 204.470243 
L 251.15904 219.255197 
L 251.24832 173.68218 
L 251.42688 248.24908 
L 251.60544 228.648336 
L 251.69472 240.768567 
L 251.784 223.145698 
L 251.87328 239.477706 
L 251.96256 235.45941 
L 252.05184 202.975739 
L 252.2304 246.140688 
L 252.31968 240.294416 
L 252.40896 244.530154 
L 252.58752 225.599316 
L 252.6768 220.618444 
L 252.76608 183.617381 
L 252.94464 215.347569 
L 253.03392 243.502806 
L 253.1232 239.774197 
L 253.21248 207.646691 
L 253.30176 240.171347 
L 253.39104 238.921165 
L 253.5696 190.722837 
L 253.65888 217.003534 
L 253.74816 175.974063 
L 254.016 222.129055 
L 254.10528 184.231074 
L 254.28384 249.302148 
L 254.37312 176.466918 
L 254.4624 179.641973 
L 254.64096 252.704162 
L 254.73024 250.909552 
L 254.81952 188.764007 
L 254.99808 249.017009 
L 255.08736 192.666226 
L 255.17664 207.494924 
L 255.26592 203.299796 
L 255.3552 169.186524 
L 255.44448 224.454482 
L 255.53376 198.374194 
L 255.62304 225.885001 
L 255.71232 190.860645 
L 255.8016 216.009782 
L 255.89088 213.566501 
L 255.98016 222.999101 
L 256.06944 191.262145 
L 256.15872 249.67179 
L 256.248 157.845031 
L 256.33728 237.821944 
L 256.42656 186.967552 
L 256.51584 205.096102 
L 256.60512 180.418006 
L 256.6944 121.575861 
L 256.87296 210.037173 
L 256.96224 199.747434 
L 257.05152 246.70737 
L 257.1408 226.275982 
L 257.23008 243.580808 
L 257.31936 183.422561 
L 257.40864 187.129869 
L 257.5872 232.88207 
L 257.76576 160.165082 
L 257.85504 244.031487 
L 257.94432 228.300918 
L 258.0336 244.646726 
L 258.12288 129.805543 
L 258.30144 257.873533 
L 258.39072 201.848009 
L 258.48 229.749168 
L 258.56928 196.308914 
L 258.74784 251.506909 
L 258.83712 240.94463 
L 259.01568 176.916157 
L 259.28352 226.222944 
L 259.3728 202.54131 
L 259.55136 251.214859 
L 259.64064 234.970851 
L 259.8192 157.307131 
L 259.90848 250.341864 
L 259.99776 242.667409 
L 260.08704 233.166016 
L 260.17632 174.63858 
L 260.2656 178.73085 
L 260.53344 228.881226 
L 260.62272 222.625354 
L 260.712 231.217415 
L 260.80128 202.76839 
L 260.97984 242.888168 
L 261.06912 227.449042 
L 261.24768 246.377929 
L 261.42624 211.438951 
L 261.51552 243.194596 
L 261.69408 186.625276 
L 261.78336 219.975746 
L 261.87264 172.528392 
L 262.0512 268.476869 
L 262.22976 213.976461 
L 262.31904 232.136637 
L 262.40832 250.479971 
L 262.58688 195.950474 
L 262.67616 230.495388 
L 262.76544 181.829484 
L 262.85472 223.1123 
L 262.944 220.124696 
L 263.03328 173.349891 
L 263.12256 229.791955 
L 263.21184 209.307903 
L 263.3904 240.490261 
L 263.47968 257.218574 
L 263.56896 238.86462 
L 263.65824 246.25486 
L 263.74752 195.146751 
L 263.8368 216.223879 
L 263.92608 180.454753 
L 264.01536 238.504703 
L 264.10464 217.028146 
L 264.19392 229.639507 
L 264.2832 173.606583 
L 264.37248 241.304927 
L 264.46176 190.031048 
L 264.64032 240.762958 
L 264.7296 253.177345 
L 264.81888 238.320974 
L 264.90816 154.711498 
L 264.99744 233.072369 
L 265.08672 223.35724 
L 265.176 198.83473 
L 265.26528 201.367679 
L 265.35456 236.48591 
L 265.44384 187.858157 
L 265.53312 222.773551 
L 265.6224 174.674077 
L 265.71168 224.056057 
L 265.80096 214.244278 
L 265.89024 209.691945 
L 265.97952 216.464631 
L 266.0688 181.926813 
L 266.15808 253.955574 
L 266.24736 216.699677 
L 266.33664 236.507934 
L 266.60448 160.66693 
L 266.69376 203.813435 
L 266.78304 154.91557 
L 266.87232 223.160812 
L 266.9616 190.722584 
L 267.05088 204.280849 
L 267.14016 197.849502 
L 267.22944 224.138755 
L 267.31872 191.849216 
L 267.49728 258.19801 
L 267.58656 250.313024 
L 267.67584 245.396172 
L 267.76512 195.394495 
L 267.94368 248.927703 
L 268.21152 171.524218 
L 268.3008 222.092269 
L 268.39008 212.278539 
L 268.47936 207.138087 
L 268.56864 232.437392 
L 268.7472 133.119261 
L 268.92576 245.10093 
L 269.01504 206.924918 
L 269.10432 233.069888 
L 269.1936 218.815122 
L 269.28288 176.446254 
L 269.37216 227.708823 
L 269.46144 176.638862 
L 269.55072 217.747557 
L 269.64 213.070309 
L 269.72928 230.501 
L 269.81856 217.474725 
L 269.99712 254.889968 
L 270.0864 178.783233 
L 270.17568 231.206525 
L 270.26496 221.928517 
L 270.35424 180.761715 
L 270.5328 215.08095 
L 270.62208 211.944832 
L 270.71136 239.11194 
L 270.80064 232.197369 
L 270.88992 213.143269 
L 270.9792 218.417805 
L 271.06848 182.015168 
L 271.15776 244.047372 
L 271.24704 193.310293 
L 271.33632 211.275598 
L 271.4256 181.439085 
L 271.51488 188.872742 
L 271.60416 221.123351 
L 271.69344 181.657747 
L 271.872 245.649037 
L 271.96128 211.803743 
L 272.13984 233.751817 
L 272.22912 215.481612 
L 272.3184 217.355289 
L 272.40768 225.041846 
L 272.49696 182.412667 
L 272.58624 199.655815 
L 272.67552 242.638027 
L 272.85408 188.281016 
L 272.94336 208.753845 
L 273.03264 239.431973 
L 273.12192 175.456061 
L 273.2112 246.829772 
L 273.30048 170.982952 
L 273.38976 213.761641 
L 273.47904 213.336232 
L 273.56832 237.542151 
L 273.6576 232.617255 
L 273.74688 230.757132 
L 273.83616 188.833041 
L 273.92544 238.308031 
L 274.01472 140.005858 
L 274.19328 247.24773 
L 274.37184 225.688837 
L 274.46112 255.812445 
L 274.5504 214.74505 
L 274.63968 253.094815 
L 274.72896 215.797817 
L 274.81824 249.53155 
L 274.90752 222.725402 
L 274.9968 157.975989 
L 275.17536 257.783593 
L 275.35392 205.514028 
L 275.4432 224.723095 
L 275.53248 177.099197 
L 275.62176 252.6679 
L 275.80032 182.205502 
L 275.8896 234.484465 
L 275.97888 226.428205 
L 276.06816 263.156916 
L 276.24672 213.403791 
L 276.336 252.467768 
L 276.51456 205.520059 
L 276.60384 214.807953 
L 276.69312 241.185984 
L 276.7824 231.647411 
L 276.87168 241.987416 
L 276.96096 225.920738 
L 277.05024 241.907364 
L 277.13952 211.766407 
L 277.2288 240.05587 
L 277.31808 228.813567 
L 277.40736 241.816339 
L 277.58592 206.711695 
L 277.6752 232.63078 
L 277.85376 204.308153 
L 278.03232 245.319798 
L 278.30016 207.115648 
L 278.38944 217.58221 
L 278.47872 208.43548 
L 278.568 217.055585 
L 278.65728 164.078757 
L 278.74656 229.190299 
L 278.83584 151.149551 
L 279.0144 226.30519 
L 279.19296 241.17367 
L 279.28224 231.657715 
L 279.4608 197.256591 
L 279.63936 257.583681 
L 279.72864 190.112524 
L 279.81792 233.179809 
L 279.99648 185.801214 
L 280.08576 192.348545 
L 280.26432 247.585242 
L 280.3536 202.253997 
L 280.44288 215.496294 
L 280.53216 254.153355 
L 280.62144 184.131203 
L 280.71072 219.394328 
L 280.8 183.424236 
L 280.88928 242.301615 
L 280.97856 226.699975 
L 281.06784 246.389685 
L 281.15712 183.25498 
L 281.2464 187.843283 
L 281.42496 258.052233 
L 281.51424 219.482135 
L 281.60352 227.353178 
L 281.6928 239.062139 
L 281.87136 195.153132 
L 282.1392 235.115071 
L 282.22848 258.629118 
L 282.40704 227.403823 
L 282.49632 236.58035 
L 282.5856 235.886298 
L 282.67488 238.270983 
L 282.76416 216.316828 
L 282.94272 232.282227 
L 283.032 228.521795 
L 283.12128 244.113668 
L 283.21056 205.931903 
L 283.29984 244.632814 
L 283.4784 213.685581 
L 283.56768 227.333493 
L 283.65696 226.112683 
L 283.74624 216.752048 
L 283.83552 223.39332 
L 283.9248 191.555985 
L 284.10336 211.830437 
L 284.19264 195.414229 
L 284.28192 206.438398 
L 284.3712 186.011239 
L 284.46048 192.41517 
L 284.63904 240.674798 
L 284.72832 132.124004 
L 284.8176 246.810038 
L 284.90688 208.963056 
L 284.99616 239.528807 
L 285.08544 198.643321 
L 285.17472 244.234826 
L 285.264 161.359812 
L 285.35328 234.865262 
L 285.44256 204.770811 
L 285.53184 246.472076 
L 285.7104 164.114073 
L 285.88896 212.36158 
L 285.97824 235.414084 
L 286.06752 215.762091 
L 286.1568 244.630905 
L 286.33536 232.560836 
L 286.42464 234.432498 
L 286.51392 258.023764 
L 286.6032 244.366225 
L 286.69248 202.285591 
L 286.78176 211.988154 
L 286.87104 173.63797 
L 286.96032 235.790759 
L 287.0496 223.642805 
L 287.13888 178.713224 
L 287.22816 236.267607 
L 287.31744 235.932884 
L 287.40672 208.738597 
L 287.58528 244.858475 
L 287.76384 202.91851 
L 287.9424 263.951223 
L 288.03168 160.352804 
L 288.12096 236.927084 
L 288.21024 203.24327 
L 288.3888 233.606922 
L 288.47808 223.729496 
L 288.56736 255.632419 
L 288.65664 181.921396 
L 288.8352 245.863406 
L 288.92448 217.537869 
L 289.01376 248.585142 
L 289.19232 198.93612 
L 289.2816 216.049119 
L 289.37088 147.980904 
L 289.46016 218.858595 
L 289.54944 200.5464 
L 289.63872 148.816296 
L 289.728 185.940285 
L 289.81728 180.82055 
L 289.90656 170.835162 
L 290.08512 258.549408 
L 290.26368 217.98651 
L 290.44224 236.679175 
L 290.53152 166.316992 
L 290.6208 232.698057 
L 290.71008 229.580637 
L 290.79936 220.187354 
L 291.0672 235.753624 
L 291.15648 235.350642 
L 291.33504 210.615958 
L 291.42432 223.385077 
L 291.5136 155.845948 
L 291.60288 246.352727 
L 291.69216 245.021905 
L 291.87072 219.944995 
L 291.96 230.080324 
L 292.04928 159.796432 
L 292.13856 170.507514 
L 292.22784 199.277422 
L 292.31712 88.92657 
L 292.49568 231.539908 
L 292.67424 193.516711 
L 292.76352 208.43232 
L 293.12064 185.027461 
L 293.2992 223.524532 
L 293.38848 210.04127 
L 293.47776 230.18739 
L 293.56704 176.544884 
L 293.65632 189.032898 
L 293.83488 241.493528 
L 293.92416 204.534158 
L 294.01344 248.640029 
L 294.10272 245.008347 
L 294.192 228.829381 
L 294.28128 236.812864 
L 294.37056 225.58149 
L 294.45984 196.507003 
L 294.54912 202.105845 
L 294.6384 174.58202 
L 294.72768 218.957469 
L 294.90624 175.913192 
L 294.99552 238.033952 
L 295.0848 201.559489 
L 295.17408 225.146801 
L 295.35264 196.191204 
L 295.5312 229.538682 
L 295.70976 243.24458 
L 295.79904 166.313702 
L 295.9776 216.463883 
L 296.06688 163.616772 
L 296.15616 244.794134 
L 296.24544 203.200627 
L 296.33472 207.377336 
L 296.424 249.183007 
L 296.51328 235.840655 
L 296.60256 240.387947 
L 296.69184 237.813597 
L 296.78112 214.80309 
L 296.8704 122.770561 
L 296.95968 200.1194 
L 297.04896 161.729693 
L 297.13824 248.507647 
L 297.3168 129.123954 
L 297.40608 257.26342 
L 297.58464 183.90068 
L 297.7632 223.541827 
L 297.94176 241.017401 
L 298.12032 176.06581 
L 298.29888 245.097347 
L 298.38816 220.893743 
L 298.47744 244.568206 
L 298.56672 212.983389 
L 298.656 246.663266 
L 298.83456 180.775757 
L 299.01312 244.082937 
L 299.1024 207.432475 
L 299.19168 212.708031 
L 299.28096 253.676173 
L 299.5488 200.409442 
L 299.72736 247.916818 
L 299.81664 249.558496 
L 299.90592 154.733342 
L 299.9952 248.922833 
L 300.08448 207.74601 
L 300.17376 222.171067 
L 300.26304 212.91758 
L 300.35232 236.180419 
L 300.4416 221.551017 
L 300.53088 239.100756 
L 300.70944 136.437329 
L 300.79872 226.461719 
L 300.888 207.086211 
L 300.97728 196.657095 
L 301.06656 245.170254 
L 301.15584 235.789207 
L 301.24512 246.207032 
L 301.51296 170.050471 
L 301.60224 228.36619 
L 301.69152 205.927782 
L 301.87008 269.236369 
L 301.95936 208.04629 
L 302.04864 261.98888 
L 302.2272 195.556014 
L 302.40576 232.949562 
L 302.49504 199.255566 
L 302.58432 201.131213 
L 302.6736 227.578715 
L 302.85216 200.261307 
L 303.03072 244.381656 
L 303.12 184.189471 
L 303.47712 247.794581 
L 303.5664 187.488023 
L 303.65568 245.957404 
L 303.74496 199.923182 
L 303.83424 244.716993 
L 303.92352 174.561946 
L 304.0128 239.2934 
L 304.10208 181.438285 
L 304.19136 244.797657 
L 304.28064 168.594307 
L 304.36992 204.850083 
L 304.4592 153.015016 
L 304.63776 247.353384 
L 304.81632 183.634089 
L 304.9056 230.694511 
L 304.99488 220.125389 
L 305.08416 221.282864 
L 305.17344 225.369514 
L 305.26272 189.552399 
L 305.44128 242.326915 
L 305.61984 192.733968 
L 305.70912 236.385295 
L 305.88768 204.48034 
L 305.97696 227.609144 
L 306.06624 139.890811 
L 306.15552 243.322019 
L 306.2448 214.996338 
L 306.33408 224.402949 
L 306.42336 190.02093 
L 306.60192 227.306836 
L 306.6912 195.087922 
L 306.78048 232.984427 
L 306.86976 212.634257 
L 306.95904 226.712238 
L 307.04832 167.720189 
L 307.22688 206.311016 
L 307.31616 204.638042 
L 307.49472 179.011286 
L 307.67328 243.615804 
L 307.85184 182.348846 
L 307.94112 229.224627 
L 308.0304 171.516576 
L 308.11968 187.155105 
L 308.20896 177.846802 
L 308.29824 234.335869 
L 308.4768 170.279002 
L 308.56608 236.272619 
L 308.65536 222.342911 
L 308.74464 212.188703 
L 308.83392 264.215147 
L 309.01248 184.909615 
L 309.10176 204.857753 
L 309.19104 197.445287 
L 309.28032 158.088624 
L 309.45888 200.093436 
L 309.54816 212.92 
L 309.63744 200.518997 
L 309.72672 216.94187 
L 309.816 193.138973 
L 309.99456 205.111799 
L 310.08384 208.738908 
L 310.17312 239.167014 
L 310.35168 163.556315 
L 310.44096 188.813383 
L 310.61952 246.353466 
L 310.7088 183.319756 
L 310.79808 195.178634 
L 310.88736 159.021308 
L 310.97664 245.003876 
L 311.24448 144.459862 
L 311.33376 226.175593 
L 311.42304 191.394962 
L 311.51232 221.210704 
L 311.6016 221.089379 
L 311.78016 175.599282 
L 311.86944 233.405511 
L 311.95872 151.321865 
L 312.048 213.408388 
L 312.13728 190.925939 
L 312.31584 231.163463 
L 312.4944 193.980671 
L 312.58368 229.699481 
L 312.67296 223.163157 
L 312.76224 244.578179 
L 312.9408 209.950484 
L 313.03008 262.416753 
L 313.11936 170.313245 
L 313.29792 254.260819 
L 313.47648 66.763361 
L 313.56576 120.050598 
L 313.74432 220.949338 
L 313.8336 200.287942 
L 313.92288 248.820329 
L 314.19072 201.222634 
L 314.28 247.210093 
L 314.36928 206.364583 
L 314.45856 232.387307 
L 314.54784 219.077313 
L 314.63712 228.99644 
L 314.81568 185.366696 
L 314.90496 199.474414 
L 314.99424 247.975478 
L 315.08352 154.506696 
L 315.1728 175.195974 
L 315.26208 229.034868 
L 315.44064 175.301093 
L 315.52992 249.978702 
L 315.6192 238.860166 
L 315.79776 154.842693 
L 315.97632 229.508475 
L 316.0656 76.489803 
L 316.24416 223.481482 
L 316.33344 201.317066 
L 316.42272 204.225974 
L 316.60128 228.767772 
L 316.69056 215.75037 
L 316.77984 162.066139 
L 316.86912 240.602609 
L 316.9584 236.953603 
L 317.04768 232.481568 
L 317.13696 247.497589 
L 317.31552 177.251916 
L 317.49408 206.702909 
L 317.58336 168.121849 
L 317.67264 252.53213 
L 317.76192 239.579483 
L 317.8512 203.913715 
L 317.94048 244.96011 
L 318.02976 185.455618 
L 318.20832 226.474309 
L 318.2976 199.398013 
L 318.38688 238.025057 
L 318.47616 152.085053 
L 318.65472 211.351858 
L 318.744 185.949845 
L 319.01184 232.595418 
L 319.10112 193.055258 
L 319.1904 193.154757 
L 319.27968 181.016549 
L 319.54752 222.249447 
L 319.6368 183.869142 
L 319.72608 190.678518 
L 319.81536 232.869565 
L 319.90464 230.079681 
L 320.0832 152.808486 
L 320.17248 209.558255 
L 320.26176 209.473541 
L 320.35104 243.427741 
L 320.44032 191.795129 
L 320.5296 238.657946 
L 320.61888 163.406175 
L 320.70816 213.923378 
L 320.79744 210.80508 
L 320.88672 228.032813 
L 320.976 130.291325 
L 321.15456 242.94511 
L 321.24384 169.253488 
L 321.33312 207.670117 
L 321.4224 179.397256 
L 321.51168 230.564781 
L 321.69024 156.618363 
L 322.04736 232.53287 
L 322.13664 212.407169 
L 322.22592 251.194796 
L 322.3152 181.632946 
L 322.40448 185.813812 
L 322.49376 229.455624 
L 322.58304 219.317363 
L 322.67232 212.037144 
L 322.7616 241.236525 
L 322.85088 185.728421 
L 323.02944 226.549546 
L 323.11872 156.902924 
L 323.208 179.30859 
L 323.29728 244.002221 
L 323.47584 165.218076 
L 323.56512 258.211401 
L 323.6544 252.343861 
L 323.92224 179.479137 
L 324.1008 252.068996 
L 324.19008 171.462713 
L 324.27936 240.662133 
L 324.36864 204.570686 
L 324.45792 231.78151 
L 324.5472 231.525035 
L 324.63648 225.371378 
L 324.81504 175.630589 
L 324.90432 219.910675 
L 324.9936 199.57689 
L 325.08288 224.53339 
L 325.17216 200.714573 
L 325.26144 216.635138 
L 325.35072 200.776343 
L 325.52928 228.566431 
L 325.70784 217.083537 
L 325.79712 224.692741 
L 325.8864 196.688369 
L 325.97568 107.485578 
L 326.06496 228.413688 
L 326.15424 221.292024 
L 326.24352 151.093624 
L 326.3328 232.616837 
L 326.42208 189.871555 
L 326.51136 226.759782 
L 326.60064 217.576922 
L 326.68992 221.214057 
L 326.7792 216.524675 
L 326.86848 176.878096 
L 326.95776 223.344449 
L 327.04704 115.37596 
L 327.13632 239.774142 
L 327.2256 227.264313 
L 327.31488 224.340867 
L 327.49344 145.608898 
L 327.58272 221.647269 
L 327.76128 189.419344 
L 327.93984 255.823167 
L 328.1184 161.16666 
L 328.20768 185.859948 
L 328.29696 241.836537 
L 328.38624 230.097788 
L 328.47552 184.461414 
L 328.65408 248.016808 
L 328.74336 209.906547 
L 328.83264 249.055669 
L 328.92192 204.211428 
L 329.0112 243.069287 
L 329.10048 146.758523 
L 329.18976 227.575289 
L 329.27904 222.429678 
L 329.36832 221.035255 
L 329.4576 162.014572 
L 329.54688 236.834371 
L 329.63616 218.818981 
L 329.72544 237.685418 
L 329.904 217.894658 
L 329.99328 163.101987 
L 330.08256 230.828658 
L 330.26112 171.002961 
L 330.3504 204.56325 
L 330.61824 142.827469 
L 330.7968 229.53593 
L 330.97536 224.097236 
L 331.15392 196.129954 
L 331.2432 233.444663 
L 331.33248 175.024609 
L 331.51104 224.076252 
L 331.6896 155.607637 
L 331.86816 237.40507 
L 331.95744 216.81209 
L 332.136 168.788509 
L 332.40384 234.139513 
L 332.49312 152.257551 
L 332.5824 230.510157 
L 332.67168 227.893672 
L 332.76096 170.608479 
L 332.93952 243.83767 
L 333.0288 162.435447 
L 333.11808 246.578734 
L 333.29664 177.238011 
L 333.38592 187.420535 
L 333.4752 175.402606 
L 333.56448 215.495534 
L 333.65376 141.110848 
L 333.83232 229.572382 
L 334.27872 178.016453 
L 334.368 251.7423 
L 334.45728 244.237673 
L 334.54656 210.576481 
L 334.63584 216.013241 
L 334.72512 232.127952 
L 334.8144 227.305862 
L 334.90368 249.863685 
L 335.17152 164.839239 
L 335.35008 235.947267 
L 335.43936 167.224151 
L 335.52864 201.274421 
L 335.7072 180.361049 
L 335.88576 242.8646 
L 335.97504 235.270145 
L 336.1536 192.906073 
L 336.24288 181.616543 
L 336.33216 142.322938 
L 336.51072 213.000417 
L 336.68928 146.622214 
L 336.86784 203.461897 
L 336.95712 199.998224 
L 337.0464 215.860827 
L 337.13568 171.451109 
L 337.22496 188.378717 
L 337.31424 239.901393 
L 337.40352 165.767546 
L 337.4928 247.895809 
L 337.58208 186.526071 
L 337.76064 232.443373 
L 337.84992 221.199416 
L 337.9392 140.488512 
L 338.02848 236.8476 
L 338.11776 208.563098 
L 338.29632 236.665268 
L 338.3856 222.755692 
L 338.47488 166.483055 
L 338.65344 207.291655 
L 338.74272 207.708312 
L 339.01056 236.976749 
L 339.18912 145.263838 
L 339.2784 217.926195 
L 339.36768 213.761632 
L 339.45696 253.817843 
L 339.63552 190.706038 
L 339.7248 243.652952 
L 339.81408 236.205404 
L 339.90336 249.101551 
L 340.08192 216.664827 
L 340.26048 230.768507 
L 340.43904 166.748387 
L 340.52832 233.549991 
L 340.6176 193.499277 
L 340.79616 247.817105 
L 340.88544 233.519496 
L 340.97472 241.345871 
L 341.064 161.43154 
L 341.15328 248.487409 
L 341.33184 176.315228 
L 341.59968 247.238175 
L 341.68896 124.418966 
L 341.86752 187.271423 
L 341.9568 203.261843 
L 342.13536 174.44368 
L 342.31392 231.383294 
L 342.4032 227.563462 
L 342.49248 214.012927 
L 342.58176 105.654088 
L 342.67104 257.31228 
L 342.76032 206.413411 
L 342.8496 222.618613 
L 342.93888 194.497949 
L 343.02816 236.974635 
L 343.11744 198.62524 
L 343.296 220.694811 
L 343.38528 162.831874 
L 343.47456 227.236694 
L 343.56384 225.998725 
L 343.65312 221.842448 
L 343.83168 239.319372 
L 343.92096 191.539788 
L 344.01024 212.429183 
L 344.09952 167.233997 
L 344.27808 229.108486 
L 344.36736 223.8864 
L 344.45664 178.744514 
L 344.54592 221.961972 
L 344.6352 187.183999 
L 344.72448 189.03479 
L 344.81376 225.51478 
L 344.90304 166.419074 
L 344.99232 174.623859 
L 345.0816 173.741567 
L 345.17088 218.600204 
L 345.528 154.119872 
L 345.70656 235.604095 
L 345.88512 173.393846 
L 345.9744 254.112007 
L 346.06368 189.130529 
L 346.24224 242.060088 
L 346.51008 130.411455 
L 346.59936 208.743102 
L 346.68864 149.063693 
L 346.8672 221.935508 
L 346.95648 210.835077 
L 347.13504 178.871335 
L 347.22432 218.590832 
L 347.3136 203.261977 
L 347.49216 215.156304 
L 347.58144 210.715847 
L 347.67072 245.620127 
L 347.76 173.900858 
L 347.84928 234.567711 
L 347.93856 220.107627 
L 348.02784 178.919939 
L 348.29568 242.109447 
L 348.56352 204.439851 
L 348.6528 197.764834 
L 348.74208 206.320535 
L 348.83136 200.94738 
L 348.92064 132.719284 
L 349.0992 253.649478 
L 349.18848 177.171823 
L 349.27776 221.737147 
L 349.36704 181.566765 
L 349.45632 222.59527 
L 349.5456 213.891319 
L 349.63488 231.023796 
L 349.72416 161.233476 
L 349.81344 236.00089 
L 349.90272 233.153564 
L 349.992 228.259568 
L 350.17056 193.610743 
L 350.25984 205.740956 
L 350.34912 194.401367 
L 350.4384 221.109126 
L 350.52768 200.129868 
L 350.61696 229.476772 
L 350.70624 222.34895 
L 350.8848 157.437171 
L 350.97408 237.136737 
L 351.06336 233.236206 
L 351.15264 247.241422 
L 351.24192 200.849362 
L 351.3312 213.198517 
L 351.50976 164.052255 
L 351.59904 190.768831 
L 351.68832 141.642778 
L 351.86688 243.026552 
L 351.95616 190.202094 
L 352.04544 192.426019 
L 352.13472 185.006877 
L 352.224 248.187019 
L 352.31328 192.650532 
L 352.40256 229.821681 
L 352.49184 227.773353 
L 352.58112 149.65242 
L 352.6704 210.243525 
L 352.75968 159.039119 
L 352.84896 236.29668 
L 352.93824 197.350107 
L 353.02752 208.890252 
L 353.20608 191.415918 
L 353.29536 228.246831 
L 353.38464 220.974275 
L 353.47392 180.5682 
L 353.5632 209.185095 
L 353.65248 184.391764 
L 353.74176 213.46232 
L 353.83104 196.601954 
L 353.92032 147.121412 
L 354.09888 217.819804 
L 354.18816 143.674946 
L 354.36672 235.507762 
L 354.54528 168.084961 
L 354.63456 228.315683 
L 354.72384 224.682577 
L 354.9024 174.574544 
L 355.08096 218.563687 
L 355.25952 205.842395 
L 355.43808 187.961771 
L 355.61664 229.490521 
L 355.70592 242.332602 
L 355.7952 230.944515 
L 355.88448 248.766543 
L 355.97376 223.199329 
L 356.06304 251.640395 
L 356.2416 191.079012 
L 356.33088 206.852342 
L 356.42016 211.938918 
L 356.50944 197.506245 
L 356.59872 207.540578 
L 356.688 232.745103 
L 356.77728 198.864929 
L 356.86656 228.784048 
L 357.04512 209.252738 
L 357.1344 209.068975 
L 357.31296 260.166636 
L 357.49152 179.564434 
L 357.5808 223.2328 
L 357.67008 202.967331 
L 357.75936 240.92199 
L 357.84864 197.602605 
L 357.93792 221.220634 
L 358.20576 164.679494 
L 358.29504 164.968037 
L 358.38432 201.72819 
L 358.4736 135.646139 
L 358.56288 227.209922 
L 358.65216 218.606035 
L 358.83072 174.03859 
L 359.18784 244.293549 
L 359.27712 220.798348 
L 359.3664 165.101618 
L 359.45568 228.960185 
L 359.54496 199.872978 
L 359.72352 253.126301 
L 359.90208 220.186966 
L 359.99136 211.219246 
L 360.08064 225.053782 
L 360.2592 166.383659 
L 360.43776 243.91951 
L 360.52704 223.952292 
L 360.61632 237.824196 
L 360.7056 217.993094 
L 360.79488 241.852843 
L 360.97344 190.406831 
L 361.06272 209.843121 
L 361.152 169.486445 
L 361.24128 222.900032 
L 361.33056 155.534817 
L 361.41984 226.14605 
L 361.5984 148.943627 
L 361.68768 221.164475 
L 361.77696 186.162219 
L 361.86624 187.764534 
L 361.95552 171.169076 
L 362.13408 187.296327 
L 362.22336 179.63718 
L 362.31264 180.50332 
L 362.40192 193.874595 
L 362.4912 188.654832 
L 362.66976 218.547294 
L 362.75904 248.423778 
L 362.9376 210.989874 
L 363.02688 217.881475 
L 363.11616 200.512257 
L 363.20544 234.538356 
L 363.29472 205.824358 
L 363.384 207.349291 
L 363.56256 182.193752 
L 363.65184 256.710141 
L 363.74112 221.430137 
L 363.8304 234.672048 
L 363.91968 222.129752 
L 364.00896 149.400818 
L 364.09824 162.237553 
L 364.18752 205.797779 
L 364.2768 200.83889 
L 364.36608 223.708725 
L 364.54464 205.210202 
L 364.7232 233.23197 
L 364.81248 209.13296 
L 364.90176 243.677962 
L 364.99104 190.658343 
L 365.08032 204.881296 
L 365.25888 246.149899 
L 365.34816 186.931776 
L 365.43744 222.908476 
L 365.52672 214.825277 
L 365.70528 230.760807 
L 365.79456 234.328105 
L 365.88384 210.579288 
L 365.97312 245.963258 
L 366.0624 220.387308 
L 366.15168 230.808748 
L 366.33024 171.545443 
L 366.41952 226.04477 
L 366.5088 211.937427 
L 366.68736 228.657444 
L 366.86592 217.026601 
L 366.9552 207.934503 
L 367.04448 228.900648 
L 367.13376 190.132911 
L 367.22304 243.985231 
L 367.31232 221.172498 
L 367.4016 237.517748 
L 367.49088 229.394963 
L 367.58016 248.359398 
L 367.66944 233.185985 
L 367.75872 139.213644 
L 367.848 230.069802 
L 367.93728 75.764219 
L 368.11584 257.288232 
L 368.2944 240.488445 
L 368.38368 183.95644 
L 368.47296 224.632724 
L 368.56224 183.247109 
L 368.7408 234.056405 
L 368.83008 231.410773 
L 369.00864 171.714212 
L 369.09792 184.968611 
L 369.1872 238.967895 
L 369.27648 165.150957 
L 369.36576 226.045084 
L 369.6336 154.96275 
L 369.72288 202.318713 
L 369.81216 182.323794 
L 369.90144 230.113415 
L 369.99072 172.887178 
L 370.16928 258.179095 
L 370.43712 169.112558 
L 370.5264 192.13949 
L 370.61568 165.611708 
L 370.88352 214.836681 
L 370.9728 226.23842 
L 371.06208 161.761341 
L 371.15136 178.953012 
L 371.24064 219.57652 
L 371.32992 182.417295 
L 371.50848 238.87432 
L 371.68704 212.345941 
L 371.77632 246.197872 
L 371.95488 227.099359 
L 372.04416 232.095899 
L 372.312 187.861038 
L 372.40128 244.696788 
L 372.66912 195.111119 
L 372.84768 244.961507 
L 372.93696 207.090793 
L 373.02624 243.644513 
L 373.11552 208.484092 
L 373.2048 219.850478 
L 373.29408 251.403735 
L 373.38336 223.48951 
L 373.47264 263.244323 
L 373.56192 152.639818 
L 373.6512 172.302759 
L 373.74048 222.523259 
L 373.82976 152.998896 
L 374.00832 190.312896 
L 374.0976 186.510253 
L 374.18688 136.799637 
L 374.36544 244.588114 
L 374.45472 203.300296 
L 374.544 205.925735 
L 374.63328 244.651803 
L 374.72256 173.262461 
L 375.07968 246.882664 
L 375.25824 199.951391 
L 375.34752 226.271577 
L 375.4368 215.00282 
L 375.52608 218.142507 
L 375.61536 191.696922 
L 375.70464 202.70806 
L 375.79392 189.807531 
L 375.8832 234.621871 
L 375.97248 212.562313 
L 376.06176 156.924587 
L 376.24032 247.188879 
L 376.3296 235.651927 
L 376.50816 202.447679 
L 376.59744 217.52043 
L 376.776 181.903437 
L 376.86528 180.932707 
L 376.95456 237.862839 
L 377.04384 201.971348 
L 377.13312 213.13415 
L 377.2224 132.209467 
L 377.31168 245.466227 
L 377.40096 194.450424 
L 377.49024 201.7454 
L 377.6688 241.172679 
L 377.75808 198.646843 
L 377.84736 232.612725 
L 377.93664 181.677128 
L 378.1152 259.559891 
L 378.20448 226.513328 
L 378.29376 151.433942 
L 378.47232 238.427368 
L 378.74016 131.848468 
L 378.91872 221.013256 
L 379.008 145.818953 
L 379.18656 225.033814 
L 379.27584 225.919134 
L 379.36512 159.826577 
L 379.4544 238.381256 
L 379.63296 153.081461 
L 379.72224 168.367422 
L 379.9008 215.777001 
L 380.07936 221.718842 
L 380.43648 187.144834 
L 380.52576 184.044764 
L 380.61504 226.054557 
L 380.70432 144.371288 
L 380.7936 219.014364 
L 380.88288 207.632457 
L 380.97216 238.128749 
L 381.06144 158.426529 
L 381.15072 161.684877 
L 381.32928 244.141192 
L 381.50784 225.831409 
L 381.6864 145.20221 
L 381.77568 63.648 
L 381.86496 180.745426 
L 381.95424 141.242974 
L 382.1328 220.193017 
L 382.22208 141.79165 
L 382.40064 243.31685 
L 382.48992 209.590372 
L 382.5792 226.638784 
L 382.66848 85.913185 
L 382.84704 218.207221 
L 382.93632 187.728347 
L 383.0256 221.271068 
L 383.11488 207.091638 
L 383.38272 113.206802 
L 383.472 205.136451 
L 383.56128 145.574393 
L 383.73984 243.019146 
L 383.9184 205.508275 
L 384.00768 129.801036 
L 384.09696 172.111063 
L 384.18624 129.404154 
L 384.27552 129.752213 
L 384.3648 232.086406 
L 384.45408 168.016435 
L 384.54336 211.388504 
L 384.63264 199.605865 
L 384.72192 130.853924 
L 384.8112 216.749687 
L 384.90048 201.304612 
L 384.98976 138.148189 
L 385.07904 226.25636 
L 385.16832 201.010022 
L 385.2576 202.946002 
L 385.34688 205.095098 
L 385.43616 124.291748 
L 385.52544 217.056904 
L 385.61472 196.505036 
L 385.704 176.597483 
L 385.79328 180.785813 
L 385.88256 200.236471 
L 385.97184 157.067771 
L 386.06112 237.346253 
L 386.23968 162.008368 
L 386.32896 233.368638 
L 386.41824 225.841798 
L 386.50752 231.911179 
L 386.68608 110.154993 
L 386.86464 215.500889 
L 386.95392 223.439007 
L 387.0432 110.27441 
L 387.13248 181.109967 
L 387.22176 162.755542 
L 387.40032 217.212603 
L 387.4896 198.83865 
L 387.57888 251.842583 
L 387.66816 198.680244 
L 387.75744 208.544794 
L 387.84672 190.413724 
L 388.02528 216.392405 
L 388.11456 220.434944 
L 388.29312 171.384502 
L 388.3824 181.597126 
L 388.47168 220.811273 
L 388.56096 124.383381 
L 388.73952 232.41467 
L 388.8288 208.278722 
L 388.91808 232.076896 
L 389.00736 165.584776 
L 389.09664 183.499268 
L 389.2752 111.773343 
L 389.45376 250.719627 
L 389.54304 191.9628 
L 389.63232 200.762346 
L 389.7216 246.973399 
L 389.81088 229.974464 
L 389.90016 233.116799 
L 389.98944 174.374113 
L 390.07872 207.034704 
L 390.168 147.521186 
L 390.34656 213.824187 
L 390.43584 208.318493 
L 390.6144 192.688178 
L 390.70368 229.678991 
L 390.79296 181.392353 
L 390.88224 190.798723 
L 390.97152 178.994227 
L 391.0608 225.047805 
L 391.15008 184.289709 
L 391.23936 244.199729 
L 391.32864 212.736048 
L 391.5072 226.216673 
L 391.59648 65.573227 
L 391.68576 229.56729 
L 391.77504 197.241066 
L 391.9536 227.387997 
L 392.04288 213.937297 
L 392.13216 182.405772 
L 392.22144 232.047753 
L 392.4 183.707658 
L 392.48928 203.565037 
L 392.57856 181.964649 
L 392.66784 231.59724 
L 392.8464 136.721026 
L 393.11424 242.049638 
L 393.20352 173.57815 
L 393.38208 215.269078 
L 393.47136 197.271374 
L 393.56064 223.413773 
L 393.64992 137.412212 
L 393.7392 157.262248 
L 393.91776 181.586373 
L 394.00704 237.907366 
L 394.1856 179.837481 
L 394.27488 228.844396 
L 394.45344 148.455336 
L 394.632 231.652997 
L 394.72128 185.11813 
L 394.81056 231.712432 
L 394.89984 132.862128 
L 394.98912 204.12279 
L 395.0784 189.838087 
L 395.16768 212.397039 
L 395.25696 200.043284 
L 395.34624 208.988374 
L 395.43552 206.950318 
L 395.5248 191.791662 
L 395.61408 202.994776 
L 395.70336 228.760781 
L 395.79264 210.214805 
L 395.88192 215.814098 
L 395.9712 206.310417 
L 396.06048 208.814687 
L 396.14976 249.425651 
L 396.23904 237.435686 
L 396.32832 162.920689 
L 396.59616 206.848377 
L 396.68544 228.172101 
L 396.77472 227.508006 
L 396.864 228.333438 
L 396.95328 236.342256 
L 397.04256 258.405362 
L 397.3104 219.002061 
L 397.39968 229.30233 
L 397.48896 227.378519 
L 397.57824 212.412053 
L 397.66752 233.522335 
L 397.7568 221.258014 
L 397.84608 188.058859 
L 398.02464 232.756687 
L 398.11392 167.754171 
L 398.2032 212.55718 
L 398.38176 144.3667 
L 398.47104 239.773315 
L 398.6496 179.794957 
L 398.82816 241.824837 
L 399.00672 218.36691 
L 399.27456 172.747478 
L 399.36384 200.284054 
L 399.45312 144.352099 
L 399.63168 224.700617 
L 399.72096 251.799261 
L 399.9888 208.456347 
L 400.07808 178.449705 
L 400.16736 240.645995 
L 400.25664 188.161018 
L 400.34592 189.924684 
L 400.4352 182.659316 
L 400.52448 191.835771 
L 400.70304 221.882231 
L 400.79232 186.346295 
L 400.8816 220.210046 
L 400.97088 166.75275 
L 401.06016 250.544231 
L 401.14944 160.205711 
L 401.23872 231.339414 
L 401.328 189.452972 
L 401.41728 192.92115 
L 401.50656 183.349759 
L 401.59584 186.600089 
L 401.7744 241.428006 
L 401.86368 192.715539 
L 401.95296 212.533091 
L 402.04224 209.138377 
L 402.13152 208.869175 
L 402.2208 244.455554 
L 402.31008 212.305241 
L 402.39936 212.93883 
L 402.48864 235.066228 
L 402.57792 203.343735 
L 402.6672 212.975222 
L 402.75648 198.853142 
L 402.84576 219.694524 
L 402.93504 197.89576 
L 403.02432 242.36782 
L 403.29216 185.091919 
L 403.38144 232.800206 
L 403.47072 232.041218 
L 403.56 237.689595 
L 403.73856 219.672106 
L 403.82784 226.63233 
L 403.91712 188.946813 
L 404.0064 196.616194 
L 404.09568 208.007936 
L 404.18496 176.191309 
L 404.27424 225.094285 
L 404.36352 206.734909 
L 404.4528 221.805796 
L 404.63136 198.167695 
L 404.72064 212.368954 
L 404.80992 204.997737 
L 404.8992 225.182999 
L 404.98848 225.062931 
L 405.07776 214.363348 
L 405.16704 221.481346 
L 405.25632 221.454699 
L 405.3456 186.621045 
L 405.52416 239.784491 
L 405.61344 226.334876 
L 405.70272 105.870116 
L 405.88128 239.221914 
L 405.97056 243.7947 
L 406.05984 200.246407 
L 406.14912 235.986441 
L 406.41696 162.745949 
L 406.59552 208.786171 
L 406.77408 182.888997 
L 406.86336 178.577725 
L 407.04192 235.487658 
L 407.22048 162.912153 
L 407.39904 250.064319 
L 407.48832 246.62157 
L 407.66688 197.180992 
L 407.75616 225.385701 
L 407.84544 197.106449 
L 407.93472 215.040064 
L 408.024 193.149982 
L 408.11328 238.922211 
L 408.20256 202.206205 
L 408.4704 242.368416 
L 408.55968 222.204896 
L 408.64896 257.071494 
L 408.73824 192.675112 
L 408.82752 247.04629 
L 408.9168 239.199698 
L 409.00608 231.561184 
L 409.09536 232.002045 
L 409.18464 232.016655 
L 409.27392 255.327197 
L 409.45248 177.50046 
L 409.54176 245.988501 
L 409.89888 186.920948 
L 409.98816 261.516828 
L 410.07744 220.417287 
L 410.16672 231.847267 
L 410.256 189.889562 
L 410.34528 191.608371 
L 410.43456 184.353848 
L 410.61312 221.278602 
L 410.7024 226.32076 
L 410.88096 210.121749 
L 411.05952 251.590546 
L 411.1488 233.084358 
L 411.23808 174.471342 
L 411.41664 240.664864 
L 411.50592 240.813949 
L 411.5952 231.292081 
L 411.68448 264.628162 
L 412.0416 130.335002 
L 412.13088 237.271706 
L 412.22016 208.133736 
L 412.488 243.226418 
L 412.57728 204.663672 
L 412.84512 240.94297 
L 412.9344 149.283071 
L 413.11296 237.309871 
L 413.20224 203.36093 
L 413.29152 256.238407 
L 413.3808 200.402216 
L 413.64864 238.427893 
L 413.8272 173.680119 
L 414.00576 223.519522 
L 414.09504 197.245887 
L 414.18432 262.570693 
L 414.2736 195.432945 
L 414.36288 226.96883 
L 414.45216 147.174191 
L 414.54144 234.165106 
L 414.63072 211.036423 
L 414.63072 211.036423 
" style="fill:none;stroke:#0000ff;stroke-linecap:square;stroke-width:1.5;"/>
   </g>
   <g id="patch_3">
    <path d="M 57.6 307.584 
L 57.6 41.472 
" style="fill:none;stroke:#000000;stroke-linecap:square;stroke-linejoin:miter;stroke-width:0.8;"/>
   </g>
   <g id="patch_4">
    <path d="M 414.72 307.584 
L 414.72 41.472 
" style="fill:none;stroke:#000000;stroke-linecap:square;stroke-linejoin:miter;stroke-width:0.8;"/>
   </g>
   <g id="patch_5">
    <path d="M 57.6 307.584 
L 414.72 307.584 
" style="fill:none;stroke:#000000;stroke-linecap:square;stroke-linejoin:miter;stroke-width:0.8;"/>
   </g>
   <g id="patch_6">
    <path d="M 57.6 41.472 
L 414.72 41.472 
" style="fill:none;stroke:#000000;stroke-linecap:square;stroke-linejoin:miter;stroke-width:0.8;"/>
   </g>
   <g id="legend_1">
    <g id="patch_7">
     <path d="M 68.8 77.757 
L 269.4375 77.757 
Q 272.6375 77.757 272.6375 74.557 
L 272.6375 52.672 
Q 272.6375 49.472 269.4375 49.472 
L 68.8 49.472 
Q 65.6 49.472 65.6 52.672 
L 65.6 74.557 
Q 65.6 77.757 68.8 77.757 
z
" style="fill:#ffffff;opacity:0.8;stroke:#cccccc;stroke-linejoin:miter;"/>
    </g>
    <g id="line2d_20">
     <path d="M 72 62.4295 
L 104 62.4295 
" style="fill:none;stroke:#0000ff;stroke-linecap:square;stroke-width:1.5;"/>
    </g>
    <g id="line2d_21"/>
    <g id="text_12">
     <!-- cumulative reward -->
     <g transform="translate(116.8 68.0295)scale(0.16 -0.16)">
      <defs>
       <path d="M 3122 3366 
L 3122 2828 
Q 2878 2963 2633 3030 
Q 2388 3097 2138 3097 
Q 1578 3097 1268 2742 
Q 959 2388 959 1747 
Q 959 1106 1268 751 
Q 1578 397 2138 397 
Q 2388 397 2633 464 
Q 2878 531 3122 666 
L 3122 134 
Q 2881 22 2623 -34 
Q 2366 -91 2075 -91 
Q 1284 -91 818 406 
Q 353 903 353 1747 
Q 353 2603 823 3093 
Q 1294 3584 2113 3584 
Q 2378 3584 2631 3529 
Q 2884 3475 3122 3366 
z
" id="DejaVuSans-63" transform="scale(0.015625)"/>
      </defs>
      <use xlink:href="#DejaVuSans-63"/>
      <use x="54.980469" xlink:href="#DejaVuSans-75"/>
      <use x="118.359375" xlink:href="#DejaVuSans-6d"/>
      <use x="215.771484" xlink:href="#DejaVuSans-75"/>
      <use x="279.150391" xlink:href="#DejaVuSans-6c"/>
      <use x="306.933594" xlink:href="#DejaVuSans-61"/>
      <use x="368.212891" xlink:href="#DejaVuSans-74"/>
      <use x="407.421875" xlink:href="#DejaVuSans-69"/>
      <use x="435.205078" xlink:href="#DejaVuSans-76"/>
      <use x="494.384766" xlink:href="#DejaVuSans-65"/>
      <use x="555.908203" xlink:href="#DejaVuSans-20"/>
      <use x="587.695312" xlink:href="#DejaVuSans-72"/>
      <use x="626.558594" xlink:href="#DejaVuSans-65"/>
      <use x="688.082031" xlink:href="#DejaVuSans-77"/>
      <use x="769.869141" xlink:href="#DejaVuSans-61"/>
      <use x="831.148438" xlink:href="#DejaVuSans-72"/>
      <use x="870.511719" xlink:href="#DejaVuSans-64"/>
     </g>
    </g>
   </g>
  </g>
 </g>
 <defs>
  <clipPath id="p0468c2ef88">
   <rect height="266.112" width="357.12" x="57.6" y="41.472"/>
  </clipPath>
 </defs>
</svg>
