<?xml version="1.0" encoding="utf-8" standalone="no"?>
<!DOCTYPE svg PUBLIC "-//W3C//DTD SVG 1.1//EN"
  "http://www.w3.org/Graphics/SVG/1.1/DTD/svg11.dtd">
<svg height="345.6pt" version="1.1" viewBox="0 0 460.8 345.6" width="460.8pt" xmlns="http://www.w3.org/2000/svg" xmlns:xlink="http://www.w3.org/1999/xlink">
 <metadata>
  <rdf:RDF xmlns:cc="http://creativecommons.org/ns#" xmlns:dc="http://purl.org/dc/elements/1.1/" xmlns:rdf="http://www.w3.org/1999/02/22-rdf-syntax-ns#">
   <cc:Work>
    <dc:type rdf:resource="http://purl.org/dc/dcmitype/StillImage"/>
    <dc:date>2021-10-19T11:11:20.390107</dc:date>
    <dc:description>{"agent.algorithm": "RayProximalPolicyOptimization", "agent.algorithm.render_env": false, "agent.algorithm.batch_mode": "complete_episodes", "agent.algorithm.train_batch_size": 200, "agent.algorithm.optimizer": "Adam", "agent.algorithm.vf_clip_param": 50, "agent.algorithm.model": {"fcnet_activation": "tanh", "fcnet_hiddens": [30, 30]}, "env.env_class": "SchedulerPolicyRayEnvironment", "env.env_config": {"solver_driver": "CMAdriver", "solver_driver_args": [10, 10, "rosenbrock"], "maximize": false, "steps": 50, "state_metrics_names": ["DifferenceOfBest", "SolverState"], "state_metrics_config": [[40, false, 1, true, true], [{"step_size": {"max": 3, "min": 1e-10}}]], "reward_metric": "Best", "reward_metric_config": [false, false], "memes_no": 1, "parameter_tune_config": {"step_size": {"max": 3, "min": 1e-10}}}}</dc:description>
    <dc:format>image/svg+xml</dc:format>
    <dc:creator>
     <cc:Agent>
      <dc:title>Matplotlib v3.4.2, https://matplotlib.org/</dc:title>
     </cc:Agent>
    </dc:creator>
   </cc:Work>
  </rdf:RDF>
 </metadata>
 <defs>
  <style type="text/css">*{stroke-linecap:butt;stroke-linejoin:round;}</style>
 </defs>
 <g id="figure_1">
  <g id="patch_1">
   <path d="M 0 345.6 
L 460.8 345.6 
L 460.8 0 
L 0 0 
z
" style="fill:#ffffff;"/>
  </g>
  <g id="axes_1">
   <g id="patch_2">
    <path d="M 57.6 307.584 
L 414.72 307.584 
L 414.72 41.472 
L 57.6 41.472 
z
" style="fill:#ffffff;"/>
   </g>
   <g id="matplotlib.axis_1">
    <g id="xtick_1">
     <g id="line2d_1">
      <path clip-path="url(#pa7eb3953ca)" d="M 57.6 307.584 
L 57.6 41.472 
" style="fill:none;stroke:#b0b0b0;stroke-linecap:square;stroke-width:0.8;"/>
     </g>
     <g id="line2d_2">
      <defs>
       <path d="M 0 0 
L 0 3.5 
" id="me7edb88a5b" style="stroke:#000000;stroke-width:0.8;"/>
      </defs>
      <g>
       <use style="stroke:#000000;stroke-width:0.8;" x="57.6" xlink:href="#me7edb88a5b" y="307.584"/>
      </g>
     </g>
     <g id="text_1">
      <!-- 0 -->
      <g transform="translate(54.41875 322.182437)scale(0.1 -0.1)">
       <defs>
        <path d="M 2034 4250 
Q 1547 4250 1301 3770 
Q 1056 3291 1056 2328 
Q 1056 1369 1301 889 
Q 1547 409 2034 409 
Q 2525 409 2770 889 
Q 3016 1369 3016 2328 
Q 3016 3291 2770 3770 
Q 2525 4250 2034 4250 
z
M 2034 4750 
Q 2819 4750 3233 4129 
Q 3647 3509 3647 2328 
Q 3647 1150 3233 529 
Q 2819 -91 2034 -91 
Q 1250 -91 836 529 
Q 422 1150 422 2328 
Q 422 3509 836 4129 
Q 1250 4750 2034 4750 
z
" id="DejaVuSans-30" transform="scale(0.015625)"/>
       </defs>
       <use xlink:href="#DejaVuSans-30"/>
      </g>
     </g>
    </g>
    <g id="xtick_2">
     <g id="line2d_3">
      <path clip-path="url(#pa7eb3953ca)" d="M 129.024 307.584 
L 129.024 41.472 
" style="fill:none;stroke:#b0b0b0;stroke-linecap:square;stroke-width:0.8;"/>
     </g>
     <g id="line2d_4">
      <g>
       <use style="stroke:#000000;stroke-width:0.8;" x="129.024" xlink:href="#me7edb88a5b" y="307.584"/>
      </g>
     </g>
     <g id="text_2">
      <!-- 200 -->
      <g transform="translate(119.48025 322.182437)scale(0.1 -0.1)">
       <defs>
        <path d="M 1228 531 
L 3431 531 
L 3431 0 
L 469 0 
L 469 531 
Q 828 903 1448 1529 
Q 2069 2156 2228 2338 
Q 2531 2678 2651 2914 
Q 2772 3150 2772 3378 
Q 2772 3750 2511 3984 
Q 2250 4219 1831 4219 
Q 1534 4219 1204 4116 
Q 875 4013 500 3803 
L 500 4441 
Q 881 4594 1212 4672 
Q 1544 4750 1819 4750 
Q 2544 4750 2975 4387 
Q 3406 4025 3406 3419 
Q 3406 3131 3298 2873 
Q 3191 2616 2906 2266 
Q 2828 2175 2409 1742 
Q 1991 1309 1228 531 
z
" id="DejaVuSans-32" transform="scale(0.015625)"/>
       </defs>
       <use xlink:href="#DejaVuSans-32"/>
       <use x="63.623047" xlink:href="#DejaVuSans-30"/>
       <use x="127.246094" xlink:href="#DejaVuSans-30"/>
      </g>
     </g>
    </g>
    <g id="xtick_3">
     <g id="line2d_5">
      <path clip-path="url(#pa7eb3953ca)" d="M 200.448 307.584 
L 200.448 41.472 
" style="fill:none;stroke:#b0b0b0;stroke-linecap:square;stroke-width:0.8;"/>
     </g>
     <g id="line2d_6">
      <g>
       <use style="stroke:#000000;stroke-width:0.8;" x="200.448" xlink:href="#me7edb88a5b" y="307.584"/>
      </g>
     </g>
     <g id="text_3">
      <!-- 400 -->
      <g transform="translate(190.90425 322.182437)scale(0.1 -0.1)">
       <defs>
        <path d="M 2419 4116 
L 825 1625 
L 2419 1625 
L 2419 4116 
z
M 2253 4666 
L 3047 4666 
L 3047 1625 
L 3713 1625 
L 3713 1100 
L 3047 1100 
L 3047 0 
L 2419 0 
L 2419 1100 
L 313 1100 
L 313 1709 
L 2253 4666 
z
" id="DejaVuSans-34" transform="scale(0.015625)"/>
       </defs>
       <use xlink:href="#DejaVuSans-34"/>
       <use x="63.623047" xlink:href="#DejaVuSans-30"/>
       <use x="127.246094" xlink:href="#DejaVuSans-30"/>
      </g>
     </g>
    </g>
    <g id="xtick_4">
     <g id="line2d_7">
      <path clip-path="url(#pa7eb3953ca)" d="M 271.872 307.584 
L 271.872 41.472 
" style="fill:none;stroke:#b0b0b0;stroke-linecap:square;stroke-width:0.8;"/>
     </g>
     <g id="line2d_8">
      <g>
       <use style="stroke:#000000;stroke-width:0.8;" x="271.872" xlink:href="#me7edb88a5b" y="307.584"/>
      </g>
     </g>
     <g id="text_4">
      <!-- 600 -->
      <g transform="translate(262.32825 322.182437)scale(0.1 -0.1)">
       <defs>
        <path d="M 2113 2584 
Q 1688 2584 1439 2293 
Q 1191 2003 1191 1497 
Q 1191 994 1439 701 
Q 1688 409 2113 409 
Q 2538 409 2786 701 
Q 3034 994 3034 1497 
Q 3034 2003 2786 2293 
Q 2538 2584 2113 2584 
z
M 3366 4563 
L 3366 3988 
Q 3128 4100 2886 4159 
Q 2644 4219 2406 4219 
Q 1781 4219 1451 3797 
Q 1122 3375 1075 2522 
Q 1259 2794 1537 2939 
Q 1816 3084 2150 3084 
Q 2853 3084 3261 2657 
Q 3669 2231 3669 1497 
Q 3669 778 3244 343 
Q 2819 -91 2113 -91 
Q 1303 -91 875 529 
Q 447 1150 447 2328 
Q 447 3434 972 4092 
Q 1497 4750 2381 4750 
Q 2619 4750 2861 4703 
Q 3103 4656 3366 4563 
z
" id="DejaVuSans-36" transform="scale(0.015625)"/>
       </defs>
       <use xlink:href="#DejaVuSans-36"/>
       <use x="63.623047" xlink:href="#DejaVuSans-30"/>
       <use x="127.246094" xlink:href="#DejaVuSans-30"/>
      </g>
     </g>
    </g>
    <g id="xtick_5">
     <g id="line2d_9">
      <path clip-path="url(#pa7eb3953ca)" d="M 343.296 307.584 
L 343.296 41.472 
" style="fill:none;stroke:#b0b0b0;stroke-linecap:square;stroke-width:0.8;"/>
     </g>
     <g id="line2d_10">
      <g>
       <use style="stroke:#000000;stroke-width:0.8;" x="343.296" xlink:href="#me7edb88a5b" y="307.584"/>
      </g>
     </g>
     <g id="text_5">
      <!-- 800 -->
      <g transform="translate(333.75225 322.182437)scale(0.1 -0.1)">
       <defs>
        <path d="M 2034 2216 
Q 1584 2216 1326 1975 
Q 1069 1734 1069 1313 
Q 1069 891 1326 650 
Q 1584 409 2034 409 
Q 2484 409 2743 651 
Q 3003 894 3003 1313 
Q 3003 1734 2745 1975 
Q 2488 2216 2034 2216 
z
M 1403 2484 
Q 997 2584 770 2862 
Q 544 3141 544 3541 
Q 544 4100 942 4425 
Q 1341 4750 2034 4750 
Q 2731 4750 3128 4425 
Q 3525 4100 3525 3541 
Q 3525 3141 3298 2862 
Q 3072 2584 2669 2484 
Q 3125 2378 3379 2068 
Q 3634 1759 3634 1313 
Q 3634 634 3220 271 
Q 2806 -91 2034 -91 
Q 1263 -91 848 271 
Q 434 634 434 1313 
Q 434 1759 690 2068 
Q 947 2378 1403 2484 
z
M 1172 3481 
Q 1172 3119 1398 2916 
Q 1625 2713 2034 2713 
Q 2441 2713 2670 2916 
Q 2900 3119 2900 3481 
Q 2900 3844 2670 4047 
Q 2441 4250 2034 4250 
Q 1625 4250 1398 4047 
Q 1172 3844 1172 3481 
z
" id="DejaVuSans-38" transform="scale(0.015625)"/>
       </defs>
       <use xlink:href="#DejaVuSans-38"/>
       <use x="63.623047" xlink:href="#DejaVuSans-30"/>
       <use x="127.246094" xlink:href="#DejaVuSans-30"/>
      </g>
     </g>
    </g>
    <g id="xtick_6">
     <g id="line2d_11">
      <path clip-path="url(#pa7eb3953ca)" d="M 414.72 307.584 
L 414.72 41.472 
" style="fill:none;stroke:#b0b0b0;stroke-linecap:square;stroke-width:0.8;"/>
     </g>
     <g id="line2d_12">
      <g>
       <use style="stroke:#000000;stroke-width:0.8;" x="414.72" xlink:href="#me7edb88a5b" y="307.584"/>
      </g>
     </g>
     <g id="text_6">
      <!-- 1000 -->
      <g transform="translate(401.995 322.182437)scale(0.1 -0.1)">
       <defs>
        <path d="M 794 531 
L 1825 531 
L 1825 4091 
L 703 3866 
L 703 4441 
L 1819 4666 
L 2450 4666 
L 2450 531 
L 3481 531 
L 3481 0 
L 794 0 
L 794 531 
z
" id="DejaVuSans-31" transform="scale(0.015625)"/>
       </defs>
       <use xlink:href="#DejaVuSans-31"/>
       <use x="63.623047" xlink:href="#DejaVuSans-30"/>
       <use x="127.246094" xlink:href="#DejaVuSans-30"/>
       <use x="190.869141" xlink:href="#DejaVuSans-30"/>
      </g>
     </g>
    </g>
    <g id="text_7">
     <!-- Episodes -->
     <g transform="translate(213.917812 335.860562)scale(0.1 -0.1)">
      <defs>
       <path d="M 628 4666 
L 3578 4666 
L 3578 4134 
L 1259 4134 
L 1259 2753 
L 3481 2753 
L 3481 2222 
L 1259 2222 
L 1259 531 
L 3634 531 
L 3634 0 
L 628 0 
L 628 4666 
z
" id="DejaVuSans-45" transform="scale(0.015625)"/>
       <path d="M 1159 525 
L 1159 -1331 
L 581 -1331 
L 581 3500 
L 1159 3500 
L 1159 2969 
Q 1341 3281 1617 3432 
Q 1894 3584 2278 3584 
Q 2916 3584 3314 3078 
Q 3713 2572 3713 1747 
Q 3713 922 3314 415 
Q 2916 -91 2278 -91 
Q 1894 -91 1617 61 
Q 1341 213 1159 525 
z
M 3116 1747 
Q 3116 2381 2855 2742 
Q 2594 3103 2138 3103 
Q 1681 3103 1420 2742 
Q 1159 2381 1159 1747 
Q 1159 1113 1420 752 
Q 1681 391 2138 391 
Q 2594 391 2855 752 
Q 3116 1113 3116 1747 
z
" id="DejaVuSans-70" transform="scale(0.015625)"/>
       <path d="M 603 3500 
L 1178 3500 
L 1178 0 
L 603 0 
L 603 3500 
z
M 603 4863 
L 1178 4863 
L 1178 4134 
L 603 4134 
L 603 4863 
z
" id="DejaVuSans-69" transform="scale(0.015625)"/>
       <path d="M 2834 3397 
L 2834 2853 
Q 2591 2978 2328 3040 
Q 2066 3103 1784 3103 
Q 1356 3103 1142 2972 
Q 928 2841 928 2578 
Q 928 2378 1081 2264 
Q 1234 2150 1697 2047 
L 1894 2003 
Q 2506 1872 2764 1633 
Q 3022 1394 3022 966 
Q 3022 478 2636 193 
Q 2250 -91 1575 -91 
Q 1294 -91 989 -36 
Q 684 19 347 128 
L 347 722 
Q 666 556 975 473 
Q 1284 391 1588 391 
Q 1994 391 2212 530 
Q 2431 669 2431 922 
Q 2431 1156 2273 1281 
Q 2116 1406 1581 1522 
L 1381 1569 
Q 847 1681 609 1914 
Q 372 2147 372 2553 
Q 372 3047 722 3315 
Q 1072 3584 1716 3584 
Q 2034 3584 2315 3537 
Q 2597 3491 2834 3397 
z
" id="DejaVuSans-73" transform="scale(0.015625)"/>
       <path d="M 1959 3097 
Q 1497 3097 1228 2736 
Q 959 2375 959 1747 
Q 959 1119 1226 758 
Q 1494 397 1959 397 
Q 2419 397 2687 759 
Q 2956 1122 2956 1747 
Q 2956 2369 2687 2733 
Q 2419 3097 1959 3097 
z
M 1959 3584 
Q 2709 3584 3137 3096 
Q 3566 2609 3566 1747 
Q 3566 888 3137 398 
Q 2709 -91 1959 -91 
Q 1206 -91 779 398 
Q 353 888 353 1747 
Q 353 2609 779 3096 
Q 1206 3584 1959 3584 
z
" id="DejaVuSans-6f" transform="scale(0.015625)"/>
       <path d="M 2906 2969 
L 2906 4863 
L 3481 4863 
L 3481 0 
L 2906 0 
L 2906 525 
Q 2725 213 2448 61 
Q 2172 -91 1784 -91 
Q 1150 -91 751 415 
Q 353 922 353 1747 
Q 353 2572 751 3078 
Q 1150 3584 1784 3584 
Q 2172 3584 2448 3432 
Q 2725 3281 2906 2969 
z
M 947 1747 
Q 947 1113 1208 752 
Q 1469 391 1925 391 
Q 2381 391 2643 752 
Q 2906 1113 2906 1747 
Q 2906 2381 2643 2742 
Q 2381 3103 1925 3103 
Q 1469 3103 1208 2742 
Q 947 2381 947 1747 
z
" id="DejaVuSans-64" transform="scale(0.015625)"/>
       <path d="M 3597 1894 
L 3597 1613 
L 953 1613 
Q 991 1019 1311 708 
Q 1631 397 2203 397 
Q 2534 397 2845 478 
Q 3156 559 3463 722 
L 3463 178 
Q 3153 47 2828 -22 
Q 2503 -91 2169 -91 
Q 1331 -91 842 396 
Q 353 884 353 1716 
Q 353 2575 817 3079 
Q 1281 3584 2069 3584 
Q 2775 3584 3186 3129 
Q 3597 2675 3597 1894 
z
M 3022 2063 
Q 3016 2534 2758 2815 
Q 2500 3097 2075 3097 
Q 1594 3097 1305 2825 
Q 1016 2553 972 2059 
L 3022 2063 
z
" id="DejaVuSans-65" transform="scale(0.015625)"/>
      </defs>
      <use xlink:href="#DejaVuSans-45"/>
      <use x="63.183594" xlink:href="#DejaVuSans-70"/>
      <use x="126.660156" xlink:href="#DejaVuSans-69"/>
      <use x="154.443359" xlink:href="#DejaVuSans-73"/>
      <use x="206.542969" xlink:href="#DejaVuSans-6f"/>
      <use x="267.724609" xlink:href="#DejaVuSans-64"/>
      <use x="331.201172" xlink:href="#DejaVuSans-65"/>
      <use x="392.724609" xlink:href="#DejaVuSans-73"/>
     </g>
    </g>
   </g>
   <g id="matplotlib.axis_2">
    <g id="ytick_1">
     <g id="line2d_13">
      <path clip-path="url(#pa7eb3953ca)" d="M 57.6 275.740486 
L 414.72 275.740486 
" style="fill:none;stroke:#b0b0b0;stroke-linecap:square;stroke-width:0.8;"/>
     </g>
     <g id="line2d_14">
      <defs>
       <path d="M 0 0 
L -3.5 0 
" id="me79404e6b8" style="stroke:#000000;stroke-width:0.8;"/>
      </defs>
      <g>
       <use style="stroke:#000000;stroke-width:0.8;" x="57.6" xlink:href="#me79404e6b8" y="275.740486"/>
      </g>
     </g>
     <g id="text_8">
      <!-- −1.2 -->
      <g transform="translate(26.317187 279.539704)scale(0.1 -0.1)">
       <defs>
        <path d="M 678 2272 
L 4684 2272 
L 4684 1741 
L 678 1741 
L 678 2272 
z
" id="DejaVuSans-2212" transform="scale(0.015625)"/>
        <path d="M 684 794 
L 1344 794 
L 1344 0 
L 684 0 
L 684 794 
z
" id="DejaVuSans-2e" transform="scale(0.015625)"/>
       </defs>
       <use xlink:href="#DejaVuSans-2212"/>
       <use x="83.789062" xlink:href="#DejaVuSans-31"/>
       <use x="147.412109" xlink:href="#DejaVuSans-2e"/>
       <use x="179.199219" xlink:href="#DejaVuSans-32"/>
      </g>
     </g>
    </g>
    <g id="ytick_2">
     <g id="line2d_15">
      <path clip-path="url(#pa7eb3953ca)" d="M 57.6 239.813408 
L 414.72 239.813408 
" style="fill:none;stroke:#b0b0b0;stroke-linecap:square;stroke-width:0.8;"/>
     </g>
     <g id="line2d_16">
      <g>
       <use style="stroke:#000000;stroke-width:0.8;" x="57.6" xlink:href="#me79404e6b8" y="239.813408"/>
      </g>
     </g>
     <g id="text_9">
      <!-- −1.0 -->
      <g transform="translate(26.317187 243.612626)scale(0.1 -0.1)">
       <use xlink:href="#DejaVuSans-2212"/>
       <use x="83.789062" xlink:href="#DejaVuSans-31"/>
       <use x="147.412109" xlink:href="#DejaVuSans-2e"/>
       <use x="179.199219" xlink:href="#DejaVuSans-30"/>
      </g>
     </g>
    </g>
    <g id="ytick_3">
     <g id="line2d_17">
      <path clip-path="url(#pa7eb3953ca)" d="M 57.6 203.88633 
L 414.72 203.88633 
" style="fill:none;stroke:#b0b0b0;stroke-linecap:square;stroke-width:0.8;"/>
     </g>
     <g id="line2d_18">
      <g>
       <use style="stroke:#000000;stroke-width:0.8;" x="57.6" xlink:href="#me79404e6b8" y="203.88633"/>
      </g>
     </g>
     <g id="text_10">
      <!-- −0.8 -->
      <g transform="translate(26.317187 207.685548)scale(0.1 -0.1)">
       <use xlink:href="#DejaVuSans-2212"/>
       <use x="83.789062" xlink:href="#DejaVuSans-30"/>
       <use x="147.412109" xlink:href="#DejaVuSans-2e"/>
       <use x="179.199219" xlink:href="#DejaVuSans-38"/>
      </g>
     </g>
    </g>
    <g id="ytick_4">
     <g id="line2d_19">
      <path clip-path="url(#pa7eb3953ca)" d="M 57.6 167.959252 
L 414.72 167.959252 
" style="fill:none;stroke:#b0b0b0;stroke-linecap:square;stroke-width:0.8;"/>
     </g>
     <g id="line2d_20">
      <g>
       <use style="stroke:#000000;stroke-width:0.8;" x="57.6" xlink:href="#me79404e6b8" y="167.959252"/>
      </g>
     </g>
     <g id="text_11">
      <!-- −0.6 -->
      <g transform="translate(26.317187 171.75847)scale(0.1 -0.1)">
       <use xlink:href="#DejaVuSans-2212"/>
       <use x="83.789062" xlink:href="#DejaVuSans-30"/>
       <use x="147.412109" xlink:href="#DejaVuSans-2e"/>
       <use x="179.199219" xlink:href="#DejaVuSans-36"/>
      </g>
     </g>
    </g>
    <g id="ytick_5">
     <g id="line2d_21">
      <path clip-path="url(#pa7eb3953ca)" d="M 57.6 132.032173 
L 414.72 132.032173 
" style="fill:none;stroke:#b0b0b0;stroke-linecap:square;stroke-width:0.8;"/>
     </g>
     <g id="line2d_22">
      <g>
       <use style="stroke:#000000;stroke-width:0.8;" x="57.6" xlink:href="#me79404e6b8" y="132.032173"/>
      </g>
     </g>
     <g id="text_12">
      <!-- −0.4 -->
      <g transform="translate(26.317187 135.831392)scale(0.1 -0.1)">
       <use xlink:href="#DejaVuSans-2212"/>
       <use x="83.789062" xlink:href="#DejaVuSans-30"/>
       <use x="147.412109" xlink:href="#DejaVuSans-2e"/>
       <use x="179.199219" xlink:href="#DejaVuSans-34"/>
      </g>
     </g>
    </g>
    <g id="ytick_6">
     <g id="line2d_23">
      <path clip-path="url(#pa7eb3953ca)" d="M 57.6 96.105095 
L 414.72 96.105095 
" style="fill:none;stroke:#b0b0b0;stroke-linecap:square;stroke-width:0.8;"/>
     </g>
     <g id="line2d_24">
      <g>
       <use style="stroke:#000000;stroke-width:0.8;" x="57.6" xlink:href="#me79404e6b8" y="96.105095"/>
      </g>
     </g>
     <g id="text_13">
      <!-- −0.2 -->
      <g transform="translate(26.317187 99.904314)scale(0.1 -0.1)">
       <use xlink:href="#DejaVuSans-2212"/>
       <use x="83.789062" xlink:href="#DejaVuSans-30"/>
       <use x="147.412109" xlink:href="#DejaVuSans-2e"/>
       <use x="179.199219" xlink:href="#DejaVuSans-32"/>
      </g>
     </g>
    </g>
    <g id="ytick_7">
     <g id="line2d_25">
      <path clip-path="url(#pa7eb3953ca)" d="M 57.6 60.178017 
L 414.72 60.178017 
" style="fill:none;stroke:#b0b0b0;stroke-linecap:square;stroke-width:0.8;"/>
     </g>
     <g id="line2d_26">
      <g>
       <use style="stroke:#000000;stroke-width:0.8;" x="57.6" xlink:href="#me79404e6b8" y="60.178017"/>
      </g>
     </g>
     <g id="text_14">
      <!-- 0.0 -->
      <g transform="translate(34.696875 63.977236)scale(0.1 -0.1)">
       <use xlink:href="#DejaVuSans-30"/>
       <use x="63.623047" xlink:href="#DejaVuSans-2e"/>
       <use x="95.410156" xlink:href="#DejaVuSans-30"/>
      </g>
     </g>
    </g>
    <g id="text_15">
     <!-- Cumulative Reward -->
     <g transform="translate(20.2375 223.275656)rotate(-90)scale(0.1 -0.1)">
      <defs>
       <path d="M 4122 4306 
L 4122 3641 
Q 3803 3938 3442 4084 
Q 3081 4231 2675 4231 
Q 1875 4231 1450 3742 
Q 1025 3253 1025 2328 
Q 1025 1406 1450 917 
Q 1875 428 2675 428 
Q 3081 428 3442 575 
Q 3803 722 4122 1019 
L 4122 359 
Q 3791 134 3420 21 
Q 3050 -91 2638 -91 
Q 1578 -91 968 557 
Q 359 1206 359 2328 
Q 359 3453 968 4101 
Q 1578 4750 2638 4750 
Q 3056 4750 3426 4639 
Q 3797 4528 4122 4306 
z
" id="DejaVuSans-43" transform="scale(0.015625)"/>
       <path d="M 544 1381 
L 544 3500 
L 1119 3500 
L 1119 1403 
Q 1119 906 1312 657 
Q 1506 409 1894 409 
Q 2359 409 2629 706 
Q 2900 1003 2900 1516 
L 2900 3500 
L 3475 3500 
L 3475 0 
L 2900 0 
L 2900 538 
Q 2691 219 2414 64 
Q 2138 -91 1772 -91 
Q 1169 -91 856 284 
Q 544 659 544 1381 
z
M 1991 3584 
L 1991 3584 
z
" id="DejaVuSans-75" transform="scale(0.015625)"/>
       <path d="M 3328 2828 
Q 3544 3216 3844 3400 
Q 4144 3584 4550 3584 
Q 5097 3584 5394 3201 
Q 5691 2819 5691 2113 
L 5691 0 
L 5113 0 
L 5113 2094 
Q 5113 2597 4934 2840 
Q 4756 3084 4391 3084 
Q 3944 3084 3684 2787 
Q 3425 2491 3425 1978 
L 3425 0 
L 2847 0 
L 2847 2094 
Q 2847 2600 2669 2842 
Q 2491 3084 2119 3084 
Q 1678 3084 1418 2786 
Q 1159 2488 1159 1978 
L 1159 0 
L 581 0 
L 581 3500 
L 1159 3500 
L 1159 2956 
Q 1356 3278 1631 3431 
Q 1906 3584 2284 3584 
Q 2666 3584 2933 3390 
Q 3200 3197 3328 2828 
z
" id="DejaVuSans-6d" transform="scale(0.015625)"/>
       <path d="M 603 4863 
L 1178 4863 
L 1178 0 
L 603 0 
L 603 4863 
z
" id="DejaVuSans-6c" transform="scale(0.015625)"/>
       <path d="M 2194 1759 
Q 1497 1759 1228 1600 
Q 959 1441 959 1056 
Q 959 750 1161 570 
Q 1363 391 1709 391 
Q 2188 391 2477 730 
Q 2766 1069 2766 1631 
L 2766 1759 
L 2194 1759 
z
M 3341 1997 
L 3341 0 
L 2766 0 
L 2766 531 
Q 2569 213 2275 61 
Q 1981 -91 1556 -91 
Q 1019 -91 701 211 
Q 384 513 384 1019 
Q 384 1609 779 1909 
Q 1175 2209 1959 2209 
L 2766 2209 
L 2766 2266 
Q 2766 2663 2505 2880 
Q 2244 3097 1772 3097 
Q 1472 3097 1187 3025 
Q 903 2953 641 2809 
L 641 3341 
Q 956 3463 1253 3523 
Q 1550 3584 1831 3584 
Q 2591 3584 2966 3190 
Q 3341 2797 3341 1997 
z
" id="DejaVuSans-61" transform="scale(0.015625)"/>
       <path d="M 1172 4494 
L 1172 3500 
L 2356 3500 
L 2356 3053 
L 1172 3053 
L 1172 1153 
Q 1172 725 1289 603 
Q 1406 481 1766 481 
L 2356 481 
L 2356 0 
L 1766 0 
Q 1100 0 847 248 
Q 594 497 594 1153 
L 594 3053 
L 172 3053 
L 172 3500 
L 594 3500 
L 594 4494 
L 1172 4494 
z
" id="DejaVuSans-74" transform="scale(0.015625)"/>
       <path d="M 191 3500 
L 800 3500 
L 1894 563 
L 2988 3500 
L 3597 3500 
L 2284 0 
L 1503 0 
L 191 3500 
z
" id="DejaVuSans-76" transform="scale(0.015625)"/>
       <path id="DejaVuSans-20" transform="scale(0.015625)"/>
       <path d="M 2841 2188 
Q 3044 2119 3236 1894 
Q 3428 1669 3622 1275 
L 4263 0 
L 3584 0 
L 2988 1197 
Q 2756 1666 2539 1819 
Q 2322 1972 1947 1972 
L 1259 1972 
L 1259 0 
L 628 0 
L 628 4666 
L 2053 4666 
Q 2853 4666 3247 4331 
Q 3641 3997 3641 3322 
Q 3641 2881 3436 2590 
Q 3231 2300 2841 2188 
z
M 1259 4147 
L 1259 2491 
L 2053 2491 
Q 2509 2491 2742 2702 
Q 2975 2913 2975 3322 
Q 2975 3731 2742 3939 
Q 2509 4147 2053 4147 
L 1259 4147 
z
" id="DejaVuSans-52" transform="scale(0.015625)"/>
       <path d="M 269 3500 
L 844 3500 
L 1563 769 
L 2278 3500 
L 2956 3500 
L 3675 769 
L 4391 3500 
L 4966 3500 
L 4050 0 
L 3372 0 
L 2619 2869 
L 1863 0 
L 1184 0 
L 269 3500 
z
" id="DejaVuSans-77" transform="scale(0.015625)"/>
       <path d="M 2631 2963 
Q 2534 3019 2420 3045 
Q 2306 3072 2169 3072 
Q 1681 3072 1420 2755 
Q 1159 2438 1159 1844 
L 1159 0 
L 581 0 
L 581 3500 
L 1159 3500 
L 1159 2956 
Q 1341 3275 1631 3429 
Q 1922 3584 2338 3584 
Q 2397 3584 2469 3576 
Q 2541 3569 2628 3553 
L 2631 2963 
z
" id="DejaVuSans-72" transform="scale(0.015625)"/>
      </defs>
      <use xlink:href="#DejaVuSans-43"/>
      <use x="69.824219" xlink:href="#DejaVuSans-75"/>
      <use x="133.203125" xlink:href="#DejaVuSans-6d"/>
      <use x="230.615234" xlink:href="#DejaVuSans-75"/>
      <use x="293.994141" xlink:href="#DejaVuSans-6c"/>
      <use x="321.777344" xlink:href="#DejaVuSans-61"/>
      <use x="383.056641" xlink:href="#DejaVuSans-74"/>
      <use x="422.265625" xlink:href="#DejaVuSans-69"/>
      <use x="450.048828" xlink:href="#DejaVuSans-76"/>
      <use x="509.228516" xlink:href="#DejaVuSans-65"/>
      <use x="570.751953" xlink:href="#DejaVuSans-20"/>
      <use x="602.539062" xlink:href="#DejaVuSans-52"/>
      <use x="667.521484" xlink:href="#DejaVuSans-65"/>
      <use x="729.044922" xlink:href="#DejaVuSans-77"/>
      <use x="810.832031" xlink:href="#DejaVuSans-61"/>
      <use x="872.111328" xlink:href="#DejaVuSans-72"/>
      <use x="911.474609" xlink:href="#DejaVuSans-64"/>
     </g>
    </g>
    <g id="text_16">
     <!-- 1e6 -->
     <g transform="translate(57.6 38.472)scale(0.1 -0.1)">
      <use xlink:href="#DejaVuSans-31"/>
      <use x="63.623047" xlink:href="#DejaVuSans-65"/>
      <use x="125.146484" xlink:href="#DejaVuSans-36"/>
     </g>
    </g>
   </g>
   <g id="line2d_27">
    <path clip-path="url(#pa7eb3953ca)" d="M 57.6 63.648 
L 57.95712 100.019579 
L 58.31424 65.258977 
L 58.67136 110.177264 
L 59.02848 63.648 
L 59.3856 100.019579 
L 59.74272 65.258977 
L 60.09984 110.177264 
L 60.45696 63.648 
L 60.81408 100.019579 
L 61.1712 65.258977 
L 61.52832 110.177264 
L 61.88544 63.648 
L 62.24256 100.019579 
L 62.59968 65.258977 
L 62.9568 110.177264 
L 63.31392 63.648 
L 63.67104 100.019579 
L 64.02816 65.258977 
L 64.38528 110.177264 
L 64.7424 63.648 
L 65.09952 100.019579 
L 65.45664 65.258977 
L 65.81376 110.177264 
L 66.17088 63.648 
L 66.528 100.019579 
L 66.88512 65.258977 
L 67.24224 110.177264 
L 67.59936 63.648 
L 67.95648 100.019579 
L 68.3136 65.258977 
L 68.67072 110.177264 
L 69.02784 63.648 
L 69.38496 100.019579 
L 69.74208 65.258977 
L 70.0992 110.177264 
L 70.45632 63.648 
L 70.81344 100.019579 
L 71.17056 65.258977 
L 71.52768 110.177264 
L 71.8848 63.648 
L 72.24192 100.019579 
L 72.59904 65.258977 
L 72.95616 110.177264 
L 73.31328 63.648 
L 73.6704 100.019579 
L 74.02752 65.258977 
L 74.38464 110.177264 
L 74.74176 63.648 
L 75.09888 100.019579 
L 75.456 65.258977 
L 75.81312 110.177264 
L 76.17024 63.648 
L 76.52736 100.019579 
L 76.88448 65.258977 
L 77.2416 110.177264 
L 77.59872 63.648 
L 77.95584 100.019579 
L 78.31296 65.258977 
L 78.67008 110.177264 
L 79.0272 63.648 
L 79.38432 100.019579 
L 79.74144 65.258977 
L 80.09856 110.177264 
L 80.45568 63.648 
L 80.8128 100.019579 
L 81.16992 65.258977 
L 81.52704 110.177264 
L 81.88416 63.648 
L 82.24128 100.019579 
L 82.5984 65.258977 
L 82.95552 110.177264 
L 83.31264 63.648 
L 83.66976 100.019579 
L 84.02688 65.258977 
L 84.384 110.177264 
L 84.74112 63.648 
L 85.09824 100.019579 
L 85.45536 65.258977 
L 85.81248 110.177264 
L 86.1696 63.648 
L 86.52672 100.019579 
L 86.88384 65.258977 
L 87.24096 110.177264 
L 87.59808 63.648 
L 87.9552 100.019579 
L 88.31232 65.258977 
L 88.66944 110.177264 
L 89.02656 63.648 
L 89.38368 100.019579 
L 89.7408 65.258977 
L 90.09792 110.177264 
L 90.45504 63.648 
L 90.81216 100.019579 
L 91.16928 65.258977 
L 91.5264 110.177264 
L 91.88352 63.648 
L 92.24064 100.019579 
L 92.59776 65.258977 
L 92.95488 110.177264 
L 93.312 126.525837 
L 93.66912 81.327207 
L 94.02624 132.960101 
L 94.38336 78.596862 
L 94.74048 76.361262 
L 95.0976 93.630853 
L 95.45472 84.205765 
L 95.81184 99.106232 
L 96.16896 119.939365 
L 96.52608 81.399793 
L 96.8832 97.621863 
L 97.24032 86.290236 
L 97.59744 221.215243 
L 97.95456 129.829604 
L 98.31168 209.161353 
L 98.6688 107.359204 
L 99.02592 119.707744 
L 99.38304 103.505022 
L 99.74016 154.079755 
L 100.09728 116.732072 
L 100.4544 113.860659 
L 100.81152 107.963405 
L 101.16864 153.727768 
L 101.52576 122.534648 
L 101.88288 132.015269 
L 102.24 153.958602 
L 102.59712 138.779249 
L 102.95424 169.740206 
L 103.31136 87.392683 
L 103.66848 97.365852 
L 104.0256 98.417464 
L 104.38272 96.044108 
L 104.73984 89.142315 
L 105.09696 113.840615 
L 105.45408 88.240498 
L 105.8112 115.792572 
L 106.16832 99.072043 
L 106.52544 98.235127 
L 106.88256 71.521265 
L 107.23968 92.310686 
L 107.5968 223.510577 
L 107.95392 73.281514 
L 108.31104 223.892284 
L 108.66816 72.915659 
L 109.02528 142.247786 
L 109.3824 102.439316 
L 109.73952 113.462614 
L 110.09664 104.02268 
L 110.45376 137.861715 
L 110.81088 115.111 
L 111.168 83.475591 
L 111.52512 191.100046 
L 111.88224 122.494181 
L 112.23936 127.734757 
L 112.59648 104.229377 
L 112.9536 139.446435 
L 113.31072 100.973705 
L 113.66784 117.511306 
L 114.02496 83.615245 
L 114.38208 113.38036 
L 114.7392 130.956446 
L 115.09632 122.297484 
L 115.45344 96.135309 
L 115.81056 93.00503 
L 116.16768 85.120492 
L 116.5248 132.409715 
L 116.88192 83.410504 
L 117.23904 116.936772 
L 117.59616 101.113511 
L 117.95328 98.165922 
L 118.3104 85.589417 
L 118.66752 103.967978 
L 119.02464 133.477763 
L 119.38176 92.790068 
L 119.73888 127.731353 
L 120.096 87.795295 
L 120.45312 106.957663 
L 120.81024 111.538093 
L 121.16736 142.362385 
L 121.52448 104.045788 
L 121.8816 87.238443 
L 122.23872 79.874157 
L 122.59584 97.469161 
L 122.95296 78.568889 
L 123.31008 236.239525 
L 123.6672 93.015911 
L 124.02432 216.049046 
L 124.38144 81.213692 
L 124.73856 151.930649 
L 125.09568 72.687095 
L 125.4528 110.14256 
L 125.80992 94.319593 
L 126.16704 113.710653 
L 126.52416 68.761723 
L 126.88128 137.322227 
L 127.2384 73.455486 
L 127.59552 116.00809 
L 127.95264 109.14088 
L 128.30976 107.966917 
L 128.66688 184.071196 
L 129.024 160.096552 
L 129.38112 75.386178 
L 129.73824 158.623038 
L 130.09536 89.365279 
L 130.45248 145.103115 
L 130.8096 98.207245 
L 131.16672 130.797012 
L 131.52384 97.506594 
L 131.88096 175.464923 
L 132.23808 114.458293 
L 132.5952 243.619935 
L 132.95232 101.959817 
L 133.30944 122.798473 
L 133.66656 115.71754 
L 134.02368 128.572562 
L 134.3808 114.098818 
L 134.73792 200.355659 
L 135.09504 114.732164 
L 135.45216 171.207196 
L 135.80928 91.703373 
L 136.1664 84.70537 
L 136.52352 121.83654 
L 136.88064 90.460596 
L 137.23776 122.892776 
L 137.952 88.13808 
L 138.30912 89.843908 
L 138.66624 86.488917 
L 139.02336 96.180574 
L 139.38048 125.155117 
L 139.7376 127.010116 
L 140.09472 93.096771 
L 140.45184 137.535852 
L 140.80896 119.769904 
L 141.16608 156.208847 
L 141.5232 98.465821 
L 141.88032 101.602637 
L 142.23744 65.078534 
L 142.59456 101.20724 
L 142.95168 66.951942 
L 143.3088 131.958485 
L 143.66592 84.73475 
L 144.02304 147.598977 
L 144.38016 83.114991 
L 144.73728 171.254241 
L 145.0944 124.880121 
L 145.45152 167.324189 
L 146.16576 102.708465 
L 146.52288 90.360596 
L 146.88 124.326515 
L 147.23712 74.007488 
L 147.59424 126.419726 
L 148.30848 85.158092 
L 148.6656 125.08583 
L 149.02272 111.418684 
L 149.37984 110.36887 
L 149.73696 86.83111 
L 150.09408 84.632463 
L 150.4512 130.196149 
L 150.80832 73.765101 
L 151.16544 173.649748 
L 151.52256 92.39076 
L 151.87968 126.511443 
L 152.2368 175.013044 
L 152.59392 103.424386 
L 152.95104 154.227991 
L 153.30816 97.418035 
L 154.0224 92.452467 
L 154.37952 116.75693 
L 154.73664 180.508258 
L 155.09376 131.57631 
L 155.808 105.85822 
L 156.16512 126.024906 
L 156.52224 115.704173 
L 156.87936 137.034584 
L 157.23648 127.658513 
L 157.5936 105.629106 
L 157.95072 111.560676 
L 158.30784 131.019798 
L 158.66496 121.075013 
L 159.02208 158.679763 
L 159.3792 134.753165 
L 159.73632 183.074968 
L 160.09344 197.432813 
L 160.45056 94.503545 
L 160.80768 202.339513 
L 161.1648 124.137295 
L 161.52192 131.952053 
L 161.87904 96.923046 
L 162.23616 161.810782 
L 162.59328 74.31538 
L 162.9504 145.466738 
L 163.30752 123.591323 
L 163.66464 115.768032 
L 164.02176 195.888145 
L 164.37888 96.277487 
L 164.736 96.493433 
L 165.09312 77.569419 
L 165.45024 90.242692 
L 165.80736 81.207941 
L 166.16448 156.347649 
L 166.5216 71.362716 
L 166.87872 142.038745 
L 167.23584 78.350479 
L 167.59296 154.219564 
L 167.95008 94.647583 
L 168.3072 126.975064 
L 168.66432 122.283405 
L 169.02144 125.803925 
L 169.37856 76.647542 
L 169.73568 103.718078 
L 170.0928 82.622621 
L 170.44992 143.412868 
L 170.80704 119.921573 
L 171.16416 168.359455 
L 171.52128 128.027209 
L 171.8784 131.64872 
L 172.23552 109.143996 
L 172.59264 104.601648 
L 173.30688 84.586107 
L 173.664 82.350936 
L 174.02112 88.870423 
L 174.37824 86.427093 
L 174.73536 156.734687 
L 175.09248 141.447183 
L 175.4496 143.637133 
L 175.80672 143.244269 
L 176.16384 94.562909 
L 176.52096 109.042018 
L 176.87808 140.166329 
L 177.2352 93.771192 
L 177.59232 148.840095 
L 177.94944 107.29677 
L 178.30656 112.949766 
L 178.66368 143.608954 
L 179.0208 112.431269 
L 179.37792 93.987152 
L 179.73504 154.249007 
L 180.09216 94.533046 
L 180.44928 73.093848 
L 180.8064 82.238072 
L 181.16352 68.667767 
L 181.87776 84.355544 
L 182.23488 116.589474 
L 182.592 86.851831 
L 182.94912 115.112604 
L 183.30624 89.623064 
L 183.66336 80.178989 
L 184.02048 88.520554 
L 184.3776 77.83416 
L 184.73472 129.223832 
L 185.09184 128.365994 
L 185.44896 148.842665 
L 185.80608 110.669854 
L 186.1632 106.329049 
L 186.52032 115.215735 
L 186.87744 93.113383 
L 187.59168 164.128717 
L 187.9488 111.110636 
L 188.30592 156.696588 
L 188.66304 92.113373 
L 189.02016 115.153903 
L 189.37728 126.170133 
L 189.7344 161.10441 
L 190.09152 88.414296 
L 190.44864 275.099411 
L 190.80576 173.124808 
L 191.16288 229.936575 
L 191.87712 151.05054 
L 192.23424 127.295563 
L 192.59136 190.0428 
L 192.94848 118.537443 
L 193.3056 112.214072 
L 193.66272 73.993499 
L 194.01984 131.043772 
L 194.37696 70.653145 
L 194.73408 146.354224 
L 195.0912 85.406482 
L 195.44832 155.736611 
L 195.80544 116.109062 
L 196.16256 162.127048 
L 196.51968 133.270826 
L 196.8768 148.250138 
L 197.23392 149.857866 
L 197.59104 166.466245 
L 197.94816 119.096089 
L 198.30528 133.645401 
L 198.6624 109.70755 
L 199.01952 103.200746 
L 199.37664 201.482268 
L 199.73376 135.807961 
L 200.09088 165.512162 
L 200.448 94.846067 
L 200.80512 96.798485 
L 201.16224 87.894268 
L 201.51936 102.023457 
L 201.87648 89.452861 
L 202.2336 90.390893 
L 202.59072 96.840553 
L 202.94784 92.124341 
L 203.30496 130.29647 
L 203.66208 101.503481 
L 204.0192 123.088251 
L 204.37632 117.13705 
L 204.73344 68.445323 
L 205.09056 80.205763 
L 205.44768 65.95266 
L 205.8048 85.145407 
L 206.16192 163.869282 
L 206.51904 273.879046 
L 206.87616 97.489803 
L 207.23328 248.793842 
L 207.5904 93.709387 
L 207.94752 167.305474 
L 208.30464 114.857698 
L 208.66176 176.161987 
L 209.01888 107.82845 
L 209.376 96.604277 
L 209.73312 109.490935 
L 210.09024 92.356773 
L 210.44736 155.645004 
L 210.80448 174.08122 
L 211.1616 124.164326 
L 211.51872 187.729613 
L 211.87584 87.516457 
L 212.23296 89.591503 
L 212.59008 100.300749 
L 212.9472 100.791339 
L 213.30432 118.566814 
L 213.66144 157.624805 
L 214.01856 88.363939 
L 214.37568 175.794377 
L 214.7328 85.632045 
L 215.08992 144.330436 
L 215.44704 86.388653 
L 215.80416 105.500636 
L 216.16128 85.127946 
L 216.5184 165.583639 
L 216.87552 72.844573 
L 217.58976 157.949059 
L 217.94688 135.764527 
L 218.304 127.253447 
L 218.66112 149.337344 
L 219.01824 130.133352 
L 219.37536 129.458911 
L 219.73248 114.345589 
L 220.0896 123.943312 
L 220.44672 110.169279 
L 220.80384 91.792285 
L 221.16096 128.168101 
L 221.51808 97.426158 
L 221.8752 80.647761 
L 222.23232 200.163723 
L 222.58944 67.428078 
L 222.94656 133.005173 
L 223.30368 162.138136 
L 223.6608 151.808458 
L 224.01792 134.181893 
L 224.37504 108.104088 
L 224.73216 70.078846 
L 225.08928 71.266523 
L 225.4464 71.723532 
L 225.80352 71.277087 
L 226.16064 151.935074 
L 226.51776 102.512649 
L 226.87488 146.691629 
L 227.232 93.465319 
L 227.58912 83.26041 
L 227.94624 64.53553 
L 228.30336 80.971136 
L 228.66048 64.028402 
L 229.37472 132.516996 
L 229.73184 96.087017 
L 230.08896 125.928811 
L 230.44608 80.305604 
L 230.8032 79.458524 
L 231.16032 109.028215 
L 231.51744 80.465354 
L 231.87456 195.108145 
L 232.23168 76.693504 
L 232.5888 192.867725 
L 232.94592 85.665842 
L 233.30304 101.894474 
L 233.66016 111.92759 
L 234.01728 94.208702 
L 234.3744 128.242057 
L 234.73152 103.699179 
L 235.08864 113.895504 
L 235.44576 113.70567 
L 236.16 84.64017 
L 236.51712 143.062013 
L 236.87424 75.640465 
L 237.58848 154.44534 
L 237.9456 75.675046 
L 238.30272 125.024783 
L 238.65984 73.919674 
L 239.01696 115.430811 
L 239.37408 121.700831 
L 239.7312 109.607579 
L 240.08832 105.718294 
L 240.44544 92.404988 
L 240.80256 105.095143 
L 241.15968 79.263436 
L 241.5168 102.030727 
L 241.87392 69.586145 
L 242.23104 105.282875 
L 242.58816 66.359744 
L 242.94528 99.167785 
L 243.3024 207.735531 
L 243.65952 215.805521 
L 244.01664 244.631294 
L 244.37376 178.962875 
L 244.73088 136.256619 
L 245.088 72.882827 
L 245.44512 142.484065 
L 245.80224 71.842958 
L 246.15936 94.971531 
L 246.51648 126.760185 
L 246.8736 82.384593 
L 247.23072 128.838221 
L 247.58784 118.225854 
L 247.94496 155.008691 
L 248.30208 133.174897 
L 248.6592 149.107373 
L 249.01632 85.067559 
L 249.37344 142.617396 
L 249.73056 108.273524 
L 250.08768 121.734138 
L 250.4448 86.502286 
L 250.80192 188.759275 
L 251.15904 107.100872 
L 251.51616 169.644956 
L 251.87328 105.870906 
L 252.2304 86.377932 
L 252.58752 118.61783 
L 252.94464 91.519194 
L 253.30176 162.925911 
L 253.65888 73.267237 
L 254.016 192.870428 
L 254.37312 72.248467 
L 254.73024 154.24256 
L 255.08736 98.947433 
L 255.44448 139.352782 
L 255.8016 92.282422 
L 256.51584 119.596648 
L 256.87296 192.469232 
L 257.23008 115.894369 
L 257.5872 94.22055 
L 257.94432 189.445626 
L 258.30144 133.215497 
L 258.65856 178.064457 
L 259.01568 123.218156 
L 259.3728 161.092794 
L 259.72992 106.238759 
L 260.08704 138.25964 
L 260.44416 112.361415 
L 260.80128 141.540853 
L 261.1584 76.32594 
L 261.51552 128.988198 
L 261.87264 154.202838 
L 262.22976 140.998312 
L 262.58688 149.692263 
L 262.944 133.369315 
L 263.30112 135.193949 
L 263.65824 65.83084 
L 264.01536 129.532542 
L 264.37248 63.844313 
L 264.7296 279.845102 
L 265.08672 222.002122 
L 265.44384 241.855419 
L 265.80096 162.765975 
L 266.15808 129.604594 
L 266.5152 176.790882 
L 266.87232 135.41686 
L 267.22944 225.684106 
L 267.58656 114.766026 
L 267.94368 86.428127 
L 268.3008 112.279342 
L 268.65792 80.378925 
L 269.01504 100.078619 
L 269.37216 159.109828 
L 269.72928 82.927118 
L 270.0864 188.980607 
L 270.44352 204.45302 
L 270.80064 66.334936 
L 271.15776 130.241366 
L 271.51488 73.713138 
L 271.872 109.208099 
L 272.22912 129.394619 
L 272.58624 118.369579 
L 272.94336 139.257987 
L 273.30048 72.503738 
L 273.6576 106.203081 
L 274.01472 79.62284 
L 274.37184 118.146863 
L 274.72896 207.628687 
L 275.08608 75.556853 
L 275.4432 143.733487 
L 275.80032 77.84042 
L 276.15744 182.566312 
L 276.51456 116.653523 
L 276.87168 198.331451 
L 277.2288 87.200417 
L 277.58592 131.544765 
L 277.94304 132.395724 
L 278.30016 106.847501 
L 278.65728 190.494313 
L 279.0144 155.355341 
L 279.37152 195.921899 
L 279.72864 148.646345 
L 280.08576 159.04076 
L 280.44288 184.926624 
L 280.8 93.026809 
L 281.15712 134.590019 
L 281.51424 107.713287 
L 281.87136 278.932578 
L 282.22848 94.785517 
L 282.5856 279.762853 
L 282.94272 94.335504 
L 283.29984 141.61289 
L 283.65696 139.563865 
L 284.01408 177.102485 
L 284.3712 121.678969 
L 284.72832 105.379526 
L 285.08544 80.927563 
L 285.44256 118.536504 
L 285.79968 80.295594 
L 286.1568 114.029324 
L 286.51392 201.90898 
L 286.87104 134.327298 
L 287.22816 171.937266 
L 287.58528 84.752992 
L 287.9424 83.54807 
L 288.29952 94.42116 
L 288.65664 96.072213 
L 289.01376 96.455144 
L 289.37088 119.626398 
L 289.728 99.532649 
L 290.08512 123.479743 
L 290.44224 93.308799 
L 290.79936 155.453744 
L 291.15648 119.465762 
L 291.5136 169.808328 
L 291.87072 112.59846 
L 292.22784 118.528748 
L 292.58496 91.630567 
L 292.94208 119.582003 
L 293.2992 163.051789 
L 293.65632 122.181779 
L 294.01344 96.338209 
L 294.37056 98.629595 
L 294.72768 76.573807 
L 295.0848 95.659016 
L 295.44192 77.113177 
L 295.79904 98.767253 
L 296.15616 127.527068 
L 296.51328 185.14237 
L 296.8704 186.419706 
L 297.58464 79.472199 
L 297.94176 98.843026 
L 298.29888 78.485546 
L 298.656 103.669016 
L 299.01312 120.557444 
L 299.37024 156.750819 
L 299.72736 150.474903 
L 300.08448 97.722848 
L 300.4416 115.731618 
L 300.79872 109.352035 
L 301.15584 105.627287 
L 301.87008 79.957936 
L 302.2272 138.702627 
L 302.58432 91.173994 
L 302.94144 131.170002 
L 303.29856 137.760331 
L 303.65568 98.170828 
L 304.0128 98.601573 
L 304.72704 82.396988 
L 305.08416 117.070225 
L 305.44128 86.480807 
L 305.7984 142.567506 
L 306.15552 92.400936 
L 306.51264 102.406992 
L 306.86976 81.620999 
L 307.22688 151.763819 
L 307.584 98.516271 
L 307.94112 132.58629 
L 308.29824 99.827834 
L 308.65536 98.680001 
L 309.01248 146.196641 
L 309.3696 110.954132 
L 309.72672 143.384251 
L 310.08384 102.76244 
L 310.44096 89.819778 
L 310.79808 91.421668 
L 311.1552 115.299488 
L 311.51232 92.684993 
L 311.86944 116.163156 
L 312.22656 112.4607 
L 312.58368 143.797334 
L 312.9408 99.462097 
L 313.29792 128.176054 
L 313.65504 125.283381 
L 314.01216 127.395947 
L 314.36928 126.892856 
L 314.7264 135.624713 
L 315.08352 90.601975 
L 315.44064 130.104361 
L 315.79776 92.453886 
L 316.15488 200.834877 
L 316.512 156.591891 
L 316.86912 181.908008 
L 317.22624 113.72275 
L 317.58336 194.209733 
L 317.94048 153.246124 
L 318.2976 234.929095 
L 318.65472 129.770498 
L 319.01184 207.307945 
L 319.36896 111.104608 
L 319.72608 129.377157 
L 320.44032 87.626756 
L 320.79744 229.635233 
L 321.15456 84.496963 
L 321.51168 174.330285 
L 322.22592 131.624499 
L 322.58304 190.660908 
L 322.94016 122.672505 
L 323.29728 104.771842 
L 323.6544 132.980999 
L 324.01152 96.25163 
L 324.36864 137.833307 
L 324.72576 75.198406 
L 325.08288 129.965408 
L 325.44 77.016507 
L 325.79712 120.874984 
L 326.15424 144.621952 
L 326.51136 104.176537 
L 326.86848 116.915625 
L 327.2256 118.860403 
L 327.58272 113.600227 
L 327.93984 178.476784 
L 328.29696 112.460359 
L 328.65408 209.258849 
L 329.0112 83.999408 
L 329.36832 72.822191 
L 329.72544 83.33651 
L 330.08256 84.503908 
L 330.7968 72.801615 
L 331.15392 83.439782 
L 331.51104 77.446486 
L 331.86816 141.993907 
L 332.22528 136.516218 
L 332.5824 152.753794 
L 332.93952 96.530068 
L 333.29664 100.104702 
L 333.65376 219.666182 
L 334.01088 90.409322 
L 334.368 231.539179 
L 334.72512 92.609777 
L 335.08224 86.681099 
L 335.43936 111.751512 
L 335.79648 87.997984 
L 336.1536 89.384631 
L 336.86784 76.75671 
L 337.58208 124.635174 
L 337.9392 90.89482 
L 338.29632 135.815053 
L 338.65344 126.566046 
L 339.01056 167.867964 
L 339.36768 89.501075 
L 339.7248 162.963666 
L 340.08192 86.478832 
L 340.43904 116.86119 
L 340.79616 128.772771 
L 341.15328 168.457129 
L 341.5104 155.245443 
L 341.86752 112.406587 
L 342.22464 130.008792 
L 342.58176 96.803403 
L 342.93888 138.313731 
L 343.296 159.074989 
L 343.65312 87.076651 
L 344.01024 133.895408 
L 344.36736 96.449762 
L 344.72448 193.428361 
L 345.0816 112.872193 
L 345.43872 134.947523 
L 345.79584 141.350768 
L 346.15296 100.772351 
L 346.51008 88.556642 
L 346.8672 100.966464 
L 347.22432 101.173977 
L 347.58144 95.025292 
L 347.93856 161.252059 
L 348.29568 166.283127 
L 348.6528 120.162445 
L 349.00992 225.183456 
L 349.36704 90.804838 
L 349.72416 180.218891 
L 350.08128 103.615872 
L 350.4384 86.230194 
L 350.79552 116.759596 
L 351.15264 87.168825 
L 351.50976 147.675911 
L 351.86688 92.793774 
L 352.224 70.514604 
L 352.58112 95.751842 
L 352.93824 66.501649 
L 353.29536 97.853471 
L 353.65248 86.892786 
L 354.0096 92.363289 
L 354.36672 105.574507 
L 354.72384 147.480823 
L 355.08096 106.641861 
L 355.43808 145.351267 
L 355.7952 102.528173 
L 356.15232 127.122328 
L 356.50944 106.801925 
L 356.86656 117.652668 
L 357.22368 99.555993 
L 357.5808 113.045879 
L 357.93792 96.673704 
L 358.29504 127.294115 
L 358.65216 81.732844 
L 359.00928 72.958653 
L 359.3664 118.047582 
L 359.72352 83.470952 
L 360.08064 105.454543 
L 360.43776 89.2408 
L 360.79488 147.318556 
L 361.152 88.02901 
L 361.50912 134.991046 
L 362.22336 89.877868 
L 362.58048 108.201893 
L 362.9376 82.241342 
L 363.29472 88.418093 
L 363.65184 92.21235 
L 364.00896 101.690307 
L 364.36608 84.01505 
L 364.7232 139.119128 
L 365.08032 70.06985 
L 365.43744 143.173213 
L 365.79456 71.142284 
L 366.5088 96.576268 
L 366.86592 79.83344 
L 367.22304 84.07663 
L 367.58016 80.79456 
L 367.93728 95.861006 
L 368.2944 72.185201 
L 368.65152 99.682862 
L 369.00864 149.989294 
L 369.36576 79.869501 
L 369.72288 154.120149 
L 370.08 80.591999 
L 370.43712 128.655765 
L 370.79424 76.282767 
L 371.15136 105.329179 
L 371.50848 75.045675 
L 371.8656 78.397578 
L 372.22272 151.307815 
L 372.57984 89.686746 
L 372.93696 166.553764 
L 373.29408 73.648751 
L 373.6512 113.078362 
L 374.00832 75.925661 
L 374.36544 111.00113 
L 374.72256 184.56353 
L 375.07968 70.827269 
L 375.4368 187.821823 
L 375.79392 74.784596 
L 376.15104 81.550695 
L 376.50816 158.311093 
L 376.86528 89.712916 
L 377.2224 160.693156 
L 377.93664 71.214479 
L 378.29376 135.031559 
L 378.65088 73.038945 
L 379.008 107.739716 
L 379.72224 136.456234 
L 380.07936 113.375082 
L 380.43648 131.638869 
L 380.7936 118.688754 
L 381.15072 140.269702 
L 381.50784 109.411889 
L 381.86496 91.63386 
L 382.22208 188.157736 
L 382.5792 92.697405 
L 382.93632 215.323309 
L 383.29344 168.58844 
L 383.65056 106.096454 
L 384.00768 179.360888 
L 384.3648 94.142477 
L 384.72192 94.896775 
L 385.07904 80.521798 
L 385.43616 85.911126 
L 385.79328 96.262909 
L 386.1504 116.365559 
L 386.50752 107.731981 
L 386.86464 130.447572 
L 387.22176 119.670695 
L 387.57888 116.899961 
L 387.936 85.502397 
L 388.29312 101.043067 
L 388.65024 109.682429 
L 389.00736 149.09232 
L 389.36448 208.855069 
L 389.7216 119.083764 
L 390.07872 245.201459 
L 390.43584 113.820844 
L 390.79296 102.849245 
L 391.15008 157.54284 
L 391.86432 82.168933 
L 392.22144 131.231001 
L 392.57856 84.935098 
L 392.93568 109.229501 
L 393.2928 109.392068 
L 393.64992 89.37535 
L 394.00704 103.059163 
L 394.36416 108.215457 
L 394.72128 120.41349 
L 395.0784 127.845474 
L 395.43552 129.584856 
L 395.79264 108.279343 
L 396.14976 201.565939 
L 396.50688 86.324502 
L 396.864 138.765246 
L 397.22112 87.153353 
L 397.57824 94.564304 
L 398.29248 72.682069 
L 398.6496 90.059705 
L 399.00672 170.713077 
L 399.36384 115.927919 
L 399.72096 143.716937 
L 400.07808 152.961163 
L 400.4352 179.009125 
L 400.79232 83.958204 
L 401.14944 142.491144 
L 401.50656 78.079024 
L 401.86368 122.012534 
L 402.2208 86.240441 
L 402.57792 103.972119 
L 402.93504 107.813175 
L 403.29216 116.718885 
L 403.64928 114.317331 
L 404.0064 117.784617 
L 404.36352 113.942398 
L 404.72064 94.078005 
L 405.07776 141.315591 
L 405.43488 87.377678 
L 405.792 125.615051 
L 406.14912 83.675539 
L 406.50624 75.712951 
L 406.86336 87.745285 
L 407.22048 84.733589 
L 407.5776 103.988091 
L 407.93472 142.24263 
L 408.64896 89.490776 
L 409.00608 126.738248 
L 409.3632 281.733651 
L 409.72032 127.665065 
L 410.07744 285.408 
L 410.43456 77.462913 
L 410.79168 188.828416 
L 411.1488 79.362432 
L 411.50592 180.289384 
L 411.86304 191.280121 
L 412.22016 170.023448 
L 412.57728 250.997407 
L 412.9344 163.833489 
L 413.29152 109.874737 
L 413.64864 121.964968 
L 414.00576 101.638432 
L 414.36288 105.801201 
L 414.36288 105.801201 
" style="fill:none;stroke:#0000ff;stroke-linecap:square;stroke-width:1.5;"/>
   </g>
   <g id="patch_3">
    <path d="M 57.6 307.584 
L 57.6 41.472 
" style="fill:none;stroke:#000000;stroke-linecap:square;stroke-linejoin:miter;stroke-width:0.8;"/>
   </g>
   <g id="patch_4">
    <path d="M 414.72 307.584 
L 414.72 41.472 
" style="fill:none;stroke:#000000;stroke-linecap:square;stroke-linejoin:miter;stroke-width:0.8;"/>
   </g>
   <g id="patch_5">
    <path d="M 57.6 307.584 
L 414.72 307.584 
" style="fill:none;stroke:#000000;stroke-linecap:square;stroke-linejoin:miter;stroke-width:0.8;"/>
   </g>
   <g id="patch_6">
    <path d="M 57.6 41.472 
L 414.72 41.472 
" style="fill:none;stroke:#000000;stroke-linecap:square;stroke-linejoin:miter;stroke-width:0.8;"/>
   </g>
   <g id="legend_1">
    <g id="patch_7">
     <path d="M 282.321563 64.150125 
L 407.72 64.150125 
Q 409.72 64.150125 409.72 62.150125 
L 409.72 48.472 
Q 409.72 46.472 407.72 46.472 
L 282.321563 46.472 
Q 280.321563 46.472 280.321563 48.472 
L 280.321563 62.150125 
Q 280.321563 64.150125 282.321563 64.150125 
z
" style="fill:#ffffff;opacity:0.8;stroke:#cccccc;stroke-linejoin:miter;"/>
    </g>
    <g id="line2d_28">
     <path d="M 284.321563 54.570438 
L 304.321563 54.570438 
" style="fill:none;stroke:#0000ff;stroke-linecap:square;stroke-width:1.5;"/>
    </g>
    <g id="line2d_29"/>
    <g id="text_17">
     <!-- cumulative reward -->
     <g transform="translate(312.321563 58.070438)scale(0.1 -0.1)">
      <defs>
       <path d="M 3122 3366 
L 3122 2828 
Q 2878 2963 2633 3030 
Q 2388 3097 2138 3097 
Q 1578 3097 1268 2742 
Q 959 2388 959 1747 
Q 959 1106 1268 751 
Q 1578 397 2138 397 
Q 2388 397 2633 464 
Q 2878 531 3122 666 
L 3122 134 
Q 2881 22 2623 -34 
Q 2366 -91 2075 -91 
Q 1284 -91 818 406 
Q 353 903 353 1747 
Q 353 2603 823 3093 
Q 1294 3584 2113 3584 
Q 2378 3584 2631 3529 
Q 2884 3475 3122 3366 
z
" id="DejaVuSans-63" transform="scale(0.015625)"/>
      </defs>
      <use xlink:href="#DejaVuSans-63"/>
      <use x="54.980469" xlink:href="#DejaVuSans-75"/>
      <use x="118.359375" xlink:href="#DejaVuSans-6d"/>
      <use x="215.771484" xlink:href="#DejaVuSans-75"/>
      <use x="279.150391" xlink:href="#DejaVuSans-6c"/>
      <use x="306.933594" xlink:href="#DejaVuSans-61"/>
      <use x="368.212891" xlink:href="#DejaVuSans-74"/>
      <use x="407.421875" xlink:href="#DejaVuSans-69"/>
      <use x="435.205078" xlink:href="#DejaVuSans-76"/>
      <use x="494.384766" xlink:href="#DejaVuSans-65"/>
      <use x="555.908203" xlink:href="#DejaVuSans-20"/>
      <use x="587.695312" xlink:href="#DejaVuSans-72"/>
      <use x="626.558594" xlink:href="#DejaVuSans-65"/>
      <use x="688.082031" xlink:href="#DejaVuSans-77"/>
      <use x="769.869141" xlink:href="#DejaVuSans-61"/>
      <use x="831.148438" xlink:href="#DejaVuSans-72"/>
      <use x="870.511719" xlink:href="#DejaVuSans-64"/>
     </g>
    </g>
   </g>
  </g>
 </g>
 <defs>
  <clipPath id="pa7eb3953ca">
   <rect height="266.112" width="357.12" x="57.6" y="41.472"/>
  </clipPath>
 </defs>
</svg>
