<?xml version="1.0" encoding="utf-8" standalone="no"?>
<!DOCTYPE svg PUBLIC "-//W3C//DTD SVG 1.1//EN"
  "http://www.w3.org/Graphics/SVG/1.1/DTD/svg11.dtd">
<svg height="345.6pt" version="1.1" viewBox="0 0 460.8 345.6" width="460.8pt" xmlns="http://www.w3.org/2000/svg" xmlns:xlink="http://www.w3.org/1999/xlink">
 <metadata>
  <rdf:RDF xmlns:cc="http://creativecommons.org/ns#" xmlns:dc="http://purl.org/dc/elements/1.1/" xmlns:rdf="http://www.w3.org/1999/02/22-rdf-syntax-ns#">
   <cc:Work>
    <dc:type rdf:resource="http://purl.org/dc/dcmitype/StillImage"/>
    <dc:date>2021-10-27T11:49:17.926956</dc:date>
    <dc:description>{"agent.algorithm": "RayProximalPolicyOptimization", "agent.algorithm.render_env": false, "agent.algorithm.num_workers": 0, "agent.algorithm.batch_mode": "complete_episodes", "agent.algorithm.train_batch_size": 200, "agent.algorithm.optimizer": "Adam", "agent.algorithm.vf_clip_param": 100000.0, "agent.algorithm.model": {"fcnet_activation": "tanh", "fcnet_hiddens": [50, 50]}, "env.env_class": "SchedulerPolicyRayEnvironment", "env.env_config": {"solver_driver": "CMAdriver", "solver_driver_args": [10, 10, 2, 1.54], "maximize": false, "steps": 50, "state_metrics_names": ["DifferenceOfBest", "SolverStateHistory", "SolverState"], "state_metrics_config": [[40, false, 1, true], [{"step_size": {"max": 3, "min": 0}}, 40], [{"ps": {"max": 10, "min": -10}}]], "reward_metric": "Best", "reward_metric_config": [false, false], "memes_no": 1, "action_space_config": {"step_size": {"max": 3, "min": 1e-10}}}}</dc:description>
    <dc:format>image/svg+xml</dc:format>
    <dc:creator>
     <cc:Agent>
      <dc:title>Matplotlib v3.4.3, https://matplotlib.org/</dc:title>
     </cc:Agent>
    </dc:creator>
   </cc:Work>
  </rdf:RDF>
 </metadata>
 <defs>
  <style type="text/css">*{stroke-linecap:butt;stroke-linejoin:round;}</style>
 </defs>
 <g id="figure_1">
  <g id="patch_1">
   <path d="M 0 345.6 
L 460.8 345.6 
L 460.8 0 
L 0 0 
z
" style="fill:#ffffff;"/>
  </g>
  <g id="axes_1">
   <g id="patch_2">
    <path d="M 57.6 307.584 
L 414.72 307.584 
L 414.72 41.472 
L 57.6 41.472 
z
" style="fill:#ffffff;"/>
   </g>
   <g id="matplotlib.axis_1">
    <g id="xtick_1">
     <g id="line2d_1">
      <path clip-path="url(#p16c1fddd1c)" d="M 57.6 307.584 
L 57.6 41.472 
" style="fill:none;stroke:#b0b0b0;stroke-linecap:square;stroke-width:0.8;"/>
     </g>
     <g id="line2d_2">
      <defs>
       <path d="M 0 0 
L 0 3.5 
" id="m99bd7dc3e6" style="stroke:#000000;stroke-width:0.8;"/>
      </defs>
      <g>
       <use style="stroke:#000000;stroke-width:0.8;" x="57.6" xlink:href="#m99bd7dc3e6" y="307.584"/>
      </g>
     </g>
     <g id="text_1">
      <!-- 0 -->
      <g transform="translate(54.41875 322.182437)scale(0.1 -0.1)">
       <defs>
        <path d="M 2034 4250 
Q 1547 4250 1301 3770 
Q 1056 3291 1056 2328 
Q 1056 1369 1301 889 
Q 1547 409 2034 409 
Q 2525 409 2770 889 
Q 3016 1369 3016 2328 
Q 3016 3291 2770 3770 
Q 2525 4250 2034 4250 
z
M 2034 4750 
Q 2819 4750 3233 4129 
Q 3647 3509 3647 2328 
Q 3647 1150 3233 529 
Q 2819 -91 2034 -91 
Q 1250 -91 836 529 
Q 422 1150 422 2328 
Q 422 3509 836 4129 
Q 1250 4750 2034 4750 
z
" id="DejaVuSans-30" transform="scale(0.015625)"/>
       </defs>
       <use xlink:href="#DejaVuSans-30"/>
      </g>
     </g>
    </g>
    <g id="xtick_2">
     <g id="line2d_3">
      <path clip-path="url(#p16c1fddd1c)" d="M 129.024 307.584 
L 129.024 41.472 
" style="fill:none;stroke:#b0b0b0;stroke-linecap:square;stroke-width:0.8;"/>
     </g>
     <g id="line2d_4">
      <g>
       <use style="stroke:#000000;stroke-width:0.8;" x="129.024" xlink:href="#m99bd7dc3e6" y="307.584"/>
      </g>
     </g>
     <g id="text_2">
      <!-- 200 -->
      <g transform="translate(119.48025 322.182437)scale(0.1 -0.1)">
       <defs>
        <path d="M 1228 531 
L 3431 531 
L 3431 0 
L 469 0 
L 469 531 
Q 828 903 1448 1529 
Q 2069 2156 2228 2338 
Q 2531 2678 2651 2914 
Q 2772 3150 2772 3378 
Q 2772 3750 2511 3984 
Q 2250 4219 1831 4219 
Q 1534 4219 1204 4116 
Q 875 4013 500 3803 
L 500 4441 
Q 881 4594 1212 4672 
Q 1544 4750 1819 4750 
Q 2544 4750 2975 4387 
Q 3406 4025 3406 3419 
Q 3406 3131 3298 2873 
Q 3191 2616 2906 2266 
Q 2828 2175 2409 1742 
Q 1991 1309 1228 531 
z
" id="DejaVuSans-32" transform="scale(0.015625)"/>
       </defs>
       <use xlink:href="#DejaVuSans-32"/>
       <use x="63.623047" xlink:href="#DejaVuSans-30"/>
       <use x="127.246094" xlink:href="#DejaVuSans-30"/>
      </g>
     </g>
    </g>
    <g id="xtick_3">
     <g id="line2d_5">
      <path clip-path="url(#p16c1fddd1c)" d="M 200.448 307.584 
L 200.448 41.472 
" style="fill:none;stroke:#b0b0b0;stroke-linecap:square;stroke-width:0.8;"/>
     </g>
     <g id="line2d_6">
      <g>
       <use style="stroke:#000000;stroke-width:0.8;" x="200.448" xlink:href="#m99bd7dc3e6" y="307.584"/>
      </g>
     </g>
     <g id="text_3">
      <!-- 400 -->
      <g transform="translate(190.90425 322.182437)scale(0.1 -0.1)">
       <defs>
        <path d="M 2419 4116 
L 825 1625 
L 2419 1625 
L 2419 4116 
z
M 2253 4666 
L 3047 4666 
L 3047 1625 
L 3713 1625 
L 3713 1100 
L 3047 1100 
L 3047 0 
L 2419 0 
L 2419 1100 
L 313 1100 
L 313 1709 
L 2253 4666 
z
" id="DejaVuSans-34" transform="scale(0.015625)"/>
       </defs>
       <use xlink:href="#DejaVuSans-34"/>
       <use x="63.623047" xlink:href="#DejaVuSans-30"/>
       <use x="127.246094" xlink:href="#DejaVuSans-30"/>
      </g>
     </g>
    </g>
    <g id="xtick_4">
     <g id="line2d_7">
      <path clip-path="url(#p16c1fddd1c)" d="M 271.872 307.584 
L 271.872 41.472 
" style="fill:none;stroke:#b0b0b0;stroke-linecap:square;stroke-width:0.8;"/>
     </g>
     <g id="line2d_8">
      <g>
       <use style="stroke:#000000;stroke-width:0.8;" x="271.872" xlink:href="#m99bd7dc3e6" y="307.584"/>
      </g>
     </g>
     <g id="text_4">
      <!-- 600 -->
      <g transform="translate(262.32825 322.182437)scale(0.1 -0.1)">
       <defs>
        <path d="M 2113 2584 
Q 1688 2584 1439 2293 
Q 1191 2003 1191 1497 
Q 1191 994 1439 701 
Q 1688 409 2113 409 
Q 2538 409 2786 701 
Q 3034 994 3034 1497 
Q 3034 2003 2786 2293 
Q 2538 2584 2113 2584 
z
M 3366 4563 
L 3366 3988 
Q 3128 4100 2886 4159 
Q 2644 4219 2406 4219 
Q 1781 4219 1451 3797 
Q 1122 3375 1075 2522 
Q 1259 2794 1537 2939 
Q 1816 3084 2150 3084 
Q 2853 3084 3261 2657 
Q 3669 2231 3669 1497 
Q 3669 778 3244 343 
Q 2819 -91 2113 -91 
Q 1303 -91 875 529 
Q 447 1150 447 2328 
Q 447 3434 972 4092 
Q 1497 4750 2381 4750 
Q 2619 4750 2861 4703 
Q 3103 4656 3366 4563 
z
" id="DejaVuSans-36" transform="scale(0.015625)"/>
       </defs>
       <use xlink:href="#DejaVuSans-36"/>
       <use x="63.623047" xlink:href="#DejaVuSans-30"/>
       <use x="127.246094" xlink:href="#DejaVuSans-30"/>
      </g>
     </g>
    </g>
    <g id="xtick_5">
     <g id="line2d_9">
      <path clip-path="url(#p16c1fddd1c)" d="M 343.296 307.584 
L 343.296 41.472 
" style="fill:none;stroke:#b0b0b0;stroke-linecap:square;stroke-width:0.8;"/>
     </g>
     <g id="line2d_10">
      <g>
       <use style="stroke:#000000;stroke-width:0.8;" x="343.296" xlink:href="#m99bd7dc3e6" y="307.584"/>
      </g>
     </g>
     <g id="text_5">
      <!-- 800 -->
      <g transform="translate(333.75225 322.182437)scale(0.1 -0.1)">
       <defs>
        <path d="M 2034 2216 
Q 1584 2216 1326 1975 
Q 1069 1734 1069 1313 
Q 1069 891 1326 650 
Q 1584 409 2034 409 
Q 2484 409 2743 651 
Q 3003 894 3003 1313 
Q 3003 1734 2745 1975 
Q 2488 2216 2034 2216 
z
M 1403 2484 
Q 997 2584 770 2862 
Q 544 3141 544 3541 
Q 544 4100 942 4425 
Q 1341 4750 2034 4750 
Q 2731 4750 3128 4425 
Q 3525 4100 3525 3541 
Q 3525 3141 3298 2862 
Q 3072 2584 2669 2484 
Q 3125 2378 3379 2068 
Q 3634 1759 3634 1313 
Q 3634 634 3220 271 
Q 2806 -91 2034 -91 
Q 1263 -91 848 271 
Q 434 634 434 1313 
Q 434 1759 690 2068 
Q 947 2378 1403 2484 
z
M 1172 3481 
Q 1172 3119 1398 2916 
Q 1625 2713 2034 2713 
Q 2441 2713 2670 2916 
Q 2900 3119 2900 3481 
Q 2900 3844 2670 4047 
Q 2441 4250 2034 4250 
Q 1625 4250 1398 4047 
Q 1172 3844 1172 3481 
z
" id="DejaVuSans-38" transform="scale(0.015625)"/>
       </defs>
       <use xlink:href="#DejaVuSans-38"/>
       <use x="63.623047" xlink:href="#DejaVuSans-30"/>
       <use x="127.246094" xlink:href="#DejaVuSans-30"/>
      </g>
     </g>
    </g>
    <g id="xtick_6">
     <g id="line2d_11">
      <path clip-path="url(#p16c1fddd1c)" d="M 414.72 307.584 
L 414.72 41.472 
" style="fill:none;stroke:#b0b0b0;stroke-linecap:square;stroke-width:0.8;"/>
     </g>
     <g id="line2d_12">
      <g>
       <use style="stroke:#000000;stroke-width:0.8;" x="414.72" xlink:href="#m99bd7dc3e6" y="307.584"/>
      </g>
     </g>
     <g id="text_6">
      <!-- 1000 -->
      <g transform="translate(401.995 322.182437)scale(0.1 -0.1)">
       <defs>
        <path d="M 794 531 
L 1825 531 
L 1825 4091 
L 703 3866 
L 703 4441 
L 1819 4666 
L 2450 4666 
L 2450 531 
L 3481 531 
L 3481 0 
L 794 0 
L 794 531 
z
" id="DejaVuSans-31" transform="scale(0.015625)"/>
       </defs>
       <use xlink:href="#DejaVuSans-31"/>
       <use x="63.623047" xlink:href="#DejaVuSans-30"/>
       <use x="127.246094" xlink:href="#DejaVuSans-30"/>
       <use x="190.869141" xlink:href="#DejaVuSans-30"/>
      </g>
     </g>
    </g>
    <g id="text_7">
     <!-- Episodes -->
     <g transform="translate(213.917812 335.860562)scale(0.1 -0.1)">
      <defs>
       <path d="M 628 4666 
L 3578 4666 
L 3578 4134 
L 1259 4134 
L 1259 2753 
L 3481 2753 
L 3481 2222 
L 1259 2222 
L 1259 531 
L 3634 531 
L 3634 0 
L 628 0 
L 628 4666 
z
" id="DejaVuSans-45" transform="scale(0.015625)"/>
       <path d="M 1159 525 
L 1159 -1331 
L 581 -1331 
L 581 3500 
L 1159 3500 
L 1159 2969 
Q 1341 3281 1617 3432 
Q 1894 3584 2278 3584 
Q 2916 3584 3314 3078 
Q 3713 2572 3713 1747 
Q 3713 922 3314 415 
Q 2916 -91 2278 -91 
Q 1894 -91 1617 61 
Q 1341 213 1159 525 
z
M 3116 1747 
Q 3116 2381 2855 2742 
Q 2594 3103 2138 3103 
Q 1681 3103 1420 2742 
Q 1159 2381 1159 1747 
Q 1159 1113 1420 752 
Q 1681 391 2138 391 
Q 2594 391 2855 752 
Q 3116 1113 3116 1747 
z
" id="DejaVuSans-70" transform="scale(0.015625)"/>
       <path d="M 603 3500 
L 1178 3500 
L 1178 0 
L 603 0 
L 603 3500 
z
M 603 4863 
L 1178 4863 
L 1178 4134 
L 603 4134 
L 603 4863 
z
" id="DejaVuSans-69" transform="scale(0.015625)"/>
       <path d="M 2834 3397 
L 2834 2853 
Q 2591 2978 2328 3040 
Q 2066 3103 1784 3103 
Q 1356 3103 1142 2972 
Q 928 2841 928 2578 
Q 928 2378 1081 2264 
Q 1234 2150 1697 2047 
L 1894 2003 
Q 2506 1872 2764 1633 
Q 3022 1394 3022 966 
Q 3022 478 2636 193 
Q 2250 -91 1575 -91 
Q 1294 -91 989 -36 
Q 684 19 347 128 
L 347 722 
Q 666 556 975 473 
Q 1284 391 1588 391 
Q 1994 391 2212 530 
Q 2431 669 2431 922 
Q 2431 1156 2273 1281 
Q 2116 1406 1581 1522 
L 1381 1569 
Q 847 1681 609 1914 
Q 372 2147 372 2553 
Q 372 3047 722 3315 
Q 1072 3584 1716 3584 
Q 2034 3584 2315 3537 
Q 2597 3491 2834 3397 
z
" id="DejaVuSans-73" transform="scale(0.015625)"/>
       <path d="M 1959 3097 
Q 1497 3097 1228 2736 
Q 959 2375 959 1747 
Q 959 1119 1226 758 
Q 1494 397 1959 397 
Q 2419 397 2687 759 
Q 2956 1122 2956 1747 
Q 2956 2369 2687 2733 
Q 2419 3097 1959 3097 
z
M 1959 3584 
Q 2709 3584 3137 3096 
Q 3566 2609 3566 1747 
Q 3566 888 3137 398 
Q 2709 -91 1959 -91 
Q 1206 -91 779 398 
Q 353 888 353 1747 
Q 353 2609 779 3096 
Q 1206 3584 1959 3584 
z
" id="DejaVuSans-6f" transform="scale(0.015625)"/>
       <path d="M 2906 2969 
L 2906 4863 
L 3481 4863 
L 3481 0 
L 2906 0 
L 2906 525 
Q 2725 213 2448 61 
Q 2172 -91 1784 -91 
Q 1150 -91 751 415 
Q 353 922 353 1747 
Q 353 2572 751 3078 
Q 1150 3584 1784 3584 
Q 2172 3584 2448 3432 
Q 2725 3281 2906 2969 
z
M 947 1747 
Q 947 1113 1208 752 
Q 1469 391 1925 391 
Q 2381 391 2643 752 
Q 2906 1113 2906 1747 
Q 2906 2381 2643 2742 
Q 2381 3103 1925 3103 
Q 1469 3103 1208 2742 
Q 947 2381 947 1747 
z
" id="DejaVuSans-64" transform="scale(0.015625)"/>
       <path d="M 3597 1894 
L 3597 1613 
L 953 1613 
Q 991 1019 1311 708 
Q 1631 397 2203 397 
Q 2534 397 2845 478 
Q 3156 559 3463 722 
L 3463 178 
Q 3153 47 2828 -22 
Q 2503 -91 2169 -91 
Q 1331 -91 842 396 
Q 353 884 353 1716 
Q 353 2575 817 3079 
Q 1281 3584 2069 3584 
Q 2775 3584 3186 3129 
Q 3597 2675 3597 1894 
z
M 3022 2063 
Q 3016 2534 2758 2815 
Q 2500 3097 2075 3097 
Q 1594 3097 1305 2825 
Q 1016 2553 972 2059 
L 3022 2063 
z
" id="DejaVuSans-65" transform="scale(0.015625)"/>
      </defs>
      <use xlink:href="#DejaVuSans-45"/>
      <use x="63.183594" xlink:href="#DejaVuSans-70"/>
      <use x="126.660156" xlink:href="#DejaVuSans-69"/>
      <use x="154.443359" xlink:href="#DejaVuSans-73"/>
      <use x="206.542969" xlink:href="#DejaVuSans-6f"/>
      <use x="267.724609" xlink:href="#DejaVuSans-64"/>
      <use x="331.201172" xlink:href="#DejaVuSans-65"/>
      <use x="392.724609" xlink:href="#DejaVuSans-73"/>
     </g>
    </g>
   </g>
   <g id="matplotlib.axis_2">
    <g id="ytick_1">
     <g id="line2d_13">
      <path clip-path="url(#p16c1fddd1c)" d="M 57.6 271.825996 
L 414.72 271.825996 
" style="fill:none;stroke:#b0b0b0;stroke-linecap:square;stroke-width:0.8;"/>
     </g>
     <g id="line2d_14">
      <defs>
       <path d="M 0 0 
L -3.5 0 
" id="mb63adf65d8" style="stroke:#000000;stroke-width:0.8;"/>
      </defs>
      <g>
       <use style="stroke:#000000;stroke-width:0.8;" x="57.6" xlink:href="#mb63adf65d8" y="271.825996"/>
      </g>
     </g>
     <g id="text_8">
      <!-- −5 -->
      <g transform="translate(35.857813 275.625215)scale(0.1 -0.1)">
       <defs>
        <path d="M 678 2272 
L 4684 2272 
L 4684 1741 
L 678 1741 
L 678 2272 
z
" id="DejaVuSans-2212" transform="scale(0.015625)"/>
        <path d="M 691 4666 
L 3169 4666 
L 3169 4134 
L 1269 4134 
L 1269 2991 
Q 1406 3038 1543 3061 
Q 1681 3084 1819 3084 
Q 2600 3084 3056 2656 
Q 3513 2228 3513 1497 
Q 3513 744 3044 326 
Q 2575 -91 1722 -91 
Q 1428 -91 1123 -41 
Q 819 9 494 109 
L 494 744 
Q 775 591 1075 516 
Q 1375 441 1709 441 
Q 2250 441 2565 725 
Q 2881 1009 2881 1497 
Q 2881 1984 2565 2268 
Q 2250 2553 1709 2553 
Q 1456 2553 1204 2497 
Q 953 2441 691 2322 
L 691 4666 
z
" id="DejaVuSans-35" transform="scale(0.015625)"/>
       </defs>
       <use xlink:href="#DejaVuSans-2212"/>
       <use x="83.789062" xlink:href="#DejaVuSans-35"/>
      </g>
     </g>
    </g>
    <g id="ytick_2">
     <g id="line2d_15">
      <path clip-path="url(#p16c1fddd1c)" d="M 57.6 227.899574 
L 414.72 227.899574 
" style="fill:none;stroke:#b0b0b0;stroke-linecap:square;stroke-width:0.8;"/>
     </g>
     <g id="line2d_16">
      <g>
       <use style="stroke:#000000;stroke-width:0.8;" x="57.6" xlink:href="#mb63adf65d8" y="227.899574"/>
      </g>
     </g>
     <g id="text_9">
      <!-- −4 -->
      <g transform="translate(35.857813 231.698793)scale(0.1 -0.1)">
       <use xlink:href="#DejaVuSans-2212"/>
       <use x="83.789062" xlink:href="#DejaVuSans-34"/>
      </g>
     </g>
    </g>
    <g id="ytick_3">
     <g id="line2d_17">
      <path clip-path="url(#p16c1fddd1c)" d="M 57.6 183.973152 
L 414.72 183.973152 
" style="fill:none;stroke:#b0b0b0;stroke-linecap:square;stroke-width:0.8;"/>
     </g>
     <g id="line2d_18">
      <g>
       <use style="stroke:#000000;stroke-width:0.8;" x="57.6" xlink:href="#mb63adf65d8" y="183.973152"/>
      </g>
     </g>
     <g id="text_10">
      <!-- −3 -->
      <g transform="translate(35.857813 187.772371)scale(0.1 -0.1)">
       <defs>
        <path d="M 2597 2516 
Q 3050 2419 3304 2112 
Q 3559 1806 3559 1356 
Q 3559 666 3084 287 
Q 2609 -91 1734 -91 
Q 1441 -91 1130 -33 
Q 819 25 488 141 
L 488 750 
Q 750 597 1062 519 
Q 1375 441 1716 441 
Q 2309 441 2620 675 
Q 2931 909 2931 1356 
Q 2931 1769 2642 2001 
Q 2353 2234 1838 2234 
L 1294 2234 
L 1294 2753 
L 1863 2753 
Q 2328 2753 2575 2939 
Q 2822 3125 2822 3475 
Q 2822 3834 2567 4026 
Q 2313 4219 1838 4219 
Q 1578 4219 1281 4162 
Q 984 4106 628 3988 
L 628 4550 
Q 988 4650 1302 4700 
Q 1616 4750 1894 4750 
Q 2613 4750 3031 4423 
Q 3450 4097 3450 3541 
Q 3450 3153 3228 2886 
Q 3006 2619 2597 2516 
z
" id="DejaVuSans-33" transform="scale(0.015625)"/>
       </defs>
       <use xlink:href="#DejaVuSans-2212"/>
       <use x="83.789062" xlink:href="#DejaVuSans-33"/>
      </g>
     </g>
    </g>
    <g id="ytick_4">
     <g id="line2d_19">
      <path clip-path="url(#p16c1fddd1c)" d="M 57.6 140.04673 
L 414.72 140.04673 
" style="fill:none;stroke:#b0b0b0;stroke-linecap:square;stroke-width:0.8;"/>
     </g>
     <g id="line2d_20">
      <g>
       <use style="stroke:#000000;stroke-width:0.8;" x="57.6" xlink:href="#mb63adf65d8" y="140.04673"/>
      </g>
     </g>
     <g id="text_11">
      <!-- −2 -->
      <g transform="translate(35.857813 143.845948)scale(0.1 -0.1)">
       <use xlink:href="#DejaVuSans-2212"/>
       <use x="83.789062" xlink:href="#DejaVuSans-32"/>
      </g>
     </g>
    </g>
    <g id="ytick_5">
     <g id="line2d_21">
      <path clip-path="url(#p16c1fddd1c)" d="M 57.6 96.120307 
L 414.72 96.120307 
" style="fill:none;stroke:#b0b0b0;stroke-linecap:square;stroke-width:0.8;"/>
     </g>
     <g id="line2d_22">
      <g>
       <use style="stroke:#000000;stroke-width:0.8;" x="57.6" xlink:href="#mb63adf65d8" y="96.120307"/>
      </g>
     </g>
     <g id="text_12">
      <!-- −1 -->
      <g transform="translate(35.857813 99.919526)scale(0.1 -0.1)">
       <use xlink:href="#DejaVuSans-2212"/>
       <use x="83.789062" xlink:href="#DejaVuSans-31"/>
      </g>
     </g>
    </g>
    <g id="ytick_6">
     <g id="line2d_23">
      <path clip-path="url(#p16c1fddd1c)" d="M 57.6 52.193885 
L 414.72 52.193885 
" style="fill:none;stroke:#b0b0b0;stroke-linecap:square;stroke-width:0.8;"/>
     </g>
     <g id="line2d_24">
      <g>
       <use style="stroke:#000000;stroke-width:0.8;" x="57.6" xlink:href="#mb63adf65d8" y="52.193885"/>
      </g>
     </g>
     <g id="text_13">
      <!-- 0 -->
      <g transform="translate(44.2375 55.993104)scale(0.1 -0.1)">
       <use xlink:href="#DejaVuSans-30"/>
      </g>
     </g>
    </g>
    <g id="text_14">
     <!-- Cumulative Reward -->
     <g transform="translate(29.778125 223.275656)rotate(-90)scale(0.1 -0.1)">
      <defs>
       <path d="M 4122 4306 
L 4122 3641 
Q 3803 3938 3442 4084 
Q 3081 4231 2675 4231 
Q 1875 4231 1450 3742 
Q 1025 3253 1025 2328 
Q 1025 1406 1450 917 
Q 1875 428 2675 428 
Q 3081 428 3442 575 
Q 3803 722 4122 1019 
L 4122 359 
Q 3791 134 3420 21 
Q 3050 -91 2638 -91 
Q 1578 -91 968 557 
Q 359 1206 359 2328 
Q 359 3453 968 4101 
Q 1578 4750 2638 4750 
Q 3056 4750 3426 4639 
Q 3797 4528 4122 4306 
z
" id="DejaVuSans-43" transform="scale(0.015625)"/>
       <path d="M 544 1381 
L 544 3500 
L 1119 3500 
L 1119 1403 
Q 1119 906 1312 657 
Q 1506 409 1894 409 
Q 2359 409 2629 706 
Q 2900 1003 2900 1516 
L 2900 3500 
L 3475 3500 
L 3475 0 
L 2900 0 
L 2900 538 
Q 2691 219 2414 64 
Q 2138 -91 1772 -91 
Q 1169 -91 856 284 
Q 544 659 544 1381 
z
M 1991 3584 
L 1991 3584 
z
" id="DejaVuSans-75" transform="scale(0.015625)"/>
       <path d="M 3328 2828 
Q 3544 3216 3844 3400 
Q 4144 3584 4550 3584 
Q 5097 3584 5394 3201 
Q 5691 2819 5691 2113 
L 5691 0 
L 5113 0 
L 5113 2094 
Q 5113 2597 4934 2840 
Q 4756 3084 4391 3084 
Q 3944 3084 3684 2787 
Q 3425 2491 3425 1978 
L 3425 0 
L 2847 0 
L 2847 2094 
Q 2847 2600 2669 2842 
Q 2491 3084 2119 3084 
Q 1678 3084 1418 2786 
Q 1159 2488 1159 1978 
L 1159 0 
L 581 0 
L 581 3500 
L 1159 3500 
L 1159 2956 
Q 1356 3278 1631 3431 
Q 1906 3584 2284 3584 
Q 2666 3584 2933 3390 
Q 3200 3197 3328 2828 
z
" id="DejaVuSans-6d" transform="scale(0.015625)"/>
       <path d="M 603 4863 
L 1178 4863 
L 1178 0 
L 603 0 
L 603 4863 
z
" id="DejaVuSans-6c" transform="scale(0.015625)"/>
       <path d="M 2194 1759 
Q 1497 1759 1228 1600 
Q 959 1441 959 1056 
Q 959 750 1161 570 
Q 1363 391 1709 391 
Q 2188 391 2477 730 
Q 2766 1069 2766 1631 
L 2766 1759 
L 2194 1759 
z
M 3341 1997 
L 3341 0 
L 2766 0 
L 2766 531 
Q 2569 213 2275 61 
Q 1981 -91 1556 -91 
Q 1019 -91 701 211 
Q 384 513 384 1019 
Q 384 1609 779 1909 
Q 1175 2209 1959 2209 
L 2766 2209 
L 2766 2266 
Q 2766 2663 2505 2880 
Q 2244 3097 1772 3097 
Q 1472 3097 1187 3025 
Q 903 2953 641 2809 
L 641 3341 
Q 956 3463 1253 3523 
Q 1550 3584 1831 3584 
Q 2591 3584 2966 3190 
Q 3341 2797 3341 1997 
z
" id="DejaVuSans-61" transform="scale(0.015625)"/>
       <path d="M 1172 4494 
L 1172 3500 
L 2356 3500 
L 2356 3053 
L 1172 3053 
L 1172 1153 
Q 1172 725 1289 603 
Q 1406 481 1766 481 
L 2356 481 
L 2356 0 
L 1766 0 
Q 1100 0 847 248 
Q 594 497 594 1153 
L 594 3053 
L 172 3053 
L 172 3500 
L 594 3500 
L 594 4494 
L 1172 4494 
z
" id="DejaVuSans-74" transform="scale(0.015625)"/>
       <path d="M 191 3500 
L 800 3500 
L 1894 563 
L 2988 3500 
L 3597 3500 
L 2284 0 
L 1503 0 
L 191 3500 
z
" id="DejaVuSans-76" transform="scale(0.015625)"/>
       <path id="DejaVuSans-20" transform="scale(0.015625)"/>
       <path d="M 2841 2188 
Q 3044 2119 3236 1894 
Q 3428 1669 3622 1275 
L 4263 0 
L 3584 0 
L 2988 1197 
Q 2756 1666 2539 1819 
Q 2322 1972 1947 1972 
L 1259 1972 
L 1259 0 
L 628 0 
L 628 4666 
L 2053 4666 
Q 2853 4666 3247 4331 
Q 3641 3997 3641 3322 
Q 3641 2881 3436 2590 
Q 3231 2300 2841 2188 
z
M 1259 4147 
L 1259 2491 
L 2053 2491 
Q 2509 2491 2742 2702 
Q 2975 2913 2975 3322 
Q 2975 3731 2742 3939 
Q 2509 4147 2053 4147 
L 1259 4147 
z
" id="DejaVuSans-52" transform="scale(0.015625)"/>
       <path d="M 269 3500 
L 844 3500 
L 1563 769 
L 2278 3500 
L 2956 3500 
L 3675 769 
L 4391 3500 
L 4966 3500 
L 4050 0 
L 3372 0 
L 2619 2869 
L 1863 0 
L 1184 0 
L 269 3500 
z
" id="DejaVuSans-77" transform="scale(0.015625)"/>
       <path d="M 2631 2963 
Q 2534 3019 2420 3045 
Q 2306 3072 2169 3072 
Q 1681 3072 1420 2755 
Q 1159 2438 1159 1844 
L 1159 0 
L 581 0 
L 581 3500 
L 1159 3500 
L 1159 2956 
Q 1341 3275 1631 3429 
Q 1922 3584 2338 3584 
Q 2397 3584 2469 3576 
Q 2541 3569 2628 3553 
L 2631 2963 
z
" id="DejaVuSans-72" transform="scale(0.015625)"/>
      </defs>
      <use xlink:href="#DejaVuSans-43"/>
      <use x="69.824219" xlink:href="#DejaVuSans-75"/>
      <use x="133.203125" xlink:href="#DejaVuSans-6d"/>
      <use x="230.615234" xlink:href="#DejaVuSans-75"/>
      <use x="293.994141" xlink:href="#DejaVuSans-6c"/>
      <use x="321.777344" xlink:href="#DejaVuSans-61"/>
      <use x="383.056641" xlink:href="#DejaVuSans-74"/>
      <use x="422.265625" xlink:href="#DejaVuSans-69"/>
      <use x="450.048828" xlink:href="#DejaVuSans-76"/>
      <use x="509.228516" xlink:href="#DejaVuSans-65"/>
      <use x="570.751953" xlink:href="#DejaVuSans-20"/>
      <use x="602.539062" xlink:href="#DejaVuSans-52"/>
      <use x="667.521484" xlink:href="#DejaVuSans-65"/>
      <use x="729.044922" xlink:href="#DejaVuSans-77"/>
      <use x="810.832031" xlink:href="#DejaVuSans-61"/>
      <use x="872.111328" xlink:href="#DejaVuSans-72"/>
      <use x="911.474609" xlink:href="#DejaVuSans-64"/>
     </g>
    </g>
    <g id="text_15">
     <!-- 1e7 -->
     <g transform="translate(57.6 38.472)scale(0.1 -0.1)">
      <defs>
       <path d="M 525 4666 
L 3525 4666 
L 3525 4397 
L 1831 0 
L 1172 0 
L 2766 4134 
L 525 4134 
L 525 4666 
z
" id="DejaVuSans-37" transform="scale(0.015625)"/>
      </defs>
      <use xlink:href="#DejaVuSans-31"/>
      <use x="63.623047" xlink:href="#DejaVuSans-65"/>
      <use x="125.146484" xlink:href="#DejaVuSans-37"/>
     </g>
    </g>
   </g>
   <g id="line2d_25">
    <path clip-path="url(#p16c1fddd1c)" d="M 57.6 161.038261 
L 57.95712 270.137384 
L 58.31424 148.21602 
L 58.67136 218.233863 
L 59.02848 161.038261 
L 59.3856 270.137384 
L 59.74272 148.21602 
L 60.09984 218.233863 
L 60.45696 161.038261 
L 60.81408 270.137384 
L 61.1712 148.21602 
L 61.52832 218.233863 
L 61.88544 161.038261 
L 62.24256 270.137384 
L 62.59968 148.21602 
L 62.9568 218.233863 
L 63.31392 161.038261 
L 63.67104 270.137384 
L 64.02816 148.21602 
L 64.38528 218.233863 
L 64.7424 161.038261 
L 65.09952 270.137384 
L 65.45664 148.21602 
L 65.81376 218.233863 
L 66.17088 161.038261 
L 66.528 270.137384 
L 66.88512 148.21602 
L 67.24224 218.233863 
L 67.59936 161.038261 
L 67.95648 270.137384 
L 68.3136 148.21602 
L 68.67072 218.233863 
L 69.02784 161.038261 
L 69.38496 270.137384 
L 69.74208 148.21602 
L 70.0992 218.233863 
L 70.45632 161.038261 
L 70.81344 270.137384 
L 71.17056 148.21602 
L 71.52768 218.233863 
L 71.8848 161.038261 
L 72.24192 270.137384 
L 72.59904 148.21602 
L 72.95616 218.233863 
L 73.31328 161.038261 
L 73.6704 270.137384 
L 74.02752 148.21602 
L 74.38464 218.233863 
L 74.74176 161.038261 
L 75.09888 270.137384 
L 75.456 148.21602 
L 75.81312 218.233863 
L 76.17024 161.038261 
L 76.52736 270.137384 
L 76.88448 148.21602 
L 77.2416 218.233863 
L 77.59872 161.038261 
L 77.95584 270.137384 
L 78.31296 148.21602 
L 78.67008 218.233863 
L 79.0272 161.038261 
L 79.38432 270.137384 
L 79.74144 148.21602 
L 80.09856 218.233863 
L 80.45568 161.038261 
L 80.8128 270.137384 
L 81.16992 148.21602 
L 81.52704 218.233863 
L 81.88416 161.038261 
L 82.24128 270.137384 
L 82.5984 148.21602 
L 82.95552 218.233863 
L 83.31264 161.038261 
L 83.66976 270.137384 
L 84.02688 148.21602 
L 84.384 218.233863 
L 84.74112 161.038261 
L 85.09824 270.137384 
L 85.45536 148.21602 
L 85.81248 218.233863 
L 86.1696 161.038261 
L 86.52672 270.137384 
L 86.88384 148.21602 
L 87.24096 218.233863 
L 87.59808 161.038261 
L 87.9552 270.137384 
L 88.31232 148.21602 
L 88.66944 218.233863 
L 89.02656 161.038261 
L 89.38368 270.137384 
L 89.7408 148.21602 
L 90.09792 218.233863 
L 90.45504 161.038261 
L 90.81216 270.137384 
L 91.16928 148.21602 
L 91.5264 218.233863 
L 91.88352 161.038261 
L 92.24064 270.137384 
L 92.59776 148.21602 
L 92.95488 218.233863 
L 93.312 169.477016 
L 93.66912 197.195558 
L 94.02624 165.876191 
L 94.38336 235.074019 
L 94.74048 188.492245 
L 95.0976 199.346204 
L 95.45472 140.376023 
L 95.81184 141.158994 
L 96.16896 171.551396 
L 96.52608 184.14823 
L 96.8832 126.739735 
L 97.24032 204.32965 
L 97.59744 168.14601 
L 97.95456 170.580129 
L 98.31168 194.4536 
L 98.6688 136.185724 
L 99.02592 147.60612 
L 99.38304 141.150339 
L 99.74016 184.713505 
L 100.09728 127.508701 
L 100.4544 179.504832 
L 100.81152 161.409543 
L 101.16864 179.873751 
L 101.52576 170.051318 
L 101.88288 197.710296 
L 102.24 146.80653 
L 102.59712 156.337953 
L 102.95424 99.171956 
L 103.31136 124.356173 
L 103.66848 174.291938 
L 104.0256 129.843153 
L 104.38272 162.343954 
L 104.73984 178.884022 
L 105.09696 136.181951 
L 105.45408 285.408 
L 105.8112 107.290619 
L 106.16832 101.778287 
L 106.52544 128.24458 
L 106.88256 128.236425 
L 107.5968 229.615714 
L 107.95392 155.184066 
L 108.31104 148.89204 
L 108.66816 123.023651 
L 109.02528 178.971051 
L 109.3824 98.424312 
L 110.09664 155.065137 
L 110.45376 176.179537 
L 110.81088 152.846035 
L 111.168 122.090471 
L 111.52512 159.342913 
L 111.88224 120.093175 
L 112.23936 127.727962 
L 112.59648 118.955501 
L 112.9536 129.718602 
L 113.31072 130.035709 
L 113.66784 174.132095 
L 114.02496 135.610619 
L 114.38208 172.439694 
L 114.7392 102.087498 
L 115.09632 141.156117 
L 115.45344 109.581352 
L 115.81056 128.422251 
L 116.16768 138.199953 
L 116.5248 107.166665 
L 116.88192 153.63326 
L 117.23904 159.440968 
L 117.59616 134.149145 
L 117.95328 187.68555 
L 118.3104 122.105408 
L 118.66752 128.370239 
L 119.02464 112.634624 
L 119.38176 170.17628 
L 119.73888 133.277199 
L 120.096 135.256356 
L 120.45312 113.249153 
L 120.81024 157.487574 
L 121.16736 127.677269 
L 121.52448 145.354031 
L 121.8816 153.409829 
L 122.23872 120.379018 
L 122.59584 108.890275 
L 122.95296 190.057869 
L 123.31008 141.139443 
L 123.6672 120.909498 
L 124.02432 122.629709 
L 124.38144 155.78499 
L 124.73856 156.121147 
L 125.09568 187.328132 
L 125.4528 118.946935 
L 125.80992 127.886044 
L 126.16704 145.765722 
L 126.52416 110.894322 
L 126.88128 156.459674 
L 127.2384 155.492768 
L 127.59552 179.077168 
L 127.95264 111.317273 
L 128.30976 109.562317 
L 128.66688 113.327581 
L 129.024 102.926081 
L 129.38112 140.57877 
L 129.73824 99.514393 
L 130.09536 117.37879 
L 130.45248 103.226354 
L 130.8096 156.649287 
L 131.16672 113.495425 
L 131.52384 129.007455 
L 131.88096 119.461406 
L 132.23808 154.953331 
L 132.5952 125.980532 
L 132.95232 108.794814 
L 133.30944 76.512116 
L 134.02368 110.806702 
L 134.73792 133.967961 
L 135.09504 105.698321 
L 135.45216 119.065551 
L 135.80928 153.21924 
L 136.1664 106.913662 
L 136.52352 113.352576 
L 136.88064 106.658757 
L 137.23776 119.572773 
L 137.59488 87.717596 
L 137.952 136.73089 
L 138.30912 116.304441 
L 138.66624 84.72953 
L 139.02336 87.523006 
L 139.38048 84.533071 
L 140.09472 132.058366 
L 140.45184 120.035975 
L 140.80896 99.440262 
L 141.16608 100.17712 
L 141.5232 133.423721 
L 141.88032 141.619381 
L 142.59456 109.121304 
L 142.95168 85.029591 
L 143.3088 110.000305 
L 143.66592 91.523954 
L 144.02304 108.347954 
L 144.38016 111.016058 
L 144.73728 102.402259 
L 145.0944 107.860258 
L 145.45152 100.606137 
L 145.80864 108.171344 
L 146.16576 135.147665 
L 146.52288 101.986994 
L 146.88 124.476626 
L 147.23712 119.132825 
L 147.59424 97.1002 
L 148.30848 77.959377 
L 148.6656 88.70864 
L 149.02272 130.350125 
L 149.37984 115.191465 
L 149.73696 86.237555 
L 150.09408 83.539518 
L 150.4512 87.875264 
L 150.80832 89.783163 
L 151.16544 96.576986 
L 151.52256 87.651316 
L 151.87968 111.784911 
L 152.2368 93.307624 
L 152.59392 99.805329 
L 152.95104 89.317266 
L 153.30816 99.288513 
L 153.66528 95.126074 
L 154.0224 96.774013 
L 154.37952 88.082897 
L 154.73664 98.271656 
L 155.09376 76.444091 
L 155.45088 93.348397 
L 155.808 74.620442 
L 156.16512 78.552139 
L 156.52224 88.27547 
L 156.87936 121.702334 
L 157.23648 104.439431 
L 157.5936 73.508535 
L 157.95072 86.918803 
L 158.30784 87.501711 
L 158.66496 96.622591 
L 159.02208 73.414698 
L 159.3792 113.674545 
L 159.73632 79.753977 
L 160.09344 116.167044 
L 160.45056 89.068221 
L 160.80768 92.843192 
L 161.1648 143.412881 
L 161.52192 75.81005 
L 161.87904 81.03418 
L 162.23616 88.687209 
L 162.59328 91.63938 
L 162.9504 120.391854 
L 163.30752 98.744675 
L 163.66464 98.676936 
L 164.02176 79.738829 
L 164.37888 75.448891 
L 164.736 83.090912 
L 165.45024 92.366054 
L 165.80736 78.502486 
L 166.16448 89.309997 
L 166.5216 81.981019 
L 166.87872 80.530035 
L 167.23584 87.833197 
L 167.59296 104.417649 
L 167.95008 87.225448 
L 168.3072 84.615073 
L 168.66432 90.494368 
L 169.02144 75.645082 
L 169.37856 105.896916 
L 169.73568 97.716869 
L 170.0928 102.988305 
L 170.44992 91.94557 
L 170.80704 86.080577 
L 171.16416 91.557563 
L 171.52128 137.621312 
L 171.8784 89.07535 
L 172.23552 85.715566 
L 172.59264 85.823938 
L 172.94976 121.889394 
L 173.30688 105.779522 
L 173.664 134.14179 
L 174.02112 104.990688 
L 174.37824 90.374286 
L 174.73536 115.260671 
L 175.09248 73.695041 
L 175.4496 88.661945 
L 175.80672 88.974914 
L 176.16384 79.412419 
L 176.52096 82.93785 
L 176.87808 81.328651 
L 177.2352 70.637408 
L 177.59232 95.272782 
L 177.94944 144.761286 
L 178.30656 96.098271 
L 178.66368 86.035978 
L 179.0208 79.66362 
L 179.37792 79.273479 
L 179.73504 92.212273 
L 180.09216 78.24444 
L 180.44928 80.341963 
L 180.8064 96.75852 
L 181.16352 94.157941 
L 181.52064 102.406985 
L 181.87776 93.311485 
L 182.23488 75.454804 
L 182.592 79.778963 
L 182.94912 88.54292 
L 183.30624 83.645107 
L 183.66336 126.035894 
L 184.02048 87.103132 
L 184.3776 91.537475 
L 185.09184 110.162011 
L 185.80608 75.533103 
L 186.1632 75.363311 
L 186.52032 88.391364 
L 186.87744 77.67625 
L 187.23456 82.714693 
L 187.59168 81.290752 
L 187.9488 112.429592 
L 188.30592 79.821883 
L 188.66304 113.994833 
L 189.02016 83.113225 
L 189.37728 75.731383 
L 189.7344 87.797137 
L 190.09152 86.470041 
L 190.44864 88.169484 
L 190.80576 92.466719 
L 191.16288 70.576355 
L 191.52 82.383429 
L 191.87712 67.208559 
L 192.23424 72.477509 
L 192.59136 98.861278 
L 192.94848 90.475723 
L 193.3056 74.50317 
L 193.66272 81.310215 
L 194.01984 71.727716 
L 194.37696 92.490436 
L 194.73408 65.581988 
L 195.0912 99.500353 
L 195.44832 81.643523 
L 195.80544 109.878688 
L 196.16256 83.386201 
L 196.51968 90.632932 
L 196.8768 78.892623 
L 197.23392 76.06581 
L 197.59104 92.221188 
L 197.94816 72.171013 
L 198.30528 92.87173 
L 198.6624 76.630235 
L 199.01952 75.074698 
L 199.73376 79.150369 
L 200.09088 83.544311 
L 200.448 109.004336 
L 200.80512 80.851876 
L 201.16224 81.932159 
L 201.51936 79.066253 
L 201.87648 71.578369 
L 202.2336 79.631998 
L 202.59072 71.648459 
L 202.94784 72.445586 
L 203.30496 201.607925 
L 203.66208 84.199231 
L 204.0192 99.724517 
L 204.37632 83.272258 
L 204.73344 82.298787 
L 205.09056 125.808764 
L 205.44768 83.207085 
L 205.8048 80.319343 
L 206.16192 73.637049 
L 206.51904 78.718776 
L 206.87616 73.226693 
L 207.23328 75.694734 
L 207.5904 73.57801 
L 207.94752 143.674828 
L 208.30464 130.88655 
L 208.66176 71.637169 
L 209.01888 79.746703 
L 209.376 111.050249 
L 209.73312 66.707699 
L 210.09024 79.680527 
L 210.44736 76.596865 
L 210.80448 93.093794 
L 211.1616 79.445969 
L 211.51872 77.120209 
L 211.87584 78.968947 
L 212.23296 92.511897 
L 212.59008 70.321902 
L 212.9472 70.994748 
L 213.30432 81.83997 
L 213.66144 67.092019 
L 214.01856 79.055564 
L 214.37568 71.445983 
L 214.7328 94.584183 
L 215.08992 77.133021 
L 215.44704 73.341855 
L 215.80416 83.930537 
L 216.16128 82.663877 
L 216.5184 86.641467 
L 216.87552 103.937364 
L 217.23264 97.561004 
L 217.58976 94.202589 
L 217.94688 75.124063 
L 218.304 63.648 
L 218.66112 71.838218 
L 219.01824 127.790168 
L 219.37536 95.108379 
L 219.73248 106.029752 
L 220.0896 69.299883 
L 220.44672 91.845492 
L 220.80384 78.673081 
L 221.16096 92.714849 
L 221.51808 63.658917 
L 221.8752 71.195703 
L 222.23232 67.495719 
L 222.94656 95.964139 
L 223.30368 131.163786 
L 223.6608 89.399486 
L 224.01792 84.128429 
L 224.37504 89.399499 
L 224.73216 79.374305 
L 225.08928 93.655644 
L 225.4464 114.258623 
L 225.80352 86.392641 
L 226.16064 73.190894 
L 226.51776 93.40328 
L 226.87488 79.306403 
L 227.232 80.483832 
L 227.58912 83.972898 
L 227.94624 73.260159 
L 228.30336 108.570875 
L 228.66048 75.240286 
L 229.0176 71.046099 
L 229.37472 76.453329 
L 229.73184 88.747537 
L 230.08896 69.521355 
L 230.44608 107.933886 
L 230.8032 82.66591 
L 231.16032 86.488536 
L 231.51744 96.556258 
L 231.87456 77.187311 
L 232.23168 111.840708 
L 232.5888 82.032664 
L 232.94592 129.519613 
L 233.30304 87.052608 
L 233.66016 92.856915 
L 234.01728 85.233312 
L 234.3744 80.419059 
L 234.73152 100.750896 
L 235.08864 136.990843 
L 235.44576 82.892366 
L 235.80288 77.971483 
L 236.16 78.94182 
L 236.51712 93.551304 
L 236.87424 80.486839 
L 237.23136 106.055575 
L 237.58848 114.690683 
L 237.9456 89.615045 
L 238.30272 94.93544 
L 238.65984 77.70273 
L 239.01696 80.296085 
L 239.37408 76.615594 
L 239.7312 109.586912 
L 240.08832 102.83196 
L 240.44544 79.461752 
L 240.80256 115.072372 
L 241.15968 80.002583 
L 241.5168 116.851442 
L 242.23104 72.495377 
L 242.58816 98.237427 
L 242.94528 103.297011 
L 243.3024 125.017653 
L 243.65952 88.741476 
L 244.01664 101.225573 
L 244.37376 92.650856 
L 244.73088 76.422124 
L 245.088 75.384187 
L 245.44512 76.773103 
L 245.80224 90.148681 
L 246.15936 74.65902 
L 246.51648 76.497463 
L 246.8736 85.132328 
L 247.23072 68.091334 
L 247.58784 143.206799 
L 247.94496 78.276404 
L 248.30208 85.591339 
L 248.6592 88.033829 
L 249.01632 91.651262 
L 249.37344 101.035989 
L 249.73056 82.823346 
L 250.08768 80.030374 
L 250.4448 111.884373 
L 250.80192 74.888546 
L 251.15904 86.858096 
L 251.51616 113.557795 
L 252.2304 89.851811 
L 252.58752 94.365714 
L 252.94464 75.511624 
L 253.30176 99.269966 
L 253.65888 81.760951 
L 254.016 73.411314 
L 254.37312 87.501942 
L 254.73024 73.989752 
L 255.08736 92.049394 
L 255.44448 77.470487 
L 255.8016 75.688105 
L 256.15872 85.925601 
L 256.51584 92.614864 
L 256.87296 81.513761 
L 257.5872 112.059341 
L 257.94432 80.647128 
L 258.30144 86.38187 
L 258.65856 72.930183 
L 259.01568 81.165825 
L 259.3728 74.343346 
L 259.72992 75.518428 
L 260.08704 93.914536 
L 260.44416 81.762097 
L 260.80128 78.822611 
L 261.51552 80.900649 
L 261.87264 84.719642 
L 262.22976 92.228503 
L 262.58688 86.11433 
L 262.944 94.938624 
L 263.30112 92.80813 
L 263.65824 88.236948 
L 264.01536 117.17283 
L 264.37248 80.082767 
L 264.7296 115.175977 
L 265.44384 76.009071 
L 265.80096 115.473639 
L 266.15808 86.928771 
L 266.5152 109.735903 
L 266.87232 94.712023 
L 267.22944 74.784062 
L 267.58656 114.786576 
L 267.94368 100.221888 
L 268.3008 78.754328 
L 268.65792 75.344279 
L 269.01504 120.454893 
L 269.37216 76.449066 
L 269.72928 88.429935 
L 270.0864 93.869352 
L 270.44352 73.492166 
L 270.80064 113.895854 
L 271.15776 100.131954 
L 271.51488 132.518426 
L 271.872 91.629698 
L 272.22912 118.05502 
L 272.58624 81.344666 
L 272.94336 81.603291 
L 273.30048 104.344367 
L 273.6576 84.578642 
L 274.01472 89.486715 
L 274.37184 91.482769 
L 274.72896 100.060594 
L 275.08608 95.520089 
L 275.80032 82.894398 
L 276.15744 81.079189 
L 276.51456 88.960895 
L 276.87168 111.206393 
L 277.2288 82.345194 
L 277.58592 121.087851 
L 277.94304 80.002642 
L 278.30016 98.865342 
L 278.65728 89.756564 
L 279.0144 136.374049 
L 279.37152 90.904349 
L 279.72864 144.086968 
L 280.44288 85.57732 
L 280.8 75.941492 
L 281.15712 142.032044 
L 281.51424 150.991974 
L 281.87136 95.568943 
L 282.22848 80.853138 
L 282.5856 101.147409 
L 282.94272 84.467549 
L 283.29984 98.256736 
L 283.65696 93.678083 
L 284.01408 79.266746 
L 284.3712 92.685577 
L 284.72832 86.833103 
L 285.08544 170.743497 
L 285.44256 126.315794 
L 285.79968 98.621033 
L 286.1568 89.937449 
L 286.51392 102.895265 
L 286.87104 123.192182 
L 287.22816 134.531317 
L 287.58528 105.303387 
L 287.9424 122.155885 
L 288.29952 86.661172 
L 288.65664 104.065616 
L 289.01376 134.311531 
L 289.37088 94.256435 
L 289.728 91.320418 
L 290.08512 100.875998 
L 290.44224 104.494164 
L 290.79936 126.569032 
L 291.15648 78.22691 
L 291.5136 78.66617 
L 291.87072 124.144502 
L 292.58496 91.11477 
L 292.94208 80.013063 
L 293.2992 75.566595 
L 293.65632 98.528915 
L 294.01344 195.388929 
L 294.37056 91.431293 
L 294.72768 97.958529 
L 295.0848 113.184084 
L 295.44192 90.13023 
L 295.79904 144.542689 
L 296.15616 96.245102 
L 296.51328 102.45431 
L 296.8704 149.994198 
L 297.22752 76.765308 
L 297.58464 108.583709 
L 297.94176 120.994849 
L 298.29888 118.90932 
L 298.656 105.263627 
L 299.01312 124.644168 
L 299.37024 110.549155 
L 299.72736 115.00932 
L 300.08448 106.870527 
L 300.4416 78.201219 
L 300.79872 106.019584 
L 301.51296 87.189824 
L 301.87008 99.353667 
L 302.2272 125.48829 
L 302.58432 121.965658 
L 302.94144 131.059045 
L 303.29856 180.410253 
L 304.0128 83.762192 
L 304.36992 98.955755 
L 304.72704 232.765385 
L 305.08416 87.390615 
L 305.44128 86.735172 
L 305.7984 113.208654 
L 306.15552 83.797099 
L 306.51264 131.631804 
L 306.86976 87.08383 
L 307.22688 148.4419 
L 307.584 154.471523 
L 307.94112 89.091558 
L 308.29824 136.636365 
L 308.65536 135.308611 
L 309.01248 89.579409 
L 309.3696 68.644233 
L 309.72672 114.527919 
L 310.08384 144.820792 
L 310.44096 101.158428 
L 310.79808 149.29207 
L 311.1552 127.519895 
L 311.51232 89.42564 
L 311.86944 89.480657 
L 312.22656 91.253551 
L 312.58368 101.452898 
L 312.9408 95.37475 
L 313.29792 124.066472 
L 313.65504 90.926905 
L 314.01216 99.802392 
L 314.36928 102.30336 
L 314.7264 151.602754 
L 315.08352 107.413383 
L 316.15488 78.618784 
L 316.512 94.418586 
L 316.86912 92.448895 
L 317.22624 166.4067 
L 317.58336 82.626769 
L 317.94048 108.287611 
L 318.2976 105.558096 
L 318.65472 111.125274 
L 319.01184 93.989604 
L 319.36896 138.574795 
L 319.72608 88.07873 
L 320.44032 103.2249 
L 320.79744 150.562676 
L 321.15456 110.367615 
L 321.51168 135.214799 
L 321.8688 102.212044 
L 322.22592 93.997946 
L 322.58304 168.971243 
L 322.94016 111.625482 
L 323.29728 110.249088 
L 323.6544 119.137163 
L 324.01152 113.481664 
L 324.36864 158.999749 
L 324.72576 169.105577 
L 325.44 105.268972 
L 325.79712 155.968285 
L 326.15424 95.228373 
L 326.51136 118.900317 
L 326.86848 187.139667 
L 327.2256 125.93369 
L 327.58272 123.904844 
L 327.93984 110.080316 
L 328.29696 190.947067 
L 328.65408 122.490096 
L 329.0112 88.611862 
L 329.36832 88.399264 
L 329.72544 109.031796 
L 330.08256 75.871177 
L 330.43968 153.028305 
L 330.7968 98.713389 
L 331.15392 107.050433 
L 331.51104 124.787415 
L 331.86816 125.48395 
L 332.22528 104.50132 
L 332.5824 94.74589 
L 332.93952 136.021142 
L 333.29664 116.680178 
L 333.65376 79.732558 
L 334.01088 131.319422 
L 334.368 132.80602 
L 334.72512 93.005072 
L 335.08224 79.975681 
L 335.79648 153.888453 
L 336.1536 116.301419 
L 336.51072 94.623482 
L 336.86784 79.989118 
L 337.22496 130.893646 
L 337.58208 124.817573 
L 337.9392 131.82783 
L 338.29632 100.792233 
L 338.65344 101.398039 
L 339.36768 132.041864 
L 339.7248 188.295778 
L 340.08192 120.739431 
L 340.43904 115.009619 
L 340.79616 104.699603 
L 341.15328 168.248622 
L 341.5104 133.330673 
L 341.86752 127.587075 
L 342.22464 109.813685 
L 342.58176 130.223881 
L 342.93888 98.17656 
L 343.296 171.5691 
L 343.65312 112.405543 
L 344.01024 125.219954 
L 344.36736 83.727001 
L 344.72448 140.549781 
L 345.0816 128.739362 
L 345.43872 89.570537 
L 346.15296 134.699908 
L 346.51008 100.316697 
L 346.8672 119.5052 
L 347.22432 111.621348 
L 347.58144 122.876833 
L 348.29568 136.797385 
L 348.6528 162.097164 
L 349.00992 111.93304 
L 349.36704 132.993782 
L 349.72416 126.580996 
L 350.08128 138.882896 
L 350.4384 131.087841 
L 350.79552 151.424537 
L 351.15264 118.960727 
L 351.50976 134.527254 
L 351.86688 168.812656 
L 352.224 174.505269 
L 352.58112 114.374779 
L 352.93824 160.589861 
L 353.29536 183.648682 
L 353.65248 106.190249 
L 354.0096 85.06314 
L 354.36672 145.928935 
L 354.72384 110.223379 
L 355.08096 135.851787 
L 355.43808 97.415954 
L 355.7952 199.979414 
L 356.15232 173.50864 
L 356.50944 155.722707 
L 356.86656 124.121221 
L 357.22368 134.886043 
L 357.5808 133.366152 
L 357.93792 131.243476 
L 358.29504 133.311352 
L 358.65216 94.626947 
L 359.3664 132.249279 
L 359.72352 164.744846 
L 360.08064 212.193551 
L 360.43776 243.867439 
L 360.79488 96.799086 
L 361.152 119.877934 
L 361.50912 125.036923 
L 361.86624 285.15336 
L 362.22336 96.359065 
L 362.58048 266.204156 
L 362.9376 142.551139 
L 363.29472 99.067758 
L 363.65184 152.81021 
L 364.00896 114.371629 
L 364.36608 154.343644 
L 364.7232 127.699623 
L 365.08032 156.917797 
L 365.43744 105.395056 
L 365.79456 181.933867 
L 366.5088 109.710359 
L 367.22304 135.370789 
L 367.58016 144.533577 
L 367.93728 123.160381 
L 368.2944 147.479373 
L 368.65152 115.95939 
L 369.00864 165.805664 
L 369.36576 112.09862 
L 369.72288 138.520717 
L 370.08 121.026635 
L 370.43712 155.951174 
L 370.79424 129.510757 
L 371.15136 122.929692 
L 371.50848 109.210577 
L 371.8656 160.788201 
L 372.22272 149.164933 
L 372.57984 168.337325 
L 372.93696 119.106166 
L 373.29408 118.653539 
L 373.6512 154.172144 
L 374.00832 214.846053 
L 374.36544 151.19785 
L 374.72256 139.821876 
L 375.07968 140.361536 
L 375.4368 131.284094 
L 375.79392 147.667717 
L 376.15104 82.135258 
L 376.86528 162.430029 
L 377.2224 127.940937 
L 377.57952 120.550691 
L 377.93664 94.841387 
L 378.29376 184.902595 
L 378.65088 203.045835 
L 379.008 119.687935 
L 379.36512 153.528409 
L 379.72224 168.216883 
L 380.07936 161.184982 
L 380.43648 161.171183 
L 380.7936 155.237747 
L 381.15072 169.653343 
L 381.50784 118.030016 
L 381.86496 123.414187 
L 382.22208 139.987054 
L 382.5792 145.886731 
L 382.93632 134.580443 
L 383.29344 116.000288 
L 383.65056 130.437067 
L 384.00768 129.636187 
L 384.3648 105.543521 
L 384.72192 93.23255 
L 385.07904 212.522669 
L 385.43616 118.654353 
L 385.79328 151.196349 
L 386.1504 166.293159 
L 386.50752 271.50446 
L 386.86464 104.272638 
L 387.22176 138.126334 
L 387.57888 206.175164 
L 387.936 158.45385 
L 388.65024 134.270226 
L 389.00736 129.89729 
L 389.36448 128.829601 
L 389.7216 107.834768 
L 390.07872 130.629099 
L 390.43584 109.379541 
L 390.79296 111.553647 
L 391.15008 149.661974 
L 391.5072 97.95375 
L 391.86432 130.781158 
L 392.22144 190.322379 
L 392.57856 117.934644 
L 392.93568 115.496444 
L 393.2928 114.248546 
L 393.64992 244.154996 
L 394.00704 110.139191 
L 394.36416 162.001302 
L 394.72128 232.038273 
L 395.0784 145.996373 
L 395.43552 146.095588 
L 395.79264 122.87982 
L 396.14976 143.757259 
L 396.50688 107.464022 
L 396.864 193.340214 
L 397.22112 95.464393 
L 397.57824 120.35242 
L 397.93536 135.503231 
L 398.29248 115.177721 
L 398.6496 138.520049 
L 399.00672 117.594053 
L 399.36384 135.983321 
L 399.72096 118.037525 
L 400.07808 161.318666 
L 400.79232 100.444277 
L 401.14944 170.679774 
L 401.50656 150.47598 
L 401.86368 144.262045 
L 402.2208 131.892678 
L 402.57792 125.282609 
L 402.93504 170.515586 
L 403.29216 103.452922 
L 403.64928 171.207527 
L 404.0064 148.5982 
L 404.36352 170.70858 
L 404.72064 122.60035 
L 405.07776 130.424309 
L 405.43488 124.946364 
L 405.792 113.257473 
L 406.14912 161.720008 
L 406.50624 141.343856 
L 406.86336 137.405142 
L 407.22048 127.340235 
L 407.5776 124.821808 
L 407.93472 81.949741 
L 408.29184 215.099537 
L 408.64896 109.018781 
L 409.00608 130.298599 
L 409.3632 168.83715 
L 409.72032 151.609621 
L 410.07744 228.744497 
L 410.43456 130.610156 
L 410.79168 141.239317 
L 411.1488 139.072969 
L 411.50592 187.990075 
L 411.86304 120.657995 
L 412.22016 136.683512 
L 412.57728 133.919516 
L 412.9344 151.30358 
L 413.29152 178.659031 
L 413.64864 109.54189 
L 414.00576 146.061059 
L 414.36288 150.501495 
L 414.36288 150.501495 
" style="fill:none;stroke:#0000ff;stroke-linecap:square;stroke-width:1.5;"/>
   </g>
   <g id="patch_3">
    <path d="M 57.6 307.584 
L 57.6 41.472 
" style="fill:none;stroke:#000000;stroke-linecap:square;stroke-linejoin:miter;stroke-width:0.8;"/>
   </g>
   <g id="patch_4">
    <path d="M 414.72 307.584 
L 414.72 41.472 
" style="fill:none;stroke:#000000;stroke-linecap:square;stroke-linejoin:miter;stroke-width:0.8;"/>
   </g>
   <g id="patch_5">
    <path d="M 57.6 307.584 
L 414.72 307.584 
" style="fill:none;stroke:#000000;stroke-linecap:square;stroke-linejoin:miter;stroke-width:0.8;"/>
   </g>
   <g id="patch_6">
    <path d="M 57.6 41.472 
L 414.72 41.472 
" style="fill:none;stroke:#000000;stroke-linecap:square;stroke-linejoin:miter;stroke-width:0.8;"/>
   </g>
   <g id="legend_1">
    <g id="patch_7">
     <path d="M 282.321563 64.150125 
L 407.72 64.150125 
Q 409.72 64.150125 409.72 62.150125 
L 409.72 48.472 
Q 409.72 46.472 407.72 46.472 
L 282.321563 46.472 
Q 280.321563 46.472 280.321563 48.472 
L 280.321563 62.150125 
Q 280.321563 64.150125 282.321563 64.150125 
z
" style="fill:#ffffff;opacity:0.8;stroke:#cccccc;stroke-linejoin:miter;"/>
    </g>
    <g id="line2d_26">
     <path d="M 284.321563 54.570438 
L 304.321563 54.570438 
" style="fill:none;stroke:#0000ff;stroke-linecap:square;stroke-width:1.5;"/>
    </g>
    <g id="line2d_27"/>
    <g id="text_16">
     <!-- cumulative reward -->
     <g transform="translate(312.321563 58.070438)scale(0.1 -0.1)">
      <defs>
       <path d="M 3122 3366 
L 3122 2828 
Q 2878 2963 2633 3030 
Q 2388 3097 2138 3097 
Q 1578 3097 1268 2742 
Q 959 2388 959 1747 
Q 959 1106 1268 751 
Q 1578 397 2138 397 
Q 2388 397 2633 464 
Q 2878 531 3122 666 
L 3122 134 
Q 2881 22 2623 -34 
Q 2366 -91 2075 -91 
Q 1284 -91 818 406 
Q 353 903 353 1747 
Q 353 2603 823 3093 
Q 1294 3584 2113 3584 
Q 2378 3584 2631 3529 
Q 2884 3475 3122 3366 
z
" id="DejaVuSans-63" transform="scale(0.015625)"/>
      </defs>
      <use xlink:href="#DejaVuSans-63"/>
      <use x="54.980469" xlink:href="#DejaVuSans-75"/>
      <use x="118.359375" xlink:href="#DejaVuSans-6d"/>
      <use x="215.771484" xlink:href="#DejaVuSans-75"/>
      <use x="279.150391" xlink:href="#DejaVuSans-6c"/>
      <use x="306.933594" xlink:href="#DejaVuSans-61"/>
      <use x="368.212891" xlink:href="#DejaVuSans-74"/>
      <use x="407.421875" xlink:href="#DejaVuSans-69"/>
      <use x="435.205078" xlink:href="#DejaVuSans-76"/>
      <use x="494.384766" xlink:href="#DejaVuSans-65"/>
      <use x="555.908203" xlink:href="#DejaVuSans-20"/>
      <use x="587.695312" xlink:href="#DejaVuSans-72"/>
      <use x="626.558594" xlink:href="#DejaVuSans-65"/>
      <use x="688.082031" xlink:href="#DejaVuSans-77"/>
      <use x="769.869141" xlink:href="#DejaVuSans-61"/>
      <use x="831.148438" xlink:href="#DejaVuSans-72"/>
      <use x="870.511719" xlink:href="#DejaVuSans-64"/>
     </g>
    </g>
   </g>
  </g>
 </g>
 <defs>
  <clipPath id="p16c1fddd1c">
   <rect height="266.112" width="357.12" x="57.6" y="41.472"/>
  </clipPath>
 </defs>
</svg>
