<?xml version="1.0" encoding="utf-8" standalone="no"?>
<!DOCTYPE svg PUBLIC "-//W3C//DTD SVG 1.1//EN"
  "http://www.w3.org/Graphics/SVG/1.1/DTD/svg11.dtd">
<svg height="345.6pt" version="1.1" viewBox="0 0 460.8 345.6" width="460.8pt" xmlns="http://www.w3.org/2000/svg" xmlns:xlink="http://www.w3.org/1999/xlink">
 <metadata>
  <rdf:RDF xmlns:cc="http://creativecommons.org/ns#" xmlns:dc="http://purl.org/dc/elements/1.1/" xmlns:rdf="http://www.w3.org/1999/02/22-rdf-syntax-ns#">
   <cc:Work>
    <dc:type rdf:resource="http://purl.org/dc/dcmitype/StillImage"/>
    <dc:date>2021-10-27T11:56:04.905909</dc:date>
    <dc:description>{"agent.algorithm": "RayProximalPolicyOptimization", "agent.algorithm.render_env": false, "agent.algorithm.num_workers": 0, "agent.algorithm.batch_mode": "complete_episodes", "agent.algorithm.train_batch_size": 200, "agent.algorithm.optimizer": "Adam", "agent.algorithm.vf_clip_param": 100000.0, "agent.algorithm.model": {"fcnet_activation": "tanh", "fcnet_hiddens": [50, 50]}, "env.env_class": "SchedulerPolicyRayEnvironment", "env.env_config": {"solver_driver": "CMAdriver", "solver_driver_args": [10, 10, 2, 1.54], "maximize": false, "steps": 50, "state_metrics_names": ["DifferenceOfBest", "SolverStateHistory", "SolverState"], "state_metrics_config": [[40, false, 1, true], [{"step_size": {"max": 3, "min": 0}}, 40], [{"ps": {"max": 10, "min": -10}}]], "reward_metric": "Best", "reward_metric_config": [false, false], "memes_no": 1, "action_space_config": {"step_size": {"max": 3, "min": 1e-10}}}}</dc:description>
    <dc:format>image/svg+xml</dc:format>
    <dc:creator>
     <cc:Agent>
      <dc:title>Matplotlib v3.4.3, https://matplotlib.org/</dc:title>
     </cc:Agent>
    </dc:creator>
   </cc:Work>
  </rdf:RDF>
 </metadata>
 <defs>
  <style type="text/css">*{stroke-linecap:butt;stroke-linejoin:round;}</style>
 </defs>
 <g id="figure_1">
  <g id="patch_1">
   <path d="M 0 345.6 
L 460.8 345.6 
L 460.8 0 
L 0 0 
z
" style="fill:#ffffff;"/>
  </g>
  <g id="axes_1">
   <g id="patch_2">
    <path d="M 57.6 307.584 
L 414.72 307.584 
L 414.72 41.472 
L 57.6 41.472 
z
" style="fill:#ffffff;"/>
   </g>
   <g id="matplotlib.axis_1">
    <g id="xtick_1">
     <g id="line2d_1">
      <path clip-path="url(#padafe7e0f7)" d="M 57.6 307.584 
L 57.6 41.472 
" style="fill:none;stroke:#b0b0b0;stroke-linecap:square;stroke-width:0.8;"/>
     </g>
     <g id="line2d_2">
      <defs>
       <path d="M 0 0 
L 0 3.5 
" id="m6168f639ec" style="stroke:#000000;stroke-width:0.8;"/>
      </defs>
      <g>
       <use style="stroke:#000000;stroke-width:0.8;" x="57.6" xlink:href="#m6168f639ec" y="307.584"/>
      </g>
     </g>
     <g id="text_1">
      <!-- 0 -->
      <g transform="translate(54.41875 322.182437)scale(0.1 -0.1)">
       <defs>
        <path d="M 2034 4250 
Q 1547 4250 1301 3770 
Q 1056 3291 1056 2328 
Q 1056 1369 1301 889 
Q 1547 409 2034 409 
Q 2525 409 2770 889 
Q 3016 1369 3016 2328 
Q 3016 3291 2770 3770 
Q 2525 4250 2034 4250 
z
M 2034 4750 
Q 2819 4750 3233 4129 
Q 3647 3509 3647 2328 
Q 3647 1150 3233 529 
Q 2819 -91 2034 -91 
Q 1250 -91 836 529 
Q 422 1150 422 2328 
Q 422 3509 836 4129 
Q 1250 4750 2034 4750 
z
" id="DejaVuSans-30" transform="scale(0.015625)"/>
       </defs>
       <use xlink:href="#DejaVuSans-30"/>
      </g>
     </g>
    </g>
    <g id="xtick_2">
     <g id="line2d_3">
      <path clip-path="url(#padafe7e0f7)" d="M 117.12 307.584 
L 117.12 41.472 
" style="fill:none;stroke:#b0b0b0;stroke-linecap:square;stroke-width:0.8;"/>
     </g>
     <g id="line2d_4">
      <g>
       <use style="stroke:#000000;stroke-width:0.8;" x="117.12" xlink:href="#m6168f639ec" y="307.584"/>
      </g>
     </g>
     <g id="text_2">
      <!-- 500 -->
      <g transform="translate(107.57625 322.182437)scale(0.1 -0.1)">
       <defs>
        <path d="M 691 4666 
L 3169 4666 
L 3169 4134 
L 1269 4134 
L 1269 2991 
Q 1406 3038 1543 3061 
Q 1681 3084 1819 3084 
Q 2600 3084 3056 2656 
Q 3513 2228 3513 1497 
Q 3513 744 3044 326 
Q 2575 -91 1722 -91 
Q 1428 -91 1123 -41 
Q 819 9 494 109 
L 494 744 
Q 775 591 1075 516 
Q 1375 441 1709 441 
Q 2250 441 2565 725 
Q 2881 1009 2881 1497 
Q 2881 1984 2565 2268 
Q 2250 2553 1709 2553 
Q 1456 2553 1204 2497 
Q 953 2441 691 2322 
L 691 4666 
z
" id="DejaVuSans-35" transform="scale(0.015625)"/>
       </defs>
       <use xlink:href="#DejaVuSans-35"/>
       <use x="63.623047" xlink:href="#DejaVuSans-30"/>
       <use x="127.246094" xlink:href="#DejaVuSans-30"/>
      </g>
     </g>
    </g>
    <g id="xtick_3">
     <g id="line2d_5">
      <path clip-path="url(#padafe7e0f7)" d="M 176.64 307.584 
L 176.64 41.472 
" style="fill:none;stroke:#b0b0b0;stroke-linecap:square;stroke-width:0.8;"/>
     </g>
     <g id="line2d_6">
      <g>
       <use style="stroke:#000000;stroke-width:0.8;" x="176.64" xlink:href="#m6168f639ec" y="307.584"/>
      </g>
     </g>
     <g id="text_3">
      <!-- 1000 -->
      <g transform="translate(163.915 322.182437)scale(0.1 -0.1)">
       <defs>
        <path d="M 794 531 
L 1825 531 
L 1825 4091 
L 703 3866 
L 703 4441 
L 1819 4666 
L 2450 4666 
L 2450 531 
L 3481 531 
L 3481 0 
L 794 0 
L 794 531 
z
" id="DejaVuSans-31" transform="scale(0.015625)"/>
       </defs>
       <use xlink:href="#DejaVuSans-31"/>
       <use x="63.623047" xlink:href="#DejaVuSans-30"/>
       <use x="127.246094" xlink:href="#DejaVuSans-30"/>
       <use x="190.869141" xlink:href="#DejaVuSans-30"/>
      </g>
     </g>
    </g>
    <g id="xtick_4">
     <g id="line2d_7">
      <path clip-path="url(#padafe7e0f7)" d="M 236.16 307.584 
L 236.16 41.472 
" style="fill:none;stroke:#b0b0b0;stroke-linecap:square;stroke-width:0.8;"/>
     </g>
     <g id="line2d_8">
      <g>
       <use style="stroke:#000000;stroke-width:0.8;" x="236.16" xlink:href="#m6168f639ec" y="307.584"/>
      </g>
     </g>
     <g id="text_4">
      <!-- 1500 -->
      <g transform="translate(223.435 322.182437)scale(0.1 -0.1)">
       <use xlink:href="#DejaVuSans-31"/>
       <use x="63.623047" xlink:href="#DejaVuSans-35"/>
       <use x="127.246094" xlink:href="#DejaVuSans-30"/>
       <use x="190.869141" xlink:href="#DejaVuSans-30"/>
      </g>
     </g>
    </g>
    <g id="xtick_5">
     <g id="line2d_9">
      <path clip-path="url(#padafe7e0f7)" d="M 295.68 307.584 
L 295.68 41.472 
" style="fill:none;stroke:#b0b0b0;stroke-linecap:square;stroke-width:0.8;"/>
     </g>
     <g id="line2d_10">
      <g>
       <use style="stroke:#000000;stroke-width:0.8;" x="295.68" xlink:href="#m6168f639ec" y="307.584"/>
      </g>
     </g>
     <g id="text_5">
      <!-- 2000 -->
      <g transform="translate(282.955 322.182437)scale(0.1 -0.1)">
       <defs>
        <path d="M 1228 531 
L 3431 531 
L 3431 0 
L 469 0 
L 469 531 
Q 828 903 1448 1529 
Q 2069 2156 2228 2338 
Q 2531 2678 2651 2914 
Q 2772 3150 2772 3378 
Q 2772 3750 2511 3984 
Q 2250 4219 1831 4219 
Q 1534 4219 1204 4116 
Q 875 4013 500 3803 
L 500 4441 
Q 881 4594 1212 4672 
Q 1544 4750 1819 4750 
Q 2544 4750 2975 4387 
Q 3406 4025 3406 3419 
Q 3406 3131 3298 2873 
Q 3191 2616 2906 2266 
Q 2828 2175 2409 1742 
Q 1991 1309 1228 531 
z
" id="DejaVuSans-32" transform="scale(0.015625)"/>
       </defs>
       <use xlink:href="#DejaVuSans-32"/>
       <use x="63.623047" xlink:href="#DejaVuSans-30"/>
       <use x="127.246094" xlink:href="#DejaVuSans-30"/>
       <use x="190.869141" xlink:href="#DejaVuSans-30"/>
      </g>
     </g>
    </g>
    <g id="xtick_6">
     <g id="line2d_11">
      <path clip-path="url(#padafe7e0f7)" d="M 355.2 307.584 
L 355.2 41.472 
" style="fill:none;stroke:#b0b0b0;stroke-linecap:square;stroke-width:0.8;"/>
     </g>
     <g id="line2d_12">
      <g>
       <use style="stroke:#000000;stroke-width:0.8;" x="355.2" xlink:href="#m6168f639ec" y="307.584"/>
      </g>
     </g>
     <g id="text_6">
      <!-- 2500 -->
      <g transform="translate(342.475 322.182437)scale(0.1 -0.1)">
       <use xlink:href="#DejaVuSans-32"/>
       <use x="63.623047" xlink:href="#DejaVuSans-35"/>
       <use x="127.246094" xlink:href="#DejaVuSans-30"/>
       <use x="190.869141" xlink:href="#DejaVuSans-30"/>
      </g>
     </g>
    </g>
    <g id="xtick_7">
     <g id="line2d_13">
      <path clip-path="url(#padafe7e0f7)" d="M 414.72 307.584 
L 414.72 41.472 
" style="fill:none;stroke:#b0b0b0;stroke-linecap:square;stroke-width:0.8;"/>
     </g>
     <g id="line2d_14">
      <g>
       <use style="stroke:#000000;stroke-width:0.8;" x="414.72" xlink:href="#m6168f639ec" y="307.584"/>
      </g>
     </g>
     <g id="text_7">
      <!-- 3000 -->
      <g transform="translate(401.995 322.182437)scale(0.1 -0.1)">
       <defs>
        <path d="M 2597 2516 
Q 3050 2419 3304 2112 
Q 3559 1806 3559 1356 
Q 3559 666 3084 287 
Q 2609 -91 1734 -91 
Q 1441 -91 1130 -33 
Q 819 25 488 141 
L 488 750 
Q 750 597 1062 519 
Q 1375 441 1716 441 
Q 2309 441 2620 675 
Q 2931 909 2931 1356 
Q 2931 1769 2642 2001 
Q 2353 2234 1838 2234 
L 1294 2234 
L 1294 2753 
L 1863 2753 
Q 2328 2753 2575 2939 
Q 2822 3125 2822 3475 
Q 2822 3834 2567 4026 
Q 2313 4219 1838 4219 
Q 1578 4219 1281 4162 
Q 984 4106 628 3988 
L 628 4550 
Q 988 4650 1302 4700 
Q 1616 4750 1894 4750 
Q 2613 4750 3031 4423 
Q 3450 4097 3450 3541 
Q 3450 3153 3228 2886 
Q 3006 2619 2597 2516 
z
" id="DejaVuSans-33" transform="scale(0.015625)"/>
       </defs>
       <use xlink:href="#DejaVuSans-33"/>
       <use x="63.623047" xlink:href="#DejaVuSans-30"/>
       <use x="127.246094" xlink:href="#DejaVuSans-30"/>
       <use x="190.869141" xlink:href="#DejaVuSans-30"/>
      </g>
     </g>
    </g>
    <g id="text_8">
     <!-- Episodes -->
     <g transform="translate(213.917812 335.860562)scale(0.1 -0.1)">
      <defs>
       <path d="M 628 4666 
L 3578 4666 
L 3578 4134 
L 1259 4134 
L 1259 2753 
L 3481 2753 
L 3481 2222 
L 1259 2222 
L 1259 531 
L 3634 531 
L 3634 0 
L 628 0 
L 628 4666 
z
" id="DejaVuSans-45" transform="scale(0.015625)"/>
       <path d="M 1159 525 
L 1159 -1331 
L 581 -1331 
L 581 3500 
L 1159 3500 
L 1159 2969 
Q 1341 3281 1617 3432 
Q 1894 3584 2278 3584 
Q 2916 3584 3314 3078 
Q 3713 2572 3713 1747 
Q 3713 922 3314 415 
Q 2916 -91 2278 -91 
Q 1894 -91 1617 61 
Q 1341 213 1159 525 
z
M 3116 1747 
Q 3116 2381 2855 2742 
Q 2594 3103 2138 3103 
Q 1681 3103 1420 2742 
Q 1159 2381 1159 1747 
Q 1159 1113 1420 752 
Q 1681 391 2138 391 
Q 2594 391 2855 752 
Q 3116 1113 3116 1747 
z
" id="DejaVuSans-70" transform="scale(0.015625)"/>
       <path d="M 603 3500 
L 1178 3500 
L 1178 0 
L 603 0 
L 603 3500 
z
M 603 4863 
L 1178 4863 
L 1178 4134 
L 603 4134 
L 603 4863 
z
" id="DejaVuSans-69" transform="scale(0.015625)"/>
       <path d="M 2834 3397 
L 2834 2853 
Q 2591 2978 2328 3040 
Q 2066 3103 1784 3103 
Q 1356 3103 1142 2972 
Q 928 2841 928 2578 
Q 928 2378 1081 2264 
Q 1234 2150 1697 2047 
L 1894 2003 
Q 2506 1872 2764 1633 
Q 3022 1394 3022 966 
Q 3022 478 2636 193 
Q 2250 -91 1575 -91 
Q 1294 -91 989 -36 
Q 684 19 347 128 
L 347 722 
Q 666 556 975 473 
Q 1284 391 1588 391 
Q 1994 391 2212 530 
Q 2431 669 2431 922 
Q 2431 1156 2273 1281 
Q 2116 1406 1581 1522 
L 1381 1569 
Q 847 1681 609 1914 
Q 372 2147 372 2553 
Q 372 3047 722 3315 
Q 1072 3584 1716 3584 
Q 2034 3584 2315 3537 
Q 2597 3491 2834 3397 
z
" id="DejaVuSans-73" transform="scale(0.015625)"/>
       <path d="M 1959 3097 
Q 1497 3097 1228 2736 
Q 959 2375 959 1747 
Q 959 1119 1226 758 
Q 1494 397 1959 397 
Q 2419 397 2687 759 
Q 2956 1122 2956 1747 
Q 2956 2369 2687 2733 
Q 2419 3097 1959 3097 
z
M 1959 3584 
Q 2709 3584 3137 3096 
Q 3566 2609 3566 1747 
Q 3566 888 3137 398 
Q 2709 -91 1959 -91 
Q 1206 -91 779 398 
Q 353 888 353 1747 
Q 353 2609 779 3096 
Q 1206 3584 1959 3584 
z
" id="DejaVuSans-6f" transform="scale(0.015625)"/>
       <path d="M 2906 2969 
L 2906 4863 
L 3481 4863 
L 3481 0 
L 2906 0 
L 2906 525 
Q 2725 213 2448 61 
Q 2172 -91 1784 -91 
Q 1150 -91 751 415 
Q 353 922 353 1747 
Q 353 2572 751 3078 
Q 1150 3584 1784 3584 
Q 2172 3584 2448 3432 
Q 2725 3281 2906 2969 
z
M 947 1747 
Q 947 1113 1208 752 
Q 1469 391 1925 391 
Q 2381 391 2643 752 
Q 2906 1113 2906 1747 
Q 2906 2381 2643 2742 
Q 2381 3103 1925 3103 
Q 1469 3103 1208 2742 
Q 947 2381 947 1747 
z
" id="DejaVuSans-64" transform="scale(0.015625)"/>
       <path d="M 3597 1894 
L 3597 1613 
L 953 1613 
Q 991 1019 1311 708 
Q 1631 397 2203 397 
Q 2534 397 2845 478 
Q 3156 559 3463 722 
L 3463 178 
Q 3153 47 2828 -22 
Q 2503 -91 2169 -91 
Q 1331 -91 842 396 
Q 353 884 353 1716 
Q 353 2575 817 3079 
Q 1281 3584 2069 3584 
Q 2775 3584 3186 3129 
Q 3597 2675 3597 1894 
z
M 3022 2063 
Q 3016 2534 2758 2815 
Q 2500 3097 2075 3097 
Q 1594 3097 1305 2825 
Q 1016 2553 972 2059 
L 3022 2063 
z
" id="DejaVuSans-65" transform="scale(0.015625)"/>
      </defs>
      <use xlink:href="#DejaVuSans-45"/>
      <use x="63.183594" xlink:href="#DejaVuSans-70"/>
      <use x="126.660156" xlink:href="#DejaVuSans-69"/>
      <use x="154.443359" xlink:href="#DejaVuSans-73"/>
      <use x="206.542969" xlink:href="#DejaVuSans-6f"/>
      <use x="267.724609" xlink:href="#DejaVuSans-64"/>
      <use x="331.201172" xlink:href="#DejaVuSans-65"/>
      <use x="392.724609" xlink:href="#DejaVuSans-73"/>
     </g>
    </g>
   </g>
   <g id="matplotlib.axis_2">
    <g id="ytick_1">
     <g id="line2d_15">
      <path clip-path="url(#padafe7e0f7)" d="M 57.6 295.030882 
L 414.72 295.030882 
" style="fill:none;stroke:#b0b0b0;stroke-linecap:square;stroke-width:0.8;"/>
     </g>
     <g id="line2d_16">
      <defs>
       <path d="M 0 0 
L -3.5 0 
" id="m5989b469b3" style="stroke:#000000;stroke-width:0.8;"/>
      </defs>
      <g>
       <use style="stroke:#000000;stroke-width:0.8;" x="57.6" xlink:href="#m5989b469b3" y="295.030882"/>
      </g>
     </g>
     <g id="text_9">
      <!-- −1.2 -->
      <g transform="translate(26.317187 298.830101)scale(0.1 -0.1)">
       <defs>
        <path d="M 678 2272 
L 4684 2272 
L 4684 1741 
L 678 1741 
L 678 2272 
z
" id="DejaVuSans-2212" transform="scale(0.015625)"/>
        <path d="M 684 794 
L 1344 794 
L 1344 0 
L 684 0 
L 684 794 
z
" id="DejaVuSans-2e" transform="scale(0.015625)"/>
       </defs>
       <use xlink:href="#DejaVuSans-2212"/>
       <use x="83.789062" xlink:href="#DejaVuSans-31"/>
       <use x="147.412109" xlink:href="#DejaVuSans-2e"/>
       <use x="179.199219" xlink:href="#DejaVuSans-32"/>
      </g>
     </g>
    </g>
    <g id="ytick_2">
     <g id="line2d_17">
      <path clip-path="url(#padafe7e0f7)" d="M 57.6 255.610474 
L 414.72 255.610474 
" style="fill:none;stroke:#b0b0b0;stroke-linecap:square;stroke-width:0.8;"/>
     </g>
     <g id="line2d_18">
      <g>
       <use style="stroke:#000000;stroke-width:0.8;" x="57.6" xlink:href="#m5989b469b3" y="255.610474"/>
      </g>
     </g>
     <g id="text_10">
      <!-- −1.0 -->
      <g transform="translate(26.317187 259.409692)scale(0.1 -0.1)">
       <use xlink:href="#DejaVuSans-2212"/>
       <use x="83.789062" xlink:href="#DejaVuSans-31"/>
       <use x="147.412109" xlink:href="#DejaVuSans-2e"/>
       <use x="179.199219" xlink:href="#DejaVuSans-30"/>
      </g>
     </g>
    </g>
    <g id="ytick_3">
     <g id="line2d_19">
      <path clip-path="url(#padafe7e0f7)" d="M 57.6 216.190065 
L 414.72 216.190065 
" style="fill:none;stroke:#b0b0b0;stroke-linecap:square;stroke-width:0.8;"/>
     </g>
     <g id="line2d_20">
      <g>
       <use style="stroke:#000000;stroke-width:0.8;" x="57.6" xlink:href="#m5989b469b3" y="216.190065"/>
      </g>
     </g>
     <g id="text_11">
      <!-- −0.8 -->
      <g transform="translate(26.317187 219.989283)scale(0.1 -0.1)">
       <defs>
        <path d="M 2034 2216 
Q 1584 2216 1326 1975 
Q 1069 1734 1069 1313 
Q 1069 891 1326 650 
Q 1584 409 2034 409 
Q 2484 409 2743 651 
Q 3003 894 3003 1313 
Q 3003 1734 2745 1975 
Q 2488 2216 2034 2216 
z
M 1403 2484 
Q 997 2584 770 2862 
Q 544 3141 544 3541 
Q 544 4100 942 4425 
Q 1341 4750 2034 4750 
Q 2731 4750 3128 4425 
Q 3525 4100 3525 3541 
Q 3525 3141 3298 2862 
Q 3072 2584 2669 2484 
Q 3125 2378 3379 2068 
Q 3634 1759 3634 1313 
Q 3634 634 3220 271 
Q 2806 -91 2034 -91 
Q 1263 -91 848 271 
Q 434 634 434 1313 
Q 434 1759 690 2068 
Q 947 2378 1403 2484 
z
M 1172 3481 
Q 1172 3119 1398 2916 
Q 1625 2713 2034 2713 
Q 2441 2713 2670 2916 
Q 2900 3119 2900 3481 
Q 2900 3844 2670 4047 
Q 2441 4250 2034 4250 
Q 1625 4250 1398 4047 
Q 1172 3844 1172 3481 
z
" id="DejaVuSans-38" transform="scale(0.015625)"/>
       </defs>
       <use xlink:href="#DejaVuSans-2212"/>
       <use x="83.789062" xlink:href="#DejaVuSans-30"/>
       <use x="147.412109" xlink:href="#DejaVuSans-2e"/>
       <use x="179.199219" xlink:href="#DejaVuSans-38"/>
      </g>
     </g>
    </g>
    <g id="ytick_4">
     <g id="line2d_21">
      <path clip-path="url(#padafe7e0f7)" d="M 57.6 176.769656 
L 414.72 176.769656 
" style="fill:none;stroke:#b0b0b0;stroke-linecap:square;stroke-width:0.8;"/>
     </g>
     <g id="line2d_22">
      <g>
       <use style="stroke:#000000;stroke-width:0.8;" x="57.6" xlink:href="#m5989b469b3" y="176.769656"/>
      </g>
     </g>
     <g id="text_12">
      <!-- −0.6 -->
      <g transform="translate(26.317187 180.568875)scale(0.1 -0.1)">
       <defs>
        <path d="M 2113 2584 
Q 1688 2584 1439 2293 
Q 1191 2003 1191 1497 
Q 1191 994 1439 701 
Q 1688 409 2113 409 
Q 2538 409 2786 701 
Q 3034 994 3034 1497 
Q 3034 2003 2786 2293 
Q 2538 2584 2113 2584 
z
M 3366 4563 
L 3366 3988 
Q 3128 4100 2886 4159 
Q 2644 4219 2406 4219 
Q 1781 4219 1451 3797 
Q 1122 3375 1075 2522 
Q 1259 2794 1537 2939 
Q 1816 3084 2150 3084 
Q 2853 3084 3261 2657 
Q 3669 2231 3669 1497 
Q 3669 778 3244 343 
Q 2819 -91 2113 -91 
Q 1303 -91 875 529 
Q 447 1150 447 2328 
Q 447 3434 972 4092 
Q 1497 4750 2381 4750 
Q 2619 4750 2861 4703 
Q 3103 4656 3366 4563 
z
" id="DejaVuSans-36" transform="scale(0.015625)"/>
       </defs>
       <use xlink:href="#DejaVuSans-2212"/>
       <use x="83.789062" xlink:href="#DejaVuSans-30"/>
       <use x="147.412109" xlink:href="#DejaVuSans-2e"/>
       <use x="179.199219" xlink:href="#DejaVuSans-36"/>
      </g>
     </g>
    </g>
    <g id="ytick_5">
     <g id="line2d_23">
      <path clip-path="url(#padafe7e0f7)" d="M 57.6 137.349247 
L 414.72 137.349247 
" style="fill:none;stroke:#b0b0b0;stroke-linecap:square;stroke-width:0.8;"/>
     </g>
     <g id="line2d_24">
      <g>
       <use style="stroke:#000000;stroke-width:0.8;" x="57.6" xlink:href="#m5989b469b3" y="137.349247"/>
      </g>
     </g>
     <g id="text_13">
      <!-- −0.4 -->
      <g transform="translate(26.317187 141.148466)scale(0.1 -0.1)">
       <defs>
        <path d="M 2419 4116 
L 825 1625 
L 2419 1625 
L 2419 4116 
z
M 2253 4666 
L 3047 4666 
L 3047 1625 
L 3713 1625 
L 3713 1100 
L 3047 1100 
L 3047 0 
L 2419 0 
L 2419 1100 
L 313 1100 
L 313 1709 
L 2253 4666 
z
" id="DejaVuSans-34" transform="scale(0.015625)"/>
       </defs>
       <use xlink:href="#DejaVuSans-2212"/>
       <use x="83.789062" xlink:href="#DejaVuSans-30"/>
       <use x="147.412109" xlink:href="#DejaVuSans-2e"/>
       <use x="179.199219" xlink:href="#DejaVuSans-34"/>
      </g>
     </g>
    </g>
    <g id="ytick_6">
     <g id="line2d_25">
      <path clip-path="url(#padafe7e0f7)" d="M 57.6 97.928838 
L 414.72 97.928838 
" style="fill:none;stroke:#b0b0b0;stroke-linecap:square;stroke-width:0.8;"/>
     </g>
     <g id="line2d_26">
      <g>
       <use style="stroke:#000000;stroke-width:0.8;" x="57.6" xlink:href="#m5989b469b3" y="97.928838"/>
      </g>
     </g>
     <g id="text_14">
      <!-- −0.2 -->
      <g transform="translate(26.317187 101.728057)scale(0.1 -0.1)">
       <use xlink:href="#DejaVuSans-2212"/>
       <use x="83.789062" xlink:href="#DejaVuSans-30"/>
       <use x="147.412109" xlink:href="#DejaVuSans-2e"/>
       <use x="179.199219" xlink:href="#DejaVuSans-32"/>
      </g>
     </g>
    </g>
    <g id="ytick_7">
     <g id="line2d_27">
      <path clip-path="url(#padafe7e0f7)" d="M 57.6 58.508429 
L 414.72 58.508429 
" style="fill:none;stroke:#b0b0b0;stroke-linecap:square;stroke-width:0.8;"/>
     </g>
     <g id="line2d_28">
      <g>
       <use style="stroke:#000000;stroke-width:0.8;" x="57.6" xlink:href="#m5989b469b3" y="58.508429"/>
      </g>
     </g>
     <g id="text_15">
      <!-- 0.0 -->
      <g transform="translate(34.696875 62.307648)scale(0.1 -0.1)">
       <use xlink:href="#DejaVuSans-30"/>
       <use x="63.623047" xlink:href="#DejaVuSans-2e"/>
       <use x="95.410156" xlink:href="#DejaVuSans-30"/>
      </g>
     </g>
    </g>
    <g id="text_16">
     <!-- Cumulative Reward -->
     <g transform="translate(20.2375 223.275656)rotate(-90)scale(0.1 -0.1)">
      <defs>
       <path d="M 4122 4306 
L 4122 3641 
Q 3803 3938 3442 4084 
Q 3081 4231 2675 4231 
Q 1875 4231 1450 3742 
Q 1025 3253 1025 2328 
Q 1025 1406 1450 917 
Q 1875 428 2675 428 
Q 3081 428 3442 575 
Q 3803 722 4122 1019 
L 4122 359 
Q 3791 134 3420 21 
Q 3050 -91 2638 -91 
Q 1578 -91 968 557 
Q 359 1206 359 2328 
Q 359 3453 968 4101 
Q 1578 4750 2638 4750 
Q 3056 4750 3426 4639 
Q 3797 4528 4122 4306 
z
" id="DejaVuSans-43" transform="scale(0.015625)"/>
       <path d="M 544 1381 
L 544 3500 
L 1119 3500 
L 1119 1403 
Q 1119 906 1312 657 
Q 1506 409 1894 409 
Q 2359 409 2629 706 
Q 2900 1003 2900 1516 
L 2900 3500 
L 3475 3500 
L 3475 0 
L 2900 0 
L 2900 538 
Q 2691 219 2414 64 
Q 2138 -91 1772 -91 
Q 1169 -91 856 284 
Q 544 659 544 1381 
z
M 1991 3584 
L 1991 3584 
z
" id="DejaVuSans-75" transform="scale(0.015625)"/>
       <path d="M 3328 2828 
Q 3544 3216 3844 3400 
Q 4144 3584 4550 3584 
Q 5097 3584 5394 3201 
Q 5691 2819 5691 2113 
L 5691 0 
L 5113 0 
L 5113 2094 
Q 5113 2597 4934 2840 
Q 4756 3084 4391 3084 
Q 3944 3084 3684 2787 
Q 3425 2491 3425 1978 
L 3425 0 
L 2847 0 
L 2847 2094 
Q 2847 2600 2669 2842 
Q 2491 3084 2119 3084 
Q 1678 3084 1418 2786 
Q 1159 2488 1159 1978 
L 1159 0 
L 581 0 
L 581 3500 
L 1159 3500 
L 1159 2956 
Q 1356 3278 1631 3431 
Q 1906 3584 2284 3584 
Q 2666 3584 2933 3390 
Q 3200 3197 3328 2828 
z
" id="DejaVuSans-6d" transform="scale(0.015625)"/>
       <path d="M 603 4863 
L 1178 4863 
L 1178 0 
L 603 0 
L 603 4863 
z
" id="DejaVuSans-6c" transform="scale(0.015625)"/>
       <path d="M 2194 1759 
Q 1497 1759 1228 1600 
Q 959 1441 959 1056 
Q 959 750 1161 570 
Q 1363 391 1709 391 
Q 2188 391 2477 730 
Q 2766 1069 2766 1631 
L 2766 1759 
L 2194 1759 
z
M 3341 1997 
L 3341 0 
L 2766 0 
L 2766 531 
Q 2569 213 2275 61 
Q 1981 -91 1556 -91 
Q 1019 -91 701 211 
Q 384 513 384 1019 
Q 384 1609 779 1909 
Q 1175 2209 1959 2209 
L 2766 2209 
L 2766 2266 
Q 2766 2663 2505 2880 
Q 2244 3097 1772 3097 
Q 1472 3097 1187 3025 
Q 903 2953 641 2809 
L 641 3341 
Q 956 3463 1253 3523 
Q 1550 3584 1831 3584 
Q 2591 3584 2966 3190 
Q 3341 2797 3341 1997 
z
" id="DejaVuSans-61" transform="scale(0.015625)"/>
       <path d="M 1172 4494 
L 1172 3500 
L 2356 3500 
L 2356 3053 
L 1172 3053 
L 1172 1153 
Q 1172 725 1289 603 
Q 1406 481 1766 481 
L 2356 481 
L 2356 0 
L 1766 0 
Q 1100 0 847 248 
Q 594 497 594 1153 
L 594 3053 
L 172 3053 
L 172 3500 
L 594 3500 
L 594 4494 
L 1172 4494 
z
" id="DejaVuSans-74" transform="scale(0.015625)"/>
       <path d="M 191 3500 
L 800 3500 
L 1894 563 
L 2988 3500 
L 3597 3500 
L 2284 0 
L 1503 0 
L 191 3500 
z
" id="DejaVuSans-76" transform="scale(0.015625)"/>
       <path id="DejaVuSans-20" transform="scale(0.015625)"/>
       <path d="M 2841 2188 
Q 3044 2119 3236 1894 
Q 3428 1669 3622 1275 
L 4263 0 
L 3584 0 
L 2988 1197 
Q 2756 1666 2539 1819 
Q 2322 1972 1947 1972 
L 1259 1972 
L 1259 0 
L 628 0 
L 628 4666 
L 2053 4666 
Q 2853 4666 3247 4331 
Q 3641 3997 3641 3322 
Q 3641 2881 3436 2590 
Q 3231 2300 2841 2188 
z
M 1259 4147 
L 1259 2491 
L 2053 2491 
Q 2509 2491 2742 2702 
Q 2975 2913 2975 3322 
Q 2975 3731 2742 3939 
Q 2509 4147 2053 4147 
L 1259 4147 
z
" id="DejaVuSans-52" transform="scale(0.015625)"/>
       <path d="M 269 3500 
L 844 3500 
L 1563 769 
L 2278 3500 
L 2956 3500 
L 3675 769 
L 4391 3500 
L 4966 3500 
L 4050 0 
L 3372 0 
L 2619 2869 
L 1863 0 
L 1184 0 
L 269 3500 
z
" id="DejaVuSans-77" transform="scale(0.015625)"/>
       <path d="M 2631 2963 
Q 2534 3019 2420 3045 
Q 2306 3072 2169 3072 
Q 1681 3072 1420 2755 
Q 1159 2438 1159 1844 
L 1159 0 
L 581 0 
L 581 3500 
L 1159 3500 
L 1159 2956 
Q 1341 3275 1631 3429 
Q 1922 3584 2338 3584 
Q 2397 3584 2469 3576 
Q 2541 3569 2628 3553 
L 2631 2963 
z
" id="DejaVuSans-72" transform="scale(0.015625)"/>
      </defs>
      <use xlink:href="#DejaVuSans-43"/>
      <use x="69.824219" xlink:href="#DejaVuSans-75"/>
      <use x="133.203125" xlink:href="#DejaVuSans-6d"/>
      <use x="230.615234" xlink:href="#DejaVuSans-75"/>
      <use x="293.994141" xlink:href="#DejaVuSans-6c"/>
      <use x="321.777344" xlink:href="#DejaVuSans-61"/>
      <use x="383.056641" xlink:href="#DejaVuSans-74"/>
      <use x="422.265625" xlink:href="#DejaVuSans-69"/>
      <use x="450.048828" xlink:href="#DejaVuSans-76"/>
      <use x="509.228516" xlink:href="#DejaVuSans-65"/>
      <use x="570.751953" xlink:href="#DejaVuSans-20"/>
      <use x="602.539062" xlink:href="#DejaVuSans-52"/>
      <use x="667.521484" xlink:href="#DejaVuSans-65"/>
      <use x="729.044922" xlink:href="#DejaVuSans-77"/>
      <use x="810.832031" xlink:href="#DejaVuSans-61"/>
      <use x="872.111328" xlink:href="#DejaVuSans-72"/>
      <use x="911.474609" xlink:href="#DejaVuSans-64"/>
     </g>
    </g>
    <g id="text_17">
     <!-- 1e8 -->
     <g transform="translate(57.6 38.472)scale(0.1 -0.1)">
      <use xlink:href="#DejaVuSans-31"/>
      <use x="63.623047" xlink:href="#DejaVuSans-65"/>
      <use x="125.146484" xlink:href="#DejaVuSans-38"/>
     </g>
    </g>
   </g>
   <g id="line2d_29">
    <path clip-path="url(#padafe7e0f7)" d="M 57.6 107.347938 
L 57.71904 156.301755 
L 57.83808 101.594477 
L 57.95712 133.012151 
L 58.07616 107.347938 
L 58.1952 156.301755 
L 58.31424 101.594477 
L 58.43328 133.012151 
L 58.55232 107.347938 
L 58.67136 156.301755 
L 58.7904 101.594477 
L 58.90944 133.012151 
L 59.02848 107.347938 
L 59.14752 156.301755 
L 59.26656 101.594477 
L 59.3856 133.012151 
L 59.50464 107.347938 
L 59.62368 156.301755 
L 59.74272 101.594477 
L 59.86176 133.012151 
L 59.9808 107.347938 
L 60.09984 156.301755 
L 60.21888 101.594477 
L 60.33792 133.012151 
L 60.45696 107.347938 
L 60.576 156.301755 
L 60.69504 101.594477 
L 60.81408 133.012151 
L 60.93312 107.347938 
L 61.05216 156.301755 
L 61.1712 101.594477 
L 61.29024 133.012151 
L 61.40928 107.347938 
L 61.52832 156.301755 
L 61.64736 101.594477 
L 61.7664 133.012151 
L 61.88544 107.347938 
L 62.00448 156.301755 
L 62.12352 101.594477 
L 62.24256 133.012151 
L 62.3616 107.347938 
L 62.48064 156.301755 
L 62.59968 101.594477 
L 62.71872 133.012151 
L 62.83776 107.347938 
L 62.9568 156.301755 
L 63.07584 101.594477 
L 63.19488 133.012151 
L 63.31392 107.347938 
L 63.43296 156.301755 
L 63.552 101.594477 
L 63.67104 133.012151 
L 63.79008 107.347938 
L 63.90912 156.301755 
L 64.02816 101.594477 
L 64.1472 133.012151 
L 64.26624 107.347938 
L 64.38528 156.301755 
L 64.50432 101.594477 
L 64.62336 133.012151 
L 64.7424 107.347938 
L 64.86144 156.301755 
L 64.98048 101.594477 
L 65.09952 133.012151 
L 65.21856 107.347938 
L 65.3376 156.301755 
L 65.45664 101.594477 
L 65.57568 133.012151 
L 65.69472 107.347938 
L 65.81376 156.301755 
L 65.9328 101.594477 
L 66.05184 133.012151 
L 66.17088 107.347938 
L 66.28992 156.301755 
L 66.40896 101.594477 
L 66.528 133.012151 
L 66.64704 107.347938 
L 66.76608 156.301755 
L 66.88512 101.594477 
L 67.00416 133.012151 
L 67.1232 107.347938 
L 67.24224 156.301755 
L 67.36128 101.594477 
L 67.48032 133.012151 
L 67.59936 107.347938 
L 67.7184 156.301755 
L 67.83744 101.594477 
L 67.95648 133.012151 
L 68.07552 107.347938 
L 68.19456 156.301755 
L 68.3136 101.594477 
L 68.43264 133.012151 
L 68.55168 107.347938 
L 68.67072 156.301755 
L 68.78976 101.594477 
L 68.9088 133.012151 
L 69.02784 107.347938 
L 69.14688 156.301755 
L 69.26592 101.594477 
L 69.38496 133.012151 
L 69.504 111.134488 
L 69.62304 123.572062 
L 69.74208 109.518764 
L 69.86112 140.568489 
L 69.98016 119.666803 
L 70.0992 124.537078 
L 70.21824 98.076595 
L 70.33728 98.427922 
L 70.57536 117.717602 
L 70.6944 91.957863 
L 70.81344 126.773198 
L 70.93248 110.537253 
L 71.05152 111.629466 
L 71.17056 122.34172 
L 71.2896 96.196368 
L 71.40864 101.320809 
L 71.52768 98.424038 
L 71.64672 117.971246 
L 71.76576 92.302906 
L 71.8848 115.634065 
L 72.00384 107.514536 
L 72.12288 115.799602 
L 72.24192 111.392183 
L 72.36096 123.80303 
L 72.48 100.962025 
L 72.59904 105.238865 
L 72.71808 79.587938 
L 72.83712 90.888336 
L 72.95616 113.29499 
L 73.0752 93.350396 
L 73.31328 115.355502 
L 73.43232 96.194675 
L 73.55136 163.153826 
L 73.6704 83.230859 
L 73.78944 80.757423 
L 73.90848 92.633101 
L 74.02752 92.629442 
L 74.2656 138.119295 
L 74.50368 101.897813 
L 74.62272 90.290421 
L 74.74176 115.394552 
L 74.8608 79.252463 
L 75.21792 114.141973 
L 75.456 89.871694 
L 75.57504 106.58722 
L 75.69408 88.975488 
L 75.81312 92.40129 
L 75.93216 88.465003 
L 76.0512 93.294509 
L 76.17024 93.436798 
L 76.28928 113.223266 
L 76.40832 95.938313 
L 76.52736 112.46387 
L 76.6464 80.896169 
L 76.76544 98.426631 
L 76.88448 84.258733 
L 77.12256 97.100172 
L 77.2416 83.17524 
L 77.47968 106.631218 
L 77.59872 95.282536 
L 77.71776 119.304831 
L 77.8368 89.878396 
L 77.95584 92.689486 
L 78.07488 85.628765 
L 78.19392 111.448255 
L 78.31296 94.891285 
L 78.432 95.779352 
L 78.55104 85.90451 
L 78.67008 105.754711 
L 78.78912 92.378544 
L 79.0272 103.924988 
L 79.26528 83.94864 
L 79.38432 120.369313 
L 79.6224 89.34178 
L 79.74144 90.113655 
L 79.86048 104.990746 
L 79.97952 105.141582 
L 80.09856 119.144454 
L 80.2176 88.461159 
L 80.33664 92.472223 
L 80.45568 100.495004 
L 80.57472 84.847875 
L 80.69376 105.293483 
L 80.8128 104.859623 
L 80.93184 115.442168 
L 81.05088 85.037657 
L 81.16992 84.250192 
L 81.28896 85.939702 
L 81.408 81.27245 
L 81.52704 98.16757 
L 81.64608 79.741592 
L 81.76512 87.757518 
L 81.88416 81.407185 
L 82.0032 105.378564 
L 82.12224 86.015015 
L 82.24128 92.975411 
L 82.36032 88.692007 
L 82.47936 104.617573 
L 82.83648 69.420252 
L 83.31264 95.201237 
L 83.43168 82.51638 
L 83.55072 88.514383 
L 83.66976 103.839469 
L 83.7888 83.061715 
L 83.90784 85.950917 
L 84.02688 82.947337 
L 84.14592 88.741979 
L 84.26496 74.448257 
L 84.384 96.44099 
L 84.62208 73.107483 
L 84.74112 74.360943 
L 84.86016 73.01933 
L 85.09824 94.344383 
L 85.33632 79.708329 
L 85.45536 80.038964 
L 85.69344 98.634502 
L 86.05056 73.242124 
L 86.1696 84.446721 
L 86.28864 76.156207 
L 86.52672 84.902499 
L 86.64576 81.037405 
L 86.7648 83.486461 
L 86.88384 80.231469 
L 87.00288 83.626049 
L 87.12192 95.730581 
L 87.24096 80.851072 
L 87.36 90.942384 
L 87.47904 88.54457 
L 87.71712 73.878494 
L 87.83616 70.069651 
L 87.9552 74.892948 
L 88.07424 93.577879 
L 88.43136 72.573514 
L 88.78848 78.42355 
L 88.90752 74.418517 
L 89.02656 85.247491 
L 89.1456 76.956556 
L 89.26464 79.872138 
L 89.38368 75.166044 
L 89.50272 79.640238 
L 89.62176 77.772512 
L 89.7408 78.511958 
L 89.85984 74.612171 
L 89.97888 79.183964 
L 90.09792 69.389728 
L 90.21696 76.974851 
L 90.336 68.571439 
L 90.45504 70.335629 
L 90.57408 74.69858 
L 90.69312 89.697533 
L 90.9312 68.072516 
L 91.05024 74.089831 
L 91.16928 74.351387 
L 91.28832 78.444013 
L 91.40736 68.030411 
L 91.5264 86.095388 
L 91.64544 70.874905 
L 91.76448 87.213796 
L 91.88352 75.054296 
L 92.00256 76.748161 
L 92.1216 99.439262 
L 92.24064 69.105228 
L 92.59776 76.207999 
L 92.7168 89.109508 
L 92.83584 79.396213 
L 92.95488 79.365818 
L 93.19296 68.943172 
L 93.55008 76.534065 
L 93.66912 70.31335 
L 93.78816 75.162783 
L 94.02624 71.22313 
L 94.14528 74.500128 
L 94.26432 81.94173 
L 94.5024 73.056126 
L 94.62144 75.694221 
L 94.74048 69.031205 
L 94.85952 82.605491 
L 94.97856 78.935026 
L 95.0976 81.30037 
L 95.33568 73.713711 
L 95.45472 76.171287 
L 95.57376 96.84053 
L 95.81184 73.549927 
L 95.93088 73.598555 
L 96.04992 89.781469 
L 96.16896 82.552816 
L 96.288 95.279236 
L 96.52608 75.640339 
L 96.64512 86.807097 
L 96.76416 68.156203 
L 96.8832 74.871996 
L 97.00224 75.012428 
L 97.12128 70.721645 
L 97.24032 72.30354 
L 97.35936 71.581477 
L 97.4784 66.784214 
L 97.59744 77.838341 
L 97.71648 100.044305 
L 97.95456 73.693699 
L 98.0736 70.834361 
L 98.19264 70.659301 
L 98.31168 76.465062 
L 98.43072 70.197562 
L 98.54976 71.13874 
L 98.6688 78.505006 
L 98.78784 77.338102 
L 98.90688 81.039526 
L 99.02592 76.958288 
L 99.14496 68.945826 
L 99.264 70.886117 
L 99.38304 74.818588 
L 99.50208 72.620892 
L 99.62112 91.642043 
L 99.74016 74.172541 
L 99.8592 76.162273 
L 100.09728 84.51928 
L 100.33536 68.980959 
L 100.4544 68.904772 
L 100.57344 74.750583 
L 100.69248 69.94261 
L 100.81152 72.203407 
L 100.93056 71.564471 
L 101.0496 85.536765 
L 101.16864 70.905376 
L 101.28768 86.239104 
L 101.52576 69.069929 
L 101.6448 74.483948 
L 101.76384 73.888467 
L 101.88288 74.651024 
L 102.00192 76.579234 
L 102.12096 66.756819 
L 102.24 72.054765 
L 102.35904 65.245657 
L 102.47808 67.609885 
L 102.59712 79.448534 
L 103.07328 67.273445 
L 103.19232 76.589876 
L 103.31136 64.515799 
L 103.4304 79.735292 
L 103.54944 71.722763 
L 103.66848 84.39215 
L 103.78752 72.504719 
L 103.90656 75.756396 
L 104.14464 69.21999 
L 104.26368 76.469062 
L 104.38272 67.472357 
L 104.50176 76.760966 
L 104.73984 68.775268 
L 105.09696 72.575664 
L 105.216 83.99982 
L 105.33504 71.367543 
L 105.45408 71.852276 
L 105.57312 70.566317 
L 105.69216 67.206432 
L 105.8112 70.820172 
L 105.93024 67.237882 
L 106.04928 67.595561 
L 106.16832 125.551933 
L 106.28736 72.869533 
L 106.4064 79.835877 
L 106.52544 72.453592 
L 106.64448 72.016786 
L 106.76352 91.540127 
L 107.0016 71.12859 
L 107.12064 68.130182 
L 107.23968 70.410401 
L 107.35872 67.946051 
L 107.47776 69.053484 
L 107.5968 68.10369 
L 107.71584 99.5568 
L 107.83488 93.818578 
L 107.95392 67.232816 
L 108.07296 70.871641 
L 108.192 84.917841 
L 108.31104 65.020916 
L 108.43008 70.841948 
L 108.54912 69.458279 
L 108.66816 76.860609 
L 108.90624 69.693108 
L 109.02528 70.522655 
L 109.14432 76.599506 
L 109.26336 66.642644 
L 109.3824 66.944556 
L 109.50144 71.810911 
L 109.62048 65.193364 
L 109.73952 70.561521 
L 109.85856 67.147029 
L 109.9776 77.52936 
L 110.21568 67.997725 
L 110.33472 72.748968 
L 110.45376 72.180605 
L 110.5728 73.965388 
L 110.69184 81.726222 
L 110.92992 77.358135 
L 111.168 63.648 
L 111.28704 67.323029 
L 111.40608 92.429202 
L 111.52512 77.764572 
L 111.64416 82.665096 
L 111.7632 66.184054 
L 111.88224 76.300483 
L 112.00128 70.389897 
L 112.12032 76.690572 
L 112.23936 63.652899 
L 112.3584 67.034726 
L 112.47744 65.374508 
L 112.71552 78.14856 
L 112.83456 93.942977 
L 113.07264 72.837764 
L 113.19168 75.202943 
L 113.31072 70.704543 
L 113.5488 86.357469 
L 113.78688 67.929988 
L 113.90592 76.999478 
L 114.02496 70.674075 
L 114.144 71.202398 
L 114.26304 72.767976 
L 114.38208 67.961067 
L 114.50112 83.805322 
L 114.7392 66.967597 
L 114.85824 69.393873 
L 114.97728 74.910401 
L 115.09632 66.28343 
L 115.21536 83.519499 
L 115.3344 72.181518 
L 115.45344 73.896766 
L 115.57248 78.414249 
L 115.69152 69.723218 
L 115.81056 85.272527 
L 115.9296 71.897374 
L 116.04864 93.205221 
L 116.16768 74.149871 
L 116.28672 76.754319 
L 116.5248 71.173334 
L 116.76288 96.557633 
L 117.00096 70.075083 
L 117.12 70.510483 
L 117.23904 77.065898 
L 117.35808 71.203748 
L 117.59616 86.551338 
L 117.7152 75.29966 
L 117.83424 77.686973 
L 117.95328 69.954491 
L 118.07232 71.118154 
L 118.19136 69.466683 
L 118.3104 84.261228 
L 118.42944 81.230216 
L 118.54848 70.743781 
L 118.66752 86.722606 
L 118.78656 70.986457 
L 118.9056 87.520891 
L 119.14368 67.617903 
L 119.38176 81.438889 
L 119.5008 91.185148 
L 119.61984 74.907682 
L 119.73888 80.509415 
L 120.096 68.914139 
L 120.21504 69.537359 
L 120.33408 75.539108 
L 120.45312 68.58875 
L 120.57216 69.413676 
L 120.6912 73.288223 
L 120.81024 65.641766 
L 120.92928 99.346792 
L 121.04832 70.211904 
L 121.2864 74.590154 
L 121.40544 76.213331 
L 121.52448 80.424347 
L 121.76256 70.998927 
L 121.8816 85.29212 
L 122.00064 68.69174 
L 122.11968 74.062591 
L 122.23872 86.043001 
L 122.4768 75.4059 
L 122.59584 77.431331 
L 122.71488 68.971321 
L 122.83392 79.631916 
L 123.072 68.028892 
L 123.19104 74.351491 
L 123.31008 68.288443 
L 123.42912 76.391976 
L 123.6672 69.05051 
L 123.90528 76.645708 
L 124.02432 71.664537 
L 124.2624 85.37063 
L 124.38144 71.275671 
L 124.50048 73.848904 
L 124.61952 67.813004 
L 124.73856 71.508415 
L 124.8576 68.447104 
L 124.97664 68.974374 
L 125.09568 77.228883 
L 125.33376 70.456993 
L 125.57184 71.389428 
L 125.69088 73.103047 
L 125.80992 76.472344 
L 125.92896 73.728857 
L 126.048 77.688401 
L 126.16704 76.732428 
L 126.28608 74.681295 
L 126.40512 87.665101 
L 126.52416 71.022437 
L 126.6432 86.769094 
L 126.88128 69.19453 
L 127.00032 86.902658 
L 127.11936 74.094304 
L 127.2384 84.328082 
L 127.47648 68.644857 
L 127.59552 86.594367 
L 127.95264 68.896232 
L 128.07168 89.137795 
L 128.19072 69.39196 
L 128.4288 77.208609 
L 128.54784 68.065171 
L 128.66688 86.194691 
L 128.78592 80.018698 
L 128.90496 94.550817 
L 129.024 76.203654 
L 129.14304 88.060948 
L 129.26208 71.588663 
L 129.38112 71.70471 
L 129.50016 81.908848 
L 129.6192 73.039779 
L 129.97632 79.986678 
L 130.45248 71.469541 
L 130.57152 75.006137 
L 130.69056 84.987904 
L 130.8096 72.037609 
L 130.92864 89.421809 
L 131.04768 70.986484 
L 131.16672 79.450357 
L 131.28576 75.363162 
L 131.4048 96.280872 
L 131.52384 75.878184 
L 131.64288 99.741732 
L 131.88096 73.487895 
L 132 69.164207 
L 132.23808 102.840074 
L 132.47616 71.368109 
L 132.5952 80.474342 
L 132.71424 72.98993 
L 132.83328 79.17727 
L 132.95232 77.122785 
L 133.07136 70.65628 
L 133.1904 76.677438 
L 133.30944 74.051377 
L 133.42848 111.70277 
L 133.66656 79.340733 
L 133.7856 75.444327 
L 134.14272 95.45402 
L 134.26176 82.339169 
L 134.3808 89.901046 
L 134.49984 73.97423 
L 134.73792 95.3554 
L 134.976 76.064878 
L 135.33312 91.881267 
L 135.45216 70.189696 
L 135.5712 70.386796 
L 135.69024 90.793357 
L 136.04736 70.99116 
L 136.1664 68.995987 
L 136.28544 79.299399 
L 136.40448 122.761411 
L 136.52352 76.114628 
L 136.64256 79.043461 
L 136.7616 85.875313 
L 136.88064 75.530829 
L 136.99968 99.946218 
L 137.11872 78.274631 
L 137.23776 81.060761 
L 137.3568 102.392362 
L 137.47584 69.533861 
L 137.71392 89.380078 
L 137.83296 88.444281 
L 137.952 82.321329 
L 138.07104 91.017562 
L 138.19008 84.692995 
L 138.30912 86.694314 
L 138.42816 83.04236 
L 138.5472 70.178168 
L 138.66624 82.660534 
L 138.90432 74.211441 
L 139.02336 79.669473 
L 139.1424 91.396328 
L 139.26144 89.815689 
L 139.38048 93.895978 
L 139.49952 116.040336 
L 139.7376 72.67343 
L 139.85664 79.490926 
L 139.97568 139.532583 
L 140.09472 74.301538 
L 140.21376 74.007434 
L 140.3328 85.886338 
L 140.45184 72.689093 
L 140.57088 94.152981 
L 140.68992 74.16388 
L 140.928 104.401381 
L 141.04704 75.064767 
L 141.16608 96.398575 
L 141.28512 95.802799 
L 141.5232 65.889858 
L 141.76128 100.071006 
L 141.88032 80.479287 
L 141.99936 102.077311 
L 142.23744 75.214673 
L 142.35648 75.239359 
L 142.47552 76.034874 
L 142.59456 80.611418 
L 142.7136 77.884095 
L 142.83264 90.758344 
L 142.95168 75.888305 
L 143.18976 80.993028 
L 143.3088 103.114136 
L 143.54688 79.305473 
L 143.78496 70.365534 
L 143.904 77.455055 
L 144.02304 76.571236 
L 144.14208 109.756808 
L 144.26112 72.163954 
L 144.38016 83.678219 
L 144.4992 82.453459 
L 144.61824 84.951505 
L 144.73728 77.262567 
L 144.85632 97.268367 
L 144.97536 74.610302 
L 145.21344 81.406532 
L 145.33248 102.647444 
L 145.45152 84.611537 
L 145.57056 95.760705 
L 145.80864 77.26631 
L 145.92768 110.907543 
L 146.04672 85.175954 
L 146.16576 84.558353 
L 146.2848 88.546516 
L 146.40384 86.00884 
L 146.64192 110.96782 
L 146.88 82.323727 
L 146.99904 105.072992 
L 147.11808 77.818414 
L 147.23712 88.440241 
L 147.35616 119.059888 
L 147.4752 91.596183 
L 147.59424 90.68582 
L 147.71328 84.482623 
L 147.83232 120.768305 
L 148.0704 74.849523 
L 148.18944 74.754128 
L 148.30848 84.012142 
L 148.42752 69.132656 
L 148.54656 103.753795 
L 148.6656 79.382174 
L 148.78464 83.123086 
L 148.90368 91.081838 
L 149.02272 91.39438 
L 149.2608 77.60192 
L 149.37984 96.122519 
L 149.61792 70.865295 
L 149.73696 94.012812 
L 149.856 94.679863 
L 150.09408 70.974386 
L 150.33216 104.139752 
L 150.57024 77.546994 
L 150.68928 70.980415 
L 150.80832 93.821762 
L 150.92736 91.09537 
L 151.0464 94.240939 
L 151.16544 80.314971 
L 151.28448 80.586802 
L 151.52256 94.336979 
L 151.6416 119.578646 
L 151.87968 86.694448 
L 151.99872 82.068246 
L 152.11776 110.583296 
L 152.35584 92.338072 
L 152.47488 84.362983 
L 152.59392 93.521233 
L 152.71296 79.141294 
L 152.832 112.073226 
L 152.95104 85.525974 
L 153.07008 91.275923 
L 153.18912 72.657639 
L 153.30816 98.154562 
L 153.4272 92.855115 
L 153.54624 75.279689 
L 153.78432 95.529669 
L 153.90336 80.101594 
L 154.0224 88.711658 
L 154.14144 85.174099 
L 154.6176 107.823078 
L 154.73664 85.313958 
L 154.85568 94.764113 
L 154.97472 91.886635 
L 155.09376 97.406615 
L 155.2128 93.9089 
L 155.33184 103.034169 
L 155.45088 88.467348 
L 155.56992 95.452197 
L 155.808 113.390713 
L 155.92704 86.409589 
L 156.16512 117.49345 
L 156.4032 73.257177 
L 156.52224 100.56824 
L 156.64128 84.546817 
L 156.76032 96.046528 
L 156.87936 78.800003 
L 156.9984 124.821205 
L 157.35552 90.782911 
L 157.47456 95.613189 
L 157.71264 93.978735 
L 157.83168 94.90661 
L 157.95072 77.548549 
L 158.30784 109.011119 
L 158.54592 144.51418 
L 158.66496 78.523208 
L 158.90304 91.193795 
L 159.02208 163.039567 
L 159.14112 78.325767 
L 159.26016 154.536878 
L 159.49824 79.541183 
L 159.61728 103.655934 
L 159.73632 86.408176 
L 159.85536 104.344 
L 159.9744 92.388574 
L 160.09344 105.499047 
L 160.21248 82.380302 
L 160.33152 116.723996 
L 160.5696 84.31662 
L 160.92672 99.94213 
L 161.04576 90.351773 
L 161.1648 101.263936 
L 161.28384 87.120619 
L 161.40288 109.487118 
L 161.52192 85.388255 
L 161.64096 97.244102 
L 161.76 89.394341 
L 161.87904 105.065314 
L 162.11712 90.24826 
L 162.23616 84.092363 
L 162.3552 107.235734 
L 162.47424 102.020263 
L 162.59328 110.623098 
L 162.71232 88.532608 
L 162.83136 88.32951 
L 163.06944 131.492008 
L 163.30752 97.827944 
L 163.42656 98.070095 
L 163.5456 93.99696 
L 163.66464 101.348448 
L 163.78368 71.943409 
L 164.02176 107.972438 
L 164.25984 89.18078 
L 164.37888 77.64477 
L 164.61696 126.197138 
L 164.736 88.793653 
L 164.97408 110.569054 
L 165.09312 107.413774 
L 165.21216 107.407582 
L 165.3312 104.745193 
L 165.45024 111.213608 
L 165.56928 88.049729 
L 165.68832 90.465658 
L 165.9264 100.549303 
L 166.16448 87.138971 
L 166.28352 93.616891 
L 166.40256 93.257529 
L 166.64064 76.92287 
L 166.75968 130.449483 
L 166.87872 88.329875 
L 167.1168 109.705862 
L 167.23584 156.915175 
L 167.35488 81.876662 
L 167.47392 97.067138 
L 167.59296 127.601297 
L 167.83104 100.408117 
L 168.06912 93.374688 
L 168.18816 92.895606 
L 168.3072 83.475024 
L 168.42624 93.703058 
L 168.54528 84.168178 
L 168.66432 85.143721 
L 168.78336 102.24329 
L 168.9024 79.041317 
L 169.14048 120.488002 
L 169.25952 88.006935 
L 169.4976 86.352947 
L 169.61664 144.64321 
L 169.73568 84.509041 
L 169.97376 139.206321 
L 170.0928 100.5985 
L 170.21184 100.643019 
L 170.33088 90.225882 
L 170.44992 99.593788 
L 170.56896 83.308667 
L 170.688 121.842133 
L 170.80704 77.924319 
L 171.04512 95.890127 
L 171.16416 86.769877 
L 171.2832 97.243802 
L 171.40224 87.854108 
L 171.52128 96.105548 
L 171.64032 88.053098 
L 171.75936 107.473759 
L 171.99744 80.15884 
L 172.11648 111.674177 
L 172.35456 99.82029 
L 172.59264 91.304037 
L 172.71168 111.600504 
L 172.83072 81.508848 
L 172.94976 111.910985 
L 173.0688 101.765965 
L 173.18784 111.687103 
L 173.30688 90.100481 
L 173.42592 93.611166 
L 173.54496 91.15316 
L 173.664 85.908243 
L 173.78304 107.653845 
L 174.02112 96.743533 
L 174.2592 91.097271 
L 174.37824 71.860166 
L 174.49728 131.605748 
L 174.61632 84.006302 
L 174.8544 110.847374 
L 174.97344 103.117218 
L 175.09248 137.728372 
L 175.21152 93.694558 
L 175.33056 98.463964 
L 175.4496 97.491903 
L 175.56864 119.441474 
L 175.68768 89.228928 
L 175.80672 96.41973 
L 175.92576 95.179499 
L 176.16384 115.254546 
L 176.28288 84.241026 
L 176.52096 102.619991 
L 176.64 107.436077 
L 176.75904 90.075227 
L 176.87808 119.555678 
L 176.99712 111.835376 
L 177.11616 117.163198 
L 177.2352 116.307005 
L 177.35424 121.714484 
L 177.47328 78.521265 
L 177.71136 126.055961 
L 177.8304 99.96605 
L 177.94944 120.259073 
L 178.06848 85.622805 
L 178.18752 99.238413 
L 178.30656 84.344083 
L 178.4256 93.532276 
L 178.66368 77.490638 
L 178.78272 100.564641 
L 179.0208 90.569702 
L 179.13984 108.22611 
L 179.25888 106.013954 
L 179.37792 107.136369 
L 179.49696 86.784501 
L 179.616 91.632094 
L 179.73504 118.909179 
L 179.85408 114.66006 
L 179.97312 86.123714 
L 180.09216 113.308707 
L 180.33024 94.148264 
L 180.56832 109.668085 
L 180.8064 99.265432 
L 180.92544 80.718238 
L 181.04448 83.398741 
L 181.16352 108.139156 
L 181.28256 85.685691 
L 181.4016 112.193763 
L 181.52064 106.884649 
L 181.63968 181.674437 
L 181.75872 104.858953 
L 181.87776 101.556791 
L 181.9968 125.335478 
L 182.23488 86.715462 
L 182.47296 97.887246 
L 182.592 132.757208 
L 182.83008 81.41194 
L 182.94912 88.28287 
L 183.06816 133.408268 
L 183.1872 80.504785 
L 183.42528 108.474086 
L 183.54432 104.460036 
L 183.66336 131.751767 
L 183.7824 90.773074 
L 183.90144 100.445835 
L 184.02048 84.460613 
L 184.13952 90.003615 
L 184.3776 105.282702 
L 184.49664 111.36131 
L 184.61568 76.042268 
L 184.73472 136.074855 
L 184.85376 122.093373 
L 184.9728 77.885659 
L 185.21088 92.798954 
L 185.32992 115.217944 
L 185.44896 110.949667 
L 185.568 99.547085 
L 185.68704 102.380003 
L 185.80608 78.974812 
L 185.92512 80.890965 
L 186.1632 96.28353 
L 186.28224 99.975706 
L 186.40128 108.463105 
L 186.52032 103.136209 
L 186.63936 109.389437 
L 186.87744 81.978459 
L 186.99648 86.614517 
L 187.11552 109.870304 
L 187.23456 87.140176 
L 187.3536 114.537038 
L 187.47264 107.523433 
L 187.71072 86.081117 
L 187.82976 140.030137 
L 187.9488 102.830186 
L 188.06784 135.539 
L 188.30592 86.441733 
L 188.42496 92.572684 
L 188.544 140.590198 
L 188.66304 98.814061 
L 188.78208 126.163868 
L 188.90112 86.326753 
L 189.02016 156.318622 
L 189.25824 91.042938 
L 189.37728 66.611014 
L 189.7344 101.310288 
L 189.85344 89.360016 
L 189.97248 92.028886 
L 190.21056 110.988197 
L 190.3296 93.451915 
L 190.68672 141.938515 
L 190.80576 98.196492 
L 190.9248 97.76704 
L 191.04384 96.579007 
L 191.16288 92.630674 
L 191.28192 103.919766 
L 191.40096 94.087738 
L 191.52 108.78795 
L 191.63904 88.235586 
L 191.75808 117.536239 
L 191.87712 92.072421 
L 191.99616 91.801224 
L 192.1152 112.521606 
L 192.35328 103.770695 
L 192.47232 118.672298 
L 192.59136 91.738026 
L 192.7104 90.854275 
L 192.82944 85.891629 
L 193.06752 98.570737 
L 193.18656 93.826481 
L 193.3056 72.57132 
L 193.54368 92.558758 
L 193.66272 96.972093 
L 193.9008 81.098482 
L 194.01984 86.494837 
L 194.25792 120.767177 
L 194.37696 81.554938 
L 194.61504 111.253883 
L 194.73408 98.74115 
L 194.85312 115.154253 
L 195.32928 74.284284 
L 195.44832 117.130419 
L 195.56736 83.782166 
L 195.6864 94.887362 
L 195.80544 91.642606 
L 195.92448 285.408 
L 196.16256 86.652242 
L 196.2816 83.165155 
L 196.40064 110.102245 
L 196.51968 87.083607 
L 196.63872 91.49836 
L 196.75776 102.382456 
L 196.8768 95.720782 
L 196.99584 104.435524 
L 197.11488 75.187847 
L 197.23392 83.330849 
L 197.35296 105.208463 
L 197.472 90.512029 
L 197.59104 135.688577 
L 197.71008 91.674925 
L 197.82912 94.215942 
L 198.0672 132.359301 
L 198.18624 88.59297 
L 198.30528 117.960409 
L 198.42432 95.808152 
L 198.54336 110.528354 
L 198.6624 89.104394 
L 198.78144 118.975605 
L 199.01952 88.453418 
L 199.13856 125.917712 
L 199.37664 90.09597 
L 199.49568 119.326353 
L 199.8528 77.736423 
L 199.97184 99.210171 
L 200.09088 89.483753 
L 200.20992 111.105168 
L 200.32896 83.320622 
L 200.448 95.654746 
L 200.56704 131.971104 
L 200.68608 95.255734 
L 200.80512 99.366214 
L 200.92416 88.209388 
L 201.0432 92.14132 
L 201.16224 83.970791 
L 201.40032 115.320845 
L 201.51936 117.217484 
L 201.6384 85.360797 
L 201.75744 92.237982 
L 201.87648 113.641359 
L 202.11456 89.289719 
L 202.35264 143.506404 
L 202.47168 95.039973 
L 202.59072 127.778086 
L 202.70976 80.832055 
L 203.06688 102.73258 
L 203.18592 80.099208 
L 203.30496 90.641119 
L 203.424 75.359587 
L 203.54304 89.287527 
L 203.66208 82.483933 
L 203.90016 115.447225 
L 204.0192 106.140065 
L 204.13824 84.106657 
L 204.25728 100.269852 
L 204.37632 97.174483 
L 204.49536 82.641762 
L 204.6144 86.716859 
L 204.73344 72.66389 
L 205.09056 104.24981 
L 205.32864 83.089268 
L 205.56672 106.440256 
L 205.68576 103.828142 
L 205.92384 113.829995 
L 206.16192 86.314294 
L 206.28096 106.077656 
L 206.4 92.931621 
L 206.51904 112.445974 
L 206.75712 81.479264 
L 206.87616 125.627618 
L 207.11424 90.778683 
L 207.23328 139.319358 
L 207.47136 95.74583 
L 207.5904 82.601179 
L 207.82848 94.046491 
L 208.06656 118.535961 
L 208.1856 87.794844 
L 208.42368 115.99405 
L 208.66176 89.183857 
L 208.7808 156.292006 
L 208.89984 90.809653 
L 209.01888 126.224332 
L 209.25696 90.66669 
L 209.376 93.182264 
L 209.73312 91.59366 
L 209.85216 103.672522 
L 209.9712 84.721622 
L 210.20928 86.480831 
L 210.32832 92.797653 
L 210.44736 85.227047 
L 210.5664 101.43895 
L 210.68544 89.653583 
L 210.80448 89.323197 
L 210.92352 111.685432 
L 211.04256 85.859392 
L 211.1616 88.843849 
L 211.28064 98.138439 
L 211.39968 73.155147 
L 211.63776 96.197303 
L 211.7568 126.080646 
L 211.87584 85.238256 
L 211.99488 105.577103 
L 212.23296 83.558404 
L 212.352 141.356903 
L 212.47104 90.233299 
L 212.59008 93.399118 
L 212.70912 117.972263 
L 212.82816 84.974808 
L 212.9472 107.024232 
L 213.06624 79.042369 
L 213.30432 117.935197 
L 213.5424 87.327374 
L 213.66144 78.241225 
L 213.78048 80.713098 
L 213.89952 110.197538 
L 214.1376 77.89931 
L 214.25664 107.413152 
L 214.37568 73.338311 
L 214.49472 112.02422 
L 214.61376 95.105877 
L 214.7328 107.216435 
L 214.85184 106.863521 
L 214.97088 161.484033 
L 215.08992 88.841245 
L 215.20896 94.127686 
L 215.328 120.388797 
L 215.56608 85.745951 
L 215.68512 106.288152 
L 215.80416 94.642787 
L 216.04224 111.789088 
L 216.16128 81.118292 
L 216.5184 96.853724 
L 216.63744 90.240019 
L 216.87552 116.086365 
L 216.99456 76.496462 
L 217.1136 108.28959 
L 217.47072 83.144082 
L 217.7088 106.284599 
L 217.82784 95.135895 
L 217.94688 101.839752 
L 218.06592 77.418746 
L 218.304 114.069444 
L 218.42304 113.138244 
L 218.54208 83.440632 
L 218.66112 83.324338 
L 218.78016 113.986615 
L 219.01824 91.102466 
L 219.25632 121.856267 
L 219.37536 99.442184 
L 219.4944 104.976374 
L 219.61344 149.826064 
L 219.85152 77.311215 
L 220.0896 106.682796 
L 220.20864 94.055163 
L 220.32768 170.214203 
L 220.44672 80.493607 
L 220.80384 130.550337 
L 220.92288 89.544176 
L 221.04192 89.539823 
L 221.16096 91.155834 
L 221.28 117.988331 
L 221.39904 85.132542 
L 221.51808 88.277424 
L 221.63712 124.310499 
L 221.75616 89.774413 
L 221.8752 124.46403 
L 221.99424 78.609815 
L 222.11328 126.495634 
L 222.35136 110.84248 
L 222.4704 109.487216 
L 222.58944 90.767007 
L 222.82752 104.911627 
L 222.94656 90.691079 
L 223.18464 93.623793 
L 223.30368 92.228512 
L 223.42272 84.825776 
L 223.77984 115.75708 
L 223.89888 89.49221 
L 224.01792 105.205092 
L 224.13696 100.311828 
L 224.256 147.933275 
L 224.49408 82.672952 
L 224.73216 133.889357 
L 224.97024 98.991842 
L 225.08928 105.019126 
L 225.20832 75.021125 
L 225.32736 83.583608 
L 225.4464 70.302322 
L 225.56544 136.884955 
L 225.68448 73.344257 
L 225.92256 93.980669 
L 226.0416 89.697309 
L 226.27968 105.83599 
L 226.51776 82.883633 
L 226.6368 137.724754 
L 226.75584 77.477425 
L 226.87488 106.419159 
L 226.99392 94.626954 
L 227.232 98.514123 
L 227.35104 88.601553 
L 227.47008 95.931997 
L 227.58912 126.474862 
L 227.70816 93.520721 
L 227.94624 136.72136 
L 228.06528 102.921273 
L 228.18432 102.58424 
L 228.30336 91.282482 
L 228.4224 93.251546 
L 228.54144 113.129926 
L 228.66048 90.387814 
L 228.77952 104.985716 
L 228.89856 87.385512 
L 229.0176 88.428987 
L 229.13664 140.124412 
L 229.37472 92.617706 
L 229.49376 93.096478 
L 229.6128 92.873457 
L 229.73184 121.365842 
L 229.96992 98.944442 
L 230.32704 83.472169 
L 230.56512 98.874063 
L 230.68416 89.896684 
L 230.8032 95.988844 
L 230.92224 96.020015 
L 231.04128 92.037276 
L 231.16032 100.639447 
L 231.27936 128.401528 
L 231.51744 96.50089 
L 231.63648 120.595973 
L 231.75552 97.925293 
L 231.87456 100.433528 
L 231.9936 82.206876 
L 232.11264 98.955085 
L 232.23168 73.360639 
L 232.35072 114.110735 
L 232.46976 85.370988 
L 232.5888 112.372814 
L 232.82688 83.431617 
L 232.94592 96.427245 
L 233.06496 141.011791 
L 233.184 140.789777 
L 233.30304 86.698999 
L 233.42208 98.672964 
L 233.54112 82.060524 
L 233.66016 139.136349 
L 233.7792 82.255009 
L 233.89824 104.537013 
L 234.25536 82.766525 
L 234.49344 109.92345 
L 234.61248 81.124075 
L 234.73152 134.155906 
L 234.85056 99.065905 
L 234.9696 133.62888 
L 235.08864 81.114798 
L 235.32672 104.133114 
L 235.44576 88.729769 
L 235.80288 111.237993 
L 235.92192 107.516864 
L 236.04096 177.356871 
L 236.16 91.004881 
L 236.27904 113.802599 
L 236.39808 81.531221 
L 236.63616 112.28455 
L 236.87424 90.710222 
L 237.11232 99.323845 
L 237.23136 94.838789 
L 237.3504 102.354749 
L 237.46944 82.931813 
L 237.70752 108.771005 
L 237.82656 100.96294 
L 237.9456 109.730805 
L 238.06464 136.683033 
L 238.18368 76.186151 
L 238.30272 105.359765 
L 238.42176 87.201359 
L 238.5408 115.450721 
L 238.65984 80.887559 
L 238.77888 96.023614 
L 238.89792 96.484057 
L 239.01696 130.544071 
L 239.136 93.220836 
L 239.25504 98.792109 
L 239.37408 87.798987 
L 239.49312 87.903453 
L 239.61216 103.086198 
L 239.85024 88.371769 
L 239.96928 102.93583 
L 240.08832 99.617545 
L 240.20736 71.024625 
L 240.3264 119.605407 
L 240.44544 108.380224 
L 240.56448 122.922696 
L 240.68352 82.535068 
L 240.80256 111.180608 
L 240.9216 75.288318 
L 241.04064 105.908039 
L 241.15968 105.894289 
L 241.27872 104.950311 
L 241.39776 141.401941 
L 241.63584 78.490229 
L 241.75488 124.423784 
L 241.99296 91.035349 
L 242.112 104.29129 
L 242.23104 92.527561 
L 242.35008 96.653839 
L 242.46912 95.421916 
L 242.58816 118.418408 
L 242.82624 76.848256 
L 242.94528 97.977177 
L 243.06432 77.825267 
L 243.18336 101.089228 
L 243.3024 84.584382 
L 243.42144 96.273257 
L 243.54048 96.156343 
L 243.65952 102.061447 
L 243.77856 78.491715 
L 243.8976 121.922054 
L 244.13568 86.626217 
L 244.37376 118.908741 
L 244.4928 94.991637 
L 244.61184 93.81271 
L 244.73088 84.983767 
L 244.96896 131.388766 
L 245.088 135.454224 
L 245.32608 92.82978 
L 245.44512 113.781201 
L 245.56416 98.789622 
L 245.6832 100.313653 
L 245.80224 99.918952 
L 245.92128 93.282832 
L 246.15936 101.406626 
L 246.2784 99.674467 
L 246.39744 90.68657 
L 246.51648 141.465385 
L 246.63552 108.432456 
L 246.75456 106.727241 
L 246.99264 76.012867 
L 247.23072 124.057069 
L 247.34976 108.863099 
L 247.4688 119.304981 
L 247.58784 88.266877 
L 247.82592 97.57087 
L 247.94496 88.175034 
L 248.064 104.653046 
L 248.18304 138.583253 
L 248.42112 102.338635 
L 248.54016 122.835704 
L 248.77824 75.927837 
L 248.89728 107.321202 
L 249.01632 83.814438 
L 249.2544 96.750771 
L 249.37344 73.685736 
L 249.61152 83.010134 
L 249.73056 99.739512 
L 249.8496 99.229842 
L 249.96864 99.750909 
L 250.08768 86.298624 
L 250.20672 94.104035 
L 250.32576 78.720065 
L 250.56384 122.476452 
L 250.68288 96.024035 
L 250.80192 99.203235 
L 250.92096 122.255727 
L 251.04 91.220089 
L 251.15904 94.363065 
L 251.27808 94.144742 
L 251.51616 83.702107 
L 251.75424 110.050294 
L 251.87328 95.412955 
L 251.99232 118.156465 
L 252.11136 177.32529 
L 252.2304 72.957826 
L 252.46848 117.40258 
L 252.58752 98.782531 
L 252.70656 112.597878 
L 252.94464 83.906784 
L 253.06368 93.94267 
L 253.18272 88.706375 
L 253.30176 136.886423 
L 253.4208 96.516523 
L 253.65888 111.907444 
L 253.77792 108.720833 
L 253.89696 68.391463 
L 254.13504 117.486128 
L 254.25408 114.839295 
L 254.37312 121.461566 
L 254.6112 89.382965 
L 254.73024 119.625198 
L 254.96832 80.185472 
L 255.08736 100.426615 
L 255.2064 100.340579 
L 255.32544 77.811863 
L 255.56352 93.324177 
L 255.68256 94.730076 
L 255.8016 109.307551 
L 255.92064 107.160719 
L 256.15872 90.657281 
L 256.3968 118.567186 
L 256.51584 88.715149 
L 256.63488 95.616675 
L 256.75392 95.260395 
L 256.87296 95.919385 
L 256.992 114.48121 
L 257.11104 106.842665 
L 257.23008 79.568654 
L 257.46816 109.770363 
L 257.70624 80.738348 
L 257.82528 78.542274 
L 257.94432 131.803207 
L 258.06336 84.439375 
L 258.30144 109.253166 
L 258.42048 120.129987 
L 258.53952 84.348111 
L 258.65856 89.900211 
L 258.7776 130.00358 
L 258.89664 92.588645 
L 259.01568 116.25944 
L 259.49184 85.260694 
L 259.61088 116.583187 
L 259.84896 108.487914 
L 259.968 79.101161 
L 260.08704 140.048248 
L 260.20608 119.765093 
L 260.32512 122.26664 
L 260.5632 115.574042 
L 260.80128 125.437828 
L 261.03936 81.822192 
L 261.39648 92.029206 
L 261.51552 126.261988 
L 261.63456 84.235819 
L 261.7536 86.663218 
L 261.87264 107.789197 
L 262.11072 91.277217 
L 262.22976 115.236965 
L 262.3488 76.022381 
L 262.46784 92.897901 
L 262.82496 75.860282 
L 262.944 95.316508 
L 263.06304 94.885781 
L 263.18208 114.274926 
L 263.42016 78.01217 
L 263.5392 96.206882 
L 263.65824 82.316801 
L 263.77728 91.03035 
L 263.89632 123.94559 
L 264.25344 80.783217 
L 264.49152 103.101483 
L 264.7296 97.546383 
L 264.84864 109.551155 
L 264.96768 102.585712 
L 265.08672 86.727462 
L 265.3248 137.354363 
L 265.56288 86.140166 
L 265.68192 78.796953 
L 265.80096 103.759213 
L 265.92 95.464422 
L 266.03904 99.029805 
L 266.15808 114.441818 
L 266.39616 85.833037 
L 266.5152 109.342417 
L 266.63424 99.169646 
L 266.75328 104.955685 
L 266.87232 99.606954 
L 266.99136 101.157215 
L 267.22944 77.245135 
L 267.34848 93.391246 
L 267.46752 73.028018 
L 267.58656 110.231859 
L 267.7056 104.557087 
L 267.82464 85.351762 
L 267.94368 91.771772 
L 268.06272 83.755543 
L 268.18176 102.25579 
L 268.3008 100.221495 
L 268.53888 88.659353 
L 268.65792 132.580582 
L 268.77696 98.915819 
L 268.896 108.541982 
L 269.13408 75.437277 
L 269.4912 118.652476 
L 269.61024 74.336148 
L 269.72928 104.600284 
L 269.84832 86.513925 
L 269.96736 95.596174 
L 270.0864 124.221178 
L 270.20544 86.360321 
L 270.32448 133.402151 
L 270.56256 94.428223 
L 270.6816 112.415974 
L 270.80064 86.778184 
L 270.91968 88.15084 
L 271.15776 132.842726 
L 271.2768 125.646476 
L 271.51488 78.478016 
L 271.63392 100.000979 
L 271.75296 83.186172 
L 271.99104 117.972467 
L 272.11008 93.873082 
L 272.22912 117.904663 
L 272.34816 75.972241 
L 272.4672 102.716654 
L 272.58624 104.448715 
L 272.70528 132.356416 
L 272.82432 86.508315 
L 272.94336 111.272895 
L 273.0624 94.813857 
L 273.18144 95.323075 
L 273.41952 107.916152 
L 273.6576 101.605064 
L 273.77664 77.785902 
L 273.89568 95.135336 
L 274.01472 76.462303 
L 274.13376 75.676483 
L 274.2528 99.739178 
L 274.37184 94.387839 
L 274.49088 98.265316 
L 274.60992 97.920956 
L 274.72896 150.316077 
L 274.848 85.527679 
L 274.96704 84.141258 
L 275.08608 115.56624 
L 275.20512 94.514969 
L 275.32416 97.61903 
L 275.4432 140.070399 
L 275.56224 90.183786 
L 275.68128 104.778871 
L 275.91936 76.890584 
L 276.0384 96.077488 
L 276.15744 89.606716 
L 276.27648 91.892431 
L 276.39552 81.913641 
L 276.51456 93.533774 
L 276.6336 92.966786 
L 276.75264 108.557627 
L 276.87168 99.022063 
L 276.99072 107.90715 
L 277.10976 127.099887 
L 277.2288 95.068423 
L 277.46688 119.022993 
L 277.70496 89.441766 
L 278.06208 105.673217 
L 278.18112 91.380598 
L 278.30016 91.465916 
L 278.4192 80.009061 
L 278.53824 107.246658 
L 278.65728 101.831461 
L 278.77632 77.92031 
L 278.89536 91.946738 
L 279.0144 138.555283 
L 279.25248 92.147056 
L 279.49056 85.953066 
L 279.72864 111.018092 
L 279.96672 79.259983 
L 280.08576 82.599161 
L 280.2048 96.588579 
L 280.32384 82.982371 
L 280.44288 157.316752 
L 280.68096 96.062912 
L 280.8 105.667694 
L 280.91904 105.481095 
L 281.03808 110.806866 
L 281.15712 125.512488 
L 281.27616 85.073173 
L 281.3952 93.396328 
L 281.63328 76.686195 
L 281.75232 112.874934 
L 281.87136 112.772904 
L 282.22848 89.195606 
L 282.34752 98.401238 
L 282.46656 83.155948 
L 282.5856 86.998527 
L 282.70464 119.362029 
L 282.82368 76.147502 
L 282.94272 115.709424 
L 283.06176 87.210655 
L 283.1808 86.223577 
L 283.41888 141.254676 
L 283.53792 82.406198 
L 283.776 105.406082 
L 283.89504 80.56422 
L 284.01408 112.388618 
L 284.13312 80.311079 
L 284.25216 96.304818 
L 284.3712 91.716065 
L 284.49024 93.174677 
L 284.60928 92.41649 
L 284.72832 101.13597 
L 284.84736 90.179607 
L 284.9664 95.9567 
L 285.08544 87.040677 
L 285.20448 102.601753 
L 285.32352 75.628047 
L 285.44256 112.029366 
L 285.5616 76.017997 
L 285.68064 90.226086 
L 285.79968 81.742185 
L 285.91872 108.989083 
L 286.03776 97.48512 
L 286.1568 100.583239 
L 286.27584 96.967332 
L 286.39488 81.464458 
L 286.63296 102.362331 
L 286.752 89.461207 
L 286.87104 131.027751 
L 286.99008 120.560267 
L 287.10912 72.366807 
L 287.3472 107.784197 
L 287.46624 105.655108 
L 287.58528 96.790583 
L 287.70432 79.235918 
L 287.9424 104.370143 
L 288.06144 107.394454 
L 288.18048 91.64618 
L 288.29952 97.890377 
L 288.5376 76.431543 
L 288.65664 96.078039 
L 288.77568 90.619234 
L 288.89472 71.075021 
L 289.01376 87.713057 
L 289.25184 73.113147 
L 289.48992 90.650608 
L 289.60896 83.047016 
L 289.728 117.66279 
L 289.84704 109.741362 
L 289.96608 115.004252 
L 290.08512 91.68025 
L 290.20416 130.489299 
L 290.3232 87.812414 
L 290.56128 91.267208 
L 290.68032 91.477698 
L 290.79936 85.763343 
L 290.9184 107.592176 
L 291.03744 102.650658 
L 291.15648 105.150505 
L 291.27552 123.33307 
L 291.39456 123.160994 
L 291.5136 119.332993 
L 291.63264 123.780646 
L 291.87072 76.248785 
L 292.1088 87.540206 
L 292.22784 70.573302 
L 292.34688 79.770669 
L 292.46592 123.945161 
L 292.58496 93.513035 
L 292.704 119.303352 
L 292.82304 89.347792 
L 292.94208 96.317665 
L 293.06112 95.015057 
L 293.18016 108.134316 
L 293.2992 94.056873 
L 293.41824 115.82218 
L 293.53728 96.146749 
L 293.65632 122.298341 
L 293.8944 81.854153 
L 294.01344 117.531739 
L 294.13248 78.102319 
L 294.37056 111.355563 
L 294.72768 76.732986 
L 294.84672 115.542923 
L 295.0848 72.40367 
L 295.20384 88.037716 
L 295.44192 125.465961 
L 295.68 87.362582 
L 296.15616 116.113076 
L 296.2752 95.878556 
L 296.39424 98.563458 
L 296.75136 81.207658 
L 296.8704 91.087463 
L 296.98944 126.08293 
L 297.22752 69.85383 
L 297.34656 101.535724 
L 297.4656 87.384671 
L 297.70368 109.687272 
L 297.82272 81.735209 
L 297.94176 130.891722 
L 298.0608 90.054691 
L 298.17984 96.880083 
L 298.29888 84.729534 
L 298.41792 93.896209 
L 298.53696 79.649775 
L 298.656 97.601136 
L 298.89408 82.852334 
L 299.01312 93.950216 
L 299.13216 132.01129 
L 299.2512 84.318108 
L 299.37024 90.818018 
L 299.48928 76.048196 
L 299.72736 107.113066 
L 299.8464 75.070954 
L 299.96544 120.926062 
L 300.08448 80.28134 
L 300.32256 81.845244 
L 300.4416 87.88546 
L 300.56064 104.738917 
L 300.79872 78.318502 
L 300.91776 112.843921 
L 301.0368 109.773558 
L 301.15584 122.219818 
L 301.27488 107.13061 
L 301.39392 113.251137 
L 301.632 95.101831 
L 301.75104 81.321375 
L 301.98912 103.22819 
L 302.2272 78.568608 
L 302.46528 130.438599 
L 302.58432 102.891586 
L 302.70336 102.652103 
L 302.8224 82.027884 
L 302.94144 83.15975 
L 303.06048 113.667308 
L 303.17952 95.92704 
L 303.29856 100.250944 
L 303.4176 100.42127 
L 303.53664 129.911923 
L 303.65568 106.297431 
L 303.77472 108.828291 
L 304.0128 98.73324 
L 304.13184 120.121796 
L 304.36992 85.607951 
L 304.48896 119.962769 
L 304.608 121.352936 
L 304.96512 87.179175 
L 305.08416 110.316976 
L 305.2032 94.180645 
L 305.32224 105.728983 
L 305.56032 86.554304 
L 305.67936 95.660684 
L 305.7984 92.361535 
L 305.91744 111.100537 
L 306.03648 86.652579 
L 306.15552 90.102897 
L 306.27456 140.038347 
L 306.3936 108.716004 
L 306.51264 119.082547 
L 306.63168 106.166096 
L 306.86976 117.149942 
L 306.9888 140.044911 
L 307.22688 86.74908 
L 307.34592 97.474911 
L 307.46496 96.649976 
L 307.584 99.214413 
L 307.70304 87.068708 
L 307.82208 96.066268 
L 307.94112 91.336602 
L 308.06016 81.120077 
L 308.29824 105.622375 
L 308.41728 95.917233 
L 308.65536 127.230818 
L 308.7744 77.547812 
L 308.89344 86.868038 
L 309.01248 119.975889 
L 309.13152 114.784236 
L 309.25056 90.145796 
L 309.48864 110.979526 
L 309.60768 90.482743 
L 309.72672 93.022466 
L 309.84576 106.639446 
L 309.9648 83.790969 
L 310.08384 84.709955 
L 310.20288 103.904012 
L 310.32192 88.045734 
L 310.44096 88.682518 
L 310.56 113.141995 
L 310.67904 89.328035 
L 310.79808 110.786939 
L 310.91712 96.974389 
L 311.03616 116.173535 
L 311.1552 87.066269 
L 311.27424 95.667808 
L 311.39328 137.922566 
L 311.51232 121.882561 
L 311.63136 139.987098 
L 311.86944 76.878317 
L 311.98848 85.861426 
L 312.10752 80.450756 
L 312.22656 105.536735 
L 312.46464 92.017976 
L 312.70272 107.074257 
L 312.82176 82.708708 
L 312.9408 98.607975 
L 313.05984 98.312606 
L 313.17888 87.195129 
L 313.41696 109.94997 
L 313.536 87.199591 
L 313.65504 89.986469 
L 313.89312 113.205727 
L 314.01216 144.094999 
L 314.1312 104.349041 
L 314.25024 123.949801 
L 314.36928 81.200844 
L 314.48832 90.816646 
L 314.7264 79.48645 
L 314.84544 90.895099 
L 314.96448 83.862279 
L 315.08352 90.05018 
L 315.20256 84.81037 
L 315.3216 84.627632 
L 315.44064 91.978014 
L 315.55968 116.751064 
L 315.67872 77.324724 
L 315.79776 80.623324 
L 315.9168 73.638766 
L 316.03584 100.83869 
L 316.15488 93.96358 
L 316.27392 114.131737 
L 316.39296 94.5467 
L 316.63104 118.714156 
L 316.75008 101.065537 
L 316.86912 100.973315 
L 316.98816 80.751089 
L 317.22624 145.621263 
L 317.34528 74.11091 
L 317.58336 116.840567 
L 317.7024 105.7561 
L 317.82144 79.652664 
L 318.05952 98.815247 
L 318.2976 86.836633 
L 318.53568 122.326936 
L 318.65472 119.32031 
L 318.77376 91.299051 
L 319.01184 109.177768 
L 319.24992 85.244924 
L 319.36896 81.20958 
L 319.488 84.622721 
L 319.60704 118.352163 
L 319.72608 106.00167 
L 319.84512 107.284473 
L 319.96416 84.024969 
L 320.20224 103.013908 
L 320.32128 84.659946 
L 320.55936 95.784282 
L 320.6784 96.377477 
L 320.79744 80.675974 
L 320.91648 125.623122 
L 321.15456 87.390298 
L 321.2736 98.798646 
L 321.39264 84.596053 
L 321.51168 86.97723 
L 321.63072 103.447945 
L 321.74976 152.499782 
L 321.98784 76.874562 
L 322.10688 77.710868 
L 322.464 103.848075 
L 322.58304 83.62812 
L 322.70208 128.833041 
L 322.82112 84.026475 
L 322.94016 93.25072 
L 323.0592 74.202197 
L 323.17824 80.352523 
L 323.29728 76.262255 
L 323.41632 132.584249 
L 323.53536 115.610503 
L 323.6544 135.463551 
L 323.77344 111.419755 
L 324.01152 119.432311 
L 324.13056 115.229328 
L 324.2496 132.849015 
L 324.36864 82.395544 
L 324.48768 83.035195 
L 324.60672 102.382966 
L 324.72576 103.233806 
L 324.8448 102.258383 
L 325.08288 83.732542 
L 325.55904 102.48157 
L 325.67808 87.841036 
L 325.79712 109.415638 
L 326.0352 78.062687 
L 326.15424 132.679972 
L 326.27328 77.579276 
L 326.39232 96.968653 
L 326.51136 77.967865 
L 326.74944 87.264379 
L 326.86848 90.308826 
L 326.98752 127.679022 
L 327.2256 74.453791 
L 327.46368 85.946735 
L 327.70176 91.749045 
L 327.8208 85.815041 
L 327.93984 90.290211 
L 328.05888 105.744106 
L 328.29696 96.253878 
L 328.416 96.157884 
L 328.53504 92.301273 
L 328.77312 111.026931 
L 328.89216 77.770957 
L 329.0112 76.150616 
L 329.13024 89.239876 
L 329.24928 126.925973 
L 329.48736 93.885303 
L 329.6064 119.200225 
L 329.72544 114.996861 
L 329.84448 147.848301 
L 330.2016 88.47272 
L 330.43968 148.106515 
L 330.55872 88.61807 
L 330.67776 91.711277 
L 330.7968 110.807974 
L 330.91584 82.884826 
L 331.15392 101.984448 
L 331.27296 99.870058 
L 331.392 125.953882 
L 331.63008 87.990488 
L 331.74912 94.423298 
L 331.86816 84.641298 
L 331.9872 93.055407 
L 332.10624 118.913816 
L 332.34432 96.075184 
L 332.46336 85.669702 
L 332.5824 88.924486 
L 332.70144 114.791765 
L 332.82048 83.586789 
L 333.05856 103.63133 
L 333.1776 105.482236 
L 333.29664 94.741307 
L 333.41568 101.5368 
L 333.7728 80.578958 
L 333.89184 89.243926 
L 334.01088 110.051021 
L 334.12992 79.463756 
L 334.24896 113.47146 
L 334.368 95.498767 
L 334.48704 108.852414 
L 334.60608 106.523738 
L 334.72512 79.265841 
L 334.84416 91.178072 
L 334.9632 78.361481 
L 335.08224 98.904787 
L 335.20128 86.27028 
L 335.32032 86.986924 
L 335.43936 69.681039 
L 335.5584 81.730086 
L 335.67744 105.393587 
L 335.79648 100.276379 
L 335.91552 108.716244 
L 336.1536 86.215636 
L 336.27264 130.071848 
L 336.39168 78.415627 
L 336.51072 88.094153 
L 336.62976 121.916834 
L 336.7488 70.235109 
L 336.86784 87.225041 
L 336.98688 79.437123 
L 337.10592 93.487955 
L 337.22496 84.288812 
L 337.344 96.864955 
L 337.46304 84.75881 
L 337.82016 116.782086 
L 337.9392 88.546399 
L 338.05824 117.255386 
L 338.17728 85.801024 
L 338.41536 105.807132 
L 338.5344 90.104324 
L 338.77248 145.682496 
L 339.01056 96.105346 
L 339.1296 127.037593 
L 339.36768 87.62192 
L 339.48672 106.338145 
L 339.7248 78.601386 
L 339.84384 97.233594 
L 339.96288 81.417803 
L 340.08192 105.627641 
L 340.20096 105.105243 
L 340.32 92.73392 
L 340.43904 108.729902 
L 340.67712 74.669925 
L 341.03424 151.543138 
L 341.5104 80.884951 
L 341.74848 140.317986 
L 341.86752 128.246328 
L 341.98656 92.561425 
L 342.22464 125.758929 
L 342.34368 86.966634 
L 342.46272 105.38697 
L 342.81984 83.448692 
L 342.93888 96.32283 
L 343.05792 80.374857 
L 343.17696 84.66766 
L 343.296 120.982949 
L 343.41504 91.550994 
L 343.53408 122.900353 
L 343.65312 78.147988 
L 343.77216 81.618507 
L 343.8912 102.933486 
L 344.01024 93.80097 
L 344.12928 169.398642 
L 344.36736 95.189551 
L 344.4864 100.995007 
L 344.60544 90.534575 
L 344.72448 96.101702 
L 344.84352 77.468338 
L 345.0816 140.09972 
L 345.20064 85.418744 
L 345.31968 83.832759 
L 345.43872 94.550828 
L 345.55776 67.341172 
L 345.6768 117.53474 
L 345.91488 83.016161 
L 346.03392 89.989661 
L 346.15296 84.540179 
L 346.272 106.47618 
L 346.51008 89.958704 
L 346.62912 95.660153 
L 346.8672 86.537071 
L 347.10528 103.996276 
L 347.22432 141.632155 
L 347.34336 91.20594 
L 347.4624 102.77917 
L 347.58144 89.255703 
L 347.70048 106.383252 
L 347.81952 100.935816 
L 347.93856 87.391381 
L 348.0576 98.652159 
L 348.17664 132.663091 
L 348.41472 110.608113 
L 348.53376 102.354463 
L 348.6528 86.169189 
L 348.77184 120.841952 
L 349.00992 85.403364 
L 349.12896 96.057568 
L 349.248 151.978512 
L 349.48608 90.284516 
L 349.60512 92.691326 
L 349.72416 108.097836 
L 349.8432 76.529353 
L 350.08128 99.52587 
L 350.20032 87.687326 
L 350.31936 103.062006 
L 350.4384 90.587121 
L 350.67648 111.074548 
L 350.91456 83.160126 
L 351.15264 134.17566 
L 351.27168 80.583328 
L 351.6288 123.034645 
L 351.74784 107.156245 
L 351.86688 113.165196 
L 352.10496 79.662571 
L 352.224 124.872643 
L 352.34304 123.914233 
L 352.46208 83.048153 
L 352.70016 109.676151 
L 352.8192 73.276287 
L 353.05728 95.146115 
L 353.17632 121.965438 
L 353.29536 99.126027 
L 353.4144 100.014367 
L 353.65248 87.65266 
L 353.77152 108.481577 
L 353.89056 77.887407 
L 354.0096 140.749915 
L 354.12864 81.903059 
L 354.24768 105.01675 
L 354.36672 103.946393 
L 354.48576 86.145791 
L 354.72384 100.893391 
L 354.84288 86.902585 
L 354.96192 104.392079 
L 355.08096 93.101451 
L 355.2 97.277702 
L 355.31904 84.058271 
L 355.43808 90.803673 
L 355.55712 91.094828 
L 355.67616 83.261892 
L 355.7952 96.096044 
L 355.91424 91.287622 
L 356.15232 76.583036 
L 356.3904 101.803823 
L 356.50944 101.909526 
L 356.74752 123.886109 
L 356.86656 95.491987 
L 356.9856 97.768667 
L 357.10464 106.522136 
L 357.22368 92.525319 
L 357.46176 99.680971 
L 357.5808 123.899527 
L 357.69984 75.790391 
L 358.05696 90.771387 
L 358.176 129.602201 
L 358.29504 131.044462 
L 358.53312 101.201017 
L 358.65216 141.103343 
L 358.89024 91.462587 
L 359.00928 127.143733 
L 359.12832 93.136573 
L 359.24736 120.887373 
L 359.48544 88.670246 
L 359.60448 98.317281 
L 359.72352 86.852794 
L 359.84256 88.453654 
L 359.9616 129.723746 
L 360.08064 84.853402 
L 360.5568 125.635276 
L 360.67584 88.381287 
L 360.79488 115.462022 
L 360.91392 82.168676 
L 361.03296 111.285398 
L 361.27104 83.925658 
L 361.50912 95.895163 
L 361.62816 92.177309 
L 361.7472 95.073903 
L 361.86624 80.716059 
L 361.98528 97.17961 
L 362.10432 94.01732 
L 362.22336 95.63649 
L 362.3424 86.778249 
L 362.46144 101.535509 
L 362.69952 81.82425 
L 362.9376 110.794798 
L 363.05664 92.739239 
L 363.29472 113.404649 
L 363.41376 89.741356 
L 363.5328 89.765985 
L 363.65184 92.410982 
L 363.77088 77.87697 
L 364.00896 100.167339 
L 364.24704 79.341905 
L 364.36608 111.932953 
L 364.48512 112.850585 
L 364.60416 87.003299 
L 364.7232 116.551121 
L 364.84224 80.88034 
L 364.96128 131.073656 
L 365.19936 95.559395 
L 365.3184 106.793332 
L 365.43744 99.534651 
L 365.67552 105.267709 
L 365.79456 86.644911 
L 365.9136 94.307911 
L 366.03264 85.640085 
L 366.27072 116.922337 
L 366.38976 95.780936 
L 366.5088 133.177388 
L 366.62784 93.923307 
L 366.74688 128.999767 
L 366.86592 118.067197 
L 366.98496 95.184525 
L 367.104 99.842596 
L 367.22304 85.670476 
L 367.34208 92.937297 
L 367.46112 91.394025 
L 367.58016 100.899885 
L 367.6992 77.930934 
L 367.81824 100.53744 
L 367.93728 79.982419 
L 368.05632 130.232972 
L 368.2944 88.629393 
L 368.41344 84.523621 
L 368.77056 103.538347 
L 368.8896 76.967028 
L 369.12768 101.076705 
L 369.24672 83.829272 
L 369.4848 105.108908 
L 369.72288 83.176351 
L 369.96096 111.38967 
L 370.19904 85.314199 
L 370.31808 84.07895 
L 370.55616 111.828163 
L 370.6752 82.132339 
L 370.79424 80.4818 
L 371.15136 109.15713 
L 371.2704 107.25224 
L 371.38944 89.506502 
L 371.62752 110.6958 
L 371.8656 71.283525 
L 372.10368 116.239879 
L 372.22272 85.451528 
L 372.34176 131.900552 
L 372.4608 102.995171 
L 372.57984 106.87446 
L 372.69888 101.112344 
L 372.81792 89.906543 
L 372.93696 89.474822 
L 373.056 93.203209 
L 373.17504 161.306702 
L 373.29408 77.943543 
L 373.41312 126.590727 
L 373.53216 83.619318 
L 373.77024 116.580657 
L 374.00832 82.352024 
L 374.12736 104.205556 
L 374.2464 95.627134 
L 374.36544 96.078947 
L 374.48448 99.262531 
L 374.60352 133.671446 
L 374.72256 122.148962 
L 374.8416 148.993364 
L 374.96064 127.850954 
L 375.07968 149.885492 
L 375.19872 91.151632 
L 375.31776 120.581589 
L 375.4368 85.601089 
L 375.67488 86.897265 
L 375.79392 86.359839 
L 375.91296 78.355115 
L 376.032 111.792582 
L 376.15104 76.249837 
L 376.50816 135.235535 
L 376.6272 90.659208 
L 376.74624 134.51456 
L 376.86528 80.257837 
L 376.98432 85.147329 
L 377.10336 85.04477 
L 377.34144 110.814815 
L 377.46048 98.595219 
L 377.57952 127.448798 
L 377.69856 126.72712 
L 377.93664 79.121206 
L 378.05568 131.1555 
L 378.29376 92.280239 
L 378.4128 111.633823 
L 378.53184 90.579505 
L 378.65088 95.747303 
L 378.76992 85.7241 
L 378.88896 91.770906 
L 379.12704 81.648422 
L 379.36512 130.4518 
L 379.6032 83.585674 
L 379.72224 114.604005 
L 379.84128 83.950565 
L 379.96032 86.036488 
L 380.07936 92.526915 
L 380.1984 112.011947 
L 380.43648 98.252263 
L 380.55552 106.201635 
L 380.67456 95.967145 
L 380.7936 108.757107 
L 380.91264 80.021028 
L 381.03168 93.637568 
L 381.26976 84.134887 
L 381.3888 85.951243 
L 381.50784 83.003601 
L 381.62688 73.300789 
L 381.74592 160.567356 
L 381.984 88.923075 
L 382.10304 96.976218 
L 382.22208 92.791013 
L 382.34112 105.653099 
L 382.5792 92.883229 
L 382.69824 124.84245 
L 382.81728 87.916061 
L 382.93632 96.687529 
L 383.05536 114.708207 
L 383.1744 100.719447 
L 383.29344 151.056501 
L 383.41248 81.752293 
L 383.65056 102.715268 
L 383.7696 97.913262 
L 383.88864 81.824631 
L 384.00768 95.097194 
L 384.12672 79.527356 
L 384.24576 114.510227 
L 384.3648 91.914472 
L 384.48384 104.693535 
L 384.60288 92.796153 
L 384.84096 111.821619 
L 384.96 76.980172 
L 385.31712 101.055031 
L 385.5552 83.846008 
L 385.67424 126.680451 
L 385.79328 79.170129 
L 385.91232 88.313085 
L 386.03136 78.908459 
L 386.26944 155.160884 
L 386.38848 88.439328 
L 386.50752 118.076262 
L 386.62656 95.232211 
L 386.86464 106.943534 
L 386.98368 94.101245 
L 387.10272 99.450491 
L 387.22176 81.086786 
L 387.3408 116.534876 
L 387.45984 94.788451 
L 387.57888 107.916539 
L 387.81696 94.18499 
L 388.05504 82.044172 
L 388.29312 106.101085 
L 388.41216 90.35839 
L 388.5312 97.578082 
L 388.65024 135.959368 
L 388.88832 84.489886 
L 389.00736 103.957791 
L 389.24544 75.148545 
L 389.36448 105.401938 
L 389.48352 91.789581 
L 389.60256 125.149912 
L 389.84064 80.125433 
L 389.95968 118.082849 
L 390.19776 87.995321 
L 390.3168 97.174501 
L 390.43584 81.619157 
L 390.55488 109.62295 
L 390.67392 105.228449 
L 390.79296 136.937172 
L 391.03104 86.232513 
L 391.15008 73.524131 
L 391.26912 110.535041 
L 391.38816 82.305695 
L 391.5072 102.988053 
L 391.62624 83.036407 
L 391.74528 156.626103 
L 391.98336 85.131655 
L 392.22144 108.684149 
L 392.34048 112.224041 
L 392.45952 95.808077 
L 392.57856 97.598885 
L 392.6976 112.597414 
L 392.93568 89.27177 
L 393.17376 100.378735 
L 393.2928 114.509549 
L 393.41184 92.502568 
L 393.53088 98.230489 
L 393.64992 126.869397 
L 393.76896 100.539874 
L 393.888 105.524683 
L 394.00704 147.999559 
L 394.12608 91.833746 
L 394.24512 123.665596 
L 394.36416 81.119995 
L 394.4832 95.712158 
L 394.60224 87.222035 
L 394.72128 118.484842 
L 394.95936 81.124022 
L 395.0784 114.33015 
L 395.19744 85.414553 
L 395.31648 95.015754 
L 395.55456 81.588133 
L 395.6736 84.408459 
L 395.79264 102.436667 
L 395.91168 95.668996 
L 396.03072 118.839486 
L 396.14976 99.041768 
L 396.38784 116.380449 
L 396.50688 80.329661 
L 396.62592 104.228277 
L 396.74496 99.495578 
L 396.864 84.920438 
L 396.98304 116.329006 
L 397.22112 99.516007 
L 397.34016 130.700591 
L 397.57824 84.805551 
L 397.81632 90.355216 
L 397.93536 115.163207 
L 398.0544 107.871151 
L 398.17344 93.520314 
L 398.29248 94.280988 
L 398.41152 80.339671 
L 398.53056 89.613467 
L 398.6496 108.90939 
L 398.76864 109.298872 
L 398.88768 74.417102 
L 399.00672 78.671534 
L 399.12576 98.202884 
L 399.2448 88.694291 
L 399.48288 106.626229 
L 399.60192 136.232658 
L 399.72096 74.680121 
L 399.84 80.51313 
L 399.95904 107.333427 
L 400.07808 87.480537 
L 400.19712 89.461038 
L 400.31616 111.014782 
L 400.55424 72.920086 
L 400.79232 110.976016 
L 401.0304 86.124452 
L 401.26848 131.302557 
L 401.38752 73.869971 
L 401.50656 89.445077 
L 401.6256 72.755237 
L 401.74464 84.311928 
L 401.86368 108.780028 
L 401.98272 82.290308 
L 402.10176 103.150747 
L 402.2208 73.31847 
L 402.33984 93.112635 
L 402.45888 90.47809 
L 402.57792 117.415322 
L 402.816 103.971955 
L 402.93504 123.576405 
L 403.05408 83.266107 
L 403.17312 118.883226 
L 403.29216 73.578957 
L 403.4112 110.522976 
L 403.53024 109.481286 
L 403.76832 83.664777 
L 404.0064 106.826978 
L 404.12544 116.819119 
L 404.48256 82.952346 
L 404.6016 121.533781 
L 404.72064 86.396843 
L 404.83968 125.639709 
L 404.95872 94.480323 
L 405.07776 94.755792 
L 405.1968 106.325871 
L 405.43488 70.834746 
L 405.55392 110.503314 
L 405.792 88.231739 
L 405.91104 88.907496 
L 406.03008 100.438031 
L 406.14912 75.714042 
L 406.26816 111.793897 
L 406.50624 85.363462 
L 406.62528 121.420754 
L 406.86336 81.164301 
L 406.9824 101.968104 
L 407.10144 97.15507 
L 407.33952 123.705581 
L 407.45856 94.094516 
L 407.5776 115.702467 
L 407.69664 82.834871 
L 407.93472 104.445997 
L 408.05376 100.575623 
L 408.1728 97.074234 
L 408.29184 88.071798 
L 408.41088 109.195319 
L 408.52992 90.964076 
L 408.768 97.655167 
L 408.88704 92.603 
L 409.00608 92.456086 
L 409.24416 99.15703 
L 409.3632 117.605157 
L 409.48224 75.949477 
L 409.60128 97.804061 
L 409.72032 84.457086 
L 409.83936 116.690889 
L 409.9584 111.553266 
L 410.07744 122.142546 
L 410.19648 91.826072 
L 410.31552 107.53919 
L 410.5536 75.402325 
L 410.67264 106.5176 
L 410.91072 87.507413 
L 411.02976 112.549664 
L 411.1488 90.204835 
L 411.26784 99.298261 
L 411.50592 167.798891 
L 411.744 99.902389 
L 411.98208 96.463389 
L 412.10112 104.697448 
L 412.22016 88.71711 
L 412.3392 98.564097 
L 412.45824 86.041848 
L 412.57728 122.424011 
L 412.69632 90.406219 
L 412.81536 94.359456 
L 412.9344 92.813712 
L 413.05344 81.585382 
L 413.17248 120.863044 
L 413.29152 95.499309 
L 413.41056 98.963308 
L 413.5296 81.626001 
L 413.64864 91.042898 
L 413.76768 83.790177 
L 413.88672 107.700419 
L 414.00576 100.985117 
L 414.1248 85.872723 
L 414.24384 129.017237 
L 414.36288 84.114479 
L 414.48192 87.069455 
L 414.60096 104.9739 
L 414.60096 104.9739 
" style="fill:none;stroke:#0000ff;stroke-linecap:square;stroke-width:1.5;"/>
   </g>
   <g id="patch_3">
    <path d="M 57.6 307.584 
L 57.6 41.472 
" style="fill:none;stroke:#000000;stroke-linecap:square;stroke-linejoin:miter;stroke-width:0.8;"/>
   </g>
   <g id="patch_4">
    <path d="M 414.72 307.584 
L 414.72 41.472 
" style="fill:none;stroke:#000000;stroke-linecap:square;stroke-linejoin:miter;stroke-width:0.8;"/>
   </g>
   <g id="patch_5">
    <path d="M 57.6 307.584 
L 414.72 307.584 
" style="fill:none;stroke:#000000;stroke-linecap:square;stroke-linejoin:miter;stroke-width:0.8;"/>
   </g>
   <g id="patch_6">
    <path d="M 57.6 41.472 
L 414.72 41.472 
" style="fill:none;stroke:#000000;stroke-linecap:square;stroke-linejoin:miter;stroke-width:0.8;"/>
   </g>
   <g id="legend_1">
    <g id="patch_7">
     <path d="M 282.321563 64.150125 
L 407.72 64.150125 
Q 409.72 64.150125 409.72 62.150125 
L 409.72 48.472 
Q 409.72 46.472 407.72 46.472 
L 282.321563 46.472 
Q 280.321563 46.472 280.321563 48.472 
L 280.321563 62.150125 
Q 280.321563 64.150125 282.321563 64.150125 
z
" style="fill:#ffffff;opacity:0.8;stroke:#cccccc;stroke-linejoin:miter;"/>
    </g>
    <g id="line2d_30">
     <path d="M 284.321563 54.570438 
L 304.321563 54.570438 
" style="fill:none;stroke:#0000ff;stroke-linecap:square;stroke-width:1.5;"/>
    </g>
    <g id="line2d_31"/>
    <g id="text_18">
     <!-- cumulative reward -->
     <g transform="translate(312.321563 58.070438)scale(0.1 -0.1)">
      <defs>
       <path d="M 3122 3366 
L 3122 2828 
Q 2878 2963 2633 3030 
Q 2388 3097 2138 3097 
Q 1578 3097 1268 2742 
Q 959 2388 959 1747 
Q 959 1106 1268 751 
Q 1578 397 2138 397 
Q 2388 397 2633 464 
Q 2878 531 3122 666 
L 3122 134 
Q 2881 22 2623 -34 
Q 2366 -91 2075 -91 
Q 1284 -91 818 406 
Q 353 903 353 1747 
Q 353 2603 823 3093 
Q 1294 3584 2113 3584 
Q 2378 3584 2631 3529 
Q 2884 3475 3122 3366 
z
" id="DejaVuSans-63" transform="scale(0.015625)"/>
      </defs>
      <use xlink:href="#DejaVuSans-63"/>
      <use x="54.980469" xlink:href="#DejaVuSans-75"/>
      <use x="118.359375" xlink:href="#DejaVuSans-6d"/>
      <use x="215.771484" xlink:href="#DejaVuSans-75"/>
      <use x="279.150391" xlink:href="#DejaVuSans-6c"/>
      <use x="306.933594" xlink:href="#DejaVuSans-61"/>
      <use x="368.212891" xlink:href="#DejaVuSans-74"/>
      <use x="407.421875" xlink:href="#DejaVuSans-69"/>
      <use x="435.205078" xlink:href="#DejaVuSans-76"/>
      <use x="494.384766" xlink:href="#DejaVuSans-65"/>
      <use x="555.908203" xlink:href="#DejaVuSans-20"/>
      <use x="587.695312" xlink:href="#DejaVuSans-72"/>
      <use x="626.558594" xlink:href="#DejaVuSans-65"/>
      <use x="688.082031" xlink:href="#DejaVuSans-77"/>
      <use x="769.869141" xlink:href="#DejaVuSans-61"/>
      <use x="831.148438" xlink:href="#DejaVuSans-72"/>
      <use x="870.511719" xlink:href="#DejaVuSans-64"/>
     </g>
    </g>
   </g>
  </g>
 </g>
 <defs>
  <clipPath id="padafe7e0f7">
   <rect height="266.112" width="357.12" x="57.6" y="41.472"/>
  </clipPath>
 </defs>
</svg>
