<?xml version="1.0" encoding="utf-8" standalone="no"?>
<!DOCTYPE svg PUBLIC "-//W3C//DTD SVG 1.1//EN"
  "http://www.w3.org/Graphics/SVG/1.1/DTD/svg11.dtd">
<svg height="345.6pt" version="1.1" viewBox="0 0 460.8 345.6" width="460.8pt" xmlns="http://www.w3.org/2000/svg" xmlns:xlink="http://www.w3.org/1999/xlink">
 <metadata>
  <rdf:RDF xmlns:cc="http://creativecommons.org/ns#" xmlns:dc="http://purl.org/dc/elements/1.1/" xmlns:rdf="http://www.w3.org/1999/02/22-rdf-syntax-ns#">
   <cc:Work>
    <dc:type rdf:resource="http://purl.org/dc/dcmitype/StillImage"/>
    <dc:date>2021-10-19T10:18:29.918166</dc:date>
    <dc:description>{"agent.algorithm": "RayProximalPolicyOptimization", "agent.algorithm.render_env": false, "agent.algorithm.batch_mode": "complete_episodes", "agent.algorithm.train_batch_size": 200, "agent.algorithm.optimizer": "Adam", "agent.algorithm.vf_clip_param": 500, "agent.algorithm.model": {"fcnet_activation": "tanh", "fcnet_hiddens": [30, 30]}, "env.env_class": "SchedulerPolicyRayEnvironment", "env.env_config": {"solver_driver": "CMAdriver", "solver_driver_args": [10, 10, "rastrigin"], "maximize": false, "steps": 50, "state_metrics_names": ["DifferenceOfBest", "SolverState"], "state_metrics_config": [[40, false, 1, true, true], [{"step_size": {"max": 3, "min": 1e-10}}]], "reward_metric": "Best", "reward_metric_config": [false, false], "memes_no": 1, "parameter_tune_config": {"step_size": {"max": 3, "min": 1e-10}}}}</dc:description>
    <dc:format>image/svg+xml</dc:format>
    <dc:creator>
     <cc:Agent>
      <dc:title>Matplotlib v3.4.2, https://matplotlib.org/</dc:title>
     </cc:Agent>
    </dc:creator>
   </cc:Work>
  </rdf:RDF>
 </metadata>
 <defs>
  <style type="text/css">*{stroke-linecap:butt;stroke-linejoin:round;}</style>
 </defs>
 <g id="figure_1">
  <g id="patch_1">
   <path d="M 0 345.6 
L 460.8 345.6 
L 460.8 0 
L 0 0 
z
" style="fill:#ffffff;"/>
  </g>
  <g id="axes_1">
   <g id="patch_2">
    <path d="M 57.6 307.584 
L 414.72 307.584 
L 414.72 41.472 
L 57.6 41.472 
z
" style="fill:#ffffff;"/>
   </g>
   <g id="matplotlib.axis_1">
    <g id="xtick_1">
     <g id="line2d_1">
      <path clip-path="url(#p1561a37e4b)" d="M 57.6 307.584 
L 57.6 41.472 
" style="fill:none;stroke:#b0b0b0;stroke-linecap:square;stroke-width:0.8;"/>
     </g>
     <g id="line2d_2">
      <defs>
       <path d="M 0 0 
L 0 3.5 
" id="m4df8612268" style="stroke:#000000;stroke-width:0.8;"/>
      </defs>
      <g>
       <use style="stroke:#000000;stroke-width:0.8;" x="57.6" xlink:href="#m4df8612268" y="307.584"/>
      </g>
     </g>
     <g id="text_1">
      <!-- 0 -->
      <g transform="translate(54.41875 322.182437)scale(0.1 -0.1)">
       <defs>
        <path d="M 2034 4250 
Q 1547 4250 1301 3770 
Q 1056 3291 1056 2328 
Q 1056 1369 1301 889 
Q 1547 409 2034 409 
Q 2525 409 2770 889 
Q 3016 1369 3016 2328 
Q 3016 3291 2770 3770 
Q 2525 4250 2034 4250 
z
M 2034 4750 
Q 2819 4750 3233 4129 
Q 3647 3509 3647 2328 
Q 3647 1150 3233 529 
Q 2819 -91 2034 -91 
Q 1250 -91 836 529 
Q 422 1150 422 2328 
Q 422 3509 836 4129 
Q 1250 4750 2034 4750 
z
" id="DejaVuSans-30" transform="scale(0.015625)"/>
       </defs>
       <use xlink:href="#DejaVuSans-30"/>
      </g>
     </g>
    </g>
    <g id="xtick_2">
     <g id="line2d_3">
      <path clip-path="url(#p1561a37e4b)" d="M 129.024 307.584 
L 129.024 41.472 
" style="fill:none;stroke:#b0b0b0;stroke-linecap:square;stroke-width:0.8;"/>
     </g>
     <g id="line2d_4">
      <g>
       <use style="stroke:#000000;stroke-width:0.8;" x="129.024" xlink:href="#m4df8612268" y="307.584"/>
      </g>
     </g>
     <g id="text_2">
      <!-- 200 -->
      <g transform="translate(119.48025 322.182437)scale(0.1 -0.1)">
       <defs>
        <path d="M 1228 531 
L 3431 531 
L 3431 0 
L 469 0 
L 469 531 
Q 828 903 1448 1529 
Q 2069 2156 2228 2338 
Q 2531 2678 2651 2914 
Q 2772 3150 2772 3378 
Q 2772 3750 2511 3984 
Q 2250 4219 1831 4219 
Q 1534 4219 1204 4116 
Q 875 4013 500 3803 
L 500 4441 
Q 881 4594 1212 4672 
Q 1544 4750 1819 4750 
Q 2544 4750 2975 4387 
Q 3406 4025 3406 3419 
Q 3406 3131 3298 2873 
Q 3191 2616 2906 2266 
Q 2828 2175 2409 1742 
Q 1991 1309 1228 531 
z
" id="DejaVuSans-32" transform="scale(0.015625)"/>
       </defs>
       <use xlink:href="#DejaVuSans-32"/>
       <use x="63.623047" xlink:href="#DejaVuSans-30"/>
       <use x="127.246094" xlink:href="#DejaVuSans-30"/>
      </g>
     </g>
    </g>
    <g id="xtick_3">
     <g id="line2d_5">
      <path clip-path="url(#p1561a37e4b)" d="M 200.448 307.584 
L 200.448 41.472 
" style="fill:none;stroke:#b0b0b0;stroke-linecap:square;stroke-width:0.8;"/>
     </g>
     <g id="line2d_6">
      <g>
       <use style="stroke:#000000;stroke-width:0.8;" x="200.448" xlink:href="#m4df8612268" y="307.584"/>
      </g>
     </g>
     <g id="text_3">
      <!-- 400 -->
      <g transform="translate(190.90425 322.182437)scale(0.1 -0.1)">
       <defs>
        <path d="M 2419 4116 
L 825 1625 
L 2419 1625 
L 2419 4116 
z
M 2253 4666 
L 3047 4666 
L 3047 1625 
L 3713 1625 
L 3713 1100 
L 3047 1100 
L 3047 0 
L 2419 0 
L 2419 1100 
L 313 1100 
L 313 1709 
L 2253 4666 
z
" id="DejaVuSans-34" transform="scale(0.015625)"/>
       </defs>
       <use xlink:href="#DejaVuSans-34"/>
       <use x="63.623047" xlink:href="#DejaVuSans-30"/>
       <use x="127.246094" xlink:href="#DejaVuSans-30"/>
      </g>
     </g>
    </g>
    <g id="xtick_4">
     <g id="line2d_7">
      <path clip-path="url(#p1561a37e4b)" d="M 271.872 307.584 
L 271.872 41.472 
" style="fill:none;stroke:#b0b0b0;stroke-linecap:square;stroke-width:0.8;"/>
     </g>
     <g id="line2d_8">
      <g>
       <use style="stroke:#000000;stroke-width:0.8;" x="271.872" xlink:href="#m4df8612268" y="307.584"/>
      </g>
     </g>
     <g id="text_4">
      <!-- 600 -->
      <g transform="translate(262.32825 322.182437)scale(0.1 -0.1)">
       <defs>
        <path d="M 2113 2584 
Q 1688 2584 1439 2293 
Q 1191 2003 1191 1497 
Q 1191 994 1439 701 
Q 1688 409 2113 409 
Q 2538 409 2786 701 
Q 3034 994 3034 1497 
Q 3034 2003 2786 2293 
Q 2538 2584 2113 2584 
z
M 3366 4563 
L 3366 3988 
Q 3128 4100 2886 4159 
Q 2644 4219 2406 4219 
Q 1781 4219 1451 3797 
Q 1122 3375 1075 2522 
Q 1259 2794 1537 2939 
Q 1816 3084 2150 3084 
Q 2853 3084 3261 2657 
Q 3669 2231 3669 1497 
Q 3669 778 3244 343 
Q 2819 -91 2113 -91 
Q 1303 -91 875 529 
Q 447 1150 447 2328 
Q 447 3434 972 4092 
Q 1497 4750 2381 4750 
Q 2619 4750 2861 4703 
Q 3103 4656 3366 4563 
z
" id="DejaVuSans-36" transform="scale(0.015625)"/>
       </defs>
       <use xlink:href="#DejaVuSans-36"/>
       <use x="63.623047" xlink:href="#DejaVuSans-30"/>
       <use x="127.246094" xlink:href="#DejaVuSans-30"/>
      </g>
     </g>
    </g>
    <g id="xtick_5">
     <g id="line2d_9">
      <path clip-path="url(#p1561a37e4b)" d="M 343.296 307.584 
L 343.296 41.472 
" style="fill:none;stroke:#b0b0b0;stroke-linecap:square;stroke-width:0.8;"/>
     </g>
     <g id="line2d_10">
      <g>
       <use style="stroke:#000000;stroke-width:0.8;" x="343.296" xlink:href="#m4df8612268" y="307.584"/>
      </g>
     </g>
     <g id="text_5">
      <!-- 800 -->
      <g transform="translate(333.75225 322.182437)scale(0.1 -0.1)">
       <defs>
        <path d="M 2034 2216 
Q 1584 2216 1326 1975 
Q 1069 1734 1069 1313 
Q 1069 891 1326 650 
Q 1584 409 2034 409 
Q 2484 409 2743 651 
Q 3003 894 3003 1313 
Q 3003 1734 2745 1975 
Q 2488 2216 2034 2216 
z
M 1403 2484 
Q 997 2584 770 2862 
Q 544 3141 544 3541 
Q 544 4100 942 4425 
Q 1341 4750 2034 4750 
Q 2731 4750 3128 4425 
Q 3525 4100 3525 3541 
Q 3525 3141 3298 2862 
Q 3072 2584 2669 2484 
Q 3125 2378 3379 2068 
Q 3634 1759 3634 1313 
Q 3634 634 3220 271 
Q 2806 -91 2034 -91 
Q 1263 -91 848 271 
Q 434 634 434 1313 
Q 434 1759 690 2068 
Q 947 2378 1403 2484 
z
M 1172 3481 
Q 1172 3119 1398 2916 
Q 1625 2713 2034 2713 
Q 2441 2713 2670 2916 
Q 2900 3119 2900 3481 
Q 2900 3844 2670 4047 
Q 2441 4250 2034 4250 
Q 1625 4250 1398 4047 
Q 1172 3844 1172 3481 
z
" id="DejaVuSans-38" transform="scale(0.015625)"/>
       </defs>
       <use xlink:href="#DejaVuSans-38"/>
       <use x="63.623047" xlink:href="#DejaVuSans-30"/>
       <use x="127.246094" xlink:href="#DejaVuSans-30"/>
      </g>
     </g>
    </g>
    <g id="xtick_6">
     <g id="line2d_11">
      <path clip-path="url(#p1561a37e4b)" d="M 414.72 307.584 
L 414.72 41.472 
" style="fill:none;stroke:#b0b0b0;stroke-linecap:square;stroke-width:0.8;"/>
     </g>
     <g id="line2d_12">
      <g>
       <use style="stroke:#000000;stroke-width:0.8;" x="414.72" xlink:href="#m4df8612268" y="307.584"/>
      </g>
     </g>
     <g id="text_6">
      <!-- 1000 -->
      <g transform="translate(401.995 322.182437)scale(0.1 -0.1)">
       <defs>
        <path d="M 794 531 
L 1825 531 
L 1825 4091 
L 703 3866 
L 703 4441 
L 1819 4666 
L 2450 4666 
L 2450 531 
L 3481 531 
L 3481 0 
L 794 0 
L 794 531 
z
" id="DejaVuSans-31" transform="scale(0.015625)"/>
       </defs>
       <use xlink:href="#DejaVuSans-31"/>
       <use x="63.623047" xlink:href="#DejaVuSans-30"/>
       <use x="127.246094" xlink:href="#DejaVuSans-30"/>
       <use x="190.869141" xlink:href="#DejaVuSans-30"/>
      </g>
     </g>
    </g>
    <g id="text_7">
     <!-- Episodes -->
     <g transform="translate(213.917812 335.860562)scale(0.1 -0.1)">
      <defs>
       <path d="M 628 4666 
L 3578 4666 
L 3578 4134 
L 1259 4134 
L 1259 2753 
L 3481 2753 
L 3481 2222 
L 1259 2222 
L 1259 531 
L 3634 531 
L 3634 0 
L 628 0 
L 628 4666 
z
" id="DejaVuSans-45" transform="scale(0.015625)"/>
       <path d="M 1159 525 
L 1159 -1331 
L 581 -1331 
L 581 3500 
L 1159 3500 
L 1159 2969 
Q 1341 3281 1617 3432 
Q 1894 3584 2278 3584 
Q 2916 3584 3314 3078 
Q 3713 2572 3713 1747 
Q 3713 922 3314 415 
Q 2916 -91 2278 -91 
Q 1894 -91 1617 61 
Q 1341 213 1159 525 
z
M 3116 1747 
Q 3116 2381 2855 2742 
Q 2594 3103 2138 3103 
Q 1681 3103 1420 2742 
Q 1159 2381 1159 1747 
Q 1159 1113 1420 752 
Q 1681 391 2138 391 
Q 2594 391 2855 752 
Q 3116 1113 3116 1747 
z
" id="DejaVuSans-70" transform="scale(0.015625)"/>
       <path d="M 603 3500 
L 1178 3500 
L 1178 0 
L 603 0 
L 603 3500 
z
M 603 4863 
L 1178 4863 
L 1178 4134 
L 603 4134 
L 603 4863 
z
" id="DejaVuSans-69" transform="scale(0.015625)"/>
       <path d="M 2834 3397 
L 2834 2853 
Q 2591 2978 2328 3040 
Q 2066 3103 1784 3103 
Q 1356 3103 1142 2972 
Q 928 2841 928 2578 
Q 928 2378 1081 2264 
Q 1234 2150 1697 2047 
L 1894 2003 
Q 2506 1872 2764 1633 
Q 3022 1394 3022 966 
Q 3022 478 2636 193 
Q 2250 -91 1575 -91 
Q 1294 -91 989 -36 
Q 684 19 347 128 
L 347 722 
Q 666 556 975 473 
Q 1284 391 1588 391 
Q 1994 391 2212 530 
Q 2431 669 2431 922 
Q 2431 1156 2273 1281 
Q 2116 1406 1581 1522 
L 1381 1569 
Q 847 1681 609 1914 
Q 372 2147 372 2553 
Q 372 3047 722 3315 
Q 1072 3584 1716 3584 
Q 2034 3584 2315 3537 
Q 2597 3491 2834 3397 
z
" id="DejaVuSans-73" transform="scale(0.015625)"/>
       <path d="M 1959 3097 
Q 1497 3097 1228 2736 
Q 959 2375 959 1747 
Q 959 1119 1226 758 
Q 1494 397 1959 397 
Q 2419 397 2687 759 
Q 2956 1122 2956 1747 
Q 2956 2369 2687 2733 
Q 2419 3097 1959 3097 
z
M 1959 3584 
Q 2709 3584 3137 3096 
Q 3566 2609 3566 1747 
Q 3566 888 3137 398 
Q 2709 -91 1959 -91 
Q 1206 -91 779 398 
Q 353 888 353 1747 
Q 353 2609 779 3096 
Q 1206 3584 1959 3584 
z
" id="DejaVuSans-6f" transform="scale(0.015625)"/>
       <path d="M 2906 2969 
L 2906 4863 
L 3481 4863 
L 3481 0 
L 2906 0 
L 2906 525 
Q 2725 213 2448 61 
Q 2172 -91 1784 -91 
Q 1150 -91 751 415 
Q 353 922 353 1747 
Q 353 2572 751 3078 
Q 1150 3584 1784 3584 
Q 2172 3584 2448 3432 
Q 2725 3281 2906 2969 
z
M 947 1747 
Q 947 1113 1208 752 
Q 1469 391 1925 391 
Q 2381 391 2643 752 
Q 2906 1113 2906 1747 
Q 2906 2381 2643 2742 
Q 2381 3103 1925 3103 
Q 1469 3103 1208 2742 
Q 947 2381 947 1747 
z
" id="DejaVuSans-64" transform="scale(0.015625)"/>
       <path d="M 3597 1894 
L 3597 1613 
L 953 1613 
Q 991 1019 1311 708 
Q 1631 397 2203 397 
Q 2534 397 2845 478 
Q 3156 559 3463 722 
L 3463 178 
Q 3153 47 2828 -22 
Q 2503 -91 2169 -91 
Q 1331 -91 842 396 
Q 353 884 353 1716 
Q 353 2575 817 3079 
Q 1281 3584 2069 3584 
Q 2775 3584 3186 3129 
Q 3597 2675 3597 1894 
z
M 3022 2063 
Q 3016 2534 2758 2815 
Q 2500 3097 2075 3097 
Q 1594 3097 1305 2825 
Q 1016 2553 972 2059 
L 3022 2063 
z
" id="DejaVuSans-65" transform="scale(0.015625)"/>
      </defs>
      <use xlink:href="#DejaVuSans-45"/>
      <use x="63.183594" xlink:href="#DejaVuSans-70"/>
      <use x="126.660156" xlink:href="#DejaVuSans-69"/>
      <use x="154.443359" xlink:href="#DejaVuSans-73"/>
      <use x="206.542969" xlink:href="#DejaVuSans-6f"/>
      <use x="267.724609" xlink:href="#DejaVuSans-64"/>
      <use x="331.201172" xlink:href="#DejaVuSans-65"/>
      <use x="392.724609" xlink:href="#DejaVuSans-73"/>
     </g>
    </g>
   </g>
   <g id="matplotlib.axis_2">
    <g id="ytick_1">
     <g id="line2d_13">
      <path clip-path="url(#p1561a37e4b)" d="M 57.6 286.700429 
L 414.72 286.700429 
" style="fill:none;stroke:#b0b0b0;stroke-linecap:square;stroke-width:0.8;"/>
     </g>
     <g id="line2d_14">
      <defs>
       <path d="M 0 0 
L -3.5 0 
" id="m0cb1451a15" style="stroke:#000000;stroke-width:0.8;"/>
      </defs>
      <g>
       <use style="stroke:#000000;stroke-width:0.8;" x="57.6" xlink:href="#m0cb1451a15" y="286.700429"/>
      </g>
     </g>
     <g id="text_8">
      <!-- −9000 -->
      <g transform="translate(16.770313 290.499648)scale(0.1 -0.1)">
       <defs>
        <path d="M 678 2272 
L 4684 2272 
L 4684 1741 
L 678 1741 
L 678 2272 
z
" id="DejaVuSans-2212" transform="scale(0.015625)"/>
        <path d="M 703 97 
L 703 672 
Q 941 559 1184 500 
Q 1428 441 1663 441 
Q 2288 441 2617 861 
Q 2947 1281 2994 2138 
Q 2813 1869 2534 1725 
Q 2256 1581 1919 1581 
Q 1219 1581 811 2004 
Q 403 2428 403 3163 
Q 403 3881 828 4315 
Q 1253 4750 1959 4750 
Q 2769 4750 3195 4129 
Q 3622 3509 3622 2328 
Q 3622 1225 3098 567 
Q 2575 -91 1691 -91 
Q 1453 -91 1209 -44 
Q 966 3 703 97 
z
M 1959 2075 
Q 2384 2075 2632 2365 
Q 2881 2656 2881 3163 
Q 2881 3666 2632 3958 
Q 2384 4250 1959 4250 
Q 1534 4250 1286 3958 
Q 1038 3666 1038 3163 
Q 1038 2656 1286 2365 
Q 1534 2075 1959 2075 
z
" id="DejaVuSans-39" transform="scale(0.015625)"/>
       </defs>
       <use xlink:href="#DejaVuSans-2212"/>
       <use x="83.789062" xlink:href="#DejaVuSans-39"/>
       <use x="147.412109" xlink:href="#DejaVuSans-30"/>
       <use x="211.035156" xlink:href="#DejaVuSans-30"/>
       <use x="274.658203" xlink:href="#DejaVuSans-30"/>
      </g>
     </g>
    </g>
    <g id="ytick_2">
     <g id="line2d_15">
      <path clip-path="url(#p1561a37e4b)" d="M 57.6 249.821328 
L 414.72 249.821328 
" style="fill:none;stroke:#b0b0b0;stroke-linecap:square;stroke-width:0.8;"/>
     </g>
     <g id="line2d_16">
      <g>
       <use style="stroke:#000000;stroke-width:0.8;" x="57.6" xlink:href="#m0cb1451a15" y="249.821328"/>
      </g>
     </g>
     <g id="text_9">
      <!-- −8000 -->
      <g transform="translate(16.770313 253.620546)scale(0.1 -0.1)">
       <use xlink:href="#DejaVuSans-2212"/>
       <use x="83.789062" xlink:href="#DejaVuSans-38"/>
       <use x="147.412109" xlink:href="#DejaVuSans-30"/>
       <use x="211.035156" xlink:href="#DejaVuSans-30"/>
       <use x="274.658203" xlink:href="#DejaVuSans-30"/>
      </g>
     </g>
    </g>
    <g id="ytick_3">
     <g id="line2d_17">
      <path clip-path="url(#p1561a37e4b)" d="M 57.6 212.942226 
L 414.72 212.942226 
" style="fill:none;stroke:#b0b0b0;stroke-linecap:square;stroke-width:0.8;"/>
     </g>
     <g id="line2d_18">
      <g>
       <use style="stroke:#000000;stroke-width:0.8;" x="57.6" xlink:href="#m0cb1451a15" y="212.942226"/>
      </g>
     </g>
     <g id="text_10">
      <!-- −7000 -->
      <g transform="translate(16.770313 216.741445)scale(0.1 -0.1)">
       <defs>
        <path d="M 525 4666 
L 3525 4666 
L 3525 4397 
L 1831 0 
L 1172 0 
L 2766 4134 
L 525 4134 
L 525 4666 
z
" id="DejaVuSans-37" transform="scale(0.015625)"/>
       </defs>
       <use xlink:href="#DejaVuSans-2212"/>
       <use x="83.789062" xlink:href="#DejaVuSans-37"/>
       <use x="147.412109" xlink:href="#DejaVuSans-30"/>
       <use x="211.035156" xlink:href="#DejaVuSans-30"/>
       <use x="274.658203" xlink:href="#DejaVuSans-30"/>
      </g>
     </g>
    </g>
    <g id="ytick_4">
     <g id="line2d_19">
      <path clip-path="url(#p1561a37e4b)" d="M 57.6 176.063125 
L 414.72 176.063125 
" style="fill:none;stroke:#b0b0b0;stroke-linecap:square;stroke-width:0.8;"/>
     </g>
     <g id="line2d_20">
      <g>
       <use style="stroke:#000000;stroke-width:0.8;" x="57.6" xlink:href="#m0cb1451a15" y="176.063125"/>
      </g>
     </g>
     <g id="text_11">
      <!-- −6000 -->
      <g transform="translate(16.770313 179.862344)scale(0.1 -0.1)">
       <use xlink:href="#DejaVuSans-2212"/>
       <use x="83.789062" xlink:href="#DejaVuSans-36"/>
       <use x="147.412109" xlink:href="#DejaVuSans-30"/>
       <use x="211.035156" xlink:href="#DejaVuSans-30"/>
       <use x="274.658203" xlink:href="#DejaVuSans-30"/>
      </g>
     </g>
    </g>
    <g id="ytick_5">
     <g id="line2d_21">
      <path clip-path="url(#p1561a37e4b)" d="M 57.6 139.184024 
L 414.72 139.184024 
" style="fill:none;stroke:#b0b0b0;stroke-linecap:square;stroke-width:0.8;"/>
     </g>
     <g id="line2d_22">
      <g>
       <use style="stroke:#000000;stroke-width:0.8;" x="57.6" xlink:href="#m0cb1451a15" y="139.184024"/>
      </g>
     </g>
     <g id="text_12">
      <!-- −5000 -->
      <g transform="translate(16.770313 142.983242)scale(0.1 -0.1)">
       <defs>
        <path d="M 691 4666 
L 3169 4666 
L 3169 4134 
L 1269 4134 
L 1269 2991 
Q 1406 3038 1543 3061 
Q 1681 3084 1819 3084 
Q 2600 3084 3056 2656 
Q 3513 2228 3513 1497 
Q 3513 744 3044 326 
Q 2575 -91 1722 -91 
Q 1428 -91 1123 -41 
Q 819 9 494 109 
L 494 744 
Q 775 591 1075 516 
Q 1375 441 1709 441 
Q 2250 441 2565 725 
Q 2881 1009 2881 1497 
Q 2881 1984 2565 2268 
Q 2250 2553 1709 2553 
Q 1456 2553 1204 2497 
Q 953 2441 691 2322 
L 691 4666 
z
" id="DejaVuSans-35" transform="scale(0.015625)"/>
       </defs>
       <use xlink:href="#DejaVuSans-2212"/>
       <use x="83.789062" xlink:href="#DejaVuSans-35"/>
       <use x="147.412109" xlink:href="#DejaVuSans-30"/>
       <use x="211.035156" xlink:href="#DejaVuSans-30"/>
       <use x="274.658203" xlink:href="#DejaVuSans-30"/>
      </g>
     </g>
    </g>
    <g id="ytick_6">
     <g id="line2d_23">
      <path clip-path="url(#p1561a37e4b)" d="M 57.6 102.304922 
L 414.72 102.304922 
" style="fill:none;stroke:#b0b0b0;stroke-linecap:square;stroke-width:0.8;"/>
     </g>
     <g id="line2d_24">
      <g>
       <use style="stroke:#000000;stroke-width:0.8;" x="57.6" xlink:href="#m0cb1451a15" y="102.304922"/>
      </g>
     </g>
     <g id="text_13">
      <!-- −4000 -->
      <g transform="translate(16.770313 106.104141)scale(0.1 -0.1)">
       <use xlink:href="#DejaVuSans-2212"/>
       <use x="83.789062" xlink:href="#DejaVuSans-34"/>
       <use x="147.412109" xlink:href="#DejaVuSans-30"/>
       <use x="211.035156" xlink:href="#DejaVuSans-30"/>
       <use x="274.658203" xlink:href="#DejaVuSans-30"/>
      </g>
     </g>
    </g>
    <g id="ytick_7">
     <g id="line2d_25">
      <path clip-path="url(#p1561a37e4b)" d="M 57.6 65.425821 
L 414.72 65.425821 
" style="fill:none;stroke:#b0b0b0;stroke-linecap:square;stroke-width:0.8;"/>
     </g>
     <g id="line2d_26">
      <g>
       <use style="stroke:#000000;stroke-width:0.8;" x="57.6" xlink:href="#m0cb1451a15" y="65.425821"/>
      </g>
     </g>
     <g id="text_14">
      <!-- −3000 -->
      <g transform="translate(16.770313 69.22504)scale(0.1 -0.1)">
       <defs>
        <path d="M 2597 2516 
Q 3050 2419 3304 2112 
Q 3559 1806 3559 1356 
Q 3559 666 3084 287 
Q 2609 -91 1734 -91 
Q 1441 -91 1130 -33 
Q 819 25 488 141 
L 488 750 
Q 750 597 1062 519 
Q 1375 441 1716 441 
Q 2309 441 2620 675 
Q 2931 909 2931 1356 
Q 2931 1769 2642 2001 
Q 2353 2234 1838 2234 
L 1294 2234 
L 1294 2753 
L 1863 2753 
Q 2328 2753 2575 2939 
Q 2822 3125 2822 3475 
Q 2822 3834 2567 4026 
Q 2313 4219 1838 4219 
Q 1578 4219 1281 4162 
Q 984 4106 628 3988 
L 628 4550 
Q 988 4650 1302 4700 
Q 1616 4750 1894 4750 
Q 2613 4750 3031 4423 
Q 3450 4097 3450 3541 
Q 3450 3153 3228 2886 
Q 3006 2619 2597 2516 
z
" id="DejaVuSans-33" transform="scale(0.015625)"/>
       </defs>
       <use xlink:href="#DejaVuSans-2212"/>
       <use x="83.789062" xlink:href="#DejaVuSans-33"/>
       <use x="147.412109" xlink:href="#DejaVuSans-30"/>
       <use x="211.035156" xlink:href="#DejaVuSans-30"/>
       <use x="274.658203" xlink:href="#DejaVuSans-30"/>
      </g>
     </g>
    </g>
    <g id="text_15">
     <!-- Cumulative Reward -->
     <g transform="translate(10.690625 223.275656)rotate(-90)scale(0.1 -0.1)">
      <defs>
       <path d="M 4122 4306 
L 4122 3641 
Q 3803 3938 3442 4084 
Q 3081 4231 2675 4231 
Q 1875 4231 1450 3742 
Q 1025 3253 1025 2328 
Q 1025 1406 1450 917 
Q 1875 428 2675 428 
Q 3081 428 3442 575 
Q 3803 722 4122 1019 
L 4122 359 
Q 3791 134 3420 21 
Q 3050 -91 2638 -91 
Q 1578 -91 968 557 
Q 359 1206 359 2328 
Q 359 3453 968 4101 
Q 1578 4750 2638 4750 
Q 3056 4750 3426 4639 
Q 3797 4528 4122 4306 
z
" id="DejaVuSans-43" transform="scale(0.015625)"/>
       <path d="M 544 1381 
L 544 3500 
L 1119 3500 
L 1119 1403 
Q 1119 906 1312 657 
Q 1506 409 1894 409 
Q 2359 409 2629 706 
Q 2900 1003 2900 1516 
L 2900 3500 
L 3475 3500 
L 3475 0 
L 2900 0 
L 2900 538 
Q 2691 219 2414 64 
Q 2138 -91 1772 -91 
Q 1169 -91 856 284 
Q 544 659 544 1381 
z
M 1991 3584 
L 1991 3584 
z
" id="DejaVuSans-75" transform="scale(0.015625)"/>
       <path d="M 3328 2828 
Q 3544 3216 3844 3400 
Q 4144 3584 4550 3584 
Q 5097 3584 5394 3201 
Q 5691 2819 5691 2113 
L 5691 0 
L 5113 0 
L 5113 2094 
Q 5113 2597 4934 2840 
Q 4756 3084 4391 3084 
Q 3944 3084 3684 2787 
Q 3425 2491 3425 1978 
L 3425 0 
L 2847 0 
L 2847 2094 
Q 2847 2600 2669 2842 
Q 2491 3084 2119 3084 
Q 1678 3084 1418 2786 
Q 1159 2488 1159 1978 
L 1159 0 
L 581 0 
L 581 3500 
L 1159 3500 
L 1159 2956 
Q 1356 3278 1631 3431 
Q 1906 3584 2284 3584 
Q 2666 3584 2933 3390 
Q 3200 3197 3328 2828 
z
" id="DejaVuSans-6d" transform="scale(0.015625)"/>
       <path d="M 603 4863 
L 1178 4863 
L 1178 0 
L 603 0 
L 603 4863 
z
" id="DejaVuSans-6c" transform="scale(0.015625)"/>
       <path d="M 2194 1759 
Q 1497 1759 1228 1600 
Q 959 1441 959 1056 
Q 959 750 1161 570 
Q 1363 391 1709 391 
Q 2188 391 2477 730 
Q 2766 1069 2766 1631 
L 2766 1759 
L 2194 1759 
z
M 3341 1997 
L 3341 0 
L 2766 0 
L 2766 531 
Q 2569 213 2275 61 
Q 1981 -91 1556 -91 
Q 1019 -91 701 211 
Q 384 513 384 1019 
Q 384 1609 779 1909 
Q 1175 2209 1959 2209 
L 2766 2209 
L 2766 2266 
Q 2766 2663 2505 2880 
Q 2244 3097 1772 3097 
Q 1472 3097 1187 3025 
Q 903 2953 641 2809 
L 641 3341 
Q 956 3463 1253 3523 
Q 1550 3584 1831 3584 
Q 2591 3584 2966 3190 
Q 3341 2797 3341 1997 
z
" id="DejaVuSans-61" transform="scale(0.015625)"/>
       <path d="M 1172 4494 
L 1172 3500 
L 2356 3500 
L 2356 3053 
L 1172 3053 
L 1172 1153 
Q 1172 725 1289 603 
Q 1406 481 1766 481 
L 2356 481 
L 2356 0 
L 1766 0 
Q 1100 0 847 248 
Q 594 497 594 1153 
L 594 3053 
L 172 3053 
L 172 3500 
L 594 3500 
L 594 4494 
L 1172 4494 
z
" id="DejaVuSans-74" transform="scale(0.015625)"/>
       <path d="M 191 3500 
L 800 3500 
L 1894 563 
L 2988 3500 
L 3597 3500 
L 2284 0 
L 1503 0 
L 191 3500 
z
" id="DejaVuSans-76" transform="scale(0.015625)"/>
       <path id="DejaVuSans-20" transform="scale(0.015625)"/>
       <path d="M 2841 2188 
Q 3044 2119 3236 1894 
Q 3428 1669 3622 1275 
L 4263 0 
L 3584 0 
L 2988 1197 
Q 2756 1666 2539 1819 
Q 2322 1972 1947 1972 
L 1259 1972 
L 1259 0 
L 628 0 
L 628 4666 
L 2053 4666 
Q 2853 4666 3247 4331 
Q 3641 3997 3641 3322 
Q 3641 2881 3436 2590 
Q 3231 2300 2841 2188 
z
M 1259 4147 
L 1259 2491 
L 2053 2491 
Q 2509 2491 2742 2702 
Q 2975 2913 2975 3322 
Q 2975 3731 2742 3939 
Q 2509 4147 2053 4147 
L 1259 4147 
z
" id="DejaVuSans-52" transform="scale(0.015625)"/>
       <path d="M 269 3500 
L 844 3500 
L 1563 769 
L 2278 3500 
L 2956 3500 
L 3675 769 
L 4391 3500 
L 4966 3500 
L 4050 0 
L 3372 0 
L 2619 2869 
L 1863 0 
L 1184 0 
L 269 3500 
z
" id="DejaVuSans-77" transform="scale(0.015625)"/>
       <path d="M 2631 2963 
Q 2534 3019 2420 3045 
Q 2306 3072 2169 3072 
Q 1681 3072 1420 2755 
Q 1159 2438 1159 1844 
L 1159 0 
L 581 0 
L 581 3500 
L 1159 3500 
L 1159 2956 
Q 1341 3275 1631 3429 
Q 1922 3584 2338 3584 
Q 2397 3584 2469 3576 
Q 2541 3569 2628 3553 
L 2631 2963 
z
" id="DejaVuSans-72" transform="scale(0.015625)"/>
      </defs>
      <use xlink:href="#DejaVuSans-43"/>
      <use x="69.824219" xlink:href="#DejaVuSans-75"/>
      <use x="133.203125" xlink:href="#DejaVuSans-6d"/>
      <use x="230.615234" xlink:href="#DejaVuSans-75"/>
      <use x="293.994141" xlink:href="#DejaVuSans-6c"/>
      <use x="321.777344" xlink:href="#DejaVuSans-61"/>
      <use x="383.056641" xlink:href="#DejaVuSans-74"/>
      <use x="422.265625" xlink:href="#DejaVuSans-69"/>
      <use x="450.048828" xlink:href="#DejaVuSans-76"/>
      <use x="509.228516" xlink:href="#DejaVuSans-65"/>
      <use x="570.751953" xlink:href="#DejaVuSans-20"/>
      <use x="602.539062" xlink:href="#DejaVuSans-52"/>
      <use x="667.521484" xlink:href="#DejaVuSans-65"/>
      <use x="729.044922" xlink:href="#DejaVuSans-77"/>
      <use x="810.832031" xlink:href="#DejaVuSans-61"/>
      <use x="872.111328" xlink:href="#DejaVuSans-72"/>
      <use x="911.474609" xlink:href="#DejaVuSans-64"/>
     </g>
    </g>
   </g>
   <g id="line2d_27">
    <path clip-path="url(#p1561a37e4b)" d="M 57.6 156.674157 
L 57.95712 169.538638 
L 58.31424 84.055875 
L 58.67136 134.872388 
L 59.02848 156.674157 
L 59.3856 169.538638 
L 59.74272 84.055875 
L 60.09984 134.872388 
L 60.45696 156.674157 
L 60.81408 169.538638 
L 61.1712 84.055875 
L 61.52832 134.872388 
L 61.88544 156.674157 
L 62.24256 169.538638 
L 62.59968 84.055875 
L 62.9568 134.872388 
L 63.31392 156.674157 
L 63.67104 169.538638 
L 64.02816 84.055875 
L 64.38528 134.872388 
L 64.7424 156.674157 
L 65.09952 169.538638 
L 65.45664 84.055875 
L 65.81376 134.872388 
L 66.17088 156.674157 
L 66.528 169.538638 
L 66.88512 84.055875 
L 67.24224 134.872388 
L 67.59936 156.674157 
L 67.95648 169.538638 
L 68.3136 84.055875 
L 68.67072 134.872388 
L 69.02784 156.674157 
L 69.38496 169.538638 
L 69.74208 84.055875 
L 70.0992 134.872388 
L 70.45632 156.674157 
L 70.81344 169.538638 
L 71.17056 84.055875 
L 71.52768 134.872388 
L 71.8848 156.674157 
L 72.24192 169.538638 
L 72.59904 84.055875 
L 72.95616 134.872388 
L 73.31328 156.674157 
L 73.6704 169.538638 
L 74.02752 84.055875 
L 74.38464 134.872388 
L 74.74176 156.674157 
L 75.09888 169.538638 
L 75.456 84.055875 
L 75.81312 134.872388 
L 76.17024 156.674157 
L 76.52736 169.538638 
L 76.88448 84.055875 
L 77.2416 134.872388 
L 77.59872 156.674157 
L 77.95584 169.538638 
L 78.31296 84.055875 
L 78.67008 134.872388 
L 79.0272 156.674157 
L 79.38432 169.538638 
L 79.74144 84.055875 
L 80.09856 134.872388 
L 80.45568 156.674157 
L 80.8128 169.538638 
L 81.16992 84.055875 
L 81.52704 134.872388 
L 81.88416 156.674157 
L 82.24128 169.538638 
L 82.5984 84.055875 
L 82.95552 134.872388 
L 83.31264 156.674157 
L 83.66976 169.538638 
L 84.02688 84.055875 
L 84.384 134.872388 
L 84.74112 156.674157 
L 85.09824 169.538638 
L 85.45536 84.055875 
L 85.81248 134.872388 
L 86.1696 156.674157 
L 86.52672 169.538638 
L 86.88384 84.055875 
L 87.24096 134.872388 
L 87.59808 156.674157 
L 87.9552 169.538638 
L 88.31232 84.055875 
L 88.66944 134.872388 
L 89.02656 156.674157 
L 89.38368 169.538638 
L 89.7408 84.055875 
L 90.09792 134.872388 
L 90.45504 156.674157 
L 90.81216 169.538638 
L 91.16928 84.055875 
L 91.5264 134.872388 
L 91.88352 156.674157 
L 92.24064 169.538638 
L 92.59776 84.055875 
L 92.95488 134.872388 
L 93.312 147.412356 
L 93.66912 165.31888 
L 94.02624 109.277151 
L 94.38336 110.797277 
L 94.74048 139.533344 
L 95.0976 115.203789 
L 95.45472 122.515086 
L 96.16896 174.357829 
L 96.52608 127.131109 
L 96.8832 172.269533 
L 97.24032 129.81481 
L 97.59744 122.391946 
L 97.95456 134.799376 
L 98.31168 127.517901 
L 98.6688 163.622 
L 99.02592 149.314194 
L 99.38304 207.145779 
L 99.74016 150.523994 
L 100.09728 149.378648 
L 100.4544 142.621559 
L 100.81152 209.100764 
L 101.16864 140.433565 
L 101.52576 228.215565 
L 101.88288 164.79107 
L 102.24 152.264199 
L 102.59712 180.274498 
L 102.95424 137.578382 
L 103.31136 191.716729 
L 103.66848 142.946977 
L 104.0256 179.013996 
L 104.38272 139.850018 
L 104.73984 120.399381 
L 105.09696 199.266698 
L 105.45408 93.203436 
L 105.8112 189.402368 
L 106.16832 146.722703 
L 106.52544 138.032851 
L 106.88256 151.502705 
L 107.23968 134.225757 
L 107.5968 234.146025 
L 107.95392 202.797349 
L 108.31104 213.837648 
L 108.66816 193.485643 
L 109.02528 180.104307 
L 109.3824 146.580844 
L 109.73952 154.60066 
L 110.09664 219.144034 
L 110.45376 132.41825 
L 111.168 164.461365 
L 111.52512 152.283237 
L 111.88224 205.693203 
L 112.23936 101.848934 
L 112.59648 171.770347 
L 112.9536 116.186452 
L 113.31072 105.555903 
L 113.66784 128.384671 
L 114.02496 83.09952 
L 114.38208 167.26031 
L 114.7392 178.760451 
L 115.09632 138.787019 
L 115.45344 179.93633 
L 115.81056 125.132783 
L 116.16768 156.376757 
L 116.5248 170.807492 
L 116.88192 161.813286 
L 117.23904 190.171908 
L 117.59616 140.847246 
L 117.95328 128.913186 
L 118.3104 155.952087 
L 118.66752 165.074152 
L 119.02464 146.316906 
L 119.38176 166.705306 
L 119.73888 156.031673 
L 120.096 159.575731 
L 120.81024 132.972878 
L 121.16736 120.111628 
L 121.52448 125.51449 
L 121.8816 201.205051 
L 122.23872 122.414981 
L 122.59584 169.906897 
L 122.95296 124.691495 
L 123.31008 167.585139 
L 123.6672 154.772461 
L 124.02432 146.531556 
L 124.38144 148.451107 
L 124.73856 162.242791 
L 125.09568 132.095204 
L 125.4528 148.884942 
L 125.80992 155.393581 
L 126.16704 176.867946 
L 126.52416 143.76762 
L 127.2384 159.054824 
L 127.59552 160.718756 
L 127.95264 147.021185 
L 128.30976 159.637747 
L 128.66688 94.366635 
L 129.024 70.642835 
L 129.38112 145.435155 
L 129.73824 119.727096 
L 130.09536 102.941852 
L 130.45248 209.521006 
L 130.8096 141.205622 
L 131.16672 168.982321 
L 131.52384 124.281576 
L 131.88096 140.82062 
L 132.23808 86.958375 
L 132.5952 150.368351 
L 132.95232 72.534984 
L 133.30944 172.11289 
L 133.66656 118.393442 
L 134.02368 175.752513 
L 134.3808 127.530525 
L 134.73792 102.832934 
L 135.09504 177.501843 
L 135.45216 145.126459 
L 135.80928 186.214052 
L 136.1664 177.375558 
L 136.52352 80.55351 
L 136.88064 196.846799 
L 137.23776 115.809556 
L 137.59488 156.953244 
L 137.952 111.636099 
L 138.30912 152.546627 
L 139.02336 117.060628 
L 139.38048 197.01989 
L 139.7376 122.774648 
L 140.09472 168.396815 
L 140.45184 144.156969 
L 140.80896 137.559645 
L 141.16608 106.150461 
L 141.5232 115.676216 
L 141.88032 172.997931 
L 142.23744 128.726189 
L 142.59456 163.689276 
L 142.95168 112.991769 
L 143.3088 170.929041 
L 143.66592 147.082554 
L 144.02304 155.234135 
L 144.38016 183.660598 
L 145.0944 145.765295 
L 145.45152 200.669036 
L 145.80864 116.368051 
L 146.16576 98.174786 
L 146.52288 115.438652 
L 146.88 67.74913 
L 147.23712 86.512104 
L 147.59424 189.290822 
L 147.95136 109.020166 
L 148.30848 145.040574 
L 148.6656 132.600975 
L 149.02272 150.772787 
L 149.37984 176.526891 
L 149.73696 151.421706 
L 150.09408 238.021574 
L 150.80832 149.408875 
L 151.16544 185.826712 
L 151.52256 183.710728 
L 151.87968 147.863502 
L 152.2368 152.095726 
L 152.59392 182.778911 
L 152.95104 158.503945 
L 153.30816 174.713211 
L 153.66528 172.208457 
L 154.0224 182.908626 
L 154.37952 172.883216 
L 154.73664 153.7842 
L 155.09376 148.16659 
L 155.45088 185.414233 
L 155.808 138.96033 
L 156.16512 181.417971 
L 156.52224 147.676839 
L 156.87936 211.779257 
L 157.23648 209.060843 
L 157.5936 142.090023 
L 157.95072 148.258068 
L 158.30784 132.602011 
L 158.66496 159.172953 
L 159.02208 146.414201 
L 159.3792 141.847507 
L 159.73632 129.66642 
L 160.45056 174.925775 
L 160.80768 143.754478 
L 161.1648 187.070308 
L 161.52192 165.175385 
L 161.87904 104.678459 
L 162.23616 178.26452 
L 162.59328 130.565271 
L 162.9504 167.677997 
L 163.30752 144.638634 
L 163.66464 185.580698 
L 164.02176 124.169553 
L 164.37888 285.408 
L 164.736 150.447328 
L 165.09312 153.414122 
L 165.45024 159.565202 
L 165.80736 123.065328 
L 166.16448 151.59442 
L 166.5216 146.068203 
L 166.87872 138.811889 
L 167.23584 166.454542 
L 167.59296 169.77489 
L 167.95008 142.55569 
L 168.3072 130.779055 
L 168.66432 98.025721 
L 169.02144 156.084266 
L 169.37856 157.854767 
L 169.73568 148.236602 
L 170.0928 178.888257 
L 170.44992 125.207831 
L 170.80704 140.548814 
L 171.16416 124.934031 
L 171.52128 138.767756 
L 171.8784 166.809314 
L 172.23552 239.5221 
L 172.59264 167.53123 
L 172.94976 229.671269 
L 173.30688 128.882523 
L 173.664 168.730861 
L 174.02112 139.400604 
L 174.37824 182.134664 
L 175.09248 119.967389 
L 175.4496 168.901185 
L 175.80672 116.588665 
L 176.16384 105.009221 
L 176.52096 193.099658 
L 176.87808 139.140551 
L 177.2352 146.215544 
L 177.59232 150.472069 
L 177.94944 172.351002 
L 178.30656 114.539975 
L 178.66368 212.49254 
L 179.0208 143.124319 
L 179.37792 194.080188 
L 179.73504 138.96516 
L 180.09216 227.720011 
L 180.44928 171.396866 
L 180.8064 148.468398 
L 181.16352 194.486554 
L 181.52064 137.956475 
L 182.23488 107.507189 
L 182.592 63.648 
L 183.30624 203.616338 
L 183.66336 142.394455 
L 184.02048 150.484833 
L 184.73472 144.282323 
L 185.09184 156.331705 
L 185.44896 176.01932 
L 185.80608 158.778655 
L 186.1632 153.497274 
L 186.52032 182.802241 
L 186.87744 118.011915 
L 187.23456 157.69668 
L 187.59168 162.775713 
L 187.9488 162.027928 
L 188.30592 193.547483 
L 188.66304 209.025402 
L 189.02016 134.79091 
L 189.37728 92.650055 
L 189.7344 145.114897 
L 190.09152 137.261503 
L 190.44864 151.84916 
L 190.80576 125.902619 
L 191.16288 111.98721 
L 191.52 147.797246 
L 191.87712 144.80083 
L 192.23424 150.165728 
L 192.59136 146.128493 
L 192.94848 116.039222 
L 193.3056 136.761032 
L 193.66272 149.865108 
L 194.01984 182.571145 
L 194.37696 136.458282 
L 194.73408 176.808849 
L 195.0912 133.790586 
L 195.44832 146.369455 
L 195.80544 143.406072 
L 196.16256 107.133512 
L 196.51968 187.68482 
L 196.8768 148.511109 
L 197.23392 169.150825 
L 197.59104 176.893008 
L 197.94816 128.141049 
L 198.30528 170.997603 
L 198.6624 166.221148 
L 199.01952 166.143015 
L 199.37664 152.866254 
L 199.73376 168.05312 
L 200.09088 145.294246 
L 200.80512 150.314617 
L 201.16224 214.929639 
L 201.51936 140.968866 
L 201.87648 147.429627 
L 202.2336 148.121789 
L 202.59072 148.539767 
L 202.94784 155.434433 
L 203.30496 110.9997 
L 203.66208 167.604718 
L 204.0192 128.013175 
L 204.37632 129.793286 
L 204.73344 186.330731 
L 205.09056 176.972309 
L 205.44768 175.055816 
L 205.8048 192.276166 
L 206.16192 158.672368 
L 206.51904 174.296794 
L 206.87616 126.308956 
L 207.23328 176.440211 
L 207.5904 158.714179 
L 207.94752 161.649732 
L 208.30464 148.973543 
L 208.66176 173.346329 
L 209.01888 142.420068 
L 209.376 191.885284 
L 209.73312 174.512357 
L 210.09024 163.577796 
L 210.44736 142.991204 
L 210.80448 155.910616 
L 211.1616 176.654127 
L 211.51872 111.165791 
L 211.87584 105.169334 
L 212.23296 151.171732 
L 212.59008 124.757436 
L 212.9472 132.42348 
L 213.30432 153.895228 
L 213.66144 198.280965 
L 214.01856 161.046331 
L 214.37568 156.88424 
L 214.7328 138.486571 
L 215.08992 181.327558 
L 215.80416 164.825345 
L 216.16128 173.443311 
L 216.5184 135.026113 
L 216.87552 156.896363 
L 217.23264 105.307338 
L 217.58976 104.574101 
L 217.94688 139.947442 
L 218.304 102.400915 
L 218.66112 164.280616 
L 219.01824 100.282063 
L 219.37536 179.456907 
L 219.73248 121.623936 
L 220.0896 181.955897 
L 220.80384 121.404229 
L 221.16096 175.825912 
L 221.51808 138.159366 
L 221.8752 138.827443 
L 222.23232 151.328862 
L 222.58944 126.119149 
L 222.94656 120.299331 
L 223.30368 125.160507 
L 223.6608 155.109689 
L 224.01792 165.485949 
L 224.37504 166.696751 
L 224.73216 147.931573 
L 225.08928 190.801388 
L 225.4464 152.075347 
L 225.80352 159.219537 
L 226.16064 123.07235 
L 226.51776 122.771379 
L 226.87488 186.493989 
L 227.232 143.214229 
L 227.58912 160.545875 
L 227.94624 140.618063 
L 228.30336 141.517588 
L 228.66048 92.242838 
L 229.0176 160.606721 
L 229.37472 104.13438 
L 229.73184 135.000472 
L 230.08896 108.51944 
L 230.44608 109.221624 
L 230.8032 122.486378 
L 231.16032 128.115283 
L 231.51744 131.049304 
L 231.87456 70.228538 
L 232.23168 177.546087 
L 232.5888 96.127729 
L 232.94592 179.700647 
L 233.30304 192.660767 
L 233.66016 120.207519 
L 234.01728 192.067965 
L 234.73152 121.731404 
L 235.08864 160.821316 
L 235.44576 112.896921 
L 235.80288 149.719517 
L 236.16 268.697152 
L 236.51712 106.901505 
L 236.87424 211.948442 
L 237.23136 137.514093 
L 237.58848 196.528416 
L 237.9456 159.537926 
L 238.30272 141.137201 
L 238.65984 156.264486 
L 239.01696 101.529627 
L 239.37408 141.192534 
L 239.7312 121.751156 
L 240.08832 139.67263 
L 240.44544 216.632588 
L 240.80256 141.235594 
L 241.15968 228.599699 
L 241.5168 173.35713 
L 241.87392 159.191098 
L 242.58816 206.942584 
L 242.94528 154.543025 
L 243.3024 135.879308 
L 243.65952 150.71785 
L 244.01664 149.026498 
L 244.37376 157.397109 
L 244.73088 128.167946 
L 245.088 186.457237 
L 245.44512 104.314906 
L 245.80224 167.088613 
L 246.15936 128.674726 
L 246.51648 162.260141 
L 246.8736 102.097953 
L 247.23072 122.49778 
L 247.94496 202.96493 
L 248.30208 122.484586 
L 248.6592 126.357693 
L 249.01632 149.550972 
L 249.37344 136.759085 
L 249.73056 145.444587 
L 250.08768 123.799876 
L 250.4448 184.738793 
L 250.80192 155.080638 
L 251.15904 150.816422 
L 251.51616 137.664976 
L 251.87328 107.763508 
L 252.2304 155.579084 
L 252.58752 85.639985 
L 252.94464 128.366598 
L 253.65888 158.433052 
L 254.016 134.507573 
L 254.37312 153.274337 
L 254.73024 147.951053 
L 255.08736 139.43616 
L 255.44448 161.430251 
L 255.8016 153.632722 
L 256.15872 166.943215 
L 256.51584 186.423874 
L 256.87296 139.907486 
L 257.23008 149.993132 
L 257.94432 132.18176 
L 258.30144 170.48195 
L 258.65856 145.814134 
L 259.01568 150.368151 
L 259.3728 157.914798 
L 259.72992 126.602569 
L 260.08704 130.712372 
L 260.44416 154.091782 
L 260.80128 141.233467 
L 261.1584 148.629727 
L 261.51552 147.939829 
L 261.87264 173.291407 
L 262.22976 135.879048 
L 262.58688 166.391974 
L 262.944 133.933713 
L 263.30112 114.655 
L 263.65824 101.6811 
L 264.01536 151.240593 
L 264.37248 116.069184 
L 264.7296 139.474573 
L 265.08672 145.23003 
L 265.44384 141.177922 
L 265.80096 154.706465 
L 266.15808 121.49833 
L 266.5152 140.496591 
L 266.87232 116.218711 
L 267.22944 182.142473 
L 267.58656 168.353902 
L 267.94368 96.001792 
L 268.3008 199.227863 
L 268.65792 147.907266 
L 269.01504 171.98975 
L 269.37216 159.727348 
L 269.72928 125.886968 
L 270.0864 169.532011 
L 270.44352 137.443185 
L 270.80064 147.664824 
L 271.15776 104.366778 
L 271.51488 153.55643 
L 271.872 156.374702 
L 272.22912 104.5116 
L 272.58624 136.427186 
L 272.94336 87.614423 
L 273.30048 163.143969 
L 273.6576 204.552327 
L 274.01472 167.209865 
L 274.37184 188.267973 
L 274.72896 120.437237 
L 275.08608 195.784081 
L 275.4432 157.319251 
L 275.80032 207.80857 
L 276.15744 194.674474 
L 276.51456 176.10803 
L 276.87168 137.310173 
L 277.2288 207.871802 
L 277.58592 191.485684 
L 277.94304 146.110539 
L 278.30016 172.778233 
L 278.65728 152.604318 
L 279.0144 125.519078 
L 279.37152 140.500347 
L 279.72864 116.227946 
L 280.08576 160.859361 
L 280.44288 109.016266 
L 280.8 139.014669 
L 281.15712 104.56128 
L 281.51424 143.065547 
L 281.87136 159.193361 
L 282.22848 149.965403 
L 282.5856 163.057221 
L 282.94272 169.915834 
L 283.29984 141.932633 
L 283.65696 132.791304 
L 284.3712 159.312662 
L 284.72832 134.996431 
L 285.08544 174.046568 
L 285.44256 149.083551 
L 285.79968 153.10155 
L 286.1568 140.427588 
L 286.51392 166.301908 
L 286.87104 132.216985 
L 287.22816 154.904015 
L 287.58528 146.679593 
L 287.9424 165.865474 
L 288.29952 155.136596 
L 288.65664 137.707854 
L 289.01376 134.028898 
L 289.37088 149.947329 
L 289.728 137.39031 
L 290.08512 192.70676 
L 290.44224 161.541265 
L 290.79936 107.106637 
L 291.15648 135.567149 
L 291.5136 123.419504 
L 291.87072 197.845839 
L 292.22784 153.80749 
L 292.58496 204.524069 
L 292.94208 162.729433 
L 293.2992 134.671953 
L 293.65632 175.938471 
L 294.01344 181.712198 
L 294.37056 194.561803 
L 294.72768 228.238918 
L 295.0848 177.939249 
L 295.44192 200.300187 
L 295.79904 212.503335 
L 296.15616 128.421912 
L 296.51328 169.948899 
L 296.8704 176.636933 
L 297.22752 187.89025 
L 297.58464 181.553104 
L 297.94176 183.815523 
L 298.29888 139.576336 
L 298.656 181.154149 
L 299.01312 184.972613 
L 299.37024 131.701818 
L 299.72736 185.830623 
L 300.08448 133.088867 
L 300.4416 168.391275 
L 300.79872 133.932403 
L 301.15584 154.060852 
L 301.51296 125.511762 
L 301.87008 154.958463 
L 302.2272 144.822395 
L 302.58432 93.469494 
L 302.94144 137.782399 
L 303.65568 184.057798 
L 304.0128 171.433914 
L 304.36992 163.06088 
L 304.72704 139.097463 
L 305.08416 181.985363 
L 305.44128 103.282555 
L 305.7984 146.065282 
L 306.15552 148.092763 
L 306.51264 183.958114 
L 306.86976 154.107134 
L 307.22688 217.617905 
L 307.584 142.47278 
L 307.94112 123.141549 
L 308.29824 115.392784 
L 308.65536 129.225806 
L 309.01248 170.204552 
L 309.3696 154.040881 
L 309.72672 197.697676 
L 310.08384 124.180577 
L 310.44096 119.19014 
L 310.79808 137.452703 
L 311.1552 149.329759 
L 311.51232 107.776557 
L 311.86944 146.693486 
L 312.22656 118.293088 
L 312.58368 175.422654 
L 312.9408 140.025807 
L 313.29792 182.868912 
L 313.65504 102.894834 
L 314.01216 149.406231 
L 314.36928 140.422994 
L 314.7264 185.096463 
L 315.08352 155.992652 
L 315.44064 160.462903 
L 315.79776 169.962671 
L 316.15488 110.240425 
L 316.512 190.435287 
L 316.86912 105.779334 
L 317.22624 198.811167 
L 317.58336 113.81166 
L 317.94048 150.43514 
L 318.2976 139.856509 
L 318.65472 180.889514 
L 319.01184 156.883967 
L 319.36896 142.814936 
L 319.72608 147.608614 
L 320.0832 114.21106 
L 320.44032 116.189775 
L 320.79744 154.16846 
L 321.15456 113.774713 
L 321.51168 189.233769 
L 321.8688 139.407283 
L 322.22592 214.601987 
L 322.58304 111.438409 
L 323.29728 175.08064 
L 323.6544 159.56487 
L 324.01152 135.915126 
L 324.36864 139.873238 
L 324.72576 210.162972 
L 325.08288 173.114841 
L 325.44 165.33126 
L 325.79712 135.849236 
L 326.15424 164.25694 
L 326.51136 136.310267 
L 326.86848 184.935709 
L 327.2256 152.363776 
L 327.58272 163.067372 
L 327.93984 167.454568 
L 328.29696 203.157055 
L 328.65408 148.294396 
L 329.0112 165.486333 
L 329.36832 158.092808 
L 329.72544 201.115199 
L 330.08256 156.327413 
L 330.43968 182.256663 
L 330.7968 115.836207 
L 331.15392 156.650363 
L 331.51104 128.388937 
L 331.86816 133.924646 
L 332.22528 176.220265 
L 332.5824 123.504403 
L 332.93952 143.176641 
L 333.29664 188.665185 
L 333.65376 172.172894 
L 334.01088 196.735947 
L 334.368 172.664357 
L 334.72512 186.886753 
L 335.08224 149.968261 
L 335.43936 130.560854 
L 335.79648 128.137139 
L 336.1536 163.074521 
L 336.51072 177.830647 
L 336.86784 180.319277 
L 337.22496 145.279533 
L 337.9392 116.726198 
L 338.29632 159.039578 
L 338.65344 118.292325 
L 339.01056 159.875404 
L 339.36768 184.169051 
L 339.7248 185.759887 
L 340.08192 128.890606 
L 340.43904 167.135178 
L 340.79616 139.390751 
L 341.15328 126.232454 
L 341.5104 131.124091 
L 341.86752 171.108923 
L 342.22464 175.186577 
L 342.58176 146.618972 
L 342.93888 166.801308 
L 343.296 128.960779 
L 343.65312 106.421531 
L 344.01024 133.710696 
L 344.36736 116.429238 
L 344.72448 181.336252 
L 345.43872 254.441322 
L 345.79584 172.812964 
L 346.51008 151.014601 
L 346.8672 131.001041 
L 347.22432 156.466559 
L 347.58144 145.741751 
L 347.93856 191.489904 
L 348.29568 141.926152 
L 348.6528 164.526309 
L 349.00992 178.965981 
L 349.36704 136.694215 
L 349.72416 223.480832 
L 350.08128 129.964424 
L 350.4384 94.701559 
L 350.79552 154.807172 
L 351.15264 129.897852 
L 351.50976 150.126527 
L 351.86688 94.146514 
L 352.224 179.944276 
L 352.58112 132.417006 
L 352.93824 172.145903 
L 353.29536 116.564961 
L 353.65248 194.07152 
L 354.0096 111.772742 
L 354.36672 182.895502 
L 354.72384 142.504423 
L 355.08096 143.198014 
L 355.43808 126.030658 
L 355.7952 141.604095 
L 356.15232 148.924176 
L 356.50944 167.302487 
L 356.86656 194.048032 
L 357.22368 167.969751 
L 357.5808 129.156631 
L 357.93792 147.049257 
L 358.65216 163.563536 
L 359.00928 128.994007 
L 359.3664 166.092003 
L 359.72352 152.043056 
L 360.08064 158.769211 
L 360.43776 185.48003 
L 360.79488 201.030731 
L 361.152 185.307598 
L 361.50912 190.339871 
L 361.86624 119.414834 
L 362.22336 135.45655 
L 362.58048 98.71927 
L 362.9376 123.504018 
L 363.29472 184.494219 
L 363.65184 157.131067 
L 364.00896 212.300347 
L 364.36608 170.907521 
L 364.7232 171.4449 
L 365.08032 142.096467 
L 365.43744 141.651035 
L 365.79456 170.14121 
L 366.5088 106.560586 
L 366.86592 130.853314 
L 367.22304 102.81474 
L 367.58016 190.482659 
L 367.93728 116.435243 
L 368.2944 134.411981 
L 368.65152 124.392757 
L 369.00864 211.404251 
L 369.36576 238.971408 
L 369.72288 192.53533 
L 370.08 236.981942 
L 370.43712 91.862907 
L 370.79424 161.321491 
L 371.15136 122.87306 
L 371.50848 197.189818 
L 371.8656 125.81712 
L 372.22272 108.364492 
L 372.57984 178.641772 
L 372.93696 129.086498 
L 373.29408 109.5541 
L 373.6512 141.190731 
L 374.00832 125.12059 
L 374.36544 170.392448 
L 374.72256 158.036016 
L 375.07968 160.02542 
L 375.4368 192.560517 
L 375.79392 150.653624 
L 376.15104 142.804718 
L 376.50816 109.725556 
L 376.86528 126.096016 
L 377.2224 154.281441 
L 377.57952 209.921588 
L 377.93664 218.72242 
L 378.29376 177.010104 
L 378.65088 182.86489 
L 379.008 142.224111 
L 379.36512 162.620108 
L 379.72224 157.966356 
L 380.07936 158.497436 
L 380.43648 163.466104 
L 380.7936 139.234509 
L 381.15072 203.22831 
L 381.50784 178.612282 
L 381.86496 167.504532 
L 382.22208 189.742536 
L 382.5792 166.474873 
L 382.93632 155.518419 
L 383.29344 218.216113 
L 383.65056 176.81422 
L 384.00768 174.365576 
L 384.3648 168.978339 
L 384.72192 149.86242 
L 385.07904 143.858829 
L 385.43616 123.783178 
L 385.79328 196.998964 
L 386.1504 103.796597 
L 386.50752 143.578186 
L 386.86464 129.086132 
L 387.22176 107.950289 
L 387.57888 135.112957 
L 387.936 197.918016 
L 388.29312 170.738648 
L 388.65024 195.403723 
L 389.00736 137.704178 
L 389.36448 136.084174 
L 390.43584 215.61497 
L 390.79296 131.738142 
L 391.15008 198.605998 
L 391.86432 125.659075 
L 392.22144 143.711572 
L 392.57856 155.977254 
L 392.93568 134.082054 
L 393.2928 136.926227 
L 393.64992 151.763871 
L 394.00704 131.627583 
L 394.36416 150.557247 
L 394.72128 131.767937 
L 395.0784 142.468999 
L 395.43552 136.275621 
L 395.79264 140.544765 
L 396.14976 229.038501 
L 396.50688 211.976428 
L 396.864 153.482596 
L 397.22112 229.326489 
L 397.57824 244.811102 
L 397.93536 147.765753 
L 398.29248 195.70001 
L 398.6496 116.285424 
L 399.00672 141.634721 
L 399.36384 151.46885 
L 399.72096 178.663163 
L 400.4352 151.006452 
L 400.79232 137.820586 
L 401.14944 133.314385 
L 401.50656 154.426332 
L 401.86368 105.517815 
L 402.2208 155.128463 
L 402.57792 105.314231 
L 402.93504 184.143789 
L 403.29216 205.880188 
L 403.64928 162.287258 
L 404.0064 147.715667 
L 404.36352 165.932579 
L 404.72064 125.936941 
L 405.07776 68.470172 
L 405.43488 111.32663 
L 405.792 123.700544 
L 406.14912 152.518966 
L 406.50624 113.594061 
L 406.86336 156.974305 
L 407.22048 114.948132 
L 407.5776 206.891664 
L 407.93472 157.042546 
L 408.29184 174.248707 
L 408.64896 154.13727 
L 409.00608 173.61778 
L 409.3632 166.331596 
L 409.72032 167.827582 
L 410.07744 132.888533 
L 410.43456 131.271266 
L 410.79168 149.853631 
L 411.1488 151.350901 
L 411.50592 103.880584 
L 411.86304 179.497244 
L 412.22016 212.527761 
L 412.57728 161.230467 
L 412.9344 230.583405 
L 413.29152 144.000433 
L 413.64864 136.560447 
L 414.00576 133.396759 
L 414.36288 159.15227 
L 414.36288 159.15227 
" style="fill:none;stroke:#0000ff;stroke-linecap:square;stroke-width:1.5;"/>
   </g>
   <g id="patch_3">
    <path d="M 57.6 307.584 
L 57.6 41.472 
" style="fill:none;stroke:#000000;stroke-linecap:square;stroke-linejoin:miter;stroke-width:0.8;"/>
   </g>
   <g id="patch_4">
    <path d="M 414.72 307.584 
L 414.72 41.472 
" style="fill:none;stroke:#000000;stroke-linecap:square;stroke-linejoin:miter;stroke-width:0.8;"/>
   </g>
   <g id="patch_5">
    <path d="M 57.6 307.584 
L 414.72 307.584 
" style="fill:none;stroke:#000000;stroke-linecap:square;stroke-linejoin:miter;stroke-width:0.8;"/>
   </g>
   <g id="patch_6">
    <path d="M 57.6 41.472 
L 414.72 41.472 
" style="fill:none;stroke:#000000;stroke-linecap:square;stroke-linejoin:miter;stroke-width:0.8;"/>
   </g>
   <g id="legend_1">
    <g id="patch_7">
     <path d="M 282.321563 64.150125 
L 407.72 64.150125 
Q 409.72 64.150125 409.72 62.150125 
L 409.72 48.472 
Q 409.72 46.472 407.72 46.472 
L 282.321563 46.472 
Q 280.321563 46.472 280.321563 48.472 
L 280.321563 62.150125 
Q 280.321563 64.150125 282.321563 64.150125 
z
" style="fill:#ffffff;opacity:0.8;stroke:#cccccc;stroke-linejoin:miter;"/>
    </g>
    <g id="line2d_28">
     <path d="M 284.321563 54.570438 
L 304.321563 54.570438 
" style="fill:none;stroke:#0000ff;stroke-linecap:square;stroke-width:1.5;"/>
    </g>
    <g id="line2d_29"/>
    <g id="text_16">
     <!-- cumulative reward -->
     <g transform="translate(312.321563 58.070438)scale(0.1 -0.1)">
      <defs>
       <path d="M 3122 3366 
L 3122 2828 
Q 2878 2963 2633 3030 
Q 2388 3097 2138 3097 
Q 1578 3097 1268 2742 
Q 959 2388 959 1747 
Q 959 1106 1268 751 
Q 1578 397 2138 397 
Q 2388 397 2633 464 
Q 2878 531 3122 666 
L 3122 134 
Q 2881 22 2623 -34 
Q 2366 -91 2075 -91 
Q 1284 -91 818 406 
Q 353 903 353 1747 
Q 353 2603 823 3093 
Q 1294 3584 2113 3584 
Q 2378 3584 2631 3529 
Q 2884 3475 3122 3366 
z
" id="DejaVuSans-63" transform="scale(0.015625)"/>
      </defs>
      <use xlink:href="#DejaVuSans-63"/>
      <use x="54.980469" xlink:href="#DejaVuSans-75"/>
      <use x="118.359375" xlink:href="#DejaVuSans-6d"/>
      <use x="215.771484" xlink:href="#DejaVuSans-75"/>
      <use x="279.150391" xlink:href="#DejaVuSans-6c"/>
      <use x="306.933594" xlink:href="#DejaVuSans-61"/>
      <use x="368.212891" xlink:href="#DejaVuSans-74"/>
      <use x="407.421875" xlink:href="#DejaVuSans-69"/>
      <use x="435.205078" xlink:href="#DejaVuSans-76"/>
      <use x="494.384766" xlink:href="#DejaVuSans-65"/>
      <use x="555.908203" xlink:href="#DejaVuSans-20"/>
      <use x="587.695312" xlink:href="#DejaVuSans-72"/>
      <use x="626.558594" xlink:href="#DejaVuSans-65"/>
      <use x="688.082031" xlink:href="#DejaVuSans-77"/>
      <use x="769.869141" xlink:href="#DejaVuSans-61"/>
      <use x="831.148438" xlink:href="#DejaVuSans-72"/>
      <use x="870.511719" xlink:href="#DejaVuSans-64"/>
     </g>
    </g>
   </g>
  </g>
 </g>
 <defs>
  <clipPath id="p1561a37e4b">
   <rect height="266.112" width="357.12" x="57.6" y="41.472"/>
  </clipPath>
 </defs>
</svg>
