<?xml version="1.0" encoding="utf-8" standalone="no"?>
<!DOCTYPE svg PUBLIC "-//W3C//DTD SVG 1.1//EN"
  "http://www.w3.org/Graphics/SVG/1.1/DTD/svg11.dtd">
<svg height="345.6pt" version="1.1" viewBox="0 0 460.8 345.6" width="460.8pt" xmlns="http://www.w3.org/2000/svg" xmlns:xlink="http://www.w3.org/1999/xlink">
 <metadata>
  <rdf:RDF xmlns:cc="http://creativecommons.org/ns#" xmlns:dc="http://purl.org/dc/elements/1.1/" xmlns:rdf="http://www.w3.org/1999/02/22-rdf-syntax-ns#">
   <cc:Work>
    <dc:type rdf:resource="http://purl.org/dc/dcmitype/StillImage"/>
    <dc:date>2021-10-19T10:20:33.146447</dc:date>
    <dc:description>{"agent.algorithm": "RayProximalPolicyOptimization", "agent.algorithm.render_env": false, "agent.algorithm.batch_mode": "complete_episodes", "agent.algorithm.train_batch_size": 200, "agent.algorithm.optimizer": "Adam", "agent.algorithm.vf_clip_param": 500, "agent.algorithm.model": {"fcnet_activation": "tanh", "fcnet_hiddens": [30, 30]}, "env.env_class": "SchedulerPolicyRayEnvironment", "env.env_config": {"solver_driver": "CMAdriver", "solver_driver_args": [10, 10, "rastrigin"], "maximize": false, "steps": 50, "state_metrics_names": ["DifferenceOfBest", "SolverState"], "state_metrics_config": [[40, false, 1, true, true], [{"step_size": {"max": 3, "min": 1e-10}}]], "reward_metric": "Best", "reward_metric_config": [false, false], "memes_no": 1, "parameter_tune_config": {"step_size": {"max": 3, "min": 1e-10}}}}</dc:description>
    <dc:format>image/svg+xml</dc:format>
    <dc:creator>
     <cc:Agent>
      <dc:title>Matplotlib v3.4.2, https://matplotlib.org/</dc:title>
     </cc:Agent>
    </dc:creator>
   </cc:Work>
  </rdf:RDF>
 </metadata>
 <defs>
  <style type="text/css">*{stroke-linecap:butt;stroke-linejoin:round;}</style>
 </defs>
 <g id="figure_1">
  <g id="patch_1">
   <path d="M 0 345.6 
L 460.8 345.6 
L 460.8 0 
L 0 0 
z
" style="fill:#ffffff;"/>
  </g>
  <g id="axes_1">
   <g id="patch_2">
    <path d="M 57.6 307.584 
L 414.72 307.584 
L 414.72 41.472 
L 57.6 41.472 
z
" style="fill:#ffffff;"/>
   </g>
   <g id="matplotlib.axis_1">
    <g id="xtick_1">
     <g id="line2d_1">
      <path clip-path="url(#p636ffaf6a5)" d="M 57.6 307.584 
L 57.6 41.472 
" style="fill:none;stroke:#b0b0b0;stroke-linecap:square;stroke-width:0.8;"/>
     </g>
     <g id="line2d_2">
      <defs>
       <path d="M 0 0 
L 0 3.5 
" id="me0496b5926" style="stroke:#000000;stroke-width:0.8;"/>
      </defs>
      <g>
       <use style="stroke:#000000;stroke-width:0.8;" x="57.6" xlink:href="#me0496b5926" y="307.584"/>
      </g>
     </g>
     <g id="text_1">
      <!-- 0 -->
      <g transform="translate(54.41875 322.182437)scale(0.1 -0.1)">
       <defs>
        <path d="M 2034 4250 
Q 1547 4250 1301 3770 
Q 1056 3291 1056 2328 
Q 1056 1369 1301 889 
Q 1547 409 2034 409 
Q 2525 409 2770 889 
Q 3016 1369 3016 2328 
Q 3016 3291 2770 3770 
Q 2525 4250 2034 4250 
z
M 2034 4750 
Q 2819 4750 3233 4129 
Q 3647 3509 3647 2328 
Q 3647 1150 3233 529 
Q 2819 -91 2034 -91 
Q 1250 -91 836 529 
Q 422 1150 422 2328 
Q 422 3509 836 4129 
Q 1250 4750 2034 4750 
z
" id="DejaVuSans-30" transform="scale(0.015625)"/>
       </defs>
       <use xlink:href="#DejaVuSans-30"/>
      </g>
     </g>
    </g>
    <g id="xtick_2">
     <g id="line2d_3">
      <path clip-path="url(#p636ffaf6a5)" d="M 102.24 307.584 
L 102.24 41.472 
" style="fill:none;stroke:#b0b0b0;stroke-linecap:square;stroke-width:0.8;"/>
     </g>
     <g id="line2d_4">
      <g>
       <use style="stroke:#000000;stroke-width:0.8;" x="102.24" xlink:href="#me0496b5926" y="307.584"/>
      </g>
     </g>
     <g id="text_2">
      <!-- 250 -->
      <g transform="translate(92.69625 322.182437)scale(0.1 -0.1)">
       <defs>
        <path d="M 1228 531 
L 3431 531 
L 3431 0 
L 469 0 
L 469 531 
Q 828 903 1448 1529 
Q 2069 2156 2228 2338 
Q 2531 2678 2651 2914 
Q 2772 3150 2772 3378 
Q 2772 3750 2511 3984 
Q 2250 4219 1831 4219 
Q 1534 4219 1204 4116 
Q 875 4013 500 3803 
L 500 4441 
Q 881 4594 1212 4672 
Q 1544 4750 1819 4750 
Q 2544 4750 2975 4387 
Q 3406 4025 3406 3419 
Q 3406 3131 3298 2873 
Q 3191 2616 2906 2266 
Q 2828 2175 2409 1742 
Q 1991 1309 1228 531 
z
" id="DejaVuSans-32" transform="scale(0.015625)"/>
        <path d="M 691 4666 
L 3169 4666 
L 3169 4134 
L 1269 4134 
L 1269 2991 
Q 1406 3038 1543 3061 
Q 1681 3084 1819 3084 
Q 2600 3084 3056 2656 
Q 3513 2228 3513 1497 
Q 3513 744 3044 326 
Q 2575 -91 1722 -91 
Q 1428 -91 1123 -41 
Q 819 9 494 109 
L 494 744 
Q 775 591 1075 516 
Q 1375 441 1709 441 
Q 2250 441 2565 725 
Q 2881 1009 2881 1497 
Q 2881 1984 2565 2268 
Q 2250 2553 1709 2553 
Q 1456 2553 1204 2497 
Q 953 2441 691 2322 
L 691 4666 
z
" id="DejaVuSans-35" transform="scale(0.015625)"/>
       </defs>
       <use xlink:href="#DejaVuSans-32"/>
       <use x="63.623047" xlink:href="#DejaVuSans-35"/>
       <use x="127.246094" xlink:href="#DejaVuSans-30"/>
      </g>
     </g>
    </g>
    <g id="xtick_3">
     <g id="line2d_5">
      <path clip-path="url(#p636ffaf6a5)" d="M 146.88 307.584 
L 146.88 41.472 
" style="fill:none;stroke:#b0b0b0;stroke-linecap:square;stroke-width:0.8;"/>
     </g>
     <g id="line2d_6">
      <g>
       <use style="stroke:#000000;stroke-width:0.8;" x="146.88" xlink:href="#me0496b5926" y="307.584"/>
      </g>
     </g>
     <g id="text_3">
      <!-- 500 -->
      <g transform="translate(137.33625 322.182437)scale(0.1 -0.1)">
       <use xlink:href="#DejaVuSans-35"/>
       <use x="63.623047" xlink:href="#DejaVuSans-30"/>
       <use x="127.246094" xlink:href="#DejaVuSans-30"/>
      </g>
     </g>
    </g>
    <g id="xtick_4">
     <g id="line2d_7">
      <path clip-path="url(#p636ffaf6a5)" d="M 191.52 307.584 
L 191.52 41.472 
" style="fill:none;stroke:#b0b0b0;stroke-linecap:square;stroke-width:0.8;"/>
     </g>
     <g id="line2d_8">
      <g>
       <use style="stroke:#000000;stroke-width:0.8;" x="191.52" xlink:href="#me0496b5926" y="307.584"/>
      </g>
     </g>
     <g id="text_4">
      <!-- 750 -->
      <g transform="translate(181.97625 322.182437)scale(0.1 -0.1)">
       <defs>
        <path d="M 525 4666 
L 3525 4666 
L 3525 4397 
L 1831 0 
L 1172 0 
L 2766 4134 
L 525 4134 
L 525 4666 
z
" id="DejaVuSans-37" transform="scale(0.015625)"/>
       </defs>
       <use xlink:href="#DejaVuSans-37"/>
       <use x="63.623047" xlink:href="#DejaVuSans-35"/>
       <use x="127.246094" xlink:href="#DejaVuSans-30"/>
      </g>
     </g>
    </g>
    <g id="xtick_5">
     <g id="line2d_9">
      <path clip-path="url(#p636ffaf6a5)" d="M 236.16 307.584 
L 236.16 41.472 
" style="fill:none;stroke:#b0b0b0;stroke-linecap:square;stroke-width:0.8;"/>
     </g>
     <g id="line2d_10">
      <g>
       <use style="stroke:#000000;stroke-width:0.8;" x="236.16" xlink:href="#me0496b5926" y="307.584"/>
      </g>
     </g>
     <g id="text_5">
      <!-- 1000 -->
      <g transform="translate(223.435 322.182437)scale(0.1 -0.1)">
       <defs>
        <path d="M 794 531 
L 1825 531 
L 1825 4091 
L 703 3866 
L 703 4441 
L 1819 4666 
L 2450 4666 
L 2450 531 
L 3481 531 
L 3481 0 
L 794 0 
L 794 531 
z
" id="DejaVuSans-31" transform="scale(0.015625)"/>
       </defs>
       <use xlink:href="#DejaVuSans-31"/>
       <use x="63.623047" xlink:href="#DejaVuSans-30"/>
       <use x="127.246094" xlink:href="#DejaVuSans-30"/>
       <use x="190.869141" xlink:href="#DejaVuSans-30"/>
      </g>
     </g>
    </g>
    <g id="xtick_6">
     <g id="line2d_11">
      <path clip-path="url(#p636ffaf6a5)" d="M 280.8 307.584 
L 280.8 41.472 
" style="fill:none;stroke:#b0b0b0;stroke-linecap:square;stroke-width:0.8;"/>
     </g>
     <g id="line2d_12">
      <g>
       <use style="stroke:#000000;stroke-width:0.8;" x="280.8" xlink:href="#me0496b5926" y="307.584"/>
      </g>
     </g>
     <g id="text_6">
      <!-- 1250 -->
      <g transform="translate(268.075 322.182437)scale(0.1 -0.1)">
       <use xlink:href="#DejaVuSans-31"/>
       <use x="63.623047" xlink:href="#DejaVuSans-32"/>
       <use x="127.246094" xlink:href="#DejaVuSans-35"/>
       <use x="190.869141" xlink:href="#DejaVuSans-30"/>
      </g>
     </g>
    </g>
    <g id="xtick_7">
     <g id="line2d_13">
      <path clip-path="url(#p636ffaf6a5)" d="M 325.44 307.584 
L 325.44 41.472 
" style="fill:none;stroke:#b0b0b0;stroke-linecap:square;stroke-width:0.8;"/>
     </g>
     <g id="line2d_14">
      <g>
       <use style="stroke:#000000;stroke-width:0.8;" x="325.44" xlink:href="#me0496b5926" y="307.584"/>
      </g>
     </g>
     <g id="text_7">
      <!-- 1500 -->
      <g transform="translate(312.715 322.182437)scale(0.1 -0.1)">
       <use xlink:href="#DejaVuSans-31"/>
       <use x="63.623047" xlink:href="#DejaVuSans-35"/>
       <use x="127.246094" xlink:href="#DejaVuSans-30"/>
       <use x="190.869141" xlink:href="#DejaVuSans-30"/>
      </g>
     </g>
    </g>
    <g id="xtick_8">
     <g id="line2d_15">
      <path clip-path="url(#p636ffaf6a5)" d="M 370.08 307.584 
L 370.08 41.472 
" style="fill:none;stroke:#b0b0b0;stroke-linecap:square;stroke-width:0.8;"/>
     </g>
     <g id="line2d_16">
      <g>
       <use style="stroke:#000000;stroke-width:0.8;" x="370.08" xlink:href="#me0496b5926" y="307.584"/>
      </g>
     </g>
     <g id="text_8">
      <!-- 1750 -->
      <g transform="translate(357.355 322.182437)scale(0.1 -0.1)">
       <use xlink:href="#DejaVuSans-31"/>
       <use x="63.623047" xlink:href="#DejaVuSans-37"/>
       <use x="127.246094" xlink:href="#DejaVuSans-35"/>
       <use x="190.869141" xlink:href="#DejaVuSans-30"/>
      </g>
     </g>
    </g>
    <g id="xtick_9">
     <g id="line2d_17">
      <path clip-path="url(#p636ffaf6a5)" d="M 414.72 307.584 
L 414.72 41.472 
" style="fill:none;stroke:#b0b0b0;stroke-linecap:square;stroke-width:0.8;"/>
     </g>
     <g id="line2d_18">
      <g>
       <use style="stroke:#000000;stroke-width:0.8;" x="414.72" xlink:href="#me0496b5926" y="307.584"/>
      </g>
     </g>
     <g id="text_9">
      <!-- 2000 -->
      <g transform="translate(401.995 322.182437)scale(0.1 -0.1)">
       <use xlink:href="#DejaVuSans-32"/>
       <use x="63.623047" xlink:href="#DejaVuSans-30"/>
       <use x="127.246094" xlink:href="#DejaVuSans-30"/>
       <use x="190.869141" xlink:href="#DejaVuSans-30"/>
      </g>
     </g>
    </g>
    <g id="text_10">
     <!-- Episodes -->
     <g transform="translate(213.917812 335.860562)scale(0.1 -0.1)">
      <defs>
       <path d="M 628 4666 
L 3578 4666 
L 3578 4134 
L 1259 4134 
L 1259 2753 
L 3481 2753 
L 3481 2222 
L 1259 2222 
L 1259 531 
L 3634 531 
L 3634 0 
L 628 0 
L 628 4666 
z
" id="DejaVuSans-45" transform="scale(0.015625)"/>
       <path d="M 1159 525 
L 1159 -1331 
L 581 -1331 
L 581 3500 
L 1159 3500 
L 1159 2969 
Q 1341 3281 1617 3432 
Q 1894 3584 2278 3584 
Q 2916 3584 3314 3078 
Q 3713 2572 3713 1747 
Q 3713 922 3314 415 
Q 2916 -91 2278 -91 
Q 1894 -91 1617 61 
Q 1341 213 1159 525 
z
M 3116 1747 
Q 3116 2381 2855 2742 
Q 2594 3103 2138 3103 
Q 1681 3103 1420 2742 
Q 1159 2381 1159 1747 
Q 1159 1113 1420 752 
Q 1681 391 2138 391 
Q 2594 391 2855 752 
Q 3116 1113 3116 1747 
z
" id="DejaVuSans-70" transform="scale(0.015625)"/>
       <path d="M 603 3500 
L 1178 3500 
L 1178 0 
L 603 0 
L 603 3500 
z
M 603 4863 
L 1178 4863 
L 1178 4134 
L 603 4134 
L 603 4863 
z
" id="DejaVuSans-69" transform="scale(0.015625)"/>
       <path d="M 2834 3397 
L 2834 2853 
Q 2591 2978 2328 3040 
Q 2066 3103 1784 3103 
Q 1356 3103 1142 2972 
Q 928 2841 928 2578 
Q 928 2378 1081 2264 
Q 1234 2150 1697 2047 
L 1894 2003 
Q 2506 1872 2764 1633 
Q 3022 1394 3022 966 
Q 3022 478 2636 193 
Q 2250 -91 1575 -91 
Q 1294 -91 989 -36 
Q 684 19 347 128 
L 347 722 
Q 666 556 975 473 
Q 1284 391 1588 391 
Q 1994 391 2212 530 
Q 2431 669 2431 922 
Q 2431 1156 2273 1281 
Q 2116 1406 1581 1522 
L 1381 1569 
Q 847 1681 609 1914 
Q 372 2147 372 2553 
Q 372 3047 722 3315 
Q 1072 3584 1716 3584 
Q 2034 3584 2315 3537 
Q 2597 3491 2834 3397 
z
" id="DejaVuSans-73" transform="scale(0.015625)"/>
       <path d="M 1959 3097 
Q 1497 3097 1228 2736 
Q 959 2375 959 1747 
Q 959 1119 1226 758 
Q 1494 397 1959 397 
Q 2419 397 2687 759 
Q 2956 1122 2956 1747 
Q 2956 2369 2687 2733 
Q 2419 3097 1959 3097 
z
M 1959 3584 
Q 2709 3584 3137 3096 
Q 3566 2609 3566 1747 
Q 3566 888 3137 398 
Q 2709 -91 1959 -91 
Q 1206 -91 779 398 
Q 353 888 353 1747 
Q 353 2609 779 3096 
Q 1206 3584 1959 3584 
z
" id="DejaVuSans-6f" transform="scale(0.015625)"/>
       <path d="M 2906 2969 
L 2906 4863 
L 3481 4863 
L 3481 0 
L 2906 0 
L 2906 525 
Q 2725 213 2448 61 
Q 2172 -91 1784 -91 
Q 1150 -91 751 415 
Q 353 922 353 1747 
Q 353 2572 751 3078 
Q 1150 3584 1784 3584 
Q 2172 3584 2448 3432 
Q 2725 3281 2906 2969 
z
M 947 1747 
Q 947 1113 1208 752 
Q 1469 391 1925 391 
Q 2381 391 2643 752 
Q 2906 1113 2906 1747 
Q 2906 2381 2643 2742 
Q 2381 3103 1925 3103 
Q 1469 3103 1208 2742 
Q 947 2381 947 1747 
z
" id="DejaVuSans-64" transform="scale(0.015625)"/>
       <path d="M 3597 1894 
L 3597 1613 
L 953 1613 
Q 991 1019 1311 708 
Q 1631 397 2203 397 
Q 2534 397 2845 478 
Q 3156 559 3463 722 
L 3463 178 
Q 3153 47 2828 -22 
Q 2503 -91 2169 -91 
Q 1331 -91 842 396 
Q 353 884 353 1716 
Q 353 2575 817 3079 
Q 1281 3584 2069 3584 
Q 2775 3584 3186 3129 
Q 3597 2675 3597 1894 
z
M 3022 2063 
Q 3016 2534 2758 2815 
Q 2500 3097 2075 3097 
Q 1594 3097 1305 2825 
Q 1016 2553 972 2059 
L 3022 2063 
z
" id="DejaVuSans-65" transform="scale(0.015625)"/>
      </defs>
      <use xlink:href="#DejaVuSans-45"/>
      <use x="63.183594" xlink:href="#DejaVuSans-70"/>
      <use x="126.660156" xlink:href="#DejaVuSans-69"/>
      <use x="154.443359" xlink:href="#DejaVuSans-73"/>
      <use x="206.542969" xlink:href="#DejaVuSans-6f"/>
      <use x="267.724609" xlink:href="#DejaVuSans-64"/>
      <use x="331.201172" xlink:href="#DejaVuSans-65"/>
      <use x="392.724609" xlink:href="#DejaVuSans-73"/>
     </g>
    </g>
   </g>
   <g id="matplotlib.axis_2">
    <g id="ytick_1">
     <g id="line2d_19">
      <path clip-path="url(#p636ffaf6a5)" d="M 57.6 281.815645 
L 414.72 281.815645 
" style="fill:none;stroke:#b0b0b0;stroke-linecap:square;stroke-width:0.8;"/>
     </g>
     <g id="line2d_20">
      <defs>
       <path d="M 0 0 
L -3.5 0 
" id="ma710b43208" style="stroke:#000000;stroke-width:0.8;"/>
      </defs>
      <g>
       <use style="stroke:#000000;stroke-width:0.8;" x="57.6" xlink:href="#ma710b43208" y="281.815645"/>
      </g>
     </g>
     <g id="text_11">
      <!-- −9000 -->
      <g transform="translate(16.770313 285.614864)scale(0.1 -0.1)">
       <defs>
        <path d="M 678 2272 
L 4684 2272 
L 4684 1741 
L 678 1741 
L 678 2272 
z
" id="DejaVuSans-2212" transform="scale(0.015625)"/>
        <path d="M 703 97 
L 703 672 
Q 941 559 1184 500 
Q 1428 441 1663 441 
Q 2288 441 2617 861 
Q 2947 1281 2994 2138 
Q 2813 1869 2534 1725 
Q 2256 1581 1919 1581 
Q 1219 1581 811 2004 
Q 403 2428 403 3163 
Q 403 3881 828 4315 
Q 1253 4750 1959 4750 
Q 2769 4750 3195 4129 
Q 3622 3509 3622 2328 
Q 3622 1225 3098 567 
Q 2575 -91 1691 -91 
Q 1453 -91 1209 -44 
Q 966 3 703 97 
z
M 1959 2075 
Q 2384 2075 2632 2365 
Q 2881 2656 2881 3163 
Q 2881 3666 2632 3958 
Q 2384 4250 1959 4250 
Q 1534 4250 1286 3958 
Q 1038 3666 1038 3163 
Q 1038 2656 1286 2365 
Q 1534 2075 1959 2075 
z
" id="DejaVuSans-39" transform="scale(0.015625)"/>
       </defs>
       <use xlink:href="#DejaVuSans-2212"/>
       <use x="83.789062" xlink:href="#DejaVuSans-39"/>
       <use x="147.412109" xlink:href="#DejaVuSans-30"/>
       <use x="211.035156" xlink:href="#DejaVuSans-30"/>
       <use x="274.658203" xlink:href="#DejaVuSans-30"/>
      </g>
     </g>
    </g>
    <g id="ytick_2">
     <g id="line2d_21">
      <path clip-path="url(#p636ffaf6a5)" d="M 57.6 250.395527 
L 414.72 250.395527 
" style="fill:none;stroke:#b0b0b0;stroke-linecap:square;stroke-width:0.8;"/>
     </g>
     <g id="line2d_22">
      <g>
       <use style="stroke:#000000;stroke-width:0.8;" x="57.6" xlink:href="#ma710b43208" y="250.395527"/>
      </g>
     </g>
     <g id="text_12">
      <!-- −8000 -->
      <g transform="translate(16.770313 254.194746)scale(0.1 -0.1)">
       <defs>
        <path d="M 2034 2216 
Q 1584 2216 1326 1975 
Q 1069 1734 1069 1313 
Q 1069 891 1326 650 
Q 1584 409 2034 409 
Q 2484 409 2743 651 
Q 3003 894 3003 1313 
Q 3003 1734 2745 1975 
Q 2488 2216 2034 2216 
z
M 1403 2484 
Q 997 2584 770 2862 
Q 544 3141 544 3541 
Q 544 4100 942 4425 
Q 1341 4750 2034 4750 
Q 2731 4750 3128 4425 
Q 3525 4100 3525 3541 
Q 3525 3141 3298 2862 
Q 3072 2584 2669 2484 
Q 3125 2378 3379 2068 
Q 3634 1759 3634 1313 
Q 3634 634 3220 271 
Q 2806 -91 2034 -91 
Q 1263 -91 848 271 
Q 434 634 434 1313 
Q 434 1759 690 2068 
Q 947 2378 1403 2484 
z
M 1172 3481 
Q 1172 3119 1398 2916 
Q 1625 2713 2034 2713 
Q 2441 2713 2670 2916 
Q 2900 3119 2900 3481 
Q 2900 3844 2670 4047 
Q 2441 4250 2034 4250 
Q 1625 4250 1398 4047 
Q 1172 3844 1172 3481 
z
" id="DejaVuSans-38" transform="scale(0.015625)"/>
       </defs>
       <use xlink:href="#DejaVuSans-2212"/>
       <use x="83.789062" xlink:href="#DejaVuSans-38"/>
       <use x="147.412109" xlink:href="#DejaVuSans-30"/>
       <use x="211.035156" xlink:href="#DejaVuSans-30"/>
       <use x="274.658203" xlink:href="#DejaVuSans-30"/>
      </g>
     </g>
    </g>
    <g id="ytick_3">
     <g id="line2d_23">
      <path clip-path="url(#p636ffaf6a5)" d="M 57.6 218.975409 
L 414.72 218.975409 
" style="fill:none;stroke:#b0b0b0;stroke-linecap:square;stroke-width:0.8;"/>
     </g>
     <g id="line2d_24">
      <g>
       <use style="stroke:#000000;stroke-width:0.8;" x="57.6" xlink:href="#ma710b43208" y="218.975409"/>
      </g>
     </g>
     <g id="text_13">
      <!-- −7000 -->
      <g transform="translate(16.770313 222.774628)scale(0.1 -0.1)">
       <use xlink:href="#DejaVuSans-2212"/>
       <use x="83.789062" xlink:href="#DejaVuSans-37"/>
       <use x="147.412109" xlink:href="#DejaVuSans-30"/>
       <use x="211.035156" xlink:href="#DejaVuSans-30"/>
       <use x="274.658203" xlink:href="#DejaVuSans-30"/>
      </g>
     </g>
    </g>
    <g id="ytick_4">
     <g id="line2d_25">
      <path clip-path="url(#p636ffaf6a5)" d="M 57.6 187.555291 
L 414.72 187.555291 
" style="fill:none;stroke:#b0b0b0;stroke-linecap:square;stroke-width:0.8;"/>
     </g>
     <g id="line2d_26">
      <g>
       <use style="stroke:#000000;stroke-width:0.8;" x="57.6" xlink:href="#ma710b43208" y="187.555291"/>
      </g>
     </g>
     <g id="text_14">
      <!-- −6000 -->
      <g transform="translate(16.770313 191.35451)scale(0.1 -0.1)">
       <defs>
        <path d="M 2113 2584 
Q 1688 2584 1439 2293 
Q 1191 2003 1191 1497 
Q 1191 994 1439 701 
Q 1688 409 2113 409 
Q 2538 409 2786 701 
Q 3034 994 3034 1497 
Q 3034 2003 2786 2293 
Q 2538 2584 2113 2584 
z
M 3366 4563 
L 3366 3988 
Q 3128 4100 2886 4159 
Q 2644 4219 2406 4219 
Q 1781 4219 1451 3797 
Q 1122 3375 1075 2522 
Q 1259 2794 1537 2939 
Q 1816 3084 2150 3084 
Q 2853 3084 3261 2657 
Q 3669 2231 3669 1497 
Q 3669 778 3244 343 
Q 2819 -91 2113 -91 
Q 1303 -91 875 529 
Q 447 1150 447 2328 
Q 447 3434 972 4092 
Q 1497 4750 2381 4750 
Q 2619 4750 2861 4703 
Q 3103 4656 3366 4563 
z
" id="DejaVuSans-36" transform="scale(0.015625)"/>
       </defs>
       <use xlink:href="#DejaVuSans-2212"/>
       <use x="83.789062" xlink:href="#DejaVuSans-36"/>
       <use x="147.412109" xlink:href="#DejaVuSans-30"/>
       <use x="211.035156" xlink:href="#DejaVuSans-30"/>
       <use x="274.658203" xlink:href="#DejaVuSans-30"/>
      </g>
     </g>
    </g>
    <g id="ytick_5">
     <g id="line2d_27">
      <path clip-path="url(#p636ffaf6a5)" d="M 57.6 156.135173 
L 414.72 156.135173 
" style="fill:none;stroke:#b0b0b0;stroke-linecap:square;stroke-width:0.8;"/>
     </g>
     <g id="line2d_28">
      <g>
       <use style="stroke:#000000;stroke-width:0.8;" x="57.6" xlink:href="#ma710b43208" y="156.135173"/>
      </g>
     </g>
     <g id="text_15">
      <!-- −5000 -->
      <g transform="translate(16.770313 159.934392)scale(0.1 -0.1)">
       <use xlink:href="#DejaVuSans-2212"/>
       <use x="83.789062" xlink:href="#DejaVuSans-35"/>
       <use x="147.412109" xlink:href="#DejaVuSans-30"/>
       <use x="211.035156" xlink:href="#DejaVuSans-30"/>
       <use x="274.658203" xlink:href="#DejaVuSans-30"/>
      </g>
     </g>
    </g>
    <g id="ytick_6">
     <g id="line2d_29">
      <path clip-path="url(#p636ffaf6a5)" d="M 57.6 124.715055 
L 414.72 124.715055 
" style="fill:none;stroke:#b0b0b0;stroke-linecap:square;stroke-width:0.8;"/>
     </g>
     <g id="line2d_30">
      <g>
       <use style="stroke:#000000;stroke-width:0.8;" x="57.6" xlink:href="#ma710b43208" y="124.715055"/>
      </g>
     </g>
     <g id="text_16">
      <!-- −4000 -->
      <g transform="translate(16.770313 128.514274)scale(0.1 -0.1)">
       <defs>
        <path d="M 2419 4116 
L 825 1625 
L 2419 1625 
L 2419 4116 
z
M 2253 4666 
L 3047 4666 
L 3047 1625 
L 3713 1625 
L 3713 1100 
L 3047 1100 
L 3047 0 
L 2419 0 
L 2419 1100 
L 313 1100 
L 313 1709 
L 2253 4666 
z
" id="DejaVuSans-34" transform="scale(0.015625)"/>
       </defs>
       <use xlink:href="#DejaVuSans-2212"/>
       <use x="83.789062" xlink:href="#DejaVuSans-34"/>
       <use x="147.412109" xlink:href="#DejaVuSans-30"/>
       <use x="211.035156" xlink:href="#DejaVuSans-30"/>
       <use x="274.658203" xlink:href="#DejaVuSans-30"/>
      </g>
     </g>
    </g>
    <g id="ytick_7">
     <g id="line2d_31">
      <path clip-path="url(#p636ffaf6a5)" d="M 57.6 93.294937 
L 414.72 93.294937 
" style="fill:none;stroke:#b0b0b0;stroke-linecap:square;stroke-width:0.8;"/>
     </g>
     <g id="line2d_32">
      <g>
       <use style="stroke:#000000;stroke-width:0.8;" x="57.6" xlink:href="#ma710b43208" y="93.294937"/>
      </g>
     </g>
     <g id="text_17">
      <!-- −3000 -->
      <g transform="translate(16.770313 97.094155)scale(0.1 -0.1)">
       <defs>
        <path d="M 2597 2516 
Q 3050 2419 3304 2112 
Q 3559 1806 3559 1356 
Q 3559 666 3084 287 
Q 2609 -91 1734 -91 
Q 1441 -91 1130 -33 
Q 819 25 488 141 
L 488 750 
Q 750 597 1062 519 
Q 1375 441 1716 441 
Q 2309 441 2620 675 
Q 2931 909 2931 1356 
Q 2931 1769 2642 2001 
Q 2353 2234 1838 2234 
L 1294 2234 
L 1294 2753 
L 1863 2753 
Q 2328 2753 2575 2939 
Q 2822 3125 2822 3475 
Q 2822 3834 2567 4026 
Q 2313 4219 1838 4219 
Q 1578 4219 1281 4162 
Q 984 4106 628 3988 
L 628 4550 
Q 988 4650 1302 4700 
Q 1616 4750 1894 4750 
Q 2613 4750 3031 4423 
Q 3450 4097 3450 3541 
Q 3450 3153 3228 2886 
Q 3006 2619 2597 2516 
z
" id="DejaVuSans-33" transform="scale(0.015625)"/>
       </defs>
       <use xlink:href="#DejaVuSans-2212"/>
       <use x="83.789062" xlink:href="#DejaVuSans-33"/>
       <use x="147.412109" xlink:href="#DejaVuSans-30"/>
       <use x="211.035156" xlink:href="#DejaVuSans-30"/>
       <use x="274.658203" xlink:href="#DejaVuSans-30"/>
      </g>
     </g>
    </g>
    <g id="ytick_8">
     <g id="line2d_33">
      <path clip-path="url(#p636ffaf6a5)" d="M 57.6 61.874819 
L 414.72 61.874819 
" style="fill:none;stroke:#b0b0b0;stroke-linecap:square;stroke-width:0.8;"/>
     </g>
     <g id="line2d_34">
      <g>
       <use style="stroke:#000000;stroke-width:0.8;" x="57.6" xlink:href="#ma710b43208" y="61.874819"/>
      </g>
     </g>
     <g id="text_18">
      <!-- −2000 -->
      <g transform="translate(16.770313 65.674037)scale(0.1 -0.1)">
       <use xlink:href="#DejaVuSans-2212"/>
       <use x="83.789062" xlink:href="#DejaVuSans-32"/>
       <use x="147.412109" xlink:href="#DejaVuSans-30"/>
       <use x="211.035156" xlink:href="#DejaVuSans-30"/>
       <use x="274.658203" xlink:href="#DejaVuSans-30"/>
      </g>
     </g>
    </g>
    <g id="text_19">
     <!-- Cumulative Reward -->
     <g transform="translate(10.690625 223.275656)rotate(-90)scale(0.1 -0.1)">
      <defs>
       <path d="M 4122 4306 
L 4122 3641 
Q 3803 3938 3442 4084 
Q 3081 4231 2675 4231 
Q 1875 4231 1450 3742 
Q 1025 3253 1025 2328 
Q 1025 1406 1450 917 
Q 1875 428 2675 428 
Q 3081 428 3442 575 
Q 3803 722 4122 1019 
L 4122 359 
Q 3791 134 3420 21 
Q 3050 -91 2638 -91 
Q 1578 -91 968 557 
Q 359 1206 359 2328 
Q 359 3453 968 4101 
Q 1578 4750 2638 4750 
Q 3056 4750 3426 4639 
Q 3797 4528 4122 4306 
z
" id="DejaVuSans-43" transform="scale(0.015625)"/>
       <path d="M 544 1381 
L 544 3500 
L 1119 3500 
L 1119 1403 
Q 1119 906 1312 657 
Q 1506 409 1894 409 
Q 2359 409 2629 706 
Q 2900 1003 2900 1516 
L 2900 3500 
L 3475 3500 
L 3475 0 
L 2900 0 
L 2900 538 
Q 2691 219 2414 64 
Q 2138 -91 1772 -91 
Q 1169 -91 856 284 
Q 544 659 544 1381 
z
M 1991 3584 
L 1991 3584 
z
" id="DejaVuSans-75" transform="scale(0.015625)"/>
       <path d="M 3328 2828 
Q 3544 3216 3844 3400 
Q 4144 3584 4550 3584 
Q 5097 3584 5394 3201 
Q 5691 2819 5691 2113 
L 5691 0 
L 5113 0 
L 5113 2094 
Q 5113 2597 4934 2840 
Q 4756 3084 4391 3084 
Q 3944 3084 3684 2787 
Q 3425 2491 3425 1978 
L 3425 0 
L 2847 0 
L 2847 2094 
Q 2847 2600 2669 2842 
Q 2491 3084 2119 3084 
Q 1678 3084 1418 2786 
Q 1159 2488 1159 1978 
L 1159 0 
L 581 0 
L 581 3500 
L 1159 3500 
L 1159 2956 
Q 1356 3278 1631 3431 
Q 1906 3584 2284 3584 
Q 2666 3584 2933 3390 
Q 3200 3197 3328 2828 
z
" id="DejaVuSans-6d" transform="scale(0.015625)"/>
       <path d="M 603 4863 
L 1178 4863 
L 1178 0 
L 603 0 
L 603 4863 
z
" id="DejaVuSans-6c" transform="scale(0.015625)"/>
       <path d="M 2194 1759 
Q 1497 1759 1228 1600 
Q 959 1441 959 1056 
Q 959 750 1161 570 
Q 1363 391 1709 391 
Q 2188 391 2477 730 
Q 2766 1069 2766 1631 
L 2766 1759 
L 2194 1759 
z
M 3341 1997 
L 3341 0 
L 2766 0 
L 2766 531 
Q 2569 213 2275 61 
Q 1981 -91 1556 -91 
Q 1019 -91 701 211 
Q 384 513 384 1019 
Q 384 1609 779 1909 
Q 1175 2209 1959 2209 
L 2766 2209 
L 2766 2266 
Q 2766 2663 2505 2880 
Q 2244 3097 1772 3097 
Q 1472 3097 1187 3025 
Q 903 2953 641 2809 
L 641 3341 
Q 956 3463 1253 3523 
Q 1550 3584 1831 3584 
Q 2591 3584 2966 3190 
Q 3341 2797 3341 1997 
z
" id="DejaVuSans-61" transform="scale(0.015625)"/>
       <path d="M 1172 4494 
L 1172 3500 
L 2356 3500 
L 2356 3053 
L 1172 3053 
L 1172 1153 
Q 1172 725 1289 603 
Q 1406 481 1766 481 
L 2356 481 
L 2356 0 
L 1766 0 
Q 1100 0 847 248 
Q 594 497 594 1153 
L 594 3053 
L 172 3053 
L 172 3500 
L 594 3500 
L 594 4494 
L 1172 4494 
z
" id="DejaVuSans-74" transform="scale(0.015625)"/>
       <path d="M 191 3500 
L 800 3500 
L 1894 563 
L 2988 3500 
L 3597 3500 
L 2284 0 
L 1503 0 
L 191 3500 
z
" id="DejaVuSans-76" transform="scale(0.015625)"/>
       <path id="DejaVuSans-20" transform="scale(0.015625)"/>
       <path d="M 2841 2188 
Q 3044 2119 3236 1894 
Q 3428 1669 3622 1275 
L 4263 0 
L 3584 0 
L 2988 1197 
Q 2756 1666 2539 1819 
Q 2322 1972 1947 1972 
L 1259 1972 
L 1259 0 
L 628 0 
L 628 4666 
L 2053 4666 
Q 2853 4666 3247 4331 
Q 3641 3997 3641 3322 
Q 3641 2881 3436 2590 
Q 3231 2300 2841 2188 
z
M 1259 4147 
L 1259 2491 
L 2053 2491 
Q 2509 2491 2742 2702 
Q 2975 2913 2975 3322 
Q 2975 3731 2742 3939 
Q 2509 4147 2053 4147 
L 1259 4147 
z
" id="DejaVuSans-52" transform="scale(0.015625)"/>
       <path d="M 269 3500 
L 844 3500 
L 1563 769 
L 2278 3500 
L 2956 3500 
L 3675 769 
L 4391 3500 
L 4966 3500 
L 4050 0 
L 3372 0 
L 2619 2869 
L 1863 0 
L 1184 0 
L 269 3500 
z
" id="DejaVuSans-77" transform="scale(0.015625)"/>
       <path d="M 2631 2963 
Q 2534 3019 2420 3045 
Q 2306 3072 2169 3072 
Q 1681 3072 1420 2755 
Q 1159 2438 1159 1844 
L 1159 0 
L 581 0 
L 581 3500 
L 1159 3500 
L 1159 2956 
Q 1341 3275 1631 3429 
Q 1922 3584 2338 3584 
Q 2397 3584 2469 3576 
Q 2541 3569 2628 3553 
L 2631 2963 
z
" id="DejaVuSans-72" transform="scale(0.015625)"/>
      </defs>
      <use xlink:href="#DejaVuSans-43"/>
      <use x="69.824219" xlink:href="#DejaVuSans-75"/>
      <use x="133.203125" xlink:href="#DejaVuSans-6d"/>
      <use x="230.615234" xlink:href="#DejaVuSans-75"/>
      <use x="293.994141" xlink:href="#DejaVuSans-6c"/>
      <use x="321.777344" xlink:href="#DejaVuSans-61"/>
      <use x="383.056641" xlink:href="#DejaVuSans-74"/>
      <use x="422.265625" xlink:href="#DejaVuSans-69"/>
      <use x="450.048828" xlink:href="#DejaVuSans-76"/>
      <use x="509.228516" xlink:href="#DejaVuSans-65"/>
      <use x="570.751953" xlink:href="#DejaVuSans-20"/>
      <use x="602.539062" xlink:href="#DejaVuSans-52"/>
      <use x="667.521484" xlink:href="#DejaVuSans-65"/>
      <use x="729.044922" xlink:href="#DejaVuSans-77"/>
      <use x="810.832031" xlink:href="#DejaVuSans-61"/>
      <use x="872.111328" xlink:href="#DejaVuSans-72"/>
      <use x="911.474609" xlink:href="#DejaVuSans-64"/>
     </g>
    </g>
   </g>
   <g id="line2d_35">
    <path clip-path="url(#p636ffaf6a5)" d="M 57.6 171.036351 
L 57.77856 181.996583 
L 57.95712 109.1673 
L 58.31424 171.036351 
L 58.4928 181.996583 
L 58.67136 109.1673 
L 59.02848 171.036351 
L 59.20704 181.996583 
L 59.3856 109.1673 
L 59.74272 171.036351 
L 59.92128 181.996583 
L 60.09984 109.1673 
L 60.45696 171.036351 
L 60.63552 181.996583 
L 60.81408 109.1673 
L 61.1712 171.036351 
L 61.34976 181.996583 
L 61.52832 109.1673 
L 61.88544 171.036351 
L 62.064 181.996583 
L 62.24256 109.1673 
L 62.59968 171.036351 
L 62.77824 181.996583 
L 62.9568 109.1673 
L 63.31392 171.036351 
L 63.49248 181.996583 
L 63.67104 109.1673 
L 64.02816 171.036351 
L 64.20672 181.996583 
L 64.38528 109.1673 
L 64.7424 171.036351 
L 64.92096 181.996583 
L 65.09952 109.1673 
L 65.45664 171.036351 
L 65.6352 181.996583 
L 65.81376 109.1673 
L 66.17088 171.036351 
L 66.34944 181.996583 
L 66.528 109.1673 
L 66.88512 171.036351 
L 67.06368 181.996583 
L 67.24224 109.1673 
L 67.59936 171.036351 
L 67.77792 181.996583 
L 67.95648 109.1673 
L 68.3136 171.036351 
L 68.49216 181.996583 
L 68.67072 109.1673 
L 69.02784 171.036351 
L 69.2064 181.996583 
L 69.38496 109.1673 
L 69.74208 171.036351 
L 69.92064 181.996583 
L 70.0992 109.1673 
L 70.45632 171.036351 
L 70.63488 181.996583 
L 70.81344 109.1673 
L 71.17056 171.036351 
L 71.34912 181.996583 
L 71.52768 109.1673 
L 71.8848 171.036351 
L 72.06336 181.996583 
L 72.24192 109.1673 
L 72.59904 171.036351 
L 72.7776 181.996583 
L 72.95616 109.1673 
L 73.31328 171.036351 
L 73.49184 181.996583 
L 73.6704 109.1673 
L 74.02752 171.036351 
L 74.20608 181.996583 
L 74.38464 109.1673 
L 74.74176 171.036351 
L 74.92032 181.996583 
L 75.09888 109.1673 
L 75.27744 152.461762 
L 75.63456 178.401449 
L 75.81312 130.655228 
L 75.99168 131.950339 
L 76.17024 156.432786 
L 76.3488 135.704583 
L 76.52736 141.933634 
L 76.88448 186.102419 
L 77.06304 145.866376 
L 77.2416 184.323241 
L 77.42016 148.152826 
L 77.59872 141.828722 
L 77.77728 152.399558 
L 77.95584 146.195914 
L 78.1344 176.955748 
L 78.31296 164.765838 
L 78.49152 214.036974 
L 78.67008 165.796558 
L 78.84864 164.82075 
L 79.0272 159.063871 
L 79.20576 215.702574 
L 79.38432 157.199752 
L 79.56288 231.987931 
L 79.74144 177.951768 
L 79.92 167.279171 
L 80.09856 191.143281 
L 80.27712 154.767205 
L 80.45568 200.89179 
L 80.63424 159.34112 
L 80.8128 190.069363 
L 81.16992 140.131104 
L 81.34848 207.324184 
L 81.52704 116.960805 
L 81.7056 198.920009 
L 81.88416 162.557948 
L 82.06272 155.154402 
L 82.24128 166.630397 
L 82.41984 151.910848 
L 82.5984 237.040542 
L 82.77696 210.332215 
L 82.95552 219.738287 
L 83.4912 162.437088 
L 83.66976 169.269781 
L 83.84832 224.259202 
L 84.02688 150.370895 
L 84.384 177.670867 
L 84.56256 167.295392 
L 84.74112 212.799414 
L 84.91968 124.326564 
L 85.09824 183.897946 
L 85.2768 136.541788 
L 85.45536 127.484813 
L 85.63392 146.934381 
L 85.81248 108.352508 
L 85.99104 180.055502 
L 86.1696 189.853349 
L 86.34816 155.796934 
L 86.52672 190.855169 
L 86.70528 144.16385 
L 87.0624 183.077617 
L 87.24096 175.414767 
L 87.41952 199.575639 
L 87.59808 157.552199 
L 87.77664 147.384664 
L 87.9552 170.421165 
L 88.13376 178.192947 
L 88.31232 162.212219 
L 88.49088 179.582652 
L 88.66944 170.48897 
L 88.848 173.508423 
L 89.38368 139.885945 
L 89.56224 144.489055 
L 89.7408 208.975615 
L 89.91936 141.848347 
L 90.09792 182.310331 
L 90.27648 143.787883 
L 90.45504 180.332248 
L 90.81216 162.395096 
L 90.99072 164.030508 
L 91.16928 175.780695 
L 91.34784 150.095667 
L 91.88352 188.240979 
L 92.06208 160.040288 
L 92.4192 173.064623 
L 92.59776 174.482253 
L 92.77632 162.812249 
L 92.95488 173.561259 
L 93.13344 117.951823 
L 93.312 97.739709 
L 93.49056 161.460989 
L 93.84768 125.257704 
L 94.02624 216.060611 
L 94.2048 157.857527 
L 94.38336 181.522615 
L 94.56192 143.438642 
L 94.74048 157.529514 
L 94.91904 111.640161 
L 95.0976 165.663954 
L 95.27616 99.351775 
L 95.45472 184.189785 
L 95.63328 138.422092 
L 95.81184 187.290657 
L 96.16896 125.164909 
L 96.34752 188.781045 
L 96.52608 161.197987 
L 96.70464 196.20364 
L 96.8832 188.673452 
L 97.06176 106.183369 
L 97.24032 205.262487 
L 97.41888 136.220682 
L 97.59744 171.274127 
L 97.776 132.664996 
L 97.95456 167.519793 
L 98.31168 137.286566 
L 98.49024 205.409957 
L 98.6688 142.154774 
L 98.84736 181.023777 
L 99.02592 160.372004 
L 99.20448 154.751241 
L 99.38304 127.991362 
L 99.5616 136.10708 
L 99.74016 184.943819 
L 99.91872 147.225347 
L 100.09728 177.013066 
L 100.27584 133.819994 
L 100.4544 183.181173 
L 100.63296 162.864533 
L 100.81152 169.809486 
L 100.99008 194.028158 
L 101.3472 161.74226 
L 101.52576 208.518943 
L 101.70432 136.696506 
L 101.88288 121.196277 
L 102.06144 135.90468 
L 102.24 95.274341 
L 102.41856 111.259949 
L 102.59712 198.824974 
L 102.77568 130.436283 
L 102.95424 161.124815 
L 103.1328 150.526571 
L 103.48992 187.950409 
L 103.66848 166.561388 
L 103.84704 240.342417 
L 104.20416 164.846503 
L 104.38272 195.873635 
L 104.56128 194.070867 
L 104.73984 163.529882 
L 104.9184 167.135636 
L 105.09696 193.276981 
L 105.27552 172.595287 
L 105.45408 186.405196 
L 105.63264 184.271206 
L 105.8112 193.387495 
L 105.98976 184.846085 
L 106.16832 168.574176 
L 106.34688 163.788106 
L 106.52544 195.522213 
L 106.704 155.944591 
L 106.88256 192.117493 
L 107.06112 163.370849 
L 107.23968 217.984587 
L 107.41824 215.668562 
L 107.5968 158.611015 
L 107.77536 163.866043 
L 107.95392 150.527455 
L 108.13248 173.165266 
L 108.31104 162.295113 
L 108.4896 158.404397 
L 108.66816 148.026401 
L 109.02528 186.586296 
L 109.20384 160.029092 
L 109.3824 196.93315 
L 109.56096 178.279196 
L 109.73952 126.737252 
L 109.91808 189.430827 
L 110.09664 148.792201 
L 110.2752 180.411361 
L 110.45376 160.782372 
L 110.63232 195.664037 
L 110.81088 143.343201 
L 110.98944 280.714527 
L 111.168 165.731241 
L 111.34656 168.258879 
L 111.52512 173.499453 
L 111.70368 142.402427 
L 111.88224 166.708536 
L 112.23936 155.818123 
L 112.41792 179.369006 
L 112.59648 182.197864 
L 113.13216 121.069277 
L 113.31072 170.533778 
L 113.48928 172.042203 
L 113.66784 163.847755 
L 113.8464 189.962237 
L 114.02496 144.227789 
L 114.20352 157.297942 
L 114.38208 143.994518 
L 114.56064 155.780523 
L 114.7392 179.671264 
L 114.91776 241.62083 
L 115.09632 180.286319 
L 115.27488 233.228156 
L 115.45344 147.358539 
L 115.632 181.308377 
L 115.81056 156.319695 
L 115.98912 192.728098 
L 116.34624 139.763057 
L 116.5248 181.453489 
L 116.70336 136.884464 
L 116.88192 127.019053 
L 117.06048 202.070012 
L 117.23904 156.098136 
L 117.59616 165.752319 
L 117.77472 184.392651 
L 117.95328 135.139029 
L 118.13184 218.592287 
L 118.3104 159.492211 
L 118.48896 202.9054 
L 118.66752 155.948706 
L 118.84608 231.56573 
L 119.2032 164.04524 
L 119.38176 203.251615 
L 119.56032 155.08933 
L 119.91744 129.147262 
L 120.096 91.780275 
L 120.45312 211.029974 
L 120.63168 158.870385 
L 120.81024 165.763194 
L 121.16736 160.478803 
L 121.34592 170.74459 
L 121.52448 187.51797 
L 121.70304 172.829334 
L 121.8816 168.329722 
L 122.06016 193.296858 
L 122.23872 138.097039 
L 122.41728 171.907516 
L 122.59584 176.234732 
L 122.7744 175.597637 
L 123.13152 215.638368 
L 123.48864 116.489337 
L 123.6672 161.188136 
L 123.84576 154.497231 
L 124.02432 166.925568 
L 124.38144 132.964134 
L 124.56 163.473434 
L 124.73856 160.920559 
L 124.91712 165.491324 
L 125.09568 162.051696 
L 125.27424 136.416352 
L 125.80992 193.099969 
L 125.98848 153.812905 
L 126.16704 188.19063 
L 126.3456 151.540092 
L 126.52416 162.256989 
L 126.70272 159.732258 
L 126.88128 128.828898 
L 127.05984 197.456699 
L 127.2384 164.081628 
L 127.41696 181.666175 
L 127.59552 188.262331 
L 127.77408 146.726821 
L 127.95264 183.239586 
L 128.1312 179.170161 
L 128.30976 179.103593 
L 128.48832 167.792108 
L 128.66688 180.730957 
L 128.84544 161.340937 
L 129.20256 165.618174 
L 129.38112 220.668638 
L 129.55968 157.655816 
L 129.73824 163.160231 
L 130.09536 164.106044 
L 130.27392 169.980135 
L 130.45248 132.122799 
L 130.63104 180.34893 
L 130.8096 146.617875 
L 130.98816 148.134488 
L 131.16672 196.303048 
L 131.34528 188.329894 
L 131.52384 186.697087 
L 131.7024 201.368417 
L 131.88096 172.738779 
L 132.05952 186.050419 
L 132.23808 145.165921 
L 132.41664 187.87656 
L 132.5952 172.774401 
L 132.77376 175.275422 
L 132.95232 164.475611 
L 133.13088 185.240645 
L 133.30944 158.892206 
L 133.488 201.035394 
L 134.02368 159.3788 
L 134.3808 188.058811 
L 134.55936 132.264305 
L 134.73792 127.155465 
L 134.91648 166.348416 
L 135.09504 143.844063 
L 135.2736 150.37535 
L 135.45216 168.66877 
L 135.63072 206.484363 
L 135.80928 174.761339 
L 135.98784 171.215337 
L 136.1664 155.54096 
L 136.34496 192.040463 
L 136.70208 177.980969 
L 136.88064 185.323272 
L 137.0592 152.592732 
L 137.23776 171.225665 
L 137.41632 127.273042 
L 137.59488 126.648342 
L 137.77344 156.785588 
L 137.952 124.796838 
L 138.13056 177.516873 
L 138.30912 122.991627 
L 138.48768 190.446713 
L 138.66624 141.174395 
L 138.8448 192.575792 
L 139.20192 140.98721 
L 139.38048 187.353191 
L 139.55904 155.262189 
L 139.7376 155.831375 
L 139.91616 166.482287 
L 140.09472 145.00421 
L 140.27328 140.045864 
L 140.45184 144.18747 
L 140.6304 169.703461 
L 140.80896 178.543788 
L 140.98752 179.575363 
L 141.16608 163.587877 
L 141.34464 200.111941 
L 141.5232 167.118274 
L 141.70176 173.204954 
L 141.88032 142.408409 
L 142.05888 142.15199 
L 142.23744 196.44214 
L 142.416 159.568812 
L 142.59456 174.334963 
L 142.77312 157.35694 
L 142.95168 158.123314 
L 143.13024 116.142398 
L 143.3088 174.386802 
L 143.48736 126.27371 
L 143.66592 152.570887 
L 143.84448 130.009676 
L 144.02304 130.60792 
L 144.38016 146.704869 
L 144.55872 149.204585 
L 144.73728 97.386737 
L 144.91584 188.81874 
L 145.0944 119.452233 
L 145.27296 190.654373 
L 145.45152 201.696088 
L 145.63008 139.967642 
L 145.80864 201.191034 
L 146.16576 141.265956 
L 146.34432 174.569632 
L 146.52288 133.739186 
L 146.70144 165.111163 
L 146.88 266.477281 
L 147.05856 128.631234 
L 147.23712 218.128729 
L 147.41568 154.712432 
L 147.59424 204.991233 
L 147.95136 157.799233 
L 148.12992 170.687321 
L 148.30848 124.054521 
L 148.48704 157.846376 
L 148.6656 141.282784 
L 148.84416 156.551454 
L 149.02272 222.11951 
L 149.20128 157.883062 
L 149.37984 232.315204 
L 149.5584 185.249847 
L 149.73696 173.180725 
L 150.09408 213.863857 
L 150.27264 169.220677 
L 150.4512 153.319634 
L 150.62976 165.961719 
L 150.80832 164.520728 
L 150.98688 171.652289 
L 151.16544 146.749737 
L 151.344 196.410827 
L 151.52256 126.427513 
L 151.70112 179.90922 
L 151.87968 147.181501 
L 152.05824 175.795477 
L 152.2368 124.538722 
L 152.41536 141.91889 
L 152.77248 210.474989 
L 152.95104 141.907649 
L 153.1296 145.207444 
L 153.30816 164.967567 
L 153.48672 154.069183 
L 153.66528 161.469024 
L 153.84384 143.028245 
L 154.0224 194.946754 
L 154.20096 169.67871 
L 154.37952 166.0457 
L 154.55808 154.84098 
L 154.73664 129.36564 
L 154.9152 170.103375 
L 155.09376 110.516924 
L 155.27232 146.918984 
L 155.62944 172.534888 
L 155.808 152.150948 
L 155.98656 168.139785 
L 156.34368 156.349987 
L 156.52224 175.08843 
L 156.7008 168.44512 
L 157.05792 196.382403 
L 157.23648 156.751546 
L 157.41504 165.344276 
L 157.77216 150.169411 
L 157.95072 182.800263 
L 158.12928 161.78387 
L 158.30784 165.663784 
L 158.4864 172.093348 
L 158.66496 145.416072 
L 158.84352 148.917527 
L 159.02208 168.836229 
L 159.20064 157.88125 
L 159.3792 164.182688 
L 159.55776 163.594911 
L 159.73632 185.193853 
L 159.91488 153.319412 
L 160.09344 179.3157 
L 160.45056 135.237028 
L 160.62912 124.183573 
L 160.80768 166.407084 
L 160.98624 136.441878 
L 161.1648 156.382714 
L 161.34336 161.286227 
L 161.52192 157.833927 
L 161.70048 169.359924 
L 161.87904 141.067382 
L 162.0576 157.253449 
L 162.23616 136.569272 
L 162.41472 192.734751 
L 162.59328 180.987216 
L 162.77184 119.344938 
L 162.9504 207.291097 
L 163.12896 163.567168 
L 163.30752 184.084873 
L 163.48608 173.637597 
L 163.66464 144.806398 
L 163.8432 181.990937 
L 164.02176 154.65202 
L 164.20032 163.360613 
L 164.37888 126.471707 
L 164.55744 168.380121 
L 164.736 170.781223 
L 164.91456 126.595092 
L 165.09312 153.786413 
L 165.27168 112.199098 
L 165.6288 211.827414 
L 165.80736 180.012524 
L 165.98592 197.953532 
L 166.16448 140.163356 
L 166.34304 204.357077 
L 166.5216 171.585956 
L 166.70016 214.601656 
L 167.05728 187.593549 
L 167.23584 154.538697 
L 167.4144 214.655528 
L 167.59296 200.694945 
L 167.77152 162.0364 
L 167.95008 184.756641 
L 168.3072 144.492964 
L 168.48576 157.256649 
L 168.66432 136.57714 
L 168.84288 174.602045 
L 169.02144 130.43296 
L 169.2 155.990887 
L 169.37856 126.637418 
L 169.73568 173.182653 
L 169.91424 165.320652 
L 170.27136 182.317945 
L 170.44992 158.476923 
L 170.62848 150.688728 
L 170.9856 173.284295 
L 171.16416 152.567444 
L 171.34272 185.837232 
L 171.52128 164.569335 
L 171.69984 167.992575 
L 171.8784 157.19466 
L 172.05696 179.238966 
L 172.23552 150.199422 
L 172.41408 169.528232 
L 172.59264 162.52122 
L 172.7712 178.867135 
L 172.94976 169.726385 
L 173.12832 154.877511 
L 173.30688 151.743128 
L 173.48544 165.305254 
L 173.664 154.606972 
L 173.84256 201.735272 
L 174.02112 175.183011 
L 174.19968 128.806001 
L 174.37824 153.053682 
L 174.5568 142.704176 
L 174.73536 206.113646 
L 174.91392 168.594019 
L 175.09248 211.803339 
L 175.4496 152.290996 
L 175.62816 187.449089 
L 175.80672 192.368167 
L 175.98528 203.315725 
L 176.16384 232.007828 
L 176.3424 189.153704 
L 176.69952 218.601484 
L 176.87808 146.96611 
L 177.05664 182.346116 
L 177.2352 188.044162 
L 177.41376 197.631721 
L 177.59232 192.232623 
L 177.77088 194.16015 
L 177.94944 156.469413 
L 178.128 191.892722 
L 178.30656 195.145963 
L 178.48512 149.760512 
L 178.66368 195.876967 
L 178.84224 150.942244 
L 179.0208 181.019057 
L 179.19936 151.660917 
L 179.37792 168.809877 
L 179.55648 144.486731 
L 179.73504 169.574621 
L 179.9136 160.938931 
L 180.09216 117.18748 
L 180.44928 175.802035 
L 180.62784 194.366563 
L 181.16352 156.061426 
L 181.34208 192.600897 
L 181.52064 125.547975 
L 181.6992 161.997842 
L 181.87776 163.725207 
L 182.05632 194.281634 
L 182.23488 168.849309 
L 182.41344 222.958976 
L 182.592 158.937115 
L 182.94912 135.865602 
L 183.12768 147.651008 
L 183.30624 182.563926 
L 183.4848 168.792863 
L 183.66336 205.987414 
L 183.84192 143.352593 
L 184.02048 139.100859 
L 184.3776 164.779098 
L 184.55616 129.376758 
L 184.73472 162.533057 
L 184.91328 138.336593 
L 185.09184 187.009625 
L 185.2704 156.852353 
L 185.44896 193.35366 
L 185.62752 125.217646 
L 185.80608 164.844251 
L 185.98464 157.190746 
L 186.1632 195.251481 
L 186.34176 170.455725 
L 186.52032 174.264272 
L 186.69888 182.35785 
L 186.87744 131.475915 
L 187.056 199.800032 
L 187.23456 127.675171 
L 187.41312 206.936082 
L 187.59168 134.518522 
L 187.77024 165.720857 
L 187.9488 156.708114 
L 188.12736 191.66726 
L 188.48448 159.228624 
L 188.66304 163.312724 
L 188.8416 134.858802 
L 189.02016 136.544619 
L 189.19872 168.901557 
L 189.37728 134.487044 
L 189.55584 198.776367 
L 189.7344 156.325385 
L 189.91296 220.389486 
L 190.09152 132.496569 
L 190.44864 186.718237 
L 190.80576 153.35015 
L 190.98432 156.722368 
L 191.16288 216.607551 
L 191.34144 185.043424 
L 191.52 178.411997 
L 191.69856 153.294013 
L 191.87712 177.496702 
L 192.05568 153.6868 
L 192.23424 195.114522 
L 192.4128 167.364009 
L 192.76992 180.221005 
L 192.94848 210.638675 
L 193.12704 163.896994 
L 193.3056 178.544116 
L 193.48416 172.245008 
L 193.66272 208.899063 
L 193.84128 170.740934 
L 194.01984 192.832038 
L 194.1984 136.243388 
L 194.37696 171.016079 
L 194.55552 146.938016 
L 194.73408 151.654308 
L 194.91264 187.689171 
L 195.0912 142.776508 
L 195.26976 159.536788 
L 195.44832 198.291947 
L 195.62688 184.240907 
L 195.80544 205.168044 
L 195.984 184.659622 
L 196.16256 196.776765 
L 196.51968 148.788437 
L 196.69824 146.72349 
L 197.05536 189.061178 
L 197.23392 191.181432 
L 197.41248 161.328402 
L 197.7696 137.001639 
L 197.94816 173.051634 
L 198.12672 138.335942 
L 198.48384 194.461347 
L 198.6624 195.816702 
L 198.84096 147.365426 
L 199.01952 179.948893 
L 199.37664 145.100743 
L 199.5552 149.268302 
L 199.73376 183.334429 
L 199.91232 186.808493 
L 200.09088 162.469572 
L 200.26944 179.664443 
L 200.62656 128.222307 
L 200.80512 151.472028 
L 200.98368 136.748637 
L 201.3408 227.54602 
L 201.51936 254.331653 
L 201.69792 184.786231 
L 202.05504 166.214544 
L 202.2336 149.163466 
L 202.41216 170.859482 
L 202.59072 161.722201 
L 202.76928 200.698541 
L 202.94784 158.471401 
L 203.30496 190.028456 
L 203.48352 154.013915 
L 203.66208 227.954051 
L 203.84064 148.280293 
L 204.0192 118.23717 
L 204.19776 169.445724 
L 204.37632 148.223575 
L 204.55488 165.457926 
L 204.73344 117.764285 
L 204.912 190.86194 
L 205.09056 150.369835 
L 205.26912 184.217911 
L 205.44768 136.864269 
L 205.62624 202.898016 
L 205.8048 132.781413 
L 205.98336 193.376314 
L 206.16192 158.964074 
L 206.34048 159.554997 
L 206.51904 144.928818 
L 207.23328 202.878004 
L 207.5904 147.592073 
L 207.94752 169.202998 
L 208.12608 176.905938 
L 208.30464 147.453521 
L 208.4832 179.060132 
L 208.66176 167.090763 
L 208.84032 172.821287 
L 209.19744 208.827098 
L 209.376 195.431363 
L 209.55456 199.71874 
L 209.73312 139.292293 
L 209.91168 152.959454 
L 210.09024 121.660164 
L 210.2688 142.776181 
L 210.44736 194.738383 
L 210.62592 171.425627 
L 210.80448 218.428543 
L 210.98304 183.162839 
L 211.1616 183.620673 
L 211.34016 158.616506 
L 211.51872 158.237008 
L 211.69728 182.50996 
L 212.0544 128.340779 
L 212.23296 149.037606 
L 212.41152 125.149407 
L 212.59008 199.840392 
L 212.76864 136.753753 
L 212.9472 152.069506 
L 213.12576 143.533365 
L 213.30432 217.665091 
L 213.48288 241.151653 
L 213.66144 201.589218 
L 213.84 239.456676 
L 214.01856 115.818706 
L 214.19712 174.995769 
L 214.37568 142.23862 
L 214.55424 205.554732 
L 214.7328 144.746889 
L 214.91136 129.877664 
L 215.08992 189.752237 
L 215.44704 130.891182 
L 215.6256 157.84484 
L 215.80416 144.153462 
L 215.98272 182.724009 
L 216.16128 172.196622 
L 216.33984 173.891547 
L 216.5184 201.610677 
L 216.69696 165.907 
L 216.87552 159.219919 
L 217.05408 131.037259 
L 217.23264 144.984501 
L 217.4112 168.997814 
L 217.58976 216.401898 
L 217.76832 223.899997 
L 217.94688 188.362095 
L 218.12544 193.350233 
L 218.304 158.725255 
L 218.48256 176.10216 
L 218.66112 172.137274 
L 218.83968 172.589741 
L 219.01824 176.822928 
L 219.1968 156.178185 
L 219.37536 210.699383 
L 219.73248 180.263573 
L 219.91104 199.209824 
L 220.26816 170.05169 
L 220.44672 223.468636 
L 220.62528 188.195206 
L 220.80384 186.10902 
L 220.9824 181.519222 
L 221.16096 165.232913 
L 221.33952 160.117996 
L 221.51808 143.014018 
L 221.69664 205.392128 
L 221.8752 125.985927 
L 222.05376 159.878895 
L 222.41088 129.524773 
L 222.58944 152.666721 
L 222.768 206.175139 
L 222.94656 183.018963 
L 223.12512 204.033021 
L 223.30368 154.87438 
L 223.48224 153.494174 
L 224.01792 221.252523 
L 224.19648 149.791458 
L 224.37504 206.761283 
L 224.73216 144.612238 
L 225.08928 170.442606 
L 225.26784 151.788416 
L 225.4464 154.211584 
L 225.62496 166.852904 
L 225.80352 149.697265 
L 225.98208 165.824889 
L 226.16064 149.816844 
L 226.3392 158.933894 
L 226.51776 153.657283 
L 226.69632 157.294492 
L 226.87488 232.689053 
L 227.05344 218.152572 
L 227.232 168.317217 
L 227.41056 232.934412 
L 227.58912 246.126934 
L 227.76768 163.446602 
L 227.94624 204.285451 
L 228.1248 136.62611 
L 228.66048 189.770461 
L 229.37472 151.13438 
L 229.55328 169.121258 
L 229.73184 127.452363 
L 229.9104 169.719457 
L 230.08896 127.278915 
L 230.26752 194.439825 
L 230.44608 212.958721 
L 230.62464 175.81858 
L 230.8032 163.40393 
L 230.98176 178.924307 
L 231.33888 95.888651 
L 231.51744 132.401336 
L 231.696 142.943616 
L 231.87456 167.496227 
L 232.05312 134.333133 
L 232.23168 171.29207 
L 232.41024 135.486769 
L 232.5888 213.820474 
L 232.76736 171.350209 
L 232.94592 186.00945 
L 233.12448 168.874984 
L 233.30304 185.471915 
L 233.4816 179.264259 
L 233.66016 180.538804 
L 233.83872 150.771564 
L 234.01728 149.393691 
L 234.19584 165.225425 
L 234.3744 166.501064 
L 234.55296 126.057481 
L 234.91008 218.622294 
L 235.08864 174.918219 
L 235.2672 234.005274 
L 235.44576 160.23864 
L 235.80288 151.204561 
L 236.16 183.457964 
L 236.33856 162.537287 
L 236.51712 168.053887 
L 236.87424 110.145609 
L 237.0528 153.772131 
L 237.23136 100.716732 
L 237.58848 198.1065 
L 237.76704 163.686846 
L 237.9456 159.172229 
L 238.12416 231.823357 
L 238.30272 186.063687 
L 238.48128 172.020798 
L 238.65984 178.157103 
L 238.8384 147.619949 
L 239.01696 195.234013 
L 239.19552 143.222818 
L 239.37408 195.513402 
L 239.55264 161.515241 
L 239.7312 170.222393 
L 239.90976 151.617739 
L 240.08832 147.102693 
L 240.26688 153.80231 
L 240.44544 149.137233 
L 240.624 247.828642 
L 240.80256 191.602745 
L 240.98112 285.408 
L 241.15968 138.021824 
L 241.33824 191.421612 
L 241.5168 140.035171 
L 241.69536 166.001691 
L 242.05248 149.114972 
L 242.23104 159.647005 
L 242.4096 147.576217 
L 242.58816 220.396164 
L 242.76672 142.593559 
L 242.94528 169.18139 
L 243.12384 145.574927 
L 243.48096 180.636842 
L 243.65952 156.284981 
L 243.83808 159.727842 
L 244.01664 145.717902 
L 244.1952 177.15678 
L 244.37376 156.444167 
L 244.55232 170.71797 
L 244.73088 215.539157 
L 244.90944 199.556444 
L 245.088 218.742585 
L 245.26656 159.844527 
L 245.44512 153.052308 
L 245.62368 157.699426 
L 245.80224 166.113658 
L 245.9808 151.039427 
L 246.15936 163.207217 
L 246.51648 206.728002 
L 246.69504 186.781524 
L 246.8736 152.7913 
L 247.05216 172.835759 
L 247.23072 168.03413 
L 247.58784 135.925327 
L 247.7664 185.653772 
L 247.94496 148.292196 
L 248.12352 146.213863 
L 248.30208 179.316379 
L 248.48064 156.892801 
L 248.6592 174.795435 
L 248.83776 169.065161 
L 249.01632 121.28006 
L 249.19488 148.178363 
L 249.37344 141.817881 
L 249.552 160.802486 
L 249.73056 155.384194 
L 249.90912 187.748461 
L 250.08768 168.999277 
L 250.26624 191.503705 
L 250.4448 148.493774 
L 250.62336 165.925768 
L 250.80192 124.933089 
L 250.98048 196.369289 
L 251.15904 159.083813 
L 251.3376 164.717472 
L 251.51616 204.614446 
L 251.69472 138.669636 
L 251.87328 128.929086 
L 252.2304 74.152817 
L 252.40896 76.132754 
L 252.58752 166.146384 
L 252.76608 181.587345 
L 253.30176 156.471321 
L 253.48032 164.084151 
L 253.65888 190.660316 
L 253.83744 183.514593 
L 254.016 155.25189 
L 254.19456 157.079202 
L 254.37312 143.086994 
L 254.55168 173.794439 
L 254.73024 175.910466 
L 254.9088 167.021738 
L 255.08736 180.517826 
L 255.26592 166.767275 
L 255.44448 187.986751 
L 255.62304 190.350806 
L 255.98016 157.863576 
L 256.15872 197.077399 
L 256.33728 162.70612 
L 256.51584 213.716954 
L 256.6944 180.421488 
L 256.87296 179.707441 
L 257.05152 170.710552 
L 257.23008 173.508437 
L 257.40864 159.730957 
L 257.5872 186.875497 
L 257.76576 169.976241 
L 257.94432 189.82866 
L 258.12288 145.297688 
L 258.30144 149.959375 
L 258.48 187.169295 
L 258.65856 124.999394 
L 258.83712 166.759984 
L 259.01568 141.864094 
L 259.19424 197.031908 
L 259.3728 169.461685 
L 259.55136 161.109759 
L 259.72992 134.57341 
L 259.90848 160.411882 
L 260.08704 94.212503 
L 260.2656 199.159271 
L 260.44416 192.514762 
L 260.62272 238.243442 
L 260.80128 160.085513 
L 260.97984 184.01073 
L 261.1584 241.943779 
L 261.33696 188.336338 
L 261.51552 179.747259 
L 261.87264 148.287789 
L 262.0512 152.484024 
L 262.22976 119.188176 
L 262.40832 147.156262 
L 262.58688 142.955675 
L 262.76544 223.362437 
L 262.944 145.004352 
L 263.12256 177.860938 
L 263.30112 130.539091 
L 263.47968 244.629988 
L 263.65824 141.832889 
L 263.8368 176.790638 
L 264.01536 100.712788 
L 264.19392 149.080259 
L 264.55104 121.018572 
L 264.7296 158.897683 
L 264.90816 120.343305 
L 265.08672 171.775873 
L 265.26528 157.601602 
L 265.6224 168.594226 
L 265.80096 131.905693 
L 265.97952 170.663069 
L 266.15808 95.112994 
L 266.33664 187.675028 
L 266.5152 82.771865 
L 266.69376 170.108849 
L 267.05088 135.389618 
L 267.22944 174.961099 
L 267.408 147.411017 
L 267.58656 171.93445 
L 267.76512 259.549067 
L 267.94368 123.812727 
L 268.12224 188.826007 
L 268.65792 139.271842 
L 268.83648 146.164306 
L 269.01504 180.527724 
L 269.1936 157.914156 
L 269.37216 176.887094 
L 269.55072 138.48875 
L 269.72928 187.395274 
L 269.90784 99.882805 
L 270.0864 177.678451 
L 270.26496 112.565435 
L 270.44352 135.062639 
L 270.62208 115.387883 
L 270.80064 151.511131 
L 270.9792 121.922741 
L 271.15776 223.216438 
L 271.33632 143.654232 
L 271.51488 205.239872 
L 271.69344 123.119985 
L 272.22912 181.369466 
L 272.40768 177.735381 
L 272.58624 140.352031 
L 272.7648 187.689289 
L 272.94336 142.123467 
L 273.30048 200.586124 
L 273.47904 147.04092 
L 273.6576 178.185366 
L 273.83616 188.23118 
L 274.01472 146.785185 
L 274.19328 207.21851 
L 274.37184 167.306399 
L 274.5504 171.518613 
L 274.72896 127.743866 
L 274.90752 152.53251 
L 275.08608 122.718154 
L 275.26464 140.742525 
L 275.4432 142.572302 
L 275.62176 100.184812 
L 275.80032 151.727212 
L 276.15744 140.504048 
L 276.336 154.403874 
L 276.51456 134.679578 
L 276.69312 166.744465 
L 276.87168 151.094158 
L 277.05024 192.337244 
L 277.2288 147.943392 
L 277.40736 138.446033 
L 277.58592 191.124675 
L 277.76448 162.474072 
L 277.94304 188.68845 
L 278.1216 119.557076 
L 278.30016 170.726681 
L 278.47872 162.536729 
L 278.65728 173.957061 
L 278.83584 152.601722 
L 279.0144 157.711766 
L 279.19296 187.153231 
L 279.37152 152.263342 
L 279.55008 192.097033 
L 279.72864 184.593004 
L 279.9072 170.809442 
L 280.08576 179.394811 
L 280.26432 134.687889 
L 280.44288 189.990721 
L 280.8 138.442796 
L 280.97856 166.018764 
L 281.15712 172.770641 
L 281.33568 166.054344 
L 281.51424 170.393019 
L 281.6928 214.453009 
L 281.87136 167.360965 
L 282.04992 222.274984 
L 282.22848 180.462181 
L 282.40704 174.84899 
L 282.5856 134.806498 
L 282.94272 183.845175 
L 283.29984 127.916666 
L 283.4784 191.831231 
L 283.65696 134.253119 
L 284.01408 187.866541 
L 284.19264 149.626312 
L 284.3712 166.896983 
L 284.54976 109.581481 
L 284.72832 205.906684 
L 284.90688 165.67883 
L 285.08544 229.152964 
L 285.264 207.430826 
L 285.44256 149.021523 
L 285.62112 160.370414 
L 285.79968 143.623258 
L 285.97824 167.282111 
L 286.1568 139.762644 
L 286.33536 166.691618 
L 286.51392 173.961322 
L 286.69248 188.973965 
L 286.87104 125.42881 
L 287.0496 169.031862 
L 287.22816 155.710965 
L 287.40672 184.92601 
L 287.58528 159.843364 
L 287.76384 160.130253 
L 287.9424 177.826814 
L 288.12096 177.278293 
L 288.29952 130.618751 
L 288.47808 173.060802 
L 288.65664 133.093295 
L 288.8352 197.621319 
L 289.01376 209.011762 
L 289.19232 141.704325 
L 289.37088 200.101849 
L 289.54944 157.458626 
L 289.90656 207.173058 
L 290.08512 201.262033 
L 290.26368 146.527081 
L 290.44224 168.148306 
L 290.6208 174.500393 
L 290.79936 169.378667 
L 290.97792 187.303696 
L 291.33504 143.982819 
L 291.5136 169.512082 
L 291.69216 116.428454 
L 291.87072 140.172478 
L 292.04928 207.587972 
L 292.22784 189.19352 
L 292.4064 208.779091 
L 292.76352 139.427332 
L 292.94208 140.460367 
L 293.12064 156.572253 
L 293.2992 134.682694 
L 293.47776 202.696233 
L 293.65632 163.907877 
L 293.83488 160.603938 
L 294.01344 131.878331 
L 294.37056 148.775667 
L 294.54912 101.66651 
L 294.90624 193.500995 
L 295.0848 185.436874 
L 295.26336 147.51011 
L 295.62048 176.729485 
L 295.79904 168.727843 
L 295.9776 145.572858 
L 296.15616 212.398721 
L 296.33472 167.946023 
L 296.51328 210.290137 
L 296.8704 149.361201 
L 297.22752 175.030891 
L 297.40608 168.613093 
L 297.58464 149.614002 
L 297.7632 181.671792 
L 297.94176 148.09042 
L 298.12032 181.435241 
L 298.29888 158.184858 
L 298.47744 209.842484 
L 298.656 155.870734 
L 298.83456 175.956012 
L 299.01312 152.554553 
L 299.19168 157.186203 
L 299.37024 168.953921 
L 299.5488 172.530455 
L 299.72736 63.648 
L 299.90592 172.222395 
L 300.08448 76.218723 
L 300.26304 150.058741 
L 300.4416 172.582469 
L 300.62016 162.484897 
L 300.79872 173.05874 
L 301.15584 138.038146 
L 301.3344 214.16128 
L 301.51296 139.86837 
L 301.87008 215.504866 
L 302.04864 193.668267 
L 302.40576 178.949683 
L 302.76288 146.593199 
L 302.94144 203.87325 
L 303.12 161.919963 
L 303.29856 175.935111 
L 303.47712 157.786484 
L 303.65568 167.263975 
L 303.83424 194.885842 
L 304.0128 101.195369 
L 304.19136 161.7983 
L 304.36992 158.352888 
L 304.54848 186.966915 
L 304.72704 147.320149 
L 304.9056 174.76957 
L 305.08416 140.434093 
L 305.26272 170.770328 
L 305.44128 159.20367 
L 305.61984 137.233638 
L 305.7984 176.164493 
L 305.97696 138.277103 
L 306.15552 162.12144 
L 306.33408 207.128111 
L 306.51264 216.672859 
L 306.86976 145.116688 
L 307.04832 163.186819 
L 307.22688 166.830611 
L 307.40544 188.188013 
L 307.584 178.215476 
L 307.76256 102.999091 
L 307.94112 177.506047 
L 308.11968 153.283015 
L 308.4768 205.124697 
L 308.65536 174.125289 
L 308.83392 188.06428 
L 309.01248 143.007467 
L 309.3696 153.723004 
L 309.54816 171.457041 
L 309.90528 149.245013 
L 310.08384 174.559199 
L 310.2624 178.176976 
L 310.44096 170.793736 
L 310.61952 173.505063 
L 310.79808 134.783713 
L 310.97664 180.249055 
L 311.1552 175.772294 
L 311.33376 161.130959 
L 311.51232 185.277916 
L 311.69088 134.24214 
L 311.86944 156.818966 
L 312.048 225.39818 
L 312.22656 159.76812 
L 312.40512 195.074836 
L 312.58368 153.853413 
L 312.9408 195.608553 
L 313.11936 154.678157 
L 313.29792 164.31839 
L 313.47648 187.563734 
L 313.65504 140.35637 
L 313.8336 235.765609 
L 314.01216 149.796704 
L 314.19072 184.823764 
L 314.36928 152.372588 
L 314.54784 196.990865 
L 314.7264 159.46396 
L 314.90496 165.755395 
L 315.08352 165.579566 
L 315.26208 167.022119 
L 315.44064 152.36741 
L 315.6192 240.316562 
L 315.79776 186.060694 
L 315.97632 216.376743 
L 316.15488 163.762579 
L 316.33344 179.871331 
L 316.512 166.557446 
L 316.69056 139.7808 
L 316.86912 200.788258 
L 317.04768 197.247257 
L 317.22624 161.520178 
L 317.4048 187.996285 
L 317.58336 172.557703 
L 317.76192 174.283183 
L 317.94048 158.964651 
L 318.11904 170.00616 
L 318.2976 144.584832 
L 318.47616 192.927176 
L 318.83328 149.597686 
L 319.01184 209.309669 
L 319.1904 155.681838 
L 319.36896 195.390779 
L 319.54752 151.948356 
L 319.72608 171.823252 
L 319.90464 160.896594 
L 320.0832 184.128974 
L 320.26176 168.229106 
L 320.61888 162.297585 
L 320.79744 164.566234 
L 321.15456 133.924144 
L 321.33312 145.486109 
L 321.51168 136.913393 
L 321.8688 155.948819 
L 322.04736 185.140129 
L 322.22592 192.565351 
L 322.40448 168.50521 
L 322.58304 188.737106 
L 322.94016 163.809613 
L 323.11872 216.014746 
L 323.29728 204.065009 
L 323.47584 167.00591 
L 323.6544 190.838286 
L 323.83296 197.425915 
L 324.01152 154.786115 
L 324.19008 180.016817 
L 324.5472 131.47576 
L 324.72576 113.492309 
L 324.90432 198.254062 
L 325.08288 154.319897 
L 325.26144 155.408917 
L 325.44 195.956627 
L 325.61856 124.636062 
L 325.79712 171.049863 
L 325.97568 126.749568 
L 326.15424 186.824289 
L 326.3328 171.447559 
L 326.51136 172.430187 
L 326.86848 125.25143 
L 327.04704 208.029115 
L 327.2256 140.160396 
L 327.40416 186.449119 
L 327.58272 175.189485 
L 327.76128 181.485461 
L 327.93984 224.588942 
L 328.1184 143.153204 
L 328.29696 165.835245 
L 328.47552 124.897123 
L 328.65408 179.384273 
L 329.0112 130.215219 
L 329.18976 146.876778 
L 329.36832 175.87843 
L 329.54688 138.308358 
L 329.72544 160.315417 
L 329.904 108.794035 
L 330.08256 142.050269 
L 330.26112 93.94272 
L 330.43968 161.463446 
L 330.61824 179.595496 
L 330.7968 144.596912 
L 330.97536 166.111826 
L 331.15392 114.3903 
L 331.33248 155.581629 
L 331.51104 138.185239 
L 332.04672 196.643305 
L 332.22528 167.240632 
L 332.40384 215.583637 
L 332.76096 144.175255 
L 332.93952 200.36603 
L 333.11808 170.91849 
L 333.29664 181.374216 
L 333.65376 236.986194 
L 334.18944 171.215944 
L 334.368 168.38929 
L 334.54656 156.06068 
L 334.72512 177.07958 
L 334.90368 166.558282 
L 335.08224 188.525876 
L 335.2608 162.077128 
L 335.43936 165.091123 
L 335.61792 154.475239 
L 335.79648 160.078536 
L 335.97504 149.042187 
L 336.1536 155.60894 
L 336.33216 212.662668 
L 336.51072 149.834412 
L 336.68928 190.532526 
L 337.22496 149.906238 
L 337.40352 190.738987 
L 337.58208 147.44334 
L 337.76064 199.442676 
L 337.9392 151.104811 
L 338.11776 176.538164 
L 338.29632 171.194911 
L 338.47488 128.330753 
L 338.65344 163.059923 
L 338.832 148.449285 
L 339.01056 167.667777 
L 339.18912 154.519294 
L 339.36768 158.430917 
L 339.7248 146.767579 
L 339.90336 177.157522 
L 340.08192 113.36615 
L 340.26048 157.781306 
L 340.43904 167.326525 
L 340.6176 163.516018 
L 340.97472 199.816059 
L 341.15328 182.546372 
L 341.33184 141.806487 
L 341.5104 148.588861 
L 341.68896 103.594859 
L 341.86752 160.666257 
L 342.04608 178.51543 
L 342.22464 136.106462 
L 342.4032 208.337983 
L 342.58176 153.498873 
L 342.76032 172.11961 
L 342.93888 146.97042 
L 343.11744 161.387608 
L 343.296 164.268003 
L 343.65312 179.742031 
L 344.01024 119.229307 
L 344.1888 204.891798 
L 344.36736 144.926275 
L 344.54592 183.859576 
L 344.72448 197.842088 
L 344.90304 169.106645 
L 345.0816 180.135634 
L 345.26016 151.919446 
L 345.43872 153.601066 
L 345.79584 183.908701 
L 345.9744 172.481809 
L 346.15296 176.666021 
L 346.51008 213.548236 
L 346.68864 181.728547 
L 346.8672 180.449448 
L 347.22432 153.320845 
L 347.40288 194.896401 
L 347.58144 159.415432 
L 347.76 200.463585 
L 347.93856 168.763334 
L 348.11712 191.382982 
L 348.29568 162.645629 
L 348.47424 173.919394 
L 348.6528 142.399767 
L 348.83136 151.794941 
L 349.00992 174.464683 
L 349.18848 126.154428 
L 349.36704 177.435817 
L 349.5456 163.809358 
L 349.72416 210.130098 
L 349.90272 150.488998 
L 350.08128 177.790055 
L 350.25984 183.606084 
L 350.4384 204.252333 
L 350.61696 156.256777 
L 350.79552 206.407323 
L 350.97408 203.486382 
L 351.15264 189.851182 
L 351.3312 194.081122 
L 351.86688 159.223341 
L 352.04544 204.236741 
L 352.224 154.164836 
L 352.40256 227.862497 
L 352.58112 154.29606 
L 352.75968 139.851755 
L 352.93824 166.722674 
L 353.1168 160.639235 
L 353.47392 195.343881 
L 353.65248 176.830592 
L 353.83104 205.601176 
L 354.0096 181.420967 
L 354.18816 190.570907 
L 354.36672 170.577868 
L 354.54528 191.886581 
L 354.72384 111.60788 
L 354.9024 148.045565 
L 355.08096 86.023972 
L 355.43808 188.418764 
L 355.61664 156.615257 
L 355.7952 174.382764 
L 355.97376 239.179387 
L 356.15232 165.689363 
L 356.33088 152.515895 
L 356.50944 148.44123 
L 356.688 180.091904 
L 356.86656 159.094675 
L 357.04512 164.100856 
L 357.22368 175.782155 
L 357.5808 166.71703 
L 357.75936 186.146694 
L 357.93792 152.522661 
L 358.11648 161.049058 
L 358.29504 111.95281 
L 358.4736 158.991172 
L 358.65216 146.622835 
L 358.83072 145.820227 
L 359.00928 170.537101 
L 359.18784 168.91071 
L 359.3664 202.407724 
L 359.54496 152.88976 
L 359.72352 143.239532 
L 359.90208 160.793949 
L 360.08064 134.538535 
L 360.2592 172.774914 
L 360.43776 167.674182 
L 360.61632 197.697306 
L 360.79488 194.494176 
L 360.97344 174.683828 
L 361.152 221.945338 
L 361.50912 178.07529 
L 361.68768 200.613761 
L 361.86624 147.153016 
L 362.0448 171.279164 
L 362.22336 158.488465 
L 362.40192 234.84339 
L 362.58048 171.760847 
L 362.9376 182.458681 
L 363.29472 161.084246 
L 363.47328 186.250902 
L 363.65184 174.752723 
L 363.8304 199.08358 
L 364.00896 173.006839 
L 364.18752 186.317577 
L 364.36608 239.9337 
L 365.08032 102.486365 
L 365.25888 141.472536 
L 365.43744 211.402191 
L 365.616 168.257709 
L 365.79456 182.901546 
L 365.97312 128.306729 
L 366.33024 161.669495 
L 366.5088 152.434276 
L 366.68736 205.641203 
L 366.86592 144.867632 
L 367.04448 180.874752 
L 367.22304 155.534737 
L 367.4016 212.763192 
L 367.75872 174.316368 
L 367.93728 159.261153 
L 368.11584 161.595281 
L 368.2944 191.166306 
L 368.47296 170.752834 
L 368.65152 190.638151 
L 368.83008 194.581684 
L 369.00864 214.708184 
L 369.1872 117.618321 
L 369.36576 178.019823 
L 369.54432 147.044231 
L 369.72288 147.065776 
L 369.90144 252.045882 
L 370.08 164.541336 
L 370.25856 223.590271 
L 370.43712 170.42654 
L 370.61568 157.839566 
L 370.79424 190.139624 
L 370.9728 167.151406 
L 371.15136 160.249582 
L 371.32992 197.548592 
L 371.50848 180.075358 
L 371.68704 223.105221 
L 371.8656 154.841337 
L 372.04416 194.269816 
L 372.22272 155.277868 
L 372.40128 203.875871 
L 372.57984 181.202946 
L 372.93696 170.426032 
L 373.11552 177.402524 
L 373.29408 160.86122 
L 373.47264 189.414295 
L 373.6512 151.306768 
L 373.82976 200.162307 
L 374.00832 142.14206 
L 374.18688 151.412062 
L 374.36544 121.819009 
L 374.544 180.835783 
L 374.72256 150.061537 
L 374.90112 147.705707 
L 375.07968 171.077741 
L 375.25824 153.791073 
L 375.4368 161.581738 
L 375.61536 183.291633 
L 375.79392 164.604356 
L 375.97248 170.344343 
L 376.15104 162.883789 
L 376.3296 122.406883 
L 376.50816 161.645792 
L 376.86528 187.397361 
L 377.04384 170.967148 
L 377.2224 189.530595 
L 377.40096 158.958439 
L 377.57952 90.581683 
L 377.75808 138.982564 
L 377.93664 141.543125 
L 378.1152 168.99036 
L 378.29376 140.132192 
L 378.47232 157.745249 
L 378.65088 161.226328 
L 378.82944 205.417197 
L 379.18656 154.944325 
L 379.36512 152.068318 
L 379.54368 212.78887 
L 379.72224 171.285929 
L 379.9008 177.559564 
L 380.07936 176.495323 
L 380.25792 139.052661 
L 380.43648 139.818259 
L 380.61504 160.313573 
L 380.7936 161.748644 
L 380.97216 140.64824 
L 381.15072 173.772632 
L 381.32928 179.91602 
L 381.50784 151.972579 
L 381.6864 182.831308 
L 381.86496 164.022904 
L 382.04352 182.040386 
L 382.22208 188.079364 
L 382.5792 147.890535 
L 382.75776 155.075939 
L 382.93632 89.895849 
L 383.29344 158.901359 
L 383.472 153.311467 
L 383.65056 184.125284 
L 383.82912 170.090553 
L 384.00768 134.651689 
L 384.18624 151.966682 
L 384.3648 148.591226 
L 384.54336 187.540581 
L 384.72192 175.331946 
L 385.07904 165.698183 
L 385.2576 154.47117 
L 385.43616 171.178439 
L 385.61472 126.395528 
L 385.79328 168.062005 
L 385.97184 131.551689 
L 386.1504 146.286729 
L 386.32896 202.19881 
L 386.50752 151.615344 
L 386.68608 195.475725 
L 386.86464 163.080666 
L 387.0432 156.97722 
L 387.22176 188.834181 
L 387.40032 142.018335 
L 387.75744 222.716946 
L 387.936 192.368084 
L 388.11456 233.780922 
L 388.29312 123.266846 
L 388.47168 179.462893 
L 388.65024 156.434357 
L 388.8288 159.924993 
L 389.00736 172.354628 
L 389.18592 157.11202 
L 389.36448 227.246848 
L 389.54304 129.71302 
L 389.7216 132.486973 
L 389.90016 183.898282 
L 390.07872 148.047192 
L 390.25728 202.882133 
L 390.6144 95.549923 
L 390.79296 152.170684 
L 390.97152 99.340512 
L 391.15008 168.153254 
L 391.32864 155.237102 
L 391.5072 178.771499 
L 391.68576 184.985151 
L 391.86432 167.250675 
L 392.04288 172.034767 
L 392.22144 172.81483 
L 392.4 150.044599 
L 392.75712 164.568584 
L 392.93568 169.162938 
L 393.11424 190.290414 
L 393.2928 255.614206 
L 393.47136 128.728793 
L 393.64992 175.29311 
L 393.82848 150.513034 
L 394.00704 198.995447 
L 394.1856 153.901178 
L 394.36416 162.976989 
L 394.54272 179.086613 
L 394.72128 162.738475 
L 394.89984 121.336076 
L 395.0784 159.380692 
L 395.25696 171.172365 
L 395.43552 151.676961 
L 395.61408 156.681928 
L 396.14976 182.413787 
L 396.32832 134.837494 
L 396.50688 167.845753 
L 396.68544 122.907273 
L 396.864 207.877937 
L 397.04256 165.351601 
L 397.22112 155.91915 
L 397.39968 162.695821 
L 397.57824 118.317672 
L 397.7568 178.871339 
L 397.93536 112.90659 
L 398.29248 193.642989 
L 398.47104 154.973389 
L 398.6496 155.101024 
L 398.82816 124.528625 
L 399.00672 194.973366 
L 399.18528 192.805125 
L 399.36384 233.325256 
L 399.72096 156.913386 
L 399.89952 181.087728 
L 400.07808 173.559991 
L 400.25664 187.18865 
L 400.4352 181.023686 
L 400.79232 138.227589 
L 400.97088 197.442133 
L 401.14944 214.875612 
L 401.328 249.672104 
L 401.50656 239.348175 
L 401.68512 185.629475 
L 401.86368 201.012998 
L 402.04224 194.303826 
L 402.2208 201.818673 
L 402.39936 152.400488 
L 402.57792 177.146398 
L 402.75648 146.800564 
L 402.93504 162.692367 
L 403.1136 144.359762 
L 403.47072 167.414984 
L 403.64928 150.216601 
L 403.82784 171.646604 
L 404.0064 134.255207 
L 404.18496 172.164172 
L 404.36352 155.223744 
L 404.54208 169.357181 
L 404.72064 203.540713 
L 404.8992 176.086284 
L 405.07776 180.108927 
L 405.25632 201.264994 
L 405.43488 196.021225 
L 405.61344 128.111196 
L 405.792 150.689664 
L 405.97056 155.063694 
L 406.32768 193.032937 
L 406.50624 168.790396 
L 406.6848 184.130055 
L 406.86336 145.198168 
L 407.04192 132.274773 
L 407.22048 214.082464 
L 407.39904 137.421361 
L 407.5776 174.044737 
L 407.75616 170.900082 
L 407.93472 136.446431 
L 408.11328 141.072968 
L 408.29184 155.870777 
L 408.4704 144.665881 
L 408.64896 172.479768 
L 408.82752 130.880875 
L 409.18464 195.561421 
L 409.3632 163.894443 
L 409.54176 169.660351 
L 409.72032 169.705536 
L 409.89888 174.670454 
L 410.07744 171.515534 
L 410.256 138.853548 
L 410.43456 152.620628 
L 410.97024 228.51059 
L 411.1488 157.177286 
L 411.32736 152.698657 
L 411.50592 159.069423 
L 412.0416 194.223512 
L 412.22016 160.16916 
L 412.39872 164.900308 
L 412.57728 179.598292 
L 412.75584 169.423481 
L 412.9344 183.577684 
L 413.11296 182.708865 
L 413.29152 183.539576 
L 413.47008 171.997188 
L 413.64864 211.05222 
L 414.00576 164.212798 
L 414.36288 195.689529 
L 414.54144 145.944829 
L 414.54144 145.944829 
" style="fill:none;stroke:#0000ff;stroke-linecap:square;stroke-width:1.5;"/>
   </g>
   <g id="patch_3">
    <path d="M 57.6 307.584 
L 57.6 41.472 
" style="fill:none;stroke:#000000;stroke-linecap:square;stroke-linejoin:miter;stroke-width:0.8;"/>
   </g>
   <g id="patch_4">
    <path d="M 414.72 307.584 
L 414.72 41.472 
" style="fill:none;stroke:#000000;stroke-linecap:square;stroke-linejoin:miter;stroke-width:0.8;"/>
   </g>
   <g id="patch_5">
    <path d="M 57.6 307.584 
L 414.72 307.584 
" style="fill:none;stroke:#000000;stroke-linecap:square;stroke-linejoin:miter;stroke-width:0.8;"/>
   </g>
   <g id="patch_6">
    <path d="M 57.6 41.472 
L 414.72 41.472 
" style="fill:none;stroke:#000000;stroke-linecap:square;stroke-linejoin:miter;stroke-width:0.8;"/>
   </g>
   <g id="legend_1">
    <g id="patch_7">
     <path d="M 64.6 64.150125 
L 189.998437 64.150125 
Q 191.998437 64.150125 191.998437 62.150125 
L 191.998437 48.472 
Q 191.998437 46.472 189.998437 46.472 
L 64.6 46.472 
Q 62.6 46.472 62.6 48.472 
L 62.6 62.150125 
Q 62.6 64.150125 64.6 64.150125 
z
" style="fill:#ffffff;opacity:0.8;stroke:#cccccc;stroke-linejoin:miter;"/>
    </g>
    <g id="line2d_36">
     <path d="M 66.6 54.570438 
L 86.6 54.570438 
" style="fill:none;stroke:#0000ff;stroke-linecap:square;stroke-width:1.5;"/>
    </g>
    <g id="line2d_37"/>
    <g id="text_20">
     <!-- cumulative reward -->
     <g transform="translate(94.6 58.070438)scale(0.1 -0.1)">
      <defs>
       <path d="M 3122 3366 
L 3122 2828 
Q 2878 2963 2633 3030 
Q 2388 3097 2138 3097 
Q 1578 3097 1268 2742 
Q 959 2388 959 1747 
Q 959 1106 1268 751 
Q 1578 397 2138 397 
Q 2388 397 2633 464 
Q 2878 531 3122 666 
L 3122 134 
Q 2881 22 2623 -34 
Q 2366 -91 2075 -91 
Q 1284 -91 818 406 
Q 353 903 353 1747 
Q 353 2603 823 3093 
Q 1294 3584 2113 3584 
Q 2378 3584 2631 3529 
Q 2884 3475 3122 3366 
z
" id="DejaVuSans-63" transform="scale(0.015625)"/>
      </defs>
      <use xlink:href="#DejaVuSans-63"/>
      <use x="54.980469" xlink:href="#DejaVuSans-75"/>
      <use x="118.359375" xlink:href="#DejaVuSans-6d"/>
      <use x="215.771484" xlink:href="#DejaVuSans-75"/>
      <use x="279.150391" xlink:href="#DejaVuSans-6c"/>
      <use x="306.933594" xlink:href="#DejaVuSans-61"/>
      <use x="368.212891" xlink:href="#DejaVuSans-74"/>
      <use x="407.421875" xlink:href="#DejaVuSans-69"/>
      <use x="435.205078" xlink:href="#DejaVuSans-76"/>
      <use x="494.384766" xlink:href="#DejaVuSans-65"/>
      <use x="555.908203" xlink:href="#DejaVuSans-20"/>
      <use x="587.695312" xlink:href="#DejaVuSans-72"/>
      <use x="626.558594" xlink:href="#DejaVuSans-65"/>
      <use x="688.082031" xlink:href="#DejaVuSans-77"/>
      <use x="769.869141" xlink:href="#DejaVuSans-61"/>
      <use x="831.148438" xlink:href="#DejaVuSans-72"/>
      <use x="870.511719" xlink:href="#DejaVuSans-64"/>
     </g>
    </g>
   </g>
  </g>
 </g>
 <defs>
  <clipPath id="p636ffaf6a5">
   <rect height="266.112" width="357.12" x="57.6" y="41.472"/>
  </clipPath>
 </defs>
</svg>
