<?xml version="1.0" encoding="utf-8" standalone="no"?>
<!DOCTYPE svg PUBLIC "-//W3C//DTD SVG 1.1//EN"
  "http://www.w3.org/Graphics/SVG/1.1/DTD/svg11.dtd">
<svg height="345.6pt" version="1.1" viewBox="0 0 460.8 345.6" width="460.8pt" xmlns="http://www.w3.org/2000/svg" xmlns:xlink="http://www.w3.org/1999/xlink">
 <metadata>
  <rdf:RDF xmlns:cc="http://creativecommons.org/ns#" xmlns:dc="http://purl.org/dc/elements/1.1/" xmlns:rdf="http://www.w3.org/1999/02/22-rdf-syntax-ns#">
   <cc:Work>
    <dc:type rdf:resource="http://purl.org/dc/dcmitype/StillImage"/>
    <dc:date>2021-10-19T10:22:36.292150</dc:date>
    <dc:description>{"agent.algorithm": "RayProximalPolicyOptimization", "agent.algorithm.render_env": false, "agent.algorithm.batch_mode": "complete_episodes", "agent.algorithm.train_batch_size": 200, "agent.algorithm.optimizer": "Adam", "agent.algorithm.vf_clip_param": 500, "agent.algorithm.model": {"fcnet_activation": "tanh", "fcnet_hiddens": [30, 30]}, "env.env_class": "SchedulerPolicyRayEnvironment", "env.env_config": {"solver_driver": "CMAdriver", "solver_driver_args": [10, 10, "rastrigin"], "maximize": false, "steps": 50, "state_metrics_names": ["DifferenceOfBest", "SolverState"], "state_metrics_config": [[40, false, 1, true, true], [{"step_size": {"max": 3, "min": 1e-10}}]], "reward_metric": "Best", "reward_metric_config": [false, false], "memes_no": 1, "parameter_tune_config": {"step_size": {"max": 3, "min": 1e-10}}}}</dc:description>
    <dc:format>image/svg+xml</dc:format>
    <dc:creator>
     <cc:Agent>
      <dc:title>Matplotlib v3.4.2, https://matplotlib.org/</dc:title>
     </cc:Agent>
    </dc:creator>
   </cc:Work>
  </rdf:RDF>
 </metadata>
 <defs>
  <style type="text/css">*{stroke-linecap:butt;stroke-linejoin:round;}</style>
 </defs>
 <g id="figure_1">
  <g id="patch_1">
   <path d="M 0 345.6 
L 460.8 345.6 
L 460.8 0 
L 0 0 
z
" style="fill:#ffffff;"/>
  </g>
  <g id="axes_1">
   <g id="patch_2">
    <path d="M 57.6 307.584 
L 414.72 307.584 
L 414.72 41.472 
L 57.6 41.472 
z
" style="fill:#ffffff;"/>
   </g>
   <g id="matplotlib.axis_1">
    <g id="xtick_1">
     <g id="line2d_1">
      <path clip-path="url(#p7597add7ca)" d="M 57.6 307.584 
L 57.6 41.472 
" style="fill:none;stroke:#b0b0b0;stroke-linecap:square;stroke-width:0.8;"/>
     </g>
     <g id="line2d_2">
      <defs>
       <path d="M 0 0 
L 0 3.5 
" id="m7cbc79fce1" style="stroke:#000000;stroke-width:0.8;"/>
      </defs>
      <g>
       <use style="stroke:#000000;stroke-width:0.8;" x="57.6" xlink:href="#m7cbc79fce1" y="307.584"/>
      </g>
     </g>
     <g id="text_1">
      <!-- 0 -->
      <g transform="translate(54.41875 322.182437)scale(0.1 -0.1)">
       <defs>
        <path d="M 2034 4250 
Q 1547 4250 1301 3770 
Q 1056 3291 1056 2328 
Q 1056 1369 1301 889 
Q 1547 409 2034 409 
Q 2525 409 2770 889 
Q 3016 1369 3016 2328 
Q 3016 3291 2770 3770 
Q 2525 4250 2034 4250 
z
M 2034 4750 
Q 2819 4750 3233 4129 
Q 3647 3509 3647 2328 
Q 3647 1150 3233 529 
Q 2819 -91 2034 -91 
Q 1250 -91 836 529 
Q 422 1150 422 2328 
Q 422 3509 836 4129 
Q 1250 4750 2034 4750 
z
" id="DejaVuSans-30" transform="scale(0.015625)"/>
       </defs>
       <use xlink:href="#DejaVuSans-30"/>
      </g>
     </g>
    </g>
    <g id="xtick_2">
     <g id="line2d_3">
      <path clip-path="url(#p7597add7ca)" d="M 117.12 307.584 
L 117.12 41.472 
" style="fill:none;stroke:#b0b0b0;stroke-linecap:square;stroke-width:0.8;"/>
     </g>
     <g id="line2d_4">
      <g>
       <use style="stroke:#000000;stroke-width:0.8;" x="117.12" xlink:href="#m7cbc79fce1" y="307.584"/>
      </g>
     </g>
     <g id="text_2">
      <!-- 500 -->
      <g transform="translate(107.57625 322.182437)scale(0.1 -0.1)">
       <defs>
        <path d="M 691 4666 
L 3169 4666 
L 3169 4134 
L 1269 4134 
L 1269 2991 
Q 1406 3038 1543 3061 
Q 1681 3084 1819 3084 
Q 2600 3084 3056 2656 
Q 3513 2228 3513 1497 
Q 3513 744 3044 326 
Q 2575 -91 1722 -91 
Q 1428 -91 1123 -41 
Q 819 9 494 109 
L 494 744 
Q 775 591 1075 516 
Q 1375 441 1709 441 
Q 2250 441 2565 725 
Q 2881 1009 2881 1497 
Q 2881 1984 2565 2268 
Q 2250 2553 1709 2553 
Q 1456 2553 1204 2497 
Q 953 2441 691 2322 
L 691 4666 
z
" id="DejaVuSans-35" transform="scale(0.015625)"/>
       </defs>
       <use xlink:href="#DejaVuSans-35"/>
       <use x="63.623047" xlink:href="#DejaVuSans-30"/>
       <use x="127.246094" xlink:href="#DejaVuSans-30"/>
      </g>
     </g>
    </g>
    <g id="xtick_3">
     <g id="line2d_5">
      <path clip-path="url(#p7597add7ca)" d="M 176.64 307.584 
L 176.64 41.472 
" style="fill:none;stroke:#b0b0b0;stroke-linecap:square;stroke-width:0.8;"/>
     </g>
     <g id="line2d_6">
      <g>
       <use style="stroke:#000000;stroke-width:0.8;" x="176.64" xlink:href="#m7cbc79fce1" y="307.584"/>
      </g>
     </g>
     <g id="text_3">
      <!-- 1000 -->
      <g transform="translate(163.915 322.182437)scale(0.1 -0.1)">
       <defs>
        <path d="M 794 531 
L 1825 531 
L 1825 4091 
L 703 3866 
L 703 4441 
L 1819 4666 
L 2450 4666 
L 2450 531 
L 3481 531 
L 3481 0 
L 794 0 
L 794 531 
z
" id="DejaVuSans-31" transform="scale(0.015625)"/>
       </defs>
       <use xlink:href="#DejaVuSans-31"/>
       <use x="63.623047" xlink:href="#DejaVuSans-30"/>
       <use x="127.246094" xlink:href="#DejaVuSans-30"/>
       <use x="190.869141" xlink:href="#DejaVuSans-30"/>
      </g>
     </g>
    </g>
    <g id="xtick_4">
     <g id="line2d_7">
      <path clip-path="url(#p7597add7ca)" d="M 236.16 307.584 
L 236.16 41.472 
" style="fill:none;stroke:#b0b0b0;stroke-linecap:square;stroke-width:0.8;"/>
     </g>
     <g id="line2d_8">
      <g>
       <use style="stroke:#000000;stroke-width:0.8;" x="236.16" xlink:href="#m7cbc79fce1" y="307.584"/>
      </g>
     </g>
     <g id="text_4">
      <!-- 1500 -->
      <g transform="translate(223.435 322.182437)scale(0.1 -0.1)">
       <use xlink:href="#DejaVuSans-31"/>
       <use x="63.623047" xlink:href="#DejaVuSans-35"/>
       <use x="127.246094" xlink:href="#DejaVuSans-30"/>
       <use x="190.869141" xlink:href="#DejaVuSans-30"/>
      </g>
     </g>
    </g>
    <g id="xtick_5">
     <g id="line2d_9">
      <path clip-path="url(#p7597add7ca)" d="M 295.68 307.584 
L 295.68 41.472 
" style="fill:none;stroke:#b0b0b0;stroke-linecap:square;stroke-width:0.8;"/>
     </g>
     <g id="line2d_10">
      <g>
       <use style="stroke:#000000;stroke-width:0.8;" x="295.68" xlink:href="#m7cbc79fce1" y="307.584"/>
      </g>
     </g>
     <g id="text_5">
      <!-- 2000 -->
      <g transform="translate(282.955 322.182437)scale(0.1 -0.1)">
       <defs>
        <path d="M 1228 531 
L 3431 531 
L 3431 0 
L 469 0 
L 469 531 
Q 828 903 1448 1529 
Q 2069 2156 2228 2338 
Q 2531 2678 2651 2914 
Q 2772 3150 2772 3378 
Q 2772 3750 2511 3984 
Q 2250 4219 1831 4219 
Q 1534 4219 1204 4116 
Q 875 4013 500 3803 
L 500 4441 
Q 881 4594 1212 4672 
Q 1544 4750 1819 4750 
Q 2544 4750 2975 4387 
Q 3406 4025 3406 3419 
Q 3406 3131 3298 2873 
Q 3191 2616 2906 2266 
Q 2828 2175 2409 1742 
Q 1991 1309 1228 531 
z
" id="DejaVuSans-32" transform="scale(0.015625)"/>
       </defs>
       <use xlink:href="#DejaVuSans-32"/>
       <use x="63.623047" xlink:href="#DejaVuSans-30"/>
       <use x="127.246094" xlink:href="#DejaVuSans-30"/>
       <use x="190.869141" xlink:href="#DejaVuSans-30"/>
      </g>
     </g>
    </g>
    <g id="xtick_6">
     <g id="line2d_11">
      <path clip-path="url(#p7597add7ca)" d="M 355.2 307.584 
L 355.2 41.472 
" style="fill:none;stroke:#b0b0b0;stroke-linecap:square;stroke-width:0.8;"/>
     </g>
     <g id="line2d_12">
      <g>
       <use style="stroke:#000000;stroke-width:0.8;" x="355.2" xlink:href="#m7cbc79fce1" y="307.584"/>
      </g>
     </g>
     <g id="text_6">
      <!-- 2500 -->
      <g transform="translate(342.475 322.182437)scale(0.1 -0.1)">
       <use xlink:href="#DejaVuSans-32"/>
       <use x="63.623047" xlink:href="#DejaVuSans-35"/>
       <use x="127.246094" xlink:href="#DejaVuSans-30"/>
       <use x="190.869141" xlink:href="#DejaVuSans-30"/>
      </g>
     </g>
    </g>
    <g id="xtick_7">
     <g id="line2d_13">
      <path clip-path="url(#p7597add7ca)" d="M 414.72 307.584 
L 414.72 41.472 
" style="fill:none;stroke:#b0b0b0;stroke-linecap:square;stroke-width:0.8;"/>
     </g>
     <g id="line2d_14">
      <g>
       <use style="stroke:#000000;stroke-width:0.8;" x="414.72" xlink:href="#m7cbc79fce1" y="307.584"/>
      </g>
     </g>
     <g id="text_7">
      <!-- 3000 -->
      <g transform="translate(401.995 322.182437)scale(0.1 -0.1)">
       <defs>
        <path d="M 2597 2516 
Q 3050 2419 3304 2112 
Q 3559 1806 3559 1356 
Q 3559 666 3084 287 
Q 2609 -91 1734 -91 
Q 1441 -91 1130 -33 
Q 819 25 488 141 
L 488 750 
Q 750 597 1062 519 
Q 1375 441 1716 441 
Q 2309 441 2620 675 
Q 2931 909 2931 1356 
Q 2931 1769 2642 2001 
Q 2353 2234 1838 2234 
L 1294 2234 
L 1294 2753 
L 1863 2753 
Q 2328 2753 2575 2939 
Q 2822 3125 2822 3475 
Q 2822 3834 2567 4026 
Q 2313 4219 1838 4219 
Q 1578 4219 1281 4162 
Q 984 4106 628 3988 
L 628 4550 
Q 988 4650 1302 4700 
Q 1616 4750 1894 4750 
Q 2613 4750 3031 4423 
Q 3450 4097 3450 3541 
Q 3450 3153 3228 2886 
Q 3006 2619 2597 2516 
z
" id="DejaVuSans-33" transform="scale(0.015625)"/>
       </defs>
       <use xlink:href="#DejaVuSans-33"/>
       <use x="63.623047" xlink:href="#DejaVuSans-30"/>
       <use x="127.246094" xlink:href="#DejaVuSans-30"/>
       <use x="190.869141" xlink:href="#DejaVuSans-30"/>
      </g>
     </g>
    </g>
    <g id="text_8">
     <!-- Episodes -->
     <g transform="translate(213.917812 335.860562)scale(0.1 -0.1)">
      <defs>
       <path d="M 628 4666 
L 3578 4666 
L 3578 4134 
L 1259 4134 
L 1259 2753 
L 3481 2753 
L 3481 2222 
L 1259 2222 
L 1259 531 
L 3634 531 
L 3634 0 
L 628 0 
L 628 4666 
z
" id="DejaVuSans-45" transform="scale(0.015625)"/>
       <path d="M 1159 525 
L 1159 -1331 
L 581 -1331 
L 581 3500 
L 1159 3500 
L 1159 2969 
Q 1341 3281 1617 3432 
Q 1894 3584 2278 3584 
Q 2916 3584 3314 3078 
Q 3713 2572 3713 1747 
Q 3713 922 3314 415 
Q 2916 -91 2278 -91 
Q 1894 -91 1617 61 
Q 1341 213 1159 525 
z
M 3116 1747 
Q 3116 2381 2855 2742 
Q 2594 3103 2138 3103 
Q 1681 3103 1420 2742 
Q 1159 2381 1159 1747 
Q 1159 1113 1420 752 
Q 1681 391 2138 391 
Q 2594 391 2855 752 
Q 3116 1113 3116 1747 
z
" id="DejaVuSans-70" transform="scale(0.015625)"/>
       <path d="M 603 3500 
L 1178 3500 
L 1178 0 
L 603 0 
L 603 3500 
z
M 603 4863 
L 1178 4863 
L 1178 4134 
L 603 4134 
L 603 4863 
z
" id="DejaVuSans-69" transform="scale(0.015625)"/>
       <path d="M 2834 3397 
L 2834 2853 
Q 2591 2978 2328 3040 
Q 2066 3103 1784 3103 
Q 1356 3103 1142 2972 
Q 928 2841 928 2578 
Q 928 2378 1081 2264 
Q 1234 2150 1697 2047 
L 1894 2003 
Q 2506 1872 2764 1633 
Q 3022 1394 3022 966 
Q 3022 478 2636 193 
Q 2250 -91 1575 -91 
Q 1294 -91 989 -36 
Q 684 19 347 128 
L 347 722 
Q 666 556 975 473 
Q 1284 391 1588 391 
Q 1994 391 2212 530 
Q 2431 669 2431 922 
Q 2431 1156 2273 1281 
Q 2116 1406 1581 1522 
L 1381 1569 
Q 847 1681 609 1914 
Q 372 2147 372 2553 
Q 372 3047 722 3315 
Q 1072 3584 1716 3584 
Q 2034 3584 2315 3537 
Q 2597 3491 2834 3397 
z
" id="DejaVuSans-73" transform="scale(0.015625)"/>
       <path d="M 1959 3097 
Q 1497 3097 1228 2736 
Q 959 2375 959 1747 
Q 959 1119 1226 758 
Q 1494 397 1959 397 
Q 2419 397 2687 759 
Q 2956 1122 2956 1747 
Q 2956 2369 2687 2733 
Q 2419 3097 1959 3097 
z
M 1959 3584 
Q 2709 3584 3137 3096 
Q 3566 2609 3566 1747 
Q 3566 888 3137 398 
Q 2709 -91 1959 -91 
Q 1206 -91 779 398 
Q 353 888 353 1747 
Q 353 2609 779 3096 
Q 1206 3584 1959 3584 
z
" id="DejaVuSans-6f" transform="scale(0.015625)"/>
       <path d="M 2906 2969 
L 2906 4863 
L 3481 4863 
L 3481 0 
L 2906 0 
L 2906 525 
Q 2725 213 2448 61 
Q 2172 -91 1784 -91 
Q 1150 -91 751 415 
Q 353 922 353 1747 
Q 353 2572 751 3078 
Q 1150 3584 1784 3584 
Q 2172 3584 2448 3432 
Q 2725 3281 2906 2969 
z
M 947 1747 
Q 947 1113 1208 752 
Q 1469 391 1925 391 
Q 2381 391 2643 752 
Q 2906 1113 2906 1747 
Q 2906 2381 2643 2742 
Q 2381 3103 1925 3103 
Q 1469 3103 1208 2742 
Q 947 2381 947 1747 
z
" id="DejaVuSans-64" transform="scale(0.015625)"/>
       <path d="M 3597 1894 
L 3597 1613 
L 953 1613 
Q 991 1019 1311 708 
Q 1631 397 2203 397 
Q 2534 397 2845 478 
Q 3156 559 3463 722 
L 3463 178 
Q 3153 47 2828 -22 
Q 2503 -91 2169 -91 
Q 1331 -91 842 396 
Q 353 884 353 1716 
Q 353 2575 817 3079 
Q 1281 3584 2069 3584 
Q 2775 3584 3186 3129 
Q 3597 2675 3597 1894 
z
M 3022 2063 
Q 3016 2534 2758 2815 
Q 2500 3097 2075 3097 
Q 1594 3097 1305 2825 
Q 1016 2553 972 2059 
L 3022 2063 
z
" id="DejaVuSans-65" transform="scale(0.015625)"/>
      </defs>
      <use xlink:href="#DejaVuSans-45"/>
      <use x="63.183594" xlink:href="#DejaVuSans-70"/>
      <use x="126.660156" xlink:href="#DejaVuSans-69"/>
      <use x="154.443359" xlink:href="#DejaVuSans-73"/>
      <use x="206.542969" xlink:href="#DejaVuSans-6f"/>
      <use x="267.724609" xlink:href="#DejaVuSans-64"/>
      <use x="331.201172" xlink:href="#DejaVuSans-65"/>
      <use x="392.724609" xlink:href="#DejaVuSans-73"/>
     </g>
    </g>
   </g>
   <g id="matplotlib.axis_2">
    <g id="ytick_1">
     <g id="line2d_15">
      <path clip-path="url(#p7597add7ca)" d="M 57.6 281.815645 
L 414.72 281.815645 
" style="fill:none;stroke:#b0b0b0;stroke-linecap:square;stroke-width:0.8;"/>
     </g>
     <g id="line2d_16">
      <defs>
       <path d="M 0 0 
L -3.5 0 
" id="mfea49dfbe1" style="stroke:#000000;stroke-width:0.8;"/>
      </defs>
      <g>
       <use style="stroke:#000000;stroke-width:0.8;" x="57.6" xlink:href="#mfea49dfbe1" y="281.815645"/>
      </g>
     </g>
     <g id="text_9">
      <!-- −9000 -->
      <g transform="translate(16.770313 285.614864)scale(0.1 -0.1)">
       <defs>
        <path d="M 678 2272 
L 4684 2272 
L 4684 1741 
L 678 1741 
L 678 2272 
z
" id="DejaVuSans-2212" transform="scale(0.015625)"/>
        <path d="M 703 97 
L 703 672 
Q 941 559 1184 500 
Q 1428 441 1663 441 
Q 2288 441 2617 861 
Q 2947 1281 2994 2138 
Q 2813 1869 2534 1725 
Q 2256 1581 1919 1581 
Q 1219 1581 811 2004 
Q 403 2428 403 3163 
Q 403 3881 828 4315 
Q 1253 4750 1959 4750 
Q 2769 4750 3195 4129 
Q 3622 3509 3622 2328 
Q 3622 1225 3098 567 
Q 2575 -91 1691 -91 
Q 1453 -91 1209 -44 
Q 966 3 703 97 
z
M 1959 2075 
Q 2384 2075 2632 2365 
Q 2881 2656 2881 3163 
Q 2881 3666 2632 3958 
Q 2384 4250 1959 4250 
Q 1534 4250 1286 3958 
Q 1038 3666 1038 3163 
Q 1038 2656 1286 2365 
Q 1534 2075 1959 2075 
z
" id="DejaVuSans-39" transform="scale(0.015625)"/>
       </defs>
       <use xlink:href="#DejaVuSans-2212"/>
       <use x="83.789062" xlink:href="#DejaVuSans-39"/>
       <use x="147.412109" xlink:href="#DejaVuSans-30"/>
       <use x="211.035156" xlink:href="#DejaVuSans-30"/>
       <use x="274.658203" xlink:href="#DejaVuSans-30"/>
      </g>
     </g>
    </g>
    <g id="ytick_2">
     <g id="line2d_17">
      <path clip-path="url(#p7597add7ca)" d="M 57.6 250.395527 
L 414.72 250.395527 
" style="fill:none;stroke:#b0b0b0;stroke-linecap:square;stroke-width:0.8;"/>
     </g>
     <g id="line2d_18">
      <g>
       <use style="stroke:#000000;stroke-width:0.8;" x="57.6" xlink:href="#mfea49dfbe1" y="250.395527"/>
      </g>
     </g>
     <g id="text_10">
      <!-- −8000 -->
      <g transform="translate(16.770313 254.194746)scale(0.1 -0.1)">
       <defs>
        <path d="M 2034 2216 
Q 1584 2216 1326 1975 
Q 1069 1734 1069 1313 
Q 1069 891 1326 650 
Q 1584 409 2034 409 
Q 2484 409 2743 651 
Q 3003 894 3003 1313 
Q 3003 1734 2745 1975 
Q 2488 2216 2034 2216 
z
M 1403 2484 
Q 997 2584 770 2862 
Q 544 3141 544 3541 
Q 544 4100 942 4425 
Q 1341 4750 2034 4750 
Q 2731 4750 3128 4425 
Q 3525 4100 3525 3541 
Q 3525 3141 3298 2862 
Q 3072 2584 2669 2484 
Q 3125 2378 3379 2068 
Q 3634 1759 3634 1313 
Q 3634 634 3220 271 
Q 2806 -91 2034 -91 
Q 1263 -91 848 271 
Q 434 634 434 1313 
Q 434 1759 690 2068 
Q 947 2378 1403 2484 
z
M 1172 3481 
Q 1172 3119 1398 2916 
Q 1625 2713 2034 2713 
Q 2441 2713 2670 2916 
Q 2900 3119 2900 3481 
Q 2900 3844 2670 4047 
Q 2441 4250 2034 4250 
Q 1625 4250 1398 4047 
Q 1172 3844 1172 3481 
z
" id="DejaVuSans-38" transform="scale(0.015625)"/>
       </defs>
       <use xlink:href="#DejaVuSans-2212"/>
       <use x="83.789062" xlink:href="#DejaVuSans-38"/>
       <use x="147.412109" xlink:href="#DejaVuSans-30"/>
       <use x="211.035156" xlink:href="#DejaVuSans-30"/>
       <use x="274.658203" xlink:href="#DejaVuSans-30"/>
      </g>
     </g>
    </g>
    <g id="ytick_3">
     <g id="line2d_19">
      <path clip-path="url(#p7597add7ca)" d="M 57.6 218.975409 
L 414.72 218.975409 
" style="fill:none;stroke:#b0b0b0;stroke-linecap:square;stroke-width:0.8;"/>
     </g>
     <g id="line2d_20">
      <g>
       <use style="stroke:#000000;stroke-width:0.8;" x="57.6" xlink:href="#mfea49dfbe1" y="218.975409"/>
      </g>
     </g>
     <g id="text_11">
      <!-- −7000 -->
      <g transform="translate(16.770313 222.774628)scale(0.1 -0.1)">
       <defs>
        <path d="M 525 4666 
L 3525 4666 
L 3525 4397 
L 1831 0 
L 1172 0 
L 2766 4134 
L 525 4134 
L 525 4666 
z
" id="DejaVuSans-37" transform="scale(0.015625)"/>
       </defs>
       <use xlink:href="#DejaVuSans-2212"/>
       <use x="83.789062" xlink:href="#DejaVuSans-37"/>
       <use x="147.412109" xlink:href="#DejaVuSans-30"/>
       <use x="211.035156" xlink:href="#DejaVuSans-30"/>
       <use x="274.658203" xlink:href="#DejaVuSans-30"/>
      </g>
     </g>
    </g>
    <g id="ytick_4">
     <g id="line2d_21">
      <path clip-path="url(#p7597add7ca)" d="M 57.6 187.555291 
L 414.72 187.555291 
" style="fill:none;stroke:#b0b0b0;stroke-linecap:square;stroke-width:0.8;"/>
     </g>
     <g id="line2d_22">
      <g>
       <use style="stroke:#000000;stroke-width:0.8;" x="57.6" xlink:href="#mfea49dfbe1" y="187.555291"/>
      </g>
     </g>
     <g id="text_12">
      <!-- −6000 -->
      <g transform="translate(16.770313 191.35451)scale(0.1 -0.1)">
       <defs>
        <path d="M 2113 2584 
Q 1688 2584 1439 2293 
Q 1191 2003 1191 1497 
Q 1191 994 1439 701 
Q 1688 409 2113 409 
Q 2538 409 2786 701 
Q 3034 994 3034 1497 
Q 3034 2003 2786 2293 
Q 2538 2584 2113 2584 
z
M 3366 4563 
L 3366 3988 
Q 3128 4100 2886 4159 
Q 2644 4219 2406 4219 
Q 1781 4219 1451 3797 
Q 1122 3375 1075 2522 
Q 1259 2794 1537 2939 
Q 1816 3084 2150 3084 
Q 2853 3084 3261 2657 
Q 3669 2231 3669 1497 
Q 3669 778 3244 343 
Q 2819 -91 2113 -91 
Q 1303 -91 875 529 
Q 447 1150 447 2328 
Q 447 3434 972 4092 
Q 1497 4750 2381 4750 
Q 2619 4750 2861 4703 
Q 3103 4656 3366 4563 
z
" id="DejaVuSans-36" transform="scale(0.015625)"/>
       </defs>
       <use xlink:href="#DejaVuSans-2212"/>
       <use x="83.789062" xlink:href="#DejaVuSans-36"/>
       <use x="147.412109" xlink:href="#DejaVuSans-30"/>
       <use x="211.035156" xlink:href="#DejaVuSans-30"/>
       <use x="274.658203" xlink:href="#DejaVuSans-30"/>
      </g>
     </g>
    </g>
    <g id="ytick_5">
     <g id="line2d_23">
      <path clip-path="url(#p7597add7ca)" d="M 57.6 156.135173 
L 414.72 156.135173 
" style="fill:none;stroke:#b0b0b0;stroke-linecap:square;stroke-width:0.8;"/>
     </g>
     <g id="line2d_24">
      <g>
       <use style="stroke:#000000;stroke-width:0.8;" x="57.6" xlink:href="#mfea49dfbe1" y="156.135173"/>
      </g>
     </g>
     <g id="text_13">
      <!-- −5000 -->
      <g transform="translate(16.770313 159.934392)scale(0.1 -0.1)">
       <use xlink:href="#DejaVuSans-2212"/>
       <use x="83.789062" xlink:href="#DejaVuSans-35"/>
       <use x="147.412109" xlink:href="#DejaVuSans-30"/>
       <use x="211.035156" xlink:href="#DejaVuSans-30"/>
       <use x="274.658203" xlink:href="#DejaVuSans-30"/>
      </g>
     </g>
    </g>
    <g id="ytick_6">
     <g id="line2d_25">
      <path clip-path="url(#p7597add7ca)" d="M 57.6 124.715055 
L 414.72 124.715055 
" style="fill:none;stroke:#b0b0b0;stroke-linecap:square;stroke-width:0.8;"/>
     </g>
     <g id="line2d_26">
      <g>
       <use style="stroke:#000000;stroke-width:0.8;" x="57.6" xlink:href="#mfea49dfbe1" y="124.715055"/>
      </g>
     </g>
     <g id="text_14">
      <!-- −4000 -->
      <g transform="translate(16.770313 128.514274)scale(0.1 -0.1)">
       <defs>
        <path d="M 2419 4116 
L 825 1625 
L 2419 1625 
L 2419 4116 
z
M 2253 4666 
L 3047 4666 
L 3047 1625 
L 3713 1625 
L 3713 1100 
L 3047 1100 
L 3047 0 
L 2419 0 
L 2419 1100 
L 313 1100 
L 313 1709 
L 2253 4666 
z
" id="DejaVuSans-34" transform="scale(0.015625)"/>
       </defs>
       <use xlink:href="#DejaVuSans-2212"/>
       <use x="83.789062" xlink:href="#DejaVuSans-34"/>
       <use x="147.412109" xlink:href="#DejaVuSans-30"/>
       <use x="211.035156" xlink:href="#DejaVuSans-30"/>
       <use x="274.658203" xlink:href="#DejaVuSans-30"/>
      </g>
     </g>
    </g>
    <g id="ytick_7">
     <g id="line2d_27">
      <path clip-path="url(#p7597add7ca)" d="M 57.6 93.294937 
L 414.72 93.294937 
" style="fill:none;stroke:#b0b0b0;stroke-linecap:square;stroke-width:0.8;"/>
     </g>
     <g id="line2d_28">
      <g>
       <use style="stroke:#000000;stroke-width:0.8;" x="57.6" xlink:href="#mfea49dfbe1" y="93.294937"/>
      </g>
     </g>
     <g id="text_15">
      <!-- −3000 -->
      <g transform="translate(16.770313 97.094155)scale(0.1 -0.1)">
       <use xlink:href="#DejaVuSans-2212"/>
       <use x="83.789062" xlink:href="#DejaVuSans-33"/>
       <use x="147.412109" xlink:href="#DejaVuSans-30"/>
       <use x="211.035156" xlink:href="#DejaVuSans-30"/>
       <use x="274.658203" xlink:href="#DejaVuSans-30"/>
      </g>
     </g>
    </g>
    <g id="ytick_8">
     <g id="line2d_29">
      <path clip-path="url(#p7597add7ca)" d="M 57.6 61.874819 
L 414.72 61.874819 
" style="fill:none;stroke:#b0b0b0;stroke-linecap:square;stroke-width:0.8;"/>
     </g>
     <g id="line2d_30">
      <g>
       <use style="stroke:#000000;stroke-width:0.8;" x="57.6" xlink:href="#mfea49dfbe1" y="61.874819"/>
      </g>
     </g>
     <g id="text_16">
      <!-- −2000 -->
      <g transform="translate(16.770313 65.674037)scale(0.1 -0.1)">
       <use xlink:href="#DejaVuSans-2212"/>
       <use x="83.789062" xlink:href="#DejaVuSans-32"/>
       <use x="147.412109" xlink:href="#DejaVuSans-30"/>
       <use x="211.035156" xlink:href="#DejaVuSans-30"/>
       <use x="274.658203" xlink:href="#DejaVuSans-30"/>
      </g>
     </g>
    </g>
    <g id="text_17">
     <!-- Cumulative Reward -->
     <g transform="translate(10.690625 223.275656)rotate(-90)scale(0.1 -0.1)">
      <defs>
       <path d="M 4122 4306 
L 4122 3641 
Q 3803 3938 3442 4084 
Q 3081 4231 2675 4231 
Q 1875 4231 1450 3742 
Q 1025 3253 1025 2328 
Q 1025 1406 1450 917 
Q 1875 428 2675 428 
Q 3081 428 3442 575 
Q 3803 722 4122 1019 
L 4122 359 
Q 3791 134 3420 21 
Q 3050 -91 2638 -91 
Q 1578 -91 968 557 
Q 359 1206 359 2328 
Q 359 3453 968 4101 
Q 1578 4750 2638 4750 
Q 3056 4750 3426 4639 
Q 3797 4528 4122 4306 
z
" id="DejaVuSans-43" transform="scale(0.015625)"/>
       <path d="M 544 1381 
L 544 3500 
L 1119 3500 
L 1119 1403 
Q 1119 906 1312 657 
Q 1506 409 1894 409 
Q 2359 409 2629 706 
Q 2900 1003 2900 1516 
L 2900 3500 
L 3475 3500 
L 3475 0 
L 2900 0 
L 2900 538 
Q 2691 219 2414 64 
Q 2138 -91 1772 -91 
Q 1169 -91 856 284 
Q 544 659 544 1381 
z
M 1991 3584 
L 1991 3584 
z
" id="DejaVuSans-75" transform="scale(0.015625)"/>
       <path d="M 3328 2828 
Q 3544 3216 3844 3400 
Q 4144 3584 4550 3584 
Q 5097 3584 5394 3201 
Q 5691 2819 5691 2113 
L 5691 0 
L 5113 0 
L 5113 2094 
Q 5113 2597 4934 2840 
Q 4756 3084 4391 3084 
Q 3944 3084 3684 2787 
Q 3425 2491 3425 1978 
L 3425 0 
L 2847 0 
L 2847 2094 
Q 2847 2600 2669 2842 
Q 2491 3084 2119 3084 
Q 1678 3084 1418 2786 
Q 1159 2488 1159 1978 
L 1159 0 
L 581 0 
L 581 3500 
L 1159 3500 
L 1159 2956 
Q 1356 3278 1631 3431 
Q 1906 3584 2284 3584 
Q 2666 3584 2933 3390 
Q 3200 3197 3328 2828 
z
" id="DejaVuSans-6d" transform="scale(0.015625)"/>
       <path d="M 603 4863 
L 1178 4863 
L 1178 0 
L 603 0 
L 603 4863 
z
" id="DejaVuSans-6c" transform="scale(0.015625)"/>
       <path d="M 2194 1759 
Q 1497 1759 1228 1600 
Q 959 1441 959 1056 
Q 959 750 1161 570 
Q 1363 391 1709 391 
Q 2188 391 2477 730 
Q 2766 1069 2766 1631 
L 2766 1759 
L 2194 1759 
z
M 3341 1997 
L 3341 0 
L 2766 0 
L 2766 531 
Q 2569 213 2275 61 
Q 1981 -91 1556 -91 
Q 1019 -91 701 211 
Q 384 513 384 1019 
Q 384 1609 779 1909 
Q 1175 2209 1959 2209 
L 2766 2209 
L 2766 2266 
Q 2766 2663 2505 2880 
Q 2244 3097 1772 3097 
Q 1472 3097 1187 3025 
Q 903 2953 641 2809 
L 641 3341 
Q 956 3463 1253 3523 
Q 1550 3584 1831 3584 
Q 2591 3584 2966 3190 
Q 3341 2797 3341 1997 
z
" id="DejaVuSans-61" transform="scale(0.015625)"/>
       <path d="M 1172 4494 
L 1172 3500 
L 2356 3500 
L 2356 3053 
L 1172 3053 
L 1172 1153 
Q 1172 725 1289 603 
Q 1406 481 1766 481 
L 2356 481 
L 2356 0 
L 1766 0 
Q 1100 0 847 248 
Q 594 497 594 1153 
L 594 3053 
L 172 3053 
L 172 3500 
L 594 3500 
L 594 4494 
L 1172 4494 
z
" id="DejaVuSans-74" transform="scale(0.015625)"/>
       <path d="M 191 3500 
L 800 3500 
L 1894 563 
L 2988 3500 
L 3597 3500 
L 2284 0 
L 1503 0 
L 191 3500 
z
" id="DejaVuSans-76" transform="scale(0.015625)"/>
       <path id="DejaVuSans-20" transform="scale(0.015625)"/>
       <path d="M 2841 2188 
Q 3044 2119 3236 1894 
Q 3428 1669 3622 1275 
L 4263 0 
L 3584 0 
L 2988 1197 
Q 2756 1666 2539 1819 
Q 2322 1972 1947 1972 
L 1259 1972 
L 1259 0 
L 628 0 
L 628 4666 
L 2053 4666 
Q 2853 4666 3247 4331 
Q 3641 3997 3641 3322 
Q 3641 2881 3436 2590 
Q 3231 2300 2841 2188 
z
M 1259 4147 
L 1259 2491 
L 2053 2491 
Q 2509 2491 2742 2702 
Q 2975 2913 2975 3322 
Q 2975 3731 2742 3939 
Q 2509 4147 2053 4147 
L 1259 4147 
z
" id="DejaVuSans-52" transform="scale(0.015625)"/>
       <path d="M 269 3500 
L 844 3500 
L 1563 769 
L 2278 3500 
L 2956 3500 
L 3675 769 
L 4391 3500 
L 4966 3500 
L 4050 0 
L 3372 0 
L 2619 2869 
L 1863 0 
L 1184 0 
L 269 3500 
z
" id="DejaVuSans-77" transform="scale(0.015625)"/>
       <path d="M 2631 2963 
Q 2534 3019 2420 3045 
Q 2306 3072 2169 3072 
Q 1681 3072 1420 2755 
Q 1159 2438 1159 1844 
L 1159 0 
L 581 0 
L 581 3500 
L 1159 3500 
L 1159 2956 
Q 1341 3275 1631 3429 
Q 1922 3584 2338 3584 
Q 2397 3584 2469 3576 
Q 2541 3569 2628 3553 
L 2631 2963 
z
" id="DejaVuSans-72" transform="scale(0.015625)"/>
      </defs>
      <use xlink:href="#DejaVuSans-43"/>
      <use x="69.824219" xlink:href="#DejaVuSans-75"/>
      <use x="133.203125" xlink:href="#DejaVuSans-6d"/>
      <use x="230.615234" xlink:href="#DejaVuSans-75"/>
      <use x="293.994141" xlink:href="#DejaVuSans-6c"/>
      <use x="321.777344" xlink:href="#DejaVuSans-61"/>
      <use x="383.056641" xlink:href="#DejaVuSans-74"/>
      <use x="422.265625" xlink:href="#DejaVuSans-69"/>
      <use x="450.048828" xlink:href="#DejaVuSans-76"/>
      <use x="509.228516" xlink:href="#DejaVuSans-65"/>
      <use x="570.751953" xlink:href="#DejaVuSans-20"/>
      <use x="602.539062" xlink:href="#DejaVuSans-52"/>
      <use x="667.521484" xlink:href="#DejaVuSans-65"/>
      <use x="729.044922" xlink:href="#DejaVuSans-77"/>
      <use x="810.832031" xlink:href="#DejaVuSans-61"/>
      <use x="872.111328" xlink:href="#DejaVuSans-72"/>
      <use x="911.474609" xlink:href="#DejaVuSans-64"/>
     </g>
    </g>
   </g>
   <g id="line2d_31">
    <path clip-path="url(#p7597add7ca)" d="M 57.6 171.036351 
L 57.71904 181.996583 
L 57.83808 109.1673 
L 58.07616 171.036351 
L 58.1952 181.996583 
L 58.31424 109.1673 
L 58.55232 171.036351 
L 58.67136 181.996583 
L 58.7904 109.1673 
L 59.02848 171.036351 
L 59.14752 181.996583 
L 59.26656 109.1673 
L 59.50464 171.036351 
L 59.62368 181.996583 
L 59.74272 109.1673 
L 59.9808 171.036351 
L 60.09984 181.996583 
L 60.21888 109.1673 
L 60.45696 171.036351 
L 60.576 181.996583 
L 60.69504 109.1673 
L 60.93312 171.036351 
L 61.05216 181.996583 
L 61.1712 109.1673 
L 61.40928 171.036351 
L 61.52832 181.996583 
L 61.64736 109.1673 
L 61.88544 171.036351 
L 62.00448 181.996583 
L 62.12352 109.1673 
L 62.3616 171.036351 
L 62.48064 181.996583 
L 62.59968 109.1673 
L 62.83776 171.036351 
L 62.9568 181.996583 
L 63.07584 109.1673 
L 63.31392 171.036351 
L 63.43296 181.996583 
L 63.552 109.1673 
L 63.79008 171.036351 
L 63.90912 181.996583 
L 64.02816 109.1673 
L 64.26624 171.036351 
L 64.38528 181.996583 
L 64.50432 109.1673 
L 64.7424 171.036351 
L 64.86144 181.996583 
L 64.98048 109.1673 
L 65.21856 171.036351 
L 65.3376 181.996583 
L 65.45664 109.1673 
L 65.69472 171.036351 
L 65.81376 181.996583 
L 65.9328 109.1673 
L 66.17088 171.036351 
L 66.28992 181.996583 
L 66.40896 109.1673 
L 66.64704 171.036351 
L 66.76608 181.996583 
L 66.88512 109.1673 
L 67.1232 171.036351 
L 67.24224 181.996583 
L 67.36128 109.1673 
L 67.59936 171.036351 
L 67.7184 181.996583 
L 67.83744 109.1673 
L 68.07552 171.036351 
L 68.19456 181.996583 
L 68.3136 109.1673 
L 68.55168 171.036351 
L 68.67072 181.996583 
L 68.78976 109.1673 
L 69.02784 171.036351 
L 69.14688 181.996583 
L 69.26592 109.1673 
L 69.504 163.145517 
L 69.62304 178.401449 
L 69.74208 130.655228 
L 69.86112 131.950339 
L 69.98016 156.432786 
L 70.0992 135.704583 
L 70.21824 141.933634 
L 70.45632 186.102419 
L 70.57536 145.866376 
L 70.6944 184.323241 
L 70.93248 141.828722 
L 71.05152 152.399558 
L 71.17056 146.195914 
L 71.2896 176.955748 
L 71.40864 164.765838 
L 71.52768 214.036974 
L 71.64672 165.796558 
L 71.76576 164.82075 
L 71.8848 159.063871 
L 72.00384 215.702574 
L 72.12288 157.199752 
L 72.24192 231.987931 
L 72.48 167.279171 
L 72.59904 191.143281 
L 72.71808 154.767205 
L 72.83712 200.89179 
L 72.95616 159.34112 
L 73.0752 190.069363 
L 73.31328 140.131104 
L 73.43232 207.324184 
L 73.55136 116.960805 
L 73.6704 198.920009 
L 73.90848 155.154402 
L 74.02752 166.630397 
L 74.14656 151.910848 
L 74.2656 237.040542 
L 74.38464 210.332215 
L 74.50368 219.738287 
L 74.8608 162.437088 
L 74.97984 169.269781 
L 75.09888 224.259202 
L 75.21792 150.370895 
L 75.456 177.670867 
L 75.57504 167.295392 
L 75.69408 212.799414 
L 75.81312 124.326564 
L 75.93216 183.897946 
L 76.17024 127.484813 
L 76.28928 146.934381 
L 76.40832 108.352508 
L 76.6464 189.853349 
L 76.76544 155.796934 
L 76.88448 190.855169 
L 77.00352 144.16385 
L 77.2416 183.077617 
L 77.36064 175.414767 
L 77.47968 199.575639 
L 77.71776 147.384664 
L 77.95584 178.192947 
L 78.07488 162.212219 
L 78.19392 179.582652 
L 78.31296 170.48897 
L 78.432 173.508423 
L 78.78912 139.885945 
L 78.90816 144.489055 
L 79.0272 208.975615 
L 79.14624 141.848347 
L 79.26528 182.310331 
L 79.38432 143.787883 
L 79.50336 180.332248 
L 79.74144 162.395096 
L 79.86048 164.030508 
L 79.97952 175.780695 
L 80.09856 150.095667 
L 80.45568 188.240979 
L 80.57472 160.040288 
L 80.93184 174.482253 
L 81.05088 162.812249 
L 81.16992 173.561259 
L 81.408 97.739709 
L 81.52704 161.460989 
L 81.76512 125.257704 
L 81.88416 216.060611 
L 82.0032 157.857527 
L 82.12224 181.522615 
L 82.24128 143.438642 
L 82.36032 157.529514 
L 82.47936 111.640161 
L 82.5984 165.663954 
L 82.71744 99.351775 
L 82.83648 184.189785 
L 82.95552 138.422092 
L 83.07456 187.290657 
L 83.31264 125.164909 
L 83.43168 188.781045 
L 83.55072 161.197987 
L 83.66976 196.20364 
L 83.7888 188.673452 
L 83.90784 106.183369 
L 84.02688 205.262487 
L 84.14592 136.220682 
L 84.26496 171.274127 
L 84.384 132.664996 
L 84.50304 167.519793 
L 84.74112 137.286566 
L 84.86016 205.409957 
L 84.9792 142.154774 
L 85.09824 181.023777 
L 85.45536 127.991362 
L 85.5744 136.10708 
L 85.69344 184.943819 
L 85.81248 147.225347 
L 85.93152 177.013066 
L 86.05056 133.819994 
L 86.1696 183.181173 
L 86.28864 162.864533 
L 86.40768 169.809486 
L 86.52672 194.028158 
L 86.7648 161.74226 
L 86.88384 208.518943 
L 87.12192 121.196277 
L 87.24096 135.90468 
L 87.36 95.274341 
L 87.47904 111.259949 
L 87.59808 198.824974 
L 87.71712 130.436283 
L 87.83616 161.124815 
L 87.9552 150.526571 
L 88.19328 187.950409 
L 88.31232 166.561388 
L 88.43136 240.342417 
L 88.66944 164.846503 
L 88.78848 195.873635 
L 88.90752 194.070867 
L 89.02656 163.529882 
L 89.1456 167.135636 
L 89.26464 193.276981 
L 89.38368 172.595287 
L 89.50272 186.405196 
L 89.62176 184.271206 
L 89.7408 193.387495 
L 90.09792 163.788106 
L 90.21696 195.522213 
L 90.336 155.944591 
L 90.45504 192.117493 
L 90.57408 163.370849 
L 90.69312 217.984587 
L 90.81216 215.668562 
L 90.9312 158.611015 
L 91.05024 163.866043 
L 91.16928 150.527455 
L 91.28832 173.165266 
L 91.64544 148.026401 
L 91.88352 186.586296 
L 92.00256 160.029092 
L 92.1216 196.93315 
L 92.24064 178.279196 
L 92.35968 126.737252 
L 92.47872 189.430827 
L 92.59776 148.792201 
L 92.7168 180.411361 
L 92.83584 160.782372 
L 92.95488 195.664037 
L 93.07392 143.343201 
L 93.19296 280.714527 
L 93.312 165.731241 
L 93.43104 168.258879 
L 93.55008 173.499453 
L 93.66912 142.402427 
L 93.78816 166.708536 
L 94.02624 155.818123 
L 94.26432 182.197864 
L 94.62144 121.069277 
L 94.74048 170.533778 
L 94.85952 172.042203 
L 94.97856 163.847755 
L 95.0976 189.962237 
L 95.21664 144.227789 
L 95.33568 157.297942 
L 95.45472 143.994518 
L 95.57376 155.780523 
L 95.6928 179.671264 
L 95.81184 241.62083 
L 95.93088 180.286319 
L 96.04992 233.228156 
L 96.16896 147.358539 
L 96.288 181.308377 
L 96.40704 156.319695 
L 96.52608 192.728098 
L 96.76416 139.763057 
L 96.8832 181.453489 
L 97.12128 127.019053 
L 97.24032 202.070012 
L 97.35936 156.098136 
L 97.59744 165.752319 
L 97.71648 184.392651 
L 97.83552 135.139029 
L 97.95456 218.592287 
L 98.0736 159.492211 
L 98.19264 202.9054 
L 98.31168 155.948706 
L 98.43072 231.56573 
L 98.6688 164.04524 
L 98.78784 203.251615 
L 99.02592 141.826036 
L 99.14496 129.147262 
L 99.264 91.780275 
L 99.50208 211.029974 
L 99.62112 158.870385 
L 99.74016 165.763194 
L 99.97824 160.478803 
L 100.21632 187.51797 
L 100.4544 168.329722 
L 100.57344 193.296858 
L 100.69248 138.097039 
L 100.93056 176.234732 
L 101.0496 175.597637 
L 101.28768 215.638368 
L 101.52576 116.489337 
L 101.6448 161.188136 
L 101.76384 154.497231 
L 101.88288 166.925568 
L 102.12096 132.964134 
L 102.24 163.473434 
L 102.35904 160.920559 
L 102.47808 165.491324 
L 102.59712 162.051696 
L 102.71616 136.416352 
L 103.07328 193.099969 
L 103.19232 153.812905 
L 103.31136 188.19063 
L 103.4304 151.540092 
L 103.54944 162.256989 
L 103.66848 159.732258 
L 103.78752 128.828898 
L 103.90656 197.456699 
L 104.0256 164.081628 
L 104.26368 188.262331 
L 104.38272 146.726821 
L 104.50176 183.239586 
L 104.6208 179.170161 
L 104.73984 179.103593 
L 104.85888 167.792108 
L 104.97792 180.730957 
L 105.09696 161.340937 
L 105.33504 165.618174 
L 105.45408 220.668638 
L 105.57312 157.655816 
L 105.8112 163.749937 
L 105.93024 164.106044 
L 106.04928 169.980135 
L 106.16832 132.122799 
L 106.28736 180.34893 
L 106.4064 146.617875 
L 106.52544 148.134488 
L 106.64448 196.303048 
L 106.88256 186.697087 
L 107.0016 201.368417 
L 107.12064 172.738779 
L 107.23968 186.050419 
L 107.35872 145.165921 
L 107.47776 187.87656 
L 107.5968 172.774401 
L 107.71584 175.275422 
L 107.83488 164.475611 
L 107.95392 185.240645 
L 108.07296 158.892206 
L 108.192 201.035394 
L 108.54912 159.3788 
L 108.7872 188.058811 
L 109.02528 127.155465 
L 109.14432 166.348416 
L 109.26336 143.844063 
L 109.3824 150.37535 
L 109.50144 168.66877 
L 109.62048 206.484363 
L 109.85856 171.215337 
L 109.9776 155.54096 
L 110.09664 192.040463 
L 110.33472 177.980969 
L 110.45376 185.323272 
L 110.5728 152.592732 
L 110.69184 171.225665 
L 110.81088 127.273042 
L 110.92992 126.648342 
L 111.04896 156.785588 
L 111.168 124.796838 
L 111.28704 177.516873 
L 111.40608 122.991627 
L 111.52512 190.446713 
L 111.64416 141.174395 
L 111.7632 192.575792 
L 112.00128 140.98721 
L 112.12032 187.353191 
L 112.23936 155.262189 
L 112.3584 155.831375 
L 112.47744 166.482287 
L 112.71552 140.045864 
L 112.83456 144.18747 
L 113.07264 178.543788 
L 113.19168 179.575363 
L 113.31072 163.587877 
L 113.42976 200.111941 
L 113.5488 167.118274 
L 113.66784 173.204954 
L 113.78688 142.408409 
L 113.90592 142.15199 
L 114.02496 196.44214 
L 114.144 159.568812 
L 114.26304 174.334963 
L 114.38208 157.35694 
L 114.50112 158.123314 
L 114.62016 116.142398 
L 114.7392 174.386802 
L 114.85824 126.27371 
L 114.97728 152.570887 
L 115.09632 130.009676 
L 115.21536 130.60792 
L 115.45344 146.704869 
L 115.57248 149.204585 
L 115.69152 97.386737 
L 115.81056 188.81874 
L 115.9296 119.452233 
L 116.16768 201.696088 
L 116.28672 139.967642 
L 116.40576 201.191034 
L 116.64384 141.265956 
L 116.76288 174.569632 
L 116.88192 133.739186 
L 117.00096 165.111163 
L 117.12 266.477281 
L 117.23904 128.631234 
L 117.35808 218.128729 
L 117.47712 154.712432 
L 117.59616 204.991233 
L 117.83424 157.799233 
L 117.95328 170.687321 
L 118.07232 124.054521 
L 118.19136 157.846376 
L 118.3104 141.282784 
L 118.42944 156.551454 
L 118.54848 222.11951 
L 118.66752 157.883062 
L 118.78656 232.315204 
L 119.02464 173.180725 
L 119.26272 213.863857 
L 119.5008 153.319634 
L 119.61984 165.961719 
L 119.73888 164.520728 
L 119.85792 171.652289 
L 119.97696 146.749737 
L 120.096 196.410827 
L 120.21504 126.427513 
L 120.33408 179.90922 
L 120.45312 147.181501 
L 120.57216 175.795477 
L 120.6912 124.538722 
L 120.92928 174.935932 
L 121.04832 210.474989 
L 121.16736 141.907649 
L 121.2864 145.207444 
L 121.40544 164.967567 
L 121.52448 154.069183 
L 121.64352 161.469024 
L 121.76256 143.028245 
L 121.8816 194.946754 
L 122.11968 166.0457 
L 122.23872 154.84098 
L 122.35776 129.36564 
L 122.4768 170.103375 
L 122.59584 110.516924 
L 122.83392 159.005728 
L 122.95296 172.534888 
L 123.072 152.150948 
L 123.19104 168.139785 
L 123.42912 156.349987 
L 123.54816 175.08843 
L 123.6672 168.44512 
L 123.90528 196.382403 
L 124.02432 156.751546 
L 124.14336 165.344276 
L 124.38144 150.169411 
L 124.50048 182.800263 
L 124.61952 161.78387 
L 124.8576 172.093348 
L 124.97664 145.416072 
L 125.09568 148.917527 
L 125.21472 168.836229 
L 125.33376 157.88125 
L 125.4528 164.182688 
L 125.57184 163.594911 
L 125.69088 185.193853 
L 125.80992 153.319412 
L 125.92896 179.3157 
L 126.16704 135.237028 
L 126.28608 124.183573 
L 126.40512 166.407084 
L 126.52416 136.441878 
L 126.76224 161.286227 
L 126.88128 157.833927 
L 127.00032 169.359924 
L 127.11936 141.067382 
L 127.2384 157.253449 
L 127.35744 136.569272 
L 127.47648 192.734751 
L 127.59552 180.987216 
L 127.71456 119.344938 
L 127.8336 207.291097 
L 127.95264 163.567168 
L 128.07168 184.084873 
L 128.19072 173.637597 
L 128.30976 144.806398 
L 128.4288 181.990937 
L 128.54784 154.65202 
L 128.66688 163.360613 
L 128.78592 126.471707 
L 128.90496 168.380121 
L 129.024 170.781223 
L 129.14304 126.595092 
L 129.26208 153.786413 
L 129.38112 112.199098 
L 129.6192 211.827414 
L 129.73824 180.012524 
L 129.85728 197.953532 
L 129.97632 140.163356 
L 130.09536 204.357077 
L 130.2144 171.585956 
L 130.33344 214.601656 
L 130.57152 187.593549 
L 130.69056 154.538697 
L 130.8096 214.655528 
L 130.92864 200.694945 
L 131.04768 162.0364 
L 131.16672 184.756641 
L 131.4048 144.492964 
L 131.52384 157.256649 
L 131.64288 136.57714 
L 131.76192 174.602045 
L 131.88096 130.43296 
L 132 155.990887 
L 132.11904 126.637418 
L 132.35712 173.182653 
L 132.47616 165.320652 
L 132.71424 182.317945 
L 132.95232 150.688728 
L 133.1904 173.284295 
L 133.30944 152.567444 
L 133.42848 185.837232 
L 133.54752 164.569335 
L 133.66656 167.992575 
L 133.7856 157.19466 
L 133.90464 179.238966 
L 134.02368 150.199422 
L 134.14272 169.528232 
L 134.26176 162.52122 
L 134.3808 178.867135 
L 134.73792 151.743128 
L 134.85696 165.305254 
L 134.976 154.606972 
L 135.09504 201.735272 
L 135.33312 128.806001 
L 135.45216 153.053682 
L 135.5712 142.704176 
L 135.69024 206.113646 
L 135.80928 168.594019 
L 135.92832 211.803339 
L 136.1664 152.290996 
L 136.40448 192.368167 
L 136.52352 203.315725 
L 136.64256 232.007828 
L 136.7616 189.153704 
L 136.99968 218.601484 
L 137.11872 146.96611 
L 137.3568 188.044162 
L 137.47584 197.631721 
L 137.59488 192.232623 
L 137.71392 194.16015 
L 137.83296 156.469413 
L 138.07104 195.145963 
L 138.19008 149.760512 
L 138.30912 195.876967 
L 138.42816 150.942244 
L 138.5472 181.019057 
L 138.66624 151.660917 
L 138.78528 168.809877 
L 138.90432 144.486731 
L 139.02336 169.574621 
L 139.1424 160.938931 
L 139.26144 117.18748 
L 139.49952 175.802035 
L 139.61856 194.366563 
L 139.97568 156.061426 
L 140.09472 192.600897 
L 140.21376 125.547975 
L 140.3328 161.997842 
L 140.45184 163.725207 
L 140.57088 194.281634 
L 140.68992 168.849309 
L 140.80896 222.958976 
L 141.04704 142.467366 
L 141.16608 135.865602 
L 141.28512 147.651008 
L 141.40416 182.563926 
L 141.5232 168.792863 
L 141.64224 205.987414 
L 141.88032 139.100859 
L 142.1184 164.779098 
L 142.23744 129.376758 
L 142.35648 162.533057 
L 142.47552 138.336593 
L 142.59456 187.009625 
L 142.7136 156.852353 
L 142.83264 193.35366 
L 142.95168 125.217646 
L 143.07072 164.844251 
L 143.18976 157.190746 
L 143.3088 195.251481 
L 143.42784 170.455725 
L 143.54688 174.264272 
L 143.66592 182.35785 
L 143.78496 131.475915 
L 143.904 199.800032 
L 144.02304 127.675171 
L 144.14208 206.936082 
L 144.26112 134.518522 
L 144.38016 165.720857 
L 144.4992 156.708114 
L 144.61824 191.66726 
L 144.85632 159.228624 
L 144.97536 163.312724 
L 145.0944 134.858802 
L 145.21344 136.544619 
L 145.33248 168.901557 
L 145.45152 134.487044 
L 145.57056 198.776367 
L 145.6896 156.325385 
L 145.80864 220.389486 
L 145.92768 132.496569 
L 146.16576 186.718237 
L 146.40384 153.35015 
L 146.52288 156.722368 
L 146.64192 216.607551 
L 146.88 178.411997 
L 146.99904 153.294013 
L 147.11808 177.496702 
L 147.23712 153.6868 
L 147.35616 195.114522 
L 147.4752 167.364009 
L 147.71328 180.221005 
L 147.83232 210.638675 
L 147.95136 163.896994 
L 148.0704 178.544116 
L 148.18944 172.245008 
L 148.30848 208.899063 
L 148.42752 170.740934 
L 148.54656 192.832038 
L 148.6656 136.243388 
L 148.78464 171.016079 
L 148.90368 146.938016 
L 149.02272 151.654308 
L 149.14176 187.689171 
L 149.2608 142.776508 
L 149.37984 159.536788 
L 149.49888 198.291947 
L 149.61792 184.240907 
L 149.73696 205.168044 
L 149.856 184.659622 
L 149.97504 196.776765 
L 150.21312 148.788437 
L 150.33216 146.72349 
L 150.57024 189.061178 
L 150.68928 191.181432 
L 150.92736 150.16571 
L 151.0464 137.001639 
L 151.16544 173.051634 
L 151.28448 138.335942 
L 151.52256 194.461347 
L 151.6416 195.816702 
L 151.76064 147.365426 
L 151.87968 179.948893 
L 152.11776 145.100743 
L 152.2368 149.268302 
L 152.47488 186.808493 
L 152.59392 162.469572 
L 152.71296 179.664443 
L 152.95104 128.222307 
L 153.07008 151.472028 
L 153.18912 136.748637 
L 153.54624 254.331653 
L 153.78432 176.208688 
L 154.0224 149.163466 
L 154.14144 170.859482 
L 154.26048 161.722201 
L 154.37952 200.698541 
L 154.49856 158.471401 
L 154.73664 190.028456 
L 154.85568 154.013915 
L 154.97472 227.954051 
L 155.2128 118.23717 
L 155.33184 169.445724 
L 155.45088 148.223575 
L 155.56992 165.457926 
L 155.68896 117.764285 
L 155.808 190.86194 
L 155.92704 150.369835 
L 156.04608 184.217911 
L 156.16512 136.864269 
L 156.28416 202.898016 
L 156.4032 132.781413 
L 156.52224 193.376314 
L 156.64128 158.964074 
L 156.76032 159.554997 
L 156.87936 144.928818 
L 157.35552 202.878004 
L 157.5936 147.592073 
L 157.83168 169.202998 
L 157.95072 176.905938 
L 158.06976 147.453521 
L 158.1888 179.060132 
L 158.30784 167.090763 
L 158.42688 172.821287 
L 158.66496 208.827098 
L 158.784 195.431363 
L 158.90304 199.71874 
L 159.02208 139.292293 
L 159.14112 152.959454 
L 159.26016 121.660164 
L 159.3792 142.776181 
L 159.49824 194.738383 
L 159.61728 171.425627 
L 159.73632 218.428543 
L 159.85536 183.162839 
L 159.9744 183.620673 
L 160.09344 158.616506 
L 160.21248 158.237008 
L 160.33152 182.50996 
L 160.5696 128.340779 
L 160.68864 149.037606 
L 160.80768 125.149407 
L 160.92672 199.840392 
L 161.04576 136.753753 
L 161.1648 152.069506 
L 161.28384 143.533365 
L 161.52192 241.151653 
L 161.64096 201.589218 
L 161.76 239.456676 
L 161.87904 115.818706 
L 161.99808 174.995769 
L 162.11712 142.23862 
L 162.23616 205.554732 
L 162.47424 129.877664 
L 162.59328 189.752237 
L 162.83136 130.891182 
L 162.9504 157.84484 
L 163.06944 144.153462 
L 163.18848 182.724009 
L 163.30752 172.196622 
L 163.42656 173.891547 
L 163.5456 201.610677 
L 163.78368 159.219919 
L 163.90272 131.037259 
L 164.1408 168.997814 
L 164.37888 223.899997 
L 164.49792 188.362095 
L 164.61696 193.350233 
L 164.736 158.725255 
L 164.85504 176.10216 
L 164.97408 172.137274 
L 165.09312 172.589741 
L 165.21216 176.822928 
L 165.3312 156.178185 
L 165.45024 210.699383 
L 165.68832 180.263573 
L 165.80736 199.209824 
L 166.04544 170.05169 
L 166.16448 223.468636 
L 166.28352 188.195206 
L 166.40256 186.10902 
L 166.5216 181.519222 
L 166.87872 143.014018 
L 166.99776 205.392128 
L 167.1168 125.985927 
L 167.23584 159.878895 
L 167.47392 129.524773 
L 167.59296 152.666721 
L 167.712 206.175139 
L 167.83104 183.018963 
L 167.95008 204.033021 
L 168.06912 154.87438 
L 168.18816 153.494174 
L 168.54528 221.252523 
L 168.66432 149.791458 
L 168.78336 206.761283 
L 169.02144 144.612238 
L 169.25952 170.442606 
L 169.37856 151.788416 
L 169.4976 154.211584 
L 169.61664 166.852904 
L 169.73568 149.697265 
L 169.85472 165.824889 
L 169.97376 149.816844 
L 170.0928 158.933894 
L 170.21184 153.657283 
L 170.33088 157.294492 
L 170.44992 232.689053 
L 170.56896 218.152572 
L 170.688 168.317217 
L 170.92608 246.126934 
L 171.04512 163.446602 
L 171.16416 204.285451 
L 171.2832 136.62611 
L 171.64032 189.770461 
L 172.11648 151.13438 
L 172.23552 169.121258 
L 172.35456 127.452363 
L 172.4736 169.719457 
L 172.59264 127.278915 
L 172.83072 212.958721 
L 173.0688 163.40393 
L 173.18784 178.924307 
L 173.42592 95.888651 
L 173.664 142.943616 
L 173.78304 167.496227 
L 173.90208 134.333133 
L 174.02112 171.29207 
L 174.14016 135.486769 
L 174.2592 213.820474 
L 174.37824 171.350209 
L 174.49728 186.00945 
L 174.61632 168.874984 
L 174.73536 185.471915 
L 174.8544 179.264259 
L 174.97344 180.538804 
L 175.09248 150.771564 
L 175.21152 149.393691 
L 175.4496 166.501064 
L 175.56864 126.057481 
L 175.80672 218.622294 
L 175.92576 174.918219 
L 176.0448 234.005274 
L 176.28288 153.899948 
L 176.40192 151.204561 
L 176.64 183.457964 
L 176.75904 162.537287 
L 176.87808 168.053887 
L 177.11616 110.145609 
L 177.2352 153.772131 
L 177.35424 100.716732 
L 177.59232 198.1065 
L 177.8304 159.172229 
L 177.94944 231.823357 
L 178.18752 172.020798 
L 178.30656 178.157103 
L 178.4256 147.619949 
L 178.54464 195.234013 
L 178.66368 143.222818 
L 178.78272 195.513402 
L 178.90176 161.515241 
L 179.0208 170.222393 
L 179.25888 147.102693 
L 179.37792 153.80231 
L 179.49696 149.137233 
L 179.616 247.828642 
L 179.73504 191.602745 
L 179.85408 285.408 
L 179.97312 138.021824 
L 180.09216 191.421612 
L 180.2112 140.035171 
L 180.33024 166.001691 
L 180.56832 149.114972 
L 180.68736 159.647005 
L 180.8064 147.576217 
L 180.92544 220.396164 
L 181.04448 142.593559 
L 181.16352 169.18139 
L 181.28256 145.574927 
L 181.52064 180.636842 
L 181.63968 156.284981 
L 181.75872 159.727842 
L 181.87776 145.717902 
L 181.9968 177.15678 
L 182.11584 156.444167 
L 182.23488 170.71797 
L 182.35392 215.539157 
L 182.47296 199.556444 
L 182.592 218.742585 
L 182.83008 153.052308 
L 183.06816 166.113658 
L 183.1872 151.039427 
L 183.30624 163.207217 
L 183.54432 206.728002 
L 183.7824 152.7913 
L 183.90144 172.835759 
L 184.02048 168.03413 
L 184.25856 135.925327 
L 184.3776 185.653772 
L 184.49664 148.292196 
L 184.61568 146.213863 
L 184.73472 179.316379 
L 184.85376 156.892801 
L 184.9728 174.795435 
L 185.09184 169.065161 
L 185.21088 121.28006 
L 185.32992 148.178363 
L 185.44896 141.817881 
L 185.568 160.802486 
L 185.68704 155.384194 
L 185.80608 187.748461 
L 185.92512 168.999277 
L 186.04416 191.503705 
L 186.1632 148.493774 
L 186.28224 165.925768 
L 186.40128 124.933089 
L 186.52032 196.369289 
L 186.63936 159.083813 
L 186.7584 164.717472 
L 186.87744 204.614446 
L 187.11552 128.929086 
L 187.3536 74.152817 
L 187.47264 76.132754 
L 187.71072 181.587345 
L 188.06784 156.471321 
L 188.18688 164.084151 
L 188.30592 190.660316 
L 188.42496 183.514593 
L 188.544 155.25189 
L 188.66304 157.079202 
L 188.78208 143.086994 
L 189.02016 175.910466 
L 189.1392 167.021738 
L 189.25824 180.517826 
L 189.37728 166.767275 
L 189.61536 190.350806 
L 189.85344 157.863576 
L 189.97248 197.077399 
L 190.09152 162.70612 
L 190.21056 213.716954 
L 190.3296 180.421488 
L 190.44864 179.707441 
L 190.56768 170.710552 
L 190.68672 173.508437 
L 190.80576 159.730957 
L 190.9248 186.875497 
L 191.04384 169.976241 
L 191.16288 189.82866 
L 191.28192 145.297688 
L 191.40096 149.959375 
L 191.52 187.169295 
L 191.63904 124.999394 
L 191.75808 166.759984 
L 191.87712 141.864094 
L 191.99616 197.031908 
L 192.35328 134.57341 
L 192.47232 160.411882 
L 192.59136 94.212503 
L 192.7104 199.159271 
L 192.82944 192.514762 
L 192.94848 238.243442 
L 193.06752 160.085513 
L 193.18656 184.01073 
L 193.3056 241.943779 
L 193.54368 179.747259 
L 193.78176 148.287789 
L 193.9008 152.484024 
L 194.01984 119.188176 
L 194.13888 147.156262 
L 194.25792 142.955675 
L 194.37696 223.362437 
L 194.496 145.004352 
L 194.61504 177.860938 
L 194.73408 130.539091 
L 194.85312 244.629988 
L 194.97216 141.832889 
L 195.0912 176.790638 
L 195.21024 100.712788 
L 195.32928 149.080259 
L 195.56736 121.018572 
L 195.6864 158.897683 
L 195.80544 120.343305 
L 195.92448 171.775873 
L 196.04352 157.601602 
L 196.2816 168.594226 
L 196.40064 131.905693 
L 196.51968 170.663069 
L 196.63872 95.112994 
L 196.75776 187.675028 
L 196.8768 82.771865 
L 196.99584 170.108849 
L 197.23392 135.389618 
L 197.35296 174.961099 
L 197.472 147.411017 
L 197.59104 171.93445 
L 197.71008 259.549067 
L 197.82912 123.812727 
L 197.94816 188.826007 
L 198.30528 139.271842 
L 198.42432 146.164306 
L 198.54336 180.527724 
L 198.6624 157.914156 
L 198.78144 176.887094 
L 198.90048 138.48875 
L 199.01952 187.395274 
L 199.13856 99.882805 
L 199.2576 177.678451 
L 199.37664 112.565435 
L 199.49568 135.062639 
L 199.61472 115.387883 
L 199.73376 151.511131 
L 199.8528 121.922741 
L 199.97184 223.216438 
L 200.09088 143.654232 
L 200.20992 205.239872 
L 200.32896 123.119985 
L 200.68608 181.369466 
L 200.80512 177.735381 
L 200.92416 140.352031 
L 201.0432 187.689289 
L 201.16224 142.123467 
L 201.40032 200.586124 
L 201.51936 147.04092 
L 201.75744 188.23118 
L 201.87648 146.785185 
L 201.99552 207.21851 
L 202.11456 167.306399 
L 202.2336 171.518613 
L 202.35264 127.743866 
L 202.47168 152.53251 
L 202.59072 122.718154 
L 202.8288 142.572302 
L 202.94784 100.184812 
L 203.06688 151.727212 
L 203.30496 140.504048 
L 203.424 154.403874 
L 203.54304 134.679578 
L 203.66208 166.744465 
L 203.78112 151.094158 
L 203.90016 192.337244 
L 204.13824 138.446033 
L 204.25728 191.124675 
L 204.37632 162.474072 
L 204.49536 188.68845 
L 204.6144 119.557076 
L 204.73344 170.726681 
L 204.85248 162.536729 
L 204.97152 173.957061 
L 205.09056 152.601722 
L 205.2096 157.711766 
L 205.32864 187.153231 
L 205.44768 152.263342 
L 205.56672 192.097033 
L 205.8048 170.809442 
L 205.92384 179.394811 
L 206.04288 134.687889 
L 206.16192 189.990721 
L 206.4 138.442796 
L 206.63808 172.770641 
L 206.75712 166.054344 
L 206.87616 170.393019 
L 206.9952 214.453009 
L 207.11424 167.360965 
L 207.23328 222.274984 
L 207.5904 134.806498 
L 207.82848 183.845175 
L 208.06656 127.916666 
L 208.1856 191.831231 
L 208.30464 134.253119 
L 208.54272 187.866541 
L 208.66176 149.626312 
L 208.7808 166.896983 
L 208.89984 109.581481 
L 209.01888 205.906684 
L 209.13792 165.67883 
L 209.25696 229.152964 
L 209.376 207.430826 
L 209.49504 149.021523 
L 209.61408 160.370414 
L 209.73312 143.623258 
L 209.85216 167.282111 
L 209.9712 139.762644 
L 210.20928 173.961322 
L 210.32832 188.973965 
L 210.44736 125.42881 
L 210.5664 169.031862 
L 210.68544 155.710965 
L 210.80448 184.92601 
L 210.92352 159.843364 
L 211.04256 160.130253 
L 211.1616 177.826814 
L 211.28064 177.278293 
L 211.39968 130.618751 
L 211.51872 173.060802 
L 211.63776 133.093295 
L 211.87584 209.011762 
L 211.99488 141.704325 
L 212.11392 200.101849 
L 212.23296 157.458626 
L 212.47104 207.173058 
L 212.59008 201.262033 
L 212.70912 146.527081 
L 212.9472 174.500393 
L 213.06624 169.378667 
L 213.18528 187.303696 
L 213.42336 143.982819 
L 213.5424 169.512082 
L 213.66144 116.428454 
L 213.78048 140.172478 
L 213.89952 207.587972 
L 214.01856 189.19352 
L 214.1376 208.779091 
L 214.37568 139.427332 
L 214.49472 140.460367 
L 214.61376 156.572253 
L 214.7328 134.682694 
L 214.85184 202.696233 
L 215.08992 160.603938 
L 215.20896 131.878331 
L 215.44704 148.775667 
L 215.56608 101.66651 
L 215.80416 193.500995 
L 215.9232 185.436874 
L 216.04224 147.51011 
L 216.28032 176.729485 
L 216.39936 168.727843 
L 216.5184 145.572858 
L 216.63744 212.398721 
L 216.75648 167.946023 
L 216.87552 210.290137 
L 217.1136 149.361201 
L 217.35168 175.030891 
L 217.47072 168.613093 
L 217.58976 149.614002 
L 217.7088 181.671792 
L 217.82784 148.09042 
L 217.94688 181.435241 
L 218.06592 158.184858 
L 218.18496 209.842484 
L 218.304 155.870734 
L 218.42304 175.956012 
L 218.54208 152.554553 
L 218.66112 157.186203 
L 218.8992 172.530455 
L 219.01824 63.648 
L 219.13728 172.222395 
L 219.25632 76.218723 
L 219.4944 172.582469 
L 219.61344 162.484897 
L 219.73248 173.05874 
L 219.97056 138.038146 
L 220.0896 214.16128 
L 220.20864 139.86837 
L 220.44672 215.504866 
L 220.6848 185.874518 
L 220.80384 178.949683 
L 221.04192 146.593199 
L 221.16096 203.87325 
L 221.28 161.919963 
L 221.39904 175.935111 
L 221.51808 157.786484 
L 221.63712 167.263975 
L 221.75616 194.885842 
L 221.8752 101.195369 
L 221.99424 161.7983 
L 222.11328 158.352888 
L 222.23232 186.966915 
L 222.35136 147.320149 
L 222.4704 174.76957 
L 222.58944 140.434093 
L 222.70848 170.770328 
L 222.94656 137.233638 
L 223.0656 176.164493 
L 223.18464 138.277103 
L 223.54176 216.672859 
L 223.77984 145.116688 
L 224.13696 188.188013 
L 224.256 178.215476 
L 224.37504 102.999091 
L 224.49408 177.506047 
L 224.61312 153.283015 
L 224.8512 205.124697 
L 224.97024 174.125289 
L 225.08928 188.06428 
L 225.20832 143.007467 
L 225.4464 153.723004 
L 225.56544 171.457041 
L 225.80352 149.245013 
L 226.0416 178.176976 
L 226.16064 170.793736 
L 226.27968 173.505063 
L 226.39872 134.783713 
L 226.51776 180.249055 
L 226.6368 175.772294 
L 226.75584 161.130959 
L 226.87488 185.277916 
L 226.99392 134.24214 
L 227.11296 156.818966 
L 227.232 225.39818 
L 227.35104 159.76812 
L 227.47008 195.074836 
L 227.58912 153.853413 
L 227.8272 195.608553 
L 227.94624 154.678157 
L 228.06528 164.31839 
L 228.18432 187.563734 
L 228.30336 140.35637 
L 228.4224 235.765609 
L 228.54144 149.796704 
L 228.66048 184.823764 
L 228.77952 152.372588 
L 228.89856 196.990865 
L 229.0176 159.46396 
L 229.13664 165.755395 
L 229.25568 165.579566 
L 229.37472 167.022119 
L 229.49376 152.36741 
L 229.6128 240.316562 
L 229.73184 186.060694 
L 229.85088 216.376743 
L 229.96992 163.762579 
L 230.08896 179.871331 
L 230.208 166.557446 
L 230.32704 139.7808 
L 230.44608 200.788258 
L 230.56512 197.247257 
L 230.68416 161.520178 
L 230.8032 187.996285 
L 230.92224 172.557703 
L 231.04128 174.283183 
L 231.16032 158.964651 
L 231.27936 170.00616 
L 231.3984 144.584832 
L 231.51744 192.927176 
L 231.75552 149.597686 
L 231.87456 209.309669 
L 231.9936 155.681838 
L 232.11264 195.390779 
L 232.23168 151.948356 
L 232.35072 171.823252 
L 232.46976 160.896594 
L 232.5888 184.128974 
L 232.82688 164.564372 
L 232.94592 162.297585 
L 233.06496 164.566234 
L 233.30304 133.924144 
L 233.42208 145.486109 
L 233.54112 136.913393 
L 233.7792 155.948819 
L 234.01728 192.565351 
L 234.13632 168.50521 
L 234.25536 188.737106 
L 234.49344 163.809613 
L 234.61248 216.014746 
L 234.73152 204.065009 
L 234.85056 167.00591 
L 235.08864 197.425915 
L 235.20768 154.786115 
L 235.32672 180.016817 
L 235.68384 113.492309 
L 235.80288 198.254062 
L 235.92192 154.319897 
L 236.04096 155.408917 
L 236.16 195.956627 
L 236.27904 124.636062 
L 236.39808 171.049863 
L 236.51712 126.749568 
L 236.63616 186.824289 
L 236.7552 171.447559 
L 236.87424 172.430187 
L 237.11232 125.25143 
L 237.23136 208.029115 
L 237.3504 140.160396 
L 237.46944 186.449119 
L 237.58848 175.189485 
L 237.70752 181.485461 
L 237.82656 224.588942 
L 237.9456 143.153204 
L 238.06464 165.835245 
L 238.18368 124.897123 
L 238.30272 179.384273 
L 238.5408 130.215219 
L 238.77888 175.87843 
L 238.89792 138.308358 
L 239.01696 160.315417 
L 239.136 108.794035 
L 239.25504 142.050269 
L 239.37408 93.94272 
L 239.61216 179.595496 
L 239.7312 144.596912 
L 239.85024 166.111826 
L 239.96928 114.3903 
L 240.08832 155.581629 
L 240.20736 138.185239 
L 240.56448 196.643305 
L 240.68352 167.240632 
L 240.80256 215.583637 
L 241.04064 144.175255 
L 241.15968 200.36603 
L 241.27872 170.91849 
L 241.39776 181.374216 
L 241.63584 236.986194 
L 241.99296 171.215944 
L 242.112 168.38929 
L 242.23104 156.06068 
L 242.35008 177.07958 
L 242.46912 166.558282 
L 242.58816 188.525876 
L 242.7072 162.077128 
L 242.82624 165.091123 
L 242.94528 154.475239 
L 243.06432 160.078536 
L 243.18336 149.042187 
L 243.3024 155.60894 
L 243.42144 212.662668 
L 243.54048 149.834412 
L 243.65952 190.532526 
L 244.01664 149.906238 
L 244.13568 190.738987 
L 244.25472 147.44334 
L 244.37376 199.442676 
L 244.4928 151.104811 
L 244.61184 176.538164 
L 244.73088 171.194911 
L 244.84992 128.330753 
L 244.96896 163.059923 
L 245.088 148.449285 
L 245.20704 167.667777 
L 245.32608 154.519294 
L 245.44512 158.430917 
L 245.6832 146.767579 
L 245.80224 177.157522 
L 245.92128 113.36615 
L 246.15936 167.326525 
L 246.2784 163.516018 
L 246.51648 199.816059 
L 246.63552 182.546372 
L 246.75456 141.806487 
L 246.8736 148.588861 
L 246.99264 103.594859 
L 247.23072 178.51543 
L 247.34976 136.106462 
L 247.4688 208.337983 
L 247.58784 153.498873 
L 247.70688 172.11961 
L 247.82592 146.97042 
L 248.064 164.268003 
L 248.30208 179.742031 
L 248.54016 119.229307 
L 248.6592 204.891798 
L 248.77824 144.926275 
L 249.01632 197.842088 
L 249.13536 169.106645 
L 249.2544 180.135634 
L 249.37344 151.919446 
L 249.49248 153.601066 
L 249.73056 183.908701 
L 249.8496 172.481809 
L 249.96864 176.666021 
L 250.20672 213.548236 
L 250.32576 181.728547 
L 250.4448 180.449448 
L 250.68288 153.320845 
L 250.80192 194.896401 
L 250.92096 159.415432 
L 251.04 200.463585 
L 251.15904 168.763334 
L 251.27808 191.382982 
L 251.39712 162.645629 
L 251.51616 173.919394 
L 251.6352 142.399767 
L 251.75424 151.794941 
L 251.87328 174.464683 
L 251.99232 126.154428 
L 252.11136 177.435817 
L 252.2304 163.809358 
L 252.34944 210.130098 
L 252.46848 150.488998 
L 252.70656 183.606084 
L 252.8256 204.252333 
L 252.94464 156.256777 
L 253.06368 206.407323 
L 253.18272 203.486382 
L 253.30176 189.851182 
L 253.4208 194.081122 
L 253.77792 159.223341 
L 253.89696 204.236741 
L 254.016 154.164836 
L 254.13504 227.862497 
L 254.37312 139.851755 
L 254.49216 166.722674 
L 254.6112 160.639235 
L 254.84928 195.343881 
L 254.96832 176.830592 
L 255.08736 205.601176 
L 255.2064 181.420967 
L 255.32544 190.570907 
L 255.44448 170.577868 
L 255.56352 191.886581 
L 255.68256 111.60788 
L 255.8016 148.045565 
L 255.92064 86.023972 
L 256.15872 188.418764 
L 256.27776 156.615257 
L 256.3968 174.382764 
L 256.51584 239.179387 
L 256.75392 152.515895 
L 256.87296 148.44123 
L 256.992 180.091904 
L 257.11104 159.094675 
L 257.23008 164.100856 
L 257.34912 175.782155 
L 257.5872 166.71703 
L 257.70624 186.146694 
L 257.82528 152.522661 
L 257.94432 161.049058 
L 258.06336 111.95281 
L 258.1824 158.991172 
L 258.30144 146.622835 
L 258.42048 145.820227 
L 258.53952 170.537101 
L 258.65856 168.91071 
L 258.7776 202.407724 
L 259.01568 143.239532 
L 259.13472 160.793949 
L 259.25376 134.538535 
L 259.3728 172.774914 
L 259.49184 167.674182 
L 259.61088 197.697306 
L 259.72992 194.494176 
L 259.84896 174.683828 
L 259.968 221.945338 
L 260.20608 178.07529 
L 260.32512 200.613761 
L 260.44416 147.153016 
L 260.5632 171.279164 
L 260.68224 158.488465 
L 260.80128 234.84339 
L 260.92032 171.760847 
L 261.1584 182.458681 
L 261.39648 161.084246 
L 261.51552 186.250902 
L 261.63456 174.752723 
L 261.7536 199.08358 
L 261.87264 173.006839 
L 261.99168 186.317577 
L 262.11072 239.9337 
L 262.58688 102.486365 
L 262.82496 211.402191 
L 262.944 168.257709 
L 263.06304 182.901546 
L 263.18208 128.306729 
L 263.42016 161.669495 
L 263.5392 152.434276 
L 263.65824 205.641203 
L 263.77728 144.867632 
L 263.89632 180.874752 
L 264.01536 155.534737 
L 264.1344 212.763192 
L 264.49152 159.261153 
L 264.61056 161.595281 
L 264.7296 191.166306 
L 264.84864 170.752834 
L 265.20576 214.708184 
L 265.3248 117.618321 
L 265.44384 178.019823 
L 265.56288 147.044231 
L 265.68192 147.065776 
L 265.80096 252.045882 
L 265.92 164.541336 
L 266.03904 223.590271 
L 266.27712 157.839566 
L 266.39616 190.139624 
L 266.63424 160.249582 
L 266.75328 197.548592 
L 266.87232 180.075358 
L 266.99136 223.105221 
L 267.1104 154.841337 
L 267.22944 194.269816 
L 267.34848 155.277868 
L 267.46752 203.875871 
L 267.7056 173.88057 
L 267.82464 170.426032 
L 267.94368 177.402524 
L 268.06272 160.86122 
L 268.18176 189.414295 
L 268.3008 151.306768 
L 268.41984 200.162307 
L 268.53888 142.14206 
L 268.65792 151.412062 
L 268.77696 121.819009 
L 268.896 180.835783 
L 269.13408 147.705707 
L 269.25312 171.077741 
L 269.37216 153.791073 
L 269.4912 161.581738 
L 269.61024 183.291633 
L 269.72928 164.604356 
L 269.84832 170.344343 
L 269.96736 162.883789 
L 270.0864 122.406883 
L 270.32448 173.919187 
L 270.44352 187.397361 
L 270.56256 170.967148 
L 270.6816 189.530595 
L 270.80064 158.958439 
L 270.91968 90.581683 
L 271.03872 138.982564 
L 271.15776 141.543125 
L 271.2768 168.99036 
L 271.39584 140.132192 
L 271.75296 205.417197 
L 271.99104 154.944325 
L 272.11008 152.068318 
L 272.22912 212.78887 
L 272.34816 171.285929 
L 272.4672 177.559564 
L 272.58624 176.495323 
L 272.70528 139.052661 
L 272.82432 139.818259 
L 273.0624 161.748644 
L 273.18144 140.64824 
L 273.41952 179.91602 
L 273.53856 151.972579 
L 273.6576 182.831308 
L 273.77664 164.022904 
L 274.01472 188.079364 
L 274.2528 147.890535 
L 274.37184 155.075939 
L 274.49088 89.895849 
L 274.72896 158.901359 
L 274.848 153.311467 
L 274.96704 184.125284 
L 275.08608 170.090553 
L 275.20512 134.651689 
L 275.32416 151.966682 
L 275.4432 148.591226 
L 275.56224 187.540581 
L 275.80032 171.45953 
L 275.91936 165.698183 
L 276.0384 154.47117 
L 276.15744 171.178439 
L 276.27648 126.395528 
L 276.39552 168.062005 
L 276.51456 131.551689 
L 276.6336 146.286729 
L 276.75264 202.19881 
L 276.87168 151.615344 
L 276.99072 195.475725 
L 277.2288 156.97722 
L 277.34784 188.834181 
L 277.46688 142.018335 
L 277.70496 222.716946 
L 277.824 192.368084 
L 277.94304 233.780922 
L 278.06208 123.266846 
L 278.18112 179.462893 
L 278.30016 156.434357 
L 278.4192 159.924993 
L 278.53824 172.354628 
L 278.65728 157.11202 
L 278.77632 227.246848 
L 278.89536 129.71302 
L 279.0144 132.486973 
L 279.13344 183.898282 
L 279.25248 148.047192 
L 279.37152 202.882133 
L 279.6096 95.549923 
L 279.72864 152.170684 
L 279.84768 99.340512 
L 279.96672 168.153254 
L 280.08576 155.237102 
L 280.32384 184.985151 
L 280.44288 167.250675 
L 280.68096 172.81483 
L 280.8 150.044599 
L 281.03808 164.568584 
L 281.15712 169.162938 
L 281.27616 190.290414 
L 281.3952 255.614206 
L 281.51424 128.728793 
L 281.63328 175.29311 
L 281.75232 150.513034 
L 281.87136 198.995447 
L 281.9904 153.901178 
L 282.22848 179.086613 
L 282.34752 162.738475 
L 282.46656 121.336076 
L 282.70464 171.172365 
L 282.82368 151.676961 
L 282.94272 156.681928 
L 283.29984 182.413787 
L 283.41888 134.837494 
L 283.53792 167.845753 
L 283.65696 122.907273 
L 283.776 207.877937 
L 284.01408 155.91915 
L 284.13312 162.695821 
L 284.25216 118.317672 
L 284.3712 178.871339 
L 284.49024 112.90659 
L 284.72832 193.642989 
L 284.84736 154.973389 
L 284.9664 155.101024 
L 285.08544 124.528625 
L 285.20448 194.973366 
L 285.32352 192.805125 
L 285.44256 233.325256 
L 285.68064 156.913386 
L 285.79968 181.087728 
L 285.91872 173.559991 
L 286.03776 187.18865 
L 286.1568 181.023686 
L 286.39488 138.227589 
L 286.63296 214.875612 
L 286.752 249.672104 
L 286.87104 239.348175 
L 286.99008 185.629475 
L 287.10912 201.012998 
L 287.22816 194.303826 
L 287.3472 201.818673 
L 287.46624 152.400488 
L 287.58528 177.146398 
L 287.70432 146.800564 
L 287.82336 162.692367 
L 287.9424 144.359762 
L 288.18048 167.414984 
L 288.29952 150.216601 
L 288.41856 171.646604 
L 288.5376 134.255207 
L 288.65664 172.164172 
L 288.77568 155.223744 
L 288.89472 169.357181 
L 289.01376 203.540713 
L 289.1328 176.086284 
L 289.25184 180.108927 
L 289.37088 201.264994 
L 289.48992 196.021225 
L 289.60896 128.111196 
L 289.96608 180.082755 
L 290.08512 193.032937 
L 290.20416 168.790396 
L 290.3232 184.130055 
L 290.56128 132.274773 
L 290.68032 214.082464 
L 290.79936 137.421361 
L 290.9184 174.044737 
L 291.03744 170.900082 
L 291.15648 136.446431 
L 291.27552 141.072968 
L 291.39456 155.870777 
L 291.5136 144.665881 
L 291.63264 172.479768 
L 291.75168 130.880875 
L 291.98976 195.561421 
L 292.1088 163.894443 
L 292.22784 169.660351 
L 292.34688 169.705536 
L 292.46592 174.670454 
L 292.58496 171.515534 
L 292.704 138.853548 
L 292.82304 152.620628 
L 293.18016 228.51059 
L 293.2992 157.177286 
L 293.41824 152.698657 
L 293.65632 170.542783 
L 293.8944 194.223512 
L 294.01344 160.16916 
L 294.13248 164.900308 
L 294.25152 179.598292 
L 294.37056 169.423481 
L 294.4896 183.577684 
L 294.60864 182.708865 
L 294.72768 183.539576 
L 294.84672 171.997188 
L 294.96576 211.05222 
L 295.20384 164.212798 
L 295.44192 195.689529 
L 295.56096 145.944829 
L 295.68 179.597485 
L 295.79904 158.533861 
L 296.03712 177.955041 
L 296.15616 155.079101 
L 296.39424 186.821794 
L 296.51328 186.480546 
L 296.63232 101.53561 
L 296.75136 158.770864 
L 296.8704 103.298552 
L 296.98944 176.075329 
L 297.10848 172.255763 
L 297.22752 164.075346 
L 297.34656 174.516887 
L 297.4656 167.015827 
L 297.70368 131.113316 
L 297.82272 166.007656 
L 297.94176 147.248515 
L 298.0608 93.439477 
L 298.17984 185.258928 
L 298.29888 134.094581 
L 298.41792 134.118098 
L 298.53696 210.039441 
L 298.656 91.627587 
L 298.77504 211.582938 
L 298.89408 137.471733 
L 299.01312 152.766539 
L 299.13216 148.881416 
L 299.2512 149.205764 
L 299.37024 148.308666 
L 299.60832 208.82527 
L 299.72736 209.285317 
L 299.96544 168.409611 
L 300.08448 193.395491 
L 300.20352 180.553156 
L 300.32256 186.141413 
L 300.4416 182.432953 
L 300.56064 173.591206 
L 300.67968 186.753882 
L 300.79872 176.216563 
L 301.0368 124.935242 
L 301.15584 145.043464 
L 301.39392 206.865766 
L 301.51296 99.298031 
L 301.632 167.404509 
L 301.75104 141.218168 
L 301.87008 210.005119 
L 301.98912 186.400395 
L 302.10816 199.569512 
L 302.34624 165.853266 
L 302.46528 167.611468 
L 302.58432 178.967637 
L 302.70336 154.443317 
L 302.8224 156.196446 
L 302.94144 199.169091 
L 303.29856 174.961315 
L 303.4176 210.43437 
L 303.53664 203.834638 
L 303.65568 212.252734 
L 303.77472 188.480994 
L 303.89376 226.38183 
L 304.13184 162.174258 
L 304.25088 217.258672 
L 304.36992 135.775898 
L 304.48896 230.003304 
L 304.608 148.641393 
L 304.72704 227.592389 
L 304.84608 180.816681 
L 304.96512 217.923643 
L 305.08416 158.23549 
L 305.2032 191.31398 
L 305.32224 152.1116 
L 305.56032 169.810517 
L 305.67936 221.496362 
L 305.7984 127.436103 
L 305.91744 206.577791 
L 306.15552 113.377411 
L 306.27456 193.076017 
L 306.3936 163.116748 
L 306.63168 205.937852 
L 306.9888 144.095773 
L 307.34592 181.985097 
L 307.46496 150.24776 
L 307.584 187.58456 
L 307.82208 128.206323 
L 307.94112 144.8318 
L 308.06016 203.484548 
L 308.1792 155.954933 
L 308.29824 159.322104 
L 308.41728 156.553101 
L 308.53632 212.332361 
L 308.65536 121.920144 
L 308.7744 160.477973 
L 308.89344 108.935059 
L 309.01248 193.282479 
L 309.13152 197.210337 
L 309.25056 168.015891 
L 309.3696 212.070813 
L 309.60768 99.960475 
L 309.72672 189.78291 
L 309.9648 154.825169 
L 310.08384 143.691876 
L 310.20288 198.484165 
L 310.32192 135.64274 
L 310.44096 206.325221 
L 310.56 172.866996 
L 310.67904 190.137135 
L 310.79808 246.774088 
L 310.91712 131.9889 
L 311.03616 172.260407 
L 311.1552 143.04396 
L 311.39328 159.829589 
L 311.51232 187.671078 
L 311.63136 145.092717 
L 311.7504 182.854199 
L 311.98848 137.104152 
L 312.10752 216.692063 
L 312.22656 172.66677 
L 312.46464 199.905011 
L 312.58368 165.118371 
L 312.70272 202.648193 
L 312.9408 156.647255 
L 313.05984 256.705521 
L 313.17888 149.10026 
L 313.29792 181.816141 
L 313.536 144.413702 
L 313.65504 223.558913 
L 313.77408 217.230396 
L 313.89312 184.754969 
L 314.01216 196.133824 
L 314.1312 102.253307 
L 314.25024 184.994751 
L 314.36928 164.021093 
L 314.48832 185.945502 
L 314.60736 176.691748 
L 314.7264 217.133831 
L 314.84544 157.002472 
L 314.96448 198.079665 
L 315.08352 153.264673 
L 315.20256 150.6199 
L 315.3216 180.268976 
L 315.44064 138.269324 
L 315.67872 214.356075 
L 315.79776 191.719983 
L 315.9168 194.156936 
L 316.15488 143.092188 
L 316.27392 98.040378 
L 316.39296 153.814893 
L 316.512 134.229499 
L 316.75008 175.884877 
L 316.86912 130.517455 
L 316.98816 196.145394 
L 317.22624 179.281537 
L 317.34528 182.856156 
L 317.46432 139.843728 
L 317.7024 258.237992 
L 317.82144 170.26668 
L 317.94048 189.568667 
L 318.05952 157.334848 
L 318.41664 219.845114 
L 318.65472 181.859905 
L 318.77376 198.034314 
L 319.01184 170.743765 
L 319.13088 140.441305 
L 319.24992 181.664477 
L 319.488 154.209109 
L 319.60704 148.043967 
L 319.72608 162.470997 
L 319.84512 158.93444 
L 319.96416 181.825677 
L 320.0832 164.266986 
L 320.20224 192.687565 
L 320.32128 126.889842 
L 320.44032 211.17783 
L 320.6784 173.716312 
L 320.79744 211.184857 
L 320.91648 135.116955 
L 321.03552 146.280798 
L 321.15456 179.905657 
L 321.2736 153.080833 
L 321.39264 197.053705 
L 321.51168 153.444726 
L 321.63072 192.606689 
L 321.98784 168.056973 
L 322.10688 201.184445 
L 322.22592 137.288378 
L 322.34496 209.256259 
L 322.464 165.125409 
L 322.70208 193.885766 
L 323.0592 165.735257 
L 323.17824 176.029335 
L 323.29728 152.663777 
L 323.41632 152.595788 
L 323.53536 98.16841 
L 323.6544 180.353309 
L 323.77344 176.498287 
L 323.89248 167.113568 
L 324.01152 190.13922 
L 324.2496 155.425144 
L 324.36864 249.593076 
L 324.48768 152.437422 
L 324.60672 178.296984 
L 324.72576 152.543239 
L 324.8448 179.783448 
L 324.96384 158.73067 
L 325.20192 201.821553 
L 325.32096 173.993102 
L 325.44 199.330005 
L 325.55904 167.848302 
L 325.67808 224.635709 
L 325.91616 183.114581 
L 326.0352 202.517968 
L 326.15424 139.770609 
L 326.39232 173.218609 
L 326.51136 180.350816 
L 326.6304 164.786822 
L 326.74944 172.224602 
L 326.86848 170.195986 
L 326.98752 171.649286 
L 327.2256 203.521832 
L 327.34464 176.218549 
L 327.46368 213.246088 
L 327.58272 196.124027 
L 327.70176 154.012397 
L 327.8208 212.824845 
L 328.17792 149.258664 
L 328.29696 150.452545 
L 328.416 162.852831 
L 328.53504 151.488406 
L 328.65408 197.604419 
L 328.77312 135.486707 
L 329.0112 201.863916 
L 329.13024 177.000936 
L 329.24928 193.596977 
L 329.48736 136.567353 
L 329.6064 178.602936 
L 329.72544 121.520121 
L 329.84448 187.47345 
L 329.96352 137.833026 
L 330.08256 229.830702 
L 330.2016 141.573062 
L 330.32064 230.562899 
L 330.43968 182.170153 
L 330.55872 190.560118 
L 330.67776 186.555096 
L 330.91584 120.301712 
L 331.03488 144.961465 
L 331.27296 114.869228 
L 331.392 137.257196 
L 331.51104 188.517179 
L 331.63008 175.152962 
L 331.74912 192.464248 
L 331.86816 184.608041 
L 331.9872 154.43786 
L 332.10624 186.102564 
L 332.46336 123.083575 
L 332.5824 168.560112 
L 332.82048 140.861498 
L 332.93952 179.081155 
L 333.05856 141.53298 
L 333.1776 176.900417 
L 333.29664 151.670861 
L 333.41568 216.854051 
L 333.53472 128.757521 
L 333.65376 171.484093 
L 333.7728 168.139493 
L 333.89184 169.118237 
L 334.12992 130.591098 
L 334.368 184.470356 
L 334.48704 159.402764 
L 334.60608 218.438039 
L 334.72512 165.891173 
L 334.84416 183.267205 
L 334.9632 178.868868 
L 335.08224 192.89473 
L 335.43936 90.312668 
L 335.5584 145.483651 
L 335.67744 114.621681 
L 335.91552 142.701196 
L 336.03456 163.777527 
L 336.1536 150.423426 
L 336.27264 193.440953 
L 336.39168 139.251745 
L 336.51072 206.760129 
L 336.62976 171.668149 
L 336.7488 188.922378 
L 336.86784 237.536866 
L 337.10592 174.794503 
L 337.22496 174.222147 
L 337.344 185.013949 
L 337.46304 181.017681 
L 337.58208 223.696016 
L 337.70112 169.448967 
L 337.82016 167.691889 
L 337.9392 176.185782 
L 338.17728 146.714836 
L 338.29632 156.280937 
L 338.41536 134.584548 
L 338.65344 227.640078 
L 338.77248 211.203021 
L 339.01056 143.735625 
L 339.1296 190.748544 
L 339.24864 183.533088 
L 339.48672 149.863994 
L 339.60576 207.197856 
L 339.7248 196.300739 
L 339.84384 242.339933 
L 339.96288 140.042925 
L 340.08192 158.026594 
L 340.32 133.992364 
L 340.55808 180.823537 
L 340.67712 197.165502 
L 340.9152 164.15552 
L 341.03424 194.577576 
L 341.15328 169.462472 
L 341.39136 180.06409 
L 341.5104 206.173462 
L 341.62944 127.202499 
L 341.74848 205.537065 
L 341.98656 122.351532 
L 342.1056 150.693849 
L 342.22464 111.292071 
L 342.34368 114.921039 
L 342.46272 144.021865 
L 342.58176 92.536454 
L 342.81984 170.193872 
L 343.17696 213.566317 
L 343.41504 175.193283 
L 343.65312 192.093126 
L 343.77216 133.772964 
L 343.8912 166.622801 
L 344.01024 160.520209 
L 344.24832 185.757061 
L 344.36736 172.28336 
L 344.4864 189.615123 
L 344.72448 163.824807 
L 344.84352 175.430059 
L 344.96256 129.781232 
L 345.0816 211.979653 
L 345.20064 136.368346 
L 345.31968 152.440197 
L 345.55776 138.270891 
L 345.6768 117.232319 
L 345.79584 175.803383 
L 345.91488 156.33731 
L 346.03392 170.672086 
L 346.15296 169.17178 
L 346.272 172.022267 
L 346.39104 180.907297 
L 346.51008 177.804081 
L 346.62912 167.287475 
L 346.74816 195.869424 
L 346.8672 177.019603 
L 346.98624 191.707005 
L 347.10528 146.554163 
L 347.22432 167.974563 
L 347.4624 155.692105 
L 347.58144 159.772818 
L 347.70048 204.413086 
L 347.81952 172.390337 
L 348.0576 194.640719 
L 348.17664 137.019194 
L 348.41472 203.780258 
L 348.53376 152.599774 
L 348.6528 161.45882 
L 348.77184 153.475527 
L 348.89088 196.313006 
L 349.00992 144.808393 
L 349.12896 155.450871 
L 349.248 114.805343 
L 349.48608 172.692624 
L 349.60512 176.374332 
L 349.72416 200.04741 
L 349.8432 162.476116 
L 349.96224 166.658402 
L 350.08128 181.677922 
L 350.20032 159.438971 
L 350.31936 162.496684 
L 350.55744 118.981009 
L 350.67648 153.943147 
L 350.79552 134.901457 
L 350.91456 167.430765 
L 351.15264 141.644229 
L 351.27168 157.640368 
L 351.39072 121.957055 
L 351.50976 228.815395 
L 351.6288 172.86042 
L 351.74784 176.406636 
L 351.86688 197.000589 
L 351.98592 133.64312 
L 352.10496 168.308011 
L 352.224 111.283049 
L 352.34304 157.146532 
L 352.46208 146.301626 
L 352.58112 181.217303 
L 352.70016 157.356504 
L 352.8192 175.831468 
L 352.93824 232.569407 
L 353.05728 169.496672 
L 353.17632 190.977459 
L 353.4144 144.293079 
L 353.53344 151.403161 
L 353.65248 157.662556 
L 353.77152 119.058428 
L 353.89056 198.050666 
L 354.0096 143.524898 
L 354.12864 165.24257 
L 354.24768 155.379652 
L 354.36672 164.565593 
L 354.48576 197.915848 
L 354.6048 134.884877 
L 354.72384 170.070676 
L 354.84288 107.434923 
L 354.96192 156.526967 
L 355.08096 153.358405 
L 355.2 161.101725 
L 355.31904 209.633303 
L 355.43808 154.275585 
L 355.67616 167.906289 
L 355.7952 166.337527 
L 356.15232 154.139477 
L 356.3904 184.280909 
L 356.50944 185.40679 
L 356.74752 124.173081 
L 356.86656 155.153276 
L 356.9856 82.997531 
L 357.22368 185.768549 
L 357.34272 161.482733 
L 357.46176 231.173922 
L 357.69984 170.31336 
L 357.93792 198.056093 
L 358.176 139.230533 
L 358.41408 118.66013 
L 358.65216 185.172644 
L 358.7712 108.049655 
L 358.89024 177.475289 
L 359.12832 122.237927 
L 359.24736 144.024708 
L 359.3664 129.544439 
L 359.48544 244.390364 
L 359.60448 180.430538 
L 359.72352 186.322039 
L 359.84256 198.82497 
L 359.9616 190.445597 
L 360.08064 230.718809 
L 360.19968 231.920484 
L 360.43776 138.387415 
L 360.5568 152.965416 
L 360.67584 187.796974 
L 360.79488 156.317714 
L 360.91392 167.731521 
L 361.03296 190.438402 
L 361.152 147.545919 
L 361.27104 148.339042 
L 361.50912 166.998128 
L 361.62816 168.877443 
L 361.7472 144.591016 
L 361.86624 190.319106 
L 361.98528 159.613954 
L 362.10432 161.910083 
L 362.22336 175.41292 
L 362.3424 168.369079 
L 362.58048 194.629962 
L 362.81856 161.933371 
L 362.9376 199.541509 
L 363.05664 147.74083 
L 363.17568 200.842531 
L 363.41376 145.459682 
L 363.5328 161.988379 
L 363.65184 110.755929 
L 363.88992 166.291259 
L 364.00896 190.863335 
L 364.128 151.983445 
L 364.36608 179.038717 
L 364.48512 186.941239 
L 364.60416 175.828901 
L 364.7232 126.883255 
L 364.84224 164.290096 
L 364.96128 127.916909 
L 365.08032 147.239313 
L 365.19936 192.052452 
L 365.3184 171.60947 
L 365.43744 175.919384 
L 365.67552 162.878437 
L 365.79456 168.131468 
L 366.03264 155.875801 
L 366.15168 164.041631 
L 366.27072 191.297686 
L 366.38976 160.028146 
L 366.5088 205.133126 
L 366.74688 158.099332 
L 366.86592 155.67413 
L 366.98496 130.927288 
L 367.104 184.700725 
L 367.34208 135.756192 
L 367.46112 183.202653 
L 367.58016 155.621624 
L 367.6992 158.423084 
L 367.81824 180.340525 
L 367.93728 132.300164 
L 368.17536 192.736234 
L 368.2944 186.09697 
L 368.41344 167.378413 
L 368.53248 101.594463 
L 368.77056 113.75534 
L 368.8896 106.894705 
L 369.12768 204.713755 
L 369.24672 143.041231 
L 369.72288 182.016 
L 369.84192 247.34383 
L 370.08 131.27229 
L 370.19904 186.312368 
L 370.31808 117.524346 
L 370.43712 207.707183 
L 370.6752 151.601427 
L 370.79424 188.164088 
L 370.91328 183.284914 
L 371.03232 161.816177 
L 371.15136 174.051678 
L 371.2704 148.783236 
L 371.38944 184.104092 
L 371.50848 165.53492 
L 371.62752 176.72934 
L 371.74656 198.438941 
L 371.98464 144.582744 
L 372.22272 152.952368 
L 372.4608 140.680836 
L 372.57984 134.17153 
L 372.69888 141.255229 
L 372.81792 124.59827 
L 372.93696 146.441289 
L 373.056 113.791147 
L 373.29408 186.338144 
L 373.53216 196.779032 
L 373.77024 183.048852 
L 373.88928 207.224464 
L 374.00832 199.915196 
L 374.2464 158.469034 
L 374.36544 183.552985 
L 374.60352 160.370577 
L 374.72256 168.326289 
L 374.8416 164.802773 
L 374.96064 157.169632 
L 375.19872 221.202207 
L 375.31776 159.529726 
L 375.4368 173.580253 
L 375.55584 161.767056 
L 375.67488 235.155147 
L 375.79392 162.971836 
L 375.91296 202.39182 
L 376.032 190.414399 
L 376.27008 206.915472 
L 376.38912 191.958744 
L 376.50816 161.05784 
L 376.6272 164.623273 
L 376.86528 191.882805 
L 376.98432 183.795027 
L 377.10336 195.919585 
L 377.2224 131.391132 
L 377.34144 203.185077 
L 377.46048 83.315169 
L 377.69856 178.546118 
L 377.8176 173.067089 
L 377.93664 140.99514 
L 378.05568 204.317924 
L 378.17472 185.227646 
L 378.29376 138.289677 
L 378.53184 172.393288 
L 378.65088 154.428769 
L 378.76992 154.973242 
L 378.88896 170.437226 
L 379.12704 162.880282 
L 379.24608 172.401292 
L 379.36512 144.055494 
L 379.48416 169.846054 
L 379.6032 164.618298 
L 379.72224 197.240801 
L 379.84128 196.864443 
L 379.96032 153.996676 
L 380.07936 156.866512 
L 380.1984 176.457421 
L 380.43648 131.945461 
L 380.55552 143.856187 
L 380.67456 138.549661 
L 380.91264 158.277491 
L 381.03168 156.921751 
L 381.15072 164.926813 
L 381.26976 156.692178 
L 381.3888 177.440799 
L 381.62688 135.436753 
L 381.984 191.967168 
L 382.10304 196.101175 
L 382.22208 168.623507 
L 382.34112 197.595587 
L 382.46016 162.163326 
L 382.5792 165.88718 
L 382.69824 161.839082 
L 382.81728 117.703278 
L 382.93632 179.430186 
L 383.05536 124.835332 
L 383.41248 167.733883 
L 383.53152 171.936646 
L 383.65056 163.569118 
L 383.7696 94.986134 
L 383.88864 183.831462 
L 384.00768 120.125414 
L 384.12672 226.329381 
L 384.24576 165.334395 
L 384.3648 173.370335 
L 384.48384 171.893807 
L 384.60288 174.588524 
L 384.72192 173.951423 
L 384.84096 176.445181 
L 384.96 197.675756 
L 385.07904 180.023057 
L 385.19808 145.420999 
L 385.31712 235.811511 
L 385.43616 127.009863 
L 385.5552 202.544805 
L 385.79328 175.477761 
L 385.91232 181.59216 
L 386.03136 179.221445 
L 386.26944 144.70837 
L 386.50752 172.449929 
L 386.62656 208.997991 
L 386.86464 176.482691 
L 386.98368 222.299472 
L 387.10272 168.105296 
L 387.22176 190.710588 
L 387.3408 188.976411 
L 387.45984 172.419225 
L 387.57888 186.625725 
L 387.69792 168.077866 
L 387.81696 180.249492 
L 387.936 161.08468 
L 388.05504 223.972164 
L 388.17408 155.994086 
L 388.29312 219.617347 
L 388.41216 148.236531 
L 388.5312 159.719953 
L 388.65024 184.02323 
L 388.76928 180.539602 
L 388.88832 141.128848 
L 389.00736 162.666613 
L 389.1264 158.027014 
L 389.36448 203.401347 
L 389.60256 126.075615 
L 389.7216 174.6149 
L 389.84064 147.599923 
L 389.95968 195.545172 
L 390.07872 148.34047 
L 390.19776 191.340665 
L 390.43584 131.67875 
L 390.55488 187.386581 
L 390.67392 114.96125 
L 390.79296 174.857212 
L 391.03104 143.91651 
L 391.26912 188.613854 
L 391.38816 184.819285 
L 391.5072 159.994759 
L 391.62624 193.81766 
L 391.74528 178.496409 
L 391.86432 199.971003 
L 392.1024 166.943924 
L 392.34048 201.93717 
L 392.45952 141.749744 
L 392.57856 146.817006 
L 392.6976 131.184281 
L 392.81664 195.014477 
L 392.93568 146.192103 
L 393.05472 165.881018 
L 393.2928 115.376316 
L 393.41184 207.450335 
L 393.53088 143.521865 
L 393.76896 218.195406 
L 393.888 186.155469 
L 394.00704 186.87095 
L 394.12608 186.419288 
L 394.24512 188.040938 
L 394.36416 136.873039 
L 394.4832 165.400637 
L 394.72128 122.369612 
L 394.95936 159.586539 
L 395.0784 168.749604 
L 395.19744 187.326443 
L 395.31648 159.58154 
L 395.43552 254.911026 
L 395.55456 154.78527 
L 395.6736 184.93725 
L 395.79264 165.107011 
L 395.91168 184.990844 
L 396.03072 133.234351 
L 396.14976 224.196277 
L 396.2688 171.861154 
L 396.38784 175.9526 
L 396.50688 163.999218 
L 396.62592 169.89699 
L 396.864 195.212222 
L 396.98304 189.323452 
L 397.10208 107.020873 
L 397.22112 183.711997 
L 397.34016 138.802158 
L 397.4592 222.141869 
L 397.57824 88.443092 
L 397.69728 148.568209 
L 397.81632 145.665618 
L 397.93536 159.462195 
L 398.0544 157.538182 
L 398.29248 140.844082 
L 398.53056 182.457114 
L 398.76864 197.56028 
L 399.12576 158.457707 
L 399.36384 220.060169 
L 399.48288 205.078683 
L 399.60192 170.60617 
L 399.72096 178.709023 
L 399.84 245.665236 
L 399.95904 160.747223 
L 400.07808 161.650026 
L 400.19712 135.782275 
L 400.31616 151.692975 
L 400.4352 146.064319 
L 400.67328 184.022465 
L 400.79232 175.081881 
L 401.0304 143.031792 
L 401.14944 217.570078 
L 401.38752 111.747774 
L 401.50656 202.071807 
L 401.6256 102.8292 
L 401.74464 194.462629 
L 401.86368 178.996665 
L 401.98272 137.683655 
L 402.10176 211.340107 
L 402.2208 140.753724 
L 402.45888 169.509294 
L 402.69696 106.877349 
L 402.816 209.133255 
L 402.93504 163.020278 
L 403.05408 218.398567 
L 403.17312 166.013603 
L 403.29216 213.661969 
L 403.4112 165.533707 
L 403.53024 207.163851 
L 403.64928 175.842458 
L 403.76832 186.615921 
L 403.88736 148.544023 
L 404.0064 197.235844 
L 404.12544 163.490517 
L 404.24448 177.839251 
L 404.48256 155.109516 
L 404.72064 191.285765 
L 404.83968 170.298587 
L 404.95872 203.497689 
L 405.1968 153.322434 
L 405.31584 192.840561 
L 405.67296 130.751916 
L 405.792 196.503596 
L 405.91104 134.852494 
L 406.03008 167.06162 
L 406.14912 163.523736 
L 406.26816 176.434081 
L 406.3872 161.33853 
L 406.50624 163.58127 
L 406.62528 123.969786 
L 406.74432 150.88224 
L 406.9824 143.063878 
L 407.10144 149.448542 
L 407.22048 132.178685 
L 407.33952 176.420433 
L 407.45856 148.390308 
L 407.5776 175.787586 
L 407.69664 166.167967 
L 407.81568 146.834145 
L 408.05376 204.7581 
L 408.1728 161.699 
L 408.29184 203.867717 
L 408.41088 141.811644 
L 408.52992 165.27865 
L 408.64896 128.492091 
L 408.768 217.390018 
L 408.88704 142.031256 
L 409.00608 170.326507 
L 409.24416 141.85038 
L 409.3632 129.372409 
L 409.48224 183.435818 
L 409.60128 146.851378 
L 409.72032 168.642124 
L 409.83936 158.024354 
L 409.9584 209.735869 
L 410.07744 169.547131 
L 410.19648 239.274886 
L 410.43456 150.353501 
L 410.5536 162.08631 
L 410.79168 160.731221 
L 410.91072 142.517258 
L 411.02976 168.421446 
L 411.1488 149.679234 
L 411.26784 170.319066 
L 411.38688 133.280202 
L 411.50592 189.26597 
L 411.62496 155.123544 
L 411.86304 182.257693 
L 411.98208 138.937963 
L 412.10112 178.003152 
L 412.22016 108.504035 
L 412.3392 219.871314 
L 412.45824 164.633197 
L 412.69632 173.027173 
L 412.81536 198.773467 
L 413.05344 188.992313 
L 413.17248 181.027608 
L 413.29152 189.673556 
L 413.41056 142.370165 
L 413.5296 149.392157 
L 413.64864 147.489779 
L 413.76768 186.572296 
L 413.88672 163.989793 
L 414.00576 174.075987 
L 414.36288 147.806483 
L 414.60096 158.055572 
L 414.60096 158.055572 
" style="fill:none;stroke:#0000ff;stroke-linecap:square;stroke-width:1.5;"/>
   </g>
   <g id="patch_3">
    <path d="M 57.6 307.584 
L 57.6 41.472 
" style="fill:none;stroke:#000000;stroke-linecap:square;stroke-linejoin:miter;stroke-width:0.8;"/>
   </g>
   <g id="patch_4">
    <path d="M 414.72 307.584 
L 414.72 41.472 
" style="fill:none;stroke:#000000;stroke-linecap:square;stroke-linejoin:miter;stroke-width:0.8;"/>
   </g>
   <g id="patch_5">
    <path d="M 57.6 307.584 
L 414.72 307.584 
" style="fill:none;stroke:#000000;stroke-linecap:square;stroke-linejoin:miter;stroke-width:0.8;"/>
   </g>
   <g id="patch_6">
    <path d="M 57.6 41.472 
L 414.72 41.472 
" style="fill:none;stroke:#000000;stroke-linecap:square;stroke-linejoin:miter;stroke-width:0.8;"/>
   </g>
   <g id="legend_1">
    <g id="patch_7">
     <path d="M 282.321563 64.150125 
L 407.72 64.150125 
Q 409.72 64.150125 409.72 62.150125 
L 409.72 48.472 
Q 409.72 46.472 407.72 46.472 
L 282.321563 46.472 
Q 280.321563 46.472 280.321563 48.472 
L 280.321563 62.150125 
Q 280.321563 64.150125 282.321563 64.150125 
z
" style="fill:#ffffff;opacity:0.8;stroke:#cccccc;stroke-linejoin:miter;"/>
    </g>
    <g id="line2d_32">
     <path d="M 284.321563 54.570438 
L 304.321563 54.570438 
" style="fill:none;stroke:#0000ff;stroke-linecap:square;stroke-width:1.5;"/>
    </g>
    <g id="line2d_33"/>
    <g id="text_18">
     <!-- cumulative reward -->
     <g transform="translate(312.321563 58.070438)scale(0.1 -0.1)">
      <defs>
       <path d="M 3122 3366 
L 3122 2828 
Q 2878 2963 2633 3030 
Q 2388 3097 2138 3097 
Q 1578 3097 1268 2742 
Q 959 2388 959 1747 
Q 959 1106 1268 751 
Q 1578 397 2138 397 
Q 2388 397 2633 464 
Q 2878 531 3122 666 
L 3122 134 
Q 2881 22 2623 -34 
Q 2366 -91 2075 -91 
Q 1284 -91 818 406 
Q 353 903 353 1747 
Q 353 2603 823 3093 
Q 1294 3584 2113 3584 
Q 2378 3584 2631 3529 
Q 2884 3475 3122 3366 
z
" id="DejaVuSans-63" transform="scale(0.015625)"/>
      </defs>
      <use xlink:href="#DejaVuSans-63"/>
      <use x="54.980469" xlink:href="#DejaVuSans-75"/>
      <use x="118.359375" xlink:href="#DejaVuSans-6d"/>
      <use x="215.771484" xlink:href="#DejaVuSans-75"/>
      <use x="279.150391" xlink:href="#DejaVuSans-6c"/>
      <use x="306.933594" xlink:href="#DejaVuSans-61"/>
      <use x="368.212891" xlink:href="#DejaVuSans-74"/>
      <use x="407.421875" xlink:href="#DejaVuSans-69"/>
      <use x="435.205078" xlink:href="#DejaVuSans-76"/>
      <use x="494.384766" xlink:href="#DejaVuSans-65"/>
      <use x="555.908203" xlink:href="#DejaVuSans-20"/>
      <use x="587.695312" xlink:href="#DejaVuSans-72"/>
      <use x="626.558594" xlink:href="#DejaVuSans-65"/>
      <use x="688.082031" xlink:href="#DejaVuSans-77"/>
      <use x="769.869141" xlink:href="#DejaVuSans-61"/>
      <use x="831.148438" xlink:href="#DejaVuSans-72"/>
      <use x="870.511719" xlink:href="#DejaVuSans-64"/>
     </g>
    </g>
   </g>
  </g>
 </g>
 <defs>
  <clipPath id="p7597add7ca">
   <rect height="266.112" width="357.12" x="57.6" y="41.472"/>
  </clipPath>
 </defs>
</svg>
