<?xml version="1.0" encoding="utf-8" standalone="no"?>
<!DOCTYPE svg PUBLIC "-//W3C//DTD SVG 1.1//EN"
  "http://www.w3.org/Graphics/SVG/1.1/DTD/svg11.dtd">
<svg height="345.6pt" version="1.1" viewBox="0 0 460.8 345.6" width="460.8pt" xmlns="http://www.w3.org/2000/svg" xmlns:xlink="http://www.w3.org/1999/xlink">
 <metadata>
  <rdf:RDF xmlns:cc="http://creativecommons.org/ns#" xmlns:dc="http://purl.org/dc/elements/1.1/" xmlns:rdf="http://www.w3.org/1999/02/22-rdf-syntax-ns#">
   <cc:Work>
    <dc:type rdf:resource="http://purl.org/dc/dcmitype/StillImage"/>
    <dc:date>2021-10-27T12:26:15.694375</dc:date>
    <dc:description>{"agent.algorithm": "RayProximalPolicyOptimization", "agent.algorithm.render_env": false, "agent.algorithm.num_workers": 0, "agent.algorithm.batch_mode": "complete_episodes", "agent.algorithm.train_batch_size": 200, "agent.algorithm.optimizer": "Adam", "agent.algorithm.vf_clip_param": 100, "agent.algorithm.model": {"fcnet_activation": "tanh", "fcnet_hiddens": [50, 50]}, "env.env_class": "SchedulerPolicyRayEnvironment", "env.env_config": {"solver_driver": "CMAdriver", "solver_driver_args": [10, 10, 15, 0.1], "maximize": false, "steps": 50, "state_metrics_names": ["DifferenceOfBest", "SolverStateHistory", "SolverState"], "state_metrics_config": [[40, false, 1, true], [{"step_size": {"max": 3, "min": 0}}, 40], [{"ps": {"max": 10, "min": -10}}]], "reward_metric": "Best", "reward_metric_config": [false, false], "memes_no": 1, "action_space_config": {"step_size": {"max": 3, "min": 1e-10}}}}</dc:description>
    <dc:format>image/svg+xml</dc:format>
    <dc:creator>
     <cc:Agent>
      <dc:title>Matplotlib v3.4.3, https://matplotlib.org/</dc:title>
     </cc:Agent>
    </dc:creator>
   </cc:Work>
  </rdf:RDF>
 </metadata>
 <defs>
  <style type="text/css">*{stroke-linecap:butt;stroke-linejoin:round;}</style>
 </defs>
 <g id="figure_1">
  <g id="patch_1">
   <path d="M 0 345.6 
L 460.8 345.6 
L 460.8 0 
L 0 0 
z
" style="fill:#ffffff;"/>
  </g>
  <g id="axes_1">
   <g id="patch_2">
    <path d="M 57.6 307.584 
L 414.72 307.584 
L 414.72 41.472 
L 57.6 41.472 
z
" style="fill:#ffffff;"/>
   </g>
   <g id="matplotlib.axis_1">
    <g id="xtick_1">
     <g id="line2d_1">
      <path clip-path="url(#p1a8755522f)" d="M 57.6 307.584 
L 57.6 41.472 
" style="fill:none;stroke:#b0b0b0;stroke-linecap:square;stroke-width:0.8;"/>
     </g>
     <g id="line2d_2">
      <defs>
       <path d="M 0 0 
L 0 3.5 
" id="m07f883a906" style="stroke:#000000;stroke-width:0.8;"/>
      </defs>
      <g>
       <use style="stroke:#000000;stroke-width:0.8;" x="57.6" xlink:href="#m07f883a906" y="307.584"/>
      </g>
     </g>
     <g id="text_1">
      <!-- 0 -->
      <g transform="translate(54.41875 322.182437)scale(0.1 -0.1)">
       <defs>
        <path d="M 2034 4250 
Q 1547 4250 1301 3770 
Q 1056 3291 1056 2328 
Q 1056 1369 1301 889 
Q 1547 409 2034 409 
Q 2525 409 2770 889 
Q 3016 1369 3016 2328 
Q 3016 3291 2770 3770 
Q 2525 4250 2034 4250 
z
M 2034 4750 
Q 2819 4750 3233 4129 
Q 3647 3509 3647 2328 
Q 3647 1150 3233 529 
Q 2819 -91 2034 -91 
Q 1250 -91 836 529 
Q 422 1150 422 2328 
Q 422 3509 836 4129 
Q 1250 4750 2034 4750 
z
" id="DejaVuSans-30" transform="scale(0.015625)"/>
       </defs>
       <use xlink:href="#DejaVuSans-30"/>
      </g>
     </g>
    </g>
    <g id="xtick_2">
     <g id="line2d_3">
      <path clip-path="url(#p1a8755522f)" d="M 129.024 307.584 
L 129.024 41.472 
" style="fill:none;stroke:#b0b0b0;stroke-linecap:square;stroke-width:0.8;"/>
     </g>
     <g id="line2d_4">
      <g>
       <use style="stroke:#000000;stroke-width:0.8;" x="129.024" xlink:href="#m07f883a906" y="307.584"/>
      </g>
     </g>
     <g id="text_2">
      <!-- 200 -->
      <g transform="translate(119.48025 322.182437)scale(0.1 -0.1)">
       <defs>
        <path d="M 1228 531 
L 3431 531 
L 3431 0 
L 469 0 
L 469 531 
Q 828 903 1448 1529 
Q 2069 2156 2228 2338 
Q 2531 2678 2651 2914 
Q 2772 3150 2772 3378 
Q 2772 3750 2511 3984 
Q 2250 4219 1831 4219 
Q 1534 4219 1204 4116 
Q 875 4013 500 3803 
L 500 4441 
Q 881 4594 1212 4672 
Q 1544 4750 1819 4750 
Q 2544 4750 2975 4387 
Q 3406 4025 3406 3419 
Q 3406 3131 3298 2873 
Q 3191 2616 2906 2266 
Q 2828 2175 2409 1742 
Q 1991 1309 1228 531 
z
" id="DejaVuSans-32" transform="scale(0.015625)"/>
       </defs>
       <use xlink:href="#DejaVuSans-32"/>
       <use x="63.623047" xlink:href="#DejaVuSans-30"/>
       <use x="127.246094" xlink:href="#DejaVuSans-30"/>
      </g>
     </g>
    </g>
    <g id="xtick_3">
     <g id="line2d_5">
      <path clip-path="url(#p1a8755522f)" d="M 200.448 307.584 
L 200.448 41.472 
" style="fill:none;stroke:#b0b0b0;stroke-linecap:square;stroke-width:0.8;"/>
     </g>
     <g id="line2d_6">
      <g>
       <use style="stroke:#000000;stroke-width:0.8;" x="200.448" xlink:href="#m07f883a906" y="307.584"/>
      </g>
     </g>
     <g id="text_3">
      <!-- 400 -->
      <g transform="translate(190.90425 322.182437)scale(0.1 -0.1)">
       <defs>
        <path d="M 2419 4116 
L 825 1625 
L 2419 1625 
L 2419 4116 
z
M 2253 4666 
L 3047 4666 
L 3047 1625 
L 3713 1625 
L 3713 1100 
L 3047 1100 
L 3047 0 
L 2419 0 
L 2419 1100 
L 313 1100 
L 313 1709 
L 2253 4666 
z
" id="DejaVuSans-34" transform="scale(0.015625)"/>
       </defs>
       <use xlink:href="#DejaVuSans-34"/>
       <use x="63.623047" xlink:href="#DejaVuSans-30"/>
       <use x="127.246094" xlink:href="#DejaVuSans-30"/>
      </g>
     </g>
    </g>
    <g id="xtick_4">
     <g id="line2d_7">
      <path clip-path="url(#p1a8755522f)" d="M 271.872 307.584 
L 271.872 41.472 
" style="fill:none;stroke:#b0b0b0;stroke-linecap:square;stroke-width:0.8;"/>
     </g>
     <g id="line2d_8">
      <g>
       <use style="stroke:#000000;stroke-width:0.8;" x="271.872" xlink:href="#m07f883a906" y="307.584"/>
      </g>
     </g>
     <g id="text_4">
      <!-- 600 -->
      <g transform="translate(262.32825 322.182437)scale(0.1 -0.1)">
       <defs>
        <path d="M 2113 2584 
Q 1688 2584 1439 2293 
Q 1191 2003 1191 1497 
Q 1191 994 1439 701 
Q 1688 409 2113 409 
Q 2538 409 2786 701 
Q 3034 994 3034 1497 
Q 3034 2003 2786 2293 
Q 2538 2584 2113 2584 
z
M 3366 4563 
L 3366 3988 
Q 3128 4100 2886 4159 
Q 2644 4219 2406 4219 
Q 1781 4219 1451 3797 
Q 1122 3375 1075 2522 
Q 1259 2794 1537 2939 
Q 1816 3084 2150 3084 
Q 2853 3084 3261 2657 
Q 3669 2231 3669 1497 
Q 3669 778 3244 343 
Q 2819 -91 2113 -91 
Q 1303 -91 875 529 
Q 447 1150 447 2328 
Q 447 3434 972 4092 
Q 1497 4750 2381 4750 
Q 2619 4750 2861 4703 
Q 3103 4656 3366 4563 
z
" id="DejaVuSans-36" transform="scale(0.015625)"/>
       </defs>
       <use xlink:href="#DejaVuSans-36"/>
       <use x="63.623047" xlink:href="#DejaVuSans-30"/>
       <use x="127.246094" xlink:href="#DejaVuSans-30"/>
      </g>
     </g>
    </g>
    <g id="xtick_5">
     <g id="line2d_9">
      <path clip-path="url(#p1a8755522f)" d="M 343.296 307.584 
L 343.296 41.472 
" style="fill:none;stroke:#b0b0b0;stroke-linecap:square;stroke-width:0.8;"/>
     </g>
     <g id="line2d_10">
      <g>
       <use style="stroke:#000000;stroke-width:0.8;" x="343.296" xlink:href="#m07f883a906" y="307.584"/>
      </g>
     </g>
     <g id="text_5">
      <!-- 800 -->
      <g transform="translate(333.75225 322.182437)scale(0.1 -0.1)">
       <defs>
        <path d="M 2034 2216 
Q 1584 2216 1326 1975 
Q 1069 1734 1069 1313 
Q 1069 891 1326 650 
Q 1584 409 2034 409 
Q 2484 409 2743 651 
Q 3003 894 3003 1313 
Q 3003 1734 2745 1975 
Q 2488 2216 2034 2216 
z
M 1403 2484 
Q 997 2584 770 2862 
Q 544 3141 544 3541 
Q 544 4100 942 4425 
Q 1341 4750 2034 4750 
Q 2731 4750 3128 4425 
Q 3525 4100 3525 3541 
Q 3525 3141 3298 2862 
Q 3072 2584 2669 2484 
Q 3125 2378 3379 2068 
Q 3634 1759 3634 1313 
Q 3634 634 3220 271 
Q 2806 -91 2034 -91 
Q 1263 -91 848 271 
Q 434 634 434 1313 
Q 434 1759 690 2068 
Q 947 2378 1403 2484 
z
M 1172 3481 
Q 1172 3119 1398 2916 
Q 1625 2713 2034 2713 
Q 2441 2713 2670 2916 
Q 2900 3119 2900 3481 
Q 2900 3844 2670 4047 
Q 2441 4250 2034 4250 
Q 1625 4250 1398 4047 
Q 1172 3844 1172 3481 
z
" id="DejaVuSans-38" transform="scale(0.015625)"/>
       </defs>
       <use xlink:href="#DejaVuSans-38"/>
       <use x="63.623047" xlink:href="#DejaVuSans-30"/>
       <use x="127.246094" xlink:href="#DejaVuSans-30"/>
      </g>
     </g>
    </g>
    <g id="xtick_6">
     <g id="line2d_11">
      <path clip-path="url(#p1a8755522f)" d="M 414.72 307.584 
L 414.72 41.472 
" style="fill:none;stroke:#b0b0b0;stroke-linecap:square;stroke-width:0.8;"/>
     </g>
     <g id="line2d_12">
      <g>
       <use style="stroke:#000000;stroke-width:0.8;" x="414.72" xlink:href="#m07f883a906" y="307.584"/>
      </g>
     </g>
     <g id="text_6">
      <!-- 1000 -->
      <g transform="translate(401.995 322.182437)scale(0.1 -0.1)">
       <defs>
        <path d="M 794 531 
L 1825 531 
L 1825 4091 
L 703 3866 
L 703 4441 
L 1819 4666 
L 2450 4666 
L 2450 531 
L 3481 531 
L 3481 0 
L 794 0 
L 794 531 
z
" id="DejaVuSans-31" transform="scale(0.015625)"/>
       </defs>
       <use xlink:href="#DejaVuSans-31"/>
       <use x="63.623047" xlink:href="#DejaVuSans-30"/>
       <use x="127.246094" xlink:href="#DejaVuSans-30"/>
       <use x="190.869141" xlink:href="#DejaVuSans-30"/>
      </g>
     </g>
    </g>
    <g id="text_7">
     <!-- Episodes -->
     <g transform="translate(213.917812 335.860562)scale(0.1 -0.1)">
      <defs>
       <path d="M 628 4666 
L 3578 4666 
L 3578 4134 
L 1259 4134 
L 1259 2753 
L 3481 2753 
L 3481 2222 
L 1259 2222 
L 1259 531 
L 3634 531 
L 3634 0 
L 628 0 
L 628 4666 
z
" id="DejaVuSans-45" transform="scale(0.015625)"/>
       <path d="M 1159 525 
L 1159 -1331 
L 581 -1331 
L 581 3500 
L 1159 3500 
L 1159 2969 
Q 1341 3281 1617 3432 
Q 1894 3584 2278 3584 
Q 2916 3584 3314 3078 
Q 3713 2572 3713 1747 
Q 3713 922 3314 415 
Q 2916 -91 2278 -91 
Q 1894 -91 1617 61 
Q 1341 213 1159 525 
z
M 3116 1747 
Q 3116 2381 2855 2742 
Q 2594 3103 2138 3103 
Q 1681 3103 1420 2742 
Q 1159 2381 1159 1747 
Q 1159 1113 1420 752 
Q 1681 391 2138 391 
Q 2594 391 2855 752 
Q 3116 1113 3116 1747 
z
" id="DejaVuSans-70" transform="scale(0.015625)"/>
       <path d="M 603 3500 
L 1178 3500 
L 1178 0 
L 603 0 
L 603 3500 
z
M 603 4863 
L 1178 4863 
L 1178 4134 
L 603 4134 
L 603 4863 
z
" id="DejaVuSans-69" transform="scale(0.015625)"/>
       <path d="M 2834 3397 
L 2834 2853 
Q 2591 2978 2328 3040 
Q 2066 3103 1784 3103 
Q 1356 3103 1142 2972 
Q 928 2841 928 2578 
Q 928 2378 1081 2264 
Q 1234 2150 1697 2047 
L 1894 2003 
Q 2506 1872 2764 1633 
Q 3022 1394 3022 966 
Q 3022 478 2636 193 
Q 2250 -91 1575 -91 
Q 1294 -91 989 -36 
Q 684 19 347 128 
L 347 722 
Q 666 556 975 473 
Q 1284 391 1588 391 
Q 1994 391 2212 530 
Q 2431 669 2431 922 
Q 2431 1156 2273 1281 
Q 2116 1406 1581 1522 
L 1381 1569 
Q 847 1681 609 1914 
Q 372 2147 372 2553 
Q 372 3047 722 3315 
Q 1072 3584 1716 3584 
Q 2034 3584 2315 3537 
Q 2597 3491 2834 3397 
z
" id="DejaVuSans-73" transform="scale(0.015625)"/>
       <path d="M 1959 3097 
Q 1497 3097 1228 2736 
Q 959 2375 959 1747 
Q 959 1119 1226 758 
Q 1494 397 1959 397 
Q 2419 397 2687 759 
Q 2956 1122 2956 1747 
Q 2956 2369 2687 2733 
Q 2419 3097 1959 3097 
z
M 1959 3584 
Q 2709 3584 3137 3096 
Q 3566 2609 3566 1747 
Q 3566 888 3137 398 
Q 2709 -91 1959 -91 
Q 1206 -91 779 398 
Q 353 888 353 1747 
Q 353 2609 779 3096 
Q 1206 3584 1959 3584 
z
" id="DejaVuSans-6f" transform="scale(0.015625)"/>
       <path d="M 2906 2969 
L 2906 4863 
L 3481 4863 
L 3481 0 
L 2906 0 
L 2906 525 
Q 2725 213 2448 61 
Q 2172 -91 1784 -91 
Q 1150 -91 751 415 
Q 353 922 353 1747 
Q 353 2572 751 3078 
Q 1150 3584 1784 3584 
Q 2172 3584 2448 3432 
Q 2725 3281 2906 2969 
z
M 947 1747 
Q 947 1113 1208 752 
Q 1469 391 1925 391 
Q 2381 391 2643 752 
Q 2906 1113 2906 1747 
Q 2906 2381 2643 2742 
Q 2381 3103 1925 3103 
Q 1469 3103 1208 2742 
Q 947 2381 947 1747 
z
" id="DejaVuSans-64" transform="scale(0.015625)"/>
       <path d="M 3597 1894 
L 3597 1613 
L 953 1613 
Q 991 1019 1311 708 
Q 1631 397 2203 397 
Q 2534 397 2845 478 
Q 3156 559 3463 722 
L 3463 178 
Q 3153 47 2828 -22 
Q 2503 -91 2169 -91 
Q 1331 -91 842 396 
Q 353 884 353 1716 
Q 353 2575 817 3079 
Q 1281 3584 2069 3584 
Q 2775 3584 3186 3129 
Q 3597 2675 3597 1894 
z
M 3022 2063 
Q 3016 2534 2758 2815 
Q 2500 3097 2075 3097 
Q 1594 3097 1305 2825 
Q 1016 2553 972 2059 
L 3022 2063 
z
" id="DejaVuSans-65" transform="scale(0.015625)"/>
      </defs>
      <use xlink:href="#DejaVuSans-45"/>
      <use x="63.183594" xlink:href="#DejaVuSans-70"/>
      <use x="126.660156" xlink:href="#DejaVuSans-69"/>
      <use x="154.443359" xlink:href="#DejaVuSans-73"/>
      <use x="206.542969" xlink:href="#DejaVuSans-6f"/>
      <use x="267.724609" xlink:href="#DejaVuSans-64"/>
      <use x="331.201172" xlink:href="#DejaVuSans-65"/>
      <use x="392.724609" xlink:href="#DejaVuSans-73"/>
     </g>
    </g>
   </g>
   <g id="matplotlib.axis_2">
    <g id="ytick_1">
     <g id="line2d_13">
      <path clip-path="url(#p1a8755522f)" d="M 57.6 264.569672 
L 414.72 264.569672 
" style="fill:none;stroke:#b0b0b0;stroke-linecap:square;stroke-width:0.8;"/>
     </g>
     <g id="line2d_14">
      <defs>
       <path d="M 0 0 
L -3.5 0 
" id="mf46e874aa3" style="stroke:#000000;stroke-width:0.8;"/>
      </defs>
      <g>
       <use style="stroke:#000000;stroke-width:0.8;" x="57.6" xlink:href="#mf46e874aa3" y="264.569672"/>
      </g>
     </g>
     <g id="text_8">
      <!-- −10000 -->
      <g transform="translate(10.407812 268.36889)scale(0.1 -0.1)">
       <defs>
        <path d="M 678 2272 
L 4684 2272 
L 4684 1741 
L 678 1741 
L 678 2272 
z
" id="DejaVuSans-2212" transform="scale(0.015625)"/>
       </defs>
       <use xlink:href="#DejaVuSans-2212"/>
       <use x="83.789062" xlink:href="#DejaVuSans-31"/>
       <use x="147.412109" xlink:href="#DejaVuSans-30"/>
       <use x="211.035156" xlink:href="#DejaVuSans-30"/>
       <use x="274.658203" xlink:href="#DejaVuSans-30"/>
       <use x="338.28125" xlink:href="#DejaVuSans-30"/>
      </g>
     </g>
    </g>
    <g id="ytick_2">
     <g id="line2d_15">
      <path clip-path="url(#p1a8755522f)" d="M 57.6 210.580557 
L 414.72 210.580557 
" style="fill:none;stroke:#b0b0b0;stroke-linecap:square;stroke-width:0.8;"/>
     </g>
     <g id="line2d_16">
      <g>
       <use style="stroke:#000000;stroke-width:0.8;" x="57.6" xlink:href="#mf46e874aa3" y="210.580557"/>
      </g>
     </g>
     <g id="text_9">
      <!-- −8000 -->
      <g transform="translate(16.770313 214.379776)scale(0.1 -0.1)">
       <use xlink:href="#DejaVuSans-2212"/>
       <use x="83.789062" xlink:href="#DejaVuSans-38"/>
       <use x="147.412109" xlink:href="#DejaVuSans-30"/>
       <use x="211.035156" xlink:href="#DejaVuSans-30"/>
       <use x="274.658203" xlink:href="#DejaVuSans-30"/>
      </g>
     </g>
    </g>
    <g id="ytick_3">
     <g id="line2d_17">
      <path clip-path="url(#p1a8755522f)" d="M 57.6 156.591443 
L 414.72 156.591443 
" style="fill:none;stroke:#b0b0b0;stroke-linecap:square;stroke-width:0.8;"/>
     </g>
     <g id="line2d_18">
      <g>
       <use style="stroke:#000000;stroke-width:0.8;" x="57.6" xlink:href="#mf46e874aa3" y="156.591443"/>
      </g>
     </g>
     <g id="text_10">
      <!-- −6000 -->
      <g transform="translate(16.770313 160.390661)scale(0.1 -0.1)">
       <use xlink:href="#DejaVuSans-2212"/>
       <use x="83.789062" xlink:href="#DejaVuSans-36"/>
       <use x="147.412109" xlink:href="#DejaVuSans-30"/>
       <use x="211.035156" xlink:href="#DejaVuSans-30"/>
       <use x="274.658203" xlink:href="#DejaVuSans-30"/>
      </g>
     </g>
    </g>
    <g id="ytick_4">
     <g id="line2d_19">
      <path clip-path="url(#p1a8755522f)" d="M 57.6 102.602328 
L 414.72 102.602328 
" style="fill:none;stroke:#b0b0b0;stroke-linecap:square;stroke-width:0.8;"/>
     </g>
     <g id="line2d_20">
      <g>
       <use style="stroke:#000000;stroke-width:0.8;" x="57.6" xlink:href="#mf46e874aa3" y="102.602328"/>
      </g>
     </g>
     <g id="text_11">
      <!-- −4000 -->
      <g transform="translate(16.770313 106.401547)scale(0.1 -0.1)">
       <use xlink:href="#DejaVuSans-2212"/>
       <use x="83.789062" xlink:href="#DejaVuSans-34"/>
       <use x="147.412109" xlink:href="#DejaVuSans-30"/>
       <use x="211.035156" xlink:href="#DejaVuSans-30"/>
       <use x="274.658203" xlink:href="#DejaVuSans-30"/>
      </g>
     </g>
    </g>
    <g id="ytick_5">
     <g id="line2d_21">
      <path clip-path="url(#p1a8755522f)" d="M 57.6 48.613213 
L 414.72 48.613213 
" style="fill:none;stroke:#b0b0b0;stroke-linecap:square;stroke-width:0.8;"/>
     </g>
     <g id="line2d_22">
      <g>
       <use style="stroke:#000000;stroke-width:0.8;" x="57.6" xlink:href="#mf46e874aa3" y="48.613213"/>
      </g>
     </g>
     <g id="text_12">
      <!-- −2000 -->
      <g transform="translate(16.770313 52.412432)scale(0.1 -0.1)">
       <use xlink:href="#DejaVuSans-2212"/>
       <use x="83.789062" xlink:href="#DejaVuSans-32"/>
       <use x="147.412109" xlink:href="#DejaVuSans-30"/>
       <use x="211.035156" xlink:href="#DejaVuSans-30"/>
       <use x="274.658203" xlink:href="#DejaVuSans-30"/>
      </g>
     </g>
    </g>
    <g id="text_13">
     <!-- Cumulative Reward -->
     <g transform="translate(4.328125 223.275656)rotate(-90)scale(0.1 -0.1)">
      <defs>
       <path d="M 4122 4306 
L 4122 3641 
Q 3803 3938 3442 4084 
Q 3081 4231 2675 4231 
Q 1875 4231 1450 3742 
Q 1025 3253 1025 2328 
Q 1025 1406 1450 917 
Q 1875 428 2675 428 
Q 3081 428 3442 575 
Q 3803 722 4122 1019 
L 4122 359 
Q 3791 134 3420 21 
Q 3050 -91 2638 -91 
Q 1578 -91 968 557 
Q 359 1206 359 2328 
Q 359 3453 968 4101 
Q 1578 4750 2638 4750 
Q 3056 4750 3426 4639 
Q 3797 4528 4122 4306 
z
" id="DejaVuSans-43" transform="scale(0.015625)"/>
       <path d="M 544 1381 
L 544 3500 
L 1119 3500 
L 1119 1403 
Q 1119 906 1312 657 
Q 1506 409 1894 409 
Q 2359 409 2629 706 
Q 2900 1003 2900 1516 
L 2900 3500 
L 3475 3500 
L 3475 0 
L 2900 0 
L 2900 538 
Q 2691 219 2414 64 
Q 2138 -91 1772 -91 
Q 1169 -91 856 284 
Q 544 659 544 1381 
z
M 1991 3584 
L 1991 3584 
z
" id="DejaVuSans-75" transform="scale(0.015625)"/>
       <path d="M 3328 2828 
Q 3544 3216 3844 3400 
Q 4144 3584 4550 3584 
Q 5097 3584 5394 3201 
Q 5691 2819 5691 2113 
L 5691 0 
L 5113 0 
L 5113 2094 
Q 5113 2597 4934 2840 
Q 4756 3084 4391 3084 
Q 3944 3084 3684 2787 
Q 3425 2491 3425 1978 
L 3425 0 
L 2847 0 
L 2847 2094 
Q 2847 2600 2669 2842 
Q 2491 3084 2119 3084 
Q 1678 3084 1418 2786 
Q 1159 2488 1159 1978 
L 1159 0 
L 581 0 
L 581 3500 
L 1159 3500 
L 1159 2956 
Q 1356 3278 1631 3431 
Q 1906 3584 2284 3584 
Q 2666 3584 2933 3390 
Q 3200 3197 3328 2828 
z
" id="DejaVuSans-6d" transform="scale(0.015625)"/>
       <path d="M 603 4863 
L 1178 4863 
L 1178 0 
L 603 0 
L 603 4863 
z
" id="DejaVuSans-6c" transform="scale(0.015625)"/>
       <path d="M 2194 1759 
Q 1497 1759 1228 1600 
Q 959 1441 959 1056 
Q 959 750 1161 570 
Q 1363 391 1709 391 
Q 2188 391 2477 730 
Q 2766 1069 2766 1631 
L 2766 1759 
L 2194 1759 
z
M 3341 1997 
L 3341 0 
L 2766 0 
L 2766 531 
Q 2569 213 2275 61 
Q 1981 -91 1556 -91 
Q 1019 -91 701 211 
Q 384 513 384 1019 
Q 384 1609 779 1909 
Q 1175 2209 1959 2209 
L 2766 2209 
L 2766 2266 
Q 2766 2663 2505 2880 
Q 2244 3097 1772 3097 
Q 1472 3097 1187 3025 
Q 903 2953 641 2809 
L 641 3341 
Q 956 3463 1253 3523 
Q 1550 3584 1831 3584 
Q 2591 3584 2966 3190 
Q 3341 2797 3341 1997 
z
" id="DejaVuSans-61" transform="scale(0.015625)"/>
       <path d="M 1172 4494 
L 1172 3500 
L 2356 3500 
L 2356 3053 
L 1172 3053 
L 1172 1153 
Q 1172 725 1289 603 
Q 1406 481 1766 481 
L 2356 481 
L 2356 0 
L 1766 0 
Q 1100 0 847 248 
Q 594 497 594 1153 
L 594 3053 
L 172 3053 
L 172 3500 
L 594 3500 
L 594 4494 
L 1172 4494 
z
" id="DejaVuSans-74" transform="scale(0.015625)"/>
       <path d="M 191 3500 
L 800 3500 
L 1894 563 
L 2988 3500 
L 3597 3500 
L 2284 0 
L 1503 0 
L 191 3500 
z
" id="DejaVuSans-76" transform="scale(0.015625)"/>
       <path id="DejaVuSans-20" transform="scale(0.015625)"/>
       <path d="M 2841 2188 
Q 3044 2119 3236 1894 
Q 3428 1669 3622 1275 
L 4263 0 
L 3584 0 
L 2988 1197 
Q 2756 1666 2539 1819 
Q 2322 1972 1947 1972 
L 1259 1972 
L 1259 0 
L 628 0 
L 628 4666 
L 2053 4666 
Q 2853 4666 3247 4331 
Q 3641 3997 3641 3322 
Q 3641 2881 3436 2590 
Q 3231 2300 2841 2188 
z
M 1259 4147 
L 1259 2491 
L 2053 2491 
Q 2509 2491 2742 2702 
Q 2975 2913 2975 3322 
Q 2975 3731 2742 3939 
Q 2509 4147 2053 4147 
L 1259 4147 
z
" id="DejaVuSans-52" transform="scale(0.015625)"/>
       <path d="M 269 3500 
L 844 3500 
L 1563 769 
L 2278 3500 
L 2956 3500 
L 3675 769 
L 4391 3500 
L 4966 3500 
L 4050 0 
L 3372 0 
L 2619 2869 
L 1863 0 
L 1184 0 
L 269 3500 
z
" id="DejaVuSans-77" transform="scale(0.015625)"/>
       <path d="M 2631 2963 
Q 2534 3019 2420 3045 
Q 2306 3072 2169 3072 
Q 1681 3072 1420 2755 
Q 1159 2438 1159 1844 
L 1159 0 
L 581 0 
L 581 3500 
L 1159 3500 
L 1159 2956 
Q 1341 3275 1631 3429 
Q 1922 3584 2338 3584 
Q 2397 3584 2469 3576 
Q 2541 3569 2628 3553 
L 2631 2963 
z
" id="DejaVuSans-72" transform="scale(0.015625)"/>
      </defs>
      <use xlink:href="#DejaVuSans-43"/>
      <use x="69.824219" xlink:href="#DejaVuSans-75"/>
      <use x="133.203125" xlink:href="#DejaVuSans-6d"/>
      <use x="230.615234" xlink:href="#DejaVuSans-75"/>
      <use x="293.994141" xlink:href="#DejaVuSans-6c"/>
      <use x="321.777344" xlink:href="#DejaVuSans-61"/>
      <use x="383.056641" xlink:href="#DejaVuSans-74"/>
      <use x="422.265625" xlink:href="#DejaVuSans-69"/>
      <use x="450.048828" xlink:href="#DejaVuSans-76"/>
      <use x="509.228516" xlink:href="#DejaVuSans-65"/>
      <use x="570.751953" xlink:href="#DejaVuSans-20"/>
      <use x="602.539062" xlink:href="#DejaVuSans-52"/>
      <use x="667.521484" xlink:href="#DejaVuSans-65"/>
      <use x="729.044922" xlink:href="#DejaVuSans-77"/>
      <use x="810.832031" xlink:href="#DejaVuSans-61"/>
      <use x="872.111328" xlink:href="#DejaVuSans-72"/>
      <use x="911.474609" xlink:href="#DejaVuSans-64"/>
     </g>
    </g>
   </g>
   <g id="line2d_23">
    <path clip-path="url(#p1a8755522f)" d="M 57.6 196.332968 
L 57.95712 194.101776 
L 58.31424 152.315087 
L 58.67136 146.285945 
L 59.02848 196.332968 
L 59.3856 194.101776 
L 59.74272 152.315087 
L 60.09984 146.285945 
L 60.45696 196.332968 
L 60.81408 194.101776 
L 61.1712 152.315087 
L 61.52832 146.285945 
L 61.88544 196.332968 
L 62.24256 194.101776 
L 62.59968 152.315087 
L 62.9568 146.285945 
L 63.31392 196.332968 
L 63.67104 194.101776 
L 64.02816 152.315087 
L 64.38528 146.285945 
L 64.7424 196.332968 
L 65.09952 194.101776 
L 65.45664 152.315087 
L 65.81376 146.285945 
L 66.17088 196.332968 
L 66.528 194.101776 
L 66.88512 152.315087 
L 67.24224 146.285945 
L 67.59936 196.332968 
L 67.95648 194.101776 
L 68.3136 152.315087 
L 68.67072 146.285945 
L 69.02784 196.332968 
L 69.38496 194.101776 
L 69.74208 152.315087 
L 70.0992 146.285945 
L 70.45632 196.332968 
L 70.81344 194.101776 
L 71.17056 152.315087 
L 71.52768 146.285945 
L 71.8848 196.332968 
L 72.24192 194.101776 
L 72.59904 152.315087 
L 72.95616 146.285945 
L 73.31328 196.332968 
L 73.6704 194.101776 
L 74.02752 152.315087 
L 74.38464 146.285945 
L 74.74176 196.332968 
L 75.09888 194.101776 
L 75.456 152.315087 
L 75.81312 146.285945 
L 76.17024 196.332968 
L 76.52736 194.101776 
L 76.88448 152.315087 
L 77.2416 146.285945 
L 77.59872 196.332968 
L 77.95584 194.101776 
L 78.31296 152.315087 
L 78.67008 146.285945 
L 79.0272 196.332968 
L 79.38432 194.101776 
L 79.74144 152.315087 
L 80.09856 146.285945 
L 80.45568 196.332968 
L 80.8128 194.101776 
L 81.16992 152.315087 
L 81.52704 146.285945 
L 81.88416 196.332968 
L 82.24128 194.101776 
L 82.5984 152.315087 
L 82.95552 146.285945 
L 83.31264 196.332968 
L 83.66976 194.101776 
L 84.02688 152.315087 
L 84.384 146.285945 
L 84.74112 196.332968 
L 85.09824 194.101776 
L 85.45536 152.315087 
L 85.81248 146.285945 
L 86.1696 196.332968 
L 86.52672 194.101776 
L 86.88384 152.315087 
L 87.24096 146.285945 
L 87.59808 196.332968 
L 87.9552 194.101776 
L 88.31232 152.315087 
L 88.66944 146.285945 
L 89.02656 196.332968 
L 89.38368 194.101776 
L 89.7408 152.315087 
L 90.09792 146.285945 
L 90.45504 196.332968 
L 90.81216 194.101776 
L 91.16928 152.315087 
L 91.5264 146.285945 
L 91.88352 196.332968 
L 92.24064 194.101776 
L 92.59776 152.315087 
L 92.95488 146.285945 
L 93.312 210.743324 
L 93.66912 183.82669 
L 94.02624 175.248469 
L 94.38336 196.977788 
L 94.74048 172.671459 
L 95.0976 168.757911 
L 95.45472 198.148018 
L 95.81184 158.933641 
L 96.16896 181.03383 
L 96.52608 231.877734 
L 96.8832 153.568731 
L 97.24032 160.759821 
L 97.95456 182.283133 
L 98.31168 159.967752 
L 98.6688 185.282493 
L 99.02592 181.830682 
L 99.38304 228.372365 
L 99.74016 209.679587 
L 100.09728 117.798061 
L 100.4544 169.002989 
L 100.81152 163.819203 
L 101.16864 164.991464 
L 101.52576 170.452556 
L 101.88288 137.098081 
L 102.24 149.636316 
L 102.59712 153.621946 
L 102.95424 144.133382 
L 103.31136 166.160759 
L 103.66848 180.856906 
L 104.0256 129.320312 
L 104.38272 174.939329 
L 104.73984 173.270103 
L 105.09696 196.579336 
L 105.45408 147.605716 
L 105.8112 163.922345 
L 106.16832 141.142811 
L 106.52544 132.371237 
L 106.88256 150.821997 
L 107.23968 118.258837 
L 107.5968 125.389246 
L 107.95392 166.709807 
L 108.31104 164.379848 
L 108.66816 212.979201 
L 109.02528 124.098457 
L 109.3824 137.919314 
L 109.73952 104.355098 
L 110.09664 165.554819 
L 110.45376 178.583946 
L 110.81088 104.945401 
L 111.168 107.352383 
L 111.52512 139.52903 
L 112.23936 170.027828 
L 112.59648 202.090661 
L 113.31072 108.42423 
L 113.66784 101.698717 
L 114.38208 139.440042 
L 114.7392 136.837447 
L 115.09632 169.670299 
L 115.45344 127.553473 
L 115.81056 132.300291 
L 116.16768 138.88968 
L 116.5248 94.075673 
L 116.88192 128.65652 
L 117.23904 136.499166 
L 117.59616 149.029999 
L 118.3104 105.414875 
L 118.66752 112.28438 
L 119.38176 97.643853 
L 119.73888 102.203199 
L 120.096 110.505648 
L 120.45312 112.724249 
L 120.81024 112.602861 
L 121.16736 102.081761 
L 121.52448 122.854852 
L 121.8816 80.496564 
L 122.23872 137.06181 
L 122.59584 113.082524 
L 122.95296 127.617561 
L 123.31008 100.086506 
L 123.6672 106.283806 
L 124.02432 123.965387 
L 124.38144 120.372847 
L 124.73856 123.136643 
L 125.09568 90.899626 
L 125.4528 123.475662 
L 125.80992 125.973624 
L 126.16704 116.949241 
L 126.52416 89.551224 
L 127.2384 121.282706 
L 127.59552 162.688273 
L 127.95264 115.905195 
L 128.30976 100.663781 
L 128.66688 110.065958 
L 129.024 111.201009 
L 129.38112 105.918626 
L 129.73824 96.5126 
L 130.09536 82.79749 
L 130.45248 74.172459 
L 130.8096 82.158997 
L 131.16672 100.636248 
L 131.52384 106.778656 
L 131.88096 108.398147 
L 132.23808 101.192202 
L 132.5952 101.938876 
L 132.95232 112.305449 
L 133.30944 98.864657 
L 133.66656 103.103803 
L 134.02368 151.776568 
L 134.3808 118.15852 
L 134.73792 102.159441 
L 135.09504 99.876369 
L 135.45216 105.659351 
L 135.80928 115.780025 
L 136.1664 98.711435 
L 136.52352 91.525676 
L 136.88064 100.292971 
L 137.23776 80.526404 
L 137.59488 111.105078 
L 137.952 92.703393 
L 138.30912 95.89805 
L 138.66624 101.563073 
L 139.02336 75.693229 
L 139.38048 102.66763 
L 139.7376 95.869762 
L 140.09472 118.613856 
L 140.45184 96.015186 
L 140.80896 82.455982 
L 141.16608 84.870402 
L 141.5232 106.262071 
L 141.88032 70.585742 
L 142.23744 105.822697 
L 142.59456 98.352772 
L 142.95168 103.406625 
L 143.3088 105.035158 
L 143.66592 103.995215 
L 144.02304 108.392022 
L 144.38016 91.918614 
L 144.73728 97.296201 
L 145.0944 118.730418 
L 145.45152 118.17104 
L 145.80864 106.631069 
L 146.16576 104.892972 
L 146.52288 127.756917 
L 146.88 87.481534 
L 147.23712 94.159782 
L 147.59424 124.2319 
L 147.95136 167.704522 
L 148.30848 107.965162 
L 148.6656 113.767529 
L 149.02272 84.585028 
L 149.37984 106.477197 
L 149.73696 118.613699 
L 150.09408 98.915554 
L 150.4512 90.080272 
L 150.80832 88.632698 
L 151.52256 112.770878 
L 151.87968 93.185473 
L 152.2368 142.055881 
L 152.59392 128.162742 
L 152.95104 133.691722 
L 153.30816 88.136802 
L 153.66528 90.593534 
L 154.0224 88.333482 
L 154.37952 88.108986 
L 154.73664 96.793402 
L 155.09376 93.980691 
L 155.45088 122.873854 
L 155.808 88.344568 
L 156.16512 118.304248 
L 156.52224 98.635434 
L 156.87936 111.338206 
L 157.23648 115.68719 
L 157.5936 95.59745 
L 157.95072 103.15304 
L 158.30784 102.108703 
L 158.66496 117.518183 
L 159.02208 114.326972 
L 159.3792 109.257112 
L 159.73632 138.44449 
L 160.09344 108.090595 
L 160.45056 95.086023 
L 160.80768 91.632579 
L 161.1648 118.171955 
L 161.52192 98.990978 
L 161.87904 132.021298 
L 162.23616 147.327605 
L 162.59328 102.680887 
L 162.9504 94.945889 
L 163.30752 140.987608 
L 163.66464 114.077616 
L 164.02176 115.734537 
L 164.37888 89.872343 
L 164.736 115.081324 
L 165.09312 97.634497 
L 165.45024 125.603988 
L 165.80736 95.890471 
L 166.16448 129.788965 
L 166.5216 108.327943 
L 166.87872 137.010432 
L 167.23584 121.309621 
L 167.59296 93.36072 
L 167.95008 114.055787 
L 168.66432 108.913123 
L 169.02144 103.020107 
L 169.37856 82.317574 
L 169.73568 110.622437 
L 170.0928 80.310589 
L 170.44992 122.184874 
L 170.80704 101.204847 
L 171.16416 136.315448 
L 171.52128 127.845183 
L 171.8784 111.662584 
L 172.23552 89.171329 
L 172.59264 138.528379 
L 172.94976 114.368271 
L 173.30688 125.63949 
L 173.664 100.630008 
L 174.02112 111.073331 
L 174.37824 134.909227 
L 174.73536 73.201303 
L 175.09248 92.38313 
L 175.4496 103.09937 
L 175.80672 102.620116 
L 176.16384 104.440113 
L 176.52096 110.833942 
L 176.87808 84.024556 
L 177.2352 93.260109 
L 177.59232 89.68794 
L 177.94944 114.986648 
L 178.30656 83.434949 
L 178.66368 72.31445 
L 179.0208 97.087168 
L 179.37792 83.736976 
L 179.73504 118.97268 
L 180.09216 112.487218 
L 180.44928 111.809273 
L 181.16352 82.840196 
L 181.52064 80.633088 
L 181.87776 97.772848 
L 182.23488 106.174792 
L 182.592 124.137097 
L 182.94912 96.011592 
L 183.30624 94.183841 
L 183.66336 93.466123 
L 184.02048 94.942411 
L 184.3776 116.885239 
L 184.73472 91.601694 
L 185.80608 127.045036 
L 186.1632 100.274784 
L 186.52032 91.698794 
L 186.87744 102.056003 
L 187.23456 90.517488 
L 187.59168 101.265181 
L 187.9488 76.304537 
L 188.30592 87.415227 
L 188.66304 91.79288 
L 189.02016 82.054558 
L 189.37728 90.641278 
L 189.7344 87.463074 
L 190.09152 119.946375 
L 190.44864 98.269618 
L 190.80576 87.960791 
L 191.16288 123.900562 
L 191.52 91.50596 
L 191.87712 101.113831 
L 192.23424 103.351389 
L 192.59136 87.767024 
L 192.94848 100.964135 
L 193.66272 63.648 
L 194.01984 114.189136 
L 194.37696 117.510751 
L 194.73408 77.577536 
L 195.0912 78.303347 
L 195.44832 88.959107 
L 195.80544 71.487814 
L 196.16256 72.085316 
L 196.51968 73.624215 
L 196.8768 79.351007 
L 197.23392 72.361608 
L 197.59104 79.048719 
L 197.94816 100.721108 
L 198.30528 86.44548 
L 198.6624 102.282107 
L 199.01952 78.187098 
L 199.37664 94.753333 
L 199.73376 67.899287 
L 200.09088 86.440905 
L 200.448 69.395592 
L 200.80512 81.513315 
L 201.16224 82.365272 
L 201.51936 81.578463 
L 201.87648 76.44796 
L 202.2336 90.146006 
L 202.59072 73.401463 
L 202.94784 79.178573 
L 203.30496 64.817716 
L 203.66208 86.110326 
L 204.0192 122.723101 
L 204.37632 87.883966 
L 204.73344 81.212971 
L 205.09056 87.457108 
L 205.44768 86.863695 
L 205.8048 109.259438 
L 206.16192 89.600567 
L 206.51904 107.474048 
L 206.87616 94.37991 
L 207.23328 98.089313 
L 207.5904 119.966381 
L 207.94752 97.218104 
L 208.30464 114.531523 
L 208.66176 66.949751 
L 209.01888 113.643409 
L 209.376 117.990003 
L 209.73312 75.527527 
L 210.09024 70.520348 
L 211.1616 98.468101 
L 211.51872 68.923302 
L 211.87584 68.40167 
L 212.23296 105.456054 
L 212.59008 69.971044 
L 212.9472 87.779055 
L 213.30432 145.593411 
L 213.66144 137.927319 
L 214.01856 93.484829 
L 214.37568 76.320158 
L 214.7328 70.385629 
L 215.08992 102.517088 
L 215.44704 86.290441 
L 215.80416 109.12532 
L 216.16128 82.6038 
L 216.5184 89.027986 
L 216.87552 106.76931 
L 217.23264 114.343706 
L 217.58976 125.57137 
L 217.94688 89.701006 
L 218.304 123.989147 
L 218.66112 134.764412 
L 219.01824 104.170884 
L 219.37536 119.795179 
L 219.73248 100.978832 
L 220.0896 90.567023 
L 220.44672 110.34045 
L 220.80384 108.220906 
L 221.16096 99.58661 
L 221.51808 136.142577 
L 221.8752 119.345656 
L 222.23232 114.459579 
L 222.58944 132.625192 
L 222.94656 103.136087 
L 223.30368 123.862481 
L 223.6608 120.571967 
L 224.01792 125.021745 
L 224.37504 134.285023 
L 224.73216 167.409347 
L 225.08928 106.122073 
L 225.4464 106.212804 
L 225.80352 108.892517 
L 226.16064 186.174645 
L 226.51776 110.072165 
L 226.87488 115.176182 
L 227.232 172.825363 
L 227.94624 102.774346 
L 228.30336 144.548196 
L 228.66048 164.360336 
L 229.0176 122.157713 
L 229.37472 153.988966 
L 229.73184 155.746392 
L 230.08896 156.621314 
L 230.44608 126.547161 
L 230.8032 163.660468 
L 231.51744 140.749108 
L 231.87456 147.234223 
L 232.23168 147.471921 
L 232.5888 135.723302 
L 232.94592 135.126897 
L 233.30304 171.433223 
L 233.66016 138.647593 
L 234.01728 148.8288 
L 234.3744 135.006911 
L 234.73152 155.214233 
L 235.08864 134.115557 
L 235.44576 146.262655 
L 235.80288 191.565287 
L 236.16 166.049675 
L 236.87424 138.350948 
L 237.23136 115.493946 
L 237.9456 169.049781 
L 238.30272 184.036666 
L 238.65984 122.328068 
L 239.01696 122.171381 
L 239.37408 158.312116 
L 239.7312 170.452032 
L 240.08832 222.825876 
L 240.44544 171.20774 
L 240.80256 178.412387 
L 241.15968 118.387001 
L 241.87392 155.368024 
L 242.23104 112.284387 
L 242.58816 146.570965 
L 242.94528 161.987556 
L 243.3024 107.675827 
L 243.65952 159.810761 
L 244.01664 163.844865 
L 244.37376 147.00013 
L 244.73088 143.386285 
L 245.088 149.342878 
L 245.44512 124.630267 
L 245.80224 165.610193 
L 246.15936 128.940978 
L 246.51648 135.882125 
L 246.8736 160.386578 
L 247.23072 137.046929 
L 247.58784 149.768954 
L 247.94496 141.566519 
L 248.30208 154.987337 
L 248.6592 146.068822 
L 249.01632 165.856204 
L 249.37344 112.669644 
L 249.73056 139.047523 
L 250.08768 155.548745 
L 250.4448 152.897543 
L 250.80192 177.314856 
L 251.15904 112.969878 
L 251.51616 138.303244 
L 252.2304 205.596563 
L 252.58752 153.244903 
L 252.94464 171.836425 
L 253.30176 166.019045 
L 253.65888 133.265993 
L 254.016 154.992222 
L 254.37312 162.199734 
L 254.73024 213.303209 
L 255.44448 170.696147 
L 255.8016 140.748272 
L 256.15872 138.359728 
L 256.51584 170.136709 
L 256.87296 184.907436 
L 257.23008 173.037711 
L 257.5872 145.159661 
L 257.94432 150.012641 
L 258.30144 157.81906 
L 258.65856 136.786965 
L 259.01568 197.827805 
L 259.3728 179.824785 
L 259.72992 171.119571 
L 260.08704 197.264952 
L 260.80128 134.718637 
L 261.1584 156.951449 
L 261.51552 187.955999 
L 261.87264 157.557189 
L 262.22976 157.522323 
L 262.58688 122.115671 
L 262.944 140.160582 
L 263.30112 142.174684 
L 263.65824 156.466209 
L 264.01536 130.430362 
L 264.37248 195.347261 
L 264.7296 148.067079 
L 265.08672 139.384733 
L 265.44384 187.051409 
L 265.80096 168.683036 
L 266.15808 133.880663 
L 266.5152 147.74035 
L 266.87232 191.804735 
L 267.22944 164.548963 
L 267.58656 101.049596 
L 267.94368 129.761163 
L 268.3008 123.540676 
L 268.65792 138.362132 
L 269.01504 115.542275 
L 269.72928 190.437988 
L 270.0864 108.691521 
L 270.80064 213.85995 
L 271.15776 126.217904 
L 271.51488 196.562529 
L 271.872 171.92667 
L 272.22912 184.084536 
L 272.58624 126.782315 
L 272.94336 171.716163 
L 273.30048 128.725832 
L 273.6576 149.089501 
L 274.01472 198.124173 
L 274.37184 171.02986 
L 274.72896 155.185421 
L 275.08608 209.881699 
L 275.4432 168.687718 
L 275.80032 179.626598 
L 276.15744 161.173958 
L 276.51456 179.098745 
L 276.87168 172.820781 
L 277.2288 162.343505 
L 277.58592 170.55548 
L 277.94304 163.5025 
L 278.65728 124.10803 
L 279.0144 153.927011 
L 279.37152 151.312838 
L 279.72864 168.035824 
L 280.08576 248.35548 
L 280.44288 156.544292 
L 280.8 189.48779 
L 281.15712 119.462902 
L 281.51424 176.22364 
L 281.87136 111.020617 
L 282.22848 154.645034 
L 282.5856 178.682307 
L 282.94272 130.491385 
L 283.65696 193.825734 
L 284.01408 209.785711 
L 284.3712 172.442114 
L 284.72832 165.794545 
L 285.08544 118.988146 
L 285.44256 148.117024 
L 285.79968 165.528467 
L 286.1568 158.763075 
L 286.51392 155.109851 
L 286.87104 117.212312 
L 287.22816 170.411472 
L 287.9424 148.700225 
L 288.29952 131.964553 
L 288.65664 201.431171 
L 289.01376 190.269751 
L 289.37088 169.580015 
L 289.728 184.521242 
L 290.08512 159.085795 
L 290.44224 100.55018 
L 290.79936 167.869609 
L 291.15648 131.302511 
L 291.5136 147.905372 
L 291.87072 198.843871 
L 292.22784 139.169897 
L 292.58496 192.628432 
L 292.94208 175.126313 
L 293.2992 142.422217 
L 293.65632 146.642399 
L 294.01344 154.87798 
L 294.37056 119.343662 
L 294.72768 163.710032 
L 295.0848 148.857385 
L 295.44192 162.574687 
L 295.79904 197.734385 
L 296.15616 168.298568 
L 296.51328 184.778155 
L 296.8704 152.766877 
L 297.22752 138.522895 
L 297.58464 139.99835 
L 297.94176 165.341928 
L 298.29888 152.197142 
L 298.656 161.742659 
L 299.01312 193.395119 
L 299.37024 177.380575 
L 299.72736 198.083221 
L 300.08448 156.432042 
L 300.79872 191.913223 
L 301.15584 150.056171 
L 301.51296 138.570458 
L 301.87008 149.045216 
L 302.2272 214.967493 
L 302.58432 131.598596 
L 302.94144 135.032071 
L 303.29856 216.550392 
L 303.65568 170.527229 
L 304.0128 149.066186 
L 304.36992 179.386948 
L 304.72704 149.691101 
L 305.08416 215.083268 
L 305.44128 142.568904 
L 305.7984 146.846281 
L 306.15552 158.585798 
L 306.51264 163.615577 
L 306.86976 192.240806 
L 307.22688 187.082131 
L 307.584 157.189397 
L 307.94112 183.130099 
L 308.29824 133.024962 
L 308.65536 125.075286 
L 309.01248 210.07145 
L 309.3696 134.15381 
L 309.72672 193.341011 
L 310.08384 141.469221 
L 310.44096 221.908693 
L 310.79808 118.697638 
L 311.1552 143.797996 
L 311.51232 204.305844 
L 311.86944 190.89235 
L 312.22656 167.088136 
L 312.58368 285.408 
L 312.9408 140.957767 
L 313.29792 114.01247 
L 313.65504 198.400363 
L 314.01216 166.38417 
L 314.36928 165.793486 
L 314.7264 158.2331 
L 315.08352 212.355052 
L 315.44064 129.460146 
L 315.79776 138.970478 
L 316.15488 235.964278 
L 316.512 212.906524 
L 316.86912 146.437081 
L 317.22624 174.593065 
L 317.58336 97.030245 
L 317.94048 182.535616 
L 318.2976 181.571643 
L 318.65472 150.702517 
L 319.01184 172.545767 
L 319.36896 159.532853 
L 319.72608 150.909331 
L 320.0832 165.042456 
L 320.44032 202.645169 
L 320.79744 113.60382 
L 321.15456 155.136071 
L 321.51168 183.615633 
L 321.8688 133.959996 
L 322.22592 256.745763 
L 322.58304 125.959314 
L 322.94016 109.220572 
L 323.29728 123.282792 
L 323.6544 161.393396 
L 324.01152 280.250633 
L 324.36864 151.532778 
L 324.72576 236.954571 
L 325.08288 123.122305 
L 325.44 239.432004 
L 325.79712 142.489884 
L 326.15424 151.616276 
L 326.86848 139.617532 
L 327.2256 176.93687 
L 327.58272 163.321334 
L 327.93984 124.946975 
L 328.29696 190.336202 
L 328.65408 185.834404 
L 329.0112 168.60637 
L 329.36832 191.136971 
L 329.72544 129.856241 
L 330.08256 175.354803 
L 330.43968 136.171271 
L 330.7968 203.697515 
L 331.15392 172.552676 
L 331.51104 203.545014 
L 332.22528 109.000124 
L 332.5824 141.090092 
L 332.93952 129.016735 
L 333.29664 158.639912 
L 333.65376 130.996037 
L 334.01088 123.861144 
L 334.72512 182.793794 
L 335.08224 159.774691 
L 335.43936 168.757507 
L 335.79648 151.781284 
L 336.1536 203.334519 
L 336.86784 171.422848 
L 337.22496 188.73251 
L 337.9392 162.422546 
L 338.29632 155.922363 
L 338.65344 157.400182 
L 339.01056 232.793935 
L 339.36768 212.705553 
L 339.7248 184.385874 
L 340.08192 199.983563 
L 340.43904 165.071261 
L 340.79616 181.393624 
L 341.15328 149.043359 
L 341.5104 169.71259 
L 341.86752 224.930653 
L 342.22464 95.491043 
L 342.58176 165.912228 
L 342.93888 198.992166 
L 343.296 122.082536 
L 343.65312 180.21104 
L 344.01024 186.302463 
L 344.36736 123.633649 
L 344.72448 142.222603 
L 345.0816 166.703215 
L 345.43872 119.551455 
L 345.79584 150.389892 
L 346.15296 265.568732 
L 346.51008 160.86579 
L 346.8672 128.897923 
L 347.58144 179.417662 
L 347.93856 224.291632 
L 348.29568 134.244525 
L 348.6528 195.573239 
L 349.00992 127.36769 
L 349.36704 232.99219 
L 349.72416 220.511054 
L 350.08128 126.030484 
L 350.4384 187.166253 
L 350.79552 162.337666 
L 351.15264 182.358025 
L 351.50976 209.235395 
L 351.86688 151.883949 
L 352.224 166.585475 
L 352.58112 196.423222 
L 352.93824 173.252765 
L 353.29536 124.641726 
L 353.65248 136.993699 
L 354.0096 159.632959 
L 354.36672 166.289803 
L 354.72384 144.674834 
L 355.08096 138.268709 
L 355.43808 116.821971 
L 356.15232 200.300724 
L 356.50944 133.513961 
L 356.86656 183.486868 
L 357.22368 176.405786 
L 357.5808 172.619318 
L 357.93792 136.839654 
L 358.29504 116.137715 
L 359.00928 201.148862 
L 359.3664 132.769133 
L 359.72352 193.694639 
L 360.08064 147.813168 
L 360.43776 129.816294 
L 360.79488 174.999266 
L 361.152 173.138563 
L 361.50912 174.615804 
L 361.86624 149.187619 
L 362.22336 141.583575 
L 362.58048 169.044686 
L 362.9376 158.179388 
L 363.29472 185.382012 
L 363.65184 201.619011 
L 364.00896 118.501692 
L 364.36608 184.616754 
L 364.7232 162.38903 
L 365.08032 158.589066 
L 365.43744 204.719492 
L 365.79456 156.349797 
L 366.15168 166.005548 
L 366.5088 167.516129 
L 366.86592 128.727947 
L 367.58016 150.365014 
L 367.93728 172.544235 
L 368.2944 130.929315 
L 368.65152 187.993361 
L 369.00864 117.438147 
L 369.36576 175.145452 
L 369.72288 162.022522 
L 370.08 204.708702 
L 370.43712 226.486083 
L 370.79424 213.22888 
L 371.15136 174.881676 
L 371.50848 172.617016 
L 371.8656 176.977668 
L 372.22272 183.186716 
L 372.57984 139.009181 
L 372.93696 182.853717 
L 373.29408 170.873899 
L 373.6512 179.427386 
L 374.00832 158.593683 
L 374.36544 208.456077 
L 374.72256 148.505198 
L 375.07968 149.054461 
L 375.4368 213.630018 
L 375.79392 254.169143 
L 376.50816 121.302829 
L 376.86528 236.069458 
L 377.2224 162.040934 
L 377.57952 153.830205 
L 377.93664 154.54539 
L 378.29376 173.215228 
L 378.65088 136.707813 
L 379.008 192.033101 
L 379.36512 137.972262 
L 379.72224 156.072556 
L 380.07936 194.089828 
L 380.43648 164.637593 
L 380.7936 231.498558 
L 381.15072 172.264082 
L 381.50784 172.772278 
L 381.86496 206.990265 
L 382.22208 119.169857 
L 382.5792 141.203646 
L 382.93632 182.561945 
L 383.29344 148.315853 
L 383.65056 140.746006 
L 384.00768 190.96208 
L 384.3648 149.088077 
L 384.72192 204.784594 
L 385.07904 201.844319 
L 385.43616 171.90253 
L 385.79328 223.218748 
L 386.1504 186.728446 
L 386.86464 156.880888 
L 387.22176 202.517451 
L 387.57888 134.513705 
L 387.936 177.987066 
L 388.29312 158.178992 
L 388.65024 177.187088 
L 389.00736 183.063463 
L 389.36448 227.264253 
L 389.7216 164.894887 
L 390.07872 126.287241 
L 390.43584 151.570406 
L 390.79296 130.789755 
L 391.15008 135.525723 
L 391.5072 138.499617 
L 391.86432 139.484986 
L 392.22144 132.483458 
L 392.57856 178.694336 
L 392.93568 118.195463 
L 393.2928 186.954238 
L 393.64992 161.978851 
L 394.00704 157.597911 
L 394.36416 218.036922 
L 394.72128 161.871841 
L 395.43552 144.005232 
L 395.79264 186.461823 
L 396.14976 182.457776 
L 396.50688 165.390059 
L 396.864 142.292245 
L 397.22112 172.912581 
L 397.57824 140.24628 
L 397.93536 128.907484 
L 398.29248 135.543343 
L 398.6496 168.59781 
L 399.36384 146.638049 
L 399.72096 167.878375 
L 400.07808 201.422306 
L 400.4352 191.752639 
L 400.79232 168.855213 
L 401.14944 161.732787 
L 401.50656 266.253379 
L 401.86368 116.95018 
L 402.2208 171.741403 
L 402.57792 176.760395 
L 402.93504 146.480901 
L 403.29216 174.28256 
L 403.64928 244.587941 
L 404.0064 158.739483 
L 404.36352 176.94117 
L 404.72064 136.213353 
L 405.07776 147.975507 
L 405.43488 212.650696 
L 405.792 199.254576 
L 406.14912 202.633723 
L 406.50624 192.62468 
L 406.86336 162.968738 
L 407.22048 164.35026 
L 407.5776 214.648281 
L 407.93472 147.733828 
L 408.29184 139.612355 
L 409.00608 195.372895 
L 409.3632 137.323241 
L 410.07744 214.210991 
L 410.43456 113.420253 
L 410.79168 181.337129 
L 411.1488 151.378577 
L 411.50592 153.228871 
L 411.86304 146.799042 
L 412.22016 165.806049 
L 412.57728 246.356566 
L 412.9344 207.539877 
L 413.29152 137.098333 
L 414.00576 197.206358 
L 414.36288 140.480282 
L 414.36288 140.480282 
" style="fill:none;stroke:#0000ff;stroke-linecap:square;stroke-width:1.5;"/>
   </g>
   <g id="patch_3">
    <path d="M 57.6 307.584 
L 57.6 41.472 
" style="fill:none;stroke:#000000;stroke-linecap:square;stroke-linejoin:miter;stroke-width:0.8;"/>
   </g>
   <g id="patch_4">
    <path d="M 414.72 307.584 
L 414.72 41.472 
" style="fill:none;stroke:#000000;stroke-linecap:square;stroke-linejoin:miter;stroke-width:0.8;"/>
   </g>
   <g id="patch_5">
    <path d="M 57.6 307.584 
L 414.72 307.584 
" style="fill:none;stroke:#000000;stroke-linecap:square;stroke-linejoin:miter;stroke-width:0.8;"/>
   </g>
   <g id="patch_6">
    <path d="M 57.6 41.472 
L 414.72 41.472 
" style="fill:none;stroke:#000000;stroke-linecap:square;stroke-linejoin:miter;stroke-width:0.8;"/>
   </g>
   <g id="legend_1">
    <g id="patch_7">
     <path d="M 282.321563 64.150125 
L 407.72 64.150125 
Q 409.72 64.150125 409.72 62.150125 
L 409.72 48.472 
Q 409.72 46.472 407.72 46.472 
L 282.321563 46.472 
Q 280.321563 46.472 280.321563 48.472 
L 280.321563 62.150125 
Q 280.321563 64.150125 282.321563 64.150125 
z
" style="fill:#ffffff;opacity:0.8;stroke:#cccccc;stroke-linejoin:miter;"/>
    </g>
    <g id="line2d_24">
     <path d="M 284.321563 54.570438 
L 304.321563 54.570438 
" style="fill:none;stroke:#0000ff;stroke-linecap:square;stroke-width:1.5;"/>
    </g>
    <g id="line2d_25"/>
    <g id="text_14">
     <!-- cumulative reward -->
     <g transform="translate(312.321563 58.070438)scale(0.1 -0.1)">
      <defs>
       <path d="M 3122 3366 
L 3122 2828 
Q 2878 2963 2633 3030 
Q 2388 3097 2138 3097 
Q 1578 3097 1268 2742 
Q 959 2388 959 1747 
Q 959 1106 1268 751 
Q 1578 397 2138 397 
Q 2388 397 2633 464 
Q 2878 531 3122 666 
L 3122 134 
Q 2881 22 2623 -34 
Q 2366 -91 2075 -91 
Q 1284 -91 818 406 
Q 353 903 353 1747 
Q 353 2603 823 3093 
Q 1294 3584 2113 3584 
Q 2378 3584 2631 3529 
Q 2884 3475 3122 3366 
z
" id="DejaVuSans-63" transform="scale(0.015625)"/>
      </defs>
      <use xlink:href="#DejaVuSans-63"/>
      <use x="54.980469" xlink:href="#DejaVuSans-75"/>
      <use x="118.359375" xlink:href="#DejaVuSans-6d"/>
      <use x="215.771484" xlink:href="#DejaVuSans-75"/>
      <use x="279.150391" xlink:href="#DejaVuSans-6c"/>
      <use x="306.933594" xlink:href="#DejaVuSans-61"/>
      <use x="368.212891" xlink:href="#DejaVuSans-74"/>
      <use x="407.421875" xlink:href="#DejaVuSans-69"/>
      <use x="435.205078" xlink:href="#DejaVuSans-76"/>
      <use x="494.384766" xlink:href="#DejaVuSans-65"/>
      <use x="555.908203" xlink:href="#DejaVuSans-20"/>
      <use x="587.695312" xlink:href="#DejaVuSans-72"/>
      <use x="626.558594" xlink:href="#DejaVuSans-65"/>
      <use x="688.082031" xlink:href="#DejaVuSans-77"/>
      <use x="769.869141" xlink:href="#DejaVuSans-61"/>
      <use x="831.148438" xlink:href="#DejaVuSans-72"/>
      <use x="870.511719" xlink:href="#DejaVuSans-64"/>
     </g>
    </g>
   </g>
  </g>
 </g>
 <defs>
  <clipPath id="p1a8755522f">
   <rect height="266.112" width="357.12" x="57.6" y="41.472"/>
  </clipPath>
 </defs>
</svg>
