<?xml version="1.0" encoding="utf-8" standalone="no"?>
<!DOCTYPE svg PUBLIC "-//W3C//DTD SVG 1.1//EN"
  "http://www.w3.org/Graphics/SVG/1.1/DTD/svg11.dtd">
<svg height="345.6pt" version="1.1" viewBox="0 0 460.8 345.6" width="460.8pt" xmlns="http://www.w3.org/2000/svg" xmlns:xlink="http://www.w3.org/1999/xlink">
 <metadata>
  <rdf:RDF xmlns:cc="http://creativecommons.org/ns#" xmlns:dc="http://purl.org/dc/elements/1.1/" xmlns:rdf="http://www.w3.org/1999/02/22-rdf-syntax-ns#">
   <cc:Work>
    <dc:type rdf:resource="http://purl.org/dc/dcmitype/StillImage"/>
    <dc:date>2021-10-27T12:34:02.609958</dc:date>
    <dc:description>{"agent.algorithm": "RayProximalPolicyOptimization", "agent.algorithm.render_env": false, "agent.algorithm.num_workers": 0, "agent.algorithm.batch_mode": "complete_episodes", "agent.algorithm.train_batch_size": 200, "agent.algorithm.optimizer": "Adam", "agent.algorithm.vf_clip_param": 100, "agent.algorithm.model": {"fcnet_activation": "tanh", "fcnet_hiddens": [50, 50]}, "env.env_class": "SchedulerPolicyRayEnvironment", "env.env_config": {"solver_driver": "CMAdriver", "solver_driver_args": [10, 10, 15, 0.1], "maximize": false, "steps": 50, "state_metrics_names": ["DifferenceOfBest", "SolverStateHistory", "SolverState"], "state_metrics_config": [[40, false, 1, true], [{"step_size": {"max": 3, "min": 0}}, 40], [{"ps": {"max": 10, "min": -10}}]], "reward_metric": "Best", "reward_metric_config": [false, false], "memes_no": 1, "action_space_config": {"step_size": {"max": 3, "min": 1e-10}}}}</dc:description>
    <dc:format>image/svg+xml</dc:format>
    <dc:creator>
     <cc:Agent>
      <dc:title>Matplotlib v3.4.3, https://matplotlib.org/</dc:title>
     </cc:Agent>
    </dc:creator>
   </cc:Work>
  </rdf:RDF>
 </metadata>
 <defs>
  <style type="text/css">*{stroke-linecap:butt;stroke-linejoin:round;}</style>
 </defs>
 <g id="figure_1">
  <g id="patch_1">
   <path d="M 0 345.6 
L 460.8 345.6 
L 460.8 0 
L 0 0 
z
" style="fill:#ffffff;"/>
  </g>
  <g id="axes_1">
   <g id="patch_2">
    <path d="M 57.6 307.584 
L 414.72 307.584 
L 414.72 41.472 
L 57.6 41.472 
z
" style="fill:#ffffff;"/>
   </g>
   <g id="matplotlib.axis_1">
    <g id="xtick_1">
     <g id="line2d_1">
      <path clip-path="url(#pd11281bfd3)" d="M 57.6 307.584 
L 57.6 41.472 
" style="fill:none;stroke:#b0b0b0;stroke-linecap:square;stroke-width:0.8;"/>
     </g>
     <g id="line2d_2">
      <defs>
       <path d="M 0 0 
L 0 3.5 
" id="m2d5deb7f11" style="stroke:#000000;stroke-width:0.8;"/>
      </defs>
      <g>
       <use style="stroke:#000000;stroke-width:0.8;" x="57.6" xlink:href="#m2d5deb7f11" y="307.584"/>
      </g>
     </g>
     <g id="text_1">
      <!-- 0 -->
      <g transform="translate(54.41875 322.182437)scale(0.1 -0.1)">
       <defs>
        <path d="M 2034 4250 
Q 1547 4250 1301 3770 
Q 1056 3291 1056 2328 
Q 1056 1369 1301 889 
Q 1547 409 2034 409 
Q 2525 409 2770 889 
Q 3016 1369 3016 2328 
Q 3016 3291 2770 3770 
Q 2525 4250 2034 4250 
z
M 2034 4750 
Q 2819 4750 3233 4129 
Q 3647 3509 3647 2328 
Q 3647 1150 3233 529 
Q 2819 -91 2034 -91 
Q 1250 -91 836 529 
Q 422 1150 422 2328 
Q 422 3509 836 4129 
Q 1250 4750 2034 4750 
z
" id="DejaVuSans-30" transform="scale(0.015625)"/>
       </defs>
       <use xlink:href="#DejaVuSans-30"/>
      </g>
     </g>
    </g>
    <g id="xtick_2">
     <g id="line2d_3">
      <path clip-path="url(#pd11281bfd3)" d="M 117.12 307.584 
L 117.12 41.472 
" style="fill:none;stroke:#b0b0b0;stroke-linecap:square;stroke-width:0.8;"/>
     </g>
     <g id="line2d_4">
      <g>
       <use style="stroke:#000000;stroke-width:0.8;" x="117.12" xlink:href="#m2d5deb7f11" y="307.584"/>
      </g>
     </g>
     <g id="text_2">
      <!-- 500 -->
      <g transform="translate(107.57625 322.182437)scale(0.1 -0.1)">
       <defs>
        <path d="M 691 4666 
L 3169 4666 
L 3169 4134 
L 1269 4134 
L 1269 2991 
Q 1406 3038 1543 3061 
Q 1681 3084 1819 3084 
Q 2600 3084 3056 2656 
Q 3513 2228 3513 1497 
Q 3513 744 3044 326 
Q 2575 -91 1722 -91 
Q 1428 -91 1123 -41 
Q 819 9 494 109 
L 494 744 
Q 775 591 1075 516 
Q 1375 441 1709 441 
Q 2250 441 2565 725 
Q 2881 1009 2881 1497 
Q 2881 1984 2565 2268 
Q 2250 2553 1709 2553 
Q 1456 2553 1204 2497 
Q 953 2441 691 2322 
L 691 4666 
z
" id="DejaVuSans-35" transform="scale(0.015625)"/>
       </defs>
       <use xlink:href="#DejaVuSans-35"/>
       <use x="63.623047" xlink:href="#DejaVuSans-30"/>
       <use x="127.246094" xlink:href="#DejaVuSans-30"/>
      </g>
     </g>
    </g>
    <g id="xtick_3">
     <g id="line2d_5">
      <path clip-path="url(#pd11281bfd3)" d="M 176.64 307.584 
L 176.64 41.472 
" style="fill:none;stroke:#b0b0b0;stroke-linecap:square;stroke-width:0.8;"/>
     </g>
     <g id="line2d_6">
      <g>
       <use style="stroke:#000000;stroke-width:0.8;" x="176.64" xlink:href="#m2d5deb7f11" y="307.584"/>
      </g>
     </g>
     <g id="text_3">
      <!-- 1000 -->
      <g transform="translate(163.915 322.182437)scale(0.1 -0.1)">
       <defs>
        <path d="M 794 531 
L 1825 531 
L 1825 4091 
L 703 3866 
L 703 4441 
L 1819 4666 
L 2450 4666 
L 2450 531 
L 3481 531 
L 3481 0 
L 794 0 
L 794 531 
z
" id="DejaVuSans-31" transform="scale(0.015625)"/>
       </defs>
       <use xlink:href="#DejaVuSans-31"/>
       <use x="63.623047" xlink:href="#DejaVuSans-30"/>
       <use x="127.246094" xlink:href="#DejaVuSans-30"/>
       <use x="190.869141" xlink:href="#DejaVuSans-30"/>
      </g>
     </g>
    </g>
    <g id="xtick_4">
     <g id="line2d_7">
      <path clip-path="url(#pd11281bfd3)" d="M 236.16 307.584 
L 236.16 41.472 
" style="fill:none;stroke:#b0b0b0;stroke-linecap:square;stroke-width:0.8;"/>
     </g>
     <g id="line2d_8">
      <g>
       <use style="stroke:#000000;stroke-width:0.8;" x="236.16" xlink:href="#m2d5deb7f11" y="307.584"/>
      </g>
     </g>
     <g id="text_4">
      <!-- 1500 -->
      <g transform="translate(223.435 322.182437)scale(0.1 -0.1)">
       <use xlink:href="#DejaVuSans-31"/>
       <use x="63.623047" xlink:href="#DejaVuSans-35"/>
       <use x="127.246094" xlink:href="#DejaVuSans-30"/>
       <use x="190.869141" xlink:href="#DejaVuSans-30"/>
      </g>
     </g>
    </g>
    <g id="xtick_5">
     <g id="line2d_9">
      <path clip-path="url(#pd11281bfd3)" d="M 295.68 307.584 
L 295.68 41.472 
" style="fill:none;stroke:#b0b0b0;stroke-linecap:square;stroke-width:0.8;"/>
     </g>
     <g id="line2d_10">
      <g>
       <use style="stroke:#000000;stroke-width:0.8;" x="295.68" xlink:href="#m2d5deb7f11" y="307.584"/>
      </g>
     </g>
     <g id="text_5">
      <!-- 2000 -->
      <g transform="translate(282.955 322.182437)scale(0.1 -0.1)">
       <defs>
        <path d="M 1228 531 
L 3431 531 
L 3431 0 
L 469 0 
L 469 531 
Q 828 903 1448 1529 
Q 2069 2156 2228 2338 
Q 2531 2678 2651 2914 
Q 2772 3150 2772 3378 
Q 2772 3750 2511 3984 
Q 2250 4219 1831 4219 
Q 1534 4219 1204 4116 
Q 875 4013 500 3803 
L 500 4441 
Q 881 4594 1212 4672 
Q 1544 4750 1819 4750 
Q 2544 4750 2975 4387 
Q 3406 4025 3406 3419 
Q 3406 3131 3298 2873 
Q 3191 2616 2906 2266 
Q 2828 2175 2409 1742 
Q 1991 1309 1228 531 
z
" id="DejaVuSans-32" transform="scale(0.015625)"/>
       </defs>
       <use xlink:href="#DejaVuSans-32"/>
       <use x="63.623047" xlink:href="#DejaVuSans-30"/>
       <use x="127.246094" xlink:href="#DejaVuSans-30"/>
       <use x="190.869141" xlink:href="#DejaVuSans-30"/>
      </g>
     </g>
    </g>
    <g id="xtick_6">
     <g id="line2d_11">
      <path clip-path="url(#pd11281bfd3)" d="M 355.2 307.584 
L 355.2 41.472 
" style="fill:none;stroke:#b0b0b0;stroke-linecap:square;stroke-width:0.8;"/>
     </g>
     <g id="line2d_12">
      <g>
       <use style="stroke:#000000;stroke-width:0.8;" x="355.2" xlink:href="#m2d5deb7f11" y="307.584"/>
      </g>
     </g>
     <g id="text_6">
      <!-- 2500 -->
      <g transform="translate(342.475 322.182437)scale(0.1 -0.1)">
       <use xlink:href="#DejaVuSans-32"/>
       <use x="63.623047" xlink:href="#DejaVuSans-35"/>
       <use x="127.246094" xlink:href="#DejaVuSans-30"/>
       <use x="190.869141" xlink:href="#DejaVuSans-30"/>
      </g>
     </g>
    </g>
    <g id="xtick_7">
     <g id="line2d_13">
      <path clip-path="url(#pd11281bfd3)" d="M 414.72 307.584 
L 414.72 41.472 
" style="fill:none;stroke:#b0b0b0;stroke-linecap:square;stroke-width:0.8;"/>
     </g>
     <g id="line2d_14">
      <g>
       <use style="stroke:#000000;stroke-width:0.8;" x="414.72" xlink:href="#m2d5deb7f11" y="307.584"/>
      </g>
     </g>
     <g id="text_7">
      <!-- 3000 -->
      <g transform="translate(401.995 322.182437)scale(0.1 -0.1)">
       <defs>
        <path d="M 2597 2516 
Q 3050 2419 3304 2112 
Q 3559 1806 3559 1356 
Q 3559 666 3084 287 
Q 2609 -91 1734 -91 
Q 1441 -91 1130 -33 
Q 819 25 488 141 
L 488 750 
Q 750 597 1062 519 
Q 1375 441 1716 441 
Q 2309 441 2620 675 
Q 2931 909 2931 1356 
Q 2931 1769 2642 2001 
Q 2353 2234 1838 2234 
L 1294 2234 
L 1294 2753 
L 1863 2753 
Q 2328 2753 2575 2939 
Q 2822 3125 2822 3475 
Q 2822 3834 2567 4026 
Q 2313 4219 1838 4219 
Q 1578 4219 1281 4162 
Q 984 4106 628 3988 
L 628 4550 
Q 988 4650 1302 4700 
Q 1616 4750 1894 4750 
Q 2613 4750 3031 4423 
Q 3450 4097 3450 3541 
Q 3450 3153 3228 2886 
Q 3006 2619 2597 2516 
z
" id="DejaVuSans-33" transform="scale(0.015625)"/>
       </defs>
       <use xlink:href="#DejaVuSans-33"/>
       <use x="63.623047" xlink:href="#DejaVuSans-30"/>
       <use x="127.246094" xlink:href="#DejaVuSans-30"/>
       <use x="190.869141" xlink:href="#DejaVuSans-30"/>
      </g>
     </g>
    </g>
    <g id="text_8">
     <!-- Episodes -->
     <g transform="translate(213.917812 335.860562)scale(0.1 -0.1)">
      <defs>
       <path d="M 628 4666 
L 3578 4666 
L 3578 4134 
L 1259 4134 
L 1259 2753 
L 3481 2753 
L 3481 2222 
L 1259 2222 
L 1259 531 
L 3634 531 
L 3634 0 
L 628 0 
L 628 4666 
z
" id="DejaVuSans-45" transform="scale(0.015625)"/>
       <path d="M 1159 525 
L 1159 -1331 
L 581 -1331 
L 581 3500 
L 1159 3500 
L 1159 2969 
Q 1341 3281 1617 3432 
Q 1894 3584 2278 3584 
Q 2916 3584 3314 3078 
Q 3713 2572 3713 1747 
Q 3713 922 3314 415 
Q 2916 -91 2278 -91 
Q 1894 -91 1617 61 
Q 1341 213 1159 525 
z
M 3116 1747 
Q 3116 2381 2855 2742 
Q 2594 3103 2138 3103 
Q 1681 3103 1420 2742 
Q 1159 2381 1159 1747 
Q 1159 1113 1420 752 
Q 1681 391 2138 391 
Q 2594 391 2855 752 
Q 3116 1113 3116 1747 
z
" id="DejaVuSans-70" transform="scale(0.015625)"/>
       <path d="M 603 3500 
L 1178 3500 
L 1178 0 
L 603 0 
L 603 3500 
z
M 603 4863 
L 1178 4863 
L 1178 4134 
L 603 4134 
L 603 4863 
z
" id="DejaVuSans-69" transform="scale(0.015625)"/>
       <path d="M 2834 3397 
L 2834 2853 
Q 2591 2978 2328 3040 
Q 2066 3103 1784 3103 
Q 1356 3103 1142 2972 
Q 928 2841 928 2578 
Q 928 2378 1081 2264 
Q 1234 2150 1697 2047 
L 1894 2003 
Q 2506 1872 2764 1633 
Q 3022 1394 3022 966 
Q 3022 478 2636 193 
Q 2250 -91 1575 -91 
Q 1294 -91 989 -36 
Q 684 19 347 128 
L 347 722 
Q 666 556 975 473 
Q 1284 391 1588 391 
Q 1994 391 2212 530 
Q 2431 669 2431 922 
Q 2431 1156 2273 1281 
Q 2116 1406 1581 1522 
L 1381 1569 
Q 847 1681 609 1914 
Q 372 2147 372 2553 
Q 372 3047 722 3315 
Q 1072 3584 1716 3584 
Q 2034 3584 2315 3537 
Q 2597 3491 2834 3397 
z
" id="DejaVuSans-73" transform="scale(0.015625)"/>
       <path d="M 1959 3097 
Q 1497 3097 1228 2736 
Q 959 2375 959 1747 
Q 959 1119 1226 758 
Q 1494 397 1959 397 
Q 2419 397 2687 759 
Q 2956 1122 2956 1747 
Q 2956 2369 2687 2733 
Q 2419 3097 1959 3097 
z
M 1959 3584 
Q 2709 3584 3137 3096 
Q 3566 2609 3566 1747 
Q 3566 888 3137 398 
Q 2709 -91 1959 -91 
Q 1206 -91 779 398 
Q 353 888 353 1747 
Q 353 2609 779 3096 
Q 1206 3584 1959 3584 
z
" id="DejaVuSans-6f" transform="scale(0.015625)"/>
       <path d="M 2906 2969 
L 2906 4863 
L 3481 4863 
L 3481 0 
L 2906 0 
L 2906 525 
Q 2725 213 2448 61 
Q 2172 -91 1784 -91 
Q 1150 -91 751 415 
Q 353 922 353 1747 
Q 353 2572 751 3078 
Q 1150 3584 1784 3584 
Q 2172 3584 2448 3432 
Q 2725 3281 2906 2969 
z
M 947 1747 
Q 947 1113 1208 752 
Q 1469 391 1925 391 
Q 2381 391 2643 752 
Q 2906 1113 2906 1747 
Q 2906 2381 2643 2742 
Q 2381 3103 1925 3103 
Q 1469 3103 1208 2742 
Q 947 2381 947 1747 
z
" id="DejaVuSans-64" transform="scale(0.015625)"/>
       <path d="M 3597 1894 
L 3597 1613 
L 953 1613 
Q 991 1019 1311 708 
Q 1631 397 2203 397 
Q 2534 397 2845 478 
Q 3156 559 3463 722 
L 3463 178 
Q 3153 47 2828 -22 
Q 2503 -91 2169 -91 
Q 1331 -91 842 396 
Q 353 884 353 1716 
Q 353 2575 817 3079 
Q 1281 3584 2069 3584 
Q 2775 3584 3186 3129 
Q 3597 2675 3597 1894 
z
M 3022 2063 
Q 3016 2534 2758 2815 
Q 2500 3097 2075 3097 
Q 1594 3097 1305 2825 
Q 1016 2553 972 2059 
L 3022 2063 
z
" id="DejaVuSans-65" transform="scale(0.015625)"/>
      </defs>
      <use xlink:href="#DejaVuSans-45"/>
      <use x="63.183594" xlink:href="#DejaVuSans-70"/>
      <use x="126.660156" xlink:href="#DejaVuSans-69"/>
      <use x="154.443359" xlink:href="#DejaVuSans-73"/>
      <use x="206.542969" xlink:href="#DejaVuSans-6f"/>
      <use x="267.724609" xlink:href="#DejaVuSans-64"/>
      <use x="331.201172" xlink:href="#DejaVuSans-65"/>
      <use x="392.724609" xlink:href="#DejaVuSans-73"/>
     </g>
    </g>
   </g>
   <g id="matplotlib.axis_2">
    <g id="ytick_1">
     <g id="line2d_15">
      <path clip-path="url(#pd11281bfd3)" d="M 57.6 265.040382 
L 414.72 265.040382 
" style="fill:none;stroke:#b0b0b0;stroke-linecap:square;stroke-width:0.8;"/>
     </g>
     <g id="line2d_16">
      <defs>
       <path d="M 0 0 
L -3.5 0 
" id="m33b2e81e9b" style="stroke:#000000;stroke-width:0.8;"/>
      </defs>
      <g>
       <use style="stroke:#000000;stroke-width:0.8;" x="57.6" xlink:href="#m33b2e81e9b" y="265.040382"/>
      </g>
     </g>
     <g id="text_9">
      <!-- −12000 -->
      <g transform="translate(10.407812 268.8396)scale(0.1 -0.1)">
       <defs>
        <path d="M 678 2272 
L 4684 2272 
L 4684 1741 
L 678 1741 
L 678 2272 
z
" id="DejaVuSans-2212" transform="scale(0.015625)"/>
       </defs>
       <use xlink:href="#DejaVuSans-2212"/>
       <use x="83.789062" xlink:href="#DejaVuSans-31"/>
       <use x="147.412109" xlink:href="#DejaVuSans-32"/>
       <use x="211.035156" xlink:href="#DejaVuSans-30"/>
       <use x="274.658203" xlink:href="#DejaVuSans-30"/>
       <use x="338.28125" xlink:href="#DejaVuSans-30"/>
      </g>
     </g>
    </g>
    <g id="ytick_2">
     <g id="line2d_17">
      <path clip-path="url(#pd11281bfd3)" d="M 57.6 222.386257 
L 414.72 222.386257 
" style="fill:none;stroke:#b0b0b0;stroke-linecap:square;stroke-width:0.8;"/>
     </g>
     <g id="line2d_18">
      <g>
       <use style="stroke:#000000;stroke-width:0.8;" x="57.6" xlink:href="#m33b2e81e9b" y="222.386257"/>
      </g>
     </g>
     <g id="text_10">
      <!-- −10000 -->
      <g transform="translate(10.407812 226.185476)scale(0.1 -0.1)">
       <use xlink:href="#DejaVuSans-2212"/>
       <use x="83.789062" xlink:href="#DejaVuSans-31"/>
       <use x="147.412109" xlink:href="#DejaVuSans-30"/>
       <use x="211.035156" xlink:href="#DejaVuSans-30"/>
       <use x="274.658203" xlink:href="#DejaVuSans-30"/>
       <use x="338.28125" xlink:href="#DejaVuSans-30"/>
      </g>
     </g>
    </g>
    <g id="ytick_3">
     <g id="line2d_19">
      <path clip-path="url(#pd11281bfd3)" d="M 57.6 179.732133 
L 414.72 179.732133 
" style="fill:none;stroke:#b0b0b0;stroke-linecap:square;stroke-width:0.8;"/>
     </g>
     <g id="line2d_20">
      <g>
       <use style="stroke:#000000;stroke-width:0.8;" x="57.6" xlink:href="#m33b2e81e9b" y="179.732133"/>
      </g>
     </g>
     <g id="text_11">
      <!-- −8000 -->
      <g transform="translate(16.770313 183.531352)scale(0.1 -0.1)">
       <defs>
        <path d="M 2034 2216 
Q 1584 2216 1326 1975 
Q 1069 1734 1069 1313 
Q 1069 891 1326 650 
Q 1584 409 2034 409 
Q 2484 409 2743 651 
Q 3003 894 3003 1313 
Q 3003 1734 2745 1975 
Q 2488 2216 2034 2216 
z
M 1403 2484 
Q 997 2584 770 2862 
Q 544 3141 544 3541 
Q 544 4100 942 4425 
Q 1341 4750 2034 4750 
Q 2731 4750 3128 4425 
Q 3525 4100 3525 3541 
Q 3525 3141 3298 2862 
Q 3072 2584 2669 2484 
Q 3125 2378 3379 2068 
Q 3634 1759 3634 1313 
Q 3634 634 3220 271 
Q 2806 -91 2034 -91 
Q 1263 -91 848 271 
Q 434 634 434 1313 
Q 434 1759 690 2068 
Q 947 2378 1403 2484 
z
M 1172 3481 
Q 1172 3119 1398 2916 
Q 1625 2713 2034 2713 
Q 2441 2713 2670 2916 
Q 2900 3119 2900 3481 
Q 2900 3844 2670 4047 
Q 2441 4250 2034 4250 
Q 1625 4250 1398 4047 
Q 1172 3844 1172 3481 
z
" id="DejaVuSans-38" transform="scale(0.015625)"/>
       </defs>
       <use xlink:href="#DejaVuSans-2212"/>
       <use x="83.789062" xlink:href="#DejaVuSans-38"/>
       <use x="147.412109" xlink:href="#DejaVuSans-30"/>
       <use x="211.035156" xlink:href="#DejaVuSans-30"/>
       <use x="274.658203" xlink:href="#DejaVuSans-30"/>
      </g>
     </g>
    </g>
    <g id="ytick_4">
     <g id="line2d_21">
      <path clip-path="url(#pd11281bfd3)" d="M 57.6 137.078009 
L 414.72 137.078009 
" style="fill:none;stroke:#b0b0b0;stroke-linecap:square;stroke-width:0.8;"/>
     </g>
     <g id="line2d_22">
      <g>
       <use style="stroke:#000000;stroke-width:0.8;" x="57.6" xlink:href="#m33b2e81e9b" y="137.078009"/>
      </g>
     </g>
     <g id="text_12">
      <!-- −6000 -->
      <g transform="translate(16.770313 140.877228)scale(0.1 -0.1)">
       <defs>
        <path d="M 2113 2584 
Q 1688 2584 1439 2293 
Q 1191 2003 1191 1497 
Q 1191 994 1439 701 
Q 1688 409 2113 409 
Q 2538 409 2786 701 
Q 3034 994 3034 1497 
Q 3034 2003 2786 2293 
Q 2538 2584 2113 2584 
z
M 3366 4563 
L 3366 3988 
Q 3128 4100 2886 4159 
Q 2644 4219 2406 4219 
Q 1781 4219 1451 3797 
Q 1122 3375 1075 2522 
Q 1259 2794 1537 2939 
Q 1816 3084 2150 3084 
Q 2853 3084 3261 2657 
Q 3669 2231 3669 1497 
Q 3669 778 3244 343 
Q 2819 -91 2113 -91 
Q 1303 -91 875 529 
Q 447 1150 447 2328 
Q 447 3434 972 4092 
Q 1497 4750 2381 4750 
Q 2619 4750 2861 4703 
Q 3103 4656 3366 4563 
z
" id="DejaVuSans-36" transform="scale(0.015625)"/>
       </defs>
       <use xlink:href="#DejaVuSans-2212"/>
       <use x="83.789062" xlink:href="#DejaVuSans-36"/>
       <use x="147.412109" xlink:href="#DejaVuSans-30"/>
       <use x="211.035156" xlink:href="#DejaVuSans-30"/>
       <use x="274.658203" xlink:href="#DejaVuSans-30"/>
      </g>
     </g>
    </g>
    <g id="ytick_5">
     <g id="line2d_23">
      <path clip-path="url(#pd11281bfd3)" d="M 57.6 94.423884 
L 414.72 94.423884 
" style="fill:none;stroke:#b0b0b0;stroke-linecap:square;stroke-width:0.8;"/>
     </g>
     <g id="line2d_24">
      <g>
       <use style="stroke:#000000;stroke-width:0.8;" x="57.6" xlink:href="#m33b2e81e9b" y="94.423884"/>
      </g>
     </g>
     <g id="text_13">
      <!-- −4000 -->
      <g transform="translate(16.770313 98.223103)scale(0.1 -0.1)">
       <defs>
        <path d="M 2419 4116 
L 825 1625 
L 2419 1625 
L 2419 4116 
z
M 2253 4666 
L 3047 4666 
L 3047 1625 
L 3713 1625 
L 3713 1100 
L 3047 1100 
L 3047 0 
L 2419 0 
L 2419 1100 
L 313 1100 
L 313 1709 
L 2253 4666 
z
" id="DejaVuSans-34" transform="scale(0.015625)"/>
       </defs>
       <use xlink:href="#DejaVuSans-2212"/>
       <use x="83.789062" xlink:href="#DejaVuSans-34"/>
       <use x="147.412109" xlink:href="#DejaVuSans-30"/>
       <use x="211.035156" xlink:href="#DejaVuSans-30"/>
       <use x="274.658203" xlink:href="#DejaVuSans-30"/>
      </g>
     </g>
    </g>
    <g id="ytick_6">
     <g id="line2d_25">
      <path clip-path="url(#pd11281bfd3)" d="M 57.6 51.76976 
L 414.72 51.76976 
" style="fill:none;stroke:#b0b0b0;stroke-linecap:square;stroke-width:0.8;"/>
     </g>
     <g id="line2d_26">
      <g>
       <use style="stroke:#000000;stroke-width:0.8;" x="57.6" xlink:href="#m33b2e81e9b" y="51.76976"/>
      </g>
     </g>
     <g id="text_14">
      <!-- −2000 -->
      <g transform="translate(16.770313 55.568979)scale(0.1 -0.1)">
       <use xlink:href="#DejaVuSans-2212"/>
       <use x="83.789062" xlink:href="#DejaVuSans-32"/>
       <use x="147.412109" xlink:href="#DejaVuSans-30"/>
       <use x="211.035156" xlink:href="#DejaVuSans-30"/>
       <use x="274.658203" xlink:href="#DejaVuSans-30"/>
      </g>
     </g>
    </g>
    <g id="text_15">
     <!-- Cumulative Reward -->
     <g transform="translate(4.328125 223.275656)rotate(-90)scale(0.1 -0.1)">
      <defs>
       <path d="M 4122 4306 
L 4122 3641 
Q 3803 3938 3442 4084 
Q 3081 4231 2675 4231 
Q 1875 4231 1450 3742 
Q 1025 3253 1025 2328 
Q 1025 1406 1450 917 
Q 1875 428 2675 428 
Q 3081 428 3442 575 
Q 3803 722 4122 1019 
L 4122 359 
Q 3791 134 3420 21 
Q 3050 -91 2638 -91 
Q 1578 -91 968 557 
Q 359 1206 359 2328 
Q 359 3453 968 4101 
Q 1578 4750 2638 4750 
Q 3056 4750 3426 4639 
Q 3797 4528 4122 4306 
z
" id="DejaVuSans-43" transform="scale(0.015625)"/>
       <path d="M 544 1381 
L 544 3500 
L 1119 3500 
L 1119 1403 
Q 1119 906 1312 657 
Q 1506 409 1894 409 
Q 2359 409 2629 706 
Q 2900 1003 2900 1516 
L 2900 3500 
L 3475 3500 
L 3475 0 
L 2900 0 
L 2900 538 
Q 2691 219 2414 64 
Q 2138 -91 1772 -91 
Q 1169 -91 856 284 
Q 544 659 544 1381 
z
M 1991 3584 
L 1991 3584 
z
" id="DejaVuSans-75" transform="scale(0.015625)"/>
       <path d="M 3328 2828 
Q 3544 3216 3844 3400 
Q 4144 3584 4550 3584 
Q 5097 3584 5394 3201 
Q 5691 2819 5691 2113 
L 5691 0 
L 5113 0 
L 5113 2094 
Q 5113 2597 4934 2840 
Q 4756 3084 4391 3084 
Q 3944 3084 3684 2787 
Q 3425 2491 3425 1978 
L 3425 0 
L 2847 0 
L 2847 2094 
Q 2847 2600 2669 2842 
Q 2491 3084 2119 3084 
Q 1678 3084 1418 2786 
Q 1159 2488 1159 1978 
L 1159 0 
L 581 0 
L 581 3500 
L 1159 3500 
L 1159 2956 
Q 1356 3278 1631 3431 
Q 1906 3584 2284 3584 
Q 2666 3584 2933 3390 
Q 3200 3197 3328 2828 
z
" id="DejaVuSans-6d" transform="scale(0.015625)"/>
       <path d="M 603 4863 
L 1178 4863 
L 1178 0 
L 603 0 
L 603 4863 
z
" id="DejaVuSans-6c" transform="scale(0.015625)"/>
       <path d="M 2194 1759 
Q 1497 1759 1228 1600 
Q 959 1441 959 1056 
Q 959 750 1161 570 
Q 1363 391 1709 391 
Q 2188 391 2477 730 
Q 2766 1069 2766 1631 
L 2766 1759 
L 2194 1759 
z
M 3341 1997 
L 3341 0 
L 2766 0 
L 2766 531 
Q 2569 213 2275 61 
Q 1981 -91 1556 -91 
Q 1019 -91 701 211 
Q 384 513 384 1019 
Q 384 1609 779 1909 
Q 1175 2209 1959 2209 
L 2766 2209 
L 2766 2266 
Q 2766 2663 2505 2880 
Q 2244 3097 1772 3097 
Q 1472 3097 1187 3025 
Q 903 2953 641 2809 
L 641 3341 
Q 956 3463 1253 3523 
Q 1550 3584 1831 3584 
Q 2591 3584 2966 3190 
Q 3341 2797 3341 1997 
z
" id="DejaVuSans-61" transform="scale(0.015625)"/>
       <path d="M 1172 4494 
L 1172 3500 
L 2356 3500 
L 2356 3053 
L 1172 3053 
L 1172 1153 
Q 1172 725 1289 603 
Q 1406 481 1766 481 
L 2356 481 
L 2356 0 
L 1766 0 
Q 1100 0 847 248 
Q 594 497 594 1153 
L 594 3053 
L 172 3053 
L 172 3500 
L 594 3500 
L 594 4494 
L 1172 4494 
z
" id="DejaVuSans-74" transform="scale(0.015625)"/>
       <path d="M 191 3500 
L 800 3500 
L 1894 563 
L 2988 3500 
L 3597 3500 
L 2284 0 
L 1503 0 
L 191 3500 
z
" id="DejaVuSans-76" transform="scale(0.015625)"/>
       <path id="DejaVuSans-20" transform="scale(0.015625)"/>
       <path d="M 2841 2188 
Q 3044 2119 3236 1894 
Q 3428 1669 3622 1275 
L 4263 0 
L 3584 0 
L 2988 1197 
Q 2756 1666 2539 1819 
Q 2322 1972 1947 1972 
L 1259 1972 
L 1259 0 
L 628 0 
L 628 4666 
L 2053 4666 
Q 2853 4666 3247 4331 
Q 3641 3997 3641 3322 
Q 3641 2881 3436 2590 
Q 3231 2300 2841 2188 
z
M 1259 4147 
L 1259 2491 
L 2053 2491 
Q 2509 2491 2742 2702 
Q 2975 2913 2975 3322 
Q 2975 3731 2742 3939 
Q 2509 4147 2053 4147 
L 1259 4147 
z
" id="DejaVuSans-52" transform="scale(0.015625)"/>
       <path d="M 269 3500 
L 844 3500 
L 1563 769 
L 2278 3500 
L 2956 3500 
L 3675 769 
L 4391 3500 
L 4966 3500 
L 4050 0 
L 3372 0 
L 2619 2869 
L 1863 0 
L 1184 0 
L 269 3500 
z
" id="DejaVuSans-77" transform="scale(0.015625)"/>
       <path d="M 2631 2963 
Q 2534 3019 2420 3045 
Q 2306 3072 2169 3072 
Q 1681 3072 1420 2755 
Q 1159 2438 1159 1844 
L 1159 0 
L 581 0 
L 581 3500 
L 1159 3500 
L 1159 2956 
Q 1341 3275 1631 3429 
Q 1922 3584 2338 3584 
Q 2397 3584 2469 3576 
Q 2541 3569 2628 3553 
L 2631 2963 
z
" id="DejaVuSans-72" transform="scale(0.015625)"/>
      </defs>
      <use xlink:href="#DejaVuSans-43"/>
      <use x="69.824219" xlink:href="#DejaVuSans-75"/>
      <use x="133.203125" xlink:href="#DejaVuSans-6d"/>
      <use x="230.615234" xlink:href="#DejaVuSans-75"/>
      <use x="293.994141" xlink:href="#DejaVuSans-6c"/>
      <use x="321.777344" xlink:href="#DejaVuSans-61"/>
      <use x="383.056641" xlink:href="#DejaVuSans-74"/>
      <use x="422.265625" xlink:href="#DejaVuSans-69"/>
      <use x="450.048828" xlink:href="#DejaVuSans-76"/>
      <use x="509.228516" xlink:href="#DejaVuSans-65"/>
      <use x="570.751953" xlink:href="#DejaVuSans-20"/>
      <use x="602.539062" xlink:href="#DejaVuSans-52"/>
      <use x="667.521484" xlink:href="#DejaVuSans-65"/>
      <use x="729.044922" xlink:href="#DejaVuSans-77"/>
      <use x="810.832031" xlink:href="#DejaVuSans-61"/>
      <use x="872.111328" xlink:href="#DejaVuSans-72"/>
      <use x="911.474609" xlink:href="#DejaVuSans-64"/>
     </g>
    </g>
   </g>
   <g id="line2d_27">
    <path clip-path="url(#pd11281bfd3)" d="M 57.6 168.475819 
L 57.71904 166.713064 
L 57.95712 128.936146 
L 58.07616 168.475819 
L 58.1952 166.713064 
L 58.43328 128.936146 
L 58.55232 168.475819 
L 58.67136 166.713064 
L 58.90944 128.936146 
L 59.02848 168.475819 
L 59.14752 166.713064 
L 59.3856 128.936146 
L 59.50464 168.475819 
L 59.62368 166.713064 
L 59.86176 128.936146 
L 59.9808 168.475819 
L 60.09984 166.713064 
L 60.33792 128.936146 
L 60.45696 168.475819 
L 60.576 166.713064 
L 60.81408 128.936146 
L 60.93312 168.475819 
L 61.05216 166.713064 
L 61.29024 128.936146 
L 61.40928 168.475819 
L 61.52832 166.713064 
L 61.7664 128.936146 
L 61.88544 168.475819 
L 62.00448 166.713064 
L 62.24256 128.936146 
L 62.3616 168.475819 
L 62.48064 166.713064 
L 62.71872 128.936146 
L 62.83776 168.475819 
L 62.9568 166.713064 
L 63.19488 128.936146 
L 63.31392 168.475819 
L 63.43296 166.713064 
L 63.67104 128.936146 
L 63.79008 168.475819 
L 63.90912 166.713064 
L 64.1472 128.936146 
L 64.26624 168.475819 
L 64.38528 166.713064 
L 64.62336 128.936146 
L 64.7424 168.475819 
L 64.86144 166.713064 
L 65.09952 128.936146 
L 65.21856 168.475819 
L 65.3376 166.713064 
L 65.57568 128.936146 
L 65.69472 168.475819 
L 65.81376 166.713064 
L 66.05184 128.936146 
L 66.17088 168.475819 
L 66.28992 166.713064 
L 66.528 128.936146 
L 66.64704 168.475819 
L 66.76608 166.713064 
L 67.00416 128.936146 
L 67.1232 168.475819 
L 67.24224 166.713064 
L 67.48032 128.936146 
L 67.59936 168.475819 
L 67.7184 166.713064 
L 67.95648 128.936146 
L 68.07552 168.475819 
L 68.19456 166.713064 
L 68.43264 128.936146 
L 68.55168 168.475819 
L 68.67072 166.713064 
L 68.9088 128.936146 
L 69.02784 168.475819 
L 69.14688 166.713064 
L 69.38496 128.936146 
L 69.504 179.860727 
L 69.74208 151.818001 
L 69.86112 168.985259 
L 70.0992 146.690133 
L 70.21824 169.9098 
L 70.33728 138.928464 
L 70.45632 156.388728 
L 70.57536 196.557977 
L 70.6944 134.689914 
L 70.93248 149.779274 
L 71.05152 157.375741 
L 71.17056 139.745464 
L 71.2896 159.745386 
L 71.40864 157.018282 
L 71.52768 193.788559 
L 71.64672 179.020321 
L 71.76576 106.42928 
L 71.8848 146.883756 
L 72.00384 142.788304 
L 72.12288 143.714449 
L 72.24192 148.028988 
L 72.36096 121.67727 
L 72.59904 134.731957 
L 72.71808 127.235512 
L 72.95616 156.248949 
L 73.0752 115.532439 
L 73.19424 151.573765 
L 73.31328 150.254992 
L 73.43232 168.670462 
L 73.55136 129.978831 
L 73.6704 142.869792 
L 73.90848 117.942825 
L 74.02752 132.519856 
L 74.14656 106.793317 
L 74.2656 112.426699 
L 74.38464 145.072027 
L 74.50368 143.231242 
L 74.62272 181.627183 
L 74.74176 111.40691 
L 74.8608 122.326085 
L 74.97984 95.808662 
L 75.21792 154.453196 
L 75.33696 96.27503 
L 75.456 98.176667 
L 75.69408 137.515825 
L 75.81312 147.693431 
L 75.93216 173.024687 
L 76.17024 99.023481 
L 76.28928 93.709986 
L 76.52736 123.527537 
L 76.6464 121.471356 
L 76.76544 147.410965 
L 76.88448 114.136548 
L 77.12256 123.092723 
L 77.2416 87.687397 
L 77.47968 121.204097 
L 77.59872 131.104087 
L 77.8368 96.645939 
L 77.95584 102.073194 
L 78.19392 90.506439 
L 78.55104 102.420713 
L 78.67008 102.32481 
L 78.78912 94.01261 
L 78.90816 110.4244 
L 79.0272 76.959215 
L 79.14624 121.648614 
L 79.26528 102.703768 
L 79.38432 114.187181 
L 79.50336 92.436258 
L 79.6224 97.332438 
L 79.74144 111.301779 
L 79.86048 108.463491 
L 79.97952 110.647029 
L 80.09856 85.178159 
L 80.33664 112.888388 
L 80.45568 105.75867 
L 80.57472 84.112854 
L 80.8128 109.182325 
L 80.93184 141.894813 
L 81.16992 92.892334 
L 81.408 101.217276 
L 81.64608 89.612692 
L 81.88416 71.962853 
L 82.0032 78.272622 
L 82.24128 97.723395 
L 82.36032 99.002874 
L 82.47936 93.309814 
L 82.5984 93.899724 
L 82.71744 102.08984 
L 82.83648 91.470935 
L 82.95552 94.820075 
L 83.07456 133.274015 
L 83.31264 94.073981 
L 83.43168 92.270239 
L 83.66976 104.83493 
L 83.90784 85.67277 
L 84.02688 92.599376 
L 84.14592 76.98279 
L 84.26496 101.141486 
L 84.384 86.603226 
L 84.62208 93.60282 
L 84.74112 73.164339 
L 84.86016 94.475476 
L 84.9792 89.104818 
L 85.09824 107.073799 
L 85.33632 78.507254 
L 85.45536 80.414768 
L 85.5744 97.315266 
L 85.69344 69.129166 
L 85.81248 96.968139 
L 85.93152 91.06652 
L 86.1696 96.345943 
L 86.28864 95.524335 
L 86.40768 98.998034 
L 86.52672 85.983211 
L 86.64576 90.231776 
L 86.7648 107.165889 
L 86.88384 106.723952 
L 87.12192 96.233609 
L 87.24096 114.297278 
L 87.36 82.477694 
L 87.47904 87.753847 
L 87.71712 145.857903 
L 87.83616 98.660794 
L 87.9552 103.244957 
L 88.07424 80.189308 
L 88.31232 107.073675 
L 88.5504 84.530828 
L 88.66944 83.387172 
L 88.90752 102.457552 
L 89.02656 86.984094 
L 89.1456 125.594181 
L 89.26464 114.617901 
L 89.38368 118.986074 
L 89.50272 82.995389 
L 89.62176 84.936331 
L 89.85984 82.973413 
L 89.97888 89.83454 
L 90.09792 87.612356 
L 90.21696 110.439413 
L 90.336 83.159535 
L 90.45504 106.829194 
L 90.57408 91.289838 
L 90.81216 104.761586 
L 90.9312 88.889677 
L 91.05024 94.858975 
L 91.16928 94.033896 
L 91.28832 106.208163 
L 91.5264 99.6815 
L 91.64544 122.741001 
L 91.88352 88.485624 
L 92.00256 85.757229 
L 92.1216 106.724675 
L 92.24064 91.570736 
L 92.47872 129.75911 
L 92.7168 88.374911 
L 92.83584 124.750192 
L 92.95488 103.489941 
L 93.07392 104.798992 
L 93.19296 84.366554 
L 93.312 104.282921 
L 93.43104 90.499048 
L 93.55008 112.596357 
L 93.66912 89.121179 
L 93.78816 115.902699 
L 93.9072 98.947409 
L 94.02624 121.608022 
L 94.26432 87.122548 
L 94.38336 103.472695 
L 94.74048 94.753951 
L 94.85952 78.397906 
L 94.97856 100.760175 
L 95.0976 76.812286 
L 95.21664 109.895083 
L 95.33568 93.319804 
L 95.45472 121.05895 
L 95.6928 101.581944 
L 95.81184 83.812718 
L 95.93088 122.807277 
L 96.04992 103.719573 
L 96.16896 112.624405 
L 96.288 92.865652 
L 96.40704 101.116404 
L 96.52608 119.947964 
L 96.64512 71.195592 
L 96.8832 94.816573 
L 97.00224 94.437938 
L 97.12128 95.875827 
L 97.24032 100.927275 
L 97.35936 79.746507 
L 97.4784 87.04306 
L 97.59744 84.220866 
L 97.71648 104.208122 
L 97.95456 70.494933 
L 98.0736 90.06663 
L 98.19264 79.519304 
L 98.31168 107.357288 
L 98.6688 91.721171 
L 98.90688 77.067076 
L 99.264 111.437439 
L 99.38304 89.216871 
L 99.62112 87.205822 
L 99.74016 88.372163 
L 99.8592 105.708104 
L 99.97824 85.732829 
L 100.33536 113.734857 
L 100.57344 85.809542 
L 100.69248 93.99226 
L 100.81152 84.876251 
L 100.93056 93.367471 
L 101.0496 73.647303 
L 101.28768 85.883875 
L 101.40672 78.190109 
L 101.52576 84.974052 
L 101.6448 82.46311 
L 101.76384 108.126557 
L 102.00192 82.856331 
L 102.12096 111.250564 
L 102.24 85.657194 
L 102.47808 95.015681 
L 102.59712 82.703246 
L 102.71616 93.129629 
L 102.95424 63.648 
L 103.07328 103.578047 
L 103.19232 106.20229 
L 103.31136 74.653036 
L 103.4304 75.226463 
L 103.54944 83.645052 
L 103.66848 69.841848 
L 103.78752 70.313906 
L 103.90656 71.529713 
L 104.0256 76.054168 
L 104.14464 70.53219 
L 104.26368 75.815345 
L 104.38272 92.937626 
L 104.50176 81.65916 
L 104.6208 94.170894 
L 104.73984 75.134621 
L 104.85888 88.222782 
L 104.97792 67.006731 
L 105.09696 81.655545 
L 105.216 68.188888 
L 105.45408 78.435589 
L 105.57312 77.81397 
L 105.69216 73.760614 
L 105.8112 84.582761 
L 105.93024 71.353728 
L 106.04928 75.917936 
L 106.16832 64.572135 
L 106.4064 110.32031 
L 106.64448 77.525213 
L 106.76352 82.458396 
L 106.88256 81.98957 
L 107.0016 99.683338 
L 107.12064 84.151837 
L 107.23968 98.272789 
L 107.35872 87.92776 
L 107.47776 90.858375 
L 107.5968 108.142362 
L 107.71584 90.170076 
L 107.83488 103.848551 
L 107.95392 66.25655 
L 108.192 106.580924 
L 108.43008 69.077502 
L 108.7872 91.157637 
L 108.90624 67.815755 
L 109.02528 67.403639 
L 109.14432 96.678472 
L 109.26336 68.643523 
L 109.3824 82.712751 
L 109.50144 128.389009 
L 109.62048 122.33241 
L 109.85856 73.659644 
L 109.9776 68.971067 
L 110.09664 94.356541 
L 110.21568 81.536671 
L 110.33472 99.577377 
L 110.45376 78.624038 
L 110.5728 83.69947 
L 110.81088 103.700165 
L 110.92992 112.570587 
L 111.04896 84.231189 
L 111.28704 119.833553 
L 111.40608 95.663123 
L 111.52512 108.007104 
L 111.7632 84.915387 
L 111.88224 100.537391 
L 112.00128 98.862845 
L 112.12032 92.041315 
L 112.23936 120.922374 
L 112.47744 103.791711 
L 112.59648 118.143461 
L 112.71552 94.845581 
L 112.83456 111.220478 
L 112.9536 108.620806 
L 113.07264 112.136355 
L 113.19168 119.454812 
L 113.31072 145.624699 
L 113.42976 97.20466 
L 113.5488 97.276343 
L 113.66784 99.393451 
L 113.78688 160.450232 
L 113.90592 100.325433 
L 114.02496 104.357863 
L 114.144 149.903625 
L 114.38208 94.559788 
L 114.62016 143.215826 
L 114.7392 109.873625 
L 114.85824 135.021921 
L 115.09632 137.101609 
L 115.21536 113.34151 
L 115.3344 142.662896 
L 115.57248 124.561765 
L 115.69152 129.685333 
L 115.81056 129.873126 
L 115.9296 120.591125 
L 116.04864 120.119935 
L 116.16768 148.803764 
L 116.28672 122.901462 
L 116.40576 130.945129 
L 116.5248 120.02514 
L 116.64384 135.989944 
L 116.76288 119.320925 
L 116.88192 128.917745 
L 117.00096 164.709111 
L 117.35808 122.667098 
L 117.47712 104.608913 
L 117.83424 158.76112 
L 117.95328 110.008215 
L 118.07232 109.884424 
L 118.42944 189.406553 
L 118.54848 148.625622 
L 118.66752 154.317656 
L 118.78656 106.894573 
L 119.02464 136.111446 
L 119.14368 102.0732 
L 119.38176 141.34121 
L 119.5008 98.432204 
L 119.73888 142.808579 
L 119.97696 126.645268 
L 120.096 131.351277 
L 120.21504 111.827067 
L 120.33408 144.203277 
L 120.45312 115.232747 
L 120.57216 120.716603 
L 120.6912 140.076357 
L 120.81024 121.636857 
L 120.92928 131.687899 
L 121.04832 125.207561 
L 121.16736 135.810685 
L 121.2864 128.764608 
L 121.40544 144.397638 
L 121.52448 102.377572 
L 121.76256 136.254225 
L 121.8816 134.159642 
L 122.00064 153.450551 
L 122.11968 102.614772 
L 122.4768 175.794526 
L 122.59584 134.434074 
L 122.71488 149.122314 
L 122.83392 144.526291 
L 122.95296 118.649727 
L 123.31008 181.883165 
L 123.78624 122.674034 
L 124.02432 159.449072 
L 124.14336 150.071391 
L 124.2624 128.046325 
L 124.50048 138.047888 
L 124.61952 121.431472 
L 124.73856 169.656816 
L 124.97664 148.555963 
L 125.09568 169.212133 
L 125.33376 119.797389 
L 125.57184 161.857591 
L 125.69088 137.840997 
L 125.80992 137.813451 
L 125.92896 109.84041 
L 126.16704 125.688042 
L 126.28608 136.979068 
L 126.40512 116.409435 
L 126.52416 167.697061 
L 126.76224 123.48384 
L 126.88128 161.142919 
L 127.11936 119.135347 
L 127.2384 130.085199 
L 127.35744 164.898286 
L 127.47648 143.364852 
L 127.59552 93.197148 
L 127.71456 115.880734 
L 127.8336 110.966236 
L 127.95264 122.675933 
L 128.07168 104.647095 
L 128.30976 163.818488 
L 128.4288 99.234654 
L 128.66688 182.323019 
L 128.78592 113.081381 
L 128.90496 168.657184 
L 129.024 149.193612 
L 129.14304 158.798939 
L 129.26208 113.527294 
L 129.38112 149.027301 
L 129.50016 115.06277 
L 129.6192 131.151096 
L 129.73824 169.890961 
L 129.97632 135.967181 
L 130.09536 179.18 
L 130.2144 146.634677 
L 130.33344 155.276943 
L 130.45248 140.698427 
L 130.57152 154.859914 
L 130.8096 141.622428 
L 130.92864 148.110303 
L 131.04768 142.538093 
L 131.28576 111.414474 
L 131.4048 134.972973 
L 131.52384 132.907644 
L 131.64288 146.119648 
L 131.76192 209.576228 
L 131.88096 137.040758 
L 132 163.067783 
L 132.11904 107.744588 
L 132.23808 152.588435 
L 132.35712 101.074757 
L 132.5952 154.530906 
L 132.71424 116.457647 
L 133.07136 179.104165 
L 133.42848 107.369507 
L 133.66656 144.138709 
L 133.90464 135.907477 
L 134.02368 105.966509 
L 134.14272 147.99653 
L 134.49984 117.621523 
L 134.61888 172.503656 
L 134.85696 147.339636 
L 134.976 159.143959 
L 135.09504 139.048673 
L 135.21408 92.802584 
L 135.33312 145.988329 
L 135.45216 117.098477 
L 135.5712 130.215575 
L 135.69024 170.459559 
L 135.80928 123.314109 
L 135.92832 165.549048 
L 136.1664 125.883605 
L 136.28544 129.217762 
L 136.40448 135.724287 
L 136.52352 107.650383 
L 136.64256 142.702053 
L 136.7616 130.967713 
L 136.88064 141.805074 
L 136.99968 169.583009 
L 137.11872 146.327229 
L 137.23776 159.346934 
L 137.47584 122.802945 
L 137.59488 123.968628 
L 137.71392 143.991334 
L 137.83296 133.606289 
L 137.952 141.14773 
L 138.07104 166.15477 
L 138.19008 153.502472 
L 138.30912 169.858607 
L 138.42816 136.952074 
L 138.66624 164.983997 
L 138.90432 122.840522 
L 139.02336 131.116109 
L 139.1424 183.198034 
L 139.26144 117.332399 
L 139.38048 120.045018 
L 139.49952 184.448604 
L 139.7376 131.132676 
L 139.85664 155.087608 
L 139.97568 131.626391 
L 140.09472 183.289502 
L 140.21376 125.999496 
L 140.3328 129.378839 
L 140.68992 165.242805 
L 140.80896 161.167191 
L 140.928 137.550423 
L 141.04704 158.044886 
L 141.28512 112.178655 
L 141.40416 179.329913 
L 141.5232 119.351147 
L 141.64224 166.112022 
L 141.76128 125.130691 
L 141.88032 188.681932 
L 141.99936 107.139992 
L 142.1184 126.970541 
L 142.23744 174.774793 
L 142.47552 145.370926 
L 142.59456 238.849588 
L 142.83264 103.438472 
L 142.95168 170.109166 
L 143.07072 144.814757 
L 143.18976 144.348087 
L 143.3088 138.375001 
L 143.42784 181.134074 
L 143.54688 115.642915 
L 143.66592 123.156558 
L 143.78496 199.786553 
L 143.904 181.569764 
L 144.02304 129.055551 
L 144.14208 151.300199 
L 144.26112 90.021658 
L 144.38016 157.575215 
L 144.4992 156.813627 
L 144.61824 132.42546 
L 144.73728 149.68273 
L 144.97536 132.588854 
L 145.0944 143.754736 
L 145.21344 173.462776 
L 145.33248 103.115618 
L 145.57056 158.428483 
L 145.6896 119.198024 
L 145.80864 216.204975 
L 146.04672 99.652631 
L 146.16576 110.762494 
L 146.2848 140.871794 
L 146.40384 234.775008 
L 146.52288 133.081409 
L 146.64192 200.568935 
L 146.76096 110.635702 
L 146.88 202.526232 
L 146.99904 125.937066 
L 147.11808 133.147377 
L 147.35616 123.667763 
L 147.4752 153.151923 
L 147.59424 142.394963 
L 147.71328 112.077283 
L 147.83232 163.738071 
L 147.95136 160.181423 
L 148.0704 146.570408 
L 148.18944 164.370719 
L 148.30848 115.955851 
L 148.42752 151.90201 
L 148.54656 120.945043 
L 148.6656 174.294182 
L 148.78464 149.688188 
L 148.90368 174.173699 
L 149.14176 99.478466 
L 149.2608 124.83116 
L 149.37984 115.292599 
L 149.49888 138.696403 
L 149.73696 111.219422 
L 149.97504 157.779189 
L 150.09408 139.592936 
L 150.21312 146.689813 
L 150.33216 133.277741 
L 150.4512 174.007398 
L 150.68928 148.795568 
L 150.80832 162.471074 
L 151.16544 136.549402 
L 151.28448 137.716953 
L 151.40352 197.281822 
L 151.6416 159.037012 
L 151.76064 171.359973 
L 151.87968 143.777493 
L 151.99872 156.672984 
L 152.11776 131.114642 
L 152.2368 147.444377 
L 152.35584 191.069433 
L 152.47488 88.80561 
L 152.71296 170.57672 
L 152.832 109.814232 
L 153.07008 160.551214 
L 153.18912 111.039689 
L 153.4272 145.066819 
L 153.54624 107.81455 
L 153.66528 132.178471 
L 153.78432 223.175565 
L 154.0224 115.198731 
L 154.26048 155.111874 
L 154.37952 190.564574 
L 154.49856 119.422816 
L 154.6176 167.875595 
L 154.73664 113.98977 
L 154.85568 197.438454 
L 154.97472 187.577727 
L 155.09376 112.933309 
L 155.2128 161.233652 
L 155.33184 141.617815 
L 155.56992 178.669388 
L 155.68896 133.358852 
L 155.808 144.973799 
L 155.92704 168.547124 
L 156.04608 150.241294 
L 156.16512 111.83612 
L 156.52224 144.740203 
L 156.87936 105.65812 
L 157.11744 171.610546 
L 157.23648 118.845634 
L 157.35552 158.326752 
L 157.5936 149.740839 
L 157.83168 105.117523 
L 158.06976 172.280618 
L 158.1888 118.257183 
L 158.30784 166.391406 
L 158.54592 115.92429 
L 158.66496 151.621118 
L 158.784 150.151069 
L 158.90304 151.318163 
L 159.14112 125.221036 
L 159.26016 146.916699 
L 159.3792 138.332566 
L 159.61728 172.65206 
L 159.73632 106.985184 
L 159.85536 159.219418 
L 160.09344 138.656232 
L 160.21248 175.101596 
L 160.33152 136.887096 
L 160.5696 145.709062 
L 160.68864 115.064442 
L 160.92672 132.158816 
L 161.04576 149.68152 
L 161.1648 116.803633 
L 161.28384 161.887108 
L 161.40288 106.14493 
L 161.52192 151.736612 
L 161.64096 141.368835 
L 161.87904 192.298301 
L 161.99808 181.824442 
L 162.11712 151.528216 
L 162.23616 149.73902 
L 162.47424 158.089616 
L 162.59328 123.187135 
L 162.71232 157.82653 
L 162.83136 148.36187 
L 162.9504 155.119556 
L 163.06944 138.65988 
L 163.18848 178.053686 
L 163.30752 130.689468 
L 163.42656 131.123413 
L 163.66464 214.169315 
L 163.90272 109.198223 
L 164.02176 199.869651 
L 164.25984 134.896492 
L 164.37888 135.461524 
L 164.49792 150.211638 
L 164.61696 121.368938 
L 164.736 165.078707 
L 164.85504 122.367917 
L 164.97408 136.668062 
L 165.09312 166.703625 
L 165.21216 143.434874 
L 165.3312 196.258409 
L 165.45024 149.460185 
L 165.56928 149.861685 
L 165.68832 176.895621 
L 165.80736 107.513068 
L 166.04544 157.596016 
L 166.28352 124.559314 
L 166.40256 164.232547 
L 166.5216 131.149972 
L 166.64064 175.15303 
L 166.75968 172.830064 
L 166.87872 149.174541 
L 166.99776 189.716942 
L 167.23584 147.881744 
L 167.35488 137.306685 
L 167.47392 173.361873 
L 167.59296 119.635482 
L 167.712 153.981631 
L 167.83104 138.332253 
L 168.18816 192.913095 
L 168.42624 113.13616 
L 168.54528 133.111137 
L 168.66432 116.693374 
L 168.9024 122.784554 
L 169.02144 123.563045 
L 169.14048 118.031485 
L 169.25952 154.540409 
L 169.37856 106.743248 
L 169.4976 161.066149 
L 169.73568 137.873169 
L 169.85472 185.623037 
L 170.0928 134.422806 
L 170.21184 127.134267 
L 170.33088 160.677117 
L 170.44992 157.513717 
L 170.688 125.780921 
L 170.80704 149.972531 
L 171.04512 115.206285 
L 171.16416 120.448949 
L 171.2832 146.563645 
L 171.52128 129.214326 
L 171.75936 172.496653 
L 171.8784 164.857128 
L 172.11648 141.13993 
L 172.23552 223.716471 
L 172.35456 105.759412 
L 172.59264 153.012498 
L 172.71168 129.090171 
L 172.83072 151.054884 
L 172.94976 206.599682 
L 173.0688 138.775069 
L 173.18784 153.15532 
L 173.30688 120.97829 
L 173.42592 130.270985 
L 173.54496 181.367648 
L 173.664 170.784036 
L 173.78304 173.453733 
L 173.90208 165.546084 
L 174.02112 142.116394 
L 174.14016 143.207866 
L 174.2592 182.94584 
L 174.49728 123.663673 
L 174.73536 167.717313 
L 174.8544 121.855157 
L 175.09248 182.600359 
L 175.21152 102.970591 
L 175.33056 156.628349 
L 175.4496 132.959582 
L 175.56864 134.421408 
L 175.68768 129.341518 
L 175.80672 144.358013 
L 175.92576 207.996985 
L 176.16384 121.677469 
L 176.28288 143.908053 
L 176.40192 169.165841 
L 176.52096 124.349379 
L 176.64 130.562858 
L 176.75904 164.329853 
L 176.87808 140.101947 
L 177.11616 183.25692 
L 177.35424 143.595912 
L 177.47328 135.610923 
L 177.59232 100.424265 
L 177.71136 147.281555 
L 178.06848 123.548862 
L 178.18752 153.027677 
L 178.30656 122.694305 
L 178.54464 179.088015 
L 178.66368 138.926966 
L 178.90176 164.901527 
L 179.0208 156.050254 
L 179.13984 132.800501 
L 179.25888 151.235882 
L 179.37792 106.718024 
L 179.49696 178.830799 
L 179.73504 115.835251 
L 179.85408 136.220481 
L 179.97312 120.853779 
L 180.2112 160.878204 
L 180.33024 144.365029 
L 180.56832 172.736757 
L 180.68736 139.637239 
L 180.8064 175.60691 
L 180.92544 165.610388 
L 181.04448 118.487001 
L 181.28256 168.04462 
L 181.4016 178.356774 
L 181.52064 165.658947 
L 181.63968 122.073638 
L 181.75872 146.799652 
L 181.87776 200.756902 
L 181.9968 172.521088 
L 182.11584 183.884187 
L 182.35392 131.273095 
L 182.47296 139.268139 
L 182.592 196.220861 
L 182.71104 182.391198 
L 182.83008 201.766809 
L 182.94912 129.65366 
L 183.06816 206.554167 
L 183.42528 123.438662 
L 183.54432 131.626515 
L 183.66336 163.853254 
L 183.7824 125.411558 
L 183.90144 153.22228 
L 184.02048 98.287086 
L 184.25856 164.254657 
L 184.61568 114.568832 
L 184.85376 146.866818 
L 184.9728 165.551814 
L 185.09184 130.21792 
L 185.21088 154.310386 
L 185.32992 126.591147 
L 185.44896 142.521295 
L 185.68704 111.403773 
L 185.92512 189.482967 
L 186.04416 206.554336 
L 186.1632 140.023097 
L 186.28224 139.850951 
L 186.40128 101.897181 
L 186.63936 149.959455 
L 186.7584 141.730281 
L 186.99648 211.131335 
L 187.23456 140.970818 
L 187.3536 134.79094 
L 187.47264 171.174679 
L 187.59168 121.027307 
L 187.71072 145.128663 
L 187.82976 142.686882 
L 187.9488 162.584192 
L 188.06784 133.642075 
L 188.18688 155.593011 
L 188.30592 132.82778 
L 188.42496 194.121909 
L 188.544 167.988075 
L 188.66304 168.657915 
L 189.02016 133.79625 
L 189.1392 141.473989 
L 189.25824 157.015392 
L 189.37728 156.989707 
L 189.49632 194.702392 
L 189.85344 152.153509 
L 189.97248 152.343634 
L 190.09152 202.137207 
L 190.21056 123.657806 
L 190.3296 120.594443 
L 190.56768 197.637781 
L 190.9248 131.518973 
L 191.16288 206.822108 
L 191.28192 156.426794 
L 191.40096 177.30623 
L 191.52 143.796722 
L 191.63904 218.918021 
L 191.75808 139.338656 
L 191.87712 153.636859 
L 192.1152 121.275635 
L 192.23424 131.889899 
L 192.47232 124.628772 
L 192.59136 117.244764 
L 192.7104 183.827488 
L 192.94848 129.592851 
L 193.06752 137.200052 
L 193.18656 131.05496 
L 193.3056 191.190849 
L 193.54368 120.293939 
L 193.78176 192.940035 
L 194.13888 127.384625 
L 194.25792 233.951209 
L 194.37696 139.191563 
L 194.61504 204.780427 
L 194.73408 124.103383 
L 194.85312 261.116187 
L 195.0912 123.628064 
L 195.21024 180.129124 
L 195.32928 147.683299 
L 195.44832 197.895231 
L 195.56736 111.565227 
L 195.6864 168.725418 
L 195.80544 171.357014 
L 196.04352 118.689086 
L 196.16256 158.917247 
L 196.2816 143.882931 
L 196.51968 180.783154 
L 196.63872 169.747039 
L 196.75776 169.694077 
L 196.8768 133.289115 
L 196.99584 141.36741 
L 197.23392 122.912492 
L 197.35296 126.164708 
L 197.472 123.103337 
L 197.71008 142.383347 
L 197.82912 143.605405 
L 197.94816 129.316123 
L 198.0672 146.84485 
L 198.18624 193.321005 
L 198.30528 163.803473 
L 198.42432 162.041142 
L 198.54336 203.599468 
L 198.78144 147.690268 
L 198.90048 192.067314 
L 199.13856 130.955756 
L 199.2576 139.806524 
L 199.37664 240.27951 
L 199.49568 125.579825 
L 199.61472 152.859541 
L 199.73376 146.268488 
L 199.8528 123.2959 
L 199.97184 156.24645 
L 200.32896 114.694482 
L 200.56704 150.391475 
L 200.68608 152.703354 
L 200.92416 188.421594 
L 201.16224 109.816536 
L 201.51936 158.051393 
L 201.6384 109.43578 
L 201.87648 139.855733 
L 201.99552 124.723478 
L 202.11456 130.949715 
L 202.2336 190.618124 
L 202.47168 118.322226 
L 202.59072 157.024541 
L 202.70976 238.940048 
L 202.8288 139.399918 
L 202.94784 192.467627 
L 203.18592 108.694158 
L 203.54304 200.180609 
L 203.66208 119.862992 
L 203.78112 131.408395 
L 203.90016 98.042263 
L 204.0192 148.845883 
L 204.13824 109.362701 
L 204.25728 136.688036 
L 204.37632 107.173132 
L 204.49536 115.629595 
L 204.85248 200.400268 
L 204.97152 192.733743 
L 205.09056 182.159302 
L 205.2096 112.348593 
L 205.32864 212.206479 
L 205.44768 188.942544 
L 205.56672 197.517065 
L 205.68576 159.881544 
L 205.8048 165.407037 
L 205.92384 206.190035 
L 206.04288 107.578424 
L 206.28096 224.078013 
L 206.51904 138.755197 
L 206.63808 158.055511 
L 206.75712 129.429454 
L 206.87616 156.281542 
L 206.9952 117.401215 
L 207.11424 136.996952 
L 207.23328 179.433513 
L 207.35232 111.637829 
L 207.70944 159.723576 
L 207.82848 154.848487 
L 207.94752 195.626574 
L 208.06656 107.627941 
L 208.1856 147.288643 
L 208.30464 123.383203 
L 208.42368 126.019214 
L 208.66176 175.637158 
L 208.7808 105.173226 
L 208.89984 229.162922 
L 209.01888 139.619283 
L 209.13792 169.044293 
L 209.25696 147.774968 
L 209.376 180.197887 
L 209.49504 127.134368 
L 209.73312 182.517915 
L 209.85216 110.167052 
L 209.9712 121.321025 
L 210.09024 175.150736 
L 210.20928 113.477563 
L 210.32832 183.761788 
L 210.5664 102.508394 
L 210.68544 157.488893 
L 210.80448 145.610509 
L 210.92352 110.810503 
L 211.1616 151.524491 
L 211.28064 152.198817 
L 211.39968 162.683036 
L 211.63776 111.180874 
L 211.7568 189.216681 
L 211.99488 108.092287 
L 212.23296 124.055174 
L 212.352 117.43561 
L 212.47104 211.332178 
L 212.59008 120.385236 
L 212.70912 229.028567 
L 212.9472 107.290132 
L 213.06624 143.577791 
L 213.18528 116.79766 
L 213.30432 128.076801 
L 213.42336 175.609075 
L 213.5424 167.489907 
L 213.78048 175.954158 
L 213.89952 170.327524 
L 214.1376 125.722688 
L 214.25664 133.318364 
L 214.37568 124.824517 
L 214.49472 152.77788 
L 214.61376 149.889696 
L 214.7328 153.855609 
L 214.85184 150.170666 
L 214.97088 131.483223 
L 215.08992 182.872574 
L 215.20896 157.318031 
L 215.328 187.628474 
L 215.56608 130.672121 
L 215.68512 136.873123 
L 215.80416 121.566305 
L 215.9232 133.329773 
L 216.04224 165.504404 
L 216.16128 105.784544 
L 216.28032 132.718473 
L 216.39936 104.208151 
L 216.63744 142.999166 
L 216.75648 142.078897 
L 216.87552 160.324215 
L 216.99456 156.769879 
L 217.1136 127.948061 
L 217.23264 183.749375 
L 217.47072 128.21514 
L 217.58976 168.658814 
L 217.7088 152.955042 
L 217.82784 116.547372 
L 217.94688 189.310585 
L 218.06592 159.219822 
L 218.18496 180.489512 
L 218.304 143.518958 
L 218.42304 192.35621 
L 218.54208 148.667149 
L 218.66112 165.175029 
L 218.78016 109.587407 
L 218.8992 146.820054 
L 219.01824 145.728206 
L 219.13728 182.600715 
L 219.25632 119.20297 
L 219.4944 158.591323 
L 219.61344 121.256769 
L 219.73248 158.972285 
L 219.85152 130.648441 
L 220.0896 161.557254 
L 220.32768 139.766032 
L 220.44672 223.368597 
L 220.6848 129.526816 
L 220.80384 127.513149 
L 220.92288 177.211119 
L 221.04192 176.466555 
L 221.16096 119.764939 
L 221.28 170.621942 
L 221.39904 163.029557 
L 221.51808 132.52108 
L 221.63712 132.350137 
L 221.75616 129.334413 
L 221.8752 148.849241 
L 221.99424 149.543273 
L 222.11328 199.71639 
L 222.23232 139.771334 
L 222.35136 154.81592 
L 222.4704 129.773684 
L 222.58944 196.683239 
L 222.82752 133.895437 
L 222.94656 125.907623 
L 223.0656 180.068193 
L 223.18464 125.120857 
L 223.30368 121.652867 
L 223.42272 125.058742 
L 223.54176 175.154193 
L 223.77984 150.187371 
L 223.89888 201.161406 
L 224.01792 187.473355 
L 224.13696 127.708055 
L 224.256 141.418687 
L 224.37504 115.342936 
L 224.49408 150.348596 
L 224.61312 140.707536 
L 224.73216 149.705368 
L 224.8512 147.36545 
L 224.97024 171.932587 
L 225.20832 94.595798 
L 225.32736 149.446829 
L 225.4464 131.575299 
L 225.56544 218.819549 
L 225.80352 130.213781 
L 225.92256 204.442 
L 226.0416 104.184659 
L 226.16064 198.963551 
L 226.27968 97.40207 
L 226.39872 157.758342 
L 226.6368 132.157477 
L 226.75584 147.336746 
L 226.87488 181.393887 
L 226.99392 164.420351 
L 227.11296 118.337185 
L 227.35104 206.377396 
L 227.58912 179.756334 
L 227.70816 212.035955 
L 227.94624 122.22867 
L 228.06528 150.953107 
L 228.30336 113.415357 
L 228.4224 168.643703 
L 228.54144 151.89334 
L 228.66048 171.362131 
L 228.89856 139.500647 
L 229.0176 171.16832 
L 229.13664 156.685805 
L 229.25568 117.542788 
L 229.37472 138.928322 
L 229.49376 112.980541 
L 229.6128 182.398608 
L 229.73184 152.978978 
L 229.85088 182.468992 
L 229.96992 127.98771 
L 230.208 142.229608 
L 230.32704 146.381897 
L 230.44608 212.086433 
L 230.56512 165.554981 
L 230.68416 172.795805 
L 230.92224 123.162938 
L 231.16032 150.354223 
L 231.27936 247.409177 
L 231.3984 154.746162 
L 231.51744 168.532535 
L 231.63648 151.367608 
L 231.75552 160.466057 
L 231.9936 135.080058 
L 232.11264 120.389105 
L 232.35072 187.107561 
L 232.46976 193.791905 
L 232.5888 128.067518 
L 232.70784 189.024415 
L 232.82688 186.740194 
L 232.94592 201.237911 
L 233.06496 158.615021 
L 233.184 262.555401 
L 233.30304 147.859208 
L 233.42208 149.817792 
L 233.54112 140.449802 
L 233.66016 184.652123 
L 233.7792 137.618513 
L 233.89824 176.005919 
L 234.13632 110.696676 
L 234.25536 130.582866 
L 234.3744 130.147829 
L 234.49344 167.160071 
L 234.61248 139.482109 
L 234.85056 180.162838 
L 234.9696 162.437216 
L 235.08864 162.951089 
L 235.20768 173.891085 
L 235.44576 115.134619 
L 235.5648 116.559557 
L 235.80288 190.789335 
L 236.04096 138.68029 
L 236.27904 202.19668 
L 236.51712 103.222046 
L 236.7552 180.867473 
L 236.99328 126.035509 
L 237.11232 188.391444 
L 237.23136 154.057318 
L 237.3504 160.421688 
L 237.46944 153.219922 
L 237.58848 125.226426 
L 237.70752 194.482693 
L 237.82656 128.902762 
L 238.06464 176.65345 
L 238.30272 135.282485 
L 238.5408 221.083866 
L 238.65984 149.126603 
L 238.77888 146.465497 
L 238.89792 115.487772 
L 239.136 179.860799 
L 239.25504 119.464872 
L 239.37408 118.610477 
L 239.61216 178.730011 
L 239.7312 149.624678 
L 239.85024 224.577207 
L 240.08832 99.059061 
L 240.20736 155.653308 
L 240.3264 138.715917 
L 240.44544 164.787928 
L 240.68352 121.458515 
L 240.80256 149.957509 
L 240.9216 106.901491 
L 241.15968 187.362485 
L 241.39776 136.621789 
L 241.5168 146.624921 
L 241.63584 173.903038 
L 241.75488 142.876576 
L 241.87392 145.99489 
L 241.99296 196.230119 
L 242.23104 103.368592 
L 242.58816 207.840263 
L 242.7072 159.854699 
L 242.82624 160.652032 
L 242.94528 192.034557 
L 243.06432 132.132174 
L 243.18336 153.892432 
L 243.3024 153.821122 
L 243.42144 171.539935 
L 243.77856 125.605773 
L 243.8976 126.461122 
L 244.13568 110.866368 
L 244.25472 141.859782 
L 244.37376 121.444919 
L 244.4928 124.044615 
L 244.61184 141.582924 
L 244.73088 180.392306 
L 244.84992 150.615778 
L 244.96896 160.068753 
L 245.088 104.214422 
L 245.32608 158.925709 
L 245.44512 144.115605 
L 245.6832 163.159696 
L 245.80224 154.314412 
L 245.92128 155.290248 
L 246.04032 149.225961 
L 246.15936 158.201283 
L 246.2784 147.507141 
L 246.39744 158.885748 
L 246.51648 215.026283 
L 246.63552 146.620672 
L 246.75456 145.35769 
L 246.8736 203.996183 
L 247.11168 114.792738 
L 247.23072 164.310349 
L 247.34976 119.924334 
L 247.4688 201.520748 
L 247.70688 119.93252 
L 247.94496 164.118717 
L 248.064 107.239766 
L 248.30208 158.761629 
L 248.42112 106.824025 
L 248.54016 175.110491 
L 248.77824 110.921729 
L 248.89728 148.477556 
L 249.13536 109.664227 
L 249.2544 217.592846 
L 249.49248 161.451913 
L 249.73056 109.821425 
L 249.96864 216.968779 
L 250.20672 136.87017 
L 250.32576 129.10278 
L 250.4448 146.687551 
L 250.68288 114.025758 
L 250.80192 194.755489 
L 250.92096 151.920492 
L 251.04 155.686107 
L 251.15904 180.139345 
L 251.39712 134.864757 
L 251.51616 138.983938 
L 251.75424 180.703316 
L 251.87328 147.441859 
L 251.99232 168.495887 
L 252.2304 115.40972 
L 252.46848 174.195452 
L 252.58752 142.020859 
L 252.70656 177.550719 
L 252.8256 137.436329 
L 253.06368 146.284543 
L 253.18272 210.955366 
L 253.53984 120.982527 
L 253.65888 122.68601 
L 253.89696 246.845291 
L 254.13504 134.485228 
L 254.25408 157.139206 
L 254.49216 109.337007 
L 254.6112 158.715647 
L 254.84928 118.971622 
L 255.08736 163.561418 
L 255.32544 127.757473 
L 255.44448 141.297699 
L 255.56352 119.11037 
L 255.68256 122.230507 
L 255.8016 129.879349 
L 255.92064 189.182708 
L 256.03968 146.58752 
L 256.15872 149.412388 
L 256.27776 170.343689 
L 256.3968 120.980282 
L 256.51584 169.397412 
L 256.75392 132.548178 
L 256.87296 144.911456 
L 256.992 142.492836 
L 257.11104 118.973566 
L 257.23008 132.285911 
L 257.34912 125.744991 
L 257.5872 172.357357 
L 257.94432 106.595039 
L 258.06336 166.471949 
L 258.1824 109.465804 
L 258.30144 160.481674 
L 258.42048 125.170047 
L 258.53952 158.411781 
L 258.65856 121.083281 
L 258.7776 184.439968 
L 258.89664 127.407283 
L 259.13472 160.251686 
L 259.25376 170.663493 
L 259.3728 99.071022 
L 259.49184 126.548969 
L 259.61088 198.565387 
L 259.72992 193.265849 
L 259.84896 129.728593 
L 259.968 161.055462 
L 260.08704 139.76509 
L 260.20608 145.183017 
L 260.32512 191.133446 
L 260.5632 129.772605 
L 260.68224 186.626627 
L 260.80128 154.031054 
L 260.92032 156.343841 
L 261.27744 123.713022 
L 261.39648 162.933969 
L 261.63456 131.151945 
L 261.7536 163.139229 
L 261.87264 118.127284 
L 261.99168 138.26173 
L 262.11072 123.715267 
L 262.22976 188.625906 
L 262.3488 164.501517 
L 262.46784 171.625206 
L 262.58688 110.50774 
L 262.70592 146.41159 
L 262.82496 137.973025 
L 262.944 146.588968 
L 263.06304 188.423812 
L 263.18208 151.211433 
L 263.30112 175.222735 
L 263.42016 171.141589 
L 263.5392 178.885656 
L 263.77728 119.403901 
L 264.01536 155.967318 
L 264.25344 140.645163 
L 264.37248 143.50651 
L 264.61056 117.039414 
L 264.7296 168.056045 
L 264.84864 118.07738 
L 264.96768 133.378069 
L 265.08672 228.411743 
L 265.20576 111.537373 
L 265.3248 122.305774 
L 265.44384 168.670079 
L 265.56288 150.942487 
L 265.68192 152.064415 
L 265.80096 114.027432 
L 266.03904 154.408676 
L 266.27712 202.129066 
L 266.39616 126.492247 
L 266.5152 169.739444 
L 266.75328 158.703807 
L 266.87232 127.601659 
L 266.99136 128.935264 
L 267.46752 180.750614 
L 267.58656 135.535847 
L 267.7056 134.203305 
L 267.82464 173.392661 
L 267.94368 128.373452 
L 268.06272 158.096188 
L 268.3008 138.163297 
L 268.53888 144.041203 
L 268.65792 145.630776 
L 268.77696 124.824026 
L 269.01504 162.532112 
L 269.13408 164.861242 
L 269.25312 137.198982 
L 269.37216 155.967745 
L 269.4912 121.452112 
L 269.61024 182.322891 
L 269.72928 170.643358 
L 269.84832 147.69819 
L 269.96736 193.508083 
L 270.44352 106.832359 
L 270.56256 224.083947 
L 270.6816 152.907155 
L 270.80064 168.737837 
L 270.91968 105.816428 
L 271.15776 146.577393 
L 271.2768 139.424389 
L 271.39584 144.748704 
L 271.63392 216.185368 
L 271.75296 106.718416 
L 271.99104 170.250188 
L 272.11008 150.35518 
L 272.34816 167.513063 
L 272.4672 154.67884 
L 272.58624 198.484128 
L 272.70528 135.448523 
L 272.82432 145.868693 
L 273.0624 129.417351 
L 273.30048 146.670362 
L 273.41952 133.73793 
L 273.53856 140.758171 
L 273.6576 158.282555 
L 273.89568 102.265717 
L 274.01472 134.803882 
L 274.2528 125.230392 
L 274.37184 132.450512 
L 274.49088 121.714146 
L 274.60992 161.260897 
L 274.72896 150.752697 
L 274.848 175.046657 
L 274.96704 134.681354 
L 275.08608 166.834031 
L 275.20512 164.450206 
L 275.4432 125.291346 
L 275.56224 173.72087 
L 275.68128 123.511364 
L 275.80032 156.281155 
L 275.91936 121.1148 
L 276.0384 160.961838 
L 276.15744 136.746198 
L 276.39552 171.631172 
L 276.51456 157.601139 
L 276.6336 158.007087 
L 276.87168 96.224729 
L 277.10976 162.963827 
L 277.34784 122.191056 
L 277.58592 156.537553 
L 277.824 117.684158 
L 278.18112 182.775828 
L 278.30016 109.44308 
L 278.4192 143.338768 
L 278.53824 105.370177 
L 278.65728 145.927373 
L 278.77632 88.456429 
L 278.89536 152.444604 
L 279.0144 117.069333 
L 279.13344 202.614755 
L 279.25248 121.789693 
L 279.49056 218.042123 
L 279.6096 121.349848 
L 279.84768 116.965618 
L 279.96672 132.376455 
L 280.08576 187.197552 
L 280.2048 130.766149 
L 280.32384 198.196068 
L 280.56192 143.3447 
L 280.68096 155.455307 
L 280.91904 127.015837 
L 281.03808 147.931717 
L 281.15712 128.326252 
L 281.27616 160.967768 
L 281.3952 132.388548 
L 281.51424 147.721704 
L 281.63328 106.289194 
L 281.75232 157.514598 
L 281.87136 119.462183 
L 282.10944 178.413405 
L 282.22848 138.500212 
L 282.34752 164.698304 
L 282.5856 138.176586 
L 282.70464 143.049922 
L 282.82368 155.056003 
L 282.94272 152.992193 
L 283.1808 143.415695 
L 283.29984 125.420357 
L 283.41888 166.400867 
L 283.53792 126.612585 
L 283.65696 125.18462 
L 284.01408 161.418327 
L 284.13312 164.997454 
L 284.60928 139.350664 
L 284.84736 201.097234 
L 285.08544 153.917297 
L 285.20448 156.241676 
L 285.32352 148.565932 
L 285.44256 115.742466 
L 285.5616 120.605311 
L 285.79968 187.533264 
L 285.91872 137.357764 
L 286.03776 158.969773 
L 286.1568 104.81173 
L 286.27584 184.066475 
L 286.39488 125.095702 
L 286.51392 161.372357 
L 286.752 137.39434 
L 286.87104 158.345293 
L 286.99008 131.317999 
L 287.10912 166.705384 
L 287.22816 139.757269 
L 287.46624 187.591859 
L 287.70432 112.880834 
L 287.82336 144.700545 
L 287.9424 131.304439 
L 288.06144 134.625886 
L 288.18048 127.420765 
L 288.29952 131.030616 
L 288.5376 164.858602 
L 288.65664 127.46136 
L 288.77568 171.296257 
L 289.01376 121.865447 
L 289.25184 129.401957 
L 289.37088 114.405474 
L 289.60896 172.90365 
L 289.728 171.536833 
L 289.84704 164.538378 
L 289.96608 93.306671 
L 290.20416 159.788463 
L 290.3232 113.614284 
L 290.44224 157.552725 
L 290.68032 104.678981 
L 290.79936 229.046081 
L 290.9184 174.075885 
L 291.03744 285.408 
L 291.27552 136.602967 
L 291.39456 103.659788 
L 291.63264 163.666476 
L 291.75168 163.977196 
L 291.87072 140.998453 
L 291.98976 155.758379 
L 292.1088 99.017115 
L 292.22784 174.921881 
L 292.34688 119.088974 
L 292.58496 165.491776 
L 292.704 155.128441 
L 292.82304 156.895766 
L 292.94208 112.347862 
L 293.06112 150.744456 
L 293.18016 126.954727 
L 293.2992 134.388422 
L 293.41824 149.937665 
L 293.53728 126.858808 
L 293.65632 144.570563 
L 293.77536 213.628714 
L 294.01344 114.451776 
L 294.13248 199.453901 
L 294.37056 169.350519 
L 294.60864 141.377439 
L 294.84672 173.34054 
L 294.96576 165.401918 
L 295.0848 109.865613 
L 295.20384 124.873372 
L 295.32288 101.019402 
L 295.44192 234.344431 
L 295.56096 115.203517 
L 295.68 202.479328 
L 295.79904 185.811099 
L 295.91808 200.802419 
L 296.15616 130.326606 
L 296.2752 170.56117 
L 296.39424 125.777199 
L 296.63232 186.025937 
L 296.8704 121.812596 
L 296.98944 119.025985 
L 297.10848 234.447227 
L 297.22752 124.186467 
L 297.34656 219.153745 
L 297.4656 120.506966 
L 297.58464 117.935113 
L 297.70368 169.960002 
L 297.94176 135.630602 
L 298.17984 194.608313 
L 298.29888 137.196724 
L 298.41792 157.043209 
L 298.53696 126.720172 
L 298.656 130.151082 
L 298.89408 142.11226 
L 299.01312 196.747301 
L 299.13216 196.349246 
L 299.2512 124.523122 
L 299.60832 195.535545 
L 299.8464 140.469477 
L 299.96544 140.05678 
L 300.08448 128.652256 
L 300.20352 132.789412 
L 300.32256 142.559245 
L 300.4416 112.960423 
L 300.67968 158.777451 
L 300.79872 116.655181 
L 300.91776 167.169981 
L 301.0368 158.872055 
L 301.15584 101.496985 
L 301.39392 136.684165 
L 301.51296 134.156616 
L 301.632 179.877145 
L 301.75104 176.069668 
L 301.87008 109.298041 
L 302.10816 175.369704 
L 302.2272 148.358408 
L 302.46528 168.380254 
L 302.58432 117.687003 
L 302.70336 161.243406 
L 302.8224 144.03156 
L 302.94144 184.581169 
L 303.06048 141.223467 
L 303.17952 170.534136 
L 303.29856 118.352099 
L 303.4176 226.689523 
L 303.53664 115.617513 
L 303.77472 130.405164 
L 303.89376 189.776432 
L 304.0128 168.282532 
L 304.13184 168.229031 
L 304.36992 102.83337 
L 304.48896 142.45487 
L 304.608 138.696319 
L 304.72704 155.590237 
L 304.84608 156.046218 
L 304.96512 130.413126 
L 305.2032 150.978401 
L 305.32224 200.530967 
L 305.44128 156.893695 
L 305.56032 159.310713 
L 305.7984 101.1483 
L 305.91744 111.388579 
L 306.03648 165.79655 
L 306.15552 118.583766 
L 306.27456 122.817475 
L 306.3936 167.031797 
L 306.51264 121.800274 
L 306.63168 181.215731 
L 306.75072 101.714693 
L 306.9888 146.0441 
L 307.22688 181.497397 
L 307.34592 163.880748 
L 307.46496 122.467584 
L 307.584 154.304089 
L 307.70304 133.157929 
L 307.82208 139.565691 
L 307.94112 114.449248 
L 308.06016 153.790873 
L 308.1792 117.589022 
L 308.41728 178.979104 
L 308.53632 136.024602 
L 308.7744 149.818853 
L 308.89344 145.888548 
L 309.01248 104.76732 
L 309.25056 176.457458 
L 309.3696 156.870985 
L 309.48864 172.518426 
L 309.60768 123.677464 
L 309.72672 128.234543 
L 309.84576 171.344924 
L 309.9648 160.997902 
L 310.08384 116.984093 
L 310.32192 155.214677 
L 310.44096 147.638367 
L 310.56 236.18566 
L 310.67904 138.409873 
L 310.91712 171.608802 
L 311.03616 150.582384 
L 311.1552 210.166381 
L 311.39328 142.380392 
L 311.63136 183.759657 
L 311.7504 113.947594 
L 311.98848 175.858757 
L 312.10752 164.523952 
L 312.22656 126.107468 
L 312.3456 181.301788 
L 312.46464 177.232053 
L 312.70272 150.671347 
L 312.82176 161.393238 
L 312.9408 140.087538 
L 313.05984 174.542048 
L 313.29792 124.720617 
L 313.41696 204.021531 
L 313.65504 128.109804 
L 313.77408 202.136969 
L 314.01216 130.518814 
L 314.36928 160.539782 
L 314.60736 120.310089 
L 314.7264 164.346271 
L 314.84544 144.569457 
L 314.96448 154.350808 
L 315.08352 134.768171 
L 315.20256 135.834585 
L 315.3216 120.798573 
L 315.44064 186.508055 
L 315.55968 101.285088 
L 315.9168 185.944559 
L 316.03584 173.963982 
L 316.15488 137.059029 
L 316.27392 172.34006 
L 316.39296 162.090553 
L 316.512 117.121715 
L 316.63104 127.425911 
L 316.75008 159.436241 
L 316.86912 153.296921 
L 316.98816 139.866258 
L 317.1072 178.173372 
L 317.46432 108.208144 
L 317.7024 152.871816 
L 317.82144 133.844941 
L 318.05952 191.664463 
L 318.17856 120.860983 
L 318.2976 150.941275 
L 318.41664 139.876732 
L 318.65472 167.484454 
L 318.77376 173.070628 
L 318.8928 169.013559 
L 319.01184 145.261508 
L 319.13088 231.519774 
L 319.36896 132.237057 
L 319.488 175.407554 
L 319.60704 144.134459 
L 319.72608 213.831955 
L 319.84512 206.642795 
L 320.0832 123.151323 
L 320.20224 134.412984 
L 320.32128 167.697515 
L 320.44032 167.24072 
L 320.6784 121.954554 
L 320.79744 170.958161 
L 320.91648 139.471753 
L 321.15456 167.707126 
L 321.2736 135.182397 
L 321.39264 201.167217 
L 321.51168 123.822078 
L 321.74976 192.395959 
L 322.22592 114.854545 
L 322.34496 150.033258 
L 322.464 151.983943 
L 322.58304 122.809496 
L 322.70208 153.564199 
L 322.82112 113.115051 
L 322.94016 157.541526 
L 323.17824 125.862015 
L 323.29728 155.728208 
L 323.41632 138.517612 
L 323.53536 174.690143 
L 323.77344 127.333736 
L 323.89248 125.137736 
L 324.01152 149.921082 
L 324.13056 129.996868 
L 324.2496 161.06743 
L 324.36864 139.636439 
L 324.48768 144.055223 
L 324.60672 117.462608 
L 324.72576 165.486092 
L 324.96384 109.543562 
L 325.08288 142.324825 
L 325.20192 131.606743 
L 325.32096 164.016952 
L 325.44 120.066384 
L 325.55904 129.683524 
L 325.67808 114.849502 
L 325.79712 125.700115 
L 325.91616 166.018551 
L 326.15424 153.621159 
L 326.27328 116.943527 
L 326.39232 150.437009 
L 326.51136 117.728829 
L 326.6304 148.63812 
L 326.74944 146.61173 
L 326.86848 149.400204 
L 326.98752 135.41891 
L 327.2256 174.020218 
L 327.34464 188.305267 
L 327.46368 123.970941 
L 327.58272 263.900621 
L 327.70176 132.053939 
L 327.8208 125.868517 
L 327.93984 169.786438 
L 328.05888 129.770733 
L 328.17792 174.548736 
L 328.29696 134.430401 
L 328.416 134.808122 
L 328.53504 104.458177 
L 328.65408 210.474011 
L 328.77312 189.658667 
L 328.89216 122.948008 
L 329.0112 171.860785 
L 329.13024 143.540343 
L 329.24928 145.592011 
L 329.36832 137.858537 
L 329.48736 91.250799 
L 329.6064 214.3162 
L 329.72544 123.379488 
L 329.84448 186.560687 
L 329.96352 184.182731 
L 330.08256 177.461339 
L 330.2016 191.148697 
L 330.32064 233.053339 
L 330.55872 129.910774 
L 330.67776 162.692095 
L 330.7968 145.904505 
L 331.03488 182.563525 
L 331.392 147.09991 
L 331.63008 174.092184 
L 331.74912 144.203379 
L 331.86816 147.380081 
L 331.9872 167.943857 
L 332.10624 120.162551 
L 332.46336 173.321091 
L 332.5824 131.846219 
L 332.82048 164.917312 
L 332.93952 122.67059 
L 333.05856 138.354435 
L 333.1776 114.337282 
L 333.41568 157.522596 
L 333.53472 123.48069 
L 333.65376 152.729431 
L 333.7728 145.541702 
L 333.89184 224.101887 
L 334.01088 142.440845 
L 334.24896 158.654399 
L 334.368 150.690152 
L 334.48704 105.503744 
L 334.72512 186.650852 
L 334.84416 106.797189 
L 334.9632 132.707157 
L 335.08224 133.366476 
L 335.20128 163.439232 
L 335.32032 133.353383 
L 335.43936 147.276642 
L 335.5584 142.131557 
L 335.67744 129.559901 
L 335.91552 142.836531 
L 336.03456 141.405032 
L 336.1536 117.42386 
L 336.27264 146.359786 
L 336.39168 143.553551 
L 336.51072 137.631026 
L 336.62976 231.984079 
L 336.7488 179.414842 
L 336.86784 223.272984 
L 337.10592 110.597911 
L 337.344 149.529221 
L 337.46304 145.112867 
L 337.58208 163.083534 
L 337.70112 142.754636 
L 337.82016 166.92052 
L 337.9392 154.654936 
L 338.05824 100.572572 
L 338.41536 150.156673 
L 338.5344 150.009029 
L 338.65344 196.637526 
L 338.77248 119.662764 
L 338.89152 158.850516 
L 339.1296 97.448928 
L 339.36768 171.1428 
L 339.48672 149.882295 
L 339.60576 184.259161 
L 339.7248 127.316598 
L 339.84384 175.849178 
L 339.96288 116.193952 
L 340.08192 153.058862 
L 340.32 129.979738 
L 340.43904 191.464985 
L 340.55808 123.351943 
L 340.67712 141.576699 
L 340.79616 141.314346 
L 340.9152 139.444482 
L 341.03424 121.008363 
L 341.27232 165.238951 
L 341.5104 122.283271 
L 341.74848 160.11286 
L 341.86752 155.561862 
L 341.98656 183.344526 
L 342.22464 134.808844 
L 342.34368 163.581884 
L 342.46272 144.555504 
L 342.58176 209.879349 
L 342.7008 171.418718 
L 342.81984 168.909272 
L 342.93888 134.003134 
L 343.17696 138.648503 
L 343.296 133.261034 
L 343.53408 184.479918 
L 343.65312 176.662481 
L 343.77216 144.926482 
L 343.8912 186.033639 
L 344.01024 131.220954 
L 344.12928 139.122898 
L 344.24832 137.619539 
L 344.4864 155.40038 
L 344.72448 145.297986 
L 344.84352 167.10554 
L 344.96256 209.572584 
L 345.0816 134.101389 
L 345.20064 158.394869 
L 345.31968 115.023162 
L 345.43872 168.905564 
L 345.55776 128.908019 
L 345.6768 135.706823 
L 345.79584 173.354086 
L 346.03392 146.083084 
L 346.15296 121.922166 
L 346.74816 173.490359 
L 346.8672 115.907055 
L 347.22432 174.587881 
L 347.4624 132.257405 
L 347.58144 169.491448 
L 347.70048 132.355885 
L 347.81952 176.903834 
L 347.93856 135.077801 
L 348.0576 221.647598 
L 348.17664 161.456968 
L 348.29568 208.427775 
L 348.41472 122.934986 
L 348.53376 156.477564 
L 348.6528 247.998 
L 348.77184 120.054674 
L 348.89088 118.93758 
L 349.00992 160.479416 
L 349.12896 131.018437 
L 349.248 158.662613 
L 349.36704 112.684171 
L 349.48608 180.729389 
L 349.60512 136.304391 
L 349.72416 142.582166 
L 349.8432 216.718272 
L 350.08128 119.216501 
L 350.20032 218.578844 
L 350.31936 142.598313 
L 350.4384 166.619397 
L 350.55744 133.934084 
L 350.67648 190.060814 
L 350.79552 120.089639 
L 350.91456 187.599345 
L 351.15264 113.712886 
L 351.27168 166.930148 
L 351.50976 141.234317 
L 351.6288 192.018683 
L 351.74784 128.036073 
L 352.10496 189.900994 
L 352.224 147.063344 
L 352.46208 190.565312 
L 352.58112 177.909119 
L 352.8192 140.6401 
L 352.93824 166.472901 
L 353.05728 159.474366 
L 353.17632 200.056603 
L 353.29536 149.668669 
L 353.4144 150.094307 
L 353.53344 194.545239 
L 353.65248 154.835061 
L 353.77152 211.820735 
L 354.0096 151.262058 
L 354.12864 126.742965 
L 354.24768 129.684143 
L 354.36672 119.194925 
L 354.6048 186.73407 
L 354.72384 121.635715 
L 354.96192 160.58073 
L 355.08096 128.545301 
L 355.2 141.363604 
L 355.31904 176.630385 
L 355.43808 114.320133 
L 355.55712 170.494401 
L 355.67616 158.983441 
L 355.91424 179.704176 
L 356.15232 115.686817 
L 356.27136 113.61824 
L 356.3904 117.178981 
L 356.50944 180.363273 
L 356.62848 178.469777 
L 356.9856 115.39071 
L 357.10464 148.195566 
L 357.22368 143.306432 
L 357.34272 166.864217 
L 357.46176 155.963951 
L 357.69984 231.15114 
L 357.81888 115.491839 
L 357.93792 150.729601 
L 358.05696 126.032788 
L 358.29504 155.226232 
L 358.53312 115.52525 
L 358.7712 153.068269 
L 358.89024 176.367494 
L 359.12832 148.391492 
L 359.24736 98.353712 
L 359.3664 188.072158 
L 359.60448 159.76003 
L 359.72352 175.413795 
L 359.84256 151.091442 
L 359.9616 169.306982 
L 360.08064 159.961217 
L 360.19968 181.178949 
L 360.31872 113.4076 
L 360.43776 170.539406 
L 360.5568 99.87416 
L 360.67584 166.944408 
L 360.79488 132.902094 
L 361.03296 187.854242 
L 361.27104 119.669749 
L 361.62816 146.013461 
L 361.7472 86.302887 
L 361.86624 144.848228 
L 361.98528 130.780239 
L 362.10432 213.107466 
L 362.22336 99.634221 
L 362.3424 116.530764 
L 362.46144 233.76909 
L 362.58048 127.750607 
L 362.69952 138.795151 
L 362.81856 181.34587 
L 363.05664 117.592335 
L 363.17568 190.482201 
L 363.29472 130.322551 
L 363.5328 162.943147 
L 363.65184 178.252594 
L 363.88992 154.739228 
L 364.00896 175.253517 
L 364.128 119.322328 
L 364.24704 149.930991 
L 364.36608 130.763501 
L 364.48512 175.166493 
L 364.60416 100.065932 
L 364.84224 157.759892 
L 365.08032 132.109652 
L 365.3184 172.314129 
L 365.43744 141.35321 
L 365.55648 191.065421 
L 365.67552 164.802709 
L 365.79456 167.258263 
L 365.9136 195.480953 
L 366.03264 188.865756 
L 366.27072 98.789744 
L 366.38976 142.063856 
L 366.5088 141.1923 
L 366.62784 109.902332 
L 366.74688 142.353064 
L 366.86592 135.376545 
L 366.98496 163.589951 
L 367.22304 134.490094 
L 367.34208 179.233256 
L 367.46112 147.744396 
L 367.58016 158.93265 
L 367.6992 152.895861 
L 367.81824 160.766318 
L 367.93728 119.47658 
L 368.05632 134.164909 
L 368.17536 128.005903 
L 368.2944 160.013339 
L 368.41344 155.25019 
L 368.53248 180.86446 
L 368.65152 164.095659 
L 368.77056 210.516162 
L 368.8896 133.466685 
L 369.00864 129.635784 
L 369.24672 110.229724 
L 369.60384 181.178642 
L 369.84192 126.558177 
L 369.96096 131.272926 
L 370.19904 181.442022 
L 370.31808 143.485887 
L 370.43712 166.322286 
L 370.6752 114.595024 
L 370.79424 175.166089 
L 370.91328 143.405404 
L 371.03232 160.642981 
L 371.15136 151.443414 
L 371.2704 158.160224 
L 371.38944 141.638131 
L 371.50848 155.716529 
L 371.62752 149.797904 
L 371.8656 132.663681 
L 371.98464 149.349115 
L 372.10368 92.033032 
L 372.34176 153.858012 
L 372.4608 150.253109 
L 372.57984 178.345221 
L 372.69888 159.923702 
L 372.81792 160.400199 
L 373.056 178.212639 
L 373.29408 124.477667 
L 373.41312 175.89656 
L 373.53216 142.384326 
L 373.6512 152.276604 
L 373.77024 142.168131 
L 373.88928 199.68126 
L 374.00832 140.498367 
L 374.12736 151.169272 
L 374.2464 148.058057 
L 374.36544 179.550797 
L 374.48448 178.412892 
L 374.60352 160.998452 
L 374.72256 166.927707 
L 374.8416 198.733669 
L 375.31776 118.99447 
L 375.4368 115.162851 
L 375.55584 171.609817 
L 375.67488 141.100427 
L 375.79392 156.382803 
L 375.91296 190.233245 
L 376.15104 124.393015 
L 376.38912 163.585554 
L 376.50816 130.718919 
L 376.6272 169.382984 
L 376.86528 127.116785 
L 376.98432 236.262837 
L 377.10336 104.121853 
L 377.34144 178.135583 
L 377.46048 140.103161 
L 377.57952 157.219781 
L 377.69856 207.183081 
L 377.8176 157.063426 
L 377.93664 192.313253 
L 378.05568 120.675915 
L 378.17472 150.408153 
L 378.29376 138.185793 
L 378.4128 179.286885 
L 378.53184 162.417631 
L 378.65088 168.560179 
L 378.88896 157.313486 
L 379.008 99.795242 
L 379.24608 144.442473 
L 379.36512 142.740302 
L 379.48416 165.166046 
L 379.6032 104.128089 
L 379.72224 126.124325 
L 379.84128 184.580123 
L 379.96032 170.332051 
L 380.1984 125.099535 
L 380.31744 146.324938 
L 380.43648 126.301314 
L 380.55552 161.69024 
L 380.7936 140.08001 
L 380.91264 122.791303 
L 381.03168 133.936824 
L 381.15072 162.219067 
L 381.26976 114.813278 
L 381.50784 131.756876 
L 381.86496 150.343039 
L 381.984 162.32855 
L 382.22208 133.165375 
L 382.34112 185.905297 
L 382.5792 137.844837 
L 382.69824 170.671173 
L 382.93632 107.587988 
L 383.05536 122.28908 
L 383.1744 174.693768 
L 383.29344 158.61082 
L 383.41248 109.861717 
L 383.53152 169.630572 
L 383.65056 168.250128 
L 383.7696 164.098384 
L 383.88864 130.55946 
L 384.12672 149.497182 
L 384.24576 143.591303 
L 384.3648 191.380634 
L 384.60288 114.54961 
L 384.72192 145.251442 
L 384.84096 139.649881 
L 385.07904 157.640964 
L 385.19808 160.165607 
L 385.43616 170.299713 
L 385.5552 130.95892 
L 385.67424 195.915772 
L 385.91232 147.052007 
L 386.03136 135.185952 
L 386.1504 155.49408 
L 386.26944 152.137617 
L 386.38848 194.63047 
L 386.50752 128.528382 
L 386.62656 158.591033 
L 386.7456 118.332398 
L 386.86464 241.928321 
L 386.98368 129.173935 
L 387.10272 125.195441 
L 387.22176 168.232602 
L 387.3408 167.864296 
L 387.45984 176.476924 
L 387.57888 114.971751 
L 387.69792 138.375936 
L 387.81696 189.39429 
L 388.05504 152.471485 
L 388.17408 161.974332 
L 388.29312 140.17909 
L 388.41216 208.588649 
L 388.65024 130.9376 
L 388.76928 142.619661 
L 388.88832 174.74995 
L 389.1264 138.994411 
L 389.24544 181.981181 
L 389.36448 143.858003 
L 389.60256 179.902773 
L 389.7216 185.874482 
L 389.84064 130.857474 
L 389.95968 223.221666 
L 390.07872 192.166085 
L 390.19776 274.177737 
L 390.43584 133.231445 
L 390.55488 175.080468 
L 390.67392 167.468934 
L 390.79296 212.931323 
L 391.03104 116.958292 
L 391.15008 202.707085 
L 391.26912 147.117567 
L 391.38816 181.097382 
L 391.5072 119.234833 
L 391.62624 130.931832 
L 391.86432 116.332303 
L 391.98336 187.253293 
L 392.1024 143.438062 
L 392.22144 153.938341 
L 392.34048 145.515303 
L 392.45952 148.117385 
L 392.57856 194.094042 
L 392.81664 156.891894 
L 392.93568 157.099355 
L 393.05472 157.012668 
L 393.17376 123.08623 
L 393.2928 123.209832 
L 393.41184 154.157561 
L 393.53088 144.270215 
L 393.64992 150.698309 
L 393.76896 176.73775 
L 393.888 141.842522 
L 394.00704 203.098864 
L 394.12608 125.901009 
L 394.24512 127.778315 
L 394.36416 162.904406 
L 394.4832 152.26497 
L 394.60224 160.566197 
L 394.95936 147.499495 
L 395.0784 123.47287 
L 395.19744 234.662828 
L 395.43552 124.898625 
L 395.55456 152.246327 
L 395.6736 134.249877 
L 395.79264 175.686631 
L 395.91168 152.695957 
L 396.03072 157.332729 
L 396.14976 186.83008 
L 396.38784 134.856431 
L 396.50688 177.831239 
L 396.62592 128.409111 
L 396.74496 128.299668 
L 396.864 154.093385 
L 396.98304 102.538332 
L 397.34016 160.7118 
L 397.4592 136.663796 
L 397.57824 183.435543 
L 397.81632 111.979482 
L 397.93536 154.0814 
L 398.17344 93.187651 
L 398.29248 171.718398 
L 398.53056 132.994479 
L 398.6496 132.970662 
L 398.76864 137.388111 
L 399.00672 171.217919 
L 399.12576 194.465895 
L 399.2448 156.56095 
L 399.36384 166.34125 
L 399.48288 166.320608 
L 399.60192 149.907736 
L 399.72096 164.406956 
L 399.84 126.429413 
L 399.95904 149.188352 
L 400.07808 137.721437 
L 400.19712 181.407946 
L 400.31616 154.475979 
L 400.4352 176.545679 
L 400.55424 135.773305 
L 400.67328 171.180698 
L 400.79232 119.333229 
L 400.91136 155.21295 
L 401.0304 142.330274 
L 401.14944 161.272367 
L 401.38752 145.516481 
L 401.50656 175.458809 
L 401.6256 137.559204 
L 401.74464 157.960676 
L 401.86368 145.537492 
L 402.10176 161.272012 
L 402.2208 192.147129 
L 402.45888 122.88585 
L 402.57792 145.709924 
L 402.69696 125.69536 
L 402.816 126.151855 
L 402.93504 166.323609 
L 403.05408 130.615606 
L 403.17312 138.860709 
L 403.4112 116.826671 
L 403.64928 136.621561 
L 403.76832 131.043897 
L 403.88736 174.591617 
L 404.0064 134.740022 
L 404.12544 135.653881 
L 404.24448 165.788506 
L 404.36352 145.238419 
L 404.48256 155.353589 
L 404.6016 105.838557 
L 404.83968 170.784987 
L 405.07776 139.072507 
L 405.1968 136.751845 
L 405.31584 115.270144 
L 405.55392 175.660137 
L 405.67296 124.886467 
L 405.792 140.108565 
L 405.91104 170.063267 
L 406.03008 133.093058 
L 406.14912 168.68305 
L 406.26816 149.699423 
L 406.50624 191.745569 
L 406.62528 105.495729 
L 406.74432 174.318312 
L 406.86336 143.69252 
L 406.9824 142.478383 
L 407.10144 166.513397 
L 407.22048 134.358733 
L 407.33952 164.757231 
L 407.45856 159.532732 
L 407.5776 121.410235 
L 407.69664 162.487517 
L 407.93472 124.08482 
L 408.05376 141.057346 
L 408.1728 116.244427 
L 408.29184 133.412455 
L 408.41088 171.985527 
L 408.52992 134.049509 
L 408.768 172.826214 
L 408.88704 126.777464 
L 409.12512 167.245079 
L 409.3632 115.686203 
L 409.48224 146.796205 
L 409.60128 121.092645 
L 409.72032 133.741346 
L 409.83936 166.121239 
L 409.9584 143.362785 
L 410.07744 173.087606 
L 410.19648 117.894784 
L 410.31552 135.125886 
L 410.43456 114.08483 
L 410.5536 148.937121 
L 410.79168 150.04923 
L 410.91072 113.028292 
L 411.1488 134.763334 
L 411.38688 139.28894 
L 411.50592 149.274679 
L 411.62496 119.288694 
L 411.744 121.187029 
L 411.98208 154.700108 
L 412.10112 156.063403 
L 412.22016 144.112717 
L 412.3392 119.668946 
L 412.57728 162.374814 
L 412.69632 110.616398 
L 412.9344 148.126631 
L 413.05344 123.224418 
L 413.17248 128.574006 
L 413.29152 89.878392 
L 413.5296 178.990252 
L 413.64864 171.102588 
L 413.76768 144.347856 
L 413.88672 189.986323 
L 414.00576 128.999529 
L 414.1248 156.007444 
L 414.24384 130.853284 
L 414.36288 153.032134 
L 414.48192 142.533181 
L 414.60096 102.455084 
L 414.60096 102.455084 
" style="fill:none;stroke:#0000ff;stroke-linecap:square;stroke-width:1.5;"/>
   </g>
   <g id="patch_3">
    <path d="M 57.6 307.584 
L 57.6 41.472 
" style="fill:none;stroke:#000000;stroke-linecap:square;stroke-linejoin:miter;stroke-width:0.8;"/>
   </g>
   <g id="patch_4">
    <path d="M 414.72 307.584 
L 414.72 41.472 
" style="fill:none;stroke:#000000;stroke-linecap:square;stroke-linejoin:miter;stroke-width:0.8;"/>
   </g>
   <g id="patch_5">
    <path d="M 57.6 307.584 
L 414.72 307.584 
" style="fill:none;stroke:#000000;stroke-linecap:square;stroke-linejoin:miter;stroke-width:0.8;"/>
   </g>
   <g id="patch_6">
    <path d="M 57.6 41.472 
L 414.72 41.472 
" style="fill:none;stroke:#000000;stroke-linecap:square;stroke-linejoin:miter;stroke-width:0.8;"/>
   </g>
   <g id="legend_1">
    <g id="patch_7">
     <path d="M 282.321563 64.150125 
L 407.72 64.150125 
Q 409.72 64.150125 409.72 62.150125 
L 409.72 48.472 
Q 409.72 46.472 407.72 46.472 
L 282.321563 46.472 
Q 280.321563 46.472 280.321563 48.472 
L 280.321563 62.150125 
Q 280.321563 64.150125 282.321563 64.150125 
z
" style="fill:#ffffff;opacity:0.8;stroke:#cccccc;stroke-linejoin:miter;"/>
    </g>
    <g id="line2d_28">
     <path d="M 284.321563 54.570438 
L 304.321563 54.570438 
" style="fill:none;stroke:#0000ff;stroke-linecap:square;stroke-width:1.5;"/>
    </g>
    <g id="line2d_29"/>
    <g id="text_16">
     <!-- cumulative reward -->
     <g transform="translate(312.321563 58.070438)scale(0.1 -0.1)">
      <defs>
       <path d="M 3122 3366 
L 3122 2828 
Q 2878 2963 2633 3030 
Q 2388 3097 2138 3097 
Q 1578 3097 1268 2742 
Q 959 2388 959 1747 
Q 959 1106 1268 751 
Q 1578 397 2138 397 
Q 2388 397 2633 464 
Q 2878 531 3122 666 
L 3122 134 
Q 2881 22 2623 -34 
Q 2366 -91 2075 -91 
Q 1284 -91 818 406 
Q 353 903 353 1747 
Q 353 2603 823 3093 
Q 1294 3584 2113 3584 
Q 2378 3584 2631 3529 
Q 2884 3475 3122 3366 
z
" id="DejaVuSans-63" transform="scale(0.015625)"/>
      </defs>
      <use xlink:href="#DejaVuSans-63"/>
      <use x="54.980469" xlink:href="#DejaVuSans-75"/>
      <use x="118.359375" xlink:href="#DejaVuSans-6d"/>
      <use x="215.771484" xlink:href="#DejaVuSans-75"/>
      <use x="279.150391" xlink:href="#DejaVuSans-6c"/>
      <use x="306.933594" xlink:href="#DejaVuSans-61"/>
      <use x="368.212891" xlink:href="#DejaVuSans-74"/>
      <use x="407.421875" xlink:href="#DejaVuSans-69"/>
      <use x="435.205078" xlink:href="#DejaVuSans-76"/>
      <use x="494.384766" xlink:href="#DejaVuSans-65"/>
      <use x="555.908203" xlink:href="#DejaVuSans-20"/>
      <use x="587.695312" xlink:href="#DejaVuSans-72"/>
      <use x="626.558594" xlink:href="#DejaVuSans-65"/>
      <use x="688.082031" xlink:href="#DejaVuSans-77"/>
      <use x="769.869141" xlink:href="#DejaVuSans-61"/>
      <use x="831.148438" xlink:href="#DejaVuSans-72"/>
      <use x="870.511719" xlink:href="#DejaVuSans-64"/>
     </g>
    </g>
   </g>
  </g>
 </g>
 <defs>
  <clipPath id="pd11281bfd3">
   <rect height="266.112" width="357.12" x="57.6" y="41.472"/>
  </clipPath>
 </defs>
</svg>
