<?xml version="1.0" encoding="utf-8" standalone="no"?>
<!DOCTYPE svg PUBLIC "-//W3C//DTD SVG 1.1//EN"
  "http://www.w3.org/Graphics/SVG/1.1/DTD/svg11.dtd">
<svg height="345.6pt" version="1.1" viewBox="0 0 460.8 345.6" width="460.8pt" xmlns="http://www.w3.org/2000/svg" xmlns:xlink="http://www.w3.org/1999/xlink">
 <metadata>
  <rdf:RDF xmlns:cc="http://creativecommons.org/ns#" xmlns:dc="http://purl.org/dc/elements/1.1/" xmlns:rdf="http://www.w3.org/1999/02/22-rdf-syntax-ns#">
   <cc:Work>
    <dc:type rdf:resource="http://purl.org/dc/dcmitype/StillImage"/>
    <dc:date>2021-10-27T11:18:20.203117</dc:date>
    <dc:description>{"agent.algorithm": "RayProximalPolicyOptimization", "agent.algorithm.render_env": false, "agent.algorithm.num_workers": 0, "agent.algorithm.batch_mode": "complete_episodes", "agent.algorithm.train_batch_size": 200, "agent.algorithm.optimizer": "Adam", "agent.algorithm.vf_clip_param": 10000000.0, "agent.algorithm.model": {"fcnet_activation": "tanh", "fcnet_hiddens": [50, 50]}, "env.env_class": "SchedulerPolicyRayEnvironment", "env.env_config": {"solver_driver": "CMAdriver", "solver_driver_args": [10, 10, 12, 1.28], "maximize": false, "steps": 50, "state_metrics_names": ["DifferenceOfBest", "SolverStateHistory", "SolverState"], "state_metrics_config": [[40, false, 1, true], [{"step_size": {"max": 3, "min": 0}}, 40], [{"ps": {"max": 10, "min": -10}}]], "reward_metric": "Best", "reward_metric_config": [false, false], "memes_no": 1, "action_space_config": {"step_size": {"max": 3, "min": 1e-10}}}}</dc:description>
    <dc:format>image/svg+xml</dc:format>
    <dc:creator>
     <cc:Agent>
      <dc:title>Matplotlib v3.4.3, https://matplotlib.org/</dc:title>
     </cc:Agent>
    </dc:creator>
   </cc:Work>
  </rdf:RDF>
 </metadata>
 <defs>
  <style type="text/css">*{stroke-linecap:butt;stroke-linejoin:round;}</style>
 </defs>
 <g id="figure_1">
  <g id="patch_1">
   <path d="M 0 345.6 
L 460.8 345.6 
L 460.8 0 
L 0 0 
z
" style="fill:#ffffff;"/>
  </g>
  <g id="axes_1">
   <g id="patch_2">
    <path d="M 57.6 307.584 
L 414.72 307.584 
L 414.72 41.472 
L 57.6 41.472 
z
" style="fill:#ffffff;"/>
   </g>
   <g id="matplotlib.axis_1">
    <g id="xtick_1">
     <g id="line2d_1">
      <path clip-path="url(#pb41cf0268f)" d="M 57.6 307.584 
L 57.6 41.472 
" style="fill:none;stroke:#b0b0b0;stroke-linecap:square;stroke-width:0.8;"/>
     </g>
     <g id="line2d_2">
      <defs>
       <path d="M 0 0 
L 0 3.5 
" id="m4b831cff1b" style="stroke:#000000;stroke-width:0.8;"/>
      </defs>
      <g>
       <use style="stroke:#000000;stroke-width:0.8;" x="57.6" xlink:href="#m4b831cff1b" y="307.584"/>
      </g>
     </g>
     <g id="text_1">
      <!-- 0 -->
      <g transform="translate(54.41875 322.182437)scale(0.1 -0.1)">
       <defs>
        <path d="M 2034 4250 
Q 1547 4250 1301 3770 
Q 1056 3291 1056 2328 
Q 1056 1369 1301 889 
Q 1547 409 2034 409 
Q 2525 409 2770 889 
Q 3016 1369 3016 2328 
Q 3016 3291 2770 3770 
Q 2525 4250 2034 4250 
z
M 2034 4750 
Q 2819 4750 3233 4129 
Q 3647 3509 3647 2328 
Q 3647 1150 3233 529 
Q 2819 -91 2034 -91 
Q 1250 -91 836 529 
Q 422 1150 422 2328 
Q 422 3509 836 4129 
Q 1250 4750 2034 4750 
z
" id="DejaVuSans-30" transform="scale(0.015625)"/>
       </defs>
       <use xlink:href="#DejaVuSans-30"/>
      </g>
     </g>
    </g>
    <g id="xtick_2">
     <g id="line2d_3">
      <path clip-path="url(#pb41cf0268f)" d="M 102.24 307.584 
L 102.24 41.472 
" style="fill:none;stroke:#b0b0b0;stroke-linecap:square;stroke-width:0.8;"/>
     </g>
     <g id="line2d_4">
      <g>
       <use style="stroke:#000000;stroke-width:0.8;" x="102.24" xlink:href="#m4b831cff1b" y="307.584"/>
      </g>
     </g>
     <g id="text_2">
      <!-- 250 -->
      <g transform="translate(92.69625 322.182437)scale(0.1 -0.1)">
       <defs>
        <path d="M 1228 531 
L 3431 531 
L 3431 0 
L 469 0 
L 469 531 
Q 828 903 1448 1529 
Q 2069 2156 2228 2338 
Q 2531 2678 2651 2914 
Q 2772 3150 2772 3378 
Q 2772 3750 2511 3984 
Q 2250 4219 1831 4219 
Q 1534 4219 1204 4116 
Q 875 4013 500 3803 
L 500 4441 
Q 881 4594 1212 4672 
Q 1544 4750 1819 4750 
Q 2544 4750 2975 4387 
Q 3406 4025 3406 3419 
Q 3406 3131 3298 2873 
Q 3191 2616 2906 2266 
Q 2828 2175 2409 1742 
Q 1991 1309 1228 531 
z
" id="DejaVuSans-32" transform="scale(0.015625)"/>
        <path d="M 691 4666 
L 3169 4666 
L 3169 4134 
L 1269 4134 
L 1269 2991 
Q 1406 3038 1543 3061 
Q 1681 3084 1819 3084 
Q 2600 3084 3056 2656 
Q 3513 2228 3513 1497 
Q 3513 744 3044 326 
Q 2575 -91 1722 -91 
Q 1428 -91 1123 -41 
Q 819 9 494 109 
L 494 744 
Q 775 591 1075 516 
Q 1375 441 1709 441 
Q 2250 441 2565 725 
Q 2881 1009 2881 1497 
Q 2881 1984 2565 2268 
Q 2250 2553 1709 2553 
Q 1456 2553 1204 2497 
Q 953 2441 691 2322 
L 691 4666 
z
" id="DejaVuSans-35" transform="scale(0.015625)"/>
       </defs>
       <use xlink:href="#DejaVuSans-32"/>
       <use x="63.623047" xlink:href="#DejaVuSans-35"/>
       <use x="127.246094" xlink:href="#DejaVuSans-30"/>
      </g>
     </g>
    </g>
    <g id="xtick_3">
     <g id="line2d_5">
      <path clip-path="url(#pb41cf0268f)" d="M 146.88 307.584 
L 146.88 41.472 
" style="fill:none;stroke:#b0b0b0;stroke-linecap:square;stroke-width:0.8;"/>
     </g>
     <g id="line2d_6">
      <g>
       <use style="stroke:#000000;stroke-width:0.8;" x="146.88" xlink:href="#m4b831cff1b" y="307.584"/>
      </g>
     </g>
     <g id="text_3">
      <!-- 500 -->
      <g transform="translate(137.33625 322.182437)scale(0.1 -0.1)">
       <use xlink:href="#DejaVuSans-35"/>
       <use x="63.623047" xlink:href="#DejaVuSans-30"/>
       <use x="127.246094" xlink:href="#DejaVuSans-30"/>
      </g>
     </g>
    </g>
    <g id="xtick_4">
     <g id="line2d_7">
      <path clip-path="url(#pb41cf0268f)" d="M 191.52 307.584 
L 191.52 41.472 
" style="fill:none;stroke:#b0b0b0;stroke-linecap:square;stroke-width:0.8;"/>
     </g>
     <g id="line2d_8">
      <g>
       <use style="stroke:#000000;stroke-width:0.8;" x="191.52" xlink:href="#m4b831cff1b" y="307.584"/>
      </g>
     </g>
     <g id="text_4">
      <!-- 750 -->
      <g transform="translate(181.97625 322.182437)scale(0.1 -0.1)">
       <defs>
        <path d="M 525 4666 
L 3525 4666 
L 3525 4397 
L 1831 0 
L 1172 0 
L 2766 4134 
L 525 4134 
L 525 4666 
z
" id="DejaVuSans-37" transform="scale(0.015625)"/>
       </defs>
       <use xlink:href="#DejaVuSans-37"/>
       <use x="63.623047" xlink:href="#DejaVuSans-35"/>
       <use x="127.246094" xlink:href="#DejaVuSans-30"/>
      </g>
     </g>
    </g>
    <g id="xtick_5">
     <g id="line2d_9">
      <path clip-path="url(#pb41cf0268f)" d="M 236.16 307.584 
L 236.16 41.472 
" style="fill:none;stroke:#b0b0b0;stroke-linecap:square;stroke-width:0.8;"/>
     </g>
     <g id="line2d_10">
      <g>
       <use style="stroke:#000000;stroke-width:0.8;" x="236.16" xlink:href="#m4b831cff1b" y="307.584"/>
      </g>
     </g>
     <g id="text_5">
      <!-- 1000 -->
      <g transform="translate(223.435 322.182437)scale(0.1 -0.1)">
       <defs>
        <path d="M 794 531 
L 1825 531 
L 1825 4091 
L 703 3866 
L 703 4441 
L 1819 4666 
L 2450 4666 
L 2450 531 
L 3481 531 
L 3481 0 
L 794 0 
L 794 531 
z
" id="DejaVuSans-31" transform="scale(0.015625)"/>
       </defs>
       <use xlink:href="#DejaVuSans-31"/>
       <use x="63.623047" xlink:href="#DejaVuSans-30"/>
       <use x="127.246094" xlink:href="#DejaVuSans-30"/>
       <use x="190.869141" xlink:href="#DejaVuSans-30"/>
      </g>
     </g>
    </g>
    <g id="xtick_6">
     <g id="line2d_11">
      <path clip-path="url(#pb41cf0268f)" d="M 280.8 307.584 
L 280.8 41.472 
" style="fill:none;stroke:#b0b0b0;stroke-linecap:square;stroke-width:0.8;"/>
     </g>
     <g id="line2d_12">
      <g>
       <use style="stroke:#000000;stroke-width:0.8;" x="280.8" xlink:href="#m4b831cff1b" y="307.584"/>
      </g>
     </g>
     <g id="text_6">
      <!-- 1250 -->
      <g transform="translate(268.075 322.182437)scale(0.1 -0.1)">
       <use xlink:href="#DejaVuSans-31"/>
       <use x="63.623047" xlink:href="#DejaVuSans-32"/>
       <use x="127.246094" xlink:href="#DejaVuSans-35"/>
       <use x="190.869141" xlink:href="#DejaVuSans-30"/>
      </g>
     </g>
    </g>
    <g id="xtick_7">
     <g id="line2d_13">
      <path clip-path="url(#pb41cf0268f)" d="M 325.44 307.584 
L 325.44 41.472 
" style="fill:none;stroke:#b0b0b0;stroke-linecap:square;stroke-width:0.8;"/>
     </g>
     <g id="line2d_14">
      <g>
       <use style="stroke:#000000;stroke-width:0.8;" x="325.44" xlink:href="#m4b831cff1b" y="307.584"/>
      </g>
     </g>
     <g id="text_7">
      <!-- 1500 -->
      <g transform="translate(312.715 322.182437)scale(0.1 -0.1)">
       <use xlink:href="#DejaVuSans-31"/>
       <use x="63.623047" xlink:href="#DejaVuSans-35"/>
       <use x="127.246094" xlink:href="#DejaVuSans-30"/>
       <use x="190.869141" xlink:href="#DejaVuSans-30"/>
      </g>
     </g>
    </g>
    <g id="xtick_8">
     <g id="line2d_15">
      <path clip-path="url(#pb41cf0268f)" d="M 370.08 307.584 
L 370.08 41.472 
" style="fill:none;stroke:#b0b0b0;stroke-linecap:square;stroke-width:0.8;"/>
     </g>
     <g id="line2d_16">
      <g>
       <use style="stroke:#000000;stroke-width:0.8;" x="370.08" xlink:href="#m4b831cff1b" y="307.584"/>
      </g>
     </g>
     <g id="text_8">
      <!-- 1750 -->
      <g transform="translate(357.355 322.182437)scale(0.1 -0.1)">
       <use xlink:href="#DejaVuSans-31"/>
       <use x="63.623047" xlink:href="#DejaVuSans-37"/>
       <use x="127.246094" xlink:href="#DejaVuSans-35"/>
       <use x="190.869141" xlink:href="#DejaVuSans-30"/>
      </g>
     </g>
    </g>
    <g id="xtick_9">
     <g id="line2d_17">
      <path clip-path="url(#pb41cf0268f)" d="M 414.72 307.584 
L 414.72 41.472 
" style="fill:none;stroke:#b0b0b0;stroke-linecap:square;stroke-width:0.8;"/>
     </g>
     <g id="line2d_18">
      <g>
       <use style="stroke:#000000;stroke-width:0.8;" x="414.72" xlink:href="#m4b831cff1b" y="307.584"/>
      </g>
     </g>
     <g id="text_9">
      <!-- 2000 -->
      <g transform="translate(401.995 322.182437)scale(0.1 -0.1)">
       <use xlink:href="#DejaVuSans-32"/>
       <use x="63.623047" xlink:href="#DejaVuSans-30"/>
       <use x="127.246094" xlink:href="#DejaVuSans-30"/>
       <use x="190.869141" xlink:href="#DejaVuSans-30"/>
      </g>
     </g>
    </g>
    <g id="text_10">
     <!-- Episodes -->
     <g transform="translate(213.917812 335.860562)scale(0.1 -0.1)">
      <defs>
       <path d="M 628 4666 
L 3578 4666 
L 3578 4134 
L 1259 4134 
L 1259 2753 
L 3481 2753 
L 3481 2222 
L 1259 2222 
L 1259 531 
L 3634 531 
L 3634 0 
L 628 0 
L 628 4666 
z
" id="DejaVuSans-45" transform="scale(0.015625)"/>
       <path d="M 1159 525 
L 1159 -1331 
L 581 -1331 
L 581 3500 
L 1159 3500 
L 1159 2969 
Q 1341 3281 1617 3432 
Q 1894 3584 2278 3584 
Q 2916 3584 3314 3078 
Q 3713 2572 3713 1747 
Q 3713 922 3314 415 
Q 2916 -91 2278 -91 
Q 1894 -91 1617 61 
Q 1341 213 1159 525 
z
M 3116 1747 
Q 3116 2381 2855 2742 
Q 2594 3103 2138 3103 
Q 1681 3103 1420 2742 
Q 1159 2381 1159 1747 
Q 1159 1113 1420 752 
Q 1681 391 2138 391 
Q 2594 391 2855 752 
Q 3116 1113 3116 1747 
z
" id="DejaVuSans-70" transform="scale(0.015625)"/>
       <path d="M 603 3500 
L 1178 3500 
L 1178 0 
L 603 0 
L 603 3500 
z
M 603 4863 
L 1178 4863 
L 1178 4134 
L 603 4134 
L 603 4863 
z
" id="DejaVuSans-69" transform="scale(0.015625)"/>
       <path d="M 2834 3397 
L 2834 2853 
Q 2591 2978 2328 3040 
Q 2066 3103 1784 3103 
Q 1356 3103 1142 2972 
Q 928 2841 928 2578 
Q 928 2378 1081 2264 
Q 1234 2150 1697 2047 
L 1894 2003 
Q 2506 1872 2764 1633 
Q 3022 1394 3022 966 
Q 3022 478 2636 193 
Q 2250 -91 1575 -91 
Q 1294 -91 989 -36 
Q 684 19 347 128 
L 347 722 
Q 666 556 975 473 
Q 1284 391 1588 391 
Q 1994 391 2212 530 
Q 2431 669 2431 922 
Q 2431 1156 2273 1281 
Q 2116 1406 1581 1522 
L 1381 1569 
Q 847 1681 609 1914 
Q 372 2147 372 2553 
Q 372 3047 722 3315 
Q 1072 3584 1716 3584 
Q 2034 3584 2315 3537 
Q 2597 3491 2834 3397 
z
" id="DejaVuSans-73" transform="scale(0.015625)"/>
       <path d="M 1959 3097 
Q 1497 3097 1228 2736 
Q 959 2375 959 1747 
Q 959 1119 1226 758 
Q 1494 397 1959 397 
Q 2419 397 2687 759 
Q 2956 1122 2956 1747 
Q 2956 2369 2687 2733 
Q 2419 3097 1959 3097 
z
M 1959 3584 
Q 2709 3584 3137 3096 
Q 3566 2609 3566 1747 
Q 3566 888 3137 398 
Q 2709 -91 1959 -91 
Q 1206 -91 779 398 
Q 353 888 353 1747 
Q 353 2609 779 3096 
Q 1206 3584 1959 3584 
z
" id="DejaVuSans-6f" transform="scale(0.015625)"/>
       <path d="M 2906 2969 
L 2906 4863 
L 3481 4863 
L 3481 0 
L 2906 0 
L 2906 525 
Q 2725 213 2448 61 
Q 2172 -91 1784 -91 
Q 1150 -91 751 415 
Q 353 922 353 1747 
Q 353 2572 751 3078 
Q 1150 3584 1784 3584 
Q 2172 3584 2448 3432 
Q 2725 3281 2906 2969 
z
M 947 1747 
Q 947 1113 1208 752 
Q 1469 391 1925 391 
Q 2381 391 2643 752 
Q 2906 1113 2906 1747 
Q 2906 2381 2643 2742 
Q 2381 3103 1925 3103 
Q 1469 3103 1208 2742 
Q 947 2381 947 1747 
z
" id="DejaVuSans-64" transform="scale(0.015625)"/>
       <path d="M 3597 1894 
L 3597 1613 
L 953 1613 
Q 991 1019 1311 708 
Q 1631 397 2203 397 
Q 2534 397 2845 478 
Q 3156 559 3463 722 
L 3463 178 
Q 3153 47 2828 -22 
Q 2503 -91 2169 -91 
Q 1331 -91 842 396 
Q 353 884 353 1716 
Q 353 2575 817 3079 
Q 1281 3584 2069 3584 
Q 2775 3584 3186 3129 
Q 3597 2675 3597 1894 
z
M 3022 2063 
Q 3016 2534 2758 2815 
Q 2500 3097 2075 3097 
Q 1594 3097 1305 2825 
Q 1016 2553 972 2059 
L 3022 2063 
z
" id="DejaVuSans-65" transform="scale(0.015625)"/>
      </defs>
      <use xlink:href="#DejaVuSans-45"/>
      <use x="63.183594" xlink:href="#DejaVuSans-70"/>
      <use x="126.660156" xlink:href="#DejaVuSans-69"/>
      <use x="154.443359" xlink:href="#DejaVuSans-73"/>
      <use x="206.542969" xlink:href="#DejaVuSans-6f"/>
      <use x="267.724609" xlink:href="#DejaVuSans-64"/>
      <use x="331.201172" xlink:href="#DejaVuSans-65"/>
      <use x="392.724609" xlink:href="#DejaVuSans-73"/>
     </g>
    </g>
   </g>
   <g id="matplotlib.axis_2">
    <g id="ytick_1">
     <g id="line2d_19">
      <path clip-path="url(#pb41cf0268f)" d="M 57.6 274.096841 
L 414.72 274.096841 
" style="fill:none;stroke:#b0b0b0;stroke-linecap:square;stroke-width:0.8;"/>
     </g>
     <g id="line2d_20">
      <defs>
       <path d="M 0 0 
L -3.5 0 
" id="m51cee169e2" style="stroke:#000000;stroke-width:0.8;"/>
      </defs>
      <g>
       <use style="stroke:#000000;stroke-width:0.8;" x="57.6" xlink:href="#m51cee169e2" y="274.096841"/>
      </g>
     </g>
     <g id="text_11">
      <!-- −2.5 -->
      <g transform="translate(26.317187 277.89606)scale(0.1 -0.1)">
       <defs>
        <path d="M 678 2272 
L 4684 2272 
L 4684 1741 
L 678 1741 
L 678 2272 
z
" id="DejaVuSans-2212" transform="scale(0.015625)"/>
        <path d="M 684 794 
L 1344 794 
L 1344 0 
L 684 0 
L 684 794 
z
" id="DejaVuSans-2e" transform="scale(0.015625)"/>
       </defs>
       <use xlink:href="#DejaVuSans-2212"/>
       <use x="83.789062" xlink:href="#DejaVuSans-32"/>
       <use x="147.412109" xlink:href="#DejaVuSans-2e"/>
       <use x="179.199219" xlink:href="#DejaVuSans-35"/>
      </g>
     </g>
    </g>
    <g id="ytick_2">
     <g id="line2d_21">
      <path clip-path="url(#pb41cf0268f)" d="M 57.6 230.112679 
L 414.72 230.112679 
" style="fill:none;stroke:#b0b0b0;stroke-linecap:square;stroke-width:0.8;"/>
     </g>
     <g id="line2d_22">
      <g>
       <use style="stroke:#000000;stroke-width:0.8;" x="57.6" xlink:href="#m51cee169e2" y="230.112679"/>
      </g>
     </g>
     <g id="text_12">
      <!-- −2.0 -->
      <g transform="translate(26.317187 233.911897)scale(0.1 -0.1)">
       <use xlink:href="#DejaVuSans-2212"/>
       <use x="83.789062" xlink:href="#DejaVuSans-32"/>
       <use x="147.412109" xlink:href="#DejaVuSans-2e"/>
       <use x="179.199219" xlink:href="#DejaVuSans-30"/>
      </g>
     </g>
    </g>
    <g id="ytick_3">
     <g id="line2d_23">
      <path clip-path="url(#pb41cf0268f)" d="M 57.6 186.128516 
L 414.72 186.128516 
" style="fill:none;stroke:#b0b0b0;stroke-linecap:square;stroke-width:0.8;"/>
     </g>
     <g id="line2d_24">
      <g>
       <use style="stroke:#000000;stroke-width:0.8;" x="57.6" xlink:href="#m51cee169e2" y="186.128516"/>
      </g>
     </g>
     <g id="text_13">
      <!-- −1.5 -->
      <g transform="translate(26.317187 189.927734)scale(0.1 -0.1)">
       <use xlink:href="#DejaVuSans-2212"/>
       <use x="83.789062" xlink:href="#DejaVuSans-31"/>
       <use x="147.412109" xlink:href="#DejaVuSans-2e"/>
       <use x="179.199219" xlink:href="#DejaVuSans-35"/>
      </g>
     </g>
    </g>
    <g id="ytick_4">
     <g id="line2d_25">
      <path clip-path="url(#pb41cf0268f)" d="M 57.6 142.144353 
L 414.72 142.144353 
" style="fill:none;stroke:#b0b0b0;stroke-linecap:square;stroke-width:0.8;"/>
     </g>
     <g id="line2d_26">
      <g>
       <use style="stroke:#000000;stroke-width:0.8;" x="57.6" xlink:href="#m51cee169e2" y="142.144353"/>
      </g>
     </g>
     <g id="text_14">
      <!-- −1.0 -->
      <g transform="translate(26.317187 145.943572)scale(0.1 -0.1)">
       <use xlink:href="#DejaVuSans-2212"/>
       <use x="83.789062" xlink:href="#DejaVuSans-31"/>
       <use x="147.412109" xlink:href="#DejaVuSans-2e"/>
       <use x="179.199219" xlink:href="#DejaVuSans-30"/>
      </g>
     </g>
    </g>
    <g id="ytick_5">
     <g id="line2d_27">
      <path clip-path="url(#pb41cf0268f)" d="M 57.6 98.16019 
L 414.72 98.16019 
" style="fill:none;stroke:#b0b0b0;stroke-linecap:square;stroke-width:0.8;"/>
     </g>
     <g id="line2d_28">
      <g>
       <use style="stroke:#000000;stroke-width:0.8;" x="57.6" xlink:href="#m51cee169e2" y="98.16019"/>
      </g>
     </g>
     <g id="text_15">
      <!-- −0.5 -->
      <g transform="translate(26.317187 101.959409)scale(0.1 -0.1)">
       <use xlink:href="#DejaVuSans-2212"/>
       <use x="83.789062" xlink:href="#DejaVuSans-30"/>
       <use x="147.412109" xlink:href="#DejaVuSans-2e"/>
       <use x="179.199219" xlink:href="#DejaVuSans-35"/>
      </g>
     </g>
    </g>
    <g id="ytick_6">
     <g id="line2d_29">
      <path clip-path="url(#pb41cf0268f)" d="M 57.6 54.176027 
L 414.72 54.176027 
" style="fill:none;stroke:#b0b0b0;stroke-linecap:square;stroke-width:0.8;"/>
     </g>
     <g id="line2d_30">
      <g>
       <use style="stroke:#000000;stroke-width:0.8;" x="57.6" xlink:href="#m51cee169e2" y="54.176027"/>
      </g>
     </g>
     <g id="text_16">
      <!-- 0.0 -->
      <g transform="translate(34.696875 57.975246)scale(0.1 -0.1)">
       <use xlink:href="#DejaVuSans-30"/>
       <use x="63.623047" xlink:href="#DejaVuSans-2e"/>
       <use x="95.410156" xlink:href="#DejaVuSans-30"/>
      </g>
     </g>
    </g>
    <g id="text_17">
     <!-- Cumulative Reward -->
     <g transform="translate(20.2375 223.275656)rotate(-90)scale(0.1 -0.1)">
      <defs>
       <path d="M 4122 4306 
L 4122 3641 
Q 3803 3938 3442 4084 
Q 3081 4231 2675 4231 
Q 1875 4231 1450 3742 
Q 1025 3253 1025 2328 
Q 1025 1406 1450 917 
Q 1875 428 2675 428 
Q 3081 428 3442 575 
Q 3803 722 4122 1019 
L 4122 359 
Q 3791 134 3420 21 
Q 3050 -91 2638 -91 
Q 1578 -91 968 557 
Q 359 1206 359 2328 
Q 359 3453 968 4101 
Q 1578 4750 2638 4750 
Q 3056 4750 3426 4639 
Q 3797 4528 4122 4306 
z
" id="DejaVuSans-43" transform="scale(0.015625)"/>
       <path d="M 544 1381 
L 544 3500 
L 1119 3500 
L 1119 1403 
Q 1119 906 1312 657 
Q 1506 409 1894 409 
Q 2359 409 2629 706 
Q 2900 1003 2900 1516 
L 2900 3500 
L 3475 3500 
L 3475 0 
L 2900 0 
L 2900 538 
Q 2691 219 2414 64 
Q 2138 -91 1772 -91 
Q 1169 -91 856 284 
Q 544 659 544 1381 
z
M 1991 3584 
L 1991 3584 
z
" id="DejaVuSans-75" transform="scale(0.015625)"/>
       <path d="M 3328 2828 
Q 3544 3216 3844 3400 
Q 4144 3584 4550 3584 
Q 5097 3584 5394 3201 
Q 5691 2819 5691 2113 
L 5691 0 
L 5113 0 
L 5113 2094 
Q 5113 2597 4934 2840 
Q 4756 3084 4391 3084 
Q 3944 3084 3684 2787 
Q 3425 2491 3425 1978 
L 3425 0 
L 2847 0 
L 2847 2094 
Q 2847 2600 2669 2842 
Q 2491 3084 2119 3084 
Q 1678 3084 1418 2786 
Q 1159 2488 1159 1978 
L 1159 0 
L 581 0 
L 581 3500 
L 1159 3500 
L 1159 2956 
Q 1356 3278 1631 3431 
Q 1906 3584 2284 3584 
Q 2666 3584 2933 3390 
Q 3200 3197 3328 2828 
z
" id="DejaVuSans-6d" transform="scale(0.015625)"/>
       <path d="M 603 4863 
L 1178 4863 
L 1178 0 
L 603 0 
L 603 4863 
z
" id="DejaVuSans-6c" transform="scale(0.015625)"/>
       <path d="M 2194 1759 
Q 1497 1759 1228 1600 
Q 959 1441 959 1056 
Q 959 750 1161 570 
Q 1363 391 1709 391 
Q 2188 391 2477 730 
Q 2766 1069 2766 1631 
L 2766 1759 
L 2194 1759 
z
M 3341 1997 
L 3341 0 
L 2766 0 
L 2766 531 
Q 2569 213 2275 61 
Q 1981 -91 1556 -91 
Q 1019 -91 701 211 
Q 384 513 384 1019 
Q 384 1609 779 1909 
Q 1175 2209 1959 2209 
L 2766 2209 
L 2766 2266 
Q 2766 2663 2505 2880 
Q 2244 3097 1772 3097 
Q 1472 3097 1187 3025 
Q 903 2953 641 2809 
L 641 3341 
Q 956 3463 1253 3523 
Q 1550 3584 1831 3584 
Q 2591 3584 2966 3190 
Q 3341 2797 3341 1997 
z
" id="DejaVuSans-61" transform="scale(0.015625)"/>
       <path d="M 1172 4494 
L 1172 3500 
L 2356 3500 
L 2356 3053 
L 1172 3053 
L 1172 1153 
Q 1172 725 1289 603 
Q 1406 481 1766 481 
L 2356 481 
L 2356 0 
L 1766 0 
Q 1100 0 847 248 
Q 594 497 594 1153 
L 594 3053 
L 172 3053 
L 172 3500 
L 594 3500 
L 594 4494 
L 1172 4494 
z
" id="DejaVuSans-74" transform="scale(0.015625)"/>
       <path d="M 191 3500 
L 800 3500 
L 1894 563 
L 2988 3500 
L 3597 3500 
L 2284 0 
L 1503 0 
L 191 3500 
z
" id="DejaVuSans-76" transform="scale(0.015625)"/>
       <path id="DejaVuSans-20" transform="scale(0.015625)"/>
       <path d="M 2841 2188 
Q 3044 2119 3236 1894 
Q 3428 1669 3622 1275 
L 4263 0 
L 3584 0 
L 2988 1197 
Q 2756 1666 2539 1819 
Q 2322 1972 1947 1972 
L 1259 1972 
L 1259 0 
L 628 0 
L 628 4666 
L 2053 4666 
Q 2853 4666 3247 4331 
Q 3641 3997 3641 3322 
Q 3641 2881 3436 2590 
Q 3231 2300 2841 2188 
z
M 1259 4147 
L 1259 2491 
L 2053 2491 
Q 2509 2491 2742 2702 
Q 2975 2913 2975 3322 
Q 2975 3731 2742 3939 
Q 2509 4147 2053 4147 
L 1259 4147 
z
" id="DejaVuSans-52" transform="scale(0.015625)"/>
       <path d="M 269 3500 
L 844 3500 
L 1563 769 
L 2278 3500 
L 2956 3500 
L 3675 769 
L 4391 3500 
L 4966 3500 
L 4050 0 
L 3372 0 
L 2619 2869 
L 1863 0 
L 1184 0 
L 269 3500 
z
" id="DejaVuSans-77" transform="scale(0.015625)"/>
       <path d="M 2631 2963 
Q 2534 3019 2420 3045 
Q 2306 3072 2169 3072 
Q 1681 3072 1420 2755 
Q 1159 2438 1159 1844 
L 1159 0 
L 581 0 
L 581 3500 
L 1159 3500 
L 1159 2956 
Q 1341 3275 1631 3429 
Q 1922 3584 2338 3584 
Q 2397 3584 2469 3576 
Q 2541 3569 2628 3553 
L 2631 2963 
z
" id="DejaVuSans-72" transform="scale(0.015625)"/>
      </defs>
      <use xlink:href="#DejaVuSans-43"/>
      <use x="69.824219" xlink:href="#DejaVuSans-75"/>
      <use x="133.203125" xlink:href="#DejaVuSans-6d"/>
      <use x="230.615234" xlink:href="#DejaVuSans-75"/>
      <use x="293.994141" xlink:href="#DejaVuSans-6c"/>
      <use x="321.777344" xlink:href="#DejaVuSans-61"/>
      <use x="383.056641" xlink:href="#DejaVuSans-74"/>
      <use x="422.265625" xlink:href="#DejaVuSans-69"/>
      <use x="450.048828" xlink:href="#DejaVuSans-76"/>
      <use x="509.228516" xlink:href="#DejaVuSans-65"/>
      <use x="570.751953" xlink:href="#DejaVuSans-20"/>
      <use x="602.539062" xlink:href="#DejaVuSans-52"/>
      <use x="667.521484" xlink:href="#DejaVuSans-65"/>
      <use x="729.044922" xlink:href="#DejaVuSans-77"/>
      <use x="810.832031" xlink:href="#DejaVuSans-61"/>
      <use x="872.111328" xlink:href="#DejaVuSans-72"/>
      <use x="911.474609" xlink:href="#DejaVuSans-64"/>
     </g>
    </g>
    <g id="text_18">
     <!-- 1e9 -->
     <g transform="translate(57.6 38.472)scale(0.1 -0.1)">
      <defs>
       <path d="M 703 97 
L 703 672 
Q 941 559 1184 500 
Q 1428 441 1663 441 
Q 2288 441 2617 861 
Q 2947 1281 2994 2138 
Q 2813 1869 2534 1725 
Q 2256 1581 1919 1581 
Q 1219 1581 811 2004 
Q 403 2428 403 3163 
Q 403 3881 828 4315 
Q 1253 4750 1959 4750 
Q 2769 4750 3195 4129 
Q 3622 3509 3622 2328 
Q 3622 1225 3098 567 
Q 2575 -91 1691 -91 
Q 1453 -91 1209 -44 
Q 966 3 703 97 
z
M 1959 2075 
Q 2384 2075 2632 2365 
Q 2881 2656 2881 3163 
Q 2881 3666 2632 3958 
Q 2384 4250 1959 4250 
Q 1534 4250 1286 3958 
Q 1038 3666 1038 3163 
Q 1038 2656 1286 2365 
Q 1534 2075 1959 2075 
z
" id="DejaVuSans-39" transform="scale(0.015625)"/>
      </defs>
      <use xlink:href="#DejaVuSans-31"/>
      <use x="63.623047" xlink:href="#DejaVuSans-65"/>
      <use x="125.146484" xlink:href="#DejaVuSans-39"/>
     </g>
    </g>
   </g>
   <g id="line2d_31">
    <path clip-path="url(#pb41cf0268f)" d="M 57.6 153.603409 
L 57.77856 171.693146 
L 57.95712 215.947858 
L 58.13568 164.664359 
L 58.31424 153.603409 
L 58.4928 171.693146 
L 58.67136 215.947858 
L 58.84992 164.664359 
L 59.02848 153.603409 
L 59.20704 171.693146 
L 59.3856 215.947858 
L 59.56416 164.664359 
L 59.74272 153.603409 
L 59.92128 171.693146 
L 60.09984 215.947858 
L 60.2784 164.664359 
L 60.45696 153.603409 
L 60.63552 171.693146 
L 60.81408 215.947858 
L 60.99264 164.664359 
L 61.1712 153.603409 
L 61.34976 171.693146 
L 61.52832 215.947858 
L 61.70688 164.664359 
L 61.88544 153.603409 
L 62.064 171.693146 
L 62.24256 215.947858 
L 62.42112 164.664359 
L 62.59968 153.603409 
L 62.77824 171.693146 
L 62.9568 215.947858 
L 63.13536 164.664359 
L 63.31392 153.603409 
L 63.49248 171.693146 
L 63.67104 215.947858 
L 63.8496 164.664359 
L 64.02816 153.603409 
L 64.20672 171.693146 
L 64.38528 215.947858 
L 64.56384 164.664359 
L 64.7424 153.603409 
L 64.92096 171.693146 
L 65.09952 215.947858 
L 65.27808 164.664359 
L 65.45664 153.603409 
L 65.6352 171.693146 
L 65.81376 215.947858 
L 65.99232 164.664359 
L 66.17088 153.603409 
L 66.34944 171.693146 
L 66.528 215.947858 
L 66.70656 164.664359 
L 66.88512 153.603409 
L 67.06368 171.693146 
L 67.24224 215.947858 
L 67.4208 164.664359 
L 67.59936 153.603409 
L 67.77792 171.693146 
L 67.95648 215.947858 
L 68.13504 164.664359 
L 68.3136 153.603409 
L 68.49216 171.693146 
L 68.67072 215.947858 
L 68.84928 164.664359 
L 69.02784 153.603409 
L 69.2064 171.693146 
L 69.38496 215.947858 
L 69.56352 164.664359 
L 69.74208 153.603409 
L 69.92064 171.693146 
L 70.0992 215.947858 
L 70.27776 164.664359 
L 70.45632 153.603409 
L 70.63488 171.693146 
L 70.81344 215.947858 
L 70.992 164.664359 
L 71.17056 153.603409 
L 71.34912 171.693146 
L 71.52768 215.947858 
L 71.70624 164.664359 
L 71.8848 153.603409 
L 72.06336 171.693146 
L 72.24192 215.947858 
L 72.42048 164.664359 
L 72.59904 153.603409 
L 72.7776 171.693146 
L 72.95616 215.947858 
L 73.13472 164.664359 
L 73.31328 153.603409 
L 73.49184 171.693146 
L 73.6704 215.947858 
L 73.84896 164.664359 
L 74.02752 153.603409 
L 74.20608 171.693146 
L 74.38464 215.947858 
L 74.5632 164.664359 
L 74.74176 153.603409 
L 74.92032 171.693146 
L 75.09888 215.947858 
L 75.27744 164.664359 
L 75.456 192.566767 
L 75.63456 143.25556 
L 75.81312 164.153362 
L 75.99168 164.207145 
L 76.17024 161.305039 
L 76.3488 198.900988 
L 76.52736 176.845331 
L 76.70592 136.005371 
L 77.06304 143.449231 
L 77.2416 180.227615 
L 77.42016 163.188186 
L 77.59872 198.008324 
L 77.77728 186.932857 
L 77.95584 132.380939 
L 78.1344 156.906764 
L 78.31296 212.965504 
L 78.49152 123.702448 
L 78.84864 258.264525 
L 79.0272 142.031367 
L 79.38432 185.435474 
L 79.56288 129.364949 
L 79.74144 155.489965 
L 79.92 157.739911 
L 80.09856 179.691015 
L 80.27712 160.336365 
L 80.45568 188.38434 
L 80.63424 192.181343 
L 80.8128 130.079736 
L 80.99136 157.513585 
L 81.34848 123.205955 
L 81.52704 153.686576 
L 81.7056 274.803487 
L 82.06272 155.031489 
L 82.24128 202.062591 
L 82.41984 193.202848 
L 82.95552 145.951893 
L 83.13408 176.980044 
L 83.31264 129.478526 
L 83.4912 187.916111 
L 83.66976 128.548896 
L 83.84832 198.559771 
L 84.02688 123.035659 
L 84.20544 129.556367 
L 84.74112 158.587826 
L 84.91968 112.462939 
L 85.09824 111.498252 
L 85.2768 104.480445 
L 85.45536 151.796307 
L 85.63392 120.176854 
L 85.81248 151.434174 
L 85.99104 128.185881 
L 86.1696 127.416719 
L 86.34816 133.066587 
L 86.52672 127.870705 
L 86.88384 100.518644 
L 87.0624 99.086411 
L 87.24096 111.813116 
L 87.59808 96.54818 
L 87.77664 131.95703 
L 87.9552 115.395939 
L 88.13376 127.614541 
L 88.31232 107.393967 
L 88.49088 114.073568 
L 88.66944 126.60192 
L 88.848 101.439583 
L 89.20512 162.657708 
L 89.38368 124.879792 
L 89.56224 285.408 
L 89.7408 140.609854 
L 89.91936 157.586622 
L 90.09792 111.968038 
L 90.27648 138.048011 
L 90.45504 102.450697 
L 90.6336 203.633381 
L 90.81216 106.446478 
L 90.99072 116.989 
L 91.16928 94.646087 
L 91.34784 120.48731 
L 91.5264 94.122444 
L 91.70496 131.054342 
L 91.88352 117.697087 
L 92.06208 124.769886 
L 92.24064 123.834071 
L 92.4192 157.064192 
L 92.59776 107.104377 
L 92.77632 110.744153 
L 92.95488 120.657593 
L 93.13344 107.494684 
L 93.312 116.351986 
L 93.49056 113.209233 
L 93.66912 90.442486 
L 93.84768 102.161827 
L 94.02624 106.347972 
L 94.2048 116.025169 
L 94.38336 109.512016 
L 94.74048 141.06911 
L 94.91904 88.866614 
L 95.0976 98.604286 
L 95.27616 141.352296 
L 95.45472 103.455337 
L 95.63328 136.067156 
L 95.81184 117.740843 
L 95.9904 118.909514 
L 96.16896 107.42329 
L 96.34752 125.505629 
L 96.52608 208.401212 
L 96.70464 118.193294 
L 97.06176 89.625726 
L 97.24032 135.067783 
L 97.41888 116.643212 
L 97.776 110.855482 
L 97.95456 85.796059 
L 98.13312 123.499172 
L 98.31168 81.836392 
L 98.49024 105.497241 
L 98.6688 79.657163 
L 99.02592 117.199887 
L 99.38304 81.818091 
L 99.5616 111.303947 
L 99.74016 102.966636 
L 99.91872 102.671056 
L 100.09728 122.510238 
L 100.4544 87.857717 
L 100.63296 100.343686 
L 100.81152 92.051841 
L 100.99008 117.159658 
L 101.16864 106.197089 
L 101.3472 112.144572 
L 101.52576 104.676757 
L 101.70432 84.183484 
L 101.88288 117.206108 
L 102.06144 98.67513 
L 102.24 109.071864 
L 102.41856 86.415061 
L 102.59712 86.35572 
L 102.77568 121.039494 
L 102.95424 81.071631 
L 103.1328 88.31922 
L 103.31136 104.860654 
L 103.48992 107.245004 
L 103.66848 107.297304 
L 103.84704 109.565109 
L 104.0256 86.041942 
L 104.20416 98.715937 
L 104.38272 85.032012 
L 104.56128 91.446639 
L 104.73984 77.725753 
L 104.9184 79.889104 
L 105.09696 94.631152 
L 105.27552 128.494124 
L 105.45408 77.366476 
L 105.63264 84.491741 
L 105.8112 152.299335 
L 105.98976 94.535733 
L 106.16832 116.683824 
L 106.34688 98.887429 
L 106.52544 111.321102 
L 106.704 91.805656 
L 106.88256 119.97184 
L 107.06112 87.736753 
L 107.23968 112.588038 
L 107.41824 80.887407 
L 107.5968 95.568327 
L 107.77536 204.665165 
L 107.95392 94.874027 
L 108.31104 175.235046 
L 108.4896 114.427865 
L 108.84672 80.207884 
L 109.02528 83.361241 
L 109.20384 95.1116 
L 109.56096 81.253253 
L 109.91808 98.644103 
L 110.09664 97.753131 
L 110.2752 101.329372 
L 110.45376 94.479509 
L 110.63232 73.989694 
L 110.81088 77.856937 
L 111.168 112.316424 
L 111.34656 68.917371 
L 111.52512 99.470869 
L 111.70368 95.334749 
L 111.88224 108.006914 
L 112.23936 79.514356 
L 112.59648 86.100952 
L 112.77504 121.399842 
L 112.9536 88.232417 
L 113.13216 96.525742 
L 113.31072 134.13051 
L 113.48928 79.743233 
L 113.66784 85.144352 
L 113.8464 104.91278 
L 114.20352 71.840003 
L 114.38208 91.241214 
L 114.56064 94.585966 
L 114.7392 83.07603 
L 114.91776 90.062886 
L 115.09632 72.9969 
L 115.27488 90.315861 
L 115.45344 79.309867 
L 115.632 97.979718 
L 115.81056 83.048206 
L 115.98912 104.638228 
L 116.16768 104.813976 
L 116.34624 135.675816 
L 116.5248 79.925406 
L 116.70336 106.173647 
L 116.88192 79.084589 
L 117.23904 80.739298 
L 117.4176 104.543129 
L 117.59616 112.360076 
L 117.77472 106.729279 
L 117.95328 83.106184 
L 118.13184 82.976998 
L 118.3104 73.802704 
L 118.48896 91.001377 
L 118.66752 95.704659 
L 118.84608 83.552937 
L 119.02464 95.67602 
L 119.2032 78.412224 
L 119.38176 115.44724 
L 119.56032 84.15858 
L 119.73888 121.812081 
L 119.91744 69.089927 
L 120.096 98.601298 
L 120.27456 97.163685 
L 120.45312 75.231017 
L 120.63168 128.525658 
L 120.81024 85.931513 
L 120.9888 75.369823 
L 121.16736 99.592804 
L 121.34592 78.107479 
L 121.52448 86.318652 
L 121.70304 81.091646 
L 121.8816 83.642077 
L 122.06016 88.153787 
L 122.23872 89.483744 
L 122.41728 95.097777 
L 122.59584 76.85492 
L 122.7744 90.020558 
L 122.95296 74.292951 
L 123.13152 83.739867 
L 123.31008 76.176736 
L 123.48864 75.242173 
L 123.6672 82.050547 
L 123.84576 99.184934 
L 124.20288 77.57821 
L 124.38144 87.553345 
L 124.56 90.438011 
L 124.73856 75.806158 
L 124.91712 82.400695 
L 125.09568 75.814709 
L 125.27424 95.622884 
L 125.4528 76.736657 
L 125.63136 71.871093 
L 125.80992 99.330257 
L 125.98848 81.584751 
L 126.16704 85.724922 
L 126.3456 80.561547 
L 126.52416 95.329424 
L 126.70272 82.035701 
L 126.88128 81.228468 
L 127.05984 133.884599 
L 127.2384 69.778145 
L 127.41696 100.630063 
L 127.59552 72.420217 
L 127.77408 74.208965 
L 127.95264 110.248944 
L 128.1312 70.949418 
L 128.30976 101.853539 
L 128.48832 75.714842 
L 128.66688 91.270712 
L 128.84544 68.099446 
L 129.024 92.944727 
L 129.20256 78.539406 
L 129.38112 81.773222 
L 129.73824 79.003701 
L 129.9168 100.949389 
L 130.09536 66.948264 
L 130.45248 99.836351 
L 130.63104 96.157294 
L 130.8096 78.426093 
L 130.98816 109.851123 
L 131.16672 86.52746 
L 131.34528 98.19792 
L 131.52384 85.764258 
L 131.7024 83.080419 
L 131.88096 76.855266 
L 132.05952 115.324384 
L 132.23808 119.468326 
L 132.77376 84.706001 
L 132.95232 94.281599 
L 133.13088 122.741903 
L 133.488 81.49548 
L 133.66656 102.913986 
L 133.84512 86.522625 
L 134.02368 96.085741 
L 134.20224 74.426493 
L 134.3808 87.113788 
L 134.55936 87.017004 
L 134.73792 133.292923 
L 134.91648 97.419965 
L 135.09504 116.716757 
L 135.2736 86.823542 
L 135.45216 103.638331 
L 135.63072 82.943644 
L 135.80928 104.797215 
L 135.98784 105.096279 
L 136.1664 99.227235 
L 136.34496 76.652505 
L 136.88064 120.926225 
L 137.0592 91.794284 
L 137.23776 87.273383 
L 137.41632 90.923441 
L 137.952 113.138899 
L 138.30912 99.266625 
L 138.48768 94.303056 
L 138.66624 82.517503 
L 139.02336 106.572659 
L 139.20192 136.170192 
L 139.38048 97.063397 
L 139.55904 87.621004 
L 139.7376 92.467276 
L 139.91616 124.808403 
L 140.09472 81.173392 
L 140.27328 104.698931 
L 140.45184 102.755468 
L 140.6304 93.591437 
L 140.80896 97.625857 
L 140.98752 129.685329 
L 141.16608 113.776766 
L 141.34464 68.98578 
L 141.5232 145.404403 
L 141.70176 92.045433 
L 141.88032 104.865836 
L 142.23744 81.358793 
L 142.59456 135.910816 
L 142.77312 139.534904 
L 142.95168 119.705859 
L 143.13024 85.528242 
L 143.3088 103.168252 
L 143.48736 73.999849 
L 143.66592 120.852134 
L 143.84448 81.550168 
L 144.02304 121.716892 
L 144.2016 118.810351 
L 144.38016 104.523024 
L 144.55872 105.956765 
L 144.73728 104.813632 
L 144.91584 76.207168 
L 145.0944 82.156651 
L 145.27296 71.864345 
L 145.9872 108.121471 
L 146.52288 76.260311 
L 146.70144 117.130343 
L 146.88 91.681647 
L 147.05856 89.208289 
L 147.23712 77.360688 
L 147.59424 94.362601 
L 147.7728 103.380888 
L 147.95136 79.885075 
L 148.12992 89.236749 
L 148.30848 124.836705 
L 148.48704 76.091674 
L 149.20128 116.528166 
L 149.5584 86.10106 
L 149.73696 119.316148 
L 149.91552 84.173258 
L 150.09408 112.984922 
L 150.4512 80.554524 
L 150.62976 82.55566 
L 150.80832 96.289852 
L 150.98688 93.323757 
L 151.16544 95.486304 
L 151.344 90.251614 
L 151.52256 79.558452 
L 151.70112 93.661016 
L 151.87968 93.560673 
L 152.05824 106.631823 
L 152.2368 75.925025 
L 152.41536 90.094557 
L 152.59392 140.200221 
L 152.77248 77.044039 
L 152.95104 120.602066 
L 153.30816 71.909546 
L 153.48672 124.983448 
L 153.66528 86.301555 
L 154.0224 77.100345 
L 154.20096 78.384699 
L 154.37952 112.800557 
L 154.55808 111.533993 
L 154.73664 102.287685 
L 154.9152 77.816502 
L 155.09376 93.000211 
L 155.27232 175.239796 
L 155.45088 77.693629 
L 155.98656 107.269272 
L 156.16512 74.484795 
L 156.52224 91.261096 
L 156.7008 82.832992 
L 156.87936 87.103825 
L 157.05792 86.465624 
L 157.23648 92.557113 
L 157.41504 79.796853 
L 157.5936 89.976741 
L 157.77216 85.281224 
L 157.95072 76.882734 
L 158.12928 87.614706 
L 158.30784 142.856959 
L 158.4864 67.709641 
L 158.66496 79.90318 
L 158.84352 66.243963 
L 159.02208 93.068962 
L 159.20064 89.066736 
L 159.3792 73.380416 
L 159.55776 81.982617 
L 159.73632 72.677542 
L 159.91488 74.250027 
L 160.09344 85.722582 
L 160.272 87.883565 
L 160.45056 102.054668 
L 160.62912 79.301508 
L 160.80768 104.419949 
L 160.98624 80.220911 
L 161.1648 78.704714 
L 161.34336 84.435393 
L 161.52192 83.23464 
L 161.70048 80.51332 
L 161.87904 79.746658 
L 162.0576 113.607341 
L 162.23616 101.076111 
L 162.41472 104.38826 
L 162.77184 88.269855 
L 162.9504 113.000088 
L 163.12896 88.143844 
L 163.30752 85.489823 
L 163.48608 85.907627 
L 163.66464 80.972136 
L 163.8432 118.3062 
L 164.02176 73.778596 
L 164.20032 72.827864 
L 164.37888 70.766529 
L 164.55744 109.963413 
L 164.736 87.793694 
L 164.91456 82.118424 
L 165.09312 110.243023 
L 165.27168 80.547306 
L 165.45024 155.373143 
L 165.6288 75.058449 
L 165.80736 73.988672 
L 165.98592 97.752369 
L 166.16448 76.121737 
L 166.5216 158.224188 
L 166.70016 75.621461 
L 166.87872 87.077376 
L 167.05728 71.122886 
L 167.23584 99.955323 
L 167.4144 80.264942 
L 167.59296 101.034454 
L 167.77152 91.85766 
L 167.95008 96.121611 
L 168.12864 88.444061 
L 168.3072 122.547342 
L 168.48576 86.170397 
L 168.66432 119.833245 
L 168.84288 112.118306 
L 169.02144 83.657715 
L 169.2 115.726125 
L 169.37856 89.910513 
L 169.55712 83.262236 
L 169.73568 86.873715 
L 169.91424 75.866184 
L 170.0928 115.401481 
L 170.27136 79.63282 
L 170.44992 80.737123 
L 170.62848 70.725598 
L 170.80704 76.207543 
L 170.9856 116.637113 
L 171.16416 67.608503 
L 171.34272 82.842525 
L 171.52128 83.438455 
L 171.69984 99.46687 
L 171.8784 96.766682 
L 172.05696 91.091555 
L 172.23552 93.529783 
L 172.41408 89.68576 
L 172.59264 130.63326 
L 172.7712 71.605631 
L 172.94976 110.863786 
L 173.12832 71.647882 
L 173.30688 89.21766 
L 173.664 78.971639 
L 173.84256 87.078563 
L 174.02112 131.117068 
L 174.19968 89.393933 
L 174.37824 129.65763 
L 174.5568 82.72094 
L 174.73536 101.394569 
L 174.91392 101.737466 
L 175.09248 129.707026 
L 175.27104 84.59928 
L 175.4496 133.1756 
L 175.62816 94.81495 
L 175.80672 82.947638 
L 175.98528 80.705643 
L 176.16384 94.9624 
L 176.3424 69.935879 
L 176.52096 78.659242 
L 176.69952 116.762257 
L 176.87808 110.552934 
L 177.05664 82.005776 
L 177.41376 122.78277 
L 177.59232 77.90071 
L 177.94944 131.956728 
L 178.128 82.852471 
L 178.30656 93.079038 
L 178.48512 71.429976 
L 178.66368 77.227963 
L 178.84224 93.555801 
L 179.0208 122.856456 
L 179.19936 102.331067 
L 179.37792 138.405645 
L 179.55648 84.002881 
L 179.73504 86.890726 
L 179.9136 76.89548 
L 180.09216 75.283749 
L 180.27072 98.472503 
L 180.44928 106.851155 
L 180.62784 106.245484 
L 180.98496 70.31842 
L 181.16352 89.795874 
L 181.34208 85.969507 
L 181.52064 92.418983 
L 181.6992 86.982259 
L 181.87776 90.797155 
L 182.05632 81.780542 
L 182.23488 91.298218 
L 182.41344 79.16278 
L 182.94912 172.438409 
L 183.12768 156.685332 
L 183.30624 105.554386 
L 183.4848 100.456391 
L 183.66336 123.449166 
L 184.02048 79.627867 
L 184.3776 123.924742 
L 184.55616 80.059221 
L 184.73472 107.329591 
L 184.91328 94.885753 
L 185.09184 125.279185 
L 185.2704 123.562674 
L 185.44896 87.304906 
L 185.62752 75.000517 
L 185.98464 123.478956 
L 186.1632 84.478749 
L 186.34176 91.549342 
L 186.52032 92.59085 
L 186.69888 89.89144 
L 186.87744 132.362171 
L 187.056 89.270032 
L 187.23456 90.931135 
L 187.41312 81.578482 
L 187.59168 200.286725 
L 187.77024 135.008841 
L 187.9488 148.305806 
L 188.12736 104.375039 
L 188.30592 101.540945 
L 188.8416 86.477557 
L 189.02016 75.508187 
L 189.19872 108.583155 
L 189.37728 99.922885 
L 189.55584 151.768412 
L 189.7344 109.242395 
L 189.91296 93.705235 
L 190.09152 124.019893 
L 190.44864 87.161596 
L 190.6272 121.341785 
L 190.80576 78.952331 
L 190.98432 76.083637 
L 191.34144 138.837154 
L 191.69856 71.094345 
L 191.87712 113.316516 
L 192.05568 124.230468 
L 192.23424 80.195671 
L 192.4128 94.553321 
L 192.59136 68.441874 
L 192.94848 91.390167 
L 193.12704 95.269428 
L 193.3056 65.88376 
L 193.48416 85.567999 
L 193.66272 79.708475 
L 193.84128 90.549161 
L 194.01984 118.439262 
L 194.1984 74.187166 
L 194.73408 111.209328 
L 194.91264 130.240225 
L 195.0912 76.912715 
L 195.26976 108.997068 
L 195.44832 89.361981 
L 195.62688 102.924647 
L 195.80544 100.887401 
L 195.984 104.018358 
L 196.16256 73.836077 
L 196.34112 88.760474 
L 196.51968 85.338857 
L 196.69824 135.994114 
L 196.8768 85.954469 
L 197.05536 112.911963 
L 197.23392 77.851762 
L 197.41248 92.320389 
L 197.59104 131.551845 
L 197.7696 95.372893 
L 197.94816 86.006143 
L 198.12672 110.691793 
L 198.30528 106.963451 
L 198.48384 93.733393 
L 198.6624 93.791408 
L 198.84096 84.054097 
L 199.01952 138.398481 
L 199.19808 105.503683 
L 199.37664 107.469482 
L 199.5552 99.933013 
L 199.73376 180.551113 
L 199.91232 90.829784 
L 200.09088 107.380931 
L 200.26944 110.19381 
L 200.448 133.945374 
L 200.62656 99.393401 
L 200.80512 91.513264 
L 200.98368 100.679896 
L 201.16224 88.211522 
L 201.3408 122.927231 
L 201.51936 124.084299 
L 201.69792 86.747779 
L 201.87648 111.528318 
L 202.05504 91.642239 
L 202.2336 120.107953 
L 202.41216 94.837734 
L 202.59072 111.39208 
L 202.76928 93.120061 
L 202.94784 101.654898 
L 203.1264 71.223137 
L 203.30496 172.76924 
L 203.48352 91.44926 
L 203.66208 134.244025 
L 203.84064 211.933525 
L 204.0192 135.075304 
L 204.19776 127.191546 
L 204.37632 98.381952 
L 204.55488 107.882427 
L 204.73344 104.976616 
L 204.912 85.753411 
L 205.09056 92.200077 
L 205.26912 108.645779 
L 205.44768 97.004284 
L 205.8048 155.834758 
L 206.16192 93.548267 
L 206.34048 96.417423 
L 206.51904 110.304322 
L 206.6976 93.469336 
L 207.05472 161.537281 
L 207.23328 110.410913 
L 207.41184 93.79828 
L 207.76896 118.115964 
L 207.94752 83.490873 
L 208.12608 96.105012 
L 208.30464 84.612103 
L 208.4832 116.077169 
L 208.84032 96.081706 
L 209.01888 142.317148 
L 209.19744 90.524272 
L 209.376 159.031233 
L 209.55456 104.974498 
L 209.73312 181.167862 
L 209.91168 98.126149 
L 210.09024 90.321855 
L 210.2688 139.178526 
L 210.44736 92.545397 
L 210.62592 130.931237 
L 210.80448 116.990724 
L 210.98304 156.190618 
L 211.1616 95.207983 
L 211.34016 102.370424 
L 211.51872 73.675426 
L 211.69728 90.258941 
L 211.87584 154.179289 
L 212.0544 97.689518 
L 212.23296 86.533342 
L 212.41152 120.66088 
L 212.59008 209.813492 
L 212.76864 89.928917 
L 212.9472 98.201518 
L 213.12576 131.288207 
L 213.30432 123.737861 
L 213.48288 130.921879 
L 213.66144 112.840229 
L 214.01856 108.571097 
L 214.19712 104.880502 
L 214.37568 83.069852 
L 214.7328 101.059102 
L 214.91136 90.304711 
L 215.08992 156.721046 
L 215.26848 105.871774 
L 215.44704 102.893554 
L 215.6256 147.508995 
L 215.80416 99.777193 
L 215.98272 87.633699 
L 216.16128 127.137429 
L 216.69696 94.769971 
L 216.87552 120.452746 
L 217.05408 101.530387 
L 217.23264 105.451468 
L 217.4112 118.725217 
L 217.58976 85.905269 
L 217.76832 116.142163 
L 217.94688 88.871223 
L 218.12544 95.300935 
L 218.304 123.704222 
L 218.66112 82.841972 
L 218.83968 148.029413 
L 219.01824 106.942974 
L 219.1968 144.950517 
L 219.37536 71.97865 
L 219.55392 130.422664 
L 219.73248 106.43519 
L 220.0896 93.537835 
L 220.26816 157.125577 
L 220.44672 95.842463 
L 220.62528 108.108189 
L 220.80384 80.26633 
L 220.9824 133.644679 
L 221.16096 72.899292 
L 221.33952 101.740461 
L 221.51808 89.238253 
L 221.69664 120.578011 
L 221.8752 125.01317 
L 222.05376 125.158444 
L 222.23232 73.1958 
L 222.41088 112.613625 
L 222.58944 88.706488 
L 222.768 104.457432 
L 223.12512 152.746187 
L 223.48224 95.711235 
L 223.6608 93.46467 
L 223.83936 105.236132 
L 224.01792 164.224127 
L 224.19648 82.757399 
L 224.37504 81.964804 
L 224.5536 89.397293 
L 224.91072 202.182977 
L 225.08928 111.066388 
L 225.26784 119.486644 
L 225.4464 113.538778 
L 225.62496 82.262275 
L 225.80352 106.235922 
L 225.98208 105.080155 
L 226.16064 89.025491 
L 226.3392 89.087693 
L 226.51776 120.427268 
L 226.69632 115.641067 
L 226.87488 124.383165 
L 227.05344 167.049216 
L 227.232 147.498506 
L 227.41056 76.572049 
L 227.58912 105.857582 
L 227.76768 113.126858 
L 227.94624 107.530099 
L 228.1248 144.014004 
L 228.30336 89.217054 
L 228.48192 92.372233 
L 228.83904 131.592233 
L 229.19616 98.209521 
L 229.37472 138.22861 
L 229.55328 81.078576 
L 229.73184 81.445902 
L 229.9104 91.016131 
L 230.08896 107.500072 
L 230.26752 95.386234 
L 230.44608 138.765506 
L 230.62464 122.216278 
L 230.8032 72.001648 
L 230.98176 96.10354 
L 231.16032 165.620971 
L 231.33888 140.935868 
L 231.51744 72.477415 
L 231.87456 101.912347 
L 232.05312 167.313963 
L 232.23168 96.282786 
L 232.5888 81.616548 
L 232.76736 88.682109 
L 232.94592 90.479449 
L 233.12448 82.10764 
L 233.30304 94.79791 
L 233.66016 138.157081 
L 233.83872 122.994627 
L 234.01728 135.424633 
L 234.55296 76.608761 
L 234.73152 86.541668 
L 235.08864 141.862432 
L 235.2672 133.453267 
L 235.44576 93.537992 
L 235.62432 143.274483 
L 235.80288 111.693568 
L 235.98144 99.903061 
L 236.33856 171.558368 
L 236.51712 83.578818 
L 236.69568 120.065076 
L 236.87424 113.306068 
L 237.0528 121.698489 
L 237.23136 81.888983 
L 237.40992 114.021003 
L 237.58848 82.349337 
L 237.76704 99.311342 
L 237.9456 98.26948 
L 238.12416 126.708716 
L 238.30272 126.715696 
L 238.48128 117.822004 
L 238.65984 115.170513 
L 238.8384 132.577861 
L 239.01696 85.246885 
L 239.19552 122.390834 
L 239.37408 95.228028 
L 239.55264 118.952184 
L 239.7312 85.24143 
L 239.90976 96.586019 
L 240.08832 136.603459 
L 240.26688 96.424217 
L 240.44544 86.437927 
L 240.624 98.333804 
L 240.80256 102.443309 
L 240.98112 202.611126 
L 241.15968 127.847526 
L 241.5168 96.970187 
L 241.69536 140.766088 
L 241.87392 140.023265 
L 242.05248 142.107871 
L 242.23104 126.533507 
L 242.4096 174.861792 
L 242.58816 114.481006 
L 242.76672 95.788926 
L 242.94528 179.973735 
L 243.12384 96.268902 
L 243.3024 117.0244 
L 243.65952 78.037265 
L 243.83808 112.235036 
L 244.01664 90.583252 
L 244.1952 189.364949 
L 244.37376 108.950742 
L 244.55232 105.045521 
L 244.73088 117.032301 
L 244.90944 91.135808 
L 245.088 141.320996 
L 245.26656 131.180137 
L 245.44512 136.771445 
L 245.62368 100.602211 
L 245.80224 89.832645 
L 245.9808 123.547581 
L 246.15936 78.819845 
L 246.33792 108.572219 
L 246.51648 168.579653 
L 246.69504 117.574177 
L 246.8736 132.359557 
L 247.05216 79.109194 
L 247.23072 100.165343 
L 247.40928 102.170732 
L 247.58784 115.943616 
L 247.7664 117.20751 
L 247.94496 121.3025 
L 248.12352 112.435441 
L 248.30208 119.44249 
L 248.48064 84.119857 
L 248.6592 190.531705 
L 248.83776 85.167974 
L 249.01632 102.764852 
L 249.19488 90.592502 
L 249.37344 107.968649 
L 249.552 198.53143 
L 249.73056 97.361487 
L 249.90912 75.181626 
L 250.08768 76.960088 
L 250.26624 91.897874 
L 250.4448 165.834193 
L 250.80192 92.001257 
L 250.98048 159.542315 
L 251.15904 151.629842 
L 251.3376 151.198407 
L 251.51616 83.768181 
L 251.69472 86.663687 
L 251.87328 131.512397 
L 252.05184 99.630972 
L 252.2304 89.296765 
L 252.40896 125.418957 
L 252.76608 102.568415 
L 252.94464 132.839976 
L 253.1232 90.738696 
L 253.30176 101.437349 
L 253.65888 72.468414 
L 253.83744 82.669515 
L 254.016 74.315958 
L 254.19456 83.534595 
L 254.37312 153.665813 
L 254.55168 103.39735 
L 254.9088 183.973962 
L 255.08736 108.441183 
L 255.26592 113.000717 
L 255.44448 91.780065 
L 255.62304 139.719783 
L 255.8016 88.829362 
L 255.98016 101.60934 
L 256.15872 122.916315 
L 256.33728 88.572638 
L 256.51584 112.225201 
L 256.87296 75.931345 
L 257.05152 156.297315 
L 257.23008 138.054705 
L 257.40864 151.880886 
L 257.5872 87.807345 
L 257.76576 194.838301 
L 257.94432 70.591721 
L 258.30144 139.259547 
L 258.48 93.848074 
L 258.83712 184.259327 
L 259.01568 79.31569 
L 259.3728 142.563863 
L 259.55136 110.32216 
L 259.72992 115.003926 
L 259.90848 91.573668 
L 260.08704 85.99673 
L 260.2656 140.435441 
L 260.44416 147.879062 
L 260.62272 149.111291 
L 260.80128 106.245899 
L 260.97984 94.392576 
L 261.1584 101.528105 
L 261.33696 101.477744 
L 261.51552 174.428715 
L 261.69408 99.431753 
L 261.87264 96.016056 
L 262.0512 113.791882 
L 262.22976 111.021411 
L 262.40832 102.897643 
L 262.58688 159.104183 
L 262.944 98.746253 
L 263.12256 133.988975 
L 263.30112 96.901158 
L 263.47968 113.929863 
L 263.65824 146.497602 
L 263.8368 89.773666 
L 264.01536 135.457227 
L 264.19392 85.375471 
L 264.37248 119.580545 
L 264.55104 107.591589 
L 264.7296 147.621709 
L 264.90816 150.684484 
L 265.08672 111.710345 
L 265.44384 102.042106 
L 265.6224 151.752523 
L 265.97952 97.102703 
L 266.15808 182.706767 
L 266.33664 88.26502 
L 266.5152 130.74875 
L 266.69376 95.438794 
L 266.87232 99.145321 
L 267.05088 126.784186 
L 267.22944 96.773951 
L 267.408 93.857541 
L 267.58656 133.093486 
L 267.76512 223.749232 
L 267.94368 99.25661 
L 268.12224 201.1009 
L 268.47936 80.377217 
L 268.65792 107.570041 
L 268.83648 174.984045 
L 269.01504 92.963504 
L 269.1936 89.377188 
L 269.37216 113.012029 
L 269.55072 109.385511 
L 269.72928 97.53946 
L 269.90784 129.632114 
L 270.0864 86.84147 
L 270.26496 132.315349 
L 270.44352 122.056797 
L 270.62208 99.241878 
L 270.80064 98.65818 
L 270.9792 185.479599 
L 271.15776 109.637262 
L 271.33632 122.637764 
L 271.51488 119.178518 
L 271.69344 183.800346 
L 271.872 91.912258 
L 272.05056 94.878546 
L 272.22912 108.69764 
L 272.40768 98.267251 
L 272.58624 103.842186 
L 272.7648 134.039307 
L 272.94336 131.683301 
L 273.12192 152.97154 
L 273.30048 99.772149 
L 273.47904 98.632331 
L 273.6576 115.08344 
L 273.83616 99.838492 
L 274.01472 179.577967 
L 274.19328 82.219974 
L 274.37184 84.346943 
L 274.5504 96.584776 
L 274.72896 142.994998 
L 274.90752 94.136471 
L 275.26464 105.536231 
L 275.4432 173.856025 
L 275.62176 151.734401 
L 275.80032 87.686043 
L 275.97888 96.161633 
L 276.15744 113.859628 
L 276.336 119.881676 
L 276.51456 95.283969 
L 276.69312 128.331827 
L 277.05024 136.821268 
L 277.2288 116.846806 
L 277.40736 136.75453 
L 277.76448 90.048842 
L 277.94304 104.044076 
L 278.1216 101.390525 
L 278.30016 149.163505 
L 278.47872 108.892949 
L 278.65728 109.99908 
L 278.83584 88.386974 
L 279.0144 102.732071 
L 279.19296 140.569122 
L 279.37152 123.86297 
L 279.55008 133.277107 
L 279.72864 93.41787 
L 279.9072 111.315451 
L 280.08576 104.439163 
L 280.26432 111.770603 
L 280.44288 103.311275 
L 280.62144 131.102545 
L 280.8 106.598637 
L 280.97856 118.477943 
L 281.15712 108.809866 
L 281.33568 108.340829 
L 281.51424 89.820693 
L 281.6928 178.494297 
L 282.04992 118.073236 
L 282.22848 140.880529 
L 282.40704 123.395601 
L 282.5856 121.205449 
L 282.94272 85.535469 
L 283.12128 163.478045 
L 283.29984 100.138955 
L 283.65696 77.945325 
L 284.01408 85.191961 
L 284.19264 92.129661 
L 284.3712 138.726022 
L 284.54976 87.858905 
L 284.72832 151.134787 
L 284.90688 113.194545 
L 285.264 93.872359 
L 285.44256 148.391658 
L 285.62112 105.10574 
L 285.79968 97.620024 
L 285.97824 102.774367 
L 286.1568 90.215415 
L 286.33536 113.264087 
L 286.51392 92.811784 
L 286.87104 150.585178 
L 287.0496 113.083866 
L 287.22816 116.355815 
L 287.40672 98.085336 
L 287.58528 103.089709 
L 287.76384 111.740838 
L 287.9424 140.180887 
L 288.12096 103.105146 
L 288.29952 104.450724 
L 288.47808 91.036256 
L 288.65664 98.547049 
L 288.8352 112.079284 
L 289.01376 83.256794 
L 289.19232 100.837848 
L 289.37088 103.90999 
L 289.54944 96.260299 
L 289.728 123.460454 
L 289.90656 101.978945 
L 290.08512 118.841936 
L 290.26368 99.930131 
L 290.6208 150.884639 
L 290.79936 133.631936 
L 290.97792 76.237957 
L 291.33504 134.481326 
L 291.5136 91.351941 
L 291.69216 126.860729 
L 292.04928 89.707149 
L 292.4064 131.442934 
L 292.58496 158.640884 
L 292.76352 131.292749 
L 292.94208 148.068573 
L 293.12064 94.09771 
L 293.2992 138.606665 
L 293.47776 93.778812 
L 293.65632 91.867564 
L 293.83488 84.0664 
L 294.01344 91.341773 
L 294.37056 117.458276 
L 294.54912 107.608632 
L 294.72768 125.624852 
L 294.90624 125.898478 
L 295.0848 126.95572 
L 295.26336 100.313395 
L 295.44192 113.952542 
L 295.62048 104.687601 
L 295.9776 138.028211 
L 296.15616 80.12787 
L 296.33472 103.386381 
L 296.51328 104.023922 
L 296.69184 77.443258 
L 296.8704 127.932324 
L 297.04896 102.535531 
L 297.22752 126.677415 
L 297.40608 113.219037 
L 297.58464 125.59412 
L 297.7632 103.208687 
L 297.94176 98.254418 
L 298.12032 104.514328 
L 298.29888 87.781163 
L 298.47744 93.261727 
L 298.656 107.704795 
L 298.83456 152.132503 
L 299.01312 154.662013 
L 299.19168 83.482463 
L 299.5488 95.916811 
L 299.72736 133.773026 
L 299.90592 85.6592 
L 300.08448 150.650324 
L 300.26304 102.94437 
L 300.4416 98.008947 
L 300.62016 98.326688 
L 300.97728 92.70987 
L 301.15584 96.794574 
L 301.3344 118.100174 
L 301.51296 91.574685 
L 301.69152 94.890204 
L 301.87008 184.927686 
L 302.04864 111.52809 
L 302.2272 140.334832 
L 302.40576 124.099104 
L 302.58432 91.077206 
L 302.76288 146.649492 
L 302.94144 117.077347 
L 303.12 122.522932 
L 303.47712 105.042514 
L 303.65568 95.759687 
L 303.83424 120.212752 
L 304.0128 107.627026 
L 304.19136 150.75277 
L 304.36992 88.30224 
L 304.54848 73.345694 
L 304.72704 181.025993 
L 305.08416 76.074831 
L 305.26272 91.29726 
L 305.44128 82.467162 
L 305.61984 115.594071 
L 305.7984 84.389474 
L 305.97696 150.542039 
L 306.15552 151.025572 
L 306.33408 103.278741 
L 306.51264 87.019128 
L 306.6912 96.522907 
L 306.86976 96.27853 
L 307.04832 123.864473 
L 307.22688 117.272495 
L 307.584 89.089623 
L 307.76256 83.387736 
L 307.94112 127.00823 
L 308.11968 123.799879 
L 308.29824 151.494616 
L 308.4768 104.568147 
L 308.65536 143.781786 
L 308.83392 137.599961 
L 309.01248 140.049228 
L 309.19104 87.99871 
L 309.54816 114.021807 
L 309.72672 90.173118 
L 310.08384 121.109362 
L 310.2624 105.75176 
L 310.44096 106.58599 
L 310.61952 103.193948 
L 310.79808 126.303921 
L 310.97664 83.744089 
L 311.1552 134.300209 
L 311.33376 99.286548 
L 311.51232 132.70012 
L 311.69088 78.919994 
L 311.86944 111.315578 
L 312.048 119.904015 
L 312.22656 89.42102 
L 312.40512 118.509053 
L 312.58368 124.36349 
L 312.76224 119.821242 
L 312.9408 104.522666 
L 313.11936 157.664228 
L 313.29792 150.021469 
L 313.47648 156.275697 
L 313.65504 86.000975 
L 313.8336 109.661565 
L 314.01216 113.959193 
L 314.36928 88.206907 
L 314.54784 114.559177 
L 314.7264 217.013982 
L 314.90496 125.125203 
L 315.08352 98.395829 
L 315.26208 95.764316 
L 315.44064 110.240683 
L 315.6192 107.563359 
L 315.97632 212.614532 
L 316.15488 78.884434 
L 316.33344 129.320599 
L 316.69056 85.93266 
L 316.86912 81.898526 
L 317.04768 91.033641 
L 317.22624 137.204519 
L 317.4048 106.244999 
L 317.58336 153.13592 
L 317.94048 112.030122 
L 318.11904 122.45033 
L 318.47616 96.522721 
L 318.65472 105.545351 
L 318.83328 128.78106 
L 319.01184 98.064458 
L 319.1904 155.060854 
L 319.36896 97.7783 
L 319.54752 121.765976 
L 319.72608 82.220719 
L 319.90464 97.765512 
L 320.0832 144.105167 
L 320.44032 104.622094 
L 320.61888 112.16363 
L 320.79744 111.414468 
L 320.976 109.567389 
L 321.15456 102.180202 
L 321.33312 176.150558 
L 321.51168 101.96672 
L 321.69024 83.767992 
L 321.8688 87.146116 
L 322.40448 203.703443 
L 322.58304 119.95429 
L 322.7616 152.591617 
L 322.94016 139.43049 
L 323.11872 135.419279 
L 323.29728 107.372798 
L 323.47584 107.786932 
L 323.6544 102.025869 
L 323.83296 215.691291 
L 324.01152 120.593964 
L 324.19008 94.343076 
L 324.5472 125.491862 
L 324.72576 175.388468 
L 325.08288 98.215552 
L 325.26144 106.58315 
L 325.44 125.118314 
L 325.61856 95.303112 
L 325.79712 92.182608 
L 325.97568 100.420368 
L 326.51136 174.672915 
L 326.68992 81.529371 
L 326.86848 89.385619 
L 327.04704 126.750648 
L 327.2256 106.943864 
L 327.40416 137.518422 
L 327.58272 137.803612 
L 327.76128 214.166891 
L 327.93984 186.244576 
L 328.1184 106.480328 
L 328.29696 117.700475 
L 328.47552 75.884076 
L 328.65408 133.219793 
L 328.83264 86.018415 
L 329.0112 114.723229 
L 329.18976 112.658002 
L 329.36832 131.074926 
L 329.72544 93.952303 
L 329.904 100.534819 
L 330.08256 98.607868 
L 330.26112 136.059502 
L 330.43968 90.072812 
L 330.7968 95.844432 
L 330.97536 141.936637 
L 331.33248 83.65519 
L 331.51104 110.1319 
L 331.6896 101.852209 
L 331.86816 107.534203 
L 332.04672 83.616956 
L 332.22528 123.537318 
L 332.40384 84.989056 
L 332.5824 165.028152 
L 332.76096 95.74797 
L 332.93952 137.114937 
L 333.11808 107.413186 
L 333.29664 122.071884 
L 333.4752 94.827911 
L 333.65376 110.500369 
L 333.83232 105.889678 
L 334.01088 97.149595 
L 334.18944 116.907685 
L 334.368 91.443701 
L 334.54656 140.404183 
L 334.72512 127.470901 
L 334.90368 94.486338 
L 335.08224 106.612834 
L 335.2608 99.522271 
L 335.43936 80.526741 
L 335.79648 129.879108 
L 335.97504 118.165367 
L 336.1536 115.900254 
L 336.33216 102.429377 
L 336.51072 113.057376 
L 336.86784 96.213377 
L 337.0464 239.109685 
L 337.40352 85.060824 
L 337.58208 101.047344 
L 337.76064 156.318187 
L 337.9392 132.936498 
L 338.11776 125.883997 
L 338.29632 82.688701 
L 338.65344 121.82486 
L 338.832 125.062742 
L 339.01056 97.634853 
L 339.18912 146.783372 
L 339.36768 68.669765 
L 339.54624 89.05443 
L 339.7248 123.427752 
L 339.90336 124.752136 
L 340.08192 115.616664 
L 340.26048 115.697646 
L 340.43904 127.184467 
L 340.6176 114.38825 
L 340.79616 80.011848 
L 341.15328 198.49794 
L 341.33184 134.760097 
L 341.5104 130.627842 
L 341.68896 102.351925 
L 341.86752 144.37842 
L 342.04608 85.871019 
L 342.22464 183.052073 
L 342.4032 130.21628 
L 342.76032 112.464858 
L 342.93888 160.297547 
L 343.296 91.849103 
L 343.47456 102.430816 
L 343.65312 174.78154 
L 343.83168 96.378883 
L 344.01024 115.386439 
L 344.1888 121.006079 
L 344.54592 85.098032 
L 344.72448 157.48555 
L 344.90304 83.094175 
L 345.0816 150.618516 
L 345.26016 95.6827 
L 345.43872 106.348763 
L 345.61728 134.533422 
L 345.79584 89.662153 
L 345.9744 152.722976 
L 346.15296 99.196072 
L 346.33152 143.328014 
L 346.51008 111.50073 
L 346.68864 193.399426 
L 346.8672 173.217732 
L 347.22432 73.283439 
L 347.40288 105.073365 
L 347.58144 107.430318 
L 347.76 114.661228 
L 348.11712 91.390021 
L 348.29568 113.079226 
L 348.47424 114.940879 
L 348.6528 114.019345 
L 348.83136 102.230663 
L 349.00992 80.829558 
L 349.18848 118.332295 
L 349.36704 119.743523 
L 349.5456 107.201127 
L 349.72416 112.57391 
L 349.90272 96.696604 
L 350.08128 147.325152 
L 350.25984 128.361136 
L 350.4384 90.275526 
L 350.61696 132.026467 
L 350.79552 111.451713 
L 351.15264 117.925088 
L 351.3312 127.965864 
L 351.50976 98.954758 
L 351.68832 110.097536 
L 351.86688 133.41894 
L 352.04544 96.257108 
L 352.224 99.610129 
L 352.40256 115.533036 
L 352.58112 86.905597 
L 352.75968 77.831532 
L 352.93824 93.212139 
L 353.1168 160.022724 
L 353.29536 106.147439 
L 353.47392 89.836832 
L 353.65248 90.828741 
L 353.83104 147.461755 
L 354.36672 94.31672 
L 354.54528 98.649246 
L 354.72384 119.409748 
L 354.9024 85.492136 
L 355.08096 89.523355 
L 355.43808 75.326044 
L 355.61664 151.243952 
L 355.7952 111.034713 
L 355.97376 110.042226 
L 356.15232 83.025044 
L 356.33088 96.70074 
L 356.86656 159.3965 
L 357.22368 108.869205 
L 357.40224 103.07256 
L 357.5808 122.830078 
L 357.75936 80.178662 
L 357.93792 109.797674 
L 358.11648 158.950842 
L 358.29504 84.441797 
L 358.4736 116.046973 
L 358.65216 110.159825 
L 358.83072 89.889873 
L 359.00928 122.948104 
L 359.18784 86.839599 
L 359.54496 151.051441 
L 359.72352 92.726467 
L 359.90208 152.366256 
L 360.08064 96.341011 
L 360.2592 89.182885 
L 360.43776 91.456736 
L 360.61632 124.954557 
L 360.79488 108.79071 
L 360.97344 104.133457 
L 361.33056 70.761618 
L 361.50912 74.976979 
L 361.86624 112.250309 
L 362.0448 85.479649 
L 362.22336 143.306206 
L 362.40192 78.87742 
L 362.58048 196.541064 
L 362.9376 103.871137 
L 363.11616 221.602038 
L 363.29472 225.036126 
L 363.47328 132.727662 
L 363.65184 106.956205 
L 363.8304 112.959665 
L 364.00896 114.149279 
L 364.36608 153.825816 
L 364.54464 125.051359 
L 364.7232 128.757509 
L 364.90176 92.384085 
L 365.08032 103.757085 
L 365.25888 93.011579 
L 365.43744 110.321916 
L 365.616 175.574361 
L 365.79456 128.621206 
L 365.97312 138.474041 
L 366.15168 99.919894 
L 366.33024 100.794447 
L 366.5088 88.508518 
L 366.68736 104.015957 
L 366.86592 92.027443 
L 367.04448 92.524337 
L 367.22304 143.183735 
L 367.4016 94.264234 
L 367.58016 106.59583 
L 367.75872 110.347354 
L 367.93728 80.337205 
L 368.11584 107.859687 
L 368.2944 89.626623 
L 368.47296 113.315881 
L 368.65152 106.473777 
L 368.83008 140.510908 
L 369.00864 104.548589 
L 369.1872 113.213147 
L 369.36576 154.777093 
L 369.54432 145.312243 
L 369.72288 111.423458 
L 370.08 94.220993 
L 370.25856 110.918098 
L 370.43712 159.650061 
L 370.79424 73.346093 
L 370.9728 135.378444 
L 371.15136 102.235566 
L 371.32992 99.075728 
L 371.50848 124.079758 
L 371.68704 98.661879 
L 371.8656 140.750818 
L 372.04416 133.216706 
L 372.22272 94.871836 
L 372.40128 88.174221 
L 372.57984 123.88798 
L 372.7584 90.046365 
L 372.93696 105.362193 
L 373.11552 79.105123 
L 373.29408 100.001453 
L 373.47264 144.805711 
L 373.6512 102.076093 
L 373.82976 161.426591 
L 374.00832 137.092015 
L 374.18688 88.592969 
L 374.544 118.628761 
L 374.90112 84.019191 
L 375.07968 148.8129 
L 375.25824 109.486847 
L 375.4368 106.676774 
L 375.79392 91.482174 
L 375.97248 106.163058 
L 376.15104 91.853893 
L 376.3296 119.136053 
L 376.50816 102.452661 
L 376.68672 161.016986 
L 376.86528 172.384513 
L 377.04384 106.964793 
L 377.2224 103.265317 
L 377.40096 151.388941 
L 377.75808 78.518021 
L 377.93664 80.446926 
L 378.29376 139.276441 
L 378.47232 96.547287 
L 378.65088 115.395336 
L 379.008 96.859741 
L 379.18656 105.314558 
L 379.36512 177.270315 
L 379.54368 104.74994 
L 379.72224 101.735827 
L 379.9008 205.806823 
L 380.07936 80.636255 
L 380.25792 95.195281 
L 380.43648 84.623149 
L 380.61504 168.526366 
L 380.97216 80.171888 
L 381.15072 119.279125 
L 381.32928 104.977189 
L 381.50784 100.683235 
L 381.6864 131.90677 
L 381.86496 88.536492 
L 382.22208 101.691996 
L 382.40064 155.308497 
L 382.5792 85.092072 
L 382.93632 94.885907 
L 383.11488 87.401677 
L 383.29344 100.339435 
L 383.472 189.190345 
L 383.65056 91.140452 
L 383.82912 114.022366 
L 384.00768 110.186904 
L 384.18624 66.571794 
L 384.3648 128.319802 
L 384.54336 103.314205 
L 384.72192 114.249798 
L 384.90048 105.408433 
L 385.07904 77.545997 
L 385.2576 96.201141 
L 385.43616 79.503886 
L 385.61472 121.319703 
L 385.97184 77.140642 
L 386.32896 112.821095 
L 386.50752 158.363729 
L 386.68608 155.510138 
L 386.86464 144.070211 
L 387.0432 108.994379 
L 387.22176 158.056713 
L 387.57888 110.512726 
L 387.75744 133.530711 
L 387.936 120.559933 
L 388.11456 95.437626 
L 388.29312 103.738578 
L 388.47168 101.487898 
L 388.65024 85.102108 
L 388.8288 94.685281 
L 389.00736 79.883679 
L 389.18592 99.718989 
L 389.36448 134.665882 
L 389.7216 70.054519 
L 389.90016 105.371262 
L 390.07872 104.421302 
L 390.25728 152.491856 
L 390.43584 82.384926 
L 390.6144 108.482104 
L 390.79296 104.174874 
L 390.97152 187.388944 
L 391.32864 85.175896 
L 391.68576 110.276835 
L 392.04288 105.386255 
L 392.22144 126.986486 
L 392.4 85.426318 
L 392.75712 113.621973 
L 392.93568 78.005092 
L 393.11424 90.389255 
L 393.2928 89.047204 
L 393.47136 166.989861 
L 393.64992 104.598453 
L 393.82848 81.76499 
L 394.00704 114.713918 
L 394.1856 97.353772 
L 394.36416 106.786466 
L 394.54272 103.628164 
L 394.72128 129.226668 
L 394.89984 84.594645 
L 395.0784 130.512517 
L 395.25696 77.712392 
L 395.43552 123.562503 
L 395.79264 110.051538 
L 395.9712 154.746713 
L 396.14976 131.717111 
L 396.32832 91.924051 
L 396.50688 212.888181 
L 396.68544 120.189467 
L 396.864 91.540571 
L 397.04256 94.689027 
L 397.22112 91.484277 
L 397.39968 63.648 
L 397.57824 116.486755 
L 397.7568 112.90125 
L 397.93536 133.29793 
L 398.11392 87.111019 
L 398.29248 87.150418 
L 398.47104 91.580826 
L 398.6496 126.8282 
L 398.82816 112.962763 
L 399.00672 75.615442 
L 399.18528 105.159818 
L 399.36384 85.289674 
L 399.5424 113.566774 
L 399.72096 100.842145 
L 400.07808 131.487176 
L 400.4352 98.120105 
L 400.61376 103.351774 
L 400.79232 97.358119 
L 400.97088 127.286852 
L 401.14944 121.109933 
L 401.328 119.756549 
L 401.50656 135.666636 
L 401.68512 83.051034 
L 401.86368 221.127937 
L 402.2208 88.591859 
L 402.39936 174.810596 
L 402.57792 92.516446 
L 402.75648 83.113952 
L 402.93504 105.906704 
L 403.1136 146.727299 
L 403.47072 129.289819 
L 403.64928 136.561063 
L 403.82784 99.852367 
L 404.0064 100.383373 
L 404.18496 120.739473 
L 404.36352 90.34265 
L 404.54208 117.429972 
L 404.8992 90.601756 
L 405.07776 146.918385 
L 405.25632 92.357366 
L 405.43488 102.681535 
L 405.61344 86.659192 
L 405.792 138.892009 
L 405.97056 110.145994 
L 406.14912 130.176742 
L 406.32768 71.526119 
L 406.50624 105.305189 
L 406.6848 114.077841 
L 406.86336 139.225667 
L 407.04192 105.703059 
L 407.22048 103.430535 
L 407.39904 111.790641 
L 407.5776 167.121775 
L 407.75616 92.490055 
L 407.93472 127.082212 
L 408.11328 117.448712 
L 408.29184 94.938578 
L 408.4704 136.544747 
L 408.64896 109.841558 
L 409.00608 132.3073 
L 409.18464 78.030604 
L 409.3632 74.740729 
L 409.54176 118.474231 
L 409.72032 100.690878 
L 409.89888 116.498129 
L 410.43456 92.288668 
L 410.61312 99.42466 
L 410.79168 119.311754 
L 410.97024 197.591289 
L 411.1488 97.909695 
L 411.32736 88.910562 
L 411.50592 89.224863 
L 411.68448 118.028413 
L 411.86304 98.930783 
L 412.0416 118.622158 
L 412.22016 95.589117 
L 412.39872 96.217722 
L 412.57728 81.028908 
L 412.75584 94.285498 
L 412.9344 89.070149 
L 413.11296 104.65502 
L 413.29152 134.611286 
L 413.47008 89.928712 
L 413.64864 122.66002 
L 413.8272 92.311122 
L 414.00576 90.02285 
L 414.18432 96.432367 
L 414.36288 70.4027 
L 414.54144 95.276866 
L 414.54144 95.276866 
" style="fill:none;stroke:#0000ff;stroke-linecap:square;stroke-width:1.5;"/>
   </g>
   <g id="patch_3">
    <path d="M 57.6 307.584 
L 57.6 41.472 
" style="fill:none;stroke:#000000;stroke-linecap:square;stroke-linejoin:miter;stroke-width:0.8;"/>
   </g>
   <g id="patch_4">
    <path d="M 414.72 307.584 
L 414.72 41.472 
" style="fill:none;stroke:#000000;stroke-linecap:square;stroke-linejoin:miter;stroke-width:0.8;"/>
   </g>
   <g id="patch_5">
    <path d="M 57.6 307.584 
L 414.72 307.584 
" style="fill:none;stroke:#000000;stroke-linecap:square;stroke-linejoin:miter;stroke-width:0.8;"/>
   </g>
   <g id="patch_6">
    <path d="M 57.6 41.472 
L 414.72 41.472 
" style="fill:none;stroke:#000000;stroke-linecap:square;stroke-linejoin:miter;stroke-width:0.8;"/>
   </g>
   <g id="legend_1">
    <g id="patch_7">
     <path d="M 64.6 64.150125 
L 189.998437 64.150125 
Q 191.998437 64.150125 191.998437 62.150125 
L 191.998437 48.472 
Q 191.998437 46.472 189.998437 46.472 
L 64.6 46.472 
Q 62.6 46.472 62.6 48.472 
L 62.6 62.150125 
Q 62.6 64.150125 64.6 64.150125 
z
" style="fill:#ffffff;opacity:0.8;stroke:#cccccc;stroke-linejoin:miter;"/>
    </g>
    <g id="line2d_32">
     <path d="M 66.6 54.570438 
L 86.6 54.570438 
" style="fill:none;stroke:#0000ff;stroke-linecap:square;stroke-width:1.5;"/>
    </g>
    <g id="line2d_33"/>
    <g id="text_19">
     <!-- cumulative reward -->
     <g transform="translate(94.6 58.070438)scale(0.1 -0.1)">
      <defs>
       <path d="M 3122 3366 
L 3122 2828 
Q 2878 2963 2633 3030 
Q 2388 3097 2138 3097 
Q 1578 3097 1268 2742 
Q 959 2388 959 1747 
Q 959 1106 1268 751 
Q 1578 397 2138 397 
Q 2388 397 2633 464 
Q 2878 531 3122 666 
L 3122 134 
Q 2881 22 2623 -34 
Q 2366 -91 2075 -91 
Q 1284 -91 818 406 
Q 353 903 353 1747 
Q 353 2603 823 3093 
Q 1294 3584 2113 3584 
Q 2378 3584 2631 3529 
Q 2884 3475 3122 3366 
z
" id="DejaVuSans-63" transform="scale(0.015625)"/>
      </defs>
      <use xlink:href="#DejaVuSans-63"/>
      <use x="54.980469" xlink:href="#DejaVuSans-75"/>
      <use x="118.359375" xlink:href="#DejaVuSans-6d"/>
      <use x="215.771484" xlink:href="#DejaVuSans-75"/>
      <use x="279.150391" xlink:href="#DejaVuSans-6c"/>
      <use x="306.933594" xlink:href="#DejaVuSans-61"/>
      <use x="368.212891" xlink:href="#DejaVuSans-74"/>
      <use x="407.421875" xlink:href="#DejaVuSans-69"/>
      <use x="435.205078" xlink:href="#DejaVuSans-76"/>
      <use x="494.384766" xlink:href="#DejaVuSans-65"/>
      <use x="555.908203" xlink:href="#DejaVuSans-20"/>
      <use x="587.695312" xlink:href="#DejaVuSans-72"/>
      <use x="626.558594" xlink:href="#DejaVuSans-65"/>
      <use x="688.082031" xlink:href="#DejaVuSans-77"/>
      <use x="769.869141" xlink:href="#DejaVuSans-61"/>
      <use x="831.148438" xlink:href="#DejaVuSans-72"/>
      <use x="870.511719" xlink:href="#DejaVuSans-64"/>
     </g>
    </g>
   </g>
  </g>
 </g>
 <defs>
  <clipPath id="pb41cf0268f">
   <rect height="266.112" width="357.12" x="57.6" y="41.472"/>
  </clipPath>
 </defs>
</svg>
