<?xml version="1.0" encoding="utf-8" standalone="no"?>
<!DOCTYPE svg PUBLIC "-//W3C//DTD SVG 1.1//EN"
  "http://www.w3.org/Graphics/SVG/1.1/DTD/svg11.dtd">
<svg height="345.6pt" version="1.1" viewBox="0 0 460.8 345.6" width="460.8pt" xmlns="http://www.w3.org/2000/svg" xmlns:xlink="http://www.w3.org/1999/xlink">
 <metadata>
  <rdf:RDF xmlns:cc="http://creativecommons.org/ns#" xmlns:dc="http://purl.org/dc/elements/1.1/" xmlns:rdf="http://www.w3.org/1999/02/22-rdf-syntax-ns#">
   <cc:Work>
    <dc:type rdf:resource="http://purl.org/dc/dcmitype/StillImage"/>
    <dc:date>2021-10-27T11:15:22.729892</dc:date>
    <dc:description>{"agent.algorithm": "RayProximalPolicyOptimization", "agent.algorithm.render_env": false, "agent.algorithm.num_workers": 0, "agent.algorithm.batch_mode": "complete_episodes", "agent.algorithm.train_batch_size": 200, "agent.algorithm.optimizer": "Adam", "agent.algorithm.vf_clip_param": 10000000.0, "agent.algorithm.model": {"fcnet_activation": "tanh", "fcnet_hiddens": [50, 50]}, "env.env_class": "SchedulerPolicyRayEnvironment", "env.env_config": {"solver_driver": "CMAdriver", "solver_driver_args": [10, 10, 12, 1.28], "maximize": false, "steps": 50, "state_metrics_names": ["DifferenceOfBest", "SolverStateHistory", "SolverState"], "state_metrics_config": [[40, false, 1, true], [{"step_size": {"max": 3, "min": 0}}, 40], [{"ps": {"max": 10, "min": -10}}]], "reward_metric": "Best", "reward_metric_config": [false, false], "memes_no": 1, "action_space_config": {"step_size": {"max": 3, "min": 1e-10}}}}</dc:description>
    <dc:format>image/svg+xml</dc:format>
    <dc:creator>
     <cc:Agent>
      <dc:title>Matplotlib v3.4.3, https://matplotlib.org/</dc:title>
     </cc:Agent>
    </dc:creator>
   </cc:Work>
  </rdf:RDF>
 </metadata>
 <defs>
  <style type="text/css">*{stroke-linecap:butt;stroke-linejoin:round;}</style>
 </defs>
 <g id="figure_1">
  <g id="patch_1">
   <path d="M 0 345.6 
L 460.8 345.6 
L 460.8 0 
L 0 0 
z
" style="fill:#ffffff;"/>
  </g>
  <g id="axes_1">
   <g id="patch_2">
    <path d="M 57.6 307.584 
L 414.72 307.584 
L 414.72 41.472 
L 57.6 41.472 
z
" style="fill:#ffffff;"/>
   </g>
   <g id="matplotlib.axis_1">
    <g id="xtick_1">
     <g id="line2d_1">
      <path clip-path="url(#p9a95cad2d6)" d="M 57.6 307.584 
L 57.6 41.472 
" style="fill:none;stroke:#b0b0b0;stroke-linecap:square;stroke-width:0.8;"/>
     </g>
     <g id="line2d_2">
      <defs>
       <path d="M 0 0 
L 0 3.5 
" id="m3f6c32165b" style="stroke:#000000;stroke-width:0.8;"/>
      </defs>
      <g>
       <use style="stroke:#000000;stroke-width:0.8;" x="57.6" xlink:href="#m3f6c32165b" y="307.584"/>
      </g>
     </g>
     <g id="text_1">
      <!-- 0 -->
      <g transform="translate(54.41875 322.182437)scale(0.1 -0.1)">
       <defs>
        <path d="M 2034 4250 
Q 1547 4250 1301 3770 
Q 1056 3291 1056 2328 
Q 1056 1369 1301 889 
Q 1547 409 2034 409 
Q 2525 409 2770 889 
Q 3016 1369 3016 2328 
Q 3016 3291 2770 3770 
Q 2525 4250 2034 4250 
z
M 2034 4750 
Q 2819 4750 3233 4129 
Q 3647 3509 3647 2328 
Q 3647 1150 3233 529 
Q 2819 -91 2034 -91 
Q 1250 -91 836 529 
Q 422 1150 422 2328 
Q 422 3509 836 4129 
Q 1250 4750 2034 4750 
z
" id="DejaVuSans-30" transform="scale(0.015625)"/>
       </defs>
       <use xlink:href="#DejaVuSans-30"/>
      </g>
     </g>
    </g>
    <g id="xtick_2">
     <g id="line2d_3">
      <path clip-path="url(#p9a95cad2d6)" d="M 129.024 307.584 
L 129.024 41.472 
" style="fill:none;stroke:#b0b0b0;stroke-linecap:square;stroke-width:0.8;"/>
     </g>
     <g id="line2d_4">
      <g>
       <use style="stroke:#000000;stroke-width:0.8;" x="129.024" xlink:href="#m3f6c32165b" y="307.584"/>
      </g>
     </g>
     <g id="text_2">
      <!-- 200 -->
      <g transform="translate(119.48025 322.182437)scale(0.1 -0.1)">
       <defs>
        <path d="M 1228 531 
L 3431 531 
L 3431 0 
L 469 0 
L 469 531 
Q 828 903 1448 1529 
Q 2069 2156 2228 2338 
Q 2531 2678 2651 2914 
Q 2772 3150 2772 3378 
Q 2772 3750 2511 3984 
Q 2250 4219 1831 4219 
Q 1534 4219 1204 4116 
Q 875 4013 500 3803 
L 500 4441 
Q 881 4594 1212 4672 
Q 1544 4750 1819 4750 
Q 2544 4750 2975 4387 
Q 3406 4025 3406 3419 
Q 3406 3131 3298 2873 
Q 3191 2616 2906 2266 
Q 2828 2175 2409 1742 
Q 1991 1309 1228 531 
z
" id="DejaVuSans-32" transform="scale(0.015625)"/>
       </defs>
       <use xlink:href="#DejaVuSans-32"/>
       <use x="63.623047" xlink:href="#DejaVuSans-30"/>
       <use x="127.246094" xlink:href="#DejaVuSans-30"/>
      </g>
     </g>
    </g>
    <g id="xtick_3">
     <g id="line2d_5">
      <path clip-path="url(#p9a95cad2d6)" d="M 200.448 307.584 
L 200.448 41.472 
" style="fill:none;stroke:#b0b0b0;stroke-linecap:square;stroke-width:0.8;"/>
     </g>
     <g id="line2d_6">
      <g>
       <use style="stroke:#000000;stroke-width:0.8;" x="200.448" xlink:href="#m3f6c32165b" y="307.584"/>
      </g>
     </g>
     <g id="text_3">
      <!-- 400 -->
      <g transform="translate(190.90425 322.182437)scale(0.1 -0.1)">
       <defs>
        <path d="M 2419 4116 
L 825 1625 
L 2419 1625 
L 2419 4116 
z
M 2253 4666 
L 3047 4666 
L 3047 1625 
L 3713 1625 
L 3713 1100 
L 3047 1100 
L 3047 0 
L 2419 0 
L 2419 1100 
L 313 1100 
L 313 1709 
L 2253 4666 
z
" id="DejaVuSans-34" transform="scale(0.015625)"/>
       </defs>
       <use xlink:href="#DejaVuSans-34"/>
       <use x="63.623047" xlink:href="#DejaVuSans-30"/>
       <use x="127.246094" xlink:href="#DejaVuSans-30"/>
      </g>
     </g>
    </g>
    <g id="xtick_4">
     <g id="line2d_7">
      <path clip-path="url(#p9a95cad2d6)" d="M 271.872 307.584 
L 271.872 41.472 
" style="fill:none;stroke:#b0b0b0;stroke-linecap:square;stroke-width:0.8;"/>
     </g>
     <g id="line2d_8">
      <g>
       <use style="stroke:#000000;stroke-width:0.8;" x="271.872" xlink:href="#m3f6c32165b" y="307.584"/>
      </g>
     </g>
     <g id="text_4">
      <!-- 600 -->
      <g transform="translate(262.32825 322.182437)scale(0.1 -0.1)">
       <defs>
        <path d="M 2113 2584 
Q 1688 2584 1439 2293 
Q 1191 2003 1191 1497 
Q 1191 994 1439 701 
Q 1688 409 2113 409 
Q 2538 409 2786 701 
Q 3034 994 3034 1497 
Q 3034 2003 2786 2293 
Q 2538 2584 2113 2584 
z
M 3366 4563 
L 3366 3988 
Q 3128 4100 2886 4159 
Q 2644 4219 2406 4219 
Q 1781 4219 1451 3797 
Q 1122 3375 1075 2522 
Q 1259 2794 1537 2939 
Q 1816 3084 2150 3084 
Q 2853 3084 3261 2657 
Q 3669 2231 3669 1497 
Q 3669 778 3244 343 
Q 2819 -91 2113 -91 
Q 1303 -91 875 529 
Q 447 1150 447 2328 
Q 447 3434 972 4092 
Q 1497 4750 2381 4750 
Q 2619 4750 2861 4703 
Q 3103 4656 3366 4563 
z
" id="DejaVuSans-36" transform="scale(0.015625)"/>
       </defs>
       <use xlink:href="#DejaVuSans-36"/>
       <use x="63.623047" xlink:href="#DejaVuSans-30"/>
       <use x="127.246094" xlink:href="#DejaVuSans-30"/>
      </g>
     </g>
    </g>
    <g id="xtick_5">
     <g id="line2d_9">
      <path clip-path="url(#p9a95cad2d6)" d="M 343.296 307.584 
L 343.296 41.472 
" style="fill:none;stroke:#b0b0b0;stroke-linecap:square;stroke-width:0.8;"/>
     </g>
     <g id="line2d_10">
      <g>
       <use style="stroke:#000000;stroke-width:0.8;" x="343.296" xlink:href="#m3f6c32165b" y="307.584"/>
      </g>
     </g>
     <g id="text_5">
      <!-- 800 -->
      <g transform="translate(333.75225 322.182437)scale(0.1 -0.1)">
       <defs>
        <path d="M 2034 2216 
Q 1584 2216 1326 1975 
Q 1069 1734 1069 1313 
Q 1069 891 1326 650 
Q 1584 409 2034 409 
Q 2484 409 2743 651 
Q 3003 894 3003 1313 
Q 3003 1734 2745 1975 
Q 2488 2216 2034 2216 
z
M 1403 2484 
Q 997 2584 770 2862 
Q 544 3141 544 3541 
Q 544 4100 942 4425 
Q 1341 4750 2034 4750 
Q 2731 4750 3128 4425 
Q 3525 4100 3525 3541 
Q 3525 3141 3298 2862 
Q 3072 2584 2669 2484 
Q 3125 2378 3379 2068 
Q 3634 1759 3634 1313 
Q 3634 634 3220 271 
Q 2806 -91 2034 -91 
Q 1263 -91 848 271 
Q 434 634 434 1313 
Q 434 1759 690 2068 
Q 947 2378 1403 2484 
z
M 1172 3481 
Q 1172 3119 1398 2916 
Q 1625 2713 2034 2713 
Q 2441 2713 2670 2916 
Q 2900 3119 2900 3481 
Q 2900 3844 2670 4047 
Q 2441 4250 2034 4250 
Q 1625 4250 1398 4047 
Q 1172 3844 1172 3481 
z
" id="DejaVuSans-38" transform="scale(0.015625)"/>
       </defs>
       <use xlink:href="#DejaVuSans-38"/>
       <use x="63.623047" xlink:href="#DejaVuSans-30"/>
       <use x="127.246094" xlink:href="#DejaVuSans-30"/>
      </g>
     </g>
    </g>
    <g id="xtick_6">
     <g id="line2d_11">
      <path clip-path="url(#p9a95cad2d6)" d="M 414.72 307.584 
L 414.72 41.472 
" style="fill:none;stroke:#b0b0b0;stroke-linecap:square;stroke-width:0.8;"/>
     </g>
     <g id="line2d_12">
      <g>
       <use style="stroke:#000000;stroke-width:0.8;" x="414.72" xlink:href="#m3f6c32165b" y="307.584"/>
      </g>
     </g>
     <g id="text_6">
      <!-- 1000 -->
      <g transform="translate(401.995 322.182437)scale(0.1 -0.1)">
       <defs>
        <path d="M 794 531 
L 1825 531 
L 1825 4091 
L 703 3866 
L 703 4441 
L 1819 4666 
L 2450 4666 
L 2450 531 
L 3481 531 
L 3481 0 
L 794 0 
L 794 531 
z
" id="DejaVuSans-31" transform="scale(0.015625)"/>
       </defs>
       <use xlink:href="#DejaVuSans-31"/>
       <use x="63.623047" xlink:href="#DejaVuSans-30"/>
       <use x="127.246094" xlink:href="#DejaVuSans-30"/>
       <use x="190.869141" xlink:href="#DejaVuSans-30"/>
      </g>
     </g>
    </g>
    <g id="text_7">
     <!-- Episodes -->
     <g transform="translate(213.917812 335.860562)scale(0.1 -0.1)">
      <defs>
       <path d="M 628 4666 
L 3578 4666 
L 3578 4134 
L 1259 4134 
L 1259 2753 
L 3481 2753 
L 3481 2222 
L 1259 2222 
L 1259 531 
L 3634 531 
L 3634 0 
L 628 0 
L 628 4666 
z
" id="DejaVuSans-45" transform="scale(0.015625)"/>
       <path d="M 1159 525 
L 1159 -1331 
L 581 -1331 
L 581 3500 
L 1159 3500 
L 1159 2969 
Q 1341 3281 1617 3432 
Q 1894 3584 2278 3584 
Q 2916 3584 3314 3078 
Q 3713 2572 3713 1747 
Q 3713 922 3314 415 
Q 2916 -91 2278 -91 
Q 1894 -91 1617 61 
Q 1341 213 1159 525 
z
M 3116 1747 
Q 3116 2381 2855 2742 
Q 2594 3103 2138 3103 
Q 1681 3103 1420 2742 
Q 1159 2381 1159 1747 
Q 1159 1113 1420 752 
Q 1681 391 2138 391 
Q 2594 391 2855 752 
Q 3116 1113 3116 1747 
z
" id="DejaVuSans-70" transform="scale(0.015625)"/>
       <path d="M 603 3500 
L 1178 3500 
L 1178 0 
L 603 0 
L 603 3500 
z
M 603 4863 
L 1178 4863 
L 1178 4134 
L 603 4134 
L 603 4863 
z
" id="DejaVuSans-69" transform="scale(0.015625)"/>
       <path d="M 2834 3397 
L 2834 2853 
Q 2591 2978 2328 3040 
Q 2066 3103 1784 3103 
Q 1356 3103 1142 2972 
Q 928 2841 928 2578 
Q 928 2378 1081 2264 
Q 1234 2150 1697 2047 
L 1894 2003 
Q 2506 1872 2764 1633 
Q 3022 1394 3022 966 
Q 3022 478 2636 193 
Q 2250 -91 1575 -91 
Q 1294 -91 989 -36 
Q 684 19 347 128 
L 347 722 
Q 666 556 975 473 
Q 1284 391 1588 391 
Q 1994 391 2212 530 
Q 2431 669 2431 922 
Q 2431 1156 2273 1281 
Q 2116 1406 1581 1522 
L 1381 1569 
Q 847 1681 609 1914 
Q 372 2147 372 2553 
Q 372 3047 722 3315 
Q 1072 3584 1716 3584 
Q 2034 3584 2315 3537 
Q 2597 3491 2834 3397 
z
" id="DejaVuSans-73" transform="scale(0.015625)"/>
       <path d="M 1959 3097 
Q 1497 3097 1228 2736 
Q 959 2375 959 1747 
Q 959 1119 1226 758 
Q 1494 397 1959 397 
Q 2419 397 2687 759 
Q 2956 1122 2956 1747 
Q 2956 2369 2687 2733 
Q 2419 3097 1959 3097 
z
M 1959 3584 
Q 2709 3584 3137 3096 
Q 3566 2609 3566 1747 
Q 3566 888 3137 398 
Q 2709 -91 1959 -91 
Q 1206 -91 779 398 
Q 353 888 353 1747 
Q 353 2609 779 3096 
Q 1206 3584 1959 3584 
z
" id="DejaVuSans-6f" transform="scale(0.015625)"/>
       <path d="M 2906 2969 
L 2906 4863 
L 3481 4863 
L 3481 0 
L 2906 0 
L 2906 525 
Q 2725 213 2448 61 
Q 2172 -91 1784 -91 
Q 1150 -91 751 415 
Q 353 922 353 1747 
Q 353 2572 751 3078 
Q 1150 3584 1784 3584 
Q 2172 3584 2448 3432 
Q 2725 3281 2906 2969 
z
M 947 1747 
Q 947 1113 1208 752 
Q 1469 391 1925 391 
Q 2381 391 2643 752 
Q 2906 1113 2906 1747 
Q 2906 2381 2643 2742 
Q 2381 3103 1925 3103 
Q 1469 3103 1208 2742 
Q 947 2381 947 1747 
z
" id="DejaVuSans-64" transform="scale(0.015625)"/>
       <path d="M 3597 1894 
L 3597 1613 
L 953 1613 
Q 991 1019 1311 708 
Q 1631 397 2203 397 
Q 2534 397 2845 478 
Q 3156 559 3463 722 
L 3463 178 
Q 3153 47 2828 -22 
Q 2503 -91 2169 -91 
Q 1331 -91 842 396 
Q 353 884 353 1716 
Q 353 2575 817 3079 
Q 1281 3584 2069 3584 
Q 2775 3584 3186 3129 
Q 3597 2675 3597 1894 
z
M 3022 2063 
Q 3016 2534 2758 2815 
Q 2500 3097 2075 3097 
Q 1594 3097 1305 2825 
Q 1016 2553 972 2059 
L 3022 2063 
z
" id="DejaVuSans-65" transform="scale(0.015625)"/>
      </defs>
      <use xlink:href="#DejaVuSans-45"/>
      <use x="63.183594" xlink:href="#DejaVuSans-70"/>
      <use x="126.660156" xlink:href="#DejaVuSans-69"/>
      <use x="154.443359" xlink:href="#DejaVuSans-73"/>
      <use x="206.542969" xlink:href="#DejaVuSans-6f"/>
      <use x="267.724609" xlink:href="#DejaVuSans-64"/>
      <use x="331.201172" xlink:href="#DejaVuSans-65"/>
      <use x="392.724609" xlink:href="#DejaVuSans-73"/>
     </g>
    </g>
   </g>
   <g id="matplotlib.axis_2">
    <g id="ytick_1">
     <g id="line2d_13">
      <path clip-path="url(#p9a95cad2d6)" d="M 57.6 273.981642 
L 414.72 273.981642 
" style="fill:none;stroke:#b0b0b0;stroke-linecap:square;stroke-width:0.8;"/>
     </g>
     <g id="line2d_14">
      <defs>
       <path d="M 0 0 
L -3.5 0 
" id="m2799313b52" style="stroke:#000000;stroke-width:0.8;"/>
      </defs>
      <g>
       <use style="stroke:#000000;stroke-width:0.8;" x="57.6" xlink:href="#m2799313b52" y="273.981642"/>
      </g>
     </g>
     <g id="text_8">
      <!-- −2.5 -->
      <g transform="translate(26.317187 277.780861)scale(0.1 -0.1)">
       <defs>
        <path d="M 678 2272 
L 4684 2272 
L 4684 1741 
L 678 1741 
L 678 2272 
z
" id="DejaVuSans-2212" transform="scale(0.015625)"/>
        <path d="M 684 794 
L 1344 794 
L 1344 0 
L 684 0 
L 684 794 
z
" id="DejaVuSans-2e" transform="scale(0.015625)"/>
        <path d="M 691 4666 
L 3169 4666 
L 3169 4134 
L 1269 4134 
L 1269 2991 
Q 1406 3038 1543 3061 
Q 1681 3084 1819 3084 
Q 2600 3084 3056 2656 
Q 3513 2228 3513 1497 
Q 3513 744 3044 326 
Q 2575 -91 1722 -91 
Q 1428 -91 1123 -41 
Q 819 9 494 109 
L 494 744 
Q 775 591 1075 516 
Q 1375 441 1709 441 
Q 2250 441 2565 725 
Q 2881 1009 2881 1497 
Q 2881 1984 2565 2268 
Q 2250 2553 1709 2553 
Q 1456 2553 1204 2497 
Q 953 2441 691 2322 
L 691 4666 
z
" id="DejaVuSans-35" transform="scale(0.015625)"/>
       </defs>
       <use xlink:href="#DejaVuSans-2212"/>
       <use x="83.789062" xlink:href="#DejaVuSans-32"/>
       <use x="147.412109" xlink:href="#DejaVuSans-2e"/>
       <use x="179.199219" xlink:href="#DejaVuSans-35"/>
      </g>
     </g>
    </g>
    <g id="ytick_2">
     <g id="line2d_15">
      <path clip-path="url(#p9a95cad2d6)" d="M 57.6 229.549519 
L 414.72 229.549519 
" style="fill:none;stroke:#b0b0b0;stroke-linecap:square;stroke-width:0.8;"/>
     </g>
     <g id="line2d_16">
      <g>
       <use style="stroke:#000000;stroke-width:0.8;" x="57.6" xlink:href="#m2799313b52" y="229.549519"/>
      </g>
     </g>
     <g id="text_9">
      <!-- −2.0 -->
      <g transform="translate(26.317187 233.348738)scale(0.1 -0.1)">
       <use xlink:href="#DejaVuSans-2212"/>
       <use x="83.789062" xlink:href="#DejaVuSans-32"/>
       <use x="147.412109" xlink:href="#DejaVuSans-2e"/>
       <use x="179.199219" xlink:href="#DejaVuSans-30"/>
      </g>
     </g>
    </g>
    <g id="ytick_3">
     <g id="line2d_17">
      <path clip-path="url(#p9a95cad2d6)" d="M 57.6 185.117397 
L 414.72 185.117397 
" style="fill:none;stroke:#b0b0b0;stroke-linecap:square;stroke-width:0.8;"/>
     </g>
     <g id="line2d_18">
      <g>
       <use style="stroke:#000000;stroke-width:0.8;" x="57.6" xlink:href="#m2799313b52" y="185.117397"/>
      </g>
     </g>
     <g id="text_10">
      <!-- −1.5 -->
      <g transform="translate(26.317187 188.916615)scale(0.1 -0.1)">
       <use xlink:href="#DejaVuSans-2212"/>
       <use x="83.789062" xlink:href="#DejaVuSans-31"/>
       <use x="147.412109" xlink:href="#DejaVuSans-2e"/>
       <use x="179.199219" xlink:href="#DejaVuSans-35"/>
      </g>
     </g>
    </g>
    <g id="ytick_4">
     <g id="line2d_19">
      <path clip-path="url(#p9a95cad2d6)" d="M 57.6 140.685274 
L 414.72 140.685274 
" style="fill:none;stroke:#b0b0b0;stroke-linecap:square;stroke-width:0.8;"/>
     </g>
     <g id="line2d_20">
      <g>
       <use style="stroke:#000000;stroke-width:0.8;" x="57.6" xlink:href="#m2799313b52" y="140.685274"/>
      </g>
     </g>
     <g id="text_11">
      <!-- −1.0 -->
      <g transform="translate(26.317187 144.484493)scale(0.1 -0.1)">
       <use xlink:href="#DejaVuSans-2212"/>
       <use x="83.789062" xlink:href="#DejaVuSans-31"/>
       <use x="147.412109" xlink:href="#DejaVuSans-2e"/>
       <use x="179.199219" xlink:href="#DejaVuSans-30"/>
      </g>
     </g>
    </g>
    <g id="ytick_5">
     <g id="line2d_21">
      <path clip-path="url(#p9a95cad2d6)" d="M 57.6 96.253151 
L 414.72 96.253151 
" style="fill:none;stroke:#b0b0b0;stroke-linecap:square;stroke-width:0.8;"/>
     </g>
     <g id="line2d_22">
      <g>
       <use style="stroke:#000000;stroke-width:0.8;" x="57.6" xlink:href="#m2799313b52" y="96.253151"/>
      </g>
     </g>
     <g id="text_12">
      <!-- −0.5 -->
      <g transform="translate(26.317187 100.05237)scale(0.1 -0.1)">
       <use xlink:href="#DejaVuSans-2212"/>
       <use x="83.789062" xlink:href="#DejaVuSans-30"/>
       <use x="147.412109" xlink:href="#DejaVuSans-2e"/>
       <use x="179.199219" xlink:href="#DejaVuSans-35"/>
      </g>
     </g>
    </g>
    <g id="ytick_6">
     <g id="line2d_23">
      <path clip-path="url(#p9a95cad2d6)" d="M 57.6 51.821029 
L 414.72 51.821029 
" style="fill:none;stroke:#b0b0b0;stroke-linecap:square;stroke-width:0.8;"/>
     </g>
     <g id="line2d_24">
      <g>
       <use style="stroke:#000000;stroke-width:0.8;" x="57.6" xlink:href="#m2799313b52" y="51.821029"/>
      </g>
     </g>
     <g id="text_13">
      <!-- 0.0 -->
      <g transform="translate(34.696875 55.620247)scale(0.1 -0.1)">
       <use xlink:href="#DejaVuSans-30"/>
       <use x="63.623047" xlink:href="#DejaVuSans-2e"/>
       <use x="95.410156" xlink:href="#DejaVuSans-30"/>
      </g>
     </g>
    </g>
    <g id="text_14">
     <!-- Cumulative Reward -->
     <g transform="translate(20.2375 223.275656)rotate(-90)scale(0.1 -0.1)">
      <defs>
       <path d="M 4122 4306 
L 4122 3641 
Q 3803 3938 3442 4084 
Q 3081 4231 2675 4231 
Q 1875 4231 1450 3742 
Q 1025 3253 1025 2328 
Q 1025 1406 1450 917 
Q 1875 428 2675 428 
Q 3081 428 3442 575 
Q 3803 722 4122 1019 
L 4122 359 
Q 3791 134 3420 21 
Q 3050 -91 2638 -91 
Q 1578 -91 968 557 
Q 359 1206 359 2328 
Q 359 3453 968 4101 
Q 1578 4750 2638 4750 
Q 3056 4750 3426 4639 
Q 3797 4528 4122 4306 
z
" id="DejaVuSans-43" transform="scale(0.015625)"/>
       <path d="M 544 1381 
L 544 3500 
L 1119 3500 
L 1119 1403 
Q 1119 906 1312 657 
Q 1506 409 1894 409 
Q 2359 409 2629 706 
Q 2900 1003 2900 1516 
L 2900 3500 
L 3475 3500 
L 3475 0 
L 2900 0 
L 2900 538 
Q 2691 219 2414 64 
Q 2138 -91 1772 -91 
Q 1169 -91 856 284 
Q 544 659 544 1381 
z
M 1991 3584 
L 1991 3584 
z
" id="DejaVuSans-75" transform="scale(0.015625)"/>
       <path d="M 3328 2828 
Q 3544 3216 3844 3400 
Q 4144 3584 4550 3584 
Q 5097 3584 5394 3201 
Q 5691 2819 5691 2113 
L 5691 0 
L 5113 0 
L 5113 2094 
Q 5113 2597 4934 2840 
Q 4756 3084 4391 3084 
Q 3944 3084 3684 2787 
Q 3425 2491 3425 1978 
L 3425 0 
L 2847 0 
L 2847 2094 
Q 2847 2600 2669 2842 
Q 2491 3084 2119 3084 
Q 1678 3084 1418 2786 
Q 1159 2488 1159 1978 
L 1159 0 
L 581 0 
L 581 3500 
L 1159 3500 
L 1159 2956 
Q 1356 3278 1631 3431 
Q 1906 3584 2284 3584 
Q 2666 3584 2933 3390 
Q 3200 3197 3328 2828 
z
" id="DejaVuSans-6d" transform="scale(0.015625)"/>
       <path d="M 603 4863 
L 1178 4863 
L 1178 0 
L 603 0 
L 603 4863 
z
" id="DejaVuSans-6c" transform="scale(0.015625)"/>
       <path d="M 2194 1759 
Q 1497 1759 1228 1600 
Q 959 1441 959 1056 
Q 959 750 1161 570 
Q 1363 391 1709 391 
Q 2188 391 2477 730 
Q 2766 1069 2766 1631 
L 2766 1759 
L 2194 1759 
z
M 3341 1997 
L 3341 0 
L 2766 0 
L 2766 531 
Q 2569 213 2275 61 
Q 1981 -91 1556 -91 
Q 1019 -91 701 211 
Q 384 513 384 1019 
Q 384 1609 779 1909 
Q 1175 2209 1959 2209 
L 2766 2209 
L 2766 2266 
Q 2766 2663 2505 2880 
Q 2244 3097 1772 3097 
Q 1472 3097 1187 3025 
Q 903 2953 641 2809 
L 641 3341 
Q 956 3463 1253 3523 
Q 1550 3584 1831 3584 
Q 2591 3584 2966 3190 
Q 3341 2797 3341 1997 
z
" id="DejaVuSans-61" transform="scale(0.015625)"/>
       <path d="M 1172 4494 
L 1172 3500 
L 2356 3500 
L 2356 3053 
L 1172 3053 
L 1172 1153 
Q 1172 725 1289 603 
Q 1406 481 1766 481 
L 2356 481 
L 2356 0 
L 1766 0 
Q 1100 0 847 248 
Q 594 497 594 1153 
L 594 3053 
L 172 3053 
L 172 3500 
L 594 3500 
L 594 4494 
L 1172 4494 
z
" id="DejaVuSans-74" transform="scale(0.015625)"/>
       <path d="M 191 3500 
L 800 3500 
L 1894 563 
L 2988 3500 
L 3597 3500 
L 2284 0 
L 1503 0 
L 191 3500 
z
" id="DejaVuSans-76" transform="scale(0.015625)"/>
       <path id="DejaVuSans-20" transform="scale(0.015625)"/>
       <path d="M 2841 2188 
Q 3044 2119 3236 1894 
Q 3428 1669 3622 1275 
L 4263 0 
L 3584 0 
L 2988 1197 
Q 2756 1666 2539 1819 
Q 2322 1972 1947 1972 
L 1259 1972 
L 1259 0 
L 628 0 
L 628 4666 
L 2053 4666 
Q 2853 4666 3247 4331 
Q 3641 3997 3641 3322 
Q 3641 2881 3436 2590 
Q 3231 2300 2841 2188 
z
M 1259 4147 
L 1259 2491 
L 2053 2491 
Q 2509 2491 2742 2702 
Q 2975 2913 2975 3322 
Q 2975 3731 2742 3939 
Q 2509 4147 2053 4147 
L 1259 4147 
z
" id="DejaVuSans-52" transform="scale(0.015625)"/>
       <path d="M 269 3500 
L 844 3500 
L 1563 769 
L 2278 3500 
L 2956 3500 
L 3675 769 
L 4391 3500 
L 4966 3500 
L 4050 0 
L 3372 0 
L 2619 2869 
L 1863 0 
L 1184 0 
L 269 3500 
z
" id="DejaVuSans-77" transform="scale(0.015625)"/>
       <path d="M 2631 2963 
Q 2534 3019 2420 3045 
Q 2306 3072 2169 3072 
Q 1681 3072 1420 2755 
Q 1159 2438 1159 1844 
L 1159 0 
L 581 0 
L 581 3500 
L 1159 3500 
L 1159 2956 
Q 1341 3275 1631 3429 
Q 1922 3584 2338 3584 
Q 2397 3584 2469 3576 
Q 2541 3569 2628 3553 
L 2631 2963 
z
" id="DejaVuSans-72" transform="scale(0.015625)"/>
      </defs>
      <use xlink:href="#DejaVuSans-43"/>
      <use x="69.824219" xlink:href="#DejaVuSans-75"/>
      <use x="133.203125" xlink:href="#DejaVuSans-6d"/>
      <use x="230.615234" xlink:href="#DejaVuSans-75"/>
      <use x="293.994141" xlink:href="#DejaVuSans-6c"/>
      <use x="321.777344" xlink:href="#DejaVuSans-61"/>
      <use x="383.056641" xlink:href="#DejaVuSans-74"/>
      <use x="422.265625" xlink:href="#DejaVuSans-69"/>
      <use x="450.048828" xlink:href="#DejaVuSans-76"/>
      <use x="509.228516" xlink:href="#DejaVuSans-65"/>
      <use x="570.751953" xlink:href="#DejaVuSans-20"/>
      <use x="602.539062" xlink:href="#DejaVuSans-52"/>
      <use x="667.521484" xlink:href="#DejaVuSans-65"/>
      <use x="729.044922" xlink:href="#DejaVuSans-77"/>
      <use x="810.832031" xlink:href="#DejaVuSans-61"/>
      <use x="872.111328" xlink:href="#DejaVuSans-72"/>
      <use x="911.474609" xlink:href="#DejaVuSans-64"/>
     </g>
    </g>
    <g id="text_15">
     <!-- 1e9 -->
     <g transform="translate(57.6 38.472)scale(0.1 -0.1)">
      <defs>
       <path d="M 703 97 
L 703 672 
Q 941 559 1184 500 
Q 1428 441 1663 441 
Q 2288 441 2617 861 
Q 2947 1281 2994 2138 
Q 2813 1869 2534 1725 
Q 2256 1581 1919 1581 
Q 1219 1581 811 2004 
Q 403 2428 403 3163 
Q 403 3881 828 4315 
Q 1253 4750 1959 4750 
Q 2769 4750 3195 4129 
Q 3622 3509 3622 2328 
Q 3622 1225 3098 567 
Q 2575 -91 1691 -91 
Q 1453 -91 1209 -44 
Q 966 3 703 97 
z
M 1959 2075 
Q 2384 2075 2632 2365 
Q 2881 2656 2881 3163 
Q 2881 3666 2632 3958 
Q 2384 4250 1959 4250 
Q 1534 4250 1286 3958 
Q 1038 3666 1038 3163 
Q 1038 2656 1286 2365 
Q 1534 2075 1959 2075 
z
" id="DejaVuSans-39" transform="scale(0.015625)"/>
      </defs>
      <use xlink:href="#DejaVuSans-31"/>
      <use x="63.623047" xlink:href="#DejaVuSans-65"/>
      <use x="125.146484" xlink:href="#DejaVuSans-39"/>
     </g>
    </g>
   </g>
   <g id="line2d_25">
    <path clip-path="url(#p9a95cad2d6)" d="M 57.6 152.261036 
L 57.95712 170.535009 
L 58.31424 215.240437 
L 58.67136 163.434636 
L 59.02848 152.261036 
L 59.3856 170.535009 
L 59.74272 215.240437 
L 60.09984 163.434636 
L 60.45696 152.261036 
L 60.81408 170.535009 
L 61.1712 215.240437 
L 61.52832 163.434636 
L 61.88544 152.261036 
L 62.24256 170.535009 
L 62.59968 215.240437 
L 62.9568 163.434636 
L 63.31392 152.261036 
L 63.67104 170.535009 
L 64.02816 215.240437 
L 64.38528 163.434636 
L 64.7424 152.261036 
L 65.09952 170.535009 
L 65.45664 215.240437 
L 65.81376 163.434636 
L 66.17088 152.261036 
L 66.528 170.535009 
L 66.88512 215.240437 
L 67.24224 163.434636 
L 67.59936 152.261036 
L 67.95648 170.535009 
L 68.3136 215.240437 
L 68.67072 163.434636 
L 69.02784 152.261036 
L 69.38496 170.535009 
L 69.74208 215.240437 
L 70.0992 163.434636 
L 70.45632 152.261036 
L 70.81344 170.535009 
L 71.17056 215.240437 
L 71.52768 163.434636 
L 71.8848 152.261036 
L 72.24192 170.535009 
L 72.59904 215.240437 
L 72.95616 163.434636 
L 73.31328 152.261036 
L 73.6704 170.535009 
L 74.02752 215.240437 
L 74.38464 163.434636 
L 74.74176 152.261036 
L 75.09888 170.535009 
L 75.456 215.240437 
L 75.81312 163.434636 
L 76.17024 152.261036 
L 76.52736 170.535009 
L 76.88448 215.240437 
L 77.2416 163.434636 
L 77.59872 152.261036 
L 77.95584 170.535009 
L 78.31296 215.240437 
L 78.67008 163.434636 
L 79.0272 152.261036 
L 79.38432 170.535009 
L 79.74144 215.240437 
L 80.09856 163.434636 
L 80.45568 152.261036 
L 80.8128 170.535009 
L 81.16992 215.240437 
L 81.52704 163.434636 
L 81.88416 152.261036 
L 82.24128 170.535009 
L 82.5984 215.240437 
L 82.95552 163.434636 
L 83.31264 152.261036 
L 83.66976 170.535009 
L 84.02688 215.240437 
L 84.384 163.434636 
L 84.74112 152.261036 
L 85.09824 170.535009 
L 85.45536 215.240437 
L 85.81248 163.434636 
L 86.1696 152.261036 
L 86.52672 170.535009 
L 86.88384 215.240437 
L 87.24096 163.434636 
L 87.59808 152.261036 
L 87.9552 170.535009 
L 88.31232 215.240437 
L 88.66944 163.434636 
L 89.02656 152.261036 
L 89.38368 170.535009 
L 89.7408 215.240437 
L 90.09792 163.434636 
L 90.45504 152.261036 
L 90.81216 170.535009 
L 91.16928 215.240437 
L 91.5264 163.434636 
L 91.88352 152.261036 
L 92.24064 170.535009 
L 92.59776 215.240437 
L 92.95488 163.434636 
L 93.312 191.621219 
L 93.66912 141.807798 
L 94.02624 162.918435 
L 94.38336 162.972766 
L 94.74048 160.041103 
L 95.0976 198.019951 
L 95.45472 175.739667 
L 95.81184 134.483769 
L 96.52608 142.003442 
L 96.8832 179.156398 
L 97.24032 161.94343 
L 97.59744 197.118195 
L 97.95456 185.92993 
L 98.31168 130.822424 
L 98.6688 155.598034 
L 99.02592 212.227709 
L 99.38304 122.055547 
L 99.74016 179.187709 
L 100.09728 257.98808 
L 100.4544 140.571137 
L 101.16864 184.417297 
L 101.52576 127.775718 
L 101.88288 154.166806 
L 102.24 156.439667 
L 102.59712 178.614333 
L 102.95424 159.062564 
L 103.31136 187.396196 
L 103.66848 191.23187 
L 104.0256 128.497784 
L 104.38272 156.211035 
L 104.73984 141.71941 
L 105.09696 121.553997 
L 105.45408 152.34505 
L 105.8112 274.695485 
L 106.16832 224.423108 
L 106.52544 153.70366 
L 106.88256 201.213754 
L 107.23968 192.263778 
L 107.5968 174.34092 
L 107.95392 146.891018 
L 108.31104 144.531592 
L 108.66816 175.875752 
L 109.02528 127.890451 
L 109.3824 186.923198 
L 109.73952 126.951353 
L 110.09664 197.675259 
L 110.45376 121.381966 
L 110.81088 127.969085 
L 111.168 140.118095 
L 111.52512 145.240729 
L 111.88224 157.296216 
L 112.23936 110.701567 
L 112.59648 109.727055 
L 112.9536 102.637775 
L 113.31072 150.435529 
L 113.66784 118.494046 
L 114.02496 150.069708 
L 114.38208 126.584641 
L 114.7392 125.807645 
L 115.09632 131.515054 
L 115.45344 126.266255 
L 116.16768 98.635625 
L 116.5248 97.188806 
L 116.88192 110.045126 
L 117.59616 94.624723 
L 117.95328 130.394198 
L 118.3104 113.664439 
L 118.66752 126.007482 
L 119.02464 105.580971 
L 119.38176 112.3286 
L 119.73888 124.984548 
L 120.096 99.565943 
L 120.81024 161.407548 
L 121.16736 123.244881 
L 121.52448 285.408 
L 121.8816 139.135147 
L 122.23872 156.284816 
L 122.59584 110.201626 
L 122.95296 136.547212 
L 123.31008 100.587355 
L 123.6672 202.800541 
L 124.02432 104.623832 
L 124.38144 115.273725 
L 124.73856 92.703258 
L 125.09568 118.807663 
L 125.4528 92.174283 
L 125.80992 129.482316 
L 126.16704 115.989024 
L 126.52416 123.133855 
L 126.88128 122.18851 
L 127.2384 155.757065 
L 127.59552 105.288431 
L 127.95264 108.965277 
L 128.30976 118.979681 
L 128.66688 105.682713 
L 129.024 114.630223 
L 129.38112 111.455462 
L 129.73824 88.456846 
L 130.09536 100.295543 
L 130.45248 104.524323 
L 130.8096 114.300078 
L 131.16672 107.72059 
L 131.52384 128.258568 
L 131.88096 139.59908 
L 132.23808 86.864925 
L 132.5952 96.70177 
L 132.95232 139.885151 
L 133.30944 101.602227 
L 133.66656 134.546183 
L 134.02368 116.033225 
L 134.3808 117.213798 
L 134.73792 105.610591 
L 135.09504 123.877092 
L 135.45216 207.616931 
L 135.80928 116.490284 
L 136.52352 87.631767 
L 136.88064 133.536632 
L 137.23776 114.924415 
L 137.59488 110.77015 
L 137.952 109.077739 
L 138.30912 83.763097 
L 138.66624 121.850199 
L 139.02336 79.763102 
L 139.38048 103.664927 
L 139.7376 77.561679 
L 140.45184 115.486759 
L 141.16608 79.744615 
L 141.5232 109.530772 
L 141.88032 101.108548 
L 142.23744 100.809958 
L 142.59456 120.851194 
L 142.95168 98.2491 
L 143.3088 85.845752 
L 143.66592 98.458886 
L 144.02304 90.082591 
L 144.38016 115.44612 
L 144.73728 104.371902 
L 145.0944 110.379959 
L 145.45152 102.836087 
L 145.80864 82.134098 
L 146.16576 115.493044 
L 146.52288 96.773335 
L 146.88 107.275956 
L 147.23712 84.388403 
L 147.59424 84.328458 
L 147.95136 119.365471 
L 148.30848 78.990553 
L 148.6656 86.311955 
L 149.02272 103.021856 
L 149.37984 105.430491 
L 149.73696 105.483323 
L 150.09408 107.774225 
L 150.4512 84.011484 
L 150.80832 96.814558 
L 151.16544 82.991269 
L 151.52256 89.471225 
L 151.87968 75.610598 
L 152.2368 77.795982 
L 152.59392 92.688171 
L 152.95104 126.896023 
L 153.30816 75.247662 
L 153.66528 82.445495 
L 154.0224 150.94368 
L 154.37952 92.59178 
L 154.73664 114.965441 
L 155.09376 96.987797 
L 155.45088 109.548102 
L 155.808 89.833899 
L 156.16512 118.286944 
L 156.52224 85.723556 
L 156.87936 110.827941 
L 157.23648 78.804453 
L 157.5936 93.634892 
L 157.95072 203.842833 
L 158.30784 92.93352 
L 159.02208 174.112982 
L 159.3792 112.686506 
L 160.09344 78.118008 
L 160.45056 81.303481 
L 160.80768 93.173513 
L 161.1648 87.190146 
L 161.52192 79.174025 
L 161.87904 90.082247 
L 162.23616 96.741993 
L 162.59328 95.841946 
L 162.9504 99.45461 
L 163.30752 92.534984 
L 163.66464 71.83649 
L 164.02176 75.743118 
L 164.37888 90.319365 
L 164.736 110.553561 
L 165.09312 66.712507 
L 165.45024 97.577178 
L 165.80736 93.398935 
L 166.16448 106.20016 
L 166.5216 86.503565 
L 166.87872 77.417417 
L 167.59296 84.071095 
L 167.95008 119.729489 
L 168.3072 86.224268 
L 168.66432 94.602057 
L 169.02144 132.589814 
L 169.37856 77.648626 
L 169.73568 83.104752 
L 170.0928 103.074513 
L 170.80704 69.664905 
L 171.16416 89.263708 
L 171.52128 92.642525 
L 171.8784 81.015365 
L 172.23552 88.073379 
L 172.59264 70.833583 
L 172.94976 88.328931 
L 173.30688 77.210846 
L 173.664 96.070842 
L 174.02112 80.987258 
L 174.37824 102.797166 
L 174.73536 102.974703 
L 175.09248 134.150858 
L 175.4496 77.832654 
L 175.80672 104.348222 
L 176.16384 76.983273 
L 176.87808 78.654835 
L 177.2352 102.701098 
L 177.59232 110.597657 
L 177.94944 104.909513 
L 178.30656 81.045826 
L 178.66368 80.915325 
L 179.0208 71.647595 
L 179.37792 89.021429 
L 179.73504 93.772612 
L 180.09216 81.497129 
L 180.44928 93.743681 
L 180.8064 76.304061 
L 181.16352 113.716262 
L 181.52064 82.10894 
L 181.87776 120.145927 
L 182.23488 66.88682 
L 182.592 96.698751 
L 182.94912 95.246497 
L 183.30624 73.090454 
L 183.66336 126.927878 
L 184.02048 83.899931 
L 184.3776 73.230675 
L 184.73472 97.700355 
L 185.09184 75.996212 
L 185.44896 84.291013 
L 185.80608 79.010772 
L 186.1632 81.587178 
L 186.52032 86.144838 
L 186.87744 87.48834 
L 187.23456 93.159548 
L 187.59168 74.730896 
L 187.9488 88.03062 
L 188.30592 72.142834 
L 188.66304 81.685963 
L 189.02016 74.045805 
L 189.37728 73.101724 
L 189.7344 79.979438 
L 190.09152 97.288332 
L 190.80576 75.461553 
L 191.16288 85.53828 
L 191.52 88.452325 
L 191.87712 73.671453 
L 192.23424 80.333153 
L 192.59136 73.680091 
L 192.94848 93.690004 
L 193.3056 74.611429 
L 193.66272 69.696311 
L 194.01984 97.435134 
L 194.37696 79.508898 
L 194.73408 83.691235 
L 195.0912 78.475274 
L 195.44832 93.393555 
L 195.80544 79.964441 
L 196.16256 79.148987 
L 196.51968 132.341398 
L 196.8768 67.582047 
L 197.23392 98.748178 
L 197.59104 70.251027 
L 197.94816 72.057993 
L 198.30528 108.465024 
L 198.6624 68.765249 
L 199.01952 99.984116 
L 199.37664 73.579207 
L 199.73376 89.293507 
L 200.09088 65.886252 
L 200.448 90.984571 
L 200.80512 76.432538 
L 201.16224 79.699289 
L 201.87648 76.901562 
L 202.2336 99.070757 
L 202.59072 64.723345 
L 202.94784 88.33094 
L 203.30496 97.946384 
L 203.66208 94.229857 
L 204.0192 76.318071 
L 204.37632 108.063151 
L 204.73344 84.501947 
L 205.09056 96.291265 
L 205.44768 83.730972 
L 205.8048 81.019799 
L 206.16192 74.731246 
L 206.51904 113.592155 
L 206.87616 117.778302 
L 207.94752 82.661937 
L 208.30464 92.335058 
L 208.66176 121.085219 
L 209.376 79.418718 
L 209.73312 101.055363 
L 210.09024 84.497062 
L 210.44736 94.157575 
L 210.80448 72.277736 
L 211.1616 85.094247 
L 211.51872 84.996477 
L 211.87584 131.743696 
L 212.23296 95.505387 
L 212.59008 114.998709 
L 212.9472 84.801044 
L 213.30432 101.787085 
L 213.66144 80.881631 
L 214.01856 102.957772 
L 214.37568 103.259881 
L 214.7328 97.331063 
L 215.08992 74.52642 
L 215.80416 99.5606 
L 216.16128 119.251049 
L 216.5184 89.822412 
L 216.87552 85.255466 
L 217.23264 88.942699 
L 217.94688 104.507871 
L 218.304 111.384412 
L 218.66112 101.694181 
L 219.37536 92.356734 
L 219.73248 80.45115 
L 220.0896 89.930537 
L 220.44672 104.751297 
L 220.80384 134.650269 
L 221.16096 95.145188 
L 221.51808 85.606628 
L 221.8752 90.502258 
L 222.23232 123.172764 
L 222.58944 79.09335 
L 222.94656 102.858486 
L 223.30368 100.89523 
L 223.6608 91.637867 
L 224.01792 95.713376 
L 224.37504 128.099361 
L 224.73216 112.028775 
L 225.08928 66.781613 
L 225.4464 143.978527 
L 225.80352 90.076118 
L 226.16064 103.027091 
L 226.51776 92.910454 
L 226.87488 79.280639 
L 227.232 115.062576 
L 227.58912 134.388251 
L 227.94624 138.049249 
L 228.30336 118.018254 
L 228.66048 83.492553 
L 229.0176 101.312218 
L 229.37472 71.846748 
L 229.73184 119.176203 
L 230.08896 79.473963 
L 230.44608 120.049768 
L 230.8032 117.113626 
L 231.16032 102.680788 
L 231.51744 104.129131 
L 231.87456 102.974356 
L 232.23168 74.076547 
L 232.5888 80.086623 
L 232.94592 69.689494 
L 233.30304 78.392905 
L 233.66016 89.909515 
L 234.3744 106.315884 
L 234.73152 92.800279 
L 235.44576 74.130231 
L 235.80288 115.416508 
L 236.16 89.708627 
L 236.51712 87.210079 
L 236.87424 75.241815 
L 237.23136 87.619668 
L 237.58848 92.416886 
L 237.9456 101.52702 
L 238.30272 77.791912 
L 238.65984 87.238829 
L 239.01696 123.201355 
L 239.37408 73.959877 
L 240.08832 96.392597 
L 240.44544 99.36678 
L 240.80256 114.808197 
L 241.15968 94.228049 
L 241.5168 84.071204 
L 241.87392 117.624573 
L 242.23104 82.123768 
L 242.58816 111.228867 
L 242.94528 88.592354 
L 243.3024 78.468179 
L 243.65952 80.489696 
L 244.01664 94.363765 
L 244.37376 91.367461 
L 244.73088 93.552033 
L 245.088 88.26403 
L 245.44512 77.461963 
L 245.80224 91.708155 
L 246.15936 91.60679 
L 246.51648 104.811064 
L 246.8736 73.791531 
L 247.23072 88.105373 
L 247.58784 138.721342 
L 247.94496 74.921941 
L 248.30208 118.923588 
L 249.01632 69.735156 
L 249.37344 123.349593 
L 249.73056 84.273741 
L 250.4448 74.978821 
L 250.80192 76.276255 
L 251.15904 111.042624 
L 251.51616 109.763161 
L 251.87328 100.422683 
L 252.2304 75.702272 
L 252.58752 91.04062 
L 252.94464 174.11778 
L 253.30176 75.578147 
L 254.37312 105.455005 
L 254.73024 72.336632 
L 255.44448 89.283793 
L 255.8016 80.769852 
L 256.15872 85.084182 
L 256.51584 84.439481 
L 256.87296 90.593009 
L 257.23008 77.702791 
L 257.5872 87.986357 
L 257.94432 83.243018 
L 258.30144 74.758993 
L 258.65856 85.600266 
L 259.01568 141.405137 
L 259.3728 65.492476 
L 259.72992 77.810202 
L 260.08704 64.011871 
L 260.44416 91.110071 
L 260.80128 87.067085 
L 261.1584 71.221006 
L 261.51552 79.910816 
L 261.87264 70.510973 
L 262.22976 72.099474 
L 262.58688 83.688872 
L 262.944 85.871863 
L 263.30112 100.187293 
L 263.65824 77.202402 
L 264.01536 102.576663 
L 264.37248 78.131168 
L 264.7296 76.599529 
L 265.08672 82.388573 
L 265.44384 81.175591 
L 265.80096 78.426555 
L 266.15808 77.652085 
L 266.5152 111.857625 
L 266.87232 99.19877 
L 267.22944 102.544652 
L 267.58656 91.086361 
L 267.94368 86.262088 
L 268.3008 111.244188 
L 268.65792 86.134793 
L 269.01504 83.453742 
L 269.37216 83.875801 
L 269.72928 78.890044 
L 270.0864 116.60434 
L 270.44352 71.623241 
L 270.80064 70.662827 
L 271.15776 68.580497 
L 271.51488 108.176585 
L 271.872 85.781077 
L 272.22912 80.048006 
L 272.58624 108.459042 
L 272.94336 78.460887 
L 273.30048 154.048794 
L 273.6576 72.916129 
L 274.01472 71.835457 
L 274.37184 95.841177 
L 274.72896 73.990246 
L 275.4432 156.928876 
L 275.80032 73.484875 
L 276.15744 85.057463 
L 276.51456 68.940484 
L 276.87168 98.066566 
L 277.2288 78.175648 
L 277.58592 99.156688 
L 277.94304 89.886432 
L 278.30016 94.19381 
L 278.65728 86.438068 
L 279.0144 120.888676 
L 279.37152 84.141247 
L 279.72864 118.146937 
L 280.08576 110.353424 
L 280.44288 81.602974 
L 280.8 113.997988 
L 281.15712 87.919455 
L 281.51424 81.203468 
L 281.87136 84.851728 
L 282.22848 73.73209 
L 282.5856 113.670037 
L 282.94272 77.537087 
L 283.29984 78.652638 
L 283.65696 68.539149 
L 284.01408 74.076926 
L 284.3712 114.918254 
L 284.72832 65.390308 
L 285.08544 80.779483 
L 285.44256 81.381482 
L 285.79968 97.57314 
L 286.1568 94.845451 
L 286.51392 89.112525 
L 286.87104 91.575586 
L 287.22816 87.692413 
L 287.58528 129.056946 
L 287.9424 69.428145 
L 288.29952 109.086128 
L 288.65664 69.470827 
L 289.01376 87.219546 
L 289.37088 80.30573 
L 289.728 76.869173 
L 290.08512 85.058663 
L 290.44224 129.545681 
L 290.79936 87.397614 
L 291.15648 128.071379 
L 291.5136 80.656659 
L 291.87072 99.520471 
L 292.22784 99.86686 
L 292.58496 128.121279 
L 292.94208 82.554129 
L 293.2992 131.625179 
L 293.65632 92.873841 
L 294.01344 80.885665 
L 294.37056 78.620838 
L 294.72768 93.022793 
L 295.0848 67.741388 
L 295.44192 76.553594 
L 295.79904 115.044673 
L 296.15616 108.77211 
L 296.51328 79.934212 
L 297.22752 121.126502 
L 297.58464 75.787337 
L 298.29888 130.393892 
L 298.656 80.78953 
L 299.01312 91.12025 
L 299.37024 69.250701 
L 299.72736 75.107738 
L 300.08448 91.601869 
L 300.4416 121.200938 
L 300.79872 100.466507 
L 301.15584 136.908489 
L 301.51296 81.951656 
L 301.87008 84.868912 
L 302.2272 74.77187 
L 302.58432 73.143723 
L 302.94144 96.568645 
L 303.29856 105.03263 
L 303.65568 104.420791 
L 304.36992 68.127825 
L 304.72704 87.803649 
L 305.08416 83.938311 
L 305.44128 90.453473 
L 305.7984 84.961378 
L 306.15552 88.815127 
L 306.51264 79.706683 
L 306.86976 89.321293 
L 307.22688 77.062261 
L 308.29824 171.287862 
L 308.65536 155.374347 
L 309.01248 103.722654 
L 309.3696 98.572738 
L 309.72672 121.799684 
L 310.44096 77.532084 
L 311.1552 122.280104 
L 311.51232 77.967832 
L 311.86944 105.515939 
L 312.22656 92.945365 
L 312.58368 123.648342 
L 312.9408 121.914349 
L 313.29792 85.287311 
L 313.65504 72.857607 
L 314.36928 121.829778 
L 314.7264 82.43237 
L 315.08352 89.574974 
L 315.44064 90.62709 
L 315.79776 87.900187 
L 316.15488 130.803465 
L 316.512 87.272451 
L 316.86912 88.950472 
L 317.22624 79.502565 
L 317.58336 199.419802 
L 317.94048 133.47709 
L 318.2976 146.909479 
L 318.65472 102.531296 
L 319.01184 99.668338 
L 320.0832 84.451536 
L 320.44032 73.370448 
L 320.79744 106.78227 
L 321.15456 98.033799 
L 321.51168 150.40735 
L 321.8688 107.448224 
L 322.22592 91.752824 
L 322.58304 122.376225 
L 322.94016 106.453307 
L 323.29728 85.142541 
L 323.6544 119.670841 
L 324.01152 76.849669 
L 324.36864 73.951758 
L 325.08288 137.344393 
L 325.44 93.541385 
L 325.79712 68.911652 
L 326.15424 111.563838 
L 326.51136 122.588944 
L 326.86848 78.105671 
L 327.2256 92.609548 
L 327.58272 66.232167 
L 328.29696 89.414178 
L 328.65408 93.332949 
L 329.0112 63.648 
L 329.36832 83.532714 
L 329.72544 77.613514 
L 330.08256 88.564607 
L 330.43968 116.738757 
L 330.7968 72.035972 
L 331.51104 92.305823 
L 332.22528 128.659907 
L 332.5824 74.78928 
L 332.93952 107.200399 
L 333.29664 87.365336 
L 333.65376 101.066132 
L 334.01088 99.008138 
L 334.368 102.170982 
L 334.72512 71.681308 
L 335.08224 86.757703 
L 335.43936 83.301238 
L 335.79648 134.472397 
L 336.1536 83.92312 
L 336.51072 111.155165 
L 336.86784 75.73789 
L 337.22496 90.353874 
L 337.58208 129.984886 
L 337.9392 93.437467 
L 338.29632 83.97532 
L 338.65344 108.912383 
L 339.01056 105.14607 
L 339.36768 91.781269 
L 339.7248 91.839875 
L 340.08192 82.003393 
L 340.43904 136.901252 
L 340.79616 103.671435 
L 341.15328 105.657255 
L 341.5104 98.04403 
L 341.86752 179.483191 
L 342.22464 88.848088 
L 342.58176 105.567802 
L 342.93888 108.409328 
L 343.296 132.402792 
L 343.65312 97.498922 
L 344.01024 89.538529 
L 344.36736 98.79852 
L 344.72448 86.20316 
L 345.0816 121.272434 
L 345.43872 122.441286 
L 345.79584 84.72451 
L 346.15296 109.757428 
L 346.51008 89.668818 
L 346.8672 118.424443 
L 347.22432 92.896857 
L 347.58144 109.619803 
L 347.93856 91.161691 
L 348.29568 99.783451 
L 348.6528 69.041756 
L 349.00992 171.622062 
L 349.36704 89.473873 
L 349.72416 132.704485 
L 350.08128 211.185219 
L 350.4384 133.54423 
L 350.79552 125.58018 
L 351.15264 96.477172 
L 351.50976 106.074405 
L 351.86688 103.139 
L 352.224 83.720014 
L 352.58112 90.232337 
L 352.93824 106.845532 
L 353.29536 95.085473 
L 353.65248 135.91564 
L 354.0096 154.51511 
L 354.36672 114.28265 
L 354.72384 91.594258 
L 355.08096 94.492635 
L 355.43808 108.520966 
L 355.7952 91.514523 
L 356.15232 119.848463 
L 356.50944 160.27571 
L 356.86656 108.628643 
L 357.22368 91.846817 
L 357.93792 116.412166 
L 358.29504 81.434433 
L 358.65216 94.177042 
L 359.00928 82.567083 
L 359.3664 114.352607 
L 359.72352 102.329377 
L 360.08064 94.153499 
L 360.43776 140.859829 
L 360.79488 88.539465 
L 361.152 157.74414 
L 361.50912 103.13686 
L 361.86624 180.10622 
L 362.22336 96.218763 
L 362.58048 88.334986 
L 362.9376 137.689241 
L 363.29472 90.581174 
L 363.65184 129.357957 
L 364.00896 115.275466 
L 364.36608 154.874595 
L 364.7232 93.270878 
L 365.08032 100.506265 
L 365.43744 71.51902 
L 365.79456 88.271432 
L 366.15168 152.842781 
L 366.5088 95.777685 
L 366.86592 84.507889 
L 367.22304 118.983001 
L 367.58016 209.043594 
L 367.93728 87.938046 
L 368.2944 96.2949 
L 368.65152 129.718563 
L 369.00864 122.091319 
L 369.36576 129.348504 
L 369.72288 111.0827 
L 370.43712 106.770089 
L 370.79424 103.041907 
L 371.15136 81.009124 
L 371.50848 92.245755 
L 371.8656 99.181587 
L 372.22272 88.317668 
L 372.57984 155.410425 
L 372.93696 104.043274 
L 373.29408 101.034723 
L 373.6512 146.104553 
L 374.00832 97.886623 
L 374.36544 85.619452 
L 374.72256 125.525511 
L 375.07968 114.168907 
L 375.4368 96.10758 
L 375.79392 92.828405 
L 376.15104 118.772748 
L 376.50816 99.657672 
L 376.86528 103.618687 
L 377.2224 117.027625 
L 377.57952 83.873419 
L 377.93664 114.418263 
L 378.29376 86.86958 
L 378.65088 93.364776 
L 379.008 122.057338 
L 379.72224 80.778924 
L 380.07936 146.630271 
L 380.43648 105.125384 
L 380.7936 143.520018 
L 381.15072 69.804963 
L 381.50784 128.844205 
L 381.86496 104.612429 
L 382.22208 96.194432 
L 382.5792 91.583719 
L 382.93632 155.819075 
L 383.29344 93.911819 
L 383.65056 106.302466 
L 384.00768 78.17705 
L 384.3648 132.099035 
L 384.72192 70.734981 
L 385.07904 99.869886 
L 385.43616 87.240348 
L 385.79328 118.899288 
L 386.1504 123.379617 
L 386.50752 123.526371 
L 386.86464 71.03451 
L 387.22176 110.853788 
L 387.57888 86.703167 
L 387.936 102.614528 
L 388.65024 151.395083 
L 389.00736 111.488594 
L 389.36448 93.779255 
L 389.7216 91.509809 
L 390.07872 103.401159 
L 390.43584 162.989921 
L 390.79296 80.69349 
L 391.15008 79.892822 
L 391.5072 87.401008 
L 392.22144 201.335366 
L 392.57856 109.290793 
L 392.93568 117.796806 
L 393.2928 111.788363 
L 393.64992 80.193323 
L 394.00704 104.411131 
L 394.36416 103.243593 
L 394.72128 87.025419 
L 395.0784 87.088255 
L 395.43552 118.747009 
L 395.79264 113.912063 
L 396.14976 122.743196 
L 396.50688 165.843782 
L 396.864 146.093957 
L 397.22112 74.445145 
L 397.57824 104.028938 
L 397.93536 111.372248 
L 398.29248 105.718489 
L 398.6496 142.573967 
L 399.00672 87.218933 
L 399.36384 90.406247 
L 399.72096 107.486162 
L 400.07808 130.025686 
L 400.79232 96.302985 
L 401.14944 136.72965 
L 401.50656 78.997569 
L 401.86368 79.368635 
L 402.2208 89.036333 
L 402.57792 105.688156 
L 402.93504 93.450944 
L 403.29216 137.272015 
L 403.64928 120.55424 
L 404.0064 69.828195 
L 404.36352 94.175555 
L 404.72064 164.400992 
L 405.07776 139.464481 
L 405.43488 70.308809 
L 406.14912 100.043522 
L 406.50624 166.111226 
L 406.86336 94.356626 
L 407.22048 85.315018 
L 407.5776 79.54102 
L 407.93472 86.67854 
L 408.29184 88.494185 
L 408.64896 80.037113 
L 409.00608 92.856628 
L 409.3632 119.115038 
L 409.72032 136.657393 
L 410.07744 121.340516 
L 410.43456 133.897117 
L 411.50592 74.48223 
L 411.86304 84.5163 
L 412.57728 140.400482 
L 412.9344 131.905673 
L 413.29152 91.583878 
L 413.64864 141.826914 
L 414.00576 109.924361 
L 414.36288 98.013773 
L 414.36288 98.013773 
" style="fill:none;stroke:#0000ff;stroke-linecap:square;stroke-width:1.5;"/>
   </g>
   <g id="patch_3">
    <path d="M 57.6 307.584 
L 57.6 41.472 
" style="fill:none;stroke:#000000;stroke-linecap:square;stroke-linejoin:miter;stroke-width:0.8;"/>
   </g>
   <g id="patch_4">
    <path d="M 414.72 307.584 
L 414.72 41.472 
" style="fill:none;stroke:#000000;stroke-linecap:square;stroke-linejoin:miter;stroke-width:0.8;"/>
   </g>
   <g id="patch_5">
    <path d="M 57.6 307.584 
L 414.72 307.584 
" style="fill:none;stroke:#000000;stroke-linecap:square;stroke-linejoin:miter;stroke-width:0.8;"/>
   </g>
   <g id="patch_6">
    <path d="M 57.6 41.472 
L 414.72 41.472 
" style="fill:none;stroke:#000000;stroke-linecap:square;stroke-linejoin:miter;stroke-width:0.8;"/>
   </g>
   <g id="legend_1">
    <g id="patch_7">
     <path d="M 64.6 64.150125 
L 189.998437 64.150125 
Q 191.998437 64.150125 191.998437 62.150125 
L 191.998437 48.472 
Q 191.998437 46.472 189.998437 46.472 
L 64.6 46.472 
Q 62.6 46.472 62.6 48.472 
L 62.6 62.150125 
Q 62.6 64.150125 64.6 64.150125 
z
" style="fill:#ffffff;opacity:0.8;stroke:#cccccc;stroke-linejoin:miter;"/>
    </g>
    <g id="line2d_26">
     <path d="M 66.6 54.570438 
L 86.6 54.570438 
" style="fill:none;stroke:#0000ff;stroke-linecap:square;stroke-width:1.5;"/>
    </g>
    <g id="line2d_27"/>
    <g id="text_16">
     <!-- cumulative reward -->
     <g transform="translate(94.6 58.070438)scale(0.1 -0.1)">
      <defs>
       <path d="M 3122 3366 
L 3122 2828 
Q 2878 2963 2633 3030 
Q 2388 3097 2138 3097 
Q 1578 3097 1268 2742 
Q 959 2388 959 1747 
Q 959 1106 1268 751 
Q 1578 397 2138 397 
Q 2388 397 2633 464 
Q 2878 531 3122 666 
L 3122 134 
Q 2881 22 2623 -34 
Q 2366 -91 2075 -91 
Q 1284 -91 818 406 
Q 353 903 353 1747 
Q 353 2603 823 3093 
Q 1294 3584 2113 3584 
Q 2378 3584 2631 3529 
Q 2884 3475 3122 3366 
z
" id="DejaVuSans-63" transform="scale(0.015625)"/>
      </defs>
      <use xlink:href="#DejaVuSans-63"/>
      <use x="54.980469" xlink:href="#DejaVuSans-75"/>
      <use x="118.359375" xlink:href="#DejaVuSans-6d"/>
      <use x="215.771484" xlink:href="#DejaVuSans-75"/>
      <use x="279.150391" xlink:href="#DejaVuSans-6c"/>
      <use x="306.933594" xlink:href="#DejaVuSans-61"/>
      <use x="368.212891" xlink:href="#DejaVuSans-74"/>
      <use x="407.421875" xlink:href="#DejaVuSans-69"/>
      <use x="435.205078" xlink:href="#DejaVuSans-76"/>
      <use x="494.384766" xlink:href="#DejaVuSans-65"/>
      <use x="555.908203" xlink:href="#DejaVuSans-20"/>
      <use x="587.695312" xlink:href="#DejaVuSans-72"/>
      <use x="626.558594" xlink:href="#DejaVuSans-65"/>
      <use x="688.082031" xlink:href="#DejaVuSans-77"/>
      <use x="769.869141" xlink:href="#DejaVuSans-61"/>
      <use x="831.148438" xlink:href="#DejaVuSans-72"/>
      <use x="870.511719" xlink:href="#DejaVuSans-64"/>
     </g>
    </g>
   </g>
  </g>
 </g>
 <defs>
  <clipPath id="p9a95cad2d6">
   <rect height="266.112" width="357.12" x="57.6" y="41.472"/>
  </clipPath>
 </defs>
</svg>
