<?xml version="1.0" encoding="utf-8" standalone="no"?>
<!DOCTYPE svg PUBLIC "-//W3C//DTD SVG 1.1//EN"
  "http://www.w3.org/Graphics/SVG/1.1/DTD/svg11.dtd">
<svg xmlns:xlink="http://www.w3.org/1999/xlink" width="460.8pt" height="345.6pt" viewBox="0 0 460.8 345.6" xmlns="http://www.w3.org/2000/svg" version="1.1">
 <metadata>
  <rdf:RDF xmlns:dc="http://purl.org/dc/elements/1.1/" xmlns:cc="http://creativecommons.org/ns#" xmlns:rdf="http://www.w3.org/1999/02/22-rdf-syntax-ns#">
   <cc:Work>
    <dc:type rdf:resource="http://purl.org/dc/dcmitype/StillImage"/>
    <dc:date>2021-12-02T19:58:52.979313</dc:date>
    <dc:description>{"agent.algorithm": "RayProximalPolicyOptimization", "agent.algorithm.render_env": false, "agent.algorithm.num_workers": 0, "agent.algorithm.batch_mode": "complete_episodes", "agent.algorithm.lr": 5e-05, "agent.algorithm.train_batch_size": 200, "agent.algorithm.optimizer": "Adam", "agent.algorithm.vf_clip_param": 10, "agent.algorithm.model": {"fcnet_activation": "relu", "fcnet_hiddens": [50, 50]}, "env.env_class": "SchedulerPolicyRayEnvironment", "env.env_config": {"solver_driver": "DEdriver", "solver_driver_args": [5, 10, 9, "best1bin", "normal"], "maximize": false, "steps": 50, "state_metrics_names": ["DifferenceOfBest", "SolverStateHistory"], "state_metrics_config": [[40, false, 1, true, false], [{"F_mean": {"max": [2], "min": [0]}, "F_stdev": {"max": [1], "min": [0]}, "CR_mean": {"max": [1], "min": [0]}, "CR_stdev": {"max": [1], "min": [0]}}, 40]], "reward_metric": "DeltaBest", "reward_metric_config": [false, true, true], "memes_no": 1, "action_space_config": {"F_mean": {"max": 2, "min": 0}, "F_stdev": {"max": 1, "min": 0}, "CR_mean": {"max": 1, "min": 0}, "CR_stdev": {"max": 1, "min": 0}}}}</dc:description>
    <dc:format>image/svg+xml</dc:format>
    <dc:creator>
     <cc:Agent>
      <dc:title>Matplotlib v3.5.0, https://matplotlib.org/</dc:title>
     </cc:Agent>
    </dc:creator>
   </cc:Work>
  </rdf:RDF>
 </metadata>
 <defs>
  <style type="text/css">*{stroke-linejoin: round; stroke-linecap: butt}</style>
 </defs>
 <g id="figure_1">
  <g id="patch_1">
   <path d="M 0 345.6 
L 460.8 345.6 
L 460.8 0 
L 0 0 
z
" style="fill: #ffffff"/>
  </g>
  <g id="axes_1">
   <g id="patch_2">
    <path d="M 57.6 307.584 
L 414.72 307.584 
L 414.72 41.472 
L 57.6 41.472 
z
" style="fill: #ffffff"/>
   </g>
   <g id="matplotlib.axis_1">
    <g id="xtick_1">
     <g id="line2d_1">
      <path d="M 57.6 307.584 
L 57.6 41.472 
" clip-path="url(#p64119ef79d)" style="fill: none; stroke: #b0b0b0; stroke-width: 0.8; stroke-linecap: square"/>
     </g>
     <g id="line2d_2">
      <defs>
       <path id="m15543112fa" d="M 0 0 
L 0 3.5 
" style="stroke: #000000; stroke-width: 0.8"/>
      </defs>
      <g>
       <use xlink:href="#m15543112fa" x="57.6" y="307.584" style="stroke: #000000; stroke-width: 0.8"/>
      </g>
     </g>
     <g id="text_1">
      <!-- 0 -->
      <g transform="translate(52.51 326.7415)scale(0.16 -0.16)">
       <defs>
        <path id="DejaVuSans-30" d="M 2034 4250 
Q 1547 4250 1301 3770 
Q 1056 3291 1056 2328 
Q 1056 1369 1301 889 
Q 1547 409 2034 409 
Q 2525 409 2770 889 
Q 3016 1369 3016 2328 
Q 3016 3291 2770 3770 
Q 2525 4250 2034 4250 
z
M 2034 4750 
Q 2819 4750 3233 4129 
Q 3647 3509 3647 2328 
Q 3647 1150 3233 529 
Q 2819 -91 2034 -91 
Q 1250 -91 836 529 
Q 422 1150 422 2328 
Q 422 3509 836 4129 
Q 1250 4750 2034 4750 
z
" transform="scale(0.015625)"/>
       </defs>
       <use xlink:href="#DejaVuSans-30"/>
      </g>
     </g>
    </g>
    <g id="xtick_2">
     <g id="line2d_3">
      <path d="M 129.024 307.584 
L 129.024 41.472 
" clip-path="url(#p64119ef79d)" style="fill: none; stroke: #b0b0b0; stroke-width: 0.8; stroke-linecap: square"/>
     </g>
     <g id="line2d_4">
      <g>
       <use xlink:href="#m15543112fa" x="129.024" y="307.584" style="stroke: #000000; stroke-width: 0.8"/>
      </g>
     </g>
     <g id="text_2">
      <!-- 200 -->
      <g transform="translate(113.754 326.7415)scale(0.16 -0.16)">
       <defs>
        <path id="DejaVuSans-32" d="M 1228 531 
L 3431 531 
L 3431 0 
L 469 0 
L 469 531 
Q 828 903 1448 1529 
Q 2069 2156 2228 2338 
Q 2531 2678 2651 2914 
Q 2772 3150 2772 3378 
Q 2772 3750 2511 3984 
Q 2250 4219 1831 4219 
Q 1534 4219 1204 4116 
Q 875 4013 500 3803 
L 500 4441 
Q 881 4594 1212 4672 
Q 1544 4750 1819 4750 
Q 2544 4750 2975 4387 
Q 3406 4025 3406 3419 
Q 3406 3131 3298 2873 
Q 3191 2616 2906 2266 
Q 2828 2175 2409 1742 
Q 1991 1309 1228 531 
z
" transform="scale(0.015625)"/>
       </defs>
       <use xlink:href="#DejaVuSans-32"/>
       <use xlink:href="#DejaVuSans-30" x="63.623047"/>
       <use xlink:href="#DejaVuSans-30" x="127.246094"/>
      </g>
     </g>
    </g>
    <g id="xtick_3">
     <g id="line2d_5">
      <path d="M 200.448 307.584 
L 200.448 41.472 
" clip-path="url(#p64119ef79d)" style="fill: none; stroke: #b0b0b0; stroke-width: 0.8; stroke-linecap: square"/>
     </g>
     <g id="line2d_6">
      <g>
       <use xlink:href="#m15543112fa" x="200.448" y="307.584" style="stroke: #000000; stroke-width: 0.8"/>
      </g>
     </g>
     <g id="text_3">
      <!-- 400 -->
      <g transform="translate(185.178 326.7415)scale(0.16 -0.16)">
       <defs>
        <path id="DejaVuSans-34" d="M 2419 4116 
L 825 1625 
L 2419 1625 
L 2419 4116 
z
M 2253 4666 
L 3047 4666 
L 3047 1625 
L 3713 1625 
L 3713 1100 
L 3047 1100 
L 3047 0 
L 2419 0 
L 2419 1100 
L 313 1100 
L 313 1709 
L 2253 4666 
z
" transform="scale(0.015625)"/>
       </defs>
       <use xlink:href="#DejaVuSans-34"/>
       <use xlink:href="#DejaVuSans-30" x="63.623047"/>
       <use xlink:href="#DejaVuSans-30" x="127.246094"/>
      </g>
     </g>
    </g>
    <g id="xtick_4">
     <g id="line2d_7">
      <path d="M 271.872 307.584 
L 271.872 41.472 
" clip-path="url(#p64119ef79d)" style="fill: none; stroke: #b0b0b0; stroke-width: 0.8; stroke-linecap: square"/>
     </g>
     <g id="line2d_8">
      <g>
       <use xlink:href="#m15543112fa" x="271.872" y="307.584" style="stroke: #000000; stroke-width: 0.8"/>
      </g>
     </g>
     <g id="text_4">
      <!-- 600 -->
      <g transform="translate(256.602 326.7415)scale(0.16 -0.16)">
       <defs>
        <path id="DejaVuSans-36" d="M 2113 2584 
Q 1688 2584 1439 2293 
Q 1191 2003 1191 1497 
Q 1191 994 1439 701 
Q 1688 409 2113 409 
Q 2538 409 2786 701 
Q 3034 994 3034 1497 
Q 3034 2003 2786 2293 
Q 2538 2584 2113 2584 
z
M 3366 4563 
L 3366 3988 
Q 3128 4100 2886 4159 
Q 2644 4219 2406 4219 
Q 1781 4219 1451 3797 
Q 1122 3375 1075 2522 
Q 1259 2794 1537 2939 
Q 1816 3084 2150 3084 
Q 2853 3084 3261 2657 
Q 3669 2231 3669 1497 
Q 3669 778 3244 343 
Q 2819 -91 2113 -91 
Q 1303 -91 875 529 
Q 447 1150 447 2328 
Q 447 3434 972 4092 
Q 1497 4750 2381 4750 
Q 2619 4750 2861 4703 
Q 3103 4656 3366 4563 
z
" transform="scale(0.015625)"/>
       </defs>
       <use xlink:href="#DejaVuSans-36"/>
       <use xlink:href="#DejaVuSans-30" x="63.623047"/>
       <use xlink:href="#DejaVuSans-30" x="127.246094"/>
      </g>
     </g>
    </g>
    <g id="xtick_5">
     <g id="line2d_9">
      <path d="M 343.296 307.584 
L 343.296 41.472 
" clip-path="url(#p64119ef79d)" style="fill: none; stroke: #b0b0b0; stroke-width: 0.8; stroke-linecap: square"/>
     </g>
     <g id="line2d_10">
      <g>
       <use xlink:href="#m15543112fa" x="343.296" y="307.584" style="stroke: #000000; stroke-width: 0.8"/>
      </g>
     </g>
     <g id="text_5">
      <!-- 800 -->
      <g transform="translate(328.026 326.7415)scale(0.16 -0.16)">
       <defs>
        <path id="DejaVuSans-38" d="M 2034 2216 
Q 1584 2216 1326 1975 
Q 1069 1734 1069 1313 
Q 1069 891 1326 650 
Q 1584 409 2034 409 
Q 2484 409 2743 651 
Q 3003 894 3003 1313 
Q 3003 1734 2745 1975 
Q 2488 2216 2034 2216 
z
M 1403 2484 
Q 997 2584 770 2862 
Q 544 3141 544 3541 
Q 544 4100 942 4425 
Q 1341 4750 2034 4750 
Q 2731 4750 3128 4425 
Q 3525 4100 3525 3541 
Q 3525 3141 3298 2862 
Q 3072 2584 2669 2484 
Q 3125 2378 3379 2068 
Q 3634 1759 3634 1313 
Q 3634 634 3220 271 
Q 2806 -91 2034 -91 
Q 1263 -91 848 271 
Q 434 634 434 1313 
Q 434 1759 690 2068 
Q 947 2378 1403 2484 
z
M 1172 3481 
Q 1172 3119 1398 2916 
Q 1625 2713 2034 2713 
Q 2441 2713 2670 2916 
Q 2900 3119 2900 3481 
Q 2900 3844 2670 4047 
Q 2441 4250 2034 4250 
Q 1625 4250 1398 4047 
Q 1172 3844 1172 3481 
z
" transform="scale(0.015625)"/>
       </defs>
       <use xlink:href="#DejaVuSans-38"/>
       <use xlink:href="#DejaVuSans-30" x="63.623047"/>
       <use xlink:href="#DejaVuSans-30" x="127.246094"/>
      </g>
     </g>
    </g>
    <g id="xtick_6">
     <g id="line2d_11">
      <path d="M 414.72 307.584 
L 414.72 41.472 
" clip-path="url(#p64119ef79d)" style="fill: none; stroke: #b0b0b0; stroke-width: 0.8; stroke-linecap: square"/>
     </g>
     <g id="line2d_12">
      <g>
       <use xlink:href="#m15543112fa" x="414.72" y="307.584" style="stroke: #000000; stroke-width: 0.8"/>
      </g>
     </g>
     <g id="text_6">
      <!-- 1000 -->
      <g transform="translate(394.36 326.7415)scale(0.16 -0.16)">
       <defs>
        <path id="DejaVuSans-31" d="M 794 531 
L 1825 531 
L 1825 4091 
L 703 3866 
L 703 4441 
L 1819 4666 
L 2450 4666 
L 2450 531 
L 3481 531 
L 3481 0 
L 794 0 
L 794 531 
z
" transform="scale(0.015625)"/>
       </defs>
       <use xlink:href="#DejaVuSans-31"/>
       <use xlink:href="#DejaVuSans-30" x="63.623047"/>
       <use xlink:href="#DejaVuSans-30" x="127.246094"/>
       <use xlink:href="#DejaVuSans-30" x="190.869141"/>
      </g>
     </g>
    </g>
    <g id="text_7">
     <!-- Episodes -->
     <g transform="translate(200.5725 346.2265)scale(0.16 -0.16)">
      <defs>
       <path id="DejaVuSans-45" d="M 628 4666 
L 3578 4666 
L 3578 4134 
L 1259 4134 
L 1259 2753 
L 3481 2753 
L 3481 2222 
L 1259 2222 
L 1259 531 
L 3634 531 
L 3634 0 
L 628 0 
L 628 4666 
z
" transform="scale(0.015625)"/>
       <path id="DejaVuSans-70" d="M 1159 525 
L 1159 -1331 
L 581 -1331 
L 581 3500 
L 1159 3500 
L 1159 2969 
Q 1341 3281 1617 3432 
Q 1894 3584 2278 3584 
Q 2916 3584 3314 3078 
Q 3713 2572 3713 1747 
Q 3713 922 3314 415 
Q 2916 -91 2278 -91 
Q 1894 -91 1617 61 
Q 1341 213 1159 525 
z
M 3116 1747 
Q 3116 2381 2855 2742 
Q 2594 3103 2138 3103 
Q 1681 3103 1420 2742 
Q 1159 2381 1159 1747 
Q 1159 1113 1420 752 
Q 1681 391 2138 391 
Q 2594 391 2855 752 
Q 3116 1113 3116 1747 
z
" transform="scale(0.015625)"/>
       <path id="DejaVuSans-69" d="M 603 3500 
L 1178 3500 
L 1178 0 
L 603 0 
L 603 3500 
z
M 603 4863 
L 1178 4863 
L 1178 4134 
L 603 4134 
L 603 4863 
z
" transform="scale(0.015625)"/>
       <path id="DejaVuSans-73" d="M 2834 3397 
L 2834 2853 
Q 2591 2978 2328 3040 
Q 2066 3103 1784 3103 
Q 1356 3103 1142 2972 
Q 928 2841 928 2578 
Q 928 2378 1081 2264 
Q 1234 2150 1697 2047 
L 1894 2003 
Q 2506 1872 2764 1633 
Q 3022 1394 3022 966 
Q 3022 478 2636 193 
Q 2250 -91 1575 -91 
Q 1294 -91 989 -36 
Q 684 19 347 128 
L 347 722 
Q 666 556 975 473 
Q 1284 391 1588 391 
Q 1994 391 2212 530 
Q 2431 669 2431 922 
Q 2431 1156 2273 1281 
Q 2116 1406 1581 1522 
L 1381 1569 
Q 847 1681 609 1914 
Q 372 2147 372 2553 
Q 372 3047 722 3315 
Q 1072 3584 1716 3584 
Q 2034 3584 2315 3537 
Q 2597 3491 2834 3397 
z
" transform="scale(0.015625)"/>
       <path id="DejaVuSans-6f" d="M 1959 3097 
Q 1497 3097 1228 2736 
Q 959 2375 959 1747 
Q 959 1119 1226 758 
Q 1494 397 1959 397 
Q 2419 397 2687 759 
Q 2956 1122 2956 1747 
Q 2956 2369 2687 2733 
Q 2419 3097 1959 3097 
z
M 1959 3584 
Q 2709 3584 3137 3096 
Q 3566 2609 3566 1747 
Q 3566 888 3137 398 
Q 2709 -91 1959 -91 
Q 1206 -91 779 398 
Q 353 888 353 1747 
Q 353 2609 779 3096 
Q 1206 3584 1959 3584 
z
" transform="scale(0.015625)"/>
       <path id="DejaVuSans-64" d="M 2906 2969 
L 2906 4863 
L 3481 4863 
L 3481 0 
L 2906 0 
L 2906 525 
Q 2725 213 2448 61 
Q 2172 -91 1784 -91 
Q 1150 -91 751 415 
Q 353 922 353 1747 
Q 353 2572 751 3078 
Q 1150 3584 1784 3584 
Q 2172 3584 2448 3432 
Q 2725 3281 2906 2969 
z
M 947 1747 
Q 947 1113 1208 752 
Q 1469 391 1925 391 
Q 2381 391 2643 752 
Q 2906 1113 2906 1747 
Q 2906 2381 2643 2742 
Q 2381 3103 1925 3103 
Q 1469 3103 1208 2742 
Q 947 2381 947 1747 
z
" transform="scale(0.015625)"/>
       <path id="DejaVuSans-65" d="M 3597 1894 
L 3597 1613 
L 953 1613 
Q 991 1019 1311 708 
Q 1631 397 2203 397 
Q 2534 397 2845 478 
Q 3156 559 3463 722 
L 3463 178 
Q 3153 47 2828 -22 
Q 2503 -91 2169 -91 
Q 1331 -91 842 396 
Q 353 884 353 1716 
Q 353 2575 817 3079 
Q 1281 3584 2069 3584 
Q 2775 3584 3186 3129 
Q 3597 2675 3597 1894 
z
M 3022 2063 
Q 3016 2534 2758 2815 
Q 2500 3097 2075 3097 
Q 1594 3097 1305 2825 
Q 1016 2553 972 2059 
L 3022 2063 
z
" transform="scale(0.015625)"/>
      </defs>
      <use xlink:href="#DejaVuSans-45"/>
      <use xlink:href="#DejaVuSans-70" x="63.183594"/>
      <use xlink:href="#DejaVuSans-69" x="126.660156"/>
      <use xlink:href="#DejaVuSans-73" x="154.443359"/>
      <use xlink:href="#DejaVuSans-6f" x="206.542969"/>
      <use xlink:href="#DejaVuSans-64" x="267.724609"/>
      <use xlink:href="#DejaVuSans-65" x="331.201172"/>
      <use xlink:href="#DejaVuSans-73" x="392.724609"/>
     </g>
    </g>
   </g>
   <g id="matplotlib.axis_2">
    <g id="ytick_1">
     <g id="line2d_13">
      <path d="M 57.6 285.408 
L 414.72 285.408 
" clip-path="url(#p64119ef79d)" style="fill: none; stroke: #b0b0b0; stroke-width: 0.8; stroke-linecap: square"/>
     </g>
     <g id="line2d_14">
      <defs>
       <path id="ma992557348" d="M 0 0 
L -3.5 0 
" style="stroke: #000000; stroke-width: 0.8"/>
      </defs>
      <g>
       <use xlink:href="#ma992557348" x="57.6" y="285.408" style="stroke: #000000; stroke-width: 0.8"/>
      </g>
     </g>
     <g id="text_8">
      <!-- 0 -->
      <g transform="translate(40.42 291.48675)scale(0.16 -0.16)">
       <use xlink:href="#DejaVuSans-30"/>
      </g>
     </g>
    </g>
    <g id="ytick_2">
     <g id="line2d_15">
      <path d="M 57.6 228.869588 
L 414.72 228.869588 
" clip-path="url(#p64119ef79d)" style="fill: none; stroke: #b0b0b0; stroke-width: 0.8; stroke-linecap: square"/>
     </g>
     <g id="line2d_16">
      <g>
       <use xlink:href="#ma992557348" x="57.6" y="228.869588" style="stroke: #000000; stroke-width: 0.8"/>
      </g>
     </g>
     <g id="text_9">
      <!-- 2 -->
      <g transform="translate(40.42 234.948338)scale(0.16 -0.16)">
       <use xlink:href="#DejaVuSans-32"/>
      </g>
     </g>
    </g>
    <g id="ytick_3">
     <g id="line2d_17">
      <path d="M 57.6 172.331176 
L 414.72 172.331176 
" clip-path="url(#p64119ef79d)" style="fill: none; stroke: #b0b0b0; stroke-width: 0.8; stroke-linecap: square"/>
     </g>
     <g id="line2d_18">
      <g>
       <use xlink:href="#ma992557348" x="57.6" y="172.331176" style="stroke: #000000; stroke-width: 0.8"/>
      </g>
     </g>
     <g id="text_10">
      <!-- 4 -->
      <g transform="translate(40.42 178.409926)scale(0.16 -0.16)">
       <use xlink:href="#DejaVuSans-34"/>
      </g>
     </g>
    </g>
    <g id="ytick_4">
     <g id="line2d_19">
      <path d="M 57.6 115.792765 
L 414.72 115.792765 
" clip-path="url(#p64119ef79d)" style="fill: none; stroke: #b0b0b0; stroke-width: 0.8; stroke-linecap: square"/>
     </g>
     <g id="line2d_20">
      <g>
       <use xlink:href="#ma992557348" x="57.6" y="115.792765" style="stroke: #000000; stroke-width: 0.8"/>
      </g>
     </g>
     <g id="text_11">
      <!-- 6 -->
      <g transform="translate(40.42 121.871515)scale(0.16 -0.16)">
       <use xlink:href="#DejaVuSans-36"/>
      </g>
     </g>
    </g>
    <g id="ytick_5">
     <g id="line2d_21">
      <path d="M 57.6 59.254353 
L 414.72 59.254353 
" clip-path="url(#p64119ef79d)" style="fill: none; stroke: #b0b0b0; stroke-width: 0.8; stroke-linecap: square"/>
     </g>
     <g id="line2d_22">
      <g>
       <use xlink:href="#ma992557348" x="57.6" y="59.254353" style="stroke: #000000; stroke-width: 0.8"/>
      </g>
     </g>
     <g id="text_12">
      <!-- 8 -->
      <g transform="translate(40.42 65.333103)scale(0.16 -0.16)">
       <use xlink:href="#DejaVuSans-38"/>
      </g>
     </g>
    </g>
    <g id="text_13">
     <!-- Cumulative Reward -->
     <g transform="translate(33.0925 252.52425)rotate(-90)scale(0.16 -0.16)">
      <defs>
       <path id="DejaVuSans-43" d="M 4122 4306 
L 4122 3641 
Q 3803 3938 3442 4084 
Q 3081 4231 2675 4231 
Q 1875 4231 1450 3742 
Q 1025 3253 1025 2328 
Q 1025 1406 1450 917 
Q 1875 428 2675 428 
Q 3081 428 3442 575 
Q 3803 722 4122 1019 
L 4122 359 
Q 3791 134 3420 21 
Q 3050 -91 2638 -91 
Q 1578 -91 968 557 
Q 359 1206 359 2328 
Q 359 3453 968 4101 
Q 1578 4750 2638 4750 
Q 3056 4750 3426 4639 
Q 3797 4528 4122 4306 
z
" transform="scale(0.015625)"/>
       <path id="DejaVuSans-75" d="M 544 1381 
L 544 3500 
L 1119 3500 
L 1119 1403 
Q 1119 906 1312 657 
Q 1506 409 1894 409 
Q 2359 409 2629 706 
Q 2900 1003 2900 1516 
L 2900 3500 
L 3475 3500 
L 3475 0 
L 2900 0 
L 2900 538 
Q 2691 219 2414 64 
Q 2138 -91 1772 -91 
Q 1169 -91 856 284 
Q 544 659 544 1381 
z
M 1991 3584 
L 1991 3584 
z
" transform="scale(0.015625)"/>
       <path id="DejaVuSans-6d" d="M 3328 2828 
Q 3544 3216 3844 3400 
Q 4144 3584 4550 3584 
Q 5097 3584 5394 3201 
Q 5691 2819 5691 2113 
L 5691 0 
L 5113 0 
L 5113 2094 
Q 5113 2597 4934 2840 
Q 4756 3084 4391 3084 
Q 3944 3084 3684 2787 
Q 3425 2491 3425 1978 
L 3425 0 
L 2847 0 
L 2847 2094 
Q 2847 2600 2669 2842 
Q 2491 3084 2119 3084 
Q 1678 3084 1418 2786 
Q 1159 2488 1159 1978 
L 1159 0 
L 581 0 
L 581 3500 
L 1159 3500 
L 1159 2956 
Q 1356 3278 1631 3431 
Q 1906 3584 2284 3584 
Q 2666 3584 2933 3390 
Q 3200 3197 3328 2828 
z
" transform="scale(0.015625)"/>
       <path id="DejaVuSans-6c" d="M 603 4863 
L 1178 4863 
L 1178 0 
L 603 0 
L 603 4863 
z
" transform="scale(0.015625)"/>
       <path id="DejaVuSans-61" d="M 2194 1759 
Q 1497 1759 1228 1600 
Q 959 1441 959 1056 
Q 959 750 1161 570 
Q 1363 391 1709 391 
Q 2188 391 2477 730 
Q 2766 1069 2766 1631 
L 2766 1759 
L 2194 1759 
z
M 3341 1997 
L 3341 0 
L 2766 0 
L 2766 531 
Q 2569 213 2275 61 
Q 1981 -91 1556 -91 
Q 1019 -91 701 211 
Q 384 513 384 1019 
Q 384 1609 779 1909 
Q 1175 2209 1959 2209 
L 2766 2209 
L 2766 2266 
Q 2766 2663 2505 2880 
Q 2244 3097 1772 3097 
Q 1472 3097 1187 3025 
Q 903 2953 641 2809 
L 641 3341 
Q 956 3463 1253 3523 
Q 1550 3584 1831 3584 
Q 2591 3584 2966 3190 
Q 3341 2797 3341 1997 
z
" transform="scale(0.015625)"/>
       <path id="DejaVuSans-74" d="M 1172 4494 
L 1172 3500 
L 2356 3500 
L 2356 3053 
L 1172 3053 
L 1172 1153 
Q 1172 725 1289 603 
Q 1406 481 1766 481 
L 2356 481 
L 2356 0 
L 1766 0 
Q 1100 0 847 248 
Q 594 497 594 1153 
L 594 3053 
L 172 3053 
L 172 3500 
L 594 3500 
L 594 4494 
L 1172 4494 
z
" transform="scale(0.015625)"/>
       <path id="DejaVuSans-76" d="M 191 3500 
L 800 3500 
L 1894 563 
L 2988 3500 
L 3597 3500 
L 2284 0 
L 1503 0 
L 191 3500 
z
" transform="scale(0.015625)"/>
       <path id="DejaVuSans-20" transform="scale(0.015625)"/>
       <path id="DejaVuSans-52" d="M 2841 2188 
Q 3044 2119 3236 1894 
Q 3428 1669 3622 1275 
L 4263 0 
L 3584 0 
L 2988 1197 
Q 2756 1666 2539 1819 
Q 2322 1972 1947 1972 
L 1259 1972 
L 1259 0 
L 628 0 
L 628 4666 
L 2053 4666 
Q 2853 4666 3247 4331 
Q 3641 3997 3641 3322 
Q 3641 2881 3436 2590 
Q 3231 2300 2841 2188 
z
M 1259 4147 
L 1259 2491 
L 2053 2491 
Q 2509 2491 2742 2702 
Q 2975 2913 2975 3322 
Q 2975 3731 2742 3939 
Q 2509 4147 2053 4147 
L 1259 4147 
z
" transform="scale(0.015625)"/>
       <path id="DejaVuSans-77" d="M 269 3500 
L 844 3500 
L 1563 769 
L 2278 3500 
L 2956 3500 
L 3675 769 
L 4391 3500 
L 4966 3500 
L 4050 0 
L 3372 0 
L 2619 2869 
L 1863 0 
L 1184 0 
L 269 3500 
z
" transform="scale(0.015625)"/>
       <path id="DejaVuSans-72" d="M 2631 2963 
Q 2534 3019 2420 3045 
Q 2306 3072 2169 3072 
Q 1681 3072 1420 2755 
Q 1159 2438 1159 1844 
L 1159 0 
L 581 0 
L 581 3500 
L 1159 3500 
L 1159 2956 
Q 1341 3275 1631 3429 
Q 1922 3584 2338 3584 
Q 2397 3584 2469 3576 
Q 2541 3569 2628 3553 
L 2631 2963 
z
" transform="scale(0.015625)"/>
      </defs>
      <use xlink:href="#DejaVuSans-43"/>
      <use xlink:href="#DejaVuSans-75" x="69.824219"/>
      <use xlink:href="#DejaVuSans-6d" x="133.203125"/>
      <use xlink:href="#DejaVuSans-75" x="230.615234"/>
      <use xlink:href="#DejaVuSans-6c" x="293.994141"/>
      <use xlink:href="#DejaVuSans-61" x="321.777344"/>
      <use xlink:href="#DejaVuSans-74" x="383.056641"/>
      <use xlink:href="#DejaVuSans-69" x="422.265625"/>
      <use xlink:href="#DejaVuSans-76" x="450.048828"/>
      <use xlink:href="#DejaVuSans-65" x="509.228516"/>
      <use xlink:href="#DejaVuSans-20" x="570.751953"/>
      <use xlink:href="#DejaVuSans-52" x="602.539062"/>
      <use xlink:href="#DejaVuSans-65" x="667.521484"/>
      <use xlink:href="#DejaVuSans-77" x="729.044922"/>
      <use xlink:href="#DejaVuSans-61" x="810.832031"/>
      <use xlink:href="#DejaVuSans-72" x="872.111328"/>
      <use xlink:href="#DejaVuSans-64" x="911.474609"/>
     </g>
    </g>
   </g>
   <g id="line2d_23">
    <path d="M 57.6 238.548519 
L 57.95712 245.428775 
L 58.31424 182.007693 
L 58.67136 285.408 
L 59.02848 238.548519 
L 59.3856 245.428775 
L 59.74272 182.007693 
L 60.09984 285.408 
L 60.45696 238.548519 
L 60.81408 245.428775 
L 61.1712 182.007693 
L 61.52832 285.408 
L 61.88544 238.548519 
L 62.24256 245.428775 
L 62.59968 182.007693 
L 62.9568 285.408 
L 63.31392 238.548519 
L 63.67104 245.428775 
L 64.02816 182.007693 
L 64.38528 285.408 
L 64.7424 238.548519 
L 65.09952 245.428775 
L 65.45664 182.007693 
L 65.81376 285.408 
L 66.17088 238.548519 
L 66.528 245.428775 
L 66.88512 182.007693 
L 67.24224 285.408 
L 67.59936 238.548519 
L 67.95648 245.428775 
L 68.3136 182.007693 
L 68.67072 285.408 
L 69.02784 238.548519 
L 69.38496 245.428775 
L 69.74208 182.007693 
L 70.0992 285.408 
L 70.45632 238.548519 
L 70.81344 245.428775 
L 71.17056 182.007693 
L 71.52768 285.408 
L 71.8848 238.548519 
L 72.24192 245.428775 
L 72.59904 182.007693 
L 72.95616 285.408 
L 73.31328 238.548519 
L 73.6704 245.428775 
L 74.02752 182.007693 
L 74.38464 285.408 
L 74.74176 238.548519 
L 75.09888 245.428775 
L 75.456 182.007693 
L 75.81312 285.408 
L 76.17024 238.548519 
L 76.52736 245.428775 
L 76.88448 182.007693 
L 77.2416 285.408 
L 77.59872 238.548519 
L 77.95584 245.428775 
L 78.31296 182.007693 
L 78.67008 285.408 
L 79.0272 238.548519 
L 79.38432 245.428775 
L 79.74144 182.007693 
L 80.09856 285.408 
L 80.45568 238.548519 
L 80.8128 245.428775 
L 81.16992 182.007693 
L 81.52704 285.408 
L 81.88416 238.548519 
L 82.24128 245.428775 
L 82.5984 182.007693 
L 82.95552 285.408 
L 83.31264 238.548519 
L 83.66976 245.428775 
L 84.02688 182.007693 
L 84.384 285.408 
L 84.74112 238.548519 
L 85.09824 245.428775 
L 85.45536 182.007693 
L 85.81248 285.408 
L 86.1696 238.548519 
L 86.52672 245.428775 
L 86.88384 182.007693 
L 87.24096 285.408 
L 87.59808 238.548519 
L 87.9552 245.428775 
L 88.31232 182.007693 
L 88.66944 285.408 
L 89.02656 238.548519 
L 89.38368 245.428775 
L 89.7408 182.007693 
L 90.09792 285.408 
L 90.45504 238.548519 
L 90.81216 245.428775 
L 91.16928 182.007693 
L 91.5264 285.408 
L 91.88352 238.548519 
L 92.24064 245.428775 
L 92.59776 182.007693 
L 92.95488 285.408 
L 93.312 273.231653 
L 93.66912 249.119666 
L 94.02624 181.847981 
L 94.38336 183.120553 
L 94.74048 206.510412 
L 95.0976 143.621437 
L 95.45472 236.289106 
L 95.81184 161.236931 
L 96.16896 249.514704 
L 96.52608 264.096494 
L 97.24032 215.175863 
L 97.59744 222.781671 
L 97.95456 226.501887 
L 98.31168 249.515132 
L 98.6688 254.198556 
L 99.02592 218.836667 
L 99.38304 261.665683 
L 99.74016 229.531889 
L 100.09728 259.815852 
L 100.4544 209.688116 
L 100.81152 226.758196 
L 101.16864 262.08239 
L 101.52576 205.84795 
L 101.88288 220.531065 
L 102.24 227.07097 
L 102.59712 147.81857 
L 102.95424 251.866499 
L 103.31136 214.407683 
L 103.66848 217.444356 
L 104.0256 206.688479 
L 104.38272 232.997461 
L 104.73984 237.354288 
L 105.09696 225.586856 
L 105.45408 260.357213 
L 105.8112 236.341727 
L 106.16832 228.675771 
L 106.52544 212.263857 
L 106.88256 169.935492 
L 107.23968 182.472713 
L 107.5968 221.315329 
L 107.95392 245.013577 
L 108.31104 186.397638 
L 108.66816 234.964628 
L 109.02528 215.350974 
L 109.3824 272.112402 
L 109.73952 179.979955 
L 110.09664 240.693894 
L 110.45376 191.76588 
L 110.81088 169.645621 
L 111.168 236.782784 
L 111.52512 235.758758 
L 111.88224 231.955043 
L 112.23936 218.447942 
L 112.59648 232.074556 
L 112.9536 157.753369 
L 113.31072 219.307026 
L 113.66784 212.444433 
L 114.02496 211.235837 
L 114.7392 242.667382 
L 115.09632 227.596777 
L 115.45344 225.627132 
L 115.81056 242.563381 
L 116.16768 206.588053 
L 116.5248 197.053103 
L 116.88192 175.934091 
L 117.23904 211.350731 
L 117.59616 232.477749 
L 118.3104 138.397772 
L 118.66752 235.797982 
L 119.02464 197.886584 
L 119.38176 208.624224 
L 119.73888 254.323287 
L 120.096 204.449915 
L 120.45312 229.506832 
L 120.81024 154.002866 
L 121.16736 244.610212 
L 121.52448 264.881399 
L 121.8816 216.763233 
L 122.23872 248.721614 
L 122.59584 225.666616 
L 122.95296 165.55979 
L 123.31008 250.385299 
L 123.6672 176.801729 
L 124.02432 156.998497 
L 124.38144 237.429863 
L 124.73856 190.810255 
L 125.09568 207.95173 
L 125.4528 173.759017 
L 125.80992 220.066868 
L 126.16704 217.705199 
L 126.52416 285.408 
L 126.88128 221.872803 
L 127.2384 257.483181 
L 127.59552 244.506388 
L 127.95264 237.261029 
L 128.30976 256.60024 
L 128.66688 230.904232 
L 129.024 222.571774 
L 129.38112 209.659713 
L 130.09536 236.122361 
L 130.45248 199.741369 
L 130.8096 243.076822 
L 131.16672 148.091967 
L 131.52384 216.310327 
L 131.88096 193.992687 
L 132.23808 247.321355 
L 132.5952 228.614464 
L 132.95232 202.802974 
L 133.30944 228.951457 
L 133.66656 213.626242 
L 134.3808 230.50924 
L 134.73792 204.566409 
L 135.09504 223.119707 
L 135.45216 183.940101 
L 135.80928 187.257559 
L 136.1664 173.205206 
L 136.52352 251.170216 
L 136.88064 221.851722 
L 137.23776 259.554871 
L 137.59488 222.120751 
L 137.952 231.457872 
L 138.30912 152.397678 
L 138.66624 171.916455 
L 139.02336 247.606261 
L 139.38048 277.448309 
L 139.7376 223.11263 
L 140.09472 266.061113 
L 140.45184 224.103235 
L 140.80896 244.254674 
L 141.16608 225.991096 
L 141.5232 248.36979 
L 141.88032 234.908105 
L 142.23744 250.643807 
L 142.59456 252.331181 
L 142.95168 199.181676 
L 143.3088 193.332375 
L 143.66592 255.017899 
L 144.02304 180.870056 
L 144.38016 204.747998 
L 144.73728 216.308184 
L 145.0944 254.368301 
L 145.45152 199.596886 
L 145.80864 220.068592 
L 146.16576 207.368561 
L 146.52288 171.708292 
L 146.88 226.761292 
L 147.23712 229.332069 
L 147.59424 250.472531 
L 147.95136 182.352399 
L 148.30848 210.492092 
L 148.6656 203.550091 
L 149.02272 256.271932 
L 149.37984 197.697807 
L 149.73696 246.970128 
L 150.09408 248.015182 
L 150.4512 255.611967 
L 150.80832 233.249328 
L 151.16544 259.925867 
L 151.52256 188.883375 
L 151.87968 217.682946 
L 152.2368 226.379904 
L 152.59392 222.183481 
L 152.95104 253.882306 
L 153.30816 241.74756 
L 153.66528 236.635216 
L 154.0224 235.67782 
L 154.37952 285.408 
L 154.73664 227.137475 
L 155.09376 278.564798 
L 155.45088 222.320306 
L 155.808 253.743704 
L 156.16512 236.131131 
L 156.52224 189.914409 
L 156.87936 224.87085 
L 157.23648 188.376381 
L 157.5936 232.227879 
L 157.95072 216.06905 
L 158.66496 242.46342 
L 159.02208 243.777854 
L 159.3792 210.343982 
L 159.73632 225.845543 
L 160.09344 216.613536 
L 160.45056 269.566454 
L 160.80768 265.616398 
L 161.1648 255.860761 
L 161.52192 220.987962 
L 161.87904 213.115807 
L 162.23616 259.206897 
L 162.59328 183.563289 
L 162.9504 253.541889 
L 163.30752 157.746587 
L 163.66464 242.344541 
L 164.02176 211.319064 
L 164.37888 241.291519 
L 164.736 210.445827 
L 165.09312 247.625787 
L 165.45024 245.678989 
L 165.80736 210.664316 
L 166.16448 222.226437 
L 166.5216 205.13151 
L 166.87872 96.049591 
L 167.23584 241.423793 
L 167.59296 242.978126 
L 167.95008 229.185153 
L 168.66432 243.852091 
L 169.02144 185.590218 
L 169.37856 200.598852 
L 169.73568 268.354393 
L 170.0928 240.76873 
L 170.80704 230.194924 
L 171.16416 234.506596 
L 171.52128 221.0479 
L 171.8784 248.093773 
L 172.23552 198.008732 
L 172.59264 215.645394 
L 172.94976 241.557287 
L 173.30688 257.594479 
L 173.664 214.200493 
L 174.02112 230.146443 
L 174.37824 220.952619 
L 174.73536 248.225519 
L 175.09248 203.64573 
L 175.4496 226.763325 
L 175.80672 233.031184 
L 176.16384 226.667114 
L 176.52096 222.627998 
L 176.87808 227.026783 
L 177.2352 220.763319 
L 177.59232 248.156094 
L 177.94944 162.210302 
L 178.30656 191.336107 
L 178.66368 231.525785 
L 179.0208 206.376675 
L 179.37792 240.404165 
L 179.73504 251.630919 
L 180.09216 226.573517 
L 180.8064 256.786823 
L 181.16352 228.765573 
L 181.52064 239.74607 
L 181.87776 229.83292 
L 182.23488 184.875245 
L 182.592 194.300533 
L 182.94912 241.419502 
L 183.30624 203.485456 
L 183.66336 216.913125 
L 184.02048 220.310801 
L 184.3776 192.000114 
L 184.73472 215.469921 
L 185.09184 259.537638 
L 185.44896 226.853249 
L 185.80608 270.909829 
L 186.1632 255.174129 
L 186.52032 211.846375 
L 186.87744 249.426178 
L 187.23456 222.972723 
L 187.59168 240.380782 
L 187.9488 214.351831 
L 188.30592 277.209661 
L 188.66304 225.072748 
L 189.02016 215.764825 
L 189.37728 246.008277 
L 189.7344 236.657823 
L 190.09152 193.226493 
L 190.44864 240.829199 
L 190.80576 258.270332 
L 191.16288 251.678482 
L 191.52 235.578894 
L 191.87712 249.957522 
L 192.23424 206.930824 
L 192.59136 236.615646 
L 192.94848 228.688549 
L 193.3056 270.630002 
L 193.66272 216.411106 
L 194.01984 187.836604 
L 194.37696 240.56687 
L 194.73408 239.692785 
L 195.0912 226.695018 
L 195.44832 226.864745 
L 195.80544 234.412347 
L 196.16256 210.435811 
L 196.51968 226.363272 
L 196.8768 232.411957 
L 197.23392 225.267402 
L 197.59104 202.514797 
L 197.94816 206.357024 
L 198.30528 222.307729 
L 198.6624 245.252322 
L 199.01952 219.015171 
L 199.37664 261.138178 
L 199.73376 207.571395 
L 200.09088 226.620224 
L 200.448 223.153832 
L 200.80512 238.400119 
L 201.16224 171.677298 
L 201.51936 231.045022 
L 201.87648 221.003573 
L 202.2336 234.857306 
L 202.59072 174.905724 
L 203.30496 237.799881 
L 203.66208 209.51501 
L 204.0192 213.259641 
L 204.37632 247.408781 
L 204.73344 259.08539 
L 205.44768 214.001563 
L 205.8048 239.165684 
L 206.16192 235.391998 
L 206.51904 255.204549 
L 206.87616 239.800205 
L 207.23328 231.610526 
L 207.94752 193.099058 
L 208.66176 238.656036 
L 209.01888 186.999019 
L 209.376 218.211743 
L 209.73312 193.188175 
L 210.09024 248.695927 
L 210.44736 270.591622 
L 210.80448 219.430009 
L 211.1616 208.877013 
L 211.51872 193.489036 
L 211.87584 255.515725 
L 212.23296 192.975097 
L 212.59008 236.873133 
L 212.9472 236.239142 
L 213.30432 151.047881 
L 213.66144 227.330991 
L 214.01856 225.467852 
L 214.37568 235.996113 
L 214.7328 213.383814 
L 215.08992 229.640133 
L 215.44704 205.512848 
L 215.80416 214.117786 
L 216.16128 237.093849 
L 216.5184 217.156454 
L 216.87552 238.949873 
L 217.23264 224.100336 
L 217.58976 222.988798 
L 217.94688 236.378503 
L 218.304 244.303299 
L 218.66112 266.954025 
L 219.01824 218.757623 
L 219.37536 244.823495 
L 219.73248 163.223971 
L 220.0896 238.96202 
L 220.44672 212.94561 
L 220.80384 230.576551 
L 221.16096 217.056764 
L 221.51808 260.111573 
L 221.8752 265.053731 
L 222.23232 261.686024 
L 222.58944 264.418484 
L 222.94656 188.317536 
L 223.30368 196.893486 
L 223.6608 212.972261 
L 224.01792 208.690277 
L 224.37504 167.727853 
L 224.73216 258.199542 
L 225.08928 165.019648 
L 225.4464 230.639216 
L 225.80352 228.135487 
L 226.16064 184.822707 
L 226.51776 227.312155 
L 226.87488 225.444399 
L 227.232 212.796917 
L 227.58912 192.449613 
L 227.94624 249.662427 
L 228.30336 235.332187 
L 228.66048 236.206652 
L 229.0176 235.290827 
L 229.37472 232.005091 
L 229.73184 234.577682 
L 230.08896 216.809461 
L 230.44608 188.466908 
L 230.8032 255.527912 
L 231.51744 209.114191 
L 231.87456 222.342903 
L 232.23168 194.545361 
L 232.5888 237.884289 
L 232.94592 156.684125 
L 233.30304 225.274768 
L 233.66016 182.839839 
L 234.01728 231.915731 
L 234.3744 179.432293 
L 234.73152 147.786911 
L 235.08864 275.540467 
L 235.44576 227.960308 
L 235.80288 236.99075 
L 236.16 241.795088 
L 236.51712 204.948554 
L 236.87424 245.192848 
L 237.23136 254.806558 
L 237.58848 222.271041 
L 238.30272 254.949312 
L 238.65984 197.976473 
L 239.01696 243.993979 
L 239.7312 212.507304 
L 240.08832 215.684501 
L 240.44544 215.686857 
L 240.80256 258.842583 
L 241.15968 212.696176 
L 241.5168 254.028082 
L 242.23104 213.64003 
L 242.58816 266.801054 
L 242.94528 262.969348 
L 243.3024 195.657666 
L 243.65952 219.267469 
L 244.01664 227.29549 
L 244.37376 229.667103 
L 244.73088 256.05309 
L 245.088 229.433288 
L 245.44512 176.971816 
L 245.80224 251.590894 
L 246.15936 220.19896 
L 246.51648 169.745363 
L 246.8736 245.431958 
L 247.23072 193.311832 
L 247.58784 208.134956 
L 247.94496 200.327414 
L 248.30208 247.072173 
L 248.6592 250.409113 
L 249.01632 217.683784 
L 249.37344 235.79767 
L 249.73056 185.357765 
L 250.08768 230.148109 
L 250.4448 251.250797 
L 250.80192 226.914756 
L 251.51616 238.244498 
L 251.87328 242.510937 
L 252.2304 213.01147 
L 252.58752 225.820873 
L 252.94464 63.648 
L 253.30176 233.479346 
L 253.65888 196.175515 
L 254.37312 239.289218 
L 254.73024 209.496947 
L 255.08736 228.665024 
L 255.44448 218.403489 
L 255.8016 214.933345 
L 256.15872 215.835622 
L 256.51584 201.482007 
L 257.23008 250.359643 
L 257.94432 220.662824 
L 258.30144 194.211516 
L 258.65856 231.485099 
L 259.01568 206.773135 
L 259.72992 235.576359 
L 260.08704 165.179573 
L 260.44416 281.710419 
L 260.80128 223.629339 
L 261.1584 246.160962 
L 261.51552 234.126471 
L 261.87264 217.430394 
L 262.22976 247.286241 
L 262.58688 258.69375 
L 262.944 218.961893 
L 263.30112 223.587942 
L 263.65824 220.537457 
L 264.01536 209.046047 
L 264.37248 211.16771 
L 264.7296 204.698124 
L 265.08672 245.111307 
L 265.44384 208.943714 
L 266.15808 265.696392 
L 266.5152 276.494703 
L 267.22944 207.027215 
L 267.58656 249.813274 
L 267.94368 219.82639 
L 268.65792 267.467278 
L 269.01504 254.224292 
L 269.37216 215.129955 
L 269.72928 242.32203 
L 270.44352 237.607316 
L 270.80064 206.572762 
L 271.15776 236.834158 
L 271.51488 250.643087 
L 271.872 204.904165 
L 272.22912 251.389796 
L 272.58624 223.196196 
L 272.94336 212.130422 
L 273.30048 208.553509 
L 273.6576 232.356149 
L 274.01472 215.617313 
L 274.37184 217.014936 
L 274.72896 204.064886 
L 275.08608 226.395792 
L 275.4432 182.648988 
L 275.80032 234.619377 
L 276.15744 246.674821 
L 276.51456 197.840596 
L 276.87168 277.156923 
L 277.2288 184.857768 
L 277.58592 204.978714 
L 277.94304 234.101137 
L 278.30016 231.503397 
L 278.65728 181.779339 
L 279.0144 205.112218 
L 279.37152 242.017857 
L 279.72864 227.342378 
L 280.08576 202.976599 
L 280.44288 226.582739 
L 280.8 285.408 
L 281.15712 209.138249 
L 281.51424 275.252828 
L 281.87136 230.185432 
L 282.22848 232.944246 
L 282.5856 264.160997 
L 282.94272 220.335339 
L 283.29984 217.467718 
L 283.65696 217.023473 
L 284.01408 193.131066 
L 284.3712 230.86055 
L 284.72832 211.602799 
L 285.08544 220.155235 
L 285.44256 203.410204 
L 285.79968 226.169759 
L 286.1568 213.015485 
L 286.51392 215.466847 
L 286.87104 184.610476 
L 287.22816 223.372739 
L 287.58528 223.80088 
L 287.9424 181.032054 
L 288.29952 177.631497 
L 288.65664 213.922954 
L 289.01376 227.620846 
L 289.37088 232.389885 
L 289.728 249.239577 
L 290.08512 246.5051 
L 290.44224 265.107231 
L 290.79936 237.532778 
L 291.15648 242.247422 
L 291.5136 226.351787 
L 291.87072 198.781172 
L 292.22784 122.704485 
L 292.58496 267.702904 
L 292.94208 219.545484 
L 293.2992 271.65818 
L 293.65632 208.83814 
L 294.01344 244.251638 
L 294.37056 219.099537 
L 294.72768 207.675527 
L 295.0848 240.215353 
L 295.44192 226.44171 
L 295.79904 241.149168 
L 296.15616 285.408 
L 296.8704 185.876487 
L 297.22752 181.033399 
L 297.58464 236.494539 
L 297.94176 233.945794 
L 298.29888 213.79539 
L 298.656 264.017012 
L 299.01312 253.475908 
L 299.37024 209.695458 
L 299.72736 217.076731 
L 300.08448 244.968219 
L 300.4416 201.171927 
L 300.79872 194.288413 
L 301.15584 247.569281 
L 301.51296 237.471387 
L 301.87008 209.155185 
L 302.58432 258.248262 
L 302.94144 194.955475 
L 303.29856 201.607003 
L 303.65568 201.259069 
L 304.0128 260.115164 
L 304.36992 199.030579 
L 304.72704 201.704011 
L 305.08416 236.17308 
L 305.44128 248.176859 
L 305.7984 285.408 
L 306.51264 197.805656 
L 306.86976 278.815942 
L 307.22688 251.451508 
L 307.584 202.451403 
L 307.94112 188.546373 
L 308.29824 164.070417 
L 308.65536 182.113319 
L 309.01248 239.527512 
L 309.3696 216.084942 
L 309.72672 243.065458 
L 310.08384 231.298301 
L 310.44096 233.749564 
L 310.79808 252.976239 
L 311.1552 184.687608 
L 311.51232 270.335425 
L 311.86944 218.678628 
L 312.22656 234.640405 
L 312.9408 192.911775 
L 313.65504 235.009247 
L 314.01216 221.737889 
L 314.36928 184.773916 
L 314.7264 228.818194 
L 315.08352 229.561712 
L 315.44064 250.573487 
L 315.79776 184.819061 
L 316.15488 213.177324 
L 316.512 256.861051 
L 316.86912 234.220243 
L 317.22624 227.191577 
L 317.58336 241.906615 
L 317.94048 250.02936 
L 318.2976 233.944252 
L 318.65472 246.586739 
L 319.01184 207.994266 
L 319.36896 237.677256 
L 319.72608 224.375102 
L 320.0832 229.687194 
L 320.44032 180.910139 
L 320.79744 242.989458 
L 321.15456 247.137116 
L 321.51168 231.2383 
L 321.8688 190.47903 
L 322.22592 232.46868 
L 322.58304 214.751017 
L 322.94016 247.760075 
L 323.29728 238.961336 
L 323.6544 204.697809 
L 324.01152 274.333243 
L 324.36864 232.821076 
L 324.72576 231.880431 
L 325.08288 214.615222 
L 325.44 206.063415 
L 325.79712 217.191756 
L 326.15424 190.89187 
L 326.51136 261.678026 
L 326.86848 216.261516 
L 327.2256 257.241607 
L 327.58272 231.201039 
L 327.93984 234.294952 
L 328.29696 241.502999 
L 328.65408 159.842289 
L 329.0112 240.547916 
L 329.36832 254.333426 
L 329.72544 161.931649 
L 330.08256 209.492107 
L 330.43968 207.204271 
L 330.7968 229.852469 
L 331.15392 221.185502 
L 331.51104 235.133858 
L 331.86816 271.732737 
L 332.22528 196.954486 
L 332.5824 197.811525 
L 332.93952 282.148872 
L 333.29664 229.036223 
L 333.65376 252.399992 
L 334.01088 196.794218 
L 334.368 236.078077 
L 334.72512 185.225398 
L 335.08224 227.7912 
L 335.43936 180.259621 
L 335.79648 197.751244 
L 336.1536 198.289605 
L 336.51072 232.650587 
L 336.86784 211.997051 
L 337.22496 242.181244 
L 337.58208 212.011694 
L 337.9392 197.640246 
L 338.29632 233.862963 
L 338.65344 230.709167 
L 339.01056 221.176886 
L 339.36768 241.275328 
L 339.7248 252.51226 
L 340.08192 193.410412 
L 340.43904 211.616748 
L 340.79616 196.751395 
L 341.15328 188.06125 
L 341.5104 197.513046 
L 341.86752 235.690316 
L 342.22464 203.007925 
L 342.58176 201.782291 
L 342.93888 260.757531 
L 343.296 244.211462 
L 343.65312 219.021486 
L 344.01024 247.409026 
L 344.36736 247.01602 
L 344.72448 198.861401 
L 345.0816 199.211668 
L 345.43872 180.895502 
L 345.79584 199.287824 
L 346.15296 203.908103 
L 346.51008 258.530855 
L 346.8672 257.078013 
L 347.22432 233.285393 
L 347.58144 183.943418 
L 347.93856 214.902495 
L 348.29568 231.580338 
L 348.6528 205.606455 
L 349.00992 219.960262 
L 349.36704 221.025803 
L 349.72416 235.186442 
L 350.08128 216.479635 
L 350.79552 262.893369 
L 351.50976 182.058036 
L 351.86688 218.757325 
L 352.224 229.129442 
L 352.58112 226.31489 
L 352.93824 193.41791 
L 353.29536 122.106663 
L 353.65248 244.024062 
L 354.0096 194.358413 
L 354.36672 173.305272 
L 354.72384 248.942705 
L 355.08096 225.887036 
L 355.43808 210.59331 
L 356.15232 247.875667 
L 356.50944 261.459667 
L 356.86656 228.011982 
L 357.22368 175.929511 
L 357.5808 231.095556 
L 357.93792 216.037417 
L 358.29504 220.548369 
L 358.65216 261.078355 
L 359.00928 180.003099 
L 359.72352 233.521146 
L 360.08064 97.044001 
L 360.43776 229.706202 
L 360.79488 217.759267 
L 361.152 263.155711 
L 361.50912 158.128135 
L 361.86624 156.347332 
L 362.22336 206.5803 
L 362.58048 205.415984 
L 363.29472 233.662876 
L 363.65184 248.460992 
L 364.36608 201.775354 
L 364.7232 252.082634 
L 365.08032 161.780072 
L 365.43744 219.855344 
L 365.79456 200.392178 
L 366.15168 249.771514 
L 366.5088 234.142152 
L 366.86592 242.677256 
L 367.22304 285.408 
L 367.58016 227.540445 
L 367.93728 243.04052 
L 368.2944 232.725897 
L 368.65152 218.686884 
L 369.00864 198.324039 
L 369.36576 205.775199 
L 369.72288 241.416055 
L 370.08 185.214218 
L 370.43712 224.478313 
L 370.79424 237.174636 
L 371.15136 214.684751 
L 371.50848 238.880282 
L 371.8656 237.541012 
L 372.22272 209.318493 
L 372.93696 227.446076 
L 373.29408 213.873216 
L 373.6512 248.082065 
L 374.00832 229.92502 
L 374.36544 195.032762 
L 374.72256 230.083727 
L 375.07968 249.590542 
L 375.4368 199.282931 
L 375.79392 262.917451 
L 376.15104 207.14768 
L 376.50816 221.374636 
L 377.2224 215.67007 
L 377.57952 186.254364 
L 377.93664 211.299917 
L 378.29376 254.445765 
L 378.65088 213.772457 
L 379.008 217.592335 
L 379.36512 218.635989 
L 380.07936 200.978765 
L 380.43648 244.360073 
L 380.7936 138.170718 
L 381.15072 272.086772 
L 381.50784 245.993459 
L 381.86496 198.669081 
L 382.22208 229.796142 
L 382.93632 222.334359 
L 383.29344 196.478612 
L 383.65056 231.138554 
L 384.00768 240.662749 
L 384.3648 162.122089 
L 384.72192 229.041405 
L 385.07904 217.652277 
L 385.43616 273.91835 
L 385.79328 224.650556 
L 386.1504 249.072202 
L 386.50752 218.828941 
L 386.86464 212.500653 
L 387.22176 232.412225 
L 387.57888 222.840036 
L 387.936 198.017707 
L 388.29312 162.782255 
L 388.65024 219.451119 
L 389.00736 234.639535 
L 389.36448 189.83937 
L 389.7216 243.732365 
L 390.07872 214.558239 
L 390.43584 256.637675 
L 390.79296 163.68457 
L 391.15008 268.65209 
L 391.86432 202.261298 
L 392.22144 199.344911 
L 392.57856 241.744087 
L 392.93568 159.470451 
L 393.64992 234.534445 
L 394.00704 202.733704 
L 394.36416 183.841189 
L 394.72128 209.230607 
L 395.0784 247.892308 
L 395.43552 216.640097 
L 395.79264 223.746646 
L 396.14976 219.118625 
L 396.50688 243.914802 
L 396.864 206.389597 
L 397.22112 202.276447 
L 397.57824 246.36842 
L 397.93536 225.132179 
L 398.29248 144.436725 
L 398.6496 262.760942 
L 399.00672 237.132487 
L 399.36384 175.796493 
L 399.72096 274.462735 
L 400.07808 184.672 
L 400.4352 211.45057 
L 400.79232 222.402858 
L 401.14944 216.07867 
L 401.50656 237.563303 
L 401.86368 204.458555 
L 402.2208 238.959504 
L 402.57792 226.018971 
L 402.93504 235.99524 
L 403.29216 252.180857 
L 403.64928 285.408 
L 404.0064 246.095221 
L 404.36352 184.756816 
L 404.72064 258.975596 
L 405.07776 272.63229 
L 405.43488 208.428122 
L 406.14912 244.820823 
L 406.50624 222.090991 
L 407.22048 247.082122 
L 407.5776 242.418517 
L 407.93472 219.682523 
L 408.29184 183.057914 
L 408.64896 230.175049 
L 409.00608 216.694448 
L 409.3632 231.669913 
L 409.72032 221.337606 
L 410.07744 207.634138 
L 410.43456 231.100077 
L 410.79168 244.102707 
L 411.1488 224.310179 
L 411.50592 216.73168 
L 411.86304 239.493586 
L 412.22016 248.954657 
L 412.57728 213.937353 
L 412.9344 214.956142 
L 413.29152 176.084625 
L 413.64864 254.747542 
L 414.00576 185.563912 
L 414.36288 207.734906 
L 414.36288 207.734906 
" clip-path="url(#p64119ef79d)" style="fill: none; stroke: #0000ff; stroke-width: 1.5; stroke-linecap: square"/>
   </g>
   <g id="patch_3">
    <path d="M 57.6 307.584 
L 57.6 41.472 
" style="fill: none; stroke: #000000; stroke-width: 0.8; stroke-linejoin: miter; stroke-linecap: square"/>
   </g>
   <g id="patch_4">
    <path d="M 414.72 307.584 
L 414.72 41.472 
" style="fill: none; stroke: #000000; stroke-width: 0.8; stroke-linejoin: miter; stroke-linecap: square"/>
   </g>
   <g id="patch_5">
    <path d="M 57.6 307.584 
L 414.72 307.584 
" style="fill: none; stroke: #000000; stroke-width: 0.8; stroke-linejoin: miter; stroke-linecap: square"/>
   </g>
   <g id="patch_6">
    <path d="M 57.6 41.472 
L 414.72 41.472 
" style="fill: none; stroke: #000000; stroke-width: 0.8; stroke-linejoin: miter; stroke-linecap: square"/>
   </g>
   <g id="legend_1">
    <g id="patch_7">
     <path d="M 202.8825 77.757 
L 403.52 77.757 
Q 406.72 77.757 406.72 74.557 
L 406.72 52.672 
Q 406.72 49.472 403.52 49.472 
L 202.8825 49.472 
Q 199.6825 49.472 199.6825 52.672 
L 199.6825 74.557 
Q 199.6825 77.757 202.8825 77.757 
z
" style="fill: #ffffff; opacity: 0.8; stroke: #cccccc; stroke-linejoin: miter"/>
    </g>
    <g id="line2d_24">
     <path d="M 206.0825 62.4295 
L 222.0825 62.4295 
L 238.0825 62.4295 
" style="fill: none; stroke: #0000ff; stroke-width: 1.5; stroke-linecap: square"/>
    </g>
    <g id="text_14">
     <!-- cumulative reward -->
     <g transform="translate(250.8825 68.0295)scale(0.16 -0.16)">
      <defs>
       <path id="DejaVuSans-63" d="M 3122 3366 
L 3122 2828 
Q 2878 2963 2633 3030 
Q 2388 3097 2138 3097 
Q 1578 3097 1268 2742 
Q 959 2388 959 1747 
Q 959 1106 1268 751 
Q 1578 397 2138 397 
Q 2388 397 2633 464 
Q 2878 531 3122 666 
L 3122 134 
Q 2881 22 2623 -34 
Q 2366 -91 2075 -91 
Q 1284 -91 818 406 
Q 353 903 353 1747 
Q 353 2603 823 3093 
Q 1294 3584 2113 3584 
Q 2378 3584 2631 3529 
Q 2884 3475 3122 3366 
z
" transform="scale(0.015625)"/>
      </defs>
      <use xlink:href="#DejaVuSans-63"/>
      <use xlink:href="#DejaVuSans-75" x="54.980469"/>
      <use xlink:href="#DejaVuSans-6d" x="118.359375"/>
      <use xlink:href="#DejaVuSans-75" x="215.771484"/>
      <use xlink:href="#DejaVuSans-6c" x="279.150391"/>
      <use xlink:href="#DejaVuSans-61" x="306.933594"/>
      <use xlink:href="#DejaVuSans-74" x="368.212891"/>
      <use xlink:href="#DejaVuSans-69" x="407.421875"/>
      <use xlink:href="#DejaVuSans-76" x="435.205078"/>
      <use xlink:href="#DejaVuSans-65" x="494.384766"/>
      <use xlink:href="#DejaVuSans-20" x="555.908203"/>
      <use xlink:href="#DejaVuSans-72" x="587.695312"/>
      <use xlink:href="#DejaVuSans-65" x="626.558594"/>
      <use xlink:href="#DejaVuSans-77" x="688.082031"/>
      <use xlink:href="#DejaVuSans-61" x="769.869141"/>
      <use xlink:href="#DejaVuSans-72" x="831.148438"/>
      <use xlink:href="#DejaVuSans-64" x="870.511719"/>
     </g>
    </g>
   </g>
  </g>
 </g>
 <defs>
  <clipPath id="p64119ef79d">
   <rect x="57.6" y="41.472" width="357.12" height="266.112"/>
  </clipPath>
 </defs>
</svg>
