<?xml version="1.0" encoding="utf-8" standalone="no"?>
<!DOCTYPE svg PUBLIC "-//W3C//DTD SVG 1.1//EN"
  "http://www.w3.org/Graphics/SVG/1.1/DTD/svg11.dtd">
<svg height="345.6pt" version="1.1" viewBox="0 0 460.8 345.6" width="460.8pt" xmlns="http://www.w3.org/2000/svg" xmlns:xlink="http://www.w3.org/1999/xlink">
 <metadata>
  <rdf:RDF xmlns:cc="http://creativecommons.org/ns#" xmlns:dc="http://purl.org/dc/elements/1.1/" xmlns:rdf="http://www.w3.org/1999/02/22-rdf-syntax-ns#">
   <cc:Work>
    <dc:type rdf:resource="http://purl.org/dc/dcmitype/StillImage"/>
    <dc:date>2021-11-02T13:46:37.625291</dc:date>
    <dc:description>{"agent.algorithm": "RayProximalPolicyOptimization", "agent.algorithm.render_env": false, "agent.algorithm.num_workers": 0, "agent.algorithm.batch_mode": "complete_episodes", "agent.algorithm.lr": 1e-05, "agent.algorithm.train_batch_size": 200, "agent.algorithm.optimizer": "Adam", "agent.algorithm.vf_clip_param": 50, "agent.algorithm.model": {"fcnet_activation": "relu", "fcnet_hiddens": [50, 50]}, "env.env_class": "SchedulerPolicyRayEnvironment", "env.env_config": {"solver_driver": "CMAdriver", "solver_driver_args": [10, 10, 1, 1.63], "maximize": false, "steps": 50, "state_metrics_names": ["DifferenceOfBest", "SolverStateHistory", "SolverState"], "state_metrics_config": [[40, false, 1, true, false], [{"step_size": {"max": 3, "min": 0}}, 40], [{"ps": {"max": 10, "min": -10}}]], "reward_metric": "Best", "reward_metric_config": [false, true], "memes_no": 1, "action_space_config": {"step_size": {"max": 3, "min": 0.05}}}}</dc:description>
    <dc:format>image/svg+xml</dc:format>
    <dc:creator>
     <cc:Agent>
      <dc:title>Matplotlib v3.4.2, https://matplotlib.org/</dc:title>
     </cc:Agent>
    </dc:creator>
   </cc:Work>
  </rdf:RDF>
 </metadata>
 <defs>
  <style type="text/css">*{stroke-linecap:butt;stroke-linejoin:round;}</style>
 </defs>
 <g id="figure_1">
  <g id="patch_1">
   <path d="M 0 345.6 
L 460.8 345.6 
L 460.8 0 
L 0 0 
z
" style="fill:#ffffff;"/>
  </g>
  <g id="axes_1">
   <g id="patch_2">
    <path d="M 57.6 307.584 
L 414.72 307.584 
L 414.72 41.472 
L 57.6 41.472 
z
" style="fill:#ffffff;"/>
   </g>
   <g id="matplotlib.axis_1">
    <g id="xtick_1">
     <g id="line2d_1">
      <path clip-path="url(#pdaeb384eac)" d="M 57.6 307.584 
L 57.6 41.472 
" style="fill:none;stroke:#b0b0b0;stroke-linecap:square;stroke-width:0.8;"/>
     </g>
     <g id="line2d_2">
      <defs>
       <path d="M 0 0 
L 0 3.5 
" id="madd8ad3f1f" style="stroke:#000000;stroke-width:0.8;"/>
      </defs>
      <g>
       <use style="stroke:#000000;stroke-width:0.8;" x="57.6" xlink:href="#madd8ad3f1f" y="307.584"/>
      </g>
     </g>
     <g id="text_1">
      <!-- 0 -->
      <g transform="translate(52.51 326.7415)scale(0.16 -0.16)">
       <defs>
        <path d="M 2034 4250 
Q 1547 4250 1301 3770 
Q 1056 3291 1056 2328 
Q 1056 1369 1301 889 
Q 1547 409 2034 409 
Q 2525 409 2770 889 
Q 3016 1369 3016 2328 
Q 3016 3291 2770 3770 
Q 2525 4250 2034 4250 
z
M 2034 4750 
Q 2819 4750 3233 4129 
Q 3647 3509 3647 2328 
Q 3647 1150 3233 529 
Q 2819 -91 2034 -91 
Q 1250 -91 836 529 
Q 422 1150 422 2328 
Q 422 3509 836 4129 
Q 1250 4750 2034 4750 
z
" id="DejaVuSans-30" transform="scale(0.015625)"/>
       </defs>
       <use xlink:href="#DejaVuSans-30"/>
      </g>
     </g>
    </g>
    <g id="xtick_2">
     <g id="line2d_3">
      <path clip-path="url(#pdaeb384eac)" d="M 146.88 307.584 
L 146.88 41.472 
" style="fill:none;stroke:#b0b0b0;stroke-linecap:square;stroke-width:0.8;"/>
     </g>
     <g id="line2d_4">
      <g>
       <use style="stroke:#000000;stroke-width:0.8;" x="146.88" xlink:href="#madd8ad3f1f" y="307.584"/>
      </g>
     </g>
     <g id="text_2">
      <!-- 1000 -->
      <g transform="translate(126.52 326.7415)scale(0.16 -0.16)">
       <defs>
        <path d="M 794 531 
L 1825 531 
L 1825 4091 
L 703 3866 
L 703 4441 
L 1819 4666 
L 2450 4666 
L 2450 531 
L 3481 531 
L 3481 0 
L 794 0 
L 794 531 
z
" id="DejaVuSans-31" transform="scale(0.015625)"/>
       </defs>
       <use xlink:href="#DejaVuSans-31"/>
       <use x="63.623047" xlink:href="#DejaVuSans-30"/>
       <use x="127.246094" xlink:href="#DejaVuSans-30"/>
       <use x="190.869141" xlink:href="#DejaVuSans-30"/>
      </g>
     </g>
    </g>
    <g id="xtick_3">
     <g id="line2d_5">
      <path clip-path="url(#pdaeb384eac)" d="M 236.16 307.584 
L 236.16 41.472 
" style="fill:none;stroke:#b0b0b0;stroke-linecap:square;stroke-width:0.8;"/>
     </g>
     <g id="line2d_6">
      <g>
       <use style="stroke:#000000;stroke-width:0.8;" x="236.16" xlink:href="#madd8ad3f1f" y="307.584"/>
      </g>
     </g>
     <g id="text_3">
      <!-- 2000 -->
      <g transform="translate(215.8 326.7415)scale(0.16 -0.16)">
       <defs>
        <path d="M 1228 531 
L 3431 531 
L 3431 0 
L 469 0 
L 469 531 
Q 828 903 1448 1529 
Q 2069 2156 2228 2338 
Q 2531 2678 2651 2914 
Q 2772 3150 2772 3378 
Q 2772 3750 2511 3984 
Q 2250 4219 1831 4219 
Q 1534 4219 1204 4116 
Q 875 4013 500 3803 
L 500 4441 
Q 881 4594 1212 4672 
Q 1544 4750 1819 4750 
Q 2544 4750 2975 4387 
Q 3406 4025 3406 3419 
Q 3406 3131 3298 2873 
Q 3191 2616 2906 2266 
Q 2828 2175 2409 1742 
Q 1991 1309 1228 531 
z
" id="DejaVuSans-32" transform="scale(0.015625)"/>
       </defs>
       <use xlink:href="#DejaVuSans-32"/>
       <use x="63.623047" xlink:href="#DejaVuSans-30"/>
       <use x="127.246094" xlink:href="#DejaVuSans-30"/>
       <use x="190.869141" xlink:href="#DejaVuSans-30"/>
      </g>
     </g>
    </g>
    <g id="xtick_4">
     <g id="line2d_7">
      <path clip-path="url(#pdaeb384eac)" d="M 325.44 307.584 
L 325.44 41.472 
" style="fill:none;stroke:#b0b0b0;stroke-linecap:square;stroke-width:0.8;"/>
     </g>
     <g id="line2d_8">
      <g>
       <use style="stroke:#000000;stroke-width:0.8;" x="325.44" xlink:href="#madd8ad3f1f" y="307.584"/>
      </g>
     </g>
     <g id="text_4">
      <!-- 3000 -->
      <g transform="translate(305.08 326.7415)scale(0.16 -0.16)">
       <defs>
        <path d="M 2597 2516 
Q 3050 2419 3304 2112 
Q 3559 1806 3559 1356 
Q 3559 666 3084 287 
Q 2609 -91 1734 -91 
Q 1441 -91 1130 -33 
Q 819 25 488 141 
L 488 750 
Q 750 597 1062 519 
Q 1375 441 1716 441 
Q 2309 441 2620 675 
Q 2931 909 2931 1356 
Q 2931 1769 2642 2001 
Q 2353 2234 1838 2234 
L 1294 2234 
L 1294 2753 
L 1863 2753 
Q 2328 2753 2575 2939 
Q 2822 3125 2822 3475 
Q 2822 3834 2567 4026 
Q 2313 4219 1838 4219 
Q 1578 4219 1281 4162 
Q 984 4106 628 3988 
L 628 4550 
Q 988 4650 1302 4700 
Q 1616 4750 1894 4750 
Q 2613 4750 3031 4423 
Q 3450 4097 3450 3541 
Q 3450 3153 3228 2886 
Q 3006 2619 2597 2516 
z
" id="DejaVuSans-33" transform="scale(0.015625)"/>
       </defs>
       <use xlink:href="#DejaVuSans-33"/>
       <use x="63.623047" xlink:href="#DejaVuSans-30"/>
       <use x="127.246094" xlink:href="#DejaVuSans-30"/>
       <use x="190.869141" xlink:href="#DejaVuSans-30"/>
      </g>
     </g>
    </g>
    <g id="xtick_5">
     <g id="line2d_9">
      <path clip-path="url(#pdaeb384eac)" d="M 414.72 307.584 
L 414.72 41.472 
" style="fill:none;stroke:#b0b0b0;stroke-linecap:square;stroke-width:0.8;"/>
     </g>
     <g id="line2d_10">
      <g>
       <use style="stroke:#000000;stroke-width:0.8;" x="414.72" xlink:href="#madd8ad3f1f" y="307.584"/>
      </g>
     </g>
     <g id="text_5">
      <!-- 4000 -->
      <g transform="translate(394.36 326.7415)scale(0.16 -0.16)">
       <defs>
        <path d="M 2419 4116 
L 825 1625 
L 2419 1625 
L 2419 4116 
z
M 2253 4666 
L 3047 4666 
L 3047 1625 
L 3713 1625 
L 3713 1100 
L 3047 1100 
L 3047 0 
L 2419 0 
L 2419 1100 
L 313 1100 
L 313 1709 
L 2253 4666 
z
" id="DejaVuSans-34" transform="scale(0.015625)"/>
       </defs>
       <use xlink:href="#DejaVuSans-34"/>
       <use x="63.623047" xlink:href="#DejaVuSans-30"/>
       <use x="127.246094" xlink:href="#DejaVuSans-30"/>
       <use x="190.869141" xlink:href="#DejaVuSans-30"/>
      </g>
     </g>
    </g>
    <g id="text_6">
     <!-- Episodes -->
     <g transform="translate(200.5725 346.2265)scale(0.16 -0.16)">
      <defs>
       <path d="M 628 4666 
L 3578 4666 
L 3578 4134 
L 1259 4134 
L 1259 2753 
L 3481 2753 
L 3481 2222 
L 1259 2222 
L 1259 531 
L 3634 531 
L 3634 0 
L 628 0 
L 628 4666 
z
" id="DejaVuSans-45" transform="scale(0.015625)"/>
       <path d="M 1159 525 
L 1159 -1331 
L 581 -1331 
L 581 3500 
L 1159 3500 
L 1159 2969 
Q 1341 3281 1617 3432 
Q 1894 3584 2278 3584 
Q 2916 3584 3314 3078 
Q 3713 2572 3713 1747 
Q 3713 922 3314 415 
Q 2916 -91 2278 -91 
Q 1894 -91 1617 61 
Q 1341 213 1159 525 
z
M 3116 1747 
Q 3116 2381 2855 2742 
Q 2594 3103 2138 3103 
Q 1681 3103 1420 2742 
Q 1159 2381 1159 1747 
Q 1159 1113 1420 752 
Q 1681 391 2138 391 
Q 2594 391 2855 752 
Q 3116 1113 3116 1747 
z
" id="DejaVuSans-70" transform="scale(0.015625)"/>
       <path d="M 603 3500 
L 1178 3500 
L 1178 0 
L 603 0 
L 603 3500 
z
M 603 4863 
L 1178 4863 
L 1178 4134 
L 603 4134 
L 603 4863 
z
" id="DejaVuSans-69" transform="scale(0.015625)"/>
       <path d="M 2834 3397 
L 2834 2853 
Q 2591 2978 2328 3040 
Q 2066 3103 1784 3103 
Q 1356 3103 1142 2972 
Q 928 2841 928 2578 
Q 928 2378 1081 2264 
Q 1234 2150 1697 2047 
L 1894 2003 
Q 2506 1872 2764 1633 
Q 3022 1394 3022 966 
Q 3022 478 2636 193 
Q 2250 -91 1575 -91 
Q 1294 -91 989 -36 
Q 684 19 347 128 
L 347 722 
Q 666 556 975 473 
Q 1284 391 1588 391 
Q 1994 391 2212 530 
Q 2431 669 2431 922 
Q 2431 1156 2273 1281 
Q 2116 1406 1581 1522 
L 1381 1569 
Q 847 1681 609 1914 
Q 372 2147 372 2553 
Q 372 3047 722 3315 
Q 1072 3584 1716 3584 
Q 2034 3584 2315 3537 
Q 2597 3491 2834 3397 
z
" id="DejaVuSans-73" transform="scale(0.015625)"/>
       <path d="M 1959 3097 
Q 1497 3097 1228 2736 
Q 959 2375 959 1747 
Q 959 1119 1226 758 
Q 1494 397 1959 397 
Q 2419 397 2687 759 
Q 2956 1122 2956 1747 
Q 2956 2369 2687 2733 
Q 2419 3097 1959 3097 
z
M 1959 3584 
Q 2709 3584 3137 3096 
Q 3566 2609 3566 1747 
Q 3566 888 3137 398 
Q 2709 -91 1959 -91 
Q 1206 -91 779 398 
Q 353 888 353 1747 
Q 353 2609 779 3096 
Q 1206 3584 1959 3584 
z
" id="DejaVuSans-6f" transform="scale(0.015625)"/>
       <path d="M 2906 2969 
L 2906 4863 
L 3481 4863 
L 3481 0 
L 2906 0 
L 2906 525 
Q 2725 213 2448 61 
Q 2172 -91 1784 -91 
Q 1150 -91 751 415 
Q 353 922 353 1747 
Q 353 2572 751 3078 
Q 1150 3584 1784 3584 
Q 2172 3584 2448 3432 
Q 2725 3281 2906 2969 
z
M 947 1747 
Q 947 1113 1208 752 
Q 1469 391 1925 391 
Q 2381 391 2643 752 
Q 2906 1113 2906 1747 
Q 2906 2381 2643 2742 
Q 2381 3103 1925 3103 
Q 1469 3103 1208 2742 
Q 947 2381 947 1747 
z
" id="DejaVuSans-64" transform="scale(0.015625)"/>
       <path d="M 3597 1894 
L 3597 1613 
L 953 1613 
Q 991 1019 1311 708 
Q 1631 397 2203 397 
Q 2534 397 2845 478 
Q 3156 559 3463 722 
L 3463 178 
Q 3153 47 2828 -22 
Q 2503 -91 2169 -91 
Q 1331 -91 842 396 
Q 353 884 353 1716 
Q 353 2575 817 3079 
Q 1281 3584 2069 3584 
Q 2775 3584 3186 3129 
Q 3597 2675 3597 1894 
z
M 3022 2063 
Q 3016 2534 2758 2815 
Q 2500 3097 2075 3097 
Q 1594 3097 1305 2825 
Q 1016 2553 972 2059 
L 3022 2063 
z
" id="DejaVuSans-65" transform="scale(0.015625)"/>
      </defs>
      <use xlink:href="#DejaVuSans-45"/>
      <use x="63.183594" xlink:href="#DejaVuSans-70"/>
      <use x="126.660156" xlink:href="#DejaVuSans-69"/>
      <use x="154.443359" xlink:href="#DejaVuSans-73"/>
      <use x="206.542969" xlink:href="#DejaVuSans-6f"/>
      <use x="267.724609" xlink:href="#DejaVuSans-64"/>
      <use x="331.201172" xlink:href="#DejaVuSans-65"/>
      <use x="392.724609" xlink:href="#DejaVuSans-73"/>
     </g>
    </g>
   </g>
   <g id="matplotlib.axis_2">
    <g id="ytick_1">
     <g id="line2d_11">
      <path clip-path="url(#pdaeb384eac)" d="M 57.6 271.778025 
L 414.72 271.778025 
" style="fill:none;stroke:#b0b0b0;stroke-linecap:square;stroke-width:0.8;"/>
     </g>
     <g id="line2d_12">
      <defs>
       <path d="M 0 0 
L -3.5 0 
" id="m188085c6b7" style="stroke:#000000;stroke-width:0.8;"/>
      </defs>
      <g>
       <use style="stroke:#000000;stroke-width:0.8;" x="57.6" xlink:href="#m188085c6b7" y="271.778025"/>
      </g>
     </g>
     <g id="text_7">
      <!-- 3250 -->
      <g transform="translate(9.88 277.856775)scale(0.16 -0.16)">
       <defs>
        <path d="M 691 4666 
L 3169 4666 
L 3169 4134 
L 1269 4134 
L 1269 2991 
Q 1406 3038 1543 3061 
Q 1681 3084 1819 3084 
Q 2600 3084 3056 2656 
Q 3513 2228 3513 1497 
Q 3513 744 3044 326 
Q 2575 -91 1722 -91 
Q 1428 -91 1123 -41 
Q 819 9 494 109 
L 494 744 
Q 775 591 1075 516 
Q 1375 441 1709 441 
Q 2250 441 2565 725 
Q 2881 1009 2881 1497 
Q 2881 1984 2565 2268 
Q 2250 2553 1709 2553 
Q 1456 2553 1204 2497 
Q 953 2441 691 2322 
L 691 4666 
z
" id="DejaVuSans-35" transform="scale(0.015625)"/>
       </defs>
       <use xlink:href="#DejaVuSans-33"/>
       <use x="63.623047" xlink:href="#DejaVuSans-32"/>
       <use x="127.246094" xlink:href="#DejaVuSans-35"/>
       <use x="190.869141" xlink:href="#DejaVuSans-30"/>
      </g>
     </g>
    </g>
    <g id="ytick_2">
     <g id="line2d_13">
      <path clip-path="url(#pdaeb384eac)" d="M 57.6 232.521853 
L 414.72 232.521853 
" style="fill:none;stroke:#b0b0b0;stroke-linecap:square;stroke-width:0.8;"/>
     </g>
     <g id="line2d_14">
      <g>
       <use style="stroke:#000000;stroke-width:0.8;" x="57.6" xlink:href="#m188085c6b7" y="232.521853"/>
      </g>
     </g>
     <g id="text_8">
      <!-- 3500 -->
      <g transform="translate(9.88 238.600603)scale(0.16 -0.16)">
       <use xlink:href="#DejaVuSans-33"/>
       <use x="63.623047" xlink:href="#DejaVuSans-35"/>
       <use x="127.246094" xlink:href="#DejaVuSans-30"/>
       <use x="190.869141" xlink:href="#DejaVuSans-30"/>
      </g>
     </g>
    </g>
    <g id="ytick_3">
     <g id="line2d_15">
      <path clip-path="url(#pdaeb384eac)" d="M 57.6 193.265681 
L 414.72 193.265681 
" style="fill:none;stroke:#b0b0b0;stroke-linecap:square;stroke-width:0.8;"/>
     </g>
     <g id="line2d_16">
      <g>
       <use style="stroke:#000000;stroke-width:0.8;" x="57.6" xlink:href="#m188085c6b7" y="193.265681"/>
      </g>
     </g>
     <g id="text_9">
      <!-- 3750 -->
      <g transform="translate(9.88 199.344431)scale(0.16 -0.16)">
       <defs>
        <path d="M 525 4666 
L 3525 4666 
L 3525 4397 
L 1831 0 
L 1172 0 
L 2766 4134 
L 525 4134 
L 525 4666 
z
" id="DejaVuSans-37" transform="scale(0.015625)"/>
       </defs>
       <use xlink:href="#DejaVuSans-33"/>
       <use x="63.623047" xlink:href="#DejaVuSans-37"/>
       <use x="127.246094" xlink:href="#DejaVuSans-35"/>
       <use x="190.869141" xlink:href="#DejaVuSans-30"/>
      </g>
     </g>
    </g>
    <g id="ytick_4">
     <g id="line2d_17">
      <path clip-path="url(#pdaeb384eac)" d="M 57.6 154.009508 
L 414.72 154.009508 
" style="fill:none;stroke:#b0b0b0;stroke-linecap:square;stroke-width:0.8;"/>
     </g>
     <g id="line2d_18">
      <g>
       <use style="stroke:#000000;stroke-width:0.8;" x="57.6" xlink:href="#m188085c6b7" y="154.009508"/>
      </g>
     </g>
     <g id="text_10">
      <!-- 4000 -->
      <g transform="translate(9.88 160.088258)scale(0.16 -0.16)">
       <use xlink:href="#DejaVuSans-34"/>
       <use x="63.623047" xlink:href="#DejaVuSans-30"/>
       <use x="127.246094" xlink:href="#DejaVuSans-30"/>
       <use x="190.869141" xlink:href="#DejaVuSans-30"/>
      </g>
     </g>
    </g>
    <g id="ytick_5">
     <g id="line2d_19">
      <path clip-path="url(#pdaeb384eac)" d="M 57.6 114.753336 
L 414.72 114.753336 
" style="fill:none;stroke:#b0b0b0;stroke-linecap:square;stroke-width:0.8;"/>
     </g>
     <g id="line2d_20">
      <g>
       <use style="stroke:#000000;stroke-width:0.8;" x="57.6" xlink:href="#m188085c6b7" y="114.753336"/>
      </g>
     </g>
     <g id="text_11">
      <!-- 4250 -->
      <g transform="translate(9.88 120.832086)scale(0.16 -0.16)">
       <use xlink:href="#DejaVuSans-34"/>
       <use x="63.623047" xlink:href="#DejaVuSans-32"/>
       <use x="127.246094" xlink:href="#DejaVuSans-35"/>
       <use x="190.869141" xlink:href="#DejaVuSans-30"/>
      </g>
     </g>
    </g>
    <g id="ytick_6">
     <g id="line2d_21">
      <path clip-path="url(#pdaeb384eac)" d="M 57.6 75.497164 
L 414.72 75.497164 
" style="fill:none;stroke:#b0b0b0;stroke-linecap:square;stroke-width:0.8;"/>
     </g>
     <g id="line2d_22">
      <g>
       <use style="stroke:#000000;stroke-width:0.8;" x="57.6" xlink:href="#m188085c6b7" y="75.497164"/>
      </g>
     </g>
     <g id="text_12">
      <!-- 4500 -->
      <g transform="translate(9.88 81.575914)scale(0.16 -0.16)">
       <use xlink:href="#DejaVuSans-34"/>
       <use x="63.623047" xlink:href="#DejaVuSans-35"/>
       <use x="127.246094" xlink:href="#DejaVuSans-30"/>
       <use x="190.869141" xlink:href="#DejaVuSans-30"/>
      </g>
     </g>
    </g>
    <g id="text_13">
     <!-- Cumulative Reward -->
     <g transform="translate(2.5525 252.52425)rotate(-90)scale(0.16 -0.16)">
      <defs>
       <path d="M 4122 4306 
L 4122 3641 
Q 3803 3938 3442 4084 
Q 3081 4231 2675 4231 
Q 1875 4231 1450 3742 
Q 1025 3253 1025 2328 
Q 1025 1406 1450 917 
Q 1875 428 2675 428 
Q 3081 428 3442 575 
Q 3803 722 4122 1019 
L 4122 359 
Q 3791 134 3420 21 
Q 3050 -91 2638 -91 
Q 1578 -91 968 557 
Q 359 1206 359 2328 
Q 359 3453 968 4101 
Q 1578 4750 2638 4750 
Q 3056 4750 3426 4639 
Q 3797 4528 4122 4306 
z
" id="DejaVuSans-43" transform="scale(0.015625)"/>
       <path d="M 544 1381 
L 544 3500 
L 1119 3500 
L 1119 1403 
Q 1119 906 1312 657 
Q 1506 409 1894 409 
Q 2359 409 2629 706 
Q 2900 1003 2900 1516 
L 2900 3500 
L 3475 3500 
L 3475 0 
L 2900 0 
L 2900 538 
Q 2691 219 2414 64 
Q 2138 -91 1772 -91 
Q 1169 -91 856 284 
Q 544 659 544 1381 
z
M 1991 3584 
L 1991 3584 
z
" id="DejaVuSans-75" transform="scale(0.015625)"/>
       <path d="M 3328 2828 
Q 3544 3216 3844 3400 
Q 4144 3584 4550 3584 
Q 5097 3584 5394 3201 
Q 5691 2819 5691 2113 
L 5691 0 
L 5113 0 
L 5113 2094 
Q 5113 2597 4934 2840 
Q 4756 3084 4391 3084 
Q 3944 3084 3684 2787 
Q 3425 2491 3425 1978 
L 3425 0 
L 2847 0 
L 2847 2094 
Q 2847 2600 2669 2842 
Q 2491 3084 2119 3084 
Q 1678 3084 1418 2786 
Q 1159 2488 1159 1978 
L 1159 0 
L 581 0 
L 581 3500 
L 1159 3500 
L 1159 2956 
Q 1356 3278 1631 3431 
Q 1906 3584 2284 3584 
Q 2666 3584 2933 3390 
Q 3200 3197 3328 2828 
z
" id="DejaVuSans-6d" transform="scale(0.015625)"/>
       <path d="M 603 4863 
L 1178 4863 
L 1178 0 
L 603 0 
L 603 4863 
z
" id="DejaVuSans-6c" transform="scale(0.015625)"/>
       <path d="M 2194 1759 
Q 1497 1759 1228 1600 
Q 959 1441 959 1056 
Q 959 750 1161 570 
Q 1363 391 1709 391 
Q 2188 391 2477 730 
Q 2766 1069 2766 1631 
L 2766 1759 
L 2194 1759 
z
M 3341 1997 
L 3341 0 
L 2766 0 
L 2766 531 
Q 2569 213 2275 61 
Q 1981 -91 1556 -91 
Q 1019 -91 701 211 
Q 384 513 384 1019 
Q 384 1609 779 1909 
Q 1175 2209 1959 2209 
L 2766 2209 
L 2766 2266 
Q 2766 2663 2505 2880 
Q 2244 3097 1772 3097 
Q 1472 3097 1187 3025 
Q 903 2953 641 2809 
L 641 3341 
Q 956 3463 1253 3523 
Q 1550 3584 1831 3584 
Q 2591 3584 2966 3190 
Q 3341 2797 3341 1997 
z
" id="DejaVuSans-61" transform="scale(0.015625)"/>
       <path d="M 1172 4494 
L 1172 3500 
L 2356 3500 
L 2356 3053 
L 1172 3053 
L 1172 1153 
Q 1172 725 1289 603 
Q 1406 481 1766 481 
L 2356 481 
L 2356 0 
L 1766 0 
Q 1100 0 847 248 
Q 594 497 594 1153 
L 594 3053 
L 172 3053 
L 172 3500 
L 594 3500 
L 594 4494 
L 1172 4494 
z
" id="DejaVuSans-74" transform="scale(0.015625)"/>
       <path d="M 191 3500 
L 800 3500 
L 1894 563 
L 2988 3500 
L 3597 3500 
L 2284 0 
L 1503 0 
L 191 3500 
z
" id="DejaVuSans-76" transform="scale(0.015625)"/>
       <path id="DejaVuSans-20" transform="scale(0.015625)"/>
       <path d="M 2841 2188 
Q 3044 2119 3236 1894 
Q 3428 1669 3622 1275 
L 4263 0 
L 3584 0 
L 2988 1197 
Q 2756 1666 2539 1819 
Q 2322 1972 1947 1972 
L 1259 1972 
L 1259 0 
L 628 0 
L 628 4666 
L 2053 4666 
Q 2853 4666 3247 4331 
Q 3641 3997 3641 3322 
Q 3641 2881 3436 2590 
Q 3231 2300 2841 2188 
z
M 1259 4147 
L 1259 2491 
L 2053 2491 
Q 2509 2491 2742 2702 
Q 2975 2913 2975 3322 
Q 2975 3731 2742 3939 
Q 2509 4147 2053 4147 
L 1259 4147 
z
" id="DejaVuSans-52" transform="scale(0.015625)"/>
       <path d="M 269 3500 
L 844 3500 
L 1563 769 
L 2278 3500 
L 2956 3500 
L 3675 769 
L 4391 3500 
L 4966 3500 
L 4050 0 
L 3372 0 
L 2619 2869 
L 1863 0 
L 1184 0 
L 269 3500 
z
" id="DejaVuSans-77" transform="scale(0.015625)"/>
       <path d="M 2631 2963 
Q 2534 3019 2420 3045 
Q 2306 3072 2169 3072 
Q 1681 3072 1420 2755 
Q 1159 2438 1159 1844 
L 1159 0 
L 581 0 
L 581 3500 
L 1159 3500 
L 1159 2956 
Q 1341 3275 1631 3429 
Q 1922 3584 2338 3584 
Q 2397 3584 2469 3576 
Q 2541 3569 2628 3553 
L 2631 2963 
z
" id="DejaVuSans-72" transform="scale(0.015625)"/>
      </defs>
      <use xlink:href="#DejaVuSans-43"/>
      <use x="69.824219" xlink:href="#DejaVuSans-75"/>
      <use x="133.203125" xlink:href="#DejaVuSans-6d"/>
      <use x="230.615234" xlink:href="#DejaVuSans-75"/>
      <use x="293.994141" xlink:href="#DejaVuSans-6c"/>
      <use x="321.777344" xlink:href="#DejaVuSans-61"/>
      <use x="383.056641" xlink:href="#DejaVuSans-74"/>
      <use x="422.265625" xlink:href="#DejaVuSans-69"/>
      <use x="450.048828" xlink:href="#DejaVuSans-76"/>
      <use x="509.228516" xlink:href="#DejaVuSans-65"/>
      <use x="570.751953" xlink:href="#DejaVuSans-20"/>
      <use x="602.539062" xlink:href="#DejaVuSans-52"/>
      <use x="667.521484" xlink:href="#DejaVuSans-65"/>
      <use x="729.044922" xlink:href="#DejaVuSans-77"/>
      <use x="810.832031" xlink:href="#DejaVuSans-61"/>
      <use x="872.111328" xlink:href="#DejaVuSans-72"/>
      <use x="911.474609" xlink:href="#DejaVuSans-64"/>
     </g>
    </g>
   </g>
   <g id="line2d_23">
    <path clip-path="url(#pdaeb384eac)" d="M 57.6 102.138906 
L 57.68928 111.127718 
L 57.86784 145.770689 
L 57.95712 102.138906 
L 58.0464 111.127718 
L 58.22496 145.770689 
L 58.31424 102.138906 
L 58.40352 111.127718 
L 58.58208 145.770689 
L 58.67136 102.138906 
L 58.76064 111.127718 
L 58.9392 145.770689 
L 59.02848 102.138906 
L 59.11776 111.127718 
L 59.29632 145.770689 
L 59.3856 102.138906 
L 59.47488 111.127718 
L 59.65344 145.770689 
L 59.74272 102.138906 
L 59.832 111.127718 
L 60.01056 145.770689 
L 60.09984 102.138906 
L 60.18912 111.127718 
L 60.36768 145.770689 
L 60.45696 102.138906 
L 60.54624 111.127718 
L 60.7248 145.770689 
L 60.81408 102.138906 
L 60.90336 111.127718 
L 61.08192 145.770689 
L 61.1712 102.138906 
L 61.26048 111.127718 
L 61.43904 145.770689 
L 61.52832 102.138906 
L 61.6176 111.127718 
L 61.79616 145.770689 
L 61.88544 102.138906 
L 61.97472 111.127718 
L 62.15328 145.770689 
L 62.24256 102.138906 
L 62.33184 111.127718 
L 62.5104 145.770689 
L 62.59968 102.138906 
L 62.68896 111.127718 
L 62.86752 145.770689 
L 62.9568 102.138906 
L 63.04608 111.127718 
L 63.22464 145.770689 
L 63.31392 102.138906 
L 63.4032 111.127718 
L 63.58176 145.770689 
L 63.67104 102.138906 
L 63.76032 111.127718 
L 63.93888 145.770689 
L 64.02816 102.138906 
L 64.11744 111.127718 
L 64.296 145.770689 
L 64.38528 102.138906 
L 64.47456 111.127718 
L 64.65312 145.770689 
L 64.7424 102.138906 
L 64.83168 111.127718 
L 65.01024 145.770689 
L 65.09952 102.138906 
L 65.1888 111.127718 
L 65.36736 145.770689 
L 65.45664 102.138906 
L 65.54592 111.127718 
L 65.72448 145.770689 
L 65.81376 102.138906 
L 65.90304 111.127718 
L 66.0816 145.770689 
L 66.17088 102.138906 
L 66.26016 111.127718 
L 66.528 154.497875 
L 66.61728 142.281229 
L 66.88512 86.363239 
L 66.9744 113.862318 
L 67.06368 92.335473 
L 67.15296 108.382074 
L 67.24224 107.703672 
L 67.33152 119.361489 
L 67.51008 99.413292 
L 67.59936 129.13166 
L 67.68864 106.979858 
L 67.77792 115.688248 
L 67.8672 112.221121 
L 68.04576 144.092568 
L 68.13504 105.955591 
L 68.22432 107.863518 
L 68.3136 108.699362 
L 68.49216 115.902195 
L 68.58144 97.350139 
L 68.76 113.34371 
L 68.84928 106.817743 
L 68.93856 90.640881 
L 69.11712 143.528264 
L 69.2064 92.064418 
L 69.29568 116.593594 
L 69.38496 86.969223 
L 69.47424 134.372506 
L 69.6528 98.326452 
L 69.74208 100.124869 
L 70.00992 127.139453 
L 70.0992 120.895673 
L 70.27776 99.364742 
L 70.36704 101.052258 
L 70.5456 150.176897 
L 70.63488 154.021272 
L 70.81344 86.761572 
L 70.90272 142.42868 
L 71.08128 108.120177 
L 71.17056 137.699207 
L 71.34912 105.775725 
L 71.52768 128.287319 
L 71.79552 111.263271 
L 71.8848 117.445521 
L 71.97408 105.361633 
L 72.06336 123.807323 
L 72.15264 122.189107 
L 72.24192 132.603881 
L 72.3312 120.135276 
L 72.50976 131.491214 
L 72.68832 106.317003 
L 72.7776 142.855995 
L 72.86688 115.367598 
L 73.04544 145.705497 
L 73.13472 87.640189 
L 73.31328 122.955341 
L 73.40256 99.072609 
L 73.49184 134.340946 
L 73.6704 86.253692 
L 73.84896 133.19219 
L 73.93824 125.90952 
L 74.02752 92.896583 
L 74.1168 103.889014 
L 74.20608 133.724454 
L 74.29536 132.663223 
L 74.38464 94.585629 
L 74.47392 153.934305 
L 74.5632 151.249567 
L 74.74176 105.44824 
L 74.83104 122.648256 
L 74.92032 106.32493 
L 75.0096 107.73447 
L 75.09888 110.121171 
L 75.27744 128.616888 
L 75.36672 102.308689 
L 75.456 143.209525 
L 75.54528 109.819281 
L 75.63456 110.950796 
L 75.81312 98.544096 
L 76.08096 130.089154 
L 76.25952 91.208673 
L 76.3488 98.979936 
L 76.43808 130.944683 
L 76.61664 106.852803 
L 76.70592 107.316672 
L 76.7952 114.954881 
L 76.88448 104.969341 
L 76.97376 107.074916 
L 77.06304 109.595021 
L 77.15232 88.264563 
L 77.2416 102.149939 
L 77.33088 72.708673 
L 77.50944 141.054187 
L 77.77728 92.537118 
L 77.86656 102.092238 
L 78.04512 85.903291 
L 78.22368 120.523506 
L 78.31296 104.282222 
L 78.40224 132.340158 
L 78.5808 86.73765 
L 78.67008 146.423955 
L 78.75936 82.695164 
L 78.93792 127.979299 
L 79.0272 86.353499 
L 79.11648 136.305863 
L 79.29504 112.823972 
L 79.38432 108.612797 
L 79.4736 120.899516 
L 79.56288 112.782247 
L 79.65216 157.967746 
L 79.83072 117.643407 
L 79.92 100.466955 
L 80.00928 143.93065 
L 80.09856 89.893691 
L 80.18784 97.303569 
L 80.27712 84.466149 
L 80.45568 131.121764 
L 80.54496 111.918942 
L 80.63424 141.398429 
L 80.72352 108.72935 
L 80.8128 117.999037 
L 80.90208 92.48454 
L 80.99136 117.144133 
L 81.08064 82.308182 
L 81.2592 115.982363 
L 81.43776 118.773461 
L 81.52704 87.501394 
L 81.61632 96.829949 
L 81.7056 126.995032 
L 81.79488 102.797886 
L 81.88416 104.112044 
L 81.97344 121.290768 
L 82.06272 92.153308 
L 82.24128 106.834234 
L 82.33056 104.22348 
L 82.41984 86.793532 
L 82.50912 113.067274 
L 82.5984 89.479178 
L 82.68768 93.970006 
L 82.86624 130.137926 
L 82.95552 92.734827 
L 83.13408 124.827693 
L 83.31264 96.78239 
L 83.58048 152.823541 
L 83.75904 77.793876 
L 83.84832 178.8398 
L 83.9376 93.774614 
L 84.02688 95.050772 
L 84.20544 141.426006 
L 84.29472 124.536218 
L 84.384 85.223261 
L 84.47328 129.06531 
L 84.56256 103.065108 
L 84.65184 119.064445 
L 84.74112 110.957567 
L 84.8304 132.932605 
L 85.00896 108.832443 
L 85.09824 147.005669 
L 85.2768 85.380952 
L 85.36608 146.277479 
L 85.45536 102.928474 
L 85.54464 125.105299 
L 85.63392 86.832367 
L 85.7232 147.886579 
L 85.81248 103.348092 
L 85.90176 125.560992 
L 86.08032 85.968128 
L 86.1696 121.305225 
L 86.25888 90.283419 
L 86.43744 112.854595 
L 86.616 92.396979 
L 86.79456 132.220313 
L 86.88384 95.376311 
L 86.97312 137.221401 
L 87.15168 107.498289 
L 87.24096 128.209251 
L 87.5088 88.840828 
L 87.59808 128.010237 
L 87.77664 94.518165 
L 87.9552 116.194708 
L 88.13376 106.609566 
L 88.31232 128.08338 
L 88.49088 87.037017 
L 88.58016 110.096024 
L 88.75872 85.963615 
L 88.848 113.926768 
L 88.93728 100.006646 
L 89.11584 130.568389 
L 89.2944 82.8303 
L 89.56224 118.498458 
L 89.65152 95.046849 
L 89.83008 140.231213 
L 90.00864 91.530945 
L 90.09792 100.055069 
L 90.1872 87.135501 
L 90.27648 127.172298 
L 90.36576 104.504413 
L 90.45504 110.336027 
L 90.54432 85.379829 
L 90.6336 104.653449 
L 90.72288 96.484465 
L 90.81216 107.581 
L 90.90144 132.817585 
L 90.99072 105.45133 
L 91.16928 118.178005 
L 91.25856 93.894295 
L 91.43712 127.212829 
L 91.5264 109.089008 
L 91.61568 118.564659 
L 91.70496 81.912249 
L 91.79424 117.130738 
L 91.88352 108.569622 
L 92.06208 97.042814 
L 92.15136 128.180644 
L 92.24064 108.24722 
L 92.32992 139.466884 
L 92.4192 91.899884 
L 92.50848 149.303962 
L 92.68704 103.086346 
L 92.77632 106.98857 
L 92.8656 92.047858 
L 93.13344 142.528957 
L 93.22272 95.831223 
L 93.40128 135.451154 
L 93.49056 93.970287 
L 93.57984 101.835703 
L 93.66912 120.913806 
L 93.84768 88.606889 
L 93.93696 138.550815 
L 94.02624 99.2895 
L 94.11552 111.873058 
L 94.2048 111.628297 
L 94.29408 86.583156 
L 94.47264 143.508968 
L 94.6512 88.461911 
L 94.74048 86.652954 
L 94.82976 109.916008 
L 94.91904 106.305864 
L 95.00832 106.948112 
L 95.0976 142.764753 
L 95.18688 111.988662 
L 95.27616 130.746981 
L 95.36544 81.740053 
L 95.544 124.899116 
L 95.63328 122.163641 
L 95.72256 108.707735 
L 95.81184 122.149856 
L 95.90112 105.33903 
L 95.9904 125.573127 
L 96.07968 104.923907 
L 96.16896 123.280669 
L 96.25824 108.130782 
L 96.34752 128.732025 
L 96.4368 109.592244 
L 96.52608 140.401276 
L 96.70464 99.376247 
L 96.97248 133.774103 
L 97.06176 104.892944 
L 97.15104 131.87775 
L 97.3296 100.739031 
L 97.41888 120.051819 
L 97.50816 106.709108 
L 97.59744 135.359792 
L 97.68672 82.796388 
L 97.776 145.559581 
L 97.86528 128.272109 
L 97.95456 152.940404 
L 98.13312 111.72375 
L 98.2224 124.774662 
L 98.31168 95.373481 
L 98.57952 122.968937 
L 98.6688 95.367902 
L 98.93664 135.737034 
L 99.02592 142.143014 
L 99.1152 135.800965 
L 99.20448 118.975399 
L 99.29376 131.279106 
L 99.38304 98.412456 
L 99.47232 121.940832 
L 99.65088 104.426686 
L 99.74016 123.177533 
L 99.82944 114.801831 
L 100.008 124.43407 
L 100.09728 108.487247 
L 100.18656 136.783622 
L 100.27584 133.477574 
L 100.36512 141.248403 
L 100.4544 97.033399 
L 100.54368 98.643677 
L 100.63296 131.793478 
L 100.81152 102.682561 
L 100.99008 132.358836 
L 101.16864 113.665891 
L 101.25792 136.921943 
L 101.3472 110.823764 
L 101.43648 113.215299 
L 101.52576 102.977141 
L 101.61504 106.39803 
L 101.7936 125.011497 
L 101.88288 100.603193 
L 102.06144 119.758716 
L 102.15072 100.954187 
L 102.24 107.240722 
L 102.32928 102.422894 
L 102.50784 150.673646 
L 102.59712 103.919852 
L 102.6864 121.349206 
L 102.77568 112.157653 
L 102.86496 115.057317 
L 102.95424 104.122037 
L 103.04352 107.264314 
L 103.1328 90.842332 
L 103.22208 127.576069 
L 103.40064 106.466194 
L 103.5792 135.433005 
L 103.66848 122.777039 
L 103.75776 132.705496 
L 103.93632 103.158758 
L 104.0256 102.072485 
L 104.11488 91.685091 
L 104.20416 165.112259 
L 104.29344 109.729167 
L 104.38272 130.198564 
L 104.472 105.928257 
L 104.56128 111.82924 
L 104.65056 161.116125 
L 104.73984 98.290052 
L 104.82912 124.807426 
L 104.9184 85.638079 
L 105.09696 188.228923 
L 105.27552 103.094527 
L 105.3648 129.831719 
L 105.45408 128.026441 
L 105.54336 96.013169 
L 105.63264 97.925777 
L 105.72192 112.757827 
L 105.8112 106.409706 
L 105.90048 112.104607 
L 105.98976 131.711207 
L 106.2576 120.841656 
L 106.34688 123.457392 
L 106.43616 159.668212 
L 106.704 87.729794 
L 106.79328 124.504879 
L 106.88256 92.145592 
L 107.06112 115.436946 
L 107.1504 110.811581 
L 107.32896 139.272758 
L 107.41824 115.027155 
L 107.50752 128.883498 
L 107.68608 105.128197 
L 107.77536 116.701292 
L 107.86464 87.552712 
L 107.95392 98.995177 
L 108.0432 124.765202 
L 108.13248 123.047887 
L 108.31104 101.947917 
L 108.40032 94.328659 
L 108.4896 160.721553 
L 108.66816 108.619626 
L 108.75744 111.624352 
L 108.84672 89.577666 
L 108.936 105.932779 
L 109.02528 95.028141 
L 109.11456 180.305786 
L 109.20384 84.880647 
L 109.29312 126.222415 
L 109.47168 98.137167 
L 109.73952 119.09438 
L 109.8288 105.268124 
L 109.91808 124.22663 
L 110.09664 85.578936 
L 110.36448 124.138374 
L 110.45376 123.183671 
L 110.63232 84.56074 
L 110.7216 85.127649 
L 110.81088 145.239259 
L 110.98944 78.722439 
L 111.07872 95.153731 
L 111.168 100.703668 
L 111.25728 87.132822 
L 111.52512 135.7148 
L 111.6144 126.380709 
L 111.70368 84.203106 
L 111.79296 137.13278 
L 111.88224 115.589048 
L 111.97152 122.421887 
L 112.0608 80.583494 
L 112.23936 172.641792 
L 112.41792 102.965296 
L 112.5072 95.445545 
L 112.59648 107.922921 
L 112.77504 80.397374 
L 112.9536 126.505781 
L 113.04288 141.945053 
L 113.13216 96.821707 
L 113.22144 120.672653 
L 113.31072 117.420413 
L 113.4 84.285465 
L 113.66784 140.834162 
L 113.93568 109.715086 
L 114.02496 105.667098 
L 114.20352 110.50151 
L 114.2928 130.169222 
L 114.38208 112.931692 
L 114.47136 124.402147 
L 114.64992 99.763679 
L 114.7392 117.241555 
L 114.91776 89.429352 
L 115.00704 113.900125 
L 115.09632 107.657862 
L 115.1856 130.048244 
L 115.36416 110.064731 
L 115.54272 123.277218 
L 115.632 101.697881 
L 115.72128 146.626486 
L 115.81056 92.574863 
L 115.98912 129.059672 
L 116.16768 134.452413 
L 116.25696 164.616362 
L 116.43552 101.670248 
L 116.5248 106.113611 
L 116.61408 148.140148 
L 116.70336 90.075125 
L 116.79264 107.273169 
L 116.88192 63.648 
L 117.06048 108.376022 
L 117.14976 115.641879 
L 117.23904 115.043069 
L 117.32832 146.179431 
L 117.4176 76.995176 
L 117.50688 152.660944 
L 117.59616 99.137074 
L 117.77472 137.752455 
L 117.864 97.190194 
L 117.95328 109.459412 
L 118.04256 107.806648 
L 118.3104 129.174963 
L 118.48896 98.807225 
L 118.66752 116.165318 
L 118.7568 115.940909 
L 118.84608 107.367724 
L 119.02464 140.243533 
L 119.29248 101.407708 
L 119.38176 127.110478 
L 119.56032 77.213713 
L 119.6496 159.463871 
L 119.82816 125.601831 
L 120.00672 109.729598 
L 120.096 101.360177 
L 120.18528 134.693756 
L 120.27456 127.241676 
L 120.36384 123.81163 
L 120.5424 110.304273 
L 120.63168 111.052532 
L 120.72096 89.580055 
L 120.81024 94.963831 
L 120.89952 125.823783 
L 120.9888 100.039992 
L 121.16736 112.023123 
L 121.25664 83.750794 
L 121.34592 107.970148 
L 121.52448 82.880511 
L 121.61376 138.293726 
L 121.70304 101.023884 
L 121.79232 107.283274 
L 121.8816 116.248819 
L 121.97088 111.706972 
L 122.06016 156.269714 
L 122.14944 139.7626 
L 122.23872 86.411818 
L 122.328 87.536912 
L 122.50656 135.777947 
L 122.59584 123.736146 
L 122.68512 140.514778 
L 122.86368 98.526871 
L 122.95296 106.950501 
L 123.04224 106.054947 
L 123.13152 110.813765 
L 123.2208 167.941721 
L 123.31008 127.486599 
L 123.39936 154.043136 
L 123.48864 102.762152 
L 123.57792 146.647298 
L 123.84576 94.547515 
L 123.93504 131.732031 
L 124.1136 109.015262 
L 124.20288 111.275676 
L 124.29216 95.075602 
L 124.38144 99.760501 
L 124.64928 130.850285 
L 124.91712 109.30525 
L 125.0064 137.079998 
L 125.09568 124.884483 
L 125.18496 152.866026 
L 125.27424 105.673129 
L 125.36352 129.760969 
L 125.4528 122.654258 
L 125.54208 140.263103 
L 125.72064 109.104883 
L 125.80992 111.633581 
L 125.8992 107.263158 
L 125.98848 129.508716 
L 126.07776 125.403167 
L 126.16704 124.064957 
L 126.25632 98.463788 
L 126.3456 108.582589 
L 126.43488 104.042772 
L 126.52416 168.830623 
L 126.70272 91.701596 
L 126.88128 134.049313 
L 126.97056 129.073697 
L 127.05984 133.426536 
L 127.14912 113.283376 
L 127.2384 148.129997 
L 127.50624 98.131246 
L 127.6848 129.743835 
L 127.77408 142.790574 
L 127.86336 100.890343 
L 128.04192 124.472115 
L 128.22048 87.010126 
L 128.39904 151.962918 
L 128.5776 84.078174 
L 128.84544 129.590929 
L 128.93472 103.260522 
L 129.024 116.813332 
L 129.11328 154.371036 
L 129.20256 147.483082 
L 129.29184 116.053162 
L 129.38112 120.690358 
L 129.4704 123.955416 
L 129.64896 112.065452 
L 129.82752 143.953487 
L 130.00608 83.963687 
L 130.18464 130.585058 
L 130.27392 109.845296 
L 130.63104 143.614141 
L 130.8096 112.108108 
L 130.89888 85.258099 
L 131.07744 131.966646 
L 131.16672 138.037785 
L 131.34528 126.652447 
L 131.43456 132.002704 
L 131.52384 94.284879 
L 131.61312 138.100273 
L 131.79168 90.75363 
L 131.88096 146.231769 
L 131.97024 108.427748 
L 132.05952 112.511453 
L 132.1488 90.891228 
L 132.32736 133.344973 
L 132.50592 113.374579 
L 132.5952 135.044828 
L 132.68448 113.514729 
L 132.77376 146.434752 
L 132.95232 90.31794 
L 133.0416 87.634281 
L 133.13088 89.142139 
L 133.22016 101.487137 
L 133.39872 90.411587 
L 133.488 158.307466 
L 133.57728 90.871168 
L 133.66656 167.316178 
L 133.9344 111.015538 
L 134.02368 120.821375 
L 134.11296 88.299203 
L 134.20224 144.903697 
L 134.3808 111.866035 
L 134.47008 130.014753 
L 134.55936 113.137381 
L 134.73792 130.258703 
L 134.8272 107.023581 
L 135.00576 143.28705 
L 135.09504 88.617336 
L 135.36288 143.979531 
L 135.45216 116.165263 
L 135.54144 132.185415 
L 135.63072 96.886653 
L 135.80928 125.231969 
L 135.89856 121.029399 
L 136.07712 95.495054 
L 136.1664 151.228549 
L 136.43424 89.392324 
L 136.6128 116.427439 
L 136.70208 150.121502 
L 136.79136 148.263276 
L 136.88064 104.933413 
L 136.96992 147.334811 
L 137.0592 136.774791 
L 137.14848 103.724028 
L 137.23776 137.237897 
L 137.32704 129.070927 
L 137.41632 83.464763 
L 137.5056 97.459469 
L 137.59488 133.921619 
L 137.68416 130.185379 
L 137.77344 96.771741 
L 137.952 118.467898 
L 138.04128 120.306211 
L 138.21984 113.28296 
L 138.30912 86.706663 
L 138.57696 132.134443 
L 138.66624 102.625756 
L 138.75552 128.590368 
L 138.8448 125.843617 
L 138.93408 119.763873 
L 139.02336 164.573747 
L 139.11264 100.480744 
L 139.20192 127.151294 
L 139.2912 111.076831 
L 139.38048 130.194521 
L 139.46976 116.656123 
L 139.64832 162.462702 
L 139.7376 93.469217 
L 139.82688 113.279206 
L 139.91616 95.621931 
L 140.00544 97.234792 
L 140.09472 118.565659 
L 140.184 100.424614 
L 140.36256 115.026504 
L 140.45184 98.24362 
L 140.54112 130.631622 
L 140.6304 105.218413 
L 140.71968 110.06332 
L 140.89824 136.344537 
L 140.98752 120.715237 
L 141.0768 123.355423 
L 141.16608 135.086074 
L 141.34464 111.549748 
L 141.43392 176.895317 
L 141.70176 103.225736 
L 141.79104 95.593835 
L 141.88032 113.43856 
L 141.9696 93.316146 
L 142.14816 139.380854 
L 142.23744 130.795056 
L 142.32672 120.450113 
L 142.50528 131.19689 
L 142.77312 100.003359 
L 142.8624 147.946996 
L 142.95168 92.399903 
L 143.04096 109.137797 
L 143.13024 159.028508 
L 143.21952 106.423413 
L 143.39808 125.57046 
L 143.57664 99.36048 
L 143.66592 104.924781 
L 143.7552 121.155006 
L 143.84448 102.566534 
L 143.93376 128.525756 
L 144.02304 92.874465 
L 144.11232 103.893641 
L 144.2016 132.028382 
L 144.29088 92.849973 
L 144.38016 98.519029 
L 144.46944 113.970717 
L 144.55872 81.741704 
L 144.82656 119.465302 
L 144.91584 130.036655 
L 145.00512 106.886777 
L 145.0944 169.808298 
L 145.18368 117.802974 
L 145.27296 121.424548 
L 145.36224 127.070193 
L 145.45152 104.046115 
L 145.5408 108.947706 
L 145.63008 98.79823 
L 145.71936 133.394109 
L 145.80864 103.263995 
L 145.89792 127.687243 
L 146.07648 117.723618 
L 146.16576 161.240648 
L 146.25504 120.62162 
L 146.34432 120.762984 
L 146.52288 112.374783 
L 146.61216 124.331626 
L 146.70144 122.555024 
L 146.79072 119.693476 
L 146.88 95.056838 
L 147.05856 118.168492 
L 147.14784 113.952586 
L 147.23712 96.638254 
L 147.3264 127.996823 
L 147.41568 85.522297 
L 147.50496 141.005783 
L 147.59424 130.841736 
L 147.68352 119.602822 
L 147.7728 120.360443 
L 147.86208 119.849995 
L 147.95136 148.821028 
L 148.04064 113.152156 
L 148.12992 130.584725 
L 148.30848 114.032875 
L 148.48704 153.065836 
L 148.57632 121.033223 
L 148.6656 140.031024 
L 148.84416 96.1994 
L 148.93344 129.173108 
L 149.112 112.102391 
L 149.20128 128.085162 
L 149.29056 100.32025 
L 149.46912 136.762206 
L 149.5584 84.668025 
L 149.64768 119.446328 
L 149.73696 104.880417 
L 149.91552 120.345747 
L 150.0048 113.740013 
L 150.09408 132.517749 
L 150.18336 95.220047 
L 150.27264 108.841541 
L 150.36192 151.409564 
L 150.4512 136.0555 
L 150.62976 88.409557 
L 150.71904 149.882465 
L 150.80832 94.945351 
L 150.8976 135.78702 
L 150.98688 104.107559 
L 151.07616 153.67884 
L 151.16544 118.474707 
L 151.25472 120.986785 
L 151.344 108.01693 
L 151.43328 108.974317 
L 151.52256 105.020897 
L 151.70112 165.576477 
L 151.87968 122.2688 
L 151.96896 169.910735 
L 152.14752 100.81141 
L 152.32608 113.158685 
L 152.41536 109.072246 
L 152.50464 137.467537 
L 152.86176 81.774683 
L 153.04032 114.164961 
L 153.1296 125.726451 
L 153.21888 123.649143 
L 153.30816 123.110422 
L 153.39744 125.423442 
L 153.48672 201.853658 
L 153.576 120.141862 
L 153.66528 120.957715 
L 153.75456 124.673564 
L 153.84384 133.220014 
L 153.93312 94.933397 
L 154.0224 101.530066 
L 154.11168 101.60773 
L 154.20096 129.250119 
L 154.29024 115.622811 
L 154.37952 120.941173 
L 154.4688 135.485691 
L 154.64736 117.042705 
L 154.73664 114.083728 
L 154.82592 118.251007 
L 155.00448 101.729767 
L 155.18304 111.569526 
L 155.27232 146.014118 
L 155.3616 119.723314 
L 155.45088 121.690659 
L 155.54016 160.726812 
L 155.62944 132.6292 
L 155.71872 155.088231 
L 155.808 118.733045 
L 155.89728 144.639464 
L 155.98656 141.009281 
L 156.07584 93.91977 
L 156.16512 104.19925 
L 156.34368 152.508507 
L 156.43296 136.411658 
L 156.52224 143.72421 
L 156.61152 94.272024 
L 156.7008 126.203446 
L 156.79008 78.75185 
L 156.87936 165.600453 
L 157.05792 109.932236 
L 157.1472 113.582903 
L 157.23648 97.915321 
L 157.41504 132.960278 
L 157.5936 99.459004 
L 157.77216 131.163269 
L 157.86144 127.002212 
L 157.95072 102.663177 
L 158.04 109.058229 
L 158.12928 79.67583 
L 158.21856 117.407126 
L 158.30784 107.746243 
L 158.39712 169.161285 
L 158.57568 113.390609 
L 158.66496 120.145272 
L 158.75424 110.806431 
L 158.84352 110.908233 
L 158.9328 128.297434 
L 159.02208 126.795507 
L 159.11136 93.022966 
L 159.20064 116.33291 
L 159.28992 106.773475 
L 159.3792 121.316839 
L 159.46848 111.408378 
L 159.64704 161.802371 
L 159.73632 121.209439 
L 159.8256 154.92457 
L 160.00416 111.397969 
L 160.09344 124.376154 
L 160.18272 110.402314 
L 160.272 148.36552 
L 160.36128 96.901064 
L 160.53984 135.134626 
L 160.62912 144.910634 
L 160.7184 131.263366 
L 160.80768 96.855127 
L 160.89696 148.044402 
L 160.98624 100.168245 
L 161.07552 133.693759 
L 161.1648 92.664597 
L 161.25408 111.625096 
L 161.34336 111.617866 
L 161.43264 96.530841 
L 161.52192 108.153415 
L 161.6112 99.81142 
L 161.70048 129.821341 
L 161.78976 114.579082 
L 161.87904 168.597102 
L 161.96832 92.376962 
L 162.0576 153.966785 
L 162.23616 97.414871 
L 162.32544 141.826788 
L 162.41472 109.793443 
L 162.504 151.377433 
L 162.77184 106.116876 
L 162.86112 121.473894 
L 163.12896 97.808852 
L 163.21824 109.566574 
L 163.30752 97.653811 
L 163.48608 160.999666 
L 163.57536 131.0171 
L 163.66464 142.550557 
L 163.75392 168.621885 
L 163.8432 104.506141 
L 163.93248 109.438137 
L 164.02176 104.983199 
L 164.11104 118.102578 
L 164.20032 117.082608 
L 164.37888 104.698721 
L 164.46816 114.910672 
L 164.55744 144.616532 
L 164.64672 130.424478 
L 164.736 146.803649 
L 164.82528 105.780128 
L 165.09312 142.903398 
L 165.27168 95.024787 
L 165.45024 133.446034 
L 165.53952 84.087841 
L 165.6288 111.08306 
L 165.71808 107.352329 
L 165.80736 87.432427 
L 165.89664 101.69223 
L 165.98592 150.092468 
L 166.0752 104.121997 
L 166.25376 128.111403 
L 166.34304 103.526226 
L 166.43232 129.358316 
L 166.5216 116.478971 
L 166.61088 140.588635 
L 166.70016 101.480042 
L 166.78944 109.271595 
L 166.968 125.881784 
L 167.05728 185.217754 
L 167.32512 100.849655 
L 167.50368 133.646177 
L 167.59296 110.840138 
L 167.68224 127.529114 
L 167.77152 179.230242 
L 167.8608 119.991 
L 167.95008 141.300251 
L 168.12864 127.237649 
L 168.21792 170.189973 
L 168.39648 119.011906 
L 168.48576 118.106265 
L 168.66432 105.220631 
L 168.7536 122.564625 
L 168.84288 78.22679 
L 169.02144 120.508146 
L 169.11072 108.634878 
L 169.28928 142.839162 
L 169.37856 138.268618 
L 169.46784 130.387133 
L 169.55712 160.198639 
L 169.73568 109.806686 
L 169.82496 111.68662 
L 169.91424 89.543765 
L 170.0928 146.129581 
L 170.18208 145.483842 
L 170.27136 104.144919 
L 170.36064 129.035761 
L 170.44992 106.258572 
L 170.5392 132.797116 
L 170.80704 81.666705 
L 170.89632 111.905528 
L 170.9856 106.518359 
L 171.07488 80.131669 
L 171.16416 111.387087 
L 171.25344 98.699231 
L 171.34272 147.153213 
L 171.432 111.773999 
L 171.52128 145.641525 
L 171.78912 112.245439 
L 171.8784 149.994234 
L 171.96768 139.223627 
L 172.05696 105.939775 
L 172.23552 147.398127 
L 172.41408 125.268927 
L 172.50336 154.645808 
L 172.59264 113.963478 
L 172.68192 143.989294 
L 172.94976 109.973115 
L 173.03904 132.51235 
L 173.2176 106.325609 
L 173.30688 116.53625 
L 173.39616 167.357066 
L 173.57472 131.418944 
L 173.664 129.548365 
L 173.75328 119.575663 
L 173.84256 125.080588 
L 173.93184 115.621067 
L 174.02112 152.08313 
L 174.1104 138.000478 
L 174.19968 97.232712 
L 174.28896 154.067685 
L 174.37824 122.337291 
L 174.46752 147.248487 
L 174.5568 99.54246 
L 174.64608 125.549843 
L 174.73536 88.126257 
L 174.82464 122.28712 
L 174.91392 104.335147 
L 175.0032 104.7825 
L 175.09248 112.466393 
L 175.18176 143.852206 
L 175.27104 143.725668 
L 175.36032 117.690609 
L 175.4496 125.058953 
L 175.53888 142.975912 
L 175.62816 107.986296 
L 175.71744 117.787029 
L 175.80672 99.471908 
L 175.98528 121.613012 
L 176.07456 91.290369 
L 176.16384 91.550921 
L 176.25312 148.180071 
L 176.3424 126.153288 
L 176.43168 144.667112 
L 176.52096 101.818503 
L 176.69952 167.865137 
L 176.87808 75.274585 
L 177.14592 138.662372 
L 177.2352 86.782925 
L 177.32448 138.289431 
L 177.50304 103.17007 
L 177.59232 95.366826 
L 177.6816 123.010033 
L 177.86016 99.922819 
L 177.94944 133.24003 
L 178.128 109.283024 
L 178.21728 113.459682 
L 178.30656 124.307915 
L 178.39584 103.537095 
L 178.48512 104.326573 
L 178.5744 104.936245 
L 178.66368 106.574361 
L 178.75296 120.127166 
L 178.84224 92.963862 
L 179.11008 143.377199 
L 179.19936 116.764854 
L 179.37792 156.441298 
L 179.4672 86.139658 
L 179.55648 104.599934 
L 179.64576 94.555733 
L 179.73504 119.043983 
L 179.82432 91.963053 
L 179.9136 97.204183 
L 180.00288 98.097418 
L 180.18144 138.7177 
L 180.27072 131.705906 
L 180.44928 79.445889 
L 180.71712 153.620759 
L 180.89568 97.798599 
L 180.98496 111.642566 
L 181.07424 133.038798 
L 181.16352 108.267939 
L 181.34208 143.54054 
L 181.43136 108.161549 
L 181.52064 112.747157 
L 181.78848 143.277432 
L 181.87776 152.835236 
L 181.96704 144.777423 
L 182.05632 110.867331 
L 182.1456 130.14252 
L 182.32416 106.222045 
L 182.41344 111.861653 
L 182.50272 157.299131 
L 182.592 105.559583 
L 182.68128 149.576797 
L 182.77056 113.810031 
L 182.85984 118.28078 
L 183.0384 100.087467 
L 183.12768 125.774175 
L 183.21696 100.793695 
L 183.39552 158.861653 
L 183.4848 108.837456 
L 183.57408 122.746322 
L 183.66336 113.062358 
L 183.75264 123.195093 
L 184.02048 105.153887 
L 184.19904 121.30039 
L 184.28832 96.919899 
L 184.3776 138.616264 
L 184.46688 93.172823 
L 184.55616 129.503994 
L 184.64544 101.379721 
L 184.73472 129.868206 
L 184.824 108.682152 
L 185.00256 121.23321 
L 185.09184 96.564326 
L 185.18112 119.871203 
L 185.2704 116.348378 
L 185.35968 121.564805 
L 185.44896 143.155537 
L 185.53824 106.1954 
L 185.62752 129.651826 
L 185.7168 91.487332 
L 185.89536 107.447037 
L 185.98464 92.181115 
L 186.07392 134.359667 
L 186.1632 87.441947 
L 186.25248 108.811745 
L 186.34176 98.9055 
L 186.43104 128.350857 
L 186.52032 115.900869 
L 186.6096 82.638056 
L 186.69888 92.564422 
L 186.78816 69.488269 
L 186.96672 132.566992 
L 187.14528 100.39503 
L 187.32384 133.706702 
L 187.41312 126.041514 
L 187.5024 143.992765 
L 187.59168 118.410226 
L 187.68096 149.092744 
L 187.77024 119.885053 
L 187.85952 120.455635 
L 187.9488 119.628746 
L 188.03808 120.269578 
L 188.12736 116.829909 
L 188.21664 88.009728 
L 188.30592 130.95094 
L 188.3952 121.999161 
L 188.48448 89.643331 
L 188.57376 136.626258 
L 188.66304 100.136937 
L 188.75232 123.782013 
L 188.8416 75.275922 
L 189.02016 113.645491 
L 189.10944 102.133226 
L 189.288 128.318974 
L 189.37728 85.955674 
L 189.46656 107.107206 
L 189.55584 107.08891 
L 189.64512 88.123465 
L 189.7344 121.484194 
L 189.82368 104.619274 
L 189.91296 134.115324 
L 190.00224 122.896001 
L 190.09152 156.374773 
L 190.27008 91.664359 
L 190.35936 93.004616 
L 190.44864 113.634453 
L 190.53792 106.340643 
L 190.6272 140.40645 
L 190.71648 115.097634 
L 190.80576 159.518974 
L 190.89504 108.074238 
L 190.98432 109.557735 
L 191.0736 112.170648 
L 191.16288 135.039169 
L 191.25216 121.502473 
L 191.34144 131.362813 
L 191.52 107.128417 
L 191.60928 114.674653 
L 191.69856 148.446941 
L 191.78784 89.904914 
L 191.9664 122.740044 
L 192.05568 125.754029 
L 192.14496 90.824301 
L 192.23424 139.518638 
L 192.32352 110.367552 
L 192.59136 150.981618 
L 192.68064 112.139163 
L 192.76992 118.850254 
L 192.94848 126.034385 
L 193.03776 124.17911 
L 193.21632 87.697637 
L 193.3056 179.365111 
L 193.39488 116.023308 
L 193.48416 135.645395 
L 193.66272 101.697629 
L 193.752 135.956693 
L 193.84128 130.502739 
L 193.93056 124.527057 
L 194.10912 139.200686 
L 194.1984 97.605036 
L 194.28768 106.326202 
L 194.37696 101.303671 
L 194.46624 126.031424 
L 194.55552 115.343731 
L 194.73408 129.804698 
L 194.82336 102.63644 
L 194.91264 114.068908 
L 195.00192 81.85234 
L 195.0912 95.093699 
L 195.18048 168.145133 
L 195.26976 83.760877 
L 195.35904 111.124936 
L 195.44832 107.659892 
L 195.5376 124.968527 
L 195.71616 119.679163 
L 195.80544 89.522213 
L 195.89472 98.358031 
L 195.984 125.444297 
L 196.07328 93.449033 
L 196.16256 113.402763 
L 196.25184 105.008478 
L 196.34112 113.257362 
L 196.4304 99.056478 
L 196.51968 126.522135 
L 196.60896 119.247353 
L 196.69824 91.188342 
L 196.78752 94.432556 
L 196.8768 130.266353 
L 196.96608 87.614138 
L 197.05536 96.235124 
L 197.14464 83.971692 
L 197.50176 146.307448 
L 197.68032 86.751933 
L 197.85888 120.814831 
L 197.94816 120.676188 
L 198.03744 135.719998 
L 198.216 92.755484 
L 198.30528 149.609212 
L 198.39456 115.759186 
L 198.48384 123.733747 
L 198.57312 101.309616 
L 198.6624 125.944842 
L 198.75168 117.048914 
L 198.84096 127.401863 
L 199.01952 84.597142 
L 199.1088 109.515403 
L 199.19808 84.322911 
L 199.28736 136.488004 
L 199.37664 92.189711 
L 199.5552 115.553022 
L 199.64448 112.763528 
L 199.73376 162.303181 
L 199.91232 114.406855 
L 200.0016 137.075726 
L 200.09088 90.006463 
L 200.18016 116.092198 
L 200.26944 112.735526 
L 200.35872 93.126543 
L 200.448 114.824551 
L 200.53728 111.29077 
L 200.62656 102.344375 
L 200.71584 120.357716 
L 200.80512 74.720076 
L 200.98368 124.668698 
L 201.07296 102.65261 
L 201.16224 119.934298 
L 201.25152 100.362849 
L 201.3408 108.527537 
L 201.43008 127.155051 
L 201.51936 102.073472 
L 201.60864 102.512471 
L 201.69792 85.718209 
L 201.7872 124.580523 
L 201.96576 96.898947 
L 202.05504 129.066837 
L 202.14432 89.83459 
L 202.2336 94.816352 
L 202.32288 130.034725 
L 202.41216 120.557041 
L 202.50144 120.903965 
L 202.59072 141.409388 
L 202.68 94.556051 
L 202.85856 182.341792 
L 202.94784 121.766531 
L 203.03712 125.486746 
L 203.1264 128.235309 
L 203.21568 88.870575 
L 203.30496 155.641646 
L 203.39424 104.743982 
L 203.66208 147.259675 
L 203.92992 103.956938 
L 204.0192 109.635107 
L 204.19776 153.038856 
L 204.28704 119.744434 
L 204.37632 121.735402 
L 204.4656 103.746343 
L 204.55488 131.126221 
L 204.73344 120.141911 
L 204.82272 115.53573 
L 205.00128 130.47819 
L 205.09056 148.45691 
L 205.26912 76.051029 
L 205.3584 128.378109 
L 205.44768 101.484849 
L 205.53696 119.387333 
L 205.62624 99.973968 
L 205.71552 155.363835 
L 205.8048 118.957772 
L 205.89408 130.940831 
L 205.98336 108.8638 
L 206.07264 135.65231 
L 206.16192 105.907019 
L 206.34048 129.98154 
L 206.42976 92.597744 
L 206.51904 115.568669 
L 206.60832 108.674208 
L 206.6976 194.450937 
L 206.87616 100.665091 
L 207.05472 133.272367 
L 207.144 104.770017 
L 207.23328 162.685461 
L 207.32256 101.484187 
L 207.41184 126.094219 
L 207.50112 112.328567 
L 207.5904 138.870138 
L 207.67968 138.791797 
L 207.76896 100.402576 
L 207.85824 115.060455 
L 207.94752 170.626506 
L 208.0368 98.174584 
L 208.12608 115.471384 
L 208.21536 112.963744 
L 208.30464 133.092232 
L 208.39392 129.963639 
L 208.57248 147.590022 
L 208.75104 100.441392 
L 208.9296 147.106932 
L 209.10816 82.145164 
L 209.19744 103.842643 
L 209.28672 98.497864 
L 209.376 113.208061 
L 209.46528 102.206999 
L 209.64384 126.313466 
L 209.73312 105.912416 
L 209.8224 112.220005 
L 209.91168 86.028853 
L 210.00096 133.2319 
L 210.09024 124.166344 
L 210.17952 119.269378 
L 210.2688 120.006143 
L 210.35808 102.763973 
L 210.44736 134.630291 
L 210.62592 96.758006 
L 210.7152 124.588748 
L 210.80448 104.819501 
L 210.89376 152.404939 
L 211.07232 112.620274 
L 211.1616 147.25052 
L 211.34016 89.415952 
L 211.42944 99.350929 
L 211.51872 138.457049 
L 211.608 124.969467 
L 211.69728 136.764885 
L 211.78656 129.032458 
L 211.87584 98.619473 
L 212.0544 128.077 
L 212.14368 115.816814 
L 212.23296 122.601143 
L 212.32224 99.015117 
L 212.41152 135.013057 
L 212.5008 97.819422 
L 212.67936 114.528181 
L 212.76864 117.219607 
L 212.85792 127.885475 
L 212.9472 108.358282 
L 213.03648 118.339492 
L 213.12576 147.950451 
L 213.30432 94.211177 
L 213.57216 169.324707 
L 213.92928 110.289565 
L 214.01856 164.102946 
L 214.10784 108.562781 
L 214.19712 113.488576 
L 214.2864 99.444194 
L 214.37568 135.080693 
L 214.46496 107.063415 
L 214.64352 144.998573 
L 214.82208 121.733117 
L 214.91136 173.467437 
L 215.00064 78.991335 
L 215.1792 114.223991 
L 215.26848 117.905429 
L 215.44704 149.070084 
L 215.53632 101.410342 
L 215.6256 126.02972 
L 215.71488 125.531595 
L 215.80416 110.517041 
L 215.98272 122.614723 
L 216.072 115.377706 
L 216.25056 121.813947 
L 216.33984 85.533465 
L 216.42912 166.773022 
L 216.5184 150.893296 
L 216.60768 116.505609 
L 216.69696 177.604441 
L 216.78624 113.253064 
L 216.87552 141.829377 
L 216.9648 109.758697 
L 217.05408 145.085537 
L 217.23264 107.129934 
L 217.32192 112.88911 
L 217.50048 160.302166 
L 217.58976 101.936997 
L 217.67904 104.291554 
L 217.76832 110.537045 
L 217.8576 131.710989 
L 217.94688 123.880919 
L 218.03616 131.55956 
L 218.12544 91.186127 
L 218.21472 116.987999 
L 218.304 111.603213 
L 218.39328 106.24949 
L 218.48256 114.484772 
L 218.57184 90.268636 
L 218.66112 141.967498 
L 218.7504 139.166418 
L 218.83968 140.602138 
L 218.92896 112.984863 
L 219.01824 121.288476 
L 219.10752 99.162074 
L 219.1968 158.663028 
L 219.28608 126.76288 
L 219.37536 173.543285 
L 219.55392 82.015612 
L 219.6432 129.130655 
L 219.91104 87.670806 
L 220.00032 113.326311 
L 220.0896 110.724749 
L 220.26816 128.397239 
L 220.35744 118.494056 
L 220.44672 92.741945 
L 220.536 152.031155 
L 220.71456 70.436194 
L 220.89312 136.526195 
L 220.9824 137.235411 
L 221.07168 99.608575 
L 221.25024 176.398201 
L 221.4288 121.190137 
L 221.51808 134.183077 
L 221.60736 116.210249 
L 221.78592 137.794282 
L 221.8752 120.988954 
L 221.96448 136.873527 
L 222.05376 116.14071 
L 222.14304 124.331777 
L 222.23232 83.861864 
L 222.3216 141.187406 
L 222.41088 91.552867 
L 222.50016 94.883059 
L 222.58944 97.354989 
L 222.67872 160.469738 
L 222.768 122.92381 
L 222.85728 124.874597 
L 222.94656 136.723255 
L 223.03584 117.78713 
L 223.2144 139.559394 
L 223.30368 106.471635 
L 223.39296 148.486017 
L 223.48224 104.445804 
L 223.57152 135.538505 
L 223.6608 108.605478 
L 223.92864 139.655718 
L 224.01792 89.546248 
L 224.1072 153.58857 
L 224.19648 101.429506 
L 224.28576 103.784394 
L 224.37504 124.934979 
L 224.46432 124.511625 
L 224.5536 124.741241 
L 224.64288 104.817915 
L 224.73216 122.913402 
L 224.82144 117.755534 
L 224.91072 133.471325 
L 225 80.70151 
L 225.08928 112.381701 
L 225.17856 104.647705 
L 225.26784 105.586386 
L 225.35712 122.00376 
L 225.4464 173.689935 
L 225.53568 105.704133 
L 225.62496 150.112643 
L 225.80352 111.375271 
L 225.8928 109.1021 
L 225.98208 116.70429 
L 226.07136 102.837807 
L 226.24992 126.952146 
L 226.3392 101.08736 
L 226.51776 121.937478 
L 226.60704 102.35143 
L 226.69632 140.061349 
L 226.7856 122.084802 
L 226.87488 76.09198 
L 226.96416 131.554206 
L 227.05344 121.698292 
L 227.14272 98.789939 
L 227.232 117.18662 
L 227.41056 95.241177 
L 227.6784 128.872839 
L 227.76768 96.657342 
L 227.94624 134.174494 
L 228.03552 145.990339 
L 228.1248 135.561659 
L 228.30336 80.760251 
L 228.39264 141.780046 
L 228.48192 132.965327 
L 228.5712 114.001716 
L 228.66048 123.729227 
L 228.74976 166.614228 
L 228.83904 112.885854 
L 229.0176 144.891544 
L 229.10688 125.183905 
L 229.19616 136.436464 
L 229.28544 94.526531 
L 229.55328 129.926793 
L 229.64256 94.737069 
L 229.9104 128.249096 
L 230.08896 97.955441 
L 230.17824 142.252817 
L 230.26752 140.768062 
L 230.3568 166.212434 
L 230.44608 153.858336 
L 230.62464 117.03679 
L 230.71392 105.737029 
L 230.89248 131.505721 
L 230.98176 137.059755 
L 231.07104 84.309502 
L 231.16032 138.06838 
L 231.2496 120.135049 
L 231.42816 134.651429 
L 231.51744 132.175872 
L 231.696 140.70899 
L 231.78528 110.909246 
L 231.87456 113.893932 
L 232.05312 146.040962 
L 232.1424 104.645729 
L 232.23168 115.308641 
L 232.32096 105.169884 
L 232.41024 156.723117 
L 232.49952 117.43921 
L 232.67808 148.694493 
L 232.85664 124.705534 
L 232.94592 153.202466 
L 233.0352 141.658932 
L 233.12448 97.158607 
L 233.30304 164.747522 
L 233.39232 126.828808 
L 233.4816 128.007729 
L 233.57088 152.215316 
L 233.66016 107.667926 
L 233.928 148.832955 
L 234.01728 137.831273 
L 234.10656 108.988956 
L 234.19584 124.160554 
L 234.28512 110.280312 
L 234.3744 119.81766 
L 234.46368 151.337758 
L 234.55296 96.168867 
L 234.64224 128.695383 
L 234.91008 94.381083 
L 235.08864 139.359587 
L 235.17792 140.905655 
L 235.2672 149.220506 
L 235.35648 119.613455 
L 235.44576 149.851227 
L 235.7136 125.188732 
L 235.80288 155.004368 
L 235.98144 141.187833 
L 236.07072 141.897561 
L 236.33856 76.574869 
L 236.42784 153.519029 
L 236.51712 119.263793 
L 236.6064 119.379187 
L 236.69568 155.679516 
L 236.78496 101.396387 
L 236.87424 133.806924 
L 236.96352 133.566655 
L 237.0528 94.695785 
L 237.23136 129.991032 
L 237.32064 136.762867 
L 237.40992 109.58277 
L 237.58848 139.738205 
L 237.67776 119.346174 
L 237.85632 130.037616 
L 237.9456 130.568922 
L 238.03488 212.584185 
L 238.12416 186.894063 
L 238.21344 106.411422 
L 238.30272 110.788458 
L 238.392 218.278644 
L 238.57056 143.594123 
L 238.65984 93.08452 
L 238.74912 178.474767 
L 238.8384 106.983923 
L 238.92768 167.411185 
L 239.19552 102.445901 
L 239.2848 118.935977 
L 239.37408 109.201547 
L 239.46336 121.37771 
L 239.55264 160.386941 
L 239.7312 125.440477 
L 239.90976 137.237754 
L 239.99904 116.271192 
L 240.1776 183.100269 
L 240.26688 145.249704 
L 240.35616 165.722215 
L 240.44544 106.004629 
L 240.71328 198.609278 
L 240.80256 137.170363 
L 240.89184 164.71996 
L 241.0704 111.830847 
L 241.15968 134.975114 
L 241.24896 106.563573 
L 241.33824 146.166397 
L 241.42752 97.65184 
L 241.5168 167.075684 
L 241.69536 109.661538 
L 241.78464 169.163033 
L 241.9632 114.359436 
L 242.05248 143.534388 
L 242.14176 91.56133 
L 242.23104 143.490965 
L 242.32032 108.188666 
L 242.4096 133.389952 
L 242.49888 126.844891 
L 242.58816 130.695465 
L 242.67744 147.651666 
L 242.76672 142.147889 
L 242.94528 95.549383 
L 243.03456 137.91376 
L 243.21312 103.742321 
L 243.48096 121.171883 
L 243.57024 103.715335 
L 243.7488 145.764563 
L 243.83808 134.729199 
L 243.92736 155.607511 
L 244.01664 141.758033 
L 244.10592 158.112769 
L 244.37376 112.937123 
L 244.46304 138.165879 
L 244.6416 101.257718 
L 244.82016 202.993919 
L 244.90944 106.979173 
L 244.99872 130.41441 
L 245.088 119.160588 
L 245.17728 141.920933 
L 245.26656 121.118969 
L 245.35584 149.765252 
L 245.44512 138.949784 
L 245.5344 141.813858 
L 245.62368 123.260871 
L 245.71296 129.014611 
L 245.80224 179.10149 
L 245.89152 165.497282 
L 245.9808 89.981849 
L 246.07008 132.901677 
L 246.15936 114.128239 
L 246.24864 167.323366 
L 246.33792 134.736361 
L 246.4272 145.331327 
L 246.51648 129.770404 
L 246.69504 140.120436 
L 246.8736 115.143993 
L 247.14144 133.138895 
L 247.23072 111.332464 
L 247.32 125.679585 
L 247.40928 114.475551 
L 247.67712 144.068075 
L 247.85568 119.18287 
L 247.94496 139.905203 
L 248.03424 91.824521 
L 248.12352 148.021119 
L 248.2128 112.024775 
L 248.30208 166.972281 
L 248.39136 118.395307 
L 248.48064 138.38615 
L 248.6592 120.388634 
L 248.74848 128.083819 
L 248.92704 159.875981 
L 249.01632 115.135456 
L 249.1056 159.668273 
L 249.19488 112.673497 
L 249.28416 126.225342 
L 249.37344 107.995283 
L 249.552 189.77047 
L 249.73056 98.567589 
L 249.81984 139.551813 
L 249.90912 139.303858 
L 249.9984 148.488074 
L 250.08768 126.434749 
L 250.17696 166.085165 
L 250.26624 106.146296 
L 250.35552 110.719641 
L 250.4448 101.035742 
L 250.62336 179.21068 
L 250.80192 119.131404 
L 250.8912 108.132337 
L 251.06976 132.390048 
L 251.15904 153.575738 
L 251.24832 147.960342 
L 251.42688 117.951548 
L 251.51616 127.154317 
L 251.60544 126.367901 
L 251.69472 89.619663 
L 251.784 100.417075 
L 251.87328 161.141876 
L 251.96256 115.875359 
L 252.05184 136.219577 
L 252.14112 122.888465 
L 252.2304 124.253889 
L 252.31968 117.69824 
L 252.40896 122.799778 
L 252.49824 113.333581 
L 252.76608 158.988434 
L 252.85536 132.691946 
L 252.94464 161.782015 
L 253.03392 120.5407 
L 253.1232 166.238429 
L 253.30176 90.560857 
L 253.39104 132.367689 
L 253.48032 124.50235 
L 253.65888 159.47135 
L 253.74816 107.348552 
L 253.83744 161.802798 
L 254.016 116.894521 
L 254.19456 143.395258 
L 254.37312 88.43525 
L 254.4624 166.928809 
L 254.55168 164.198244 
L 254.64096 104.721625 
L 254.73024 159.062136 
L 254.81952 80.498991 
L 254.9088 91.141769 
L 254.99808 154.247891 
L 255.08736 97.736397 
L 255.17664 116.19787 
L 255.26592 166.430273 
L 255.3552 110.349568 
L 255.53376 151.966147 
L 255.62304 160.850409 
L 255.71232 110.71589 
L 255.8016 120.610155 
L 255.89088 112.756346 
L 255.98016 142.329906 
L 256.06944 129.760679 
L 256.15872 164.801271 
L 256.248 107.708136 
L 256.33728 118.141717 
L 256.42656 119.323212 
L 256.51584 122.267924 
L 256.60512 120.966211 
L 256.6944 130.862948 
L 256.87296 99.013323 
L 257.05152 160.726328 
L 257.1408 103.336773 
L 257.23008 135.135109 
L 257.31936 117.448116 
L 257.49792 136.126989 
L 257.5872 120.173247 
L 257.67648 166.278148 
L 257.76576 141.191803 
L 257.85504 142.7534 
L 258.0336 208.471303 
L 258.12288 118.724865 
L 258.21216 130.620077 
L 258.30144 141.723728 
L 258.48 126.140085 
L 258.56928 124.491498 
L 258.65856 111.346055 
L 258.74784 133.087365 
L 258.83712 95.11538 
L 258.9264 114.627179 
L 259.01568 89.330524 
L 259.10496 126.496507 
L 259.19424 117.141287 
L 259.28352 131.389796 
L 259.3728 128.933573 
L 259.46208 133.356594 
L 259.55136 123.66956 
L 259.72992 173.417572 
L 259.8192 160.339874 
L 259.99776 145.90034 
L 260.08704 158.058489 
L 260.17632 106.999778 
L 260.2656 147.4226 
L 260.35488 146.245844 
L 260.53344 83.47731 
L 260.712 193.790253 
L 260.80128 96.060257 
L 260.89056 164.870869 
L 260.97984 116.343241 
L 261.06912 118.077105 
L 261.1584 114.809832 
L 261.24768 139.55549 
L 261.33696 117.943094 
L 261.42624 136.631605 
L 261.6048 99.862537 
L 261.87264 175.345346 
L 262.0512 123.129233 
L 262.14048 122.050654 
L 262.22976 165.978507 
L 262.31904 112.874504 
L 262.40832 131.478241 
L 262.4976 125.792656 
L 262.67616 183.245438 
L 262.85472 122.906066 
L 262.944 129.064458 
L 263.12256 165.936234 
L 263.30112 123.323374 
L 263.47968 152.451403 
L 263.65824 137.676733 
L 263.74752 167.872486 
L 263.8368 135.079233 
L 263.92608 140.381457 
L 264.01536 154.25038 
L 264.19392 116.808494 
L 264.46176 134.183145 
L 264.55104 108.691582 
L 264.64032 157.667379 
L 264.7296 153.847356 
L 264.81888 140.768573 
L 264.90816 144.754381 
L 264.99744 133.600275 
L 265.08672 137.029065 
L 265.26528 106.910468 
L 265.35456 133.056674 
L 265.44384 106.185771 
L 265.53312 107.84188 
L 265.6224 101.134311 
L 265.71168 118.408415 
L 265.89024 96.8656 
L 265.97952 237.598761 
L 266.0688 109.459134 
L 266.15808 135.656983 
L 266.24736 126.292306 
L 266.33664 156.251501 
L 266.5152 112.883964 
L 266.60448 127.948534 
L 266.69376 176.592627 
L 266.87232 100.61518 
L 266.9616 103.766676 
L 267.05088 123.424944 
L 267.14016 106.514434 
L 267.22944 149.204884 
L 267.31872 135.52673 
L 267.408 159.92667 
L 267.49728 145.875393 
L 267.58656 84.594747 
L 267.67584 151.709858 
L 267.8544 116.963127 
L 267.94368 145.302215 
L 268.03296 120.999327 
L 268.12224 153.548073 
L 268.21152 111.604136 
L 268.3008 159.877261 
L 268.39008 130.92747 
L 268.47936 151.081291 
L 268.7472 106.143571 
L 268.83648 152.525074 
L 269.10432 93.261666 
L 269.1936 199.692249 
L 269.37216 102.970508 
L 269.46144 171.962908 
L 269.55072 118.91947 
L 269.64 175.301657 
L 269.81856 136.706883 
L 269.99712 121.053681 
L 270.0864 189.457889 
L 270.26496 122.607421 
L 270.35424 123.495994 
L 270.44352 92.053702 
L 270.5328 144.962476 
L 270.62208 139.875777 
L 270.71136 126.564092 
L 270.88992 145.544324 
L 270.9792 142.323868 
L 271.06848 146.75331 
L 271.15776 146.182184 
L 271.24704 134.232043 
L 271.33632 230.724064 
L 271.4256 133.577841 
L 271.51488 148.166193 
L 271.60416 144.031792 
L 271.69344 145.757225 
L 271.78272 140.010253 
L 271.96128 94.898422 
L 272.05056 104.91299 
L 272.22912 151.177188 
L 272.3184 118.732103 
L 272.40768 165.258815 
L 272.49696 111.475261 
L 272.58624 116.423494 
L 272.67552 173.05801 
L 272.7648 110.574629 
L 272.85408 158.349155 
L 272.94336 122.388066 
L 273.12192 138.660527 
L 273.2112 134.087965 
L 273.30048 134.499161 
L 273.38976 117.324863 
L 273.47904 181.406466 
L 273.56832 119.906 
L 273.74688 176.052487 
L 273.92544 113.12825 
L 274.01472 146.822988 
L 274.19328 98.916441 
L 274.28256 85.231544 
L 274.37184 105.490085 
L 274.46112 176.390708 
L 274.63968 134.771075 
L 274.72896 143.076001 
L 274.81824 130.93845 
L 274.90752 141.394342 
L 275.08608 98.945529 
L 275.17536 112.761133 
L 275.26464 144.920472 
L 275.35392 93.169745 
L 275.53248 154.046335 
L 275.71104 89.911604 
L 275.8896 144.358641 
L 275.97888 147.489544 
L 276.06816 95.326241 
L 276.15744 124.261189 
L 276.24672 79.616708 
L 276.336 153.260633 
L 276.42528 139.466759 
L 276.51456 133.940389 
L 276.60384 112.208581 
L 276.69312 140.886342 
L 276.7824 132.598354 
L 276.87168 173.176487 
L 276.96096 138.441801 
L 277.05024 181.119549 
L 277.13952 147.430485 
L 277.2288 169.571495 
L 277.40736 121.717852 
L 277.49664 130.926666 
L 277.58592 146.95796 
L 277.6752 113.206321 
L 277.85376 152.520039 
L 277.94304 154.488563 
L 278.03232 122.3162 
L 278.1216 123.561399 
L 278.21088 183.693377 
L 278.30016 105.986325 
L 278.38944 137.439101 
L 278.47872 112.179449 
L 278.568 136.562634 
L 278.65728 94.893252 
L 278.74656 153.88218 
L 278.83584 91.121478 
L 278.92512 156.596927 
L 279.19296 90.066825 
L 279.28224 163.621719 
L 279.37152 158.073171 
L 279.4608 100.406709 
L 279.55008 140.716697 
L 279.72864 116.636282 
L 279.81792 119.035376 
L 279.99648 152.087534 
L 280.08576 117.531193 
L 280.17504 163.628614 
L 280.26432 113.682049 
L 280.3536 150.89269 
L 280.44288 95.994381 
L 280.62144 145.429433 
L 280.71072 105.988498 
L 280.8 178.126393 
L 280.88928 111.372057 
L 281.06784 161.13483 
L 281.15712 134.450541 
L 281.2464 167.093626 
L 281.51424 111.518504 
L 281.6928 136.240252 
L 281.78208 189.317124 
L 281.96064 92.552902 
L 282.04992 132.661663 
L 282.22848 105.244791 
L 282.31776 95.622897 
L 282.49632 155.121086 
L 282.67488 109.228671 
L 282.76416 119.190043 
L 282.85344 158.889495 
L 283.032 105.695862 
L 283.29984 146.274921 
L 283.38912 111.909612 
L 283.4784 124.697516 
L 283.56768 158.556236 
L 283.65696 91.20499 
L 283.9248 142.451931 
L 284.10336 103.285801 
L 284.28192 169.551414 
L 284.3712 107.784419 
L 284.54976 179.527021 
L 284.63904 113.973351 
L 284.72832 173.571644 
L 284.90688 103.069966 
L 285.08544 118.120329 
L 285.17472 117.94927 
L 285.264 131.254613 
L 285.35328 125.968735 
L 285.44256 150.530793 
L 285.53184 98.419016 
L 285.62112 143.536708 
L 285.7104 113.91885 
L 285.88896 156.454713 
L 285.97824 136.367453 
L 286.06752 154.042045 
L 286.1568 114.730153 
L 286.24608 145.606329 
L 286.33536 128.175539 
L 286.42464 184.549984 
L 286.6032 124.391579 
L 286.69248 149.222668 
L 286.87104 96.001294 
L 287.0496 162.185621 
L 287.31744 96.801668 
L 287.40672 96.582752 
L 287.496 109.669988 
L 287.58528 158.985972 
L 287.67456 120.851136 
L 287.76384 152.034727 
L 287.85312 151.24943 
L 288.03168 131.686748 
L 288.12096 159.718887 
L 288.3888 110.313102 
L 288.47808 135.832419 
L 288.56736 106.350052 
L 288.65664 186.057059 
L 288.8352 121.015592 
L 288.92448 129.512518 
L 289.01376 124.783509 
L 289.10304 133.881982 
L 289.2816 101.646433 
L 289.37088 144.060824 
L 289.63872 99.161158 
L 289.81728 154.555254 
L 289.90656 144.549216 
L 289.99584 99.30044 
L 290.1744 170.204207 
L 290.26368 99.304131 
L 290.35296 126.779443 
L 290.44224 94.769754 
L 290.53152 150.480915 
L 290.71008 98.425109 
L 290.79936 145.52132 
L 290.97792 112.739667 
L 291.15648 153.376988 
L 291.24576 147.284507 
L 291.33504 103.835174 
L 291.42432 177.771917 
L 291.5136 129.05842 
L 291.60288 151.884195 
L 291.69216 82.75272 
L 291.78144 193.117039 
L 291.87072 120.385053 
L 292.04928 161.82076 
L 292.13856 159.148794 
L 292.22784 93.598266 
L 292.31712 136.99312 
L 292.4064 93.458155 
L 292.49568 138.817524 
L 292.58496 130.173982 
L 292.67424 104.005775 
L 292.8528 129.392779 
L 292.94208 88.804794 
L 293.03136 178.907042 
L 293.12064 127.205116 
L 293.20992 163.675041 
L 293.38848 107.494284 
L 293.47776 133.245198 
L 293.65632 99.412448 
L 293.7456 109.623302 
L 293.83488 185.025865 
L 294.01344 96.472477 
L 294.192 155.555378 
L 294.28128 146.152172 
L 294.37056 97.203592 
L 294.45984 146.708668 
L 294.54912 141.019139 
L 294.72768 181.722525 
L 294.90624 78.647242 
L 295.0848 172.624564 
L 295.17408 102.625749 
L 295.26336 138.210307 
L 295.35264 118.000819 
L 295.44192 140.173644 
L 295.5312 114.25173 
L 295.62048 138.28237 
L 295.70976 112.095005 
L 295.88832 134.701301 
L 295.9776 95.424813 
L 296.06688 114.483884 
L 296.15616 84.281434 
L 296.24544 165.117353 
L 296.33472 134.994598 
L 296.424 150.575813 
L 296.51328 135.630517 
L 296.60256 93.06501 
L 296.69184 144.847905 
L 296.78112 106.932541 
L 296.8704 175.313117 
L 297.04896 130.514981 
L 297.13824 145.515991 
L 297.22752 111.910071 
L 297.3168 142.280525 
L 297.49536 105.652015 
L 297.58464 125.502186 
L 297.7632 110.289758 
L 297.85248 133.194491 
L 297.94176 130.028161 
L 298.03104 97.692627 
L 298.12032 142.692745 
L 298.2096 114.623116 
L 298.38816 172.594894 
L 298.47744 129.388095 
L 298.56672 129.824515 
L 298.656 97.328492 
L 298.83456 150.499502 
L 298.92384 145.146704 
L 299.01312 105.199801 
L 299.1024 108.767277 
L 299.19168 188.765581 
L 299.37024 118.037633 
L 299.45952 138.969313 
L 299.5488 133.405076 
L 299.63808 134.379171 
L 299.72736 94.479302 
L 299.90592 173.100531 
L 299.9952 124.546356 
L 300.08448 139.260952 
L 300.17376 179.753082 
L 300.35232 111.488239 
L 300.4416 121.877034 
L 300.53088 111.966689 
L 300.62016 116.113297 
L 300.70944 132.736933 
L 300.79872 93.471456 
L 300.888 157.926206 
L 300.97728 143.01292 
L 301.06656 138.034258 
L 301.15584 109.576835 
L 301.24512 115.417692 
L 301.3344 136.810344 
L 301.42368 106.680882 
L 301.51296 142.458353 
L 301.60224 124.229621 
L 301.69152 171.692188 
L 301.87008 75.571543 
L 301.95936 129.996611 
L 302.04864 102.692017 
L 302.13792 163.009122 
L 302.2272 114.420834 
L 302.40576 158.200488 
L 302.58432 130.427054 
L 302.76288 146.078222 
L 302.85216 144.524513 
L 302.94144 117.697746 
L 303.03072 176.115935 
L 303.12 143.913301 
L 303.20928 160.042603 
L 303.29856 129.783424 
L 303.38784 138.613102 
L 303.47712 104.080495 
L 303.74496 162.957886 
L 304.0128 92.862413 
L 304.19136 144.741093 
L 304.28064 113.56916 
L 304.36992 180.018266 
L 304.4592 126.762262 
L 304.54848 157.692992 
L 304.63776 110.735931 
L 304.72704 121.595593 
L 304.81632 115.653132 
L 304.9056 145.164805 
L 305.08416 129.185648 
L 305.17344 128.69952 
L 305.26272 142.480445 
L 305.352 136.900607 
L 305.44128 114.334017 
L 305.53056 132.30528 
L 305.61984 92.847201 
L 305.70912 145.886542 
L 305.88768 112.197795 
L 306.06624 143.316523 
L 306.15552 91.729281 
L 306.2448 141.688944 
L 306.33408 106.656572 
L 306.42336 154.387181 
L 306.51264 123.278512 
L 306.6912 158.322168 
L 306.78048 144.932502 
L 306.86976 101.440505 
L 307.04832 143.881435 
L 307.1376 109.916096 
L 307.31616 144.85922 
L 307.49472 109.936246 
L 307.584 150.067327 
L 307.76256 92.229874 
L 307.85184 149.862794 
L 307.94112 86.619776 
L 308.0304 173.32026 
L 308.11968 114.072028 
L 308.20896 143.300461 
L 308.29824 127.149578 
L 308.4768 152.017265 
L 308.56608 81.609831 
L 308.74464 165.405672 
L 309.01248 123.777461 
L 309.10176 114.709212 
L 309.19104 164.158361 
L 309.45888 115.624083 
L 309.54816 107.064719 
L 309.63744 107.066629 
L 309.72672 109.93796 
L 309.816 102.2608 
L 309.99456 117.272655 
L 310.08384 99.77703 
L 310.2624 191.839238 
L 310.35168 119.061697 
L 310.44096 121.016656 
L 310.53024 118.929122 
L 310.61952 97.616074 
L 310.7088 106.938781 
L 310.79808 136.596519 
L 310.88736 118.709686 
L 310.97664 125.103331 
L 311.06592 98.480835 
L 311.1552 99.405944 
L 311.24448 118.627118 
L 311.33376 78.697892 
L 311.51232 131.555825 
L 311.6016 215.898968 
L 311.78016 135.32387 
L 311.86944 136.603378 
L 311.95872 113.284812 
L 312.13728 152.009146 
L 312.31584 124.832676 
L 312.40512 134.77661 
L 312.4944 131.811904 
L 312.67296 142.880471 
L 312.76224 148.645302 
L 312.85152 99.768844 
L 312.9408 169.457206 
L 313.11936 110.56664 
L 313.29792 160.393876 
L 313.3872 126.565469 
L 313.47648 155.991568 
L 313.56576 124.790855 
L 313.65504 134.541111 
L 313.74432 130.06384 
L 313.8336 146.49806 
L 313.92288 127.595958 
L 314.01216 128.076353 
L 314.10144 127.762619 
L 314.19072 152.962703 
L 314.36928 91.140021 
L 314.54784 100.068758 
L 314.63712 156.432847 
L 314.7264 132.099325 
L 314.81568 150.277919 
L 314.90496 98.553138 
L 314.99424 139.73383 
L 315.08352 93.010431 
L 315.1728 106.820415 
L 315.26208 137.852225 
L 315.35136 126.814467 
L 315.44064 143.391022 
L 315.52992 102.13187 
L 315.6192 151.27887 
L 315.79776 107.278799 
L 315.97632 155.79328 
L 316.0656 106.072399 
L 316.15488 194.521769 
L 316.24416 117.165339 
L 316.33344 157.656928 
L 316.42272 121.726772 
L 316.512 141.347696 
L 316.60128 121.895628 
L 316.69056 152.944726 
L 316.77984 139.231306 
L 316.9584 91.246493 
L 317.04768 98.347616 
L 317.22624 153.915165 
L 317.31552 137.490161 
L 317.4048 119.414982 
L 317.58336 178.357757 
L 317.76192 122.635859 
L 317.94048 148.87979 
L 318.02976 116.095355 
L 318.11904 127.151308 
L 318.20832 171.708197 
L 318.2976 118.784203 
L 318.38688 119.814277 
L 318.56544 148.518386 
L 318.65472 109.192035 
L 318.744 136.257215 
L 318.92256 90.825642 
L 319.01184 122.633075 
L 319.10112 115.931301 
L 319.1904 92.085475 
L 319.27968 111.306488 
L 319.45824 164.27681 
L 319.6368 111.283559 
L 319.72608 141.495772 
L 319.90464 90.651608 
L 319.99392 163.872341 
L 320.17248 121.1099 
L 320.35104 157.931807 
L 320.44032 109.555738 
L 320.5296 145.043379 
L 320.61888 115.017941 
L 320.79744 149.195789 
L 320.88672 86.657119 
L 320.976 172.856005 
L 321.15456 107.079486 
L 321.24384 181.89438 
L 321.33312 130.41359 
L 321.51168 158.759341 
L 321.60096 110.49252 
L 321.69024 136.883273 
L 321.8688 113.186825 
L 322.04736 156.020716 
L 322.13664 115.037143 
L 322.22592 132.002104 
L 322.3152 108.042896 
L 322.40448 151.323009 
L 322.67232 113.947946 
L 322.85088 196.245905 
L 322.94016 168.264925 
L 323.02944 97.78508 
L 323.11872 130.775176 
L 323.208 129.261216 
L 323.29728 99.084108 
L 323.38656 165.440438 
L 323.47584 114.833357 
L 323.56512 153.022281 
L 323.6544 136.655902 
L 323.83296 150.286694 
L 323.92224 151.115396 
L 324.1008 110.309283 
L 324.19008 152.798937 
L 324.27936 115.942267 
L 324.36864 242.856537 
L 324.45792 125.522864 
L 324.5472 217.039481 
L 324.72576 80.138375 
L 324.81504 170.075302 
L 324.90432 92.551714 
L 324.9936 99.247241 
L 325.08288 104.678994 
L 325.26144 163.919418 
L 325.44 99.229324 
L 325.52928 124.854728 
L 325.61856 187.922172 
L 325.70784 172.786794 
L 325.8864 136.178972 
L 325.97568 162.047116 
L 326.15424 105.718318 
L 326.51136 135.218054 
L 326.60064 182.166771 
L 326.68992 159.918005 
L 326.86848 84.851327 
L 327.04704 139.188925 
L 327.13632 138.356582 
L 327.2256 153.026277 
L 327.49344 114.90635 
L 327.76128 239.140134 
L 327.85056 120.915811 
L 327.93984 131.522534 
L 328.20768 100.634351 
L 328.29696 161.392674 
L 328.38624 151.427696 
L 328.47552 195.171997 
L 328.5648 95.067385 
L 328.74336 183.33094 
L 328.83264 180.848976 
L 328.92192 151.023631 
L 329.0112 153.016406 
L 329.10048 157.144598 
L 329.18976 138.966924 
L 329.27904 157.118622 
L 329.36832 105.361155 
L 329.4576 184.147399 
L 329.54688 125.230571 
L 329.81472 167.556873 
L 329.904 116.12882 
L 330.08256 201.424771 
L 330.17184 122.452904 
L 330.26112 125.09814 
L 330.3504 79.975837 
L 330.52896 119.790247 
L 330.61824 125.059978 
L 330.70752 116.456715 
L 330.88608 148.644139 
L 330.97536 158.450909 
L 331.06464 127.12359 
L 331.15392 161.045686 
L 331.2432 142.721943 
L 331.33248 186.738449 
L 331.42176 121.327441 
L 331.51104 148.703361 
L 331.60032 102.014903 
L 331.6896 136.845821 
L 331.77888 106.731811 
L 331.95744 131.768075 
L 332.04672 113.7725 
L 332.31456 158.617735 
L 332.40384 127.313906 
L 332.5824 159.970877 
L 332.67168 114.077056 
L 332.76096 192.384907 
L 332.85024 114.064503 
L 333.0288 177.104858 
L 333.11808 108.616581 
L 333.20736 174.341845 
L 333.29664 158.710547 
L 333.4752 102.921363 
L 333.74304 152.62835 
L 333.83232 124.178046 
L 333.9216 140.455838 
L 334.01088 101.60681 
L 334.10016 113.800768 
L 334.18944 218.930739 
L 334.368 97.515796 
L 334.45728 93.286054 
L 334.54656 153.277973 
L 334.63584 145.065418 
L 334.72512 144.014013 
L 334.8144 185.036546 
L 334.90368 118.81675 
L 334.99296 134.687398 
L 335.17152 210.006337 
L 335.2608 81.827929 
L 335.52864 147.772951 
L 335.61792 154.81951 
L 335.79648 131.886328 
L 335.88576 135.629107 
L 335.97504 131.996429 
L 336.1536 138.63538 
L 336.24288 136.464683 
L 336.42144 142.357228 
L 336.51072 122.552215 
L 336.6 163.35148 
L 336.68928 138.660655 
L 336.77856 156.802093 
L 336.86784 153.387992 
L 336.95712 164.045886 
L 337.13568 121.408101 
L 337.22496 128.13976 
L 337.31424 108.150797 
L 337.4928 141.828982 
L 337.67136 127.302559 
L 337.76064 125.220741 
L 337.9392 162.164383 
L 338.02848 216.890555 
L 338.11776 126.282579 
L 338.29632 173.879586 
L 338.3856 160.355659 
L 338.47488 113.709862 
L 338.56416 244.490438 
L 338.65344 153.732368 
L 338.74272 155.901565 
L 338.832 136.868516 
L 338.92128 155.749168 
L 339.01056 140.706003 
L 339.09984 90.723867 
L 339.18912 164.293434 
L 339.2784 98.772023 
L 339.36768 99.551358 
L 339.54624 134.286534 
L 339.63552 144.74568 
L 339.7248 112.463867 
L 339.81408 200.775412 
L 339.90336 179.37732 
L 340.08192 135.025574 
L 340.1712 148.375859 
L 340.26048 180.174099 
L 340.34976 135.491641 
L 340.43904 161.021744 
L 340.6176 142.893769 
L 340.70688 183.442754 
L 340.79616 99.354959 
L 340.97472 219.396582 
L 341.064 180.480507 
L 341.15328 192.31842 
L 341.24256 182.182338 
L 341.33184 117.528691 
L 341.42112 148.831879 
L 341.5104 125.102617 
L 341.59968 168.19359 
L 341.68896 156.512893 
L 341.77824 172.020392 
L 341.86752 169.897578 
L 341.9568 176.677375 
L 342.13536 111.283815 
L 342.31392 193.573169 
L 342.4032 110.230587 
L 342.49248 159.829162 
L 342.58176 127.601511 
L 342.67104 153.655487 
L 342.76032 130.676329 
L 342.8496 189.199015 
L 342.93888 147.104009 
L 343.02816 172.281624 
L 343.20672 98.414865 
L 343.296 169.977242 
L 343.38528 113.349404 
L 343.47456 151.158225 
L 343.56384 99.88682 
L 343.65312 181.354439 
L 343.83168 127.608832 
L 343.92096 138.04671 
L 344.01024 105.79794 
L 344.09952 108.027597 
L 344.36736 152.707405 
L 344.45664 102.023679 
L 344.54592 152.565727 
L 344.6352 144.414799 
L 344.72448 156.666136 
L 344.81376 121.268015 
L 344.90304 195.868978 
L 345.0816 124.227963 
L 345.34944 152.465026 
L 345.43872 143.67002 
L 345.70656 196.380421 
L 345.88512 88.402807 
L 345.9744 146.330081 
L 346.15296 95.70461 
L 346.24224 144.821979 
L 346.33152 119.049216 
L 346.4208 132.611327 
L 346.51008 124.071012 
L 346.59936 131.587467 
L 346.68864 127.61156 
L 346.77792 158.547151 
L 346.8672 144.6849 
L 346.95648 101.832931 
L 347.13504 155.42628 
L 347.22432 126.56905 
L 347.3136 151.900435 
L 347.40288 115.18772 
L 347.58144 158.352078 
L 347.76 145.606143 
L 347.84928 167.494507 
L 347.93856 124.285843 
L 348.02784 127.415257 
L 348.11712 187.716086 
L 348.29568 157.740142 
L 348.38496 71.442979 
L 348.47424 147.967497 
L 348.56352 110.286366 
L 348.6528 148.590221 
L 348.74208 124.116338 
L 348.83136 150.505981 
L 349.00992 104.689625 
L 349.0992 189.504113 
L 349.18848 138.83294 
L 349.36704 176.759049 
L 349.5456 114.541548 
L 349.63488 122.023814 
L 349.72416 103.222612 
L 349.81344 161.329246 
L 350.08128 95.715927 
L 350.25984 169.103993 
L 350.34912 107.333941 
L 350.52768 176.133288 
L 350.61696 113.924281 
L 350.70624 131.954902 
L 350.79552 109.470387 
L 350.97408 162.153783 
L 351.06336 150.460873 
L 351.15264 169.380427 
L 351.24192 125.953386 
L 351.3312 140.468943 
L 351.42048 113.435298 
L 351.50976 175.439414 
L 351.59904 144.416713 
L 351.86688 185.035339 
L 351.95616 93.362341 
L 352.04544 167.196043 
L 352.224 115.31738 
L 352.49184 164.529913 
L 352.58112 154.546247 
L 352.75968 114.44779 
L 352.84896 166.495976 
L 353.02752 123.968338 
L 353.1168 170.908907 
L 353.20608 140.656237 
L 353.29536 185.329547 
L 353.38464 149.629389 
L 353.47392 166.237859 
L 353.5632 120.385344 
L 353.65248 150.890424 
L 353.83104 101.853047 
L 353.92032 104.165865 
L 354.0096 98.217155 
L 354.09888 119.176421 
L 354.18816 169.611817 
L 354.27744 118.555255 
L 354.456 171.092198 
L 354.54528 107.430677 
L 354.63456 118.100081 
L 354.81312 113.054665 
L 354.9024 104.56216 
L 355.08096 166.727377 
L 355.17024 162.360786 
L 355.25952 125.523451 
L 355.3488 167.536774 
L 355.43808 162.388722 
L 355.52736 134.63848 
L 355.61664 173.908152 
L 355.88448 100.135734 
L 355.97376 169.453036 
L 356.06304 153.158856 
L 356.2416 117.011535 
L 356.33088 118.344188 
L 356.42016 95.377607 
L 356.50944 173.200639 
L 356.688 112.28848 
L 356.77728 122.870925 
L 356.86656 95.834853 
L 356.95584 152.990449 
L 357.04512 119.389438 
L 357.1344 155.70178 
L 357.22368 152.217619 
L 357.31296 122.548149 
L 357.49152 167.760645 
L 357.67008 120.134572 
L 357.75936 148.959264 
L 357.84864 125.244577 
L 358.0272 206.320337 
L 358.20576 125.654003 
L 358.29504 159.728253 
L 358.4736 130.812557 
L 358.65216 160.612169 
L 358.74144 164.130638 
L 358.92 114.717314 
L 359.00928 127.05432 
L 359.09856 170.203762 
L 359.18784 83.572823 
L 359.27712 185.659008 
L 359.45568 109.057254 
L 359.54496 120.754578 
L 359.63424 110.912436 
L 359.72352 203.331857 
L 359.8128 100.311228 
L 359.90208 179.16161 
L 360.08064 105.331113 
L 360.16992 218.317152 
L 360.34848 123.65257 
L 360.43776 114.862498 
L 360.52704 119.791529 
L 360.7056 164.137743 
L 360.88416 133.735399 
L 361.06272 160.894796 
L 361.24128 98.419431 
L 361.33056 285.408 
L 361.41984 94.517248 
L 361.50912 159.07054 
L 361.5984 113.200761 
L 361.68768 135.191625 
L 361.77696 189.491895 
L 361.86624 126.918361 
L 361.95552 141.65881 
L 362.13408 152.901353 
L 362.22336 142.726107 
L 362.40192 100.413183 
L 362.4912 167.277525 
L 362.58048 140.810912 
L 362.66976 153.244945 
L 362.75904 209.11382 
L 362.84832 136.474449 
L 362.9376 159.184589 
L 363.02688 118.229696 
L 363.11616 189.763385 
L 363.29472 125.098328 
L 363.47328 120.3893 
L 363.56256 168.044651 
L 363.8304 118.059699 
L 363.91968 140.958897 
L 364.00896 128.646345 
L 364.09824 149.98568 
L 364.18752 199.609139 
L 364.36608 136.001432 
L 364.45536 140.223662 
L 364.54464 182.035794 
L 364.81248 101.978342 
L 364.99104 160.149123 
L 365.08032 157.677066 
L 365.1696 137.237084 
L 365.25888 141.225006 
L 365.34816 132.676208 
L 365.43744 164.005337 
L 365.52672 110.869632 
L 365.70528 158.836382 
L 365.79456 115.028651 
L 365.88384 136.921624 
L 365.97312 108.590441 
L 366.0624 146.161288 
L 366.15168 145.349491 
L 366.24096 148.677527 
L 366.33024 145.877255 
L 366.41952 132.993907 
L 366.5088 152.289875 
L 366.59808 149.31833 
L 366.68736 153.627786 
L 366.77664 163.702711 
L 367.04448 110.017537 
L 367.13376 147.408279 
L 367.22304 94.078456 
L 367.31232 149.135596 
L 367.4016 96.077426 
L 367.58016 204.419089 
L 367.66944 92.21902 
L 367.848 167.204977 
L 367.93728 151.860815 
L 368.02656 158.154853 
L 368.11584 127.39969 
L 368.20512 131.719293 
L 368.38368 152.652097 
L 368.65152 118.937694 
L 368.7408 153.133078 
L 368.83008 125.575704 
L 368.91936 131.783438 
L 369.00864 134.046544 
L 369.09792 160.185527 
L 369.1872 132.178437 
L 369.27648 164.240029 
L 369.36576 128.212601 
L 369.54432 185.844322 
L 369.72288 163.729918 
L 369.81216 122.608734 
L 369.99072 161.752578 
L 370.16928 116.104684 
L 370.25856 117.99468 
L 370.43712 144.705782 
L 370.5264 124.158274 
L 370.70496 155.62151 
L 370.79424 114.48229 
L 370.88352 117.220927 
L 370.9728 170.545934 
L 371.06208 125.112195 
L 371.15136 136.475034 
L 371.24064 128.343159 
L 371.32992 175.582066 
L 371.50848 133.695571 
L 371.59776 139.648021 
L 371.68704 103.053467 
L 371.77632 154.037136 
L 371.8656 121.623353 
L 371.95488 147.863945 
L 372.04416 140.252741 
L 372.13344 161.897447 
L 372.22272 143.648144 
L 372.312 149.46408 
L 372.40128 178.269355 
L 372.57984 108.894259 
L 372.66912 219.255731 
L 372.7584 127.62231 
L 372.84768 180.925647 
L 372.93696 127.918206 
L 373.02624 142.113919 
L 373.29408 98.080688 
L 373.38336 90.757375 
L 373.56192 157.380275 
L 373.6512 180.609373 
L 373.82976 110.603235 
L 374.00832 182.029344 
L 374.0976 104.062127 
L 374.36544 158.850884 
L 374.45472 158.337925 
L 374.544 152.709515 
L 374.63328 209.178354 
L 374.72256 152.235201 
L 374.81184 152.989879 
L 374.9904 168.789798 
L 375.07968 207.256688 
L 375.16896 123.542806 
L 375.25824 127.95727 
L 375.4368 182.11545 
L 375.61536 112.905872 
L 375.70464 112.987438 
L 375.79392 172.095717 
L 375.8832 89.845722 
L 376.15104 198.91527 
L 376.41888 115.46103 
L 376.50816 168.433842 
L 376.59744 145.661432 
L 376.68672 165.614916 
L 376.776 131.125864 
L 376.86528 145.434194 
L 377.04384 103.814239 
L 377.13312 162.559949 
L 377.2224 77.138202 
L 377.31168 139.961223 
L 377.40096 81.760546 
L 377.49024 165.33378 
L 377.57952 102.33654 
L 377.75808 149.332377 
L 377.93664 84.95159 
L 378.02592 145.725356 
L 378.1152 125.471215 
L 378.20448 158.954275 
L 378.29376 127.63628 
L 378.47232 165.167011 
L 378.65088 122.433975 
L 378.74016 154.113121 
L 378.82944 123.14109 
L 378.91872 161.966013 
L 379.008 127.611293 
L 379.09728 177.893949 
L 379.27584 131.268451 
L 379.36512 140.82824 
L 379.4544 108.050303 
L 379.54368 182.529843 
L 379.63296 114.909812 
L 379.72224 172.860894 
L 380.07936 121.341351 
L 380.16864 196.041512 
L 380.25792 143.624478 
L 380.3472 158.829551 
L 380.52576 109.974955 
L 380.70432 200.551714 
L 380.7936 120.70995 
L 380.97216 168.344862 
L 381.06144 130.42259 
L 381.15072 135.020973 
L 381.24 222.427201 
L 381.32928 155.939885 
L 381.41856 176.851127 
L 381.50784 79.684768 
L 381.59712 163.3455 
L 381.6864 99.746079 
L 381.86496 165.252393 
L 381.95424 130.965683 
L 382.04352 144.324077 
L 382.1328 124.737339 
L 382.22208 176.051179 
L 382.31136 131.542119 
L 382.40064 132.003959 
L 382.48992 121.679116 
L 382.5792 129.315528 
L 382.66848 87.117704 
L 382.93632 144.821014 
L 383.0256 119.859601 
L 383.11488 195.038162 
L 383.29344 100.510169 
L 383.472 189.712258 
L 383.65056 104.07227 
L 383.73984 140.766626 
L 383.82912 127.277862 
L 383.9184 239.149119 
L 384.00768 153.481755 
L 384.09696 170.52348 
L 384.18624 99.511658 
L 384.45408 182.712176 
L 384.54336 125.855818 
L 384.63264 126.170263 
L 384.72192 123.053056 
L 384.90048 140.671457 
L 384.98976 112.413793 
L 385.16832 153.620552 
L 385.2576 148.223802 
L 385.52544 108.978262 
L 385.61472 118.729982 
L 385.704 178.898061 
L 385.88256 120.479489 
L 385.97184 145.465142 
L 386.06112 142.311784 
L 386.1504 124.799103 
L 386.23968 222.222442 
L 386.32896 135.861869 
L 386.41824 152.117208 
L 386.50752 155.595131 
L 386.5968 193.41746 
L 386.68608 181.813931 
L 386.77536 143.343018 
L 386.86464 185.849391 
L 386.95392 177.831324 
L 387.0432 89.744867 
L 387.13248 158.660987 
L 387.22176 121.682599 
L 387.31104 126.547636 
L 387.4896 184.864914 
L 387.57888 113.564948 
L 387.66816 184.314489 
L 387.75744 113.431522 
L 387.84672 128.001548 
L 387.936 149.715544 
L 388.02528 118.900618 
L 388.11456 159.281745 
L 388.20384 134.382753 
L 388.3824 160.206414 
L 388.47168 141.105466 
L 388.56096 142.026769 
L 388.65024 210.221465 
L 388.73952 87.57038 
L 388.8288 188.427859 
L 388.91808 127.745463 
L 389.00736 136.622906 
L 389.09664 131.656321 
L 389.18592 180.738834 
L 389.2752 126.026706 
L 389.45376 168.496958 
L 389.7216 115.89067 
L 389.81088 136.340752 
L 389.90016 103.611819 
L 389.98944 185.729609 
L 390.07872 149.234168 
L 390.168 160.876413 
L 390.25728 139.397741 
L 390.34656 199.019996 
L 390.43584 133.041574 
L 390.52512 207.338652 
L 390.6144 107.8968 
L 390.70368 121.92121 
L 390.79296 99.4503 
L 390.88224 139.995251 
L 390.97152 118.844465 
L 391.15008 138.043678 
L 391.23936 137.636557 
L 391.32864 174.917089 
L 391.41792 108.936653 
L 391.5072 164.229452 
L 391.59648 93.69209 
L 391.77504 167.857138 
L 391.9536 144.512247 
L 392.04288 158.855141 
L 392.13216 135.943287 
L 392.22144 171.258824 
L 392.31072 136.218711 
L 392.4 140.413245 
L 392.48928 153.536785 
L 392.57856 135.408619 
L 392.66784 145.503933 
L 392.75712 124.412545 
L 392.93568 218.407106 
L 393.11424 126.222374 
L 393.20352 154.435478 
L 393.38208 120.50942 
L 393.47136 159.294567 
L 393.56064 103.887892 
L 393.64992 158.634264 
L 393.7392 121.047858 
L 393.82848 142.911497 
L 393.91776 134.46891 
L 394.00704 158.063924 
L 394.1856 127.607588 
L 394.27488 123.849374 
L 394.36416 106.061309 
L 394.45344 226.914961 
L 394.632 99.941143 
L 394.72128 227.999853 
L 394.89984 116.934093 
L 394.98912 147.1026 
L 395.0784 136.512629 
L 395.16768 173.583254 
L 395.25696 133.684803 
L 395.34624 151.42602 
L 395.43552 110.710172 
L 395.5248 167.050612 
L 395.61408 111.521633 
L 395.70336 131.121978 
L 395.79264 103.95809 
L 395.88192 149.471306 
L 395.9712 116.635883 
L 396.06048 128.248998 
L 396.14976 114.747733 
L 396.23904 161.420375 
L 396.32832 105.524828 
L 396.4176 152.993973 
L 396.59616 102.297872 
L 396.68544 166.844146 
L 396.77472 121.693442 
L 396.864 145.982445 
L 396.95328 91.586551 
L 397.13184 160.625107 
L 397.22112 173.577993 
L 397.3104 142.633782 
L 397.39968 174.121605 
L 397.57824 96.117778 
L 397.66752 169.523491 
L 397.7568 138.795871 
L 397.93536 178.671084 
L 398.02464 123.995125 
L 398.2032 158.5174 
L 398.29248 152.452112 
L 398.38176 156.342519 
L 398.47104 123.67298 
L 398.56032 138.775661 
L 398.6496 115.537192 
L 398.73888 173.81903 
L 398.82816 124.175826 
L 398.91744 169.330876 
L 399.00672 133.591995 
L 399.096 139.338956 
L 399.27456 205.470999 
L 399.36384 139.973387 
L 399.45312 143.630097 
L 399.5424 143.053845 
L 399.63168 146.524459 
L 399.72096 117.718303 
L 399.81024 191.16236 
L 399.89952 163.228355 
L 399.9888 194.566731 
L 400.07808 122.542775 
L 400.16736 180.864462 
L 400.34592 113.744942 
L 400.4352 124.604186 
L 400.52448 144.660691 
L 400.61376 128.290315 
L 400.79232 151.068028 
L 400.8816 136.17776 
L 400.97088 154.44602 
L 401.06016 121.342766 
L 401.328 224.475775 
L 401.50656 95.969993 
L 401.7744 212.384623 
L 401.86368 118.218546 
L 401.95296 132.154799 
L 402.04224 167.120359 
L 402.2208 105.319633 
L 402.39936 140.88325 
L 402.48864 94.756746 
L 402.84576 174.966716 
L 403.02432 116.150481 
L 403.1136 123.514081 
L 403.29216 144.477766 
L 403.38144 124.196031 
L 403.47072 150.259264 
L 403.56 92.691676 
L 403.64928 155.659391 
L 403.73856 128.699358 
L 403.82784 156.033996 
L 403.91712 117.980669 
L 404.0064 129.670456 
L 404.09568 123.569917 
L 404.18496 128.034891 
L 404.27424 157.562552 
L 404.4528 98.569616 
L 404.54208 103.537864 
L 404.63136 115.444661 
L 404.72064 113.059036 
L 404.80992 94.965717 
L 405.07776 149.180077 
L 405.16704 109.126477 
L 405.25632 138.529533 
L 405.43488 117.455018 
L 405.52416 161.402584 
L 405.61344 131.263059 
L 405.70272 176.005694 
L 405.88128 126.110408 
L 405.97056 149.77755 
L 406.05984 99.893512 
L 406.14912 122.127302 
L 406.2384 116.037326 
L 406.41696 172.367696 
L 406.50624 129.011148 
L 406.59552 147.702329 
L 406.6848 91.978276 
L 406.77408 214.228898 
L 406.95264 117.393936 
L 407.22048 199.403585 
L 407.5776 141.583014 
L 407.66688 152.234987 
L 407.75616 208.313907 
L 407.84544 116.631216 
L 407.93472 120.939574 
L 408.024 132.012297 
L 408.11328 176.275071 
L 408.20256 157.891808 
L 408.29184 166.436824 
L 408.38112 187.305911 
L 408.4704 139.890923 
L 408.55968 145.491557 
L 408.64896 155.476519 
L 408.82752 115.718661 
L 409.00608 168.353958 
L 409.09536 116.078192 
L 409.27392 144.111167 
L 409.3632 119.737358 
L 409.45248 127.571718 
L 409.54176 166.395505 
L 409.72032 132.473323 
L 409.8096 195.319991 
L 409.98816 140.276505 
L 410.07744 194.640145 
L 410.256 120.561776 
L 410.34528 122.890491 
L 410.43456 145.230357 
L 410.52384 132.101225 
L 410.61312 140.025042 
L 410.7024 207.213783 
L 410.79168 130.124427 
L 410.88096 164.785814 
L 410.97024 125.28114 
L 411.05952 133.541994 
L 411.1488 124.300375 
L 411.23808 157.114334 
L 411.32736 154.795433 
L 411.41664 94.963079 
L 411.50592 166.930592 
L 411.5952 113.546127 
L 411.68448 166.260894 
L 411.86304 140.719226 
L 411.95232 137.249243 
L 412.0416 121.630128 
L 412.13088 165.219013 
L 412.22016 141.991403 
L 412.30944 212.965369 
L 412.39872 199.082455 
L 412.488 137.838247 
L 412.57728 143.007355 
L 412.66656 171.86576 
L 412.75584 149.505906 
L 412.84512 181.256396 
L 412.9344 175.92673 
L 413.02368 118.858646 
L 413.11296 163.536989 
L 413.29152 126.749256 
L 413.3808 172.326798 
L 413.47008 143.166194 
L 413.64864 165.201853 
L 413.73792 139.93052 
L 413.8272 144.38072 
L 413.91648 205.706309 
L 414.09504 142.951938 
L 414.18432 169.493363 
L 414.2736 172.941236 
L 414.36288 101.667861 
L 414.45216 221.541077 
L 414.54144 133.460398 
L 414.63072 147.624953 
" style="fill:none;stroke:#0000ff;stroke-linecap:square;stroke-width:1.5;"/>
   </g>
   <g id="patch_3">
    <path d="M 57.6 307.584 
L 57.6 41.472 
" style="fill:none;stroke:#000000;stroke-linecap:square;stroke-linejoin:miter;stroke-width:0.8;"/>
   </g>
   <g id="patch_4">
    <path d="M 414.72 307.584 
L 414.72 41.472 
" style="fill:none;stroke:#000000;stroke-linecap:square;stroke-linejoin:miter;stroke-width:0.8;"/>
   </g>
   <g id="patch_5">
    <path d="M 57.6 307.584 
L 414.72 307.584 
" style="fill:none;stroke:#000000;stroke-linecap:square;stroke-linejoin:miter;stroke-width:0.8;"/>
   </g>
   <g id="patch_6">
    <path d="M 57.6 41.472 
L 414.72 41.472 
" style="fill:none;stroke:#000000;stroke-linecap:square;stroke-linejoin:miter;stroke-width:0.8;"/>
   </g>
   <g id="legend_1">
    <g id="patch_7">
     <path d="M 68.8 299.584 
L 269.4375 299.584 
Q 272.6375 299.584 272.6375 296.384 
L 272.6375 274.499 
Q 272.6375 271.299 269.4375 271.299 
L 68.8 271.299 
Q 65.6 271.299 65.6 274.499 
L 65.6 296.384 
Q 65.6 299.584 68.8 299.584 
z
" style="fill:#ffffff;opacity:0.8;stroke:#cccccc;stroke-linejoin:miter;"/>
    </g>
    <g id="line2d_24">
     <path d="M 72 284.2565 
L 104 284.2565 
" style="fill:none;stroke:#0000ff;stroke-linecap:square;stroke-width:1.5;"/>
    </g>
    <g id="line2d_25"/>
    <g id="text_14">
     <!-- cumulative reward -->
     <g transform="translate(116.8 289.8565)scale(0.16 -0.16)">
      <defs>
       <path d="M 3122 3366 
L 3122 2828 
Q 2878 2963 2633 3030 
Q 2388 3097 2138 3097 
Q 1578 3097 1268 2742 
Q 959 2388 959 1747 
Q 959 1106 1268 751 
Q 1578 397 2138 397 
Q 2388 397 2633 464 
Q 2878 531 3122 666 
L 3122 134 
Q 2881 22 2623 -34 
Q 2366 -91 2075 -91 
Q 1284 -91 818 406 
Q 353 903 353 1747 
Q 353 2603 823 3093 
Q 1294 3584 2113 3584 
Q 2378 3584 2631 3529 
Q 2884 3475 3122 3366 
z
" id="DejaVuSans-63" transform="scale(0.015625)"/>
      </defs>
      <use xlink:href="#DejaVuSans-63"/>
      <use x="54.980469" xlink:href="#DejaVuSans-75"/>
      <use x="118.359375" xlink:href="#DejaVuSans-6d"/>
      <use x="215.771484" xlink:href="#DejaVuSans-75"/>
      <use x="279.150391" xlink:href="#DejaVuSans-6c"/>
      <use x="306.933594" xlink:href="#DejaVuSans-61"/>
      <use x="368.212891" xlink:href="#DejaVuSans-74"/>
      <use x="407.421875" xlink:href="#DejaVuSans-69"/>
      <use x="435.205078" xlink:href="#DejaVuSans-76"/>
      <use x="494.384766" xlink:href="#DejaVuSans-65"/>
      <use x="555.908203" xlink:href="#DejaVuSans-20"/>
      <use x="587.695312" xlink:href="#DejaVuSans-72"/>
      <use x="626.558594" xlink:href="#DejaVuSans-65"/>
      <use x="688.082031" xlink:href="#DejaVuSans-77"/>
      <use x="769.869141" xlink:href="#DejaVuSans-61"/>
      <use x="831.148438" xlink:href="#DejaVuSans-72"/>
      <use x="870.511719" xlink:href="#DejaVuSans-64"/>
     </g>
    </g>
   </g>
  </g>
 </g>
 <defs>
  <clipPath id="pdaeb384eac">
   <rect height="266.112" width="357.12" x="57.6" y="41.472"/>
  </clipPath>
 </defs>
</svg>
