<?xml version="1.0" encoding="utf-8" standalone="no"?>
<!DOCTYPE svg PUBLIC "-//W3C//DTD SVG 1.1//EN"
  "http://www.w3.org/Graphics/SVG/1.1/DTD/svg11.dtd">
<svg xmlns:xlink="http://www.w3.org/1999/xlink" width="460.8pt" height="345.6pt" viewBox="0 0 460.8 345.6" xmlns="http://www.w3.org/2000/svg" version="1.1">
 <metadata>
  <rdf:RDF xmlns:dc="http://purl.org/dc/elements/1.1/" xmlns:cc="http://creativecommons.org/ns#" xmlns:rdf="http://www.w3.org/1999/02/22-rdf-syntax-ns#">
   <cc:Work>
    <dc:type rdf:resource="http://purl.org/dc/dcmitype/StillImage"/>
    <dc:date>2021-12-02T18:47:34.982478</dc:date>
    <dc:description>{"agent.algorithm": "RayProximalPolicyOptimization", "agent.algorithm.render_env": false, "agent.algorithm.num_workers": 0, "agent.algorithm.batch_mode": "complete_episodes", "agent.algorithm.lr": 5e-05, "agent.algorithm.train_batch_size": 200, "agent.algorithm.optimizer": "Adam", "agent.algorithm.vf_clip_param": 10, "agent.algorithm.model": {"fcnet_activation": "relu", "fcnet_hiddens": [50, 50]}, "env.env_class": "SchedulerPolicyRayEnvironment", "env.env_config": {"solver_driver": "DEdriver", "solver_driver_args": [10, 10, 14, "best1bin", "normal"], "maximize": false, "steps": 50, "state_metrics_names": ["DifferenceOfBest", "SolverStateHistory"], "state_metrics_config": [[40, false, 1, true, false], [{"F_mean": {"max": [2], "min": [0]}, "F_stdev": {"max": [1], "min": [0]}, "CR_mean": {"max": [1], "min": [0]}, "CR_stdev": {"max": [1], "min": [0]}}, 40]], "reward_metric": "DeltaBest", "reward_metric_config": [false, true, true], "memes_no": 1, "action_space_config": {"F_mean": {"max": 2, "min": 0}, "F_stdev": {"max": 1, "min": 0}, "CR_mean": {"max": 1, "min": 0}, "CR_stdev": {"max": 1, "min": 0}}}}</dc:description>
    <dc:format>image/svg+xml</dc:format>
    <dc:creator>
     <cc:Agent>
      <dc:title>Matplotlib v3.5.0, https://matplotlib.org/</dc:title>
     </cc:Agent>
    </dc:creator>
   </cc:Work>
  </rdf:RDF>
 </metadata>
 <defs>
  <style type="text/css">*{stroke-linejoin: round; stroke-linecap: butt}</style>
 </defs>
 <g id="figure_1">
  <g id="patch_1">
   <path d="M 0 345.6 
L 460.8 345.6 
L 460.8 0 
L 0 0 
z
" style="fill: #ffffff"/>
  </g>
  <g id="axes_1">
   <g id="patch_2">
    <path d="M 57.6 307.584 
L 414.72 307.584 
L 414.72 41.472 
L 57.6 41.472 
z
" style="fill: #ffffff"/>
   </g>
   <g id="matplotlib.axis_1">
    <g id="xtick_1">
     <g id="line2d_1">
      <path d="M 57.6 307.584 
L 57.6 41.472 
" clip-path="url(#pafc85d3122)" style="fill: none; stroke: #b0b0b0; stroke-width: 0.8; stroke-linecap: square"/>
     </g>
     <g id="line2d_2">
      <defs>
       <path id="mb663d281d1" d="M 0 0 
L 0 3.5 
" style="stroke: #000000; stroke-width: 0.8"/>
      </defs>
      <g>
       <use xlink:href="#mb663d281d1" x="57.6" y="307.584" style="stroke: #000000; stroke-width: 0.8"/>
      </g>
     </g>
     <g id="text_1">
      <!-- 0 -->
      <g transform="translate(52.51 326.7415)scale(0.16 -0.16)">
       <defs>
        <path id="DejaVuSans-30" d="M 2034 4250 
Q 1547 4250 1301 3770 
Q 1056 3291 1056 2328 
Q 1056 1369 1301 889 
Q 1547 409 2034 409 
Q 2525 409 2770 889 
Q 3016 1369 3016 2328 
Q 3016 3291 2770 3770 
Q 2525 4250 2034 4250 
z
M 2034 4750 
Q 2819 4750 3233 4129 
Q 3647 3509 3647 2328 
Q 3647 1150 3233 529 
Q 2819 -91 2034 -91 
Q 1250 -91 836 529 
Q 422 1150 422 2328 
Q 422 3509 836 4129 
Q 1250 4750 2034 4750 
z
" transform="scale(0.015625)"/>
       </defs>
       <use xlink:href="#DejaVuSans-30"/>
      </g>
     </g>
    </g>
    <g id="xtick_2">
     <g id="line2d_3">
      <path d="M 146.88 307.584 
L 146.88 41.472 
" clip-path="url(#pafc85d3122)" style="fill: none; stroke: #b0b0b0; stroke-width: 0.8; stroke-linecap: square"/>
     </g>
     <g id="line2d_4">
      <g>
       <use xlink:href="#mb663d281d1" x="146.88" y="307.584" style="stroke: #000000; stroke-width: 0.8"/>
      </g>
     </g>
     <g id="text_2">
      <!-- 1000 -->
      <g transform="translate(126.52 326.7415)scale(0.16 -0.16)">
       <defs>
        <path id="DejaVuSans-31" d="M 794 531 
L 1825 531 
L 1825 4091 
L 703 3866 
L 703 4441 
L 1819 4666 
L 2450 4666 
L 2450 531 
L 3481 531 
L 3481 0 
L 794 0 
L 794 531 
z
" transform="scale(0.015625)"/>
       </defs>
       <use xlink:href="#DejaVuSans-31"/>
       <use xlink:href="#DejaVuSans-30" x="63.623047"/>
       <use xlink:href="#DejaVuSans-30" x="127.246094"/>
       <use xlink:href="#DejaVuSans-30" x="190.869141"/>
      </g>
     </g>
    </g>
    <g id="xtick_3">
     <g id="line2d_5">
      <path d="M 236.16 307.584 
L 236.16 41.472 
" clip-path="url(#pafc85d3122)" style="fill: none; stroke: #b0b0b0; stroke-width: 0.8; stroke-linecap: square"/>
     </g>
     <g id="line2d_6">
      <g>
       <use xlink:href="#mb663d281d1" x="236.16" y="307.584" style="stroke: #000000; stroke-width: 0.8"/>
      </g>
     </g>
     <g id="text_3">
      <!-- 2000 -->
      <g transform="translate(215.8 326.7415)scale(0.16 -0.16)">
       <defs>
        <path id="DejaVuSans-32" d="M 1228 531 
L 3431 531 
L 3431 0 
L 469 0 
L 469 531 
Q 828 903 1448 1529 
Q 2069 2156 2228 2338 
Q 2531 2678 2651 2914 
Q 2772 3150 2772 3378 
Q 2772 3750 2511 3984 
Q 2250 4219 1831 4219 
Q 1534 4219 1204 4116 
Q 875 4013 500 3803 
L 500 4441 
Q 881 4594 1212 4672 
Q 1544 4750 1819 4750 
Q 2544 4750 2975 4387 
Q 3406 4025 3406 3419 
Q 3406 3131 3298 2873 
Q 3191 2616 2906 2266 
Q 2828 2175 2409 1742 
Q 1991 1309 1228 531 
z
" transform="scale(0.015625)"/>
       </defs>
       <use xlink:href="#DejaVuSans-32"/>
       <use xlink:href="#DejaVuSans-30" x="63.623047"/>
       <use xlink:href="#DejaVuSans-30" x="127.246094"/>
       <use xlink:href="#DejaVuSans-30" x="190.869141"/>
      </g>
     </g>
    </g>
    <g id="xtick_4">
     <g id="line2d_7">
      <path d="M 325.44 307.584 
L 325.44 41.472 
" clip-path="url(#pafc85d3122)" style="fill: none; stroke: #b0b0b0; stroke-width: 0.8; stroke-linecap: square"/>
     </g>
     <g id="line2d_8">
      <g>
       <use xlink:href="#mb663d281d1" x="325.44" y="307.584" style="stroke: #000000; stroke-width: 0.8"/>
      </g>
     </g>
     <g id="text_4">
      <!-- 3000 -->
      <g transform="translate(305.08 326.7415)scale(0.16 -0.16)">
       <defs>
        <path id="DejaVuSans-33" d="M 2597 2516 
Q 3050 2419 3304 2112 
Q 3559 1806 3559 1356 
Q 3559 666 3084 287 
Q 2609 -91 1734 -91 
Q 1441 -91 1130 -33 
Q 819 25 488 141 
L 488 750 
Q 750 597 1062 519 
Q 1375 441 1716 441 
Q 2309 441 2620 675 
Q 2931 909 2931 1356 
Q 2931 1769 2642 2001 
Q 2353 2234 1838 2234 
L 1294 2234 
L 1294 2753 
L 1863 2753 
Q 2328 2753 2575 2939 
Q 2822 3125 2822 3475 
Q 2822 3834 2567 4026 
Q 2313 4219 1838 4219 
Q 1578 4219 1281 4162 
Q 984 4106 628 3988 
L 628 4550 
Q 988 4650 1302 4700 
Q 1616 4750 1894 4750 
Q 2613 4750 3031 4423 
Q 3450 4097 3450 3541 
Q 3450 3153 3228 2886 
Q 3006 2619 2597 2516 
z
" transform="scale(0.015625)"/>
       </defs>
       <use xlink:href="#DejaVuSans-33"/>
       <use xlink:href="#DejaVuSans-30" x="63.623047"/>
       <use xlink:href="#DejaVuSans-30" x="127.246094"/>
       <use xlink:href="#DejaVuSans-30" x="190.869141"/>
      </g>
     </g>
    </g>
    <g id="xtick_5">
     <g id="line2d_9">
      <path d="M 414.72 307.584 
L 414.72 41.472 
" clip-path="url(#pafc85d3122)" style="fill: none; stroke: #b0b0b0; stroke-width: 0.8; stroke-linecap: square"/>
     </g>
     <g id="line2d_10">
      <g>
       <use xlink:href="#mb663d281d1" x="414.72" y="307.584" style="stroke: #000000; stroke-width: 0.8"/>
      </g>
     </g>
     <g id="text_5">
      <!-- 4000 -->
      <g transform="translate(394.36 326.7415)scale(0.16 -0.16)">
       <defs>
        <path id="DejaVuSans-34" d="M 2419 4116 
L 825 1625 
L 2419 1625 
L 2419 4116 
z
M 2253 4666 
L 3047 4666 
L 3047 1625 
L 3713 1625 
L 3713 1100 
L 3047 1100 
L 3047 0 
L 2419 0 
L 2419 1100 
L 313 1100 
L 313 1709 
L 2253 4666 
z
" transform="scale(0.015625)"/>
       </defs>
       <use xlink:href="#DejaVuSans-34"/>
       <use xlink:href="#DejaVuSans-30" x="63.623047"/>
       <use xlink:href="#DejaVuSans-30" x="127.246094"/>
       <use xlink:href="#DejaVuSans-30" x="190.869141"/>
      </g>
     </g>
    </g>
    <g id="text_6">
     <!-- Episodes -->
     <g transform="translate(200.5725 346.2265)scale(0.16 -0.16)">
      <defs>
       <path id="DejaVuSans-45" d="M 628 4666 
L 3578 4666 
L 3578 4134 
L 1259 4134 
L 1259 2753 
L 3481 2753 
L 3481 2222 
L 1259 2222 
L 1259 531 
L 3634 531 
L 3634 0 
L 628 0 
L 628 4666 
z
" transform="scale(0.015625)"/>
       <path id="DejaVuSans-70" d="M 1159 525 
L 1159 -1331 
L 581 -1331 
L 581 3500 
L 1159 3500 
L 1159 2969 
Q 1341 3281 1617 3432 
Q 1894 3584 2278 3584 
Q 2916 3584 3314 3078 
Q 3713 2572 3713 1747 
Q 3713 922 3314 415 
Q 2916 -91 2278 -91 
Q 1894 -91 1617 61 
Q 1341 213 1159 525 
z
M 3116 1747 
Q 3116 2381 2855 2742 
Q 2594 3103 2138 3103 
Q 1681 3103 1420 2742 
Q 1159 2381 1159 1747 
Q 1159 1113 1420 752 
Q 1681 391 2138 391 
Q 2594 391 2855 752 
Q 3116 1113 3116 1747 
z
" transform="scale(0.015625)"/>
       <path id="DejaVuSans-69" d="M 603 3500 
L 1178 3500 
L 1178 0 
L 603 0 
L 603 3500 
z
M 603 4863 
L 1178 4863 
L 1178 4134 
L 603 4134 
L 603 4863 
z
" transform="scale(0.015625)"/>
       <path id="DejaVuSans-73" d="M 2834 3397 
L 2834 2853 
Q 2591 2978 2328 3040 
Q 2066 3103 1784 3103 
Q 1356 3103 1142 2972 
Q 928 2841 928 2578 
Q 928 2378 1081 2264 
Q 1234 2150 1697 2047 
L 1894 2003 
Q 2506 1872 2764 1633 
Q 3022 1394 3022 966 
Q 3022 478 2636 193 
Q 2250 -91 1575 -91 
Q 1294 -91 989 -36 
Q 684 19 347 128 
L 347 722 
Q 666 556 975 473 
Q 1284 391 1588 391 
Q 1994 391 2212 530 
Q 2431 669 2431 922 
Q 2431 1156 2273 1281 
Q 2116 1406 1581 1522 
L 1381 1569 
Q 847 1681 609 1914 
Q 372 2147 372 2553 
Q 372 3047 722 3315 
Q 1072 3584 1716 3584 
Q 2034 3584 2315 3537 
Q 2597 3491 2834 3397 
z
" transform="scale(0.015625)"/>
       <path id="DejaVuSans-6f" d="M 1959 3097 
Q 1497 3097 1228 2736 
Q 959 2375 959 1747 
Q 959 1119 1226 758 
Q 1494 397 1959 397 
Q 2419 397 2687 759 
Q 2956 1122 2956 1747 
Q 2956 2369 2687 2733 
Q 2419 3097 1959 3097 
z
M 1959 3584 
Q 2709 3584 3137 3096 
Q 3566 2609 3566 1747 
Q 3566 888 3137 398 
Q 2709 -91 1959 -91 
Q 1206 -91 779 398 
Q 353 888 353 1747 
Q 353 2609 779 3096 
Q 1206 3584 1959 3584 
z
" transform="scale(0.015625)"/>
       <path id="DejaVuSans-64" d="M 2906 2969 
L 2906 4863 
L 3481 4863 
L 3481 0 
L 2906 0 
L 2906 525 
Q 2725 213 2448 61 
Q 2172 -91 1784 -91 
Q 1150 -91 751 415 
Q 353 922 353 1747 
Q 353 2572 751 3078 
Q 1150 3584 1784 3584 
Q 2172 3584 2448 3432 
Q 2725 3281 2906 2969 
z
M 947 1747 
Q 947 1113 1208 752 
Q 1469 391 1925 391 
Q 2381 391 2643 752 
Q 2906 1113 2906 1747 
Q 2906 2381 2643 2742 
Q 2381 3103 1925 3103 
Q 1469 3103 1208 2742 
Q 947 2381 947 1747 
z
" transform="scale(0.015625)"/>
       <path id="DejaVuSans-65" d="M 3597 1894 
L 3597 1613 
L 953 1613 
Q 991 1019 1311 708 
Q 1631 397 2203 397 
Q 2534 397 2845 478 
Q 3156 559 3463 722 
L 3463 178 
Q 3153 47 2828 -22 
Q 2503 -91 2169 -91 
Q 1331 -91 842 396 
Q 353 884 353 1716 
Q 353 2575 817 3079 
Q 1281 3584 2069 3584 
Q 2775 3584 3186 3129 
Q 3597 2675 3597 1894 
z
M 3022 2063 
Q 3016 2534 2758 2815 
Q 2500 3097 2075 3097 
Q 1594 3097 1305 2825 
Q 1016 2553 972 2059 
L 3022 2063 
z
" transform="scale(0.015625)"/>
      </defs>
      <use xlink:href="#DejaVuSans-45"/>
      <use xlink:href="#DejaVuSans-70" x="63.183594"/>
      <use xlink:href="#DejaVuSans-69" x="126.660156"/>
      <use xlink:href="#DejaVuSans-73" x="154.443359"/>
      <use xlink:href="#DejaVuSans-6f" x="206.542969"/>
      <use xlink:href="#DejaVuSans-64" x="267.724609"/>
      <use xlink:href="#DejaVuSans-65" x="331.201172"/>
      <use xlink:href="#DejaVuSans-73" x="392.724609"/>
     </g>
    </g>
   </g>
   <g id="matplotlib.axis_2">
    <g id="ytick_1">
     <g id="line2d_11">
      <path d="M 57.6 285.408 
L 414.72 285.408 
" clip-path="url(#pafc85d3122)" style="fill: none; stroke: #b0b0b0; stroke-width: 0.8; stroke-linecap: square"/>
     </g>
     <g id="line2d_12">
      <defs>
       <path id="m696406ddc0" d="M 0 0 
L -3.5 0 
" style="stroke: #000000; stroke-width: 0.8"/>
      </defs>
      <g>
       <use xlink:href="#m696406ddc0" x="57.6" y="285.408" style="stroke: #000000; stroke-width: 0.8"/>
      </g>
     </g>
     <g id="text_7">
      <!-- 0.0 -->
      <g transform="translate(25.155 291.48675)scale(0.16 -0.16)">
       <defs>
        <path id="DejaVuSans-2e" d="M 684 794 
L 1344 794 
L 1344 0 
L 684 0 
L 684 794 
z
" transform="scale(0.015625)"/>
       </defs>
       <use xlink:href="#DejaVuSans-30"/>
       <use xlink:href="#DejaVuSans-2e" x="63.623047"/>
       <use xlink:href="#DejaVuSans-30" x="95.410156"/>
      </g>
     </g>
    </g>
    <g id="ytick_2">
     <g id="line2d_13">
      <path d="M 57.6 219.689814 
L 414.72 219.689814 
" clip-path="url(#pafc85d3122)" style="fill: none; stroke: #b0b0b0; stroke-width: 0.8; stroke-linecap: square"/>
     </g>
     <g id="line2d_14">
      <g>
       <use xlink:href="#m696406ddc0" x="57.6" y="219.689814" style="stroke: #000000; stroke-width: 0.8"/>
      </g>
     </g>
     <g id="text_8">
      <!-- 0.5 -->
      <g transform="translate(25.155 225.768564)scale(0.16 -0.16)">
       <defs>
        <path id="DejaVuSans-35" d="M 691 4666 
L 3169 4666 
L 3169 4134 
L 1269 4134 
L 1269 2991 
Q 1406 3038 1543 3061 
Q 1681 3084 1819 3084 
Q 2600 3084 3056 2656 
Q 3513 2228 3513 1497 
Q 3513 744 3044 326 
Q 2575 -91 1722 -91 
Q 1428 -91 1123 -41 
Q 819 9 494 109 
L 494 744 
Q 775 591 1075 516 
Q 1375 441 1709 441 
Q 2250 441 2565 725 
Q 2881 1009 2881 1497 
Q 2881 1984 2565 2268 
Q 2250 2553 1709 2553 
Q 1456 2553 1204 2497 
Q 953 2441 691 2322 
L 691 4666 
z
" transform="scale(0.015625)"/>
       </defs>
       <use xlink:href="#DejaVuSans-30"/>
       <use xlink:href="#DejaVuSans-2e" x="63.623047"/>
       <use xlink:href="#DejaVuSans-35" x="95.410156"/>
      </g>
     </g>
    </g>
    <g id="ytick_3">
     <g id="line2d_15">
      <path d="M 57.6 153.971628 
L 414.72 153.971628 
" clip-path="url(#pafc85d3122)" style="fill: none; stroke: #b0b0b0; stroke-width: 0.8; stroke-linecap: square"/>
     </g>
     <g id="line2d_16">
      <g>
       <use xlink:href="#m696406ddc0" x="57.6" y="153.971628" style="stroke: #000000; stroke-width: 0.8"/>
      </g>
     </g>
     <g id="text_9">
      <!-- 1.0 -->
      <g transform="translate(25.155 160.050378)scale(0.16 -0.16)">
       <use xlink:href="#DejaVuSans-31"/>
       <use xlink:href="#DejaVuSans-2e" x="63.623047"/>
       <use xlink:href="#DejaVuSans-30" x="95.410156"/>
      </g>
     </g>
    </g>
    <g id="ytick_4">
     <g id="line2d_17">
      <path d="M 57.6 88.253442 
L 414.72 88.253442 
" clip-path="url(#pafc85d3122)" style="fill: none; stroke: #b0b0b0; stroke-width: 0.8; stroke-linecap: square"/>
     </g>
     <g id="line2d_18">
      <g>
       <use xlink:href="#m696406ddc0" x="57.6" y="88.253442" style="stroke: #000000; stroke-width: 0.8"/>
      </g>
     </g>
     <g id="text_10">
      <!-- 1.5 -->
      <g transform="translate(25.155 94.332192)scale(0.16 -0.16)">
       <use xlink:href="#DejaVuSans-31"/>
       <use xlink:href="#DejaVuSans-2e" x="63.623047"/>
       <use xlink:href="#DejaVuSans-35" x="95.410156"/>
      </g>
     </g>
    </g>
    <g id="text_11">
     <!-- Cumulative Reward -->
     <g transform="translate(17.8275 252.52425)rotate(-90)scale(0.16 -0.16)">
      <defs>
       <path id="DejaVuSans-43" d="M 4122 4306 
L 4122 3641 
Q 3803 3938 3442 4084 
Q 3081 4231 2675 4231 
Q 1875 4231 1450 3742 
Q 1025 3253 1025 2328 
Q 1025 1406 1450 917 
Q 1875 428 2675 428 
Q 3081 428 3442 575 
Q 3803 722 4122 1019 
L 4122 359 
Q 3791 134 3420 21 
Q 3050 -91 2638 -91 
Q 1578 -91 968 557 
Q 359 1206 359 2328 
Q 359 3453 968 4101 
Q 1578 4750 2638 4750 
Q 3056 4750 3426 4639 
Q 3797 4528 4122 4306 
z
" transform="scale(0.015625)"/>
       <path id="DejaVuSans-75" d="M 544 1381 
L 544 3500 
L 1119 3500 
L 1119 1403 
Q 1119 906 1312 657 
Q 1506 409 1894 409 
Q 2359 409 2629 706 
Q 2900 1003 2900 1516 
L 2900 3500 
L 3475 3500 
L 3475 0 
L 2900 0 
L 2900 538 
Q 2691 219 2414 64 
Q 2138 -91 1772 -91 
Q 1169 -91 856 284 
Q 544 659 544 1381 
z
M 1991 3584 
L 1991 3584 
z
" transform="scale(0.015625)"/>
       <path id="DejaVuSans-6d" d="M 3328 2828 
Q 3544 3216 3844 3400 
Q 4144 3584 4550 3584 
Q 5097 3584 5394 3201 
Q 5691 2819 5691 2113 
L 5691 0 
L 5113 0 
L 5113 2094 
Q 5113 2597 4934 2840 
Q 4756 3084 4391 3084 
Q 3944 3084 3684 2787 
Q 3425 2491 3425 1978 
L 3425 0 
L 2847 0 
L 2847 2094 
Q 2847 2600 2669 2842 
Q 2491 3084 2119 3084 
Q 1678 3084 1418 2786 
Q 1159 2488 1159 1978 
L 1159 0 
L 581 0 
L 581 3500 
L 1159 3500 
L 1159 2956 
Q 1356 3278 1631 3431 
Q 1906 3584 2284 3584 
Q 2666 3584 2933 3390 
Q 3200 3197 3328 2828 
z
" transform="scale(0.015625)"/>
       <path id="DejaVuSans-6c" d="M 603 4863 
L 1178 4863 
L 1178 0 
L 603 0 
L 603 4863 
z
" transform="scale(0.015625)"/>
       <path id="DejaVuSans-61" d="M 2194 1759 
Q 1497 1759 1228 1600 
Q 959 1441 959 1056 
Q 959 750 1161 570 
Q 1363 391 1709 391 
Q 2188 391 2477 730 
Q 2766 1069 2766 1631 
L 2766 1759 
L 2194 1759 
z
M 3341 1997 
L 3341 0 
L 2766 0 
L 2766 531 
Q 2569 213 2275 61 
Q 1981 -91 1556 -91 
Q 1019 -91 701 211 
Q 384 513 384 1019 
Q 384 1609 779 1909 
Q 1175 2209 1959 2209 
L 2766 2209 
L 2766 2266 
Q 2766 2663 2505 2880 
Q 2244 3097 1772 3097 
Q 1472 3097 1187 3025 
Q 903 2953 641 2809 
L 641 3341 
Q 956 3463 1253 3523 
Q 1550 3584 1831 3584 
Q 2591 3584 2966 3190 
Q 3341 2797 3341 1997 
z
" transform="scale(0.015625)"/>
       <path id="DejaVuSans-74" d="M 1172 4494 
L 1172 3500 
L 2356 3500 
L 2356 3053 
L 1172 3053 
L 1172 1153 
Q 1172 725 1289 603 
Q 1406 481 1766 481 
L 2356 481 
L 2356 0 
L 1766 0 
Q 1100 0 847 248 
Q 594 497 594 1153 
L 594 3053 
L 172 3053 
L 172 3500 
L 594 3500 
L 594 4494 
L 1172 4494 
z
" transform="scale(0.015625)"/>
       <path id="DejaVuSans-76" d="M 191 3500 
L 800 3500 
L 1894 563 
L 2988 3500 
L 3597 3500 
L 2284 0 
L 1503 0 
L 191 3500 
z
" transform="scale(0.015625)"/>
       <path id="DejaVuSans-20" transform="scale(0.015625)"/>
       <path id="DejaVuSans-52" d="M 2841 2188 
Q 3044 2119 3236 1894 
Q 3428 1669 3622 1275 
L 4263 0 
L 3584 0 
L 2988 1197 
Q 2756 1666 2539 1819 
Q 2322 1972 1947 1972 
L 1259 1972 
L 1259 0 
L 628 0 
L 628 4666 
L 2053 4666 
Q 2853 4666 3247 4331 
Q 3641 3997 3641 3322 
Q 3641 2881 3436 2590 
Q 3231 2300 2841 2188 
z
M 1259 4147 
L 1259 2491 
L 2053 2491 
Q 2509 2491 2742 2702 
Q 2975 2913 2975 3322 
Q 2975 3731 2742 3939 
Q 2509 4147 2053 4147 
L 1259 4147 
z
" transform="scale(0.015625)"/>
       <path id="DejaVuSans-77" d="M 269 3500 
L 844 3500 
L 1563 769 
L 2278 3500 
L 2956 3500 
L 3675 769 
L 4391 3500 
L 4966 3500 
L 4050 0 
L 3372 0 
L 2619 2869 
L 1863 0 
L 1184 0 
L 269 3500 
z
" transform="scale(0.015625)"/>
       <path id="DejaVuSans-72" d="M 2631 2963 
Q 2534 3019 2420 3045 
Q 2306 3072 2169 3072 
Q 1681 3072 1420 2755 
Q 1159 2438 1159 1844 
L 1159 0 
L 581 0 
L 581 3500 
L 1159 3500 
L 1159 2956 
Q 1341 3275 1631 3429 
Q 1922 3584 2338 3584 
Q 2397 3584 2469 3576 
Q 2541 3569 2628 3553 
L 2631 2963 
z
" transform="scale(0.015625)"/>
      </defs>
      <use xlink:href="#DejaVuSans-43"/>
      <use xlink:href="#DejaVuSans-75" x="69.824219"/>
      <use xlink:href="#DejaVuSans-6d" x="133.203125"/>
      <use xlink:href="#DejaVuSans-75" x="230.615234"/>
      <use xlink:href="#DejaVuSans-6c" x="293.994141"/>
      <use xlink:href="#DejaVuSans-61" x="321.777344"/>
      <use xlink:href="#DejaVuSans-74" x="383.056641"/>
      <use xlink:href="#DejaVuSans-69" x="422.265625"/>
      <use xlink:href="#DejaVuSans-76" x="450.048828"/>
      <use xlink:href="#DejaVuSans-65" x="509.228516"/>
      <use xlink:href="#DejaVuSans-20" x="570.751953"/>
      <use xlink:href="#DejaVuSans-52" x="602.539062"/>
      <use xlink:href="#DejaVuSans-65" x="667.521484"/>
      <use xlink:href="#DejaVuSans-77" x="729.044922"/>
      <use xlink:href="#DejaVuSans-61" x="810.832031"/>
      <use xlink:href="#DejaVuSans-72" x="872.111328"/>
      <use xlink:href="#DejaVuSans-64" x="911.474609"/>
     </g>
    </g>
   </g>
   <g id="line2d_19">
    <path d="M 57.6 270.944611 
L 57.68928 195.234475 
L 57.77856 255.329934 
L 57.86784 250.762765 
L 57.95712 270.944611 
L 58.0464 195.234475 
L 58.13568 255.329934 
L 58.22496 250.762765 
L 58.31424 270.944611 
L 58.40352 195.234475 
L 58.4928 255.329934 
L 58.58208 250.762765 
L 58.67136 270.944611 
L 58.76064 195.234475 
L 58.84992 255.329934 
L 58.9392 250.762765 
L 59.02848 270.944611 
L 59.11776 195.234475 
L 59.20704 255.329934 
L 59.29632 250.762765 
L 59.3856 270.944611 
L 59.47488 195.234475 
L 59.56416 255.329934 
L 59.65344 250.762765 
L 59.74272 270.944611 
L 59.832 195.234475 
L 59.92128 255.329934 
L 60.01056 250.762765 
L 60.09984 270.944611 
L 60.18912 195.234475 
L 60.2784 255.329934 
L 60.36768 250.762765 
L 60.45696 270.944611 
L 60.54624 195.234475 
L 60.63552 255.329934 
L 60.7248 250.762765 
L 60.81408 270.944611 
L 60.90336 195.234475 
L 60.99264 255.329934 
L 61.08192 250.762765 
L 61.1712 270.944611 
L 61.26048 195.234475 
L 61.34976 255.329934 
L 61.43904 250.762765 
L 61.52832 270.944611 
L 61.6176 195.234475 
L 61.70688 255.329934 
L 61.79616 250.762765 
L 61.88544 270.944611 
L 61.97472 195.234475 
L 62.064 255.329934 
L 62.15328 250.762765 
L 62.24256 270.944611 
L 62.33184 195.234475 
L 62.42112 255.329934 
L 62.5104 250.762765 
L 62.59968 270.944611 
L 62.68896 195.234475 
L 62.77824 255.329934 
L 62.86752 250.762765 
L 62.9568 270.944611 
L 63.04608 195.234475 
L 63.13536 255.329934 
L 63.22464 250.762765 
L 63.31392 270.944611 
L 63.4032 195.234475 
L 63.49248 255.329934 
L 63.58176 250.762765 
L 63.67104 270.944611 
L 63.76032 195.234475 
L 63.8496 255.329934 
L 63.93888 250.762765 
L 64.02816 270.944611 
L 64.11744 195.234475 
L 64.20672 255.329934 
L 64.296 250.762765 
L 64.38528 270.944611 
L 64.47456 195.234475 
L 64.56384 255.329934 
L 64.65312 250.762765 
L 64.7424 270.944611 
L 64.83168 195.234475 
L 64.92096 255.329934 
L 65.01024 250.762765 
L 65.09952 270.944611 
L 65.1888 195.234475 
L 65.27808 255.329934 
L 65.36736 250.762765 
L 65.45664 270.944611 
L 65.54592 195.234475 
L 65.6352 255.329934 
L 65.72448 250.762765 
L 65.81376 270.944611 
L 65.90304 195.234475 
L 65.99232 255.329934 
L 66.0816 250.762765 
L 66.17088 270.944611 
L 66.26016 195.234475 
L 66.34944 255.329934 
L 66.43872 250.762765 
L 66.528 249.984241 
L 66.61728 231.282093 
L 66.70656 246.63189 
L 66.79584 226.632205 
L 66.88512 270.769192 
L 66.9744 235.075262 
L 67.06368 269.981078 
L 67.15296 248.445475 
L 67.24224 273.728708 
L 67.33152 231.268515 
L 67.4208 234.428026 
L 67.59936 193.605477 
L 67.68864 227.636133 
L 67.77792 218.078738 
L 67.95648 260.079274 
L 68.13504 219.013656 
L 68.22432 245.191744 
L 68.3136 213.776278 
L 68.40288 240.25668 
L 68.49216 225.176363 
L 68.58144 232.351335 
L 68.67072 285.408 
L 68.76 187.645181 
L 68.93856 265.423138 
L 69.02784 232.356003 
L 69.11712 262.360003 
L 69.2064 251.789963 
L 69.29568 252.537031 
L 69.38496 213.703503 
L 69.56352 261.320644 
L 69.6528 233.966794 
L 69.83136 255.423253 
L 69.92064 242.761622 
L 70.00992 246.591143 
L 70.0992 240.568321 
L 70.18848 252.648161 
L 70.27776 243.058753 
L 70.36704 265.626302 
L 70.45632 163.277475 
L 70.63488 246.718754 
L 70.72416 223.192392 
L 70.81344 264.107702 
L 70.90272 235.810245 
L 70.992 261.856169 
L 71.08128 216.810788 
L 71.25984 251.529066 
L 71.34912 251.343314 
L 71.4384 205.677899 
L 71.52768 242.924902 
L 71.61696 212.825177 
L 71.70624 263.729313 
L 71.79552 222.150828 
L 71.97408 259.084456 
L 72.15264 232.841281 
L 72.24192 240.577854 
L 72.3312 217.343097 
L 72.59904 267.744082 
L 72.68832 285.408 
L 72.7776 208.768807 
L 72.86688 253.408512 
L 72.95616 246.829467 
L 73.04544 237.291913 
L 73.13472 206.61351 
L 73.31328 259.150354 
L 73.40256 236.974962 
L 73.49184 242.700686 
L 73.58112 228.857741 
L 73.84896 250.94748 
L 73.93824 217.943534 
L 74.02752 222.251624 
L 74.20608 261.375535 
L 74.29536 212.66725 
L 74.38464 224.228378 
L 74.47392 229.566763 
L 74.5632 264.056144 
L 74.74176 235.995603 
L 74.92032 271.674944 
L 75.0096 222.456159 
L 75.09888 270.158139 
L 75.18816 197.122889 
L 75.27744 212.77715 
L 75.36672 220.467818 
L 75.54528 264.434603 
L 75.63456 242.529076 
L 75.72384 248.503601 
L 75.9024 212.056067 
L 75.99168 248.860111 
L 76.25952 223.629344 
L 76.3488 267.99036 
L 76.43808 235.826962 
L 76.52736 244.615169 
L 76.61664 241.270895 
L 76.70592 261.097433 
L 76.7952 252.751599 
L 76.88448 264.477835 
L 76.97376 251.192596 
L 77.06304 254.623695 
L 77.15232 273.453269 
L 77.2416 198.944186 
L 77.42016 254.183155 
L 77.50944 252.057707 
L 77.59872 256.82867 
L 77.688 245.684926 
L 77.77728 251.895479 
L 77.86656 245.71352 
L 77.95584 278.969936 
L 78.04512 240.909153 
L 78.1344 243.833133 
L 78.22368 235.616071 
L 78.31296 254.038698 
L 78.40224 250.108294 
L 78.49152 256.703554 
L 78.5808 253.400613 
L 78.67008 259.992729 
L 78.75936 202.504424 
L 78.84864 254.666234 
L 78.93792 214.505624 
L 79.20576 243.338558 
L 79.29504 227.077616 
L 79.56288 258.05341 
L 79.65216 240.810878 
L 79.74144 269.398758 
L 79.83072 227.995901 
L 80.00928 256.672993 
L 80.09856 248.061681 
L 80.18784 273.82846 
L 80.3664 217.756882 
L 80.45568 270.927536 
L 80.54496 263.318141 
L 80.63424 274.100481 
L 80.72352 223.505187 
L 80.8128 274.178692 
L 80.90208 239.867166 
L 80.99136 259.263776 
L 81.08064 232.019656 
L 81.16992 238.786715 
L 81.2592 274.804734 
L 81.34848 204.429179 
L 81.52704 272.148062 
L 81.7056 238.333226 
L 81.79488 254.541575 
L 81.88416 248.045875 
L 81.97344 219.723256 
L 82.24128 258.430884 
L 82.33056 215.351195 
L 82.41984 222.354377 
L 82.50912 251.093461 
L 82.5984 238.721238 
L 82.68768 254.360728 
L 82.77696 239.297569 
L 82.86624 255.339329 
L 82.95552 233.556193 
L 83.0448 170.805969 
L 83.13408 242.89707 
L 83.22336 239.869289 
L 83.40192 266.385111 
L 83.4912 263.903392 
L 83.58048 242.109214 
L 83.66976 261.861013 
L 83.75904 230.427471 
L 83.84832 231.492942 
L 84.02688 269.84281 
L 84.20544 228.39528 
L 84.29472 248.547956 
L 84.384 184.691605 
L 84.47328 190.210616 
L 84.65184 261.233579 
L 84.74112 201.500403 
L 84.91968 247.351888 
L 85.18752 201.704587 
L 85.2768 256.908549 
L 85.36608 216.107818 
L 85.45536 273.016621 
L 85.63392 216.407719 
L 85.7232 242.935899 
L 85.90176 194.524626 
L 85.99104 255.172907 
L 86.1696 209.889076 
L 86.43744 267.721834 
L 86.52672 261.10828 
L 86.616 218.158243 
L 86.70528 255.708152 
L 86.79456 226.932339 
L 86.88384 276.151889 
L 86.97312 255.905794 
L 87.0624 199.015521 
L 87.15168 263.525746 
L 87.24096 218.802955 
L 87.33024 250.319617 
L 87.5088 219.720732 
L 87.68736 268.883342 
L 87.77664 240.856575 
L 87.86592 246.548443 
L 88.04448 220.031944 
L 88.13376 218.923828 
L 88.22304 242.741277 
L 88.31232 228.656124 
L 88.49088 257.160407 
L 88.58016 147.742445 
L 88.66944 265.81946 
L 88.75872 237.532834 
L 88.848 250.545196 
L 89.11584 221.721178 
L 89.20512 244.683705 
L 89.2944 203.432609 
L 89.38368 209.687502 
L 89.47296 267.96839 
L 89.56224 263.344374 
L 89.65152 213.992043 
L 89.7408 240.766546 
L 89.83008 214.965079 
L 89.91936 253.402385 
L 90.00864 233.83557 
L 90.09792 249.679441 
L 90.1872 243.154313 
L 90.27648 219.913436 
L 90.36576 229.699566 
L 90.45504 213.100735 
L 90.54432 247.592828 
L 90.6336 196.933435 
L 90.81216 265.21083 
L 90.99072 208.64697 
L 91.08 262.205576 
L 91.16928 256.468575 
L 91.25856 222.564381 
L 91.43712 255.476856 
L 91.5264 256.544724 
L 91.61568 216.454585 
L 91.70496 235.336676 
L 91.79424 222.524871 
L 91.88352 234.303164 
L 91.9728 182.685449 
L 92.06208 261.654598 
L 92.15136 196.414472 
L 92.24064 235.73422 
L 92.32992 231.272168 
L 92.4192 238.176162 
L 92.50848 233.123364 
L 92.59776 248.154945 
L 92.68704 221.445965 
L 92.77632 224.447586 
L 92.8656 239.093744 
L 92.95488 229.471386 
L 93.04416 251.383121 
L 93.13344 229.000168 
L 93.22272 264.590914 
L 93.312 239.51729 
L 93.40128 259.361586 
L 93.49056 253.731659 
L 93.57984 262.431412 
L 93.66912 227.502126 
L 93.84768 255.373533 
L 93.93696 229.107542 
L 94.11552 257.716349 
L 94.2048 162.270967 
L 94.29408 249.879756 
L 94.38336 209.137536 
L 94.56192 255.209395 
L 94.6512 205.139075 
L 94.82976 253.147305 
L 95.0976 234.96814 
L 95.18688 261.96277 
L 95.45472 182.035695 
L 95.544 256.74504 
L 95.63328 227.083881 
L 95.72256 263.97287 
L 95.81184 246.557915 
L 95.90112 257.120064 
L 95.9904 239.080481 
L 96.07968 248.028746 
L 96.16896 235.60917 
L 96.34752 271.164568 
L 96.4368 247.125214 
L 96.52608 261.652547 
L 96.61536 248.380249 
L 96.79392 269.113565 
L 96.8832 226.257264 
L 97.15104 265.901732 
L 97.24032 225.549361 
L 97.3296 250.932184 
L 97.41888 228.739068 
L 97.59744 267.580195 
L 97.68672 217.534001 
L 97.776 255.919748 
L 97.86528 230.818522 
L 97.95456 246.190765 
L 98.04384 219.915073 
L 98.13312 257.857979 
L 98.2224 257.692383 
L 98.31168 263.053648 
L 98.40096 243.23057 
L 98.49024 252.633266 
L 98.6688 225.883837 
L 98.75808 228.553366 
L 98.84736 233.847576 
L 98.93664 248.014815 
L 99.02592 236.258482 
L 99.1152 247.861764 
L 99.29376 206.404874 
L 99.47232 267.640744 
L 99.5616 260.19398 
L 99.65088 266.438388 
L 99.74016 215.735297 
L 99.82944 259.696004 
L 99.91872 184.242839 
L 100.18656 267.732047 
L 100.27584 198.858522 
L 100.36512 255.47349 
L 100.4544 217.833302 
L 100.54368 244.819709 
L 100.63296 218.730572 
L 100.72224 225.493999 
L 100.81152 249.612539 
L 100.9008 240.387378 
L 100.99008 247.982071 
L 101.16864 193.701753 
L 101.25792 240.578227 
L 101.3472 214.79199 
L 101.43648 263.937835 
L 101.52576 210.82516 
L 101.70432 266.531448 
L 101.97216 245.301458 
L 102.06144 249.839182 
L 102.15072 224.385614 
L 102.24 263.866659 
L 102.32928 223.679737 
L 102.41856 224.848545 
L 102.50784 241.947825 
L 102.6864 217.111564 
L 102.86496 249.7395 
L 102.95424 244.070487 
L 103.04352 231.190448 
L 103.1328 231.481636 
L 103.22208 263.619207 
L 103.31136 227.380275 
L 103.48992 246.58233 
L 103.5792 199.625876 
L 103.66848 209.354316 
L 103.84704 222.81912 
L 103.93632 219.093894 
L 104.0256 224.11751 
L 104.29344 259.035259 
L 104.38272 202.082759 
L 104.472 246.672327 
L 104.56128 171.48061 
L 104.65056 251.759416 
L 104.73984 200.822423 
L 104.82912 239.476538 
L 104.9184 222.981635 
L 105.09696 251.829642 
L 105.18624 250.683343 
L 105.27552 222.319296 
L 105.3648 260.223579 
L 105.45408 202.698564 
L 105.54336 216.651231 
L 105.63264 209.262322 
L 105.72192 249.685603 
L 105.90048 189.006072 
L 105.98976 237.275187 
L 106.07904 229.361548 
L 106.16832 228.203489 
L 106.2576 259.296533 
L 106.34688 228.332229 
L 106.43616 239.260665 
L 106.52544 265.548262 
L 106.61472 259.167411 
L 106.704 201.903287 
L 106.79328 218.813302 
L 106.88256 197.625068 
L 107.06112 257.996108 
L 107.1504 220.580803 
L 107.32896 236.412987 
L 107.50752 175.167094 
L 107.68608 264.249418 
L 107.77536 249.676702 
L 107.95392 175.12791 
L 108.0432 251.554468 
L 108.13248 212.810726 
L 108.22176 263.95974 
L 108.31104 228.355508 
L 108.40032 232.72199 
L 108.4896 217.199356 
L 108.66816 275.820781 
L 108.75744 230.737267 
L 108.84672 236.703465 
L 108.936 238.759577 
L 109.02528 274.250915 
L 109.11456 247.79227 
L 109.20384 187.594489 
L 109.29312 236.832167 
L 109.3824 225.82444 
L 109.47168 219.722115 
L 109.56096 245.617152 
L 109.65024 221.120216 
L 109.91808 274.910967 
L 110.09664 212.396272 
L 110.2752 254.000198 
L 110.36448 204.614822 
L 110.45376 244.682751 
L 110.54304 228.747414 
L 110.63232 240.472154 
L 110.7216 227.892785 
L 110.81088 256.645552 
L 110.90016 204.340187 
L 110.98944 255.424668 
L 111.07872 206.981767 
L 111.25728 258.454213 
L 111.34656 218.245545 
L 111.43584 266.148636 
L 111.52512 186.100817 
L 111.6144 265.420291 
L 111.70368 203.873651 
L 111.88224 246.810419 
L 111.97152 241.80035 
L 112.0608 273.632091 
L 112.15008 200.380566 
L 112.23936 203.672887 
L 112.32864 268.401284 
L 112.5072 244.305551 
L 112.59648 193.428817 
L 112.77504 245.412664 
L 113.13216 180.611406 
L 113.22144 190.745092 
L 113.31072 249.977266 
L 113.4 241.842821 
L 113.57856 256.82992 
L 113.66784 213.947884 
L 113.75712 222.684154 
L 113.8464 233.058562 
L 113.93568 189.792247 
L 114.20352 269.837057 
L 114.47136 248.870462 
L 114.56064 263.501707 
L 114.64992 254.792603 
L 114.82848 173.170233 
L 114.91776 236.384099 
L 115.09632 194.187679 
L 115.27488 258.430325 
L 115.36416 195.015659 
L 115.45344 253.814173 
L 115.54272 246.531825 
L 115.632 259.510145 
L 115.72128 232.144615 
L 115.81056 262.772096 
L 115.98912 234.581247 
L 116.0784 250.264236 
L 116.16768 227.867114 
L 116.25696 243.743144 
L 116.34624 213.971972 
L 116.43552 224.692468 
L 116.5248 268.235851 
L 116.61408 246.123909 
L 116.70336 252.155001 
L 116.79264 203.22136 
L 116.9712 239.928766 
L 117.06048 229.135479 
L 117.14976 275.090203 
L 117.23904 236.009644 
L 117.32832 268.89221 
L 117.4176 255.347004 
L 117.50688 260.71913 
L 117.59616 189.095392 
L 117.77472 246.04591 
L 117.864 224.47124 
L 117.95328 227.234894 
L 118.04256 242.086827 
L 118.13184 200.301853 
L 118.3104 247.855087 
L 118.39968 222.239279 
L 118.57824 245.846139 
L 118.66752 240.585133 
L 118.7568 218.228885 
L 118.84608 254.53144 
L 119.02464 215.750271 
L 119.11392 227.109177 
L 119.2032 185.548574 
L 119.38176 271.146258 
L 119.6496 178.001788 
L 119.82816 270.364302 
L 120.096 230.192593 
L 120.18528 235.024939 
L 120.36384 265.305618 
L 120.45312 181.539655 
L 120.5424 240.102936 
L 120.63168 231.438369 
L 120.72096 207.658771 
L 120.81024 248.485381 
L 120.89952 246.726757 
L 121.07808 232.119425 
L 121.16736 261.144603 
L 121.4352 220.776294 
L 121.52448 256.370756 
L 121.61376 255.481825 
L 121.70304 205.591162 
L 121.79232 231.006817 
L 121.8816 220.601872 
L 121.97088 232.975517 
L 122.06016 224.364255 
L 122.14944 263.332867 
L 122.23872 240.422514 
L 122.328 243.772313 
L 122.41728 231.16436 
L 122.50656 245.66082 
L 122.59584 229.97527 
L 122.68512 254.752609 
L 122.7744 248.012069 
L 123.04224 274.43381 
L 123.13152 268.894477 
L 123.2208 148.54463 
L 123.31008 269.001188 
L 123.39936 244.620744 
L 123.48864 246.638237 
L 123.6672 267.053366 
L 123.75648 245.423899 
L 123.84576 258.218725 
L 123.93504 224.835727 
L 124.02432 234.911012 
L 124.1136 208.571091 
L 124.29216 253.71241 
L 124.38144 207.69538 
L 124.47072 216.39466 
L 124.56 241.966963 
L 124.64928 237.366429 
L 124.73856 198.300883 
L 124.91712 243.342033 
L 125.0064 252.986447 
L 125.09568 249.080347 
L 125.18496 219.134794 
L 125.27424 270.28681 
L 125.36352 145.020295 
L 125.54208 276.006979 
L 125.72064 241.972804 
L 125.80992 254.388497 
L 125.8992 238.259517 
L 125.98848 239.753475 
L 126.16704 272.501498 
L 126.43488 204.326098 
L 126.52416 255.540379 
L 126.61344 251.974896 
L 126.70272 231.480864 
L 126.792 250.460109 
L 126.88128 236.1912 
L 126.97056 242.50838 
L 127.05984 263.492279 
L 127.14912 256.924434 
L 127.32768 192.406314 
L 127.41696 269.512382 
L 127.59552 233.557566 
L 127.6848 225.029096 
L 127.77408 253.493249 
L 127.86336 251.364427 
L 128.22048 218.300932 
L 128.39904 254.288301 
L 128.48832 224.579472 
L 128.5776 238.284909 
L 128.66688 220.774693 
L 128.75616 257.991211 
L 128.84544 250.503119 
L 128.93472 170.810069 
L 129.11328 255.765625 
L 129.20256 276.805873 
L 129.38112 241.583199 
L 129.4704 200.363188 
L 129.55968 255.287116 
L 129.64896 242.334154 
L 129.73824 238.033901 
L 129.82752 255.122952 
L 129.9168 226.664699 
L 130.00608 231.610761 
L 130.09536 229.779186 
L 130.18464 223.294831 
L 130.27392 251.090988 
L 130.3632 220.213806 
L 130.45248 256.319124 
L 130.63104 215.503141 
L 130.72032 246.113962 
L 130.8096 218.6347 
L 130.98816 259.75837 
L 131.07744 265.378598 
L 131.16672 263.763545 
L 131.256 260.03276 
L 131.34528 198.379606 
L 131.43456 202.484613 
L 131.52384 277.247689 
L 131.7024 190.165907 
L 131.88096 273.408977 
L 131.97024 235.826053 
L 132.05952 268.776617 
L 132.23808 241.139363 
L 132.32736 264.997339 
L 132.41664 236.78257 
L 132.50592 255.415803 
L 132.5952 252.840496 
L 132.68448 246.160858 
L 132.77376 259.477821 
L 132.86304 251.566156 
L 132.95232 253.186379 
L 133.0416 206.040196 
L 133.22016 260.09392 
L 133.39872 144.46646 
L 133.488 174.225634 
L 133.57728 242.799785 
L 133.66656 242.148688 
L 133.84512 237.383486 
L 134.02368 261.770398 
L 134.11296 201.300692 
L 134.20224 247.537273 
L 134.55936 168.722908 
L 134.64864 241.907546 
L 134.73792 231.461193 
L 135.00576 255.903981 
L 135.09504 197.319795 
L 135.2736 223.170733 
L 135.45216 197.425092 
L 135.72 257.991566 
L 135.80928 181.750237 
L 135.89856 231.1492 
L 135.98784 201.168728 
L 136.1664 240.305841 
L 136.25568 244.416296 
L 136.34496 185.125944 
L 136.52352 234.100007 
L 136.6128 250.18009 
L 136.70208 212.355225 
L 136.79136 273.216677 
L 136.88064 241.97659 
L 136.96992 254.590195 
L 137.0592 253.142719 
L 137.14848 193.072031 
L 137.23776 248.288677 
L 137.32704 226.596564 
L 137.5056 255.762152 
L 137.59488 245.279868 
L 137.68416 259.949775 
L 137.77344 229.963161 
L 137.86272 253.641201 
L 138.04128 246.453447 
L 138.13056 216.141787 
L 138.21984 271.31293 
L 138.30912 248.176372 
L 138.3984 257.244374 
L 138.48768 161.013068 
L 138.66624 256.655667 
L 138.75552 218.701049 
L 138.8448 249.801528 
L 138.93408 193.39229 
L 139.02336 199.654457 
L 139.11264 259.082386 
L 139.20192 184.289545 
L 139.38048 219.956494 
L 139.46976 216.429379 
L 139.55904 235.851548 
L 139.64832 226.403501 
L 139.7376 255.41226 
L 139.82688 173.099694 
L 140.00544 218.875822 
L 140.09472 205.069332 
L 140.27328 273.791092 
L 140.45184 245.187025 
L 140.54112 260.645666 
L 140.6304 207.037645 
L 140.89824 256.796795 
L 140.98752 225.682081 
L 141.0768 265.658596 
L 141.25536 233.409776 
L 141.43392 262.786147 
L 141.5232 259.8426 
L 141.70176 225.95811 
L 141.88032 266.725375 
L 141.9696 215.184125 
L 142.05888 269.674681 
L 142.23744 235.222458 
L 142.32672 253.769111 
L 142.416 247.399098 
L 142.50528 223.221579 
L 142.77312 248.751023 
L 142.8624 220.749067 
L 142.95168 225.817386 
L 143.04096 260.688802 
L 143.21952 223.593579 
L 143.3088 224.246672 
L 143.39808 256.409845 
L 143.48736 175.505492 
L 143.66592 249.978497 
L 143.7552 215.513009 
L 143.93376 248.305065 
L 144.11232 228.076583 
L 144.2016 267.871426 
L 144.29088 220.567697 
L 144.38016 253.709815 
L 144.46944 227.064618 
L 144.55872 260.294601 
L 144.648 218.286628 
L 144.73728 249.747431 
L 144.82656 197.53988 
L 144.91584 246.751873 
L 145.00512 182.635979 
L 145.18368 259.535597 
L 145.27296 240.0035 
L 145.36224 241.176334 
L 145.45152 227.197736 
L 145.5408 243.943832 
L 145.63008 221.162883 
L 145.71936 252.608467 
L 145.80864 201.805701 
L 145.89792 264.582237 
L 145.9872 199.70938 
L 146.07648 214.065135 
L 146.16576 192.846574 
L 146.25504 266.615941 
L 146.4336 200.41255 
L 146.70144 255.160496 
L 146.88 262.971929 
L 146.96928 170.74351 
L 147.05856 259.042249 
L 147.14784 246.360564 
L 147.23712 220.531021 
L 147.41568 260.392256 
L 147.50496 232.284067 
L 147.7728 261.29014 
L 147.86208 203.921149 
L 148.04064 249.982286 
L 148.12992 199.607106 
L 148.2192 246.537774 
L 148.30848 236.892161 
L 148.39776 264.427415 
L 148.57632 222.339981 
L 148.75488 243.026874 
L 148.84416 202.550238 
L 148.93344 260.578782 
L 149.02272 251.884356 
L 149.112 254.273894 
L 149.20128 211.841474 
L 149.37984 247.833414 
L 149.46912 212.672745 
L 149.64768 275.124008 
L 149.73696 237.494235 
L 149.82624 237.740287 
L 149.91552 233.005976 
L 150.09408 261.298798 
L 150.18336 222.593399 
L 150.27264 226.029925 
L 150.36192 223.575967 
L 150.54048 241.008417 
L 150.62976 228.858646 
L 150.80832 268.438739 
L 150.98688 215.937928 
L 151.07616 236.737892 
L 151.25472 195.848726 
L 151.52256 247.480535 
L 151.61184 246.978795 
L 151.70112 210.440801 
L 151.7904 247.771653 
L 151.87968 236.345768 
L 151.96896 173.066253 
L 152.05824 200.306154 
L 152.14752 175.054836 
L 152.2368 239.544141 
L 152.32608 225.524598 
L 152.41536 189.579537 
L 152.50464 216.215299 
L 152.59392 195.62371 
L 152.6832 198.004074 
L 152.77248 238.405098 
L 152.95104 211.851038 
L 153.1296 263.793965 
L 153.21888 228.631077 
L 153.30816 249.436287 
L 153.39744 226.202379 
L 153.576 239.721339 
L 153.66528 162.218082 
L 153.84384 253.330037 
L 153.93312 258.959339 
L 154.0224 247.609008 
L 154.11168 207.916617 
L 154.37952 258.223641 
L 154.55808 224.038632 
L 154.64736 237.41028 
L 154.73664 218.430935 
L 154.82592 254.626887 
L 154.9152 245.388278 
L 155.00448 250.345995 
L 155.09376 242.766584 
L 155.18304 258.406889 
L 155.3616 249.560017 
L 155.45088 266.912586 
L 155.54016 243.203196 
L 155.62944 243.277021 
L 155.71872 239.423242 
L 155.808 219.900703 
L 156.07584 261.246535 
L 156.16512 201.668763 
L 156.2544 269.271213 
L 156.43296 231.286843 
L 156.61152 234.659211 
L 156.7008 250.120742 
L 156.79008 245.940436 
L 156.87936 205.468378 
L 156.96864 259.378949 
L 157.05792 257.703475 
L 157.1472 236.660417 
L 157.23648 256.037723 
L 157.32576 228.602194 
L 157.41504 258.516377 
L 157.50432 227.001897 
L 157.5936 230.172596 
L 157.77216 248.337598 
L 157.95072 233.397897 
L 158.04 260.058191 
L 158.12928 255.677622 
L 158.30784 222.151716 
L 158.39712 212.917493 
L 158.57568 233.616693 
L 158.66496 207.147694 
L 158.75424 217.695893 
L 158.84352 247.60939 
L 159.02208 227.143703 
L 159.11136 245.751045 
L 159.20064 231.654356 
L 159.28992 237.691331 
L 159.3792 232.878904 
L 159.46848 249.958414 
L 159.55776 243.81743 
L 159.64704 223.284175 
L 159.8256 237.117307 
L 160.00416 199.035795 
L 160.09344 247.662162 
L 160.18272 237.197702 
L 160.272 273.417573 
L 160.45056 229.884508 
L 160.62912 247.38651 
L 160.98624 182.068714 
L 161.1648 261.232156 
L 161.25408 205.146259 
L 161.34336 257.682572 
L 161.52192 203.71291 
L 161.6112 173.49726 
L 161.78976 235.872225 
L 161.87904 247.627258 
L 161.96832 244.530562 
L 162.0576 227.100759 
L 162.14688 247.132714 
L 162.23616 202.354026 
L 162.32544 241.270018 
L 162.41472 231.162993 
L 162.504 236.039368 
L 162.59328 223.300232 
L 162.68256 264.548121 
L 162.77184 255.551122 
L 162.86112 252.16082 
L 162.9504 239.03381 
L 163.03968 255.665871 
L 163.21824 240.353272 
L 163.3968 231.698226 
L 163.48608 259.553954 
L 163.57536 242.697559 
L 163.66464 202.307008 
L 163.75392 203.95289 
L 163.8432 219.326702 
L 163.93248 213.418147 
L 164.02176 219.329132 
L 164.20032 246.504379 
L 164.2896 230.070462 
L 164.46816 236.963971 
L 164.55744 253.375604 
L 164.64672 202.130958 
L 164.736 262.29237 
L 164.82528 253.634966 
L 164.91456 224.727682 
L 165.00384 235.622825 
L 165.1824 160.342919 
L 165.36096 259.778406 
L 165.45024 246.064333 
L 165.53952 67.425088 
L 165.6288 249.458272 
L 165.71808 230.18962 
L 165.80736 226.676267 
L 165.89664 266.409274 
L 165.98592 64.616906 
L 166.0752 243.515836 
L 166.16448 230.623863 
L 166.25376 228.894525 
L 166.43232 247.945894 
L 166.5216 139.832382 
L 166.70016 224.011223 
L 166.78944 257.907535 
L 166.968 225.219669 
L 167.14656 260.619459 
L 167.4144 245.336553 
L 167.50368 251.086341 
L 167.59296 199.723579 
L 167.68224 204.048601 
L 167.8608 266.427926 
L 168.12864 174.260742 
L 168.39648 250.192862 
L 168.48576 244.745148 
L 168.57504 257.018213 
L 168.7536 209.20282 
L 168.84288 225.70386 
L 168.93216 210.655287 
L 169.11072 254.485048 
L 169.2 262.247485 
L 169.28928 211.183281 
L 169.37856 252.593159 
L 169.46784 219.083297 
L 169.73568 254.068149 
L 169.82496 247.296451 
L 169.91424 214.155553 
L 170.00352 248.211414 
L 170.0928 244.170933 
L 170.18208 220.180303 
L 170.36064 241.071463 
L 170.44992 237.428755 
L 170.5392 229.025049 
L 170.62848 238.133752 
L 170.71776 209.363736 
L 170.80704 222.944949 
L 170.89632 213.017364 
L 170.9856 242.337338 
L 171.07488 228.799551 
L 171.25344 249.563646 
L 171.34272 230.68662 
L 171.432 241.50277 
L 171.52128 202.084758 
L 171.69984 259.047719 
L 171.78912 212.441692 
L 171.8784 268.061661 
L 172.05696 237.966073 
L 172.14624 277.067494 
L 172.23552 258.300086 
L 172.3248 264.091195 
L 172.59264 212.604905 
L 172.68192 235.742841 
L 172.7712 203.741031 
L 172.94976 267.680733 
L 173.03904 265.512871 
L 173.12832 237.93639 
L 173.2176 264.850396 
L 173.30688 218.011131 
L 173.39616 224.319365 
L 173.48544 228.58855 
L 173.57472 254.96558 
L 173.664 247.691017 
L 173.75328 262.487777 
L 173.84256 242.378136 
L 173.93184 265.324744 
L 174.02112 214.817378 
L 174.19968 259.962177 
L 174.37824 247.583551 
L 174.46752 258.732907 
L 174.5568 183.534374 
L 174.73536 250.366194 
L 174.82464 221.447008 
L 174.91392 236.821503 
L 175.0032 188.909336 
L 175.09248 266.419968 
L 175.27104 224.930112 
L 175.36032 256.576261 
L 175.4496 252.207135 
L 175.53888 260.405442 
L 175.62816 237.54377 
L 175.71744 257.224074 
L 175.80672 240.974476 
L 175.98528 249.561971 
L 176.07456 215.428029 
L 176.16384 222.707223 
L 176.25312 213.39568 
L 176.43168 274.287085 
L 176.52096 245.490722 
L 176.61024 250.906461 
L 176.69952 239.892271 
L 176.7888 242.859997 
L 176.87808 272.373391 
L 177.05664 208.688842 
L 177.2352 247.972675 
L 177.32448 217.26323 
L 177.41376 251.505717 
L 177.6816 223.908717 
L 177.77088 225.065945 
L 177.86016 240.682199 
L 177.94944 217.686057 
L 178.03872 221.419447 
L 178.128 264.625141 
L 178.21728 199.035554 
L 178.30656 236.690244 
L 178.48512 204.413348 
L 178.66368 238.524866 
L 178.75296 212.446626 
L 178.84224 249.235043 
L 178.93152 173.736108 
L 179.11008 249.884732 
L 179.19936 228.873654 
L 179.28864 264.601291 
L 179.37792 220.102123 
L 179.4672 244.094889 
L 179.55648 221.133617 
L 179.73504 264.451202 
L 179.82432 194.008167 
L 179.9136 263.681757 
L 180.00288 248.401004 
L 180.09216 267.092674 
L 180.18144 232.281399 
L 180.27072 250.942884 
L 180.36 224.08395 
L 180.44928 258.127937 
L 180.53856 215.472974 
L 180.71712 250.883711 
L 180.8064 248.872175 
L 180.89568 222.443533 
L 180.98496 238.618072 
L 181.07424 233.9424 
L 181.16352 254.748405 
L 181.2528 238.530077 
L 181.34208 253.458381 
L 181.43136 246.93154 
L 181.52064 262.565796 
L 181.6992 175.968536 
L 181.78848 248.231004 
L 181.87776 231.742054 
L 181.96704 247.758217 
L 182.05632 193.507719 
L 182.23488 269.184221 
L 182.32416 228.032459 
L 182.41344 228.750948 
L 182.50272 200.144179 
L 182.68128 228.121947 
L 182.77056 252.67981 
L 182.94912 230.122491 
L 183.0384 193.996369 
L 183.12768 259.42145 
L 183.21696 245.445378 
L 183.30624 208.100493 
L 183.4848 245.597577 
L 183.57408 251.512068 
L 183.66336 63.648 
L 183.84192 241.82582 
L 183.9312 228.715296 
L 184.02048 193.490448 
L 184.19904 240.996978 
L 184.28832 251.206492 
L 184.3776 245.840365 
L 184.55616 273.806842 
L 184.91328 216.310695 
L 185.2704 251.12702 
L 185.35968 215.71415 
L 185.44896 265.633677 
L 185.53824 206.859057 
L 185.62752 246.448333 
L 185.89536 221.712317 
L 185.98464 182.701811 
L 186.07392 232.473497 
L 186.1632 191.056713 
L 186.25248 207.260605 
L 186.34176 264.062084 
L 186.43104 197.734597 
L 186.52032 272.78407 
L 186.69888 218.969881 
L 186.78816 244.037112 
L 186.87744 224.605354 
L 187.056 255.959693 
L 187.23456 178.15154 
L 187.32384 224.057193 
L 187.41312 221.416155 
L 187.5024 245.281938 
L 187.59168 214.498499 
L 187.77024 259.69214 
L 187.85952 247.192843 
L 187.9488 188.667985 
L 188.12736 254.301948 
L 188.21664 240.242311 
L 188.30592 263.344607 
L 188.3952 168.361696 
L 188.57376 263.509882 
L 188.66304 230.854356 
L 188.75232 252.262268 
L 188.8416 232.970554 
L 189.02016 185.857299 
L 189.19872 247.307364 
L 189.55584 219.77102 
L 189.64512 223.682895 
L 189.7344 268.40385 
L 189.82368 217.495267 
L 190.09152 261.997714 
L 190.1808 148.128792 
L 190.27008 236.424918 
L 190.35936 162.319673 
L 190.44864 253.667034 
L 190.53792 252.835318 
L 190.6272 210.510288 
L 190.71648 265.15162 
L 190.80576 224.883507 
L 190.98432 265.957085 
L 191.0736 260.713414 
L 191.16288 112.087032 
L 191.34144 228.757365 
L 191.43072 215.822695 
L 191.60928 265.110993 
L 191.69856 204.352264 
L 191.87712 256.869606 
L 191.9664 224.403844 
L 192.05568 268.048558 
L 192.14496 256.494012 
L 192.23424 257.417954 
L 192.32352 260.291954 
L 192.4128 226.591488 
L 192.50208 254.629768 
L 192.59136 222.020092 
L 192.68064 255.509963 
L 192.94848 221.241159 
L 193.03776 248.505253 
L 193.21632 218.771181 
L 193.3056 250.679126 
L 193.39488 222.100115 
L 193.48416 255.35033 
L 193.57344 253.518951 
L 193.66272 248.575705 
L 193.752 228.001427 
L 193.84128 259.517682 
L 193.93056 248.770278 
L 194.01984 223.548895 
L 194.10912 226.547527 
L 194.1984 231.384393 
L 194.28768 245.088425 
L 194.37696 204.744031 
L 194.46624 244.096656 
L 194.55552 173.575933 
L 194.6448 259.611108 
L 194.73408 258.928075 
L 194.82336 262.463599 
L 194.91264 245.189086 
L 195.00192 258.665222 
L 195.18048 224.769014 
L 195.26976 247.764444 
L 195.35904 166.073003 
L 195.62688 263.493671 
L 195.80544 237.672593 
L 195.89472 241.317004 
L 195.984 179.893071 
L 196.07328 256.375247 
L 196.16256 240.400746 
L 196.25184 220.803175 
L 196.4304 259.396648 
L 196.51968 255.941376 
L 196.60896 235.825461 
L 196.69824 237.842913 
L 196.78752 253.204358 
L 196.96608 224.604388 
L 197.23392 267.543646 
L 197.3232 243.107545 
L 197.50176 265.990762 
L 197.59104 215.970495 
L 197.7696 249.343564 
L 197.94816 229.907009 
L 198.03744 262.163264 
L 198.216 227.127768 
L 198.30528 237.517167 
L 198.39456 224.223793 
L 198.48384 271.696965 
L 198.6624 233.253875 
L 198.75168 241.203279 
L 198.84096 269.108409 
L 199.1088 208.691972 
L 199.19808 246.495469 
L 199.37664 200.136918 
L 199.46592 245.213761 
L 199.64448 209.790547 
L 199.73376 218.210053 
L 199.82304 244.725711 
L 199.91232 221.29867 
L 200.0016 234.066634 
L 200.18016 207.668 
L 200.26944 209.906395 
L 200.35872 232.257315 
L 200.448 216.707322 
L 200.62656 238.16823 
L 200.71584 238.120738 
L 200.80512 237.819189 
L 200.8944 238.237067 
L 200.98368 244.059478 
L 201.07296 261.170201 
L 201.25152 212.484211 
L 201.3408 269.366112 
L 201.43008 239.692453 
L 201.51936 259.421089 
L 201.60864 214.911042 
L 201.69792 243.81868 
L 201.7872 242.866526 
L 201.87648 236.258347 
L 201.96576 202.212553 
L 202.05504 265.692163 
L 202.14432 242.619767 
L 202.2336 181.500329 
L 202.41216 241.725953 
L 202.50144 223.324386 
L 202.59072 227.307505 
L 202.68 167.442171 
L 202.76928 260.461091 
L 202.85856 246.79272 
L 203.1264 193.243874 
L 203.21568 249.052785 
L 203.30496 234.776273 
L 203.39424 260.84451 
L 203.48352 220.331453 
L 203.5728 224.321895 
L 203.75136 244.38709 
L 203.84064 225.249575 
L 203.92992 262.039438 
L 204.0192 224.555938 
L 204.28704 268.096489 
L 204.37632 185.519683 
L 204.4656 229.733952 
L 204.55488 211.888735 
L 204.64416 255.600484 
L 204.73344 234.184072 
L 204.82272 138.227345 
L 205.00128 259.914512 
L 205.09056 213.051905 
L 205.17984 247.500192 
L 205.26912 230.024876 
L 205.3584 233.441538 
L 205.44768 232.092965 
L 205.62624 271.739397 
L 205.89408 147.230882 
L 206.07264 267.283638 
L 206.34048 175.17759 
L 206.42976 252.67372 
L 206.51904 218.857034 
L 206.60832 224.928626 
L 206.6976 239.508606 
L 206.78688 151.10507 
L 206.96544 248.153704 
L 207.05472 233.903778 
L 207.144 258.900842 
L 207.23328 257.542849 
L 207.32256 202.479863 
L 207.41184 266.455404 
L 207.50112 242.350246 
L 207.5904 251.853873 
L 207.67968 220.142023 
L 207.76896 240.997223 
L 207.85824 198.30662 
L 208.12608 250.903934 
L 208.21536 260.634165 
L 208.39392 199.440602 
L 208.4832 243.068517 
L 208.57248 234.209385 
L 208.66176 256.115255 
L 208.75104 254.952468 
L 208.9296 204.999371 
L 209.01888 251.936864 
L 209.19744 222.88093 
L 209.28672 248.485621 
L 209.376 230.955485 
L 209.46528 240.362705 
L 209.55456 268.017582 
L 209.64384 166.63587 
L 209.8224 227.523477 
L 209.91168 218.439578 
L 210.00096 230.834185 
L 210.09024 262.592318 
L 210.17952 219.976739 
L 210.2688 222.40357 
L 210.53664 252.530688 
L 210.62592 238.285626 
L 210.7152 206.118276 
L 210.80448 248.892616 
L 210.89376 198.307353 
L 210.98304 257.929369 
L 211.07232 214.287768 
L 211.1616 231.083727 
L 211.25088 227.184296 
L 211.34016 226.858867 
L 211.42944 265.198796 
L 211.51872 254.271773 
L 211.608 254.385014 
L 211.69728 199.668218 
L 211.87584 262.890733 
L 211.96512 261.588988 
L 212.23296 221.41385 
L 212.32224 256.420495 
L 212.41152 236.144913 
L 212.5008 243.476432 
L 212.59008 210.186079 
L 212.9472 266.437339 
L 213.12576 217.034086 
L 213.21504 241.191007 
L 213.30432 174.288685 
L 213.48288 259.332499 
L 213.57216 238.434429 
L 213.66144 261.667455 
L 213.84 229.782667 
L 214.01856 255.53211 
L 214.19712 220.452779 
L 214.2864 218.956152 
L 214.37568 201.554794 
L 214.55424 269.121806 
L 214.7328 222.062837 
L 214.82208 241.674681 
L 215.08992 227.236558 
L 215.1792 227.738789 
L 215.26848 242.389264 
L 215.35776 227.076048 
L 215.44704 269.753294 
L 215.53632 205.272587 
L 215.6256 216.268837 
L 215.71488 274.357159 
L 215.89344 236.537598 
L 215.98272 251.412572 
L 216.16128 211.128286 
L 216.25056 257.043604 
L 216.33984 256.849386 
L 216.60768 222.663263 
L 216.69696 241.276558 
L 216.78624 238.395397 
L 216.87552 251.594268 
L 216.9648 246.790509 
L 217.05408 256.901579 
L 217.14336 247.137431 
L 217.32192 254.838444 
L 217.50048 219.907238 
L 217.67904 245.762755 
L 217.76832 247.287144 
L 217.8576 247.216605 
L 218.03616 227.219096 
L 218.21472 259.41835 
L 218.48256 218.493633 
L 218.66112 255.660296 
L 218.7504 231.128525 
L 218.83968 246.687513 
L 219.01824 235.630925 
L 219.10752 222.399414 
L 219.1968 265.118142 
L 219.28608 251.311506 
L 219.37536 219.090014 
L 219.46464 229.284609 
L 219.55392 258.832413 
L 219.6432 243.226973 
L 219.73248 244.183662 
L 219.82176 192.036785 
L 219.91104 278.780344 
L 220.0896 240.394655 
L 220.17888 258.236227 
L 220.26816 243.45538 
L 220.35744 260.290573 
L 220.44672 228.855831 
L 220.536 248.003251 
L 220.62528 220.165681 
L 220.71456 235.286442 
L 220.80384 233.862002 
L 220.89312 203.024241 
L 220.9824 211.457229 
L 221.07168 255.064861 
L 221.16096 198.909203 
L 221.33952 250.821702 
L 221.4288 264.733529 
L 221.60736 251.248965 
L 221.78592 208.782162 
L 221.8752 241.569292 
L 221.96448 210.499026 
L 222.05376 235.983185 
L 222.14304 226.634992 
L 222.23232 262.550352 
L 222.41088 225.962889 
L 222.58944 261.033697 
L 222.67872 235.601186 
L 222.768 256.088236 
L 222.94656 192.65572 
L 223.03584 261.244249 
L 223.12512 258.416803 
L 223.2144 240.549368 
L 223.30368 241.489107 
L 223.39296 241.163561 
L 223.48224 237.931974 
L 223.6608 159.265354 
L 223.75008 250.284125 
L 223.83936 206.492721 
L 224.01792 269.793075 
L 224.1072 203.165264 
L 224.19648 252.177636 
L 224.28576 216.292764 
L 224.37504 253.235468 
L 224.46432 229.636314 
L 224.5536 252.865895 
L 224.73216 211.406133 
L 224.82144 219.076877 
L 224.91072 255.701575 
L 225 241.613781 
L 225.08928 266.783447 
L 225.35712 156.558379 
L 225.4464 239.134515 
L 225.53568 224.288839 
L 225.71424 252.347936 
L 225.80352 244.565709 
L 225.8928 250.419161 
L 225.98208 204.225717 
L 226.07136 212.702943 
L 226.16064 219.128597 
L 226.24992 256.083096 
L 226.3392 226.820431 
L 226.42848 235.267148 
L 226.51776 197.333459 
L 226.69632 255.625485 
L 226.7856 221.998354 
L 226.87488 224.853707 
L 226.96416 219.849478 
L 227.05344 207.098775 
L 227.14272 259.778836 
L 227.32128 230.098542 
L 227.41056 230.350518 
L 227.49984 245.106209 
L 227.58912 220.985762 
L 227.6784 251.308679 
L 227.76768 219.460523 
L 228.03552 263.347827 
L 228.1248 251.38056 
L 228.30336 260.538369 
L 228.39264 173.44705 
L 228.48192 242.167688 
L 228.74976 192.887367 
L 228.92832 245.326864 
L 229.0176 197.646661 
L 229.10688 236.263249 
L 229.19616 196.930958 
L 229.28544 256.580375 
L 229.37472 188.60812 
L 229.55328 254.900284 
L 229.73184 218.299017 
L 229.82112 241.603847 
L 229.9104 198.881527 
L 230.08896 244.09894 
L 230.17824 238.767666 
L 230.26752 241.97567 
L 230.3568 231.553378 
L 230.53536 267.448074 
L 230.71392 218.567866 
L 230.8032 227.855954 
L 230.89248 255.316131 
L 231.07104 210.164559 
L 231.16032 250.802136 
L 231.2496 246.259691 
L 231.33888 245.985081 
L 231.51744 260.500373 
L 231.78528 241.238564 
L 231.87456 217.602714 
L 232.1424 245.316965 
L 232.41024 225.144241 
L 232.49952 228.492671 
L 232.5888 255.69126 
L 232.67808 251.166244 
L 232.76736 243.440757 
L 232.85664 246.136593 
L 232.94592 207.902811 
L 233.0352 245.307017 
L 233.12448 237.990335 
L 233.21376 249.41482 
L 233.30304 237.134391 
L 233.39232 209.095434 
L 233.57088 258.78357 
L 233.66016 256.563377 
L 233.74944 208.325948 
L 233.83872 95.776336 
L 234.01728 249.373345 
L 234.19584 220.204509 
L 234.3744 245.939031 
L 234.46368 233.950349 
L 234.55296 237.899457 
L 234.64224 224.917454 
L 234.73152 253.290786 
L 234.8208 201.510001 
L 234.91008 244.412076 
L 234.99936 185.464339 
L 235.08864 234.864442 
L 235.2672 202.608449 
L 235.44576 243.147576 
L 235.53504 252.72521 
L 235.62432 199.561456 
L 235.89216 267.626234 
L 236.07072 200.453232 
L 236.16 243.705656 
L 236.24928 235.317121 
L 236.33856 209.367852 
L 236.51712 244.522482 
L 236.6064 235.581152 
L 236.69568 216.581135 
L 236.78496 217.125205 
L 236.87424 275.244379 
L 237.14208 210.379155 
L 237.23136 209.43634 
L 237.32064 225.636878 
L 237.40992 225.344059 
L 237.4992 188.558336 
L 237.58848 260.179394 
L 237.67776 258.313303 
L 237.76704 265.238925 
L 237.85632 249.627102 
L 237.9456 207.926185 
L 238.12416 239.782882 
L 238.21344 237.221439 
L 238.30272 257.383648 
L 238.48128 232.343991 
L 238.65984 238.371066 
L 238.74912 270.64539 
L 238.8384 241.892778 
L 238.92768 257.219574 
L 239.19552 229.191739 
L 239.37408 260.487969 
L 239.55264 154.504341 
L 239.64192 258.516977 
L 239.7312 239.26149 
L 239.82048 269.511676 
L 239.90976 254.558251 
L 239.99904 202.711203 
L 240.1776 250.683715 
L 240.35616 217.041019 
L 240.53472 263.146806 
L 240.624 210.43617 
L 240.80256 262.68374 
L 240.89184 169.775941 
L 240.98112 253.235926 
L 241.0704 236.497116 
L 241.15968 202.769272 
L 241.24896 256.671749 
L 241.33824 233.340243 
L 241.42752 242.498382 
L 241.60608 200.274524 
L 241.69536 230.436766 
L 241.78464 189.645968 
L 241.9632 260.898144 
L 242.14176 214.903251 
L 242.23104 265.596888 
L 242.4096 217.181649 
L 242.49888 266.101276 
L 242.67744 216.889428 
L 242.856 243.917793 
L 242.94528 232.034426 
L 243.03456 258.373732 
L 243.12384 211.63197 
L 243.21312 242.483975 
L 243.3024 227.858245 
L 243.39168 249.967925 
L 243.48096 241.533627 
L 243.57024 206.739719 
L 243.7488 245.454118 
L 243.83808 229.682568 
L 244.01664 249.06385 
L 244.10592 229.370826 
L 244.1952 241.420669 
L 244.28448 189.513831 
L 244.37376 239.644723 
L 244.46304 224.256356 
L 244.55232 233.915575 
L 244.6416 220.585054 
L 244.82016 252.707854 
L 244.90944 213.41518 
L 244.99872 243.823538 
L 245.088 241.049927 
L 245.17728 239.667254 
L 245.26656 230.892082 
L 245.35584 257.896699 
L 245.44512 253.421726 
L 245.5344 258.987761 
L 245.80224 202.143227 
L 245.89152 233.233294 
L 245.9808 216.899068 
L 246.15936 252.05003 
L 246.24864 185.938723 
L 246.4272 241.380676 
L 246.60576 205.494664 
L 246.69504 263.582029 
L 246.78432 255.034187 
L 246.8736 265.562255 
L 246.96288 262.818966 
L 247.05216 225.464472 
L 247.14144 253.335602 
L 247.32 215.655462 
L 247.40928 239.85089 
L 247.58784 189.806594 
L 247.67712 264.832249 
L 247.7664 235.18416 
L 247.94496 254.899972 
L 248.03424 198.958153 
L 248.12352 228.42697 
L 248.2128 192.314657 
L 248.39136 264.126027 
L 248.48064 218.895943 
L 248.56992 224.524675 
L 248.6592 255.186568 
L 248.74848 238.106556 
L 248.83776 255.133061 
L 249.01632 208.673675 
L 249.19488 236.061584 
L 249.37344 228.510508 
L 249.552 255.392635 
L 249.64128 191.824627 
L 249.73056 203.651939 
L 250.17696 245.932398 
L 250.26624 186.04532 
L 250.4448 273.060377 
L 250.53408 261.132431 
L 250.62336 223.79592 
L 250.80192 237.689145 
L 250.8912 195.834363 
L 250.98048 251.397691 
L 251.06976 208.58217 
L 251.24832 267.541405 
L 251.3376 213.705283 
L 251.42688 216.856643 
L 251.51616 220.552424 
L 251.60544 264.131204 
L 251.69472 209.862689 
L 251.784 267.748154 
L 251.87328 242.727211 
L 251.96256 249.967722 
L 252.05184 245.859379 
L 252.14112 258.884772 
L 252.31968 205.185823 
L 252.40896 249.240118 
L 252.49824 244.596408 
L 252.6768 234.997425 
L 252.85536 264.74361 
L 252.94464 260.071572 
L 253.1232 212.984034 
L 253.21248 266.013247 
L 253.30176 263.875377 
L 253.39104 273.026033 
L 253.5696 195.248178 
L 253.65888 244.227636 
L 253.74816 230.47706 
L 253.83744 272.230848 
L 253.92672 209.586343 
L 254.10528 264.015296 
L 254.28384 204.519495 
L 254.37312 253.448539 
L 254.4624 221.913044 
L 254.55168 242.69576 
L 254.81952 218.767613 
L 254.9088 250.526253 
L 254.99808 240.738772 
L 255.08736 275.952522 
L 255.17664 220.782815 
L 255.26592 240.913295 
L 255.3552 230.438105 
L 255.44448 250.082935 
L 255.53376 214.949017 
L 255.62304 249.008412 
L 255.71232 235.14055 
L 255.8016 165.367772 
L 255.98016 259.943303 
L 256.06944 212.328888 
L 256.248 265.556026 
L 256.33728 248.121053 
L 256.42656 249.300074 
L 256.51584 249.913947 
L 256.60512 183.694954 
L 256.78368 238.465867 
L 256.87296 171.313074 
L 256.96224 226.584483 
L 257.05152 206.128664 
L 257.1408 259.064329 
L 257.31936 210.664924 
L 257.40864 263.850868 
L 257.5872 240.203495 
L 257.67648 250.180919 
L 257.76576 232.95684 
L 257.85504 246.904657 
L 257.94432 158.857466 
L 258.0336 243.67779 
L 258.12288 231.672566 
L 258.21216 277.208241 
L 258.30144 238.700226 
L 258.48 278.938762 
L 258.65856 247.379816 
L 258.74784 261.817387 
L 258.83712 250.800878 
L 259.01568 206.572802 
L 259.19424 255.47751 
L 259.28352 267.340554 
L 259.3728 224.194378 
L 259.46208 237.172563 
L 259.55136 215.183709 
L 259.8192 249.471216 
L 260.08704 206.31537 
L 260.17632 230.843653 
L 260.2656 219.844265 
L 260.35488 221.026879 
L 260.44416 255.746873 
L 260.53344 252.255203 
L 260.62272 221.141183 
L 260.80128 241.362482 
L 260.89056 214.879991 
L 260.97984 254.418396 
L 261.06912 251.339922 
L 261.1584 201.862534 
L 261.24768 249.518901 
L 261.33696 194.30855 
L 261.42624 248.869435 
L 261.51552 201.646573 
L 261.6048 244.625541 
L 261.69408 235.264367 
L 261.87264 258.85852 
L 262.0512 236.330354 
L 262.22976 256.978513 
L 262.31904 242.082204 
L 262.40832 126.890931 
L 262.4976 263.791871 
L 262.58688 244.51136 
L 262.85472 169.670752 
L 262.944 245.490064 
L 263.03328 242.260749 
L 263.21184 228.280378 
L 263.47968 268.158389 
L 263.56896 235.595138 
L 263.65824 244.725115 
L 263.74752 172.218997 
L 263.8368 262.97717 
L 263.92608 240.793052 
L 264.01536 257.906096 
L 264.19392 233.195241 
L 264.2832 239.262567 
L 264.37248 174.039511 
L 264.46176 237.403194 
L 264.55104 218.762589 
L 264.7296 255.676766 
L 264.81888 225.330243 
L 264.99744 246.028487 
L 265.08672 242.164749 
L 265.176 226.059952 
L 265.26528 251.858396 
L 265.35456 233.961213 
L 265.44384 254.803309 
L 265.53312 224.972974 
L 265.6224 254.551115 
L 265.71168 235.191217 
L 265.80096 244.120838 
L 265.89024 231.88508 
L 265.97952 233.734834 
L 266.0688 239.737736 
L 266.15808 235.930204 
L 266.24736 240.803067 
L 266.33664 260.121642 
L 266.42592 252.612943 
L 266.5152 216.923806 
L 266.60448 251.520132 
L 266.69376 241.764433 
L 266.78304 165.753263 
L 266.87232 249.255168 
L 266.9616 178.501673 
L 267.14016 244.181474 
L 267.22944 205.124183 
L 267.31872 262.49007 
L 267.408 233.363962 
L 267.49728 255.031171 
L 267.58656 232.586291 
L 267.67584 180.699767 
L 267.76512 251.684478 
L 267.8544 239.638779 
L 267.94368 256.144096 
L 268.03296 251.306838 
L 268.12224 203.831638 
L 268.21152 259.702379 
L 268.3008 217.089287 
L 268.39008 248.326917 
L 268.56864 236.829414 
L 268.65792 254.866326 
L 268.7472 218.45311 
L 268.92576 245.712822 
L 269.01504 219.411582 
L 269.1936 273.483701 
L 269.28288 215.557068 
L 269.55072 247.575035 
L 269.64 257.001964 
L 269.72928 181.810291 
L 269.90784 237.497514 
L 269.99712 245.850952 
L 270.0864 212.672655 
L 270.17568 248.377808 
L 270.26496 192.755794 
L 270.35424 254.059752 
L 270.44352 246.635683 
L 270.5328 266.355772 
L 270.71136 247.721026 
L 270.88992 218.753085 
L 270.9792 251.492637 
L 271.06848 208.643885 
L 271.15776 248.155017 
L 271.24704 243.797619 
L 271.33632 241.212141 
L 271.51488 244.912359 
L 271.60416 222.402506 
L 271.69344 227.123888 
L 271.78272 249.215265 
L 271.872 225.656495 
L 271.96128 233.804314 
L 272.05056 212.45647 
L 272.22912 258.449839 
L 272.3184 255.738955 
L 272.40768 212.062487 
L 272.58624 261.96767 
L 272.67552 213.501332 
L 272.85408 264.179879 
L 272.94336 181.416582 
L 273.03264 261.416646 
L 273.12192 236.866474 
L 273.2112 238.190856 
L 273.38976 250.570483 
L 273.47904 222.369555 
L 273.56832 224.731546 
L 273.6576 214.763284 
L 273.83616 255.130709 
L 274.01472 235.443367 
L 274.104 240.235148 
L 274.19328 252.88673 
L 274.37184 227.195346 
L 274.5504 259.093933 
L 274.63968 166.800779 
L 274.81824 232.893964 
L 274.90752 234.394993 
L 274.9968 262.889988 
L 275.17536 203.208526 
L 275.35392 255.781336 
L 275.53248 177.943694 
L 275.62176 236.874955 
L 275.71104 205.156464 
L 275.8896 265.990211 
L 276.06816 228.580522 
L 276.15744 256.43704 
L 276.24672 207.556628 
L 276.336 247.405067 
L 276.42528 231.675894 
L 276.51456 252.111425 
L 276.69312 222.328027 
L 276.7824 214.778498 
L 276.96096 246.181518 
L 277.13952 199.151083 
L 277.31808 272.236418 
L 277.58592 228.879766 
L 277.6752 169.903488 
L 277.76448 272.481265 
L 277.85376 257.534143 
L 277.94304 179.439646 
L 278.1216 265.919488 
L 278.21088 238.294891 
L 278.30016 270.681025 
L 278.38944 216.149317 
L 278.47872 233.432262 
L 278.568 200.782726 
L 278.65728 255.205796 
L 278.74656 195.723104 
L 278.83584 208.093772 
L 278.92512 251.798224 
L 279.0144 236.959613 
L 279.10368 271.057933 
L 279.37152 151.448 
L 279.55008 243.684947 
L 279.63936 246.993088 
L 279.72864 259.823602 
L 279.81792 217.981141 
L 279.99648 251.91914 
L 280.08576 250.220246 
L 280.26432 220.581436 
L 280.44288 260.847091 
L 280.53216 257.094111 
L 280.62144 238.469886 
L 280.71072 275.977909 
L 280.97856 217.883937 
L 281.06784 237.595157 
L 281.15712 218.968957 
L 281.2464 223.20134 
L 281.33568 225.941351 
L 281.42496 254.416342 
L 281.51424 239.22386 
L 281.60352 203.522681 
L 281.6928 262.428981 
L 281.78208 230.659342 
L 281.87136 244.877828 
L 281.96064 235.82635 
L 282.04992 239.083189 
L 282.1392 266.396745 
L 282.31776 192.084429 
L 282.49632 256.459277 
L 282.5856 220.407312 
L 282.85344 246.922563 
L 282.94272 240.075961 
L 283.032 245.156116 
L 283.12128 221.768813 
L 283.29984 247.88255 
L 283.56768 215.010686 
L 283.74624 247.832752 
L 283.83552 232.981118 
L 284.01408 247.074883 
L 284.10336 228.331925 
L 284.19264 270.141004 
L 284.28192 244.802519 
L 284.3712 169.795953 
L 284.46048 268.549073 
L 284.54976 251.854378 
L 284.63904 255.447117 
L 284.72832 211.008912 
L 284.8176 243.692925 
L 284.90688 219.740267 
L 284.99616 237.356318 
L 285.08544 217.983182 
L 285.17472 254.116922 
L 285.264 232.727136 
L 285.35328 258.93687 
L 285.44256 149.732504 
L 285.62112 222.077631 
L 285.79968 239.988649 
L 285.88896 229.530974 
L 285.97824 196.268495 
L 286.06752 252.696678 
L 286.33536 208.454228 
L 286.42464 258.965568 
L 286.6032 209.53381 
L 286.78176 262.234492 
L 286.87104 258.791078 
L 286.96032 249.912015 
L 287.13888 182.12607 
L 287.22816 257.530227 
L 287.31744 225.25529 
L 287.496 274.112026 
L 287.58528 249.518521 
L 287.67456 261.949615 
L 287.76384 260.360285 
L 287.85312 188.213156 
L 288.12096 257.421433 
L 288.21024 146.622559 
L 288.29952 263.607968 
L 288.3888 208.150148 
L 288.47808 211.150645 
L 288.56736 181.148576 
L 288.65664 194.327954 
L 288.8352 269.899536 
L 289.10304 217.976648 
L 289.2816 248.92373 
L 289.37088 209.88138 
L 289.46016 211.408862 
L 289.63872 262.202391 
L 289.728 237.102125 
L 289.81728 241.254187 
L 289.99584 267.856525 
L 290.1744 224.613481 
L 290.26368 242.640155 
L 290.35296 220.084642 
L 290.44224 274.525425 
L 290.53152 200.269477 
L 290.6208 258.254877 
L 290.71008 250.822366 
L 290.79936 233.251663 
L 290.88864 250.561797 
L 290.97792 223.514234 
L 291.15648 254.779301 
L 291.24576 196.410299 
L 291.42432 249.311021 
L 291.5136 244.754808 
L 291.60288 217.350797 
L 291.69216 251.83379 
L 291.78144 178.037724 
L 291.96 243.989894 
L 292.04928 241.594137 
L 292.22784 215.607112 
L 292.31712 262.590704 
L 292.4064 256.325471 
L 292.49568 265.280224 
L 292.8528 222.871609 
L 292.94208 258.105194 
L 293.12064 236.319244 
L 293.20992 204.390289 
L 293.2992 213.120526 
L 293.38848 262.453128 
L 293.47776 219.707677 
L 293.56704 226.633002 
L 293.65632 255.670644 
L 293.7456 249.026154 
L 293.83488 260.415652 
L 293.92416 259.189597 
L 294.01344 262.741872 
L 294.10272 233.52782 
L 294.192 261.087059 
L 294.28128 249.099654 
L 294.37056 215.808835 
L 294.45984 235.906296 
L 294.54912 190.519608 
L 294.6384 235.963731 
L 294.72768 209.404896 
L 294.81696 250.548175 
L 294.90624 242.23535 
L 294.99552 261.744287 
L 295.0848 257.953254 
L 295.26336 241.507965 
L 295.35264 192.542035 
L 295.44192 260.312356 
L 295.5312 229.484877 
L 295.62048 253.560757 
L 295.70976 247.291468 
L 295.79904 217.684801 
L 295.88832 245.071451 
L 295.9776 215.309118 
L 296.06688 264.164664 
L 296.33472 208.177136 
L 296.51328 237.98294 
L 296.60256 215.981206 
L 296.69184 224.36081 
L 296.78112 246.57203 
L 297.04896 187.717685 
L 297.13824 236.429795 
L 297.22752 231.161181 
L 297.3168 255.994603 
L 297.40608 239.8106 
L 297.49536 260.511582 
L 297.58464 210.956288 
L 297.67392 252.218192 
L 297.7632 230.847138 
L 297.85248 237.637255 
L 297.94176 266.731068 
L 298.12032 241.531346 
L 298.2096 252.662222 
L 298.29888 231.541144 
L 298.38816 244.739562 
L 298.47744 216.959248 
L 298.56672 231.881317 
L 298.656 223.704081 
L 298.74528 225.190717 
L 298.83456 239.764874 
L 298.92384 210.4399 
L 299.19168 263.130941 
L 299.28096 261.048344 
L 299.37024 268.853709 
L 299.45952 244.278322 
L 299.5488 254.284558 
L 299.63808 243.745744 
L 299.72736 280.240501 
L 299.90592 171.04054 
L 300.08448 267.129168 
L 300.17376 188.984457 
L 300.35232 245.53596 
L 300.4416 156.556622 
L 300.53088 259.081614 
L 300.62016 233.393036 
L 300.70944 252.222714 
L 300.97728 189.376662 
L 301.06656 229.88637 
L 301.15584 228.098468 
L 301.24512 255.129919 
L 301.3344 241.306899 
L 301.42368 205.890075 
L 301.51296 267.67224 
L 301.60224 248.817955 
L 301.69152 205.852877 
L 301.87008 265.889473 
L 301.95936 260.562538 
L 302.04864 198.359803 
L 302.2272 251.166002 
L 302.40576 195.637449 
L 302.6736 256.226116 
L 302.76288 251.059835 
L 302.85216 221.71703 
L 302.94144 231.227061 
L 303.03072 253.9077 
L 303.12 213.383586 
L 303.20928 250.245857 
L 303.29856 235.694997 
L 303.38784 257.657154 
L 303.47712 242.177655 
L 303.5664 249.967944 
L 303.65568 199.619448 
L 303.83424 242.167293 
L 303.92352 233.034279 
L 304.10208 262.667046 
L 304.28064 203.778975 
L 304.36992 254.683629 
L 304.54848 206.979501 
L 304.63776 202.804225 
L 304.72704 240.314348 
L 304.81632 175.238161 
L 304.9056 234.932572 
L 304.99488 193.716454 
L 305.08416 238.27299 
L 305.17344 215.634995 
L 305.352 258.861315 
L 305.44128 244.230615 
L 305.53056 267.542215 
L 305.7984 224.438625 
L 305.88768 226.202945 
L 305.97696 158.297031 
L 306.06624 250.638281 
L 306.15552 231.177978 
L 306.2448 215.816207 
L 306.33408 218.237843 
L 306.42336 246.409905 
L 306.51264 229.453228 
L 306.60192 268.810451 
L 306.6912 211.069442 
L 306.86976 243.085029 
L 306.95904 216.491124 
L 307.1376 255.497573 
L 307.22688 217.685698 
L 307.31616 253.083482 
L 307.40544 232.148085 
L 307.49472 249.661227 
L 307.67328 239.139864 
L 307.76256 209.088426 
L 307.94112 257.043002 
L 308.11968 211.113648 
L 308.20896 258.791746 
L 308.29824 196.780476 
L 308.38752 246.386173 
L 308.56608 218.92328 
L 308.65536 261.602816 
L 308.74464 256.745695 
L 308.83392 254.346728 
L 308.9232 220.251721 
L 309.01248 223.447369 
L 309.10176 253.345951 
L 309.19104 173.290334 
L 309.28032 255.608011 
L 309.3696 241.301938 
L 309.45888 243.301005 
L 309.63744 195.51846 
L 309.816 265.133535 
L 309.90528 213.807828 
L 309.99456 264.580847 
L 310.08384 255.435709 
L 310.17312 199.403219 
L 310.44096 248.809995 
L 310.53024 216.37807 
L 310.61952 244.389155 
L 310.88736 212.279609 
L 311.06592 262.421311 
L 311.1552 263.1142 
L 311.24448 270.403619 
L 311.33376 267.607182 
L 311.42304 253.108151 
L 311.51232 208.114376 
L 311.6016 234.519162 
L 311.69088 211.069516 
L 311.78016 222.135215 
L 311.86944 250.39673 
L 311.95872 231.584683 
L 312.048 237.776775 
L 312.13728 219.008106 
L 312.22656 224.922973 
L 312.40512 206.625273 
L 312.4944 250.553485 
L 312.58368 212.917772 
L 312.67296 252.477942 
L 312.76224 181.219844 
L 312.9408 263.492837 
L 313.03008 237.23219 
L 313.11936 254.014984 
L 313.29792 210.832736 
L 313.47648 245.175995 
L 313.65504 230.013437 
L 313.74432 233.429062 
L 313.8336 173.908882 
L 313.92288 250.074044 
L 314.01216 202.234938 
L 314.10144 253.594465 
L 314.19072 176.608366 
L 314.36928 234.468606 
L 314.45856 225.946719 
L 314.63712 252.991193 
L 314.81568 207.609339 
L 314.90496 259.806427 
L 314.99424 224.527514 
L 315.08352 239.13198 
L 315.26208 228.794412 
L 315.35136 261.027987 
L 315.44064 217.598869 
L 315.6192 253.277805 
L 315.70848 245.591235 
L 315.79776 245.676215 
L 315.88704 257.858716 
L 315.97632 213.9164 
L 316.15488 261.745211 
L 316.24416 204.113208 
L 316.512 252.731752 
L 316.60128 234.077189 
L 316.69056 264.511408 
L 316.86912 218.942956 
L 316.9584 256.064841 
L 317.04768 234.279358 
L 317.13696 184.923337 
L 317.31552 267.985451 
L 317.4048 266.099238 
L 317.49408 238.489472 
L 317.76192 270.004523 
L 317.94048 222.503723 
L 318.02976 238.024306 
L 318.11904 241.610121 
L 318.20832 220.507922 
L 318.2976 225.30195 
L 318.47616 268.176162 
L 318.56544 255.497042 
L 318.65472 257.726428 
L 318.744 255.522559 
L 318.83328 166.000153 
L 318.92256 232.979843 
L 319.01184 179.691224 
L 319.10112 256.01575 
L 319.27968 205.689205 
L 319.45824 256.725512 
L 319.72608 155.252205 
L 319.81536 222.304105 
L 319.90464 165.941851 
L 320.0832 236.098682 
L 320.17248 240.532262 
L 320.26176 209.445583 
L 320.35104 217.743494 
L 320.5296 259.212897 
L 320.61888 214.999354 
L 320.70816 268.770265 
L 320.88672 205.716112 
L 320.976 211.111828 
L 321.15456 243.38817 
L 321.33312 269.520256 
L 321.4224 237.968599 
L 321.51168 245.644585 
L 321.60096 231.298279 
L 321.69024 254.277168 
L 321.77952 205.982348 
L 321.95808 261.801195 
L 322.04736 225.393843 
L 322.13664 263.78897 
L 322.22592 263.001853 
L 322.3152 235.723932 
L 322.40448 264.874704 
L 322.49376 258.092474 
L 322.58304 183.784672 
L 322.7616 240.74147 
L 322.85088 150.766289 
L 323.02944 266.791886 
L 323.11872 200.978138 
L 323.208 251.311442 
L 323.29728 236.247791 
L 323.38656 193.619503 
L 323.47584 247.724267 
L 323.56512 232.556023 
L 323.6544 254.57441 
L 323.74368 226.118284 
L 323.83296 266.732291 
L 323.92224 265.34008 
L 324.1008 221.705629 
L 324.19008 264.599145 
L 324.27936 256.920836 
L 324.45792 215.102914 
L 324.63648 261.60542 
L 324.72576 227.206796 
L 324.81504 230.008184 
L 324.90432 233.811529 
L 325.08288 246.792901 
L 325.17216 252.490071 
L 325.26144 215.74817 
L 325.52928 266.148637 
L 325.61856 254.328819 
L 325.70784 218.053253 
L 325.79712 272.625522 
L 325.8864 260.245529 
L 326.06496 223.49185 
L 326.15424 234.346615 
L 326.24352 221.625706 
L 326.3328 249.324588 
L 326.42208 242.838032 
L 326.60064 225.969465 
L 326.7792 257.353328 
L 326.95776 207.017346 
L 327.04704 241.028243 
L 327.13632 239.765349 
L 327.2256 254.924002 
L 327.49344 195.073101 
L 327.58272 209.290627 
L 327.672 218.205247 
L 327.85056 253.487329 
L 327.93984 260.852729 
L 328.1184 227.657297 
L 328.20768 259.813366 
L 328.38624 238.479367 
L 328.47552 232.615011 
L 328.5648 234.97093 
L 328.65408 259.361794 
L 328.74336 228.694547 
L 328.92192 249.771175 
L 329.0112 255.353239 
L 329.18976 240.365174 
L 329.36832 249.442863 
L 329.4576 249.078338 
L 329.54688 181.22554 
L 329.72544 252.554832 
L 329.81472 243.966434 
L 329.904 202.332804 
L 330.08256 241.906314 
L 330.26112 207.29818 
L 330.52896 235.049751 
L 330.61824 235.427699 
L 330.7968 225.01766 
L 330.88608 273.550962 
L 330.97536 229.690531 
L 331.06464 253.589395 
L 331.15392 184.908985 
L 331.2432 257.509465 
L 331.33248 202.157485 
L 331.60032 260.518834 
L 331.77888 195.828213 
L 331.95744 223.936716 
L 332.136 248.711951 
L 332.22528 226.446173 
L 332.31456 263.595467 
L 332.40384 240.37259 
L 332.5824 253.43174 
L 332.67168 248.936775 
L 332.85024 233.984027 
L 332.93952 251.75814 
L 333.0288 184.942192 
L 333.11808 247.925863 
L 333.20736 210.867414 
L 333.38592 251.313867 
L 333.56448 216.588293 
L 333.65376 261.603591 
L 333.74304 255.33833 
L 333.9216 223.76629 
L 334.10016 256.027282 
L 334.18944 198.064944 
L 334.368 248.881537 
L 334.45728 255.433248 
L 334.72512 184.098837 
L 334.8144 264.007361 
L 334.90368 242.504887 
L 334.99296 161.354703 
L 335.17152 252.545548 
L 335.2608 247.867721 
L 335.35008 234.634118 
L 335.43936 264.500577 
L 335.7072 187.498131 
L 335.97504 257.475234 
L 336.24288 204.759655 
L 336.33216 211.289802 
L 336.42144 235.407381 
L 336.51072 219.070198 
L 336.6 267.63235 
L 336.68928 185.445625 
L 336.77856 243.485501 
L 336.86784 241.820704 
L 336.95712 182.78943 
L 337.13568 245.963548 
L 337.22496 225.72419 
L 337.40352 243.142679 
L 337.4928 232.977653 
L 337.67136 269.768992 
L 337.76064 225.948964 
L 337.84992 230.996935 
L 337.9392 260.305853 
L 338.11776 239.952238 
L 338.20704 253.603802 
L 338.29632 242.762828 
L 338.3856 205.729597 
L 338.65344 261.405937 
L 338.74272 239.586491 
L 338.832 272.412025 
L 338.92128 239.097339 
L 339.01056 244.443593 
L 339.09984 272.037617 
L 339.18912 216.081975 
L 339.2784 267.737398 
L 339.36768 237.290189 
L 339.45696 252.375101 
L 339.63552 193.37204 
L 339.7248 233.160966 
L 339.81408 216.346122 
L 339.90336 223.14248 
L 339.99264 218.892581 
L 340.1712 251.790824 
L 340.26048 176.649412 
L 340.34976 268.020975 
L 340.43904 218.53456 
L 340.70688 267.472292 
L 340.79616 231.570871 
L 340.88544 254.702496 
L 340.97472 241.810446 
L 341.15328 255.745009 
L 341.24256 205.514591 
L 341.33184 229.363116 
L 341.42112 217.618765 
L 341.59968 262.239381 
L 341.68896 249.240633 
L 341.77824 262.47008 
L 341.86752 210.45699 
L 341.9568 227.990846 
L 342.04608 215.698705 
L 342.13536 245.260901 
L 342.22464 225.99171 
L 342.31392 231.445429 
L 342.4032 203.758049 
L 342.49248 254.048599 
L 342.58176 240.745987 
L 342.67104 247.888871 
L 342.8496 151.587645 
L 343.02816 235.252199 
L 343.11744 222.568297 
L 343.296 252.978182 
L 343.47456 239.680502 
L 343.56384 244.515324 
L 343.65312 270.474683 
L 343.83168 193.375013 
L 343.92096 235.509778 
L 344.01024 213.611648 
L 344.09952 249.594591 
L 344.1888 245.636518 
L 344.27808 247.611348 
L 344.36736 229.600741 
L 344.45664 262.055714 
L 344.54592 183.890812 
L 344.6352 243.368973 
L 344.72448 240.511917 
L 344.81376 149.409717 
L 344.90304 248.389887 
L 344.99232 221.076681 
L 345.0816 237.467877 
L 345.17088 232.968896 
L 345.26016 237.923251 
L 345.34944 223.118335 
L 345.43872 240.735425 
L 345.528 221.063364 
L 345.70656 260.727183 
L 345.79584 259.64909 
L 346.06368 235.123736 
L 346.15296 265.113509 
L 346.24224 239.992701 
L 346.33152 240.53838 
L 346.4208 245.300387 
L 346.51008 221.742087 
L 346.59936 222.502426 
L 346.68864 237.073771 
L 346.8672 220.329786 
L 347.04576 259.056091 
L 347.13504 232.482368 
L 347.22432 236.952514 
L 347.3136 268.647466 
L 347.40288 232.09753 
L 347.49216 258.828165 
L 347.76 172.371074 
L 347.93856 277.700116 
L 348.02784 176.546459 
L 348.2064 244.172608 
L 348.29568 233.790709 
L 348.38496 251.008272 
L 348.47424 237.121452 
L 348.6528 252.484917 
L 348.83136 240.462627 
L 348.92064 186.631027 
L 349.00992 248.55722 
L 349.0992 225.79309 
L 349.27776 266.009083 
L 349.36704 265.266799 
L 349.45632 218.163753 
L 349.5456 240.70136 
L 349.63488 234.779164 
L 349.72416 239.512705 
L 349.81344 254.666403 
L 349.90272 241.596707 
L 349.992 245.92696 
L 350.08128 238.430622 
L 350.17056 151.3095 
L 350.34912 242.350712 
L 350.4384 206.517087 
L 350.61696 246.747499 
L 350.70624 249.440914 
L 350.79552 260.384262 
L 350.97408 212.855159 
L 351.06336 228.896404 
L 351.15264 184.446541 
L 351.24192 266.803086 
L 351.42048 208.821378 
L 351.50976 250.611083 
L 351.59904 233.92211 
L 351.68832 264.330063 
L 351.7776 219.82116 
L 351.86688 259.410264 
L 351.95616 252.577512 
L 352.04544 250.055049 
L 352.13472 215.800541 
L 352.224 245.809589 
L 352.31328 211.024242 
L 352.40256 259.455077 
L 352.58112 225.354883 
L 352.6704 226.165979 
L 352.93824 260.856723 
L 353.02752 243.901273 
L 353.1168 263.874744 
L 353.20608 207.340944 
L 353.38464 250.381899 
L 353.47392 163.346324 
L 353.65248 258.764906 
L 353.74176 220.935994 
L 353.83104 231.098219 
L 353.92032 209.88381 
L 354.0096 253.32259 
L 354.09888 175.345349 
L 354.27744 264.406879 
L 354.456 242.591178 
L 354.54528 247.956838 
L 354.72384 212.542123 
L 354.81312 226.203515 
L 355.08096 213.526506 
L 355.17024 218.142883 
L 355.25952 203.738911 
L 355.3488 245.792102 
L 355.43808 183.884429 
L 355.61664 268.328855 
L 355.70592 229.012379 
L 355.7952 238.415768 
L 355.88448 209.148111 
L 355.97376 259.654865 
L 356.06304 236.036667 
L 356.2416 260.530354 
L 356.33088 251.545136 
L 356.42016 260.943141 
L 356.50944 253.292268 
L 356.59872 224.047689 
L 356.688 241.421559 
L 356.86656 224.01136 
L 357.04512 260.814161 
L 357.22368 223.762515 
L 357.31296 241.884025 
L 357.40224 181.823628 
L 357.5808 234.521216 
L 357.75936 219.275998 
L 357.93792 264.853469 
L 358.11648 227.368414 
L 358.29504 260.830865 
L 358.38432 177.697327 
L 358.56288 253.765902 
L 358.65216 269.906013 
L 358.74144 188.294312 
L 358.83072 253.194234 
L 358.92 234.062508 
L 359.00928 265.770914 
L 359.18784 228.029383 
L 359.3664 263.348256 
L 359.45568 216.87338 
L 359.63424 247.672378 
L 359.72352 257.385513 
L 359.8128 186.119278 
L 359.90208 260.266685 
L 359.99136 180.660749 
L 360.16992 249.980003 
L 360.2592 232.819845 
L 360.34848 96.423855 
L 360.43776 237.692227 
L 360.52704 150.497403 
L 360.7056 263.281135 
L 360.79488 209.444705 
L 360.97344 267.667031 
L 361.06272 260.13523 
L 361.152 279.355613 
L 361.24128 217.498352 
L 361.33056 224.362288 
L 361.5984 271.726101 
L 361.77696 240.81952 
L 361.86624 254.556995 
L 361.95552 234.690822 
L 362.13408 274.229198 
L 362.22336 257.740248 
L 362.40192 185.801556 
L 362.4912 193.771626 
L 362.66976 248.581533 
L 362.75904 202.769576 
L 362.9376 225.443744 
L 363.02688 228.10691 
L 363.11616 250.559505 
L 363.20544 228.786433 
L 363.29472 244.482434 
L 363.384 242.342659 
L 363.56256 207.740549 
L 363.65184 265.758154 
L 363.74112 234.784308 
L 363.8304 261.092014 
L 363.91968 250.928523 
L 364.00896 208.900741 
L 364.09824 225.374114 
L 364.18752 182.958493 
L 364.2768 244.177509 
L 364.36608 242.802225 
L 364.63392 168.677039 
L 364.7232 263.407415 
L 364.81248 252.189766 
L 364.99104 186.210889 
L 365.08032 201.998655 
L 365.1696 261.005438 
L 365.25888 233.03699 
L 365.34816 267.379215 
L 365.43744 264.740519 
L 365.52672 219.704362 
L 365.616 236.385602 
L 365.70528 190.841333 
L 365.79456 256.598894 
L 365.88384 245.258912 
L 365.97312 267.331696 
L 366.0624 249.277292 
L 366.15168 255.776791 
L 366.5088 224.83183 
L 366.59808 201.102321 
L 366.68736 216.653474 
L 366.77664 210.155141 
L 366.86592 226.73321 
L 367.04448 208.966325 
L 367.13376 224.384496 
L 367.22304 223.165505 
L 367.4016 219.969594 
L 367.49088 265.880575 
L 367.58016 223.264597 
L 367.66944 258.838888 
L 367.75872 219.697134 
L 367.848 245.97705 
L 368.02656 226.648768 
L 368.11584 262.400226 
L 368.20512 214.114774 
L 368.2944 243.042417 
L 368.38368 188.863175 
L 368.56224 252.850256 
L 368.65152 247.876461 
L 368.7408 261.788542 
L 368.83008 221.163494 
L 368.91936 230.725689 
L 369.00864 251.836742 
L 369.09792 166.173691 
L 369.27648 261.95007 
L 369.36576 243.702371 
L 369.45504 257.849898 
L 369.54432 255.880681 
L 369.6336 260.521863 
L 369.72288 255.840234 
L 369.81216 237.509053 
L 369.90144 253.477745 
L 369.99072 209.644236 
L 370.34784 272.861358 
L 370.43712 263.192105 
L 370.5264 200.931253 
L 370.61568 258.155165 
L 370.70496 207.076548 
L 370.88352 234.178896 
L 370.9728 242.847168 
L 371.06208 143.64558 
L 371.15136 239.572738 
L 371.24064 207.692028 
L 371.32992 237.666222 
L 371.4192 215.521924 
L 371.68704 269.948426 
L 371.77632 272.911255 
L 371.8656 160.55386 
L 371.95488 227.444308 
L 372.04416 191.714581 
L 372.40128 252.147506 
L 372.49056 245.515875 
L 372.57984 249.019108 
L 372.66912 229.965674 
L 372.7584 249.4001 
L 372.84768 159.481983 
L 373.11552 265.269161 
L 373.2048 240.97793 
L 373.29408 272.32754 
L 373.38336 248.444684 
L 373.47264 250.035397 
L 373.56192 247.581938 
L 373.6512 231.580203 
L 373.74048 261.939334 
L 373.91904 215.347335 
L 374.00832 222.631388 
L 374.0976 265.825585 
L 374.18688 221.422662 
L 374.27616 224.485651 
L 374.36544 260.935892 
L 374.45472 252.219591 
L 374.544 252.230319 
L 374.63328 214.642232 
L 374.72256 242.319951 
L 374.81184 236.953094 
L 374.90112 175.393453 
L 374.9904 262.348186 
L 375.07968 201.394299 
L 375.16896 201.485675 
L 375.25824 240.839712 
L 375.34752 222.417227 
L 375.4368 170.851335 
L 375.61536 268.83863 
L 375.70464 196.677006 
L 375.79392 269.738235 
L 375.8832 260.508313 
L 375.97248 272.99693 
L 376.15104 224.468908 
L 376.24032 209.278521 
L 376.3296 265.260886 
L 376.41888 237.144591 
L 376.50816 249.298025 
L 376.59744 213.246159 
L 376.68672 266.85544 
L 376.776 264.774301 
L 376.86528 238.961549 
L 376.95456 249.736936 
L 377.04384 238.044266 
L 377.13312 258.806772 
L 377.2224 220.345463 
L 377.31168 255.867738 
L 377.40096 178.287096 
L 377.49024 244.056128 
L 377.57952 217.573565 
L 377.84736 247.091021 
L 377.93664 262.144853 
L 378.02592 236.600538 
L 378.1152 265.225325 
L 378.20448 189.039957 
L 378.29376 261.238672 
L 378.38304 218.141052 
L 378.47232 224.149803 
L 378.65088 236.783503 
L 378.74016 270.48374 
L 378.91872 218.057616 
L 379.09728 263.874081 
L 379.18656 257.065212 
L 379.36512 214.497649 
L 379.54368 248.353205 
L 379.81152 222.846243 
L 379.9008 120.098944 
L 379.99008 237.090786 
L 380.07936 156.399907 
L 380.43648 266.958742 
L 380.61504 222.474471 
L 380.70432 242.404679 
L 380.7936 234.468708 
L 380.88288 254.423645 
L 381.06144 235.902256 
L 381.15072 189.282463 
L 381.24 262.927399 
L 381.32928 182.957452 
L 381.41856 255.060444 
L 381.59712 191.526521 
L 381.6864 249.397913 
L 381.77568 240.486045 
L 381.86496 252.96686 
L 382.04352 228.716536 
L 382.1328 233.293521 
L 382.22208 268.874986 
L 382.31136 235.537294 
L 382.40064 261.490965 
L 382.5792 238.497727 
L 382.66848 252.127596 
L 382.84704 206.203746 
L 382.93632 246.913443 
L 383.0256 215.731797 
L 383.20416 264.840179 
L 383.29344 264.241588 
L 383.472 237.105955 
L 383.65056 247.710064 
L 383.73984 198.392399 
L 383.9184 249.014943 
L 384.09696 219.680506 
L 384.18624 229.619587 
L 384.27552 262.323952 
L 384.45408 211.84441 
L 384.54336 261.287288 
L 384.63264 177.679545 
L 384.72192 253.603296 
L 384.8112 237.896495 
L 384.90048 210.186067 
L 384.98976 257.145868 
L 385.07904 173.402396 
L 385.16832 229.256784 
L 385.2576 221.360558 
L 385.34688 225.248965 
L 385.52544 263.094968 
L 385.61472 192.574601 
L 385.704 263.108916 
L 385.88256 194.446043 
L 385.97184 231.73935 
L 386.06112 209.36665 
L 386.32896 261.189955 
L 386.41824 249.243347 
L 386.50752 250.725103 
L 386.5968 225.124488 
L 386.68608 248.03888 
L 386.77536 202.193633 
L 386.95392 236.429163 
L 387.13248 222.35494 
L 387.22176 230.333045 
L 387.31104 229.206127 
L 387.40032 234.744513 
L 387.4896 206.011441 
L 387.57888 246.442346 
L 387.66816 225.71505 
L 387.84672 245.394313 
L 387.936 227.341117 
L 388.02528 235.797499 
L 388.11456 213.092294 
L 388.20384 246.10108 
L 388.29312 218.025397 
L 388.47168 250.878651 
L 388.56096 270.888754 
L 388.8288 221.935149 
L 388.91808 213.927877 
L 389.00736 237.346432 
L 389.09664 205.496484 
L 389.18592 247.94949 
L 389.2752 207.686133 
L 389.36448 259.959877 
L 389.45376 248.586904 
L 389.54304 246.31381 
L 389.63232 224.530609 
L 389.7216 252.715928 
L 389.81088 239.252728 
L 389.90016 265.502519 
L 389.98944 227.242068 
L 390.07872 256.661262 
L 390.168 247.615075 
L 390.34656 186.248582 
L 390.43584 246.274333 
L 390.52512 188.327687 
L 390.6144 256.551494 
L 390.70368 176.387167 
L 390.79296 256.74433 
L 390.88224 238.954851 
L 390.97152 200.256345 
L 391.0608 241.266419 
L 391.15008 230.565618 
L 391.23936 255.852813 
L 391.32864 202.592245 
L 391.5072 239.961293 
L 391.59648 212.267523 
L 391.68576 254.780041 
L 391.86432 214.87347 
L 391.9536 252.528887 
L 392.04288 228.925343 
L 392.13216 230.898764 
L 392.22144 224.953112 
L 392.31072 249.219608 
L 392.4 248.600667 
L 392.48928 242.058286 
L 392.57856 248.610921 
L 392.75712 229.365723 
L 392.8464 179.611948 
L 392.93568 239.025786 
L 393.02496 219.970084 
L 393.11424 256.331719 
L 393.20352 252.916566 
L 393.2928 234.434169 
L 393.56064 250.541256 
L 393.64992 238.520331 
L 393.82848 247.550596 
L 393.91776 213.965891 
L 394.00704 225.094755 
L 394.09632 257.207224 
L 394.1856 215.017825 
L 394.27488 248.938221 
L 394.36416 215.779623 
L 394.45344 239.933944 
L 394.54272 209.797065 
L 394.632 263.317791 
L 394.72128 205.119921 
L 394.81056 253.289991 
L 394.89984 248.684038 
L 394.98912 210.454389 
L 395.16768 262.210579 
L 395.25696 243.037848 
L 395.34624 257.244614 
L 395.43552 193.462068 
L 395.5248 255.507645 
L 395.70336 236.725429 
L 395.79264 148.876775 
L 395.88192 251.361577 
L 395.9712 232.788508 
L 396.06048 246.507416 
L 396.14976 221.794786 
L 396.23904 267.690842 
L 396.32832 239.284144 
L 396.4176 241.850195 
L 396.50688 230.247461 
L 396.59616 262.238627 
L 396.68544 190.579614 
L 396.77472 197.406257 
L 396.864 254.542926 
L 397.13184 199.011125 
L 397.39968 263.694789 
L 397.48896 252.537318 
L 397.57824 193.027349 
L 397.66752 240.208906 
L 397.7568 228.880504 
L 397.84608 237.006506 
L 397.93536 275.361114 
L 398.38176 221.357025 
L 398.56032 253.60446 
L 398.6496 228.459135 
L 398.73888 123.528799 
L 398.82816 244.380636 
L 398.91744 234.983465 
L 399.00672 241.378748 
L 399.096 241.072404 
L 399.36384 227.868424 
L 399.63168 244.257724 
L 399.72096 247.434216 
L 399.9888 203.122766 
L 400.16736 255.986722 
L 400.25664 177.446288 
L 400.52448 261.504305 
L 400.61376 264.709747 
L 400.70304 204.159378 
L 400.79232 267.13163 
L 400.8816 237.595813 
L 400.97088 257.990716 
L 401.14944 221.132221 
L 401.23872 257.52977 
L 401.328 200.936996 
L 401.59584 253.927318 
L 401.68512 244.728491 
L 401.7744 200.98162 
L 401.86368 236.34256 
L 401.95296 210.354477 
L 402.04224 256.262352 
L 402.13152 233.792824 
L 402.39936 265.158757 
L 402.48864 186.46591 
L 402.6672 263.55342 
L 402.75648 235.573629 
L 402.84576 244.317749 
L 402.93504 149.137177 
L 403.02432 259.830303 
L 403.1136 235.244134 
L 403.20288 216.247083 
L 403.29216 232.935211 
L 403.38144 222.780483 
L 403.47072 254.049517 
L 403.56 247.215615 
L 403.64928 216.420474 
L 403.82784 240.146556 
L 404.0064 213.010165 
L 404.09568 218.803445 
L 404.18496 247.674805 
L 404.27424 221.519022 
L 404.36352 159.912868 
L 404.63136 225.779211 
L 404.72064 224.650224 
L 404.80992 268.928578 
L 404.98848 222.244794 
L 405.07776 251.236397 
L 405.16704 246.140344 
L 405.3456 220.774323 
L 405.43488 225.407596 
L 405.52416 218.037536 
L 405.70272 259.623238 
L 405.792 267.88604 
L 405.88128 211.828993 
L 405.97056 253.396906 
L 406.05984 203.874379 
L 406.2384 249.238568 
L 406.41696 224.049954 
L 406.59552 215.178937 
L 406.6848 249.087272 
L 406.77408 214.272515 
L 406.95264 257.400878 
L 407.22048 215.238182 
L 407.39904 264.200456 
L 407.5776 232.102959 
L 407.66688 262.298767 
L 407.84544 192.361312 
L 408.024 261.480119 
L 408.11328 275.746502 
L 408.20256 201.077642 
L 408.29184 217.517843 
L 408.38112 233.845756 
L 408.55968 212.446555 
L 408.73824 250.147673 
L 408.82752 224.002702 
L 408.9168 230.428698 
L 409.09536 210.366608 
L 409.18464 216.328475 
L 409.3632 253.200415 
L 409.45248 253.272687 
L 409.54176 232.090915 
L 409.63104 250.630908 
L 409.72032 220.436839 
L 409.89888 266.146489 
L 409.98816 265.047201 
L 410.07744 237.415016 
L 410.16672 242.001725 
L 410.256 265.661822 
L 410.34528 213.430577 
L 410.43456 253.457066 
L 410.52384 240.005102 
L 410.7024 265.602094 
L 410.79168 258.572078 
L 410.97024 225.528997 
L 411.05952 225.808034 
L 411.1488 256.068841 
L 411.32736 213.33241 
L 411.50592 252.778477 
L 411.5952 231.085881 
L 411.68448 236.375077 
L 411.77376 233.504613 
L 411.86304 221.460612 
L 411.95232 254.77575 
L 412.0416 206.566363 
L 412.13088 208.960725 
L 412.39872 248.030956 
L 412.488 243.600461 
L 412.57728 225.690806 
L 412.66656 251.327265 
L 412.75584 238.815604 
L 412.84512 151.324682 
L 413.02368 231.234417 
L 413.29152 260.831637 
L 413.55936 196.050662 
L 413.64864 251.882649 
L 413.73792 239.059599 
L 413.91648 199.376217 
L 414.09504 235.43745 
L 414.2736 215.536998 
L 414.36288 216.40409 
L 414.45216 218.129495 
L 414.54144 274.315907 
L 414.63072 221.660949 
L 414.63072 221.660949 
" clip-path="url(#pafc85d3122)" style="fill: none; stroke: #0000ff; stroke-width: 1.5; stroke-linecap: square"/>
   </g>
   <g id="patch_3">
    <path d="M 57.6 307.584 
L 57.6 41.472 
" style="fill: none; stroke: #000000; stroke-width: 0.8; stroke-linejoin: miter; stroke-linecap: square"/>
   </g>
   <g id="patch_4">
    <path d="M 414.72 307.584 
L 414.72 41.472 
" style="fill: none; stroke: #000000; stroke-width: 0.8; stroke-linejoin: miter; stroke-linecap: square"/>
   </g>
   <g id="patch_5">
    <path d="M 57.6 307.584 
L 414.72 307.584 
" style="fill: none; stroke: #000000; stroke-width: 0.8; stroke-linejoin: miter; stroke-linecap: square"/>
   </g>
   <g id="patch_6">
    <path d="M 57.6 41.472 
L 414.72 41.472 
" style="fill: none; stroke: #000000; stroke-width: 0.8; stroke-linejoin: miter; stroke-linecap: square"/>
   </g>
   <g id="legend_1">
    <g id="patch_7">
     <path d="M 202.8825 77.757 
L 403.52 77.757 
Q 406.72 77.757 406.72 74.557 
L 406.72 52.672 
Q 406.72 49.472 403.52 49.472 
L 202.8825 49.472 
Q 199.6825 49.472 199.6825 52.672 
L 199.6825 74.557 
Q 199.6825 77.757 202.8825 77.757 
z
" style="fill: #ffffff; opacity: 0.8; stroke: #cccccc; stroke-linejoin: miter"/>
    </g>
    <g id="line2d_20">
     <path d="M 206.0825 62.4295 
L 222.0825 62.4295 
L 238.0825 62.4295 
" style="fill: none; stroke: #0000ff; stroke-width: 1.5; stroke-linecap: square"/>
    </g>
    <g id="text_12">
     <!-- cumulative reward -->
     <g transform="translate(250.8825 68.0295)scale(0.16 -0.16)">
      <defs>
       <path id="DejaVuSans-63" d="M 3122 3366 
L 3122 2828 
Q 2878 2963 2633 3030 
Q 2388 3097 2138 3097 
Q 1578 3097 1268 2742 
Q 959 2388 959 1747 
Q 959 1106 1268 751 
Q 1578 397 2138 397 
Q 2388 397 2633 464 
Q 2878 531 3122 666 
L 3122 134 
Q 2881 22 2623 -34 
Q 2366 -91 2075 -91 
Q 1284 -91 818 406 
Q 353 903 353 1747 
Q 353 2603 823 3093 
Q 1294 3584 2113 3584 
Q 2378 3584 2631 3529 
Q 2884 3475 3122 3366 
z
" transform="scale(0.015625)"/>
      </defs>
      <use xlink:href="#DejaVuSans-63"/>
      <use xlink:href="#DejaVuSans-75" x="54.980469"/>
      <use xlink:href="#DejaVuSans-6d" x="118.359375"/>
      <use xlink:href="#DejaVuSans-75" x="215.771484"/>
      <use xlink:href="#DejaVuSans-6c" x="279.150391"/>
      <use xlink:href="#DejaVuSans-61" x="306.933594"/>
      <use xlink:href="#DejaVuSans-74" x="368.212891"/>
      <use xlink:href="#DejaVuSans-69" x="407.421875"/>
      <use xlink:href="#DejaVuSans-76" x="435.205078"/>
      <use xlink:href="#DejaVuSans-65" x="494.384766"/>
      <use xlink:href="#DejaVuSans-20" x="555.908203"/>
      <use xlink:href="#DejaVuSans-72" x="587.695312"/>
      <use xlink:href="#DejaVuSans-65" x="626.558594"/>
      <use xlink:href="#DejaVuSans-77" x="688.082031"/>
      <use xlink:href="#DejaVuSans-61" x="769.869141"/>
      <use xlink:href="#DejaVuSans-72" x="831.148438"/>
      <use xlink:href="#DejaVuSans-64" x="870.511719"/>
     </g>
    </g>
   </g>
  </g>
 </g>
 <defs>
  <clipPath id="pafc85d3122">
   <rect x="57.6" y="41.472" width="357.12" height="266.112"/>
  </clipPath>
 </defs>
</svg>
