<?xml version="1.0" encoding="utf-8" standalone="no"?>
<!DOCTYPE svg PUBLIC "-//W3C//DTD SVG 1.1//EN"
  "http://www.w3.org/Graphics/SVG/1.1/DTD/svg11.dtd">
<svg height="345.6pt" version="1.1" viewBox="0 0 460.8 345.6" width="460.8pt" xmlns="http://www.w3.org/2000/svg" xmlns:xlink="http://www.w3.org/1999/xlink">
 <metadata>
  <rdf:RDF xmlns:cc="http://creativecommons.org/ns#" xmlns:dc="http://purl.org/dc/elements/1.1/" xmlns:rdf="http://www.w3.org/1999/02/22-rdf-syntax-ns#">
   <cc:Work>
    <dc:type rdf:resource="http://purl.org/dc/dcmitype/StillImage"/>
    <dc:date>2021-10-27T13:19:24.899093</dc:date>
    <dc:description>{"agent.algorithm": "RayProximalPolicyOptimization", "agent.algorithm.render_env": false, "agent.algorithm.num_workers": 0, "agent.algorithm.batch_mode": "complete_episodes", "agent.algorithm.train_batch_size": 200, "agent.algorithm.optimizer": "Adam", "agent.algorithm.vf_clip_param": 5000, "agent.algorithm.model": {"fcnet_activation": "tanh", "fcnet_hiddens": [50, 50]}, "env.env_class": "SchedulerPolicyRayEnvironment", "env.env_config": {"solver_driver": "CMAdriver", "solver_driver_args": [10, 10, 20, 0.1], "maximize": false, "steps": 50, "state_metrics_names": ["DifferenceOfBest", "SolverStateHistory", "SolverState"], "state_metrics_config": [[40, false, 1, true], [{"step_size": {"max": 3, "min": 0}}, 40], [{"ps": {"max": 10, "min": -10}}]], "reward_metric": "Best", "reward_metric_config": [false, false], "memes_no": 1, "action_space_config": {"step_size": {"max": 3, "min": 1e-10}}}}</dc:description>
    <dc:format>image/svg+xml</dc:format>
    <dc:creator>
     <cc:Agent>
      <dc:title>Matplotlib v3.4.3, https://matplotlib.org/</dc:title>
     </cc:Agent>
    </dc:creator>
   </cc:Work>
  </rdf:RDF>
 </metadata>
 <defs>
  <style type="text/css">*{stroke-linecap:butt;stroke-linejoin:round;}</style>
 </defs>
 <g id="figure_1">
  <g id="patch_1">
   <path d="M 0 345.6 
L 460.8 345.6 
L 460.8 0 
L 0 0 
z
" style="fill:#ffffff;"/>
  </g>
  <g id="axes_1">
   <g id="patch_2">
    <path d="M 57.6 307.584 
L 414.72 307.584 
L 414.72 41.472 
L 57.6 41.472 
z
" style="fill:#ffffff;"/>
   </g>
   <g id="matplotlib.axis_1">
    <g id="xtick_1">
     <g id="line2d_1">
      <path clip-path="url(#p7d2a55814d)" d="M 57.6 307.584 
L 57.6 41.472 
" style="fill:none;stroke:#b0b0b0;stroke-linecap:square;stroke-width:0.8;"/>
     </g>
     <g id="line2d_2">
      <defs>
       <path d="M 0 0 
L 0 3.5 
" id="m0451d150a0" style="stroke:#000000;stroke-width:0.8;"/>
      </defs>
      <g>
       <use style="stroke:#000000;stroke-width:0.8;" x="57.6" xlink:href="#m0451d150a0" y="307.584"/>
      </g>
     </g>
     <g id="text_1">
      <!-- 0 -->
      <g transform="translate(54.41875 322.182437)scale(0.1 -0.1)">
       <defs>
        <path d="M 2034 4250 
Q 1547 4250 1301 3770 
Q 1056 3291 1056 2328 
Q 1056 1369 1301 889 
Q 1547 409 2034 409 
Q 2525 409 2770 889 
Q 3016 1369 3016 2328 
Q 3016 3291 2770 3770 
Q 2525 4250 2034 4250 
z
M 2034 4750 
Q 2819 4750 3233 4129 
Q 3647 3509 3647 2328 
Q 3647 1150 3233 529 
Q 2819 -91 2034 -91 
Q 1250 -91 836 529 
Q 422 1150 422 2328 
Q 422 3509 836 4129 
Q 1250 4750 2034 4750 
z
" id="DejaVuSans-30" transform="scale(0.015625)"/>
       </defs>
       <use xlink:href="#DejaVuSans-30"/>
      </g>
     </g>
    </g>
    <g id="xtick_2">
     <g id="line2d_3">
      <path clip-path="url(#p7d2a55814d)" d="M 102.24 307.584 
L 102.24 41.472 
" style="fill:none;stroke:#b0b0b0;stroke-linecap:square;stroke-width:0.8;"/>
     </g>
     <g id="line2d_4">
      <g>
       <use style="stroke:#000000;stroke-width:0.8;" x="102.24" xlink:href="#m0451d150a0" y="307.584"/>
      </g>
     </g>
     <g id="text_2">
      <!-- 250 -->
      <g transform="translate(92.69625 322.182437)scale(0.1 -0.1)">
       <defs>
        <path d="M 1228 531 
L 3431 531 
L 3431 0 
L 469 0 
L 469 531 
Q 828 903 1448 1529 
Q 2069 2156 2228 2338 
Q 2531 2678 2651 2914 
Q 2772 3150 2772 3378 
Q 2772 3750 2511 3984 
Q 2250 4219 1831 4219 
Q 1534 4219 1204 4116 
Q 875 4013 500 3803 
L 500 4441 
Q 881 4594 1212 4672 
Q 1544 4750 1819 4750 
Q 2544 4750 2975 4387 
Q 3406 4025 3406 3419 
Q 3406 3131 3298 2873 
Q 3191 2616 2906 2266 
Q 2828 2175 2409 1742 
Q 1991 1309 1228 531 
z
" id="DejaVuSans-32" transform="scale(0.015625)"/>
        <path d="M 691 4666 
L 3169 4666 
L 3169 4134 
L 1269 4134 
L 1269 2991 
Q 1406 3038 1543 3061 
Q 1681 3084 1819 3084 
Q 2600 3084 3056 2656 
Q 3513 2228 3513 1497 
Q 3513 744 3044 326 
Q 2575 -91 1722 -91 
Q 1428 -91 1123 -41 
Q 819 9 494 109 
L 494 744 
Q 775 591 1075 516 
Q 1375 441 1709 441 
Q 2250 441 2565 725 
Q 2881 1009 2881 1497 
Q 2881 1984 2565 2268 
Q 2250 2553 1709 2553 
Q 1456 2553 1204 2497 
Q 953 2441 691 2322 
L 691 4666 
z
" id="DejaVuSans-35" transform="scale(0.015625)"/>
       </defs>
       <use xlink:href="#DejaVuSans-32"/>
       <use x="63.623047" xlink:href="#DejaVuSans-35"/>
       <use x="127.246094" xlink:href="#DejaVuSans-30"/>
      </g>
     </g>
    </g>
    <g id="xtick_3">
     <g id="line2d_5">
      <path clip-path="url(#p7d2a55814d)" d="M 146.88 307.584 
L 146.88 41.472 
" style="fill:none;stroke:#b0b0b0;stroke-linecap:square;stroke-width:0.8;"/>
     </g>
     <g id="line2d_6">
      <g>
       <use style="stroke:#000000;stroke-width:0.8;" x="146.88" xlink:href="#m0451d150a0" y="307.584"/>
      </g>
     </g>
     <g id="text_3">
      <!-- 500 -->
      <g transform="translate(137.33625 322.182437)scale(0.1 -0.1)">
       <use xlink:href="#DejaVuSans-35"/>
       <use x="63.623047" xlink:href="#DejaVuSans-30"/>
       <use x="127.246094" xlink:href="#DejaVuSans-30"/>
      </g>
     </g>
    </g>
    <g id="xtick_4">
     <g id="line2d_7">
      <path clip-path="url(#p7d2a55814d)" d="M 191.52 307.584 
L 191.52 41.472 
" style="fill:none;stroke:#b0b0b0;stroke-linecap:square;stroke-width:0.8;"/>
     </g>
     <g id="line2d_8">
      <g>
       <use style="stroke:#000000;stroke-width:0.8;" x="191.52" xlink:href="#m0451d150a0" y="307.584"/>
      </g>
     </g>
     <g id="text_4">
      <!-- 750 -->
      <g transform="translate(181.97625 322.182437)scale(0.1 -0.1)">
       <defs>
        <path d="M 525 4666 
L 3525 4666 
L 3525 4397 
L 1831 0 
L 1172 0 
L 2766 4134 
L 525 4134 
L 525 4666 
z
" id="DejaVuSans-37" transform="scale(0.015625)"/>
       </defs>
       <use xlink:href="#DejaVuSans-37"/>
       <use x="63.623047" xlink:href="#DejaVuSans-35"/>
       <use x="127.246094" xlink:href="#DejaVuSans-30"/>
      </g>
     </g>
    </g>
    <g id="xtick_5">
     <g id="line2d_9">
      <path clip-path="url(#p7d2a55814d)" d="M 236.16 307.584 
L 236.16 41.472 
" style="fill:none;stroke:#b0b0b0;stroke-linecap:square;stroke-width:0.8;"/>
     </g>
     <g id="line2d_10">
      <g>
       <use style="stroke:#000000;stroke-width:0.8;" x="236.16" xlink:href="#m0451d150a0" y="307.584"/>
      </g>
     </g>
     <g id="text_5">
      <!-- 1000 -->
      <g transform="translate(223.435 322.182437)scale(0.1 -0.1)">
       <defs>
        <path d="M 794 531 
L 1825 531 
L 1825 4091 
L 703 3866 
L 703 4441 
L 1819 4666 
L 2450 4666 
L 2450 531 
L 3481 531 
L 3481 0 
L 794 0 
L 794 531 
z
" id="DejaVuSans-31" transform="scale(0.015625)"/>
       </defs>
       <use xlink:href="#DejaVuSans-31"/>
       <use x="63.623047" xlink:href="#DejaVuSans-30"/>
       <use x="127.246094" xlink:href="#DejaVuSans-30"/>
       <use x="190.869141" xlink:href="#DejaVuSans-30"/>
      </g>
     </g>
    </g>
    <g id="xtick_6">
     <g id="line2d_11">
      <path clip-path="url(#p7d2a55814d)" d="M 280.8 307.584 
L 280.8 41.472 
" style="fill:none;stroke:#b0b0b0;stroke-linecap:square;stroke-width:0.8;"/>
     </g>
     <g id="line2d_12">
      <g>
       <use style="stroke:#000000;stroke-width:0.8;" x="280.8" xlink:href="#m0451d150a0" y="307.584"/>
      </g>
     </g>
     <g id="text_6">
      <!-- 1250 -->
      <g transform="translate(268.075 322.182437)scale(0.1 -0.1)">
       <use xlink:href="#DejaVuSans-31"/>
       <use x="63.623047" xlink:href="#DejaVuSans-32"/>
       <use x="127.246094" xlink:href="#DejaVuSans-35"/>
       <use x="190.869141" xlink:href="#DejaVuSans-30"/>
      </g>
     </g>
    </g>
    <g id="xtick_7">
     <g id="line2d_13">
      <path clip-path="url(#p7d2a55814d)" d="M 325.44 307.584 
L 325.44 41.472 
" style="fill:none;stroke:#b0b0b0;stroke-linecap:square;stroke-width:0.8;"/>
     </g>
     <g id="line2d_14">
      <g>
       <use style="stroke:#000000;stroke-width:0.8;" x="325.44" xlink:href="#m0451d150a0" y="307.584"/>
      </g>
     </g>
     <g id="text_7">
      <!-- 1500 -->
      <g transform="translate(312.715 322.182437)scale(0.1 -0.1)">
       <use xlink:href="#DejaVuSans-31"/>
       <use x="63.623047" xlink:href="#DejaVuSans-35"/>
       <use x="127.246094" xlink:href="#DejaVuSans-30"/>
       <use x="190.869141" xlink:href="#DejaVuSans-30"/>
      </g>
     </g>
    </g>
    <g id="xtick_8">
     <g id="line2d_15">
      <path clip-path="url(#p7d2a55814d)" d="M 370.08 307.584 
L 370.08 41.472 
" style="fill:none;stroke:#b0b0b0;stroke-linecap:square;stroke-width:0.8;"/>
     </g>
     <g id="line2d_16">
      <g>
       <use style="stroke:#000000;stroke-width:0.8;" x="370.08" xlink:href="#m0451d150a0" y="307.584"/>
      </g>
     </g>
     <g id="text_8">
      <!-- 1750 -->
      <g transform="translate(357.355 322.182437)scale(0.1 -0.1)">
       <use xlink:href="#DejaVuSans-31"/>
       <use x="63.623047" xlink:href="#DejaVuSans-37"/>
       <use x="127.246094" xlink:href="#DejaVuSans-35"/>
       <use x="190.869141" xlink:href="#DejaVuSans-30"/>
      </g>
     </g>
    </g>
    <g id="xtick_9">
     <g id="line2d_17">
      <path clip-path="url(#p7d2a55814d)" d="M 414.72 307.584 
L 414.72 41.472 
" style="fill:none;stroke:#b0b0b0;stroke-linecap:square;stroke-width:0.8;"/>
     </g>
     <g id="line2d_18">
      <g>
       <use style="stroke:#000000;stroke-width:0.8;" x="414.72" xlink:href="#m0451d150a0" y="307.584"/>
      </g>
     </g>
     <g id="text_9">
      <!-- 2000 -->
      <g transform="translate(401.995 322.182437)scale(0.1 -0.1)">
       <use xlink:href="#DejaVuSans-32"/>
       <use x="63.623047" xlink:href="#DejaVuSans-30"/>
       <use x="127.246094" xlink:href="#DejaVuSans-30"/>
       <use x="190.869141" xlink:href="#DejaVuSans-30"/>
      </g>
     </g>
    </g>
    <g id="text_10">
     <!-- Episodes -->
     <g transform="translate(213.917812 335.860562)scale(0.1 -0.1)">
      <defs>
       <path d="M 628 4666 
L 3578 4666 
L 3578 4134 
L 1259 4134 
L 1259 2753 
L 3481 2753 
L 3481 2222 
L 1259 2222 
L 1259 531 
L 3634 531 
L 3634 0 
L 628 0 
L 628 4666 
z
" id="DejaVuSans-45" transform="scale(0.015625)"/>
       <path d="M 1159 525 
L 1159 -1331 
L 581 -1331 
L 581 3500 
L 1159 3500 
L 1159 2969 
Q 1341 3281 1617 3432 
Q 1894 3584 2278 3584 
Q 2916 3584 3314 3078 
Q 3713 2572 3713 1747 
Q 3713 922 3314 415 
Q 2916 -91 2278 -91 
Q 1894 -91 1617 61 
Q 1341 213 1159 525 
z
M 3116 1747 
Q 3116 2381 2855 2742 
Q 2594 3103 2138 3103 
Q 1681 3103 1420 2742 
Q 1159 2381 1159 1747 
Q 1159 1113 1420 752 
Q 1681 391 2138 391 
Q 2594 391 2855 752 
Q 3116 1113 3116 1747 
z
" id="DejaVuSans-70" transform="scale(0.015625)"/>
       <path d="M 603 3500 
L 1178 3500 
L 1178 0 
L 603 0 
L 603 3500 
z
M 603 4863 
L 1178 4863 
L 1178 4134 
L 603 4134 
L 603 4863 
z
" id="DejaVuSans-69" transform="scale(0.015625)"/>
       <path d="M 2834 3397 
L 2834 2853 
Q 2591 2978 2328 3040 
Q 2066 3103 1784 3103 
Q 1356 3103 1142 2972 
Q 928 2841 928 2578 
Q 928 2378 1081 2264 
Q 1234 2150 1697 2047 
L 1894 2003 
Q 2506 1872 2764 1633 
Q 3022 1394 3022 966 
Q 3022 478 2636 193 
Q 2250 -91 1575 -91 
Q 1294 -91 989 -36 
Q 684 19 347 128 
L 347 722 
Q 666 556 975 473 
Q 1284 391 1588 391 
Q 1994 391 2212 530 
Q 2431 669 2431 922 
Q 2431 1156 2273 1281 
Q 2116 1406 1581 1522 
L 1381 1569 
Q 847 1681 609 1914 
Q 372 2147 372 2553 
Q 372 3047 722 3315 
Q 1072 3584 1716 3584 
Q 2034 3584 2315 3537 
Q 2597 3491 2834 3397 
z
" id="DejaVuSans-73" transform="scale(0.015625)"/>
       <path d="M 1959 3097 
Q 1497 3097 1228 2736 
Q 959 2375 959 1747 
Q 959 1119 1226 758 
Q 1494 397 1959 397 
Q 2419 397 2687 759 
Q 2956 1122 2956 1747 
Q 2956 2369 2687 2733 
Q 2419 3097 1959 3097 
z
M 1959 3584 
Q 2709 3584 3137 3096 
Q 3566 2609 3566 1747 
Q 3566 888 3137 398 
Q 2709 -91 1959 -91 
Q 1206 -91 779 398 
Q 353 888 353 1747 
Q 353 2609 779 3096 
Q 1206 3584 1959 3584 
z
" id="DejaVuSans-6f" transform="scale(0.015625)"/>
       <path d="M 2906 2969 
L 2906 4863 
L 3481 4863 
L 3481 0 
L 2906 0 
L 2906 525 
Q 2725 213 2448 61 
Q 2172 -91 1784 -91 
Q 1150 -91 751 415 
Q 353 922 353 1747 
Q 353 2572 751 3078 
Q 1150 3584 1784 3584 
Q 2172 3584 2448 3432 
Q 2725 3281 2906 2969 
z
M 947 1747 
Q 947 1113 1208 752 
Q 1469 391 1925 391 
Q 2381 391 2643 752 
Q 2906 1113 2906 1747 
Q 2906 2381 2643 2742 
Q 2381 3103 1925 3103 
Q 1469 3103 1208 2742 
Q 947 2381 947 1747 
z
" id="DejaVuSans-64" transform="scale(0.015625)"/>
       <path d="M 3597 1894 
L 3597 1613 
L 953 1613 
Q 991 1019 1311 708 
Q 1631 397 2203 397 
Q 2534 397 2845 478 
Q 3156 559 3463 722 
L 3463 178 
Q 3153 47 2828 -22 
Q 2503 -91 2169 -91 
Q 1331 -91 842 396 
Q 353 884 353 1716 
Q 353 2575 817 3079 
Q 1281 3584 2069 3584 
Q 2775 3584 3186 3129 
Q 3597 2675 3597 1894 
z
M 3022 2063 
Q 3016 2534 2758 2815 
Q 2500 3097 2075 3097 
Q 1594 3097 1305 2825 
Q 1016 2553 972 2059 
L 3022 2063 
z
" id="DejaVuSans-65" transform="scale(0.015625)"/>
      </defs>
      <use xlink:href="#DejaVuSans-45"/>
      <use x="63.183594" xlink:href="#DejaVuSans-70"/>
      <use x="126.660156" xlink:href="#DejaVuSans-69"/>
      <use x="154.443359" xlink:href="#DejaVuSans-73"/>
      <use x="206.542969" xlink:href="#DejaVuSans-6f"/>
      <use x="267.724609" xlink:href="#DejaVuSans-64"/>
      <use x="331.201172" xlink:href="#DejaVuSans-65"/>
      <use x="392.724609" xlink:href="#DejaVuSans-73"/>
     </g>
    </g>
   </g>
   <g id="matplotlib.axis_2">
    <g id="ytick_1">
     <g id="line2d_19">
      <path clip-path="url(#p7d2a55814d)" d="M 57.6 298.623538 
L 414.72 298.623538 
" style="fill:none;stroke:#b0b0b0;stroke-linecap:square;stroke-width:0.8;"/>
     </g>
     <g id="line2d_20">
      <defs>
       <path d="M 0 0 
L -3.5 0 
" id="m32b239c513" style="stroke:#000000;stroke-width:0.8;"/>
      </defs>
      <g>
       <use style="stroke:#000000;stroke-width:0.8;" x="57.6" xlink:href="#m32b239c513" y="298.623538"/>
      </g>
     </g>
     <g id="text_11">
      <!-- −500000 -->
      <g transform="translate(4.045313 302.422757)scale(0.1 -0.1)">
       <defs>
        <path d="M 678 2272 
L 4684 2272 
L 4684 1741 
L 678 1741 
L 678 2272 
z
" id="DejaVuSans-2212" transform="scale(0.015625)"/>
       </defs>
       <use xlink:href="#DejaVuSans-2212"/>
       <use x="83.789062" xlink:href="#DejaVuSans-35"/>
       <use x="147.412109" xlink:href="#DejaVuSans-30"/>
       <use x="211.035156" xlink:href="#DejaVuSans-30"/>
       <use x="274.658203" xlink:href="#DejaVuSans-30"/>
       <use x="338.28125" xlink:href="#DejaVuSans-30"/>
       <use x="401.904297" xlink:href="#DejaVuSans-30"/>
      </g>
     </g>
    </g>
    <g id="ytick_2">
     <g id="line2d_21">
      <path clip-path="url(#p7d2a55814d)" d="M 57.6 250.734326 
L 414.72 250.734326 
" style="fill:none;stroke:#b0b0b0;stroke-linecap:square;stroke-width:0.8;"/>
     </g>
     <g id="line2d_22">
      <g>
       <use style="stroke:#000000;stroke-width:0.8;" x="57.6" xlink:href="#m32b239c513" y="250.734326"/>
      </g>
     </g>
     <g id="text_12">
      <!-- −400000 -->
      <g transform="translate(4.045313 254.533544)scale(0.1 -0.1)">
       <defs>
        <path d="M 2419 4116 
L 825 1625 
L 2419 1625 
L 2419 4116 
z
M 2253 4666 
L 3047 4666 
L 3047 1625 
L 3713 1625 
L 3713 1100 
L 3047 1100 
L 3047 0 
L 2419 0 
L 2419 1100 
L 313 1100 
L 313 1709 
L 2253 4666 
z
" id="DejaVuSans-34" transform="scale(0.015625)"/>
       </defs>
       <use xlink:href="#DejaVuSans-2212"/>
       <use x="83.789062" xlink:href="#DejaVuSans-34"/>
       <use x="147.412109" xlink:href="#DejaVuSans-30"/>
       <use x="211.035156" xlink:href="#DejaVuSans-30"/>
       <use x="274.658203" xlink:href="#DejaVuSans-30"/>
       <use x="338.28125" xlink:href="#DejaVuSans-30"/>
       <use x="401.904297" xlink:href="#DejaVuSans-30"/>
      </g>
     </g>
    </g>
    <g id="ytick_3">
     <g id="line2d_23">
      <path clip-path="url(#p7d2a55814d)" d="M 57.6 202.845113 
L 414.72 202.845113 
" style="fill:none;stroke:#b0b0b0;stroke-linecap:square;stroke-width:0.8;"/>
     </g>
     <g id="line2d_24">
      <g>
       <use style="stroke:#000000;stroke-width:0.8;" x="57.6" xlink:href="#m32b239c513" y="202.845113"/>
      </g>
     </g>
     <g id="text_13">
      <!-- −300000 -->
      <g transform="translate(4.045313 206.644332)scale(0.1 -0.1)">
       <defs>
        <path d="M 2597 2516 
Q 3050 2419 3304 2112 
Q 3559 1806 3559 1356 
Q 3559 666 3084 287 
Q 2609 -91 1734 -91 
Q 1441 -91 1130 -33 
Q 819 25 488 141 
L 488 750 
Q 750 597 1062 519 
Q 1375 441 1716 441 
Q 2309 441 2620 675 
Q 2931 909 2931 1356 
Q 2931 1769 2642 2001 
Q 2353 2234 1838 2234 
L 1294 2234 
L 1294 2753 
L 1863 2753 
Q 2328 2753 2575 2939 
Q 2822 3125 2822 3475 
Q 2822 3834 2567 4026 
Q 2313 4219 1838 4219 
Q 1578 4219 1281 4162 
Q 984 4106 628 3988 
L 628 4550 
Q 988 4650 1302 4700 
Q 1616 4750 1894 4750 
Q 2613 4750 3031 4423 
Q 3450 4097 3450 3541 
Q 3450 3153 3228 2886 
Q 3006 2619 2597 2516 
z
" id="DejaVuSans-33" transform="scale(0.015625)"/>
       </defs>
       <use xlink:href="#DejaVuSans-2212"/>
       <use x="83.789062" xlink:href="#DejaVuSans-33"/>
       <use x="147.412109" xlink:href="#DejaVuSans-30"/>
       <use x="211.035156" xlink:href="#DejaVuSans-30"/>
       <use x="274.658203" xlink:href="#DejaVuSans-30"/>
       <use x="338.28125" xlink:href="#DejaVuSans-30"/>
       <use x="401.904297" xlink:href="#DejaVuSans-30"/>
      </g>
     </g>
    </g>
    <g id="ytick_4">
     <g id="line2d_25">
      <path clip-path="url(#p7d2a55814d)" d="M 57.6 154.9559 
L 414.72 154.9559 
" style="fill:none;stroke:#b0b0b0;stroke-linecap:square;stroke-width:0.8;"/>
     </g>
     <g id="line2d_26">
      <g>
       <use style="stroke:#000000;stroke-width:0.8;" x="57.6" xlink:href="#m32b239c513" y="154.9559"/>
      </g>
     </g>
     <g id="text_14">
      <!-- −200000 -->
      <g transform="translate(4.045313 158.755119)scale(0.1 -0.1)">
       <use xlink:href="#DejaVuSans-2212"/>
       <use x="83.789062" xlink:href="#DejaVuSans-32"/>
       <use x="147.412109" xlink:href="#DejaVuSans-30"/>
       <use x="211.035156" xlink:href="#DejaVuSans-30"/>
       <use x="274.658203" xlink:href="#DejaVuSans-30"/>
       <use x="338.28125" xlink:href="#DejaVuSans-30"/>
       <use x="401.904297" xlink:href="#DejaVuSans-30"/>
      </g>
     </g>
    </g>
    <g id="ytick_5">
     <g id="line2d_27">
      <path clip-path="url(#p7d2a55814d)" d="M 57.6 107.066688 
L 414.72 107.066688 
" style="fill:none;stroke:#b0b0b0;stroke-linecap:square;stroke-width:0.8;"/>
     </g>
     <g id="line2d_28">
      <g>
       <use style="stroke:#000000;stroke-width:0.8;" x="57.6" xlink:href="#m32b239c513" y="107.066688"/>
      </g>
     </g>
     <g id="text_15">
      <!-- −100000 -->
      <g transform="translate(4.045313 110.865907)scale(0.1 -0.1)">
       <use xlink:href="#DejaVuSans-2212"/>
       <use x="83.789062" xlink:href="#DejaVuSans-31"/>
       <use x="147.412109" xlink:href="#DejaVuSans-30"/>
       <use x="211.035156" xlink:href="#DejaVuSans-30"/>
       <use x="274.658203" xlink:href="#DejaVuSans-30"/>
       <use x="338.28125" xlink:href="#DejaVuSans-30"/>
       <use x="401.904297" xlink:href="#DejaVuSans-30"/>
      </g>
     </g>
    </g>
    <g id="ytick_6">
     <g id="line2d_29">
      <path clip-path="url(#p7d2a55814d)" d="M 57.6 59.177475 
L 414.72 59.177475 
" style="fill:none;stroke:#b0b0b0;stroke-linecap:square;stroke-width:0.8;"/>
     </g>
     <g id="line2d_30">
      <g>
       <use style="stroke:#000000;stroke-width:0.8;" x="57.6" xlink:href="#m32b239c513" y="59.177475"/>
      </g>
     </g>
     <g id="text_16">
      <!-- 0 -->
      <g transform="translate(44.2375 62.976694)scale(0.1 -0.1)">
       <use xlink:href="#DejaVuSans-30"/>
      </g>
     </g>
    </g>
    <g id="text_17">
     <!-- Cumulative Reward -->
     <g transform="translate(-2.034375 223.275656)rotate(-90)scale(0.1 -0.1)">
      <defs>
       <path d="M 4122 4306 
L 4122 3641 
Q 3803 3938 3442 4084 
Q 3081 4231 2675 4231 
Q 1875 4231 1450 3742 
Q 1025 3253 1025 2328 
Q 1025 1406 1450 917 
Q 1875 428 2675 428 
Q 3081 428 3442 575 
Q 3803 722 4122 1019 
L 4122 359 
Q 3791 134 3420 21 
Q 3050 -91 2638 -91 
Q 1578 -91 968 557 
Q 359 1206 359 2328 
Q 359 3453 968 4101 
Q 1578 4750 2638 4750 
Q 3056 4750 3426 4639 
Q 3797 4528 4122 4306 
z
" id="DejaVuSans-43" transform="scale(0.015625)"/>
       <path d="M 544 1381 
L 544 3500 
L 1119 3500 
L 1119 1403 
Q 1119 906 1312 657 
Q 1506 409 1894 409 
Q 2359 409 2629 706 
Q 2900 1003 2900 1516 
L 2900 3500 
L 3475 3500 
L 3475 0 
L 2900 0 
L 2900 538 
Q 2691 219 2414 64 
Q 2138 -91 1772 -91 
Q 1169 -91 856 284 
Q 544 659 544 1381 
z
M 1991 3584 
L 1991 3584 
z
" id="DejaVuSans-75" transform="scale(0.015625)"/>
       <path d="M 3328 2828 
Q 3544 3216 3844 3400 
Q 4144 3584 4550 3584 
Q 5097 3584 5394 3201 
Q 5691 2819 5691 2113 
L 5691 0 
L 5113 0 
L 5113 2094 
Q 5113 2597 4934 2840 
Q 4756 3084 4391 3084 
Q 3944 3084 3684 2787 
Q 3425 2491 3425 1978 
L 3425 0 
L 2847 0 
L 2847 2094 
Q 2847 2600 2669 2842 
Q 2491 3084 2119 3084 
Q 1678 3084 1418 2786 
Q 1159 2488 1159 1978 
L 1159 0 
L 581 0 
L 581 3500 
L 1159 3500 
L 1159 2956 
Q 1356 3278 1631 3431 
Q 1906 3584 2284 3584 
Q 2666 3584 2933 3390 
Q 3200 3197 3328 2828 
z
" id="DejaVuSans-6d" transform="scale(0.015625)"/>
       <path d="M 603 4863 
L 1178 4863 
L 1178 0 
L 603 0 
L 603 4863 
z
" id="DejaVuSans-6c" transform="scale(0.015625)"/>
       <path d="M 2194 1759 
Q 1497 1759 1228 1600 
Q 959 1441 959 1056 
Q 959 750 1161 570 
Q 1363 391 1709 391 
Q 2188 391 2477 730 
Q 2766 1069 2766 1631 
L 2766 1759 
L 2194 1759 
z
M 3341 1997 
L 3341 0 
L 2766 0 
L 2766 531 
Q 2569 213 2275 61 
Q 1981 -91 1556 -91 
Q 1019 -91 701 211 
Q 384 513 384 1019 
Q 384 1609 779 1909 
Q 1175 2209 1959 2209 
L 2766 2209 
L 2766 2266 
Q 2766 2663 2505 2880 
Q 2244 3097 1772 3097 
Q 1472 3097 1187 3025 
Q 903 2953 641 2809 
L 641 3341 
Q 956 3463 1253 3523 
Q 1550 3584 1831 3584 
Q 2591 3584 2966 3190 
Q 3341 2797 3341 1997 
z
" id="DejaVuSans-61" transform="scale(0.015625)"/>
       <path d="M 1172 4494 
L 1172 3500 
L 2356 3500 
L 2356 3053 
L 1172 3053 
L 1172 1153 
Q 1172 725 1289 603 
Q 1406 481 1766 481 
L 2356 481 
L 2356 0 
L 1766 0 
Q 1100 0 847 248 
Q 594 497 594 1153 
L 594 3053 
L 172 3053 
L 172 3500 
L 594 3500 
L 594 4494 
L 1172 4494 
z
" id="DejaVuSans-74" transform="scale(0.015625)"/>
       <path d="M 191 3500 
L 800 3500 
L 1894 563 
L 2988 3500 
L 3597 3500 
L 2284 0 
L 1503 0 
L 191 3500 
z
" id="DejaVuSans-76" transform="scale(0.015625)"/>
       <path id="DejaVuSans-20" transform="scale(0.015625)"/>
       <path d="M 2841 2188 
Q 3044 2119 3236 1894 
Q 3428 1669 3622 1275 
L 4263 0 
L 3584 0 
L 2988 1197 
Q 2756 1666 2539 1819 
Q 2322 1972 1947 1972 
L 1259 1972 
L 1259 0 
L 628 0 
L 628 4666 
L 2053 4666 
Q 2853 4666 3247 4331 
Q 3641 3997 3641 3322 
Q 3641 2881 3436 2590 
Q 3231 2300 2841 2188 
z
M 1259 4147 
L 1259 2491 
L 2053 2491 
Q 2509 2491 2742 2702 
Q 2975 2913 2975 3322 
Q 2975 3731 2742 3939 
Q 2509 4147 2053 4147 
L 1259 4147 
z
" id="DejaVuSans-52" transform="scale(0.015625)"/>
       <path d="M 269 3500 
L 844 3500 
L 1563 769 
L 2278 3500 
L 2956 3500 
L 3675 769 
L 4391 3500 
L 4966 3500 
L 4050 0 
L 3372 0 
L 2619 2869 
L 1863 0 
L 1184 0 
L 269 3500 
z
" id="DejaVuSans-77" transform="scale(0.015625)"/>
       <path d="M 2631 2963 
Q 2534 3019 2420 3045 
Q 2306 3072 2169 3072 
Q 1681 3072 1420 2755 
Q 1159 2438 1159 1844 
L 1159 0 
L 581 0 
L 581 3500 
L 1159 3500 
L 1159 2956 
Q 1341 3275 1631 3429 
Q 1922 3584 2338 3584 
Q 2397 3584 2469 3576 
Q 2541 3569 2628 3553 
L 2631 2963 
z
" id="DejaVuSans-72" transform="scale(0.015625)"/>
      </defs>
      <use xlink:href="#DejaVuSans-43"/>
      <use x="69.824219" xlink:href="#DejaVuSans-75"/>
      <use x="133.203125" xlink:href="#DejaVuSans-6d"/>
      <use x="230.615234" xlink:href="#DejaVuSans-75"/>
      <use x="293.994141" xlink:href="#DejaVuSans-6c"/>
      <use x="321.777344" xlink:href="#DejaVuSans-61"/>
      <use x="383.056641" xlink:href="#DejaVuSans-74"/>
      <use x="422.265625" xlink:href="#DejaVuSans-69"/>
      <use x="450.048828" xlink:href="#DejaVuSans-76"/>
      <use x="509.228516" xlink:href="#DejaVuSans-65"/>
      <use x="570.751953" xlink:href="#DejaVuSans-20"/>
      <use x="602.539062" xlink:href="#DejaVuSans-52"/>
      <use x="667.521484" xlink:href="#DejaVuSans-65"/>
      <use x="729.044922" xlink:href="#DejaVuSans-77"/>
      <use x="810.832031" xlink:href="#DejaVuSans-61"/>
      <use x="872.111328" xlink:href="#DejaVuSans-72"/>
      <use x="911.474609" xlink:href="#DejaVuSans-64"/>
     </g>
    </g>
   </g>
   <g id="line2d_31">
    <path clip-path="url(#p7d2a55814d)" d="M 57.6 221.105542 
L 57.77856 236.075879 
L 57.95712 217.571643 
L 58.13568 173.14727 
L 58.31424 221.105542 
L 58.4928 236.075879 
L 58.67136 217.571643 
L 58.84992 173.14727 
L 59.02848 221.105542 
L 59.20704 236.075879 
L 59.3856 217.571643 
L 59.56416 173.14727 
L 59.74272 221.105542 
L 59.92128 236.075879 
L 60.09984 217.571643 
L 60.2784 173.14727 
L 60.45696 221.105542 
L 60.63552 236.075879 
L 60.81408 217.571643 
L 60.99264 173.14727 
L 61.1712 221.105542 
L 61.34976 236.075879 
L 61.52832 217.571643 
L 61.70688 173.14727 
L 61.88544 221.105542 
L 62.064 236.075879 
L 62.24256 217.571643 
L 62.42112 173.14727 
L 62.59968 221.105542 
L 62.77824 236.075879 
L 62.9568 217.571643 
L 63.13536 173.14727 
L 63.31392 221.105542 
L 63.49248 236.075879 
L 63.67104 217.571643 
L 63.8496 173.14727 
L 64.02816 221.105542 
L 64.20672 236.075879 
L 64.38528 217.571643 
L 64.56384 173.14727 
L 64.7424 221.105542 
L 64.92096 236.075879 
L 65.09952 217.571643 
L 65.27808 173.14727 
L 65.45664 221.105542 
L 65.6352 236.075879 
L 65.81376 217.571643 
L 65.99232 173.14727 
L 66.17088 221.105542 
L 66.34944 236.075879 
L 66.528 217.571643 
L 66.70656 173.14727 
L 66.88512 221.105542 
L 67.06368 236.075879 
L 67.24224 217.571643 
L 67.4208 173.14727 
L 67.59936 221.105542 
L 67.77792 236.075879 
L 67.95648 217.571643 
L 68.13504 173.14727 
L 68.3136 221.105542 
L 68.49216 236.075879 
L 68.67072 217.571643 
L 68.84928 173.14727 
L 69.02784 221.105542 
L 69.2064 236.075879 
L 69.38496 217.571643 
L 69.56352 173.14727 
L 69.74208 221.105542 
L 69.92064 236.075879 
L 70.0992 217.571643 
L 70.27776 173.14727 
L 70.45632 221.105542 
L 70.63488 236.075879 
L 70.81344 217.571643 
L 70.992 173.14727 
L 71.17056 221.105542 
L 71.34912 236.075879 
L 71.52768 217.571643 
L 71.70624 173.14727 
L 71.8848 221.105542 
L 72.06336 236.075879 
L 72.24192 217.571643 
L 72.42048 173.14727 
L 72.59904 221.105542 
L 72.7776 236.075879 
L 72.95616 217.571643 
L 73.13472 173.14727 
L 73.31328 221.105542 
L 73.49184 236.075879 
L 73.6704 217.571643 
L 73.84896 173.14727 
L 74.02752 221.105542 
L 74.20608 236.075879 
L 74.38464 217.571643 
L 74.5632 173.14727 
L 74.74176 221.105542 
L 74.92032 236.075879 
L 75.09888 217.571643 
L 75.27744 173.14727 
L 75.456 187.810958 
L 75.63456 279.196215 
L 75.81312 191.667914 
L 75.99168 239.513104 
L 76.17024 199.57834 
L 76.3488 215.010423 
L 76.70592 169.276302 
L 76.88448 208.553393 
L 77.06304 145.335459 
L 77.2416 228.94147 
L 77.42016 210.659026 
L 77.59872 173.988517 
L 77.77728 205.048806 
L 78.1344 134.668564 
L 78.31296 178.928075 
L 78.49152 146.222676 
L 78.67008 152.129547 
L 78.84864 241.74111 
L 79.0272 235.74807 
L 79.20576 285.408 
L 79.38432 190.539301 
L 79.56288 183.779062 
L 79.74144 278.9488 
L 80.09856 128.115151 
L 80.27712 209.20869 
L 80.45568 165.072357 
L 80.8128 186.003029 
L 80.99136 160.288526 
L 81.16992 111.175602 
L 81.34848 199.905198 
L 81.52704 198.085242 
L 81.7056 232.790435 
L 81.88416 200.020456 
L 82.06272 212.452602 
L 82.24128 157.465745 
L 82.5984 210.595601 
L 82.77696 215.415232 
L 82.95552 108.509668 
L 83.13408 234.859054 
L 83.4912 123.765636 
L 83.66976 187.177475 
L 84.02688 130.489794 
L 84.20544 144.614973 
L 84.384 147.291961 
L 84.56256 202.258676 
L 84.74112 181.025034 
L 84.91968 210.394046 
L 85.09824 127.173958 
L 85.2768 185.228993 
L 85.45536 120.084696 
L 85.63392 133.033048 
L 85.81248 184.90405 
L 85.99104 172.476981 
L 86.1696 117.600316 
L 86.34816 186.481796 
L 86.70528 164.310653 
L 86.88384 225.622556 
L 87.0624 138.403997 
L 87.24096 179.749093 
L 87.41952 192.846 
L 87.59808 141.328192 
L 87.77664 182.45522 
L 87.9552 186.511028 
L 88.13376 117.444842 
L 88.31232 171.206398 
L 88.49088 270.985884 
L 88.66944 147.74352 
L 88.848 137.091388 
L 89.02656 173.108051 
L 89.20512 105.582751 
L 89.38368 158.887818 
L 89.56224 159.00799 
L 89.7408 154.275808 
L 89.91936 88.194195 
L 90.27648 147.767263 
L 90.45504 79.41317 
L 90.6336 100.708006 
L 90.81216 100.64551 
L 90.99072 135.531707 
L 91.5264 79.460825 
L 91.70496 180.163228 
L 91.88352 99.455054 
L 92.06208 163.203484 
L 92.4192 79.194383 
L 92.59776 85.897895 
L 92.77632 102.688567 
L 92.95488 75.300955 
L 93.13344 104.105863 
L 93.312 99.20002 
L 93.49056 79.886181 
L 93.66912 87.705681 
L 93.84768 170.085409 
L 94.02624 75.663119 
L 94.2048 114.984167 
L 94.38336 74.394185 
L 94.56192 110.253647 
L 94.74048 102.470282 
L 94.91904 157.542208 
L 95.0976 89.301315 
L 95.27616 207.707885 
L 95.45472 89.721967 
L 95.63328 128.718628 
L 95.81184 103.678522 
L 95.9904 102.546473 
L 96.16896 76.835553 
L 96.34752 80.47238 
L 96.52608 92.78176 
L 96.8832 69.747352 
L 97.06176 65.851442 
L 97.24032 74.951059 
L 97.41888 72.364373 
L 97.59744 81.545668 
L 97.776 96.516772 
L 97.95456 72.058944 
L 98.13312 71.845112 
L 98.31168 95.150307 
L 98.6688 66.813356 
L 98.84736 126.663333 
L 99.20448 68.162681 
L 99.38304 101.589158 
L 99.5616 69.282665 
L 99.74016 73.682898 
L 99.91872 69.092767 
L 100.09728 69.431558 
L 100.27584 70.561977 
L 100.4544 86.482547 
L 100.63296 70.867301 
L 100.81152 72.579183 
L 100.99008 75.583343 
L 101.16864 69.307115 
L 101.3472 81.807029 
L 101.52576 70.100095 
L 101.70432 73.030291 
L 101.88288 69.508088 
L 102.06144 68.620447 
L 102.24 85.380608 
L 102.41856 69.1091 
L 102.59712 80.936205 
L 102.77568 100.659012 
L 102.95424 70.484507 
L 103.1328 119.781648 
L 103.48992 78.034475 
L 103.66848 72.433866 
L 103.84704 76.413935 
L 104.0256 67.26129 
L 104.20416 73.228223 
L 104.56128 67.938863 
L 104.73984 114.858638 
L 104.9184 69.947249 
L 105.09696 71.103219 
L 105.27552 65.270353 
L 105.45408 70.75302 
L 105.63264 69.220343 
L 105.8112 87.580561 
L 105.98976 68.928916 
L 106.16832 72.198689 
L 106.34688 66.665801 
L 106.52544 78.227428 
L 106.704 67.696091 
L 106.88256 71.406005 
L 107.06112 70.535873 
L 107.23968 103.174966 
L 107.41824 81.231591 
L 107.77536 72.521841 
L 107.95392 76.594854 
L 108.13248 89.095254 
L 108.31104 67.376649 
L 108.4896 64.684419 
L 108.66816 69.568667 
L 108.84672 68.853492 
L 109.02528 81.405643 
L 109.3824 66.515631 
L 109.56096 78.53008 
L 109.73952 66.732166 
L 109.91808 66.700007 
L 110.09664 79.15161 
L 110.2752 66.627894 
L 110.45376 64.464922 
L 110.63232 64.830193 
L 110.81088 66.975715 
L 111.168 74.36637 
L 111.34656 72.340257 
L 111.52512 76.980146 
L 111.88224 68.591592 
L 112.0608 67.998895 
L 112.23936 70.882051 
L 112.41792 67.235681 
L 112.59648 67.211635 
L 112.77504 79.464119 
L 112.9536 73.837818 
L 113.13216 76.110422 
L 113.31072 65.642535 
L 113.48928 100.471311 
L 113.66784 67.529342 
L 113.8464 69.437673 
L 114.02496 64.602124 
L 114.20352 64.651804 
L 114.56064 66.670938 
L 114.7392 63.976664 
L 115.09632 69.393768 
L 115.27488 84.530334 
L 115.45344 64.597561 
L 115.632 65.325563 
L 115.81056 71.450091 
L 115.98912 68.643536 
L 116.16768 70.508064 
L 116.5248 65.862067 
L 116.70336 72.528452 
L 116.88192 64.73922 
L 117.06048 64.585619 
L 117.23904 68.065527 
L 117.4176 66.76887 
L 117.59616 70.239936 
L 117.77472 64.27622 
L 117.95328 64.727222 
L 118.13184 69.525112 
L 118.3104 69.099696 
L 118.48896 80.6325 
L 118.66752 66.788291 
L 118.84608 65.803 
L 119.02464 76.120482 
L 119.2032 65.201386 
L 119.38176 69.47949 
L 119.56032 64.41033 
L 119.91744 76.497545 
L 120.096 71.386373 
L 120.27456 71.282288 
L 120.45312 66.237023 
L 120.63168 71.012572 
L 120.81024 71.913071 
L 120.9888 70.823973 
L 121.16736 72.94126 
L 121.34592 70.419218 
L 121.52448 80.40854 
L 121.8816 67.618809 
L 122.06016 64.631526 
L 122.23872 63.866952 
L 122.41728 91.677594 
L 122.59584 66.967533 
L 122.7744 70.020761 
L 122.95296 70.927579 
L 123.13152 65.969573 
L 123.31008 71.428482 
L 123.48864 65.676947 
L 123.6672 89.656053 
L 123.84576 70.988867 
L 124.02432 66.515795 
L 124.20288 78.865906 
L 124.38144 66.82603 
L 124.56 79.079329 
L 124.73856 70.408728 
L 124.91712 68.156661 
L 125.09568 68.628345 
L 125.27424 65.397038 
L 125.4528 78.201371 
L 125.63136 65.890437 
L 125.80992 64.547625 
L 125.98848 67.53084 
L 126.16704 64.047889 
L 126.3456 69.137035 
L 126.70272 65.218772 
L 126.88128 68.01206 
L 127.05984 64.374828 
L 127.41696 72.16426 
L 127.59552 64.636958 
L 127.77408 65.354107 
L 127.95264 88.640995 
L 128.1312 69.910914 
L 128.30976 66.17754 
L 128.48832 65.367687 
L 128.66688 65.682984 
L 128.84544 71.379235 
L 129.024 72.399007 
L 129.20256 66.729913 
L 129.38112 65.482934 
L 129.55968 73.385428 
L 129.73824 65.919948 
L 130.09536 70.403539 
L 130.27392 67.444444 
L 130.45248 68.24887 
L 130.63104 72.567669 
L 130.8096 66.997116 
L 130.98816 67.161274 
L 131.16672 67.09178 
L 131.34528 63.891274 
L 131.7024 66.294953 
L 131.88096 65.291505 
L 132.05952 77.370587 
L 132.23808 66.266015 
L 132.41664 65.854953 
L 132.5952 64.348556 
L 132.77376 75.450935 
L 132.95232 64.034209 
L 133.13088 66.644379 
L 133.30944 66.684914 
L 133.488 64.982256 
L 133.66656 65.201389 
L 133.84512 65.057988 
L 134.02368 64.402012 
L 134.20224 67.557479 
L 134.3808 68.196374 
L 134.55936 63.861659 
L 134.73792 67.638985 
L 134.91648 67.602185 
L 135.09504 69.637655 
L 135.2736 66.19684 
L 135.45216 65.126712 
L 135.63072 65.036508 
L 135.80928 66.565837 
L 135.98784 65.396128 
L 136.1664 65.752038 
L 136.34496 68.772383 
L 136.52352 67.997575 
L 136.70208 65.406864 
L 136.88064 65.341681 
L 137.0592 64.460796 
L 137.23776 67.004408 
L 137.41632 74.854733 
L 137.59488 64.15664 
L 137.77344 70.814327 
L 137.952 64.9078 
L 138.13056 74.703028 
L 138.30912 72.585466 
L 138.48768 64.152098 
L 138.66624 65.499122 
L 138.8448 76.062509 
L 139.02336 66.775747 
L 139.20192 63.648 
L 139.38048 70.458827 
L 139.55904 64.651136 
L 139.7376 67.657201 
L 139.91616 64.62389 
L 140.09472 64.133146 
L 140.27328 63.971152 
L 140.45184 69.077982 
L 140.6304 68.444074 
L 140.80896 81.387903 
L 140.98752 65.754253 
L 141.16608 63.951758 
L 141.5232 65.907068 
L 141.88032 70.204824 
L 142.23744 65.853208 
L 142.416 68.823039 
L 142.59456 66.051341 
L 142.77312 66.942954 
L 142.95168 66.796968 
L 143.3088 63.979361 
L 143.48736 63.889153 
L 143.66592 66.348254 
L 143.84448 64.789923 
L 144.02304 65.832843 
L 144.2016 69.475158 
L 144.38016 64.438091 
L 144.55872 69.758984 
L 144.73728 70.432595 
L 144.91584 66.019569 
L 145.0944 66.443686 
L 145.27296 64.135981 
L 145.45152 63.953959 
L 145.63008 69.444294 
L 145.80864 70.839409 
L 145.9872 68.19971 
L 146.16576 70.875286 
L 146.34432 66.499547 
L 146.52288 66.271654 
L 146.70144 68.188662 
L 146.88 68.891496 
L 147.05856 64.603531 
L 147.23712 69.100707 
L 147.41568 68.297045 
L 147.59424 66.354703 
L 147.7728 66.767875 
L 147.95136 73.48728 
L 148.12992 65.587318 
L 148.30848 72.324597 
L 148.6656 64.022833 
L 148.84416 64.179313 
L 149.02272 70.90267 
L 149.20128 70.628544 
L 149.37984 68.555988 
L 149.5584 69.888243 
L 149.73696 66.136874 
L 149.91552 67.046155 
L 150.09408 63.687044 
L 150.4512 66.37747 
L 150.62976 66.606703 
L 150.80832 68.499025 
L 150.98688 65.917557 
L 151.16544 66.047725 
L 151.344 65.406513 
L 151.52256 63.887026 
L 151.70112 65.840725 
L 151.87968 63.670427 
L 152.05824 64.995649 
L 152.2368 67.321256 
L 152.41536 65.595401 
L 152.59392 83.490516 
L 152.95104 64.146434 
L 153.30816 68.436502 
L 153.48672 65.3674 
L 153.66528 73.751218 
L 153.84384 64.895676 
L 154.0224 65.527048 
L 154.20096 64.313736 
L 154.37952 66.269207 
L 154.55808 66.078603 
L 154.73664 69.795895 
L 154.9152 66.381228 
L 155.09376 69.83905 
L 155.45088 65.11122 
L 155.62944 65.183407 
L 155.808 65.564286 
L 155.98656 77.027521 
L 156.16512 66.499125 
L 156.34368 63.930742 
L 156.52224 66.807401 
L 156.7008 64.119593 
L 156.87936 74.554221 
L 157.05792 64.939323 
L 157.23648 65.017762 
L 157.41504 66.057475 
L 157.5936 69.430045 
L 157.95072 63.88776 
L 158.12928 64.700137 
L 158.30784 72.109284 
L 158.4864 63.757529 
L 158.66496 64.676251 
L 158.84352 64.149495 
L 159.02208 65.44155 
L 159.20064 69.648778 
L 159.3792 66.087836 
L 159.55776 65.27485 
L 159.73632 66.335948 
L 159.91488 71.06387 
L 160.09344 65.435134 
L 160.272 65.729185 
L 160.45056 68.567015 
L 160.62912 64.914528 
L 160.98624 70.399692 
L 161.52192 64.17867 
L 161.70048 66.859492 
L 161.87904 65.20872 
L 162.0576 70.14419 
L 162.41472 64.623105 
L 162.77184 69.096205 
L 162.9504 64.115365 
L 163.12896 64.087981 
L 163.30752 67.675187 
L 163.48608 66.95399 
L 163.66464 65.456991 
L 163.8432 68.306644 
L 164.20032 65.085993 
L 164.37888 66.007625 
L 164.55744 69.680369 
L 164.736 67.110212 
L 164.91456 67.708274 
L 165.09312 65.328895 
L 165.27168 65.89508 
L 165.45024 64.873849 
L 165.6288 65.286303 
L 165.80736 64.661921 
L 165.98592 64.760569 
L 166.16448 65.666733 
L 166.34304 70.641486 
L 166.5216 71.339492 
L 166.70016 69.853904 
L 166.87872 64.582185 
L 167.05728 64.909584 
L 167.23584 67.757294 
L 167.4144 64.394823 
L 167.59296 69.683801 
L 167.77152 65.019631 
L 167.95008 66.666223 
L 168.12864 66.752338 
L 168.3072 68.131759 
L 168.48576 68.629754 
L 168.66432 67.671175 
L 168.84288 69.363674 
L 169.02144 68.778101 
L 169.2 69.58001 
L 169.37856 64.744133 
L 169.55712 68.027505 
L 169.73568 66.203606 
L 169.91424 66.963666 
L 170.0928 69.700721 
L 170.27136 65.485173 
L 170.44992 66.033874 
L 170.62848 65.997686 
L 170.80704 73.847313 
L 170.9856 65.892646 
L 171.16416 68.748933 
L 171.34272 68.162351 
L 171.52128 64.879247 
L 171.69984 69.256641 
L 171.8784 67.678234 
L 172.05696 65.110874 
L 172.23552 65.846743 
L 172.59264 72.165822 
L 172.7712 66.58325 
L 172.94976 69.853617 
L 173.30688 66.048221 
L 173.48544 72.550976 
L 173.664 72.392712 
L 173.84256 67.824208 
L 174.02112 69.359727 
L 174.19968 64.414895 
L 174.37824 65.01665 
L 174.5568 76.08494 
L 174.73536 72.862595 
L 174.91392 75.106875 
L 175.09248 65.798767 
L 175.27104 73.9853 
L 175.4496 64.363895 
L 175.62816 67.695177 
L 175.80672 66.356461 
L 175.98528 67.339756 
L 176.16384 66.592047 
L 176.3424 64.402852 
L 176.52096 71.858587 
L 176.69952 73.234831 
L 176.87808 72.845704 
L 177.05664 66.856003 
L 177.2352 66.524289 
L 177.41376 66.624274 
L 177.59232 64.046427 
L 177.77088 69.904509 
L 177.94944 65.450876 
L 178.128 72.388463 
L 178.30656 71.047597 
L 178.66368 66.123746 
L 179.0208 68.991203 
L 179.19936 71.922257 
L 179.37792 81.811682 
L 179.55648 69.917905 
L 179.73504 66.727074 
L 179.9136 68.440167 
L 180.09216 68.735728 
L 180.27072 65.567888 
L 180.44928 67.988122 
L 180.62784 73.074322 
L 180.98496 66.946045 
L 181.16352 73.543857 
L 181.34208 69.182624 
L 181.52064 70.391058 
L 181.6992 76.235726 
L 181.87776 64.927646 
L 182.05632 69.391712 
L 182.23488 68.544821 
L 182.41344 64.91201 
L 182.592 67.515477 
L 182.77056 67.020223 
L 183.12768 69.753204 
L 183.30624 65.016156 
L 183.4848 68.724294 
L 183.66336 69.94646 
L 183.84192 68.034727 
L 184.02048 73.454182 
L 184.19904 74.794792 
L 184.3776 65.541081 
L 184.55616 78.78197 
L 184.73472 68.693806 
L 184.91328 73.82755 
L 185.09184 69.273589 
L 185.44896 78.351695 
L 185.62752 65.630434 
L 185.80608 70.2773 
L 185.98464 64.73168 
L 186.1632 65.025784 
L 186.34176 68.421709 
L 186.52032 66.890614 
L 186.69888 72.721659 
L 186.87744 67.307488 
L 187.056 67.73844 
L 187.23456 64.442591 
L 187.59168 70.950623 
L 187.77024 65.874427 
L 187.9488 65.495315 
L 188.12736 70.257678 
L 188.30592 65.085679 
L 188.48448 92.771831 
L 188.66304 70.159394 
L 188.8416 65.167648 
L 189.02016 65.186159 
L 189.19872 75.033546 
L 189.37728 68.697762 
L 189.7344 64.859555 
L 189.91296 65.384855 
L 190.09152 69.643532 
L 190.27008 69.328389 
L 190.6272 64.931361 
L 190.80576 67.287292 
L 190.98432 64.118225 
L 191.69856 68.386647 
L 191.87712 65.072153 
L 192.05568 66.094848 
L 192.23424 66.159726 
L 192.4128 71.34428 
L 192.59136 63.894355 
L 192.76992 65.866025 
L 192.94848 64.281816 
L 193.12704 75.273821 
L 193.3056 64.665322 
L 193.48416 67.175139 
L 193.66272 66.093419 
L 193.84128 68.077086 
L 194.01984 67.493046 
L 194.1984 66.03459 
L 194.37696 66.985224 
L 194.55552 66.844335 
L 194.73408 65.941185 
L 194.91264 67.565599 
L 195.26976 65.095739 
L 195.44832 65.343995 
L 195.62688 66.001166 
L 195.80544 72.8543 
L 195.984 70.065928 
L 196.16256 64.967633 
L 196.34112 65.05705 
L 196.51968 69.067755 
L 196.69824 64.838751 
L 196.8768 71.122348 
L 197.05536 70.556848 
L 197.23392 64.369381 
L 197.41248 65.154474 
L 197.7696 68.745638 
L 197.94816 64.147421 
L 198.12672 65.14021 
L 198.30528 64.94701 
L 198.48384 64.202229 
L 198.6624 72.439452 
L 198.84096 66.058913 
L 199.01952 66.633364 
L 199.19808 69.318992 
L 199.37664 64.656288 
L 199.5552 64.236051 
L 199.73376 66.737293 
L 199.91232 64.815037 
L 200.09088 68.841653 
L 200.26944 68.00428 
L 200.448 75.474886 
L 200.62656 72.491526 
L 200.80512 66.022575 
L 200.98368 72.438257 
L 201.16224 67.048579 
L 201.3408 67.209278 
L 201.51936 66.08763 
L 201.69792 69.904431 
L 201.87648 65.046246 
L 202.05504 71.961637 
L 202.2336 67.864814 
L 202.41216 68.102035 
L 202.59072 66.715871 
L 202.76928 67.975834 
L 202.94784 67.811114 
L 203.1264 78.644349 
L 203.30496 67.67383 
L 203.48352 67.748263 
L 203.66208 64.826669 
L 203.84064 71.539835 
L 204.0192 68.400636 
L 204.19776 70.981339 
L 204.55488 64.399737 
L 204.73344 66.458479 
L 205.09056 74.876032 
L 205.26912 67.114731 
L 205.44768 66.935992 
L 205.62624 65.057639 
L 205.8048 67.293846 
L 205.98336 77.192795 
L 206.16192 65.376665 
L 206.34048 65.379432 
L 206.51904 70.534426 
L 206.6976 65.260391 
L 206.87616 64.528401 
L 207.05472 67.687314 
L 207.23328 66.941464 
L 207.41184 65.620599 
L 207.5904 150.163715 
L 207.76896 65.202497 
L 207.94752 63.974421 
L 208.30464 66.076895 
L 208.4832 64.542053 
L 208.66176 66.371611 
L 209.01888 64.07408 
L 209.19744 80.28463 
L 209.55456 65.531157 
L 209.73312 77.237122 
L 209.91168 77.976928 
L 210.09024 66.801105 
L 210.2688 69.484535 
L 210.44736 116.902412 
L 210.62592 70.865304 
L 210.80448 67.51543 
L 210.98304 87.995037 
L 211.1616 67.863577 
L 211.34016 72.222945 
L 211.51872 67.206968 
L 211.69728 69.964182 
L 211.87584 92.11936 
L 212.0544 87.022638 
L 212.23296 65.71967 
L 212.76864 69.494706 
L 212.9472 65.757682 
L 213.12576 142.358691 
L 213.30432 68.14578 
L 213.48288 83.118862 
L 213.66144 68.925025 
L 213.84 65.270054 
L 214.01856 65.448111 
L 214.19712 70.45232 
L 214.37568 67.279993 
L 214.55424 66.399391 
L 214.7328 75.873578 
L 214.91136 67.188588 
L 215.08992 66.1445 
L 215.26848 64.250397 
L 215.44704 70.453546 
L 215.6256 66.43219 
L 215.80416 66.265468 
L 215.98272 70.164195 
L 216.16128 66.076205 
L 216.33984 69.194953 
L 216.5184 65.926174 
L 217.05408 70.41678 
L 217.23264 66.853245 
L 217.4112 65.984854 
L 217.58976 108.259407 
L 217.76832 65.978786 
L 217.94688 74.472115 
L 218.12544 69.201913 
L 218.304 68.648275 
L 218.48256 70.634982 
L 218.66112 70.276568 
L 218.83968 140.181364 
L 219.01824 74.169091 
L 219.1968 66.57947 
L 219.37536 73.558642 
L 219.55392 85.749808 
L 219.73248 118.943949 
L 219.91104 78.160921 
L 220.26816 72.438615 
L 220.44672 73.94997 
L 220.62528 85.240486 
L 220.80384 89.382315 
L 221.16096 69.735934 
L 221.33952 70.681279 
L 221.69664 101.193195 
L 222.05376 64.97848 
L 222.23232 100.456894 
L 222.41088 95.393924 
L 222.58944 69.489155 
L 222.94656 79.692943 
L 223.12512 102.785376 
L 223.30368 70.846609 
L 223.48224 73.961598 
L 223.6608 69.586263 
L 223.83936 71.688228 
L 224.01792 92.433174 
L 224.19648 66.139164 
L 224.37504 84.434783 
L 224.5536 174.82589 
L 224.73216 64.898689 
L 224.91072 100.743837 
L 225.08928 70.062425 
L 225.26784 66.013419 
L 225.4464 76.415873 
L 225.62496 68.877354 
L 225.80352 93.026144 
L 225.98208 76.323481 
L 226.51776 65.143441 
L 226.69632 111.498313 
L 226.87488 89.188398 
L 227.05344 89.098986 
L 227.232 110.028867 
L 227.41056 69.214515 
L 227.58912 79.899777 
L 227.76768 67.284938 
L 227.94624 110.433342 
L 228.1248 115.520919 
L 228.30336 69.309881 
L 228.48192 65.88868 
L 228.66048 66.377719 
L 228.83904 66.429104 
L 229.0176 74.091682 
L 229.19616 96.602686 
L 229.37472 69.730674 
L 229.55328 93.836843 
L 229.73184 88.448938 
L 229.9104 66.815887 
L 230.26752 146.500849 
L 230.44608 71.555583 
L 230.62464 71.231047 
L 230.8032 68.957186 
L 230.98176 69.555792 
L 231.16032 65.217047 
L 231.51744 67.880576 
L 231.696 88.701996 
L 231.87456 67.230966 
L 232.23168 83.941223 
L 232.41024 68.572443 
L 232.5888 68.350656 
L 232.76736 84.438198 
L 233.12448 67.536659 
L 233.30304 73.149655 
L 233.4816 101.20949 
L 233.66016 72.897111 
L 233.83872 84.186749 
L 234.01728 124.588658 
L 234.3744 94.048497 
L 234.73152 67.638823 
L 234.91008 64.830634 
L 235.08864 74.635962 
L 235.2672 71.944139 
L 235.44576 82.123392 
L 235.62432 72.912262 
L 235.98144 67.71179 
L 236.16 113.285431 
L 236.33856 68.208202 
L 236.51712 68.890551 
L 236.87424 78.972086 
L 237.0528 66.50207 
L 237.23136 67.342076 
L 237.40992 87.194499 
L 237.58848 65.669542 
L 237.76704 69.752475 
L 238.12416 66.620465 
L 238.30272 71.036254 
L 238.65984 65.711467 
L 238.8384 67.552191 
L 239.01696 65.635884 
L 239.19552 82.923774 
L 239.37408 73.84623 
L 239.55264 132.60832 
L 239.90976 67.316819 
L 240.08832 67.155722 
L 240.44544 74.922882 
L 240.624 79.94438 
L 240.98112 64.77104 
L 241.33824 77.596918 
L 241.5168 67.593214 
L 241.87392 83.230123 
L 242.23104 68.472646 
L 242.4096 117.148011 
L 242.58816 65.702855 
L 242.76672 145.967582 
L 242.94528 66.241662 
L 243.12384 68.067867 
L 243.3024 65.760105 
L 243.48096 66.141576 
L 243.65952 65.496804 
L 243.83808 77.37151 
L 244.01664 65.714037 
L 244.1952 68.636777 
L 244.37376 64.867602 
L 244.55232 80.448263 
L 244.73088 78.541385 
L 244.90944 70.693406 
L 245.088 91.41374 
L 245.26656 89.800233 
L 245.44512 68.54407 
L 245.62368 68.724545 
L 245.9808 128.453158 
L 246.15936 68.164581 
L 246.33792 68.304758 
L 246.51648 69.905559 
L 246.8736 81.235647 
L 247.05216 69.828326 
L 247.23072 86.48602 
L 247.40928 68.16756 
L 247.58784 77.940297 
L 247.7664 70.916634 
L 247.94496 80.825925 
L 248.12352 67.816922 
L 248.48064 171.137382 
L 248.6592 69.596268 
L 248.83776 67.47738 
L 249.01632 68.001235 
L 249.19488 76.161208 
L 249.73056 65.801684 
L 249.90912 68.532946 
L 250.08768 77.015398 
L 250.26624 67.129798 
L 250.4448 66.389955 
L 250.62336 71.870651 
L 250.80192 70.951409 
L 250.98048 75.131204 
L 251.15904 64.318198 
L 251.3376 79.301817 
L 251.51616 78.255671 
L 251.69472 78.05997 
L 251.87328 74.307124 
L 252.05184 66.636785 
L 252.2304 70.57634 
L 252.40896 69.813768 
L 252.58752 69.542641 
L 252.76608 101.318899 
L 252.94464 66.012585 
L 253.1232 108.705088 
L 253.30176 108.111563 
L 253.48032 69.147526 
L 253.65888 88.937571 
L 253.83744 67.231631 
L 254.016 67.225217 
L 254.19456 67.870826 
L 254.37312 90.826142 
L 254.73024 71.01018 
L 254.9088 73.011456 
L 255.26592 67.845032 
L 255.44448 69.062016 
L 255.62304 65.982258 
L 255.98016 68.275128 
L 256.33728 69.460249 
L 256.51584 71.463405 
L 256.6944 67.23846 
L 256.87296 79.630689 
L 257.05152 67.930784 
L 257.23008 78.654524 
L 257.40864 76.460339 
L 257.5872 72.515752 
L 257.76576 75.406337 
L 257.94432 69.119451 
L 258.12288 71.10313 
L 258.30144 70.579032 
L 258.48 76.438786 
L 258.65856 68.029402 
L 258.83712 72.954819 
L 259.19424 75.781534 
L 259.3728 87.559027 
L 259.55136 71.165723 
L 259.72992 82.69541 
L 259.90848 122.525723 
L 260.08704 79.212448 
L 260.2656 75.723743 
L 260.44416 102.160293 
L 260.62272 78.635762 
L 260.80128 74.825646 
L 260.97984 65.777879 
L 261.1584 74.263745 
L 261.33696 71.004201 
L 261.51552 73.741561 
L 261.69408 78.669172 
L 261.87264 71.332275 
L 262.0512 73.46126 
L 262.22976 103.411325 
L 262.58688 67.541116 
L 262.76544 72.587627 
L 262.944 65.947003 
L 263.12256 71.276797 
L 263.30112 67.150244 
L 263.47968 120.044015 
L 263.65824 68.712833 
L 263.8368 76.771077 
L 264.01536 64.746705 
L 264.19392 67.998264 
L 264.55104 79.370935 
L 264.7296 65.785601 
L 264.90816 69.383667 
L 265.08672 102.235944 
L 265.26528 66.99398 
L 265.44384 115.522529 
L 265.6224 132.049985 
L 265.80096 132.408499 
L 265.97952 75.091275 
L 266.15808 74.099817 
L 266.33664 67.725889 
L 266.5152 68.52799 
L 266.69376 71.019675 
L 267.05088 66.674284 
L 267.22944 70.445517 
L 267.408 66.441682 
L 267.58656 76.809146 
L 267.94368 70.239117 
L 268.12224 68.029142 
L 268.3008 71.515269 
L 268.47936 67.147002 
L 268.65792 73.384855 
L 268.83648 99.472372 
L 269.01504 71.672242 
L 269.1936 65.009397 
L 269.37216 125.18562 
L 269.55072 67.886575 
L 269.72928 83.212164 
L 269.90784 84.818085 
L 270.0864 67.817981 
L 270.26496 68.098196 
L 270.44352 67.237593 
L 270.62208 70.622484 
L 270.80064 67.808511 
L 270.9792 71.210012 
L 271.15776 80.503849 
L 271.33632 67.955333 
L 271.51488 74.669615 
L 271.69344 66.794007 
L 271.872 78.984205 
L 272.05056 75.646339 
L 272.22912 114.744974 
L 272.40768 69.329068 
L 272.58624 68.734697 
L 272.7648 72.1824 
L 272.94336 72.491248 
L 273.12192 70.182993 
L 273.30048 77.613429 
L 273.47904 67.511627 
L 273.83616 128.685612 
L 274.01472 74.002548 
L 274.19328 67.590308 
L 274.37184 74.69118 
L 274.5504 66.06794 
L 274.72896 70.234137 
L 274.90752 71.007015 
L 275.08608 66.346181 
L 275.26464 68.892073 
L 275.4432 74.450101 
L 275.62176 98.080372 
L 275.80032 66.333071 
L 275.97888 66.934509 
L 276.15744 66.717712 
L 276.336 102.94475 
L 276.51456 68.598502 
L 276.69312 65.565629 
L 277.05024 82.356245 
L 277.2288 152.570346 
L 277.40736 68.065632 
L 277.58592 68.528623 
L 277.76448 66.434778 
L 277.94304 87.938346 
L 278.1216 71.837837 
L 278.30016 114.184949 
L 278.47872 129.102234 
L 278.65728 68.920093 
L 278.83584 192.998074 
L 279.0144 109.591844 
L 279.19296 90.22156 
L 279.37152 125.74599 
L 279.55008 86.687513 
L 279.72864 86.174229 
L 280.08576 67.587762 
L 280.26432 135.590191 
L 280.44288 65.959709 
L 280.62144 78.545743 
L 280.8 66.065251 
L 280.97856 143.646697 
L 281.15712 99.031338 
L 281.33568 119.968747 
L 281.51424 82.905795 
L 281.6928 74.969682 
L 281.87136 97.408663 
L 282.04992 68.912113 
L 282.22848 97.382134 
L 282.40704 66.473065 
L 282.5856 86.70505 
L 282.76416 73.344951 
L 282.94272 112.936522 
L 283.12128 70.1529 
L 283.29984 68.459133 
L 283.4784 68.943462 
L 283.65696 102.588523 
L 283.83552 79.031345 
L 284.01408 105.198698 
L 284.19264 103.588039 
L 284.3712 107.059703 
L 284.54976 71.931704 
L 284.90688 68.27515 
L 285.08544 93.494759 
L 285.264 66.320969 
L 285.44256 81.55298 
L 285.62112 73.048984 
L 285.79968 76.681597 
L 285.97824 69.252617 
L 286.1568 74.804041 
L 286.33536 67.964482 
L 286.51392 71.582534 
L 286.87104 112.104942 
L 287.0496 66.956972 
L 287.22816 72.466805 
L 287.40672 92.298846 
L 287.58528 73.53775 
L 288.12096 108.139408 
L 288.29952 65.209475 
L 288.47808 71.482432 
L 288.65664 117.715397 
L 288.8352 116.485777 
L 289.01376 77.678545 
L 289.19232 65.479135 
L 289.37088 69.593382 
L 289.54944 67.185542 
L 289.90656 73.851399 
L 290.08512 66.672012 
L 290.26368 69.55204 
L 290.44224 102.679928 
L 290.6208 87.828226 
L 290.79936 179.084053 
L 290.97792 74.214832 
L 291.15648 69.771193 
L 291.33504 68.721388 
L 291.5136 77.112064 
L 291.69216 93.202791 
L 291.87072 75.810534 
L 292.04928 77.518603 
L 292.22784 71.708023 
L 292.4064 71.74071 
L 292.58496 68.726353 
L 292.76352 112.739601 
L 292.94208 72.421987 
L 293.12064 104.630747 
L 293.2992 67.520617 
L 293.47776 68.771289 
L 293.65632 109.207773 
L 294.01344 69.40432 
L 294.192 72.585744 
L 294.37056 73.5248 
L 294.72768 105.317321 
L 294.90624 69.778941 
L 295.0848 67.6392 
L 295.44192 97.861484 
L 295.62048 92.59689 
L 295.79904 71.378875 
L 295.9776 69.586782 
L 296.15616 77.925484 
L 296.33472 67.051819 
L 296.51328 68.919852 
L 296.69184 77.262221 
L 296.8704 68.344747 
L 297.04896 65.583927 
L 297.40608 85.8669 
L 297.58464 81.648232 
L 297.7632 72.619359 
L 297.94176 75.610216 
L 298.12032 76.635474 
L 298.29888 158.052078 
L 298.47744 107.499387 
L 298.656 139.923614 
L 299.01312 66.213764 
L 299.19168 77.985758 
L 299.37024 134.638152 
L 299.5488 71.64256 
L 299.72736 123.030431 
L 299.90592 64.337656 
L 300.08448 90.505121 
L 300.4416 66.751761 
L 300.62016 107.458327 
L 300.79872 65.943198 
L 301.15584 85.15098 
L 301.3344 84.044443 
L 301.51296 87.203093 
L 301.69152 76.930126 
L 301.87008 87.724025 
L 302.04864 89.807492 
L 302.2272 67.443037 
L 302.40576 134.072974 
L 302.58432 153.951162 
L 302.76288 77.429298 
L 302.94144 95.469296 
L 303.12 69.423623 
L 303.29856 83.23522 
L 303.47712 67.195304 
L 303.65568 107.248776 
L 303.83424 67.665753 
L 304.0128 69.410462 
L 304.19136 65.69589 
L 304.36992 85.224419 
L 304.54848 68.822225 
L 304.72704 82.798919 
L 304.9056 80.397092 
L 305.08416 141.438825 
L 305.61984 66.874064 
L 305.7984 72.087526 
L 305.97696 68.139773 
L 306.15552 135.15201 
L 306.33408 84.762427 
L 306.51264 98.618231 
L 306.6912 74.22248 
L 306.86976 132.094964 
L 307.04832 72.64352 
L 307.22688 82.559131 
L 307.40544 71.813336 
L 307.584 71.956058 
L 307.76256 106.638558 
L 307.94112 110.687075 
L 308.11968 138.842428 
L 308.4768 72.233692 
L 308.65536 78.024362 
L 308.83392 184.921683 
L 309.19104 77.913402 
L 309.3696 68.667138 
L 309.54816 150.839856 
L 309.72672 67.232873 
L 309.90528 95.772618 
L 310.08384 77.949251 
L 310.2624 83.191663 
L 310.44096 70.17256 
L 310.79808 92.90696 
L 310.97664 94.428266 
L 311.1552 68.838776 
L 311.33376 66.022322 
L 311.51232 90.208719 
L 311.69088 77.758745 
L 311.86944 107.433447 
L 312.048 97.207852 
L 312.22656 69.987565 
L 312.40512 82.341469 
L 312.58368 112.592286 
L 312.76224 72.246442 
L 312.9408 71.105781 
L 313.11936 106.067397 
L 313.29792 76.627564 
L 313.47648 67.682742 
L 313.65504 70.078939 
L 313.8336 85.665064 
L 314.01216 119.675647 
L 314.36928 102.647191 
L 314.54784 69.368662 
L 314.7264 66.447219 
L 314.90496 83.374174 
L 315.08352 126.763513 
L 315.26208 79.262737 
L 315.44064 66.763411 
L 315.6192 71.406575 
L 315.79776 91.433148 
L 315.97632 86.938312 
L 316.15488 66.770672 
L 316.33344 133.584988 
L 316.512 72.145448 
L 316.69056 80.370472 
L 316.86912 67.983381 
L 317.04768 93.932264 
L 317.22624 73.649585 
L 317.4048 105.618566 
L 317.58336 84.821891 
L 317.76192 117.03265 
L 317.94048 73.487542 
L 318.11904 92.839166 
L 318.2976 83.855286 
L 318.47616 110.488874 
L 318.65472 66.198818 
L 318.83328 65.712642 
L 319.01184 105.415794 
L 319.1904 73.354264 
L 319.36896 74.006262 
L 319.54752 119.90679 
L 319.72608 115.554921 
L 319.90464 89.979156 
L 320.0832 183.174821 
L 320.26176 67.775501 
L 320.44032 92.314533 
L 320.61888 76.266972 
L 320.79744 91.537426 
L 320.976 82.989167 
L 321.15456 96.490357 
L 321.33312 73.82974 
L 321.51168 65.533199 
L 321.69024 65.813052 
L 321.8688 73.527279 
L 322.04736 66.30306 
L 322.22592 68.596787 
L 322.40448 196.152387 
L 322.7616 67.230023 
L 322.94016 66.238161 
L 323.11872 71.892355 
L 323.29728 67.906795 
L 323.47584 81.180449 
L 323.83296 65.884238 
L 324.01152 66.879522 
L 324.19008 153.176965 
L 324.36864 66.466115 
L 324.5472 70.702958 
L 324.72576 101.286132 
L 324.90432 69.679743 
L 325.08288 139.337824 
L 325.26144 65.013112 
L 325.44 150.700011 
L 325.61856 182.909985 
L 325.79712 73.702579 
L 325.97568 73.96306 
L 326.15424 65.837379 
L 326.3328 76.29917 
L 326.51136 69.827926 
L 326.68992 69.051682 
L 326.86848 68.954739 
L 327.04704 65.345049 
L 327.2256 72.424713 
L 327.40416 84.574817 
L 327.58272 88.170871 
L 327.76128 70.99602 
L 327.93984 71.689928 
L 328.1184 68.038354 
L 328.29696 68.299808 
L 328.47552 73.065162 
L 328.65408 84.081934 
L 328.83264 118.969072 
L 329.0112 103.653891 
L 329.18976 70.672454 
L 329.36832 71.405153 
L 329.54688 121.742694 
L 329.72544 136.407077 
L 329.904 69.274578 
L 330.08256 66.610419 
L 330.26112 72.270117 
L 330.43968 97.828887 
L 330.61824 68.627987 
L 330.7968 78.043214 
L 330.97536 71.72292 
L 331.15392 89.422484 
L 331.33248 69.734565 
L 331.51104 67.451154 
L 331.6896 99.177821 
L 331.86816 75.727071 
L 332.04672 74.159897 
L 332.22528 84.339185 
L 332.40384 65.445399 
L 332.5824 76.60485 
L 332.76096 64.398029 
L 333.11808 78.985761 
L 333.29664 67.583501 
L 333.4752 75.112626 
L 333.65376 69.665158 
L 334.01088 73.243243 
L 334.18944 114.230463 
L 334.368 68.024531 
L 334.54656 67.913269 
L 334.72512 67.119849 
L 334.90368 116.171113 
L 335.08224 69.402643 
L 335.2608 69.961345 
L 335.43936 77.209894 
L 335.61792 77.255225 
L 335.79648 70.30387 
L 335.97504 79.524018 
L 336.1536 66.579575 
L 336.33216 73.281003 
L 336.51072 65.199859 
L 336.68928 117.243571 
L 336.86784 66.216705 
L 337.0464 66.898654 
L 337.22496 75.609384 
L 337.40352 66.96504 
L 337.58208 129.91376 
L 337.76064 123.798204 
L 337.9392 72.793321 
L 338.11776 72.637454 
L 338.29632 90.025081 
L 338.47488 81.951806 
L 338.65344 110.78079 
L 338.832 73.442279 
L 339.01056 137.612084 
L 339.18912 66.943825 
L 339.36768 66.950357 
L 339.54624 98.514973 
L 339.7248 65.064197 
L 339.90336 66.564217 
L 340.08192 146.239091 
L 340.26048 120.829635 
L 340.43904 63.951015 
L 340.6176 72.059162 
L 340.79616 66.183623 
L 341.15328 74.420057 
L 341.33184 76.997007 
L 341.5104 67.005472 
L 341.68896 67.524697 
L 341.86752 66.177564 
L 342.04608 72.883373 
L 342.22464 108.91149 
L 342.4032 76.155152 
L 342.58176 100.72293 
L 342.76032 68.873176 
L 342.93888 68.873561 
L 343.11744 74.563782 
L 343.47456 68.186496 
L 343.65312 99.519988 
L 344.01024 67.820221 
L 344.1888 73.103652 
L 344.36736 66.649224 
L 344.54592 86.095811 
L 344.72448 70.501876 
L 344.90304 114.531079 
L 345.26016 67.813523 
L 345.43872 87.285877 
L 345.61728 65.699251 
L 345.79584 74.08513 
L 345.9744 65.024243 
L 346.15296 66.983822 
L 346.33152 156.328896 
L 346.51008 75.70853 
L 346.8672 65.820699 
L 347.04576 112.136597 
L 347.22432 68.470635 
L 347.40288 127.257432 
L 347.58144 65.078089 
L 347.76 72.168647 
L 347.93856 96.113627 
L 348.11712 70.864202 
L 348.29568 74.983687 
L 348.47424 135.228953 
L 348.6528 67.825253 
L 348.83136 70.06025 
L 349.00992 64.814786 
L 349.18848 75.654972 
L 349.36704 72.28076 
L 349.5456 80.82212 
L 349.72416 103.42245 
L 349.90272 64.805532 
L 350.08128 73.817808 
L 350.25984 72.599914 
L 350.4384 75.038709 
L 350.61696 92.088219 
L 350.79552 70.476455 
L 350.97408 76.036748 
L 351.3312 65.446207 
L 351.50976 65.712858 
L 351.68832 64.789747 
L 351.86688 66.043908 
L 352.04544 77.239987 
L 352.224 98.168836 
L 352.40256 68.461961 
L 352.58112 70.691622 
L 352.75968 106.841787 
L 352.93824 67.080422 
L 353.1168 121.053801 
L 353.29536 69.598318 
L 353.47392 72.382682 
L 353.65248 65.276791 
L 353.83104 78.490231 
L 354.0096 69.721282 
L 354.18816 66.432618 
L 354.36672 66.058642 
L 354.54528 70.776522 
L 354.9024 72.340881 
L 355.25952 99.374864 
L 355.43808 81.81291 
L 355.61664 134.941179 
L 355.7952 70.362439 
L 355.97376 105.872308 
L 356.15232 65.10693 
L 356.33088 101.600522 
L 356.50944 66.132982 
L 356.688 70.678972 
L 356.86656 70.955156 
L 357.04512 73.40526 
L 357.22368 68.367156 
L 357.40224 73.439043 
L 357.5808 70.034265 
L 357.75936 103.306692 
L 358.11648 68.822385 
L 358.4736 66.707445 
L 358.83072 71.982082 
L 359.00928 66.318698 
L 359.18784 72.825756 
L 359.3664 67.862087 
L 359.54496 89.16335 
L 359.90208 65.0734 
L 360.08064 69.917395 
L 360.2592 86.454098 
L 360.43776 68.781293 
L 360.61632 67.513508 
L 360.97344 75.425819 
L 361.152 73.229224 
L 361.33056 65.250197 
L 361.50912 69.065226 
L 361.68768 82.782913 
L 361.86624 142.327635 
L 362.0448 66.180163 
L 362.22336 77.129549 
L 362.40192 69.844958 
L 362.58048 80.818414 
L 362.75904 65.052519 
L 363.11616 77.446876 
L 363.29472 65.968303 
L 363.47328 65.956352 
L 363.65184 69.358913 
L 363.8304 69.634101 
L 364.00896 75.274226 
L 364.18752 71.48267 
L 364.36608 74.629133 
L 364.7232 64.050897 
L 365.08032 79.829378 
L 365.25888 141.62372 
L 365.43744 127.006711 
L 365.616 73.423557 
L 365.79456 66.39941 
L 365.97312 117.028947 
L 366.15168 66.148761 
L 366.33024 99.912527 
L 366.5088 68.223322 
L 366.68736 67.097674 
L 366.86592 64.74813 
L 367.04448 68.319535 
L 367.22304 66.926199 
L 367.4016 77.927064 
L 367.58016 68.346636 
L 367.75872 71.484765 
L 367.93728 131.695294 
L 368.11584 71.19782 
L 368.2944 65.230868 
L 368.65152 81.231938 
L 368.83008 65.999233 
L 369.36576 75.326662 
L 369.54432 66.637392 
L 369.72288 73.421259 
L 369.90144 71.479875 
L 370.08 65.783709 
L 370.25856 66.444278 
L 370.43712 71.944601 
L 370.61568 67.897154 
L 370.79424 121.301326 
L 370.9728 64.934844 
L 371.15136 65.255902 
L 371.32992 69.440368 
L 371.50848 65.773799 
L 371.68704 76.49453 
L 371.8656 118.633726 
L 372.22272 69.195744 
L 372.40128 110.392378 
L 372.57984 70.914973 
L 372.7584 71.483093 
L 372.93696 101.894593 
L 373.11552 89.709481 
L 373.29408 65.341596 
L 373.47264 67.912232 
L 373.6512 67.824172 
L 373.82976 70.838254 
L 374.00832 69.416038 
L 374.18688 65.651244 
L 374.36544 67.969789 
L 374.544 74.995868 
L 374.72256 68.179122 
L 374.90112 69.515198 
L 375.07968 74.66017 
L 375.25824 75.571302 
L 375.4368 81.728419 
L 375.61536 77.631474 
L 375.79392 68.852377 
L 375.97248 67.569685 
L 376.15104 68.785773 
L 376.3296 66.457744 
L 376.50816 138.529116 
L 376.68672 68.563803 
L 376.86528 69.04886 
L 377.04384 66.199475 
L 377.2224 136.643108 
L 377.40096 82.025878 
L 377.57952 119.715791 
L 377.75808 66.917894 
L 377.93664 66.600189 
L 378.1152 77.554745 
L 378.29376 64.98131 
L 378.47232 66.707795 
L 378.65088 65.660925 
L 378.82944 71.364908 
L 379.008 64.450264 
L 379.18656 71.379862 
L 379.36512 69.417784 
L 379.54368 69.310736 
L 379.72224 70.878934 
L 379.9008 101.451764 
L 380.07936 66.381066 
L 380.25792 69.292893 
L 380.43648 97.103077 
L 380.7936 65.123562 
L 380.97216 67.645683 
L 381.15072 66.593566 
L 381.32928 70.932784 
L 381.50784 64.630958 
L 381.6864 63.890266 
L 381.86496 76.052635 
L 382.04352 66.988013 
L 382.22208 71.523702 
L 382.5792 67.140332 
L 382.75776 66.608217 
L 382.93632 66.536566 
L 383.11488 87.527584 
L 383.29344 82.708869 
L 383.472 153.107156 
L 383.82912 69.829496 
L 384.00768 64.932278 
L 384.18624 81.136571 
L 384.3648 66.91928 
L 384.54336 75.15001 
L 384.90048 65.732362 
L 385.07904 116.059871 
L 385.43616 70.21881 
L 385.61472 66.128186 
L 385.79328 66.032907 
L 385.97184 69.106899 
L 386.1504 65.417136 
L 386.32896 69.430273 
L 386.50752 64.198838 
L 386.68608 163.957697 
L 386.86464 68.598926 
L 387.0432 76.705503 
L 387.22176 65.738881 
L 387.40032 67.850625 
L 387.57888 66.738601 
L 387.75744 64.79865 
L 387.936 70.112331 
L 388.11456 68.480428 
L 388.29312 65.434658 
L 388.47168 65.972729 
L 388.65024 67.190877 
L 388.8288 75.028775 
L 389.00736 100.033169 
L 389.18592 72.214177 
L 389.36448 65.547314 
L 389.54304 65.775714 
L 389.7216 64.550324 
L 389.90016 73.626534 
L 390.07872 66.948084 
L 390.25728 67.710091 
L 390.43584 109.049239 
L 390.6144 65.569387 
L 390.79296 68.958579 
L 390.97152 76.058322 
L 391.15008 156.735655 
L 391.32864 68.928522 
L 391.5072 70.578488 
L 391.68576 87.976588 
L 391.86432 67.6581 
L 392.04288 78.074665 
L 392.4 65.485163 
L 392.57856 67.40165 
L 392.75712 66.031524 
L 392.93568 68.340896 
L 393.11424 68.770121 
L 393.2928 74.003754 
L 393.64992 66.115591 
L 393.82848 73.656915 
L 394.00704 69.45653 
L 394.1856 69.099511 
L 394.36416 75.91318 
L 394.72128 65.135135 
L 394.89984 66.448972 
L 395.0784 65.176346 
L 395.25696 105.1109 
L 395.43552 71.765461 
L 395.79264 66.772435 
L 396.14976 71.166958 
L 396.32832 64.283163 
L 396.68544 71.092425 
L 396.864 67.275861 
L 397.04256 76.506735 
L 397.39968 66.501548 
L 397.57824 74.941785 
L 397.7568 68.752648 
L 398.11392 64.414643 
L 398.29248 68.527317 
L 398.47104 91.234759 
L 398.6496 68.884772 
L 398.82816 66.075608 
L 399.00672 101.407981 
L 399.18528 68.385603 
L 399.36384 69.576455 
L 399.72096 67.806716 
L 399.89952 68.960068 
L 400.07808 66.931525 
L 400.25664 67.976754 
L 400.4352 87.238007 
L 400.61376 70.431016 
L 401.14944 64.238729 
L 401.50656 68.963014 
L 401.68512 69.223779 
L 401.86368 76.96087 
L 402.04224 66.127824 
L 402.2208 66.34642 
L 402.39936 71.906268 
L 402.57792 67.037476 
L 402.75648 73.719209 
L 402.93504 65.326579 
L 403.1136 65.741594 
L 403.29216 65.067957 
L 403.47072 72.691715 
L 403.64928 63.996215 
L 403.82784 179.512635 
L 404.0064 64.316729 
L 404.18496 68.631924 
L 404.36352 65.785879 
L 404.72064 74.13585 
L 404.8992 65.973267 
L 405.07776 67.217581 
L 405.25632 64.068282 
L 405.43488 65.794057 
L 405.61344 64.043904 
L 405.792 69.418371 
L 405.97056 65.138764 
L 406.14912 72.824875 
L 406.32768 66.238597 
L 406.50624 75.703802 
L 406.6848 66.336812 
L 406.86336 68.978868 
L 407.04192 69.355064 
L 407.22048 104.143667 
L 407.39904 72.75402 
L 407.5776 68.698076 
L 407.75616 68.238141 
L 407.93472 68.800814 
L 408.29184 65.298144 
L 408.4704 75.580893 
L 408.64896 78.387584 
L 408.82752 68.285482 
L 409.00608 64.82027 
L 409.3632 64.60071 
L 409.54176 68.340231 
L 409.72032 65.795037 
L 409.89888 68.207764 
L 410.07744 73.057356 
L 410.43456 65.224497 
L 410.61312 69.413191 
L 410.79168 68.562562 
L 410.97024 69.21349 
L 411.1488 78.810856 
L 411.32736 66.573253 
L 411.50592 68.902231 
L 411.68448 74.321323 
L 411.86304 83.615316 
L 412.0416 67.512172 
L 412.22016 79.241956 
L 412.39872 66.01014 
L 412.57728 73.37281 
L 412.75584 68.281873 
L 412.9344 67.364861 
L 413.11296 86.401459 
L 413.29152 129.728001 
L 413.47008 109.279915 
L 413.64864 70.013273 
L 413.8272 66.400762 
L 414.00576 78.962937 
L 414.36288 67.305319 
L 414.54144 72.160654 
L 414.54144 72.160654 
" style="fill:none;stroke:#0000ff;stroke-linecap:square;stroke-width:1.5;"/>
   </g>
   <g id="patch_3">
    <path d="M 57.6 307.584 
L 57.6 41.472 
" style="fill:none;stroke:#000000;stroke-linecap:square;stroke-linejoin:miter;stroke-width:0.8;"/>
   </g>
   <g id="patch_4">
    <path d="M 414.72 307.584 
L 414.72 41.472 
" style="fill:none;stroke:#000000;stroke-linecap:square;stroke-linejoin:miter;stroke-width:0.8;"/>
   </g>
   <g id="patch_5">
    <path d="M 57.6 307.584 
L 414.72 307.584 
" style="fill:none;stroke:#000000;stroke-linecap:square;stroke-linejoin:miter;stroke-width:0.8;"/>
   </g>
   <g id="patch_6">
    <path d="M 57.6 41.472 
L 414.72 41.472 
" style="fill:none;stroke:#000000;stroke-linecap:square;stroke-linejoin:miter;stroke-width:0.8;"/>
   </g>
   <g id="legend_1">
    <g id="patch_7">
     <path d="M 282.321563 302.584 
L 407.72 302.584 
Q 409.72 302.584 409.72 300.584 
L 409.72 286.905875 
Q 409.72 284.905875 407.72 284.905875 
L 282.321563 284.905875 
Q 280.321563 284.905875 280.321563 286.905875 
L 280.321563 300.584 
Q 280.321563 302.584 282.321563 302.584 
z
" style="fill:#ffffff;opacity:0.8;stroke:#cccccc;stroke-linejoin:miter;"/>
    </g>
    <g id="line2d_32">
     <path d="M 284.321563 293.004312 
L 304.321563 293.004312 
" style="fill:none;stroke:#0000ff;stroke-linecap:square;stroke-width:1.5;"/>
    </g>
    <g id="line2d_33"/>
    <g id="text_18">
     <!-- cumulative reward -->
     <g transform="translate(312.321563 296.504312)scale(0.1 -0.1)">
      <defs>
       <path d="M 3122 3366 
L 3122 2828 
Q 2878 2963 2633 3030 
Q 2388 3097 2138 3097 
Q 1578 3097 1268 2742 
Q 959 2388 959 1747 
Q 959 1106 1268 751 
Q 1578 397 2138 397 
Q 2388 397 2633 464 
Q 2878 531 3122 666 
L 3122 134 
Q 2881 22 2623 -34 
Q 2366 -91 2075 -91 
Q 1284 -91 818 406 
Q 353 903 353 1747 
Q 353 2603 823 3093 
Q 1294 3584 2113 3584 
Q 2378 3584 2631 3529 
Q 2884 3475 3122 3366 
z
" id="DejaVuSans-63" transform="scale(0.015625)"/>
      </defs>
      <use xlink:href="#DejaVuSans-63"/>
      <use x="54.980469" xlink:href="#DejaVuSans-75"/>
      <use x="118.359375" xlink:href="#DejaVuSans-6d"/>
      <use x="215.771484" xlink:href="#DejaVuSans-75"/>
      <use x="279.150391" xlink:href="#DejaVuSans-6c"/>
      <use x="306.933594" xlink:href="#DejaVuSans-61"/>
      <use x="368.212891" xlink:href="#DejaVuSans-74"/>
      <use x="407.421875" xlink:href="#DejaVuSans-69"/>
      <use x="435.205078" xlink:href="#DejaVuSans-76"/>
      <use x="494.384766" xlink:href="#DejaVuSans-65"/>
      <use x="555.908203" xlink:href="#DejaVuSans-20"/>
      <use x="587.695312" xlink:href="#DejaVuSans-72"/>
      <use x="626.558594" xlink:href="#DejaVuSans-65"/>
      <use x="688.082031" xlink:href="#DejaVuSans-77"/>
      <use x="769.869141" xlink:href="#DejaVuSans-61"/>
      <use x="831.148438" xlink:href="#DejaVuSans-72"/>
      <use x="870.511719" xlink:href="#DejaVuSans-64"/>
     </g>
    </g>
   </g>
  </g>
 </g>
 <defs>
  <clipPath id="p7d2a55814d">
   <rect height="266.112" width="357.12" x="57.6" y="41.472"/>
  </clipPath>
 </defs>
</svg>
