<?xml version="1.0" encoding="utf-8" standalone="no"?>
<!DOCTYPE svg PUBLIC "-//W3C//DTD SVG 1.1//EN"
  "http://www.w3.org/Graphics/SVG/1.1/DTD/svg11.dtd">
<svg height="345.6pt" version="1.1" viewBox="0 0 460.8 345.6" width="460.8pt" xmlns="http://www.w3.org/2000/svg" xmlns:xlink="http://www.w3.org/1999/xlink">
 <metadata>
  <rdf:RDF xmlns:cc="http://creativecommons.org/ns#" xmlns:dc="http://purl.org/dc/elements/1.1/" xmlns:rdf="http://www.w3.org/1999/02/22-rdf-syntax-ns#">
   <cc:Work>
    <dc:type rdf:resource="http://purl.org/dc/dcmitype/StillImage"/>
    <dc:date>2021-10-27T13:16:23.821999</dc:date>
    <dc:description>{"agent.algorithm": "RayProximalPolicyOptimization", "agent.algorithm.render_env": false, "agent.algorithm.num_workers": 0, "agent.algorithm.batch_mode": "complete_episodes", "agent.algorithm.train_batch_size": 200, "agent.algorithm.optimizer": "Adam", "agent.algorithm.vf_clip_param": 5000, "agent.algorithm.model": {"fcnet_activation": "tanh", "fcnet_hiddens": [50, 50]}, "env.env_class": "SchedulerPolicyRayEnvironment", "env.env_config": {"solver_driver": "CMAdriver", "solver_driver_args": [10, 10, 20, 0.1], "maximize": false, "steps": 50, "state_metrics_names": ["DifferenceOfBest", "SolverStateHistory", "SolverState"], "state_metrics_config": [[40, false, 1, true], [{"step_size": {"max": 3, "min": 0}}, 40], [{"ps": {"max": 10, "min": -10}}]], "reward_metric": "Best", "reward_metric_config": [false, false], "memes_no": 1, "action_space_config": {"step_size": {"max": 3, "min": 1e-10}}}}</dc:description>
    <dc:format>image/svg+xml</dc:format>
    <dc:creator>
     <cc:Agent>
      <dc:title>Matplotlib v3.4.3, https://matplotlib.org/</dc:title>
     </cc:Agent>
    </dc:creator>
   </cc:Work>
  </rdf:RDF>
 </metadata>
 <defs>
  <style type="text/css">*{stroke-linecap:butt;stroke-linejoin:round;}</style>
 </defs>
 <g id="figure_1">
  <g id="patch_1">
   <path d="M 0 345.6 
L 460.8 345.6 
L 460.8 0 
L 0 0 
z
" style="fill:#ffffff;"/>
  </g>
  <g id="axes_1">
   <g id="patch_2">
    <path d="M 57.6 307.584 
L 414.72 307.584 
L 414.72 41.472 
L 57.6 41.472 
z
" style="fill:#ffffff;"/>
   </g>
   <g id="matplotlib.axis_1">
    <g id="xtick_1">
     <g id="line2d_1">
      <path clip-path="url(#pc5100231f1)" d="M 57.6 307.584 
L 57.6 41.472 
" style="fill:none;stroke:#b0b0b0;stroke-linecap:square;stroke-width:0.8;"/>
     </g>
     <g id="line2d_2">
      <defs>
       <path d="M 0 0 
L 0 3.5 
" id="m2e6d0aa38b" style="stroke:#000000;stroke-width:0.8;"/>
      </defs>
      <g>
       <use style="stroke:#000000;stroke-width:0.8;" x="57.6" xlink:href="#m2e6d0aa38b" y="307.584"/>
      </g>
     </g>
     <g id="text_1">
      <!-- 0 -->
      <g transform="translate(54.41875 322.182437)scale(0.1 -0.1)">
       <defs>
        <path d="M 2034 4250 
Q 1547 4250 1301 3770 
Q 1056 3291 1056 2328 
Q 1056 1369 1301 889 
Q 1547 409 2034 409 
Q 2525 409 2770 889 
Q 3016 1369 3016 2328 
Q 3016 3291 2770 3770 
Q 2525 4250 2034 4250 
z
M 2034 4750 
Q 2819 4750 3233 4129 
Q 3647 3509 3647 2328 
Q 3647 1150 3233 529 
Q 2819 -91 2034 -91 
Q 1250 -91 836 529 
Q 422 1150 422 2328 
Q 422 3509 836 4129 
Q 1250 4750 2034 4750 
z
" id="DejaVuSans-30" transform="scale(0.015625)"/>
       </defs>
       <use xlink:href="#DejaVuSans-30"/>
      </g>
     </g>
    </g>
    <g id="xtick_2">
     <g id="line2d_3">
      <path clip-path="url(#pc5100231f1)" d="M 129.024 307.584 
L 129.024 41.472 
" style="fill:none;stroke:#b0b0b0;stroke-linecap:square;stroke-width:0.8;"/>
     </g>
     <g id="line2d_4">
      <g>
       <use style="stroke:#000000;stroke-width:0.8;" x="129.024" xlink:href="#m2e6d0aa38b" y="307.584"/>
      </g>
     </g>
     <g id="text_2">
      <!-- 200 -->
      <g transform="translate(119.48025 322.182437)scale(0.1 -0.1)">
       <defs>
        <path d="M 1228 531 
L 3431 531 
L 3431 0 
L 469 0 
L 469 531 
Q 828 903 1448 1529 
Q 2069 2156 2228 2338 
Q 2531 2678 2651 2914 
Q 2772 3150 2772 3378 
Q 2772 3750 2511 3984 
Q 2250 4219 1831 4219 
Q 1534 4219 1204 4116 
Q 875 4013 500 3803 
L 500 4441 
Q 881 4594 1212 4672 
Q 1544 4750 1819 4750 
Q 2544 4750 2975 4387 
Q 3406 4025 3406 3419 
Q 3406 3131 3298 2873 
Q 3191 2616 2906 2266 
Q 2828 2175 2409 1742 
Q 1991 1309 1228 531 
z
" id="DejaVuSans-32" transform="scale(0.015625)"/>
       </defs>
       <use xlink:href="#DejaVuSans-32"/>
       <use x="63.623047" xlink:href="#DejaVuSans-30"/>
       <use x="127.246094" xlink:href="#DejaVuSans-30"/>
      </g>
     </g>
    </g>
    <g id="xtick_3">
     <g id="line2d_5">
      <path clip-path="url(#pc5100231f1)" d="M 200.448 307.584 
L 200.448 41.472 
" style="fill:none;stroke:#b0b0b0;stroke-linecap:square;stroke-width:0.8;"/>
     </g>
     <g id="line2d_6">
      <g>
       <use style="stroke:#000000;stroke-width:0.8;" x="200.448" xlink:href="#m2e6d0aa38b" y="307.584"/>
      </g>
     </g>
     <g id="text_3">
      <!-- 400 -->
      <g transform="translate(190.90425 322.182437)scale(0.1 -0.1)">
       <defs>
        <path d="M 2419 4116 
L 825 1625 
L 2419 1625 
L 2419 4116 
z
M 2253 4666 
L 3047 4666 
L 3047 1625 
L 3713 1625 
L 3713 1100 
L 3047 1100 
L 3047 0 
L 2419 0 
L 2419 1100 
L 313 1100 
L 313 1709 
L 2253 4666 
z
" id="DejaVuSans-34" transform="scale(0.015625)"/>
       </defs>
       <use xlink:href="#DejaVuSans-34"/>
       <use x="63.623047" xlink:href="#DejaVuSans-30"/>
       <use x="127.246094" xlink:href="#DejaVuSans-30"/>
      </g>
     </g>
    </g>
    <g id="xtick_4">
     <g id="line2d_7">
      <path clip-path="url(#pc5100231f1)" d="M 271.872 307.584 
L 271.872 41.472 
" style="fill:none;stroke:#b0b0b0;stroke-linecap:square;stroke-width:0.8;"/>
     </g>
     <g id="line2d_8">
      <g>
       <use style="stroke:#000000;stroke-width:0.8;" x="271.872" xlink:href="#m2e6d0aa38b" y="307.584"/>
      </g>
     </g>
     <g id="text_4">
      <!-- 600 -->
      <g transform="translate(262.32825 322.182437)scale(0.1 -0.1)">
       <defs>
        <path d="M 2113 2584 
Q 1688 2584 1439 2293 
Q 1191 2003 1191 1497 
Q 1191 994 1439 701 
Q 1688 409 2113 409 
Q 2538 409 2786 701 
Q 3034 994 3034 1497 
Q 3034 2003 2786 2293 
Q 2538 2584 2113 2584 
z
M 3366 4563 
L 3366 3988 
Q 3128 4100 2886 4159 
Q 2644 4219 2406 4219 
Q 1781 4219 1451 3797 
Q 1122 3375 1075 2522 
Q 1259 2794 1537 2939 
Q 1816 3084 2150 3084 
Q 2853 3084 3261 2657 
Q 3669 2231 3669 1497 
Q 3669 778 3244 343 
Q 2819 -91 2113 -91 
Q 1303 -91 875 529 
Q 447 1150 447 2328 
Q 447 3434 972 4092 
Q 1497 4750 2381 4750 
Q 2619 4750 2861 4703 
Q 3103 4656 3366 4563 
z
" id="DejaVuSans-36" transform="scale(0.015625)"/>
       </defs>
       <use xlink:href="#DejaVuSans-36"/>
       <use x="63.623047" xlink:href="#DejaVuSans-30"/>
       <use x="127.246094" xlink:href="#DejaVuSans-30"/>
      </g>
     </g>
    </g>
    <g id="xtick_5">
     <g id="line2d_9">
      <path clip-path="url(#pc5100231f1)" d="M 343.296 307.584 
L 343.296 41.472 
" style="fill:none;stroke:#b0b0b0;stroke-linecap:square;stroke-width:0.8;"/>
     </g>
     <g id="line2d_10">
      <g>
       <use style="stroke:#000000;stroke-width:0.8;" x="343.296" xlink:href="#m2e6d0aa38b" y="307.584"/>
      </g>
     </g>
     <g id="text_5">
      <!-- 800 -->
      <g transform="translate(333.75225 322.182437)scale(0.1 -0.1)">
       <defs>
        <path d="M 2034 2216 
Q 1584 2216 1326 1975 
Q 1069 1734 1069 1313 
Q 1069 891 1326 650 
Q 1584 409 2034 409 
Q 2484 409 2743 651 
Q 3003 894 3003 1313 
Q 3003 1734 2745 1975 
Q 2488 2216 2034 2216 
z
M 1403 2484 
Q 997 2584 770 2862 
Q 544 3141 544 3541 
Q 544 4100 942 4425 
Q 1341 4750 2034 4750 
Q 2731 4750 3128 4425 
Q 3525 4100 3525 3541 
Q 3525 3141 3298 2862 
Q 3072 2584 2669 2484 
Q 3125 2378 3379 2068 
Q 3634 1759 3634 1313 
Q 3634 634 3220 271 
Q 2806 -91 2034 -91 
Q 1263 -91 848 271 
Q 434 634 434 1313 
Q 434 1759 690 2068 
Q 947 2378 1403 2484 
z
M 1172 3481 
Q 1172 3119 1398 2916 
Q 1625 2713 2034 2713 
Q 2441 2713 2670 2916 
Q 2900 3119 2900 3481 
Q 2900 3844 2670 4047 
Q 2441 4250 2034 4250 
Q 1625 4250 1398 4047 
Q 1172 3844 1172 3481 
z
" id="DejaVuSans-38" transform="scale(0.015625)"/>
       </defs>
       <use xlink:href="#DejaVuSans-38"/>
       <use x="63.623047" xlink:href="#DejaVuSans-30"/>
       <use x="127.246094" xlink:href="#DejaVuSans-30"/>
      </g>
     </g>
    </g>
    <g id="xtick_6">
     <g id="line2d_11">
      <path clip-path="url(#pc5100231f1)" d="M 414.72 307.584 
L 414.72 41.472 
" style="fill:none;stroke:#b0b0b0;stroke-linecap:square;stroke-width:0.8;"/>
     </g>
     <g id="line2d_12">
      <g>
       <use style="stroke:#000000;stroke-width:0.8;" x="414.72" xlink:href="#m2e6d0aa38b" y="307.584"/>
      </g>
     </g>
     <g id="text_6">
      <!-- 1000 -->
      <g transform="translate(401.995 322.182437)scale(0.1 -0.1)">
       <defs>
        <path d="M 794 531 
L 1825 531 
L 1825 4091 
L 703 3866 
L 703 4441 
L 1819 4666 
L 2450 4666 
L 2450 531 
L 3481 531 
L 3481 0 
L 794 0 
L 794 531 
z
" id="DejaVuSans-31" transform="scale(0.015625)"/>
       </defs>
       <use xlink:href="#DejaVuSans-31"/>
       <use x="63.623047" xlink:href="#DejaVuSans-30"/>
       <use x="127.246094" xlink:href="#DejaVuSans-30"/>
       <use x="190.869141" xlink:href="#DejaVuSans-30"/>
      </g>
     </g>
    </g>
    <g id="text_7">
     <!-- Episodes -->
     <g transform="translate(213.917812 335.860562)scale(0.1 -0.1)">
      <defs>
       <path d="M 628 4666 
L 3578 4666 
L 3578 4134 
L 1259 4134 
L 1259 2753 
L 3481 2753 
L 3481 2222 
L 1259 2222 
L 1259 531 
L 3634 531 
L 3634 0 
L 628 0 
L 628 4666 
z
" id="DejaVuSans-45" transform="scale(0.015625)"/>
       <path d="M 1159 525 
L 1159 -1331 
L 581 -1331 
L 581 3500 
L 1159 3500 
L 1159 2969 
Q 1341 3281 1617 3432 
Q 1894 3584 2278 3584 
Q 2916 3584 3314 3078 
Q 3713 2572 3713 1747 
Q 3713 922 3314 415 
Q 2916 -91 2278 -91 
Q 1894 -91 1617 61 
Q 1341 213 1159 525 
z
M 3116 1747 
Q 3116 2381 2855 2742 
Q 2594 3103 2138 3103 
Q 1681 3103 1420 2742 
Q 1159 2381 1159 1747 
Q 1159 1113 1420 752 
Q 1681 391 2138 391 
Q 2594 391 2855 752 
Q 3116 1113 3116 1747 
z
" id="DejaVuSans-70" transform="scale(0.015625)"/>
       <path d="M 603 3500 
L 1178 3500 
L 1178 0 
L 603 0 
L 603 3500 
z
M 603 4863 
L 1178 4863 
L 1178 4134 
L 603 4134 
L 603 4863 
z
" id="DejaVuSans-69" transform="scale(0.015625)"/>
       <path d="M 2834 3397 
L 2834 2853 
Q 2591 2978 2328 3040 
Q 2066 3103 1784 3103 
Q 1356 3103 1142 2972 
Q 928 2841 928 2578 
Q 928 2378 1081 2264 
Q 1234 2150 1697 2047 
L 1894 2003 
Q 2506 1872 2764 1633 
Q 3022 1394 3022 966 
Q 3022 478 2636 193 
Q 2250 -91 1575 -91 
Q 1294 -91 989 -36 
Q 684 19 347 128 
L 347 722 
Q 666 556 975 473 
Q 1284 391 1588 391 
Q 1994 391 2212 530 
Q 2431 669 2431 922 
Q 2431 1156 2273 1281 
Q 2116 1406 1581 1522 
L 1381 1569 
Q 847 1681 609 1914 
Q 372 2147 372 2553 
Q 372 3047 722 3315 
Q 1072 3584 1716 3584 
Q 2034 3584 2315 3537 
Q 2597 3491 2834 3397 
z
" id="DejaVuSans-73" transform="scale(0.015625)"/>
       <path d="M 1959 3097 
Q 1497 3097 1228 2736 
Q 959 2375 959 1747 
Q 959 1119 1226 758 
Q 1494 397 1959 397 
Q 2419 397 2687 759 
Q 2956 1122 2956 1747 
Q 2956 2369 2687 2733 
Q 2419 3097 1959 3097 
z
M 1959 3584 
Q 2709 3584 3137 3096 
Q 3566 2609 3566 1747 
Q 3566 888 3137 398 
Q 2709 -91 1959 -91 
Q 1206 -91 779 398 
Q 353 888 353 1747 
Q 353 2609 779 3096 
Q 1206 3584 1959 3584 
z
" id="DejaVuSans-6f" transform="scale(0.015625)"/>
       <path d="M 2906 2969 
L 2906 4863 
L 3481 4863 
L 3481 0 
L 2906 0 
L 2906 525 
Q 2725 213 2448 61 
Q 2172 -91 1784 -91 
Q 1150 -91 751 415 
Q 353 922 353 1747 
Q 353 2572 751 3078 
Q 1150 3584 1784 3584 
Q 2172 3584 2448 3432 
Q 2725 3281 2906 2969 
z
M 947 1747 
Q 947 1113 1208 752 
Q 1469 391 1925 391 
Q 2381 391 2643 752 
Q 2906 1113 2906 1747 
Q 2906 2381 2643 2742 
Q 2381 3103 1925 3103 
Q 1469 3103 1208 2742 
Q 947 2381 947 1747 
z
" id="DejaVuSans-64" transform="scale(0.015625)"/>
       <path d="M 3597 1894 
L 3597 1613 
L 953 1613 
Q 991 1019 1311 708 
Q 1631 397 2203 397 
Q 2534 397 2845 478 
Q 3156 559 3463 722 
L 3463 178 
Q 3153 47 2828 -22 
Q 2503 -91 2169 -91 
Q 1331 -91 842 396 
Q 353 884 353 1716 
Q 353 2575 817 3079 
Q 1281 3584 2069 3584 
Q 2775 3584 3186 3129 
Q 3597 2675 3597 1894 
z
M 3022 2063 
Q 3016 2534 2758 2815 
Q 2500 3097 2075 3097 
Q 1594 3097 1305 2825 
Q 1016 2553 972 2059 
L 3022 2063 
z
" id="DejaVuSans-65" transform="scale(0.015625)"/>
      </defs>
      <use xlink:href="#DejaVuSans-45"/>
      <use x="63.183594" xlink:href="#DejaVuSans-70"/>
      <use x="126.660156" xlink:href="#DejaVuSans-69"/>
      <use x="154.443359" xlink:href="#DejaVuSans-73"/>
      <use x="206.542969" xlink:href="#DejaVuSans-6f"/>
      <use x="267.724609" xlink:href="#DejaVuSans-64"/>
      <use x="331.201172" xlink:href="#DejaVuSans-65"/>
      <use x="392.724609" xlink:href="#DejaVuSans-73"/>
     </g>
    </g>
   </g>
   <g id="matplotlib.axis_2">
    <g id="ytick_1">
     <g id="line2d_13">
      <path clip-path="url(#pc5100231f1)" d="M 57.6 298.623538 
L 414.72 298.623538 
" style="fill:none;stroke:#b0b0b0;stroke-linecap:square;stroke-width:0.8;"/>
     </g>
     <g id="line2d_14">
      <defs>
       <path d="M 0 0 
L -3.5 0 
" id="m661374a674" style="stroke:#000000;stroke-width:0.8;"/>
      </defs>
      <g>
       <use style="stroke:#000000;stroke-width:0.8;" x="57.6" xlink:href="#m661374a674" y="298.623538"/>
      </g>
     </g>
     <g id="text_8">
      <!-- −500000 -->
      <g transform="translate(4.045313 302.422757)scale(0.1 -0.1)">
       <defs>
        <path d="M 678 2272 
L 4684 2272 
L 4684 1741 
L 678 1741 
L 678 2272 
z
" id="DejaVuSans-2212" transform="scale(0.015625)"/>
        <path d="M 691 4666 
L 3169 4666 
L 3169 4134 
L 1269 4134 
L 1269 2991 
Q 1406 3038 1543 3061 
Q 1681 3084 1819 3084 
Q 2600 3084 3056 2656 
Q 3513 2228 3513 1497 
Q 3513 744 3044 326 
Q 2575 -91 1722 -91 
Q 1428 -91 1123 -41 
Q 819 9 494 109 
L 494 744 
Q 775 591 1075 516 
Q 1375 441 1709 441 
Q 2250 441 2565 725 
Q 2881 1009 2881 1497 
Q 2881 1984 2565 2268 
Q 2250 2553 1709 2553 
Q 1456 2553 1204 2497 
Q 953 2441 691 2322 
L 691 4666 
z
" id="DejaVuSans-35" transform="scale(0.015625)"/>
       </defs>
       <use xlink:href="#DejaVuSans-2212"/>
       <use x="83.789062" xlink:href="#DejaVuSans-35"/>
       <use x="147.412109" xlink:href="#DejaVuSans-30"/>
       <use x="211.035156" xlink:href="#DejaVuSans-30"/>
       <use x="274.658203" xlink:href="#DejaVuSans-30"/>
       <use x="338.28125" xlink:href="#DejaVuSans-30"/>
       <use x="401.904297" xlink:href="#DejaVuSans-30"/>
      </g>
     </g>
    </g>
    <g id="ytick_2">
     <g id="line2d_15">
      <path clip-path="url(#pc5100231f1)" d="M 57.6 250.734326 
L 414.72 250.734326 
" style="fill:none;stroke:#b0b0b0;stroke-linecap:square;stroke-width:0.8;"/>
     </g>
     <g id="line2d_16">
      <g>
       <use style="stroke:#000000;stroke-width:0.8;" x="57.6" xlink:href="#m661374a674" y="250.734326"/>
      </g>
     </g>
     <g id="text_9">
      <!-- −400000 -->
      <g transform="translate(4.045313 254.533544)scale(0.1 -0.1)">
       <use xlink:href="#DejaVuSans-2212"/>
       <use x="83.789062" xlink:href="#DejaVuSans-34"/>
       <use x="147.412109" xlink:href="#DejaVuSans-30"/>
       <use x="211.035156" xlink:href="#DejaVuSans-30"/>
       <use x="274.658203" xlink:href="#DejaVuSans-30"/>
       <use x="338.28125" xlink:href="#DejaVuSans-30"/>
       <use x="401.904297" xlink:href="#DejaVuSans-30"/>
      </g>
     </g>
    </g>
    <g id="ytick_3">
     <g id="line2d_17">
      <path clip-path="url(#pc5100231f1)" d="M 57.6 202.845113 
L 414.72 202.845113 
" style="fill:none;stroke:#b0b0b0;stroke-linecap:square;stroke-width:0.8;"/>
     </g>
     <g id="line2d_18">
      <g>
       <use style="stroke:#000000;stroke-width:0.8;" x="57.6" xlink:href="#m661374a674" y="202.845113"/>
      </g>
     </g>
     <g id="text_10">
      <!-- −300000 -->
      <g transform="translate(4.045313 206.644332)scale(0.1 -0.1)">
       <defs>
        <path d="M 2597 2516 
Q 3050 2419 3304 2112 
Q 3559 1806 3559 1356 
Q 3559 666 3084 287 
Q 2609 -91 1734 -91 
Q 1441 -91 1130 -33 
Q 819 25 488 141 
L 488 750 
Q 750 597 1062 519 
Q 1375 441 1716 441 
Q 2309 441 2620 675 
Q 2931 909 2931 1356 
Q 2931 1769 2642 2001 
Q 2353 2234 1838 2234 
L 1294 2234 
L 1294 2753 
L 1863 2753 
Q 2328 2753 2575 2939 
Q 2822 3125 2822 3475 
Q 2822 3834 2567 4026 
Q 2313 4219 1838 4219 
Q 1578 4219 1281 4162 
Q 984 4106 628 3988 
L 628 4550 
Q 988 4650 1302 4700 
Q 1616 4750 1894 4750 
Q 2613 4750 3031 4423 
Q 3450 4097 3450 3541 
Q 3450 3153 3228 2886 
Q 3006 2619 2597 2516 
z
" id="DejaVuSans-33" transform="scale(0.015625)"/>
       </defs>
       <use xlink:href="#DejaVuSans-2212"/>
       <use x="83.789062" xlink:href="#DejaVuSans-33"/>
       <use x="147.412109" xlink:href="#DejaVuSans-30"/>
       <use x="211.035156" xlink:href="#DejaVuSans-30"/>
       <use x="274.658203" xlink:href="#DejaVuSans-30"/>
       <use x="338.28125" xlink:href="#DejaVuSans-30"/>
       <use x="401.904297" xlink:href="#DejaVuSans-30"/>
      </g>
     </g>
    </g>
    <g id="ytick_4">
     <g id="line2d_19">
      <path clip-path="url(#pc5100231f1)" d="M 57.6 154.9559 
L 414.72 154.9559 
" style="fill:none;stroke:#b0b0b0;stroke-linecap:square;stroke-width:0.8;"/>
     </g>
     <g id="line2d_20">
      <g>
       <use style="stroke:#000000;stroke-width:0.8;" x="57.6" xlink:href="#m661374a674" y="154.9559"/>
      </g>
     </g>
     <g id="text_11">
      <!-- −200000 -->
      <g transform="translate(4.045313 158.755119)scale(0.1 -0.1)">
       <use xlink:href="#DejaVuSans-2212"/>
       <use x="83.789062" xlink:href="#DejaVuSans-32"/>
       <use x="147.412109" xlink:href="#DejaVuSans-30"/>
       <use x="211.035156" xlink:href="#DejaVuSans-30"/>
       <use x="274.658203" xlink:href="#DejaVuSans-30"/>
       <use x="338.28125" xlink:href="#DejaVuSans-30"/>
       <use x="401.904297" xlink:href="#DejaVuSans-30"/>
      </g>
     </g>
    </g>
    <g id="ytick_5">
     <g id="line2d_21">
      <path clip-path="url(#pc5100231f1)" d="M 57.6 107.066688 
L 414.72 107.066688 
" style="fill:none;stroke:#b0b0b0;stroke-linecap:square;stroke-width:0.8;"/>
     </g>
     <g id="line2d_22">
      <g>
       <use style="stroke:#000000;stroke-width:0.8;" x="57.6" xlink:href="#m661374a674" y="107.066688"/>
      </g>
     </g>
     <g id="text_12">
      <!-- −100000 -->
      <g transform="translate(4.045313 110.865907)scale(0.1 -0.1)">
       <use xlink:href="#DejaVuSans-2212"/>
       <use x="83.789062" xlink:href="#DejaVuSans-31"/>
       <use x="147.412109" xlink:href="#DejaVuSans-30"/>
       <use x="211.035156" xlink:href="#DejaVuSans-30"/>
       <use x="274.658203" xlink:href="#DejaVuSans-30"/>
       <use x="338.28125" xlink:href="#DejaVuSans-30"/>
       <use x="401.904297" xlink:href="#DejaVuSans-30"/>
      </g>
     </g>
    </g>
    <g id="ytick_6">
     <g id="line2d_23">
      <path clip-path="url(#pc5100231f1)" d="M 57.6 59.177475 
L 414.72 59.177475 
" style="fill:none;stroke:#b0b0b0;stroke-linecap:square;stroke-width:0.8;"/>
     </g>
     <g id="line2d_24">
      <g>
       <use style="stroke:#000000;stroke-width:0.8;" x="57.6" xlink:href="#m661374a674" y="59.177475"/>
      </g>
     </g>
     <g id="text_13">
      <!-- 0 -->
      <g transform="translate(44.2375 62.976694)scale(0.1 -0.1)">
       <use xlink:href="#DejaVuSans-30"/>
      </g>
     </g>
    </g>
    <g id="text_14">
     <!-- Cumulative Reward -->
     <g transform="translate(-2.034375 223.275656)rotate(-90)scale(0.1 -0.1)">
      <defs>
       <path d="M 4122 4306 
L 4122 3641 
Q 3803 3938 3442 4084 
Q 3081 4231 2675 4231 
Q 1875 4231 1450 3742 
Q 1025 3253 1025 2328 
Q 1025 1406 1450 917 
Q 1875 428 2675 428 
Q 3081 428 3442 575 
Q 3803 722 4122 1019 
L 4122 359 
Q 3791 134 3420 21 
Q 3050 -91 2638 -91 
Q 1578 -91 968 557 
Q 359 1206 359 2328 
Q 359 3453 968 4101 
Q 1578 4750 2638 4750 
Q 3056 4750 3426 4639 
Q 3797 4528 4122 4306 
z
" id="DejaVuSans-43" transform="scale(0.015625)"/>
       <path d="M 544 1381 
L 544 3500 
L 1119 3500 
L 1119 1403 
Q 1119 906 1312 657 
Q 1506 409 1894 409 
Q 2359 409 2629 706 
Q 2900 1003 2900 1516 
L 2900 3500 
L 3475 3500 
L 3475 0 
L 2900 0 
L 2900 538 
Q 2691 219 2414 64 
Q 2138 -91 1772 -91 
Q 1169 -91 856 284 
Q 544 659 544 1381 
z
M 1991 3584 
L 1991 3584 
z
" id="DejaVuSans-75" transform="scale(0.015625)"/>
       <path d="M 3328 2828 
Q 3544 3216 3844 3400 
Q 4144 3584 4550 3584 
Q 5097 3584 5394 3201 
Q 5691 2819 5691 2113 
L 5691 0 
L 5113 0 
L 5113 2094 
Q 5113 2597 4934 2840 
Q 4756 3084 4391 3084 
Q 3944 3084 3684 2787 
Q 3425 2491 3425 1978 
L 3425 0 
L 2847 0 
L 2847 2094 
Q 2847 2600 2669 2842 
Q 2491 3084 2119 3084 
Q 1678 3084 1418 2786 
Q 1159 2488 1159 1978 
L 1159 0 
L 581 0 
L 581 3500 
L 1159 3500 
L 1159 2956 
Q 1356 3278 1631 3431 
Q 1906 3584 2284 3584 
Q 2666 3584 2933 3390 
Q 3200 3197 3328 2828 
z
" id="DejaVuSans-6d" transform="scale(0.015625)"/>
       <path d="M 603 4863 
L 1178 4863 
L 1178 0 
L 603 0 
L 603 4863 
z
" id="DejaVuSans-6c" transform="scale(0.015625)"/>
       <path d="M 2194 1759 
Q 1497 1759 1228 1600 
Q 959 1441 959 1056 
Q 959 750 1161 570 
Q 1363 391 1709 391 
Q 2188 391 2477 730 
Q 2766 1069 2766 1631 
L 2766 1759 
L 2194 1759 
z
M 3341 1997 
L 3341 0 
L 2766 0 
L 2766 531 
Q 2569 213 2275 61 
Q 1981 -91 1556 -91 
Q 1019 -91 701 211 
Q 384 513 384 1019 
Q 384 1609 779 1909 
Q 1175 2209 1959 2209 
L 2766 2209 
L 2766 2266 
Q 2766 2663 2505 2880 
Q 2244 3097 1772 3097 
Q 1472 3097 1187 3025 
Q 903 2953 641 2809 
L 641 3341 
Q 956 3463 1253 3523 
Q 1550 3584 1831 3584 
Q 2591 3584 2966 3190 
Q 3341 2797 3341 1997 
z
" id="DejaVuSans-61" transform="scale(0.015625)"/>
       <path d="M 1172 4494 
L 1172 3500 
L 2356 3500 
L 2356 3053 
L 1172 3053 
L 1172 1153 
Q 1172 725 1289 603 
Q 1406 481 1766 481 
L 2356 481 
L 2356 0 
L 1766 0 
Q 1100 0 847 248 
Q 594 497 594 1153 
L 594 3053 
L 172 3053 
L 172 3500 
L 594 3500 
L 594 4494 
L 1172 4494 
z
" id="DejaVuSans-74" transform="scale(0.015625)"/>
       <path d="M 191 3500 
L 800 3500 
L 1894 563 
L 2988 3500 
L 3597 3500 
L 2284 0 
L 1503 0 
L 191 3500 
z
" id="DejaVuSans-76" transform="scale(0.015625)"/>
       <path id="DejaVuSans-20" transform="scale(0.015625)"/>
       <path d="M 2841 2188 
Q 3044 2119 3236 1894 
Q 3428 1669 3622 1275 
L 4263 0 
L 3584 0 
L 2988 1197 
Q 2756 1666 2539 1819 
Q 2322 1972 1947 1972 
L 1259 1972 
L 1259 0 
L 628 0 
L 628 4666 
L 2053 4666 
Q 2853 4666 3247 4331 
Q 3641 3997 3641 3322 
Q 3641 2881 3436 2590 
Q 3231 2300 2841 2188 
z
M 1259 4147 
L 1259 2491 
L 2053 2491 
Q 2509 2491 2742 2702 
Q 2975 2913 2975 3322 
Q 2975 3731 2742 3939 
Q 2509 4147 2053 4147 
L 1259 4147 
z
" id="DejaVuSans-52" transform="scale(0.015625)"/>
       <path d="M 269 3500 
L 844 3500 
L 1563 769 
L 2278 3500 
L 2956 3500 
L 3675 769 
L 4391 3500 
L 4966 3500 
L 4050 0 
L 3372 0 
L 2619 2869 
L 1863 0 
L 1184 0 
L 269 3500 
z
" id="DejaVuSans-77" transform="scale(0.015625)"/>
       <path d="M 2631 2963 
Q 2534 3019 2420 3045 
Q 2306 3072 2169 3072 
Q 1681 3072 1420 2755 
Q 1159 2438 1159 1844 
L 1159 0 
L 581 0 
L 581 3500 
L 1159 3500 
L 1159 2956 
Q 1341 3275 1631 3429 
Q 1922 3584 2338 3584 
Q 2397 3584 2469 3576 
Q 2541 3569 2628 3553 
L 2631 2963 
z
" id="DejaVuSans-72" transform="scale(0.015625)"/>
      </defs>
      <use xlink:href="#DejaVuSans-43"/>
      <use x="69.824219" xlink:href="#DejaVuSans-75"/>
      <use x="133.203125" xlink:href="#DejaVuSans-6d"/>
      <use x="230.615234" xlink:href="#DejaVuSans-75"/>
      <use x="293.994141" xlink:href="#DejaVuSans-6c"/>
      <use x="321.777344" xlink:href="#DejaVuSans-61"/>
      <use x="383.056641" xlink:href="#DejaVuSans-74"/>
      <use x="422.265625" xlink:href="#DejaVuSans-69"/>
      <use x="450.048828" xlink:href="#DejaVuSans-76"/>
      <use x="509.228516" xlink:href="#DejaVuSans-65"/>
      <use x="570.751953" xlink:href="#DejaVuSans-20"/>
      <use x="602.539062" xlink:href="#DejaVuSans-52"/>
      <use x="667.521484" xlink:href="#DejaVuSans-65"/>
      <use x="729.044922" xlink:href="#DejaVuSans-77"/>
      <use x="810.832031" xlink:href="#DejaVuSans-61"/>
      <use x="872.111328" xlink:href="#DejaVuSans-72"/>
      <use x="911.474609" xlink:href="#DejaVuSans-64"/>
     </g>
    </g>
   </g>
   <g id="line2d_25">
    <path clip-path="url(#pc5100231f1)" d="M 57.6 221.105542 
L 57.95712 236.075879 
L 58.31424 217.571643 
L 58.67136 173.14727 
L 59.02848 221.105542 
L 59.3856 236.075879 
L 59.74272 217.571643 
L 60.09984 173.14727 
L 60.45696 221.105542 
L 60.81408 236.075879 
L 61.1712 217.571643 
L 61.52832 173.14727 
L 61.88544 221.105542 
L 62.24256 236.075879 
L 62.59968 217.571643 
L 62.9568 173.14727 
L 63.31392 221.105542 
L 63.67104 236.075879 
L 64.02816 217.571643 
L 64.38528 173.14727 
L 64.7424 221.105542 
L 65.09952 236.075879 
L 65.45664 217.571643 
L 65.81376 173.14727 
L 66.17088 221.105542 
L 66.528 236.075879 
L 66.88512 217.571643 
L 67.24224 173.14727 
L 67.59936 221.105542 
L 67.95648 236.075879 
L 68.3136 217.571643 
L 68.67072 173.14727 
L 69.02784 221.105542 
L 69.38496 236.075879 
L 69.74208 217.571643 
L 70.0992 173.14727 
L 70.45632 221.105542 
L 70.81344 236.075879 
L 71.17056 217.571643 
L 71.52768 173.14727 
L 71.8848 221.105542 
L 72.24192 236.075879 
L 72.59904 217.571643 
L 72.95616 173.14727 
L 73.31328 221.105542 
L 73.6704 236.075879 
L 74.02752 217.571643 
L 74.38464 173.14727 
L 74.74176 221.105542 
L 75.09888 236.075879 
L 75.456 217.571643 
L 75.81312 173.14727 
L 76.17024 221.105542 
L 76.52736 236.075879 
L 76.88448 217.571643 
L 77.2416 173.14727 
L 77.59872 221.105542 
L 77.95584 236.075879 
L 78.31296 217.571643 
L 78.67008 173.14727 
L 79.0272 221.105542 
L 79.38432 236.075879 
L 79.74144 217.571643 
L 80.09856 173.14727 
L 80.45568 221.105542 
L 80.8128 236.075879 
L 81.16992 217.571643 
L 81.52704 173.14727 
L 81.88416 221.105542 
L 82.24128 236.075879 
L 82.5984 217.571643 
L 82.95552 173.14727 
L 83.31264 221.105542 
L 83.66976 236.075879 
L 84.02688 217.571643 
L 84.384 173.14727 
L 84.74112 221.105542 
L 85.09824 236.075879 
L 85.45536 217.571643 
L 85.81248 173.14727 
L 86.1696 221.105542 
L 86.52672 236.075879 
L 86.88384 217.571643 
L 87.24096 173.14727 
L 87.59808 221.105542 
L 87.9552 236.075879 
L 88.31232 217.571643 
L 88.66944 173.14727 
L 89.02656 221.105542 
L 89.38368 236.075879 
L 89.7408 217.571643 
L 90.09792 173.14727 
L 90.45504 221.105542 
L 90.81216 236.075879 
L 91.16928 217.571643 
L 91.5264 173.14727 
L 91.88352 221.105542 
L 92.24064 236.075879 
L 92.59776 217.571643 
L 92.95488 173.14727 
L 93.312 187.810958 
L 93.66912 279.196215 
L 94.02624 191.667914 
L 94.38336 239.513104 
L 94.74048 199.57834 
L 95.0976 215.010423 
L 95.45472 183.949488 
L 95.81184 169.276302 
L 96.16896 208.553393 
L 96.52608 145.335459 
L 96.8832 228.94147 
L 97.24032 210.659026 
L 97.59744 173.988517 
L 97.95456 205.048806 
L 98.6688 134.668564 
L 99.02592 178.928075 
L 99.38304 146.222676 
L 99.74016 152.129547 
L 100.09728 241.74111 
L 100.4544 235.74807 
L 100.81152 285.408 
L 101.16864 190.539301 
L 101.52576 183.779062 
L 101.88288 278.9488 
L 102.59712 128.115151 
L 102.95424 209.20869 
L 103.31136 165.072357 
L 103.66848 178.239058 
L 104.0256 186.003029 
L 104.38272 160.288526 
L 104.73984 111.175602 
L 105.09696 199.905198 
L 105.45408 198.085242 
L 105.8112 232.790435 
L 106.16832 200.020456 
L 106.52544 212.452602 
L 106.88256 157.465745 
L 107.5968 210.595601 
L 107.95392 215.415232 
L 108.31104 108.509668 
L 108.66816 234.859054 
L 109.02528 166.122879 
L 109.3824 123.765636 
L 109.73952 187.177475 
L 110.09664 147.293614 
L 110.45376 130.489794 
L 110.81088 144.614973 
L 111.168 147.291961 
L 111.52512 202.258676 
L 111.88224 181.025034 
L 112.23936 210.394046 
L 112.59648 127.173958 
L 112.9536 185.228993 
L 113.31072 120.084696 
L 113.66784 133.033048 
L 114.02496 184.90405 
L 114.38208 172.476981 
L 114.7392 117.600316 
L 115.09632 186.481796 
L 115.45344 177.20998 
L 115.81056 164.310653 
L 116.16768 225.622556 
L 116.5248 138.403997 
L 116.88192 179.749093 
L 117.23904 192.846 
L 117.59616 141.328192 
L 117.95328 182.45522 
L 118.3104 186.511028 
L 118.66752 117.444842 
L 119.02464 171.206398 
L 119.38176 270.985884 
L 119.73888 147.74352 
L 120.096 137.091388 
L 120.45312 173.108051 
L 120.81024 105.582751 
L 121.16736 158.887818 
L 121.52448 159.00799 
L 121.8816 154.275808 
L 122.23872 88.194195 
L 122.95296 147.767263 
L 123.31008 79.41317 
L 123.6672 100.708006 
L 124.02432 100.64551 
L 124.38144 135.531707 
L 124.73856 112.31529 
L 125.09568 98.122507 
L 125.4528 79.460825 
L 125.80992 180.163228 
L 126.16704 99.455054 
L 126.52416 163.203484 
L 126.88128 111.007041 
L 127.2384 79.194383 
L 127.59552 85.897895 
L 127.95264 102.688567 
L 128.30976 75.300955 
L 128.66688 104.105863 
L 129.024 99.20002 
L 129.38112 79.886181 
L 129.73824 87.705681 
L 130.09536 170.085409 
L 130.45248 75.663119 
L 130.8096 114.984167 
L 131.16672 74.394185 
L 131.52384 110.253647 
L 131.88096 102.470282 
L 132.23808 157.542208 
L 132.5952 89.301315 
L 132.95232 207.707885 
L 133.30944 89.721967 
L 133.66656 128.718628 
L 134.02368 103.678522 
L 134.3808 102.546473 
L 134.73792 76.835553 
L 135.09504 80.47238 
L 135.45216 92.78176 
L 136.1664 69.747352 
L 136.52352 65.851442 
L 136.88064 74.951059 
L 137.23776 72.364373 
L 137.59488 81.545668 
L 137.952 96.516772 
L 138.30912 72.058944 
L 138.66624 71.845112 
L 139.02336 95.150307 
L 139.7376 66.813356 
L 140.09472 126.663333 
L 140.80896 68.162681 
L 141.16608 101.589158 
L 141.5232 69.282665 
L 141.88032 73.682898 
L 142.23744 69.092767 
L 142.59456 69.431558 
L 142.95168 70.561977 
L 143.3088 86.482547 
L 143.66592 70.867301 
L 144.02304 72.579183 
L 144.38016 75.583343 
L 144.73728 69.307115 
L 145.0944 81.807029 
L 145.45152 70.100095 
L 145.80864 73.030291 
L 146.16576 69.508088 
L 146.52288 68.620447 
L 146.88 85.380608 
L 147.23712 69.1091 
L 147.59424 80.936205 
L 147.95136 100.659012 
L 148.30848 70.484507 
L 148.6656 119.781648 
L 149.02272 91.979513 
L 149.37984 78.034475 
L 149.73696 72.433866 
L 150.09408 76.413935 
L 150.4512 67.26129 
L 150.80832 73.228223 
L 151.52256 67.938863 
L 151.87968 114.858638 
L 152.2368 69.947249 
L 152.59392 71.103219 
L 152.95104 65.270353 
L 153.30816 70.75302 
L 153.66528 69.220343 
L 154.0224 87.580561 
L 154.37952 68.928916 
L 154.73664 72.198689 
L 155.09376 66.665801 
L 155.45088 78.227428 
L 155.808 67.696091 
L 156.16512 71.406005 
L 156.52224 70.535873 
L 156.87936 103.174966 
L 157.23648 81.231591 
L 157.95072 72.521841 
L 158.30784 76.594854 
L 158.66496 89.095254 
L 159.02208 67.376649 
L 159.3792 64.684419 
L 159.73632 69.568667 
L 160.09344 68.853492 
L 160.45056 81.405643 
L 160.80768 70.611135 
L 161.1648 66.515631 
L 161.52192 78.53008 
L 161.87904 66.732166 
L 162.23616 66.700007 
L 162.59328 79.15161 
L 162.9504 66.627894 
L 163.30752 64.464922 
L 163.66464 64.830193 
L 164.02176 66.975715 
L 164.736 74.36637 
L 165.09312 72.340257 
L 165.45024 76.980146 
L 166.16448 68.591592 
L 166.5216 67.998895 
L 166.87872 70.882051 
L 167.23584 67.235681 
L 167.59296 67.211635 
L 167.95008 79.464119 
L 168.3072 73.837818 
L 168.66432 76.110422 
L 169.02144 65.642535 
L 169.37856 100.471311 
L 169.73568 67.529342 
L 170.0928 69.437673 
L 170.44992 64.602124 
L 170.80704 64.651804 
L 171.16416 65.957196 
L 171.52128 66.670938 
L 171.8784 63.976664 
L 172.59264 69.393768 
L 172.94976 84.530334 
L 173.30688 64.597561 
L 173.664 65.325563 
L 174.02112 71.450091 
L 174.37824 68.643536 
L 174.73536 70.508064 
L 175.09248 68.586837 
L 175.4496 65.862067 
L 175.80672 72.528452 
L 176.16384 64.73922 
L 176.52096 64.585619 
L 176.87808 68.065527 
L 177.2352 66.76887 
L 177.59232 70.239936 
L 177.94944 64.27622 
L 178.30656 64.727222 
L 178.66368 69.525112 
L 179.0208 69.099696 
L 179.37792 80.6325 
L 179.73504 66.788291 
L 180.09216 65.803 
L 180.44928 76.120482 
L 180.8064 65.201386 
L 181.16352 69.47949 
L 181.52064 64.41033 
L 181.87776 72.250843 
L 182.23488 76.497545 
L 182.592 71.386373 
L 182.94912 71.282288 
L 183.30624 66.237023 
L 183.66336 71.012572 
L 184.02048 71.913071 
L 184.3776 70.823973 
L 184.73472 72.94126 
L 185.09184 70.419218 
L 185.44896 80.40854 
L 185.80608 71.774492 
L 186.52032 64.631526 
L 186.87744 63.866952 
L 187.23456 91.677594 
L 187.59168 66.967533 
L 187.9488 70.020761 
L 188.30592 70.927579 
L 188.66304 65.969573 
L 189.02016 71.428482 
L 189.37728 65.676947 
L 189.7344 89.656053 
L 190.09152 70.988867 
L 190.44864 66.515795 
L 190.80576 78.865906 
L 191.16288 66.82603 
L 191.52 79.079329 
L 191.87712 70.408728 
L 192.23424 68.156661 
L 192.59136 68.628345 
L 192.94848 65.397038 
L 193.3056 78.201371 
L 193.66272 65.890437 
L 194.01984 64.547625 
L 194.37696 67.53084 
L 194.73408 64.047889 
L 195.0912 69.137035 
L 195.80544 65.218772 
L 196.16256 68.01206 
L 196.51968 64.374828 
L 196.8768 69.749622 
L 197.23392 72.16426 
L 197.59104 64.636958 
L 197.94816 65.354107 
L 198.30528 88.640995 
L 198.6624 69.910914 
L 199.01952 66.17754 
L 199.37664 65.367687 
L 199.73376 65.682984 
L 200.09088 71.379235 
L 200.448 72.399007 
L 200.80512 66.729913 
L 201.16224 65.482934 
L 201.51936 73.385428 
L 201.87648 65.919948 
L 202.2336 68.909945 
L 202.59072 70.403539 
L 202.94784 67.444444 
L 203.30496 68.24887 
L 203.66208 72.567669 
L 204.0192 66.997116 
L 204.37632 67.161274 
L 204.73344 67.09178 
L 205.09056 63.891274 
L 205.44768 65.56754 
L 205.8048 66.294953 
L 206.16192 65.291505 
L 206.51904 77.370587 
L 206.87616 66.266015 
L 207.23328 65.854953 
L 207.5904 64.348556 
L 207.94752 75.450935 
L 208.30464 64.034209 
L 208.66176 66.644379 
L 209.01888 66.684914 
L 209.376 64.982256 
L 209.73312 65.201389 
L 210.09024 65.057988 
L 210.44736 64.402012 
L 210.80448 67.557479 
L 211.1616 68.196374 
L 211.51872 63.861659 
L 211.87584 67.638985 
L 212.23296 67.602185 
L 212.59008 69.637655 
L 212.9472 66.19684 
L 213.30432 65.126712 
L 213.66144 65.036508 
L 214.01856 66.565837 
L 214.37568 65.396128 
L 214.7328 65.752038 
L 215.08992 68.772383 
L 215.44704 67.997575 
L 215.80416 65.406864 
L 216.16128 65.341681 
L 216.5184 64.460796 
L 216.87552 67.004408 
L 217.23264 74.854733 
L 217.58976 64.15664 
L 217.94688 70.814327 
L 218.304 64.9078 
L 218.66112 74.703028 
L 219.01824 72.585466 
L 219.37536 64.152098 
L 219.73248 65.499122 
L 220.0896 76.062509 
L 220.44672 66.775747 
L 220.80384 63.648 
L 221.16096 70.458827 
L 221.51808 64.651136 
L 221.8752 67.657201 
L 222.23232 64.62389 
L 222.58944 64.133146 
L 222.94656 63.971152 
L 223.30368 69.077982 
L 223.6608 68.444074 
L 224.01792 81.387903 
L 224.37504 65.754253 
L 224.73216 63.951758 
L 225.4464 65.907068 
L 225.80352 68.582863 
L 226.16064 70.204824 
L 226.87488 65.853208 
L 227.232 68.823039 
L 227.58912 66.051341 
L 227.94624 66.942954 
L 228.30336 66.796968 
L 228.66048 65.056551 
L 229.0176 63.979361 
L 229.37472 63.889153 
L 229.73184 66.348254 
L 230.08896 64.789923 
L 230.44608 65.832843 
L 230.8032 69.475158 
L 231.16032 64.438091 
L 231.51744 69.758984 
L 231.87456 70.432595 
L 232.23168 66.019569 
L 232.5888 66.443686 
L 232.94592 64.135981 
L 233.30304 63.953959 
L 233.66016 69.444294 
L 234.01728 70.839409 
L 234.3744 68.19971 
L 234.73152 70.875286 
L 235.08864 66.499547 
L 235.44576 66.271654 
L 235.80288 68.188662 
L 236.16 68.891496 
L 236.51712 64.603531 
L 236.87424 69.100707 
L 237.23136 68.297045 
L 237.58848 66.354703 
L 237.9456 66.767875 
L 238.30272 73.48728 
L 238.65984 65.587318 
L 239.01696 72.324597 
L 239.7312 64.022833 
L 240.08832 64.179313 
L 240.44544 70.90267 
L 240.80256 70.628544 
L 241.15968 68.555988 
L 241.5168 69.888243 
L 241.87392 66.136874 
L 242.23104 67.046155 
L 242.58816 63.687044 
L 242.94528 65.375059 
L 243.3024 66.37747 
L 243.65952 66.606703 
L 244.01664 68.499025 
L 244.37376 65.917557 
L 244.73088 66.047725 
L 245.088 65.406513 
L 245.44512 63.887026 
L 245.80224 65.840725 
L 246.15936 63.670427 
L 246.51648 64.995649 
L 246.8736 67.321256 
L 247.23072 65.595401 
L 247.58784 83.490516 
L 247.94496 69.924842 
L 248.30208 64.146434 
L 249.01632 68.436502 
L 249.37344 65.3674 
L 249.73056 73.751218 
L 250.08768 64.895676 
L 250.4448 65.527048 
L 250.80192 64.313736 
L 251.15904 66.269207 
L 251.51616 66.078603 
L 251.87328 69.795895 
L 252.2304 66.381228 
L 252.58752 69.83905 
L 252.94464 66.533324 
L 253.30176 65.11122 
L 253.65888 65.183407 
L 254.016 65.564286 
L 254.37312 77.027521 
L 254.73024 66.499125 
L 255.08736 63.930742 
L 255.44448 66.807401 
L 255.8016 64.119593 
L 256.15872 74.554221 
L 256.51584 64.939323 
L 256.87296 65.017762 
L 257.23008 66.057475 
L 257.5872 69.430045 
L 258.30144 63.88776 
L 258.65856 64.700137 
L 259.01568 72.109284 
L 259.3728 63.757529 
L 259.72992 64.676251 
L 260.08704 64.149495 
L 260.44416 65.44155 
L 260.80128 69.648778 
L 261.1584 66.087836 
L 261.51552 65.27485 
L 261.87264 66.335948 
L 262.22976 71.06387 
L 262.58688 65.435134 
L 262.944 65.729185 
L 263.30112 68.567015 
L 263.65824 64.914528 
L 264.01536 68.425165 
L 264.37248 70.399692 
L 265.08672 65.263001 
L 265.44384 64.17867 
L 265.80096 66.859492 
L 266.15808 65.20872 
L 266.5152 70.14419 
L 267.22944 64.623105 
L 267.94368 69.096205 
L 268.3008 64.115365 
L 268.65792 64.087981 
L 269.01504 67.675187 
L 269.37216 66.95399 
L 269.72928 65.456991 
L 270.0864 68.306644 
L 270.44352 66.311459 
L 270.80064 65.085993 
L 271.15776 66.007625 
L 271.51488 69.680369 
L 271.872 67.110212 
L 272.22912 67.708274 
L 272.58624 65.328895 
L 272.94336 65.89508 
L 273.30048 64.873849 
L 273.6576 65.286303 
L 274.01472 64.661921 
L 274.37184 64.760569 
L 274.72896 65.666733 
L 275.08608 70.641486 
L 275.4432 71.339492 
L 275.80032 69.853904 
L 276.15744 64.582185 
L 276.51456 64.909584 
L 276.87168 67.757294 
L 277.2288 64.394823 
L 277.58592 69.683801 
L 277.94304 65.019631 
L 278.30016 66.666223 
L 278.65728 66.752338 
L 279.0144 68.131759 
L 279.37152 68.629754 
L 279.72864 67.671175 
L 280.08576 69.363674 
L 280.44288 68.778101 
L 280.8 69.58001 
L 281.15712 64.744133 
L 281.51424 68.027505 
L 281.87136 66.203606 
L 282.22848 66.963666 
L 282.5856 69.700721 
L 282.94272 65.485173 
L 283.29984 66.033874 
L 283.65696 65.997686 
L 284.01408 73.847313 
L 284.3712 65.892646 
L 284.72832 68.748933 
L 285.08544 68.162351 
L 285.44256 64.879247 
L 285.79968 69.256641 
L 286.1568 67.678234 
L 286.51392 65.110874 
L 286.87104 65.846743 
L 287.58528 72.165822 
L 287.9424 66.58325 
L 288.29952 69.853617 
L 289.01376 66.048221 
L 289.37088 72.550976 
L 289.728 72.392712 
L 290.08512 67.824208 
L 290.44224 69.359727 
L 290.79936 64.414895 
L 291.15648 65.01665 
L 291.5136 76.08494 
L 291.87072 72.862595 
L 292.22784 75.106875 
L 292.58496 65.798767 
L 292.94208 73.9853 
L 293.2992 64.363895 
L 293.65632 67.695177 
L 294.01344 66.356461 
L 294.37056 67.339756 
L 294.72768 66.592047 
L 295.0848 64.402852 
L 295.44192 71.858587 
L 295.79904 73.234831 
L 296.15616 72.845704 
L 296.51328 66.856003 
L 296.8704 66.524289 
L 297.22752 66.624274 
L 297.58464 64.046427 
L 297.94176 69.904509 
L 298.29888 65.450876 
L 298.656 72.388463 
L 299.01312 71.047597 
L 299.37024 67.869645 
L 299.72736 66.123746 
L 300.08448 67.322347 
L 300.4416 68.991203 
L 300.79872 71.922257 
L 301.15584 81.811682 
L 301.51296 69.917905 
L 301.87008 66.727074 
L 302.2272 68.440167 
L 302.58432 68.735728 
L 302.94144 65.567888 
L 303.29856 67.988122 
L 303.65568 73.074322 
L 304.36992 66.946045 
L 304.72704 73.543857 
L 305.08416 69.182624 
L 305.44128 70.391058 
L 305.7984 76.235726 
L 306.15552 64.927646 
L 306.51264 69.391712 
L 306.86976 68.544821 
L 307.22688 64.91201 
L 307.584 67.515477 
L 307.94112 67.020223 
L 308.29824 68.645696 
L 308.65536 69.753204 
L 309.01248 65.016156 
L 309.3696 68.724294 
L 309.72672 69.94646 
L 310.08384 68.034727 
L 310.44096 73.454182 
L 310.79808 74.794792 
L 311.1552 65.541081 
L 311.51232 78.78197 
L 311.86944 68.693806 
L 312.22656 73.82755 
L 312.58368 69.273589 
L 313.29792 78.351695 
L 313.65504 65.630434 
L 314.01216 70.2773 
L 314.36928 64.73168 
L 314.7264 65.025784 
L 315.08352 68.421709 
L 315.44064 66.890614 
L 315.79776 72.721659 
L 316.15488 67.307488 
L 316.512 67.73844 
L 316.86912 64.442591 
L 317.22624 68.363787 
L 317.58336 70.950623 
L 317.94048 65.874427 
L 318.2976 65.495315 
L 318.65472 70.257678 
L 319.01184 65.085679 
L 319.36896 92.771831 
L 319.72608 70.159394 
L 320.0832 65.167648 
L 320.44032 65.186159 
L 320.79744 75.033546 
L 321.15456 68.697762 
L 321.8688 64.859555 
L 322.22592 65.384855 
L 322.58304 69.643532 
L 322.94016 69.328389 
L 323.29728 66.625513 
L 323.6544 64.931361 
L 324.01152 67.287292 
L 324.36864 64.118225 
L 324.72576 65.200006 
L 325.08288 66.877655 
L 325.44 67.348044 
L 325.79712 68.386647 
L 326.15424 65.072153 
L 326.51136 66.094848 
L 326.86848 66.159726 
L 327.2256 71.34428 
L 327.58272 63.894355 
L 327.93984 65.866025 
L 328.29696 64.281816 
L 328.65408 75.273821 
L 329.0112 64.665322 
L 329.36832 67.175139 
L 329.72544 66.093419 
L 330.08256 68.077086 
L 330.43968 67.493046 
L 330.7968 66.03459 
L 331.15392 66.985224 
L 331.51104 66.844335 
L 331.86816 65.941185 
L 332.22528 67.565599 
L 332.5824 65.948695 
L 332.93952 65.095739 
L 333.29664 65.343995 
L 333.65376 66.001166 
L 334.01088 72.8543 
L 334.368 70.065928 
L 334.72512 64.967633 
L 335.08224 65.05705 
L 335.43936 69.067755 
L 335.79648 64.838751 
L 336.1536 71.122348 
L 336.51072 70.556848 
L 336.86784 64.369381 
L 337.22496 65.154474 
L 337.58208 66.656321 
L 337.9392 68.745638 
L 338.29632 64.147421 
L 338.65344 65.14021 
L 339.01056 64.94701 
L 339.36768 64.202229 
L 339.7248 72.439452 
L 340.08192 66.058913 
L 340.43904 66.633364 
L 340.79616 69.318992 
L 341.15328 64.656288 
L 341.5104 64.236051 
L 341.86752 66.737293 
L 342.22464 64.815037 
L 342.58176 68.841653 
L 342.93888 68.00428 
L 343.296 75.474886 
L 343.65312 72.491526 
L 344.01024 66.022575 
L 344.36736 72.438257 
L 344.72448 67.048579 
L 345.0816 67.209278 
L 345.43872 66.08763 
L 345.79584 69.904431 
L 346.15296 65.046246 
L 346.51008 71.961637 
L 346.8672 67.864814 
L 347.22432 68.102035 
L 347.58144 66.715871 
L 347.93856 67.975834 
L 348.29568 67.811114 
L 348.6528 78.644349 
L 349.00992 67.67383 
L 349.36704 67.748263 
L 349.72416 64.826669 
L 350.08128 71.539835 
L 350.4384 68.400636 
L 350.79552 70.981339 
L 351.50976 64.399737 
L 351.86688 66.458479 
L 352.224 71.542659 
L 352.58112 74.876032 
L 352.93824 67.114731 
L 353.29536 66.935992 
L 353.65248 65.057639 
L 354.0096 67.293846 
L 354.36672 77.192795 
L 354.72384 65.376665 
L 355.08096 65.379432 
L 355.43808 70.534426 
L 355.7952 65.260391 
L 356.15232 64.528401 
L 356.50944 67.687314 
L 356.86656 66.941464 
L 357.22368 65.620599 
L 357.5808 150.163715 
L 357.93792 65.202497 
L 358.29504 63.974421 
L 359.00928 66.076895 
L 359.3664 64.542053 
L 359.72352 66.371611 
L 360.08064 64.758027 
L 360.43776 64.07408 
L 360.79488 80.28463 
L 361.152 69.860246 
L 361.50912 65.531157 
L 361.86624 77.237122 
L 362.22336 77.976928 
L 362.58048 66.801105 
L 362.9376 69.484535 
L 363.29472 116.902412 
L 363.65184 70.865304 
L 364.00896 67.51543 
L 364.36608 87.995037 
L 364.7232 67.863577 
L 365.08032 72.222945 
L 365.43744 67.206968 
L 365.79456 69.964182 
L 366.15168 92.11936 
L 366.5088 87.022638 
L 366.86592 65.71967 
L 367.93728 69.494706 
L 368.2944 65.757682 
L 368.65152 142.358691 
L 369.00864 68.14578 
L 369.36576 83.118862 
L 369.72288 68.925025 
L 370.08 65.270054 
L 370.43712 65.448111 
L 370.79424 70.45232 
L 371.15136 67.279993 
L 371.50848 66.399391 
L 371.8656 75.873578 
L 372.22272 67.188588 
L 372.57984 66.1445 
L 372.93696 64.250397 
L 373.29408 70.453546 
L 373.6512 66.43219 
L 374.00832 66.265468 
L 374.36544 70.164195 
L 374.72256 66.076205 
L 375.07968 69.194953 
L 375.4368 65.926174 
L 376.15104 68.764318 
L 376.50816 70.41678 
L 376.86528 66.853245 
L 377.2224 65.984854 
L 377.57952 108.259407 
L 377.93664 65.978786 
L 378.29376 74.472115 
L 378.65088 69.201913 
L 379.008 68.648275 
L 379.36512 70.634982 
L 379.72224 70.276568 
L 380.07936 140.181364 
L 380.43648 74.169091 
L 380.7936 66.57947 
L 381.15072 73.558642 
L 381.50784 85.749808 
L 381.86496 118.943949 
L 382.22208 78.160921 
L 382.5792 74.384495 
L 382.93632 72.438615 
L 383.29344 73.94997 
L 383.65056 85.240486 
L 384.00768 89.382315 
L 384.72192 69.735934 
L 385.07904 70.681279 
L 385.79328 101.193195 
L 386.50752 64.97848 
L 386.86464 100.456894 
L 387.22176 95.393924 
L 387.57888 69.489155 
L 387.936 76.777247 
L 388.29312 79.692943 
L 388.65024 102.785376 
L 389.00736 70.846609 
L 389.36448 73.961598 
L 389.7216 69.586263 
L 390.07872 71.688228 
L 390.43584 92.433174 
L 390.79296 66.139164 
L 391.15008 84.434783 
L 391.5072 174.82589 
L 391.86432 64.898689 
L 392.22144 100.743837 
L 392.57856 70.062425 
L 392.93568 66.013419 
L 393.2928 76.415873 
L 393.64992 68.877354 
L 394.00704 93.026144 
L 394.36416 76.323481 
L 394.72128 73.041769 
L 395.0784 71.024308 
L 395.43552 65.143441 
L 395.79264 111.498313 
L 396.14976 89.188398 
L 396.50688 89.098986 
L 396.864 110.028867 
L 397.22112 69.214515 
L 397.57824 79.899777 
L 397.93536 67.284938 
L 398.29248 110.433342 
L 398.6496 115.520919 
L 399.00672 69.309881 
L 399.36384 65.88868 
L 399.72096 66.377719 
L 400.07808 66.429104 
L 400.4352 74.091682 
L 400.79232 96.602686 
L 401.14944 69.730674 
L 401.50656 93.836843 
L 401.86368 88.448938 
L 402.2208 66.815887 
L 402.93504 146.500849 
L 403.29216 71.555583 
L 403.64928 71.231047 
L 404.0064 68.957186 
L 404.36352 69.555792 
L 404.72064 65.217047 
L 405.07776 66.289571 
L 405.43488 67.880576 
L 405.792 88.701996 
L 406.14912 67.230966 
L 406.50624 79.186572 
L 406.86336 83.941223 
L 407.22048 68.572443 
L 407.5776 68.350656 
L 407.93472 84.438198 
L 408.29184 72.684148 
L 408.64896 67.536659 
L 409.00608 73.149655 
L 409.3632 101.20949 
L 409.72032 72.897111 
L 410.07744 84.186749 
L 410.43456 124.588658 
L 410.79168 102.756866 
L 411.1488 94.048497 
L 411.50592 76.066423 
L 411.86304 67.638823 
L 412.22016 64.830634 
L 412.57728 74.635962 
L 412.9344 71.944139 
L 413.29152 82.123392 
L 413.64864 72.912262 
L 414.36288 67.71179 
L 414.36288 67.71179 
" style="fill:none;stroke:#0000ff;stroke-linecap:square;stroke-width:1.5;"/>
   </g>
   <g id="patch_3">
    <path d="M 57.6 307.584 
L 57.6 41.472 
" style="fill:none;stroke:#000000;stroke-linecap:square;stroke-linejoin:miter;stroke-width:0.8;"/>
   </g>
   <g id="patch_4">
    <path d="M 414.72 307.584 
L 414.72 41.472 
" style="fill:none;stroke:#000000;stroke-linecap:square;stroke-linejoin:miter;stroke-width:0.8;"/>
   </g>
   <g id="patch_5">
    <path d="M 57.6 307.584 
L 414.72 307.584 
" style="fill:none;stroke:#000000;stroke-linecap:square;stroke-linejoin:miter;stroke-width:0.8;"/>
   </g>
   <g id="patch_6">
    <path d="M 57.6 41.472 
L 414.72 41.472 
" style="fill:none;stroke:#000000;stroke-linecap:square;stroke-linejoin:miter;stroke-width:0.8;"/>
   </g>
   <g id="legend_1">
    <g id="patch_7">
     <path d="M 282.321563 302.584 
L 407.72 302.584 
Q 409.72 302.584 409.72 300.584 
L 409.72 286.905875 
Q 409.72 284.905875 407.72 284.905875 
L 282.321563 284.905875 
Q 280.321563 284.905875 280.321563 286.905875 
L 280.321563 300.584 
Q 280.321563 302.584 282.321563 302.584 
z
" style="fill:#ffffff;opacity:0.8;stroke:#cccccc;stroke-linejoin:miter;"/>
    </g>
    <g id="line2d_26">
     <path d="M 284.321563 293.004312 
L 304.321563 293.004312 
" style="fill:none;stroke:#0000ff;stroke-linecap:square;stroke-width:1.5;"/>
    </g>
    <g id="line2d_27"/>
    <g id="text_15">
     <!-- cumulative reward -->
     <g transform="translate(312.321563 296.504312)scale(0.1 -0.1)">
      <defs>
       <path d="M 3122 3366 
L 3122 2828 
Q 2878 2963 2633 3030 
Q 2388 3097 2138 3097 
Q 1578 3097 1268 2742 
Q 959 2388 959 1747 
Q 959 1106 1268 751 
Q 1578 397 2138 397 
Q 2388 397 2633 464 
Q 2878 531 3122 666 
L 3122 134 
Q 2881 22 2623 -34 
Q 2366 -91 2075 -91 
Q 1284 -91 818 406 
Q 353 903 353 1747 
Q 353 2603 823 3093 
Q 1294 3584 2113 3584 
Q 2378 3584 2631 3529 
Q 2884 3475 3122 3366 
z
" id="DejaVuSans-63" transform="scale(0.015625)"/>
      </defs>
      <use xlink:href="#DejaVuSans-63"/>
      <use x="54.980469" xlink:href="#DejaVuSans-75"/>
      <use x="118.359375" xlink:href="#DejaVuSans-6d"/>
      <use x="215.771484" xlink:href="#DejaVuSans-75"/>
      <use x="279.150391" xlink:href="#DejaVuSans-6c"/>
      <use x="306.933594" xlink:href="#DejaVuSans-61"/>
      <use x="368.212891" xlink:href="#DejaVuSans-74"/>
      <use x="407.421875" xlink:href="#DejaVuSans-69"/>
      <use x="435.205078" xlink:href="#DejaVuSans-76"/>
      <use x="494.384766" xlink:href="#DejaVuSans-65"/>
      <use x="555.908203" xlink:href="#DejaVuSans-20"/>
      <use x="587.695312" xlink:href="#DejaVuSans-72"/>
      <use x="626.558594" xlink:href="#DejaVuSans-65"/>
      <use x="688.082031" xlink:href="#DejaVuSans-77"/>
      <use x="769.869141" xlink:href="#DejaVuSans-61"/>
      <use x="831.148438" xlink:href="#DejaVuSans-72"/>
      <use x="870.511719" xlink:href="#DejaVuSans-64"/>
     </g>
    </g>
   </g>
  </g>
 </g>
 <defs>
  <clipPath id="pc5100231f1">
   <rect height="266.112" width="357.12" x="57.6" y="41.472"/>
  </clipPath>
 </defs>
</svg>
