<?xml version="1.0" encoding="utf-8" standalone="no"?>
<!DOCTYPE svg PUBLIC "-//W3C//DTD SVG 1.1//EN"
  "http://www.w3.org/Graphics/SVG/1.1/DTD/svg11.dtd">
<svg height="345.6pt" version="1.1" viewBox="0 0 460.8 345.6" width="460.8pt" xmlns="http://www.w3.org/2000/svg" xmlns:xlink="http://www.w3.org/1999/xlink">
 <metadata>
  <rdf:RDF xmlns:cc="http://creativecommons.org/ns#" xmlns:dc="http://purl.org/dc/elements/1.1/" xmlns:rdf="http://www.w3.org/1999/02/22-rdf-syntax-ns#">
   <cc:Work>
    <dc:type rdf:resource="http://purl.org/dc/dcmitype/StillImage"/>
    <dc:date>2021-11-03T21:14:53.754950</dc:date>
    <dc:description>{"agent.algorithm": "RayProximalPolicyOptimization", "agent.algorithm.render_env": false, "agent.algorithm.num_workers": 0, "agent.algorithm.batch_mode": "complete_episodes", "agent.algorithm.lr": 1e-05, "agent.algorithm.train_batch_size": 200, "agent.algorithm.optimizer": "Adam", "agent.algorithm.vf_clip_param": 50, "agent.algorithm.model": {"fcnet_activation": "tanh", "fcnet_hiddens": [30, 30]}, "env.env_class": "SchedulerPolicyRayEnvironment", "env.env_config": {"solver_driver": "CMAdriver", "solver_driver_args": [10, 10, 5, 0.5], "maximize": false, "steps": 50, "state_metrics_names": ["DifferenceOfBest", "SolverStateHistory"], "state_metrics_config": [[40, false, 1, true, false], [{"step_size": {"max": 3, "min": 0}}, 40]], "reward_metric": "Best", "reward_metric_config": [false, false], "memes_no": 1, "action_space_config": {"step_size": {"max": 3, "min": 1e-10}}}}</dc:description>
    <dc:format>image/svg+xml</dc:format>
    <dc:creator>
     <cc:Agent>
      <dc:title>Matplotlib v3.4.3, https://matplotlib.org/</dc:title>
     </cc:Agent>
    </dc:creator>
   </cc:Work>
  </rdf:RDF>
 </metadata>
 <defs>
  <style type="text/css">*{stroke-linecap:butt;stroke-linejoin:round;}</style>
 </defs>
 <g id="figure_1">
  <g id="patch_1">
   <path d="M 0 345.6 
L 460.8 345.6 
L 460.8 0 
L 0 0 
z
" style="fill:#ffffff;"/>
  </g>
  <g id="axes_1">
   <g id="patch_2">
    <path d="M 57.6 307.584 
L 414.72 307.584 
L 414.72 41.472 
L 57.6 41.472 
z
" style="fill:#ffffff;"/>
   </g>
   <g id="matplotlib.axis_1">
    <g id="xtick_1">
     <g id="line2d_1">
      <path clip-path="url(#pc9fc8ef79e)" d="M 57.6 307.584 
L 57.6 41.472 
" style="fill:none;stroke:#b0b0b0;stroke-linecap:square;stroke-width:0.8;"/>
     </g>
     <g id="line2d_2">
      <defs>
       <path d="M 0 0 
L 0 3.5 
" id="m639c645588" style="stroke:#000000;stroke-width:0.8;"/>
      </defs>
      <g>
       <use style="stroke:#000000;stroke-width:0.8;" x="57.6" xlink:href="#m639c645588" y="307.584"/>
      </g>
     </g>
     <g id="text_1">
      <!-- 0 -->
      <g transform="translate(52.51 326.7415)scale(0.16 -0.16)">
       <defs>
        <path d="M 2034 4250 
Q 1547 4250 1301 3770 
Q 1056 3291 1056 2328 
Q 1056 1369 1301 889 
Q 1547 409 2034 409 
Q 2525 409 2770 889 
Q 3016 1369 3016 2328 
Q 3016 3291 2770 3770 
Q 2525 4250 2034 4250 
z
M 2034 4750 
Q 2819 4750 3233 4129 
Q 3647 3509 3647 2328 
Q 3647 1150 3233 529 
Q 2819 -91 2034 -91 
Q 1250 -91 836 529 
Q 422 1150 422 2328 
Q 422 3509 836 4129 
Q 1250 4750 2034 4750 
z
" id="DejaVuSans-30" transform="scale(0.015625)"/>
       </defs>
       <use xlink:href="#DejaVuSans-30"/>
      </g>
     </g>
    </g>
    <g id="xtick_2">
     <g id="line2d_3">
      <path clip-path="url(#pc9fc8ef79e)" d="M 146.88 307.584 
L 146.88 41.472 
" style="fill:none;stroke:#b0b0b0;stroke-linecap:square;stroke-width:0.8;"/>
     </g>
     <g id="line2d_4">
      <g>
       <use style="stroke:#000000;stroke-width:0.8;" x="146.88" xlink:href="#m639c645588" y="307.584"/>
      </g>
     </g>
     <g id="text_2">
      <!-- 1000 -->
      <g transform="translate(126.52 326.7415)scale(0.16 -0.16)">
       <defs>
        <path d="M 794 531 
L 1825 531 
L 1825 4091 
L 703 3866 
L 703 4441 
L 1819 4666 
L 2450 4666 
L 2450 531 
L 3481 531 
L 3481 0 
L 794 0 
L 794 531 
z
" id="DejaVuSans-31" transform="scale(0.015625)"/>
       </defs>
       <use xlink:href="#DejaVuSans-31"/>
       <use x="63.623047" xlink:href="#DejaVuSans-30"/>
       <use x="127.246094" xlink:href="#DejaVuSans-30"/>
       <use x="190.869141" xlink:href="#DejaVuSans-30"/>
      </g>
     </g>
    </g>
    <g id="xtick_3">
     <g id="line2d_5">
      <path clip-path="url(#pc9fc8ef79e)" d="M 236.16 307.584 
L 236.16 41.472 
" style="fill:none;stroke:#b0b0b0;stroke-linecap:square;stroke-width:0.8;"/>
     </g>
     <g id="line2d_6">
      <g>
       <use style="stroke:#000000;stroke-width:0.8;" x="236.16" xlink:href="#m639c645588" y="307.584"/>
      </g>
     </g>
     <g id="text_3">
      <!-- 2000 -->
      <g transform="translate(215.8 326.7415)scale(0.16 -0.16)">
       <defs>
        <path d="M 1228 531 
L 3431 531 
L 3431 0 
L 469 0 
L 469 531 
Q 828 903 1448 1529 
Q 2069 2156 2228 2338 
Q 2531 2678 2651 2914 
Q 2772 3150 2772 3378 
Q 2772 3750 2511 3984 
Q 2250 4219 1831 4219 
Q 1534 4219 1204 4116 
Q 875 4013 500 3803 
L 500 4441 
Q 881 4594 1212 4672 
Q 1544 4750 1819 4750 
Q 2544 4750 2975 4387 
Q 3406 4025 3406 3419 
Q 3406 3131 3298 2873 
Q 3191 2616 2906 2266 
Q 2828 2175 2409 1742 
Q 1991 1309 1228 531 
z
" id="DejaVuSans-32" transform="scale(0.015625)"/>
       </defs>
       <use xlink:href="#DejaVuSans-32"/>
       <use x="63.623047" xlink:href="#DejaVuSans-30"/>
       <use x="127.246094" xlink:href="#DejaVuSans-30"/>
       <use x="190.869141" xlink:href="#DejaVuSans-30"/>
      </g>
     </g>
    </g>
    <g id="xtick_4">
     <g id="line2d_7">
      <path clip-path="url(#pc9fc8ef79e)" d="M 325.44 307.584 
L 325.44 41.472 
" style="fill:none;stroke:#b0b0b0;stroke-linecap:square;stroke-width:0.8;"/>
     </g>
     <g id="line2d_8">
      <g>
       <use style="stroke:#000000;stroke-width:0.8;" x="325.44" xlink:href="#m639c645588" y="307.584"/>
      </g>
     </g>
     <g id="text_4">
      <!-- 3000 -->
      <g transform="translate(305.08 326.7415)scale(0.16 -0.16)">
       <defs>
        <path d="M 2597 2516 
Q 3050 2419 3304 2112 
Q 3559 1806 3559 1356 
Q 3559 666 3084 287 
Q 2609 -91 1734 -91 
Q 1441 -91 1130 -33 
Q 819 25 488 141 
L 488 750 
Q 750 597 1062 519 
Q 1375 441 1716 441 
Q 2309 441 2620 675 
Q 2931 909 2931 1356 
Q 2931 1769 2642 2001 
Q 2353 2234 1838 2234 
L 1294 2234 
L 1294 2753 
L 1863 2753 
Q 2328 2753 2575 2939 
Q 2822 3125 2822 3475 
Q 2822 3834 2567 4026 
Q 2313 4219 1838 4219 
Q 1578 4219 1281 4162 
Q 984 4106 628 3988 
L 628 4550 
Q 988 4650 1302 4700 
Q 1616 4750 1894 4750 
Q 2613 4750 3031 4423 
Q 3450 4097 3450 3541 
Q 3450 3153 3228 2886 
Q 3006 2619 2597 2516 
z
" id="DejaVuSans-33" transform="scale(0.015625)"/>
       </defs>
       <use xlink:href="#DejaVuSans-33"/>
       <use x="63.623047" xlink:href="#DejaVuSans-30"/>
       <use x="127.246094" xlink:href="#DejaVuSans-30"/>
       <use x="190.869141" xlink:href="#DejaVuSans-30"/>
      </g>
     </g>
    </g>
    <g id="xtick_5">
     <g id="line2d_9">
      <path clip-path="url(#pc9fc8ef79e)" d="M 414.72 307.584 
L 414.72 41.472 
" style="fill:none;stroke:#b0b0b0;stroke-linecap:square;stroke-width:0.8;"/>
     </g>
     <g id="line2d_10">
      <g>
       <use style="stroke:#000000;stroke-width:0.8;" x="414.72" xlink:href="#m639c645588" y="307.584"/>
      </g>
     </g>
     <g id="text_5">
      <!-- 4000 -->
      <g transform="translate(394.36 326.7415)scale(0.16 -0.16)">
       <defs>
        <path d="M 2419 4116 
L 825 1625 
L 2419 1625 
L 2419 4116 
z
M 2253 4666 
L 3047 4666 
L 3047 1625 
L 3713 1625 
L 3713 1100 
L 3047 1100 
L 3047 0 
L 2419 0 
L 2419 1100 
L 313 1100 
L 313 1709 
L 2253 4666 
z
" id="DejaVuSans-34" transform="scale(0.015625)"/>
       </defs>
       <use xlink:href="#DejaVuSans-34"/>
       <use x="63.623047" xlink:href="#DejaVuSans-30"/>
       <use x="127.246094" xlink:href="#DejaVuSans-30"/>
       <use x="190.869141" xlink:href="#DejaVuSans-30"/>
      </g>
     </g>
    </g>
    <g id="text_6">
     <!-- Episodes -->
     <g transform="translate(200.5725 346.2265)scale(0.16 -0.16)">
      <defs>
       <path d="M 628 4666 
L 3578 4666 
L 3578 4134 
L 1259 4134 
L 1259 2753 
L 3481 2753 
L 3481 2222 
L 1259 2222 
L 1259 531 
L 3634 531 
L 3634 0 
L 628 0 
L 628 4666 
z
" id="DejaVuSans-45" transform="scale(0.015625)"/>
       <path d="M 1159 525 
L 1159 -1331 
L 581 -1331 
L 581 3500 
L 1159 3500 
L 1159 2969 
Q 1341 3281 1617 3432 
Q 1894 3584 2278 3584 
Q 2916 3584 3314 3078 
Q 3713 2572 3713 1747 
Q 3713 922 3314 415 
Q 2916 -91 2278 -91 
Q 1894 -91 1617 61 
Q 1341 213 1159 525 
z
M 3116 1747 
Q 3116 2381 2855 2742 
Q 2594 3103 2138 3103 
Q 1681 3103 1420 2742 
Q 1159 2381 1159 1747 
Q 1159 1113 1420 752 
Q 1681 391 2138 391 
Q 2594 391 2855 752 
Q 3116 1113 3116 1747 
z
" id="DejaVuSans-70" transform="scale(0.015625)"/>
       <path d="M 603 3500 
L 1178 3500 
L 1178 0 
L 603 0 
L 603 3500 
z
M 603 4863 
L 1178 4863 
L 1178 4134 
L 603 4134 
L 603 4863 
z
" id="DejaVuSans-69" transform="scale(0.015625)"/>
       <path d="M 2834 3397 
L 2834 2853 
Q 2591 2978 2328 3040 
Q 2066 3103 1784 3103 
Q 1356 3103 1142 2972 
Q 928 2841 928 2578 
Q 928 2378 1081 2264 
Q 1234 2150 1697 2047 
L 1894 2003 
Q 2506 1872 2764 1633 
Q 3022 1394 3022 966 
Q 3022 478 2636 193 
Q 2250 -91 1575 -91 
Q 1294 -91 989 -36 
Q 684 19 347 128 
L 347 722 
Q 666 556 975 473 
Q 1284 391 1588 391 
Q 1994 391 2212 530 
Q 2431 669 2431 922 
Q 2431 1156 2273 1281 
Q 2116 1406 1581 1522 
L 1381 1569 
Q 847 1681 609 1914 
Q 372 2147 372 2553 
Q 372 3047 722 3315 
Q 1072 3584 1716 3584 
Q 2034 3584 2315 3537 
Q 2597 3491 2834 3397 
z
" id="DejaVuSans-73" transform="scale(0.015625)"/>
       <path d="M 1959 3097 
Q 1497 3097 1228 2736 
Q 959 2375 959 1747 
Q 959 1119 1226 758 
Q 1494 397 1959 397 
Q 2419 397 2687 759 
Q 2956 1122 2956 1747 
Q 2956 2369 2687 2733 
Q 2419 3097 1959 3097 
z
M 1959 3584 
Q 2709 3584 3137 3096 
Q 3566 2609 3566 1747 
Q 3566 888 3137 398 
Q 2709 -91 1959 -91 
Q 1206 -91 779 398 
Q 353 888 353 1747 
Q 353 2609 779 3096 
Q 1206 3584 1959 3584 
z
" id="DejaVuSans-6f" transform="scale(0.015625)"/>
       <path d="M 2906 2969 
L 2906 4863 
L 3481 4863 
L 3481 0 
L 2906 0 
L 2906 525 
Q 2725 213 2448 61 
Q 2172 -91 1784 -91 
Q 1150 -91 751 415 
Q 353 922 353 1747 
Q 353 2572 751 3078 
Q 1150 3584 1784 3584 
Q 2172 3584 2448 3432 
Q 2725 3281 2906 2969 
z
M 947 1747 
Q 947 1113 1208 752 
Q 1469 391 1925 391 
Q 2381 391 2643 752 
Q 2906 1113 2906 1747 
Q 2906 2381 2643 2742 
Q 2381 3103 1925 3103 
Q 1469 3103 1208 2742 
Q 947 2381 947 1747 
z
" id="DejaVuSans-64" transform="scale(0.015625)"/>
       <path d="M 3597 1894 
L 3597 1613 
L 953 1613 
Q 991 1019 1311 708 
Q 1631 397 2203 397 
Q 2534 397 2845 478 
Q 3156 559 3463 722 
L 3463 178 
Q 3153 47 2828 -22 
Q 2503 -91 2169 -91 
Q 1331 -91 842 396 
Q 353 884 353 1716 
Q 353 2575 817 3079 
Q 1281 3584 2069 3584 
Q 2775 3584 3186 3129 
Q 3597 2675 3597 1894 
z
M 3022 2063 
Q 3016 2534 2758 2815 
Q 2500 3097 2075 3097 
Q 1594 3097 1305 2825 
Q 1016 2553 972 2059 
L 3022 2063 
z
" id="DejaVuSans-65" transform="scale(0.015625)"/>
      </defs>
      <use xlink:href="#DejaVuSans-45"/>
      <use x="63.183594" xlink:href="#DejaVuSans-70"/>
      <use x="126.660156" xlink:href="#DejaVuSans-69"/>
      <use x="154.443359" xlink:href="#DejaVuSans-73"/>
      <use x="206.542969" xlink:href="#DejaVuSans-6f"/>
      <use x="267.724609" xlink:href="#DejaVuSans-64"/>
      <use x="331.201172" xlink:href="#DejaVuSans-65"/>
      <use x="392.724609" xlink:href="#DejaVuSans-73"/>
     </g>
    </g>
   </g>
   <g id="matplotlib.axis_2">
    <g id="ytick_1">
     <g id="line2d_11">
      <path clip-path="url(#pc9fc8ef79e)" d="M 57.6 256.721067 
L 414.72 256.721067 
" style="fill:none;stroke:#b0b0b0;stroke-linecap:square;stroke-width:0.8;"/>
     </g>
     <g id="line2d_12">
      <defs>
       <path d="M 0 0 
L -3.5 0 
" id="m684a1a0477" style="stroke:#000000;stroke-width:0.8;"/>
      </defs>
      <g>
       <use style="stroke:#000000;stroke-width:0.8;" x="57.6" xlink:href="#m684a1a0477" y="256.721067"/>
      </g>
     </g>
     <g id="text_7">
      <!-- −4500 -->
      <g transform="translate(-3.5275 262.799817)scale(0.16 -0.16)">
       <defs>
        <path d="M 678 2272 
L 4684 2272 
L 4684 1741 
L 678 1741 
L 678 2272 
z
" id="DejaVuSans-2212" transform="scale(0.015625)"/>
        <path d="M 691 4666 
L 3169 4666 
L 3169 4134 
L 1269 4134 
L 1269 2991 
Q 1406 3038 1543 3061 
Q 1681 3084 1819 3084 
Q 2600 3084 3056 2656 
Q 3513 2228 3513 1497 
Q 3513 744 3044 326 
Q 2575 -91 1722 -91 
Q 1428 -91 1123 -41 
Q 819 9 494 109 
L 494 744 
Q 775 591 1075 516 
Q 1375 441 1709 441 
Q 2250 441 2565 725 
Q 2881 1009 2881 1497 
Q 2881 1984 2565 2268 
Q 2250 2553 1709 2553 
Q 1456 2553 1204 2497 
Q 953 2441 691 2322 
L 691 4666 
z
" id="DejaVuSans-35" transform="scale(0.015625)"/>
       </defs>
       <use xlink:href="#DejaVuSans-2212"/>
       <use x="83.789062" xlink:href="#DejaVuSans-34"/>
       <use x="147.412109" xlink:href="#DejaVuSans-35"/>
       <use x="211.035156" xlink:href="#DejaVuSans-30"/>
       <use x="274.658203" xlink:href="#DejaVuSans-30"/>
      </g>
     </g>
    </g>
    <g id="ytick_2">
     <g id="line2d_13">
      <path clip-path="url(#pc9fc8ef79e)" d="M 57.6 202.836937 
L 414.72 202.836937 
" style="fill:none;stroke:#b0b0b0;stroke-linecap:square;stroke-width:0.8;"/>
     </g>
     <g id="line2d_14">
      <g>
       <use style="stroke:#000000;stroke-width:0.8;" x="57.6" xlink:href="#m684a1a0477" y="202.836937"/>
      </g>
     </g>
     <g id="text_8">
      <!-- −4000 -->
      <g transform="translate(-3.5275 208.915687)scale(0.16 -0.16)">
       <use xlink:href="#DejaVuSans-2212"/>
       <use x="83.789062" xlink:href="#DejaVuSans-34"/>
       <use x="147.412109" xlink:href="#DejaVuSans-30"/>
       <use x="211.035156" xlink:href="#DejaVuSans-30"/>
       <use x="274.658203" xlink:href="#DejaVuSans-30"/>
      </g>
     </g>
    </g>
    <g id="ytick_3">
     <g id="line2d_15">
      <path clip-path="url(#pc9fc8ef79e)" d="M 57.6 148.952807 
L 414.72 148.952807 
" style="fill:none;stroke:#b0b0b0;stroke-linecap:square;stroke-width:0.8;"/>
     </g>
     <g id="line2d_16">
      <g>
       <use style="stroke:#000000;stroke-width:0.8;" x="57.6" xlink:href="#m684a1a0477" y="148.952807"/>
      </g>
     </g>
     <g id="text_9">
      <!-- −3500 -->
      <g transform="translate(-3.5275 155.031557)scale(0.16 -0.16)">
       <use xlink:href="#DejaVuSans-2212"/>
       <use x="83.789062" xlink:href="#DejaVuSans-33"/>
       <use x="147.412109" xlink:href="#DejaVuSans-35"/>
       <use x="211.035156" xlink:href="#DejaVuSans-30"/>
       <use x="274.658203" xlink:href="#DejaVuSans-30"/>
      </g>
     </g>
    </g>
    <g id="ytick_4">
     <g id="line2d_17">
      <path clip-path="url(#pc9fc8ef79e)" d="M 57.6 95.068677 
L 414.72 95.068677 
" style="fill:none;stroke:#b0b0b0;stroke-linecap:square;stroke-width:0.8;"/>
     </g>
     <g id="line2d_18">
      <g>
       <use style="stroke:#000000;stroke-width:0.8;" x="57.6" xlink:href="#m684a1a0477" y="95.068677"/>
      </g>
     </g>
     <g id="text_10">
      <!-- −3000 -->
      <g transform="translate(-3.5275 101.147427)scale(0.16 -0.16)">
       <use xlink:href="#DejaVuSans-2212"/>
       <use x="83.789062" xlink:href="#DejaVuSans-33"/>
       <use x="147.412109" xlink:href="#DejaVuSans-30"/>
       <use x="211.035156" xlink:href="#DejaVuSans-30"/>
       <use x="274.658203" xlink:href="#DejaVuSans-30"/>
      </g>
     </g>
    </g>
    <g id="text_11">
     <!-- Cumulative Reward -->
     <g transform="translate(-10.855 252.52425)rotate(-90)scale(0.16 -0.16)">
      <defs>
       <path d="M 4122 4306 
L 4122 3641 
Q 3803 3938 3442 4084 
Q 3081 4231 2675 4231 
Q 1875 4231 1450 3742 
Q 1025 3253 1025 2328 
Q 1025 1406 1450 917 
Q 1875 428 2675 428 
Q 3081 428 3442 575 
Q 3803 722 4122 1019 
L 4122 359 
Q 3791 134 3420 21 
Q 3050 -91 2638 -91 
Q 1578 -91 968 557 
Q 359 1206 359 2328 
Q 359 3453 968 4101 
Q 1578 4750 2638 4750 
Q 3056 4750 3426 4639 
Q 3797 4528 4122 4306 
z
" id="DejaVuSans-43" transform="scale(0.015625)"/>
       <path d="M 544 1381 
L 544 3500 
L 1119 3500 
L 1119 1403 
Q 1119 906 1312 657 
Q 1506 409 1894 409 
Q 2359 409 2629 706 
Q 2900 1003 2900 1516 
L 2900 3500 
L 3475 3500 
L 3475 0 
L 2900 0 
L 2900 538 
Q 2691 219 2414 64 
Q 2138 -91 1772 -91 
Q 1169 -91 856 284 
Q 544 659 544 1381 
z
M 1991 3584 
L 1991 3584 
z
" id="DejaVuSans-75" transform="scale(0.015625)"/>
       <path d="M 3328 2828 
Q 3544 3216 3844 3400 
Q 4144 3584 4550 3584 
Q 5097 3584 5394 3201 
Q 5691 2819 5691 2113 
L 5691 0 
L 5113 0 
L 5113 2094 
Q 5113 2597 4934 2840 
Q 4756 3084 4391 3084 
Q 3944 3084 3684 2787 
Q 3425 2491 3425 1978 
L 3425 0 
L 2847 0 
L 2847 2094 
Q 2847 2600 2669 2842 
Q 2491 3084 2119 3084 
Q 1678 3084 1418 2786 
Q 1159 2488 1159 1978 
L 1159 0 
L 581 0 
L 581 3500 
L 1159 3500 
L 1159 2956 
Q 1356 3278 1631 3431 
Q 1906 3584 2284 3584 
Q 2666 3584 2933 3390 
Q 3200 3197 3328 2828 
z
" id="DejaVuSans-6d" transform="scale(0.015625)"/>
       <path d="M 603 4863 
L 1178 4863 
L 1178 0 
L 603 0 
L 603 4863 
z
" id="DejaVuSans-6c" transform="scale(0.015625)"/>
       <path d="M 2194 1759 
Q 1497 1759 1228 1600 
Q 959 1441 959 1056 
Q 959 750 1161 570 
Q 1363 391 1709 391 
Q 2188 391 2477 730 
Q 2766 1069 2766 1631 
L 2766 1759 
L 2194 1759 
z
M 3341 1997 
L 3341 0 
L 2766 0 
L 2766 531 
Q 2569 213 2275 61 
Q 1981 -91 1556 -91 
Q 1019 -91 701 211 
Q 384 513 384 1019 
Q 384 1609 779 1909 
Q 1175 2209 1959 2209 
L 2766 2209 
L 2766 2266 
Q 2766 2663 2505 2880 
Q 2244 3097 1772 3097 
Q 1472 3097 1187 3025 
Q 903 2953 641 2809 
L 641 3341 
Q 956 3463 1253 3523 
Q 1550 3584 1831 3584 
Q 2591 3584 2966 3190 
Q 3341 2797 3341 1997 
z
" id="DejaVuSans-61" transform="scale(0.015625)"/>
       <path d="M 1172 4494 
L 1172 3500 
L 2356 3500 
L 2356 3053 
L 1172 3053 
L 1172 1153 
Q 1172 725 1289 603 
Q 1406 481 1766 481 
L 2356 481 
L 2356 0 
L 1766 0 
Q 1100 0 847 248 
Q 594 497 594 1153 
L 594 3053 
L 172 3053 
L 172 3500 
L 594 3500 
L 594 4494 
L 1172 4494 
z
" id="DejaVuSans-74" transform="scale(0.015625)"/>
       <path d="M 191 3500 
L 800 3500 
L 1894 563 
L 2988 3500 
L 3597 3500 
L 2284 0 
L 1503 0 
L 191 3500 
z
" id="DejaVuSans-76" transform="scale(0.015625)"/>
       <path id="DejaVuSans-20" transform="scale(0.015625)"/>
       <path d="M 2841 2188 
Q 3044 2119 3236 1894 
Q 3428 1669 3622 1275 
L 4263 0 
L 3584 0 
L 2988 1197 
Q 2756 1666 2539 1819 
Q 2322 1972 1947 1972 
L 1259 1972 
L 1259 0 
L 628 0 
L 628 4666 
L 2053 4666 
Q 2853 4666 3247 4331 
Q 3641 3997 3641 3322 
Q 3641 2881 3436 2590 
Q 3231 2300 2841 2188 
z
M 1259 4147 
L 1259 2491 
L 2053 2491 
Q 2509 2491 2742 2702 
Q 2975 2913 2975 3322 
Q 2975 3731 2742 3939 
Q 2509 4147 2053 4147 
L 1259 4147 
z
" id="DejaVuSans-52" transform="scale(0.015625)"/>
       <path d="M 269 3500 
L 844 3500 
L 1563 769 
L 2278 3500 
L 2956 3500 
L 3675 769 
L 4391 3500 
L 4966 3500 
L 4050 0 
L 3372 0 
L 2619 2869 
L 1863 0 
L 1184 0 
L 269 3500 
z
" id="DejaVuSans-77" transform="scale(0.015625)"/>
       <path d="M 2631 2963 
Q 2534 3019 2420 3045 
Q 2306 3072 2169 3072 
Q 1681 3072 1420 2755 
Q 1159 2438 1159 1844 
L 1159 0 
L 581 0 
L 581 3500 
L 1159 3500 
L 1159 2956 
Q 1341 3275 1631 3429 
Q 1922 3584 2338 3584 
Q 2397 3584 2469 3576 
Q 2541 3569 2628 3553 
L 2631 2963 
z
" id="DejaVuSans-72" transform="scale(0.015625)"/>
      </defs>
      <use xlink:href="#DejaVuSans-43"/>
      <use x="69.824219" xlink:href="#DejaVuSans-75"/>
      <use x="133.203125" xlink:href="#DejaVuSans-6d"/>
      <use x="230.615234" xlink:href="#DejaVuSans-75"/>
      <use x="293.994141" xlink:href="#DejaVuSans-6c"/>
      <use x="321.777344" xlink:href="#DejaVuSans-61"/>
      <use x="383.056641" xlink:href="#DejaVuSans-74"/>
      <use x="422.265625" xlink:href="#DejaVuSans-69"/>
      <use x="450.048828" xlink:href="#DejaVuSans-76"/>
      <use x="509.228516" xlink:href="#DejaVuSans-65"/>
      <use x="570.751953" xlink:href="#DejaVuSans-20"/>
      <use x="602.539062" xlink:href="#DejaVuSans-52"/>
      <use x="667.521484" xlink:href="#DejaVuSans-65"/>
      <use x="729.044922" xlink:href="#DejaVuSans-77"/>
      <use x="810.832031" xlink:href="#DejaVuSans-61"/>
      <use x="872.111328" xlink:href="#DejaVuSans-72"/>
      <use x="911.474609" xlink:href="#DejaVuSans-64"/>
     </g>
    </g>
   </g>
   <g id="line2d_19">
    <path clip-path="url(#pc9fc8ef79e)" d="M 57.6 95.82537 
L 57.68928 92.996493 
L 57.86784 138.266537 
L 58.0464 92.996493 
L 58.22496 138.266537 
L 58.40352 92.996493 
L 58.58208 138.266537 
L 58.76064 92.996493 
L 58.9392 138.266537 
L 59.11776 92.996493 
L 59.29632 138.266537 
L 59.47488 92.996493 
L 59.65344 138.266537 
L 59.832 92.996493 
L 60.01056 138.266537 
L 60.18912 92.996493 
L 60.36768 138.266537 
L 60.54624 92.996493 
L 60.7248 138.266537 
L 60.90336 92.996493 
L 61.08192 138.266537 
L 61.26048 92.996493 
L 61.43904 138.266537 
L 61.6176 92.996493 
L 61.79616 138.266537 
L 61.97472 92.996493 
L 62.15328 138.266537 
L 62.33184 92.996493 
L 62.5104 138.266537 
L 62.68896 92.996493 
L 62.86752 138.266537 
L 63.04608 92.996493 
L 63.22464 138.266537 
L 63.4032 92.996493 
L 63.58176 138.266537 
L 63.76032 92.996493 
L 63.93888 138.266537 
L 64.11744 92.996493 
L 64.296 138.266537 
L 64.47456 92.996493 
L 64.65312 138.266537 
L 64.83168 92.996493 
L 65.01024 138.266537 
L 65.1888 92.996493 
L 65.36736 138.266537 
L 65.54592 92.996493 
L 65.72448 138.266537 
L 65.90304 92.996493 
L 66.0816 138.266537 
L 66.26016 92.996493 
L 66.43872 138.266537 
L 66.528 119.479393 
L 66.61728 135.473993 
L 66.70656 124.158826 
L 66.79584 157.979284 
L 66.88512 135.206081 
L 66.9744 159.358456 
L 67.15296 116.249135 
L 67.24224 134.035067 
L 67.33152 111.496506 
L 67.4208 159.443996 
L 67.68864 84.620835 
L 67.77792 197.861161 
L 67.8672 149.222798 
L 67.95648 192.698786 
L 68.04576 104.701242 
L 68.22432 213.741205 
L 68.3136 122.918684 
L 68.40288 136.481106 
L 68.49216 164.855603 
L 68.58144 141.794442 
L 68.76 228.660955 
L 68.93856 125.136599 
L 69.29568 201.992287 
L 69.6528 142.49267 
L 69.74208 174.274191 
L 69.83136 117.457616 
L 69.92064 160.054214 
L 70.0992 141.414442 
L 70.27776 243.984976 
L 70.36704 103.67002 
L 70.5456 160.866014 
L 70.63488 103.796018 
L 70.72416 217.91988 
L 70.81344 143.361559 
L 70.90272 194.354716 
L 70.992 104.67598 
L 71.08128 108.226862 
L 71.17056 165.10692 
L 71.34912 122.218878 
L 71.4384 169.845932 
L 71.61696 93.430063 
L 71.70624 118.474249 
L 71.79552 117.503834 
L 71.8848 204.217251 
L 72.06336 93.091651 
L 72.15264 93.008119 
L 72.24192 130.797656 
L 72.3312 117.736141 
L 72.42048 146.013635 
L 72.50976 136.009968 
L 72.59904 152.580183 
L 72.68832 285.408 
L 72.86688 137.597266 
L 72.95616 204.016364 
L 73.13472 123.570114 
L 73.224 150.261366 
L 73.40256 118.33301 
L 73.49184 173.603981 
L 73.58112 164.330289 
L 73.6704 116.413099 
L 73.75968 122.070341 
L 73.84896 125.649017 
L 74.1168 189.985015 
L 74.20608 107.588383 
L 74.38464 164.823605 
L 74.47392 162.714356 
L 74.5632 117.97565 
L 74.65248 153.536813 
L 74.74176 122.99907 
L 74.92032 161.110265 
L 75.18816 93.052523 
L 75.456 222.627746 
L 75.54528 113.075985 
L 75.63456 190.016178 
L 75.72384 135.020034 
L 75.81312 143.096546 
L 75.9024 247.924611 
L 75.99168 130.475711 
L 76.08096 132.771505 
L 76.25952 140.50938 
L 76.3488 128.492277 
L 76.43808 96.300493 
L 76.52736 139.650359 
L 76.61664 119.063726 
L 76.7952 190.651542 
L 76.88448 101.686776 
L 76.97376 117.764243 
L 77.06304 151.732137 
L 77.15232 107.19325 
L 77.2416 207.021916 
L 77.33088 196.736753 
L 77.50944 114.369147 
L 77.59872 177.518568 
L 77.688 126.012918 
L 77.77728 152.519374 
L 77.86656 138.814681 
L 77.95584 154.464423 
L 78.04512 146.214594 
L 78.22368 162.725972 
L 78.31296 160.666342 
L 78.40224 130.908172 
L 78.5808 170.233208 
L 78.75936 119.126581 
L 78.84864 197.886252 
L 78.93792 104.46737 
L 79.0272 124.070224 
L 79.11648 139.945789 
L 79.20576 209.932843 
L 79.38432 106.048798 
L 79.56288 191.467603 
L 79.65216 125.653895 
L 79.74144 188.997967 
L 79.83072 103.28853 
L 79.92 200.688893 
L 80.00928 128.655866 
L 80.09856 178.445164 
L 80.18784 171.256481 
L 80.27712 135.595653 
L 80.3664 157.188858 
L 80.45568 150.427824 
L 80.54496 177.859571 
L 80.72352 99.6277 
L 80.8128 132.191919 
L 80.90208 100.330898 
L 80.99136 202.883028 
L 81.08064 129.701389 
L 81.16992 144.819176 
L 81.2592 228.675866 
L 81.34848 153.606976 
L 81.43776 174.000274 
L 81.52704 95.752706 
L 81.7056 163.522587 
L 81.79488 145.754168 
L 81.88416 162.274913 
L 81.97344 122.410845 
L 82.06272 158.552455 
L 82.152 95.670231 
L 82.33056 167.034144 
L 82.50912 148.695392 
L 82.5984 153.928218 
L 82.68768 194.986684 
L 82.77696 122.242114 
L 82.86624 154.170869 
L 82.95552 91.085647 
L 83.13408 162.691949 
L 83.22336 155.513394 
L 83.31264 134.641266 
L 83.4912 172.97074 
L 83.66976 136.113479 
L 83.84832 162.659933 
L 83.9376 172.586808 
L 84.02688 137.394535 
L 84.11616 152.061902 
L 84.20544 195.128313 
L 84.384 82.192614 
L 84.56256 182.684846 
L 84.65184 155.854369 
L 84.74112 202.222657 
L 84.91968 136.181357 
L 85.00896 155.601279 
L 85.09824 103.688043 
L 85.18752 115.887121 
L 85.2768 155.812046 
L 85.36608 123.328602 
L 85.54464 155.265304 
L 85.63392 142.895104 
L 85.7232 188.216416 
L 85.81248 106.42875 
L 85.90176 194.889566 
L 85.99104 116.15068 
L 86.1696 163.807221 
L 86.25888 120.096458 
L 86.34816 205.593256 
L 86.52672 104.49402 
L 86.79456 153.419405 
L 86.88384 130.145124 
L 87.0624 207.216286 
L 87.24096 143.382204 
L 87.33024 153.113994 
L 87.5088 105.709919 
L 87.59808 148.749718 
L 87.68736 98.301421 
L 87.77664 164.733921 
L 87.86592 137.267377 
L 87.9552 207.099689 
L 88.04448 105.210645 
L 88.13376 148.085905 
L 88.22304 142.416135 
L 88.31232 166.222637 
L 88.4016 113.255811 
L 88.58016 173.942514 
L 88.66944 166.252146 
L 88.75872 91.259274 
L 88.93728 213.716012 
L 89.02656 181.040648 
L 89.11584 211.129936 
L 89.2944 102.603859 
L 89.38368 175.371421 
L 89.47296 170.034541 
L 89.56224 163.794641 
L 89.65152 148.856152 
L 89.91936 222.732863 
L 90.1872 150.074507 
L 90.27648 156.38991 
L 90.36576 144.475096 
L 90.45504 100.504118 
L 90.54432 101.522661 
L 90.72288 198.680405 
L 90.81216 155.22573 
L 90.90144 193.514214 
L 90.99072 130.660043 
L 91.08 183.330966 
L 91.16928 131.157856 
L 91.25856 187.261781 
L 91.43712 116.448106 
L 91.5264 120.279231 
L 91.61568 177.678025 
L 91.70496 173.406402 
L 91.79424 186.832517 
L 91.88352 177.222665 
L 91.9728 111.164507 
L 92.06208 134.360904 
L 92.15136 213.093945 
L 92.24064 111.307655 
L 92.4192 178.941232 
L 92.59776 189.325424 
L 92.68704 182.648502 
L 92.77632 135.730791 
L 92.8656 174.194368 
L 92.95488 102.887747 
L 93.13344 151.510941 
L 93.22272 122.558743 
L 93.312 231.713724 
L 93.57984 138.381329 
L 93.66912 134.448407 
L 93.7584 167.163165 
L 93.84768 145.538172 
L 93.93696 175.089199 
L 94.2048 120.652311 
L 94.29408 166.508548 
L 94.38336 122.691618 
L 94.47264 214.455413 
L 94.6512 89.880346 
L 94.82976 171.944374 
L 94.91904 154.905954 
L 95.00832 154.527025 
L 95.18688 133.982921 
L 95.27616 153.203523 
L 95.36544 232.244632 
L 95.544 140.254573 
L 95.63328 119.106588 
L 95.72256 167.122975 
L 95.81184 116.374228 
L 95.90112 247.778238 
L 95.9904 144.966394 
L 96.07968 163.563766 
L 96.25824 131.166648 
L 96.34752 133.752814 
L 96.4368 154.754557 
L 96.52608 152.918167 
L 96.61536 144.659902 
L 96.70464 202.629248 
L 96.79392 135.944434 
L 96.8832 160.927041 
L 96.97248 159.028563 
L 97.06176 128.099901 
L 97.15104 202.238682 
L 97.3296 156.969316 
L 97.41888 112.30318 
L 97.59744 151.190809 
L 97.776 163.185557 
L 98.04384 124.917437 
L 98.13312 160.123095 
L 98.2224 151.308087 
L 98.31168 89.291219 
L 98.40096 127.016204 
L 98.49024 112.253226 
L 98.57952 190.923884 
L 98.6688 133.570635 
L 98.75808 185.509477 
L 98.84736 105.321582 
L 98.93664 195.402576 
L 99.02592 163.278169 
L 99.20448 192.644226 
L 99.29376 141.123181 
L 99.38304 152.261429 
L 99.5616 97.344057 
L 99.65088 217.384049 
L 99.74016 134.939359 
L 99.82944 160.151466 
L 99.91872 103.182567 
L 100.008 147.216149 
L 100.09728 124.342157 
L 100.36512 181.027557 
L 100.63296 123.373862 
L 100.9008 171.025779 
L 100.99008 142.852525 
L 101.07936 164.649 
L 101.16864 127.284845 
L 101.25792 161.907756 
L 101.61504 95.058919 
L 101.7936 141.480259 
L 101.88288 108.348182 
L 101.97216 176.989658 
L 102.06144 121.119733 
L 102.15072 251.777014 
L 102.41856 99.073484 
L 102.50784 148.601993 
L 102.59712 92.93385 
L 102.6864 177.174175 
L 102.77568 157.725787 
L 102.86496 136.231458 
L 102.95424 168.067073 
L 103.04352 111.708205 
L 103.1328 150.584388 
L 103.22208 134.59227 
L 103.31136 98.087109 
L 103.48992 215.339443 
L 103.66848 116.852142 
L 103.75776 99.80713 
L 103.84704 149.997324 
L 103.93632 105.222354 
L 104.11488 127.873908 
L 104.20416 112.531005 
L 104.29344 178.603561 
L 104.472 122.43181 
L 104.56128 182.751856 
L 104.65056 111.770423 
L 104.73984 138.19641 
L 104.82912 108.007778 
L 104.9184 113.402474 
L 105.00768 101.558973 
L 105.18624 164.221105 
L 105.27552 254.808657 
L 105.45408 107.720116 
L 105.63264 168.171317 
L 105.72192 162.716945 
L 105.8112 167.279268 
L 105.90048 192.616762 
L 106.16832 99.814152 
L 106.2576 151.387061 
L 106.34688 110.461652 
L 106.43616 138.078976 
L 106.52544 102.316658 
L 106.61472 103.334293 
L 106.704 157.458912 
L 106.79328 153.21274 
L 106.88256 134.620387 
L 106.97184 164.080259 
L 107.23968 115.644416 
L 107.50752 178.10733 
L 107.5968 163.293932 
L 107.68608 106.6766 
L 107.77536 189.563768 
L 107.86464 129.375315 
L 107.95392 166.379323 
L 108.13248 119.216055 
L 108.31104 186.564525 
L 108.40032 164.206412 
L 108.4896 113.317568 
L 108.66816 182.001276 
L 108.75744 111.001604 
L 109.02528 163.521008 
L 109.11456 176.530336 
L 109.20384 138.873963 
L 109.29312 174.731695 
L 109.3824 155.769376 
L 109.47168 164.885869 
L 109.56096 115.874841 
L 109.73952 179.979955 
L 109.8288 92.912154 
L 109.91808 113.422141 
L 110.09664 185.037384 
L 110.2752 92.339823 
L 110.36448 185.298197 
L 110.45376 174.180563 
L 110.63232 130.936507 
L 110.7216 157.739975 
L 110.81088 131.838579 
L 110.98944 152.252262 
L 111.07872 228.475183 
L 111.168 118.258539 
L 111.25728 145.144126 
L 111.34656 165.74323 
L 111.43584 126.708345 
L 111.6144 162.501317 
L 111.79296 130.449661 
L 111.97152 192.321491 
L 112.0608 113.973002 
L 112.15008 131.426819 
L 112.23936 123.350899 
L 112.32864 202.258962 
L 112.5072 149.567877 
L 112.59648 145.508227 
L 112.68576 127.843238 
L 112.77504 132.244 
L 112.86432 126.138503 
L 113.04288 197.986026 
L 113.13216 176.051247 
L 113.22144 95.119376 
L 113.31072 128.857894 
L 113.48928 104.844016 
L 113.57856 166.988822 
L 113.75712 133.465471 
L 113.8464 136.149551 
L 113.93568 176.198822 
L 114.11424 111.189563 
L 114.20352 157.717094 
L 114.2928 156.111467 
L 114.38208 121.185258 
L 114.47136 188.238746 
L 114.64992 119.221305 
L 114.82848 176.818562 
L 114.91776 105.951982 
L 115.00704 175.503433 
L 115.1856 104.953012 
L 115.36416 141.61782 
L 115.45344 192.188921 
L 115.72128 132.225453 
L 115.81056 131.825709 
L 115.98912 153.843987 
L 116.0784 143.370608 
L 116.25696 150.656399 
L 116.34624 109.3968 
L 116.43552 223.481994 
L 116.5248 114.525151 
L 116.61408 222.175244 
L 116.70336 111.043406 
L 116.88192 217.032192 
L 116.9712 161.506143 
L 117.06048 207.543577 
L 117.14976 141.193835 
L 117.23904 149.190897 
L 117.32832 174.252074 
L 117.4176 123.488839 
L 117.50688 157.260888 
L 117.59616 94.136588 
L 117.77472 166.528351 
L 117.95328 126.588094 
L 118.04256 131.406951 
L 118.13184 112.927473 
L 118.22112 159.054127 
L 118.39968 115.908483 
L 118.48896 133.804341 
L 118.66752 86.546906 
L 118.84608 132.618009 
L 118.93536 123.647943 
L 119.02464 196.72227 
L 119.2032 124.212818 
L 119.29248 170.662759 
L 119.38176 119.218545 
L 119.47104 127.787389 
L 119.56032 129.900097 
L 119.73888 113.402939 
L 119.82816 113.618706 
L 119.91744 118.175375 
L 120.00672 107.481353 
L 120.27456 161.182387 
L 120.36384 157.5665 
L 120.5424 118.244554 
L 120.63168 133.257479 
L 120.72096 170.577167 
L 120.81024 134.190272 
L 120.89952 182.471779 
L 120.9888 149.713758 
L 121.07808 186.691042 
L 121.25664 107.057968 
L 121.34592 183.236788 
L 121.4352 165.536797 
L 121.52448 170.473333 
L 121.61376 167.027974 
L 121.70304 139.801231 
L 121.79232 169.411406 
L 121.97088 119.038418 
L 122.06016 168.739379 
L 122.14944 126.898829 
L 122.328 214.639977 
L 122.50656 111.847706 
L 122.68512 153.046952 
L 122.86368 127.484285 
L 122.95296 159.188637 
L 123.04224 131.636735 
L 123.13152 141.253067 
L 123.2208 105.328421 
L 123.39936 189.462794 
L 123.48864 141.569487 
L 123.57792 153.360488 
L 123.6672 108.259394 
L 123.75648 109.056785 
L 123.84576 114.759944 
L 123.93504 184.231564 
L 124.20288 98.572806 
L 124.29216 148.057159 
L 124.47072 111.710739 
L 124.56 145.46845 
L 124.64928 102.023691 
L 124.91712 199.935992 
L 125.0064 127.710836 
L 125.09568 147.544084 
L 125.18496 132.050583 
L 125.27424 156.140455 
L 125.36352 131.025373 
L 125.4528 172.069455 
L 125.54208 118.063716 
L 125.63136 127.705808 
L 125.72064 164.578837 
L 125.80992 148.293368 
L 125.8992 165.104312 
L 125.98848 115.345437 
L 126.25632 185.080264 
L 126.3456 132.298905 
L 126.43488 208.241013 
L 126.52416 99.681451 
L 126.61344 194.197724 
L 126.88128 127.820905 
L 126.97056 127.567093 
L 127.05984 203.888934 
L 127.14912 119.353664 
L 127.32768 198.137631 
L 127.50624 97.859402 
L 127.59552 94.669501 
L 127.6848 150.515121 
L 127.77408 116.677507 
L 127.86336 144.76853 
L 128.04192 109.085368 
L 128.22048 231.37422 
L 128.30976 135.920807 
L 128.39904 193.353099 
L 128.48832 94.939681 
L 128.5776 225.882524 
L 128.93472 94.403589 
L 129.29184 160.889074 
L 129.38112 118.815732 
L 129.55968 201.218636 
L 129.64896 105.377927 
L 129.73824 124.330149 
L 129.82752 145.18184 
L 129.9168 129.653078 
L 130.00608 137.841607 
L 130.09536 126.098943 
L 130.18464 168.476953 
L 130.3632 111.109893 
L 130.54176 201.647165 
L 130.63104 116.543439 
L 130.89888 188.00767 
L 130.98816 108.824674 
L 131.256 161.230299 
L 131.34528 161.383656 
L 131.43456 151.36935 
L 131.52384 165.930016 
L 131.7024 110.210979 
L 131.79168 180.145911 
L 131.88096 171.076841 
L 131.97024 98.774139 
L 132.05952 113.772199 
L 132.1488 170.592835 
L 132.23808 159.8969 
L 132.41664 129.448058 
L 132.50592 121.264679 
L 132.5952 170.246948 
L 132.68448 158.469517 
L 132.77376 158.374271 
L 132.95232 107.773135 
L 133.0416 93.35022 
L 133.13088 112.875557 
L 133.22016 179.749106 
L 133.30944 106.350232 
L 133.39872 119.631116 
L 133.488 144.269583 
L 133.57728 102.771549 
L 133.66656 134.235855 
L 133.75584 130.016022 
L 133.84512 126.342447 
L 134.02368 172.51659 
L 134.11296 106.140784 
L 134.20224 108.401834 
L 134.29152 110.226799 
L 134.3808 122.127689 
L 134.47008 119.491187 
L 134.55936 95.993263 
L 134.73792 146.570686 
L 134.8272 146.843875 
L 135.00576 133.774286 
L 135.09504 175.72793 
L 135.18432 164.845506 
L 135.36288 93.787912 
L 135.45216 118.397946 
L 135.54144 93.57565 
L 135.63072 150.825439 
L 135.72 139.839966 
L 135.80928 106.032394 
L 135.98784 164.51175 
L 136.1664 99.323533 
L 136.34496 165.469415 
L 136.52352 124.924965 
L 136.6128 194.106293 
L 136.70208 175.803029 
L 136.79136 105.514579 
L 136.88064 122.246648 
L 137.0592 182.03609 
L 137.14848 93.640703 
L 137.23776 101.436653 
L 137.41632 140.42877 
L 137.5056 112.096355 
L 137.59488 168.919618 
L 137.68416 130.665226 
L 137.86272 190.511848 
L 138.04128 124.723886 
L 138.13056 166.683853 
L 138.30912 102.585049 
L 138.57696 179.923379 
L 138.66624 166.336244 
L 138.75552 223.784293 
L 138.8448 149.128482 
L 138.93408 190.30477 
L 139.02336 103.973852 
L 139.11264 139.935723 
L 139.20192 126.845585 
L 139.2912 185.082293 
L 139.46976 90.159219 
L 139.55904 91.839017 
L 139.64832 140.585458 
L 139.7376 127.207293 
L 139.82688 172.511723 
L 139.91616 129.6499 
L 140.00544 193.417975 
L 140.184 110.484839 
L 140.27328 171.833347 
L 140.45184 123.318961 
L 140.71968 192.81868 
L 140.89824 150.15214 
L 140.98752 189.842586 
L 141.0768 87.818575 
L 141.16608 155.529853 
L 141.25536 151.794622 
L 141.34464 194.697252 
L 141.43392 181.161488 
L 141.5232 86.850103 
L 141.70176 204.232675 
L 141.79104 129.535242 
L 141.88032 208.207639 
L 142.14816 100.885376 
L 142.32672 143.5958 
L 142.50528 122.468559 
L 142.59456 147.197335 
L 142.68384 132.236157 
L 142.77312 209.774846 
L 143.04096 98.866969 
L 143.13024 135.744643 
L 143.21952 104.318998 
L 143.3088 148.112139 
L 143.39808 110.678284 
L 143.48736 122.933361 
L 143.57664 106.102855 
L 143.66592 225.429463 
L 143.7552 163.488996 
L 143.84448 196.406714 
L 144.02304 93.905324 
L 144.11232 154.32321 
L 144.2016 152.835057 
L 144.29088 127.083818 
L 144.38016 136.126714 
L 144.46944 159.434106 
L 144.648 124.928096 
L 144.73728 179.117998 
L 144.91584 114.75251 
L 145.00512 115.124204 
L 145.0944 109.661201 
L 145.18368 138.777761 
L 145.27296 130.351321 
L 145.36224 182.362806 
L 145.45152 123.743009 
L 145.5408 135.210583 
L 145.63008 138.424481 
L 145.71936 219.673836 
L 145.80864 118.919498 
L 145.89792 151.014489 
L 145.9872 112.758285 
L 146.07648 120.922756 
L 146.16576 183.541182 
L 146.34432 111.757683 
L 146.4336 170.079383 
L 146.52288 165.701056 
L 146.70144 112.040427 
L 146.79072 176.301444 
L 146.88 163.688366 
L 146.96928 110.717764 
L 147.05856 168.031751 
L 147.14784 99.231778 
L 147.3264 186.749453 
L 147.41568 174.542535 
L 147.50496 121.805216 
L 147.59424 124.763559 
L 147.7728 184.110714 
L 147.86208 143.421716 
L 147.95136 147.577572 
L 148.04064 196.502811 
L 148.12992 135.906683 
L 148.2192 138.214608 
L 148.30848 199.826153 
L 148.39776 150.318822 
L 148.48704 212.048328 
L 148.6656 123.693809 
L 148.75488 161.798307 
L 148.93344 109.93362 
L 149.02272 98.559519 
L 149.112 142.436659 
L 149.20128 135.017538 
L 149.37984 157.630648 
L 149.5584 97.827942 
L 149.64768 134.330824 
L 149.73696 129.754939 
L 149.91552 99.681932 
L 150.09408 161.003311 
L 150.18336 104.268228 
L 150.27264 165.011312 
L 150.36192 115.407035 
L 150.4512 134.978287 
L 150.54048 129.729505 
L 150.62976 145.244143 
L 150.71904 138.252221 
L 150.80832 144.038623 
L 150.8976 197.483286 
L 151.16544 83.051255 
L 151.344 101.727487 
L 151.52256 133.209593 
L 151.61184 128.362583 
L 151.70112 96.90882 
L 151.87968 147.248229 
L 151.96896 107.900842 
L 152.14752 158.223738 
L 152.2368 108.691695 
L 152.50464 194.86251 
L 152.6832 152.692498 
L 152.77248 170.108962 
L 152.95104 90.58353 
L 153.04032 121.576073 
L 153.1296 226.834821 
L 153.30816 87.982313 
L 153.39744 111.375158 
L 153.48672 109.61061 
L 153.576 111.352267 
L 153.66528 174.643494 
L 153.75456 147.438078 
L 153.84384 174.638693 
L 153.93312 110.220043 
L 154.11168 146.713854 
L 154.20096 160.354618 
L 154.29024 110.76742 
L 154.37952 174.448574 
L 154.55808 127.037175 
L 154.64736 150.233015 
L 154.82592 103.565145 
L 154.9152 170.410657 
L 155.00448 152.502745 
L 155.18304 212.918049 
L 155.3616 114.982896 
L 155.45088 167.812987 
L 155.54016 156.820442 
L 155.62944 196.421792 
L 155.808 116.999368 
L 155.89728 120.49263 
L 155.98656 138.17218 
L 156.07584 222.990386 
L 156.16512 132.651961 
L 156.2544 186.77675 
L 156.52224 97.568941 
L 156.61152 149.448185 
L 156.7008 148.0899 
L 156.79008 171.468946 
L 156.96864 133.11796 
L 157.1472 148.80903 
L 157.23648 125.902411 
L 157.32576 168.508938 
L 157.41504 163.50864 
L 157.50432 130.718463 
L 157.5936 137.756973 
L 157.77216 178.685838 
L 157.95072 103.167987 
L 158.04 154.600953 
L 158.12928 141.813946 
L 158.21856 151.44967 
L 158.4864 93.047901 
L 158.66496 157.652224 
L 158.75424 106.171032 
L 159.02208 167.995245 
L 159.11136 113.451301 
L 159.28992 200.734842 
L 159.46848 118.785207 
L 159.64704 173.127325 
L 159.8256 114.152464 
L 159.91488 128.282407 
L 160.00416 108.082412 
L 160.09344 163.645582 
L 160.18272 153.254965 
L 160.36128 205.241733 
L 160.45056 109.317678 
L 160.53984 161.654131 
L 160.62912 152.397085 
L 160.7184 141.886852 
L 160.89696 153.312388 
L 160.98624 184.34398 
L 161.07552 124.36749 
L 161.1648 253.026741 
L 161.34336 157.451117 
L 161.52192 118.410839 
L 161.6112 160.851257 
L 161.78976 107.096253 
L 161.87904 157.095663 
L 161.96832 156.676956 
L 162.14688 111.720938 
L 162.23616 173.412631 
L 162.32544 164.572275 
L 162.41472 140.167173 
L 162.504 169.56748 
L 162.68256 110.114543 
L 162.77184 112.577765 
L 162.86112 168.117271 
L 162.9504 114.463056 
L 163.12896 157.168616 
L 163.21824 111.349901 
L 163.30752 161.233929 
L 163.3968 149.126816 
L 163.48608 149.23739 
L 163.57536 169.037411 
L 163.75392 140.25636 
L 163.8432 140.461822 
L 163.93248 164.106435 
L 164.02176 156.238284 
L 164.11104 192.812542 
L 164.20032 172.655704 
L 164.37888 86.454221 
L 164.46816 190.668279 
L 164.55744 111.167273 
L 164.736 144.193919 
L 164.82528 118.874464 
L 164.91456 132.386339 
L 165.00384 126.209492 
L 165.1824 142.825006 
L 165.27168 137.434583 
L 165.36096 108.223834 
L 165.45024 114.716567 
L 165.53952 136.725135 
L 165.6288 130.975274 
L 165.71808 147.287425 
L 165.80736 194.55347 
L 165.89664 133.464807 
L 165.98592 164.05405 
L 166.0752 144.656141 
L 166.16448 172.671606 
L 166.25376 116.094856 
L 166.34304 135.673547 
L 166.43232 114.450407 
L 166.5216 132.042534 
L 166.61088 215.09441 
L 166.87872 98.402373 
L 167.05728 142.925569 
L 167.14656 142.484786 
L 167.23584 165.444188 
L 167.32512 160.822514 
L 167.4144 96.539007 
L 167.59296 202.297857 
L 167.95008 110.36447 
L 168.03936 179.996888 
L 168.12864 133.624969 
L 168.21792 179.499976 
L 168.3072 117.294349 
L 168.39648 160.113012 
L 168.48576 155.646211 
L 168.57504 119.463333 
L 168.66432 130.157952 
L 168.7536 170.79558 
L 168.84288 127.109614 
L 168.93216 172.927676 
L 169.11072 102.183898 
L 169.2 180.883297 
L 169.37856 160.492531 
L 169.6464 123.236908 
L 169.73568 153.267279 
L 169.91424 132.853484 
L 170.00352 145.837214 
L 170.0928 145.428873 
L 170.18208 128.267647 
L 170.27136 177.349483 
L 170.36064 175.034486 
L 170.5392 129.860094 
L 170.62848 161.972247 
L 170.71776 105.808436 
L 170.89632 186.527787 
L 170.9856 92.270508 
L 171.07488 179.792012 
L 171.25344 93.130668 
L 171.34272 97.219438 
L 171.432 120.453012 
L 171.52128 175.767704 
L 171.61056 128.360092 
L 171.69984 136.870177 
L 171.78912 160.382055 
L 171.8784 142.723264 
L 171.96768 204.682738 
L 172.14624 108.791532 
L 172.3248 184.226744 
L 172.41408 97.823455 
L 172.50336 114.117513 
L 172.59264 104.516825 
L 172.7712 132.723949 
L 172.86048 85.267622 
L 172.94976 173.142719 
L 173.03904 106.695556 
L 173.12832 165.421118 
L 173.30688 113.693638 
L 173.39616 120.146558 
L 173.48544 100.115423 
L 173.57472 159.053055 
L 173.664 133.928835 
L 173.75328 164.789298 
L 173.84256 124.101789 
L 173.93184 127.927206 
L 174.02112 183.972663 
L 174.19968 129.939945 
L 174.37824 160.830436 
L 174.46752 114.134858 
L 174.5568 131.651326 
L 174.64608 172.014101 
L 174.82464 117.626838 
L 175.0032 238.733949 
L 175.09248 103.230995 
L 175.18176 132.655698 
L 175.27104 174.203688 
L 175.36032 110.903282 
L 175.53888 173.048172 
L 175.62816 115.630109 
L 175.71744 129.404059 
L 175.80672 179.528564 
L 175.98528 105.354353 
L 176.07456 128.431568 
L 176.16384 125.930025 
L 176.25312 167.508564 
L 176.3424 89.523046 
L 176.61024 138.387359 
L 176.69952 116.875773 
L 176.87808 150.882853 
L 176.96736 120.565907 
L 177.05664 188.918163 
L 177.14592 115.799189 
L 177.2352 159.384304 
L 177.32448 111.936049 
L 177.50304 137.058975 
L 177.59232 129.018188 
L 177.6816 131.319737 
L 177.77088 198.859109 
L 178.03872 118.766498 
L 178.128 167.528133 
L 178.21728 124.491957 
L 178.30656 177.512911 
L 178.39584 138.610733 
L 178.48512 198.254226 
L 178.5744 97.53106 
L 178.75296 167.874699 
L 178.84224 153.392993 
L 178.93152 96.074533 
L 179.0208 166.498689 
L 179.19936 124.485908 
L 179.28864 124.552187 
L 179.37792 114.296484 
L 179.55648 155.202906 
L 179.64576 137.912857 
L 179.73504 138.154973 
L 179.82432 158.02939 
L 179.9136 218.861964 
L 180.09216 118.558977 
L 180.18144 143.68612 
L 180.27072 133.059461 
L 180.36 143.403173 
L 180.44928 128.625327 
L 180.53856 150.901702 
L 180.62784 119.206288 
L 180.8064 138.201799 
L 180.89568 132.762055 
L 180.98496 172.241538 
L 181.16352 109.684678 
L 181.34208 120.891073 
L 181.43136 148.425668 
L 181.52064 117.699317 
L 181.60992 160.616373 
L 181.6992 111.710971 
L 181.78848 138.539887 
L 181.87776 86.080553 
L 181.96704 192.873865 
L 182.1456 119.892519 
L 182.23488 142.548719 
L 182.32416 114.961555 
L 182.50272 128.385434 
L 182.592 255.699443 
L 182.77056 98.603786 
L 182.94912 160.217234 
L 183.0384 140.438733 
L 183.21696 169.282389 
L 183.30624 224.113044 
L 183.39552 76.865222 
L 183.57408 144.268637 
L 183.66336 85.79973 
L 183.75264 153.006256 
L 183.84192 120.833993 
L 184.02048 154.642804 
L 184.10976 146.119081 
L 184.19904 200.718169 
L 184.3776 116.932699 
L 184.55616 142.781437 
L 184.73472 124.745834 
L 184.824 122.34916 
L 184.91328 127.141253 
L 185.09184 175.383645 
L 185.18112 159.479871 
L 185.2704 94.476213 
L 185.44896 142.099776 
L 185.53824 112.117283 
L 185.62752 164.171897 
L 185.80608 123.746524 
L 185.89536 208.469337 
L 185.98464 155.952045 
L 186.07392 215.548666 
L 186.34176 110.694742 
L 186.43104 138.157071 
L 186.52032 201.291362 
L 186.6096 111.819689 
L 186.69888 141.177803 
L 186.87744 114.869111 
L 186.96672 111.337796 
L 187.14528 178.992437 
L 187.23456 133.767341 
L 187.41312 160.647848 
L 187.5024 142.67834 
L 187.59168 169.535931 
L 187.68096 151.753282 
L 187.77024 190.452629 
L 187.85952 107.773814 
L 187.9488 169.925417 
L 188.03808 117.95063 
L 188.12736 146.118372 
L 188.21664 128.424452 
L 188.30592 146.308708 
L 188.3952 119.753803 
L 188.48448 168.842417 
L 188.66304 127.881828 
L 188.75232 145.1185 
L 188.93088 102.964168 
L 189.19872 152.470261 
L 189.288 150.735384 
L 189.55584 110.028594 
L 189.64512 127.468101 
L 189.7344 103.99356 
L 189.91296 134.581494 
L 190.00224 111.543597 
L 190.09152 162.536919 
L 190.1808 107.445395 
L 190.35936 210.574015 
L 190.53792 110.894094 
L 190.6272 219.536963 
L 190.89504 91.965262 
L 191.0736 157.079173 
L 191.16288 146.195353 
L 191.34144 162.596458 
L 191.43072 104.469572 
L 191.52 192.053038 
L 191.69856 120.173441 
L 191.78784 118.133737 
L 191.9664 155.793316 
L 192.05568 123.178144 
L 192.14496 168.985021 
L 192.32352 137.09027 
L 192.4128 135.470168 
L 192.50208 165.151589 
L 192.68064 89.16274 
L 192.76992 127.382045 
L 192.8592 105.184542 
L 192.94848 216.199005 
L 193.03776 190.623498 
L 193.21632 124.369737 
L 193.3056 178.016458 
L 193.48416 115.827587 
L 193.57344 168.693681 
L 193.66272 127.763841 
L 193.752 158.164189 
L 193.84128 154.068186 
L 193.93056 115.787436 
L 194.10912 155.63845 
L 194.1984 154.668879 
L 194.28768 92.259782 
L 194.37696 126.465848 
L 194.46624 255.597833 
L 194.55552 138.826386 
L 194.6448 159.498169 
L 194.73408 159.452305 
L 194.82336 114.239512 
L 195.00192 139.296294 
L 195.0912 151.613775 
L 195.18048 185.325908 
L 195.35904 101.827836 
L 195.5376 210.236198 
L 195.71616 97.661007 
L 195.80544 136.224791 
L 195.89472 102.905869 
L 195.984 153.840138 
L 196.16256 120.958083 
L 196.34112 155.712707 
L 196.51968 110.385357 
L 196.60896 135.94183 
L 196.78752 106.356911 
L 196.8768 119.816046 
L 196.96608 180.622737 
L 197.14464 141.209908 
L 197.23392 140.851196 
L 197.3232 127.236331 
L 197.50176 145.78892 
L 197.59104 125.668625 
L 197.68032 139.039993 
L 197.7696 131.843297 
L 197.85888 98.903571 
L 198.03744 128.421657 
L 198.12672 118.645591 
L 198.30528 129.25284 
L 198.39456 130.062113 
L 198.48384 152.648262 
L 198.57312 131.290103 
L 198.6624 163.463178 
L 198.75168 117.831993 
L 198.84096 184.847567 
L 198.93024 98.828095 
L 199.01952 107.915993 
L 199.1088 133.93451 
L 199.19808 106.941871 
L 199.28736 126.150819 
L 199.37664 111.190666 
L 199.46592 143.724648 
L 199.5552 122.298084 
L 199.64448 130.961521 
L 199.73376 178.547248 
L 199.91232 107.136946 
L 200.0016 136.080287 
L 200.09088 123.980846 
L 200.18016 129.260399 
L 200.26944 99.07973 
L 200.35872 187.738921 
L 200.448 182.968825 
L 200.62656 132.88805 
L 200.71584 139.608103 
L 200.80512 157.838747 
L 200.8944 150.678249 
L 200.98368 85.229798 
L 201.07296 142.213065 
L 201.16224 132.597005 
L 201.25152 165.569228 
L 201.3408 111.840303 
L 201.43008 170.492098 
L 201.51936 99.670359 
L 201.69792 171.22828 
L 201.7872 153.986315 
L 201.87648 167.64701 
L 201.96576 146.841093 
L 202.05504 187.261068 
L 202.14432 128.160449 
L 202.2336 132.198802 
L 202.32288 146.333784 
L 202.50144 112.741447 
L 202.59072 133.115066 
L 202.68 129.850888 
L 202.76928 147.746787 
L 202.85856 109.731323 
L 203.03712 162.995977 
L 203.1264 152.766247 
L 203.21568 184.864358 
L 203.30496 90.112727 
L 203.39424 107.481492 
L 203.48352 164.350989 
L 203.66208 122.324791 
L 203.75136 185.771834 
L 203.84064 114.21981 
L 203.92992 166.417859 
L 204.10848 117.695064 
L 204.19776 169.012817 
L 204.37632 94.913436 
L 204.55488 101.342968 
L 204.73344 173.789071 
L 204.82272 191.047814 
L 204.912 138.510498 
L 205.00128 217.064263 
L 205.09056 116.134687 
L 205.17984 116.352337 
L 205.26912 138.702979 
L 205.44768 112.18355 
L 205.53696 105.713144 
L 205.8048 180.121771 
L 205.89408 101.077894 
L 205.98336 128.782883 
L 206.07264 120.741807 
L 206.16192 147.028575 
L 206.2512 100.974769 
L 206.34048 148.303333 
L 206.51904 115.105321 
L 206.60832 165.747911 
L 206.6976 126.270845 
L 206.78688 150.360111 
L 206.87616 96.115397 
L 207.05472 225.197953 
L 207.23328 120.402045 
L 207.32256 133.638886 
L 207.41184 121.822174 
L 207.5904 133.933175 
L 207.67968 185.560934 
L 207.85824 113.271894 
L 207.94752 154.603622 
L 208.12608 108.093318 
L 208.21536 172.990367 
L 208.30464 111.693306 
L 208.4832 188.260192 
L 208.57248 125.062957 
L 208.66176 158.336537 
L 208.75104 155.340655 
L 208.84032 141.881224 
L 208.9296 107.740275 
L 209.01888 134.255676 
L 209.10816 129.764917 
L 209.19744 150.308234 
L 209.28672 134.778372 
L 209.376 197.450245 
L 209.55456 109.877572 
L 209.73312 118.43975 
L 209.8224 113.073352 
L 210.09024 140.380843 
L 210.17952 129.803803 
L 210.2688 168.049682 
L 210.35808 117.066262 
L 210.53664 156.358377 
L 210.62592 87.042635 
L 210.7152 161.956356 
L 210.80448 122.497516 
L 210.89376 123.970029 
L 210.98304 192.841649 
L 211.1616 92.679895 
L 211.25088 159.778955 
L 211.42944 95.796184 
L 211.51872 143.628593 
L 211.608 136.610409 
L 211.78656 123.056971 
L 211.87584 124.747809 
L 211.96512 186.86684 
L 212.0544 103.920372 
L 212.14368 142.419636 
L 212.23296 124.81986 
L 212.32224 157.834666 
L 212.41152 106.553038 
L 212.5008 122.407146 
L 212.59008 95.4394 
L 212.67936 106.269134 
L 212.76864 200.089318 
L 213.03648 105.714774 
L 213.21504 183.991237 
L 213.30432 177.46434 
L 213.3936 111.853668 
L 213.48288 163.53436 
L 213.57216 162.597723 
L 213.66144 133.645488 
L 213.75072 136.451647 
L 213.84 113.411899 
L 213.92928 210.365676 
L 214.10784 122.038794 
L 214.19712 142.194615 
L 214.2864 105.934782 
L 214.37568 115.103184 
L 214.46496 152.221945 
L 214.55424 105.830488 
L 214.7328 147.987332 
L 214.82208 165.647301 
L 215.00064 101.096111 
L 215.08992 142.922068 
L 215.35776 99.519438 
L 215.44704 192.045209 
L 215.53632 138.015777 
L 215.6256 144.426898 
L 215.80416 106.03653 
L 216.072 139.48179 
L 216.16128 150.630772 
L 216.25056 179.724936 
L 216.33984 121.245801 
L 216.42912 150.608861 
L 216.60768 121.763891 
L 216.78624 195.512653 
L 216.87552 86.611426 
L 216.9648 154.048326 
L 217.14336 81.700713 
L 217.23264 166.457728 
L 217.32192 164.268187 
L 217.4112 109.3672 
L 217.50048 168.002306 
L 217.58976 98.711611 
L 217.67904 143.06438 
L 217.76832 126.121873 
L 217.8576 201.8669 
L 218.03616 93.968934 
L 218.12544 206.701125 
L 218.21472 119.01973 
L 218.304 140.156608 
L 218.39328 129.107113 
L 218.48256 170.147543 
L 218.7504 93.96297 
L 218.83968 162.212098 
L 218.92896 121.647358 
L 219.01824 165.068178 
L 219.10752 129.808067 
L 219.28608 149.864281 
L 219.37536 110.405889 
L 219.46464 169.660001 
L 219.55392 146.356628 
L 219.6432 165.030542 
L 219.73248 85.854287 
L 219.82176 96.890849 
L 219.91104 147.380483 
L 220.00032 129.200042 
L 220.17888 201.730384 
L 220.35744 109.664339 
L 220.44672 121.368716 
L 220.536 114.147525 
L 220.71456 130.422969 
L 220.80384 113.282092 
L 220.89312 145.042058 
L 220.9824 76.271326 
L 221.16096 192.190732 
L 221.33952 119.928732 
L 221.4288 148.492528 
L 221.51808 137.848887 
L 221.60736 104.803889 
L 221.69664 108.639389 
L 221.78592 136.071651 
L 222.05376 104.778993 
L 222.14304 143.996246 
L 222.23232 108.469117 
L 222.50016 143.635637 
L 222.58944 107.250088 
L 222.67872 122.460314 
L 222.768 166.582822 
L 222.94656 119.257698 
L 223.03584 208.11057 
L 223.2144 89.695208 
L 223.30368 171.546922 
L 223.39296 103.894144 
L 223.48224 111.313836 
L 223.6608 135.466537 
L 223.75008 115.177897 
L 223.83936 169.399362 
L 223.92864 93.642883 
L 224.1072 146.552465 
L 224.19648 134.407483 
L 224.28576 92.146894 
L 224.37504 163.062234 
L 224.5536 126.604191 
L 224.64288 133.038516 
L 224.73216 125.932514 
L 224.82144 130.570371 
L 224.91072 120.030054 
L 225 166.182474 
L 225.08928 159.583339 
L 225.17856 100.242714 
L 225.26784 177.911462 
L 225.35712 173.144105 
L 225.53568 144.272338 
L 225.62496 139.496373 
L 225.71424 105.416185 
L 225.80352 118.43191 
L 225.98208 170.615732 
L 226.07136 125.818716 
L 226.16064 146.529749 
L 226.24992 144.017016 
L 226.3392 138.683626 
L 226.42848 117.457602 
L 226.51776 149.187915 
L 226.60704 148.208575 
L 226.7856 94.064356 
L 226.87488 164.796625 
L 226.96416 116.073303 
L 227.14272 168.666758 
L 227.232 106.614482 
L 227.49984 204.838379 
L 227.58912 123.407959 
L 227.76768 168.30923 
L 227.85696 103.683128 
L 227.94624 150.764641 
L 228.30336 80.423481 
L 228.5712 218.854144 
L 228.74976 140.761532 
L 228.83904 149.306492 
L 228.92832 182.303033 
L 229.10688 133.148066 
L 229.19616 132.888168 
L 229.28544 119.402167 
L 229.464 154.890799 
L 229.55328 92.715507 
L 229.64256 125.92008 
L 229.73184 259.646487 
L 229.9104 104.89705 
L 229.99968 90.52836 
L 230.17824 165.33224 
L 230.26752 133.51777 
L 230.3568 178.390385 
L 230.53536 103.644934 
L 230.71392 160.745623 
L 230.8032 126.606682 
L 230.89248 167.789475 
L 230.98176 131.246054 
L 231.07104 137.016112 
L 231.16032 155.402952 
L 231.2496 130.007658 
L 231.33888 175.649473 
L 231.42816 144.447567 
L 231.51744 159.050401 
L 231.60672 147.262226 
L 231.696 84.493721 
L 231.78528 149.349542 
L 231.87456 144.160064 
L 231.96384 135.944296 
L 232.1424 148.389323 
L 232.23168 112.193714 
L 232.32096 117.696337 
L 232.5888 181.081293 
L 232.76736 107.600054 
L 232.85664 142.220823 
L 232.94592 95.254173 
L 233.0352 123.534154 
L 233.12448 116.315748 
L 233.21376 139.720414 
L 233.39232 98.157059 
L 233.4816 178.885613 
L 233.57088 109.974643 
L 233.66016 201.874622 
L 233.83872 123.98598 
L 233.928 160.840466 
L 234.10656 110.168859 
L 234.28512 147.882977 
L 234.3744 132.18325 
L 234.46368 138.115964 
L 234.55296 122.670513 
L 234.64224 153.06838 
L 234.73152 111.131669 
L 234.91008 183.333901 
L 235.08864 111.803712 
L 235.17792 87.218617 
L 235.35648 121.212071 
L 235.44576 126.404191 
L 235.53504 90.113139 
L 235.62432 113.552613 
L 235.7136 200.414063 
L 235.80288 135.373645 
L 235.89216 149.469498 
L 235.98144 114.496885 
L 236.07072 149.587257 
L 236.16 122.331704 
L 236.24928 180.608149 
L 236.33856 107.573517 
L 236.42784 122.916731 
L 236.51712 111.063767 
L 236.6064 132.991703 
L 236.69568 101.013125 
L 236.96352 144.891507 
L 237.0528 227.858429 
L 237.14208 151.823967 
L 237.23136 178.272582 
L 237.4992 107.932265 
L 237.67776 132.897461 
L 237.76704 120.414256 
L 237.85632 177.051238 
L 237.9456 76.246043 
L 238.12416 172.397938 
L 238.30272 128.577705 
L 238.392 162.211706 
L 238.48128 104.868461 
L 238.65984 146.899828 
L 238.8384 104.623197 
L 238.92768 126.023873 
L 239.01696 125.247584 
L 239.10624 97.455885 
L 239.2848 159.253771 
L 239.37408 173.866711 
L 239.46336 140.462093 
L 239.55264 152.772738 
L 239.82048 112.164037 
L 239.99904 188.85759 
L 240.1776 119.755852 
L 240.26688 135.101054 
L 240.35616 134.347593 
L 240.53472 159.045436 
L 240.624 180.198812 
L 240.80256 123.920269 
L 240.98112 132.915513 
L 241.0704 128.971822 
L 241.15968 116.886222 
L 241.24896 173.242295 
L 241.33824 153.218824 
L 241.42752 154.969201 
L 241.5168 74.137036 
L 241.69536 165.609395 
L 241.78464 105.336001 
L 241.9632 169.723791 
L 242.05248 85.526204 
L 242.14176 174.582256 
L 242.23104 124.575414 
L 242.32032 130.917308 
L 242.49888 78.945043 
L 242.58816 140.067096 
L 242.67744 139.441326 
L 242.76672 139.030677 
L 242.856 119.304313 
L 243.03456 175.667764 
L 243.12384 122.766649 
L 243.21312 130.530521 
L 243.3024 131.11164 
L 243.39168 109.674747 
L 243.48096 140.230679 
L 243.65952 108.883238 
L 243.7488 182.373504 
L 243.92736 128.250812 
L 244.10592 170.330565 
L 244.1952 159.236518 
L 244.28448 120.828913 
L 244.37376 162.51514 
L 244.46304 115.940192 
L 244.55232 156.579882 
L 244.6416 89.384034 
L 244.73088 165.561504 
L 244.90944 117.646275 
L 244.99872 174.722372 
L 245.088 162.386489 
L 245.17728 158.426231 
L 245.35584 125.143493 
L 245.44512 150.522015 
L 245.62368 101.320615 
L 245.71296 151.126587 
L 245.89152 104.94236 
L 245.9808 142.912271 
L 246.07008 107.74452 
L 246.24864 186.062806 
L 246.4272 112.075553 
L 246.51648 156.62653 
L 246.78432 98.288174 
L 246.8736 185.506054 
L 247.23072 105.025622 
L 247.32 121.452145 
L 247.40928 176.970349 
L 247.49856 111.819481 
L 247.58784 139.719326 
L 247.67712 102.844716 
L 247.7664 149.083321 
L 247.94496 115.545572 
L 248.03424 116.084886 
L 248.12352 136.47983 
L 248.2128 121.351743 
L 248.30208 156.167343 
L 248.56992 111.027187 
L 248.6592 142.624933 
L 248.83776 113.363451 
L 249.19488 178.785972 
L 249.28416 104.384165 
L 249.552 176.410797 
L 249.64128 128.19247 
L 249.73056 134.75308 
L 249.81984 133.829657 
L 249.90912 168.698216 
L 250.08768 103.863382 
L 250.17696 154.655955 
L 250.26624 123.201127 
L 250.35552 151.504082 
L 250.53408 106.145 
L 250.71264 157.666541 
L 250.80192 116.152506 
L 250.8912 138.284088 
L 250.98048 138.090616 
L 251.15904 99.722046 
L 251.24832 106.434112 
L 251.42688 175.521469 
L 251.51616 105.515091 
L 251.60544 164.286742 
L 251.87328 93.98237 
L 252.05184 164.631189 
L 252.2304 116.820589 
L 252.31968 118.509397 
L 252.49824 104.688067 
L 252.6768 152.952698 
L 252.85536 125.490195 
L 253.03392 225.791369 
L 253.1232 123.626091 
L 253.21248 139.750557 
L 253.30176 164.865777 
L 253.39104 110.38836 
L 253.48032 132.045562 
L 253.5696 182.617622 
L 253.65888 139.481083 
L 253.74816 154.024773 
L 253.92672 111.225472 
L 254.10528 153.409668 
L 254.19456 115.727177 
L 254.28384 116.240661 
L 254.37312 183.546163 
L 254.55168 128.76378 
L 254.64096 104.249322 
L 254.73024 175.692638 
L 254.9088 99.004353 
L 255.08736 155.909105 
L 255.26592 111.595295 
L 255.3552 109.244749 
L 255.44448 176.547103 
L 255.53376 149.199168 
L 255.62304 157.503717 
L 255.71232 101.535587 
L 255.8016 131.586584 
L 255.89088 110.897216 
L 255.98016 156.983957 
L 256.06944 102.814208 
L 256.15872 163.741225 
L 256.248 153.348182 
L 256.42656 98.820468 
L 256.51584 249.876252 
L 256.60512 89.298786 
L 256.6944 123.738411 
L 256.78368 100.255997 
L 256.87296 136.583932 
L 256.96224 92.852818 
L 257.05152 136.518316 
L 257.1408 128.307249 
L 257.31936 108.021705 
L 257.40864 120.595377 
L 257.49792 107.379544 
L 257.5872 122.235248 
L 257.67648 94.317784 
L 257.85504 162.654317 
L 257.94432 100.159295 
L 258.0336 140.414051 
L 258.12288 133.015829 
L 258.48 92.441421 
L 258.56928 100.474461 
L 258.65856 156.074602 
L 258.74784 84.57885 
L 258.9264 131.164097 
L 259.01568 96.720263 
L 259.10496 108.448396 
L 259.19424 107.648162 
L 259.3728 103.656543 
L 259.46208 198.763413 
L 259.55136 109.075279 
L 259.64064 115.655923 
L 259.72992 166.447137 
L 259.8192 83.539616 
L 260.08704 164.997775 
L 260.2656 120.519375 
L 260.35488 154.19664 
L 260.44416 132.456854 
L 260.53344 182.408492 
L 260.62272 147.179627 
L 260.80128 169.819262 
L 260.97984 109.85928 
L 261.06912 110.89081 
L 261.1584 105.837991 
L 261.24768 118.569736 
L 261.42624 110.914044 
L 261.78336 175.311501 
L 261.87264 112.085847 
L 261.96192 126.807311 
L 262.14048 99.216408 
L 262.22976 129.842748 
L 262.31904 120.475125 
L 262.40832 97.155084 
L 262.4976 120.343446 
L 262.58688 172.406678 
L 262.67616 114.896101 
L 262.76544 146.261384 
L 262.85472 86.513288 
L 263.03328 165.028115 
L 263.12256 123.198727 
L 263.21184 161.577253 
L 263.30112 124.538246 
L 263.47968 139.835914 
L 263.56896 100.27521 
L 263.65824 174.493328 
L 263.74752 109.988593 
L 263.8368 139.005487 
L 263.92608 85.529174 
L 264.10464 176.620313 
L 264.19392 164.168601 
L 264.2832 110.527848 
L 264.37248 112.750393 
L 264.46176 145.418538 
L 264.55104 99.417243 
L 264.7296 164.203881 
L 264.81888 84.907196 
L 264.90816 192.590795 
L 264.99744 127.427774 
L 265.08672 144.099721 
L 265.176 133.029869 
L 265.26528 201.025003 
L 265.35456 132.694785 
L 265.44384 156.250348 
L 265.53312 91.439586 
L 265.71168 126.06245 
L 265.80096 78.972268 
L 265.89024 98.475458 
L 265.97952 153.427618 
L 266.0688 111.654307 
L 266.15808 125.431986 
L 266.33664 98.2435 
L 266.42592 137.555596 
L 266.5152 118.891164 
L 266.60448 206.836453 
L 266.78304 114.280361 
L 266.87232 119.427881 
L 266.9616 197.763516 
L 267.22944 100.127144 
L 267.49728 153.594139 
L 267.58656 89.420334 
L 267.67584 91.235328 
L 267.76512 99.423916 
L 267.8544 155.047261 
L 267.94368 107.487322 
L 268.03296 122.769017 
L 268.12224 119.888319 
L 268.21152 108.325484 
L 268.3008 157.541156 
L 268.47936 89.933953 
L 268.56864 149.147497 
L 268.65792 94.838553 
L 268.7472 134.886262 
L 268.83648 132.682032 
L 269.01504 128.518075 
L 269.10432 109.743319 
L 269.1936 143.658463 
L 269.28288 114.377591 
L 269.46144 151.893383 
L 269.55072 112.104831 
L 269.64 126.384584 
L 269.72928 164.920427 
L 269.81856 129.485582 
L 269.90784 146.340689 
L 269.99712 118.606408 
L 270.0864 143.610679 
L 270.17568 103.199513 
L 270.26496 121.550329 
L 270.35424 116.452158 
L 270.44352 102.852743 
L 270.5328 124.446373 
L 270.62208 92.709479 
L 270.80064 190.096359 
L 271.06848 98.110481 
L 271.24704 139.502485 
L 271.33632 94.53739 
L 271.4256 150.052228 
L 271.51488 109.465025 
L 271.60416 168.912646 
L 271.69344 146.377873 
L 271.78272 196.454743 
L 271.872 140.453313 
L 271.96128 186.484829 
L 272.13984 150.135288 
L 272.22912 93.23177 
L 272.3184 154.64727 
L 272.40768 152.652381 
L 272.49696 138.657583 
L 272.58624 98.274523 
L 272.67552 107.067959 
L 272.94336 137.755527 
L 273.03264 177.352574 
L 273.12192 88.662783 
L 273.2112 109.023793 
L 273.30048 172.243437 
L 273.47904 129.769118 
L 273.6576 148.094866 
L 273.74688 142.491967 
L 273.92544 132.395453 
L 274.01472 223.10816 
L 274.28256 85.069998 
L 274.46112 159.9225 
L 274.5504 136.32981 
L 274.63968 203.739481 
L 274.72896 81.596671 
L 274.81824 141.595891 
L 274.9968 113.806169 
L 275.08608 122.087107 
L 275.26464 95.936283 
L 275.35392 100.073778 
L 275.4432 123.235835 
L 275.53248 110.996661 
L 275.71104 145.25489 
L 275.80032 171.462124 
L 275.8896 128.6698 
L 275.97888 137.961594 
L 276.06816 146.328291 
L 276.15744 83.600969 
L 276.24672 163.413414 
L 276.336 152.740028 
L 276.51456 125.297432 
L 276.60384 129.620912 
L 276.69312 121.045393 
L 276.7824 153.634548 
L 276.96096 115.677872 
L 277.05024 100.815127 
L 277.13952 111.825624 
L 277.2288 140.264651 
L 277.31808 135.377562 
L 277.40736 114.970593 
L 277.49664 116.155446 
L 277.6752 127.580274 
L 277.76448 124.443808 
L 277.85376 116.066877 
L 277.94304 93.577229 
L 278.03232 120.784926 
L 278.1216 79.885613 
L 278.21088 172.727148 
L 278.38944 120.009642 
L 278.47872 92.406095 
L 278.568 124.909568 
L 278.65728 112.204466 
L 278.74656 127.6353 
L 278.92512 94.706548 
L 279.0144 156.886117 
L 279.19296 73.3228 
L 279.28224 174.341223 
L 279.37152 144.858302 
L 279.4608 159.567531 
L 279.55008 110.189415 
L 279.63936 121.779258 
L 279.72864 112.985981 
L 279.81792 85.450578 
L 280.17504 173.859935 
L 280.26432 120.467445 
L 280.3536 186.477173 
L 280.53216 111.592053 
L 280.62144 84.309828 
L 280.8 141.402855 
L 280.88928 144.143018 
L 280.97856 183.880599 
L 281.2464 84.743984 
L 281.33568 184.255584 
L 281.42496 91.158088 
L 281.51424 98.628732 
L 281.60352 109.09561 
L 281.6928 155.685591 
L 281.78208 120.163589 
L 281.87136 127.091271 
L 281.96064 209.277123 
L 282.04992 138.287587 
L 282.1392 144.692583 
L 282.22848 103.876583 
L 282.31776 103.925885 
L 282.49632 118.292535 
L 282.5856 140.831249 
L 282.67488 80.434074 
L 282.76416 90.027903 
L 282.94272 153.221954 
L 283.032 123.283942 
L 283.12128 169.515903 
L 283.21056 110.526975 
L 283.29984 116.872692 
L 283.38912 147.729028 
L 283.4784 135.321606 
L 283.56768 153.37772 
L 283.65696 116.2493 
L 283.74624 172.526791 
L 283.83552 161.633064 
L 284.01408 125.137125 
L 284.10336 137.909474 
L 284.28192 105.15166 
L 284.3712 125.269425 
L 284.46048 100.581781 
L 284.54976 166.814255 
L 284.63904 97.933645 
L 284.72832 182.696905 
L 284.90688 123.755632 
L 284.99616 148.347017 
L 285.08544 144.827928 
L 285.17472 105.604011 
L 285.264 168.72483 
L 285.35328 106.259804 
L 285.44256 113.363985 
L 285.53184 101.750466 
L 285.79968 134.895828 
L 285.88896 99.225084 
L 286.1568 164.331322 
L 286.33536 107.008062 
L 286.51392 196.959221 
L 286.69248 123.270472 
L 286.87104 112.569704 
L 286.96032 157.069794 
L 287.22816 118.047958 
L 287.31744 151.617502 
L 287.496 134.800346 
L 287.58528 132.513562 
L 287.67456 106.312064 
L 287.76384 118.98905 
L 287.85312 155.449415 
L 288.03168 97.7883 
L 288.12096 113.931981 
L 288.21024 110.054591 
L 288.29952 111.084318 
L 288.3888 144.475459 
L 288.47808 125.887825 
L 288.56736 148.725075 
L 288.65664 119.090263 
L 288.74592 175.286185 
L 288.8352 108.938517 
L 288.92448 121.24839 
L 289.01376 160.790715 
L 289.10304 128.061485 
L 289.19232 153.379006 
L 289.2816 116.506083 
L 289.37088 134.598025 
L 289.46016 130.391664 
L 289.54944 116.483727 
L 289.63872 126.281182 
L 289.728 162.110068 
L 289.81728 96.193315 
L 289.90656 128.425588 
L 289.99584 125.328009 
L 290.1744 106.112608 
L 290.26368 129.658545 
L 290.35296 84.948679 
L 290.44224 113.542003 
L 290.53152 194.040319 
L 290.71008 133.627882 
L 290.79936 114.174164 
L 290.88864 117.291064 
L 290.97792 123.922384 
L 291.15648 95.16291 
L 291.24576 112.519243 
L 291.42432 93.275571 
L 291.60288 135.29316 
L 291.69216 93.058658 
L 291.96 156.798668 
L 292.04928 105.574143 
L 292.13856 127.993205 
L 292.22784 111.37545 
L 292.31712 125.500734 
L 292.4064 98.067162 
L 292.58496 113.290266 
L 292.67424 110.311726 
L 292.76352 102.600075 
L 292.94208 145.419545 
L 293.12064 101.012913 
L 293.2992 139.367325 
L 293.38848 147.746957 
L 293.56704 96.242201 
L 293.65632 164.481913 
L 293.83488 95.921558 
L 293.92416 101.323847 
L 294.01344 148.831642 
L 294.192 110.618832 
L 294.28128 169.095814 
L 294.45984 102.729264 
L 294.54912 123.692081 
L 294.6384 141.673044 
L 294.72768 137.303459 
L 294.81696 137.803051 
L 294.90624 145.966289 
L 294.99552 131.164483 
L 295.0848 156.560817 
L 295.17408 123.139102 
L 295.26336 169.459896 
L 295.5312 92.306945 
L 295.62048 164.329832 
L 295.70976 102.02254 
L 295.79904 102.2236 
L 295.88832 90.889671 
L 296.06688 167.658083 
L 296.15616 113.675415 
L 296.24544 120.112449 
L 296.33472 137.646492 
L 296.424 124.992388 
L 296.51328 132.325584 
L 296.69184 128.459096 
L 296.78112 94.177305 
L 296.95968 150.125468 
L 297.04896 152.066732 
L 297.3168 87.052341 
L 297.40608 120.079086 
L 297.49536 103.959209 
L 297.67392 128.1956 
L 297.7632 87.879881 
L 297.85248 147.372691 
L 298.03104 89.501132 
L 298.12032 148.623745 
L 298.2096 87.617467 
L 298.47744 149.342465 
L 298.56672 134.021865 
L 298.656 153.324538 
L 298.92384 120.230809 
L 299.01312 166.043211 
L 299.1024 133.52329 
L 299.19168 140.373593 
L 299.28096 126.457571 
L 299.37024 92.399036 
L 299.63808 125.916792 
L 299.72736 157.345967 
L 299.81664 110.132406 
L 299.9952 193.8242 
L 300.08448 111.173057 
L 300.17376 164.098834 
L 300.26304 69.776899 
L 300.35232 83.800629 
L 300.53088 153.28087 
L 300.62016 115.913144 
L 300.70944 176.627963 
L 300.888 94.549798 
L 301.15584 130.576225 
L 301.24512 134.339855 
L 301.3344 143.164943 
L 301.42368 135.727668 
L 301.69152 169.244232 
L 301.87008 110.249566 
L 301.95936 120.068925 
L 302.04864 191.705064 
L 302.13792 125.192152 
L 302.2272 177.445989 
L 302.40576 96.687116 
L 302.58432 194.752049 
L 302.6736 104.454781 
L 302.76288 148.092198 
L 302.94144 96.855884 
L 303.20928 150.517382 
L 303.38784 110.950537 
L 303.65568 154.234009 
L 303.74496 102.171817 
L 303.83424 162.623594 
L 303.92352 122.052002 
L 304.0128 138.037395 
L 304.10208 228.381579 
L 304.19136 144.845596 
L 304.28064 145.707156 
L 304.36992 144.796323 
L 304.4592 108.832939 
L 304.54848 119.84947 
L 304.72704 254.63584 
L 304.81632 122.374137 
L 304.9056 149.397442 
L 304.99488 148.075889 
L 305.08416 141.858393 
L 305.17344 163.529501 
L 305.26272 122.253561 
L 305.352 151.750765 
L 305.44128 100.472718 
L 305.53056 151.447875 
L 305.61984 114.243349 
L 305.70912 140.025605 
L 305.7984 114.095816 
L 305.88768 175.434143 
L 306.06624 87.849858 
L 306.15552 171.206341 
L 306.33408 136.314998 
L 306.42336 137.440991 
L 306.51264 126.869498 
L 306.78048 169.803206 
L 306.86976 161.962064 
L 307.04832 98.823165 
L 307.1376 110.458515 
L 307.22688 142.745231 
L 307.31616 132.708435 
L 307.40544 108.404746 
L 307.49472 145.508641 
L 307.584 142.523889 
L 307.76256 98.261954 
L 307.85184 107.364626 
L 308.11968 170.038221 
L 308.20896 161.715217 
L 308.38752 87.962755 
L 308.65536 175.297759 
L 308.74464 138.888327 
L 308.83392 170.770061 
L 308.9232 111.799911 
L 309.01248 131.439157 
L 309.10176 125.515227 
L 309.19104 128.363713 
L 309.28032 145.054014 
L 309.45888 124.217222 
L 309.54816 109.827729 
L 309.63744 120.223144 
L 309.72672 194.392758 
L 309.90528 113.378486 
L 309.99456 133.832127 
L 310.08384 187.275796 
L 310.17312 137.041609 
L 310.2624 157.95511 
L 310.35168 105.546677 
L 310.44096 114.74938 
L 310.61952 143.380385 
L 310.7088 101.691481 
L 310.79808 186.429064 
L 311.1552 110.353338 
L 311.24448 139.695365 
L 311.33376 115.037841 
L 311.42304 142.814198 
L 311.69088 96.342016 
L 311.78016 233.386071 
L 311.86944 116.869377 
L 311.95872 132.800535 
L 312.048 119.066601 
L 312.13728 134.602359 
L 312.40512 81.35399 
L 312.4944 149.473149 
L 312.67296 115.685258 
L 312.76224 138.420963 
L 312.85152 120.537827 
L 313.03008 162.866725 
L 313.20864 125.713217 
L 313.29792 122.598918 
L 313.3872 164.474813 
L 313.47648 87.644706 
L 313.65504 132.444751 
L 313.74432 108.266121 
L 313.8336 117.101107 
L 313.92288 160.717219 
L 314.01216 105.341254 
L 314.10144 132.848137 
L 314.28 93.983786 
L 314.45856 128.104173 
L 314.54784 149.443602 
L 314.7264 90.522331 
L 314.90496 156.469185 
L 314.99424 100.039097 
L 315.08352 124.012379 
L 315.1728 103.746193 
L 315.26208 107.38875 
L 315.35136 113.933003 
L 315.44064 143.045378 
L 315.52992 107.858002 
L 315.6192 172.420111 
L 315.70848 113.393573 
L 315.79776 207.414653 
L 315.97632 127.625365 
L 316.15488 97.814059 
L 316.24416 129.80397 
L 316.33344 120.604164 
L 316.42272 127.992846 
L 316.512 109.414406 
L 316.60128 142.868878 
L 316.69056 114.791218 
L 316.77984 123.207848 
L 316.86912 102.772433 
L 316.9584 116.81589 
L 317.04768 114.704385 
L 317.13696 99.709691 
L 317.22624 167.188377 
L 317.4048 99.124821 
L 317.67264 162.652434 
L 317.76192 141.598252 
L 317.8512 150.534264 
L 317.94048 140.639836 
L 318.02976 115.223122 
L 318.11904 155.617963 
L 318.20832 135.633125 
L 318.2976 168.902073 
L 318.47616 87.520812 
L 318.56544 102.587867 
L 318.65472 198.568157 
L 318.83328 96.5075 
L 318.92256 96.388873 
L 319.01184 199.537153 
L 319.1904 106.705197 
L 319.45824 168.435209 
L 319.6368 106.66699 
L 319.72608 117.404474 
L 319.81536 102.718584 
L 319.99392 158.820692 
L 320.0832 98.920852 
L 320.17248 127.881624 
L 320.26176 112.095444 
L 320.35104 120.422042 
L 320.44032 111.50479 
L 320.5296 128.604542 
L 320.79744 101.359797 
L 320.976 147.379498 
L 321.06528 134.519275 
L 321.15456 100.23606 
L 321.24384 122.370547 
L 321.33312 106.736719 
L 321.4224 141.010079 
L 321.60096 111.699706 
L 321.69024 147.041401 
L 321.77952 126.356202 
L 321.8688 146.183565 
L 321.95808 94.920999 
L 322.04736 177.947104 
L 322.13664 125.740993 
L 322.22592 142.745496 
L 322.3152 127.291723 
L 322.40448 155.813882 
L 322.49376 131.273036 
L 322.67232 157.827706 
L 322.7616 116.775269 
L 322.85088 156.054382 
L 323.11872 84.562826 
L 323.208 175.822043 
L 323.29728 125.503913 
L 323.38656 155.292723 
L 323.47584 147.354686 
L 323.56512 113.807363 
L 323.6544 189.766965 
L 323.74368 95.975658 
L 323.83296 115.882391 
L 324.01152 144.994047 
L 324.1008 81.789787 
L 324.19008 106.149303 
L 324.27936 169.053285 
L 324.36864 156.577972 
L 324.5472 110.186348 
L 324.63648 187.000887 
L 324.81504 106.522984 
L 324.9936 146.77717 
L 325.08288 138.798122 
L 325.17216 110.324499 
L 325.35072 187.848963 
L 325.44 98.565551 
L 325.52928 109.485212 
L 325.61856 132.529946 
L 325.70784 127.353793 
L 325.79712 98.803532 
L 325.97568 129.576902 
L 326.06496 107.025527 
L 326.15424 162.429724 
L 326.24352 104.844526 
L 326.42208 135.363146 
L 326.60064 100.110142 
L 326.68992 107.337847 
L 326.7792 104.988844 
L 326.86848 105.698955 
L 327.04704 151.394396 
L 327.2256 102.654594 
L 327.31488 181.733878 
L 327.40416 139.437011 
L 327.49344 142.871958 
L 327.58272 154.438286 
L 327.672 95.903096 
L 327.85056 168.478306 
L 327.93984 160.759879 
L 328.02912 137.591648 
L 328.1184 143.845275 
L 328.29696 132.451021 
L 328.38624 100.924831 
L 328.5648 184.370784 
L 328.65408 88.553578 
L 328.74336 109.35077 
L 328.83264 162.373438 
L 328.92192 153.999972 
L 329.0112 159.022958 
L 329.18976 130.091431 
L 329.27904 149.735753 
L 329.36832 105.419751 
L 329.4576 127.1201 
L 329.54688 116.247757 
L 329.72544 157.704573 
L 329.81472 122.205453 
L 329.904 140.24137 
L 329.99328 128.681446 
L 330.08256 131.290887 
L 330.17184 90.978245 
L 330.26112 124.391308 
L 330.3504 84.736663 
L 330.43968 130.860961 
L 330.52896 103.689263 
L 330.61824 104.449605 
L 330.70752 182.547837 
L 330.7968 118.081589 
L 330.88608 128.028675 
L 331.06464 161.181043 
L 331.15392 85.464685 
L 331.33248 131.738982 
L 331.42176 135.379431 
L 331.6896 197.050434 
L 331.77888 106.816644 
L 331.86816 111.229573 
L 331.95744 113.612076 
L 332.04672 164.080407 
L 332.136 154.408928 
L 332.22528 116.456071 
L 332.31456 129.516377 
L 332.49312 97.088913 
L 332.5824 130.952704 
L 332.67168 104.214474 
L 332.76096 121.342804 
L 332.85024 118.249625 
L 333.0288 134.648987 
L 333.11808 111.377663 
L 333.38592 178.485591 
L 333.65376 102.994798 
L 333.74304 139.071462 
L 333.9216 109.094252 
L 334.01088 123.56804 
L 334.10016 108.999826 
L 334.18944 131.352919 
L 334.27872 113.626369 
L 334.368 146.576194 
L 334.45728 103.635704 
L 334.63584 165.948747 
L 334.72512 120.15057 
L 334.8144 148.69993 
L 334.90368 122.649988 
L 334.99296 125.383102 
L 335.08224 131.321408 
L 335.17152 103.813608 
L 335.2608 119.519485 
L 335.35008 108.374802 
L 335.43936 122.111 
L 335.52864 111.03276 
L 335.79648 136.528183 
L 335.88576 93.055895 
L 335.97504 142.020132 
L 336.06432 125.804389 
L 336.1536 126.162519 
L 336.24288 114.918816 
L 336.33216 132.645319 
L 336.42144 108.26844 
L 336.6 160.647478 
L 336.68928 106.827452 
L 336.86784 195.604347 
L 337.13568 124.324066 
L 337.22496 207.464614 
L 337.31424 134.752827 
L 337.40352 159.135307 
L 337.4928 120.334556 
L 337.58208 131.525172 
L 337.84992 87.235045 
L 338.02848 106.624422 
L 338.11776 86.947397 
L 338.20704 112.79591 
L 338.29632 98.393465 
L 338.3856 106.441709 
L 338.47488 125.901379 
L 338.56416 105.655095 
L 338.65344 109.144543 
L 338.832 159.076889 
L 338.92128 104.566513 
L 339.18912 147.505716 
L 339.2784 115.526106 
L 339.36768 182.86167 
L 339.7248 93.384847 
L 339.81408 100.47007 
L 339.90336 159.003562 
L 339.99264 145.782348 
L 340.08192 150.492276 
L 340.1712 149.94952 
L 340.26048 145.282683 
L 340.34976 164.728717 
L 340.43904 115.446988 
L 340.52832 190.480777 
L 340.6176 111.860108 
L 340.70688 119.063842 
L 340.79616 141.275097 
L 340.88544 136.698122 
L 340.97472 111.521652 
L 341.064 175.675037 
L 341.15328 97.669684 
L 341.24256 158.083122 
L 341.33184 116.809874 
L 341.42112 153.598866 
L 341.59968 104.396207 
L 341.77824 156.9162 
L 341.86752 126.917279 
L 341.9568 181.705227 
L 342.13536 133.5015 
L 342.22464 128.206659 
L 342.31392 149.204791 
L 342.4032 146.836575 
L 342.49248 89.728812 
L 342.58176 222.189343 
L 342.76032 114.543581 
L 342.8496 117.378251 
L 342.93888 147.195796 
L 343.11744 100.482285 
L 343.20672 107.488377 
L 343.296 86.482296 
L 343.38528 134.561163 
L 343.47456 104.015376 
L 343.65312 183.084783 
L 343.83168 87.485697 
L 343.92096 126.701436 
L 344.01024 108.887124 
L 344.09952 117.830183 
L 344.1888 141.506011 
L 344.36736 109.066941 
L 344.45664 138.09926 
L 344.72448 110.235806 
L 344.81376 124.996841 
L 344.90304 89.188518 
L 344.99232 106.315324 
L 345.0816 159.164554 
L 345.26016 99.246644 
L 345.34944 101.340626 
L 345.43872 123.132562 
L 345.528 115.898763 
L 345.61728 139.459117 
L 345.70656 86.661489 
L 345.79584 113.30486 
L 345.88512 113.176762 
L 345.9744 103.052807 
L 346.15296 148.37827 
L 346.24224 133.546988 
L 346.33152 184.160187 
L 346.4208 133.579954 
L 346.51008 158.906588 
L 346.59936 129.371181 
L 346.68864 163.816942 
L 346.8672 102.945244 
L 346.95648 130.165888 
L 347.13504 91.196259 
L 347.22432 158.977197 
L 347.3136 119.734241 
L 347.40288 147.717811 
L 347.49216 100.681328 
L 347.58144 118.420649 
L 347.67072 97.401768 
L 347.76 121.059492 
L 347.84928 92.873177 
L 348.02784 118.190815 
L 348.11712 168.135818 
L 348.2064 160.722372 
L 348.29568 115.036203 
L 348.38496 178.674963 
L 348.56352 106.121155 
L 348.74208 140.200932 
L 349.00992 98.404185 
L 349.0992 137.549109 
L 349.18848 124.122054 
L 349.27776 131.070337 
L 349.45632 116.438098 
L 349.5456 139.868969 
L 349.63488 105.90221 
L 349.81344 146.677442 
L 349.90272 141.878393 
L 349.992 122.268787 
L 350.25984 136.144808 
L 350.4384 102.856351 
L 350.52768 144.880419 
L 350.61696 140.985064 
L 350.70624 113.088795 
L 350.79552 156.526525 
L 350.8848 136.779384 
L 350.97408 79.007756 
L 351.06336 131.661982 
L 351.15264 119.676085 
L 351.24192 99.40104 
L 351.3312 123.355194 
L 351.42048 112.663183 
L 351.50976 115.571218 
L 351.59904 83.460748 
L 351.86688 153.420278 
L 352.04544 105.259494 
L 352.13472 127.511228 
L 352.224 98.015728 
L 352.40256 121.505759 
L 352.49184 94.998992 
L 352.58112 176.748934 
L 352.6704 109.447584 
L 352.75968 116.144717 
L 352.84896 102.898708 
L 352.93824 140.794256 
L 353.02752 93.494849 
L 353.20608 118.665121 
L 353.29536 117.101805 
L 353.38464 120.460654 
L 353.47392 169.912441 
L 353.5632 94.990284 
L 353.65248 129.629754 
L 353.74176 113.429408 
L 353.83104 142.080516 
L 353.92032 110.483597 
L 354.0096 127.252801 
L 354.09888 111.616423 
L 354.18816 139.436557 
L 354.27744 130.323749 
L 354.36672 92.646964 
L 354.54528 131.76433 
L 354.63456 116.437656 
L 354.72384 124.196968 
L 354.81312 113.386442 
L 354.9024 138.784099 
L 355.08096 112.903916 
L 355.17024 146.048275 
L 355.25952 124.853672 
L 355.3488 134.438669 
L 355.52736 93.985886 
L 355.70592 167.076328 
L 355.88448 92.545246 
L 355.97376 163.31086 
L 356.15232 74.90833 
L 356.33088 150.096242 
L 356.42016 159.019918 
L 356.77728 103.822503 
L 356.86656 94.805667 
L 356.95584 154.408355 
L 357.04512 127.044225 
L 357.1344 137.991626 
L 357.31296 100.53898 
L 357.5808 146.549953 
L 357.75936 91.658871 
L 357.84864 137.713899 
L 357.93792 111.021229 
L 358.0272 121.698751 
L 358.11648 110.768471 
L 358.20576 121.290503 
L 358.29504 77.703148 
L 358.4736 131.188729 
L 358.56288 110.442817 
L 358.74144 132.007008 
L 358.83072 129.57007 
L 358.92 106.069402 
L 359.09856 121.141186 
L 359.18784 142.496164 
L 359.27712 132.470437 
L 359.3664 135.792466 
L 359.45568 115.071678 
L 359.54496 151.790198 
L 359.72352 90.878338 
L 359.8128 125.470926 
L 359.90208 95.290656 
L 359.99136 104.43852 
L 360.08064 84.495427 
L 360.16992 152.78449 
L 360.2592 114.946961 
L 360.34848 163.914346 
L 360.43776 154.097423 
L 360.52704 126.021518 
L 360.61632 132.065367 
L 360.7056 134.467862 
L 360.79488 92.977256 
L 361.06272 155.586957 
L 361.152 93.835358 
L 361.33056 145.399273 
L 361.41984 140.127558 
L 361.50912 119.656715 
L 361.5984 135.058697 
L 361.86624 105.550557 
L 362.0448 125.892331 
L 362.22336 103.094415 
L 362.4912 173.959715 
L 362.66976 124.401745 
L 362.84832 157.970093 
L 363.11616 116.971743 
L 363.20544 116.938037 
L 363.29472 110.908793 
L 363.47328 145.952032 
L 363.74112 93.424844 
L 363.8304 166.33637 
L 363.91968 121.232498 
L 364.00896 147.722237 
L 364.09824 90.115637 
L 364.18752 99.048252 
L 364.2768 147.86581 
L 364.36608 113.090482 
L 364.45536 163.450857 
L 364.54464 115.720209 
L 364.63392 137.196739 
L 364.7232 107.304028 
L 364.81248 145.862605 
L 364.90176 135.1241 
L 365.08032 148.573476 
L 365.1696 102.62624 
L 365.25888 131.064525 
L 365.34816 122.968061 
L 365.43744 147.489735 
L 365.52672 118.676171 
L 365.70528 146.91222 
L 365.79456 124.028268 
L 365.88384 164.531499 
L 365.97312 154.350506 
L 366.15168 96.954165 
L 366.24096 98.425747 
L 366.33024 105.09689 
L 366.5088 145.785632 
L 366.68736 85.701639 
L 366.86592 120.056842 
L 367.13376 161.593832 
L 367.22304 115.247403 
L 367.31232 120.266157 
L 367.49088 133.334351 
L 367.58016 89.922551 
L 367.848 118.599243 
L 367.93728 116.353442 
L 368.02656 151.098262 
L 368.11584 104.253018 
L 368.20512 132.880226 
L 368.2944 122.985742 
L 368.38368 96.650229 
L 368.47296 142.705505 
L 368.56224 113.532898 
L 368.65152 144.862509 
L 368.7408 113.950263 
L 368.83008 119.66434 
L 368.91936 90.778645 
L 369.00864 110.383339 
L 369.09792 105.45365 
L 369.1872 138.099245 
L 369.36576 97.283588 
L 369.54432 110.802843 
L 369.6336 101.189922 
L 369.72288 110.966646 
L 369.81216 151.274311 
L 369.90144 127.207886 
L 369.99072 127.287178 
L 370.08 136.276343 
L 370.16928 85.393924 
L 370.25856 140.795372 
L 370.34784 133.51337 
L 370.5264 94.787323 
L 370.61568 94.072127 
L 370.70496 96.827471 
L 370.9728 202.644904 
L 371.15136 89.847618 
L 371.24064 119.646904 
L 371.4192 108.470795 
L 371.50848 127.078218 
L 371.59776 109.837715 
L 371.68704 114.630651 
L 371.77632 103.055442 
L 371.8656 130.41071 
L 372.04416 107.376828 
L 372.13344 117.180736 
L 372.22272 102.524071 
L 372.40128 153.027055 
L 372.49056 133.469439 
L 372.57984 146.79235 
L 372.66912 98.295139 
L 372.7584 104.321616 
L 372.84768 104.097118 
L 372.93696 140.430243 
L 373.11552 98.95673 
L 373.2048 140.539559 
L 373.38336 120.191355 
L 373.47264 133.740052 
L 373.56192 126.830471 
L 373.6512 90.149771 
L 373.82976 164.787553 
L 373.91904 109.879982 
L 374.00832 145.596776 
L 374.0976 109.07922 
L 374.18688 120.010341 
L 374.27616 102.907662 
L 374.36544 109.609309 
L 374.45472 98.816149 
L 374.63328 146.747348 
L 374.72256 90.102536 
L 374.81184 110.108294 
L 374.90112 98.080687 
L 374.9904 120.218688 
L 375.07968 116.816929 
L 375.25824 147.692303 
L 375.52608 79.070438 
L 375.70464 116.540461 
L 375.79392 113.13092 
L 375.97248 134.087247 
L 376.06176 109.840811 
L 376.15104 136.244009 
L 376.24032 122.28344 
L 376.3296 128.521409 
L 376.41888 71.003397 
L 376.50816 83.666335 
L 376.59744 126.859829 
L 376.68672 93.680052 
L 376.86528 150.106061 
L 377.04384 118.188676 
L 377.13312 175.34374 
L 377.2224 94.424077 
L 377.31168 146.040875 
L 377.40096 88.491428 
L 377.49024 143.618833 
L 377.57952 130.451261 
L 377.6688 124.077121 
L 377.75808 89.43921 
L 377.84736 119.669115 
L 377.93664 100.10386 
L 378.1152 171.488175 
L 378.29376 103.390324 
L 378.5616 153.910271 
L 378.65088 110.019296 
L 378.74016 137.057077 
L 378.82944 122.873661 
L 378.91872 160.349938 
L 379.09728 76.791672 
L 379.18656 174.493476 
L 379.36512 106.987784 
L 379.4544 107.588103 
L 379.54368 96.715578 
L 379.72224 118.226642 
L 379.81152 100.576884 
L 379.99008 137.38455 
L 380.07936 184.982419 
L 380.16864 115.840288 
L 380.25792 148.809435 
L 380.52576 90.982635 
L 380.7936 173.281929 
L 380.88288 115.166172 
L 380.97216 123.47012 
L 381.15072 79.084607 
L 381.24 139.640721 
L 381.32928 138.08727 
L 381.41856 133.957679 
L 381.50784 120.616625 
L 381.59712 151.561918 
L 381.6864 108.23237 
L 381.77568 139.131872 
L 381.86496 115.480518 
L 381.95424 171.500735 
L 382.1328 97.398724 
L 382.31136 155.251677 
L 382.40064 101.784848 
L 382.48992 125.766319 
L 382.5792 117.673129 
L 382.66848 63.648 
L 382.75776 147.438296 
L 382.84704 102.239621 
L 382.93632 113.227839 
L 383.0256 137.257457 
L 383.11488 114.270744 
L 383.29344 142.021877 
L 383.38272 111.140213 
L 383.472 115.437999 
L 383.56128 98.872184 
L 383.65056 134.486633 
L 383.82912 101.720627 
L 384.00768 127.758531 
L 384.09696 135.104162 
L 384.27552 113.444144 
L 384.3648 113.872183 
L 384.63264 147.324905 
L 384.72192 181.218662 
L 384.90048 108.283864 
L 384.98976 108.326151 
L 385.07904 135.126775 
L 385.16832 131.984695 
L 385.2576 109.045668 
L 385.52544 144.736813 
L 385.61472 118.592581 
L 385.704 136.230431 
L 385.79328 130.388849 
L 385.88256 113.296713 
L 386.06112 152.659488 
L 386.1504 87.536449 
L 386.23968 110.902009 
L 386.32896 78.099283 
L 386.41824 118.20459 
L 386.50752 112.761403 
L 386.5968 123.01577 
L 386.68608 116.560187 
L 386.77536 214.643951 
L 386.95392 96.781261 
L 387.0432 128.491015 
L 387.22176 100.588195 
L 387.40032 140.101778 
L 387.4896 115.346802 
L 387.57888 144.989935 
L 387.75744 107.530404 
L 387.84672 114.704792 
L 387.936 132.851373 
L 388.11456 108.388777 
L 388.29312 142.418008 
L 388.3824 125.981417 
L 388.47168 147.691718 
L 388.8288 87.103307 
L 389.00736 108.485244 
L 389.09664 89.057228 
L 389.18592 103.024765 
L 389.2752 88.00388 
L 389.45376 146.145488 
L 389.54304 115.244631 
L 389.63232 122.30265 
L 389.7216 99.939431 
L 389.81088 167.532236 
L 390.07872 119.371694 
L 390.168 121.240259 
L 390.25728 131.150743 
L 390.43584 108.332016 
L 390.52512 109.67518 
L 390.6144 91.491708 
L 390.79296 120.480863 
L 390.88224 103.95004 
L 390.97152 123.975826 
L 391.0608 110.62577 
L 391.15008 131.533235 
L 391.32864 100.50115 
L 391.41792 122.054311 
L 391.5072 114.170671 
L 391.77504 129.877394 
L 391.9536 115.692928 
L 392.04288 113.027585 
L 392.22144 130.832099 
L 392.31072 111.97441 
L 392.57856 143.521421 
L 392.66784 98.624666 
L 392.75712 99.01777 
L 392.8464 88.136324 
L 392.93568 115.091872 
L 393.02496 98.633766 
L 393.2928 180.929925 
L 393.47136 107.088009 
L 393.56064 130.799844 
L 393.64992 123.969273 
L 393.7392 131.788588 
L 393.82848 98.813345 
L 394.09632 141.753793 
L 394.1856 132.515246 
L 394.27488 105.891603 
L 394.36416 107.866524 
L 394.45344 170.218123 
L 394.632 117.756605 
L 394.72128 131.184713 
L 394.81056 124.451282 
L 394.89984 129.877721 
L 394.98912 76.2459 
L 395.0784 150.545717 
L 395.25696 112.4517 
L 395.34624 162.08215 
L 395.43552 120.053592 
L 395.5248 123.596078 
L 395.79264 94.216263 
L 395.9712 139.544909 
L 396.23904 89.574375 
L 396.32832 100.031306 
L 396.4176 84.08291 
L 396.50688 100.062791 
L 396.59616 85.88611 
L 396.68544 127.521861 
L 396.77472 116.380725 
L 396.864 120.871915 
L 396.95328 107.139951 
L 397.04256 138.924047 
L 397.13184 121.393448 
L 397.22112 127.947486 
L 397.3104 103.673414 
L 397.39968 119.796307 
L 397.48896 101.129926 
L 397.57824 120.072648 
L 397.66752 109.919005 
L 397.84608 141.428086 
L 397.93536 177.591418 
L 398.11392 79.005152 
L 398.2032 101.78958 
L 398.29248 124.907458 
L 398.38176 91.975004 
L 398.56032 153.203143 
L 398.6496 134.993378 
L 398.82816 155.13786 
L 399.00672 79.795045 
L 399.27456 144.160283 
L 399.36384 113.998489 
L 399.63168 151.948353 
L 399.89952 98.362861 
L 399.9888 152.224384 
L 400.07808 107.846346 
L 400.16736 134.651848 
L 400.34592 101.63531 
L 400.4352 113.175329 
L 400.52448 95.340457 
L 400.61376 133.170256 
L 400.70304 121.130973 
L 400.79232 136.410605 
L 400.8816 135.933478 
L 400.97088 133.742561 
L 401.06016 153.191885 
L 401.14944 107.568992 
L 401.328 138.88589 
L 401.50656 145.379052 
L 401.59584 151.847436 
L 401.68512 89.504881 
L 401.7744 132.907318 
L 401.86368 123.709994 
L 401.95296 79.134993 
L 402.04224 94.696175 
L 402.13152 142.35848 
L 402.2208 125.314307 
L 402.31008 86.354958 
L 402.48864 141.443504 
L 402.57792 103.253669 
L 402.75648 146.080363 
L 402.84576 107.985566 
L 402.93504 124.299944 
L 403.02432 96.289523 
L 403.1136 141.197242 
L 403.20288 131.150261 
L 403.29216 113.770894 
L 403.47072 124.001666 
L 403.56 120.102908 
L 403.64928 156.402166 
L 403.73856 88.637004 
L 403.91712 138.428809 
L 404.0064 128.063618 
L 404.09568 136.060806 
L 404.18496 160.200511 
L 404.27424 101.764863 
L 404.36352 114.465815 
L 404.4528 137.06918 
L 404.63136 101.321222 
L 404.72064 129.92503 
L 404.80992 116.963667 
L 404.98848 161.99052 
L 405.16704 93.64647 
L 405.25632 130.569481 
L 405.3456 92.177283 
L 405.52416 145.53468 
L 405.61344 90.140958 
L 405.792 139.13034 
L 405.88128 105.180639 
L 405.97056 108.862909 
L 406.05984 116.692529 
L 406.14912 94.13183 
L 406.2384 103.253505 
L 406.32768 92.867878 
L 406.41696 128.327898 
L 406.50624 119.222932 
L 406.59552 127.843966 
L 406.77408 93.910958 
L 406.95264 137.644541 
L 407.04192 108.068969 
L 407.1312 147.643328 
L 407.22048 135.645785 
L 407.30976 152.542426 
L 407.48832 89.752206 
L 407.5776 124.008781 
L 407.66688 104.710721 
L 407.93472 133.157763 
L 408.11328 122.026591 
L 408.20256 180.502459 
L 408.38112 116.927428 
L 408.4704 112.586791 
L 408.55968 117.181034 
L 408.64896 137.393493 
L 408.73824 136.510688 
L 408.9168 77.257825 
L 409.09536 99.712994 
L 409.18464 84.095918 
L 409.3632 124.324231 
L 409.45248 149.30661 
L 409.63104 109.474767 
L 409.72032 110.894253 
L 409.89888 135.896954 
L 409.98816 116.339058 
L 410.07744 123.664746 
L 410.256 150.943884 
L 410.43456 89.624884 
L 410.52384 126.326017 
L 410.61312 101.020365 
L 410.7024 106.640453 
L 410.79168 149.296661 
L 410.97024 80.972515 
L 411.1488 120.943885 
L 411.23808 106.911401 
L 411.32736 129.986874 
L 411.41664 98.263607 
L 411.50592 103.406662 
L 411.5952 124.106067 
L 411.68448 114.153412 
L 411.77376 127.128406 
L 411.86304 98.816515 
L 411.95232 138.183731 
L 412.13088 72.64791 
L 412.22016 126.564787 
L 412.30944 112.791884 
L 412.488 127.544712 
L 412.57728 117.200872 
L 412.66656 120.065285 
L 412.75584 98.397271 
L 412.84512 164.8818 
L 412.9344 95.005268 
L 413.11296 141.45926 
L 413.20224 103.366605 
L 413.29152 125.637783 
L 413.3808 102.851936 
L 413.47008 146.984644 
L 413.55936 94.427263 
L 413.64864 119.155102 
L 413.73792 103.005894 
L 413.91648 140.782417 
L 414.09504 116.852402 
L 414.18432 138.824644 
L 414.2736 133.31464 
L 414.36288 144.752748 
L 414.45216 140.534605 
L 414.54144 153.782983 
L 414.63072 125.766918 
L 414.63072 125.766918 
" style="fill:none;stroke:#0000ff;stroke-linecap:square;stroke-width:1.5;"/>
   </g>
   <g id="patch_3">
    <path d="M 57.6 307.584 
L 57.6 41.472 
" style="fill:none;stroke:#000000;stroke-linecap:square;stroke-linejoin:miter;stroke-width:0.8;"/>
   </g>
   <g id="patch_4">
    <path d="M 414.72 307.584 
L 414.72 41.472 
" style="fill:none;stroke:#000000;stroke-linecap:square;stroke-linejoin:miter;stroke-width:0.8;"/>
   </g>
   <g id="patch_5">
    <path d="M 57.6 307.584 
L 414.72 307.584 
" style="fill:none;stroke:#000000;stroke-linecap:square;stroke-linejoin:miter;stroke-width:0.8;"/>
   </g>
   <g id="patch_6">
    <path d="M 57.6 41.472 
L 414.72 41.472 
" style="fill:none;stroke:#000000;stroke-linecap:square;stroke-linejoin:miter;stroke-width:0.8;"/>
   </g>
   <g id="legend_1">
    <g id="patch_7">
     <path d="M 202.8825 299.584 
L 403.52 299.584 
Q 406.72 299.584 406.72 296.384 
L 406.72 274.499 
Q 406.72 271.299 403.52 271.299 
L 202.8825 271.299 
Q 199.6825 271.299 199.6825 274.499 
L 199.6825 296.384 
Q 199.6825 299.584 202.8825 299.584 
z
" style="fill:#ffffff;opacity:0.8;stroke:#cccccc;stroke-linejoin:miter;"/>
    </g>
    <g id="line2d_20">
     <path d="M 206.0825 284.2565 
L 238.0825 284.2565 
" style="fill:none;stroke:#0000ff;stroke-linecap:square;stroke-width:1.5;"/>
    </g>
    <g id="line2d_21"/>
    <g id="text_12">
     <!-- cumulative reward -->
     <g transform="translate(250.8825 289.8565)scale(0.16 -0.16)">
      <defs>
       <path d="M 3122 3366 
L 3122 2828 
Q 2878 2963 2633 3030 
Q 2388 3097 2138 3097 
Q 1578 3097 1268 2742 
Q 959 2388 959 1747 
Q 959 1106 1268 751 
Q 1578 397 2138 397 
Q 2388 397 2633 464 
Q 2878 531 3122 666 
L 3122 134 
Q 2881 22 2623 -34 
Q 2366 -91 2075 -91 
Q 1284 -91 818 406 
Q 353 903 353 1747 
Q 353 2603 823 3093 
Q 1294 3584 2113 3584 
Q 2378 3584 2631 3529 
Q 2884 3475 3122 3366 
z
" id="DejaVuSans-63" transform="scale(0.015625)"/>
      </defs>
      <use xlink:href="#DejaVuSans-63"/>
      <use x="54.980469" xlink:href="#DejaVuSans-75"/>
      <use x="118.359375" xlink:href="#DejaVuSans-6d"/>
      <use x="215.771484" xlink:href="#DejaVuSans-75"/>
      <use x="279.150391" xlink:href="#DejaVuSans-6c"/>
      <use x="306.933594" xlink:href="#DejaVuSans-61"/>
      <use x="368.212891" xlink:href="#DejaVuSans-74"/>
      <use x="407.421875" xlink:href="#DejaVuSans-69"/>
      <use x="435.205078" xlink:href="#DejaVuSans-76"/>
      <use x="494.384766" xlink:href="#DejaVuSans-65"/>
      <use x="555.908203" xlink:href="#DejaVuSans-20"/>
      <use x="587.695312" xlink:href="#DejaVuSans-72"/>
      <use x="626.558594" xlink:href="#DejaVuSans-65"/>
      <use x="688.082031" xlink:href="#DejaVuSans-77"/>
      <use x="769.869141" xlink:href="#DejaVuSans-61"/>
      <use x="831.148438" xlink:href="#DejaVuSans-72"/>
      <use x="870.511719" xlink:href="#DejaVuSans-64"/>
     </g>
    </g>
   </g>
  </g>
 </g>
 <defs>
  <clipPath id="pc9fc8ef79e">
   <rect height="266.112" width="357.12" x="57.6" y="41.472"/>
  </clipPath>
 </defs>
</svg>
