<?xml version="1.0" encoding="utf-8" standalone="no"?>
<!DOCTYPE svg PUBLIC "-//W3C//DTD SVG 1.1//EN"
  "http://www.w3.org/Graphics/SVG/1.1/DTD/svg11.dtd">
<svg height="345.6pt" version="1.1" viewBox="0 0 460.8 345.6" width="460.8pt" xmlns="http://www.w3.org/2000/svg" xmlns:xlink="http://www.w3.org/1999/xlink">
 <metadata>
  <rdf:RDF xmlns:cc="http://creativecommons.org/ns#" xmlns:dc="http://purl.org/dc/elements/1.1/" xmlns:rdf="http://www.w3.org/1999/02/22-rdf-syntax-ns#">
   <cc:Work>
    <dc:type rdf:resource="http://purl.org/dc/dcmitype/StillImage"/>
    <dc:date>2021-11-03T21:25:19.880037</dc:date>
    <dc:description>{"agent.algorithm": "RayProximalPolicyOptimization", "agent.algorithm.render_env": false, "agent.algorithm.num_workers": 0, "agent.algorithm.batch_mode": "complete_episodes", "agent.algorithm.lr": 1e-05, "agent.algorithm.train_batch_size": 200, "agent.algorithm.optimizer": "Adam", "agent.algorithm.vf_clip_param": 100, "agent.algorithm.model": {"fcnet_activation": "tanh", "fcnet_hiddens": [30, 30]}, "env.env_class": "SchedulerPolicyRayEnvironment", "env.env_config": {"solver_driver": "CMAdriver", "solver_driver_args": [20, 10, 5, 0.5], "maximize": false, "steps": 50, "state_metrics_names": ["DifferenceOfBest", "SolverStateHistory"], "state_metrics_config": [[40, false, 1, true, false], [{"step_size": {"max": 3, "min": 0}}, 40]], "reward_metric": "Best", "reward_metric_config": [false, false], "memes_no": 1, "action_space_config": {"step_size": {"max": 3, "min": 1e-10}}}}</dc:description>
    <dc:format>image/svg+xml</dc:format>
    <dc:creator>
     <cc:Agent>
      <dc:title>Matplotlib v3.4.3, https://matplotlib.org/</dc:title>
     </cc:Agent>
    </dc:creator>
   </cc:Work>
  </rdf:RDF>
 </metadata>
 <defs>
  <style type="text/css">*{stroke-linecap:butt;stroke-linejoin:round;}</style>
 </defs>
 <g id="figure_1">
  <g id="patch_1">
   <path d="M 0 345.6 
L 460.8 345.6 
L 460.8 0 
L 0 0 
z
" style="fill:#ffffff;"/>
  </g>
  <g id="axes_1">
   <g id="patch_2">
    <path d="M 57.6 307.584 
L 414.72 307.584 
L 414.72 41.472 
L 57.6 41.472 
z
" style="fill:#ffffff;"/>
   </g>
   <g id="matplotlib.axis_1">
    <g id="xtick_1">
     <g id="line2d_1">
      <path clip-path="url(#pcfb118fe21)" d="M 57.6 307.584 
L 57.6 41.472 
" style="fill:none;stroke:#b0b0b0;stroke-linecap:square;stroke-width:0.8;"/>
     </g>
     <g id="line2d_2">
      <defs>
       <path d="M 0 0 
L 0 3.5 
" id="m2fc2e8dd5f" style="stroke:#000000;stroke-width:0.8;"/>
      </defs>
      <g>
       <use style="stroke:#000000;stroke-width:0.8;" x="57.6" xlink:href="#m2fc2e8dd5f" y="307.584"/>
      </g>
     </g>
     <g id="text_1">
      <!-- 0 -->
      <g transform="translate(52.51 326.7415)scale(0.16 -0.16)">
       <defs>
        <path d="M 2034 4250 
Q 1547 4250 1301 3770 
Q 1056 3291 1056 2328 
Q 1056 1369 1301 889 
Q 1547 409 2034 409 
Q 2525 409 2770 889 
Q 3016 1369 3016 2328 
Q 3016 3291 2770 3770 
Q 2525 4250 2034 4250 
z
M 2034 4750 
Q 2819 4750 3233 4129 
Q 3647 3509 3647 2328 
Q 3647 1150 3233 529 
Q 2819 -91 2034 -91 
Q 1250 -91 836 529 
Q 422 1150 422 2328 
Q 422 3509 836 4129 
Q 1250 4750 2034 4750 
z
" id="DejaVuSans-30" transform="scale(0.015625)"/>
       </defs>
       <use xlink:href="#DejaVuSans-30"/>
      </g>
     </g>
    </g>
    <g id="xtick_2">
     <g id="line2d_3">
      <path clip-path="url(#pcfb118fe21)" d="M 146.88 307.584 
L 146.88 41.472 
" style="fill:none;stroke:#b0b0b0;stroke-linecap:square;stroke-width:0.8;"/>
     </g>
     <g id="line2d_4">
      <g>
       <use style="stroke:#000000;stroke-width:0.8;" x="146.88" xlink:href="#m2fc2e8dd5f" y="307.584"/>
      </g>
     </g>
     <g id="text_2">
      <!-- 1000 -->
      <g transform="translate(126.52 326.7415)scale(0.16 -0.16)">
       <defs>
        <path d="M 794 531 
L 1825 531 
L 1825 4091 
L 703 3866 
L 703 4441 
L 1819 4666 
L 2450 4666 
L 2450 531 
L 3481 531 
L 3481 0 
L 794 0 
L 794 531 
z
" id="DejaVuSans-31" transform="scale(0.015625)"/>
       </defs>
       <use xlink:href="#DejaVuSans-31"/>
       <use x="63.623047" xlink:href="#DejaVuSans-30"/>
       <use x="127.246094" xlink:href="#DejaVuSans-30"/>
       <use x="190.869141" xlink:href="#DejaVuSans-30"/>
      </g>
     </g>
    </g>
    <g id="xtick_3">
     <g id="line2d_5">
      <path clip-path="url(#pcfb118fe21)" d="M 236.16 307.584 
L 236.16 41.472 
" style="fill:none;stroke:#b0b0b0;stroke-linecap:square;stroke-width:0.8;"/>
     </g>
     <g id="line2d_6">
      <g>
       <use style="stroke:#000000;stroke-width:0.8;" x="236.16" xlink:href="#m2fc2e8dd5f" y="307.584"/>
      </g>
     </g>
     <g id="text_3">
      <!-- 2000 -->
      <g transform="translate(215.8 326.7415)scale(0.16 -0.16)">
       <defs>
        <path d="M 1228 531 
L 3431 531 
L 3431 0 
L 469 0 
L 469 531 
Q 828 903 1448 1529 
Q 2069 2156 2228 2338 
Q 2531 2678 2651 2914 
Q 2772 3150 2772 3378 
Q 2772 3750 2511 3984 
Q 2250 4219 1831 4219 
Q 1534 4219 1204 4116 
Q 875 4013 500 3803 
L 500 4441 
Q 881 4594 1212 4672 
Q 1544 4750 1819 4750 
Q 2544 4750 2975 4387 
Q 3406 4025 3406 3419 
Q 3406 3131 3298 2873 
Q 3191 2616 2906 2266 
Q 2828 2175 2409 1742 
Q 1991 1309 1228 531 
z
" id="DejaVuSans-32" transform="scale(0.015625)"/>
       </defs>
       <use xlink:href="#DejaVuSans-32"/>
       <use x="63.623047" xlink:href="#DejaVuSans-30"/>
       <use x="127.246094" xlink:href="#DejaVuSans-30"/>
       <use x="190.869141" xlink:href="#DejaVuSans-30"/>
      </g>
     </g>
    </g>
    <g id="xtick_4">
     <g id="line2d_7">
      <path clip-path="url(#pcfb118fe21)" d="M 325.44 307.584 
L 325.44 41.472 
" style="fill:none;stroke:#b0b0b0;stroke-linecap:square;stroke-width:0.8;"/>
     </g>
     <g id="line2d_8">
      <g>
       <use style="stroke:#000000;stroke-width:0.8;" x="325.44" xlink:href="#m2fc2e8dd5f" y="307.584"/>
      </g>
     </g>
     <g id="text_4">
      <!-- 3000 -->
      <g transform="translate(305.08 326.7415)scale(0.16 -0.16)">
       <defs>
        <path d="M 2597 2516 
Q 3050 2419 3304 2112 
Q 3559 1806 3559 1356 
Q 3559 666 3084 287 
Q 2609 -91 1734 -91 
Q 1441 -91 1130 -33 
Q 819 25 488 141 
L 488 750 
Q 750 597 1062 519 
Q 1375 441 1716 441 
Q 2309 441 2620 675 
Q 2931 909 2931 1356 
Q 2931 1769 2642 2001 
Q 2353 2234 1838 2234 
L 1294 2234 
L 1294 2753 
L 1863 2753 
Q 2328 2753 2575 2939 
Q 2822 3125 2822 3475 
Q 2822 3834 2567 4026 
Q 2313 4219 1838 4219 
Q 1578 4219 1281 4162 
Q 984 4106 628 3988 
L 628 4550 
Q 988 4650 1302 4700 
Q 1616 4750 1894 4750 
Q 2613 4750 3031 4423 
Q 3450 4097 3450 3541 
Q 3450 3153 3228 2886 
Q 3006 2619 2597 2516 
z
" id="DejaVuSans-33" transform="scale(0.015625)"/>
       </defs>
       <use xlink:href="#DejaVuSans-33"/>
       <use x="63.623047" xlink:href="#DejaVuSans-30"/>
       <use x="127.246094" xlink:href="#DejaVuSans-30"/>
       <use x="190.869141" xlink:href="#DejaVuSans-30"/>
      </g>
     </g>
    </g>
    <g id="xtick_5">
     <g id="line2d_9">
      <path clip-path="url(#pcfb118fe21)" d="M 414.72 307.584 
L 414.72 41.472 
" style="fill:none;stroke:#b0b0b0;stroke-linecap:square;stroke-width:0.8;"/>
     </g>
     <g id="line2d_10">
      <g>
       <use style="stroke:#000000;stroke-width:0.8;" x="414.72" xlink:href="#m2fc2e8dd5f" y="307.584"/>
      </g>
     </g>
     <g id="text_5">
      <!-- 4000 -->
      <g transform="translate(394.36 326.7415)scale(0.16 -0.16)">
       <defs>
        <path d="M 2419 4116 
L 825 1625 
L 2419 1625 
L 2419 4116 
z
M 2253 4666 
L 3047 4666 
L 3047 1625 
L 3713 1625 
L 3713 1100 
L 3047 1100 
L 3047 0 
L 2419 0 
L 2419 1100 
L 313 1100 
L 313 1709 
L 2253 4666 
z
" id="DejaVuSans-34" transform="scale(0.015625)"/>
       </defs>
       <use xlink:href="#DejaVuSans-34"/>
       <use x="63.623047" xlink:href="#DejaVuSans-30"/>
       <use x="127.246094" xlink:href="#DejaVuSans-30"/>
       <use x="190.869141" xlink:href="#DejaVuSans-30"/>
      </g>
     </g>
    </g>
    <g id="text_6">
     <!-- Episodes -->
     <g transform="translate(200.5725 346.2265)scale(0.16 -0.16)">
      <defs>
       <path d="M 628 4666 
L 3578 4666 
L 3578 4134 
L 1259 4134 
L 1259 2753 
L 3481 2753 
L 3481 2222 
L 1259 2222 
L 1259 531 
L 3634 531 
L 3634 0 
L 628 0 
L 628 4666 
z
" id="DejaVuSans-45" transform="scale(0.015625)"/>
       <path d="M 1159 525 
L 1159 -1331 
L 581 -1331 
L 581 3500 
L 1159 3500 
L 1159 2969 
Q 1341 3281 1617 3432 
Q 1894 3584 2278 3584 
Q 2916 3584 3314 3078 
Q 3713 2572 3713 1747 
Q 3713 922 3314 415 
Q 2916 -91 2278 -91 
Q 1894 -91 1617 61 
Q 1341 213 1159 525 
z
M 3116 1747 
Q 3116 2381 2855 2742 
Q 2594 3103 2138 3103 
Q 1681 3103 1420 2742 
Q 1159 2381 1159 1747 
Q 1159 1113 1420 752 
Q 1681 391 2138 391 
Q 2594 391 2855 752 
Q 3116 1113 3116 1747 
z
" id="DejaVuSans-70" transform="scale(0.015625)"/>
       <path d="M 603 3500 
L 1178 3500 
L 1178 0 
L 603 0 
L 603 3500 
z
M 603 4863 
L 1178 4863 
L 1178 4134 
L 603 4134 
L 603 4863 
z
" id="DejaVuSans-69" transform="scale(0.015625)"/>
       <path d="M 2834 3397 
L 2834 2853 
Q 2591 2978 2328 3040 
Q 2066 3103 1784 3103 
Q 1356 3103 1142 2972 
Q 928 2841 928 2578 
Q 928 2378 1081 2264 
Q 1234 2150 1697 2047 
L 1894 2003 
Q 2506 1872 2764 1633 
Q 3022 1394 3022 966 
Q 3022 478 2636 193 
Q 2250 -91 1575 -91 
Q 1294 -91 989 -36 
Q 684 19 347 128 
L 347 722 
Q 666 556 975 473 
Q 1284 391 1588 391 
Q 1994 391 2212 530 
Q 2431 669 2431 922 
Q 2431 1156 2273 1281 
Q 2116 1406 1581 1522 
L 1381 1569 
Q 847 1681 609 1914 
Q 372 2147 372 2553 
Q 372 3047 722 3315 
Q 1072 3584 1716 3584 
Q 2034 3584 2315 3537 
Q 2597 3491 2834 3397 
z
" id="DejaVuSans-73" transform="scale(0.015625)"/>
       <path d="M 1959 3097 
Q 1497 3097 1228 2736 
Q 959 2375 959 1747 
Q 959 1119 1226 758 
Q 1494 397 1959 397 
Q 2419 397 2687 759 
Q 2956 1122 2956 1747 
Q 2956 2369 2687 2733 
Q 2419 3097 1959 3097 
z
M 1959 3584 
Q 2709 3584 3137 3096 
Q 3566 2609 3566 1747 
Q 3566 888 3137 398 
Q 2709 -91 1959 -91 
Q 1206 -91 779 398 
Q 353 888 353 1747 
Q 353 2609 779 3096 
Q 1206 3584 1959 3584 
z
" id="DejaVuSans-6f" transform="scale(0.015625)"/>
       <path d="M 2906 2969 
L 2906 4863 
L 3481 4863 
L 3481 0 
L 2906 0 
L 2906 525 
Q 2725 213 2448 61 
Q 2172 -91 1784 -91 
Q 1150 -91 751 415 
Q 353 922 353 1747 
Q 353 2572 751 3078 
Q 1150 3584 1784 3584 
Q 2172 3584 2448 3432 
Q 2725 3281 2906 2969 
z
M 947 1747 
Q 947 1113 1208 752 
Q 1469 391 1925 391 
Q 2381 391 2643 752 
Q 2906 1113 2906 1747 
Q 2906 2381 2643 2742 
Q 2381 3103 1925 3103 
Q 1469 3103 1208 2742 
Q 947 2381 947 1747 
z
" id="DejaVuSans-64" transform="scale(0.015625)"/>
       <path d="M 3597 1894 
L 3597 1613 
L 953 1613 
Q 991 1019 1311 708 
Q 1631 397 2203 397 
Q 2534 397 2845 478 
Q 3156 559 3463 722 
L 3463 178 
Q 3153 47 2828 -22 
Q 2503 -91 2169 -91 
Q 1331 -91 842 396 
Q 353 884 353 1716 
Q 353 2575 817 3079 
Q 1281 3584 2069 3584 
Q 2775 3584 3186 3129 
Q 3597 2675 3597 1894 
z
M 3022 2063 
Q 3016 2534 2758 2815 
Q 2500 3097 2075 3097 
Q 1594 3097 1305 2825 
Q 1016 2553 972 2059 
L 3022 2063 
z
" id="DejaVuSans-65" transform="scale(0.015625)"/>
      </defs>
      <use xlink:href="#DejaVuSans-45"/>
      <use x="63.183594" xlink:href="#DejaVuSans-70"/>
      <use x="126.660156" xlink:href="#DejaVuSans-69"/>
      <use x="154.443359" xlink:href="#DejaVuSans-73"/>
      <use x="206.542969" xlink:href="#DejaVuSans-6f"/>
      <use x="267.724609" xlink:href="#DejaVuSans-64"/>
      <use x="331.201172" xlink:href="#DejaVuSans-65"/>
      <use x="392.724609" xlink:href="#DejaVuSans-73"/>
     </g>
    </g>
   </g>
   <g id="matplotlib.axis_2">
    <g id="ytick_1">
     <g id="line2d_11">
      <path clip-path="url(#pcfb118fe21)" d="M 57.6 286.604194 
L 414.72 286.604194 
" style="fill:none;stroke:#b0b0b0;stroke-linecap:square;stroke-width:0.8;"/>
     </g>
     <g id="line2d_12">
      <defs>
       <path d="M 0 0 
L -3.5 0 
" id="mf7f896d1f9" style="stroke:#000000;stroke-width:0.8;"/>
      </defs>
      <g>
       <use style="stroke:#000000;stroke-width:0.8;" x="57.6" xlink:href="#mf7f896d1f9" y="286.604194"/>
      </g>
     </g>
     <g id="text_7">
      <!-- −9000 -->
      <g transform="translate(-3.5275 292.682944)scale(0.16 -0.16)">
       <defs>
        <path d="M 678 2272 
L 4684 2272 
L 4684 1741 
L 678 1741 
L 678 2272 
z
" id="DejaVuSans-2212" transform="scale(0.015625)"/>
        <path d="M 703 97 
L 703 672 
Q 941 559 1184 500 
Q 1428 441 1663 441 
Q 2288 441 2617 861 
Q 2947 1281 2994 2138 
Q 2813 1869 2534 1725 
Q 2256 1581 1919 1581 
Q 1219 1581 811 2004 
Q 403 2428 403 3163 
Q 403 3881 828 4315 
Q 1253 4750 1959 4750 
Q 2769 4750 3195 4129 
Q 3622 3509 3622 2328 
Q 3622 1225 3098 567 
Q 2575 -91 1691 -91 
Q 1453 -91 1209 -44 
Q 966 3 703 97 
z
M 1959 2075 
Q 2384 2075 2632 2365 
Q 2881 2656 2881 3163 
Q 2881 3666 2632 3958 
Q 2384 4250 1959 4250 
Q 1534 4250 1286 3958 
Q 1038 3666 1038 3163 
Q 1038 2656 1286 2365 
Q 1534 2075 1959 2075 
z
" id="DejaVuSans-39" transform="scale(0.015625)"/>
       </defs>
       <use xlink:href="#DejaVuSans-2212"/>
       <use x="83.789062" xlink:href="#DejaVuSans-39"/>
       <use x="147.412109" xlink:href="#DejaVuSans-30"/>
       <use x="211.035156" xlink:href="#DejaVuSans-30"/>
       <use x="274.658203" xlink:href="#DejaVuSans-30"/>
      </g>
     </g>
    </g>
    <g id="ytick_2">
     <g id="line2d_13">
      <path clip-path="url(#pcfb118fe21)" d="M 57.6 246.472023 
L 414.72 246.472023 
" style="fill:none;stroke:#b0b0b0;stroke-linecap:square;stroke-width:0.8;"/>
     </g>
     <g id="line2d_14">
      <g>
       <use style="stroke:#000000;stroke-width:0.8;" x="57.6" xlink:href="#mf7f896d1f9" y="246.472023"/>
      </g>
     </g>
     <g id="text_8">
      <!-- −8000 -->
      <g transform="translate(-3.5275 252.550773)scale(0.16 -0.16)">
       <defs>
        <path d="M 2034 2216 
Q 1584 2216 1326 1975 
Q 1069 1734 1069 1313 
Q 1069 891 1326 650 
Q 1584 409 2034 409 
Q 2484 409 2743 651 
Q 3003 894 3003 1313 
Q 3003 1734 2745 1975 
Q 2488 2216 2034 2216 
z
M 1403 2484 
Q 997 2584 770 2862 
Q 544 3141 544 3541 
Q 544 4100 942 4425 
Q 1341 4750 2034 4750 
Q 2731 4750 3128 4425 
Q 3525 4100 3525 3541 
Q 3525 3141 3298 2862 
Q 3072 2584 2669 2484 
Q 3125 2378 3379 2068 
Q 3634 1759 3634 1313 
Q 3634 634 3220 271 
Q 2806 -91 2034 -91 
Q 1263 -91 848 271 
Q 434 634 434 1313 
Q 434 1759 690 2068 
Q 947 2378 1403 2484 
z
M 1172 3481 
Q 1172 3119 1398 2916 
Q 1625 2713 2034 2713 
Q 2441 2713 2670 2916 
Q 2900 3119 2900 3481 
Q 2900 3844 2670 4047 
Q 2441 4250 2034 4250 
Q 1625 4250 1398 4047 
Q 1172 3844 1172 3481 
z
" id="DejaVuSans-38" transform="scale(0.015625)"/>
       </defs>
       <use xlink:href="#DejaVuSans-2212"/>
       <use x="83.789062" xlink:href="#DejaVuSans-38"/>
       <use x="147.412109" xlink:href="#DejaVuSans-30"/>
       <use x="211.035156" xlink:href="#DejaVuSans-30"/>
       <use x="274.658203" xlink:href="#DejaVuSans-30"/>
      </g>
     </g>
    </g>
    <g id="ytick_3">
     <g id="line2d_15">
      <path clip-path="url(#pcfb118fe21)" d="M 57.6 206.339852 
L 414.72 206.339852 
" style="fill:none;stroke:#b0b0b0;stroke-linecap:square;stroke-width:0.8;"/>
     </g>
     <g id="line2d_16">
      <g>
       <use style="stroke:#000000;stroke-width:0.8;" x="57.6" xlink:href="#mf7f896d1f9" y="206.339852"/>
      </g>
     </g>
     <g id="text_9">
      <!-- −7000 -->
      <g transform="translate(-3.5275 212.418602)scale(0.16 -0.16)">
       <defs>
        <path d="M 525 4666 
L 3525 4666 
L 3525 4397 
L 1831 0 
L 1172 0 
L 2766 4134 
L 525 4134 
L 525 4666 
z
" id="DejaVuSans-37" transform="scale(0.015625)"/>
       </defs>
       <use xlink:href="#DejaVuSans-2212"/>
       <use x="83.789062" xlink:href="#DejaVuSans-37"/>
       <use x="147.412109" xlink:href="#DejaVuSans-30"/>
       <use x="211.035156" xlink:href="#DejaVuSans-30"/>
       <use x="274.658203" xlink:href="#DejaVuSans-30"/>
      </g>
     </g>
    </g>
    <g id="ytick_4">
     <g id="line2d_17">
      <path clip-path="url(#pcfb118fe21)" d="M 57.6 166.207681 
L 414.72 166.207681 
" style="fill:none;stroke:#b0b0b0;stroke-linecap:square;stroke-width:0.8;"/>
     </g>
     <g id="line2d_18">
      <g>
       <use style="stroke:#000000;stroke-width:0.8;" x="57.6" xlink:href="#mf7f896d1f9" y="166.207681"/>
      </g>
     </g>
     <g id="text_10">
      <!-- −6000 -->
      <g transform="translate(-3.5275 172.286431)scale(0.16 -0.16)">
       <defs>
        <path d="M 2113 2584 
Q 1688 2584 1439 2293 
Q 1191 2003 1191 1497 
Q 1191 994 1439 701 
Q 1688 409 2113 409 
Q 2538 409 2786 701 
Q 3034 994 3034 1497 
Q 3034 2003 2786 2293 
Q 2538 2584 2113 2584 
z
M 3366 4563 
L 3366 3988 
Q 3128 4100 2886 4159 
Q 2644 4219 2406 4219 
Q 1781 4219 1451 3797 
Q 1122 3375 1075 2522 
Q 1259 2794 1537 2939 
Q 1816 3084 2150 3084 
Q 2853 3084 3261 2657 
Q 3669 2231 3669 1497 
Q 3669 778 3244 343 
Q 2819 -91 2113 -91 
Q 1303 -91 875 529 
Q 447 1150 447 2328 
Q 447 3434 972 4092 
Q 1497 4750 2381 4750 
Q 2619 4750 2861 4703 
Q 3103 4656 3366 4563 
z
" id="DejaVuSans-36" transform="scale(0.015625)"/>
       </defs>
       <use xlink:href="#DejaVuSans-2212"/>
       <use x="83.789062" xlink:href="#DejaVuSans-36"/>
       <use x="147.412109" xlink:href="#DejaVuSans-30"/>
       <use x="211.035156" xlink:href="#DejaVuSans-30"/>
       <use x="274.658203" xlink:href="#DejaVuSans-30"/>
      </g>
     </g>
    </g>
    <g id="ytick_5">
     <g id="line2d_19">
      <path clip-path="url(#pcfb118fe21)" d="M 57.6 126.075511 
L 414.72 126.075511 
" style="fill:none;stroke:#b0b0b0;stroke-linecap:square;stroke-width:0.8;"/>
     </g>
     <g id="line2d_20">
      <g>
       <use style="stroke:#000000;stroke-width:0.8;" x="57.6" xlink:href="#mf7f896d1f9" y="126.075511"/>
      </g>
     </g>
     <g id="text_11">
      <!-- −5000 -->
      <g transform="translate(-3.5275 132.154261)scale(0.16 -0.16)">
       <defs>
        <path d="M 691 4666 
L 3169 4666 
L 3169 4134 
L 1269 4134 
L 1269 2991 
Q 1406 3038 1543 3061 
Q 1681 3084 1819 3084 
Q 2600 3084 3056 2656 
Q 3513 2228 3513 1497 
Q 3513 744 3044 326 
Q 2575 -91 1722 -91 
Q 1428 -91 1123 -41 
Q 819 9 494 109 
L 494 744 
Q 775 591 1075 516 
Q 1375 441 1709 441 
Q 2250 441 2565 725 
Q 2881 1009 2881 1497 
Q 2881 1984 2565 2268 
Q 2250 2553 1709 2553 
Q 1456 2553 1204 2497 
Q 953 2441 691 2322 
L 691 4666 
z
" id="DejaVuSans-35" transform="scale(0.015625)"/>
       </defs>
       <use xlink:href="#DejaVuSans-2212"/>
       <use x="83.789062" xlink:href="#DejaVuSans-35"/>
       <use x="147.412109" xlink:href="#DejaVuSans-30"/>
       <use x="211.035156" xlink:href="#DejaVuSans-30"/>
       <use x="274.658203" xlink:href="#DejaVuSans-30"/>
      </g>
     </g>
    </g>
    <g id="ytick_6">
     <g id="line2d_21">
      <path clip-path="url(#pcfb118fe21)" d="M 57.6 85.94334 
L 414.72 85.94334 
" style="fill:none;stroke:#b0b0b0;stroke-linecap:square;stroke-width:0.8;"/>
     </g>
     <g id="line2d_22">
      <g>
       <use style="stroke:#000000;stroke-width:0.8;" x="57.6" xlink:href="#mf7f896d1f9" y="85.94334"/>
      </g>
     </g>
     <g id="text_12">
      <!-- −4000 -->
      <g transform="translate(-3.5275 92.02209)scale(0.16 -0.16)">
       <use xlink:href="#DejaVuSans-2212"/>
       <use x="83.789062" xlink:href="#DejaVuSans-34"/>
       <use x="147.412109" xlink:href="#DejaVuSans-30"/>
       <use x="211.035156" xlink:href="#DejaVuSans-30"/>
       <use x="274.658203" xlink:href="#DejaVuSans-30"/>
      </g>
     </g>
    </g>
    <g id="ytick_7">
     <g id="line2d_23">
      <path clip-path="url(#pcfb118fe21)" d="M 57.6 45.811169 
L 414.72 45.811169 
" style="fill:none;stroke:#b0b0b0;stroke-linecap:square;stroke-width:0.8;"/>
     </g>
     <g id="line2d_24">
      <g>
       <use style="stroke:#000000;stroke-width:0.8;" x="57.6" xlink:href="#mf7f896d1f9" y="45.811169"/>
      </g>
     </g>
     <g id="text_13">
      <!-- −3000 -->
      <g transform="translate(-3.5275 51.889919)scale(0.16 -0.16)">
       <use xlink:href="#DejaVuSans-2212"/>
       <use x="83.789062" xlink:href="#DejaVuSans-33"/>
       <use x="147.412109" xlink:href="#DejaVuSans-30"/>
       <use x="211.035156" xlink:href="#DejaVuSans-30"/>
       <use x="274.658203" xlink:href="#DejaVuSans-30"/>
      </g>
     </g>
    </g>
    <g id="text_14">
     <!-- Cumulative Reward -->
     <g transform="translate(-10.855 252.52425)rotate(-90)scale(0.16 -0.16)">
      <defs>
       <path d="M 4122 4306 
L 4122 3641 
Q 3803 3938 3442 4084 
Q 3081 4231 2675 4231 
Q 1875 4231 1450 3742 
Q 1025 3253 1025 2328 
Q 1025 1406 1450 917 
Q 1875 428 2675 428 
Q 3081 428 3442 575 
Q 3803 722 4122 1019 
L 4122 359 
Q 3791 134 3420 21 
Q 3050 -91 2638 -91 
Q 1578 -91 968 557 
Q 359 1206 359 2328 
Q 359 3453 968 4101 
Q 1578 4750 2638 4750 
Q 3056 4750 3426 4639 
Q 3797 4528 4122 4306 
z
" id="DejaVuSans-43" transform="scale(0.015625)"/>
       <path d="M 544 1381 
L 544 3500 
L 1119 3500 
L 1119 1403 
Q 1119 906 1312 657 
Q 1506 409 1894 409 
Q 2359 409 2629 706 
Q 2900 1003 2900 1516 
L 2900 3500 
L 3475 3500 
L 3475 0 
L 2900 0 
L 2900 538 
Q 2691 219 2414 64 
Q 2138 -91 1772 -91 
Q 1169 -91 856 284 
Q 544 659 544 1381 
z
M 1991 3584 
L 1991 3584 
z
" id="DejaVuSans-75" transform="scale(0.015625)"/>
       <path d="M 3328 2828 
Q 3544 3216 3844 3400 
Q 4144 3584 4550 3584 
Q 5097 3584 5394 3201 
Q 5691 2819 5691 2113 
L 5691 0 
L 5113 0 
L 5113 2094 
Q 5113 2597 4934 2840 
Q 4756 3084 4391 3084 
Q 3944 3084 3684 2787 
Q 3425 2491 3425 1978 
L 3425 0 
L 2847 0 
L 2847 2094 
Q 2847 2600 2669 2842 
Q 2491 3084 2119 3084 
Q 1678 3084 1418 2786 
Q 1159 2488 1159 1978 
L 1159 0 
L 581 0 
L 581 3500 
L 1159 3500 
L 1159 2956 
Q 1356 3278 1631 3431 
Q 1906 3584 2284 3584 
Q 2666 3584 2933 3390 
Q 3200 3197 3328 2828 
z
" id="DejaVuSans-6d" transform="scale(0.015625)"/>
       <path d="M 603 4863 
L 1178 4863 
L 1178 0 
L 603 0 
L 603 4863 
z
" id="DejaVuSans-6c" transform="scale(0.015625)"/>
       <path d="M 2194 1759 
Q 1497 1759 1228 1600 
Q 959 1441 959 1056 
Q 959 750 1161 570 
Q 1363 391 1709 391 
Q 2188 391 2477 730 
Q 2766 1069 2766 1631 
L 2766 1759 
L 2194 1759 
z
M 3341 1997 
L 3341 0 
L 2766 0 
L 2766 531 
Q 2569 213 2275 61 
Q 1981 -91 1556 -91 
Q 1019 -91 701 211 
Q 384 513 384 1019 
Q 384 1609 779 1909 
Q 1175 2209 1959 2209 
L 2766 2209 
L 2766 2266 
Q 2766 2663 2505 2880 
Q 2244 3097 1772 3097 
Q 1472 3097 1187 3025 
Q 903 2953 641 2809 
L 641 3341 
Q 956 3463 1253 3523 
Q 1550 3584 1831 3584 
Q 2591 3584 2966 3190 
Q 3341 2797 3341 1997 
z
" id="DejaVuSans-61" transform="scale(0.015625)"/>
       <path d="M 1172 4494 
L 1172 3500 
L 2356 3500 
L 2356 3053 
L 1172 3053 
L 1172 1153 
Q 1172 725 1289 603 
Q 1406 481 1766 481 
L 2356 481 
L 2356 0 
L 1766 0 
Q 1100 0 847 248 
Q 594 497 594 1153 
L 594 3053 
L 172 3053 
L 172 3500 
L 594 3500 
L 594 4494 
L 1172 4494 
z
" id="DejaVuSans-74" transform="scale(0.015625)"/>
       <path d="M 191 3500 
L 800 3500 
L 1894 563 
L 2988 3500 
L 3597 3500 
L 2284 0 
L 1503 0 
L 191 3500 
z
" id="DejaVuSans-76" transform="scale(0.015625)"/>
       <path id="DejaVuSans-20" transform="scale(0.015625)"/>
       <path d="M 2841 2188 
Q 3044 2119 3236 1894 
Q 3428 1669 3622 1275 
L 4263 0 
L 3584 0 
L 2988 1197 
Q 2756 1666 2539 1819 
Q 2322 1972 1947 1972 
L 1259 1972 
L 1259 0 
L 628 0 
L 628 4666 
L 2053 4666 
Q 2853 4666 3247 4331 
Q 3641 3997 3641 3322 
Q 3641 2881 3436 2590 
Q 3231 2300 2841 2188 
z
M 1259 4147 
L 1259 2491 
L 2053 2491 
Q 2509 2491 2742 2702 
Q 2975 2913 2975 3322 
Q 2975 3731 2742 3939 
Q 2509 4147 2053 4147 
L 1259 4147 
z
" id="DejaVuSans-52" transform="scale(0.015625)"/>
       <path d="M 269 3500 
L 844 3500 
L 1563 769 
L 2278 3500 
L 2956 3500 
L 3675 769 
L 4391 3500 
L 4966 3500 
L 4050 0 
L 3372 0 
L 2619 2869 
L 1863 0 
L 1184 0 
L 269 3500 
z
" id="DejaVuSans-77" transform="scale(0.015625)"/>
       <path d="M 2631 2963 
Q 2534 3019 2420 3045 
Q 2306 3072 2169 3072 
Q 1681 3072 1420 2755 
Q 1159 2438 1159 1844 
L 1159 0 
L 581 0 
L 581 3500 
L 1159 3500 
L 1159 2956 
Q 1341 3275 1631 3429 
Q 1922 3584 2338 3584 
Q 2397 3584 2469 3576 
Q 2541 3569 2628 3553 
L 2631 2963 
z
" id="DejaVuSans-72" transform="scale(0.015625)"/>
      </defs>
      <use xlink:href="#DejaVuSans-43"/>
      <use x="69.824219" xlink:href="#DejaVuSans-75"/>
      <use x="133.203125" xlink:href="#DejaVuSans-6d"/>
      <use x="230.615234" xlink:href="#DejaVuSans-75"/>
      <use x="293.994141" xlink:href="#DejaVuSans-6c"/>
      <use x="321.777344" xlink:href="#DejaVuSans-61"/>
      <use x="383.056641" xlink:href="#DejaVuSans-74"/>
      <use x="422.265625" xlink:href="#DejaVuSans-69"/>
      <use x="450.048828" xlink:href="#DejaVuSans-76"/>
      <use x="509.228516" xlink:href="#DejaVuSans-65"/>
      <use x="570.751953" xlink:href="#DejaVuSans-20"/>
      <use x="602.539062" xlink:href="#DejaVuSans-52"/>
      <use x="667.521484" xlink:href="#DejaVuSans-65"/>
      <use x="729.044922" xlink:href="#DejaVuSans-77"/>
      <use x="810.832031" xlink:href="#DejaVuSans-61"/>
      <use x="872.111328" xlink:href="#DejaVuSans-72"/>
      <use x="911.474609" xlink:href="#DejaVuSans-64"/>
     </g>
    </g>
   </g>
   <g id="line2d_25">
    <path clip-path="url(#pcfb118fe21)" d="M 57.6 169.541354 
L 57.77856 137.942264 
L 57.86784 148.635048 
L 57.95712 169.541354 
L 58.13568 137.942264 
L 58.22496 148.635048 
L 58.31424 169.541354 
L 58.4928 137.942264 
L 58.58208 148.635048 
L 58.67136 169.541354 
L 58.84992 137.942264 
L 58.9392 148.635048 
L 59.02848 169.541354 
L 59.20704 137.942264 
L 59.29632 148.635048 
L 59.3856 169.541354 
L 59.56416 137.942264 
L 59.65344 148.635048 
L 59.74272 169.541354 
L 59.92128 137.942264 
L 60.01056 148.635048 
L 60.09984 169.541354 
L 60.2784 137.942264 
L 60.36768 148.635048 
L 60.45696 169.541354 
L 60.63552 137.942264 
L 60.7248 148.635048 
L 60.81408 169.541354 
L 60.99264 137.942264 
L 61.08192 148.635048 
L 61.1712 169.541354 
L 61.34976 137.942264 
L 61.43904 148.635048 
L 61.52832 169.541354 
L 61.70688 137.942264 
L 61.79616 148.635048 
L 61.88544 169.541354 
L 62.064 137.942264 
L 62.15328 148.635048 
L 62.24256 169.541354 
L 62.42112 137.942264 
L 62.5104 148.635048 
L 62.59968 169.541354 
L 62.77824 137.942264 
L 62.86752 148.635048 
L 62.9568 169.541354 
L 63.13536 137.942264 
L 63.22464 148.635048 
L 63.31392 169.541354 
L 63.49248 137.942264 
L 63.58176 148.635048 
L 63.67104 169.541354 
L 63.8496 137.942264 
L 63.93888 148.635048 
L 64.02816 169.541354 
L 64.20672 137.942264 
L 64.296 148.635048 
L 64.38528 169.541354 
L 64.56384 137.942264 
L 64.65312 148.635048 
L 64.7424 169.541354 
L 64.92096 137.942264 
L 65.01024 148.635048 
L 65.09952 169.541354 
L 65.27808 137.942264 
L 65.36736 148.635048 
L 65.45664 169.541354 
L 65.6352 137.942264 
L 65.72448 148.635048 
L 65.81376 169.541354 
L 65.99232 137.942264 
L 66.0816 148.635048 
L 66.17088 169.541354 
L 66.528 127.071486 
L 66.61728 239.361103 
L 66.70656 85.69792 
L 66.79584 150.205087 
L 66.88512 141.584279 
L 66.9744 162.813548 
L 67.06368 160.443008 
L 67.15296 173.741448 
L 67.33152 108.375037 
L 67.4208 177.301112 
L 67.51008 170.231737 
L 67.59936 87.599179 
L 67.68864 99.5991 
L 67.77792 152.911761 
L 67.8672 140.936352 
L 67.95648 116.395076 
L 68.04576 180.549214 
L 68.13504 169.90207 
L 68.22432 151.98703 
L 68.3136 111.037599 
L 68.40288 145.248232 
L 68.49216 100.784712 
L 68.67072 197.390769 
L 68.76 176.523952 
L 68.84928 130.980771 
L 68.93856 138.142103 
L 69.11712 159.891961 
L 69.2064 120.66951 
L 69.38496 150.287616 
L 69.47424 143.325873 
L 69.56352 171.497229 
L 69.6528 285.408 
L 69.83136 124.550037 
L 70.00992 137.152313 
L 70.0992 172.780265 
L 70.18848 159.512176 
L 70.27776 173.335298 
L 70.45632 132.248818 
L 70.5456 158.05153 
L 70.63488 149.808988 
L 70.72416 191.69188 
L 70.90272 152.758205 
L 70.992 159.890757 
L 71.08128 147.786835 
L 71.17056 218.684669 
L 71.34912 114.20718 
L 71.4384 98.435111 
L 71.61696 150.681702 
L 71.70624 135.37293 
L 71.8848 166.561423 
L 71.97408 161.924576 
L 72.06336 185.275258 
L 72.15264 146.077053 
L 72.24192 177.66306 
L 72.3312 130.889464 
L 72.68832 186.194655 
L 72.86688 142.176963 
L 72.95616 169.201591 
L 73.04544 104.640386 
L 73.224 165.673314 
L 73.40256 178.219153 
L 73.49184 137.463691 
L 73.58112 175.972276 
L 73.84896 129.062747 
L 73.93824 160.524003 
L 74.02752 129.013059 
L 74.1168 185.776337 
L 74.20608 123.449946 
L 74.29536 211.361018 
L 74.38464 204.494653 
L 74.47392 120.126056 
L 74.5632 175.630829 
L 74.65248 127.530225 
L 74.74176 176.173193 
L 74.83104 148.53831 
L 74.92032 171.846528 
L 75.0096 119.31418 
L 75.09888 158.035648 
L 75.18816 147.907705 
L 75.27744 118.096167 
L 75.36672 185.750893 
L 75.54528 122.642607 
L 75.63456 159.944088 
L 75.9024 118.571839 
L 75.99168 180.597181 
L 76.08096 116.970164 
L 76.17024 129.057324 
L 76.25952 115.130758 
L 76.43808 155.583964 
L 76.61664 111.102563 
L 76.70592 118.318422 
L 76.7952 136.769707 
L 76.88448 135.990721 
L 77.06304 152.008843 
L 77.15232 139.608365 
L 77.2416 202.822627 
L 77.33088 192.303867 
L 77.50944 109.345445 
L 77.59872 124.465466 
L 77.77728 143.268122 
L 77.86656 166.845022 
L 78.04512 125.026075 
L 78.1344 91.309638 
L 78.31296 179.147192 
L 78.49152 119.435049 
L 78.5808 199.876311 
L 78.67008 141.370481 
L 78.75936 141.416483 
L 78.84864 138.745294 
L 78.93792 146.048392 
L 79.0272 114.705159 
L 79.11648 115.26603 
L 79.20576 122.698015 
L 79.29504 100.486852 
L 79.38432 163.556157 
L 79.4736 127.951147 
L 79.65216 160.093113 
L 79.83072 111.431775 
L 79.92 144.430959 
L 80.00928 139.089463 
L 80.09856 126.873528 
L 80.27712 185.060811 
L 80.3664 179.361089 
L 80.45568 139.184569 
L 80.54496 143.740698 
L 80.63424 147.14075 
L 80.72352 187.562356 
L 80.90208 116.645005 
L 80.99136 132.551884 
L 81.08064 210.909519 
L 81.43776 113.844042 
L 81.52704 151.98862 
L 81.61632 132.874648 
L 81.7056 205.553387 
L 81.88416 120.796543 
L 81.97344 176.9056 
L 82.24128 142.592874 
L 82.33056 158.819891 
L 82.41984 123.735896 
L 82.5984 201.922981 
L 82.77696 127.292945 
L 82.95552 116.753219 
L 83.13408 154.355309 
L 83.22336 96.055939 
L 83.40192 165.274724 
L 83.4912 165.470954 
L 83.66976 146.992667 
L 83.9376 200.458939 
L 84.02688 114.301432 
L 84.20544 185.227797 
L 84.29472 105.160028 
L 84.384 204.231413 
L 84.47328 132.136215 
L 84.56256 149.498309 
L 84.65184 140.656755 
L 84.74112 207.165257 
L 85.09824 135.204773 
L 85.18752 180.09095 
L 85.36608 115.107949 
L 85.45536 165.811835 
L 85.54464 147.094197 
L 85.63392 157.285149 
L 85.7232 141.017612 
L 85.81248 165.353984 
L 85.90176 163.348764 
L 85.99104 125.041295 
L 86.08032 129.769668 
L 86.1696 126.003639 
L 86.25888 171.171877 
L 86.34816 148.588412 
L 86.43744 194.107905 
L 86.616 113.686931 
L 86.70528 137.32932 
L 86.79456 205.817084 
L 86.97312 125.34158 
L 87.0624 168.010214 
L 87.15168 131.854219 
L 87.24096 146.877071 
L 87.33024 121.024801 
L 87.41952 123.157949 
L 87.5088 137.725422 
L 87.59808 118.01267 
L 87.68736 158.026803 
L 87.77664 125.852935 
L 87.86592 161.89553 
L 87.9552 129.002079 
L 88.22304 181.718202 
L 88.31232 139.364178 
L 88.49088 182.990457 
L 88.58016 188.51942 
L 88.66944 214.567619 
L 88.75872 155.402311 
L 88.848 157.279083 
L 88.93728 181.252992 
L 89.02656 90.674658 
L 89.20512 194.447411 
L 89.2944 132.473373 
L 89.38368 165.554702 
L 89.47296 155.618786 
L 89.65152 112.523303 
L 89.7408 185.719234 
L 89.91936 110.271145 
L 90.00864 174.242385 
L 90.09792 134.675703 
L 90.1872 141.267423 
L 90.27648 144.956295 
L 90.36576 138.611285 
L 90.45504 159.947958 
L 90.54432 141.104747 
L 90.6336 167.566033 
L 90.72288 167.403482 
L 90.81216 120.355929 
L 91.08 166.743427 
L 91.25856 141.289381 
L 91.43712 172.811578 
L 91.5264 118.098213 
L 91.70496 159.27164 
L 91.79424 148.946889 
L 91.88352 153.346842 
L 92.06208 128.645659 
L 92.15136 153.853459 
L 92.24064 105.820899 
L 92.4192 171.114707 
L 92.59776 119.192598 
L 92.77632 129.423746 
L 92.8656 124.614402 
L 92.95488 153.899066 
L 93.04416 111.567634 
L 93.22272 170.785617 
L 93.40128 143.585596 
L 93.49056 151.403193 
L 93.7584 83.948696 
L 94.29408 175.345368 
L 94.38336 140.301274 
L 94.56192 184.837967 
L 94.6512 103.237749 
L 94.74048 170.826173 
L 94.82976 159.690289 
L 94.91904 119.011799 
L 95.0976 171.761477 
L 95.27616 135.942402 
L 95.36544 136.686124 
L 95.45472 87.319837 
L 95.544 166.674237 
L 95.72256 97.906519 
L 95.81184 131.822243 
L 95.90112 249.443928 
L 96.07968 169.73303 
L 96.34752 117.304718 
L 96.4368 267.342764 
L 96.61536 132.645751 
L 96.70464 99.228239 
L 96.8832 180.042921 
L 97.15104 107.716245 
L 97.24032 152.606486 
L 97.3296 145.952481 
L 97.41888 165.752286 
L 97.50816 134.242835 
L 97.59744 184.29891 
L 97.68672 179.27901 
L 97.776 104.700345 
L 97.95456 147.259501 
L 98.13312 126.149808 
L 98.2224 174.575834 
L 98.31168 151.254801 
L 98.40096 228.346134 
L 98.49024 137.43714 
L 98.57952 178.634758 
L 98.6688 119.002266 
L 98.75808 207.912962 
L 98.84736 129.529473 
L 98.93664 151.726043 
L 99.02592 131.396343 
L 99.1152 134.124131 
L 99.29376 175.130143 
L 99.38304 119.473878 
L 99.47232 133.983318 
L 99.65088 168.907251 
L 99.74016 128.002562 
L 99.82944 158.047832 
L 99.91872 116.169217 
L 100.008 152.579955 
L 100.09728 148.560406 
L 100.18656 134.973256 
L 100.27584 137.494033 
L 100.4544 154.219854 
L 100.54368 139.000697 
L 100.72224 167.392292 
L 100.9008 162.033329 
L 101.07936 118.752239 
L 101.25792 182.316943 
L 101.3472 121.721894 
L 101.43648 166.583592 
L 101.52576 83.454313 
L 101.61504 160.272524 
L 101.70432 141.351575 
L 101.7936 239.920223 
L 101.97216 123.560481 
L 102.06144 165.432649 
L 102.24 121.204968 
L 102.32928 108.461479 
L 102.50784 142.687227 
L 102.59712 121.413046 
L 102.77568 161.3642 
L 102.86496 162.56068 
L 102.95424 192.150748 
L 103.04352 150.616113 
L 103.1328 167.766528 
L 103.22208 98.757104 
L 103.40064 164.409419 
L 103.66848 99.835157 
L 103.75776 136.706763 
L 103.93632 106.244875 
L 104.11488 177.198239 
L 104.38272 142.182665 
L 104.472 147.454076 
L 104.56128 90.952423 
L 104.65056 163.798121 
L 104.73984 115.282769 
L 104.82912 168.278663 
L 104.9184 134.674472 
L 105.00768 138.115361 
L 105.09696 143.418996 
L 105.18624 95.514668 
L 105.3648 127.675329 
L 105.45408 109.891831 
L 105.54336 165.640666 
L 105.63264 108.761571 
L 105.72192 141.219353 
L 105.90048 124.868184 
L 105.98976 130.188681 
L 106.07904 124.055423 
L 106.16832 153.44864 
L 106.2576 130.113203 
L 106.34688 137.016928 
L 106.43616 135.046439 
L 106.52544 163.856364 
L 106.704 134.263001 
L 106.88256 119.662655 
L 106.97184 157.886678 
L 107.06112 142.633288 
L 107.1504 162.375004 
L 107.23968 133.951365 
L 107.32896 217.23941 
L 107.50752 168.968439 
L 107.5968 183.248652 
L 107.68608 122.080288 
L 107.77536 135.025134 
L 107.86464 147.702004 
L 107.95392 147.014994 
L 108.0432 122.520115 
L 108.13248 127.796799 
L 108.22176 187.65704 
L 108.40032 137.467427 
L 108.4896 125.04722 
L 108.57888 156.193374 
L 108.66816 142.563119 
L 108.75744 102.8689 
L 108.84672 158.774693 
L 108.936 117.880336 
L 109.02528 151.481171 
L 109.20384 121.396866 
L 109.29312 136.153412 
L 109.47168 124.730264 
L 109.56096 146.855213 
L 109.65024 117.63722 
L 109.73952 168.954901 
L 109.8288 132.18038 
L 109.91808 196.690756 
L 110.00736 108.347602 
L 110.18592 150.556793 
L 110.2752 104.877869 
L 110.54304 215.037073 
L 110.63232 134.712539 
L 110.7216 139.027328 
L 110.98944 170.045454 
L 111.168 96.78692 
L 111.25728 122.158887 
L 111.34656 114.898103 
L 111.43584 114.979803 
L 111.52512 165.94603 
L 111.6144 155.615453 
L 111.70368 109.722891 
L 111.97152 151.534146 
L 112.0608 213.719457 
L 112.23936 123.455179 
L 112.32864 164.377718 
L 112.41792 152.720229 
L 112.5072 121.650027 
L 112.59648 151.457293 
L 112.68576 95.482542 
L 112.77504 141.190338 
L 112.86432 107.653848 
L 112.9536 167.591195 
L 113.04288 150.674346 
L 113.22144 160.009933 
L 113.4 134.804489 
L 113.48928 171.007065 
L 113.57856 136.497461 
L 113.66784 165.206828 
L 113.8464 92.877301 
L 114.11424 166.984332 
L 114.20352 121.231153 
L 114.2928 166.504444 
L 114.38208 118.488579 
L 114.47136 123.182046 
L 114.64992 168.583153 
L 114.7392 132.559391 
L 114.82848 191.682967 
L 114.91776 184.481661 
L 115.09632 93.74446 
L 115.27488 139.685658 
L 115.45344 142.578385 
L 115.54272 165.346039 
L 115.632 126.252116 
L 115.72128 126.934239 
L 115.81056 181.432895 
L 116.0784 90.051231 
L 116.25696 160.749985 
L 116.34624 121.275763 
L 116.43552 151.076067 
L 116.5248 94.739158 
L 116.61408 161.813324 
L 116.79264 101.742274 
L 116.88192 169.145307 
L 116.9712 135.026973 
L 117.06048 138.391954 
L 117.14976 112.358859 
L 117.23904 156.349298 
L 117.32832 103.555363 
L 117.50688 136.18483 
L 117.59616 76.63055 
L 117.68544 231.302345 
L 117.77472 146.446147 
L 117.864 153.471524 
L 117.95328 180.26262 
L 118.13184 113.53686 
L 118.39968 159.674416 
L 118.48896 90.245902 
L 118.7568 203.100086 
L 118.84608 125.411951 
L 119.02464 161.756936 
L 119.38176 92.213505 
L 119.47104 181.112791 
L 119.56032 80.209911 
L 119.73888 164.675754 
L 119.82816 159.682526 
L 119.91744 171.161092 
L 120.18528 86.289083 
L 120.27456 171.926948 
L 120.45312 92.478957 
L 120.63168 158.3167 
L 120.81024 125.466205 
L 120.9888 189.797101 
L 121.07808 142.916806 
L 121.16736 156.180271 
L 121.4352 127.995234 
L 121.52448 150.29599 
L 121.70304 122.770066 
L 121.79232 145.771243 
L 121.8816 97.37052 
L 121.97088 102.077114 
L 122.14944 162.172237 
L 122.23872 142.010438 
L 122.328 104.759071 
L 122.41728 109.837674 
L 122.50656 213.965246 
L 122.68512 104.013112 
L 122.7744 101.483846 
L 122.86368 132.594714 
L 122.95296 121.328489 
L 123.04224 131.330748 
L 123.13152 113.593473 
L 123.31008 192.739959 
L 123.48864 125.029645 
L 123.57792 132.244966 
L 123.6672 101.957729 
L 123.84576 118.052339 
L 123.93504 115.902553 
L 124.1136 158.506914 
L 124.20288 99.54576 
L 124.29216 108.602615 
L 124.56 172.284307 
L 124.73856 120.728575 
L 124.91712 170.813811 
L 125.0064 139.306545 
L 125.18496 159.926059 
L 125.27424 93.285531 
L 125.63136 192.821208 
L 125.8992 130.158993 
L 125.98848 139.732202 
L 126.16704 130.263859 
L 126.25632 97.728516 
L 126.3456 124.311244 
L 126.43488 113.137583 
L 126.52416 117.396061 
L 126.61344 108.560946 
L 126.70272 173.113709 
L 126.792 169.603364 
L 127.05984 107.020413 
L 127.2384 132.659724 
L 127.32768 123.469328 
L 127.41696 118.776414 
L 127.50624 156.739029 
L 127.59552 104.269673 
L 127.77408 163.315936 
L 127.86336 112.858183 
L 127.95264 121.665128 
L 128.04192 135.546388 
L 128.22048 114.892358 
L 128.39904 148.430707 
L 128.5776 118.258496 
L 128.66688 126.969995 
L 128.75616 124.050145 
L 128.84544 98.597253 
L 128.93472 117.963977 
L 129.024 100.922073 
L 129.11328 121.675416 
L 129.20256 100.274658 
L 129.29184 176.969474 
L 129.38112 92.990883 
L 129.4704 178.719997 
L 129.64896 101.453658 
L 129.82752 125.040442 
L 129.9168 137.784731 
L 130.00608 136.386575 
L 130.09536 147.347964 
L 130.18464 102.504613 
L 130.27392 222.676123 
L 130.3632 81.866447 
L 130.63104 149.573464 
L 130.8096 111.345019 
L 130.89888 114.806742 
L 131.34528 174.484336 
L 131.43456 100.362599 
L 131.52384 203.923208 
L 131.7024 113.706268 
L 131.79168 135.600472 
L 131.88096 118.855062 
L 131.97024 130.451381 
L 132.05952 116.239746 
L 132.23808 149.140327 
L 132.41664 95.608227 
L 132.50592 135.215504 
L 132.5952 109.582506 
L 132.68448 112.542144 
L 132.77376 97.766859 
L 132.86304 141.514025 
L 132.95232 104.579927 
L 133.0416 117.416823 
L 133.13088 111.486842 
L 133.22016 166.495911 
L 133.30944 100.990761 
L 133.39872 122.9401 
L 133.488 115.620838 
L 133.57728 149.947701 
L 133.66656 94.495532 
L 133.84512 140.201022 
L 133.9344 134.092613 
L 134.02368 105.302353 
L 134.20224 142.74564 
L 134.29152 114.454564 
L 134.47008 150.171019 
L 134.55936 111.023029 
L 134.73792 166.53776 
L 134.8272 97.286722 
L 134.91648 134.727807 
L 135.09504 106.24429 
L 135.18432 132.982854 
L 135.45216 93.250796 
L 135.54144 120.626969 
L 135.63072 87.752276 
L 135.72 168.744747 
L 135.89856 115.668432 
L 135.98784 114.482818 
L 136.07712 158.973366 
L 136.25568 102.186541 
L 136.43424 126.291166 
L 136.52352 128.03007 
L 136.6128 126.316438 
L 136.70208 130.733481 
L 136.79136 102.930133 
L 136.96992 138.828803 
L 137.0592 141.335722 
L 137.14848 99.607421 
L 137.23776 135.902137 
L 137.41632 95.221139 
L 137.68416 109.067 
L 137.77344 91.088877 
L 137.86272 134.355327 
L 138.13056 104.68256 
L 138.21984 158.891511 
L 138.3984 98.355572 
L 138.48768 152.041625 
L 138.57696 146.464646 
L 138.66624 140.377297 
L 138.75552 122.655579 
L 138.8448 145.385118 
L 139.02336 111.133013 
L 139.11264 92.178547 
L 139.2912 147.571223 
L 139.55904 107.850017 
L 139.64832 118.524137 
L 139.7376 178.452183 
L 139.82688 122.093873 
L 139.91616 134.547942 
L 140.00544 97.918091 
L 140.09472 103.411411 
L 140.184 110.336963 
L 140.36256 161.167565 
L 140.45184 84.813894 
L 140.54112 151.183751 
L 140.6304 122.618502 
L 140.80896 147.17317 
L 140.98752 121.062512 
L 141.16608 165.950012 
L 141.25536 96.977872 
L 141.43392 145.788131 
L 141.5232 124.6589 
L 141.61248 166.137488 
L 141.88032 98.741133 
L 141.9696 110.973476 
L 142.05888 102.71534 
L 142.14816 104.285071 
L 142.416 137.671513 
L 142.59456 105.001982 
L 142.68384 107.890118 
L 142.77312 141.078276 
L 142.8624 139.628593 
L 142.95168 116.823019 
L 143.04096 140.939966 
L 143.13024 140.065475 
L 143.21952 147.778952 
L 143.3088 127.237599 
L 143.48736 144.783404 
L 143.57664 138.980725 
L 143.66592 112.735662 
L 143.7552 115.924708 
L 143.93376 124.66325 
L 144.02304 99.910558 
L 144.11232 130.167524 
L 144.29088 107.678655 
L 144.38016 155.653377 
L 144.55872 104.44954 
L 144.648 119.822088 
L 144.73728 105.036961 
L 144.91584 157.636316 
L 145.00512 112.984379 
L 145.0944 141.3261 
L 145.18368 126.935138 
L 145.36224 155.96204 
L 145.45152 94.872817 
L 145.5408 133.40413 
L 145.63008 125.763236 
L 145.80864 81.662142 
L 145.89792 169.882117 
L 146.07648 117.807961 
L 146.16576 122.256865 
L 146.25504 102.75581 
L 146.34432 159.482564 
L 146.52288 81.577302 
L 146.61216 137.557851 
L 146.79072 107.027939 
L 147.05856 143.674026 
L 147.14784 179.922721 
L 147.3264 110.90998 
L 147.41568 138.617814 
L 147.50496 100.498191 
L 147.7728 148.471096 
L 147.86208 112.592754 
L 147.95136 120.140802 
L 148.04064 124.074012 
L 148.2192 158.65202 
L 148.30848 160.849324 
L 148.57632 121.534117 
L 148.6656 133.662789 
L 148.75488 123.099046 
L 148.84416 93.420656 
L 149.02272 148.369264 
L 149.112 107.818028 
L 149.20128 149.132107 
L 149.29056 144.761349 
L 149.37984 137.527066 
L 149.46912 119.691553 
L 149.5584 128.299215 
L 149.64768 128.224481 
L 149.73696 203.373479 
L 149.82624 113.470166 
L 149.91552 157.454631 
L 150.0048 114.275579 
L 150.09408 166.625678 
L 150.18336 97.786455 
L 150.27264 104.429575 
L 150.4512 146.752933 
L 150.54048 145.769051 
L 150.62976 129.689302 
L 150.8976 156.390564 
L 150.98688 107.911841 
L 151.07616 164.938844 
L 151.16544 122.860214 
L 151.25472 158.322588 
L 151.344 135.746582 
L 151.43328 77.540386 
L 151.61184 126.93174 
L 151.70112 122.610618 
L 151.7904 104.848755 
L 151.87968 155.06161 
L 151.96896 119.325441 
L 152.05824 152.265273 
L 152.2368 125.764551 
L 152.32608 133.631137 
L 152.41536 131.320994 
L 152.59392 144.081165 
L 152.6832 126.215715 
L 152.77248 143.544805 
L 152.86176 127.107662 
L 152.95104 142.534086 
L 153.21888 110.364505 
L 153.30816 115.986024 
L 153.39744 139.298571 
L 153.48672 133.449318 
L 153.576 160.764321 
L 153.66528 129.503366 
L 153.75456 131.080393 
L 153.84384 145.91877 
L 154.0224 100.745946 
L 154.11168 137.562191 
L 154.20096 101.669437 
L 154.29024 111.488719 
L 154.37952 149.772387 
L 154.4688 110.546238 
L 154.55808 157.457781 
L 154.64736 126.564994 
L 154.82592 153.558012 
L 155.00448 105.234681 
L 155.09376 169.208764 
L 155.18304 98.320558 
L 155.27232 114.123975 
L 155.3616 110.260248 
L 155.45088 119.373824 
L 155.54016 102.148543 
L 155.62944 167.819814 
L 155.71872 116.742355 
L 155.808 127.50603 
L 155.89728 121.914941 
L 155.98656 107.753288 
L 156.07584 116.172663 
L 156.16512 159.408781 
L 156.34368 118.334642 
L 156.43296 149.913344 
L 156.52224 105.433081 
L 156.61152 132.100421 
L 156.7008 106.12475 
L 156.87936 164.967271 
L 157.05792 117.469923 
L 157.1472 155.399649 
L 157.23648 94.633711 
L 157.32576 125.391643 
L 157.41504 91.923772 
L 157.50432 125.82344 
L 157.5936 111.285189 
L 157.68288 122.207273 
L 157.77216 158.983429 
L 157.86144 127.922382 
L 157.95072 156.644119 
L 158.12928 122.4724 
L 158.21856 127.784645 
L 158.30784 179.31403 
L 158.39712 157.827359 
L 158.57568 82.476913 
L 158.66496 124.082856 
L 158.75424 115.667964 
L 158.84352 145.219959 
L 158.9328 107.919301 
L 159.11136 167.886822 
L 159.28992 67.243967 
L 159.46848 151.490987 
L 159.64704 115.58438 
L 159.73632 111.497753 
L 159.91488 132.616451 
L 160.09344 86.215906 
L 160.18272 125.672458 
L 160.272 102.057616 
L 160.36128 132.457402 
L 160.45056 114.629518 
L 160.80768 139.757231 
L 160.98624 118.390367 
L 161.07552 130.310177 
L 161.1648 118.844972 
L 161.25408 126.439063 
L 161.34336 122.752806 
L 161.43264 132.524749 
L 161.52192 131.673929 
L 161.6112 168.868939 
L 161.70048 128.944268 
L 161.78976 137.505511 
L 161.87904 105.439253 
L 162.23616 141.610307 
L 162.32544 100.609472 
L 162.41472 155.211742 
L 162.59328 100.331659 
L 162.68256 153.488981 
L 162.77184 118.136024 
L 162.86112 150.896495 
L 163.03968 93.543809 
L 163.21824 141.391468 
L 163.30752 131.753298 
L 163.3968 104.527733 
L 163.57536 154.126498 
L 163.8432 109.27975 
L 163.93248 116.35863 
L 164.02176 102.775302 
L 164.11104 141.96049 
L 164.20032 92.961365 
L 164.37888 118.4167 
L 164.55744 109.555764 
L 164.64672 134.025003 
L 164.91456 84.991853 
L 165.00384 111.270937 
L 165.09312 104.608079 
L 165.1824 156.886542 
L 165.27168 105.349669 
L 165.36096 134.655032 
L 165.45024 133.16252 
L 165.53952 96.032107 
L 165.6288 105.715324 
L 165.71808 100.224443 
L 165.80736 82.402353 
L 165.89664 123.715633 
L 165.98592 121.124605 
L 166.0752 95.820591 
L 166.25376 151.201586 
L 166.43232 89.555045 
L 166.70016 128.76644 
L 166.78944 119.498199 
L 166.87872 132.994979 
L 167.05728 95.363427 
L 167.14656 102.710897 
L 167.23584 125.842644 
L 167.4144 102.235926 
L 167.50368 117.109323 
L 167.59296 87.249628 
L 167.68224 125.639167 
L 167.77152 86.46681 
L 167.8608 161.40937 
L 167.95008 108.30784 
L 168.03936 114.99838 
L 168.12864 104.829362 
L 168.21792 137.970675 
L 168.3072 91.650874 
L 168.48576 128.376314 
L 168.57504 97.194222 
L 168.7536 139.871205 
L 168.84288 135.313598 
L 168.93216 111.751328 
L 169.02144 137.187169 
L 169.11072 107.42285 
L 169.2 127.36922 
L 169.28928 125.722011 
L 169.46784 85.172664 
L 169.55712 125.490817 
L 169.6464 125.463923 
L 169.73568 114.807676 
L 169.82496 123.395803 
L 169.91424 146.679481 
L 170.00352 106.142363 
L 170.18208 152.46526 
L 170.36064 105.863526 
L 170.5392 122.443376 
L 170.71776 101.226668 
L 170.89632 121.287195 
L 171.07488 92.726757 
L 171.34272 135.475808 
L 171.52128 99.469456 
L 171.61056 99.903898 
L 171.69984 104.566818 
L 171.78912 92.42013 
L 171.96768 136.345465 
L 172.05696 122.513212 
L 172.14624 105.96313 
L 172.23552 150.640495 
L 172.41408 108.81687 
L 172.50336 123.580793 
L 172.59264 109.350874 
L 172.68192 148.968497 
L 172.86048 95.317819 
L 173.12832 171.044353 
L 173.2176 94.966059 
L 173.30688 111.801379 
L 173.48544 153.811099 
L 173.664 127.447109 
L 173.75328 131.171785 
L 173.84256 103.943048 
L 173.93184 109.503702 
L 174.02112 106.925619 
L 174.1104 127.921746 
L 174.28896 102.019237 
L 174.37824 133.93113 
L 174.46752 115.121188 
L 174.5568 128.798275 
L 174.64608 108.972806 
L 174.73536 117.261922 
L 174.82464 138.187171 
L 174.91392 90.658847 
L 175.0032 144.168654 
L 175.09248 122.268038 
L 175.18176 135.23499 
L 175.27104 130.369142 
L 175.36032 89.732558 
L 175.53888 127.017577 
L 175.71744 78.972122 
L 175.896 117.780962 
L 175.98528 106.118459 
L 176.07456 102.565644 
L 176.16384 115.373673 
L 176.25312 145.348039 
L 176.3424 111.698213 
L 176.43168 118.755037 
L 176.52096 132.45271 
L 176.61024 105.001169 
L 176.7888 118.508598 
L 176.87808 113.833929 
L 177.05664 146.439295 
L 177.2352 94.773219 
L 177.41376 134.892848 
L 177.50304 138.663234 
L 177.59232 93.656895 
L 177.86016 142.087171 
L 177.94944 82.334582 
L 178.03872 88.860296 
L 178.128 90.315234 
L 178.30656 130.142579 
L 178.39584 113.434652 
L 178.5744 127.74833 
L 178.66368 98.217981 
L 178.75296 140.553202 
L 178.93152 91.963982 
L 179.0208 96.207196 
L 179.11008 128.896598 
L 179.19936 92.157869 
L 179.28864 151.583889 
L 179.4672 101.068231 
L 179.55648 112.141755 
L 179.64576 137.492338 
L 179.73504 104.892007 
L 179.9136 142.489928 
L 180.09216 103.876677 
L 180.18144 131.833346 
L 180.36 103.447744 
L 180.44928 139.186978 
L 180.62784 104.401845 
L 180.71712 118.075287 
L 180.8064 147.333937 
L 180.89568 110.368226 
L 180.98496 140.221341 
L 181.07424 129.799159 
L 181.16352 95.884129 
L 181.34208 152.382308 
L 181.43136 101.805451 
L 181.52064 129.941279 
L 181.60992 123.022794 
L 181.78848 86.094199 
L 181.96704 151.616567 
L 182.05632 98.120972 
L 182.1456 152.240703 
L 182.23488 101.337909 
L 182.41344 159.36106 
L 182.592 117.986277 
L 182.68128 125.967268 
L 182.85984 113.352217 
L 182.94912 152.640895 
L 183.12768 109.587794 
L 183.21696 111.542441 
L 183.30624 87.595162 
L 183.39552 94.419936 
L 183.4848 131.739851 
L 183.66336 107.069163 
L 183.75264 115.340908 
L 183.84192 105.539291 
L 183.9312 108.790476 
L 184.02048 148.504333 
L 184.28832 91.337658 
L 184.3776 104.099617 
L 184.46688 94.219412 
L 184.73472 130.397809 
L 184.824 114.499761 
L 184.91328 122.743127 
L 185.00256 108.086659 
L 185.09184 151.719836 
L 185.18112 84.4017 
L 185.2704 137.696547 
L 185.35968 105.339126 
L 185.44896 134.172267 
L 185.53824 77.116437 
L 185.80608 164.114586 
L 185.89536 122.394156 
L 185.98464 128.074007 
L 186.07392 123.879924 
L 186.25248 107.847068 
L 186.34176 104.03304 
L 186.43104 108.845645 
L 186.52032 108.025562 
L 186.6096 129.232363 
L 186.69888 92.385199 
L 186.78816 111.485687 
L 186.87744 99.762906 
L 186.96672 106.380018 
L 187.056 97.804024 
L 187.14528 149.952141 
L 187.23456 95.716946 
L 187.32384 122.026482 
L 187.41312 107.926982 
L 187.5024 138.115791 
L 187.68096 94.626553 
L 187.77024 102.533849 
L 187.85952 104.015145 
L 187.9488 103.748232 
L 188.03808 119.975424 
L 188.12736 108.42286 
L 188.21664 126.449009 
L 188.48448 94.671136 
L 188.66304 140.528525 
L 188.93088 101.713691 
L 189.02016 136.836112 
L 189.19872 105.064274 
L 189.288 159.564819 
L 189.46656 124.552121 
L 189.55584 154.088918 
L 189.7344 88.833979 
L 189.82368 122.599427 
L 189.91296 120.310957 
L 190.00224 140.431794 
L 190.09152 138.164296 
L 190.27008 161.458834 
L 190.44864 101.326653 
L 190.53792 100.981643 
L 190.71648 114.528302 
L 190.80576 101.301756 
L 190.89504 134.895916 
L 190.98432 112.121263 
L 191.0736 119.991239 
L 191.16288 96.700763 
L 191.43072 163.087012 
L 191.52 103.21451 
L 191.60928 142.620735 
L 191.78784 99.816007 
L 191.87712 121.555135 
L 192.05568 97.082143 
L 192.14496 125.946931 
L 192.23424 89.827858 
L 192.32352 105.373905 
L 192.4128 152.526906 
L 192.59136 89.833282 
L 192.68064 143.715216 
L 192.8592 105.351278 
L 192.94848 147.500059 
L 193.03776 102.629762 
L 193.21632 149.595768 
L 193.39488 105.407691 
L 193.48416 112.009888 
L 193.57344 101.754141 
L 193.66272 124.865956 
L 193.84128 107.173191 
L 193.93056 118.375066 
L 194.1984 99.519524 
L 194.28768 122.123426 
L 194.37696 119.91837 
L 194.6448 102.674509 
L 194.73408 128.905845 
L 194.82336 100.461694 
L 194.91264 118.422073 
L 195.00192 115.535098 
L 195.18048 141.109629 
L 195.26976 103.796256 
L 195.35904 109.709823 
L 195.5376 130.173638 
L 195.62688 122.619394 
L 195.71616 105.261554 
L 195.984 124.35116 
L 196.07328 161.73155 
L 196.16256 104.140543 
L 196.25184 109.73208 
L 196.34112 113.634729 
L 196.4304 125.614062 
L 196.51968 116.169345 
L 196.69824 158.286273 
L 196.78752 89.464849 
L 196.96608 121.229961 
L 197.05536 110.783314 
L 197.41248 147.00341 
L 197.68032 95.249698 
L 197.85888 119.566106 
L 197.94816 105.485326 
L 198.03744 126.997286 
L 198.12672 95.944362 
L 198.216 99.660241 
L 198.30528 85.851746 
L 198.39456 140.45101 
L 198.48384 111.992437 
L 198.57312 115.421545 
L 198.6624 117.236609 
L 198.75168 82.117368 
L 198.93024 127.020562 
L 199.01952 92.131243 
L 199.1088 172.490514 
L 199.19808 122.14521 
L 199.28736 142.093762 
L 199.5552 113.984203 
L 199.64448 109.884351 
L 199.73376 117.130437 
L 199.82304 98.871804 
L 199.91232 119.804312 
L 200.0016 98.280426 
L 200.09088 131.716847 
L 200.26944 95.690029 
L 200.35872 121.414103 
L 200.448 120.438075 
L 200.53728 115.231494 
L 200.62656 147.502852 
L 200.71584 108.606241 
L 200.80512 114.692321 
L 200.98368 88.186964 
L 201.07296 120.211783 
L 201.16224 97.660406 
L 201.25152 140.276907 
L 201.3408 133.891813 
L 201.51936 96.496736 
L 201.69792 122.373497 
L 201.96576 90.90169 
L 202.2336 125.540031 
L 202.32288 113.040847 
L 202.41216 116.758401 
L 202.50144 84.905221 
L 202.59072 96.213903 
L 202.68 93.282175 
L 203.03712 136.91073 
L 203.1264 111.708094 
L 203.21568 133.663577 
L 203.30496 123.845799 
L 203.39424 94.882852 
L 203.48352 102.88077 
L 203.5728 125.784642 
L 203.75136 99.523667 
L 203.92992 127.887138 
L 204.0192 86.172932 
L 204.28704 137.740818 
L 204.37632 135.255803 
L 204.4656 111.931514 
L 204.64416 154.548056 
L 204.82272 107.271142 
L 204.912 131.611107 
L 205.00128 125.975743 
L 205.09056 97.059044 
L 205.17984 110.201313 
L 205.26912 160.421036 
L 205.3584 114.530357 
L 205.44768 125.073909 
L 205.53696 98.26453 
L 205.71552 121.445575 
L 205.8048 114.921881 
L 205.89408 99.811089 
L 205.98336 123.396784 
L 206.16192 90.018866 
L 206.34048 134.744753 
L 206.51904 85.522917 
L 206.87616 144.961957 
L 207.05472 90.16436 
L 207.144 169.454473 
L 207.23328 127.198483 
L 207.32256 145.71101 
L 207.50112 87.572691 
L 207.5904 97.862587 
L 207.67968 108.266826 
L 207.76896 133.049639 
L 208.0368 87.364452 
L 208.12608 114.483596 
L 208.21536 98.304518 
L 208.30464 109.120883 
L 208.39392 107.964749 
L 208.4832 165.18971 
L 208.57248 81.294409 
L 208.75104 145.137101 
L 208.84032 84.968774 
L 208.9296 119.892888 
L 209.10816 88.818343 
L 209.19744 122.861012 
L 209.28672 113.665594 
L 209.46528 136.264927 
L 209.55456 135.585491 
L 209.64384 76.861809 
L 209.8224 119.093264 
L 209.91168 110.191574 
L 210.00096 87.017895 
L 210.09024 125.130302 
L 210.17952 116.553761 
L 210.35808 107.373818 
L 210.44736 138.808241 
L 210.62592 112.511482 
L 210.7152 111.611126 
L 210.89376 95.082095 
L 211.07232 150.823867 
L 211.1616 121.80201 
L 211.25088 141.378441 
L 211.34016 98.31158 
L 211.42944 106.917909 
L 211.51872 122.088881 
L 211.608 114.399758 
L 211.69728 122.844844 
L 211.78656 105.968878 
L 211.87584 139.73348 
L 211.96512 133.739191 
L 212.0544 131.701621 
L 212.23296 100.12744 
L 212.32224 124.303757 
L 212.59008 102.706126 
L 212.67936 115.652937 
L 212.76864 97.12883 
L 212.9472 129.682391 
L 213.03648 112.442668 
L 213.12576 133.775912 
L 213.21504 110.494212 
L 213.3936 122.301962 
L 213.48288 82.053418 
L 213.66144 151.009888 
L 213.84 86.75193 
L 214.10784 130.837248 
L 214.2864 104.864471 
L 214.37568 151.963747 
L 214.46496 114.217098 
L 214.55424 130.804632 
L 214.82208 106.638946 
L 214.91136 117.186244 
L 215.00064 79.869781 
L 215.1792 147.053745 
L 215.26848 84.660163 
L 215.44704 119.562017 
L 215.53632 108.517987 
L 215.6256 131.67854 
L 215.80416 84.233955 
L 215.89344 140.396042 
L 215.98272 106.990175 
L 216.072 135.757447 
L 216.16128 90.248258 
L 216.25056 92.755051 
L 216.33984 104.344821 
L 216.42912 102.894316 
L 216.5184 94.557256 
L 216.60768 125.447345 
L 216.69696 116.437166 
L 216.78624 91.549318 
L 216.87552 105.197868 
L 216.9648 137.487279 
L 217.05408 114.101768 
L 217.14336 133.223547 
L 217.32192 113.669635 
L 217.4112 120.598466 
L 217.50048 115.372726 
L 217.58976 115.900228 
L 217.67904 137.686482 
L 217.8576 101.904208 
L 218.03616 134.352801 
L 218.12544 136.687647 
L 218.304 89.048325 
L 218.39328 148.393563 
L 218.48256 87.653185 
L 218.66112 113.204508 
L 218.7504 99.067388 
L 218.83968 109.72491 
L 218.92896 82.871494 
L 219.01824 115.000836 
L 219.10752 114.870416 
L 219.28608 102.086964 
L 219.37536 142.620062 
L 219.46464 106.951651 
L 219.55392 106.956547 
L 219.6432 140.145384 
L 220.00032 102.143195 
L 220.0896 116.535837 
L 220.17888 98.672752 
L 220.26816 122.86831 
L 220.35744 93.232528 
L 220.44672 153.186861 
L 220.536 99.022548 
L 220.71456 121.606355 
L 220.80384 117.052632 
L 220.89312 103.454908 
L 221.07168 128.765506 
L 221.16096 104.162884 
L 221.33952 173.374697 
L 221.4288 125.570719 
L 221.51808 154.019419 
L 221.60736 90.874582 
L 221.78592 121.572746 
L 221.8752 110.092589 
L 221.96448 122.296165 
L 222.05376 93.906771 
L 222.14304 131.236462 
L 222.3216 96.169254 
L 222.41088 119.917393 
L 222.50016 118.816395 
L 222.58944 107.941783 
L 222.67872 158.132687 
L 222.85728 98.587303 
L 222.94656 117.694786 
L 223.03584 89.086031 
L 223.12512 106.099912 
L 223.2144 89.946769 
L 223.48224 120.755324 
L 223.6608 107.916874 
L 223.83936 129.588911 
L 224.1072 93.169783 
L 224.19648 101.463202 
L 224.37504 119.556672 
L 224.46432 98.351924 
L 224.64288 117.158854 
L 224.73216 124.856422 
L 224.82144 105.849375 
L 224.91072 116.53902 
L 225 112.280021 
L 225.08928 116.836328 
L 225.17856 110.267166 
L 225.26784 119.165167 
L 225.35712 106.790022 
L 225.4464 107.287096 
L 225.53568 113.48488 
L 225.62496 139.043117 
L 225.71424 118.032344 
L 225.8928 163.696461 
L 226.07136 110.638891 
L 226.16064 123.627604 
L 226.24992 107.060247 
L 226.3392 111.927629 
L 226.42848 111.499997 
L 226.51776 137.877836 
L 226.60704 76.966752 
L 226.7856 111.927323 
L 226.87488 94.999392 
L 226.96416 126.252128 
L 227.05344 85.232516 
L 227.14272 87.902912 
L 227.32128 118.555688 
L 227.49984 106.600833 
L 227.58912 107.829047 
L 227.6784 137.756048 
L 227.85696 102.694595 
L 228.03552 135.342411 
L 228.1248 91.538508 
L 228.21408 116.686115 
L 228.30336 111.181536 
L 228.5712 138.027968 
L 228.66048 135.892887 
L 228.74976 92.440145 
L 228.83904 147.175671 
L 228.92832 79.782494 
L 229.0176 127.176103 
L 229.10688 116.512441 
L 229.19616 109.78325 
L 229.28544 129.876504 
L 229.37472 105.739963 
L 229.464 134.467595 
L 229.55328 97.471249 
L 229.64256 100.645265 
L 229.73184 112.809276 
L 229.82112 112.330574 
L 229.99968 129.237197 
L 230.08896 118.951066 
L 230.17824 140.388592 
L 230.26752 95.779362 
L 230.3568 97.355132 
L 230.44608 89.449517 
L 230.62464 144.414754 
L 230.8032 115.746157 
L 230.98176 120.904119 
L 231.16032 106.054551 
L 231.2496 150.691972 
L 231.33888 116.445518 
L 231.42816 117.800144 
L 231.60672 137.886934 
L 231.78528 101.289141 
L 231.87456 107.855293 
L 231.96384 100.017577 
L 232.05312 124.802968 
L 232.1424 106.967473 
L 232.23168 128.02521 
L 232.32096 105.432383 
L 232.41024 141.873329 
L 232.49952 96.30761 
L 232.5888 150.175222 
L 232.67808 98.413477 
L 232.76736 109.558774 
L 232.94592 96.378123 
L 233.0352 128.675274 
L 233.30304 82.611615 
L 233.57088 137.905893 
L 233.66016 108.726518 
L 233.74944 109.783016 
L 233.83872 127.410933 
L 233.928 121.036796 
L 234.01728 154.959784 
L 234.10656 148.069346 
L 234.28512 126.7885 
L 234.3744 173.44445 
L 234.55296 105.902068 
L 234.64224 144.83264 
L 234.73152 127.468641 
L 234.8208 144.281915 
L 234.91008 73.647119 
L 234.99936 113.78921 
L 235.08864 110.252075 
L 235.17792 113.07044 
L 235.2672 83.997149 
L 235.35648 87.310273 
L 235.44576 142.548368 
L 235.53504 134.221277 
L 235.62432 99.091691 
L 235.7136 103.776202 
L 235.80288 157.966661 
L 235.98144 90.685584 
L 236.07072 91.872055 
L 236.16 89.496834 
L 236.33856 129.309862 
L 236.42784 123.289407 
L 236.51712 133.664 
L 236.6064 99.244919 
L 236.69568 133.843513 
L 236.96352 99.557476 
L 237.0528 100.946399 
L 237.14208 96.685467 
L 237.32064 109.923083 
L 237.40992 104.238435 
L 237.4992 130.618412 
L 237.58848 104.248875 
L 237.67776 135.67152 
L 237.76704 101.733806 
L 237.85632 120.596211 
L 237.9456 93.125667 
L 238.12416 149.555241 
L 238.21344 103.884982 
L 238.30272 118.83311 
L 238.392 115.19718 
L 238.48128 96.159033 
L 238.57056 101.086151 
L 238.65984 118.436855 
L 238.74912 96.334165 
L 239.01696 124.762747 
L 239.19552 85.595817 
L 239.46336 150.461406 
L 239.55264 103.432488 
L 239.64192 113.577048 
L 239.7312 93.35821 
L 239.82048 108.259078 
L 239.90976 143.511136 
L 239.99904 101.180593 
L 240.08832 125.183755 
L 240.26688 96.342015 
L 240.35616 137.030848 
L 240.624 90.431094 
L 240.80256 107.123211 
L 240.89184 97.931619 
L 240.98112 121.254763 
L 241.0704 94.327441 
L 241.15968 122.715551 
L 241.24896 95.544659 
L 241.33824 102.096555 
L 241.42752 111.096418 
L 241.5168 107.378095 
L 241.69536 134.935344 
L 241.78464 100.217128 
L 241.87392 117.786883 
L 242.05248 87.494107 
L 242.14176 128.200099 
L 242.23104 90.771755 
L 242.32032 94.296099 
L 242.4096 120.09549 
L 242.49888 115.584238 
L 242.58816 113.857247 
L 242.67744 98.349637 
L 242.856 123.100485 
L 242.94528 158.838628 
L 243.21312 73.161529 
L 243.3024 139.455599 
L 243.48096 80.466169 
L 243.57024 85.490302 
L 243.7488 114.284723 
L 243.83808 89.923374 
L 243.92736 99.743505 
L 244.01664 98.500902 
L 244.10592 101.88689 
L 244.28448 84.932167 
L 244.37376 102.776725 
L 244.46304 90.599866 
L 244.55232 106.578885 
L 244.6416 102.692418 
L 244.73088 96.29773 
L 244.82016 70.76834 
L 244.90944 108.299535 
L 244.99872 91.147733 
L 245.088 104.692141 
L 245.17728 145.33069 
L 245.26656 86.018016 
L 245.35584 88.469789 
L 245.44512 157.339173 
L 245.5344 101.289433 
L 245.71296 135.612811 
L 245.89152 101.08204 
L 245.9808 102.945654 
L 246.07008 123.869896 
L 246.24864 89.535414 
L 246.33792 110.669065 
L 246.4272 107.228375 
L 246.60576 129.803958 
L 246.78432 91.181122 
L 246.8736 119.611428 
L 246.96288 112.812726 
L 247.05216 103.093094 
L 247.14144 146.462795 
L 247.32 80.631906 
L 247.40928 136.003048 
L 247.49856 125.540325 
L 247.58784 154.239395 
L 247.67712 96.540861 
L 247.7664 134.332032 
L 247.85568 110.599491 
L 248.12352 131.483236 
L 248.30208 100.561009 
L 248.39136 126.895145 
L 248.48064 111.441924 
L 248.56992 145.298647 
L 248.6592 101.612523 
L 248.74848 110.626563 
L 248.83776 143.024843 
L 248.92704 121.678161 
L 249.01632 124.791647 
L 249.28416 96.554754 
L 249.37344 136.980442 
L 249.552 96.523171 
L 249.73056 124.90201 
L 249.81984 126.666682 
L 249.9984 91.964447 
L 250.08768 112.514033 
L 250.17696 102.749443 
L 250.26624 133.193896 
L 250.35552 131.204032 
L 250.4448 93.615944 
L 250.53408 112.355028 
L 250.62336 105.436893 
L 250.71264 135.457651 
L 250.8912 107.378726 
L 250.98048 91.38069 
L 251.06976 109.146421 
L 251.15904 96.862881 
L 251.3376 115.905511 
L 251.42688 95.885374 
L 251.51616 109.825818 
L 251.60544 82.942564 
L 251.69472 107.453722 
L 251.784 104.068477 
L 251.87328 103.87495 
L 251.96256 121.658273 
L 252.05184 91.222135 
L 252.31968 126.426529 
L 252.49824 81.134791 
L 252.76608 131.473942 
L 252.94464 89.963205 
L 253.03392 125.695919 
L 253.21248 107.742938 
L 253.39104 127.174203 
L 253.5696 95.121118 
L 253.65888 128.789299 
L 253.74816 103.464056 
L 253.83744 125.033537 
L 253.92672 96.952224 
L 254.016 98.585067 
L 254.19456 129.24794 
L 254.28384 100.062124 
L 254.4624 140.035947 
L 254.55168 94.076199 
L 254.81952 132.188833 
L 254.9088 124.490053 
L 254.99808 87.906435 
L 255.08736 122.924152 
L 255.17664 83.933533 
L 255.26592 119.774273 
L 255.3552 79.252409 
L 255.53376 111.331133 
L 255.62304 112.593835 
L 255.71232 126.737562 
L 255.8016 110.606073 
L 255.89088 112.788392 
L 255.98016 115.397747 
L 256.06944 101.44464 
L 256.15872 103.949768 
L 256.248 116.757256 
L 256.33728 94.843616 
L 256.42656 101.558456 
L 256.51584 88.066955 
L 256.60512 111.53689 
L 256.6944 103.959276 
L 256.78368 128.938453 
L 256.87296 93.746105 
L 256.96224 95.653054 
L 257.1408 100.540998 
L 257.23008 116.655956 
L 257.31936 105.768789 
L 257.40864 119.5564 
L 257.5872 95.332617 
L 257.67648 116.996514 
L 257.76576 106.005242 
L 257.85504 117.652428 
L 258.0336 102.892368 
L 258.12288 114.400367 
L 258.30144 75.190535 
L 258.39072 88.344172 
L 258.48 124.486483 
L 258.56928 79.215117 
L 258.74784 108.149899 
L 258.83712 88.471375 
L 258.9264 96.386559 
L 259.01568 89.619866 
L 259.19424 119.231886 
L 259.28352 113.010005 
L 259.3728 120.72422 
L 259.46208 79.485807 
L 259.55136 128.200536 
L 259.64064 87.858368 
L 259.72992 113.484775 
L 259.90848 88.880707 
L 259.99776 114.808523 
L 260.08704 108.207091 
L 260.17632 90.483408 
L 260.2656 136.990884 
L 260.35488 85.506542 
L 260.53344 100.793342 
L 260.712 93.482298 
L 260.80128 121.633236 
L 260.89056 104.931956 
L 260.97984 105.401761 
L 261.06912 107.013913 
L 261.1584 125.172789 
L 261.24768 98.911548 
L 261.33696 114.545792 
L 261.42624 109.670185 
L 261.51552 133.634988 
L 261.6048 103.409851 
L 261.69408 118.379902 
L 261.87264 87.723097 
L 261.96192 114.589467 
L 262.0512 94.085203 
L 262.14048 99.314 
L 262.31904 128.84939 
L 262.40832 114.522185 
L 262.4976 123.128337 
L 262.76544 79.394488 
L 262.85472 90.372505 
L 262.944 135.617559 
L 263.03328 121.54607 
L 263.12256 89.263191 
L 263.30112 120.782661 
L 263.3904 89.730765 
L 263.47968 125.816527 
L 263.65824 94.289725 
L 263.74752 121.950204 
L 263.8368 113.83193 
L 263.92608 124.376461 
L 264.01536 121.38783 
L 264.10464 137.015451 
L 264.19392 84.459064 
L 264.2832 92.956152 
L 264.37248 84.591364 
L 264.46176 133.165623 
L 264.64032 97.594808 
L 264.7296 131.562721 
L 264.81888 93.354931 
L 264.99744 113.894709 
L 265.176 86.18173 
L 265.26528 92.740218 
L 265.35456 90.639092 
L 265.44384 121.991425 
L 265.53312 94.882862 
L 265.80096 127.543485 
L 265.89024 99.632119 
L 265.97952 122.811111 
L 266.0688 99.424424 
L 266.15808 104.687202 
L 266.33664 131.520722 
L 266.42592 84.669059 
L 266.5152 140.816919 
L 266.60448 100.094639 
L 266.69376 117.422078 
L 266.78304 114.207991 
L 266.87232 101.308682 
L 266.9616 108.980157 
L 267.05088 100.922441 
L 267.14016 69.684477 
L 267.22944 95.878224 
L 267.31872 94.226243 
L 267.408 97.589736 
L 267.49728 107.98134 
L 267.58656 170.787937 
L 267.67584 98.467699 
L 267.76512 132.666723 
L 267.8544 78.297384 
L 268.03296 127.712748 
L 268.12224 96.564561 
L 268.21152 96.96376 
L 268.39008 110.447656 
L 268.47936 94.354134 
L 268.65792 113.021422 
L 268.83648 78.352429 
L 268.92576 116.979792 
L 269.01504 112.5803 
L 269.10432 99.763872 
L 269.1936 132.542075 
L 269.28288 83.023146 
L 269.37216 113.097001 
L 269.46144 80.20646 
L 269.55072 124.580458 
L 269.72928 86.281897 
L 269.81856 106.978722 
L 269.90784 91.486718 
L 269.99712 119.701773 
L 270.0864 91.163449 
L 270.17568 94.959333 
L 270.26496 92.466116 
L 270.35424 132.154119 
L 270.44352 130.961761 
L 270.5328 78.532258 
L 270.71136 124.19239 
L 270.80064 113.465247 
L 270.88992 87.13989 
L 271.06848 109.756579 
L 271.15776 100.198827 
L 271.33632 121.331464 
L 271.51488 93.15076 
L 271.60416 110.467333 
L 271.69344 97.19978 
L 271.78272 117.041846 
L 271.96128 100.637809 
L 272.05056 104.70738 
L 272.13984 74.113323 
L 272.22912 139.753655 
L 272.3184 108.077333 
L 272.40768 123.153916 
L 272.49696 81.145361 
L 272.67552 118.482744 
L 272.85408 88.996556 
L 272.94336 93.058555 
L 273.2112 108.9695 
L 273.30048 85.201075 
L 273.38976 87.052614 
L 273.47904 105.36676 
L 273.56832 87.798008 
L 273.74688 106.215093 
L 273.92544 89.272313 
L 274.01472 91.199444 
L 274.104 102.18986 
L 274.19328 94.384795 
L 274.28256 123.1444 
L 274.37184 94.082738 
L 274.46112 100.166159 
L 274.5504 99.071056 
L 274.63968 127.863654 
L 274.81824 78.64192 
L 274.9968 119.529568 
L 275.08608 83.966451 
L 275.17536 102.931781 
L 275.4432 81.281876 
L 275.53248 136.556749 
L 275.62176 128.867622 
L 275.71104 87.988648 
L 275.80032 128.638537 
L 275.97888 90.432162 
L 276.06816 89.851573 
L 276.15744 101.112601 
L 276.24672 139.481542 
L 276.336 100.525302 
L 276.42528 108.945117 
L 276.60384 123.331393 
L 276.69312 107.145566 
L 276.87168 115.963122 
L 276.96096 96.058795 
L 277.05024 98.875254 
L 277.31808 99.961743 
L 277.40736 124.637443 
L 277.49664 101.349189 
L 277.58592 107.398085 
L 277.6752 103.255354 
L 277.76448 84.890043 
L 277.85376 94.072553 
L 277.94304 154.756184 
L 278.03232 108.350595 
L 278.1216 119.539256 
L 278.30016 88.575765 
L 278.38944 115.885278 
L 278.568 87.412304 
L 278.65728 114.814834 
L 278.74656 84.313096 
L 278.83584 98.934308 
L 278.92512 95.356008 
L 279.0144 159.608566 
L 279.19296 112.243224 
L 279.37152 100.365957 
L 279.4608 100.647195 
L 279.55008 97.081133 
L 279.63936 115.349415 
L 279.72864 113.81805 
L 279.81792 101.172873 
L 279.9072 115.767551 
L 280.08576 83.724779 
L 280.26432 114.65479 
L 280.3536 83.06279 
L 280.44288 113.662897 
L 280.53216 110.907605 
L 280.62144 85.56787 
L 280.71072 87.965272 
L 280.8 119.277169 
L 280.88928 88.363463 
L 280.97856 121.392002 
L 281.2464 96.89416 
L 281.33568 124.701436 
L 281.42496 85.691804 
L 281.51424 125.810609 
L 281.60352 116.367088 
L 281.78208 99.861861 
L 281.87136 113.185683 
L 281.96064 106.178516 
L 282.04992 114.039072 
L 282.22848 83.986051 
L 282.40704 106.7598 
L 282.49632 80.330972 
L 282.5856 95.630194 
L 282.67488 91.04448 
L 282.76416 97.898456 
L 282.85344 136.298387 
L 283.12128 90.588286 
L 283.21056 131.886182 
L 283.38912 95.480059 
L 283.4784 126.095158 
L 283.56768 112.639945 
L 283.65696 140.902414 
L 283.74624 87.187436 
L 283.83552 90.436073 
L 284.01408 116.949412 
L 284.10336 88.524765 
L 284.28192 122.729378 
L 284.46048 95.246733 
L 284.54976 97.293221 
L 284.63904 122.246299 
L 284.72832 92.875684 
L 284.8176 121.138181 
L 284.90688 85.656759 
L 284.99616 110.567128 
L 285.08544 80.716557 
L 285.17472 81.577083 
L 285.264 83.199018 
L 285.62112 122.733338 
L 285.7104 119.285288 
L 285.79968 81.194084 
L 285.88896 89.404468 
L 285.97824 104.662851 
L 286.06752 149.465885 
L 286.1568 105.199666 
L 286.24608 127.918598 
L 286.33536 112.950964 
L 286.69248 173.700227 
L 286.78176 103.686067 
L 286.87104 106.094216 
L 286.96032 135.096444 
L 287.13888 103.62648 
L 287.22816 97.847001 
L 287.31744 110.74977 
L 287.40672 95.873661 
L 287.496 95.887222 
L 287.58528 103.406225 
L 287.67456 100.627632 
L 287.76384 105.974511 
L 287.85312 124.481912 
L 287.9424 118.025424 
L 288.12096 75.574862 
L 288.21024 126.533765 
L 288.3888 93.148931 
L 288.47808 110.793677 
L 288.56736 106.542746 
L 288.65664 119.13164 
L 288.74592 99.993055 
L 288.8352 107.525091 
L 288.92448 88.225493 
L 289.01376 121.702886 
L 289.10304 87.791531 
L 289.19232 105.189744 
L 289.2816 153.748101 
L 289.46016 122.784943 
L 289.54944 128.009512 
L 289.63872 124.856869 
L 289.728 136.865419 
L 289.81728 106.432666 
L 289.99584 134.424195 
L 290.1744 98.540245 
L 290.26368 97.191831 
L 290.44224 134.474528 
L 290.53152 86.312553 
L 290.6208 97.129208 
L 290.71008 93.908765 
L 290.79936 83.308446 
L 290.97792 126.083424 
L 291.0672 111.358804 
L 291.15648 113.632812 
L 291.33504 85.608298 
L 291.42432 112.153793 
L 291.5136 106.144792 
L 291.60288 124.177482 
L 291.69216 122.866671 
L 291.78144 90.49355 
L 291.87072 96.970358 
L 291.96 136.869691 
L 292.22784 88.546692 
L 292.31712 134.410271 
L 292.4064 102.835415 
L 292.49568 118.078581 
L 292.58496 94.431316 
L 292.67424 124.624404 
L 292.76352 115.859318 
L 292.8528 151.237261 
L 293.03136 97.686235 
L 293.12064 102.813078 
L 293.20992 113.715395 
L 293.2992 111.794802 
L 293.38848 107.86996 
L 293.47776 151.150583 
L 293.65632 109.761809 
L 293.83488 137.848562 
L 293.92416 112.169996 
L 294.01344 115.328498 
L 294.10272 115.328085 
L 294.192 79.025033 
L 294.37056 100.612694 
L 294.45984 95.898328 
L 294.6384 124.823062 
L 294.72768 93.92026 
L 294.81696 95.086967 
L 294.90624 127.599849 
L 294.99552 117.134881 
L 295.17408 81.577458 
L 295.26336 135.335456 
L 295.44192 97.485669 
L 295.62048 123.034093 
L 295.70976 97.053018 
L 295.79904 140.667281 
L 295.88832 91.178032 
L 295.9776 94.989531 
L 296.15616 118.311072 
L 296.33472 96.418996 
L 296.424 123.908172 
L 296.51328 107.191278 
L 296.60256 122.031625 
L 296.69184 97.270613 
L 296.78112 111.406101 
L 296.8704 84.042237 
L 296.95968 116.309009 
L 297.04896 101.371821 
L 297.13824 114.636696 
L 297.22752 90.607364 
L 297.3168 110.99166 
L 297.49536 88.093203 
L 297.58464 123.114514 
L 297.67392 78.128768 
L 297.94176 153.491726 
L 298.03104 110.190091 
L 298.12032 116.174904 
L 298.2096 89.839244 
L 298.29888 97.359551 
L 298.38816 94.763295 
L 298.656 115.162428 
L 298.74528 137.420151 
L 298.83456 90.910755 
L 298.92384 156.515293 
L 299.19168 89.557269 
L 299.45952 129.056589 
L 299.5488 88.10287 
L 299.72736 132.059893 
L 299.81664 113.209814 
L 299.90592 113.221344 
L 299.9952 102.966797 
L 300.26304 124.575838 
L 300.35232 85.237692 
L 300.4416 104.396566 
L 300.53088 83.18604 
L 300.62016 112.9386 
L 300.70944 97.505003 
L 300.79872 119.14867 
L 300.888 102.924755 
L 300.97728 117.718108 
L 301.15584 93.037566 
L 301.42368 131.869865 
L 301.51296 119.286265 
L 301.60224 139.275598 
L 301.69152 84.9538 
L 301.7808 91.160145 
L 302.04864 127.766543 
L 302.13792 97.921773 
L 302.2272 169.394118 
L 302.40576 106.577995 
L 302.49504 92.489469 
L 302.58432 134.267985 
L 302.6736 94.520539 
L 302.76288 134.982838 
L 302.94144 102.284844 
L 303.12 141.141994 
L 303.20928 85.951137 
L 303.29856 101.523185 
L 303.38784 146.584271 
L 303.5664 101.188457 
L 303.65568 118.284513 
L 303.74496 117.422153 
L 303.83424 120.31624 
L 304.0128 99.328383 
L 304.10208 89.214875 
L 304.19136 170.783616 
L 304.28064 109.043854 
L 304.36992 120.98719 
L 304.4592 82.472593 
L 304.54848 122.910002 
L 304.63776 117.251471 
L 304.72704 89.809955 
L 304.81632 156.273758 
L 305.08416 89.764844 
L 305.17344 110.702879 
L 305.26272 78.848552 
L 305.44128 102.211365 
L 305.61984 97.227045 
L 305.70912 101.53932 
L 305.88768 85.848816 
L 306.06624 129.567809 
L 306.15552 109.196426 
L 306.2448 150.32092 
L 306.33408 83.848564 
L 306.42336 110.895764 
L 306.51264 103.782158 
L 306.60192 142.901756 
L 306.6912 85.325836 
L 306.78048 109.697035 
L 306.86976 87.938709 
L 306.95904 125.594782 
L 307.04832 108.632876 
L 307.1376 141.050012 
L 307.31616 97.596769 
L 307.49472 107.42414 
L 307.584 79.251362 
L 307.67328 111.515688 
L 307.76256 95.438472 
L 307.85184 98.741035 
L 307.94112 120.105387 
L 308.11968 89.289607 
L 308.20896 127.533094 
L 308.29824 88.741368 
L 308.38752 118.81204 
L 308.56608 100.398289 
L 308.65536 128.541554 
L 308.83392 92.45162 
L 308.9232 118.952422 
L 309.01248 84.897406 
L 309.28032 164.163643 
L 309.3696 103.015713 
L 309.45888 103.80362 
L 309.54816 106.826292 
L 309.63744 82.46775 
L 309.816 133.849159 
L 309.99456 91.698262 
L 310.08384 94.703792 
L 310.17312 87.621568 
L 310.35168 104.075436 
L 310.44096 160.479886 
L 310.7088 91.076457 
L 310.88736 126.743434 
L 310.97664 126.620038 
L 311.06592 85.297272 
L 311.1552 106.151183 
L 311.33376 95.423327 
L 311.42304 81.613764 
L 311.51232 112.76604 
L 311.6016 81.753302 
L 311.86944 105.769611 
L 311.95872 94.29651 
L 312.048 97.694997 
L 312.13728 116.494348 
L 312.22656 91.365015 
L 312.31584 155.493113 
L 312.40512 76.290386 
L 312.4944 144.705011 
L 312.67296 99.669873 
L 312.76224 125.697212 
L 312.85152 96.410977 
L 312.9408 98.507557 
L 313.03008 86.514314 
L 313.20864 123.880507 
L 313.29792 85.625441 
L 313.3872 99.127182 
L 313.47648 138.399815 
L 313.56576 104.859036 
L 313.65504 113.732133 
L 313.74432 89.829607 
L 313.8336 96.344183 
L 313.92288 150.850297 
L 314.01216 99.124841 
L 314.10144 125.907276 
L 314.36928 77.616268 
L 314.45856 74.354016 
L 314.63712 126.993963 
L 314.7264 71.838827 
L 314.99424 125.85086 
L 315.08352 113.725449 
L 315.1728 84.928983 
L 315.26208 91.662094 
L 315.35136 94.530268 
L 315.44064 115.594303 
L 315.52992 110.902089 
L 315.6192 98.610067 
L 315.70848 117.461478 
L 315.79776 116.629258 
L 315.88704 114.940838 
L 315.97632 110.56779 
L 316.0656 87.019479 
L 316.15488 98.447479 
L 316.24416 141.633184 
L 316.42272 96.111991 
L 316.512 87.424809 
L 316.60128 100.442569 
L 316.69056 99.406661 
L 316.77984 91.142101 
L 316.86912 103.514428 
L 316.9584 97.478141 
L 317.04768 122.368295 
L 317.13696 86.635624 
L 317.31552 127.927187 
L 317.49408 99.183255 
L 317.67264 116.184189 
L 317.8512 95.252487 
L 318.02976 117.051587 
L 318.11904 108.301909 
L 318.2976 125.273452 
L 318.38688 79.826459 
L 318.65472 116.562335 
L 318.83328 126.209501 
L 319.01184 94.030002 
L 319.10112 109.409422 
L 319.36896 96.093645 
L 319.45824 111.399306 
L 319.54752 101.205008 
L 319.6368 103.110375 
L 319.72608 109.933435 
L 319.81536 76.747774 
L 319.99392 150.546338 
L 320.17248 92.293395 
L 320.26176 116.273643 
L 320.35104 92.952883 
L 320.44032 119.583387 
L 320.5296 97.592938 
L 320.61888 108.223417 
L 320.70816 86.80486 
L 320.79744 102.435418 
L 320.88672 85.695386 
L 321.06528 108.251302 
L 321.33312 88.226022 
L 321.51168 121.613298 
L 321.60096 98.665736 
L 321.69024 99.22956 
L 321.77952 101.130088 
L 321.8688 115.355597 
L 321.95808 75.026229 
L 322.13664 107.905426 
L 322.22592 77.869798 
L 322.49376 113.400757 
L 322.67232 91.349814 
L 322.7616 114.416065 
L 322.85088 67.658869 
L 323.02944 126.141547 
L 323.11872 91.425285 
L 323.208 115.863503 
L 323.29728 110.830579 
L 323.38656 103.473386 
L 323.47584 108.262282 
L 323.56512 99.575662 
L 323.6544 109.475905 
L 323.74368 90.384661 
L 323.83296 104.495298 
L 323.92224 100.963852 
L 324.01152 121.344386 
L 324.19008 101.425979 
L 324.27936 111.329475 
L 324.36864 89.917681 
L 324.45792 109.901452 
L 324.63648 78.322328 
L 324.72576 170.468172 
L 324.90432 80.923682 
L 324.9936 84.373396 
L 325.08288 95.572766 
L 325.17216 83.813775 
L 325.35072 98.67355 
L 325.44 90.677333 
L 325.52928 130.583796 
L 325.61856 84.201634 
L 325.70784 113.677288 
L 325.79712 110.52703 
L 325.8864 114.514256 
L 326.06496 63.648 
L 326.3328 116.770125 
L 326.42208 88.366778 
L 326.51136 157.831225 
L 326.60064 88.886214 
L 326.68992 110.890156 
L 326.86848 84.702258 
L 327.04704 111.697063 
L 327.13632 108.350612 
L 327.2256 79.880376 
L 327.31488 111.978689 
L 327.40416 104.837835 
L 327.49344 102.850218 
L 327.672 132.175419 
L 327.85056 102.76789 
L 327.93984 107.940919 
L 328.02912 98.258117 
L 328.1184 119.445369 
L 328.20768 100.188503 
L 328.47552 137.3922 
L 328.5648 90.190788 
L 328.65408 114.056151 
L 328.74336 97.655012 
L 328.83264 138.766624 
L 328.92192 105.295806 
L 329.0112 112.18062 
L 329.10048 107.580663 
L 329.18976 109.1075 
L 329.27904 97.691759 
L 329.4576 122.502985 
L 329.63616 82.873564 
L 329.72544 88.495943 
L 329.904 132.83531 
L 329.99328 101.619838 
L 330.08256 122.274019 
L 330.17184 92.152028 
L 330.26112 115.580055 
L 330.3504 92.429634 
L 330.43968 137.835159 
L 330.52896 100.589822 
L 330.61824 108.089916 
L 330.70752 102.890289 
L 330.7968 114.891988 
L 330.88608 106.577887 
L 330.97536 108.921627 
L 331.06464 106.260087 
L 331.33248 84.081836 
L 331.51104 93.661488 
L 331.60032 120.441911 
L 331.6896 96.003497 
L 331.77888 107.442057 
L 331.86816 104.07997 
L 332.04672 89.166709 
L 332.136 90.642456 
L 332.31456 110.60332 
L 332.40384 109.207257 
L 332.49312 96.227718 
L 332.5824 107.087681 
L 332.67168 95.792519 
L 332.76096 99.705145 
L 332.93952 82.030424 
L 333.0288 101.470713 
L 333.11808 100.874213 
L 333.20736 108.627705 
L 333.29664 93.451887 
L 333.38592 124.234132 
L 333.4752 101.564128 
L 333.56448 104.303373 
L 333.65376 105.353768 
L 333.74304 93.80328 
L 333.83232 95.0453 
L 333.9216 115.049556 
L 334.01088 110.622283 
L 334.10016 95.907317 
L 334.18944 101.369479 
L 334.27872 132.620114 
L 334.368 80.501391 
L 334.45728 119.280618 
L 334.54656 100.702075 
L 334.63584 123.623243 
L 334.90368 96.645079 
L 335.08224 104.756357 
L 335.17152 115.728803 
L 335.2608 102.149112 
L 335.35008 104.958036 
L 335.43936 133.687765 
L 335.52864 105.532442 
L 335.61792 115.260487 
L 335.7072 91.757237 
L 335.79648 117.047103 
L 335.97504 93.86934 
L 336.06432 116.214109 
L 336.1536 114.807074 
L 336.24288 117.885902 
L 336.51072 78.021942 
L 336.6 128.271286 
L 336.77856 92.778724 
L 336.86784 123.260991 
L 337.13568 92.708669 
L 337.22496 89.593027 
L 337.31424 114.013597 
L 337.40352 82.931544 
L 337.58208 112.09882 
L 337.67136 102.016503 
L 337.76064 120.583843 
L 337.9392 86.090897 
L 338.02848 91.189001 
L 338.11776 120.690082 
L 338.20704 118.534253 
L 338.3856 93.175468 
L 338.47488 98.302782 
L 338.56416 109.983342 
L 338.65344 148.384532 
L 338.74272 81.747136 
L 338.832 92.744489 
L 338.92128 89.615965 
L 339.01056 111.864525 
L 339.09984 84.617066 
L 339.18912 104.969814 
L 339.2784 94.704059 
L 339.36768 110.956942 
L 339.54624 93.636339 
L 339.63552 96.66589 
L 339.7248 93.163273 
L 339.81408 96.035621 
L 339.90336 119.572052 
L 339.99264 88.352047 
L 340.08192 89.432742 
L 340.34976 127.01802 
L 340.43904 67.247673 
L 340.52832 117.433958 
L 340.70688 96.805569 
L 340.79616 107.740797 
L 340.88544 92.583568 
L 340.97472 119.178412 
L 341.064 92.782619 
L 341.15328 116.285388 
L 341.24256 104.186139 
L 341.33184 104.94062 
L 341.42112 111.33194 
L 341.59968 95.965594 
L 342.04608 121.664581 
L 342.13536 97.17626 
L 342.22464 129.264058 
L 342.31392 125.239262 
L 342.58176 94.62653 
L 342.67104 125.991967 
L 342.76032 90.845134 
L 342.93888 104.52898 
L 343.02816 136.255946 
L 343.20672 95.256272 
L 343.296 114.952156 
L 343.38528 109.406302 
L 343.47456 87.457253 
L 343.56384 109.945958 
L 343.65312 102.232279 
L 343.7424 116.450359 
L 343.83168 113.743551 
L 343.92096 108.63263 
L 344.01024 125.577896 
L 344.09952 123.027618 
L 344.1888 95.374185 
L 344.27808 117.930176 
L 344.45664 93.082783 
L 344.54592 149.65701 
L 344.6352 145.070169 
L 344.72448 79.44319 
L 344.81376 123.84064 
L 345.0816 73.431009 
L 345.17088 119.027557 
L 345.34944 95.926647 
L 345.43872 84.598569 
L 345.528 111.401815 
L 345.61728 92.810105 
L 345.70656 118.088399 
L 345.79584 115.997785 
L 345.88512 111.774973 
L 345.9744 96.801653 
L 346.06368 113.056163 
L 346.15296 84.634239 
L 346.24224 115.698166 
L 346.4208 87.431851 
L 346.51008 126.576892 
L 346.68864 99.510046 
L 346.77792 94.86824 
L 346.95648 109.469866 
L 347.04576 84.232046 
L 347.13504 96.380571 
L 347.22432 72.510479 
L 347.40288 144.440279 
L 347.49216 89.032814 
L 347.58144 105.260868 
L 347.67072 96.115787 
L 347.84928 149.386336 
L 348.11712 69.522921 
L 348.29568 119.170683 
L 348.38496 72.836206 
L 348.47424 103.26762 
L 348.56352 83.029693 
L 348.74208 148.731637 
L 348.83136 117.202885 
L 348.92064 135.45952 
L 349.00992 115.011268 
L 349.0992 116.189597 
L 349.18848 105.962562 
L 349.27776 114.491774 
L 349.36704 112.944864 
L 349.45632 95.814675 
L 349.5456 117.014462 
L 349.63488 88.498394 
L 349.72416 93.500577 
L 349.992 119.290588 
L 350.08128 149.732515 
L 350.25984 115.076443 
L 350.52768 75.975225 
L 350.61696 128.303934 
L 350.79552 95.558279 
L 350.8848 96.500881 
L 350.97408 99.32464 
L 351.06336 85.447608 
L 351.15264 97.051603 
L 351.24192 95.621535 
L 351.3312 102.580064 
L 351.42048 147.623565 
L 351.50976 94.147551 
L 351.59904 117.997117 
L 351.68832 79.727812 
L 351.86688 107.51333 
L 351.95616 94.055344 
L 352.224 110.025915 
L 352.40256 102.527642 
L 352.58112 146.318623 
L 352.6704 91.048799 
L 352.75968 114.72525 
L 352.84896 95.721744 
L 352.93824 117.050072 
L 353.20608 82.355203 
L 353.38464 110.744253 
L 353.47392 89.502291 
L 353.65248 120.671131 
L 353.83104 83.695537 
L 354.0096 117.200703 
L 354.09888 99.502326 
L 354.18816 111.49346 
L 354.27744 98.538693 
L 354.36672 141.33063 
L 354.54528 87.78418 
L 354.63456 100.092433 
L 354.72384 90.836253 
L 354.81312 107.45912 
L 354.9024 80.786273 
L 354.99168 138.788695 
L 355.08096 132.688403 
L 355.17024 90.107039 
L 355.25952 126.577485 
L 355.43808 101.648074 
L 355.52736 106.375354 
L 355.61664 89.668642 
L 355.7952 122.411194 
L 356.06304 78.222466 
L 356.15232 125.471151 
L 356.33088 86.895933 
L 356.42016 100.7891 
L 356.50944 92.922729 
L 356.59872 103.971641 
L 356.688 92.891143 
L 356.77728 100.16594 
L 356.86656 136.035967 
L 356.95584 102.538514 
L 357.04512 114.697656 
L 357.1344 103.456638 
L 357.31296 138.430714 
L 357.49152 95.080466 
L 357.5808 95.240168 
L 357.67008 101.997882 
L 357.75936 69.449151 
L 357.84864 140.536937 
L 357.93792 80.424996 
L 358.20576 115.770341 
L 358.29504 106.738602 
L 358.38432 67.044326 
L 358.65216 111.53201 
L 358.74144 79.26704 
L 358.83072 98.981025 
L 358.92 88.325934 
L 359.00928 115.365111 
L 359.09856 98.946164 
L 359.18784 114.239275 
L 359.27712 105.998588 
L 359.3664 84.694484 
L 359.45568 94.511335 
L 359.63424 130.835494 
L 359.72352 109.791849 
L 359.8128 111.887679 
L 359.90208 106.718368 
L 359.99136 109.575638 
L 360.08064 86.642145 
L 360.2592 119.228944 
L 360.43776 96.151597 
L 360.52704 91.048905 
L 360.61632 111.301715 
L 360.7056 78.420635 
L 361.06272 131.459795 
L 361.24128 90.913456 
L 361.33056 92.855882 
L 361.41984 75.584004 
L 361.5984 101.642072 
L 361.68768 86.390205 
L 361.86624 122.259068 
L 361.95552 101.106634 
L 362.13408 121.374627 
L 362.22336 89.575713 
L 362.40192 113.136588 
L 362.4912 112.468636 
L 362.58048 135.736773 
L 362.66976 87.922986 
L 362.75904 109.085365 
L 362.84832 85.924077 
L 362.9376 106.283166 
L 363.02688 92.034054 
L 363.20544 122.409478 
L 363.29472 117.237291 
L 363.384 94.528085 
L 363.47328 102.957082 
L 363.56256 125.695164 
L 363.65184 87.519171 
L 363.74112 97.028231 
L 363.91968 85.890548 
L 364.00896 103.138779 
L 364.09824 147.466078 
L 364.36608 88.712563 
L 364.54464 116.849974 
L 364.63392 111.72161 
L 364.7232 94.324412 
L 364.90176 105.005291 
L 364.99104 79.618164 
L 365.08032 93.306601 
L 365.1696 91.448889 
L 365.25888 82.095077 
L 365.43744 128.717659 
L 365.52672 125.009911 
L 365.70528 97.390665 
L 365.88384 102.90247 
L 365.97312 86.105374 
L 366.0624 121.415057 
L 366.24096 70.724753 
L 366.5088 122.555176 
L 366.77664 87.354656 
L 366.86592 113.511998 
L 366.9552 95.625777 
L 367.13376 114.148532 
L 367.22304 98.972203 
L 367.4016 115.164231 
L 367.49088 101.101645 
L 367.58016 114.564964 
L 367.848 79.911762 
L 368.11584 117.04736 
L 368.47296 78.020177 
L 368.56224 109.729936 
L 368.65152 85.093668 
L 368.83008 105.666869 
L 368.91936 106.650848 
L 369.00864 96.715359 
L 369.09792 118.371169 
L 369.1872 87.617464 
L 369.27648 98.734807 
L 369.36576 145.053281 
L 369.54432 104.817041 
L 369.6336 107.047902 
L 369.72288 116.782296 
L 369.81216 86.911165 
L 369.90144 93.464771 
L 369.99072 89.390579 
L 370.08 91.137784 
L 370.16928 101.131881 
L 370.25856 83.771359 
L 370.5264 141.64896 
L 370.70496 104.48402 
L 370.79424 113.618337 
L 370.88352 95.372776 
L 370.9728 108.522856 
L 371.06208 82.280932 
L 371.15136 115.211426 
L 371.24064 97.270041 
L 371.4192 132.125309 
L 371.50848 108.237082 
L 371.59776 110.310623 
L 371.77632 94.70441 
L 371.95488 112.715018 
L 372.04416 109.904268 
L 372.13344 96.012356 
L 372.22272 142.349469 
L 372.40128 112.156029 
L 372.49056 101.186138 
L 372.57984 138.815407 
L 372.84768 92.194238 
L 372.93696 111.418079 
L 373.02624 92.502733 
L 373.11552 117.889135 
L 373.2048 90.882394 
L 373.29408 108.055938 
L 373.38336 88.922721 
L 373.47264 101.871653 
L 373.56192 75.474729 
L 373.74048 135.271125 
L 373.82976 110.226526 
L 373.91904 117.885057 
L 374.00832 88.897689 
L 374.18688 108.98525 
L 374.27616 91.89408 
L 374.45472 116.833246 
L 374.544 102.21892 
L 374.63328 112.813686 
L 374.72256 98.123143 
L 374.81184 116.32529 
L 374.90112 87.441347 
L 374.9904 119.854256 
L 375.16896 83.288735 
L 375.25824 147.473086 
L 375.34752 101.028262 
L 375.4368 105.300285 
L 375.61536 99.948082 
L 375.70464 104.299863 
L 375.79392 85.860465 
L 375.8832 128.235483 
L 375.97248 123.217929 
L 376.15104 105.329499 
L 376.24032 121.207643 
L 376.3296 109.88178 
L 376.41888 121.375922 
L 376.50816 102.045512 
L 376.59744 107.697228 
L 376.68672 99.609245 
L 376.776 112.366666 
L 376.86528 107.060465 
L 376.95456 123.173708 
L 377.04384 121.457303 
L 377.13312 79.463985 
L 377.2224 86.170414 
L 377.31168 97.180196 
L 377.40096 139.742254 
L 377.49024 94.742189 
L 377.57952 118.108514 
L 377.6688 85.764009 
L 377.75808 93.083309 
L 377.84736 106.183406 
L 377.93664 85.151713 
L 378.02592 94.429265 
L 378.1152 123.118536 
L 378.38304 93.43316 
L 378.5616 111.264008 
L 378.74016 103.159065 
L 378.82944 83.202328 
L 379.008 107.335886 
L 379.09728 87.500626 
L 379.27584 121.846191 
L 379.36512 104.305273 
L 379.54368 115.55305 
L 379.63296 111.895315 
L 379.72224 74.616257 
L 379.9008 117.930914 
L 379.99008 74.244648 
L 380.07936 99.928098 
L 380.16864 79.373517 
L 380.25792 127.371414 
L 380.3472 93.484537 
L 380.43648 99.797919 
L 380.52576 86.484632 
L 380.61504 121.726682 
L 380.70432 78.172107 
L 380.7936 122.079017 
L 380.97216 81.835252 
L 381.06144 125.671105 
L 381.15072 85.104861 
L 381.24 126.891932 
L 381.32928 85.712962 
L 381.41856 106.171482 
L 381.50784 105.880485 
L 381.59712 102.220947 
L 381.6864 122.944954 
L 381.86496 94.938663 
L 381.95424 111.579593 
L 382.04352 108.712262 
L 382.1328 99.90034 
L 382.31136 118.048879 
L 382.40064 84.634225 
L 382.5792 123.71156 
L 382.66848 97.769269 
L 382.75776 124.200861 
L 382.93632 100.289772 
L 383.0256 97.147189 
L 383.11488 88.905998 
L 383.20416 100.368906 
L 383.29344 98.425751 
L 383.38272 96.958501 
L 383.472 99.272631 
L 383.56128 96.427344 
L 383.73984 103.382687 
L 383.82912 102.899178 
L 383.9184 92.210999 
L 384.00768 112.983027 
L 384.09696 94.552728 
L 384.18624 166.761502 
L 384.3648 93.560041 
L 384.45408 124.519925 
L 384.72192 92.063192 
L 384.8112 92.906154 
L 384.90048 90.981397 
L 384.98976 94.868131 
L 385.07904 81.476496 
L 385.16832 87.607559 
L 385.2576 86.965005 
L 385.34688 117.767039 
L 385.43616 88.926942 
L 385.52544 106.929728 
L 385.61472 97.599081 
L 385.704 107.829615 
L 385.79328 99.673777 
L 385.88256 106.814093 
L 386.06112 85.630686 
L 386.1504 118.486451 
L 386.41824 89.5557 
L 386.50752 120.380413 
L 386.68608 94.460584 
L 386.77536 117.147134 
L 386.95392 92.988855 
L 387.13248 125.627994 
L 387.22176 120.13889 
L 387.31104 99.253622 
L 387.40032 100.456211 
L 387.4896 115.148051 
L 387.66816 97.929263 
L 387.75744 100.213328 
L 387.84672 115.232155 
L 387.936 103.686114 
L 388.02528 127.691491 
L 388.3824 94.309264 
L 388.56096 103.041945 
L 388.65024 86.396893 
L 388.73952 88.289982 
L 388.8288 97.866929 
L 388.91808 92.130054 
L 389.00736 75.571169 
L 389.09664 145.555645 
L 389.2752 107.222099 
L 389.36448 96.452223 
L 389.45376 101.134502 
L 389.54304 124.546895 
L 389.7216 99.156524 
L 389.90016 123.530609 
L 389.98944 95.040406 
L 390.07872 115.033836 
L 390.168 102.296053 
L 390.25728 108.683076 
L 390.34656 92.342341 
L 390.43584 116.900417 
L 390.52512 110.692677 
L 390.6144 136.707804 
L 390.97152 87.653282 
L 391.0608 139.134329 
L 391.15008 70.564866 
L 391.23936 100.554911 
L 391.32864 64.493756 
L 391.5072 143.091387 
L 391.68576 94.963457 
L 391.77504 114.631132 
L 391.86432 110.650441 
L 392.04288 118.953042 
L 392.13216 89.278934 
L 392.22144 92.084118 
L 392.31072 114.414703 
L 392.4 107.118215 
L 392.48928 118.402546 
L 392.57856 117.558332 
L 392.66784 120.699546 
L 392.8464 88.994626 
L 392.93568 117.877111 
L 393.02496 79.668673 
L 393.20352 125.670023 
L 393.2928 103.151237 
L 393.38208 107.504983 
L 393.56064 88.68438 
L 393.64992 91.658401 
L 393.7392 131.882244 
L 393.82848 88.583296 
L 393.91776 93.382329 
L 394.09632 83.274616 
L 394.1856 119.68974 
L 394.27488 95.599618 
L 394.36416 97.775414 
L 394.45344 110.815312 
L 394.632 87.052186 
L 394.72128 91.487241 
L 394.81056 118.015511 
L 394.89984 95.907855 
L 395.0784 117.277445 
L 395.16768 103.621501 
L 395.25696 107.539057 
L 395.34624 102.823367 
L 395.43552 118.191667 
L 395.5248 97.217089 
L 395.61408 116.893557 
L 395.70336 99.089684 
L 395.79264 114.556029 
L 395.88192 104.420904 
L 395.9712 105.832881 
L 396.14976 89.298418 
L 396.23904 95.354316 
L 396.4176 133.597614 
L 396.59616 97.875065 
L 396.68544 99.70144 
L 396.77472 115.656976 
L 396.864 94.622828 
L 396.95328 102.522756 
L 397.04256 97.107787 
L 397.22112 103.768131 
L 397.3104 83.183126 
L 397.39968 107.053455 
L 397.48896 90.785865 
L 397.66752 124.834545 
L 397.7568 107.72021 
L 397.84608 110.509615 
L 397.93536 125.188657 
L 398.11392 90.37285 
L 398.2032 87.574231 
L 398.29248 101.638596 
L 398.38176 133.3217 
L 398.56032 87.005016 
L 398.6496 85.443663 
L 398.73888 109.128619 
L 398.82816 88.792417 
L 398.91744 107.102828 
L 399.00672 88.431015 
L 399.18528 129.7516 
L 399.36384 97.698684 
L 399.5424 129.852479 
L 399.63168 104.695114 
L 399.72096 121.519063 
L 399.81024 92.049705 
L 399.89952 102.041668 
L 399.9888 90.766045 
L 400.07808 120.070116 
L 400.25664 68.313636 
L 400.34592 103.424658 
L 400.4352 80.260595 
L 400.52448 117.922641 
L 400.61376 82.017867 
L 400.70304 108.968 
L 400.8816 89.485391 
L 400.97088 90.702612 
L 401.14944 105.196173 
L 401.23872 85.250443 
L 401.328 119.517166 
L 401.41728 109.849202 
L 401.50656 128.662876 
L 401.59584 89.683757 
L 401.68512 89.754172 
L 401.7744 128.041694 
L 401.86368 74.06991 
L 401.95296 86.624606 
L 402.13152 79.03569 
L 402.31008 94.038774 
L 402.39936 90.458066 
L 402.57792 101.659287 
L 402.6672 98.373505 
L 402.75648 100.00264 
L 402.84576 79.471153 
L 402.93504 136.332189 
L 403.02432 86.949485 
L 403.1136 95.265395 
L 403.20288 92.40079 
L 403.29216 116.734661 
L 403.47072 103.163199 
L 403.56 109.958944 
L 403.73856 143.637599 
L 403.82784 92.570761 
L 403.91712 142.665928 
L 404.0064 82.965692 
L 404.09568 108.314523 
L 404.18496 102.34488 
L 404.27424 94.606435 
L 404.36352 151.809084 
L 404.4528 111.964048 
L 404.54208 130.432109 
L 404.63136 114.25643 
L 404.72064 148.993838 
L 404.80992 91.536168 
L 404.8992 99.172591 
L 404.98848 85.532671 
L 405.16704 120.651829 
L 405.25632 86.541313 
L 405.3456 140.711303 
L 405.43488 75.598012 
L 405.52416 98.47407 
L 405.61344 92.605438 
L 405.792 126.107354 
L 405.97056 93.134388 
L 406.05984 77.068718 
L 406.14912 120.69724 
L 406.2384 102.450974 
L 406.32768 114.389227 
L 406.41696 99.776571 
L 406.50624 102.329232 
L 406.59552 97.965474 
L 406.6848 112.488686 
L 406.77408 95.183904 
L 406.86336 112.513876 
L 406.95264 110.004601 
L 407.04192 94.29258 
L 407.1312 106.111005 
L 407.22048 100.039411 
L 407.30976 103.85029 
L 407.39904 139.291696 
L 407.5776 102.436269 
L 407.66688 90.136123 
L 407.75616 104.960996 
L 407.84544 91.274729 
L 407.93472 123.139653 
L 408.024 89.613322 
L 408.11328 118.344319 
L 408.20256 109.350515 
L 408.29184 133.035884 
L 408.38112 98.401061 
L 408.4704 107.201034 
L 408.55968 86.472045 
L 408.64896 125.719664 
L 408.82752 74.799766 
L 408.9168 77.816843 
L 409.00608 96.077402 
L 409.09536 79.72326 
L 409.18464 85.553547 
L 409.27392 131.14037 
L 409.45248 95.483137 
L 409.54176 118.967135 
L 409.63104 118.526358 
L 409.72032 87.340477 
L 409.8096 102.532233 
L 409.89888 93.829847 
L 409.98816 68.38167 
L 410.256 121.420485 
L 410.52384 96.803762 
L 410.61312 76.560736 
L 410.97024 116.275751 
L 411.05952 113.729444 
L 411.1488 160.694729 
L 411.23808 81.467792 
L 411.32736 112.78049 
L 411.50592 97.835932 
L 411.5952 104.803706 
L 411.68448 149.341998 
L 411.86304 78.777962 
L 411.95232 107.131208 
L 412.0416 88.747887 
L 412.13088 105.823712 
L 412.22016 98.208727 
L 412.30944 103.170674 
L 412.39872 119.395904 
L 412.57728 87.576934 
L 412.75584 113.278547 
L 412.84512 77.545743 
L 413.20224 113.267862 
L 413.29152 112.590481 
L 413.3808 115.374159 
L 413.47008 94.936425 
L 413.64864 116.524181 
L 413.73792 86.299839 
L 413.8272 107.802613 
L 414.00576 94.88812 
L 414.09504 103.693826 
L 414.2736 86.93892 
L 414.36288 98.361558 
L 414.54144 93.923611 
L 414.63072 107.830038 
L 414.63072 107.830038 
" style="fill:none;stroke:#0000ff;stroke-linecap:square;stroke-width:1.5;"/>
   </g>
   <g id="patch_3">
    <path d="M 57.6 307.584 
L 57.6 41.472 
" style="fill:none;stroke:#000000;stroke-linecap:square;stroke-linejoin:miter;stroke-width:0.8;"/>
   </g>
   <g id="patch_4">
    <path d="M 414.72 307.584 
L 414.72 41.472 
" style="fill:none;stroke:#000000;stroke-linecap:square;stroke-linejoin:miter;stroke-width:0.8;"/>
   </g>
   <g id="patch_5">
    <path d="M 57.6 307.584 
L 414.72 307.584 
" style="fill:none;stroke:#000000;stroke-linecap:square;stroke-linejoin:miter;stroke-width:0.8;"/>
   </g>
   <g id="patch_6">
    <path d="M 57.6 41.472 
L 414.72 41.472 
" style="fill:none;stroke:#000000;stroke-linecap:square;stroke-linejoin:miter;stroke-width:0.8;"/>
   </g>
   <g id="legend_1">
    <g id="patch_7">
     <path d="M 202.8825 299.584 
L 403.52 299.584 
Q 406.72 299.584 406.72 296.384 
L 406.72 274.499 
Q 406.72 271.299 403.52 271.299 
L 202.8825 271.299 
Q 199.6825 271.299 199.6825 274.499 
L 199.6825 296.384 
Q 199.6825 299.584 202.8825 299.584 
z
" style="fill:#ffffff;opacity:0.8;stroke:#cccccc;stroke-linejoin:miter;"/>
    </g>
    <g id="line2d_26">
     <path d="M 206.0825 284.2565 
L 238.0825 284.2565 
" style="fill:none;stroke:#0000ff;stroke-linecap:square;stroke-width:1.5;"/>
    </g>
    <g id="line2d_27"/>
    <g id="text_15">
     <!-- cumulative reward -->
     <g transform="translate(250.8825 289.8565)scale(0.16 -0.16)">
      <defs>
       <path d="M 3122 3366 
L 3122 2828 
Q 2878 2963 2633 3030 
Q 2388 3097 2138 3097 
Q 1578 3097 1268 2742 
Q 959 2388 959 1747 
Q 959 1106 1268 751 
Q 1578 397 2138 397 
Q 2388 397 2633 464 
Q 2878 531 3122 666 
L 3122 134 
Q 2881 22 2623 -34 
Q 2366 -91 2075 -91 
Q 1284 -91 818 406 
Q 353 903 353 1747 
Q 353 2603 823 3093 
Q 1294 3584 2113 3584 
Q 2378 3584 2631 3529 
Q 2884 3475 3122 3366 
z
" id="DejaVuSans-63" transform="scale(0.015625)"/>
      </defs>
      <use xlink:href="#DejaVuSans-63"/>
      <use x="54.980469" xlink:href="#DejaVuSans-75"/>
      <use x="118.359375" xlink:href="#DejaVuSans-6d"/>
      <use x="215.771484" xlink:href="#DejaVuSans-75"/>
      <use x="279.150391" xlink:href="#DejaVuSans-6c"/>
      <use x="306.933594" xlink:href="#DejaVuSans-61"/>
      <use x="368.212891" xlink:href="#DejaVuSans-74"/>
      <use x="407.421875" xlink:href="#DejaVuSans-69"/>
      <use x="435.205078" xlink:href="#DejaVuSans-76"/>
      <use x="494.384766" xlink:href="#DejaVuSans-65"/>
      <use x="555.908203" xlink:href="#DejaVuSans-20"/>
      <use x="587.695312" xlink:href="#DejaVuSans-72"/>
      <use x="626.558594" xlink:href="#DejaVuSans-65"/>
      <use x="688.082031" xlink:href="#DejaVuSans-77"/>
      <use x="769.869141" xlink:href="#DejaVuSans-61"/>
      <use x="831.148438" xlink:href="#DejaVuSans-72"/>
      <use x="870.511719" xlink:href="#DejaVuSans-64"/>
     </g>
    </g>
   </g>
  </g>
 </g>
 <defs>
  <clipPath id="pcfb118fe21">
   <rect height="266.112" width="357.12" x="57.6" y="41.472"/>
  </clipPath>
 </defs>
</svg>
