<?xml version="1.0" encoding="utf-8" standalone="no"?>
<!DOCTYPE svg PUBLIC "-//W3C//DTD SVG 1.1//EN"
  "http://www.w3.org/Graphics/SVG/1.1/DTD/svg11.dtd">
<svg height="345.6pt" version="1.1" viewBox="0 0 460.8 345.6" width="460.8pt" xmlns="http://www.w3.org/2000/svg" xmlns:xlink="http://www.w3.org/1999/xlink">
 <metadata>
  <rdf:RDF xmlns:cc="http://creativecommons.org/ns#" xmlns:dc="http://purl.org/dc/elements/1.1/" xmlns:rdf="http://www.w3.org/1999/02/22-rdf-syntax-ns#">
   <cc:Work>
    <dc:type rdf:resource="http://purl.org/dc/dcmitype/StillImage"/>
    <dc:date>2021-11-03T21:35:24.312164</dc:date>
    <dc:description>{"agent.algorithm": "RayProximalPolicyOptimization", "agent.algorithm.render_env": false, "agent.algorithm.num_workers": 0, "agent.algorithm.batch_mode": "complete_episodes", "agent.algorithm.lr": 1e-05, "agent.algorithm.train_batch_size": 200, "agent.algorithm.optimizer": "Adam", "agent.algorithm.vf_clip_param": 100, "agent.algorithm.model": {"fcnet_activation": "tanh", "fcnet_hiddens": [30, 30]}, "env.env_class": "SchedulerPolicyRayEnvironment", "env.env_config": {"solver_driver": "CMAdriver", "solver_driver_args": [5, 10, 13, 0.5], "maximize": false, "steps": 50, "state_metrics_names": ["DifferenceOfBest", "SolverStateHistory"], "state_metrics_config": [[40, false, 1, true, false], [{"step_size": {"max": 3, "min": 0}}, 40]], "reward_metric": "Best", "reward_metric_config": [false, false], "memes_no": 1, "action_space_config": {"step_size": {"max": 3, "min": 1e-10}}}}</dc:description>
    <dc:format>image/svg+xml</dc:format>
    <dc:creator>
     <cc:Agent>
      <dc:title>Matplotlib v3.4.3, https://matplotlib.org/</dc:title>
     </cc:Agent>
    </dc:creator>
   </cc:Work>
  </rdf:RDF>
 </metadata>
 <defs>
  <style type="text/css">*{stroke-linecap:butt;stroke-linejoin:round;}</style>
 </defs>
 <g id="figure_1">
  <g id="patch_1">
   <path d="M 0 345.6 
L 460.8 345.6 
L 460.8 0 
L 0 0 
z
" style="fill:#ffffff;"/>
  </g>
  <g id="axes_1">
   <g id="patch_2">
    <path d="M 57.6 307.584 
L 414.72 307.584 
L 414.72 41.472 
L 57.6 41.472 
z
" style="fill:#ffffff;"/>
   </g>
   <g id="matplotlib.axis_1">
    <g id="xtick_1">
     <g id="line2d_1">
      <path clip-path="url(#p7e8c8e5208)" d="M 57.6 307.584 
L 57.6 41.472 
" style="fill:none;stroke:#b0b0b0;stroke-linecap:square;stroke-width:0.8;"/>
     </g>
     <g id="line2d_2">
      <defs>
       <path d="M 0 0 
L 0 3.5 
" id="ma49a302a97" style="stroke:#000000;stroke-width:0.8;"/>
      </defs>
      <g>
       <use style="stroke:#000000;stroke-width:0.8;" x="57.6" xlink:href="#ma49a302a97" y="307.584"/>
      </g>
     </g>
     <g id="text_1">
      <!-- 0 -->
      <g transform="translate(52.51 326.7415)scale(0.16 -0.16)">
       <defs>
        <path d="M 2034 4250 
Q 1547 4250 1301 3770 
Q 1056 3291 1056 2328 
Q 1056 1369 1301 889 
Q 1547 409 2034 409 
Q 2525 409 2770 889 
Q 3016 1369 3016 2328 
Q 3016 3291 2770 3770 
Q 2525 4250 2034 4250 
z
M 2034 4750 
Q 2819 4750 3233 4129 
Q 3647 3509 3647 2328 
Q 3647 1150 3233 529 
Q 2819 -91 2034 -91 
Q 1250 -91 836 529 
Q 422 1150 422 2328 
Q 422 3509 836 4129 
Q 1250 4750 2034 4750 
z
" id="DejaVuSans-30" transform="scale(0.015625)"/>
       </defs>
       <use xlink:href="#DejaVuSans-30"/>
      </g>
     </g>
    </g>
    <g id="xtick_2">
     <g id="line2d_3">
      <path clip-path="url(#p7e8c8e5208)" d="M 146.88 307.584 
L 146.88 41.472 
" style="fill:none;stroke:#b0b0b0;stroke-linecap:square;stroke-width:0.8;"/>
     </g>
     <g id="line2d_4">
      <g>
       <use style="stroke:#000000;stroke-width:0.8;" x="146.88" xlink:href="#ma49a302a97" y="307.584"/>
      </g>
     </g>
     <g id="text_2">
      <!-- 1000 -->
      <g transform="translate(126.52 326.7415)scale(0.16 -0.16)">
       <defs>
        <path d="M 794 531 
L 1825 531 
L 1825 4091 
L 703 3866 
L 703 4441 
L 1819 4666 
L 2450 4666 
L 2450 531 
L 3481 531 
L 3481 0 
L 794 0 
L 794 531 
z
" id="DejaVuSans-31" transform="scale(0.015625)"/>
       </defs>
       <use xlink:href="#DejaVuSans-31"/>
       <use x="63.623047" xlink:href="#DejaVuSans-30"/>
       <use x="127.246094" xlink:href="#DejaVuSans-30"/>
       <use x="190.869141" xlink:href="#DejaVuSans-30"/>
      </g>
     </g>
    </g>
    <g id="xtick_3">
     <g id="line2d_5">
      <path clip-path="url(#p7e8c8e5208)" d="M 236.16 307.584 
L 236.16 41.472 
" style="fill:none;stroke:#b0b0b0;stroke-linecap:square;stroke-width:0.8;"/>
     </g>
     <g id="line2d_6">
      <g>
       <use style="stroke:#000000;stroke-width:0.8;" x="236.16" xlink:href="#ma49a302a97" y="307.584"/>
      </g>
     </g>
     <g id="text_3">
      <!-- 2000 -->
      <g transform="translate(215.8 326.7415)scale(0.16 -0.16)">
       <defs>
        <path d="M 1228 531 
L 3431 531 
L 3431 0 
L 469 0 
L 469 531 
Q 828 903 1448 1529 
Q 2069 2156 2228 2338 
Q 2531 2678 2651 2914 
Q 2772 3150 2772 3378 
Q 2772 3750 2511 3984 
Q 2250 4219 1831 4219 
Q 1534 4219 1204 4116 
Q 875 4013 500 3803 
L 500 4441 
Q 881 4594 1212 4672 
Q 1544 4750 1819 4750 
Q 2544 4750 2975 4387 
Q 3406 4025 3406 3419 
Q 3406 3131 3298 2873 
Q 3191 2616 2906 2266 
Q 2828 2175 2409 1742 
Q 1991 1309 1228 531 
z
" id="DejaVuSans-32" transform="scale(0.015625)"/>
       </defs>
       <use xlink:href="#DejaVuSans-32"/>
       <use x="63.623047" xlink:href="#DejaVuSans-30"/>
       <use x="127.246094" xlink:href="#DejaVuSans-30"/>
       <use x="190.869141" xlink:href="#DejaVuSans-30"/>
      </g>
     </g>
    </g>
    <g id="xtick_4">
     <g id="line2d_7">
      <path clip-path="url(#p7e8c8e5208)" d="M 325.44 307.584 
L 325.44 41.472 
" style="fill:none;stroke:#b0b0b0;stroke-linecap:square;stroke-width:0.8;"/>
     </g>
     <g id="line2d_8">
      <g>
       <use style="stroke:#000000;stroke-width:0.8;" x="325.44" xlink:href="#ma49a302a97" y="307.584"/>
      </g>
     </g>
     <g id="text_4">
      <!-- 3000 -->
      <g transform="translate(305.08 326.7415)scale(0.16 -0.16)">
       <defs>
        <path d="M 2597 2516 
Q 3050 2419 3304 2112 
Q 3559 1806 3559 1356 
Q 3559 666 3084 287 
Q 2609 -91 1734 -91 
Q 1441 -91 1130 -33 
Q 819 25 488 141 
L 488 750 
Q 750 597 1062 519 
Q 1375 441 1716 441 
Q 2309 441 2620 675 
Q 2931 909 2931 1356 
Q 2931 1769 2642 2001 
Q 2353 2234 1838 2234 
L 1294 2234 
L 1294 2753 
L 1863 2753 
Q 2328 2753 2575 2939 
Q 2822 3125 2822 3475 
Q 2822 3834 2567 4026 
Q 2313 4219 1838 4219 
Q 1578 4219 1281 4162 
Q 984 4106 628 3988 
L 628 4550 
Q 988 4650 1302 4700 
Q 1616 4750 1894 4750 
Q 2613 4750 3031 4423 
Q 3450 4097 3450 3541 
Q 3450 3153 3228 2886 
Q 3006 2619 2597 2516 
z
" id="DejaVuSans-33" transform="scale(0.015625)"/>
       </defs>
       <use xlink:href="#DejaVuSans-33"/>
       <use x="63.623047" xlink:href="#DejaVuSans-30"/>
       <use x="127.246094" xlink:href="#DejaVuSans-30"/>
       <use x="190.869141" xlink:href="#DejaVuSans-30"/>
      </g>
     </g>
    </g>
    <g id="xtick_5">
     <g id="line2d_9">
      <path clip-path="url(#p7e8c8e5208)" d="M 414.72 307.584 
L 414.72 41.472 
" style="fill:none;stroke:#b0b0b0;stroke-linecap:square;stroke-width:0.8;"/>
     </g>
     <g id="line2d_10">
      <g>
       <use style="stroke:#000000;stroke-width:0.8;" x="414.72" xlink:href="#ma49a302a97" y="307.584"/>
      </g>
     </g>
     <g id="text_5">
      <!-- 4000 -->
      <g transform="translate(394.36 326.7415)scale(0.16 -0.16)">
       <defs>
        <path d="M 2419 4116 
L 825 1625 
L 2419 1625 
L 2419 4116 
z
M 2253 4666 
L 3047 4666 
L 3047 1625 
L 3713 1625 
L 3713 1100 
L 3047 1100 
L 3047 0 
L 2419 0 
L 2419 1100 
L 313 1100 
L 313 1709 
L 2253 4666 
z
" id="DejaVuSans-34" transform="scale(0.015625)"/>
       </defs>
       <use xlink:href="#DejaVuSans-34"/>
       <use x="63.623047" xlink:href="#DejaVuSans-30"/>
       <use x="127.246094" xlink:href="#DejaVuSans-30"/>
       <use x="190.869141" xlink:href="#DejaVuSans-30"/>
      </g>
     </g>
    </g>
    <g id="text_6">
     <!-- Episodes -->
     <g transform="translate(200.5725 346.2265)scale(0.16 -0.16)">
      <defs>
       <path d="M 628 4666 
L 3578 4666 
L 3578 4134 
L 1259 4134 
L 1259 2753 
L 3481 2753 
L 3481 2222 
L 1259 2222 
L 1259 531 
L 3634 531 
L 3634 0 
L 628 0 
L 628 4666 
z
" id="DejaVuSans-45" transform="scale(0.015625)"/>
       <path d="M 1159 525 
L 1159 -1331 
L 581 -1331 
L 581 3500 
L 1159 3500 
L 1159 2969 
Q 1341 3281 1617 3432 
Q 1894 3584 2278 3584 
Q 2916 3584 3314 3078 
Q 3713 2572 3713 1747 
Q 3713 922 3314 415 
Q 2916 -91 2278 -91 
Q 1894 -91 1617 61 
Q 1341 213 1159 525 
z
M 3116 1747 
Q 3116 2381 2855 2742 
Q 2594 3103 2138 3103 
Q 1681 3103 1420 2742 
Q 1159 2381 1159 1747 
Q 1159 1113 1420 752 
Q 1681 391 2138 391 
Q 2594 391 2855 752 
Q 3116 1113 3116 1747 
z
" id="DejaVuSans-70" transform="scale(0.015625)"/>
       <path d="M 603 3500 
L 1178 3500 
L 1178 0 
L 603 0 
L 603 3500 
z
M 603 4863 
L 1178 4863 
L 1178 4134 
L 603 4134 
L 603 4863 
z
" id="DejaVuSans-69" transform="scale(0.015625)"/>
       <path d="M 2834 3397 
L 2834 2853 
Q 2591 2978 2328 3040 
Q 2066 3103 1784 3103 
Q 1356 3103 1142 2972 
Q 928 2841 928 2578 
Q 928 2378 1081 2264 
Q 1234 2150 1697 2047 
L 1894 2003 
Q 2506 1872 2764 1633 
Q 3022 1394 3022 966 
Q 3022 478 2636 193 
Q 2250 -91 1575 -91 
Q 1294 -91 989 -36 
Q 684 19 347 128 
L 347 722 
Q 666 556 975 473 
Q 1284 391 1588 391 
Q 1994 391 2212 530 
Q 2431 669 2431 922 
Q 2431 1156 2273 1281 
Q 2116 1406 1581 1522 
L 1381 1569 
Q 847 1681 609 1914 
Q 372 2147 372 2553 
Q 372 3047 722 3315 
Q 1072 3584 1716 3584 
Q 2034 3584 2315 3537 
Q 2597 3491 2834 3397 
z
" id="DejaVuSans-73" transform="scale(0.015625)"/>
       <path d="M 1959 3097 
Q 1497 3097 1228 2736 
Q 959 2375 959 1747 
Q 959 1119 1226 758 
Q 1494 397 1959 397 
Q 2419 397 2687 759 
Q 2956 1122 2956 1747 
Q 2956 2369 2687 2733 
Q 2419 3097 1959 3097 
z
M 1959 3584 
Q 2709 3584 3137 3096 
Q 3566 2609 3566 1747 
Q 3566 888 3137 398 
Q 2709 -91 1959 -91 
Q 1206 -91 779 398 
Q 353 888 353 1747 
Q 353 2609 779 3096 
Q 1206 3584 1959 3584 
z
" id="DejaVuSans-6f" transform="scale(0.015625)"/>
       <path d="M 2906 2969 
L 2906 4863 
L 3481 4863 
L 3481 0 
L 2906 0 
L 2906 525 
Q 2725 213 2448 61 
Q 2172 -91 1784 -91 
Q 1150 -91 751 415 
Q 353 922 353 1747 
Q 353 2572 751 3078 
Q 1150 3584 1784 3584 
Q 2172 3584 2448 3432 
Q 2725 3281 2906 2969 
z
M 947 1747 
Q 947 1113 1208 752 
Q 1469 391 1925 391 
Q 2381 391 2643 752 
Q 2906 1113 2906 1747 
Q 2906 2381 2643 2742 
Q 2381 3103 1925 3103 
Q 1469 3103 1208 2742 
Q 947 2381 947 1747 
z
" id="DejaVuSans-64" transform="scale(0.015625)"/>
       <path d="M 3597 1894 
L 3597 1613 
L 953 1613 
Q 991 1019 1311 708 
Q 1631 397 2203 397 
Q 2534 397 2845 478 
Q 3156 559 3463 722 
L 3463 178 
Q 3153 47 2828 -22 
Q 2503 -91 2169 -91 
Q 1331 -91 842 396 
Q 353 884 353 1716 
Q 353 2575 817 3079 
Q 1281 3584 2069 3584 
Q 2775 3584 3186 3129 
Q 3597 2675 3597 1894 
z
M 3022 2063 
Q 3016 2534 2758 2815 
Q 2500 3097 2075 3097 
Q 1594 3097 1305 2825 
Q 1016 2553 972 2059 
L 3022 2063 
z
" id="DejaVuSans-65" transform="scale(0.015625)"/>
      </defs>
      <use xlink:href="#DejaVuSans-45"/>
      <use x="63.183594" xlink:href="#DejaVuSans-70"/>
      <use x="126.660156" xlink:href="#DejaVuSans-69"/>
      <use x="154.443359" xlink:href="#DejaVuSans-73"/>
      <use x="206.542969" xlink:href="#DejaVuSans-6f"/>
      <use x="267.724609" xlink:href="#DejaVuSans-64"/>
      <use x="331.201172" xlink:href="#DejaVuSans-65"/>
      <use x="392.724609" xlink:href="#DejaVuSans-73"/>
     </g>
    </g>
   </g>
   <g id="matplotlib.axis_2">
    <g id="ytick_1">
     <g id="line2d_11">
      <path clip-path="url(#p7e8c8e5208)" d="M 57.6 293.550428 
L 414.72 293.550428 
" style="fill:none;stroke:#b0b0b0;stroke-linecap:square;stroke-width:0.8;"/>
     </g>
     <g id="line2d_12">
      <defs>
       <path d="M 0 0 
L -3.5 0 
" id="m9c42dbdb04" style="stroke:#000000;stroke-width:0.8;"/>
      </defs>
      <g>
       <use style="stroke:#000000;stroke-width:0.8;" x="57.6" xlink:href="#m9c42dbdb04" y="293.550428"/>
      </g>
     </g>
     <g id="text_7">
      <!-- −15000 -->
      <g transform="translate(-13.7075 299.629178)scale(0.16 -0.16)">
       <defs>
        <path d="M 678 2272 
L 4684 2272 
L 4684 1741 
L 678 1741 
L 678 2272 
z
" id="DejaVuSans-2212" transform="scale(0.015625)"/>
        <path d="M 691 4666 
L 3169 4666 
L 3169 4134 
L 1269 4134 
L 1269 2991 
Q 1406 3038 1543 3061 
Q 1681 3084 1819 3084 
Q 2600 3084 3056 2656 
Q 3513 2228 3513 1497 
Q 3513 744 3044 326 
Q 2575 -91 1722 -91 
Q 1428 -91 1123 -41 
Q 819 9 494 109 
L 494 744 
Q 775 591 1075 516 
Q 1375 441 1709 441 
Q 2250 441 2565 725 
Q 2881 1009 2881 1497 
Q 2881 1984 2565 2268 
Q 2250 2553 1709 2553 
Q 1456 2553 1204 2497 
Q 953 2441 691 2322 
L 691 4666 
z
" id="DejaVuSans-35" transform="scale(0.015625)"/>
       </defs>
       <use xlink:href="#DejaVuSans-2212"/>
       <use x="83.789062" xlink:href="#DejaVuSans-31"/>
       <use x="147.412109" xlink:href="#DejaVuSans-35"/>
       <use x="211.035156" xlink:href="#DejaVuSans-30"/>
       <use x="274.658203" xlink:href="#DejaVuSans-30"/>
       <use x="338.28125" xlink:href="#DejaVuSans-30"/>
      </g>
     </g>
    </g>
    <g id="ytick_2">
     <g id="line2d_13">
      <path clip-path="url(#p7e8c8e5208)" d="M 57.6 258.332794 
L 414.72 258.332794 
" style="fill:none;stroke:#b0b0b0;stroke-linecap:square;stroke-width:0.8;"/>
     </g>
     <g id="line2d_14">
      <g>
       <use style="stroke:#000000;stroke-width:0.8;" x="57.6" xlink:href="#m9c42dbdb04" y="258.332794"/>
      </g>
     </g>
     <g id="text_8">
      <!-- −12500 -->
      <g transform="translate(-13.7075 264.411544)scale(0.16 -0.16)">
       <use xlink:href="#DejaVuSans-2212"/>
       <use x="83.789062" xlink:href="#DejaVuSans-31"/>
       <use x="147.412109" xlink:href="#DejaVuSans-32"/>
       <use x="211.035156" xlink:href="#DejaVuSans-35"/>
       <use x="274.658203" xlink:href="#DejaVuSans-30"/>
       <use x="338.28125" xlink:href="#DejaVuSans-30"/>
      </g>
     </g>
    </g>
    <g id="ytick_3">
     <g id="line2d_15">
      <path clip-path="url(#p7e8c8e5208)" d="M 57.6 223.115159 
L 414.72 223.115159 
" style="fill:none;stroke:#b0b0b0;stroke-linecap:square;stroke-width:0.8;"/>
     </g>
     <g id="line2d_16">
      <g>
       <use style="stroke:#000000;stroke-width:0.8;" x="57.6" xlink:href="#m9c42dbdb04" y="223.115159"/>
      </g>
     </g>
     <g id="text_9">
      <!-- −10000 -->
      <g transform="translate(-13.7075 229.193909)scale(0.16 -0.16)">
       <use xlink:href="#DejaVuSans-2212"/>
       <use x="83.789062" xlink:href="#DejaVuSans-31"/>
       <use x="147.412109" xlink:href="#DejaVuSans-30"/>
       <use x="211.035156" xlink:href="#DejaVuSans-30"/>
       <use x="274.658203" xlink:href="#DejaVuSans-30"/>
       <use x="338.28125" xlink:href="#DejaVuSans-30"/>
      </g>
     </g>
    </g>
    <g id="ytick_4">
     <g id="line2d_17">
      <path clip-path="url(#p7e8c8e5208)" d="M 57.6 187.897525 
L 414.72 187.897525 
" style="fill:none;stroke:#b0b0b0;stroke-linecap:square;stroke-width:0.8;"/>
     </g>
     <g id="line2d_18">
      <g>
       <use style="stroke:#000000;stroke-width:0.8;" x="57.6" xlink:href="#m9c42dbdb04" y="187.897525"/>
      </g>
     </g>
     <g id="text_10">
      <!-- −7500 -->
      <g transform="translate(-3.5275 193.976275)scale(0.16 -0.16)">
       <defs>
        <path d="M 525 4666 
L 3525 4666 
L 3525 4397 
L 1831 0 
L 1172 0 
L 2766 4134 
L 525 4134 
L 525 4666 
z
" id="DejaVuSans-37" transform="scale(0.015625)"/>
       </defs>
       <use xlink:href="#DejaVuSans-2212"/>
       <use x="83.789062" xlink:href="#DejaVuSans-37"/>
       <use x="147.412109" xlink:href="#DejaVuSans-35"/>
       <use x="211.035156" xlink:href="#DejaVuSans-30"/>
       <use x="274.658203" xlink:href="#DejaVuSans-30"/>
      </g>
     </g>
    </g>
    <g id="ytick_5">
     <g id="line2d_19">
      <path clip-path="url(#p7e8c8e5208)" d="M 57.6 152.67989 
L 414.72 152.67989 
" style="fill:none;stroke:#b0b0b0;stroke-linecap:square;stroke-width:0.8;"/>
     </g>
     <g id="line2d_20">
      <g>
       <use style="stroke:#000000;stroke-width:0.8;" x="57.6" xlink:href="#m9c42dbdb04" y="152.67989"/>
      </g>
     </g>
     <g id="text_11">
      <!-- −5000 -->
      <g transform="translate(-3.5275 158.75864)scale(0.16 -0.16)">
       <use xlink:href="#DejaVuSans-2212"/>
       <use x="83.789062" xlink:href="#DejaVuSans-35"/>
       <use x="147.412109" xlink:href="#DejaVuSans-30"/>
       <use x="211.035156" xlink:href="#DejaVuSans-30"/>
       <use x="274.658203" xlink:href="#DejaVuSans-30"/>
      </g>
     </g>
    </g>
    <g id="ytick_6">
     <g id="line2d_21">
      <path clip-path="url(#p7e8c8e5208)" d="M 57.6 117.462256 
L 414.72 117.462256 
" style="fill:none;stroke:#b0b0b0;stroke-linecap:square;stroke-width:0.8;"/>
     </g>
     <g id="line2d_22">
      <g>
       <use style="stroke:#000000;stroke-width:0.8;" x="57.6" xlink:href="#m9c42dbdb04" y="117.462256"/>
      </g>
     </g>
     <g id="text_12">
      <!-- −2500 -->
      <g transform="translate(-3.5275 123.541006)scale(0.16 -0.16)">
       <use xlink:href="#DejaVuSans-2212"/>
       <use x="83.789062" xlink:href="#DejaVuSans-32"/>
       <use x="147.412109" xlink:href="#DejaVuSans-35"/>
       <use x="211.035156" xlink:href="#DejaVuSans-30"/>
       <use x="274.658203" xlink:href="#DejaVuSans-30"/>
      </g>
     </g>
    </g>
    <g id="ytick_7">
     <g id="line2d_23">
      <path clip-path="url(#p7e8c8e5208)" d="M 57.6 82.244621 
L 414.72 82.244621 
" style="fill:none;stroke:#b0b0b0;stroke-linecap:square;stroke-width:0.8;"/>
     </g>
     <g id="line2d_24">
      <g>
       <use style="stroke:#000000;stroke-width:0.8;" x="57.6" xlink:href="#m9c42dbdb04" y="82.244621"/>
      </g>
     </g>
     <g id="text_13">
      <!-- 0 -->
      <g transform="translate(40.42 88.323371)scale(0.16 -0.16)">
       <use xlink:href="#DejaVuSans-30"/>
      </g>
     </g>
    </g>
    <g id="ytick_8">
     <g id="line2d_25">
      <path clip-path="url(#p7e8c8e5208)" d="M 57.6 47.026987 
L 414.72 47.026987 
" style="fill:none;stroke:#b0b0b0;stroke-linecap:square;stroke-width:0.8;"/>
     </g>
     <g id="line2d_26">
      <g>
       <use style="stroke:#000000;stroke-width:0.8;" x="57.6" xlink:href="#m9c42dbdb04" y="47.026987"/>
      </g>
     </g>
     <g id="text_14">
      <!-- 2500 -->
      <g transform="translate(9.88 53.105737)scale(0.16 -0.16)">
       <use xlink:href="#DejaVuSans-32"/>
       <use x="63.623047" xlink:href="#DejaVuSans-35"/>
       <use x="127.246094" xlink:href="#DejaVuSans-30"/>
       <use x="190.869141" xlink:href="#DejaVuSans-30"/>
      </g>
     </g>
    </g>
    <g id="text_15">
     <!-- Cumulative Reward -->
     <g transform="translate(-21.035 252.52425)rotate(-90)scale(0.16 -0.16)">
      <defs>
       <path d="M 4122 4306 
L 4122 3641 
Q 3803 3938 3442 4084 
Q 3081 4231 2675 4231 
Q 1875 4231 1450 3742 
Q 1025 3253 1025 2328 
Q 1025 1406 1450 917 
Q 1875 428 2675 428 
Q 3081 428 3442 575 
Q 3803 722 4122 1019 
L 4122 359 
Q 3791 134 3420 21 
Q 3050 -91 2638 -91 
Q 1578 -91 968 557 
Q 359 1206 359 2328 
Q 359 3453 968 4101 
Q 1578 4750 2638 4750 
Q 3056 4750 3426 4639 
Q 3797 4528 4122 4306 
z
" id="DejaVuSans-43" transform="scale(0.015625)"/>
       <path d="M 544 1381 
L 544 3500 
L 1119 3500 
L 1119 1403 
Q 1119 906 1312 657 
Q 1506 409 1894 409 
Q 2359 409 2629 706 
Q 2900 1003 2900 1516 
L 2900 3500 
L 3475 3500 
L 3475 0 
L 2900 0 
L 2900 538 
Q 2691 219 2414 64 
Q 2138 -91 1772 -91 
Q 1169 -91 856 284 
Q 544 659 544 1381 
z
M 1991 3584 
L 1991 3584 
z
" id="DejaVuSans-75" transform="scale(0.015625)"/>
       <path d="M 3328 2828 
Q 3544 3216 3844 3400 
Q 4144 3584 4550 3584 
Q 5097 3584 5394 3201 
Q 5691 2819 5691 2113 
L 5691 0 
L 5113 0 
L 5113 2094 
Q 5113 2597 4934 2840 
Q 4756 3084 4391 3084 
Q 3944 3084 3684 2787 
Q 3425 2491 3425 1978 
L 3425 0 
L 2847 0 
L 2847 2094 
Q 2847 2600 2669 2842 
Q 2491 3084 2119 3084 
Q 1678 3084 1418 2786 
Q 1159 2488 1159 1978 
L 1159 0 
L 581 0 
L 581 3500 
L 1159 3500 
L 1159 2956 
Q 1356 3278 1631 3431 
Q 1906 3584 2284 3584 
Q 2666 3584 2933 3390 
Q 3200 3197 3328 2828 
z
" id="DejaVuSans-6d" transform="scale(0.015625)"/>
       <path d="M 603 4863 
L 1178 4863 
L 1178 0 
L 603 0 
L 603 4863 
z
" id="DejaVuSans-6c" transform="scale(0.015625)"/>
       <path d="M 2194 1759 
Q 1497 1759 1228 1600 
Q 959 1441 959 1056 
Q 959 750 1161 570 
Q 1363 391 1709 391 
Q 2188 391 2477 730 
Q 2766 1069 2766 1631 
L 2766 1759 
L 2194 1759 
z
M 3341 1997 
L 3341 0 
L 2766 0 
L 2766 531 
Q 2569 213 2275 61 
Q 1981 -91 1556 -91 
Q 1019 -91 701 211 
Q 384 513 384 1019 
Q 384 1609 779 1909 
Q 1175 2209 1959 2209 
L 2766 2209 
L 2766 2266 
Q 2766 2663 2505 2880 
Q 2244 3097 1772 3097 
Q 1472 3097 1187 3025 
Q 903 2953 641 2809 
L 641 3341 
Q 956 3463 1253 3523 
Q 1550 3584 1831 3584 
Q 2591 3584 2966 3190 
Q 3341 2797 3341 1997 
z
" id="DejaVuSans-61" transform="scale(0.015625)"/>
       <path d="M 1172 4494 
L 1172 3500 
L 2356 3500 
L 2356 3053 
L 1172 3053 
L 1172 1153 
Q 1172 725 1289 603 
Q 1406 481 1766 481 
L 2356 481 
L 2356 0 
L 1766 0 
Q 1100 0 847 248 
Q 594 497 594 1153 
L 594 3053 
L 172 3053 
L 172 3500 
L 594 3500 
L 594 4494 
L 1172 4494 
z
" id="DejaVuSans-74" transform="scale(0.015625)"/>
       <path d="M 191 3500 
L 800 3500 
L 1894 563 
L 2988 3500 
L 3597 3500 
L 2284 0 
L 1503 0 
L 191 3500 
z
" id="DejaVuSans-76" transform="scale(0.015625)"/>
       <path id="DejaVuSans-20" transform="scale(0.015625)"/>
       <path d="M 2841 2188 
Q 3044 2119 3236 1894 
Q 3428 1669 3622 1275 
L 4263 0 
L 3584 0 
L 2988 1197 
Q 2756 1666 2539 1819 
Q 2322 1972 1947 1972 
L 1259 1972 
L 1259 0 
L 628 0 
L 628 4666 
L 2053 4666 
Q 2853 4666 3247 4331 
Q 3641 3997 3641 3322 
Q 3641 2881 3436 2590 
Q 3231 2300 2841 2188 
z
M 1259 4147 
L 1259 2491 
L 2053 2491 
Q 2509 2491 2742 2702 
Q 2975 2913 2975 3322 
Q 2975 3731 2742 3939 
Q 2509 4147 2053 4147 
L 1259 4147 
z
" id="DejaVuSans-52" transform="scale(0.015625)"/>
       <path d="M 269 3500 
L 844 3500 
L 1563 769 
L 2278 3500 
L 2956 3500 
L 3675 769 
L 4391 3500 
L 4966 3500 
L 4050 0 
L 3372 0 
L 2619 2869 
L 1863 0 
L 1184 0 
L 269 3500 
z
" id="DejaVuSans-77" transform="scale(0.015625)"/>
       <path d="M 2631 2963 
Q 2534 3019 2420 3045 
Q 2306 3072 2169 3072 
Q 1681 3072 1420 2755 
Q 1159 2438 1159 1844 
L 1159 0 
L 581 0 
L 581 3500 
L 1159 3500 
L 1159 2956 
Q 1341 3275 1631 3429 
Q 1922 3584 2338 3584 
Q 2397 3584 2469 3576 
Q 2541 3569 2628 3553 
L 2631 2963 
z
" id="DejaVuSans-72" transform="scale(0.015625)"/>
      </defs>
      <use xlink:href="#DejaVuSans-43"/>
      <use x="69.824219" xlink:href="#DejaVuSans-75"/>
      <use x="133.203125" xlink:href="#DejaVuSans-6d"/>
      <use x="230.615234" xlink:href="#DejaVuSans-75"/>
      <use x="293.994141" xlink:href="#DejaVuSans-6c"/>
      <use x="321.777344" xlink:href="#DejaVuSans-61"/>
      <use x="383.056641" xlink:href="#DejaVuSans-74"/>
      <use x="422.265625" xlink:href="#DejaVuSans-69"/>
      <use x="450.048828" xlink:href="#DejaVuSans-76"/>
      <use x="509.228516" xlink:href="#DejaVuSans-65"/>
      <use x="570.751953" xlink:href="#DejaVuSans-20"/>
      <use x="602.539062" xlink:href="#DejaVuSans-52"/>
      <use x="667.521484" xlink:href="#DejaVuSans-65"/>
      <use x="729.044922" xlink:href="#DejaVuSans-77"/>
      <use x="810.832031" xlink:href="#DejaVuSans-61"/>
      <use x="872.111328" xlink:href="#DejaVuSans-72"/>
      <use x="911.474609" xlink:href="#DejaVuSans-64"/>
     </g>
    </g>
   </g>
   <g id="line2d_27">
    <path clip-path="url(#p7e8c8e5208)" d="M 57.6 217.250251 
L 57.68928 195.249858 
L 57.77856 244.050288 
L 57.86784 173.986663 
L 57.95712 217.250251 
L 58.0464 195.249858 
L 58.13568 244.050288 
L 58.22496 173.986663 
L 58.31424 217.250251 
L 58.40352 195.249858 
L 58.4928 244.050288 
L 58.58208 173.986663 
L 58.67136 217.250251 
L 58.76064 195.249858 
L 58.84992 244.050288 
L 58.9392 173.986663 
L 59.02848 217.250251 
L 59.11776 195.249858 
L 59.20704 244.050288 
L 59.29632 173.986663 
L 59.3856 217.250251 
L 59.47488 195.249858 
L 59.56416 244.050288 
L 59.65344 173.986663 
L 59.74272 217.250251 
L 59.832 195.249858 
L 59.92128 244.050288 
L 60.01056 173.986663 
L 60.09984 217.250251 
L 60.18912 195.249858 
L 60.2784 244.050288 
L 60.36768 173.986663 
L 60.45696 217.250251 
L 60.54624 195.249858 
L 60.63552 244.050288 
L 60.7248 173.986663 
L 60.81408 217.250251 
L 60.90336 195.249858 
L 60.99264 244.050288 
L 61.08192 173.986663 
L 61.1712 217.250251 
L 61.26048 195.249858 
L 61.34976 244.050288 
L 61.43904 173.986663 
L 61.52832 217.250251 
L 61.6176 195.249858 
L 61.70688 244.050288 
L 61.79616 173.986663 
L 61.88544 217.250251 
L 61.97472 195.249858 
L 62.064 244.050288 
L 62.15328 173.986663 
L 62.24256 217.250251 
L 62.33184 195.249858 
L 62.42112 244.050288 
L 62.5104 173.986663 
L 62.59968 217.250251 
L 62.68896 195.249858 
L 62.77824 244.050288 
L 62.86752 173.986663 
L 62.9568 217.250251 
L 63.04608 195.249858 
L 63.13536 244.050288 
L 63.22464 173.986663 
L 63.31392 217.250251 
L 63.4032 195.249858 
L 63.49248 244.050288 
L 63.58176 173.986663 
L 63.67104 217.250251 
L 63.76032 195.249858 
L 63.8496 244.050288 
L 63.93888 173.986663 
L 64.02816 217.250251 
L 64.11744 195.249858 
L 64.20672 244.050288 
L 64.296 173.986663 
L 64.38528 217.250251 
L 64.47456 195.249858 
L 64.56384 244.050288 
L 64.65312 173.986663 
L 64.7424 217.250251 
L 64.83168 195.249858 
L 64.92096 244.050288 
L 65.01024 173.986663 
L 65.09952 217.250251 
L 65.1888 195.249858 
L 65.27808 244.050288 
L 65.36736 173.986663 
L 65.45664 217.250251 
L 65.54592 195.249858 
L 65.6352 244.050288 
L 65.72448 173.986663 
L 65.81376 217.250251 
L 65.90304 195.249858 
L 65.99232 244.050288 
L 66.0816 173.986663 
L 66.17088 217.250251 
L 66.26016 195.249858 
L 66.34944 244.050288 
L 66.43872 173.986663 
L 66.528 216.401113 
L 66.70656 183.738412 
L 66.79584 184.765817 
L 66.88512 189.631887 
L 66.9744 181.992797 
L 67.15296 227.9485 
L 67.24224 163.880321 
L 67.4208 221.218323 
L 67.59936 225.628462 
L 67.68864 223.805262 
L 67.77792 163.4797 
L 67.8672 180.480886 
L 67.95648 230.803013 
L 68.04576 160.60007 
L 68.22432 201.711081 
L 68.3136 208.941128 
L 68.40288 185.872654 
L 68.67072 235.323946 
L 68.76 204.066332 
L 68.84928 258.336723 
L 69.11712 183.105665 
L 69.2064 244.184095 
L 69.29568 155.260462 
L 69.38496 241.630478 
L 69.47424 199.962977 
L 69.56352 210.061636 
L 69.6528 184.066569 
L 69.74208 238.019581 
L 69.83136 176.795982 
L 69.92064 177.929323 
L 70.00992 210.451517 
L 70.0992 208.651704 
L 70.18848 229.665383 
L 70.27776 227.284938 
L 70.36704 240.541326 
L 70.72416 173.151457 
L 70.81344 163.764137 
L 70.992 213.584512 
L 71.08128 241.752745 
L 71.25984 182.537977 
L 71.34912 197.352962 
L 71.4384 168.098372 
L 71.52768 206.099405 
L 71.61696 188.502273 
L 71.70624 198.422884 
L 71.79552 230.351693 
L 71.97408 193.352996 
L 72.15264 229.424886 
L 72.24192 194.272431 
L 72.42048 233.070287 
L 72.59904 195.372557 
L 72.68832 230.869866 
L 72.7776 166.895103 
L 73.04544 221.926667 
L 73.224 179.509743 
L 73.40256 232.634064 
L 73.49184 166.840757 
L 73.58112 198.120142 
L 73.6704 174.92736 
L 73.84896 227.54756 
L 74.02752 195.892343 
L 74.1168 196.75899 
L 74.20608 198.818344 
L 74.38464 243.384547 
L 74.47392 179.571413 
L 74.65248 215.790757 
L 74.74176 210.038671 
L 74.83104 218.831569 
L 75.0096 177.404762 
L 75.09888 197.347562 
L 75.18816 164.521124 
L 75.456 198.881654 
L 75.54528 255.944127 
L 75.72384 204.528026 
L 75.81312 245.292259 
L 75.9024 233.840169 
L 76.08096 184.599623 
L 76.17024 199.692952 
L 76.25952 160.725682 
L 76.3488 232.838262 
L 76.43808 222.616581 
L 76.52736 220.407285 
L 76.61664 182.690057 
L 76.7952 204.185463 
L 76.88448 176.833291 
L 76.97376 252.385942 
L 77.15232 211.610409 
L 77.2416 204.290105 
L 77.33088 233.223855 
L 77.42016 210.101378 
L 77.50944 255.761015 
L 77.688 221.14263 
L 77.77728 219.673571 
L 77.86656 253.092044 
L 77.95584 169.470083 
L 78.04512 235.857741 
L 78.1344 187.438138 
L 78.22368 228.623646 
L 78.49152 193.638001 
L 78.5808 202.287421 
L 78.75936 179.93215 
L 78.84864 197.955284 
L 78.93792 186.835457 
L 79.0272 155.397676 
L 79.11648 204.315431 
L 79.20576 199.946084 
L 79.29504 197.148186 
L 79.38432 221.381494 
L 79.4736 212.945849 
L 79.56288 232.907827 
L 79.65216 187.109408 
L 79.74144 285.408 
L 79.92 161.916935 
L 80.00928 185.1321 
L 80.09856 163.717423 
L 80.18784 195.095107 
L 80.27712 165.573502 
L 80.3664 175.162676 
L 80.45568 198.297291 
L 80.54496 167.728339 
L 80.63424 180.970308 
L 80.72352 216.189804 
L 80.8128 208.767322 
L 80.90208 220.952039 
L 80.99136 159.672476 
L 81.08064 173.173976 
L 81.2592 209.120935 
L 81.34848 207.083945 
L 81.43776 184.060066 
L 81.52704 199.287755 
L 81.61632 194.377928 
L 81.7056 214.552837 
L 81.97344 186.732475 
L 82.06272 264.22127 
L 82.152 195.982991 
L 82.24128 208.296152 
L 82.33056 180.690923 
L 82.41984 210.151383 
L 82.68768 171.78726 
L 82.77696 223.543702 
L 82.86624 213.28931 
L 82.95552 168.760569 
L 83.13408 193.461005 
L 83.22336 169.681384 
L 83.31264 247.985095 
L 83.40192 188.88755 
L 83.4912 199.973697 
L 83.58048 224.568091 
L 83.66976 185.276635 
L 83.75904 229.725433 
L 83.84832 184.899589 
L 83.9376 206.721017 
L 84.02688 202.220042 
L 84.20544 195.130828 
L 84.29472 195.825402 
L 84.384 205.637011 
L 84.47328 203.668654 
L 84.56256 209.129806 
L 84.65184 167.482821 
L 84.74112 212.540156 
L 84.8304 183.620483 
L 84.91968 259.473685 
L 85.00896 178.372195 
L 85.09824 221.935925 
L 85.36608 193.324597 
L 85.45536 237.146425 
L 85.54464 232.82045 
L 85.63392 186.970874 
L 85.7232 187.717603 
L 85.81248 196.367681 
L 85.99104 238.204884 
L 86.1696 171.76197 
L 86.25888 201.40539 
L 86.43744 191.333073 
L 86.52672 214.39507 
L 86.70528 185.209394 
L 86.79456 193.48067 
L 86.88384 181.568477 
L 86.97312 228.727812 
L 87.0624 192.723866 
L 87.24096 224.417724 
L 87.41952 171.671614 
L 87.59808 231.887475 
L 87.77664 183.273377 
L 87.86592 230.397981 
L 87.9552 172.758458 
L 88.04448 233.45935 
L 88.13376 192.771576 
L 88.22304 228.22265 
L 88.31232 189.044774 
L 88.4016 228.161833 
L 88.49088 195.932798 
L 88.58016 196.168618 
L 88.66944 188.433676 
L 88.75872 207.237701 
L 88.848 255.953685 
L 88.93728 183.023807 
L 89.20512 253.380564 
L 89.38368 194.11299 
L 89.47296 203.783642 
L 89.56224 175.81286 
L 89.65152 237.872928 
L 89.7408 175.370033 
L 89.83008 185.187489 
L 90.00864 227.232099 
L 90.09792 214.015824 
L 90.1872 222.570789 
L 90.27648 175.587594 
L 90.45504 242.895953 
L 90.54432 191.968236 
L 90.6336 204.417176 
L 90.72288 195.06838 
L 90.81216 162.8496 
L 90.90144 247.41869 
L 90.99072 154.567663 
L 91.08 166.908312 
L 91.16928 268.125177 
L 91.34784 175.962525 
L 91.43712 179.695754 
L 91.61568 212.891284 
L 91.70496 179.734425 
L 91.79424 207.31776 
L 91.88352 178.700717 
L 91.9728 224.363024 
L 92.06208 198.605253 
L 92.15136 211.168007 
L 92.24064 209.779874 
L 92.4192 172.708413 
L 92.50848 225.097869 
L 92.68704 198.032387 
L 92.77632 165.249059 
L 92.8656 259.816497 
L 93.04416 197.304084 
L 93.22272 243.793661 
L 93.40128 182.535646 
L 93.49056 261.517367 
L 93.66912 186.705144 
L 93.7584 205.7505 
L 93.84768 185.181873 
L 93.93696 220.130269 
L 94.02624 182.019703 
L 94.2048 236.128572 
L 94.29408 187.668006 
L 94.38336 221.466251 
L 94.47264 193.78746 
L 94.56192 201.368231 
L 94.6512 243.375143 
L 94.74048 238.783907 
L 95.0976 202.667338 
L 95.18688 149.201817 
L 95.27616 220.852823 
L 95.36544 209.330063 
L 95.45472 203.714374 
L 95.544 234.212615 
L 95.81184 169.076576 
L 95.90112 187.313703 
L 95.9904 183.413841 
L 96.07968 193.020949 
L 96.16896 172.378989 
L 96.25824 239.53848 
L 96.34752 185.963151 
L 96.4368 187.854792 
L 96.52608 189.465827 
L 96.61536 196.03605 
L 96.70464 215.785046 
L 96.79392 210.047484 
L 96.8832 224.763826 
L 96.97248 198.431475 
L 97.06176 217.122388 
L 97.15104 207.929306 
L 97.24032 216.178408 
L 97.41888 168.683664 
L 97.50816 205.007778 
L 97.59744 198.21774 
L 97.68672 165.71579 
L 97.86528 208.360254 
L 97.95456 197.558377 
L 98.04384 183.785842 
L 98.13312 212.72209 
L 98.31168 158.316562 
L 98.40096 223.528674 
L 98.49024 186.430075 
L 98.57952 219.238023 
L 98.6688 193.864146 
L 98.75808 227.128375 
L 98.84736 199.564005 
L 99.02592 222.071537 
L 99.20448 186.558022 
L 99.38304 211.018676 
L 99.47232 178.821574 
L 99.5616 215.797069 
L 99.65088 166.994219 
L 99.74016 190.556995 
L 99.91872 182.222253 
L 100.008 229.270211 
L 100.09728 184.625058 
L 100.27584 212.841921 
L 100.36512 141.2762 
L 100.54368 239.437928 
L 100.63296 207.855293 
L 100.72224 213.055505 
L 100.81152 203.857092 
L 100.99008 239.345541 
L 101.25792 155.859147 
L 101.3472 241.353267 
L 101.43648 208.339692 
L 101.52576 242.456843 
L 101.61504 176.607793 
L 101.70432 201.047304 
L 101.7936 156.331242 
L 101.97216 231.015414 
L 102.06144 220.124414 
L 102.15072 189.745639 
L 102.24 214.203198 
L 102.32928 194.872998 
L 102.41856 199.185326 
L 102.50784 205.642982 
L 102.59712 157.72701 
L 102.6864 198.605751 
L 102.77568 185.559383 
L 102.86496 213.169062 
L 102.95424 176.453521 
L 103.22208 222.54777 
L 103.40064 195.581118 
L 103.5792 237.882815 
L 103.66848 163.966404 
L 103.84704 222.507825 
L 104.0256 193.426551 
L 104.11488 200.919896 
L 104.20416 183.701165 
L 104.38272 212.396131 
L 104.65056 171.376697 
L 104.82912 204.204163 
L 104.9184 172.986872 
L 105.00768 177.343535 
L 105.09696 182.46276 
L 105.18624 178.973244 
L 105.27552 181.87037 
L 105.3648 253.156762 
L 105.45408 217.513834 
L 105.54336 239.064409 
L 105.63264 210.502902 
L 105.72192 217.977425 
L 105.90048 195.589596 
L 105.98976 203.879444 
L 106.07904 171.726847 
L 106.16832 210.372465 
L 106.34688 174.381138 
L 106.43616 196.931763 
L 106.52544 175.089247 
L 106.61472 211.976879 
L 106.79328 179.908052 
L 106.88256 192.880442 
L 106.97184 249.144647 
L 107.06112 239.765315 
L 107.1504 159.955752 
L 107.23968 177.176157 
L 107.32896 221.62935 
L 107.41824 211.334073 
L 107.50752 205.523334 
L 107.5968 238.83971 
L 107.68608 216.036833 
L 107.77536 250.388469 
L 107.86464 195.739315 
L 107.95392 203.646713 
L 108.0432 199.326496 
L 108.22176 234.510831 
L 108.40032 180.551021 
L 108.4896 216.519421 
L 108.57888 204.12219 
L 108.66816 215.448942 
L 108.75744 187.836006 
L 108.84672 204.572428 
L 108.936 198.544271 
L 109.02528 158.768649 
L 109.11456 189.148731 
L 109.20384 166.704561 
L 109.3824 198.125358 
L 109.47168 190.266823 
L 109.56096 200.798761 
L 109.65024 231.702065 
L 109.73952 192.568323 
L 109.8288 206.545555 
L 110.00736 178.168081 
L 110.09664 191.019609 
L 110.18592 228.929643 
L 110.45376 177.348307 
L 110.54304 214.768876 
L 110.63232 196.062032 
L 110.7216 196.616922 
L 110.81088 195.428258 
L 110.90016 241.972185 
L 111.07872 169.210047 
L 111.43584 218.143551 
L 111.6144 162.716143 
L 111.70368 233.553282 
L 111.79296 189.676557 
L 111.97152 229.286728 
L 112.15008 173.558136 
L 112.23936 280.950694 
L 112.32864 164.343111 
L 112.5072 198.06218 
L 112.59648 154.88556 
L 112.77504 209.519652 
L 112.86432 182.478085 
L 113.04288 200.576372 
L 113.13216 172.624294 
L 113.22144 234.253429 
L 113.31072 214.891397 
L 113.4 168.488639 
L 113.66784 201.598251 
L 113.75712 197.649774 
L 113.8464 186.378545 
L 113.93568 201.186009 
L 114.02496 161.294789 
L 114.20352 199.287904 
L 114.2928 185.828665 
L 114.47136 209.633495 
L 114.56064 207.856604 
L 114.64992 176.422441 
L 114.7392 224.970175 
L 114.82848 208.754294 
L 114.91776 225.849598 
L 115.09632 190.597625 
L 115.1856 228.182049 
L 115.27488 208.769693 
L 115.36416 212.157708 
L 115.45344 217.896976 
L 115.54272 235.782431 
L 115.72128 187.472787 
L 115.81056 203.962689 
L 115.89984 243.624267 
L 115.98912 194.12541 
L 116.0784 205.78241 
L 116.16768 174.137888 
L 116.25696 200.240226 
L 116.34624 126.629302 
L 116.61408 233.992432 
L 116.70336 192.018725 
L 116.79264 214.247387 
L 116.88192 181.966072 
L 116.9712 221.525148 
L 117.06048 183.012257 
L 117.14976 214.295149 
L 117.32832 176.461654 
L 117.59616 219.267468 
L 117.68544 184.769316 
L 117.77472 208.262571 
L 117.864 206.572432 
L 117.95328 199.422198 
L 118.13184 241.742817 
L 118.22112 235.957092 
L 118.3104 176.642695 
L 118.39968 202.993733 
L 118.48896 189.671206 
L 118.57824 197.247159 
L 118.66752 228.646039 
L 118.93536 161.659848 
L 119.02464 201.436802 
L 119.11392 175.591265 
L 119.2032 185.063914 
L 119.29248 172.040674 
L 119.38176 224.784037 
L 119.47104 219.252772 
L 119.56032 170.528456 
L 119.6496 242.505895 
L 119.82816 169.179687 
L 119.91744 199.858873 
L 120.096 147.789087 
L 120.18528 197.691795 
L 120.27456 185.036005 
L 120.36384 223.832922 
L 120.5424 187.399145 
L 120.63168 229.131265 
L 120.72096 221.500019 
L 120.81024 204.809098 
L 120.89952 221.504857 
L 120.9888 188.848343 
L 121.07808 205.491453 
L 121.25664 164.364768 
L 121.4352 177.287928 
L 121.52448 164.254719 
L 121.61376 209.541308 
L 121.70304 182.403949 
L 121.79232 232.069604 
L 121.97088 159.005114 
L 122.06016 183.138724 
L 122.14944 163.137519 
L 122.328 245.262456 
L 122.50656 150.820089 
L 122.59584 238.804856 
L 122.7744 165.040554 
L 122.86368 190.575081 
L 122.95296 165.289128 
L 123.13152 193.360591 
L 123.39936 151.942249 
L 123.75648 229.907273 
L 123.84576 156.453179 
L 123.93504 217.484301 
L 124.02432 183.355731 
L 124.1136 186.999924 
L 124.20288 186.061766 
L 124.38144 156.014066 
L 124.47072 171.347842 
L 124.56 206.896247 
L 124.64928 197.815493 
L 124.73856 163.727482 
L 124.82784 184.831576 
L 124.91712 167.053895 
L 125.0064 223.091856 
L 125.18496 171.193076 
L 125.36352 215.42481 
L 125.54208 185.542017 
L 125.72064 240.350171 
L 125.8992 185.052829 
L 126.07776 231.153986 
L 126.3456 171.176141 
L 126.43488 260.057157 
L 126.52416 192.194977 
L 126.70272 237.204452 
L 126.792 179.597865 
L 126.88128 207.126412 
L 127.05984 148.561161 
L 127.14912 173.369119 
L 127.2384 161.343047 
L 127.32768 215.611794 
L 127.41696 164.101212 
L 127.50624 215.92367 
L 127.59552 158.371862 
L 127.77408 182.343252 
L 127.86336 169.001839 
L 127.95264 249.273131 
L 128.04192 183.282758 
L 128.1312 191.535513 
L 128.22048 172.006023 
L 128.39904 206.012383 
L 128.48832 217.430366 
L 128.5776 186.119424 
L 128.66688 187.440955 
L 128.84544 165.644531 
L 129.024 208.538941 
L 129.11328 174.511781 
L 129.20256 201.013161 
L 129.29184 175.049902 
L 129.55968 209.836483 
L 129.64896 153.571941 
L 129.82752 183.855939 
L 129.9168 171.397169 
L 130.00608 239.633838 
L 130.09536 155.210357 
L 130.18464 165.648176 
L 130.3632 228.949262 
L 130.45248 188.041385 
L 130.54176 224.122573 
L 130.63104 161.307362 
L 130.72032 224.448626 
L 130.8096 159.660817 
L 130.89888 174.754934 
L 130.98816 168.426899 
L 131.07744 186.952921 
L 131.16672 129.87106 
L 131.256 179.05446 
L 131.34528 145.487225 
L 131.52384 188.609301 
L 131.61312 202.195064 
L 131.7024 198.50072 
L 131.79168 169.046982 
L 131.88096 196.987452 
L 131.97024 175.789558 
L 132.05952 237.482169 
L 132.32736 178.960253 
L 132.41664 196.553804 
L 132.5952 169.067192 
L 132.68448 156.914472 
L 132.77376 224.085196 
L 132.86304 160.623072 
L 132.95232 167.375523 
L 133.0416 174.794528 
L 133.13088 132.388683 
L 133.30944 196.893791 
L 133.39872 211.993389 
L 133.488 168.196423 
L 133.57728 236.273051 
L 133.66656 170.746131 
L 133.75584 178.094078 
L 133.84512 186.880819 
L 133.9344 172.392022 
L 134.02368 173.849111 
L 134.11296 222.108756 
L 134.20224 193.877448 
L 134.29152 209.995248 
L 134.3808 154.401429 
L 134.47008 191.58451 
L 134.55936 182.717672 
L 134.64864 148.882227 
L 134.8272 191.87781 
L 134.91648 173.679885 
L 135.00576 197.367399 
L 135.09504 147.186084 
L 135.18432 164.221152 
L 135.2736 153.387733 
L 135.36288 165.661841 
L 135.45216 196.546174 
L 135.54144 154.687061 
L 135.63072 199.989266 
L 135.72 158.191789 
L 135.98784 207.488796 
L 136.1664 160.076706 
L 136.25568 179.695234 
L 136.34496 234.088043 
L 136.43424 147.582404 
L 136.6128 216.154969 
L 136.79136 176.47173 
L 136.96992 147.966448 
L 137.14848 239.174039 
L 137.23776 155.933078 
L 137.32704 173.210174 
L 137.41632 162.624788 
L 137.5056 193.617343 
L 137.59488 190.748201 
L 137.68416 174.362473 
L 137.86272 213.459521 
L 137.952 166.988649 
L 138.04128 170.866717 
L 138.13056 198.262999 
L 138.21984 188.535046 
L 138.30912 164.242063 
L 138.3984 213.903269 
L 138.48768 213.494191 
L 138.66624 188.153854 
L 138.75552 184.442692 
L 138.93408 202.221653 
L 139.11264 160.184242 
L 139.20192 239.294356 
L 139.2912 177.602821 
L 139.38048 192.023737 
L 139.46976 150.659828 
L 139.55904 222.300265 
L 139.64832 212.804326 
L 139.7376 150.90298 
L 139.82688 196.616662 
L 139.91616 191.324237 
L 140.00544 172.051451 
L 140.184 187.323268 
L 140.27328 177.233034 
L 140.36256 145.694284 
L 140.45184 182.812244 
L 140.54112 173.996265 
L 140.6304 163.026486 
L 140.71968 165.711657 
L 140.80896 192.036988 
L 140.89824 172.22657 
L 140.98752 172.522256 
L 141.0768 171.653043 
L 141.16608 157.690222 
L 141.25536 197.351155 
L 141.34464 144.882376 
L 141.43392 201.171476 
L 141.5232 134.152996 
L 141.70176 179.748919 
L 141.79104 161.424206 
L 141.88032 233.624506 
L 142.05888 156.238324 
L 142.14816 172.312433 
L 142.23744 157.350448 
L 142.416 190.861127 
L 142.50528 235.894518 
L 142.77312 168.109703 
L 142.8624 188.344603 
L 142.95168 180.747544 
L 143.04096 233.507691 
L 143.13024 175.123395 
L 143.21952 177.719287 
L 143.39808 141.413001 
L 143.48736 191.898204 
L 143.57664 190.392874 
L 143.66592 199.907892 
L 143.84448 140.729635 
L 143.93376 174.998694 
L 144.2016 149.937269 
L 144.38016 203.974995 
L 144.46944 159.339802 
L 144.55872 216.687002 
L 144.73728 163.895057 
L 144.82656 166.038625 
L 144.91584 182.897201 
L 145.00512 220.847719 
L 145.0944 162.062329 
L 145.18368 168.218022 
L 145.27296 200.701604 
L 145.36224 167.639811 
L 145.45152 177.424648 
L 145.5408 162.916923 
L 145.63008 178.746248 
L 145.71936 164.328038 
L 145.89792 189.327346 
L 145.9872 151.247862 
L 146.07648 225.463556 
L 146.16576 181.421361 
L 146.25504 202.698373 
L 146.34432 185.599745 
L 146.4336 222.937867 
L 146.52288 172.12801 
L 146.61216 197.354031 
L 146.70144 180.636555 
L 146.79072 207.646262 
L 146.96928 154.612648 
L 147.05856 200.244629 
L 147.14784 184.120241 
L 147.23712 190.571139 
L 147.3264 169.834302 
L 147.41568 181.547327 
L 147.59424 168.886524 
L 147.68352 167.234893 
L 147.86208 177.989746 
L 147.95136 163.720423 
L 148.04064 179.175493 
L 148.12992 173.017833 
L 148.2192 174.765968 
L 148.30848 230.400543 
L 148.39776 164.787634 
L 148.48704 184.271561 
L 148.6656 150.054876 
L 148.84416 193.96345 
L 148.93344 150.996364 
L 149.02272 157.599153 
L 149.112 159.048716 
L 149.20128 175.710872 
L 149.29056 173.908334 
L 149.37984 170.438431 
L 149.46912 201.302769 
L 149.5584 188.800547 
L 149.64768 138.802856 
L 149.91552 183.991126 
L 150.0048 138.566889 
L 150.18336 174.598319 
L 150.27264 142.923608 
L 150.36192 144.465177 
L 150.4512 223.866421 
L 150.62976 131.284308 
L 150.71904 141.444199 
L 150.80832 189.539545 
L 150.8976 169.151664 
L 150.98688 207.349049 
L 151.16544 129.494001 
L 151.25472 186.19479 
L 151.344 170.511019 
L 151.43328 174.879451 
L 151.52256 189.67995 
L 151.7904 164.104822 
L 151.87968 185.038724 
L 151.96896 132.024548 
L 152.32608 202.315456 
L 152.50464 144.27659 
L 152.59392 187.885356 
L 152.6832 158.408002 
L 152.77248 164.696582 
L 152.86176 176.703455 
L 152.95104 173.830326 
L 153.04032 138.180808 
L 153.21888 187.265121 
L 153.30816 145.598488 
L 153.39744 212.142794 
L 153.576 139.055757 
L 153.66528 200.2202 
L 153.75456 170.166071 
L 153.84384 180.696493 
L 153.93312 144.352106 
L 154.0224 163.330415 
L 154.11168 161.951558 
L 154.20096 146.365438 
L 154.29024 189.946133 
L 154.4688 137.260055 
L 154.82592 206.720044 
L 154.9152 146.711634 
L 155.09376 208.158271 
L 155.18304 173.47641 
L 155.27232 182.132947 
L 155.3616 166.741467 
L 155.45088 238.528949 
L 155.62944 146.325162 
L 155.808 173.718844 
L 155.89728 166.390339 
L 155.98656 139.446628 
L 156.2544 198.977607 
L 156.34368 141.676179 
L 156.43296 170.994485 
L 156.52224 146.064095 
L 156.61152 172.89298 
L 156.7008 165.797764 
L 156.79008 145.691454 
L 156.87936 200.889686 
L 156.96864 163.073622 
L 157.05792 169.705762 
L 157.1472 211.280294 
L 157.32576 163.695868 
L 157.41504 201.219464 
L 157.68288 145.751613 
L 157.77216 204.270217 
L 157.86144 152.97608 
L 157.95072 183.956235 
L 158.04 149.864983 
L 158.12928 223.385432 
L 158.21856 209.872546 
L 158.4864 151.95976 
L 158.66496 179.341703 
L 158.75424 152.770811 
L 158.84352 178.040176 
L 159.02208 130.86457 
L 159.20064 153.95842 
L 159.28992 143.571111 
L 159.46848 161.305599 
L 159.55776 152.924733 
L 159.73632 172.488802 
L 159.8256 122.018247 
L 160.00416 188.386467 
L 160.18272 159.223318 
L 160.272 195.63884 
L 160.36128 158.58748 
L 160.45056 175.021618 
L 160.53984 160.698326 
L 160.80768 193.876689 
L 160.98624 159.135465 
L 161.07552 163.531918 
L 161.1648 152.979212 
L 161.43264 178.949756 
L 161.52192 160.74545 
L 161.6112 174.543605 
L 161.70048 149.030223 
L 161.87904 202.869641 
L 161.96832 151.026784 
L 162.0576 167.711707 
L 162.14688 128.197013 
L 162.32544 171.211827 
L 162.41472 151.141959 
L 162.504 158.719292 
L 162.59328 149.183196 
L 162.68256 180.507813 
L 162.77184 140.85035 
L 162.9504 163.429524 
L 163.12896 139.805428 
L 163.21824 201.908573 
L 163.30752 149.522181 
L 163.3968 164.5326 
L 163.48608 135.002922 
L 163.57536 205.17896 
L 163.66464 141.61445 
L 163.75392 168.853876 
L 163.8432 157.18309 
L 163.93248 161.191744 
L 164.02176 146.828655 
L 164.2896 191.250714 
L 164.37888 187.216257 
L 164.55744 126.562424 
L 164.64672 193.962935 
L 164.736 135.464162 
L 164.82528 141.225462 
L 164.91456 176.479285 
L 165.00384 152.82521 
L 165.09312 187.0093 
L 165.27168 176.016448 
L 165.36096 134.17528 
L 165.45024 157.106986 
L 165.53952 135.283186 
L 165.71808 188.090597 
L 165.80736 144.961817 
L 165.98592 170.325406 
L 166.0752 152.54404 
L 166.16448 158.852541 
L 166.43232 128.758405 
L 166.5216 182.6736 
L 166.70016 137.951644 
L 166.78944 173.926538 
L 166.87872 155.898751 
L 166.968 167.092704 
L 167.14656 141.356681 
L 167.23584 179.623132 
L 167.32512 179.388965 
L 167.4144 137.083628 
L 167.59296 197.76809 
L 167.68224 149.769654 
L 167.77152 166.038688 
L 167.95008 137.626522 
L 168.12864 175.054986 
L 168.3072 139.856399 
L 168.39648 156.662089 
L 168.48576 120.215451 
L 168.57504 160.397529 
L 168.66432 141.45929 
L 168.7536 160.769687 
L 168.84288 130.581539 
L 168.93216 166.460812 
L 169.02144 163.005743 
L 169.11072 134.129857 
L 169.2 161.349223 
L 169.28928 142.775988 
L 169.46784 169.750138 
L 169.55712 157.212589 
L 169.6464 183.610594 
L 169.73568 149.731544 
L 169.82496 157.854696 
L 169.91424 135.485308 
L 170.00352 192.999271 
L 170.18208 157.589691 
L 170.27136 196.800282 
L 170.36064 142.467203 
L 170.5392 173.837852 
L 170.62848 151.461907 
L 170.71776 165.288884 
L 170.80704 116.429338 
L 170.9856 169.229168 
L 171.25344 155.422687 
L 171.34272 163.579189 
L 171.432 139.355392 
L 171.52128 162.680031 
L 171.61056 156.554621 
L 171.69984 139.222696 
L 171.78912 141.556368 
L 171.8784 161.27174 
L 171.96768 159.590027 
L 172.05696 161.768534 
L 172.14624 204.864806 
L 172.3248 131.230151 
L 172.41408 159.010397 
L 172.50336 149.192622 
L 172.59264 213.097781 
L 172.7712 144.988375 
L 172.86048 130.748076 
L 172.94976 167.070933 
L 173.12832 131.905834 
L 173.2176 132.745367 
L 173.30688 128.546332 
L 173.39616 201.220227 
L 173.57472 140.364718 
L 173.664 132.3035 
L 173.75328 173.573703 
L 173.84256 144.628171 
L 173.93184 214.303844 
L 174.1104 139.159838 
L 174.19968 150.974767 
L 174.28896 180.030156 
L 174.46752 136.220551 
L 174.5568 156.219049 
L 174.64608 140.96031 
L 175.0032 172.255517 
L 175.09248 145.752288 
L 175.18176 181.897035 
L 175.27104 150.597586 
L 175.36032 166.129832 
L 175.4496 162.346405 
L 175.53888 114.216975 
L 175.80672 158.219004 
L 175.896 133.730353 
L 175.98528 182.420522 
L 176.16384 147.512498 
L 176.25312 162.127053 
L 176.43168 122.875906 
L 176.61024 175.373696 
L 176.69952 158.38919 
L 176.7888 164.872358 
L 176.87808 115.355134 
L 177.05664 165.330211 
L 177.14592 131.229228 
L 177.2352 150.222 
L 177.32448 149.455019 
L 177.41376 129.820725 
L 177.50304 153.724645 
L 177.59232 137.961777 
L 177.6816 163.267174 
L 177.77088 132.59697 
L 177.86016 136.399567 
L 177.94944 172.416848 
L 178.03872 164.028571 
L 178.128 169.735065 
L 178.21728 165.497352 
L 178.30656 142.163138 
L 178.39584 168.772343 
L 178.5744 152.096241 
L 178.66368 141.8553 
L 178.93152 172.077795 
L 179.0208 159.625863 
L 179.11008 120.960182 
L 179.28864 151.179375 
L 179.37792 164.001752 
L 179.4672 124.051107 
L 179.55648 163.108189 
L 179.64576 130.959877 
L 179.82432 167.993499 
L 179.9136 167.665749 
L 180.00288 147.834649 
L 180.09216 168.002268 
L 180.36 139.770891 
L 180.44928 162.105755 
L 180.53856 138.905736 
L 180.71712 173.076407 
L 180.8064 155.454058 
L 180.98496 191.552926 
L 181.16352 146.612635 
L 181.34208 120.647663 
L 181.52064 154.999007 
L 181.60992 149.890114 
L 181.6992 150.120354 
L 181.87776 116.782357 
L 181.96704 164.281346 
L 182.05632 134.32246 
L 182.1456 153.910881 
L 182.23488 134.528573 
L 182.41344 160.770079 
L 182.50272 148.328825 
L 182.592 179.419997 
L 182.77056 137.207815 
L 182.85984 172.299566 
L 182.94912 129.819264 
L 183.0384 135.579605 
L 183.12768 129.44488 
L 183.21696 165.03329 
L 183.39552 113.279044 
L 183.4848 133.168948 
L 183.57408 121.424841 
L 183.66336 123.788845 
L 183.84192 177.834766 
L 183.9312 137.388549 
L 184.02048 155.183668 
L 184.19904 131.844757 
L 184.3776 148.444257 
L 184.46688 137.174757 
L 184.55616 151.232097 
L 184.64544 143.91674 
L 184.73472 122.619721 
L 184.91328 171.061762 
L 185.18112 115.487064 
L 185.35968 149.919562 
L 185.53824 127.284466 
L 185.7168 159.61369 
L 185.80608 141.762368 
L 185.89536 141.82214 
L 185.98464 137.173794 
L 186.07392 163.626601 
L 186.1632 154.338637 
L 186.25248 131.7123 
L 186.34176 149.396538 
L 186.43104 119.686346 
L 186.6096 146.33822 
L 186.69888 129.415372 
L 186.96672 162.462244 
L 187.14528 119.393856 
L 187.23456 170.781557 
L 187.32384 170.562083 
L 187.41312 171.843102 
L 187.5024 119.529524 
L 187.68096 146.716813 
L 187.77024 140.477548 
L 187.85952 123.214659 
L 188.03808 155.89994 
L 188.21664 126.03246 
L 188.30592 161.117293 
L 188.48448 128.94872 
L 188.57376 156.707591 
L 188.75232 105.470218 
L 188.8416 178.727665 
L 189.10944 125.486288 
L 189.19872 131.772813 
L 189.37728 180.561019 
L 189.55584 139.123745 
L 189.7344 165.594931 
L 189.82368 107.589695 
L 190.00224 199.959058 
L 190.1808 135.794931 
L 190.27008 156.341343 
L 190.44864 131.735395 
L 190.53792 190.471958 
L 190.6272 149.764138 
L 190.71648 193.572215 
L 190.80576 121.738452 
L 191.0736 215.718952 
L 191.16288 128.560025 
L 191.25216 169.381615 
L 191.43072 132.966821 
L 191.52 141.074489 
L 191.60928 162.354002 
L 191.69856 149.953458 
L 191.78784 232.043341 
L 191.9664 117.912609 
L 192.05568 144.489769 
L 192.14496 143.213885 
L 192.23424 152.791734 
L 192.4128 116.258407 
L 192.59136 146.291337 
L 192.76992 127.357771 
L 192.94848 196.861461 
L 193.12704 140.012333 
L 193.21632 131.129236 
L 193.3056 143.02168 
L 193.39488 117.414452 
L 193.752 162.110111 
L 193.84128 198.565363 
L 194.01984 138.445968 
L 194.10912 151.163639 
L 194.1984 216.23234 
L 194.46624 123.822911 
L 194.73408 187.172886 
L 194.82336 137.673813 
L 194.91264 146.292898 
L 195.00192 145.461997 
L 195.0912 156.282423 
L 195.18048 115.958071 
L 195.35904 165.995206 
L 195.44832 160.421038 
L 195.5376 133.442294 
L 195.62688 164.903693 
L 195.71616 133.71666 
L 195.80544 186.256015 
L 196.07328 99.515704 
L 196.34112 182.073603 
L 196.4304 129.046452 
L 196.51968 137.607726 
L 196.60896 109.855331 
L 196.69824 122.959314 
L 196.78752 113.156278 
L 197.05536 168.128144 
L 197.14464 158.082798 
L 197.23392 167.338613 
L 197.3232 148.608694 
L 197.41248 155.527452 
L 197.50176 119.526998 
L 197.59104 157.321713 
L 197.7696 134.485313 
L 198.03744 171.915171 
L 198.12672 130.743879 
L 198.216 138.280405 
L 198.39456 158.531626 
L 198.48384 140.371822 
L 198.57312 153.610235 
L 198.75168 118.147922 
L 199.01952 155.649174 
L 199.1088 127.000196 
L 199.19808 147.424756 
L 199.28736 146.787523 
L 199.46592 138.20924 
L 199.5552 167.654553 
L 199.64448 157.91132 
L 199.73376 126.301775 
L 199.82304 128.400142 
L 199.91232 144.092709 
L 200.09088 118.166627 
L 200.26944 169.683406 
L 200.35872 126.038429 
L 200.448 135.74493 
L 200.53728 132.040823 
L 200.62656 157.941383 
L 200.71584 132.568872 
L 200.80512 176.201747 
L 200.8944 136.142602 
L 200.98368 139.529391 
L 201.07296 144.461926 
L 201.16224 169.660452 
L 201.25152 90.786355 
L 201.3408 175.427172 
L 201.43008 101.231389 
L 201.60864 151.484005 
L 201.7872 125.663589 
L 201.87648 161.82233 
L 201.96576 157.675464 
L 202.05504 147.837902 
L 202.14432 88.00505 
L 202.2336 120.4854 
L 202.32288 120.365281 
L 202.50144 139.788374 
L 202.59072 124.754006 
L 202.68 162.9925 
L 202.85856 120.628213 
L 202.94784 182.213382 
L 203.03712 120.089588 
L 203.1264 148.002233 
L 203.21568 146.521372 
L 203.30496 158.029753 
L 203.39424 134.491193 
L 203.5728 152.946662 
L 203.66208 145.289051 
L 203.75136 120.238812 
L 203.92992 152.224742 
L 204.0192 143.415537 
L 204.10848 145.053182 
L 204.19776 149.046548 
L 204.28704 163.232719 
L 204.37632 136.030639 
L 204.4656 142.368782 
L 204.55488 173.897965 
L 204.64416 126.341806 
L 204.73344 136.183898 
L 204.82272 155.979492 
L 204.912 134.405234 
L 205.00128 136.002736 
L 205.09056 175.174674 
L 205.17984 141.602031 
L 205.26912 145.698413 
L 205.44768 128.795588 
L 205.53696 145.260642 
L 205.62624 143.531514 
L 205.71552 148.209968 
L 205.8048 111.815317 
L 205.89408 185.101969 
L 205.98336 103.027612 
L 206.16192 143.415763 
L 206.2512 130.813627 
L 206.34048 173.636429 
L 206.51904 120.632926 
L 206.78688 152.474743 
L 206.87616 130.548611 
L 206.96544 144.51993 
L 207.05472 124.740687 
L 207.144 158.354552 
L 207.23328 138.795703 
L 207.32256 179.430291 
L 207.50112 116.002391 
L 207.67968 119.902725 
L 207.76896 155.472088 
L 207.85824 104.602615 
L 207.94752 126.199916 
L 208.0368 118.7146 
L 208.12608 163.621154 
L 208.21536 147.018694 
L 208.30464 151.379685 
L 208.39392 102.247134 
L 208.57248 167.218142 
L 208.75104 98.520599 
L 208.9296 156.76862 
L 209.10816 105.294935 
L 209.28672 136.845863 
L 209.376 135.841766 
L 209.55456 173.927872 
L 209.64384 124.191506 
L 209.73312 127.760444 
L 209.8224 163.501015 
L 210.09024 114.540022 
L 210.17952 137.922943 
L 210.2688 134.441352 
L 210.35808 126.124283 
L 210.44736 155.793514 
L 210.53664 149.970818 
L 210.62592 148.406126 
L 210.89376 114.17535 
L 210.98304 131.882773 
L 211.07232 116.172639 
L 211.1616 158.743746 
L 211.25088 122.404403 
L 211.42944 151.633278 
L 211.51872 121.47889 
L 211.608 195.39013 
L 211.78656 109.846864 
L 212.0544 173.972391 
L 212.23296 121.618676 
L 212.32224 146.272044 
L 212.41152 141.258061 
L 212.5008 142.353055 
L 212.59008 148.586149 
L 212.67936 100.777166 
L 212.85792 151.675434 
L 213.03648 110.930446 
L 213.12576 126.444931 
L 213.21504 118.574408 
L 213.30432 136.380693 
L 213.48288 102.817472 
L 213.66144 121.883076 
L 213.75072 127.960387 
L 213.84 127.610816 
L 213.92928 111.672431 
L 214.01856 121.279341 
L 214.19712 194.708368 
L 214.2864 113.625393 
L 214.37568 130.455249 
L 214.46496 97.470181 
L 214.55424 120.29751 
L 214.64352 112.102543 
L 214.7328 115.790611 
L 214.82208 132.042488 
L 214.91136 118.480159 
L 215.1792 144.475823 
L 215.26848 133.727645 
L 215.35776 155.659005 
L 215.44704 111.761152 
L 215.53632 136.704918 
L 215.6256 96.853982 
L 215.80416 154.316455 
L 215.89344 116.293272 
L 216.16128 166.320318 
L 216.25056 241.105194 
L 216.42912 117.85287 
L 216.5184 201.494767 
L 216.69696 105.763501 
L 216.87552 155.885956 
L 216.9648 148.088656 
L 217.05408 115.156945 
L 217.14336 115.804317 
L 217.23264 140.858576 
L 217.32192 127.912804 
L 217.4112 136.816812 
L 217.58976 116.189394 
L 217.67904 170.840956 
L 217.8576 119.320232 
L 217.94688 154.137826 
L 218.03616 121.602036 
L 218.12544 154.271524 
L 218.21472 121.692898 
L 218.304 180.577834 
L 218.39328 93.165181 
L 218.66112 148.478201 
L 218.7504 139.33767 
L 218.83968 117.95084 
L 219.01824 150.339254 
L 219.10752 103.842051 
L 219.37536 140.656309 
L 219.46464 121.775514 
L 219.55392 125.314897 
L 219.6432 139.933228 
L 219.73248 138.234127 
L 219.82176 129.52182 
L 219.91104 141.695854 
L 220.00032 105.879655 
L 220.17888 127.324424 
L 220.26816 135.04152 
L 220.35744 129.943904 
L 220.44672 97.351361 
L 220.62528 140.751364 
L 220.71456 134.314251 
L 220.80384 131.449382 
L 220.89312 102.371669 
L 221.07168 143.365365 
L 221.25024 119.635588 
L 221.33952 116.212364 
L 221.51808 161.337604 
L 221.60736 118.494836 
L 221.96448 164.430675 
L 222.05376 152.851167 
L 222.14304 99.731734 
L 222.23232 101.557447 
L 222.3216 151.27316 
L 222.41088 123.891515 
L 222.50016 200.129967 
L 222.67872 111.86971 
L 222.768 108.577845 
L 222.94656 141.425164 
L 223.03584 144.856679 
L 223.12512 127.553516 
L 223.2144 146.367564 
L 223.39296 102.650187 
L 223.48224 107.171661 
L 223.6608 137.707135 
L 223.75008 106.27904 
L 224.01792 163.996903 
L 224.1072 101.277987 
L 224.19648 138.078421 
L 224.28576 127.138512 
L 224.46432 154.778549 
L 224.64288 115.675114 
L 224.73216 146.911564 
L 224.82144 111.225931 
L 224.91072 188.910865 
L 225 137.425686 
L 225.08928 183.594823 
L 225.17856 118.451464 
L 225.26784 134.482711 
L 225.35712 109.297714 
L 225.4464 121.064216 
L 225.53568 104.764365 
L 225.62496 107.498119 
L 225.71424 151.232494 
L 225.98208 114.908171 
L 226.07136 176.24468 
L 226.42848 111.199557 
L 226.51776 111.345188 
L 226.60704 121.591669 
L 226.69632 114.428665 
L 226.7856 114.860006 
L 226.87488 113.576382 
L 226.96416 109.850981 
L 227.05344 147.350255 
L 227.232 109.406724 
L 227.49984 164.51835 
L 227.58912 124.898695 
L 227.6784 145.129213 
L 227.76768 126.08191 
L 227.85696 184.43713 
L 228.03552 111.927615 
L 228.1248 97.503558 
L 228.30336 150.721833 
L 228.39264 159.310924 
L 228.5712 124.354779 
L 228.66048 145.543622 
L 228.74976 203.896664 
L 228.92832 109.676838 
L 229.0176 167.240793 
L 229.10688 121.229041 
L 229.19616 131.387508 
L 229.28544 146.246921 
L 229.37472 140.701802 
L 229.464 107.451015 
L 229.64256 135.66961 
L 229.73184 131.304836 
L 229.9104 114.176175 
L 229.99968 138.231343 
L 230.08896 132.475105 
L 230.26752 108.273731 
L 230.3568 135.367921 
L 230.44608 97.936306 
L 230.53536 155.880949 
L 230.62464 134.215981 
L 230.71392 143.889521 
L 230.89248 112.409936 
L 230.98176 149.418827 
L 231.07104 102.213527 
L 231.16032 159.274504 
L 231.2496 150.761004 
L 231.33888 154.103421 
L 231.51744 125.227082 
L 231.696 110.135152 
L 231.78528 131.705651 
L 231.96384 89.722158 
L 232.05312 113.478797 
L 232.1424 99.212466 
L 232.23168 125.224123 
L 232.32096 111.699541 
L 232.41024 114.565644 
L 232.49952 112.611254 
L 232.5888 99.842086 
L 232.67808 133.538932 
L 232.76736 125.906986 
L 232.85664 108.94617 
L 233.12448 163.044604 
L 233.21376 106.628885 
L 233.30304 133.305569 
L 233.39232 121.690839 
L 233.4816 135.295046 
L 233.66016 115.408696 
L 233.74944 120.65696 
L 233.83872 119.509989 
L 233.928 124.40775 
L 234.01728 120.009528 
L 234.10656 128.725331 
L 234.19584 120.609845 
L 234.3744 145.223813 
L 234.46368 185.201047 
L 234.64224 109.828231 
L 234.73152 131.263775 
L 234.8208 122.200196 
L 234.99936 175.071517 
L 235.08864 122.746283 
L 235.2672 163.733855 
L 235.44576 112.860198 
L 235.53504 122.075224 
L 235.62432 160.318739 
L 235.7136 144.776388 
L 235.80288 185.831261 
L 235.98144 139.15719 
L 236.16 110.245748 
L 236.24928 105.043424 
L 236.33856 158.633812 
L 236.42784 123.117926 
L 236.51712 130.261269 
L 236.69568 116.732357 
L 236.78496 113.65646 
L 236.87424 117.698168 
L 236.96352 111.349656 
L 237.0528 119.96825 
L 237.14208 111.392542 
L 237.32064 147.562737 
L 237.40992 201.244207 
L 237.58848 113.570786 
L 237.76704 127.091446 
L 237.85632 108.584862 
L 238.03488 147.67064 
L 238.12416 109.231733 
L 238.30272 161.949261 
L 238.392 103.1948 
L 238.48128 105.698647 
L 238.57056 107.594692 
L 238.65984 120.249612 
L 238.74912 104.689432 
L 238.8384 105.554045 
L 238.92768 107.229266 
L 239.01696 104.091685 
L 239.19552 114.211369 
L 239.2848 137.55324 
L 239.37408 99.631191 
L 239.46336 132.798501 
L 239.55264 106.601924 
L 239.64192 113.864928 
L 239.7312 131.506153 
L 239.82048 122.537878 
L 239.90976 123.238391 
L 239.99904 142.863128 
L 240.08832 100.279913 
L 240.1776 117.068957 
L 240.35616 102.869188 
L 240.44544 134.847572 
L 240.53472 109.23995 
L 240.624 181.848086 
L 240.80256 95.533089 
L 240.89184 100.637821 
L 241.0704 151.190712 
L 241.15968 120.807516 
L 241.24896 132.745911 
L 241.33824 112.601833 
L 241.5168 127.078633 
L 241.60608 130.192388 
L 241.69536 128.912981 
L 241.78464 142.488682 
L 241.9632 99.70748 
L 242.05248 116.67434 
L 242.14176 97.632445 
L 242.23104 117.706362 
L 242.32032 103.792976 
L 242.4096 106.198599 
L 242.49888 161.209384 
L 242.58816 108.595404 
L 242.67744 109.495994 
L 242.76672 132.164434 
L 242.856 106.877451 
L 242.94528 113.7985 
L 243.21312 156.015726 
L 243.3024 106.931796 
L 243.39168 126.500662 
L 243.48096 114.560132 
L 243.57024 114.954589 
L 243.65952 146.384583 
L 243.83808 99.463113 
L 244.01664 133.361913 
L 244.10592 109.510018 
L 244.1952 119.274374 
L 244.28448 170.22271 
L 244.6416 100.342192 
L 244.82016 116.471563 
L 244.90944 113.630488 
L 244.99872 118.344253 
L 245.17728 166.038128 
L 245.26656 95.654321 
L 245.44512 142.360434 
L 245.5344 127.788854 
L 245.62368 131.507127 
L 245.71296 107.706978 
L 245.80224 136.831423 
L 245.89152 115.618508 
L 246.07008 151.147526 
L 246.15936 127.007367 
L 246.24864 166.27139 
L 246.33792 92.833727 
L 246.4272 127.276711 
L 246.69504 105.002039 
L 246.78432 109.500165 
L 246.8736 132.760914 
L 246.96288 86.991394 
L 247.14144 119.536203 
L 247.32 104.761465 
L 247.40928 141.775091 
L 247.49856 92.035171 
L 247.58784 156.375728 
L 247.7664 136.287312 
L 247.85568 137.937346 
L 248.03424 123.17637 
L 248.12352 130.592141 
L 248.2128 104.469426 
L 248.30208 164.235931 
L 248.48064 105.586455 
L 248.56992 88.993808 
L 248.74848 118.079527 
L 248.83776 115.280453 
L 248.92704 103.947622 
L 249.1056 111.239784 
L 249.19488 125.853128 
L 249.28416 166.287018 
L 249.46272 120.030162 
L 249.552 130.034016 
L 249.64128 100.246145 
L 249.81984 135.070104 
L 250.08768 95.322209 
L 250.17696 131.30505 
L 250.26624 95.182883 
L 250.35552 159.894104 
L 250.4448 112.62002 
L 250.62336 179.852573 
L 250.71264 85.94879 
L 250.80192 153.621882 
L 250.8912 116.327437 
L 250.98048 143.428863 
L 251.24832 102.177376 
L 251.3376 99.82666 
L 251.51616 140.062255 
L 251.69472 111.096919 
L 251.87328 128.258638 
L 251.96256 123.788588 
L 252.05184 126.686919 
L 252.14112 98.668358 
L 252.2304 140.28868 
L 252.31968 119.603518 
L 252.40896 150.536391 
L 252.76608 108.580756 
L 252.85536 106.639634 
L 253.03392 178.615161 
L 253.1232 106.597453 
L 253.21248 127.859167 
L 253.30176 113.744483 
L 253.39104 119.360358 
L 253.48032 119.348317 
L 253.5696 144.354621 
L 253.65888 104.172806 
L 253.74816 136.242556 
L 253.92672 101.712686 
L 254.10528 128.230877 
L 254.28384 112.44202 
L 254.4624 147.383288 
L 254.55168 94.106 
L 254.64096 131.26971 
L 254.73024 112.512785 
L 254.81952 144.162018 
L 254.9088 110.75767 
L 254.99808 127.048108 
L 255.08736 98.116393 
L 255.17664 162.390624 
L 255.26592 106.065677 
L 255.3552 120.398533 
L 255.53376 104.273124 
L 255.62304 118.484493 
L 255.8016 98.690969 
L 255.98016 144.777945 
L 256.06944 153.208916 
L 256.33728 95.099464 
L 256.51584 157.777628 
L 256.60512 114.091102 
L 256.78368 161.890213 
L 256.96224 100.369985 
L 257.05152 136.543559 
L 257.1408 115.968538 
L 257.23008 153.305234 
L 257.31936 93.738413 
L 257.40864 96.987946 
L 257.49792 92.609448 
L 257.5872 125.054213 
L 257.67648 117.07678 
L 257.76576 124.477018 
L 257.85504 164.535424 
L 257.94432 163.788925 
L 258.12288 90.346205 
L 258.39072 128.944171 
L 258.48 102.366915 
L 258.56928 108.251347 
L 258.65856 107.568861 
L 258.74784 100.541866 
L 258.83712 109.536338 
L 258.9264 141.360435 
L 259.28352 99.960564 
L 259.46208 123.603107 
L 259.55136 121.24537 
L 259.64064 184.382814 
L 259.72992 95.643918 
L 259.8192 107.142108 
L 259.90848 160.932753 
L 260.08704 99.958432 
L 260.17632 122.262395 
L 260.2656 100.779213 
L 260.44416 123.481746 
L 260.62272 105.126034 
L 260.712 145.571204 
L 260.89056 96.711126 
L 261.06912 142.71422 
L 261.1584 96.810666 
L 261.24768 136.43826 
L 261.51552 97.783163 
L 261.6048 111.216893 
L 261.69408 93.602896 
L 261.78336 137.373883 
L 261.87264 96.760979 
L 261.96192 105.424124 
L 262.0512 110.530651 
L 262.14048 138.869278 
L 262.31904 114.429953 
L 262.4976 129.91098 
L 262.67616 99.940459 
L 262.76544 152.824764 
L 262.85472 129.971446 
L 262.944 130.575944 
L 263.12256 109.08599 
L 263.21184 157.689999 
L 263.30112 105.491717 
L 263.3904 138.780034 
L 263.56896 105.093517 
L 263.65824 108.459504 
L 263.74752 93.132685 
L 263.8368 114.735074 
L 263.92608 113.044652 
L 264.01536 116.518494 
L 264.10464 99.816257 
L 264.19392 100.950196 
L 264.2832 93.180686 
L 264.37248 104.251687 
L 264.46176 159.692132 
L 264.55104 106.578799 
L 264.64032 133.357181 
L 264.7296 123.070291 
L 264.81888 144.290555 
L 264.90816 142.032011 
L 265.08672 99.689072 
L 265.176 146.435102 
L 265.35456 106.747423 
L 265.44384 145.184061 
L 265.53312 108.531048 
L 265.6224 136.903938 
L 265.80096 90.711198 
L 265.89024 115.87233 
L 265.97952 91.478539 
L 266.0688 133.937631 
L 266.15808 111.612483 
L 266.24736 138.62977 
L 266.33664 106.73366 
L 266.42592 110.322318 
L 266.5152 122.024532 
L 266.69376 95.467644 
L 266.78304 96.973322 
L 266.9616 117.00948 
L 267.05088 112.937804 
L 267.14016 96.807813 
L 267.22944 157.70924 
L 267.31872 111.54912 
L 267.408 119.275674 
L 267.49728 140.282962 
L 267.67584 115.442929 
L 267.76512 122.381688 
L 267.8544 97.023824 
L 267.94368 123.708286 
L 268.03296 116.254368 
L 268.12224 145.579829 
L 268.21152 114.801474 
L 268.3008 117.374623 
L 268.47936 102.443863 
L 268.65792 128.972956 
L 268.7472 117.801833 
L 268.83648 169.204665 
L 268.92576 117.319373 
L 269.01504 163.269314 
L 269.10432 82.85643 
L 269.1936 121.050947 
L 269.28288 116.766384 
L 269.37216 106.935293 
L 269.46144 117.503554 
L 269.55072 104.074955 
L 269.64 135.563429 
L 269.72928 103.484129 
L 269.81856 128.408954 
L 269.90784 105.21353 
L 270.0864 140.033552 
L 270.26496 104.978146 
L 270.35424 145.852153 
L 270.44352 118.934576 
L 270.5328 123.438574 
L 270.62208 100.143887 
L 270.88992 113.129275 
L 270.9792 112.965211 
L 271.06848 108.290664 
L 271.15776 159.100031 
L 271.33632 95.123549 
L 271.4256 139.447969 
L 271.69344 94.82804 
L 271.872 136.354733 
L 271.96128 103.654793 
L 272.13984 144.764227 
L 272.22912 110.107496 
L 272.3184 150.7002 
L 272.40768 116.564659 
L 272.49696 124.890384 
L 272.58624 90.794998 
L 272.67552 119.074869 
L 272.7648 112.893712 
L 272.85408 104.899127 
L 272.94336 122.598057 
L 273.12192 100.409693 
L 273.30048 127.058078 
L 273.38976 109.432292 
L 273.6576 135.251692 
L 273.74688 133.551677 
L 273.83616 103.174538 
L 273.92544 129.537362 
L 274.104 92.62842 
L 274.19328 99.640347 
L 274.28256 89.202974 
L 274.37184 126.870424 
L 274.46112 96.705385 
L 274.72896 124.608623 
L 274.81824 98.829073 
L 274.90752 125.765051 
L 274.9968 124.34236 
L 275.17536 95.177293 
L 275.26464 130.123412 
L 275.35392 127.775146 
L 275.62176 88.171312 
L 275.80032 127.158272 
L 275.8896 135.159253 
L 276.06816 99.53878 
L 276.15744 93.887898 
L 276.24672 97.907544 
L 276.336 143.584836 
L 276.42528 137.277941 
L 276.51456 139.074259 
L 276.69312 95.989799 
L 276.7824 97.429813 
L 276.87168 160.370284 
L 276.96096 96.542827 
L 277.05024 115.938088 
L 277.13952 101.089936 
L 277.31808 111.730391 
L 277.40736 114.127705 
L 277.49664 80.222765 
L 277.58592 116.709942 
L 277.6752 107.807146 
L 277.76448 112.871768 
L 277.85376 130.482369 
L 277.94304 125.917307 
L 278.03232 127.272977 
L 278.1216 93.090083 
L 278.30016 139.670224 
L 278.47872 96.958181 
L 278.568 125.160907 
L 278.65728 92.78667 
L 278.74656 127.419345 
L 278.83584 96.614766 
L 279.0144 136.737119 
L 279.19296 94.434301 
L 279.28224 116.935299 
L 279.37152 106.65889 
L 279.55008 127.023842 
L 279.63936 137.840774 
L 279.72864 94.125287 
L 279.81792 100.810999 
L 279.9072 121.990594 
L 279.99648 95.553962 
L 280.17504 128.756211 
L 280.26432 106.604363 
L 280.3536 108.27423 
L 280.44288 97.454032 
L 280.53216 114.730107 
L 280.62144 97.976635 
L 280.8 117.837601 
L 280.88928 94.008452 
L 280.97856 116.09705 
L 281.06784 97.656843 
L 281.15712 141.082677 
L 281.2464 87.751085 
L 281.42496 162.007403 
L 281.51424 105.850596 
L 281.60352 157.315378 
L 281.87136 77.246762 
L 281.96064 118.470942 
L 282.04992 101.097992 
L 282.1392 113.661259 
L 282.22848 90.14806 
L 282.40704 139.048245 
L 282.49632 89.421498 
L 282.5856 111.185381 
L 282.67488 166.402435 
L 282.85344 91.072254 
L 282.94272 99.420367 
L 283.032 103.181114 
L 283.12128 80.392684 
L 283.29984 125.4105 
L 283.38912 83.713386 
L 283.4784 91.01213 
L 283.56768 108.741111 
L 283.65696 91.724134 
L 283.74624 92.951735 
L 283.83552 135.753112 
L 283.9248 121.119267 
L 284.01408 85.051467 
L 284.10336 106.765334 
L 284.19264 83.075076 
L 284.3712 139.890838 
L 284.46048 134.131316 
L 284.54976 112.427791 
L 284.63904 130.049101 
L 284.72832 90.371496 
L 284.99616 122.169158 
L 285.08544 95.049758 
L 285.17472 97.539913 
L 285.35328 87.259088 
L 285.44256 113.876295 
L 285.53184 97.907439 
L 285.62112 102.669359 
L 285.7104 82.209191 
L 285.79968 90.552602 
L 285.88896 109.854683 
L 285.97824 103.761398 
L 286.06752 112.513461 
L 286.33536 94.181073 
L 286.42464 112.55792 
L 286.6032 83.481594 
L 286.69248 93.998024 
L 286.78176 93.40696 
L 286.87104 100.658139 
L 287.13888 89.008212 
L 287.22816 123.91536 
L 287.31744 122.869526 
L 287.496 91.072409 
L 287.67456 128.851917 
L 287.76384 96.105318 
L 287.85312 121.929387 
L 287.9424 115.762631 
L 288.03168 87.522641 
L 288.12096 91.058194 
L 288.21024 154.393618 
L 288.47808 87.7801 
L 288.56736 79.72797 
L 288.74592 120.696167 
L 288.8352 108.823774 
L 288.92448 90.047633 
L 289.01376 101.403385 
L 289.10304 98.079468 
L 289.19232 98.863772 
L 289.2816 147.963482 
L 289.37088 82.973447 
L 289.54944 101.449364 
L 289.63872 103.958732 
L 289.728 76.660484 
L 289.81728 95.893108 
L 289.90656 80.496994 
L 289.99584 108.235176 
L 290.08512 88.584889 
L 290.1744 109.251072 
L 290.26368 103.563747 
L 290.35296 110.214436 
L 290.53152 135.627493 
L 290.6208 88.717591 
L 290.79936 133.854023 
L 290.88864 102.073 
L 291.0672 133.399225 
L 291.15648 99.737274 
L 291.33504 128.334037 
L 291.42432 97.039599 
L 291.5136 104.208488 
L 291.60288 105.184942 
L 291.69216 78.065091 
L 291.78144 81.763917 
L 291.87072 101.842664 
L 291.96 93.122865 
L 292.04928 94.458779 
L 292.13856 96.274484 
L 292.31712 115.011475 
L 292.58496 92.258727 
L 292.8528 114.874439 
L 292.94208 102.556667 
L 293.03136 145.381885 
L 293.12064 133.835384 
L 293.2992 104.286353 
L 293.47776 110.298693 
L 293.56704 78.928341 
L 293.65632 111.016068 
L 293.7456 98.079694 
L 293.83488 126.936309 
L 293.92416 76.766475 
L 294.01344 102.648248 
L 294.10272 97.46764 
L 294.192 99.844949 
L 294.37056 121.521861 
L 294.54912 82.889321 
L 294.72768 157.987583 
L 294.81696 82.946383 
L 294.90624 178.507903 
L 295.0848 89.4835 
L 295.35264 76.139712 
L 295.44192 101.174193 
L 295.62048 76.555714 
L 295.70976 112.916715 
L 295.79904 100.812266 
L 295.88832 134.237915 
L 295.9776 73.1537 
L 296.06688 82.054396 
L 296.24544 107.464349 
L 296.33472 98.298561 
L 296.424 113.142018 
L 296.60256 89.87288 
L 296.69184 113.893496 
L 296.78112 89.218864 
L 297.04896 117.461477 
L 297.3168 91.225839 
L 297.40608 107.323496 
L 297.67392 85.747986 
L 297.94176 105.883047 
L 298.12032 91.477292 
L 298.2096 91.970204 
L 298.29888 113.78944 
L 298.56672 87.876925 
L 298.656 112.157274 
L 298.74528 95.98864 
L 298.83456 100.675709 
L 298.92384 90.720802 
L 299.1024 120.713009 
L 299.19168 146.536126 
L 299.45952 93.942426 
L 299.5488 91.685399 
L 299.63808 81.749927 
L 299.72736 115.087206 
L 299.81664 107.315763 
L 299.90592 104.741067 
L 299.9952 88.774732 
L 300.08448 164.674947 
L 300.17376 107.947931 
L 300.26304 124.475035 
L 300.35232 120.412105 
L 300.4416 100.19965 
L 300.53088 121.601636 
L 300.62016 100.428003 
L 300.70944 105.047954 
L 300.79872 102.51597 
L 300.888 191.764087 
L 301.06656 76.042456 
L 301.15584 106.154782 
L 301.24512 105.107 
L 301.42368 114.384672 
L 301.51296 142.26221 
L 301.60224 79.59404 
L 301.69152 110.177754 
L 301.7808 89.431261 
L 301.87008 93.990936 
L 301.95936 108.067278 
L 302.04864 101.506831 
L 302.13792 86.150044 
L 302.2272 88.69901 
L 302.31648 87.495251 
L 302.49504 97.491285 
L 302.58432 84.96387 
L 302.85216 125.989497 
L 302.94144 118.947727 
L 303.03072 99.837757 
L 303.12 101.454541 
L 303.29856 83.073301 
L 303.38784 101.197699 
L 303.47712 84.648309 
L 303.5664 93.980999 
L 303.65568 93.311255 
L 303.74496 94.045022 
L 303.83424 100.664308 
L 303.92352 85.641392 
L 304.0128 99.520239 
L 304.10208 99.197623 
L 304.19136 101.415934 
L 304.28064 95.100247 
L 304.4592 103.399099 
L 304.54848 103.70831 
L 304.63776 116.884287 
L 304.72704 103.590642 
L 304.81632 123.748 
L 304.99488 92.371108 
L 305.08416 97.531617 
L 305.17344 84.382618 
L 305.44128 131.324615 
L 305.53056 111.362745 
L 305.61984 137.803792 
L 305.7984 87.508746 
L 305.88768 126.847389 
L 305.97696 77.854614 
L 306.15552 107.244979 
L 306.2448 110.63057 
L 306.33408 105.071022 
L 306.42336 91.916614 
L 306.51264 105.90884 
L 306.6912 81.459578 
L 306.78048 108.737749 
L 306.86976 90.131507 
L 306.95904 118.835014 
L 307.1376 78.854517 
L 307.22688 117.543803 
L 307.31616 104.66925 
L 307.40544 75.757648 
L 307.584 101.712818 
L 307.67328 108.050886 
L 307.76256 168.031641 
L 307.94112 82.246919 
L 308.0304 89.795506 
L 308.11968 83.944543 
L 308.20896 89.537208 
L 308.29824 118.635445 
L 308.38752 92.247364 
L 308.4768 97.838181 
L 308.56608 155.484271 
L 308.74464 82.991606 
L 308.9232 130.290468 
L 309.01248 87.974234 
L 309.28032 136.137958 
L 309.3696 86.090054 
L 309.45888 100.306945 
L 309.54816 80.384578 
L 309.63744 137.870577 
L 309.72672 132.676064 
L 309.90528 83.611733 
L 309.99456 101.606791 
L 310.08384 76.305743 
L 310.2624 121.830054 
L 310.35168 82.411007 
L 310.44096 98.557982 
L 310.53024 95.499822 
L 310.61952 107.288068 
L 310.7088 141.421578 
L 310.79808 131.283944 
L 310.88736 85.274492 
L 310.97664 110.911212 
L 311.1552 86.536795 
L 311.24448 89.99843 
L 311.42304 112.596459 
L 311.51232 82.858186 
L 311.6016 113.960313 
L 311.69088 75.438204 
L 311.78016 85.007919 
L 311.86944 162.962571 
L 311.95872 76.315651 
L 312.048 132.236435 
L 312.22656 92.752565 
L 312.31584 113.286221 
L 312.4944 77.461558 
L 312.58368 101.195042 
L 312.67296 80.111067 
L 312.76224 96.422733 
L 312.85152 92.865114 
L 313.03008 82.988633 
L 313.11936 81.399644 
L 313.20864 99.894933 
L 313.29792 96.928036 
L 313.3872 97.265064 
L 313.47648 153.929249 
L 313.74432 90.625311 
L 313.8336 110.129392 
L 313.92288 86.344777 
L 314.10144 108.395992 
L 314.28 81.328008 
L 314.36928 113.641637 
L 314.45856 86.694133 
L 314.63712 102.310445 
L 314.81568 70.788304 
L 314.90496 86.471314 
L 314.99424 81.951178 
L 315.08352 86.290803 
L 315.1728 83.595639 
L 315.26208 110.231753 
L 315.35136 83.201119 
L 315.44064 88.674316 
L 315.52992 74.697911 
L 315.70848 139.007213 
L 315.88704 79.500168 
L 315.97632 84.348391 
L 316.15488 101.845267 
L 316.24416 78.014554 
L 316.33344 120.812916 
L 316.42272 90.464412 
L 316.512 91.922627 
L 316.60128 101.288922 
L 316.69056 134.390168 
L 316.86912 96.826441 
L 316.9584 104.240808 
L 317.04768 85.660669 
L 317.22624 114.444851 
L 317.31552 85.447371 
L 317.4048 90.813594 
L 317.49408 161.440715 
L 317.58336 85.485588 
L 317.67264 102.912019 
L 317.76192 98.925949 
L 317.8512 103.383555 
L 317.94048 89.376057 
L 318.11904 103.003013 
L 318.38688 80.058755 
L 318.56544 123.946766 
L 318.65472 105.262452 
L 318.744 119.092419 
L 318.92256 82.884162 
L 319.01184 129.603278 
L 319.10112 101.181094 
L 319.1904 114.381078 
L 319.36896 92.39096 
L 319.45824 108.247815 
L 319.72608 78.322274 
L 319.81536 89.777611 
L 319.90464 133.974497 
L 320.0832 95.378144 
L 320.17248 104.966705 
L 320.26176 82.623975 
L 320.35104 85.058818 
L 320.44032 81.760628 
L 320.61888 95.733038 
L 320.70816 122.127598 
L 320.79744 93.880058 
L 320.88672 104.223175 
L 320.976 74.282341 
L 321.24384 103.8603 
L 321.33312 75.136883 
L 321.51168 101.761054 
L 321.60096 85.975761 
L 321.69024 88.647143 
L 321.77952 106.25824 
L 321.95808 88.551817 
L 322.04736 90.518136 
L 322.13664 97.638618 
L 322.22592 121.37498 
L 322.3152 87.298431 
L 322.40448 118.664665 
L 322.58304 86.825405 
L 322.67232 92.14191 
L 322.7616 108.921349 
L 322.85088 83.48399 
L 323.02944 111.660479 
L 323.11872 75.290314 
L 323.208 101.38703 
L 323.29728 99.228995 
L 323.38656 94.991628 
L 323.47584 83.291354 
L 323.56512 95.555654 
L 323.6544 77.927602 
L 323.74368 82.324056 
L 323.83296 119.121466 
L 324.01152 73.640143 
L 324.1008 96.707348 
L 324.19008 78.044011 
L 324.63648 110.599639 
L 324.81504 72.697667 
L 324.9936 137.884153 
L 325.08288 85.057229 
L 325.17216 162.937053 
L 325.44 89.798672 
L 325.52928 112.531516 
L 325.61856 84.600927 
L 325.70784 178.358678 
L 325.79712 88.329843 
L 325.8864 108.600691 
L 325.97568 80.127156 
L 326.06496 81.054896 
L 326.15424 110.297402 
L 326.24352 77.660787 
L 326.3328 125.290345 
L 326.42208 84.776745 
L 326.51136 110.36323 
L 326.60064 83.115367 
L 326.68992 103.422163 
L 326.7792 68.491833 
L 326.86848 119.512062 
L 326.95776 89.799971 
L 327.04704 95.535868 
L 327.2256 151.168715 
L 327.40416 80.767498 
L 327.49344 83.57632 
L 327.76128 113.084184 
L 327.93984 76.035168 
L 328.20768 131.317243 
L 328.38624 81.967367 
L 328.5648 145.205688 
L 328.74336 78.641588 
L 328.83264 134.247921 
L 329.0112 69.348116 
L 329.10048 134.485002 
L 329.18976 82.062778 
L 329.27904 84.987495 
L 329.36832 77.648166 
L 329.72544 115.062432 
L 329.81472 77.91418 
L 329.904 128.661969 
L 330.08256 78.003098 
L 330.26112 90.715508 
L 330.3504 163.692193 
L 330.43968 71.817387 
L 330.52896 82.367738 
L 330.61824 116.636297 
L 330.7968 95.178739 
L 330.97536 88.072116 
L 331.06464 101.142222 
L 331.15392 76.512785 
L 331.2432 94.96723 
L 331.33248 81.305749 
L 331.42176 122.315625 
L 331.51104 113.362714 
L 331.60032 92.913135 
L 331.77888 111.696998 
L 331.86816 82.960699 
L 331.95744 83.838486 
L 332.136 153.661428 
L 332.31456 90.421908 
L 332.40384 90.362293 
L 332.49312 100.941964 
L 332.5824 155.567273 
L 332.76096 86.011684 
L 332.85024 83.219117 
L 332.93952 94.995877 
L 333.0288 80.305869 
L 333.20736 91.251021 
L 333.29664 73.058909 
L 333.38592 146.924843 
L 333.56448 90.674776 
L 333.74304 97.355771 
L 333.83232 118.356323 
L 334.01088 80.741303 
L 334.10016 84.692336 
L 334.18944 107.46429 
L 334.27872 88.55785 
L 334.368 91.588549 
L 334.45728 139.155569 
L 334.54656 85.295495 
L 334.63584 88.074102 
L 334.72512 107.122875 
L 334.8144 86.837247 
L 334.90368 95.74097 
L 334.99296 83.969429 
L 335.08224 122.528644 
L 335.2608 88.101586 
L 335.35008 114.916438 
L 335.43936 86.063971 
L 335.52864 89.63098 
L 335.61792 96.270973 
L 335.7072 94.833324 
L 335.79648 97.39209 
L 335.88576 80.251104 
L 336.06432 123.676108 
L 336.24288 86.335309 
L 336.33216 86.515325 
L 336.42144 119.038936 
L 336.6 76.087983 
L 336.68928 97.219188 
L 336.86784 83.768158 
L 336.95712 128.62729 
L 337.13568 77.763465 
L 337.22496 178.921598 
L 337.31424 84.319186 
L 337.40352 114.245487 
L 337.4928 78.005442 
L 337.67136 145.858797 
L 337.84992 84.214859 
L 338.20704 110.134808 
L 338.3856 81.882718 
L 338.47488 76.284133 
L 338.56416 95.382965 
L 338.65344 94.731129 
L 338.74272 83.298255 
L 338.832 83.313225 
L 338.92128 121.730852 
L 339.01056 77.299948 
L 339.09984 103.240778 
L 339.2784 73.380549 
L 339.36768 150.712446 
L 339.54624 80.432051 
L 339.7248 100.786188 
L 339.81408 83.856447 
L 339.90336 101.172952 
L 340.08192 90.459272 
L 340.34976 131.189901 
L 340.52832 81.291232 
L 340.6176 86.159975 
L 340.88544 101.40896 
L 340.97472 76.719118 
L 341.064 86.711303 
L 341.15328 85.411482 
L 341.24256 83.714647 
L 341.33184 77.106829 
L 341.5104 104.016329 
L 341.68896 86.251509 
L 341.77824 114.025863 
L 341.86752 83.120061 
L 341.9568 113.780548 
L 342.04608 83.568171 
L 342.13536 111.140698 
L 342.22464 77.99155 
L 342.31392 81.453295 
L 342.4032 91.97647 
L 342.49248 76.573028 
L 342.58176 85.981168 
L 342.67104 120.044089 
L 342.76032 86.675248 
L 342.8496 122.280015 
L 343.02816 92.662857 
L 343.11744 126.399682 
L 343.20672 80.803991 
L 343.296 92.301964 
L 343.38528 89.112172 
L 343.47456 75.352462 
L 343.56384 86.962785 
L 343.65312 165.221574 
L 343.7424 88.115392 
L 343.83168 95.897534 
L 344.09952 72.211423 
L 344.1888 97.876918 
L 344.27808 83.660553 
L 344.36736 88.718296 
L 344.45664 83.827934 
L 344.6352 94.693579 
L 344.72448 73.460998 
L 344.90304 105.706462 
L 344.99232 89.508853 
L 345.0816 102.829513 
L 345.17088 142.731063 
L 345.26016 80.900332 
L 345.34944 92.145299 
L 345.43872 99.04514 
L 345.61728 74.991272 
L 345.70656 86.048862 
L 345.79584 80.385322 
L 345.88512 148.762395 
L 345.9744 80.440737 
L 346.06368 98.670172 
L 346.24224 79.675096 
L 346.33152 154.959904 
L 346.51008 94.816289 
L 346.68864 78.34817 
L 346.77792 78.366211 
L 346.8672 103.326578 
L 346.95648 86.602498 
L 347.04576 99.253651 
L 347.13504 142.289525 
L 347.40288 85.107882 
L 347.49216 88.676522 
L 347.58144 81.797149 
L 347.67072 95.840877 
L 347.76 92.08081 
L 347.93856 80.239385 
L 348.02784 106.578752 
L 348.11712 81.399561 
L 348.2064 99.324982 
L 348.29568 63.648 
L 348.38496 158.489342 
L 348.47424 103.231301 
L 348.56352 105.159002 
L 348.74208 74.096672 
L 348.83136 105.673272 
L 348.92064 90.318869 
L 349.00992 96.964512 
L 349.18848 81.189069 
L 349.27776 80.337644 
L 349.36704 100.055895 
L 349.45632 81.026186 
L 349.5456 169.892344 
L 349.63488 92.23382 
L 349.72416 128.598766 
L 349.992 75.775619 
L 350.17056 125.130595 
L 350.25984 76.146272 
L 350.34912 80.98655 
L 350.4384 115.809841 
L 350.52768 85.414263 
L 350.70624 99.471358 
L 350.79552 93.200066 
L 350.8848 106.240717 
L 350.97408 75.11776 
L 351.06336 100.008804 
L 351.15264 82.589638 
L 351.24192 116.732021 
L 351.3312 80.847196 
L 351.42048 93.893492 
L 351.50976 81.409351 
L 351.59904 118.693728 
L 351.7776 80.926466 
L 351.86688 84.986341 
L 351.95616 116.215359 
L 352.04544 98.856461 
L 352.13472 123.620281 
L 352.224 97.073854 
L 352.31328 101.128723 
L 352.40256 103.688865 
L 352.49184 96.029586 
L 352.58112 133.906825 
L 352.6704 78.400926 
L 352.75968 98.002981 
L 352.84896 79.156099 
L 352.93824 97.196521 
L 353.02752 83.081063 
L 353.1168 95.668943 
L 353.20608 66.786979 
L 353.38464 111.031752 
L 353.47392 75.56897 
L 353.5632 90.643465 
L 353.65248 80.904311 
L 353.74176 87.98155 
L 353.83104 73.798442 
L 353.92032 79.153297 
L 354.0096 108.909055 
L 354.09888 85.67359 
L 354.18816 93.453986 
L 354.27744 80.221816 
L 354.36672 135.980249 
L 354.54528 111.401369 
L 354.81312 86.040204 
L 354.9024 86.394233 
L 354.99168 111.884699 
L 355.08096 78.478323 
L 355.25952 125.611767 
L 355.3488 112.885379 
L 355.43808 73.839637 
L 355.70592 105.857021 
L 355.7952 96.349684 
L 355.97376 110.457456 
L 356.15232 84.910628 
L 356.2416 96.42641 
L 356.33088 85.595233 
L 356.42016 88.658021 
L 356.59872 123.474555 
L 356.688 104.920417 
L 356.77728 108.538564 
L 356.86656 117.744199 
L 356.95584 76.285275 
L 357.04512 90.384024 
L 357.1344 142.999431 
L 357.22368 77.739866 
L 357.31296 81.671783 
L 357.40224 83.752329 
L 357.49152 81.523385 
L 357.5808 88.127129 
L 357.67008 144.222031 
L 357.75936 84.086204 
L 357.84864 96.837173 
L 357.93792 79.53841 
L 358.11648 105.289966 
L 358.20576 91.74197 
L 358.29504 112.731245 
L 358.56288 97.192662 
L 358.65216 73.788883 
L 358.74144 92.075024 
L 358.83072 85.204423 
L 359.00928 143.695578 
L 359.09856 79.0413 
L 359.18784 113.041758 
L 359.27712 86.106577 
L 359.3664 91.779954 
L 359.45568 92.998739 
L 359.63424 87.250243 
L 359.72352 120.139659 
L 359.90208 101.442004 
L 359.99136 96.270275 
L 360.08064 98.879299 
L 360.16992 125.52983 
L 360.2592 77.029798 
L 360.34848 102.516118 
L 360.43776 80.457813 
L 360.52704 83.041172 
L 360.61632 77.86623 
L 360.7056 100.810172 
L 360.79488 78.771567 
L 360.88416 85.132652 
L 360.97344 106.155466 
L 361.06272 94.206508 
L 361.152 118.760176 
L 361.33056 85.885852 
L 361.41984 88.927253 
L 361.50912 70.491443 
L 361.68768 149.911236 
L 361.77696 85.653035 
L 361.86624 92.196808 
L 361.95552 68.650687 
L 362.0448 85.687286 
L 362.13408 82.731211 
L 362.31264 107.884738 
L 362.40192 147.110054 
L 362.4912 76.948362 
L 362.58048 79.45375 
L 362.75904 92.895072 
L 362.9376 116.494973 
L 363.02688 71.795025 
L 363.11616 118.002034 
L 363.20544 107.716625 
L 363.384 76.528255 
L 363.47328 142.197241 
L 363.56256 82.368123 
L 363.65184 121.86367 
L 363.74112 76.625711 
L 363.8304 85.455594 
L 363.91968 90.679264 
L 364.00896 109.892197 
L 364.09824 104.414569 
L 364.18752 85.137704 
L 364.36608 114.336839 
L 364.45536 75.00155 
L 364.54464 77.544562 
L 364.63392 96.467987 
L 364.81248 85.689798 
L 364.90176 133.902796 
L 365.08032 82.493692 
L 365.1696 93.259988 
L 365.25888 114.278024 
L 365.34816 93.2575 
L 365.43744 95.590818 
L 365.52672 87.701502 
L 365.616 101.41162 
L 365.79456 84.084098 
L 365.88384 92.075992 
L 365.97312 78.56426 
L 366.0624 93.523549 
L 366.15168 138.199419 
L 366.24096 79.884071 
L 366.33024 90.836038 
L 366.5088 105.118041 
L 366.68736 75.379928 
L 366.77664 91.49944 
L 366.86592 89.043781 
L 366.9552 102.954646 
L 367.04448 88.045738 
L 367.13376 96.77364 
L 367.22304 80.807551 
L 367.31232 165.997679 
L 367.4016 77.421246 
L 367.49088 111.04666 
L 367.66944 85.550424 
L 367.75872 88.952346 
L 367.848 77.327675 
L 368.11584 115.943626 
L 368.20512 75.230272 
L 368.38368 137.355894 
L 368.56224 81.933548 
L 368.65152 81.18243 
L 368.7408 90.390157 
L 368.83008 74.89819 
L 368.91936 99.455936 
L 369.00864 74.064661 
L 369.09792 94.716058 
L 369.1872 83.164536 
L 369.27648 101.677316 
L 369.36576 70.83391 
L 369.45504 112.304227 
L 369.6336 76.304847 
L 369.81216 107.413129 
L 369.99072 78.574022 
L 370.08 81.708522 
L 370.16928 99.527954 
L 370.25856 99.027549 
L 370.34784 109.713837 
L 370.43712 80.567059 
L 370.5264 152.565432 
L 370.70496 80.810228 
L 370.79424 85.664999 
L 370.88352 72.084996 
L 370.9728 101.881391 
L 371.06208 87.250542 
L 371.15136 89.674459 
L 371.24064 81.062735 
L 371.32992 138.268962 
L 371.50848 78.775275 
L 371.59776 90.26257 
L 371.68704 76.305755 
L 371.77632 85.497125 
L 371.8656 114.208537 
L 371.95488 89.343283 
L 372.13344 118.950364 
L 372.22272 147.911332 
L 372.40128 81.95453 
L 372.49056 82.065926 
L 372.57984 89.556537 
L 372.66912 88.659294 
L 372.7584 86.384636 
L 372.84768 109.0944 
L 372.93696 74.008762 
L 373.02624 82.338953 
L 373.11552 93.851019 
L 373.2048 82.061079 
L 373.29408 87.31852 
L 373.38336 99.747594 
L 373.56192 90.863088 
L 373.6512 82.654926 
L 373.74048 91.470793 
L 373.82976 78.251216 
L 373.91904 83.410027 
L 374.00832 80.691743 
L 374.0976 104.071332 
L 374.27616 81.394085 
L 374.45472 153.428164 
L 374.63328 81.540619 
L 374.72256 105.855351 
L 374.81184 85.240934 
L 374.90112 113.600327 
L 374.9904 95.742461 
L 375.07968 114.205761 
L 375.16896 113.223968 
L 375.25824 85.643503 
L 375.34752 90.505982 
L 375.52608 76.776636 
L 375.61536 84.349817 
L 375.70464 114.660655 
L 375.79392 85.385061 
L 375.97248 103.924737 
L 376.06176 113.40303 
L 376.24032 79.246681 
L 376.3296 105.885026 
L 376.50816 76.755537 
L 376.776 117.880294 
L 376.86528 91.212829 
L 376.95456 115.636954 
L 377.04384 74.364776 
L 377.31168 135.558431 
L 377.49024 80.866821 
L 377.6688 113.651953 
L 377.75808 81.214597 
L 377.93664 115.292509 
L 378.02592 89.427745 
L 378.1152 93.010246 
L 378.20448 79.931799 
L 378.29376 133.734059 
L 378.38304 133.024311 
L 378.5616 82.792695 
L 378.74016 95.811749 
L 378.91872 93.521944 
L 379.008 97.795782 
L 379.18656 78.671102 
L 379.27584 111.019435 
L 379.36512 82.54916 
L 379.4544 85.999692 
L 379.54368 112.78542 
L 379.63296 92.302641 
L 379.72224 136.252673 
L 379.9008 74.574021 
L 379.99008 79.746857 
L 380.16864 95.931251 
L 380.43648 80.015335 
L 380.52576 86.03256 
L 380.61504 83.784856 
L 380.70432 90.526955 
L 380.7936 122.728918 
L 380.88288 76.824914 
L 380.97216 97.156141 
L 381.06144 78.135332 
L 381.15072 107.717891 
L 381.24 94.509645 
L 381.41856 106.264493 
L 381.6864 85.996538 
L 381.77568 83.904991 
L 381.86496 89.406992 
L 381.95424 105.4793 
L 382.22208 75.586716 
L 382.31136 113.863364 
L 382.40064 84.66458 
L 382.48992 140.834292 
L 382.66848 93.368391 
L 382.75776 88.042966 
L 382.93632 120.392054 
L 383.0256 98.882395 
L 383.11488 102.773933 
L 383.20416 114.387389 
L 383.38272 81.410428 
L 383.472 79.6361 
L 383.56128 146.026421 
L 383.73984 80.655436 
L 383.9184 102.291637 
L 384.09696 83.294373 
L 384.18624 76.663292 
L 384.27552 79.502464 
L 384.3648 88.978697 
L 384.54336 75.623262 
L 384.63264 97.507513 
L 384.72192 87.680304 
L 384.8112 90.866259 
L 384.90048 125.51862 
L 384.98976 88.29666 
L 385.07904 103.181067 
L 385.16832 86.510965 
L 385.2576 100.603484 
L 385.34688 80.026907 
L 385.43616 104.924733 
L 385.52544 100.54747 
L 385.61472 91.721738 
L 385.704 94.845059 
L 385.79328 79.943121 
L 386.06112 103.8627 
L 386.1504 88.657394 
L 386.23968 90.603183 
L 386.32896 113.343598 
L 386.5968 75.868863 
L 386.68608 85.283827 
L 386.77536 107.82124 
L 386.86464 79.454264 
L 387.13248 105.942064 
L 387.40032 84.080136 
L 387.4896 88.127152 
L 387.66816 75.026798 
L 387.84672 103.334813 
L 387.936 83.795501 
L 388.02528 89.213621 
L 388.11456 153.432228 
L 388.29312 69.27194 
L 388.3824 82.724286 
L 388.56096 101.252034 
L 388.73952 77.399113 
L 388.8288 107.171415 
L 388.91808 106.401067 
L 389.00736 91.012353 
L 389.09664 105.74458 
L 389.18592 91.657928 
L 389.2752 112.543991 
L 389.63232 77.198558 
L 389.7216 112.509213 
L 389.81088 83.782799 
L 390.07872 113.526356 
L 390.25728 84.802883 
L 390.34656 86.527084 
L 390.43584 82.431715 
L 390.6144 120.839549 
L 390.70368 94.19531 
L 390.79296 98.354959 
L 390.97152 83.630534 
L 391.15008 119.166449 
L 391.23936 94.09005 
L 391.32864 95.402346 
L 391.41792 104.039416 
L 391.5072 154.396978 
L 391.59648 86.070299 
L 391.68576 107.196276 
L 391.77504 74.467741 
L 391.86432 162.898007 
L 392.04288 95.765078 
L 392.13216 78.886148 
L 392.22144 121.999526 
L 392.4 68.700569 
L 392.48928 80.903171 
L 392.57856 142.450332 
L 392.75712 98.014222 
L 392.8464 80.197825 
L 392.93568 86.541686 
L 393.02496 67.190555 
L 393.11424 91.774459 
L 393.2928 67.675771 
L 393.47136 91.102016 
L 393.56064 74.366824 
L 393.64992 128.758755 
L 393.7392 83.860106 
L 393.82848 98.473627 
L 393.91776 74.333514 
L 394.09632 106.684229 
L 394.1856 84.121394 
L 394.27488 93.459782 
L 394.36416 77.062691 
L 394.45344 138.00174 
L 394.632 87.18888 
L 394.72128 85.863608 
L 394.81056 85.874728 
L 394.89984 113.177307 
L 395.0784 72.2016 
L 395.16768 68.980107 
L 395.25696 89.628072 
L 395.34624 78.201315 
L 395.43552 96.010321 
L 395.5248 75.753212 
L 395.61408 82.106008 
L 395.70336 127.243294 
L 395.79264 76.840482 
L 395.88192 86.680718 
L 395.9712 73.743672 
L 396.06048 78.2533 
L 396.14976 72.274006 
L 396.23904 74.064161 
L 396.32832 88.026939 
L 396.4176 122.862823 
L 396.59616 80.694855 
L 396.68544 75.602236 
L 396.77472 76.182778 
L 396.864 75.74389 
L 396.95328 94.987037 
L 397.04256 73.279433 
L 397.13184 76.272649 
L 397.22112 70.750532 
L 397.3104 95.815854 
L 397.57824 68.216587 
L 397.66752 104.102505 
L 397.7568 76.21271 
L 397.84608 91.119147 
L 397.93536 79.373543 
L 398.02464 80.651686 
L 398.11392 127.058701 
L 398.2032 82.307311 
L 398.29248 94.518491 
L 398.38176 74.858416 
L 398.47104 113.383357 
L 398.82816 76.753876 
L 398.91744 109.818135 
L 399.096 75.380725 
L 399.36384 121.118538 
L 399.5424 74.067754 
L 399.63168 102.04505 
L 399.72096 75.554022 
L 399.89952 112.914099 
L 399.9888 86.285864 
L 400.07808 106.061123 
L 400.16736 79.300571 
L 400.25664 105.699814 
L 400.34592 77.80478 
L 400.4352 101.60667 
L 400.61376 73.109248 
L 400.70304 95.499271 
L 400.79232 81.886254 
L 400.8816 92.287247 
L 400.97088 89.626959 
L 401.14944 116.597174 
L 401.328 79.077978 
L 401.41728 86.681074 
L 401.50656 76.955256 
L 401.59584 99.071682 
L 401.7744 80.46834 
L 401.86368 94.580258 
L 401.95296 90.451177 
L 402.04224 124.265437 
L 402.13152 76.166262 
L 402.2208 77.846528 
L 402.31008 68.896579 
L 402.39936 78.809641 
L 402.48864 69.656943 
L 402.6672 98.514046 
L 402.84576 84.362914 
L 402.93504 79.813126 
L 403.02432 82.660727 
L 403.1136 82.265784 
L 403.20288 78.023353 
L 403.38144 92.23565 
L 403.47072 77.606972 
L 403.56 117.983005 
L 403.73856 78.47077 
L 403.82784 101.656845 
L 403.91712 75.457529 
L 404.0064 128.365348 
L 404.18496 88.537292 
L 404.27424 76.203131 
L 404.4528 104.028649 
L 404.54208 71.819619 
L 404.63136 76.711389 
L 404.72064 81.483776 
L 404.80992 94.692321 
L 404.8992 91.622683 
L 404.98848 92.651371 
L 405.07776 86.86721 
L 405.25632 91.48604 
L 405.3456 80.725935 
L 405.43488 93.624032 
L 405.52416 88.706498 
L 405.61344 99.418028 
L 405.70272 85.539604 
L 405.88128 109.64319 
L 406.14912 78.499192 
L 406.2384 94.966874 
L 406.32768 73.779073 
L 406.41696 74.26958 
L 406.50624 98.698991 
L 406.59552 89.708788 
L 406.6848 92.971273 
L 406.77408 78.223933 
L 406.86336 79.709101 
L 406.95264 82.446809 
L 407.1312 78.005949 
L 407.39904 97.950413 
L 407.48832 77.695758 
L 407.66688 98.973914 
L 407.75616 73.836489 
L 407.84544 74.565469 
L 407.93472 73.876149 
L 408.024 81.063615 
L 408.20256 77.17979 
L 408.29184 120.861489 
L 408.4704 69.829164 
L 408.73824 117.150853 
L 409.00608 66.347829 
L 409.18464 82.833654 
L 409.3632 69.269881 
L 409.45248 78.958929 
L 409.54176 75.193863 
L 409.63104 80.011073 
L 409.72032 122.272373 
L 409.8096 74.394161 
L 409.89888 83.140323 
L 409.98816 72.850456 
L 410.07744 94.179124 
L 410.16672 71.081997 
L 410.43456 120.364715 
L 410.61312 80.721453 
L 410.7024 126.996057 
L 410.79168 115.495463 
L 410.97024 67.302474 
L 411.05952 73.25929 
L 411.1488 71.402057 
L 411.32736 73.945534 
L 411.41664 97.864652 
L 411.50592 79.26264 
L 411.5952 108.887838 
L 411.68448 81.776496 
L 411.86304 108.328083 
L 411.95232 79.970558 
L 412.0416 85.631543 
L 412.13088 67.256711 
L 412.39872 97.61977 
L 412.488 87.598226 
L 412.57728 96.639226 
L 412.66656 90.919001 
L 412.75584 94.181654 
L 412.84512 103.374008 
L 413.02368 81.677395 
L 413.11296 85.838825 
L 413.20224 97.781885 
L 413.29152 79.489821 
L 413.3808 86.438837 
L 413.47008 69.799423 
L 413.64864 90.221343 
L 413.73792 73.723431 
L 413.8272 79.740626 
L 413.91648 73.570126 
L 414.00576 98.4296 
L 414.18432 89.17539 
L 414.2736 129.781479 
L 414.36288 72.471956 
L 414.45216 108.445796 
L 414.54144 107.575392 
L 414.63072 94.68021 
L 414.63072 94.68021 
" style="fill:none;stroke:#0000ff;stroke-linecap:square;stroke-width:1.5;"/>
   </g>
   <g id="patch_3">
    <path d="M 57.6 307.584 
L 57.6 41.472 
" style="fill:none;stroke:#000000;stroke-linecap:square;stroke-linejoin:miter;stroke-width:0.8;"/>
   </g>
   <g id="patch_4">
    <path d="M 414.72 307.584 
L 414.72 41.472 
" style="fill:none;stroke:#000000;stroke-linecap:square;stroke-linejoin:miter;stroke-width:0.8;"/>
   </g>
   <g id="patch_5">
    <path d="M 57.6 307.584 
L 414.72 307.584 
" style="fill:none;stroke:#000000;stroke-linecap:square;stroke-linejoin:miter;stroke-width:0.8;"/>
   </g>
   <g id="patch_6">
    <path d="M 57.6 41.472 
L 414.72 41.472 
" style="fill:none;stroke:#000000;stroke-linecap:square;stroke-linejoin:miter;stroke-width:0.8;"/>
   </g>
   <g id="legend_1">
    <g id="patch_7">
     <path d="M 68.8 77.757 
L 269.4375 77.757 
Q 272.6375 77.757 272.6375 74.557 
L 272.6375 52.672 
Q 272.6375 49.472 269.4375 49.472 
L 68.8 49.472 
Q 65.6 49.472 65.6 52.672 
L 65.6 74.557 
Q 65.6 77.757 68.8 77.757 
z
" style="fill:#ffffff;opacity:0.8;stroke:#cccccc;stroke-linejoin:miter;"/>
    </g>
    <g id="line2d_28">
     <path d="M 72 62.4295 
L 104 62.4295 
" style="fill:none;stroke:#0000ff;stroke-linecap:square;stroke-width:1.5;"/>
    </g>
    <g id="line2d_29"/>
    <g id="text_16">
     <!-- cumulative reward -->
     <g transform="translate(116.8 68.0295)scale(0.16 -0.16)">
      <defs>
       <path d="M 3122 3366 
L 3122 2828 
Q 2878 2963 2633 3030 
Q 2388 3097 2138 3097 
Q 1578 3097 1268 2742 
Q 959 2388 959 1747 
Q 959 1106 1268 751 
Q 1578 397 2138 397 
Q 2388 397 2633 464 
Q 2878 531 3122 666 
L 3122 134 
Q 2881 22 2623 -34 
Q 2366 -91 2075 -91 
Q 1284 -91 818 406 
Q 353 903 353 1747 
Q 353 2603 823 3093 
Q 1294 3584 2113 3584 
Q 2378 3584 2631 3529 
Q 2884 3475 3122 3366 
z
" id="DejaVuSans-63" transform="scale(0.015625)"/>
      </defs>
      <use xlink:href="#DejaVuSans-63"/>
      <use x="54.980469" xlink:href="#DejaVuSans-75"/>
      <use x="118.359375" xlink:href="#DejaVuSans-6d"/>
      <use x="215.771484" xlink:href="#DejaVuSans-75"/>
      <use x="279.150391" xlink:href="#DejaVuSans-6c"/>
      <use x="306.933594" xlink:href="#DejaVuSans-61"/>
      <use x="368.212891" xlink:href="#DejaVuSans-74"/>
      <use x="407.421875" xlink:href="#DejaVuSans-69"/>
      <use x="435.205078" xlink:href="#DejaVuSans-76"/>
      <use x="494.384766" xlink:href="#DejaVuSans-65"/>
      <use x="555.908203" xlink:href="#DejaVuSans-20"/>
      <use x="587.695312" xlink:href="#DejaVuSans-72"/>
      <use x="626.558594" xlink:href="#DejaVuSans-65"/>
      <use x="688.082031" xlink:href="#DejaVuSans-77"/>
      <use x="769.869141" xlink:href="#DejaVuSans-61"/>
      <use x="831.148438" xlink:href="#DejaVuSans-72"/>
      <use x="870.511719" xlink:href="#DejaVuSans-64"/>
     </g>
    </g>
   </g>
  </g>
 </g>
 <defs>
  <clipPath id="p7e8c8e5208">
   <rect height="266.112" width="357.12" x="57.6" y="41.472"/>
  </clipPath>
 </defs>
</svg>
