<?xml version="1.0" encoding="utf-8" standalone="no"?>
<!DOCTYPE svg PUBLIC "-//W3C//DTD SVG 1.1//EN"
  "http://www.w3.org/Graphics/SVG/1.1/DTD/svg11.dtd">
<svg height="345.6pt" version="1.1" viewBox="0 0 460.8 345.6" width="460.8pt" xmlns="http://www.w3.org/2000/svg" xmlns:xlink="http://www.w3.org/1999/xlink">
 <metadata>
  <rdf:RDF xmlns:cc="http://creativecommons.org/ns#" xmlns:dc="http://purl.org/dc/elements/1.1/" xmlns:rdf="http://www.w3.org/1999/02/22-rdf-syntax-ns#">
   <cc:Work>
    <dc:type rdf:resource="http://purl.org/dc/dcmitype/StillImage"/>
    <dc:date>2021-10-27T12:10:23.401763</dc:date>
    <dc:description>{"agent.algorithm": "RayProximalPolicyOptimization", "agent.algorithm.render_env": false, "agent.algorithm.num_workers": 0, "agent.algorithm.batch_mode": "complete_episodes", "agent.algorithm.train_batch_size": 200, "agent.algorithm.optimizer": "Adam", "agent.algorithm.vf_clip_param": 100, "agent.algorithm.model": {"fcnet_activation": "tanh", "fcnet_hiddens": [50, 50]}, "env.env_class": "SchedulerPolicyRayEnvironment", "env.env_config": {"solver_driver": "CMAdriver", "solver_driver_args": [10, 10, 23, 1.18], "maximize": false, "steps": 50, "state_metrics_names": ["DifferenceOfBest", "SolverStateHistory", "SolverState"], "state_metrics_config": [[40, false, 1, true], [{"step_size": {"max": 3, "min": 0}}, 40], [{"ps": {"max": 10, "min": -10}}]], "reward_metric": "Best", "reward_metric_config": [false, false], "memes_no": 1, "action_space_config": {"step_size": {"max": 3, "min": 1e-10}}}}</dc:description>
    <dc:format>image/svg+xml</dc:format>
    <dc:creator>
     <cc:Agent>
      <dc:title>Matplotlib v3.4.3, https://matplotlib.org/</dc:title>
     </cc:Agent>
    </dc:creator>
   </cc:Work>
  </rdf:RDF>
 </metadata>
 <defs>
  <style type="text/css">*{stroke-linecap:butt;stroke-linejoin:round;}</style>
 </defs>
 <g id="figure_1">
  <g id="patch_1">
   <path d="M 0 345.6 
L 460.8 345.6 
L 460.8 0 
L 0 0 
z
" style="fill:#ffffff;"/>
  </g>
  <g id="axes_1">
   <g id="patch_2">
    <path d="M 57.6 307.584 
L 414.72 307.584 
L 414.72 41.472 
L 57.6 41.472 
z
" style="fill:#ffffff;"/>
   </g>
   <g id="matplotlib.axis_1">
    <g id="xtick_1">
     <g id="line2d_1">
      <path clip-path="url(#pef27f9f218)" d="M 57.6 307.584 
L 57.6 41.472 
" style="fill:none;stroke:#b0b0b0;stroke-linecap:square;stroke-width:0.8;"/>
     </g>
     <g id="line2d_2">
      <defs>
       <path d="M 0 0 
L 0 3.5 
" id="mb970f15018" style="stroke:#000000;stroke-width:0.8;"/>
      </defs>
      <g>
       <use style="stroke:#000000;stroke-width:0.8;" x="57.6" xlink:href="#mb970f15018" y="307.584"/>
      </g>
     </g>
     <g id="text_1">
      <!-- 0 -->
      <g transform="translate(54.41875 322.182437)scale(0.1 -0.1)">
       <defs>
        <path d="M 2034 4250 
Q 1547 4250 1301 3770 
Q 1056 3291 1056 2328 
Q 1056 1369 1301 889 
Q 1547 409 2034 409 
Q 2525 409 2770 889 
Q 3016 1369 3016 2328 
Q 3016 3291 2770 3770 
Q 2525 4250 2034 4250 
z
M 2034 4750 
Q 2819 4750 3233 4129 
Q 3647 3509 3647 2328 
Q 3647 1150 3233 529 
Q 2819 -91 2034 -91 
Q 1250 -91 836 529 
Q 422 1150 422 2328 
Q 422 3509 836 4129 
Q 1250 4750 2034 4750 
z
" id="DejaVuSans-30" transform="scale(0.015625)"/>
       </defs>
       <use xlink:href="#DejaVuSans-30"/>
      </g>
     </g>
    </g>
    <g id="xtick_2">
     <g id="line2d_3">
      <path clip-path="url(#pef27f9f218)" d="M 102.24 307.584 
L 102.24 41.472 
" style="fill:none;stroke:#b0b0b0;stroke-linecap:square;stroke-width:0.8;"/>
     </g>
     <g id="line2d_4">
      <g>
       <use style="stroke:#000000;stroke-width:0.8;" x="102.24" xlink:href="#mb970f15018" y="307.584"/>
      </g>
     </g>
     <g id="text_2">
      <!-- 250 -->
      <g transform="translate(92.69625 322.182437)scale(0.1 -0.1)">
       <defs>
        <path d="M 1228 531 
L 3431 531 
L 3431 0 
L 469 0 
L 469 531 
Q 828 903 1448 1529 
Q 2069 2156 2228 2338 
Q 2531 2678 2651 2914 
Q 2772 3150 2772 3378 
Q 2772 3750 2511 3984 
Q 2250 4219 1831 4219 
Q 1534 4219 1204 4116 
Q 875 4013 500 3803 
L 500 4441 
Q 881 4594 1212 4672 
Q 1544 4750 1819 4750 
Q 2544 4750 2975 4387 
Q 3406 4025 3406 3419 
Q 3406 3131 3298 2873 
Q 3191 2616 2906 2266 
Q 2828 2175 2409 1742 
Q 1991 1309 1228 531 
z
" id="DejaVuSans-32" transform="scale(0.015625)"/>
        <path d="M 691 4666 
L 3169 4666 
L 3169 4134 
L 1269 4134 
L 1269 2991 
Q 1406 3038 1543 3061 
Q 1681 3084 1819 3084 
Q 2600 3084 3056 2656 
Q 3513 2228 3513 1497 
Q 3513 744 3044 326 
Q 2575 -91 1722 -91 
Q 1428 -91 1123 -41 
Q 819 9 494 109 
L 494 744 
Q 775 591 1075 516 
Q 1375 441 1709 441 
Q 2250 441 2565 725 
Q 2881 1009 2881 1497 
Q 2881 1984 2565 2268 
Q 2250 2553 1709 2553 
Q 1456 2553 1204 2497 
Q 953 2441 691 2322 
L 691 4666 
z
" id="DejaVuSans-35" transform="scale(0.015625)"/>
       </defs>
       <use xlink:href="#DejaVuSans-32"/>
       <use x="63.623047" xlink:href="#DejaVuSans-35"/>
       <use x="127.246094" xlink:href="#DejaVuSans-30"/>
      </g>
     </g>
    </g>
    <g id="xtick_3">
     <g id="line2d_5">
      <path clip-path="url(#pef27f9f218)" d="M 146.88 307.584 
L 146.88 41.472 
" style="fill:none;stroke:#b0b0b0;stroke-linecap:square;stroke-width:0.8;"/>
     </g>
     <g id="line2d_6">
      <g>
       <use style="stroke:#000000;stroke-width:0.8;" x="146.88" xlink:href="#mb970f15018" y="307.584"/>
      </g>
     </g>
     <g id="text_3">
      <!-- 500 -->
      <g transform="translate(137.33625 322.182437)scale(0.1 -0.1)">
       <use xlink:href="#DejaVuSans-35"/>
       <use x="63.623047" xlink:href="#DejaVuSans-30"/>
       <use x="127.246094" xlink:href="#DejaVuSans-30"/>
      </g>
     </g>
    </g>
    <g id="xtick_4">
     <g id="line2d_7">
      <path clip-path="url(#pef27f9f218)" d="M 191.52 307.584 
L 191.52 41.472 
" style="fill:none;stroke:#b0b0b0;stroke-linecap:square;stroke-width:0.8;"/>
     </g>
     <g id="line2d_8">
      <g>
       <use style="stroke:#000000;stroke-width:0.8;" x="191.52" xlink:href="#mb970f15018" y="307.584"/>
      </g>
     </g>
     <g id="text_4">
      <!-- 750 -->
      <g transform="translate(181.97625 322.182437)scale(0.1 -0.1)">
       <defs>
        <path d="M 525 4666 
L 3525 4666 
L 3525 4397 
L 1831 0 
L 1172 0 
L 2766 4134 
L 525 4134 
L 525 4666 
z
" id="DejaVuSans-37" transform="scale(0.015625)"/>
       </defs>
       <use xlink:href="#DejaVuSans-37"/>
       <use x="63.623047" xlink:href="#DejaVuSans-35"/>
       <use x="127.246094" xlink:href="#DejaVuSans-30"/>
      </g>
     </g>
    </g>
    <g id="xtick_5">
     <g id="line2d_9">
      <path clip-path="url(#pef27f9f218)" d="M 236.16 307.584 
L 236.16 41.472 
" style="fill:none;stroke:#b0b0b0;stroke-linecap:square;stroke-width:0.8;"/>
     </g>
     <g id="line2d_10">
      <g>
       <use style="stroke:#000000;stroke-width:0.8;" x="236.16" xlink:href="#mb970f15018" y="307.584"/>
      </g>
     </g>
     <g id="text_5">
      <!-- 1000 -->
      <g transform="translate(223.435 322.182437)scale(0.1 -0.1)">
       <defs>
        <path d="M 794 531 
L 1825 531 
L 1825 4091 
L 703 3866 
L 703 4441 
L 1819 4666 
L 2450 4666 
L 2450 531 
L 3481 531 
L 3481 0 
L 794 0 
L 794 531 
z
" id="DejaVuSans-31" transform="scale(0.015625)"/>
       </defs>
       <use xlink:href="#DejaVuSans-31"/>
       <use x="63.623047" xlink:href="#DejaVuSans-30"/>
       <use x="127.246094" xlink:href="#DejaVuSans-30"/>
       <use x="190.869141" xlink:href="#DejaVuSans-30"/>
      </g>
     </g>
    </g>
    <g id="xtick_6">
     <g id="line2d_11">
      <path clip-path="url(#pef27f9f218)" d="M 280.8 307.584 
L 280.8 41.472 
" style="fill:none;stroke:#b0b0b0;stroke-linecap:square;stroke-width:0.8;"/>
     </g>
     <g id="line2d_12">
      <g>
       <use style="stroke:#000000;stroke-width:0.8;" x="280.8" xlink:href="#mb970f15018" y="307.584"/>
      </g>
     </g>
     <g id="text_6">
      <!-- 1250 -->
      <g transform="translate(268.075 322.182437)scale(0.1 -0.1)">
       <use xlink:href="#DejaVuSans-31"/>
       <use x="63.623047" xlink:href="#DejaVuSans-32"/>
       <use x="127.246094" xlink:href="#DejaVuSans-35"/>
       <use x="190.869141" xlink:href="#DejaVuSans-30"/>
      </g>
     </g>
    </g>
    <g id="xtick_7">
     <g id="line2d_13">
      <path clip-path="url(#pef27f9f218)" d="M 325.44 307.584 
L 325.44 41.472 
" style="fill:none;stroke:#b0b0b0;stroke-linecap:square;stroke-width:0.8;"/>
     </g>
     <g id="line2d_14">
      <g>
       <use style="stroke:#000000;stroke-width:0.8;" x="325.44" xlink:href="#mb970f15018" y="307.584"/>
      </g>
     </g>
     <g id="text_7">
      <!-- 1500 -->
      <g transform="translate(312.715 322.182437)scale(0.1 -0.1)">
       <use xlink:href="#DejaVuSans-31"/>
       <use x="63.623047" xlink:href="#DejaVuSans-35"/>
       <use x="127.246094" xlink:href="#DejaVuSans-30"/>
       <use x="190.869141" xlink:href="#DejaVuSans-30"/>
      </g>
     </g>
    </g>
    <g id="xtick_8">
     <g id="line2d_15">
      <path clip-path="url(#pef27f9f218)" d="M 370.08 307.584 
L 370.08 41.472 
" style="fill:none;stroke:#b0b0b0;stroke-linecap:square;stroke-width:0.8;"/>
     </g>
     <g id="line2d_16">
      <g>
       <use style="stroke:#000000;stroke-width:0.8;" x="370.08" xlink:href="#mb970f15018" y="307.584"/>
      </g>
     </g>
     <g id="text_8">
      <!-- 1750 -->
      <g transform="translate(357.355 322.182437)scale(0.1 -0.1)">
       <use xlink:href="#DejaVuSans-31"/>
       <use x="63.623047" xlink:href="#DejaVuSans-37"/>
       <use x="127.246094" xlink:href="#DejaVuSans-35"/>
       <use x="190.869141" xlink:href="#DejaVuSans-30"/>
      </g>
     </g>
    </g>
    <g id="xtick_9">
     <g id="line2d_17">
      <path clip-path="url(#pef27f9f218)" d="M 414.72 307.584 
L 414.72 41.472 
" style="fill:none;stroke:#b0b0b0;stroke-linecap:square;stroke-width:0.8;"/>
     </g>
     <g id="line2d_18">
      <g>
       <use style="stroke:#000000;stroke-width:0.8;" x="414.72" xlink:href="#mb970f15018" y="307.584"/>
      </g>
     </g>
     <g id="text_9">
      <!-- 2000 -->
      <g transform="translate(401.995 322.182437)scale(0.1 -0.1)">
       <use xlink:href="#DejaVuSans-32"/>
       <use x="63.623047" xlink:href="#DejaVuSans-30"/>
       <use x="127.246094" xlink:href="#DejaVuSans-30"/>
       <use x="190.869141" xlink:href="#DejaVuSans-30"/>
      </g>
     </g>
    </g>
    <g id="text_10">
     <!-- Episodes -->
     <g transform="translate(213.917812 335.860562)scale(0.1 -0.1)">
      <defs>
       <path d="M 628 4666 
L 3578 4666 
L 3578 4134 
L 1259 4134 
L 1259 2753 
L 3481 2753 
L 3481 2222 
L 1259 2222 
L 1259 531 
L 3634 531 
L 3634 0 
L 628 0 
L 628 4666 
z
" id="DejaVuSans-45" transform="scale(0.015625)"/>
       <path d="M 1159 525 
L 1159 -1331 
L 581 -1331 
L 581 3500 
L 1159 3500 
L 1159 2969 
Q 1341 3281 1617 3432 
Q 1894 3584 2278 3584 
Q 2916 3584 3314 3078 
Q 3713 2572 3713 1747 
Q 3713 922 3314 415 
Q 2916 -91 2278 -91 
Q 1894 -91 1617 61 
Q 1341 213 1159 525 
z
M 3116 1747 
Q 3116 2381 2855 2742 
Q 2594 3103 2138 3103 
Q 1681 3103 1420 2742 
Q 1159 2381 1159 1747 
Q 1159 1113 1420 752 
Q 1681 391 2138 391 
Q 2594 391 2855 752 
Q 3116 1113 3116 1747 
z
" id="DejaVuSans-70" transform="scale(0.015625)"/>
       <path d="M 603 3500 
L 1178 3500 
L 1178 0 
L 603 0 
L 603 3500 
z
M 603 4863 
L 1178 4863 
L 1178 4134 
L 603 4134 
L 603 4863 
z
" id="DejaVuSans-69" transform="scale(0.015625)"/>
       <path d="M 2834 3397 
L 2834 2853 
Q 2591 2978 2328 3040 
Q 2066 3103 1784 3103 
Q 1356 3103 1142 2972 
Q 928 2841 928 2578 
Q 928 2378 1081 2264 
Q 1234 2150 1697 2047 
L 1894 2003 
Q 2506 1872 2764 1633 
Q 3022 1394 3022 966 
Q 3022 478 2636 193 
Q 2250 -91 1575 -91 
Q 1294 -91 989 -36 
Q 684 19 347 128 
L 347 722 
Q 666 556 975 473 
Q 1284 391 1588 391 
Q 1994 391 2212 530 
Q 2431 669 2431 922 
Q 2431 1156 2273 1281 
Q 2116 1406 1581 1522 
L 1381 1569 
Q 847 1681 609 1914 
Q 372 2147 372 2553 
Q 372 3047 722 3315 
Q 1072 3584 1716 3584 
Q 2034 3584 2315 3537 
Q 2597 3491 2834 3397 
z
" id="DejaVuSans-73" transform="scale(0.015625)"/>
       <path d="M 1959 3097 
Q 1497 3097 1228 2736 
Q 959 2375 959 1747 
Q 959 1119 1226 758 
Q 1494 397 1959 397 
Q 2419 397 2687 759 
Q 2956 1122 2956 1747 
Q 2956 2369 2687 2733 
Q 2419 3097 1959 3097 
z
M 1959 3584 
Q 2709 3584 3137 3096 
Q 3566 2609 3566 1747 
Q 3566 888 3137 398 
Q 2709 -91 1959 -91 
Q 1206 -91 779 398 
Q 353 888 353 1747 
Q 353 2609 779 3096 
Q 1206 3584 1959 3584 
z
" id="DejaVuSans-6f" transform="scale(0.015625)"/>
       <path d="M 2906 2969 
L 2906 4863 
L 3481 4863 
L 3481 0 
L 2906 0 
L 2906 525 
Q 2725 213 2448 61 
Q 2172 -91 1784 -91 
Q 1150 -91 751 415 
Q 353 922 353 1747 
Q 353 2572 751 3078 
Q 1150 3584 1784 3584 
Q 2172 3584 2448 3432 
Q 2725 3281 2906 2969 
z
M 947 1747 
Q 947 1113 1208 752 
Q 1469 391 1925 391 
Q 2381 391 2643 752 
Q 2906 1113 2906 1747 
Q 2906 2381 2643 2742 
Q 2381 3103 1925 3103 
Q 1469 3103 1208 2742 
Q 947 2381 947 1747 
z
" id="DejaVuSans-64" transform="scale(0.015625)"/>
       <path d="M 3597 1894 
L 3597 1613 
L 953 1613 
Q 991 1019 1311 708 
Q 1631 397 2203 397 
Q 2534 397 2845 478 
Q 3156 559 3463 722 
L 3463 178 
Q 3153 47 2828 -22 
Q 2503 -91 2169 -91 
Q 1331 -91 842 396 
Q 353 884 353 1716 
Q 353 2575 817 3079 
Q 1281 3584 2069 3584 
Q 2775 3584 3186 3129 
Q 3597 2675 3597 1894 
z
M 3022 2063 
Q 3016 2534 2758 2815 
Q 2500 3097 2075 3097 
Q 1594 3097 1305 2825 
Q 1016 2553 972 2059 
L 3022 2063 
z
" id="DejaVuSans-65" transform="scale(0.015625)"/>
      </defs>
      <use xlink:href="#DejaVuSans-45"/>
      <use x="63.183594" xlink:href="#DejaVuSans-70"/>
      <use x="126.660156" xlink:href="#DejaVuSans-69"/>
      <use x="154.443359" xlink:href="#DejaVuSans-73"/>
      <use x="206.542969" xlink:href="#DejaVuSans-6f"/>
      <use x="267.724609" xlink:href="#DejaVuSans-64"/>
      <use x="331.201172" xlink:href="#DejaVuSans-65"/>
      <use x="392.724609" xlink:href="#DejaVuSans-73"/>
     </g>
    </g>
   </g>
   <g id="matplotlib.axis_2">
    <g id="ytick_1">
     <g id="line2d_19">
      <path clip-path="url(#pef27f9f218)" d="M 57.6 291.06739 
L 414.72 291.06739 
" style="fill:none;stroke:#b0b0b0;stroke-linecap:square;stroke-width:0.8;"/>
     </g>
     <g id="line2d_20">
      <defs>
       <path d="M 0 0 
L -3.5 0 
" id="m7c5be861fd" style="stroke:#000000;stroke-width:0.8;"/>
      </defs>
      <g>
       <use style="stroke:#000000;stroke-width:0.8;" x="57.6" xlink:href="#m7c5be861fd" y="291.06739"/>
      </g>
     </g>
     <g id="text_11">
      <!-- −11200 -->
      <g transform="translate(10.407812 294.866609)scale(0.1 -0.1)">
       <defs>
        <path d="M 678 2272 
L 4684 2272 
L 4684 1741 
L 678 1741 
L 678 2272 
z
" id="DejaVuSans-2212" transform="scale(0.015625)"/>
       </defs>
       <use xlink:href="#DejaVuSans-2212"/>
       <use x="83.789062" xlink:href="#DejaVuSans-31"/>
       <use x="147.412109" xlink:href="#DejaVuSans-31"/>
       <use x="211.035156" xlink:href="#DejaVuSans-32"/>
       <use x="274.658203" xlink:href="#DejaVuSans-30"/>
       <use x="338.28125" xlink:href="#DejaVuSans-30"/>
      </g>
     </g>
    </g>
    <g id="ytick_2">
     <g id="line2d_21">
      <path clip-path="url(#pef27f9f218)" d="M 57.6 256.603517 
L 414.72 256.603517 
" style="fill:none;stroke:#b0b0b0;stroke-linecap:square;stroke-width:0.8;"/>
     </g>
     <g id="line2d_22">
      <g>
       <use style="stroke:#000000;stroke-width:0.8;" x="57.6" xlink:href="#m7c5be861fd" y="256.603517"/>
      </g>
     </g>
     <g id="text_12">
      <!-- −11150 -->
      <g transform="translate(10.407812 260.402736)scale(0.1 -0.1)">
       <use xlink:href="#DejaVuSans-2212"/>
       <use x="83.789062" xlink:href="#DejaVuSans-31"/>
       <use x="147.412109" xlink:href="#DejaVuSans-31"/>
       <use x="211.035156" xlink:href="#DejaVuSans-31"/>
       <use x="274.658203" xlink:href="#DejaVuSans-35"/>
       <use x="338.28125" xlink:href="#DejaVuSans-30"/>
      </g>
     </g>
    </g>
    <g id="ytick_3">
     <g id="line2d_23">
      <path clip-path="url(#pef27f9f218)" d="M 57.6 222.139644 
L 414.72 222.139644 
" style="fill:none;stroke:#b0b0b0;stroke-linecap:square;stroke-width:0.8;"/>
     </g>
     <g id="line2d_24">
      <g>
       <use style="stroke:#000000;stroke-width:0.8;" x="57.6" xlink:href="#m7c5be861fd" y="222.139644"/>
      </g>
     </g>
     <g id="text_13">
      <!-- −11100 -->
      <g transform="translate(10.407812 225.938863)scale(0.1 -0.1)">
       <use xlink:href="#DejaVuSans-2212"/>
       <use x="83.789062" xlink:href="#DejaVuSans-31"/>
       <use x="147.412109" xlink:href="#DejaVuSans-31"/>
       <use x="211.035156" xlink:href="#DejaVuSans-31"/>
       <use x="274.658203" xlink:href="#DejaVuSans-30"/>
       <use x="338.28125" xlink:href="#DejaVuSans-30"/>
      </g>
     </g>
    </g>
    <g id="ytick_4">
     <g id="line2d_25">
      <path clip-path="url(#pef27f9f218)" d="M 57.6 187.675771 
L 414.72 187.675771 
" style="fill:none;stroke:#b0b0b0;stroke-linecap:square;stroke-width:0.8;"/>
     </g>
     <g id="line2d_26">
      <g>
       <use style="stroke:#000000;stroke-width:0.8;" x="57.6" xlink:href="#m7c5be861fd" y="187.675771"/>
      </g>
     </g>
     <g id="text_14">
      <!-- −11050 -->
      <g transform="translate(10.407812 191.47499)scale(0.1 -0.1)">
       <use xlink:href="#DejaVuSans-2212"/>
       <use x="83.789062" xlink:href="#DejaVuSans-31"/>
       <use x="147.412109" xlink:href="#DejaVuSans-31"/>
       <use x="211.035156" xlink:href="#DejaVuSans-30"/>
       <use x="274.658203" xlink:href="#DejaVuSans-35"/>
       <use x="338.28125" xlink:href="#DejaVuSans-30"/>
      </g>
     </g>
    </g>
    <g id="ytick_5">
     <g id="line2d_27">
      <path clip-path="url(#pef27f9f218)" d="M 57.6 153.211898 
L 414.72 153.211898 
" style="fill:none;stroke:#b0b0b0;stroke-linecap:square;stroke-width:0.8;"/>
     </g>
     <g id="line2d_28">
      <g>
       <use style="stroke:#000000;stroke-width:0.8;" x="57.6" xlink:href="#m7c5be861fd" y="153.211898"/>
      </g>
     </g>
     <g id="text_15">
      <!-- −11000 -->
      <g transform="translate(10.407812 157.011116)scale(0.1 -0.1)">
       <use xlink:href="#DejaVuSans-2212"/>
       <use x="83.789062" xlink:href="#DejaVuSans-31"/>
       <use x="147.412109" xlink:href="#DejaVuSans-31"/>
       <use x="211.035156" xlink:href="#DejaVuSans-30"/>
       <use x="274.658203" xlink:href="#DejaVuSans-30"/>
       <use x="338.28125" xlink:href="#DejaVuSans-30"/>
      </g>
     </g>
    </g>
    <g id="ytick_6">
     <g id="line2d_29">
      <path clip-path="url(#pef27f9f218)" d="M 57.6 118.748025 
L 414.72 118.748025 
" style="fill:none;stroke:#b0b0b0;stroke-linecap:square;stroke-width:0.8;"/>
     </g>
     <g id="line2d_30">
      <g>
       <use style="stroke:#000000;stroke-width:0.8;" x="57.6" xlink:href="#m7c5be861fd" y="118.748025"/>
      </g>
     </g>
     <g id="text_16">
      <!-- −10950 -->
      <g transform="translate(10.407812 122.547243)scale(0.1 -0.1)">
       <defs>
        <path d="M 703 97 
L 703 672 
Q 941 559 1184 500 
Q 1428 441 1663 441 
Q 2288 441 2617 861 
Q 2947 1281 2994 2138 
Q 2813 1869 2534 1725 
Q 2256 1581 1919 1581 
Q 1219 1581 811 2004 
Q 403 2428 403 3163 
Q 403 3881 828 4315 
Q 1253 4750 1959 4750 
Q 2769 4750 3195 4129 
Q 3622 3509 3622 2328 
Q 3622 1225 3098 567 
Q 2575 -91 1691 -91 
Q 1453 -91 1209 -44 
Q 966 3 703 97 
z
M 1959 2075 
Q 2384 2075 2632 2365 
Q 2881 2656 2881 3163 
Q 2881 3666 2632 3958 
Q 2384 4250 1959 4250 
Q 1534 4250 1286 3958 
Q 1038 3666 1038 3163 
Q 1038 2656 1286 2365 
Q 1534 2075 1959 2075 
z
" id="DejaVuSans-39" transform="scale(0.015625)"/>
       </defs>
       <use xlink:href="#DejaVuSans-2212"/>
       <use x="83.789062" xlink:href="#DejaVuSans-31"/>
       <use x="147.412109" xlink:href="#DejaVuSans-30"/>
       <use x="211.035156" xlink:href="#DejaVuSans-39"/>
       <use x="274.658203" xlink:href="#DejaVuSans-35"/>
       <use x="338.28125" xlink:href="#DejaVuSans-30"/>
      </g>
     </g>
    </g>
    <g id="ytick_7">
     <g id="line2d_31">
      <path clip-path="url(#pef27f9f218)" d="M 57.6 84.284152 
L 414.72 84.284152 
" style="fill:none;stroke:#b0b0b0;stroke-linecap:square;stroke-width:0.8;"/>
     </g>
     <g id="line2d_32">
      <g>
       <use style="stroke:#000000;stroke-width:0.8;" x="57.6" xlink:href="#m7c5be861fd" y="84.284152"/>
      </g>
     </g>
     <g id="text_17">
      <!-- −10900 -->
      <g transform="translate(10.407812 88.08337)scale(0.1 -0.1)">
       <use xlink:href="#DejaVuSans-2212"/>
       <use x="83.789062" xlink:href="#DejaVuSans-31"/>
       <use x="147.412109" xlink:href="#DejaVuSans-30"/>
       <use x="211.035156" xlink:href="#DejaVuSans-39"/>
       <use x="274.658203" xlink:href="#DejaVuSans-30"/>
       <use x="338.28125" xlink:href="#DejaVuSans-30"/>
      </g>
     </g>
    </g>
    <g id="ytick_8">
     <g id="line2d_33">
      <path clip-path="url(#pef27f9f218)" d="M 57.6 49.820278 
L 414.72 49.820278 
" style="fill:none;stroke:#b0b0b0;stroke-linecap:square;stroke-width:0.8;"/>
     </g>
     <g id="line2d_34">
      <g>
       <use style="stroke:#000000;stroke-width:0.8;" x="57.6" xlink:href="#m7c5be861fd" y="49.820278"/>
      </g>
     </g>
     <g id="text_18">
      <!-- −10850 -->
      <g transform="translate(10.407812 53.619497)scale(0.1 -0.1)">
       <defs>
        <path d="M 2034 2216 
Q 1584 2216 1326 1975 
Q 1069 1734 1069 1313 
Q 1069 891 1326 650 
Q 1584 409 2034 409 
Q 2484 409 2743 651 
Q 3003 894 3003 1313 
Q 3003 1734 2745 1975 
Q 2488 2216 2034 2216 
z
M 1403 2484 
Q 997 2584 770 2862 
Q 544 3141 544 3541 
Q 544 4100 942 4425 
Q 1341 4750 2034 4750 
Q 2731 4750 3128 4425 
Q 3525 4100 3525 3541 
Q 3525 3141 3298 2862 
Q 3072 2584 2669 2484 
Q 3125 2378 3379 2068 
Q 3634 1759 3634 1313 
Q 3634 634 3220 271 
Q 2806 -91 2034 -91 
Q 1263 -91 848 271 
Q 434 634 434 1313 
Q 434 1759 690 2068 
Q 947 2378 1403 2484 
z
M 1172 3481 
Q 1172 3119 1398 2916 
Q 1625 2713 2034 2713 
Q 2441 2713 2670 2916 
Q 2900 3119 2900 3481 
Q 2900 3844 2670 4047 
Q 2441 4250 2034 4250 
Q 1625 4250 1398 4047 
Q 1172 3844 1172 3481 
z
" id="DejaVuSans-38" transform="scale(0.015625)"/>
       </defs>
       <use xlink:href="#DejaVuSans-2212"/>
       <use x="83.789062" xlink:href="#DejaVuSans-31"/>
       <use x="147.412109" xlink:href="#DejaVuSans-30"/>
       <use x="211.035156" xlink:href="#DejaVuSans-38"/>
       <use x="274.658203" xlink:href="#DejaVuSans-35"/>
       <use x="338.28125" xlink:href="#DejaVuSans-30"/>
      </g>
     </g>
    </g>
    <g id="text_19">
     <!-- Cumulative Reward -->
     <g transform="translate(4.328125 223.275656)rotate(-90)scale(0.1 -0.1)">
      <defs>
       <path d="M 4122 4306 
L 4122 3641 
Q 3803 3938 3442 4084 
Q 3081 4231 2675 4231 
Q 1875 4231 1450 3742 
Q 1025 3253 1025 2328 
Q 1025 1406 1450 917 
Q 1875 428 2675 428 
Q 3081 428 3442 575 
Q 3803 722 4122 1019 
L 4122 359 
Q 3791 134 3420 21 
Q 3050 -91 2638 -91 
Q 1578 -91 968 557 
Q 359 1206 359 2328 
Q 359 3453 968 4101 
Q 1578 4750 2638 4750 
Q 3056 4750 3426 4639 
Q 3797 4528 4122 4306 
z
" id="DejaVuSans-43" transform="scale(0.015625)"/>
       <path d="M 544 1381 
L 544 3500 
L 1119 3500 
L 1119 1403 
Q 1119 906 1312 657 
Q 1506 409 1894 409 
Q 2359 409 2629 706 
Q 2900 1003 2900 1516 
L 2900 3500 
L 3475 3500 
L 3475 0 
L 2900 0 
L 2900 538 
Q 2691 219 2414 64 
Q 2138 -91 1772 -91 
Q 1169 -91 856 284 
Q 544 659 544 1381 
z
M 1991 3584 
L 1991 3584 
z
" id="DejaVuSans-75" transform="scale(0.015625)"/>
       <path d="M 3328 2828 
Q 3544 3216 3844 3400 
Q 4144 3584 4550 3584 
Q 5097 3584 5394 3201 
Q 5691 2819 5691 2113 
L 5691 0 
L 5113 0 
L 5113 2094 
Q 5113 2597 4934 2840 
Q 4756 3084 4391 3084 
Q 3944 3084 3684 2787 
Q 3425 2491 3425 1978 
L 3425 0 
L 2847 0 
L 2847 2094 
Q 2847 2600 2669 2842 
Q 2491 3084 2119 3084 
Q 1678 3084 1418 2786 
Q 1159 2488 1159 1978 
L 1159 0 
L 581 0 
L 581 3500 
L 1159 3500 
L 1159 2956 
Q 1356 3278 1631 3431 
Q 1906 3584 2284 3584 
Q 2666 3584 2933 3390 
Q 3200 3197 3328 2828 
z
" id="DejaVuSans-6d" transform="scale(0.015625)"/>
       <path d="M 603 4863 
L 1178 4863 
L 1178 0 
L 603 0 
L 603 4863 
z
" id="DejaVuSans-6c" transform="scale(0.015625)"/>
       <path d="M 2194 1759 
Q 1497 1759 1228 1600 
Q 959 1441 959 1056 
Q 959 750 1161 570 
Q 1363 391 1709 391 
Q 2188 391 2477 730 
Q 2766 1069 2766 1631 
L 2766 1759 
L 2194 1759 
z
M 3341 1997 
L 3341 0 
L 2766 0 
L 2766 531 
Q 2569 213 2275 61 
Q 1981 -91 1556 -91 
Q 1019 -91 701 211 
Q 384 513 384 1019 
Q 384 1609 779 1909 
Q 1175 2209 1959 2209 
L 2766 2209 
L 2766 2266 
Q 2766 2663 2505 2880 
Q 2244 3097 1772 3097 
Q 1472 3097 1187 3025 
Q 903 2953 641 2809 
L 641 3341 
Q 956 3463 1253 3523 
Q 1550 3584 1831 3584 
Q 2591 3584 2966 3190 
Q 3341 2797 3341 1997 
z
" id="DejaVuSans-61" transform="scale(0.015625)"/>
       <path d="M 1172 4494 
L 1172 3500 
L 2356 3500 
L 2356 3053 
L 1172 3053 
L 1172 1153 
Q 1172 725 1289 603 
Q 1406 481 1766 481 
L 2356 481 
L 2356 0 
L 1766 0 
Q 1100 0 847 248 
Q 594 497 594 1153 
L 594 3053 
L 172 3053 
L 172 3500 
L 594 3500 
L 594 4494 
L 1172 4494 
z
" id="DejaVuSans-74" transform="scale(0.015625)"/>
       <path d="M 191 3500 
L 800 3500 
L 1894 563 
L 2988 3500 
L 3597 3500 
L 2284 0 
L 1503 0 
L 191 3500 
z
" id="DejaVuSans-76" transform="scale(0.015625)"/>
       <path id="DejaVuSans-20" transform="scale(0.015625)"/>
       <path d="M 2841 2188 
Q 3044 2119 3236 1894 
Q 3428 1669 3622 1275 
L 4263 0 
L 3584 0 
L 2988 1197 
Q 2756 1666 2539 1819 
Q 2322 1972 1947 1972 
L 1259 1972 
L 1259 0 
L 628 0 
L 628 4666 
L 2053 4666 
Q 2853 4666 3247 4331 
Q 3641 3997 3641 3322 
Q 3641 2881 3436 2590 
Q 3231 2300 2841 2188 
z
M 1259 4147 
L 1259 2491 
L 2053 2491 
Q 2509 2491 2742 2702 
Q 2975 2913 2975 3322 
Q 2975 3731 2742 3939 
Q 2509 4147 2053 4147 
L 1259 4147 
z
" id="DejaVuSans-52" transform="scale(0.015625)"/>
       <path d="M 269 3500 
L 844 3500 
L 1563 769 
L 2278 3500 
L 2956 3500 
L 3675 769 
L 4391 3500 
L 4966 3500 
L 4050 0 
L 3372 0 
L 2619 2869 
L 1863 0 
L 1184 0 
L 269 3500 
z
" id="DejaVuSans-77" transform="scale(0.015625)"/>
       <path d="M 2631 2963 
Q 2534 3019 2420 3045 
Q 2306 3072 2169 3072 
Q 1681 3072 1420 2755 
Q 1159 2438 1159 1844 
L 1159 0 
L 581 0 
L 581 3500 
L 1159 3500 
L 1159 2956 
Q 1341 3275 1631 3429 
Q 1922 3584 2338 3584 
Q 2397 3584 2469 3576 
Q 2541 3569 2628 3553 
L 2631 2963 
z
" id="DejaVuSans-72" transform="scale(0.015625)"/>
      </defs>
      <use xlink:href="#DejaVuSans-43"/>
      <use x="69.824219" xlink:href="#DejaVuSans-75"/>
      <use x="133.203125" xlink:href="#DejaVuSans-6d"/>
      <use x="230.615234" xlink:href="#DejaVuSans-75"/>
      <use x="293.994141" xlink:href="#DejaVuSans-6c"/>
      <use x="321.777344" xlink:href="#DejaVuSans-61"/>
      <use x="383.056641" xlink:href="#DejaVuSans-74"/>
      <use x="422.265625" xlink:href="#DejaVuSans-69"/>
      <use x="450.048828" xlink:href="#DejaVuSans-76"/>
      <use x="509.228516" xlink:href="#DejaVuSans-65"/>
      <use x="570.751953" xlink:href="#DejaVuSans-20"/>
      <use x="602.539062" xlink:href="#DejaVuSans-52"/>
      <use x="667.521484" xlink:href="#DejaVuSans-65"/>
      <use x="729.044922" xlink:href="#DejaVuSans-77"/>
      <use x="810.832031" xlink:href="#DejaVuSans-61"/>
      <use x="872.111328" xlink:href="#DejaVuSans-72"/>
      <use x="911.474609" xlink:href="#DejaVuSans-64"/>
     </g>
    </g>
   </g>
   <g id="line2d_35">
    <path clip-path="url(#pef27f9f218)" d="M 57.6 182.600028 
L 57.77856 200.655728 
L 57.95712 110.385733 
L 58.13568 184.378852 
L 58.31424 182.600028 
L 58.4928 200.655728 
L 58.67136 110.385733 
L 58.84992 184.378852 
L 59.02848 182.600028 
L 59.20704 200.655728 
L 59.3856 110.385733 
L 59.56416 184.378852 
L 59.74272 182.600028 
L 59.92128 200.655728 
L 60.09984 110.385733 
L 60.2784 184.378852 
L 60.45696 182.600028 
L 60.63552 200.655728 
L 60.81408 110.385733 
L 60.99264 184.378852 
L 61.1712 182.600028 
L 61.34976 200.655728 
L 61.52832 110.385733 
L 61.70688 184.378852 
L 61.88544 182.600028 
L 62.064 200.655728 
L 62.24256 110.385733 
L 62.42112 184.378852 
L 62.59968 182.600028 
L 62.77824 200.655728 
L 62.9568 110.385733 
L 63.13536 184.378852 
L 63.31392 182.600028 
L 63.49248 200.655728 
L 63.67104 110.385733 
L 63.8496 184.378852 
L 64.02816 182.600028 
L 64.20672 200.655728 
L 64.38528 110.385733 
L 64.56384 184.378852 
L 64.7424 182.600028 
L 64.92096 200.655728 
L 65.09952 110.385733 
L 65.27808 184.378852 
L 65.45664 182.600028 
L 65.6352 200.655728 
L 65.81376 110.385733 
L 65.99232 184.378852 
L 66.17088 182.600028 
L 66.34944 200.655728 
L 66.528 110.385733 
L 66.70656 184.378852 
L 66.88512 182.600028 
L 67.06368 200.655728 
L 67.24224 110.385733 
L 67.4208 184.378852 
L 67.59936 182.600028 
L 67.77792 200.655728 
L 67.95648 110.385733 
L 68.13504 184.378852 
L 68.3136 182.600028 
L 68.49216 200.655728 
L 68.67072 110.385733 
L 68.84928 184.378852 
L 69.02784 182.600028 
L 69.2064 200.655728 
L 69.38496 110.385733 
L 69.56352 184.378852 
L 69.74208 182.600028 
L 69.92064 200.655728 
L 70.0992 110.385733 
L 70.27776 184.378852 
L 70.45632 182.600028 
L 70.63488 200.655728 
L 70.81344 110.385733 
L 70.992 184.378852 
L 71.17056 182.600028 
L 71.34912 200.655728 
L 71.52768 110.385733 
L 71.70624 184.378852 
L 71.8848 182.600028 
L 72.06336 200.655728 
L 72.24192 110.385733 
L 72.42048 184.378852 
L 72.59904 182.600028 
L 72.7776 200.655728 
L 72.95616 110.385733 
L 73.13472 184.378852 
L 73.31328 182.600028 
L 73.49184 200.655728 
L 73.6704 110.385733 
L 73.84896 184.378852 
L 74.02752 182.600028 
L 74.20608 200.655728 
L 74.38464 110.385733 
L 74.5632 184.378852 
L 74.74176 182.600028 
L 74.92032 200.655728 
L 75.09888 110.385733 
L 75.27744 184.378852 
L 75.456 188.761644 
L 75.63456 180.511786 
L 75.99168 132.486641 
L 76.17024 168.052073 
L 76.3488 122.496805 
L 76.52736 191.561301 
L 76.70592 150.757498 
L 76.88448 173.119032 
L 77.06304 134.366329 
L 77.2416 199.452367 
L 77.42016 150.183704 
L 77.59872 165.054688 
L 77.77728 164.694858 
L 77.95584 128.600004 
L 78.1344 143.116168 
L 78.31296 175.430796 
L 78.49152 122.190154 
L 78.84864 168.082467 
L 79.0272 144.561295 
L 79.20576 142.074527 
L 79.38432 151.324082 
L 79.56288 135.743511 
L 79.74144 130.197991 
L 79.92 119.53985 
L 80.09856 138.831056 
L 80.27712 208.846146 
L 80.45568 145.006478 
L 80.63424 179.874386 
L 80.8128 130.788354 
L 81.16992 167.624696 
L 81.34848 142.778987 
L 81.52704 161.098145 
L 81.7056 143.291205 
L 81.88416 151.930063 
L 82.06272 169.153824 
L 82.24128 131.428519 
L 82.41984 184.245847 
L 82.5984 171.004674 
L 82.95552 232.527522 
L 83.13408 161.654379 
L 83.31264 162.79677 
L 83.66976 112.8233 
L 83.84832 129.204877 
L 84.02688 189.407026 
L 84.20544 163.617176 
L 84.384 154.802208 
L 84.56256 171.948958 
L 84.74112 115.138569 
L 84.91968 187.139907 
L 85.09824 178.917434 
L 85.2768 186.290936 
L 85.45536 170.861845 
L 85.63392 172.712553 
L 85.81248 154.491884 
L 85.99104 154.287717 
L 86.1696 183.924794 
L 86.34816 174.294368 
L 86.52672 139.72881 
L 86.70528 197.847423 
L 86.88384 211.975191 
L 87.0624 135.69823 
L 87.24096 167.343983 
L 87.41952 179.154448 
L 87.59808 140.330528 
L 87.77664 201.432113 
L 88.13376 140.996999 
L 88.31232 155.386565 
L 88.49088 148.680064 
L 88.66944 161.269255 
L 88.848 143.411457 
L 89.02656 156.804338 
L 89.20512 144.901113 
L 89.38368 124.058949 
L 89.7408 245.415381 
L 89.91936 155.004268 
L 90.09792 219.339168 
L 90.27648 149.593656 
L 90.45504 204.203963 
L 90.6336 155.356924 
L 90.81216 178.578693 
L 90.99072 246.899916 
L 91.16928 176.30564 
L 91.34784 183.251482 
L 91.5264 142.940799 
L 91.70496 146.467673 
L 91.88352 158.538143 
L 92.06208 135.693537 
L 92.24064 137.941657 
L 92.4192 136.150082 
L 92.59776 208.146029 
L 92.77632 136.521467 
L 93.13344 236.616597 
L 93.312 163.728061 
L 93.66912 116.879777 
L 93.84768 189.258841 
L 94.02624 208.959115 
L 94.2048 138.837693 
L 94.38336 192.355162 
L 94.56192 184.482381 
L 94.74048 220.522286 
L 95.0976 186.253796 
L 95.27616 143.267847 
L 95.63328 201.963174 
L 95.81184 198.712269 
L 95.9904 149.06265 
L 96.16896 185.674904 
L 96.34752 150.916561 
L 96.52608 197.928191 
L 96.70464 157.30723 
L 96.8832 158.997514 
L 97.24032 190.176987 
L 97.41888 193.08991 
L 97.59744 149.60619 
L 97.776 189.215627 
L 97.95456 153.801573 
L 98.13312 190.163841 
L 98.31168 184.413924 
L 98.49024 168.057053 
L 98.6688 137.472173 
L 98.84736 199.143962 
L 99.20448 147.989623 
L 99.38304 230.542696 
L 99.5616 135.826769 
L 99.74016 133.353782 
L 99.91872 136.329461 
L 100.09728 168.020975 
L 100.27584 163.674393 
L 100.4544 164.637442 
L 100.63296 188.367483 
L 100.81152 131.737532 
L 100.99008 153.360117 
L 101.16864 161.432711 
L 101.3472 153.469015 
L 101.52576 140.332063 
L 101.70432 162.468144 
L 101.88288 167.762398 
L 102.06144 159.489169 
L 102.24 182.986648 
L 102.59712 256.313283 
L 102.77568 186.116778 
L 102.95424 205.057628 
L 103.1328 185.82099 
L 103.31136 265.728186 
L 103.48992 180.510145 
L 103.66848 200.842865 
L 103.84704 195.970799 
L 104.0256 150.856362 
L 104.20416 221.634262 
L 104.38272 146.870764 
L 104.56128 215.509954 
L 104.73984 147.446217 
L 104.9184 151.303586 
L 105.09696 224.313958 
L 105.27552 150.151109 
L 105.63264 176.9896 
L 105.8112 226.821285 
L 105.98976 168.932025 
L 106.16832 211.954534 
L 106.34688 147.8651 
L 106.52544 151.27512 
L 106.88256 215.749248 
L 107.06112 147.183086 
L 107.23968 129.319987 
L 107.5968 215.835174 
L 107.77536 132.890091 
L 107.95392 134.852189 
L 108.13248 155.247305 
L 108.31104 229.354245 
L 108.4896 201.596663 
L 108.66816 203.368497 
L 108.84672 173.35474 
L 109.20384 162.986043 
L 109.3824 160.146336 
L 109.56096 184.225764 
L 109.73952 157.319526 
L 110.09664 170.465213 
L 110.2752 190.169695 
L 110.45376 193.176595 
L 110.63232 157.611 
L 110.98944 217.136537 
L 111.34656 130.981776 
L 111.52512 211.902766 
L 111.70368 210.58458 
L 111.88224 157.217169 
L 112.0608 178.715041 
L 112.23936 243.143298 
L 112.59648 151.651922 
L 112.77504 218.943448 
L 113.13216 178.575054 
L 113.31072 109.612378 
L 113.48928 285.408 
L 113.8464 165.384289 
L 114.02496 217.54902 
L 114.38208 145.261368 
L 114.56064 189.971464 
L 114.7392 177.203307 
L 114.91776 199.150043 
L 115.09632 203.447437 
L 115.27488 158.672412 
L 115.45344 150.468137 
L 115.632 158.454031 
L 115.81056 174.002662 
L 115.98912 208.494014 
L 116.16768 148.444669 
L 116.34624 149.940257 
L 116.5248 184.112916 
L 116.70336 123.021219 
L 116.88192 192.01151 
L 117.06048 151.15104 
L 117.23904 201.31092 
L 117.59616 149.986138 
L 117.77472 174.872849 
L 117.95328 139.247193 
L 118.13184 193.279331 
L 118.3104 150.273343 
L 118.48896 140.65825 
L 118.66752 166.525253 
L 118.84608 150.55763 
L 119.2032 210.192538 
L 119.38176 178.480275 
L 119.56032 193.657427 
L 119.73888 173.584194 
L 119.91744 136.700635 
L 120.096 215.041916 
L 120.27456 128.280154 
L 120.45312 195.050521 
L 120.63168 154.884769 
L 120.81024 146.985253 
L 120.9888 110.224372 
L 121.16736 164.156645 
L 121.34592 146.163085 
L 121.52448 180.407107 
L 121.70304 190.90049 
L 121.8816 179.639675 
L 122.06016 188.721786 
L 122.23872 144.400372 
L 122.41728 172.073665 
L 122.59584 106.416553 
L 123.13152 170.357987 
L 123.31008 126.472943 
L 123.6672 167.163466 
L 123.84576 139.286479 
L 124.02432 161.636639 
L 124.20288 112.573181 
L 124.38144 163.654231 
L 124.56 172.125575 
L 124.73856 202.299314 
L 125.09568 89.324306 
L 125.27424 166.674873 
L 125.63136 177.216269 
L 126.16704 131.341844 
L 126.3456 171.852915 
L 126.52416 169.74973 
L 126.70272 139.090644 
L 126.88128 148.467082 
L 127.05984 186.755598 
L 127.2384 151.498064 
L 127.41696 179.658166 
L 127.59552 133.070509 
L 127.77408 172.532329 
L 127.95264 95.758735 
L 128.30976 185.144161 
L 128.48832 149.431563 
L 128.66688 137.659827 
L 128.84544 140.900295 
L 129.024 99.237958 
L 129.20256 179.671348 
L 129.38112 127.762245 
L 129.55968 150.601245 
L 129.73824 145.453593 
L 129.9168 178.156964 
L 130.09536 187.201009 
L 130.27392 167.146302 
L 130.45248 170.044148 
L 130.63104 148.408925 
L 131.16672 199.770422 
L 131.34528 187.655552 
L 131.52384 149.344371 
L 131.7024 164.078983 
L 131.88096 233.215407 
L 132.05952 217.441217 
L 132.41664 154.034269 
L 132.5952 157.72562 
L 132.95232 224.374789 
L 133.30944 173.92751 
L 133.488 201.795952 
L 133.66656 155.806226 
L 133.84512 150.720367 
L 134.02368 152.99826 
L 134.20224 144.561117 
L 134.3808 151.699519 
L 134.55936 177.386121 
L 134.73792 177.728802 
L 135.09504 109.934649 
L 135.2736 163.198283 
L 135.45216 164.958435 
L 135.63072 184.805103 
L 135.80928 185.168418 
L 136.1664 117.059859 
L 136.34496 212.51637 
L 136.70208 145.833794 
L 136.88064 157.025041 
L 137.0592 188.71191 
L 137.41632 145.025122 
L 137.59488 174.556741 
L 137.77344 176.300426 
L 137.952 183.251094 
L 138.13056 134.192436 
L 138.30912 135.195185 
L 138.48768 137.381608 
L 138.66624 223.164028 
L 138.8448 154.853736 
L 139.02336 187.555318 
L 139.20192 186.042623 
L 139.38048 144.022358 
L 139.55904 147.813984 
L 139.7376 191.708305 
L 139.91616 144.72205 
L 140.09472 177.095868 
L 140.27328 166.821289 
L 140.45184 141.247415 
L 140.80896 165.189554 
L 141.16608 126.846593 
L 141.34464 153.658123 
L 141.5232 214.831983 
L 141.70176 208.136512 
L 141.88032 218.648351 
L 142.05888 173.307094 
L 142.23744 209.815597 
L 142.416 201.090243 
L 142.59456 119.512139 
L 142.77312 175.723261 
L 142.95168 170.457888 
L 143.3088 175.832982 
L 143.48736 178.607181 
L 143.66592 239.948142 
L 143.84448 160.849099 
L 144.02304 184.787245 
L 144.2016 228.302558 
L 144.38016 158.23165 
L 144.55872 162.787625 
L 144.73728 191.626204 
L 144.91584 179.5541 
L 145.0944 176.195606 
L 145.27296 269.399487 
L 145.45152 169.79867 
L 145.63008 167.345131 
L 145.80864 136.788615 
L 145.9872 145.124723 
L 146.16576 127.252724 
L 146.52288 236.273659 
L 146.70144 179.913867 
L 146.88 164.064573 
L 147.05856 158.26647 
L 147.23712 164.810634 
L 147.41568 183.953788 
L 147.59424 182.132043 
L 147.7728 131.902084 
L 147.95136 126.907409 
L 148.30848 196.687 
L 148.48704 177.537718 
L 148.6656 142.400122 
L 148.84416 194.965653 
L 149.02272 185.888824 
L 149.20128 129.760583 
L 149.37984 148.450436 
L 149.73696 223.683577 
L 149.91552 128.785069 
L 150.09408 123.678845 
L 150.27264 182.465591 
L 150.62976 132.911767 
L 150.80832 133.043569 
L 150.98688 217.129713 
L 151.16544 229.696267 
L 151.344 129.448283 
L 151.52256 145.809726 
L 151.70112 147.829634 
L 152.05824 253.973853 
L 152.2368 157.877015 
L 152.41536 156.151038 
L 152.59392 185.871327 
L 152.77248 161.295248 
L 152.95104 186.459547 
L 153.1296 147.013518 
L 153.30816 151.070583 
L 153.48672 162.275296 
L 153.66528 182.984671 
L 153.84384 187.668036 
L 154.0224 229.057918 
L 154.20096 109.142887 
L 154.55808 168.406403 
L 154.73664 185.57797 
L 154.9152 181.143038 
L 155.09376 185.929526 
L 155.27232 156.818117 
L 155.45088 205.687034 
L 155.62944 161.105018 
L 155.808 147.619284 
L 156.34368 190.497101 
L 156.52224 161.493696 
L 156.87936 199.535079 
L 157.05792 179.323501 
L 157.23648 235.780345 
L 157.41504 190.065399 
L 157.5936 250.601921 
L 157.77216 146.919889 
L 157.95072 142.402605 
L 158.12928 234.024546 
L 158.30784 173.106857 
L 158.4864 186.096384 
L 158.66496 133.600464 
L 158.84352 152.553669 
L 159.02208 144.690608 
L 159.20064 198.63251 
L 159.3792 153.008912 
L 159.55776 151.663646 
L 159.73632 142.485893 
L 160.272 237.235518 
L 160.45056 152.064472 
L 160.80768 189.815719 
L 160.98624 203.647045 
L 161.1648 164.713141 
L 161.34336 169.92703 
L 161.52192 193.915058 
L 161.70048 187.325782 
L 161.87904 215.894705 
L 162.23616 120.946104 
L 162.59328 194.28101 
L 162.77184 155.112253 
L 162.9504 146.154736 
L 163.12896 174.683727 
L 163.30752 142.222105 
L 163.66464 176.407248 
L 163.8432 222.905434 
L 164.02176 208.597558 
L 164.20032 135.75872 
L 164.37888 135.213573 
L 164.55744 157.145395 
L 164.736 136.474329 
L 164.91456 210.295556 
L 165.09312 168.393139 
L 165.27168 196.93525 
L 165.45024 153.030769 
L 165.6288 243.464007 
L 165.80736 159.99285 
L 165.98592 196.388177 
L 166.16448 170.227979 
L 166.34304 170.045739 
L 166.70016 144.348193 
L 166.87872 198.139495 
L 167.05728 174.976683 
L 167.23584 213.120284 
L 167.4144 214.177923 
L 167.77152 164.342001 
L 167.95008 148.119625 
L 168.12864 114.574581 
L 168.3072 184.497858 
L 168.48576 113.697101 
L 168.84288 194.026516 
L 169.02144 154.927353 
L 169.2 155.309825 
L 169.37856 138.062841 
L 169.73568 228.069635 
L 169.91424 145.207321 
L 170.0928 175.701379 
L 170.44992 123.783092 
L 170.62848 192.024732 
L 170.80704 137.536767 
L 170.9856 183.79519 
L 171.16416 157.135542 
L 171.34272 149.770355 
L 171.52128 179.643269 
L 171.69984 153.691027 
L 171.8784 261.801896 
L 172.05696 161.760566 
L 172.23552 167.555368 
L 172.41408 211.034219 
L 172.59264 181.183773 
L 172.7712 237.471614 
L 172.94976 209.579963 
L 173.12832 282.582873 
L 173.30688 177.939049 
L 173.48544 178.758557 
L 173.664 169.627224 
L 173.84256 189.591476 
L 174.02112 249.266652 
L 174.19968 195.765166 
L 174.37824 222.14372 
L 174.5568 136.085895 
L 174.73536 209.610032 
L 174.91392 184.050001 
L 175.09248 203.798293 
L 175.27104 169.982072 
L 175.62816 191.107592 
L 175.80672 236.049541 
L 175.98528 204.737874 
L 176.16384 234.527408 
L 176.52096 126.127607 
L 176.69952 219.686259 
L 176.87808 231.534467 
L 177.05664 160.648025 
L 177.2352 149.288465 
L 177.41376 170.422254 
L 177.59232 154.112576 
L 177.94944 243.322427 
L 178.128 241.903257 
L 178.30656 156.159496 
L 178.48512 205.892999 
L 178.66368 176.571048 
L 178.84224 253.586169 
L 179.0208 168.827633 
L 179.19936 163.821074 
L 179.37792 148.926138 
L 179.73504 175.645279 
L 179.9136 179.571482 
L 180.09216 263.747112 
L 180.44928 187.164135 
L 180.62784 212.057751 
L 180.8064 200.767317 
L 180.98496 202.010545 
L 181.16352 217.070122 
L 181.34208 152.297337 
L 181.52064 182.069768 
L 181.6992 147.207046 
L 181.87776 165.980188 
L 182.05632 215.183254 
L 182.23488 176.331356 
L 182.41344 178.333435 
L 182.77056 209.704396 
L 182.94912 173.075655 
L 183.12768 186.508603 
L 183.30624 143.428612 
L 183.4848 189.537676 
L 183.66336 146.694922 
L 183.84192 208.651876 
L 184.19904 134.423565 
L 184.3776 169.012387 
L 184.73472 144.574749 
L 184.91328 206.732401 
L 185.44896 179.328256 
L 185.62752 136.059667 
L 185.80608 122.451007 
L 185.98464 169.477845 
L 186.1632 144.730181 
L 186.34176 201.21964 
L 186.52032 183.763831 
L 186.69888 180.175025 
L 186.87744 140.619816 
L 187.056 190.20517 
L 187.23456 161.60242 
L 187.41312 173.600463 
L 187.59168 163.839732 
L 187.77024 201.981745 
L 187.9488 174.714744 
L 188.12736 188.980587 
L 188.30592 167.393238 
L 188.48448 181.873696 
L 188.66304 114.831135 
L 188.8416 268.347353 
L 189.02016 144.169758 
L 189.19872 186.69654 
L 189.37728 163.281031 
L 189.55584 210.263163 
L 189.91296 141.983236 
L 190.09152 174.478271 
L 190.27008 122.966535 
L 190.44864 240.108952 
L 190.6272 161.188434 
L 190.80576 228.358418 
L 190.98432 147.971723 
L 191.16288 183.219667 
L 191.34144 181.287049 
L 191.52 204.907102 
L 191.69856 213.422583 
L 191.87712 180.836231 
L 192.05568 234.381097 
L 192.4128 166.720288 
L 192.59136 196.980057 
L 193.12704 147.365039 
L 193.48416 178.995095 
L 193.66272 111.548069 
L 193.84128 152.623132 
L 194.01984 167.208067 
L 194.1984 127.973356 
L 194.55552 173.274098 
L 194.73408 148.159792 
L 194.91264 154.28616 
L 195.0912 155.813612 
L 195.26976 166.87518 
L 195.44832 152.779418 
L 195.62688 195.930085 
L 195.80544 148.321327 
L 195.984 147.698706 
L 196.34112 211.719022 
L 196.51968 155.654704 
L 196.69824 158.53188 
L 197.05536 232.23482 
L 197.41248 124.349608 
L 197.59104 217.001743 
L 197.7696 155.34306 
L 198.30528 214.05219 
L 198.48384 154.517297 
L 198.6624 152.406943 
L 198.84096 160.122392 
L 199.01952 187.074044 
L 199.19808 127.425069 
L 199.37664 155.408989 
L 199.5552 128.999834 
L 199.91232 185.303382 
L 200.26944 141.814435 
L 200.448 167.789666 
L 200.62656 171.414549 
L 200.80512 206.286325 
L 200.98368 134.743447 
L 201.16224 172.291489 
L 201.3408 167.087694 
L 201.51936 192.737351 
L 201.87648 93.798527 
L 202.05504 215.876543 
L 202.41216 137.788282 
L 202.76928 222.959829 
L 203.1264 152.025613 
L 203.48352 130.240131 
L 203.66208 206.094365 
L 203.84064 229.550184 
L 204.0192 137.54282 
L 204.37632 200.069761 
L 204.55488 216.300612 
L 204.73344 141.050577 
L 204.912 198.752289 
L 205.09056 178.990376 
L 205.26912 201.483094 
L 205.44768 156.623588 
L 205.62624 191.119159 
L 205.8048 185.993189 
L 205.98336 120.384723 
L 206.16192 224.637942 
L 206.51904 123.509747 
L 206.6976 122.107885 
L 206.87616 131.939182 
L 207.05472 148.541536 
L 207.23328 135.868009 
L 207.41184 176.54744 
L 207.5904 151.482109 
L 207.76896 152.234361 
L 207.94752 144.374012 
L 208.30464 169.543933 
L 208.4832 153.324573 
L 208.66176 207.517632 
L 208.84032 195.512301 
L 209.01888 135.450348 
L 209.19744 170.814572 
L 209.376 144.375641 
L 209.55456 181.556447 
L 210.09024 124.564489 
L 210.2688 126.87775 
L 210.44736 185.824846 
L 210.62592 167.569224 
L 210.80448 120.614964 
L 210.98304 142.813678 
L 211.1616 133.630612 
L 211.34016 141.087759 
L 211.51872 129.019931 
L 211.69728 139.321826 
L 211.87584 171.060843 
L 212.0544 146.360051 
L 212.23296 157.380839 
L 212.41152 143.838891 
L 212.76864 196.065184 
L 213.12576 127.1476 
L 213.30432 180.910057 
L 213.48288 86.812544 
L 213.66144 131.902738 
L 213.84 132.762076 
L 214.01856 149.043813 
L 214.19712 106.401202 
L 214.37568 149.583777 
L 214.55424 140.944018 
L 214.7328 162.856263 
L 214.91136 156.645958 
L 215.08992 133.549626 
L 215.26848 192.009877 
L 215.44704 80.930187 
L 215.80416 174.987706 
L 215.98272 109.539348 
L 216.16128 107.152584 
L 216.33984 135.418017 
L 216.5184 119.374594 
L 216.69696 145.481349 
L 216.87552 119.21217 
L 217.05408 134.716235 
L 217.23264 131.333055 
L 217.4112 95.731776 
L 217.58976 108.435649 
L 217.76832 131.807315 
L 217.94688 127.828103 
L 218.12544 149.401592 
L 218.304 124.280038 
L 218.48256 127.687333 
L 218.66112 110.125188 
L 218.83968 127.904108 
L 219.01824 89.301339 
L 219.1968 103.709391 
L 219.37536 153.49902 
L 219.55392 121.021062 
L 219.73248 179.93396 
L 220.26816 98.214724 
L 220.44672 148.783592 
L 220.62528 116.230947 
L 220.80384 117.554524 
L 221.16096 112.771308 
L 221.33952 141.691739 
L 221.51808 140.88475 
L 221.69664 109.193394 
L 221.8752 145.584714 
L 222.05376 158.459171 
L 222.23232 124.105932 
L 222.41088 142.310791 
L 222.58944 120.604604 
L 222.768 112.980778 
L 222.94656 117.476478 
L 223.12512 134.981095 
L 223.30368 111.757791 
L 223.48224 108.201403 
L 223.6608 95.791931 
L 224.01792 148.127125 
L 224.19648 93.161003 
L 224.37504 98.188789 
L 224.5536 113.760794 
L 224.73216 145.834614 
L 224.91072 129.699586 
L 225.08928 152.371221 
L 225.26784 119.957962 
L 225.4464 113.655342 
L 225.80352 143.828193 
L 225.98208 138.898197 
L 226.16064 104.832647 
L 226.3392 119.309186 
L 226.51776 115.455298 
L 226.69632 108.282652 
L 226.87488 168.807245 
L 227.05344 128.960825 
L 227.232 154.699216 
L 227.41056 116.827472 
L 227.58912 137.624032 
L 227.76768 108.293129 
L 227.94624 155.459009 
L 228.1248 120.456018 
L 228.30336 116.841933 
L 228.48192 121.056262 
L 228.66048 99.417992 
L 228.83904 91.967974 
L 229.0176 114.413036 
L 229.19616 109.649325 
L 229.37472 110.774268 
L 229.55328 92.964464 
L 229.73184 154.995388 
L 229.9104 150.330721 
L 230.08896 111.488655 
L 230.26752 118.900711 
L 230.44608 102.972232 
L 230.8032 123.222276 
L 231.16032 91.073774 
L 231.33888 123.124901 
L 231.51744 122.243136 
L 231.696 81.742913 
L 231.87456 137.502462 
L 232.05312 110.338425 
L 232.23168 130.372958 
L 232.41024 133.357231 
L 232.5888 112.66196 
L 232.76736 113.906164 
L 232.94592 97.177798 
L 233.12448 117.506267 
L 233.30304 123.066174 
L 233.4816 114.37956 
L 233.66016 95.140102 
L 233.83872 99.211674 
L 234.01728 121.234788 
L 234.19584 102.428475 
L 234.3744 109.436599 
L 234.55296 91.287283 
L 234.73152 128.429399 
L 234.91008 89.313114 
L 235.2672 103.805291 
L 235.44576 69.752271 
L 235.62432 110.207839 
L 235.80288 73.238855 
L 236.16 136.549557 
L 236.33856 110.826599 
L 236.51712 118.632994 
L 236.69568 92.20551 
L 236.87424 114.225441 
L 237.0528 94.07569 
L 237.23136 88.908581 
L 237.40992 112.806697 
L 237.58848 108.721018 
L 237.76704 89.691914 
L 237.9456 97.299729 
L 238.12416 96.706723 
L 238.30272 98.74021 
L 238.48128 105.124792 
L 238.65984 92.754398 
L 238.8384 102.65053 
L 239.01696 95.804526 
L 239.19552 129.04642 
L 239.37408 114.901713 
L 239.55264 135.958107 
L 239.7312 90.590877 
L 239.90976 95.299833 
L 240.08832 105.910815 
L 240.26688 108.953278 
L 240.624 87.35294 
L 240.80256 90.831633 
L 240.98112 99.434505 
L 241.15968 117.52697 
L 241.33824 91.218898 
L 241.5168 111.410353 
L 241.69536 107.896467 
L 241.87392 144.12616 
L 242.05248 120.911173 
L 242.23104 81.863059 
L 242.58816 114.614179 
L 242.76672 109.990202 
L 242.94528 122.864321 
L 243.12384 118.979684 
L 243.3024 83.44173 
L 243.65952 97.563147 
L 243.83808 132.528716 
L 244.01664 63.648 
L 244.1952 99.341656 
L 244.37376 102.987656 
L 244.55232 80.606043 
L 244.73088 105.139289 
L 244.90944 101.227246 
L 245.088 90.276491 
L 245.26656 103.562226 
L 245.44512 71.475695 
L 245.62368 71.802669 
L 245.80224 88.989202 
L 245.9808 80.587669 
L 246.15936 85.874145 
L 246.33792 96.840597 
L 246.51648 122.933898 
L 246.69504 76.590293 
L 246.8736 124.803843 
L 247.23072 93.80669 
L 247.40928 97.8213 
L 247.58784 83.694138 
L 247.94496 110.560975 
L 248.30208 73.919331 
L 248.48064 112.149417 
L 248.6592 103.301588 
L 248.83776 135.234578 
L 249.01632 99.186817 
L 249.19488 124.14573 
L 249.37344 120.184808 
L 249.552 123.472769 
L 249.90912 86.587556 
L 250.08768 92.538675 
L 250.26624 115.874873 
L 250.4448 84.239184 
L 250.62336 113.342382 
L 250.80192 101.341433 
L 250.98048 107.855106 
L 251.15904 97.07804 
L 251.3376 136.473278 
L 251.51616 74.030303 
L 251.87328 139.728017 
L 252.2304 88.848367 
L 252.40896 93.601832 
L 252.58752 137.098358 
L 252.76608 125.175872 
L 252.94464 102.834067 
L 253.1232 133.486163 
L 253.30176 112.286087 
L 253.48032 168.941541 
L 253.65888 96.633897 
L 253.83744 97.702778 
L 254.016 114.656158 
L 254.19456 96.75593 
L 254.37312 123.018284 
L 254.55168 124.949888 
L 254.73024 137.177821 
L 254.9088 127.560946 
L 255.08736 138.479575 
L 255.26592 174.778136 
L 255.44448 132.232949 
L 255.62304 150.329643 
L 255.8016 148.995661 
L 256.33728 95.841974 
L 256.51584 97.7426 
L 256.6944 157.596363 
L 256.87296 179.127093 
L 257.23008 129.03032 
L 257.40864 152.386451 
L 257.5872 101.182919 
L 257.76576 143.366651 
L 257.94432 118.250097 
L 258.12288 126.746318 
L 258.30144 119.760344 
L 258.48 139.9541 
L 258.65856 108.897566 
L 258.83712 109.986875 
L 259.19424 103.910515 
L 259.3728 108.796347 
L 259.55136 129.652543 
L 259.72992 121.155501 
L 259.90848 133.141514 
L 260.08704 106.17252 
L 260.2656 101.860746 
L 260.44416 100.789508 
L 260.62272 129.012394 
L 260.80128 122.709128 
L 260.97984 106.419138 
L 261.1584 121.853827 
L 261.33696 104.765612 
L 261.51552 120.162905 
L 261.69408 81.903375 
L 262.0512 131.037804 
L 262.22976 99.019453 
L 262.40832 93.955051 
L 262.76544 107.688402 
L 262.944 115.204117 
L 263.12256 78.010666 
L 263.65824 121.930448 
L 263.8368 131.651341 
L 264.01536 94.47796 
L 264.19392 84.1929 
L 264.37248 137.944328 
L 264.55104 127.965231 
L 264.90816 122.654346 
L 265.26528 136.284195 
L 265.44384 91.85373 
L 265.6224 107.942448 
L 265.97952 74.667659 
L 266.15808 165.967621 
L 266.33664 108.015517 
L 266.5152 89.022311 
L 266.69376 137.787355 
L 266.87232 119.948574 
L 267.05088 150.386295 
L 267.22944 118.666334 
L 267.408 134.584865 
L 267.58656 80.211163 
L 267.76512 146.827856 
L 267.94368 156.592411 
L 268.12224 96.146986 
L 268.3008 75.010755 
L 268.47936 122.006418 
L 268.65792 84.466429 
L 268.83648 117.748079 
L 269.01504 94.462797 
L 269.1936 90.038872 
L 269.37216 81.338871 
L 269.55072 111.888832 
L 269.72928 167.189118 
L 269.90784 154.86508 
L 270.0864 124.177893 
L 270.26496 123.551191 
L 270.44352 110.578507 
L 270.80064 167.422456 
L 270.9792 103.74683 
L 271.15776 115.117235 
L 271.33632 78.624478 
L 271.51488 80.913911 
L 271.69344 134.814939 
L 271.872 136.231438 
L 272.05056 108.970402 
L 272.22912 113.825724 
L 272.40768 111.799846 
L 272.7648 137.942173 
L 272.94336 135.297425 
L 273.12192 102.624989 
L 273.30048 108.024732 
L 273.47904 105.693693 
L 273.6576 133.426522 
L 274.01472 84.003615 
L 274.19328 132.418149 
L 274.37184 102.561884 
L 274.5504 101.136043 
L 274.72896 119.115661 
L 274.90752 165.794759 
L 275.26464 79.722477 
L 275.62176 99.902851 
L 275.80032 94.093983 
L 275.97888 121.393104 
L 276.15744 89.366531 
L 276.336 83.86502 
L 276.51456 84.331658 
L 276.69312 90.735554 
L 276.87168 114.633857 
L 277.05024 99.336389 
L 277.2288 114.387719 
L 277.40736 111.151366 
L 277.58592 73.026151 
L 277.94304 103.906213 
L 278.1216 95.288148 
L 278.30016 79.829844 
L 278.83584 134.562015 
L 279.19296 83.02661 
L 279.37152 101.958166 
L 279.55008 96.964583 
L 279.72864 114.329043 
L 279.9072 99.414475 
L 280.08576 100.02023 
L 280.26432 125.72878 
L 280.44288 111.12171 
L 280.62144 155.338869 
L 280.8 102.464638 
L 280.97856 95.20893 
L 281.33568 133.529947 
L 281.51424 105.529387 
L 281.6928 142.033403 
L 281.87136 103.638206 
L 282.04992 120.832794 
L 282.22848 96.76547 
L 282.40704 103.227921 
L 282.5856 126.993751 
L 282.94272 95.681108 
L 283.12128 110.061479 
L 283.29984 93.190036 
L 283.83552 133.258386 
L 284.01408 118.70917 
L 284.19264 114.163507 
L 284.3712 91.747131 
L 284.54976 88.644685 
L 284.72832 143.512381 
L 284.90688 85.163434 
L 285.62112 121.740797 
L 285.79968 109.061218 
L 285.97824 120.350554 
L 286.1568 90.683166 
L 286.33536 159.639445 
L 286.51392 83.915121 
L 286.69248 71.448109 
L 286.87104 110.77139 
L 287.0496 107.36163 
L 287.22816 95.805485 
L 287.40672 124.087353 
L 287.58528 82.524384 
L 287.76384 125.702059 
L 287.9424 104.803427 
L 288.12096 100.791144 
L 288.29952 101.191522 
L 288.47808 150.534006 
L 288.65664 118.351582 
L 288.8352 123.975206 
L 289.01376 189.425241 
L 289.19232 119.906307 
L 289.37088 131.223788 
L 289.54944 108.263243 
L 289.728 157.325923 
L 289.90656 91.237069 
L 290.08512 153.381994 
L 290.26368 114.391298 
L 290.44224 138.059724 
L 290.6208 107.671747 
L 290.79936 109.865002 
L 290.97792 130.855673 
L 291.15648 97.08194 
L 291.33504 135.397778 
L 291.5136 140.505817 
L 291.69216 106.732249 
L 291.87072 131.571088 
L 292.04928 139.55205 
L 292.22784 134.866594 
L 292.4064 125.220771 
L 292.58496 142.840251 
L 292.76352 133.73063 
L 292.94208 112.848149 
L 293.12064 124.882335 
L 293.2992 102.807745 
L 293.47776 162.482906 
L 293.65632 114.809941 
L 293.83488 119.009044 
L 294.01344 149.77274 
L 294.192 120.752495 
L 294.37056 112.565968 
L 294.54912 122.030321 
L 294.72768 98.916941 
L 294.90624 97.743822 
L 295.0848 111.856727 
L 295.26336 173.472543 
L 295.44192 97.169255 
L 295.62048 126.995236 
L 295.79904 136.916232 
L 295.9776 112.941694 
L 296.33472 102.339533 
L 296.51328 128.257655 
L 296.69184 179.02334 
L 296.8704 130.881666 
L 297.04896 145.928878 
L 297.22752 142.953095 
L 297.40608 132.397993 
L 297.58464 156.639748 
L 297.7632 156.798494 
L 297.94176 113.636982 
L 298.12032 146.151636 
L 298.47744 153.753045 
L 298.656 111.898157 
L 298.83456 113.403614 
L 299.01312 140.498182 
L 299.19168 146.936553 
L 299.37024 166.396606 
L 299.5488 136.353875 
L 299.72736 127.817662 
L 299.90592 100.698305 
L 300.08448 187.342193 
L 300.26304 145.092084 
L 300.4416 139.304437 
L 300.62016 116.945216 
L 300.79872 166.734538 
L 300.97728 145.481834 
L 301.15584 159.773694 
L 301.3344 123.83318 
L 301.51296 133.394877 
L 301.69152 135.684358 
L 301.87008 134.958687 
L 302.04864 146.291478 
L 302.2272 106.653827 
L 302.40576 111.017131 
L 302.76288 127.99946 
L 302.94144 119.072075 
L 303.29856 185.384265 
L 303.47712 104.383688 
L 303.65568 93.151228 
L 303.83424 138.490703 
L 304.0128 127.336962 
L 304.19136 132.394542 
L 304.36992 161.989021 
L 304.54848 150.634075 
L 304.72704 97.99313 
L 304.9056 121.929251 
L 305.08416 115.839613 
L 305.26272 122.241388 
L 305.44128 143.920491 
L 305.61984 103.255244 
L 305.7984 105.428679 
L 306.15552 162.794955 
L 306.33408 111.40308 
L 306.51264 113.040239 
L 306.6912 140.991198 
L 306.86976 145.043494 
L 307.04832 120.264597 
L 307.22688 156.942855 
L 307.584 115.185836 
L 307.76256 135.37252 
L 307.94112 131.057147 
L 308.11968 209.109488 
L 308.29824 121.257744 
L 308.4768 157.998964 
L 308.65536 162.309601 
L 308.83392 124.746367 
L 309.01248 125.095989 
L 309.19104 107.230368 
L 309.3696 112.859203 
L 309.54816 164.367988 
L 309.90528 131.989142 
L 310.08384 141.600212 
L 310.2624 120.827881 
L 310.44096 128.595557 
L 310.61952 165.485147 
L 310.79808 146.344726 
L 310.97664 147.478188 
L 311.1552 116.159911 
L 311.33376 113.19789 
L 311.51232 146.467638 
L 311.69088 147.125275 
L 311.86944 182.568659 
L 312.048 136.589375 
L 312.22656 193.402973 
L 312.40512 209.539783 
L 312.58368 103.084596 
L 312.76224 174.109331 
L 312.9408 115.708822 
L 313.11936 119.514732 
L 313.29792 116.211825 
L 313.47648 131.485373 
L 313.65504 202.531565 
L 313.8336 185.779834 
L 314.01216 153.000975 
L 314.19072 180.117133 
L 314.36928 137.598358 
L 314.54784 134.372631 
L 314.7264 162.128668 
L 314.90496 137.866361 
L 315.08352 230.906568 
L 315.26208 124.279493 
L 315.44064 106.485723 
L 315.6192 196.17589 
L 315.97632 132.202567 
L 316.15488 129.680034 
L 316.33344 183.839087 
L 316.512 169.121065 
L 316.69056 176.945117 
L 316.86912 118.369836 
L 317.04768 120.769049 
L 317.4048 168.271953 
L 317.58336 146.761805 
L 317.76192 82.575417 
L 317.94048 115.720198 
L 318.11904 114.236919 
L 318.47616 176.62437 
L 318.65472 150.455304 
L 318.83328 151.622219 
L 319.01184 169.548896 
L 319.1904 138.757559 
L 319.36896 134.756111 
L 319.54752 203.440258 
L 319.72608 108.826375 
L 319.90464 159.846069 
L 320.26176 76.938694 
L 320.44032 165.370828 
L 320.61888 111.182637 
L 320.79744 142.078031 
L 320.976 126.491083 
L 321.15456 208.053882 
L 321.33312 148.465557 
L 321.51168 147.240845 
L 321.69024 143.493802 
L 321.8688 127.147757 
L 322.04736 161.304545 
L 322.22592 144.210176 
L 322.40448 147.109012 
L 322.7616 171.974028 
L 322.94016 133.417842 
L 323.11872 172.925728 
L 323.29728 102.154308 
L 323.47584 152.915012 
L 323.6544 134.784872 
L 323.83296 138.95588 
L 324.01152 164.136665 
L 324.19008 147.59764 
L 324.36864 154.70767 
L 324.5472 188.30396 
L 324.72576 179.859286 
L 324.90432 131.473815 
L 325.08288 136.530828 
L 325.26144 135.416819 
L 325.44 212.412869 
L 325.61856 153.180358 
L 325.79712 200.798933 
L 325.97568 122.502215 
L 326.15424 152.095837 
L 326.3328 131.111833 
L 326.86848 179.394886 
L 327.04704 122.255637 
L 327.2256 156.193365 
L 327.40416 159.912232 
L 327.58272 124.193223 
L 327.76128 148.38821 
L 327.93984 142.482531 
L 328.1184 169.997899 
L 328.29696 134.86113 
L 328.47552 171.737467 
L 328.65408 116.255044 
L 328.83264 123.918473 
L 329.18976 182.890857 
L 329.36832 110.896643 
L 329.54688 168.97522 
L 329.904 135.240324 
L 330.08256 147.248552 
L 330.43968 183.776717 
L 330.61824 166.053323 
L 330.7968 123.170416 
L 330.97536 163.745379 
L 331.15392 129.648134 
L 331.33248 231.302043 
L 331.86816 144.531918 
L 332.04672 157.149952 
L 332.22528 106.75094 
L 332.5824 221.194189 
L 332.76096 155.021422 
L 332.93952 274.099039 
L 333.11808 146.684874 
L 333.29664 169.624636 
L 333.4752 158.847339 
L 333.65376 198.738559 
L 333.83232 136.071748 
L 334.01088 193.117869 
L 334.18944 136.900532 
L 334.54656 186.426948 
L 334.72512 166.236908 
L 334.90368 202.553407 
L 335.08224 141.708882 
L 335.2608 211.416344 
L 335.43936 180.120452 
L 335.61792 202.986316 
L 335.79648 123.419899 
L 335.97504 168.4719 
L 336.1536 185.066416 
L 336.33216 158.464977 
L 336.51072 162.252543 
L 336.68928 151.469374 
L 337.0464 205.896559 
L 337.22496 200.122825 
L 337.40352 156.223505 
L 337.58208 181.897381 
L 337.76064 175.949928 
L 337.9392 149.420634 
L 338.11776 161.206874 
L 338.29632 199.394079 
L 338.47488 184.194921 
L 338.832 224.841308 
L 339.18912 114.16893 
L 339.54624 201.669661 
L 339.7248 110.954671 
L 340.08192 206.747569 
L 340.26048 163.912157 
L 340.43904 174.970771 
L 340.79616 148.175966 
L 340.97472 145.896903 
L 341.15328 138.91058 
L 341.33184 233.266169 
L 341.5104 158.117666 
L 341.68896 168.246584 
L 341.86752 167.787485 
L 342.04608 177.417023 
L 342.22464 155.053056 
L 342.4032 193.99139 
L 342.58176 189.832167 
L 342.76032 144.008657 
L 342.93888 174.851642 
L 343.11744 177.538967 
L 343.296 118.967109 
L 343.47456 195.595595 
L 343.65312 182.693794 
L 343.83168 150.827362 
L 344.01024 183.718959 
L 344.1888 149.608637 
L 344.36736 202.925356 
L 344.54592 144.502253 
L 344.72448 138.241848 
L 344.90304 182.813016 
L 345.0816 155.648467 
L 345.26016 153.340135 
L 345.61728 194.198 
L 345.79584 154.435971 
L 345.9744 204.809686 
L 346.15296 186.583524 
L 346.33152 144.185765 
L 346.51008 195.07621 
L 346.8672 145.899891 
L 347.04576 209.414484 
L 347.22432 132.105951 
L 347.40288 126.789355 
L 347.76 173.522188 
L 347.93856 178.180375 
L 348.11712 109.361045 
L 348.47424 178.232492 
L 348.6528 134.388957 
L 348.83136 168.725181 
L 349.00992 165.992125 
L 349.18848 154.761884 
L 349.36704 167.751938 
L 349.5456 149.630151 
L 349.72416 159.099122 
L 349.90272 231.248154 
L 350.25984 132.968567 
L 350.4384 190.206943 
L 350.61696 205.208864 
L 350.79552 198.498321 
L 350.97408 165.496384 
L 351.15264 169.506304 
L 351.3312 199.830184 
L 351.50976 142.361975 
L 351.68832 171.162303 
L 351.86688 255.942669 
L 352.04544 173.950932 
L 352.224 200.499896 
L 352.58112 146.074343 
L 352.75968 174.356717 
L 352.93824 223.296584 
L 353.1168 160.225729 
L 353.47392 185.171368 
L 353.65248 168.745104 
L 353.83104 184.465683 
L 354.0096 161.118945 
L 354.18816 191.076408 
L 354.36672 154.923693 
L 354.54528 141.683988 
L 354.72384 160.903271 
L 354.9024 163.423563 
L 355.25952 110.572372 
L 355.43808 151.18626 
L 355.61664 141.894066 
L 355.7952 170.328724 
L 355.97376 127.542546 
L 356.15232 118.643799 
L 356.50944 199.560603 
L 356.86656 177.205237 
L 357.04512 135.3542 
L 357.22368 150.43085 
L 357.40224 153.032529 
L 357.75936 208.989853 
L 357.93792 164.566579 
L 358.11648 148.433915 
L 358.29504 147.080963 
L 358.4736 204.826861 
L 358.65216 145.268933 
L 358.83072 199.469334 
L 359.18784 137.972739 
L 359.3664 155.953321 
L 359.54496 196.598894 
L 359.72352 198.718209 
L 359.90208 208.693175 
L 360.08064 111.993685 
L 360.2592 191.360667 
L 360.61632 137.251447 
L 360.79488 151.240954 
L 360.97344 184.457415 
L 361.152 159.293073 
L 361.50912 156.555958 
L 361.68768 168.543599 
L 361.86624 109.105704 
L 362.0448 151.349461 
L 362.22336 149.331141 
L 362.58048 193.987107 
L 362.75904 164.090554 
L 362.9376 173.322718 
L 363.11616 156.522206 
L 363.29472 176.280362 
L 363.47328 132.839031 
L 363.65184 131.166919 
L 363.8304 184.232852 
L 364.00896 170.56807 
L 364.18752 112.864987 
L 364.54464 159.917955 
L 364.7232 132.989571 
L 364.90176 161.219002 
L 365.08032 144.187501 
L 365.25888 172.854775 
L 365.43744 167.271477 
L 365.616 200.507067 
L 365.79456 183.039336 
L 365.97312 177.94394 
L 366.33024 142.498558 
L 366.5088 153.906895 
L 366.68736 190.040739 
L 366.86592 145.3488 
L 367.04448 135.099138 
L 367.22304 153.724982 
L 367.4016 184.285467 
L 367.58016 119.061137 
L 367.75872 158.177476 
L 367.93728 161.732677 
L 368.11584 153.53669 
L 368.2944 199.934637 
L 368.47296 163.101687 
L 368.65152 169.164849 
L 368.83008 145.027603 
L 369.1872 205.639231 
L 369.36576 140.29595 
L 369.54432 145.389808 
L 369.72288 176.387538 
L 369.90144 181.47623 
L 370.08 133.936332 
L 370.25856 120.565647 
L 370.61568 213.121484 
L 370.79424 128.012045 
L 370.9728 173.880542 
L 371.15136 125.483508 
L 371.32992 153.102191 
L 371.50848 160.092342 
L 371.68704 160.826345 
L 371.8656 179.061149 
L 372.04416 156.450715 
L 372.22272 184.528762 
L 372.40128 177.335065 
L 372.57984 159.180993 
L 372.7584 159.731151 
L 372.93696 224.881056 
L 373.11552 188.932338 
L 373.29408 186.786976 
L 373.47264 157.513385 
L 373.6512 183.358377 
L 373.82976 188.129983 
L 374.18688 100.16787 
L 374.36544 99.159462 
L 374.544 147.128815 
L 374.72256 156.305097 
L 374.90112 121.326455 
L 375.07968 193.32983 
L 375.25824 179.670842 
L 375.4368 155.58248 
L 375.61536 200.977642 
L 375.79392 162.571317 
L 376.15104 178.560413 
L 376.3296 171.156107 
L 376.50816 152.220254 
L 376.68672 202.36528 
L 376.86528 113.006544 
L 377.04384 199.52602 
L 377.40096 158.523244 
L 377.57952 152.694317 
L 377.75808 233.078633 
L 377.93664 152.067953 
L 378.1152 172.356404 
L 378.29376 138.614267 
L 378.47232 160.252055 
L 378.65088 155.307197 
L 378.82944 198.565885 
L 379.008 139.639069 
L 379.18656 183.87771 
L 379.36512 151.548712 
L 379.54368 190.016936 
L 379.72224 152.91838 
L 379.9008 211.119416 
L 380.07936 133.404974 
L 380.25792 133.482857 
L 380.43648 144.280841 
L 380.61504 134.791452 
L 380.7936 149.392726 
L 380.97216 152.701693 
L 381.15072 172.621366 
L 381.32928 139.014682 
L 381.50784 220.669513 
L 381.6864 157.516395 
L 381.86496 153.043301 
L 382.04352 164.924899 
L 382.22208 139.856819 
L 382.40064 151.322735 
L 382.5792 211.038321 
L 382.75776 159.144577 
L 382.93632 200.040304 
L 383.11488 202.052394 
L 383.29344 211.604241 
L 383.472 171.283691 
L 383.65056 183.527621 
L 383.82912 258.925661 
L 384.00768 81.079598 
L 384.18624 162.585129 
L 384.3648 193.180701 
L 384.54336 147.530119 
L 384.90048 165.529004 
L 385.07904 147.951349 
L 385.2576 231.674988 
L 385.43616 148.303542 
L 385.61472 153.916941 
L 385.79328 179.714349 
L 385.97184 132.709403 
L 386.32896 123.484846 
L 386.50752 163.719027 
L 386.86464 172.320157 
L 387.0432 150.304784 
L 387.40032 179.173456 
L 387.57888 157.279038 
L 387.75744 155.707725 
L 387.936 159.658697 
L 388.11456 167.164413 
L 388.29312 153.902569 
L 388.47168 214.188969 
L 388.65024 146.374197 
L 388.8288 158.238212 
L 389.00736 224.973015 
L 389.18592 200.543559 
L 389.36448 208.96295 
L 389.54304 178.668216 
L 389.7216 198.192773 
L 389.90016 143.383449 
L 390.07872 174.117922 
L 390.25728 174.036202 
L 390.43584 231.718475 
L 390.6144 130.10698 
L 390.79296 176.895986 
L 390.97152 176.087057 
L 391.15008 152.493114 
L 391.5072 159.518789 
L 391.68576 194.026512 
L 391.86432 191.456205 
L 392.22144 174.577135 
L 392.4 158.897749 
L 392.57856 202.92278 
L 392.75712 190.332864 
L 392.93568 162.786205 
L 393.11424 186.335201 
L 393.2928 186.290985 
L 393.47136 196.86231 
L 393.64992 222.354814 
L 394.00704 137.691628 
L 394.1856 147.481505 
L 394.36416 171.529708 
L 394.54272 156.4947 
L 394.72128 231.474308 
L 394.89984 130.867506 
L 395.25696 195.405633 
L 395.43552 169.092512 
L 395.61408 211.276203 
L 395.79264 141.77116 
L 395.9712 143.291264 
L 396.14976 182.861752 
L 396.32832 117.084341 
L 396.50688 169.265404 
L 396.68544 172.0292 
L 396.864 133.703 
L 397.04256 130.695434 
L 397.22112 156.117322 
L 397.39968 162.823307 
L 397.57824 161.356872 
L 397.93536 198.919309 
L 398.11392 150.945358 
L 398.29248 187.961442 
L 398.47104 154.476748 
L 398.6496 239.205373 
L 398.82816 148.163571 
L 399.00672 220.147983 
L 399.18528 160.805727 
L 399.36384 216.422372 
L 399.5424 160.81482 
L 399.72096 143.173622 
L 399.89952 142.498998 
L 400.07808 186.165117 
L 400.25664 153.47429 
L 400.4352 228.161215 
L 400.79232 153.665974 
L 400.97088 210.577972 
L 401.14944 150.70149 
L 401.328 176.861675 
L 401.50656 133.734076 
L 401.68512 180.411299 
L 401.86368 145.500001 
L 402.04224 147.998769 
L 402.2208 175.219367 
L 402.39936 151.655669 
L 402.57792 184.234075 
L 402.75648 175.967088 
L 402.93504 174.132675 
L 403.1136 133.319461 
L 403.29216 193.615997 
L 403.47072 133.529308 
L 403.64928 217.456951 
L 403.82784 176.370943 
L 404.0064 168.980526 
L 404.18496 180.969959 
L 404.36352 173.479533 
L 404.54208 217.631244 
L 404.72064 157.918646 
L 404.8992 190.947513 
L 405.25632 123.431544 
L 405.61344 200.885836 
L 405.792 181.950661 
L 405.97056 143.13456 
L 406.14912 231.608427 
L 406.32768 140.885446 
L 406.6848 171.118191 
L 406.86336 137.290153 
L 407.04192 149.816486 
L 407.22048 179.474995 
L 407.39904 161.306174 
L 407.5776 183.803449 
L 407.75616 188.688359 
L 407.93472 181.531719 
L 408.29184 115.831834 
L 408.4704 178.757238 
L 408.64896 102.062634 
L 408.82752 198.215122 
L 409.00608 148.477086 
L 409.3632 196.665342 
L 409.54176 173.260991 
L 409.72032 185.063022 
L 409.89888 160.186943 
L 410.07744 181.709537 
L 410.256 163.351494 
L 410.43456 167.066653 
L 410.61312 136.939671 
L 410.79168 160.000804 
L 410.97024 166.546989 
L 411.1488 103.216797 
L 411.32736 175.227498 
L 411.50592 124.222825 
L 411.68448 118.24435 
L 412.22016 214.655471 
L 412.39872 134.65141 
L 412.57728 192.146553 
L 412.75584 142.598976 
L 412.9344 164.737148 
L 413.11296 141.779652 
L 413.29152 160.658602 
L 413.47008 223.784592 
L 413.64864 165.562438 
L 413.8272 176.266418 
L 414.00576 179.764269 
L 414.18432 177.817087 
L 414.36288 152.101821 
L 414.54144 192.896328 
L 414.54144 192.896328 
" style="fill:none;stroke:#0000ff;stroke-linecap:square;stroke-width:1.5;"/>
   </g>
   <g id="patch_3">
    <path d="M 57.6 307.584 
L 57.6 41.472 
" style="fill:none;stroke:#000000;stroke-linecap:square;stroke-linejoin:miter;stroke-width:0.8;"/>
   </g>
   <g id="patch_4">
    <path d="M 414.72 307.584 
L 414.72 41.472 
" style="fill:none;stroke:#000000;stroke-linecap:square;stroke-linejoin:miter;stroke-width:0.8;"/>
   </g>
   <g id="patch_5">
    <path d="M 57.6 307.584 
L 414.72 307.584 
" style="fill:none;stroke:#000000;stroke-linecap:square;stroke-linejoin:miter;stroke-width:0.8;"/>
   </g>
   <g id="patch_6">
    <path d="M 57.6 41.472 
L 414.72 41.472 
" style="fill:none;stroke:#000000;stroke-linecap:square;stroke-linejoin:miter;stroke-width:0.8;"/>
   </g>
   <g id="legend_1">
    <g id="patch_7">
     <path d="M 282.321563 64.150125 
L 407.72 64.150125 
Q 409.72 64.150125 409.72 62.150125 
L 409.72 48.472 
Q 409.72 46.472 407.72 46.472 
L 282.321563 46.472 
Q 280.321563 46.472 280.321563 48.472 
L 280.321563 62.150125 
Q 280.321563 64.150125 282.321563 64.150125 
z
" style="fill:#ffffff;opacity:0.8;stroke:#cccccc;stroke-linejoin:miter;"/>
    </g>
    <g id="line2d_36">
     <path d="M 284.321563 54.570438 
L 304.321563 54.570438 
" style="fill:none;stroke:#0000ff;stroke-linecap:square;stroke-width:1.5;"/>
    </g>
    <g id="line2d_37"/>
    <g id="text_20">
     <!-- cumulative reward -->
     <g transform="translate(312.321563 58.070438)scale(0.1 -0.1)">
      <defs>
       <path d="M 3122 3366 
L 3122 2828 
Q 2878 2963 2633 3030 
Q 2388 3097 2138 3097 
Q 1578 3097 1268 2742 
Q 959 2388 959 1747 
Q 959 1106 1268 751 
Q 1578 397 2138 397 
Q 2388 397 2633 464 
Q 2878 531 3122 666 
L 3122 134 
Q 2881 22 2623 -34 
Q 2366 -91 2075 -91 
Q 1284 -91 818 406 
Q 353 903 353 1747 
Q 353 2603 823 3093 
Q 1294 3584 2113 3584 
Q 2378 3584 2631 3529 
Q 2884 3475 3122 3366 
z
" id="DejaVuSans-63" transform="scale(0.015625)"/>
      </defs>
      <use xlink:href="#DejaVuSans-63"/>
      <use x="54.980469" xlink:href="#DejaVuSans-75"/>
      <use x="118.359375" xlink:href="#DejaVuSans-6d"/>
      <use x="215.771484" xlink:href="#DejaVuSans-75"/>
      <use x="279.150391" xlink:href="#DejaVuSans-6c"/>
      <use x="306.933594" xlink:href="#DejaVuSans-61"/>
      <use x="368.212891" xlink:href="#DejaVuSans-74"/>
      <use x="407.421875" xlink:href="#DejaVuSans-69"/>
      <use x="435.205078" xlink:href="#DejaVuSans-76"/>
      <use x="494.384766" xlink:href="#DejaVuSans-65"/>
      <use x="555.908203" xlink:href="#DejaVuSans-20"/>
      <use x="587.695312" xlink:href="#DejaVuSans-72"/>
      <use x="626.558594" xlink:href="#DejaVuSans-65"/>
      <use x="688.082031" xlink:href="#DejaVuSans-77"/>
      <use x="769.869141" xlink:href="#DejaVuSans-61"/>
      <use x="831.148438" xlink:href="#DejaVuSans-72"/>
      <use x="870.511719" xlink:href="#DejaVuSans-64"/>
     </g>
    </g>
   </g>
  </g>
 </g>
 <defs>
  <clipPath id="pef27f9f218">
   <rect height="266.112" width="357.12" x="57.6" y="41.472"/>
  </clipPath>
 </defs>
</svg>
