<?xml version="1.0" encoding="utf-8" standalone="no"?>
<!DOCTYPE svg PUBLIC "-//W3C//DTD SVG 1.1//EN"
  "http://www.w3.org/Graphics/SVG/1.1/DTD/svg11.dtd">
<svg height="345.6pt" version="1.1" viewBox="0 0 460.8 345.6" width="460.8pt" xmlns="http://www.w3.org/2000/svg" xmlns:xlink="http://www.w3.org/1999/xlink">
 <metadata>
  <rdf:RDF xmlns:cc="http://creativecommons.org/ns#" xmlns:dc="http://purl.org/dc/elements/1.1/" xmlns:rdf="http://www.w3.org/1999/02/22-rdf-syntax-ns#">
   <cc:Work>
    <dc:type rdf:resource="http://purl.org/dc/dcmitype/StillImage"/>
    <dc:date>2021-11-02T13:30:51.122231</dc:date>
    <dc:description>{"agent.algorithm": "RayProximalPolicyOptimization", "agent.algorithm.render_env": false, "agent.algorithm.num_workers": 0, "agent.algorithm.batch_mode": "complete_episodes", "agent.algorithm.lr": 1e-05, "agent.algorithm.train_batch_size": 200, "agent.algorithm.optimizer": "Adam", "agent.algorithm.vf_clip_param": 5000, "agent.algorithm.model": {"fcnet_activation": "relu", "fcnet_hiddens": [50, 50]}, "env.env_class": "SchedulerPolicyRayEnvironment", "env.env_config": {"solver_driver": "CMAdriver", "solver_driver_args": [10, 10, 20, 0.1], "maximize": false, "steps": 50, "state_metrics_names": ["DifferenceOfBest", "SolverStateHistory", "SolverState"], "state_metrics_config": [[40, false, 1, true, false], [{"step_size": {"max": 3, "min": 0}}, 40], [{"ps": {"max": 10, "min": -10}}]], "reward_metric": "Best", "reward_metric_config": [false, true], "memes_no": 1, "action_space_config": {"step_size": {"max": 3, "min": 0.05}}}}</dc:description>
    <dc:format>image/svg+xml</dc:format>
    <dc:creator>
     <cc:Agent>
      <dc:title>Matplotlib v3.4.2, https://matplotlib.org/</dc:title>
     </cc:Agent>
    </dc:creator>
   </cc:Work>
  </rdf:RDF>
 </metadata>
 <defs>
  <style type="text/css">*{stroke-linecap:butt;stroke-linejoin:round;}</style>
 </defs>
 <g id="figure_1">
  <g id="patch_1">
   <path d="M 0 345.6 
L 460.8 345.6 
L 460.8 0 
L 0 0 
z
" style="fill:#ffffff;"/>
  </g>
  <g id="axes_1">
   <g id="patch_2">
    <path d="M 57.6 307.584 
L 414.72 307.584 
L 414.72 41.472 
L 57.6 41.472 
z
" style="fill:#ffffff;"/>
   </g>
   <g id="matplotlib.axis_1">
    <g id="xtick_1">
     <g id="line2d_1">
      <path clip-path="url(#p6a56012573)" d="M 57.6 307.584 
L 57.6 41.472 
" style="fill:none;stroke:#b0b0b0;stroke-linecap:square;stroke-width:0.8;"/>
     </g>
     <g id="line2d_2">
      <defs>
       <path d="M 0 0 
L 0 3.5 
" id="m49bdbdc2c7" style="stroke:#000000;stroke-width:0.8;"/>
      </defs>
      <g>
       <use style="stroke:#000000;stroke-width:0.8;" x="57.6" xlink:href="#m49bdbdc2c7" y="307.584"/>
      </g>
     </g>
     <g id="text_1">
      <!-- 0 -->
      <g transform="translate(52.51 326.7415)scale(0.16 -0.16)">
       <defs>
        <path d="M 2034 4250 
Q 1547 4250 1301 3770 
Q 1056 3291 1056 2328 
Q 1056 1369 1301 889 
Q 1547 409 2034 409 
Q 2525 409 2770 889 
Q 3016 1369 3016 2328 
Q 3016 3291 2770 3770 
Q 2525 4250 2034 4250 
z
M 2034 4750 
Q 2819 4750 3233 4129 
Q 3647 3509 3647 2328 
Q 3647 1150 3233 529 
Q 2819 -91 2034 -91 
Q 1250 -91 836 529 
Q 422 1150 422 2328 
Q 422 3509 836 4129 
Q 1250 4750 2034 4750 
z
" id="DejaVuSans-30" transform="scale(0.015625)"/>
       </defs>
       <use xlink:href="#DejaVuSans-30"/>
      </g>
     </g>
    </g>
    <g id="xtick_2">
     <g id="line2d_3">
      <path clip-path="url(#p6a56012573)" d="M 146.88 307.584 
L 146.88 41.472 
" style="fill:none;stroke:#b0b0b0;stroke-linecap:square;stroke-width:0.8;"/>
     </g>
     <g id="line2d_4">
      <g>
       <use style="stroke:#000000;stroke-width:0.8;" x="146.88" xlink:href="#m49bdbdc2c7" y="307.584"/>
      </g>
     </g>
     <g id="text_2">
      <!-- 500 -->
      <g transform="translate(131.61 326.7415)scale(0.16 -0.16)">
       <defs>
        <path d="M 691 4666 
L 3169 4666 
L 3169 4134 
L 1269 4134 
L 1269 2991 
Q 1406 3038 1543 3061 
Q 1681 3084 1819 3084 
Q 2600 3084 3056 2656 
Q 3513 2228 3513 1497 
Q 3513 744 3044 326 
Q 2575 -91 1722 -91 
Q 1428 -91 1123 -41 
Q 819 9 494 109 
L 494 744 
Q 775 591 1075 516 
Q 1375 441 1709 441 
Q 2250 441 2565 725 
Q 2881 1009 2881 1497 
Q 2881 1984 2565 2268 
Q 2250 2553 1709 2553 
Q 1456 2553 1204 2497 
Q 953 2441 691 2322 
L 691 4666 
z
" id="DejaVuSans-35" transform="scale(0.015625)"/>
       </defs>
       <use xlink:href="#DejaVuSans-35"/>
       <use x="63.623047" xlink:href="#DejaVuSans-30"/>
       <use x="127.246094" xlink:href="#DejaVuSans-30"/>
      </g>
     </g>
    </g>
    <g id="xtick_3">
     <g id="line2d_5">
      <path clip-path="url(#p6a56012573)" d="M 236.16 307.584 
L 236.16 41.472 
" style="fill:none;stroke:#b0b0b0;stroke-linecap:square;stroke-width:0.8;"/>
     </g>
     <g id="line2d_6">
      <g>
       <use style="stroke:#000000;stroke-width:0.8;" x="236.16" xlink:href="#m49bdbdc2c7" y="307.584"/>
      </g>
     </g>
     <g id="text_3">
      <!-- 1000 -->
      <g transform="translate(215.8 326.7415)scale(0.16 -0.16)">
       <defs>
        <path d="M 794 531 
L 1825 531 
L 1825 4091 
L 703 3866 
L 703 4441 
L 1819 4666 
L 2450 4666 
L 2450 531 
L 3481 531 
L 3481 0 
L 794 0 
L 794 531 
z
" id="DejaVuSans-31" transform="scale(0.015625)"/>
       </defs>
       <use xlink:href="#DejaVuSans-31"/>
       <use x="63.623047" xlink:href="#DejaVuSans-30"/>
       <use x="127.246094" xlink:href="#DejaVuSans-30"/>
       <use x="190.869141" xlink:href="#DejaVuSans-30"/>
      </g>
     </g>
    </g>
    <g id="xtick_4">
     <g id="line2d_7">
      <path clip-path="url(#p6a56012573)" d="M 325.44 307.584 
L 325.44 41.472 
" style="fill:none;stroke:#b0b0b0;stroke-linecap:square;stroke-width:0.8;"/>
     </g>
     <g id="line2d_8">
      <g>
       <use style="stroke:#000000;stroke-width:0.8;" x="325.44" xlink:href="#m49bdbdc2c7" y="307.584"/>
      </g>
     </g>
     <g id="text_4">
      <!-- 1500 -->
      <g transform="translate(305.08 326.7415)scale(0.16 -0.16)">
       <use xlink:href="#DejaVuSans-31"/>
       <use x="63.623047" xlink:href="#DejaVuSans-35"/>
       <use x="127.246094" xlink:href="#DejaVuSans-30"/>
       <use x="190.869141" xlink:href="#DejaVuSans-30"/>
      </g>
     </g>
    </g>
    <g id="xtick_5">
     <g id="line2d_9">
      <path clip-path="url(#p6a56012573)" d="M 414.72 307.584 
L 414.72 41.472 
" style="fill:none;stroke:#b0b0b0;stroke-linecap:square;stroke-width:0.8;"/>
     </g>
     <g id="line2d_10">
      <g>
       <use style="stroke:#000000;stroke-width:0.8;" x="414.72" xlink:href="#m49bdbdc2c7" y="307.584"/>
      </g>
     </g>
     <g id="text_5">
      <!-- 2000 -->
      <g transform="translate(394.36 326.7415)scale(0.16 -0.16)">
       <defs>
        <path d="M 1228 531 
L 3431 531 
L 3431 0 
L 469 0 
L 469 531 
Q 828 903 1448 1529 
Q 2069 2156 2228 2338 
Q 2531 2678 2651 2914 
Q 2772 3150 2772 3378 
Q 2772 3750 2511 3984 
Q 2250 4219 1831 4219 
Q 1534 4219 1204 4116 
Q 875 4013 500 3803 
L 500 4441 
Q 881 4594 1212 4672 
Q 1544 4750 1819 4750 
Q 2544 4750 2975 4387 
Q 3406 4025 3406 3419 
Q 3406 3131 3298 2873 
Q 3191 2616 2906 2266 
Q 2828 2175 2409 1742 
Q 1991 1309 1228 531 
z
" id="DejaVuSans-32" transform="scale(0.015625)"/>
       </defs>
       <use xlink:href="#DejaVuSans-32"/>
       <use x="63.623047" xlink:href="#DejaVuSans-30"/>
       <use x="127.246094" xlink:href="#DejaVuSans-30"/>
       <use x="190.869141" xlink:href="#DejaVuSans-30"/>
      </g>
     </g>
    </g>
    <g id="text_6">
     <!-- Episodes -->
     <g transform="translate(200.5725 346.2265)scale(0.16 -0.16)">
      <defs>
       <path d="M 628 4666 
L 3578 4666 
L 3578 4134 
L 1259 4134 
L 1259 2753 
L 3481 2753 
L 3481 2222 
L 1259 2222 
L 1259 531 
L 3634 531 
L 3634 0 
L 628 0 
L 628 4666 
z
" id="DejaVuSans-45" transform="scale(0.015625)"/>
       <path d="M 1159 525 
L 1159 -1331 
L 581 -1331 
L 581 3500 
L 1159 3500 
L 1159 2969 
Q 1341 3281 1617 3432 
Q 1894 3584 2278 3584 
Q 2916 3584 3314 3078 
Q 3713 2572 3713 1747 
Q 3713 922 3314 415 
Q 2916 -91 2278 -91 
Q 1894 -91 1617 61 
Q 1341 213 1159 525 
z
M 3116 1747 
Q 3116 2381 2855 2742 
Q 2594 3103 2138 3103 
Q 1681 3103 1420 2742 
Q 1159 2381 1159 1747 
Q 1159 1113 1420 752 
Q 1681 391 2138 391 
Q 2594 391 2855 752 
Q 3116 1113 3116 1747 
z
" id="DejaVuSans-70" transform="scale(0.015625)"/>
       <path d="M 603 3500 
L 1178 3500 
L 1178 0 
L 603 0 
L 603 3500 
z
M 603 4863 
L 1178 4863 
L 1178 4134 
L 603 4134 
L 603 4863 
z
" id="DejaVuSans-69" transform="scale(0.015625)"/>
       <path d="M 2834 3397 
L 2834 2853 
Q 2591 2978 2328 3040 
Q 2066 3103 1784 3103 
Q 1356 3103 1142 2972 
Q 928 2841 928 2578 
Q 928 2378 1081 2264 
Q 1234 2150 1697 2047 
L 1894 2003 
Q 2506 1872 2764 1633 
Q 3022 1394 3022 966 
Q 3022 478 2636 193 
Q 2250 -91 1575 -91 
Q 1294 -91 989 -36 
Q 684 19 347 128 
L 347 722 
Q 666 556 975 473 
Q 1284 391 1588 391 
Q 1994 391 2212 530 
Q 2431 669 2431 922 
Q 2431 1156 2273 1281 
Q 2116 1406 1581 1522 
L 1381 1569 
Q 847 1681 609 1914 
Q 372 2147 372 2553 
Q 372 3047 722 3315 
Q 1072 3584 1716 3584 
Q 2034 3584 2315 3537 
Q 2597 3491 2834 3397 
z
" id="DejaVuSans-73" transform="scale(0.015625)"/>
       <path d="M 1959 3097 
Q 1497 3097 1228 2736 
Q 959 2375 959 1747 
Q 959 1119 1226 758 
Q 1494 397 1959 397 
Q 2419 397 2687 759 
Q 2956 1122 2956 1747 
Q 2956 2369 2687 2733 
Q 2419 3097 1959 3097 
z
M 1959 3584 
Q 2709 3584 3137 3096 
Q 3566 2609 3566 1747 
Q 3566 888 3137 398 
Q 2709 -91 1959 -91 
Q 1206 -91 779 398 
Q 353 888 353 1747 
Q 353 2609 779 3096 
Q 1206 3584 1959 3584 
z
" id="DejaVuSans-6f" transform="scale(0.015625)"/>
       <path d="M 2906 2969 
L 2906 4863 
L 3481 4863 
L 3481 0 
L 2906 0 
L 2906 525 
Q 2725 213 2448 61 
Q 2172 -91 1784 -91 
Q 1150 -91 751 415 
Q 353 922 353 1747 
Q 353 2572 751 3078 
Q 1150 3584 1784 3584 
Q 2172 3584 2448 3432 
Q 2725 3281 2906 2969 
z
M 947 1747 
Q 947 1113 1208 752 
Q 1469 391 1925 391 
Q 2381 391 2643 752 
Q 2906 1113 2906 1747 
Q 2906 2381 2643 2742 
Q 2381 3103 1925 3103 
Q 1469 3103 1208 2742 
Q 947 2381 947 1747 
z
" id="DejaVuSans-64" transform="scale(0.015625)"/>
       <path d="M 3597 1894 
L 3597 1613 
L 953 1613 
Q 991 1019 1311 708 
Q 1631 397 2203 397 
Q 2534 397 2845 478 
Q 3156 559 3463 722 
L 3463 178 
Q 3153 47 2828 -22 
Q 2503 -91 2169 -91 
Q 1331 -91 842 396 
Q 353 884 353 1716 
Q 353 2575 817 3079 
Q 1281 3584 2069 3584 
Q 2775 3584 3186 3129 
Q 3597 2675 3597 1894 
z
M 3022 2063 
Q 3016 2534 2758 2815 
Q 2500 3097 2075 3097 
Q 1594 3097 1305 2825 
Q 1016 2553 972 2059 
L 3022 2063 
z
" id="DejaVuSans-65" transform="scale(0.015625)"/>
      </defs>
      <use xlink:href="#DejaVuSans-45"/>
      <use x="63.183594" xlink:href="#DejaVuSans-70"/>
      <use x="126.660156" xlink:href="#DejaVuSans-69"/>
      <use x="154.443359" xlink:href="#DejaVuSans-73"/>
      <use x="206.542969" xlink:href="#DejaVuSans-6f"/>
      <use x="267.724609" xlink:href="#DejaVuSans-64"/>
      <use x="331.201172" xlink:href="#DejaVuSans-65"/>
      <use x="392.724609" xlink:href="#DejaVuSans-73"/>
     </g>
    </g>
   </g>
   <g id="matplotlib.axis_2">
    <g id="ytick_1">
     <g id="line2d_11">
      <path clip-path="url(#p6a56012573)" d="M 57.6 287.023801 
L 414.72 287.023801 
" style="fill:none;stroke:#b0b0b0;stroke-linecap:square;stroke-width:0.8;"/>
     </g>
     <g id="line2d_12">
      <defs>
       <path d="M 0 0 
L -3.5 0 
" id="m874a91e1df" style="stroke:#000000;stroke-width:0.8;"/>
      </defs>
      <g>
       <use style="stroke:#000000;stroke-width:0.8;" x="57.6" xlink:href="#m874a91e1df" y="287.023801"/>
      </g>
     </g>
     <g id="text_7">
      <!-- −140000 -->
      <g transform="translate(-23.8875 293.102551)scale(0.16 -0.16)">
       <defs>
        <path d="M 678 2272 
L 4684 2272 
L 4684 1741 
L 678 1741 
L 678 2272 
z
" id="DejaVuSans-2212" transform="scale(0.015625)"/>
        <path d="M 2419 4116 
L 825 1625 
L 2419 1625 
L 2419 4116 
z
M 2253 4666 
L 3047 4666 
L 3047 1625 
L 3713 1625 
L 3713 1100 
L 3047 1100 
L 3047 0 
L 2419 0 
L 2419 1100 
L 313 1100 
L 313 1709 
L 2253 4666 
z
" id="DejaVuSans-34" transform="scale(0.015625)"/>
       </defs>
       <use xlink:href="#DejaVuSans-2212"/>
       <use x="83.789062" xlink:href="#DejaVuSans-31"/>
       <use x="147.412109" xlink:href="#DejaVuSans-34"/>
       <use x="211.035156" xlink:href="#DejaVuSans-30"/>
       <use x="274.658203" xlink:href="#DejaVuSans-30"/>
       <use x="338.28125" xlink:href="#DejaVuSans-30"/>
       <use x="401.904297" xlink:href="#DejaVuSans-30"/>
      </g>
     </g>
    </g>
    <g id="ytick_2">
     <g id="line2d_13">
      <path clip-path="url(#p6a56012573)" d="M 57.6 252.837619 
L 414.72 252.837619 
" style="fill:none;stroke:#b0b0b0;stroke-linecap:square;stroke-width:0.8;"/>
     </g>
     <g id="line2d_14">
      <g>
       <use style="stroke:#000000;stroke-width:0.8;" x="57.6" xlink:href="#m874a91e1df" y="252.837619"/>
      </g>
     </g>
     <g id="text_8">
      <!-- −120000 -->
      <g transform="translate(-23.8875 258.916369)scale(0.16 -0.16)">
       <use xlink:href="#DejaVuSans-2212"/>
       <use x="83.789062" xlink:href="#DejaVuSans-31"/>
       <use x="147.412109" xlink:href="#DejaVuSans-32"/>
       <use x="211.035156" xlink:href="#DejaVuSans-30"/>
       <use x="274.658203" xlink:href="#DejaVuSans-30"/>
       <use x="338.28125" xlink:href="#DejaVuSans-30"/>
       <use x="401.904297" xlink:href="#DejaVuSans-30"/>
      </g>
     </g>
    </g>
    <g id="ytick_3">
     <g id="line2d_15">
      <path clip-path="url(#p6a56012573)" d="M 57.6 218.651438 
L 414.72 218.651438 
" style="fill:none;stroke:#b0b0b0;stroke-linecap:square;stroke-width:0.8;"/>
     </g>
     <g id="line2d_16">
      <g>
       <use style="stroke:#000000;stroke-width:0.8;" x="57.6" xlink:href="#m874a91e1df" y="218.651438"/>
      </g>
     </g>
     <g id="text_9">
      <!-- −100000 -->
      <g transform="translate(-23.8875 224.730188)scale(0.16 -0.16)">
       <use xlink:href="#DejaVuSans-2212"/>
       <use x="83.789062" xlink:href="#DejaVuSans-31"/>
       <use x="147.412109" xlink:href="#DejaVuSans-30"/>
       <use x="211.035156" xlink:href="#DejaVuSans-30"/>
       <use x="274.658203" xlink:href="#DejaVuSans-30"/>
       <use x="338.28125" xlink:href="#DejaVuSans-30"/>
       <use x="401.904297" xlink:href="#DejaVuSans-30"/>
      </g>
     </g>
    </g>
    <g id="ytick_4">
     <g id="line2d_17">
      <path clip-path="url(#p6a56012573)" d="M 57.6 184.465256 
L 414.72 184.465256 
" style="fill:none;stroke:#b0b0b0;stroke-linecap:square;stroke-width:0.8;"/>
     </g>
     <g id="line2d_18">
      <g>
       <use style="stroke:#000000;stroke-width:0.8;" x="57.6" xlink:href="#m874a91e1df" y="184.465256"/>
      </g>
     </g>
     <g id="text_10">
      <!-- −80000 -->
      <g transform="translate(-13.7075 190.544006)scale(0.16 -0.16)">
       <defs>
        <path d="M 2034 2216 
Q 1584 2216 1326 1975 
Q 1069 1734 1069 1313 
Q 1069 891 1326 650 
Q 1584 409 2034 409 
Q 2484 409 2743 651 
Q 3003 894 3003 1313 
Q 3003 1734 2745 1975 
Q 2488 2216 2034 2216 
z
M 1403 2484 
Q 997 2584 770 2862 
Q 544 3141 544 3541 
Q 544 4100 942 4425 
Q 1341 4750 2034 4750 
Q 2731 4750 3128 4425 
Q 3525 4100 3525 3541 
Q 3525 3141 3298 2862 
Q 3072 2584 2669 2484 
Q 3125 2378 3379 2068 
Q 3634 1759 3634 1313 
Q 3634 634 3220 271 
Q 2806 -91 2034 -91 
Q 1263 -91 848 271 
Q 434 634 434 1313 
Q 434 1759 690 2068 
Q 947 2378 1403 2484 
z
M 1172 3481 
Q 1172 3119 1398 2916 
Q 1625 2713 2034 2713 
Q 2441 2713 2670 2916 
Q 2900 3119 2900 3481 
Q 2900 3844 2670 4047 
Q 2441 4250 2034 4250 
Q 1625 4250 1398 4047 
Q 1172 3844 1172 3481 
z
" id="DejaVuSans-38" transform="scale(0.015625)"/>
       </defs>
       <use xlink:href="#DejaVuSans-2212"/>
       <use x="83.789062" xlink:href="#DejaVuSans-38"/>
       <use x="147.412109" xlink:href="#DejaVuSans-30"/>
       <use x="211.035156" xlink:href="#DejaVuSans-30"/>
       <use x="274.658203" xlink:href="#DejaVuSans-30"/>
       <use x="338.28125" xlink:href="#DejaVuSans-30"/>
      </g>
     </g>
    </g>
    <g id="ytick_5">
     <g id="line2d_19">
      <path clip-path="url(#p6a56012573)" d="M 57.6 150.279074 
L 414.72 150.279074 
" style="fill:none;stroke:#b0b0b0;stroke-linecap:square;stroke-width:0.8;"/>
     </g>
     <g id="line2d_20">
      <g>
       <use style="stroke:#000000;stroke-width:0.8;" x="57.6" xlink:href="#m874a91e1df" y="150.279074"/>
      </g>
     </g>
     <g id="text_11">
      <!-- −60000 -->
      <g transform="translate(-13.7075 156.357824)scale(0.16 -0.16)">
       <defs>
        <path d="M 2113 2584 
Q 1688 2584 1439 2293 
Q 1191 2003 1191 1497 
Q 1191 994 1439 701 
Q 1688 409 2113 409 
Q 2538 409 2786 701 
Q 3034 994 3034 1497 
Q 3034 2003 2786 2293 
Q 2538 2584 2113 2584 
z
M 3366 4563 
L 3366 3988 
Q 3128 4100 2886 4159 
Q 2644 4219 2406 4219 
Q 1781 4219 1451 3797 
Q 1122 3375 1075 2522 
Q 1259 2794 1537 2939 
Q 1816 3084 2150 3084 
Q 2853 3084 3261 2657 
Q 3669 2231 3669 1497 
Q 3669 778 3244 343 
Q 2819 -91 2113 -91 
Q 1303 -91 875 529 
Q 447 1150 447 2328 
Q 447 3434 972 4092 
Q 1497 4750 2381 4750 
Q 2619 4750 2861 4703 
Q 3103 4656 3366 4563 
z
" id="DejaVuSans-36" transform="scale(0.015625)"/>
       </defs>
       <use xlink:href="#DejaVuSans-2212"/>
       <use x="83.789062" xlink:href="#DejaVuSans-36"/>
       <use x="147.412109" xlink:href="#DejaVuSans-30"/>
       <use x="211.035156" xlink:href="#DejaVuSans-30"/>
       <use x="274.658203" xlink:href="#DejaVuSans-30"/>
       <use x="338.28125" xlink:href="#DejaVuSans-30"/>
      </g>
     </g>
    </g>
    <g id="ytick_6">
     <g id="line2d_21">
      <path clip-path="url(#p6a56012573)" d="M 57.6 116.092893 
L 414.72 116.092893 
" style="fill:none;stroke:#b0b0b0;stroke-linecap:square;stroke-width:0.8;"/>
     </g>
     <g id="line2d_22">
      <g>
       <use style="stroke:#000000;stroke-width:0.8;" x="57.6" xlink:href="#m874a91e1df" y="116.092893"/>
      </g>
     </g>
     <g id="text_12">
      <!-- −40000 -->
      <g transform="translate(-13.7075 122.171643)scale(0.16 -0.16)">
       <use xlink:href="#DejaVuSans-2212"/>
       <use x="83.789062" xlink:href="#DejaVuSans-34"/>
       <use x="147.412109" xlink:href="#DejaVuSans-30"/>
       <use x="211.035156" xlink:href="#DejaVuSans-30"/>
       <use x="274.658203" xlink:href="#DejaVuSans-30"/>
       <use x="338.28125" xlink:href="#DejaVuSans-30"/>
      </g>
     </g>
    </g>
    <g id="ytick_7">
     <g id="line2d_23">
      <path clip-path="url(#p6a56012573)" d="M 57.6 81.906711 
L 414.72 81.906711 
" style="fill:none;stroke:#b0b0b0;stroke-linecap:square;stroke-width:0.8;"/>
     </g>
     <g id="line2d_24">
      <g>
       <use style="stroke:#000000;stroke-width:0.8;" x="57.6" xlink:href="#m874a91e1df" y="81.906711"/>
      </g>
     </g>
     <g id="text_13">
      <!-- −20000 -->
      <g transform="translate(-13.7075 87.985461)scale(0.16 -0.16)">
       <use xlink:href="#DejaVuSans-2212"/>
       <use x="83.789062" xlink:href="#DejaVuSans-32"/>
       <use x="147.412109" xlink:href="#DejaVuSans-30"/>
       <use x="211.035156" xlink:href="#DejaVuSans-30"/>
       <use x="274.658203" xlink:href="#DejaVuSans-30"/>
       <use x="338.28125" xlink:href="#DejaVuSans-30"/>
      </g>
     </g>
    </g>
    <g id="ytick_8">
     <g id="line2d_25">
      <path clip-path="url(#p6a56012573)" d="M 57.6 47.720529 
L 414.72 47.720529 
" style="fill:none;stroke:#b0b0b0;stroke-linecap:square;stroke-width:0.8;"/>
     </g>
     <g id="line2d_26">
      <g>
       <use style="stroke:#000000;stroke-width:0.8;" x="57.6" xlink:href="#m874a91e1df" y="47.720529"/>
      </g>
     </g>
     <g id="text_14">
      <!-- 0 -->
      <g transform="translate(40.42 53.799279)scale(0.16 -0.16)">
       <use xlink:href="#DejaVuSans-30"/>
      </g>
     </g>
    </g>
    <g id="text_15">
     <!-- Cumulative Reward -->
     <g transform="translate(-31.215 252.52425)rotate(-90)scale(0.16 -0.16)">
      <defs>
       <path d="M 4122 4306 
L 4122 3641 
Q 3803 3938 3442 4084 
Q 3081 4231 2675 4231 
Q 1875 4231 1450 3742 
Q 1025 3253 1025 2328 
Q 1025 1406 1450 917 
Q 1875 428 2675 428 
Q 3081 428 3442 575 
Q 3803 722 4122 1019 
L 4122 359 
Q 3791 134 3420 21 
Q 3050 -91 2638 -91 
Q 1578 -91 968 557 
Q 359 1206 359 2328 
Q 359 3453 968 4101 
Q 1578 4750 2638 4750 
Q 3056 4750 3426 4639 
Q 3797 4528 4122 4306 
z
" id="DejaVuSans-43" transform="scale(0.015625)"/>
       <path d="M 544 1381 
L 544 3500 
L 1119 3500 
L 1119 1403 
Q 1119 906 1312 657 
Q 1506 409 1894 409 
Q 2359 409 2629 706 
Q 2900 1003 2900 1516 
L 2900 3500 
L 3475 3500 
L 3475 0 
L 2900 0 
L 2900 538 
Q 2691 219 2414 64 
Q 2138 -91 1772 -91 
Q 1169 -91 856 284 
Q 544 659 544 1381 
z
M 1991 3584 
L 1991 3584 
z
" id="DejaVuSans-75" transform="scale(0.015625)"/>
       <path d="M 3328 2828 
Q 3544 3216 3844 3400 
Q 4144 3584 4550 3584 
Q 5097 3584 5394 3201 
Q 5691 2819 5691 2113 
L 5691 0 
L 5113 0 
L 5113 2094 
Q 5113 2597 4934 2840 
Q 4756 3084 4391 3084 
Q 3944 3084 3684 2787 
Q 3425 2491 3425 1978 
L 3425 0 
L 2847 0 
L 2847 2094 
Q 2847 2600 2669 2842 
Q 2491 3084 2119 3084 
Q 1678 3084 1418 2786 
Q 1159 2488 1159 1978 
L 1159 0 
L 581 0 
L 581 3500 
L 1159 3500 
L 1159 2956 
Q 1356 3278 1631 3431 
Q 1906 3584 2284 3584 
Q 2666 3584 2933 3390 
Q 3200 3197 3328 2828 
z
" id="DejaVuSans-6d" transform="scale(0.015625)"/>
       <path d="M 603 4863 
L 1178 4863 
L 1178 0 
L 603 0 
L 603 4863 
z
" id="DejaVuSans-6c" transform="scale(0.015625)"/>
       <path d="M 2194 1759 
Q 1497 1759 1228 1600 
Q 959 1441 959 1056 
Q 959 750 1161 570 
Q 1363 391 1709 391 
Q 2188 391 2477 730 
Q 2766 1069 2766 1631 
L 2766 1759 
L 2194 1759 
z
M 3341 1997 
L 3341 0 
L 2766 0 
L 2766 531 
Q 2569 213 2275 61 
Q 1981 -91 1556 -91 
Q 1019 -91 701 211 
Q 384 513 384 1019 
Q 384 1609 779 1909 
Q 1175 2209 1959 2209 
L 2766 2209 
L 2766 2266 
Q 2766 2663 2505 2880 
Q 2244 3097 1772 3097 
Q 1472 3097 1187 3025 
Q 903 2953 641 2809 
L 641 3341 
Q 956 3463 1253 3523 
Q 1550 3584 1831 3584 
Q 2591 3584 2966 3190 
Q 3341 2797 3341 1997 
z
" id="DejaVuSans-61" transform="scale(0.015625)"/>
       <path d="M 1172 4494 
L 1172 3500 
L 2356 3500 
L 2356 3053 
L 1172 3053 
L 1172 1153 
Q 1172 725 1289 603 
Q 1406 481 1766 481 
L 2356 481 
L 2356 0 
L 1766 0 
Q 1100 0 847 248 
Q 594 497 594 1153 
L 594 3053 
L 172 3053 
L 172 3500 
L 594 3500 
L 594 4494 
L 1172 4494 
z
" id="DejaVuSans-74" transform="scale(0.015625)"/>
       <path d="M 191 3500 
L 800 3500 
L 1894 563 
L 2988 3500 
L 3597 3500 
L 2284 0 
L 1503 0 
L 191 3500 
z
" id="DejaVuSans-76" transform="scale(0.015625)"/>
       <path id="DejaVuSans-20" transform="scale(0.015625)"/>
       <path d="M 2841 2188 
Q 3044 2119 3236 1894 
Q 3428 1669 3622 1275 
L 4263 0 
L 3584 0 
L 2988 1197 
Q 2756 1666 2539 1819 
Q 2322 1972 1947 1972 
L 1259 1972 
L 1259 0 
L 628 0 
L 628 4666 
L 2053 4666 
Q 2853 4666 3247 4331 
Q 3641 3997 3641 3322 
Q 3641 2881 3436 2590 
Q 3231 2300 2841 2188 
z
M 1259 4147 
L 1259 2491 
L 2053 2491 
Q 2509 2491 2742 2702 
Q 2975 2913 2975 3322 
Q 2975 3731 2742 3939 
Q 2509 4147 2053 4147 
L 1259 4147 
z
" id="DejaVuSans-52" transform="scale(0.015625)"/>
       <path d="M 269 3500 
L 844 3500 
L 1563 769 
L 2278 3500 
L 2956 3500 
L 3675 769 
L 4391 3500 
L 4966 3500 
L 4050 0 
L 3372 0 
L 2619 2869 
L 1863 0 
L 1184 0 
L 269 3500 
z
" id="DejaVuSans-77" transform="scale(0.015625)"/>
       <path d="M 2631 2963 
Q 2534 3019 2420 3045 
Q 2306 3072 2169 3072 
Q 1681 3072 1420 2755 
Q 1159 2438 1159 1844 
L 1159 0 
L 581 0 
L 581 3500 
L 1159 3500 
L 1159 2956 
Q 1341 3275 1631 3429 
Q 1922 3584 2338 3584 
Q 2397 3584 2469 3576 
Q 2541 3569 2628 3553 
L 2631 2963 
z
" id="DejaVuSans-72" transform="scale(0.015625)"/>
      </defs>
      <use xlink:href="#DejaVuSans-43"/>
      <use x="69.824219" xlink:href="#DejaVuSans-75"/>
      <use x="133.203125" xlink:href="#DejaVuSans-6d"/>
      <use x="230.615234" xlink:href="#DejaVuSans-75"/>
      <use x="293.994141" xlink:href="#DejaVuSans-6c"/>
      <use x="321.777344" xlink:href="#DejaVuSans-61"/>
      <use x="383.056641" xlink:href="#DejaVuSans-74"/>
      <use x="422.265625" xlink:href="#DejaVuSans-69"/>
      <use x="450.048828" xlink:href="#DejaVuSans-76"/>
      <use x="509.228516" xlink:href="#DejaVuSans-65"/>
      <use x="570.751953" xlink:href="#DejaVuSans-20"/>
      <use x="602.539062" xlink:href="#DejaVuSans-52"/>
      <use x="667.521484" xlink:href="#DejaVuSans-65"/>
      <use x="729.044922" xlink:href="#DejaVuSans-77"/>
      <use x="810.832031" xlink:href="#DejaVuSans-61"/>
      <use x="872.111328" xlink:href="#DejaVuSans-72"/>
      <use x="911.474609" xlink:href="#DejaVuSans-64"/>
     </g>
    </g>
   </g>
   <g id="line2d_27">
    <path clip-path="url(#p6a56012573)" d="M 57.6 131.991295 
L 57.77856 82.622034 
L 57.95712 83.700433 
L 58.13568 66.490022 
L 58.31424 131.991295 
L 58.4928 82.622034 
L 58.67136 83.700433 
L 58.84992 66.490022 
L 59.02848 131.991295 
L 59.20704 82.622034 
L 59.3856 83.700433 
L 59.56416 66.490022 
L 59.74272 131.991295 
L 59.92128 82.622034 
L 60.09984 83.700433 
L 60.2784 66.490022 
L 60.45696 131.991295 
L 60.63552 82.622034 
L 60.81408 83.700433 
L 60.99264 66.490022 
L 61.1712 131.991295 
L 61.34976 82.622034 
L 61.52832 83.700433 
L 61.70688 66.490022 
L 61.88544 131.991295 
L 62.064 82.622034 
L 62.24256 83.700433 
L 62.42112 66.490022 
L 62.59968 131.991295 
L 62.77824 82.622034 
L 62.9568 83.700433 
L 63.13536 66.490022 
L 63.31392 131.991295 
L 63.49248 82.622034 
L 63.67104 83.700433 
L 63.8496 66.490022 
L 64.02816 131.991295 
L 64.20672 82.622034 
L 64.38528 83.700433 
L 64.56384 66.490022 
L 64.7424 131.991295 
L 64.92096 82.622034 
L 65.09952 83.700433 
L 65.27808 66.490022 
L 65.45664 131.991295 
L 65.6352 82.622034 
L 65.81376 83.700433 
L 65.99232 66.490022 
L 66.17088 131.991295 
L 66.34944 82.622034 
L 66.528 83.700433 
L 66.70656 66.490022 
L 66.88512 131.991295 
L 67.06368 82.622034 
L 67.24224 83.700433 
L 67.4208 66.490022 
L 67.59936 131.991295 
L 67.77792 82.622034 
L 67.95648 83.700433 
L 68.13504 66.490022 
L 68.3136 131.991295 
L 68.49216 82.622034 
L 68.67072 83.700433 
L 68.84928 66.490022 
L 69.02784 131.991295 
L 69.2064 82.622034 
L 69.38496 83.700433 
L 69.56352 66.490022 
L 69.74208 131.991295 
L 69.92064 82.622034 
L 70.0992 83.700433 
L 70.27776 66.490022 
L 70.45632 131.991295 
L 70.63488 82.622034 
L 70.81344 83.700433 
L 70.992 66.490022 
L 71.17056 131.991295 
L 71.34912 82.622034 
L 71.52768 83.700433 
L 71.70624 66.490022 
L 71.8848 131.991295 
L 72.06336 82.622034 
L 72.24192 83.700433 
L 72.42048 66.490022 
L 72.59904 131.991295 
L 72.7776 82.622034 
L 72.95616 83.700433 
L 73.13472 66.490022 
L 73.31328 131.991295 
L 73.49184 82.622034 
L 73.6704 83.700433 
L 73.84896 66.490022 
L 74.02752 131.991295 
L 74.20608 82.622034 
L 74.38464 83.700433 
L 74.5632 66.490022 
L 74.74176 131.991295 
L 74.92032 82.622034 
L 75.09888 83.700433 
L 75.27744 66.490022 
L 75.456 91.728797 
L 75.63456 92.89731 
L 75.81312 125.375411 
L 75.99168 87.137484 
L 76.3488 109.440169 
L 76.52736 74.340719 
L 76.70592 68.432182 
L 76.88448 74.935771 
L 77.06304 98.144956 
L 77.2416 89.614022 
L 77.42016 131.717892 
L 77.59872 93.908285 
L 77.77728 152.233113 
L 77.95584 73.941809 
L 78.1344 99.703193 
L 78.31296 91.918956 
L 78.49152 122.825377 
L 78.67008 88.117021 
L 78.84864 104.883001 
L 79.20576 82.162139 
L 79.38432 90.765072 
L 79.74144 63.734314 
L 79.92 65.755767 
L 80.27712 99.897809 
L 80.45568 200.942932 
L 80.63424 237.634973 
L 80.99136 72.794245 
L 81.16992 90.448811 
L 81.34848 64.423721 
L 81.52704 95.493915 
L 81.7056 74.527034 
L 81.88416 123.751724 
L 82.06272 109.226376 
L 82.24128 137.577427 
L 82.41984 91.763384 
L 82.5984 85.141882 
L 82.77696 67.502311 
L 82.95552 147.157685 
L 83.13408 67.54842 
L 83.31264 85.048507 
L 83.4912 71.682937 
L 83.66976 90.201921 
L 83.84832 72.524401 
L 84.02688 84.222464 
L 84.20544 82.660851 
L 84.384 207.768052 
L 84.56256 82.109107 
L 84.74112 103.086918 
L 84.91968 167.216087 
L 85.09824 71.220376 
L 85.2768 97.518946 
L 85.45536 75.436866 
L 85.81248 110.729587 
L 85.99104 86.70169 
L 86.1696 95.579887 
L 86.34816 89.174455 
L 86.52672 103.657534 
L 86.70528 71.013805 
L 86.88384 100.05757 
L 87.0624 95.245184 
L 87.24096 76.635813 
L 87.41952 118.215154 
L 87.59808 116.479227 
L 87.77664 72.294434 
L 87.9552 94.177531 
L 88.13376 99.822423 
L 88.31232 165.550673 
L 88.49088 150.992673 
L 88.66944 86.007679 
L 88.848 103.940728 
L 89.20512 77.82786 
L 89.38368 73.796034 
L 89.56224 93.764999 
L 89.7408 81.81212 
L 89.91936 81.544446 
L 90.27648 63.788888 
L 90.45504 83.693227 
L 90.6336 83.753629 
L 90.81216 117.96273 
L 90.99072 70.217241 
L 91.16928 66.981821 
L 91.5264 103.440602 
L 91.70496 108.556004 
L 91.88352 73.149518 
L 92.24064 130.993726 
L 92.59776 75.826012 
L 92.77632 94.414619 
L 93.13344 72.216807 
L 93.312 116.710024 
L 93.49056 73.404579 
L 93.66912 87.283301 
L 93.84768 90.393421 
L 94.02624 96.727398 
L 94.2048 175.945969 
L 94.38336 85.80202 
L 94.56192 72.380126 
L 94.74048 77.005552 
L 94.91904 94.070778 
L 95.0976 72.985138 
L 95.27616 67.248356 
L 95.45472 76.498647 
L 95.63328 91.891103 
L 95.81184 119.410409 
L 95.9904 118.185196 
L 96.16896 79.655732 
L 96.34752 73.768981 
L 96.52608 71.627079 
L 96.70464 111.488684 
L 96.8832 196.999126 
L 97.06176 86.748467 
L 97.24032 173.086012 
L 97.59744 79.967878 
L 97.776 80.791658 
L 97.95456 124.309164 
L 98.13312 83.589421 
L 98.31168 137.033864 
L 98.49024 93.912662 
L 98.6688 78.207742 
L 98.84736 82.690362 
L 99.02592 83.264632 
L 99.20448 106.384186 
L 99.38304 222.574185 
L 99.5616 72.953052 
L 99.74016 88.001295 
L 99.91872 79.752381 
L 100.09728 78.055558 
L 100.27584 89.449988 
L 100.4544 156.236007 
L 100.63296 74.583617 
L 100.81152 89.821783 
L 100.99008 85.142984 
L 101.16864 63.910913 
L 101.3472 97.553526 
L 101.52576 95.95653 
L 101.70432 85.276585 
L 101.88288 87.484733 
L 102.06144 68.476316 
L 102.24 67.229664 
L 102.41856 109.046412 
L 102.59712 70.916732 
L 102.95424 137.44494 
L 103.1328 100.621739 
L 103.31136 114.4481 
L 103.48992 69.0345 
L 103.66848 68.064443 
L 103.84704 76.323848 
L 104.0256 76.212198 
L 104.20416 97.938056 
L 104.38272 74.199478 
L 104.73984 163.015542 
L 104.9184 89.687546 
L 105.09696 92.203857 
L 105.27552 165.31192 
L 105.45408 72.752991 
L 105.63264 67.293458 
L 105.8112 102.710949 
L 105.98976 82.465018 
L 106.16832 187.16808 
L 106.34688 86.27527 
L 106.52544 88.661194 
L 106.704 113.140474 
L 106.88256 72.077317 
L 107.06112 89.490375 
L 107.23968 70.532432 
L 107.41824 85.5188 
L 107.5968 82.395774 
L 107.77536 115.999438 
L 107.95392 75.48439 
L 108.13248 64.217813 
L 108.4896 126.415111 
L 108.66816 79.909651 
L 108.84672 169.193938 
L 109.02528 91.429799 
L 109.20384 83.248564 
L 109.3824 66.218504 
L 109.56096 70.420202 
L 109.73952 89.068467 
L 109.91808 81.69832 
L 110.09664 80.286102 
L 110.2752 103.501747 
L 110.45376 69.291639 
L 110.63232 132.518259 
L 110.81088 83.801472 
L 110.98944 80.988677 
L 111.168 90.063077 
L 111.34656 85.947946 
L 111.88224 107.715841 
L 112.0608 86.405242 
L 112.23936 84.290411 
L 112.41792 64.095799 
L 112.59648 70.707772 
L 112.77504 85.802497 
L 112.9536 67.377407 
L 113.13216 141.982374 
L 113.31072 92.730297 
L 113.48928 88.998054 
L 113.66784 148.130333 
L 113.8464 75.975034 
L 114.02496 83.547025 
L 114.20352 80.088183 
L 114.38208 84.143323 
L 114.56064 99.836969 
L 114.7392 85.561578 
L 114.91776 95.758175 
L 115.09632 151.775644 
L 115.27488 81.578274 
L 115.45344 74.542481 
L 115.632 94.791532 
L 115.81056 91.377233 
L 115.98912 110.755613 
L 116.5248 67.534468 
L 116.70336 74.623631 
L 116.88192 87.05177 
L 117.06048 63.712176 
L 117.4176 89.703281 
L 117.59616 81.811746 
L 117.77472 88.883764 
L 117.95328 80.198127 
L 118.13184 66.039712 
L 118.3104 82.467875 
L 118.48896 74.970753 
L 118.66752 87.2404 
L 119.02464 136.455662 
L 119.38176 64.967826 
L 119.91744 146.427393 
L 120.096 78.229868 
L 120.45312 100.65512 
L 120.63168 78.59384 
L 120.81024 77.744568 
L 120.9888 81.213921 
L 121.16736 92.094758 
L 121.52448 78.543483 
L 121.70304 114.169198 
L 121.8816 67.175873 
L 122.06016 78.743694 
L 122.41728 64.345373 
L 122.59584 68.393179 
L 122.7744 105.608478 
L 122.95296 75.667121 
L 123.13152 116.091586 
L 123.31008 88.16156 
L 123.48864 92.273719 
L 123.84576 80.723788 
L 124.20288 73.000534 
L 124.38144 102.929869 
L 124.56 87.846107 
L 124.73856 107.343048 
L 124.91712 78.153121 
L 125.09568 69.225313 
L 125.27424 217.286936 
L 125.4528 111.114452 
L 125.63136 228.363056 
L 125.80992 69.958214 
L 125.98848 66.793343 
L 126.16704 100.845664 
L 126.3456 79.636489 
L 126.52416 108.334759 
L 126.70272 71.213838 
L 127.05984 95.742387 
L 127.2384 97.035432 
L 127.41696 85.202246 
L 127.59552 157.651224 
L 127.77408 161.933316 
L 127.95264 169.961611 
L 128.1312 86.263393 
L 128.30976 70.986349 
L 128.48832 98.845719 
L 128.66688 192.093067 
L 128.84544 70.141471 
L 129.024 120.305203 
L 129.20256 129.250427 
L 129.38112 75.703442 
L 129.55968 202.214301 
L 129.73824 176.036653 
L 129.9168 76.152526 
L 130.09536 75.106634 
L 130.27392 92.906999 
L 130.45248 64.1698 
L 130.63104 68.820713 
L 130.8096 78.437747 
L 130.98816 117.920218 
L 131.16672 80.934244 
L 131.34528 151.478178 
L 131.52384 68.758327 
L 131.7024 82.039249 
L 131.88096 201.654863 
L 132.05952 68.985124 
L 132.23808 70.650119 
L 132.41664 171.130844 
L 132.5952 83.490206 
L 132.95232 123.170319 
L 133.13088 63.658254 
L 133.30944 91.484011 
L 133.488 72.532254 
L 133.66656 72.502621 
L 134.02368 124.037301 
L 134.3808 68.88378 
L 134.55936 88.260032 
L 134.73792 87.503224 
L 134.91648 63.768065 
L 135.09504 77.251452 
L 135.2736 78.335711 
L 135.45216 75.053012 
L 135.63072 68.396099 
L 135.80928 67.866527 
L 135.98784 77.292217 
L 136.1664 285.408 
L 136.34496 72.067117 
L 136.52352 126.426802 
L 136.88064 69.245998 
L 137.0592 89.710451 
L 137.23776 65.112629 
L 137.41632 102.602461 
L 137.59488 65.917895 
L 137.77344 66.112445 
L 137.952 81.455817 
L 138.13056 63.691755 
L 138.30912 146.60885 
L 138.48768 94.382243 
L 138.66624 82.227724 
L 138.8448 163.942502 
L 139.02336 107.330423 
L 139.20192 143.908033 
L 139.38048 137.176669 
L 139.55904 82.635921 
L 140.09472 85.826191 
L 140.27328 91.985894 
L 140.45184 102.123013 
L 140.6304 81.748271 
L 140.80896 103.093888 
L 140.98752 140.530747 
L 141.16608 95.074526 
L 141.34464 86.905823 
L 141.5232 125.171376 
L 141.70176 123.166015 
L 141.88032 70.155746 
L 142.05888 99.487676 
L 142.416 63.943837 
L 142.59456 84.814138 
L 142.77312 153.124943 
L 143.13024 64.158147 
L 143.3088 74.932908 
L 143.48736 118.872451 
L 143.66592 69.777681 
L 143.84448 118.331977 
L 144.02304 86.507395 
L 144.2016 150.644667 
L 144.38016 90.373584 
L 144.73728 80.797579 
L 144.91584 132.811485 
L 145.0944 67.079378 
L 145.27296 79.878251 
L 145.45152 134.401397 
L 145.63008 78.114906 
L 145.80864 105.009215 
L 145.9872 83.92959 
L 146.34432 130.241715 
L 146.52288 82.944925 
L 146.70144 78.335398 
L 146.88 69.006884 
L 147.05856 162.892985 
L 147.23712 72.506788 
L 147.41568 87.236833 
L 147.59424 116.558694 
L 147.7728 67.235903 
L 147.95136 79.627812 
L 148.12992 117.613761 
L 148.30848 74.234334 
L 148.48704 108.773716 
L 148.6656 70.590309 
L 148.84416 130.055277 
L 149.02272 69.416416 
L 149.20128 82.995133 
L 149.37984 159.383575 
L 149.5584 71.772619 
L 149.73696 71.454087 
L 150.09408 100.843841 
L 150.27264 105.576138 
L 150.4512 130.816743 
L 150.62976 82.71241 
L 150.80832 68.562316 
L 150.98688 81.539321 
L 151.16544 79.165504 
L 151.344 78.738497 
L 151.52256 80.08531 
L 151.70112 154.872724 
L 152.05824 80.589518 
L 152.2368 126.956532 
L 152.41536 84.036923 
L 152.59392 197.583871 
L 152.77248 106.284085 
L 153.1296 92.166027 
L 153.30816 92.567412 
L 153.48672 94.487414 
L 153.66528 67.879709 
L 153.84384 63.960712 
L 154.20096 114.479026 
L 154.73664 70.222343 
L 154.9152 109.208041 
L 155.27232 78.253898 
L 155.45088 75.76814 
L 155.62944 97.069904 
L 155.808 89.116669 
L 155.98656 69.858423 
L 156.34368 78.524042 
L 156.52224 101.856679 
L 156.7008 188.018042 
L 156.87936 98.036165 
L 157.23648 64.019696 
L 157.41504 80.674082 
L 157.5936 112.172584 
L 157.77216 78.216998 
L 157.95072 91.133447 
L 158.12928 78.028834 
L 158.30784 112.975078 
L 158.4864 119.820989 
L 158.66496 103.638558 
L 158.84352 100.237994 
L 159.02208 66.337845 
L 159.20064 144.265878 
L 159.55776 113.14607 
L 159.73632 67.559849 
L 159.91488 80.730947 
L 160.09344 73.227523 
L 160.272 82.52677 
L 160.45056 81.205901 
L 160.62912 88.336256 
L 160.80768 140.193289 
L 160.98624 84.417443 
L 161.1648 79.538026 
L 161.34336 109.504662 
L 161.52192 92.798569 
L 161.70048 201.11706 
L 161.87904 96.548163 
L 162.0576 139.650843 
L 162.23616 75.50111 
L 162.41472 160.909346 
L 162.59328 92.615735 
L 162.77184 98.457183 
L 162.9504 91.5179 
L 163.12896 68.903189 
L 163.30752 92.026874 
L 163.48608 79.590464 
L 163.66464 90.562287 
L 163.8432 65.16384 
L 164.02176 168.193549 
L 164.37888 82.936053 
L 164.55744 138.893981 
L 164.736 86.824176 
L 164.91456 176.693679 
L 165.09312 79.864846 
L 165.45024 110.657696 
L 165.80736 85.971205 
L 165.98592 112.77806 
L 166.16448 85.705864 
L 166.34304 88.429767 
L 166.5216 119.364682 
L 166.87872 79.76858 
L 167.05728 108.545371 
L 167.4144 91.555157 
L 167.59296 141.510303 
L 167.77152 89.592958 
L 167.95008 79.490072 
L 168.12864 153.550146 
L 168.3072 91.087042 
L 168.66432 152.080146 
L 168.84288 131.664414 
L 169.02144 88.053243 
L 169.2 79.054058 
L 169.37856 78.972834 
L 169.55712 67.312408 
L 169.73568 86.095545 
L 169.91424 79.438575 
L 170.0928 78.035002 
L 170.27136 130.266733 
L 170.62848 65.42981 
L 170.80704 73.297731 
L 170.9856 69.439027 
L 171.16416 115.653251 
L 171.34272 124.081449 
L 171.52128 85.039063 
L 171.69984 80.252741 
L 171.8784 83.014329 
L 172.05696 69.37118 
L 172.23552 89.992974 
L 172.41408 77.442713 
L 172.59264 84.318116 
L 172.7712 81.389556 
L 172.94976 93.386763 
L 173.12832 66.05311 
L 173.30688 135.692344 
L 173.664 80.037343 
L 173.84256 79.746013 
L 174.02112 74.690797 
L 174.19968 88.323867 
L 174.37824 113.184103 
L 174.5568 78.972065 
L 174.73536 97.59172 
L 174.91392 87.102771 
L 175.09248 64.196039 
L 175.27104 81.918358 
L 175.4496 77.188379 
L 175.62816 123.693794 
L 175.80672 121.609106 
L 175.98528 83.709029 
L 176.16384 100.873361 
L 176.3424 83.363668 
L 176.52096 93.070551 
L 176.69952 74.416341 
L 176.87808 74.61448 
L 177.05664 64.926332 
L 177.2352 125.732077 
L 177.41376 81.332776 
L 177.59232 77.723531 
L 177.77088 89.186708 
L 177.94944 85.703828 
L 178.30656 105.353109 
L 178.48512 143.578968 
L 178.66368 105.269576 
L 178.84224 188.863465 
L 179.0208 70.760238 
L 179.19936 98.340502 
L 179.37792 87.958167 
L 179.55648 148.05723 
L 179.73504 157.022538 
L 179.9136 139.26914 
L 180.09216 77.649331 
L 180.44928 88.395638 
L 180.62784 131.622482 
L 180.8064 93.413745 
L 180.98496 187.025226 
L 181.34208 76.37112 
L 181.52064 73.512658 
L 181.6992 102.023768 
L 181.87776 72.109248 
L 182.05632 148.411437 
L 182.23488 64.849462 
L 182.41344 97.171885 
L 182.592 101.69752 
L 182.94912 232.707187 
L 183.30624 94.414468 
L 183.4848 79.402252 
L 183.66336 139.887279 
L 184.02048 64.862892 
L 184.3776 92.358638 
L 184.55616 74.194583 
L 184.73472 77.85877 
L 184.91328 67.070131 
L 185.09184 85.337165 
L 185.2704 73.206909 
L 185.44896 101.132186 
L 185.62752 67.807143 
L 185.98464 88.250745 
L 186.1632 121.923753 
L 186.34176 89.975647 
L 186.52032 90.649509 
L 186.69888 69.532029 
L 186.87744 117.900621 
L 187.056 105.406345 
L 187.23456 147.006601 
L 187.41312 133.421116 
L 187.59168 99.148859 
L 187.77024 92.912808 
L 187.9488 143.706624 
L 188.12736 89.60361 
L 188.30592 164.58035 
L 188.48448 81.261072 
L 188.66304 121.72143 
L 188.8416 102.140356 
L 189.02016 69.680701 
L 189.19872 115.389436 
L 189.37728 86.167313 
L 189.55584 78.97914 
L 189.7344 110.221842 
L 189.91296 74.502192 
L 190.09152 80.592213 
L 190.27008 96.552515 
L 190.44864 197.262222 
L 190.80576 73.488636 
L 190.98432 76.136462 
L 191.16288 129.259042 
L 191.34144 129.125722 
L 191.52 88.78212 
L 191.69856 168.61535 
L 192.05568 74.088471 
L 192.59136 147.818467 
L 192.76992 90.790245 
L 193.12704 97.950383 
L 193.3056 81.745108 
L 193.48416 75.827742 
L 193.66272 78.172157 
L 193.84128 127.881431 
L 194.01984 117.9216 
L 194.1984 87.654346 
L 194.37696 92.682706 
L 194.55552 90.441822 
L 194.73408 117.659833 
L 195.0912 68.445598 
L 195.26976 63.738333 
L 195.80544 73.238175 
L 195.984 114.860137 
L 196.16256 81.646959 
L 196.34112 91.342484 
L 196.51968 246.133077 
L 196.69824 89.356989 
L 196.8768 81.204917 
L 197.05536 67.820066 
L 197.23392 113.949611 
L 197.41248 119.423111 
L 197.59104 83.075859 
L 197.7696 85.67332 
L 197.94816 139.818178 
L 198.12672 92.47245 
L 198.30528 78.601652 
L 198.48384 94.694765 
L 198.6624 75.96531 
L 198.84096 91.794509 
L 199.01952 65.789797 
L 199.19808 74.571202 
L 199.37664 63.909906 
L 199.91232 152.035817 
L 200.26944 90.235404 
L 200.448 117.748442 
L 200.62656 75.583388 
L 200.80512 69.593481 
L 200.98368 105.489641 
L 201.16224 107.531912 
L 201.3408 86.364018 
L 201.51936 82.842501 
L 201.69792 121.903385 
L 201.87648 92.551992 
L 202.2336 69.216603 
L 202.41216 163.086516 
L 202.59072 93.096899 
L 202.76928 97.3505 
L 202.94784 254.560677 
L 203.1264 126.932294 
L 203.30496 126.022106 
L 203.66208 65.042041 
L 203.84064 100.922001 
L 204.0192 72.128462 
L 204.19776 63.71436 
L 204.55488 103.228408 
L 204.73344 93.706112 
L 204.912 94.668626 
L 205.09056 85.497672 
L 205.26912 87.151573 
L 205.44768 64.671462 
L 205.62624 111.371245 
L 205.98336 80.656024 
L 206.16192 118.344859 
L 206.34048 81.481061 
L 206.51904 120.248691 
L 206.6976 127.676329 
L 207.05472 71.886365 
L 207.41184 93.63454 
L 207.5904 118.414808 
L 207.94752 69.66194 
L 208.12608 92.435616 
L 208.30464 100.733314 
L 208.66176 75.36134 
L 208.84032 67.712178 
L 209.01888 173.233464 
L 209.19744 81.36245 
L 209.376 137.834375 
L 209.55456 63.662903 
L 209.73312 115.543395 
L 209.91168 66.262274 
L 210.09024 85.18257 
L 210.2688 73.068704 
L 210.44736 152.411752 
L 210.62592 97.308429 
L 210.80448 91.208168 
L 210.98304 73.819645 
L 211.34016 63.690868 
L 211.51872 85.766431 
L 211.69728 72.402758 
L 212.0544 102.469035 
L 212.23296 65.982508 
L 212.41152 94.021111 
L 212.59008 101.870749 
L 212.76864 170.134004 
L 212.9472 114.662558 
L 213.12576 152.295048 
L 213.48288 65.374434 
L 213.66144 184.732063 
L 214.01856 82.642807 
L 214.19712 88.926369 
L 214.37568 82.121293 
L 214.55424 213.168861 
L 214.7328 86.242697 
L 214.91136 71.400881 
L 215.08992 76.510265 
L 215.26848 71.960639 
L 215.44704 90.157103 
L 215.6256 86.573457 
L 215.98272 90.852987 
L 216.16128 64.922612 
L 216.33984 78.007999 
L 216.5184 111.656617 
L 216.69696 122.17006 
L 216.87552 70.146849 
L 217.05408 106.635807 
L 217.23264 80.505271 
L 217.4112 107.647803 
L 217.58976 104.36544 
L 217.76832 78.069379 
L 217.94688 68.324271 
L 218.12544 80.16301 
L 218.304 144.323167 
L 218.48256 79.189916 
L 218.83968 113.325465 
L 219.01824 162.234429 
L 219.37536 69.14284 
L 219.55392 74.840148 
L 219.73248 149.367259 
L 219.91104 84.017662 
L 220.0896 111.552356 
L 220.26816 94.504358 
L 220.62528 78.74598 
L 220.80384 110.804909 
L 220.9824 77.092107 
L 221.16096 113.74746 
L 221.33952 92.869489 
L 221.51808 90.210149 
L 221.69664 155.51211 
L 221.8752 71.273138 
L 222.05376 78.071613 
L 222.23232 174.809551 
L 222.41088 109.158838 
L 222.768 75.234925 
L 222.94656 151.802912 
L 223.12512 63.757329 
L 223.48224 248.371328 
L 223.83936 67.639622 
L 224.01792 66.310501 
L 224.19648 81.338004 
L 224.37504 70.058979 
L 224.5536 86.719853 
L 224.73216 91.165045 
L 224.91072 91.917227 
L 225.08928 197.778285 
L 225.4464 65.051284 
L 225.62496 66.410381 
L 225.80352 81.19235 
L 225.98208 117.41753 
L 226.16064 66.112572 
L 226.3392 166.88092 
L 226.51776 86.831112 
L 226.69632 149.443032 
L 227.05344 69.715094 
L 227.232 177.638849 
L 227.41056 80.765751 
L 227.58912 117.950363 
L 227.76768 64.684669 
L 228.1248 76.372646 
L 228.30336 71.213054 
L 228.48192 121.702491 
L 228.66048 104.564886 
L 228.83904 123.409269 
L 229.0176 116.20381 
L 229.37472 76.80611 
L 229.55328 87.479884 
L 230.08896 64.294641 
L 230.26752 119.218455 
L 230.44608 74.018334 
L 230.62464 140.686639 
L 230.8032 75.345753 
L 230.98176 64.746953 
L 231.16032 66.320208 
L 231.51744 213.222121 
L 231.696 72.230598 
L 231.87456 78.396775 
L 232.05312 106.643145 
L 232.23168 81.676644 
L 232.5888 98.760292 
L 232.76736 64.740374 
L 232.94592 65.775459 
L 233.12448 69.061996 
L 233.30304 94.212522 
L 233.83872 77.764554 
L 234.01728 77.691982 
L 234.19584 112.571053 
L 234.3744 82.278269 
L 234.55296 253.762603 
L 234.73152 111.274745 
L 234.91008 82.402177 
L 235.08864 108.030445 
L 235.44576 70.025355 
L 235.80288 90.747773 
L 235.98144 80.992296 
L 236.16 83.515496 
L 236.51712 127.492267 
L 236.69568 75.877769 
L 236.87424 72.931591 
L 237.0528 109.559912 
L 237.23136 79.331292 
L 237.40992 136.110608 
L 237.58848 83.938017 
L 237.76704 80.029308 
L 237.9456 71.868506 
L 238.12416 81.513635 
L 238.30272 77.304678 
L 238.48128 141.757243 
L 238.65984 90.844886 
L 238.8384 103.776239 
L 239.01696 105.727242 
L 239.19552 72.89424 
L 239.55264 120.712425 
L 239.7312 83.816708 
L 239.90976 150.105174 
L 240.08832 76.091813 
L 240.26688 94.632194 
L 240.44544 77.733748 
L 240.624 94.082925 
L 240.80256 71.128066 
L 240.98112 77.113784 
L 241.15968 115.681953 
L 241.33824 73.903648 
L 241.5168 96.019951 
L 241.69536 180.382128 
L 241.87392 79.784676 
L 242.05248 87.828249 
L 242.23104 66.805613 
L 242.4096 142.692837 
L 242.58816 83.469672 
L 242.76672 73.439944 
L 242.94528 150.498566 
L 243.12384 74.356119 
L 243.3024 98.94481 
L 243.48096 82.753827 
L 243.65952 117.325932 
L 243.83808 77.838292 
L 244.1952 102.728024 
L 244.37376 168.696091 
L 244.55232 85.298637 
L 244.90944 96.729856 
L 245.088 87.132129 
L 245.26656 124.280105 
L 245.44512 112.647056 
L 245.62368 143.196823 
L 245.80224 120.235614 
L 245.9808 68.183637 
L 246.15936 69.825478 
L 246.33792 65.76408 
L 246.51648 78.75136 
L 246.69504 70.384725 
L 246.8736 103.538523 
L 247.05216 114.807186 
L 247.23072 110.30647 
L 247.40928 82.338727 
L 247.58784 72.10537 
L 247.7664 90.14762 
L 247.94496 92.845378 
L 248.12352 81.973511 
L 248.30208 78.473593 
L 248.48064 91.543078 
L 248.6592 73.627694 
L 248.83776 174.438113 
L 249.01632 82.730822 
L 249.37344 144.310574 
L 249.552 145.198689 
L 249.73056 168.179572 
L 249.90912 103.884756 
L 250.08768 80.24889 
L 250.26624 112.267435 
L 250.62336 81.847218 
L 250.80192 92.166075 
L 250.98048 67.47984 
L 251.15904 104.42501 
L 251.3376 99.677163 
L 251.51616 81.309866 
L 251.69472 84.093047 
L 251.87328 137.077504 
L 252.05184 74.102838 
L 252.2304 70.20072 
L 252.40896 107.893389 
L 252.58752 65.945885 
L 253.1232 156.827907 
L 253.30176 158.660727 
L 253.48032 73.575341 
L 253.65888 68.218551 
L 253.83744 72.308905 
L 254.016 128.695185 
L 254.19456 74.130739 
L 254.37312 204.63053 
L 254.55168 100.849039 
L 254.73024 90.635407 
L 254.9088 93.681108 
L 255.08736 111.042791 
L 255.26592 103.274857 
L 255.44448 116.317167 
L 255.62304 74.341555 
L 255.8016 86.1028 
L 255.98016 78.717389 
L 256.15872 112.180395 
L 256.33728 114.835847 
L 256.51584 85.744375 
L 256.6944 96.018675 
L 256.87296 75.777282 
L 257.05152 87.378112 
L 257.23008 68.825432 
L 257.40864 90.873439 
L 257.5872 87.616762 
L 257.76576 175.913516 
L 257.94432 70.877996 
L 258.12288 96.586997 
L 258.30144 97.721222 
L 258.48 81.704089 
L 258.65856 94.692167 
L 258.83712 80.272935 
L 259.01568 103.297018 
L 259.19424 96.277088 
L 259.55136 70.430186 
L 259.72992 127.11806 
L 259.90848 69.632301 
L 260.2656 83.26416 
L 260.44416 118.778684 
L 260.62272 105.145257 
L 260.80128 109.892587 
L 260.97984 96.761667 
L 261.1584 110.989385 
L 261.33696 64.464489 
L 261.69408 116.338535 
L 261.87264 80.476005 
L 262.0512 152.000423 
L 262.22976 74.532375 
L 262.40832 106.73093 
L 262.58688 74.023827 
L 262.76544 80.881909 
L 262.944 77.332955 
L 263.12256 81.996264 
L 263.30112 109.012941 
L 263.47968 80.335059 
L 263.65824 89.721616 
L 263.8368 83.58553 
L 264.01536 84.016189 
L 264.19392 73.125299 
L 264.37248 90.729943 
L 264.55104 173.035684 
L 264.7296 70.885973 
L 265.08672 116.7009 
L 265.26528 165.525912 
L 265.44384 96.040885 
L 265.6224 82.218105 
L 265.80096 117.049297 
L 265.97952 83.89586 
L 266.15808 82.41631 
L 266.33664 73.670528 
L 266.5152 103.585971 
L 266.69376 82.417693 
L 266.87232 102.471709 
L 267.05088 137.052903 
L 267.22944 79.524114 
L 267.408 77.650096 
L 267.58656 77.036475 
L 267.76512 104.521559 
L 267.94368 70.904834 
L 268.12224 101.129197 
L 268.3008 107.644457 
L 268.47936 88.973215 
L 268.65792 96.681991 
L 268.83648 109.46812 
L 269.1936 80.399221 
L 269.37216 91.036776 
L 269.55072 166.046764 
L 269.72928 152.447408 
L 269.90784 90.714968 
L 270.0864 79.381518 
L 270.26496 114.639993 
L 270.44352 82.488775 
L 270.62208 90.729252 
L 270.80064 106.683544 
L 271.15776 72.822811 
L 271.51488 134.451866 
L 271.69344 71.205454 
L 271.872 127.221595 
L 272.05056 126.171927 
L 272.22912 96.085969 
L 272.40768 97.093101 
L 272.58624 129.841694 
L 273.12192 74.344946 
L 273.30048 81.715908 
L 273.47904 68.93333 
L 273.6576 79.92608 
L 273.83616 108.86713 
L 274.01472 72.27008 
L 274.19328 99.09359 
L 274.37184 87.830601 
L 274.5504 89.870616 
L 274.72896 95.361156 
L 274.90752 91.034042 
L 275.08608 95.123827 
L 275.26464 81.826072 
L 275.4432 81.052601 
L 275.62176 167.702778 
L 275.80032 76.94644 
L 275.97888 65.466407 
L 276.15744 117.177353 
L 276.336 70.834355 
L 276.51456 174.805642 
L 276.69312 205.018472 
L 276.87168 90.897508 
L 277.05024 80.058633 
L 277.2288 214.082468 
L 277.40736 112.758192 
L 277.76448 67.482801 
L 277.94304 83.737612 
L 278.1216 65.151167 
L 278.30016 116.640019 
L 278.47872 102.3691 
L 278.65728 117.467324 
L 278.83584 76.299305 
L 279.0144 122.489501 
L 279.19296 90.476512 
L 279.37152 82.509392 
L 279.55008 104.0674 
L 279.72864 69.77199 
L 279.9072 91.429237 
L 280.08576 87.86643 
L 280.26432 69.100281 
L 280.44288 77.6094 
L 280.62144 122.549237 
L 280.97856 73.102596 
L 281.15712 88.214113 
L 281.33568 89.77487 
L 281.51424 69.717843 
L 281.6928 72.589409 
L 281.87136 115.50238 
L 282.04992 105.807318 
L 282.22848 70.353226 
L 282.40704 65.85608 
L 282.5856 132.378731 
L 282.76416 93.336854 
L 282.94272 88.719751 
L 283.12128 68.208525 
L 283.29984 86.596658 
L 283.4784 137.088694 
L 283.83552 76.571712 
L 284.01408 64.715207 
L 284.3712 95.027817 
L 284.54976 84.964696 
L 284.72832 122.46487 
L 284.90688 100.726721 
L 285.08544 99.059182 
L 285.264 69.635167 
L 285.44256 127.754097 
L 285.62112 64.646615 
L 285.79968 100.142378 
L 285.97824 92.585427 
L 286.1568 96.043951 
L 286.33536 126.663517 
L 286.51392 71.228325 
L 286.69248 91.504393 
L 286.87104 65.826769 
L 287.0496 84.05756 
L 287.22816 65.248541 
L 287.58528 83.64622 
L 287.76384 67.371545 
L 287.9424 109.857494 
L 288.12096 76.004259 
L 288.29952 83.102043 
L 288.47808 164.612924 
L 288.65664 74.0045 
L 288.8352 101.604765 
L 289.01376 84.819539 
L 289.19232 116.852747 
L 289.37088 121.34093 
L 289.90656 73.76495 
L 290.08512 72.731219 
L 290.26368 121.574708 
L 290.44224 66.622252 
L 290.6208 124.668899 
L 290.97792 76.161629 
L 291.15648 75.031775 
L 291.33504 82.605375 
L 291.5136 77.669608 
L 291.69216 106.583299 
L 291.87072 88.381076 
L 292.04928 106.582831 
L 292.22784 137.892422 
L 292.4064 74.033528 
L 292.58496 82.200302 
L 292.76352 110.81879 
L 293.12064 72.562188 
L 293.2992 70.503967 
L 293.47776 88.448389 
L 293.65632 70.748055 
L 293.83488 163.100326 
L 294.192 65.380602 
L 294.37056 64.744019 
L 294.54912 114.847599 
L 294.72768 76.672494 
L 294.90624 125.386651 
L 295.0848 85.34836 
L 295.26336 114.409618 
L 295.44192 102.663383 
L 295.62048 63.673238 
L 295.79904 122.907002 
L 295.9776 72.301775 
L 296.33472 72.974072 
L 296.51328 112.758093 
L 296.8704 77.280634 
L 297.04896 85.699328 
L 297.22752 194.817661 
L 297.40608 94.292379 
L 297.58464 79.476552 
L 297.7632 88.094417 
L 297.94176 90.386817 
L 298.12032 156.988984 
L 298.47744 69.26694 
L 298.83456 141.473083 
L 299.01312 98.414221 
L 299.19168 102.914334 
L 299.37024 78.495144 
L 299.5488 183.049296 
L 299.72736 75.774621 
L 299.90592 149.657883 
L 300.08448 68.654215 
L 300.4416 158.776611 
L 300.62016 157.549081 
L 301.15584 67.750026 
L 301.3344 67.424284 
L 301.51296 126.568943 
L 301.69152 63.731874 
L 301.87008 195.670009 
L 302.04864 76.712246 
L 302.2272 133.963102 
L 302.40576 115.854499 
L 302.58432 80.624844 
L 302.76288 118.901265 
L 302.94144 76.362375 
L 303.12 118.166231 
L 303.29856 105.158147 
L 303.47712 100.311815 
L 303.65568 106.350949 
L 303.83424 99.787899 
L 304.19136 67.60543 
L 304.36992 95.550928 
L 304.54848 73.6703 
L 304.72704 113.358231 
L 305.08416 63.668879 
L 305.26272 94.486613 
L 305.44128 97.823174 
L 305.61984 98.461933 
L 305.7984 84.696355 
L 305.97696 83.461157 
L 306.15552 108.181751 
L 306.51264 64.729517 
L 306.6912 89.742859 
L 306.86976 66.989735 
L 307.04832 93.463651 
L 307.22688 73.738444 
L 307.40544 74.212504 
L 307.584 68.682737 
L 307.94112 104.096754 
L 308.11968 69.187076 
L 308.29824 93.940207 
L 308.4768 66.227079 
L 308.65536 99.750202 
L 308.83392 85.382306 
L 309.01248 131.915885 
L 309.19104 88.315706 
L 309.3696 88.307167 
L 309.54816 91.546841 
L 309.72672 128.65667 
L 309.90528 91.763614 
L 310.08384 80.458087 
L 310.2624 82.331154 
L 310.44096 82.695581 
L 310.61952 80.217631 
L 310.97664 149.196268 
L 311.33376 106.464894 
L 311.51232 66.979391 
L 311.69088 102.533689 
L 311.86944 78.161612 
L 312.048 90.180696 
L 312.22656 68.446547 
L 312.40512 110.678246 
L 312.58368 64.842215 
L 312.76224 73.529257 
L 312.9408 98.610167 
L 313.11936 92.407657 
L 313.29792 71.247136 
L 313.65504 84.62044 
L 313.8336 65.472859 
L 314.01216 67.851901 
L 314.19072 67.1347 
L 314.36928 65.589837 
L 314.54784 89.976003 
L 314.7264 71.880889 
L 314.90496 67.24729 
L 315.08352 105.7065 
L 315.26208 71.739052 
L 315.44064 81.545403 
L 315.6192 69.7245 
L 315.79776 174.663971 
L 315.97632 67.696448 
L 316.15488 271.491156 
L 316.33344 80.13458 
L 316.512 80.660584 
L 316.69056 89.63137 
L 316.86912 69.93509 
L 317.04768 102.682874 
L 317.22624 66.120646 
L 317.4048 120.845119 
L 317.58336 69.474223 
L 317.76192 80.673129 
L 317.94048 73.381457 
L 318.11904 138.506629 
L 318.47616 69.407049 
L 318.65472 93.937561 
L 318.83328 63.870124 
L 319.1904 92.402166 
L 319.36896 122.584768 
L 319.72608 70.199005 
L 319.90464 66.295656 
L 320.0832 67.075821 
L 320.26176 104.932033 
L 320.44032 77.895179 
L 320.61888 86.135697 
L 320.976 120.949908 
L 321.33312 90.952276 
L 321.51168 103.024544 
L 321.69024 88.500345 
L 321.8688 97.054899 
L 322.04736 78.501073 
L 322.40448 152.892161 
L 322.58304 72.933167 
L 322.7616 126.634157 
L 322.94016 72.757239 
L 323.11872 95.880291 
L 323.29728 104.464482 
L 323.47584 94.497536 
L 323.6544 78.052746 
L 323.83296 117.95187 
L 324.01152 98.149743 
L 324.19008 96.946329 
L 324.36864 80.632017 
L 324.5472 95.911735 
L 324.72576 73.522082 
L 324.90432 169.625969 
L 325.08288 142.637753 
L 325.26144 95.822459 
L 325.44 135.125823 
L 325.61856 83.093728 
L 325.79712 87.626259 
L 325.97568 72.681361 
L 326.15424 67.250626 
L 326.3328 98.312455 
L 326.51136 69.275833 
L 326.68992 111.93705 
L 326.86848 81.864587 
L 327.04704 130.972857 
L 327.2256 68.086899 
L 327.40416 119.988158 
L 327.58272 79.807277 
L 327.76128 146.701803 
L 328.1184 82.766442 
L 328.29696 81.209238 
L 328.47552 71.348881 
L 328.65408 78.974486 
L 328.83264 213.65004 
L 329.0112 73.519747 
L 329.36832 107.978312 
L 329.72544 94.411593 
L 329.904 87.475111 
L 330.08256 96.109123 
L 330.26112 126.245671 
L 330.43968 87.857813 
L 330.61824 108.195484 
L 330.97536 84.876604 
L 331.15392 120.266926 
L 331.33248 74.050471 
L 331.51104 143.815354 
L 331.86816 77.398048 
L 332.40384 103.618807 
L 332.5824 127.839836 
L 332.93952 96.562336 
L 333.29664 65.544721 
L 333.4752 99.128766 
L 333.65376 76.772975 
L 333.83232 73.100094 
L 334.01088 90.321646 
L 334.18944 92.991394 
L 334.368 69.490185 
L 334.54656 97.258286 
L 334.72512 67.819027 
L 334.90368 125.478617 
L 335.2608 86.352217 
L 335.43936 118.97076 
L 335.61792 71.555124 
L 335.79648 102.019968 
L 335.97504 65.070359 
L 336.1536 85.700806 
L 336.33216 86.914696 
L 336.51072 107.46382 
L 336.68928 114.138331 
L 336.86784 75.322912 
L 337.0464 85.810026 
L 337.22496 128.37944 
L 337.40352 77.64673 
L 337.58208 78.060237 
L 337.76064 91.528825 
L 338.11776 86.755648 
L 338.29632 72.249202 
L 338.47488 68.645802 
L 338.65344 85.299047 
L 338.832 82.76739 
L 339.01056 102.472555 
L 339.18912 94.404851 
L 339.36768 69.532915 
L 339.54624 112.632018 
L 339.7248 126.504749 
L 339.90336 79.531462 
L 340.08192 71.753453 
L 340.43904 115.416076 
L 340.6176 63.648 
L 340.79616 90.674685 
L 340.97472 93.224407 
L 341.15328 81.538904 
L 341.33184 81.132012 
L 341.5104 96.181304 
L 341.68896 79.433942 
L 341.86752 79.552551 
L 342.04608 103.669722 
L 342.22464 75.650646 
L 342.4032 96.580895 
L 342.58176 76.906065 
L 342.76032 73.887582 
L 342.93888 102.417541 
L 343.11744 111.16312 
L 343.296 67.435243 
L 343.47456 81.300644 
L 343.65312 68.219544 
L 343.83168 77.267233 
L 344.01024 96.759625 
L 344.1888 156.524397 
L 344.36736 73.062152 
L 344.54592 63.670975 
L 344.72448 81.835104 
L 344.90304 82.868734 
L 345.26016 75.352262 
L 345.43872 93.652474 
L 345.61728 82.652896 
L 345.79584 84.433818 
L 345.9744 80.158322 
L 346.15296 67.154237 
L 346.51008 119.720222 
L 346.68864 63.661537 
L 347.04576 76.093093 
L 347.22432 91.329193 
L 347.40288 80.712629 
L 347.58144 113.84575 
L 347.76 107.728053 
L 347.93856 87.942449 
L 348.11712 93.452586 
L 348.47424 74.688503 
L 348.6528 121.916395 
L 349.00992 72.001436 
L 349.18848 154.078946 
L 349.5456 73.212123 
L 349.72416 91.176194 
L 349.90272 93.462007 
L 350.08128 112.356384 
L 350.4384 78.785004 
L 350.61696 131.188329 
L 350.79552 90.968219 
L 350.97408 94.080474 
L 351.15264 78.010298 
L 351.3312 79.242064 
L 351.50976 111.3469 
L 351.68832 122.788046 
L 351.86688 76.865074 
L 352.04544 141.439445 
L 352.224 100.326351 
L 352.40256 113.041577 
L 352.58112 83.060071 
L 352.75968 92.93129 
L 352.93824 65.45661 
L 353.1168 75.537358 
L 353.29536 119.47332 
L 353.47392 74.210526 
L 353.65248 79.448362 
L 353.83104 112.255424 
L 354.0096 69.935639 
L 354.18816 90.463897 
L 354.36672 94.368014 
L 354.54528 83.681444 
L 354.72384 96.066993 
L 354.9024 79.094243 
L 355.08096 114.341508 
L 355.25952 77.314786 
L 355.43808 75.992701 
L 355.61664 92.806662 
L 355.7952 68.804383 
L 355.97376 86.376702 
L 356.15232 71.810618 
L 356.33088 78.417588 
L 356.50944 123.908887 
L 356.86656 80.941488 
L 357.04512 90.739927 
L 357.22368 73.026238 
L 357.40224 87.143669 
L 357.5808 116.775785 
L 357.75936 68.723284 
L 357.93792 69.70872 
L 358.11648 93.260201 
L 358.29504 97.400065 
L 358.4736 64.756469 
L 358.65216 95.232122 
L 358.83072 93.313198 
L 359.00928 104.631501 
L 359.18784 105.209454 
L 359.3664 149.966549 
L 359.54496 68.202614 
L 359.72352 75.94802 
L 360.08064 162.94162 
L 360.2592 67.868861 
L 360.43776 107.432881 
L 360.61632 78.491817 
L 360.79488 79.174164 
L 360.97344 78.79164 
L 361.152 69.692958 
L 361.33056 97.888377 
L 361.50912 74.624304 
L 361.68768 84.007127 
L 361.86624 124.259641 
L 362.0448 245.705731 
L 362.22336 79.951936 
L 362.40192 100.390607 
L 362.58048 189.477276 
L 362.75904 64.66291 
L 362.9376 84.673638 
L 363.11616 77.805755 
L 363.29472 96.278365 
L 363.47328 83.986698 
L 363.65184 88.404889 
L 363.8304 95.801068 
L 364.00896 76.06107 
L 364.18752 96.138158 
L 364.36608 84.389691 
L 364.54464 188.887225 
L 364.90176 87.659932 
L 365.08032 70.913393 
L 365.25888 107.010623 
L 365.43744 169.373644 
L 365.616 77.093914 
L 365.79456 102.981985 
L 365.97312 96.60525 
L 366.15168 76.641522 
L 366.33024 79.87104 
L 366.5088 153.820719 
L 366.68736 83.562693 
L 366.86592 104.529261 
L 367.04448 85.881576 
L 367.22304 127.622087 
L 367.4016 112.350191 
L 367.58016 68.929085 
L 367.75872 112.047134 
L 367.93728 237.294899 
L 368.11584 91.632447 
L 368.2944 70.448686 
L 368.47296 85.731419 
L 368.65152 77.829911 
L 368.83008 110.353508 
L 369.00864 83.063885 
L 369.1872 73.200369 
L 369.36576 83.468749 
L 369.72288 69.179351 
L 369.90144 98.974354 
L 370.08 108.359844 
L 370.25856 103.087628 
L 370.43712 185.43398 
L 370.61568 95.816278 
L 370.79424 130.94441 
L 370.9728 82.005779 
L 371.15136 64.601413 
L 371.32992 75.839417 
L 371.50848 108.139324 
L 371.68704 218.05686 
L 371.8656 81.662719 
L 372.04416 76.159636 
L 372.22272 116.076673 
L 372.40128 85.24054 
L 372.57984 79.419035 
L 372.7584 89.566418 
L 372.93696 78.823724 
L 373.11552 76.326913 
L 373.29408 76.328983 
L 373.6512 99.314016 
L 374.00832 64.761825 
L 374.18688 69.878379 
L 374.36544 87.073792 
L 374.544 120.028106 
L 374.72256 70.671009 
L 374.90112 96.396644 
L 375.07968 90.374494 
L 375.25824 105.407207 
L 375.4368 75.485361 
L 375.61536 113.612002 
L 375.79392 122.069583 
L 375.97248 99.568602 
L 376.15104 104.492558 
L 376.3296 122.341685 
L 376.50816 69.618912 
L 376.68672 73.504756 
L 376.86528 112.69769 
L 377.04384 98.596806 
L 377.2224 68.823634 
L 377.40096 187.350565 
L 377.57952 90.303571 
L 377.75808 127.304957 
L 377.93664 65.241587 
L 378.1152 105.596602 
L 378.29376 213.792222 
L 378.47232 115.165415 
L 378.65088 120.915726 
L 378.82944 63.69028 
L 379.008 108.879833 
L 379.18656 66.097753 
L 379.54368 130.265156 
L 379.72224 71.573925 
L 379.9008 96.433715 
L 380.07936 79.316439 
L 380.25792 91.685348 
L 380.43648 85.297426 
L 380.61504 96.26705 
L 380.7936 127.694264 
L 380.97216 117.343835 
L 381.15072 65.774869 
L 381.32928 85.063821 
L 381.50784 74.975563 
L 381.6864 112.072685 
L 381.86496 87.858505 
L 382.04352 113.328298 
L 382.40064 90.184334 
L 382.5792 68.995468 
L 382.75776 88.693627 
L 382.93632 78.860191 
L 383.29344 101.694369 
L 383.472 78.007887 
L 383.65056 110.589436 
L 383.82912 93.662318 
L 384.00768 108.184241 
L 384.18624 82.046753 
L 384.3648 110.292026 
L 384.54336 103.632544 
L 384.72192 176.011803 
L 384.90048 84.067373 
L 385.07904 89.266138 
L 385.2576 135.382037 
L 385.43616 88.319257 
L 385.61472 82.76062 
L 385.79328 136.931553 
L 386.1504 76.972583 
L 386.50752 122.909652 
L 386.68608 78.59427 
L 386.86464 113.746826 
L 387.0432 72.889205 
L 387.22176 78.504152 
L 387.40032 68.737654 
L 387.57888 85.753568 
L 387.75744 83.574266 
L 387.936 97.134805 
L 388.11456 69.570139 
L 388.29312 140.488845 
L 388.47168 85.571957 
L 388.65024 83.880161 
L 389.00736 124.52099 
L 389.18592 101.244 
L 389.36448 146.167796 
L 389.54304 83.684394 
L 389.7216 89.454625 
L 389.90016 83.062679 
L 390.07872 82.237541 
L 390.25728 71.016573 
L 390.43584 186.863122 
L 390.6144 85.089734 
L 390.79296 82.046829 
L 390.97152 213.224814 
L 391.15008 75.984129 
L 391.32864 146.11011 
L 391.5072 65.097118 
L 391.86432 94.636502 
L 392.04288 79.190088 
L 392.22144 111.048002 
L 392.4 96.426261 
L 392.57856 101.359786 
L 392.75712 66.576725 
L 392.93568 72.739731 
L 393.11424 95.331902 
L 393.2928 84.455434 
L 393.47136 168.510249 
L 393.64992 86.307932 
L 393.82848 115.562832 
L 394.00704 83.766008 
L 394.1856 108.81191 
L 394.54272 64.42122 
L 394.72128 120.275574 
L 394.89984 76.411477 
L 395.0784 70.40499 
L 395.25696 98.023804 
L 395.43552 76.002117 
L 395.61408 71.151303 
L 395.9712 109.903688 
L 396.14976 80.921215 
L 396.32832 139.522564 
L 396.50688 84.755237 
L 396.68544 103.954779 
L 396.864 103.369567 
L 397.04256 161.482216 
L 397.22112 97.993992 
L 397.39968 80.664596 
L 397.57824 85.225573 
L 397.93536 81.937013 
L 398.11392 86.987776 
L 398.29248 72.927868 
L 398.47104 86.342085 
L 398.82816 132.886996 
L 399.00672 66.962921 
L 399.18528 94.519048 
L 399.36384 82.664067 
L 399.5424 95.16965 
L 399.72096 81.130305 
L 399.89952 79.757375 
L 400.07808 63.749487 
L 400.25664 102.51119 
L 400.4352 91.028998 
L 400.61376 105.309732 
L 400.79232 97.619165 
L 400.97088 70.147977 
L 401.328 86.593027 
L 401.50656 82.875852 
L 401.68512 67.436817 
L 401.86368 74.064488 
L 402.04224 119.654095 
L 402.39936 88.225481 
L 402.57792 72.856557 
L 402.75648 198.462898 
L 403.1136 69.113872 
L 403.29216 75.300462 
L 403.64928 104.602679 
L 404.0064 76.266148 
L 404.18496 89.614373 
L 404.36352 85.804095 
L 404.54208 164.482518 
L 404.72064 90.715136 
L 405.07776 78.360608 
L 405.25632 91.724918 
L 405.43488 73.142634 
L 405.61344 75.265994 
L 405.97056 84.316548 
L 406.14912 95.132604 
L 406.32768 77.763831 
L 406.50624 81.443112 
L 406.86336 79.017467 
L 407.04192 85.180159 
L 407.22048 77.187242 
L 407.39904 75.207654 
L 407.75616 69.417532 
L 407.93472 81.312294 
L 408.4704 145.166173 
L 408.82752 80.031695 
L 409.00608 90.03869 
L 409.18464 68.725395 
L 409.3632 79.704662 
L 409.54176 78.610719 
L 409.72032 195.642393 
L 409.89888 68.918088 
L 410.07744 68.863919 
L 410.256 67.734586 
L 410.43456 70.755243 
L 410.61312 66.00102 
L 410.79168 84.169819 
L 410.97024 70.29842 
L 411.1488 92.79563 
L 411.32736 74.2365 
L 411.50592 93.336552 
L 411.68448 79.896784 
L 411.86304 102.493252 
L 412.0416 81.467859 
L 412.22016 104.7959 
L 412.39872 108.096278 
L 412.57728 135.853885 
L 412.75584 69.064802 
L 412.9344 70.518354 
L 413.11296 80.956926 
L 413.29152 78.356441 
L 413.47008 83.117965 
L 413.64864 127.430677 
L 413.8272 79.269072 
L 414.00576 178.136098 
L 414.18432 65.797412 
L 414.36288 113.444063 
L 414.54144 94.625844 
L 414.54144 94.625844 
" style="fill:none;stroke:#0000ff;stroke-linecap:square;stroke-width:1.5;"/>
   </g>
   <g id="patch_3">
    <path d="M 57.6 307.584 
L 57.6 41.472 
" style="fill:none;stroke:#000000;stroke-linecap:square;stroke-linejoin:miter;stroke-width:0.8;"/>
   </g>
   <g id="patch_4">
    <path d="M 414.72 307.584 
L 414.72 41.472 
" style="fill:none;stroke:#000000;stroke-linecap:square;stroke-linejoin:miter;stroke-width:0.8;"/>
   </g>
   <g id="patch_5">
    <path d="M 57.6 307.584 
L 414.72 307.584 
" style="fill:none;stroke:#000000;stroke-linecap:square;stroke-linejoin:miter;stroke-width:0.8;"/>
   </g>
   <g id="patch_6">
    <path d="M 57.6 41.472 
L 414.72 41.472 
" style="fill:none;stroke:#000000;stroke-linecap:square;stroke-linejoin:miter;stroke-width:0.8;"/>
   </g>
   <g id="legend_1">
    <g id="patch_7">
     <path d="M 68.8 299.584 
L 269.4375 299.584 
Q 272.6375 299.584 272.6375 296.384 
L 272.6375 274.499 
Q 272.6375 271.299 269.4375 271.299 
L 68.8 271.299 
Q 65.6 271.299 65.6 274.499 
L 65.6 296.384 
Q 65.6 299.584 68.8 299.584 
z
" style="fill:#ffffff;opacity:0.8;stroke:#cccccc;stroke-linejoin:miter;"/>
    </g>
    <g id="line2d_28">
     <path d="M 72 284.2565 
L 104 284.2565 
" style="fill:none;stroke:#0000ff;stroke-linecap:square;stroke-width:1.5;"/>
    </g>
    <g id="line2d_29"/>
    <g id="text_16">
     <!-- cumulative reward -->
     <g transform="translate(116.8 289.8565)scale(0.16 -0.16)">
      <defs>
       <path d="M 3122 3366 
L 3122 2828 
Q 2878 2963 2633 3030 
Q 2388 3097 2138 3097 
Q 1578 3097 1268 2742 
Q 959 2388 959 1747 
Q 959 1106 1268 751 
Q 1578 397 2138 397 
Q 2388 397 2633 464 
Q 2878 531 3122 666 
L 3122 134 
Q 2881 22 2623 -34 
Q 2366 -91 2075 -91 
Q 1284 -91 818 406 
Q 353 903 353 1747 
Q 353 2603 823 3093 
Q 1294 3584 2113 3584 
Q 2378 3584 2631 3529 
Q 2884 3475 3122 3366 
z
" id="DejaVuSans-63" transform="scale(0.015625)"/>
      </defs>
      <use xlink:href="#DejaVuSans-63"/>
      <use x="54.980469" xlink:href="#DejaVuSans-75"/>
      <use x="118.359375" xlink:href="#DejaVuSans-6d"/>
      <use x="215.771484" xlink:href="#DejaVuSans-75"/>
      <use x="279.150391" xlink:href="#DejaVuSans-6c"/>
      <use x="306.933594" xlink:href="#DejaVuSans-61"/>
      <use x="368.212891" xlink:href="#DejaVuSans-74"/>
      <use x="407.421875" xlink:href="#DejaVuSans-69"/>
      <use x="435.205078" xlink:href="#DejaVuSans-76"/>
      <use x="494.384766" xlink:href="#DejaVuSans-65"/>
      <use x="555.908203" xlink:href="#DejaVuSans-20"/>
      <use x="587.695312" xlink:href="#DejaVuSans-72"/>
      <use x="626.558594" xlink:href="#DejaVuSans-65"/>
      <use x="688.082031" xlink:href="#DejaVuSans-77"/>
      <use x="769.869141" xlink:href="#DejaVuSans-61"/>
      <use x="831.148438" xlink:href="#DejaVuSans-72"/>
      <use x="870.511719" xlink:href="#DejaVuSans-64"/>
     </g>
    </g>
   </g>
  </g>
 </g>
 <defs>
  <clipPath id="p6a56012573">
   <rect height="266.112" width="357.12" x="57.6" y="41.472"/>
  </clipPath>
 </defs>
</svg>
