<?xml version="1.0" encoding="utf-8" standalone="no"?>
<!DOCTYPE svg PUBLIC "-//W3C//DTD SVG 1.1//EN"
  "http://www.w3.org/Graphics/SVG/1.1/DTD/svg11.dtd">
<svg xmlns:xlink="http://www.w3.org/1999/xlink" width="460.8pt" height="345.6pt" viewBox="0 0 460.8 345.6" xmlns="http://www.w3.org/2000/svg" version="1.1">
 <metadata>
  <rdf:RDF xmlns:dc="http://purl.org/dc/elements/1.1/" xmlns:cc="http://creativecommons.org/ns#" xmlns:rdf="http://www.w3.org/1999/02/22-rdf-syntax-ns#">
   <cc:Work>
    <dc:type rdf:resource="http://purl.org/dc/dcmitype/StillImage"/>
    <dc:date>2021-12-07T11:41:04.357808</dc:date>
    <dc:description>{"agent.algorithm": "RayProximalPolicyOptimization", "agent.algorithm.render_env": false, "agent.algorithm.num_workers": 0, "agent.algorithm.batch_mode": "complete_episodes", "agent.algorithm.lr": 5e-05, "agent.algorithm.train_batch_size": 200, "agent.algorithm.optimizer": "Adam", "agent.algorithm.vf_clip_param": 10, "agent.algorithm.model": {"fcnet_activation": "relu", "fcnet_hiddens": [50, 50]}, "env.env_class": "SchedulerPolicyRayEnvironment", "env.env_config": {"solver_driver": "DEdriver", "solver_driver_args": [10, 10, 13, "best1bin", "uniform"], "maximize": false, "steps": 50, "state_metrics_names": ["DifferenceOfBest", "SolverStateHistory"], "state_metrics_config": [[40, false, 1, true, false], [{"F_min": {"max": [2], "min": [0]}, "F_max": {"max": [2], "min": [0]}, "CR_min": {"max": [1], "min": [0]}, "CR_max": {"max": [1], "min": [0]}}, 40]], "reward_metric": "DeltaBest", "reward_metric_config": [false, true, true], "memes_no": 1, "action_space_config": {"F_min": {"max": 2, "min": 0}, "F_max": {"max": 2, "min": 0}, "CR_min": {"max": 1, "min": 0}, "CR_max": {"max": 1, "min": 0}}}}</dc:description>
    <dc:format>image/svg+xml</dc:format>
    <dc:creator>
     <cc:Agent>
      <dc:title>Matplotlib v3.5.0, https://matplotlib.org/</dc:title>
     </cc:Agent>
    </dc:creator>
   </cc:Work>
  </rdf:RDF>
 </metadata>
 <defs>
  <style type="text/css">*{stroke-linejoin: round; stroke-linecap: butt}</style>
 </defs>
 <g id="figure_1">
  <g id="patch_1">
   <path d="M 0 345.6 
L 460.8 345.6 
L 460.8 0 
L 0 0 
z
" style="fill: #ffffff"/>
  </g>
  <g id="axes_1">
   <g id="patch_2">
    <path d="M 57.6 307.584 
L 414.72 307.584 
L 414.72 41.472 
L 57.6 41.472 
z
" style="fill: #ffffff"/>
   </g>
   <g id="matplotlib.axis_1">
    <g id="xtick_1">
     <g id="line2d_1">
      <path d="M 57.6 307.584 
L 57.6 41.472 
" clip-path="url(#pe66b614934)" style="fill: none; stroke: #b0b0b0; stroke-width: 0.8; stroke-linecap: square"/>
     </g>
     <g id="line2d_2">
      <defs>
       <path id="m255239cfc1" d="M 0 0 
L 0 3.5 
" style="stroke: #000000; stroke-width: 0.8"/>
      </defs>
      <g>
       <use xlink:href="#m255239cfc1" x="57.6" y="307.584" style="stroke: #000000; stroke-width: 0.8"/>
      </g>
     </g>
     <g id="text_1">
      <!-- 0 -->
      <g transform="translate(52.51 326.7415)scale(0.16 -0.16)">
       <defs>
        <path id="DejaVuSans-30" d="M 2034 4250 
Q 1547 4250 1301 3770 
Q 1056 3291 1056 2328 
Q 1056 1369 1301 889 
Q 1547 409 2034 409 
Q 2525 409 2770 889 
Q 3016 1369 3016 2328 
Q 3016 3291 2770 3770 
Q 2525 4250 2034 4250 
z
M 2034 4750 
Q 2819 4750 3233 4129 
Q 3647 3509 3647 2328 
Q 3647 1150 3233 529 
Q 2819 -91 2034 -91 
Q 1250 -91 836 529 
Q 422 1150 422 2328 
Q 422 3509 836 4129 
Q 1250 4750 2034 4750 
z
" transform="scale(0.015625)"/>
       </defs>
       <use xlink:href="#DejaVuSans-30"/>
      </g>
     </g>
    </g>
    <g id="xtick_2">
     <g id="line2d_3">
      <path d="M 146.88 307.584 
L 146.88 41.472 
" clip-path="url(#pe66b614934)" style="fill: none; stroke: #b0b0b0; stroke-width: 0.8; stroke-linecap: square"/>
     </g>
     <g id="line2d_4">
      <g>
       <use xlink:href="#m255239cfc1" x="146.88" y="307.584" style="stroke: #000000; stroke-width: 0.8"/>
      </g>
     </g>
     <g id="text_2">
      <!-- 1000 -->
      <g transform="translate(126.52 326.7415)scale(0.16 -0.16)">
       <defs>
        <path id="DejaVuSans-31" d="M 794 531 
L 1825 531 
L 1825 4091 
L 703 3866 
L 703 4441 
L 1819 4666 
L 2450 4666 
L 2450 531 
L 3481 531 
L 3481 0 
L 794 0 
L 794 531 
z
" transform="scale(0.015625)"/>
       </defs>
       <use xlink:href="#DejaVuSans-31"/>
       <use xlink:href="#DejaVuSans-30" x="63.623047"/>
       <use xlink:href="#DejaVuSans-30" x="127.246094"/>
       <use xlink:href="#DejaVuSans-30" x="190.869141"/>
      </g>
     </g>
    </g>
    <g id="xtick_3">
     <g id="line2d_5">
      <path d="M 236.16 307.584 
L 236.16 41.472 
" clip-path="url(#pe66b614934)" style="fill: none; stroke: #b0b0b0; stroke-width: 0.8; stroke-linecap: square"/>
     </g>
     <g id="line2d_6">
      <g>
       <use xlink:href="#m255239cfc1" x="236.16" y="307.584" style="stroke: #000000; stroke-width: 0.8"/>
      </g>
     </g>
     <g id="text_3">
      <!-- 2000 -->
      <g transform="translate(215.8 326.7415)scale(0.16 -0.16)">
       <defs>
        <path id="DejaVuSans-32" d="M 1228 531 
L 3431 531 
L 3431 0 
L 469 0 
L 469 531 
Q 828 903 1448 1529 
Q 2069 2156 2228 2338 
Q 2531 2678 2651 2914 
Q 2772 3150 2772 3378 
Q 2772 3750 2511 3984 
Q 2250 4219 1831 4219 
Q 1534 4219 1204 4116 
Q 875 4013 500 3803 
L 500 4441 
Q 881 4594 1212 4672 
Q 1544 4750 1819 4750 
Q 2544 4750 2975 4387 
Q 3406 4025 3406 3419 
Q 3406 3131 3298 2873 
Q 3191 2616 2906 2266 
Q 2828 2175 2409 1742 
Q 1991 1309 1228 531 
z
" transform="scale(0.015625)"/>
       </defs>
       <use xlink:href="#DejaVuSans-32"/>
       <use xlink:href="#DejaVuSans-30" x="63.623047"/>
       <use xlink:href="#DejaVuSans-30" x="127.246094"/>
       <use xlink:href="#DejaVuSans-30" x="190.869141"/>
      </g>
     </g>
    </g>
    <g id="xtick_4">
     <g id="line2d_7">
      <path d="M 325.44 307.584 
L 325.44 41.472 
" clip-path="url(#pe66b614934)" style="fill: none; stroke: #b0b0b0; stroke-width: 0.8; stroke-linecap: square"/>
     </g>
     <g id="line2d_8">
      <g>
       <use xlink:href="#m255239cfc1" x="325.44" y="307.584" style="stroke: #000000; stroke-width: 0.8"/>
      </g>
     </g>
     <g id="text_4">
      <!-- 3000 -->
      <g transform="translate(305.08 326.7415)scale(0.16 -0.16)">
       <defs>
        <path id="DejaVuSans-33" d="M 2597 2516 
Q 3050 2419 3304 2112 
Q 3559 1806 3559 1356 
Q 3559 666 3084 287 
Q 2609 -91 1734 -91 
Q 1441 -91 1130 -33 
Q 819 25 488 141 
L 488 750 
Q 750 597 1062 519 
Q 1375 441 1716 441 
Q 2309 441 2620 675 
Q 2931 909 2931 1356 
Q 2931 1769 2642 2001 
Q 2353 2234 1838 2234 
L 1294 2234 
L 1294 2753 
L 1863 2753 
Q 2328 2753 2575 2939 
Q 2822 3125 2822 3475 
Q 2822 3834 2567 4026 
Q 2313 4219 1838 4219 
Q 1578 4219 1281 4162 
Q 984 4106 628 3988 
L 628 4550 
Q 988 4650 1302 4700 
Q 1616 4750 1894 4750 
Q 2613 4750 3031 4423 
Q 3450 4097 3450 3541 
Q 3450 3153 3228 2886 
Q 3006 2619 2597 2516 
z
" transform="scale(0.015625)"/>
       </defs>
       <use xlink:href="#DejaVuSans-33"/>
       <use xlink:href="#DejaVuSans-30" x="63.623047"/>
       <use xlink:href="#DejaVuSans-30" x="127.246094"/>
       <use xlink:href="#DejaVuSans-30" x="190.869141"/>
      </g>
     </g>
    </g>
    <g id="xtick_5">
     <g id="line2d_9">
      <path d="M 414.72 307.584 
L 414.72 41.472 
" clip-path="url(#pe66b614934)" style="fill: none; stroke: #b0b0b0; stroke-width: 0.8; stroke-linecap: square"/>
     </g>
     <g id="line2d_10">
      <g>
       <use xlink:href="#m255239cfc1" x="414.72" y="307.584" style="stroke: #000000; stroke-width: 0.8"/>
      </g>
     </g>
     <g id="text_5">
      <!-- 4000 -->
      <g transform="translate(394.36 326.7415)scale(0.16 -0.16)">
       <defs>
        <path id="DejaVuSans-34" d="M 2419 4116 
L 825 1625 
L 2419 1625 
L 2419 4116 
z
M 2253 4666 
L 3047 4666 
L 3047 1625 
L 3713 1625 
L 3713 1100 
L 3047 1100 
L 3047 0 
L 2419 0 
L 2419 1100 
L 313 1100 
L 313 1709 
L 2253 4666 
z
" transform="scale(0.015625)"/>
       </defs>
       <use xlink:href="#DejaVuSans-34"/>
       <use xlink:href="#DejaVuSans-30" x="63.623047"/>
       <use xlink:href="#DejaVuSans-30" x="127.246094"/>
       <use xlink:href="#DejaVuSans-30" x="190.869141"/>
      </g>
     </g>
    </g>
    <g id="text_6">
     <!-- Episodes -->
     <g transform="translate(200.5725 346.2265)scale(0.16 -0.16)">
      <defs>
       <path id="DejaVuSans-45" d="M 628 4666 
L 3578 4666 
L 3578 4134 
L 1259 4134 
L 1259 2753 
L 3481 2753 
L 3481 2222 
L 1259 2222 
L 1259 531 
L 3634 531 
L 3634 0 
L 628 0 
L 628 4666 
z
" transform="scale(0.015625)"/>
       <path id="DejaVuSans-70" d="M 1159 525 
L 1159 -1331 
L 581 -1331 
L 581 3500 
L 1159 3500 
L 1159 2969 
Q 1341 3281 1617 3432 
Q 1894 3584 2278 3584 
Q 2916 3584 3314 3078 
Q 3713 2572 3713 1747 
Q 3713 922 3314 415 
Q 2916 -91 2278 -91 
Q 1894 -91 1617 61 
Q 1341 213 1159 525 
z
M 3116 1747 
Q 3116 2381 2855 2742 
Q 2594 3103 2138 3103 
Q 1681 3103 1420 2742 
Q 1159 2381 1159 1747 
Q 1159 1113 1420 752 
Q 1681 391 2138 391 
Q 2594 391 2855 752 
Q 3116 1113 3116 1747 
z
" transform="scale(0.015625)"/>
       <path id="DejaVuSans-69" d="M 603 3500 
L 1178 3500 
L 1178 0 
L 603 0 
L 603 3500 
z
M 603 4863 
L 1178 4863 
L 1178 4134 
L 603 4134 
L 603 4863 
z
" transform="scale(0.015625)"/>
       <path id="DejaVuSans-73" d="M 2834 3397 
L 2834 2853 
Q 2591 2978 2328 3040 
Q 2066 3103 1784 3103 
Q 1356 3103 1142 2972 
Q 928 2841 928 2578 
Q 928 2378 1081 2264 
Q 1234 2150 1697 2047 
L 1894 2003 
Q 2506 1872 2764 1633 
Q 3022 1394 3022 966 
Q 3022 478 2636 193 
Q 2250 -91 1575 -91 
Q 1294 -91 989 -36 
Q 684 19 347 128 
L 347 722 
Q 666 556 975 473 
Q 1284 391 1588 391 
Q 1994 391 2212 530 
Q 2431 669 2431 922 
Q 2431 1156 2273 1281 
Q 2116 1406 1581 1522 
L 1381 1569 
Q 847 1681 609 1914 
Q 372 2147 372 2553 
Q 372 3047 722 3315 
Q 1072 3584 1716 3584 
Q 2034 3584 2315 3537 
Q 2597 3491 2834 3397 
z
" transform="scale(0.015625)"/>
       <path id="DejaVuSans-6f" d="M 1959 3097 
Q 1497 3097 1228 2736 
Q 959 2375 959 1747 
Q 959 1119 1226 758 
Q 1494 397 1959 397 
Q 2419 397 2687 759 
Q 2956 1122 2956 1747 
Q 2956 2369 2687 2733 
Q 2419 3097 1959 3097 
z
M 1959 3584 
Q 2709 3584 3137 3096 
Q 3566 2609 3566 1747 
Q 3566 888 3137 398 
Q 2709 -91 1959 -91 
Q 1206 -91 779 398 
Q 353 888 353 1747 
Q 353 2609 779 3096 
Q 1206 3584 1959 3584 
z
" transform="scale(0.015625)"/>
       <path id="DejaVuSans-64" d="M 2906 2969 
L 2906 4863 
L 3481 4863 
L 3481 0 
L 2906 0 
L 2906 525 
Q 2725 213 2448 61 
Q 2172 -91 1784 -91 
Q 1150 -91 751 415 
Q 353 922 353 1747 
Q 353 2572 751 3078 
Q 1150 3584 1784 3584 
Q 2172 3584 2448 3432 
Q 2725 3281 2906 2969 
z
M 947 1747 
Q 947 1113 1208 752 
Q 1469 391 1925 391 
Q 2381 391 2643 752 
Q 2906 1113 2906 1747 
Q 2906 2381 2643 2742 
Q 2381 3103 1925 3103 
Q 1469 3103 1208 2742 
Q 947 2381 947 1747 
z
" transform="scale(0.015625)"/>
       <path id="DejaVuSans-65" d="M 3597 1894 
L 3597 1613 
L 953 1613 
Q 991 1019 1311 708 
Q 1631 397 2203 397 
Q 2534 397 2845 478 
Q 3156 559 3463 722 
L 3463 178 
Q 3153 47 2828 -22 
Q 2503 -91 2169 -91 
Q 1331 -91 842 396 
Q 353 884 353 1716 
Q 353 2575 817 3079 
Q 1281 3584 2069 3584 
Q 2775 3584 3186 3129 
Q 3597 2675 3597 1894 
z
M 3022 2063 
Q 3016 2534 2758 2815 
Q 2500 3097 2075 3097 
Q 1594 3097 1305 2825 
Q 1016 2553 972 2059 
L 3022 2063 
z
" transform="scale(0.015625)"/>
      </defs>
      <use xlink:href="#DejaVuSans-45"/>
      <use xlink:href="#DejaVuSans-70" x="63.183594"/>
      <use xlink:href="#DejaVuSans-69" x="126.660156"/>
      <use xlink:href="#DejaVuSans-73" x="154.443359"/>
      <use xlink:href="#DejaVuSans-6f" x="206.542969"/>
      <use xlink:href="#DejaVuSans-64" x="267.724609"/>
      <use xlink:href="#DejaVuSans-65" x="331.201172"/>
      <use xlink:href="#DejaVuSans-73" x="392.724609"/>
     </g>
    </g>
   </g>
   <g id="matplotlib.axis_2">
    <g id="ytick_1">
     <g id="line2d_11">
      <path d="M 57.6 285.408 
L 414.72 285.408 
" clip-path="url(#pe66b614934)" style="fill: none; stroke: #b0b0b0; stroke-width: 0.8; stroke-linecap: square"/>
     </g>
     <g id="line2d_12">
      <defs>
       <path id="m59634d69a0" d="M 0 0 
L -3.5 0 
" style="stroke: #000000; stroke-width: 0.8"/>
      </defs>
      <g>
       <use xlink:href="#m59634d69a0" x="57.6" y="285.408" style="stroke: #000000; stroke-width: 0.8"/>
      </g>
     </g>
     <g id="text_7">
      <!-- 0 -->
      <g transform="translate(40.42 291.48675)scale(0.16 -0.16)">
       <use xlink:href="#DejaVuSans-30"/>
      </g>
     </g>
    </g>
    <g id="ytick_2">
     <g id="line2d_13">
      <path d="M 57.6 229.764697 
L 414.72 229.764697 
" clip-path="url(#pe66b614934)" style="fill: none; stroke: #b0b0b0; stroke-width: 0.8; stroke-linecap: square"/>
     </g>
     <g id="line2d_14">
      <g>
       <use xlink:href="#m59634d69a0" x="57.6" y="229.764697" style="stroke: #000000; stroke-width: 0.8"/>
      </g>
     </g>
     <g id="text_8">
      <!-- 2 -->
      <g transform="translate(40.42 235.843447)scale(0.16 -0.16)">
       <use xlink:href="#DejaVuSans-32"/>
      </g>
     </g>
    </g>
    <g id="ytick_3">
     <g id="line2d_15">
      <path d="M 57.6 174.121394 
L 414.72 174.121394 
" clip-path="url(#pe66b614934)" style="fill: none; stroke: #b0b0b0; stroke-width: 0.8; stroke-linecap: square"/>
     </g>
     <g id="line2d_16">
      <g>
       <use xlink:href="#m59634d69a0" x="57.6" y="174.121394" style="stroke: #000000; stroke-width: 0.8"/>
      </g>
     </g>
     <g id="text_9">
      <!-- 4 -->
      <g transform="translate(40.42 180.200144)scale(0.16 -0.16)">
       <use xlink:href="#DejaVuSans-34"/>
      </g>
     </g>
    </g>
    <g id="ytick_4">
     <g id="line2d_17">
      <path d="M 57.6 118.478091 
L 414.72 118.478091 
" clip-path="url(#pe66b614934)" style="fill: none; stroke: #b0b0b0; stroke-width: 0.8; stroke-linecap: square"/>
     </g>
     <g id="line2d_18">
      <g>
       <use xlink:href="#m59634d69a0" x="57.6" y="118.478091" style="stroke: #000000; stroke-width: 0.8"/>
      </g>
     </g>
     <g id="text_10">
      <!-- 6 -->
      <g transform="translate(40.42 124.556841)scale(0.16 -0.16)">
       <defs>
        <path id="DejaVuSans-36" d="M 2113 2584 
Q 1688 2584 1439 2293 
Q 1191 2003 1191 1497 
Q 1191 994 1439 701 
Q 1688 409 2113 409 
Q 2538 409 2786 701 
Q 3034 994 3034 1497 
Q 3034 2003 2786 2293 
Q 2538 2584 2113 2584 
z
M 3366 4563 
L 3366 3988 
Q 3128 4100 2886 4159 
Q 2644 4219 2406 4219 
Q 1781 4219 1451 3797 
Q 1122 3375 1075 2522 
Q 1259 2794 1537 2939 
Q 1816 3084 2150 3084 
Q 2853 3084 3261 2657 
Q 3669 2231 3669 1497 
Q 3669 778 3244 343 
Q 2819 -91 2113 -91 
Q 1303 -91 875 529 
Q 447 1150 447 2328 
Q 447 3434 972 4092 
Q 1497 4750 2381 4750 
Q 2619 4750 2861 4703 
Q 3103 4656 3366 4563 
z
" transform="scale(0.015625)"/>
       </defs>
       <use xlink:href="#DejaVuSans-36"/>
      </g>
     </g>
    </g>
    <g id="ytick_5">
     <g id="line2d_19">
      <path d="M 57.6 62.834788 
L 414.72 62.834788 
" clip-path="url(#pe66b614934)" style="fill: none; stroke: #b0b0b0; stroke-width: 0.8; stroke-linecap: square"/>
     </g>
     <g id="line2d_20">
      <g>
       <use xlink:href="#m59634d69a0" x="57.6" y="62.834788" style="stroke: #000000; stroke-width: 0.8"/>
      </g>
     </g>
     <g id="text_11">
      <!-- 8 -->
      <g transform="translate(40.42 68.913538)scale(0.16 -0.16)">
       <defs>
        <path id="DejaVuSans-38" d="M 2034 2216 
Q 1584 2216 1326 1975 
Q 1069 1734 1069 1313 
Q 1069 891 1326 650 
Q 1584 409 2034 409 
Q 2484 409 2743 651 
Q 3003 894 3003 1313 
Q 3003 1734 2745 1975 
Q 2488 2216 2034 2216 
z
M 1403 2484 
Q 997 2584 770 2862 
Q 544 3141 544 3541 
Q 544 4100 942 4425 
Q 1341 4750 2034 4750 
Q 2731 4750 3128 4425 
Q 3525 4100 3525 3541 
Q 3525 3141 3298 2862 
Q 3072 2584 2669 2484 
Q 3125 2378 3379 2068 
Q 3634 1759 3634 1313 
Q 3634 634 3220 271 
Q 2806 -91 2034 -91 
Q 1263 -91 848 271 
Q 434 634 434 1313 
Q 434 1759 690 2068 
Q 947 2378 1403 2484 
z
M 1172 3481 
Q 1172 3119 1398 2916 
Q 1625 2713 2034 2713 
Q 2441 2713 2670 2916 
Q 2900 3119 2900 3481 
Q 2900 3844 2670 4047 
Q 2441 4250 2034 4250 
Q 1625 4250 1398 4047 
Q 1172 3844 1172 3481 
z
" transform="scale(0.015625)"/>
       </defs>
       <use xlink:href="#DejaVuSans-38"/>
      </g>
     </g>
    </g>
    <g id="text_12">
     <!-- Cumulative Reward -->
     <g transform="translate(33.0925 252.52425)rotate(-90)scale(0.16 -0.16)">
      <defs>
       <path id="DejaVuSans-43" d="M 4122 4306 
L 4122 3641 
Q 3803 3938 3442 4084 
Q 3081 4231 2675 4231 
Q 1875 4231 1450 3742 
Q 1025 3253 1025 2328 
Q 1025 1406 1450 917 
Q 1875 428 2675 428 
Q 3081 428 3442 575 
Q 3803 722 4122 1019 
L 4122 359 
Q 3791 134 3420 21 
Q 3050 -91 2638 -91 
Q 1578 -91 968 557 
Q 359 1206 359 2328 
Q 359 3453 968 4101 
Q 1578 4750 2638 4750 
Q 3056 4750 3426 4639 
Q 3797 4528 4122 4306 
z
" transform="scale(0.015625)"/>
       <path id="DejaVuSans-75" d="M 544 1381 
L 544 3500 
L 1119 3500 
L 1119 1403 
Q 1119 906 1312 657 
Q 1506 409 1894 409 
Q 2359 409 2629 706 
Q 2900 1003 2900 1516 
L 2900 3500 
L 3475 3500 
L 3475 0 
L 2900 0 
L 2900 538 
Q 2691 219 2414 64 
Q 2138 -91 1772 -91 
Q 1169 -91 856 284 
Q 544 659 544 1381 
z
M 1991 3584 
L 1991 3584 
z
" transform="scale(0.015625)"/>
       <path id="DejaVuSans-6d" d="M 3328 2828 
Q 3544 3216 3844 3400 
Q 4144 3584 4550 3584 
Q 5097 3584 5394 3201 
Q 5691 2819 5691 2113 
L 5691 0 
L 5113 0 
L 5113 2094 
Q 5113 2597 4934 2840 
Q 4756 3084 4391 3084 
Q 3944 3084 3684 2787 
Q 3425 2491 3425 1978 
L 3425 0 
L 2847 0 
L 2847 2094 
Q 2847 2600 2669 2842 
Q 2491 3084 2119 3084 
Q 1678 3084 1418 2786 
Q 1159 2488 1159 1978 
L 1159 0 
L 581 0 
L 581 3500 
L 1159 3500 
L 1159 2956 
Q 1356 3278 1631 3431 
Q 1906 3584 2284 3584 
Q 2666 3584 2933 3390 
Q 3200 3197 3328 2828 
z
" transform="scale(0.015625)"/>
       <path id="DejaVuSans-6c" d="M 603 4863 
L 1178 4863 
L 1178 0 
L 603 0 
L 603 4863 
z
" transform="scale(0.015625)"/>
       <path id="DejaVuSans-61" d="M 2194 1759 
Q 1497 1759 1228 1600 
Q 959 1441 959 1056 
Q 959 750 1161 570 
Q 1363 391 1709 391 
Q 2188 391 2477 730 
Q 2766 1069 2766 1631 
L 2766 1759 
L 2194 1759 
z
M 3341 1997 
L 3341 0 
L 2766 0 
L 2766 531 
Q 2569 213 2275 61 
Q 1981 -91 1556 -91 
Q 1019 -91 701 211 
Q 384 513 384 1019 
Q 384 1609 779 1909 
Q 1175 2209 1959 2209 
L 2766 2209 
L 2766 2266 
Q 2766 2663 2505 2880 
Q 2244 3097 1772 3097 
Q 1472 3097 1187 3025 
Q 903 2953 641 2809 
L 641 3341 
Q 956 3463 1253 3523 
Q 1550 3584 1831 3584 
Q 2591 3584 2966 3190 
Q 3341 2797 3341 1997 
z
" transform="scale(0.015625)"/>
       <path id="DejaVuSans-74" d="M 1172 4494 
L 1172 3500 
L 2356 3500 
L 2356 3053 
L 1172 3053 
L 1172 1153 
Q 1172 725 1289 603 
Q 1406 481 1766 481 
L 2356 481 
L 2356 0 
L 1766 0 
Q 1100 0 847 248 
Q 594 497 594 1153 
L 594 3053 
L 172 3053 
L 172 3500 
L 594 3500 
L 594 4494 
L 1172 4494 
z
" transform="scale(0.015625)"/>
       <path id="DejaVuSans-76" d="M 191 3500 
L 800 3500 
L 1894 563 
L 2988 3500 
L 3597 3500 
L 2284 0 
L 1503 0 
L 191 3500 
z
" transform="scale(0.015625)"/>
       <path id="DejaVuSans-20" transform="scale(0.015625)"/>
       <path id="DejaVuSans-52" d="M 2841 2188 
Q 3044 2119 3236 1894 
Q 3428 1669 3622 1275 
L 4263 0 
L 3584 0 
L 2988 1197 
Q 2756 1666 2539 1819 
Q 2322 1972 1947 1972 
L 1259 1972 
L 1259 0 
L 628 0 
L 628 4666 
L 2053 4666 
Q 2853 4666 3247 4331 
Q 3641 3997 3641 3322 
Q 3641 2881 3436 2590 
Q 3231 2300 2841 2188 
z
M 1259 4147 
L 1259 2491 
L 2053 2491 
Q 2509 2491 2742 2702 
Q 2975 2913 2975 3322 
Q 2975 3731 2742 3939 
Q 2509 4147 2053 4147 
L 1259 4147 
z
" transform="scale(0.015625)"/>
       <path id="DejaVuSans-77" d="M 269 3500 
L 844 3500 
L 1563 769 
L 2278 3500 
L 2956 3500 
L 3675 769 
L 4391 3500 
L 4966 3500 
L 4050 0 
L 3372 0 
L 2619 2869 
L 1863 0 
L 1184 0 
L 269 3500 
z
" transform="scale(0.015625)"/>
       <path id="DejaVuSans-72" d="M 2631 2963 
Q 2534 3019 2420 3045 
Q 2306 3072 2169 3072 
Q 1681 3072 1420 2755 
Q 1159 2438 1159 1844 
L 1159 0 
L 581 0 
L 581 3500 
L 1159 3500 
L 1159 2956 
Q 1341 3275 1631 3429 
Q 1922 3584 2338 3584 
Q 2397 3584 2469 3576 
Q 2541 3569 2628 3553 
L 2631 2963 
z
" transform="scale(0.015625)"/>
      </defs>
      <use xlink:href="#DejaVuSans-43"/>
      <use xlink:href="#DejaVuSans-75" x="69.824219"/>
      <use xlink:href="#DejaVuSans-6d" x="133.203125"/>
      <use xlink:href="#DejaVuSans-75" x="230.615234"/>
      <use xlink:href="#DejaVuSans-6c" x="293.994141"/>
      <use xlink:href="#DejaVuSans-61" x="321.777344"/>
      <use xlink:href="#DejaVuSans-74" x="383.056641"/>
      <use xlink:href="#DejaVuSans-69" x="422.265625"/>
      <use xlink:href="#DejaVuSans-76" x="450.048828"/>
      <use xlink:href="#DejaVuSans-65" x="509.228516"/>
      <use xlink:href="#DejaVuSans-20" x="570.751953"/>
      <use xlink:href="#DejaVuSans-52" x="602.539062"/>
      <use xlink:href="#DejaVuSans-65" x="667.521484"/>
      <use xlink:href="#DejaVuSans-77" x="729.044922"/>
      <use xlink:href="#DejaVuSans-61" x="810.832031"/>
      <use xlink:href="#DejaVuSans-72" x="872.111328"/>
      <use xlink:href="#DejaVuSans-64" x="911.474609"/>
     </g>
    </g>
   </g>
   <g id="line2d_21">
    <path d="M 57.6 223.287271 
L 57.68928 130.414483 
L 57.77856 244.487012 
L 57.86784 229.818945 
L 57.95712 223.287271 
L 58.0464 130.414483 
L 58.13568 244.487012 
L 58.22496 229.818945 
L 58.31424 223.287271 
L 58.40352 130.414483 
L 58.4928 244.487012 
L 58.58208 229.818945 
L 58.67136 223.287271 
L 58.76064 130.414483 
L 58.84992 244.487012 
L 58.9392 229.818945 
L 59.02848 223.287271 
L 59.11776 130.414483 
L 59.20704 244.487012 
L 59.29632 229.818945 
L 59.3856 223.287271 
L 59.47488 130.414483 
L 59.56416 244.487012 
L 59.65344 229.818945 
L 59.74272 223.287271 
L 59.832 130.414483 
L 59.92128 244.487012 
L 60.01056 229.818945 
L 60.09984 223.287271 
L 60.18912 130.414483 
L 60.2784 244.487012 
L 60.36768 229.818945 
L 60.45696 223.287271 
L 60.54624 130.414483 
L 60.63552 244.487012 
L 60.7248 229.818945 
L 60.81408 223.287271 
L 60.90336 130.414483 
L 60.99264 244.487012 
L 61.08192 229.818945 
L 61.1712 223.287271 
L 61.26048 130.414483 
L 61.34976 244.487012 
L 61.43904 229.818945 
L 61.52832 223.287271 
L 61.6176 130.414483 
L 61.70688 244.487012 
L 61.79616 229.818945 
L 61.88544 223.287271 
L 61.97472 130.414483 
L 62.064 244.487012 
L 62.15328 229.818945 
L 62.24256 223.287271 
L 62.33184 130.414483 
L 62.42112 244.487012 
L 62.5104 229.818945 
L 62.59968 223.287271 
L 62.68896 130.414483 
L 62.77824 244.487012 
L 62.86752 229.818945 
L 62.9568 223.287271 
L 63.04608 130.414483 
L 63.13536 244.487012 
L 63.22464 229.818945 
L 63.31392 223.287271 
L 63.4032 130.414483 
L 63.49248 244.487012 
L 63.58176 229.818945 
L 63.67104 223.287271 
L 63.76032 130.414483 
L 63.8496 244.487012 
L 63.93888 229.818945 
L 64.02816 223.287271 
L 64.11744 130.414483 
L 64.20672 244.487012 
L 64.296 229.818945 
L 64.38528 223.287271 
L 64.47456 130.414483 
L 64.56384 244.487012 
L 64.65312 229.818945 
L 64.7424 223.287271 
L 64.83168 130.414483 
L 64.92096 244.487012 
L 65.01024 229.818945 
L 65.09952 223.287271 
L 65.1888 130.414483 
L 65.27808 244.487012 
L 65.36736 229.818945 
L 65.45664 223.287271 
L 65.54592 130.414483 
L 65.6352 244.487012 
L 65.72448 229.818945 
L 65.81376 223.287271 
L 65.90304 130.414483 
L 65.99232 244.487012 
L 66.0816 229.818945 
L 66.17088 223.287271 
L 66.26016 130.414483 
L 66.34944 244.487012 
L 66.43872 229.818945 
L 66.528 252.910293 
L 66.70656 213.229555 
L 66.88512 243.685268 
L 66.9744 267.100428 
L 67.15296 212.703126 
L 67.24224 255.835239 
L 67.33152 236.592821 
L 67.4208 251.864875 
L 67.51008 224.194401 
L 67.68864 254.711437 
L 67.77792 225.445846 
L 67.8672 273.374187 
L 68.13504 198.079107 
L 68.22432 252.65375 
L 68.3136 219.644945 
L 68.40288 253.639022 
L 68.58144 215.115225 
L 68.76 283.8721 
L 68.93856 245.579348 
L 69.02784 247.625743 
L 69.11712 202.853974 
L 69.2064 249.223433 
L 69.29568 198.241761 
L 69.56352 281.107209 
L 69.83136 207.839709 
L 69.92064 243.150095 
L 70.00992 201.947658 
L 70.0992 255.926501 
L 70.18848 222.022882 
L 70.27776 230.162947 
L 70.36704 263.985508 
L 70.45632 259.478531 
L 70.63488 236.657687 
L 70.81344 262.026583 
L 70.90272 239.912854 
L 70.992 257.217604 
L 71.08128 233.154707 
L 71.17056 233.726962 
L 71.34912 250.967938 
L 71.4384 256.113653 
L 71.70624 229.655094 
L 71.79552 285.027664 
L 71.97408 228.445932 
L 72.06336 241.479993 
L 72.15264 231.065137 
L 72.24192 245.891551 
L 72.3312 221.500659 
L 72.50976 236.870974 
L 72.59904 226.95199 
L 72.68832 237.811632 
L 72.7776 211.067373 
L 72.86688 268.723614 
L 72.95616 260.809421 
L 73.04544 218.367971 
L 73.13472 219.365244 
L 73.31328 254.453984 
L 73.40256 226.135684 
L 73.49184 230.574316 
L 73.58112 251.69504 
L 73.6704 238.0334 
L 73.75968 241.357881 
L 73.84896 263.255886 
L 74.02752 216.972712 
L 74.1168 258.260668 
L 74.20608 241.786879 
L 74.29536 266.906864 
L 74.47392 201.696073 
L 74.65248 242.81075 
L 74.74176 246.598896 
L 74.83104 236.482663 
L 74.92032 243.15806 
L 75.0096 274.779817 
L 75.09888 244.683033 
L 75.18816 262.616116 
L 75.27744 256.154855 
L 75.456 213.480686 
L 75.54528 246.253151 
L 75.72384 223.001885 
L 75.81312 258.539138 
L 75.9024 255.132914 
L 75.99168 215.872996 
L 76.08096 223.057154 
L 76.17024 226.28277 
L 76.25952 263.025511 
L 76.3488 208.412143 
L 76.43808 264.440542 
L 76.52736 232.182729 
L 76.61664 249.405526 
L 76.70592 235.425006 
L 76.7952 245.253943 
L 76.88448 236.944694 
L 76.97376 242.310052 
L 77.06304 237.470859 
L 77.15232 261.735808 
L 77.2416 228.391763 
L 77.42016 254.269325 
L 77.50944 244.627442 
L 77.59872 259.996871 
L 77.688 254.89896 
L 77.77728 231.321601 
L 77.86656 255.969831 
L 77.95584 255.585518 
L 78.04512 223.585134 
L 78.1344 241.1655 
L 78.22368 224.780884 
L 78.40224 244.900429 
L 78.49152 239.633265 
L 78.5808 275.494323 
L 78.67008 263.133221 
L 78.75936 278.97529 
L 78.84864 209.669095 
L 79.0272 266.357866 
L 79.20576 226.314222 
L 79.29504 246.379375 
L 79.4736 226.896961 
L 79.65216 253.827306 
L 79.74144 248.801628 
L 79.92 253.575183 
L 80.00928 247.420416 
L 80.09856 225.506325 
L 80.18784 256.369078 
L 80.27712 254.591245 
L 80.3664 271.883281 
L 80.45568 214.311207 
L 80.54496 248.209372 
L 80.63424 220.438762 
L 80.8128 282.683818 
L 80.99136 225.861729 
L 81.08064 249.170799 
L 81.16992 241.661232 
L 81.2592 263.927457 
L 81.43776 243.539865 
L 81.52704 260.777294 
L 81.61632 159.505534 
L 81.79488 258.83175 
L 81.88416 227.80716 
L 81.97344 238.798999 
L 82.06272 226.397565 
L 82.152 270.827399 
L 82.33056 241.738824 
L 82.50912 246.301286 
L 82.5984 247.070199 
L 82.68768 218.021908 
L 82.77696 255.290198 
L 82.86624 244.056816 
L 82.95552 256.03892 
L 83.0448 232.125393 
L 83.13408 256.842935 
L 83.22336 245.543935 
L 83.31264 253.007733 
L 83.40192 245.71931 
L 83.4912 255.694301 
L 83.66976 245.599349 
L 83.75904 244.614568 
L 83.84832 237.554685 
L 83.9376 242.264803 
L 84.02688 218.394569 
L 84.11616 249.787445 
L 84.29472 216.166393 
L 84.65184 259.367093 
L 84.74112 247.872364 
L 84.8304 257.930397 
L 84.91968 216.922126 
L 85.09824 250.923668 
L 85.18752 237.51626 
L 85.2768 206.971202 
L 85.36608 231.12186 
L 85.45536 227.375968 
L 85.54464 242.424099 
L 85.63392 226.022363 
L 85.81248 244.636289 
L 85.99104 255.884 
L 86.1696 214.836802 
L 86.25888 223.519495 
L 86.43744 264.033716 
L 86.52672 239.846797 
L 86.70528 285.408 
L 86.88384 225.871723 
L 86.97312 239.591703 
L 87.0624 184.703993 
L 87.15168 238.693059 
L 87.24096 231.124009 
L 87.33024 276.573746 
L 87.5088 233.149137 
L 87.59808 251.119666 
L 87.68736 231.942175 
L 87.77664 242.355651 
L 87.86592 239.969763 
L 88.04448 222.541267 
L 88.13376 272.72945 
L 88.31232 234.226134 
L 88.49088 256.156509 
L 88.58016 239.15582 
L 88.66944 193.995607 
L 88.75872 232.779422 
L 88.848 215.426653 
L 88.93728 165.254109 
L 89.02656 251.184936 
L 89.11584 233.620235 
L 89.20512 262.684468 
L 89.2944 235.073059 
L 89.38368 258.167115 
L 89.47296 244.580115 
L 89.56224 247.568842 
L 89.65152 242.270816 
L 89.7408 227.082928 
L 89.83008 242.613082 
L 89.91936 238.058123 
L 90.09792 244.845841 
L 90.1872 241.555813 
L 90.27648 259.720322 
L 90.36576 231.767666 
L 90.45504 233.815958 
L 90.54432 235.173884 
L 90.6336 231.714712 
L 90.72288 243.398722 
L 90.81216 232.573591 
L 90.90144 238.147789 
L 90.99072 212.188048 
L 91.16928 252.312236 
L 91.25856 210.511615 
L 91.43712 241.822208 
L 91.5264 235.305787 
L 91.61568 266.442919 
L 91.70496 236.381823 
L 91.79424 247.430556 
L 91.88352 241.029652 
L 91.9728 260.374786 
L 92.06208 214.036302 
L 92.15136 249.910477 
L 92.24064 244.529045 
L 92.32992 245.386398 
L 92.4192 242.464139 
L 92.50848 264.265215 
L 92.59776 241.196727 
L 92.68704 241.483498 
L 92.8656 252.44826 
L 93.04416 237.086438 
L 93.13344 247.702702 
L 93.22272 237.975674 
L 93.312 198.351797 
L 93.49056 248.377762 
L 93.57984 233.532453 
L 93.66912 271.822409 
L 93.93696 183.508215 
L 94.2048 258.504094 
L 94.29408 222.727748 
L 94.38336 247.532621 
L 94.47264 207.349395 
L 94.56192 226.87552 
L 94.6512 224.613394 
L 94.74048 218.307377 
L 94.82976 169.381171 
L 94.91904 214.395709 
L 95.00832 213.721129 
L 95.0976 244.280747 
L 95.18688 239.395424 
L 95.27616 238.231893 
L 95.36544 248.189414 
L 95.45472 233.437692 
L 95.544 239.386405 
L 95.63328 209.690138 
L 95.72256 275.459565 
L 95.81184 244.333422 
L 95.90112 277.091879 
L 95.9904 225.78072 
L 96.16896 263.120599 
L 96.34752 222.244152 
L 96.4368 247.612993 
L 96.61536 240.064626 
L 96.70464 214.097311 
L 96.8832 255.073205 
L 97.15104 192.349231 
L 97.24032 261.509359 
L 97.50816 196.614154 
L 97.59744 248.335311 
L 97.68672 217.521533 
L 97.86528 265.24296 
L 98.04384 200.739532 
L 98.13312 253.041167 
L 98.2224 218.962555 
L 98.40096 257.45015 
L 98.6688 207.730838 
L 98.84736 268.783072 
L 99.02592 209.676182 
L 99.1152 196.933825 
L 99.29376 251.058143 
L 99.38304 222.00087 
L 99.65088 255.52019 
L 99.82944 205.804751 
L 99.91872 265.975614 
L 100.18656 235.796235 
L 100.27584 237.229793 
L 100.36512 233.903502 
L 100.63296 278.355416 
L 100.81152 223.298669 
L 100.99008 274.875861 
L 101.16864 227.293996 
L 101.25792 230.213189 
L 101.3472 246.660014 
L 101.43648 244.511829 
L 101.61504 236.064289 
L 101.70432 179.81087 
L 101.7936 251.7324 
L 101.88288 232.168445 
L 101.97216 241.755582 
L 102.06144 179.33034 
L 102.24 231.037469 
L 102.32928 242.442965 
L 102.41856 239.822041 
L 102.50784 228.713565 
L 102.6864 247.951368 
L 102.77568 246.826024 
L 102.86496 224.782289 
L 102.95424 232.771276 
L 103.04352 285.408 
L 103.1328 242.429758 
L 103.22208 262.991659 
L 103.31136 236.294869 
L 103.40064 240.737266 
L 103.5792 263.357523 
L 103.66848 228.407458 
L 103.75776 240.107504 
L 103.84704 238.018456 
L 103.93632 174.184846 
L 104.11488 245.494444 
L 104.20416 192.769526 
L 104.38272 265.280021 
L 104.472 258.932261 
L 104.56128 241.33626 
L 104.65056 136.879174 
L 104.73984 229.749761 
L 104.82912 224.946389 
L 105.00768 244.128221 
L 105.09696 217.31751 
L 105.18624 249.018077 
L 105.27552 241.902281 
L 105.3648 248.764465 
L 105.54336 232.229109 
L 105.63264 248.783183 
L 105.72192 235.426253 
L 105.8112 241.246303 
L 105.90048 217.562341 
L 105.98976 248.618786 
L 106.07904 226.833694 
L 106.16832 236.50517 
L 106.2576 232.828408 
L 106.43616 203.904457 
L 106.52544 218.515073 
L 106.61472 207.25075 
L 106.704 228.474161 
L 106.79328 215.386538 
L 106.88256 265.56091 
L 107.06112 211.487957 
L 107.1504 235.41789 
L 107.23968 224.138345 
L 107.32896 229.780832 
L 107.41824 249.001183 
L 107.50752 245.638178 
L 107.5968 222.921373 
L 107.68608 239.968462 
L 107.77536 198.503598 
L 107.95392 255.888238 
L 108.0432 237.477803 
L 108.13248 113.80944 
L 108.22176 247.469959 
L 108.31104 241.308022 
L 108.40032 233.220531 
L 108.4896 243.114217 
L 108.57888 237.356193 
L 108.66816 144.558369 
L 108.75744 227.595322 
L 108.84672 214.111601 
L 108.936 248.541963 
L 109.02528 209.744557 
L 109.11456 258.621928 
L 109.3824 207.804261 
L 109.47168 254.220899 
L 109.56096 112.610194 
L 109.65024 237.509824 
L 109.73952 205.091442 
L 109.8288 247.496265 
L 109.91808 243.310827 
L 110.00736 230.223713 
L 110.09664 246.578628 
L 110.18592 223.445515 
L 110.2752 282.494743 
L 110.45376 219.690973 
L 110.54304 241.678994 
L 110.63232 238.399829 
L 110.7216 239.916072 
L 110.81088 239.425436 
L 110.90016 243.202933 
L 110.98944 203.995843 
L 111.07872 236.956123 
L 111.168 228.934729 
L 111.25728 259.30801 
L 111.43584 154.762417 
L 111.52512 241.33453 
L 111.6144 224.763844 
L 111.70368 218.551834 
L 111.79296 231.446727 
L 111.88224 224.130755 
L 111.97152 275.339438 
L 112.0608 237.628877 
L 112.15008 253.218355 
L 112.23936 247.431988 
L 112.32864 232.124516 
L 112.41792 256.925652 
L 112.5072 193.334616 
L 112.68576 249.996416 
L 112.86432 225.389157 
L 112.9536 223.139494 
L 113.04288 210.937135 
L 113.13216 214.03002 
L 113.22144 199.393079 
L 113.31072 230.460068 
L 113.4 222.160917 
L 113.48928 256.697755 
L 113.57856 220.361733 
L 113.66784 248.008107 
L 113.75712 184.526131 
L 113.93568 253.669437 
L 114.02496 252.111235 
L 114.11424 210.381766 
L 114.20352 252.654253 
L 114.2928 242.55805 
L 114.38208 239.787856 
L 114.56064 212.72429 
L 114.64992 247.442807 
L 114.7392 223.432488 
L 114.82848 240.845541 
L 114.91776 223.768093 
L 115.00704 241.691447 
L 115.09632 224.099423 
L 115.1856 248.258416 
L 115.36416 215.729659 
L 115.45344 254.492666 
L 115.54272 213.818781 
L 115.632 272.602866 
L 115.72128 234.91362 
L 115.81056 250.822759 
L 115.89984 217.219195 
L 115.98912 241.770863 
L 116.0784 214.490122 
L 116.16768 247.135406 
L 116.25696 211.227812 
L 116.34624 246.108844 
L 116.43552 228.319261 
L 116.5248 259.035793 
L 116.70336 200.394847 
L 116.79264 252.871443 
L 116.88192 250.314427 
L 116.9712 224.573829 
L 117.06048 227.527541 
L 117.14976 241.771077 
L 117.23904 222.196397 
L 117.32832 225.1195 
L 117.4176 249.662484 
L 117.50688 205.780471 
L 117.68544 247.678365 
L 117.864 231.667394 
L 117.95328 255.529023 
L 118.04256 217.748824 
L 118.13184 231.326074 
L 118.22112 225.566949 
L 118.39968 245.509636 
L 118.57824 198.687326 
L 118.66752 228.476345 
L 118.7568 220.810874 
L 118.93536 254.676421 
L 119.02464 184.426073 
L 119.2032 253.080833 
L 119.29248 217.392207 
L 119.38176 237.587412 
L 119.47104 227.873749 
L 119.56032 237.565768 
L 119.6496 233.725082 
L 119.73888 221.270095 
L 119.82816 223.49929 
L 119.91744 231.457597 
L 120.00672 207.005732 
L 120.096 252.996601 
L 120.18528 248.544658 
L 120.27456 244.99257 
L 120.36384 222.849972 
L 120.45312 227.655343 
L 120.5424 207.493155 
L 120.63168 210.759405 
L 120.72096 275.017335 
L 120.9888 229.274236 
L 121.07808 238.903475 
L 121.16736 235.298886 
L 121.25664 224.924205 
L 121.34592 259.388308 
L 121.4352 228.905406 
L 121.52448 232.654429 
L 121.70304 248.460506 
L 121.97088 222.938126 
L 122.06016 223.769931 
L 122.14944 228.204692 
L 122.23872 255.471474 
L 122.328 237.371004 
L 122.41728 241.051583 
L 122.50656 250.344735 
L 122.68512 215.416857 
L 122.7744 243.130842 
L 122.86368 196.812082 
L 122.95296 257.571626 
L 123.04224 207.34592 
L 123.13152 236.249016 
L 123.2208 228.639755 
L 123.31008 229.868199 
L 123.48864 239.254484 
L 123.57792 231.551194 
L 123.6672 237.234063 
L 123.75648 222.207498 
L 123.84576 229.781122 
L 124.02432 224.483289 
L 124.20288 245.028551 
L 124.29216 246.504714 
L 124.38144 222.745233 
L 124.47072 250.05308 
L 124.64928 235.441616 
L 124.73856 261.039922 
L 124.82784 215.984312 
L 125.0064 247.72658 
L 125.09568 219.253417 
L 125.18496 222.956722 
L 125.27424 229.449234 
L 125.36352 245.040668 
L 125.54208 232.556574 
L 125.63136 246.357679 
L 125.72064 229.649249 
L 125.8992 247.473648 
L 125.98848 231.245503 
L 126.07776 249.427564 
L 126.16704 219.132815 
L 126.25632 240.454272 
L 126.3456 217.032339 
L 126.61344 236.430599 
L 126.70272 252.167294 
L 126.792 230.020375 
L 126.97056 243.552427 
L 127.14912 231.410205 
L 127.2384 239.679938 
L 127.41696 231.720665 
L 127.50624 144.271777 
L 127.6848 268.929732 
L 127.86336 209.135365 
L 127.95264 265.511738 
L 128.1312 210.10804 
L 128.22048 247.349131 
L 128.30976 232.149896 
L 128.39904 242.872635 
L 128.48832 215.876171 
L 128.66688 257.908115 
L 128.75616 249.338353 
L 128.84544 247.03234 
L 128.93472 248.725787 
L 129.11328 213.481982 
L 129.29184 258.088519 
L 129.38112 226.534982 
L 129.4704 138.677538 
L 129.55968 239.431803 
L 129.64896 184.810498 
L 129.73824 236.682286 
L 129.82752 233.62655 
L 129.9168 208.045375 
L 130.09536 253.691894 
L 130.18464 221.860295 
L 130.3632 247.084916 
L 130.63104 233.494027 
L 130.72032 263.636793 
L 130.89888 223.663377 
L 130.98816 196.65099 
L 131.16672 252.439452 
L 131.256 247.334544 
L 131.34528 250.943825 
L 131.43456 247.705466 
L 131.52384 248.649293 
L 131.61312 246.220991 
L 131.7024 230.804785 
L 131.79168 232.801821 
L 131.88096 239.376402 
L 131.97024 261.063826 
L 132.05952 215.120073 
L 132.1488 250.856151 
L 132.23808 246.214346 
L 132.50592 254.483484 
L 132.5952 223.287547 
L 132.68448 247.779825 
L 132.86304 194.037218 
L 132.95232 248.896443 
L 133.0416 202.812299 
L 133.13088 239.644044 
L 133.22016 131.861827 
L 133.30944 235.362449 
L 133.39872 228.9957 
L 133.488 235.118423 
L 133.57728 232.412448 
L 133.66656 241.667679 
L 134.02368 209.630573 
L 134.11296 261.478084 
L 134.20224 226.610477 
L 134.29152 242.0592 
L 134.3808 222.435909 
L 134.47008 248.3197 
L 134.55936 223.563374 
L 134.73792 262.110298 
L 134.8272 105.224304 
L 135.00576 247.078659 
L 135.09504 219.562105 
L 135.18432 246.841835 
L 135.2736 205.141879 
L 135.45216 259.600435 
L 135.54144 266.164924 
L 135.63072 206.382496 
L 135.72 276.271311 
L 136.07712 220.710641 
L 136.1664 207.912489 
L 136.34496 247.808034 
L 136.43424 208.108131 
L 136.52352 257.981189 
L 136.6128 206.131407 
L 136.70208 257.116208 
L 136.79136 252.100243 
L 136.88064 244.760778 
L 137.0592 223.576659 
L 137.14848 256.185746 
L 137.23776 243.027923 
L 137.32704 206.150032 
L 137.41632 257.51634 
L 137.68416 170.714604 
L 137.86272 234.981593 
L 137.952 228.058197 
L 138.04128 231.088444 
L 138.13056 255.191683 
L 138.21984 225.699809 
L 138.30912 239.447138 
L 138.48768 213.247998 
L 138.57696 253.680105 
L 138.66624 223.019845 
L 138.75552 248.240145 
L 138.8448 219.682566 
L 139.02336 255.175685 
L 139.11264 245.342255 
L 139.20192 251.150572 
L 139.2912 149.830486 
L 139.38048 240.180835 
L 139.46976 235.667411 
L 139.55904 229.907917 
L 139.64832 207.305192 
L 139.82688 249.323806 
L 139.91616 247.643139 
L 140.09472 223.128702 
L 140.27328 248.948911 
L 140.36256 224.549629 
L 140.54112 264.514404 
L 140.6304 224.054038 
L 140.71968 231.146622 
L 140.80896 243.725629 
L 140.89824 191.857313 
L 140.98752 249.498921 
L 141.0768 237.463999 
L 141.16608 200.462421 
L 141.25536 256.037592 
L 141.43392 218.559792 
L 141.5232 238.400908 
L 141.61248 235.662466 
L 141.70176 232.997352 
L 141.79104 238.746715 
L 141.88032 238.572366 
L 141.9696 205.097949 
L 142.14816 242.866619 
L 142.59456 198.725872 
L 142.77312 234.338194 
L 142.8624 205.095292 
L 143.04096 260.330554 
L 143.13024 203.650524 
L 143.21952 234.629006 
L 143.3088 228.260793 
L 143.39808 230.647199 
L 143.48736 228.800567 
L 143.57664 252.644156 
L 143.66592 221.359959 
L 143.7552 227.721241 
L 143.84448 253.055951 
L 143.93376 236.060287 
L 144.02304 236.875177 
L 144.11232 251.536522 
L 144.2016 240.946287 
L 144.29088 202.129887 
L 144.46944 249.253101 
L 144.55872 210.018898 
L 144.648 277.238478 
L 144.91584 206.996572 
L 145.00512 233.420806 
L 145.0944 230.587155 
L 145.18368 244.110849 
L 145.27296 234.909645 
L 145.36224 238.755152 
L 145.45152 253.675239 
L 145.5408 232.592665 
L 145.63008 233.818862 
L 145.71936 218.670249 
L 145.80864 237.852608 
L 145.89792 188.200879 
L 146.07648 252.997965 
L 146.16576 253.710758 
L 146.25504 259.423883 
L 146.4336 208.573547 
L 146.61216 238.057917 
L 146.70144 230.398553 
L 146.79072 230.458546 
L 146.88 233.288217 
L 146.96928 249.531911 
L 147.14784 216.4 
L 147.23712 225.797819 
L 147.3264 211.467536 
L 147.50496 256.562277 
L 147.59424 241.9217 
L 147.68352 268.143699 
L 147.7728 198.018898 
L 147.95136 243.613887 
L 148.04064 227.097174 
L 148.12992 242.64813 
L 148.2192 213.186775 
L 148.30848 259.165586 
L 148.39776 252.685274 
L 148.48704 226.930605 
L 148.57632 234.009808 
L 148.6656 151.345404 
L 148.84416 247.246684 
L 148.93344 221.567517 
L 149.02272 243.871472 
L 149.20128 224.877015 
L 149.29056 231.573332 
L 149.37984 256.053936 
L 149.46912 249.588604 
L 149.5584 251.013609 
L 149.64768 266.751008 
L 149.73696 212.912058 
L 149.82624 215.056415 
L 150.0048 269.16946 
L 150.18336 221.546551 
L 150.27264 249.260457 
L 150.36192 226.523969 
L 150.4512 241.805559 
L 150.62976 212.29428 
L 150.71904 219.0759 
L 150.80832 207.094948 
L 150.98688 249.670797 
L 151.07616 216.971807 
L 151.25472 262.023546 
L 151.43328 211.129094 
L 151.61184 236.565896 
L 151.70112 159.077326 
L 151.87968 243.002468 
L 151.96896 251.271717 
L 152.05824 249.437066 
L 152.14752 232.516649 
L 152.2368 233.770408 
L 152.32608 245.374833 
L 152.41536 213.350092 
L 152.50464 239.468492 
L 152.59392 237.1389 
L 152.6832 209.840306 
L 152.77248 255.865113 
L 152.95104 229.091907 
L 153.04032 142.844857 
L 153.1296 256.118428 
L 153.21888 249.252733 
L 153.30816 201.943747 
L 153.39744 260.006973 
L 153.576 225.033845 
L 153.66528 167.462416 
L 153.75456 216.147206 
L 153.84384 210.806818 
L 154.0224 236.802922 
L 154.11168 229.005389 
L 154.20096 257.230205 
L 154.29024 209.624435 
L 154.37952 234.871345 
L 154.4688 234.776672 
L 154.55808 210.137591 
L 154.9152 251.363746 
L 155.00448 247.694714 
L 155.09376 213.900996 
L 155.18304 216.773064 
L 155.3616 251.126221 
L 155.45088 206.929139 
L 155.54016 217.537867 
L 155.62944 243.734345 
L 155.71872 221.169142 
L 155.808 255.236859 
L 155.89728 231.071919 
L 155.98656 242.511987 
L 156.16512 222.020918 
L 156.2544 235.780704 
L 156.34368 221.036838 
L 156.43296 248.770155 
L 156.52224 239.560893 
L 156.61152 250.563755 
L 156.7008 229.233344 
L 156.79008 239.620401 
L 156.87936 217.984624 
L 156.96864 247.027504 
L 157.05792 224.011385 
L 157.1472 229.165162 
L 157.32576 243.357744 
L 157.41504 216.660048 
L 157.50432 231.366447 
L 157.5936 212.277408 
L 157.68288 234.458138 
L 157.77216 173.398159 
L 157.95072 245.974284 
L 158.12928 193.115796 
L 158.30784 247.430696 
L 158.39712 186.44512 
L 158.57568 249.578153 
L 158.66496 250.405097 
L 158.84352 230.563882 
L 158.9328 252.055267 
L 159.11136 212.817085 
L 159.20064 247.193324 
L 159.28992 233.592341 
L 159.3792 253.515237 
L 159.55776 225.869696 
L 159.64704 251.331569 
L 159.73632 243.90302 
L 159.8256 208.105958 
L 160.00416 236.032868 
L 160.09344 231.955053 
L 160.18272 238.865716 
L 160.272 207.793838 
L 160.45056 251.142317 
L 160.53984 240.357154 
L 160.7184 251.856571 
L 160.80768 206.524432 
L 160.98624 249.59437 
L 161.07552 218.845776 
L 161.1648 237.659808 
L 161.25408 220.18627 
L 161.43264 259.934022 
L 161.6112 209.396635 
L 161.70048 219.86044 
L 161.78976 219.72056 
L 161.87904 257.721633 
L 161.96832 225.828453 
L 162.0576 255.999604 
L 162.14688 255.009431 
L 162.23616 252.957957 
L 162.32544 225.300575 
L 162.41472 237.988391 
L 162.504 272.109556 
L 162.68256 237.569202 
L 162.77184 255.454776 
L 162.86112 228.584625 
L 162.9504 245.216121 
L 163.03968 244.760697 
L 163.21824 210.325331 
L 163.30752 216.033107 
L 163.3968 266.091506 
L 163.66464 235.362999 
L 163.75392 247.191197 
L 163.8432 221.657214 
L 163.93248 245.741291 
L 164.11104 224.205715 
L 164.20032 226.161211 
L 164.2896 171.462728 
L 164.46816 238.978207 
L 164.55744 218.068759 
L 164.736 269.001589 
L 165.00384 204.760434 
L 165.09312 250.912489 
L 165.1824 245.370554 
L 165.27168 217.441621 
L 165.36096 223.776813 
L 165.45024 211.298901 
L 165.53952 214.316004 
L 165.6288 215.92167 
L 165.71808 257.612677 
L 165.89664 202.449055 
L 166.0752 244.254048 
L 166.16448 238.158179 
L 166.25376 212.972457 
L 166.34304 246.440995 
L 166.43232 237.137787 
L 166.5216 253.537953 
L 166.61088 239.87801 
L 166.78944 250.922206 
L 166.87872 206.571845 
L 166.968 233.551323 
L 167.14656 206.317137 
L 167.23584 206.649177 
L 167.4144 244.522503 
L 167.50368 243.218785 
L 167.59296 226.615354 
L 167.68224 253.307873 
L 167.77152 249.782909 
L 167.8608 257.962662 
L 168.03936 244.745209 
L 168.12864 234.717501 
L 168.21792 239.677488 
L 168.39648 221.470897 
L 168.48576 232.307454 
L 168.57504 207.068694 
L 168.66432 246.128967 
L 168.7536 232.205478 
L 168.84288 243.780314 
L 168.93216 219.660433 
L 169.02144 227.562563 
L 169.2 252.13586 
L 169.37856 226.295818 
L 169.46784 230.633116 
L 169.55712 245.302693 
L 169.73568 183.499583 
L 169.91424 267.888386 
L 170.0928 229.869735 
L 170.27136 213.094473 
L 170.36064 243.124051 
L 170.44992 231.894751 
L 170.5392 266.462588 
L 170.62848 228.59114 
L 170.71776 233.715266 
L 170.89632 248.428202 
L 170.9856 222.336249 
L 171.34272 255.775119 
L 171.432 251.300103 
L 171.52128 225.750266 
L 171.69984 250.05035 
L 171.8784 196.985314 
L 171.96768 238.190565 
L 172.05696 229.565513 
L 172.14624 246.624547 
L 172.23552 222.739498 
L 172.41408 248.584347 
L 172.50336 192.468921 
L 172.59264 245.373581 
L 172.68192 213.757545 
L 172.86048 236.644133 
L 172.94976 232.501243 
L 173.03904 204.928966 
L 173.12832 236.507835 
L 173.39616 220.911953 
L 173.664 266.285861 
L 173.75328 237.963522 
L 173.84256 244.744031 
L 173.93184 230.491713 
L 174.02112 249.592388 
L 174.1104 248.444463 
L 174.19968 240.991206 
L 174.28896 183.727988 
L 174.5568 251.911193 
L 174.64608 259.21378 
L 174.73536 255.16121 
L 174.82464 211.344768 
L 175.0032 234.651424 
L 175.09248 193.777883 
L 175.27104 243.685038 
L 175.36032 238.653818 
L 175.4496 250.111402 
L 175.62816 238.761798 
L 175.896 255.727887 
L 176.16384 216.471071 
L 176.25312 213.758695 
L 176.3424 224.61025 
L 176.43168 216.818827 
L 176.52096 225.476443 
L 176.61024 252.44932 
L 176.69952 226.129506 
L 176.96736 253.401184 
L 177.05664 254.067668 
L 177.2352 222.168934 
L 177.32448 224.059385 
L 177.41376 244.317006 
L 177.50304 211.657594 
L 177.59232 243.639692 
L 177.77088 169.56511 
L 177.94944 227.235793 
L 178.03872 232.70114 
L 178.128 221.986559 
L 178.30656 246.930291 
L 178.39584 205.830104 
L 178.48512 250.995254 
L 178.66368 222.452378 
L 178.75296 208.672062 
L 178.93152 238.786611 
L 179.0208 217.471397 
L 179.11008 245.506816 
L 179.19936 217.973276 
L 179.28864 250.015537 
L 179.37792 213.943069 
L 179.4672 240.442406 
L 179.64576 215.731744 
L 179.82432 250.844083 
L 179.9136 223.590261 
L 180.00288 240.584484 
L 180.09216 224.08348 
L 180.18144 250.738278 
L 180.27072 231.125521 
L 180.44928 256.419052 
L 180.53856 226.179002 
L 180.62784 237.856724 
L 180.71712 221.779164 
L 180.8064 234.078316 
L 180.98496 217.924478 
L 181.07424 229.303199 
L 181.16352 255.943642 
L 181.2528 255.653882 
L 181.34208 243.242402 
L 181.43136 262.41897 
L 181.60992 236.051396 
L 181.78848 247.082252 
L 181.87776 221.918795 
L 182.05632 234.413528 
L 182.1456 235.820791 
L 182.23488 219.403816 
L 182.32416 244.928393 
L 182.41344 190.59543 
L 182.50272 248.487983 
L 182.592 227.445386 
L 182.68128 229.065074 
L 182.77056 237.692111 
L 182.85984 222.625165 
L 182.94912 255.642131 
L 183.0384 253.026659 
L 183.12768 226.120931 
L 183.21696 230.227397 
L 183.30624 233.800976 
L 183.39552 213.699711 
L 183.4848 223.225981 
L 183.57408 244.835503 
L 183.66336 206.071068 
L 183.84192 229.119292 
L 184.02048 251.509975 
L 184.10976 230.842827 
L 184.19904 259.584128 
L 184.28832 233.169533 
L 184.3776 247.162622 
L 184.55616 240.229046 
L 184.64544 242.617897 
L 184.824 208.036876 
L 185.00256 264.972252 
L 185.09184 204.769791 
L 185.2704 243.247824 
L 185.44896 197.808909 
L 185.53824 253.719683 
L 185.80608 213.38327 
L 185.98464 236.729027 
L 186.25248 252.643845 
L 186.34176 250.360043 
L 186.43104 261.775379 
L 186.52032 227.58735 
L 186.6096 228.415459 
L 186.69888 223.685834 
L 186.78816 225.6968 
L 186.87744 216.875633 
L 186.96672 255.713274 
L 187.14528 209.14128 
L 187.23456 242.437113 
L 187.32384 215.16267 
L 187.41312 243.012907 
L 187.5024 232.451161 
L 187.68096 190.219196 
L 187.77024 242.811482 
L 187.85952 235.796117 
L 187.9488 275.292318 
L 188.03808 204.598111 
L 188.12736 217.792678 
L 188.30592 240.114387 
L 188.3952 216.255908 
L 188.48448 226.90579 
L 188.57376 209.405491 
L 188.66304 229.356131 
L 188.75232 216.809143 
L 188.8416 240.331664 
L 188.93088 228.292583 
L 189.02016 239.912932 
L 189.19872 202.063692 
L 189.288 246.315007 
L 189.37728 220.359488 
L 189.46656 223.056074 
L 189.55584 239.105118 
L 189.64512 198.743346 
L 189.7344 215.370638 
L 189.82368 254.738199 
L 189.91296 246.920021 
L 190.00224 230.554485 
L 190.09152 252.049516 
L 190.27008 217.660273 
L 190.44864 261.966001 
L 190.53792 246.974731 
L 190.6272 193.343396 
L 190.89504 233.547976 
L 191.0736 254.643093 
L 191.16288 251.956548 
L 191.25216 228.735569 
L 191.34144 234.625407 
L 191.43072 210.029507 
L 191.52 253.760898 
L 191.69856 236.907985 
L 191.78784 244.158975 
L 191.9664 234.125028 
L 192.05568 245.978729 
L 192.14496 242.124119 
L 192.23424 128.509891 
L 192.32352 249.418415 
L 192.4128 217.156236 
L 192.59136 254.000634 
L 192.68064 229.981793 
L 192.8592 249.048677 
L 192.94848 236.111478 
L 193.03776 268.26716 
L 193.21632 239.262751 
L 193.39488 233.832461 
L 193.48416 252.642045 
L 193.57344 212.726225 
L 193.66272 214.447934 
L 193.752 251.889124 
L 193.84128 223.272411 
L 194.01984 238.410573 
L 194.10912 213.307831 
L 194.1984 218.713737 
L 194.37696 244.383392 
L 194.55552 206.632638 
L 194.6448 248.837351 
L 194.73408 163.595669 
L 194.91264 247.909418 
L 195.0912 235.540752 
L 195.18048 246.622447 
L 195.26976 239.387381 
L 195.35904 154.97387 
L 195.5376 254.873058 
L 195.80544 214.401016 
L 195.984 235.194089 
L 196.07328 209.566113 
L 196.25184 241.672133 
L 196.34112 244.83312 
L 196.4304 261.182415 
L 196.51968 237.698193 
L 196.60896 147.46485 
L 196.69824 248.758895 
L 196.78752 219.390478 
L 196.8768 249.194842 
L 197.14464 205.228886 
L 197.3232 254.567395 
L 197.41248 203.38157 
L 197.50176 236.287502 
L 197.59104 196.531657 
L 197.68032 247.405745 
L 197.85888 146.828903 
L 198.03744 254.875405 
L 198.12672 236.059757 
L 198.216 238.653355 
L 198.30528 226.511569 
L 198.39456 248.529925 
L 198.48384 217.209039 
L 198.57312 239.268288 
L 198.6624 209.573183 
L 198.75168 252.8445 
L 198.93024 216.0501 
L 199.01952 207.458351 
L 199.1088 250.383068 
L 199.19808 229.675871 
L 199.28736 247.252558 
L 199.37664 221.30613 
L 199.46592 252.292782 
L 199.73376 218.139037 
L 199.82304 254.274541 
L 200.0016 167.454123 
L 200.18016 217.143864 
L 200.26944 208.05636 
L 200.35872 144.4307 
L 200.448 229.759958 
L 200.53728 226.461708 
L 200.80512 248.410641 
L 200.8944 227.842207 
L 201.07296 254.753515 
L 201.25152 217.026038 
L 201.3408 227.681398 
L 201.43008 210.896599 
L 201.51936 258.065694 
L 201.60864 161.224441 
L 201.7872 259.306733 
L 201.87648 222.455057 
L 202.05504 237.260926 
L 202.14432 235.179865 
L 202.2336 221.353683 
L 202.41216 237.030037 
L 202.50144 203.763802 
L 202.59072 255.834484 
L 202.68 207.200392 
L 202.85856 227.787154 
L 202.94784 142.116293 
L 203.03712 242.554679 
L 203.1264 238.546136 
L 203.21568 213.956442 
L 203.30496 281.951555 
L 203.48352 170.19634 
L 203.66208 242.732938 
L 203.75136 243.022058 
L 203.84064 157.576516 
L 204.0192 233.171033 
L 204.10848 231.031316 
L 204.19776 242.121624 
L 204.28704 205.124464 
L 204.37632 249.479058 
L 204.4656 228.177467 
L 204.55488 234.452305 
L 204.73344 117.493676 
L 204.82272 246.470583 
L 204.912 153.612312 
L 205.09056 233.823658 
L 205.26912 223.135861 
L 205.3584 244.828517 
L 205.44768 232.044347 
L 205.53696 161.951147 
L 205.62624 239.605297 
L 205.71552 237.161865 
L 205.8048 209.784834 
L 205.89408 234.170514 
L 205.98336 233.616449 
L 206.07264 248.688769 
L 206.16192 227.140012 
L 206.2512 245.531972 
L 206.34048 208.605583 
L 206.51904 240.499096 
L 206.6976 240.326386 
L 206.87616 227.869075 
L 206.96544 236.750375 
L 207.05472 234.983491 
L 207.144 221.557442 
L 207.41184 243.639523 
L 207.5904 219.807461 
L 207.67968 224.720032 
L 207.76896 155.772012 
L 207.94752 243.203516 
L 208.0368 242.075155 
L 208.12608 234.0286 
L 208.21536 245.114732 
L 208.30464 154.612956 
L 208.39392 225.105689 
L 208.4832 192.705135 
L 208.57248 238.182665 
L 208.66176 224.779596 
L 208.75104 228.656582 
L 208.84032 237.815825 
L 208.9296 197.790312 
L 209.10816 239.105757 
L 209.19744 201.203333 
L 209.28672 207.557135 
L 209.376 232.787809 
L 209.46528 228.09987 
L 209.55456 201.849319 
L 209.73312 253.676102 
L 209.8224 235.642252 
L 209.91168 186.286208 
L 210.00096 244.464438 
L 210.17952 204.857738 
L 210.35808 241.119689 
L 210.44736 215.907958 
L 210.53664 119.478939 
L 210.7152 229.876911 
L 210.80448 198.499012 
L 210.89376 243.329195 
L 211.07232 160.736738 
L 211.34016 263.821795 
L 211.42944 238.43321 
L 211.51872 216.559093 
L 211.69728 275.581791 
L 211.78656 253.224287 
L 211.87584 190.009357 
L 211.96512 243.913297 
L 212.0544 223.920471 
L 212.14368 167.284519 
L 212.23296 250.152155 
L 212.32224 208.735052 
L 212.41152 256.954491 
L 212.5008 188.371577 
L 212.67936 235.683046 
L 212.76864 212.42652 
L 212.9472 252.801433 
L 213.03648 251.08035 
L 213.12576 219.536555 
L 213.21504 262.718536 
L 213.48288 197.833008 
L 213.66144 254.095124 
L 213.84 201.95892 
L 214.01856 242.271913 
L 214.19712 176.150997 
L 214.37568 242.085264 
L 214.46496 232.595527 
L 214.55424 249.115583 
L 214.64352 244.551778 
L 214.7328 207.992012 
L 214.91136 261.629049 
L 215.00064 235.454978 
L 215.08992 251.012098 
L 215.1792 224.445094 
L 215.26848 226.672373 
L 215.35776 209.968198 
L 215.44704 226.255592 
L 215.53632 213.995448 
L 215.6256 229.632947 
L 215.71488 221.912803 
L 215.89344 243.321774 
L 215.98272 231.551931 
L 216.072 188.612933 
L 216.42912 238.019912 
L 216.5184 222.713917 
L 216.60768 244.356314 
L 216.69696 220.173865 
L 216.78624 248.444604 
L 216.87552 217.571962 
L 216.9648 219.524265 
L 217.05408 221.096891 
L 217.14336 239.753902 
L 217.23264 221.77945 
L 217.4112 235.265883 
L 217.50048 205.455752 
L 217.67904 215.664853 
L 217.76832 212.552119 
L 217.8576 240.002435 
L 218.03616 213.542538 
L 218.12544 251.632829 
L 218.21472 229.735645 
L 218.304 246.332605 
L 218.39328 193.537039 
L 218.48256 251.908991 
L 218.57184 126.453722 
L 218.7504 247.495453 
L 218.83968 231.412353 
L 218.92896 236.208687 
L 219.01824 231.707405 
L 219.1968 241.017813 
L 219.28608 214.69094 
L 219.37536 222.902751 
L 219.46464 216.400838 
L 219.55392 234.791012 
L 219.6432 234.210046 
L 219.82176 245.987451 
L 219.91104 234.357634 
L 220.00032 241.444705 
L 220.0896 218.046192 
L 220.17888 226.079155 
L 220.26816 205.447592 
L 220.35744 233.040844 
L 220.44672 228.230731 
L 220.536 209.232947 
L 220.62528 213.156636 
L 220.71456 207.340028 
L 220.89312 247.92075 
L 220.9824 218.077715 
L 221.07168 242.657059 
L 221.25024 221.510054 
L 221.33952 245.973387 
L 221.51808 215.465418 
L 221.60736 243.650317 
L 221.69664 227.02616 
L 221.78592 240.550174 
L 221.8752 236.310075 
L 221.96448 207.816193 
L 222.05376 240.142261 
L 222.14304 225.576961 
L 222.23232 236.488589 
L 222.3216 207.375988 
L 222.41088 245.782055 
L 222.50016 131.43753 
L 222.58944 269.474719 
L 222.768 184.659285 
L 222.94656 249.005726 
L 223.03584 251.150431 
L 223.2144 212.981203 
L 223.30368 241.787909 
L 223.39296 218.26307 
L 223.6608 249.463478 
L 223.83936 224.813618 
L 223.92864 226.037111 
L 224.01792 228.986304 
L 224.1072 245.456505 
L 224.19648 220.956402 
L 224.37504 244.95297 
L 224.46432 225.662926 
L 224.64288 253.599976 
L 224.73216 142.842355 
L 224.91072 247.77379 
L 225 243.744005 
L 225.08928 209.253873 
L 225.17856 241.237308 
L 225.26784 236.262825 
L 225.4464 215.571377 
L 225.62496 230.023363 
L 225.71424 209.454971 
L 225.80352 247.470092 
L 225.8928 239.642608 
L 226.07136 229.095549 
L 226.16064 242.910368 
L 226.24992 220.410211 
L 226.3392 254.18875 
L 226.42848 246.688704 
L 226.51776 225.624956 
L 226.60704 272.091897 
L 226.7856 223.449607 
L 226.87488 227.944903 
L 226.96416 252.964928 
L 227.05344 243.151702 
L 227.14272 199.212187 
L 227.232 239.529312 
L 227.32128 236.984331 
L 227.49984 256.968242 
L 227.6784 154.303882 
L 227.85696 235.303992 
L 227.94624 223.32445 
L 228.1248 239.450602 
L 228.30336 230.323835 
L 228.39264 237.561167 
L 228.48192 184.806611 
L 228.5712 231.968823 
L 228.66048 206.58666 
L 228.74976 224.124554 
L 228.83904 217.124782 
L 229.0176 255.252243 
L 229.19616 204.863192 
L 229.28544 220.82906 
L 229.37472 251.70103 
L 229.73184 213.672496 
L 229.9104 250.455036 
L 229.99968 239.007882 
L 230.08896 268.841139 
L 230.26752 229.80759 
L 230.3568 242.545662 
L 230.44608 160.932546 
L 230.62464 254.029946 
L 230.71392 220.722299 
L 230.89248 239.178447 
L 230.98176 225.798884 
L 231.07104 241.501424 
L 231.33888 226.600791 
L 231.51744 251.535545 
L 231.696 190.228719 
L 231.96384 245.022591 
L 232.05312 229.283245 
L 232.1424 242.713772 
L 232.23168 209.668551 
L 232.32096 232.58071 
L 232.41024 182.370112 
L 232.5888 230.941136 
L 232.67808 232.558796 
L 232.76736 229.416923 
L 232.85664 221.792669 
L 233.0352 225.824966 
L 233.12448 190.428532 
L 233.21376 248.350502 
L 233.4816 209.693374 
L 233.57088 216.129435 
L 233.66016 244.971746 
L 233.74944 240.270805 
L 233.83872 218.03894 
L 233.928 244.598085 
L 234.01728 106.4762 
L 234.10656 230.874727 
L 234.19584 194.076435 
L 234.3744 218.549305 
L 234.46368 232.717873 
L 234.55296 213.813676 
L 234.64224 215.026688 
L 234.91008 193.187242 
L 234.99936 247.742221 
L 235.08864 210.614231 
L 235.17792 241.252928 
L 235.44576 207.593272 
L 235.53504 200.763479 
L 235.62432 239.937123 
L 235.7136 234.355226 
L 235.89216 213.55059 
L 235.98144 217.313648 
L 236.16 244.258426 
L 236.24928 234.511853 
L 236.33856 210.007746 
L 236.42784 137.640242 
L 236.51712 256.764146 
L 236.6064 232.767455 
L 236.69568 212.485474 
L 236.78496 220.274372 
L 236.87424 255.344094 
L 237.0528 124.172524 
L 237.23136 226.917957 
L 237.32064 200.791895 
L 237.58848 239.323472 
L 237.67776 195.134058 
L 237.76704 255.973297 
L 237.85632 248.597767 
L 237.9456 221.339928 
L 238.03488 244.202833 
L 238.12416 170.370819 
L 238.30272 233.355962 
L 238.392 246.157049 
L 238.65984 223.725018 
L 238.74912 239.171837 
L 238.8384 232.140699 
L 239.01696 191.828074 
L 239.10624 198.54848 
L 239.19552 241.983379 
L 239.2848 241.836441 
L 239.37408 243.762369 
L 239.46336 235.982427 
L 239.55264 208.58403 
L 239.64192 233.149448 
L 239.7312 152.188291 
L 239.82048 208.871409 
L 239.90976 176.455932 
L 240.08832 213.463912 
L 240.1776 216.260515 
L 240.26688 245.942614 
L 240.35616 200.763243 
L 240.624 226.473374 
L 240.71328 234.889847 
L 240.80256 217.337539 
L 240.89184 154.837574 
L 240.98112 214.448436 
L 241.0704 183.789935 
L 241.15968 224.380266 
L 241.24896 202.035015 
L 241.42752 229.244122 
L 241.5168 224.935124 
L 241.69536 253.020313 
L 241.87392 199.928518 
L 241.9632 242.62433 
L 242.05248 232.273692 
L 242.14176 229.338184 
L 242.23104 237.03219 
L 242.32032 208.133875 
L 242.4096 211.860852 
L 242.49888 219.353717 
L 242.58816 214.529886 
L 242.67744 152.071012 
L 242.856 227.49211 
L 242.94528 155.233009 
L 243.12384 224.467479 
L 243.21312 234.598215 
L 243.39168 226.678003 
L 243.57024 254.784454 
L 243.65952 246.950491 
L 243.7488 219.387227 
L 243.83808 236.757276 
L 243.92736 212.866677 
L 244.01664 212.917809 
L 244.10592 235.810689 
L 244.1952 200.975572 
L 244.46304 251.091693 
L 244.6416 192.348448 
L 244.73088 199.836681 
L 244.82016 220.449178 
L 244.90944 97.378829 
L 244.99872 243.522837 
L 245.088 222.588869 
L 245.17728 236.521238 
L 245.26656 164.833164 
L 245.44512 227.319521 
L 245.5344 222.517107 
L 245.62368 182.888882 
L 245.80224 229.220573 
L 245.89152 198.67342 
L 246.07008 231.670992 
L 246.15936 117.667261 
L 246.33792 224.651058 
L 246.4272 216.688897 
L 246.51648 228.253143 
L 246.60576 217.589755 
L 246.69504 223.226452 
L 246.78432 144.076821 
L 246.96288 237.850565 
L 247.05216 218.786001 
L 247.14144 222.231321 
L 247.23072 233.680866 
L 247.32 270.57308 
L 247.40928 231.633804 
L 247.49856 252.29435 
L 247.58784 200.590264 
L 247.67712 205.496192 
L 247.85568 241.742113 
L 248.03424 228.66145 
L 248.2128 210.850152 
L 248.39136 240.526218 
L 248.48064 228.934524 
L 248.56992 234.084282 
L 248.6592 216.899856 
L 248.74848 246.109637 
L 248.83776 213.766397 
L 248.92704 220.272827 
L 249.01632 213.44446 
L 249.1056 188.791026 
L 249.28416 245.740265 
L 249.37344 216.088026 
L 249.46272 239.055527 
L 249.64128 225.760934 
L 249.73056 209.694195 
L 249.81984 162.254391 
L 249.90912 233.755815 
L 249.9984 200.125095 
L 250.08768 231.933993 
L 250.17696 181.519707 
L 250.26624 241.977243 
L 250.35552 225.513194 
L 250.4448 238.546964 
L 250.53408 129.953864 
L 250.62336 215.086296 
L 250.71264 203.817825 
L 250.80192 229.572811 
L 250.98048 204.94563 
L 251.06976 240.015557 
L 251.15904 225.855388 
L 251.24832 164.317487 
L 251.42688 229.614313 
L 251.51616 229.442209 
L 251.60544 199.208695 
L 251.784 254.38162 
L 251.96256 206.275513 
L 252.14112 223.933591 
L 252.31968 239.763581 
L 252.40896 232.028392 
L 252.49824 200.515766 
L 252.6768 230.75219 
L 252.76608 178.790209 
L 252.94464 230.432023 
L 253.03392 227.413493 
L 253.1232 233.492519 
L 253.21248 220.531908 
L 253.30176 249.130929 
L 253.39104 220.950966 
L 253.48032 240.335891 
L 253.65888 205.768151 
L 253.74816 237.679246 
L 253.83744 205.271908 
L 253.92672 232.262173 
L 254.016 147.619267 
L 254.19456 241.808526 
L 254.28384 198.823673 
L 254.55168 243.970077 
L 254.64096 242.717727 
L 254.81952 213.852016 
L 254.99808 242.435435 
L 255.08736 236.367045 
L 255.17664 237.829235 
L 255.26592 250.626171 
L 255.3552 175.882194 
L 255.44448 242.1408 
L 255.53376 215.037352 
L 255.62304 236.708637 
L 255.71232 230.18189 
L 255.8016 253.4238 
L 255.89088 229.950523 
L 256.06944 251.099894 
L 256.248 234.864637 
L 256.33728 239.013745 
L 256.42656 225.327233 
L 256.60512 245.264357 
L 256.6944 225.589672 
L 256.78368 258.037584 
L 256.87296 247.427335 
L 257.05152 192.823931 
L 257.1408 239.588237 
L 257.31936 212.91016 
L 257.40864 230.651022 
L 257.49792 222.731443 
L 257.5872 194.584414 
L 257.67648 254.894971 
L 257.76576 231.230914 
L 257.85504 259.212297 
L 257.94432 232.397624 
L 258.0336 242.14755 
L 258.12288 211.436639 
L 258.21216 218.301958 
L 258.30144 220.354393 
L 258.39072 125.394979 
L 258.48 226.47884 
L 258.56928 225.429951 
L 258.65856 218.077993 
L 258.74784 183.900502 
L 258.83712 236.255918 
L 258.9264 150.115573 
L 259.10496 248.885259 
L 259.3728 234.785651 
L 259.46208 228.296212 
L 259.64064 234.139082 
L 259.8192 213.533559 
L 259.90848 100.803677 
L 259.99776 234.632385 
L 260.08704 176.261138 
L 260.17632 217.83961 
L 260.2656 207.843483 
L 260.35488 242.628949 
L 260.53344 215.320425 
L 260.62272 101.487713 
L 260.712 217.939172 
L 260.80128 201.545124 
L 260.89056 247.58813 
L 260.97984 228.322654 
L 261.1584 264.101994 
L 261.24768 216.228579 
L 261.33696 218.20718 
L 261.42624 232.004207 
L 261.51552 221.898996 
L 261.69408 241.246627 
L 261.87264 102.163261 
L 262.0512 243.085724 
L 262.14048 261.623837 
L 262.31904 129.182181 
L 262.4976 228.74817 
L 262.58688 231.338295 
L 262.67616 250.512753 
L 262.76544 177.837721 
L 262.85472 180.965023 
L 262.944 209.931547 
L 263.03328 186.939883 
L 263.30112 253.141636 
L 263.3904 215.249707 
L 263.47968 237.186342 
L 263.56896 221.298353 
L 263.65824 229.257491 
L 263.74752 164.863986 
L 263.8368 212.652174 
L 263.92608 119.95275 
L 264.10464 224.874413 
L 264.19392 239.840667 
L 264.2832 201.265563 
L 264.37248 210.82414 
L 264.46176 182.946157 
L 264.64032 220.498937 
L 264.7296 189.056213 
L 264.90816 250.151683 
L 264.99744 240.930011 
L 265.08672 221.642194 
L 265.176 251.850744 
L 265.44384 195.547798 
L 265.53312 233.454239 
L 265.6224 203.204678 
L 265.80096 241.867965 
L 265.89024 218.364638 
L 266.0688 264.467928 
L 266.24736 155.845389 
L 266.42592 262.811638 
L 266.5152 208.073816 
L 266.69376 232.982416 
L 266.78304 215.90798 
L 266.87232 134.926306 
L 266.9616 236.879746 
L 267.05088 232.234704 
L 267.14016 218.901389 
L 267.22944 220.498743 
L 267.408 233.402225 
L 267.49728 187.447347 
L 267.67584 253.957432 
L 267.76512 227.558201 
L 267.8544 238.390064 
L 267.94368 186.506082 
L 268.03296 251.382516 
L 268.12224 244.811938 
L 268.21152 187.818545 
L 268.47936 243.914598 
L 268.56864 234.966613 
L 268.65792 240.454317 
L 268.7472 197.241685 
L 268.83648 207.34075 
L 268.92576 236.267245 
L 269.10432 205.273133 
L 269.1936 231.690843 
L 269.28288 228.18244 
L 269.37216 243.570585 
L 269.46144 218.859517 
L 269.55072 235.516473 
L 269.72928 221.815341 
L 269.81856 221.357562 
L 269.90784 245.769203 
L 269.99712 232.918229 
L 270.0864 251.187757 
L 270.17568 244.558491 
L 270.26496 174.957469 
L 270.44352 231.319088 
L 270.62208 218.978666 
L 270.71136 184.515732 
L 270.88992 230.798863 
L 270.9792 240.952814 
L 271.06848 200.191995 
L 271.15776 246.12417 
L 271.33632 203.067238 
L 271.4256 254.207894 
L 271.51488 150.684933 
L 271.69344 248.887548 
L 271.78272 217.681677 
L 271.872 222.306694 
L 272.05056 241.650294 
L 272.22912 220.696991 
L 272.3184 245.598951 
L 272.58624 160.200638 
L 272.7648 218.481463 
L 272.85408 154.952591 
L 273.03264 231.245171 
L 273.12192 234.837177 
L 273.2112 251.049389 
L 273.30048 225.146728 
L 273.38976 240.083644 
L 273.47904 224.523469 
L 273.56832 232.140214 
L 273.74688 203.105687 
L 273.83616 238.901183 
L 273.92544 213.319941 
L 274.01472 229.800698 
L 274.104 192.599324 
L 274.28256 245.83148 
L 274.37184 230.789668 
L 274.46112 175.123663 
L 274.5504 245.345021 
L 274.63968 230.49168 
L 274.72896 232.283889 
L 274.81824 247.984243 
L 274.90752 216.298925 
L 275.08608 258.11019 
L 275.17536 155.313112 
L 275.26464 235.859508 
L 275.35392 215.782646 
L 275.53248 240.104487 
L 275.62176 185.197794 
L 275.71104 237.300474 
L 275.80032 221.230465 
L 275.97888 231.704835 
L 276.06816 249.093045 
L 276.15744 228.90482 
L 276.24672 136.709175 
L 276.42528 239.126109 
L 276.51456 236.867311 
L 276.60384 251.811295 
L 276.87168 205.638198 
L 276.96096 209.659377 
L 277.05024 241.981246 
L 277.13952 212.33378 
L 277.31808 231.459517 
L 277.40736 143.862368 
L 277.49664 236.94276 
L 277.58592 236.639995 
L 277.6752 249.069722 
L 277.76448 220.459222 
L 277.85376 226.587581 
L 277.94304 243.613819 
L 278.03232 197.496631 
L 278.21088 250.796316 
L 278.30016 221.884307 
L 278.38944 226.435173 
L 278.47872 215.609815 
L 278.65728 232.860753 
L 278.74656 204.309805 
L 278.83584 241.193438 
L 278.92512 198.025548 
L 279.10368 258.211554 
L 279.19296 131.067056 
L 279.37152 223.798915 
L 279.4608 236.52167 
L 279.63936 142.016099 
L 279.81792 164.064132 
L 279.9072 221.840997 
L 279.99648 218.280253 
L 280.08576 171.594923 
L 280.17504 217.653742 
L 280.26432 205.60691 
L 280.44288 235.232849 
L 280.53216 214.476314 
L 280.71072 231.248255 
L 280.8 203.07536 
L 281.06784 232.55706 
L 281.15712 208.534842 
L 281.2464 129.683035 
L 281.42496 256.875467 
L 281.60352 190.831305 
L 281.78208 245.747414 
L 281.87136 225.09876 
L 281.96064 157.09741 
L 282.04992 224.079015 
L 282.1392 143.614442 
L 282.40704 233.771836 
L 282.49632 227.247391 
L 282.5856 230.392863 
L 282.67488 221.293593 
L 282.76416 238.028411 
L 282.94272 219.886718 
L 283.032 259.919321 
L 283.12128 197.160655 
L 283.38912 232.974031 
L 283.4784 213.787712 
L 283.56768 224.76382 
L 283.65696 131.475739 
L 283.74624 226.063315 
L 283.83552 177.213507 
L 283.9248 224.207317 
L 284.01408 177.800173 
L 284.10336 250.184603 
L 284.19264 240.206654 
L 284.54976 205.524274 
L 284.63904 208.277643 
L 284.8176 140.235741 
L 284.90688 233.152146 
L 284.99616 232.473903 
L 285.08544 210.490687 
L 285.264 233.500317 
L 285.35328 215.880528 
L 285.44256 220.437759 
L 285.53184 198.445582 
L 285.7104 240.151474 
L 286.06752 186.458082 
L 286.1568 240.858756 
L 286.42464 195.773272 
L 286.51392 235.728363 
L 286.6032 190.934073 
L 286.69248 229.508063 
L 286.78176 227.783628 
L 286.87104 223.86602 
L 286.96032 229.013201 
L 287.0496 224.952227 
L 287.13888 230.889977 
L 287.22816 213.858381 
L 287.31744 240.53261 
L 287.58528 217.259674 
L 287.67456 181.230296 
L 287.76384 245.64549 
L 287.85312 205.233291 
L 287.9424 227.752952 
L 288.03168 214.726341 
L 288.21024 226.453974 
L 288.29952 212.147247 
L 288.47808 245.078698 
L 288.56736 242.383889 
L 288.65664 210.030022 
L 288.74592 233.396329 
L 288.8352 151.547609 
L 289.01376 259.596934 
L 289.19232 222.280373 
L 289.2816 248.363609 
L 289.46016 208.292508 
L 289.54944 201.452989 
L 289.81728 255.668838 
L 289.99584 225.297197 
L 290.1744 254.792006 
L 290.26368 225.671024 
L 290.35296 245.72284 
L 290.44224 140.852394 
L 290.6208 246.034754 
L 290.71008 231.700897 
L 290.79936 243.190143 
L 290.88864 229.478416 
L 290.97792 154.862943 
L 291.15648 249.166667 
L 291.42432 173.487562 
L 291.60288 227.328909 
L 291.69216 240.201539 
L 291.78144 185.317361 
L 291.87072 196.26707 
L 291.96 188.35807 
L 292.04928 220.732209 
L 292.13856 157.976493 
L 292.22784 159.801273 
L 292.31712 249.238513 
L 292.4064 216.640211 
L 292.49568 253.920069 
L 292.58496 242.198712 
L 292.76352 138.847289 
L 292.94208 253.471659 
L 293.03136 203.230204 
L 293.12064 206.799339 
L 293.20992 241.019345 
L 293.2992 236.667069 
L 293.38848 196.548429 
L 293.47776 219.994615 
L 293.56704 151.848503 
L 293.7456 237.024734 
L 293.83488 119.19681 
L 293.92416 222.880667 
L 294.01344 219.790935 
L 294.10272 240.512997 
L 294.192 213.158032 
L 294.28128 227.636635 
L 294.45984 222.628672 
L 294.54912 235.644912 
L 294.81696 207.293663 
L 294.99552 237.650558 
L 295.17408 223.164459 
L 295.26336 180.370001 
L 295.35264 228.720787 
L 295.44192 217.015998 
L 295.5312 214.520784 
L 295.62048 198.193656 
L 295.70976 249.501321 
L 295.88832 223.046058 
L 295.9776 137.271322 
L 296.06688 225.4541 
L 296.15616 221.486597 
L 296.24544 194.81766 
L 296.424 234.41934 
L 296.51328 237.520194 
L 296.60256 235.350838 
L 296.69184 201.746696 
L 296.78112 212.131251 
L 296.8704 236.094473 
L 296.95968 228.340377 
L 297.04896 198.216795 
L 297.13824 246.416303 
L 297.22752 238.844659 
L 297.3168 236.81383 
L 297.40608 244.609858 
L 297.67392 219.814346 
L 297.7632 242.802756 
L 297.85248 238.091934 
L 297.94176 227.524459 
L 298.12032 237.321097 
L 298.2096 232.326367 
L 298.29888 260.500901 
L 298.38816 217.605415 
L 298.47744 222.395945 
L 298.56672 203.13843 
L 298.656 250.728384 
L 298.74528 246.022851 
L 298.83456 222.015694 
L 298.92384 254.761038 
L 299.1024 240.094083 
L 299.19168 195.630779 
L 299.28096 258.452376 
L 299.37024 223.669454 
L 299.45952 252.689738 
L 299.5488 250.989926 
L 299.63808 232.025855 
L 299.72736 247.783161 
L 299.81664 233.487909 
L 299.90592 234.196606 
L 299.9952 249.076743 
L 300.17376 218.066482 
L 300.26304 234.866727 
L 300.4416 179.411499 
L 300.62016 248.842593 
L 300.70944 246.716875 
L 300.79872 256.354241 
L 301.06656 199.683202 
L 301.15584 208.871064 
L 301.3344 233.141309 
L 301.51296 223.402063 
L 301.60224 233.806187 
L 301.69152 228.380766 
L 301.7808 249.095763 
L 301.87008 208.789698 
L 301.95936 241.966639 
L 302.04864 233.382686 
L 302.13792 255.075452 
L 302.40576 145.302328 
L 302.58432 246.79926 
L 302.6736 243.012646 
L 302.76288 205.390091 
L 302.85216 248.896957 
L 302.94144 248.312008 
L 303.12 219.944395 
L 303.20928 232.552862 
L 303.29856 227.441146 
L 303.38784 246.744141 
L 303.47712 204.813626 
L 303.65568 249.639504 
L 303.74496 231.42938 
L 303.83424 235.666489 
L 303.92352 247.843906 
L 304.0128 198.81507 
L 304.28064 239.972562 
L 304.54848 203.323794 
L 304.72704 251.206856 
L 304.81632 212.828553 
L 304.9056 214.661982 
L 304.99488 213.221618 
L 305.08416 236.295848 
L 305.26272 132.142207 
L 305.352 259.248628 
L 305.44128 211.576979 
L 305.53056 233.228844 
L 305.70912 148.784813 
L 305.88768 231.265133 
L 305.97696 229.82696 
L 306.06624 233.54461 
L 306.15552 132.31611 
L 306.2448 220.981114 
L 306.33408 220.28949 
L 306.42336 230.809623 
L 306.51264 173.033127 
L 306.6912 218.061795 
L 306.78048 237.425042 
L 306.86976 236.224549 
L 306.95904 207.832991 
L 307.04832 225.401511 
L 307.22688 206.042952 
L 307.40544 248.041802 
L 307.584 175.798138 
L 307.67328 229.557854 
L 307.76256 229.445396 
L 307.85184 215.687351 
L 307.94112 256.377962 
L 308.20896 145.166502 
L 308.4768 238.978114 
L 308.56608 244.652701 
L 308.65536 212.303605 
L 308.74464 228.701831 
L 308.83392 201.589869 
L 308.9232 247.258164 
L 309.01248 191.038111 
L 309.10176 248.000149 
L 309.19104 238.580368 
L 309.28032 235.651379 
L 309.3696 156.401858 
L 309.45888 162.608569 
L 309.54816 262.830932 
L 309.63744 257.033608 
L 309.816 239.835495 
L 309.90528 148.131238 
L 310.08384 255.213447 
L 310.17312 226.397315 
L 310.2624 237.648372 
L 310.35168 173.137769 
L 310.44096 249.107083 
L 310.53024 227.027873 
L 310.61952 227.721907 
L 310.7088 230.43773 
L 310.79808 217.649633 
L 310.88736 169.160339 
L 311.06592 236.165796 
L 311.1552 167.069657 
L 311.24448 184.153976 
L 311.33376 259.893991 
L 311.42304 247.549529 
L 311.51232 155.874156 
L 311.69088 243.823212 
L 311.78016 246.777209 
L 311.86944 155.293841 
L 312.048 254.742244 
L 312.13728 192.824215 
L 312.31584 242.532041 
L 312.40512 208.071822 
L 312.4944 248.488008 
L 312.58368 232.168526 
L 312.67296 239.058511 
L 312.76224 174.894665 
L 312.85152 226.936875 
L 312.9408 222.640302 
L 313.03008 105.448947 
L 313.11936 217.504824 
L 313.20864 191.74883 
L 313.3872 256.566408 
L 313.56576 226.884642 
L 313.65504 238.154909 
L 313.74432 208.45396 
L 313.8336 237.438713 
L 314.10144 191.455755 
L 314.19072 233.648966 
L 314.28 218.582122 
L 314.54784 237.784661 
L 314.63712 227.364058 
L 314.7264 202.8466 
L 314.81568 229.750241 
L 314.90496 208.902433 
L 314.99424 212.976906 
L 315.1728 230.040524 
L 315.35136 200.005692 
L 315.44064 235.501382 
L 315.52992 229.820218 
L 315.6192 226.745624 
L 315.79776 246.687885 
L 316.15488 117.316381 
L 316.33344 202.357696 
L 316.42272 201.738293 
L 316.512 190.141503 
L 316.60128 215.742884 
L 316.69056 212.805008 
L 316.77984 216.473775 
L 316.86912 180.886918 
L 316.9584 240.660012 
L 317.13696 210.560713 
L 317.31552 230.269173 
L 317.4048 142.696632 
L 317.58336 231.084058 
L 317.67264 219.238061 
L 317.76192 222.94206 
L 317.8512 216.861116 
L 317.94048 238.458804 
L 318.02976 211.125961 
L 318.11904 238.211949 
L 318.20832 206.505235 
L 318.2976 232.593256 
L 318.38688 229.211044 
L 318.56544 240.577419 
L 318.744 154.464371 
L 318.92256 206.920916 
L 319.10112 226.924182 
L 319.1904 225.2282 
L 319.27968 234.296969 
L 319.36896 200.758389 
L 319.54752 255.469207 
L 319.6368 199.602248 
L 319.90464 235.431103 
L 319.99392 201.499905 
L 320.17248 233.739962 
L 320.26176 196.143794 
L 320.35104 233.510969 
L 320.44032 198.86375 
L 320.5296 243.575016 
L 320.61888 223.708428 
L 320.70816 232.865627 
L 320.79744 164.208022 
L 320.88672 235.627844 
L 320.976 193.412314 
L 321.06528 240.941341 
L 321.15456 230.453241 
L 321.24384 235.498569 
L 321.33312 197.097132 
L 321.51168 239.878054 
L 321.60096 245.811468 
L 321.69024 238.826073 
L 321.77952 241.670749 
L 322.04736 211.915147 
L 322.13664 237.322385 
L 322.22592 232.656483 
L 322.3152 239.796971 
L 322.40448 153.285236 
L 322.49376 246.273337 
L 322.58304 200.605814 
L 322.85088 233.338001 
L 322.94016 205.37158 
L 323.11872 226.999535 
L 323.208 220.340805 
L 323.29728 247.546116 
L 323.38656 225.762466 
L 323.47584 124.223684 
L 323.56512 255.995783 
L 323.6544 201.27186 
L 323.74368 236.005451 
L 323.83296 226.315412 
L 324.1008 235.143703 
L 324.19008 256.014611 
L 324.27936 87.148688 
L 324.45792 240.9419 
L 324.5472 218.821922 
L 324.63648 227.633212 
L 324.81504 212.953305 
L 324.9936 231.46909 
L 325.17216 141.005424 
L 325.26144 242.097045 
L 325.35072 196.774617 
L 325.44 239.512296 
L 325.52928 236.87552 
L 325.61856 231.680127 
L 325.70784 240.807622 
L 325.79712 223.092504 
L 325.97568 243.728401 
L 326.06496 246.196754 
L 326.15424 241.93578 
L 326.24352 211.785679 
L 326.3328 232.696671 
L 326.42208 208.135684 
L 326.51136 227.264566 
L 326.60064 201.899619 
L 326.68992 253.611868 
L 326.86848 211.42883 
L 327.04704 180.035168 
L 327.13632 239.248495 
L 327.2256 232.76818 
L 327.31488 217.818665 
L 327.40416 232.201703 
L 327.49344 196.323097 
L 327.672 226.946405 
L 327.85056 218.647185 
L 327.93984 198.705714 
L 328.02912 211.668176 
L 328.1184 157.011745 
L 328.29696 240.635156 
L 328.38624 212.928564 
L 328.47552 253.584338 
L 328.5648 183.991802 
L 328.74336 253.274073 
L 328.83264 212.906258 
L 328.92192 117.465758 
L 329.0112 245.801204 
L 329.10048 224.272899 
L 329.18976 194.147667 
L 329.27904 228.845739 
L 329.36832 228.56853 
L 329.4576 193.851812 
L 329.54688 234.897679 
L 329.63616 216.76974 
L 329.81472 238.185528 
L 329.904 199.731369 
L 329.99328 241.599818 
L 330.17184 199.124684 
L 330.26112 243.808538 
L 330.43968 209.318289 
L 330.52896 242.30845 
L 330.61824 217.439624 
L 330.70752 220.364573 
L 330.7968 205.059153 
L 330.88608 248.332067 
L 330.97536 184.978788 
L 331.06464 258.512013 
L 331.15392 218.868788 
L 331.2432 220.88246 
L 331.42176 243.480018 
L 331.60032 115.806116 
L 331.6896 215.696598 
L 331.77888 139.385858 
L 331.86816 228.154868 
L 331.95744 219.895694 
L 332.04672 165.71195 
L 332.136 221.126719 
L 332.22528 162.237798 
L 332.31456 207.993454 
L 332.40384 206.82734 
L 332.49312 240.232308 
L 332.5824 227.534053 
L 332.67168 174.729014 
L 332.76096 258.243808 
L 332.93952 225.775092 
L 333.20736 250.138287 
L 333.4752 154.179206 
L 333.56448 225.467285 
L 333.65376 214.739393 
L 333.74304 198.170223 
L 333.83232 219.900217 
L 333.9216 213.496752 
L 334.01088 238.712045 
L 334.10016 230.880037 
L 334.18944 203.375079 
L 334.27872 251.015813 
L 334.368 237.041517 
L 334.45728 201.043392 
L 334.54656 217.041891 
L 334.63584 256.96063 
L 334.8144 201.173153 
L 334.90368 140.306021 
L 334.99296 257.234286 
L 335.08224 243.581404 
L 335.17152 131.463636 
L 335.2608 229.386032 
L 335.35008 225.420216 
L 335.43936 212.173735 
L 335.52864 219.290598 
L 335.61792 235.289008 
L 335.7072 229.94096 
L 335.88576 170.976872 
L 335.97504 231.314327 
L 336.06432 165.787574 
L 336.24288 232.135253 
L 336.33216 216.482069 
L 336.42144 224.717182 
L 336.68928 201.254842 
L 336.77856 230.072262 
L 336.86784 138.340117 
L 336.95712 233.508866 
L 337.13568 194.092097 
L 337.31424 236.909359 
L 337.40352 234.357112 
L 337.4928 220.211701 
L 337.58208 243.047826 
L 337.76064 130.916962 
L 337.84992 231.711127 
L 337.9392 209.864705 
L 338.02848 243.695264 
L 338.11776 209.867137 
L 338.20704 216.52673 
L 338.29632 184.910395 
L 338.3856 230.43053 
L 338.47488 218.43803 
L 338.56416 241.827829 
L 338.74272 133.194141 
L 338.832 235.980671 
L 338.92128 163.150316 
L 339.01056 210.903434 
L 339.09984 199.331129 
L 339.18912 222.687365 
L 339.2784 210.888276 
L 339.36768 100.429437 
L 339.45696 238.893402 
L 339.54624 214.182191 
L 339.63552 231.412133 
L 339.7248 227.768638 
L 339.81408 231.671 
L 339.90336 155.939335 
L 339.99264 230.357443 
L 340.08192 226.187648 
L 340.26048 249.285322 
L 340.34976 227.070824 
L 340.43904 112.785476 
L 340.52832 241.78422 
L 340.6176 227.202529 
L 340.70688 233.589901 
L 340.79616 223.817361 
L 340.88544 196.405086 
L 340.97472 233.230068 
L 341.15328 219.834913 
L 341.24256 225.560712 
L 341.33184 206.375454 
L 341.42112 223.113824 
L 341.5104 219.529994 
L 341.68896 239.557743 
L 341.86752 201.156881 
L 341.9568 239.749127 
L 342.04608 226.571435 
L 342.13536 231.773773 
L 342.22464 222.742272 
L 342.31392 176.14644 
L 342.4032 234.960965 
L 342.49248 203.626161 
L 342.58176 215.666821 
L 342.67104 250.705004 
L 342.76032 229.925543 
L 342.8496 238.50717 
L 342.93888 126.218203 
L 343.02816 251.520724 
L 343.11744 182.79586 
L 343.38528 258.903399 
L 343.47456 217.604409 
L 343.56384 240.453854 
L 343.65312 212.450068 
L 343.7424 230.526994 
L 343.83168 218.333456 
L 343.92096 229.195418 
L 344.01024 195.53856 
L 344.09952 208.216734 
L 344.1888 173.946419 
L 344.27808 212.705497 
L 344.36736 193.966662 
L 344.45664 227.196903 
L 344.54592 217.111604 
L 344.6352 171.708752 
L 344.99232 239.394476 
L 345.17088 205.249216 
L 345.26016 234.10089 
L 345.43872 214.799615 
L 345.528 223.193568 
L 345.61728 195.224855 
L 345.70656 256.539335 
L 345.88512 142.940867 
L 345.9744 247.109643 
L 346.06368 241.904578 
L 346.15296 239.592681 
L 346.24224 242.108763 
L 346.33152 239.873002 
L 346.4208 215.256095 
L 346.59936 263.633125 
L 346.77792 220.07392 
L 346.8672 223.840552 
L 346.95648 203.798682 
L 347.04576 247.71234 
L 347.13504 218.347967 
L 347.22432 259.55664 
L 347.40288 131.561606 
L 347.58144 258.74023 
L 347.76 231.381475 
L 347.84928 231.935266 
L 347.93856 240.714473 
L 348.11712 214.891445 
L 348.2064 223.437723 
L 348.38496 169.518017 
L 348.6528 248.044345 
L 349.00992 142.778469 
L 349.0992 261.007321 
L 349.18848 225.050514 
L 349.27776 238.302152 
L 349.36704 135.948562 
L 349.45632 226.233164 
L 349.63488 128.542629 
L 349.90272 248.862883 
L 349.992 225.411512 
L 350.08128 226.04183 
L 350.17056 216.890539 
L 350.4384 241.535943 
L 350.70624 130.393399 
L 350.79552 229.011154 
L 350.8848 115.405466 
L 351.06336 242.423354 
L 351.15264 187.948945 
L 351.24192 243.609914 
L 351.3312 195.986732 
L 351.42048 231.801602 
L 351.59904 189.908602 
L 351.68832 213.974096 
L 351.7776 147.580056 
L 351.86688 228.820606 
L 351.95616 227.466056 
L 352.04544 216.257445 
L 352.13472 267.807223 
L 352.49184 112.135171 
L 352.58112 227.422717 
L 352.6704 212.321452 
L 352.75968 221.896285 
L 352.84896 244.74137 
L 353.1168 220.168212 
L 353.20608 224.909319 
L 353.29536 203.276594 
L 353.38464 249.436635 
L 353.47392 233.51511 
L 353.5632 186.134353 
L 353.65248 248.723861 
L 353.74176 180.626989 
L 353.83104 234.359979 
L 353.92032 212.074619 
L 354.0096 159.067659 
L 354.18816 253.952179 
L 354.27744 159.911895 
L 354.54528 225.462991 
L 354.63456 224.806167 
L 354.72384 144.010681 
L 354.81312 237.937982 
L 354.9024 226.554181 
L 354.99168 225.96001 
L 355.08096 120.377348 
L 355.17024 217.920125 
L 355.25952 197.648692 
L 355.3488 227.21092 
L 355.43808 180.721531 
L 355.61664 213.915307 
L 355.70592 213.790258 
L 355.7952 119.79291 
L 355.88448 251.913318 
L 356.06304 200.144186 
L 356.15232 225.226255 
L 356.2416 137.635966 
L 356.33088 230.032806 
L 356.42016 229.710562 
L 356.50944 219.152448 
L 356.59872 245.207582 
L 356.688 215.778502 
L 356.86656 240.970404 
L 356.95584 207.597038 
L 357.22368 243.729757 
L 357.31296 186.220652 
L 357.40224 189.725807 
L 357.49152 229.406533 
L 357.67008 202.28315 
L 357.84864 245.756176 
L 357.93792 217.788102 
L 358.0272 232.311203 
L 358.20576 132.089476 
L 358.38432 231.455759 
L 358.4736 184.428931 
L 358.65216 231.42965 
L 358.74144 230.736288 
L 358.83072 227.048848 
L 358.92 190.111356 
L 359.00928 246.397232 
L 359.09856 218.153797 
L 359.18784 252.858129 
L 359.27712 248.915443 
L 359.3664 189.888147 
L 359.54496 247.623958 
L 359.63424 200.132204 
L 359.72352 228.667662 
L 359.8128 126.08491 
L 359.90208 217.327167 
L 359.99136 211.39427 
L 360.08064 102.19273 
L 360.2592 237.022449 
L 360.34848 215.671519 
L 360.43776 221.670349 
L 360.52704 134.203004 
L 360.7056 257.971053 
L 360.79488 156.556662 
L 360.88416 241.577611 
L 360.97344 169.12656 
L 361.06272 224.745463 
L 361.152 151.421581 
L 361.24128 228.621341 
L 361.33056 210.67336 
L 361.41984 225.938701 
L 361.50912 216.715602 
L 361.5984 229.200684 
L 361.68768 206.258535 
L 361.77696 215.803677 
L 361.86624 141.083749 
L 362.0448 260.205569 
L 362.13408 217.792551 
L 362.22336 235.810808 
L 362.31264 190.494544 
L 362.40192 237.070433 
L 362.4912 207.897577 
L 362.66976 222.642354 
L 362.75904 204.113067 
L 362.9376 219.229111 
L 363.02688 165.745077 
L 363.11616 230.682935 
L 363.20544 223.63243 
L 363.47328 260.789103 
L 363.65184 191.323366 
L 363.8304 251.163461 
L 363.91968 243.093413 
L 364.00896 219.198256 
L 364.09824 163.573973 
L 364.2768 265.113465 
L 364.36608 254.648268 
L 364.45536 132.966883 
L 364.54464 230.331755 
L 364.63392 211.388201 
L 364.7232 245.681404 
L 364.81248 225.633411 
L 364.90176 159.81466 
L 364.99104 239.383333 
L 365.08032 223.79684 
L 365.1696 212.102328 
L 365.25888 243.583888 
L 365.34816 243.280376 
L 365.43744 208.679663 
L 365.52672 213.004339 
L 365.616 230.69303 
L 365.70528 129.995218 
L 365.79456 238.059832 
L 365.88384 200.394204 
L 365.97312 247.995111 
L 366.0624 183.641656 
L 366.15168 229.379126 
L 366.33024 190.153995 
L 366.41952 186.84074 
L 366.5088 170.839558 
L 366.59808 233.446465 
L 366.68736 219.539849 
L 366.77664 207.42369 
L 366.86592 211.474874 
L 366.9552 232.059344 
L 367.04448 228.402046 
L 367.13376 207.800101 
L 367.31232 234.426707 
L 367.4016 182.676581 
L 367.58016 234.597639 
L 367.66944 207.079676 
L 367.848 264.29709 
L 367.93728 196.263803 
L 368.02656 244.552054 
L 368.11584 234.22053 
L 368.20512 270.278499 
L 368.2944 211.258081 
L 368.38368 245.816756 
L 368.47296 232.237105 
L 368.56224 254.414248 
L 368.7408 195.991533 
L 369.00864 240.206472 
L 369.1872 237.631553 
L 369.27648 239.169615 
L 369.45504 117.849929 
L 369.54432 205.155465 
L 369.6336 205.090326 
L 369.81216 234.157661 
L 369.90144 111.209337 
L 369.99072 234.487473 
L 370.08 201.977215 
L 370.16928 247.931142 
L 370.25856 199.898786 
L 370.34784 226.517779 
L 370.43712 200.029334 
L 370.5264 210.331584 
L 370.61568 246.927271 
L 370.70496 196.179196 
L 370.79424 199.435555 
L 370.88352 237.892587 
L 370.9728 196.345441 
L 371.24064 234.438267 
L 371.50848 203.148238 
L 371.59776 252.803495 
L 371.77632 211.188176 
L 371.8656 252.227381 
L 371.95488 232.145372 
L 372.04416 164.485319 
L 372.13344 216.22293 
L 372.312 123.902704 
L 372.40128 223.888608 
L 372.49056 209.631272 
L 372.57984 225.721242 
L 372.66912 221.33872 
L 372.7584 205.963138 
L 372.84768 209.664799 
L 373.02624 253.938544 
L 373.2048 170.925591 
L 373.47264 255.320898 
L 373.6512 173.140855 
L 373.82976 226.795007 
L 373.91904 157.945003 
L 374.00832 185.334849 
L 374.0976 108.342539 
L 374.27616 234.176073 
L 374.36544 225.903583 
L 374.45472 151.841854 
L 374.63328 242.955278 
L 374.81184 238.697321 
L 374.9904 123.239108 
L 375.07968 241.405631 
L 375.16896 234.762877 
L 375.25824 212.814435 
L 375.4368 234.259473 
L 375.61536 131.999357 
L 375.70464 237.273618 
L 375.79392 220.910964 
L 375.8832 206.058339 
L 376.06176 241.742779 
L 376.15104 235.223272 
L 376.24032 220.581938 
L 376.3296 240.401484 
L 376.50816 140.932936 
L 376.68672 235.263094 
L 376.776 236.238245 
L 376.86528 141.501094 
L 376.95456 251.868093 
L 377.04384 224.01774 
L 377.13312 156.629731 
L 377.31168 238.951494 
L 377.40096 186.150724 
L 377.49024 247.187954 
L 377.57952 178.953579 
L 377.6688 234.221014 
L 377.84736 210.099937 
L 377.93664 208.396507 
L 378.02592 212.907493 
L 378.20448 243.215379 
L 378.29376 226.686875 
L 378.38304 188.946104 
L 378.47232 237.304839 
L 378.5616 142.305814 
L 378.65088 240.02106 
L 378.74016 236.121752 
L 378.82944 244.445273 
L 378.91872 238.930228 
L 379.008 202.113026 
L 379.09728 254.511626 
L 379.18656 177.760281 
L 379.36512 241.485883 
L 379.4544 207.465625 
L 379.54368 233.579391 
L 379.72224 222.525064 
L 379.81152 196.557651 
L 379.9008 236.906432 
L 379.99008 147.226314 
L 380.07936 240.321332 
L 380.16864 239.526032 
L 380.25792 217.933601 
L 380.3472 228.946374 
L 380.43648 226.160293 
L 380.52576 263.894736 
L 380.70432 205.902045 
L 380.7936 208.582645 
L 380.97216 251.660362 
L 381.06144 240.003928 
L 381.15072 141.351588 
L 381.24 234.041092 
L 381.32928 231.127398 
L 381.41856 212.559672 
L 381.50784 145.417613 
L 381.59712 245.192592 
L 381.6864 227.092817 
L 381.77568 256.785953 
L 382.04352 184.86621 
L 382.1328 210.873176 
L 382.22208 207.698103 
L 382.31136 175.688264 
L 382.48992 248.928789 
L 382.5792 243.560554 
L 382.66848 102.613838 
L 382.75776 200.782695 
L 382.84704 116.929011 
L 383.0256 244.866083 
L 383.11488 240.792699 
L 383.20416 213.173645 
L 383.38272 239.532208 
L 383.472 211.336965 
L 383.56128 217.65725 
L 383.65056 257.770293 
L 383.73984 248.236373 
L 383.82912 237.681708 
L 383.9184 243.30177 
L 384.00768 231.028419 
L 384.09696 243.449624 
L 384.18624 191.268221 
L 384.27552 196.475359 
L 384.3648 224.565544 
L 384.45408 220.895236 
L 384.54336 235.621118 
L 384.63264 212.622189 
L 384.72192 238.686629 
L 384.90048 189.535936 
L 384.98976 133.257742 
L 385.2576 235.515973 
L 385.34688 242.346697 
L 385.43616 234.098504 
L 385.52544 243.486494 
L 385.61472 157.685637 
L 385.79328 240.261155 
L 385.88256 247.743202 
L 385.97184 194.468942 
L 386.06112 251.969132 
L 386.1504 236.201443 
L 386.23968 178.943166 
L 386.41824 245.857008 
L 386.5968 228.558481 
L 386.68608 238.908875 
L 386.77536 236.851988 
L 386.86464 206.778431 
L 386.95392 120.044974 
L 387.13248 233.384828 
L 387.22176 223.874467 
L 387.40032 236.800204 
L 387.4896 188.564401 
L 387.66816 249.898703 
L 387.75744 159.883605 
L 387.936 224.314815 
L 388.02528 224.033883 
L 388.11456 251.565744 
L 388.20384 241.890708 
L 388.29312 194.455263 
L 388.3824 220.733143 
L 388.47168 194.442952 
L 388.65024 245.416943 
L 388.73952 193.585005 
L 388.8288 228.414723 
L 388.91808 217.20359 
L 389.09664 256.406995 
L 389.2752 183.733478 
L 389.54304 248.384211 
L 389.63232 242.032186 
L 389.7216 207.470013 
L 389.81088 230.773763 
L 389.90016 229.579784 
L 389.98944 222.520861 
L 390.07872 225.531198 
L 390.168 240.601273 
L 390.34656 107.504443 
L 390.43584 139.545259 
L 390.52512 237.038231 
L 390.6144 191.811449 
L 390.79296 222.584687 
L 390.88224 63.648 
L 391.0608 244.023768 
L 391.15008 212.674998 
L 391.23936 232.896971 
L 391.32864 218.50052 
L 391.41792 127.529773 
L 391.5072 221.270241 
L 391.59648 178.321937 
L 391.68576 240.498701 
L 391.77504 217.219917 
L 391.86432 251.332828 
L 391.9536 205.894731 
L 392.04288 240.529793 
L 392.13216 130.52582 
L 392.31072 236.680664 
L 392.4 234.729784 
L 392.48928 237.403282 
L 392.57856 197.900643 
L 392.8464 244.99819 
L 392.93568 215.867843 
L 393.02496 226.378381 
L 393.2928 213.600617 
L 393.38208 244.438317 
L 393.47136 163.723473 
L 393.56064 251.462204 
L 393.64992 245.524617 
L 393.82848 226.001059 
L 394.00704 130.427498 
L 394.1856 256.14184 
L 394.27488 214.35319 
L 394.36416 242.510354 
L 394.45344 218.522459 
L 394.54272 244.028173 
L 394.632 201.928437 
L 394.72128 232.43175 
L 394.89984 185.917635 
L 395.0784 242.778433 
L 395.16768 234.962924 
L 395.25696 232.978564 
L 395.34624 254.683735 
L 395.43552 182.085726 
L 395.61408 246.855497 
L 395.70336 191.237672 
L 395.79264 229.30817 
L 395.9712 190.636738 
L 396.06048 224.720402 
L 396.14976 220.040012 
L 396.23904 239.487007 
L 396.32832 193.78212 
L 396.50688 249.706034 
L 396.59616 150.617863 
L 396.68544 244.980032 
L 396.77472 215.449642 
L 396.95328 238.538857 
L 397.04256 215.76372 
L 397.22112 254.278121 
L 397.3104 229.464135 
L 397.39968 254.614756 
L 397.57824 230.491655 
L 397.66752 238.246373 
L 397.7568 233.746472 
L 397.84608 238.230711 
L 397.93536 231.120457 
L 398.02464 212.957595 
L 398.11392 213.322921 
L 398.2032 210.743519 
L 398.29248 150.005998 
L 398.38176 257.729666 
L 398.47104 240.656123 
L 398.56032 131.282519 
L 398.6496 228.227834 
L 398.73888 178.162915 
L 398.82816 240.845621 
L 399.00672 206.861626 
L 399.18528 254.495414 
L 399.27456 145.745331 
L 399.45312 247.937017 
L 399.5424 201.365842 
L 399.63168 245.129103 
L 399.81024 216.719875 
L 399.89952 246.911919 
L 400.07808 117.858908 
L 400.16736 219.687282 
L 400.25664 215.460413 
L 400.34592 241.072795 
L 400.4352 237.218479 
L 400.52448 234.246975 
L 400.61376 137.882029 
L 400.70304 235.134313 
L 400.8816 179.453382 
L 401.06016 246.261487 
L 401.328 206.850715 
L 401.41728 130.530398 
L 401.59584 224.485499 
L 401.68512 232.060181 
L 401.7744 255.768611 
L 402.04224 225.729009 
L 402.2208 270.278141 
L 402.39936 198.882414 
L 402.57792 245.467605 
L 402.6672 252.493297 
L 402.75648 232.901098 
L 402.84576 249.118359 
L 402.93504 215.952219 
L 403.02432 220.481089 
L 403.1136 219.31991 
L 403.20288 204.702243 
L 403.29216 221.801174 
L 403.38144 138.927312 
L 403.56 243.154128 
L 403.64928 158.633475 
L 403.73856 233.382058 
L 403.82784 123.683138 
L 403.91712 235.70862 
L 404.0064 196.484364 
L 404.09568 252.764054 
L 404.27424 225.494146 
L 404.36352 253.194362 
L 404.4528 190.334195 
L 404.54208 229.568697 
L 404.72064 209.285195 
L 404.80992 253.121791 
L 404.8992 245.973604 
L 404.98848 244.942668 
L 405.07776 221.090133 
L 405.25632 235.110095 
L 405.3456 169.722842 
L 405.52416 235.421257 
L 405.61344 212.534982 
L 405.88128 241.824936 
L 405.97056 233.444557 
L 406.05984 233.582966 
L 406.14912 205.072225 
L 406.2384 211.615484 
L 406.32768 234.605825 
L 406.41696 226.405881 
L 406.50624 242.742139 
L 406.59552 197.1479 
L 406.6848 228.533846 
L 406.86336 207.867606 
L 407.04192 235.413985 
L 407.1312 204.402316 
L 407.22048 218.317033 
L 407.30976 167.411879 
L 407.48832 237.102826 
L 407.5776 213.077981 
L 407.66688 217.364029 
L 407.75616 220.910408 
L 407.93472 238.168585 
L 408.024 179.779558 
L 408.11328 213.235923 
L 408.29184 132.159868 
L 408.38112 229.691327 
L 408.4704 220.797509 
L 408.55968 201.762258 
L 408.64896 246.391894 
L 408.73824 227.609717 
L 408.82752 231.893568 
L 408.9168 224.032445 
L 409.00608 229.412879 
L 409.09536 250.093911 
L 409.18464 128.573284 
L 409.27392 251.582882 
L 409.3632 233.167685 
L 409.54176 213.884834 
L 409.63104 240.725238 
L 409.72032 238.321426 
L 409.8096 238.762547 
L 409.89888 131.58332 
L 410.07744 244.166344 
L 410.16672 241.264765 
L 410.256 198.737793 
L 410.34528 255.459071 
L 410.43456 219.319836 
L 410.52384 235.791319 
L 410.61312 185.483089 
L 410.7024 243.772089 
L 410.88096 205.077695 
L 411.05952 231.815832 
L 411.41664 108.342652 
L 411.5952 256.873883 
L 411.68448 185.220277 
L 411.77376 230.409479 
L 411.95232 108.403175 
L 412.0416 242.038553 
L 412.13088 232.330658 
L 412.22016 231.955083 
L 412.30944 236.042621 
L 412.39872 248.484512 
L 412.488 150.580641 
L 412.66656 232.159377 
L 412.75584 186.406337 
L 412.9344 252.172335 
L 413.02368 239.573391 
L 413.11296 196.660067 
L 413.20224 243.09636 
L 413.3808 207.291682 
L 413.64864 242.423159 
L 413.8272 165.718006 
L 413.91648 239.811545 
L 414.00576 219.429995 
L 414.09504 230.52475 
L 414.18432 222.256639 
L 414.2736 201.535553 
L 414.45216 235.271039 
L 414.54144 131.462256 
L 414.63072 241.648127 
L 414.63072 241.648127 
" clip-path="url(#pe66b614934)" style="fill: none; stroke: #0000ff; stroke-width: 1.5; stroke-linecap: square"/>
   </g>
   <g id="patch_3">
    <path d="M 57.6 307.584 
L 57.6 41.472 
" style="fill: none; stroke: #000000; stroke-width: 0.8; stroke-linejoin: miter; stroke-linecap: square"/>
   </g>
   <g id="patch_4">
    <path d="M 414.72 307.584 
L 414.72 41.472 
" style="fill: none; stroke: #000000; stroke-width: 0.8; stroke-linejoin: miter; stroke-linecap: square"/>
   </g>
   <g id="patch_5">
    <path d="M 57.6 307.584 
L 414.72 307.584 
" style="fill: none; stroke: #000000; stroke-width: 0.8; stroke-linejoin: miter; stroke-linecap: square"/>
   </g>
   <g id="patch_6">
    <path d="M 57.6 41.472 
L 414.72 41.472 
" style="fill: none; stroke: #000000; stroke-width: 0.8; stroke-linejoin: miter; stroke-linecap: square"/>
   </g>
   <g id="legend_1">
    <g id="patch_7">
     <path d="M 68.8 77.757 
L 269.4375 77.757 
Q 272.6375 77.757 272.6375 74.557 
L 272.6375 52.672 
Q 272.6375 49.472 269.4375 49.472 
L 68.8 49.472 
Q 65.6 49.472 65.6 52.672 
L 65.6 74.557 
Q 65.6 77.757 68.8 77.757 
z
" style="fill: #ffffff; opacity: 0.8; stroke: #cccccc; stroke-linejoin: miter"/>
    </g>
    <g id="line2d_22">
     <path d="M 72 62.4295 
L 88 62.4295 
L 104 62.4295 
" style="fill: none; stroke: #0000ff; stroke-width: 1.5; stroke-linecap: square"/>
    </g>
    <g id="text_13">
     <!-- cumulative reward -->
     <g transform="translate(116.8 68.0295)scale(0.16 -0.16)">
      <defs>
       <path id="DejaVuSans-63" d="M 3122 3366 
L 3122 2828 
Q 2878 2963 2633 3030 
Q 2388 3097 2138 3097 
Q 1578 3097 1268 2742 
Q 959 2388 959 1747 
Q 959 1106 1268 751 
Q 1578 397 2138 397 
Q 2388 397 2633 464 
Q 2878 531 3122 666 
L 3122 134 
Q 2881 22 2623 -34 
Q 2366 -91 2075 -91 
Q 1284 -91 818 406 
Q 353 903 353 1747 
Q 353 2603 823 3093 
Q 1294 3584 2113 3584 
Q 2378 3584 2631 3529 
Q 2884 3475 3122 3366 
z
" transform="scale(0.015625)"/>
      </defs>
      <use xlink:href="#DejaVuSans-63"/>
      <use xlink:href="#DejaVuSans-75" x="54.980469"/>
      <use xlink:href="#DejaVuSans-6d" x="118.359375"/>
      <use xlink:href="#DejaVuSans-75" x="215.771484"/>
      <use xlink:href="#DejaVuSans-6c" x="279.150391"/>
      <use xlink:href="#DejaVuSans-61" x="306.933594"/>
      <use xlink:href="#DejaVuSans-74" x="368.212891"/>
      <use xlink:href="#DejaVuSans-69" x="407.421875"/>
      <use xlink:href="#DejaVuSans-76" x="435.205078"/>
      <use xlink:href="#DejaVuSans-65" x="494.384766"/>
      <use xlink:href="#DejaVuSans-20" x="555.908203"/>
      <use xlink:href="#DejaVuSans-72" x="587.695312"/>
      <use xlink:href="#DejaVuSans-65" x="626.558594"/>
      <use xlink:href="#DejaVuSans-77" x="688.082031"/>
      <use xlink:href="#DejaVuSans-61" x="769.869141"/>
      <use xlink:href="#DejaVuSans-72" x="831.148438"/>
      <use xlink:href="#DejaVuSans-64" x="870.511719"/>
     </g>
    </g>
   </g>
  </g>
 </g>
 <defs>
  <clipPath id="pe66b614934">
   <rect x="57.6" y="41.472" width="357.12" height="266.112"/>
  </clipPath>
 </defs>
</svg>
