<?xml version="1.0" encoding="utf-8" standalone="no"?>
<!DOCTYPE svg PUBLIC "-//W3C//DTD SVG 1.1//EN"
  "http://www.w3.org/Graphics/SVG/1.1/DTD/svg11.dtd">
<svg height="345.6pt" version="1.1" viewBox="0 0 460.8 345.6" width="460.8pt" xmlns="http://www.w3.org/2000/svg" xmlns:xlink="http://www.w3.org/1999/xlink">
 <metadata>
  <rdf:RDF xmlns:cc="http://creativecommons.org/ns#" xmlns:dc="http://purl.org/dc/elements/1.1/" xmlns:rdf="http://www.w3.org/1999/02/22-rdf-syntax-ns#">
   <cc:Work>
    <dc:type rdf:resource="http://purl.org/dc/dcmitype/StillImage"/>
    <dc:date>2021-11-03T21:55:53.210075</dc:date>
    <dc:description>{"agent.algorithm": "RayProximalPolicyOptimization", "agent.algorithm.render_env": false, "agent.algorithm.num_workers": 0, "agent.algorithm.batch_mode": "complete_episodes", "agent.algorithm.lr": 1e-05, "agent.algorithm.train_batch_size": 200, "agent.algorithm.optimizer": "Adam", "agent.algorithm.vf_clip_param": 500, "agent.algorithm.model": {"fcnet_activation": "tanh", "fcnet_hiddens": [30, 30]}, "env.env_class": "SchedulerPolicyRayEnvironment", "env.env_config": {"solver_driver": "CMAdriver", "solver_driver_args": [20, 10, 13, 0.5], "maximize": false, "steps": 50, "state_metrics_names": ["DifferenceOfBest", "SolverStateHistory"], "state_metrics_config": [[40, false, 1, true, false], [{"step_size": {"max": 3, "min": 0}}, 40]], "reward_metric": "Best", "reward_metric_config": [false, false], "memes_no": 1, "action_space_config": {"step_size": {"max": 3, "min": 1e-10}}}}</dc:description>
    <dc:format>image/svg+xml</dc:format>
    <dc:creator>
     <cc:Agent>
      <dc:title>Matplotlib v3.4.3, https://matplotlib.org/</dc:title>
     </cc:Agent>
    </dc:creator>
   </cc:Work>
  </rdf:RDF>
 </metadata>
 <defs>
  <style type="text/css">*{stroke-linecap:butt;stroke-linejoin:round;}</style>
 </defs>
 <g id="figure_1">
  <g id="patch_1">
   <path d="M 0 345.6 
L 460.8 345.6 
L 460.8 0 
L 0 0 
z
" style="fill:#ffffff;"/>
  </g>
  <g id="axes_1">
   <g id="patch_2">
    <path d="M 57.6 307.584 
L 414.72 307.584 
L 414.72 41.472 
L 57.6 41.472 
z
" style="fill:#ffffff;"/>
   </g>
   <g id="matplotlib.axis_1">
    <g id="xtick_1">
     <g id="line2d_1">
      <path clip-path="url(#p6e33ab680f)" d="M 57.6 307.584 
L 57.6 41.472 
" style="fill:none;stroke:#b0b0b0;stroke-linecap:square;stroke-width:0.8;"/>
     </g>
     <g id="line2d_2">
      <defs>
       <path d="M 0 0 
L 0 3.5 
" id="mf4f0e92356" style="stroke:#000000;stroke-width:0.8;"/>
      </defs>
      <g>
       <use style="stroke:#000000;stroke-width:0.8;" x="57.6" xlink:href="#mf4f0e92356" y="307.584"/>
      </g>
     </g>
     <g id="text_1">
      <!-- 0 -->
      <g transform="translate(52.51 326.7415)scale(0.16 -0.16)">
       <defs>
        <path d="M 2034 4250 
Q 1547 4250 1301 3770 
Q 1056 3291 1056 2328 
Q 1056 1369 1301 889 
Q 1547 409 2034 409 
Q 2525 409 2770 889 
Q 3016 1369 3016 2328 
Q 3016 3291 2770 3770 
Q 2525 4250 2034 4250 
z
M 2034 4750 
Q 2819 4750 3233 4129 
Q 3647 3509 3647 2328 
Q 3647 1150 3233 529 
Q 2819 -91 2034 -91 
Q 1250 -91 836 529 
Q 422 1150 422 2328 
Q 422 3509 836 4129 
Q 1250 4750 2034 4750 
z
" id="DejaVuSans-30" transform="scale(0.015625)"/>
       </defs>
       <use xlink:href="#DejaVuSans-30"/>
      </g>
     </g>
    </g>
    <g id="xtick_2">
     <g id="line2d_3">
      <path clip-path="url(#p6e33ab680f)" d="M 146.88 307.584 
L 146.88 41.472 
" style="fill:none;stroke:#b0b0b0;stroke-linecap:square;stroke-width:0.8;"/>
     </g>
     <g id="line2d_4">
      <g>
       <use style="stroke:#000000;stroke-width:0.8;" x="146.88" xlink:href="#mf4f0e92356" y="307.584"/>
      </g>
     </g>
     <g id="text_2">
      <!-- 1000 -->
      <g transform="translate(126.52 326.7415)scale(0.16 -0.16)">
       <defs>
        <path d="M 794 531 
L 1825 531 
L 1825 4091 
L 703 3866 
L 703 4441 
L 1819 4666 
L 2450 4666 
L 2450 531 
L 3481 531 
L 3481 0 
L 794 0 
L 794 531 
z
" id="DejaVuSans-31" transform="scale(0.015625)"/>
       </defs>
       <use xlink:href="#DejaVuSans-31"/>
       <use x="63.623047" xlink:href="#DejaVuSans-30"/>
       <use x="127.246094" xlink:href="#DejaVuSans-30"/>
       <use x="190.869141" xlink:href="#DejaVuSans-30"/>
      </g>
     </g>
    </g>
    <g id="xtick_3">
     <g id="line2d_5">
      <path clip-path="url(#p6e33ab680f)" d="M 236.16 307.584 
L 236.16 41.472 
" style="fill:none;stroke:#b0b0b0;stroke-linecap:square;stroke-width:0.8;"/>
     </g>
     <g id="line2d_6">
      <g>
       <use style="stroke:#000000;stroke-width:0.8;" x="236.16" xlink:href="#mf4f0e92356" y="307.584"/>
      </g>
     </g>
     <g id="text_3">
      <!-- 2000 -->
      <g transform="translate(215.8 326.7415)scale(0.16 -0.16)">
       <defs>
        <path d="M 1228 531 
L 3431 531 
L 3431 0 
L 469 0 
L 469 531 
Q 828 903 1448 1529 
Q 2069 2156 2228 2338 
Q 2531 2678 2651 2914 
Q 2772 3150 2772 3378 
Q 2772 3750 2511 3984 
Q 2250 4219 1831 4219 
Q 1534 4219 1204 4116 
Q 875 4013 500 3803 
L 500 4441 
Q 881 4594 1212 4672 
Q 1544 4750 1819 4750 
Q 2544 4750 2975 4387 
Q 3406 4025 3406 3419 
Q 3406 3131 3298 2873 
Q 3191 2616 2906 2266 
Q 2828 2175 2409 1742 
Q 1991 1309 1228 531 
z
" id="DejaVuSans-32" transform="scale(0.015625)"/>
       </defs>
       <use xlink:href="#DejaVuSans-32"/>
       <use x="63.623047" xlink:href="#DejaVuSans-30"/>
       <use x="127.246094" xlink:href="#DejaVuSans-30"/>
       <use x="190.869141" xlink:href="#DejaVuSans-30"/>
      </g>
     </g>
    </g>
    <g id="xtick_4">
     <g id="line2d_7">
      <path clip-path="url(#p6e33ab680f)" d="M 325.44 307.584 
L 325.44 41.472 
" style="fill:none;stroke:#b0b0b0;stroke-linecap:square;stroke-width:0.8;"/>
     </g>
     <g id="line2d_8">
      <g>
       <use style="stroke:#000000;stroke-width:0.8;" x="325.44" xlink:href="#mf4f0e92356" y="307.584"/>
      </g>
     </g>
     <g id="text_4">
      <!-- 3000 -->
      <g transform="translate(305.08 326.7415)scale(0.16 -0.16)">
       <defs>
        <path d="M 2597 2516 
Q 3050 2419 3304 2112 
Q 3559 1806 3559 1356 
Q 3559 666 3084 287 
Q 2609 -91 1734 -91 
Q 1441 -91 1130 -33 
Q 819 25 488 141 
L 488 750 
Q 750 597 1062 519 
Q 1375 441 1716 441 
Q 2309 441 2620 675 
Q 2931 909 2931 1356 
Q 2931 1769 2642 2001 
Q 2353 2234 1838 2234 
L 1294 2234 
L 1294 2753 
L 1863 2753 
Q 2328 2753 2575 2939 
Q 2822 3125 2822 3475 
Q 2822 3834 2567 4026 
Q 2313 4219 1838 4219 
Q 1578 4219 1281 4162 
Q 984 4106 628 3988 
L 628 4550 
Q 988 4650 1302 4700 
Q 1616 4750 1894 4750 
Q 2613 4750 3031 4423 
Q 3450 4097 3450 3541 
Q 3450 3153 3228 2886 
Q 3006 2619 2597 2516 
z
" id="DejaVuSans-33" transform="scale(0.015625)"/>
       </defs>
       <use xlink:href="#DejaVuSans-33"/>
       <use x="63.623047" xlink:href="#DejaVuSans-30"/>
       <use x="127.246094" xlink:href="#DejaVuSans-30"/>
       <use x="190.869141" xlink:href="#DejaVuSans-30"/>
      </g>
     </g>
    </g>
    <g id="xtick_5">
     <g id="line2d_9">
      <path clip-path="url(#p6e33ab680f)" d="M 414.72 307.584 
L 414.72 41.472 
" style="fill:none;stroke:#b0b0b0;stroke-linecap:square;stroke-width:0.8;"/>
     </g>
     <g id="line2d_10">
      <g>
       <use style="stroke:#000000;stroke-width:0.8;" x="414.72" xlink:href="#mf4f0e92356" y="307.584"/>
      </g>
     </g>
     <g id="text_5">
      <!-- 4000 -->
      <g transform="translate(394.36 326.7415)scale(0.16 -0.16)">
       <defs>
        <path d="M 2419 4116 
L 825 1625 
L 2419 1625 
L 2419 4116 
z
M 2253 4666 
L 3047 4666 
L 3047 1625 
L 3713 1625 
L 3713 1100 
L 3047 1100 
L 3047 0 
L 2419 0 
L 2419 1100 
L 313 1100 
L 313 1709 
L 2253 4666 
z
" id="DejaVuSans-34" transform="scale(0.015625)"/>
       </defs>
       <use xlink:href="#DejaVuSans-34"/>
       <use x="63.623047" xlink:href="#DejaVuSans-30"/>
       <use x="127.246094" xlink:href="#DejaVuSans-30"/>
       <use x="190.869141" xlink:href="#DejaVuSans-30"/>
      </g>
     </g>
    </g>
    <g id="text_6">
     <!-- Episodes -->
     <g transform="translate(200.5725 346.2265)scale(0.16 -0.16)">
      <defs>
       <path d="M 628 4666 
L 3578 4666 
L 3578 4134 
L 1259 4134 
L 1259 2753 
L 3481 2753 
L 3481 2222 
L 1259 2222 
L 1259 531 
L 3634 531 
L 3634 0 
L 628 0 
L 628 4666 
z
" id="DejaVuSans-45" transform="scale(0.015625)"/>
       <path d="M 1159 525 
L 1159 -1331 
L 581 -1331 
L 581 3500 
L 1159 3500 
L 1159 2969 
Q 1341 3281 1617 3432 
Q 1894 3584 2278 3584 
Q 2916 3584 3314 3078 
Q 3713 2572 3713 1747 
Q 3713 922 3314 415 
Q 2916 -91 2278 -91 
Q 1894 -91 1617 61 
Q 1341 213 1159 525 
z
M 3116 1747 
Q 3116 2381 2855 2742 
Q 2594 3103 2138 3103 
Q 1681 3103 1420 2742 
Q 1159 2381 1159 1747 
Q 1159 1113 1420 752 
Q 1681 391 2138 391 
Q 2594 391 2855 752 
Q 3116 1113 3116 1747 
z
" id="DejaVuSans-70" transform="scale(0.015625)"/>
       <path d="M 603 3500 
L 1178 3500 
L 1178 0 
L 603 0 
L 603 3500 
z
M 603 4863 
L 1178 4863 
L 1178 4134 
L 603 4134 
L 603 4863 
z
" id="DejaVuSans-69" transform="scale(0.015625)"/>
       <path d="M 2834 3397 
L 2834 2853 
Q 2591 2978 2328 3040 
Q 2066 3103 1784 3103 
Q 1356 3103 1142 2972 
Q 928 2841 928 2578 
Q 928 2378 1081 2264 
Q 1234 2150 1697 2047 
L 1894 2003 
Q 2506 1872 2764 1633 
Q 3022 1394 3022 966 
Q 3022 478 2636 193 
Q 2250 -91 1575 -91 
Q 1294 -91 989 -36 
Q 684 19 347 128 
L 347 722 
Q 666 556 975 473 
Q 1284 391 1588 391 
Q 1994 391 2212 530 
Q 2431 669 2431 922 
Q 2431 1156 2273 1281 
Q 2116 1406 1581 1522 
L 1381 1569 
Q 847 1681 609 1914 
Q 372 2147 372 2553 
Q 372 3047 722 3315 
Q 1072 3584 1716 3584 
Q 2034 3584 2315 3537 
Q 2597 3491 2834 3397 
z
" id="DejaVuSans-73" transform="scale(0.015625)"/>
       <path d="M 1959 3097 
Q 1497 3097 1228 2736 
Q 959 2375 959 1747 
Q 959 1119 1226 758 
Q 1494 397 1959 397 
Q 2419 397 2687 759 
Q 2956 1122 2956 1747 
Q 2956 2369 2687 2733 
Q 2419 3097 1959 3097 
z
M 1959 3584 
Q 2709 3584 3137 3096 
Q 3566 2609 3566 1747 
Q 3566 888 3137 398 
Q 2709 -91 1959 -91 
Q 1206 -91 779 398 
Q 353 888 353 1747 
Q 353 2609 779 3096 
Q 1206 3584 1959 3584 
z
" id="DejaVuSans-6f" transform="scale(0.015625)"/>
       <path d="M 2906 2969 
L 2906 4863 
L 3481 4863 
L 3481 0 
L 2906 0 
L 2906 525 
Q 2725 213 2448 61 
Q 2172 -91 1784 -91 
Q 1150 -91 751 415 
Q 353 922 353 1747 
Q 353 2572 751 3078 
Q 1150 3584 1784 3584 
Q 2172 3584 2448 3432 
Q 2725 3281 2906 2969 
z
M 947 1747 
Q 947 1113 1208 752 
Q 1469 391 1925 391 
Q 2381 391 2643 752 
Q 2906 1113 2906 1747 
Q 2906 2381 2643 2742 
Q 2381 3103 1925 3103 
Q 1469 3103 1208 2742 
Q 947 2381 947 1747 
z
" id="DejaVuSans-64" transform="scale(0.015625)"/>
       <path d="M 3597 1894 
L 3597 1613 
L 953 1613 
Q 991 1019 1311 708 
Q 1631 397 2203 397 
Q 2534 397 2845 478 
Q 3156 559 3463 722 
L 3463 178 
Q 3153 47 2828 -22 
Q 2503 -91 2169 -91 
Q 1331 -91 842 396 
Q 353 884 353 1716 
Q 353 2575 817 3079 
Q 1281 3584 2069 3584 
Q 2775 3584 3186 3129 
Q 3597 2675 3597 1894 
z
M 3022 2063 
Q 3016 2534 2758 2815 
Q 2500 3097 2075 3097 
Q 1594 3097 1305 2825 
Q 1016 2553 972 2059 
L 3022 2063 
z
" id="DejaVuSans-65" transform="scale(0.015625)"/>
      </defs>
      <use xlink:href="#DejaVuSans-45"/>
      <use x="63.183594" xlink:href="#DejaVuSans-70"/>
      <use x="126.660156" xlink:href="#DejaVuSans-69"/>
      <use x="154.443359" xlink:href="#DejaVuSans-73"/>
      <use x="206.542969" xlink:href="#DejaVuSans-6f"/>
      <use x="267.724609" xlink:href="#DejaVuSans-64"/>
      <use x="331.201172" xlink:href="#DejaVuSans-65"/>
      <use x="392.724609" xlink:href="#DejaVuSans-73"/>
     </g>
    </g>
   </g>
   <g id="matplotlib.axis_2">
    <g id="ytick_1">
     <g id="line2d_11">
      <path clip-path="url(#p6e33ab680f)" d="M 57.6 293.36625 
L 414.72 293.36625 
" style="fill:none;stroke:#b0b0b0;stroke-linecap:square;stroke-width:0.8;"/>
     </g>
     <g id="line2d_12">
      <defs>
       <path d="M 0 0 
L -3.5 0 
" id="m32e5184c02" style="stroke:#000000;stroke-width:0.8;"/>
      </defs>
      <g>
       <use style="stroke:#000000;stroke-width:0.8;" x="57.6" xlink:href="#m32e5184c02" y="293.36625"/>
      </g>
     </g>
     <g id="text_7">
      <!-- −100000 -->
      <g transform="translate(-23.8875 299.445)scale(0.16 -0.16)">
       <defs>
        <path d="M 678 2272 
L 4684 2272 
L 4684 1741 
L 678 1741 
L 678 2272 
z
" id="DejaVuSans-2212" transform="scale(0.015625)"/>
       </defs>
       <use xlink:href="#DejaVuSans-2212"/>
       <use x="83.789062" xlink:href="#DejaVuSans-31"/>
       <use x="147.412109" xlink:href="#DejaVuSans-30"/>
       <use x="211.035156" xlink:href="#DejaVuSans-30"/>
       <use x="274.658203" xlink:href="#DejaVuSans-30"/>
       <use x="338.28125" xlink:href="#DejaVuSans-30"/>
       <use x="401.904297" xlink:href="#DejaVuSans-30"/>
      </g>
     </g>
    </g>
    <g id="ytick_2">
     <g id="line2d_13">
      <path clip-path="url(#p6e33ab680f)" d="M 57.6 236.129397 
L 414.72 236.129397 
" style="fill:none;stroke:#b0b0b0;stroke-linecap:square;stroke-width:0.8;"/>
     </g>
     <g id="line2d_14">
      <g>
       <use style="stroke:#000000;stroke-width:0.8;" x="57.6" xlink:href="#m32e5184c02" y="236.129397"/>
      </g>
     </g>
     <g id="text_8">
      <!-- −80000 -->
      <g transform="translate(-13.7075 242.208147)scale(0.16 -0.16)">
       <defs>
        <path d="M 2034 2216 
Q 1584 2216 1326 1975 
Q 1069 1734 1069 1313 
Q 1069 891 1326 650 
Q 1584 409 2034 409 
Q 2484 409 2743 651 
Q 3003 894 3003 1313 
Q 3003 1734 2745 1975 
Q 2488 2216 2034 2216 
z
M 1403 2484 
Q 997 2584 770 2862 
Q 544 3141 544 3541 
Q 544 4100 942 4425 
Q 1341 4750 2034 4750 
Q 2731 4750 3128 4425 
Q 3525 4100 3525 3541 
Q 3525 3141 3298 2862 
Q 3072 2584 2669 2484 
Q 3125 2378 3379 2068 
Q 3634 1759 3634 1313 
Q 3634 634 3220 271 
Q 2806 -91 2034 -91 
Q 1263 -91 848 271 
Q 434 634 434 1313 
Q 434 1759 690 2068 
Q 947 2378 1403 2484 
z
M 1172 3481 
Q 1172 3119 1398 2916 
Q 1625 2713 2034 2713 
Q 2441 2713 2670 2916 
Q 2900 3119 2900 3481 
Q 2900 3844 2670 4047 
Q 2441 4250 2034 4250 
Q 1625 4250 1398 4047 
Q 1172 3844 1172 3481 
z
" id="DejaVuSans-38" transform="scale(0.015625)"/>
       </defs>
       <use xlink:href="#DejaVuSans-2212"/>
       <use x="83.789062" xlink:href="#DejaVuSans-38"/>
       <use x="147.412109" xlink:href="#DejaVuSans-30"/>
       <use x="211.035156" xlink:href="#DejaVuSans-30"/>
       <use x="274.658203" xlink:href="#DejaVuSans-30"/>
       <use x="338.28125" xlink:href="#DejaVuSans-30"/>
      </g>
     </g>
    </g>
    <g id="ytick_3">
     <g id="line2d_15">
      <path clip-path="url(#p6e33ab680f)" d="M 57.6 178.892545 
L 414.72 178.892545 
" style="fill:none;stroke:#b0b0b0;stroke-linecap:square;stroke-width:0.8;"/>
     </g>
     <g id="line2d_16">
      <g>
       <use style="stroke:#000000;stroke-width:0.8;" x="57.6" xlink:href="#m32e5184c02" y="178.892545"/>
      </g>
     </g>
     <g id="text_9">
      <!-- −60000 -->
      <g transform="translate(-13.7075 184.971295)scale(0.16 -0.16)">
       <defs>
        <path d="M 2113 2584 
Q 1688 2584 1439 2293 
Q 1191 2003 1191 1497 
Q 1191 994 1439 701 
Q 1688 409 2113 409 
Q 2538 409 2786 701 
Q 3034 994 3034 1497 
Q 3034 2003 2786 2293 
Q 2538 2584 2113 2584 
z
M 3366 4563 
L 3366 3988 
Q 3128 4100 2886 4159 
Q 2644 4219 2406 4219 
Q 1781 4219 1451 3797 
Q 1122 3375 1075 2522 
Q 1259 2794 1537 2939 
Q 1816 3084 2150 3084 
Q 2853 3084 3261 2657 
Q 3669 2231 3669 1497 
Q 3669 778 3244 343 
Q 2819 -91 2113 -91 
Q 1303 -91 875 529 
Q 447 1150 447 2328 
Q 447 3434 972 4092 
Q 1497 4750 2381 4750 
Q 2619 4750 2861 4703 
Q 3103 4656 3366 4563 
z
" id="DejaVuSans-36" transform="scale(0.015625)"/>
       </defs>
       <use xlink:href="#DejaVuSans-2212"/>
       <use x="83.789062" xlink:href="#DejaVuSans-36"/>
       <use x="147.412109" xlink:href="#DejaVuSans-30"/>
       <use x="211.035156" xlink:href="#DejaVuSans-30"/>
       <use x="274.658203" xlink:href="#DejaVuSans-30"/>
       <use x="338.28125" xlink:href="#DejaVuSans-30"/>
      </g>
     </g>
    </g>
    <g id="ytick_4">
     <g id="line2d_17">
      <path clip-path="url(#p6e33ab680f)" d="M 57.6 121.655693 
L 414.72 121.655693 
" style="fill:none;stroke:#b0b0b0;stroke-linecap:square;stroke-width:0.8;"/>
     </g>
     <g id="line2d_18">
      <g>
       <use style="stroke:#000000;stroke-width:0.8;" x="57.6" xlink:href="#m32e5184c02" y="121.655693"/>
      </g>
     </g>
     <g id="text_10">
      <!-- −40000 -->
      <g transform="translate(-13.7075 127.734443)scale(0.16 -0.16)">
       <use xlink:href="#DejaVuSans-2212"/>
       <use x="83.789062" xlink:href="#DejaVuSans-34"/>
       <use x="147.412109" xlink:href="#DejaVuSans-30"/>
       <use x="211.035156" xlink:href="#DejaVuSans-30"/>
       <use x="274.658203" xlink:href="#DejaVuSans-30"/>
       <use x="338.28125" xlink:href="#DejaVuSans-30"/>
      </g>
     </g>
    </g>
    <g id="ytick_5">
     <g id="line2d_19">
      <path clip-path="url(#p6e33ab680f)" d="M 57.6 64.41884 
L 414.72 64.41884 
" style="fill:none;stroke:#b0b0b0;stroke-linecap:square;stroke-width:0.8;"/>
     </g>
     <g id="line2d_20">
      <g>
       <use style="stroke:#000000;stroke-width:0.8;" x="57.6" xlink:href="#m32e5184c02" y="64.41884"/>
      </g>
     </g>
     <g id="text_11">
      <!-- −20000 -->
      <g transform="translate(-13.7075 70.49759)scale(0.16 -0.16)">
       <use xlink:href="#DejaVuSans-2212"/>
       <use x="83.789062" xlink:href="#DejaVuSans-32"/>
       <use x="147.412109" xlink:href="#DejaVuSans-30"/>
       <use x="211.035156" xlink:href="#DejaVuSans-30"/>
       <use x="274.658203" xlink:href="#DejaVuSans-30"/>
       <use x="338.28125" xlink:href="#DejaVuSans-30"/>
      </g>
     </g>
    </g>
    <g id="text_12">
     <!-- Cumulative Reward -->
     <g transform="translate(-31.215 252.52425)rotate(-90)scale(0.16 -0.16)">
      <defs>
       <path d="M 4122 4306 
L 4122 3641 
Q 3803 3938 3442 4084 
Q 3081 4231 2675 4231 
Q 1875 4231 1450 3742 
Q 1025 3253 1025 2328 
Q 1025 1406 1450 917 
Q 1875 428 2675 428 
Q 3081 428 3442 575 
Q 3803 722 4122 1019 
L 4122 359 
Q 3791 134 3420 21 
Q 3050 -91 2638 -91 
Q 1578 -91 968 557 
Q 359 1206 359 2328 
Q 359 3453 968 4101 
Q 1578 4750 2638 4750 
Q 3056 4750 3426 4639 
Q 3797 4528 4122 4306 
z
" id="DejaVuSans-43" transform="scale(0.015625)"/>
       <path d="M 544 1381 
L 544 3500 
L 1119 3500 
L 1119 1403 
Q 1119 906 1312 657 
Q 1506 409 1894 409 
Q 2359 409 2629 706 
Q 2900 1003 2900 1516 
L 2900 3500 
L 3475 3500 
L 3475 0 
L 2900 0 
L 2900 538 
Q 2691 219 2414 64 
Q 2138 -91 1772 -91 
Q 1169 -91 856 284 
Q 544 659 544 1381 
z
M 1991 3584 
L 1991 3584 
z
" id="DejaVuSans-75" transform="scale(0.015625)"/>
       <path d="M 3328 2828 
Q 3544 3216 3844 3400 
Q 4144 3584 4550 3584 
Q 5097 3584 5394 3201 
Q 5691 2819 5691 2113 
L 5691 0 
L 5113 0 
L 5113 2094 
Q 5113 2597 4934 2840 
Q 4756 3084 4391 3084 
Q 3944 3084 3684 2787 
Q 3425 2491 3425 1978 
L 3425 0 
L 2847 0 
L 2847 2094 
Q 2847 2600 2669 2842 
Q 2491 3084 2119 3084 
Q 1678 3084 1418 2786 
Q 1159 2488 1159 1978 
L 1159 0 
L 581 0 
L 581 3500 
L 1159 3500 
L 1159 2956 
Q 1356 3278 1631 3431 
Q 1906 3584 2284 3584 
Q 2666 3584 2933 3390 
Q 3200 3197 3328 2828 
z
" id="DejaVuSans-6d" transform="scale(0.015625)"/>
       <path d="M 603 4863 
L 1178 4863 
L 1178 0 
L 603 0 
L 603 4863 
z
" id="DejaVuSans-6c" transform="scale(0.015625)"/>
       <path d="M 2194 1759 
Q 1497 1759 1228 1600 
Q 959 1441 959 1056 
Q 959 750 1161 570 
Q 1363 391 1709 391 
Q 2188 391 2477 730 
Q 2766 1069 2766 1631 
L 2766 1759 
L 2194 1759 
z
M 3341 1997 
L 3341 0 
L 2766 0 
L 2766 531 
Q 2569 213 2275 61 
Q 1981 -91 1556 -91 
Q 1019 -91 701 211 
Q 384 513 384 1019 
Q 384 1609 779 1909 
Q 1175 2209 1959 2209 
L 2766 2209 
L 2766 2266 
Q 2766 2663 2505 2880 
Q 2244 3097 1772 3097 
Q 1472 3097 1187 3025 
Q 903 2953 641 2809 
L 641 3341 
Q 956 3463 1253 3523 
Q 1550 3584 1831 3584 
Q 2591 3584 2966 3190 
Q 3341 2797 3341 1997 
z
" id="DejaVuSans-61" transform="scale(0.015625)"/>
       <path d="M 1172 4494 
L 1172 3500 
L 2356 3500 
L 2356 3053 
L 1172 3053 
L 1172 1153 
Q 1172 725 1289 603 
Q 1406 481 1766 481 
L 2356 481 
L 2356 0 
L 1766 0 
Q 1100 0 847 248 
Q 594 497 594 1153 
L 594 3053 
L 172 3053 
L 172 3500 
L 594 3500 
L 594 4494 
L 1172 4494 
z
" id="DejaVuSans-74" transform="scale(0.015625)"/>
       <path d="M 191 3500 
L 800 3500 
L 1894 563 
L 2988 3500 
L 3597 3500 
L 2284 0 
L 1503 0 
L 191 3500 
z
" id="DejaVuSans-76" transform="scale(0.015625)"/>
       <path id="DejaVuSans-20" transform="scale(0.015625)"/>
       <path d="M 2841 2188 
Q 3044 2119 3236 1894 
Q 3428 1669 3622 1275 
L 4263 0 
L 3584 0 
L 2988 1197 
Q 2756 1666 2539 1819 
Q 2322 1972 1947 1972 
L 1259 1972 
L 1259 0 
L 628 0 
L 628 4666 
L 2053 4666 
Q 2853 4666 3247 4331 
Q 3641 3997 3641 3322 
Q 3641 2881 3436 2590 
Q 3231 2300 2841 2188 
z
M 1259 4147 
L 1259 2491 
L 2053 2491 
Q 2509 2491 2742 2702 
Q 2975 2913 2975 3322 
Q 2975 3731 2742 3939 
Q 2509 4147 2053 4147 
L 1259 4147 
z
" id="DejaVuSans-52" transform="scale(0.015625)"/>
       <path d="M 269 3500 
L 844 3500 
L 1563 769 
L 2278 3500 
L 2956 3500 
L 3675 769 
L 4391 3500 
L 4966 3500 
L 4050 0 
L 3372 0 
L 2619 2869 
L 1863 0 
L 1184 0 
L 269 3500 
z
" id="DejaVuSans-77" transform="scale(0.015625)"/>
       <path d="M 2631 2963 
Q 2534 3019 2420 3045 
Q 2306 3072 2169 3072 
Q 1681 3072 1420 2755 
Q 1159 2438 1159 1844 
L 1159 0 
L 581 0 
L 581 3500 
L 1159 3500 
L 1159 2956 
Q 1341 3275 1631 3429 
Q 1922 3584 2338 3584 
Q 2397 3584 2469 3576 
Q 2541 3569 2628 3553 
L 2631 2963 
z
" id="DejaVuSans-72" transform="scale(0.015625)"/>
      </defs>
      <use xlink:href="#DejaVuSans-43"/>
      <use x="69.824219" xlink:href="#DejaVuSans-75"/>
      <use x="133.203125" xlink:href="#DejaVuSans-6d"/>
      <use x="230.615234" xlink:href="#DejaVuSans-75"/>
      <use x="293.994141" xlink:href="#DejaVuSans-6c"/>
      <use x="321.777344" xlink:href="#DejaVuSans-61"/>
      <use x="383.056641" xlink:href="#DejaVuSans-74"/>
      <use x="422.265625" xlink:href="#DejaVuSans-69"/>
      <use x="450.048828" xlink:href="#DejaVuSans-76"/>
      <use x="509.228516" xlink:href="#DejaVuSans-65"/>
      <use x="570.751953" xlink:href="#DejaVuSans-20"/>
      <use x="602.539062" xlink:href="#DejaVuSans-52"/>
      <use x="667.521484" xlink:href="#DejaVuSans-65"/>
      <use x="729.044922" xlink:href="#DejaVuSans-77"/>
      <use x="810.832031" xlink:href="#DejaVuSans-61"/>
      <use x="872.111328" xlink:href="#DejaVuSans-72"/>
      <use x="911.474609" xlink:href="#DejaVuSans-64"/>
     </g>
    </g>
   </g>
   <g id="line2d_21">
    <path clip-path="url(#p6e33ab680f)" d="M 57.6 205.896919 
L 57.77856 266.075145 
L 57.86784 253.372669 
L 57.95712 205.896919 
L 58.13568 266.075145 
L 58.22496 253.372669 
L 58.31424 205.896919 
L 58.4928 266.075145 
L 58.58208 253.372669 
L 58.67136 205.896919 
L 58.84992 266.075145 
L 58.9392 253.372669 
L 59.02848 205.896919 
L 59.20704 266.075145 
L 59.29632 253.372669 
L 59.3856 205.896919 
L 59.56416 266.075145 
L 59.65344 253.372669 
L 59.74272 205.896919 
L 59.92128 266.075145 
L 60.01056 253.372669 
L 60.09984 205.896919 
L 60.2784 266.075145 
L 60.36768 253.372669 
L 60.45696 205.896919 
L 60.63552 266.075145 
L 60.7248 253.372669 
L 60.81408 205.896919 
L 60.99264 266.075145 
L 61.08192 253.372669 
L 61.1712 205.896919 
L 61.34976 266.075145 
L 61.43904 253.372669 
L 61.52832 205.896919 
L 61.70688 266.075145 
L 61.79616 253.372669 
L 61.88544 205.896919 
L 62.064 266.075145 
L 62.15328 253.372669 
L 62.24256 205.896919 
L 62.42112 266.075145 
L 62.5104 253.372669 
L 62.59968 205.896919 
L 62.77824 266.075145 
L 62.86752 253.372669 
L 62.9568 205.896919 
L 63.13536 266.075145 
L 63.22464 253.372669 
L 63.31392 205.896919 
L 63.49248 266.075145 
L 63.58176 253.372669 
L 63.67104 205.896919 
L 63.8496 266.075145 
L 63.93888 253.372669 
L 64.02816 205.896919 
L 64.20672 266.075145 
L 64.296 253.372669 
L 64.38528 205.896919 
L 64.56384 266.075145 
L 64.65312 253.372669 
L 64.7424 205.896919 
L 64.92096 266.075145 
L 65.01024 253.372669 
L 65.09952 205.896919 
L 65.27808 266.075145 
L 65.36736 253.372669 
L 65.45664 205.896919 
L 65.6352 266.075145 
L 65.72448 253.372669 
L 65.81376 205.896919 
L 65.99232 266.075145 
L 66.0816 253.372669 
L 66.17088 205.896919 
L 66.34944 266.075145 
L 66.43872 253.372669 
L 66.528 271.008206 
L 66.61728 211.017554 
L 66.70656 253.012859 
L 66.79584 220.700945 
L 66.88512 251.061801 
L 66.9744 215.801972 
L 67.15296 254.776076 
L 67.33152 217.710688 
L 67.51008 222.763663 
L 67.59936 256.718771 
L 67.77792 215.616231 
L 67.95648 239.889333 
L 68.04576 209.700146 
L 68.22432 253.535146 
L 68.3136 220.704199 
L 68.40288 258.268069 
L 68.49216 219.188663 
L 68.67072 249.176996 
L 68.76 211.513365 
L 68.84928 223.788277 
L 68.93856 266.123916 
L 69.02784 221.047979 
L 69.11712 261.470671 
L 69.2064 215.103298 
L 69.29568 219.405062 
L 69.38496 217.293781 
L 69.47424 234.738474 
L 69.6528 217.731538 
L 69.74208 220.299712 
L 69.83136 261.581914 
L 69.92064 245.642616 
L 70.00992 201.6468 
L 70.0992 247.998606 
L 70.18848 247.837272 
L 70.27776 239.825713 
L 70.36704 240.753294 
L 70.45632 196.63998 
L 70.5456 266.92404 
L 70.72416 193.52524 
L 70.81344 270.264402 
L 70.90272 239.8551 
L 70.992 252.366754 
L 71.08128 239.914318 
L 71.17056 249.28127 
L 71.4384 199.861247 
L 71.52768 228.279895 
L 71.61696 211.622192 
L 71.70624 216.579104 
L 71.79552 277.318392 
L 71.8848 212.941977 
L 72.15264 250.258506 
L 72.3312 202.866797 
L 72.42048 255.091613 
L 72.59904 235.487834 
L 72.68832 265.85612 
L 72.86688 237.756898 
L 73.04544 264.710986 
L 73.13472 235.670379 
L 73.224 246.513702 
L 73.31328 237.181247 
L 73.40256 243.199938 
L 73.49184 242.550722 
L 73.58112 219.939257 
L 73.6704 246.189662 
L 73.75968 236.077582 
L 73.84896 248.052556 
L 73.93824 201.605337 
L 74.20608 254.410607 
L 74.29536 232.937679 
L 74.38464 240.538268 
L 74.5632 216.749946 
L 74.65248 258.992309 
L 74.92032 188.865775 
L 75.0096 251.343355 
L 75.09888 245.061474 
L 75.18816 244.040262 
L 75.27744 236.386818 
L 75.36672 237.444357 
L 75.456 232.052544 
L 75.63456 238.483592 
L 75.72384 251.457874 
L 75.81312 225.117064 
L 76.08096 249.494063 
L 76.17024 212.925535 
L 76.25952 264.96064 
L 76.3488 251.654383 
L 76.43808 213.440891 
L 76.52736 256.738079 
L 76.61664 224.284945 
L 76.7952 248.18612 
L 76.97376 233.456377 
L 77.06304 241.581167 
L 77.33088 196.956053 
L 77.42016 257.851107 
L 77.50944 226.696151 
L 77.59872 244.815817 
L 77.77728 224.148613 
L 77.86656 246.714897 
L 78.04512 209.665808 
L 78.22368 234.966899 
L 78.31296 237.641456 
L 78.40224 261.08415 
L 78.49152 231.113066 
L 78.5808 238.057386 
L 78.67008 231.451221 
L 78.75936 194.189087 
L 78.84864 217.70864 
L 78.93792 217.09207 
L 79.0272 229.276568 
L 79.11648 218.065208 
L 79.20576 218.18732 
L 79.4736 260.584303 
L 79.56288 204.178425 
L 79.74144 261.419545 
L 80.00928 223.724288 
L 80.09856 236.897072 
L 80.18784 202.410715 
L 80.27712 252.167313 
L 80.3664 240.779959 
L 80.54496 285.408 
L 80.8128 207.671068 
L 80.90208 263.007016 
L 80.99136 220.268975 
L 81.08064 242.095361 
L 81.2592 213.058747 
L 81.34848 263.681223 
L 81.43776 200.930489 
L 81.52704 245.585968 
L 81.61632 215.014365 
L 81.7056 229.525353 
L 81.79488 197.949049 
L 81.88416 218.536784 
L 81.97344 214.739092 
L 82.152 221.759216 
L 82.24128 197.367207 
L 82.50912 253.856948 
L 82.5984 194.08167 
L 82.68768 202.748158 
L 82.86624 269.698762 
L 82.95552 227.787571 
L 83.0448 245.3484 
L 83.13408 222.14272 
L 83.22336 249.692201 
L 83.40192 203.573987 
L 83.58048 248.864504 
L 83.66976 226.444115 
L 83.75904 244.782643 
L 83.84832 177.415701 
L 83.9376 242.067926 
L 84.02688 233.936572 
L 84.20544 200.001775 
L 84.384 217.398606 
L 84.47328 222.085425 
L 84.56256 211.918979 
L 84.65184 218.964779 
L 84.74112 254.939998 
L 84.8304 216.026933 
L 84.91968 220.635668 
L 85.00896 251.215854 
L 85.18752 228.295841 
L 85.2768 243.714141 
L 85.36608 239.332113 
L 85.45536 221.894273 
L 85.54464 225.289877 
L 85.63392 214.675109 
L 85.7232 227.538969 
L 85.81248 212.319723 
L 85.90176 245.294736 
L 85.99104 243.376357 
L 86.08032 210.253877 
L 86.1696 241.34478 
L 86.25888 216.409384 
L 86.52672 268.019636 
L 86.616 228.096751 
L 86.70528 234.191267 
L 86.88384 209.178624 
L 87.0624 222.989285 
L 87.15168 272.257269 
L 87.33024 211.2471 
L 87.41952 257.645872 
L 87.5088 209.263232 
L 87.59808 239.880359 
L 87.68736 211.406304 
L 87.86592 248.253397 
L 87.9552 242.678656 
L 88.13376 206.769695 
L 88.22304 257.660004 
L 88.31232 221.229185 
L 88.4016 222.432812 
L 88.49088 227.075988 
L 88.66944 212.320506 
L 88.75872 214.927436 
L 88.848 212.132652 
L 89.02656 253.591672 
L 89.11584 249.427787 
L 89.20512 205.375206 
L 89.38368 235.383708 
L 89.47296 200.705873 
L 89.65152 223.287467 
L 89.7408 224.14387 
L 89.83008 271.819383 
L 89.91936 240.668792 
L 90.09792 263.822207 
L 90.27648 234.855123 
L 90.36576 252.676995 
L 90.6336 204.65862 
L 90.81216 220.344876 
L 90.90144 252.303118 
L 90.99072 196.258007 
L 91.08 249.16075 
L 91.25856 218.474804 
L 91.43712 252.863299 
L 91.70496 210.532626 
L 91.88352 217.802121 
L 91.9728 221.561104 
L 92.06208 243.717681 
L 92.24064 211.48429 
L 92.4192 252.370838 
L 92.50848 227.295699 
L 92.59776 237.176077 
L 92.77632 214.202412 
L 92.8656 218.374202 
L 92.95488 197.489892 
L 93.04416 252.632066 
L 93.13344 247.289017 
L 93.22272 247.85966 
L 93.312 264.924773 
L 93.40128 230.87168 
L 93.49056 237.53204 
L 93.66912 262.308292 
L 93.7584 211.245767 
L 93.93696 251.606032 
L 94.02624 189.951198 
L 94.11552 203.632175 
L 94.2048 248.891838 
L 94.29408 231.471829 
L 94.38336 253.680867 
L 94.6512 211.608845 
L 94.74048 211.74717 
L 94.82976 238.19314 
L 94.91904 207.626443 
L 95.0976 232.2961 
L 95.27616 239.904549 
L 95.36544 223.95362 
L 95.45472 225.378988 
L 95.544 220.939396 
L 95.63328 229.700427 
L 95.72256 256.160518 
L 95.81184 223.929713 
L 95.90112 270.79084 
L 96.07968 198.819566 
L 96.16896 223.292587 
L 96.25824 199.140577 
L 96.34752 207.071105 
L 96.52608 257.271355 
L 96.61536 219.852462 
L 96.70464 221.939808 
L 96.79392 213.603446 
L 96.8832 240.061679 
L 97.06176 209.749333 
L 97.15104 231.598315 
L 97.24032 228.16494 
L 97.3296 225.333666 
L 97.41888 215.301576 
L 97.50816 247.265328 
L 97.68672 197.754116 
L 97.776 217.852805 
L 97.95456 201.006555 
L 98.04384 215.165832 
L 98.13312 184.560704 
L 98.40096 233.641414 
L 98.57952 193.159006 
L 98.6688 237.07777 
L 98.84736 208.321098 
L 98.93664 218.222217 
L 99.1152 182.260014 
L 99.20448 244.767428 
L 99.29376 205.848348 
L 99.38304 235.557131 
L 99.5616 185.527967 
L 99.65088 231.339688 
L 99.82944 195.227517 
L 99.91872 215.803409 
L 100.008 210.947304 
L 100.09728 219.40759 
L 100.18656 269.69804 
L 100.36512 190.497513 
L 100.4544 242.932693 
L 100.54368 239.129689 
L 100.63296 236.425186 
L 100.72224 195.225597 
L 100.81152 236.014108 
L 100.9008 234.379309 
L 100.99008 248.744832 
L 101.07936 229.348292 
L 101.16864 238.952743 
L 101.3472 201.390797 
L 101.43648 229.511922 
L 101.52576 192.591778 
L 101.61504 244.44924 
L 101.70432 196.415105 
L 101.7936 243.77985 
L 101.88288 239.888686 
L 101.97216 206.410585 
L 102.15072 239.14295 
L 102.24 197.794927 
L 102.41856 232.490128 
L 102.50784 185.444486 
L 102.59712 247.393874 
L 102.6864 212.357831 
L 102.77568 265.808891 
L 102.86496 218.847864 
L 102.95424 238.276823 
L 103.04352 199.489101 
L 103.1328 233.613965 
L 103.22208 225.961983 
L 103.31136 177.562783 
L 103.48992 239.690655 
L 103.66848 231.489789 
L 103.75776 256.074438 
L 103.93632 208.603563 
L 104.0256 229.866376 
L 104.11488 228.292761 
L 104.20416 230.665247 
L 104.29344 258.929043 
L 104.56128 178.051486 
L 104.73984 245.496782 
L 104.82912 196.384952 
L 104.9184 224.81767 
L 105.00768 207.597366 
L 105.18624 258.437042 
L 105.45408 187.981259 
L 105.63264 237.698365 
L 105.72192 232.771979 
L 105.8112 187.746777 
L 105.98976 221.447311 
L 106.07904 224.734243 
L 106.2576 183.347143 
L 106.43616 212.858566 
L 106.52544 197.628501 
L 106.61472 202.85849 
L 106.79328 236.772548 
L 107.06112 194.025558 
L 107.1504 199.053081 
L 107.23968 176.833906 
L 107.32896 226.722861 
L 107.41824 207.975911 
L 107.50752 260.94564 
L 107.68608 183.068769 
L 107.77536 217.590582 
L 107.86464 213.947489 
L 107.95392 210.504743 
L 108.0432 242.714224 
L 108.22176 203.528712 
L 108.40032 229.163293 
L 108.4896 196.70576 
L 108.57888 215.183356 
L 108.66816 266.554966 
L 108.75744 195.630454 
L 108.84672 238.434723 
L 108.936 211.738529 
L 109.02528 230.984883 
L 109.11456 197.235216 
L 109.20384 222.688147 
L 109.47168 189.534845 
L 109.65024 236.898386 
L 109.8288 193.383421 
L 109.91808 200.569069 
L 110.00736 199.832288 
L 110.09664 252.002539 
L 110.18592 204.937922 
L 110.36448 229.430805 
L 110.45376 208.550161 
L 110.54304 215.750265 
L 110.63232 212.992747 
L 110.7216 231.497806 
L 110.81088 224.446988 
L 110.90016 205.361425 
L 110.98944 208.610733 
L 111.07872 197.477403 
L 111.168 201.890515 
L 111.34656 199.399533 
L 111.52512 230.237739 
L 111.70368 187.646163 
L 111.79296 251.376555 
L 111.97152 189.281872 
L 112.0608 272.1528 
L 112.15008 205.295828 
L 112.23936 215.68294 
L 112.32864 232.122601 
L 112.41792 206.276568 
L 112.5072 226.695765 
L 112.68576 192.060725 
L 112.77504 219.27841 
L 112.86432 195.592641 
L 112.9536 203.808131 
L 113.04288 198.577286 
L 113.22144 210.803526 
L 113.31072 194.73565 
L 113.4 210.22223 
L 113.48928 202.223461 
L 113.57856 205.409608 
L 113.66784 199.852551 
L 113.8464 227.211879 
L 113.93568 207.884837 
L 114.02496 228.049266 
L 114.11424 186.569064 
L 114.20352 193.42318 
L 114.2928 220.510102 
L 114.38208 217.555951 
L 114.56064 201.751235 
L 114.64992 209.97149 
L 114.7392 209.312096 
L 114.82848 202.807269 
L 115.00704 236.909027 
L 115.09632 205.000482 
L 115.1856 219.444851 
L 115.27488 214.143257 
L 115.45344 192.266829 
L 115.54272 215.355322 
L 115.632 211.511852 
L 115.72128 205.655351 
L 115.81056 210.926356 
L 115.89984 250.487146 
L 115.98912 188.814598 
L 116.0784 209.209582 
L 116.16768 208.853778 
L 116.25696 213.565918 
L 116.34624 196.642205 
L 116.43552 209.04271 
L 116.5248 186.469353 
L 116.79264 233.723502 
L 116.88192 199.443641 
L 116.9712 202.797391 
L 117.06048 211.085676 
L 117.23904 182.394576 
L 117.4176 216.441693 
L 117.50688 204.896256 
L 117.59616 223.593489 
L 117.77472 169.444466 
L 117.95328 229.116701 
L 118.13184 181.423184 
L 118.22112 228.639883 
L 118.39968 179.792041 
L 118.48896 225.206738 
L 118.57824 195.497627 
L 118.66752 200.14533 
L 118.7568 197.819823 
L 118.84608 200.545107 
L 118.93536 197.1996 
L 119.02464 220.03744 
L 119.11392 197.198519 
L 119.29248 227.341553 
L 119.38176 195.37333 
L 119.47104 220.794831 
L 119.56032 217.845106 
L 119.6496 232.498245 
L 119.73888 200.14654 
L 119.82816 209.403437 
L 119.91744 230.771294 
L 120.18528 172.530851 
L 120.27456 219.727417 
L 120.36384 179.783817 
L 120.45312 200.024715 
L 120.5424 196.682049 
L 120.72096 237.036147 
L 120.81024 205.403171 
L 120.89952 242.894817 
L 120.9888 194.736741 
L 121.07808 229.218493 
L 121.25664 182.111744 
L 121.4352 235.307623 
L 121.52448 205.461016 
L 121.61376 208.75677 
L 121.70304 199.21504 
L 121.79232 258.218266 
L 121.8816 199.946382 
L 121.97088 200.18404 
L 122.06016 220.652399 
L 122.23872 187.106678 
L 122.328 229.296166 
L 122.41728 205.46579 
L 122.50656 226.893681 
L 122.59584 215.607205 
L 122.68512 233.082155 
L 122.7744 230.274867 
L 122.86368 198.271291 
L 122.95296 199.534049 
L 123.04224 197.534148 
L 123.2208 245.402976 
L 123.31008 195.028286 
L 123.39936 199.924144 
L 123.57792 242.430739 
L 123.75648 233.9392 
L 123.84576 199.041153 
L 123.93504 205.111964 
L 124.20288 186.073799 
L 124.29216 222.497975 
L 124.38144 219.246078 
L 124.47072 238.580978 
L 124.64928 214.457406 
L 124.73856 219.778549 
L 124.82784 232.209841 
L 125.0064 161.811629 
L 125.09568 206.876677 
L 125.27424 188.50067 
L 125.36352 274.381471 
L 125.4528 191.17603 
L 125.63136 226.499891 
L 125.72064 201.971893 
L 125.80992 225.893436 
L 125.8992 173.564457 
L 126.07776 227.173073 
L 126.16704 209.016016 
L 126.25632 209.793422 
L 126.3456 197.628973 
L 126.43488 198.074017 
L 126.52416 200.793405 
L 126.70272 220.829192 
L 126.97056 188.680015 
L 127.05984 206.063329 
L 127.14912 177.720831 
L 127.2384 206.502195 
L 127.32768 186.200229 
L 127.41696 192.676087 
L 127.50624 207.527706 
L 127.59552 178.40864 
L 127.6848 185.51408 
L 127.77408 196.881913 
L 127.95264 225.763159 
L 128.04192 224.627523 
L 128.22048 198.920647 
L 128.30976 215.657756 
L 128.48832 199.477365 
L 128.5776 169.990026 
L 128.75616 207.799491 
L 128.84544 167.76243 
L 129.024 232.788097 
L 129.11328 196.210544 
L 129.20256 199.405197 
L 129.29184 175.488071 
L 129.38112 216.522458 
L 129.4704 183.455311 
L 129.55968 202.300083 
L 129.64896 168.20124 
L 129.82752 210.125467 
L 130.00608 184.492808 
L 130.09536 228.419489 
L 130.18464 210.689859 
L 130.27392 217.804188 
L 130.3632 164.636665 
L 130.54176 221.975527 
L 130.63104 184.539916 
L 130.72032 219.536561 
L 130.8096 212.078923 
L 130.98816 175.825715 
L 131.07744 179.56913 
L 131.256 213.419113 
L 131.34528 182.558237 
L 131.43456 184.918241 
L 131.52384 195.140178 
L 131.61312 181.82199 
L 131.79168 216.609478 
L 131.97024 184.390238 
L 132.05952 187.257627 
L 132.1488 220.487154 
L 132.32736 177.102386 
L 132.50592 197.325084 
L 132.5952 172.650746 
L 132.68448 217.90266 
L 132.77376 171.842067 
L 132.95232 235.084203 
L 133.0416 196.853839 
L 133.13088 211.361877 
L 133.30944 178.14265 
L 133.39872 240.738326 
L 133.488 185.122064 
L 133.57728 208.700224 
L 133.66656 197.131932 
L 133.84512 207.963405 
L 133.9344 204.666354 
L 134.02368 182.329646 
L 134.20224 208.163476 
L 134.29152 169.911203 
L 134.3808 221.734077 
L 134.47008 179.229251 
L 134.55936 181.156827 
L 134.73792 198.776341 
L 134.8272 228.054888 
L 135.00576 201.626508 
L 135.09504 212.071646 
L 135.18432 156.654046 
L 135.2736 207.46249 
L 135.36288 170.754296 
L 135.54144 205.139147 
L 135.63072 174.913339 
L 135.80928 249.737672 
L 135.98784 180.511066 
L 136.07712 216.227973 
L 136.1664 207.976542 
L 136.25568 210.283004 
L 136.52352 175.933563 
L 136.6128 215.58033 
L 136.88064 182.176255 
L 136.96992 182.286294 
L 137.0592 218.387748 
L 137.14848 141.513781 
L 137.23776 202.961018 
L 137.32704 197.300976 
L 137.41632 214.777565 
L 137.5056 193.284294 
L 137.59488 219.519057 
L 137.68416 207.366707 
L 137.77344 178.310341 
L 137.86272 224.648198 
L 138.04128 168.789974 
L 138.21984 219.477487 
L 138.30912 201.161736 
L 138.48768 215.499193 
L 138.57696 212.553008 
L 138.66624 177.418103 
L 138.75552 216.198079 
L 138.8448 196.713164 
L 138.93408 201.444227 
L 139.11264 190.262053 
L 139.2912 218.297974 
L 139.46976 187.904707 
L 139.55904 196.321827 
L 139.64832 175.863333 
L 139.7376 180.566081 
L 139.82688 191.841222 
L 139.91616 174.732807 
L 140.00544 186.36426 
L 140.09472 185.519865 
L 140.184 180.042637 
L 140.27328 166.419595 
L 140.36256 211.909105 
L 140.45184 177.015724 
L 140.54112 210.116716 
L 140.6304 182.27846 
L 140.71968 187.496865 
L 140.80896 177.991939 
L 140.98752 205.88293 
L 141.16608 190.38423 
L 141.25536 213.461197 
L 141.34464 194.407253 
L 141.43392 195.400558 
L 141.5232 185.599679 
L 141.61248 200.615223 
L 141.70176 175.858065 
L 141.9696 209.24355 
L 142.05888 175.564224 
L 142.23744 202.592647 
L 142.32672 184.424405 
L 142.416 188.169762 
L 142.50528 228.652475 
L 142.68384 159.038645 
L 142.8624 214.142418 
L 142.95168 167.048325 
L 143.04096 201.948448 
L 143.13024 189.130857 
L 143.21952 195.197437 
L 143.39808 179.383031 
L 143.48736 198.515328 
L 143.57664 191.532318 
L 143.66592 172.913865 
L 143.7552 189.119685 
L 143.84448 175.17373 
L 144.02304 203.602113 
L 144.11232 183.609799 
L 144.2016 197.646421 
L 144.29088 187.667006 
L 144.38016 208.960842 
L 144.55872 171.624185 
L 144.82656 208.687271 
L 145.00512 171.559032 
L 145.0944 212.846111 
L 145.18368 175.987849 
L 145.36224 206.740853 
L 145.45152 180.003742 
L 145.63008 196.82711 
L 145.89792 179.177783 
L 145.9872 195.83772 
L 146.07648 193.203504 
L 146.16576 201.095021 
L 146.25504 181.943584 
L 146.34432 191.165646 
L 146.4336 163.11689 
L 146.52288 185.224489 
L 146.61216 171.160555 
L 146.70144 179.788079 
L 146.79072 179.179383 
L 146.88 156.258679 
L 146.96928 169.509334 
L 147.05856 210.594145 
L 147.14784 171.238439 
L 147.23712 171.995639 
L 147.3264 184.384209 
L 147.41568 151.723519 
L 147.50496 153.596548 
L 147.59424 201.806683 
L 147.68352 186.400124 
L 147.7728 194.690943 
L 147.95136 173.951553 
L 148.12992 208.312413 
L 148.2192 191.077716 
L 148.30848 217.108903 
L 148.48704 177.92978 
L 148.57632 180.871978 
L 148.6656 228.15105 
L 148.84416 175.797609 
L 148.93344 184.451899 
L 149.02272 180.192099 
L 149.112 218.66096 
L 149.46912 173.064379 
L 149.5584 180.073067 
L 149.64768 199.950875 
L 149.73696 199.946551 
L 149.82624 169.738673 
L 150.0048 213.907476 
L 150.18336 176.772159 
L 150.27264 190.719499 
L 150.36192 183.97829 
L 150.4512 222.017676 
L 150.62976 178.379662 
L 150.71904 219.484523 
L 150.8976 166.096529 
L 150.98688 165.279637 
L 151.07616 204.843013 
L 151.16544 201.619599 
L 151.25472 165.768322 
L 151.344 190.85818 
L 151.43328 158.705885 
L 151.52256 185.825391 
L 151.61184 168.740307 
L 151.7904 209.866234 
L 151.96896 171.44726 
L 152.05824 170.415847 
L 152.2368 204.837321 
L 152.32608 187.852501 
L 152.50464 214.5731 
L 152.6832 173.279415 
L 152.77248 178.58729 
L 152.86176 201.83699 
L 152.95104 175.390789 
L 153.21888 214.866619 
L 153.30816 171.678635 
L 153.39744 176.702322 
L 153.48672 206.783837 
L 153.75456 168.222186 
L 153.84384 144.546122 
L 153.93312 196.799505 
L 154.0224 179.112125 
L 154.11168 195.870861 
L 154.20096 180.712064 
L 154.29024 193.76986 
L 154.37952 164.946631 
L 154.4688 196.132022 
L 154.55808 165.93108 
L 154.73664 205.60113 
L 154.82592 200.049919 
L 154.9152 200.228459 
L 155.00448 196.919625 
L 155.18304 218.696171 
L 155.27232 184.044699 
L 155.3616 194.317578 
L 155.45088 192.458989 
L 155.62944 164.511333 
L 155.71872 190.095279 
L 155.89728 166.769009 
L 155.98656 185.841443 
L 156.16512 166.042181 
L 156.2544 195.560784 
L 156.34368 148.523425 
L 156.52224 199.761876 
L 156.61152 145.301345 
L 156.7008 198.983567 
L 156.79008 179.021888 
L 156.87936 203.788098 
L 156.96864 173.235011 
L 157.23648 200.367708 
L 157.32576 201.442636 
L 157.41504 182.452034 
L 157.50432 199.718638 
L 157.5936 185.24429 
L 157.68288 207.433682 
L 157.77216 162.442402 
L 157.86144 205.565131 
L 157.95072 141.104539 
L 158.30784 186.419865 
L 158.39712 183.738291 
L 158.4864 175.106705 
L 158.57568 181.617786 
L 158.66496 214.928976 
L 158.75424 162.388751 
L 158.84352 202.241313 
L 158.9328 179.529411 
L 159.02208 183.831919 
L 159.11136 171.773308 
L 159.20064 193.623377 
L 159.46848 162.220111 
L 159.55776 197.482328 
L 159.64704 195.283779 
L 159.73632 170.596465 
L 159.91488 216.442167 
L 160.00416 167.163738 
L 160.09344 169.880324 
L 160.272 150.21136 
L 160.45056 197.725077 
L 160.53984 169.830318 
L 160.62912 201.375916 
L 160.7184 148.424633 
L 160.80768 167.513363 
L 160.98624 159.046629 
L 161.07552 165.810065 
L 161.1648 156.252925 
L 161.43264 195.452937 
L 161.70048 179.908499 
L 161.78976 212.786703 
L 161.96832 148.96632 
L 162.0576 196.697789 
L 162.14688 174.511029 
L 162.23616 176.523714 
L 162.32544 184.149003 
L 162.41472 153.945945 
L 162.59328 197.804062 
L 162.68256 152.213844 
L 162.86112 189.198305 
L 162.9504 188.075088 
L 163.03968 193.231927 
L 163.12896 190.466984 
L 163.21824 222.510873 
L 163.3968 146.387485 
L 163.48608 188.728532 
L 163.57536 188.564961 
L 163.66464 162.630396 
L 163.75392 173.228781 
L 163.8432 167.151576 
L 164.02176 206.790924 
L 164.20032 158.784844 
L 164.2896 205.7265 
L 164.46816 182.966801 
L 164.55744 190.185448 
L 164.64672 187.321471 
L 164.736 156.988444 
L 164.82528 211.011456 
L 164.91456 195.416997 
L 165.00384 209.980621 
L 165.09312 154.003831 
L 165.1824 199.603593 
L 165.36096 171.832936 
L 165.45024 175.578071 
L 165.53952 232.079322 
L 165.71808 174.284769 
L 165.80736 191.381366 
L 165.89664 167.584768 
L 165.98592 191.277659 
L 166.0752 151.331097 
L 166.25376 209.693736 
L 166.34304 214.360023 
L 166.5216 157.205724 
L 166.70016 201.093187 
L 166.78944 175.229883 
L 166.87872 180.203001 
L 166.968 193.162424 
L 167.05728 163.076894 
L 167.14656 177.230487 
L 167.23584 225.362857 
L 167.32512 165.631759 
L 167.4144 191.116816 
L 167.50368 162.70125 
L 167.59296 208.769112 
L 167.68224 166.649459 
L 167.77152 179.817704 
L 167.8608 168.023321 
L 167.95008 205.491385 
L 168.03936 198.902933 
L 168.21792 186.110431 
L 168.3072 219.731965 
L 168.48576 166.074787 
L 168.66432 181.850573 
L 168.84288 168.77442 
L 168.93216 207.442997 
L 169.02144 178.78569 
L 169.11072 198.653496 
L 169.2 162.118034 
L 169.28928 184.943144 
L 169.46784 148.97656 
L 169.6464 236.814417 
L 169.82496 161.032535 
L 170.0928 213.732059 
L 170.18208 193.476496 
L 170.27136 200.198783 
L 170.36064 234.675923 
L 170.62848 172.306702 
L 170.80704 153.576929 
L 170.9856 190.623237 
L 171.07488 183.31032 
L 171.16416 163.481285 
L 171.25344 209.736188 
L 171.34272 173.301318 
L 171.52128 195.982228 
L 171.61056 178.118331 
L 171.69984 217.581108 
L 171.8784 157.193677 
L 171.96768 234.897872 
L 172.05696 165.250527 
L 172.14624 181.13722 
L 172.23552 176.661156 
L 172.3248 155.181862 
L 172.41408 160.737294 
L 172.50336 144.556285 
L 172.68192 206.195666 
L 172.86048 145.530424 
L 172.94976 170.126415 
L 173.03904 186.432662 
L 173.12832 161.757747 
L 173.30688 179.21707 
L 173.39616 179.381208 
L 173.48544 214.752066 
L 173.57472 181.125906 
L 173.664 200.217275 
L 173.75328 196.077648 
L 173.84256 200.894556 
L 173.93184 148.9385 
L 174.1104 183.39117 
L 174.19968 155.328347 
L 174.46752 188.166473 
L 174.5568 182.196226 
L 174.64608 183.877761 
L 174.73536 180.525322 
L 174.82464 184.024557 
L 174.91392 168.692994 
L 175.0032 188.274291 
L 175.09248 160.552337 
L 175.18176 209.781091 
L 175.27104 182.235048 
L 175.36032 188.225488 
L 175.4496 229.968832 
L 175.53888 175.290948 
L 175.62816 183.43222 
L 175.71744 190.358416 
L 175.80672 186.822961 
L 175.896 191.579301 
L 175.98528 220.648486 
L 176.07456 180.707816 
L 176.16384 211.267406 
L 176.3424 170.032828 
L 176.52096 214.682112 
L 176.61024 160.615711 
L 176.87808 204.15874 
L 176.96736 211.006365 
L 177.05664 164.833839 
L 177.14592 201.304663 
L 177.2352 158.802127 
L 177.32448 200.033284 
L 177.50304 168.30542 
L 177.59232 205.16151 
L 177.6816 183.950072 
L 177.77088 186.70132 
L 177.86016 181.80162 
L 177.94944 138.010559 
L 178.03872 234.085799 
L 178.21728 166.34701 
L 178.30656 185.929078 
L 178.39584 165.394106 
L 178.48512 189.836729 
L 178.66368 155.974774 
L 178.75296 172.421407 
L 178.84224 124.35298 
L 178.93152 192.326989 
L 179.0208 182.800308 
L 179.19936 171.346429 
L 179.28864 166.655562 
L 179.37792 206.473295 
L 179.55648 166.161522 
L 179.64576 164.311532 
L 179.82432 186.697176 
L 179.9136 180.211884 
L 180.00288 181.60186 
L 180.09216 190.90258 
L 180.18144 157.503543 
L 180.27072 163.820291 
L 180.44928 180.675168 
L 180.8064 161.145474 
L 180.89568 153.549861 
L 181.07424 190.77786 
L 181.16352 158.446886 
L 181.2528 183.506136 
L 181.34208 175.527079 
L 181.43136 178.94379 
L 181.52064 177.188486 
L 181.60992 156.306615 
L 181.6992 161.516349 
L 181.78848 195.951833 
L 181.87776 168.032779 
L 182.05632 193.204333 
L 182.1456 145.023357 
L 182.32416 170.267348 
L 182.41344 148.943789 
L 182.68128 177.768507 
L 182.85984 157.480506 
L 182.94912 165.026078 
L 183.0384 143.730655 
L 183.21696 181.925827 
L 183.30624 171.44005 
L 183.39552 172.234307 
L 183.4848 166.372716 
L 183.57408 148.023324 
L 183.66336 173.270539 
L 183.75264 130.454491 
L 183.84192 191.00391 
L 183.9312 183.888154 
L 184.10976 165.540439 
L 184.19904 178.935431 
L 184.3776 147.654261 
L 184.46688 141.639433 
L 184.55616 174.438109 
L 184.64544 143.192631 
L 184.73472 194.293752 
L 185.09184 129.325239 
L 185.18112 210.448954 
L 185.2704 131.941516 
L 185.35968 145.059006 
L 185.53824 211.008562 
L 185.62752 132.308828 
L 185.80608 176.245127 
L 186.07392 145.670882 
L 186.1632 143.076926 
L 186.25248 195.042061 
L 186.43104 149.950078 
L 186.52032 210.799674 
L 186.69888 154.508177 
L 186.78816 154.872081 
L 186.87744 164.405983 
L 186.96672 151.360779 
L 187.14528 188.854654 
L 187.23456 160.663607 
L 187.41312 185.983863 
L 187.5024 132.244366 
L 187.59168 173.175475 
L 187.68096 138.783855 
L 187.77024 157.472943 
L 187.85952 128.620776 
L 187.9488 154.159554 
L 188.03808 136.086222 
L 188.21664 167.238808 
L 188.30592 147.701727 
L 188.3952 152.625239 
L 188.48448 168.524418 
L 188.57376 141.814118 
L 188.75232 158.704645 
L 188.8416 136.363254 
L 188.93088 171.2866 
L 189.02016 151.252075 
L 189.19872 172.847463 
L 189.288 209.668144 
L 189.37728 150.358029 
L 189.46656 180.163533 
L 189.55584 150.904577 
L 189.82368 185.690225 
L 190.09152 148.015151 
L 190.1808 151.993896 
L 190.27008 129.442482 
L 190.44864 176.127773 
L 190.71648 147.72897 
L 190.89504 185.706997 
L 190.98432 155.658608 
L 191.0736 160.870642 
L 191.16288 142.276171 
L 191.25216 149.539325 
L 191.34144 134.345422 
L 191.52 180.829152 
L 191.69856 126.489351 
L 191.78784 128.324748 
L 191.9664 220.264254 
L 192.05568 128.450864 
L 192.14496 170.557219 
L 192.23424 151.902264 
L 192.32352 153.538599 
L 192.4128 172.434321 
L 192.59136 140.985792 
L 192.68064 171.082141 
L 192.76992 165.867533 
L 192.8592 164.733758 
L 192.94848 136.546094 
L 193.12704 170.312128 
L 193.21632 143.616875 
L 193.3056 168.389577 
L 193.48416 131.801795 
L 193.57344 154.477375 
L 193.66272 138.25516 
L 193.752 161.814643 
L 193.84128 138.780067 
L 193.93056 142.668084 
L 194.01984 148.386436 
L 194.10912 178.88687 
L 194.1984 175.86917 
L 194.28768 173.542984 
L 194.37696 133.519109 
L 194.46624 181.837878 
L 194.55552 167.501327 
L 194.6448 181.23105 
L 194.73408 128.490506 
L 195.0912 180.400833 
L 195.26976 154.241768 
L 195.35904 172.044565 
L 195.5376 117.268622 
L 195.71616 175.000492 
L 195.80544 128.006871 
L 195.984 178.312208 
L 196.07328 143.280485 
L 196.34112 166.153783 
L 196.4304 140.810066 
L 196.51968 196.317366 
L 196.60896 148.71236 
L 196.69824 154.178245 
L 196.78752 186.514084 
L 196.8768 143.545407 
L 196.96608 153.207844 
L 197.05536 174.268011 
L 197.23392 148.446269 
L 197.41248 161.264763 
L 197.50176 146.361456 
L 197.59104 182.901284 
L 197.68032 140.02872 
L 197.85888 172.555246 
L 197.94816 162.02453 
L 198.03744 200.572523 
L 198.12672 197.936421 
L 198.30528 146.593034 
L 198.39456 132.015477 
L 198.48384 171.387097 
L 198.75168 124.266871 
L 198.84096 190.344802 
L 198.93024 139.378636 
L 199.01952 157.969453 
L 199.19808 132.054237 
L 199.37664 176.313082 
L 199.5552 139.249095 
L 199.64448 148.311839 
L 199.73376 126.830069 
L 199.82304 171.09547 
L 199.91232 131.740763 
L 200.0016 143.403319 
L 200.09088 175.744694 
L 200.26944 140.593686 
L 200.35872 146.697583 
L 200.53728 130.885379 
L 200.62656 135.76923 
L 200.71584 136.323656 
L 200.8944 160.474469 
L 200.98368 143.704687 
L 201.07296 177.964054 
L 201.16224 143.988041 
L 201.25152 153.438133 
L 201.3408 127.785769 
L 201.51936 154.877762 
L 201.60864 128.376227 
L 201.69792 171.623562 
L 201.7872 116.170991 
L 201.96576 153.581471 
L 202.05504 144.320151 
L 202.14432 147.391683 
L 202.2336 125.915192 
L 202.32288 133.561084 
L 202.41216 128.003577 
L 202.50144 158.129628 
L 202.59072 127.096243 
L 202.68 170.158799 
L 202.76928 131.204992 
L 202.85856 154.209179 
L 202.94784 145.928591 
L 203.03712 159.192944 
L 203.21568 126.844207 
L 203.30496 167.3352 
L 203.5728 120.427174 
L 203.66208 147.561178 
L 203.84064 126.615693 
L 203.92992 139.519099 
L 204.10848 132.214591 
L 204.28704 147.057515 
L 204.37632 139.63102 
L 204.4656 167.484299 
L 204.55488 149.004469 
L 204.64416 159.312006 
L 204.82272 117.65475 
L 204.912 155.659104 
L 205.00128 124.821434 
L 205.17984 152.984149 
L 205.3584 130.64475 
L 205.44768 159.459562 
L 205.53696 150.324925 
L 205.62624 123.642606 
L 205.71552 127.404082 
L 205.8048 109.71573 
L 205.98336 136.388436 
L 206.07264 143.052949 
L 206.16192 133.152525 
L 206.2512 135.25153 
L 206.34048 126.21049 
L 206.42976 151.028882 
L 206.51904 141.058056 
L 206.60832 182.452355 
L 206.78688 140.180966 
L 206.87616 144.426806 
L 206.96544 118.552492 
L 207.05472 166.68172 
L 207.144 164.257233 
L 207.23328 144.164981 
L 207.32256 155.984792 
L 207.41184 135.632243 
L 207.50112 139.12374 
L 207.5904 124.491647 
L 207.76896 176.586373 
L 207.85824 151.527761 
L 207.94752 159.482254 
L 208.0368 159.268091 
L 208.12608 148.917748 
L 208.21536 115.106332 
L 208.39392 150.421812 
L 208.4832 157.231923 
L 208.57248 147.629607 
L 208.66176 117.081108 
L 208.75104 165.311168 
L 208.84032 137.643646 
L 208.9296 140.073027 
L 209.01888 122.104627 
L 209.10816 128.716395 
L 209.19744 112.595288 
L 209.28672 147.086223 
L 209.376 123.19187 
L 209.46528 134.429558 
L 209.55456 163.133874 
L 209.73312 117.687336 
L 209.91168 145.254118 
L 210.00096 132.990557 
L 210.09024 138.744348 
L 210.17952 108.359116 
L 210.35808 137.84063 
L 210.44736 119.03102 
L 210.53664 120.119014 
L 210.80448 137.53129 
L 210.98304 106.214357 
L 211.07232 166.805694 
L 211.25088 113.504725 
L 211.34016 148.971716 
L 211.42944 116.463973 
L 211.51872 153.995364 
L 211.608 142.642929 
L 211.69728 103.945836 
L 211.78656 122.4411 
L 211.87584 118.874327 
L 211.96512 121.711501 
L 212.14368 140.044066 
L 212.23296 129.473977 
L 212.32224 136.343918 
L 212.41152 120.915187 
L 212.5008 125.190886 
L 212.59008 150.542418 
L 212.67936 131.15583 
L 212.76864 140.211664 
L 212.85792 133.516506 
L 212.9472 118.329468 
L 213.12576 133.277027 
L 213.21504 118.779876 
L 213.30432 146.40989 
L 213.3936 115.924618 
L 213.57216 129.743651 
L 213.66144 123.403577 
L 213.75072 163.234257 
L 213.84 154.756744 
L 214.01856 123.708177 
L 214.10784 133.997899 
L 214.19712 111.844162 
L 214.2864 127.199802 
L 214.46496 114.16885 
L 214.64352 135.677659 
L 214.82208 127.49406 
L 214.91136 132.623812 
L 215.00064 122.300293 
L 215.08992 126.823173 
L 215.1792 144.297612 
L 215.35776 98.044391 
L 215.44704 161.458066 
L 215.53632 98.960501 
L 215.71488 149.972282 
L 215.80416 118.612478 
L 215.89344 119.172936 
L 216.072 110.391911 
L 216.25056 134.637869 
L 216.33984 102.172915 
L 216.42912 112.059647 
L 216.5184 140.936044 
L 216.60768 109.46282 
L 216.69696 114.259841 
L 216.78624 131.85172 
L 216.87552 118.721506 
L 216.9648 145.721139 
L 217.14336 120.942372 
L 217.23264 123.205507 
L 217.32192 111.582088 
L 217.58976 123.543074 
L 217.67904 127.184039 
L 217.76832 107.031574 
L 217.94688 143.724633 
L 218.03616 106.784489 
L 218.12544 113.138351 
L 218.21472 104.752695 
L 218.304 129.879621 
L 218.48256 108.989417 
L 218.57184 124.659142 
L 218.66112 121.483372 
L 218.7504 120.785358 
L 218.83968 141.709851 
L 218.92896 126.258062 
L 219.01824 166.520024 
L 219.1968 113.000111 
L 219.37536 135.013305 
L 219.46464 104.164948 
L 219.55392 111.361711 
L 219.6432 150.96188 
L 219.73248 116.678595 
L 219.82176 123.720729 
L 219.91104 108.955531 
L 220.00032 113.060798 
L 220.0896 92.65424 
L 220.17888 128.056661 
L 220.35744 109.740725 
L 220.44672 112.7237 
L 220.62528 166.394723 
L 220.80384 111.173632 
L 220.89312 118.415031 
L 220.9824 115.296552 
L 221.16096 140.928128 
L 221.33952 101.747432 
L 221.4288 130.270691 
L 221.60736 109.717844 
L 221.69664 132.352561 
L 221.78592 118.028434 
L 221.8752 128.335597 
L 221.96448 103.132497 
L 222.05376 122.737627 
L 222.23232 101.641659 
L 222.41088 142.750868 
L 222.50016 120.56615 
L 222.58944 124.823582 
L 222.768 142.436473 
L 222.85728 108.582321 
L 223.03584 124.520185 
L 223.12512 120.339916 
L 223.2144 100.886243 
L 223.39296 118.520838 
L 223.48224 107.772628 
L 223.6608 125.65237 
L 223.83936 99.783457 
L 223.92864 124.730983 
L 224.01792 120.359367 
L 224.1072 121.357732 
L 224.19648 148.124841 
L 224.28576 125.980547 
L 224.37504 128.766487 
L 224.46432 110.503608 
L 224.73216 126.050573 
L 224.82144 158.442831 
L 224.91072 102.54974 
L 225.08928 135.51524 
L 225.17856 98.320605 
L 225.35712 120.15939 
L 225.53568 128.007405 
L 225.62496 114.933571 
L 225.71424 115.636539 
L 225.80352 109.887377 
L 225.8928 123.629927 
L 225.98208 106.277144 
L 226.07136 134.074253 
L 226.16064 101.214809 
L 226.3392 125.315901 
L 226.42848 136.233452 
L 226.51776 134.502977 
L 226.69632 110.873218 
L 226.7856 115.83391 
L 226.87488 105.621961 
L 226.96416 136.93462 
L 227.05344 111.616291 
L 227.14272 130.801442 
L 227.232 112.799719 
L 227.32128 165.123744 
L 227.49984 95.702097 
L 227.6784 130.204114 
L 227.85696 100.683605 
L 228.03552 131.896668 
L 228.1248 131.702494 
L 228.21408 132.461858 
L 228.30336 140.193023 
L 228.48192 121.016637 
L 228.5712 144.613577 
L 228.66048 121.780234 
L 228.74976 134.29689 
L 228.83904 97.235119 
L 229.0176 120.354247 
L 229.19616 110.913665 
L 229.28544 115.115803 
L 229.37472 136.661578 
L 229.464 96.989376 
L 229.55328 100.93173 
L 229.64256 86.256947 
L 229.73184 119.078299 
L 229.82112 114.475585 
L 229.9104 100.65649 
L 229.99968 119.005898 
L 230.08896 103.755739 
L 230.26752 139.236996 
L 230.3568 136.413696 
L 230.44608 111.782042 
L 230.53536 139.428887 
L 230.62464 120.609231 
L 230.71392 123.09794 
L 230.8032 135.27871 
L 230.98176 106.470972 
L 231.07104 116.340671 
L 231.16032 108.281542 
L 231.2496 123.295058 
L 231.33888 114.739679 
L 231.42816 130.193668 
L 231.51744 97.17456 
L 231.60672 115.421528 
L 231.696 102.049284 
L 231.87456 124.303871 
L 231.96384 124.496486 
L 232.05312 117.432373 
L 232.1424 137.863649 
L 232.32096 95.895249 
L 232.5888 157.649304 
L 232.94592 112.256935 
L 233.0352 119.945051 
L 233.12448 99.546517 
L 233.21376 114.327393 
L 233.30304 163.312439 
L 233.39232 114.010488 
L 233.4816 130.590253 
L 233.57088 122.597016 
L 233.66016 173.00943 
L 233.74944 93.472204 
L 233.83872 130.523483 
L 233.928 129.9409 
L 234.01728 122.991352 
L 234.10656 96.320148 
L 234.19584 128.318182 
L 234.28512 122.288489 
L 234.3744 134.833028 
L 234.46368 104.486465 
L 234.55296 117.874636 
L 234.73152 106.101703 
L 234.8208 93.823835 
L 234.91008 112.173639 
L 234.99936 102.535235 
L 235.17792 126.351543 
L 235.35648 122.07848 
L 235.44576 138.143183 
L 235.62432 108.634739 
L 235.80288 123.207022 
L 235.89216 126.119476 
L 235.98144 100.68674 
L 236.16 116.348141 
L 236.24928 105.153122 
L 236.33856 117.849162 
L 236.42784 115.46847 
L 236.51712 109.395972 
L 236.6064 127.382688 
L 236.69568 126.053877 
L 236.78496 117.861599 
L 236.87424 144.019978 
L 236.96352 109.141668 
L 237.0528 113.439681 
L 237.14208 106.675837 
L 237.23136 107.433517 
L 237.32064 111.262453 
L 237.40992 96.223739 
L 237.4992 120.123653 
L 237.58848 117.601228 
L 237.76704 103.446637 
L 237.85632 124.771734 
L 238.03488 98.109797 
L 238.21344 115.01019 
L 238.30272 107.830511 
L 238.392 122.651456 
L 238.57056 89.298009 
L 238.65984 102.327992 
L 238.74912 147.664662 
L 238.92768 104.396473 
L 239.01696 105.078997 
L 239.10624 109.682343 
L 239.19552 93.811329 
L 239.2848 122.02744 
L 239.37408 106.852128 
L 239.46336 108.381535 
L 239.55264 109.575146 
L 239.64192 94.37354 
L 239.7312 114.340973 
L 239.82048 107.071296 
L 239.99904 113.442192 
L 240.08832 126.757373 
L 240.1776 98.313458 
L 240.26688 107.127465 
L 240.35616 89.343902 
L 240.53472 115.668969 
L 240.624 112.097408 
L 240.71328 112.581757 
L 240.80256 117.618343 
L 240.89184 105.181631 
L 240.98112 130.515348 
L 241.0704 94.322761 
L 241.15968 124.030662 
L 241.24896 110.809217 
L 241.33824 114.931275 
L 241.42752 124.420413 
L 241.60608 115.503791 
L 241.69536 155.903684 
L 241.87392 79.39463 
L 241.9632 126.231228 
L 242.05248 85.357518 
L 242.23104 117.903824 
L 242.32032 113.979618 
L 242.4096 95.485057 
L 242.67744 128.075683 
L 242.76672 91.483641 
L 242.856 106.356029 
L 242.94528 146.286841 
L 243.03456 128.049882 
L 243.12384 87.02897 
L 243.3024 115.193344 
L 243.39168 110.975622 
L 243.48096 111.055617 
L 243.57024 124.038552 
L 243.65952 103.231872 
L 243.83808 113.136495 
L 243.92736 134.041481 
L 244.10592 94.651376 
L 244.1952 95.247027 
L 244.28448 99.447146 
L 244.37376 87.920269 
L 244.55232 108.569161 
L 244.6416 105.654347 
L 244.73088 90.935664 
L 244.90944 112.701478 
L 244.99872 86.671235 
L 245.17728 133.974444 
L 245.26656 92.003083 
L 245.35584 105.364228 
L 245.44512 100.134611 
L 245.71296 107.564093 
L 245.80224 117.242646 
L 245.9808 104.182299 
L 246.07008 113.624743 
L 246.15936 113.450769 
L 246.24864 106.87582 
L 246.33792 133.355928 
L 246.4272 100.750863 
L 246.51648 107.925088 
L 246.60576 110.263996 
L 246.69504 95.962125 
L 246.96288 140.439837 
L 247.05216 103.518729 
L 247.14144 121.278666 
L 247.23072 111.99299 
L 247.40928 121.160895 
L 247.58784 118.268964 
L 247.67712 112.454314 
L 247.7664 120.28445 
L 247.85568 150.713563 
L 247.94496 110.268289 
L 248.03424 136.476337 
L 248.12352 135.02686 
L 248.39136 97.724788 
L 248.48064 105.188131 
L 248.56992 135.611653 
L 248.6592 109.304968 
L 248.74848 126.516459 
L 248.83776 108.434749 
L 249.01632 118.625931 
L 249.19488 109.080761 
L 249.28416 136.935151 
L 249.46272 91.73953 
L 249.552 106.085708 
L 249.64128 98.204368 
L 249.73056 151.419718 
L 249.81984 114.646512 
L 249.90912 119.179323 
L 249.9984 125.035013 
L 250.17696 93.726373 
L 250.26624 124.92417 
L 250.53408 98.167519 
L 250.71264 125.025818 
L 250.8912 103.080091 
L 251.06976 124.109702 
L 251.15904 105.706454 
L 251.3376 125.162308 
L 251.42688 112.36551 
L 251.51616 138.763093 
L 251.60544 100.337563 
L 251.69472 152.785266 
L 251.784 113.138781 
L 251.87328 153.191877 
L 251.96256 104.656745 
L 252.05184 130.876538 
L 252.2304 101.044949 
L 252.31968 103.661694 
L 252.40896 118.182569 
L 252.49824 111.340729 
L 252.58752 113.82003 
L 252.6768 82.433813 
L 252.76608 110.324936 
L 252.85536 98.318641 
L 252.94464 137.905909 
L 253.03392 133.331754 
L 253.1232 127.864861 
L 253.21248 82.303234 
L 253.30176 115.348318 
L 253.39104 110.79793 
L 253.48032 136.863268 
L 253.65888 96.759618 
L 253.74816 113.970694 
L 253.83744 103.663776 
L 253.92672 149.957556 
L 254.016 90.174908 
L 254.10528 116.5218 
L 254.19456 94.980952 
L 254.37312 116.545087 
L 254.4624 98.557184 
L 254.55168 129.088455 
L 254.73024 104.477292 
L 254.81952 111.793176 
L 254.9088 133.850907 
L 254.99808 114.833995 
L 255.08736 131.406045 
L 255.26592 113.102209 
L 255.3552 117.913395 
L 255.44448 70.323676 
L 255.62304 134.163812 
L 255.98016 82.801027 
L 256.06944 113.506121 
L 256.15872 103.728815 
L 256.248 118.917013 
L 256.33728 105.527413 
L 256.42656 115.135202 
L 256.51584 138.804813 
L 256.60512 108.933543 
L 256.6944 127.837188 
L 256.78368 108.330445 
L 256.87296 118.256664 
L 256.96224 111.349428 
L 257.05152 118.303329 
L 257.1408 118.154221 
L 257.49792 89.74626 
L 257.5872 108.851091 
L 257.67648 107.312782 
L 257.76576 119.91987 
L 257.94432 98.400655 
L 258.0336 118.072271 
L 258.21216 105.029491 
L 258.30144 120.163911 
L 258.48 99.413292 
L 258.56928 88.90437 
L 258.65856 109.688055 
L 258.74784 105.165112 
L 258.83712 96.895954 
L 258.9264 103.604135 
L 259.01568 95.405961 
L 259.10496 103.299689 
L 259.19424 127.28876 
L 259.28352 104.362589 
L 259.3728 133.037057 
L 259.46208 115.406395 
L 259.55136 117.504792 
L 259.64064 103.327538 
L 259.8192 136.469537 
L 259.90848 97.644822 
L 259.99776 134.412284 
L 260.08704 92.872604 
L 260.17632 98.605507 
L 260.35488 113.719292 
L 260.44416 108.416783 
L 260.53344 118.205327 
L 260.62272 98.717964 
L 260.712 110.467283 
L 260.80128 109.797409 
L 261.06912 125.551518 
L 261.1584 127.083129 
L 261.24768 144.110658 
L 261.42624 94.483841 
L 261.6048 132.766496 
L 261.69408 101.253242 
L 261.87264 140.453604 
L 262.14048 95.994173 
L 262.22976 97.836135 
L 262.40832 137.523177 
L 262.4976 94.501374 
L 262.58688 124.074424 
L 262.76544 97.737769 
L 262.944 121.28124 
L 263.12256 108.009311 
L 263.21184 109.859644 
L 263.30112 125.776322 
L 263.47968 118.428083 
L 263.56896 88.226577 
L 263.74752 125.29199 
L 263.8368 109.248363 
L 263.92608 109.769002 
L 264.01536 117.098109 
L 264.10464 107.011622 
L 264.19392 107.89541 
L 264.37248 127.164404 
L 264.46176 108.148364 
L 264.55104 108.720468 
L 264.64032 104.184235 
L 264.7296 114.999461 
L 264.81888 110.41422 
L 264.90816 115.073698 
L 265.08672 88.54428 
L 265.35456 126.532441 
L 265.44384 91.135252 
L 265.53312 107.449701 
L 265.6224 95.921674 
L 265.89024 113.005555 
L 265.97952 101.261756 
L 266.0688 122.658057 
L 266.24736 100.57024 
L 266.33664 104.115437 
L 266.5152 125.022218 
L 266.60448 122.431252 
L 266.87232 97.097484 
L 266.9616 98.479556 
L 267.22944 155.27848 
L 267.408 94.76669 
L 267.58656 126.772369 
L 267.67584 102.288379 
L 267.76512 120.840757 
L 267.8544 119.135482 
L 267.94368 120.385548 
L 268.03296 131.709379 
L 268.21152 101.001352 
L 268.39008 106.89029 
L 268.47936 102.741306 
L 268.56864 109.673149 
L 268.65792 94.164062 
L 268.83648 105.963335 
L 268.92576 97.154441 
L 269.10432 103.077028 
L 269.1936 113.19741 
L 269.28288 110.472813 
L 269.37216 121.395893 
L 269.46144 88.372028 
L 269.64 114.42999 
L 269.81856 107.549123 
L 269.90784 115.31186 
L 269.99712 84.257392 
L 270.0864 107.345166 
L 270.26496 88.440931 
L 270.35424 124.725287 
L 270.44352 89.809533 
L 270.5328 124.174377 
L 270.62208 99.062853 
L 270.80064 126.703291 
L 271.06848 102.056958 
L 271.15776 115.314446 
L 271.24704 114.766572 
L 271.4256 105.869754 
L 271.51488 84.694727 
L 271.69344 100.329653 
L 271.872 96.544555 
L 271.96128 116.799501 
L 272.13984 101.9432 
L 272.40768 119.816325 
L 272.58624 97.140114 
L 272.67552 117.126434 
L 272.94336 87.863087 
L 273.03264 86.678012 
L 273.12192 135.626654 
L 273.30048 106.873811 
L 273.38976 97.05844 
L 273.47904 114.651845 
L 273.56832 105.033681 
L 273.6576 111.737122 
L 273.83616 91.651752 
L 274.01472 119.585474 
L 274.104 94.689815 
L 274.19328 119.726972 
L 274.37184 98.362611 
L 274.5504 115.567631 
L 274.81824 94.740724 
L 275.08608 123.203684 
L 275.26464 100.932193 
L 275.35392 102.470558 
L 275.4432 94.814763 
L 275.53248 121.834043 
L 275.62176 120.402688 
L 275.8896 96.198082 
L 275.97888 89.915194 
L 276.06816 99.951496 
L 276.15744 98.66561 
L 276.336 117.404151 
L 276.42528 112.125981 
L 276.60384 94.37293 
L 276.69312 121.952271 
L 276.7824 99.191891 
L 276.87168 112.398178 
L 276.96096 97.902571 
L 277.05024 98.853306 
L 277.13952 116.298788 
L 277.2288 97.592421 
L 277.31808 103.697699 
L 277.40736 102.535779 
L 277.49664 104.071446 
L 277.58592 129.083988 
L 277.6752 125.958894 
L 277.94304 87.541888 
L 278.03232 95.257928 
L 278.1216 91.002412 
L 278.21088 132.186318 
L 278.38944 100.153937 
L 278.47872 98.706247 
L 278.568 92.012146 
L 278.74656 128.390521 
L 278.83584 90.531037 
L 279.0144 109.614938 
L 279.10368 108.392574 
L 279.19296 109.394689 
L 279.28224 81.729147 
L 279.37152 131.42873 
L 279.4608 120.022657 
L 279.63936 84.008567 
L 279.81792 128.485243 
L 279.9072 114.34562 
L 279.99648 114.247817 
L 280.08576 125.840535 
L 280.17504 97.764933 
L 280.26432 101.845637 
L 280.44288 97.877567 
L 280.62144 106.02411 
L 280.71072 131.615153 
L 280.8 81.82729 
L 281.06784 125.870706 
L 281.15712 133.375892 
L 281.33568 98.460483 
L 281.42496 99.935537 
L 281.51424 94.888266 
L 281.6928 119.107673 
L 281.96064 90.067613 
L 282.04992 101.356995 
L 282.1392 94.451833 
L 282.40704 115.754511 
L 282.49632 85.019854 
L 282.5856 112.730486 
L 282.76416 86.963562 
L 282.85344 127.471054 
L 283.032 94.888762 
L 283.12128 106.311912 
L 283.21056 93.751032 
L 283.29984 117.393646 
L 283.38912 97.765666 
L 283.4784 101.650665 
L 283.65696 116.931546 
L 283.74624 81.102107 
L 283.83552 84.328001 
L 283.9248 91.380624 
L 284.10336 119.794111 
L 284.19264 100.318976 
L 284.28192 103.188086 
L 284.3712 100.491577 
L 284.46048 87.497771 
L 284.72832 105.084304 
L 284.8176 144.145515 
L 284.90688 99.68866 
L 284.99616 114.81544 
L 285.08544 85.286216 
L 285.17472 125.198321 
L 285.35328 98.090961 
L 285.44256 105.812158 
L 285.53184 97.276833 
L 285.7104 126.478701 
L 285.97824 96.254123 
L 286.06752 98.796349 
L 286.1568 104.746731 
L 286.24608 90.315562 
L 286.42464 134.889448 
L 286.51392 103.013216 
L 286.6032 113.046975 
L 286.69248 95.366869 
L 286.78176 113.82223 
L 287.0496 91.308558 
L 287.13888 93.168925 
L 287.31744 111.907701 
L 287.40672 101.782133 
L 287.58528 117.066553 
L 287.67456 98.399061 
L 287.76384 125.179882 
L 287.85312 89.854949 
L 287.9424 125.731979 
L 288.03168 83.454603 
L 288.29952 120.28486 
L 288.3888 92.637234 
L 288.65664 117.26879 
L 288.74592 108.447238 
L 288.8352 131.656422 
L 289.01376 100.725579 
L 289.10304 103.273464 
L 289.19232 95.303197 
L 289.2816 128.182388 
L 289.46016 88.801822 
L 289.63872 113.354668 
L 289.728 119.03026 
L 289.81728 91.813503 
L 289.90656 113.871959 
L 289.99584 73.823428 
L 290.1744 108.494611 
L 290.26368 99.673911 
L 290.35296 120.65055 
L 290.44224 99.576781 
L 290.53152 99.953866 
L 290.6208 95.766705 
L 290.79936 102.790181 
L 290.88864 121.354092 
L 290.97792 72.843864 
L 291.15648 136.821311 
L 291.33504 96.16529 
L 291.5136 119.077658 
L 291.60288 111.612083 
L 291.78144 135.406852 
L 291.87072 90.246442 
L 291.96 122.058149 
L 292.04928 100.018884 
L 292.13856 108.058027 
L 292.22784 104.662358 
L 292.31712 110.355644 
L 292.4064 99.666127 
L 292.49568 132.649726 
L 292.67424 97.134146 
L 292.8528 112.275117 
L 293.03136 104.856993 
L 293.12064 112.788456 
L 293.20992 90.411492 
L 293.38848 107.805483 
L 293.56704 90.816189 
L 293.7456 118.076572 
L 293.83488 107.137603 
L 293.92416 124.466657 
L 294.10272 97.997319 
L 294.192 99.408154 
L 294.28128 107.227414 
L 294.45984 99.030088 
L 294.54912 101.569853 
L 294.6384 111.055635 
L 294.81696 80.342857 
L 295.0848 103.43764 
L 295.17408 115.70437 
L 295.26336 109.749344 
L 295.35264 116.05083 
L 295.44192 103.195941 
L 295.5312 118.311624 
L 295.62048 100.076528 
L 295.70976 112.426756 
L 295.79904 93.562285 
L 295.88832 124.298274 
L 295.9776 117.104092 
L 296.06688 138.448061 
L 296.24544 98.965382 
L 296.33472 104.345703 
L 296.424 104.192305 
L 296.51328 86.61062 
L 296.8704 109.546461 
L 296.95968 110.412531 
L 297.04896 99.883288 
L 297.13824 118.086072 
L 297.22752 114.406944 
L 297.3168 115.121652 
L 297.49536 100.006759 
L 297.58464 118.484953 
L 297.85248 95.995342 
L 298.03104 106.708214 
L 298.12032 108.712004 
L 298.29888 96.759986 
L 298.38816 128.209551 
L 298.47744 88.661276 
L 298.56672 148.648777 
L 298.74528 94.487702 
L 298.83456 98.030564 
L 298.92384 121.161582 
L 299.01312 92.231182 
L 299.1024 97.884981 
L 299.19168 111.615624 
L 299.28096 83.817333 
L 299.37024 120.697183 
L 299.45952 107.405567 
L 299.5488 114.286133 
L 299.63808 89.562791 
L 299.90592 119.970608 
L 300.08448 104.228071 
L 300.17376 113.562815 
L 300.26304 94.639266 
L 300.35232 98.400819 
L 300.4416 114.635491 
L 300.53088 108.938365 
L 300.62016 86.878636 
L 300.70944 96.740909 
L 300.79872 120.682578 
L 300.97728 101.000443 
L 301.06656 112.923023 
L 301.24512 79.073583 
L 301.3344 114.378233 
L 301.42368 112.343931 
L 301.51296 91.233105 
L 301.60224 97.567546 
L 301.69152 97.00367 
L 301.7808 99.303883 
L 301.95936 150.061945 
L 302.2272 82.094839 
L 302.31648 97.16842 
L 302.40576 83.021424 
L 302.49504 89.396021 
L 302.6736 118.015856 
L 302.76288 94.204157 
L 302.85216 124.774855 
L 302.94144 117.227259 
L 303.03072 93.344201 
L 303.12 100.78393 
L 303.20928 90.609453 
L 303.29856 91.191836 
L 303.38784 124.427236 
L 303.5664 91.311696 
L 303.74496 112.767846 
L 303.83424 117.692417 
L 303.92352 99.332203 
L 304.0128 115.119254 
L 304.10208 112.762277 
L 304.28064 102.047373 
L 304.36992 153.832242 
L 304.54848 99.873363 
L 304.63776 113.893216 
L 304.72704 87.462483 
L 304.81632 107.65866 
L 304.9056 88.786259 
L 304.99488 104.821989 
L 305.08416 96.410841 
L 305.352 110.404371 
L 305.44128 95.559974 
L 305.53056 108.685558 
L 305.61984 91.338748 
L 305.70912 115.529283 
L 305.7984 78.763788 
L 305.97696 101.330402 
L 306.06624 80.379514 
L 306.2448 141.441391 
L 306.33408 102.116311 
L 306.42336 113.986966 
L 306.60192 94.203509 
L 306.6912 127.993766 
L 306.78048 89.548657 
L 306.86976 107.914584 
L 306.95904 81.906305 
L 307.22688 107.107193 
L 307.31616 98.420348 
L 307.40544 71.429632 
L 307.49472 110.356518 
L 307.584 108.329931 
L 307.67328 89.612119 
L 307.76256 106.167379 
L 307.85184 92.852927 
L 307.94112 113.245724 
L 308.0304 110.149806 
L 308.20896 96.301602 
L 308.38752 105.133623 
L 308.4768 111.539739 
L 308.65536 89.342508 
L 308.74464 102.901933 
L 309.01248 78.635654 
L 309.10176 113.247802 
L 309.19104 110.781131 
L 309.28032 91.650368 
L 309.3696 99.919192 
L 309.45888 99.134343 
L 309.54816 95.304461 
L 309.63744 102.824882 
L 309.72672 89.481256 
L 309.90528 118.159342 
L 310.17312 90.347899 
L 310.2624 100.563399 
L 310.35168 88.270886 
L 310.61952 111.008401 
L 310.7088 86.042797 
L 310.79808 114.194628 
L 310.88736 90.670097 
L 310.97664 100.670555 
L 311.06592 96.07575 
L 311.1552 83.629376 
L 311.24448 112.20504 
L 311.33376 104.884582 
L 311.42304 84.900522 
L 311.6016 109.118875 
L 311.69088 90.812632 
L 311.78016 92.177374 
L 311.86944 103.206187 
L 311.95872 99.589008 
L 312.048 90.512447 
L 312.22656 97.554111 
L 312.31584 87.573655 
L 312.40512 98.185089 
L 312.4944 127.01345 
L 312.58368 76.613972 
L 312.76224 96.913461 
L 312.9408 85.768168 
L 313.03008 110.56926 
L 313.11936 81.302184 
L 313.20864 108.209864 
L 313.29792 82.299694 
L 313.3872 101.136054 
L 313.47648 89.829709 
L 313.56576 92.362949 
L 313.74432 138.225346 
L 313.8336 82.189602 
L 313.92288 98.324387 
L 314.01216 97.18905 
L 314.10144 99.171541 
L 314.19072 106.305835 
L 314.36928 84.005583 
L 314.45856 106.853157 
L 314.54784 91.382768 
L 314.63712 110.81021 
L 314.7264 95.597304 
L 314.81568 101.695636 
L 314.90496 80.783762 
L 314.99424 86.22238 
L 315.1728 139.797008 
L 315.26208 101.574509 
L 315.35136 111.002315 
L 315.52992 96.830458 
L 315.6192 97.365483 
L 315.70848 115.930698 
L 316.0656 82.622774 
L 316.15488 101.10678 
L 316.24416 98.548736 
L 316.33344 112.98572 
L 316.42272 106.416099 
L 316.512 121.152902 
L 316.60128 85.735645 
L 316.77984 105.655735 
L 316.86912 84.95408 
L 316.9584 96.533512 
L 317.04768 84.211394 
L 317.13696 97.773378 
L 317.22624 95.584414 
L 317.31552 100.660764 
L 317.49408 84.163176 
L 317.58336 115.001388 
L 317.67264 99.587857 
L 317.76192 124.033368 
L 317.94048 95.469759 
L 318.02976 100.961481 
L 318.11904 90.665728 
L 318.2976 104.451517 
L 318.38688 86.43403 
L 318.47616 98.780258 
L 318.56544 96.040285 
L 318.65472 104.330985 
L 318.744 90.865425 
L 318.83328 93.65307 
L 318.92256 110.789314 
L 319.01184 83.661409 
L 319.1904 104.682006 
L 319.27968 116.528455 
L 319.45824 98.242243 
L 319.54752 79.501165 
L 319.6368 126.257973 
L 319.90464 74.642753 
L 319.99392 125.278839 
L 320.17248 89.316844 
L 320.26176 83.618175 
L 320.35104 99.772236 
L 320.44032 90.052538 
L 320.61888 116.719935 
L 320.70816 102.1347 
L 320.79744 111.433502 
L 320.88672 90.867546 
L 320.976 104.565677 
L 321.24384 84.755182 
L 321.33312 89.314465 
L 321.4224 96.635652 
L 321.51168 120.935172 
L 321.60096 84.54025 
L 321.69024 89.812487 
L 321.77952 90.320355 
L 321.8688 122.93563 
L 322.04736 96.397743 
L 322.13664 122.379838 
L 322.22592 110.810355 
L 322.3152 73.288584 
L 322.49376 100.408561 
L 322.58304 84.159603 
L 322.67232 97.668009 
L 322.7616 90.065099 
L 322.85088 91.24833 
L 322.94016 100.363847 
L 323.11872 95.93106 
L 323.208 98.412005 
L 323.29728 113.270747 
L 323.38656 90.289101 
L 323.47584 103.279404 
L 323.56512 77.118117 
L 323.74368 101.115933 
L 323.83296 82.097015 
L 323.92224 86.707607 
L 324.01152 105.388935 
L 324.1008 79.89306 
L 324.19008 112.956073 
L 324.36864 98.335309 
L 324.45792 97.935702 
L 324.63648 92.582479 
L 324.81504 97.089083 
L 324.90432 94.248012 
L 324.9936 105.85829 
L 325.17216 80.076591 
L 325.26144 116.841199 
L 325.35072 86.238212 
L 325.44 101.149952 
L 325.61856 83.66855 
L 325.79712 98.905343 
L 325.8864 91.629408 
L 325.97568 103.705649 
L 326.15424 93.82631 
L 326.24352 117.341041 
L 326.42208 74.918196 
L 326.68992 100.556685 
L 326.7792 94.053317 
L 326.86848 107.471271 
L 326.95776 88.867984 
L 327.04704 123.383481 
L 327.13632 81.014052 
L 327.40416 113.653283 
L 327.58272 86.053992 
L 327.672 99.976958 
L 327.85056 81.107781 
L 328.02912 90.75409 
L 328.1184 88.835756 
L 328.20768 114.576096 
L 328.29696 89.166054 
L 328.38624 118.854299 
L 328.47552 113.519557 
L 328.5648 116.223071 
L 328.65408 108.933357 
L 328.74336 85.575331 
L 328.83264 89.183046 
L 328.92192 90.433699 
L 329.0112 101.32008 
L 329.18976 95.087947 
L 329.27904 102.18596 
L 329.36832 93.684138 
L 329.4576 99.355808 
L 329.54688 119.035754 
L 329.63616 97.394561 
L 329.72544 108.565861 
L 329.904 65.824885 
L 329.99328 103.207328 
L 330.08256 85.887285 
L 330.26112 96.122313 
L 330.3504 96.326518 
L 330.52896 82.916121 
L 330.7968 111.048182 
L 330.88608 95.706174 
L 330.97536 113.603848 
L 331.06464 99.878414 
L 331.15392 112.528748 
L 331.33248 87.351683 
L 331.42176 91.425814 
L 331.60032 117.136179 
L 331.77888 96.167629 
L 331.86816 87.204808 
L 331.95744 91.124371 
L 332.04672 76.492623 
L 332.136 94.934423 
L 332.22528 86.777658 
L 332.31456 99.136629 
L 332.40384 89.501441 
L 332.49312 89.917836 
L 332.5824 86.148971 
L 332.67168 95.511582 
L 332.76096 81.083798 
L 332.85024 115.580492 
L 333.0288 88.567561 
L 333.11808 102.649526 
L 333.20736 87.736624 
L 333.29664 94.22281 
L 333.38592 90.658113 
L 333.4752 95.249915 
L 333.56448 120.481852 
L 333.65376 97.341863 
L 333.74304 110.445632 
L 333.83232 81.395602 
L 333.9216 108.165807 
L 334.01088 87.01612 
L 334.10016 117.38396 
L 334.18944 92.912341 
L 334.27872 100.131271 
L 334.368 94.98739 
L 334.45728 104.331614 
L 334.54656 100.608724 
L 334.63584 106.477283 
L 334.8144 98.373032 
L 334.90368 99.964473 
L 334.99296 105.503252 
L 335.08224 90.505037 
L 335.17152 96.172228 
L 335.2608 93.146102 
L 335.7072 110.646423 
L 335.79648 87.706953 
L 336.1536 137.594779 
L 336.24288 84.351105 
L 336.33216 113.748703 
L 336.42144 97.11993 
L 336.51072 133.817126 
L 336.77856 82.678546 
L 336.86784 109.807777 
L 336.95712 88.333279 
L 337.0464 112.925677 
L 337.13568 103.290351 
L 337.22496 109.901491 
L 337.40352 83.975834 
L 337.4928 111.909762 
L 337.58208 97.250909 
L 337.76064 104.065632 
L 337.84992 103.199804 
L 338.02848 97.388284 
L 338.11776 118.592496 
L 338.29632 85.465984 
L 338.47488 102.341731 
L 338.56416 99.026819 
L 338.65344 99.931407 
L 338.74272 115.58295 
L 338.92128 103.958005 
L 339.01056 106.406433 
L 339.09984 119.617255 
L 339.18912 91.654119 
L 339.2784 94.805728 
L 339.36768 80.328579 
L 339.45696 118.240041 
L 339.63552 80.459709 
L 339.7248 115.891246 
L 339.90336 86.372825 
L 339.99264 120.329342 
L 340.08192 94.551668 
L 340.1712 98.792123 
L 340.34976 108.721958 
L 340.43904 89.650625 
L 340.52832 96.801076 
L 340.6176 92.640653 
L 340.70688 82.98605 
L 340.79616 98.436565 
L 340.88544 93.341262 
L 340.97472 75.851009 
L 341.15328 107.239468 
L 341.42112 84.778686 
L 341.5104 115.604098 
L 341.68896 81.336083 
L 341.77824 100.521628 
L 341.9568 84.140414 
L 342.04608 100.314701 
L 342.13536 78.905593 
L 342.4032 108.215632 
L 342.49248 90.727444 
L 342.58176 104.881332 
L 342.8496 82.068234 
L 342.93888 85.125947 
L 343.11744 114.491261 
L 343.296 107.994563 
L 343.38528 87.387354 
L 343.56384 135.565253 
L 343.7424 84.01644 
L 343.83168 104.560698 
L 343.92096 88.092458 
L 344.01024 94.950327 
L 344.09952 119.980277 
L 344.1888 89.074079 
L 344.36736 106.642654 
L 344.45664 100.449222 
L 344.54592 122.561836 
L 344.72448 81.410204 
L 344.81376 108.788158 
L 344.90304 97.591003 
L 344.99232 103.34448 
L 345.0816 83.897234 
L 345.17088 99.493727 
L 345.26016 88.69936 
L 345.34944 115.323069 
L 345.528 97.862973 
L 345.61728 102.419494 
L 345.70656 87.500847 
L 345.79584 103.134559 
L 345.88512 95.023282 
L 345.9744 95.797272 
L 346.06368 90.752104 
L 346.15296 120.898175 
L 346.33152 87.85944 
L 346.59936 130.230786 
L 346.77792 83.227409 
L 346.8672 100.146558 
L 346.95648 91.727027 
L 347.04576 102.36883 
L 347.22432 80.173606 
L 347.40288 111.480153 
L 347.49216 103.431193 
L 347.58144 114.82153 
L 347.67072 90.751907 
L 347.76 103.52311 
L 347.84928 95.62819 
L 348.02784 107.380883 
L 348.11712 101.117841 
L 348.2064 101.17655 
L 348.29568 100.725419 
L 348.38496 109.329194 
L 348.47424 108.01201 
L 348.56352 102.451649 
L 348.6528 87.360376 
L 348.83136 108.866083 
L 348.92064 91.865428 
L 349.00992 99.889015 
L 349.0992 91.46534 
L 349.18848 96.268071 
L 349.27776 89.67699 
L 349.36704 97.52915 
L 349.45632 91.486171 
L 349.63488 109.197315 
L 349.72416 85.808505 
L 349.81344 97.062592 
L 349.992 83.851434 
L 350.08128 115.206831 
L 350.17056 91.844434 
L 350.25984 106.350362 
L 350.34912 83.960602 
L 350.4384 87.536286 
L 350.52768 91.978775 
L 350.61696 128.904635 
L 350.8848 79.699274 
L 351.06336 98.508625 
L 351.15264 82.458136 
L 351.24192 94.936602 
L 351.3312 85.466128 
L 351.59904 124.478171 
L 351.7776 90.271386 
L 351.86688 104.093184 
L 351.95616 76.961305 
L 352.04544 81.013016 
L 352.224 96.111694 
L 352.31328 73.772935 
L 352.40256 94.738791 
L 352.49184 83.664359 
L 352.6704 92.640099 
L 352.84896 74.212341 
L 353.02752 98.090251 
L 353.29536 90.50827 
L 353.38464 102.304456 
L 353.47392 87.336282 
L 353.5632 87.935158 
L 353.65248 96.592473 
L 353.74176 91.090573 
L 353.92032 105.815199 
L 354.0096 90.331398 
L 354.09888 90.455335 
L 354.18816 90.046271 
L 354.27744 102.811032 
L 354.36672 99.054586 
L 354.54528 80.814231 
L 354.63456 98.236701 
L 354.72384 93.276322 
L 354.81312 98.109437 
L 354.9024 85.827283 
L 354.99168 112.053835 
L 355.25952 85.108824 
L 355.3488 115.290344 
L 355.43808 77.690019 
L 355.52736 90.367755 
L 355.61664 73.448143 
L 355.88448 98.845071 
L 355.97376 73.838593 
L 356.15232 90.595698 
L 356.2416 116.15904 
L 356.42016 103.00785 
L 356.50944 113.546532 
L 356.59872 92.766024 
L 356.688 100.660815 
L 356.77728 95.324459 
L 356.86656 121.167884 
L 356.95584 114.589567 
L 357.04512 80.755387 
L 357.1344 88.146843 
L 357.22368 85.253736 
L 357.31296 104.200112 
L 357.40224 95.099004 
L 357.49152 120.495987 
L 357.67008 93.807305 
L 357.75936 82.68255 
L 357.84864 83.17373 
L 357.93792 85.25584 
L 358.0272 92.195041 
L 358.11648 82.376522 
L 358.20576 102.011362 
L 358.29504 100.776846 
L 358.4736 87.627381 
L 358.56288 117.567703 
L 358.74144 85.458724 
L 358.83072 103.074239 
L 358.92 73.575179 
L 359.00928 96.596078 
L 359.09856 90.776049 
L 359.18784 95.435834 
L 359.27712 78.816655 
L 359.45568 109.235141 
L 359.54496 102.779028 
L 359.63424 105.15736 
L 359.72352 123.413672 
L 359.90208 86.261958 
L 359.99136 86.254481 
L 360.08064 71.482369 
L 360.16992 105.717844 
L 360.34848 89.03322 
L 360.43776 117.098005 
L 360.61632 85.105418 
L 360.7056 108.093026 
L 360.79488 95.407175 
L 360.97344 108.719195 
L 361.06272 91.235236 
L 361.152 111.871506 
L 361.24128 89.498956 
L 361.33056 116.304674 
L 361.50912 103.728631 
L 361.5984 106.765727 
L 361.68768 91.610037 
L 361.77696 94.994645 
L 361.86624 105.267557 
L 362.0448 88.501438 
L 362.22336 110.397346 
L 362.31264 99.586587 
L 362.40192 110.678521 
L 362.58048 73.231394 
L 362.66976 113.305903 
L 362.84832 88.169553 
L 362.9376 105.203285 
L 363.11616 85.178884 
L 363.29472 100.92472 
L 363.384 90.210728 
L 363.47328 97.836134 
L 363.56256 95.609615 
L 363.65184 118.343761 
L 363.74112 88.670341 
L 363.8304 95.908794 
L 363.91968 107.278602 
L 364.09824 87.762359 
L 364.18752 98.402869 
L 364.2768 82.917873 
L 364.36608 101.783093 
L 364.45536 96.928049 
L 364.54464 113.772865 
L 364.63392 94.871243 
L 364.7232 107.214629 
L 364.99104 85.368803 
L 365.08032 91.072166 
L 365.25888 127.555756 
L 365.34816 70.815249 
L 365.616 109.100823 
L 365.79456 82.68355 
L 366.0624 109.31231 
L 366.15168 94.05548 
L 366.24096 112.727541 
L 366.41952 88.113041 
L 366.59808 99.673171 
L 366.68736 99.589497 
L 366.77664 88.349784 
L 366.86592 104.913469 
L 366.9552 91.63131 
L 367.13376 108.069414 
L 367.31232 78.4798 
L 367.4016 102.21018 
L 367.49088 101.211864 
L 367.58016 77.509543 
L 367.75872 101.437216 
L 367.93728 87.09193 
L 368.11584 94.91709 
L 368.20512 84.078486 
L 368.2944 106.715213 
L 368.47296 83.625086 
L 368.65152 105.895278 
L 368.91936 81.628708 
L 369.09792 95.904825 
L 369.1872 84.518539 
L 369.27648 97.809299 
L 369.36576 90.028093 
L 369.45504 108.999779 
L 369.54432 88.506783 
L 369.72288 98.451907 
L 369.90144 83.009087 
L 370.08 103.190295 
L 370.34784 84.253637 
L 370.43712 86.658405 
L 370.61568 110.007322 
L 370.70496 77.982865 
L 370.79424 83.848955 
L 370.88352 89.922205 
L 370.9728 82.58806 
L 371.15136 107.720247 
L 371.24064 98.561219 
L 371.4192 103.575431 
L 371.59776 83.608674 
L 371.68704 95.755078 
L 371.77632 93.983599 
L 371.8656 94.608211 
L 371.95488 102.743651 
L 372.04416 97.602076 
L 372.22272 104.332726 
L 372.40128 93.648603 
L 372.49056 88.570332 
L 372.66912 95.216207 
L 372.7584 84.228178 
L 372.84768 101.842686 
L 372.93696 88.373875 
L 373.02624 108.295201 
L 373.11552 90.021004 
L 373.2048 123.15467 
L 373.29408 100.140206 
L 373.38336 104.925513 
L 373.56192 90.235598 
L 373.6512 83.277001 
L 373.82976 103.782756 
L 373.91904 101.218648 
L 374.00832 102.50632 
L 374.18688 100.692913 
L 374.27616 104.891025 
L 374.36544 81.566496 
L 374.45472 95.115531 
L 374.544 93.064717 
L 374.63328 87.848217 
L 374.72256 105.009825 
L 374.81184 80.665667 
L 375.07968 109.296839 
L 375.16896 81.097346 
L 375.25824 101.012115 
L 375.34752 83.424911 
L 375.4368 88.112069 
L 375.52608 79.030278 
L 375.70464 99.167847 
L 375.8832 90.710614 
L 375.97248 94.032573 
L 376.06176 80.489329 
L 376.24032 114.725022 
L 376.41888 98.293234 
L 376.50816 97.636015 
L 376.68672 82.451015 
L 376.776 92.67895 
L 376.86528 91.633219 
L 376.95456 87.769962 
L 377.04384 103.856151 
L 377.2224 86.061401 
L 377.31168 102.005394 
L 377.40096 78.605297 
L 377.49024 103.544213 
L 377.57952 91.396859 
L 377.75808 116.385407 
L 377.84736 85.391921 
L 377.93664 88.060998 
L 378.1152 97.909065 
L 378.20448 80.125919 
L 378.38304 94.621158 
L 378.47232 86.00805 
L 378.5616 86.580604 
L 378.65088 84.67595 
L 378.82944 90.138915 
L 378.91872 93.519601 
L 379.008 74.144857 
L 379.18656 104.371955 
L 379.27584 93.447406 
L 379.36512 104.360559 
L 379.4544 81.612579 
L 379.54368 96.371422 
L 379.72224 76.794389 
L 379.9008 93.44718 
L 379.99008 71.854177 
L 380.07936 73.864422 
L 380.16864 75.57353 
L 380.3472 105.310155 
L 380.43648 109.024799 
L 380.52576 96.09579 
L 380.61504 109.751304 
L 380.70432 109.534797 
L 380.88288 82.095462 
L 380.97216 90.546078 
L 381.06144 87.490172 
L 381.15072 88.808886 
L 381.24 96.748101 
L 381.32928 86.424727 
L 381.41856 104.090925 
L 381.50784 91.04434 
L 381.59712 93.233787 
L 381.6864 91.428973 
L 381.77568 109.548564 
L 381.86496 79.358836 
L 381.95424 89.874271 
L 382.04352 87.071344 
L 382.1328 80.09814 
L 382.22208 105.773474 
L 382.31136 82.390001 
L 382.40064 91.014872 
L 382.48992 82.621655 
L 382.5792 100.02556 
L 382.66848 92.582779 
L 382.75776 98.882128 
L 382.84704 79.322226 
L 382.93632 85.440169 
L 383.0256 110.281199 
L 383.11488 71.333655 
L 383.20416 84.632102 
L 383.29344 81.208191 
L 383.38272 95.067213 
L 383.472 88.772926 
L 383.56128 92.093491 
L 383.65056 75.189715 
L 383.73984 97.072537 
L 383.82912 81.149966 
L 384.00768 99.02935 
L 384.09696 93.865523 
L 384.18624 91.1308 
L 384.27552 97.630029 
L 384.3648 90.818253 
L 384.45408 94.628723 
L 384.54336 83.169977 
L 384.63264 91.326966 
L 384.72192 81.317564 
L 384.90048 120.041177 
L 385.07904 89.974605 
L 385.16832 106.570853 
L 385.2576 94.460193 
L 385.34688 111.713176 
L 385.43616 84.301284 
L 385.52544 127.059144 
L 385.61472 85.751748 
L 385.704 103.078585 
L 385.79328 80.526657 
L 385.97184 97.406852 
L 386.06112 93.795448 
L 386.1504 98.211623 
L 386.32896 82.545264 
L 386.41824 87.035434 
L 386.50752 83.842312 
L 386.5968 91.559397 
L 386.68608 89.54128 
L 386.77536 84.139937 
L 386.86464 102.381424 
L 386.95392 101.798025 
L 387.13248 82.063583 
L 387.22176 100.488856 
L 387.40032 77.782696 
L 387.4896 66.419647 
L 387.84672 93.611356 
L 387.936 86.639814 
L 388.11456 101.590847 
L 388.20384 98.272098 
L 388.3824 88.848306 
L 388.56096 76.145056 
L 388.65024 104.75041 
L 388.91808 75.024592 
L 389.00736 91.622126 
L 389.09664 79.095913 
L 389.18592 86.212566 
L 389.2752 83.567854 
L 389.36448 95.558988 
L 389.45376 78.18936 
L 389.54304 82.69663 
L 389.63232 130.862929 
L 389.90016 83.645246 
L 389.98944 94.856896 
L 390.168 77.703248 
L 390.34656 103.832263 
L 390.43584 91.594742 
L 390.52512 109.148787 
L 390.6144 82.666444 
L 390.79296 91.138947 
L 390.88224 95.417655 
L 391.0608 77.567797 
L 391.15008 80.409182 
L 391.23936 75.997377 
L 391.32864 78.219044 
L 391.41792 100.140338 
L 391.5072 83.181846 
L 391.77504 115.545207 
L 391.9536 71.654427 
L 392.04288 63.648 
L 392.31072 108.082327 
L 392.48928 76.007715 
L 392.57856 104.444378 
L 392.66784 88.261611 
L 392.75712 98.424516 
L 392.93568 80.029089 
L 393.02496 76.15813 
L 393.11424 94.811128 
L 393.20352 93.748388 
L 393.2928 95.284418 
L 393.38208 86.392078 
L 393.47136 86.487073 
L 393.56064 83.43279 
L 393.7392 97.5912 
L 393.82848 92.855901 
L 394.00704 77.605094 
L 394.09632 88.196151 
L 394.1856 67.852766 
L 394.27488 93.174207 
L 394.36416 81.48627 
L 394.45344 93.590771 
L 394.54272 76.294385 
L 394.632 101.558853 
L 394.72128 96.107269 
L 394.81056 112.162533 
L 394.89984 82.458351 
L 394.98912 85.379609 
L 395.0784 96.755791 
L 395.16768 91.896456 
L 395.25696 104.559776 
L 395.5248 73.992859 
L 395.61408 101.627598 
L 395.70336 94.877684 
L 395.79264 91.528787 
L 395.88192 92.407715 
L 395.9712 85.853631 
L 396.06048 111.304467 
L 396.23904 75.846027 
L 396.32832 65.426272 
L 396.50688 94.807574 
L 396.59616 92.134091 
L 396.68544 92.369922 
L 396.77472 111.959324 
L 396.864 74.100102 
L 397.04256 99.081837 
L 397.13184 101.318051 
L 397.3104 83.354559 
L 397.39968 80.493826 
L 397.66752 95.464626 
L 397.7568 90.170437 
L 397.84608 67.835932 
L 397.93536 105.49703 
L 398.11392 95.049855 
L 398.2032 92.035303 
L 398.29248 111.242347 
L 398.38176 78.823006 
L 398.47104 82.741918 
L 398.56032 94.469912 
L 398.6496 81.30755 
L 398.73888 114.157093 
L 399.00672 79.63752 
L 399.096 89.560846 
L 399.18528 88.004958 
L 399.27456 68.695474 
L 399.45312 96.810638 
L 399.63168 110.176958 
L 399.72096 107.31469 
L 399.81024 75.769802 
L 399.9888 109.322468 
L 400.07808 77.3981 
L 400.25664 92.834759 
L 400.34592 88.781934 
L 400.4352 110.864175 
L 400.61376 68.91137 
L 400.79232 86.464887 
L 400.8816 79.922522 
L 400.97088 104.004844 
L 401.23872 77.598126 
L 401.41728 101.270127 
L 401.50656 81.408872 
L 401.59584 92.156686 
L 401.68512 77.567199 
L 401.7744 94.713383 
L 401.86368 79.422043 
L 402.13152 98.786191 
L 402.31008 75.088119 
L 402.39936 77.350639 
L 402.48864 97.677721 
L 402.6672 78.101273 
L 402.75648 103.736911 
L 402.84576 102.798463 
L 402.93504 84.169526 
L 403.1136 99.536029 
L 403.20288 112.771847 
L 403.29216 72.732664 
L 403.38144 111.558868 
L 403.47072 101.161563 
L 403.56 125.684937 
L 403.64928 80.757461 
L 403.73856 85.871588 
L 403.82784 90.999713 
L 403.91712 90.20744 
L 404.0064 83.577763 
L 404.09568 117.504515 
L 404.27424 80.456483 
L 404.36352 92.602736 
L 404.4528 79.498422 
L 404.54208 91.413777 
L 404.63136 82.487449 
L 404.72064 98.131099 
L 404.8992 71.793093 
L 404.98848 90.211978 
L 405.07776 85.384821 
L 405.16704 99.330245 
L 405.25632 94.157908 
L 405.3456 99.74117 
L 405.43488 89.456814 
L 405.52416 105.835683 
L 405.70272 73.356508 
L 405.792 78.790095 
L 405.88128 101.383334 
L 405.97056 81.800908 
L 406.05984 118.290792 
L 406.14912 72.713786 
L 406.2384 99.109495 
L 406.32768 84.421802 
L 406.41696 99.53929 
L 406.50624 91.733604 
L 406.59552 95.799624 
L 406.6848 86.550956 
L 406.77408 98.1858 
L 406.86336 83.058819 
L 406.95264 88.040751 
L 407.04192 99.842215 
L 407.1312 77.822058 
L 407.30976 106.086691 
L 407.39904 83.434466 
L 407.48832 90.551745 
L 407.5776 84.329253 
L 407.66688 87.653548 
L 407.75616 84.930507 
L 407.93472 97.105966 
L 408.024 81.62791 
L 408.11328 88.383316 
L 408.20256 124.122057 
L 408.29184 85.467189 
L 408.38112 90.472811 
L 408.4704 91.98199 
L 408.55968 78.913235 
L 408.64896 99.836207 
L 408.73824 85.331938 
L 408.82752 85.369869 
L 408.9168 104.641841 
L 409.09536 89.383309 
L 409.18464 86.927377 
L 409.27392 94.446201 
L 409.3632 86.974658 
L 409.45248 87.119128 
L 409.63104 104.66894 
L 409.8096 79.980771 
L 410.07744 100.65195 
L 410.256 79.769543 
L 410.34528 85.310575 
L 410.43456 107.502423 
L 410.61312 83.335622 
L 410.7024 84.274605 
L 410.79168 72.78127 
L 411.05952 95.49606 
L 411.1488 87.233636 
L 411.5952 108.324935 
L 411.68448 105.086443 
L 411.86304 82.217964 
L 411.95232 82.114133 
L 412.0416 91.803282 
L 412.13088 82.245234 
L 412.22016 96.242146 
L 412.39872 88.051108 
L 412.488 108.14864 
L 412.57728 101.593671 
L 412.66656 83.543453 
L 412.75584 99.572489 
L 412.9344 93.139255 
L 413.02368 75.548631 
L 413.11296 85.186435 
L 413.20224 72.761574 
L 413.29152 109.148056 
L 413.3808 89.282411 
L 413.47008 109.595322 
L 413.55936 102.066596 
L 413.73792 77.054013 
L 413.8272 106.071526 
L 413.91648 78.791609 
L 414.00576 84.531221 
L 414.09504 91.538024 
L 414.18432 74.852426 
L 414.2736 81.214433 
L 414.36288 100.1167 
L 414.45216 68.949394 
L 414.54144 97.032663 
L 414.63072 88.648646 
L 414.63072 88.648646 
" style="fill:none;stroke:#0000ff;stroke-linecap:square;stroke-width:1.5;"/>
   </g>
   <g id="patch_3">
    <path d="M 57.6 307.584 
L 57.6 41.472 
" style="fill:none;stroke:#000000;stroke-linecap:square;stroke-linejoin:miter;stroke-width:0.8;"/>
   </g>
   <g id="patch_4">
    <path d="M 414.72 307.584 
L 414.72 41.472 
" style="fill:none;stroke:#000000;stroke-linecap:square;stroke-linejoin:miter;stroke-width:0.8;"/>
   </g>
   <g id="patch_5">
    <path d="M 57.6 307.584 
L 414.72 307.584 
" style="fill:none;stroke:#000000;stroke-linecap:square;stroke-linejoin:miter;stroke-width:0.8;"/>
   </g>
   <g id="patch_6">
    <path d="M 57.6 41.472 
L 414.72 41.472 
" style="fill:none;stroke:#000000;stroke-linecap:square;stroke-linejoin:miter;stroke-width:0.8;"/>
   </g>
   <g id="legend_1">
    <g id="patch_7">
     <path d="M 202.8825 299.584 
L 403.52 299.584 
Q 406.72 299.584 406.72 296.384 
L 406.72 274.499 
Q 406.72 271.299 403.52 271.299 
L 202.8825 271.299 
Q 199.6825 271.299 199.6825 274.499 
L 199.6825 296.384 
Q 199.6825 299.584 202.8825 299.584 
z
" style="fill:#ffffff;opacity:0.8;stroke:#cccccc;stroke-linejoin:miter;"/>
    </g>
    <g id="line2d_22">
     <path d="M 206.0825 284.2565 
L 238.0825 284.2565 
" style="fill:none;stroke:#0000ff;stroke-linecap:square;stroke-width:1.5;"/>
    </g>
    <g id="line2d_23"/>
    <g id="text_13">
     <!-- cumulative reward -->
     <g transform="translate(250.8825 289.8565)scale(0.16 -0.16)">
      <defs>
       <path d="M 3122 3366 
L 3122 2828 
Q 2878 2963 2633 3030 
Q 2388 3097 2138 3097 
Q 1578 3097 1268 2742 
Q 959 2388 959 1747 
Q 959 1106 1268 751 
Q 1578 397 2138 397 
Q 2388 397 2633 464 
Q 2878 531 3122 666 
L 3122 134 
Q 2881 22 2623 -34 
Q 2366 -91 2075 -91 
Q 1284 -91 818 406 
Q 353 903 353 1747 
Q 353 2603 823 3093 
Q 1294 3584 2113 3584 
Q 2378 3584 2631 3529 
Q 2884 3475 3122 3366 
z
" id="DejaVuSans-63" transform="scale(0.015625)"/>
      </defs>
      <use xlink:href="#DejaVuSans-63"/>
      <use x="54.980469" xlink:href="#DejaVuSans-75"/>
      <use x="118.359375" xlink:href="#DejaVuSans-6d"/>
      <use x="215.771484" xlink:href="#DejaVuSans-75"/>
      <use x="279.150391" xlink:href="#DejaVuSans-6c"/>
      <use x="306.933594" xlink:href="#DejaVuSans-61"/>
      <use x="368.212891" xlink:href="#DejaVuSans-74"/>
      <use x="407.421875" xlink:href="#DejaVuSans-69"/>
      <use x="435.205078" xlink:href="#DejaVuSans-76"/>
      <use x="494.384766" xlink:href="#DejaVuSans-65"/>
      <use x="555.908203" xlink:href="#DejaVuSans-20"/>
      <use x="587.695312" xlink:href="#DejaVuSans-72"/>
      <use x="626.558594" xlink:href="#DejaVuSans-65"/>
      <use x="688.082031" xlink:href="#DejaVuSans-77"/>
      <use x="769.869141" xlink:href="#DejaVuSans-61"/>
      <use x="831.148438" xlink:href="#DejaVuSans-72"/>
      <use x="870.511719" xlink:href="#DejaVuSans-64"/>
     </g>
    </g>
   </g>
  </g>
 </g>
 <defs>
  <clipPath id="p6e33ab680f">
   <rect height="266.112" width="357.12" x="57.6" y="41.472"/>
  </clipPath>
 </defs>
</svg>
