<?xml version="1.0" encoding="utf-8" standalone="no"?>
<!DOCTYPE svg PUBLIC "-//W3C//DTD SVG 1.1//EN"
  "http://www.w3.org/Graphics/SVG/1.1/DTD/svg11.dtd">
<svg height="345.6pt" version="1.1" viewBox="0 0 460.8 345.6" width="460.8pt" xmlns="http://www.w3.org/2000/svg" xmlns:xlink="http://www.w3.org/1999/xlink">
 <metadata>
  <rdf:RDF xmlns:cc="http://creativecommons.org/ns#" xmlns:dc="http://purl.org/dc/elements/1.1/" xmlns:rdf="http://www.w3.org/1999/02/22-rdf-syntax-ns#">
   <cc:Work>
    <dc:type rdf:resource="http://purl.org/dc/dcmitype/StillImage"/>
    <dc:date>2021-10-27T13:03:29.217682</dc:date>
    <dc:description>{"agent.algorithm": "RayProximalPolicyOptimization", "agent.algorithm.render_env": false, "agent.algorithm.num_workers": 0, "agent.algorithm.batch_mode": "complete_episodes", "agent.algorithm.train_batch_size": 200, "agent.algorithm.optimizer": "Adam", "agent.algorithm.vf_clip_param": 10, "agent.algorithm.model": {"fcnet_activation": "tanh", "fcnet_hiddens": [50, 50]}, "env.env_class": "SchedulerPolicyRayEnvironment", "env.env_config": {"solver_driver": "CMAdriver", "solver_driver_args": [10, 10, 17, 0.33], "maximize": false, "steps": 50, "state_metrics_names": ["DifferenceOfBest", "SolverStateHistory", "SolverState"], "state_metrics_config": [[40, false, 1, true], [{"step_size": {"max": 3, "min": 0}}, 40], [{"ps": {"max": 10, "min": -10}}]], "reward_metric": "Best", "reward_metric_config": [false, false], "memes_no": 1, "action_space_config": {"step_size": {"max": 3, "min": 1e-10}}}}</dc:description>
    <dc:format>image/svg+xml</dc:format>
    <dc:creator>
     <cc:Agent>
      <dc:title>Matplotlib v3.4.3, https://matplotlib.org/</dc:title>
     </cc:Agent>
    </dc:creator>
   </cc:Work>
  </rdf:RDF>
 </metadata>
 <defs>
  <style type="text/css">*{stroke-linecap:butt;stroke-linejoin:round;}</style>
 </defs>
 <g id="figure_1">
  <g id="patch_1">
   <path d="M 0 345.6 
L 460.8 345.6 
L 460.8 0 
L 0 0 
z
" style="fill:#ffffff;"/>
  </g>
  <g id="axes_1">
   <g id="patch_2">
    <path d="M 57.6 307.584 
L 414.72 307.584 
L 414.72 41.472 
L 57.6 41.472 
z
" style="fill:#ffffff;"/>
   </g>
   <g id="matplotlib.axis_1">
    <g id="xtick_1">
     <g id="line2d_1">
      <path clip-path="url(#pf12bba2ab6)" d="M 57.6 307.584 
L 57.6 41.472 
" style="fill:none;stroke:#b0b0b0;stroke-linecap:square;stroke-width:0.8;"/>
     </g>
     <g id="line2d_2">
      <defs>
       <path d="M 0 0 
L 0 3.5 
" id="m200630b46c" style="stroke:#000000;stroke-width:0.8;"/>
      </defs>
      <g>
       <use style="stroke:#000000;stroke-width:0.8;" x="57.6" xlink:href="#m200630b46c" y="307.584"/>
      </g>
     </g>
     <g id="text_1">
      <!-- 0 -->
      <g transform="translate(54.41875 322.182437)scale(0.1 -0.1)">
       <defs>
        <path d="M 2034 4250 
Q 1547 4250 1301 3770 
Q 1056 3291 1056 2328 
Q 1056 1369 1301 889 
Q 1547 409 2034 409 
Q 2525 409 2770 889 
Q 3016 1369 3016 2328 
Q 3016 3291 2770 3770 
Q 2525 4250 2034 4250 
z
M 2034 4750 
Q 2819 4750 3233 4129 
Q 3647 3509 3647 2328 
Q 3647 1150 3233 529 
Q 2819 -91 2034 -91 
Q 1250 -91 836 529 
Q 422 1150 422 2328 
Q 422 3509 836 4129 
Q 1250 4750 2034 4750 
z
" id="DejaVuSans-30" transform="scale(0.015625)"/>
       </defs>
       <use xlink:href="#DejaVuSans-30"/>
      </g>
     </g>
    </g>
    <g id="xtick_2">
     <g id="line2d_3">
      <path clip-path="url(#pf12bba2ab6)" d="M 102.24 307.584 
L 102.24 41.472 
" style="fill:none;stroke:#b0b0b0;stroke-linecap:square;stroke-width:0.8;"/>
     </g>
     <g id="line2d_4">
      <g>
       <use style="stroke:#000000;stroke-width:0.8;" x="102.24" xlink:href="#m200630b46c" y="307.584"/>
      </g>
     </g>
     <g id="text_2">
      <!-- 250 -->
      <g transform="translate(92.69625 322.182437)scale(0.1 -0.1)">
       <defs>
        <path d="M 1228 531 
L 3431 531 
L 3431 0 
L 469 0 
L 469 531 
Q 828 903 1448 1529 
Q 2069 2156 2228 2338 
Q 2531 2678 2651 2914 
Q 2772 3150 2772 3378 
Q 2772 3750 2511 3984 
Q 2250 4219 1831 4219 
Q 1534 4219 1204 4116 
Q 875 4013 500 3803 
L 500 4441 
Q 881 4594 1212 4672 
Q 1544 4750 1819 4750 
Q 2544 4750 2975 4387 
Q 3406 4025 3406 3419 
Q 3406 3131 3298 2873 
Q 3191 2616 2906 2266 
Q 2828 2175 2409 1742 
Q 1991 1309 1228 531 
z
" id="DejaVuSans-32" transform="scale(0.015625)"/>
        <path d="M 691 4666 
L 3169 4666 
L 3169 4134 
L 1269 4134 
L 1269 2991 
Q 1406 3038 1543 3061 
Q 1681 3084 1819 3084 
Q 2600 3084 3056 2656 
Q 3513 2228 3513 1497 
Q 3513 744 3044 326 
Q 2575 -91 1722 -91 
Q 1428 -91 1123 -41 
Q 819 9 494 109 
L 494 744 
Q 775 591 1075 516 
Q 1375 441 1709 441 
Q 2250 441 2565 725 
Q 2881 1009 2881 1497 
Q 2881 1984 2565 2268 
Q 2250 2553 1709 2553 
Q 1456 2553 1204 2497 
Q 953 2441 691 2322 
L 691 4666 
z
" id="DejaVuSans-35" transform="scale(0.015625)"/>
       </defs>
       <use xlink:href="#DejaVuSans-32"/>
       <use x="63.623047" xlink:href="#DejaVuSans-35"/>
       <use x="127.246094" xlink:href="#DejaVuSans-30"/>
      </g>
     </g>
    </g>
    <g id="xtick_3">
     <g id="line2d_5">
      <path clip-path="url(#pf12bba2ab6)" d="M 146.88 307.584 
L 146.88 41.472 
" style="fill:none;stroke:#b0b0b0;stroke-linecap:square;stroke-width:0.8;"/>
     </g>
     <g id="line2d_6">
      <g>
       <use style="stroke:#000000;stroke-width:0.8;" x="146.88" xlink:href="#m200630b46c" y="307.584"/>
      </g>
     </g>
     <g id="text_3">
      <!-- 500 -->
      <g transform="translate(137.33625 322.182437)scale(0.1 -0.1)">
       <use xlink:href="#DejaVuSans-35"/>
       <use x="63.623047" xlink:href="#DejaVuSans-30"/>
       <use x="127.246094" xlink:href="#DejaVuSans-30"/>
      </g>
     </g>
    </g>
    <g id="xtick_4">
     <g id="line2d_7">
      <path clip-path="url(#pf12bba2ab6)" d="M 191.52 307.584 
L 191.52 41.472 
" style="fill:none;stroke:#b0b0b0;stroke-linecap:square;stroke-width:0.8;"/>
     </g>
     <g id="line2d_8">
      <g>
       <use style="stroke:#000000;stroke-width:0.8;" x="191.52" xlink:href="#m200630b46c" y="307.584"/>
      </g>
     </g>
     <g id="text_4">
      <!-- 750 -->
      <g transform="translate(181.97625 322.182437)scale(0.1 -0.1)">
       <defs>
        <path d="M 525 4666 
L 3525 4666 
L 3525 4397 
L 1831 0 
L 1172 0 
L 2766 4134 
L 525 4134 
L 525 4666 
z
" id="DejaVuSans-37" transform="scale(0.015625)"/>
       </defs>
       <use xlink:href="#DejaVuSans-37"/>
       <use x="63.623047" xlink:href="#DejaVuSans-35"/>
       <use x="127.246094" xlink:href="#DejaVuSans-30"/>
      </g>
     </g>
    </g>
    <g id="xtick_5">
     <g id="line2d_9">
      <path clip-path="url(#pf12bba2ab6)" d="M 236.16 307.584 
L 236.16 41.472 
" style="fill:none;stroke:#b0b0b0;stroke-linecap:square;stroke-width:0.8;"/>
     </g>
     <g id="line2d_10">
      <g>
       <use style="stroke:#000000;stroke-width:0.8;" x="236.16" xlink:href="#m200630b46c" y="307.584"/>
      </g>
     </g>
     <g id="text_5">
      <!-- 1000 -->
      <g transform="translate(223.435 322.182437)scale(0.1 -0.1)">
       <defs>
        <path d="M 794 531 
L 1825 531 
L 1825 4091 
L 703 3866 
L 703 4441 
L 1819 4666 
L 2450 4666 
L 2450 531 
L 3481 531 
L 3481 0 
L 794 0 
L 794 531 
z
" id="DejaVuSans-31" transform="scale(0.015625)"/>
       </defs>
       <use xlink:href="#DejaVuSans-31"/>
       <use x="63.623047" xlink:href="#DejaVuSans-30"/>
       <use x="127.246094" xlink:href="#DejaVuSans-30"/>
       <use x="190.869141" xlink:href="#DejaVuSans-30"/>
      </g>
     </g>
    </g>
    <g id="xtick_6">
     <g id="line2d_11">
      <path clip-path="url(#pf12bba2ab6)" d="M 280.8 307.584 
L 280.8 41.472 
" style="fill:none;stroke:#b0b0b0;stroke-linecap:square;stroke-width:0.8;"/>
     </g>
     <g id="line2d_12">
      <g>
       <use style="stroke:#000000;stroke-width:0.8;" x="280.8" xlink:href="#m200630b46c" y="307.584"/>
      </g>
     </g>
     <g id="text_6">
      <!-- 1250 -->
      <g transform="translate(268.075 322.182437)scale(0.1 -0.1)">
       <use xlink:href="#DejaVuSans-31"/>
       <use x="63.623047" xlink:href="#DejaVuSans-32"/>
       <use x="127.246094" xlink:href="#DejaVuSans-35"/>
       <use x="190.869141" xlink:href="#DejaVuSans-30"/>
      </g>
     </g>
    </g>
    <g id="xtick_7">
     <g id="line2d_13">
      <path clip-path="url(#pf12bba2ab6)" d="M 325.44 307.584 
L 325.44 41.472 
" style="fill:none;stroke:#b0b0b0;stroke-linecap:square;stroke-width:0.8;"/>
     </g>
     <g id="line2d_14">
      <g>
       <use style="stroke:#000000;stroke-width:0.8;" x="325.44" xlink:href="#m200630b46c" y="307.584"/>
      </g>
     </g>
     <g id="text_7">
      <!-- 1500 -->
      <g transform="translate(312.715 322.182437)scale(0.1 -0.1)">
       <use xlink:href="#DejaVuSans-31"/>
       <use x="63.623047" xlink:href="#DejaVuSans-35"/>
       <use x="127.246094" xlink:href="#DejaVuSans-30"/>
       <use x="190.869141" xlink:href="#DejaVuSans-30"/>
      </g>
     </g>
    </g>
    <g id="xtick_8">
     <g id="line2d_15">
      <path clip-path="url(#pf12bba2ab6)" d="M 370.08 307.584 
L 370.08 41.472 
" style="fill:none;stroke:#b0b0b0;stroke-linecap:square;stroke-width:0.8;"/>
     </g>
     <g id="line2d_16">
      <g>
       <use style="stroke:#000000;stroke-width:0.8;" x="370.08" xlink:href="#m200630b46c" y="307.584"/>
      </g>
     </g>
     <g id="text_8">
      <!-- 1750 -->
      <g transform="translate(357.355 322.182437)scale(0.1 -0.1)">
       <use xlink:href="#DejaVuSans-31"/>
       <use x="63.623047" xlink:href="#DejaVuSans-37"/>
       <use x="127.246094" xlink:href="#DejaVuSans-35"/>
       <use x="190.869141" xlink:href="#DejaVuSans-30"/>
      </g>
     </g>
    </g>
    <g id="xtick_9">
     <g id="line2d_17">
      <path clip-path="url(#pf12bba2ab6)" d="M 414.72 307.584 
L 414.72 41.472 
" style="fill:none;stroke:#b0b0b0;stroke-linecap:square;stroke-width:0.8;"/>
     </g>
     <g id="line2d_18">
      <g>
       <use style="stroke:#000000;stroke-width:0.8;" x="414.72" xlink:href="#m200630b46c" y="307.584"/>
      </g>
     </g>
     <g id="text_9">
      <!-- 2000 -->
      <g transform="translate(401.995 322.182437)scale(0.1 -0.1)">
       <use xlink:href="#DejaVuSans-32"/>
       <use x="63.623047" xlink:href="#DejaVuSans-30"/>
       <use x="127.246094" xlink:href="#DejaVuSans-30"/>
       <use x="190.869141" xlink:href="#DejaVuSans-30"/>
      </g>
     </g>
    </g>
    <g id="text_10">
     <!-- Episodes -->
     <g transform="translate(213.917812 335.860562)scale(0.1 -0.1)">
      <defs>
       <path d="M 628 4666 
L 3578 4666 
L 3578 4134 
L 1259 4134 
L 1259 2753 
L 3481 2753 
L 3481 2222 
L 1259 2222 
L 1259 531 
L 3634 531 
L 3634 0 
L 628 0 
L 628 4666 
z
" id="DejaVuSans-45" transform="scale(0.015625)"/>
       <path d="M 1159 525 
L 1159 -1331 
L 581 -1331 
L 581 3500 
L 1159 3500 
L 1159 2969 
Q 1341 3281 1617 3432 
Q 1894 3584 2278 3584 
Q 2916 3584 3314 3078 
Q 3713 2572 3713 1747 
Q 3713 922 3314 415 
Q 2916 -91 2278 -91 
Q 1894 -91 1617 61 
Q 1341 213 1159 525 
z
M 3116 1747 
Q 3116 2381 2855 2742 
Q 2594 3103 2138 3103 
Q 1681 3103 1420 2742 
Q 1159 2381 1159 1747 
Q 1159 1113 1420 752 
Q 1681 391 2138 391 
Q 2594 391 2855 752 
Q 3116 1113 3116 1747 
z
" id="DejaVuSans-70" transform="scale(0.015625)"/>
       <path d="M 603 3500 
L 1178 3500 
L 1178 0 
L 603 0 
L 603 3500 
z
M 603 4863 
L 1178 4863 
L 1178 4134 
L 603 4134 
L 603 4863 
z
" id="DejaVuSans-69" transform="scale(0.015625)"/>
       <path d="M 2834 3397 
L 2834 2853 
Q 2591 2978 2328 3040 
Q 2066 3103 1784 3103 
Q 1356 3103 1142 2972 
Q 928 2841 928 2578 
Q 928 2378 1081 2264 
Q 1234 2150 1697 2047 
L 1894 2003 
Q 2506 1872 2764 1633 
Q 3022 1394 3022 966 
Q 3022 478 2636 193 
Q 2250 -91 1575 -91 
Q 1294 -91 989 -36 
Q 684 19 347 128 
L 347 722 
Q 666 556 975 473 
Q 1284 391 1588 391 
Q 1994 391 2212 530 
Q 2431 669 2431 922 
Q 2431 1156 2273 1281 
Q 2116 1406 1581 1522 
L 1381 1569 
Q 847 1681 609 1914 
Q 372 2147 372 2553 
Q 372 3047 722 3315 
Q 1072 3584 1716 3584 
Q 2034 3584 2315 3537 
Q 2597 3491 2834 3397 
z
" id="DejaVuSans-73" transform="scale(0.015625)"/>
       <path d="M 1959 3097 
Q 1497 3097 1228 2736 
Q 959 2375 959 1747 
Q 959 1119 1226 758 
Q 1494 397 1959 397 
Q 2419 397 2687 759 
Q 2956 1122 2956 1747 
Q 2956 2369 2687 2733 
Q 2419 3097 1959 3097 
z
M 1959 3584 
Q 2709 3584 3137 3096 
Q 3566 2609 3566 1747 
Q 3566 888 3137 398 
Q 2709 -91 1959 -91 
Q 1206 -91 779 398 
Q 353 888 353 1747 
Q 353 2609 779 3096 
Q 1206 3584 1959 3584 
z
" id="DejaVuSans-6f" transform="scale(0.015625)"/>
       <path d="M 2906 2969 
L 2906 4863 
L 3481 4863 
L 3481 0 
L 2906 0 
L 2906 525 
Q 2725 213 2448 61 
Q 2172 -91 1784 -91 
Q 1150 -91 751 415 
Q 353 922 353 1747 
Q 353 2572 751 3078 
Q 1150 3584 1784 3584 
Q 2172 3584 2448 3432 
Q 2725 3281 2906 2969 
z
M 947 1747 
Q 947 1113 1208 752 
Q 1469 391 1925 391 
Q 2381 391 2643 752 
Q 2906 1113 2906 1747 
Q 2906 2381 2643 2742 
Q 2381 3103 1925 3103 
Q 1469 3103 1208 2742 
Q 947 2381 947 1747 
z
" id="DejaVuSans-64" transform="scale(0.015625)"/>
       <path d="M 3597 1894 
L 3597 1613 
L 953 1613 
Q 991 1019 1311 708 
Q 1631 397 2203 397 
Q 2534 397 2845 478 
Q 3156 559 3463 722 
L 3463 178 
Q 3153 47 2828 -22 
Q 2503 -91 2169 -91 
Q 1331 -91 842 396 
Q 353 884 353 1716 
Q 353 2575 817 3079 
Q 1281 3584 2069 3584 
Q 2775 3584 3186 3129 
Q 3597 2675 3597 1894 
z
M 3022 2063 
Q 3016 2534 2758 2815 
Q 2500 3097 2075 3097 
Q 1594 3097 1305 2825 
Q 1016 2553 972 2059 
L 3022 2063 
z
" id="DejaVuSans-65" transform="scale(0.015625)"/>
      </defs>
      <use xlink:href="#DejaVuSans-45"/>
      <use x="63.183594" xlink:href="#DejaVuSans-70"/>
      <use x="126.660156" xlink:href="#DejaVuSans-69"/>
      <use x="154.443359" xlink:href="#DejaVuSans-73"/>
      <use x="206.542969" xlink:href="#DejaVuSans-6f"/>
      <use x="267.724609" xlink:href="#DejaVuSans-64"/>
      <use x="331.201172" xlink:href="#DejaVuSans-65"/>
      <use x="392.724609" xlink:href="#DejaVuSans-73"/>
     </g>
    </g>
   </g>
   <g id="matplotlib.axis_2">
    <g id="ytick_1">
     <g id="line2d_19">
      <path clip-path="url(#pf12bba2ab6)" d="M 57.6 301.480212 
L 414.72 301.480212 
" style="fill:none;stroke:#b0b0b0;stroke-linecap:square;stroke-width:0.8;"/>
     </g>
     <g id="line2d_20">
      <defs>
       <path d="M 0 0 
L -3.5 0 
" id="mdd622b4cd9" style="stroke:#000000;stroke-width:0.8;"/>
      </defs>
      <g>
       <use style="stroke:#000000;stroke-width:0.8;" x="57.6" xlink:href="#mdd622b4cd9" y="301.480212"/>
      </g>
     </g>
     <g id="text_11">
      <!-- 1200 -->
      <g transform="translate(25.15 305.279431)scale(0.1 -0.1)">
       <use xlink:href="#DejaVuSans-31"/>
       <use x="63.623047" xlink:href="#DejaVuSans-32"/>
       <use x="127.246094" xlink:href="#DejaVuSans-30"/>
       <use x="190.869141" xlink:href="#DejaVuSans-30"/>
      </g>
     </g>
    </g>
    <g id="ytick_2">
     <g id="line2d_21">
      <path clip-path="url(#pf12bba2ab6)" d="M 57.6 260.439331 
L 414.72 260.439331 
" style="fill:none;stroke:#b0b0b0;stroke-linecap:square;stroke-width:0.8;"/>
     </g>
     <g id="line2d_22">
      <g>
       <use style="stroke:#000000;stroke-width:0.8;" x="57.6" xlink:href="#mdd622b4cd9" y="260.439331"/>
      </g>
     </g>
     <g id="text_12">
      <!-- 1300 -->
      <g transform="translate(25.15 264.238549)scale(0.1 -0.1)">
       <defs>
        <path d="M 2597 2516 
Q 3050 2419 3304 2112 
Q 3559 1806 3559 1356 
Q 3559 666 3084 287 
Q 2609 -91 1734 -91 
Q 1441 -91 1130 -33 
Q 819 25 488 141 
L 488 750 
Q 750 597 1062 519 
Q 1375 441 1716 441 
Q 2309 441 2620 675 
Q 2931 909 2931 1356 
Q 2931 1769 2642 2001 
Q 2353 2234 1838 2234 
L 1294 2234 
L 1294 2753 
L 1863 2753 
Q 2328 2753 2575 2939 
Q 2822 3125 2822 3475 
Q 2822 3834 2567 4026 
Q 2313 4219 1838 4219 
Q 1578 4219 1281 4162 
Q 984 4106 628 3988 
L 628 4550 
Q 988 4650 1302 4700 
Q 1616 4750 1894 4750 
Q 2613 4750 3031 4423 
Q 3450 4097 3450 3541 
Q 3450 3153 3228 2886 
Q 3006 2619 2597 2516 
z
" id="DejaVuSans-33" transform="scale(0.015625)"/>
       </defs>
       <use xlink:href="#DejaVuSans-31"/>
       <use x="63.623047" xlink:href="#DejaVuSans-33"/>
       <use x="127.246094" xlink:href="#DejaVuSans-30"/>
       <use x="190.869141" xlink:href="#DejaVuSans-30"/>
      </g>
     </g>
    </g>
    <g id="ytick_3">
     <g id="line2d_23">
      <path clip-path="url(#pf12bba2ab6)" d="M 57.6 219.398449 
L 414.72 219.398449 
" style="fill:none;stroke:#b0b0b0;stroke-linecap:square;stroke-width:0.8;"/>
     </g>
     <g id="line2d_24">
      <g>
       <use style="stroke:#000000;stroke-width:0.8;" x="57.6" xlink:href="#mdd622b4cd9" y="219.398449"/>
      </g>
     </g>
     <g id="text_13">
      <!-- 1400 -->
      <g transform="translate(25.15 223.197668)scale(0.1 -0.1)">
       <defs>
        <path d="M 2419 4116 
L 825 1625 
L 2419 1625 
L 2419 4116 
z
M 2253 4666 
L 3047 4666 
L 3047 1625 
L 3713 1625 
L 3713 1100 
L 3047 1100 
L 3047 0 
L 2419 0 
L 2419 1100 
L 313 1100 
L 313 1709 
L 2253 4666 
z
" id="DejaVuSans-34" transform="scale(0.015625)"/>
       </defs>
       <use xlink:href="#DejaVuSans-31"/>
       <use x="63.623047" xlink:href="#DejaVuSans-34"/>
       <use x="127.246094" xlink:href="#DejaVuSans-30"/>
       <use x="190.869141" xlink:href="#DejaVuSans-30"/>
      </g>
     </g>
    </g>
    <g id="ytick_4">
     <g id="line2d_25">
      <path clip-path="url(#pf12bba2ab6)" d="M 57.6 178.357568 
L 414.72 178.357568 
" style="fill:none;stroke:#b0b0b0;stroke-linecap:square;stroke-width:0.8;"/>
     </g>
     <g id="line2d_26">
      <g>
       <use style="stroke:#000000;stroke-width:0.8;" x="57.6" xlink:href="#mdd622b4cd9" y="178.357568"/>
      </g>
     </g>
     <g id="text_14">
      <!-- 1500 -->
      <g transform="translate(25.15 182.156786)scale(0.1 -0.1)">
       <use xlink:href="#DejaVuSans-31"/>
       <use x="63.623047" xlink:href="#DejaVuSans-35"/>
       <use x="127.246094" xlink:href="#DejaVuSans-30"/>
       <use x="190.869141" xlink:href="#DejaVuSans-30"/>
      </g>
     </g>
    </g>
    <g id="ytick_5">
     <g id="line2d_27">
      <path clip-path="url(#pf12bba2ab6)" d="M 57.6 137.316686 
L 414.72 137.316686 
" style="fill:none;stroke:#b0b0b0;stroke-linecap:square;stroke-width:0.8;"/>
     </g>
     <g id="line2d_28">
      <g>
       <use style="stroke:#000000;stroke-width:0.8;" x="57.6" xlink:href="#mdd622b4cd9" y="137.316686"/>
      </g>
     </g>
     <g id="text_15">
      <!-- 1600 -->
      <g transform="translate(25.15 141.115905)scale(0.1 -0.1)">
       <defs>
        <path d="M 2113 2584 
Q 1688 2584 1439 2293 
Q 1191 2003 1191 1497 
Q 1191 994 1439 701 
Q 1688 409 2113 409 
Q 2538 409 2786 701 
Q 3034 994 3034 1497 
Q 3034 2003 2786 2293 
Q 2538 2584 2113 2584 
z
M 3366 4563 
L 3366 3988 
Q 3128 4100 2886 4159 
Q 2644 4219 2406 4219 
Q 1781 4219 1451 3797 
Q 1122 3375 1075 2522 
Q 1259 2794 1537 2939 
Q 1816 3084 2150 3084 
Q 2853 3084 3261 2657 
Q 3669 2231 3669 1497 
Q 3669 778 3244 343 
Q 2819 -91 2113 -91 
Q 1303 -91 875 529 
Q 447 1150 447 2328 
Q 447 3434 972 4092 
Q 1497 4750 2381 4750 
Q 2619 4750 2861 4703 
Q 3103 4656 3366 4563 
z
" id="DejaVuSans-36" transform="scale(0.015625)"/>
       </defs>
       <use xlink:href="#DejaVuSans-31"/>
       <use x="63.623047" xlink:href="#DejaVuSans-36"/>
       <use x="127.246094" xlink:href="#DejaVuSans-30"/>
       <use x="190.869141" xlink:href="#DejaVuSans-30"/>
      </g>
     </g>
    </g>
    <g id="ytick_6">
     <g id="line2d_29">
      <path clip-path="url(#pf12bba2ab6)" d="M 57.6 96.275805 
L 414.72 96.275805 
" style="fill:none;stroke:#b0b0b0;stroke-linecap:square;stroke-width:0.8;"/>
     </g>
     <g id="line2d_30">
      <g>
       <use style="stroke:#000000;stroke-width:0.8;" x="57.6" xlink:href="#mdd622b4cd9" y="96.275805"/>
      </g>
     </g>
     <g id="text_16">
      <!-- 1700 -->
      <g transform="translate(25.15 100.075023)scale(0.1 -0.1)">
       <use xlink:href="#DejaVuSans-31"/>
       <use x="63.623047" xlink:href="#DejaVuSans-37"/>
       <use x="127.246094" xlink:href="#DejaVuSans-30"/>
       <use x="190.869141" xlink:href="#DejaVuSans-30"/>
      </g>
     </g>
    </g>
    <g id="ytick_7">
     <g id="line2d_31">
      <path clip-path="url(#pf12bba2ab6)" d="M 57.6 55.234923 
L 414.72 55.234923 
" style="fill:none;stroke:#b0b0b0;stroke-linecap:square;stroke-width:0.8;"/>
     </g>
     <g id="line2d_32">
      <g>
       <use style="stroke:#000000;stroke-width:0.8;" x="57.6" xlink:href="#mdd622b4cd9" y="55.234923"/>
      </g>
     </g>
     <g id="text_17">
      <!-- 1800 -->
      <g transform="translate(25.15 59.034142)scale(0.1 -0.1)">
       <defs>
        <path d="M 2034 2216 
Q 1584 2216 1326 1975 
Q 1069 1734 1069 1313 
Q 1069 891 1326 650 
Q 1584 409 2034 409 
Q 2484 409 2743 651 
Q 3003 894 3003 1313 
Q 3003 1734 2745 1975 
Q 2488 2216 2034 2216 
z
M 1403 2484 
Q 997 2584 770 2862 
Q 544 3141 544 3541 
Q 544 4100 942 4425 
Q 1341 4750 2034 4750 
Q 2731 4750 3128 4425 
Q 3525 4100 3525 3541 
Q 3525 3141 3298 2862 
Q 3072 2584 2669 2484 
Q 3125 2378 3379 2068 
Q 3634 1759 3634 1313 
Q 3634 634 3220 271 
Q 2806 -91 2034 -91 
Q 1263 -91 848 271 
Q 434 634 434 1313 
Q 434 1759 690 2068 
Q 947 2378 1403 2484 
z
M 1172 3481 
Q 1172 3119 1398 2916 
Q 1625 2713 2034 2713 
Q 2441 2713 2670 2916 
Q 2900 3119 2900 3481 
Q 2900 3844 2670 4047 
Q 2441 4250 2034 4250 
Q 1625 4250 1398 4047 
Q 1172 3844 1172 3481 
z
" id="DejaVuSans-38" transform="scale(0.015625)"/>
       </defs>
       <use xlink:href="#DejaVuSans-31"/>
       <use x="63.623047" xlink:href="#DejaVuSans-38"/>
       <use x="127.246094" xlink:href="#DejaVuSans-30"/>
       <use x="190.869141" xlink:href="#DejaVuSans-30"/>
      </g>
     </g>
    </g>
    <g id="text_18">
     <!-- Cumulative Reward -->
     <g transform="translate(19.070312 223.275656)rotate(-90)scale(0.1 -0.1)">
      <defs>
       <path d="M 4122 4306 
L 4122 3641 
Q 3803 3938 3442 4084 
Q 3081 4231 2675 4231 
Q 1875 4231 1450 3742 
Q 1025 3253 1025 2328 
Q 1025 1406 1450 917 
Q 1875 428 2675 428 
Q 3081 428 3442 575 
Q 3803 722 4122 1019 
L 4122 359 
Q 3791 134 3420 21 
Q 3050 -91 2638 -91 
Q 1578 -91 968 557 
Q 359 1206 359 2328 
Q 359 3453 968 4101 
Q 1578 4750 2638 4750 
Q 3056 4750 3426 4639 
Q 3797 4528 4122 4306 
z
" id="DejaVuSans-43" transform="scale(0.015625)"/>
       <path d="M 544 1381 
L 544 3500 
L 1119 3500 
L 1119 1403 
Q 1119 906 1312 657 
Q 1506 409 1894 409 
Q 2359 409 2629 706 
Q 2900 1003 2900 1516 
L 2900 3500 
L 3475 3500 
L 3475 0 
L 2900 0 
L 2900 538 
Q 2691 219 2414 64 
Q 2138 -91 1772 -91 
Q 1169 -91 856 284 
Q 544 659 544 1381 
z
M 1991 3584 
L 1991 3584 
z
" id="DejaVuSans-75" transform="scale(0.015625)"/>
       <path d="M 3328 2828 
Q 3544 3216 3844 3400 
Q 4144 3584 4550 3584 
Q 5097 3584 5394 3201 
Q 5691 2819 5691 2113 
L 5691 0 
L 5113 0 
L 5113 2094 
Q 5113 2597 4934 2840 
Q 4756 3084 4391 3084 
Q 3944 3084 3684 2787 
Q 3425 2491 3425 1978 
L 3425 0 
L 2847 0 
L 2847 2094 
Q 2847 2600 2669 2842 
Q 2491 3084 2119 3084 
Q 1678 3084 1418 2786 
Q 1159 2488 1159 1978 
L 1159 0 
L 581 0 
L 581 3500 
L 1159 3500 
L 1159 2956 
Q 1356 3278 1631 3431 
Q 1906 3584 2284 3584 
Q 2666 3584 2933 3390 
Q 3200 3197 3328 2828 
z
" id="DejaVuSans-6d" transform="scale(0.015625)"/>
       <path d="M 603 4863 
L 1178 4863 
L 1178 0 
L 603 0 
L 603 4863 
z
" id="DejaVuSans-6c" transform="scale(0.015625)"/>
       <path d="M 2194 1759 
Q 1497 1759 1228 1600 
Q 959 1441 959 1056 
Q 959 750 1161 570 
Q 1363 391 1709 391 
Q 2188 391 2477 730 
Q 2766 1069 2766 1631 
L 2766 1759 
L 2194 1759 
z
M 3341 1997 
L 3341 0 
L 2766 0 
L 2766 531 
Q 2569 213 2275 61 
Q 1981 -91 1556 -91 
Q 1019 -91 701 211 
Q 384 513 384 1019 
Q 384 1609 779 1909 
Q 1175 2209 1959 2209 
L 2766 2209 
L 2766 2266 
Q 2766 2663 2505 2880 
Q 2244 3097 1772 3097 
Q 1472 3097 1187 3025 
Q 903 2953 641 2809 
L 641 3341 
Q 956 3463 1253 3523 
Q 1550 3584 1831 3584 
Q 2591 3584 2966 3190 
Q 3341 2797 3341 1997 
z
" id="DejaVuSans-61" transform="scale(0.015625)"/>
       <path d="M 1172 4494 
L 1172 3500 
L 2356 3500 
L 2356 3053 
L 1172 3053 
L 1172 1153 
Q 1172 725 1289 603 
Q 1406 481 1766 481 
L 2356 481 
L 2356 0 
L 1766 0 
Q 1100 0 847 248 
Q 594 497 594 1153 
L 594 3053 
L 172 3053 
L 172 3500 
L 594 3500 
L 594 4494 
L 1172 4494 
z
" id="DejaVuSans-74" transform="scale(0.015625)"/>
       <path d="M 191 3500 
L 800 3500 
L 1894 563 
L 2988 3500 
L 3597 3500 
L 2284 0 
L 1503 0 
L 191 3500 
z
" id="DejaVuSans-76" transform="scale(0.015625)"/>
       <path id="DejaVuSans-20" transform="scale(0.015625)"/>
       <path d="M 2841 2188 
Q 3044 2119 3236 1894 
Q 3428 1669 3622 1275 
L 4263 0 
L 3584 0 
L 2988 1197 
Q 2756 1666 2539 1819 
Q 2322 1972 1947 1972 
L 1259 1972 
L 1259 0 
L 628 0 
L 628 4666 
L 2053 4666 
Q 2853 4666 3247 4331 
Q 3641 3997 3641 3322 
Q 3641 2881 3436 2590 
Q 3231 2300 2841 2188 
z
M 1259 4147 
L 1259 2491 
L 2053 2491 
Q 2509 2491 2742 2702 
Q 2975 2913 2975 3322 
Q 2975 3731 2742 3939 
Q 2509 4147 2053 4147 
L 1259 4147 
z
" id="DejaVuSans-52" transform="scale(0.015625)"/>
       <path d="M 269 3500 
L 844 3500 
L 1563 769 
L 2278 3500 
L 2956 3500 
L 3675 769 
L 4391 3500 
L 4966 3500 
L 4050 0 
L 3372 0 
L 2619 2869 
L 1863 0 
L 1184 0 
L 269 3500 
z
" id="DejaVuSans-77" transform="scale(0.015625)"/>
       <path d="M 2631 2963 
Q 2534 3019 2420 3045 
Q 2306 3072 2169 3072 
Q 1681 3072 1420 2755 
Q 1159 2438 1159 1844 
L 1159 0 
L 581 0 
L 581 3500 
L 1159 3500 
L 1159 2956 
Q 1341 3275 1631 3429 
Q 1922 3584 2338 3584 
Q 2397 3584 2469 3576 
Q 2541 3569 2628 3553 
L 2631 2963 
z
" id="DejaVuSans-72" transform="scale(0.015625)"/>
      </defs>
      <use xlink:href="#DejaVuSans-43"/>
      <use x="69.824219" xlink:href="#DejaVuSans-75"/>
      <use x="133.203125" xlink:href="#DejaVuSans-6d"/>
      <use x="230.615234" xlink:href="#DejaVuSans-75"/>
      <use x="293.994141" xlink:href="#DejaVuSans-6c"/>
      <use x="321.777344" xlink:href="#DejaVuSans-61"/>
      <use x="383.056641" xlink:href="#DejaVuSans-74"/>
      <use x="422.265625" xlink:href="#DejaVuSans-69"/>
      <use x="450.048828" xlink:href="#DejaVuSans-76"/>
      <use x="509.228516" xlink:href="#DejaVuSans-65"/>
      <use x="570.751953" xlink:href="#DejaVuSans-20"/>
      <use x="602.539062" xlink:href="#DejaVuSans-52"/>
      <use x="667.521484" xlink:href="#DejaVuSans-65"/>
      <use x="729.044922" xlink:href="#DejaVuSans-77"/>
      <use x="810.832031" xlink:href="#DejaVuSans-61"/>
      <use x="872.111328" xlink:href="#DejaVuSans-72"/>
      <use x="911.474609" xlink:href="#DejaVuSans-64"/>
     </g>
    </g>
   </g>
   <g id="line2d_33">
    <path clip-path="url(#pf12bba2ab6)" d="M 57.6 183.613785 
L 57.77856 164.722274 
L 57.95712 160.984273 
L 58.13568 193.286726 
L 58.31424 183.613785 
L 58.4928 164.722274 
L 58.67136 160.984273 
L 58.84992 193.286726 
L 59.02848 183.613785 
L 59.20704 164.722274 
L 59.3856 160.984273 
L 59.56416 193.286726 
L 59.74272 183.613785 
L 59.92128 164.722274 
L 60.09984 160.984273 
L 60.2784 193.286726 
L 60.45696 183.613785 
L 60.63552 164.722274 
L 60.81408 160.984273 
L 60.99264 193.286726 
L 61.1712 183.613785 
L 61.34976 164.722274 
L 61.52832 160.984273 
L 61.70688 193.286726 
L 61.88544 183.613785 
L 62.064 164.722274 
L 62.24256 160.984273 
L 62.42112 193.286726 
L 62.59968 183.613785 
L 62.77824 164.722274 
L 62.9568 160.984273 
L 63.13536 193.286726 
L 63.31392 183.613785 
L 63.49248 164.722274 
L 63.67104 160.984273 
L 63.8496 193.286726 
L 64.02816 183.613785 
L 64.20672 164.722274 
L 64.38528 160.984273 
L 64.56384 193.286726 
L 64.7424 183.613785 
L 64.92096 164.722274 
L 65.09952 160.984273 
L 65.27808 193.286726 
L 65.45664 183.613785 
L 65.6352 164.722274 
L 65.81376 160.984273 
L 65.99232 193.286726 
L 66.17088 183.613785 
L 66.34944 164.722274 
L 66.528 160.984273 
L 66.70656 193.286726 
L 66.88512 183.613785 
L 67.06368 164.722274 
L 67.24224 160.984273 
L 67.4208 193.286726 
L 67.59936 183.613785 
L 67.77792 164.722274 
L 67.95648 160.984273 
L 68.13504 193.286726 
L 68.3136 183.613785 
L 68.49216 164.722274 
L 68.67072 160.984273 
L 68.84928 193.286726 
L 69.02784 183.613785 
L 69.2064 164.722274 
L 69.38496 160.984273 
L 69.56352 193.286726 
L 69.74208 183.613785 
L 69.92064 164.722274 
L 70.0992 160.984273 
L 70.27776 193.286726 
L 70.45632 183.613785 
L 70.63488 164.722274 
L 70.81344 160.984273 
L 70.992 193.286726 
L 71.17056 183.613785 
L 71.34912 164.722274 
L 71.52768 160.984273 
L 71.70624 193.286726 
L 71.8848 183.613785 
L 72.06336 164.722274 
L 72.24192 160.984273 
L 72.42048 193.286726 
L 72.59904 183.613785 
L 72.7776 164.722274 
L 72.95616 160.984273 
L 73.13472 193.286726 
L 73.31328 183.613785 
L 73.49184 164.722274 
L 73.6704 160.984273 
L 73.84896 193.286726 
L 74.02752 183.613785 
L 74.20608 164.722274 
L 74.38464 160.984273 
L 74.5632 193.286726 
L 74.74176 183.613785 
L 74.92032 164.722274 
L 75.09888 160.984273 
L 75.27744 193.286726 
L 75.456 192.611642 
L 75.63456 185.31504 
L 75.81312 171.860836 
L 75.99168 191.221707 
L 76.17024 166.222029 
L 76.3488 196.629856 
L 76.52736 180.623085 
L 76.70592 194.020492 
L 76.88448 148.879665 
L 77.06304 187.147175 
L 77.2416 190.103346 
L 77.42016 136.520813 
L 77.59872 180.025758 
L 78.1344 143.748401 
L 78.31296 205.238638 
L 78.49152 151.352202 
L 78.67008 156.629992 
L 79.0272 177.785456 
L 79.20576 203.012892 
L 79.38432 127.05866 
L 79.74144 196.975448 
L 79.92 190.826464 
L 80.09856 190.065668 
L 80.27712 206.980703 
L 80.45568 147.629679 
L 80.63424 156.086344 
L 80.8128 197.372144 
L 80.99136 132.983003 
L 81.16992 146.0556 
L 81.34848 177.094159 
L 81.52704 169.317474 
L 81.7056 208.952584 
L 82.06272 161.992731 
L 82.41984 208.149041 
L 82.77696 156.312144 
L 82.95552 143.674022 
L 83.13408 189.016781 
L 83.31264 172.094462 
L 83.4912 205.505258 
L 83.66976 173.36893 
L 83.84832 235.61189 
L 84.02688 145.477126 
L 84.384 186.60919 
L 84.56256 139.066428 
L 84.91968 193.784453 
L 85.09824 183.289593 
L 85.2768 189.107423 
L 85.45536 166.083405 
L 85.63392 192.427687 
L 85.81248 183.850179 
L 85.99104 148.647728 
L 86.1696 221.021236 
L 86.34816 170.59986 
L 86.52672 176.362329 
L 86.70528 151.24314 
L 86.88384 183.948796 
L 87.0624 175.135324 
L 87.24096 192.184208 
L 87.41952 174.50669 
L 87.59808 285.408 
L 87.77664 187.541576 
L 88.13376 161.619041 
L 88.49088 238.451699 
L 88.66944 149.50049 
L 88.848 155.161138 
L 89.02656 156.07157 
L 89.20512 135.217214 
L 89.38368 137.043088 
L 89.7408 251.079819 
L 90.09792 192.263228 
L 90.27648 162.577922 
L 90.45504 225.612052 
L 90.6336 147.546975 
L 90.81216 174.032469 
L 90.99072 170.079463 
L 91.34784 225.76604 
L 91.5264 182.533905 
L 91.70496 205.144741 
L 91.88352 175.83198 
L 92.06208 168.7805 
L 92.24064 198.907589 
L 92.4192 195.900507 
L 92.59776 261.66509 
L 92.77632 262.778119 
L 92.95488 178.415465 
L 93.13344 240.43904 
L 93.312 185.46109 
L 93.66912 220.987135 
L 93.84768 161.848561 
L 94.02624 184.690864 
L 94.2048 239.595546 
L 94.38336 173.617507 
L 94.56192 194.720909 
L 94.74048 260.884637 
L 94.91904 196.135791 
L 95.0976 187.333742 
L 95.27616 223.101502 
L 95.45472 185.849589 
L 95.63328 183.069512 
L 95.81184 224.156306 
L 95.9904 162.609326 
L 96.16896 142.534328 
L 96.34752 153.867949 
L 96.52608 248.468902 
L 96.70464 153.725004 
L 96.8832 185.595694 
L 97.06176 159.616512 
L 97.41888 220.024018 
L 97.59744 180.578564 
L 97.776 177.602968 
L 97.95456 147.238916 
L 98.13312 209.988979 
L 98.31168 194.713179 
L 98.49024 219.896013 
L 98.6688 215.009164 
L 98.84736 150.460251 
L 99.02592 179.00588 
L 99.20448 137.9315 
L 99.38304 171.646448 
L 99.5616 168.443343 
L 99.74016 180.088422 
L 99.91872 158.155167 
L 100.09728 215.467619 
L 100.27584 170.561801 
L 100.4544 182.139682 
L 100.81152 156.769875 
L 100.99008 200.891402 
L 101.3472 156.148703 
L 101.52576 159.284434 
L 101.70432 225.819673 
L 101.88288 214.388582 
L 102.06144 140.101005 
L 102.41856 205.101208 
L 102.59712 122.572924 
L 102.77568 137.970533 
L 102.95424 201.488016 
L 103.1328 170.03964 
L 103.48992 214.257902 
L 103.66848 213.676872 
L 103.84704 179.115123 
L 104.20416 197.438217 
L 104.38272 177.857225 
L 104.56128 182.097222 
L 104.73984 157.850232 
L 104.9184 214.830104 
L 105.09696 150.822575 
L 105.27552 181.871667 
L 105.45408 158.704385 
L 105.63264 211.131136 
L 105.8112 130.946259 
L 105.98976 221.601397 
L 106.16832 161.640823 
L 106.52544 204.661669 
L 106.704 185.839803 
L 106.88256 153.628653 
L 107.06112 224.687583 
L 107.23968 222.631112 
L 107.41824 173.171447 
L 107.5968 231.64921 
L 107.77536 209.350186 
L 107.95392 166.332542 
L 108.4896 201.121614 
L 108.66816 220.693412 
L 108.84672 148.809112 
L 109.02528 200.842729 
L 109.20384 161.170322 
L 109.3824 208.20556 
L 109.56096 212.058638 
L 109.73952 202.044961 
L 109.91808 244.124923 
L 110.09664 228.319701 
L 110.2752 228.072123 
L 110.45376 180.448651 
L 110.63232 165.606048 
L 110.81088 191.312925 
L 110.98944 191.234651 
L 111.168 190.567382 
L 111.34656 208.131922 
L 111.52512 175.317464 
L 111.70368 173.795407 
L 111.88224 148.137954 
L 112.0608 148.240654 
L 112.23936 223.517494 
L 112.41792 151.654699 
L 112.59648 154.498575 
L 112.77504 175.00309 
L 112.9536 181.941939 
L 113.13216 211.210809 
L 113.31072 184.550293 
L 113.48928 212.04302 
L 113.66784 182.161435 
L 113.8464 199.246716 
L 114.02496 149.702907 
L 114.20352 211.164363 
L 114.38208 202.296269 
L 114.56064 132.259856 
L 114.7392 225.896947 
L 114.91776 205.280659 
L 115.09632 151.561003 
L 115.45344 200.87317 
L 115.632 171.532351 
L 115.81056 196.029019 
L 115.98912 123.716311 
L 116.16768 176.944967 
L 116.34624 180.599565 
L 116.5248 180.903046 
L 116.70336 217.013433 
L 116.88192 176.885284 
L 117.06048 170.752186 
L 117.23904 185.558287 
L 117.4176 190.012611 
L 117.59616 200.20869 
L 118.13184 130.82661 
L 118.48896 174.632171 
L 118.66752 145.859355 
L 118.84608 192.506223 
L 119.02464 147.694391 
L 119.2032 144.746768 
L 119.38176 176.87794 
L 119.56032 152.96843 
L 119.73888 164.152669 
L 119.91744 191.248101 
L 120.096 173.662173 
L 120.27456 192.623376 
L 120.81024 180.813708 
L 120.9888 184.141727 
L 121.16736 175.301917 
L 121.34592 204.430049 
L 121.52448 173.913754 
L 121.70304 180.080672 
L 121.8816 203.250233 
L 122.06016 197.476192 
L 122.23872 200.251219 
L 122.41728 186.038027 
L 122.59584 154.353907 
L 122.7744 199.03089 
L 123.13152 169.339494 
L 123.31008 137.858345 
L 123.48864 224.719112 
L 123.6672 159.098481 
L 123.84576 195.713552 
L 124.20288 136.605183 
L 124.38144 144.342208 
L 124.56 208.736057 
L 124.91712 162.582123 
L 125.09568 174.876464 
L 125.27424 146.14359 
L 125.4528 180.338352 
L 125.63136 139.504577 
L 125.80992 167.523651 
L 125.98848 137.037942 
L 126.52416 213.53879 
L 126.88128 177.186779 
L 127.05984 185.364657 
L 127.2384 139.329677 
L 127.41696 150.58578 
L 127.59552 148.622928 
L 127.77408 155.004511 
L 127.95264 236.182198 
L 128.1312 221.186547 
L 128.30976 169.169697 
L 128.48832 181.179497 
L 128.66688 152.053032 
L 128.84544 191.823824 
L 129.024 152.373533 
L 129.20256 164.50313 
L 129.38112 140.873281 
L 129.55968 147.517136 
L 129.73824 198.651278 
L 129.9168 154.405491 
L 130.09536 172.098123 
L 130.45248 144.71993 
L 130.98816 210.983834 
L 131.34528 176.830017 
L 131.52384 217.358505 
L 131.88096 137.008889 
L 132.05952 132.511828 
L 132.23808 194.799376 
L 132.41664 193.456072 
L 132.5952 133.265044 
L 132.77376 119.706988 
L 132.95232 192.170076 
L 133.13088 124.693762 
L 133.30944 103.650231 
L 133.66656 149.882804 
L 133.84512 141.138465 
L 134.02368 126.192041 
L 134.20224 175.147215 
L 134.3808 186.142458 
L 134.55936 185.285932 
L 134.73792 180.411176 
L 134.91648 160.199513 
L 135.09504 172.856457 
L 135.2736 127.505173 
L 135.45216 132.489178 
L 135.63072 188.955365 
L 135.80928 125.853333 
L 135.98784 145.396219 
L 136.1664 146.582763 
L 136.52352 106.445459 
L 136.70208 169.223775 
L 136.88064 116.254807 
L 137.23776 173.3556 
L 137.59488 121.309465 
L 137.77344 114.022564 
L 137.952 203.76166 
L 138.13056 125.260367 
L 138.30912 110.670462 
L 138.48768 145.564456 
L 138.66624 146.04992 
L 138.8448 147.958128 
L 139.02336 135.43398 
L 139.20192 132.602325 
L 139.38048 102.468585 
L 139.55904 113.493702 
L 139.91616 166.273337 
L 140.09472 139.105363 
L 140.27328 190.252161 
L 140.45184 181.921456 
L 140.6304 116.06667 
L 140.80896 165.455517 
L 140.98752 144.41582 
L 141.16608 161.085672 
L 141.34464 188.401198 
L 141.5232 148.698798 
L 141.88032 171.343992 
L 142.05888 159.992877 
L 142.23744 172.605245 
L 142.416 134.986692 
L 142.59456 186.194149 
L 142.77312 178.540802 
L 142.95168 185.691352 
L 143.13024 138.921787 
L 143.3088 171.826049 
L 143.66592 162.41484 
L 143.84448 172.137025 
L 144.02304 169.515823 
L 144.2016 143.42112 
L 144.38016 139.965697 
L 144.55872 141.561837 
L 144.73728 203.457501 
L 144.91584 202.177173 
L 145.0944 188.35488 
L 145.27296 186.88973 
L 145.45152 151.891565 
L 145.63008 176.110029 
L 145.80864 113.960098 
L 145.9872 163.0589 
L 146.16576 152.840079 
L 146.34432 128.607445 
L 146.52288 128.915069 
L 146.70144 122.894324 
L 146.88 173.266624 
L 147.05856 170.021994 
L 147.23712 151.255736 
L 147.41568 118.421467 
L 147.59424 108.964369 
L 147.7728 126.659729 
L 147.95136 107.46066 
L 148.12992 163.041274 
L 148.30848 138.775615 
L 148.48704 139.656235 
L 148.6656 149.2394 
L 149.02272 137.111117 
L 149.37984 171.686964 
L 149.5584 166.97429 
L 149.73696 104.035711 
L 150.09408 172.886157 
L 150.27264 148.823836 
L 150.62976 162.170563 
L 150.80832 152.987627 
L 150.98688 158.922052 
L 151.344 138.568397 
L 151.52256 143.845527 
L 151.70112 197.905031 
L 151.87968 153.976794 
L 152.05824 172.215172 
L 152.2368 167.465212 
L 152.41536 125.421428 
L 152.59392 120.484899 
L 152.95104 133.11646 
L 153.1296 166.105222 
L 153.30816 164.180736 
L 153.48672 183.397639 
L 153.66528 130.977569 
L 154.0224 183.517241 
L 154.20096 125.109938 
L 154.37952 213.601695 
L 154.55808 153.809694 
L 154.73664 212.221818 
L 154.9152 133.986994 
L 155.09376 145.135868 
L 155.27232 190.670607 
L 155.45088 140.822897 
L 155.808 148.303004 
L 155.98656 121.026444 
L 156.16512 149.959744 
L 156.52224 99.353827 
L 156.7008 148.013339 
L 156.87936 113.397284 
L 157.05792 148.895792 
L 157.23648 116.694314 
L 157.41504 174.21348 
L 157.5936 84.884511 
L 157.77216 109.319225 
L 157.95072 98.281586 
L 158.12928 102.666439 
L 158.30784 152.486058 
L 158.4864 111.119312 
L 158.66496 175.400405 
L 158.84352 99.810703 
L 159.02208 181.784918 
L 159.20064 110.926493 
L 159.3792 163.381258 
L 159.73632 140.414122 
L 159.91488 154.794793 
L 160.272 98.569796 
L 160.45056 192.111344 
L 160.62912 153.962439 
L 160.80768 150.78101 
L 160.98624 132.373428 
L 161.1648 129.155381 
L 161.34336 180.225113 
L 161.70048 138.918264 
L 161.87904 138.467809 
L 162.23616 147.369907 
L 162.41472 156.346261 
L 162.59328 143.278526 
L 162.77184 152.145619 
L 162.9504 187.460906 
L 163.30752 135.021805 
L 163.48608 221.800473 
L 163.66464 154.895642 
L 163.8432 153.006668 
L 164.02176 141.347645 
L 164.20032 185.074991 
L 164.37888 139.690866 
L 164.55744 170.471551 
L 164.736 134.595572 
L 164.91456 141.112713 
L 165.09312 143.500832 
L 165.27168 218.590788 
L 165.45024 125.582827 
L 165.6288 142.355032 
L 165.80736 144.693799 
L 165.98592 144.670203 
L 166.16448 189.319698 
L 166.34304 192.025945 
L 166.5216 151.12618 
L 166.70016 168.94531 
L 166.87872 131.032494 
L 167.05728 120.478531 
L 167.23584 129.535182 
L 167.4144 129.141136 
L 167.59296 165.304502 
L 167.77152 171.319189 
L 167.95008 118.464572 
L 168.12864 150.990631 
L 168.3072 160.144123 
L 168.48576 179.089103 
L 168.66432 160.790652 
L 168.84288 157.239449 
L 169.02144 115.470603 
L 169.2 170.293762 
L 169.37856 146.442248 
L 169.73568 183.603875 
L 169.91424 151.403364 
L 170.0928 151.773394 
L 170.27136 123.777115 
L 170.44992 127.555892 
L 170.62848 209.692847 
L 170.9856 148.629561 
L 171.16416 153.515349 
L 171.34272 131.259461 
L 171.52128 179.878872 
L 171.69984 197.154218 
L 171.8784 132.816957 
L 172.05696 195.975733 
L 172.23552 187.263879 
L 172.41408 117.171364 
L 172.59264 165.310876 
L 172.7712 176.066351 
L 172.94976 132.303781 
L 173.12832 132.555755 
L 173.48544 158.564325 
L 173.84256 123.303603 
L 174.02112 160.991369 
L 174.19968 128.145808 
L 174.37824 131.856128 
L 174.73536 195.795725 
L 174.91392 132.854494 
L 175.27104 172.565852 
L 175.4496 149.952906 
L 175.62816 217.811894 
L 175.80672 110.41853 
L 175.98528 138.599024 
L 176.3424 126.065142 
L 176.52096 133.507688 
L 176.69952 151.005003 
L 176.87808 136.711482 
L 177.05664 137.620733 
L 177.2352 174.855319 
L 177.59232 143.965186 
L 177.77088 160.039906 
L 177.94944 123.644414 
L 178.128 116.369322 
L 178.66368 179.758724 
L 178.84224 137.042158 
L 179.0208 133.318426 
L 179.37792 113.915141 
L 179.55648 148.636289 
L 179.73504 146.883826 
L 179.9136 87.028737 
L 180.27072 140.049651 
L 180.44928 140.670167 
L 180.62784 126.52666 
L 180.8064 139.296165 
L 180.98496 120.447879 
L 181.16352 130.390435 
L 181.34208 131.099223 
L 181.6992 86.862216 
L 181.87776 83.493477 
L 182.05632 111.301928 
L 182.23488 106.457257 
L 182.592 82.058991 
L 182.77056 79.345936 
L 182.94912 95.100666 
L 183.12768 137.494021 
L 183.30624 135.319593 
L 183.66336 81.928928 
L 183.84192 77.700468 
L 184.02048 78.243834 
L 184.19904 85.795327 
L 184.3776 122.917245 
L 184.55616 103.325637 
L 184.73472 98.697798 
L 184.91328 99.748283 
L 185.09184 133.037721 
L 185.2704 130.587624 
L 185.44896 114.998868 
L 185.62752 86.736294 
L 185.80608 138.911826 
L 185.98464 94.171946 
L 186.1632 117.282399 
L 186.34176 107.219473 
L 186.52032 131.926468 
L 186.69888 96.986809 
L 186.87744 109.977712 
L 187.056 98.835483 
L 187.23456 159.750172 
L 187.41312 119.282572 
L 187.59168 122.197103 
L 187.77024 171.181886 
L 187.9488 104.73753 
L 188.12736 106.488045 
L 188.30592 101.620017 
L 188.48448 109.400308 
L 188.66304 111.403572 
L 188.8416 154.333023 
L 189.02016 106.861349 
L 189.19872 128.402506 
L 189.37728 173.41795 
L 189.55584 120.299613 
L 189.7344 127.414837 
L 189.91296 146.666588 
L 190.09152 134.327948 
L 190.27008 110.70214 
L 190.44864 169.198201 
L 190.6272 122.38311 
L 190.80576 108.397213 
L 190.98432 174.129637 
L 191.16288 185.181053 
L 191.52 138.891272 
L 191.69856 124.750729 
L 191.87712 120.252331 
L 192.05568 179.944475 
L 192.23424 180.438998 
L 192.4128 144.169842 
L 192.59136 183.899818 
L 192.76992 144.813319 
L 192.94848 142.111905 
L 193.3056 102.154691 
L 193.48416 109.044923 
L 193.66272 110.423055 
L 194.01984 122.110259 
L 194.1984 157.513949 
L 194.37696 138.863723 
L 194.55552 100.2326 
L 194.73408 88.787268 
L 194.91264 98.311998 
L 195.0912 135.882029 
L 195.26976 96.851543 
L 195.44832 116.762372 
L 195.62688 116.634798 
L 195.80544 121.411084 
L 195.984 133.844248 
L 196.16256 135.361631 
L 196.34112 153.900248 
L 196.51968 117.760098 
L 196.69824 130.496689 
L 196.8768 109.672672 
L 197.41248 131.887988 
L 197.59104 119.811735 
L 197.7696 99.544206 
L 198.12672 128.09682 
L 198.30528 145.985636 
L 198.48384 106.610581 
L 198.6624 166.659843 
L 199.01952 107.305913 
L 199.19808 110.258979 
L 199.37664 139.258054 
L 199.5552 111.871564 
L 199.73376 121.789011 
L 199.91232 109.981204 
L 200.09088 127.504081 
L 200.26944 129.410607 
L 200.62656 147.605215 
L 200.80512 136.135101 
L 200.98368 105.553927 
L 201.16224 104.403205 
L 201.3408 124.664067 
L 201.51936 115.932785 
L 201.69792 126.813965 
L 201.87648 153.46202 
L 202.05504 119.33257 
L 202.2336 111.362697 
L 202.41216 142.676476 
L 202.59072 151.655706 
L 202.76928 149.812255 
L 202.94784 116.522629 
L 203.1264 158.674128 
L 203.30496 113.165477 
L 203.48352 157.557474 
L 203.66208 82.105728 
L 203.84064 158.529571 
L 204.0192 155.878719 
L 204.19776 114.410659 
L 204.37632 129.180657 
L 204.55488 154.37259 
L 204.73344 148.07727 
L 205.09056 105.735966 
L 205.26912 118.794693 
L 205.44768 111.931318 
L 205.62624 125.695108 
L 205.8048 124.972293 
L 205.98336 138.752805 
L 206.16192 110.832597 
L 206.34048 134.60774 
L 206.51904 98.634539 
L 206.6976 114.975822 
L 206.87616 87.868223 
L 207.05472 93.89984 
L 207.23328 131.432576 
L 207.41184 107.530827 
L 207.5904 117.061989 
L 207.76896 144.281731 
L 208.30464 93.446626 
L 208.4832 129.773945 
L 208.66176 98.27756 
L 208.84032 127.847233 
L 209.01888 107.435064 
L 209.19744 109.653335 
L 209.376 104.858412 
L 209.73312 131.846327 
L 210.09024 95.503512 
L 210.2688 144.386568 
L 210.44736 90.129623 
L 210.62592 108.163109 
L 210.80448 106.282051 
L 210.98304 107.049402 
L 211.1616 111.940602 
L 211.51872 86.188438 
L 211.69728 102.535793 
L 211.87584 100.082733 
L 212.23296 116.131836 
L 212.41152 117.521781 
L 212.59008 110.919118 
L 212.9472 83.605436 
L 213.12576 93.180373 
L 213.30432 89.445992 
L 213.48288 89.108036 
L 213.66144 95.720946 
L 213.84 63.648 
L 214.01856 104.870537 
L 214.19712 113.745726 
L 214.37568 78.14388 
L 214.55424 95.088415 
L 214.7328 75.774784 
L 214.91136 76.712462 
L 215.08992 80.059488 
L 215.26848 80.303804 
L 215.44704 99.859924 
L 215.80416 83.143588 
L 215.98272 80.763279 
L 216.16128 76.237919 
L 216.33984 88.161473 
L 216.5184 83.163739 
L 216.69696 100.702738 
L 217.05408 75.806125 
L 217.23264 123.891359 
L 217.4112 86.598071 
L 217.58976 92.77483 
L 217.76832 90.10436 
L 217.94688 123.634318 
L 218.12544 78.048006 
L 218.304 77.887449 
L 218.48256 81.480166 
L 218.66112 88.538143 
L 218.83968 73.926343 
L 219.1968 101.01548 
L 219.37536 96.71503 
L 219.55392 85.153835 
L 219.73248 80.88996 
L 219.91104 89.425739 
L 220.26816 87.981241 
L 220.44672 134.524487 
L 220.62528 75.673841 
L 220.9824 95.784264 
L 221.16096 97.679612 
L 221.51808 78.099316 
L 221.69664 80.4465 
L 221.8752 68.378783 
L 222.23232 87.601025 
L 222.41088 81.424172 
L 222.58944 68.387953 
L 222.768 99.283049 
L 222.94656 71.510632 
L 223.12512 71.813254 
L 223.30368 94.072131 
L 223.6608 69.410485 
L 223.83936 83.61284 
L 224.01792 66.898261 
L 224.37504 125.518435 
L 224.73216 96.806183 
L 224.91072 106.813842 
L 225.08928 94.25323 
L 225.26784 112.806305 
L 225.4464 117.177326 
L 225.62496 81.61787 
L 225.80352 131.278394 
L 225.98208 87.318439 
L 226.16064 82.755822 
L 226.3392 104.832757 
L 226.51776 84.046733 
L 226.69632 116.695749 
L 226.87488 128.640591 
L 227.05344 114.463236 
L 227.232 83.437774 
L 227.41056 87.934194 
L 227.58912 123.112066 
L 227.76768 124.122233 
L 227.94624 126.742295 
L 228.1248 138.126416 
L 228.30336 93.035037 
L 228.48192 110.558385 
L 228.66048 81.871053 
L 228.83904 86.61991 
L 229.0176 130.644217 
L 229.37472 89.028558 
L 229.55328 82.150325 
L 229.73184 103.729944 
L 229.9104 95.144073 
L 230.08896 141.394414 
L 230.26752 113.325991 
L 230.44608 112.328119 
L 230.62464 106.00899 
L 230.8032 108.704149 
L 230.98176 100.832661 
L 231.16032 98.561646 
L 231.33888 133.91657 
L 231.51744 92.057566 
L 231.696 98.11632 
L 231.87456 115.214267 
L 232.05312 118.632662 
L 232.23168 97.218157 
L 232.41024 108.283056 
L 232.5888 128.982738 
L 232.76736 87.443572 
L 232.94592 138.250137 
L 233.12448 141.255293 
L 233.30304 107.53129 
L 233.4816 101.706289 
L 233.66016 118.626512 
L 233.83872 160.317791 
L 234.19584 89.722893 
L 234.3744 111.357014 
L 234.73152 100.248954 
L 234.91008 114.809912 
L 235.08864 92.620222 
L 235.2672 158.137189 
L 235.44576 80.048075 
L 235.62432 104.322298 
L 235.80288 104.910462 
L 235.98144 119.205594 
L 236.16 109.683531 
L 236.33856 136.106641 
L 236.51712 99.618496 
L 236.69568 112.618556 
L 236.87424 114.77273 
L 237.23136 150.620358 
L 237.58848 109.007146 
L 237.76704 153.245826 
L 237.9456 115.929666 
L 238.12416 136.812102 
L 238.30272 139.490566 
L 238.48128 138.50356 
L 238.65984 135.111096 
L 238.8384 100.250572 
L 239.01696 124.368534 
L 239.19552 121.159428 
L 239.37408 102.550423 
L 239.55264 108.68482 
L 239.7312 106.374046 
L 239.90976 120.684659 
L 240.08832 125.07874 
L 240.26688 140.045206 
L 240.44544 144.448132 
L 240.624 92.88446 
L 240.98112 129.029673 
L 241.15968 130.001192 
L 241.5168 145.455602 
L 241.69536 141.048157 
L 241.87392 117.355049 
L 242.05248 133.403325 
L 242.23104 123.865344 
L 242.4096 123.776788 
L 242.58816 88.138087 
L 242.76672 108.323546 
L 242.94528 107.477136 
L 243.12384 148.78389 
L 243.3024 107.09786 
L 243.48096 115.808367 
L 243.65952 135.051316 
L 243.83808 99.675374 
L 244.01664 126.134975 
L 244.1952 110.487868 
L 244.37376 134.688143 
L 244.73088 96.368698 
L 245.26656 142.807461 
L 245.44512 90.124674 
L 245.62368 121.897298 
L 245.80224 104.650415 
L 245.9808 110.496595 
L 246.15936 127.125333 
L 246.33792 133.275325 
L 246.51648 103.374542 
L 246.69504 104.035434 
L 246.8736 145.845081 
L 247.05216 102.244112 
L 247.23072 87.46545 
L 247.40928 129.024451 
L 247.7664 109.167926 
L 247.94496 141.218611 
L 248.12352 128.076296 
L 248.30208 102.050397 
L 248.48064 124.145211 
L 249.01632 94.329203 
L 249.19488 124.464088 
L 249.37344 128.76619 
L 249.552 125.346238 
L 249.90912 96.918152 
L 250.08768 114.243539 
L 250.26624 114.83398 
L 250.4448 95.463281 
L 250.62336 119.405879 
L 250.80192 99.476258 
L 250.98048 124.485598 
L 251.15904 111.021734 
L 251.3376 121.067873 
L 251.51616 113.16714 
L 251.69472 124.664796 
L 251.87328 110.983279 
L 252.05184 135.116688 
L 252.2304 114.41861 
L 252.40896 148.856586 
L 252.76608 118.246879 
L 252.94464 91.632012 
L 253.1232 93.482468 
L 253.48032 106.276661 
L 253.65888 103.736417 
L 253.83744 112.492123 
L 254.19456 159.966863 
L 254.37312 83.673523 
L 254.55168 124.913748 
L 254.73024 93.170429 
L 254.9088 118.085499 
L 255.08736 120.644897 
L 255.26592 133.174562 
L 255.44448 106.443875 
L 255.62304 105.838564 
L 255.8016 111.70696 
L 255.98016 97.118654 
L 256.15872 125.126425 
L 256.33728 118.181317 
L 256.51584 136.974374 
L 256.6944 89.595404 
L 256.87296 133.650089 
L 257.05152 129.535404 
L 257.23008 107.382429 
L 257.40864 162.238703 
L 257.76576 108.613701 
L 257.94432 141.413979 
L 258.12288 119.984477 
L 258.30144 150.868736 
L 258.48 121.551234 
L 258.65856 131.234518 
L 258.83712 103.096633 
L 259.3728 127.452621 
L 259.55136 123.742188 
L 259.72992 159.627641 
L 259.90848 134.773725 
L 260.08704 151.866857 
L 260.2656 132.900769 
L 260.44416 143.176542 
L 260.80128 122.74507 
L 260.97984 122.744526 
L 261.1584 135.122971 
L 261.33696 118.302936 
L 261.51552 128.385219 
L 261.69408 122.985374 
L 262.22976 146.092291 
L 262.40832 125.261295 
L 262.58688 151.559409 
L 262.76544 148.741868 
L 262.944 139.948129 
L 263.12256 165.12428 
L 263.30112 156.59347 
L 263.47968 140.555887 
L 263.65824 200.824991 
L 263.8368 133.99084 
L 264.01536 146.89532 
L 264.19392 134.362388 
L 264.37248 156.204537 
L 264.55104 135.053208 
L 264.7296 146.472415 
L 264.90816 134.401351 
L 265.08672 158.493625 
L 265.26528 137.964568 
L 265.44384 168.234258 
L 265.6224 126.03507 
L 265.80096 149.653492 
L 265.97952 131.554472 
L 266.15808 147.145843 
L 266.33664 146.88526 
L 266.5152 164.677493 
L 267.05088 110.867635 
L 267.408 155.789192 
L 267.58656 134.92472 
L 267.76512 147.7989 
L 267.94368 150.490336 
L 268.12224 141.671694 
L 268.3008 161.310293 
L 268.47936 120.239805 
L 268.65792 161.033118 
L 269.01504 118.169121 
L 269.1936 151.090178 
L 269.37216 162.241255 
L 269.55072 126.864094 
L 269.72928 150.980436 
L 269.90784 153.405414 
L 270.26496 132.054767 
L 270.44352 156.924505 
L 270.80064 138.374323 
L 270.9792 135.275692 
L 271.15776 136.662381 
L 271.33632 179.389205 
L 271.51488 190.509514 
L 271.69344 123.955574 
L 271.872 133.612446 
L 272.05056 164.815397 
L 272.22912 109.154798 
L 272.40768 152.6363 
L 272.58624 168.578076 
L 272.7648 124.316457 
L 272.94336 110.087543 
L 273.12192 109.397141 
L 273.30048 168.510359 
L 273.47904 127.513529 
L 273.6576 123.548031 
L 273.83616 132.846309 
L 274.01472 149.556215 
L 274.19328 99.870263 
L 274.37184 139.692777 
L 274.72896 145.366116 
L 274.90752 141.498986 
L 275.08608 164.763848 
L 275.26464 151.061298 
L 275.4432 128.74741 
L 275.62176 158.469366 
L 275.80032 133.542047 
L 275.97888 178.099626 
L 276.15744 141.91231 
L 276.336 136.205107 
L 276.51456 126.034615 
L 276.69312 165.859246 
L 277.05024 160.932493 
L 277.2288 146.736781 
L 277.40736 155.739758 
L 277.58592 151.045133 
L 277.76448 160.041018 
L 277.94304 140.873422 
L 278.1216 142.449482 
L 278.47872 164.617265 
L 278.65728 168.969748 
L 279.0144 141.894434 
L 279.37152 158.132297 
L 279.55008 140.91829 
L 279.72864 159.652818 
L 279.9072 193.399217 
L 280.08576 275.469881 
L 280.26432 134.948705 
L 280.44288 139.593659 
L 280.62144 170.036181 
L 280.97856 125.553277 
L 281.15712 142.094489 
L 281.51424 152.103475 
L 281.6928 141.488151 
L 281.87136 199.027768 
L 282.22848 121.088303 
L 282.40704 112.216731 
L 282.5856 135.021712 
L 282.76416 133.305179 
L 283.12128 155.444372 
L 283.29984 133.898832 
L 283.4784 166.239956 
L 283.65696 149.853963 
L 283.83552 167.527254 
L 284.01408 159.860338 
L 284.19264 136.926483 
L 284.3712 145.289181 
L 284.54976 141.774311 
L 284.72832 132.848894 
L 284.90688 180.416642 
L 285.08544 177.665377 
L 285.264 145.164672 
L 285.44256 155.633833 
L 285.62112 155.656715 
L 285.79968 139.826249 
L 285.97824 140.043799 
L 286.1568 103.228034 
L 286.69248 197.4733 
L 286.87104 145.323666 
L 287.0496 178.788553 
L 287.22816 140.709689 
L 287.40672 150.165528 
L 287.58528 142.254848 
L 287.76384 238.721676 
L 288.12096 119.623209 
L 288.29952 120.588755 
L 288.47808 170.030131 
L 288.65664 181.439907 
L 288.8352 170.612219 
L 289.01376 139.200059 
L 289.19232 159.73809 
L 289.37088 127.467718 
L 289.54944 163.382567 
L 289.728 168.416974 
L 289.90656 162.429308 
L 290.26368 109.965515 
L 290.6208 219.899862 
L 290.79936 160.424451 
L 290.97792 192.753036 
L 291.15648 182.301913 
L 291.33504 189.303511 
L 291.87072 145.37401 
L 292.04928 143.53994 
L 292.22784 130.57353 
L 292.4064 150.783031 
L 292.58496 137.089892 
L 292.76352 142.777988 
L 292.94208 180.25057 
L 293.47776 146.943825 
L 293.65632 174.044527 
L 294.01344 126.083686 
L 294.192 171.573052 
L 294.37056 180.574565 
L 294.54912 176.343314 
L 294.72768 157.929964 
L 294.90624 154.615361 
L 295.26336 140.612163 
L 295.44192 199.919935 
L 295.62048 141.16215 
L 295.79904 133.479004 
L 295.9776 191.812578 
L 296.15616 139.866653 
L 296.33472 136.96816 
L 296.69184 154.916786 
L 296.8704 148.094652 
L 297.04896 149.05035 
L 297.22752 138.969054 
L 297.7632 157.274788 
L 297.94176 129.691732 
L 298.12032 141.611803 
L 298.29888 184.935825 
L 298.47744 138.271263 
L 298.656 162.212894 
L 299.01312 131.591948 
L 299.19168 232.171288 
L 299.37024 120.204722 
L 299.5488 136.564012 
L 299.72736 112.811199 
L 300.08448 152.644258 
L 300.26304 155.117304 
L 300.4416 123.178177 
L 300.62016 134.481324 
L 300.79872 135.770075 
L 300.97728 158.641 
L 301.15584 144.034017 
L 301.3344 186.559531 
L 301.51296 135.764497 
L 301.69152 133.095643 
L 301.87008 142.777704 
L 302.04864 138.579137 
L 302.2272 122.16813 
L 302.40576 126.762856 
L 302.58432 160.732966 
L 302.76288 132.64874 
L 302.94144 129.538333 
L 303.12 131.635983 
L 303.47712 149.856715 
L 303.65568 117.792844 
L 303.83424 160.273563 
L 304.0128 117.211741 
L 304.19136 133.615902 
L 304.36992 164.778459 
L 304.54848 139.751446 
L 304.72704 152.674587 
L 304.9056 146.178528 
L 305.08416 172.188756 
L 305.26272 113.899394 
L 305.61984 193.994195 
L 305.7984 128.175476 
L 305.97696 152.848304 
L 306.15552 159.586858 
L 306.33408 132.979799 
L 306.51264 153.16367 
L 306.6912 121.149163 
L 306.86976 135.374961 
L 307.04832 136.955609 
L 307.22688 135.46531 
L 307.40544 159.497332 
L 307.584 123.5708 
L 307.76256 144.916666 
L 307.94112 149.482015 
L 308.11968 117.317334 
L 308.4768 135.006858 
L 308.65536 126.952814 
L 308.83392 109.315822 
L 309.19104 173.042512 
L 309.3696 120.782911 
L 309.54816 168.470366 
L 309.90528 122.78301 
L 310.08384 120.490108 
L 310.2624 128.579364 
L 310.44096 173.164215 
L 310.61952 147.011074 
L 310.79808 174.323262 
L 311.1552 118.573049 
L 311.33376 122.231576 
L 311.69088 145.214199 
L 312.048 125.61642 
L 312.22656 149.451341 
L 312.40512 156.862333 
L 312.58368 140.105847 
L 312.76224 150.261084 
L 312.9408 129.23046 
L 313.11936 150.229813 
L 313.29792 129.326338 
L 313.47648 165.815129 
L 313.65504 119.232079 
L 313.8336 160.98813 
L 314.36928 98.427439 
L 314.90496 182.162891 
L 315.08352 134.71178 
L 315.26208 156.801829 
L 315.44064 151.083731 
L 315.6192 209.276442 
L 315.79776 109.967637 
L 316.15488 143.47398 
L 316.512 156.437144 
L 316.69056 126.964895 
L 316.86912 144.330062 
L 317.04768 128.86595 
L 317.22624 164.910398 
L 317.4048 159.480179 
L 317.58336 148.447267 
L 317.76192 154.978174 
L 317.94048 109.33873 
L 318.11904 145.864312 
L 318.2976 154.561481 
L 318.65472 123.268855 
L 318.83328 159.140532 
L 319.1904 123.733255 
L 319.36896 140.170034 
L 319.54752 136.432116 
L 319.72608 177.183344 
L 319.90464 133.418425 
L 320.26176 162.020666 
L 320.44032 154.601375 
L 320.61888 171.002652 
L 320.79744 158.388106 
L 320.976 133.936512 
L 321.15456 139.490036 
L 321.33312 135.147699 
L 321.51168 158.47434 
L 321.69024 159.347283 
L 321.8688 155.927153 
L 322.04736 149.727467 
L 322.22592 149.463437 
L 322.40448 141.975355 
L 322.58304 194.981108 
L 322.94016 120.02285 
L 323.29728 184.69417 
L 323.47584 148.548715 
L 323.6544 190.938732 
L 324.19008 117.722561 
L 324.36864 138.832643 
L 324.5472 126.837759 
L 324.72576 132.992986 
L 324.90432 187.664011 
L 325.08288 181.220831 
L 325.26144 140.095887 
L 325.61856 118.624191 
L 325.79712 115.687595 
L 325.97568 160.970061 
L 326.15424 119.608384 
L 326.51136 143.687562 
L 326.68992 149.72608 
L 326.86848 137.900297 
L 327.04704 135.541815 
L 327.2256 182.796321 
L 327.40416 115.640362 
L 327.58272 127.374737 
L 327.76128 187.104564 
L 327.93984 179.570628 
L 328.1184 123.909952 
L 328.29696 131.346039 
L 328.47552 119.148202 
L 328.65408 114.648151 
L 328.83264 115.66676 
L 329.0112 150.415376 
L 329.18976 138.532066 
L 329.36832 135.684547 
L 329.54688 151.841176 
L 329.72544 146.538424 
L 329.904 152.718141 
L 330.08256 132.494102 
L 330.26112 133.679221 
L 330.43968 111.225904 
L 330.7968 133.09978 
L 330.97536 134.056559 
L 331.15392 124.246387 
L 331.33248 135.061972 
L 331.51104 129.208976 
L 331.6896 141.855909 
L 331.86816 145.549288 
L 332.04672 110.991077 
L 332.22528 136.168211 
L 332.40384 179.388132 
L 332.5824 181.098269 
L 332.76096 244.666074 
L 332.93952 158.434055 
L 333.11808 181.129614 
L 333.29664 112.764353 
L 333.4752 166.834177 
L 333.65376 169.681534 
L 333.83232 129.607935 
L 334.01088 145.222972 
L 334.18944 173.581675 
L 334.368 138.775673 
L 334.54656 152.64265 
L 334.72512 129.351287 
L 334.90368 155.129811 
L 335.08224 129.707127 
L 335.2608 156.995779 
L 335.43936 102.293522 
L 335.61792 145.879083 
L 335.79648 145.524281 
L 335.97504 172.930271 
L 336.1536 157.127619 
L 336.33216 168.952799 
L 336.51072 145.929669 
L 336.68928 152.796828 
L 336.86784 132.739067 
L 337.0464 148.144479 
L 337.22496 144.799845 
L 337.40352 149.729608 
L 337.58208 120.451992 
L 337.9392 194.494384 
L 338.11776 112.941182 
L 338.29632 171.203008 
L 338.65344 124.049596 
L 338.832 189.752659 
L 339.01056 130.143667 
L 339.18912 117.275208 
L 339.54624 163.276677 
L 339.7248 133.788383 
L 339.90336 153.645965 
L 340.08192 131.186403 
L 340.43904 136.396301 
L 340.6176 141.40523 
L 340.79616 162.434097 
L 341.15328 128.014693 
L 341.5104 158.18926 
L 341.86752 126.500007 
L 342.04608 192.369807 
L 342.22464 128.953713 
L 342.4032 149.798391 
L 342.58176 135.956242 
L 342.76032 178.935114 
L 342.93888 129.401845 
L 343.11744 145.178252 
L 343.296 146.588714 
L 343.47456 128.59919 
L 343.65312 162.307238 
L 343.83168 161.25274 
L 344.01024 151.804639 
L 344.1888 130.960727 
L 344.36736 160.352604 
L 344.54592 131.941975 
L 344.72448 150.938204 
L 344.90304 138.957548 
L 345.26016 155.068572 
L 345.43872 120.835182 
L 345.61728 149.691832 
L 345.79584 151.267018 
L 345.9744 133.987665 
L 346.15296 283.968243 
L 346.33152 163.172441 
L 346.51008 144.198192 
L 346.68864 168.737389 
L 346.8672 158.540786 
L 347.22432 125.471713 
L 347.40288 151.307685 
L 347.58144 141.063895 
L 347.76 155.672596 
L 347.93856 149.451063 
L 348.11712 159.738245 
L 348.29568 156.264459 
L 348.47424 163.422549 
L 348.6528 123.410637 
L 348.83136 148.358943 
L 349.00992 144.885303 
L 349.18848 145.611541 
L 349.36704 129.827078 
L 349.5456 136.939573 
L 349.90272 119.007048 
L 350.08128 148.292216 
L 350.25984 149.231668 
L 350.4384 162.276591 
L 350.61696 148.623177 
L 350.79552 104.609896 
L 350.97408 164.737623 
L 351.15264 128.802115 
L 351.3312 155.383553 
L 351.50976 130.121099 
L 351.68832 197.403393 
L 351.86688 137.129256 
L 352.04544 139.13057 
L 352.224 134.385003 
L 352.40256 163.179795 
L 352.58112 166.895249 
L 352.75968 110.828722 
L 352.93824 164.419662 
L 353.1168 164.572158 
L 353.47392 119.549407 
L 353.83104 152.72607 
L 354.0096 147.407826 
L 354.18816 112.075366 
L 354.36672 162.730461 
L 354.54528 142.382965 
L 354.72384 200.487372 
L 355.25952 133.930517 
L 355.43808 208.567727 
L 355.7952 133.359046 
L 355.97376 162.941545 
L 356.15232 136.31976 
L 356.33088 150.153875 
L 356.50944 142.27807 
L 356.688 171.82469 
L 356.86656 142.969976 
L 357.04512 189.350482 
L 357.22368 143.00407 
L 357.40224 146.397014 
L 357.75936 130.572278 
L 357.93792 154.102393 
L 358.11648 133.581067 
L 358.29504 162.43974 
L 358.4736 138.876438 
L 358.83072 170.34816 
L 359.00928 153.721188 
L 359.18784 162.818733 
L 359.3664 115.386565 
L 359.54496 172.302786 
L 359.72352 169.881643 
L 359.90208 150.3186 
L 360.08064 173.181328 
L 360.2592 135.724285 
L 360.61632 178.357565 
L 360.79488 138.299966 
L 361.152 159.679493 
L 361.33056 134.708121 
L 361.50912 146.042931 
L 361.68768 139.144115 
L 361.86624 179.967313 
L 362.0448 138.631248 
L 362.22336 136.636585 
L 362.40192 128.29934 
L 362.58048 136.698365 
L 362.75904 175.882084 
L 362.9376 123.790351 
L 363.11616 164.924736 
L 363.29472 167.257122 
L 363.47328 157.346935 
L 363.65184 200.810139 
L 363.8304 122.566512 
L 364.00896 123.171647 
L 364.18752 139.217014 
L 364.36608 138.718409 
L 364.54464 121.551842 
L 364.7232 144.607904 
L 364.90176 138.205579 
L 365.08032 141.782492 
L 365.25888 139.430196 
L 365.43744 129.822595 
L 365.616 169.157859 
L 365.79456 146.884677 
L 365.97312 148.382568 
L 366.15168 163.277007 
L 366.33024 168.143904 
L 366.5088 131.357326 
L 366.68736 138.315247 
L 366.86592 132.532663 
L 367.04448 113.919061 
L 367.22304 152.61576 
L 367.4016 139.442173 
L 367.58016 176.946826 
L 367.75872 164.789297 
L 367.93728 140.982472 
L 368.11584 177.486862 
L 368.2944 137.027885 
L 368.47296 211.775583 
L 368.83008 156.660161 
L 369.1872 135.559169 
L 369.36576 153.079994 
L 369.54432 142.61632 
L 369.72288 166.654817 
L 370.25856 130.338457 
L 370.43712 142.099093 
L 370.61568 142.076714 
L 370.79424 143.916229 
L 370.9728 180.255186 
L 371.15136 141.983071 
L 371.32992 156.536933 
L 371.50848 182.784853 
L 371.68704 153.600464 
L 371.8656 146.673704 
L 372.04416 194.974897 
L 372.22272 132.699301 
L 372.40128 132.631254 
L 372.57984 159.868631 
L 373.11552 127.167854 
L 373.29408 129.132169 
L 373.47264 159.167156 
L 373.6512 139.40711 
L 373.82976 159.422124 
L 374.00832 153.57455 
L 374.18688 129.717095 
L 374.36544 162.552146 
L 374.544 118.53002 
L 374.72256 143.913038 
L 374.90112 146.18819 
L 375.07968 154.488622 
L 375.25824 145.352802 
L 375.4368 215.469534 
L 375.61536 142.88308 
L 375.79392 130.438166 
L 375.97248 185.72636 
L 376.15104 133.617645 
L 376.3296 165.516676 
L 376.50816 134.811448 
L 376.68672 202.5677 
L 376.86528 151.165946 
L 377.04384 156.534215 
L 377.2224 138.581225 
L 377.40096 137.628615 
L 377.57952 149.196306 
L 377.75808 133.237175 
L 377.93664 133.273259 
L 378.1152 139.812706 
L 378.29376 138.863273 
L 378.47232 157.50695 
L 378.65088 122.272819 
L 379.008 170.340669 
L 379.18656 187.361992 
L 379.36512 138.961884 
L 379.54368 158.149029 
L 379.72224 160.716285 
L 379.9008 156.069509 
L 380.07936 222.007348 
L 380.25792 121.203615 
L 380.43648 176.707087 
L 380.61504 155.66876 
L 380.7936 174.138713 
L 380.97216 137.35219 
L 381.15072 198.097663 
L 381.32928 183.077992 
L 381.6864 133.176692 
L 381.86496 124.089347 
L 382.04352 128.985451 
L 382.22208 144.330126 
L 382.40064 130.367709 
L 382.75776 156.759494 
L 382.93632 144.201791 
L 383.29344 180.15764 
L 383.472 133.702195 
L 383.65056 135.145716 
L 383.82912 123.886843 
L 384.18624 188.468371 
L 384.3648 110.691402 
L 384.54336 165.696645 
L 384.72192 154.657042 
L 384.90048 131.240613 
L 385.2576 181.267827 
L 385.43616 137.785951 
L 385.61472 154.006527 
L 385.79328 148.0817 
L 386.1504 126.726491 
L 386.32896 193.912056 
L 386.50752 117.776894 
L 386.86464 173.920921 
L 387.0432 135.496788 
L 387.40032 165.837039 
L 387.57888 138.986807 
L 387.75744 165.273949 
L 387.936 134.715549 
L 388.11456 139.496019 
L 388.29312 176.226829 
L 388.47168 154.090833 
L 388.65024 169.448909 
L 388.8288 127.799298 
L 389.00736 117.813801 
L 389.18592 149.279636 
L 389.36448 141.287994 
L 389.7216 164.453762 
L 389.90016 128.266408 
L 390.07872 196.623588 
L 390.25728 141.381494 
L 390.43584 146.41295 
L 390.6144 126.624016 
L 390.79296 134.581257 
L 390.97152 154.34385 
L 391.15008 129.517238 
L 391.32864 227.503117 
L 391.68576 130.973107 
L 391.86432 151.550314 
L 392.04288 150.427667 
L 392.22144 124.308349 
L 392.4 138.288312 
L 392.57856 122.72754 
L 392.75712 152.622505 
L 392.93568 121.731993 
L 393.2928 143.763256 
L 393.47136 159.440317 
L 393.64992 139.302506 
L 393.82848 152.026039 
L 394.00704 144.070759 
L 394.1856 144.889815 
L 394.36416 137.87569 
L 394.54272 147.290347 
L 394.72128 138.022114 
L 394.89984 136.56093 
L 395.0784 156.536952 
L 395.25696 153.628579 
L 395.61408 137.784631 
L 395.79264 179.373771 
L 396.14976 158.178386 
L 396.32832 212.206782 
L 396.68544 116.609278 
L 396.864 176.873832 
L 397.04256 150.129283 
L 397.39968 135.618345 
L 397.57824 164.201247 
L 397.7568 150.2276 
L 397.93536 152.245745 
L 398.29248 179.113023 
L 398.47104 127.574868 
L 398.6496 165.091003 
L 398.82816 142.376186 
L 399.00672 145.485428 
L 399.18528 154.78906 
L 399.36384 146.941051 
L 399.5424 159.670552 
L 399.72096 140.951277 
L 399.89952 139.347175 
L 400.07808 191.47141 
L 400.25664 197.21355 
L 400.4352 192.248451 
L 400.61376 151.226994 
L 400.79232 197.228178 
L 400.97088 135.727492 
L 401.50656 150.479355 
L 401.68512 140.089606 
L 401.86368 140.430261 
L 402.04224 186.384372 
L 402.57792 123.920132 
L 402.75648 176.932311 
L 402.93504 183.811602 
L 403.1136 130.359034 
L 403.29216 154.937711 
L 403.82784 101.499044 
L 404.0064 148.238573 
L 404.18496 137.417367 
L 404.72064 169.844185 
L 404.8992 180.082669 
L 405.07776 156.136411 
L 405.25632 163.638357 
L 405.43488 166.181019 
L 405.61344 132.972962 
L 405.792 173.36787 
L 406.14912 158.600377 
L 406.50624 118.797033 
L 406.6848 165.580292 
L 406.86336 171.388698 
L 407.04192 185.01821 
L 407.39904 160.63553 
L 407.5776 192.820817 
L 407.75616 148.673518 
L 407.93472 140.81978 
L 408.11328 149.649771 
L 408.29184 181.287593 
L 408.64896 153.639201 
L 408.82752 195.938953 
L 409.00608 117.644967 
L 409.18464 166.091568 
L 409.3632 112.253952 
L 409.54176 167.262426 
L 410.07744 138.278112 
L 410.256 152.698313 
L 410.43456 120.318621 
L 410.61312 179.516962 
L 410.97024 126.440857 
L 411.32736 177.549088 
L 411.50592 179.933956 
L 411.68448 136.239951 
L 411.86304 181.34977 
L 412.0416 174.585065 
L 412.22016 190.836123 
L 412.57728 145.547257 
L 412.75584 159.132414 
L 412.9344 116.621859 
L 413.11296 155.344456 
L 413.29152 158.458679 
L 413.64864 137.696379 
L 413.8272 134.612187 
L 414.00576 180.005445 
L 414.36288 118.88963 
L 414.54144 151.562358 
L 414.54144 151.562358 
" style="fill:none;stroke:#0000ff;stroke-linecap:square;stroke-width:1.5;"/>
   </g>
   <g id="patch_3">
    <path d="M 57.6 307.584 
L 57.6 41.472 
" style="fill:none;stroke:#000000;stroke-linecap:square;stroke-linejoin:miter;stroke-width:0.8;"/>
   </g>
   <g id="patch_4">
    <path d="M 414.72 307.584 
L 414.72 41.472 
" style="fill:none;stroke:#000000;stroke-linecap:square;stroke-linejoin:miter;stroke-width:0.8;"/>
   </g>
   <g id="patch_5">
    <path d="M 57.6 307.584 
L 414.72 307.584 
" style="fill:none;stroke:#000000;stroke-linecap:square;stroke-linejoin:miter;stroke-width:0.8;"/>
   </g>
   <g id="patch_6">
    <path d="M 57.6 41.472 
L 414.72 41.472 
" style="fill:none;stroke:#000000;stroke-linecap:square;stroke-linejoin:miter;stroke-width:0.8;"/>
   </g>
   <g id="legend_1">
    <g id="patch_7">
     <path d="M 282.321563 64.150125 
L 407.72 64.150125 
Q 409.72 64.150125 409.72 62.150125 
L 409.72 48.472 
Q 409.72 46.472 407.72 46.472 
L 282.321563 46.472 
Q 280.321563 46.472 280.321563 48.472 
L 280.321563 62.150125 
Q 280.321563 64.150125 282.321563 64.150125 
z
" style="fill:#ffffff;opacity:0.8;stroke:#cccccc;stroke-linejoin:miter;"/>
    </g>
    <g id="line2d_34">
     <path d="M 284.321563 54.570438 
L 304.321563 54.570438 
" style="fill:none;stroke:#0000ff;stroke-linecap:square;stroke-width:1.5;"/>
    </g>
    <g id="line2d_35"/>
    <g id="text_19">
     <!-- cumulative reward -->
     <g transform="translate(312.321563 58.070438)scale(0.1 -0.1)">
      <defs>
       <path d="M 3122 3366 
L 3122 2828 
Q 2878 2963 2633 3030 
Q 2388 3097 2138 3097 
Q 1578 3097 1268 2742 
Q 959 2388 959 1747 
Q 959 1106 1268 751 
Q 1578 397 2138 397 
Q 2388 397 2633 464 
Q 2878 531 3122 666 
L 3122 134 
Q 2881 22 2623 -34 
Q 2366 -91 2075 -91 
Q 1284 -91 818 406 
Q 353 903 353 1747 
Q 353 2603 823 3093 
Q 1294 3584 2113 3584 
Q 2378 3584 2631 3529 
Q 2884 3475 3122 3366 
z
" id="DejaVuSans-63" transform="scale(0.015625)"/>
      </defs>
      <use xlink:href="#DejaVuSans-63"/>
      <use x="54.980469" xlink:href="#DejaVuSans-75"/>
      <use x="118.359375" xlink:href="#DejaVuSans-6d"/>
      <use x="215.771484" xlink:href="#DejaVuSans-75"/>
      <use x="279.150391" xlink:href="#DejaVuSans-6c"/>
      <use x="306.933594" xlink:href="#DejaVuSans-61"/>
      <use x="368.212891" xlink:href="#DejaVuSans-74"/>
      <use x="407.421875" xlink:href="#DejaVuSans-69"/>
      <use x="435.205078" xlink:href="#DejaVuSans-76"/>
      <use x="494.384766" xlink:href="#DejaVuSans-65"/>
      <use x="555.908203" xlink:href="#DejaVuSans-20"/>
      <use x="587.695312" xlink:href="#DejaVuSans-72"/>
      <use x="626.558594" xlink:href="#DejaVuSans-65"/>
      <use x="688.082031" xlink:href="#DejaVuSans-77"/>
      <use x="769.869141" xlink:href="#DejaVuSans-61"/>
      <use x="831.148438" xlink:href="#DejaVuSans-72"/>
      <use x="870.511719" xlink:href="#DejaVuSans-64"/>
     </g>
    </g>
   </g>
  </g>
 </g>
 <defs>
  <clipPath id="pf12bba2ab6">
   <rect height="266.112" width="357.12" x="57.6" y="41.472"/>
  </clipPath>
 </defs>
</svg>
