<?xml version="1.0" encoding="utf-8" standalone="no"?>
<!DOCTYPE svg PUBLIC "-//W3C//DTD SVG 1.1//EN"
  "http://www.w3.org/Graphics/SVG/1.1/DTD/svg11.dtd">
<svg height="345.6pt" version="1.1" viewBox="0 0 460.8 345.6" width="460.8pt" xmlns="http://www.w3.org/2000/svg" xmlns:xlink="http://www.w3.org/1999/xlink">
 <metadata>
  <rdf:RDF xmlns:cc="http://creativecommons.org/ns#" xmlns:dc="http://purl.org/dc/elements/1.1/" xmlns:rdf="http://www.w3.org/1999/02/22-rdf-syntax-ns#">
   <cc:Work>
    <dc:type rdf:resource="http://purl.org/dc/dcmitype/StillImage"/>
    <dc:date>2021-10-27T13:06:40.796335</dc:date>
    <dc:description>{"agent.algorithm": "RayProximalPolicyOptimization", "agent.algorithm.render_env": false, "agent.algorithm.num_workers": 0, "agent.algorithm.batch_mode": "complete_episodes", "agent.algorithm.train_batch_size": 200, "agent.algorithm.optimizer": "Adam", "agent.algorithm.vf_clip_param": 10, "agent.algorithm.model": {"fcnet_activation": "tanh", "fcnet_hiddens": [50, 50]}, "env.env_class": "SchedulerPolicyRayEnvironment", "env.env_config": {"solver_driver": "CMAdriver", "solver_driver_args": [10, 10, 17, 0.33], "maximize": false, "steps": 50, "state_metrics_names": ["DifferenceOfBest", "SolverStateHistory", "SolverState"], "state_metrics_config": [[40, false, 1, true], [{"step_size": {"max": 3, "min": 0}}, 40], [{"ps": {"max": 10, "min": -10}}]], "reward_metric": "Best", "reward_metric_config": [false, false], "memes_no": 1, "action_space_config": {"step_size": {"max": 3, "min": 1e-10}}}}</dc:description>
    <dc:format>image/svg+xml</dc:format>
    <dc:creator>
     <cc:Agent>
      <dc:title>Matplotlib v3.4.3, https://matplotlib.org/</dc:title>
     </cc:Agent>
    </dc:creator>
   </cc:Work>
  </rdf:RDF>
 </metadata>
 <defs>
  <style type="text/css">*{stroke-linecap:butt;stroke-linejoin:round;}</style>
 </defs>
 <g id="figure_1">
  <g id="patch_1">
   <path d="M 0 345.6 
L 460.8 345.6 
L 460.8 0 
L 0 0 
z
" style="fill:#ffffff;"/>
  </g>
  <g id="axes_1">
   <g id="patch_2">
    <path d="M 57.6 307.584 
L 414.72 307.584 
L 414.72 41.472 
L 57.6 41.472 
z
" style="fill:#ffffff;"/>
   </g>
   <g id="matplotlib.axis_1">
    <g id="xtick_1">
     <g id="line2d_1">
      <path clip-path="url(#pd66bdaf1ce)" d="M 57.6 307.584 
L 57.6 41.472 
" style="fill:none;stroke:#b0b0b0;stroke-linecap:square;stroke-width:0.8;"/>
     </g>
     <g id="line2d_2">
      <defs>
       <path d="M 0 0 
L 0 3.5 
" id="m9ccd7edfca" style="stroke:#000000;stroke-width:0.8;"/>
      </defs>
      <g>
       <use style="stroke:#000000;stroke-width:0.8;" x="57.6" xlink:href="#m9ccd7edfca" y="307.584"/>
      </g>
     </g>
     <g id="text_1">
      <!-- 0 -->
      <g transform="translate(54.41875 322.182437)scale(0.1 -0.1)">
       <defs>
        <path d="M 2034 4250 
Q 1547 4250 1301 3770 
Q 1056 3291 1056 2328 
Q 1056 1369 1301 889 
Q 1547 409 2034 409 
Q 2525 409 2770 889 
Q 3016 1369 3016 2328 
Q 3016 3291 2770 3770 
Q 2525 4250 2034 4250 
z
M 2034 4750 
Q 2819 4750 3233 4129 
Q 3647 3509 3647 2328 
Q 3647 1150 3233 529 
Q 2819 -91 2034 -91 
Q 1250 -91 836 529 
Q 422 1150 422 2328 
Q 422 3509 836 4129 
Q 1250 4750 2034 4750 
z
" id="DejaVuSans-30" transform="scale(0.015625)"/>
       </defs>
       <use xlink:href="#DejaVuSans-30"/>
      </g>
     </g>
    </g>
    <g id="xtick_2">
     <g id="line2d_3">
      <path clip-path="url(#pd66bdaf1ce)" d="M 117.12 307.584 
L 117.12 41.472 
" style="fill:none;stroke:#b0b0b0;stroke-linecap:square;stroke-width:0.8;"/>
     </g>
     <g id="line2d_4">
      <g>
       <use style="stroke:#000000;stroke-width:0.8;" x="117.12" xlink:href="#m9ccd7edfca" y="307.584"/>
      </g>
     </g>
     <g id="text_2">
      <!-- 500 -->
      <g transform="translate(107.57625 322.182437)scale(0.1 -0.1)">
       <defs>
        <path d="M 691 4666 
L 3169 4666 
L 3169 4134 
L 1269 4134 
L 1269 2991 
Q 1406 3038 1543 3061 
Q 1681 3084 1819 3084 
Q 2600 3084 3056 2656 
Q 3513 2228 3513 1497 
Q 3513 744 3044 326 
Q 2575 -91 1722 -91 
Q 1428 -91 1123 -41 
Q 819 9 494 109 
L 494 744 
Q 775 591 1075 516 
Q 1375 441 1709 441 
Q 2250 441 2565 725 
Q 2881 1009 2881 1497 
Q 2881 1984 2565 2268 
Q 2250 2553 1709 2553 
Q 1456 2553 1204 2497 
Q 953 2441 691 2322 
L 691 4666 
z
" id="DejaVuSans-35" transform="scale(0.015625)"/>
       </defs>
       <use xlink:href="#DejaVuSans-35"/>
       <use x="63.623047" xlink:href="#DejaVuSans-30"/>
       <use x="127.246094" xlink:href="#DejaVuSans-30"/>
      </g>
     </g>
    </g>
    <g id="xtick_3">
     <g id="line2d_5">
      <path clip-path="url(#pd66bdaf1ce)" d="M 176.64 307.584 
L 176.64 41.472 
" style="fill:none;stroke:#b0b0b0;stroke-linecap:square;stroke-width:0.8;"/>
     </g>
     <g id="line2d_6">
      <g>
       <use style="stroke:#000000;stroke-width:0.8;" x="176.64" xlink:href="#m9ccd7edfca" y="307.584"/>
      </g>
     </g>
     <g id="text_3">
      <!-- 1000 -->
      <g transform="translate(163.915 322.182437)scale(0.1 -0.1)">
       <defs>
        <path d="M 794 531 
L 1825 531 
L 1825 4091 
L 703 3866 
L 703 4441 
L 1819 4666 
L 2450 4666 
L 2450 531 
L 3481 531 
L 3481 0 
L 794 0 
L 794 531 
z
" id="DejaVuSans-31" transform="scale(0.015625)"/>
       </defs>
       <use xlink:href="#DejaVuSans-31"/>
       <use x="63.623047" xlink:href="#DejaVuSans-30"/>
       <use x="127.246094" xlink:href="#DejaVuSans-30"/>
       <use x="190.869141" xlink:href="#DejaVuSans-30"/>
      </g>
     </g>
    </g>
    <g id="xtick_4">
     <g id="line2d_7">
      <path clip-path="url(#pd66bdaf1ce)" d="M 236.16 307.584 
L 236.16 41.472 
" style="fill:none;stroke:#b0b0b0;stroke-linecap:square;stroke-width:0.8;"/>
     </g>
     <g id="line2d_8">
      <g>
       <use style="stroke:#000000;stroke-width:0.8;" x="236.16" xlink:href="#m9ccd7edfca" y="307.584"/>
      </g>
     </g>
     <g id="text_4">
      <!-- 1500 -->
      <g transform="translate(223.435 322.182437)scale(0.1 -0.1)">
       <use xlink:href="#DejaVuSans-31"/>
       <use x="63.623047" xlink:href="#DejaVuSans-35"/>
       <use x="127.246094" xlink:href="#DejaVuSans-30"/>
       <use x="190.869141" xlink:href="#DejaVuSans-30"/>
      </g>
     </g>
    </g>
    <g id="xtick_5">
     <g id="line2d_9">
      <path clip-path="url(#pd66bdaf1ce)" d="M 295.68 307.584 
L 295.68 41.472 
" style="fill:none;stroke:#b0b0b0;stroke-linecap:square;stroke-width:0.8;"/>
     </g>
     <g id="line2d_10">
      <g>
       <use style="stroke:#000000;stroke-width:0.8;" x="295.68" xlink:href="#m9ccd7edfca" y="307.584"/>
      </g>
     </g>
     <g id="text_5">
      <!-- 2000 -->
      <g transform="translate(282.955 322.182437)scale(0.1 -0.1)">
       <defs>
        <path d="M 1228 531 
L 3431 531 
L 3431 0 
L 469 0 
L 469 531 
Q 828 903 1448 1529 
Q 2069 2156 2228 2338 
Q 2531 2678 2651 2914 
Q 2772 3150 2772 3378 
Q 2772 3750 2511 3984 
Q 2250 4219 1831 4219 
Q 1534 4219 1204 4116 
Q 875 4013 500 3803 
L 500 4441 
Q 881 4594 1212 4672 
Q 1544 4750 1819 4750 
Q 2544 4750 2975 4387 
Q 3406 4025 3406 3419 
Q 3406 3131 3298 2873 
Q 3191 2616 2906 2266 
Q 2828 2175 2409 1742 
Q 1991 1309 1228 531 
z
" id="DejaVuSans-32" transform="scale(0.015625)"/>
       </defs>
       <use xlink:href="#DejaVuSans-32"/>
       <use x="63.623047" xlink:href="#DejaVuSans-30"/>
       <use x="127.246094" xlink:href="#DejaVuSans-30"/>
       <use x="190.869141" xlink:href="#DejaVuSans-30"/>
      </g>
     </g>
    </g>
    <g id="xtick_6">
     <g id="line2d_11">
      <path clip-path="url(#pd66bdaf1ce)" d="M 355.2 307.584 
L 355.2 41.472 
" style="fill:none;stroke:#b0b0b0;stroke-linecap:square;stroke-width:0.8;"/>
     </g>
     <g id="line2d_12">
      <g>
       <use style="stroke:#000000;stroke-width:0.8;" x="355.2" xlink:href="#m9ccd7edfca" y="307.584"/>
      </g>
     </g>
     <g id="text_6">
      <!-- 2500 -->
      <g transform="translate(342.475 322.182437)scale(0.1 -0.1)">
       <use xlink:href="#DejaVuSans-32"/>
       <use x="63.623047" xlink:href="#DejaVuSans-35"/>
       <use x="127.246094" xlink:href="#DejaVuSans-30"/>
       <use x="190.869141" xlink:href="#DejaVuSans-30"/>
      </g>
     </g>
    </g>
    <g id="xtick_7">
     <g id="line2d_13">
      <path clip-path="url(#pd66bdaf1ce)" d="M 414.72 307.584 
L 414.72 41.472 
" style="fill:none;stroke:#b0b0b0;stroke-linecap:square;stroke-width:0.8;"/>
     </g>
     <g id="line2d_14">
      <g>
       <use style="stroke:#000000;stroke-width:0.8;" x="414.72" xlink:href="#m9ccd7edfca" y="307.584"/>
      </g>
     </g>
     <g id="text_7">
      <!-- 3000 -->
      <g transform="translate(401.995 322.182437)scale(0.1 -0.1)">
       <defs>
        <path d="M 2597 2516 
Q 3050 2419 3304 2112 
Q 3559 1806 3559 1356 
Q 3559 666 3084 287 
Q 2609 -91 1734 -91 
Q 1441 -91 1130 -33 
Q 819 25 488 141 
L 488 750 
Q 750 597 1062 519 
Q 1375 441 1716 441 
Q 2309 441 2620 675 
Q 2931 909 2931 1356 
Q 2931 1769 2642 2001 
Q 2353 2234 1838 2234 
L 1294 2234 
L 1294 2753 
L 1863 2753 
Q 2328 2753 2575 2939 
Q 2822 3125 2822 3475 
Q 2822 3834 2567 4026 
Q 2313 4219 1838 4219 
Q 1578 4219 1281 4162 
Q 984 4106 628 3988 
L 628 4550 
Q 988 4650 1302 4700 
Q 1616 4750 1894 4750 
Q 2613 4750 3031 4423 
Q 3450 4097 3450 3541 
Q 3450 3153 3228 2886 
Q 3006 2619 2597 2516 
z
" id="DejaVuSans-33" transform="scale(0.015625)"/>
       </defs>
       <use xlink:href="#DejaVuSans-33"/>
       <use x="63.623047" xlink:href="#DejaVuSans-30"/>
       <use x="127.246094" xlink:href="#DejaVuSans-30"/>
       <use x="190.869141" xlink:href="#DejaVuSans-30"/>
      </g>
     </g>
    </g>
    <g id="text_8">
     <!-- Episodes -->
     <g transform="translate(213.917812 335.860562)scale(0.1 -0.1)">
      <defs>
       <path d="M 628 4666 
L 3578 4666 
L 3578 4134 
L 1259 4134 
L 1259 2753 
L 3481 2753 
L 3481 2222 
L 1259 2222 
L 1259 531 
L 3634 531 
L 3634 0 
L 628 0 
L 628 4666 
z
" id="DejaVuSans-45" transform="scale(0.015625)"/>
       <path d="M 1159 525 
L 1159 -1331 
L 581 -1331 
L 581 3500 
L 1159 3500 
L 1159 2969 
Q 1341 3281 1617 3432 
Q 1894 3584 2278 3584 
Q 2916 3584 3314 3078 
Q 3713 2572 3713 1747 
Q 3713 922 3314 415 
Q 2916 -91 2278 -91 
Q 1894 -91 1617 61 
Q 1341 213 1159 525 
z
M 3116 1747 
Q 3116 2381 2855 2742 
Q 2594 3103 2138 3103 
Q 1681 3103 1420 2742 
Q 1159 2381 1159 1747 
Q 1159 1113 1420 752 
Q 1681 391 2138 391 
Q 2594 391 2855 752 
Q 3116 1113 3116 1747 
z
" id="DejaVuSans-70" transform="scale(0.015625)"/>
       <path d="M 603 3500 
L 1178 3500 
L 1178 0 
L 603 0 
L 603 3500 
z
M 603 4863 
L 1178 4863 
L 1178 4134 
L 603 4134 
L 603 4863 
z
" id="DejaVuSans-69" transform="scale(0.015625)"/>
       <path d="M 2834 3397 
L 2834 2853 
Q 2591 2978 2328 3040 
Q 2066 3103 1784 3103 
Q 1356 3103 1142 2972 
Q 928 2841 928 2578 
Q 928 2378 1081 2264 
Q 1234 2150 1697 2047 
L 1894 2003 
Q 2506 1872 2764 1633 
Q 3022 1394 3022 966 
Q 3022 478 2636 193 
Q 2250 -91 1575 -91 
Q 1294 -91 989 -36 
Q 684 19 347 128 
L 347 722 
Q 666 556 975 473 
Q 1284 391 1588 391 
Q 1994 391 2212 530 
Q 2431 669 2431 922 
Q 2431 1156 2273 1281 
Q 2116 1406 1581 1522 
L 1381 1569 
Q 847 1681 609 1914 
Q 372 2147 372 2553 
Q 372 3047 722 3315 
Q 1072 3584 1716 3584 
Q 2034 3584 2315 3537 
Q 2597 3491 2834 3397 
z
" id="DejaVuSans-73" transform="scale(0.015625)"/>
       <path d="M 1959 3097 
Q 1497 3097 1228 2736 
Q 959 2375 959 1747 
Q 959 1119 1226 758 
Q 1494 397 1959 397 
Q 2419 397 2687 759 
Q 2956 1122 2956 1747 
Q 2956 2369 2687 2733 
Q 2419 3097 1959 3097 
z
M 1959 3584 
Q 2709 3584 3137 3096 
Q 3566 2609 3566 1747 
Q 3566 888 3137 398 
Q 2709 -91 1959 -91 
Q 1206 -91 779 398 
Q 353 888 353 1747 
Q 353 2609 779 3096 
Q 1206 3584 1959 3584 
z
" id="DejaVuSans-6f" transform="scale(0.015625)"/>
       <path d="M 2906 2969 
L 2906 4863 
L 3481 4863 
L 3481 0 
L 2906 0 
L 2906 525 
Q 2725 213 2448 61 
Q 2172 -91 1784 -91 
Q 1150 -91 751 415 
Q 353 922 353 1747 
Q 353 2572 751 3078 
Q 1150 3584 1784 3584 
Q 2172 3584 2448 3432 
Q 2725 3281 2906 2969 
z
M 947 1747 
Q 947 1113 1208 752 
Q 1469 391 1925 391 
Q 2381 391 2643 752 
Q 2906 1113 2906 1747 
Q 2906 2381 2643 2742 
Q 2381 3103 1925 3103 
Q 1469 3103 1208 2742 
Q 947 2381 947 1747 
z
" id="DejaVuSans-64" transform="scale(0.015625)"/>
       <path d="M 3597 1894 
L 3597 1613 
L 953 1613 
Q 991 1019 1311 708 
Q 1631 397 2203 397 
Q 2534 397 2845 478 
Q 3156 559 3463 722 
L 3463 178 
Q 3153 47 2828 -22 
Q 2503 -91 2169 -91 
Q 1331 -91 842 396 
Q 353 884 353 1716 
Q 353 2575 817 3079 
Q 1281 3584 2069 3584 
Q 2775 3584 3186 3129 
Q 3597 2675 3597 1894 
z
M 3022 2063 
Q 3016 2534 2758 2815 
Q 2500 3097 2075 3097 
Q 1594 3097 1305 2825 
Q 1016 2553 972 2059 
L 3022 2063 
z
" id="DejaVuSans-65" transform="scale(0.015625)"/>
      </defs>
      <use xlink:href="#DejaVuSans-45"/>
      <use x="63.183594" xlink:href="#DejaVuSans-70"/>
      <use x="126.660156" xlink:href="#DejaVuSans-69"/>
      <use x="154.443359" xlink:href="#DejaVuSans-73"/>
      <use x="206.542969" xlink:href="#DejaVuSans-6f"/>
      <use x="267.724609" xlink:href="#DejaVuSans-64"/>
      <use x="331.201172" xlink:href="#DejaVuSans-65"/>
      <use x="392.724609" xlink:href="#DejaVuSans-73"/>
     </g>
    </g>
   </g>
   <g id="matplotlib.axis_2">
    <g id="ytick_1">
     <g id="line2d_15">
      <path clip-path="url(#pd66bdaf1ce)" d="M 57.6 297.902129 
L 414.72 297.902129 
" style="fill:none;stroke:#b0b0b0;stroke-linecap:square;stroke-width:0.8;"/>
     </g>
     <g id="line2d_16">
      <defs>
       <path d="M 0 0 
L -3.5 0 
" id="me0105e46d0" style="stroke:#000000;stroke-width:0.8;"/>
      </defs>
      <g>
       <use style="stroke:#000000;stroke-width:0.8;" x="57.6" xlink:href="#me0105e46d0" y="297.902129"/>
      </g>
     </g>
     <g id="text_9">
      <!-- 1200 -->
      <g transform="translate(25.15 301.701348)scale(0.1 -0.1)">
       <use xlink:href="#DejaVuSans-31"/>
       <use x="63.623047" xlink:href="#DejaVuSans-32"/>
       <use x="127.246094" xlink:href="#DejaVuSans-30"/>
       <use x="190.869141" xlink:href="#DejaVuSans-30"/>
      </g>
     </g>
    </g>
    <g id="ytick_2">
     <g id="line2d_17">
      <path clip-path="url(#pd66bdaf1ce)" d="M 57.6 257.47869 
L 414.72 257.47869 
" style="fill:none;stroke:#b0b0b0;stroke-linecap:square;stroke-width:0.8;"/>
     </g>
     <g id="line2d_18">
      <g>
       <use style="stroke:#000000;stroke-width:0.8;" x="57.6" xlink:href="#me0105e46d0" y="257.47869"/>
      </g>
     </g>
     <g id="text_10">
      <!-- 1300 -->
      <g transform="translate(25.15 261.277909)scale(0.1 -0.1)">
       <use xlink:href="#DejaVuSans-31"/>
       <use x="63.623047" xlink:href="#DejaVuSans-33"/>
       <use x="127.246094" xlink:href="#DejaVuSans-30"/>
       <use x="190.869141" xlink:href="#DejaVuSans-30"/>
      </g>
     </g>
    </g>
    <g id="ytick_3">
     <g id="line2d_19">
      <path clip-path="url(#pd66bdaf1ce)" d="M 57.6 217.055251 
L 414.72 217.055251 
" style="fill:none;stroke:#b0b0b0;stroke-linecap:square;stroke-width:0.8;"/>
     </g>
     <g id="line2d_20">
      <g>
       <use style="stroke:#000000;stroke-width:0.8;" x="57.6" xlink:href="#me0105e46d0" y="217.055251"/>
      </g>
     </g>
     <g id="text_11">
      <!-- 1400 -->
      <g transform="translate(25.15 220.85447)scale(0.1 -0.1)">
       <defs>
        <path d="M 2419 4116 
L 825 1625 
L 2419 1625 
L 2419 4116 
z
M 2253 4666 
L 3047 4666 
L 3047 1625 
L 3713 1625 
L 3713 1100 
L 3047 1100 
L 3047 0 
L 2419 0 
L 2419 1100 
L 313 1100 
L 313 1709 
L 2253 4666 
z
" id="DejaVuSans-34" transform="scale(0.015625)"/>
       </defs>
       <use xlink:href="#DejaVuSans-31"/>
       <use x="63.623047" xlink:href="#DejaVuSans-34"/>
       <use x="127.246094" xlink:href="#DejaVuSans-30"/>
       <use x="190.869141" xlink:href="#DejaVuSans-30"/>
      </g>
     </g>
    </g>
    <g id="ytick_4">
     <g id="line2d_21">
      <path clip-path="url(#pd66bdaf1ce)" d="M 57.6 176.631812 
L 414.72 176.631812 
" style="fill:none;stroke:#b0b0b0;stroke-linecap:square;stroke-width:0.8;"/>
     </g>
     <g id="line2d_22">
      <g>
       <use style="stroke:#000000;stroke-width:0.8;" x="57.6" xlink:href="#me0105e46d0" y="176.631812"/>
      </g>
     </g>
     <g id="text_12">
      <!-- 1500 -->
      <g transform="translate(25.15 180.43103)scale(0.1 -0.1)">
       <use xlink:href="#DejaVuSans-31"/>
       <use x="63.623047" xlink:href="#DejaVuSans-35"/>
       <use x="127.246094" xlink:href="#DejaVuSans-30"/>
       <use x="190.869141" xlink:href="#DejaVuSans-30"/>
      </g>
     </g>
    </g>
    <g id="ytick_5">
     <g id="line2d_23">
      <path clip-path="url(#pd66bdaf1ce)" d="M 57.6 136.208373 
L 414.72 136.208373 
" style="fill:none;stroke:#b0b0b0;stroke-linecap:square;stroke-width:0.8;"/>
     </g>
     <g id="line2d_24">
      <g>
       <use style="stroke:#000000;stroke-width:0.8;" x="57.6" xlink:href="#me0105e46d0" y="136.208373"/>
      </g>
     </g>
     <g id="text_13">
      <!-- 1600 -->
      <g transform="translate(25.15 140.007591)scale(0.1 -0.1)">
       <defs>
        <path d="M 2113 2584 
Q 1688 2584 1439 2293 
Q 1191 2003 1191 1497 
Q 1191 994 1439 701 
Q 1688 409 2113 409 
Q 2538 409 2786 701 
Q 3034 994 3034 1497 
Q 3034 2003 2786 2293 
Q 2538 2584 2113 2584 
z
M 3366 4563 
L 3366 3988 
Q 3128 4100 2886 4159 
Q 2644 4219 2406 4219 
Q 1781 4219 1451 3797 
Q 1122 3375 1075 2522 
Q 1259 2794 1537 2939 
Q 1816 3084 2150 3084 
Q 2853 3084 3261 2657 
Q 3669 2231 3669 1497 
Q 3669 778 3244 343 
Q 2819 -91 2113 -91 
Q 1303 -91 875 529 
Q 447 1150 447 2328 
Q 447 3434 972 4092 
Q 1497 4750 2381 4750 
Q 2619 4750 2861 4703 
Q 3103 4656 3366 4563 
z
" id="DejaVuSans-36" transform="scale(0.015625)"/>
       </defs>
       <use xlink:href="#DejaVuSans-31"/>
       <use x="63.623047" xlink:href="#DejaVuSans-36"/>
       <use x="127.246094" xlink:href="#DejaVuSans-30"/>
       <use x="190.869141" xlink:href="#DejaVuSans-30"/>
      </g>
     </g>
    </g>
    <g id="ytick_6">
     <g id="line2d_25">
      <path clip-path="url(#pd66bdaf1ce)" d="M 57.6 95.784933 
L 414.72 95.784933 
" style="fill:none;stroke:#b0b0b0;stroke-linecap:square;stroke-width:0.8;"/>
     </g>
     <g id="line2d_26">
      <g>
       <use style="stroke:#000000;stroke-width:0.8;" x="57.6" xlink:href="#me0105e46d0" y="95.784933"/>
      </g>
     </g>
     <g id="text_14">
      <!-- 1700 -->
      <g transform="translate(25.15 99.584152)scale(0.1 -0.1)">
       <defs>
        <path d="M 525 4666 
L 3525 4666 
L 3525 4397 
L 1831 0 
L 1172 0 
L 2766 4134 
L 525 4134 
L 525 4666 
z
" id="DejaVuSans-37" transform="scale(0.015625)"/>
       </defs>
       <use xlink:href="#DejaVuSans-31"/>
       <use x="63.623047" xlink:href="#DejaVuSans-37"/>
       <use x="127.246094" xlink:href="#DejaVuSans-30"/>
       <use x="190.869141" xlink:href="#DejaVuSans-30"/>
      </g>
     </g>
    </g>
    <g id="ytick_7">
     <g id="line2d_27">
      <path clip-path="url(#pd66bdaf1ce)" d="M 57.6 55.361494 
L 414.72 55.361494 
" style="fill:none;stroke:#b0b0b0;stroke-linecap:square;stroke-width:0.8;"/>
     </g>
     <g id="line2d_28">
      <g>
       <use style="stroke:#000000;stroke-width:0.8;" x="57.6" xlink:href="#me0105e46d0" y="55.361494"/>
      </g>
     </g>
     <g id="text_15">
      <!-- 1800 -->
      <g transform="translate(25.15 59.160713)scale(0.1 -0.1)">
       <defs>
        <path d="M 2034 2216 
Q 1584 2216 1326 1975 
Q 1069 1734 1069 1313 
Q 1069 891 1326 650 
Q 1584 409 2034 409 
Q 2484 409 2743 651 
Q 3003 894 3003 1313 
Q 3003 1734 2745 1975 
Q 2488 2216 2034 2216 
z
M 1403 2484 
Q 997 2584 770 2862 
Q 544 3141 544 3541 
Q 544 4100 942 4425 
Q 1341 4750 2034 4750 
Q 2731 4750 3128 4425 
Q 3525 4100 3525 3541 
Q 3525 3141 3298 2862 
Q 3072 2584 2669 2484 
Q 3125 2378 3379 2068 
Q 3634 1759 3634 1313 
Q 3634 634 3220 271 
Q 2806 -91 2034 -91 
Q 1263 -91 848 271 
Q 434 634 434 1313 
Q 434 1759 690 2068 
Q 947 2378 1403 2484 
z
M 1172 3481 
Q 1172 3119 1398 2916 
Q 1625 2713 2034 2713 
Q 2441 2713 2670 2916 
Q 2900 3119 2900 3481 
Q 2900 3844 2670 4047 
Q 2441 4250 2034 4250 
Q 1625 4250 1398 4047 
Q 1172 3844 1172 3481 
z
" id="DejaVuSans-38" transform="scale(0.015625)"/>
       </defs>
       <use xlink:href="#DejaVuSans-31"/>
       <use x="63.623047" xlink:href="#DejaVuSans-38"/>
       <use x="127.246094" xlink:href="#DejaVuSans-30"/>
       <use x="190.869141" xlink:href="#DejaVuSans-30"/>
      </g>
     </g>
    </g>
    <g id="text_16">
     <!-- Cumulative Reward -->
     <g transform="translate(19.070312 223.275656)rotate(-90)scale(0.1 -0.1)">
      <defs>
       <path d="M 4122 4306 
L 4122 3641 
Q 3803 3938 3442 4084 
Q 3081 4231 2675 4231 
Q 1875 4231 1450 3742 
Q 1025 3253 1025 2328 
Q 1025 1406 1450 917 
Q 1875 428 2675 428 
Q 3081 428 3442 575 
Q 3803 722 4122 1019 
L 4122 359 
Q 3791 134 3420 21 
Q 3050 -91 2638 -91 
Q 1578 -91 968 557 
Q 359 1206 359 2328 
Q 359 3453 968 4101 
Q 1578 4750 2638 4750 
Q 3056 4750 3426 4639 
Q 3797 4528 4122 4306 
z
" id="DejaVuSans-43" transform="scale(0.015625)"/>
       <path d="M 544 1381 
L 544 3500 
L 1119 3500 
L 1119 1403 
Q 1119 906 1312 657 
Q 1506 409 1894 409 
Q 2359 409 2629 706 
Q 2900 1003 2900 1516 
L 2900 3500 
L 3475 3500 
L 3475 0 
L 2900 0 
L 2900 538 
Q 2691 219 2414 64 
Q 2138 -91 1772 -91 
Q 1169 -91 856 284 
Q 544 659 544 1381 
z
M 1991 3584 
L 1991 3584 
z
" id="DejaVuSans-75" transform="scale(0.015625)"/>
       <path d="M 3328 2828 
Q 3544 3216 3844 3400 
Q 4144 3584 4550 3584 
Q 5097 3584 5394 3201 
Q 5691 2819 5691 2113 
L 5691 0 
L 5113 0 
L 5113 2094 
Q 5113 2597 4934 2840 
Q 4756 3084 4391 3084 
Q 3944 3084 3684 2787 
Q 3425 2491 3425 1978 
L 3425 0 
L 2847 0 
L 2847 2094 
Q 2847 2600 2669 2842 
Q 2491 3084 2119 3084 
Q 1678 3084 1418 2786 
Q 1159 2488 1159 1978 
L 1159 0 
L 581 0 
L 581 3500 
L 1159 3500 
L 1159 2956 
Q 1356 3278 1631 3431 
Q 1906 3584 2284 3584 
Q 2666 3584 2933 3390 
Q 3200 3197 3328 2828 
z
" id="DejaVuSans-6d" transform="scale(0.015625)"/>
       <path d="M 603 4863 
L 1178 4863 
L 1178 0 
L 603 0 
L 603 4863 
z
" id="DejaVuSans-6c" transform="scale(0.015625)"/>
       <path d="M 2194 1759 
Q 1497 1759 1228 1600 
Q 959 1441 959 1056 
Q 959 750 1161 570 
Q 1363 391 1709 391 
Q 2188 391 2477 730 
Q 2766 1069 2766 1631 
L 2766 1759 
L 2194 1759 
z
M 3341 1997 
L 3341 0 
L 2766 0 
L 2766 531 
Q 2569 213 2275 61 
Q 1981 -91 1556 -91 
Q 1019 -91 701 211 
Q 384 513 384 1019 
Q 384 1609 779 1909 
Q 1175 2209 1959 2209 
L 2766 2209 
L 2766 2266 
Q 2766 2663 2505 2880 
Q 2244 3097 1772 3097 
Q 1472 3097 1187 3025 
Q 903 2953 641 2809 
L 641 3341 
Q 956 3463 1253 3523 
Q 1550 3584 1831 3584 
Q 2591 3584 2966 3190 
Q 3341 2797 3341 1997 
z
" id="DejaVuSans-61" transform="scale(0.015625)"/>
       <path d="M 1172 4494 
L 1172 3500 
L 2356 3500 
L 2356 3053 
L 1172 3053 
L 1172 1153 
Q 1172 725 1289 603 
Q 1406 481 1766 481 
L 2356 481 
L 2356 0 
L 1766 0 
Q 1100 0 847 248 
Q 594 497 594 1153 
L 594 3053 
L 172 3053 
L 172 3500 
L 594 3500 
L 594 4494 
L 1172 4494 
z
" id="DejaVuSans-74" transform="scale(0.015625)"/>
       <path d="M 191 3500 
L 800 3500 
L 1894 563 
L 2988 3500 
L 3597 3500 
L 2284 0 
L 1503 0 
L 191 3500 
z
" id="DejaVuSans-76" transform="scale(0.015625)"/>
       <path id="DejaVuSans-20" transform="scale(0.015625)"/>
       <path d="M 2841 2188 
Q 3044 2119 3236 1894 
Q 3428 1669 3622 1275 
L 4263 0 
L 3584 0 
L 2988 1197 
Q 2756 1666 2539 1819 
Q 2322 1972 1947 1972 
L 1259 1972 
L 1259 0 
L 628 0 
L 628 4666 
L 2053 4666 
Q 2853 4666 3247 4331 
Q 3641 3997 3641 3322 
Q 3641 2881 3436 2590 
Q 3231 2300 2841 2188 
z
M 1259 4147 
L 1259 2491 
L 2053 2491 
Q 2509 2491 2742 2702 
Q 2975 2913 2975 3322 
Q 2975 3731 2742 3939 
Q 2509 4147 2053 4147 
L 1259 4147 
z
" id="DejaVuSans-52" transform="scale(0.015625)"/>
       <path d="M 269 3500 
L 844 3500 
L 1563 769 
L 2278 3500 
L 2956 3500 
L 3675 769 
L 4391 3500 
L 4966 3500 
L 4050 0 
L 3372 0 
L 2619 2869 
L 1863 0 
L 1184 0 
L 269 3500 
z
" id="DejaVuSans-77" transform="scale(0.015625)"/>
       <path d="M 2631 2963 
Q 2534 3019 2420 3045 
Q 2306 3072 2169 3072 
Q 1681 3072 1420 2755 
Q 1159 2438 1159 1844 
L 1159 0 
L 581 0 
L 581 3500 
L 1159 3500 
L 1159 2956 
Q 1341 3275 1631 3429 
Q 1922 3584 2338 3584 
Q 2397 3584 2469 3576 
Q 2541 3569 2628 3553 
L 2631 2963 
z
" id="DejaVuSans-72" transform="scale(0.015625)"/>
      </defs>
      <use xlink:href="#DejaVuSans-43"/>
      <use x="69.824219" xlink:href="#DejaVuSans-75"/>
      <use x="133.203125" xlink:href="#DejaVuSans-6d"/>
      <use x="230.615234" xlink:href="#DejaVuSans-75"/>
      <use x="293.994141" xlink:href="#DejaVuSans-6c"/>
      <use x="321.777344" xlink:href="#DejaVuSans-61"/>
      <use x="383.056641" xlink:href="#DejaVuSans-74"/>
      <use x="422.265625" xlink:href="#DejaVuSans-69"/>
      <use x="450.048828" xlink:href="#DejaVuSans-76"/>
      <use x="509.228516" xlink:href="#DejaVuSans-65"/>
      <use x="570.751953" xlink:href="#DejaVuSans-20"/>
      <use x="602.539062" xlink:href="#DejaVuSans-52"/>
      <use x="667.521484" xlink:href="#DejaVuSans-65"/>
      <use x="729.044922" xlink:href="#DejaVuSans-77"/>
      <use x="810.832031" xlink:href="#DejaVuSans-61"/>
      <use x="872.111328" xlink:href="#DejaVuSans-72"/>
      <use x="911.474609" xlink:href="#DejaVuSans-64"/>
     </g>
    </g>
   </g>
   <g id="line2d_29">
    <path clip-path="url(#pd66bdaf1ce)" d="M 57.6 181.808952 
L 57.83808 159.519891 
L 57.95712 191.336367 
L 58.07616 181.808952 
L 58.31424 159.519891 
L 58.43328 191.336367 
L 58.55232 181.808952 
L 58.7904 159.519891 
L 58.90944 191.336367 
L 59.02848 181.808952 
L 59.26656 159.519891 
L 59.3856 191.336367 
L 59.50464 181.808952 
L 59.74272 159.519891 
L 59.86176 191.336367 
L 59.9808 181.808952 
L 60.21888 159.519891 
L 60.33792 191.336367 
L 60.45696 181.808952 
L 60.69504 159.519891 
L 60.81408 191.336367 
L 60.93312 181.808952 
L 61.1712 159.519891 
L 61.29024 191.336367 
L 61.40928 181.808952 
L 61.64736 159.519891 
L 61.7664 191.336367 
L 61.88544 181.808952 
L 62.12352 159.519891 
L 62.24256 191.336367 
L 62.3616 181.808952 
L 62.59968 159.519891 
L 62.71872 191.336367 
L 62.83776 181.808952 
L 63.07584 159.519891 
L 63.19488 191.336367 
L 63.31392 181.808952 
L 63.552 159.519891 
L 63.67104 191.336367 
L 63.79008 181.808952 
L 64.02816 159.519891 
L 64.1472 191.336367 
L 64.26624 181.808952 
L 64.50432 159.519891 
L 64.62336 191.336367 
L 64.7424 181.808952 
L 64.98048 159.519891 
L 65.09952 191.336367 
L 65.21856 181.808952 
L 65.45664 159.519891 
L 65.57568 191.336367 
L 65.69472 181.808952 
L 65.9328 159.519891 
L 66.05184 191.336367 
L 66.17088 181.808952 
L 66.40896 159.519891 
L 66.528 191.336367 
L 66.64704 181.808952 
L 66.88512 159.519891 
L 67.00416 191.336367 
L 67.1232 181.808952 
L 67.36128 159.519891 
L 67.48032 191.336367 
L 67.59936 181.808952 
L 67.83744 159.519891 
L 67.95648 191.336367 
L 68.07552 181.808952 
L 68.3136 159.519891 
L 68.43264 191.336367 
L 68.55168 181.808952 
L 68.78976 159.519891 
L 68.9088 191.336367 
L 69.02784 181.808952 
L 69.26592 159.519891 
L 69.38496 191.336367 
L 69.504 190.67144 
L 69.74208 170.232821 
L 69.86112 189.302416 
L 69.98016 164.678848 
L 70.0992 194.629202 
L 70.21824 178.863246 
L 70.33728 192.059094 
L 70.45632 147.597392 
L 70.6944 188.20088 
L 70.81344 135.424473 
L 70.93248 178.274905 
L 71.2896 142.543326 
L 71.40864 203.108468 
L 71.52768 150.03273 
L 71.76576 164.725627 
L 71.8848 176.068308 
L 72.00384 200.916207 
L 72.12288 126.104674 
L 72.36096 194.969594 
L 72.59904 188.163769 
L 72.71808 204.824325 
L 72.83712 146.366211 
L 72.95616 154.695649 
L 73.0752 195.360322 
L 73.19424 131.939888 
L 73.31328 144.815813 
L 73.43232 175.387411 
L 73.55136 167.727723 
L 73.6704 206.76654 
L 73.90848 160.513177 
L 74.14656 205.975086 
L 74.38464 154.918052 
L 74.50368 142.470065 
L 74.62272 187.130662 
L 74.74176 170.462932 
L 74.8608 203.371077 
L 74.97984 171.718226 
L 75.09888 233.024767 
L 75.21792 144.246042 
L 75.456 184.759292 
L 75.57504 137.93179 
L 75.81312 191.826606 
L 75.93216 181.489637 
L 76.0512 187.21994 
L 76.17024 164.542309 
L 76.28928 190.490252 
L 76.40832 182.041789 
L 76.52736 147.368943 
L 76.6464 218.653624 
L 76.76544 168.990816 
L 76.88448 174.66659 
L 77.00352 149.925309 
L 77.12256 182.138922 
L 77.2416 173.458046 
L 77.36064 190.250436 
L 77.47968 172.838869 
L 77.59872 282.071717 
L 77.8368 170.638118 
L 77.95584 160.145109 
L 78.19392 235.821853 
L 78.31296 148.208876 
L 78.55104 154.681097 
L 78.67008 134.140487 
L 78.78912 135.93889 
L 79.0272 248.259988 
L 79.38432 161.089564 
L 79.50336 223.175373 
L 79.6224 146.284752 
L 79.74144 172.371782 
L 79.86048 168.478247 
L 80.09856 223.327044 
L 80.2176 180.745317 
L 80.33664 203.015984 
L 80.57472 167.198827 
L 80.69376 196.872667 
L 80.8128 193.910825 
L 80.93184 258.686009 
L 81.05088 259.782293 
L 81.16992 176.688838 
L 81.28896 237.779295 
L 81.408 183.628465 
L 81.64608 218.620036 
L 81.76512 160.371176 
L 81.88416 182.869827 
L 82.0032 236.948491 
L 82.12224 171.963063 
L 82.24128 192.748973 
L 82.36032 257.917297 
L 82.5984 185.472944 
L 82.71744 220.702593 
L 82.95552 181.272867 
L 83.07456 221.741528 
L 83.31264 141.347517 
L 83.43168 152.510629 
L 83.55072 245.688351 
L 83.66976 152.369834 
L 83.7888 183.761044 
L 83.90784 158.172707 
L 84.14592 217.671408 
L 84.384 175.888565 
L 84.50304 145.981327 
L 84.62208 207.787342 
L 84.74112 192.74136 
L 84.86016 217.545329 
L 84.9792 212.732001 
L 85.09824 149.154198 
L 85.21728 177.270371 
L 85.33632 136.813937 
L 85.45536 170.021658 
L 85.5744 166.866742 
L 85.69344 178.336626 
L 85.81248 156.733348 
L 85.93152 213.183559 
L 86.05056 168.953329 
L 86.1696 180.357026 
L 86.40768 155.368897 
L 86.52672 198.826635 
L 86.7648 154.75707 
L 86.88384 157.845625 
L 87.00288 223.37987 
L 87.12192 212.120755 
L 87.24096 138.950802 
L 87.47904 202.973106 
L 87.59808 121.686424 
L 87.71712 136.852383 
L 87.83616 199.414273 
L 87.9552 168.439024 
L 88.19328 211.992041 
L 88.31232 211.419752 
L 88.43136 177.37797 
L 88.66944 195.425401 
L 88.78848 176.138996 
L 88.90752 180.315205 
L 89.02656 156.433 
L 89.1456 212.555634 
L 89.26464 149.511071 
L 89.38368 180.093043 
L 89.50272 157.274303 
L 89.62176 208.912316 
L 89.7408 129.933786 
L 89.85984 219.225056 
L 89.97888 160.166564 
L 90.21696 202.540179 
L 90.45504 152.274933 
L 90.57408 222.264812 
L 90.69312 220.239279 
L 90.81216 171.523714 
L 90.9312 229.121705 
L 91.16928 164.787697 
L 91.28832 175.859812 
L 91.40736 181.862794 
L 91.64544 218.330732 
L 91.76448 147.527899 
L 91.88352 198.778693 
L 92.00256 159.70314 
L 92.24064 209.825865 
L 92.35968 199.962839 
L 92.47872 241.409726 
L 92.59776 225.842286 
L 92.7168 225.598433 
L 92.95488 164.072133 
L 93.07392 189.392262 
L 93.19296 189.315165 
L 93.312 188.657935 
L 93.43104 205.958224 
L 93.55008 173.637445 
L 93.66912 172.138287 
L 93.78816 146.866839 
L 93.9072 146.967994 
L 94.02624 221.112326 
L 94.14528 150.330676 
L 94.26432 153.131768 
L 94.62144 208.99079 
L 94.74048 182.73137 
L 94.85952 209.810481 
L 94.97856 180.378451 
L 95.0976 197.206692 
L 95.21664 148.408248 
L 95.33568 208.945043 
L 95.45472 200.210366 
L 95.57376 131.22762 
L 95.6928 223.455982 
L 95.81184 203.149857 
L 95.93088 150.23839 
L 96.16896 198.808677 
L 96.288 169.909278 
L 96.40704 194.037404 
L 96.52608 122.81261 
L 96.76416 178.840079 
L 96.8832 179.138995 
L 97.00224 214.706117 
L 97.24032 169.14085 
L 97.4784 188.11151 
L 97.59744 198.154194 
L 97.95456 129.815937 
L 98.19264 172.962462 
L 98.31168 144.622521 
L 98.43072 190.567606 
L 98.54976 146.429949 
L 98.6688 143.526672 
L 98.78784 175.174445 
L 98.90688 151.624643 
L 99.02592 162.64062 
L 99.14496 189.328413 
L 99.264 172.007058 
L 99.38304 190.682997 
L 99.74016 179.051001 
L 99.8592 182.328951 
L 99.97824 173.622132 
L 100.09728 202.312044 
L 100.21632 172.254853 
L 100.33536 178.328993 
L 100.4544 201.149977 
L 100.57344 195.462805 
L 100.69248 198.196083 
L 100.81152 184.196722 
L 100.93056 152.989275 
L 101.0496 196.994113 
L 101.28768 167.749411 
L 101.40672 136.741883 
L 101.52576 222.295867 
L 101.6448 157.66247 
L 101.76384 193.726683 
L 102.00192 135.507573 
L 102.12096 143.128198 
L 102.24 206.55327 
L 102.47808 161.093702 
L 102.59712 173.20308 
L 102.71616 144.90248 
L 102.8352 178.582796 
L 102.95424 138.363348 
L 103.07328 165.960887 
L 103.19232 135.933822 
L 103.54944 211.283748 
L 103.78752 175.478637 
L 103.90656 183.533483 
L 104.0256 138.191079 
L 104.14464 149.277838 
L 104.26368 147.344517 
L 104.38272 153.630092 
L 104.50176 233.586496 
L 104.6208 218.816448 
L 104.73984 167.582169 
L 104.85888 179.411287 
L 104.97792 150.723017 
L 105.09696 189.895474 
L 105.216 151.038696 
L 105.33504 162.985808 
L 105.45408 139.71146 
L 105.57312 146.255361 
L 105.69216 196.620212 
L 105.8112 153.040084 
L 105.93024 170.466537 
L 106.16832 143.500238 
L 106.52544 208.76723 
L 106.76352 175.127242 
L 106.88256 215.045997 
L 107.12064 135.905206 
L 107.23968 131.475802 
L 107.35872 192.82626 
L 107.47776 191.503166 
L 107.71584 118.863605 
L 107.83488 190.236517 
L 108.07296 103.048415 
L 108.31104 148.585439 
L 108.54912 125.251093 
L 108.7872 184.299581 
L 108.90624 183.455942 
L 109.02528 178.654524 
L 109.14432 158.746937 
L 109.26336 171.213463 
L 109.3824 126.544469 
L 109.50144 131.453492 
L 109.62048 187.07017 
L 109.73952 124.917481 
L 109.85856 144.166352 
L 109.9776 145.335045 
L 110.21568 105.801589 
L 110.33472 167.635433 
L 110.45376 115.46336 
L 110.69184 171.705097 
L 110.92992 120.441974 
L 111.04896 113.264701 
L 111.168 201.65371 
L 111.40608 109.963029 
L 111.52512 144.332059 
L 111.64416 144.810219 
L 111.7632 146.689719 
L 112.12032 101.884546 
L 112.23936 112.743795 
L 112.47744 164.729383 
L 112.59648 137.97014 
L 112.71552 188.347456 
L 112.83456 180.142083 
L 112.9536 115.278054 
L 113.07264 163.923867 
L 113.19168 143.200703 
L 113.42976 186.52434 
L 113.5488 147.419245 
L 113.78688 169.723753 
L 113.90592 158.54341 
L 114.02496 170.96603 
L 114.144 133.913432 
L 114.26304 184.350495 
L 114.38208 176.812289 
L 114.50112 183.855263 
L 114.62016 137.789326 
L 114.7392 170.198557 
L 114.97728 160.928936 
L 115.09632 170.504854 
L 115.21536 167.923087 
L 115.45344 138.81753 
L 115.57248 140.389657 
L 115.69152 201.354127 
L 115.81056 200.093062 
L 116.16768 150.563979 
L 116.28672 174.418087 
L 116.40576 113.203175 
L 116.5248 161.563306 
L 116.64384 151.498222 
L 116.76288 127.630158 
L 116.88192 127.933154 
L 117.00096 122.002989 
L 117.12 171.61746 
L 117.23904 168.421644 
L 117.59616 108.282604 
L 117.7152 125.711745 
L 117.83424 106.801517 
L 117.95328 161.545945 
L 118.07232 137.645353 
L 118.19136 138.512724 
L 118.3104 147.951715 
L 118.54848 136.005896 
L 118.78656 170.061565 
L 118.9056 165.41979 
L 119.02464 103.428095 
L 119.26272 171.242716 
L 119.38176 147.542403 
L 119.61984 160.688334 
L 119.73888 151.643551 
L 119.85792 157.488695 
L 120.096 137.441252 
L 120.21504 142.63899 
L 120.33408 195.885192 
L 120.45312 152.617837 
L 120.57216 170.581826 
L 120.6912 165.903327 
L 120.92928 119.629812 
L 121.16736 132.071337 
L 121.2864 164.563798 
L 121.40544 162.668264 
L 121.52448 181.596057 
L 121.64352 129.964625 
L 121.8816 181.713861 
L 122.00064 124.185269 
L 122.11968 211.345707 
L 122.23872 152.453251 
L 122.35776 209.986589 
L 122.4768 132.928774 
L 122.59584 143.909918 
L 122.71488 188.759606 
L 122.83392 139.661834 
L 123.072 147.029406 
L 123.19104 120.16321 
L 123.31008 148.661221 
L 123.54816 98.816648 
L 123.6672 146.744099 
L 123.78624 112.648827 
L 123.90528 147.613276 
L 124.02432 115.896255 
L 124.14336 172.550071 
L 124.2624 84.565017 
L 124.38144 108.632121 
L 124.50048 97.760539 
L 124.61952 102.079423 
L 124.73856 151.149528 
L 124.8576 110.405127 
L 124.97664 173.719138 
L 125.09568 99.26665 
L 125.21472 180.007599 
L 125.33376 110.215208 
L 125.4528 161.880814 
L 125.69088 139.259209 
L 125.80992 153.423529 
L 126.048 98.044412 
L 126.16704 190.178669 
L 126.40512 149.470131 
L 126.6432 128.169851 
L 126.76224 178.471261 
L 127.11936 137.342177 
L 127.35744 146.110347 
L 127.47648 154.951656 
L 127.59552 142.080519 
L 127.71456 150.814211 
L 127.8336 185.598195 
L 128.07168 133.948017 
L 128.19072 219.421138 
L 128.30976 153.522861 
L 128.4288 151.662306 
L 128.54784 140.178688 
L 128.66688 183.248174 
L 128.78592 138.546834 
L 128.90496 168.864437 
L 129.024 133.528197 
L 129.26208 142.299481 
L 129.38112 216.259741 
L 129.50016 124.651044 
L 129.73824 143.4745 
L 129.85728 143.451259 
L 129.97632 187.429022 
L 130.09536 190.094554 
L 130.2144 149.810109 
L 130.33344 167.361158 
L 130.57152 119.62354 
L 130.69056 128.543937 
L 130.8096 128.15582 
L 131.04768 169.699323 
L 131.16672 117.63988 
L 131.4048 158.69238 
L 131.52384 177.352341 
L 131.88096 114.690954 
L 132 168.689323 
L 132.11904 145.196644 
L 132.35712 181.799191 
L 132.47616 150.083122 
L 132.5952 150.447585 
L 132.71424 122.872499 
L 132.83328 126.594425 
L 132.95232 207.495666 
L 133.1904 147.35105 
L 133.30944 152.163334 
L 133.42848 130.242276 
L 133.66656 195.145674 
L 133.7856 131.77634 
L 133.90464 193.98492 
L 134.02368 185.404132 
L 134.14272 116.366128 
L 134.3808 174.375065 
L 134.49984 131.270884 
L 134.61888 131.519067 
L 134.85696 157.136349 
L 135.09504 122.406111 
L 135.21408 159.52688 
L 135.33312 127.175466 
L 135.45216 130.829966 
L 135.69024 193.807619 
L 135.80928 131.813312 
L 136.04736 170.92723 
L 136.1664 148.654486 
L 136.28544 215.492565 
L 136.40448 109.714888 
L 136.52352 137.471418 
L 136.7616 125.126103 
L 136.88064 132.456679 
L 136.99968 149.690754 
L 137.11872 135.612274 
L 137.23776 136.507845 
L 137.3568 173.182253 
L 137.59488 142.756849 
L 137.71392 158.589731 
L 137.952 115.576152 
L 138.30912 178.011889 
L 138.5472 132.270265 
L 138.78528 113.158894 
L 138.90432 147.357677 
L 139.02336 145.631579 
L 139.1424 86.676984 
L 139.38048 138.900221 
L 139.49952 139.511402 
L 139.61856 125.580678 
L 139.7376 138.158071 
L 139.85664 119.593349 
L 140.09472 130.084449 
L 140.3328 86.512968 
L 140.45184 83.19491 
L 140.57088 110.584995 
L 140.68992 105.81321 
L 140.928 81.782006 
L 141.04704 79.109767 
L 141.16608 94.627474 
L 141.28512 136.38304 
L 141.40416 134.241325 
L 141.76128 77.489055 
L 141.88032 78.024246 
L 141.99936 85.46213 
L 142.1184 122.025565 
L 142.35648 98.170489 
L 142.47552 99.20517 
L 142.59456 131.993782 
L 142.7136 129.580546 
L 142.95168 86.38894 
L 143.07072 137.779514 
L 143.18976 93.712727 
L 143.3088 116.475492 
L 143.42784 106.563959 
L 143.54688 130.899248 
L 143.66592 96.485241 
L 143.78496 109.280702 
L 143.904 98.306102 
L 144.02304 158.304356 
L 144.14208 118.445574 
L 144.26112 121.316257 
L 144.38016 169.564085 
L 144.4992 104.119356 
L 144.61824 105.843535 
L 144.73728 101.048745 
L 144.97536 110.68511 
L 145.0944 152.968707 
L 145.21344 106.211223 
L 145.33248 127.428302 
L 145.45152 171.766509 
L 145.57056 119.447314 
L 145.6896 126.455492 
L 145.80864 145.41761 
L 146.04672 109.994231 
L 146.16576 167.610244 
L 146.40384 107.72398 
L 146.64192 183.352641 
L 146.99904 123.831465 
L 147.11808 119.400743 
L 147.23712 178.194845 
L 147.35616 178.681928 
L 147.4752 142.958425 
L 147.59424 182.090682 
L 147.83232 140.93145 
L 148.0704 101.575374 
L 148.42752 117.707657 
L 148.54656 121.23072 
L 148.6656 156.101777 
L 148.78464 137.732135 
L 149.02272 88.409059 
L 149.14176 97.790493 
L 149.2608 134.795299 
L 149.37984 96.35201 
L 149.49888 115.96329 
L 149.61792 115.837634 
L 149.73696 120.542064 
L 150.09408 152.542442 
L 150.21312 116.946005 
L 150.33216 129.490979 
L 150.4512 108.98025 
L 150.80832 130.861347 
L 151.0464 99.004163 
L 151.40352 144.746902 
L 151.52256 105.964227 
L 151.6416 165.110074 
L 151.87968 106.649098 
L 151.99872 109.557737 
L 152.11776 138.120534 
L 152.2368 111.146062 
L 152.35584 120.914305 
L 152.47488 109.284141 
L 152.71296 128.421237 
L 152.95104 146.342115 
L 153.07008 135.044563 
L 153.18912 104.92347 
L 153.30816 103.790061 
L 153.4272 123.746106 
L 153.54624 115.146183 
L 153.66528 125.86366 
L 153.78432 152.110807 
L 154.0224 110.644851 
L 154.26048 150.331668 
L 154.37952 148.515951 
L 154.49856 115.727153 
L 154.6176 157.244501 
L 154.73664 112.420508 
L 154.85568 156.144647 
L 154.97472 81.828039 
L 155.09376 157.102118 
L 155.2128 154.491147 
L 155.33184 113.646956 
L 155.56992 153.007678 
L 155.68896 146.807068 
L 155.92704 105.102771 
L 156.04608 117.965034 
L 156.16512 111.204916 
L 156.28416 124.761636 
L 156.4032 124.049696 
L 156.52224 137.622886 
L 156.64128 110.122725 
L 156.76032 133.540181 
L 156.87936 98.108182 
L 156.9984 114.203618 
L 157.11744 87.50384 
L 157.23648 93.444714 
L 157.35552 130.412787 
L 157.47456 106.870628 
L 157.5936 116.258398 
L 157.71264 143.068632 
L 158.06976 92.998319 
L 158.1888 128.779109 
L 158.30784 97.756573 
L 158.42688 126.881383 
L 158.54592 106.776306 
L 158.66496 108.961205 
L 158.784 104.23842 
L 159.02208 130.820313 
L 159.26016 95.02426 
L 159.3792 143.171891 
L 159.49824 89.731219 
L 159.61728 107.493398 
L 159.73632 105.64064 
L 159.85536 106.396447 
L 159.9744 111.21406 
L 160.21248 85.849327 
L 160.33152 101.950743 
L 160.45056 99.534588 
L 160.68864 115.34224 
L 160.80768 116.711273 
L 160.92672 110.207944 
L 161.1648 83.305185 
L 161.28384 92.736071 
L 161.52192 88.725001 
L 161.64096 95.238422 
L 161.76 63.648 
L 161.99808 112.992027 
L 162.11712 77.925796 
L 162.23616 94.615408 
L 162.3552 75.592342 
L 162.47424 76.515913 
L 162.71232 80.053225 
L 162.83136 99.315132 
L 163.06944 82.850285 
L 163.30752 76.048509 
L 163.42656 87.792678 
L 163.5456 82.870133 
L 163.66464 100.145265 
L 163.90272 75.623212 
L 164.02176 122.985023 
L 164.1408 86.252797 
L 164.25984 92.336629 
L 164.37888 89.706335 
L 164.49792 122.73185 
L 164.61696 77.831364 
L 164.736 77.673222 
L 164.85504 81.211889 
L 164.97408 88.163681 
L 165.09312 73.77171 
L 165.3312 100.453303 
L 165.45024 96.217551 
L 165.68832 80.630562 
L 165.80736 89.037924 
L 166.04544 87.615158 
L 166.16448 133.458181 
L 166.28352 75.492918 
L 166.5216 95.300788 
L 166.64064 97.167621 
L 167.1168 68.307611 
L 167.35488 87.240662 
L 167.47392 81.156738 
L 167.59296 68.316642 
L 167.712 98.746935 
L 167.83104 71.392342 
L 167.95008 71.690411 
L 168.06912 93.614413 
L 168.3072 69.323791 
L 168.42624 83.312478 
L 168.54528 66.849362 
L 168.78336 124.587621 
L 169.02144 96.307333 
L 169.14048 106.16443 
L 169.25952 93.792788 
L 169.4976 116.372 
L 169.61664 81.347521 
L 169.73568 130.260924 
L 169.97376 82.468353 
L 170.0928 104.21315 
L 170.21184 83.739843 
L 170.44992 127.662806 
L 170.56896 113.698743 
L 170.688 83.140045 
L 170.80704 87.568819 
L 170.92608 122.217455 
L 171.04512 123.212425 
L 171.16416 125.793069 
L 171.2832 137.00592 
L 171.40224 92.592922 
L 171.52128 109.852639 
L 171.64032 81.596896 
L 171.75936 86.274308 
L 171.8784 129.636287 
L 172.11648 88.646718 
L 172.23552 81.871965 
L 172.35456 103.126928 
L 172.4736 94.670229 
L 172.59264 140.224753 
L 172.71168 112.578607 
L 172.83072 111.595748 
L 172.94976 105.371687 
L 173.0688 108.026299 
L 173.30688 98.036385 
L 173.42592 132.85941 
L 173.54496 91.630156 
L 173.664 97.597759 
L 173.90208 117.805441 
L 174.02112 96.713108 
L 174.2592 127.999805 
L 174.37824 87.085578 
L 174.49728 137.12778 
L 174.61632 140.087724 
L 174.8544 101.133718 
L 174.97344 117.799384 
L 175.09248 158.863436 
L 175.33056 89.330607 
L 175.4496 110.639253 
L 175.68768 99.698308 
L 175.80672 114.040203 
L 175.92576 92.184348 
L 176.0448 156.71564 
L 176.16384 79.801343 
L 176.28288 103.710371 
L 176.40192 104.289686 
L 176.52096 118.369754 
L 176.64 108.990947 
L 176.75904 135.016532 
L 176.87808 99.077335 
L 177.35424 149.311897 
L 177.59232 108.324737 
L 177.71136 151.897866 
L 177.8304 115.143111 
L 178.06848 138.349547 
L 178.18752 137.377391 
L 178.30656 134.035964 
L 178.4256 99.699902 
L 178.54464 123.45502 
L 178.66368 120.294194 
L 178.78272 101.965153 
L 178.90176 108.007261 
L 179.0208 105.731251 
L 179.37792 138.895843 
L 179.49696 143.232529 
L 179.616 92.44461 
L 179.85408 128.046034 
L 179.97312 129.002937 
L 180.2112 144.224842 
L 180.33024 139.883705 
L 180.44928 116.54705 
L 180.56832 132.353886 
L 180.68736 122.9594 
L 180.8064 122.872176 
L 180.92544 87.769644 
L 181.04448 107.651422 
L 181.16352 106.817745 
L 181.28256 147.503058 
L 181.4016 106.444176 
L 181.52064 115.023637 
L 181.63968 133.977084 
L 181.75872 99.133358 
L 181.87776 125.194885 
L 181.9968 109.783182 
L 182.11584 133.619375 
L 182.35392 95.87643 
L 182.71104 141.616541 
L 182.83008 89.726344 
L 182.94912 121.020962 
L 183.06816 104.033551 
L 183.1872 109.791778 
L 183.42528 132.227812 
L 183.54432 102.776874 
L 183.66336 103.427823 
L 183.7824 144.608461 
L 184.02048 87.107127 
L 184.13952 128.040891 
L 184.3776 108.483099 
L 184.49664 140.051594 
L 184.61568 127.107 
L 184.73472 101.472649 
L 184.85376 123.235056 
L 185.21088 93.867617 
L 185.44896 127.786515 
L 185.568 124.418015 
L 185.80608 96.417617 
L 185.92512 113.482351 
L 186.04416 114.063909 
L 186.1632 94.984634 
L 186.28224 118.567025 
L 186.40128 98.937237 
L 186.52032 123.570323 
L 186.63936 110.309016 
L 186.7584 120.204016 
L 186.87744 112.422146 
L 186.99648 123.746825 
L 187.11552 110.27114 
L 187.23456 134.041473 
L 187.3536 113.654788 
L 187.47264 147.57466 
L 187.71072 117.425463 
L 187.82976 91.211004 
L 187.9488 93.033621 
L 188.18688 105.635332 
L 188.30592 103.133304 
L 188.42496 111.757284 
L 188.66304 158.517788 
L 188.78208 83.372248 
L 188.90112 123.992031 
L 189.02016 92.726277 
L 189.25824 119.787403 
L 189.37728 132.128565 
L 189.49632 105.80003 
L 189.61536 105.203825 
L 189.7344 110.983934 
L 189.85344 96.615103 
L 189.97248 124.201509 
L 190.09152 117.360887 
L 190.21056 135.871211 
L 190.3296 89.205036 
L 190.44864 132.596937 
L 190.56768 128.544156 
L 190.68672 106.724463 
L 190.80576 160.755449 
L 191.04384 107.937211 
L 191.16288 140.244023 
L 191.28192 119.136919 
L 191.40096 149.556538 
L 191.52 120.680105 
L 191.63904 130.217708 
L 191.75808 102.503145 
L 192.1152 126.492708 
L 192.23424 122.838097 
L 192.35328 158.183668 
L 192.47232 133.703669 
L 192.59136 150.539642 
L 192.7104 131.858891 
L 192.82944 141.98007 
L 193.06752 121.85598 
L 193.18656 121.855444 
L 193.3056 134.047661 
L 193.42464 117.480676 
L 193.54368 127.411276 
L 193.66272 122.092669 
L 194.01984 144.851953 
L 194.13888 124.33435 
L 194.25792 150.23682 
L 194.37696 147.461667 
L 194.496 138.800226 
L 194.61504 163.597613 
L 194.85312 139.398841 
L 194.97216 198.761223 
L 195.0912 132.932562 
L 195.21024 145.6429 
L 195.32928 133.298521 
L 195.44832 154.812064 
L 195.56736 133.978947 
L 195.6864 145.226357 
L 195.80544 133.336898 
L 195.92448 157.066714 
L 196.04352 136.846507 
L 196.16256 166.660803 
L 196.2816 125.096483 
L 196.40064 148.359577 
L 196.51968 130.532848 
L 196.63872 145.889654 
L 196.75776 145.632992 
L 196.8768 163.157548 
L 197.23392 110.157236 
L 197.472 154.402967 
L 197.59104 133.852392 
L 197.82912 149.18383 
L 197.94816 140.497861 
L 198.0672 159.841006 
L 198.18624 119.388406 
L 198.30528 159.568001 
L 198.54336 117.348874 
L 198.78144 160.757962 
L 198.90048 125.913035 
L 199.13856 152.055052 
L 199.37664 131.025617 
L 199.49568 155.5212 
L 199.8528 134.198085 
L 199.97184 135.563911 
L 200.20992 188.600937 
L 200.32896 123.048273 
L 200.448 132.559861 
L 200.56704 163.293377 
L 200.68608 108.470168 
L 200.92416 166.999448 
L 201.16224 109.388881 
L 201.28128 108.708865 
L 201.40032 166.932751 
L 201.6384 122.64686 
L 201.87648 148.263763 
L 201.99552 99.325315 
L 202.2336 142.17266 
L 202.35264 144.136702 
L 202.47168 140.327751 
L 202.59072 163.242604 
L 202.8288 127.768018 
L 202.94784 157.042819 
L 203.06688 132.490521 
L 203.18592 176.377751 
L 203.424 135.113517 
L 203.54304 125.096036 
L 203.66208 164.321522 
L 203.90016 159.46889 
L 204.0192 145.486746 
L 204.13824 154.354278 
L 204.25728 149.730281 
L 204.37632 158.590827 
L 204.49536 139.711599 
L 204.6144 141.263947 
L 204.85248 163.098226 
L 204.97152 167.385227 
L 205.2096 140.71725 
L 205.44768 156.710822 
L 205.56672 139.755792 
L 205.8048 191.447166 
L 205.92384 272.283112 
L 206.04288 133.876016 
L 206.16192 138.451089 
L 206.28096 168.435617 
L 206.51904 124.621939 
L 206.75712 145.316704 
L 206.87616 150.772701 
L 206.9952 140.317079 
L 207.11424 196.991038 
L 207.35232 120.224138 
L 207.47136 111.486036 
L 207.5904 133.947925 
L 207.70944 132.257216 
L 207.94752 154.063336 
L 208.06656 132.841939 
L 208.1856 164.696504 
L 208.30464 148.557032 
L 208.42368 165.964435 
L 208.54272 158.412865 
L 208.66176 135.82404 
L 208.7808 144.060924 
L 208.89984 140.598935 
L 209.01888 131.807797 
L 209.13792 178.659908 
L 209.25696 175.950035 
L 209.376 143.938289 
L 209.49504 154.249946 
L 209.61408 154.272484 
L 209.73312 138.68018 
L 209.85216 138.894457 
L 209.9712 102.632569 
L 210.32832 195.459957 
L 210.44736 144.094891 
L 210.5664 177.056313 
L 210.68544 139.550329 
L 210.80448 148.863909 
L 210.92352 141.072242 
L 211.04256 236.087769 
L 211.28064 118.781086 
L 211.39968 119.732106 
L 211.63776 179.667779 
L 211.7568 169.002988 
L 211.87584 138.063411 
L 211.99488 158.292457 
L 212.11392 126.507578 
L 212.352 166.84077 
L 212.47104 160.943186 
L 212.70912 109.268688 
L 212.9472 217.54912 
L 213.06624 158.968491 
L 213.18528 190.810706 
L 213.30432 180.516816 
L 213.42336 187.413078 
L 213.78048 144.144477 
L 213.89952 142.338 
L 214.01856 129.566664 
L 214.1376 149.472122 
L 214.25664 135.984991 
L 214.37568 141.587511 
L 214.49472 178.496335 
L 214.85184 145.690675 
L 214.97088 172.383659 
L 215.20896 125.144368 
L 215.44704 178.815455 
L 215.56608 174.647862 
L 215.80416 153.246797 
L 216.04224 139.45427 
L 216.16128 197.869783 
L 216.39936 132.428427 
L 216.5184 189.884397 
L 216.63744 138.719976 
L 216.75648 135.86509 
L 216.99456 153.543687 
L 217.1136 146.824189 
L 217.23264 147.765508 
L 217.35168 137.835881 
L 217.7088 155.866213 
L 217.82784 128.698133 
L 217.94688 140.438872 
L 218.06592 183.111102 
L 218.18496 137.148589 
L 218.304 160.730028 
L 218.54208 130.569761 
L 218.66112 229.635928 
L 218.78016 119.35385 
L 218.8992 135.467023 
L 219.01824 112.07156 
L 219.25632 151.305348 
L 219.37536 153.741188 
L 219.4944 122.282571 
L 219.85152 157.211872 
L 219.97056 142.824644 
L 220.0896 184.71038 
L 220.20864 134.679536 
L 220.32768 132.050833 
L 220.44672 141.587232 
L 220.56576 137.45183 
L 220.6848 121.28772 
L 220.80384 125.813321 
L 220.92288 159.272365 
L 221.16096 128.547042 
L 221.28 130.613133 
L 221.51808 148.559742 
L 221.63712 116.978258 
L 221.75616 158.819873 
L 221.8752 116.405898 
L 222.11328 163.256995 
L 222.23232 138.606503 
L 222.35136 151.33522 
L 222.4704 144.936892 
L 222.58944 170.555807 
L 222.70848 113.143384 
L 222.94656 192.033193 
L 223.0656 127.204688 
L 223.30368 158.143499 
L 223.42272 131.936732 
L 223.54176 151.816946 
L 223.6608 120.284083 
L 223.89888 135.852728 
L 224.01792 134.38485 
L 224.13696 158.055321 
L 224.256 122.669287 
L 224.49408 148.190679 
L 224.61312 116.509903 
L 224.8512 133.933295 
L 224.97024 126.00042 
L 225.08928 108.62877 
L 225.32736 171.396719 
L 225.4464 119.92334 
L 225.56544 166.893358 
L 225.80352 121.893349 
L 225.92256 119.634943 
L 226.0416 127.6025 
L 226.16064 171.516591 
L 226.27968 145.756913 
L 226.39872 172.6582 
L 226.6368 117.746726 
L 226.75584 121.350212 
L 226.99392 143.987071 
L 227.232 124.684132 
L 227.47008 155.459964 
L 227.58912 138.955571 
L 227.70816 148.958028 
L 227.8272 128.2438 
L 227.94624 148.927227 
L 228.06528 128.338236 
L 228.18432 164.278068 
L 228.30336 118.395841 
L 228.4224 159.52369 
L 228.77952 97.904197 
L 229.13664 180.379886 
L 229.25568 133.642656 
L 229.37472 155.40037 
L 229.49376 149.768298 
L 229.6128 207.085526 
L 229.73184 109.270778 
L 229.96992 142.273033 
L 230.208 155.041171 
L 230.32704 126.01232 
L 230.44608 143.116235 
L 230.56512 127.884774 
L 230.68416 163.386949 
L 230.8032 158.038426 
L 230.92224 147.171499 
L 231.04128 153.604151 
L 231.16032 108.651333 
L 231.3984 153.193727 
L 231.63648 122.371885 
L 231.75552 157.703888 
L 231.9936 122.829299 
L 232.11264 139.018793 
L 232.23168 135.33711 
L 232.35072 175.475254 
L 232.46976 132.368759 
L 232.70784 160.540692 
L 232.82688 153.233021 
L 232.94592 169.387547 
L 233.06496 156.962782 
L 233.184 132.879052 
L 233.30304 138.349025 
L 233.42208 134.072017 
L 233.54112 157.047719 
L 233.66016 157.907529 
L 234.01728 148.172381 
L 234.13632 140.796954 
L 234.25536 193.005258 
L 234.49344 119.174715 
L 234.73152 182.873083 
L 234.85056 147.27142 
L 234.9696 189.023698 
L 235.32672 116.909032 
L 235.44576 137.701522 
L 235.5648 125.887096 
L 235.68384 131.949721 
L 235.80288 185.798243 
L 235.92192 179.451998 
L 236.16 127.633093 
L 236.39808 114.904682 
L 236.51712 159.505893 
L 236.63616 118.766485 
L 236.87424 142.483402 
L 236.99328 148.431072 
L 237.23136 134.460204 
L 237.3504 181.003786 
L 237.46944 114.85816 
L 237.58848 126.415996 
L 237.70752 185.247214 
L 237.82656 177.826622 
L 237.9456 123.003337 
L 238.06464 130.327551 
L 238.30272 113.880875 
L 238.42176 114.88416 
L 238.5408 149.109998 
L 238.77888 134.600788 
L 238.89792 150.514348 
L 239.01696 145.291373 
L 239.136 151.37812 
L 239.25504 131.458342 
L 239.37408 132.625632 
L 239.49312 110.510115 
L 239.85024 132.997292 
L 239.96928 123.33471 
L 240.08832 133.98758 
L 240.20736 128.22264 
L 240.44544 144.317119 
L 240.56448 110.278821 
L 240.9216 179.331281 
L 241.04064 241.942736 
L 241.15968 157.00804 
L 241.27872 179.362154 
L 241.39776 112.025418 
L 241.5168 165.281786 
L 241.63584 168.086305 
L 241.75488 128.615596 
L 241.99296 171.927771 
L 242.112 137.64541 
L 242.23104 151.303764 
L 242.35008 128.362809 
L 242.46912 153.753507 
L 242.58816 128.713296 
L 242.7072 155.591402 
L 242.82624 101.712117 
L 242.94528 144.641952 
L 243.06432 144.292488 
L 243.18336 171.286167 
L 243.3024 155.721258 
L 243.42144 167.368534 
L 243.54048 144.691777 
L 243.65952 151.455622 
L 243.77856 131.699621 
L 243.8976 146.873266 
L 244.01664 143.57895 
L 244.13568 148.434547 
L 244.25472 119.5974 
L 244.4928 192.525857 
L 244.61184 112.199588 
L 244.73088 169.58489 
L 244.96896 123.14088 
L 245.088 187.855469 
L 245.32608 116.46841 
L 245.56416 161.777806 
L 245.6832 132.733151 
L 245.80224 152.291985 
L 245.92128 130.170317 
L 246.2784 140.235407 
L 246.39744 160.947903 
L 246.63552 127.046324 
L 246.8736 156.766928 
L 247.11168 125.554426 
L 247.23072 190.433244 
L 247.34976 127.971217 
L 247.4688 148.502296 
L 247.58784 134.868395 
L 247.70688 177.200669 
L 247.82592 128.412607 
L 248.064 145.340907 
L 248.18304 127.622028 
L 248.30208 160.822952 
L 248.42112 159.784319 
L 248.54016 150.478361 
L 248.6592 129.948036 
L 248.77824 158.897725 
L 248.89728 130.914522 
L 249.01632 149.624961 
L 249.13536 137.824549 
L 249.37344 153.693189 
L 249.49248 119.974825 
L 249.61152 148.39734 
L 249.73056 149.948828 
L 249.8496 132.929436 
L 249.96864 280.65362 
L 250.20672 142.98635 
L 250.32576 167.156365 
L 250.4448 157.113165 
L 250.68288 124.541602 
L 250.80192 149.988883 
L 250.92096 139.899206 
L 251.04 154.288126 
L 251.15904 148.160193 
L 251.27808 158.292609 
L 251.39712 154.871084 
L 251.51616 161.921484 
L 251.6352 122.511534 
L 251.75424 147.084504 
L 251.87328 143.663123 
L 251.99232 144.378435 
L 252.11136 128.831443 
L 252.2304 135.836933 
L 252.46848 118.174195 
L 252.58752 147.01878 
L 252.70656 147.944098 
L 252.8256 160.792766 
L 252.94464 147.344762 
L 253.06368 103.993642 
L 253.18272 163.216773 
L 253.30176 127.821899 
L 253.4208 154.003432 
L 253.53984 129.12104 
L 253.65888 195.391101 
L 253.77792 136.023762 
L 253.89696 137.994967 
L 254.016 133.320795 
L 254.25408 165.341939 
L 254.37312 110.118908 
L 254.49216 162.903595 
L 254.6112 163.053797 
L 254.84928 118.708395 
L 255.08736 151.385929 
L 255.2064 146.147695 
L 255.32544 111.346798 
L 255.44448 161.239808 
L 255.56352 141.198432 
L 255.68256 198.428683 
L 256.03968 132.873147 
L 256.15872 206.387473 
L 256.3968 132.310274 
L 256.51584 161.447717 
L 256.63488 135.226445 
L 256.75392 148.852431 
L 256.87296 141.095114 
L 256.992 170.197219 
L 257.11104 141.776611 
L 257.23008 187.459342 
L 257.34912 141.810192 
L 257.46816 145.152091 
L 257.70624 129.565432 
L 257.82528 152.741546 
L 257.94432 132.528954 
L 258.06336 160.953461 
L 258.1824 137.744659 
L 258.42048 168.742902 
L 258.53952 152.366076 
L 258.65856 161.326752 
L 258.7776 114.608181 
L 258.89664 170.668122 
L 259.01568 168.283404 
L 259.13472 149.014678 
L 259.25376 171.533446 
L 259.3728 134.639929 
L 259.61088 176.631809 
L 259.72992 137.17686 
L 259.968 158.23474 
L 260.08704 133.639052 
L 260.20608 144.803335 
L 260.32512 138.008309 
L 260.44416 178.21734 
L 260.5632 137.503158 
L 260.68224 135.538503 
L 260.80128 127.326689 
L 260.92032 135.599354 
L 261.03936 174.19357 
L 261.1584 122.885536 
L 261.27744 163.401072 
L 261.39648 165.698368 
L 261.51552 155.937275 
L 261.63456 198.746594 
L 261.7536 121.680109 
L 261.87264 122.276139 
L 261.99168 138.080111 
L 262.11072 137.589007 
L 262.22976 120.680703 
L 262.3488 143.389897 
L 262.46784 137.083892 
L 262.58688 140.606992 
L 262.70592 138.290086 
L 262.82496 128.827027 
L 262.944 167.570509 
L 263.06304 145.632417 
L 263.18208 147.107773 
L 263.42016 166.571808 
L 263.5392 130.338669 
L 263.65824 137.19191 
L 263.77728 131.496323 
L 263.89632 113.162755 
L 264.01536 151.277278 
L 264.1344 138.301883 
L 264.25344 175.242294 
L 264.37248 163.26767 
L 264.49152 139.819008 
L 264.61056 175.774206 
L 264.7296 135.923916 
L 264.84864 209.547067 
L 265.08672 155.260833 
L 265.3248 134.477297 
L 265.44384 151.734528 
L 265.56288 141.428276 
L 265.68192 165.105124 
L 266.03904 129.335128 
L 266.15808 140.91883 
L 266.27712 140.896788 
L 266.39616 142.708629 
L 266.5152 178.500881 
L 266.63424 140.804553 
L 266.87232 180.992491 
L 267.1104 145.424618 
L 267.22944 192.999141 
L 267.34848 131.660454 
L 267.46752 131.593431 
L 267.58656 158.421033 
L 267.94368 126.212226 
L 268.06272 128.146988 
L 268.18176 157.730112 
L 268.3008 138.267347 
L 268.41984 157.981244 
L 268.53888 152.221644 
L 268.65792 128.723114 
L 268.77696 161.064176 
L 268.896 117.704344 
L 269.13408 144.946408 
L 269.25312 153.121964 
L 269.37216 144.123588 
L 269.4912 213.185444 
L 269.72928 129.433337 
L 269.84832 183.889744 
L 269.96736 132.564982 
L 270.0864 163.984106 
L 270.20544 133.740824 
L 270.32448 200.477713 
L 270.44352 149.849276 
L 270.56256 155.136782 
L 270.6816 137.453887 
L 270.80064 136.515608 
L 270.91968 147.909269 
L 271.03872 132.190236 
L 271.15776 132.225777 
L 271.2768 138.666841 
L 271.39584 137.731692 
L 271.51488 156.094883 
L 271.63392 121.390834 
L 271.872 168.735524 
L 271.99104 185.500769 
L 272.11008 137.828819 
L 272.34816 159.255935 
L 272.4672 154.679067 
L 272.58624 219.6249 
L 272.70528 120.337716 
L 272.82432 175.006162 
L 272.94336 154.284348 
L 273.0624 172.476428 
L 273.18144 136.243342 
L 273.30048 196.074926 
L 273.41952 181.28122 
L 273.6576 132.130663 
L 273.77664 123.180033 
L 273.89568 128.002478 
L 274.01472 143.116299 
L 274.13376 129.36394 
L 274.37184 155.358672 
L 274.49088 142.989894 
L 274.72896 178.404803 
L 274.848 132.64826 
L 274.96704 134.070064 
L 275.08608 122.980575 
L 275.32416 186.590502 
L 275.4432 109.983654 
L 275.56224 164.161368 
L 275.68128 153.28785 
L 275.80032 130.223712 
L 276.0384 179.498288 
L 276.15744 136.670578 
L 276.27648 152.647123 
L 276.39552 146.811431 
L 276.6336 125.777503 
L 276.75264 191.95229 
L 276.87168 116.962548 
L 277.10976 172.261912 
L 277.2288 134.415854 
L 277.46688 164.299649 
L 277.58592 137.853367 
L 277.70496 163.745031 
L 277.824 133.646368 
L 277.94304 138.354919 
L 278.06208 174.533129 
L 278.18112 152.730159 
L 278.30016 167.85718 
L 278.53824 116.9989 
L 278.65728 147.991345 
L 278.77632 140.119934 
L 279.0144 162.937183 
L 279.13344 127.294252 
L 279.25248 194.623028 
L 279.37152 140.212027 
L 279.49056 145.167787 
L 279.6096 125.676569 
L 279.72864 133.514097 
L 279.84768 152.97937 
L 279.96672 128.526264 
L 280.08576 225.037988 
L 280.32384 129.96023 
L 280.44288 150.227862 
L 280.56192 149.122104 
L 280.68096 123.39574 
L 280.8 137.16538 
L 280.91904 121.838714 
L 281.03808 151.283922 
L 281.15712 120.858144 
L 281.51424 157.999163 
L 281.63328 138.164317 
L 281.75232 150.69643 
L 281.87136 142.860833 
L 281.9904 143.667567 
L 282.10944 136.758967 
L 282.22848 146.031984 
L 282.46656 135.463986 
L 282.5856 155.139478 
L 282.70464 152.27486 
L 282.94272 136.669277 
L 283.06176 177.632727 
L 283.29984 156.756217 
L 283.41888 209.971779 
L 283.65696 115.812498 
L 283.776 175.170398 
L 284.01408 139.224035 
L 284.13312 134.535582 
L 284.25216 162.688467 
L 284.3712 148.925047 
L 284.49024 150.91283 
L 284.72832 177.375901 
L 284.84736 126.613116 
L 284.9664 163.564837 
L 285.08544 141.191755 
L 285.20448 144.254219 
L 285.32352 153.417882 
L 285.44256 145.687943 
L 285.5616 158.225934 
L 285.79968 138.208314 
L 286.03776 195.204114 
L 286.1568 190.313713 
L 286.27584 149.909406 
L 286.39488 195.218522 
L 286.51392 134.643088 
L 286.87104 149.173015 
L 286.99008 138.939575 
L 287.10912 139.275105 
L 287.22816 184.537856 
L 287.58528 123.013364 
L 287.82336 182.003793 
L 287.9424 129.355395 
L 288.06144 153.564296 
L 288.41856 100.929591 
L 288.5376 146.965945 
L 288.65664 136.307539 
L 289.1328 178.33096 
L 289.25184 154.744963 
L 289.48992 164.638454 
L 289.60896 131.929998 
L 289.728 171.717182 
L 289.96608 157.17186 
L 290.20416 117.96734 
L 290.44224 169.767786 
L 290.56128 183.192248 
L 290.79936 159.176395 
L 290.9184 190.877468 
L 291.15648 139.658764 
L 291.27552 148.355912 
L 291.39456 179.517756 
L 291.63264 152.285322 
L 291.75168 193.948692 
L 291.87072 116.832606 
L 291.98976 164.550349 
L 292.1088 111.522697 
L 292.22784 165.703592 
L 292.58496 137.155334 
L 292.704 151.35859 
L 292.82304 119.466036 
L 292.94208 177.773764 
L 293.18016 125.496165 
L 293.41824 175.835495 
L 293.53728 178.184484 
L 293.65632 135.147836 
L 293.77536 179.578998 
L 293.8944 172.916065 
L 294.01344 188.922633 
L 294.25152 144.315118 
L 294.37056 157.695892 
L 294.4896 115.82489 
L 294.72768 157.032294 
L 295.0848 133.544562 
L 295.20384 178.254897 
L 295.44192 118.058544 
L 295.56096 150.239725 
L 295.79904 134.648152 
L 295.91808 167.911631 
L 296.03712 131.017503 
L 296.15616 191.301276 
L 296.39424 128.321036 
L 296.51328 138.049927 
L 296.63232 121.90987 
L 296.75136 140.397962 
L 296.8704 135.267125 
L 296.98944 176.196743 
L 297.22752 149.946724 
L 297.34656 138.328334 
L 297.4656 156.05781 
L 297.58464 136.434331 
L 297.70368 153.253824 
L 297.82272 135.599788 
L 297.94176 157.339766 
L 298.0608 135.373885 
L 298.29888 175.146713 
L 298.41792 107.169565 
L 298.656 182.552479 
L 298.77504 155.432799 
L 298.89408 154.067828 
L 299.01312 136.350865 
L 299.13216 158.966484 
L 299.48928 124.168099 
L 299.60832 154.652749 
L 299.72736 137.597508 
L 299.8464 148.032631 
L 299.96544 124.828036 
L 300.4416 182.723709 
L 300.56064 217.911822 
L 300.67968 141.545868 
L 300.79872 166.143204 
L 300.91776 161.938171 
L 301.15584 116.89092 
L 301.27488 149.583375 
L 301.39392 142.674433 
L 301.51296 149.965718 
L 301.632 178.299913 
L 301.98912 120.233815 
L 302.10816 129.012272 
L 302.2272 161.693771 
L 302.58432 133.023053 
L 302.70336 156.594477 
L 302.8224 124.838595 
L 302.94144 137.72051 
L 303.06048 134.651465 
L 303.17952 118.744341 
L 303.4176 152.338261 
L 303.53664 159.620585 
L 303.77472 128.277224 
L 303.89376 128.18942 
L 304.0128 175.794753 
L 304.13184 157.893532 
L 304.25088 156.79204 
L 304.36992 160.033631 
L 304.608 125.453426 
L 304.72704 156.487528 
L 304.84608 155.01386 
L 304.96512 150.808201 
L 305.2032 166.507227 
L 305.32224 200.524614 
L 305.56032 134.682598 
L 305.67936 177.638719 
L 305.7984 138.798472 
L 305.91744 189.090011 
L 306.15552 139.64949 
L 306.27456 134.033137 
L 306.3936 160.836762 
L 306.51264 139.92663 
L 306.75072 157.336336 
L 306.86976 182.747893 
L 307.10784 157.940319 
L 307.22688 168.691962 
L 307.34592 134.159938 
L 307.46496 177.48344 
L 307.70304 128.963192 
L 307.94112 177.005659 
L 308.06016 159.691695 
L 308.1792 174.451021 
L 308.29824 169.147865 
L 308.53632 127.276918 
L 308.65536 161.815772 
L 308.7744 112.067371 
L 308.89344 178.563451 
L 309.01248 144.852751 
L 309.13152 149.157465 
L 309.25056 159.255523 
L 309.3696 151.744089 
L 309.48864 170.980485 
L 309.60768 154.300869 
L 309.72672 167.073316 
L 309.9648 128.603812 
L 310.08384 154.835791 
L 310.20288 155.163453 
L 310.32192 188.161724 
L 310.56 126.843086 
L 310.67904 150.122598 
L 310.79808 129.387464 
L 310.91712 149.826753 
L 311.03616 143.555811 
L 311.1552 152.774024 
L 311.27424 138.232275 
L 311.39328 155.22353 
L 311.51232 148.473411 
L 311.63136 160.748102 
L 311.7504 154.461299 
L 311.86944 158.320352 
L 311.98848 103.029346 
L 312.10752 147.617407 
L 312.22656 141.379831 
L 312.3456 155.652643 
L 312.46464 127.907442 
L 312.58368 149.688284 
L 312.70272 135.663186 
L 312.82176 173.058556 
L 312.9408 125.721542 
L 313.17888 145.66923 
L 313.41696 131.516364 
L 313.536 166.083644 
L 313.65504 145.141977 
L 313.89312 206.635144 
L 314.01216 157.38918 
L 314.1312 171.471529 
L 314.25024 152.433765 
L 314.36928 183.505696 
L 314.48832 175.285037 
L 314.7264 148.938454 
L 314.84544 165.298352 
L 314.96448 136.485468 
L 315.08352 150.871953 
L 315.20256 182.029706 
L 315.44064 153.562267 
L 315.55968 167.125244 
L 315.67872 143.65044 
L 315.79776 160.100324 
L 315.9168 152.320706 
L 316.03584 167.301521 
L 316.15488 137.719788 
L 316.27392 151.158013 
L 316.39296 135.167191 
L 316.63104 192.619636 
L 316.86912 149.897029 
L 316.98816 201.447611 
L 317.1072 144.31242 
L 317.22624 177.2957 
L 317.34528 170.984734 
L 317.46432 138.186558 
L 317.58336 138.840023 
L 317.7024 144.328836 
L 317.82144 197.352685 
L 318.05952 142.495683 
L 318.17856 155.420721 
L 318.2976 144.33812 
L 318.41664 167.40232 
L 318.53568 151.000423 
L 318.65472 174.664545 
L 318.77376 142.619029 
L 318.8928 183.153577 
L 319.01184 134.297684 
L 319.13088 136.107553 
L 319.24992 122.247903 
L 319.36896 152.415184 
L 319.488 145.224188 
L 319.84512 152.393227 
L 319.96416 183.459114 
L 320.20224 141.717056 
L 320.32128 138.370273 
L 320.44032 195.260108 
L 320.55936 183.46714 
L 320.6784 148.735184 
L 320.79744 167.836584 
L 320.91648 145.579371 
L 321.03552 145.543309 
L 321.15456 115.061335 
L 321.2736 185.118961 
L 321.51168 146.66407 
L 321.63072 167.055522 
L 321.74976 160.394732 
L 321.8688 172.117241 
L 321.98784 213.623523 
L 322.10688 169.730855 
L 322.22592 239.538173 
L 322.464 132.597118 
L 322.58304 184.249565 
L 322.70208 126.653881 
L 322.82112 170.339117 
L 322.94016 127.194789 
L 323.0592 236.422974 
L 323.29728 135.315527 
L 323.41632 222.068494 
L 323.6544 152.57946 
L 323.77344 131.294656 
L 323.89248 166.696817 
L 324.01152 151.939068 
L 324.13056 169.347631 
L 324.2496 135.805184 
L 324.36864 184.250899 
L 324.60672 131.303699 
L 324.72576 229.01701 
L 324.96384 175.659089 
L 325.08288 146.734531 
L 325.32096 187.968803 
L 325.44 130.510476 
L 325.55904 150.943015 
L 325.67808 124.929882 
L 325.79712 214.170504 
L 325.91616 138.564628 
L 326.15424 204.193494 
L 326.27328 136.728164 
L 326.39232 168.905213 
L 326.51136 168.717346 
L 326.6304 124.851395 
L 326.74944 152.730605 
L 326.86848 138.569617 
L 326.98752 140.643648 
L 327.10656 125.032418 
L 327.2256 127.887429 
L 327.46368 171.648681 
L 327.58272 94.023065 
L 327.8208 164.675632 
L 327.93984 164.210503 
L 328.05888 200.00228 
L 328.416 127.537088 
L 328.65408 188.334711 
L 328.77312 149.550075 
L 328.89216 163.242265 
L 329.0112 141.437517 
L 329.13024 163.342944 
L 329.24928 145.722296 
L 329.36832 172.656366 
L 329.48736 152.334254 
L 329.6064 165.825478 
L 329.72544 285.408 
L 329.96352 149.552272 
L 330.2016 162.766245 
L 330.32064 139.599843 
L 330.43968 158.888813 
L 330.55872 131.896485 
L 330.7968 161.233479 
L 330.91584 140.098702 
L 331.03488 151.488549 
L 331.15392 145.633295 
L 331.27296 175.217041 
L 331.392 134.896906 
L 331.51104 175.113843 
L 331.63008 166.279924 
L 331.86816 229.493922 
L 331.9872 135.051421 
L 332.46336 163.364698 
L 332.5824 119.27809 
L 332.70144 130.109871 
L 332.82048 160.509109 
L 332.93952 150.801408 
L 333.29664 181.740797 
L 333.41568 136.62031 
L 333.53472 179.786071 
L 333.65376 155.652923 
L 333.7728 156.082771 
L 333.89184 175.038075 
L 334.12992 142.538532 
L 334.24896 144.879305 
L 334.368 159.225026 
L 334.72512 134.583251 
L 334.84416 149.30399 
L 334.9632 123.218668 
L 335.08224 169.059706 
L 335.20128 129.763524 
L 335.32032 214.495994 
L 335.43936 130.114147 
L 335.5584 129.427676 
L 335.67744 139.859306 
L 335.91552 163.199834 
L 336.03456 158.031822 
L 336.1536 113.65803 
L 336.27264 173.045945 
L 336.39168 157.799708 
L 336.51072 158.473495 
L 336.62976 160.472846 
L 336.7488 143.326119 
L 336.86784 146.324319 
L 336.98688 234.53499 
L 337.10592 150.231661 
L 337.22496 176.93178 
L 337.344 138.128486 
L 337.46304 164.693176 
L 337.58208 149.693998 
L 337.70112 182.934298 
L 337.82016 136.374004 
L 337.9392 141.673264 
L 338.05824 186.395152 
L 338.17728 166.678372 
L 338.29632 184.827013 
L 338.41536 134.173178 
L 338.5344 169.120402 
L 338.65344 135.834487 
L 338.77248 179.471548 
L 338.89152 143.54412 
L 339.01056 170.537496 
L 339.1296 134.35392 
L 339.48672 178.417081 
L 339.7248 150.835578 
L 339.84384 126.384615 
L 339.96288 152.129467 
L 340.08192 153.635282 
L 340.20096 151.5949 
L 340.32 145.447094 
L 340.43904 185.968236 
L 340.55808 140.422868 
L 340.67712 180.562999 
L 340.79616 131.457343 
L 340.9152 188.17143 
L 341.15328 147.184297 
L 341.27232 216.18248 
L 341.5104 127.323604 
L 341.86752 147.474437 
L 341.98656 181.456748 
L 342.22464 138.925755 
L 342.34368 167.847865 
L 342.58176 142.983902 
L 342.7008 156.857308 
L 342.81984 209.391143 
L 343.05792 132.741908 
L 343.17696 159.121148 
L 343.296 139.352602 
L 343.53408 175.900831 
L 343.65312 154.776983 
L 343.77216 239.459341 
L 343.8912 149.968902 
L 344.01024 155.206728 
L 344.12928 146.717889 
L 344.24832 154.20538 
L 344.36736 121.579183 
L 344.4864 138.863566 
L 344.60544 175.611244 
L 344.72448 173.305495 
L 344.84352 146.909861 
L 344.96256 164.758269 
L 345.0816 206.574958 
L 345.20064 153.440204 
L 345.31968 151.673898 
L 345.43872 182.905856 
L 345.55776 126.232369 
L 345.6768 145.284026 
L 345.91488 129.330933 
L 346.15296 164.836438 
L 346.272 173.922853 
L 346.39104 121.956726 
L 346.51008 139.702404 
L 346.74816 118.310032 
L 346.8672 133.813287 
L 346.98624 187.981507 
L 347.22432 115.541745 
L 347.34336 164.262606 
L 347.4624 141.493115 
L 347.58144 147.970652 
L 347.81952 134.973333 
L 347.93856 175.629126 
L 348.17664 119.202343 
L 348.41472 153.558319 
L 348.53376 170.057192 
L 348.6528 152.586816 
L 348.77184 153.545837 
L 349.00992 179.948639 
L 349.12896 132.081065 
L 349.248 222.515736 
L 349.36704 203.570297 
L 349.48608 121.365616 
L 349.60512 155.293058 
L 349.72416 125.49395 
L 349.8432 155.8334 
L 349.96224 115.99294 
L 350.08128 150.614745 
L 350.20032 148.980201 
L 350.31936 149.478773 
L 350.4384 165.544436 
L 350.55744 150.370017 
L 350.67648 160.955522 
L 350.79552 159.436006 
L 351.0336 121.177865 
L 351.15264 174.671984 
L 351.27168 163.336653 
L 351.39072 206.963726 
L 351.6288 154.379792 
L 351.74784 152.810553 
L 351.86688 166.052677 
L 351.98592 157.931442 
L 352.10496 183.204388 
L 352.224 155.82812 
L 352.34304 216.848468 
L 352.58112 156.197134 
L 352.70016 130.713042 
L 352.8192 156.546127 
L 352.93824 137.894581 
L 353.05728 169.170016 
L 353.4144 133.444217 
L 353.65248 161.900565 
L 353.77152 139.714595 
L 353.89056 163.061555 
L 354.0096 130.87575 
L 354.24768 162.800347 
L 354.36672 165.538807 
L 354.48576 190.929504 
L 354.72384 128.166983 
L 354.84288 168.37691 
L 354.96192 125.529429 
L 355.08096 131.111798 
L 355.2 170.283474 
L 355.43808 134.988201 
L 355.55712 169.045637 
L 355.67616 160.44561 
L 355.7952 128.483418 
L 355.91424 152.236262 
L 356.03328 137.057817 
L 356.15232 158.835698 
L 356.27136 135.884734 
L 356.3904 137.249599 
L 356.50944 144.242755 
L 356.62848 122.375062 
L 356.74752 195.325249 
L 356.86656 150.599952 
L 356.9856 208.669753 
L 357.22368 162.73826 
L 357.34272 128.499138 
L 357.46176 136.661743 
L 357.5808 213.710438 
L 357.81888 141.326387 
L 358.05696 161.999073 
L 358.176 182.973027 
L 358.29504 132.158756 
L 358.65216 172.72891 
L 358.89024 105.459027 
L 359.00928 143.416305 
L 359.12832 133.532428 
L 359.24736 145.676069 
L 359.3664 127.353618 
L 359.48544 177.789724 
L 359.60448 107.92958 
L 359.72352 166.376752 
L 359.84256 163.018885 
L 359.9616 156.470384 
L 360.08064 131.770219 
L 360.19968 190.802137 
L 360.31872 163.758687 
L 360.43776 169.527065 
L 360.5568 152.707011 
L 360.67584 160.079762 
L 360.79488 133.238545 
L 360.91392 139.537694 
L 361.152 172.041593 
L 361.27104 175.14251 
L 361.39008 190.179198 
L 361.62816 149.786144 
L 361.7472 184.204869 
L 361.86624 164.884074 
L 361.98528 164.73034 
L 362.10432 145.091556 
L 362.22336 190.771278 
L 362.3424 147.371497 
L 362.46144 189.472435 
L 362.58048 150.528938 
L 362.81856 169.922603 
L 362.9376 154.439774 
L 363.05664 163.51554 
L 363.17568 142.906432 
L 363.29472 143.927671 
L 363.41376 143.103217 
L 363.5328 100.090486 
L 363.65184 165.875274 
L 363.77088 159.039309 
L 363.88992 218.962398 
L 364.128 143.275552 
L 364.24704 133.557553 
L 364.36608 150.228381 
L 364.48512 188.19084 
L 364.60416 135.701916 
L 364.7232 146.151222 
L 364.84224 171.354097 
L 364.96128 155.225627 
L 365.08032 192.5559 
L 365.19936 140.114559 
L 365.3184 137.093279 
L 365.55648 183.527002 
L 365.67552 117.982092 
L 365.79456 157.556433 
L 366.03264 145.239564 
L 366.15168 142.876474 
L 366.27072 126.01266 
L 366.38976 168.646274 
L 366.5088 115.974257 
L 366.62784 131.298571 
L 366.86592 186.474995 
L 366.98496 161.594415 
L 367.104 173.913764 
L 367.34208 145.771678 
L 367.46112 145.737029 
L 367.58016 172.949788 
L 367.6992 119.760218 
L 367.81824 132.46462 
L 367.93728 161.280133 
L 368.05632 144.477505 
L 368.17536 186.424235 
L 368.41344 120.706425 
L 368.53248 128.591893 
L 368.77056 179.748916 
L 368.8896 120.384474 
L 369.00864 128.359774 
L 369.24672 194.141361 
L 369.36576 190.232261 
L 369.60384 145.697869 
L 369.96096 186.874085 
L 370.19904 151.062068 
L 370.31808 170.079525 
L 370.43712 149.618851 
L 370.55616 166.461979 
L 370.6752 133.449453 
L 370.79424 173.29381 
L 371.03232 145.984915 
L 371.2704 173.364773 
L 371.38944 135.42015 
L 371.62752 157.16374 
L 371.8656 165.891205 
L 371.98464 115.710256 
L 372.34176 154.465104 
L 372.57984 165.423632 
L 372.69888 164.767071 
L 372.81792 163.100626 
L 372.93696 165.004137 
L 373.056 142.543376 
L 373.29408 200.482892 
L 373.53216 123.164333 
L 373.6512 159.955047 
L 373.77024 151.775838 
L 373.88928 176.53227 
L 374.12736 146.863186 
L 374.2464 213.85153 
L 374.36544 199.652335 
L 374.60352 138.214312 
L 374.72256 201.764139 
L 374.96064 136.262759 
L 375.07968 178.064361 
L 375.19872 140.076313 
L 375.31776 144.427391 
L 375.4368 176.843111 
L 375.67488 136.692022 
L 375.79392 185.397328 
L 375.91296 138.869731 
L 376.032 167.877841 
L 376.27008 143.270575 
L 376.38912 152.08072 
L 376.50816 146.857722 
L 376.6272 151.396845 
L 376.74624 161.315306 
L 376.86528 156.061738 
L 376.98432 136.87942 
L 377.10336 176.053921 
L 377.2224 154.366824 
L 377.34144 174.639373 
L 377.46048 127.712787 
L 377.57952 199.451191 
L 377.69856 119.333622 
L 377.8176 144.604778 
L 377.93664 144.35566 
L 378.05568 170.396237 
L 378.53184 129.446564 
L 378.76992 152.200752 
L 378.88896 124.506379 
L 379.24608 162.658532 
L 379.36512 134.10419 
L 379.48416 145.92847 
L 379.6032 142.178455 
L 379.72224 172.343439 
L 379.96032 145.865417 
L 380.07936 161.268923 
L 380.1984 211.036512 
L 380.43648 128.979566 
L 380.55552 146.031874 
L 380.67456 136.353472 
L 380.7936 196.835946 
L 381.03168 122.559664 
L 381.26976 162.598877 
L 381.3888 127.137161 
L 381.50784 138.8373 
L 381.62688 166.230684 
L 381.74592 120.284132 
L 381.86496 155.089818 
L 381.984 144.232675 
L 382.10304 192.159572 
L 382.34112 117.137171 
L 382.46016 133.125263 
L 382.5792 194.689549 
L 382.69824 190.729167 
L 382.81728 148.96681 
L 382.93632 173.347627 
L 383.05536 169.47183 
L 383.1744 131.163674 
L 383.29344 145.492807 
L 383.41248 180.997907 
L 383.65056 134.401763 
L 384.00768 175.177793 
L 384.12672 175.17553 
L 384.3648 129.460821 
L 384.48384 146.792253 
L 384.60288 133.768968 
L 384.84096 181.937592 
L 384.96 146.897313 
L 385.19808 182.735865 
L 385.31712 118.156994 
L 385.43616 180.378669 
L 385.67424 145.216041 
L 385.79328 180.26777 
L 385.91232 145.67673 
L 386.1504 155.669785 
L 386.26944 191.139713 
L 386.50752 134.202432 
L 386.62656 162.872372 
L 386.7456 154.468269 
L 386.86464 158.388775 
L 386.98368 153.851428 
L 387.10272 163.537773 
L 387.22176 140.884798 
L 387.3408 156.051882 
L 387.45984 152.349844 
L 387.69792 128.942392 
L 387.81696 159.83818 
L 387.936 121.531963 
L 388.05504 189.19118 
L 388.29312 147.426139 
L 388.41216 142.718984 
L 388.5312 162.248178 
L 388.76928 130.410296 
L 388.88832 197.144423 
L 389.1264 129.245324 
L 389.24544 132.218891 
L 389.36448 154.69833 
L 389.48352 137.826719 
L 389.60256 161.363964 
L 389.84064 138.554986 
L 389.95968 150.518029 
L 390.07872 139.318053 
L 390.19776 173.079922 
L 390.3168 136.64196 
L 390.43584 177.045406 
L 390.55488 176.766831 
L 390.912 129.843506 
L 391.03104 142.249042 
L 391.15008 166.382212 
L 391.26912 150.445538 
L 391.38816 187.562295 
L 391.62624 136.491421 
L 391.74528 177.831394 
L 391.86432 142.325043 
L 391.98336 187.424513 
L 392.1024 157.863223 
L 392.22144 164.24366 
L 392.45952 128.838913 
L 392.81664 159.120624 
L 392.93568 145.897213 
L 393.05472 171.070689 
L 393.17376 149.840065 
L 393.2928 172.067745 
L 393.41184 118.149816 
L 393.53088 194.77231 
L 393.888 157.979384 
L 394.24512 185.172313 
L 394.4832 129.835208 
L 394.60224 159.909431 
L 394.72128 157.342764 
L 394.84032 219.076984 
L 394.95936 138.401496 
L 395.0784 164.088779 
L 395.19744 149.788917 
L 395.31648 174.867857 
L 395.43552 149.614865 
L 395.55456 150.461381 
L 395.6736 182.782113 
L 395.91168 126.796959 
L 396.03072 167.716425 
L 396.14976 139.500568 
L 396.2688 146.072818 
L 396.38784 161.396253 
L 396.62592 133.894102 
L 396.864 174.702846 
L 396.98304 131.038013 
L 397.10208 187.152878 
L 397.34016 138.269373 
L 397.4592 174.67053 
L 397.57824 136.934761 
L 397.69728 146.139171 
L 397.81632 133.906222 
L 397.93536 151.76593 
L 398.0544 190.200389 
L 398.17344 162.936853 
L 398.29248 163.520038 
L 398.41152 127.804217 
L 398.53056 156.511187 
L 398.6496 126.62829 
L 398.76864 165.879596 
L 398.88768 151.989139 
L 399.00672 190.005742 
L 399.12576 125.131939 
L 399.2448 158.475553 
L 399.36384 134.094931 
L 399.48288 160.294588 
L 399.60192 144.95729 
L 399.72096 201.144428 
L 399.84 138.675157 
L 399.95904 193.579117 
L 400.07808 196.29417 
L 400.19712 135.557355 
L 400.4352 173.226459 
L 400.55424 147.785432 
L 400.67328 194.128507 
L 400.79232 141.781809 
L 400.91136 150.830336 
L 401.0304 148.39335 
L 401.14944 139.799569 
L 401.26848 158.551203 
L 401.38752 127.485245 
L 401.50656 146.985246 
L 401.6256 138.437883 
L 401.74464 162.511176 
L 401.86368 163.834573 
L 402.10176 138.770158 
L 402.2208 165.570682 
L 402.33984 148.625009 
L 402.45888 181.386619 
L 402.69696 135.28543 
L 402.93504 153.225379 
L 403.05408 197.018703 
L 403.17312 129.267621 
L 403.29216 179.613043 
L 403.4112 124.794584 
L 403.53024 154.054215 
L 403.64928 152.950449 
L 403.76832 192.902721 
L 404.12544 127.60901 
L 404.24448 132.13064 
L 404.36352 183.590717 
L 404.48256 133.153978 
L 404.72064 176.947161 
L 404.83968 172.479172 
L 404.95872 158.751455 
L 405.07776 170.689457 
L 405.1968 140.372357 
L 405.31584 139.230802 
L 405.43488 144.132147 
L 405.55392 170.054239 
L 405.67296 160.002282 
L 405.792 165.551879 
L 405.91104 180.164895 
L 406.26816 137.264486 
L 406.3872 155.054531 
L 406.50624 133.210986 
L 406.74432 161.283779 
L 406.86336 129.175159 
L 406.9824 229.885903 
L 407.22048 145.81968 
L 407.33952 184.936603 
L 407.5776 150.552105 
L 407.69664 162.561948 
L 407.81568 155.441946 
L 407.93472 183.08129 
L 408.1728 133.751981 
L 408.29184 158.21207 
L 408.41088 139.640216 
L 408.64896 172.340201 
L 408.88704 150.761541 
L 409.12512 166.002215 
L 409.24416 128.137274 
L 409.3632 197.353081 
L 409.48224 192.114009 
L 409.72032 119.817982 
L 409.83936 167.487291 
L 409.9584 123.30785 
L 410.31552 191.898675 
L 410.5536 128.363292 
L 410.67264 187.792331 
L 410.79168 122.731895 
L 411.02976 165.613361 
L 411.1488 146.506508 
L 411.26784 161.169365 
L 411.50592 142.664737 
L 411.62496 227.225173 
L 411.86304 146.804157 
L 411.98208 165.905189 
L 412.10112 143.759756 
L 412.22016 164.057547 
L 412.45824 152.897445 
L 412.57728 141.096231 
L 412.69632 176.627486 
L 412.81536 124.994887 
L 413.05344 177.635944 
L 413.17248 158.616374 
L 413.41056 169.41904 
L 413.5296 146.931162 
L 413.64864 176.42115 
L 413.76768 141.78528 
L 413.88672 153.737937 
L 414.00576 177.773693 
L 414.24384 125.600885 
L 414.36288 140.680554 
L 414.48192 195.655544 
L 414.60096 130.273775 
L 414.60096 130.273775 
" style="fill:none;stroke:#0000ff;stroke-linecap:square;stroke-width:1.5;"/>
   </g>
   <g id="patch_3">
    <path d="M 57.6 307.584 
L 57.6 41.472 
" style="fill:none;stroke:#000000;stroke-linecap:square;stroke-linejoin:miter;stroke-width:0.8;"/>
   </g>
   <g id="patch_4">
    <path d="M 414.72 307.584 
L 414.72 41.472 
" style="fill:none;stroke:#000000;stroke-linecap:square;stroke-linejoin:miter;stroke-width:0.8;"/>
   </g>
   <g id="patch_5">
    <path d="M 57.6 307.584 
L 414.72 307.584 
" style="fill:none;stroke:#000000;stroke-linecap:square;stroke-linejoin:miter;stroke-width:0.8;"/>
   </g>
   <g id="patch_6">
    <path d="M 57.6 41.472 
L 414.72 41.472 
" style="fill:none;stroke:#000000;stroke-linecap:square;stroke-linejoin:miter;stroke-width:0.8;"/>
   </g>
   <g id="legend_1">
    <g id="patch_7">
     <path d="M 282.321563 64.150125 
L 407.72 64.150125 
Q 409.72 64.150125 409.72 62.150125 
L 409.72 48.472 
Q 409.72 46.472 407.72 46.472 
L 282.321563 46.472 
Q 280.321563 46.472 280.321563 48.472 
L 280.321563 62.150125 
Q 280.321563 64.150125 282.321563 64.150125 
z
" style="fill:#ffffff;opacity:0.8;stroke:#cccccc;stroke-linejoin:miter;"/>
    </g>
    <g id="line2d_30">
     <path d="M 284.321563 54.570438 
L 304.321563 54.570438 
" style="fill:none;stroke:#0000ff;stroke-linecap:square;stroke-width:1.5;"/>
    </g>
    <g id="line2d_31"/>
    <g id="text_17">
     <!-- cumulative reward -->
     <g transform="translate(312.321563 58.070438)scale(0.1 -0.1)">
      <defs>
       <path d="M 3122 3366 
L 3122 2828 
Q 2878 2963 2633 3030 
Q 2388 3097 2138 3097 
Q 1578 3097 1268 2742 
Q 959 2388 959 1747 
Q 959 1106 1268 751 
Q 1578 397 2138 397 
Q 2388 397 2633 464 
Q 2878 531 3122 666 
L 3122 134 
Q 2881 22 2623 -34 
Q 2366 -91 2075 -91 
Q 1284 -91 818 406 
Q 353 903 353 1747 
Q 353 2603 823 3093 
Q 1294 3584 2113 3584 
Q 2378 3584 2631 3529 
Q 2884 3475 3122 3366 
z
" id="DejaVuSans-63" transform="scale(0.015625)"/>
      </defs>
      <use xlink:href="#DejaVuSans-63"/>
      <use x="54.980469" xlink:href="#DejaVuSans-75"/>
      <use x="118.359375" xlink:href="#DejaVuSans-6d"/>
      <use x="215.771484" xlink:href="#DejaVuSans-75"/>
      <use x="279.150391" xlink:href="#DejaVuSans-6c"/>
      <use x="306.933594" xlink:href="#DejaVuSans-61"/>
      <use x="368.212891" xlink:href="#DejaVuSans-74"/>
      <use x="407.421875" xlink:href="#DejaVuSans-69"/>
      <use x="435.205078" xlink:href="#DejaVuSans-76"/>
      <use x="494.384766" xlink:href="#DejaVuSans-65"/>
      <use x="555.908203" xlink:href="#DejaVuSans-20"/>
      <use x="587.695312" xlink:href="#DejaVuSans-72"/>
      <use x="626.558594" xlink:href="#DejaVuSans-65"/>
      <use x="688.082031" xlink:href="#DejaVuSans-77"/>
      <use x="769.869141" xlink:href="#DejaVuSans-61"/>
      <use x="831.148438" xlink:href="#DejaVuSans-72"/>
      <use x="870.511719" xlink:href="#DejaVuSans-64"/>
     </g>
    </g>
   </g>
  </g>
 </g>
 <defs>
  <clipPath id="pd66bdaf1ce">
   <rect height="266.112" width="357.12" x="57.6" y="41.472"/>
  </clipPath>
 </defs>
</svg>
