<?xml version="1.0" encoding="utf-8" standalone="no"?>
<!DOCTYPE svg PUBLIC "-//W3C//DTD SVG 1.1//EN"
  "http://www.w3.org/Graphics/SVG/1.1/DTD/svg11.dtd">
<svg height="345.6pt" version="1.1" viewBox="0 0 460.8 345.6" width="460.8pt" xmlns="http://www.w3.org/2000/svg" xmlns:xlink="http://www.w3.org/1999/xlink">
 <metadata>
  <rdf:RDF xmlns:cc="http://creativecommons.org/ns#" xmlns:dc="http://purl.org/dc/elements/1.1/" xmlns:rdf="http://www.w3.org/1999/02/22-rdf-syntax-ns#">
   <cc:Work>
    <dc:type rdf:resource="http://purl.org/dc/dcmitype/StillImage"/>
    <dc:date>2021-10-27T13:00:16.044975</dc:date>
    <dc:description>{"agent.algorithm": "RayProximalPolicyOptimization", "agent.algorithm.render_env": false, "agent.algorithm.num_workers": 0, "agent.algorithm.batch_mode": "complete_episodes", "agent.algorithm.train_batch_size": 200, "agent.algorithm.optimizer": "Adam", "agent.algorithm.vf_clip_param": 10, "agent.algorithm.model": {"fcnet_activation": "tanh", "fcnet_hiddens": [50, 50]}, "env.env_class": "SchedulerPolicyRayEnvironment", "env.env_config": {"solver_driver": "CMAdriver", "solver_driver_args": [10, 10, 17, 0.33], "maximize": false, "steps": 50, "state_metrics_names": ["DifferenceOfBest", "SolverStateHistory", "SolverState"], "state_metrics_config": [[40, false, 1, true], [{"step_size": {"max": 3, "min": 0}}, 40], [{"ps": {"max": 10, "min": -10}}]], "reward_metric": "Best", "reward_metric_config": [false, false], "memes_no": 1, "action_space_config": {"step_size": {"max": 3, "min": 1e-10}}}}</dc:description>
    <dc:format>image/svg+xml</dc:format>
    <dc:creator>
     <cc:Agent>
      <dc:title>Matplotlib v3.4.3, https://matplotlib.org/</dc:title>
     </cc:Agent>
    </dc:creator>
   </cc:Work>
  </rdf:RDF>
 </metadata>
 <defs>
  <style type="text/css">*{stroke-linecap:butt;stroke-linejoin:round;}</style>
 </defs>
 <g id="figure_1">
  <g id="patch_1">
   <path d="M 0 345.6 
L 460.8 345.6 
L 460.8 0 
L 0 0 
z
" style="fill:#ffffff;"/>
  </g>
  <g id="axes_1">
   <g id="patch_2">
    <path d="M 57.6 307.584 
L 414.72 307.584 
L 414.72 41.472 
L 57.6 41.472 
z
" style="fill:#ffffff;"/>
   </g>
   <g id="matplotlib.axis_1">
    <g id="xtick_1">
     <g id="line2d_1">
      <path clip-path="url(#p957eb43e8a)" d="M 57.6 307.584 
L 57.6 41.472 
" style="fill:none;stroke:#b0b0b0;stroke-linecap:square;stroke-width:0.8;"/>
     </g>
     <g id="line2d_2">
      <defs>
       <path d="M 0 0 
L 0 3.5 
" id="mf67f5f4d45" style="stroke:#000000;stroke-width:0.8;"/>
      </defs>
      <g>
       <use style="stroke:#000000;stroke-width:0.8;" x="57.6" xlink:href="#mf67f5f4d45" y="307.584"/>
      </g>
     </g>
     <g id="text_1">
      <!-- 0 -->
      <g transform="translate(54.41875 322.182437)scale(0.1 -0.1)">
       <defs>
        <path d="M 2034 4250 
Q 1547 4250 1301 3770 
Q 1056 3291 1056 2328 
Q 1056 1369 1301 889 
Q 1547 409 2034 409 
Q 2525 409 2770 889 
Q 3016 1369 3016 2328 
Q 3016 3291 2770 3770 
Q 2525 4250 2034 4250 
z
M 2034 4750 
Q 2819 4750 3233 4129 
Q 3647 3509 3647 2328 
Q 3647 1150 3233 529 
Q 2819 -91 2034 -91 
Q 1250 -91 836 529 
Q 422 1150 422 2328 
Q 422 3509 836 4129 
Q 1250 4750 2034 4750 
z
" id="DejaVuSans-30" transform="scale(0.015625)"/>
       </defs>
       <use xlink:href="#DejaVuSans-30"/>
      </g>
     </g>
    </g>
    <g id="xtick_2">
     <g id="line2d_3">
      <path clip-path="url(#p957eb43e8a)" d="M 129.024 307.584 
L 129.024 41.472 
" style="fill:none;stroke:#b0b0b0;stroke-linecap:square;stroke-width:0.8;"/>
     </g>
     <g id="line2d_4">
      <g>
       <use style="stroke:#000000;stroke-width:0.8;" x="129.024" xlink:href="#mf67f5f4d45" y="307.584"/>
      </g>
     </g>
     <g id="text_2">
      <!-- 200 -->
      <g transform="translate(119.48025 322.182437)scale(0.1 -0.1)">
       <defs>
        <path d="M 1228 531 
L 3431 531 
L 3431 0 
L 469 0 
L 469 531 
Q 828 903 1448 1529 
Q 2069 2156 2228 2338 
Q 2531 2678 2651 2914 
Q 2772 3150 2772 3378 
Q 2772 3750 2511 3984 
Q 2250 4219 1831 4219 
Q 1534 4219 1204 4116 
Q 875 4013 500 3803 
L 500 4441 
Q 881 4594 1212 4672 
Q 1544 4750 1819 4750 
Q 2544 4750 2975 4387 
Q 3406 4025 3406 3419 
Q 3406 3131 3298 2873 
Q 3191 2616 2906 2266 
Q 2828 2175 2409 1742 
Q 1991 1309 1228 531 
z
" id="DejaVuSans-32" transform="scale(0.015625)"/>
       </defs>
       <use xlink:href="#DejaVuSans-32"/>
       <use x="63.623047" xlink:href="#DejaVuSans-30"/>
       <use x="127.246094" xlink:href="#DejaVuSans-30"/>
      </g>
     </g>
    </g>
    <g id="xtick_3">
     <g id="line2d_5">
      <path clip-path="url(#p957eb43e8a)" d="M 200.448 307.584 
L 200.448 41.472 
" style="fill:none;stroke:#b0b0b0;stroke-linecap:square;stroke-width:0.8;"/>
     </g>
     <g id="line2d_6">
      <g>
       <use style="stroke:#000000;stroke-width:0.8;" x="200.448" xlink:href="#mf67f5f4d45" y="307.584"/>
      </g>
     </g>
     <g id="text_3">
      <!-- 400 -->
      <g transform="translate(190.90425 322.182437)scale(0.1 -0.1)">
       <defs>
        <path d="M 2419 4116 
L 825 1625 
L 2419 1625 
L 2419 4116 
z
M 2253 4666 
L 3047 4666 
L 3047 1625 
L 3713 1625 
L 3713 1100 
L 3047 1100 
L 3047 0 
L 2419 0 
L 2419 1100 
L 313 1100 
L 313 1709 
L 2253 4666 
z
" id="DejaVuSans-34" transform="scale(0.015625)"/>
       </defs>
       <use xlink:href="#DejaVuSans-34"/>
       <use x="63.623047" xlink:href="#DejaVuSans-30"/>
       <use x="127.246094" xlink:href="#DejaVuSans-30"/>
      </g>
     </g>
    </g>
    <g id="xtick_4">
     <g id="line2d_7">
      <path clip-path="url(#p957eb43e8a)" d="M 271.872 307.584 
L 271.872 41.472 
" style="fill:none;stroke:#b0b0b0;stroke-linecap:square;stroke-width:0.8;"/>
     </g>
     <g id="line2d_8">
      <g>
       <use style="stroke:#000000;stroke-width:0.8;" x="271.872" xlink:href="#mf67f5f4d45" y="307.584"/>
      </g>
     </g>
     <g id="text_4">
      <!-- 600 -->
      <g transform="translate(262.32825 322.182437)scale(0.1 -0.1)">
       <defs>
        <path d="M 2113 2584 
Q 1688 2584 1439 2293 
Q 1191 2003 1191 1497 
Q 1191 994 1439 701 
Q 1688 409 2113 409 
Q 2538 409 2786 701 
Q 3034 994 3034 1497 
Q 3034 2003 2786 2293 
Q 2538 2584 2113 2584 
z
M 3366 4563 
L 3366 3988 
Q 3128 4100 2886 4159 
Q 2644 4219 2406 4219 
Q 1781 4219 1451 3797 
Q 1122 3375 1075 2522 
Q 1259 2794 1537 2939 
Q 1816 3084 2150 3084 
Q 2853 3084 3261 2657 
Q 3669 2231 3669 1497 
Q 3669 778 3244 343 
Q 2819 -91 2113 -91 
Q 1303 -91 875 529 
Q 447 1150 447 2328 
Q 447 3434 972 4092 
Q 1497 4750 2381 4750 
Q 2619 4750 2861 4703 
Q 3103 4656 3366 4563 
z
" id="DejaVuSans-36" transform="scale(0.015625)"/>
       </defs>
       <use xlink:href="#DejaVuSans-36"/>
       <use x="63.623047" xlink:href="#DejaVuSans-30"/>
       <use x="127.246094" xlink:href="#DejaVuSans-30"/>
      </g>
     </g>
    </g>
    <g id="xtick_5">
     <g id="line2d_9">
      <path clip-path="url(#p957eb43e8a)" d="M 343.296 307.584 
L 343.296 41.472 
" style="fill:none;stroke:#b0b0b0;stroke-linecap:square;stroke-width:0.8;"/>
     </g>
     <g id="line2d_10">
      <g>
       <use style="stroke:#000000;stroke-width:0.8;" x="343.296" xlink:href="#mf67f5f4d45" y="307.584"/>
      </g>
     </g>
     <g id="text_5">
      <!-- 800 -->
      <g transform="translate(333.75225 322.182437)scale(0.1 -0.1)">
       <defs>
        <path d="M 2034 2216 
Q 1584 2216 1326 1975 
Q 1069 1734 1069 1313 
Q 1069 891 1326 650 
Q 1584 409 2034 409 
Q 2484 409 2743 651 
Q 3003 894 3003 1313 
Q 3003 1734 2745 1975 
Q 2488 2216 2034 2216 
z
M 1403 2484 
Q 997 2584 770 2862 
Q 544 3141 544 3541 
Q 544 4100 942 4425 
Q 1341 4750 2034 4750 
Q 2731 4750 3128 4425 
Q 3525 4100 3525 3541 
Q 3525 3141 3298 2862 
Q 3072 2584 2669 2484 
Q 3125 2378 3379 2068 
Q 3634 1759 3634 1313 
Q 3634 634 3220 271 
Q 2806 -91 2034 -91 
Q 1263 -91 848 271 
Q 434 634 434 1313 
Q 434 1759 690 2068 
Q 947 2378 1403 2484 
z
M 1172 3481 
Q 1172 3119 1398 2916 
Q 1625 2713 2034 2713 
Q 2441 2713 2670 2916 
Q 2900 3119 2900 3481 
Q 2900 3844 2670 4047 
Q 2441 4250 2034 4250 
Q 1625 4250 1398 4047 
Q 1172 3844 1172 3481 
z
" id="DejaVuSans-38" transform="scale(0.015625)"/>
       </defs>
       <use xlink:href="#DejaVuSans-38"/>
       <use x="63.623047" xlink:href="#DejaVuSans-30"/>
       <use x="127.246094" xlink:href="#DejaVuSans-30"/>
      </g>
     </g>
    </g>
    <g id="xtick_6">
     <g id="line2d_11">
      <path clip-path="url(#p957eb43e8a)" d="M 414.72 307.584 
L 414.72 41.472 
" style="fill:none;stroke:#b0b0b0;stroke-linecap:square;stroke-width:0.8;"/>
     </g>
     <g id="line2d_12">
      <g>
       <use style="stroke:#000000;stroke-width:0.8;" x="414.72" xlink:href="#mf67f5f4d45" y="307.584"/>
      </g>
     </g>
     <g id="text_6">
      <!-- 1000 -->
      <g transform="translate(401.995 322.182437)scale(0.1 -0.1)">
       <defs>
        <path d="M 794 531 
L 1825 531 
L 1825 4091 
L 703 3866 
L 703 4441 
L 1819 4666 
L 2450 4666 
L 2450 531 
L 3481 531 
L 3481 0 
L 794 0 
L 794 531 
z
" id="DejaVuSans-31" transform="scale(0.015625)"/>
       </defs>
       <use xlink:href="#DejaVuSans-31"/>
       <use x="63.623047" xlink:href="#DejaVuSans-30"/>
       <use x="127.246094" xlink:href="#DejaVuSans-30"/>
       <use x="190.869141" xlink:href="#DejaVuSans-30"/>
      </g>
     </g>
    </g>
    <g id="text_7">
     <!-- Episodes -->
     <g transform="translate(213.917812 335.860562)scale(0.1 -0.1)">
      <defs>
       <path d="M 628 4666 
L 3578 4666 
L 3578 4134 
L 1259 4134 
L 1259 2753 
L 3481 2753 
L 3481 2222 
L 1259 2222 
L 1259 531 
L 3634 531 
L 3634 0 
L 628 0 
L 628 4666 
z
" id="DejaVuSans-45" transform="scale(0.015625)"/>
       <path d="M 1159 525 
L 1159 -1331 
L 581 -1331 
L 581 3500 
L 1159 3500 
L 1159 2969 
Q 1341 3281 1617 3432 
Q 1894 3584 2278 3584 
Q 2916 3584 3314 3078 
Q 3713 2572 3713 1747 
Q 3713 922 3314 415 
Q 2916 -91 2278 -91 
Q 1894 -91 1617 61 
Q 1341 213 1159 525 
z
M 3116 1747 
Q 3116 2381 2855 2742 
Q 2594 3103 2138 3103 
Q 1681 3103 1420 2742 
Q 1159 2381 1159 1747 
Q 1159 1113 1420 752 
Q 1681 391 2138 391 
Q 2594 391 2855 752 
Q 3116 1113 3116 1747 
z
" id="DejaVuSans-70" transform="scale(0.015625)"/>
       <path d="M 603 3500 
L 1178 3500 
L 1178 0 
L 603 0 
L 603 3500 
z
M 603 4863 
L 1178 4863 
L 1178 4134 
L 603 4134 
L 603 4863 
z
" id="DejaVuSans-69" transform="scale(0.015625)"/>
       <path d="M 2834 3397 
L 2834 2853 
Q 2591 2978 2328 3040 
Q 2066 3103 1784 3103 
Q 1356 3103 1142 2972 
Q 928 2841 928 2578 
Q 928 2378 1081 2264 
Q 1234 2150 1697 2047 
L 1894 2003 
Q 2506 1872 2764 1633 
Q 3022 1394 3022 966 
Q 3022 478 2636 193 
Q 2250 -91 1575 -91 
Q 1294 -91 989 -36 
Q 684 19 347 128 
L 347 722 
Q 666 556 975 473 
Q 1284 391 1588 391 
Q 1994 391 2212 530 
Q 2431 669 2431 922 
Q 2431 1156 2273 1281 
Q 2116 1406 1581 1522 
L 1381 1569 
Q 847 1681 609 1914 
Q 372 2147 372 2553 
Q 372 3047 722 3315 
Q 1072 3584 1716 3584 
Q 2034 3584 2315 3537 
Q 2597 3491 2834 3397 
z
" id="DejaVuSans-73" transform="scale(0.015625)"/>
       <path d="M 1959 3097 
Q 1497 3097 1228 2736 
Q 959 2375 959 1747 
Q 959 1119 1226 758 
Q 1494 397 1959 397 
Q 2419 397 2687 759 
Q 2956 1122 2956 1747 
Q 2956 2369 2687 2733 
Q 2419 3097 1959 3097 
z
M 1959 3584 
Q 2709 3584 3137 3096 
Q 3566 2609 3566 1747 
Q 3566 888 3137 398 
Q 2709 -91 1959 -91 
Q 1206 -91 779 398 
Q 353 888 353 1747 
Q 353 2609 779 3096 
Q 1206 3584 1959 3584 
z
" id="DejaVuSans-6f" transform="scale(0.015625)"/>
       <path d="M 2906 2969 
L 2906 4863 
L 3481 4863 
L 3481 0 
L 2906 0 
L 2906 525 
Q 2725 213 2448 61 
Q 2172 -91 1784 -91 
Q 1150 -91 751 415 
Q 353 922 353 1747 
Q 353 2572 751 3078 
Q 1150 3584 1784 3584 
Q 2172 3584 2448 3432 
Q 2725 3281 2906 2969 
z
M 947 1747 
Q 947 1113 1208 752 
Q 1469 391 1925 391 
Q 2381 391 2643 752 
Q 2906 1113 2906 1747 
Q 2906 2381 2643 2742 
Q 2381 3103 1925 3103 
Q 1469 3103 1208 2742 
Q 947 2381 947 1747 
z
" id="DejaVuSans-64" transform="scale(0.015625)"/>
       <path d="M 3597 1894 
L 3597 1613 
L 953 1613 
Q 991 1019 1311 708 
Q 1631 397 2203 397 
Q 2534 397 2845 478 
Q 3156 559 3463 722 
L 3463 178 
Q 3153 47 2828 -22 
Q 2503 -91 2169 -91 
Q 1331 -91 842 396 
Q 353 884 353 1716 
Q 353 2575 817 3079 
Q 1281 3584 2069 3584 
Q 2775 3584 3186 3129 
Q 3597 2675 3597 1894 
z
M 3022 2063 
Q 3016 2534 2758 2815 
Q 2500 3097 2075 3097 
Q 1594 3097 1305 2825 
Q 1016 2553 972 2059 
L 3022 2063 
z
" id="DejaVuSans-65" transform="scale(0.015625)"/>
      </defs>
      <use xlink:href="#DejaVuSans-45"/>
      <use x="63.183594" xlink:href="#DejaVuSans-70"/>
      <use x="126.660156" xlink:href="#DejaVuSans-69"/>
      <use x="154.443359" xlink:href="#DejaVuSans-73"/>
      <use x="206.542969" xlink:href="#DejaVuSans-6f"/>
      <use x="267.724609" xlink:href="#DejaVuSans-64"/>
      <use x="331.201172" xlink:href="#DejaVuSans-65"/>
      <use x="392.724609" xlink:href="#DejaVuSans-73"/>
     </g>
    </g>
   </g>
   <g id="matplotlib.axis_2">
    <g id="ytick_1">
     <g id="line2d_13">
      <path clip-path="url(#p957eb43e8a)" d="M 57.6 301.480212 
L 414.72 301.480212 
" style="fill:none;stroke:#b0b0b0;stroke-linecap:square;stroke-width:0.8;"/>
     </g>
     <g id="line2d_14">
      <defs>
       <path d="M 0 0 
L -3.5 0 
" id="md6b664fd42" style="stroke:#000000;stroke-width:0.8;"/>
      </defs>
      <g>
       <use style="stroke:#000000;stroke-width:0.8;" x="57.6" xlink:href="#md6b664fd42" y="301.480212"/>
      </g>
     </g>
     <g id="text_8">
      <!-- 1200 -->
      <g transform="translate(25.15 305.279431)scale(0.1 -0.1)">
       <use xlink:href="#DejaVuSans-31"/>
       <use x="63.623047" xlink:href="#DejaVuSans-32"/>
       <use x="127.246094" xlink:href="#DejaVuSans-30"/>
       <use x="190.869141" xlink:href="#DejaVuSans-30"/>
      </g>
     </g>
    </g>
    <g id="ytick_2">
     <g id="line2d_15">
      <path clip-path="url(#p957eb43e8a)" d="M 57.6 260.439331 
L 414.72 260.439331 
" style="fill:none;stroke:#b0b0b0;stroke-linecap:square;stroke-width:0.8;"/>
     </g>
     <g id="line2d_16">
      <g>
       <use style="stroke:#000000;stroke-width:0.8;" x="57.6" xlink:href="#md6b664fd42" y="260.439331"/>
      </g>
     </g>
     <g id="text_9">
      <!-- 1300 -->
      <g transform="translate(25.15 264.238549)scale(0.1 -0.1)">
       <defs>
        <path d="M 2597 2516 
Q 3050 2419 3304 2112 
Q 3559 1806 3559 1356 
Q 3559 666 3084 287 
Q 2609 -91 1734 -91 
Q 1441 -91 1130 -33 
Q 819 25 488 141 
L 488 750 
Q 750 597 1062 519 
Q 1375 441 1716 441 
Q 2309 441 2620 675 
Q 2931 909 2931 1356 
Q 2931 1769 2642 2001 
Q 2353 2234 1838 2234 
L 1294 2234 
L 1294 2753 
L 1863 2753 
Q 2328 2753 2575 2939 
Q 2822 3125 2822 3475 
Q 2822 3834 2567 4026 
Q 2313 4219 1838 4219 
Q 1578 4219 1281 4162 
Q 984 4106 628 3988 
L 628 4550 
Q 988 4650 1302 4700 
Q 1616 4750 1894 4750 
Q 2613 4750 3031 4423 
Q 3450 4097 3450 3541 
Q 3450 3153 3228 2886 
Q 3006 2619 2597 2516 
z
" id="DejaVuSans-33" transform="scale(0.015625)"/>
       </defs>
       <use xlink:href="#DejaVuSans-31"/>
       <use x="63.623047" xlink:href="#DejaVuSans-33"/>
       <use x="127.246094" xlink:href="#DejaVuSans-30"/>
       <use x="190.869141" xlink:href="#DejaVuSans-30"/>
      </g>
     </g>
    </g>
    <g id="ytick_3">
     <g id="line2d_17">
      <path clip-path="url(#p957eb43e8a)" d="M 57.6 219.398449 
L 414.72 219.398449 
" style="fill:none;stroke:#b0b0b0;stroke-linecap:square;stroke-width:0.8;"/>
     </g>
     <g id="line2d_18">
      <g>
       <use style="stroke:#000000;stroke-width:0.8;" x="57.6" xlink:href="#md6b664fd42" y="219.398449"/>
      </g>
     </g>
     <g id="text_10">
      <!-- 1400 -->
      <g transform="translate(25.15 223.197668)scale(0.1 -0.1)">
       <use xlink:href="#DejaVuSans-31"/>
       <use x="63.623047" xlink:href="#DejaVuSans-34"/>
       <use x="127.246094" xlink:href="#DejaVuSans-30"/>
       <use x="190.869141" xlink:href="#DejaVuSans-30"/>
      </g>
     </g>
    </g>
    <g id="ytick_4">
     <g id="line2d_19">
      <path clip-path="url(#p957eb43e8a)" d="M 57.6 178.357568 
L 414.72 178.357568 
" style="fill:none;stroke:#b0b0b0;stroke-linecap:square;stroke-width:0.8;"/>
     </g>
     <g id="line2d_20">
      <g>
       <use style="stroke:#000000;stroke-width:0.8;" x="57.6" xlink:href="#md6b664fd42" y="178.357568"/>
      </g>
     </g>
     <g id="text_11">
      <!-- 1500 -->
      <g transform="translate(25.15 182.156786)scale(0.1 -0.1)">
       <defs>
        <path d="M 691 4666 
L 3169 4666 
L 3169 4134 
L 1269 4134 
L 1269 2991 
Q 1406 3038 1543 3061 
Q 1681 3084 1819 3084 
Q 2600 3084 3056 2656 
Q 3513 2228 3513 1497 
Q 3513 744 3044 326 
Q 2575 -91 1722 -91 
Q 1428 -91 1123 -41 
Q 819 9 494 109 
L 494 744 
Q 775 591 1075 516 
Q 1375 441 1709 441 
Q 2250 441 2565 725 
Q 2881 1009 2881 1497 
Q 2881 1984 2565 2268 
Q 2250 2553 1709 2553 
Q 1456 2553 1204 2497 
Q 953 2441 691 2322 
L 691 4666 
z
" id="DejaVuSans-35" transform="scale(0.015625)"/>
       </defs>
       <use xlink:href="#DejaVuSans-31"/>
       <use x="63.623047" xlink:href="#DejaVuSans-35"/>
       <use x="127.246094" xlink:href="#DejaVuSans-30"/>
       <use x="190.869141" xlink:href="#DejaVuSans-30"/>
      </g>
     </g>
    </g>
    <g id="ytick_5">
     <g id="line2d_21">
      <path clip-path="url(#p957eb43e8a)" d="M 57.6 137.316686 
L 414.72 137.316686 
" style="fill:none;stroke:#b0b0b0;stroke-linecap:square;stroke-width:0.8;"/>
     </g>
     <g id="line2d_22">
      <g>
       <use style="stroke:#000000;stroke-width:0.8;" x="57.6" xlink:href="#md6b664fd42" y="137.316686"/>
      </g>
     </g>
     <g id="text_12">
      <!-- 1600 -->
      <g transform="translate(25.15 141.115905)scale(0.1 -0.1)">
       <use xlink:href="#DejaVuSans-31"/>
       <use x="63.623047" xlink:href="#DejaVuSans-36"/>
       <use x="127.246094" xlink:href="#DejaVuSans-30"/>
       <use x="190.869141" xlink:href="#DejaVuSans-30"/>
      </g>
     </g>
    </g>
    <g id="ytick_6">
     <g id="line2d_23">
      <path clip-path="url(#p957eb43e8a)" d="M 57.6 96.275805 
L 414.72 96.275805 
" style="fill:none;stroke:#b0b0b0;stroke-linecap:square;stroke-width:0.8;"/>
     </g>
     <g id="line2d_24">
      <g>
       <use style="stroke:#000000;stroke-width:0.8;" x="57.6" xlink:href="#md6b664fd42" y="96.275805"/>
      </g>
     </g>
     <g id="text_13">
      <!-- 1700 -->
      <g transform="translate(25.15 100.075023)scale(0.1 -0.1)">
       <defs>
        <path d="M 525 4666 
L 3525 4666 
L 3525 4397 
L 1831 0 
L 1172 0 
L 2766 4134 
L 525 4134 
L 525 4666 
z
" id="DejaVuSans-37" transform="scale(0.015625)"/>
       </defs>
       <use xlink:href="#DejaVuSans-31"/>
       <use x="63.623047" xlink:href="#DejaVuSans-37"/>
       <use x="127.246094" xlink:href="#DejaVuSans-30"/>
       <use x="190.869141" xlink:href="#DejaVuSans-30"/>
      </g>
     </g>
    </g>
    <g id="ytick_7">
     <g id="line2d_25">
      <path clip-path="url(#p957eb43e8a)" d="M 57.6 55.234923 
L 414.72 55.234923 
" style="fill:none;stroke:#b0b0b0;stroke-linecap:square;stroke-width:0.8;"/>
     </g>
     <g id="line2d_26">
      <g>
       <use style="stroke:#000000;stroke-width:0.8;" x="57.6" xlink:href="#md6b664fd42" y="55.234923"/>
      </g>
     </g>
     <g id="text_14">
      <!-- 1800 -->
      <g transform="translate(25.15 59.034142)scale(0.1 -0.1)">
       <use xlink:href="#DejaVuSans-31"/>
       <use x="63.623047" xlink:href="#DejaVuSans-38"/>
       <use x="127.246094" xlink:href="#DejaVuSans-30"/>
       <use x="190.869141" xlink:href="#DejaVuSans-30"/>
      </g>
     </g>
    </g>
    <g id="text_15">
     <!-- Cumulative Reward -->
     <g transform="translate(19.070312 223.275656)rotate(-90)scale(0.1 -0.1)">
      <defs>
       <path d="M 4122 4306 
L 4122 3641 
Q 3803 3938 3442 4084 
Q 3081 4231 2675 4231 
Q 1875 4231 1450 3742 
Q 1025 3253 1025 2328 
Q 1025 1406 1450 917 
Q 1875 428 2675 428 
Q 3081 428 3442 575 
Q 3803 722 4122 1019 
L 4122 359 
Q 3791 134 3420 21 
Q 3050 -91 2638 -91 
Q 1578 -91 968 557 
Q 359 1206 359 2328 
Q 359 3453 968 4101 
Q 1578 4750 2638 4750 
Q 3056 4750 3426 4639 
Q 3797 4528 4122 4306 
z
" id="DejaVuSans-43" transform="scale(0.015625)"/>
       <path d="M 544 1381 
L 544 3500 
L 1119 3500 
L 1119 1403 
Q 1119 906 1312 657 
Q 1506 409 1894 409 
Q 2359 409 2629 706 
Q 2900 1003 2900 1516 
L 2900 3500 
L 3475 3500 
L 3475 0 
L 2900 0 
L 2900 538 
Q 2691 219 2414 64 
Q 2138 -91 1772 -91 
Q 1169 -91 856 284 
Q 544 659 544 1381 
z
M 1991 3584 
L 1991 3584 
z
" id="DejaVuSans-75" transform="scale(0.015625)"/>
       <path d="M 3328 2828 
Q 3544 3216 3844 3400 
Q 4144 3584 4550 3584 
Q 5097 3584 5394 3201 
Q 5691 2819 5691 2113 
L 5691 0 
L 5113 0 
L 5113 2094 
Q 5113 2597 4934 2840 
Q 4756 3084 4391 3084 
Q 3944 3084 3684 2787 
Q 3425 2491 3425 1978 
L 3425 0 
L 2847 0 
L 2847 2094 
Q 2847 2600 2669 2842 
Q 2491 3084 2119 3084 
Q 1678 3084 1418 2786 
Q 1159 2488 1159 1978 
L 1159 0 
L 581 0 
L 581 3500 
L 1159 3500 
L 1159 2956 
Q 1356 3278 1631 3431 
Q 1906 3584 2284 3584 
Q 2666 3584 2933 3390 
Q 3200 3197 3328 2828 
z
" id="DejaVuSans-6d" transform="scale(0.015625)"/>
       <path d="M 603 4863 
L 1178 4863 
L 1178 0 
L 603 0 
L 603 4863 
z
" id="DejaVuSans-6c" transform="scale(0.015625)"/>
       <path d="M 2194 1759 
Q 1497 1759 1228 1600 
Q 959 1441 959 1056 
Q 959 750 1161 570 
Q 1363 391 1709 391 
Q 2188 391 2477 730 
Q 2766 1069 2766 1631 
L 2766 1759 
L 2194 1759 
z
M 3341 1997 
L 3341 0 
L 2766 0 
L 2766 531 
Q 2569 213 2275 61 
Q 1981 -91 1556 -91 
Q 1019 -91 701 211 
Q 384 513 384 1019 
Q 384 1609 779 1909 
Q 1175 2209 1959 2209 
L 2766 2209 
L 2766 2266 
Q 2766 2663 2505 2880 
Q 2244 3097 1772 3097 
Q 1472 3097 1187 3025 
Q 903 2953 641 2809 
L 641 3341 
Q 956 3463 1253 3523 
Q 1550 3584 1831 3584 
Q 2591 3584 2966 3190 
Q 3341 2797 3341 1997 
z
" id="DejaVuSans-61" transform="scale(0.015625)"/>
       <path d="M 1172 4494 
L 1172 3500 
L 2356 3500 
L 2356 3053 
L 1172 3053 
L 1172 1153 
Q 1172 725 1289 603 
Q 1406 481 1766 481 
L 2356 481 
L 2356 0 
L 1766 0 
Q 1100 0 847 248 
Q 594 497 594 1153 
L 594 3053 
L 172 3053 
L 172 3500 
L 594 3500 
L 594 4494 
L 1172 4494 
z
" id="DejaVuSans-74" transform="scale(0.015625)"/>
       <path d="M 191 3500 
L 800 3500 
L 1894 563 
L 2988 3500 
L 3597 3500 
L 2284 0 
L 1503 0 
L 191 3500 
z
" id="DejaVuSans-76" transform="scale(0.015625)"/>
       <path id="DejaVuSans-20" transform="scale(0.015625)"/>
       <path d="M 2841 2188 
Q 3044 2119 3236 1894 
Q 3428 1669 3622 1275 
L 4263 0 
L 3584 0 
L 2988 1197 
Q 2756 1666 2539 1819 
Q 2322 1972 1947 1972 
L 1259 1972 
L 1259 0 
L 628 0 
L 628 4666 
L 2053 4666 
Q 2853 4666 3247 4331 
Q 3641 3997 3641 3322 
Q 3641 2881 3436 2590 
Q 3231 2300 2841 2188 
z
M 1259 4147 
L 1259 2491 
L 2053 2491 
Q 2509 2491 2742 2702 
Q 2975 2913 2975 3322 
Q 2975 3731 2742 3939 
Q 2509 4147 2053 4147 
L 1259 4147 
z
" id="DejaVuSans-52" transform="scale(0.015625)"/>
       <path d="M 269 3500 
L 844 3500 
L 1563 769 
L 2278 3500 
L 2956 3500 
L 3675 769 
L 4391 3500 
L 4966 3500 
L 4050 0 
L 3372 0 
L 2619 2869 
L 1863 0 
L 1184 0 
L 269 3500 
z
" id="DejaVuSans-77" transform="scale(0.015625)"/>
       <path d="M 2631 2963 
Q 2534 3019 2420 3045 
Q 2306 3072 2169 3072 
Q 1681 3072 1420 2755 
Q 1159 2438 1159 1844 
L 1159 0 
L 581 0 
L 581 3500 
L 1159 3500 
L 1159 2956 
Q 1341 3275 1631 3429 
Q 1922 3584 2338 3584 
Q 2397 3584 2469 3576 
Q 2541 3569 2628 3553 
L 2631 2963 
z
" id="DejaVuSans-72" transform="scale(0.015625)"/>
      </defs>
      <use xlink:href="#DejaVuSans-43"/>
      <use x="69.824219" xlink:href="#DejaVuSans-75"/>
      <use x="133.203125" xlink:href="#DejaVuSans-6d"/>
      <use x="230.615234" xlink:href="#DejaVuSans-75"/>
      <use x="293.994141" xlink:href="#DejaVuSans-6c"/>
      <use x="321.777344" xlink:href="#DejaVuSans-61"/>
      <use x="383.056641" xlink:href="#DejaVuSans-74"/>
      <use x="422.265625" xlink:href="#DejaVuSans-69"/>
      <use x="450.048828" xlink:href="#DejaVuSans-76"/>
      <use x="509.228516" xlink:href="#DejaVuSans-65"/>
      <use x="570.751953" xlink:href="#DejaVuSans-20"/>
      <use x="602.539062" xlink:href="#DejaVuSans-52"/>
      <use x="667.521484" xlink:href="#DejaVuSans-65"/>
      <use x="729.044922" xlink:href="#DejaVuSans-77"/>
      <use x="810.832031" xlink:href="#DejaVuSans-61"/>
      <use x="872.111328" xlink:href="#DejaVuSans-72"/>
      <use x="911.474609" xlink:href="#DejaVuSans-64"/>
     </g>
    </g>
   </g>
   <g id="line2d_27">
    <path clip-path="url(#p957eb43e8a)" d="M 57.6 183.613785 
L 57.95712 164.722274 
L 58.31424 160.984273 
L 58.67136 193.286726 
L 59.02848 183.613785 
L 59.3856 164.722274 
L 59.74272 160.984273 
L 60.09984 193.286726 
L 60.45696 183.613785 
L 60.81408 164.722274 
L 61.1712 160.984273 
L 61.52832 193.286726 
L 61.88544 183.613785 
L 62.24256 164.722274 
L 62.59968 160.984273 
L 62.9568 193.286726 
L 63.31392 183.613785 
L 63.67104 164.722274 
L 64.02816 160.984273 
L 64.38528 193.286726 
L 64.7424 183.613785 
L 65.09952 164.722274 
L 65.45664 160.984273 
L 65.81376 193.286726 
L 66.17088 183.613785 
L 66.528 164.722274 
L 66.88512 160.984273 
L 67.24224 193.286726 
L 67.59936 183.613785 
L 67.95648 164.722274 
L 68.3136 160.984273 
L 68.67072 193.286726 
L 69.02784 183.613785 
L 69.38496 164.722274 
L 69.74208 160.984273 
L 70.0992 193.286726 
L 70.45632 183.613785 
L 70.81344 164.722274 
L 71.17056 160.984273 
L 71.52768 193.286726 
L 71.8848 183.613785 
L 72.24192 164.722274 
L 72.59904 160.984273 
L 72.95616 193.286726 
L 73.31328 183.613785 
L 73.6704 164.722274 
L 74.02752 160.984273 
L 74.38464 193.286726 
L 74.74176 183.613785 
L 75.09888 164.722274 
L 75.456 160.984273 
L 75.81312 193.286726 
L 76.17024 183.613785 
L 76.52736 164.722274 
L 76.88448 160.984273 
L 77.2416 193.286726 
L 77.59872 183.613785 
L 77.95584 164.722274 
L 78.31296 160.984273 
L 78.67008 193.286726 
L 79.0272 183.613785 
L 79.38432 164.722274 
L 79.74144 160.984273 
L 80.09856 193.286726 
L 80.45568 183.613785 
L 80.8128 164.722274 
L 81.16992 160.984273 
L 81.52704 193.286726 
L 81.88416 183.613785 
L 82.24128 164.722274 
L 82.5984 160.984273 
L 82.95552 193.286726 
L 83.31264 183.613785 
L 83.66976 164.722274 
L 84.02688 160.984273 
L 84.384 193.286726 
L 84.74112 183.613785 
L 85.09824 164.722274 
L 85.45536 160.984273 
L 85.81248 193.286726 
L 86.1696 183.613785 
L 86.52672 164.722274 
L 86.88384 160.984273 
L 87.24096 193.286726 
L 87.59808 183.613785 
L 87.9552 164.722274 
L 88.31232 160.984273 
L 88.66944 193.286726 
L 89.02656 183.613785 
L 89.38368 164.722274 
L 89.7408 160.984273 
L 90.09792 193.286726 
L 90.45504 183.613785 
L 90.81216 164.722274 
L 91.16928 160.984273 
L 91.5264 193.286726 
L 91.88352 183.613785 
L 92.24064 164.722274 
L 92.59776 160.984273 
L 92.95488 193.286726 
L 93.312 192.611642 
L 93.66912 185.31504 
L 94.02624 171.860836 
L 94.38336 191.221707 
L 94.74048 166.222029 
L 95.0976 196.629856 
L 95.45472 180.623085 
L 95.81184 194.020492 
L 96.16896 148.879665 
L 96.52608 187.147175 
L 96.8832 190.103346 
L 97.24032 136.520813 
L 97.59744 180.025758 
L 97.95456 168.151153 
L 98.31168 149.78094 
L 98.6688 143.748401 
L 99.02592 205.238638 
L 99.38304 151.352202 
L 99.74016 156.629992 
L 100.4544 177.785456 
L 100.81152 203.012892 
L 101.16864 127.05866 
L 101.88288 196.975448 
L 102.24 190.826464 
L 102.59712 190.065668 
L 102.95424 206.980703 
L 103.31136 147.629679 
L 103.66848 156.086344 
L 104.0256 197.372144 
L 104.38272 132.983003 
L 104.73984 146.0556 
L 105.09696 177.094159 
L 105.45408 169.317474 
L 105.8112 208.952584 
L 106.52544 161.992731 
L 107.23968 208.149041 
L 107.5968 172.103722 
L 108.31104 143.674022 
L 108.66816 189.016781 
L 109.02528 172.094462 
L 109.3824 205.505258 
L 109.73952 173.36893 
L 110.09664 235.61189 
L 110.45376 145.477126 
L 111.168 186.60919 
L 111.52512 139.066428 
L 111.88224 176.637047 
L 112.23936 193.784453 
L 112.59648 183.289593 
L 112.9536 189.107423 
L 113.31072 166.083405 
L 113.66784 192.427687 
L 114.02496 183.850179 
L 114.38208 148.647728 
L 114.7392 221.021236 
L 115.09632 170.59986 
L 115.45344 176.362329 
L 115.81056 151.24314 
L 116.16768 183.948796 
L 116.5248 175.135324 
L 116.88192 192.184208 
L 117.23904 174.50669 
L 117.59616 285.408 
L 117.95328 187.541576 
L 118.66752 161.619041 
L 119.38176 238.451699 
L 119.73888 149.50049 
L 120.096 155.161138 
L 120.45312 156.07157 
L 120.81024 135.217214 
L 121.16736 137.043088 
L 121.52448 206.302117 
L 121.8816 251.079819 
L 122.23872 208.673436 
L 122.59584 192.263228 
L 122.95296 162.577922 
L 123.31008 225.612052 
L 123.6672 147.546975 
L 124.02432 174.032469 
L 124.38144 170.079463 
L 125.09568 225.76604 
L 125.4528 182.533905 
L 125.80992 205.144741 
L 126.16704 175.83198 
L 126.52416 168.7805 
L 126.88128 198.907589 
L 127.2384 195.900507 
L 127.59552 261.66509 
L 127.95264 262.778119 
L 128.30976 178.415465 
L 128.66688 240.43904 
L 129.024 185.46109 
L 129.73824 220.987135 
L 130.09536 161.848561 
L 130.45248 184.690864 
L 130.8096 239.595546 
L 131.16672 173.617507 
L 131.52384 194.720909 
L 131.88096 260.884637 
L 132.23808 196.135791 
L 132.5952 187.333742 
L 132.95232 223.101502 
L 133.30944 185.849589 
L 133.66656 183.069512 
L 134.02368 224.156306 
L 134.3808 162.609326 
L 134.73792 142.534328 
L 135.09504 153.867949 
L 135.45216 248.468902 
L 135.80928 153.725004 
L 136.1664 185.595694 
L 136.52352 159.616512 
L 136.88064 198.967713 
L 137.23776 220.024018 
L 137.59488 180.578564 
L 137.952 177.602968 
L 138.30912 147.238916 
L 138.66624 209.988979 
L 139.02336 194.713179 
L 139.38048 219.896013 
L 139.7376 215.009164 
L 140.09472 150.460251 
L 140.45184 179.00588 
L 140.80896 137.9315 
L 141.16608 171.646448 
L 141.5232 168.443343 
L 141.88032 180.088422 
L 142.23744 158.155167 
L 142.59456 215.467619 
L 142.95168 170.561801 
L 143.3088 182.139682 
L 144.02304 156.769875 
L 144.38016 200.891402 
L 144.73728 172.97124 
L 145.0944 156.148703 
L 145.45152 159.284434 
L 145.80864 225.819673 
L 146.16576 214.388582 
L 146.52288 140.101005 
L 147.23712 205.101208 
L 147.59424 122.572924 
L 147.95136 137.970533 
L 148.30848 201.488016 
L 148.6656 170.03964 
L 149.02272 201.757183 
L 149.37984 214.257902 
L 149.73696 213.676872 
L 150.09408 179.115123 
L 150.80832 197.438217 
L 151.16544 177.857225 
L 151.52256 182.097222 
L 151.87968 157.850232 
L 152.2368 214.830104 
L 152.59392 150.822575 
L 152.95104 181.871667 
L 153.30816 158.704385 
L 153.66528 211.131136 
L 154.0224 130.946259 
L 154.37952 221.601397 
L 154.73664 161.640823 
L 155.45088 204.661669 
L 155.808 185.839803 
L 156.16512 153.628653 
L 156.52224 224.687583 
L 156.87936 222.631112 
L 157.23648 173.171447 
L 157.5936 231.64921 
L 157.95072 209.350186 
L 158.30784 166.332542 
L 158.66496 177.573776 
L 159.02208 183.66845 
L 159.73632 220.693412 
L 160.09344 148.809112 
L 160.45056 200.842729 
L 160.80768 161.170322 
L 161.1648 208.20556 
L 161.52192 212.058638 
L 161.87904 202.044961 
L 162.23616 244.124923 
L 162.59328 228.319701 
L 162.9504 228.072123 
L 163.30752 180.448651 
L 163.66464 165.606048 
L 164.02176 191.312925 
L 164.37888 191.234651 
L 164.736 190.567382 
L 165.09312 208.131922 
L 165.45024 175.317464 
L 165.80736 173.795407 
L 166.16448 148.137954 
L 166.5216 148.240654 
L 166.87872 223.517494 
L 167.23584 151.654699 
L 167.59296 154.498575 
L 167.95008 175.00309 
L 168.3072 181.941939 
L 168.66432 211.210809 
L 169.02144 184.550293 
L 169.37856 212.04302 
L 169.73568 182.161435 
L 170.0928 199.246716 
L 170.44992 149.702907 
L 170.80704 211.164363 
L 171.16416 202.296269 
L 171.52128 132.259856 
L 171.8784 225.896947 
L 172.23552 205.280659 
L 172.59264 151.561003 
L 172.94976 181.310303 
L 173.30688 200.87317 
L 173.664 171.532351 
L 174.02112 196.029019 
L 174.37824 123.716311 
L 174.73536 176.944967 
L 175.09248 180.599565 
L 175.4496 180.903046 
L 175.80672 217.013433 
L 176.16384 176.885284 
L 176.52096 170.752186 
L 176.87808 185.558287 
L 177.2352 190.012611 
L 177.59232 200.20869 
L 177.94944 180.314768 
L 178.66368 130.82661 
L 179.37792 174.632171 
L 179.73504 145.859355 
L 180.09216 192.506223 
L 180.44928 147.694391 
L 180.8064 144.746768 
L 181.16352 176.87794 
L 181.52064 152.96843 
L 181.87776 164.152669 
L 182.23488 191.248101 
L 182.592 173.662173 
L 182.94912 192.623376 
L 183.30624 189.327 
L 184.02048 180.813708 
L 184.3776 184.141727 
L 184.73472 175.301917 
L 185.09184 204.430049 
L 185.44896 173.913754 
L 185.80608 180.080672 
L 186.1632 203.250233 
L 186.52032 197.476192 
L 186.87744 200.251219 
L 187.23456 186.038027 
L 187.59168 154.353907 
L 187.9488 199.03089 
L 188.66304 169.339494 
L 189.02016 137.858345 
L 189.37728 224.719112 
L 189.7344 159.098481 
L 190.09152 195.713552 
L 190.44864 153.375676 
L 190.80576 136.605183 
L 191.16288 144.342208 
L 191.52 208.736057 
L 191.87712 176.833948 
L 192.23424 162.582123 
L 192.59136 174.876464 
L 192.94848 146.14359 
L 193.3056 180.338352 
L 193.66272 139.504577 
L 194.01984 167.523651 
L 194.37696 137.037942 
L 195.44832 213.53879 
L 196.16256 177.186779 
L 196.51968 185.364657 
L 196.8768 139.329677 
L 197.23392 150.58578 
L 197.59104 148.622928 
L 197.94816 155.004511 
L 198.30528 236.182198 
L 198.6624 221.186547 
L 199.01952 169.169697 
L 199.37664 181.179497 
L 199.73376 152.053032 
L 200.09088 191.823824 
L 200.448 152.373533 
L 200.80512 164.50313 
L 201.16224 140.873281 
L 201.51936 147.517136 
L 201.87648 198.651278 
L 202.2336 154.405491 
L 202.59072 172.098123 
L 203.30496 144.71993 
L 203.66208 167.069325 
L 204.0192 196.385146 
L 204.37632 210.983834 
L 205.09056 176.830017 
L 205.44768 217.358505 
L 206.16192 137.008889 
L 206.51904 132.511828 
L 206.87616 194.799376 
L 207.23328 193.456072 
L 207.5904 133.265044 
L 207.94752 119.706988 
L 208.30464 192.170076 
L 208.66176 124.693762 
L 209.01888 103.650231 
L 209.376 122.393054 
L 209.73312 149.882804 
L 210.09024 141.138465 
L 210.44736 126.192041 
L 210.80448 175.147215 
L 211.1616 186.142458 
L 211.51872 185.285932 
L 211.87584 180.411176 
L 212.23296 160.199513 
L 212.59008 172.856457 
L 212.9472 127.505173 
L 213.30432 132.489178 
L 213.66144 188.955365 
L 214.01856 125.853333 
L 214.37568 145.396219 
L 214.7328 146.582763 
L 215.44704 106.445459 
L 215.80416 169.223775 
L 216.16128 116.254807 
L 216.87552 173.3556 
L 217.23264 139.317292 
L 217.58976 121.309465 
L 217.94688 114.022564 
L 218.304 203.76166 
L 218.66112 125.260367 
L 219.01824 110.670462 
L 219.37536 145.564456 
L 219.73248 146.04992 
L 220.0896 147.958128 
L 220.44672 135.43398 
L 220.80384 132.602325 
L 221.16096 102.468585 
L 221.51808 113.493702 
L 221.8752 146.402541 
L 222.23232 166.273337 
L 222.58944 139.105363 
L 222.94656 190.252161 
L 223.30368 181.921456 
L 223.6608 116.06667 
L 224.01792 165.455517 
L 224.37504 144.41582 
L 224.73216 161.085672 
L 225.08928 188.401198 
L 225.4464 148.698798 
L 226.16064 171.343992 
L 226.51776 159.992877 
L 226.87488 172.605245 
L 227.232 134.986692 
L 227.58912 186.194149 
L 227.94624 178.540802 
L 228.30336 185.691352 
L 228.66048 138.921787 
L 229.0176 171.826049 
L 229.37472 165.333342 
L 229.73184 162.41484 
L 230.08896 172.137025 
L 230.44608 169.515823 
L 230.8032 143.42112 
L 231.16032 139.965697 
L 231.51744 141.561837 
L 231.87456 203.457501 
L 232.23168 202.177173 
L 232.5888 188.35488 
L 232.94592 186.88973 
L 233.30304 151.891565 
L 233.66016 176.110029 
L 234.01728 113.960098 
L 234.3744 163.0589 
L 234.73152 152.840079 
L 235.08864 128.607445 
L 235.44576 128.915069 
L 235.80288 122.894324 
L 236.16 173.266624 
L 236.51712 170.021994 
L 236.87424 151.255736 
L 237.23136 118.421467 
L 237.58848 108.964369 
L 237.9456 126.659729 
L 238.30272 107.46066 
L 238.65984 163.041274 
L 239.01696 138.775615 
L 239.37408 139.656235 
L 239.7312 149.2394 
L 240.08832 144.412818 
L 240.44544 137.111117 
L 241.15968 171.686964 
L 241.5168 166.97429 
L 241.87392 104.035711 
L 242.23104 153.309132 
L 242.58816 172.886157 
L 242.94528 148.823836 
L 243.3024 157.853176 
L 243.65952 162.170563 
L 244.01664 152.987627 
L 244.37376 158.922052 
L 245.088 138.568397 
L 245.44512 143.845527 
L 245.80224 197.905031 
L 246.15936 153.976794 
L 246.51648 172.215172 
L 246.8736 167.465212 
L 247.23072 125.421428 
L 247.58784 120.484899 
L 247.94496 128.302559 
L 248.30208 133.11646 
L 248.6592 166.105222 
L 249.01632 164.180736 
L 249.37344 183.397639 
L 249.73056 130.977569 
L 250.4448 183.517241 
L 250.80192 125.109938 
L 251.15904 213.601695 
L 251.51616 153.809694 
L 251.87328 212.221818 
L 252.2304 133.986994 
L 252.58752 145.135868 
L 252.94464 190.670607 
L 253.30176 140.822897 
L 254.016 148.303004 
L 254.37312 121.026444 
L 254.73024 149.959744 
L 255.08736 114.124372 
L 255.44448 99.353827 
L 255.8016 148.013339 
L 256.15872 113.397284 
L 256.51584 148.895792 
L 256.87296 116.694314 
L 257.23008 174.21348 
L 257.5872 84.884511 
L 257.94432 109.319225 
L 258.30144 98.281586 
L 258.65856 102.666439 
L 259.01568 152.486058 
L 259.3728 111.119312 
L 259.72992 175.400405 
L 260.08704 99.810703 
L 260.44416 181.784918 
L 260.80128 110.926493 
L 261.1584 163.381258 
L 261.51552 153.709237 
L 261.87264 140.414122 
L 262.22976 154.794793 
L 262.58688 133.08091 
L 262.944 98.569796 
L 263.30112 192.111344 
L 263.65824 153.962439 
L 264.01536 150.78101 
L 264.37248 132.373428 
L 264.7296 129.155381 
L 265.08672 180.225113 
L 265.80096 138.918264 
L 266.15808 138.467809 
L 266.5152 142.298272 
L 266.87232 147.369907 
L 267.22944 156.346261 
L 267.58656 143.278526 
L 267.94368 152.145619 
L 268.3008 187.460906 
L 268.65792 153.591349 
L 269.01504 135.021805 
L 269.37216 221.800473 
L 269.72928 154.895642 
L 270.0864 153.006668 
L 270.44352 141.347645 
L 270.80064 185.074991 
L 271.15776 139.690866 
L 271.51488 170.471551 
L 271.872 134.595572 
L 272.22912 141.112713 
L 272.58624 143.500832 
L 272.94336 218.590788 
L 273.30048 125.582827 
L 273.6576 142.355032 
L 274.01472 144.693799 
L 274.37184 144.670203 
L 274.72896 189.319698 
L 275.08608 192.025945 
L 275.4432 151.12618 
L 275.80032 168.94531 
L 276.15744 131.032494 
L 276.51456 120.478531 
L 276.87168 129.535182 
L 277.2288 129.141136 
L 277.58592 165.304502 
L 277.94304 171.319189 
L 278.30016 118.464572 
L 278.65728 150.990631 
L 279.0144 160.144123 
L 279.37152 179.089103 
L 279.72864 160.790652 
L 280.08576 157.239449 
L 280.44288 115.470603 
L 280.8 170.293762 
L 281.15712 146.442248 
L 281.87136 183.603875 
L 282.22848 151.403364 
L 282.5856 151.773394 
L 282.94272 123.777115 
L 283.29984 127.555892 
L 283.65696 209.692847 
L 284.3712 148.629561 
L 284.72832 153.515349 
L 285.08544 131.259461 
L 285.44256 179.878872 
L 285.79968 197.154218 
L 286.1568 132.816957 
L 286.51392 195.975733 
L 286.87104 187.263879 
L 287.22816 117.171364 
L 287.58528 165.310876 
L 287.9424 176.066351 
L 288.29952 132.303781 
L 288.65664 132.555755 
L 289.01376 151.321581 
L 289.37088 158.564325 
L 289.728 143.49274 
L 290.08512 123.303603 
L 290.44224 160.991369 
L 290.79936 128.145808 
L 291.15648 131.856128 
L 291.87072 195.795725 
L 292.22784 132.854494 
L 292.94208 172.565852 
L 293.2992 149.952906 
L 293.65632 217.811894 
L 294.01344 110.41853 
L 294.37056 138.599024 
L 295.0848 126.065142 
L 295.44192 133.507688 
L 295.79904 151.005003 
L 296.15616 136.711482 
L 296.51328 137.620733 
L 296.8704 174.855319 
L 297.58464 143.965186 
L 297.94176 160.039906 
L 298.29888 123.644414 
L 298.656 116.369322 
L 299.72736 179.758724 
L 300.08448 137.042158 
L 300.4416 133.318426 
L 300.79872 119.321749 
L 301.15584 113.915141 
L 301.51296 148.636289 
L 301.87008 146.883826 
L 302.2272 87.028737 
L 302.94144 140.049651 
L 303.29856 140.670167 
L 303.65568 126.52666 
L 304.0128 139.296165 
L 304.36992 120.447879 
L 304.72704 130.390435 
L 305.08416 131.099223 
L 305.7984 86.862216 
L 306.15552 83.493477 
L 306.51264 111.301928 
L 306.86976 106.457257 
L 307.584 82.058991 
L 307.94112 79.345936 
L 308.29824 95.100666 
L 308.65536 137.494021 
L 309.01248 135.319593 
L 309.72672 81.928928 
L 310.08384 77.700468 
L 310.44096 78.243834 
L 310.79808 85.795327 
L 311.1552 122.917245 
L 311.51232 103.325637 
L 311.86944 98.697798 
L 312.22656 99.748283 
L 312.58368 133.037721 
L 312.9408 130.587624 
L 313.29792 114.998868 
L 313.65504 86.736294 
L 314.01216 138.911826 
L 314.36928 94.171946 
L 314.7264 117.282399 
L 315.08352 107.219473 
L 315.44064 131.926468 
L 315.79776 96.986809 
L 316.15488 109.977712 
L 316.512 98.835483 
L 316.86912 159.750172 
L 317.22624 119.282572 
L 317.58336 122.197103 
L 317.94048 171.181886 
L 318.2976 104.73753 
L 318.65472 106.488045 
L 319.01184 101.620017 
L 319.36896 109.400308 
L 319.72608 111.403572 
L 320.0832 154.333023 
L 320.44032 106.861349 
L 320.79744 128.402506 
L 321.15456 173.41795 
L 321.51168 120.299613 
L 321.8688 127.414837 
L 322.22592 146.666588 
L 322.58304 134.327948 
L 322.94016 110.70214 
L 323.29728 169.198201 
L 323.6544 122.38311 
L 324.01152 108.397213 
L 324.36864 174.129637 
L 324.72576 185.181053 
L 325.44 138.891272 
L 325.79712 124.750729 
L 326.15424 120.252331 
L 326.51136 179.944475 
L 326.86848 180.438998 
L 327.2256 144.169842 
L 327.58272 183.899818 
L 327.93984 144.813319 
L 328.29696 142.111905 
L 329.0112 102.154691 
L 329.36832 109.044923 
L 329.72544 110.423055 
L 330.08256 118.533384 
L 330.43968 122.110259 
L 330.7968 157.513949 
L 331.15392 138.863723 
L 331.51104 100.2326 
L 331.86816 88.787268 
L 332.22528 98.311998 
L 332.5824 135.882029 
L 332.93952 96.851543 
L 333.29664 116.762372 
L 333.65376 116.634798 
L 334.01088 121.411084 
L 334.368 133.844248 
L 334.72512 135.361631 
L 335.08224 153.900248 
L 335.43936 117.760098 
L 335.79648 130.496689 
L 336.1536 109.672672 
L 336.51072 117.923433 
L 336.86784 123.304408 
L 337.22496 131.887988 
L 337.58208 119.811735 
L 337.9392 99.544206 
L 338.29632 119.325391 
L 338.65344 128.09682 
L 339.01056 145.985636 
L 339.36768 106.610581 
L 339.7248 166.659843 
L 340.08192 127.22804 
L 340.43904 107.305913 
L 340.79616 110.258979 
L 341.15328 139.258054 
L 341.5104 111.871564 
L 341.86752 121.789011 
L 342.22464 109.981204 
L 342.58176 127.504081 
L 342.93888 129.410607 
L 343.65312 147.605215 
L 344.01024 136.135101 
L 344.36736 105.553927 
L 344.72448 104.403205 
L 345.0816 124.664067 
L 345.43872 115.932785 
L 345.79584 126.813965 
L 346.15296 153.46202 
L 346.51008 119.33257 
L 346.8672 111.362697 
L 347.22432 142.676476 
L 347.58144 151.655706 
L 347.93856 149.812255 
L 348.29568 116.522629 
L 348.6528 158.674128 
L 349.00992 113.165477 
L 349.36704 157.557474 
L 349.72416 82.105728 
L 350.08128 158.529571 
L 350.4384 155.878719 
L 350.79552 114.410659 
L 351.15264 129.180657 
L 351.50976 154.37259 
L 351.86688 148.07727 
L 352.58112 105.735966 
L 352.93824 118.794693 
L 353.29536 111.931318 
L 353.65248 125.695108 
L 354.0096 124.972293 
L 354.36672 138.752805 
L 354.72384 110.832597 
L 355.08096 134.60774 
L 355.43808 98.634539 
L 355.7952 114.975822 
L 356.15232 87.868223 
L 356.50944 93.89984 
L 356.86656 131.432576 
L 357.22368 107.530827 
L 357.5808 117.061989 
L 357.93792 144.281731 
L 358.29504 124.224418 
L 358.65216 96.154885 
L 359.00928 93.446626 
L 359.3664 129.773945 
L 359.72352 98.27756 
L 360.08064 127.847233 
L 360.43776 107.435064 
L 360.79488 109.653335 
L 361.152 104.858412 
L 361.86624 131.846327 
L 362.22336 108.407067 
L 362.58048 95.503512 
L 362.9376 144.386568 
L 363.29472 90.129623 
L 363.65184 108.163109 
L 364.00896 106.282051 
L 364.36608 107.049402 
L 364.7232 111.940602 
L 365.08032 93.764389 
L 365.43744 86.188438 
L 365.79456 102.535793 
L 366.15168 100.082733 
L 366.5088 111.064038 
L 366.86592 116.131836 
L 367.22304 117.521781 
L 367.58016 110.919118 
L 367.93728 92.019035 
L 368.2944 83.605436 
L 368.65152 93.180373 
L 369.00864 89.445992 
L 369.36576 89.108036 
L 369.72288 95.720946 
L 370.08 63.648 
L 370.43712 104.870537 
L 370.79424 113.745726 
L 371.15136 78.14388 
L 371.50848 95.088415 
L 371.8656 75.774784 
L 372.22272 76.712462 
L 372.57984 80.059488 
L 372.93696 80.303804 
L 373.29408 99.859924 
L 373.6512 89.794886 
L 374.00832 83.143588 
L 374.36544 80.763279 
L 374.72256 76.237919 
L 375.07968 88.161473 
L 375.4368 83.163739 
L 375.79392 100.702738 
L 376.15104 85.853881 
L 376.50816 75.806125 
L 376.86528 123.891359 
L 377.2224 86.598071 
L 377.57952 92.77483 
L 377.93664 90.10436 
L 378.29376 123.634318 
L 378.65088 78.048006 
L 379.008 77.887449 
L 379.36512 81.480166 
L 379.72224 88.538143 
L 380.07936 73.926343 
L 380.7936 101.01548 
L 381.15072 96.71503 
L 381.50784 85.153835 
L 381.86496 80.88996 
L 382.22208 89.425739 
L 382.5792 88.858509 
L 382.93632 87.981241 
L 383.29344 134.524487 
L 383.65056 75.673841 
L 384.00768 89.581057 
L 384.3648 95.784264 
L 384.72192 97.679612 
L 385.07904 89.742762 
L 385.43616 78.099316 
L 385.79328 80.4465 
L 386.1504 68.378783 
L 386.86464 87.601025 
L 387.22176 81.424172 
L 387.57888 68.387953 
L 387.936 99.283049 
L 388.29312 71.510632 
L 388.65024 71.813254 
L 389.00736 94.072131 
L 389.36448 76.723503 
L 389.7216 69.410485 
L 390.07872 83.61284 
L 390.43584 66.898261 
L 391.15008 125.518435 
L 391.5072 105.829723 
L 391.86432 96.806183 
L 392.22144 106.813842 
L 392.57856 94.25323 
L 392.93568 112.806305 
L 393.2928 117.177326 
L 393.64992 81.61787 
L 394.00704 131.278394 
L 394.36416 87.318439 
L 394.72128 82.755822 
L 395.0784 104.832757 
L 395.43552 84.046733 
L 395.79264 116.695749 
L 396.14976 128.640591 
L 396.50688 114.463236 
L 396.864 83.437774 
L 397.22112 87.934194 
L 397.57824 123.112066 
L 397.93536 124.122233 
L 398.29248 126.742295 
L 398.6496 138.126416 
L 399.00672 93.035037 
L 399.36384 110.558385 
L 399.72096 81.871053 
L 400.07808 86.61991 
L 400.4352 130.644217 
L 400.79232 102.883985 
L 401.14944 89.028558 
L 401.50656 82.150325 
L 401.86368 103.729944 
L 402.2208 95.144073 
L 402.57792 141.394414 
L 402.93504 113.325991 
L 403.29216 112.328119 
L 403.64928 106.00899 
L 404.0064 108.704149 
L 404.36352 100.832661 
L 404.72064 98.561646 
L 405.07776 133.91657 
L 405.43488 92.057566 
L 405.792 98.11632 
L 406.14912 115.214267 
L 406.50624 118.632662 
L 406.86336 97.218157 
L 407.22048 108.283056 
L 407.5776 128.982738 
L 407.93472 87.443572 
L 408.29184 138.250137 
L 408.64896 141.255293 
L 409.00608 107.53129 
L 409.3632 101.706289 
L 409.72032 118.626512 
L 410.07744 160.317791 
L 410.43456 112.559378 
L 410.79168 89.722893 
L 411.1488 111.357014 
L 411.86304 100.248954 
L 412.22016 114.809912 
L 412.57728 92.620222 
L 412.9344 158.137189 
L 413.29152 80.048075 
L 413.64864 104.322298 
L 414.00576 104.910462 
L 414.36288 119.205594 
L 414.36288 119.205594 
" style="fill:none;stroke:#0000ff;stroke-linecap:square;stroke-width:1.5;"/>
   </g>
   <g id="patch_3">
    <path d="M 57.6 307.584 
L 57.6 41.472 
" style="fill:none;stroke:#000000;stroke-linecap:square;stroke-linejoin:miter;stroke-width:0.8;"/>
   </g>
   <g id="patch_4">
    <path d="M 414.72 307.584 
L 414.72 41.472 
" style="fill:none;stroke:#000000;stroke-linecap:square;stroke-linejoin:miter;stroke-width:0.8;"/>
   </g>
   <g id="patch_5">
    <path d="M 57.6 307.584 
L 414.72 307.584 
" style="fill:none;stroke:#000000;stroke-linecap:square;stroke-linejoin:miter;stroke-width:0.8;"/>
   </g>
   <g id="patch_6">
    <path d="M 57.6 41.472 
L 414.72 41.472 
" style="fill:none;stroke:#000000;stroke-linecap:square;stroke-linejoin:miter;stroke-width:0.8;"/>
   </g>
   <g id="legend_1">
    <g id="patch_7">
     <path d="M 64.6 64.150125 
L 189.998437 64.150125 
Q 191.998437 64.150125 191.998437 62.150125 
L 191.998437 48.472 
Q 191.998437 46.472 189.998437 46.472 
L 64.6 46.472 
Q 62.6 46.472 62.6 48.472 
L 62.6 62.150125 
Q 62.6 64.150125 64.6 64.150125 
z
" style="fill:#ffffff;opacity:0.8;stroke:#cccccc;stroke-linejoin:miter;"/>
    </g>
    <g id="line2d_28">
     <path d="M 66.6 54.570438 
L 86.6 54.570438 
" style="fill:none;stroke:#0000ff;stroke-linecap:square;stroke-width:1.5;"/>
    </g>
    <g id="line2d_29"/>
    <g id="text_16">
     <!-- cumulative reward -->
     <g transform="translate(94.6 58.070438)scale(0.1 -0.1)">
      <defs>
       <path d="M 3122 3366 
L 3122 2828 
Q 2878 2963 2633 3030 
Q 2388 3097 2138 3097 
Q 1578 3097 1268 2742 
Q 959 2388 959 1747 
Q 959 1106 1268 751 
Q 1578 397 2138 397 
Q 2388 397 2633 464 
Q 2878 531 3122 666 
L 3122 134 
Q 2881 22 2623 -34 
Q 2366 -91 2075 -91 
Q 1284 -91 818 406 
Q 353 903 353 1747 
Q 353 2603 823 3093 
Q 1294 3584 2113 3584 
Q 2378 3584 2631 3529 
Q 2884 3475 3122 3366 
z
" id="DejaVuSans-63" transform="scale(0.015625)"/>
      </defs>
      <use xlink:href="#DejaVuSans-63"/>
      <use x="54.980469" xlink:href="#DejaVuSans-75"/>
      <use x="118.359375" xlink:href="#DejaVuSans-6d"/>
      <use x="215.771484" xlink:href="#DejaVuSans-75"/>
      <use x="279.150391" xlink:href="#DejaVuSans-6c"/>
      <use x="306.933594" xlink:href="#DejaVuSans-61"/>
      <use x="368.212891" xlink:href="#DejaVuSans-74"/>
      <use x="407.421875" xlink:href="#DejaVuSans-69"/>
      <use x="435.205078" xlink:href="#DejaVuSans-76"/>
      <use x="494.384766" xlink:href="#DejaVuSans-65"/>
      <use x="555.908203" xlink:href="#DejaVuSans-20"/>
      <use x="587.695312" xlink:href="#DejaVuSans-72"/>
      <use x="626.558594" xlink:href="#DejaVuSans-65"/>
      <use x="688.082031" xlink:href="#DejaVuSans-77"/>
      <use x="769.869141" xlink:href="#DejaVuSans-61"/>
      <use x="831.148438" xlink:href="#DejaVuSans-72"/>
      <use x="870.511719" xlink:href="#DejaVuSans-64"/>
     </g>
    </g>
   </g>
  </g>
 </g>
 <defs>
  <clipPath id="p957eb43e8a">
   <rect height="266.112" width="357.12" x="57.6" y="41.472"/>
  </clipPath>
 </defs>
</svg>
