<?xml version="1.0" encoding="utf-8" standalone="no"?>
<!DOCTYPE svg PUBLIC "-//W3C//DTD SVG 1.1//EN"
  "http://www.w3.org/Graphics/SVG/1.1/DTD/svg11.dtd">
<svg height="345.6pt" version="1.1" viewBox="0 0 460.8 345.6" width="460.8pt" xmlns="http://www.w3.org/2000/svg" xmlns:xlink="http://www.w3.org/1999/xlink">
 <metadata>
  <rdf:RDF xmlns:cc="http://creativecommons.org/ns#" xmlns:dc="http://purl.org/dc/elements/1.1/" xmlns:rdf="http://www.w3.org/1999/02/22-rdf-syntax-ns#">
   <cc:Work>
    <dc:type rdf:resource="http://purl.org/dc/dcmitype/StillImage"/>
    <dc:date>2021-11-18T15:46:10.372874</dc:date>
    <dc:description>{"agent.algorithm": "RayProximalPolicyOptimization", "agent.algorithm.render_env": false, "agent.algorithm.num_workers": 0, "agent.algorithm.batch_mode": "complete_episodes", "agent.algorithm.lr": 5e-05, "agent.algorithm.train_batch_size": 200, "agent.algorithm.optimizer": "Adam", "agent.algorithm.vf_clip_param": 10, "agent.algorithm.model": {"fcnet_activation": "relu", "fcnet_hiddens": [50, 50]}, "env.env_class": "SchedulerPolicyRayEnvironment", "env.env_config": {"solver_driver": "DEdriver", "solver_driver_args": [10, 10, 1, "best1bin", "uniform"], "maximize": false, "steps": 50, "state_metrics_names": ["DifferenceOfBest", "SolverStateHistory"], "state_metrics_config": [[40, false, 1, true, false], [{"F_min": {"max": [2], "min": [0]}, "F_max": {"max": [2], "min": [0]}, "CR_min": {"max": [1], "min": [0]}, "CR_max": {"max": [1], "min": [0]}}, 40]], "reward_metric": "DeltaBest", "reward_metric_config": [false, true, true], "memes_no": 1, "action_space_config": {"F_min": {"max": 2, "min": 0}, "F_max": {"max": 2, "min": 0}, "CR_min": {"max": 1, "min": 0}, "CR_max": {"max": 1, "min": 0}}}}</dc:description>
    <dc:format>image/svg+xml</dc:format>
    <dc:creator>
     <cc:Agent>
      <dc:title>Matplotlib v3.4.3, https://matplotlib.org/</dc:title>
     </cc:Agent>
    </dc:creator>
   </cc:Work>
  </rdf:RDF>
 </metadata>
 <defs>
  <style type="text/css">*{stroke-linecap:butt;stroke-linejoin:round;}</style>
 </defs>
 <g id="figure_1">
  <g id="patch_1">
   <path d="M 0 345.6 
L 460.8 345.6 
L 460.8 0 
L 0 0 
z
" style="fill:#ffffff;"/>
  </g>
  <g id="axes_1">
   <g id="patch_2">
    <path d="M 57.6 307.584 
L 414.72 307.584 
L 414.72 41.472 
L 57.6 41.472 
z
" style="fill:#ffffff;"/>
   </g>
   <g id="matplotlib.axis_1">
    <g id="xtick_1">
     <g id="line2d_1">
      <path clip-path="url(#pad4e0e4b11)" d="M 57.6 307.584 
L 57.6 41.472 
" style="fill:none;stroke:#b0b0b0;stroke-linecap:square;stroke-width:0.8;"/>
     </g>
     <g id="line2d_2">
      <defs>
       <path d="M 0 0 
L 0 3.5 
" id="mfe3fc5591b" style="stroke:#000000;stroke-width:0.8;"/>
      </defs>
      <g>
       <use style="stroke:#000000;stroke-width:0.8;" x="57.6" xlink:href="#mfe3fc5591b" y="307.584"/>
      </g>
     </g>
     <g id="text_1">
      <!-- 0 -->
      <g transform="translate(52.51 326.7415)scale(0.16 -0.16)">
       <defs>
        <path d="M 2034 4250 
Q 1547 4250 1301 3770 
Q 1056 3291 1056 2328 
Q 1056 1369 1301 889 
Q 1547 409 2034 409 
Q 2525 409 2770 889 
Q 3016 1369 3016 2328 
Q 3016 3291 2770 3770 
Q 2525 4250 2034 4250 
z
M 2034 4750 
Q 2819 4750 3233 4129 
Q 3647 3509 3647 2328 
Q 3647 1150 3233 529 
Q 2819 -91 2034 -91 
Q 1250 -91 836 529 
Q 422 1150 422 2328 
Q 422 3509 836 4129 
Q 1250 4750 2034 4750 
z
" id="DejaVuSans-30" transform="scale(0.015625)"/>
       </defs>
       <use xlink:href="#DejaVuSans-30"/>
      </g>
     </g>
    </g>
    <g id="xtick_2">
     <g id="line2d_3">
      <path clip-path="url(#pad4e0e4b11)" d="M 146.88 307.584 
L 146.88 41.472 
" style="fill:none;stroke:#b0b0b0;stroke-linecap:square;stroke-width:0.8;"/>
     </g>
     <g id="line2d_4">
      <g>
       <use style="stroke:#000000;stroke-width:0.8;" x="146.88" xlink:href="#mfe3fc5591b" y="307.584"/>
      </g>
     </g>
     <g id="text_2">
      <!-- 1000 -->
      <g transform="translate(126.52 326.7415)scale(0.16 -0.16)">
       <defs>
        <path d="M 794 531 
L 1825 531 
L 1825 4091 
L 703 3866 
L 703 4441 
L 1819 4666 
L 2450 4666 
L 2450 531 
L 3481 531 
L 3481 0 
L 794 0 
L 794 531 
z
" id="DejaVuSans-31" transform="scale(0.015625)"/>
       </defs>
       <use xlink:href="#DejaVuSans-31"/>
       <use x="63.623047" xlink:href="#DejaVuSans-30"/>
       <use x="127.246094" xlink:href="#DejaVuSans-30"/>
       <use x="190.869141" xlink:href="#DejaVuSans-30"/>
      </g>
     </g>
    </g>
    <g id="xtick_3">
     <g id="line2d_5">
      <path clip-path="url(#pad4e0e4b11)" d="M 236.16 307.584 
L 236.16 41.472 
" style="fill:none;stroke:#b0b0b0;stroke-linecap:square;stroke-width:0.8;"/>
     </g>
     <g id="line2d_6">
      <g>
       <use style="stroke:#000000;stroke-width:0.8;" x="236.16" xlink:href="#mfe3fc5591b" y="307.584"/>
      </g>
     </g>
     <g id="text_3">
      <!-- 2000 -->
      <g transform="translate(215.8 326.7415)scale(0.16 -0.16)">
       <defs>
        <path d="M 1228 531 
L 3431 531 
L 3431 0 
L 469 0 
L 469 531 
Q 828 903 1448 1529 
Q 2069 2156 2228 2338 
Q 2531 2678 2651 2914 
Q 2772 3150 2772 3378 
Q 2772 3750 2511 3984 
Q 2250 4219 1831 4219 
Q 1534 4219 1204 4116 
Q 875 4013 500 3803 
L 500 4441 
Q 881 4594 1212 4672 
Q 1544 4750 1819 4750 
Q 2544 4750 2975 4387 
Q 3406 4025 3406 3419 
Q 3406 3131 3298 2873 
Q 3191 2616 2906 2266 
Q 2828 2175 2409 1742 
Q 1991 1309 1228 531 
z
" id="DejaVuSans-32" transform="scale(0.015625)"/>
       </defs>
       <use xlink:href="#DejaVuSans-32"/>
       <use x="63.623047" xlink:href="#DejaVuSans-30"/>
       <use x="127.246094" xlink:href="#DejaVuSans-30"/>
       <use x="190.869141" xlink:href="#DejaVuSans-30"/>
      </g>
     </g>
    </g>
    <g id="xtick_4">
     <g id="line2d_7">
      <path clip-path="url(#pad4e0e4b11)" d="M 325.44 307.584 
L 325.44 41.472 
" style="fill:none;stroke:#b0b0b0;stroke-linecap:square;stroke-width:0.8;"/>
     </g>
     <g id="line2d_8">
      <g>
       <use style="stroke:#000000;stroke-width:0.8;" x="325.44" xlink:href="#mfe3fc5591b" y="307.584"/>
      </g>
     </g>
     <g id="text_4">
      <!-- 3000 -->
      <g transform="translate(305.08 326.7415)scale(0.16 -0.16)">
       <defs>
        <path d="M 2597 2516 
Q 3050 2419 3304 2112 
Q 3559 1806 3559 1356 
Q 3559 666 3084 287 
Q 2609 -91 1734 -91 
Q 1441 -91 1130 -33 
Q 819 25 488 141 
L 488 750 
Q 750 597 1062 519 
Q 1375 441 1716 441 
Q 2309 441 2620 675 
Q 2931 909 2931 1356 
Q 2931 1769 2642 2001 
Q 2353 2234 1838 2234 
L 1294 2234 
L 1294 2753 
L 1863 2753 
Q 2328 2753 2575 2939 
Q 2822 3125 2822 3475 
Q 2822 3834 2567 4026 
Q 2313 4219 1838 4219 
Q 1578 4219 1281 4162 
Q 984 4106 628 3988 
L 628 4550 
Q 988 4650 1302 4700 
Q 1616 4750 1894 4750 
Q 2613 4750 3031 4423 
Q 3450 4097 3450 3541 
Q 3450 3153 3228 2886 
Q 3006 2619 2597 2516 
z
" id="DejaVuSans-33" transform="scale(0.015625)"/>
       </defs>
       <use xlink:href="#DejaVuSans-33"/>
       <use x="63.623047" xlink:href="#DejaVuSans-30"/>
       <use x="127.246094" xlink:href="#DejaVuSans-30"/>
       <use x="190.869141" xlink:href="#DejaVuSans-30"/>
      </g>
     </g>
    </g>
    <g id="xtick_5">
     <g id="line2d_9">
      <path clip-path="url(#pad4e0e4b11)" d="M 414.72 307.584 
L 414.72 41.472 
" style="fill:none;stroke:#b0b0b0;stroke-linecap:square;stroke-width:0.8;"/>
     </g>
     <g id="line2d_10">
      <g>
       <use style="stroke:#000000;stroke-width:0.8;" x="414.72" xlink:href="#mfe3fc5591b" y="307.584"/>
      </g>
     </g>
     <g id="text_5">
      <!-- 4000 -->
      <g transform="translate(394.36 326.7415)scale(0.16 -0.16)">
       <defs>
        <path d="M 2419 4116 
L 825 1625 
L 2419 1625 
L 2419 4116 
z
M 2253 4666 
L 3047 4666 
L 3047 1625 
L 3713 1625 
L 3713 1100 
L 3047 1100 
L 3047 0 
L 2419 0 
L 2419 1100 
L 313 1100 
L 313 1709 
L 2253 4666 
z
" id="DejaVuSans-34" transform="scale(0.015625)"/>
       </defs>
       <use xlink:href="#DejaVuSans-34"/>
       <use x="63.623047" xlink:href="#DejaVuSans-30"/>
       <use x="127.246094" xlink:href="#DejaVuSans-30"/>
       <use x="190.869141" xlink:href="#DejaVuSans-30"/>
      </g>
     </g>
    </g>
    <g id="text_6">
     <!-- Episodes -->
     <g transform="translate(200.5725 346.2265)scale(0.16 -0.16)">
      <defs>
       <path d="M 628 4666 
L 3578 4666 
L 3578 4134 
L 1259 4134 
L 1259 2753 
L 3481 2753 
L 3481 2222 
L 1259 2222 
L 1259 531 
L 3634 531 
L 3634 0 
L 628 0 
L 628 4666 
z
" id="DejaVuSans-45" transform="scale(0.015625)"/>
       <path d="M 1159 525 
L 1159 -1331 
L 581 -1331 
L 581 3500 
L 1159 3500 
L 1159 2969 
Q 1341 3281 1617 3432 
Q 1894 3584 2278 3584 
Q 2916 3584 3314 3078 
Q 3713 2572 3713 1747 
Q 3713 922 3314 415 
Q 2916 -91 2278 -91 
Q 1894 -91 1617 61 
Q 1341 213 1159 525 
z
M 3116 1747 
Q 3116 2381 2855 2742 
Q 2594 3103 2138 3103 
Q 1681 3103 1420 2742 
Q 1159 2381 1159 1747 
Q 1159 1113 1420 752 
Q 1681 391 2138 391 
Q 2594 391 2855 752 
Q 3116 1113 3116 1747 
z
" id="DejaVuSans-70" transform="scale(0.015625)"/>
       <path d="M 603 3500 
L 1178 3500 
L 1178 0 
L 603 0 
L 603 3500 
z
M 603 4863 
L 1178 4863 
L 1178 4134 
L 603 4134 
L 603 4863 
z
" id="DejaVuSans-69" transform="scale(0.015625)"/>
       <path d="M 2834 3397 
L 2834 2853 
Q 2591 2978 2328 3040 
Q 2066 3103 1784 3103 
Q 1356 3103 1142 2972 
Q 928 2841 928 2578 
Q 928 2378 1081 2264 
Q 1234 2150 1697 2047 
L 1894 2003 
Q 2506 1872 2764 1633 
Q 3022 1394 3022 966 
Q 3022 478 2636 193 
Q 2250 -91 1575 -91 
Q 1294 -91 989 -36 
Q 684 19 347 128 
L 347 722 
Q 666 556 975 473 
Q 1284 391 1588 391 
Q 1994 391 2212 530 
Q 2431 669 2431 922 
Q 2431 1156 2273 1281 
Q 2116 1406 1581 1522 
L 1381 1569 
Q 847 1681 609 1914 
Q 372 2147 372 2553 
Q 372 3047 722 3315 
Q 1072 3584 1716 3584 
Q 2034 3584 2315 3537 
Q 2597 3491 2834 3397 
z
" id="DejaVuSans-73" transform="scale(0.015625)"/>
       <path d="M 1959 3097 
Q 1497 3097 1228 2736 
Q 959 2375 959 1747 
Q 959 1119 1226 758 
Q 1494 397 1959 397 
Q 2419 397 2687 759 
Q 2956 1122 2956 1747 
Q 2956 2369 2687 2733 
Q 2419 3097 1959 3097 
z
M 1959 3584 
Q 2709 3584 3137 3096 
Q 3566 2609 3566 1747 
Q 3566 888 3137 398 
Q 2709 -91 1959 -91 
Q 1206 -91 779 398 
Q 353 888 353 1747 
Q 353 2609 779 3096 
Q 1206 3584 1959 3584 
z
" id="DejaVuSans-6f" transform="scale(0.015625)"/>
       <path d="M 2906 2969 
L 2906 4863 
L 3481 4863 
L 3481 0 
L 2906 0 
L 2906 525 
Q 2725 213 2448 61 
Q 2172 -91 1784 -91 
Q 1150 -91 751 415 
Q 353 922 353 1747 
Q 353 2572 751 3078 
Q 1150 3584 1784 3584 
Q 2172 3584 2448 3432 
Q 2725 3281 2906 2969 
z
M 947 1747 
Q 947 1113 1208 752 
Q 1469 391 1925 391 
Q 2381 391 2643 752 
Q 2906 1113 2906 1747 
Q 2906 2381 2643 2742 
Q 2381 3103 1925 3103 
Q 1469 3103 1208 2742 
Q 947 2381 947 1747 
z
" id="DejaVuSans-64" transform="scale(0.015625)"/>
       <path d="M 3597 1894 
L 3597 1613 
L 953 1613 
Q 991 1019 1311 708 
Q 1631 397 2203 397 
Q 2534 397 2845 478 
Q 3156 559 3463 722 
L 3463 178 
Q 3153 47 2828 -22 
Q 2503 -91 2169 -91 
Q 1331 -91 842 396 
Q 353 884 353 1716 
Q 353 2575 817 3079 
Q 1281 3584 2069 3584 
Q 2775 3584 3186 3129 
Q 3597 2675 3597 1894 
z
M 3022 2063 
Q 3016 2534 2758 2815 
Q 2500 3097 2075 3097 
Q 1594 3097 1305 2825 
Q 1016 2553 972 2059 
L 3022 2063 
z
" id="DejaVuSans-65" transform="scale(0.015625)"/>
      </defs>
      <use xlink:href="#DejaVuSans-45"/>
      <use x="63.183594" xlink:href="#DejaVuSans-70"/>
      <use x="126.660156" xlink:href="#DejaVuSans-69"/>
      <use x="154.443359" xlink:href="#DejaVuSans-73"/>
      <use x="206.542969" xlink:href="#DejaVuSans-6f"/>
      <use x="267.724609" xlink:href="#DejaVuSans-64"/>
      <use x="331.201172" xlink:href="#DejaVuSans-65"/>
      <use x="392.724609" xlink:href="#DejaVuSans-73"/>
     </g>
    </g>
   </g>
   <g id="matplotlib.axis_2">
    <g id="ytick_1">
     <g id="line2d_11">
      <path clip-path="url(#pad4e0e4b11)" d="M 57.6 285.408 
L 414.72 285.408 
" style="fill:none;stroke:#b0b0b0;stroke-linecap:square;stroke-width:0.8;"/>
     </g>
     <g id="line2d_12">
      <defs>
       <path d="M 0 0 
L -3.5 0 
" id="m497fd86917" style="stroke:#000000;stroke-width:0.8;"/>
      </defs>
      <g>
       <use style="stroke:#000000;stroke-width:0.8;" x="57.6" xlink:href="#m497fd86917" y="285.408"/>
      </g>
     </g>
     <g id="text_7">
      <!-- 0.0 -->
      <g transform="translate(25.155 291.48675)scale(0.16 -0.16)">
       <defs>
        <path d="M 684 794 
L 1344 794 
L 1344 0 
L 684 0 
L 684 794 
z
" id="DejaVuSans-2e" transform="scale(0.015625)"/>
       </defs>
       <use xlink:href="#DejaVuSans-30"/>
       <use x="63.623047" xlink:href="#DejaVuSans-2e"/>
       <use x="95.410156" xlink:href="#DejaVuSans-30"/>
      </g>
     </g>
    </g>
    <g id="ytick_2">
     <g id="line2d_13">
      <path clip-path="url(#pad4e0e4b11)" d="M 57.6 227.768055 
L 414.72 227.768055 
" style="fill:none;stroke:#b0b0b0;stroke-linecap:square;stroke-width:0.8;"/>
     </g>
     <g id="line2d_14">
      <g>
       <use style="stroke:#000000;stroke-width:0.8;" x="57.6" xlink:href="#m497fd86917" y="227.768055"/>
      </g>
     </g>
     <g id="text_8">
      <!-- 0.5 -->
      <g transform="translate(25.155 233.846805)scale(0.16 -0.16)">
       <defs>
        <path d="M 691 4666 
L 3169 4666 
L 3169 4134 
L 1269 4134 
L 1269 2991 
Q 1406 3038 1543 3061 
Q 1681 3084 1819 3084 
Q 2600 3084 3056 2656 
Q 3513 2228 3513 1497 
Q 3513 744 3044 326 
Q 2575 -91 1722 -91 
Q 1428 -91 1123 -41 
Q 819 9 494 109 
L 494 744 
Q 775 591 1075 516 
Q 1375 441 1709 441 
Q 2250 441 2565 725 
Q 2881 1009 2881 1497 
Q 2881 1984 2565 2268 
Q 2250 2553 1709 2553 
Q 1456 2553 1204 2497 
Q 953 2441 691 2322 
L 691 4666 
z
" id="DejaVuSans-35" transform="scale(0.015625)"/>
       </defs>
       <use xlink:href="#DejaVuSans-30"/>
       <use x="63.623047" xlink:href="#DejaVuSans-2e"/>
       <use x="95.410156" xlink:href="#DejaVuSans-35"/>
      </g>
     </g>
    </g>
    <g id="ytick_3">
     <g id="line2d_15">
      <path clip-path="url(#pad4e0e4b11)" d="M 57.6 170.12811 
L 414.72 170.12811 
" style="fill:none;stroke:#b0b0b0;stroke-linecap:square;stroke-width:0.8;"/>
     </g>
     <g id="line2d_16">
      <g>
       <use style="stroke:#000000;stroke-width:0.8;" x="57.6" xlink:href="#m497fd86917" y="170.12811"/>
      </g>
     </g>
     <g id="text_9">
      <!-- 1.0 -->
      <g transform="translate(25.155 176.20686)scale(0.16 -0.16)">
       <use xlink:href="#DejaVuSans-31"/>
       <use x="63.623047" xlink:href="#DejaVuSans-2e"/>
       <use x="95.410156" xlink:href="#DejaVuSans-30"/>
      </g>
     </g>
    </g>
    <g id="ytick_4">
     <g id="line2d_17">
      <path clip-path="url(#pad4e0e4b11)" d="M 57.6 112.488165 
L 414.72 112.488165 
" style="fill:none;stroke:#b0b0b0;stroke-linecap:square;stroke-width:0.8;"/>
     </g>
     <g id="line2d_18">
      <g>
       <use style="stroke:#000000;stroke-width:0.8;" x="57.6" xlink:href="#m497fd86917" y="112.488165"/>
      </g>
     </g>
     <g id="text_10">
      <!-- 1.5 -->
      <g transform="translate(25.155 118.566915)scale(0.16 -0.16)">
       <use xlink:href="#DejaVuSans-31"/>
       <use x="63.623047" xlink:href="#DejaVuSans-2e"/>
       <use x="95.410156" xlink:href="#DejaVuSans-35"/>
      </g>
     </g>
    </g>
    <g id="ytick_5">
     <g id="line2d_19">
      <path clip-path="url(#pad4e0e4b11)" d="M 57.6 54.84822 
L 414.72 54.84822 
" style="fill:none;stroke:#b0b0b0;stroke-linecap:square;stroke-width:0.8;"/>
     </g>
     <g id="line2d_20">
      <g>
       <use style="stroke:#000000;stroke-width:0.8;" x="57.6" xlink:href="#m497fd86917" y="54.84822"/>
      </g>
     </g>
     <g id="text_11">
      <!-- 2.0 -->
      <g transform="translate(25.155 60.92697)scale(0.16 -0.16)">
       <use xlink:href="#DejaVuSans-32"/>
       <use x="63.623047" xlink:href="#DejaVuSans-2e"/>
       <use x="95.410156" xlink:href="#DejaVuSans-30"/>
      </g>
     </g>
    </g>
    <g id="text_12">
     <!-- Cumulative Reward -->
     <g transform="translate(17.8275 252.52425)rotate(-90)scale(0.16 -0.16)">
      <defs>
       <path d="M 4122 4306 
L 4122 3641 
Q 3803 3938 3442 4084 
Q 3081 4231 2675 4231 
Q 1875 4231 1450 3742 
Q 1025 3253 1025 2328 
Q 1025 1406 1450 917 
Q 1875 428 2675 428 
Q 3081 428 3442 575 
Q 3803 722 4122 1019 
L 4122 359 
Q 3791 134 3420 21 
Q 3050 -91 2638 -91 
Q 1578 -91 968 557 
Q 359 1206 359 2328 
Q 359 3453 968 4101 
Q 1578 4750 2638 4750 
Q 3056 4750 3426 4639 
Q 3797 4528 4122 4306 
z
" id="DejaVuSans-43" transform="scale(0.015625)"/>
       <path d="M 544 1381 
L 544 3500 
L 1119 3500 
L 1119 1403 
Q 1119 906 1312 657 
Q 1506 409 1894 409 
Q 2359 409 2629 706 
Q 2900 1003 2900 1516 
L 2900 3500 
L 3475 3500 
L 3475 0 
L 2900 0 
L 2900 538 
Q 2691 219 2414 64 
Q 2138 -91 1772 -91 
Q 1169 -91 856 284 
Q 544 659 544 1381 
z
M 1991 3584 
L 1991 3584 
z
" id="DejaVuSans-75" transform="scale(0.015625)"/>
       <path d="M 3328 2828 
Q 3544 3216 3844 3400 
Q 4144 3584 4550 3584 
Q 5097 3584 5394 3201 
Q 5691 2819 5691 2113 
L 5691 0 
L 5113 0 
L 5113 2094 
Q 5113 2597 4934 2840 
Q 4756 3084 4391 3084 
Q 3944 3084 3684 2787 
Q 3425 2491 3425 1978 
L 3425 0 
L 2847 0 
L 2847 2094 
Q 2847 2600 2669 2842 
Q 2491 3084 2119 3084 
Q 1678 3084 1418 2786 
Q 1159 2488 1159 1978 
L 1159 0 
L 581 0 
L 581 3500 
L 1159 3500 
L 1159 2956 
Q 1356 3278 1631 3431 
Q 1906 3584 2284 3584 
Q 2666 3584 2933 3390 
Q 3200 3197 3328 2828 
z
" id="DejaVuSans-6d" transform="scale(0.015625)"/>
       <path d="M 603 4863 
L 1178 4863 
L 1178 0 
L 603 0 
L 603 4863 
z
" id="DejaVuSans-6c" transform="scale(0.015625)"/>
       <path d="M 2194 1759 
Q 1497 1759 1228 1600 
Q 959 1441 959 1056 
Q 959 750 1161 570 
Q 1363 391 1709 391 
Q 2188 391 2477 730 
Q 2766 1069 2766 1631 
L 2766 1759 
L 2194 1759 
z
M 3341 1997 
L 3341 0 
L 2766 0 
L 2766 531 
Q 2569 213 2275 61 
Q 1981 -91 1556 -91 
Q 1019 -91 701 211 
Q 384 513 384 1019 
Q 384 1609 779 1909 
Q 1175 2209 1959 2209 
L 2766 2209 
L 2766 2266 
Q 2766 2663 2505 2880 
Q 2244 3097 1772 3097 
Q 1472 3097 1187 3025 
Q 903 2953 641 2809 
L 641 3341 
Q 956 3463 1253 3523 
Q 1550 3584 1831 3584 
Q 2591 3584 2966 3190 
Q 3341 2797 3341 1997 
z
" id="DejaVuSans-61" transform="scale(0.015625)"/>
       <path d="M 1172 4494 
L 1172 3500 
L 2356 3500 
L 2356 3053 
L 1172 3053 
L 1172 1153 
Q 1172 725 1289 603 
Q 1406 481 1766 481 
L 2356 481 
L 2356 0 
L 1766 0 
Q 1100 0 847 248 
Q 594 497 594 1153 
L 594 3053 
L 172 3053 
L 172 3500 
L 594 3500 
L 594 4494 
L 1172 4494 
z
" id="DejaVuSans-74" transform="scale(0.015625)"/>
       <path d="M 191 3500 
L 800 3500 
L 1894 563 
L 2988 3500 
L 3597 3500 
L 2284 0 
L 1503 0 
L 191 3500 
z
" id="DejaVuSans-76" transform="scale(0.015625)"/>
       <path id="DejaVuSans-20" transform="scale(0.015625)"/>
       <path d="M 2841 2188 
Q 3044 2119 3236 1894 
Q 3428 1669 3622 1275 
L 4263 0 
L 3584 0 
L 2988 1197 
Q 2756 1666 2539 1819 
Q 2322 1972 1947 1972 
L 1259 1972 
L 1259 0 
L 628 0 
L 628 4666 
L 2053 4666 
Q 2853 4666 3247 4331 
Q 3641 3997 3641 3322 
Q 3641 2881 3436 2590 
Q 3231 2300 2841 2188 
z
M 1259 4147 
L 1259 2491 
L 2053 2491 
Q 2509 2491 2742 2702 
Q 2975 2913 2975 3322 
Q 2975 3731 2742 3939 
Q 2509 4147 2053 4147 
L 1259 4147 
z
" id="DejaVuSans-52" transform="scale(0.015625)"/>
       <path d="M 269 3500 
L 844 3500 
L 1563 769 
L 2278 3500 
L 2956 3500 
L 3675 769 
L 4391 3500 
L 4966 3500 
L 4050 0 
L 3372 0 
L 2619 2869 
L 1863 0 
L 1184 0 
L 269 3500 
z
" id="DejaVuSans-77" transform="scale(0.015625)"/>
       <path d="M 2631 2963 
Q 2534 3019 2420 3045 
Q 2306 3072 2169 3072 
Q 1681 3072 1420 2755 
Q 1159 2438 1159 1844 
L 1159 0 
L 581 0 
L 581 3500 
L 1159 3500 
L 1159 2956 
Q 1341 3275 1631 3429 
Q 1922 3584 2338 3584 
Q 2397 3584 2469 3576 
Q 2541 3569 2628 3553 
L 2631 2963 
z
" id="DejaVuSans-72" transform="scale(0.015625)"/>
      </defs>
      <use xlink:href="#DejaVuSans-43"/>
      <use x="69.824219" xlink:href="#DejaVuSans-75"/>
      <use x="133.203125" xlink:href="#DejaVuSans-6d"/>
      <use x="230.615234" xlink:href="#DejaVuSans-75"/>
      <use x="293.994141" xlink:href="#DejaVuSans-6c"/>
      <use x="321.777344" xlink:href="#DejaVuSans-61"/>
      <use x="383.056641" xlink:href="#DejaVuSans-74"/>
      <use x="422.265625" xlink:href="#DejaVuSans-69"/>
      <use x="450.048828" xlink:href="#DejaVuSans-76"/>
      <use x="509.228516" xlink:href="#DejaVuSans-65"/>
      <use x="570.751953" xlink:href="#DejaVuSans-20"/>
      <use x="602.539062" xlink:href="#DejaVuSans-52"/>
      <use x="667.521484" xlink:href="#DejaVuSans-65"/>
      <use x="729.044922" xlink:href="#DejaVuSans-77"/>
      <use x="810.832031" xlink:href="#DejaVuSans-61"/>
      <use x="872.111328" xlink:href="#DejaVuSans-72"/>
      <use x="911.474609" xlink:href="#DejaVuSans-64"/>
     </g>
    </g>
   </g>
   <g id="line2d_21">
    <path clip-path="url(#pad4e0e4b11)" d="M 57.6 268.389232 
L 57.68928 198.250707 
L 57.77856 262.719377 
L 57.86784 242.692598 
L 57.95712 268.389232 
L 58.0464 198.250707 
L 58.13568 262.719377 
L 58.22496 242.692598 
L 58.31424 268.389232 
L 58.40352 198.250707 
L 58.4928 262.719377 
L 58.58208 242.692598 
L 58.67136 268.389232 
L 58.76064 198.250707 
L 58.84992 262.719377 
L 58.9392 242.692598 
L 59.02848 268.389232 
L 59.11776 198.250707 
L 59.20704 262.719377 
L 59.29632 242.692598 
L 59.3856 268.389232 
L 59.47488 198.250707 
L 59.56416 262.719377 
L 59.65344 242.692598 
L 59.74272 268.389232 
L 59.832 198.250707 
L 59.92128 262.719377 
L 60.01056 242.692598 
L 60.09984 268.389232 
L 60.18912 198.250707 
L 60.2784 262.719377 
L 60.36768 242.692598 
L 60.45696 268.389232 
L 60.54624 198.250707 
L 60.63552 262.719377 
L 60.7248 242.692598 
L 60.81408 268.389232 
L 60.90336 198.250707 
L 60.99264 262.719377 
L 61.08192 242.692598 
L 61.1712 268.389232 
L 61.26048 198.250707 
L 61.34976 262.719377 
L 61.43904 242.692598 
L 61.52832 268.389232 
L 61.6176 198.250707 
L 61.70688 262.719377 
L 61.79616 242.692598 
L 61.88544 268.389232 
L 61.97472 198.250707 
L 62.064 262.719377 
L 62.15328 242.692598 
L 62.24256 268.389232 
L 62.33184 198.250707 
L 62.42112 262.719377 
L 62.5104 242.692598 
L 62.59968 268.389232 
L 62.68896 198.250707 
L 62.77824 262.719377 
L 62.86752 242.692598 
L 62.9568 268.389232 
L 63.04608 198.250707 
L 63.13536 262.719377 
L 63.22464 242.692598 
L 63.31392 268.389232 
L 63.4032 198.250707 
L 63.49248 262.719377 
L 63.58176 242.692598 
L 63.67104 268.389232 
L 63.76032 198.250707 
L 63.8496 262.719377 
L 63.93888 242.692598 
L 64.02816 268.389232 
L 64.11744 198.250707 
L 64.20672 262.719377 
L 64.296 242.692598 
L 64.38528 268.389232 
L 64.47456 198.250707 
L 64.56384 262.719377 
L 64.65312 242.692598 
L 64.7424 268.389232 
L 64.83168 198.250707 
L 64.92096 262.719377 
L 65.01024 242.692598 
L 65.09952 268.389232 
L 65.1888 198.250707 
L 65.27808 262.719377 
L 65.36736 242.692598 
L 65.45664 268.389232 
L 65.54592 198.250707 
L 65.6352 262.719377 
L 65.72448 242.692598 
L 65.81376 268.389232 
L 65.90304 198.250707 
L 65.99232 262.719377 
L 66.0816 242.692598 
L 66.17088 268.389232 
L 66.26016 198.250707 
L 66.34944 262.719377 
L 66.528 232.427079 
L 66.70656 237.339233 
L 66.79584 222.953479 
L 66.88512 224.823137 
L 66.9744 225.067907 
L 67.06368 205.882696 
L 67.15296 241.512739 
L 67.24224 182.793264 
L 67.4208 251.407553 
L 67.51008 222.025675 
L 67.59936 253.236775 
L 67.68864 190.207969 
L 67.77792 226.582245 
L 68.04576 185.204191 
L 68.22432 249.81856 
L 68.3136 219.88344 
L 68.40288 227.719295 
L 68.49216 180.452675 
L 68.58144 185.153291 
L 68.76 199.991911 
L 68.84928 167.987001 
L 68.93856 174.88616 
L 69.02784 200.00022 
L 69.11712 176.032515 
L 69.29568 259.858072 
L 69.38496 181.283706 
L 69.47424 216.414824 
L 69.56352 207.806917 
L 69.74208 238.721741 
L 69.92064 195.20831 
L 70.00992 216.626435 
L 70.0992 206.496164 
L 70.18848 210.781234 
L 70.27776 199.260144 
L 70.36704 238.606746 
L 70.45632 233.920303 
L 70.5456 109.34838 
L 70.63488 225.078148 
L 70.72416 161.860962 
L 70.81344 240.592095 
L 71.08128 185.720731 
L 71.17056 246.181841 
L 71.34912 222.077805 
L 71.4384 236.38632 
L 71.52768 221.524498 
L 71.61696 235.665611 
L 71.70624 214.087171 
L 71.8848 244.524905 
L 72.06336 180.589847 
L 72.24192 252.843246 
L 72.42048 248.56137 
L 72.50976 273.472497 
L 72.68832 162.948658 
L 72.86688 257.123103 
L 72.95616 237.095051 
L 73.04544 237.380663 
L 73.13472 234.264815 
L 73.224 219.612579 
L 73.31328 247.097094 
L 73.40256 220.953065 
L 73.49184 232.659037 
L 73.58112 217.943614 
L 73.75968 253.568433 
L 73.93824 224.415866 
L 74.02752 249.105184 
L 74.20608 215.481137 
L 74.47392 250.986538 
L 74.5632 238.986415 
L 74.65248 146.214372 
L 74.83104 242.256898 
L 74.92032 232.802272 
L 75.0096 203.354658 
L 75.09888 255.058822 
L 75.18816 204.815678 
L 75.27744 227.647125 
L 75.36672 155.935416 
L 75.456 244.708117 
L 75.54528 131.754195 
L 75.63456 278.560668 
L 75.72384 232.813736 
L 75.81312 253.795521 
L 76.08096 160.419846 
L 76.17024 268.064711 
L 76.25952 193.868861 
L 76.43808 254.269693 
L 76.61664 244.306746 
L 76.70592 253.19034 
L 76.7952 160.901274 
L 76.88448 265.846698 
L 76.97376 185.391804 
L 77.06304 242.906412 
L 77.2416 196.087055 
L 77.50944 246.597408 
L 77.59872 197.044158 
L 77.77728 260.213146 
L 78.04512 229.154825 
L 78.1344 169.619662 
L 78.22368 220.810808 
L 78.31296 198.512925 
L 78.49152 225.544247 
L 78.5808 217.50763 
L 78.75936 261.475067 
L 78.84864 208.462408 
L 79.20576 267.385849 
L 79.29504 209.72945 
L 79.4736 245.875434 
L 79.56288 259.26057 
L 79.65216 243.155713 
L 79.74144 200.739908 
L 79.83072 205.835243 
L 79.92 266.307696 
L 80.00928 195.142245 
L 80.09856 255.332388 
L 80.18784 250.644444 
L 80.3664 185.887294 
L 80.45568 258.80277 
L 80.54496 223.000235 
L 80.63424 229.746208 
L 80.72352 247.924696 
L 80.90208 195.127735 
L 81.08064 203.964894 
L 81.16992 205.537198 
L 81.2592 237.830377 
L 81.34848 233.556006 
L 81.43776 228.49212 
L 81.52704 234.506205 
L 81.61632 207.497023 
L 81.7056 240.464746 
L 81.79488 207.514679 
L 81.88416 248.672264 
L 82.24128 186.784282 
L 82.33056 227.924647 
L 82.41984 224.858313 
L 82.50912 184.165925 
L 82.5984 63.648 
L 82.68768 267.993488 
L 82.77696 210.038223 
L 82.86624 223.805333 
L 82.95552 274.923042 
L 83.0448 181.61041 
L 83.13408 249.208927 
L 83.22336 176.539845 
L 83.31264 190.135968 
L 83.4912 280.48752 
L 83.75904 189.47813 
L 83.84832 244.216854 
L 83.9376 204.538008 
L 84.11616 247.469314 
L 84.20544 212.528167 
L 84.29472 237.777575 
L 84.384 221.899122 
L 84.47328 258.500125 
L 84.56256 198.433606 
L 84.65184 264.344733 
L 84.74112 90.467142 
L 84.8304 239.139676 
L 84.91968 196.675785 
L 85.00896 245.331787 
L 85.09824 217.401393 
L 85.18752 232.278307 
L 85.2768 266.076964 
L 85.54464 174.711671 
L 85.63392 247.417468 
L 85.7232 238.179308 
L 85.81248 175.033214 
L 85.90176 239.457301 
L 85.99104 166.775586 
L 86.08032 253.730288 
L 86.25888 196.573221 
L 86.43744 253.364328 
L 86.52672 252.752331 
L 86.70528 222.127603 
L 86.79456 269.071661 
L 86.88384 200.114065 
L 86.97312 233.793561 
L 87.0624 132.941693 
L 87.24096 244.96615 
L 87.59808 168.724452 
L 87.68736 242.929921 
L 87.77664 195.271836 
L 87.86592 232.159864 
L 87.9552 227.82372 
L 88.04448 244.310168 
L 88.31232 173.329976 
L 88.4016 196.608055 
L 88.49088 163.332307 
L 88.58016 253.94275 
L 88.75872 187.692334 
L 88.848 245.404333 
L 88.93728 227.991957 
L 89.02656 161.354263 
L 89.11584 209.747882 
L 89.20512 208.639202 
L 89.2944 234.591814 
L 89.38368 187.635747 
L 89.47296 262.823329 
L 89.7408 181.722807 
L 89.83008 206.767924 
L 89.91936 265.39956 
L 90.09792 176.515002 
L 90.1872 236.160021 
L 90.27648 142.55134 
L 90.36576 249.227278 
L 90.45504 205.978851 
L 90.54432 259.02973 
L 90.6336 244.840068 
L 90.81216 194.70529 
L 90.90144 266.802508 
L 90.99072 251.827273 
L 91.08 250.309449 
L 91.16928 235.978014 
L 91.25856 201.580231 
L 91.43712 243.640565 
L 91.5264 218.262008 
L 91.61568 230.189794 
L 91.70496 177.262251 
L 91.79424 261.13925 
L 91.88352 236.044965 
L 91.9728 143.236774 
L 92.24064 247.264726 
L 92.32992 224.43329 
L 92.4192 255.636711 
L 92.50848 206.579732 
L 92.59776 211.765448 
L 92.77632 245.015932 
L 92.8656 237.679995 
L 92.95488 244.742562 
L 93.04416 168.460302 
L 93.13344 250.41176 
L 93.312 211.526903 
L 93.40128 278.015104 
L 93.49056 188.109022 
L 93.57984 234.143586 
L 93.7584 203.344789 
L 93.84768 232.67842 
L 93.93696 191.94926 
L 94.11552 237.438716 
L 94.2048 240.014131 
L 94.47264 182.345298 
L 94.56192 207.078395 
L 94.6512 162.7662 
L 94.82976 238.198844 
L 94.91904 237.349505 
L 95.00832 158.346289 
L 95.18688 224.493947 
L 95.27616 222.795176 
L 95.36544 233.249113 
L 95.45472 159.302437 
L 95.72256 256.570396 
L 95.81184 196.905306 
L 95.90112 211.442037 
L 95.9904 202.774552 
L 96.07968 219.927422 
L 96.16896 179.446584 
L 96.34752 240.439178 
L 96.4368 234.007122 
L 96.52608 193.248796 
L 96.70464 259.073982 
L 96.79392 158.174518 
L 96.8832 237.87047 
L 96.97248 229.760539 
L 97.06176 243.12164 
L 97.24032 183.885312 
L 97.3296 196.051277 
L 97.41888 170.361376 
L 97.50816 249.685214 
L 97.59744 198.880525 
L 97.68672 245.181186 
L 97.776 150.874376 
L 97.86528 173.807888 
L 97.95456 227.725331 
L 98.04384 211.084959 
L 98.13312 221.711201 
L 98.2224 153.325918 
L 98.40096 230.035279 
L 98.49024 158.983887 
L 98.57952 231.91045 
L 98.6688 152.16099 
L 98.75808 257.832295 
L 98.84736 147.85519 
L 99.02592 250.634123 
L 99.20448 190.850275 
L 99.29376 236.037501 
L 99.38304 137.448352 
L 99.47232 237.442765 
L 99.5616 224.278143 
L 99.65088 248.73514 
L 99.74016 231.4842 
L 99.82944 249.656048 
L 99.91872 187.959741 
L 100.008 242.587364 
L 100.09728 233.067654 
L 100.18656 184.45588 
L 100.27584 189.55969 
L 100.36512 222.740102 
L 100.4544 222.029842 
L 100.54368 237.976001 
L 100.63296 192.050472 
L 100.81152 219.412742 
L 100.9008 228.240484 
L 100.99008 195.210442 
L 101.25792 231.150732 
L 101.3472 207.403746 
L 101.43648 227.534786 
L 101.52576 207.766271 
L 101.61504 249.98916 
L 101.7936 154.216364 
L 101.97216 214.869923 
L 102.15072 179.563857 
L 102.24 228.75262 
L 102.41856 204.229793 
L 102.50784 243.557587 
L 102.59712 214.403148 
L 102.6864 253.385114 
L 102.77568 175.730553 
L 102.86496 229.097657 
L 102.95424 227.633691 
L 103.04352 183.772467 
L 103.1328 257.577662 
L 103.22208 179.228651 
L 103.31136 204.47053 
L 103.40064 197.238909 
L 103.48992 152.693673 
L 103.5792 260.213216 
L 103.66848 198.756607 
L 103.75776 242.182561 
L 103.84704 183.395526 
L 104.0256 238.480237 
L 104.11488 125.326079 
L 104.20416 258.458068 
L 104.29344 136.052477 
L 104.472 251.411386 
L 104.56128 226.010428 
L 104.65056 276.94366 
L 104.82912 202.039652 
L 104.9184 214.882743 
L 105.09696 131.422908 
L 105.18624 225.226267 
L 105.27552 209.182461 
L 105.3648 223.784876 
L 105.45408 205.590425 
L 105.63264 246.741689 
L 105.72192 223.394482 
L 105.8112 228.831154 
L 105.90048 253.369784 
L 106.07904 176.354626 
L 106.16832 221.103548 
L 106.2576 215.63525 
L 106.34688 222.748265 
L 106.43616 244.234884 
L 106.52544 227.215219 
L 106.61472 237.811737 
L 106.79328 170.062876 
L 106.88256 174.63139 
L 106.97184 164.084437 
L 107.06112 243.850211 
L 107.1504 240.225626 
L 107.32896 202.339723 
L 107.50752 247.193536 
L 107.5968 231.670768 
L 107.68608 198.139191 
L 107.77536 252.317089 
L 107.86464 212.245206 
L 108.0432 259.24137 
L 108.22176 120.770244 
L 108.40032 257.307135 
L 108.4896 207.961406 
L 108.57888 217.506168 
L 108.75744 196.353716 
L 109.02528 253.549662 
L 109.20384 237.442205 
L 109.29312 175.376718 
L 109.3824 236.316035 
L 109.47168 166.283407 
L 109.65024 190.914816 
L 109.73952 175.985789 
L 109.8288 262.207257 
L 109.91808 224.52709 
L 110.00736 257.003795 
L 110.09664 207.42283 
L 110.18592 210.738519 
L 110.2752 238.965315 
L 110.36448 204.102327 
L 110.45376 211.193695 
L 110.7216 278.083631 
L 110.81088 211.033984 
L 110.90016 232.80913 
L 110.98944 224.058039 
L 111.07872 176.700887 
L 111.168 237.721495 
L 111.25728 187.707878 
L 111.34656 240.836276 
L 111.6144 95.257973 
L 111.70368 204.353985 
L 111.79296 193.514555 
L 111.88224 179.828177 
L 111.97152 259.289398 
L 112.15008 200.086706 
L 112.32864 268.156919 
L 112.41792 245.501022 
L 112.5072 169.280631 
L 112.59648 255.0847 
L 112.68576 234.293134 
L 112.86432 266.702356 
L 113.04288 200.021842 
L 113.13216 210.853973 
L 113.22144 249.651078 
L 113.4 184.162832 
L 113.48928 250.272486 
L 113.57856 173.727505 
L 113.66784 186.923053 
L 113.75712 219.373112 
L 113.8464 169.691556 
L 113.93568 252.546152 
L 114.02496 202.696473 
L 114.11424 215.493784 
L 114.20352 136.668292 
L 114.38208 253.981939 
L 114.47136 255.695006 
L 114.56064 235.609723 
L 114.64992 128.352349 
L 114.7392 259.775491 
L 114.82848 176.255891 
L 114.91776 215.868544 
L 115.00704 179.02521 
L 115.09632 202.093048 
L 115.1856 197.018802 
L 115.27488 194.230738 
L 115.45344 238.017307 
L 115.54272 243.8257 
L 115.632 190.096748 
L 115.72128 190.966217 
L 115.81056 221.528602 
L 115.89984 153.59744 
L 115.98912 235.791826 
L 116.0784 223.552527 
L 116.16768 248.992243 
L 116.25696 247.391873 
L 116.34624 213.82913 
L 116.43552 217.509931 
L 116.5248 203.056978 
L 116.61408 247.103244 
L 116.70336 234.75803 
L 116.79264 260.975572 
L 116.88192 182.141324 
L 116.9712 268.177418 
L 117.14976 140.840839 
L 117.23904 223.43422 
L 117.32832 149.813495 
L 117.50688 252.97765 
L 117.59616 217.902493 
L 117.68544 248.58836 
L 117.864 174.179812 
L 117.95328 258.69678 
L 118.04256 207.771018 
L 118.22112 250.909492 
L 118.3104 180.756654 
L 118.48896 255.657669 
L 118.57824 201.441193 
L 118.66752 258.655351 
L 118.7568 207.023511 
L 118.93536 239.857947 
L 119.02464 199.809169 
L 119.11392 250.813053 
L 119.2032 166.02049 
L 119.38176 234.990063 
L 119.47104 169.48857 
L 119.56032 170.38096 
L 119.82816 274.022726 
L 119.91744 121.275108 
L 120.096 232.715746 
L 120.18528 250.181173 
L 120.27456 230.341526 
L 120.36384 237.572033 
L 120.45312 262.363793 
L 120.72096 148.722116 
L 120.81024 231.412136 
L 120.89952 218.119459 
L 121.07808 261.677429 
L 121.16736 212.511468 
L 121.34592 253.36682 
L 121.52448 213.007902 
L 121.61376 244.562022 
L 121.70304 239.148379 
L 121.79232 234.967449 
L 121.97088 217.801527 
L 122.06016 259.934036 
L 122.14944 191.821901 
L 122.328 260.558278 
L 122.41728 205.55126 
L 122.50656 270.206684 
L 122.59584 201.669173 
L 122.68512 213.262982 
L 122.7744 198.037617 
L 122.95296 263.46744 
L 123.04224 228.982289 
L 123.13152 251.38455 
L 123.2208 208.120224 
L 123.31008 211.118167 
L 123.39936 239.034227 
L 123.48864 237.084601 
L 123.57792 218.603257 
L 123.6672 253.709847 
L 123.84576 201.727781 
L 124.02432 248.320175 
L 124.1136 194.642686 
L 124.20288 259.146137 
L 124.47072 201.782041 
L 124.56 171.863003 
L 124.64928 181.127812 
L 124.73856 179.487481 
L 124.82784 248.253745 
L 124.91712 245.671838 
L 125.0064 178.643394 
L 125.18496 252.315888 
L 125.36352 203.858253 
L 125.4528 233.694699 
L 125.54208 185.969366 
L 125.63136 186.762651 
L 125.72064 173.874817 
L 125.80992 248.316638 
L 125.8992 211.973675 
L 126.07776 238.823801 
L 126.16704 200.86092 
L 126.25632 201.710317 
L 126.3456 243.857745 
L 126.43488 175.921338 
L 126.52416 206.876697 
L 126.61344 140.197469 
L 126.70272 250.417114 
L 126.792 240.111506 
L 126.97056 188.218492 
L 127.05984 184.286386 
L 127.14912 246.087211 
L 127.2384 207.604525 
L 127.32768 218.508035 
L 127.41696 199.117076 
L 127.50624 216.095556 
L 127.59552 257.517407 
L 127.6848 250.974117 
L 127.77408 194.952272 
L 127.95264 248.976112 
L 128.04192 254.006349 
L 128.1312 186.327088 
L 128.22048 242.736428 
L 128.30976 227.867001 
L 128.39904 246.444691 
L 128.5776 223.050192 
L 128.66688 169.496424 
L 128.75616 248.153129 
L 128.93472 187.536064 
L 129.024 131.647769 
L 129.20256 208.292267 
L 129.29184 205.694645 
L 129.38112 145.996957 
L 129.55968 220.970256 
L 129.64896 224.369828 
L 129.73824 241.466495 
L 129.9168 197.834047 
L 130.00608 259.141126 
L 130.09536 209.52013 
L 130.27392 243.455894 
L 130.45248 158.975497 
L 130.63104 245.754616 
L 130.72032 196.713211 
L 130.8096 238.444881 
L 130.89888 236.028606 
L 130.98816 198.898721 
L 131.07744 233.080879 
L 131.16672 201.155459 
L 131.34528 251.794596 
L 131.61312 152.704484 
L 131.79168 221.691025 
L 131.88096 219.808793 
L 131.97024 206.705096 
L 132.05952 144.394781 
L 132.1488 177.657058 
L 132.23808 103.277036 
L 132.41664 265.004097 
L 132.5952 215.900013 
L 132.68448 225.870422 
L 132.77376 152.889407 
L 132.86304 163.106341 
L 132.95232 243.454605 
L 133.0416 180.616717 
L 133.22016 253.350008 
L 133.30944 213.649218 
L 133.39872 239.695959 
L 133.488 186.532713 
L 133.57728 235.142568 
L 133.66656 229.70872 
L 133.75584 165.478355 
L 133.84512 250.832163 
L 133.9344 218.657271 
L 134.11296 260.429732 
L 134.29152 83.842182 
L 134.3808 228.303137 
L 134.47008 150.557905 
L 134.55936 204.663081 
L 134.64864 199.253921 
L 134.73792 199.405884 
L 134.8272 193.600806 
L 134.91648 179.313003 
L 135.18432 274.463838 
L 135.36288 193.700912 
L 135.45216 203.449119 
L 135.54144 258.965856 
L 135.63072 209.45388 
L 135.80928 255.908861 
L 135.98784 192.112795 
L 136.07712 235.825637 
L 136.1664 228.075744 
L 136.25568 198.897899 
L 136.43424 266.509471 
L 136.52352 215.115533 
L 136.6128 270.501554 
L 136.70208 221.453209 
L 136.79136 262.504012 
L 136.96992 156.498803 
L 137.14848 241.489602 
L 137.23776 156.293734 
L 137.41632 222.821876 
L 137.5056 222.431005 
L 137.59488 195.898318 
L 137.68416 204.433413 
L 137.77344 202.608949 
L 137.86272 208.26832 
L 137.952 226.940688 
L 138.04128 210.654692 
L 138.13056 259.994303 
L 138.30912 176.189296 
L 138.48768 228.711785 
L 138.57696 233.406116 
L 138.66624 197.588672 
L 138.75552 207.235637 
L 138.8448 196.303805 
L 139.02336 244.122321 
L 139.2912 198.543729 
L 139.38048 236.93598 
L 139.46976 212.410413 
L 139.64832 261.778251 
L 139.7376 209.387427 
L 139.82688 253.89105 
L 140.00544 205.75185 
L 140.09472 238.552398 
L 140.36256 204.791753 
L 140.45184 229.648386 
L 140.6304 182.373067 
L 140.71968 225.962498 
L 140.80896 192.276556 
L 140.98752 233.993086 
L 141.25536 185.292116 
L 141.34464 153.848578 
L 141.43392 196.58591 
L 141.5232 187.511679 
L 141.79104 242.362999 
L 141.88032 256.71713 
L 141.9696 251.103801 
L 142.05888 228.431147 
L 142.14816 278.697888 
L 142.32672 188.560884 
L 142.416 218.494802 
L 142.50528 201.004201 
L 142.59456 218.760672 
L 142.68384 191.022144 
L 142.77312 203.097305 
L 142.8624 248.449303 
L 142.95168 229.918891 
L 143.04096 241.461661 
L 143.13024 194.547527 
L 143.21952 254.180103 
L 143.3088 214.823761 
L 143.39808 236.003219 
L 143.48736 210.359776 
L 143.57664 247.462161 
L 143.7552 200.362309 
L 143.93376 243.605498 
L 144.02304 237.909622 
L 144.11232 207.718545 
L 144.2016 215.881481 
L 144.29088 166.460885 
L 144.46944 203.62203 
L 144.55872 168.400792 
L 144.648 222.137865 
L 144.73728 219.261296 
L 144.82656 221.191955 
L 144.91584 231.342778 
L 145.00512 208.324854 
L 145.0944 223.959961 
L 145.18368 202.618729 
L 145.45152 247.923157 
L 145.5408 171.968515 
L 145.71936 244.487433 
L 145.80864 225.02506 
L 145.89792 230.158537 
L 145.9872 206.916811 
L 146.07648 229.928889 
L 146.16576 196.392858 
L 146.25504 219.028941 
L 146.34432 180.308383 
L 146.4336 184.059141 
L 146.52288 236.597056 
L 146.61216 196.84534 
L 146.70144 245.155899 
L 146.79072 241.111816 
L 146.88 197.968298 
L 147.23712 237.872624 
L 147.3264 193.435212 
L 147.41568 252.077834 
L 147.50496 239.290009 
L 147.59424 182.49752 
L 147.68352 262.665277 
L 147.7728 182.196381 
L 147.86208 271.153526 
L 147.95136 256.532447 
L 148.04064 252.306949 
L 148.12992 221.144954 
L 148.2192 239.566798 
L 148.30848 232.768507 
L 148.39776 249.468573 
L 148.57632 232.58256 
L 148.6656 225.832714 
L 148.75488 246.156345 
L 148.84416 239.329578 
L 149.02272 188.749673 
L 149.112 211.444557 
L 149.20128 113.222055 
L 149.29056 118.784895 
L 149.37984 231.037238 
L 149.46912 219.249252 
L 149.5584 239.876254 
L 149.73696 187.937239 
L 149.82624 211.365931 
L 149.91552 193.093739 
L 150.09408 251.406165 
L 150.27264 174.349738 
L 150.36192 190.880863 
L 150.4512 229.36196 
L 150.54048 205.422131 
L 150.62976 208.586109 
L 150.71904 225.605779 
L 150.80832 184.907009 
L 150.8976 235.236684 
L 151.07616 194.473552 
L 151.16544 285.408 
L 151.25472 231.647761 
L 151.43328 255.990672 
L 151.52256 250.809827 
L 151.61184 213.853978 
L 151.70112 251.519263 
L 151.7904 181.29941 
L 151.96896 248.443701 
L 152.14752 199.445723 
L 152.2368 192.054214 
L 152.41536 251.406374 
L 152.50464 197.399352 
L 152.59392 221.323579 
L 152.6832 202.029942 
L 152.77248 215.97263 
L 152.86176 206.436011 
L 153.1296 239.840076 
L 153.30816 225.858481 
L 153.39744 237.943261 
L 153.48672 175.063711 
L 153.66528 263.261434 
L 153.84384 212.813724 
L 153.93312 217.183318 
L 154.0224 184.01461 
L 154.20096 265.870174 
L 154.37952 213.600427 
L 154.4688 202.890307 
L 154.55808 203.121998 
L 154.64736 243.920116 
L 154.73664 170.424826 
L 154.82592 192.051199 
L 154.9152 250.745063 
L 155.00448 214.618226 
L 155.18304 237.308428 
L 155.27232 246.342856 
L 155.45088 232.549319 
L 155.54016 185.547511 
L 155.62944 248.755296 
L 155.71872 177.639604 
L 155.89728 225.02205 
L 155.98656 208.068793 
L 156.07584 213.522036 
L 156.16512 231.777616 
L 156.34368 219.218183 
L 156.43296 228.624297 
L 156.52224 204.202477 
L 156.61152 214.523912 
L 156.7008 194.110997 
L 156.79008 217.011727 
L 156.87936 141.962606 
L 157.05792 230.997009 
L 157.1472 230.726742 
L 157.23648 236.948054 
L 157.32576 252.032178 
L 157.50432 183.767039 
L 157.5936 185.856621 
L 157.68288 227.302476 
L 157.86144 176.170543 
L 158.04 245.432804 
L 158.12928 168.526178 
L 158.21856 230.022421 
L 158.30784 228.574925 
L 158.39712 211.271413 
L 158.4864 231.406068 
L 158.66496 207.727353 
L 158.75424 206.548777 
L 158.84352 228.909266 
L 158.9328 184.431252 
L 159.02208 193.695332 
L 159.11136 207.062284 
L 159.20064 157.01485 
L 159.28992 231.211848 
L 159.3792 164.303377 
L 159.73632 222.663592 
L 159.8256 186.670368 
L 159.91488 257.260446 
L 160.00416 219.161167 
L 160.09344 219.452308 
L 160.18272 238.732416 
L 160.272 225.073713 
L 160.53984 105.265675 
L 160.62912 201.210458 
L 160.7184 150.385986 
L 160.80768 166.427936 
L 160.89696 235.929163 
L 160.98624 126.158072 
L 161.25408 266.919684 
L 161.43264 215.994376 
L 161.52192 242.68539 
L 161.6112 236.852171 
L 161.70048 198.480503 
L 161.87904 244.582658 
L 161.96832 220.239804 
L 162.0576 237.362186 
L 162.23616 200.14784 
L 162.32544 259.547133 
L 162.41472 190.396171 
L 162.504 252.718809 
L 162.59328 238.194426 
L 162.68256 258.000493 
L 162.86112 112.589398 
L 163.03968 249.943298 
L 163.21824 215.907294 
L 163.30752 208.703622 
L 163.3968 224.94372 
L 163.48608 192.310093 
L 163.57536 244.218452 
L 163.66464 199.784967 
L 163.75392 258.216099 
L 163.8432 248.239947 
L 163.93248 155.581865 
L 164.02176 250.731077 
L 164.11104 233.610009 
L 164.20032 229.983342 
L 164.2896 257.970994 
L 164.37888 202.515528 
L 164.46816 246.739341 
L 164.736 205.552084 
L 164.82528 158.037391 
L 165.00384 200.478792 
L 165.09312 214.346693 
L 165.1824 211.951388 
L 165.36096 217.920422 
L 165.45024 183.291013 
L 165.6288 258.087929 
L 165.71808 246.007911 
L 165.80736 253.898624 
L 165.89664 146.368883 
L 165.98592 217.023222 
L 166.0752 189.160066 
L 166.16448 204.034695 
L 166.25376 197.933253 
L 166.34304 183.450673 
L 166.5216 253.095813 
L 166.61088 181.784331 
L 166.70016 239.11254 
L 166.78944 202.595787 
L 166.968 222.762368 
L 167.05728 230.721408 
L 167.23584 189.414446 
L 167.32512 237.875781 
L 167.4144 196.509017 
L 167.50368 247.619601 
L 167.59296 218.057794 
L 167.68224 238.054 
L 167.77152 180.402798 
L 167.8608 192.431399 
L 167.95008 233.018862 
L 168.03936 153.657754 
L 168.12864 218.587644 
L 168.21792 186.607635 
L 168.3072 196.05007 
L 168.48576 223.1656 
L 168.57504 223.30362 
L 168.7536 210.363078 
L 168.93216 228.313041 
L 169.02144 136.714965 
L 169.2 243.465606 
L 169.28928 184.512404 
L 169.46784 229.472729 
L 169.55712 237.635496 
L 169.73568 205.996714 
L 169.82496 201.819639 
L 169.91424 171.204832 
L 170.0928 244.435523 
L 170.18208 230.672347 
L 170.27136 211.845683 
L 170.36064 152.311343 
L 170.44992 242.567978 
L 170.62848 182.265398 
L 170.71776 187.700701 
L 170.89632 236.72071 
L 170.9856 238.785569 
L 171.07488 251.754585 
L 171.16416 219.475383 
L 171.25344 235.928586 
L 171.34272 231.78493 
L 171.432 128.918324 
L 171.61056 241.565586 
L 171.69984 219.166123 
L 171.78912 243.158583 
L 171.96768 185.856254 
L 172.05696 172.203955 
L 172.14624 266.971908 
L 172.3248 192.743453 
L 172.41408 236.328887 
L 172.50336 211.942628 
L 172.59264 245.224392 
L 172.7712 205.182633 
L 172.86048 220.991439 
L 172.94976 264.933999 
L 173.12832 214.272314 
L 173.2176 271.813706 
L 173.30688 211.924529 
L 173.39616 236.295506 
L 173.57472 183.894924 
L 173.75328 262.272643 
L 173.93184 219.550729 
L 174.1104 244.208625 
L 174.19968 197.885591 
L 174.28896 224.496143 
L 174.37824 177.350535 
L 174.5568 230.38515 
L 174.64608 244.570469 
L 174.73536 198.380455 
L 174.82464 250.160875 
L 175.09248 130.374896 
L 175.18176 248.442416 
L 175.36032 184.049829 
L 175.4496 229.672735 
L 175.53888 227.65445 
L 175.62816 230.098341 
L 175.71744 229.402599 
L 175.80672 187.89992 
L 176.07456 272.559535 
L 176.16384 71.622784 
L 176.25312 254.217484 
L 176.3424 113.600721 
L 176.43168 224.91955 
L 176.52096 211.485369 
L 176.69952 266.087451 
L 176.7888 182.714149 
L 176.87808 212.917154 
L 176.96736 191.695446 
L 177.05664 137.283023 
L 177.14592 231.007754 
L 177.2352 171.014065 
L 177.32448 242.087561 
L 177.6816 181.215947 
L 177.77088 252.944736 
L 177.94944 200.478103 
L 178.128 257.441092 
L 178.21728 172.313412 
L 178.30656 214.238573 
L 178.39584 199.975651 
L 178.48512 123.694619 
L 178.5744 158.344686 
L 178.66368 251.243312 
L 178.75296 188.187637 
L 178.84224 195.060771 
L 178.93152 217.616358 
L 179.0208 122.664568 
L 179.19936 245.111025 
L 179.37792 213.998007 
L 179.4672 152.598184 
L 179.55648 264.287432 
L 179.64576 164.703733 
L 179.82432 224.651893 
L 179.9136 204.23373 
L 180.00288 242.377116 
L 180.09216 181.558027 
L 180.18144 248.807882 
L 180.27072 224.443473 
L 180.36 137.286646 
L 180.62784 260.826336 
L 180.8064 221.796889 
L 180.89568 245.5397 
L 180.98496 168.233897 
L 181.07424 227.489847 
L 181.16352 209.284799 
L 181.2528 235.856166 
L 181.34208 202.095729 
L 181.43136 261.020127 
L 181.52064 237.334279 
L 181.60992 257.089068 
L 181.96704 175.433254 
L 182.1456 254.696761 
L 182.23488 200.670489 
L 182.32416 204.027917 
L 182.41344 270.949901 
L 182.68128 160.532741 
L 182.85984 218.37921 
L 182.94912 176.042573 
L 183.0384 214.680341 
L 183.21696 144.474729 
L 183.30624 208.877062 
L 183.39552 168.188602 
L 183.4848 214.138063 
L 183.57408 160.943504 
L 183.75264 216.609868 
L 183.84192 168.054183 
L 183.9312 224.004691 
L 184.02048 168.006083 
L 184.10976 258.313606 
L 184.28832 174.630137 
L 184.46688 245.544188 
L 184.55616 219.771585 
L 184.824 170.421767 
L 185.00256 253.017775 
L 185.09184 192.39056 
L 185.18112 236.656615 
L 185.2704 233.980053 
L 185.35968 181.646934 
L 185.44896 242.122522 
L 185.62752 157.585295 
L 185.89536 267.163819 
L 186.1632 217.196176 
L 186.25248 240.584679 
L 186.43104 166.142247 
L 186.52032 236.29148 
L 186.6096 210.53297 
L 186.69888 251.958604 
L 186.87744 176.689573 
L 186.96672 222.456391 
L 187.056 172.203277 
L 187.14528 182.496122 
L 187.23456 243.990696 
L 187.32384 240.463218 
L 187.5024 192.482706 
L 187.68096 247.684487 
L 187.77024 187.310076 
L 187.85952 248.108497 
L 187.9488 202.814913 
L 188.03808 229.816558 
L 188.12736 198.427119 
L 188.21664 225.217725 
L 188.3952 211.203659 
L 188.48448 215.944222 
L 188.57376 256.971029 
L 188.66304 236.666749 
L 188.75232 188.28558 
L 188.8416 225.365029 
L 188.93088 180.804569 
L 189.02016 245.01751 
L 189.10944 164.822112 
L 189.19872 219.5094 
L 189.288 194.879234 
L 189.37728 202.481549 
L 189.46656 225.010352 
L 189.55584 223.032521 
L 189.64512 153.925802 
L 189.7344 204.985848 
L 189.82368 187.584459 
L 190.00224 240.368519 
L 190.09152 204.027084 
L 190.35936 235.887218 
L 190.44864 207.692228 
L 190.53792 226.308454 
L 190.6272 184.688857 
L 190.80576 195.443217 
L 190.89504 167.39881 
L 190.98432 187.419903 
L 191.0736 175.993876 
L 191.16288 246.37814 
L 191.25216 216.098003 
L 191.34144 240.901978 
L 191.52 218.231649 
L 191.60928 196.369908 
L 191.69856 235.023846 
L 191.78784 204.555812 
L 191.87712 125.09483 
L 191.9664 225.298272 
L 192.05568 198.153069 
L 192.23424 242.893681 
L 192.32352 238.554841 
L 192.4128 209.745836 
L 192.50208 216.355067 
L 192.59136 234.948905 
L 192.68064 170.127355 
L 192.76992 230.810069 
L 192.8592 185.751784 
L 192.94848 239.171096 
L 193.03776 213.765076 
L 193.12704 228.007272 
L 193.21632 199.616173 
L 193.3056 254.097184 
L 193.39488 190.443067 
L 193.57344 247.339287 
L 193.66272 220.442602 
L 193.752 222.677366 
L 193.84128 253.191518 
L 193.93056 195.067867 
L 194.10912 239.136125 
L 194.1984 242.250389 
L 194.28768 153.163926 
L 194.46624 210.821467 
L 194.55552 213.842057 
L 194.73408 193.993717 
L 194.82336 174.822168 
L 195.00192 228.330963 
L 195.0912 205.549643 
L 195.18048 249.332038 
L 195.26976 169.375766 
L 195.35904 252.420637 
L 195.44832 205.875707 
L 195.5376 254.232961 
L 195.71616 189.085928 
L 195.80544 188.144746 
L 195.984 253.289164 
L 196.07328 228.991557 
L 196.16256 245.646231 
L 196.25184 209.678916 
L 196.34112 236.942916 
L 196.4304 210.502897 
L 196.51968 250.635906 
L 196.60896 231.492271 
L 196.69824 158.772132 
L 196.78752 246.871316 
L 196.8768 205.394975 
L 196.96608 209.812896 
L 197.05536 211.275276 
L 197.14464 227.980947 
L 197.23392 218.751529 
L 197.3232 188.198486 
L 197.50176 235.355699 
L 197.59104 211.335163 
L 197.68032 238.121986 
L 197.7696 188.308828 
L 197.85888 248.575544 
L 197.94816 240.293562 
L 198.03744 242.617063 
L 198.12672 269.069737 
L 198.216 188.430039 
L 198.30528 240.811086 
L 198.39456 230.596414 
L 198.48384 181.184991 
L 198.57312 220.361555 
L 198.6624 200.144381 
L 198.75168 149.937314 
L 198.93024 254.912128 
L 199.1088 150.72963 
L 199.19808 239.986829 
L 199.37664 87.948248 
L 199.46592 217.626766 
L 199.5552 189.349181 
L 199.64448 188.145539 
L 199.73376 247.260347 
L 199.82304 213.965834 
L 199.91232 220.338276 
L 200.0016 249.371631 
L 200.09088 159.408595 
L 200.26944 243.726665 
L 200.35872 181.294344 
L 200.448 200.58569 
L 200.53728 194.690535 
L 200.62656 240.664602 
L 200.71584 207.94258 
L 200.80512 84.270793 
L 200.8944 250.53699 
L 200.98368 206.833113 
L 201.07296 264.676844 
L 201.16224 215.921627 
L 201.25152 244.555789 
L 201.3408 195.823795 
L 201.43008 229.697281 
L 201.51936 212.868396 
L 201.60864 217.958659 
L 201.69792 157.704423 
L 201.87648 236.258033 
L 201.96576 244.011537 
L 202.05504 230.658516 
L 202.14432 239.356243 
L 202.2336 227.359491 
L 202.32288 145.978612 
L 202.41216 235.152282 
L 202.50144 139.724286 
L 202.59072 234.285743 
L 202.68 142.295468 
L 202.76928 236.62143 
L 202.85856 224.233785 
L 202.94784 236.561661 
L 203.03712 219.911423 
L 203.1264 229.216842 
L 203.21568 211.372688 
L 203.30496 162.196584 
L 203.39424 223.102097 
L 203.48352 220.893399 
L 203.5728 244.027598 
L 203.75136 143.615229 
L 203.84064 233.880946 
L 203.92992 206.909146 
L 204.0192 234.159627 
L 204.10848 192.377564 
L 204.19776 229.437765 
L 204.28704 164.727476 
L 204.4656 232.081107 
L 204.55488 226.150498 
L 204.64416 233.285362 
L 204.73344 232.634092 
L 204.912 228.009109 
L 205.00128 242.443629 
L 205.17984 165.638751 
L 205.26912 177.759861 
L 205.3584 174.815815 
L 205.53696 265.797462 
L 205.62624 204.673337 
L 205.71552 205.473272 
L 205.8048 225.300596 
L 205.89408 184.485478 
L 205.98336 208.023673 
L 206.07264 147.35271 
L 206.16192 243.439163 
L 206.2512 235.987759 
L 206.42976 152.272509 
L 206.60832 216.437782 
L 206.6976 237.229723 
L 206.78688 228.202139 
L 206.87616 189.56899 
L 207.05472 224.676977 
L 207.144 130.096938 
L 207.23328 228.984417 
L 207.32256 191.723504 
L 207.50112 237.603229 
L 207.5904 239.290131 
L 207.67968 215.031173 
L 207.76896 239.401652 
L 207.94752 213.109462 
L 208.0368 188.50711 
L 208.12608 234.735686 
L 208.21536 139.982157 
L 208.30464 213.97329 
L 208.39392 183.214317 
L 208.4832 218.123425 
L 208.57248 207.539163 
L 208.66176 228.341315 
L 208.75104 198.53441 
L 208.84032 244.32892 
L 209.01888 206.956243 
L 209.19744 231.860033 
L 209.28672 203.700726 
L 209.376 260.99671 
L 209.46528 238.958693 
L 209.55456 245.72001 
L 209.64384 158.873482 
L 209.8224 248.647524 
L 209.91168 269.459016 
L 210.00096 168.022618 
L 210.17952 237.257298 
L 210.2688 250.156151 
L 210.35808 243.825725 
L 210.44736 207.349379 
L 210.53664 215.871886 
L 210.62592 247.650439 
L 210.7152 238.163285 
L 210.80448 181.556678 
L 210.89376 230.587433 
L 210.98304 218.841161 
L 211.07232 197.962455 
L 211.1616 257.912269 
L 211.34016 182.842642 
L 211.42944 239.969766 
L 211.608 207.197717 
L 211.69728 233.527089 
L 211.78656 230.648813 
L 211.87584 241.31998 
L 211.96512 178.524711 
L 212.14368 237.219127 
L 212.32224 186.839523 
L 212.41152 183.958876 
L 212.67936 264.997949 
L 212.85792 206.510045 
L 213.03648 241.706194 
L 213.12576 205.001634 
L 213.21504 224.391872 
L 213.30432 184.460836 
L 213.3936 235.149366 
L 213.48288 227.569976 
L 213.57216 171.42063 
L 213.66144 224.527409 
L 213.75072 206.036695 
L 213.84 246.309567 
L 213.92928 197.025971 
L 214.10784 257.822806 
L 214.19712 203.344175 
L 214.2864 222.543646 
L 214.46496 173.715548 
L 214.55424 233.87969 
L 214.64352 183.678383 
L 214.91136 242.90682 
L 215.1792 160.690554 
L 215.26848 260.239209 
L 215.35776 185.818108 
L 215.44704 254.96509 
L 215.6256 172.912512 
L 215.80416 208.106246 
L 215.98272 192.605463 
L 216.072 71.053321 
L 216.16128 241.944404 
L 216.25056 230.385421 
L 216.33984 216.410363 
L 216.42912 236.091581 
L 216.60768 188.933078 
L 216.69696 223.456968 
L 216.9648 177.617994 
L 217.23264 229.750308 
L 217.32192 218.504734 
L 217.4112 252.003807 
L 217.50048 231.96634 
L 217.58976 181.515481 
L 217.67904 226.301139 
L 217.76832 218.449199 
L 217.8576 192.766226 
L 218.03616 269.651321 
L 218.304 103.227819 
L 218.48256 223.365677 
L 218.57184 247.018557 
L 218.66112 244.31436 
L 218.83968 173.727896 
L 218.92896 189.623486 
L 219.1968 240.739133 
L 219.28608 213.138978 
L 219.37536 220.414638 
L 219.55392 242.047562 
L 219.6432 235.438709 
L 219.73248 161.464249 
L 219.82176 217.621644 
L 219.91104 195.11134 
L 220.00032 207.832723 
L 220.0896 188.052734 
L 220.17888 251.938865 
L 220.35744 137.874436 
L 220.44672 153.694007 
L 220.536 229.178051 
L 220.62528 221.479091 
L 220.71456 235.320686 
L 220.89312 157.143797 
L 220.9824 232.380899 
L 221.07168 224.663428 
L 221.16096 221.838823 
L 221.25024 243.582622 
L 221.33952 229.19401 
L 221.4288 247.548707 
L 221.51808 199.341424 
L 221.60736 254.681525 
L 221.69664 207.798989 
L 221.78592 255.60566 
L 221.96448 176.498854 
L 222.14304 257.153774 
L 222.23232 211.348969 
L 222.3216 232.472079 
L 222.41088 160.835808 
L 222.50016 232.524397 
L 222.58944 225.31592 
L 222.67872 176.222993 
L 222.85728 231.895077 
L 222.94656 233.140037 
L 223.12512 179.527384 
L 223.2144 232.947649 
L 223.39296 157.09105 
L 223.57152 219.965481 
L 223.75008 190.140776 
L 223.92864 243.481904 
L 224.01792 173.606074 
L 224.19648 211.365411 
L 224.28576 210.587712 
L 224.46432 246.271197 
L 224.5536 204.220267 
L 224.64288 212.615586 
L 224.73216 226.185996 
L 224.82144 223.492153 
L 224.91072 201.887836 
L 225 231.01571 
L 225.08928 230.761872 
L 225.26784 147.293209 
L 225.35712 227.148491 
L 225.4464 192.39115 
L 225.53568 199.982321 
L 225.62496 183.665724 
L 225.71424 193.228006 
L 225.8928 233.830125 
L 225.98208 225.681331 
L 226.24992 167.93614 
L 226.3392 185.209439 
L 226.51776 266.448477 
L 226.69632 188.547464 
L 226.7856 196.407972 
L 226.87488 251.753603 
L 226.96416 200.859147 
L 227.05344 254.14296 
L 227.14272 175.173104 
L 227.232 244.970837 
L 227.32128 234.00193 
L 227.41056 201.453653 
L 227.49984 244.887883 
L 227.58912 232.66673 
L 227.76768 151.06994 
L 227.94624 223.896062 
L 228.03552 198.239656 
L 228.1248 205.976759 
L 228.21408 195.677467 
L 228.30336 208.874256 
L 228.39264 254.590076 
L 228.5712 189.163847 
L 228.66048 198.558938 
L 228.74976 223.62777 
L 228.83904 143.862366 
L 228.92832 249.841284 
L 229.0176 220.563809 
L 229.10688 258.641507 
L 229.28544 180.668128 
L 229.37472 227.28693 
L 229.55328 187.725578 
L 229.64256 241.242481 
L 229.73184 212.434742 
L 229.9104 237.809814 
L 229.99968 194.111578 
L 230.08896 221.625612 
L 230.17824 177.279406 
L 230.26752 245.794776 
L 230.3568 206.331793 
L 230.44608 208.403036 
L 230.53536 214.709514 
L 230.62464 145.868478 
L 230.71392 198.622131 
L 230.8032 167.732062 
L 230.98176 213.775304 
L 231.07104 234.367323 
L 231.16032 186.883417 
L 231.33888 230.343078 
L 231.42816 211.708193 
L 231.51744 259.477405 
L 231.696 185.759208 
L 231.87456 266.689898 
L 232.05312 165.389045 
L 232.1424 244.110046 
L 232.23168 242.88252 
L 232.32096 216.078255 
L 232.41024 227.184562 
L 232.49952 203.394341 
L 232.67808 267.421806 
L 232.76736 191.534488 
L 232.85664 197.60161 
L 232.94592 216.526626 
L 233.0352 80.316277 
L 233.12448 189.770793 
L 233.21376 159.310361 
L 233.30304 219.753449 
L 233.4816 161.853977 
L 233.57088 220.120585 
L 233.66016 199.785973 
L 233.74944 231.372671 
L 233.83872 165.873921 
L 234.01728 238.200598 
L 234.28512 187.290512 
L 234.3744 231.425525 
L 234.46368 198.550002 
L 234.55296 222.555156 
L 234.73152 173.913051 
L 234.8208 237.565146 
L 234.91008 137.792582 
L 235.08864 235.728708 
L 235.17792 232.209497 
L 235.2672 174.803792 
L 235.53504 231.79783 
L 235.62432 236.364295 
L 235.7136 171.677612 
L 235.80288 172.898242 
L 235.89216 233.638141 
L 235.98144 213.32832 
L 236.07072 166.684227 
L 236.16 226.454457 
L 236.24928 217.554543 
L 236.33856 153.373577 
L 236.6064 205.994726 
L 236.69568 198.999182 
L 236.78496 225.328971 
L 236.87424 211.427132 
L 236.96352 245.968126 
L 237.0528 203.519537 
L 237.14208 242.956469 
L 237.23136 236.589007 
L 237.32064 251.013536 
L 237.40992 185.986874 
L 237.4992 215.372482 
L 237.58848 157.441407 
L 237.67776 237.719289 
L 237.85632 178.290404 
L 237.9456 260.240611 
L 238.12416 175.408673 
L 238.21344 182.304483 
L 238.30272 146.276079 
L 238.392 268.989929 
L 238.48128 161.613269 
L 238.57056 251.86554 
L 238.65984 170.386588 
L 238.8384 215.197039 
L 238.92768 235.570359 
L 239.01696 211.10569 
L 239.10624 227.810423 
L 239.19552 203.28629 
L 239.2848 255.029161 
L 239.37408 250.984335 
L 239.46336 204.694529 
L 239.55264 220.734235 
L 239.64192 258.415333 
L 239.82048 238.625039 
L 239.99904 209.154582 
L 240.08832 134.587371 
L 240.1776 214.641934 
L 240.26688 186.795201 
L 240.44544 239.006248 
L 240.624 251.223511 
L 240.71328 199.511364 
L 240.80256 230.234511 
L 240.89184 221.566922 
L 240.98112 230.426156 
L 241.15968 223.373318 
L 241.24896 181.003307 
L 241.33824 235.130023 
L 241.42752 196.560178 
L 241.5168 210.941746 
L 241.60608 179.577594 
L 241.87392 239.788082 
L 241.9632 222.709728 
L 242.05248 144.399531 
L 242.23104 237.273895 
L 242.32032 237.755765 
L 242.49888 177.384642 
L 242.58816 249.130442 
L 242.76672 225.496122 
L 242.856 230.958807 
L 242.94528 95.944037 
L 243.12384 221.926386 
L 243.21312 251.964682 
L 243.3024 242.493347 
L 243.39168 250.879349 
L 243.48096 211.347884 
L 243.57024 231.696846 
L 243.65952 206.884459 
L 243.7488 211.728336 
L 243.83808 125.677394 
L 244.01664 233.974701 
L 244.10592 114.503259 
L 244.28448 196.713201 
L 244.37376 163.485946 
L 244.55232 255.262979 
L 244.6416 221.865726 
L 244.73088 250.624671 
L 244.82016 136.358916 
L 244.90944 194.635042 
L 244.99872 155.663042 
L 245.17728 248.646586 
L 245.26656 231.739688 
L 245.35584 173.824165 
L 245.44512 256.0607 
L 245.5344 224.066674 
L 245.62368 241.530351 
L 245.89152 149.908061 
L 245.9808 244.555507 
L 246.07008 224.432354 
L 246.15936 210.647778 
L 246.24864 252.285588 
L 246.33792 229.352806 
L 246.4272 235.368577 
L 246.51648 250.197791 
L 246.8736 147.185546 
L 247.05216 215.075586 
L 247.14144 197.727219 
L 247.32 241.833397 
L 247.40928 185.30692 
L 247.49856 237.726676 
L 247.67712 179.58478 
L 247.7664 243.97398 
L 247.94496 202.802492 
L 248.03424 227.031567 
L 248.12352 87.363395 
L 248.30208 234.294896 
L 248.39136 221.13697 
L 248.56992 157.777653 
L 248.74848 227.839721 
L 248.83776 227.36401 
L 248.92704 170.987119 
L 249.01632 270.088507 
L 249.1056 208.729224 
L 249.19488 220.911595 
L 249.28416 202.891572 
L 249.37344 257.886695 
L 249.552 124.447383 
L 249.64128 214.071963 
L 249.73056 201.032565 
L 249.81984 240.009724 
L 250.08768 155.577409 
L 250.17696 249.003415 
L 250.35552 180.609254 
L 250.4448 235.152867 
L 250.71264 166.982703 
L 250.8912 263.157332 
L 250.98048 262.364329 
L 251.15904 202.667878 
L 251.24832 233.240385 
L 251.3376 181.451775 
L 251.42688 242.965243 
L 251.51616 156.953675 
L 251.60544 172.679187 
L 251.69472 201.375624 
L 251.784 123.512633 
L 251.87328 233.162419 
L 251.96256 213.922415 
L 252.14112 254.95296 
L 252.2304 207.903124 
L 252.31968 233.222824 
L 252.40896 165.584741 
L 252.49824 218.387703 
L 252.58752 205.171557 
L 252.76608 149.096995 
L 252.85536 220.113607 
L 252.94464 198.969591 
L 253.1232 225.57899 
L 253.30176 192.393298 
L 253.39104 246.318023 
L 253.48032 203.649447 
L 253.5696 266.38766 
L 253.65888 136.672393 
L 253.83744 243.955931 
L 254.016 216.853521 
L 254.10528 260.728308 
L 254.19456 146.805917 
L 254.28384 241.277999 
L 254.37312 213.004957 
L 254.4624 217.578585 
L 254.64096 245.14783 
L 254.73024 253.60631 
L 254.9088 189.538694 
L 254.99808 265.701518 
L 255.17664 142.052078 
L 255.26592 248.356798 
L 255.44448 184.420268 
L 255.53376 188.239064 
L 255.62304 186.033346 
L 255.71232 238.073488 
L 255.8016 195.185975 
L 255.89088 196.990717 
L 255.98016 193.411467 
L 256.06944 242.276811 
L 256.15872 222.359649 
L 256.248 268.124429 
L 256.33728 208.302384 
L 256.42656 216.05636 
L 256.51584 204.859201 
L 256.60512 229.138975 
L 256.6944 115.798071 
L 256.78368 231.512741 
L 256.87296 221.270184 
L 256.96224 244.321612 
L 257.05152 179.663476 
L 257.31936 255.719587 
L 257.49792 193.35634 
L 257.5872 179.712633 
L 257.76576 248.898824 
L 257.85504 248.61425 
L 257.94432 232.36677 
L 258.0336 163.565356 
L 258.12288 220.861217 
L 258.21216 213.042742 
L 258.30144 181.18655 
L 258.39072 236.880475 
L 258.48 196.192708 
L 258.56928 197.673664 
L 258.74784 250.107954 
L 258.83712 199.848409 
L 259.01568 255.179691 
L 259.28352 168.390188 
L 259.3728 210.48713 
L 259.46208 178.757209 
L 259.55136 204.120485 
L 259.64064 195.527089 
L 259.72992 234.82809 
L 259.99776 185.758725 
L 260.08704 178.913102 
L 260.17632 246.017087 
L 260.35488 194.541048 
L 260.44416 242.122873 
L 260.53344 169.385955 
L 260.89056 239.366838 
L 260.97984 237.323221 
L 261.06912 223.93552 
L 261.1584 243.498293 
L 261.42624 114.220308 
L 261.51552 199.824028 
L 261.6048 141.490603 
L 261.69408 246.602157 
L 261.78336 242.202604 
L 261.96192 211.706173 
L 262.0512 242.530054 
L 262.14048 230.876952 
L 262.31904 151.037507 
L 262.40832 169.493837 
L 262.4976 233.389109 
L 262.58688 222.982859 
L 262.67616 232.688342 
L 262.85472 166.58732 
L 262.944 240.626418 
L 263.03328 189.56442 
L 263.12256 194.803148 
L 263.21184 197.38195 
L 263.30112 192.157065 
L 263.3904 245.966592 
L 263.47968 198.87054 
L 263.65824 252.496161 
L 263.74752 249.399951 
L 263.8368 207.383405 
L 263.92608 235.755615 
L 264.10464 153.987095 
L 264.19392 169.718303 
L 264.37248 249.700795 
L 264.46176 241.533077 
L 264.55104 191.845395 
L 264.64032 229.574931 
L 264.81888 174.779291 
L 264.90816 226.621903 
L 264.99744 199.997584 
L 265.176 211.680795 
L 265.26528 212.027667 
L 265.35456 272.742626 
L 265.53312 229.047186 
L 265.80096 190.208661 
L 265.89024 200.23557 
L 265.97952 224.428859 
L 266.0688 189.603786 
L 266.24736 257.873405 
L 266.33664 176.743435 
L 266.42592 223.337233 
L 266.5152 172.47808 
L 266.60448 234.425461 
L 266.69376 194.0363 
L 266.78304 199.826607 
L 266.9616 247.695322 
L 267.05088 245.195086 
L 267.22944 200.99132 
L 267.408 251.012558 
L 267.58656 200.45974 
L 267.67584 243.266921 
L 267.8544 155.094332 
L 268.03296 246.284397 
L 268.3008 147.794902 
L 268.47936 254.583089 
L 268.56864 161.40061 
L 268.7472 240.887916 
L 268.83648 230.208959 
L 268.92576 242.844109 
L 269.10432 166.248439 
L 269.1936 262.257329 
L 269.37216 199.605974 
L 269.46144 234.136426 
L 269.55072 174.854935 
L 269.64 223.050756 
L 269.81856 160.395783 
L 269.90784 219.13478 
L 269.99712 195.254158 
L 270.0864 197.764205 
L 270.17568 186.747154 
L 270.26496 233.929887 
L 270.35424 174.296561 
L 270.44352 242.991737 
L 270.5328 222.289562 
L 270.62208 92.657644 
L 270.71136 207.459802 
L 270.80064 178.851529 
L 270.88992 248.135824 
L 270.9792 230.733764 
L 271.06848 238.957605 
L 271.15776 169.122422 
L 271.24704 226.060856 
L 271.33632 207.025637 
L 271.4256 215.719136 
L 271.51488 211.091425 
L 271.60416 233.906518 
L 271.69344 228.570918 
L 271.872 150.277554 
L 271.96128 252.001349 
L 272.05056 209.930625 
L 272.13984 231.654427 
L 272.3184 137.12799 
L 272.49696 197.872912 
L 272.58624 194.51739 
L 272.67552 239.993835 
L 272.7648 205.587184 
L 272.85408 237.939162 
L 272.94336 200.77207 
L 273.03264 233.962647 
L 273.12192 224.935236 
L 273.2112 203.546986 
L 273.30048 227.267481 
L 273.38976 176.180025 
L 273.47904 204.254986 
L 273.56832 183.927898 
L 273.6576 245.340559 
L 273.74688 143.807409 
L 273.92544 231.380532 
L 274.01472 205.460609 
L 274.104 209.81123 
L 274.19328 211.761863 
L 274.28256 226.871627 
L 274.37184 188.609278 
L 274.5504 237.862469 
L 274.63968 221.576872 
L 274.72896 166.599693 
L 274.81824 221.748771 
L 274.90752 193.436248 
L 275.08608 232.348075 
L 275.17536 172.48267 
L 275.35392 261.502657 
L 275.4432 135.174766 
L 275.62176 227.77743 
L 275.80032 202.408597 
L 275.8896 232.396852 
L 275.97888 213.716119 
L 276.06816 244.084855 
L 276.15744 173.046381 
L 276.336 240.858952 
L 276.42528 201.856676 
L 276.60384 233.696209 
L 276.69312 167.803115 
L 276.87168 250.32023 
L 276.96096 179.902543 
L 277.13952 222.966991 
L 277.2288 213.366272 
L 277.31808 160.625467 
L 277.49664 203.78959 
L 277.58592 175.634509 
L 277.6752 183.315584 
L 277.76448 240.914257 
L 277.94304 179.007037 
L 278.03232 224.92595 
L 278.21088 188.613957 
L 278.568 255.431567 
L 278.83584 209.190084 
L 278.92512 208.261153 
L 279.0144 180.700908 
L 279.10368 241.940567 
L 279.19296 234.714216 
L 279.28224 236.314812 
L 279.37152 253.52825 
L 279.4608 214.891087 
L 279.55008 241.190594 
L 279.63936 158.792759 
L 279.81792 251.672841 
L 279.9072 213.256952 
L 280.08576 247.044303 
L 280.17504 182.737875 
L 280.3536 232.203936 
L 280.62144 199.435933 
L 280.71072 244.600702 
L 280.8 198.766897 
L 280.88928 242.618629 
L 280.97856 238.972186 
L 281.06784 170.73784 
L 281.15712 215.846942 
L 281.2464 138.183811 
L 281.33568 225.68035 
L 281.42496 221.812742 
L 281.60352 234.07006 
L 281.6928 216.066224 
L 281.78208 169.71619 
L 281.96064 239.040237 
L 282.31776 140.825981 
L 282.40704 244.332988 
L 282.5856 148.524618 
L 282.76416 254.999466 
L 282.85344 186.755023 
L 282.94272 208.897488 
L 283.032 198.574408 
L 283.12128 125.985232 
L 283.21056 197.109923 
L 283.29984 188.013022 
L 283.38912 186.244061 
L 283.4784 206.892148 
L 283.56768 151.524777 
L 283.65696 238.194227 
L 283.74624 201.719374 
L 283.83552 206.965871 
L 283.9248 226.867895 
L 284.01408 183.100381 
L 284.10336 221.28333 
L 284.19264 220.490032 
L 284.28192 198.615968 
L 284.3712 254.609709 
L 284.46048 147.855816 
L 284.54976 246.127447 
L 284.63904 188.552558 
L 284.72832 260.122443 
L 284.8176 231.307172 
L 284.99616 260.67277 
L 285.17472 208.806586 
L 285.264 227.606748 
L 285.35328 248.999113 
L 285.44256 132.76192 
L 285.53184 224.48316 
L 285.62112 211.085475 
L 285.7104 220.268141 
L 285.79968 213.833037 
L 285.97824 254.288903 
L 286.1568 134.186835 
L 286.24608 245.711345 
L 286.33536 177.764619 
L 286.42464 241.219689 
L 286.51392 232.162989 
L 286.6032 197.311066 
L 286.69248 249.853178 
L 286.78176 201.94156 
L 286.96032 236.338936 
L 287.0496 225.897594 
L 287.13888 229.398779 
L 287.31744 162.555673 
L 287.58528 261.192967 
L 287.67456 220.672012 
L 287.76384 251.445176 
L 287.9424 187.488792 
L 288.03168 202.095235 
L 288.12096 237.379769 
L 288.29952 183.076935 
L 288.3888 182.850367 
L 288.56736 243.082867 
L 288.74592 72.657295 
L 288.8352 216.290273 
L 288.92448 215.763287 
L 289.01376 255.910567 
L 289.10304 135.227152 
L 289.19232 239.514326 
L 289.2816 183.81312 
L 289.37088 197.0361 
L 289.54944 246.961545 
L 289.63872 164.005745 
L 289.728 242.645079 
L 289.81728 233.671125 
L 289.90656 248.102879 
L 289.99584 235.844562 
L 290.08512 262.298538 
L 290.26368 198.862513 
L 290.44224 229.897852 
L 290.53152 225.706018 
L 290.6208 165.215624 
L 290.71008 227.184543 
L 290.79936 197.465143 
L 290.88864 230.389292 
L 290.97792 159.983388 
L 291.0672 221.694984 
L 291.15648 119.332931 
L 291.33504 215.315875 
L 291.5136 242.49601 
L 291.69216 211.292853 
L 291.78144 239.488518 
L 291.87072 226.347548 
L 291.96 240.844073 
L 292.04928 196.17338 
L 292.31712 233.682564 
L 292.4064 193.678964 
L 292.49568 226.352038 
L 292.58496 216.496853 
L 292.67424 227.157627 
L 292.76352 196.430495 
L 292.8528 240.112007 
L 293.12064 209.675565 
L 293.20992 254.646129 
L 293.38848 210.906537 
L 293.47776 259.349556 
L 293.56704 242.998172 
L 293.65632 196.267485 
L 293.7456 227.967643 
L 293.83488 158.423282 
L 293.92416 198.44046 
L 294.01344 185.648523 
L 294.10272 231.930229 
L 294.192 203.284832 
L 294.45984 248.403957 
L 294.54912 244.168565 
L 294.6384 227.121084 
L 294.72768 227.440683 
L 294.81696 228.049548 
L 295.0848 130.783968 
L 295.17408 155.768306 
L 295.35264 259.025488 
L 295.5312 127.452164 
L 295.70976 252.2319 
L 295.79904 96.029951 
L 295.9776 218.145365 
L 296.06688 236.55112 
L 296.15616 215.47101 
L 296.24544 163.791747 
L 296.33472 269.202392 
L 296.424 246.297192 
L 296.51328 220.769631 
L 296.60256 266.352621 
L 296.69184 223.353825 
L 296.78112 249.546946 
L 297.04896 191.707167 
L 297.13824 270.194389 
L 297.22752 214.261743 
L 297.3168 219.72505 
L 297.40608 207.687808 
L 297.49536 211.055873 
L 297.67392 202.098901 
L 297.7632 265.34268 
L 297.85248 256.410976 
L 298.03104 203.928458 
L 298.12032 226.557537 
L 298.2096 164.067488 
L 298.29888 240.343019 
L 298.38816 180.46951 
L 298.47744 222.875842 
L 298.56672 195.647218 
L 298.92384 264.21483 
L 299.01312 200.172337 
L 299.1024 253.288655 
L 299.19168 246.62794 
L 299.28096 160.32147 
L 299.37024 213.193395 
L 299.45952 197.141913 
L 299.5488 217.450727 
L 299.63808 197.769586 
L 299.81664 212.957408 
L 299.90592 209.457788 
L 300.08448 186.281713 
L 300.26304 235.871216 
L 300.35232 235.83017 
L 300.4416 236.062368 
L 300.62016 143.192431 
L 300.70944 247.657378 
L 300.79872 124.872055 
L 300.97728 224.693835 
L 301.06656 218.851734 
L 301.15584 223.34449 
L 301.24512 234.793917 
L 301.3344 216.605428 
L 301.42368 253.795127 
L 301.51296 137.250142 
L 301.69152 218.715187 
L 301.7808 213.857233 
L 301.87008 218.03973 
L 301.95936 242.632681 
L 302.2272 201.791002 
L 302.31648 236.41703 
L 302.49504 134.758897 
L 302.58432 241.660472 
L 302.76288 182.246257 
L 302.85216 170.520502 
L 302.94144 183.00119 
L 303.03072 160.548122 
L 303.12 206.767706 
L 303.20928 191.966119 
L 303.29856 127.692452 
L 303.38784 221.521776 
L 303.47712 134.070539 
L 303.5664 250.463346 
L 303.65568 158.645132 
L 303.74496 267.375417 
L 303.83424 149.351217 
L 304.0128 182.676881 
L 304.10208 181.726326 
L 304.19136 210.633829 
L 304.28064 180.333799 
L 304.36992 209.789845 
L 304.4592 189.922828 
L 304.54848 239.780159 
L 304.63776 228.793973 
L 304.72704 228.731676 
L 304.81632 180.651028 
L 304.9056 198.770264 
L 304.99488 247.305612 
L 305.08416 226.271143 
L 305.17344 237.760681 
L 305.352 201.783341 
L 305.44128 209.97319 
L 305.53056 266.252255 
L 305.70912 201.310814 
L 305.88768 244.537565 
L 305.97696 212.862981 
L 306.06624 233.228231 
L 306.15552 230.47321 
L 306.2448 195.052094 
L 306.33408 264.576387 
L 306.60192 151.540832 
L 306.6912 233.117188 
L 306.86976 199.573038 
L 306.95904 231.819662 
L 307.04832 167.583487 
L 307.22688 227.129033 
L 307.31616 168.038239 
L 307.40544 235.972927 
L 307.49472 207.122805 
L 307.584 240.336497 
L 307.76256 131.07407 
L 307.85184 243.735041 
L 307.94112 221.843929 
L 308.11968 237.476285 
L 308.29824 267.35077 
L 308.56608 194.738702 
L 308.74464 234.717825 
L 308.83392 165.981352 
L 309.01248 224.857083 
L 309.10176 224.085176 
L 309.19104 214.931194 
L 309.28032 185.549249 
L 309.45888 232.608814 
L 309.54816 241.231204 
L 309.63744 187.474595 
L 309.72672 246.024888 
L 309.816 185.19053 
L 309.90528 226.287491 
L 309.99456 213.150019 
L 310.08384 224.567918 
L 310.17312 219.378119 
L 310.2624 230.957714 
L 310.35168 230.932941 
L 310.44096 231.569762 
L 310.61952 244.303656 
L 310.7088 171.456669 
L 310.88736 247.565038 
L 311.06592 159.793088 
L 311.1552 244.630614 
L 311.24448 229.299672 
L 311.42304 224.343656 
L 311.6016 199.196605 
L 311.69088 219.020742 
L 311.78016 180.706294 
L 311.86944 242.117161 
L 311.95872 166.551785 
L 312.13728 218.672631 
L 312.22656 183.105059 
L 312.31584 219.983569 
L 312.40512 218.110897 
L 312.4944 247.734158 
L 312.67296 184.13787 
L 312.76224 252.98256 
L 312.9408 69.008077 
L 313.11936 244.090815 
L 313.20864 227.319273 
L 313.29792 176.11766 
L 313.56576 255.533553 
L 313.65504 239.201217 
L 313.74432 202.428792 
L 313.8336 241.832262 
L 313.92288 132.532431 
L 314.01216 240.277296 
L 314.10144 226.612842 
L 314.19072 219.366352 
L 314.28 173.229002 
L 314.45856 210.213806 
L 314.54784 200.167844 
L 314.63712 168.328965 
L 314.81568 217.284174 
L 314.90496 194.15775 
L 314.99424 217.985221 
L 315.08352 189.280735 
L 315.1728 240.201981 
L 315.26208 187.882581 
L 315.35136 251.944825 
L 315.44064 200.365425 
L 315.52992 209.648326 
L 315.6192 166.967438 
L 315.70848 233.865892 
L 315.88704 181.038398 
L 315.97632 232.498786 
L 316.0656 217.15093 
L 316.15488 165.349124 
L 316.24416 206.04907 
L 316.33344 192.635417 
L 316.512 255.500456 
L 316.69056 206.581256 
L 316.77984 192.604282 
L 316.9584 273.198172 
L 317.13696 213.417875 
L 317.22624 221.098564 
L 317.31552 254.828221 
L 317.4048 200.292776 
L 317.49408 213.917063 
L 317.58336 141.294532 
L 317.76192 254.983833 
L 317.94048 177.922862 
L 318.02976 220.722913 
L 318.11904 218.22576 
L 318.20832 176.628315 
L 318.38688 249.609296 
L 318.47616 241.848321 
L 318.56544 218.108808 
L 318.744 234.616186 
L 318.83328 215.159968 
L 318.92256 76.490007 
L 319.10112 178.754379 
L 319.1904 223.995306 
L 319.27968 218.023344 
L 319.36896 206.00425 
L 319.45824 256.145705 
L 319.54752 243.67812 
L 319.6368 147.389792 
L 319.81536 247.303292 
L 319.90464 234.483714 
L 319.99392 194.428921 
L 320.0832 235.341242 
L 320.17248 137.227794 
L 320.26176 226.750229 
L 320.35104 169.87171 
L 320.44032 229.779436 
L 320.5296 227.602127 
L 320.61888 224.161653 
L 320.70816 215.816658 
L 320.79744 249.413322 
L 320.88672 247.44889 
L 320.976 175.908238 
L 321.15456 241.617545 
L 321.24384 205.209311 
L 321.33312 220.095101 
L 321.4224 182.637182 
L 321.51168 228.414927 
L 321.60096 203.861378 
L 321.69024 260.217003 
L 321.8688 178.601178 
L 321.95808 234.404218 
L 322.04736 233.39655 
L 322.22592 196.752585 
L 322.3152 238.595154 
L 322.40448 218.093954 
L 322.49376 248.724524 
L 322.58304 200.144661 
L 322.67232 234.70087 
L 322.94016 180.420118 
L 323.02944 164.210212 
L 323.11872 229.080044 
L 323.208 215.939414 
L 323.29728 141.198722 
L 323.38656 235.312726 
L 323.47584 212.453701 
L 323.56512 188.670953 
L 323.74368 242.017237 
L 323.83296 211.796463 
L 323.92224 257.67676 
L 324.1008 201.763003 
L 324.36864 246.935426 
L 324.45792 233.488335 
L 324.5472 173.879658 
L 324.63648 204.999322 
L 324.81504 186.685529 
L 324.90432 266.170659 
L 324.9936 148.822255 
L 325.17216 223.420736 
L 325.26144 216.128194 
L 325.35072 221.560313 
L 325.44 250.098785 
L 325.52928 246.093616 
L 325.61856 243.055707 
L 325.70784 225.781003 
L 325.79712 269.304522 
L 325.8864 207.49871 
L 325.97568 225.342202 
L 326.06496 191.952929 
L 326.15424 248.091306 
L 326.24352 208.654523 
L 326.3328 232.395286 
L 326.42208 181.703702 
L 326.51136 228.527723 
L 326.60064 227.164272 
L 326.68992 178.133364 
L 326.86848 244.28355 
L 326.95776 165.923677 
L 327.04704 245.463931 
L 327.31488 145.635114 
L 327.40416 235.229883 
L 327.58272 156.219673 
L 327.76128 228.377044 
L 327.85056 147.774042 
L 327.93984 240.405415 
L 328.02912 177.660621 
L 328.1184 255.131222 
L 328.20768 249.351891 
L 328.38624 183.153596 
L 328.47552 269.502739 
L 328.65408 207.448039 
L 328.74336 241.396131 
L 328.83264 185.9606 
L 328.92192 202.475275 
L 329.0112 202.021895 
L 329.10048 170.997123 
L 329.18976 236.608146 
L 329.36832 214.510006 
L 329.54688 220.185948 
L 329.63616 251.794429 
L 329.72544 245.327051 
L 329.904 234.796899 
L 329.99328 192.649619 
L 330.08256 225.435014 
L 330.17184 213.253137 
L 330.26112 158.266113 
L 330.3504 217.480832 
L 330.43968 180.092231 
L 330.52896 190.463721 
L 330.70752 246.993262 
L 330.88608 178.935581 
L 330.97536 222.95061 
L 331.06464 214.933115 
L 331.15392 181.841137 
L 331.2432 194.445396 
L 331.33248 176.222422 
L 331.42176 246.800666 
L 331.51104 186.86577 
L 331.60032 250.042542 
L 331.6896 247.391605 
L 331.77888 215.472285 
L 331.86816 242.426049 
L 332.04672 183.639052 
L 332.136 235.936796 
L 332.22528 182.480333 
L 332.40384 207.048206 
L 332.49312 197.214368 
L 332.67168 233.222177 
L 332.76096 254.89018 
L 332.85024 228.34174 
L 332.93952 141.344588 
L 333.0288 238.773966 
L 333.20736 165.560737 
L 333.29664 211.850277 
L 333.38592 193.238573 
L 333.4752 232.076775 
L 333.56448 215.771497 
L 333.74304 170.720129 
L 333.9216 255.392622 
L 334.10016 179.726773 
L 334.18944 215.059092 
L 334.368 176.930562 
L 334.54656 246.459776 
L 334.63584 208.365417 
L 334.8144 244.880381 
L 334.99296 154.875293 
L 335.17152 160.205082 
L 335.2608 195.455778 
L 335.35008 184.454748 
L 335.7072 246.265409 
L 335.97504 214.826748 
L 336.24288 239.571712 
L 336.33216 222.734416 
L 336.42144 239.192446 
L 336.51072 183.699607 
L 336.6 192.82752 
L 336.68928 163.784962 
L 336.86784 227.94163 
L 336.95712 237.696488 
L 337.0464 213.156975 
L 337.13568 243.617319 
L 337.22496 210.137225 
L 337.31424 234.414528 
L 337.40352 231.324829 
L 337.4928 134.352897 
L 337.58208 269.061644 
L 337.67136 229.943943 
L 337.76064 252.675051 
L 337.9392 194.059233 
L 338.11776 241.567515 
L 338.20704 194.589781 
L 338.3856 222.733918 
L 338.56416 171.805794 
L 338.65344 154.044916 
L 338.832 255.917432 
L 338.92128 218.234885 
L 339.01056 257.250891 
L 339.2784 205.973956 
L 339.36768 254.963966 
L 339.45696 250.087629 
L 339.54624 253.652537 
L 339.63552 225.462837 
L 339.7248 225.676849 
L 339.90336 251.086681 
L 339.99264 259.688656 
L 340.08192 171.575172 
L 340.26048 209.767837 
L 340.34976 219.878696 
L 340.43904 144.083673 
L 340.6176 249.603348 
L 340.70688 254.726216 
L 340.79616 191.040135 
L 340.88544 269.218851 
L 340.97472 219.105537 
L 341.064 233.870345 
L 341.24256 163.180317 
L 341.42112 225.858346 
L 341.5104 204.312056 
L 341.77824 236.068192 
L 341.9568 219.201199 
L 342.13536 255.378545 
L 342.22464 215.286214 
L 342.31392 242.670659 
L 342.4032 213.501933 
L 342.49248 220.816626 
L 342.58176 251.365626 
L 342.67104 177.898375 
L 342.76032 242.168216 
L 342.8496 200.011261 
L 342.93888 232.412593 
L 343.11744 163.676038 
L 343.20672 237.286449 
L 343.296 216.223715 
L 343.47456 246.340782 
L 343.7424 146.718297 
L 343.92096 229.086185 
L 344.01024 200.43609 
L 344.1888 263.057207 
L 344.27808 119.931026 
L 344.36736 201.765208 
L 344.45664 184.991387 
L 344.54592 232.691464 
L 344.6352 227.602242 
L 344.72448 223.751399 
L 344.81376 232.499062 
L 345.17088 194.37048 
L 345.26016 250.156406 
L 345.43872 185.295036 
L 345.61728 240.162815 
L 345.70656 189.112673 
L 345.79584 216.684156 
L 345.88512 195.816442 
L 345.9744 241.73941 
L 346.06368 234.597112 
L 346.15296 238.10882 
L 346.24224 249.439847 
L 346.4208 209.92372 
L 346.51008 225.530841 
L 346.68864 180.168286 
L 346.77792 256.224442 
L 346.8672 247.882 
L 347.04576 203.401333 
L 347.13504 227.89605 
L 347.22432 227.856831 
L 347.40288 221.893765 
L 347.49216 212.414793 
L 347.67072 255.718786 
L 347.76 197.185917 
L 347.84928 229.009767 
L 347.93856 213.17844 
L 348.02784 248.267126 
L 348.2064 216.825056 
L 348.29568 257.802865 
L 348.38496 214.317465 
L 348.56352 263.487962 
L 348.74208 227.749376 
L 348.83136 227.439388 
L 348.92064 215.798258 
L 349.00992 249.647317 
L 349.0992 178.57784 
L 349.45632 264.001112 
L 349.5456 206.00339 
L 349.63488 208.130185 
L 349.72416 250.506911 
L 349.90272 152.230303 
L 349.992 223.781608 
L 350.08128 198.889456 
L 350.17056 224.366813 
L 350.25984 216.133604 
L 350.52768 258.950889 
L 350.61696 140.350078 
L 350.70624 251.308207 
L 350.79552 245.445111 
L 350.97408 208.100175 
L 351.06336 216.21216 
L 351.15264 223.392163 
L 351.24192 211.649335 
L 351.3312 223.114686 
L 351.42048 250.96202 
L 351.50976 224.552609 
L 351.59904 245.997365 
L 351.68832 199.286566 
L 351.7776 209.143315 
L 351.86688 237.268855 
L 351.95616 159.670824 
L 352.04544 160.423084 
L 352.13472 235.338437 
L 352.224 203.119756 
L 352.31328 204.918357 
L 352.40256 193.136026 
L 352.49184 235.829654 
L 352.75968 198.63719 
L 352.84896 271.231987 
L 352.93824 263.979565 
L 353.02752 254.644734 
L 353.1168 230.990088 
L 353.20608 253.548042 
L 353.29536 175.05602 
L 353.38464 227.861125 
L 353.47392 220.617966 
L 353.5632 163.987088 
L 353.92032 256.488911 
L 354.0096 239.534349 
L 354.09888 168.856619 
L 354.36672 240.16794 
L 354.54528 195.019978 
L 354.63456 224.321368 
L 354.72384 192.665329 
L 354.81312 242.005897 
L 354.99168 143.61345 
L 355.17024 220.204016 
L 355.3488 214.990709 
L 355.43808 189.673679 
L 355.52736 252.08213 
L 355.61664 132.752205 
L 355.70592 203.37876 
L 355.7952 192.718321 
L 355.88448 200.23479 
L 355.97376 233.783819 
L 356.06304 163.947117 
L 356.33088 215.46767 
L 356.42016 213.811792 
L 356.59872 257.191296 
L 356.688 204.777458 
L 356.77728 212.61347 
L 356.95584 180.528498 
L 357.04512 242.138196 
L 357.1344 178.840593 
L 357.40224 248.48878 
L 357.49152 200.488276 
L 357.5808 240.640624 
L 357.67008 183.092366 
L 357.75936 201.827803 
L 357.84864 249.53507 
L 357.93792 210.006612 
L 358.0272 266.278841 
L 358.20576 211.004773 
L 358.29504 252.029079 
L 358.38432 205.138625 
L 358.65216 257.599921 
L 358.74144 197.573484 
L 358.83072 247.799889 
L 359.00928 149.276314 
L 359.09856 183.150232 
L 359.18784 229.688451 
L 359.27712 218.440722 
L 359.3664 198.319819 
L 359.45568 206.291289 
L 359.54496 154.538278 
L 359.63424 166.016751 
L 359.8128 268.820117 
L 359.90208 229.15652 
L 359.99136 237.235648 
L 360.08064 199.332929 
L 360.16992 215.03249 
L 360.2592 200.303714 
L 360.34848 215.625862 
L 360.43776 196.377006 
L 360.61632 232.643001 
L 360.7056 189.310891 
L 360.79488 221.374868 
L 360.97344 164.019443 
L 361.06272 249.104315 
L 361.24128 172.578036 
L 361.33056 163.551099 
L 361.41984 249.70894 
L 361.50912 239.255693 
L 361.5984 171.698215 
L 361.68768 194.132348 
L 361.77696 154.70461 
L 362.0448 249.410252 
L 362.13408 247.583785 
L 362.40192 156.923211 
L 362.58048 233.568789 
L 362.66976 238.294593 
L 362.75904 188.451809 
L 362.9376 207.923363 
L 363.02688 218.055377 
L 363.11616 185.570711 
L 363.20544 224.307558 
L 363.29472 217.891935 
L 363.384 181.996522 
L 363.47328 234.043505 
L 363.65184 187.110783 
L 363.8304 178.974288 
L 363.91968 234.639323 
L 364.00896 198.763941 
L 364.18752 252.946694 
L 364.2768 234.733689 
L 364.36608 235.470509 
L 364.45536 230.955832 
L 364.54464 218.224484 
L 364.7232 238.283053 
L 364.81248 192.606371 
L 365.08032 249.491779 
L 365.1696 108.078546 
L 365.25888 239.485755 
L 365.43744 189.697614 
L 365.52672 220.91264 
L 365.616 205.312508 
L 365.70528 157.189578 
L 365.79456 204.723875 
L 365.88384 199.433224 
L 365.97312 174.191035 
L 366.15168 201.167973 
L 366.33024 231.187433 
L 366.5088 143.039922 
L 366.77664 267.269918 
L 366.86592 239.596146 
L 366.9552 268.472759 
L 367.04448 170.003874 
L 367.13376 229.289439 
L 367.22304 210.556072 
L 367.31232 226.48452 
L 367.4016 208.803388 
L 367.49088 158.169108 
L 367.58016 237.046963 
L 367.66944 224.070963 
L 367.75872 203.339531 
L 367.848 244.846486 
L 368.02656 221.239297 
L 368.11584 220.3804 
L 368.20512 223.729092 
L 368.2944 212.258922 
L 368.38368 216.943939 
L 368.47296 183.447384 
L 368.56224 205.980219 
L 368.65152 146.92565 
L 368.83008 218.75145 
L 368.91936 221.123821 
L 369.00864 200.700289 
L 369.09792 253.021795 
L 369.36576 217.677588 
L 369.6336 252.385115 
L 369.81216 217.823884 
L 369.90144 209.876429 
L 370.08 258.087816 
L 370.25856 185.681601 
L 370.34784 227.734474 
L 370.43712 224.080549 
L 370.61568 182.282329 
L 370.79424 257.992064 
L 370.9728 174.205435 
L 371.06208 213.654578 
L 371.15136 120.076674 
L 371.24064 223.905258 
L 371.32992 204.495671 
L 371.4192 254.564675 
L 371.50848 233.153536 
L 371.59776 242.406395 
L 371.77632 174.95986 
L 371.95488 251.622471 
L 372.13344 204.580431 
L 372.22272 182.764958 
L 372.312 191.810032 
L 372.40128 243.802373 
L 372.49056 232.900494 
L 372.57984 237.330668 
L 372.66912 175.981638 
L 372.7584 186.147315 
L 372.84768 203.487834 
L 372.93696 178.029718 
L 373.02624 182.836367 
L 373.2048 246.864959 
L 373.29408 231.059844 
L 373.38336 234.581343 
L 373.47264 221.107955 
L 373.56192 222.183132 
L 373.6512 217.620964 
L 373.74048 255.593674 
L 373.82976 204.545913 
L 373.91904 213.477548 
L 374.0976 197.48337 
L 374.18688 165.997372 
L 374.36544 231.979394 
L 374.45472 213.932527 
L 374.544 223.36138 
L 374.63328 221.815373 
L 374.81184 177.515958 
L 374.90112 94.965174 
L 374.9904 251.486837 
L 375.07968 222.55695 
L 375.16896 226.320536 
L 375.25824 188.662932 
L 375.34752 208.637652 
L 375.4368 199.322316 
L 375.52608 225.966907 
L 375.61536 206.410434 
L 375.70464 227.662137 
L 375.79392 191.966372 
L 375.8832 196.024538 
L 375.97248 251.055265 
L 376.06176 209.294944 
L 376.15104 216.57431 
L 376.3296 258.623258 
L 376.41888 199.634369 
L 376.50816 219.85383 
L 376.59744 209.675879 
L 376.68672 222.792234 
L 376.776 167.918375 
L 376.86528 247.105888 
L 376.95456 230.730485 
L 377.04384 236.623638 
L 377.13312 230.968924 
L 377.2224 165.197611 
L 377.31168 200.190617 
L 377.40096 185.443382 
L 377.57952 220.335563 
L 377.6688 238.544707 
L 377.75808 165.546266 
L 377.84736 215.725325 
L 377.93664 178.452148 
L 378.02592 210.525401 
L 378.1152 141.222517 
L 378.20448 232.986485 
L 378.29376 223.496313 
L 378.38304 198.485048 
L 378.47232 236.66041 
L 378.5616 229.78522 
L 378.74016 239.309615 
L 378.91872 172.785242 
L 379.008 187.347775 
L 379.09728 169.863021 
L 379.18656 235.559547 
L 379.27584 172.050254 
L 379.36512 260.129819 
L 379.54368 149.982157 
L 379.63296 235.354196 
L 379.72224 208.736062 
L 379.81152 243.887096 
L 379.9008 149.867801 
L 379.99008 241.388204 
L 380.07936 187.021052 
L 380.25792 234.198602 
L 380.3472 171.526327 
L 380.43648 212.270089 
L 380.52576 189.207189 
L 380.61504 228.762083 
L 380.70432 180.588109 
L 380.7936 233.225215 
L 380.97216 189.730336 
L 381.06144 240.402773 
L 381.15072 227.306353 
L 381.41856 268.946703 
L 381.50784 237.536499 
L 381.59712 253.682431 
L 381.86496 146.54795 
L 381.95424 217.399107 
L 382.04352 188.374693 
L 382.1328 220.615025 
L 382.22208 166.68366 
L 382.31136 215.130594 
L 382.48992 144.359496 
L 382.5792 193.361542 
L 382.66848 155.614843 
L 382.75776 260.135515 
L 382.84704 223.86468 
L 382.93632 235.962752 
L 383.0256 195.623124 
L 383.11488 220.766407 
L 383.20416 184.420695 
L 383.38272 235.342917 
L 383.65056 198.118006 
L 383.73984 228.640394 
L 383.82912 149.906912 
L 384.09696 234.437713 
L 384.18624 126.192168 
L 384.3648 248.963517 
L 384.45408 252.31095 
L 384.54336 215.518686 
L 384.63264 216.53624 
L 384.72192 240.788109 
L 384.90048 193.368827 
L 384.98976 182.300311 
L 385.07904 240.658059 
L 385.16832 229.588396 
L 385.2576 211.786652 
L 385.34688 223.415453 
L 385.43616 192.683648 
L 385.61472 244.510089 
L 385.704 226.916066 
L 385.79328 258.199599 
L 385.97184 178.858025 
L 386.06112 212.815295 
L 386.1504 173.792354 
L 386.32896 230.458372 
L 386.41824 230.617463 
L 386.5968 224.333104 
L 386.68608 182.054546 
L 386.77536 247.83262 
L 386.86464 229.810733 
L 386.95392 140.620875 
L 387.13248 239.899842 
L 387.22176 224.697012 
L 387.40032 126.840329 
L 387.4896 218.336595 
L 387.57888 201.178443 
L 387.75744 244.168256 
L 387.84672 171.52735 
L 388.02528 207.049048 
L 388.11456 210.398535 
L 388.20384 209.910137 
L 388.29312 235.310915 
L 388.3824 204.226496 
L 388.47168 222.121034 
L 388.56096 200.626396 
L 388.65024 256.998543 
L 388.73952 204.20263 
L 388.8288 235.262955 
L 388.91808 178.378974 
L 389.00736 191.176895 
L 389.09664 212.005711 
L 389.18592 171.639824 
L 389.2752 182.869311 
L 389.45376 248.980022 
L 389.54304 233.59389 
L 389.7216 169.119589 
L 389.81088 226.555635 
L 389.90016 205.711164 
L 389.98944 222.10076 
L 390.07872 204.350488 
L 390.25728 254.695142 
L 390.34656 154.726055 
L 390.43584 224.539096 
L 390.52512 192.138362 
L 390.70368 222.846517 
L 390.79296 142.99795 
L 390.88224 223.343973 
L 390.97152 208.666954 
L 391.0608 218.435727 
L 391.15008 217.641314 
L 391.23936 154.641147 
L 391.41792 248.352159 
L 391.68576 179.624345 
L 391.86432 238.717921 
L 391.9536 168.912873 
L 392.22144 231.316911 
L 392.31072 177.678964 
L 392.48928 248.462038 
L 392.57856 218.660283 
L 392.66784 220.02977 
L 392.75712 216.510269 
L 392.8464 188.155018 
L 392.93568 199.657846 
L 393.02496 145.347219 
L 393.20352 237.58755 
L 393.2928 175.179014 
L 393.38208 219.596303 
L 393.47136 153.186043 
L 393.64992 180.089577 
L 393.7392 142.788161 
L 393.82848 224.51866 
L 393.91776 209.47634 
L 394.09632 165.241613 
L 394.36416 225.311994 
L 394.45344 208.243993 
L 394.54272 214.252913 
L 394.72128 191.412603 
L 394.81056 239.417437 
L 394.89984 195.998559 
L 394.98912 250.32143 
L 395.0784 228.03965 
L 395.16768 232.540893 
L 395.25696 241.764255 
L 395.34624 201.237717 
L 395.43552 225.294986 
L 395.5248 215.824051 
L 395.61408 188.509431 
L 395.79264 220.285294 
L 395.88192 199.518839 
L 396.06048 226.834377 
L 396.14976 162.115196 
L 396.23904 169.040382 
L 396.32832 220.346921 
L 396.4176 197.311908 
L 396.50688 248.428941 
L 396.59616 238.627003 
L 396.68544 186.561913 
L 396.77472 194.853104 
L 396.864 229.302544 
L 396.95328 221.659485 
L 397.04256 165.166481 
L 397.22112 202.839255 
L 397.3104 202.643357 
L 397.66752 236.117144 
L 397.7568 241.689499 
L 397.84608 198.868031 
L 397.93536 250.799318 
L 398.02464 191.758712 
L 398.11392 239.467141 
L 398.29248 216.18475 
L 398.38176 211.13538 
L 398.47104 188.373107 
L 398.56032 203.498493 
L 398.6496 179.050231 
L 398.73888 235.459114 
L 398.82816 92.294898 
L 399.00672 252.798433 
L 399.18528 221.941264 
L 399.27456 258.652862 
L 399.36384 188.134608 
L 399.45312 262.120053 
L 399.63168 178.552973 
L 399.72096 209.349903 
L 399.81024 193.806756 
L 399.89952 243.565877 
L 399.9888 239.711885 
L 400.07808 169.911045 
L 400.16736 249.338511 
L 400.25664 242.036388 
L 400.34592 221.478954 
L 400.4352 266.380578 
L 400.70304 181.971749 
L 400.79232 190.173242 
L 400.8816 168.363434 
L 400.97088 241.634885 
L 401.14944 190.146153 
L 401.328 241.42337 
L 401.41728 185.447236 
L 401.50656 202.40856 
L 401.59584 264.663253 
L 401.68512 213.344708 
L 401.7744 235.022836 
L 401.95296 181.256735 
L 402.13152 227.949427 
L 402.2208 187.964989 
L 402.39936 238.588871 
L 402.48864 214.738295 
L 402.6672 231.118065 
L 402.75648 226.289439 
L 402.93504 159.64348 
L 403.02432 234.679171 
L 403.1136 221.051892 
L 403.20288 248.354582 
L 403.29216 201.446782 
L 403.47072 249.630856 
L 403.56 243.839116 
L 403.64928 220.12874 
L 403.73856 128.993071 
L 403.91712 233.091317 
L 404.0064 214.836951 
L 404.18496 238.507278 
L 404.27424 162.455289 
L 404.36352 213.646591 
L 404.4528 202.958603 
L 404.54208 195.818293 
L 404.72064 209.313569 
L 404.80992 146.769136 
L 405.07776 248.798938 
L 405.16704 152.10907 
L 405.25632 183.400398 
L 405.43488 267.916994 
L 405.70272 162.997926 
L 405.88128 241.688554 
L 405.97056 168.356452 
L 406.14912 245.87614 
L 406.32768 116.250548 
L 406.50624 253.125236 
L 406.59552 257.415154 
L 406.77408 207.434693 
L 406.95264 222.099289 
L 407.1312 188.329569 
L 407.30976 257.464012 
L 407.39904 160.156342 
L 407.5776 244.260272 
L 407.66688 184.894573 
L 407.75616 239.0378 
L 407.84544 196.674407 
L 408.024 233.116167 
L 408.11328 230.858102 
L 408.20256 189.423892 
L 408.29184 201.591334 
L 408.4704 238.982061 
L 408.64896 209.389734 
L 408.73824 210.444237 
L 408.82752 165.108744 
L 408.9168 230.419893 
L 409.09536 173.398039 
L 409.18464 248.794627 
L 409.3632 197.036424 
L 409.45248 237.686387 
L 409.54176 191.025881 
L 409.72032 259.895666 
L 409.8096 168.267074 
L 409.98816 217.626146 
L 410.07744 154.157933 
L 410.16672 268.289956 
L 410.256 231.224498 
L 410.34528 238.877013 
L 410.52384 200.673591 
L 410.61312 243.682753 
L 410.7024 180.303002 
L 410.79168 195.490414 
L 410.88096 194.0845 
L 410.97024 185.313928 
L 411.05952 207.258574 
L 411.1488 188.331985 
L 411.23808 235.694754 
L 411.32736 179.389 
L 411.41664 252.042404 
L 411.50592 193.821913 
L 411.5952 232.725199 
L 411.68448 232.157872 
L 411.77376 176.198157 
L 411.86304 230.113733 
L 411.95232 220.78663 
L 412.0416 242.684211 
L 412.13088 241.013977 
L 412.22016 205.525861 
L 412.30944 260.195184 
L 412.39872 248.270298 
L 412.488 203.30205 
L 412.57728 231.429269 
L 412.75584 218.092018 
L 412.84512 218.195883 
L 412.9344 160.210249 
L 413.11296 261.527645 
L 413.29152 192.831488 
L 413.3808 191.751172 
L 413.47008 198.243576 
L 413.55936 244.490022 
L 413.73792 165.46309 
L 413.8272 231.113171 
L 413.91648 205.423644 
L 414.00576 213.156188 
L 414.09504 251.414548 
L 414.18432 214.715258 
L 414.2736 216.250603 
L 414.36288 189.23386 
L 414.54144 240.491806 
L 414.63072 164.274824 
L 414.63072 164.274824 
" style="fill:none;stroke:#0000ff;stroke-linecap:square;stroke-width:1.5;"/>
   </g>
   <g id="patch_3">
    <path d="M 57.6 307.584 
L 57.6 41.472 
" style="fill:none;stroke:#000000;stroke-linecap:square;stroke-linejoin:miter;stroke-width:0.8;"/>
   </g>
   <g id="patch_4">
    <path d="M 414.72 307.584 
L 414.72 41.472 
" style="fill:none;stroke:#000000;stroke-linecap:square;stroke-linejoin:miter;stroke-width:0.8;"/>
   </g>
   <g id="patch_5">
    <path d="M 57.6 307.584 
L 414.72 307.584 
" style="fill:none;stroke:#000000;stroke-linecap:square;stroke-linejoin:miter;stroke-width:0.8;"/>
   </g>
   <g id="patch_6">
    <path d="M 57.6 41.472 
L 414.72 41.472 
" style="fill:none;stroke:#000000;stroke-linecap:square;stroke-linejoin:miter;stroke-width:0.8;"/>
   </g>
   <g id="legend_1">
    <g id="patch_7">
     <path d="M 202.8825 299.584 
L 403.52 299.584 
Q 406.72 299.584 406.72 296.384 
L 406.72 274.499 
Q 406.72 271.299 403.52 271.299 
L 202.8825 271.299 
Q 199.6825 271.299 199.6825 274.499 
L 199.6825 296.384 
Q 199.6825 299.584 202.8825 299.584 
z
" style="fill:#ffffff;opacity:0.8;stroke:#cccccc;stroke-linejoin:miter;"/>
    </g>
    <g id="line2d_22">
     <path d="M 206.0825 284.2565 
L 238.0825 284.2565 
" style="fill:none;stroke:#0000ff;stroke-linecap:square;stroke-width:1.5;"/>
    </g>
    <g id="line2d_23"/>
    <g id="text_13">
     <!-- cumulative reward -->
     <g transform="translate(250.8825 289.8565)scale(0.16 -0.16)">
      <defs>
       <path d="M 3122 3366 
L 3122 2828 
Q 2878 2963 2633 3030 
Q 2388 3097 2138 3097 
Q 1578 3097 1268 2742 
Q 959 2388 959 1747 
Q 959 1106 1268 751 
Q 1578 397 2138 397 
Q 2388 397 2633 464 
Q 2878 531 3122 666 
L 3122 134 
Q 2881 22 2623 -34 
Q 2366 -91 2075 -91 
Q 1284 -91 818 406 
Q 353 903 353 1747 
Q 353 2603 823 3093 
Q 1294 3584 2113 3584 
Q 2378 3584 2631 3529 
Q 2884 3475 3122 3366 
z
" id="DejaVuSans-63" transform="scale(0.015625)"/>
      </defs>
      <use xlink:href="#DejaVuSans-63"/>
      <use x="54.980469" xlink:href="#DejaVuSans-75"/>
      <use x="118.359375" xlink:href="#DejaVuSans-6d"/>
      <use x="215.771484" xlink:href="#DejaVuSans-75"/>
      <use x="279.150391" xlink:href="#DejaVuSans-6c"/>
      <use x="306.933594" xlink:href="#DejaVuSans-61"/>
      <use x="368.212891" xlink:href="#DejaVuSans-74"/>
      <use x="407.421875" xlink:href="#DejaVuSans-69"/>
      <use x="435.205078" xlink:href="#DejaVuSans-76"/>
      <use x="494.384766" xlink:href="#DejaVuSans-65"/>
      <use x="555.908203" xlink:href="#DejaVuSans-20"/>
      <use x="587.695312" xlink:href="#DejaVuSans-72"/>
      <use x="626.558594" xlink:href="#DejaVuSans-65"/>
      <use x="688.082031" xlink:href="#DejaVuSans-77"/>
      <use x="769.869141" xlink:href="#DejaVuSans-61"/>
      <use x="831.148438" xlink:href="#DejaVuSans-72"/>
      <use x="870.511719" xlink:href="#DejaVuSans-64"/>
     </g>
    </g>
   </g>
  </g>
 </g>
 <defs>
  <clipPath id="pad4e0e4b11">
   <rect height="266.112" width="357.12" x="57.6" y="41.472"/>
  </clipPath>
 </defs>
</svg>
