<?xml version="1.0" encoding="utf-8" standalone="no"?>
<!DOCTYPE svg PUBLIC "-//W3C//DTD SVG 1.1//EN"
  "http://www.w3.org/Graphics/SVG/1.1/DTD/svg11.dtd">
<svg height="345.6pt" version="1.1" viewBox="0 0 460.8 345.6" width="460.8pt" xmlns="http://www.w3.org/2000/svg" xmlns:xlink="http://www.w3.org/1999/xlink">
 <metadata>
  <rdf:RDF xmlns:cc="http://creativecommons.org/ns#" xmlns:dc="http://purl.org/dc/elements/1.1/" xmlns:rdf="http://www.w3.org/1999/02/22-rdf-syntax-ns#">
   <cc:Work>
    <dc:type rdf:resource="http://purl.org/dc/dcmitype/StillImage"/>
    <dc:date>2021-11-03T18:41:17.164721</dc:date>
    <dc:description>{"agent.algorithm": "RayProximalPolicyOptimization", "agent.algorithm.render_env": false, "agent.algorithm.num_workers": 0, "agent.algorithm.batch_mode": "complete_episodes", "agent.algorithm.lr": 1e-05, "agent.algorithm.train_batch_size": 200, "agent.algorithm.optimizer": "Adam", "agent.algorithm.vf_clip_param": 100, "agent.algorithm.model": {"fcnet_activation": "tanh", "fcnet_hiddens": [30, 30]}, "env.env_class": "SchedulerPolicyRayEnvironment", "env.env_config": {"solver_driver": "CMAdriver", "solver_driver_args": [20, 10, 19, 0.5], "maximize": false, "steps": 50, "state_metrics_names": ["DifferenceOfBest", "SolverStateHistory"], "state_metrics_config": [[40, false, 1, true, false], [{"step_size": {"max": 3, "min": 0}}, 40]], "reward_metric": "Best", "reward_metric_config": [false, false], "memes_no": 1, "action_space_config": {"step_size": {"max": 3, "min": 1e-10}}}}</dc:description>
    <dc:format>image/svg+xml</dc:format>
    <dc:creator>
     <cc:Agent>
      <dc:title>Matplotlib v3.4.2, https://matplotlib.org/</dc:title>
     </cc:Agent>
    </dc:creator>
   </cc:Work>
  </rdf:RDF>
 </metadata>
 <defs>
  <style type="text/css">*{stroke-linecap:butt;stroke-linejoin:round;}</style>
 </defs>
 <g id="figure_1">
  <g id="patch_1">
   <path d="M 0 345.6 
L 460.8 345.6 
L 460.8 0 
L 0 0 
z
" style="fill:#ffffff;"/>
  </g>
  <g id="axes_1">
   <g id="patch_2">
    <path d="M 57.6 307.584 
L 414.72 307.584 
L 414.72 41.472 
L 57.6 41.472 
z
" style="fill:#ffffff;"/>
   </g>
   <g id="matplotlib.axis_1">
    <g id="xtick_1">
     <g id="line2d_1">
      <path clip-path="url(#p7d7fd7bdd3)" d="M 57.6 307.584 
L 57.6 41.472 
" style="fill:none;stroke:#b0b0b0;stroke-linecap:square;stroke-width:0.8;"/>
     </g>
     <g id="line2d_2">
      <defs>
       <path d="M 0 0 
L 0 3.5 
" id="mcad12961a2" style="stroke:#000000;stroke-width:0.8;"/>
      </defs>
      <g>
       <use style="stroke:#000000;stroke-width:0.8;" x="57.6" xlink:href="#mcad12961a2" y="307.584"/>
      </g>
     </g>
     <g id="text_1">
      <!-- 0 -->
      <g transform="translate(52.51 326.7415)scale(0.16 -0.16)">
       <defs>
        <path d="M 2034 4250 
Q 1547 4250 1301 3770 
Q 1056 3291 1056 2328 
Q 1056 1369 1301 889 
Q 1547 409 2034 409 
Q 2525 409 2770 889 
Q 3016 1369 3016 2328 
Q 3016 3291 2770 3770 
Q 2525 4250 2034 4250 
z
M 2034 4750 
Q 2819 4750 3233 4129 
Q 3647 3509 3647 2328 
Q 3647 1150 3233 529 
Q 2819 -91 2034 -91 
Q 1250 -91 836 529 
Q 422 1150 422 2328 
Q 422 3509 836 4129 
Q 1250 4750 2034 4750 
z
" id="DejaVuSans-30" transform="scale(0.015625)"/>
       </defs>
       <use xlink:href="#DejaVuSans-30"/>
      </g>
     </g>
    </g>
    <g id="xtick_2">
     <g id="line2d_3">
      <path clip-path="url(#p7d7fd7bdd3)" d="M 146.88 307.584 
L 146.88 41.472 
" style="fill:none;stroke:#b0b0b0;stroke-linecap:square;stroke-width:0.8;"/>
     </g>
     <g id="line2d_4">
      <g>
       <use style="stroke:#000000;stroke-width:0.8;" x="146.88" xlink:href="#mcad12961a2" y="307.584"/>
      </g>
     </g>
     <g id="text_2">
      <!-- 1000 -->
      <g transform="translate(126.52 326.7415)scale(0.16 -0.16)">
       <defs>
        <path d="M 794 531 
L 1825 531 
L 1825 4091 
L 703 3866 
L 703 4441 
L 1819 4666 
L 2450 4666 
L 2450 531 
L 3481 531 
L 3481 0 
L 794 0 
L 794 531 
z
" id="DejaVuSans-31" transform="scale(0.015625)"/>
       </defs>
       <use xlink:href="#DejaVuSans-31"/>
       <use x="63.623047" xlink:href="#DejaVuSans-30"/>
       <use x="127.246094" xlink:href="#DejaVuSans-30"/>
       <use x="190.869141" xlink:href="#DejaVuSans-30"/>
      </g>
     </g>
    </g>
    <g id="xtick_3">
     <g id="line2d_5">
      <path clip-path="url(#p7d7fd7bdd3)" d="M 236.16 307.584 
L 236.16 41.472 
" style="fill:none;stroke:#b0b0b0;stroke-linecap:square;stroke-width:0.8;"/>
     </g>
     <g id="line2d_6">
      <g>
       <use style="stroke:#000000;stroke-width:0.8;" x="236.16" xlink:href="#mcad12961a2" y="307.584"/>
      </g>
     </g>
     <g id="text_3">
      <!-- 2000 -->
      <g transform="translate(215.8 326.7415)scale(0.16 -0.16)">
       <defs>
        <path d="M 1228 531 
L 3431 531 
L 3431 0 
L 469 0 
L 469 531 
Q 828 903 1448 1529 
Q 2069 2156 2228 2338 
Q 2531 2678 2651 2914 
Q 2772 3150 2772 3378 
Q 2772 3750 2511 3984 
Q 2250 4219 1831 4219 
Q 1534 4219 1204 4116 
Q 875 4013 500 3803 
L 500 4441 
Q 881 4594 1212 4672 
Q 1544 4750 1819 4750 
Q 2544 4750 2975 4387 
Q 3406 4025 3406 3419 
Q 3406 3131 3298 2873 
Q 3191 2616 2906 2266 
Q 2828 2175 2409 1742 
Q 1991 1309 1228 531 
z
" id="DejaVuSans-32" transform="scale(0.015625)"/>
       </defs>
       <use xlink:href="#DejaVuSans-32"/>
       <use x="63.623047" xlink:href="#DejaVuSans-30"/>
       <use x="127.246094" xlink:href="#DejaVuSans-30"/>
       <use x="190.869141" xlink:href="#DejaVuSans-30"/>
      </g>
     </g>
    </g>
    <g id="xtick_4">
     <g id="line2d_7">
      <path clip-path="url(#p7d7fd7bdd3)" d="M 325.44 307.584 
L 325.44 41.472 
" style="fill:none;stroke:#b0b0b0;stroke-linecap:square;stroke-width:0.8;"/>
     </g>
     <g id="line2d_8">
      <g>
       <use style="stroke:#000000;stroke-width:0.8;" x="325.44" xlink:href="#mcad12961a2" y="307.584"/>
      </g>
     </g>
     <g id="text_4">
      <!-- 3000 -->
      <g transform="translate(305.08 326.7415)scale(0.16 -0.16)">
       <defs>
        <path d="M 2597 2516 
Q 3050 2419 3304 2112 
Q 3559 1806 3559 1356 
Q 3559 666 3084 287 
Q 2609 -91 1734 -91 
Q 1441 -91 1130 -33 
Q 819 25 488 141 
L 488 750 
Q 750 597 1062 519 
Q 1375 441 1716 441 
Q 2309 441 2620 675 
Q 2931 909 2931 1356 
Q 2931 1769 2642 2001 
Q 2353 2234 1838 2234 
L 1294 2234 
L 1294 2753 
L 1863 2753 
Q 2328 2753 2575 2939 
Q 2822 3125 2822 3475 
Q 2822 3834 2567 4026 
Q 2313 4219 1838 4219 
Q 1578 4219 1281 4162 
Q 984 4106 628 3988 
L 628 4550 
Q 988 4650 1302 4700 
Q 1616 4750 1894 4750 
Q 2613 4750 3031 4423 
Q 3450 4097 3450 3541 
Q 3450 3153 3228 2886 
Q 3006 2619 2597 2516 
z
" id="DejaVuSans-33" transform="scale(0.015625)"/>
       </defs>
       <use xlink:href="#DejaVuSans-33"/>
       <use x="63.623047" xlink:href="#DejaVuSans-30"/>
       <use x="127.246094" xlink:href="#DejaVuSans-30"/>
       <use x="190.869141" xlink:href="#DejaVuSans-30"/>
      </g>
     </g>
    </g>
    <g id="xtick_5">
     <g id="line2d_9">
      <path clip-path="url(#p7d7fd7bdd3)" d="M 414.72 307.584 
L 414.72 41.472 
" style="fill:none;stroke:#b0b0b0;stroke-linecap:square;stroke-width:0.8;"/>
     </g>
     <g id="line2d_10">
      <g>
       <use style="stroke:#000000;stroke-width:0.8;" x="414.72" xlink:href="#mcad12961a2" y="307.584"/>
      </g>
     </g>
     <g id="text_5">
      <!-- 4000 -->
      <g transform="translate(394.36 326.7415)scale(0.16 -0.16)">
       <defs>
        <path d="M 2419 4116 
L 825 1625 
L 2419 1625 
L 2419 4116 
z
M 2253 4666 
L 3047 4666 
L 3047 1625 
L 3713 1625 
L 3713 1100 
L 3047 1100 
L 3047 0 
L 2419 0 
L 2419 1100 
L 313 1100 
L 313 1709 
L 2253 4666 
z
" id="DejaVuSans-34" transform="scale(0.015625)"/>
       </defs>
       <use xlink:href="#DejaVuSans-34"/>
       <use x="63.623047" xlink:href="#DejaVuSans-30"/>
       <use x="127.246094" xlink:href="#DejaVuSans-30"/>
       <use x="190.869141" xlink:href="#DejaVuSans-30"/>
      </g>
     </g>
    </g>
    <g id="text_6">
     <!-- Episodes -->
     <g transform="translate(200.5725 346.2265)scale(0.16 -0.16)">
      <defs>
       <path d="M 628 4666 
L 3578 4666 
L 3578 4134 
L 1259 4134 
L 1259 2753 
L 3481 2753 
L 3481 2222 
L 1259 2222 
L 1259 531 
L 3634 531 
L 3634 0 
L 628 0 
L 628 4666 
z
" id="DejaVuSans-45" transform="scale(0.015625)"/>
       <path d="M 1159 525 
L 1159 -1331 
L 581 -1331 
L 581 3500 
L 1159 3500 
L 1159 2969 
Q 1341 3281 1617 3432 
Q 1894 3584 2278 3584 
Q 2916 3584 3314 3078 
Q 3713 2572 3713 1747 
Q 3713 922 3314 415 
Q 2916 -91 2278 -91 
Q 1894 -91 1617 61 
Q 1341 213 1159 525 
z
M 3116 1747 
Q 3116 2381 2855 2742 
Q 2594 3103 2138 3103 
Q 1681 3103 1420 2742 
Q 1159 2381 1159 1747 
Q 1159 1113 1420 752 
Q 1681 391 2138 391 
Q 2594 391 2855 752 
Q 3116 1113 3116 1747 
z
" id="DejaVuSans-70" transform="scale(0.015625)"/>
       <path d="M 603 3500 
L 1178 3500 
L 1178 0 
L 603 0 
L 603 3500 
z
M 603 4863 
L 1178 4863 
L 1178 4134 
L 603 4134 
L 603 4863 
z
" id="DejaVuSans-69" transform="scale(0.015625)"/>
       <path d="M 2834 3397 
L 2834 2853 
Q 2591 2978 2328 3040 
Q 2066 3103 1784 3103 
Q 1356 3103 1142 2972 
Q 928 2841 928 2578 
Q 928 2378 1081 2264 
Q 1234 2150 1697 2047 
L 1894 2003 
Q 2506 1872 2764 1633 
Q 3022 1394 3022 966 
Q 3022 478 2636 193 
Q 2250 -91 1575 -91 
Q 1294 -91 989 -36 
Q 684 19 347 128 
L 347 722 
Q 666 556 975 473 
Q 1284 391 1588 391 
Q 1994 391 2212 530 
Q 2431 669 2431 922 
Q 2431 1156 2273 1281 
Q 2116 1406 1581 1522 
L 1381 1569 
Q 847 1681 609 1914 
Q 372 2147 372 2553 
Q 372 3047 722 3315 
Q 1072 3584 1716 3584 
Q 2034 3584 2315 3537 
Q 2597 3491 2834 3397 
z
" id="DejaVuSans-73" transform="scale(0.015625)"/>
       <path d="M 1959 3097 
Q 1497 3097 1228 2736 
Q 959 2375 959 1747 
Q 959 1119 1226 758 
Q 1494 397 1959 397 
Q 2419 397 2687 759 
Q 2956 1122 2956 1747 
Q 2956 2369 2687 2733 
Q 2419 3097 1959 3097 
z
M 1959 3584 
Q 2709 3584 3137 3096 
Q 3566 2609 3566 1747 
Q 3566 888 3137 398 
Q 2709 -91 1959 -91 
Q 1206 -91 779 398 
Q 353 888 353 1747 
Q 353 2609 779 3096 
Q 1206 3584 1959 3584 
z
" id="DejaVuSans-6f" transform="scale(0.015625)"/>
       <path d="M 2906 2969 
L 2906 4863 
L 3481 4863 
L 3481 0 
L 2906 0 
L 2906 525 
Q 2725 213 2448 61 
Q 2172 -91 1784 -91 
Q 1150 -91 751 415 
Q 353 922 353 1747 
Q 353 2572 751 3078 
Q 1150 3584 1784 3584 
Q 2172 3584 2448 3432 
Q 2725 3281 2906 2969 
z
M 947 1747 
Q 947 1113 1208 752 
Q 1469 391 1925 391 
Q 2381 391 2643 752 
Q 2906 1113 2906 1747 
Q 2906 2381 2643 2742 
Q 2381 3103 1925 3103 
Q 1469 3103 1208 2742 
Q 947 2381 947 1747 
z
" id="DejaVuSans-64" transform="scale(0.015625)"/>
       <path d="M 3597 1894 
L 3597 1613 
L 953 1613 
Q 991 1019 1311 708 
Q 1631 397 2203 397 
Q 2534 397 2845 478 
Q 3156 559 3463 722 
L 3463 178 
Q 3153 47 2828 -22 
Q 2503 -91 2169 -91 
Q 1331 -91 842 396 
Q 353 884 353 1716 
Q 353 2575 817 3079 
Q 1281 3584 2069 3584 
Q 2775 3584 3186 3129 
Q 3597 2675 3597 1894 
z
M 3022 2063 
Q 3016 2534 2758 2815 
Q 2500 3097 2075 3097 
Q 1594 3097 1305 2825 
Q 1016 2553 972 2059 
L 3022 2063 
z
" id="DejaVuSans-65" transform="scale(0.015625)"/>
      </defs>
      <use xlink:href="#DejaVuSans-45"/>
      <use x="63.183594" xlink:href="#DejaVuSans-70"/>
      <use x="126.660156" xlink:href="#DejaVuSans-69"/>
      <use x="154.443359" xlink:href="#DejaVuSans-73"/>
      <use x="206.542969" xlink:href="#DejaVuSans-6f"/>
      <use x="267.724609" xlink:href="#DejaVuSans-64"/>
      <use x="331.201172" xlink:href="#DejaVuSans-65"/>
      <use x="392.724609" xlink:href="#DejaVuSans-73"/>
     </g>
    </g>
   </g>
   <g id="matplotlib.axis_2">
    <g id="ytick_1">
     <g id="line2d_11">
      <path clip-path="url(#p7d7fd7bdd3)" d="M 57.6 305.924246 
L 414.72 305.924246 
" style="fill:none;stroke:#b0b0b0;stroke-linecap:square;stroke-width:0.8;"/>
     </g>
     <g id="line2d_12">
      <defs>
       <path d="M 0 0 
L -3.5 0 
" id="m485367f6d4" style="stroke:#000000;stroke-width:0.8;"/>
      </defs>
      <g>
       <use style="stroke:#000000;stroke-width:0.8;" x="57.6" xlink:href="#m485367f6d4" y="305.924246"/>
      </g>
     </g>
     <g id="text_7">
      <!-- −3800 -->
      <g transform="translate(-3.5275 312.002996)scale(0.16 -0.16)">
       <defs>
        <path d="M 678 2272 
L 4684 2272 
L 4684 1741 
L 678 1741 
L 678 2272 
z
" id="DejaVuSans-2212" transform="scale(0.015625)"/>
        <path d="M 2034 2216 
Q 1584 2216 1326 1975 
Q 1069 1734 1069 1313 
Q 1069 891 1326 650 
Q 1584 409 2034 409 
Q 2484 409 2743 651 
Q 3003 894 3003 1313 
Q 3003 1734 2745 1975 
Q 2488 2216 2034 2216 
z
M 1403 2484 
Q 997 2584 770 2862 
Q 544 3141 544 3541 
Q 544 4100 942 4425 
Q 1341 4750 2034 4750 
Q 2731 4750 3128 4425 
Q 3525 4100 3525 3541 
Q 3525 3141 3298 2862 
Q 3072 2584 2669 2484 
Q 3125 2378 3379 2068 
Q 3634 1759 3634 1313 
Q 3634 634 3220 271 
Q 2806 -91 2034 -91 
Q 1263 -91 848 271 
Q 434 634 434 1313 
Q 434 1759 690 2068 
Q 947 2378 1403 2484 
z
M 1172 3481 
Q 1172 3119 1398 2916 
Q 1625 2713 2034 2713 
Q 2441 2713 2670 2916 
Q 2900 3119 2900 3481 
Q 2900 3844 2670 4047 
Q 2441 4250 2034 4250 
Q 1625 4250 1398 4047 
Q 1172 3844 1172 3481 
z
" id="DejaVuSans-38" transform="scale(0.015625)"/>
       </defs>
       <use xlink:href="#DejaVuSans-2212"/>
       <use x="83.789062" xlink:href="#DejaVuSans-33"/>
       <use x="147.412109" xlink:href="#DejaVuSans-38"/>
       <use x="211.035156" xlink:href="#DejaVuSans-30"/>
       <use x="274.658203" xlink:href="#DejaVuSans-30"/>
      </g>
     </g>
    </g>
    <g id="ytick_2">
     <g id="line2d_13">
      <path clip-path="url(#p7d7fd7bdd3)" d="M 57.6 269.188395 
L 414.72 269.188395 
" style="fill:none;stroke:#b0b0b0;stroke-linecap:square;stroke-width:0.8;"/>
     </g>
     <g id="line2d_14">
      <g>
       <use style="stroke:#000000;stroke-width:0.8;" x="57.6" xlink:href="#m485367f6d4" y="269.188395"/>
      </g>
     </g>
     <g id="text_8">
      <!-- −3600 -->
      <g transform="translate(-3.5275 275.267145)scale(0.16 -0.16)">
       <defs>
        <path d="M 2113 2584 
Q 1688 2584 1439 2293 
Q 1191 2003 1191 1497 
Q 1191 994 1439 701 
Q 1688 409 2113 409 
Q 2538 409 2786 701 
Q 3034 994 3034 1497 
Q 3034 2003 2786 2293 
Q 2538 2584 2113 2584 
z
M 3366 4563 
L 3366 3988 
Q 3128 4100 2886 4159 
Q 2644 4219 2406 4219 
Q 1781 4219 1451 3797 
Q 1122 3375 1075 2522 
Q 1259 2794 1537 2939 
Q 1816 3084 2150 3084 
Q 2853 3084 3261 2657 
Q 3669 2231 3669 1497 
Q 3669 778 3244 343 
Q 2819 -91 2113 -91 
Q 1303 -91 875 529 
Q 447 1150 447 2328 
Q 447 3434 972 4092 
Q 1497 4750 2381 4750 
Q 2619 4750 2861 4703 
Q 3103 4656 3366 4563 
z
" id="DejaVuSans-36" transform="scale(0.015625)"/>
       </defs>
       <use xlink:href="#DejaVuSans-2212"/>
       <use x="83.789062" xlink:href="#DejaVuSans-33"/>
       <use x="147.412109" xlink:href="#DejaVuSans-36"/>
       <use x="211.035156" xlink:href="#DejaVuSans-30"/>
       <use x="274.658203" xlink:href="#DejaVuSans-30"/>
      </g>
     </g>
    </g>
    <g id="ytick_3">
     <g id="line2d_15">
      <path clip-path="url(#p7d7fd7bdd3)" d="M 57.6 232.452543 
L 414.72 232.452543 
" style="fill:none;stroke:#b0b0b0;stroke-linecap:square;stroke-width:0.8;"/>
     </g>
     <g id="line2d_16">
      <g>
       <use style="stroke:#000000;stroke-width:0.8;" x="57.6" xlink:href="#m485367f6d4" y="232.452543"/>
      </g>
     </g>
     <g id="text_9">
      <!-- −3400 -->
      <g transform="translate(-3.5275 238.531293)scale(0.16 -0.16)">
       <use xlink:href="#DejaVuSans-2212"/>
       <use x="83.789062" xlink:href="#DejaVuSans-33"/>
       <use x="147.412109" xlink:href="#DejaVuSans-34"/>
       <use x="211.035156" xlink:href="#DejaVuSans-30"/>
       <use x="274.658203" xlink:href="#DejaVuSans-30"/>
      </g>
     </g>
    </g>
    <g id="ytick_4">
     <g id="line2d_17">
      <path clip-path="url(#p7d7fd7bdd3)" d="M 57.6 195.716692 
L 414.72 195.716692 
" style="fill:none;stroke:#b0b0b0;stroke-linecap:square;stroke-width:0.8;"/>
     </g>
     <g id="line2d_18">
      <g>
       <use style="stroke:#000000;stroke-width:0.8;" x="57.6" xlink:href="#m485367f6d4" y="195.716692"/>
      </g>
     </g>
     <g id="text_10">
      <!-- −3200 -->
      <g transform="translate(-3.5275 201.795442)scale(0.16 -0.16)">
       <use xlink:href="#DejaVuSans-2212"/>
       <use x="83.789062" xlink:href="#DejaVuSans-33"/>
       <use x="147.412109" xlink:href="#DejaVuSans-32"/>
       <use x="211.035156" xlink:href="#DejaVuSans-30"/>
       <use x="274.658203" xlink:href="#DejaVuSans-30"/>
      </g>
     </g>
    </g>
    <g id="ytick_5">
     <g id="line2d_19">
      <path clip-path="url(#p7d7fd7bdd3)" d="M 57.6 158.980841 
L 414.72 158.980841 
" style="fill:none;stroke:#b0b0b0;stroke-linecap:square;stroke-width:0.8;"/>
     </g>
     <g id="line2d_20">
      <g>
       <use style="stroke:#000000;stroke-width:0.8;" x="57.6" xlink:href="#m485367f6d4" y="158.980841"/>
      </g>
     </g>
     <g id="text_11">
      <!-- −3000 -->
      <g transform="translate(-3.5275 165.059591)scale(0.16 -0.16)">
       <use xlink:href="#DejaVuSans-2212"/>
       <use x="83.789062" xlink:href="#DejaVuSans-33"/>
       <use x="147.412109" xlink:href="#DejaVuSans-30"/>
       <use x="211.035156" xlink:href="#DejaVuSans-30"/>
       <use x="274.658203" xlink:href="#DejaVuSans-30"/>
      </g>
     </g>
    </g>
    <g id="ytick_6">
     <g id="line2d_21">
      <path clip-path="url(#p7d7fd7bdd3)" d="M 57.6 122.24499 
L 414.72 122.24499 
" style="fill:none;stroke:#b0b0b0;stroke-linecap:square;stroke-width:0.8;"/>
     </g>
     <g id="line2d_22">
      <g>
       <use style="stroke:#000000;stroke-width:0.8;" x="57.6" xlink:href="#m485367f6d4" y="122.24499"/>
      </g>
     </g>
     <g id="text_12">
      <!-- −2800 -->
      <g transform="translate(-3.5275 128.32374)scale(0.16 -0.16)">
       <use xlink:href="#DejaVuSans-2212"/>
       <use x="83.789062" xlink:href="#DejaVuSans-32"/>
       <use x="147.412109" xlink:href="#DejaVuSans-38"/>
       <use x="211.035156" xlink:href="#DejaVuSans-30"/>
       <use x="274.658203" xlink:href="#DejaVuSans-30"/>
      </g>
     </g>
    </g>
    <g id="ytick_7">
     <g id="line2d_23">
      <path clip-path="url(#p7d7fd7bdd3)" d="M 57.6 85.509139 
L 414.72 85.509139 
" style="fill:none;stroke:#b0b0b0;stroke-linecap:square;stroke-width:0.8;"/>
     </g>
     <g id="line2d_24">
      <g>
       <use style="stroke:#000000;stroke-width:0.8;" x="57.6" xlink:href="#m485367f6d4" y="85.509139"/>
      </g>
     </g>
     <g id="text_13">
      <!-- −2600 -->
      <g transform="translate(-3.5275 91.587889)scale(0.16 -0.16)">
       <use xlink:href="#DejaVuSans-2212"/>
       <use x="83.789062" xlink:href="#DejaVuSans-32"/>
       <use x="147.412109" xlink:href="#DejaVuSans-36"/>
       <use x="211.035156" xlink:href="#DejaVuSans-30"/>
       <use x="274.658203" xlink:href="#DejaVuSans-30"/>
      </g>
     </g>
    </g>
    <g id="ytick_8">
     <g id="line2d_25">
      <path clip-path="url(#p7d7fd7bdd3)" d="M 57.6 48.773287 
L 414.72 48.773287 
" style="fill:none;stroke:#b0b0b0;stroke-linecap:square;stroke-width:0.8;"/>
     </g>
     <g id="line2d_26">
      <g>
       <use style="stroke:#000000;stroke-width:0.8;" x="57.6" xlink:href="#m485367f6d4" y="48.773287"/>
      </g>
     </g>
     <g id="text_14">
      <!-- −2400 -->
      <g transform="translate(-3.5275 54.852037)scale(0.16 -0.16)">
       <use xlink:href="#DejaVuSans-2212"/>
       <use x="83.789062" xlink:href="#DejaVuSans-32"/>
       <use x="147.412109" xlink:href="#DejaVuSans-34"/>
       <use x="211.035156" xlink:href="#DejaVuSans-30"/>
       <use x="274.658203" xlink:href="#DejaVuSans-30"/>
      </g>
     </g>
    </g>
    <g id="text_15">
     <!-- Cumulative Reward -->
     <g transform="translate(-10.855 252.52425)rotate(-90)scale(0.16 -0.16)">
      <defs>
       <path d="M 4122 4306 
L 4122 3641 
Q 3803 3938 3442 4084 
Q 3081 4231 2675 4231 
Q 1875 4231 1450 3742 
Q 1025 3253 1025 2328 
Q 1025 1406 1450 917 
Q 1875 428 2675 428 
Q 3081 428 3442 575 
Q 3803 722 4122 1019 
L 4122 359 
Q 3791 134 3420 21 
Q 3050 -91 2638 -91 
Q 1578 -91 968 557 
Q 359 1206 359 2328 
Q 359 3453 968 4101 
Q 1578 4750 2638 4750 
Q 3056 4750 3426 4639 
Q 3797 4528 4122 4306 
z
" id="DejaVuSans-43" transform="scale(0.015625)"/>
       <path d="M 544 1381 
L 544 3500 
L 1119 3500 
L 1119 1403 
Q 1119 906 1312 657 
Q 1506 409 1894 409 
Q 2359 409 2629 706 
Q 2900 1003 2900 1516 
L 2900 3500 
L 3475 3500 
L 3475 0 
L 2900 0 
L 2900 538 
Q 2691 219 2414 64 
Q 2138 -91 1772 -91 
Q 1169 -91 856 284 
Q 544 659 544 1381 
z
M 1991 3584 
L 1991 3584 
z
" id="DejaVuSans-75" transform="scale(0.015625)"/>
       <path d="M 3328 2828 
Q 3544 3216 3844 3400 
Q 4144 3584 4550 3584 
Q 5097 3584 5394 3201 
Q 5691 2819 5691 2113 
L 5691 0 
L 5113 0 
L 5113 2094 
Q 5113 2597 4934 2840 
Q 4756 3084 4391 3084 
Q 3944 3084 3684 2787 
Q 3425 2491 3425 1978 
L 3425 0 
L 2847 0 
L 2847 2094 
Q 2847 2600 2669 2842 
Q 2491 3084 2119 3084 
Q 1678 3084 1418 2786 
Q 1159 2488 1159 1978 
L 1159 0 
L 581 0 
L 581 3500 
L 1159 3500 
L 1159 2956 
Q 1356 3278 1631 3431 
Q 1906 3584 2284 3584 
Q 2666 3584 2933 3390 
Q 3200 3197 3328 2828 
z
" id="DejaVuSans-6d" transform="scale(0.015625)"/>
       <path d="M 603 4863 
L 1178 4863 
L 1178 0 
L 603 0 
L 603 4863 
z
" id="DejaVuSans-6c" transform="scale(0.015625)"/>
       <path d="M 2194 1759 
Q 1497 1759 1228 1600 
Q 959 1441 959 1056 
Q 959 750 1161 570 
Q 1363 391 1709 391 
Q 2188 391 2477 730 
Q 2766 1069 2766 1631 
L 2766 1759 
L 2194 1759 
z
M 3341 1997 
L 3341 0 
L 2766 0 
L 2766 531 
Q 2569 213 2275 61 
Q 1981 -91 1556 -91 
Q 1019 -91 701 211 
Q 384 513 384 1019 
Q 384 1609 779 1909 
Q 1175 2209 1959 2209 
L 2766 2209 
L 2766 2266 
Q 2766 2663 2505 2880 
Q 2244 3097 1772 3097 
Q 1472 3097 1187 3025 
Q 903 2953 641 2809 
L 641 3341 
Q 956 3463 1253 3523 
Q 1550 3584 1831 3584 
Q 2591 3584 2966 3190 
Q 3341 2797 3341 1997 
z
" id="DejaVuSans-61" transform="scale(0.015625)"/>
       <path d="M 1172 4494 
L 1172 3500 
L 2356 3500 
L 2356 3053 
L 1172 3053 
L 1172 1153 
Q 1172 725 1289 603 
Q 1406 481 1766 481 
L 2356 481 
L 2356 0 
L 1766 0 
Q 1100 0 847 248 
Q 594 497 594 1153 
L 594 3053 
L 172 3053 
L 172 3500 
L 594 3500 
L 594 4494 
L 1172 4494 
z
" id="DejaVuSans-74" transform="scale(0.015625)"/>
       <path d="M 191 3500 
L 800 3500 
L 1894 563 
L 2988 3500 
L 3597 3500 
L 2284 0 
L 1503 0 
L 191 3500 
z
" id="DejaVuSans-76" transform="scale(0.015625)"/>
       <path id="DejaVuSans-20" transform="scale(0.015625)"/>
       <path d="M 2841 2188 
Q 3044 2119 3236 1894 
Q 3428 1669 3622 1275 
L 4263 0 
L 3584 0 
L 2988 1197 
Q 2756 1666 2539 1819 
Q 2322 1972 1947 1972 
L 1259 1972 
L 1259 0 
L 628 0 
L 628 4666 
L 2053 4666 
Q 2853 4666 3247 4331 
Q 3641 3997 3641 3322 
Q 3641 2881 3436 2590 
Q 3231 2300 2841 2188 
z
M 1259 4147 
L 1259 2491 
L 2053 2491 
Q 2509 2491 2742 2702 
Q 2975 2913 2975 3322 
Q 2975 3731 2742 3939 
Q 2509 4147 2053 4147 
L 1259 4147 
z
" id="DejaVuSans-52" transform="scale(0.015625)"/>
       <path d="M 269 3500 
L 844 3500 
L 1563 769 
L 2278 3500 
L 2956 3500 
L 3675 769 
L 4391 3500 
L 4966 3500 
L 4050 0 
L 3372 0 
L 2619 2869 
L 1863 0 
L 1184 0 
L 269 3500 
z
" id="DejaVuSans-77" transform="scale(0.015625)"/>
       <path d="M 2631 2963 
Q 2534 3019 2420 3045 
Q 2306 3072 2169 3072 
Q 1681 3072 1420 2755 
Q 1159 2438 1159 1844 
L 1159 0 
L 581 0 
L 581 3500 
L 1159 3500 
L 1159 2956 
Q 1341 3275 1631 3429 
Q 1922 3584 2338 3584 
Q 2397 3584 2469 3576 
Q 2541 3569 2628 3553 
L 2631 2963 
z
" id="DejaVuSans-72" transform="scale(0.015625)"/>
      </defs>
      <use xlink:href="#DejaVuSans-43"/>
      <use x="69.824219" xlink:href="#DejaVuSans-75"/>
      <use x="133.203125" xlink:href="#DejaVuSans-6d"/>
      <use x="230.615234" xlink:href="#DejaVuSans-75"/>
      <use x="293.994141" xlink:href="#DejaVuSans-6c"/>
      <use x="321.777344" xlink:href="#DejaVuSans-61"/>
      <use x="383.056641" xlink:href="#DejaVuSans-74"/>
      <use x="422.265625" xlink:href="#DejaVuSans-69"/>
      <use x="450.048828" xlink:href="#DejaVuSans-76"/>
      <use x="509.228516" xlink:href="#DejaVuSans-65"/>
      <use x="570.751953" xlink:href="#DejaVuSans-20"/>
      <use x="602.539062" xlink:href="#DejaVuSans-52"/>
      <use x="667.521484" xlink:href="#DejaVuSans-65"/>
      <use x="729.044922" xlink:href="#DejaVuSans-77"/>
      <use x="810.832031" xlink:href="#DejaVuSans-61"/>
      <use x="872.111328" xlink:href="#DejaVuSans-72"/>
      <use x="911.474609" xlink:href="#DejaVuSans-64"/>
     </g>
    </g>
   </g>
   <g id="line2d_27">
    <path clip-path="url(#p7d7fd7bdd3)" d="M 57.6 216.193541 
L 57.68928 193.048367 
L 57.77856 195.227594 
L 57.86784 199.16866 
L 57.95712 216.193541 
L 58.0464 193.048367 
L 58.13568 195.227594 
L 58.22496 199.16866 
L 58.31424 216.193541 
L 58.40352 193.048367 
L 58.4928 195.227594 
L 58.58208 199.16866 
L 58.67136 216.193541 
L 58.76064 193.048367 
L 58.84992 195.227594 
L 58.9392 199.16866 
L 59.02848 216.193541 
L 59.11776 193.048367 
L 59.20704 195.227594 
L 59.29632 199.16866 
L 59.3856 216.193541 
L 59.47488 193.048367 
L 59.56416 195.227594 
L 59.65344 199.16866 
L 59.74272 216.193541 
L 59.832 193.048367 
L 59.92128 195.227594 
L 60.01056 199.16866 
L 60.09984 216.193541 
L 60.18912 193.048367 
L 60.2784 195.227594 
L 60.36768 199.16866 
L 60.45696 216.193541 
L 60.54624 193.048367 
L 60.63552 195.227594 
L 60.7248 199.16866 
L 60.81408 216.193541 
L 60.90336 193.048367 
L 60.99264 195.227594 
L 61.08192 199.16866 
L 61.1712 216.193541 
L 61.26048 193.048367 
L 61.34976 195.227594 
L 61.43904 199.16866 
L 61.52832 216.193541 
L 61.6176 193.048367 
L 61.70688 195.227594 
L 61.79616 199.16866 
L 61.88544 216.193541 
L 61.97472 193.048367 
L 62.064 195.227594 
L 62.15328 199.16866 
L 62.24256 216.193541 
L 62.33184 193.048367 
L 62.42112 195.227594 
L 62.5104 199.16866 
L 62.59968 216.193541 
L 62.68896 193.048367 
L 62.77824 195.227594 
L 62.86752 199.16866 
L 62.9568 216.193541 
L 63.04608 193.048367 
L 63.13536 195.227594 
L 63.22464 199.16866 
L 63.31392 216.193541 
L 63.4032 193.048367 
L 63.49248 195.227594 
L 63.58176 199.16866 
L 63.67104 216.193541 
L 63.76032 193.048367 
L 63.8496 195.227594 
L 63.93888 199.16866 
L 64.02816 216.193541 
L 64.11744 193.048367 
L 64.20672 195.227594 
L 64.296 199.16866 
L 64.38528 216.193541 
L 64.47456 193.048367 
L 64.56384 195.227594 
L 64.65312 199.16866 
L 64.7424 216.193541 
L 64.83168 193.048367 
L 64.92096 195.227594 
L 65.01024 199.16866 
L 65.09952 216.193541 
L 65.1888 193.048367 
L 65.27808 195.227594 
L 65.36736 199.16866 
L 65.45664 216.193541 
L 65.54592 193.048367 
L 65.6352 195.227594 
L 65.72448 199.16866 
L 65.81376 216.193541 
L 65.90304 193.048367 
L 65.99232 195.227594 
L 66.0816 199.16866 
L 66.17088 216.193541 
L 66.26016 193.048367 
L 66.34944 195.227594 
L 66.43872 199.16866 
L 66.528 153.315558 
L 66.61728 220.213907 
L 66.79584 162.649874 
L 66.88512 153.650596 
L 66.9744 227.114877 
L 67.06368 156.832368 
L 67.15296 185.642679 
L 67.33152 135.631978 
L 67.51008 218.622392 
L 67.68864 151.752792 
L 67.8672 224.165936 
L 68.04576 121.31227 
L 68.13504 130.705861 
L 68.3136 182.177102 
L 68.40288 285.408 
L 68.58144 159.720622 
L 68.67072 170.472497 
L 68.76 202.033156 
L 68.93856 155.872359 
L 69.11712 175.347025 
L 69.2064 159.048369 
L 69.38496 170.521581 
L 69.56352 225.875385 
L 69.6528 155.249258 
L 69.74208 198.246355 
L 69.83136 173.268378 
L 70.00992 183.328574 
L 70.18848 149.668025 
L 70.27776 176.253662 
L 70.45632 131.587434 
L 70.72416 193.609652 
L 70.81344 167.679669 
L 70.90272 260.110004 
L 70.992 182.894013 
L 71.08128 220.992185 
L 71.17056 173.354775 
L 71.25984 190.380489 
L 71.34912 147.710603 
L 71.4384 240.453893 
L 71.61696 160.064574 
L 71.70624 181.996335 
L 71.79552 128.547955 
L 71.8848 160.361052 
L 71.97408 144.45729 
L 72.24192 234.783858 
L 72.42048 145.745028 
L 72.50976 152.52605 
L 72.68832 229.859344 
L 72.86688 147.170501 
L 73.04544 244.091027 
L 73.224 170.728301 
L 73.31328 173.36332 
L 73.40256 148.589693 
L 73.49184 185.860679 
L 73.58112 173.618937 
L 73.6704 255.516731 
L 73.75968 132.709569 
L 73.84896 201.059316 
L 73.93824 167.767029 
L 74.02752 249.966816 
L 74.1168 123.424049 
L 74.20608 148.832862 
L 74.29536 119.052067 
L 74.38464 181.459505 
L 74.47392 130.23021 
L 74.5632 182.787722 
L 74.74176 139.277804 
L 74.83104 145.42858 
L 74.92032 148.051126 
L 75.0096 159.425407 
L 75.09888 201.065984 
L 75.27744 148.673051 
L 75.36672 154.960166 
L 75.456 163.04307 
L 75.54528 194.45023 
L 75.63456 143.588902 
L 75.72384 184.945265 
L 75.81312 177.521343 
L 75.9024 201.689923 
L 76.17024 165.175398 
L 76.25952 149.957634 
L 76.3488 232.241779 
L 76.43808 166.538513 
L 76.52736 176.769562 
L 76.61664 191.491893 
L 76.70592 130.372732 
L 76.7952 192.497438 
L 77.06304 135.284455 
L 77.2416 175.421052 
L 77.33088 165.299894 
L 77.42016 179.719497 
L 77.50944 146.183554 
L 77.59872 153.539195 
L 77.688 146.832106 
L 77.86656 165.192172 
L 77.95584 160.148096 
L 78.04512 195.342662 
L 78.1344 155.782783 
L 78.22368 198.933421 
L 78.31296 157.103193 
L 78.40224 164.957047 
L 78.5808 167.695301 
L 78.75936 143.117141 
L 78.84864 202.476429 
L 79.0272 125.729742 
L 79.38432 221.327031 
L 79.56288 161.742132 
L 79.65216 171.94675 
L 79.74144 149.103251 
L 79.83072 177.361189 
L 79.92 140.057603 
L 80.00928 257.286634 
L 80.18784 146.253901 
L 80.27712 152.453992 
L 80.3664 186.116168 
L 80.54496 121.863244 
L 80.72352 176.578447 
L 80.8128 159.672485 
L 80.99136 186.528803 
L 81.08064 188.245381 
L 81.16992 144.119906 
L 81.2592 189.772194 
L 81.34848 143.003003 
L 81.43776 146.182385 
L 81.52704 195.0769 
L 81.79488 163.193366 
L 81.88416 167.538414 
L 81.97344 167.247052 
L 82.06272 139.447368 
L 82.24128 183.562348 
L 82.33056 148.679357 
L 82.41984 148.801923 
L 82.50912 168.739405 
L 82.5984 136.154375 
L 82.68768 151.353072 
L 82.77696 143.156542 
L 82.86624 163.017407 
L 82.95552 139.117846 
L 83.0448 161.064502 
L 83.22336 130.367898 
L 83.31264 189.793593 
L 83.40192 143.239971 
L 83.4912 174.641073 
L 83.58048 254.02354 
L 83.66976 162.842096 
L 83.75904 190.079175 
L 83.9376 150.709238 
L 84.02688 186.680585 
L 84.20544 113.342379 
L 84.29472 193.913267 
L 84.384 159.093648 
L 84.47328 164.416704 
L 84.56256 216.386787 
L 84.65184 124.96952 
L 84.74112 138.3752 
L 84.8304 166.083506 
L 84.91968 115.506911 
L 85.00896 119.773176 
L 85.2768 211.041936 
L 85.45536 180.704176 
L 85.63392 140.17526 
L 85.81248 176.200114 
L 85.90176 153.948489 
L 85.99104 181.827962 
L 86.08032 175.533339 
L 86.1696 149.530793 
L 86.43744 210.623603 
L 86.70528 126.776264 
L 86.97312 183.267661 
L 87.15168 164.865904 
L 87.24096 257.021546 
L 87.33024 131.800106 
L 87.5088 182.136362 
L 87.59808 183.406524 
L 87.68736 159.927854 
L 87.77664 204.195425 
L 87.86592 171.841862 
L 88.04448 189.666206 
L 88.13376 121.253071 
L 88.22304 183.146384 
L 88.31232 170.840171 
L 88.4016 175.996499 
L 88.49088 216.537519 
L 88.58016 200.323629 
L 88.75872 134.955507 
L 88.848 214.184564 
L 89.02656 143.497979 
L 89.11584 153.83025 
L 89.20512 139.879492 
L 89.2944 206.582574 
L 89.47296 125.713162 
L 89.56224 166.17615 
L 89.65152 157.334859 
L 89.7408 171.188911 
L 89.83008 136.541316 
L 89.91936 167.574852 
L 90.00864 130.041465 
L 90.1872 188.744903 
L 90.27648 185.391433 
L 90.36576 158.671541 
L 90.45504 203.672026 
L 90.54432 128.137498 
L 90.6336 145.593979 
L 90.81216 127.422678 
L 90.99072 196.058687 
L 91.08 161.803464 
L 91.16928 179.584374 
L 91.25856 124.758842 
L 91.43712 188.419075 
L 91.5264 115.073306 
L 91.61568 191.065383 
L 91.70496 164.437224 
L 91.79424 209.434156 
L 91.88352 113.378718 
L 91.9728 171.812491 
L 92.06208 162.415284 
L 92.15136 177.435512 
L 92.24064 166.083111 
L 92.32992 231.427736 
L 92.4192 126.201361 
L 92.50848 216.748187 
L 92.68704 149.781273 
L 92.77632 225.029259 
L 92.8656 135.795008 
L 93.04416 180.437495 
L 93.13344 174.714615 
L 93.22272 153.075242 
L 93.40128 184.460819 
L 93.49056 147.425177 
L 93.57984 202.687745 
L 93.66912 156.394 
L 93.7584 194.945435 
L 93.84768 190.00433 
L 94.11552 128.145649 
L 94.2048 136.835545 
L 94.38336 227.352829 
L 94.47264 140.151469 
L 94.56192 158.462051 
L 94.6512 155.606011 
L 94.74048 177.922498 
L 94.82976 156.478303 
L 94.91904 186.432614 
L 95.18688 140.156803 
L 95.27616 154.037847 
L 95.36544 127.276496 
L 95.45472 173.034284 
L 95.544 156.990778 
L 95.72256 180.69448 
L 95.81184 148.464044 
L 95.90112 151.655562 
L 95.9904 194.987352 
L 96.07968 146.792062 
L 96.25824 201.838699 
L 96.34752 188.611389 
L 96.4368 139.906203 
L 96.52608 167.762556 
L 96.70464 143.661256 
L 96.79392 137.326884 
L 96.97248 149.537189 
L 97.06176 124.717292 
L 97.15104 163.538164 
L 97.24032 151.34448 
L 97.3296 184.381095 
L 97.41888 155.40852 
L 97.50816 188.750442 
L 97.59744 186.390939 
L 97.68672 131.968492 
L 97.86528 180.907217 
L 98.04384 143.457774 
L 98.13312 168.459714 
L 98.2224 163.226998 
L 98.31168 165.08942 
L 98.40096 142.167023 
L 98.57952 198.09569 
L 98.6688 150.131902 
L 98.75808 191.613796 
L 98.84736 133.122095 
L 98.93664 184.174774 
L 99.1152 156.33745 
L 99.29376 208.34835 
L 99.38304 143.993634 
L 99.47232 171.923355 
L 99.5616 134.875554 
L 99.65088 174.333954 
L 99.74016 128.78041 
L 99.82944 184.576892 
L 100.008 136.2176 
L 100.09728 138.138137 
L 100.18656 172.964494 
L 100.27584 156.582944 
L 100.36512 170.220529 
L 100.54368 160.892689 
L 100.63296 162.090606 
L 100.81152 202.09868 
L 100.9008 162.365131 
L 100.99008 171.938703 
L 101.16864 159.832884 
L 101.25792 177.019197 
L 101.3472 114.291324 
L 101.52576 175.107078 
L 101.61504 129.892668 
L 101.70432 137.945359 
L 101.7936 171.104453 
L 101.97216 115.326214 
L 102.15072 193.171471 
L 102.32928 139.627061 
L 102.41856 161.667082 
L 102.50784 123.55619 
L 102.59712 135.43718 
L 102.6864 193.97363 
L 102.86496 155.051937 
L 102.95424 192.716024 
L 103.1328 163.122364 
L 103.22208 197.121495 
L 103.31136 139.35634 
L 103.40064 147.030573 
L 103.48992 150.24404 
L 103.5792 201.903055 
L 103.66848 120.363249 
L 103.75776 180.418425 
L 103.84704 144.551502 
L 104.0256 203.275236 
L 104.11488 138.719786 
L 104.20416 161.940621 
L 104.29344 132.067348 
L 104.38272 152.99542 
L 104.472 150.590815 
L 104.56128 139.20045 
L 104.65056 169.984189 
L 104.73984 137.545291 
L 104.82912 175.389895 
L 104.9184 108.86397 
L 105.00768 188.562263 
L 105.09696 145.152527 
L 105.18624 197.920387 
L 105.3648 116.73292 
L 105.54336 152.026811 
L 105.63264 168.729741 
L 105.72192 153.108063 
L 105.8112 154.258105 
L 105.90048 146.57135 
L 105.98976 189.289763 
L 106.07904 139.323104 
L 106.16832 155.977303 
L 106.2576 150.510349 
L 106.34688 171.260563 
L 106.43616 147.428883 
L 106.52544 182.594665 
L 106.61472 182.246067 
L 106.704 182.099846 
L 106.79328 153.656782 
L 106.88256 162.380627 
L 106.97184 159.103838 
L 107.06112 140.32413 
L 107.1504 158.336149 
L 107.23968 146.040998 
L 107.32896 160.17844 
L 107.41824 152.765933 
L 107.50752 162.671512 
L 107.5968 132.385849 
L 107.68608 136.581603 
L 107.77536 141.133801 
L 107.86464 175.204029 
L 108.0432 115.970432 
L 108.13248 175.921168 
L 108.22176 144.842935 
L 108.40032 206.006778 
L 108.4896 158.140029 
L 108.57888 201.889376 
L 108.66816 156.551804 
L 108.75744 178.30239 
L 109.02528 139.611263 
L 109.11456 184.079476 
L 109.29312 129.258409 
L 109.3824 133.146496 
L 109.47168 174.579835 
L 109.56096 133.664026 
L 109.65024 167.124018 
L 109.73952 129.781654 
L 109.8288 136.716976 
L 109.91808 153.845405 
L 110.00736 145.595139 
L 110.09664 170.685418 
L 110.18592 155.732247 
L 110.36448 163.111727 
L 110.45376 210.113679 
L 110.63232 149.067151 
L 110.7216 171.980658 
L 110.90016 145.693226 
L 110.98944 150.736265 
L 111.07872 198.498675 
L 111.168 183.500169 
L 111.25728 188.813196 
L 111.43584 131.729756 
L 111.52512 185.833394 
L 111.6144 146.895109 
L 111.70368 151.848369 
L 111.79296 204.224189 
L 111.97152 126.92482 
L 112.0608 145.705371 
L 112.15008 134.775504 
L 112.32864 161.864798 
L 112.41792 157.743734 
L 112.5072 143.900136 
L 112.68576 163.346247 
L 112.77504 164.000177 
L 113.13216 129.336659 
L 113.31072 171.689151 
L 113.4 136.465764 
L 113.48928 145.255433 
L 113.57856 121.741931 
L 113.66784 149.343575 
L 113.75712 133.788484 
L 113.8464 158.633951 
L 113.93568 131.499129 
L 114.02496 209.977326 
L 114.11424 150.123294 
L 114.20352 210.102782 
L 114.2928 207.190953 
L 114.38208 177.724001 
L 114.56064 195.15592 
L 114.7392 107.000692 
L 114.82848 114.716812 
L 114.91776 186.471194 
L 115.00704 141.274882 
L 115.1856 180.761951 
L 115.27488 152.600441 
L 115.54272 213.97757 
L 115.72128 123.925942 
L 115.81056 160.072572 
L 115.98912 120.694638 
L 116.16768 169.083062 
L 116.25696 134.064268 
L 116.34624 164.12543 
L 116.43552 162.587212 
L 116.5248 123.679359 
L 116.61408 137.149938 
L 116.70336 178.877503 
L 116.79264 159.505879 
L 116.88192 114.23809 
L 116.9712 147.794957 
L 117.06048 134.774709 
L 117.23904 213.859308 
L 117.50688 112.777583 
L 117.77472 160.335095 
L 117.95328 146.323989 
L 118.04256 157.868186 
L 118.3104 123.436188 
L 118.48896 173.302405 
L 118.57824 134.791899 
L 118.66752 138.926045 
L 118.7568 145.849525 
L 118.84608 139.157385 
L 118.93536 118.05741 
L 119.02464 163.718862 
L 119.2032 127.298975 
L 119.29248 194.570673 
L 119.47104 132.047809 
L 119.56032 173.643334 
L 119.73888 108.435679 
L 119.91744 174.010549 
L 120.00672 167.438521 
L 120.18528 152.732588 
L 120.27456 188.94136 
L 120.5424 120.381689 
L 120.63168 127.955129 
L 120.72096 187.513003 
L 120.81024 163.703868 
L 120.89952 221.76661 
L 120.9888 122.494407 
L 121.16736 193.30209 
L 121.25664 173.031428 
L 121.34592 91.751694 
L 121.4352 174.902998 
L 121.52448 164.009309 
L 121.70304 110.985581 
L 121.79232 182.928011 
L 121.8816 128.461437 
L 122.06016 205.630789 
L 122.14944 214.561534 
L 122.328 144.381181 
L 122.41728 142.654166 
L 122.50656 158.266392 
L 122.59584 154.987195 
L 122.68512 113.807449 
L 122.7744 153.884347 
L 122.86368 123.863104 
L 122.95296 174.260293 
L 123.04224 135.739973 
L 123.13152 220.694697 
L 123.31008 136.166397 
L 123.48864 151.529457 
L 123.57792 147.534454 
L 123.6672 159.85753 
L 123.75648 158.326111 
L 123.93504 128.902299 
L 124.1136 202.381113 
L 124.29216 133.874948 
L 124.38144 143.527486 
L 124.47072 151.269919 
L 124.56 142.513729 
L 124.73856 190.460497 
L 124.82784 131.338934 
L 124.91712 142.710949 
L 125.0064 190.143358 
L 125.09568 118.086374 
L 125.36352 190.622915 
L 125.54208 140.674766 
L 125.63136 171.843543 
L 125.72064 124.307238 
L 125.80992 223.032439 
L 125.8992 129.443605 
L 126.07776 192.524184 
L 126.25632 148.981368 
L 126.3456 150.859395 
L 126.43488 203.1002 
L 126.52416 130.320095 
L 126.61344 155.358522 
L 126.70272 105.974656 
L 126.792 154.44158 
L 126.88128 124.96959 
L 126.97056 138.2673 
L 127.05984 196.056752 
L 127.14912 182.411059 
L 127.2384 119.993509 
L 127.32768 152.167332 
L 127.41696 127.830299 
L 127.50624 166.678876 
L 127.59552 164.378175 
L 127.6848 168.183281 
L 127.77408 131.03348 
L 127.86336 176.306272 
L 127.95264 165.507798 
L 128.1312 136.670543 
L 128.22048 133.57533 
L 128.39904 189.716881 
L 128.48832 137.369605 
L 128.5776 185.809143 
L 128.75616 142.047648 
L 128.84544 152.60138 
L 128.93472 195.242598 
L 129.20256 125.561398 
L 129.29184 131.229213 
L 129.38112 155.118975 
L 129.4704 123.991526 
L 129.55968 202.92317 
L 129.73824 146.108077 
L 129.82752 136.192409 
L 129.9168 137.527547 
L 130.00608 194.885996 
L 130.09536 124.95565 
L 130.18464 130.80144 
L 130.27392 236.719982 
L 130.45248 135.316118 
L 130.54176 164.808748 
L 130.63104 146.296047 
L 130.72032 157.233298 
L 130.8096 155.096123 
L 130.89888 110.452225 
L 130.98816 131.064896 
L 131.07744 117.201854 
L 131.16672 176.413185 
L 131.256 129.929408 
L 131.43456 157.722553 
L 131.52384 160.897826 
L 131.61312 160.795947 
L 131.7024 216.287205 
L 131.79168 188.031271 
L 131.88096 112.028219 
L 132.05952 170.498964 
L 132.23808 119.324074 
L 132.32736 196.233298 
L 132.41664 142.167553 
L 132.50592 167.422347 
L 132.68448 115.257728 
L 132.95232 192.528886 
L 133.13088 123.503745 
L 133.22016 246.840208 
L 133.39872 127.543777 
L 133.488 119.375179 
L 133.57728 122.162506 
L 133.75584 147.79772 
L 133.84512 165.654328 
L 133.9344 146.865554 
L 134.02368 167.322722 
L 134.20224 148.299552 
L 134.29152 164.643659 
L 134.3808 132.4045 
L 134.47008 147.688576 
L 134.55936 142.685124 
L 134.64864 131.077954 
L 134.91648 175.156973 
L 135.00576 154.227456 
L 135.09504 162.781721 
L 135.2736 117.747264 
L 135.36288 141.110507 
L 135.45216 109.016505 
L 135.63072 185.613693 
L 135.72 154.319453 
L 135.80928 159.487956 
L 135.89856 161.553237 
L 135.98784 123.355472 
L 136.25568 162.587127 
L 136.43424 125.752695 
L 136.52352 180.833106 
L 136.6128 139.567491 
L 136.79136 176.077992 
L 136.88064 131.88593 
L 136.96992 194.04012 
L 137.14848 143.044573 
L 137.23776 149.969084 
L 137.41632 210.325523 
L 137.5056 123.665121 
L 137.59488 152.327017 
L 137.68416 265.002766 
L 137.86272 115.437028 
L 137.952 128.717167 
L 138.04128 227.394188 
L 138.21984 148.288502 
L 138.30912 167.40498 
L 138.3984 101.344055 
L 138.48768 259.163658 
L 138.57696 123.507471 
L 138.66624 144.349616 
L 138.75552 124.398653 
L 139.02336 195.042829 
L 139.20192 129.554597 
L 139.2912 178.033175 
L 139.38048 130.876499 
L 139.46976 154.455772 
L 139.55904 132.864377 
L 139.7376 195.670023 
L 139.82688 140.257791 
L 139.91616 204.325913 
L 140.184 126.370172 
L 140.27328 164.107769 
L 140.36256 134.896155 
L 140.54112 170.880192 
L 140.71968 116.611808 
L 140.80896 169.249042 
L 140.89824 162.787615 
L 141.0768 127.5597 
L 141.16608 142.83067 
L 141.25536 180.273713 
L 141.34464 170.61769 
L 141.43392 125.172174 
L 141.5232 163.137466 
L 141.61248 143.763038 
L 141.79104 254.325926 
L 141.88032 147.927574 
L 141.9696 164.530961 
L 142.05888 135.744969 
L 142.14816 155.334313 
L 142.32672 144.538883 
L 142.416 144.434867 
L 142.50528 117.001706 
L 142.8624 161.360364 
L 142.95168 133.18737 
L 143.04096 252.030103 
L 143.13024 145.713509 
L 143.3088 193.901019 
L 143.39808 150.814663 
L 143.48736 217.258388 
L 143.57664 135.857916 
L 143.66592 147.173839 
L 143.7552 119.095439 
L 143.84448 135.777202 
L 143.93376 122.221172 
L 144.11232 166.857225 
L 144.29088 110.333991 
L 144.38016 176.67153 
L 144.46944 125.44456 
L 144.55872 132.181218 
L 145.00512 196.604489 
L 145.0944 168.951287 
L 145.18368 197.38181 
L 145.27296 146.399493 
L 145.36224 146.776469 
L 145.45152 149.515041 
L 145.63008 164.656106 
L 145.71936 158.173369 
L 145.80864 180.649014 
L 145.89792 158.907036 
L 145.9872 174.880962 
L 146.16576 136.368948 
L 146.25504 128.400255 
L 146.34432 160.800993 
L 146.52288 114.238305 
L 146.70144 149.849059 
L 146.79072 129.295652 
L 146.88 156.86564 
L 146.96928 110.753071 
L 147.05856 139.564483 
L 147.14784 238.133079 
L 147.3264 137.906386 
L 147.41568 206.964262 
L 147.59424 135.285212 
L 147.68352 205.805542 
L 147.95136 106.917157 
L 148.04064 173.533235 
L 148.2192 133.242168 
L 148.30848 158.948466 
L 148.39776 138.62752 
L 148.48704 203.108944 
L 148.6656 152.115335 
L 148.75488 161.309678 
L 148.93344 106.59755 
L 149.112 221.545703 
L 149.29056 124.096241 
L 149.37984 122.013105 
L 149.64768 180.054227 
L 149.73696 141.460188 
L 149.82624 168.507229 
L 149.91552 141.69493 
L 150.0048 205.774855 
L 150.18336 148.320602 
L 150.27264 140.491124 
L 150.36192 152.160306 
L 150.54048 198.241598 
L 150.80832 138.957536 
L 150.8976 161.93439 
L 150.98688 146.732599 
L 151.07616 153.609929 
L 151.16544 144.580262 
L 151.25472 151.000627 
L 151.344 145.392214 
L 151.43328 164.916934 
L 151.52256 128.284577 
L 151.61184 163.205414 
L 151.70112 119.407995 
L 151.7904 124.77334 
L 151.87968 181.162016 
L 151.96896 130.720938 
L 152.2368 179.515795 
L 152.32608 84.825362 
L 152.41536 206.115223 
L 152.50464 152.828605 
L 152.59392 232.782121 
L 152.77248 110.247158 
L 152.86176 119.21295 
L 152.95104 168.372266 
L 153.04032 151.891772 
L 153.1296 113.202673 
L 153.21888 139.435287 
L 153.30816 134.736982 
L 153.48672 199.747917 
L 153.576 247.720794 
L 153.66528 115.874895 
L 153.75456 146.120845 
L 153.84384 148.452281 
L 153.93312 163.211458 
L 154.0224 162.797182 
L 154.11168 105.090623 
L 154.20096 169.257403 
L 154.29024 122.964635 
L 154.37952 147.359056 
L 154.4688 119.427256 
L 154.55808 176.529613 
L 154.64736 118.088148 
L 154.73664 136.542701 
L 154.82592 110.91469 
L 155.09376 238.415806 
L 155.27232 144.170978 
L 155.3616 107.801979 
L 155.45088 164.747996 
L 155.62944 96.938141 
L 155.808 179.785627 
L 155.89728 98.890792 
L 156.07584 156.575888 
L 156.16512 241.489164 
L 156.2544 100.779025 
L 156.34368 156.708833 
L 156.52224 132.789574 
L 156.61152 119.942462 
L 156.7008 134.745636 
L 156.79008 101.164294 
L 156.96864 144.531841 
L 157.05792 125.386386 
L 157.1472 194.777282 
L 157.23648 122.727362 
L 157.32576 130.025676 
L 157.41504 143.238226 
L 157.50432 132.331312 
L 157.5936 142.363308 
L 157.77216 180.755173 
L 157.86144 111.278323 
L 157.95072 122.767588 
L 158.04 171.542668 
L 158.21856 101.793955 
L 158.39712 159.151519 
L 158.4864 120.018122 
L 158.57568 151.793711 
L 158.75424 118.418356 
L 158.9328 134.14168 
L 159.11136 99.554184 
L 159.28992 131.301118 
L 159.3792 129.763278 
L 159.46848 132.07824 
L 159.55776 131.598733 
L 159.64704 131.592241 
L 159.73632 109.841071 
L 159.8256 150.984456 
L 159.91488 113.478382 
L 160.00416 124.988258 
L 160.09344 153.775279 
L 160.18272 88.639606 
L 160.45056 201.166543 
L 160.53984 138.142049 
L 160.62912 145.034675 
L 160.80768 116.437168 
L 161.07552 146.384791 
L 161.34336 110.791312 
L 161.52192 154.898691 
L 161.6112 103.947344 
L 161.70048 115.378237 
L 161.78976 125.386158 
L 161.96832 115.546918 
L 162.0576 159.167481 
L 162.14688 112.757861 
L 162.23616 159.474148 
L 162.32544 152.458342 
L 162.41472 155.279771 
L 162.59328 124.29687 
L 162.68256 133.175672 
L 162.77184 112.443706 
L 163.03968 142.184918 
L 163.12896 116.966011 
L 163.21824 141.475172 
L 163.30752 107.488588 
L 163.57536 156.428048 
L 163.66464 110.306219 
L 163.75392 127.423666 
L 164.02176 114.808342 
L 164.11104 197.883243 
L 164.2896 117.501028 
L 164.46816 151.154765 
L 164.55744 148.750197 
L 164.64672 167.118899 
L 164.736 163.446668 
L 164.82528 128.117242 
L 164.91456 157.992481 
L 165.09312 125.415808 
L 165.1824 130.166177 
L 165.27168 161.065842 
L 165.36096 106.78851 
L 165.45024 162.254171 
L 165.53952 121.881157 
L 165.6288 122.406419 
L 165.71808 124.872061 
L 165.80736 140.9449 
L 165.89664 132.685568 
L 165.98592 166.846231 
L 166.0752 110.038318 
L 166.16448 157.76293 
L 166.25376 145.528796 
L 166.34304 158.322388 
L 166.43232 116.414218 
L 166.5216 125.005801 
L 166.61088 181.816652 
L 166.70016 115.047518 
L 166.78944 183.043556 
L 166.87872 120.275014 
L 166.968 127.648776 
L 167.05728 123.296068 
L 167.23584 144.047961 
L 167.32512 132.299613 
L 167.4144 162.743349 
L 167.50368 109.741226 
L 167.8608 168.052467 
L 168.03936 120.06068 
L 168.12864 137.950702 
L 168.21792 120.511548 
L 168.39648 193.241326 
L 168.57504 126.998976 
L 168.66432 178.32225 
L 168.7536 126.308241 
L 168.84288 131.041677 
L 168.93216 113.924622 
L 169.02144 118.606401 
L 169.11072 133.930408 
L 169.2 127.879399 
L 169.28928 149.604856 
L 169.37856 138.726879 
L 169.46784 139.296845 
L 169.55712 131.542781 
L 169.6464 198.400281 
L 169.82496 105.821754 
L 170.00352 145.099556 
L 170.0928 125.2786 
L 170.18208 186.46357 
L 170.36064 89.761891 
L 170.44992 100.825624 
L 170.5392 92.064062 
L 170.71776 144.346053 
L 170.80704 212.311191 
L 170.9856 99.860821 
L 171.25344 180.888773 
L 171.432 139.845147 
L 171.52128 139.331047 
L 171.61056 153.512709 
L 171.69984 117.53687 
L 171.8784 152.2116 
L 171.96768 99.297231 
L 172.05696 125.370458 
L 172.14624 106.280446 
L 172.23552 135.527649 
L 172.41408 85.488588 
L 172.50336 115.223767 
L 172.59264 113.002507 
L 172.68192 107.907737 
L 172.86048 131.032191 
L 172.94976 122.800217 
L 173.03904 167.978007 
L 173.2176 116.66754 
L 173.30688 169.64056 
L 173.39616 142.66589 
L 173.48544 147.138544 
L 173.664 153.478232 
L 173.75328 136.850589 
L 173.84256 181.15662 
L 174.02112 121.054474 
L 174.1104 98.094395 
L 174.19968 131.706754 
L 174.37824 119.802934 
L 174.46752 147.726459 
L 174.5568 114.064834 
L 174.82464 134.409481 
L 174.91392 108.667593 
L 175.09248 120.916333 
L 175.18176 119.314718 
L 175.36032 110.172242 
L 175.4496 110.244562 
L 175.53888 134.160214 
L 175.62816 96.65668 
L 175.71744 125.08236 
L 175.80672 94.495828 
L 175.896 219.079954 
L 175.98528 115.501764 
L 176.07456 124.031563 
L 176.16384 140.553749 
L 176.3424 80.296222 
L 176.43168 119.006143 
L 176.52096 108.390458 
L 176.61024 130.997254 
L 176.69952 123.69585 
L 176.7888 126.495772 
L 176.87808 157.167187 
L 176.96736 118.57373 
L 177.14592 149.68456 
L 177.32448 98.543671 
L 177.41376 98.58424 
L 177.50304 116.280413 
L 177.86016 101.148283 
L 178.03872 135.72147 
L 178.21728 100.418312 
L 178.30656 105.505488 
L 178.48512 136.987481 
L 178.5744 110.781786 
L 178.66368 134.824692 
L 178.75296 116.154779 
L 178.84224 130.171343 
L 178.93152 120.754058 
L 179.0208 181.508977 
L 179.11008 101.580928 
L 179.37792 161.791991 
L 179.55648 107.369063 
L 179.64576 160.615043 
L 179.73504 86.327558 
L 179.82432 97.081241 
L 179.9136 145.060399 
L 180.09216 114.514221 
L 180.18144 100.500551 
L 180.27072 105.598321 
L 180.36 129.195079 
L 180.44928 122.635362 
L 180.53856 135.048073 
L 180.62784 110.510856 
L 180.71712 138.894468 
L 180.8064 120.705181 
L 180.89568 133.395071 
L 180.98496 129.930507 
L 181.07424 117.734637 
L 181.16352 118.362237 
L 181.2528 109.270087 
L 181.34208 160.745738 
L 181.43136 103.312132 
L 181.60992 131.857906 
L 181.6992 100.241708 
L 181.78848 132.952944 
L 181.87776 101.069338 
L 182.05632 133.109099 
L 182.1456 108.569119 
L 182.23488 146.611852 
L 182.41344 102.06745 
L 182.50272 159.10451 
L 182.68128 123.542011 
L 182.85984 101.194621 
L 182.94912 99.508319 
L 183.0384 142.54605 
L 183.12768 120.346123 
L 183.21696 188.805303 
L 183.30624 123.06518 
L 183.39552 126.48744 
L 183.57408 116.938291 
L 183.66336 130.496618 
L 183.75264 105.040669 
L 183.84192 136.042995 
L 183.9312 96.177408 
L 184.02048 121.457581 
L 184.10976 188.9268 
L 184.28832 99.18993 
L 184.3776 135.847338 
L 184.46688 134.972024 
L 184.55616 145.848278 
L 184.64544 141.738308 
L 184.73472 102.843945 
L 184.824 121.546894 
L 184.91328 100.074049 
L 185.09184 128.7826 
L 185.18112 115.869003 
L 185.2704 119.342906 
L 185.35968 118.350931 
L 185.44896 146.364114 
L 185.53824 124.513936 
L 185.62752 153.83804 
L 185.80608 118.909352 
L 185.98464 148.959872 
L 186.1632 113.369724 
L 186.34176 121.194845 
L 186.52032 91.230908 
L 186.6096 129.982296 
L 186.69888 127.068609 
L 186.78816 143.905308 
L 187.056 88.002876 
L 187.14528 124.62109 
L 187.23456 120.345781 
L 187.32384 128.237608 
L 187.41312 161.196276 
L 187.5024 120.646297 
L 187.59168 142.82966 
L 187.68096 111.347104 
L 187.85952 136.879368 
L 187.9488 92.143899 
L 188.12736 124.170864 
L 188.30592 112.984523 
L 188.3952 123.653784 
L 188.48448 103.408702 
L 188.57376 105.150168 
L 188.66304 153.069223 
L 188.75232 144.331903 
L 188.8416 142.861478 
L 188.93088 130.803617 
L 189.02016 96.846589 
L 189.10944 119.517374 
L 189.19872 194.263059 
L 189.288 127.380514 
L 189.37728 142.955507 
L 189.46656 171.644563 
L 189.55584 111.192215 
L 189.64512 147.744106 
L 189.7344 95.930914 
L 189.82368 107.547272 
L 189.91296 115.264158 
L 190.00224 140.255013 
L 190.09152 101.586893 
L 190.35936 131.595566 
L 190.6272 106.158191 
L 190.71648 123.828208 
L 190.80576 117.593738 
L 190.89504 128.847869 
L 190.98432 104.818907 
L 191.0736 152.975384 
L 191.16288 108.574158 
L 191.34144 138.325619 
L 191.52 93.887696 
L 191.69856 142.708685 
L 191.87712 97.804036 
L 191.9664 128.154183 
L 192.05568 123.736808 
L 192.23424 118.564344 
L 192.32352 90.883092 
L 192.59136 120.580775 
L 192.76992 91.345356 
L 192.8592 121.897199 
L 192.94848 92.803174 
L 193.03776 97.97108 
L 193.12704 136.271345 
L 193.21632 110.018835 
L 193.3056 157.266076 
L 193.39488 114.521543 
L 193.48416 151.344578 
L 193.66272 102.951753 
L 193.84128 149.849642 
L 193.93056 99.744756 
L 194.01984 107.5006 
L 194.10912 141.813265 
L 194.1984 106.510189 
L 194.28768 152.730925 
L 194.37696 139.796769 
L 194.46624 99.498721 
L 194.55552 108.594266 
L 194.73408 130.440787 
L 194.82336 131.256701 
L 194.91264 103.617254 
L 195.0912 121.983686 
L 195.18048 118.420914 
L 195.26976 110.326504 
L 195.35904 136.676998 
L 195.44832 113.364033 
L 195.5376 130.690393 
L 195.62688 98.332158 
L 195.89472 150.758645 
L 195.984 97.496702 
L 196.25184 158.735515 
L 196.34112 126.733739 
L 196.4304 154.77147 
L 196.60896 104.672331 
L 196.69824 138.42704 
L 196.78752 104.960707 
L 197.05536 132.784028 
L 197.14464 100.936991 
L 197.23392 137.778794 
L 197.41248 100.14662 
L 197.50176 103.884398 
L 197.59104 90.780122 
L 197.68032 147.556922 
L 197.7696 88.614089 
L 197.94816 118.344524 
L 198.03744 129.763144 
L 198.12672 110.926114 
L 198.216 146.683333 
L 198.30528 101.39845 
L 198.39456 112.353914 
L 198.48384 88.594136 
L 198.57312 115.949873 
L 198.6624 111.255672 
L 198.75168 116.262456 
L 198.84096 111.55063 
L 198.93024 125.851935 
L 199.01952 113.002128 
L 199.1088 122.596107 
L 199.19808 95.992629 
L 199.28736 112.296178 
L 199.37664 108.414681 
L 199.46592 109.546095 
L 199.5552 130.866519 
L 199.73376 100.09288 
L 199.82304 92.18972 
L 199.91232 99.644443 
L 200.0016 121.174778 
L 200.26944 83.053335 
L 200.448 144.225072 
L 200.53728 101.982183 
L 200.80512 145.275005 
L 200.98368 108.147399 
L 201.07296 119.205759 
L 201.16224 95.514501 
L 201.25152 108.064527 
L 201.3408 98.749078 
L 201.43008 137.340524 
L 201.60864 100.568745 
L 201.69792 132.982943 
L 201.7872 88.396251 
L 201.87648 98.429875 
L 202.05504 136.33165 
L 202.14432 112.951205 
L 202.2336 113.333341 
L 202.32288 108.039369 
L 202.41216 134.417822 
L 202.50144 110.670378 
L 202.59072 143.906217 
L 202.76928 102.24632 
L 202.85856 108.572244 
L 202.94784 106.448802 
L 203.03712 180.29178 
L 203.30496 95.77847 
L 203.5728 145.941105 
L 203.84064 83.441676 
L 204.0192 122.931944 
L 204.10848 128.914044 
L 204.19776 106.183339 
L 204.28704 145.657727 
L 204.37632 103.234495 
L 204.4656 116.237727 
L 204.55488 111.383116 
L 204.64416 114.443405 
L 204.73344 127.47936 
L 204.82272 122.921186 
L 204.912 126.551775 
L 205.00128 97.308519 
L 205.09056 106.433809 
L 205.17984 99.681548 
L 205.26912 102.553996 
L 205.3584 121.997472 
L 205.44768 101.816054 
L 205.62624 130.835511 
L 205.71552 106.695373 
L 205.8048 134.768594 
L 205.89408 128.044384 
L 205.98336 132.041271 
L 206.07264 119.533004 
L 206.16192 139.392299 
L 206.2512 105.010733 
L 206.34048 154.365956 
L 206.42976 110.827362 
L 206.51904 122.375286 
L 206.60832 152.346575 
L 206.6976 111.274797 
L 206.78688 126.871787 
L 206.87616 94.809301 
L 207.05472 134.321051 
L 207.23328 94.639833 
L 207.32256 101.926698 
L 207.41184 101.680132 
L 207.50112 105.4552 
L 207.5904 84.905807 
L 207.76896 139.285359 
L 207.85824 112.922157 
L 207.94752 127.921262 
L 208.0368 106.527444 
L 208.12608 139.241127 
L 208.21536 107.254748 
L 208.30464 152.308385 
L 208.39392 142.94639 
L 208.4832 161.970936 
L 208.66176 97.386876 
L 208.75104 150.45984 
L 208.84032 109.12886 
L 209.01888 127.084599 
L 209.19744 110.447995 
L 209.28672 104.245948 
L 209.55456 112.512831 
L 209.64384 125.882792 
L 209.73312 97.61695 
L 209.8224 110.864993 
L 209.91168 99.858803 
L 210.00096 117.18274 
L 210.17952 85.459655 
L 210.2688 97.786137 
L 210.35808 169.52963 
L 210.44736 109.580855 
L 210.53664 121.872101 
L 210.62592 102.272764 
L 210.80448 136.553871 
L 210.98304 109.366921 
L 211.07232 139.168538 
L 211.1616 92.617222 
L 211.25088 134.085098 
L 211.42944 104.102204 
L 211.51872 114.715503 
L 211.608 90.165077 
L 211.69728 95.560207 
L 211.87584 136.694715 
L 212.0544 110.957583 
L 212.14368 109.905501 
L 212.32224 100.822128 
L 212.41152 110.050338 
L 212.59008 93.15746 
L 212.85792 113.408775 
L 212.9472 115.152615 
L 213.03648 111.71844 
L 213.12576 131.169803 
L 213.30432 92.195153 
L 213.3936 117.080598 
L 213.48288 117.047139 
L 213.57216 93.137573 
L 213.84 136.894764 
L 214.01856 105.655333 
L 214.10784 111.918655 
L 214.19712 140.29687 
L 214.2864 96.130111 
L 214.37568 131.299679 
L 214.64352 94.063497 
L 214.7328 121.804799 
L 214.82208 107.094807 
L 214.91136 119.226356 
L 215.00064 105.457495 
L 215.1792 164.71137 
L 215.26848 160.244901 
L 215.35776 113.76174 
L 215.44704 129.47804 
L 215.6256 103.519478 
L 215.71488 132.677872 
L 215.80416 98.07422 
L 215.89344 102.114829 
L 215.98272 123.06504 
L 216.072 114.507291 
L 216.16128 95.115201 
L 216.33984 138.304189 
L 216.42912 117.86678 
L 216.5184 143.804454 
L 216.60768 118.720746 
L 216.69696 121.460189 
L 216.78624 128.111792 
L 216.9648 95.001816 
L 217.14336 132.116732 
L 217.23264 96.895899 
L 217.32192 118.822798 
L 217.4112 97.034603 
L 217.50048 113.645473 
L 217.58976 92.611644 
L 217.76832 137.428435 
L 217.94688 109.82234 
L 218.03616 126.072521 
L 218.21472 97.04763 
L 218.304 104.84353 
L 218.48256 82.199987 
L 218.57184 116.783946 
L 218.66112 102.891113 
L 218.7504 113.406495 
L 218.83968 109.663832 
L 218.92896 122.382521 
L 219.01824 90.412167 
L 219.1968 108.741925 
L 219.28608 104.600433 
L 219.37536 142.895181 
L 219.46464 90.503545 
L 219.55392 100.89109 
L 219.73248 135.419851 
L 219.91104 102.680774 
L 220.00032 137.162894 
L 220.0896 123.619469 
L 220.17888 141.449393 
L 220.536 95.120401 
L 220.71456 101.565575 
L 220.80384 122.285972 
L 220.89312 107.193618 
L 221.16096 137.826197 
L 221.33952 114.34103 
L 221.4288 115.602723 
L 221.51808 121.426134 
L 221.60736 136.844058 
L 221.69664 100.101483 
L 221.78592 105.289657 
L 221.8752 124.860743 
L 221.96448 91.380597 
L 222.05376 103.756031 
L 222.23232 89.607079 
L 222.3216 114.539178 
L 222.41088 97.907297 
L 222.50016 140.290711 
L 222.58944 88.394559 
L 222.67872 96.988774 
L 222.768 106.082881 
L 222.85728 148.446131 
L 223.03584 96.441401 
L 223.12512 123.713946 
L 223.2144 118.94034 
L 223.30368 141.517808 
L 223.48224 107.155497 
L 223.57152 113.83954 
L 223.83936 98.567647 
L 224.01792 133.97013 
L 224.19648 102.000153 
L 224.28576 116.953902 
L 224.37504 97.491582 
L 224.46432 109.514306 
L 224.5536 93.305094 
L 224.64288 129.6924 
L 224.91072 94.200482 
L 225 119.676125 
L 225.08928 93.192316 
L 225.17856 124.03008 
L 225.26784 86.339501 
L 225.4464 131.151489 
L 225.53568 113.622958 
L 225.62496 118.970681 
L 225.71424 104.152125 
L 225.80352 136.814469 
L 225.98208 103.649421 
L 226.07136 108.179885 
L 226.16064 121.6618 
L 226.24992 102.608355 
L 226.42848 124.088337 
L 226.51776 121.209969 
L 226.60704 92.794628 
L 226.7856 118.646926 
L 226.96416 81.704792 
L 227.05344 109.43173 
L 227.14272 86.269972 
L 227.32128 124.238231 
L 227.49984 106.226682 
L 227.58912 133.81794 
L 227.6784 90.341081 
L 227.76768 96.246495 
L 227.94624 106.111348 
L 228.03552 101.555752 
L 228.1248 105.399884 
L 228.21408 131.708731 
L 228.30336 98.687818 
L 228.48192 152.78338 
L 228.5712 138.254726 
L 228.74976 88.721628 
L 228.83904 115.893438 
L 228.92832 101.4648 
L 229.0176 103.428797 
L 229.10688 116.227824 
L 229.464 86.995474 
L 229.64256 118.332356 
L 229.73184 103.9348 
L 229.82112 121.647069 
L 229.9104 85.96359 
L 229.99968 117.655986 
L 230.17824 92.255883 
L 230.26752 99.763785 
L 230.3568 84.937309 
L 230.44608 86.295453 
L 230.53536 97.684847 
L 230.62464 97.09627 
L 230.71392 86.106145 
L 230.89248 117.03959 
L 231.07104 88.496269 
L 231.33888 111.746021 
L 231.51744 83.07603 
L 231.60672 121.385157 
L 231.696 88.169068 
L 231.87456 102.336458 
L 231.96384 137.982243 
L 232.1424 106.288582 
L 232.23168 107.622404 
L 232.32096 125.704181 
L 232.41024 106.644494 
L 232.49952 113.435536 
L 232.5888 151.20592 
L 232.67808 133.45132 
L 232.76736 88.587009 
L 232.85664 99.017848 
L 232.94592 100.32183 
L 233.12448 112.464866 
L 233.21376 118.675817 
L 233.57088 97.330348 
L 233.66016 91.651769 
L 233.83872 113.482963 
L 233.928 103.853225 
L 234.01728 130.381188 
L 234.19584 91.331615 
L 234.28512 104.567048 
L 234.3744 97.401975 
L 234.46368 97.614944 
L 234.55296 109.423321 
L 234.64224 101.222427 
L 234.8208 130.652812 
L 234.91008 88.281665 
L 234.99936 105.131465 
L 235.17792 96.941732 
L 235.2672 108.957909 
L 235.35648 165.419721 
L 235.44576 99.938819 
L 235.53504 120.469304 
L 235.62432 93.721846 
L 235.7136 156.613781 
L 235.80288 104.43863 
L 235.89216 111.962399 
L 235.98144 137.213439 
L 236.16 99.453584 
L 236.24928 113.201683 
L 236.33856 81.711433 
L 236.42784 121.552841 
L 236.51712 96.358248 
L 236.6064 129.1971 
L 236.78496 100.828327 
L 236.87424 119.331326 
L 236.96352 115.923473 
L 237.0528 89.732357 
L 237.14208 94.270656 
L 237.23136 107.642942 
L 237.32064 82.101053 
L 237.40992 118.127796 
L 237.58848 93.53976 
L 237.76704 104.111662 
L 237.85632 85.268002 
L 238.03488 115.277174 
L 238.12416 103.050932 
L 238.30272 121.358383 
L 238.392 102.3717 
L 238.48128 132.870101 
L 238.57056 127.026737 
L 238.65984 110.464504 
L 238.8384 165.885162 
L 238.92768 117.871761 
L 239.01696 134.598554 
L 239.10624 93.81663 
L 239.19552 94.795029 
L 239.2848 150.534452 
L 239.46336 93.675948 
L 239.55264 110.766931 
L 239.64192 82.958252 
L 239.82048 105.299767 
L 239.90976 86.127175 
L 239.99904 90.557268 
L 240.08832 127.109207 
L 240.1776 124.753763 
L 240.26688 117.40245 
L 240.35616 128.139386 
L 240.44544 97.444783 
L 240.53472 168.300341 
L 240.71328 106.423431 
L 240.80256 97.675484 
L 240.89184 100.87345 
L 241.0704 117.727604 
L 241.15968 76.904538 
L 241.33824 114.854079 
L 241.42752 100.804209 
L 241.5168 130.544308 
L 241.60608 86.396903 
L 241.69536 118.027289 
L 241.87392 91.63948 
L 241.9632 126.24616 
L 242.05248 97.235472 
L 242.14176 107.457154 
L 242.32032 100.257201 
L 242.4096 125.81061 
L 242.49888 117.627609 
L 242.67744 92.637502 
L 242.856 130.264212 
L 242.94528 92.2242 
L 243.03456 121.196527 
L 243.21312 97.390889 
L 243.3024 133.067573 
L 243.39168 112.407385 
L 243.48096 131.470694 
L 243.57024 92.94226 
L 243.65952 119.639551 
L 243.83808 109.318407 
L 243.92736 144.282484 
L 244.01664 92.784474 
L 244.10592 103.012058 
L 244.1952 100.646745 
L 244.28448 108.45987 
L 244.37376 88.74683 
L 244.46304 96.92574 
L 244.55232 84.096955 
L 244.6416 148.400581 
L 244.82016 92.891942 
L 244.90944 129.42075 
L 245.088 105.780089 
L 245.26656 94.962514 
L 245.35584 135.594975 
L 245.44512 111.13926 
L 245.5344 116.392251 
L 245.62368 106.711176 
L 245.71296 135.10238 
L 245.9808 98.418574 
L 246.07008 110.516196 
L 246.33792 80.230971 
L 246.51648 160.585032 
L 246.60576 106.208071 
L 246.69504 123.231335 
L 246.78432 86.095651 
L 246.8736 130.737986 
L 246.96288 124.499938 
L 247.14144 113.108352 
L 247.23072 173.52461 
L 247.32 131.497403 
L 247.40928 132.510121 
L 247.58784 114.438385 
L 247.67712 116.388856 
L 247.7664 111.664415 
L 247.85568 155.238196 
L 247.94496 87.368667 
L 248.03424 136.837261 
L 248.30208 113.823191 
L 248.39136 116.150145 
L 248.48064 125.529569 
L 248.56992 98.964037 
L 248.6592 139.787886 
L 248.83776 101.388623 
L 248.92704 106.187664 
L 249.01632 98.519634 
L 249.1056 117.350927 
L 249.28416 95.758447 
L 249.37344 144.18927 
L 249.552 96.679306 
L 249.73056 100.487734 
L 249.81984 111.609726 
L 249.90912 108.264625 
L 250.08768 135.929618 
L 250.26624 121.207456 
L 250.35552 76.255237 
L 250.4448 159.410477 
L 250.62336 115.435957 
L 250.71264 97.408056 
L 250.80192 118.103035 
L 250.8912 103.932187 
L 251.06976 108.797642 
L 251.15904 96.205194 
L 251.24832 197.787389 
L 251.42688 112.689913 
L 251.51616 146.965604 
L 251.60544 71.411323 
L 251.69472 101.763109 
L 251.784 101.290093 
L 252.05184 153.828616 
L 252.2304 122.722552 
L 252.31968 127.867797 
L 252.40896 95.572008 
L 252.6768 146.874884 
L 252.76608 88.598061 
L 252.85536 117.718064 
L 252.94464 83.561475 
L 253.03392 129.669424 
L 253.1232 109.458553 
L 253.21248 112.325355 
L 253.30176 137.088599 
L 253.39104 93.550368 
L 253.48032 102.43822 
L 253.65888 127.5694 
L 253.74816 104.928341 
L 253.83744 126.751279 
L 254.016 90.645753 
L 254.19456 120.866812 
L 254.37312 100.768645 
L 254.4624 103.782103 
L 254.55168 100.872324 
L 254.64096 87.873135 
L 254.81952 131.699671 
L 254.9088 109.482969 
L 254.99808 114.736044 
L 255.17664 78.042604 
L 255.26592 124.432273 
L 255.3552 96.108686 
L 255.44448 120.019572 
L 255.53376 98.908391 
L 255.71232 121.107686 
L 255.8016 107.479433 
L 255.89088 135.136239 
L 255.98016 93.88827 
L 256.15872 148.114877 
L 256.248 98.091232 
L 256.33728 144.916149 
L 256.42656 120.091182 
L 256.51584 140.627448 
L 256.60512 129.870288 
L 256.6944 133.857204 
L 256.87296 94.858088 
L 256.96224 110.380805 
L 257.05152 93.470753 
L 257.1408 166.9502 
L 257.31936 101.964578 
L 257.40864 109.393419 
L 257.49792 104.159633 
L 257.5872 87.018055 
L 257.67648 125.598306 
L 257.76576 101.80346 
L 258.0336 131.658335 
L 258.12288 99.312159 
L 258.21216 136.139942 
L 258.56928 99.526094 
L 258.83712 128.374474 
L 258.9264 94.368085 
L 259.10496 121.12498 
L 259.19424 115.553718 
L 259.28352 111.794207 
L 259.3728 157.210264 
L 259.46208 120.751171 
L 259.55136 123.86546 
L 259.64064 125.767972 
L 259.72992 102.849428 
L 259.8192 142.936033 
L 259.90848 108.109876 
L 259.99776 143.416504 
L 260.2656 96.703354 
L 260.44416 149.658322 
L 260.53344 78.351698 
L 260.62272 119.459026 
L 260.80128 101.765785 
L 260.97984 127.740224 
L 261.06912 90.759582 
L 261.24768 126.325746 
L 261.33696 79.624011 
L 261.42624 122.202095 
L 261.51552 101.625374 
L 261.6048 118.15165 
L 261.69408 109.593774 
L 261.78336 119.501891 
L 261.87264 89.060238 
L 261.96192 103.289448 
L 262.0512 151.501016 
L 262.22976 106.33748 
L 262.31904 97.647101 
L 262.40832 140.938502 
L 262.4976 128.936362 
L 262.58688 94.185297 
L 262.67616 133.381697 
L 262.85472 83.834084 
L 262.944 121.785762 
L 263.03328 96.17821 
L 263.12256 99.650659 
L 263.21184 105.519268 
L 263.47968 159.972481 
L 263.56896 111.779369 
L 263.65824 126.308008 
L 263.74752 103.594151 
L 263.8368 113.157727 
L 263.92608 89.863031 
L 264.01536 100.174671 
L 264.10464 127.931733 
L 264.19392 99.953991 
L 264.37248 122.225971 
L 264.46176 103.208622 
L 264.55104 108.384718 
L 264.7296 98.004749 
L 264.81888 103.872524 
L 264.90816 102.087349 
L 264.99744 83.146357 
L 265.176 141.702937 
L 265.53312 94.887449 
L 265.6224 121.793375 
L 265.71168 114.351297 
L 265.80096 117.502274 
L 265.89024 145.881973 
L 265.97952 93.914945 
L 266.0688 99.501219 
L 266.24736 129.192334 
L 266.42592 105.286898 
L 266.60448 126.777185 
L 266.78304 99.779008 
L 266.9616 104.37377 
L 267.05088 92.298813 
L 267.14016 151.614468 
L 267.22944 110.519894 
L 267.31872 124.211089 
L 267.408 164.275116 
L 267.67584 87.418905 
L 267.76512 110.241099 
L 267.8544 164.552712 
L 267.94368 104.681773 
L 268.03296 126.174148 
L 268.12224 111.377255 
L 268.21152 112.707119 
L 268.3008 121.608486 
L 268.39008 223.954754 
L 268.56864 105.112809 
L 268.65792 105.58589 
L 268.7472 112.381578 
L 268.83648 109.357503 
L 268.92576 113.884176 
L 269.01504 112.261358 
L 269.10432 106.293469 
L 269.1936 127.373296 
L 269.37216 94.211793 
L 269.46144 133.658971 
L 269.64 113.578627 
L 269.72928 121.72466 
L 269.81856 101.753879 
L 269.99712 114.972272 
L 270.0864 110.144814 
L 270.26496 112.706708 
L 270.35424 83.677835 
L 270.5328 110.211135 
L 270.62208 84.780347 
L 270.71136 112.228048 
L 270.80064 104.931941 
L 270.88992 86.11252 
L 270.9792 108.680171 
L 271.06848 91.664281 
L 271.15776 120.350403 
L 271.24704 108.38472 
L 271.33632 130.395665 
L 271.4256 92.900502 
L 271.51488 132.522684 
L 271.60416 97.060576 
L 271.78272 140.100396 
L 271.872 103.921989 
L 272.05056 124.568216 
L 272.13984 111.674418 
L 272.22912 116.312269 
L 272.3184 127.773743 
L 272.40768 123.343149 
L 272.49696 100.175217 
L 272.58624 119.781765 
L 272.7648 82.835549 
L 272.85408 151.234931 
L 273.03264 97.338011 
L 273.12192 117.829157 
L 273.2112 115.938871 
L 273.30048 115.216979 
L 273.38976 122.126386 
L 273.47904 151.315466 
L 273.74688 101.385999 
L 273.83616 118.483152 
L 274.19328 84.724822 
L 274.46112 114.549108 
L 274.5504 83.594993 
L 274.63968 84.783254 
L 274.81824 108.345887 
L 274.90752 95.181381 
L 274.9968 102.562826 
L 275.08608 92.709703 
L 275.17536 98.976542 
L 275.35392 130.157009 
L 275.53248 99.037013 
L 275.62176 107.747724 
L 275.71104 95.285491 
L 275.8896 126.76143 
L 275.97888 120.216756 
L 276.15744 96.346552 
L 276.24672 120.206492 
L 276.336 81.280317 
L 276.42528 104.415092 
L 276.51456 85.65717 
L 276.69312 109.602948 
L 276.7824 114.058142 
L 276.87168 106.954748 
L 276.96096 134.966273 
L 277.05024 128.276923 
L 277.2288 93.02263 
L 277.40736 123.790989 
L 277.58592 103.791596 
L 277.6752 100.7623 
L 277.85376 145.039159 
L 277.94304 97.824709 
L 278.03232 107.827276 
L 278.1216 149.072363 
L 278.21088 102.523001 
L 278.30016 108.907978 
L 278.38944 96.924376 
L 278.568 113.919456 
L 278.65728 111.215071 
L 278.74656 115.003881 
L 278.83584 99.699642 
L 278.92512 106.03376 
L 279.0144 99.024968 
L 279.10368 120.083894 
L 279.19296 107.914126 
L 279.28224 152.150517 
L 279.4608 97.89255 
L 279.55008 120.052455 
L 279.63936 100.74085 
L 279.72864 115.38238 
L 279.99648 103.608957 
L 280.08576 112.277784 
L 280.26432 93.258245 
L 280.3536 109.234284 
L 280.44288 106.461669 
L 280.53216 101.547132 
L 280.62144 137.639459 
L 280.71072 92.133462 
L 280.8 115.115927 
L 280.88928 113.104513 
L 280.97856 107.922608 
L 281.06784 87.951483 
L 281.2464 96.319683 
L 281.33568 91.195201 
L 281.42496 96.007706 
L 281.51424 117.415883 
L 281.60352 113.862832 
L 281.6928 109.633544 
L 281.87136 90.993589 
L 282.04992 110.182531 
L 282.1392 102.413432 
L 282.22848 104.550813 
L 282.31776 132.541207 
L 282.40704 97.768058 
L 282.5856 128.455062 
L 282.67488 127.197061 
L 282.85344 84.023736 
L 282.94272 127.509094 
L 283.032 121.001143 
L 283.12128 103.181466 
L 283.21056 104.956761 
L 283.29984 100.870397 
L 283.38912 113.162599 
L 283.56768 87.014806 
L 283.74624 101.761729 
L 283.9248 132.501716 
L 284.01408 105.361158 
L 284.10336 150.630132 
L 284.28192 101.97656 
L 284.46048 119.492526 
L 284.54976 94.438234 
L 284.63904 109.035359 
L 284.72832 89.319397 
L 284.8176 108.835818 
L 284.90688 86.925687 
L 284.99616 108.199306 
L 285.264 86.127166 
L 285.35328 93.802489 
L 285.44256 89.161251 
L 285.53184 136.199465 
L 285.7104 92.143616 
L 285.79968 101.944003 
L 285.97824 116.979194 
L 286.06752 169.075898 
L 286.24608 96.653068 
L 286.33536 146.524842 
L 286.51392 101.393513 
L 286.6032 101.391853 
L 286.69248 121.103546 
L 286.87104 87.281011 
L 286.96032 120.45025 
L 287.0496 118.820213 
L 287.13888 118.525851 
L 287.22816 97.53059 
L 287.31744 102.101248 
L 287.40672 94.0782 
L 287.496 119.571169 
L 287.58528 105.691183 
L 287.67456 114.143777 
L 287.9424 95.224406 
L 288.12096 118.372334 
L 288.21024 106.088847 
L 288.29952 111.511883 
L 288.3888 107.933561 
L 288.47808 110.817297 
L 288.56736 119.878659 
L 288.65664 97.940474 
L 288.74592 130.826607 
L 288.8352 99.039983 
L 288.92448 106.219762 
L 289.01376 90.160376 
L 289.10304 90.825298 
L 289.2816 106.399689 
L 289.37088 193.41458 
L 289.46016 105.276202 
L 289.54944 106.406256 
L 289.63872 101.193286 
L 289.728 104.321568 
L 289.81728 160.177922 
L 289.90656 92.573233 
L 289.99584 128.857012 
L 290.1744 91.803838 
L 290.35296 111.662655 
L 290.44224 90.946233 
L 290.53152 108.376421 
L 290.6208 86.626608 
L 290.71008 123.341499 
L 290.79936 100.313593 
L 290.88864 125.487353 
L 291.0672 87.69554 
L 291.15648 114.729211 
L 291.24576 109.361349 
L 291.33504 106.60826 
L 291.42432 118.414857 
L 291.5136 105.624699 
L 291.69216 119.929366 
L 291.78144 111.751178 
L 291.87072 124.015061 
L 292.13856 107.438254 
L 292.22784 109.950468 
L 292.4064 138.284624 
L 292.49568 103.539104 
L 292.58496 152.32663 
L 292.67424 109.894936 
L 292.76352 113.105279 
L 293.03136 95.982106 
L 293.12064 97.094274 
L 293.20992 97.003595 
L 293.2992 95.808108 
L 293.38848 109.523575 
L 293.47776 95.894326 
L 293.56704 96.618614 
L 293.65632 86.92835 
L 293.7456 87.569722 
L 293.83488 112.589776 
L 293.92416 96.86831 
L 294.01344 126.839801 
L 294.10272 95.393861 
L 294.192 162.850139 
L 294.28128 101.960009 
L 294.37056 120.272438 
L 294.45984 86.72159 
L 294.54912 100.098659 
L 294.6384 99.924156 
L 294.72768 80.345217 
L 294.81696 97.585386 
L 294.90624 146.230148 
L 294.99552 99.565856 
L 295.0848 104.555571 
L 295.17408 68.922365 
L 295.26336 108.389067 
L 295.44192 92.779003 
L 295.5312 107.465127 
L 295.62048 84.692862 
L 295.70976 110.367537 
L 295.79904 97.337495 
L 295.88832 104.063189 
L 295.9776 120.690385 
L 296.06688 115.068946 
L 296.15616 94.147078 
L 296.24544 108.400235 
L 296.33472 84.585568 
L 296.424 123.703516 
L 296.51328 119.117146 
L 296.60256 89.907443 
L 296.78112 104.182829 
L 296.8704 96.726496 
L 297.04896 103.844523 
L 297.13824 122.194552 
L 297.22752 95.007649 
L 297.3168 106.222422 
L 297.40608 92.240109 
L 297.49536 121.415794 
L 297.67392 90.597065 
L 297.85248 97.148542 
L 297.94176 106.653117 
L 298.03104 80.249849 
L 298.2096 105.277718 
L 298.29888 85.850594 
L 298.38816 96.489258 
L 298.47744 89.279879 
L 298.656 145.155298 
L 298.83456 84.294743 
L 298.92384 85.810674 
L 299.01312 100.731062 
L 299.1024 76.465105 
L 299.28096 116.378143 
L 299.45952 91.090009 
L 299.5488 102.331383 
L 299.63808 96.429445 
L 299.72736 101.78887 
L 299.81664 101.549029 
L 299.90592 102.345908 
L 299.9952 94.777494 
L 300.08448 99.100603 
L 300.17376 86.607298 
L 300.26304 89.842128 
L 300.35232 100.325147 
L 300.4416 123.902993 
L 300.53088 87.839072 
L 300.70944 111.694894 
L 300.79872 156.740391 
L 300.888 108.446057 
L 300.97728 111.710135 
L 301.15584 85.555265 
L 301.24512 94.688774 
L 301.3344 86.449191 
L 301.51296 120.75156 
L 301.60224 90.19047 
L 301.69152 123.443468 
L 301.7808 111.597239 
L 301.87008 115.57829 
L 301.95936 96.303049 
L 302.04864 126.352641 
L 302.13792 95.978824 
L 302.31648 123.391087 
L 302.40576 107.60799 
L 302.49504 119.443205 
L 302.6736 87.220177 
L 302.76288 129.589842 
L 302.85216 122.903138 
L 303.03072 83.77938 
L 303.12 94.367656 
L 303.20928 78.903536 
L 303.38784 135.027582 
L 303.47712 90.478732 
L 303.5664 119.091101 
L 303.65568 98.224135 
L 303.74496 107.875273 
L 303.83424 139.206428 
L 303.92352 95.657077 
L 304.0128 132.287828 
L 304.10208 89.886012 
L 304.19136 98.336901 
L 304.28064 138.789214 
L 304.4592 93.307654 
L 304.54848 119.277271 
L 304.72704 92.067474 
L 304.81632 126.898045 
L 304.9056 103.109156 
L 304.99488 126.010077 
L 305.17344 97.05024 
L 305.26272 110.114434 
L 305.44128 94.958458 
L 305.53056 101.151214 
L 305.61984 92.877275 
L 305.70912 141.455212 
L 305.88768 84.639168 
L 305.97696 99.185107 
L 306.06624 98.51285 
L 306.15552 100.890346 
L 306.2448 111.035384 
L 306.33408 109.33666 
L 306.42336 104.772133 
L 306.51264 110.061894 
L 306.60192 132.089099 
L 306.6912 105.585602 
L 306.78048 123.929108 
L 306.86976 84.426399 
L 307.04832 117.797869 
L 307.1376 106.373287 
L 307.31616 116.148562 
L 307.40544 89.85002 
L 307.584 103.93439 
L 307.67328 131.326323 
L 307.94112 94.025913 
L 308.11968 142.355346 
L 308.29824 106.450545 
L 308.38752 114.389854 
L 308.4768 110.074195 
L 308.56608 91.929096 
L 308.65536 99.541607 
L 308.74464 117.846712 
L 308.9232 99.31139 
L 309.01248 80.502172 
L 309.19104 116.463734 
L 309.28032 82.668493 
L 309.3696 89.155422 
L 309.63744 128.164881 
L 309.90528 102.340061 
L 309.99456 105.151282 
L 310.08384 115.963867 
L 310.17312 113.857882 
L 310.2624 95.642063 
L 310.35168 108.864463 
L 310.44096 100.025356 
L 310.53024 127.667726 
L 310.61952 122.184472 
L 310.79808 86.375878 
L 310.88736 98.2533 
L 310.97664 128.813447 
L 311.1552 104.160941 
L 311.24448 92.987047 
L 311.33376 97.511537 
L 311.42304 81.4293 
L 311.6016 89.934946 
L 311.78016 124.772657 
L 311.86944 112.383041 
L 311.95872 136.227463 
L 312.13728 87.908359 
L 312.31584 106.781238 
L 312.40512 70.639094 
L 312.58368 100.595419 
L 312.67296 76.036092 
L 312.76224 84.551835 
L 312.85152 81.132898 
L 312.9408 119.482807 
L 313.11936 87.982102 
L 313.29792 104.631711 
L 313.3872 96.533617 
L 313.47648 105.158421 
L 313.56576 103.611387 
L 313.65504 104.550118 
L 313.8336 86.696678 
L 313.92288 102.604671 
L 314.10144 88.355093 
L 314.36928 138.871759 
L 314.45856 104.606686 
L 314.54784 113.792185 
L 314.63712 111.267823 
L 314.7264 134.645947 
L 314.81568 90.034889 
L 314.90496 121.628303 
L 314.99424 109.209198 
L 315.1728 139.282647 
L 315.35136 94.044079 
L 315.44064 115.217435 
L 315.52992 104.279724 
L 315.6192 123.962964 
L 315.70848 114.831236 
L 315.79776 92.403833 
L 315.97632 116.125555 
L 316.0656 100.777979 
L 316.15488 101.007487 
L 316.24416 104.148293 
L 316.33344 103.274113 
L 316.42272 90.824243 
L 316.60128 114.482013 
L 316.69056 93.695648 
L 316.77984 98.254044 
L 317.04768 125.261438 
L 317.13696 81.567704 
L 317.22624 127.867511 
L 317.31552 93.167222 
L 317.4048 96.687911 
L 317.49408 109.550656 
L 317.67264 93.497603 
L 317.76192 104.130237 
L 317.8512 98.286215 
L 317.94048 99.939071 
L 318.11904 111.06431 
L 318.20832 92.245052 
L 318.2976 133.623602 
L 318.38688 109.547018 
L 318.47616 172.252228 
L 318.56544 86.820508 
L 318.65472 131.447533 
L 318.744 124.875897 
L 318.83328 105.257331 
L 318.92256 109.769982 
L 319.01184 108.972783 
L 319.10112 85.516915 
L 319.27968 116.667881 
L 319.45824 90.73147 
L 319.6368 120.123866 
L 319.72608 102.340513 
L 319.81536 108.233774 
L 319.90464 128.399255 
L 319.99392 99.803651 
L 320.0832 146.836524 
L 320.26176 99.65411 
L 320.35104 99.042094 
L 320.5296 126.335075 
L 320.61888 93.472955 
L 320.70816 111.542097 
L 320.79744 108.421085 
L 320.976 101.739103 
L 321.06528 103.181595 
L 321.15456 90.722735 
L 321.24384 117.418169 
L 321.33312 102.518535 
L 321.4224 129.648229 
L 321.51168 89.262098 
L 321.60096 106.778354 
L 321.69024 100.169815 
L 321.77952 109.968697 
L 321.95808 101.217002 
L 322.04736 102.804703 
L 322.13664 110.844435 
L 322.22592 97.473419 
L 322.3152 104.731167 
L 322.40448 102.770977 
L 322.49376 105.025982 
L 322.58304 95.517738 
L 322.67232 96.796161 
L 322.7616 120.887836 
L 322.94016 109.166193 
L 323.02944 124.17407 
L 323.11872 173.983036 
L 323.208 119.355301 
L 323.29728 139.995593 
L 323.47584 103.328392 
L 323.56512 131.989677 
L 323.6544 93.227022 
L 323.74368 113.133117 
L 323.83296 93.185269 
L 324.1008 132.692406 
L 324.19008 114.520987 
L 324.27936 115.907542 
L 324.36864 118.797462 
L 324.45792 131.672314 
L 324.5472 95.461375 
L 324.63648 116.637795 
L 324.90432 93.024633 
L 324.9936 109.56832 
L 325.08288 108.728142 
L 325.17216 82.327312 
L 325.26144 118.540638 
L 325.35072 82.723465 
L 325.61856 119.325097 
L 325.70784 107.267072 
L 325.79712 112.346947 
L 325.8864 110.979679 
L 325.97568 135.122707 
L 326.06496 101.539522 
L 326.15424 112.558742 
L 326.24352 88.649559 
L 326.3328 89.652843 
L 326.51136 102.429057 
L 326.60064 92.759214 
L 326.7792 105.317339 
L 326.86848 103.924644 
L 326.95776 105.752512 
L 327.13632 96.656223 
L 327.2256 104.878504 
L 327.31488 89.365476 
L 327.49344 96.946305 
L 327.672 120.91371 
L 327.85056 93.403417 
L 327.93984 116.202401 
L 328.02912 99.505056 
L 328.1184 102.59048 
L 328.20768 98.440358 
L 328.29696 104.088741 
L 328.38624 130.084109 
L 328.47552 89.407716 
L 328.5648 108.13273 
L 328.65408 102.217655 
L 328.74336 103.938889 
L 328.83264 125.114763 
L 329.10048 89.739709 
L 329.18976 109.686831 
L 329.27904 96.358273 
L 329.4576 109.247268 
L 329.54688 107.63285 
L 329.63616 103.614839 
L 329.72544 115.372569 
L 329.81472 89.819986 
L 329.904 112.208214 
L 329.99328 82.833306 
L 330.08256 96.928419 
L 330.17184 95.784064 
L 330.26112 103.786762 
L 330.3504 81.803205 
L 330.43968 107.486062 
L 330.52896 86.736927 
L 330.61824 136.308161 
L 330.7968 94.959403 
L 330.88608 119.886096 
L 331.06464 90.906461 
L 331.15392 120.475032 
L 331.33248 79.896049 
L 331.42176 84.945544 
L 331.51104 138.132753 
L 331.60032 95.463097 
L 331.6896 134.139148 
L 331.86816 94.427275 
L 331.95744 87.168058 
L 332.04672 110.923579 
L 332.22528 90.431818 
L 332.31456 95.818977 
L 332.40384 109.52347 
L 332.49312 93.367673 
L 332.5824 109.128034 
L 332.67168 161.574365 
L 332.76096 105.039034 
L 332.85024 109.237389 
L 332.93952 85.342722 
L 333.0288 88.811883 
L 333.11808 110.393859 
L 333.20736 107.980192 
L 333.29664 121.555007 
L 333.4752 102.126354 
L 333.56448 126.752866 
L 333.9216 88.929311 
L 334.10016 113.993363 
L 334.18944 87.124461 
L 334.27872 87.589156 
L 334.368 137.407598 
L 334.54656 87.53103 
L 334.63584 128.625871 
L 334.8144 76.806728 
L 334.90368 92.667905 
L 335.17152 123.301273 
L 335.2608 87.76832 
L 335.35008 103.52321 
L 335.43936 82.129556 
L 335.52864 96.319893 
L 335.61792 90.899788 
L 335.7072 94.626361 
L 335.79648 91.934164 
L 335.97504 97.826568 
L 336.06432 121.095185 
L 336.1536 95.234887 
L 336.24288 103.078635 
L 336.33216 88.0523 
L 336.42144 110.107002 
L 336.51072 90.789445 
L 336.6 99.21101 
L 336.68928 96.02359 
L 336.86784 127.010616 
L 337.0464 77.257634 
L 337.13568 83.203172 
L 337.22496 118.199721 
L 337.31424 89.125102 
L 337.40352 90.332797 
L 337.4928 87.882087 
L 337.58208 120.788141 
L 337.67136 98.483559 
L 337.76064 99.58874 
L 337.9392 110.248894 
L 338.02848 103.447658 
L 338.11776 122.006086 
L 338.20704 105.073334 
L 338.29632 120.596472 
L 338.3856 88.581599 
L 338.47488 105.185711 
L 338.56416 103.846037 
L 338.65344 97.461135 
L 338.92128 131.079317 
L 339.09984 93.797587 
L 339.2784 122.880301 
L 339.36768 95.198893 
L 339.45696 105.76839 
L 339.54624 143.356947 
L 339.7248 105.063298 
L 339.90336 121.769394 
L 339.99264 85.380646 
L 340.08192 102.763037 
L 340.1712 92.698377 
L 340.26048 103.862298 
L 340.34976 100.928643 
L 340.6176 82.970896 
L 340.70688 117.549349 
L 340.79616 113.25762 
L 340.88544 115.334203 
L 341.064 88.407149 
L 341.15328 100.155198 
L 341.24256 95.798222 
L 341.42112 102.27389 
L 341.5104 121.502189 
L 341.59968 93.807404 
L 341.68896 99.3565 
L 341.77824 125.651669 
L 341.86752 122.498238 
L 341.9568 122.605608 
L 342.13536 97.503279 
L 342.22464 124.439699 
L 342.31392 95.492356 
L 342.4032 104.748345 
L 342.58176 97.540572 
L 342.67104 95.848448 
L 342.8496 104.270303 
L 343.02816 83.563703 
L 343.11744 113.639756 
L 343.20672 105.203544 
L 343.296 122.16452 
L 343.47456 103.90053 
L 343.56384 124.02762 
L 343.7424 90.602571 
L 344.01024 105.565253 
L 344.09952 127.853178 
L 344.27808 96.839951 
L 344.36736 105.084032 
L 344.45664 103.466504 
L 344.54592 110.843554 
L 344.81376 90.288761 
L 344.90304 111.28559 
L 345.0816 85.305278 
L 345.17088 93.577173 
L 345.26016 132.945968 
L 345.34944 90.155934 
L 345.43872 107.743547 
L 345.528 102.86893 
L 345.70656 85.570477 
L 345.88512 113.781205 
L 346.24224 85.683243 
L 346.33152 85.782532 
L 346.68864 104.146608 
L 346.8672 96.812881 
L 346.95648 109.378652 
L 347.13504 94.673255 
L 347.22432 100.115738 
L 347.49216 85.74112 
L 347.67072 116.144868 
L 347.76 79.346998 
L 347.84928 113.428826 
L 347.93856 78.796823 
L 348.02784 79.80997 
L 348.2064 131.086513 
L 348.29568 93.628402 
L 348.38496 109.298203 
L 348.47424 91.953553 
L 348.56352 99.846712 
L 348.74208 83.453484 
L 348.83136 86.506953 
L 349.00992 115.227365 
L 349.0992 87.032103 
L 349.18848 117.605472 
L 349.27776 89.403046 
L 349.5456 111.629364 
L 349.81344 82.115357 
L 349.90272 84.932201 
L 349.992 84.152674 
L 350.17056 120.446952 
L 350.25984 93.90978 
L 350.34912 103.26219 
L 350.4384 96.961392 
L 350.52768 140.347957 
L 350.61696 102.89251 
L 350.70624 120.957176 
L 350.8848 88.861527 
L 350.97408 97.088753 
L 351.06336 93.326383 
L 351.15264 114.627112 
L 351.24192 89.600426 
L 351.3312 121.591819 
L 351.42048 91.77309 
L 351.50976 96.994631 
L 351.68832 87.459287 
L 351.86688 109.977308 
L 351.95616 95.846055 
L 352.13472 105.708178 
L 352.31328 95.195417 
L 352.40256 98.438539 
L 352.49184 85.260456 
L 352.75968 142.397564 
L 352.84896 93.800447 
L 352.93824 122.714086 
L 353.02752 95.480867 
L 353.1168 108.897731 
L 353.38464 88.826774 
L 353.5632 110.212488 
L 353.65248 113.763687 
L 353.83104 103.95004 
L 353.92032 90.139869 
L 354.0096 121.447863 
L 354.09888 119.523951 
L 354.18816 94.695484 
L 354.27744 120.382175 
L 354.36672 91.5682 
L 354.456 142.670518 
L 354.54528 116.407089 
L 354.63456 116.888126 
L 354.72384 124.313412 
L 354.81312 185.922448 
L 354.99168 84.077289 
L 355.17024 122.454482 
L 355.25952 83.816877 
L 355.43808 112.199389 
L 355.70592 81.451006 
L 355.7952 95.7775 
L 355.88448 72.071036 
L 355.97376 103.849614 
L 356.06304 99.378959 
L 356.15232 79.827625 
L 356.2416 96.117 
L 356.33088 89.607762 
L 356.42016 97.860663 
L 356.59872 86.588686 
L 356.688 88.509895 
L 356.86656 111.255868 
L 357.04512 82.403028 
L 357.22368 116.737736 
L 357.40224 92.752542 
L 357.49152 121.831635 
L 357.5808 101.98415 
L 357.75936 114.705945 
L 357.84864 102.50369 
L 357.93792 102.895649 
L 358.11648 98.580448 
L 358.20576 102.823856 
L 358.38432 119.264674 
L 358.56288 88.935029 
L 358.65216 121.291946 
L 358.92 74.991577 
L 359.00928 112.594253 
L 359.09856 87.343691 
L 359.18784 118.110384 
L 359.3664 89.568175 
L 359.63424 122.829033 
L 359.90208 80.278527 
L 359.99136 112.333784 
L 360.08064 105.54502 
L 360.16992 96.85464 
L 360.2592 99.645908 
L 360.34848 132.358889 
L 360.43776 86.164072 
L 360.61632 108.96972 
L 360.79488 105.693432 
L 360.88416 105.860794 
L 360.97344 95.753091 
L 361.06272 102.52359 
L 361.152 96.141869 
L 361.24128 106.147234 
L 361.33056 101.81545 
L 361.41984 115.505098 
L 361.50912 96.479509 
L 361.5984 101.708838 
L 361.77696 84.704996 
L 361.86624 105.196851 
L 361.95552 89.154596 
L 362.0448 115.923795 
L 362.31264 73.705064 
L 362.4912 110.912163 
L 362.58048 87.58151 
L 362.75904 109.224289 
L 362.84832 83.30095 
L 362.9376 106.639428 
L 363.11616 95.896526 
L 363.20544 97.181867 
L 363.29472 106.400517 
L 363.384 129.224447 
L 363.47328 100.925759 
L 363.56256 104.887676 
L 363.65184 117.916593 
L 363.8304 91.619663 
L 363.91968 101.772004 
L 364.00896 80.618472 
L 364.09824 81.7348 
L 364.18752 111.702959 
L 364.2768 87.1858 
L 364.36608 92.83098 
L 364.45536 112.069977 
L 364.63392 102.348597 
L 364.7232 104.419996 
L 364.90176 78.20646 
L 364.99104 101.915797 
L 365.08032 88.32063 
L 365.1696 97.044299 
L 365.25888 83.10833 
L 365.34816 100.680689 
L 365.43744 89.543524 
L 365.52672 92.119057 
L 365.616 97.923046 
L 365.70528 95.649068 
L 365.79456 119.017514 
L 365.88384 102.797641 
L 365.97312 63.648 
L 366.0624 109.140203 
L 366.15168 84.386327 
L 366.24096 106.284195 
L 366.33024 105.68269 
L 366.5088 82.551956 
L 366.68736 120.614797 
L 366.9552 85.80825 
L 367.13376 122.164764 
L 367.22304 111.072488 
L 367.31232 78.062296 
L 367.49088 100.641771 
L 367.58016 95.966467 
L 367.66944 132.661318 
L 367.75872 86.367348 
L 367.848 91.080073 
L 367.93728 82.133152 
L 368.02656 110.153046 
L 368.11584 89.012679 
L 368.20512 107.386017 
L 368.2944 87.132762 
L 368.47296 103.077328 
L 368.56224 94.197861 
L 368.65152 106.093598 
L 368.83008 76.457795 
L 368.91936 88.356862 
L 369.00864 78.863885 
L 369.09792 111.369684 
L 369.1872 90.858093 
L 369.27648 97.390285 
L 369.36576 121.309691 
L 369.45504 88.077579 
L 369.54432 112.414926 
L 369.6336 79.715094 
L 369.72288 111.018706 
L 369.81216 92.037522 
L 369.90144 114.048348 
L 369.99072 98.709986 
L 370.08 122.988941 
L 370.25856 95.560573 
L 370.34784 98.174424 
L 370.43712 96.974642 
L 370.61568 84.486094 
L 370.70496 96.409926 
L 370.79424 95.03004 
L 370.88352 95.937499 
L 370.9728 124.566416 
L 371.15136 91.262029 
L 371.24064 107.896339 
L 371.32992 104.120628 
L 371.4192 102.554561 
L 371.50848 125.806544 
L 371.59776 101.318529 
L 371.68704 110.785099 
L 371.77632 108.475602 
L 371.95488 79.112086 
L 372.04416 104.44729 
L 372.13344 92.881764 
L 372.22272 96.020986 
L 372.40128 127.349518 
L 372.49056 78.117311 
L 372.66912 111.452759 
L 372.7584 83.479936 
L 372.84768 107.649121 
L 372.93696 85.649656 
L 373.02624 96.568769 
L 373.2048 70.998648 
L 373.29408 95.322789 
L 373.38336 91.968387 
L 373.47264 83.861019 
L 373.56192 112.087869 
L 373.74048 90.314158 
L 373.82976 92.889263 
L 373.91904 123.012381 
L 374.00832 93.673056 
L 374.0976 94.857538 
L 374.18688 135.241711 
L 374.27616 90.514209 
L 374.36544 99.983467 
L 374.45472 75.214656 
L 374.544 99.021178 
L 374.72256 81.8169 
L 374.81184 91.713936 
L 374.90112 89.053123 
L 374.9904 112.560006 
L 375.07968 93.962601 
L 375.16896 101.170224 
L 375.25824 80.357005 
L 375.34752 84.338268 
L 375.52608 96.305957 
L 375.61536 76.743138 
L 375.8832 109.597536 
L 375.97248 94.188524 
L 376.06176 120.881698 
L 376.24032 93.440993 
L 376.3296 98.64336 
L 376.41888 89.231208 
L 376.59744 110.31233 
L 376.776 90.054438 
L 376.95456 97.456326 
L 377.04384 82.039431 
L 377.13312 84.129562 
L 377.2224 97.381921 
L 377.40096 88.692885 
L 377.49024 112.999724 
L 377.57952 91.147771 
L 377.6688 98.808659 
L 377.75808 83.697385 
L 377.84736 102.242414 
L 378.02592 88.065144 
L 378.1152 92.704645 
L 378.20448 133.265349 
L 378.29376 83.451985 
L 378.47232 119.358877 
L 378.5616 99.675163 
L 378.65088 131.123526 
L 378.74016 129.956547 
L 378.82944 88.496979 
L 378.91872 98.23943 
L 379.008 84.691571 
L 379.09728 110.442252 
L 379.27584 93.466583 
L 379.36512 92.718733 
L 379.4544 111.425743 
L 379.54368 89.72808 
L 379.63296 115.558336 
L 379.72224 82.373321 
L 379.81152 97.656306 
L 379.9008 91.235231 
L 380.07936 114.483676 
L 380.16864 87.521738 
L 380.3472 108.336082 
L 380.43648 111.823937 
L 380.52576 111.302458 
L 380.61504 97.94149 
L 380.70432 99.758158 
L 380.7936 96.685851 
L 380.88288 99.943992 
L 380.97216 85.43669 
L 381.06144 85.583967 
L 381.15072 85.825671 
L 381.24 85.010599 
L 381.50784 129.534645 
L 381.59712 95.08766 
L 381.6864 96.68302 
L 381.77568 89.247503 
L 381.86496 118.8673 
L 381.95424 83.030974 
L 382.04352 102.249709 
L 382.1328 90.802019 
L 382.22208 109.403808 
L 382.40064 87.089153 
L 382.5792 132.836512 
L 382.66848 90.512874 
L 382.75776 98.860144 
L 382.84704 112.808091 
L 382.93632 91.417874 
L 383.0256 112.893343 
L 383.20416 71.986975 
L 383.29344 118.110951 
L 383.38272 81.341768 
L 383.472 88.419465 
L 383.56128 87.276219 
L 383.65056 110.928589 
L 383.73984 88.471034 
L 383.82912 100.828046 
L 383.9184 93.190677 
L 384.00768 115.53002 
L 384.09696 98.512213 
L 384.18624 98.959823 
L 384.27552 99.929218 
L 384.3648 121.956591 
L 384.45408 89.055568 
L 384.54336 92.852648 
L 384.72192 86.260192 
L 384.8112 89.87012 
L 384.90048 87.697268 
L 384.98976 89.59559 
L 385.07904 80.667991 
L 385.16832 100.988587 
L 385.2576 95.884119 
L 385.34688 105.501816 
L 385.43616 103.167218 
L 385.52544 96.012318 
L 385.61472 76.619981 
L 385.704 106.160328 
L 385.79328 98.008833 
L 385.88256 72.219076 
L 385.97184 92.794718 
L 386.06112 82.742513 
L 386.1504 97.887278 
L 386.23968 97.792346 
L 386.32896 102.420061 
L 386.41824 83.3686 
L 386.50752 87.856578 
L 386.68608 98.813032 
L 386.77536 85.964185 
L 386.86464 97.965272 
L 386.95392 89.072675 
L 387.0432 90.91617 
L 387.13248 89.590741 
L 387.22176 85.86491 
L 387.31104 103.626219 
L 387.40032 99.170568 
L 387.4896 111.96648 
L 387.57888 79.369267 
L 387.66816 82.775972 
L 387.75744 99.123588 
L 387.936 86.783124 
L 388.11456 95.31017 
L 388.20384 131.118817 
L 388.29312 91.632394 
L 388.47168 108.868165 
L 388.56096 100.857204 
L 388.65024 79.391788 
L 388.73952 121.557998 
L 388.8288 81.250304 
L 388.91808 95.811188 
L 389.00736 83.071556 
L 389.09664 83.71812 
L 389.18592 105.090845 
L 389.36448 83.359697 
L 389.45376 84.872783 
L 389.54304 84.359271 
L 389.63232 86.441288 
L 389.81088 93.436939 
L 389.90016 133.351606 
L 389.98944 80.472162 
L 390.168 96.532804 
L 390.25728 78.008205 
L 390.34656 90.030845 
L 390.43584 89.900621 
L 390.52512 98.824848 
L 390.70368 83.764741 
L 390.79296 107.189306 
L 391.0608 87.18876 
L 391.15008 87.34954 
L 391.23936 88.212844 
L 391.41792 100.687616 
L 391.5072 82.783701 
L 391.59648 98.441045 
L 391.77504 82.981322 
L 391.9536 94.291458 
L 392.04288 96.820179 
L 392.13216 89.621049 
L 392.31072 106.303296 
L 392.48928 91.459237 
L 392.57856 109.068123 
L 392.75712 82.619639 
L 392.8464 100.052179 
L 392.93568 88.014409 
L 393.02496 97.970684 
L 393.11424 86.85576 
L 393.2928 106.125253 
L 393.56064 84.672895 
L 393.82848 119.303557 
L 393.91776 95.374567 
L 394.00704 100.871929 
L 394.09632 100.41897 
L 394.1856 87.153853 
L 394.36416 109.562561 
L 394.54272 96.894773 
L 394.632 104.998663 
L 394.72128 90.707149 
L 394.81056 103.242934 
L 394.98912 87.929528 
L 395.0784 111.559802 
L 395.16768 80.707029 
L 395.34624 122.360128 
L 395.43552 74.736119 
L 395.5248 104.847605 
L 395.61408 99.193871 
L 395.70336 76.112882 
L 395.9712 103.395866 
L 396.06048 105.710147 
L 396.23904 89.77197 
L 396.50688 112.933492 
L 396.59616 92.538264 
L 396.68544 110.363992 
L 396.77472 106.363433 
L 396.864 90.678258 
L 396.95328 111.249997 
L 397.13184 93.538123 
L 397.3104 112.145771 
L 397.66752 90.091082 
L 397.7568 107.406001 
L 397.93536 91.085043 
L 398.02464 93.233874 
L 398.11392 88.026782 
L 398.2032 118.085039 
L 398.29248 86.082177 
L 398.38176 91.232707 
L 398.47104 72.468831 
L 398.56032 101.197317 
L 398.6496 83.159413 
L 398.82816 156.649614 
L 399.00672 85.767431 
L 399.096 111.95482 
L 399.18528 77.943608 
L 399.36384 89.882706 
L 399.45312 67.911173 
L 399.63168 99.890588 
L 399.81024 78.718114 
L 399.89952 134.933817 
L 400.07808 69.444888 
L 400.16736 115.86941 
L 400.25664 87.55468 
L 400.34592 92.250932 
L 400.4352 77.718047 
L 400.61376 89.467718 
L 400.70304 76.235806 
L 400.79232 98.96525 
L 400.8816 86.04646 
L 401.06016 98.934447 
L 401.23872 83.230079 
L 401.328 87.850742 
L 401.41728 100.711774 
L 401.50656 71.729488 
L 401.59584 80.796285 
L 401.7744 76.620568 
L 401.86368 91.896856 
L 401.95296 90.588107 
L 402.13152 97.9581 
L 402.2208 99.290723 
L 402.31008 111.793412 
L 402.39936 93.781196 
L 402.48864 128.611295 
L 402.6672 84.432923 
L 402.84576 109.765591 
L 402.93504 94.647036 
L 403.02432 105.41619 
L 403.1136 77.372519 
L 403.38144 100.58633 
L 403.47072 83.396601 
L 403.56 107.929642 
L 403.64928 87.212207 
L 403.73856 114.256407 
L 403.82784 79.492558 
L 403.91712 86.519668 
L 404.18496 108.651559 
L 404.27424 90.884325 
L 404.4528 110.934117 
L 404.63136 73.672347 
L 404.72064 87.166745 
L 404.80992 86.22877 
L 404.8992 93.243765 
L 405.07776 80.062353 
L 405.25632 105.561578 
L 405.43488 88.595121 
L 405.52416 96.818219 
L 405.61344 76.003986 
L 405.70272 81.908744 
L 405.792 80.188238 
L 405.88128 97.628177 
L 405.97056 73.902801 
L 406.05984 117.152207 
L 406.14912 84.681829 
L 406.2384 85.621111 
L 406.32768 95.074035 
L 406.41696 83.982007 
L 406.50624 106.116378 
L 406.59552 76.824463 
L 406.86336 97.06038 
L 406.95264 75.427403 
L 407.04192 79.362006 
L 407.1312 90.703861 
L 407.22048 75.832967 
L 407.39904 96.117134 
L 407.48832 69.633149 
L 407.5776 85.630678 
L 407.66688 83.152065 
L 407.75616 82.219664 
L 407.84544 82.745648 
L 407.93472 84.750423 
L 408.11328 80.722986 
L 408.29184 102.114196 
L 408.38112 89.555281 
L 408.64896 100.501148 
L 408.73824 82.834468 
L 408.82752 108.013694 
L 409.09536 81.411609 
L 409.18464 100.863715 
L 409.27392 80.269294 
L 409.3632 89.997923 
L 409.45248 72.798534 
L 409.63104 107.737108 
L 409.72032 82.533079 
L 409.8096 83.15381 
L 409.89888 69.96425 
L 409.98816 97.310306 
L 410.16672 78.143163 
L 410.256 81.074278 
L 410.34528 77.493098 
L 410.43456 102.584722 
L 410.52384 91.909339 
L 410.7024 100.158403 
L 410.88096 78.202059 
L 410.97024 104.862694 
L 411.05952 100.5703 
L 411.1488 75.4421 
L 411.23808 82.967572 
L 411.32736 106.013798 
L 411.50592 85.959181 
L 411.68448 106.455719 
L 411.77376 94.090694 
L 411.86304 101.174339 
L 411.95232 99.830535 
L 412.0416 88.092166 
L 412.13088 90.866572 
L 412.22016 101.485438 
L 412.30944 82.199437 
L 412.39872 97.808682 
L 412.488 80.880988 
L 412.66656 99.491403 
L 412.75584 82.209765 
L 412.84512 86.502363 
L 412.9344 68.605229 
L 413.11296 117.460165 
L 413.29152 80.600903 
L 413.3808 104.183229 
L 413.47008 88.179243 
L 413.55936 115.504755 
L 413.73792 78.800606 
L 413.8272 86.521093 
L 413.91648 78.590635 
L 414.00576 99.84458 
L 414.18432 76.137921 
L 414.2736 79.550727 
L 414.36288 74.720627 
L 414.45216 85.699635 
L 414.54144 84.549997 
L 414.63072 90.490311 
L 414.63072 90.490311 
" style="fill:none;stroke:#0000ff;stroke-linecap:square;stroke-width:1.5;"/>
   </g>
   <g id="patch_3">
    <path d="M 57.6 307.584 
L 57.6 41.472 
" style="fill:none;stroke:#000000;stroke-linecap:square;stroke-linejoin:miter;stroke-width:0.8;"/>
   </g>
   <g id="patch_4">
    <path d="M 414.72 307.584 
L 414.72 41.472 
" style="fill:none;stroke:#000000;stroke-linecap:square;stroke-linejoin:miter;stroke-width:0.8;"/>
   </g>
   <g id="patch_5">
    <path d="M 57.6 307.584 
L 414.72 307.584 
" style="fill:none;stroke:#000000;stroke-linecap:square;stroke-linejoin:miter;stroke-width:0.8;"/>
   </g>
   <g id="patch_6">
    <path d="M 57.6 41.472 
L 414.72 41.472 
" style="fill:none;stroke:#000000;stroke-linecap:square;stroke-linejoin:miter;stroke-width:0.8;"/>
   </g>
   <g id="legend_1">
    <g id="patch_7">
     <path d="M 202.8825 299.584 
L 403.52 299.584 
Q 406.72 299.584 406.72 296.384 
L 406.72 274.499 
Q 406.72 271.299 403.52 271.299 
L 202.8825 271.299 
Q 199.6825 271.299 199.6825 274.499 
L 199.6825 296.384 
Q 199.6825 299.584 202.8825 299.584 
z
" style="fill:#ffffff;opacity:0.8;stroke:#cccccc;stroke-linejoin:miter;"/>
    </g>
    <g id="line2d_28">
     <path d="M 206.0825 284.2565 
L 238.0825 284.2565 
" style="fill:none;stroke:#0000ff;stroke-linecap:square;stroke-width:1.5;"/>
    </g>
    <g id="line2d_29"/>
    <g id="text_16">
     <!-- cumulative reward -->
     <g transform="translate(250.8825 289.8565)scale(0.16 -0.16)">
      <defs>
       <path d="M 3122 3366 
L 3122 2828 
Q 2878 2963 2633 3030 
Q 2388 3097 2138 3097 
Q 1578 3097 1268 2742 
Q 959 2388 959 1747 
Q 959 1106 1268 751 
Q 1578 397 2138 397 
Q 2388 397 2633 464 
Q 2878 531 3122 666 
L 3122 134 
Q 2881 22 2623 -34 
Q 2366 -91 2075 -91 
Q 1284 -91 818 406 
Q 353 903 353 1747 
Q 353 2603 823 3093 
Q 1294 3584 2113 3584 
Q 2378 3584 2631 3529 
Q 2884 3475 3122 3366 
z
" id="DejaVuSans-63" transform="scale(0.015625)"/>
      </defs>
      <use xlink:href="#DejaVuSans-63"/>
      <use x="54.980469" xlink:href="#DejaVuSans-75"/>
      <use x="118.359375" xlink:href="#DejaVuSans-6d"/>
      <use x="215.771484" xlink:href="#DejaVuSans-75"/>
      <use x="279.150391" xlink:href="#DejaVuSans-6c"/>
      <use x="306.933594" xlink:href="#DejaVuSans-61"/>
      <use x="368.212891" xlink:href="#DejaVuSans-74"/>
      <use x="407.421875" xlink:href="#DejaVuSans-69"/>
      <use x="435.205078" xlink:href="#DejaVuSans-76"/>
      <use x="494.384766" xlink:href="#DejaVuSans-65"/>
      <use x="555.908203" xlink:href="#DejaVuSans-20"/>
      <use x="587.695312" xlink:href="#DejaVuSans-72"/>
      <use x="626.558594" xlink:href="#DejaVuSans-65"/>
      <use x="688.082031" xlink:href="#DejaVuSans-77"/>
      <use x="769.869141" xlink:href="#DejaVuSans-61"/>
      <use x="831.148438" xlink:href="#DejaVuSans-72"/>
      <use x="870.511719" xlink:href="#DejaVuSans-64"/>
     </g>
    </g>
   </g>
  </g>
 </g>
 <defs>
  <clipPath id="p7d7fd7bdd3">
   <rect height="266.112" width="357.12" x="57.6" y="41.472"/>
  </clipPath>
 </defs>
</svg>
