<?xml version="1.0" encoding="utf-8" standalone="no"?>
<!DOCTYPE svg PUBLIC "-//W3C//DTD SVG 1.1//EN"
  "http://www.w3.org/Graphics/SVG/1.1/DTD/svg11.dtd">
<svg height="345.6pt" version="1.1" viewBox="0 0 460.8 345.6" width="460.8pt" xmlns="http://www.w3.org/2000/svg" xmlns:xlink="http://www.w3.org/1999/xlink">
 <metadata>
  <rdf:RDF xmlns:cc="http://creativecommons.org/ns#" xmlns:dc="http://purl.org/dc/elements/1.1/" xmlns:rdf="http://www.w3.org/1999/02/22-rdf-syntax-ns#">
   <cc:Work>
    <dc:type rdf:resource="http://purl.org/dc/dcmitype/StillImage"/>
    <dc:date>2021-10-19T17:41:06.934396</dc:date>
    <dc:description>{"agent.algorithm": "RayProximalPolicyOptimization", "agent.algorithm.render_env": false, "agent.algorithm.batch_mode": "complete_episodes", "agent.algorithm.train_batch_size": 200, "agent.algorithm.optimizer": "Adam", "agent.algorithm.vf_clip_param": 5000, "agent.algorithm.model": {"fcnet_activation": "tanh", "fcnet_hiddens": [30, 30]}, "env.env_class": "SchedulerPolicyRayEnvironment", "env.env_config": {"solver_driver": "CMAdriver", "solver_driver_args": [10, 10, "ellipsoid"], "maximize": false, "steps": 50, "state_metrics_names": ["DifferenceOfBest", "SolverState"], "state_metrics_config": [[40, false, 1, true, true], [{"step_size": {"max": 3, "min": 1e-10}}]], "reward_metric": "Best", "reward_metric_config": [false, false], "memes_no": 1, "action_space_config": {"step_size": {"max": 3, "min": 1e-10}}}}</dc:description>
    <dc:format>image/svg+xml</dc:format>
    <dc:creator>
     <cc:Agent>
      <dc:title>Matplotlib v3.4.2, https://matplotlib.org/</dc:title>
     </cc:Agent>
    </dc:creator>
   </cc:Work>
  </rdf:RDF>
 </metadata>
 <defs>
  <style type="text/css">*{stroke-linecap:butt;stroke-linejoin:round;}</style>
 </defs>
 <g id="figure_1">
  <g id="patch_1">
   <path d="M 0 345.6 
L 460.8 345.6 
L 460.8 0 
L 0 0 
z
" style="fill:#ffffff;"/>
  </g>
  <g id="axes_1">
   <g id="patch_2">
    <path d="M 57.6 307.584 
L 414.72 307.584 
L 414.72 41.472 
L 57.6 41.472 
z
" style="fill:#ffffff;"/>
   </g>
   <g id="matplotlib.axis_1">
    <g id="xtick_1">
     <g id="line2d_1">
      <path clip-path="url(#p551bf9bfc2)" d="M 57.6 307.584 
L 57.6 41.472 
" style="fill:none;stroke:#b0b0b0;stroke-linecap:square;stroke-width:0.8;"/>
     </g>
     <g id="line2d_2">
      <defs>
       <path d="M 0 0 
L 0 3.5 
" id="m9d55bce683" style="stroke:#000000;stroke-width:0.8;"/>
      </defs>
      <g>
       <use style="stroke:#000000;stroke-width:0.8;" x="57.6" xlink:href="#m9d55bce683" y="307.584"/>
      </g>
     </g>
     <g id="text_1">
      <!-- 0 -->
      <g transform="translate(54.41875 322.182437)scale(0.1 -0.1)">
       <defs>
        <path d="M 2034 4250 
Q 1547 4250 1301 3770 
Q 1056 3291 1056 2328 
Q 1056 1369 1301 889 
Q 1547 409 2034 409 
Q 2525 409 2770 889 
Q 3016 1369 3016 2328 
Q 3016 3291 2770 3770 
Q 2525 4250 2034 4250 
z
M 2034 4750 
Q 2819 4750 3233 4129 
Q 3647 3509 3647 2328 
Q 3647 1150 3233 529 
Q 2819 -91 2034 -91 
Q 1250 -91 836 529 
Q 422 1150 422 2328 
Q 422 3509 836 4129 
Q 1250 4750 2034 4750 
z
" id="DejaVuSans-30" transform="scale(0.015625)"/>
       </defs>
       <use xlink:href="#DejaVuSans-30"/>
      </g>
     </g>
    </g>
    <g id="xtick_2">
     <g id="line2d_3">
      <path clip-path="url(#p551bf9bfc2)" d="M 117.12 307.584 
L 117.12 41.472 
" style="fill:none;stroke:#b0b0b0;stroke-linecap:square;stroke-width:0.8;"/>
     </g>
     <g id="line2d_4">
      <g>
       <use style="stroke:#000000;stroke-width:0.8;" x="117.12" xlink:href="#m9d55bce683" y="307.584"/>
      </g>
     </g>
     <g id="text_2">
      <!-- 500 -->
      <g transform="translate(107.57625 322.182437)scale(0.1 -0.1)">
       <defs>
        <path d="M 691 4666 
L 3169 4666 
L 3169 4134 
L 1269 4134 
L 1269 2991 
Q 1406 3038 1543 3061 
Q 1681 3084 1819 3084 
Q 2600 3084 3056 2656 
Q 3513 2228 3513 1497 
Q 3513 744 3044 326 
Q 2575 -91 1722 -91 
Q 1428 -91 1123 -41 
Q 819 9 494 109 
L 494 744 
Q 775 591 1075 516 
Q 1375 441 1709 441 
Q 2250 441 2565 725 
Q 2881 1009 2881 1497 
Q 2881 1984 2565 2268 
Q 2250 2553 1709 2553 
Q 1456 2553 1204 2497 
Q 953 2441 691 2322 
L 691 4666 
z
" id="DejaVuSans-35" transform="scale(0.015625)"/>
       </defs>
       <use xlink:href="#DejaVuSans-35"/>
       <use x="63.623047" xlink:href="#DejaVuSans-30"/>
       <use x="127.246094" xlink:href="#DejaVuSans-30"/>
      </g>
     </g>
    </g>
    <g id="xtick_3">
     <g id="line2d_5">
      <path clip-path="url(#p551bf9bfc2)" d="M 176.64 307.584 
L 176.64 41.472 
" style="fill:none;stroke:#b0b0b0;stroke-linecap:square;stroke-width:0.8;"/>
     </g>
     <g id="line2d_6">
      <g>
       <use style="stroke:#000000;stroke-width:0.8;" x="176.64" xlink:href="#m9d55bce683" y="307.584"/>
      </g>
     </g>
     <g id="text_3">
      <!-- 1000 -->
      <g transform="translate(163.915 322.182437)scale(0.1 -0.1)">
       <defs>
        <path d="M 794 531 
L 1825 531 
L 1825 4091 
L 703 3866 
L 703 4441 
L 1819 4666 
L 2450 4666 
L 2450 531 
L 3481 531 
L 3481 0 
L 794 0 
L 794 531 
z
" id="DejaVuSans-31" transform="scale(0.015625)"/>
       </defs>
       <use xlink:href="#DejaVuSans-31"/>
       <use x="63.623047" xlink:href="#DejaVuSans-30"/>
       <use x="127.246094" xlink:href="#DejaVuSans-30"/>
       <use x="190.869141" xlink:href="#DejaVuSans-30"/>
      </g>
     </g>
    </g>
    <g id="xtick_4">
     <g id="line2d_7">
      <path clip-path="url(#p551bf9bfc2)" d="M 236.16 307.584 
L 236.16 41.472 
" style="fill:none;stroke:#b0b0b0;stroke-linecap:square;stroke-width:0.8;"/>
     </g>
     <g id="line2d_8">
      <g>
       <use style="stroke:#000000;stroke-width:0.8;" x="236.16" xlink:href="#m9d55bce683" y="307.584"/>
      </g>
     </g>
     <g id="text_4">
      <!-- 1500 -->
      <g transform="translate(223.435 322.182437)scale(0.1 -0.1)">
       <use xlink:href="#DejaVuSans-31"/>
       <use x="63.623047" xlink:href="#DejaVuSans-35"/>
       <use x="127.246094" xlink:href="#DejaVuSans-30"/>
       <use x="190.869141" xlink:href="#DejaVuSans-30"/>
      </g>
     </g>
    </g>
    <g id="xtick_5">
     <g id="line2d_9">
      <path clip-path="url(#p551bf9bfc2)" d="M 295.68 307.584 
L 295.68 41.472 
" style="fill:none;stroke:#b0b0b0;stroke-linecap:square;stroke-width:0.8;"/>
     </g>
     <g id="line2d_10">
      <g>
       <use style="stroke:#000000;stroke-width:0.8;" x="295.68" xlink:href="#m9d55bce683" y="307.584"/>
      </g>
     </g>
     <g id="text_5">
      <!-- 2000 -->
      <g transform="translate(282.955 322.182437)scale(0.1 -0.1)">
       <defs>
        <path d="M 1228 531 
L 3431 531 
L 3431 0 
L 469 0 
L 469 531 
Q 828 903 1448 1529 
Q 2069 2156 2228 2338 
Q 2531 2678 2651 2914 
Q 2772 3150 2772 3378 
Q 2772 3750 2511 3984 
Q 2250 4219 1831 4219 
Q 1534 4219 1204 4116 
Q 875 4013 500 3803 
L 500 4441 
Q 881 4594 1212 4672 
Q 1544 4750 1819 4750 
Q 2544 4750 2975 4387 
Q 3406 4025 3406 3419 
Q 3406 3131 3298 2873 
Q 3191 2616 2906 2266 
Q 2828 2175 2409 1742 
Q 1991 1309 1228 531 
z
" id="DejaVuSans-32" transform="scale(0.015625)"/>
       </defs>
       <use xlink:href="#DejaVuSans-32"/>
       <use x="63.623047" xlink:href="#DejaVuSans-30"/>
       <use x="127.246094" xlink:href="#DejaVuSans-30"/>
       <use x="190.869141" xlink:href="#DejaVuSans-30"/>
      </g>
     </g>
    </g>
    <g id="xtick_6">
     <g id="line2d_11">
      <path clip-path="url(#p551bf9bfc2)" d="M 355.2 307.584 
L 355.2 41.472 
" style="fill:none;stroke:#b0b0b0;stroke-linecap:square;stroke-width:0.8;"/>
     </g>
     <g id="line2d_12">
      <g>
       <use style="stroke:#000000;stroke-width:0.8;" x="355.2" xlink:href="#m9d55bce683" y="307.584"/>
      </g>
     </g>
     <g id="text_6">
      <!-- 2500 -->
      <g transform="translate(342.475 322.182437)scale(0.1 -0.1)">
       <use xlink:href="#DejaVuSans-32"/>
       <use x="63.623047" xlink:href="#DejaVuSans-35"/>
       <use x="127.246094" xlink:href="#DejaVuSans-30"/>
       <use x="190.869141" xlink:href="#DejaVuSans-30"/>
      </g>
     </g>
    </g>
    <g id="xtick_7">
     <g id="line2d_13">
      <path clip-path="url(#p551bf9bfc2)" d="M 414.72 307.584 
L 414.72 41.472 
" style="fill:none;stroke:#b0b0b0;stroke-linecap:square;stroke-width:0.8;"/>
     </g>
     <g id="line2d_14">
      <g>
       <use style="stroke:#000000;stroke-width:0.8;" x="414.72" xlink:href="#m9d55bce683" y="307.584"/>
      </g>
     </g>
     <g id="text_7">
      <!-- 3000 -->
      <g transform="translate(401.995 322.182437)scale(0.1 -0.1)">
       <defs>
        <path d="M 2597 2516 
Q 3050 2419 3304 2112 
Q 3559 1806 3559 1356 
Q 3559 666 3084 287 
Q 2609 -91 1734 -91 
Q 1441 -91 1130 -33 
Q 819 25 488 141 
L 488 750 
Q 750 597 1062 519 
Q 1375 441 1716 441 
Q 2309 441 2620 675 
Q 2931 909 2931 1356 
Q 2931 1769 2642 2001 
Q 2353 2234 1838 2234 
L 1294 2234 
L 1294 2753 
L 1863 2753 
Q 2328 2753 2575 2939 
Q 2822 3125 2822 3475 
Q 2822 3834 2567 4026 
Q 2313 4219 1838 4219 
Q 1578 4219 1281 4162 
Q 984 4106 628 3988 
L 628 4550 
Q 988 4650 1302 4700 
Q 1616 4750 1894 4750 
Q 2613 4750 3031 4423 
Q 3450 4097 3450 3541 
Q 3450 3153 3228 2886 
Q 3006 2619 2597 2516 
z
" id="DejaVuSans-33" transform="scale(0.015625)"/>
       </defs>
       <use xlink:href="#DejaVuSans-33"/>
       <use x="63.623047" xlink:href="#DejaVuSans-30"/>
       <use x="127.246094" xlink:href="#DejaVuSans-30"/>
       <use x="190.869141" xlink:href="#DejaVuSans-30"/>
      </g>
     </g>
    </g>
    <g id="text_8">
     <!-- Episodes -->
     <g transform="translate(213.917812 335.860562)scale(0.1 -0.1)">
      <defs>
       <path d="M 628 4666 
L 3578 4666 
L 3578 4134 
L 1259 4134 
L 1259 2753 
L 3481 2753 
L 3481 2222 
L 1259 2222 
L 1259 531 
L 3634 531 
L 3634 0 
L 628 0 
L 628 4666 
z
" id="DejaVuSans-45" transform="scale(0.015625)"/>
       <path d="M 1159 525 
L 1159 -1331 
L 581 -1331 
L 581 3500 
L 1159 3500 
L 1159 2969 
Q 1341 3281 1617 3432 
Q 1894 3584 2278 3584 
Q 2916 3584 3314 3078 
Q 3713 2572 3713 1747 
Q 3713 922 3314 415 
Q 2916 -91 2278 -91 
Q 1894 -91 1617 61 
Q 1341 213 1159 525 
z
M 3116 1747 
Q 3116 2381 2855 2742 
Q 2594 3103 2138 3103 
Q 1681 3103 1420 2742 
Q 1159 2381 1159 1747 
Q 1159 1113 1420 752 
Q 1681 391 2138 391 
Q 2594 391 2855 752 
Q 3116 1113 3116 1747 
z
" id="DejaVuSans-70" transform="scale(0.015625)"/>
       <path d="M 603 3500 
L 1178 3500 
L 1178 0 
L 603 0 
L 603 3500 
z
M 603 4863 
L 1178 4863 
L 1178 4134 
L 603 4134 
L 603 4863 
z
" id="DejaVuSans-69" transform="scale(0.015625)"/>
       <path d="M 2834 3397 
L 2834 2853 
Q 2591 2978 2328 3040 
Q 2066 3103 1784 3103 
Q 1356 3103 1142 2972 
Q 928 2841 928 2578 
Q 928 2378 1081 2264 
Q 1234 2150 1697 2047 
L 1894 2003 
Q 2506 1872 2764 1633 
Q 3022 1394 3022 966 
Q 3022 478 2636 193 
Q 2250 -91 1575 -91 
Q 1294 -91 989 -36 
Q 684 19 347 128 
L 347 722 
Q 666 556 975 473 
Q 1284 391 1588 391 
Q 1994 391 2212 530 
Q 2431 669 2431 922 
Q 2431 1156 2273 1281 
Q 2116 1406 1581 1522 
L 1381 1569 
Q 847 1681 609 1914 
Q 372 2147 372 2553 
Q 372 3047 722 3315 
Q 1072 3584 1716 3584 
Q 2034 3584 2315 3537 
Q 2597 3491 2834 3397 
z
" id="DejaVuSans-73" transform="scale(0.015625)"/>
       <path d="M 1959 3097 
Q 1497 3097 1228 2736 
Q 959 2375 959 1747 
Q 959 1119 1226 758 
Q 1494 397 1959 397 
Q 2419 397 2687 759 
Q 2956 1122 2956 1747 
Q 2956 2369 2687 2733 
Q 2419 3097 1959 3097 
z
M 1959 3584 
Q 2709 3584 3137 3096 
Q 3566 2609 3566 1747 
Q 3566 888 3137 398 
Q 2709 -91 1959 -91 
Q 1206 -91 779 398 
Q 353 888 353 1747 
Q 353 2609 779 3096 
Q 1206 3584 1959 3584 
z
" id="DejaVuSans-6f" transform="scale(0.015625)"/>
       <path d="M 2906 2969 
L 2906 4863 
L 3481 4863 
L 3481 0 
L 2906 0 
L 2906 525 
Q 2725 213 2448 61 
Q 2172 -91 1784 -91 
Q 1150 -91 751 415 
Q 353 922 353 1747 
Q 353 2572 751 3078 
Q 1150 3584 1784 3584 
Q 2172 3584 2448 3432 
Q 2725 3281 2906 2969 
z
M 947 1747 
Q 947 1113 1208 752 
Q 1469 391 1925 391 
Q 2381 391 2643 752 
Q 2906 1113 2906 1747 
Q 2906 2381 2643 2742 
Q 2381 3103 1925 3103 
Q 1469 3103 1208 2742 
Q 947 2381 947 1747 
z
" id="DejaVuSans-64" transform="scale(0.015625)"/>
       <path d="M 3597 1894 
L 3597 1613 
L 953 1613 
Q 991 1019 1311 708 
Q 1631 397 2203 397 
Q 2534 397 2845 478 
Q 3156 559 3463 722 
L 3463 178 
Q 3153 47 2828 -22 
Q 2503 -91 2169 -91 
Q 1331 -91 842 396 
Q 353 884 353 1716 
Q 353 2575 817 3079 
Q 1281 3584 2069 3584 
Q 2775 3584 3186 3129 
Q 3597 2675 3597 1894 
z
M 3022 2063 
Q 3016 2534 2758 2815 
Q 2500 3097 2075 3097 
Q 1594 3097 1305 2825 
Q 1016 2553 972 2059 
L 3022 2063 
z
" id="DejaVuSans-65" transform="scale(0.015625)"/>
      </defs>
      <use xlink:href="#DejaVuSans-45"/>
      <use x="63.183594" xlink:href="#DejaVuSans-70"/>
      <use x="126.660156" xlink:href="#DejaVuSans-69"/>
      <use x="154.443359" xlink:href="#DejaVuSans-73"/>
      <use x="206.542969" xlink:href="#DejaVuSans-6f"/>
      <use x="267.724609" xlink:href="#DejaVuSans-64"/>
      <use x="331.201172" xlink:href="#DejaVuSans-65"/>
      <use x="392.724609" xlink:href="#DejaVuSans-73"/>
     </g>
    </g>
   </g>
   <g id="matplotlib.axis_2">
    <g id="ytick_1">
     <g id="line2d_15">
      <path clip-path="url(#p551bf9bfc2)" d="M 57.6 302.346931 
L 414.72 302.346931 
" style="fill:none;stroke:#b0b0b0;stroke-linecap:square;stroke-width:0.8;"/>
     </g>
     <g id="line2d_16">
      <defs>
       <path d="M 0 0 
L -3.5 0 
" id="me088a088d9" style="stroke:#000000;stroke-width:0.8;"/>
      </defs>
      <g>
       <use style="stroke:#000000;stroke-width:0.8;" x="57.6" xlink:href="#me088a088d9" y="302.346931"/>
      </g>
     </g>
     <g id="text_9">
      <!-- −2.5 -->
      <g transform="translate(26.317187 306.146149)scale(0.1 -0.1)">
       <defs>
        <path d="M 678 2272 
L 4684 2272 
L 4684 1741 
L 678 1741 
L 678 2272 
z
" id="DejaVuSans-2212" transform="scale(0.015625)"/>
        <path d="M 684 794 
L 1344 794 
L 1344 0 
L 684 0 
L 684 794 
z
" id="DejaVuSans-2e" transform="scale(0.015625)"/>
       </defs>
       <use xlink:href="#DejaVuSans-2212"/>
       <use x="83.789062" xlink:href="#DejaVuSans-32"/>
       <use x="147.412109" xlink:href="#DejaVuSans-2e"/>
       <use x="179.199219" xlink:href="#DejaVuSans-35"/>
      </g>
     </g>
    </g>
    <g id="ytick_2">
     <g id="line2d_17">
      <path clip-path="url(#p551bf9bfc2)" d="M 57.6 254.286532 
L 414.72 254.286532 
" style="fill:none;stroke:#b0b0b0;stroke-linecap:square;stroke-width:0.8;"/>
     </g>
     <g id="line2d_18">
      <g>
       <use style="stroke:#000000;stroke-width:0.8;" x="57.6" xlink:href="#me088a088d9" y="254.286532"/>
      </g>
     </g>
     <g id="text_10">
      <!-- −2.0 -->
      <g transform="translate(26.317187 258.08575)scale(0.1 -0.1)">
       <use xlink:href="#DejaVuSans-2212"/>
       <use x="83.789062" xlink:href="#DejaVuSans-32"/>
       <use x="147.412109" xlink:href="#DejaVuSans-2e"/>
       <use x="179.199219" xlink:href="#DejaVuSans-30"/>
      </g>
     </g>
    </g>
    <g id="ytick_3">
     <g id="line2d_19">
      <path clip-path="url(#p551bf9bfc2)" d="M 57.6 206.226133 
L 414.72 206.226133 
" style="fill:none;stroke:#b0b0b0;stroke-linecap:square;stroke-width:0.8;"/>
     </g>
     <g id="line2d_20">
      <g>
       <use style="stroke:#000000;stroke-width:0.8;" x="57.6" xlink:href="#me088a088d9" y="206.226133"/>
      </g>
     </g>
     <g id="text_11">
      <!-- −1.5 -->
      <g transform="translate(26.317187 210.025351)scale(0.1 -0.1)">
       <use xlink:href="#DejaVuSans-2212"/>
       <use x="83.789062" xlink:href="#DejaVuSans-31"/>
       <use x="147.412109" xlink:href="#DejaVuSans-2e"/>
       <use x="179.199219" xlink:href="#DejaVuSans-35"/>
      </g>
     </g>
    </g>
    <g id="ytick_4">
     <g id="line2d_21">
      <path clip-path="url(#p551bf9bfc2)" d="M 57.6 158.165733 
L 414.72 158.165733 
" style="fill:none;stroke:#b0b0b0;stroke-linecap:square;stroke-width:0.8;"/>
     </g>
     <g id="line2d_22">
      <g>
       <use style="stroke:#000000;stroke-width:0.8;" x="57.6" xlink:href="#me088a088d9" y="158.165733"/>
      </g>
     </g>
     <g id="text_12">
      <!-- −1.0 -->
      <g transform="translate(26.317187 161.964952)scale(0.1 -0.1)">
       <use xlink:href="#DejaVuSans-2212"/>
       <use x="83.789062" xlink:href="#DejaVuSans-31"/>
       <use x="147.412109" xlink:href="#DejaVuSans-2e"/>
       <use x="179.199219" xlink:href="#DejaVuSans-30"/>
      </g>
     </g>
    </g>
    <g id="ytick_5">
     <g id="line2d_23">
      <path clip-path="url(#p551bf9bfc2)" d="M 57.6 110.105334 
L 414.72 110.105334 
" style="fill:none;stroke:#b0b0b0;stroke-linecap:square;stroke-width:0.8;"/>
     </g>
     <g id="line2d_24">
      <g>
       <use style="stroke:#000000;stroke-width:0.8;" x="57.6" xlink:href="#me088a088d9" y="110.105334"/>
      </g>
     </g>
     <g id="text_13">
      <!-- −0.5 -->
      <g transform="translate(26.317187 113.904553)scale(0.1 -0.1)">
       <use xlink:href="#DejaVuSans-2212"/>
       <use x="83.789062" xlink:href="#DejaVuSans-30"/>
       <use x="147.412109" xlink:href="#DejaVuSans-2e"/>
       <use x="179.199219" xlink:href="#DejaVuSans-35"/>
      </g>
     </g>
    </g>
    <g id="ytick_6">
     <g id="line2d_25">
      <path clip-path="url(#p551bf9bfc2)" d="M 57.6 62.044935 
L 414.72 62.044935 
" style="fill:none;stroke:#b0b0b0;stroke-linecap:square;stroke-width:0.8;"/>
     </g>
     <g id="line2d_26">
      <g>
       <use style="stroke:#000000;stroke-width:0.8;" x="57.6" xlink:href="#me088a088d9" y="62.044935"/>
      </g>
     </g>
     <g id="text_14">
      <!-- 0.0 -->
      <g transform="translate(34.696875 65.844154)scale(0.1 -0.1)">
       <use xlink:href="#DejaVuSans-30"/>
       <use x="63.623047" xlink:href="#DejaVuSans-2e"/>
       <use x="95.410156" xlink:href="#DejaVuSans-30"/>
      </g>
     </g>
    </g>
    <g id="text_15">
     <!-- Cumulative Reward -->
     <g transform="translate(20.2375 223.275656)rotate(-90)scale(0.1 -0.1)">
      <defs>
       <path d="M 4122 4306 
L 4122 3641 
Q 3803 3938 3442 4084 
Q 3081 4231 2675 4231 
Q 1875 4231 1450 3742 
Q 1025 3253 1025 2328 
Q 1025 1406 1450 917 
Q 1875 428 2675 428 
Q 3081 428 3442 575 
Q 3803 722 4122 1019 
L 4122 359 
Q 3791 134 3420 21 
Q 3050 -91 2638 -91 
Q 1578 -91 968 557 
Q 359 1206 359 2328 
Q 359 3453 968 4101 
Q 1578 4750 2638 4750 
Q 3056 4750 3426 4639 
Q 3797 4528 4122 4306 
z
" id="DejaVuSans-43" transform="scale(0.015625)"/>
       <path d="M 544 1381 
L 544 3500 
L 1119 3500 
L 1119 1403 
Q 1119 906 1312 657 
Q 1506 409 1894 409 
Q 2359 409 2629 706 
Q 2900 1003 2900 1516 
L 2900 3500 
L 3475 3500 
L 3475 0 
L 2900 0 
L 2900 538 
Q 2691 219 2414 64 
Q 2138 -91 1772 -91 
Q 1169 -91 856 284 
Q 544 659 544 1381 
z
M 1991 3584 
L 1991 3584 
z
" id="DejaVuSans-75" transform="scale(0.015625)"/>
       <path d="M 3328 2828 
Q 3544 3216 3844 3400 
Q 4144 3584 4550 3584 
Q 5097 3584 5394 3201 
Q 5691 2819 5691 2113 
L 5691 0 
L 5113 0 
L 5113 2094 
Q 5113 2597 4934 2840 
Q 4756 3084 4391 3084 
Q 3944 3084 3684 2787 
Q 3425 2491 3425 1978 
L 3425 0 
L 2847 0 
L 2847 2094 
Q 2847 2600 2669 2842 
Q 2491 3084 2119 3084 
Q 1678 3084 1418 2786 
Q 1159 2488 1159 1978 
L 1159 0 
L 581 0 
L 581 3500 
L 1159 3500 
L 1159 2956 
Q 1356 3278 1631 3431 
Q 1906 3584 2284 3584 
Q 2666 3584 2933 3390 
Q 3200 3197 3328 2828 
z
" id="DejaVuSans-6d" transform="scale(0.015625)"/>
       <path d="M 603 4863 
L 1178 4863 
L 1178 0 
L 603 0 
L 603 4863 
z
" id="DejaVuSans-6c" transform="scale(0.015625)"/>
       <path d="M 2194 1759 
Q 1497 1759 1228 1600 
Q 959 1441 959 1056 
Q 959 750 1161 570 
Q 1363 391 1709 391 
Q 2188 391 2477 730 
Q 2766 1069 2766 1631 
L 2766 1759 
L 2194 1759 
z
M 3341 1997 
L 3341 0 
L 2766 0 
L 2766 531 
Q 2569 213 2275 61 
Q 1981 -91 1556 -91 
Q 1019 -91 701 211 
Q 384 513 384 1019 
Q 384 1609 779 1909 
Q 1175 2209 1959 2209 
L 2766 2209 
L 2766 2266 
Q 2766 2663 2505 2880 
Q 2244 3097 1772 3097 
Q 1472 3097 1187 3025 
Q 903 2953 641 2809 
L 641 3341 
Q 956 3463 1253 3523 
Q 1550 3584 1831 3584 
Q 2591 3584 2966 3190 
Q 3341 2797 3341 1997 
z
" id="DejaVuSans-61" transform="scale(0.015625)"/>
       <path d="M 1172 4494 
L 1172 3500 
L 2356 3500 
L 2356 3053 
L 1172 3053 
L 1172 1153 
Q 1172 725 1289 603 
Q 1406 481 1766 481 
L 2356 481 
L 2356 0 
L 1766 0 
Q 1100 0 847 248 
Q 594 497 594 1153 
L 594 3053 
L 172 3053 
L 172 3500 
L 594 3500 
L 594 4494 
L 1172 4494 
z
" id="DejaVuSans-74" transform="scale(0.015625)"/>
       <path d="M 191 3500 
L 800 3500 
L 1894 563 
L 2988 3500 
L 3597 3500 
L 2284 0 
L 1503 0 
L 191 3500 
z
" id="DejaVuSans-76" transform="scale(0.015625)"/>
       <path id="DejaVuSans-20" transform="scale(0.015625)"/>
       <path d="M 2841 2188 
Q 3044 2119 3236 1894 
Q 3428 1669 3622 1275 
L 4263 0 
L 3584 0 
L 2988 1197 
Q 2756 1666 2539 1819 
Q 2322 1972 1947 1972 
L 1259 1972 
L 1259 0 
L 628 0 
L 628 4666 
L 2053 4666 
Q 2853 4666 3247 4331 
Q 3641 3997 3641 3322 
Q 3641 2881 3436 2590 
Q 3231 2300 2841 2188 
z
M 1259 4147 
L 1259 2491 
L 2053 2491 
Q 2509 2491 2742 2702 
Q 2975 2913 2975 3322 
Q 2975 3731 2742 3939 
Q 2509 4147 2053 4147 
L 1259 4147 
z
" id="DejaVuSans-52" transform="scale(0.015625)"/>
       <path d="M 269 3500 
L 844 3500 
L 1563 769 
L 2278 3500 
L 2956 3500 
L 3675 769 
L 4391 3500 
L 4966 3500 
L 4050 0 
L 3372 0 
L 2619 2869 
L 1863 0 
L 1184 0 
L 269 3500 
z
" id="DejaVuSans-77" transform="scale(0.015625)"/>
       <path d="M 2631 2963 
Q 2534 3019 2420 3045 
Q 2306 3072 2169 3072 
Q 1681 3072 1420 2755 
Q 1159 2438 1159 1844 
L 1159 0 
L 581 0 
L 581 3500 
L 1159 3500 
L 1159 2956 
Q 1341 3275 1631 3429 
Q 1922 3584 2338 3584 
Q 2397 3584 2469 3576 
Q 2541 3569 2628 3553 
L 2631 2963 
z
" id="DejaVuSans-72" transform="scale(0.015625)"/>
      </defs>
      <use xlink:href="#DejaVuSans-43"/>
      <use x="69.824219" xlink:href="#DejaVuSans-75"/>
      <use x="133.203125" xlink:href="#DejaVuSans-6d"/>
      <use x="230.615234" xlink:href="#DejaVuSans-75"/>
      <use x="293.994141" xlink:href="#DejaVuSans-6c"/>
      <use x="321.777344" xlink:href="#DejaVuSans-61"/>
      <use x="383.056641" xlink:href="#DejaVuSans-74"/>
      <use x="422.265625" xlink:href="#DejaVuSans-69"/>
      <use x="450.048828" xlink:href="#DejaVuSans-76"/>
      <use x="509.228516" xlink:href="#DejaVuSans-65"/>
      <use x="570.751953" xlink:href="#DejaVuSans-20"/>
      <use x="602.539062" xlink:href="#DejaVuSans-52"/>
      <use x="667.521484" xlink:href="#DejaVuSans-65"/>
      <use x="729.044922" xlink:href="#DejaVuSans-77"/>
      <use x="810.832031" xlink:href="#DejaVuSans-61"/>
      <use x="872.111328" xlink:href="#DejaVuSans-72"/>
      <use x="911.474609" xlink:href="#DejaVuSans-64"/>
     </g>
    </g>
    <g id="text_16">
     <!-- 1e8 -->
     <g transform="translate(57.6 38.472)scale(0.1 -0.1)">
      <defs>
       <path d="M 2034 2216 
Q 1584 2216 1326 1975 
Q 1069 1734 1069 1313 
Q 1069 891 1326 650 
Q 1584 409 2034 409 
Q 2484 409 2743 651 
Q 3003 894 3003 1313 
Q 3003 1734 2745 1975 
Q 2488 2216 2034 2216 
z
M 1403 2484 
Q 997 2584 770 2862 
Q 544 3141 544 3541 
Q 544 4100 942 4425 
Q 1341 4750 2034 4750 
Q 2731 4750 3128 4425 
Q 3525 4100 3525 3541 
Q 3525 3141 3298 2862 
Q 3072 2584 2669 2484 
Q 3125 2378 3379 2068 
Q 3634 1759 3634 1313 
Q 3634 634 3220 271 
Q 2806 -91 2034 -91 
Q 1263 -91 848 271 
Q 434 634 434 1313 
Q 434 1759 690 2068 
Q 947 2378 1403 2484 
z
M 1172 3481 
Q 1172 3119 1398 2916 
Q 1625 2713 2034 2713 
Q 2441 2713 2670 2916 
Q 2900 3119 2900 3481 
Q 2900 3844 2670 4047 
Q 2441 4250 2034 4250 
Q 1625 4250 1398 4047 
Q 1172 3844 1172 3481 
z
" id="DejaVuSans-38" transform="scale(0.015625)"/>
      </defs>
      <use xlink:href="#DejaVuSans-31"/>
      <use x="63.623047" xlink:href="#DejaVuSans-65"/>
      <use x="125.146484" xlink:href="#DejaVuSans-38"/>
     </g>
    </g>
   </g>
   <g id="line2d_27">
    <path clip-path="url(#p551bf9bfc2)" d="M 57.6 104.148054 
L 57.71904 110.594891 
L 57.83808 87.576275 
L 58.1952 110.594891 
L 58.31424 87.576275 
L 58.67136 110.594891 
L 58.7904 87.576275 
L 59.14752 110.594891 
L 59.26656 87.576275 
L 59.62368 110.594891 
L 59.74272 87.576275 
L 60.09984 110.594891 
L 60.21888 87.576275 
L 60.576 110.594891 
L 60.69504 87.576275 
L 61.05216 110.594891 
L 61.1712 87.576275 
L 61.52832 110.594891 
L 61.64736 87.576275 
L 62.00448 110.594891 
L 62.12352 87.576275 
L 62.48064 110.594891 
L 62.59968 87.576275 
L 62.9568 110.594891 
L 63.07584 87.576275 
L 63.43296 110.594891 
L 63.552 87.576275 
L 63.90912 110.594891 
L 64.02816 87.576275 
L 64.38528 110.594891 
L 64.50432 87.576275 
L 64.86144 110.594891 
L 64.98048 87.576275 
L 65.3376 110.594891 
L 65.45664 87.576275 
L 65.81376 110.594891 
L 65.9328 87.576275 
L 66.28992 110.594891 
L 66.40896 87.576275 
L 66.76608 110.594891 
L 66.88512 87.576275 
L 67.24224 110.594891 
L 67.36128 87.576275 
L 67.7184 110.594891 
L 67.83744 87.576275 
L 68.19456 110.594891 
L 68.3136 87.576275 
L 68.67072 110.594891 
L 68.78976 87.576275 
L 69.14688 110.594891 
L 69.26592 87.576275 
L 69.38496 95.003417 
L 69.504 110.524157 
L 69.62304 109.06881 
L 69.74208 84.930556 
L 69.86112 96.902945 
L 69.98016 85.808092 
L 70.0992 142.714857 
L 70.21824 96.780365 
L 70.33728 142.905601 
L 70.45632 92.738457 
L 70.57536 103.080452 
L 70.6944 98.722642 
L 70.81344 110.133509 
L 70.93248 91.942808 
L 71.05152 118.246648 
L 71.2896 97.716161 
L 71.40864 100.644347 
L 71.52768 82.666417 
L 71.64672 112.452043 
L 71.76576 191.47047 
L 72.00384 101.390204 
L 72.12288 249.249483 
L 72.24192 91.827486 
L 72.36096 92.440992 
L 72.48 88.831601 
L 72.71808 117.807222 
L 72.83712 85.293869 
L 72.95616 108.597278 
L 73.0752 78.439825 
L 73.19424 92.980493 
L 73.31328 124.620855 
L 73.43232 84.901944 
L 73.55136 89.394865 
L 73.6704 85.019208 
L 73.78944 126.236694 
L 73.90848 120.453164 
L 74.02752 176.383622 
L 74.2656 101.434007 
L 74.38464 100.101977 
L 74.50368 85.101629 
L 74.62272 101.102171 
L 74.74176 78.423711 
L 74.8608 129.762083 
L 74.97984 76.402162 
L 75.09888 112.250889 
L 75.33696 102.071537 
L 75.456 136.579044 
L 75.69408 80.266724 
L 75.93216 87.386024 
L 76.0512 84.436549 
L 76.17024 109.432125 
L 76.28928 106.789015 
L 76.40832 133.186483 
L 76.52736 122.418385 
L 76.6464 80.634687 
L 76.76544 131.28601 
L 76.88448 97.408009 
L 77.00352 120.379824 
L 77.12256 90.962661 
L 77.2416 96.706636 
L 77.36064 86.895208 
L 77.47968 107.484088 
L 77.59872 103.345407 
L 77.71776 77.81903 
L 77.95584 112.556257 
L 78.07488 100.111556 
L 78.19392 157.160832 
L 78.432 85.95203 
L 78.55104 98.942769 
L 78.67008 85.839294 
L 78.78912 99.31639 
L 78.90816 84.902812 
L 79.0272 115.891619 
L 79.38432 92.169602 
L 79.50336 92.830335 
L 79.6224 123.793364 
L 79.86048 97.332086 
L 79.97952 97.575277 
L 80.09856 84.129449 
L 80.2176 131.023214 
L 80.33664 75.005213 
L 80.45568 194.097666 
L 80.57472 114.338475 
L 80.69376 175.873457 
L 80.8128 77.492039 
L 80.93184 88.764905 
L 81.05088 123.161797 
L 81.16992 87.515899 
L 81.28896 134.411249 
L 81.52704 88.925116 
L 81.64608 96.466395 
L 81.76512 84.949405 
L 81.88416 94.891937 
L 82.12224 84.447485 
L 82.24128 96.165741 
L 82.47936 84.179915 
L 82.5984 98.998135 
L 82.83648 79.915336 
L 82.95552 101.266343 
L 83.07456 76.258409 
L 83.1936 100.38916 
L 83.43168 80.877068 
L 83.55072 100.827284 
L 83.66976 81.201192 
L 83.7888 106.234552 
L 83.90784 107.598652 
L 84.02688 166.207823 
L 84.26496 83.950322 
L 84.384 148.344422 
L 84.74112 76.398787 
L 84.86016 249.750255 
L 84.9792 99.247793 
L 85.09824 136.728326 
L 85.21728 76.155858 
L 85.33632 74.678098 
L 85.45536 76.52791 
L 85.5744 80.682463 
L 85.93152 180.998192 
L 86.1696 89.658637 
L 86.28864 85.605394 
L 86.40768 106.785068 
L 86.52672 90.394466 
L 86.64576 106.9702 
L 86.88384 80.344868 
L 87.00288 106.858793 
L 87.12192 98.080468 
L 87.24096 114.82618 
L 87.36 88.528525 
L 87.47904 111.423173 
L 87.59808 235.192279 
L 87.71712 93.707317 
L 87.83616 142.004093 
L 88.07424 91.407568 
L 88.31232 75.913351 
L 88.43136 72.811512 
L 88.66944 100.977191 
L 88.78848 78.559024 
L 88.90752 101.110365 
L 89.02656 77.807054 
L 89.26464 102.022525 
L 89.38368 77.584672 
L 89.50272 101.902508 
L 89.62176 97.963947 
L 89.7408 128.553697 
L 89.85984 79.472429 
L 89.97888 144.449183 
L 90.09792 87.450121 
L 90.21696 160.41753 
L 90.336 78.272892 
L 90.45504 75.048127 
L 90.57408 89.57717 
L 90.81216 72.721207 
L 90.9312 78.198759 
L 91.16928 75.282898 
L 91.28832 77.318724 
L 91.40736 124.850685 
L 91.5264 88.122909 
L 91.64544 118.51255 
L 91.88352 75.511249 
L 92.24064 85.144542 
L 92.35968 74.738227 
L 92.59776 86.074162 
L 92.7168 106.885109 
L 92.95488 82.101817 
L 93.07392 81.420418 
L 93.19296 84.909079 
L 93.312 140.387044 
L 93.43104 74.863822 
L 93.55008 109.560117 
L 93.66912 81.437972 
L 93.78816 83.412465 
L 93.9072 93.086432 
L 94.02624 74.203151 
L 94.14528 87.803711 
L 94.26432 74.381248 
L 94.38336 112.29952 
L 94.5024 78.149489 
L 94.62144 113.833186 
L 94.74048 81.820224 
L 94.85952 81.572102 
L 94.97856 90.333325 
L 95.0976 113.288637 
L 95.33568 76.14788 
L 95.45472 71.705429 
L 95.81184 83.587196 
L 95.93088 76.043935 
L 96.04992 80.315336 
L 96.16896 122.730514 
L 96.288 69.791518 
L 96.40704 110.149973 
L 96.52608 69.417086 
L 96.64512 91.23355 
L 96.76416 75.073752 
L 96.8832 79.524172 
L 97.00224 69.62388 
L 97.35936 113.606362 
L 97.4784 112.025406 
L 97.59744 68.312225 
L 97.71648 99.707148 
L 97.83552 69.93044 
L 97.95456 91.18842 
L 98.0736 86.646269 
L 98.19264 131.184628 
L 98.31168 79.479389 
L 98.43072 104.969488 
L 98.54976 101.92047 
L 98.6688 79.565019 
L 98.78784 114.430178 
L 98.90688 81.328053 
L 99.14496 97.670789 
L 99.264 75.505965 
L 99.38304 173.032528 
L 99.62112 109.96429 
L 99.74016 96.578672 
L 99.8592 124.690464 
L 99.97824 74.26407 
L 100.09728 73.201416 
L 100.21632 70.119683 
L 100.4544 88.420503 
L 100.57344 89.912138 
L 100.69248 86.940158 
L 100.81152 93.198066 
L 100.93056 74.6404 
L 101.0496 86.7623 
L 101.16864 81.799702 
L 101.28768 104.340537 
L 101.52576 77.196802 
L 101.6448 77.61642 
L 101.76384 77.452952 
L 101.88288 100.938875 
L 102.00192 92.242261 
L 102.12096 98.970671 
L 102.35904 77.433761 
L 102.47808 80.129843 
L 102.71616 96.29241 
L 102.95424 72.67661 
L 103.07328 88.684515 
L 103.19232 73.451231 
L 103.4304 88.742385 
L 103.54944 74.546694 
L 103.66848 90.970532 
L 103.78752 71.002612 
L 103.90656 85.280361 
L 104.0256 79.088577 
L 104.14464 103.050272 
L 104.26368 75.209716 
L 104.38272 203.893464 
L 104.6208 91.997182 
L 104.73984 68.967836 
L 104.85888 83.226764 
L 104.97792 75.582613 
L 105.09696 83.978017 
L 105.216 73.093419 
L 105.33504 74.076104 
L 105.45408 80.187969 
L 105.57312 78.210056 
L 105.69216 85.999765 
L 105.8112 73.139817 
L 106.04928 83.878731 
L 106.16832 81.7684 
L 106.4064 103.458311 
L 106.52544 83.948921 
L 106.64448 97.038483 
L 106.76352 80.986203 
L 107.0016 110.53273 
L 107.12064 79.482532 
L 107.23968 159.245943 
L 107.35872 80.964051 
L 107.47776 112.222442 
L 107.71584 77.051628 
L 107.83488 164.566892 
L 107.95392 75.625951 
L 108.07296 82.506449 
L 108.192 109.103708 
L 108.31104 104.60383 
L 108.43008 88.389622 
L 108.54912 94.22691 
L 108.66816 75.810488 
L 108.7872 95.080743 
L 108.90624 87.62707 
L 109.02528 91.730846 
L 109.14432 164.358808 
L 109.26336 83.92165 
L 109.3824 147.587666 
L 109.50144 79.522841 
L 109.62048 129.436291 
L 109.73952 74.790766 
L 109.85856 137.905109 
L 109.9776 72.046454 
L 110.09664 77.346652 
L 110.21568 77.665587 
L 110.33472 74.223266 
L 110.45376 77.726699 
L 110.5728 123.445747 
L 110.69184 74.626304 
L 110.81088 113.976334 
L 110.92992 73.774037 
L 111.04896 75.168578 
L 111.168 104.436208 
L 111.28704 67.017238 
L 111.40608 82.155307 
L 111.52512 82.789897 
L 111.64416 104.840285 
L 111.7632 81.162397 
L 111.88224 84.298055 
L 112.12032 68.170073 
L 112.23936 102.683297 
L 112.47744 71.798314 
L 112.59648 147.46667 
L 112.71552 70.408548 
L 112.83456 72.029459 
L 112.9536 129.81395 
L 113.07264 69.643788 
L 113.19168 122.544161 
L 113.31072 76.736973 
L 113.42976 79.202578 
L 113.5488 71.75301 
L 113.66784 71.333499 
L 113.78688 71.782095 
L 113.90592 79.07336 
L 114.02496 72.495165 
L 114.144 74.309656 
L 114.26304 73.665294 
L 114.38208 157.030739 
L 114.50112 73.444193 
L 114.62016 144.63023 
L 114.7392 69.795862 
L 114.85824 113.132705 
L 114.97728 67.25416 
L 115.09632 153.377801 
L 115.21536 68.372691 
L 115.3344 67.233383 
L 115.45344 68.395716 
L 115.57248 70.924671 
L 115.69152 69.026789 
L 116.04864 77.719901 
L 116.16768 151.835233 
L 116.28672 92.851612 
L 116.40576 107.163676 
L 116.64384 76.579146 
L 116.76288 79.282394 
L 116.88192 69.042371 
L 117.00096 72.112929 
L 117.23904 68.552904 
L 117.35808 96.335114 
L 117.59616 68.624183 
L 117.7152 78.768407 
L 117.83424 70.450071 
L 117.95328 100.045996 
L 118.3104 75.429661 
L 118.42944 78.004009 
L 118.54848 75.121878 
L 118.66752 86.653183 
L 118.78656 70.813704 
L 119.02464 101.90924 
L 119.14368 70.610809 
L 119.26272 72.044066 
L 119.38176 68.546096 
L 119.61984 72.2297 
L 119.73888 69.644548 
L 119.85792 101.399117 
L 120.096 67.285034 
L 120.21504 68.129818 
L 120.33408 72.955816 
L 120.45312 91.257474 
L 120.57216 90.090039 
L 120.6912 114.410354 
L 120.92928 67.935964 
L 121.04832 94.615824 
L 121.16736 69.190927 
L 121.2864 109.831317 
L 121.40544 67.466629 
L 121.52448 90.657714 
L 121.64352 68.315602 
L 121.76256 75.995439 
L 121.8816 73.527882 
L 122.00064 75.329624 
L 122.11968 93.481408 
L 122.4768 74.972941 
L 122.59584 83.413165 
L 122.71488 82.76965 
L 122.83392 68.563214 
L 122.95296 78.619048 
L 123.072 69.457935 
L 123.31008 88.531696 
L 123.42912 72.273202 
L 123.54816 160.126856 
L 123.78624 72.958885 
L 123.90528 77.806985 
L 124.02432 90.973952 
L 124.2624 70.307924 
L 124.38144 234.329232 
L 124.50048 70.325904 
L 124.61952 165.827211 
L 124.8576 69.637714 
L 124.97664 139.743176 
L 125.09568 69.914546 
L 125.33376 131.506071 
L 125.4528 74.2742 
L 125.57184 129.128976 
L 125.69088 88.275209 
L 125.80992 101.446836 
L 125.92896 150.752318 
L 126.048 87.371336 
L 126.16704 115.382713 
L 126.28608 73.346483 
L 126.40512 122.451104 
L 126.6432 69.31022 
L 126.76224 74.167864 
L 126.88128 69.690453 
L 127.00032 90.011955 
L 127.11936 70.273114 
L 127.2384 102.629577 
L 127.35744 67.376785 
L 127.47648 96.918265 
L 127.59552 71.403346 
L 127.71456 77.749894 
L 127.95264 71.614029 
L 128.07168 97.539138 
L 128.19072 67.81675 
L 128.30976 76.32235 
L 128.4288 68.324165 
L 128.66688 82.132187 
L 128.78592 69.79518 
L 128.90496 85.890709 
L 129.024 141.230257 
L 129.26208 91.107328 
L 129.50016 101.128887 
L 129.6192 125.588436 
L 129.85728 83.330022 
L 129.97632 114.864525 
L 130.09536 70.275909 
L 130.2144 188.596157 
L 130.33344 79.415269 
L 130.45248 77.244441 
L 130.57152 71.573929 
L 130.69056 81.984342 
L 130.8096 69.489397 
L 130.92864 85.785844 
L 131.16672 80.024603 
L 131.28576 80.171201 
L 131.52384 67.773357 
L 131.64288 82.196713 
L 131.88096 75.390799 
L 132 65.33084 
L 132.11904 89.008315 
L 132.23808 69.090954 
L 132.35712 83.959638 
L 132.71424 68.091616 
L 132.83328 86.290194 
L 132.95232 66.665383 
L 133.07136 79.984987 
L 133.30944 66.844665 
L 133.42848 87.019213 
L 133.54752 70.388328 
L 133.66656 94.05274 
L 133.90464 78.217105 
L 134.02368 88.732045 
L 134.14272 72.119674 
L 134.26176 77.241791 
L 134.3808 120.799338 
L 134.49984 68.222814 
L 134.61888 116.820546 
L 134.85696 69.743527 
L 135.09504 75.127443 
L 135.21408 66.952254 
L 135.33312 68.768378 
L 135.45216 66.888434 
L 135.69024 76.503849 
L 135.80928 64.736085 
L 135.92832 91.707177 
L 136.04736 69.114279 
L 136.1664 94.612377 
L 136.40448 87.000465 
L 136.52352 97.090797 
L 136.7616 75.553727 
L 136.88064 79.105631 
L 137.11872 65.434305 
L 137.23776 184.204902 
L 137.3568 63.648 
L 137.47584 112.345626 
L 137.71392 65.163936 
L 137.952 75.147522 
L 138.07104 64.484863 
L 138.19008 88.359643 
L 138.30912 66.97314 
L 138.42816 95.658508 
L 138.5472 216.503127 
L 138.78528 68.706836 
L 139.02336 185.317784 
L 139.1424 106.822316 
L 139.26144 151.092859 
L 139.38048 137.529731 
L 139.49952 72.801569 
L 139.61856 70.033436 
L 139.7376 74.467403 
L 139.85664 96.028303 
L 139.97568 70.655791 
L 140.09472 76.52382 
L 140.21376 69.139379 
L 140.3328 106.80709 
L 140.45184 78.767935 
L 140.57088 119.942087 
L 140.68992 72.918491 
L 140.80896 134.070717 
L 140.928 68.051652 
L 141.04704 85.446147 
L 141.16608 72.04096 
L 141.28512 79.400508 
L 141.40416 144.886066 
L 141.5232 79.242152 
L 141.64224 134.582634 
L 141.76128 70.736471 
L 141.88032 163.423336 
L 141.99936 76.980614 
L 142.1184 104.347676 
L 142.23744 75.547901 
L 142.35648 81.691215 
L 142.47552 65.980316 
L 142.59456 75.855861 
L 142.7136 67.69059 
L 142.83264 67.39443 
L 142.95168 67.93561 
L 143.07072 67.675663 
L 143.18976 67.922929 
L 143.3088 82.42907 
L 143.42784 68.11585 
L 143.66592 76.376891 
L 143.78496 75.965342 
L 143.904 67.864701 
L 144.26112 75.701651 
L 144.38016 109.780316 
L 144.4992 72.585404 
L 144.61824 81.443566 
L 144.85632 75.459486 
L 144.97536 80.439899 
L 145.0944 75.976089 
L 145.21344 110.59606 
L 145.33248 70.283492 
L 145.45152 74.904794 
L 145.57056 72.516166 
L 145.6896 66.794312 
L 145.80864 82.704428 
L 145.92768 74.743578 
L 146.04672 80.091036 
L 146.16576 76.027798 
L 146.2848 95.255495 
L 146.40384 73.806028 
L 146.52288 93.347619 
L 146.64192 66.748389 
L 146.76096 75.142635 
L 146.88 68.108636 
L 146.99904 75.414481 
L 147.11808 92.904405 
L 147.23712 154.06931 
L 147.35616 89.980605 
L 147.4752 109.807572 
L 147.71328 65.8245 
L 147.83232 87.675053 
L 147.95136 66.443275 
L 148.0704 72.936687 
L 148.18944 68.007182 
L 148.30848 69.214547 
L 148.42752 66.267303 
L 148.54656 73.789637 
L 148.6656 73.216304 
L 148.78464 78.164702 
L 148.90368 73.223068 
L 149.02272 90.808959 
L 149.14176 83.122734 
L 149.2608 148.123479 
L 149.37984 66.736181 
L 149.61792 70.148843 
L 149.73696 82.98775 
L 149.856 73.085363 
L 150.21312 100.240158 
L 150.33216 82.680788 
L 150.4512 153.587057 
L 150.57024 91.925834 
L 150.68928 139.701282 
L 150.92736 73.607748 
L 151.0464 76.940985 
L 151.16544 78.599758 
L 151.28448 69.766445 
L 151.40352 81.527738 
L 151.52256 79.329578 
L 151.6416 122.528401 
L 151.76064 82.852987 
L 151.87968 128.343747 
L 151.99872 115.314985 
L 152.11776 83.184472 
L 152.2368 99.747518 
L 152.35584 68.578949 
L 152.47488 67.41852 
L 152.59392 73.931126 
L 152.71296 69.127064 
L 152.832 72.189243 
L 152.95104 71.451359 
L 153.18912 73.543705 
L 153.30816 82.152232 
L 153.4272 66.999359 
L 153.66528 74.374447 
L 153.90336 65.275969 
L 154.0224 73.787028 
L 154.14144 66.259693 
L 154.26048 88.601779 
L 154.37952 70.107808 
L 154.49856 87.17248 
L 154.6176 75.483082 
L 154.73664 78.934917 
L 154.85568 72.663719 
L 154.97472 82.193489 
L 155.2128 67.283129 
L 155.45088 70.414457 
L 155.56992 66.908077 
L 155.68896 81.726806 
L 155.808 66.075515 
L 155.92704 77.316896 
L 156.4032 70.572864 
L 156.64128 77.101897 
L 156.76032 67.29883 
L 156.87936 76.841574 
L 156.9984 70.448791 
L 157.23648 73.884138 
L 157.35552 74.838577 
L 157.5936 116.196718 
L 157.71264 100.917213 
L 157.83168 162.142723 
L 158.06976 73.707354 
L 158.30784 70.343306 
L 158.42688 74.4455 
L 158.54592 168.846295 
L 158.66496 77.862486 
L 158.784 106.432405 
L 158.90304 74.634801 
L 159.02208 78.069616 
L 159.14112 71.510064 
L 159.26016 89.337053 
L 159.3792 67.851682 
L 159.61728 80.284444 
L 159.73632 69.250607 
L 159.85536 80.937606 
L 159.9744 65.431134 
L 160.33152 84.726008 
L 160.45056 68.62172 
L 160.5696 82.400551 
L 160.68864 79.34173 
L 160.80768 88.144609 
L 160.92672 172.67381 
L 161.04576 71.392732 
L 161.1648 148.656416 
L 161.40288 72.346285 
L 161.52192 66.205239 
L 161.76 76.993985 
L 161.87904 127.950048 
L 161.99808 73.643323 
L 162.11712 168.967751 
L 162.23616 78.702997 
L 162.3552 132.375555 
L 162.47424 85.503022 
L 162.59328 83.891972 
L 162.71232 80.552204 
L 162.83136 71.01476 
L 162.9504 82.328223 
L 163.06944 69.582019 
L 163.30752 90.714089 
L 163.42656 69.895529 
L 163.5456 71.29386 
L 163.66464 68.506371 
L 163.78368 82.529783 
L 163.90272 70.779084 
L 164.02176 70.747083 
L 164.1408 80.797582 
L 164.25984 74.505244 
L 164.37888 77.413653 
L 164.49792 102.96181 
L 164.61696 74.392185 
L 164.736 78.159518 
L 164.85504 109.534978 
L 164.97408 65.867591 
L 165.09312 108.663162 
L 165.21216 75.200936 
L 165.3312 77.289581 
L 165.56928 68.052237 
L 165.9264 71.432593 
L 166.04544 66.934698 
L 166.16448 127.865535 
L 166.28352 77.482936 
L 166.40256 138.422961 
L 166.64064 78.332892 
L 166.75968 70.202871 
L 166.87872 114.378686 
L 166.99776 70.553206 
L 167.1168 77.419938 
L 167.23584 67.801363 
L 167.35488 79.738101 
L 167.47392 70.175222 
L 167.59296 77.880126 
L 167.712 71.441121 
L 167.83104 71.067179 
L 167.95008 73.052273 
L 168.18816 85.073157 
L 168.42624 67.792874 
L 168.54528 76.687873 
L 168.66432 110.506696 
L 168.78336 85.628051 
L 169.02144 190.352764 
L 169.14048 82.463576 
L 169.25952 96.575657 
L 169.4976 69.718075 
L 169.61664 137.031373 
L 169.73568 74.73856 
L 169.85472 162.449375 
L 170.0928 66.299537 
L 170.33088 75.757851 
L 170.44992 117.592379 
L 170.56896 81.926298 
L 170.688 146.595218 
L 170.92608 65.257582 
L 171.04512 82.168209 
L 171.16416 66.446969 
L 171.2832 85.357628 
L 171.52128 69.004964 
L 171.64032 72.441465 
L 171.75936 69.624753 
L 171.99744 90.291228 
L 172.11648 71.156208 
L 172.23552 78.501815 
L 172.35456 72.714575 
L 172.4736 231.391223 
L 172.59264 78.589387 
L 172.71168 96.356029 
L 172.83072 71.529248 
L 172.94976 93.358121 
L 173.0688 82.136837 
L 173.18784 102.333557 
L 173.30688 70.969706 
L 173.42592 117.360331 
L 173.54496 68.476463 
L 173.664 76.323559 
L 173.78304 73.114049 
L 173.90208 65.95318 
L 174.02112 92.060348 
L 174.2592 71.527899 
L 174.37824 99.188244 
L 174.49728 69.709637 
L 174.61632 92.844637 
L 174.8544 69.552605 
L 174.97344 113.38035 
L 175.09248 77.70356 
L 175.21152 162.747932 
L 175.33056 69.058104 
L 175.4496 134.793708 
L 175.68768 72.865971 
L 175.80672 133.104172 
L 175.92576 75.33495 
L 176.0448 95.501339 
L 176.16384 77.924077 
L 176.28288 82.897581 
L 176.40192 76.341536 
L 176.52096 76.756748 
L 176.64 68.037971 
L 176.75904 68.625563 
L 176.87808 71.775077 
L 176.99712 69.090173 
L 177.2352 86.334385 
L 177.35424 76.484536 
L 177.47328 105.260398 
L 177.71136 70.539284 
L 177.94944 76.263731 
L 178.18752 68.887726 
L 178.30656 74.536232 
L 178.54464 66.402178 
L 178.66368 68.277935 
L 178.78272 75.949138 
L 178.90176 72.815925 
L 179.0208 73.422041 
L 179.13984 123.029885 
L 179.25888 66.413179 
L 179.37792 95.903076 
L 179.49696 75.337854 
L 179.616 92.351668 
L 179.73504 76.04029 
L 179.85408 100.187693 
L 179.97312 69.368866 
L 180.09216 71.701619 
L 180.2112 67.738773 
L 180.33024 76.557488 
L 180.56832 70.892703 
L 180.68736 69.478666 
L 180.8064 69.47911 
L 180.92544 82.207573 
L 181.04448 68.924596 
L 181.16352 82.063769 
L 181.28256 68.975001 
L 181.4016 78.537206 
L 181.52064 69.692087 
L 181.63968 69.353074 
L 181.75872 67.229661 
L 181.87776 84.376256 
L 181.9968 66.798846 
L 182.11584 76.532787 
L 182.23488 68.581825 
L 182.35392 80.999022 
L 182.592 66.14831 
L 182.71104 82.81319 
L 182.83008 66.53331 
L 182.94912 71.026531 
L 183.1872 66.248306 
L 183.30624 75.830454 
L 183.42528 75.400589 
L 183.54432 70.66675 
L 183.66336 78.473291 
L 183.7824 74.59499 
L 183.90144 66.545006 
L 184.02048 73.617196 
L 184.13952 66.894085 
L 184.25856 75.435435 
L 184.3776 68.667149 
L 184.49664 71.994185 
L 184.73472 69.001424 
L 184.85376 78.765376 
L 184.9728 77.979816 
L 185.21088 72.082799 
L 185.32992 75.476868 
L 185.44896 70.481069 
L 185.68704 82.584903 
L 185.80608 74.973149 
L 185.92512 75.420134 
L 186.04416 71.409994 
L 186.1632 73.023524 
L 186.28224 83.19522 
L 186.40128 71.292909 
L 186.63936 89.745028 
L 186.7584 67.650346 
L 186.87744 92.58478 
L 186.99648 70.637091 
L 187.23456 95.415632 
L 187.3536 88.065394 
L 187.47264 70.786138 
L 187.59168 70.138887 
L 187.82976 77.757084 
L 188.06784 67.505256 
L 188.18688 69.123691 
L 188.30592 68.151094 
L 188.42496 65.883645 
L 188.544 79.512295 
L 188.66304 70.163505 
L 188.78208 69.692634 
L 189.02016 75.981632 
L 189.1392 114.986174 
L 189.25824 81.248745 
L 189.37728 190.120694 
L 189.49632 73.961584 
L 189.61536 74.189099 
L 189.7344 89.705574 
L 189.85344 73.101354 
L 189.97248 79.185244 
L 190.09152 69.691546 
L 190.21056 81.216604 
L 190.3296 107.207689 
L 190.44864 77.483135 
L 190.56768 111.278522 
L 190.68672 68.477258 
L 190.80576 76.360947 
L 190.9248 285.408 
L 191.04384 78.184582 
L 191.16288 143.117374 
L 191.28192 80.563352 
L 191.40096 78.642613 
L 191.52 80.613356 
L 191.63904 71.330368 
L 191.75808 76.990846 
L 191.87712 66.050103 
L 191.99616 188.103832 
L 192.1152 67.918456 
L 192.23424 214.012856 
L 192.35328 74.474674 
L 192.47232 69.118757 
L 192.59136 72.179188 
L 192.7104 66.892685 
L 192.82944 67.648324 
L 192.94848 118.860179 
L 193.06752 75.400985 
L 193.18656 75.186006 
L 193.42464 89.752997 
L 193.54368 70.839275 
L 193.66272 82.313216 
L 193.78176 66.645993 
L 193.9008 73.309892 
L 194.01984 69.361756 
L 194.13888 72.660077 
L 194.37696 88.913898 
L 194.496 67.97318 
L 194.85312 76.937726 
L 194.97216 67.948566 
L 195.0912 76.897694 
L 195.21024 67.802193 
L 195.32928 92.337667 
L 195.44832 68.281122 
L 195.56736 72.944763 
L 195.6864 71.354639 
L 195.80544 84.368936 
L 195.92448 72.918313 
L 196.04352 72.16179 
L 196.16256 73.315993 
L 196.2816 79.687151 
L 196.40064 93.846893 
L 196.51968 122.488616 
L 196.63872 68.560537 
L 196.75776 66.450439 
L 196.8768 80.419441 
L 196.99584 69.154579 
L 197.11488 70.195947 
L 197.23392 97.102723 
L 197.35296 65.393819 
L 197.472 78.168993 
L 197.59104 138.413101 
L 197.71008 67.230611 
L 197.82912 77.712451 
L 197.94816 72.692257 
L 198.0672 87.476443 
L 198.18624 69.748478 
L 198.30528 69.050889 
L 198.42432 70.14605 
L 198.54336 97.065437 
L 198.6624 72.335062 
L 198.78144 91.808257 
L 198.90048 69.018214 
L 199.13856 82.776555 
L 199.2576 73.209726 
L 199.37664 115.112804 
L 199.61472 91.192995 
L 199.8528 68.311422 
L 199.97184 108.933559 
L 200.09088 79.82462 
L 200.20992 108.407792 
L 200.32896 71.305157 
L 200.448 96.123739 
L 200.68608 70.094105 
L 200.92416 79.504889 
L 201.0432 71.585935 
L 201.16224 77.620806 
L 201.28128 95.700999 
L 201.40032 73.686472 
L 201.51936 72.81473 
L 201.6384 68.146699 
L 201.75744 71.044957 
L 201.87648 68.557626 
L 201.99552 81.619588 
L 202.11456 69.902978 
L 202.2336 83.160644 
L 202.35264 67.909048 
L 202.47168 80.934541 
L 202.59072 69.779551 
L 202.8288 97.674598 
L 203.18592 71.230082 
L 203.30496 69.968413 
L 203.424 78.009335 
L 203.66208 72.341827 
L 203.78112 84.312249 
L 203.90016 126.178625 
L 204.0192 82.803076 
L 204.13824 98.633332 
L 204.25728 76.191499 
L 204.37632 79.497537 
L 204.49536 70.748901 
L 204.6144 73.030285 
L 204.73344 94.062942 
L 204.85248 70.805164 
L 204.97152 111.036973 
L 205.09056 68.840668 
L 205.2096 68.831393 
L 205.32864 128.003519 
L 205.44768 70.2906 
L 205.56672 113.54716 
L 205.68576 68.700489 
L 205.8048 79.733479 
L 205.92384 66.016951 
L 206.04288 69.117827 
L 206.16192 66.211992 
L 206.28096 129.83906 
L 206.4 66.354114 
L 206.63808 146.844268 
L 206.75712 91.835691 
L 206.87616 137.002608 
L 206.9952 98.661184 
L 207.23328 116.206316 
L 207.47136 101.880671 
L 207.5904 68.915643 
L 207.70944 78.305 
L 207.82848 70.012511 
L 207.94752 156.648298 
L 208.06656 94.193588 
L 208.1856 124.067529 
L 208.30464 72.866224 
L 208.42368 90.575775 
L 208.54272 66.927925 
L 208.66176 81.032465 
L 208.7808 134.310668 
L 208.89984 73.830633 
L 209.01888 92.806136 
L 209.13792 84.991622 
L 209.25696 126.471572 
L 209.376 70.394463 
L 209.73312 81.350201 
L 209.85216 67.939257 
L 209.9712 72.26492 
L 210.09024 67.12645 
L 210.20928 68.241281 
L 210.5664 79.311621 
L 210.68544 69.58028 
L 210.80448 69.962742 
L 210.92352 195.689152 
L 211.04256 70.611127 
L 211.1616 110.05845 
L 211.28064 69.197015 
L 211.39968 76.67824 
L 211.51872 74.896882 
L 211.63776 114.271949 
L 211.7568 67.769215 
L 211.87584 100.524469 
L 211.99488 68.228214 
L 212.11392 133.444322 
L 212.23296 70.054786 
L 212.352 74.280001 
L 212.47104 68.974909 
L 212.59008 70.980433 
L 212.70912 81.381685 
L 212.9472 68.624759 
L 213.06624 72.665877 
L 213.30432 66.430836 
L 213.5424 69.090797 
L 213.66144 77.862321 
L 213.89952 68.216275 
L 214.01856 76.758482 
L 214.25664 71.632339 
L 214.37568 74.932464 
L 214.61376 71.168052 
L 214.7328 67.561443 
L 214.85184 139.92666 
L 214.97088 73.083789 
L 215.08992 141.795992 
L 215.328 94.37539 
L 215.68512 69.250608 
L 215.80416 72.148532 
L 215.9232 67.645603 
L 216.16128 69.478476 
L 216.28032 75.242278 
L 216.39936 66.515167 
L 216.5184 117.061857 
L 216.63744 71.218882 
L 216.75648 72.333921 
L 216.87552 69.189684 
L 216.99456 99.293016 
L 217.1136 97.482567 
L 217.23264 67.216146 
L 217.35168 77.378732 
L 217.47072 66.748116 
L 217.58976 77.079097 
L 217.7088 67.017643 
L 217.82784 83.65104 
L 217.94688 66.04016 
L 218.06592 94.011308 
L 218.18496 75.274929 
L 218.304 81.237343 
L 218.42304 134.557291 
L 218.66112 69.389767 
L 218.78016 71.04653 
L 219.01824 78.284718 
L 219.13728 144.885646 
L 219.25632 76.387835 
L 219.37536 85.317089 
L 219.4944 67.783107 
L 219.61344 67.505019 
L 219.73248 68.605564 
L 219.85152 66.621088 
L 219.97056 67.043204 
L 220.0896 80.473753 
L 220.20864 68.15749 
L 220.32768 73.534969 
L 220.44672 108.832671 
L 220.56576 66.154025 
L 220.6848 133.307252 
L 220.80384 67.339272 
L 220.92288 70.37015 
L 221.04192 70.107948 
L 221.16096 67.209415 
L 221.28 67.386985 
L 221.39904 66.807479 
L 221.51808 91.731382 
L 221.63712 68.736245 
L 221.75616 115.561992 
L 221.8752 71.638802 
L 222.11328 69.810468 
L 222.23232 81.136006 
L 222.35136 67.530345 
L 222.4704 72.640033 
L 222.58944 69.720935 
L 222.70848 70.742521 
L 222.82752 78.852297 
L 222.94656 66.092252 
L 223.0656 80.888024 
L 223.18464 67.260838 
L 223.54176 75.316844 
L 223.6608 74.049443 
L 223.89888 81.535867 
L 224.01792 69.077703 
L 224.13696 79.55388 
L 224.256 69.310098 
L 224.37504 74.586752 
L 224.49408 66.917387 
L 224.61312 69.809675 
L 224.73216 101.74711 
L 224.8512 69.010079 
L 224.97024 90.670939 
L 225.08928 68.639939 
L 225.32736 80.332506 
L 225.4464 77.916247 
L 225.56544 82.524557 
L 225.68448 76.397813 
L 225.80352 78.463179 
L 226.0416 72.657925 
L 226.16064 73.405976 
L 226.27968 72.052222 
L 226.39872 80.262868 
L 226.51776 65.509533 
L 226.6368 75.567181 
L 226.75584 69.546028 
L 226.87488 81.890074 
L 226.99392 69.820626 
L 227.11296 72.130596 
L 227.232 66.902309 
L 227.35104 70.05296 
L 227.47008 69.1794 
L 227.70816 100.231019 
L 227.94624 69.35445 
L 228.06528 70.497698 
L 228.18432 67.592108 
L 228.30336 69.85219 
L 228.4224 66.788518 
L 228.54144 67.960862 
L 228.77952 74.274196 
L 228.89856 74.851187 
L 229.0176 65.810682 
L 229.13664 69.158613 
L 229.25568 66.202982 
L 229.37472 72.503236 
L 229.49376 71.452428 
L 229.6128 89.630405 
L 229.73184 69.715284 
L 229.85088 175.09462 
L 229.96992 76.002919 
L 230.08896 119.362591 
L 230.208 68.33832 
L 230.32704 115.19021 
L 230.44608 70.860278 
L 230.56512 71.725691 
L 230.68416 71.043952 
L 230.8032 68.407818 
L 231.04128 73.114608 
L 231.16032 71.922063 
L 231.27936 68.71006 
L 231.3984 81.1058 
L 231.51744 76.599153 
L 231.63648 132.842122 
L 231.75552 71.032892 
L 231.87456 74.766353 
L 231.9936 103.637865 
L 232.11264 74.966059 
L 232.23168 97.231211 
L 232.35072 68.035485 
L 232.46976 107.820845 
L 232.5888 68.183629 
L 232.70784 82.761593 
L 232.82688 72.214785 
L 232.94592 72.365864 
L 233.184 70.157253 
L 233.30304 74.757506 
L 233.42208 70.109483 
L 233.66016 73.799578 
L 233.7792 86.294492 
L 233.89824 75.77407 
L 234.01728 94.754741 
L 234.25536 74.01159 
L 234.3744 67.032731 
L 234.49344 82.988917 
L 234.73152 68.274174 
L 234.85056 86.938999 
L 234.9696 66.594358 
L 235.08864 81.766807 
L 235.20768 68.78983 
L 235.32672 71.278256 
L 235.44576 71.273336 
L 235.5648 76.656822 
L 235.68384 121.589062 
L 235.80288 78.068631 
L 235.92192 91.692587 
L 236.04096 121.619994 
L 236.16 71.606852 
L 236.27904 69.659322 
L 236.39808 70.838454 
L 236.51712 69.430112 
L 236.63616 111.614579 
L 236.7552 72.780319 
L 236.87424 84.393166 
L 236.99328 67.446914 
L 237.11232 125.595378 
L 237.23136 67.566463 
L 237.3504 74.408264 
L 237.46944 74.424042 
L 237.70752 81.766929 
L 237.82656 98.813285 
L 237.9456 91.142339 
L 238.06464 72.606686 
L 238.18368 72.704197 
L 238.42176 68.94474 
L 238.65984 89.106604 
L 238.77888 75.738401 
L 238.89792 83.611103 
L 239.01696 65.759137 
L 239.136 71.523385 
L 239.25504 66.909204 
L 239.37408 73.765575 
L 239.49312 87.527303 
L 239.61216 65.927459 
L 239.7312 140.385682 
L 239.85024 66.202517 
L 239.96928 117.266523 
L 240.08832 115.062111 
L 240.3264 76.728526 
L 240.56448 68.295752 
L 240.80256 78.625882 
L 240.9216 127.393644 
L 241.04064 81.491384 
L 241.15968 114.615662 
L 241.27872 85.48058 
L 241.39776 101.095504 
L 241.5168 69.237433 
L 241.63584 88.614349 
L 241.99296 68.445921 
L 242.112 69.582943 
L 242.35008 78.332462 
L 242.46912 71.897766 
L 242.58816 73.053486 
L 242.7072 67.319973 
L 242.82624 67.97441 
L 242.94528 72.410242 
L 243.06432 66.103509 
L 243.3024 84.907868 
L 243.42144 71.394535 
L 243.65952 78.317384 
L 243.77856 68.019561 
L 243.8976 93.279647 
L 244.01664 69.155472 
L 244.13568 107.830711 
L 244.37376 69.180575 
L 244.4928 70.492558 
L 244.73088 75.108149 
L 244.96896 72.760917 
L 245.20704 82.734558 
L 245.32608 82.640014 
L 245.44512 91.663199 
L 245.6832 75.667363 
L 245.80224 85.628286 
L 245.92128 72.28755 
L 246.04032 142.814845 
L 246.15936 131.55955 
L 246.39744 81.301369 
L 246.51648 75.590227 
L 246.63552 119.511549 
L 246.75456 66.12357 
L 246.8736 101.613391 
L 247.11168 68.351476 
L 247.23072 67.169595 
L 247.34976 71.014511 
L 247.4688 66.418754 
L 247.58784 74.649716 
L 247.70688 100.368436 
L 247.82592 77.194497 
L 247.94496 103.202715 
L 248.064 69.362351 
L 248.18304 74.250526 
L 248.30208 65.085671 
L 248.6592 72.918206 
L 248.89728 67.266971 
L 249.01632 78.560934 
L 249.13536 66.329208 
L 249.2544 73.969881 
L 249.61152 68.141103 
L 249.73056 98.763332 
L 249.8496 70.676537 
L 249.96864 79.842239 
L 250.08768 70.783498 
L 250.20672 76.320233 
L 250.4448 67.910213 
L 250.56384 96.483015 
L 250.68288 69.903612 
L 250.80192 69.328969 
L 250.92096 70.517958 
L 251.04 78.277224 
L 251.15904 75.981922 
L 251.27808 85.736027 
L 251.39712 74.113038 
L 251.51616 128.667892 
L 251.6352 75.754124 
L 251.75424 82.842988 
L 251.87328 66.121705 
L 251.99232 92.523054 
L 252.11136 66.032019 
L 252.2304 96.011279 
L 252.46848 67.743369 
L 252.58752 76.514626 
L 252.70656 68.464056 
L 252.94464 77.585873 
L 253.06368 80.407982 
L 253.18272 69.980956 
L 253.30176 71.403947 
L 253.4208 76.161029 
L 253.53984 67.43926 
L 253.65888 75.488874 
L 253.77792 71.014095 
L 253.89696 71.750934 
L 254.016 70.009418 
L 254.25408 71.49259 
L 254.37312 114.485262 
L 254.49216 73.987684 
L 254.6112 72.955616 
L 254.73024 77.958054 
L 254.84928 72.094849 
L 254.96832 79.171654 
L 255.08736 69.35895 
L 255.32544 88.81847 
L 255.44448 75.972214 
L 255.68256 115.286241 
L 255.8016 67.748862 
L 255.92064 179.235741 
L 256.03968 69.230399 
L 256.15872 84.855626 
L 256.27776 67.750531 
L 256.3968 91.075828 
L 256.51584 66.596371 
L 256.75392 80.828259 
L 256.87296 73.198247 
L 256.992 102.458153 
L 257.23008 71.090823 
L 257.34912 72.815616 
L 257.46816 70.447295 
L 257.5872 71.465025 
L 257.70624 127.065511 
L 257.82528 75.012664 
L 257.94432 91.894252 
L 258.06336 66.502295 
L 258.1824 83.27874 
L 258.30144 71.12487 
L 258.42048 101.087805 
L 258.53952 66.353667 
L 258.65856 84.21394 
L 258.7776 68.723481 
L 258.89664 68.845092 
L 259.01568 68.564041 
L 259.13472 79.102749 
L 259.25376 70.299601 
L 259.3728 77.558088 
L 259.49184 119.60704 
L 259.61088 70.861119 
L 259.72992 100.165597 
L 259.968 70.945858 
L 260.08704 93.973606 
L 260.20608 74.843709 
L 260.32512 77.128499 
L 260.44416 72.261739 
L 260.5632 77.306909 
L 260.68224 71.782755 
L 260.80128 104.233706 
L 260.92032 219.98113 
L 261.03936 70.27331 
L 261.1584 118.375984 
L 261.27744 70.857792 
L 261.39648 69.155467 
L 261.51552 91.365039 
L 261.63456 71.96467 
L 261.7536 92.62099 
L 261.87264 73.594455 
L 261.99168 87.345523 
L 262.22976 73.537345 
L 262.46784 72.037645 
L 262.58688 84.196638 
L 262.70592 67.567396 
L 262.82496 88.977216 
L 262.944 75.612403 
L 263.06304 110.168646 
L 263.18208 88.358461 
L 263.30112 87.357416 
L 263.42016 91.407925 
L 263.65824 69.016699 
L 263.77728 73.01553 
L 263.89632 67.716275 
L 264.01536 74.094767 
L 264.1344 66.597968 
L 264.25344 77.504444 
L 264.37248 74.770171 
L 264.61056 107.693502 
L 264.7296 81.486725 
L 264.84864 113.574306 
L 264.96768 70.758412 
L 265.08672 113.21864 
L 265.20576 105.104881 
L 265.3248 85.75877 
L 265.44384 101.122543 
L 265.56288 95.940483 
L 265.68192 99.386168 
L 265.80096 121.879892 
L 266.03904 72.856868 
L 266.15808 66.511276 
L 266.27712 87.513863 
L 266.39616 65.455891 
L 266.5152 86.863967 
L 266.63424 69.084982 
L 266.75328 77.967442 
L 266.87232 72.629466 
L 267.1104 82.518797 
L 267.22944 72.473411 
L 267.34848 77.963266 
L 267.46752 73.798917 
L 267.58656 93.286109 
L 267.7056 72.542157 
L 267.82464 117.856547 
L 268.06272 72.908897 
L 268.18176 99.169259 
L 268.3008 68.141919 
L 268.41984 110.512055 
L 268.65792 69.010748 
L 268.77696 70.344913 
L 268.896 68.017062 
L 269.01504 75.437245 
L 269.13408 74.762891 
L 269.25312 71.367659 
L 269.37216 78.668131 
L 269.4912 100.556762 
L 269.61024 67.808988 
L 269.72928 93.019704 
L 269.84832 69.991698 
L 269.96736 71.821313 
L 270.0864 71.094412 
L 270.20544 74.338539 
L 270.44352 67.642636 
L 270.56256 73.968121 
L 270.6816 67.024461 
L 270.80064 72.178356 
L 270.91968 69.025111 
L 271.03872 101.223006 
L 271.15776 68.624948 
L 271.2768 97.133506 
L 271.51488 67.112317 
L 271.63392 72.262376 
L 271.75296 69.730155 
L 271.872 81.16121 
L 271.99104 69.237176 
L 272.11008 87.209323 
L 272.22912 68.843403 
L 272.34816 71.957383 
L 272.4672 66.12987 
L 272.58624 67.999508 
L 272.70528 67.205741 
L 272.94336 74.31276 
L 273.0624 76.086532 
L 273.30048 71.805493 
L 273.41952 72.470106 
L 273.53856 81.117875 
L 273.6576 123.336953 
L 273.77664 70.21824 
L 273.89568 70.210972 
L 274.01472 73.844664 
L 274.13376 71.033202 
L 274.2528 107.229772 
L 274.49088 90.579917 
L 274.60992 88.575272 
L 274.72896 82.208225 
L 274.848 82.595937 
L 274.96704 73.969327 
L 275.20512 88.688497 
L 275.32416 67.359999 
L 275.4432 80.80007 
L 275.68128 67.916055 
L 275.80032 96.530587 
L 275.91936 69.459756 
L 276.0384 264.637841 
L 276.15744 99.672962 
L 276.6336 82.742197 
L 276.75264 135.753441 
L 276.87168 100.827783 
L 276.99072 130.996169 
L 277.10976 68.625272 
L 277.2288 76.003045 
L 277.34784 69.64819 
L 277.46688 82.06288 
L 277.58592 70.391319 
L 277.70496 108.787855 
L 277.824 72.946797 
L 277.94304 97.853529 
L 278.06208 89.779948 
L 278.18112 73.931655 
L 278.30016 73.353218 
L 278.4192 88.25344 
L 278.53824 224.762431 
L 278.65728 70.840187 
L 278.77632 98.617973 
L 278.89536 73.535042 
L 279.0144 119.476929 
L 279.13344 66.947019 
L 279.25248 89.11878 
L 279.37152 70.547554 
L 279.49056 111.671589 
L 279.6096 68.338308 
L 279.72864 121.349823 
L 279.84768 68.635336 
L 279.96672 84.930165 
L 280.08576 67.511508 
L 280.32384 72.265452 
L 280.56192 67.937671 
L 280.68096 65.392985 
L 280.8 68.217202 
L 280.91904 66.150681 
L 281.03808 153.39581 
L 281.15712 70.694095 
L 281.27616 133.997139 
L 281.51424 73.47344 
L 281.63328 75.036855 
L 281.75232 75.085415 
L 281.87136 112.813936 
L 281.9904 67.455638 
L 282.10944 88.483606 
L 282.22848 71.850191 
L 282.34752 72.834211 
L 282.46656 66.422166 
L 282.5856 77.838291 
L 282.70464 65.644619 
L 282.94272 78.911213 
L 283.06176 72.951889 
L 283.1808 75.284581 
L 283.29984 71.1902 
L 283.41888 105.986952 
L 283.53792 67.222282 
L 283.65696 108.627567 
L 283.776 71.811649 
L 283.89504 77.411743 
L 284.01408 68.548354 
L 284.13312 69.083856 
L 284.25216 88.584855 
L 284.3712 68.157153 
L 284.49024 116.800288 
L 284.60928 68.160222 
L 284.72832 67.493441 
L 284.84736 79.375646 
L 285.08544 72.349295 
L 285.20448 77.454608 
L 285.32352 75.374834 
L 285.5616 70.781671 
L 285.68064 71.296803 
L 285.79968 94.240743 
L 285.91872 83.631524 
L 286.03776 97.379414 
L 286.27584 72.681165 
L 286.39488 77.171007 
L 286.51392 70.6035 
L 286.63296 70.499922 
L 286.752 110.207477 
L 286.87104 70.855522 
L 286.99008 97.745338 
L 287.10912 69.361839 
L 287.22816 74.801667 
L 287.3472 67.598238 
L 287.46624 76.197497 
L 287.58528 68.957247 
L 287.70432 74.321353 
L 287.82336 69.451369 
L 287.9424 74.034807 
L 288.06144 116.16453 
L 288.18048 84.366592 
L 288.29952 121.060201 
L 288.41856 71.253482 
L 288.5376 68.4019 
L 288.65664 73.570646 
L 288.77568 67.662852 
L 289.01376 113.649737 
L 289.1328 79.430676 
L 289.25184 128.760297 
L 289.37088 72.370239 
L 289.48992 74.028344 
L 289.60896 72.387236 
L 289.728 79.864594 
L 289.84704 68.760049 
L 289.96608 72.663582 
L 290.08512 66.413601 
L 290.20416 79.897467 
L 290.3232 67.000086 
L 290.44224 68.662653 
L 290.56128 73.66055 
L 290.68032 66.11635 
L 290.9184 79.442045 
L 291.03744 76.644416 
L 291.15648 97.94878 
L 291.27552 77.113131 
L 291.5136 100.041559 
L 291.63264 94.918515 
L 291.75168 101.588475 
L 291.98976 68.542634 
L 292.1088 85.14922 
L 292.46592 67.545161 
L 292.58496 71.405406 
L 292.704 68.349356 
L 292.82304 72.468315 
L 292.94208 83.616476 
L 293.06112 77.944402 
L 293.18016 89.988689 
L 293.41824 69.521698 
L 293.53728 77.132939 
L 293.65632 70.9143 
L 293.77536 71.880019 
L 293.8944 75.791155 
L 294.01344 70.904513 
L 294.13248 72.675156 
L 294.25152 70.902988 
L 294.37056 73.295481 
L 294.4896 82.015385 
L 294.60864 69.983319 
L 294.72768 89.326582 
L 294.84672 68.312024 
L 295.0848 70.197622 
L 295.20384 90.947491 
L 295.32288 73.076689 
L 295.44192 92.597304 
L 295.56096 78.077991 
L 295.68 87.606906 
L 295.79904 79.13865 
L 295.91808 130.716404 
L 296.15616 76.8221 
L 296.2752 96.72203 
L 296.39424 70.920098 
L 296.51328 110.774058 
L 296.75136 69.400434 
L 296.8704 76.68674 
L 296.98944 67.84529 
L 297.10848 76.582636 
L 297.22752 68.371716 
L 297.34656 74.098904 
L 297.4656 69.94121 
L 297.58464 72.973171 
L 297.70368 86.375307 
L 297.82272 69.911963 
L 298.0608 94.073444 
L 298.17984 69.980549 
L 298.29888 80.808337 
L 298.53696 78.652195 
L 298.656 67.802398 
L 298.77504 77.097076 
L 298.89408 66.228185 
L 299.01312 81.090566 
L 299.13216 71.157613 
L 299.2512 78.609874 
L 299.37024 66.836089 
L 299.48928 99.280426 
L 299.60832 71.234028 
L 299.72736 74.01589 
L 299.8464 71.358565 
L 299.96544 76.802461 
L 300.08448 70.941151 
L 300.20352 97.973382 
L 300.4416 69.699129 
L 300.56064 121.937466 
L 300.67968 67.3824 
L 300.79872 81.604617 
L 300.91776 72.097517 
L 301.0368 115.108598 
L 301.15584 69.301637 
L 301.27488 87.416658 
L 301.39392 159.317284 
L 301.51296 69.018044 
L 301.632 120.382771 
L 301.75104 74.470563 
L 302.10816 70.126139 
L 302.34624 117.24558 
L 302.46528 69.215362 
L 302.58432 142.517904 
L 302.70336 70.83786 
L 302.94144 79.46993 
L 303.17952 85.188387 
L 303.4176 75.847295 
L 303.53664 76.247464 
L 303.65568 68.442097 
L 303.77472 94.451606 
L 303.89376 78.145864 
L 304.0128 85.313916 
L 304.13184 69.815323 
L 304.25088 87.844011 
L 304.48896 72.65657 
L 304.608 103.376671 
L 304.84608 74.141815 
L 304.96512 83.238716 
L 305.2032 67.4425 
L 305.32224 107.917172 
L 305.44128 73.092635 
L 305.56032 87.829444 
L 305.7984 68.770174 
L 305.91744 84.856844 
L 306.03648 67.74391 
L 306.27456 72.984904 
L 306.3936 68.18242 
L 306.51264 85.579646 
L 306.75072 70.928501 
L 306.86976 109.750284 
L 306.9888 83.612943 
L 307.10784 82.894744 
L 307.22688 123.664507 
L 307.34592 75.58709 
L 307.46496 97.861989 
L 307.70304 68.606489 
L 307.82208 77.152399 
L 308.06016 67.42777 
L 308.1792 65.893482 
L 308.29824 74.02639 
L 308.41728 66.164284 
L 308.53632 67.396162 
L 308.65536 71.43099 
L 308.7744 69.053896 
L 309.01248 73.811829 
L 309.13152 87.44683 
L 309.25056 74.231019 
L 309.3696 113.101606 
L 309.48864 68.841427 
L 309.60768 74.895292 
L 309.72672 66.503746 
L 309.84576 111.943007 
L 309.9648 101.700322 
L 310.08384 80.018404 
L 310.20288 89.556082 
L 310.44096 66.465371 
L 310.56 69.221319 
L 310.67904 67.531541 
L 310.79808 71.224804 
L 311.03616 69.225741 
L 311.1552 66.274365 
L 311.27424 67.753585 
L 311.39328 75.512547 
L 311.51232 107.895353 
L 311.63136 84.087958 
L 311.7504 120.887758 
L 311.98848 69.213606 
L 312.10752 80.720338 
L 312.22656 67.424395 
L 312.46464 171.884306 
L 312.58368 118.885592 
L 312.70272 120.749586 
L 312.82176 73.956818 
L 313.05984 84.48996 
L 313.29792 69.027838 
L 313.41696 81.815322 
L 313.536 74.526799 
L 313.65504 78.112235 
L 313.77408 73.961326 
L 313.89312 105.043334 
L 314.01216 66.078157 
L 314.1312 95.559029 
L 314.36928 65.389379 
L 314.48832 92.535948 
L 314.60736 64.801665 
L 314.7264 76.317762 
L 314.96448 68.682778 
L 315.20256 76.922698 
L 315.3216 110.534389 
L 315.44064 73.761734 
L 315.67872 107.553628 
L 315.79776 83.554261 
L 315.9168 122.06003 
L 316.15488 75.495706 
L 316.39296 71.470841 
L 316.512 70.098646 
L 316.63104 70.256656 
L 316.75008 66.750114 
L 316.86912 75.501925 
L 316.98816 68.226109 
L 317.1072 73.448056 
L 317.22624 86.743395 
L 317.34528 68.924325 
L 317.46432 95.610851 
L 317.7024 69.446565 
L 317.82144 81.710889 
L 317.94048 66.907936 
L 318.17856 71.85674 
L 318.2976 67.547231 
L 318.41664 70.090809 
L 318.65472 67.426312 
L 318.77376 76.51431 
L 318.8928 65.951776 
L 319.01184 90.465545 
L 319.13088 73.595435 
L 319.24992 137.322234 
L 319.488 66.317983 
L 319.60704 67.784884 
L 319.72608 65.164039 
L 319.84512 67.272572 
L 319.96416 78.14042 
L 320.20224 69.400779 
L 320.32128 76.514569 
L 320.44032 67.74428 
L 320.55936 115.225424 
L 320.6784 65.976429 
L 320.79744 126.814171 
L 320.91648 69.585151 
L 321.03552 77.421152 
L 321.15456 74.861688 
L 321.2736 65.712685 
L 321.39264 66.667375 
L 321.51168 85.486427 
L 321.63072 69.572207 
L 321.74976 76.792757 
L 321.8688 74.681336 
L 322.10688 80.669645 
L 322.34496 74.055931 
L 322.464 91.391238 
L 322.58304 70.893048 
L 322.70208 77.860995 
L 322.82112 68.888406 
L 323.17824 78.704489 
L 323.29728 71.000516 
L 323.41632 113.734497 
L 323.53536 68.319549 
L 323.6544 90.290621 
L 323.77344 69.003807 
L 324.01152 70.507897 
L 324.13056 80.663746 
L 324.2496 190.792488 
L 324.36864 116.737218 
L 324.48768 138.795615 
L 324.96384 76.492066 
L 325.08288 81.858666 
L 325.20192 73.742176 
L 325.32096 103.120018 
L 325.44 82.217128 
L 325.55904 91.068336 
L 325.67808 68.752952 
L 325.79712 74.478208 
L 325.91616 71.607753 
L 326.0352 79.489498 
L 326.15424 67.07909 
L 326.27328 67.251526 
L 326.39232 68.370069 
L 326.74944 84.622043 
L 326.98752 73.244479 
L 327.10656 77.312689 
L 327.2256 67.943213 
L 327.34464 78.443369 
L 327.46368 66.963417 
L 327.58272 68.42515 
L 327.70176 67.522992 
L 327.8208 68.237834 
L 327.93984 70.409181 
L 328.05888 91.248527 
L 328.17792 68.267674 
L 328.29696 91.421261 
L 328.53504 65.195261 
L 328.65408 71.557055 
L 328.77312 64.691355 
L 329.0112 72.251871 
L 329.13024 71.803557 
L 329.24928 83.347504 
L 329.36832 67.921031 
L 329.48736 88.802206 
L 329.6064 69.317818 
L 329.72544 97.123201 
L 329.84448 67.724992 
L 329.96352 66.78865 
L 330.08256 71.547197 
L 330.2016 66.232266 
L 330.43968 76.065539 
L 330.55872 77.587286 
L 330.67776 69.796398 
L 330.91584 76.208511 
L 331.03488 66.495846 
L 331.15392 72.941066 
L 331.27296 68.363371 
L 331.51104 73.410857 
L 331.74912 68.014311 
L 331.86816 67.67804 
L 331.9872 66.592718 
L 332.10624 67.233033 
L 332.22528 69.317234 
L 332.34432 120.799089 
L 332.5824 76.33566 
L 332.70144 112.842685 
L 332.93952 67.149953 
L 333.05856 94.460188 
L 333.1776 69.818041 
L 333.29664 71.843833 
L 333.41568 70.35824 
L 333.53472 72.217909 
L 333.65376 90.148772 
L 333.7728 80.046645 
L 333.89184 95.891901 
L 334.01088 78.796856 
L 334.24896 102.648944 
L 334.368 70.240984 
L 334.48704 74.829357 
L 334.60608 72.727647 
L 334.72512 78.741287 
L 334.84416 65.571134 
L 334.9632 81.817357 
L 335.08224 70.735226 
L 335.20128 77.092528 
L 335.32032 76.490819 
L 335.43936 99.380801 
L 335.5584 93.380284 
L 335.79648 66.484877 
L 335.91552 99.277248 
L 336.03456 69.348267 
L 336.1536 70.735386 
L 336.27264 67.64191 
L 336.39168 67.837822 
L 336.51072 70.181701 
L 336.62976 92.497858 
L 336.7488 71.854257 
L 336.86784 88.199225 
L 336.98688 69.745141 
L 337.10592 68.766064 
L 337.344 73.90027 
L 337.46304 73.095914 
L 337.58208 87.712976 
L 337.70112 69.331576 
L 337.82016 80.836096 
L 338.05824 68.573843 
L 338.17728 70.927918 
L 338.29632 78.022312 
L 338.41536 66.336447 
L 338.65344 89.702452 
L 338.77248 70.103347 
L 338.89152 97.835747 
L 339.01056 69.022818 
L 339.1296 87.746088 
L 339.24864 67.093753 
L 339.36768 105.120739 
L 339.60576 70.630238 
L 339.7248 71.477513 
L 339.84384 73.5975 
L 339.96288 99.16941 
L 340.08192 81.809263 
L 340.20096 85.023226 
L 340.32 143.212561 
L 340.43904 73.74646 
L 340.55808 74.362116 
L 340.67712 66.369881 
L 340.79616 71.15599 
L 340.9152 87.47912 
L 341.03424 79.612092 
L 341.15328 84.002913 
L 341.39136 117.677373 
L 341.5104 78.522548 
L 341.62944 84.817072 
L 341.74848 72.143606 
L 341.98656 123.3789 
L 342.1056 84.326315 
L 342.22464 193.227014 
L 342.34368 78.779634 
L 342.46272 105.751678 
L 342.58176 88.919 
L 342.7008 121.860011 
L 342.81984 85.622999 
L 342.93888 123.913764 
L 343.05792 73.068769 
L 343.17696 98.981584 
L 343.296 68.386159 
L 343.41504 71.04707 
L 343.53408 66.484052 
L 343.65312 77.407656 
L 343.77216 72.78863 
L 343.8912 75.461899 
L 344.01024 73.594645 
L 344.12928 88.185385 
L 344.36736 68.658106 
L 344.4864 93.751259 
L 344.60544 66.961395 
L 344.72448 75.579331 
L 344.84352 75.294275 
L 344.96256 73.146838 
L 345.0816 80.590464 
L 345.20064 68.580458 
L 345.31968 83.46928 
L 345.43872 72.712791 
L 345.55776 81.815703 
L 345.6768 72.951977 
L 345.79584 94.748253 
L 346.03392 73.049102 
L 346.15296 69.842993 
L 346.272 109.146591 
L 346.39104 70.840426 
L 346.51008 104.044936 
L 346.62912 81.174319 
L 346.74816 121.272162 
L 346.8672 76.989678 
L 346.98624 93.50042 
L 347.10528 131.768166 
L 347.22432 101.965936 
L 347.34336 115.775713 
L 347.4624 73.057187 
L 347.58144 70.757307 
L 347.70048 73.059944 
L 347.81952 69.283009 
L 348.0576 74.057698 
L 348.17664 69.974689 
L 348.29568 78.060642 
L 348.53376 67.884927 
L 348.6528 67.638488 
L 348.77184 69.382816 
L 348.89088 68.155545 
L 349.00992 110.902617 
L 349.12896 67.173377 
L 349.248 90.289466 
L 349.36704 66.447052 
L 349.48608 72.919623 
L 349.72416 67.416804 
L 349.96224 75.144481 
L 350.08128 73.685396 
L 350.20032 80.0141 
L 350.31936 79.071334 
L 350.4384 83.698027 
L 350.55744 73.665129 
L 350.67648 104.11082 
L 350.79552 67.491843 
L 350.91456 69.94786 
L 351.0336 121.119154 
L 351.15264 70.914387 
L 351.27168 109.358863 
L 351.50976 71.340958 
L 351.6288 67.16968 
L 351.74784 68.580874 
L 351.86688 76.903295 
L 351.98592 65.942259 
L 352.10496 71.011447 
L 352.224 66.688675 
L 352.46208 97.826492 
L 352.58112 77.701131 
L 352.70016 88.407771 
L 352.93824 66.230964 
L 353.05728 86.779219 
L 353.17632 65.731266 
L 353.4144 76.260829 
L 353.53344 67.190322 
L 353.89056 90.127743 
L 354.0096 100.592147 
L 354.36672 73.360467 
L 354.48576 74.064148 
L 354.6048 80.00064 
L 354.72384 75.08678 
L 354.84288 79.780712 
L 354.96192 70.441019 
L 355.2 73.889697 
L 355.31904 73.52502 
L 355.43808 67.594952 
L 355.55712 72.348281 
L 355.7952 69.448931 
L 356.03328 72.812985 
L 356.27136 66.425555 
L 356.3904 69.763629 
L 356.50944 65.705994 
L 356.74752 73.084931 
L 356.86656 68.495294 
L 357.10464 80.015814 
L 357.22368 66.751234 
L 357.34272 88.992497 
L 357.46176 69.255905 
L 357.5808 69.835368 
L 357.69984 75.17242 
L 357.81888 68.045097 
L 357.93792 79.761051 
L 358.05696 68.327765 
L 358.176 69.934186 
L 358.29504 69.194928 
L 358.41408 73.140865 
L 358.53312 95.798681 
L 358.65216 71.896164 
L 358.7712 72.172546 
L 358.89024 71.818684 
L 359.00928 130.606601 
L 359.12832 80.317836 
L 359.24736 87.405011 
L 359.48544 69.232849 
L 359.60448 67.467667 
L 359.72352 71.057092 
L 359.84256 68.617174 
L 359.9616 80.197463 
L 360.08064 74.993436 
L 360.19968 112.567917 
L 360.31872 82.017103 
L 360.43776 112.952103 
L 360.5568 84.343492 
L 360.67584 143.645077 
L 360.79488 89.660899 
L 360.91392 86.194246 
L 361.03296 70.2023 
L 361.152 90.737903 
L 361.27104 70.38173 
L 361.39008 73.893087 
L 361.50912 68.771263 
L 361.62816 71.253481 
L 361.7472 67.077659 
L 361.86624 103.088451 
L 361.98528 71.414638 
L 362.10432 92.058316 
L 362.22336 66.602038 
L 362.3424 71.08263 
L 362.46144 112.182961 
L 362.58048 66.831538 
L 362.69952 93.600496 
L 362.9376 66.796432 
L 363.05664 71.310304 
L 363.17568 69.58614 
L 363.29472 93.226132 
L 363.41376 66.028258 
L 363.5328 137.916603 
L 363.65184 70.268202 
L 363.77088 74.432704 
L 363.88992 73.984964 
L 364.00896 69.165608 
L 364.128 71.80818 
L 364.24704 66.25769 
L 364.36608 91.818094 
L 364.48512 66.227831 
L 364.60416 135.442266 
L 364.7232 132.65684 
L 364.84224 69.159391 
L 364.96128 116.928825 
L 365.19936 67.329576 
L 365.3184 116.249021 
L 365.43744 75.76074 
L 365.55648 121.559721 
L 365.79456 90.084636 
L 365.9136 109.131127 
L 366.03264 108.143417 
L 366.27072 67.266866 
L 366.38976 73.060065 
L 366.5088 68.145328 
L 366.62784 68.857523 
L 366.74688 70.507683 
L 366.86592 68.870331 
L 366.98496 73.915138 
L 367.104 68.074026 
L 367.22304 69.642211 
L 367.34208 77.262956 
L 367.46112 70.55896 
L 367.58016 71.932243 
L 367.6992 121.145325 
L 367.81824 67.775274 
L 367.93728 132.819515 
L 368.17536 67.252724 
L 368.2944 74.276965 
L 368.41344 66.503078 
L 368.53248 67.228812 
L 368.65152 89.685163 
L 368.77056 65.518427 
L 368.8896 91.896336 
L 369.12768 67.322978 
L 369.24672 92.623581 
L 369.36576 66.329018 
L 369.4848 93.000776 
L 369.60384 66.924305 
L 369.72288 80.545408 
L 369.84192 66.138146 
L 369.96096 131.788431 
L 370.19904 92.319272 
L 370.31808 105.048897 
L 370.55616 66.589032 
L 370.6752 69.081816 
L 370.79424 65.308799 
L 370.91328 69.301191 
L 371.15136 69.089037 
L 371.38944 67.134124 
L 371.50848 85.771774 
L 371.62752 67.400599 
L 371.74656 95.941327 
L 371.8656 82.594856 
L 371.98464 94.739724 
L 372.22272 71.199733 
L 372.34176 86.693127 
L 372.57984 72.407895 
L 372.69888 72.626604 
L 372.81792 114.068501 
L 372.93696 68.855586 
L 373.056 91.530667 
L 373.17504 66.831812 
L 373.29408 106.385425 
L 373.41312 71.411046 
L 373.53216 101.19561 
L 373.77024 67.097256 
L 373.88928 77.646015 
L 374.00832 70.127354 
L 374.12736 72.53212 
L 374.2464 68.8698 
L 374.36544 84.749583 
L 374.48448 67.568805 
L 374.60352 86.920047 
L 374.8416 66.52633 
L 374.96064 72.011839 
L 375.07968 65.55322 
L 375.19872 71.644111 
L 375.31776 66.683035 
L 375.4368 75.378476 
L 375.55584 70.397284 
L 375.67488 77.366931 
L 376.032 70.344185 
L 376.15104 80.749051 
L 376.27008 115.014311 
L 376.38912 72.983266 
L 376.50816 98.372707 
L 376.74624 71.233555 
L 376.98432 68.228867 
L 377.10336 71.160983 
L 377.2224 68.579246 
L 377.34144 69.789343 
L 377.46048 72.249022 
L 377.69856 65.481805 
L 377.8176 70.358624 
L 377.93664 68.653237 
L 378.05568 69.089825 
L 378.17472 68.903072 
L 378.4128 75.716459 
L 378.65088 68.305936 
L 378.88896 66.836496 
L 379.12704 69.162528 
L 379.24608 72.049591 
L 379.48416 67.523183 
L 379.6032 71.788781 
L 379.72224 69.094572 
L 379.84128 70.707547 
L 379.96032 82.316527 
L 380.07936 69.835658 
L 380.1984 75.126911 
L 380.31744 68.153848 
L 380.43648 97.814088 
L 380.55552 72.831307 
L 380.67456 104.341251 
L 380.91264 69.633163 
L 381.03168 65.017841 
L 381.15072 70.142448 
L 381.26976 65.906803 
L 381.50784 73.009042 
L 381.74592 68.215622 
L 381.86496 84.900042 
L 381.984 66.740502 
L 382.10304 78.282079 
L 382.22208 70.200737 
L 382.34112 81.957198 
L 382.46016 70.986719 
L 382.5792 82.51546 
L 382.69824 66.854882 
L 382.81728 71.424027 
L 382.93632 108.459775 
L 383.05536 69.826232 
L 383.1744 107.655482 
L 383.29344 90.592056 
L 383.41248 104.53928 
L 383.53152 81.127557 
L 383.65056 130.154292 
L 383.7696 129.562337 
L 383.88864 69.532219 
L 384.00768 86.152531 
L 384.24576 71.864717 
L 384.3648 100.604829 
L 384.48384 73.584058 
L 384.60288 137.898644 
L 384.72192 126.886092 
L 384.84096 71.911808 
L 384.96 97.748042 
L 385.07904 70.718027 
L 385.19808 78.348388 
L 385.31712 78.062778 
L 385.43616 75.776658 
L 385.5552 80.624878 
L 385.67424 67.183686 
L 385.79328 67.326636 
L 385.91232 65.184142 
L 386.03136 66.052514 
L 386.1504 84.584834 
L 386.26944 70.187893 
L 386.38848 90.071427 
L 386.50752 65.565269 
L 386.62656 66.883611 
L 386.7456 74.733331 
L 386.86464 70.657223 
L 386.98368 79.562186 
L 387.10272 104.386106 
L 387.22176 77.415035 
L 387.3408 108.316157 
L 387.57888 69.500717 
L 387.69792 72.239271 
L 387.81696 68.698651 
L 387.936 72.948732 
L 388.05504 67.451217 
L 388.29312 72.471431 
L 388.41216 74.120762 
L 388.5312 71.230032 
L 388.65024 74.711776 
L 388.76928 67.458082 
L 388.88832 85.933826 
L 389.00736 66.927711 
L 389.1264 70.564962 
L 389.24544 67.185134 
L 389.48352 78.03832 
L 389.60256 80.733823 
L 389.7216 92.986097 
L 389.95968 70.035489 
L 390.07872 68.821077 
L 390.19776 65.465979 
L 390.3168 67.228708 
L 390.43584 75.803956 
L 390.55488 70.948799 
L 390.67392 75.780976 
L 390.79296 72.985666 
L 390.912 98.133506 
L 391.03104 67.444244 
L 391.15008 75.663921 
L 391.26912 72.565336 
L 391.38816 83.444639 
L 391.5072 72.686196 
L 391.62624 84.281737 
L 391.74528 72.141467 
L 391.86432 72.191296 
L 391.98336 71.559631 
L 392.1024 77.91549 
L 392.22144 72.819505 
L 392.34048 75.825488 
L 392.45952 69.925939 
L 392.57856 80.12228 
L 392.6976 67.251847 
L 392.81664 71.575319 
L 392.93568 67.333588 
L 393.05472 88.020837 
L 393.2928 66.465471 
L 393.64992 70.849037 
L 393.76896 70.30461 
L 393.888 70.789308 
L 394.00704 67.577502 
L 394.12608 69.050285 
L 394.36416 114.545961 
L 394.72128 76.815533 
L 394.84032 72.977927 
L 395.0784 79.323923 
L 395.31648 71.260163 
L 395.55456 78.928077 
L 395.6736 77.594545 
L 395.79264 65.479106 
L 395.91168 73.580829 
L 396.03072 65.536011 
L 396.14976 71.754128 
L 396.2688 85.679406 
L 396.38784 70.462559 
L 396.50688 101.032914 
L 396.62592 75.935743 
L 396.74496 83.730869 
L 396.864 67.213203 
L 396.98304 87.057784 
L 397.22112 70.750874 
L 397.34016 75.929759 
L 397.4592 75.424583 
L 397.57824 69.156508 
L 397.69728 160.045189 
L 397.81632 74.05794 
L 397.93536 102.428908 
L 398.0544 70.130253 
L 398.29248 73.426993 
L 398.41152 72.910149 
L 398.53056 71.071545 
L 398.6496 82.43938 
L 398.88768 68.797041 
L 399.00672 114.140311 
L 399.12576 77.121541 
L 399.2448 139.237261 
L 399.48288 69.893211 
L 399.60192 81.379756 
L 399.72096 70.414067 
L 399.84 78.70079 
L 400.07808 65.67886 
L 400.19712 69.138197 
L 400.31616 68.808078 
L 400.4352 69.441135 
L 400.55424 80.457395 
L 400.79232 68.535721 
L 400.91136 67.811592 
L 401.0304 75.504691 
L 401.14944 71.57593 
L 401.26848 73.948381 
L 401.50656 67.911386 
L 401.74464 73.276193 
L 401.86368 104.987779 
L 401.98272 79.878791 
L 402.10176 110.836974 
L 402.2208 87.188826 
L 402.33984 95.287811 
L 402.45888 69.064827 
L 402.57792 112.387977 
L 402.69696 69.263017 
L 402.816 67.946076 
L 402.93504 85.55646 
L 403.05408 67.797178 
L 403.17312 87.3776 
L 403.29216 67.859761 
L 403.4112 111.157152 
L 403.53024 69.760981 
L 403.64928 90.125474 
L 403.76832 67.998388 
L 403.88736 72.571157 
L 404.0064 65.62344 
L 404.12544 82.495031 
L 404.36352 73.831935 
L 404.48256 83.906978 
L 404.6016 73.78458 
L 404.72064 74.022071 
L 404.83968 70.189777 
L 404.95872 78.514725 
L 405.1968 69.321401 
L 405.31584 94.660166 
L 405.43488 66.342226 
L 405.55392 84.61744 
L 405.792 66.695196 
L 405.91104 70.925388 
L 406.03008 70.498348 
L 406.14912 68.381057 
L 406.26816 73.174569 
L 406.3872 72.740405 
L 406.50624 70.956598 
L 406.62528 73.983105 
L 406.74432 68.024198 
L 406.86336 81.750024 
L 406.9824 67.644953 
L 407.10144 72.440356 
L 407.22048 72.080509 
L 407.33952 70.616654 
L 407.45856 74.31785 
L 407.5776 67.229754 
L 407.69664 83.666462 
L 407.81568 68.059806 
L 407.93472 80.468833 
L 408.05376 71.501719 
L 408.1728 81.347038 
L 408.29184 69.529131 
L 408.41088 80.463828 
L 408.52992 114.56766 
L 408.64896 76.777315 
L 408.768 121.726558 
L 409.00608 84.212287 
L 409.12512 66.011951 
L 409.24416 116.589657 
L 409.3632 73.179449 
L 409.60128 80.00834 
L 409.83936 70.718059 
L 409.9584 66.116827 
L 410.07744 72.016417 
L 410.19648 69.692825 
L 410.31552 81.954227 
L 410.43456 78.494255 
L 410.5536 65.957184 
L 410.67264 85.240269 
L 410.79168 70.646613 
L 410.91072 70.401934 
L 411.02976 75.06166 
L 411.1488 67.377081 
L 411.26784 78.098224 
L 411.38688 115.034663 
L 411.50592 71.121185 
L 411.62496 100.807408 
L 411.86304 68.306445 
L 411.98208 66.313548 
L 412.3392 71.146193 
L 412.45824 76.505696 
L 412.57728 67.297527 
L 412.81536 134.266402 
L 412.9344 91.462846 
L 413.05344 136.825698 
L 413.29152 77.876508 
L 413.41056 86.874964 
L 413.5296 71.141158 
L 413.64864 102.907959 
L 413.76768 72.075219 
L 413.88672 83.506239 
L 414.00576 66.480298 
L 414.1248 85.360269 
L 414.24384 72.564125 
L 414.36288 103.068657 
L 414.48192 69.035442 
L 414.60096 92.56288 
L 414.60096 92.56288 
" style="fill:none;stroke:#0000ff;stroke-linecap:square;stroke-width:1.5;"/>
   </g>
   <g id="patch_3">
    <path d="M 57.6 307.584 
L 57.6 41.472 
" style="fill:none;stroke:#000000;stroke-linecap:square;stroke-linejoin:miter;stroke-width:0.8;"/>
   </g>
   <g id="patch_4">
    <path d="M 414.72 307.584 
L 414.72 41.472 
" style="fill:none;stroke:#000000;stroke-linecap:square;stroke-linejoin:miter;stroke-width:0.8;"/>
   </g>
   <g id="patch_5">
    <path d="M 57.6 307.584 
L 414.72 307.584 
" style="fill:none;stroke:#000000;stroke-linecap:square;stroke-linejoin:miter;stroke-width:0.8;"/>
   </g>
   <g id="patch_6">
    <path d="M 57.6 41.472 
L 414.72 41.472 
" style="fill:none;stroke:#000000;stroke-linecap:square;stroke-linejoin:miter;stroke-width:0.8;"/>
   </g>
   <g id="legend_1">
    <g id="patch_7">
     <path d="M 282.321563 64.150125 
L 407.72 64.150125 
Q 409.72 64.150125 409.72 62.150125 
L 409.72 48.472 
Q 409.72 46.472 407.72 46.472 
L 282.321563 46.472 
Q 280.321563 46.472 280.321563 48.472 
L 280.321563 62.150125 
Q 280.321563 64.150125 282.321563 64.150125 
z
" style="fill:#ffffff;opacity:0.8;stroke:#cccccc;stroke-linejoin:miter;"/>
    </g>
    <g id="line2d_28">
     <path d="M 284.321563 54.570438 
L 304.321563 54.570438 
" style="fill:none;stroke:#0000ff;stroke-linecap:square;stroke-width:1.5;"/>
    </g>
    <g id="line2d_29"/>
    <g id="text_17">
     <!-- cumulative reward -->
     <g transform="translate(312.321563 58.070438)scale(0.1 -0.1)">
      <defs>
       <path d="M 3122 3366 
L 3122 2828 
Q 2878 2963 2633 3030 
Q 2388 3097 2138 3097 
Q 1578 3097 1268 2742 
Q 959 2388 959 1747 
Q 959 1106 1268 751 
Q 1578 397 2138 397 
Q 2388 397 2633 464 
Q 2878 531 3122 666 
L 3122 134 
Q 2881 22 2623 -34 
Q 2366 -91 2075 -91 
Q 1284 -91 818 406 
Q 353 903 353 1747 
Q 353 2603 823 3093 
Q 1294 3584 2113 3584 
Q 2378 3584 2631 3529 
Q 2884 3475 3122 3366 
z
" id="DejaVuSans-63" transform="scale(0.015625)"/>
      </defs>
      <use xlink:href="#DejaVuSans-63"/>
      <use x="54.980469" xlink:href="#DejaVuSans-75"/>
      <use x="118.359375" xlink:href="#DejaVuSans-6d"/>
      <use x="215.771484" xlink:href="#DejaVuSans-75"/>
      <use x="279.150391" xlink:href="#DejaVuSans-6c"/>
      <use x="306.933594" xlink:href="#DejaVuSans-61"/>
      <use x="368.212891" xlink:href="#DejaVuSans-74"/>
      <use x="407.421875" xlink:href="#DejaVuSans-69"/>
      <use x="435.205078" xlink:href="#DejaVuSans-76"/>
      <use x="494.384766" xlink:href="#DejaVuSans-65"/>
      <use x="555.908203" xlink:href="#DejaVuSans-20"/>
      <use x="587.695312" xlink:href="#DejaVuSans-72"/>
      <use x="626.558594" xlink:href="#DejaVuSans-65"/>
      <use x="688.082031" xlink:href="#DejaVuSans-77"/>
      <use x="769.869141" xlink:href="#DejaVuSans-61"/>
      <use x="831.148438" xlink:href="#DejaVuSans-72"/>
      <use x="870.511719" xlink:href="#DejaVuSans-64"/>
     </g>
    </g>
   </g>
  </g>
 </g>
 <defs>
  <clipPath id="p551bf9bfc2">
   <rect height="266.112" width="357.12" x="57.6" y="41.472"/>
  </clipPath>
 </defs>
</svg>
