<?xml version="1.0" encoding="utf-8" standalone="no"?>
<!DOCTYPE svg PUBLIC "-//W3C//DTD SVG 1.1//EN"
  "http://www.w3.org/Graphics/SVG/1.1/DTD/svg11.dtd">
<svg height="345.6pt" version="1.1" viewBox="0 0 460.8 345.6" width="460.8pt" xmlns="http://www.w3.org/2000/svg" xmlns:xlink="http://www.w3.org/1999/xlink">
 <metadata>
  <rdf:RDF xmlns:cc="http://creativecommons.org/ns#" xmlns:dc="http://purl.org/dc/elements/1.1/" xmlns:rdf="http://www.w3.org/1999/02/22-rdf-syntax-ns#">
   <cc:Work>
    <dc:type rdf:resource="http://purl.org/dc/dcmitype/StillImage"/>
    <dc:date>2021-10-19T09:30:54.374829</dc:date>
    <dc:description>{"agent.algorithm": "RayProximalPolicyOptimization", "agent.algorithm.render_env": false, "agent.algorithm.batch_mode": "complete_episodes", "agent.algorithm.train_batch_size": 200, "agent.algorithm.optimizer": "Adam", "agent.algorithm.vf_clip_param": 500, "agent.algorithm.model": {"fcnet_activation": "tanh", "fcnet_hiddens": [30, 30]}, "env.env_class": "SchedulerPolicyRayEnvironment", "env.env_config": {"solver_driver": "CMAdriver", "solver_driver_args": [10, 10, "sphere"], "maximize": false, "steps": 50, "state_metrics_names": ["DifferenceOfBest", "SolverState"], "state_metrics_config": [[40, false, 1, true, true], [{"step_size": {"max": 3, "min": 1e-10}}]], "reward_metric": "Best", "reward_metric_config": [false, false], "memes_no": 1, "parameter_tune_config": {"step_size": {"max": 3, "min": 1e-10}}}}</dc:description>
    <dc:format>image/svg+xml</dc:format>
    <dc:creator>
     <cc:Agent>
      <dc:title>Matplotlib v3.4.2, https://matplotlib.org/</dc:title>
     </cc:Agent>
    </dc:creator>
   </cc:Work>
  </rdf:RDF>
 </metadata>
 <defs>
  <style type="text/css">*{stroke-linecap:butt;stroke-linejoin:round;}</style>
 </defs>
 <g id="figure_1">
  <g id="patch_1">
   <path d="M 0 345.6 
L 460.8 345.6 
L 460.8 0 
L 0 0 
z
" style="fill:#ffffff;"/>
  </g>
  <g id="axes_1">
   <g id="patch_2">
    <path d="M 57.6 307.584 
L 414.72 307.584 
L 414.72 41.472 
L 57.6 41.472 
z
" style="fill:#ffffff;"/>
   </g>
   <g id="matplotlib.axis_1">
    <g id="xtick_1">
     <g id="line2d_1">
      <path clip-path="url(#p0acb56660c)" d="M 57.6 307.584 
L 57.6 41.472 
" style="fill:none;stroke:#b0b0b0;stroke-linecap:square;stroke-width:0.8;"/>
     </g>
     <g id="line2d_2">
      <defs>
       <path d="M 0 0 
L 0 3.5 
" id="mf58a882450" style="stroke:#000000;stroke-width:0.8;"/>
      </defs>
      <g>
       <use style="stroke:#000000;stroke-width:0.8;" x="57.6" xlink:href="#mf58a882450" y="307.584"/>
      </g>
     </g>
     <g id="text_1">
      <!-- 0 -->
      <g transform="translate(54.41875 322.182437)scale(0.1 -0.1)">
       <defs>
        <path d="M 2034 4250 
Q 1547 4250 1301 3770 
Q 1056 3291 1056 2328 
Q 1056 1369 1301 889 
Q 1547 409 2034 409 
Q 2525 409 2770 889 
Q 3016 1369 3016 2328 
Q 3016 3291 2770 3770 
Q 2525 4250 2034 4250 
z
M 2034 4750 
Q 2819 4750 3233 4129 
Q 3647 3509 3647 2328 
Q 3647 1150 3233 529 
Q 2819 -91 2034 -91 
Q 1250 -91 836 529 
Q 422 1150 422 2328 
Q 422 3509 836 4129 
Q 1250 4750 2034 4750 
z
" id="DejaVuSans-30" transform="scale(0.015625)"/>
       </defs>
       <use xlink:href="#DejaVuSans-30"/>
      </g>
     </g>
    </g>
    <g id="xtick_2">
     <g id="line2d_3">
      <path clip-path="url(#p0acb56660c)" d="M 102.24 307.584 
L 102.24 41.472 
" style="fill:none;stroke:#b0b0b0;stroke-linecap:square;stroke-width:0.8;"/>
     </g>
     <g id="line2d_4">
      <g>
       <use style="stroke:#000000;stroke-width:0.8;" x="102.24" xlink:href="#mf58a882450" y="307.584"/>
      </g>
     </g>
     <g id="text_2">
      <!-- 250 -->
      <g transform="translate(92.69625 322.182437)scale(0.1 -0.1)">
       <defs>
        <path d="M 1228 531 
L 3431 531 
L 3431 0 
L 469 0 
L 469 531 
Q 828 903 1448 1529 
Q 2069 2156 2228 2338 
Q 2531 2678 2651 2914 
Q 2772 3150 2772 3378 
Q 2772 3750 2511 3984 
Q 2250 4219 1831 4219 
Q 1534 4219 1204 4116 
Q 875 4013 500 3803 
L 500 4441 
Q 881 4594 1212 4672 
Q 1544 4750 1819 4750 
Q 2544 4750 2975 4387 
Q 3406 4025 3406 3419 
Q 3406 3131 3298 2873 
Q 3191 2616 2906 2266 
Q 2828 2175 2409 1742 
Q 1991 1309 1228 531 
z
" id="DejaVuSans-32" transform="scale(0.015625)"/>
        <path d="M 691 4666 
L 3169 4666 
L 3169 4134 
L 1269 4134 
L 1269 2991 
Q 1406 3038 1543 3061 
Q 1681 3084 1819 3084 
Q 2600 3084 3056 2656 
Q 3513 2228 3513 1497 
Q 3513 744 3044 326 
Q 2575 -91 1722 -91 
Q 1428 -91 1123 -41 
Q 819 9 494 109 
L 494 744 
Q 775 591 1075 516 
Q 1375 441 1709 441 
Q 2250 441 2565 725 
Q 2881 1009 2881 1497 
Q 2881 1984 2565 2268 
Q 2250 2553 1709 2553 
Q 1456 2553 1204 2497 
Q 953 2441 691 2322 
L 691 4666 
z
" id="DejaVuSans-35" transform="scale(0.015625)"/>
       </defs>
       <use xlink:href="#DejaVuSans-32"/>
       <use x="63.623047" xlink:href="#DejaVuSans-35"/>
       <use x="127.246094" xlink:href="#DejaVuSans-30"/>
      </g>
     </g>
    </g>
    <g id="xtick_3">
     <g id="line2d_5">
      <path clip-path="url(#p0acb56660c)" d="M 146.88 307.584 
L 146.88 41.472 
" style="fill:none;stroke:#b0b0b0;stroke-linecap:square;stroke-width:0.8;"/>
     </g>
     <g id="line2d_6">
      <g>
       <use style="stroke:#000000;stroke-width:0.8;" x="146.88" xlink:href="#mf58a882450" y="307.584"/>
      </g>
     </g>
     <g id="text_3">
      <!-- 500 -->
      <g transform="translate(137.33625 322.182437)scale(0.1 -0.1)">
       <use xlink:href="#DejaVuSans-35"/>
       <use x="63.623047" xlink:href="#DejaVuSans-30"/>
       <use x="127.246094" xlink:href="#DejaVuSans-30"/>
      </g>
     </g>
    </g>
    <g id="xtick_4">
     <g id="line2d_7">
      <path clip-path="url(#p0acb56660c)" d="M 191.52 307.584 
L 191.52 41.472 
" style="fill:none;stroke:#b0b0b0;stroke-linecap:square;stroke-width:0.8;"/>
     </g>
     <g id="line2d_8">
      <g>
       <use style="stroke:#000000;stroke-width:0.8;" x="191.52" xlink:href="#mf58a882450" y="307.584"/>
      </g>
     </g>
     <g id="text_4">
      <!-- 750 -->
      <g transform="translate(181.97625 322.182437)scale(0.1 -0.1)">
       <defs>
        <path d="M 525 4666 
L 3525 4666 
L 3525 4397 
L 1831 0 
L 1172 0 
L 2766 4134 
L 525 4134 
L 525 4666 
z
" id="DejaVuSans-37" transform="scale(0.015625)"/>
       </defs>
       <use xlink:href="#DejaVuSans-37"/>
       <use x="63.623047" xlink:href="#DejaVuSans-35"/>
       <use x="127.246094" xlink:href="#DejaVuSans-30"/>
      </g>
     </g>
    </g>
    <g id="xtick_5">
     <g id="line2d_9">
      <path clip-path="url(#p0acb56660c)" d="M 236.16 307.584 
L 236.16 41.472 
" style="fill:none;stroke:#b0b0b0;stroke-linecap:square;stroke-width:0.8;"/>
     </g>
     <g id="line2d_10">
      <g>
       <use style="stroke:#000000;stroke-width:0.8;" x="236.16" xlink:href="#mf58a882450" y="307.584"/>
      </g>
     </g>
     <g id="text_5">
      <!-- 1000 -->
      <g transform="translate(223.435 322.182437)scale(0.1 -0.1)">
       <defs>
        <path d="M 794 531 
L 1825 531 
L 1825 4091 
L 703 3866 
L 703 4441 
L 1819 4666 
L 2450 4666 
L 2450 531 
L 3481 531 
L 3481 0 
L 794 0 
L 794 531 
z
" id="DejaVuSans-31" transform="scale(0.015625)"/>
       </defs>
       <use xlink:href="#DejaVuSans-31"/>
       <use x="63.623047" xlink:href="#DejaVuSans-30"/>
       <use x="127.246094" xlink:href="#DejaVuSans-30"/>
       <use x="190.869141" xlink:href="#DejaVuSans-30"/>
      </g>
     </g>
    </g>
    <g id="xtick_6">
     <g id="line2d_11">
      <path clip-path="url(#p0acb56660c)" d="M 280.8 307.584 
L 280.8 41.472 
" style="fill:none;stroke:#b0b0b0;stroke-linecap:square;stroke-width:0.8;"/>
     </g>
     <g id="line2d_12">
      <g>
       <use style="stroke:#000000;stroke-width:0.8;" x="280.8" xlink:href="#mf58a882450" y="307.584"/>
      </g>
     </g>
     <g id="text_6">
      <!-- 1250 -->
      <g transform="translate(268.075 322.182437)scale(0.1 -0.1)">
       <use xlink:href="#DejaVuSans-31"/>
       <use x="63.623047" xlink:href="#DejaVuSans-32"/>
       <use x="127.246094" xlink:href="#DejaVuSans-35"/>
       <use x="190.869141" xlink:href="#DejaVuSans-30"/>
      </g>
     </g>
    </g>
    <g id="xtick_7">
     <g id="line2d_13">
      <path clip-path="url(#p0acb56660c)" d="M 325.44 307.584 
L 325.44 41.472 
" style="fill:none;stroke:#b0b0b0;stroke-linecap:square;stroke-width:0.8;"/>
     </g>
     <g id="line2d_14">
      <g>
       <use style="stroke:#000000;stroke-width:0.8;" x="325.44" xlink:href="#mf58a882450" y="307.584"/>
      </g>
     </g>
     <g id="text_7">
      <!-- 1500 -->
      <g transform="translate(312.715 322.182437)scale(0.1 -0.1)">
       <use xlink:href="#DejaVuSans-31"/>
       <use x="63.623047" xlink:href="#DejaVuSans-35"/>
       <use x="127.246094" xlink:href="#DejaVuSans-30"/>
       <use x="190.869141" xlink:href="#DejaVuSans-30"/>
      </g>
     </g>
    </g>
    <g id="xtick_8">
     <g id="line2d_15">
      <path clip-path="url(#p0acb56660c)" d="M 370.08 307.584 
L 370.08 41.472 
" style="fill:none;stroke:#b0b0b0;stroke-linecap:square;stroke-width:0.8;"/>
     </g>
     <g id="line2d_16">
      <g>
       <use style="stroke:#000000;stroke-width:0.8;" x="370.08" xlink:href="#mf58a882450" y="307.584"/>
      </g>
     </g>
     <g id="text_8">
      <!-- 1750 -->
      <g transform="translate(357.355 322.182437)scale(0.1 -0.1)">
       <use xlink:href="#DejaVuSans-31"/>
       <use x="63.623047" xlink:href="#DejaVuSans-37"/>
       <use x="127.246094" xlink:href="#DejaVuSans-35"/>
       <use x="190.869141" xlink:href="#DejaVuSans-30"/>
      </g>
     </g>
    </g>
    <g id="xtick_9">
     <g id="line2d_17">
      <path clip-path="url(#p0acb56660c)" d="M 414.72 307.584 
L 414.72 41.472 
" style="fill:none;stroke:#b0b0b0;stroke-linecap:square;stroke-width:0.8;"/>
     </g>
     <g id="line2d_18">
      <g>
       <use style="stroke:#000000;stroke-width:0.8;" x="414.72" xlink:href="#mf58a882450" y="307.584"/>
      </g>
     </g>
     <g id="text_9">
      <!-- 2000 -->
      <g transform="translate(401.995 322.182437)scale(0.1 -0.1)">
       <use xlink:href="#DejaVuSans-32"/>
       <use x="63.623047" xlink:href="#DejaVuSans-30"/>
       <use x="127.246094" xlink:href="#DejaVuSans-30"/>
       <use x="190.869141" xlink:href="#DejaVuSans-30"/>
      </g>
     </g>
    </g>
    <g id="text_10">
     <!-- Episodes -->
     <g transform="translate(213.917812 335.860562)scale(0.1 -0.1)">
      <defs>
       <path d="M 628 4666 
L 3578 4666 
L 3578 4134 
L 1259 4134 
L 1259 2753 
L 3481 2753 
L 3481 2222 
L 1259 2222 
L 1259 531 
L 3634 531 
L 3634 0 
L 628 0 
L 628 4666 
z
" id="DejaVuSans-45" transform="scale(0.015625)"/>
       <path d="M 1159 525 
L 1159 -1331 
L 581 -1331 
L 581 3500 
L 1159 3500 
L 1159 2969 
Q 1341 3281 1617 3432 
Q 1894 3584 2278 3584 
Q 2916 3584 3314 3078 
Q 3713 2572 3713 1747 
Q 3713 922 3314 415 
Q 2916 -91 2278 -91 
Q 1894 -91 1617 61 
Q 1341 213 1159 525 
z
M 3116 1747 
Q 3116 2381 2855 2742 
Q 2594 3103 2138 3103 
Q 1681 3103 1420 2742 
Q 1159 2381 1159 1747 
Q 1159 1113 1420 752 
Q 1681 391 2138 391 
Q 2594 391 2855 752 
Q 3116 1113 3116 1747 
z
" id="DejaVuSans-70" transform="scale(0.015625)"/>
       <path d="M 603 3500 
L 1178 3500 
L 1178 0 
L 603 0 
L 603 3500 
z
M 603 4863 
L 1178 4863 
L 1178 4134 
L 603 4134 
L 603 4863 
z
" id="DejaVuSans-69" transform="scale(0.015625)"/>
       <path d="M 2834 3397 
L 2834 2853 
Q 2591 2978 2328 3040 
Q 2066 3103 1784 3103 
Q 1356 3103 1142 2972 
Q 928 2841 928 2578 
Q 928 2378 1081 2264 
Q 1234 2150 1697 2047 
L 1894 2003 
Q 2506 1872 2764 1633 
Q 3022 1394 3022 966 
Q 3022 478 2636 193 
Q 2250 -91 1575 -91 
Q 1294 -91 989 -36 
Q 684 19 347 128 
L 347 722 
Q 666 556 975 473 
Q 1284 391 1588 391 
Q 1994 391 2212 530 
Q 2431 669 2431 922 
Q 2431 1156 2273 1281 
Q 2116 1406 1581 1522 
L 1381 1569 
Q 847 1681 609 1914 
Q 372 2147 372 2553 
Q 372 3047 722 3315 
Q 1072 3584 1716 3584 
Q 2034 3584 2315 3537 
Q 2597 3491 2834 3397 
z
" id="DejaVuSans-73" transform="scale(0.015625)"/>
       <path d="M 1959 3097 
Q 1497 3097 1228 2736 
Q 959 2375 959 1747 
Q 959 1119 1226 758 
Q 1494 397 1959 397 
Q 2419 397 2687 759 
Q 2956 1122 2956 1747 
Q 2956 2369 2687 2733 
Q 2419 3097 1959 3097 
z
M 1959 3584 
Q 2709 3584 3137 3096 
Q 3566 2609 3566 1747 
Q 3566 888 3137 398 
Q 2709 -91 1959 -91 
Q 1206 -91 779 398 
Q 353 888 353 1747 
Q 353 2609 779 3096 
Q 1206 3584 1959 3584 
z
" id="DejaVuSans-6f" transform="scale(0.015625)"/>
       <path d="M 2906 2969 
L 2906 4863 
L 3481 4863 
L 3481 0 
L 2906 0 
L 2906 525 
Q 2725 213 2448 61 
Q 2172 -91 1784 -91 
Q 1150 -91 751 415 
Q 353 922 353 1747 
Q 353 2572 751 3078 
Q 1150 3584 1784 3584 
Q 2172 3584 2448 3432 
Q 2725 3281 2906 2969 
z
M 947 1747 
Q 947 1113 1208 752 
Q 1469 391 1925 391 
Q 2381 391 2643 752 
Q 2906 1113 2906 1747 
Q 2906 2381 2643 2742 
Q 2381 3103 1925 3103 
Q 1469 3103 1208 2742 
Q 947 2381 947 1747 
z
" id="DejaVuSans-64" transform="scale(0.015625)"/>
       <path d="M 3597 1894 
L 3597 1613 
L 953 1613 
Q 991 1019 1311 708 
Q 1631 397 2203 397 
Q 2534 397 2845 478 
Q 3156 559 3463 722 
L 3463 178 
Q 3153 47 2828 -22 
Q 2503 -91 2169 -91 
Q 1331 -91 842 396 
Q 353 884 353 1716 
Q 353 2575 817 3079 
Q 1281 3584 2069 3584 
Q 2775 3584 3186 3129 
Q 3597 2675 3597 1894 
z
M 3022 2063 
Q 3016 2534 2758 2815 
Q 2500 3097 2075 3097 
Q 1594 3097 1305 2825 
Q 1016 2553 972 2059 
L 3022 2063 
z
" id="DejaVuSans-65" transform="scale(0.015625)"/>
      </defs>
      <use xlink:href="#DejaVuSans-45"/>
      <use x="63.183594" xlink:href="#DejaVuSans-70"/>
      <use x="126.660156" xlink:href="#DejaVuSans-69"/>
      <use x="154.443359" xlink:href="#DejaVuSans-73"/>
      <use x="206.542969" xlink:href="#DejaVuSans-6f"/>
      <use x="267.724609" xlink:href="#DejaVuSans-64"/>
      <use x="331.201172" xlink:href="#DejaVuSans-65"/>
      <use x="392.724609" xlink:href="#DejaVuSans-73"/>
     </g>
    </g>
   </g>
   <g id="matplotlib.axis_2">
    <g id="ytick_1">
     <g id="line2d_19">
      <path clip-path="url(#p0acb56660c)" d="M 57.6 296.824029 
L 414.72 296.824029 
" style="fill:none;stroke:#b0b0b0;stroke-linecap:square;stroke-width:0.8;"/>
     </g>
     <g id="line2d_20">
      <defs>
       <path d="M 0 0 
L -3.5 0 
" id="mb86bc81d10" style="stroke:#000000;stroke-width:0.8;"/>
      </defs>
      <g>
       <use style="stroke:#000000;stroke-width:0.8;" x="57.6" xlink:href="#mb86bc81d10" y="296.824029"/>
      </g>
     </g>
     <g id="text_11">
      <!-- −2000 -->
      <g transform="translate(16.770313 300.623248)scale(0.1 -0.1)">
       <defs>
        <path d="M 678 2272 
L 4684 2272 
L 4684 1741 
L 678 1741 
L 678 2272 
z
" id="DejaVuSans-2212" transform="scale(0.015625)"/>
       </defs>
       <use xlink:href="#DejaVuSans-2212"/>
       <use x="83.789062" xlink:href="#DejaVuSans-32"/>
       <use x="147.412109" xlink:href="#DejaVuSans-30"/>
       <use x="211.035156" xlink:href="#DejaVuSans-30"/>
       <use x="274.658203" xlink:href="#DejaVuSans-30"/>
      </g>
     </g>
    </g>
    <g id="ytick_2">
     <g id="line2d_21">
      <path clip-path="url(#p0acb56660c)" d="M 57.6 266.599037 
L 414.72 266.599037 
" style="fill:none;stroke:#b0b0b0;stroke-linecap:square;stroke-width:0.8;"/>
     </g>
     <g id="line2d_22">
      <g>
       <use style="stroke:#000000;stroke-width:0.8;" x="57.6" xlink:href="#mb86bc81d10" y="266.599037"/>
      </g>
     </g>
     <g id="text_12">
      <!-- −1750 -->
      <g transform="translate(16.770313 270.398256)scale(0.1 -0.1)">
       <use xlink:href="#DejaVuSans-2212"/>
       <use x="83.789062" xlink:href="#DejaVuSans-31"/>
       <use x="147.412109" xlink:href="#DejaVuSans-37"/>
       <use x="211.035156" xlink:href="#DejaVuSans-35"/>
       <use x="274.658203" xlink:href="#DejaVuSans-30"/>
      </g>
     </g>
    </g>
    <g id="ytick_3">
     <g id="line2d_23">
      <path clip-path="url(#p0acb56660c)" d="M 57.6 236.374045 
L 414.72 236.374045 
" style="fill:none;stroke:#b0b0b0;stroke-linecap:square;stroke-width:0.8;"/>
     </g>
     <g id="line2d_24">
      <g>
       <use style="stroke:#000000;stroke-width:0.8;" x="57.6" xlink:href="#mb86bc81d10" y="236.374045"/>
      </g>
     </g>
     <g id="text_13">
      <!-- −1500 -->
      <g transform="translate(16.770313 240.173264)scale(0.1 -0.1)">
       <use xlink:href="#DejaVuSans-2212"/>
       <use x="83.789062" xlink:href="#DejaVuSans-31"/>
       <use x="147.412109" xlink:href="#DejaVuSans-35"/>
       <use x="211.035156" xlink:href="#DejaVuSans-30"/>
       <use x="274.658203" xlink:href="#DejaVuSans-30"/>
      </g>
     </g>
    </g>
    <g id="ytick_4">
     <g id="line2d_25">
      <path clip-path="url(#p0acb56660c)" d="M 57.6 206.149053 
L 414.72 206.149053 
" style="fill:none;stroke:#b0b0b0;stroke-linecap:square;stroke-width:0.8;"/>
     </g>
     <g id="line2d_26">
      <g>
       <use style="stroke:#000000;stroke-width:0.8;" x="57.6" xlink:href="#mb86bc81d10" y="206.149053"/>
      </g>
     </g>
     <g id="text_14">
      <!-- −1250 -->
      <g transform="translate(16.770313 209.948271)scale(0.1 -0.1)">
       <use xlink:href="#DejaVuSans-2212"/>
       <use x="83.789062" xlink:href="#DejaVuSans-31"/>
       <use x="147.412109" xlink:href="#DejaVuSans-32"/>
       <use x="211.035156" xlink:href="#DejaVuSans-35"/>
       <use x="274.658203" xlink:href="#DejaVuSans-30"/>
      </g>
     </g>
    </g>
    <g id="ytick_5">
     <g id="line2d_27">
      <path clip-path="url(#p0acb56660c)" d="M 57.6 175.92406 
L 414.72 175.92406 
" style="fill:none;stroke:#b0b0b0;stroke-linecap:square;stroke-width:0.8;"/>
     </g>
     <g id="line2d_28">
      <g>
       <use style="stroke:#000000;stroke-width:0.8;" x="57.6" xlink:href="#mb86bc81d10" y="175.92406"/>
      </g>
     </g>
     <g id="text_15">
      <!-- −1000 -->
      <g transform="translate(16.770313 179.723279)scale(0.1 -0.1)">
       <use xlink:href="#DejaVuSans-2212"/>
       <use x="83.789062" xlink:href="#DejaVuSans-31"/>
       <use x="147.412109" xlink:href="#DejaVuSans-30"/>
       <use x="211.035156" xlink:href="#DejaVuSans-30"/>
       <use x="274.658203" xlink:href="#DejaVuSans-30"/>
      </g>
     </g>
    </g>
    <g id="ytick_6">
     <g id="line2d_29">
      <path clip-path="url(#p0acb56660c)" d="M 57.6 145.699068 
L 414.72 145.699068 
" style="fill:none;stroke:#b0b0b0;stroke-linecap:square;stroke-width:0.8;"/>
     </g>
     <g id="line2d_30">
      <g>
       <use style="stroke:#000000;stroke-width:0.8;" x="57.6" xlink:href="#mb86bc81d10" y="145.699068"/>
      </g>
     </g>
     <g id="text_16">
      <!-- −750 -->
      <g transform="translate(23.132812 149.498287)scale(0.1 -0.1)">
       <use xlink:href="#DejaVuSans-2212"/>
       <use x="83.789062" xlink:href="#DejaVuSans-37"/>
       <use x="147.412109" xlink:href="#DejaVuSans-35"/>
       <use x="211.035156" xlink:href="#DejaVuSans-30"/>
      </g>
     </g>
    </g>
    <g id="ytick_7">
     <g id="line2d_31">
      <path clip-path="url(#p0acb56660c)" d="M 57.6 115.474076 
L 414.72 115.474076 
" style="fill:none;stroke:#b0b0b0;stroke-linecap:square;stroke-width:0.8;"/>
     </g>
     <g id="line2d_32">
      <g>
       <use style="stroke:#000000;stroke-width:0.8;" x="57.6" xlink:href="#mb86bc81d10" y="115.474076"/>
      </g>
     </g>
     <g id="text_17">
      <!-- −500 -->
      <g transform="translate(23.132812 119.273295)scale(0.1 -0.1)">
       <use xlink:href="#DejaVuSans-2212"/>
       <use x="83.789062" xlink:href="#DejaVuSans-35"/>
       <use x="147.412109" xlink:href="#DejaVuSans-30"/>
       <use x="211.035156" xlink:href="#DejaVuSans-30"/>
      </g>
     </g>
    </g>
    <g id="ytick_8">
     <g id="line2d_33">
      <path clip-path="url(#p0acb56660c)" d="M 57.6 85.249083 
L 414.72 85.249083 
" style="fill:none;stroke:#b0b0b0;stroke-linecap:square;stroke-width:0.8;"/>
     </g>
     <g id="line2d_34">
      <g>
       <use style="stroke:#000000;stroke-width:0.8;" x="57.6" xlink:href="#mb86bc81d10" y="85.249083"/>
      </g>
     </g>
     <g id="text_18">
      <!-- −250 -->
      <g transform="translate(23.132812 89.048302)scale(0.1 -0.1)">
       <use xlink:href="#DejaVuSans-2212"/>
       <use x="83.789062" xlink:href="#DejaVuSans-32"/>
       <use x="147.412109" xlink:href="#DejaVuSans-35"/>
       <use x="211.035156" xlink:href="#DejaVuSans-30"/>
      </g>
     </g>
    </g>
    <g id="ytick_9">
     <g id="line2d_35">
      <path clip-path="url(#p0acb56660c)" d="M 57.6 55.024091 
L 414.72 55.024091 
" style="fill:none;stroke:#b0b0b0;stroke-linecap:square;stroke-width:0.8;"/>
     </g>
     <g id="line2d_36">
      <g>
       <use style="stroke:#000000;stroke-width:0.8;" x="57.6" xlink:href="#mb86bc81d10" y="55.024091"/>
      </g>
     </g>
     <g id="text_19">
      <!-- 0 -->
      <g transform="translate(44.2375 58.82331)scale(0.1 -0.1)">
       <use xlink:href="#DejaVuSans-30"/>
      </g>
     </g>
    </g>
    <g id="text_20">
     <!-- Cumulative Reward -->
     <g transform="translate(10.690625 223.275656)rotate(-90)scale(0.1 -0.1)">
      <defs>
       <path d="M 4122 4306 
L 4122 3641 
Q 3803 3938 3442 4084 
Q 3081 4231 2675 4231 
Q 1875 4231 1450 3742 
Q 1025 3253 1025 2328 
Q 1025 1406 1450 917 
Q 1875 428 2675 428 
Q 3081 428 3442 575 
Q 3803 722 4122 1019 
L 4122 359 
Q 3791 134 3420 21 
Q 3050 -91 2638 -91 
Q 1578 -91 968 557 
Q 359 1206 359 2328 
Q 359 3453 968 4101 
Q 1578 4750 2638 4750 
Q 3056 4750 3426 4639 
Q 3797 4528 4122 4306 
z
" id="DejaVuSans-43" transform="scale(0.015625)"/>
       <path d="M 544 1381 
L 544 3500 
L 1119 3500 
L 1119 1403 
Q 1119 906 1312 657 
Q 1506 409 1894 409 
Q 2359 409 2629 706 
Q 2900 1003 2900 1516 
L 2900 3500 
L 3475 3500 
L 3475 0 
L 2900 0 
L 2900 538 
Q 2691 219 2414 64 
Q 2138 -91 1772 -91 
Q 1169 -91 856 284 
Q 544 659 544 1381 
z
M 1991 3584 
L 1991 3584 
z
" id="DejaVuSans-75" transform="scale(0.015625)"/>
       <path d="M 3328 2828 
Q 3544 3216 3844 3400 
Q 4144 3584 4550 3584 
Q 5097 3584 5394 3201 
Q 5691 2819 5691 2113 
L 5691 0 
L 5113 0 
L 5113 2094 
Q 5113 2597 4934 2840 
Q 4756 3084 4391 3084 
Q 3944 3084 3684 2787 
Q 3425 2491 3425 1978 
L 3425 0 
L 2847 0 
L 2847 2094 
Q 2847 2600 2669 2842 
Q 2491 3084 2119 3084 
Q 1678 3084 1418 2786 
Q 1159 2488 1159 1978 
L 1159 0 
L 581 0 
L 581 3500 
L 1159 3500 
L 1159 2956 
Q 1356 3278 1631 3431 
Q 1906 3584 2284 3584 
Q 2666 3584 2933 3390 
Q 3200 3197 3328 2828 
z
" id="DejaVuSans-6d" transform="scale(0.015625)"/>
       <path d="M 603 4863 
L 1178 4863 
L 1178 0 
L 603 0 
L 603 4863 
z
" id="DejaVuSans-6c" transform="scale(0.015625)"/>
       <path d="M 2194 1759 
Q 1497 1759 1228 1600 
Q 959 1441 959 1056 
Q 959 750 1161 570 
Q 1363 391 1709 391 
Q 2188 391 2477 730 
Q 2766 1069 2766 1631 
L 2766 1759 
L 2194 1759 
z
M 3341 1997 
L 3341 0 
L 2766 0 
L 2766 531 
Q 2569 213 2275 61 
Q 1981 -91 1556 -91 
Q 1019 -91 701 211 
Q 384 513 384 1019 
Q 384 1609 779 1909 
Q 1175 2209 1959 2209 
L 2766 2209 
L 2766 2266 
Q 2766 2663 2505 2880 
Q 2244 3097 1772 3097 
Q 1472 3097 1187 3025 
Q 903 2953 641 2809 
L 641 3341 
Q 956 3463 1253 3523 
Q 1550 3584 1831 3584 
Q 2591 3584 2966 3190 
Q 3341 2797 3341 1997 
z
" id="DejaVuSans-61" transform="scale(0.015625)"/>
       <path d="M 1172 4494 
L 1172 3500 
L 2356 3500 
L 2356 3053 
L 1172 3053 
L 1172 1153 
Q 1172 725 1289 603 
Q 1406 481 1766 481 
L 2356 481 
L 2356 0 
L 1766 0 
Q 1100 0 847 248 
Q 594 497 594 1153 
L 594 3053 
L 172 3053 
L 172 3500 
L 594 3500 
L 594 4494 
L 1172 4494 
z
" id="DejaVuSans-74" transform="scale(0.015625)"/>
       <path d="M 191 3500 
L 800 3500 
L 1894 563 
L 2988 3500 
L 3597 3500 
L 2284 0 
L 1503 0 
L 191 3500 
z
" id="DejaVuSans-76" transform="scale(0.015625)"/>
       <path id="DejaVuSans-20" transform="scale(0.015625)"/>
       <path d="M 2841 2188 
Q 3044 2119 3236 1894 
Q 3428 1669 3622 1275 
L 4263 0 
L 3584 0 
L 2988 1197 
Q 2756 1666 2539 1819 
Q 2322 1972 1947 1972 
L 1259 1972 
L 1259 0 
L 628 0 
L 628 4666 
L 2053 4666 
Q 2853 4666 3247 4331 
Q 3641 3997 3641 3322 
Q 3641 2881 3436 2590 
Q 3231 2300 2841 2188 
z
M 1259 4147 
L 1259 2491 
L 2053 2491 
Q 2509 2491 2742 2702 
Q 2975 2913 2975 3322 
Q 2975 3731 2742 3939 
Q 2509 4147 2053 4147 
L 1259 4147 
z
" id="DejaVuSans-52" transform="scale(0.015625)"/>
       <path d="M 269 3500 
L 844 3500 
L 1563 769 
L 2278 3500 
L 2956 3500 
L 3675 769 
L 4391 3500 
L 4966 3500 
L 4050 0 
L 3372 0 
L 2619 2869 
L 1863 0 
L 1184 0 
L 269 3500 
z
" id="DejaVuSans-77" transform="scale(0.015625)"/>
       <path d="M 2631 2963 
Q 2534 3019 2420 3045 
Q 2306 3072 2169 3072 
Q 1681 3072 1420 2755 
Q 1159 2438 1159 1844 
L 1159 0 
L 581 0 
L 581 3500 
L 1159 3500 
L 1159 2956 
Q 1341 3275 1631 3429 
Q 1922 3584 2338 3584 
Q 2397 3584 2469 3576 
Q 2541 3569 2628 3553 
L 2631 2963 
z
" id="DejaVuSans-72" transform="scale(0.015625)"/>
      </defs>
      <use xlink:href="#DejaVuSans-43"/>
      <use x="69.824219" xlink:href="#DejaVuSans-75"/>
      <use x="133.203125" xlink:href="#DejaVuSans-6d"/>
      <use x="230.615234" xlink:href="#DejaVuSans-75"/>
      <use x="293.994141" xlink:href="#DejaVuSans-6c"/>
      <use x="321.777344" xlink:href="#DejaVuSans-61"/>
      <use x="383.056641" xlink:href="#DejaVuSans-74"/>
      <use x="422.265625" xlink:href="#DejaVuSans-69"/>
      <use x="450.048828" xlink:href="#DejaVuSans-76"/>
      <use x="509.228516" xlink:href="#DejaVuSans-65"/>
      <use x="570.751953" xlink:href="#DejaVuSans-20"/>
      <use x="602.539062" xlink:href="#DejaVuSans-52"/>
      <use x="667.521484" xlink:href="#DejaVuSans-65"/>
      <use x="729.044922" xlink:href="#DejaVuSans-77"/>
      <use x="810.832031" xlink:href="#DejaVuSans-61"/>
      <use x="872.111328" xlink:href="#DejaVuSans-72"/>
      <use x="911.474609" xlink:href="#DejaVuSans-64"/>
     </g>
    </g>
   </g>
   <g id="line2d_37">
    <path clip-path="url(#p0acb56660c)" d="M 57.6 269.649201 
L 57.95712 185.10686 
L 58.13568 193.967169 
L 58.31424 269.649201 
L 58.67136 185.10686 
L 58.84992 193.967169 
L 59.02848 269.649201 
L 59.3856 185.10686 
L 59.56416 193.967169 
L 59.74272 269.649201 
L 60.09984 185.10686 
L 60.2784 193.967169 
L 60.45696 269.649201 
L 60.81408 185.10686 
L 60.99264 193.967169 
L 61.1712 269.649201 
L 61.52832 185.10686 
L 61.70688 193.967169 
L 61.88544 269.649201 
L 62.24256 185.10686 
L 62.42112 193.967169 
L 62.59968 269.649201 
L 62.9568 185.10686 
L 63.13536 193.967169 
L 63.31392 269.649201 
L 63.67104 185.10686 
L 63.8496 193.967169 
L 64.02816 269.649201 
L 64.38528 185.10686 
L 64.56384 193.967169 
L 64.7424 269.649201 
L 65.09952 185.10686 
L 65.27808 193.967169 
L 65.45664 269.649201 
L 65.81376 185.10686 
L 65.99232 193.967169 
L 66.17088 269.649201 
L 66.528 185.10686 
L 66.70656 193.967169 
L 66.88512 269.649201 
L 67.24224 185.10686 
L 67.4208 193.967169 
L 67.59936 269.649201 
L 67.95648 185.10686 
L 68.13504 193.967169 
L 68.3136 269.649201 
L 68.67072 185.10686 
L 68.84928 193.967169 
L 69.02784 269.649201 
L 69.38496 185.10686 
L 69.56352 193.967169 
L 69.74208 269.649201 
L 70.0992 185.10686 
L 70.27776 193.967169 
L 70.45632 269.649201 
L 70.81344 185.10686 
L 70.992 193.967169 
L 71.17056 269.649201 
L 71.52768 185.10686 
L 71.70624 193.967169 
L 71.8848 269.649201 
L 72.24192 185.10686 
L 72.42048 193.967169 
L 72.59904 269.649201 
L 72.95616 185.10686 
L 73.13472 193.967169 
L 73.31328 269.649201 
L 73.6704 185.10686 
L 73.84896 193.967169 
L 74.02752 269.649201 
L 74.38464 185.10686 
L 74.5632 193.967169 
L 74.74176 269.649201 
L 75.09888 185.10686 
L 75.27744 193.967169 
L 75.456 193.442207 
L 75.63456 205.49528 
L 75.81312 198.952453 
L 75.99168 187.429044 
L 76.17024 220.683124 
L 76.3488 189.093842 
L 76.52736 268.054834 
L 76.88448 215.136806 
L 77.06304 259.442125 
L 77.42016 191.399187 
L 77.59872 175.592267 
L 77.95584 196.951908 
L 78.1344 237.628076 
L 78.31296 170.873087 
L 78.49152 205.637916 
L 78.84864 178.956902 
L 79.0272 212.213964 
L 79.20576 201.710881 
L 79.38432 173.633373 
L 79.56288 200.626989 
L 79.74144 206.744888 
L 79.92 192.293532 
L 80.09856 207.124307 
L 80.27712 251.943399 
L 80.45568 190.354118 
L 80.63424 211.099552 
L 80.8128 214.710047 
L 80.99136 242.049206 
L 81.16992 180.473709 
L 81.52704 285.408 
L 82.06272 223.95181 
L 82.24128 173.73036 
L 82.41984 258.322847 
L 82.5984 266.090204 
L 82.95552 181.864911 
L 83.13408 195.142955 
L 83.31264 173.30458 
L 83.4912 222.055601 
L 83.66976 203.555693 
L 84.02688 241.852043 
L 84.20544 170.547784 
L 84.384 170.278557 
L 84.74112 215.218629 
L 84.91968 207.559164 
L 85.09824 224.39164 
L 85.2768 186.535628 
L 85.45536 240.224486 
L 85.63392 252.939111 
L 85.99104 190.103814 
L 86.1696 201.923708 
L 86.34816 168.650601 
L 86.52672 244.212435 
L 86.70528 186.067684 
L 86.88384 172.887529 
L 87.0624 181.381207 
L 87.24096 182.461013 
L 87.41952 191.394695 
L 87.59808 279.267112 
L 87.9552 169.888825 
L 88.13376 195.334546 
L 88.31232 193.600758 
L 88.49088 147.318456 
L 88.66944 221.800579 
L 88.848 176.66719 
L 89.02656 168.489157 
L 89.20512 209.960608 
L 89.38368 151.68135 
L 89.56224 157.433291 
L 89.7408 239.767696 
L 89.91936 179.437039 
L 90.09792 244.27825 
L 90.45504 209.661083 
L 90.6336 235.096734 
L 90.81216 178.150526 
L 90.99072 187.670138 
L 91.16928 172.785456 
L 91.34784 236.653529 
L 91.5264 185.100457 
L 91.70496 197.043174 
L 91.88352 181.290857 
L 92.06208 242.593975 
L 92.24064 197.568568 
L 92.4192 189.6599 
L 92.59776 155.7266 
L 92.77632 163.461769 
L 92.95488 141.96798 
L 93.312 221.028214 
L 93.66912 156.192955 
L 94.02624 184.089946 
L 94.2048 198.140308 
L 94.38336 188.235424 
L 94.56192 163.82401 
L 94.74048 167.161213 
L 94.91904 202.294516 
L 95.0976 163.939177 
L 95.27616 179.299052 
L 95.63328 154.20632 
L 95.9904 194.286167 
L 96.16896 203.693555 
L 96.34752 206.322693 
L 96.70464 131.269351 
L 97.06176 218.894443 
L 97.24032 190.30901 
L 97.41888 131.941208 
L 97.776 163.594159 
L 97.95456 148.640089 
L 98.31168 195.011685 
L 98.49024 152.682431 
L 98.6688 171.0552 
L 98.84736 138.485672 
L 99.02592 151.58409 
L 99.20448 137.365946 
L 99.38304 156.507625 
L 99.5616 160.128017 
L 99.74016 140.610255 
L 99.91872 148.843386 
L 100.09728 110.045086 
L 100.27584 168.976504 
L 100.4544 127.465421 
L 100.63296 148.601201 
L 100.81152 138.102167 
L 100.99008 140.924786 
L 101.16864 150.573324 
L 101.3472 117.735719 
L 101.52576 125.92929 
L 101.70432 147.62049 
L 101.88288 132.377783 
L 102.06144 103.129582 
L 102.24 135.905251 
L 102.41856 111.736228 
L 102.59712 114.668753 
L 102.95424 147.461761 
L 103.1328 86.854621 
L 103.31136 202.997799 
L 103.48992 112.681138 
L 103.66848 118.851626 
L 103.84704 137.987861 
L 104.0256 105.415643 
L 104.20416 105.431223 
L 104.38272 102.275815 
L 104.56128 143.565213 
L 104.9184 89.770392 
L 105.09696 147.138648 
L 105.27552 127.282674 
L 105.45408 156.055783 
L 105.98976 98.246585 
L 106.16832 122.037669 
L 106.34688 166.706776 
L 106.52544 90.404946 
L 106.704 130.982489 
L 106.88256 134.155342 
L 107.06112 157.387765 
L 107.23968 113.226172 
L 107.41824 110.090329 
L 107.5968 94.909213 
L 107.77536 142.041036 
L 107.95392 119.373016 
L 108.13248 119.233516 
L 108.31104 104.692981 
L 108.4896 124.155936 
L 108.66816 107.218925 
L 108.84672 111.53574 
L 109.02528 130.92572 
L 109.20384 96.438124 
L 109.3824 149.289961 
L 109.56096 110.518891 
L 109.73952 165.332111 
L 109.91808 114.790678 
L 110.09664 160.81537 
L 110.2752 110.407517 
L 110.45376 110.980519 
L 110.63232 129.9176 
L 110.81088 101.381324 
L 110.98944 119.502069 
L 111.168 118.370458 
L 111.34656 129.426747 
L 111.52512 128.781704 
L 111.70368 138.656645 
L 111.88224 131.395804 
L 112.0608 95.372221 
L 112.23936 129.114165 
L 112.41792 114.684093 
L 112.59648 133.249646 
L 112.77504 133.282792 
L 112.9536 100.380187 
L 113.13216 187.322183 
L 113.31072 89.340508 
L 113.48928 111.314383 
L 113.66784 103.472384 
L 113.8464 130.058397 
L 114.02496 129.214463 
L 114.20352 234.571906 
L 114.38208 186.291898 
L 114.56064 189.116499 
L 114.7392 107.379684 
L 115.27488 204.331545 
L 115.45344 133.666611 
L 115.632 187.223439 
L 115.81056 157.886393 
L 115.98912 170.462376 
L 116.16768 201.208217 
L 116.34624 120.032799 
L 116.5248 103.14856 
L 116.70336 129.483365 
L 116.88192 119.076806 
L 117.06048 80.827537 
L 117.23904 146.705053 
L 117.4176 81.507809 
L 117.59616 148.177036 
L 117.77472 109.487782 
L 117.95328 210.92304 
L 118.13184 116.385931 
L 118.3104 113.410649 
L 118.48896 121.655364 
L 118.66752 119.117086 
L 118.84608 99.400101 
L 119.02464 111.40228 
L 119.2032 101.290027 
L 119.38176 98.832997 
L 119.56032 133.665137 
L 119.73888 137.059678 
L 119.91744 151.981408 
L 120.096 105.587396 
L 120.27456 122.199918 
L 120.45312 114.515687 
L 120.63168 111.844736 
L 120.9888 130.44108 
L 121.16736 104.419797 
L 121.34592 117.649703 
L 121.52448 91.581553 
L 121.70304 127.669983 
L 121.8816 114.431794 
L 122.06016 143.384408 
L 122.23872 86.386807 
L 122.41728 115.46109 
L 122.59584 104.097382 
L 122.7744 127.906195 
L 122.95296 197.804036 
L 123.13152 144.172439 
L 123.48864 101.13553 
L 123.6672 169.775715 
L 124.02432 102.680779 
L 124.20288 148.166403 
L 124.56 95.877527 
L 124.73856 116.220737 
L 124.91712 104.015526 
L 125.09568 99.59622 
L 125.27424 150.802485 
L 125.4528 83.02504 
L 125.63136 137.987895 
L 125.80992 102.417602 
L 125.98848 111.54385 
L 126.16704 95.759243 
L 126.3456 90.478083 
L 126.52416 111.351704 
L 126.70272 101.779103 
L 126.88128 121.417489 
L 127.05984 111.452677 
L 127.2384 150.436525 
L 127.41696 111.956909 
L 127.59552 136.279056 
L 127.77408 106.553118 
L 127.95264 117.582335 
L 128.30976 84.858068 
L 128.48832 105.676181 
L 128.66688 84.749318 
L 128.84544 88.843459 
L 129.024 104.567996 
L 129.20256 97.406753 
L 129.38112 129.58898 
L 129.55968 114.650375 
L 129.73824 127.983565 
L 129.9168 130.6301 
L 130.09536 148.239076 
L 130.27392 88.252194 
L 130.45248 133.371046 
L 130.63104 127.851103 
L 130.8096 157.592591 
L 130.98816 108.808568 
L 131.16672 115.943683 
L 131.34528 134.442316 
L 131.52384 132.276974 
L 131.7024 140.504476 
L 131.88096 110.813898 
L 132.05952 115.401429 
L 132.23808 96.569363 
L 132.41664 98.409117 
L 132.5952 135.419209 
L 132.77376 123.963459 
L 133.13088 145.291166 
L 133.488 107.098624 
L 133.66656 104.440104 
L 134.20224 127.251634 
L 134.3808 122.047415 
L 134.73792 133.611809 
L 134.91648 122.516591 
L 135.09504 160.157368 
L 135.2736 102.700132 
L 135.45216 121.312639 
L 135.63072 116.235429 
L 135.80928 142.514146 
L 135.98784 142.866151 
L 136.1664 101.174164 
L 136.34496 97.849717 
L 136.52352 120.772282 
L 136.88064 107.025312 
L 137.0592 122.324244 
L 137.23776 112.990203 
L 137.41632 113.050427 
L 137.59488 106.101957 
L 137.77344 128.55541 
L 137.952 119.219794 
L 138.13056 128.54905 
L 138.30912 131.556463 
L 138.48768 99.646347 
L 138.66624 186.53872 
L 138.8448 104.704905 
L 139.02336 141.784583 
L 139.20192 112.566214 
L 139.38048 125.848663 
L 139.55904 123.647959 
L 139.7376 104.778906 
L 139.91616 106.520516 
L 140.09472 105.275935 
L 140.27328 120.149044 
L 140.6304 99.953364 
L 140.80896 125.541497 
L 140.98752 126.957638 
L 141.16608 125.004096 
L 141.34464 146.724123 
L 141.5232 144.977974 
L 141.88032 101.710667 
L 142.05888 135.336991 
L 142.23744 122.746569 
L 142.416 93.26766 
L 142.59456 145.946213 
L 142.77312 103.534156 
L 142.95168 164.200983 
L 143.13024 113.032668 
L 143.3088 106.875786 
L 143.48736 111.728973 
L 143.66592 110.480993 
L 143.84448 125.294457 
L 144.02304 102.103053 
L 144.2016 111.326962 
L 144.38016 99.341548 
L 144.55872 103.022421 
L 144.91584 129.927847 
L 145.0944 122.696098 
L 145.27296 97.008682 
L 145.45152 135.333249 
L 145.63008 118.315826 
L 145.80864 120.952034 
L 145.9872 105.843595 
L 146.16576 140.723236 
L 146.34432 104.549057 
L 146.52288 125.106595 
L 146.70144 97.827198 
L 146.88 123.352693 
L 147.05856 103.827495 
L 147.23712 100.444939 
L 147.41568 94.16506 
L 147.59424 94.823306 
L 147.7728 116.476088 
L 147.95136 93.538859 
L 148.30848 119.145754 
L 148.48704 112.46717 
L 148.6656 156.521473 
L 148.84416 110.624944 
L 149.02272 110.338142 
L 149.20128 94.431463 
L 149.37984 127.011452 
L 149.5584 122.717379 
L 149.73696 94.741539 
L 149.91552 94.074981 
L 150.09408 104.047508 
L 150.27264 83.634031 
L 150.4512 139.48916 
L 150.62976 97.924371 
L 150.80832 124.780064 
L 150.98688 100.714464 
L 151.16544 113.865424 
L 151.344 104.077732 
L 151.70112 115.957462 
L 152.05824 110.9096 
L 152.59392 112.789235 
L 152.77248 118.817818 
L 152.95104 136.607886 
L 153.1296 143.042026 
L 153.30816 99.753652 
L 153.48672 102.798171 
L 153.66528 110.201463 
L 154.0224 97.283144 
L 154.20096 111.998765 
L 154.37952 87.772907 
L 154.9152 130.163367 
L 155.09376 160.733816 
L 155.45088 92.94135 
L 155.62944 101.446912 
L 155.808 93.944284 
L 156.16512 99.051879 
L 156.34368 122.723772 
L 156.52224 104.171773 
L 156.7008 123.742513 
L 156.87936 89.482334 
L 157.05792 91.984814 
L 157.23648 91.468373 
L 157.41504 98.810805 
L 157.5936 151.76829 
L 157.77216 106.996113 
L 157.95072 114.58098 
L 158.12928 103.943877 
L 158.30784 118.899003 
L 158.4864 167.041408 
L 158.66496 119.964585 
L 159.02208 160.993153 
L 159.20064 99.730014 
L 159.3792 114.762538 
L 159.55776 109.19994 
L 159.73632 108.331996 
L 159.91488 102.154132 
L 160.09344 104.755501 
L 160.45056 133.271195 
L 160.80768 98.60837 
L 160.98624 111.676998 
L 161.1648 107.498817 
L 161.34336 127.600305 
L 161.52192 90.155005 
L 161.70048 96.896576 
L 161.87904 110.322896 
L 162.0576 110.61215 
L 162.23616 124.560691 
L 162.41472 111.210528 
L 162.59328 111.463895 
L 162.77184 120.111395 
L 162.9504 109.930958 
L 163.12896 111.054816 
L 163.30752 108.473578 
L 163.48608 95.287536 
L 163.66464 120.314715 
L 163.8432 97.670321 
L 164.02176 103.35359 
L 164.20032 121.931757 
L 164.37888 113.397245 
L 164.55744 144.228914 
L 164.736 113.210667 
L 164.91456 163.779723 
L 165.09312 118.05628 
L 165.27168 148.626888 
L 165.45024 107.412214 
L 165.6288 113.794548 
L 165.80736 93.146884 
L 165.98592 95.178999 
L 166.16448 107.93902 
L 166.34304 91.31628 
L 166.70016 125.251623 
L 167.05728 97.149321 
L 167.23584 100.747403 
L 167.4144 97.182453 
L 167.59296 98.877375 
L 167.77152 93.604933 
L 167.95008 107.719969 
L 168.12864 103.574986 
L 168.3072 133.782573 
L 168.48576 90.026985 
L 168.66432 112.478418 
L 168.84288 103.383678 
L 169.2 111.97068 
L 169.37856 103.635949 
L 169.73568 132.965163 
L 169.91424 92.540663 
L 170.0928 117.690449 
L 170.27136 102.65761 
L 170.44992 102.379268 
L 170.62848 118.72758 
L 170.80704 95.283623 
L 170.9856 108.819786 
L 171.16416 105.31536 
L 171.34272 122.620358 
L 171.52128 107.161403 
L 171.69984 130.204989 
L 171.8784 85.392655 
L 172.41408 116.336402 
L 172.59264 94.254841 
L 172.7712 107.746065 
L 172.94976 91.403008 
L 173.30688 101.267624 
L 173.48544 120.810679 
L 173.664 107.57199 
L 173.84256 113.820127 
L 174.02112 107.378416 
L 174.19968 90.824502 
L 174.37824 95.223406 
L 174.5568 114.634607 
L 174.73536 99.138102 
L 174.91392 100.655025 
L 175.09248 108.415004 
L 175.27104 101.426411 
L 175.4496 129.654282 
L 175.62816 135.905567 
L 175.98528 105.726087 
L 176.3424 139.072224 
L 176.52096 165.302306 
L 177.2352 98.12956 
L 177.41376 119.248712 
L 177.59232 127.159123 
L 177.77088 113.641395 
L 177.94944 128.957059 
L 178.128 132.235982 
L 178.30656 86.700466 
L 178.48512 116.706186 
L 178.66368 103.762402 
L 178.84224 125.034135 
L 179.0208 98.410773 
L 179.19936 113.785613 
L 179.37792 92.944082 
L 179.55648 109.477058 
L 179.73504 89.238063 
L 179.9136 85.537205 
L 180.27072 110.641138 
L 180.62784 79.451397 
L 180.8064 82.631715 
L 180.98496 82.322963 
L 181.16352 90.748046 
L 181.34208 90.614041 
L 181.52064 91.18094 
L 181.6992 95.417957 
L 181.87776 90.699172 
L 182.05632 119.996005 
L 182.23488 91.371173 
L 182.77056 109.660202 
L 183.12768 97.475948 
L 183.30624 78.831242 
L 183.4848 113.863456 
L 183.66336 119.485732 
L 183.84192 102.607211 
L 184.02048 105.083222 
L 184.19904 111.778606 
L 184.55616 95.843352 
L 184.73472 121.587837 
L 184.91328 77.790211 
L 185.09184 110.90698 
L 185.2704 81.787841 
L 185.44896 94.05271 
L 185.62752 120.914699 
L 185.80608 106.265005 
L 185.98464 116.833577 
L 186.1632 103.060839 
L 186.34176 112.692008 
L 186.69888 136.218015 
L 186.87744 98.578178 
L 187.056 105.080481 
L 187.23456 159.949492 
L 187.41312 91.734767 
L 187.59168 116.192911 
L 187.77024 95.323349 
L 187.9488 122.308257 
L 188.12736 93.41013 
L 188.30592 149.263521 
L 188.48448 97.913781 
L 188.66304 117.437092 
L 188.8416 84.255972 
L 189.02016 79.06314 
L 189.19872 87.310644 
L 189.37728 203.762575 
L 189.55584 104.154506 
L 189.7344 108.835685 
L 189.91296 84.810315 
L 190.09152 83.560766 
L 190.44864 98.061 
L 190.6272 139.521412 
L 190.80576 105.659168 
L 190.98432 130.921568 
L 191.16288 72.61512 
L 191.34144 88.830509 
L 191.52 77.381844 
L 191.87712 147.318517 
L 192.05568 87.163324 
L 192.23424 138.958533 
L 192.59136 73.858586 
L 192.76992 88.415438 
L 192.94848 75.387902 
L 193.12704 79.817953 
L 193.3056 69.805776 
L 193.48416 125.212157 
L 193.66272 86.247775 
L 193.84128 89.67965 
L 194.01984 82.161883 
L 194.1984 165.061689 
L 194.37696 78.121538 
L 194.55552 97.271466 
L 194.73408 89.269846 
L 194.91264 149.450322 
L 195.0912 119.990371 
L 195.26976 154.216375 
L 195.44832 124.183108 
L 195.62688 139.793904 
L 195.80544 124.009152 
L 195.984 124.5512 
L 196.16256 141.914434 
L 196.34112 108.858193 
L 196.51968 174.376594 
L 196.69824 97.622377 
L 196.8768 85.551743 
L 197.05536 133.868517 
L 197.23392 94.450117 
L 197.41248 90.553783 
L 197.59104 78.726886 
L 197.7696 138.193179 
L 197.94816 78.98117 
L 198.12672 99.371236 
L 198.30528 105.647404 
L 198.48384 91.810311 
L 198.6624 106.688769 
L 198.84096 136.841665 
L 199.01952 96.245209 
L 199.19808 130.906439 
L 199.37664 104.336672 
L 199.5552 161.580937 
L 199.91232 84.833909 
L 200.09088 91.603266 
L 200.26944 107.839376 
L 200.448 110.867729 
L 200.62656 138.077344 
L 200.98368 86.467638 
L 201.16224 87.514085 
L 201.51936 103.293093 
L 201.69792 103.528185 
L 201.87648 94.558436 
L 202.05504 100.246544 
L 202.2336 129.329475 
L 202.41216 89.001965 
L 202.59072 108.64767 
L 202.76928 97.837238 
L 202.94784 145.034058 
L 203.30496 108.204691 
L 203.48352 108.497828 
L 203.66208 112.384282 
L 203.84064 100.88576 
L 204.0192 81.641861 
L 204.19776 103.353111 
L 204.37632 82.666329 
L 204.55488 104.280903 
L 204.73344 93.874187 
L 204.912 102.999029 
L 205.09056 102.794376 
L 205.26912 99.414857 
L 205.44768 177.8128 
L 205.62624 173.885317 
L 205.8048 104.116638 
L 205.98336 130.637326 
L 206.16192 85.480344 
L 206.34048 137.20233 
L 206.51904 79.480958 
L 206.6976 129.789777 
L 206.87616 81.04487 
L 207.23328 106.730931 
L 207.41184 79.174994 
L 207.5904 132.77018 
L 207.76896 79.405353 
L 207.94752 118.325129 
L 208.12608 68.791169 
L 208.30464 86.269657 
L 208.4832 73.285048 
L 208.66176 101.333374 
L 208.84032 102.029216 
L 209.01888 73.936573 
L 209.19744 119.715654 
L 209.376 96.278346 
L 209.55456 103.975079 
L 209.73312 127.340417 
L 209.91168 88.563278 
L 210.09024 89.443537 
L 210.2688 87.335716 
L 210.44736 89.388967 
L 210.62592 118.160612 
L 210.80448 124.068545 
L 210.98304 103.946929 
L 211.1616 70.313142 
L 211.34016 82.447642 
L 211.51872 72.114111 
L 211.87584 99.140935 
L 212.0544 80.524281 
L 212.41152 92.601544 
L 212.59008 92.407118 
L 212.76864 125.560708 
L 212.9472 123.539019 
L 213.12576 119.643935 
L 213.30432 79.990243 
L 213.48288 104.701572 
L 213.66144 82.942265 
L 213.84 126.343915 
L 214.37568 85.532871 
L 214.55424 147.717647 
L 214.7328 87.037592 
L 214.91136 81.18151 
L 215.26848 97.071632 
L 215.44704 137.240937 
L 215.6256 125.200214 
L 215.80416 124.595568 
L 215.98272 148.250827 
L 216.16128 79.632683 
L 216.33984 72.308335 
L 216.5184 94.951251 
L 216.69696 98.321272 
L 216.87552 86.257007 
L 217.05408 148.131775 
L 217.23264 93.89777 
L 217.4112 131.87803 
L 217.58976 129.738802 
L 217.76832 123.787454 
L 217.94688 129.671411 
L 218.12544 102.939813 
L 218.304 138.766724 
L 218.48256 110.899768 
L 218.66112 109.761448 
L 218.83968 113.220706 
L 219.01824 96.051898 
L 219.1968 111.425567 
L 219.37536 100.622158 
L 219.55392 117.667486 
L 219.73248 79.747046 
L 219.91104 100.504919 
L 220.0896 83.777334 
L 220.26816 93.473248 
L 220.44672 83.426632 
L 220.62528 86.922065 
L 220.80384 96.230189 
L 220.9824 78.698018 
L 221.16096 79.54971 
L 221.33952 105.076507 
L 221.51808 76.736559 
L 221.69664 102.866202 
L 221.8752 78.727324 
L 222.05376 161.889666 
L 222.23232 77.724968 
L 222.41088 178.775883 
L 222.768 70.742766 
L 222.94656 114.502122 
L 223.12512 63.648 
L 223.30368 100.619689 
L 223.48224 110.480206 
L 223.6608 105.316482 
L 223.83936 136.315159 
L 224.01792 85.50976 
L 224.19648 86.509259 
L 224.37504 64.470783 
L 224.5536 84.995153 
L 224.73216 141.969065 
L 224.91072 77.349215 
L 225.08928 188.198 
L 225.26784 85.653008 
L 225.4464 92.210295 
L 225.62496 103.06227 
L 225.80352 80.364126 
L 225.98208 99.394348 
L 226.16064 75.135541 
L 226.3392 97.591794 
L 226.51776 72.16023 
L 226.69632 94.52104 
L 226.87488 92.522015 
L 227.232 95.036524 
L 227.41056 99.547086 
L 227.58912 78.350993 
L 227.76768 156.280074 
L 227.94624 76.410033 
L 228.1248 111.810482 
L 228.30336 112.945166 
L 228.48192 112.025593 
L 228.66048 84.185297 
L 228.83904 114.171263 
L 229.0176 92.142682 
L 229.19616 138.232285 
L 229.55328 92.470258 
L 229.73184 89.45105 
L 229.9104 102.875842 
L 230.08896 93.694678 
L 230.26752 93.590656 
L 230.44608 90.338583 
L 230.62464 110.902519 
L 230.8032 112.476387 
L 230.98176 89.193196 
L 231.16032 119.044839 
L 231.33888 107.306818 
L 231.51744 83.317219 
L 231.87456 136.831128 
L 232.05312 90.052511 
L 232.23168 98.726731 
L 232.41024 81.194061 
L 232.5888 96.43127 
L 232.76736 86.529828 
L 232.94592 112.432049 
L 233.12448 78.530169 
L 233.30304 86.782934 
L 233.4816 74.846817 
L 233.66016 78.225901 
L 233.83872 73.15131 
L 234.01728 106.038346 
L 234.19584 80.794875 
L 234.3744 91.290017 
L 234.55296 92.681056 
L 234.73152 116.866997 
L 234.91008 75.54152 
L 235.08864 113.15401 
L 235.44576 73.155272 
L 235.62432 84.745853 
L 235.80288 73.532566 
L 235.98144 78.328225 
L 236.16 90.642332 
L 236.33856 124.644155 
L 236.69568 100.138176 
L 237.0528 123.731767 
L 237.23136 95.394655 
L 237.40992 143.748918 
L 237.58848 92.385224 
L 237.76704 93.73503 
L 237.9456 127.798955 
L 238.12416 97.28953 
L 238.30272 98.467915 
L 238.48128 102.697266 
L 238.65984 90.789469 
L 238.8384 88.636057 
L 239.01696 104.795764 
L 239.19552 98.295573 
L 239.37408 114.986714 
L 239.55264 85.235546 
L 239.7312 113.572819 
L 239.90976 91.1568 
L 240.08832 92.36932 
L 240.26688 110.437063 
L 240.44544 73.774982 
L 240.624 78.559992 
L 240.80256 66.996227 
L 241.15968 84.432259 
L 241.33824 109.166239 
L 241.5168 73.276097 
L 241.69536 99.16925 
L 241.87392 87.066342 
L 242.05248 90.827895 
L 242.23104 104.999519 
L 242.4096 74.007395 
L 242.58816 108.224311 
L 242.76672 75.728759 
L 242.94528 144.313734 
L 243.12384 76.875896 
L 243.3024 89.070259 
L 243.65952 122.076538 
L 243.83808 170.535931 
L 244.01664 74.506083 
L 244.1952 79.344955 
L 244.55232 109.668197 
L 244.73088 91.038259 
L 244.90944 176.968398 
L 245.088 89.217621 
L 245.26656 137.704616 
L 245.44512 98.743875 
L 245.62368 106.733195 
L 245.80224 97.613709 
L 245.9808 102.256625 
L 246.15936 86.078908 
L 246.33792 84.234964 
L 246.51648 116.321437 
L 246.8736 75.062893 
L 247.05216 85.254122 
L 247.23072 67.288005 
L 247.40928 93.123365 
L 247.58784 69.848113 
L 247.94496 95.802654 
L 248.12352 95.270946 
L 248.30208 87.056118 
L 248.48064 85.999444 
L 248.6592 124.606391 
L 249.01632 90.850842 
L 249.19488 120.436436 
L 249.37344 119.418237 
L 249.73056 83.624719 
L 250.08768 92.075106 
L 250.26624 83.194068 
L 250.4448 115.276344 
L 250.62336 73.088284 
L 250.98048 85.745145 
L 251.15904 71.108145 
L 251.51616 91.107982 
L 251.69472 71.866725 
L 251.87328 76.023564 
L 252.05184 73.40711 
L 252.2304 80.540596 
L 252.40896 119.685607 
L 252.58752 89.563496 
L 252.76608 117.607779 
L 252.94464 90.613846 
L 253.1232 90.475921 
L 253.30176 79.862616 
L 253.48032 107.738088 
L 253.65888 85.19832 
L 253.83744 90.124436 
L 254.016 100.231746 
L 254.37312 90.996762 
L 254.55168 79.637681 
L 254.9088 108.96005 
L 255.08736 95.417011 
L 255.26592 91.391686 
L 255.44448 106.194959 
L 255.62304 89.593227 
L 255.8016 94.538057 
L 255.98016 87.064078 
L 256.15872 100.574327 
L 256.33728 87.108586 
L 256.51584 103.397185 
L 256.6944 81.265064 
L 256.87296 110.683863 
L 257.05152 87.654292 
L 257.23008 86.017743 
L 257.40864 72.682216 
L 257.5872 101.935974 
L 257.76576 85.897389 
L 257.94432 119.314675 
L 258.12288 74.84015 
L 258.48 98.646225 
L 258.65856 115.942569 
L 258.83712 92.950296 
L 259.01568 94.086613 
L 259.19424 90.052116 
L 259.3728 94.292442 
L 259.55136 90.085309 
L 259.72992 82.999033 
L 259.90848 127.280618 
L 260.08704 138.074687 
L 260.44416 118.895698 
L 260.80128 110.109756 
L 260.97984 94.556289 
L 261.1584 98.720866 
L 261.33696 75.496753 
L 261.51552 108.184425 
L 261.69408 70.551485 
L 261.87264 84.762237 
L 262.0512 86.260263 
L 262.22976 81.384926 
L 262.40832 107.595332 
L 262.58688 85.634512 
L 262.76544 116.741734 
L 262.944 77.279543 
L 263.12256 94.281068 
L 263.30112 126.525541 
L 263.47968 93.233257 
L 263.65824 103.575895 
L 263.8368 88.250628 
L 264.19392 110.937213 
L 264.7296 79.27515 
L 265.08672 95.77931 
L 265.44384 77.438316 
L 265.6224 93.120062 
L 265.80096 71.666609 
L 265.97952 80.358841 
L 266.15808 79.506397 
L 266.33664 174.515204 
L 266.5152 82.126225 
L 266.69376 104.470452 
L 266.87232 98.335104 
L 267.22944 80.964706 
L 267.58656 96.530884 
L 267.76512 78.699892 
L 267.94368 89.903831 
L 268.12224 89.500216 
L 268.3008 115.72219 
L 268.65792 102.123805 
L 268.83648 90.234047 
L 269.01504 108.746904 
L 269.1936 99.425231 
L 269.37216 97.505137 
L 269.55072 106.505868 
L 269.72928 87.064235 
L 270.0864 98.844016 
L 270.26496 79.799934 
L 270.44352 104.585081 
L 270.62208 94.692957 
L 270.80064 91.393314 
L 270.9792 107.243786 
L 271.33632 81.484336 
L 271.51488 96.236754 
L 271.69344 87.035902 
L 271.872 85.782133 
L 272.05056 73.675127 
L 272.40768 96.924975 
L 272.7648 80.477632 
L 272.94336 94.694547 
L 273.12192 80.29436 
L 273.30048 92.688492 
L 273.47904 96.386937 
L 273.6576 81.043388 
L 273.83616 115.927127 
L 274.01472 101.667382 
L 274.19328 113.880772 
L 274.5504 90.866643 
L 274.72896 85.760567 
L 274.90752 98.556895 
L 275.08608 83.078483 
L 275.4432 93.723242 
L 275.62176 94.799759 
L 275.80032 89.042366 
L 275.97888 91.427263 
L 276.15744 88.86176 
L 276.336 124.560533 
L 276.51456 88.433196 
L 276.69312 100.05484 
L 276.87168 85.135952 
L 277.2288 106.032693 
L 277.40736 94.280282 
L 277.58592 94.310102 
L 277.76448 120.371701 
L 278.1216 83.619667 
L 278.30016 118.500655 
L 278.47872 78.388198 
L 278.65728 96.982642 
L 278.83584 82.852133 
L 279.0144 130.675669 
L 279.19296 72.560481 
L 279.37152 99.849379 
L 279.55008 83.731929 
L 279.9072 112.420843 
L 280.08576 86.900712 
L 280.26432 114.070712 
L 280.44288 87.01419 
L 280.62144 102.17598 
L 280.8 75.148361 
L 280.97856 104.350891 
L 281.15712 75.957846 
L 281.33568 96.905894 
L 281.51424 83.979022 
L 281.6928 84.288114 
L 281.87136 76.566885 
L 282.04992 80.661926 
L 282.22848 87.713734 
L 282.40704 85.82135 
L 282.5856 105.115305 
L 282.76416 76.217176 
L 282.94272 112.980289 
L 283.12128 73.945157 
L 283.29984 80.663277 
L 283.4784 81.23454 
L 283.65696 75.341332 
L 283.83552 74.918574 
L 284.01408 77.360741 
L 284.19264 136.593721 
L 284.3712 79.968981 
L 284.54976 110.909082 
L 284.72832 90.551352 
L 284.90688 83.764607 
L 285.08544 98.766651 
L 285.264 86.10432 
L 285.44256 102.304144 
L 285.62112 88.395074 
L 285.79968 86.560716 
L 285.97824 96.225454 
L 286.1568 91.235653 
L 286.33536 90.929115 
L 286.51392 93.873002 
L 286.69248 115.569465 
L 286.87104 75.515805 
L 287.0496 78.97253 
L 287.22816 101.690089 
L 287.40672 74.793542 
L 287.76384 97.764898 
L 287.9424 124.444053 
L 288.12096 84.440497 
L 288.29952 91.173531 
L 288.47808 88.74196 
L 288.65664 99.357069 
L 288.8352 91.285453 
L 289.01376 91.80484 
L 289.19232 99.901403 
L 289.54944 79.319443 
L 289.728 104.100515 
L 289.90656 88.317194 
L 290.44224 101.552137 
L 290.6208 81.894572 
L 290.79936 79.099453 
L 290.97792 81.252927 
L 291.15648 77.088869 
L 291.33504 103.664195 
L 291.5136 78.763922 
L 291.69216 83.000856 
L 291.87072 125.118842 
L 292.04928 78.245992 
L 292.22784 92.918577 
L 292.58496 75.75956 
L 293.2992 94.292715 
L 293.47776 101.782971 
L 293.65632 114.997927 
L 293.83488 87.813582 
L 294.01344 80.309259 
L 294.37056 92.352023 
L 294.54912 90.098075 
L 294.72768 107.789526 
L 294.90624 79.895983 
L 295.0848 104.417399 
L 295.26336 77.000602 
L 295.44192 81.950569 
L 295.62048 99.759214 
L 295.79904 85.1728 
L 295.9776 94.604528 
L 296.15616 76.664082 
L 296.33472 75.042954 
L 296.69184 95.872344 
L 296.8704 78.149422 
L 297.04896 108.097587 
L 297.22752 75.612441 
L 297.40608 117.073108 
L 297.58464 77.292159 
L 297.7632 86.250548 
L 297.94176 78.401756 
L 298.12032 113.830982 
L 298.29888 82.435618 
L 298.47744 103.391334 
L 298.656 77.562734 
L 298.83456 103.303116 
L 299.01312 94.108503 
L 299.19168 69.798896 
L 299.37024 76.763961 
L 299.5488 76.85877 
L 299.72736 85.176771 
L 299.90592 138.852722 
L 300.26304 82.10974 
L 300.4416 85.43077 
L 300.62016 93.535073 
L 300.97728 87.600058 
L 301.15584 90.070682 
L 301.3344 75.512351 
L 301.51296 76.309371 
L 301.69152 81.817505 
L 301.87008 121.91406 
L 302.04864 97.985626 
L 302.2272 93.204038 
L 302.40576 116.529445 
L 302.58432 90.267447 
L 302.76288 87.977809 
L 302.94144 89.704467 
L 303.12 103.356892 
L 303.29856 102.265308 
L 303.47712 85.500596 
L 303.65568 88.988919 
L 303.83424 86.009224 
L 304.0128 95.450685 
L 304.36992 76.711633 
L 304.54848 97.950799 
L 304.72704 84.895881 
L 305.08416 78.032827 
L 305.26272 105.696686 
L 305.61984 88.894939 
L 305.7984 96.832521 
L 305.97696 85.494262 
L 306.15552 88.498917 
L 306.33408 77.730255 
L 306.51264 79.337872 
L 306.6912 86.737763 
L 306.86976 108.269574 
L 307.04832 91.205398 
L 307.22688 130.107728 
L 307.76256 86.260942 
L 307.94112 83.557339 
L 308.11968 78.684427 
L 308.29824 107.936726 
L 308.4768 105.711072 
L 308.65536 84.462905 
L 308.83392 96.237618 
L 309.01248 71.527875 
L 309.54816 128.363364 
L 309.72672 102.250887 
L 309.90528 105.041067 
L 310.08384 84.32772 
L 310.2624 106.762012 
L 310.44096 84.524832 
L 310.61952 98.781969 
L 310.79808 81.616148 
L 310.97664 95.352969 
L 311.1552 93.025107 
L 311.33376 112.29212 
L 311.51232 94.973764 
L 311.69088 106.872876 
L 311.86944 77.828119 
L 312.048 81.404182 
L 312.22656 93.90343 
L 312.58368 89.74659 
L 312.76224 93.688438 
L 312.9408 91.228139 
L 313.11936 106.028122 
L 313.29792 80.390341 
L 313.47648 97.835591 
L 313.65504 83.694567 
L 313.8336 91.789847 
L 314.01216 84.6589 
L 314.36928 97.984406 
L 314.54784 109.95905 
L 314.7264 102.71006 
L 314.90496 81.226392 
L 315.08352 106.288459 
L 315.26208 77.693564 
L 315.44064 86.060081 
L 315.6192 88.461902 
L 315.79776 99.885768 
L 315.97632 91.669412 
L 316.15488 78.194342 
L 316.33344 102.906288 
L 316.512 92.367475 
L 316.69056 95.253437 
L 316.86912 92.94589 
L 317.04768 84.80737 
L 317.22624 86.439593 
L 317.4048 86.057174 
L 317.58336 97.687224 
L 317.76192 85.853595 
L 317.94048 135.86033 
L 318.11904 89.716669 
L 318.2976 106.941208 
L 318.47616 74.562353 
L 318.65472 92.558204 
L 318.83328 72.435581 
L 319.01184 81.203828 
L 319.1904 80.154848 
L 319.36896 81.973036 
L 319.54752 93.594248 
L 319.72608 117.085213 
L 320.0832 93.459204 
L 320.26176 122.574024 
L 320.61888 79.924498 
L 320.79744 86.303748 
L 320.976 85.722546 
L 321.15456 72.782093 
L 321.33312 79.897593 
L 321.51168 69.549196 
L 321.8688 102.931911 
L 322.04736 91.741304 
L 322.22592 104.985629 
L 322.40448 96.98427 
L 322.58304 101.99387 
L 322.7616 97.812648 
L 322.94016 77.835377 
L 323.11872 104.79162 
L 323.29728 79.054008 
L 323.47584 89.886518 
L 323.6544 85.163005 
L 323.83296 107.2599 
L 324.01152 91.83318 
L 324.19008 91.470723 
L 324.36864 114.07987 
L 324.72576 93.348516 
L 324.90432 108.224374 
L 325.08288 85.91462 
L 325.26144 92.794814 
L 325.44 90.638584 
L 325.61856 79.496112 
L 325.79712 91.802632 
L 325.97568 89.413127 
L 326.15424 114.863955 
L 326.3328 86.923759 
L 326.51136 88.106552 
L 326.68992 93.354721 
L 326.86848 75.895561 
L 327.2256 90.051475 
L 327.40416 88.725827 
L 327.58272 82.157531 
L 327.76128 89.875094 
L 327.93984 114.812242 
L 328.1184 81.294188 
L 328.29696 88.032413 
L 328.47552 99.265452 
L 328.65408 95.639783 
L 328.83264 147.352451 
L 329.0112 85.839317 
L 329.18976 108.810066 
L 329.36832 76.76548 
L 329.54688 101.785672 
L 329.72544 80.983926 
L 329.904 125.489845 
L 330.08256 81.500297 
L 330.26112 109.515266 
L 330.43968 99.631391 
L 330.61824 109.016266 
L 330.7968 97.648061 
L 330.97536 100.811704 
L 331.15392 85.837243 
L 331.33248 100.765727 
L 331.51104 89.25144 
L 331.6896 94.866705 
L 331.86816 83.91438 
L 332.04672 80.545002 
L 332.22528 91.590259 
L 332.40384 76.077146 
L 332.5824 103.34194 
L 332.76096 94.610626 
L 332.93952 108.277569 
L 333.11808 84.615276 
L 333.29664 81.499774 
L 333.4752 83.057079 
L 333.65376 89.224865 
L 334.01088 78.29724 
L 334.18944 74.64841 
L 334.368 81.507038 
L 334.54656 80.502727 
L 334.72512 101.988684 
L 334.90368 101.800063 
L 335.08224 82.232345 
L 335.2608 92.924131 
L 335.43936 92.726011 
L 335.61792 110.089795 
L 335.79648 97.536018 
L 336.1536 86.39582 
L 336.33216 87.200186 
L 336.51072 88.838564 
L 336.68928 103.754766 
L 337.0464 92.531124 
L 337.22496 94.111936 
L 337.40352 97.006852 
L 337.58208 78.729278 
L 337.76064 76.68959 
L 337.9392 85.012531 
L 338.11776 81.885003 
L 338.29632 92.868216 
L 338.47488 86.092785 
L 338.65344 86.342201 
L 338.832 82.952616 
L 339.01056 115.320603 
L 339.18912 106.272155 
L 339.36768 85.062608 
L 339.54624 89.080416 
L 339.7248 84.011421 
L 339.90336 111.225534 
L 340.26048 91.188514 
L 340.43904 93.821374 
L 340.6176 92.783203 
L 340.79616 96.856711 
L 340.97472 95.934708 
L 341.15328 106.258069 
L 341.33184 92.469231 
L 341.5104 118.1956 
L 341.68896 90.380714 
L 341.86752 107.158447 
L 342.04608 93.539693 
L 342.22464 111.341664 
L 342.4032 82.766326 
L 342.58176 95.103555 
L 342.76032 74.535544 
L 342.93888 110.72496 
L 343.11744 80.407711 
L 343.296 82.514581 
L 343.65312 74.588202 
L 344.01024 107.783846 
L 344.1888 85.708663 
L 344.36736 81.145806 
L 344.54592 91.571847 
L 344.72448 92.920273 
L 344.90304 82.145049 
L 345.0816 98.933227 
L 345.26016 98.336666 
L 345.43872 95.936937 
L 345.61728 114.144991 
L 345.9744 90.274877 
L 346.15296 76.721766 
L 346.33152 90.615338 
L 346.51008 86.980798 
L 346.68864 95.494023 
L 346.8672 79.172479 
L 347.04576 90.382979 
L 347.22432 79.29586 
L 347.40288 97.058701 
L 347.93856 80.991478 
L 348.11712 88.06901 
L 348.29568 89.354611 
L 348.47424 76.13793 
L 348.6528 93.587396 
L 348.83136 81.81294 
L 349.00992 95.986066 
L 349.18848 80.523577 
L 349.36704 109.542695 
L 349.5456 77.432174 
L 349.90272 71.878713 
L 350.08128 82.981411 
L 350.25984 70.492687 
L 350.4384 102.241912 
L 350.61696 105.182332 
L 350.79552 84.35635 
L 350.97408 95.531772 
L 351.15264 81.559214 
L 351.3312 94.219501 
L 351.86688 82.61319 
L 352.04544 82.336721 
L 352.224 94.516476 
L 352.40256 93.570938 
L 352.58112 88.472661 
L 352.75968 96.493885 
L 352.93824 114.973565 
L 353.29536 94.512228 
L 353.47392 98.460354 
L 353.65248 72.536401 
L 353.83104 102.967878 
L 354.0096 92.272962 
L 354.18816 73.024982 
L 354.54528 104.693484 
L 354.72384 102.38162 
L 354.9024 93.026421 
L 355.08096 99.352991 
L 355.25952 85.904053 
L 355.43808 102.874588 
L 355.61664 108.094046 
L 355.7952 107.57213 
L 356.33088 77.089112 
L 356.50944 90.755864 
L 356.688 74.387348 
L 356.86656 103.923412 
L 357.04512 89.081509 
L 357.22368 102.062187 
L 357.40224 76.43523 
L 357.5808 83.731944 
L 357.75936 108.915343 
L 358.11648 80.818981 
L 358.4736 101.844651 
L 358.65216 106.408163 
L 358.83072 83.691277 
L 359.00928 79.195771 
L 359.18784 86.511856 
L 359.3664 81.434735 
L 359.54496 90.181105 
L 359.72352 87.5949 
L 359.90208 87.990061 
L 360.08064 86.301292 
L 360.2592 94.766892 
L 360.43776 72.140397 
L 360.61632 78.869748 
L 360.97344 105.058791 
L 361.152 69.666098 
L 361.33056 77.971438 
L 361.68768 83.475119 
L 361.86624 89.268956 
L 362.0448 113.42498 
L 362.22336 83.664606 
L 362.40192 120.772509 
L 362.58048 76.785383 
L 362.9376 90.779284 
L 363.11616 120.878602 
L 363.47328 77.494158 
L 363.65184 92.231724 
L 363.8304 82.092961 
L 364.00896 130.581811 
L 364.18752 75.35301 
L 364.36608 115.516165 
L 364.54464 80.424475 
L 364.7232 81.629411 
L 364.90176 84.747195 
L 365.08032 84.175726 
L 365.43744 120.461226 
L 365.616 88.892252 
L 365.79456 81.575713 
L 365.97312 96.450318 
L 366.15168 92.136854 
L 366.33024 126.437973 
L 366.5088 96.767037 
L 366.68736 107.405905 
L 366.86592 83.739937 
L 367.04448 115.811316 
L 367.22304 80.516976 
L 367.4016 81.048879 
L 367.58016 95.382763 
L 367.75872 80.355805 
L 367.93728 100.142798 
L 368.2944 75.744377 
L 368.47296 78.650423 
L 368.65152 69.443605 
L 368.83008 80.063444 
L 369.00864 100.193223 
L 369.1872 86.001982 
L 369.36576 85.036752 
L 369.54432 88.774486 
L 369.72288 87.158485 
L 369.90144 104.604474 
L 370.08 91.521815 
L 370.25856 103.502236 
L 370.43712 91.355825 
L 370.61568 106.362001 
L 370.79424 102.710962 
L 370.9728 113.432574 
L 371.15136 82.917605 
L 371.32992 102.825651 
L 371.50848 83.168363 
L 371.68704 100.379177 
L 371.8656 96.463831 
L 372.04416 74.833535 
L 372.22272 102.233604 
L 372.40128 84.174319 
L 372.57984 80.483973 
L 372.7584 89.149798 
L 372.93696 81.464142 
L 373.11552 83.632391 
L 373.29408 87.881656 
L 373.47264 127.396737 
L 373.6512 85.893274 
L 373.82976 112.374901 
L 374.18688 99.848105 
L 374.36544 90.409915 
L 374.72256 99.206088 
L 374.90112 78.009878 
L 375.07968 90.168241 
L 375.25824 92.327277 
L 375.4368 79.167701 
L 375.61536 105.684781 
L 375.79392 77.818097 
L 375.97248 108.051201 
L 376.15104 114.518744 
L 376.3296 82.52285 
L 376.50816 139.204255 
L 376.86528 79.942338 
L 377.04384 75.901756 
L 377.2224 94.676383 
L 377.40096 81.723563 
L 377.57952 109.135006 
L 377.75808 90.644983 
L 377.93664 89.669133 
L 378.1152 102.151831 
L 378.29376 96.883117 
L 378.47232 81.660324 
L 378.65088 99.127849 
L 379.008 86.401666 
L 379.36512 72.346167 
L 379.54368 88.779568 
L 379.72224 76.770289 
L 379.9008 86.854007 
L 380.07936 80.562195 
L 380.25792 81.473705 
L 380.43648 72.77578 
L 380.61504 99.682175 
L 380.7936 77.912244 
L 380.97216 95.706514 
L 381.15072 81.619619 
L 381.32928 82.482778 
L 381.50784 74.63071 
L 381.6864 102.548232 
L 381.86496 85.776577 
L 382.04352 90.243258 
L 382.22208 80.183334 
L 382.40064 86.518877 
L 382.5792 75.347824 
L 382.75776 109.396759 
L 382.93632 92.444327 
L 383.11488 120.031195 
L 383.29344 93.177395 
L 383.472 100.421983 
L 383.65056 85.284097 
L 383.82912 116.886304 
L 384.00768 81.667685 
L 384.18624 112.74 
L 384.3648 79.074886 
L 384.54336 75.466292 
L 384.72192 90.69593 
L 384.90048 80.356015 
L 385.07904 90.355707 
L 385.2576 75.717171 
L 385.43616 83.465704 
L 385.61472 102.21933 
L 385.79328 100.119268 
L 385.97184 95.950701 
L 386.1504 81.562744 
L 386.32896 110.641656 
L 386.50752 102.242354 
L 386.68608 82.97502 
L 386.86464 98.342571 
L 387.0432 80.122302 
L 387.22176 106.233815 
L 387.40032 99.201974 
L 387.57888 83.444411 
L 387.75744 83.796081 
L 387.936 73.91443 
L 388.11456 87.790166 
L 388.29312 80.111494 
L 388.47168 86.615428 
L 388.65024 83.291109 
L 388.8288 107.567596 
L 389.00736 108.380433 
L 389.18592 114.973029 
L 389.54304 90.595172 
L 389.7216 111.575638 
L 389.90016 96.105868 
L 390.07872 134.029894 
L 390.25728 94.461527 
L 390.43584 82.209175 
L 390.79296 97.842746 
L 390.97152 76.197903 
L 391.15008 97.029102 
L 391.32864 87.853167 
L 391.5072 87.266279 
L 391.68576 109.687076 
L 391.86432 84.374148 
L 392.04288 98.989021 
L 392.22144 82.293232 
L 392.4 103.349835 
L 392.93568 88.272543 
L 393.11424 86.94878 
L 393.2928 79.344142 
L 393.47136 99.846759 
L 393.64992 91.256438 
L 393.82848 88.195962 
L 394.00704 76.754144 
L 394.1856 88.065611 
L 394.36416 77.419918 
L 394.54272 85.13185 
L 394.89984 106.027936 
L 395.0784 90.718923 
L 395.25696 93.477254 
L 395.43552 83.637928 
L 395.61408 91.165371 
L 395.79264 87.166624 
L 395.9712 94.221059 
L 396.14976 90.709465 
L 396.32832 82.989917 
L 396.50688 96.427373 
L 396.68544 99.200965 
L 396.864 110.830356 
L 397.57824 87.529857 
L 397.7568 90.654561 
L 397.93536 119.167543 
L 398.11392 86.99989 
L 398.29248 102.767273 
L 398.47104 80.681244 
L 398.6496 103.855064 
L 398.82816 93.019283 
L 399.00672 89.972908 
L 399.18528 138.821339 
L 399.5424 101.811795 
L 400.07808 83.109773 
L 400.25664 82.958884 
L 400.4352 103.692309 
L 400.61376 101.897863 
L 400.79232 118.241439 
L 400.97088 81.250515 
L 401.328 92.568446 
L 401.50656 81.534901 
L 401.68512 112.244253 
L 401.86368 94.744101 
L 402.04224 95.438819 
L 402.2208 98.135745 
L 402.39936 91.421718 
L 402.57792 73.747391 
L 402.75648 94.608401 
L 402.93504 89.82578 
L 403.1136 94.550722 
L 403.29216 80.188323 
L 403.47072 92.937464 
L 403.64928 82.221945 
L 404.0064 88.12855 
L 404.18496 78.380155 
L 404.36352 95.132168 
L 404.54208 79.892557 
L 404.72064 120.433892 
L 404.8992 92.424336 
L 405.07776 107.447266 
L 405.25632 86.25039 
L 405.43488 88.417937 
L 405.61344 98.786228 
L 405.792 93.045499 
L 405.97056 104.360742 
L 406.32768 70.209642 
L 406.50624 94.513652 
L 406.6848 75.879469 
L 406.86336 78.751051 
L 407.04192 92.815324 
L 407.39904 83.04903 
L 407.5776 78.709317 
L 407.75616 94.832419 
L 407.93472 77.420023 
L 408.11328 98.100792 
L 408.29184 102.685977 
L 408.4704 80.748491 
L 408.64896 80.546407 
L 408.82752 76.164869 
L 409.18464 101.503018 
L 409.54176 83.650295 
L 409.89888 94.815507 
L 410.07744 91.242835 
L 410.256 104.635121 
L 410.43456 84.333103 
L 410.61312 86.50531 
L 410.79168 72.475234 
L 410.97024 87.876235 
L 411.1488 91.858738 
L 411.32736 90.314272 
L 411.50592 98.277288 
L 411.68448 93.39824 
L 411.86304 84.211612 
L 412.0416 93.418322 
L 412.39872 73.95925 
L 412.57728 88.126932 
L 412.75584 77.232957 
L 412.9344 90.406381 
L 413.11296 85.530107 
L 413.29152 119.992767 
L 413.47008 91.705393 
L 413.64864 93.654104 
L 413.8272 88.160021 
L 414.00576 114.222626 
L 414.18432 84.600496 
L 414.36288 93.157556 
L 414.54144 73.026332 
L 414.54144 73.026332 
" style="fill:none;stroke:#0000ff;stroke-linecap:square;stroke-width:1.5;"/>
   </g>
   <g id="patch_3">
    <path d="M 57.6 307.584 
L 57.6 41.472 
" style="fill:none;stroke:#000000;stroke-linecap:square;stroke-linejoin:miter;stroke-width:0.8;"/>
   </g>
   <g id="patch_4">
    <path d="M 414.72 307.584 
L 414.72 41.472 
" style="fill:none;stroke:#000000;stroke-linecap:square;stroke-linejoin:miter;stroke-width:0.8;"/>
   </g>
   <g id="patch_5">
    <path d="M 57.6 307.584 
L 414.72 307.584 
" style="fill:none;stroke:#000000;stroke-linecap:square;stroke-linejoin:miter;stroke-width:0.8;"/>
   </g>
   <g id="patch_6">
    <path d="M 57.6 41.472 
L 414.72 41.472 
" style="fill:none;stroke:#000000;stroke-linecap:square;stroke-linejoin:miter;stroke-width:0.8;"/>
   </g>
   <g id="legend_1">
    <g id="patch_7">
     <path d="M 282.321563 64.150125 
L 407.72 64.150125 
Q 409.72 64.150125 409.72 62.150125 
L 409.72 48.472 
Q 409.72 46.472 407.72 46.472 
L 282.321563 46.472 
Q 280.321563 46.472 280.321563 48.472 
L 280.321563 62.150125 
Q 280.321563 64.150125 282.321563 64.150125 
z
" style="fill:#ffffff;opacity:0.8;stroke:#cccccc;stroke-linejoin:miter;"/>
    </g>
    <g id="line2d_38">
     <path d="M 284.321563 54.570438 
L 304.321563 54.570438 
" style="fill:none;stroke:#0000ff;stroke-linecap:square;stroke-width:1.5;"/>
    </g>
    <g id="line2d_39"/>
    <g id="text_21">
     <!-- cumulative reward -->
     <g transform="translate(312.321563 58.070438)scale(0.1 -0.1)">
      <defs>
       <path d="M 3122 3366 
L 3122 2828 
Q 2878 2963 2633 3030 
Q 2388 3097 2138 3097 
Q 1578 3097 1268 2742 
Q 959 2388 959 1747 
Q 959 1106 1268 751 
Q 1578 397 2138 397 
Q 2388 397 2633 464 
Q 2878 531 3122 666 
L 3122 134 
Q 2881 22 2623 -34 
Q 2366 -91 2075 -91 
Q 1284 -91 818 406 
Q 353 903 353 1747 
Q 353 2603 823 3093 
Q 1294 3584 2113 3584 
Q 2378 3584 2631 3529 
Q 2884 3475 3122 3366 
z
" id="DejaVuSans-63" transform="scale(0.015625)"/>
      </defs>
      <use xlink:href="#DejaVuSans-63"/>
      <use x="54.980469" xlink:href="#DejaVuSans-75"/>
      <use x="118.359375" xlink:href="#DejaVuSans-6d"/>
      <use x="215.771484" xlink:href="#DejaVuSans-75"/>
      <use x="279.150391" xlink:href="#DejaVuSans-6c"/>
      <use x="306.933594" xlink:href="#DejaVuSans-61"/>
      <use x="368.212891" xlink:href="#DejaVuSans-74"/>
      <use x="407.421875" xlink:href="#DejaVuSans-69"/>
      <use x="435.205078" xlink:href="#DejaVuSans-76"/>
      <use x="494.384766" xlink:href="#DejaVuSans-65"/>
      <use x="555.908203" xlink:href="#DejaVuSans-20"/>
      <use x="587.695312" xlink:href="#DejaVuSans-72"/>
      <use x="626.558594" xlink:href="#DejaVuSans-65"/>
      <use x="688.082031" xlink:href="#DejaVuSans-77"/>
      <use x="769.869141" xlink:href="#DejaVuSans-61"/>
      <use x="831.148438" xlink:href="#DejaVuSans-72"/>
      <use x="870.511719" xlink:href="#DejaVuSans-64"/>
     </g>
    </g>
   </g>
  </g>
 </g>
 <defs>
  <clipPath id="p0acb56660c">
   <rect height="266.112" width="357.12" x="57.6" y="41.472"/>
  </clipPath>
 </defs>
</svg>
