<?xml version="1.0" encoding="utf-8" standalone="no"?>
<!DOCTYPE svg PUBLIC "-//W3C//DTD SVG 1.1//EN"
  "http://www.w3.org/Graphics/SVG/1.1/DTD/svg11.dtd">
<svg height="345.6pt" version="1.1" viewBox="0 0 460.8 345.6" width="460.8pt" xmlns="http://www.w3.org/2000/svg" xmlns:xlink="http://www.w3.org/1999/xlink">
 <metadata>
  <rdf:RDF xmlns:cc="http://creativecommons.org/ns#" xmlns:dc="http://purl.org/dc/elements/1.1/" xmlns:rdf="http://www.w3.org/1999/02/22-rdf-syntax-ns#">
   <cc:Work>
    <dc:type rdf:resource="http://purl.org/dc/dcmitype/StillImage"/>
    <dc:date>2021-10-19T09:28:40.419770</dc:date>
    <dc:description>{"agent.algorithm": "RayProximalPolicyOptimization", "agent.algorithm.render_env": false, "agent.algorithm.batch_mode": "complete_episodes", "agent.algorithm.train_batch_size": 200, "agent.algorithm.optimizer": "Adam", "agent.algorithm.vf_clip_param": 500, "agent.algorithm.model": {"fcnet_activation": "tanh", "fcnet_hiddens": [30, 30]}, "env.env_class": "SchedulerPolicyRayEnvironment", "env.env_config": {"solver_driver": "CMAdriver", "solver_driver_args": [10, 10, "sphere"], "maximize": false, "steps": 50, "state_metrics_names": ["DifferenceOfBest", "SolverState"], "state_metrics_config": [[40, false, 1, true, true], [{"step_size": {"max": 3, "min": 1e-10}}]], "reward_metric": "Best", "reward_metric_config": [false, false], "memes_no": 1, "parameter_tune_config": {"step_size": {"max": 3, "min": 1e-10}}}}</dc:description>
    <dc:format>image/svg+xml</dc:format>
    <dc:creator>
     <cc:Agent>
      <dc:title>Matplotlib v3.4.2, https://matplotlib.org/</dc:title>
     </cc:Agent>
    </dc:creator>
   </cc:Work>
  </rdf:RDF>
 </metadata>
 <defs>
  <style type="text/css">*{stroke-linecap:butt;stroke-linejoin:round;}</style>
 </defs>
 <g id="figure_1">
  <g id="patch_1">
   <path d="M 0 345.6 
L 460.8 345.6 
L 460.8 0 
L 0 0 
z
" style="fill:#ffffff;"/>
  </g>
  <g id="axes_1">
   <g id="patch_2">
    <path d="M 57.6 307.584 
L 414.72 307.584 
L 414.72 41.472 
L 57.6 41.472 
z
" style="fill:#ffffff;"/>
   </g>
   <g id="matplotlib.axis_1">
    <g id="xtick_1">
     <g id="line2d_1">
      <path clip-path="url(#pf64c3de5d3)" d="M 57.6 307.584 
L 57.6 41.472 
" style="fill:none;stroke:#b0b0b0;stroke-linecap:square;stroke-width:0.8;"/>
     </g>
     <g id="line2d_2">
      <defs>
       <path d="M 0 0 
L 0 3.5 
" id="m5026b4a73a" style="stroke:#000000;stroke-width:0.8;"/>
      </defs>
      <g>
       <use style="stroke:#000000;stroke-width:0.8;" x="57.6" xlink:href="#m5026b4a73a" y="307.584"/>
      </g>
     </g>
     <g id="text_1">
      <!-- 0 -->
      <g transform="translate(54.41875 322.182437)scale(0.1 -0.1)">
       <defs>
        <path d="M 2034 4250 
Q 1547 4250 1301 3770 
Q 1056 3291 1056 2328 
Q 1056 1369 1301 889 
Q 1547 409 2034 409 
Q 2525 409 2770 889 
Q 3016 1369 3016 2328 
Q 3016 3291 2770 3770 
Q 2525 4250 2034 4250 
z
M 2034 4750 
Q 2819 4750 3233 4129 
Q 3647 3509 3647 2328 
Q 3647 1150 3233 529 
Q 2819 -91 2034 -91 
Q 1250 -91 836 529 
Q 422 1150 422 2328 
Q 422 3509 836 4129 
Q 1250 4750 2034 4750 
z
" id="DejaVuSans-30" transform="scale(0.015625)"/>
       </defs>
       <use xlink:href="#DejaVuSans-30"/>
      </g>
     </g>
    </g>
    <g id="xtick_2">
     <g id="line2d_3">
      <path clip-path="url(#pf64c3de5d3)" d="M 129.024 307.584 
L 129.024 41.472 
" style="fill:none;stroke:#b0b0b0;stroke-linecap:square;stroke-width:0.8;"/>
     </g>
     <g id="line2d_4">
      <g>
       <use style="stroke:#000000;stroke-width:0.8;" x="129.024" xlink:href="#m5026b4a73a" y="307.584"/>
      </g>
     </g>
     <g id="text_2">
      <!-- 200 -->
      <g transform="translate(119.48025 322.182437)scale(0.1 -0.1)">
       <defs>
        <path d="M 1228 531 
L 3431 531 
L 3431 0 
L 469 0 
L 469 531 
Q 828 903 1448 1529 
Q 2069 2156 2228 2338 
Q 2531 2678 2651 2914 
Q 2772 3150 2772 3378 
Q 2772 3750 2511 3984 
Q 2250 4219 1831 4219 
Q 1534 4219 1204 4116 
Q 875 4013 500 3803 
L 500 4441 
Q 881 4594 1212 4672 
Q 1544 4750 1819 4750 
Q 2544 4750 2975 4387 
Q 3406 4025 3406 3419 
Q 3406 3131 3298 2873 
Q 3191 2616 2906 2266 
Q 2828 2175 2409 1742 
Q 1991 1309 1228 531 
z
" id="DejaVuSans-32" transform="scale(0.015625)"/>
       </defs>
       <use xlink:href="#DejaVuSans-32"/>
       <use x="63.623047" xlink:href="#DejaVuSans-30"/>
       <use x="127.246094" xlink:href="#DejaVuSans-30"/>
      </g>
     </g>
    </g>
    <g id="xtick_3">
     <g id="line2d_5">
      <path clip-path="url(#pf64c3de5d3)" d="M 200.448 307.584 
L 200.448 41.472 
" style="fill:none;stroke:#b0b0b0;stroke-linecap:square;stroke-width:0.8;"/>
     </g>
     <g id="line2d_6">
      <g>
       <use style="stroke:#000000;stroke-width:0.8;" x="200.448" xlink:href="#m5026b4a73a" y="307.584"/>
      </g>
     </g>
     <g id="text_3">
      <!-- 400 -->
      <g transform="translate(190.90425 322.182437)scale(0.1 -0.1)">
       <defs>
        <path d="M 2419 4116 
L 825 1625 
L 2419 1625 
L 2419 4116 
z
M 2253 4666 
L 3047 4666 
L 3047 1625 
L 3713 1625 
L 3713 1100 
L 3047 1100 
L 3047 0 
L 2419 0 
L 2419 1100 
L 313 1100 
L 313 1709 
L 2253 4666 
z
" id="DejaVuSans-34" transform="scale(0.015625)"/>
       </defs>
       <use xlink:href="#DejaVuSans-34"/>
       <use x="63.623047" xlink:href="#DejaVuSans-30"/>
       <use x="127.246094" xlink:href="#DejaVuSans-30"/>
      </g>
     </g>
    </g>
    <g id="xtick_4">
     <g id="line2d_7">
      <path clip-path="url(#pf64c3de5d3)" d="M 271.872 307.584 
L 271.872 41.472 
" style="fill:none;stroke:#b0b0b0;stroke-linecap:square;stroke-width:0.8;"/>
     </g>
     <g id="line2d_8">
      <g>
       <use style="stroke:#000000;stroke-width:0.8;" x="271.872" xlink:href="#m5026b4a73a" y="307.584"/>
      </g>
     </g>
     <g id="text_4">
      <!-- 600 -->
      <g transform="translate(262.32825 322.182437)scale(0.1 -0.1)">
       <defs>
        <path d="M 2113 2584 
Q 1688 2584 1439 2293 
Q 1191 2003 1191 1497 
Q 1191 994 1439 701 
Q 1688 409 2113 409 
Q 2538 409 2786 701 
Q 3034 994 3034 1497 
Q 3034 2003 2786 2293 
Q 2538 2584 2113 2584 
z
M 3366 4563 
L 3366 3988 
Q 3128 4100 2886 4159 
Q 2644 4219 2406 4219 
Q 1781 4219 1451 3797 
Q 1122 3375 1075 2522 
Q 1259 2794 1537 2939 
Q 1816 3084 2150 3084 
Q 2853 3084 3261 2657 
Q 3669 2231 3669 1497 
Q 3669 778 3244 343 
Q 2819 -91 2113 -91 
Q 1303 -91 875 529 
Q 447 1150 447 2328 
Q 447 3434 972 4092 
Q 1497 4750 2381 4750 
Q 2619 4750 2861 4703 
Q 3103 4656 3366 4563 
z
" id="DejaVuSans-36" transform="scale(0.015625)"/>
       </defs>
       <use xlink:href="#DejaVuSans-36"/>
       <use x="63.623047" xlink:href="#DejaVuSans-30"/>
       <use x="127.246094" xlink:href="#DejaVuSans-30"/>
      </g>
     </g>
    </g>
    <g id="xtick_5">
     <g id="line2d_9">
      <path clip-path="url(#pf64c3de5d3)" d="M 343.296 307.584 
L 343.296 41.472 
" style="fill:none;stroke:#b0b0b0;stroke-linecap:square;stroke-width:0.8;"/>
     </g>
     <g id="line2d_10">
      <g>
       <use style="stroke:#000000;stroke-width:0.8;" x="343.296" xlink:href="#m5026b4a73a" y="307.584"/>
      </g>
     </g>
     <g id="text_5">
      <!-- 800 -->
      <g transform="translate(333.75225 322.182437)scale(0.1 -0.1)">
       <defs>
        <path d="M 2034 2216 
Q 1584 2216 1326 1975 
Q 1069 1734 1069 1313 
Q 1069 891 1326 650 
Q 1584 409 2034 409 
Q 2484 409 2743 651 
Q 3003 894 3003 1313 
Q 3003 1734 2745 1975 
Q 2488 2216 2034 2216 
z
M 1403 2484 
Q 997 2584 770 2862 
Q 544 3141 544 3541 
Q 544 4100 942 4425 
Q 1341 4750 2034 4750 
Q 2731 4750 3128 4425 
Q 3525 4100 3525 3541 
Q 3525 3141 3298 2862 
Q 3072 2584 2669 2484 
Q 3125 2378 3379 2068 
Q 3634 1759 3634 1313 
Q 3634 634 3220 271 
Q 2806 -91 2034 -91 
Q 1263 -91 848 271 
Q 434 634 434 1313 
Q 434 1759 690 2068 
Q 947 2378 1403 2484 
z
M 1172 3481 
Q 1172 3119 1398 2916 
Q 1625 2713 2034 2713 
Q 2441 2713 2670 2916 
Q 2900 3119 2900 3481 
Q 2900 3844 2670 4047 
Q 2441 4250 2034 4250 
Q 1625 4250 1398 4047 
Q 1172 3844 1172 3481 
z
" id="DejaVuSans-38" transform="scale(0.015625)"/>
       </defs>
       <use xlink:href="#DejaVuSans-38"/>
       <use x="63.623047" xlink:href="#DejaVuSans-30"/>
       <use x="127.246094" xlink:href="#DejaVuSans-30"/>
      </g>
     </g>
    </g>
    <g id="xtick_6">
     <g id="line2d_11">
      <path clip-path="url(#pf64c3de5d3)" d="M 414.72 307.584 
L 414.72 41.472 
" style="fill:none;stroke:#b0b0b0;stroke-linecap:square;stroke-width:0.8;"/>
     </g>
     <g id="line2d_12">
      <g>
       <use style="stroke:#000000;stroke-width:0.8;" x="414.72" xlink:href="#m5026b4a73a" y="307.584"/>
      </g>
     </g>
     <g id="text_6">
      <!-- 1000 -->
      <g transform="translate(401.995 322.182437)scale(0.1 -0.1)">
       <defs>
        <path d="M 794 531 
L 1825 531 
L 1825 4091 
L 703 3866 
L 703 4441 
L 1819 4666 
L 2450 4666 
L 2450 531 
L 3481 531 
L 3481 0 
L 794 0 
L 794 531 
z
" id="DejaVuSans-31" transform="scale(0.015625)"/>
       </defs>
       <use xlink:href="#DejaVuSans-31"/>
       <use x="63.623047" xlink:href="#DejaVuSans-30"/>
       <use x="127.246094" xlink:href="#DejaVuSans-30"/>
       <use x="190.869141" xlink:href="#DejaVuSans-30"/>
      </g>
     </g>
    </g>
    <g id="text_7">
     <!-- Episodes -->
     <g transform="translate(213.917812 335.860562)scale(0.1 -0.1)">
      <defs>
       <path d="M 628 4666 
L 3578 4666 
L 3578 4134 
L 1259 4134 
L 1259 2753 
L 3481 2753 
L 3481 2222 
L 1259 2222 
L 1259 531 
L 3634 531 
L 3634 0 
L 628 0 
L 628 4666 
z
" id="DejaVuSans-45" transform="scale(0.015625)"/>
       <path d="M 1159 525 
L 1159 -1331 
L 581 -1331 
L 581 3500 
L 1159 3500 
L 1159 2969 
Q 1341 3281 1617 3432 
Q 1894 3584 2278 3584 
Q 2916 3584 3314 3078 
Q 3713 2572 3713 1747 
Q 3713 922 3314 415 
Q 2916 -91 2278 -91 
Q 1894 -91 1617 61 
Q 1341 213 1159 525 
z
M 3116 1747 
Q 3116 2381 2855 2742 
Q 2594 3103 2138 3103 
Q 1681 3103 1420 2742 
Q 1159 2381 1159 1747 
Q 1159 1113 1420 752 
Q 1681 391 2138 391 
Q 2594 391 2855 752 
Q 3116 1113 3116 1747 
z
" id="DejaVuSans-70" transform="scale(0.015625)"/>
       <path d="M 603 3500 
L 1178 3500 
L 1178 0 
L 603 0 
L 603 3500 
z
M 603 4863 
L 1178 4863 
L 1178 4134 
L 603 4134 
L 603 4863 
z
" id="DejaVuSans-69" transform="scale(0.015625)"/>
       <path d="M 2834 3397 
L 2834 2853 
Q 2591 2978 2328 3040 
Q 2066 3103 1784 3103 
Q 1356 3103 1142 2972 
Q 928 2841 928 2578 
Q 928 2378 1081 2264 
Q 1234 2150 1697 2047 
L 1894 2003 
Q 2506 1872 2764 1633 
Q 3022 1394 3022 966 
Q 3022 478 2636 193 
Q 2250 -91 1575 -91 
Q 1294 -91 989 -36 
Q 684 19 347 128 
L 347 722 
Q 666 556 975 473 
Q 1284 391 1588 391 
Q 1994 391 2212 530 
Q 2431 669 2431 922 
Q 2431 1156 2273 1281 
Q 2116 1406 1581 1522 
L 1381 1569 
Q 847 1681 609 1914 
Q 372 2147 372 2553 
Q 372 3047 722 3315 
Q 1072 3584 1716 3584 
Q 2034 3584 2315 3537 
Q 2597 3491 2834 3397 
z
" id="DejaVuSans-73" transform="scale(0.015625)"/>
       <path d="M 1959 3097 
Q 1497 3097 1228 2736 
Q 959 2375 959 1747 
Q 959 1119 1226 758 
Q 1494 397 1959 397 
Q 2419 397 2687 759 
Q 2956 1122 2956 1747 
Q 2956 2369 2687 2733 
Q 2419 3097 1959 3097 
z
M 1959 3584 
Q 2709 3584 3137 3096 
Q 3566 2609 3566 1747 
Q 3566 888 3137 398 
Q 2709 -91 1959 -91 
Q 1206 -91 779 398 
Q 353 888 353 1747 
Q 353 2609 779 3096 
Q 1206 3584 1959 3584 
z
" id="DejaVuSans-6f" transform="scale(0.015625)"/>
       <path d="M 2906 2969 
L 2906 4863 
L 3481 4863 
L 3481 0 
L 2906 0 
L 2906 525 
Q 2725 213 2448 61 
Q 2172 -91 1784 -91 
Q 1150 -91 751 415 
Q 353 922 353 1747 
Q 353 2572 751 3078 
Q 1150 3584 1784 3584 
Q 2172 3584 2448 3432 
Q 2725 3281 2906 2969 
z
M 947 1747 
Q 947 1113 1208 752 
Q 1469 391 1925 391 
Q 2381 391 2643 752 
Q 2906 1113 2906 1747 
Q 2906 2381 2643 2742 
Q 2381 3103 1925 3103 
Q 1469 3103 1208 2742 
Q 947 2381 947 1747 
z
" id="DejaVuSans-64" transform="scale(0.015625)"/>
       <path d="M 3597 1894 
L 3597 1613 
L 953 1613 
Q 991 1019 1311 708 
Q 1631 397 2203 397 
Q 2534 397 2845 478 
Q 3156 559 3463 722 
L 3463 178 
Q 3153 47 2828 -22 
Q 2503 -91 2169 -91 
Q 1331 -91 842 396 
Q 353 884 353 1716 
Q 353 2575 817 3079 
Q 1281 3584 2069 3584 
Q 2775 3584 3186 3129 
Q 3597 2675 3597 1894 
z
M 3022 2063 
Q 3016 2534 2758 2815 
Q 2500 3097 2075 3097 
Q 1594 3097 1305 2825 
Q 1016 2553 972 2059 
L 3022 2063 
z
" id="DejaVuSans-65" transform="scale(0.015625)"/>
      </defs>
      <use xlink:href="#DejaVuSans-45"/>
      <use x="63.183594" xlink:href="#DejaVuSans-70"/>
      <use x="126.660156" xlink:href="#DejaVuSans-69"/>
      <use x="154.443359" xlink:href="#DejaVuSans-73"/>
      <use x="206.542969" xlink:href="#DejaVuSans-6f"/>
      <use x="267.724609" xlink:href="#DejaVuSans-64"/>
      <use x="331.201172" xlink:href="#DejaVuSans-65"/>
      <use x="392.724609" xlink:href="#DejaVuSans-73"/>
     </g>
    </g>
   </g>
   <g id="matplotlib.axis_2">
    <g id="ytick_1">
     <g id="line2d_13">
      <path clip-path="url(#pf64c3de5d3)" d="M 57.6 296.824029 
L 414.72 296.824029 
" style="fill:none;stroke:#b0b0b0;stroke-linecap:square;stroke-width:0.8;"/>
     </g>
     <g id="line2d_14">
      <defs>
       <path d="M 0 0 
L -3.5 0 
" id="m45968bd834" style="stroke:#000000;stroke-width:0.8;"/>
      </defs>
      <g>
       <use style="stroke:#000000;stroke-width:0.8;" x="57.6" xlink:href="#m45968bd834" y="296.824029"/>
      </g>
     </g>
     <g id="text_8">
      <!-- −2000 -->
      <g transform="translate(16.770313 300.623248)scale(0.1 -0.1)">
       <defs>
        <path d="M 678 2272 
L 4684 2272 
L 4684 1741 
L 678 1741 
L 678 2272 
z
" id="DejaVuSans-2212" transform="scale(0.015625)"/>
       </defs>
       <use xlink:href="#DejaVuSans-2212"/>
       <use x="83.789062" xlink:href="#DejaVuSans-32"/>
       <use x="147.412109" xlink:href="#DejaVuSans-30"/>
       <use x="211.035156" xlink:href="#DejaVuSans-30"/>
       <use x="274.658203" xlink:href="#DejaVuSans-30"/>
      </g>
     </g>
    </g>
    <g id="ytick_2">
     <g id="line2d_15">
      <path clip-path="url(#pf64c3de5d3)" d="M 57.6 266.599037 
L 414.72 266.599037 
" style="fill:none;stroke:#b0b0b0;stroke-linecap:square;stroke-width:0.8;"/>
     </g>
     <g id="line2d_16">
      <g>
       <use style="stroke:#000000;stroke-width:0.8;" x="57.6" xlink:href="#m45968bd834" y="266.599037"/>
      </g>
     </g>
     <g id="text_9">
      <!-- −1750 -->
      <g transform="translate(16.770313 270.398256)scale(0.1 -0.1)">
       <defs>
        <path d="M 525 4666 
L 3525 4666 
L 3525 4397 
L 1831 0 
L 1172 0 
L 2766 4134 
L 525 4134 
L 525 4666 
z
" id="DejaVuSans-37" transform="scale(0.015625)"/>
        <path d="M 691 4666 
L 3169 4666 
L 3169 4134 
L 1269 4134 
L 1269 2991 
Q 1406 3038 1543 3061 
Q 1681 3084 1819 3084 
Q 2600 3084 3056 2656 
Q 3513 2228 3513 1497 
Q 3513 744 3044 326 
Q 2575 -91 1722 -91 
Q 1428 -91 1123 -41 
Q 819 9 494 109 
L 494 744 
Q 775 591 1075 516 
Q 1375 441 1709 441 
Q 2250 441 2565 725 
Q 2881 1009 2881 1497 
Q 2881 1984 2565 2268 
Q 2250 2553 1709 2553 
Q 1456 2553 1204 2497 
Q 953 2441 691 2322 
L 691 4666 
z
" id="DejaVuSans-35" transform="scale(0.015625)"/>
       </defs>
       <use xlink:href="#DejaVuSans-2212"/>
       <use x="83.789062" xlink:href="#DejaVuSans-31"/>
       <use x="147.412109" xlink:href="#DejaVuSans-37"/>
       <use x="211.035156" xlink:href="#DejaVuSans-35"/>
       <use x="274.658203" xlink:href="#DejaVuSans-30"/>
      </g>
     </g>
    </g>
    <g id="ytick_3">
     <g id="line2d_17">
      <path clip-path="url(#pf64c3de5d3)" d="M 57.6 236.374045 
L 414.72 236.374045 
" style="fill:none;stroke:#b0b0b0;stroke-linecap:square;stroke-width:0.8;"/>
     </g>
     <g id="line2d_18">
      <g>
       <use style="stroke:#000000;stroke-width:0.8;" x="57.6" xlink:href="#m45968bd834" y="236.374045"/>
      </g>
     </g>
     <g id="text_10">
      <!-- −1500 -->
      <g transform="translate(16.770313 240.173264)scale(0.1 -0.1)">
       <use xlink:href="#DejaVuSans-2212"/>
       <use x="83.789062" xlink:href="#DejaVuSans-31"/>
       <use x="147.412109" xlink:href="#DejaVuSans-35"/>
       <use x="211.035156" xlink:href="#DejaVuSans-30"/>
       <use x="274.658203" xlink:href="#DejaVuSans-30"/>
      </g>
     </g>
    </g>
    <g id="ytick_4">
     <g id="line2d_19">
      <path clip-path="url(#pf64c3de5d3)" d="M 57.6 206.149053 
L 414.72 206.149053 
" style="fill:none;stroke:#b0b0b0;stroke-linecap:square;stroke-width:0.8;"/>
     </g>
     <g id="line2d_20">
      <g>
       <use style="stroke:#000000;stroke-width:0.8;" x="57.6" xlink:href="#m45968bd834" y="206.149053"/>
      </g>
     </g>
     <g id="text_11">
      <!-- −1250 -->
      <g transform="translate(16.770313 209.948271)scale(0.1 -0.1)">
       <use xlink:href="#DejaVuSans-2212"/>
       <use x="83.789062" xlink:href="#DejaVuSans-31"/>
       <use x="147.412109" xlink:href="#DejaVuSans-32"/>
       <use x="211.035156" xlink:href="#DejaVuSans-35"/>
       <use x="274.658203" xlink:href="#DejaVuSans-30"/>
      </g>
     </g>
    </g>
    <g id="ytick_5">
     <g id="line2d_21">
      <path clip-path="url(#pf64c3de5d3)" d="M 57.6 175.92406 
L 414.72 175.92406 
" style="fill:none;stroke:#b0b0b0;stroke-linecap:square;stroke-width:0.8;"/>
     </g>
     <g id="line2d_22">
      <g>
       <use style="stroke:#000000;stroke-width:0.8;" x="57.6" xlink:href="#m45968bd834" y="175.92406"/>
      </g>
     </g>
     <g id="text_12">
      <!-- −1000 -->
      <g transform="translate(16.770313 179.723279)scale(0.1 -0.1)">
       <use xlink:href="#DejaVuSans-2212"/>
       <use x="83.789062" xlink:href="#DejaVuSans-31"/>
       <use x="147.412109" xlink:href="#DejaVuSans-30"/>
       <use x="211.035156" xlink:href="#DejaVuSans-30"/>
       <use x="274.658203" xlink:href="#DejaVuSans-30"/>
      </g>
     </g>
    </g>
    <g id="ytick_6">
     <g id="line2d_23">
      <path clip-path="url(#pf64c3de5d3)" d="M 57.6 145.699068 
L 414.72 145.699068 
" style="fill:none;stroke:#b0b0b0;stroke-linecap:square;stroke-width:0.8;"/>
     </g>
     <g id="line2d_24">
      <g>
       <use style="stroke:#000000;stroke-width:0.8;" x="57.6" xlink:href="#m45968bd834" y="145.699068"/>
      </g>
     </g>
     <g id="text_13">
      <!-- −750 -->
      <g transform="translate(23.132812 149.498287)scale(0.1 -0.1)">
       <use xlink:href="#DejaVuSans-2212"/>
       <use x="83.789062" xlink:href="#DejaVuSans-37"/>
       <use x="147.412109" xlink:href="#DejaVuSans-35"/>
       <use x="211.035156" xlink:href="#DejaVuSans-30"/>
      </g>
     </g>
    </g>
    <g id="ytick_7">
     <g id="line2d_25">
      <path clip-path="url(#pf64c3de5d3)" d="M 57.6 115.474076 
L 414.72 115.474076 
" style="fill:none;stroke:#b0b0b0;stroke-linecap:square;stroke-width:0.8;"/>
     </g>
     <g id="line2d_26">
      <g>
       <use style="stroke:#000000;stroke-width:0.8;" x="57.6" xlink:href="#m45968bd834" y="115.474076"/>
      </g>
     </g>
     <g id="text_14">
      <!-- −500 -->
      <g transform="translate(23.132812 119.273295)scale(0.1 -0.1)">
       <use xlink:href="#DejaVuSans-2212"/>
       <use x="83.789062" xlink:href="#DejaVuSans-35"/>
       <use x="147.412109" xlink:href="#DejaVuSans-30"/>
       <use x="211.035156" xlink:href="#DejaVuSans-30"/>
      </g>
     </g>
    </g>
    <g id="ytick_8">
     <g id="line2d_27">
      <path clip-path="url(#pf64c3de5d3)" d="M 57.6 85.249083 
L 414.72 85.249083 
" style="fill:none;stroke:#b0b0b0;stroke-linecap:square;stroke-width:0.8;"/>
     </g>
     <g id="line2d_28">
      <g>
       <use style="stroke:#000000;stroke-width:0.8;" x="57.6" xlink:href="#m45968bd834" y="85.249083"/>
      </g>
     </g>
     <g id="text_15">
      <!-- −250 -->
      <g transform="translate(23.132812 89.048302)scale(0.1 -0.1)">
       <use xlink:href="#DejaVuSans-2212"/>
       <use x="83.789062" xlink:href="#DejaVuSans-32"/>
       <use x="147.412109" xlink:href="#DejaVuSans-35"/>
       <use x="211.035156" xlink:href="#DejaVuSans-30"/>
      </g>
     </g>
    </g>
    <g id="ytick_9">
     <g id="line2d_29">
      <path clip-path="url(#pf64c3de5d3)" d="M 57.6 55.024091 
L 414.72 55.024091 
" style="fill:none;stroke:#b0b0b0;stroke-linecap:square;stroke-width:0.8;"/>
     </g>
     <g id="line2d_30">
      <g>
       <use style="stroke:#000000;stroke-width:0.8;" x="57.6" xlink:href="#m45968bd834" y="55.024091"/>
      </g>
     </g>
     <g id="text_16">
      <!-- 0 -->
      <g transform="translate(44.2375 58.82331)scale(0.1 -0.1)">
       <use xlink:href="#DejaVuSans-30"/>
      </g>
     </g>
    </g>
    <g id="text_17">
     <!-- Cumulative Reward -->
     <g transform="translate(10.690625 223.275656)rotate(-90)scale(0.1 -0.1)">
      <defs>
       <path d="M 4122 4306 
L 4122 3641 
Q 3803 3938 3442 4084 
Q 3081 4231 2675 4231 
Q 1875 4231 1450 3742 
Q 1025 3253 1025 2328 
Q 1025 1406 1450 917 
Q 1875 428 2675 428 
Q 3081 428 3442 575 
Q 3803 722 4122 1019 
L 4122 359 
Q 3791 134 3420 21 
Q 3050 -91 2638 -91 
Q 1578 -91 968 557 
Q 359 1206 359 2328 
Q 359 3453 968 4101 
Q 1578 4750 2638 4750 
Q 3056 4750 3426 4639 
Q 3797 4528 4122 4306 
z
" id="DejaVuSans-43" transform="scale(0.015625)"/>
       <path d="M 544 1381 
L 544 3500 
L 1119 3500 
L 1119 1403 
Q 1119 906 1312 657 
Q 1506 409 1894 409 
Q 2359 409 2629 706 
Q 2900 1003 2900 1516 
L 2900 3500 
L 3475 3500 
L 3475 0 
L 2900 0 
L 2900 538 
Q 2691 219 2414 64 
Q 2138 -91 1772 -91 
Q 1169 -91 856 284 
Q 544 659 544 1381 
z
M 1991 3584 
L 1991 3584 
z
" id="DejaVuSans-75" transform="scale(0.015625)"/>
       <path d="M 3328 2828 
Q 3544 3216 3844 3400 
Q 4144 3584 4550 3584 
Q 5097 3584 5394 3201 
Q 5691 2819 5691 2113 
L 5691 0 
L 5113 0 
L 5113 2094 
Q 5113 2597 4934 2840 
Q 4756 3084 4391 3084 
Q 3944 3084 3684 2787 
Q 3425 2491 3425 1978 
L 3425 0 
L 2847 0 
L 2847 2094 
Q 2847 2600 2669 2842 
Q 2491 3084 2119 3084 
Q 1678 3084 1418 2786 
Q 1159 2488 1159 1978 
L 1159 0 
L 581 0 
L 581 3500 
L 1159 3500 
L 1159 2956 
Q 1356 3278 1631 3431 
Q 1906 3584 2284 3584 
Q 2666 3584 2933 3390 
Q 3200 3197 3328 2828 
z
" id="DejaVuSans-6d" transform="scale(0.015625)"/>
       <path d="M 603 4863 
L 1178 4863 
L 1178 0 
L 603 0 
L 603 4863 
z
" id="DejaVuSans-6c" transform="scale(0.015625)"/>
       <path d="M 2194 1759 
Q 1497 1759 1228 1600 
Q 959 1441 959 1056 
Q 959 750 1161 570 
Q 1363 391 1709 391 
Q 2188 391 2477 730 
Q 2766 1069 2766 1631 
L 2766 1759 
L 2194 1759 
z
M 3341 1997 
L 3341 0 
L 2766 0 
L 2766 531 
Q 2569 213 2275 61 
Q 1981 -91 1556 -91 
Q 1019 -91 701 211 
Q 384 513 384 1019 
Q 384 1609 779 1909 
Q 1175 2209 1959 2209 
L 2766 2209 
L 2766 2266 
Q 2766 2663 2505 2880 
Q 2244 3097 1772 3097 
Q 1472 3097 1187 3025 
Q 903 2953 641 2809 
L 641 3341 
Q 956 3463 1253 3523 
Q 1550 3584 1831 3584 
Q 2591 3584 2966 3190 
Q 3341 2797 3341 1997 
z
" id="DejaVuSans-61" transform="scale(0.015625)"/>
       <path d="M 1172 4494 
L 1172 3500 
L 2356 3500 
L 2356 3053 
L 1172 3053 
L 1172 1153 
Q 1172 725 1289 603 
Q 1406 481 1766 481 
L 2356 481 
L 2356 0 
L 1766 0 
Q 1100 0 847 248 
Q 594 497 594 1153 
L 594 3053 
L 172 3053 
L 172 3500 
L 594 3500 
L 594 4494 
L 1172 4494 
z
" id="DejaVuSans-74" transform="scale(0.015625)"/>
       <path d="M 191 3500 
L 800 3500 
L 1894 563 
L 2988 3500 
L 3597 3500 
L 2284 0 
L 1503 0 
L 191 3500 
z
" id="DejaVuSans-76" transform="scale(0.015625)"/>
       <path id="DejaVuSans-20" transform="scale(0.015625)"/>
       <path d="M 2841 2188 
Q 3044 2119 3236 1894 
Q 3428 1669 3622 1275 
L 4263 0 
L 3584 0 
L 2988 1197 
Q 2756 1666 2539 1819 
Q 2322 1972 1947 1972 
L 1259 1972 
L 1259 0 
L 628 0 
L 628 4666 
L 2053 4666 
Q 2853 4666 3247 4331 
Q 3641 3997 3641 3322 
Q 3641 2881 3436 2590 
Q 3231 2300 2841 2188 
z
M 1259 4147 
L 1259 2491 
L 2053 2491 
Q 2509 2491 2742 2702 
Q 2975 2913 2975 3322 
Q 2975 3731 2742 3939 
Q 2509 4147 2053 4147 
L 1259 4147 
z
" id="DejaVuSans-52" transform="scale(0.015625)"/>
       <path d="M 269 3500 
L 844 3500 
L 1563 769 
L 2278 3500 
L 2956 3500 
L 3675 769 
L 4391 3500 
L 4966 3500 
L 4050 0 
L 3372 0 
L 2619 2869 
L 1863 0 
L 1184 0 
L 269 3500 
z
" id="DejaVuSans-77" transform="scale(0.015625)"/>
       <path d="M 2631 2963 
Q 2534 3019 2420 3045 
Q 2306 3072 2169 3072 
Q 1681 3072 1420 2755 
Q 1159 2438 1159 1844 
L 1159 0 
L 581 0 
L 581 3500 
L 1159 3500 
L 1159 2956 
Q 1341 3275 1631 3429 
Q 1922 3584 2338 3584 
Q 2397 3584 2469 3576 
Q 2541 3569 2628 3553 
L 2631 2963 
z
" id="DejaVuSans-72" transform="scale(0.015625)"/>
      </defs>
      <use xlink:href="#DejaVuSans-43"/>
      <use x="69.824219" xlink:href="#DejaVuSans-75"/>
      <use x="133.203125" xlink:href="#DejaVuSans-6d"/>
      <use x="230.615234" xlink:href="#DejaVuSans-75"/>
      <use x="293.994141" xlink:href="#DejaVuSans-6c"/>
      <use x="321.777344" xlink:href="#DejaVuSans-61"/>
      <use x="383.056641" xlink:href="#DejaVuSans-74"/>
      <use x="422.265625" xlink:href="#DejaVuSans-69"/>
      <use x="450.048828" xlink:href="#DejaVuSans-76"/>
      <use x="509.228516" xlink:href="#DejaVuSans-65"/>
      <use x="570.751953" xlink:href="#DejaVuSans-20"/>
      <use x="602.539062" xlink:href="#DejaVuSans-52"/>
      <use x="667.521484" xlink:href="#DejaVuSans-65"/>
      <use x="729.044922" xlink:href="#DejaVuSans-77"/>
      <use x="810.832031" xlink:href="#DejaVuSans-61"/>
      <use x="872.111328" xlink:href="#DejaVuSans-72"/>
      <use x="911.474609" xlink:href="#DejaVuSans-64"/>
     </g>
    </g>
   </g>
   <g id="line2d_31">
    <path clip-path="url(#pf64c3de5d3)" d="M 57.6 269.649201 
L 57.95712 218.858052 
L 58.31424 185.10686 
L 58.67136 193.967169 
L 59.02848 269.649201 
L 59.3856 218.858052 
L 59.74272 185.10686 
L 60.09984 193.967169 
L 60.45696 269.649201 
L 60.81408 218.858052 
L 61.1712 185.10686 
L 61.52832 193.967169 
L 61.88544 269.649201 
L 62.24256 218.858052 
L 62.59968 185.10686 
L 62.9568 193.967169 
L 63.31392 269.649201 
L 63.67104 218.858052 
L 64.02816 185.10686 
L 64.38528 193.967169 
L 64.7424 269.649201 
L 65.09952 218.858052 
L 65.45664 185.10686 
L 65.81376 193.967169 
L 66.17088 269.649201 
L 66.528 218.858052 
L 66.88512 185.10686 
L 67.24224 193.967169 
L 67.59936 269.649201 
L 67.95648 218.858052 
L 68.3136 185.10686 
L 68.67072 193.967169 
L 69.02784 269.649201 
L 69.38496 218.858052 
L 69.74208 185.10686 
L 70.0992 193.967169 
L 70.45632 269.649201 
L 70.81344 218.858052 
L 71.17056 185.10686 
L 71.52768 193.967169 
L 71.8848 269.649201 
L 72.24192 218.858052 
L 72.59904 185.10686 
L 72.95616 193.967169 
L 73.31328 269.649201 
L 73.6704 218.858052 
L 74.02752 185.10686 
L 74.38464 193.967169 
L 74.74176 269.649201 
L 75.09888 218.858052 
L 75.456 185.10686 
L 75.81312 193.967169 
L 76.17024 269.649201 
L 76.52736 218.858052 
L 76.88448 185.10686 
L 77.2416 193.967169 
L 77.59872 269.649201 
L 77.95584 218.858052 
L 78.31296 185.10686 
L 78.67008 193.967169 
L 79.0272 269.649201 
L 79.38432 218.858052 
L 79.74144 185.10686 
L 80.09856 193.967169 
L 80.45568 269.649201 
L 80.8128 218.858052 
L 81.16992 185.10686 
L 81.52704 193.967169 
L 81.88416 269.649201 
L 82.24128 218.858052 
L 82.5984 185.10686 
L 82.95552 193.967169 
L 83.31264 269.649201 
L 83.66976 218.858052 
L 84.02688 185.10686 
L 84.384 193.967169 
L 84.74112 269.649201 
L 85.09824 218.858052 
L 85.45536 185.10686 
L 85.81248 193.967169 
L 86.1696 269.649201 
L 86.52672 218.858052 
L 86.88384 185.10686 
L 87.24096 193.967169 
L 87.59808 269.649201 
L 87.9552 218.858052 
L 88.31232 185.10686 
L 88.66944 193.967169 
L 89.02656 269.649201 
L 89.38368 218.858052 
L 89.7408 185.10686 
L 90.09792 193.967169 
L 90.45504 269.649201 
L 90.81216 218.858052 
L 91.16928 185.10686 
L 91.5264 193.967169 
L 91.88352 269.649201 
L 92.24064 218.858052 
L 92.59776 185.10686 
L 92.95488 193.967169 
L 93.312 193.442207 
L 93.66912 205.49528 
L 94.02624 198.952453 
L 94.38336 187.429044 
L 94.74048 220.683124 
L 95.0976 189.093842 
L 95.45472 268.054834 
L 96.16896 215.136806 
L 96.52608 259.442125 
L 96.8832 211.507665 
L 97.59744 175.592267 
L 98.31168 196.951908 
L 98.6688 237.628076 
L 99.02592 170.873087 
L 99.38304 205.637916 
L 99.74016 188.546959 
L 100.09728 178.956902 
L 100.4544 212.213964 
L 100.81152 201.710881 
L 101.16864 173.633373 
L 101.52576 200.626989 
L 101.88288 206.744888 
L 102.24 192.293532 
L 102.59712 207.124307 
L 102.95424 251.943399 
L 103.31136 190.354118 
L 103.66848 211.099552 
L 104.0256 214.710047 
L 104.38272 242.049206 
L 104.73984 180.473709 
L 105.09696 224.155204 
L 105.45408 285.408 
L 105.8112 264.837224 
L 106.16832 252.848648 
L 106.52544 223.95181 
L 106.88256 173.73036 
L 107.23968 258.322847 
L 107.5968 266.090204 
L 107.95392 229.897776 
L 108.31104 181.864911 
L 108.66816 195.142955 
L 109.02528 173.30458 
L 109.3824 222.055601 
L 109.73952 203.555693 
L 110.09664 229.360424 
L 110.45376 241.852043 
L 110.81088 170.547784 
L 111.168 170.278557 
L 111.88224 215.218629 
L 112.23936 207.559164 
L 112.59648 224.39164 
L 112.9536 186.535628 
L 113.31072 240.224486 
L 113.66784 252.939111 
L 114.02496 225.925028 
L 114.38208 190.103814 
L 114.7392 201.923708 
L 115.09632 168.650601 
L 115.45344 244.212435 
L 115.81056 186.067684 
L 116.16768 172.887529 
L 116.5248 181.381207 
L 116.88192 182.461013 
L 117.23904 191.394695 
L 117.59616 279.267112 
L 118.3104 169.888825 
L 118.66752 195.334546 
L 119.02464 193.600758 
L 119.38176 147.318456 
L 119.73888 221.800579 
L 120.096 176.66719 
L 120.45312 168.489157 
L 120.81024 209.960608 
L 121.16736 151.68135 
L 121.52448 157.433291 
L 121.8816 239.767696 
L 122.23872 179.437039 
L 122.59584 244.27825 
L 123.31008 209.661083 
L 123.6672 235.096734 
L 124.02432 178.150526 
L 124.38144 187.670138 
L 124.73856 172.785456 
L 125.09568 236.653529 
L 125.4528 185.100457 
L 125.80992 197.043174 
L 126.16704 181.290857 
L 126.52416 242.593975 
L 126.88128 197.568568 
L 127.2384 189.6599 
L 127.59552 155.7266 
L 127.95264 163.461769 
L 128.30976 141.96798 
L 128.66688 194.898137 
L 129.024 221.028214 
L 129.73824 156.192955 
L 130.09536 173.953418 
L 130.45248 184.089946 
L 130.8096 198.140308 
L 131.16672 188.235424 
L 131.52384 163.82401 
L 131.88096 167.161213 
L 132.23808 202.294516 
L 132.5952 163.939177 
L 132.95232 179.299052 
L 133.66656 154.20632 
L 134.02368 179.218411 
L 134.3808 194.286167 
L 134.73792 203.693555 
L 135.09504 206.322693 
L 135.45216 175.408153 
L 135.80928 131.269351 
L 136.52352 218.894443 
L 136.88064 190.30901 
L 137.23776 131.941208 
L 137.59488 154.079779 
L 137.952 163.594159 
L 138.30912 148.640089 
L 139.02336 195.011685 
L 139.38048 152.682431 
L 139.7376 171.0552 
L 140.09472 138.485672 
L 140.45184 151.58409 
L 140.80896 137.365946 
L 141.16608 156.507625 
L 141.5232 160.128017 
L 141.88032 140.610255 
L 142.23744 148.843386 
L 142.59456 110.045086 
L 142.95168 168.976504 
L 143.3088 127.465421 
L 143.66592 148.601201 
L 144.02304 138.102167 
L 144.38016 140.924786 
L 144.73728 150.573324 
L 145.0944 117.735719 
L 145.45152 125.92929 
L 145.80864 147.62049 
L 146.16576 132.377783 
L 146.52288 103.129582 
L 146.88 135.905251 
L 147.23712 111.736228 
L 147.59424 114.668753 
L 147.95136 128.102467 
L 148.30848 147.461761 
L 148.6656 86.854621 
L 149.02272 202.997799 
L 149.37984 112.681138 
L 149.73696 118.851626 
L 150.09408 137.987861 
L 150.4512 105.415643 
L 150.80832 105.431223 
L 151.16544 102.275815 
L 151.52256 143.565213 
L 152.2368 89.770392 
L 152.59392 147.138648 
L 152.95104 127.282674 
L 153.30816 156.055783 
L 154.0224 112.710418 
L 154.37952 98.246585 
L 154.73664 122.037669 
L 155.09376 166.706776 
L 155.45088 90.404946 
L 155.808 130.982489 
L 156.16512 134.155342 
L 156.52224 157.387765 
L 156.87936 113.226172 
L 157.23648 110.090329 
L 157.5936 94.909213 
L 157.95072 142.041036 
L 158.30784 119.373016 
L 158.66496 119.233516 
L 159.02208 104.692981 
L 159.3792 124.155936 
L 159.73632 107.218925 
L 160.09344 111.53574 
L 160.45056 130.92572 
L 160.80768 96.438124 
L 161.1648 149.289961 
L 161.52192 110.518891 
L 161.87904 165.332111 
L 162.23616 114.790678 
L 162.59328 160.81537 
L 162.9504 110.407517 
L 163.30752 110.980519 
L 163.66464 129.9176 
L 164.02176 101.381324 
L 164.37888 119.502069 
L 164.736 118.370458 
L 165.09312 129.426747 
L 165.45024 128.781704 
L 165.80736 138.656645 
L 166.16448 131.395804 
L 166.5216 95.372221 
L 166.87872 129.114165 
L 167.23584 114.684093 
L 167.59296 133.249646 
L 167.95008 133.282792 
L 168.3072 100.380187 
L 168.66432 187.322183 
L 169.02144 89.340508 
L 169.37856 111.314383 
L 169.73568 103.472384 
L 170.0928 130.058397 
L 170.44992 129.214463 
L 170.80704 234.571906 
L 171.16416 186.291898 
L 171.52128 189.116499 
L 171.8784 107.379684 
L 172.59264 173.669417 
L 172.94976 204.331545 
L 173.30688 133.666611 
L 173.664 187.223439 
L 174.02112 157.886393 
L 174.37824 170.462376 
L 174.73536 201.208217 
L 175.09248 120.032799 
L 175.4496 103.14856 
L 175.80672 129.483365 
L 176.16384 119.076806 
L 176.52096 80.827537 
L 176.87808 146.705053 
L 177.2352 81.507809 
L 177.59232 148.177036 
L 177.94944 109.487782 
L 178.30656 210.92304 
L 178.66368 116.385931 
L 179.0208 113.410649 
L 179.37792 121.655364 
L 179.73504 119.117086 
L 180.09216 99.400101 
L 180.44928 111.40228 
L 180.8064 101.290027 
L 181.16352 98.832997 
L 181.52064 133.665137 
L 181.87776 137.059678 
L 182.23488 151.981408 
L 182.592 105.587396 
L 182.94912 122.199918 
L 183.30624 114.515687 
L 183.66336 111.844736 
L 184.3776 130.44108 
L 184.73472 104.419797 
L 185.09184 117.649703 
L 185.44896 91.581553 
L 185.80608 127.669983 
L 186.1632 114.431794 
L 186.52032 143.384408 
L 186.87744 86.386807 
L 187.23456 115.46109 
L 187.59168 104.097382 
L 187.9488 127.906195 
L 188.30592 197.804036 
L 188.66304 144.172439 
L 189.37728 101.13553 
L 189.7344 169.775715 
L 190.09152 121.752317 
L 190.44864 102.680779 
L 190.80576 148.166403 
L 191.52 95.877527 
L 191.87712 116.220737 
L 192.23424 104.015526 
L 192.59136 99.59622 
L 192.94848 150.802485 
L 193.3056 83.02504 
L 193.66272 137.987895 
L 194.01984 102.417602 
L 194.37696 111.54385 
L 194.73408 95.759243 
L 195.0912 90.478083 
L 195.44832 111.351704 
L 195.80544 101.779103 
L 196.16256 121.417489 
L 196.51968 111.452677 
L 196.8768 150.436525 
L 197.23392 111.956909 
L 197.59104 136.279056 
L 197.94816 106.553118 
L 198.30528 117.582335 
L 198.6624 103.503403 
L 199.01952 84.858068 
L 199.37664 105.676181 
L 199.73376 84.749318 
L 200.09088 88.843459 
L 200.448 104.567996 
L 200.80512 97.406753 
L 201.16224 129.58898 
L 201.51936 114.650375 
L 201.87648 127.983565 
L 202.2336 130.6301 
L 202.59072 148.239076 
L 202.94784 88.252194 
L 203.30496 133.371046 
L 203.66208 127.851103 
L 204.0192 157.592591 
L 204.37632 108.808568 
L 204.73344 115.943683 
L 205.09056 134.442316 
L 205.44768 132.276974 
L 205.8048 140.504476 
L 206.16192 110.813898 
L 206.51904 115.401429 
L 206.87616 96.569363 
L 207.23328 98.409117 
L 207.5904 135.419209 
L 207.94752 123.963459 
L 208.30464 137.443341 
L 208.66176 145.291166 
L 209.01888 117.722836 
L 209.376 107.098624 
L 209.73312 104.440104 
L 210.09024 112.457455 
L 210.44736 124.531282 
L 210.80448 127.251634 
L 211.1616 122.047415 
L 211.87584 133.611809 
L 212.23296 122.516591 
L 212.59008 160.157368 
L 212.9472 102.700132 
L 213.30432 121.312639 
L 213.66144 116.235429 
L 214.01856 142.514146 
L 214.37568 142.866151 
L 214.7328 101.174164 
L 215.08992 97.849717 
L 215.44704 120.772282 
L 215.80416 112.317111 
L 216.16128 107.025312 
L 216.5184 122.324244 
L 216.87552 112.990203 
L 217.23264 113.050427 
L 217.58976 106.101957 
L 217.94688 128.55541 
L 218.304 119.219794 
L 218.66112 128.54905 
L 219.01824 131.556463 
L 219.37536 99.646347 
L 219.73248 186.53872 
L 220.0896 104.704905 
L 220.44672 141.784583 
L 220.80384 112.566214 
L 221.16096 125.848663 
L 221.51808 123.647959 
L 221.8752 104.778906 
L 222.23232 106.520516 
L 222.58944 105.275935 
L 222.94656 120.149044 
L 223.6608 99.953364 
L 224.01792 125.541497 
L 224.37504 126.957638 
L 224.73216 125.004096 
L 225.08928 146.724123 
L 225.4464 144.977974 
L 225.80352 127.900841 
L 226.16064 101.710667 
L 226.51776 135.336991 
L 226.87488 122.746569 
L 227.232 93.26766 
L 227.58912 145.946213 
L 227.94624 103.534156 
L 228.30336 164.200983 
L 228.66048 113.032668 
L 229.0176 106.875786 
L 229.37472 111.728973 
L 229.73184 110.480993 
L 230.08896 125.294457 
L 230.44608 102.103053 
L 230.8032 111.326962 
L 231.16032 99.341548 
L 231.51744 103.022421 
L 231.87456 113.597238 
L 232.23168 129.927847 
L 232.5888 122.696098 
L 232.94592 97.008682 
L 233.30304 135.333249 
L 233.66016 118.315826 
L 234.01728 120.952034 
L 234.3744 105.843595 
L 234.73152 140.723236 
L 235.08864 104.549057 
L 235.44576 125.106595 
L 235.80288 97.827198 
L 236.16 123.352693 
L 236.51712 103.827495 
L 236.87424 100.444939 
L 237.23136 94.16506 
L 237.58848 94.823306 
L 237.9456 116.476088 
L 238.30272 93.538859 
L 239.01696 119.145754 
L 239.37408 112.46717 
L 239.7312 156.521473 
L 240.08832 110.624944 
L 240.44544 110.338142 
L 240.80256 94.431463 
L 241.15968 127.011452 
L 241.5168 122.717379 
L 241.87392 94.741539 
L 242.23104 94.074981 
L 242.58816 104.047508 
L 242.94528 83.634031 
L 243.3024 139.48916 
L 243.65952 97.924371 
L 244.01664 124.780064 
L 244.37376 100.714464 
L 244.73088 113.865424 
L 245.088 104.077732 
L 245.44512 112.387397 
L 245.80224 115.957462 
L 246.51648 110.9096 
L 247.23072 112.395667 
L 247.58784 112.789235 
L 247.94496 118.817818 
L 248.30208 136.607886 
L 248.6592 143.042026 
L 249.01632 99.753652 
L 249.37344 102.798171 
L 249.73056 110.201463 
L 250.08768 104.844804 
L 250.4448 97.283144 
L 250.80192 111.998765 
L 251.15904 87.772907 
L 251.51616 100.104735 
L 252.2304 130.163367 
L 252.58752 160.733816 
L 253.30176 92.94135 
L 253.65888 101.446912 
L 254.016 93.944284 
L 254.37312 97.62522 
L 254.73024 99.051879 
L 255.08736 122.723772 
L 255.44448 104.171773 
L 255.8016 123.742513 
L 256.15872 89.482334 
L 256.51584 91.984814 
L 256.87296 91.468373 
L 257.23008 98.810805 
L 257.5872 151.76829 
L 257.94432 106.996113 
L 258.30144 114.58098 
L 258.65856 103.943877 
L 259.01568 118.899003 
L 259.3728 167.041408 
L 259.72992 119.964585 
L 260.08704 146.64164 
L 260.44416 160.993153 
L 260.80128 99.730014 
L 261.1584 114.762538 
L 261.51552 109.19994 
L 261.87264 108.331996 
L 262.22976 102.154132 
L 262.58688 104.755501 
L 262.944 123.253864 
L 263.30112 133.271195 
L 264.01536 98.60837 
L 264.37248 111.676998 
L 264.7296 107.498817 
L 265.08672 127.600305 
L 265.44384 90.155005 
L 265.80096 96.896576 
L 266.15808 110.322896 
L 266.5152 110.61215 
L 266.87232 124.560691 
L 267.22944 111.210528 
L 267.58656 111.463895 
L 267.94368 120.111395 
L 268.3008 109.930958 
L 268.65792 111.054816 
L 269.01504 108.473578 
L 269.37216 95.287536 
L 269.72928 120.314715 
L 270.0864 97.670321 
L 270.44352 103.35359 
L 270.80064 121.931757 
L 271.15776 113.397245 
L 271.51488 144.228914 
L 271.872 113.210667 
L 272.22912 163.779723 
L 272.58624 118.05628 
L 272.94336 148.626888 
L 273.30048 107.412214 
L 273.6576 113.794548 
L 274.01472 93.146884 
L 274.37184 95.178999 
L 274.72896 107.93902 
L 275.08608 91.31628 
L 275.4432 104.495703 
L 275.80032 125.251623 
L 276.15744 105.854934 
L 276.51456 97.149321 
L 276.87168 100.747403 
L 277.2288 97.182453 
L 277.58592 98.877375 
L 277.94304 93.604933 
L 278.30016 107.719969 
L 278.65728 103.574986 
L 279.0144 133.782573 
L 279.37152 90.026985 
L 279.72864 112.478418 
L 280.08576 103.383678 
L 280.8 111.97068 
L 281.15712 103.635949 
L 281.87136 132.965163 
L 282.22848 92.540663 
L 282.5856 117.690449 
L 282.94272 102.65761 
L 283.29984 102.379268 
L 283.65696 118.72758 
L 284.01408 95.283623 
L 284.3712 108.819786 
L 284.72832 105.31536 
L 285.08544 122.620358 
L 285.44256 107.161403 
L 285.79968 130.204989 
L 286.1568 85.392655 
L 287.22816 116.336402 
L 287.58528 94.254841 
L 287.9424 107.746065 
L 288.29952 91.403008 
L 289.01376 101.267624 
L 289.37088 120.810679 
L 289.728 107.57199 
L 290.08512 113.820127 
L 290.44224 107.378416 
L 290.79936 90.824502 
L 291.15648 95.223406 
L 291.5136 114.634607 
L 291.87072 99.138102 
L 292.22784 100.655025 
L 292.58496 108.415004 
L 292.94208 101.426411 
L 293.2992 129.654282 
L 293.65632 135.905567 
L 294.01344 123.645926 
L 294.37056 105.726087 
L 294.72768 119.323026 
L 295.0848 139.072224 
L 295.44192 165.302306 
L 295.79904 148.072205 
L 296.15616 121.008353 
L 296.51328 121.874812 
L 296.8704 98.12956 
L 297.22752 119.248712 
L 297.58464 127.159123 
L 297.94176 113.641395 
L 298.29888 128.957059 
L 298.656 132.235982 
L 299.01312 86.700466 
L 299.37024 116.706186 
L 299.72736 103.762402 
L 300.08448 125.034135 
L 300.4416 98.410773 
L 300.79872 113.785613 
L 301.15584 92.944082 
L 301.51296 109.477058 
L 301.87008 89.238063 
L 302.2272 85.537205 
L 302.94144 110.641138 
L 303.29856 97.401016 
L 303.65568 79.451397 
L 304.0128 82.631715 
L 304.36992 82.322963 
L 304.72704 90.748046 
L 305.08416 90.614041 
L 305.44128 91.18094 
L 305.7984 95.417957 
L 306.15552 90.699172 
L 306.51264 119.996005 
L 306.86976 91.371173 
L 307.94112 109.660202 
L 308.65536 97.475948 
L 309.01248 78.831242 
L 309.3696 113.863456 
L 309.72672 119.485732 
L 310.08384 102.607211 
L 310.44096 105.083222 
L 310.79808 111.778606 
L 311.51232 95.843352 
L 311.86944 121.587837 
L 312.22656 77.790211 
L 312.58368 110.90698 
L 312.9408 81.787841 
L 313.29792 94.05271 
L 313.65504 120.914699 
L 314.01216 106.265005 
L 314.36928 116.833577 
L 314.7264 103.060839 
L 315.08352 112.692008 
L 315.44064 128.419345 
L 315.79776 136.218015 
L 316.15488 98.578178 
L 316.512 105.080481 
L 316.86912 159.949492 
L 317.22624 91.734767 
L 317.58336 116.192911 
L 317.94048 95.323349 
L 318.2976 122.308257 
L 318.65472 93.41013 
L 319.01184 149.263521 
L 319.36896 97.913781 
L 319.72608 117.437092 
L 320.0832 84.255972 
L 320.44032 79.06314 
L 320.79744 87.310644 
L 321.15456 203.762575 
L 321.51168 104.154506 
L 321.8688 108.835685 
L 322.22592 84.810315 
L 322.58304 83.560766 
L 323.29728 98.061 
L 323.6544 139.521412 
L 324.01152 105.659168 
L 324.36864 130.921568 
L 324.72576 72.61512 
L 325.08288 88.830509 
L 325.44 77.381844 
L 325.79712 120.901477 
L 326.15424 147.318517 
L 326.51136 87.163324 
L 326.86848 138.958533 
L 327.2256 98.398848 
L 327.58272 73.858586 
L 327.93984 88.415438 
L 328.29696 75.387902 
L 328.65408 79.817953 
L 329.0112 69.805776 
L 329.36832 125.212157 
L 329.72544 86.247775 
L 330.08256 89.67965 
L 330.43968 82.161883 
L 330.7968 165.061689 
L 331.15392 78.121538 
L 331.51104 97.271466 
L 331.86816 89.269846 
L 332.22528 149.450322 
L 332.5824 119.990371 
L 332.93952 154.216375 
L 333.29664 124.183108 
L 333.65376 139.793904 
L 334.01088 124.009152 
L 334.368 124.5512 
L 334.72512 141.914434 
L 335.08224 108.858193 
L 335.43936 174.376594 
L 335.79648 97.622377 
L 336.1536 85.551743 
L 336.51072 133.868517 
L 336.86784 94.450117 
L 337.22496 90.553783 
L 337.58208 78.726886 
L 337.9392 138.193179 
L 338.29632 78.98117 
L 338.65344 99.371236 
L 339.01056 105.647404 
L 339.36768 91.810311 
L 339.7248 106.688769 
L 340.08192 136.841665 
L 340.43904 96.245209 
L 340.79616 130.906439 
L 341.15328 104.336672 
L 341.5104 161.580937 
L 341.86752 106.191611 
L 342.22464 84.833909 
L 342.58176 91.603266 
L 342.93888 107.839376 
L 343.296 110.867729 
L 343.65312 138.077344 
L 344.01024 107.404 
L 344.36736 86.467638 
L 344.72448 87.514085 
L 345.0816 96.9778 
L 345.43872 103.293093 
L 345.79584 103.528185 
L 346.15296 94.558436 
L 346.51008 100.246544 
L 346.8672 129.329475 
L 347.22432 89.001965 
L 347.58144 108.64767 
L 347.93856 97.837238 
L 348.29568 145.034058 
L 348.6528 122.306334 
L 349.00992 108.204691 
L 349.36704 108.497828 
L 349.72416 112.384282 
L 350.08128 100.88576 
L 350.4384 81.641861 
L 350.79552 103.353111 
L 351.15264 82.666329 
L 351.50976 104.280903 
L 351.86688 93.874187 
L 352.224 102.999029 
L 352.58112 102.794376 
L 352.93824 99.414857 
L 353.29536 177.8128 
L 353.65248 173.885317 
L 354.0096 104.116638 
L 354.36672 130.637326 
L 354.72384 85.480344 
L 355.08096 137.20233 
L 355.43808 79.480958 
L 355.7952 129.789777 
L 356.15232 81.04487 
L 356.50944 91.755308 
L 356.86656 106.730931 
L 357.22368 79.174994 
L 357.5808 132.77018 
L 357.93792 79.405353 
L 358.29504 118.325129 
L 358.65216 68.791169 
L 359.00928 86.269657 
L 359.3664 73.285048 
L 359.72352 101.333374 
L 360.08064 102.029216 
L 360.43776 73.936573 
L 360.79488 119.715654 
L 361.152 96.278346 
L 361.50912 103.975079 
L 361.86624 127.340417 
L 362.22336 88.563278 
L 362.58048 89.443537 
L 362.9376 87.335716 
L 363.29472 89.388967 
L 363.65184 118.160612 
L 364.00896 124.068545 
L 364.36608 103.946929 
L 364.7232 70.313142 
L 365.08032 82.447642 
L 365.43744 72.114111 
L 365.79456 82.494904 
L 366.15168 99.140935 
L 366.5088 80.524281 
L 366.86592 88.693774 
L 367.22304 92.601544 
L 367.58016 92.407118 
L 367.93728 125.560708 
L 368.2944 123.539019 
L 368.65152 119.643935 
L 369.00864 79.990243 
L 369.36576 104.701572 
L 369.72288 82.942265 
L 370.08 126.343915 
L 370.79424 98.289264 
L 371.15136 85.532871 
L 371.50848 147.717647 
L 371.8656 87.037592 
L 372.22272 81.18151 
L 372.57984 91.365546 
L 372.93696 97.071632 
L 373.29408 137.240937 
L 373.6512 125.200214 
L 374.00832 124.595568 
L 374.36544 148.250827 
L 374.72256 79.632683 
L 375.07968 72.308335 
L 375.4368 94.951251 
L 375.79392 98.321272 
L 376.15104 86.257007 
L 376.50816 148.131775 
L 376.86528 93.89777 
L 377.2224 131.87803 
L 377.57952 129.738802 
L 377.93664 123.787454 
L 378.29376 129.671411 
L 378.65088 102.939813 
L 379.008 138.766724 
L 379.36512 110.899768 
L 379.72224 109.761448 
L 380.07936 113.220706 
L 380.43648 96.051898 
L 380.7936 111.425567 
L 381.15072 100.622158 
L 381.50784 117.667486 
L 381.86496 79.747046 
L 382.22208 100.504919 
L 382.5792 83.777334 
L 382.93632 93.473248 
L 383.29344 83.426632 
L 383.65056 86.922065 
L 384.00768 96.230189 
L 384.3648 78.698018 
L 384.72192 79.54971 
L 385.07904 105.076507 
L 385.43616 76.736559 
L 385.79328 102.866202 
L 386.1504 78.727324 
L 386.50752 161.889666 
L 386.86464 77.724968 
L 387.22176 178.775883 
L 387.57888 105.644615 
L 387.936 70.742766 
L 388.29312 114.502122 
L 388.65024 63.648 
L 389.00736 100.619689 
L 389.36448 110.480206 
L 389.7216 105.316482 
L 390.07872 136.315159 
L 390.43584 85.50976 
L 390.79296 86.509259 
L 391.15008 64.470783 
L 391.5072 84.995153 
L 391.86432 141.969065 
L 392.22144 77.349215 
L 392.57856 188.198 
L 392.93568 85.653008 
L 393.2928 92.210295 
L 393.64992 103.06227 
L 394.00704 80.364126 
L 394.36416 99.394348 
L 394.72128 75.135541 
L 395.0784 97.591794 
L 395.43552 72.16023 
L 395.79264 94.52104 
L 396.14976 92.522015 
L 396.864 95.036524 
L 397.22112 99.547086 
L 397.57824 78.350993 
L 397.93536 156.280074 
L 398.29248 76.410033 
L 398.6496 111.810482 
L 399.00672 112.945166 
L 399.36384 112.025593 
L 399.72096 84.185297 
L 400.07808 114.171263 
L 400.4352 92.142682 
L 400.79232 138.232285 
L 401.50656 92.470258 
L 401.86368 89.45105 
L 402.2208 102.875842 
L 402.57792 93.694678 
L 402.93504 93.590656 
L 403.29216 90.338583 
L 403.64928 110.902519 
L 404.0064 112.476387 
L 404.36352 89.193196 
L 404.72064 119.044839 
L 405.07776 107.306818 
L 405.43488 83.317219 
L 406.14912 136.831128 
L 406.50624 90.052511 
L 406.86336 98.726731 
L 407.22048 81.194061 
L 407.5776 96.43127 
L 407.93472 86.529828 
L 408.29184 112.432049 
L 408.64896 78.530169 
L 409.00608 86.782934 
L 409.3632 74.846817 
L 409.72032 78.225901 
L 410.07744 73.15131 
L 410.43456 106.038346 
L 410.79168 80.794875 
L 411.1488 91.290017 
L 411.50592 92.681056 
L 411.86304 116.866997 
L 412.22016 75.54152 
L 412.57728 113.15401 
L 412.9344 85.552795 
L 413.29152 73.155272 
L 413.64864 84.745853 
L 414.00576 73.532566 
L 414.36288 78.328225 
L 414.36288 78.328225 
" style="fill:none;stroke:#0000ff;stroke-linecap:square;stroke-width:1.5;"/>
   </g>
   <g id="patch_3">
    <path d="M 57.6 307.584 
L 57.6 41.472 
" style="fill:none;stroke:#000000;stroke-linecap:square;stroke-linejoin:miter;stroke-width:0.8;"/>
   </g>
   <g id="patch_4">
    <path d="M 414.72 307.584 
L 414.72 41.472 
" style="fill:none;stroke:#000000;stroke-linecap:square;stroke-linejoin:miter;stroke-width:0.8;"/>
   </g>
   <g id="patch_5">
    <path d="M 57.6 307.584 
L 414.72 307.584 
" style="fill:none;stroke:#000000;stroke-linecap:square;stroke-linejoin:miter;stroke-width:0.8;"/>
   </g>
   <g id="patch_6">
    <path d="M 57.6 41.472 
L 414.72 41.472 
" style="fill:none;stroke:#000000;stroke-linecap:square;stroke-linejoin:miter;stroke-width:0.8;"/>
   </g>
   <g id="legend_1">
    <g id="patch_7">
     <path d="M 64.6 64.150125 
L 189.998437 64.150125 
Q 191.998437 64.150125 191.998437 62.150125 
L 191.998437 48.472 
Q 191.998437 46.472 189.998437 46.472 
L 64.6 46.472 
Q 62.6 46.472 62.6 48.472 
L 62.6 62.150125 
Q 62.6 64.150125 64.6 64.150125 
z
" style="fill:#ffffff;opacity:0.8;stroke:#cccccc;stroke-linejoin:miter;"/>
    </g>
    <g id="line2d_32">
     <path d="M 66.6 54.570438 
L 86.6 54.570438 
" style="fill:none;stroke:#0000ff;stroke-linecap:square;stroke-width:1.5;"/>
    </g>
    <g id="line2d_33"/>
    <g id="text_18">
     <!-- cumulative reward -->
     <g transform="translate(94.6 58.070438)scale(0.1 -0.1)">
      <defs>
       <path d="M 3122 3366 
L 3122 2828 
Q 2878 2963 2633 3030 
Q 2388 3097 2138 3097 
Q 1578 3097 1268 2742 
Q 959 2388 959 1747 
Q 959 1106 1268 751 
Q 1578 397 2138 397 
Q 2388 397 2633 464 
Q 2878 531 3122 666 
L 3122 134 
Q 2881 22 2623 -34 
Q 2366 -91 2075 -91 
Q 1284 -91 818 406 
Q 353 903 353 1747 
Q 353 2603 823 3093 
Q 1294 3584 2113 3584 
Q 2378 3584 2631 3529 
Q 2884 3475 3122 3366 
z
" id="DejaVuSans-63" transform="scale(0.015625)"/>
      </defs>
      <use xlink:href="#DejaVuSans-63"/>
      <use x="54.980469" xlink:href="#DejaVuSans-75"/>
      <use x="118.359375" xlink:href="#DejaVuSans-6d"/>
      <use x="215.771484" xlink:href="#DejaVuSans-75"/>
      <use x="279.150391" xlink:href="#DejaVuSans-6c"/>
      <use x="306.933594" xlink:href="#DejaVuSans-61"/>
      <use x="368.212891" xlink:href="#DejaVuSans-74"/>
      <use x="407.421875" xlink:href="#DejaVuSans-69"/>
      <use x="435.205078" xlink:href="#DejaVuSans-76"/>
      <use x="494.384766" xlink:href="#DejaVuSans-65"/>
      <use x="555.908203" xlink:href="#DejaVuSans-20"/>
      <use x="587.695312" xlink:href="#DejaVuSans-72"/>
      <use x="626.558594" xlink:href="#DejaVuSans-65"/>
      <use x="688.082031" xlink:href="#DejaVuSans-77"/>
      <use x="769.869141" xlink:href="#DejaVuSans-61"/>
      <use x="831.148438" xlink:href="#DejaVuSans-72"/>
      <use x="870.511719" xlink:href="#DejaVuSans-64"/>
     </g>
    </g>
   </g>
  </g>
 </g>
 <defs>
  <clipPath id="pf64c3de5d3">
   <rect height="266.112" width="357.12" x="57.6" y="41.472"/>
  </clipPath>
 </defs>
</svg>
