<?xml version="1.0" encoding="utf-8" standalone="no"?>
<!DOCTYPE svg PUBLIC "-//W3C//DTD SVG 1.1//EN"
  "http://www.w3.org/Graphics/SVG/1.1/DTD/svg11.dtd">
<svg height="345.6pt" version="1.1" viewBox="0 0 460.8 345.6" width="460.8pt" xmlns="http://www.w3.org/2000/svg" xmlns:xlink="http://www.w3.org/1999/xlink">
 <metadata>
  <rdf:RDF xmlns:cc="http://creativecommons.org/ns#" xmlns:dc="http://purl.org/dc/elements/1.1/" xmlns:rdf="http://www.w3.org/1999/02/22-rdf-syntax-ns#">
   <cc:Work>
    <dc:type rdf:resource="http://purl.org/dc/dcmitype/StillImage"/>
    <dc:date>2021-10-19T17:16:42.453913</dc:date>
    <dc:description>{"agent.algorithm": "RayProximalPolicyOptimization", "agent.algorithm.render_env": false, "agent.algorithm.batch_mode": "complete_episodes", "agent.algorithm.train_batch_size": 200, "agent.algorithm.optimizer": "Adam", "agent.algorithm.vf_clip_param": 5000, "agent.algorithm.model": {"fcnet_activation": "tanh", "fcnet_hiddens": [30, 30]}, "env.env_class": "SchedulerPolicyRayEnvironment", "env.env_config": {"solver_driver": "CMAdriver", "solver_driver_args": [10, 10, "Katsuura"], "maximize": false, "steps": 50, "state_metrics_names": ["DifferenceOfBest", "SolverState"], "state_metrics_config": [[40, false, 1, true, true], [{"step_size": {"max": 3, "min": 1e-10}}]], "reward_metric": "Best", "reward_metric_config": [false, false], "memes_no": 1, "parameter_tune_config": {"step_size": {"max": 3, "min": 1e-10}}}}</dc:description>
    <dc:format>image/svg+xml</dc:format>
    <dc:creator>
     <cc:Agent>
      <dc:title>Matplotlib v3.4.2, https://matplotlib.org/</dc:title>
     </cc:Agent>
    </dc:creator>
   </cc:Work>
  </rdf:RDF>
 </metadata>
 <defs>
  <style type="text/css">*{stroke-linecap:butt;stroke-linejoin:round;}</style>
 </defs>
 <g id="figure_1">
  <g id="patch_1">
   <path d="M 0 345.6 
L 460.8 345.6 
L 460.8 0 
L 0 0 
z
" style="fill:#ffffff;"/>
  </g>
  <g id="axes_1">
   <g id="patch_2">
    <path d="M 57.6 307.584 
L 414.72 307.584 
L 414.72 41.472 
L 57.6 41.472 
z
" style="fill:#ffffff;"/>
   </g>
   <g id="matplotlib.axis_1">
    <g id="xtick_1">
     <g id="line2d_1">
      <path clip-path="url(#p09ac71edaf)" d="M 57.6 307.584 
L 57.6 41.472 
" style="fill:none;stroke:#b0b0b0;stroke-linecap:square;stroke-width:0.8;"/>
     </g>
     <g id="line2d_2">
      <defs>
       <path d="M 0 0 
L 0 3.5 
" id="m8313962ae9" style="stroke:#000000;stroke-width:0.8;"/>
      </defs>
      <g>
       <use style="stroke:#000000;stroke-width:0.8;" x="57.6" xlink:href="#m8313962ae9" y="307.584"/>
      </g>
     </g>
     <g id="text_1">
      <!-- 0 -->
      <g transform="translate(54.41875 322.182437)scale(0.1 -0.1)">
       <defs>
        <path d="M 2034 4250 
Q 1547 4250 1301 3770 
Q 1056 3291 1056 2328 
Q 1056 1369 1301 889 
Q 1547 409 2034 409 
Q 2525 409 2770 889 
Q 3016 1369 3016 2328 
Q 3016 3291 2770 3770 
Q 2525 4250 2034 4250 
z
M 2034 4750 
Q 2819 4750 3233 4129 
Q 3647 3509 3647 2328 
Q 3647 1150 3233 529 
Q 2819 -91 2034 -91 
Q 1250 -91 836 529 
Q 422 1150 422 2328 
Q 422 3509 836 4129 
Q 1250 4750 2034 4750 
z
" id="DejaVuSans-30" transform="scale(0.015625)"/>
       </defs>
       <use xlink:href="#DejaVuSans-30"/>
      </g>
     </g>
    </g>
    <g id="xtick_2">
     <g id="line2d_3">
      <path clip-path="url(#p09ac71edaf)" d="M 102.24 307.584 
L 102.24 41.472 
" style="fill:none;stroke:#b0b0b0;stroke-linecap:square;stroke-width:0.8;"/>
     </g>
     <g id="line2d_4">
      <g>
       <use style="stroke:#000000;stroke-width:0.8;" x="102.24" xlink:href="#m8313962ae9" y="307.584"/>
      </g>
     </g>
     <g id="text_2">
      <!-- 500 -->
      <g transform="translate(92.69625 322.182437)scale(0.1 -0.1)">
       <defs>
        <path d="M 691 4666 
L 3169 4666 
L 3169 4134 
L 1269 4134 
L 1269 2991 
Q 1406 3038 1543 3061 
Q 1681 3084 1819 3084 
Q 2600 3084 3056 2656 
Q 3513 2228 3513 1497 
Q 3513 744 3044 326 
Q 2575 -91 1722 -91 
Q 1428 -91 1123 -41 
Q 819 9 494 109 
L 494 744 
Q 775 591 1075 516 
Q 1375 441 1709 441 
Q 2250 441 2565 725 
Q 2881 1009 2881 1497 
Q 2881 1984 2565 2268 
Q 2250 2553 1709 2553 
Q 1456 2553 1204 2497 
Q 953 2441 691 2322 
L 691 4666 
z
" id="DejaVuSans-35" transform="scale(0.015625)"/>
       </defs>
       <use xlink:href="#DejaVuSans-35"/>
       <use x="63.623047" xlink:href="#DejaVuSans-30"/>
       <use x="127.246094" xlink:href="#DejaVuSans-30"/>
      </g>
     </g>
    </g>
    <g id="xtick_3">
     <g id="line2d_5">
      <path clip-path="url(#p09ac71edaf)" d="M 146.88 307.584 
L 146.88 41.472 
" style="fill:none;stroke:#b0b0b0;stroke-linecap:square;stroke-width:0.8;"/>
     </g>
     <g id="line2d_6">
      <g>
       <use style="stroke:#000000;stroke-width:0.8;" x="146.88" xlink:href="#m8313962ae9" y="307.584"/>
      </g>
     </g>
     <g id="text_3">
      <!-- 1000 -->
      <g transform="translate(134.155 322.182437)scale(0.1 -0.1)">
       <defs>
        <path d="M 794 531 
L 1825 531 
L 1825 4091 
L 703 3866 
L 703 4441 
L 1819 4666 
L 2450 4666 
L 2450 531 
L 3481 531 
L 3481 0 
L 794 0 
L 794 531 
z
" id="DejaVuSans-31" transform="scale(0.015625)"/>
       </defs>
       <use xlink:href="#DejaVuSans-31"/>
       <use x="63.623047" xlink:href="#DejaVuSans-30"/>
       <use x="127.246094" xlink:href="#DejaVuSans-30"/>
       <use x="190.869141" xlink:href="#DejaVuSans-30"/>
      </g>
     </g>
    </g>
    <g id="xtick_4">
     <g id="line2d_7">
      <path clip-path="url(#p09ac71edaf)" d="M 191.52 307.584 
L 191.52 41.472 
" style="fill:none;stroke:#b0b0b0;stroke-linecap:square;stroke-width:0.8;"/>
     </g>
     <g id="line2d_8">
      <g>
       <use style="stroke:#000000;stroke-width:0.8;" x="191.52" xlink:href="#m8313962ae9" y="307.584"/>
      </g>
     </g>
     <g id="text_4">
      <!-- 1500 -->
      <g transform="translate(178.795 322.182437)scale(0.1 -0.1)">
       <use xlink:href="#DejaVuSans-31"/>
       <use x="63.623047" xlink:href="#DejaVuSans-35"/>
       <use x="127.246094" xlink:href="#DejaVuSans-30"/>
       <use x="190.869141" xlink:href="#DejaVuSans-30"/>
      </g>
     </g>
    </g>
    <g id="xtick_5">
     <g id="line2d_9">
      <path clip-path="url(#p09ac71edaf)" d="M 236.16 307.584 
L 236.16 41.472 
" style="fill:none;stroke:#b0b0b0;stroke-linecap:square;stroke-width:0.8;"/>
     </g>
     <g id="line2d_10">
      <g>
       <use style="stroke:#000000;stroke-width:0.8;" x="236.16" xlink:href="#m8313962ae9" y="307.584"/>
      </g>
     </g>
     <g id="text_5">
      <!-- 2000 -->
      <g transform="translate(223.435 322.182437)scale(0.1 -0.1)">
       <defs>
        <path d="M 1228 531 
L 3431 531 
L 3431 0 
L 469 0 
L 469 531 
Q 828 903 1448 1529 
Q 2069 2156 2228 2338 
Q 2531 2678 2651 2914 
Q 2772 3150 2772 3378 
Q 2772 3750 2511 3984 
Q 2250 4219 1831 4219 
Q 1534 4219 1204 4116 
Q 875 4013 500 3803 
L 500 4441 
Q 881 4594 1212 4672 
Q 1544 4750 1819 4750 
Q 2544 4750 2975 4387 
Q 3406 4025 3406 3419 
Q 3406 3131 3298 2873 
Q 3191 2616 2906 2266 
Q 2828 2175 2409 1742 
Q 1991 1309 1228 531 
z
" id="DejaVuSans-32" transform="scale(0.015625)"/>
       </defs>
       <use xlink:href="#DejaVuSans-32"/>
       <use x="63.623047" xlink:href="#DejaVuSans-30"/>
       <use x="127.246094" xlink:href="#DejaVuSans-30"/>
       <use x="190.869141" xlink:href="#DejaVuSans-30"/>
      </g>
     </g>
    </g>
    <g id="xtick_6">
     <g id="line2d_11">
      <path clip-path="url(#p09ac71edaf)" d="M 280.8 307.584 
L 280.8 41.472 
" style="fill:none;stroke:#b0b0b0;stroke-linecap:square;stroke-width:0.8;"/>
     </g>
     <g id="line2d_12">
      <g>
       <use style="stroke:#000000;stroke-width:0.8;" x="280.8" xlink:href="#m8313962ae9" y="307.584"/>
      </g>
     </g>
     <g id="text_6">
      <!-- 2500 -->
      <g transform="translate(268.075 322.182437)scale(0.1 -0.1)">
       <use xlink:href="#DejaVuSans-32"/>
       <use x="63.623047" xlink:href="#DejaVuSans-35"/>
       <use x="127.246094" xlink:href="#DejaVuSans-30"/>
       <use x="190.869141" xlink:href="#DejaVuSans-30"/>
      </g>
     </g>
    </g>
    <g id="xtick_7">
     <g id="line2d_13">
      <path clip-path="url(#p09ac71edaf)" d="M 325.44 307.584 
L 325.44 41.472 
" style="fill:none;stroke:#b0b0b0;stroke-linecap:square;stroke-width:0.8;"/>
     </g>
     <g id="line2d_14">
      <g>
       <use style="stroke:#000000;stroke-width:0.8;" x="325.44" xlink:href="#m8313962ae9" y="307.584"/>
      </g>
     </g>
     <g id="text_7">
      <!-- 3000 -->
      <g transform="translate(312.715 322.182437)scale(0.1 -0.1)">
       <defs>
        <path d="M 2597 2516 
Q 3050 2419 3304 2112 
Q 3559 1806 3559 1356 
Q 3559 666 3084 287 
Q 2609 -91 1734 -91 
Q 1441 -91 1130 -33 
Q 819 25 488 141 
L 488 750 
Q 750 597 1062 519 
Q 1375 441 1716 441 
Q 2309 441 2620 675 
Q 2931 909 2931 1356 
Q 2931 1769 2642 2001 
Q 2353 2234 1838 2234 
L 1294 2234 
L 1294 2753 
L 1863 2753 
Q 2328 2753 2575 2939 
Q 2822 3125 2822 3475 
Q 2822 3834 2567 4026 
Q 2313 4219 1838 4219 
Q 1578 4219 1281 4162 
Q 984 4106 628 3988 
L 628 4550 
Q 988 4650 1302 4700 
Q 1616 4750 1894 4750 
Q 2613 4750 3031 4423 
Q 3450 4097 3450 3541 
Q 3450 3153 3228 2886 
Q 3006 2619 2597 2516 
z
" id="DejaVuSans-33" transform="scale(0.015625)"/>
       </defs>
       <use xlink:href="#DejaVuSans-33"/>
       <use x="63.623047" xlink:href="#DejaVuSans-30"/>
       <use x="127.246094" xlink:href="#DejaVuSans-30"/>
       <use x="190.869141" xlink:href="#DejaVuSans-30"/>
      </g>
     </g>
    </g>
    <g id="xtick_8">
     <g id="line2d_15">
      <path clip-path="url(#p09ac71edaf)" d="M 370.08 307.584 
L 370.08 41.472 
" style="fill:none;stroke:#b0b0b0;stroke-linecap:square;stroke-width:0.8;"/>
     </g>
     <g id="line2d_16">
      <g>
       <use style="stroke:#000000;stroke-width:0.8;" x="370.08" xlink:href="#m8313962ae9" y="307.584"/>
      </g>
     </g>
     <g id="text_8">
      <!-- 3500 -->
      <g transform="translate(357.355 322.182437)scale(0.1 -0.1)">
       <use xlink:href="#DejaVuSans-33"/>
       <use x="63.623047" xlink:href="#DejaVuSans-35"/>
       <use x="127.246094" xlink:href="#DejaVuSans-30"/>
       <use x="190.869141" xlink:href="#DejaVuSans-30"/>
      </g>
     </g>
    </g>
    <g id="xtick_9">
     <g id="line2d_17">
      <path clip-path="url(#p09ac71edaf)" d="M 414.72 307.584 
L 414.72 41.472 
" style="fill:none;stroke:#b0b0b0;stroke-linecap:square;stroke-width:0.8;"/>
     </g>
     <g id="line2d_18">
      <g>
       <use style="stroke:#000000;stroke-width:0.8;" x="414.72" xlink:href="#m8313962ae9" y="307.584"/>
      </g>
     </g>
     <g id="text_9">
      <!-- 4000 -->
      <g transform="translate(401.995 322.182437)scale(0.1 -0.1)">
       <defs>
        <path d="M 2419 4116 
L 825 1625 
L 2419 1625 
L 2419 4116 
z
M 2253 4666 
L 3047 4666 
L 3047 1625 
L 3713 1625 
L 3713 1100 
L 3047 1100 
L 3047 0 
L 2419 0 
L 2419 1100 
L 313 1100 
L 313 1709 
L 2253 4666 
z
" id="DejaVuSans-34" transform="scale(0.015625)"/>
       </defs>
       <use xlink:href="#DejaVuSans-34"/>
       <use x="63.623047" xlink:href="#DejaVuSans-30"/>
       <use x="127.246094" xlink:href="#DejaVuSans-30"/>
       <use x="190.869141" xlink:href="#DejaVuSans-30"/>
      </g>
     </g>
    </g>
    <g id="text_10">
     <!-- Episodes -->
     <g transform="translate(213.917812 335.860562)scale(0.1 -0.1)">
      <defs>
       <path d="M 628 4666 
L 3578 4666 
L 3578 4134 
L 1259 4134 
L 1259 2753 
L 3481 2753 
L 3481 2222 
L 1259 2222 
L 1259 531 
L 3634 531 
L 3634 0 
L 628 0 
L 628 4666 
z
" id="DejaVuSans-45" transform="scale(0.015625)"/>
       <path d="M 1159 525 
L 1159 -1331 
L 581 -1331 
L 581 3500 
L 1159 3500 
L 1159 2969 
Q 1341 3281 1617 3432 
Q 1894 3584 2278 3584 
Q 2916 3584 3314 3078 
Q 3713 2572 3713 1747 
Q 3713 922 3314 415 
Q 2916 -91 2278 -91 
Q 1894 -91 1617 61 
Q 1341 213 1159 525 
z
M 3116 1747 
Q 3116 2381 2855 2742 
Q 2594 3103 2138 3103 
Q 1681 3103 1420 2742 
Q 1159 2381 1159 1747 
Q 1159 1113 1420 752 
Q 1681 391 2138 391 
Q 2594 391 2855 752 
Q 3116 1113 3116 1747 
z
" id="DejaVuSans-70" transform="scale(0.015625)"/>
       <path d="M 603 3500 
L 1178 3500 
L 1178 0 
L 603 0 
L 603 3500 
z
M 603 4863 
L 1178 4863 
L 1178 4134 
L 603 4134 
L 603 4863 
z
" id="DejaVuSans-69" transform="scale(0.015625)"/>
       <path d="M 2834 3397 
L 2834 2853 
Q 2591 2978 2328 3040 
Q 2066 3103 1784 3103 
Q 1356 3103 1142 2972 
Q 928 2841 928 2578 
Q 928 2378 1081 2264 
Q 1234 2150 1697 2047 
L 1894 2003 
Q 2506 1872 2764 1633 
Q 3022 1394 3022 966 
Q 3022 478 2636 193 
Q 2250 -91 1575 -91 
Q 1294 -91 989 -36 
Q 684 19 347 128 
L 347 722 
Q 666 556 975 473 
Q 1284 391 1588 391 
Q 1994 391 2212 530 
Q 2431 669 2431 922 
Q 2431 1156 2273 1281 
Q 2116 1406 1581 1522 
L 1381 1569 
Q 847 1681 609 1914 
Q 372 2147 372 2553 
Q 372 3047 722 3315 
Q 1072 3584 1716 3584 
Q 2034 3584 2315 3537 
Q 2597 3491 2834 3397 
z
" id="DejaVuSans-73" transform="scale(0.015625)"/>
       <path d="M 1959 3097 
Q 1497 3097 1228 2736 
Q 959 2375 959 1747 
Q 959 1119 1226 758 
Q 1494 397 1959 397 
Q 2419 397 2687 759 
Q 2956 1122 2956 1747 
Q 2956 2369 2687 2733 
Q 2419 3097 1959 3097 
z
M 1959 3584 
Q 2709 3584 3137 3096 
Q 3566 2609 3566 1747 
Q 3566 888 3137 398 
Q 2709 -91 1959 -91 
Q 1206 -91 779 398 
Q 353 888 353 1747 
Q 353 2609 779 3096 
Q 1206 3584 1959 3584 
z
" id="DejaVuSans-6f" transform="scale(0.015625)"/>
       <path d="M 2906 2969 
L 2906 4863 
L 3481 4863 
L 3481 0 
L 2906 0 
L 2906 525 
Q 2725 213 2448 61 
Q 2172 -91 1784 -91 
Q 1150 -91 751 415 
Q 353 922 353 1747 
Q 353 2572 751 3078 
Q 1150 3584 1784 3584 
Q 2172 3584 2448 3432 
Q 2725 3281 2906 2969 
z
M 947 1747 
Q 947 1113 1208 752 
Q 1469 391 1925 391 
Q 2381 391 2643 752 
Q 2906 1113 2906 1747 
Q 2906 2381 2643 2742 
Q 2381 3103 1925 3103 
Q 1469 3103 1208 2742 
Q 947 2381 947 1747 
z
" id="DejaVuSans-64" transform="scale(0.015625)"/>
       <path d="M 3597 1894 
L 3597 1613 
L 953 1613 
Q 991 1019 1311 708 
Q 1631 397 2203 397 
Q 2534 397 2845 478 
Q 3156 559 3463 722 
L 3463 178 
Q 3153 47 2828 -22 
Q 2503 -91 2169 -91 
Q 1331 -91 842 396 
Q 353 884 353 1716 
Q 353 2575 817 3079 
Q 1281 3584 2069 3584 
Q 2775 3584 3186 3129 
Q 3597 2675 3597 1894 
z
M 3022 2063 
Q 3016 2534 2758 2815 
Q 2500 3097 2075 3097 
Q 1594 3097 1305 2825 
Q 1016 2553 972 2059 
L 3022 2063 
z
" id="DejaVuSans-65" transform="scale(0.015625)"/>
      </defs>
      <use xlink:href="#DejaVuSans-45"/>
      <use x="63.183594" xlink:href="#DejaVuSans-70"/>
      <use x="126.660156" xlink:href="#DejaVuSans-69"/>
      <use x="154.443359" xlink:href="#DejaVuSans-73"/>
      <use x="206.542969" xlink:href="#DejaVuSans-6f"/>
      <use x="267.724609" xlink:href="#DejaVuSans-64"/>
      <use x="331.201172" xlink:href="#DejaVuSans-65"/>
      <use x="392.724609" xlink:href="#DejaVuSans-73"/>
     </g>
    </g>
   </g>
   <g id="matplotlib.axis_2">
    <g id="ytick_1">
     <g id="line2d_19">
      <path clip-path="url(#p09ac71edaf)" d="M 57.6 265.236906 
L 414.72 265.236906 
" style="fill:none;stroke:#b0b0b0;stroke-linecap:square;stroke-width:0.8;"/>
     </g>
     <g id="line2d_20">
      <defs>
       <path d="M 0 0 
L -3.5 0 
" id="m83ad5fbfcc" style="stroke:#000000;stroke-width:0.8;"/>
      </defs>
      <g>
       <use style="stroke:#000000;stroke-width:0.8;" x="57.6" xlink:href="#m83ad5fbfcc" y="265.236906"/>
      </g>
     </g>
     <g id="text_11">
      <!-- −850 -->
      <g transform="translate(23.132812 269.036124)scale(0.1 -0.1)">
       <defs>
        <path d="M 678 2272 
L 4684 2272 
L 4684 1741 
L 678 1741 
L 678 2272 
z
" id="DejaVuSans-2212" transform="scale(0.015625)"/>
        <path d="M 2034 2216 
Q 1584 2216 1326 1975 
Q 1069 1734 1069 1313 
Q 1069 891 1326 650 
Q 1584 409 2034 409 
Q 2484 409 2743 651 
Q 3003 894 3003 1313 
Q 3003 1734 2745 1975 
Q 2488 2216 2034 2216 
z
M 1403 2484 
Q 997 2584 770 2862 
Q 544 3141 544 3541 
Q 544 4100 942 4425 
Q 1341 4750 2034 4750 
Q 2731 4750 3128 4425 
Q 3525 4100 3525 3541 
Q 3525 3141 3298 2862 
Q 3072 2584 2669 2484 
Q 3125 2378 3379 2068 
Q 3634 1759 3634 1313 
Q 3634 634 3220 271 
Q 2806 -91 2034 -91 
Q 1263 -91 848 271 
Q 434 634 434 1313 
Q 434 1759 690 2068 
Q 947 2378 1403 2484 
z
M 1172 3481 
Q 1172 3119 1398 2916 
Q 1625 2713 2034 2713 
Q 2441 2713 2670 2916 
Q 2900 3119 2900 3481 
Q 2900 3844 2670 4047 
Q 2441 4250 2034 4250 
Q 1625 4250 1398 4047 
Q 1172 3844 1172 3481 
z
" id="DejaVuSans-38" transform="scale(0.015625)"/>
       </defs>
       <use xlink:href="#DejaVuSans-2212"/>
       <use x="83.789062" xlink:href="#DejaVuSans-38"/>
       <use x="147.412109" xlink:href="#DejaVuSans-35"/>
       <use x="211.035156" xlink:href="#DejaVuSans-30"/>
      </g>
     </g>
    </g>
    <g id="ytick_2">
     <g id="line2d_21">
      <path clip-path="url(#p09ac71edaf)" d="M 57.6 212.422153 
L 414.72 212.422153 
" style="fill:none;stroke:#b0b0b0;stroke-linecap:square;stroke-width:0.8;"/>
     </g>
     <g id="line2d_22">
      <g>
       <use style="stroke:#000000;stroke-width:0.8;" x="57.6" xlink:href="#m83ad5fbfcc" y="212.422153"/>
      </g>
     </g>
     <g id="text_12">
      <!-- −800 -->
      <g transform="translate(23.132812 216.221372)scale(0.1 -0.1)">
       <use xlink:href="#DejaVuSans-2212"/>
       <use x="83.789062" xlink:href="#DejaVuSans-38"/>
       <use x="147.412109" xlink:href="#DejaVuSans-30"/>
       <use x="211.035156" xlink:href="#DejaVuSans-30"/>
      </g>
     </g>
    </g>
    <g id="ytick_3">
     <g id="line2d_23">
      <path clip-path="url(#p09ac71edaf)" d="M 57.6 159.6074 
L 414.72 159.6074 
" style="fill:none;stroke:#b0b0b0;stroke-linecap:square;stroke-width:0.8;"/>
     </g>
     <g id="line2d_24">
      <g>
       <use style="stroke:#000000;stroke-width:0.8;" x="57.6" xlink:href="#m83ad5fbfcc" y="159.6074"/>
      </g>
     </g>
     <g id="text_13">
      <!-- −750 -->
      <g transform="translate(23.132812 163.406619)scale(0.1 -0.1)">
       <defs>
        <path d="M 525 4666 
L 3525 4666 
L 3525 4397 
L 1831 0 
L 1172 0 
L 2766 4134 
L 525 4134 
L 525 4666 
z
" id="DejaVuSans-37" transform="scale(0.015625)"/>
       </defs>
       <use xlink:href="#DejaVuSans-2212"/>
       <use x="83.789062" xlink:href="#DejaVuSans-37"/>
       <use x="147.412109" xlink:href="#DejaVuSans-35"/>
       <use x="211.035156" xlink:href="#DejaVuSans-30"/>
      </g>
     </g>
    </g>
    <g id="ytick_4">
     <g id="line2d_25">
      <path clip-path="url(#p09ac71edaf)" d="M 57.6 106.792647 
L 414.72 106.792647 
" style="fill:none;stroke:#b0b0b0;stroke-linecap:square;stroke-width:0.8;"/>
     </g>
     <g id="line2d_26">
      <g>
       <use style="stroke:#000000;stroke-width:0.8;" x="57.6" xlink:href="#m83ad5fbfcc" y="106.792647"/>
      </g>
     </g>
     <g id="text_14">
      <!-- −700 -->
      <g transform="translate(23.132812 110.591866)scale(0.1 -0.1)">
       <use xlink:href="#DejaVuSans-2212"/>
       <use x="83.789062" xlink:href="#DejaVuSans-37"/>
       <use x="147.412109" xlink:href="#DejaVuSans-30"/>
       <use x="211.035156" xlink:href="#DejaVuSans-30"/>
      </g>
     </g>
    </g>
    <g id="ytick_5">
     <g id="line2d_27">
      <path clip-path="url(#p09ac71edaf)" d="M 57.6 53.977894 
L 414.72 53.977894 
" style="fill:none;stroke:#b0b0b0;stroke-linecap:square;stroke-width:0.8;"/>
     </g>
     <g id="line2d_28">
      <g>
       <use style="stroke:#000000;stroke-width:0.8;" x="57.6" xlink:href="#m83ad5fbfcc" y="53.977894"/>
      </g>
     </g>
     <g id="text_15">
      <!-- −650 -->
      <g transform="translate(23.132812 57.777113)scale(0.1 -0.1)">
       <defs>
        <path d="M 2113 2584 
Q 1688 2584 1439 2293 
Q 1191 2003 1191 1497 
Q 1191 994 1439 701 
Q 1688 409 2113 409 
Q 2538 409 2786 701 
Q 3034 994 3034 1497 
Q 3034 2003 2786 2293 
Q 2538 2584 2113 2584 
z
M 3366 4563 
L 3366 3988 
Q 3128 4100 2886 4159 
Q 2644 4219 2406 4219 
Q 1781 4219 1451 3797 
Q 1122 3375 1075 2522 
Q 1259 2794 1537 2939 
Q 1816 3084 2150 3084 
Q 2853 3084 3261 2657 
Q 3669 2231 3669 1497 
Q 3669 778 3244 343 
Q 2819 -91 2113 -91 
Q 1303 -91 875 529 
Q 447 1150 447 2328 
Q 447 3434 972 4092 
Q 1497 4750 2381 4750 
Q 2619 4750 2861 4703 
Q 3103 4656 3366 4563 
z
" id="DejaVuSans-36" transform="scale(0.015625)"/>
       </defs>
       <use xlink:href="#DejaVuSans-2212"/>
       <use x="83.789062" xlink:href="#DejaVuSans-36"/>
       <use x="147.412109" xlink:href="#DejaVuSans-35"/>
       <use x="211.035156" xlink:href="#DejaVuSans-30"/>
      </g>
     </g>
    </g>
    <g id="text_16">
     <!-- Cumulative Reward -->
     <g transform="translate(17.053125 223.275656)rotate(-90)scale(0.1 -0.1)">
      <defs>
       <path d="M 4122 4306 
L 4122 3641 
Q 3803 3938 3442 4084 
Q 3081 4231 2675 4231 
Q 1875 4231 1450 3742 
Q 1025 3253 1025 2328 
Q 1025 1406 1450 917 
Q 1875 428 2675 428 
Q 3081 428 3442 575 
Q 3803 722 4122 1019 
L 4122 359 
Q 3791 134 3420 21 
Q 3050 -91 2638 -91 
Q 1578 -91 968 557 
Q 359 1206 359 2328 
Q 359 3453 968 4101 
Q 1578 4750 2638 4750 
Q 3056 4750 3426 4639 
Q 3797 4528 4122 4306 
z
" id="DejaVuSans-43" transform="scale(0.015625)"/>
       <path d="M 544 1381 
L 544 3500 
L 1119 3500 
L 1119 1403 
Q 1119 906 1312 657 
Q 1506 409 1894 409 
Q 2359 409 2629 706 
Q 2900 1003 2900 1516 
L 2900 3500 
L 3475 3500 
L 3475 0 
L 2900 0 
L 2900 538 
Q 2691 219 2414 64 
Q 2138 -91 1772 -91 
Q 1169 -91 856 284 
Q 544 659 544 1381 
z
M 1991 3584 
L 1991 3584 
z
" id="DejaVuSans-75" transform="scale(0.015625)"/>
       <path d="M 3328 2828 
Q 3544 3216 3844 3400 
Q 4144 3584 4550 3584 
Q 5097 3584 5394 3201 
Q 5691 2819 5691 2113 
L 5691 0 
L 5113 0 
L 5113 2094 
Q 5113 2597 4934 2840 
Q 4756 3084 4391 3084 
Q 3944 3084 3684 2787 
Q 3425 2491 3425 1978 
L 3425 0 
L 2847 0 
L 2847 2094 
Q 2847 2600 2669 2842 
Q 2491 3084 2119 3084 
Q 1678 3084 1418 2786 
Q 1159 2488 1159 1978 
L 1159 0 
L 581 0 
L 581 3500 
L 1159 3500 
L 1159 2956 
Q 1356 3278 1631 3431 
Q 1906 3584 2284 3584 
Q 2666 3584 2933 3390 
Q 3200 3197 3328 2828 
z
" id="DejaVuSans-6d" transform="scale(0.015625)"/>
       <path d="M 603 4863 
L 1178 4863 
L 1178 0 
L 603 0 
L 603 4863 
z
" id="DejaVuSans-6c" transform="scale(0.015625)"/>
       <path d="M 2194 1759 
Q 1497 1759 1228 1600 
Q 959 1441 959 1056 
Q 959 750 1161 570 
Q 1363 391 1709 391 
Q 2188 391 2477 730 
Q 2766 1069 2766 1631 
L 2766 1759 
L 2194 1759 
z
M 3341 1997 
L 3341 0 
L 2766 0 
L 2766 531 
Q 2569 213 2275 61 
Q 1981 -91 1556 -91 
Q 1019 -91 701 211 
Q 384 513 384 1019 
Q 384 1609 779 1909 
Q 1175 2209 1959 2209 
L 2766 2209 
L 2766 2266 
Q 2766 2663 2505 2880 
Q 2244 3097 1772 3097 
Q 1472 3097 1187 3025 
Q 903 2953 641 2809 
L 641 3341 
Q 956 3463 1253 3523 
Q 1550 3584 1831 3584 
Q 2591 3584 2966 3190 
Q 3341 2797 3341 1997 
z
" id="DejaVuSans-61" transform="scale(0.015625)"/>
       <path d="M 1172 4494 
L 1172 3500 
L 2356 3500 
L 2356 3053 
L 1172 3053 
L 1172 1153 
Q 1172 725 1289 603 
Q 1406 481 1766 481 
L 2356 481 
L 2356 0 
L 1766 0 
Q 1100 0 847 248 
Q 594 497 594 1153 
L 594 3053 
L 172 3053 
L 172 3500 
L 594 3500 
L 594 4494 
L 1172 4494 
z
" id="DejaVuSans-74" transform="scale(0.015625)"/>
       <path d="M 191 3500 
L 800 3500 
L 1894 563 
L 2988 3500 
L 3597 3500 
L 2284 0 
L 1503 0 
L 191 3500 
z
" id="DejaVuSans-76" transform="scale(0.015625)"/>
       <path id="DejaVuSans-20" transform="scale(0.015625)"/>
       <path d="M 2841 2188 
Q 3044 2119 3236 1894 
Q 3428 1669 3622 1275 
L 4263 0 
L 3584 0 
L 2988 1197 
Q 2756 1666 2539 1819 
Q 2322 1972 1947 1972 
L 1259 1972 
L 1259 0 
L 628 0 
L 628 4666 
L 2053 4666 
Q 2853 4666 3247 4331 
Q 3641 3997 3641 3322 
Q 3641 2881 3436 2590 
Q 3231 2300 2841 2188 
z
M 1259 4147 
L 1259 2491 
L 2053 2491 
Q 2509 2491 2742 2702 
Q 2975 2913 2975 3322 
Q 2975 3731 2742 3939 
Q 2509 4147 2053 4147 
L 1259 4147 
z
" id="DejaVuSans-52" transform="scale(0.015625)"/>
       <path d="M 269 3500 
L 844 3500 
L 1563 769 
L 2278 3500 
L 2956 3500 
L 3675 769 
L 4391 3500 
L 4966 3500 
L 4050 0 
L 3372 0 
L 2619 2869 
L 1863 0 
L 1184 0 
L 269 3500 
z
" id="DejaVuSans-77" transform="scale(0.015625)"/>
       <path d="M 2631 2963 
Q 2534 3019 2420 3045 
Q 2306 3072 2169 3072 
Q 1681 3072 1420 2755 
Q 1159 2438 1159 1844 
L 1159 0 
L 581 0 
L 581 3500 
L 1159 3500 
L 1159 2956 
Q 1341 3275 1631 3429 
Q 1922 3584 2338 3584 
Q 2397 3584 2469 3576 
Q 2541 3569 2628 3553 
L 2631 2963 
z
" id="DejaVuSans-72" transform="scale(0.015625)"/>
      </defs>
      <use xlink:href="#DejaVuSans-43"/>
      <use x="69.824219" xlink:href="#DejaVuSans-75"/>
      <use x="133.203125" xlink:href="#DejaVuSans-6d"/>
      <use x="230.615234" xlink:href="#DejaVuSans-75"/>
      <use x="293.994141" xlink:href="#DejaVuSans-6c"/>
      <use x="321.777344" xlink:href="#DejaVuSans-61"/>
      <use x="383.056641" xlink:href="#DejaVuSans-74"/>
      <use x="422.265625" xlink:href="#DejaVuSans-69"/>
      <use x="450.048828" xlink:href="#DejaVuSans-76"/>
      <use x="509.228516" xlink:href="#DejaVuSans-65"/>
      <use x="570.751953" xlink:href="#DejaVuSans-20"/>
      <use x="602.539062" xlink:href="#DejaVuSans-52"/>
      <use x="667.521484" xlink:href="#DejaVuSans-65"/>
      <use x="729.044922" xlink:href="#DejaVuSans-77"/>
      <use x="810.832031" xlink:href="#DejaVuSans-61"/>
      <use x="872.111328" xlink:href="#DejaVuSans-72"/>
      <use x="911.474609" xlink:href="#DejaVuSans-64"/>
     </g>
    </g>
   </g>
   <g id="line2d_29">
    <path clip-path="url(#p09ac71edaf)" d="M 57.6 204.233267 
L 57.77856 154.517157 
L 57.95712 204.233267 
L 58.13568 154.517157 
L 58.31424 204.233267 
L 58.4928 154.517157 
L 58.67136 204.233267 
L 58.84992 154.517157 
L 59.02848 204.233267 
L 59.20704 154.517157 
L 59.3856 204.233267 
L 59.56416 154.517157 
L 59.74272 204.233267 
L 59.92128 154.517157 
L 60.09984 204.233267 
L 60.2784 154.517157 
L 60.45696 204.233267 
L 60.63552 154.517157 
L 60.81408 204.233267 
L 60.99264 154.517157 
L 61.1712 204.233267 
L 61.34976 154.517157 
L 61.52832 204.233267 
L 61.70688 154.517157 
L 61.88544 204.233267 
L 62.064 154.517157 
L 62.24256 204.233267 
L 62.42112 154.517157 
L 62.59968 204.233267 
L 62.77824 154.517157 
L 62.9568 204.233267 
L 63.13536 154.517157 
L 63.31392 204.233267 
L 63.49248 154.517157 
L 63.67104 204.233267 
L 63.8496 154.517157 
L 64.02816 204.233267 
L 64.20672 154.517157 
L 64.38528 204.233267 
L 64.56384 154.517157 
L 64.7424 204.233267 
L 64.92096 154.517157 
L 65.09952 204.233267 
L 65.27808 154.517157 
L 65.45664 204.233267 
L 65.6352 154.517157 
L 65.81376 204.233267 
L 65.99232 154.517157 
L 66.17088 204.233267 
L 66.34944 154.517157 
L 66.61728 231.809741 
L 66.79584 171.464314 
L 66.88512 247.187158 
L 66.9744 238.958413 
L 67.15296 172.851297 
L 67.24224 201.859703 
L 67.33152 175.534543 
L 67.4208 213.509272 
L 67.51008 150.387723 
L 67.59936 264.185213 
L 67.77792 199.150526 
L 67.95648 123.57764 
L 68.13504 192.034694 
L 68.22432 217.75794 
L 68.3136 172.790104 
L 68.49216 209.337849 
L 68.58144 144.930712 
L 68.67072 147.975487 
L 68.76 202.763846 
L 68.84928 127.634213 
L 68.93856 151.010189 
L 69.02784 214.252414 
L 69.11712 192.466014 
L 69.2064 230.353778 
L 69.29568 182.360374 
L 69.38496 220.057637 
L 69.47424 132.491517 
L 69.56352 224.734758 
L 69.6528 186.608744 
L 69.74208 253.790394 
L 69.83136 167.133863 
L 69.92064 186.083839 
L 70.00992 224.659726 
L 70.0992 95.076649 
L 70.18848 179.011083 
L 70.27776 167.773669 
L 70.36704 183.342723 
L 70.45632 234.633117 
L 70.5456 131.54947 
L 70.63488 151.507937 
L 70.72416 184.202559 
L 70.81344 101.842241 
L 71.17056 255.339394 
L 71.4384 153.511527 
L 71.52768 169.973196 
L 71.61696 232.324246 
L 71.79552 159.70395 
L 71.8848 244.601914 
L 71.97408 202.69942 
L 72.06336 207.696016 
L 72.15264 285.408 
L 72.3312 149.164352 
L 72.50976 216.089832 
L 72.59904 175.353852 
L 72.68832 222.485201 
L 72.7776 128.065279 
L 72.86688 147.062533 
L 73.04544 189.819825 
L 73.13472 177.442181 
L 73.224 260.366876 
L 73.6704 120.444326 
L 73.93824 283.264833 
L 74.02752 165.695321 
L 74.1168 209.686463 
L 74.20608 173.293219 
L 74.29536 232.163983 
L 74.38464 137.06134 
L 74.47392 159.616688 
L 74.5632 176.833706 
L 74.74176 157.776435 
L 74.92032 182.849007 
L 75.09888 169.451459 
L 75.18816 185.700465 
L 75.27744 154.155941 
L 75.36672 160.792973 
L 75.456 162.705053 
L 75.54528 266.332723 
L 75.72384 126.75965 
L 75.81312 204.135947 
L 75.9024 113.782393 
L 76.08096 214.15565 
L 76.17024 194.667728 
L 76.25952 149.048384 
L 76.3488 172.664163 
L 76.43808 139.314935 
L 76.61664 165.028734 
L 76.70592 160.774448 
L 76.7952 129.883957 
L 76.97376 193.203812 
L 77.06304 156.463344 
L 77.15232 194.890277 
L 77.2416 123.959156 
L 77.33088 212.983987 
L 77.50944 161.538301 
L 77.59872 240.760576 
L 77.688 162.909136 
L 77.77728 198.707066 
L 77.86656 129.058786 
L 77.95584 227.006421 
L 78.04512 184.517098 
L 78.1344 228.000021 
L 78.22368 166.363816 
L 78.31296 199.119034 
L 78.5808 130.056178 
L 78.75936 173.980935 
L 78.84864 167.789935 
L 78.93792 134.860114 
L 79.0272 142.176982 
L 79.11648 178.58267 
L 79.29504 122.713925 
L 79.38432 164.782812 
L 79.4736 108.897285 
L 79.65216 176.497348 
L 79.74144 162.836141 
L 79.92 197.185902 
L 80.27712 145.80991 
L 80.3664 154.482843 
L 80.45568 164.818959 
L 80.63424 157.966762 
L 80.8128 146.23803 
L 80.90208 106.346919 
L 80.99136 191.18343 
L 81.16992 135.88283 
L 81.2592 142.849932 
L 81.43776 167.969806 
L 81.52704 124.322043 
L 81.7056 176.697475 
L 81.79488 166.437903 
L 81.97344 198.177824 
L 82.152 100.950532 
L 82.24128 125.871622 
L 82.33056 231.572331 
L 82.50912 146.442462 
L 82.5984 146.29563 
L 82.68768 150.608275 
L 82.77696 116.604175 
L 82.86624 151.102702 
L 82.95552 137.839462 
L 83.0448 170.426029 
L 83.22336 133.478555 
L 83.4912 158.541199 
L 83.66976 93.975331 
L 83.75904 185.239832 
L 83.9376 121.194357 
L 84.02688 202.565087 
L 84.11616 132.822752 
L 84.20544 165.908576 
L 84.29472 161.600169 
L 84.384 130.092429 
L 84.56256 155.616243 
L 84.65184 226.885163 
L 84.74112 125.35714 
L 84.8304 137.700491 
L 84.91968 135.020936 
L 85.00896 164.71009 
L 85.09824 141.74203 
L 85.18752 183.023636 
L 85.2768 124.69912 
L 85.36608 148.871873 
L 85.45536 142.214252 
L 85.54464 126.764861 
L 85.63392 226.632523 
L 85.81248 150.580063 
L 85.99104 174.940516 
L 86.08032 173.692835 
L 86.1696 127.197843 
L 86.43744 212.313039 
L 86.52672 140.847087 
L 86.616 179.363218 
L 86.70528 177.013974 
L 86.79456 184.122225 
L 87.0624 133.920048 
L 87.15168 165.581999 
L 87.33024 125.550082 
L 87.41952 132.774561 
L 87.5088 121.23735 
L 87.59808 146.690915 
L 87.77664 125.680139 
L 87.86592 181.259654 
L 88.04448 121.03538 
L 88.13376 168.548797 
L 88.31232 129.205483 
L 88.4016 142.64418 
L 88.58016 189.697607 
L 88.66944 121.073364 
L 88.75872 138.750383 
L 88.848 111.314191 
L 88.93728 146.357811 
L 89.02656 120.604825 
L 89.11584 229.940681 
L 89.20512 136.934561 
L 89.2944 148.437327 
L 89.38368 219.954718 
L 89.56224 125.951859 
L 89.65152 174.88211 
L 89.7408 158.51628 
L 89.83008 110.329842 
L 90.09792 197.289556 
L 90.27648 107.240024 
L 90.36576 180.472525 
L 90.45504 167.305079 
L 90.54432 89.735784 
L 90.6336 170.429008 
L 90.81216 85.614241 
L 90.90144 224.710828 
L 91.16928 129.623148 
L 91.25856 177.894482 
L 91.34784 120.800336 
L 91.43712 155.065942 
L 91.70496 115.402723 
L 91.88352 153.397804 
L 91.9728 117.769146 
L 92.06208 128.460754 
L 92.15136 183.321827 
L 92.24064 174.829014 
L 92.4192 108.968865 
L 92.50848 175.265481 
L 92.59776 99.44092 
L 92.68704 110.878238 
L 92.77632 115.3502 
L 92.8656 164.551254 
L 92.95488 139.822297 
L 93.04416 170.92491 
L 93.22272 119.608533 
L 93.312 147.803362 
L 93.49056 110.28547 
L 93.57984 151.769316 
L 93.66912 142.291075 
L 93.7584 115.122747 
L 93.84768 119.45669 
L 94.02624 159.297555 
L 94.11552 139.170178 
L 94.29408 153.710879 
L 94.38336 127.873991 
L 94.47264 129.567653 
L 94.56192 130.555522 
L 94.74048 143.068081 
L 94.91904 101.866847 
L 95.00832 139.967863 
L 95.0976 125.571182 
L 95.18688 170.909065 
L 95.27616 85.000486 
L 95.36544 146.502771 
L 95.45472 137.311415 
L 95.544 131.014591 
L 95.72256 111.312288 
L 95.90112 152.441683 
L 96.07968 130.995733 
L 96.16896 130.518247 
L 96.25824 146.604657 
L 96.34752 103.19628 
L 96.4368 160.202134 
L 96.61536 124.191593 
L 96.70464 127.109191 
L 96.79392 128.517747 
L 96.8832 92.685829 
L 96.97248 130.120606 
L 97.06176 118.228278 
L 97.24032 140.434545 
L 97.3296 162.650549 
L 97.41888 106.951694 
L 97.50816 112.917525 
L 97.59744 153.127226 
L 97.68672 144.480404 
L 97.776 144.334844 
L 97.86528 154.546562 
L 97.95456 86.054643 
L 98.13312 160.373825 
L 98.2224 146.208193 
L 98.31168 162.626229 
L 98.40096 119.693688 
L 98.49024 142.819136 
L 98.6688 110.595043 
L 98.75808 136.355449 
L 98.84736 98.434864 
L 98.93664 126.560031 
L 99.02592 116.401419 
L 99.1152 154.522221 
L 99.20448 111.046122 
L 99.29376 188.960055 
L 99.38304 116.142039 
L 99.47232 124.608442 
L 99.5616 80.228984 
L 99.74016 124.488348 
L 99.82944 125.026674 
L 99.91872 108.632703 
L 100.008 130.763434 
L 100.09728 92.504384 
L 100.18656 177.330026 
L 100.36512 122.093251 
L 100.4544 118.092561 
L 100.54368 126.458812 
L 100.63296 123.47307 
L 100.72224 106.876035 
L 100.81152 137.779615 
L 100.9008 87.039192 
L 100.99008 160.764237 
L 101.07936 151.434382 
L 101.16864 164.204622 
L 101.25792 108.128634 
L 101.3472 149.659182 
L 101.43648 90.595983 
L 101.70432 144.733068 
L 101.7936 122.315794 
L 101.88288 161.763665 
L 102.15072 130.167342 
L 102.24 156.874259 
L 102.32928 153.349875 
L 102.41856 135.11146 
L 102.50784 148.394203 
L 102.6864 134.526236 
L 102.77568 155.4528 
L 102.95424 125.121598 
L 103.04352 157.094586 
L 103.1328 104.246491 
L 103.31136 162.037701 
L 103.40064 154.588252 
L 103.5792 130.499669 
L 103.75776 147.914841 
L 103.84704 118.265967 
L 103.93632 149.528822 
L 104.0256 117.307698 
L 104.20416 148.355331 
L 104.29344 134.906404 
L 104.472 148.364403 
L 104.56128 96.267 
L 104.65056 156.442782 
L 104.73984 150.862194 
L 104.82912 151.986813 
L 104.9184 129.603029 
L 105.00768 172.944584 
L 105.18624 119.751144 
L 105.27552 135.174401 
L 105.3648 116.872539 
L 105.45408 139.420531 
L 105.54336 139.145237 
L 105.63264 119.286111 
L 105.8112 159.58547 
L 105.90048 144.649049 
L 105.98976 103.96234 
L 106.07904 125.631516 
L 106.16832 95.648331 
L 106.34688 151.910659 
L 106.43616 131.407036 
L 106.52544 144.247564 
L 106.61472 131.07143 
L 106.704 91.61642 
L 106.79328 137.802195 
L 106.88256 90.629319 
L 106.97184 148.202502 
L 107.1504 112.900327 
L 107.32896 107.544293 
L 107.41824 138.705574 
L 107.50752 136.860675 
L 107.5968 140.479825 
L 107.77536 175.931265 
L 107.86464 174.573085 
L 108.0432 145.008054 
L 108.13248 191.4174 
L 108.31104 110.337895 
L 108.40032 212.251584 
L 108.4896 118.977646 
L 108.57888 167.909905 
L 108.66816 125.132057 
L 108.84672 178.341903 
L 109.02528 92.296404 
L 109.29312 149.161166 
L 109.47168 122.54 
L 109.56096 166.877928 
L 109.65024 165.817645 
L 109.73952 102.569854 
L 109.8288 130.411686 
L 109.91808 95.65296 
L 110.00736 132.916084 
L 110.09664 106.012355 
L 110.18592 160.400421 
L 110.2752 141.91149 
L 110.45376 162.450814 
L 110.54304 139.354786 
L 110.63232 147.795902 
L 110.7216 119.891555 
L 110.81088 121.099875 
L 110.90016 131.529717 
L 110.98944 167.00989 
L 111.168 113.377809 
L 111.34656 143.105059 
L 111.43584 149.405511 
L 111.52512 109.224396 
L 111.6144 167.641208 
L 111.70368 142.472619 
L 111.79296 143.274746 
L 111.88224 144.833272 
L 111.97152 103.757595 
L 112.0608 136.954319 
L 112.15008 97.038441 
L 112.32864 131.275389 
L 112.5072 116.129758 
L 112.59648 106.742435 
L 112.68576 168.360627 
L 112.77504 103.145031 
L 112.86432 144.313194 
L 112.9536 134.953234 
L 113.04288 141.10516 
L 113.13216 116.359528 
L 113.22144 125.902029 
L 113.31072 156.942239 
L 113.4 116.410118 
L 113.57856 140.345809 
L 113.75712 114.112444 
L 113.8464 118.704574 
L 113.93568 134.699608 
L 114.11424 114.676827 
L 114.2928 152.878412 
L 114.38208 121.573623 
L 114.47136 156.921705 
L 114.56064 112.052051 
L 114.64992 149.823994 
L 114.7392 123.562357 
L 114.82848 151.416082 
L 114.91776 100.590905 
L 115.1856 130.565994 
L 115.27488 113.759379 
L 115.36416 142.177456 
L 115.45344 128.210024 
L 115.54272 129.820321 
L 115.632 125.73946 
L 115.72128 107.241844 
L 115.81056 132.410771 
L 115.89984 112.69342 
L 115.98912 133.084064 
L 116.0784 183.18498 
L 116.16768 115.864921 
L 116.43552 174.391571 
L 116.61408 90.592751 
L 116.79264 156.282189 
L 116.88192 159.351454 
L 116.9712 72.889443 
L 117.32832 183.393945 
L 117.4176 142.637805 
L 117.50688 147.161325 
L 117.59616 133.730703 
L 117.68544 185.903512 
L 117.77472 128.515812 
L 117.864 144.682197 
L 117.95328 128.593841 
L 118.04256 144.166912 
L 118.22112 119.551962 
L 118.3104 183.607945 
L 118.48896 112.153797 
L 118.57824 112.97685 
L 118.66752 159.780138 
L 118.7568 143.219336 
L 118.84608 90.270964 
L 118.93536 110.491179 
L 119.02464 161.576809 
L 119.11392 96.553795 
L 119.38176 171.019258 
L 119.47104 119.058607 
L 119.56032 143.627134 
L 119.73888 107.255267 
L 119.82816 110.716162 
L 119.91744 107.377163 
L 120.00672 138.178406 
L 120.096 120.389337 
L 120.18528 127.372826 
L 120.27456 109.679949 
L 120.36384 124.236239 
L 120.5424 185.949225 
L 120.63168 106.179131 
L 120.72096 149.709093 
L 120.89952 109.659465 
L 120.9888 166.638047 
L 121.16736 140.330355 
L 121.25664 165.741648 
L 121.34592 100.995881 
L 121.52448 133.809594 
L 121.61376 133.643344 
L 121.70304 125.005057 
L 121.79232 142.016812 
L 122.06016 90.066747 
L 122.14944 151.236921 
L 122.23872 89.500271 
L 122.328 159.31054 
L 122.41728 87.112735 
L 122.50656 186.915319 
L 122.68512 122.058148 
L 122.7744 133.060138 
L 122.86368 152.787658 
L 123.04224 101.761234 
L 123.13152 149.64844 
L 123.2208 130.134402 
L 123.31008 166.373186 
L 123.39936 108.719577 
L 123.48864 162.810141 
L 123.57792 120.82762 
L 123.6672 144.837372 
L 123.75648 140.165234 
L 123.84576 149.848102 
L 123.93504 140.876332 
L 124.02432 113.817281 
L 124.1136 128.828672 
L 124.20288 120.0246 
L 124.29216 95.68946 
L 124.38144 109.361952 
L 124.47072 145.897738 
L 124.64928 120.047832 
L 124.82784 183.194479 
L 125.0064 125.447073 
L 125.09568 111.052498 
L 125.18496 122.285555 
L 125.27424 148.114394 
L 125.36352 100.981976 
L 125.63136 160.824062 
L 125.72064 140.095926 
L 125.80992 144.952536 
L 125.8992 161.071714 
L 125.98848 116.248471 
L 126.07776 131.231927 
L 126.16704 115.118419 
L 126.3456 141.03103 
L 126.43488 112.77997 
L 126.70272 159.999122 
L 126.792 114.026863 
L 126.88128 121.927857 
L 126.97056 96.300192 
L 127.05984 137.895547 
L 127.14912 117.216612 
L 127.2384 162.995698 
L 127.41696 103.990101 
L 127.50624 136.774192 
L 127.6848 115.92779 
L 127.95264 154.797736 
L 128.04192 89.904492 
L 128.22048 175.910158 
L 128.30976 146.53092 
L 128.39904 170.359903 
L 128.48832 118.203697 
L 128.66688 179.682065 
L 128.75616 137.4881 
L 128.84544 173.404579 
L 128.93472 124.300268 
L 129.024 129.445706 
L 129.20256 156.052444 
L 129.29184 106.615321 
L 129.38112 125.073642 
L 129.4704 117.819917 
L 129.55968 182.692269 
L 129.73824 117.385049 
L 129.9168 138.320277 
L 130.00608 182.969031 
L 130.18464 112.149037 
L 130.27392 111.257901 
L 130.3632 116.503432 
L 130.45248 102.212645 
L 130.54176 147.615207 
L 130.63104 144.138746 
L 130.8096 112.236565 
L 130.89888 105.141703 
L 130.98816 126.565497 
L 131.07744 107.752692 
L 131.16672 162.745665 
L 131.256 108.031589 
L 131.34528 125.274437 
L 131.43456 86.379895 
L 131.52384 141.372339 
L 131.61312 100.421594 
L 131.7024 129.177276 
L 131.79168 91.695836 
L 131.97024 124.024104 
L 132.1488 95.359287 
L 132.23808 166.874401 
L 132.32736 133.158257 
L 132.41664 135.55859 
L 132.50592 173.01435 
L 132.5952 105.048135 
L 132.77376 160.394431 
L 132.95232 117.228805 
L 133.0416 114.438313 
L 133.13088 118.366416 
L 133.22016 104.71951 
L 133.30944 128.794192 
L 133.39872 86.857301 
L 133.488 148.301442 
L 133.57728 122.596293 
L 133.66656 173.134682 
L 133.84512 118.656943 
L 133.9344 145.768824 
L 134.02368 139.814398 
L 134.11296 118.231761 
L 134.29152 154.730521 
L 134.3808 132.869112 
L 134.47008 141.916957 
L 134.55936 98.146874 
L 134.64864 113.302237 
L 134.73792 110.400757 
L 134.91648 106.89236 
L 135.00576 155.466175 
L 135.2736 119.071617 
L 135.36288 140.51938 
L 135.45216 116.767993 
L 135.54144 133.13268 
L 135.63072 128.029455 
L 135.72 114.479153 
L 135.80928 116.892874 
L 135.89856 119.877164 
L 135.98784 134.241564 
L 136.1664 119.477356 
L 136.25568 123.536401 
L 136.43424 109.888686 
L 136.70208 162.712348 
L 136.79136 149.035743 
L 136.88064 115.907075 
L 136.96992 129.891909 
L 137.0592 112.814238 
L 137.14848 137.059891 
L 137.32704 115.566305 
L 137.41632 118.73009 
L 137.5056 136.556252 
L 137.59488 117.467215 
L 137.68416 124.787727 
L 137.77344 117.006509 
L 137.86272 95.101125 
L 137.952 130.94906 
L 138.04128 118.427337 
L 138.13056 123.142467 
L 138.30912 110.96994 
L 138.3984 129.036164 
L 138.48768 99.456138 
L 138.57696 134.707849 
L 138.66624 119.706004 
L 138.75552 128.821794 
L 138.93408 91.09218 
L 139.11264 148.147035 
L 139.20192 105.329518 
L 139.2912 169.880839 
L 139.38048 109.628831 
L 139.55904 137.279026 
L 139.64832 114.94175 
L 139.7376 125.714559 
L 139.82688 101.86926 
L 139.91616 137.206234 
L 140.00544 132.133956 
L 140.27328 112.401654 
L 140.45184 137.454444 
L 140.54112 107.284021 
L 140.6304 153.453131 
L 140.71968 145.481449 
L 140.80896 90.727032 
L 140.89824 128.166674 
L 140.98752 73.187855 
L 141.0768 115.935995 
L 141.16608 104.203167 
L 141.25536 132.517954 
L 141.34464 98.57422 
L 141.43392 137.151997 
L 141.5232 126.574734 
L 141.61248 91.185107 
L 141.70176 147.696692 
L 141.79104 144.84484 
L 141.88032 115.534268 
L 142.05888 148.647116 
L 142.23744 114.722262 
L 142.416 187.748229 
L 142.50528 114.590947 
L 142.59456 152.747534 
L 142.77312 123.635325 
L 142.8624 139.492697 
L 142.95168 126.481046 
L 143.04096 153.321646 
L 143.13024 115.108361 
L 143.21952 117.107576 
L 143.3088 119.927515 
L 143.57664 144.069849 
L 143.66592 108.033965 
L 143.84448 135.255976 
L 144.02304 95.216673 
L 144.2016 119.129405 
L 144.29088 115.871215 
L 144.38016 135.747868 
L 144.46944 102.935697 
L 144.55872 142.749797 
L 144.648 121.094564 
L 144.73728 121.687343 
L 144.82656 145.38513 
L 144.91584 138.546738 
L 145.00512 100.583245 
L 145.0944 104.983686 
L 145.18368 109.285234 
L 145.36224 106.238806 
L 145.45152 95.190581 
L 145.63008 148.99659 
L 145.80864 120.221309 
L 145.89792 135.733236 
L 145.9872 127.855834 
L 146.07648 130.06111 
L 146.16576 107.944433 
L 146.25504 116.728903 
L 146.4336 96.7524 
L 146.70144 133.531619 
L 146.79072 117.804921 
L 146.88 148.088082 
L 147.05856 106.692024 
L 147.14784 140.950648 
L 147.41568 94.39598 
L 147.59424 147.976764 
L 147.68352 69.147365 
L 147.7728 123.268016 
L 147.86208 95.615842 
L 147.95136 176.662672 
L 148.04064 139.309113 
L 148.12992 150.315105 
L 148.2192 91.288329 
L 148.30848 129.763002 
L 148.39776 117.077068 
L 148.48704 157.929336 
L 148.57632 124.807588 
L 148.75488 182.75475 
L 148.84416 119.27875 
L 148.93344 133.41844 
L 149.02272 83.796766 
L 149.20128 125.937767 
L 149.29056 99.73066 
L 149.46912 149.113263 
L 149.64768 124.941462 
L 149.73696 125.139561 
L 149.82624 123.290052 
L 149.91552 102.83103 
L 150.0048 169.950715 
L 150.09408 116.678022 
L 150.18336 123.188688 
L 150.36192 103.082218 
L 150.54048 159.958354 
L 150.62976 124.154948 
L 150.71904 128.224924 
L 150.8976 119.366015 
L 150.98688 130.329088 
L 151.16544 98.489227 
L 151.344 140.606844 
L 151.43328 117.583315 
L 151.70112 162.201951 
L 151.7904 140.863602 
L 151.87968 169.4581 
L 151.96896 119.656541 
L 152.05824 167.293768 
L 152.14752 130.76773 
L 152.2368 140.842613 
L 152.32608 138.726055 
L 152.59392 95.4664 
L 152.77248 129.643071 
L 152.86176 153.287281 
L 152.95104 112.855159 
L 153.04032 115.162874 
L 153.30816 146.625606 
L 153.39744 107.484067 
L 153.48672 119.506799 
L 153.576 106.767416 
L 153.66528 136.289778 
L 153.75456 109.522585 
L 153.84384 123.414074 
L 153.93312 118.135787 
L 154.0224 146.168851 
L 154.11168 123.815984 
L 154.20096 124.640171 
L 154.37952 161.838546 
L 154.4688 103.728713 
L 154.55808 140.145331 
L 154.64736 104.619516 
L 154.73664 168.701403 
L 154.82592 156.665435 
L 154.9152 151.987591 
L 155.00448 174.918739 
L 155.09376 126.222641 
L 155.18304 131.308384 
L 155.27232 134.451161 
L 155.3616 123.162898 
L 155.45088 125.160714 
L 155.54016 130.500411 
L 155.62944 125.917158 
L 155.71872 128.269342 
L 155.98656 117.179071 
L 156.07584 156.864461 
L 156.34368 102.364043 
L 156.61152 128.16455 
L 156.79008 95.023633 
L 156.87936 150.570327 
L 156.96864 116.34493 
L 157.05792 127.075832 
L 157.23648 114.339222 
L 157.32576 120.805692 
L 157.50432 146.930115 
L 157.5936 148.748346 
L 157.68288 156.117012 
L 157.77216 112.416434 
L 157.86144 119.777925 
L 157.95072 152.689963 
L 158.04 110.853992 
L 158.12928 172.568604 
L 158.21856 105.82956 
L 158.30784 117.493347 
L 158.39712 118.322771 
L 158.66496 141.218364 
L 158.75424 130.90478 
L 158.84352 134.939104 
L 158.9328 134.511438 
L 159.11136 111.203164 
L 159.20064 114.707252 
L 159.3792 157.407364 
L 159.46848 96.819972 
L 159.73632 136.233116 
L 159.91488 143.250691 
L 160.00416 174.1099 
L 160.09344 120.262925 
L 160.18272 137.157384 
L 160.272 132.754384 
L 160.45056 147.869633 
L 160.53984 112.161556 
L 160.62912 165.52395 
L 160.7184 106.935198 
L 160.80768 135.271361 
L 160.98624 107.609859 
L 161.07552 107.007561 
L 161.25408 215.966227 
L 161.34336 94.499067 
L 161.43264 164.21513 
L 161.52192 119.970113 
L 161.6112 175.511355 
L 161.87904 102.191618 
L 162.14688 141.224163 
L 162.23616 138.450895 
L 162.32544 119.807678 
L 162.59328 152.545847 
L 162.77184 115.642755 
L 162.86112 100.05829 
L 163.03968 143.387375 
L 163.21824 104.700654 
L 163.30752 114.971001 
L 163.3968 78.361112 
L 163.48608 137.13863 
L 163.75392 96.239222 
L 163.8432 133.599875 
L 163.93248 112.851932 
L 164.11104 162.279429 
L 164.20032 111.11172 
L 164.37888 164.031604 
L 164.46816 153.630153 
L 164.64672 113.069915 
L 164.736 110.739125 
L 164.82528 184.693272 
L 164.91456 131.026443 
L 165.00384 153.449632 
L 165.09312 139.873791 
L 165.1824 194.07237 
L 165.27168 120.093611 
L 165.36096 120.258374 
L 165.45024 137.536314 
L 165.53952 136.688774 
L 165.6288 93.285954 
L 165.80736 130.074007 
L 165.89664 109.63616 
L 166.0752 189.618898 
L 166.34304 146.516001 
L 166.43232 186.77399 
L 166.5216 99.019612 
L 166.61088 102.096239 
L 166.70016 149.032666 
L 166.78944 111.841245 
L 166.87872 143.758183 
L 166.968 139.698099 
L 167.05728 151.772975 
L 167.14656 146.591095 
L 167.32512 125.301152 
L 167.4144 145.987732 
L 167.50368 124.397201 
L 167.59296 150.604091 
L 167.68224 108.399631 
L 167.8608 153.346447 
L 167.95008 110.644979 
L 168.03936 154.52303 
L 168.12864 125.829241 
L 168.21792 127.241799 
L 168.3072 109.892911 
L 168.48576 157.347714 
L 168.66432 137.65214 
L 168.7536 95.36806 
L 168.84288 153.215414 
L 168.93216 109.30862 
L 169.2 151.026331 
L 169.37856 107.774963 
L 169.46784 154.464176 
L 169.55712 117.510128 
L 169.6464 144.146057 
L 169.73568 95.702319 
L 169.91424 156.977603 
L 170.00352 121.938162 
L 170.0928 135.969422 
L 170.27136 104.885595 
L 170.36064 105.926465 
L 170.62848 164.567865 
L 170.71776 157.346524 
L 170.80704 114.299946 
L 170.89632 122.679442 
L 170.9856 124.278638 
L 171.07488 142.276919 
L 171.16416 117.963849 
L 171.25344 146.372588 
L 171.34272 119.162879 
L 171.432 190.382856 
L 171.52128 110.684636 
L 171.61056 139.091127 
L 171.69984 116.86009 
L 171.78912 157.735514 
L 171.8784 146.882711 
L 172.05696 115.404112 
L 172.14624 136.384577 
L 172.23552 119.321682 
L 172.3248 166.815022 
L 172.41408 140.80648 
L 172.50336 164.142221 
L 172.7712 106.994183 
L 172.86048 120.24744 
L 172.94976 155.077442 
L 173.12832 110.109817 
L 173.2176 232.602541 
L 173.30688 153.973418 
L 173.39616 196.286748 
L 173.48544 102.497339 
L 173.57472 136.330095 
L 173.664 109.37505 
L 173.75328 173.070778 
L 173.84256 123.921438 
L 173.93184 176.505845 
L 174.02112 102.456012 
L 174.1104 112.0578 
L 174.28896 161.68295 
L 174.46752 125.414319 
L 174.5568 157.457037 
L 174.64608 154.505887 
L 174.73536 123.696381 
L 174.91392 161.060331 
L 175.0032 176.439089 
L 175.27104 122.267464 
L 175.36032 170.122861 
L 175.53888 136.585196 
L 175.62816 150.000286 
L 175.71744 143.11147 
L 175.80672 150.183479 
L 175.98528 95.993193 
L 176.07456 128.095703 
L 176.16384 100.288779 
L 176.25312 131.868216 
L 176.43168 114.116481 
L 176.52096 141.991864 
L 176.61024 114.237095 
L 176.69952 165.222782 
L 176.7888 115.271034 
L 176.87808 157.393781 
L 176.96736 156.842489 
L 177.05664 97.395388 
L 177.14592 103.802021 
L 177.2352 165.771054 
L 177.32448 120.159134 
L 177.41376 157.572577 
L 177.59232 120.576252 
L 177.6816 151.676628 
L 177.94944 95.199794 
L 178.03872 136.144774 
L 178.128 102.836152 
L 178.21728 111.353261 
L 178.30656 161.973541 
L 178.39584 160.672777 
L 178.48512 101.892166 
L 178.66368 157.156261 
L 178.75296 110.544 
L 178.84224 165.30957 
L 178.93152 162.34697 
L 179.0208 164.198556 
L 179.11008 117.298264 
L 179.19936 146.193561 
L 179.28864 143.935903 
L 179.37792 153.682693 
L 179.4672 138.188777 
L 179.55648 100.326588 
L 179.73504 149.475327 
L 179.82432 121.803067 
L 179.9136 135.717212 
L 180.00288 108.422343 
L 180.27072 142.672085 
L 180.36 139.22125 
L 180.44928 103.332993 
L 180.62784 146.657314 
L 180.71712 134.48562 
L 180.8064 92.295204 
L 181.07424 187.785386 
L 181.2528 113.081065 
L 181.34208 162.591884 
L 181.43136 158.407061 
L 181.6992 108.894659 
L 181.96704 152.272333 
L 182.1456 108.085923 
L 182.23488 111.531689 
L 182.41344 142.323515 
L 182.592 104.793757 
L 182.68128 112.404621 
L 182.77056 84.157698 
L 182.85984 167.338114 
L 182.94912 148.188014 
L 183.0384 130.731492 
L 183.12768 154.413379 
L 183.30624 86.913003 
L 183.39552 116.214189 
L 183.4848 106.541898 
L 183.57408 133.719744 
L 183.66336 113.071308 
L 183.84192 146.442967 
L 184.02048 96.3361 
L 184.10976 133.934972 
L 184.28832 101.528144 
L 184.3776 175.297647 
L 184.55616 120.403597 
L 184.64544 132.728978 
L 184.824 97.068571 
L 185.00256 142.675374 
L 185.09184 142.335831 
L 185.18112 139.526274 
L 185.2704 198.859522 
L 185.35968 107.038175 
L 185.44896 141.135496 
L 185.53824 129.411196 
L 185.62752 176.416605 
L 185.7168 120.633207 
L 185.80608 145.092842 
L 185.89536 92.319031 
L 185.98464 124.481945 
L 186.07392 109.29337 
L 186.1632 113.023306 
L 186.34176 143.264148 
L 186.43104 107.352734 
L 186.52032 112.912401 
L 186.6096 113.40939 
L 186.69888 99.733885 
L 186.96672 149.097979 
L 187.056 137.312644 
L 187.23456 143.401448 
L 187.32384 121.128321 
L 187.41312 133.661337 
L 187.68096 111.957164 
L 187.85952 126.405147 
L 187.9488 146.008293 
L 188.12736 97.388111 
L 188.21664 119.791203 
L 188.30592 113.918268 
L 188.3952 124.779957 
L 188.48448 106.961385 
L 188.57376 110.215776 
L 188.66304 108.604364 
L 188.75232 156.623031 
L 189.02016 81.292803 
L 189.19872 134.368291 
L 189.37728 90.411319 
L 189.64512 127.245801 
L 189.7344 118.68061 
L 189.82368 135.142995 
L 190.00224 104.647583 
L 190.09152 108.277738 
L 190.1808 112.354227 
L 190.35936 137.545304 
L 190.44864 114.29782 
L 190.53792 125.066696 
L 190.6272 116.546892 
L 190.71648 123.429121 
L 190.98432 157.802157 
L 191.0736 83.417764 
L 191.16288 143.61086 
L 191.25216 110.013337 
L 191.34144 152.80377 
L 191.43072 115.281852 
L 191.52 120.794374 
L 191.60928 137.979717 
L 191.69856 126.34231 
L 191.87712 136.498392 
L 191.9664 104.685116 
L 192.14496 167.235695 
L 192.23424 112.089403 
L 192.32352 150.691655 
L 192.50208 105.462316 
L 192.59136 132.066244 
L 192.68064 116.913941 
L 192.76992 144.97889 
L 192.8592 100.479145 
L 192.94848 126.38627 
L 193.03776 118.502747 
L 193.21632 124.845888 
L 193.3056 118.32957 
L 193.39488 132.331554 
L 193.48416 97.103534 
L 193.66272 138.107075 
L 193.84128 112.471164 
L 193.93056 138.444474 
L 194.01984 111.976565 
L 194.10912 140.277309 
L 194.28768 99.738062 
L 194.37696 121.077727 
L 194.46624 120.19948 
L 194.55552 113.603436 
L 194.82336 128.352392 
L 194.91264 153.217945 
L 195.00192 97.553642 
L 195.0912 98.021312 
L 195.26976 132.614768 
L 195.44832 101.537227 
L 195.62688 135.176995 
L 195.71616 124.390144 
L 195.80544 126.358717 
L 195.89472 123.74975 
L 195.984 117.283536 
L 196.16256 144.896677 
L 196.25184 110.364414 
L 196.4304 134.002805 
L 196.51968 91.287361 
L 196.8768 140.432866 
L 196.96608 105.58383 
L 197.05536 109.777063 
L 197.14464 136.366245 
L 197.3232 108.174904 
L 197.50176 94.345267 
L 197.59104 96.002895 
L 197.68032 147.47168 
L 197.7696 114.744692 
L 197.85888 132.298764 
L 198.12672 76.900256 
L 198.216 114.34971 
L 198.30528 98.498815 
L 198.39456 148.819891 
L 198.48384 125.337357 
L 198.57312 137.99216 
L 199.01952 98.459371 
L 199.1088 104.844109 
L 199.19808 104.463385 
L 199.28736 155.960225 
L 199.37664 135.493682 
L 199.46592 148.08808 
L 199.5552 114.685602 
L 199.64448 121.408329 
L 199.73376 112.081445 
L 199.91232 137.357652 
L 200.09088 88.233956 
L 200.18016 100.793771 
L 200.26944 133.779499 
L 200.62656 102.735519 
L 200.71584 118.297437 
L 200.80512 101.412433 
L 201.07296 135.995663 
L 201.16224 108.042277 
L 201.43008 176.969251 
L 201.60864 102.23323 
L 201.69792 116.743856 
L 201.7872 160.632765 
L 202.05504 93.713971 
L 202.14432 154.330169 
L 202.2336 142.864059 
L 202.32288 144.297327 
L 202.50144 103.02265 
L 202.59072 129.731201 
L 202.68 80.690186 
L 202.76928 115.652645 
L 202.85856 93.116626 
L 203.03712 163.354447 
L 203.1264 112.719175 
L 203.21568 117.55591 
L 203.30496 162.063177 
L 203.39424 157.052448 
L 203.48352 152.700267 
L 203.5728 128.772781 
L 203.66208 145.641483 
L 203.75136 128.438425 
L 203.84064 138.370225 
L 203.92992 116.143241 
L 204.10848 167.593375 
L 204.28704 112.410362 
L 204.64416 210.257729 
L 204.82272 109.68218 
L 205.09056 169.238801 
L 205.17984 182.323825 
L 205.3584 105.837479 
L 205.53696 156.858622 
L 205.62624 133.84039 
L 205.71552 159.141433 
L 205.8048 143.939198 
L 205.89408 96.055574 
L 205.98336 145.41762 
L 206.07264 107.283026 
L 206.16192 177.605149 
L 206.34048 111.840668 
L 206.42976 111.654727 
L 206.60832 158.806555 
L 206.6976 152.209636 
L 206.78688 122.35934 
L 206.87616 147.100995 
L 207.05472 117.825259 
L 207.144 162.956101 
L 207.23328 114.886211 
L 207.32256 133.467276 
L 207.41184 121.382355 
L 207.50112 160.516845 
L 207.5904 114.65375 
L 207.67968 126.800447 
L 207.76896 182.341591 
L 207.85824 177.646808 
L 208.0368 112.795463 
L 208.12608 107.475027 
L 208.30464 175.415423 
L 208.4832 108.310236 
L 208.57248 150.851249 
L 208.66176 134.868193 
L 208.75104 90.691072 
L 208.84032 157.887722 
L 208.9296 124.948865 
L 209.01888 147.208688 
L 209.10816 143.771806 
L 209.19744 143.085977 
L 209.28672 155.419975 
L 209.376 103.818175 
L 209.46528 107.504112 
L 209.55456 141.796731 
L 209.64384 108.403949 
L 209.73312 169.711978 
L 209.91168 103.906805 
L 210.00096 142.195329 
L 210.09024 126.0263 
L 210.17952 157.436929 
L 210.2688 112.630825 
L 210.44736 154.61465 
L 210.53664 153.115168 
L 210.62592 120.261682 
L 210.7152 136.398106 
L 210.80448 198.244432 
L 211.07232 101.023516 
L 211.1616 120.209813 
L 211.25088 168.28884 
L 211.42944 103.905635 
L 211.51872 125.925425 
L 211.608 106.954486 
L 211.87584 146.340754 
L 212.0544 110.498529 
L 212.23296 124.183406 
L 212.32224 172.273683 
L 212.41152 109.467147 
L 212.5008 124.380584 
L 212.59008 137.160839 
L 212.67936 116.903841 
L 212.76864 119.954173 
L 212.85792 118.678359 
L 212.9472 111.154882 
L 213.03648 120.54078 
L 213.12576 120.155238 
L 213.21504 127.422337 
L 213.30432 125.713512 
L 213.3936 155.524803 
L 213.48288 110.097898 
L 213.66144 141.444927 
L 213.84 118.075773 
L 213.92928 135.925052 
L 214.01856 126.739644 
L 214.10784 146.417215 
L 214.2864 105.912685 
L 214.37568 109.396303 
L 214.46496 159.149127 
L 214.55424 84.869315 
L 214.64352 125.761269 
L 214.91136 79.439603 
L 215.00064 106.61153 
L 215.08992 105.350047 
L 215.1792 117.870754 
L 215.26848 113.955683 
L 215.44704 145.522858 
L 215.6256 110.329989 
L 215.80416 130.858663 
L 215.89344 99.817348 
L 216.072 118.805705 
L 216.16128 107.035813 
L 216.33984 125.462017 
L 216.42912 141.481134 
L 216.5184 115.534127 
L 216.60768 115.669181 
L 216.69696 122.236436 
L 216.78624 159.068706 
L 216.87552 101.828461 
L 217.05408 138.43217 
L 217.14336 107.591032 
L 217.32192 158.272053 
L 217.4112 102.477351 
L 217.58976 164.906129 
L 217.67904 154.171752 
L 217.8576 93.989618 
L 217.94688 75.830239 
L 218.03616 87.524722 
L 218.12544 71.664389 
L 218.304 145.103241 
L 218.39328 110.899226 
L 218.48256 112.810001 
L 218.57184 156.241183 
L 218.66112 105.513021 
L 218.7504 111.354212 
L 218.83968 102.152291 
L 219.01824 111.610933 
L 219.10752 91.677622 
L 219.46464 152.424329 
L 219.55392 116.404672 
L 219.6432 121.350964 
L 219.73248 132.480128 
L 219.82176 100.989463 
L 220.00032 130.862088 
L 220.0896 99.800595 
L 220.26816 130.761199 
L 220.35744 101.304507 
L 220.44672 123.802291 
L 220.62528 84.004882 
L 220.71456 90.649867 
L 220.80384 143.347401 
L 220.89312 100.610637 
L 220.9824 151.948307 
L 221.07168 141.916369 
L 221.16096 90.39307 
L 221.33952 114.933694 
L 221.51808 122.275358 
L 221.60736 95.555303 
L 221.69664 97.671703 
L 221.78592 120.058907 
L 221.8752 104.061819 
L 221.96448 132.612083 
L 222.14304 102.159575 
L 222.23232 107.135889 
L 222.3216 134.602595 
L 222.50016 106.571764 
L 222.58944 128.843904 
L 222.67872 105.058358 
L 222.94656 141.795491 
L 223.03584 85.270305 
L 223.12512 144.111091 
L 223.30368 115.566688 
L 223.39296 107.635483 
L 223.48224 134.687733 
L 223.6608 81.75939 
L 223.75008 101.228223 
L 223.83936 153.787211 
L 223.92864 113.217909 
L 224.01792 121.600284 
L 224.1072 83.410965 
L 224.19648 137.267893 
L 224.37504 92.959649 
L 224.46432 121.248004 
L 224.5536 96.1872 
L 224.64288 144.81668 
L 224.73216 142.13781 
L 224.91072 102.505973 
L 225.08928 150.415004 
L 225.35712 101.597387 
L 225.4464 108.394842 
L 225.53568 105.660723 
L 225.62496 91.813526 
L 225.71424 154.500254 
L 225.80352 71.368815 
L 225.98208 135.390669 
L 226.16064 111.561687 
L 226.24992 124.361853 
L 226.3392 104.041583 
L 226.42848 138.253564 
L 226.51776 111.89993 
L 226.60704 125.607438 
L 226.69632 116.445622 
L 226.7856 150.540735 
L 226.96416 112.585609 
L 227.05344 126.861357 
L 227.14272 99.516803 
L 227.41056 140.569367 
L 227.58912 106.263349 
L 227.76768 125.419996 
L 227.85696 125.835234 
L 227.94624 107.565437 
L 228.03552 117.221963 
L 228.1248 92.542039 
L 228.21408 125.608132 
L 228.30336 112.701953 
L 228.39264 120.999717 
L 228.48192 146.222173 
L 228.83904 104.295105 
L 229.0176 139.990757 
L 229.10688 109.214644 
L 229.19616 117.747878 
L 229.28544 113.065758 
L 229.37472 74.589742 
L 229.55328 105.502735 
L 229.73184 122.583384 
L 229.82112 134.720038 
L 229.9104 116.06029 
L 229.99968 139.813852 
L 230.26752 103.420103 
L 230.3568 98.173048 
L 230.44608 133.165996 
L 230.53536 124.308699 
L 230.62464 99.523419 
L 230.8032 117.790268 
L 230.98176 101.199981 
L 231.07104 129.00734 
L 231.16032 108.744052 
L 231.2496 112.559611 
L 231.42816 127.137182 
L 231.51744 116.769947 
L 231.696 138.050219 
L 231.78528 140.957703 
L 231.96384 120.300187 
L 232.05312 73.454115 
L 232.23168 130.545208 
L 232.49952 117.057918 
L 232.5888 119.003414 
L 232.67808 96.75111 
L 232.76736 98.821399 
L 232.85664 146.031734 
L 233.0352 122.660926 
L 233.12448 129.233166 
L 233.21376 83.275979 
L 233.4816 132.417273 
L 233.57088 117.437899 
L 233.66016 126.632806 
L 233.83872 102.018779 
L 233.928 139.208406 
L 234.01728 138.760307 
L 234.10656 107.823202 
L 234.19584 143.670559 
L 234.28512 99.511731 
L 234.46368 123.040667 
L 234.55296 92.039127 
L 234.8208 149.562718 
L 234.99936 121.908651 
L 235.08864 119.628899 
L 235.17792 104.160576 
L 235.2672 106.990609 
L 235.35648 109.852303 
L 235.44576 128.264453 
L 235.53504 119.400417 
L 235.62432 131.66323 
L 235.7136 106.771301 
L 235.80288 133.550073 
L 236.07072 98.602697 
L 236.16 99.406668 
L 236.33856 115.833326 
L 236.42784 109.569353 
L 236.51712 119.24486 
L 236.6064 119.053959 
L 236.69568 121.790712 
L 236.78496 139.10569 
L 236.87424 111.442482 
L 237.0528 127.599845 
L 237.14208 90.106755 
L 237.23136 125.214397 
L 237.32064 124.787142 
L 237.40992 118.348381 
L 237.4992 97.185139 
L 237.67776 136.24464 
L 237.85632 113.153561 
L 237.9456 139.116234 
L 238.12416 93.878754 
L 238.30272 131.869089 
L 238.392 112.476044 
L 238.48128 130.182251 
L 238.57056 106.830198 
L 238.65984 111.19915 
L 238.74912 112.209339 
L 238.8384 88.167847 
L 238.92768 128.848453 
L 239.01696 101.720291 
L 239.2848 152.302412 
L 239.37408 142.129218 
L 239.46336 109.690641 
L 239.55264 110.373431 
L 239.64192 124.171139 
L 239.82048 96.521548 
L 239.99904 110.906478 
L 240.08832 117.928227 
L 240.26688 99.219823 
L 240.44544 122.929603 
L 240.624 118.228909 
L 240.80256 129.693267 
L 240.89184 116.330061 
L 240.98112 117.384095 
L 241.0704 154.158092 
L 241.15968 111.633499 
L 241.33824 154.700638 
L 241.5168 106.960043 
L 241.60608 147.454983 
L 241.69536 105.44912 
L 241.78464 129.226445 
L 241.87392 113.33344 
L 242.05248 136.744013 
L 242.23104 125.004267 
L 242.32032 124.448848 
L 242.4096 127.312817 
L 242.49888 108.589764 
L 242.58816 146.365667 
L 242.76672 76.29818 
L 243.03456 145.27731 
L 243.12384 85.42083 
L 243.3024 125.504812 
L 243.39168 86.007519 
L 243.57024 133.726324 
L 243.65952 115.17387 
L 243.83808 141.193973 
L 244.10592 80.084893 
L 244.28448 102.328646 
L 244.37376 128.353402 
L 244.55232 90.623447 
L 244.6416 123.731117 
L 244.73088 119.022286 
L 244.82016 101.527969 
L 244.90944 137.85884 
L 244.99872 133.895019 
L 245.088 124.438244 
L 245.17728 127.713408 
L 245.35584 111.472726 
L 245.5344 143.255478 
L 245.62368 116.497835 
L 245.71296 145.044209 
L 245.80224 137.002274 
L 245.89152 111.81288 
L 246.07008 140.602104 
L 246.15936 118.868194 
L 246.24864 148.089079 
L 246.33792 105.375267 
L 246.51648 137.529877 
L 246.60576 122.841565 
L 246.69504 85.586257 
L 246.78432 117.672545 
L 246.8736 104.976087 
L 247.05216 114.738314 
L 247.14144 112.078005 
L 247.23072 120.288838 
L 247.40928 96.177171 
L 247.49856 129.293617 
L 247.58784 91.7155 
L 247.67712 133.111511 
L 247.7664 91.45937 
L 247.85568 114.360489 
L 247.94496 84.534366 
L 248.03424 138.474165 
L 248.12352 112.91853 
L 248.2128 135.41396 
L 248.39136 92.961348 
L 248.48064 136.943823 
L 248.56992 129.025787 
L 248.6592 138.29545 
L 248.74848 103.640198 
L 248.83776 129.660284 
L 249.01632 91.154755 
L 249.1056 123.638584 
L 249.19488 120.820713 
L 249.37344 128.581558 
L 249.46272 157.952218 
L 249.552 157.197168 
L 249.64128 95.461533 
L 249.73056 139.987374 
L 249.90912 90.684931 
L 250.08768 112.253552 
L 250.17696 102.616568 
L 250.35552 114.70593 
L 250.4448 119.215416 
L 250.53408 103.847011 
L 250.62336 130.901886 
L 250.80192 90.453391 
L 250.98048 119.308922 
L 251.15904 98.124716 
L 251.24832 100.611354 
L 251.3376 116.932333 
L 251.42688 113.183415 
L 251.69472 67.172428 
L 251.87328 133.933464 
L 251.96256 110.897982 
L 252.05184 132.541396 
L 252.14112 125.159297 
L 252.2304 74.817678 
L 252.40896 144.219494 
L 252.49824 130.344764 
L 252.58752 115.780549 
L 252.6768 177.979988 
L 252.94464 107.966777 
L 253.03392 130.572504 
L 253.30176 92.647099 
L 253.39104 103.917024 
L 253.48032 144.171853 
L 253.92672 90.11507 
L 254.016 117.268544 
L 254.10528 95.969895 
L 254.28384 127.879178 
L 254.37312 125.538165 
L 254.4624 96.119883 
L 254.64096 126.45614 
L 254.73024 103.723057 
L 254.9088 131.469006 
L 254.99808 100.102663 
L 255.08736 130.98182 
L 255.26592 112.923051 
L 255.3552 154.176178 
L 255.44448 110.209674 
L 255.53376 142.65831 
L 255.62304 106.649288 
L 255.71232 132.229477 
L 255.8016 119.603209 
L 255.89088 151.918798 
L 256.06944 108.654131 
L 256.15872 138.299274 
L 256.248 92.914034 
L 256.33728 122.856391 
L 256.42656 93.624009 
L 256.51584 116.173773 
L 256.60512 111.868839 
L 256.6944 93.725441 
L 256.78368 166.464948 
L 256.96224 115.426435 
L 257.05152 154.299489 
L 257.1408 142.4465 
L 257.23008 101.443864 
L 257.31936 155.606976 
L 257.49792 112.265755 
L 257.5872 129.34217 
L 257.67648 125.671645 
L 257.76576 127.381945 
L 257.85504 131.343884 
L 257.94432 118.914408 
L 258.0336 166.248023 
L 258.21216 123.260305 
L 258.30144 167.691104 
L 258.48 112.470806 
L 258.65856 139.287456 
L 258.74784 109.312792 
L 258.83712 141.631343 
L 258.9264 108.550352 
L 259.01568 145.235435 
L 259.10496 110.979933 
L 259.19424 135.440414 
L 259.28352 112.46379 
L 259.3728 151.785632 
L 259.72992 95.266992 
L 259.90848 133.140849 
L 260.08704 91.449276 
L 260.17632 128.91818 
L 260.2656 119.395956 
L 260.35488 122.577057 
L 260.44416 138.986912 
L 260.53344 103.956704 
L 260.712 137.72509 
L 260.80128 127.03489 
L 260.89056 153.390094 
L 260.97984 103.254213 
L 261.06912 125.263072 
L 261.1584 116.890461 
L 261.24768 131.488726 
L 261.33696 105.816885 
L 261.42624 145.011949 
L 261.51552 89.237051 
L 261.6048 143.344886 
L 261.69408 117.717249 
L 261.78336 131.609428 
L 261.96192 106.260453 
L 262.0512 119.275352 
L 262.14048 99.080065 
L 262.22976 111.475874 
L 262.31904 104.710334 
L 262.40832 110.211504 
L 262.4976 87.518137 
L 262.58688 113.244084 
L 262.67616 101.405757 
L 262.76544 119.027672 
L 263.03328 87.518751 
L 263.30112 144.339999 
L 263.3904 101.803674 
L 263.47968 178.770777 
L 263.56896 108.561143 
L 263.65824 128.256653 
L 263.92608 96.0039 
L 264.10464 141.746308 
L 264.19392 111.118524 
L 264.2832 124.283198 
L 264.37248 103.474123 
L 264.55104 141.207626 
L 264.7296 89.551645 
L 264.81888 133.415145 
L 264.99744 113.23009 
L 265.08672 145.128846 
L 265.176 115.482371 
L 265.26528 152.437053 
L 265.44384 110.658974 
L 265.53312 143.439245 
L 265.71168 109.878702 
L 265.80096 148.68421 
L 265.97952 89.92779 
L 266.0688 81.383341 
L 266.24736 129.952496 
L 266.33664 112.352097 
L 266.60448 154.636207 
L 266.78304 94.648694 
L 266.9616 133.161017 
L 267.05088 155.559782 
L 267.408 86.088875 
L 267.67584 123.549947 
L 267.76512 89.197092 
L 267.8544 103.951316 
L 267.94368 97.308468 
L 268.03296 117.695904 
L 268.21152 97.728019 
L 268.39008 142.03194 
L 268.47936 75.396114 
L 268.65792 129.824047 
L 268.7472 122.166401 
L 268.92576 141.09873 
L 269.01504 115.665717 
L 269.10432 140.741187 
L 269.1936 125.804682 
L 269.28288 142.941147 
L 269.37216 111.758712 
L 269.55072 127.583641 
L 269.81856 95.234821 
L 269.90784 113.545437 
L 269.99712 111.760986 
L 270.0864 94.833319 
L 270.17568 127.128469 
L 270.26496 93.670632 
L 270.35424 148.433911 
L 270.62208 84.100623 
L 270.71136 84.468921 
L 270.80064 122.265538 
L 270.88992 116.314692 
L 271.06848 82.588461 
L 271.15776 139.998864 
L 271.24704 134.313313 
L 271.33632 114.465013 
L 271.4256 133.873205 
L 271.60416 115.849918 
L 271.69344 113.533068 
L 271.78272 108.101053 
L 271.872 129.131608 
L 271.96128 126.272536 
L 272.05056 114.649093 
L 272.13984 138.257354 
L 272.22912 111.409743 
L 272.40768 143.552234 
L 272.58624 117.522218 
L 272.67552 131.048899 
L 272.7648 124.531138 
L 272.85408 105.265024 
L 273.03264 171.481603 
L 273.2112 129.623438 
L 273.30048 110.024564 
L 273.47904 129.832965 
L 273.56832 103.133875 
L 273.6576 145.29202 
L 273.83616 117.662939 
L 273.92544 118.215283 
L 274.01472 115.179702 
L 274.19328 143.695156 
L 274.37184 86.027112 
L 274.46112 132.138509 
L 274.72896 89.603584 
L 274.90752 139.571707 
L 275.08608 97.796169 
L 275.26464 123.870175 
L 275.35392 121.775261 
L 275.53248 127.914166 
L 275.62176 84.269042 
L 275.80032 150.887694 
L 275.8896 107.866693 
L 275.97888 111.812415 
L 276.24672 89.588052 
L 276.336 101.980259 
L 276.51456 152.87116 
L 276.7824 76.84032 
L 276.87168 117.927142 
L 276.96096 109.979746 
L 277.05024 113.482225 
L 277.13952 133.49763 
L 277.2288 105.973075 
L 277.31808 112.172668 
L 277.40736 140.98758 
L 277.58592 91.229243 
L 277.76448 124.650656 
L 277.85376 116.422025 
L 277.94304 120.642229 
L 278.03232 163.286549 
L 278.1216 91.381077 
L 278.21088 114.606787 
L 278.30016 104.936753 
L 278.47872 136.220746 
L 278.568 82.545944 
L 278.65728 125.788562 
L 278.74656 105.062678 
L 278.83584 115.061949 
L 278.92512 87.536099 
L 279.19296 161.525728 
L 279.4608 115.463468 
L 279.63936 129.449569 
L 279.72864 90.930958 
L 279.99648 144.87159 
L 280.08576 139.766547 
L 280.26432 93.034073 
L 280.3536 109.387296 
L 280.44288 172.520852 
L 280.53216 120.360467 
L 280.62144 138.006472 
L 280.71072 120.485594 
L 280.8 122.387516 
L 280.97856 156.284497 
L 281.15712 76.764083 
L 281.33568 124.062885 
L 281.42496 126.64726 
L 281.51424 117.670318 
L 281.60352 129.039206 
L 281.6928 108.091895 
L 281.78208 142.307312 
L 281.87136 140.695921 
L 281.96064 140.616812 
L 282.04992 103.391122 
L 282.22848 126.281951 
L 282.31776 111.10092 
L 282.40704 111.978943 
L 282.49632 121.971166 
L 282.76416 85.506618 
L 282.85344 110.227527 
L 283.032 87.01918 
L 283.38912 140.118235 
L 283.56768 118.572886 
L 283.65696 140.754564 
L 283.74624 110.778599 
L 283.83552 125.555416 
L 283.9248 124.982066 
L 284.01408 103.931653 
L 284.19264 136.045504 
L 284.3712 110.232963 
L 284.46048 112.200202 
L 284.63904 138.862047 
L 284.72832 147.859724 
L 284.99616 116.332123 
L 285.08544 143.778132 
L 285.17472 105.721576 
L 285.264 188.926936 
L 285.53184 94.687507 
L 285.62112 137.301645 
L 285.7104 115.986628 
L 285.79968 139.269663 
L 285.88896 103.444902 
L 286.06752 173.840966 
L 286.1568 93.562751 
L 286.24608 159.229289 
L 286.33536 129.744138 
L 286.42464 146.807649 
L 286.51392 114.556902 
L 286.6032 122.90625 
L 286.69248 86.933329 
L 286.78176 197.03395 
L 286.96032 102.952698 
L 287.0496 138.558716 
L 287.13888 124.830372 
L 287.22816 149.403758 
L 287.31744 121.496211 
L 287.40672 167.972216 
L 287.496 120.367972 
L 287.58528 123.888868 
L 287.67456 115.145516 
L 287.76384 128.626146 
L 287.85312 121.279563 
L 288.03168 91.708672 
L 288.12096 123.403503 
L 288.21024 101.781171 
L 288.29952 153.523297 
L 288.3888 75.678304 
L 288.47808 127.610172 
L 288.56736 125.093481 
L 288.65664 113.462192 
L 288.74592 123.783112 
L 288.8352 148.374126 
L 288.92448 96.976214 
L 289.19232 175.10066 
L 289.2816 114.153941 
L 289.37088 129.7102 
L 289.46016 108.227358 
L 289.54944 121.191549 
L 289.728 90.522609 
L 289.81728 119.43751 
L 289.90656 103.441566 
L 290.08512 125.810093 
L 290.1744 113.155574 
L 290.26368 149.284475 
L 290.35296 101.903574 
L 290.53152 122.603975 
L 290.71008 93.981253 
L 290.79936 92.836897 
L 291.0672 142.702325 
L 291.15648 146.553339 
L 291.24576 134.634258 
L 291.33504 135.626243 
L 291.42432 133.983744 
L 291.5136 150.841346 
L 291.78144 120.915864 
L 291.87072 121.343103 
L 292.04928 107.877919 
L 292.13856 107.847306 
L 292.31712 141.632246 
L 292.4064 127.627306 
L 292.49568 136.706091 
L 292.76352 93.629137 
L 292.8528 102.232708 
L 292.94208 173.43873 
L 293.20992 91.642794 
L 293.2992 127.012925 
L 293.38848 104.485384 
L 293.47776 118.662685 
L 293.56704 101.98851 
L 293.65632 127.205033 
L 293.7456 99.918362 
L 293.92416 138.35083 
L 294.01344 129.74727 
L 294.192 97.990373 
L 294.28128 114.223274 
L 294.45984 104.017674 
L 294.54912 153.590324 
L 294.6384 111.469266 
L 294.72768 134.018177 
L 294.81696 103.431569 
L 294.90624 139.36167 
L 294.99552 79.634324 
L 295.0848 139.00779 
L 295.35264 78.118023 
L 295.44192 131.368194 
L 295.5312 101.548839 
L 295.62048 143.007816 
L 295.70976 125.513232 
L 295.79904 130.304824 
L 295.88832 109.366918 
L 295.9776 144.099679 
L 296.06688 101.512915 
L 296.15616 104.627913 
L 296.24544 123.351107 
L 296.33472 94.122316 
L 296.51328 119.070632 
L 296.60256 118.3398 
L 296.69184 134.482619 
L 296.78112 121.542361 
L 296.8704 125.616332 
L 296.95968 115.504219 
L 297.04896 115.535967 
L 297.13824 116.279953 
L 297.22752 126.346694 
L 297.3168 74.051687 
L 297.40608 118.428588 
L 297.49536 116.214213 
L 297.58464 115.668689 
L 297.67392 116.631157 
L 297.7632 132.229483 
L 297.94176 120.124851 
L 298.03104 121.319096 
L 298.12032 139.040977 
L 298.38816 88.483268 
L 298.47744 151.232841 
L 298.56672 120.156878 
L 298.656 125.396192 
L 298.74528 126.456733 
L 298.83456 119.435426 
L 298.92384 76.621134 
L 299.01312 107.777434 
L 299.1024 106.026631 
L 299.37024 118.778466 
L 299.45952 107.699868 
L 299.5488 111.034255 
L 299.81664 152.008407 
L 299.90592 107.421396 
L 299.9952 154.11204 
L 300.08448 83.673746 
L 300.26304 135.547047 
L 300.35232 103.881152 
L 300.4416 124.635624 
L 300.53088 109.27903 
L 300.62016 141.176744 
L 300.70944 110.111611 
L 300.79872 154.280732 
L 300.888 115.133229 
L 300.97728 123.147008 
L 301.06656 126.773655 
L 301.15584 116.85685 
L 301.3344 159.020683 
L 301.42368 134.778279 
L 301.51296 137.165576 
L 301.60224 121.332208 
L 301.69152 132.992054 
L 302.04864 102.708052 
L 302.13792 98.931395 
L 302.2272 112.368924 
L 302.31648 100.318744 
L 302.40576 125.689239 
L 302.49504 124.56719 
L 302.58432 114.040498 
L 302.6736 148.509464 
L 302.76288 131.232803 
L 302.85216 136.070092 
L 302.94144 130.477936 
L 303.03072 116.467012 
L 303.12 162.642022 
L 303.29856 108.408909 
L 303.47712 118.969937 
L 303.5664 120.664628 
L 303.65568 127.451848 
L 303.74496 155.611263 
L 303.92352 145.402773 
L 304.0128 115.202982 
L 304.10208 129.235201 
L 304.28064 112.34259 
L 304.36992 117.825744 
L 304.4592 135.539148 
L 304.63776 109.763218 
L 304.72704 108.977384 
L 304.81632 116.556062 
L 304.99488 111.687751 
L 305.17344 154.096894 
L 305.26272 145.395891 
L 305.352 154.768471 
L 305.53056 87.097971 
L 305.61984 129.132832 
L 305.7984 106.408714 
L 305.88768 101.60794 
L 305.97696 132.56912 
L 306.15552 85.407561 
L 306.33408 158.759613 
L 306.51264 111.325291 
L 306.6912 193.603836 
L 306.78048 125.131519 
L 306.95904 154.759686 
L 307.1376 122.619117 
L 307.22688 123.488779 
L 307.40544 115.764128 
L 307.49472 137.079481 
L 307.584 132.822395 
L 307.67328 124.472656 
L 307.76256 136.143285 
L 307.85184 130.469411 
L 307.94112 99.61312 
L 308.11968 129.503185 
L 308.20896 100.689784 
L 308.29824 134.336553 
L 308.38752 133.722104 
L 308.4768 127.830203 
L 308.56608 130.225633 
L 308.83392 109.117945 
L 309.01248 123.798332 
L 309.10176 119.266306 
L 309.19104 149.965113 
L 309.28032 123.66401 
L 309.3696 137.488448 
L 309.45888 95.978679 
L 309.54816 133.355647 
L 309.63744 113.315812 
L 309.72672 128.782945 
L 309.816 104.303992 
L 309.99456 135.052778 
L 310.08384 109.899121 
L 310.35168 135.260379 
L 310.53024 115.298818 
L 310.7088 149.271376 
L 310.79808 147.278184 
L 310.88736 154.893778 
L 311.06592 114.686805 
L 311.24448 138.610523 
L 311.33376 135.249421 
L 311.6016 105.491419 
L 311.69088 142.433152 
L 311.95872 102.844439 
L 312.048 152.296989 
L 312.13728 140.747156 
L 312.22656 100.680291 
L 312.4944 152.808567 
L 312.67296 107.805242 
L 312.76224 121.689463 
L 312.85152 106.897004 
L 312.9408 108.457689 
L 313.03008 162.688656 
L 313.11936 70.399982 
L 313.20864 134.354867 
L 313.29792 79.425884 
L 313.47648 168.157327 
L 313.65504 95.917605 
L 313.74432 128.42122 
L 313.92288 96.900839 
L 314.01216 124.785233 
L 314.19072 105.260633 
L 314.28 137.918681 
L 314.54784 85.671409 
L 314.63712 119.696147 
L 314.7264 86.299915 
L 314.81568 135.193983 
L 314.90496 108.527815 
L 314.99424 118.130579 
L 315.08352 104.520446 
L 315.26208 131.551594 
L 315.44064 94.647438 
L 315.6192 123.372543 
L 315.70848 130.301913 
L 315.79776 128.328795 
L 315.88704 85.395226 
L 315.97632 127.983396 
L 316.15488 101.225951 
L 316.24416 136.227216 
L 316.33344 121.163382 
L 316.42272 130.299937 
L 316.512 129.671755 
L 316.60128 129.024779 
L 316.69056 138.780938 
L 316.77984 123.782455 
L 316.86912 132.228556 
L 317.13696 101.518393 
L 317.22624 144.222367 
L 317.31552 134.797286 
L 317.4048 122.047005 
L 317.49408 131.873467 
L 317.58336 105.328733 
L 317.67264 122.799878 
L 317.76192 99.533019 
L 317.8512 145.65908 
L 318.02976 130.14972 
L 318.11904 127.986149 
L 318.20832 130.996236 
L 318.2976 103.794184 
L 318.38688 120.961177 
L 318.47616 104.321361 
L 318.56544 106.4726 
L 318.744 132.953885 
L 318.92256 105.364801 
L 319.01184 162.759392 
L 319.27968 97.60765 
L 319.36896 100.325695 
L 319.45824 114.707567 
L 319.54752 110.867954 
L 319.6368 129.487958 
L 319.81536 96.456691 
L 319.99392 141.815281 
L 320.0832 92.153537 
L 320.17248 124.321748 
L 320.26176 111.237312 
L 320.35104 139.208154 
L 320.44032 126.353202 
L 320.5296 139.778269 
L 320.79744 106.814874 
L 320.88672 95.401599 
L 321.06528 121.956605 
L 321.15456 107.908615 
L 321.24384 130.620977 
L 321.33312 100.637056 
L 321.51168 157.601368 
L 321.69024 94.137449 
L 321.77952 107.976754 
L 321.8688 115.107118 
L 321.95808 65.456911 
L 322.04736 110.147799 
L 322.13664 84.2934 
L 322.22592 126.498888 
L 322.3152 95.858101 
L 322.40448 143.394384 
L 322.67232 104.468235 
L 322.7616 98.820223 
L 322.85088 104.160385 
L 322.94016 117.27874 
L 323.02944 86.960198 
L 323.208 138.383771 
L 323.29728 93.755201 
L 323.38656 102.728218 
L 323.47584 107.242788 
L 323.56512 105.575222 
L 323.6544 121.802208 
L 323.74368 98.976626 
L 323.92224 134.945021 
L 324.1008 100.259336 
L 324.19008 134.757192 
L 324.27936 122.655821 
L 324.36864 147.790519 
L 324.45792 146.602874 
L 324.5472 90.45399 
L 324.63648 128.489101 
L 324.72576 121.081848 
L 324.81504 129.915978 
L 324.90432 129.154357 
L 324.9936 94.49305 
L 325.17216 108.213013 
L 325.26144 66.853477 
L 325.61856 142.507223 
L 325.79712 104.03518 
L 325.8864 105.624154 
L 325.97568 147.872217 
L 326.15424 98.724731 
L 326.3328 128.417436 
L 326.42208 81.027203 
L 326.60064 133.639539 
L 326.68992 104.470861 
L 326.86848 135.573255 
L 326.95776 112.74551 
L 327.04704 134.415473 
L 327.13632 108.310871 
L 327.31488 148.590057 
L 327.672 88.518188 
L 327.76128 140.671136 
L 327.85056 131.517278 
L 327.93984 137.11944 
L 328.02912 131.874009 
L 328.20768 110.457705 
L 328.29696 126.22224 
L 328.38624 103.962356 
L 328.47552 119.056037 
L 328.5648 103.98854 
L 328.65408 125.808629 
L 328.74336 100.453513 
L 328.92192 143.950185 
L 329.18976 106.967014 
L 329.27904 109.541212 
L 329.36832 119.872886 
L 329.4576 78.898526 
L 329.63616 110.616172 
L 329.72544 99.825244 
L 329.81472 145.301967 
L 329.904 92.749829 
L 329.99328 102.420848 
L 330.08256 121.925866 
L 330.17184 119.094119 
L 330.3504 143.735509 
L 330.43968 132.157809 
L 330.52896 93.46028 
L 330.61824 123.885284 
L 330.7968 104.00474 
L 330.88608 112.245885 
L 330.97536 87.879252 
L 331.06464 134.598436 
L 331.15392 103.957411 
L 331.2432 135.118017 
L 331.33248 117.656335 
L 331.42176 121.53429 
L 331.51104 104.976612 
L 331.60032 139.259972 
L 331.6896 101.239298 
L 331.77888 130.026305 
L 331.86816 96.958246 
L 331.95744 137.553859 
L 332.04672 79.751553 
L 332.136 89.567657 
L 332.22528 114.261444 
L 332.31456 72.201783 
L 332.40384 137.328391 
L 332.49312 113.262754 
L 332.5824 116.956548 
L 332.67168 142.278346 
L 332.85024 107.772984 
L 332.93952 152.728238 
L 333.11808 97.641826 
L 333.20736 98.16707 
L 333.29664 134.999167 
L 333.4752 125.168475 
L 333.56448 125.308727 
L 333.74304 92.288463 
L 333.83232 121.279696 
L 333.9216 99.970997 
L 334.01088 134.77399 
L 334.18944 94.291331 
L 334.27872 131.875562 
L 334.45728 94.091772 
L 334.54656 112.734332 
L 334.63584 92.325423 
L 334.90368 132.299553 
L 334.99296 84.501482 
L 335.17152 138.585989 
L 335.2608 111.756919 
L 335.35008 141.260259 
L 335.61792 95.155274 
L 335.7072 154.39243 
L 335.79648 106.386997 
L 335.88576 131.932248 
L 336.06432 106.379173 
L 336.1536 106.112557 
L 336.33216 153.645986 
L 336.42144 145.932173 
L 336.6 86.825283 
L 336.68928 153.596818 
L 336.86784 112.503527 
L 336.95712 119.383174 
L 337.0464 94.969461 
L 337.22496 126.780966 
L 337.31424 87.11619 
L 337.40352 150.943398 
L 337.4928 97.132354 
L 337.58208 110.464024 
L 337.67136 101.949962 
L 337.84992 140.86614 
L 337.9392 129.787396 
L 338.02848 134.48326 
L 338.11776 116.651757 
L 338.20704 72.552636 
L 338.3856 119.697833 
L 338.47488 109.451139 
L 338.65344 147.179406 
L 338.74272 92.881843 
L 338.832 117.886561 
L 338.92128 93.612886 
L 339.01056 118.267676 
L 339.09984 109.848974 
L 339.2784 136.660803 
L 339.36768 110.502525 
L 339.45696 134.801038 
L 339.54624 111.378123 
L 339.7248 130.696956 
L 339.81408 97.818632 
L 339.90336 124.256444 
L 339.99264 98.698817 
L 340.08192 129.310629 
L 340.1712 121.054726 
L 340.34976 146.119862 
L 340.43904 113.448193 
L 340.52832 135.941273 
L 340.70688 101.768463 
L 340.79616 123.84662 
L 340.88544 92.62666 
L 340.97472 120.2717 
L 341.064 94.533857 
L 341.15328 131.557217 
L 341.33184 108.244473 
L 341.42112 130.757099 
L 341.5104 117.253001 
L 341.59968 120.87791 
L 341.68896 108.550738 
L 341.77824 122.992599 
L 341.9568 114.963816 
L 342.04608 122.900592 
L 342.13536 145.83944 
L 342.31392 101.13385 
L 342.4032 82.306964 
L 342.49248 135.936596 
L 342.58176 130.126666 
L 342.67104 111.123178 
L 342.76032 129.090862 
L 343.11744 93.091646 
L 343.20672 134.323102 
L 343.296 90.870711 
L 343.38528 101.555946 
L 343.47456 100.573873 
L 343.56384 93.081616 
L 343.65312 128.52121 
L 343.83168 103.847096 
L 343.92096 121.315846 
L 344.09952 104.506902 
L 344.1888 110.486875 
L 344.27808 88.147647 
L 344.45664 111.570382 
L 344.54592 107.580799 
L 344.6352 135.587931 
L 344.72448 104.12115 
L 344.81376 104.555191 
L 344.90304 83.408729 
L 344.99232 113.855709 
L 345.0816 108.589856 
L 345.17088 102.812801 
L 345.26016 142.817497 
L 345.34944 81.386876 
L 345.528 136.944028 
L 345.61728 77.976571 
L 345.88512 136.404476 
L 345.9744 106.880375 
L 346.06368 107.778843 
L 346.15296 111.088391 
L 346.24224 94.949029 
L 346.4208 115.745784 
L 346.59936 119.884903 
L 346.68864 75.131557 
L 346.8672 120.298826 
L 346.95648 110.225223 
L 347.13504 134.473771 
L 347.22432 107.731593 
L 347.3136 123.065938 
L 347.58144 100.544191 
L 347.67072 123.310527 
L 347.76 110.048779 
L 347.84928 141.874282 
L 347.93856 140.488534 
L 348.11712 107.35602 
L 348.2064 115.114719 
L 348.29568 99.998111 
L 348.47424 132.575411 
L 348.56352 100.696461 
L 348.74208 126.75071 
L 348.92064 112.170668 
L 349.00992 94.721462 
L 349.18848 136.644191 
L 349.27776 113.96255 
L 349.45632 135.336527 
L 349.5456 124.2064 
L 349.63488 136.376008 
L 349.81344 97.756561 
L 349.90272 107.444481 
L 349.992 101.924633 
L 350.17056 125.386851 
L 350.25984 90.154666 
L 350.34912 124.060111 
L 350.4384 116.458241 
L 350.52768 106.965037 
L 350.70624 142.668979 
L 350.79552 129.014696 
L 350.8848 135.807949 
L 350.97408 132.540418 
L 351.06336 117.966549 
L 351.15264 127.148291 
L 351.24192 117.061758 
L 351.42048 133.644285 
L 351.59904 99.95574 
L 351.68832 100.806128 
L 351.7776 94.589615 
L 351.86688 112.529387 
L 351.95616 97.39608 
L 352.04544 105.34838 
L 352.13472 133.816604 
L 352.224 80.209058 
L 352.40256 127.641804 
L 352.49184 106.46956 
L 352.58112 116.879795 
L 352.6704 99.501774 
L 352.75968 155.249714 
L 352.84896 109.863475 
L 353.02752 136.776808 
L 353.1168 115.500343 
L 353.20608 122.102741 
L 353.38464 92.962933 
L 353.5632 124.230348 
L 353.65248 121.660677 
L 353.74176 125.529598 
L 353.92032 109.235854 
L 354.0096 88.041585 
L 354.09888 124.668784 
L 354.18816 113.030481 
L 354.27744 133.440554 
L 354.36672 131.156899 
L 354.456 126.517464 
L 354.54528 138.131089 
L 354.63456 92.434682 
L 354.72384 107.96097 
L 354.81312 97.682481 
L 354.9024 128.406897 
L 354.99168 124.976036 
L 355.08096 150.935559 
L 355.25952 110.788296 
L 355.3488 113.864573 
L 355.43808 172.036621 
L 355.61664 108.786533 
L 355.70592 114.337435 
L 355.7952 144.659844 
L 355.97376 98.632128 
L 356.15232 133.101007 
L 356.2416 134.09674 
L 356.33088 133.98481 
L 356.42016 143.19968 
L 356.50944 119.097562 
L 356.59872 129.005145 
L 356.688 79.428373 
L 357.04512 156.779986 
L 357.22368 100.63042 
L 357.40224 138.965037 
L 357.49152 120.867711 
L 357.5808 145.427373 
L 357.67008 109.519272 
L 357.84864 136.575477 
L 357.93792 132.197202 
L 358.0272 132.091599 
L 358.11648 139.935322 
L 358.20576 94.624804 
L 358.29504 107.392678 
L 358.4736 80.347335 
L 358.56288 144.045875 
L 358.65216 141.39545 
L 358.74144 111.126071 
L 358.83072 140.141061 
L 359.00928 114.355229 
L 359.09856 140.01399 
L 359.18784 85.157608 
L 359.3664 124.822182 
L 359.54496 113.364779 
L 359.63424 138.339733 
L 359.72352 109.170155 
L 359.90208 130.18987 
L 359.99136 111.825064 
L 360.08064 113.285232 
L 360.16992 134.288737 
L 360.2592 121.760579 
L 360.34848 86.984648 
L 360.61632 138.70932 
L 360.79488 83.747991 
L 360.88416 122.372304 
L 360.97344 103.047609 
L 361.06272 135.524663 
L 361.152 108.461615 
L 361.24128 119.197588 
L 361.33056 153.315032 
L 361.50912 110.465888 
L 361.5984 115.631163 
L 361.77696 100.607659 
L 361.86624 115.647468 
L 361.95552 99.846016 
L 362.0448 109.179974 
L 362.13408 105.062324 
L 362.22336 94.243911 
L 362.31264 134.686102 
L 362.40192 134.170133 
L 362.4912 123.224464 
L 362.58048 128.478913 
L 362.66976 82.356763 
L 362.9376 137.325661 
L 363.11616 133.7449 
L 363.20544 94.978812 
L 363.384 127.484681 
L 363.47328 140.400217 
L 363.56256 113.496849 
L 363.65184 146.621587 
L 363.8304 113.640548 
L 363.91968 112.007819 
L 364.00896 128.085714 
L 364.18752 92.905133 
L 364.2768 106.458606 
L 364.36608 89.223728 
L 364.45536 149.781531 
L 364.7232 96.040409 
L 364.90176 115.584797 
L 364.99104 85.171228 
L 365.1696 128.441094 
L 365.34816 92.601648 
L 365.616 140.388525 
L 365.88384 120.395097 
L 365.97312 136.284377 
L 366.0624 116.121869 
L 366.15168 134.473887 
L 366.24096 100.262954 
L 366.33024 101.627005 
L 366.41952 150.617756 
L 366.59808 123.2325 
L 366.68736 118.22618 
L 366.77664 138.000419 
L 366.86592 117.610229 
L 366.9552 130.235 
L 367.04448 123.577462 
L 367.13376 135.598059 
L 367.22304 83.162004 
L 367.31232 123.90012 
L 367.4016 123.28537 
L 367.49088 107.126686 
L 367.58016 130.789787 
L 367.75872 94.526304 
L 367.848 129.539078 
L 367.93728 108.089152 
L 368.02656 127.175064 
L 368.20512 96.143323 
L 368.38368 142.376111 
L 368.56224 73.34767 
L 368.7408 108.187627 
L 368.83008 91.868829 
L 368.91936 113.730006 
L 369.00864 92.519693 
L 369.09792 115.865191 
L 369.1872 112.650436 
L 369.27648 121.836114 
L 369.36576 100.582834 
L 369.45504 158.988921 
L 369.54432 145.639588 
L 369.6336 111.528588 
L 369.72288 119.562585 
L 369.81216 139.95605 
L 369.90144 107.762419 
L 369.99072 115.409156 
L 370.08 103.088662 
L 370.16928 112.780316 
L 370.25856 145.542837 
L 370.34784 133.930879 
L 370.43712 142.230403 
L 370.61568 104.405803 
L 370.70496 128.16846 
L 370.79424 104.346693 
L 370.88352 182.227888 
L 371.06208 106.1014 
L 371.15136 102.697835 
L 371.32992 131.670433 
L 371.50848 96.036151 
L 371.59776 130.107588 
L 371.77632 101.43891 
L 371.8656 110.057928 
L 371.95488 101.071631 
L 372.04416 104.244331 
L 372.13344 154.59247 
L 372.22272 111.137821 
L 372.312 125.510409 
L 372.40128 120.358343 
L 372.49056 122.736964 
L 372.7584 94.732809 
L 372.84768 136.71685 
L 372.93696 129.66923 
L 373.11552 105.652549 
L 373.2048 139.684974 
L 373.29408 125.244326 
L 373.38336 153.22491 
L 373.56192 89.695775 
L 373.82976 138.348603 
L 374.0976 95.032631 
L 374.18688 182.080237 
L 374.36544 106.977051 
L 374.544 128.93079 
L 374.72256 103.538688 
L 374.90112 130.450093 
L 374.9904 131.652907 
L 375.07968 127.816247 
L 375.16896 96.370235 
L 375.25824 136.970746 
L 375.34752 117.687836 
L 375.4368 119.115238 
L 375.70464 139.341629 
L 375.79392 97.73057 
L 375.8832 124.942507 
L 375.97248 121.059905 
L 376.06176 124.62612 
L 376.24032 115.781235 
L 376.41888 139.073089 
L 376.50816 84.292047 
L 376.68672 115.518256 
L 376.776 89.006908 
L 376.95456 101.410821 
L 377.04384 107.280817 
L 377.13312 145.340305 
L 377.2224 110.998264 
L 377.31168 116.216736 
L 377.49024 95.994289 
L 377.6688 126.524928 
L 377.75808 84.524638 
L 377.84736 131.426953 
L 377.93664 121.154663 
L 378.02592 96.9343 
L 378.1152 138.990704 
L 378.38304 94.258344 
L 378.47232 123.578978 
L 378.5616 99.60335 
L 378.82944 138.570528 
L 379.008 103.826599 
L 379.18656 143.516018 
L 379.36512 111.510343 
L 379.4544 114.216375 
L 379.54368 156.010941 
L 379.63296 102.737381 
L 379.81152 146.733726 
L 379.99008 98.434128 
L 380.07936 146.299315 
L 380.16864 70.423187 
L 380.25792 85.202692 
L 380.3472 64.731385 
L 380.43648 130.523603 
L 380.52576 121.676964 
L 380.61504 133.57462 
L 380.70432 131.261881 
L 380.7936 90.919092 
L 380.88288 127.087681 
L 381.06144 110.186636 
L 381.15072 113.806772 
L 381.24 126.069698 
L 381.32928 96.401019 
L 381.59712 117.597669 
L 381.6864 123.352434 
L 381.77568 112.310057 
L 381.86496 124.727366 
L 381.95424 88.475385 
L 382.1328 150.697956 
L 382.22208 97.331714 
L 382.31136 106.43688 
L 382.48992 94.902349 
L 382.75776 126.406251 
L 382.84704 109.771287 
L 382.93632 121.150886 
L 383.11488 97.961074 
L 383.29344 122.699459 
L 383.38272 102.004974 
L 383.65056 139.811361 
L 383.82912 113.877012 
L 383.9184 147.903345 
L 384.00768 111.664346 
L 384.09696 129.347977 
L 384.18624 124.528527 
L 384.3648 80.969226 
L 384.54336 133.366093 
L 384.72192 101.074229 
L 384.8112 132.648885 
L 384.90048 128.688535 
L 384.98976 126.530475 
L 385.07904 105.532338 
L 385.16832 133.756311 
L 385.34688 84.356165 
L 385.43616 99.802731 
L 385.52544 88.56499 
L 385.61472 112.192331 
L 385.79328 85.649708 
L 385.88256 144.5053 
L 385.97184 92.153602 
L 386.06112 126.735107 
L 386.1504 91.931279 
L 386.23968 112.770763 
L 386.32896 109.732592 
L 386.41824 115.619621 
L 386.5968 142.659908 
L 386.77536 103.642065 
L 386.95392 131.92842 
L 387.0432 111.735202 
L 387.13248 114.345443 
L 387.22176 120.903972 
L 387.31104 74.182574 
L 387.4896 124.728364 
L 387.57888 87.9699 
L 387.66816 135.568399 
L 387.75744 110.368601 
L 387.84672 130.149581 
L 387.936 91.92335 
L 388.02528 143.742891 
L 388.11456 92.952266 
L 388.20384 116.298744 
L 388.29312 94.938211 
L 388.3824 97.501988 
L 388.56096 121.401122 
L 388.65024 106.158971 
L 388.8288 184.425537 
L 389.09664 63.648 
L 389.2752 136.182448 
L 389.36448 136.980487 
L 389.45376 124.83333 
L 389.54304 140.1958 
L 389.63232 112.681406 
L 389.81088 138.493381 
L 389.90016 103.916812 
L 389.98944 113.894498 
L 390.07872 109.78563 
L 390.168 91.213344 
L 390.25728 145.894583 
L 390.34656 135.799006 
L 390.6144 94.294518 
L 390.70368 91.514531 
L 390.88224 130.589759 
L 390.97152 82.441396 
L 391.0608 113.803562 
L 391.15008 99.238709 
L 391.32864 142.668386 
L 391.5072 101.254526 
L 391.68576 115.784146 
L 391.77504 100.549913 
L 391.86432 133.18707 
L 392.13216 93.299677 
L 392.22144 137.404111 
L 392.31072 110.192099 
L 392.4 127.014048 
L 392.48928 108.553768 
L 392.57856 120.019053 
L 392.66784 80.495606 
L 392.8464 142.752589 
L 393.02496 121.29267 
L 393.11424 138.352718 
L 393.38208 93.105507 
L 393.47136 141.71683 
L 393.7392 110.341922 
L 393.82848 161.345632 
L 393.91776 93.554368 
L 394.09632 130.947227 
L 394.1856 98.73206 
L 394.27488 99.174283 
L 394.36416 117.601667 
L 394.45344 104.407054 
L 394.632 125.247176 
L 394.72128 121.177435 
L 394.81056 141.064558 
L 394.98912 80.575873 
L 395.0784 112.221352 
L 395.16768 112.037066 
L 395.34624 99.694187 
L 395.5248 122.461191 
L 395.61408 68.444771 
L 395.79264 121.77496 
L 395.88192 82.88146 
L 395.9712 155.067358 
L 396.23904 99.137568 
L 396.32832 125.357951 
L 396.4176 112.400859 
L 396.50688 122.122243 
L 396.68544 99.883408 
L 396.77472 111.410894 
L 396.864 101.333365 
L 396.95328 104.386744 
L 397.04256 134.760358 
L 397.13184 134.422921 
L 397.22112 123.782078 
L 397.3104 125.878775 
L 397.39968 135.679075 
L 397.48896 73.128667 
L 397.66752 126.32322 
L 397.7568 127.501953 
L 397.84608 121.003646 
L 397.93536 127.975313 
L 398.02464 111.979185 
L 398.11392 125.996474 
L 398.2032 107.219065 
L 398.38176 120.836672 
L 398.47104 107.217441 
L 398.56032 179.930473 
L 398.6496 95.529819 
L 398.73888 118.18237 
L 398.82816 104.196617 
L 398.91744 108.783572 
L 399.00672 95.074128 
L 399.18528 122.933609 
L 399.36384 79.541703 
L 399.45312 128.949396 
L 399.5424 127.760028 
L 399.63168 121.383524 
L 399.72096 135.6036 
L 399.81024 126.299744 
L 399.89952 102.399865 
L 400.07808 154.501354 
L 400.16736 126.409199 
L 400.25664 132.4104 
L 400.34592 115.221069 
L 400.4352 118.411629 
L 400.52448 106.487726 
L 400.61376 148.281314 
L 400.70304 99.203899 
L 400.79232 115.900354 
L 400.8816 105.269297 
L 400.97088 136.426848 
L 401.06016 130.484042 
L 401.14944 113.872963 
L 401.23872 117.697076 
L 401.328 106.701364 
L 401.41728 131.559963 
L 401.50656 93.643542 
L 401.59584 122.497739 
L 401.68512 117.513494 
L 401.7744 105.018144 
L 401.86368 139.165171 
L 401.95296 119.653834 
L 402.04224 139.057812 
L 402.13152 112.041492 
L 402.2208 123.170329 
L 402.39936 116.750463 
L 402.48864 143.952164 
L 402.57792 110.982328 
L 402.6672 144.31349 
L 402.84576 80.859382 
L 403.02432 137.386894 
L 403.1136 121.289507 
L 403.20288 122.885373 
L 403.29216 112.135258 
L 403.38144 147.428468 
L 403.56 103.8365 
L 403.64928 117.544696 
L 403.73856 147.432634 
L 403.91712 85.504988 
L 404.0064 131.93595 
L 404.09568 123.33468 
L 404.18496 90.669466 
L 404.27424 163.991771 
L 404.4528 117.727787 
L 404.54208 109.199974 
L 404.72064 148.583185 
L 404.8992 99.891365 
L 404.98848 135.63976 
L 405.07776 105.64326 
L 405.3456 172.663981 
L 405.43488 101.217999 
L 405.52416 144.818169 
L 405.70272 103.351624 
L 405.88128 115.443807 
L 405.97056 109.999008 
L 406.14912 132.123205 
L 406.2384 97.35944 
L 406.41696 131.486424 
L 406.77408 113.909812 
L 406.86336 160.700602 
L 407.04192 111.024998 
L 407.1312 135.188527 
L 407.30976 110.858527 
L 407.39904 161.508921 
L 407.48832 123.080767 
L 407.5776 131.762812 
L 407.75616 107.532795 
L 407.84544 143.946517 
L 408.024 86.342362 
L 408.11328 109.066715 
L 408.20256 110.095514 
L 408.29184 124.536818 
L 408.38112 84.52255 
L 408.55968 128.352612 
L 408.64896 88.995352 
L 408.73824 97.880247 
L 408.82752 135.671543 
L 408.9168 125.749669 
L 409.00608 162.416771 
L 409.18464 124.135241 
L 409.27392 163.900104 
L 409.3632 106.026296 
L 409.45248 149.032112 
L 409.54176 138.233074 
L 409.63104 102.890775 
L 409.89888 132.98491 
L 409.98816 91.387423 
L 410.16672 142.776239 
L 410.34528 105.687014 
L 410.43456 106.114657 
L 410.52384 125.218412 
L 410.61312 105.22642 
L 410.7024 124.126586 
L 410.79168 95.653981 
L 410.97024 138.970177 
L 411.1488 113.591985 
L 411.23808 113.596172 
L 411.32736 132.654382 
L 411.50592 84.223535 
L 411.5952 128.026087 
L 411.68448 121.619258 
L 411.77376 133.386132 
L 411.95232 96.461738 
L 412.0416 98.793411 
L 412.22016 132.91185 
L 412.39872 96.595462 
L 412.488 124.846424 
L 412.66656 96.827854 
L 412.75584 152.733321 
L 412.9344 97.55825 
L 413.02368 136.017617 
L 413.11296 110.855856 
L 413.29152 128.496554 
L 413.47008 114.81868 
L 413.64864 105.378852 
L 413.8272 145.720266 
L 413.91648 101.317499 
L 414.00576 127.905456 
L 414.09504 110.360629 
L 414.18432 140.398797 
L 414.2736 86.347165 
L 414.36288 130.020602 
L 414.45216 97.10602 
L 414.54144 103.228967 
L 414.63072 139.080677 
L 414.63072 139.080677 
" style="fill:none;stroke:#0000ff;stroke-linecap:square;stroke-width:1.5;"/>
   </g>
   <g id="patch_3">
    <path d="M 57.6 307.584 
L 57.6 41.472 
" style="fill:none;stroke:#000000;stroke-linecap:square;stroke-linejoin:miter;stroke-width:0.8;"/>
   </g>
   <g id="patch_4">
    <path d="M 414.72 307.584 
L 414.72 41.472 
" style="fill:none;stroke:#000000;stroke-linecap:square;stroke-linejoin:miter;stroke-width:0.8;"/>
   </g>
   <g id="patch_5">
    <path d="M 57.6 307.584 
L 414.72 307.584 
" style="fill:none;stroke:#000000;stroke-linecap:square;stroke-linejoin:miter;stroke-width:0.8;"/>
   </g>
   <g id="patch_6">
    <path d="M 57.6 41.472 
L 414.72 41.472 
" style="fill:none;stroke:#000000;stroke-linecap:square;stroke-linejoin:miter;stroke-width:0.8;"/>
   </g>
   <g id="legend_1">
    <g id="patch_7">
     <path d="M 64.6 64.150125 
L 189.998437 64.150125 
Q 191.998437 64.150125 191.998437 62.150125 
L 191.998437 48.472 
Q 191.998437 46.472 189.998437 46.472 
L 64.6 46.472 
Q 62.6 46.472 62.6 48.472 
L 62.6 62.150125 
Q 62.6 64.150125 64.6 64.150125 
z
" style="fill:#ffffff;opacity:0.8;stroke:#cccccc;stroke-linejoin:miter;"/>
    </g>
    <g id="line2d_30">
     <path d="M 66.6 54.570438 
L 86.6 54.570438 
" style="fill:none;stroke:#0000ff;stroke-linecap:square;stroke-width:1.5;"/>
    </g>
    <g id="line2d_31"/>
    <g id="text_17">
     <!-- cumulative reward -->
     <g transform="translate(94.6 58.070438)scale(0.1 -0.1)">
      <defs>
       <path d="M 3122 3366 
L 3122 2828 
Q 2878 2963 2633 3030 
Q 2388 3097 2138 3097 
Q 1578 3097 1268 2742 
Q 959 2388 959 1747 
Q 959 1106 1268 751 
Q 1578 397 2138 397 
Q 2388 397 2633 464 
Q 2878 531 3122 666 
L 3122 134 
Q 2881 22 2623 -34 
Q 2366 -91 2075 -91 
Q 1284 -91 818 406 
Q 353 903 353 1747 
Q 353 2603 823 3093 
Q 1294 3584 2113 3584 
Q 2378 3584 2631 3529 
Q 2884 3475 3122 3366 
z
" id="DejaVuSans-63" transform="scale(0.015625)"/>
      </defs>
      <use xlink:href="#DejaVuSans-63"/>
      <use x="54.980469" xlink:href="#DejaVuSans-75"/>
      <use x="118.359375" xlink:href="#DejaVuSans-6d"/>
      <use x="215.771484" xlink:href="#DejaVuSans-75"/>
      <use x="279.150391" xlink:href="#DejaVuSans-6c"/>
      <use x="306.933594" xlink:href="#DejaVuSans-61"/>
      <use x="368.212891" xlink:href="#DejaVuSans-74"/>
      <use x="407.421875" xlink:href="#DejaVuSans-69"/>
      <use x="435.205078" xlink:href="#DejaVuSans-76"/>
      <use x="494.384766" xlink:href="#DejaVuSans-65"/>
      <use x="555.908203" xlink:href="#DejaVuSans-20"/>
      <use x="587.695312" xlink:href="#DejaVuSans-72"/>
      <use x="626.558594" xlink:href="#DejaVuSans-65"/>
      <use x="688.082031" xlink:href="#DejaVuSans-77"/>
      <use x="769.869141" xlink:href="#DejaVuSans-61"/>
      <use x="831.148438" xlink:href="#DejaVuSans-72"/>
      <use x="870.511719" xlink:href="#DejaVuSans-64"/>
     </g>
    </g>
   </g>
  </g>
 </g>
 <defs>
  <clipPath id="p09ac71edaf">
   <rect height="266.112" width="357.12" x="57.6" y="41.472"/>
  </clipPath>
 </defs>
</svg>
