<?xml version="1.0" encoding="utf-8" standalone="no"?>
<!DOCTYPE svg PUBLIC "-//W3C//DTD SVG 1.1//EN"
  "http://www.w3.org/Graphics/SVG/1.1/DTD/svg11.dtd">
<svg height="345.6pt" version="1.1" viewBox="0 0 460.8 345.6" width="460.8pt" xmlns="http://www.w3.org/2000/svg" xmlns:xlink="http://www.w3.org/1999/xlink">
 <metadata>
  <rdf:RDF xmlns:cc="http://creativecommons.org/ns#" xmlns:dc="http://purl.org/dc/elements/1.1/" xmlns:rdf="http://www.w3.org/1999/02/22-rdf-syntax-ns#">
   <cc:Work>
    <dc:type rdf:resource="http://purl.org/dc/dcmitype/StillImage"/>
    <dc:date>2021-10-19T17:08:33.017650</dc:date>
    <dc:description>{"agent.algorithm": "RayProximalPolicyOptimization", "agent.algorithm.render_env": false, "agent.algorithm.batch_mode": "complete_episodes", "agent.algorithm.train_batch_size": 200, "agent.algorithm.optimizer": "Adam", "agent.algorithm.vf_clip_param": 5000, "agent.algorithm.model": {"fcnet_activation": "tanh", "fcnet_hiddens": [30, 30]}, "env.env_class": "SchedulerPolicyRayEnvironment", "env.env_config": {"solver_driver": "CMAdriver", "solver_driver_args": [10, 10, "Katsuura"], "maximize": false, "steps": 50, "state_metrics_names": ["DifferenceOfBest", "SolverState"], "state_metrics_config": [[40, false, 1, true, true], [{"step_size": {"max": 3, "min": 1e-10}}]], "reward_metric": "Best", "reward_metric_config": [false, false], "memes_no": 1, "parameter_tune_config": {"step_size": {"max": 3, "min": 1e-10}}}}</dc:description>
    <dc:format>image/svg+xml</dc:format>
    <dc:creator>
     <cc:Agent>
      <dc:title>Matplotlib v3.4.2, https://matplotlib.org/</dc:title>
     </cc:Agent>
    </dc:creator>
   </cc:Work>
  </rdf:RDF>
 </metadata>
 <defs>
  <style type="text/css">*{stroke-linecap:butt;stroke-linejoin:round;}</style>
 </defs>
 <g id="figure_1">
  <g id="patch_1">
   <path d="M 0 345.6 
L 460.8 345.6 
L 460.8 0 
L 0 0 
z
" style="fill:#ffffff;"/>
  </g>
  <g id="axes_1">
   <g id="patch_2">
    <path d="M 57.6 307.584 
L 414.72 307.584 
L 414.72 41.472 
L 57.6 41.472 
z
" style="fill:#ffffff;"/>
   </g>
   <g id="matplotlib.axis_1">
    <g id="xtick_1">
     <g id="line2d_1">
      <path clip-path="url(#p2bd4ce4e6a)" d="M 57.6 307.584 
L 57.6 41.472 
" style="fill:none;stroke:#b0b0b0;stroke-linecap:square;stroke-width:0.8;"/>
     </g>
     <g id="line2d_2">
      <defs>
       <path d="M 0 0 
L 0 3.5 
" id="m73fe07611e" style="stroke:#000000;stroke-width:0.8;"/>
      </defs>
      <g>
       <use style="stroke:#000000;stroke-width:0.8;" x="57.6" xlink:href="#m73fe07611e" y="307.584"/>
      </g>
     </g>
     <g id="text_1">
      <!-- 0 -->
      <g transform="translate(54.41875 322.182437)scale(0.1 -0.1)">
       <defs>
        <path d="M 2034 4250 
Q 1547 4250 1301 3770 
Q 1056 3291 1056 2328 
Q 1056 1369 1301 889 
Q 1547 409 2034 409 
Q 2525 409 2770 889 
Q 3016 1369 3016 2328 
Q 3016 3291 2770 3770 
Q 2525 4250 2034 4250 
z
M 2034 4750 
Q 2819 4750 3233 4129 
Q 3647 3509 3647 2328 
Q 3647 1150 3233 529 
Q 2819 -91 2034 -91 
Q 1250 -91 836 529 
Q 422 1150 422 2328 
Q 422 3509 836 4129 
Q 1250 4750 2034 4750 
z
" id="DejaVuSans-30" transform="scale(0.015625)"/>
       </defs>
       <use xlink:href="#DejaVuSans-30"/>
      </g>
     </g>
    </g>
    <g id="xtick_2">
     <g id="line2d_3">
      <path clip-path="url(#p2bd4ce4e6a)" d="M 129.024 307.584 
L 129.024 41.472 
" style="fill:none;stroke:#b0b0b0;stroke-linecap:square;stroke-width:0.8;"/>
     </g>
     <g id="line2d_4">
      <g>
       <use style="stroke:#000000;stroke-width:0.8;" x="129.024" xlink:href="#m73fe07611e" y="307.584"/>
      </g>
     </g>
     <g id="text_2">
      <!-- 200 -->
      <g transform="translate(119.48025 322.182437)scale(0.1 -0.1)">
       <defs>
        <path d="M 1228 531 
L 3431 531 
L 3431 0 
L 469 0 
L 469 531 
Q 828 903 1448 1529 
Q 2069 2156 2228 2338 
Q 2531 2678 2651 2914 
Q 2772 3150 2772 3378 
Q 2772 3750 2511 3984 
Q 2250 4219 1831 4219 
Q 1534 4219 1204 4116 
Q 875 4013 500 3803 
L 500 4441 
Q 881 4594 1212 4672 
Q 1544 4750 1819 4750 
Q 2544 4750 2975 4387 
Q 3406 4025 3406 3419 
Q 3406 3131 3298 2873 
Q 3191 2616 2906 2266 
Q 2828 2175 2409 1742 
Q 1991 1309 1228 531 
z
" id="DejaVuSans-32" transform="scale(0.015625)"/>
       </defs>
       <use xlink:href="#DejaVuSans-32"/>
       <use x="63.623047" xlink:href="#DejaVuSans-30"/>
       <use x="127.246094" xlink:href="#DejaVuSans-30"/>
      </g>
     </g>
    </g>
    <g id="xtick_3">
     <g id="line2d_5">
      <path clip-path="url(#p2bd4ce4e6a)" d="M 200.448 307.584 
L 200.448 41.472 
" style="fill:none;stroke:#b0b0b0;stroke-linecap:square;stroke-width:0.8;"/>
     </g>
     <g id="line2d_6">
      <g>
       <use style="stroke:#000000;stroke-width:0.8;" x="200.448" xlink:href="#m73fe07611e" y="307.584"/>
      </g>
     </g>
     <g id="text_3">
      <!-- 400 -->
      <g transform="translate(190.90425 322.182437)scale(0.1 -0.1)">
       <defs>
        <path d="M 2419 4116 
L 825 1625 
L 2419 1625 
L 2419 4116 
z
M 2253 4666 
L 3047 4666 
L 3047 1625 
L 3713 1625 
L 3713 1100 
L 3047 1100 
L 3047 0 
L 2419 0 
L 2419 1100 
L 313 1100 
L 313 1709 
L 2253 4666 
z
" id="DejaVuSans-34" transform="scale(0.015625)"/>
       </defs>
       <use xlink:href="#DejaVuSans-34"/>
       <use x="63.623047" xlink:href="#DejaVuSans-30"/>
       <use x="127.246094" xlink:href="#DejaVuSans-30"/>
      </g>
     </g>
    </g>
    <g id="xtick_4">
     <g id="line2d_7">
      <path clip-path="url(#p2bd4ce4e6a)" d="M 271.872 307.584 
L 271.872 41.472 
" style="fill:none;stroke:#b0b0b0;stroke-linecap:square;stroke-width:0.8;"/>
     </g>
     <g id="line2d_8">
      <g>
       <use style="stroke:#000000;stroke-width:0.8;" x="271.872" xlink:href="#m73fe07611e" y="307.584"/>
      </g>
     </g>
     <g id="text_4">
      <!-- 600 -->
      <g transform="translate(262.32825 322.182437)scale(0.1 -0.1)">
       <defs>
        <path d="M 2113 2584 
Q 1688 2584 1439 2293 
Q 1191 2003 1191 1497 
Q 1191 994 1439 701 
Q 1688 409 2113 409 
Q 2538 409 2786 701 
Q 3034 994 3034 1497 
Q 3034 2003 2786 2293 
Q 2538 2584 2113 2584 
z
M 3366 4563 
L 3366 3988 
Q 3128 4100 2886 4159 
Q 2644 4219 2406 4219 
Q 1781 4219 1451 3797 
Q 1122 3375 1075 2522 
Q 1259 2794 1537 2939 
Q 1816 3084 2150 3084 
Q 2853 3084 3261 2657 
Q 3669 2231 3669 1497 
Q 3669 778 3244 343 
Q 2819 -91 2113 -91 
Q 1303 -91 875 529 
Q 447 1150 447 2328 
Q 447 3434 972 4092 
Q 1497 4750 2381 4750 
Q 2619 4750 2861 4703 
Q 3103 4656 3366 4563 
z
" id="DejaVuSans-36" transform="scale(0.015625)"/>
       </defs>
       <use xlink:href="#DejaVuSans-36"/>
       <use x="63.623047" xlink:href="#DejaVuSans-30"/>
       <use x="127.246094" xlink:href="#DejaVuSans-30"/>
      </g>
     </g>
    </g>
    <g id="xtick_5">
     <g id="line2d_9">
      <path clip-path="url(#p2bd4ce4e6a)" d="M 343.296 307.584 
L 343.296 41.472 
" style="fill:none;stroke:#b0b0b0;stroke-linecap:square;stroke-width:0.8;"/>
     </g>
     <g id="line2d_10">
      <g>
       <use style="stroke:#000000;stroke-width:0.8;" x="343.296" xlink:href="#m73fe07611e" y="307.584"/>
      </g>
     </g>
     <g id="text_5">
      <!-- 800 -->
      <g transform="translate(333.75225 322.182437)scale(0.1 -0.1)">
       <defs>
        <path d="M 2034 2216 
Q 1584 2216 1326 1975 
Q 1069 1734 1069 1313 
Q 1069 891 1326 650 
Q 1584 409 2034 409 
Q 2484 409 2743 651 
Q 3003 894 3003 1313 
Q 3003 1734 2745 1975 
Q 2488 2216 2034 2216 
z
M 1403 2484 
Q 997 2584 770 2862 
Q 544 3141 544 3541 
Q 544 4100 942 4425 
Q 1341 4750 2034 4750 
Q 2731 4750 3128 4425 
Q 3525 4100 3525 3541 
Q 3525 3141 3298 2862 
Q 3072 2584 2669 2484 
Q 3125 2378 3379 2068 
Q 3634 1759 3634 1313 
Q 3634 634 3220 271 
Q 2806 -91 2034 -91 
Q 1263 -91 848 271 
Q 434 634 434 1313 
Q 434 1759 690 2068 
Q 947 2378 1403 2484 
z
M 1172 3481 
Q 1172 3119 1398 2916 
Q 1625 2713 2034 2713 
Q 2441 2713 2670 2916 
Q 2900 3119 2900 3481 
Q 2900 3844 2670 4047 
Q 2441 4250 2034 4250 
Q 1625 4250 1398 4047 
Q 1172 3844 1172 3481 
z
" id="DejaVuSans-38" transform="scale(0.015625)"/>
       </defs>
       <use xlink:href="#DejaVuSans-38"/>
       <use x="63.623047" xlink:href="#DejaVuSans-30"/>
       <use x="127.246094" xlink:href="#DejaVuSans-30"/>
      </g>
     </g>
    </g>
    <g id="xtick_6">
     <g id="line2d_11">
      <path clip-path="url(#p2bd4ce4e6a)" d="M 414.72 307.584 
L 414.72 41.472 
" style="fill:none;stroke:#b0b0b0;stroke-linecap:square;stroke-width:0.8;"/>
     </g>
     <g id="line2d_12">
      <g>
       <use style="stroke:#000000;stroke-width:0.8;" x="414.72" xlink:href="#m73fe07611e" y="307.584"/>
      </g>
     </g>
     <g id="text_6">
      <!-- 1000 -->
      <g transform="translate(401.995 322.182437)scale(0.1 -0.1)">
       <defs>
        <path d="M 794 531 
L 1825 531 
L 1825 4091 
L 703 3866 
L 703 4441 
L 1819 4666 
L 2450 4666 
L 2450 531 
L 3481 531 
L 3481 0 
L 794 0 
L 794 531 
z
" id="DejaVuSans-31" transform="scale(0.015625)"/>
       </defs>
       <use xlink:href="#DejaVuSans-31"/>
       <use x="63.623047" xlink:href="#DejaVuSans-30"/>
       <use x="127.246094" xlink:href="#DejaVuSans-30"/>
       <use x="190.869141" xlink:href="#DejaVuSans-30"/>
      </g>
     </g>
    </g>
    <g id="text_7">
     <!-- Episodes -->
     <g transform="translate(213.917812 335.860562)scale(0.1 -0.1)">
      <defs>
       <path d="M 628 4666 
L 3578 4666 
L 3578 4134 
L 1259 4134 
L 1259 2753 
L 3481 2753 
L 3481 2222 
L 1259 2222 
L 1259 531 
L 3634 531 
L 3634 0 
L 628 0 
L 628 4666 
z
" id="DejaVuSans-45" transform="scale(0.015625)"/>
       <path d="M 1159 525 
L 1159 -1331 
L 581 -1331 
L 581 3500 
L 1159 3500 
L 1159 2969 
Q 1341 3281 1617 3432 
Q 1894 3584 2278 3584 
Q 2916 3584 3314 3078 
Q 3713 2572 3713 1747 
Q 3713 922 3314 415 
Q 2916 -91 2278 -91 
Q 1894 -91 1617 61 
Q 1341 213 1159 525 
z
M 3116 1747 
Q 3116 2381 2855 2742 
Q 2594 3103 2138 3103 
Q 1681 3103 1420 2742 
Q 1159 2381 1159 1747 
Q 1159 1113 1420 752 
Q 1681 391 2138 391 
Q 2594 391 2855 752 
Q 3116 1113 3116 1747 
z
" id="DejaVuSans-70" transform="scale(0.015625)"/>
       <path d="M 603 3500 
L 1178 3500 
L 1178 0 
L 603 0 
L 603 3500 
z
M 603 4863 
L 1178 4863 
L 1178 4134 
L 603 4134 
L 603 4863 
z
" id="DejaVuSans-69" transform="scale(0.015625)"/>
       <path d="M 2834 3397 
L 2834 2853 
Q 2591 2978 2328 3040 
Q 2066 3103 1784 3103 
Q 1356 3103 1142 2972 
Q 928 2841 928 2578 
Q 928 2378 1081 2264 
Q 1234 2150 1697 2047 
L 1894 2003 
Q 2506 1872 2764 1633 
Q 3022 1394 3022 966 
Q 3022 478 2636 193 
Q 2250 -91 1575 -91 
Q 1294 -91 989 -36 
Q 684 19 347 128 
L 347 722 
Q 666 556 975 473 
Q 1284 391 1588 391 
Q 1994 391 2212 530 
Q 2431 669 2431 922 
Q 2431 1156 2273 1281 
Q 2116 1406 1581 1522 
L 1381 1569 
Q 847 1681 609 1914 
Q 372 2147 372 2553 
Q 372 3047 722 3315 
Q 1072 3584 1716 3584 
Q 2034 3584 2315 3537 
Q 2597 3491 2834 3397 
z
" id="DejaVuSans-73" transform="scale(0.015625)"/>
       <path d="M 1959 3097 
Q 1497 3097 1228 2736 
Q 959 2375 959 1747 
Q 959 1119 1226 758 
Q 1494 397 1959 397 
Q 2419 397 2687 759 
Q 2956 1122 2956 1747 
Q 2956 2369 2687 2733 
Q 2419 3097 1959 3097 
z
M 1959 3584 
Q 2709 3584 3137 3096 
Q 3566 2609 3566 1747 
Q 3566 888 3137 398 
Q 2709 -91 1959 -91 
Q 1206 -91 779 398 
Q 353 888 353 1747 
Q 353 2609 779 3096 
Q 1206 3584 1959 3584 
z
" id="DejaVuSans-6f" transform="scale(0.015625)"/>
       <path d="M 2906 2969 
L 2906 4863 
L 3481 4863 
L 3481 0 
L 2906 0 
L 2906 525 
Q 2725 213 2448 61 
Q 2172 -91 1784 -91 
Q 1150 -91 751 415 
Q 353 922 353 1747 
Q 353 2572 751 3078 
Q 1150 3584 1784 3584 
Q 2172 3584 2448 3432 
Q 2725 3281 2906 2969 
z
M 947 1747 
Q 947 1113 1208 752 
Q 1469 391 1925 391 
Q 2381 391 2643 752 
Q 2906 1113 2906 1747 
Q 2906 2381 2643 2742 
Q 2381 3103 1925 3103 
Q 1469 3103 1208 2742 
Q 947 2381 947 1747 
z
" id="DejaVuSans-64" transform="scale(0.015625)"/>
       <path d="M 3597 1894 
L 3597 1613 
L 953 1613 
Q 991 1019 1311 708 
Q 1631 397 2203 397 
Q 2534 397 2845 478 
Q 3156 559 3463 722 
L 3463 178 
Q 3153 47 2828 -22 
Q 2503 -91 2169 -91 
Q 1331 -91 842 396 
Q 353 884 353 1716 
Q 353 2575 817 3079 
Q 1281 3584 2069 3584 
Q 2775 3584 3186 3129 
Q 3597 2675 3597 1894 
z
M 3022 2063 
Q 3016 2534 2758 2815 
Q 2500 3097 2075 3097 
Q 1594 3097 1305 2825 
Q 1016 2553 972 2059 
L 3022 2063 
z
" id="DejaVuSans-65" transform="scale(0.015625)"/>
      </defs>
      <use xlink:href="#DejaVuSans-45"/>
      <use x="63.183594" xlink:href="#DejaVuSans-70"/>
      <use x="126.660156" xlink:href="#DejaVuSans-69"/>
      <use x="154.443359" xlink:href="#DejaVuSans-73"/>
      <use x="206.542969" xlink:href="#DejaVuSans-6f"/>
      <use x="267.724609" xlink:href="#DejaVuSans-64"/>
      <use x="331.201172" xlink:href="#DejaVuSans-65"/>
      <use x="392.724609" xlink:href="#DejaVuSans-73"/>
     </g>
    </g>
   </g>
   <g id="matplotlib.axis_2">
    <g id="ytick_1">
     <g id="line2d_13">
      <path clip-path="url(#p2bd4ce4e6a)" d="M 57.6 264.359759 
L 414.72 264.359759 
" style="fill:none;stroke:#b0b0b0;stroke-linecap:square;stroke-width:0.8;"/>
     </g>
     <g id="line2d_14">
      <defs>
       <path d="M 0 0 
L -3.5 0 
" id="mef17c190aa" style="stroke:#000000;stroke-width:0.8;"/>
      </defs>
      <g>
       <use style="stroke:#000000;stroke-width:0.8;" x="57.6" xlink:href="#mef17c190aa" y="264.359759"/>
      </g>
     </g>
     <g id="text_8">
      <!-- −850 -->
      <g transform="translate(23.132812 268.158977)scale(0.1 -0.1)">
       <defs>
        <path d="M 678 2272 
L 4684 2272 
L 4684 1741 
L 678 1741 
L 678 2272 
z
" id="DejaVuSans-2212" transform="scale(0.015625)"/>
        <path d="M 691 4666 
L 3169 4666 
L 3169 4134 
L 1269 4134 
L 1269 2991 
Q 1406 3038 1543 3061 
Q 1681 3084 1819 3084 
Q 2600 3084 3056 2656 
Q 3513 2228 3513 1497 
Q 3513 744 3044 326 
Q 2575 -91 1722 -91 
Q 1428 -91 1123 -41 
Q 819 9 494 109 
L 494 744 
Q 775 591 1075 516 
Q 1375 441 1709 441 
Q 2250 441 2565 725 
Q 2881 1009 2881 1497 
Q 2881 1984 2565 2268 
Q 2250 2553 1709 2553 
Q 1456 2553 1204 2497 
Q 953 2441 691 2322 
L 691 4666 
z
" id="DejaVuSans-35" transform="scale(0.015625)"/>
       </defs>
       <use xlink:href="#DejaVuSans-2212"/>
       <use x="83.789062" xlink:href="#DejaVuSans-38"/>
       <use x="147.412109" xlink:href="#DejaVuSans-35"/>
       <use x="211.035156" xlink:href="#DejaVuSans-30"/>
      </g>
     </g>
    </g>
    <g id="ytick_2">
     <g id="line2d_15">
      <path clip-path="url(#p2bd4ce4e6a)" d="M 57.6 209.248338 
L 414.72 209.248338 
" style="fill:none;stroke:#b0b0b0;stroke-linecap:square;stroke-width:0.8;"/>
     </g>
     <g id="line2d_16">
      <g>
       <use style="stroke:#000000;stroke-width:0.8;" x="57.6" xlink:href="#mef17c190aa" y="209.248338"/>
      </g>
     </g>
     <g id="text_9">
      <!-- −800 -->
      <g transform="translate(23.132812 213.047557)scale(0.1 -0.1)">
       <use xlink:href="#DejaVuSans-2212"/>
       <use x="83.789062" xlink:href="#DejaVuSans-38"/>
       <use x="147.412109" xlink:href="#DejaVuSans-30"/>
       <use x="211.035156" xlink:href="#DejaVuSans-30"/>
      </g>
     </g>
    </g>
    <g id="ytick_3">
     <g id="line2d_17">
      <path clip-path="url(#p2bd4ce4e6a)" d="M 57.6 154.136917 
L 414.72 154.136917 
" style="fill:none;stroke:#b0b0b0;stroke-linecap:square;stroke-width:0.8;"/>
     </g>
     <g id="line2d_18">
      <g>
       <use style="stroke:#000000;stroke-width:0.8;" x="57.6" xlink:href="#mef17c190aa" y="154.136917"/>
      </g>
     </g>
     <g id="text_10">
      <!-- −750 -->
      <g transform="translate(23.132812 157.936136)scale(0.1 -0.1)">
       <defs>
        <path d="M 525 4666 
L 3525 4666 
L 3525 4397 
L 1831 0 
L 1172 0 
L 2766 4134 
L 525 4134 
L 525 4666 
z
" id="DejaVuSans-37" transform="scale(0.015625)"/>
       </defs>
       <use xlink:href="#DejaVuSans-2212"/>
       <use x="83.789062" xlink:href="#DejaVuSans-37"/>
       <use x="147.412109" xlink:href="#DejaVuSans-35"/>
       <use x="211.035156" xlink:href="#DejaVuSans-30"/>
      </g>
     </g>
    </g>
    <g id="ytick_4">
     <g id="line2d_19">
      <path clip-path="url(#p2bd4ce4e6a)" d="M 57.6 99.025496 
L 414.72 99.025496 
" style="fill:none;stroke:#b0b0b0;stroke-linecap:square;stroke-width:0.8;"/>
     </g>
     <g id="line2d_20">
      <g>
       <use style="stroke:#000000;stroke-width:0.8;" x="57.6" xlink:href="#mef17c190aa" y="99.025496"/>
      </g>
     </g>
     <g id="text_11">
      <!-- −700 -->
      <g transform="translate(23.132812 102.824715)scale(0.1 -0.1)">
       <use xlink:href="#DejaVuSans-2212"/>
       <use x="83.789062" xlink:href="#DejaVuSans-37"/>
       <use x="147.412109" xlink:href="#DejaVuSans-30"/>
       <use x="211.035156" xlink:href="#DejaVuSans-30"/>
      </g>
     </g>
    </g>
    <g id="ytick_5">
     <g id="line2d_21">
      <path clip-path="url(#p2bd4ce4e6a)" d="M 57.6 43.914076 
L 414.72 43.914076 
" style="fill:none;stroke:#b0b0b0;stroke-linecap:square;stroke-width:0.8;"/>
     </g>
     <g id="line2d_22">
      <g>
       <use style="stroke:#000000;stroke-width:0.8;" x="57.6" xlink:href="#mef17c190aa" y="43.914076"/>
      </g>
     </g>
     <g id="text_12">
      <!-- −650 -->
      <g transform="translate(23.132812 47.713294)scale(0.1 -0.1)">
       <use xlink:href="#DejaVuSans-2212"/>
       <use x="83.789062" xlink:href="#DejaVuSans-36"/>
       <use x="147.412109" xlink:href="#DejaVuSans-35"/>
       <use x="211.035156" xlink:href="#DejaVuSans-30"/>
      </g>
     </g>
    </g>
    <g id="text_13">
     <!-- Cumulative Reward -->
     <g transform="translate(17.053125 223.275656)rotate(-90)scale(0.1 -0.1)">
      <defs>
       <path d="M 4122 4306 
L 4122 3641 
Q 3803 3938 3442 4084 
Q 3081 4231 2675 4231 
Q 1875 4231 1450 3742 
Q 1025 3253 1025 2328 
Q 1025 1406 1450 917 
Q 1875 428 2675 428 
Q 3081 428 3442 575 
Q 3803 722 4122 1019 
L 4122 359 
Q 3791 134 3420 21 
Q 3050 -91 2638 -91 
Q 1578 -91 968 557 
Q 359 1206 359 2328 
Q 359 3453 968 4101 
Q 1578 4750 2638 4750 
Q 3056 4750 3426 4639 
Q 3797 4528 4122 4306 
z
" id="DejaVuSans-43" transform="scale(0.015625)"/>
       <path d="M 544 1381 
L 544 3500 
L 1119 3500 
L 1119 1403 
Q 1119 906 1312 657 
Q 1506 409 1894 409 
Q 2359 409 2629 706 
Q 2900 1003 2900 1516 
L 2900 3500 
L 3475 3500 
L 3475 0 
L 2900 0 
L 2900 538 
Q 2691 219 2414 64 
Q 2138 -91 1772 -91 
Q 1169 -91 856 284 
Q 544 659 544 1381 
z
M 1991 3584 
L 1991 3584 
z
" id="DejaVuSans-75" transform="scale(0.015625)"/>
       <path d="M 3328 2828 
Q 3544 3216 3844 3400 
Q 4144 3584 4550 3584 
Q 5097 3584 5394 3201 
Q 5691 2819 5691 2113 
L 5691 0 
L 5113 0 
L 5113 2094 
Q 5113 2597 4934 2840 
Q 4756 3084 4391 3084 
Q 3944 3084 3684 2787 
Q 3425 2491 3425 1978 
L 3425 0 
L 2847 0 
L 2847 2094 
Q 2847 2600 2669 2842 
Q 2491 3084 2119 3084 
Q 1678 3084 1418 2786 
Q 1159 2488 1159 1978 
L 1159 0 
L 581 0 
L 581 3500 
L 1159 3500 
L 1159 2956 
Q 1356 3278 1631 3431 
Q 1906 3584 2284 3584 
Q 2666 3584 2933 3390 
Q 3200 3197 3328 2828 
z
" id="DejaVuSans-6d" transform="scale(0.015625)"/>
       <path d="M 603 4863 
L 1178 4863 
L 1178 0 
L 603 0 
L 603 4863 
z
" id="DejaVuSans-6c" transform="scale(0.015625)"/>
       <path d="M 2194 1759 
Q 1497 1759 1228 1600 
Q 959 1441 959 1056 
Q 959 750 1161 570 
Q 1363 391 1709 391 
Q 2188 391 2477 730 
Q 2766 1069 2766 1631 
L 2766 1759 
L 2194 1759 
z
M 3341 1997 
L 3341 0 
L 2766 0 
L 2766 531 
Q 2569 213 2275 61 
Q 1981 -91 1556 -91 
Q 1019 -91 701 211 
Q 384 513 384 1019 
Q 384 1609 779 1909 
Q 1175 2209 1959 2209 
L 2766 2209 
L 2766 2266 
Q 2766 2663 2505 2880 
Q 2244 3097 1772 3097 
Q 1472 3097 1187 3025 
Q 903 2953 641 2809 
L 641 3341 
Q 956 3463 1253 3523 
Q 1550 3584 1831 3584 
Q 2591 3584 2966 3190 
Q 3341 2797 3341 1997 
z
" id="DejaVuSans-61" transform="scale(0.015625)"/>
       <path d="M 1172 4494 
L 1172 3500 
L 2356 3500 
L 2356 3053 
L 1172 3053 
L 1172 1153 
Q 1172 725 1289 603 
Q 1406 481 1766 481 
L 2356 481 
L 2356 0 
L 1766 0 
Q 1100 0 847 248 
Q 594 497 594 1153 
L 594 3053 
L 172 3053 
L 172 3500 
L 594 3500 
L 594 4494 
L 1172 4494 
z
" id="DejaVuSans-74" transform="scale(0.015625)"/>
       <path d="M 191 3500 
L 800 3500 
L 1894 563 
L 2988 3500 
L 3597 3500 
L 2284 0 
L 1503 0 
L 191 3500 
z
" id="DejaVuSans-76" transform="scale(0.015625)"/>
       <path id="DejaVuSans-20" transform="scale(0.015625)"/>
       <path d="M 2841 2188 
Q 3044 2119 3236 1894 
Q 3428 1669 3622 1275 
L 4263 0 
L 3584 0 
L 2988 1197 
Q 2756 1666 2539 1819 
Q 2322 1972 1947 1972 
L 1259 1972 
L 1259 0 
L 628 0 
L 628 4666 
L 2053 4666 
Q 2853 4666 3247 4331 
Q 3641 3997 3641 3322 
Q 3641 2881 3436 2590 
Q 3231 2300 2841 2188 
z
M 1259 4147 
L 1259 2491 
L 2053 2491 
Q 2509 2491 2742 2702 
Q 2975 2913 2975 3322 
Q 2975 3731 2742 3939 
Q 2509 4147 2053 4147 
L 1259 4147 
z
" id="DejaVuSans-52" transform="scale(0.015625)"/>
       <path d="M 269 3500 
L 844 3500 
L 1563 769 
L 2278 3500 
L 2956 3500 
L 3675 769 
L 4391 3500 
L 4966 3500 
L 4050 0 
L 3372 0 
L 2619 2869 
L 1863 0 
L 1184 0 
L 269 3500 
z
" id="DejaVuSans-77" transform="scale(0.015625)"/>
       <path d="M 2631 2963 
Q 2534 3019 2420 3045 
Q 2306 3072 2169 3072 
Q 1681 3072 1420 2755 
Q 1159 2438 1159 1844 
L 1159 0 
L 581 0 
L 581 3500 
L 1159 3500 
L 1159 2956 
Q 1341 3275 1631 3429 
Q 1922 3584 2338 3584 
Q 2397 3584 2469 3576 
Q 2541 3569 2628 3553 
L 2631 2963 
z
" id="DejaVuSans-72" transform="scale(0.015625)"/>
      </defs>
      <use xlink:href="#DejaVuSans-43"/>
      <use x="69.824219" xlink:href="#DejaVuSans-75"/>
      <use x="133.203125" xlink:href="#DejaVuSans-6d"/>
      <use x="230.615234" xlink:href="#DejaVuSans-75"/>
      <use x="293.994141" xlink:href="#DejaVuSans-6c"/>
      <use x="321.777344" xlink:href="#DejaVuSans-61"/>
      <use x="383.056641" xlink:href="#DejaVuSans-74"/>
      <use x="422.265625" xlink:href="#DejaVuSans-69"/>
      <use x="450.048828" xlink:href="#DejaVuSans-76"/>
      <use x="509.228516" xlink:href="#DejaVuSans-65"/>
      <use x="570.751953" xlink:href="#DejaVuSans-20"/>
      <use x="602.539062" xlink:href="#DejaVuSans-52"/>
      <use x="667.521484" xlink:href="#DejaVuSans-65"/>
      <use x="729.044922" xlink:href="#DejaVuSans-77"/>
      <use x="810.832031" xlink:href="#DejaVuSans-61"/>
      <use x="872.111328" xlink:href="#DejaVuSans-72"/>
      <use x="911.474609" xlink:href="#DejaVuSans-64"/>
     </g>
    </g>
   </g>
   <g id="line2d_23">
    <path clip-path="url(#p2bd4ce4e6a)" d="M 57.6 200.703355 
L 57.95712 159.589113 
L 58.31424 148.825323 
L 59.02848 200.703355 
L 59.3856 159.589113 
L 59.74272 148.825323 
L 60.45696 200.703355 
L 60.81408 159.589113 
L 61.1712 148.825323 
L 61.88544 200.703355 
L 62.24256 159.589113 
L 62.59968 148.825323 
L 63.31392 200.703355 
L 63.67104 159.589113 
L 64.02816 148.825323 
L 64.7424 200.703355 
L 65.09952 159.589113 
L 65.45664 148.825323 
L 66.17088 200.703355 
L 66.528 159.589113 
L 66.88512 148.825323 
L 67.59936 200.703355 
L 67.95648 159.589113 
L 68.3136 148.825323 
L 69.02784 200.703355 
L 69.38496 159.589113 
L 69.74208 148.825323 
L 70.45632 200.703355 
L 70.81344 159.589113 
L 71.17056 148.825323 
L 71.8848 200.703355 
L 72.24192 159.589113 
L 72.59904 148.825323 
L 73.31328 200.703355 
L 73.6704 159.589113 
L 74.02752 148.825323 
L 74.74176 200.703355 
L 75.09888 159.589113 
L 75.456 148.825323 
L 76.17024 200.703355 
L 76.52736 159.589113 
L 76.88448 148.825323 
L 77.59872 200.703355 
L 77.95584 159.589113 
L 78.31296 148.825323 
L 79.0272 200.703355 
L 79.38432 159.589113 
L 79.74144 148.825323 
L 80.45568 200.703355 
L 80.8128 159.589113 
L 81.16992 148.825323 
L 81.88416 200.703355 
L 82.24128 159.589113 
L 82.5984 148.825323 
L 83.31264 200.703355 
L 83.66976 159.589113 
L 84.02688 148.825323 
L 84.74112 200.703355 
L 85.09824 159.589113 
L 85.45536 148.825323 
L 86.1696 200.703355 
L 86.52672 159.589113 
L 86.88384 148.825323 
L 87.59808 200.703355 
L 87.9552 159.589113 
L 88.31232 148.825323 
L 89.02656 200.703355 
L 89.38368 159.589113 
L 89.7408 148.825323 
L 90.45504 200.703355 
L 90.81216 159.589113 
L 91.16928 148.825323 
L 91.88352 200.703355 
L 92.24064 159.589113 
L 92.59776 148.825323 
L 92.95488 178.30595 
L 93.312 223.111127 
L 93.66912 229.479002 
L 94.02624 190.477098 
L 94.38336 166.509433 
L 94.74048 245.525111 
L 95.0976 236.938537 
L 95.45472 177.722432 
L 95.81184 167.956729 
L 96.16896 198.226576 
L 96.52608 170.756658 
L 96.8832 210.382731 
L 97.24032 144.51632 
L 97.59744 263.262333 
L 97.95456 201.662897 
L 98.31168 195.399589 
L 98.6688 166.765438 
L 99.02592 116.540391 
L 99.38304 184.847059 
L 99.74016 187.974324 
L 100.09728 214.816154 
L 100.4544 167.892875 
L 101.16864 206.029912 
L 101.52576 138.822009 
L 101.88288 141.999187 
L 102.24 199.170036 
L 102.59712 120.773365 
L 102.95424 145.165853 
L 103.31136 211.158189 
L 103.66848 188.424399 
L 104.0256 227.959726 
L 104.38272 177.879313 
L 104.73984 217.215854 
L 105.09696 125.841891 
L 105.45408 222.096361 
L 105.8112 182.312424 
L 106.16832 252.415492 
L 106.52544 161.990671 
L 106.88256 181.764693 
L 107.23968 222.018066 
L 107.5968 86.800024 
L 107.95392 174.384376 
L 108.31104 162.658299 
L 108.66816 178.904379 
L 109.02528 232.425154 
L 109.3824 124.858879 
L 109.73952 145.685246 
L 110.09664 179.801605 
L 110.45376 93.859821 
L 111.52512 227.886981 
L 111.88224 254.03185 
L 112.23936 214.572863 
L 112.59648 159.223927 
L 112.9536 147.775963 
L 113.31072 164.953473 
L 113.66784 230.01588 
L 114.02496 160.919163 
L 114.38208 154.237666 
L 114.7392 242.827447 
L 115.09632 199.102809 
L 115.45344 204.316683 
L 115.81056 285.408 
L 116.5248 143.23975 
L 116.88192 189.728065 
L 117.23904 213.075508 
L 117.59616 170.568109 
L 117.95328 219.748981 
L 118.3104 121.223176 
L 118.66752 141.046533 
L 119.02464 178.617805 
L 119.38176 185.66314 
L 119.73888 172.74725 
L 120.096 259.277954 
L 120.45312 225.958018 
L 120.81024 169.537027 
L 121.16736 187.17674 
L 121.52448 161.578375 
L 121.8816 113.270823 
L 122.23872 206.234233 
L 122.59584 253.959129 
L 122.95296 283.171637 
L 123.31008 160.489574 
L 123.6672 206.393686 
L 124.02432 168.417869 
L 124.38144 229.848648 
L 124.73856 130.610434 
L 125.4528 172.112315 
L 125.80992 158.535638 
L 126.16704 152.226332 
L 126.52416 174.628149 
L 126.88128 178.389194 
L 127.2384 168.932467 
L 127.59552 164.409049 
L 127.95264 181.364648 
L 128.30976 148.4484 
L 128.66688 155.374046 
L 129.024 157.369273 
L 129.38112 265.503228 
L 130.09536 119.860771 
L 130.45248 200.601804 
L 130.8096 106.319194 
L 131.16672 199.182441 
L 131.52384 211.057217 
L 131.88096 190.721855 
L 132.23808 143.118739 
L 132.5952 167.761458 
L 132.95232 132.962027 
L 133.66656 159.794 
L 134.02368 155.354715 
L 134.3808 123.12094 
L 135.09504 189.194281 
L 135.45216 150.856141 
L 135.80928 190.954082 
L 136.1664 116.938497 
L 136.52352 209.834604 
L 136.88064 160.083902 
L 137.23776 156.151784 
L 137.59488 238.819067 
L 137.952 157.58223 
L 138.30912 194.936846 
L 138.66624 122.259886 
L 139.02336 224.466808 
L 139.38048 180.129822 
L 139.7376 225.503615 
L 140.09472 161.187139 
L 140.45184 195.366728 
L 141.16608 148.259493 
L 141.5232 123.30065 
L 141.88032 142.696665 
L 142.23744 169.135491 
L 142.59456 162.675273 
L 142.95168 128.313486 
L 143.3088 135.948532 
L 143.66592 173.937334 
L 144.38016 115.639116 
L 144.73728 159.537384 
L 145.0944 101.221655 
L 145.45152 171.528061 
L 145.80864 171.76133 
L 146.16576 157.506062 
L 146.52288 172.444224 
L 146.88 193.349533 
L 147.23712 181.818377 
L 147.59424 184.276199 
L 147.95136 148.948552 
L 148.30848 139.739438 
L 149.02272 159.575102 
L 149.73696 152.424935 
L 150.09408 144.108386 
L 150.4512 140.186176 
L 150.80832 98.560386 
L 151.16544 187.086042 
L 151.52256 140.346673 
L 151.87968 129.380676 
L 152.2368 136.650745 
L 152.59392 161.532582 
L 152.95104 162.862965 
L 153.30816 117.317164 
L 153.66528 168.131999 
L 154.0224 171.97016 
L 154.37952 161.264447 
L 154.73664 183.263658 
L 155.09376 194.38459 
L 155.45088 162.8495 
L 155.808 92.929334 
L 156.16512 118.934127 
L 156.52224 229.231269 
L 156.87936 160.916693 
L 157.23648 140.399497 
L 157.5936 140.24628 
L 157.95072 144.746463 
L 158.30784 109.263682 
L 158.66496 145.262389 
L 159.02208 131.422393 
L 159.3792 165.425998 
L 159.73632 130.0942 
L 160.09344 126.871851 
L 160.80768 152.975409 
L 161.1648 153.024352 
L 161.52192 104.413277 
L 161.87904 85.650815 
L 162.23616 180.883984 
L 162.59328 136.591017 
L 162.9504 114.05347 
L 163.30752 198.962634 
L 163.66464 126.187529 
L 164.02176 160.712103 
L 164.37888 156.216343 
L 164.736 123.338478 
L 165.09312 142.63529 
L 165.45024 149.972204 
L 165.80736 224.340277 
L 166.16448 118.397273 
L 166.5216 131.277378 
L 166.87872 128.481302 
L 167.23584 159.461499 
L 167.59296 135.494665 
L 167.95008 178.571417 
L 168.3072 117.710639 
L 168.66432 142.934552 
L 169.02144 135.987422 
L 169.37856 119.866209 
L 169.73568 224.076651 
L 170.0928 169.382675 
L 170.44992 144.717023 
L 170.80704 165.677442 
L 171.16416 170.136799 
L 171.52128 168.834862 
L 171.8784 120.31802 
L 172.59264 193.91027 
L 172.94976 209.13448 
L 173.30688 134.560806 
L 173.664 174.751824 
L 174.02112 172.300422 
L 174.37824 179.717778 
L 174.73536 163.538447 
L 175.09248 133.255897 
L 175.4496 127.332542 
L 175.80672 160.371323 
L 176.16384 122.486228 
L 176.52096 118.598605 
L 176.87808 126.137243 
L 177.2352 114.098332 
L 177.59232 140.658755 
L 178.30656 118.734317 
L 178.66368 176.730727 
L 179.0208 126.466789 
L 179.37792 113.88758 
L 179.73504 163.467134 
L 180.09216 133.565368 
L 180.44928 122.412962 
L 180.8064 136.436045 
L 181.16352 171.270873 
L 181.52064 185.535607 
L 181.87776 113.927215 
L 182.23488 132.372926 
L 182.592 103.743662 
L 182.94912 140.311166 
L 183.30624 113.438302 
L 183.66336 227.528666 
L 184.02048 130.478142 
L 184.3776 142.48111 
L 184.73472 217.10846 
L 185.09184 186.2034 
L 185.44896 119.017853 
L 185.80608 170.075854 
L 186.1632 152.99835 
L 186.52032 102.716508 
L 186.87744 134.706496 
L 187.23456 176.656573 
L 187.59168 193.457695 
L 188.30592 99.492328 
L 188.66304 175.909369 
L 189.02016 162.169332 
L 189.37728 81.22691 
L 189.7344 165.429106 
L 190.44864 76.926141 
L 190.80576 222.07139 
L 191.16288 170.594497 
L 191.52 151.117536 
L 191.87712 122.84879 
L 192.23424 173.219219 
L 192.59136 113.642314 
L 192.94848 149.397973 
L 193.3056 137.30603 
L 193.66272 110.688628 
L 194.01984 108.009984 
L 194.37696 145.773859 
L 194.73408 147.657295 
L 195.0912 110.479313 
L 195.44832 121.635848 
L 195.80544 178.882574 
L 196.16256 170.020448 
L 196.51968 122.87848 
L 196.8768 101.296348 
L 197.23392 170.475895 
L 197.59104 91.354077 
L 197.94816 103.288751 
L 198.30528 107.955177 
L 198.6624 159.295757 
L 199.01952 133.491452 
L 199.37664 165.946573 
L 200.09088 112.398685 
L 200.448 141.819576 
L 200.80512 117.013898 
L 201.16224 102.670206 
L 201.51936 145.957991 
L 201.87648 136.067586 
L 202.2336 107.717834 
L 202.59072 112.24024 
L 202.94784 126.216654 
L 203.30496 153.813599 
L 203.66208 132.810975 
L 204.0192 143.548291 
L 204.37632 147.983984 
L 204.73344 121.02357 
L 205.09056 122.790881 
L 205.44768 123.821708 
L 205.8048 133.319325 
L 206.16192 136.878381 
L 206.51904 106.317527 
L 206.87616 93.885497 
L 207.23328 133.643348 
L 207.5904 118.620623 
L 207.94752 165.930039 
L 208.30464 76.285696 
L 208.66176 140.462429 
L 209.01888 130.871383 
L 209.376 124.30074 
L 209.73312 104.676294 
L 210.09024 103.741676 
L 210.44736 138.818301 
L 210.80448 146.659597 
L 211.1616 130.672944 
L 211.51872 124.281062 
L 211.87584 123.782812 
L 212.23296 140.568746 
L 212.59008 95.27274 
L 212.9472 154.757514 
L 213.66144 117.181042 
L 214.01856 120.225513 
L 214.37568 121.695319 
L 214.7328 84.305238 
L 215.08992 123.36788 
L 215.44704 110.958409 
L 215.80416 119.686696 
L 216.16128 134.130324 
L 216.5184 157.312399 
L 216.87552 99.191459 
L 217.23264 105.416717 
L 217.58976 147.37495 
L 217.94688 138.352119 
L 218.304 138.200229 
L 218.66112 148.856007 
L 219.01824 77.385693 
L 219.37536 131.096596 
L 219.73248 154.936671 
L 220.0896 140.155041 
L 220.44672 157.287021 
L 220.80384 112.487543 
L 221.16096 136.61861 
L 221.51808 104.66667 
L 221.8752 102.993241 
L 222.23232 129.873847 
L 222.58944 90.304272 
L 222.94656 119.652472 
L 223.30368 109.05211 
L 223.6608 148.830607 
L 224.01792 103.463935 
L 224.37504 184.765983 
L 224.73216 108.78145 
L 225.08928 117.616017 
L 225.4464 71.306703 
L 225.80352 116.812821 
L 226.51776 118.052436 
L 226.87488 100.945568 
L 227.232 124.038661 
L 227.58912 84.115903 
L 227.94624 172.630218 
L 228.30336 128.784689 
L 228.66048 114.991453 
L 229.0176 110.816791 
L 229.37472 119.546851 
L 229.73184 116.431273 
L 230.08896 99.112511 
L 230.44608 131.359943 
L 230.8032 78.413056 
L 231.16032 155.34406 
L 231.51744 145.608493 
L 231.87456 158.934051 
L 232.23168 100.419579 
L 232.5888 143.756098 
L 232.94592 82.124515 
L 233.66016 126.034325 
L 234.01728 138.61577 
L 234.3744 115.223673 
L 234.73152 156.386948 
L 235.08864 139.326051 
L 235.44576 138.346252 
L 235.80288 123.416648 
L 236.16 151.284925 
L 236.51712 147.607282 
L 236.87424 128.575763 
L 237.23136 142.43611 
L 237.58848 128.97408 
L 237.9456 127.96509 
L 238.30272 149.801653 
L 238.65984 119.863622 
L 239.01696 118.151488 
L 239.37408 151.514832 
L 239.7312 96.36862 
L 240.08832 121.089145 
L 240.44544 156.672901 
L 240.80256 148.89951 
L 241.5168 123.763427 
L 241.87392 138.025693 
L 242.23104 141.935903 
L 242.58816 110.997737 
L 242.94528 143.620069 
L 243.3024 109.997798 
L 244.01664 142.395548 
L 244.37376 128.36179 
L 244.73088 137.091709 
L 245.088 142.405014 
L 245.44512 88.042138 
L 245.80224 150.834684 
L 246.15936 145.011423 
L 246.51648 146.184946 
L 246.8736 122.827796 
L 247.23072 168.054073 
L 247.58784 121.079267 
L 247.94496 112.547498 
L 248.30208 128.641441 
L 248.6592 109.543716 
L 249.01632 133.072215 
L 249.37344 132.78495 
L 249.73056 112.062243 
L 250.08768 127.551378 
L 250.4448 154.114033 
L 250.80192 138.528097 
L 251.15904 96.072112 
L 251.51616 118.68358 
L 251.87328 87.396566 
L 252.2304 111.181534 
L 252.58752 146.10548 
L 252.94464 124.710251 
L 253.30176 138.109154 
L 253.65888 124.36005 
L 254.016 83.189326 
L 254.37312 131.383505 
L 254.73024 82.1593 
L 255.08736 142.236073 
L 255.44448 116.82544 
L 255.8016 105.398771 
L 256.51584 99.809828 
L 256.87296 132.326168 
L 257.23008 130.401043 
L 257.5872 134.177573 
L 257.94432 148.953745 
L 258.30144 171.170631 
L 258.65856 169.75339 
L 259.01568 142.425911 
L 259.3728 138.902713 
L 259.72992 187.330186 
L 260.44416 102.72491 
L 260.80128 209.070352 
L 261.1584 111.740364 
L 261.51552 162.80046 
L 261.87264 118.162402 
L 262.58688 173.686097 
L 262.944 117.388312 
L 263.30112 83.898879 
L 263.65824 107.146787 
L 264.01536 122.008614 
L 264.37248 143.236425 
L 265.08672 115.457628 
L 265.44384 161.723607 
L 265.80096 160.617216 
L 266.15808 94.619074 
L 266.5152 123.671617 
L 266.87232 87.401396 
L 267.22944 126.28492 
L 267.58656 98.211274 
L 267.94368 154.964423 
L 268.3008 135.671495 
L 268.65792 150.766152 
L 269.01504 157.103978 
L 269.37216 133.003612 
L 269.72928 141.811792 
L 270.0864 112.694015 
L 270.44352 113.954879 
L 270.80064 124.838266 
L 271.15776 161.861307 
L 271.872 105.897017 
L 272.22912 133.912804 
L 272.58624 136.916967 
L 272.94336 143.491396 
L 273.30048 101.562991 
L 273.6576 162.520078 
L 274.01472 136.257025 
L 274.37184 137.094032 
L 274.72896 138.720331 
L 275.08608 95.858464 
L 275.4432 130.498759 
L 275.80032 88.847126 
L 276.15744 116.274551 
L 276.51456 124.572879 
L 276.87168 119.091756 
L 277.58592 98.973101 
L 277.94304 163.270781 
L 278.30016 95.219263 
L 278.65728 138.177637 
L 279.0144 128.410656 
L 279.37152 134.8301 
L 279.72864 109.008396 
L 280.08576 118.965856 
L 280.44288 151.355861 
L 280.8 109.061186 
L 281.51424 134.037729 
L 281.87136 117.169036 
L 282.22848 106.663597 
L 282.5856 111.455418 
L 282.94272 128.146001 
L 283.29984 120.716242 
L 283.65696 107.252523 
L 284.3712 147.115317 
L 284.72832 114.449228 
L 285.08544 151.334433 
L 285.44256 104.513607 
L 285.79968 143.928077 
L 286.1568 116.524443 
L 286.51392 145.589397 
L 286.87104 92.55407 
L 287.22816 107.27867 
L 287.9424 123.832636 
L 288.29952 106.295179 
L 288.65664 135.949026 
L 289.01376 121.374215 
L 289.37088 123.054537 
L 289.728 118.796218 
L 290.08512 99.494227 
L 290.44224 125.757634 
L 290.79936 105.182866 
L 291.15648 126.460205 
L 291.5136 178.739777 
L 291.87072 108.492282 
L 292.22784 137.924377 
L 292.58496 141.417278 
L 292.94208 169.563983 
L 293.65632 82.121142 
L 294.01344 140.932124 
L 294.37056 150.667109 
L 294.72768 153.869842 
L 295.0848 63.648 
L 295.44192 100.04909 
L 295.79904 114.288774 
L 296.51328 178.957828 
L 296.8704 136.429393 
L 297.22752 141.14962 
L 297.58464 127.134963 
L 297.94176 181.576524 
L 298.29888 121.693301 
L 298.656 138.562686 
L 299.01312 121.774723 
L 299.37024 138.024994 
L 299.72736 115.556572 
L 300.08448 112.339654 
L 300.4416 179.181135 
L 300.79872 147.218551 
L 301.15584 104.619778 
L 301.51296 105.478621 
L 301.87008 154.317167 
L 302.2272 137.036212 
L 302.58432 81.785362 
L 302.94144 102.88486 
L 303.29856 156.191967 
L 303.65568 88.341404 
L 304.0128 130.40785 
L 304.36992 123.078314 
L 304.72704 166.045024 
L 305.08416 111.824846 
L 305.44128 137.461744 
L 305.7984 104.73455 
L 306.15552 99.508233 
L 306.51264 103.119627 
L 306.86976 99.63543 
L 307.22688 131.776075 
L 307.584 113.213443 
L 307.94112 120.500612 
L 308.29824 102.038354 
L 308.65536 117.227629 
L 309.01248 172.592654 
L 309.3696 181.624226 
L 309.72672 98.385301 
L 310.08384 143.808179 
L 310.44096 115.30403 
L 310.79808 102.016979 
L 311.1552 161.473294 
L 311.51232 144.86339 
L 311.86944 134.021603 
L 312.22656 160.537915 
L 312.58368 92.976656 
L 312.9408 118.367882 
L 313.29792 127.217284 
L 313.65504 127.043805 
L 314.01216 118.02988 
L 314.36928 135.781396 
L 315.44064 81.572265 
L 315.79776 145.402445 
L 316.15488 80.981156 
L 316.512 153.827148 
L 316.86912 78.489797 
L 317.22624 182.632331 
L 317.58336 156.358749 
L 317.94048 114.954823 
L 318.2976 126.435239 
L 318.65472 147.020616 
L 319.01184 106.862361 
L 319.36896 93.775291 
L 319.72608 143.744888 
L 320.0832 123.382276 
L 320.44032 161.196916 
L 320.79744 101.036219 
L 321.15456 157.478931 
L 321.51168 113.670785 
L 321.8688 138.724609 
L 322.22592 133.849302 
L 322.58304 143.953233 
L 322.94016 134.591322 
L 323.29728 106.355599 
L 323.6544 122.019766 
L 324.01152 112.832846 
L 324.36864 87.439484 
L 324.72576 101.706529 
L 325.08288 139.831086 
L 325.44 119.470091 
L 325.79712 112.857087 
L 326.15424 134.222782 
L 326.51136 178.749689 
L 326.86848 126.065409 
L 327.2256 118.491116 
L 327.58272 103.470588 
L 327.93984 115.192119 
L 328.29696 142.144134 
L 328.65408 92.962147 
L 329.0112 126.756444 
L 329.36832 147.382777 
L 329.72544 155.406486 
L 330.08256 133.77698 
L 330.43968 138.844781 
L 330.7968 155.664908 
L 331.15392 108.89251 
L 331.51104 124.527527 
L 331.86816 107.713317 
L 332.22528 125.336677 
L 332.5824 134.752747 
L 332.93952 105.27318 
L 333.29664 132.247411 
L 333.65376 128.725382 
L 334.01088 154.545673 
L 334.368 106.574295 
L 334.72512 114.818867 
L 335.08224 88.076774 
L 335.43936 131.480917 
L 335.79648 109.902751 
L 336.1536 157.672556 
L 336.51072 113.83541 
L 336.86784 96.101081 
L 337.22496 130.3108 
L 337.58208 111.374295 
L 337.9392 108.557885 
L 338.29632 129.764195 
L 338.65344 137.994367 
L 339.01056 149.118103 
L 339.36768 81.402954 
L 340.08192 171.148607 
L 340.43904 140.491802 
L 340.79616 165.356997 
L 341.15328 110.93276 
L 341.86752 175.084536 
L 342.22464 131.055752 
L 342.58176 168.534072 
L 342.93888 117.294442 
L 343.296 122.663631 
L 343.65312 139.88435 
L 344.01024 150.427373 
L 344.36736 98.840459 
L 344.72448 118.101447 
L 345.0816 110.532291 
L 345.43872 178.225639 
L 345.79584 132.230579 
L 346.15296 110.078512 
L 346.8672 131.924116 
L 347.22432 178.514437 
L 347.58144 130.869196 
L 347.93856 104.61481 
L 348.29568 103.684924 
L 348.6528 109.158558 
L 349.00992 94.246331 
L 349.36704 141.62324 
L 349.72416 137.995604 
L 350.08128 107.005387 
L 350.4384 104.706145 
L 350.79552 97.302761 
L 351.15264 119.658176 
L 351.50976 100.027289 
L 351.86688 157.411651 
L 352.224 100.318314 
L 352.58112 118.310974 
L 352.93824 77.725089 
L 353.29536 135.108898 
L 353.65248 92.377395 
L 354.0096 122.383529 
L 354.36672 83.272195 
L 354.72384 110.327894 
L 355.08096 117.00627 
L 355.7952 87.094952 
L 356.15232 161.719926 
L 356.50944 126.537624 
L 356.86656 129.042336 
L 357.22368 168.126873 
L 357.5808 97.205124 
L 357.93792 134.254736 
L 358.29504 154.958172 
L 358.65216 125.651945 
L 359.00928 109.915474 
L 359.3664 107.003637 
L 359.72352 111.102555 
L 360.08064 96.862208 
L 360.43776 121.983787 
L 360.79488 78.223255 
L 361.152 142.339315 
L 361.50912 115.516369 
L 361.86624 168.252438 
L 362.58048 111.405716 
L 362.9376 139.696566 
L 363.29472 133.48321 
L 363.65184 110.962044 
L 364.00896 125.306164 
L 364.36608 149.047966 
L 364.7232 126.235906 
L 365.08032 135.6772 
L 365.43744 90.003759 
L 365.79456 105.818158 
L 366.15168 102.790506 
L 366.86592 99.129545 
L 367.22304 149.815609 
L 367.93728 117.218891 
L 368.2944 111.838422 
L 368.65152 134.218848 
L 369.00864 109.434623 
L 369.36576 126.510935 
L 369.72288 121.185794 
L 370.08 107.046253 
L 370.79424 112.678998 
L 371.15136 127.668039 
L 371.8656 112.261804 
L 372.22272 116.497359 
L 372.57984 107.891104 
L 372.93696 102.256168 
L 373.29408 129.59661 
L 374.00832 157.376885 
L 374.36544 143.105548 
L 374.72256 108.536268 
L 375.07968 123.129237 
L 375.4368 105.308939 
L 375.79392 130.608922 
L 376.15104 113.769614 
L 376.50816 108.18068 
L 376.86528 111.482044 
L 377.2224 130.083382 
L 377.57952 110.164252 
L 377.93664 117.803098 
L 378.29376 109.683512 
L 378.65088 86.825564 
L 379.008 124.232359 
L 379.36512 111.166124 
L 379.72224 116.086294 
L 380.43648 103.38444 
L 380.7936 122.23628 
L 381.15072 91.369957 
L 381.50784 128.1546 
L 381.86496 112.500395 
L 382.22208 122.012588 
L 382.5792 105.487206 
L 382.93632 82.642289 
L 383.65056 142.178194 
L 384.00768 97.498743 
L 384.3648 164.8571 
L 384.72192 101.985013 
L 385.07904 120.372573 
L 385.43616 130.837586 
L 385.79328 107.528966 
L 386.1504 118.770235 
L 386.50752 93.888014 
L 386.86464 130.761629 
L 387.22176 125.468781 
L 387.57888 116.56285 
L 387.936 113.079577 
L 388.29312 104.878413 
L 388.65024 123.076004 
L 389.00736 131.020632 
L 389.36448 99.538238 
L 389.7216 147.715028 
L 390.07872 139.396694 
L 390.43584 82.261263 
L 390.79296 121.328981 
L 391.15008 63.959388 
L 391.5072 108.566446 
L 391.86432 96.323412 
L 392.22144 125.869477 
L 392.57856 90.449688 
L 392.93568 130.705033 
L 393.2928 119.667814 
L 393.64992 82.739257 
L 394.00704 141.708268 
L 394.36416 138.732402 
L 394.72128 108.147249 
L 395.43552 142.700021 
L 395.79264 114.667856 
L 396.14976 107.299933 
L 396.864 183.50146 
L 397.22112 107.162908 
L 397.57824 146.978748 
L 397.93536 127.030234 
L 398.29248 116.600584 
L 398.6496 133.147519 
L 399.00672 119.570052 
L 399.36384 147.577825 
L 399.72096 107.702822 
L 400.07808 109.788973 
L 400.4352 112.731539 
L 400.79232 120.915514 
L 401.14944 121.56473 
L 401.50656 137.923711 
L 401.86368 100.320793 
L 402.2208 111.258602 
L 402.57792 128.726563 
L 402.93504 98.727142 
L 403.29216 86.946137 
L 404.0064 111.898723 
L 404.36352 108.498849 
L 404.72064 129.239846 
L 405.07776 95.000825 
L 405.43488 136.546256 
L 405.792 113.949337 
L 406.14912 114.567894 
L 406.50624 139.296187 
L 406.86336 132.160425 
L 407.22048 92.546077 
L 407.93472 101.626474 
L 408.29184 99.145132 
L 408.64896 98.447571 
L 409.00608 86.91891 
L 409.3632 130.681957 
L 409.72032 143.064692 
L 410.07744 133.433548 
L 410.43456 113.038109 
L 410.79168 129.224577 
L 411.1488 121.004624 
L 411.50592 123.305797 
L 411.86304 100.227369 
L 412.22016 109.393834 
L 412.9344 88.548646 
L 414.00576 126.927222 
L 414.36288 110.516643 
L 414.36288 110.516643 
" style="fill:none;stroke:#0000ff;stroke-linecap:square;stroke-width:1.5;"/>
   </g>
   <g id="patch_3">
    <path d="M 57.6 307.584 
L 57.6 41.472 
" style="fill:none;stroke:#000000;stroke-linecap:square;stroke-linejoin:miter;stroke-width:0.8;"/>
   </g>
   <g id="patch_4">
    <path d="M 414.72 307.584 
L 414.72 41.472 
" style="fill:none;stroke:#000000;stroke-linecap:square;stroke-linejoin:miter;stroke-width:0.8;"/>
   </g>
   <g id="patch_5">
    <path d="M 57.6 307.584 
L 414.72 307.584 
" style="fill:none;stroke:#000000;stroke-linecap:square;stroke-linejoin:miter;stroke-width:0.8;"/>
   </g>
   <g id="patch_6">
    <path d="M 57.6 41.472 
L 414.72 41.472 
" style="fill:none;stroke:#000000;stroke-linecap:square;stroke-linejoin:miter;stroke-width:0.8;"/>
   </g>
   <g id="legend_1">
    <g id="patch_7">
     <path d="M 64.6 64.150125 
L 189.998437 64.150125 
Q 191.998437 64.150125 191.998437 62.150125 
L 191.998437 48.472 
Q 191.998437 46.472 189.998437 46.472 
L 64.6 46.472 
Q 62.6 46.472 62.6 48.472 
L 62.6 62.150125 
Q 62.6 64.150125 64.6 64.150125 
z
" style="fill:#ffffff;opacity:0.8;stroke:#cccccc;stroke-linejoin:miter;"/>
    </g>
    <g id="line2d_24">
     <path d="M 66.6 54.570438 
L 86.6 54.570438 
" style="fill:none;stroke:#0000ff;stroke-linecap:square;stroke-width:1.5;"/>
    </g>
    <g id="line2d_25"/>
    <g id="text_14">
     <!-- cumulative reward -->
     <g transform="translate(94.6 58.070438)scale(0.1 -0.1)">
      <defs>
       <path d="M 3122 3366 
L 3122 2828 
Q 2878 2963 2633 3030 
Q 2388 3097 2138 3097 
Q 1578 3097 1268 2742 
Q 959 2388 959 1747 
Q 959 1106 1268 751 
Q 1578 397 2138 397 
Q 2388 397 2633 464 
Q 2878 531 3122 666 
L 3122 134 
Q 2881 22 2623 -34 
Q 2366 -91 2075 -91 
Q 1284 -91 818 406 
Q 353 903 353 1747 
Q 353 2603 823 3093 
Q 1294 3584 2113 3584 
Q 2378 3584 2631 3529 
Q 2884 3475 3122 3366 
z
" id="DejaVuSans-63" transform="scale(0.015625)"/>
      </defs>
      <use xlink:href="#DejaVuSans-63"/>
      <use x="54.980469" xlink:href="#DejaVuSans-75"/>
      <use x="118.359375" xlink:href="#DejaVuSans-6d"/>
      <use x="215.771484" xlink:href="#DejaVuSans-75"/>
      <use x="279.150391" xlink:href="#DejaVuSans-6c"/>
      <use x="306.933594" xlink:href="#DejaVuSans-61"/>
      <use x="368.212891" xlink:href="#DejaVuSans-74"/>
      <use x="407.421875" xlink:href="#DejaVuSans-69"/>
      <use x="435.205078" xlink:href="#DejaVuSans-76"/>
      <use x="494.384766" xlink:href="#DejaVuSans-65"/>
      <use x="555.908203" xlink:href="#DejaVuSans-20"/>
      <use x="587.695312" xlink:href="#DejaVuSans-72"/>
      <use x="626.558594" xlink:href="#DejaVuSans-65"/>
      <use x="688.082031" xlink:href="#DejaVuSans-77"/>
      <use x="769.869141" xlink:href="#DejaVuSans-61"/>
      <use x="831.148438" xlink:href="#DejaVuSans-72"/>
      <use x="870.511719" xlink:href="#DejaVuSans-64"/>
     </g>
    </g>
   </g>
  </g>
 </g>
 <defs>
  <clipPath id="p2bd4ce4e6a">
   <rect height="266.112" width="357.12" x="57.6" y="41.472"/>
  </clipPath>
 </defs>
</svg>
