<?xml version="1.0" encoding="utf-8" standalone="no"?>
<!DOCTYPE svg PUBLIC "-//W3C//DTD SVG 1.1//EN"
  "http://www.w3.org/Graphics/SVG/1.1/DTD/svg11.dtd">
<svg height="345.6pt" version="1.1" viewBox="0 0 460.8 345.6" width="460.8pt" xmlns="http://www.w3.org/2000/svg" xmlns:xlink="http://www.w3.org/1999/xlink">
 <metadata>
  <rdf:RDF xmlns:cc="http://creativecommons.org/ns#" xmlns:dc="http://purl.org/dc/elements/1.1/" xmlns:rdf="http://www.w3.org/1999/02/22-rdf-syntax-ns#">
   <cc:Work>
    <dc:type rdf:resource="http://purl.org/dc/dcmitype/StillImage"/>
    <dc:date>2021-11-18T16:37:00.217799</dc:date>
    <dc:description>{"agent.algorithm": "RayProximalPolicyOptimization", "agent.algorithm.render_env": false, "agent.algorithm.num_workers": 0, "agent.algorithm.batch_mode": "complete_episodes", "agent.algorithm.lr": 5e-05, "agent.algorithm.train_batch_size": 200, "agent.algorithm.optimizer": "Adam", "agent.algorithm.vf_clip_param": 10, "agent.algorithm.model": {"fcnet_activation": "relu", "fcnet_hiddens": [50, 50]}, "env.env_class": "SchedulerPolicyRayEnvironment", "env.env_config": {"solver_driver": "DEdriver", "solver_driver_args": [10, 10, 11, "best1bin", "uniform"], "maximize": false, "steps": 50, "state_metrics_names": ["DifferenceOfBest", "SolverStateHistory"], "state_metrics_config": [[40, false, 1, true, false], [{"F_min": {"max": [2], "min": [0]}, "F_max": {"max": [2], "min": [0]}, "CR_min": {"max": [1], "min": [0]}, "CR_max": {"max": [1], "min": [0]}}, 40]], "reward_metric": "DeltaBest", "reward_metric_config": [false, true, true], "memes_no": 1, "action_space_config": {"F_min": {"max": 2, "min": 0}, "F_max": {"max": 2, "min": 0}, "CR_min": {"max": 1, "min": 0}, "CR_max": {"max": 1, "min": 0}}}}</dc:description>
    <dc:format>image/svg+xml</dc:format>
    <dc:creator>
     <cc:Agent>
      <dc:title>Matplotlib v3.4.3, https://matplotlib.org/</dc:title>
     </cc:Agent>
    </dc:creator>
   </cc:Work>
  </rdf:RDF>
 </metadata>
 <defs>
  <style type="text/css">*{stroke-linecap:butt;stroke-linejoin:round;}</style>
 </defs>
 <g id="figure_1">
  <g id="patch_1">
   <path d="M 0 345.6 
L 460.8 345.6 
L 460.8 0 
L 0 0 
z
" style="fill:#ffffff;"/>
  </g>
  <g id="axes_1">
   <g id="patch_2">
    <path d="M 57.6 307.584 
L 414.72 307.584 
L 414.72 41.472 
L 57.6 41.472 
z
" style="fill:#ffffff;"/>
   </g>
   <g id="matplotlib.axis_1">
    <g id="xtick_1">
     <g id="line2d_1">
      <path clip-path="url(#p64f0a1c3bd)" d="M 57.6 307.584 
L 57.6 41.472 
" style="fill:none;stroke:#b0b0b0;stroke-linecap:square;stroke-width:0.8;"/>
     </g>
     <g id="line2d_2">
      <defs>
       <path d="M 0 0 
L 0 3.5 
" id="meb939888bf" style="stroke:#000000;stroke-width:0.8;"/>
      </defs>
      <g>
       <use style="stroke:#000000;stroke-width:0.8;" x="57.6" xlink:href="#meb939888bf" y="307.584"/>
      </g>
     </g>
     <g id="text_1">
      <!-- 0 -->
      <g transform="translate(52.51 326.7415)scale(0.16 -0.16)">
       <defs>
        <path d="M 2034 4250 
Q 1547 4250 1301 3770 
Q 1056 3291 1056 2328 
Q 1056 1369 1301 889 
Q 1547 409 2034 409 
Q 2525 409 2770 889 
Q 3016 1369 3016 2328 
Q 3016 3291 2770 3770 
Q 2525 4250 2034 4250 
z
M 2034 4750 
Q 2819 4750 3233 4129 
Q 3647 3509 3647 2328 
Q 3647 1150 3233 529 
Q 2819 -91 2034 -91 
Q 1250 -91 836 529 
Q 422 1150 422 2328 
Q 422 3509 836 4129 
Q 1250 4750 2034 4750 
z
" id="DejaVuSans-30" transform="scale(0.015625)"/>
       </defs>
       <use xlink:href="#DejaVuSans-30"/>
      </g>
     </g>
    </g>
    <g id="xtick_2">
     <g id="line2d_3">
      <path clip-path="url(#p64f0a1c3bd)" d="M 117.12 307.584 
L 117.12 41.472 
" style="fill:none;stroke:#b0b0b0;stroke-linecap:square;stroke-width:0.8;"/>
     </g>
     <g id="line2d_4">
      <g>
       <use style="stroke:#000000;stroke-width:0.8;" x="117.12" xlink:href="#meb939888bf" y="307.584"/>
      </g>
     </g>
     <g id="text_2">
      <!-- 500 -->
      <g transform="translate(101.85 326.7415)scale(0.16 -0.16)">
       <defs>
        <path d="M 691 4666 
L 3169 4666 
L 3169 4134 
L 1269 4134 
L 1269 2991 
Q 1406 3038 1543 3061 
Q 1681 3084 1819 3084 
Q 2600 3084 3056 2656 
Q 3513 2228 3513 1497 
Q 3513 744 3044 326 
Q 2575 -91 1722 -91 
Q 1428 -91 1123 -41 
Q 819 9 494 109 
L 494 744 
Q 775 591 1075 516 
Q 1375 441 1709 441 
Q 2250 441 2565 725 
Q 2881 1009 2881 1497 
Q 2881 1984 2565 2268 
Q 2250 2553 1709 2553 
Q 1456 2553 1204 2497 
Q 953 2441 691 2322 
L 691 4666 
z
" id="DejaVuSans-35" transform="scale(0.015625)"/>
       </defs>
       <use xlink:href="#DejaVuSans-35"/>
       <use x="63.623047" xlink:href="#DejaVuSans-30"/>
       <use x="127.246094" xlink:href="#DejaVuSans-30"/>
      </g>
     </g>
    </g>
    <g id="xtick_3">
     <g id="line2d_5">
      <path clip-path="url(#p64f0a1c3bd)" d="M 176.64 307.584 
L 176.64 41.472 
" style="fill:none;stroke:#b0b0b0;stroke-linecap:square;stroke-width:0.8;"/>
     </g>
     <g id="line2d_6">
      <g>
       <use style="stroke:#000000;stroke-width:0.8;" x="176.64" xlink:href="#meb939888bf" y="307.584"/>
      </g>
     </g>
     <g id="text_3">
      <!-- 1000 -->
      <g transform="translate(156.28 326.7415)scale(0.16 -0.16)">
       <defs>
        <path d="M 794 531 
L 1825 531 
L 1825 4091 
L 703 3866 
L 703 4441 
L 1819 4666 
L 2450 4666 
L 2450 531 
L 3481 531 
L 3481 0 
L 794 0 
L 794 531 
z
" id="DejaVuSans-31" transform="scale(0.015625)"/>
       </defs>
       <use xlink:href="#DejaVuSans-31"/>
       <use x="63.623047" xlink:href="#DejaVuSans-30"/>
       <use x="127.246094" xlink:href="#DejaVuSans-30"/>
       <use x="190.869141" xlink:href="#DejaVuSans-30"/>
      </g>
     </g>
    </g>
    <g id="xtick_4">
     <g id="line2d_7">
      <path clip-path="url(#p64f0a1c3bd)" d="M 236.16 307.584 
L 236.16 41.472 
" style="fill:none;stroke:#b0b0b0;stroke-linecap:square;stroke-width:0.8;"/>
     </g>
     <g id="line2d_8">
      <g>
       <use style="stroke:#000000;stroke-width:0.8;" x="236.16" xlink:href="#meb939888bf" y="307.584"/>
      </g>
     </g>
     <g id="text_4">
      <!-- 1500 -->
      <g transform="translate(215.8 326.7415)scale(0.16 -0.16)">
       <use xlink:href="#DejaVuSans-31"/>
       <use x="63.623047" xlink:href="#DejaVuSans-35"/>
       <use x="127.246094" xlink:href="#DejaVuSans-30"/>
       <use x="190.869141" xlink:href="#DejaVuSans-30"/>
      </g>
     </g>
    </g>
    <g id="xtick_5">
     <g id="line2d_9">
      <path clip-path="url(#p64f0a1c3bd)" d="M 295.68 307.584 
L 295.68 41.472 
" style="fill:none;stroke:#b0b0b0;stroke-linecap:square;stroke-width:0.8;"/>
     </g>
     <g id="line2d_10">
      <g>
       <use style="stroke:#000000;stroke-width:0.8;" x="295.68" xlink:href="#meb939888bf" y="307.584"/>
      </g>
     </g>
     <g id="text_5">
      <!-- 2000 -->
      <g transform="translate(275.32 326.7415)scale(0.16 -0.16)">
       <defs>
        <path d="M 1228 531 
L 3431 531 
L 3431 0 
L 469 0 
L 469 531 
Q 828 903 1448 1529 
Q 2069 2156 2228 2338 
Q 2531 2678 2651 2914 
Q 2772 3150 2772 3378 
Q 2772 3750 2511 3984 
Q 2250 4219 1831 4219 
Q 1534 4219 1204 4116 
Q 875 4013 500 3803 
L 500 4441 
Q 881 4594 1212 4672 
Q 1544 4750 1819 4750 
Q 2544 4750 2975 4387 
Q 3406 4025 3406 3419 
Q 3406 3131 3298 2873 
Q 3191 2616 2906 2266 
Q 2828 2175 2409 1742 
Q 1991 1309 1228 531 
z
" id="DejaVuSans-32" transform="scale(0.015625)"/>
       </defs>
       <use xlink:href="#DejaVuSans-32"/>
       <use x="63.623047" xlink:href="#DejaVuSans-30"/>
       <use x="127.246094" xlink:href="#DejaVuSans-30"/>
       <use x="190.869141" xlink:href="#DejaVuSans-30"/>
      </g>
     </g>
    </g>
    <g id="xtick_6">
     <g id="line2d_11">
      <path clip-path="url(#p64f0a1c3bd)" d="M 355.2 307.584 
L 355.2 41.472 
" style="fill:none;stroke:#b0b0b0;stroke-linecap:square;stroke-width:0.8;"/>
     </g>
     <g id="line2d_12">
      <g>
       <use style="stroke:#000000;stroke-width:0.8;" x="355.2" xlink:href="#meb939888bf" y="307.584"/>
      </g>
     </g>
     <g id="text_6">
      <!-- 2500 -->
      <g transform="translate(334.84 326.7415)scale(0.16 -0.16)">
       <use xlink:href="#DejaVuSans-32"/>
       <use x="63.623047" xlink:href="#DejaVuSans-35"/>
       <use x="127.246094" xlink:href="#DejaVuSans-30"/>
       <use x="190.869141" xlink:href="#DejaVuSans-30"/>
      </g>
     </g>
    </g>
    <g id="xtick_7">
     <g id="line2d_13">
      <path clip-path="url(#p64f0a1c3bd)" d="M 414.72 307.584 
L 414.72 41.472 
" style="fill:none;stroke:#b0b0b0;stroke-linecap:square;stroke-width:0.8;"/>
     </g>
     <g id="line2d_14">
      <g>
       <use style="stroke:#000000;stroke-width:0.8;" x="414.72" xlink:href="#meb939888bf" y="307.584"/>
      </g>
     </g>
     <g id="text_7">
      <!-- 3000 -->
      <g transform="translate(394.36 326.7415)scale(0.16 -0.16)">
       <defs>
        <path d="M 2597 2516 
Q 3050 2419 3304 2112 
Q 3559 1806 3559 1356 
Q 3559 666 3084 287 
Q 2609 -91 1734 -91 
Q 1441 -91 1130 -33 
Q 819 25 488 141 
L 488 750 
Q 750 597 1062 519 
Q 1375 441 1716 441 
Q 2309 441 2620 675 
Q 2931 909 2931 1356 
Q 2931 1769 2642 2001 
Q 2353 2234 1838 2234 
L 1294 2234 
L 1294 2753 
L 1863 2753 
Q 2328 2753 2575 2939 
Q 2822 3125 2822 3475 
Q 2822 3834 2567 4026 
Q 2313 4219 1838 4219 
Q 1578 4219 1281 4162 
Q 984 4106 628 3988 
L 628 4550 
Q 988 4650 1302 4700 
Q 1616 4750 1894 4750 
Q 2613 4750 3031 4423 
Q 3450 4097 3450 3541 
Q 3450 3153 3228 2886 
Q 3006 2619 2597 2516 
z
" id="DejaVuSans-33" transform="scale(0.015625)"/>
       </defs>
       <use xlink:href="#DejaVuSans-33"/>
       <use x="63.623047" xlink:href="#DejaVuSans-30"/>
       <use x="127.246094" xlink:href="#DejaVuSans-30"/>
       <use x="190.869141" xlink:href="#DejaVuSans-30"/>
      </g>
     </g>
    </g>
    <g id="text_8">
     <!-- Episodes -->
     <g transform="translate(200.5725 346.2265)scale(0.16 -0.16)">
      <defs>
       <path d="M 628 4666 
L 3578 4666 
L 3578 4134 
L 1259 4134 
L 1259 2753 
L 3481 2753 
L 3481 2222 
L 1259 2222 
L 1259 531 
L 3634 531 
L 3634 0 
L 628 0 
L 628 4666 
z
" id="DejaVuSans-45" transform="scale(0.015625)"/>
       <path d="M 1159 525 
L 1159 -1331 
L 581 -1331 
L 581 3500 
L 1159 3500 
L 1159 2969 
Q 1341 3281 1617 3432 
Q 1894 3584 2278 3584 
Q 2916 3584 3314 3078 
Q 3713 2572 3713 1747 
Q 3713 922 3314 415 
Q 2916 -91 2278 -91 
Q 1894 -91 1617 61 
Q 1341 213 1159 525 
z
M 3116 1747 
Q 3116 2381 2855 2742 
Q 2594 3103 2138 3103 
Q 1681 3103 1420 2742 
Q 1159 2381 1159 1747 
Q 1159 1113 1420 752 
Q 1681 391 2138 391 
Q 2594 391 2855 752 
Q 3116 1113 3116 1747 
z
" id="DejaVuSans-70" transform="scale(0.015625)"/>
       <path d="M 603 3500 
L 1178 3500 
L 1178 0 
L 603 0 
L 603 3500 
z
M 603 4863 
L 1178 4863 
L 1178 4134 
L 603 4134 
L 603 4863 
z
" id="DejaVuSans-69" transform="scale(0.015625)"/>
       <path d="M 2834 3397 
L 2834 2853 
Q 2591 2978 2328 3040 
Q 2066 3103 1784 3103 
Q 1356 3103 1142 2972 
Q 928 2841 928 2578 
Q 928 2378 1081 2264 
Q 1234 2150 1697 2047 
L 1894 2003 
Q 2506 1872 2764 1633 
Q 3022 1394 3022 966 
Q 3022 478 2636 193 
Q 2250 -91 1575 -91 
Q 1294 -91 989 -36 
Q 684 19 347 128 
L 347 722 
Q 666 556 975 473 
Q 1284 391 1588 391 
Q 1994 391 2212 530 
Q 2431 669 2431 922 
Q 2431 1156 2273 1281 
Q 2116 1406 1581 1522 
L 1381 1569 
Q 847 1681 609 1914 
Q 372 2147 372 2553 
Q 372 3047 722 3315 
Q 1072 3584 1716 3584 
Q 2034 3584 2315 3537 
Q 2597 3491 2834 3397 
z
" id="DejaVuSans-73" transform="scale(0.015625)"/>
       <path d="M 1959 3097 
Q 1497 3097 1228 2736 
Q 959 2375 959 1747 
Q 959 1119 1226 758 
Q 1494 397 1959 397 
Q 2419 397 2687 759 
Q 2956 1122 2956 1747 
Q 2956 2369 2687 2733 
Q 2419 3097 1959 3097 
z
M 1959 3584 
Q 2709 3584 3137 3096 
Q 3566 2609 3566 1747 
Q 3566 888 3137 398 
Q 2709 -91 1959 -91 
Q 1206 -91 779 398 
Q 353 888 353 1747 
Q 353 2609 779 3096 
Q 1206 3584 1959 3584 
z
" id="DejaVuSans-6f" transform="scale(0.015625)"/>
       <path d="M 2906 2969 
L 2906 4863 
L 3481 4863 
L 3481 0 
L 2906 0 
L 2906 525 
Q 2725 213 2448 61 
Q 2172 -91 1784 -91 
Q 1150 -91 751 415 
Q 353 922 353 1747 
Q 353 2572 751 3078 
Q 1150 3584 1784 3584 
Q 2172 3584 2448 3432 
Q 2725 3281 2906 2969 
z
M 947 1747 
Q 947 1113 1208 752 
Q 1469 391 1925 391 
Q 2381 391 2643 752 
Q 2906 1113 2906 1747 
Q 2906 2381 2643 2742 
Q 2381 3103 1925 3103 
Q 1469 3103 1208 2742 
Q 947 2381 947 1747 
z
" id="DejaVuSans-64" transform="scale(0.015625)"/>
       <path d="M 3597 1894 
L 3597 1613 
L 953 1613 
Q 991 1019 1311 708 
Q 1631 397 2203 397 
Q 2534 397 2845 478 
Q 3156 559 3463 722 
L 3463 178 
Q 3153 47 2828 -22 
Q 2503 -91 2169 -91 
Q 1331 -91 842 396 
Q 353 884 353 1716 
Q 353 2575 817 3079 
Q 1281 3584 2069 3584 
Q 2775 3584 3186 3129 
Q 3597 2675 3597 1894 
z
M 3022 2063 
Q 3016 2534 2758 2815 
Q 2500 3097 2075 3097 
Q 1594 3097 1305 2825 
Q 1016 2553 972 2059 
L 3022 2063 
z
" id="DejaVuSans-65" transform="scale(0.015625)"/>
      </defs>
      <use xlink:href="#DejaVuSans-45"/>
      <use x="63.183594" xlink:href="#DejaVuSans-70"/>
      <use x="126.660156" xlink:href="#DejaVuSans-69"/>
      <use x="154.443359" xlink:href="#DejaVuSans-73"/>
      <use x="206.542969" xlink:href="#DejaVuSans-6f"/>
      <use x="267.724609" xlink:href="#DejaVuSans-64"/>
      <use x="331.201172" xlink:href="#DejaVuSans-65"/>
      <use x="392.724609" xlink:href="#DejaVuSans-73"/>
     </g>
    </g>
   </g>
   <g id="matplotlib.axis_2">
    <g id="ytick_1">
     <g id="line2d_15">
      <path clip-path="url(#p64f0a1c3bd)" d="M 57.6 285.408 
L 414.72 285.408 
" style="fill:none;stroke:#b0b0b0;stroke-linecap:square;stroke-width:0.8;"/>
     </g>
     <g id="line2d_16">
      <defs>
       <path d="M 0 0 
L -3.5 0 
" id="mc70e96d6d0" style="stroke:#000000;stroke-width:0.8;"/>
      </defs>
      <g>
       <use style="stroke:#000000;stroke-width:0.8;" x="57.6" xlink:href="#mc70e96d6d0" y="285.408"/>
      </g>
     </g>
     <g id="text_9">
      <!-- 0 -->
      <g transform="translate(40.42 291.48675)scale(0.16 -0.16)">
       <use xlink:href="#DejaVuSans-30"/>
      </g>
     </g>
    </g>
    <g id="ytick_2">
     <g id="line2d_17">
      <path clip-path="url(#p64f0a1c3bd)" d="M 57.6 235.503049 
L 414.72 235.503049 
" style="fill:none;stroke:#b0b0b0;stroke-linecap:square;stroke-width:0.8;"/>
     </g>
     <g id="line2d_18">
      <g>
       <use style="stroke:#000000;stroke-width:0.8;" x="57.6" xlink:href="#mc70e96d6d0" y="235.503049"/>
      </g>
     </g>
     <g id="text_10">
      <!-- 2 -->
      <g transform="translate(40.42 241.581799)scale(0.16 -0.16)">
       <use xlink:href="#DejaVuSans-32"/>
      </g>
     </g>
    </g>
    <g id="ytick_3">
     <g id="line2d_19">
      <path clip-path="url(#p64f0a1c3bd)" d="M 57.6 185.598098 
L 414.72 185.598098 
" style="fill:none;stroke:#b0b0b0;stroke-linecap:square;stroke-width:0.8;"/>
     </g>
     <g id="line2d_20">
      <g>
       <use style="stroke:#000000;stroke-width:0.8;" x="57.6" xlink:href="#mc70e96d6d0" y="185.598098"/>
      </g>
     </g>
     <g id="text_11">
      <!-- 4 -->
      <g transform="translate(40.42 191.676848)scale(0.16 -0.16)">
       <defs>
        <path d="M 2419 4116 
L 825 1625 
L 2419 1625 
L 2419 4116 
z
M 2253 4666 
L 3047 4666 
L 3047 1625 
L 3713 1625 
L 3713 1100 
L 3047 1100 
L 3047 0 
L 2419 0 
L 2419 1100 
L 313 1100 
L 313 1709 
L 2253 4666 
z
" id="DejaVuSans-34" transform="scale(0.015625)"/>
       </defs>
       <use xlink:href="#DejaVuSans-34"/>
      </g>
     </g>
    </g>
    <g id="ytick_4">
     <g id="line2d_21">
      <path clip-path="url(#p64f0a1c3bd)" d="M 57.6 135.693147 
L 414.72 135.693147 
" style="fill:none;stroke:#b0b0b0;stroke-linecap:square;stroke-width:0.8;"/>
     </g>
     <g id="line2d_22">
      <g>
       <use style="stroke:#000000;stroke-width:0.8;" x="57.6" xlink:href="#mc70e96d6d0" y="135.693147"/>
      </g>
     </g>
     <g id="text_12">
      <!-- 6 -->
      <g transform="translate(40.42 141.771897)scale(0.16 -0.16)">
       <defs>
        <path d="M 2113 2584 
Q 1688 2584 1439 2293 
Q 1191 2003 1191 1497 
Q 1191 994 1439 701 
Q 1688 409 2113 409 
Q 2538 409 2786 701 
Q 3034 994 3034 1497 
Q 3034 2003 2786 2293 
Q 2538 2584 2113 2584 
z
M 3366 4563 
L 3366 3988 
Q 3128 4100 2886 4159 
Q 2644 4219 2406 4219 
Q 1781 4219 1451 3797 
Q 1122 3375 1075 2522 
Q 1259 2794 1537 2939 
Q 1816 3084 2150 3084 
Q 2853 3084 3261 2657 
Q 3669 2231 3669 1497 
Q 3669 778 3244 343 
Q 2819 -91 2113 -91 
Q 1303 -91 875 529 
Q 447 1150 447 2328 
Q 447 3434 972 4092 
Q 1497 4750 2381 4750 
Q 2619 4750 2861 4703 
Q 3103 4656 3366 4563 
z
" id="DejaVuSans-36" transform="scale(0.015625)"/>
       </defs>
       <use xlink:href="#DejaVuSans-36"/>
      </g>
     </g>
    </g>
    <g id="ytick_5">
     <g id="line2d_23">
      <path clip-path="url(#p64f0a1c3bd)" d="M 57.6 85.788197 
L 414.72 85.788197 
" style="fill:none;stroke:#b0b0b0;stroke-linecap:square;stroke-width:0.8;"/>
     </g>
     <g id="line2d_24">
      <g>
       <use style="stroke:#000000;stroke-width:0.8;" x="57.6" xlink:href="#mc70e96d6d0" y="85.788197"/>
      </g>
     </g>
     <g id="text_13">
      <!-- 8 -->
      <g transform="translate(40.42 91.866947)scale(0.16 -0.16)">
       <defs>
        <path d="M 2034 2216 
Q 1584 2216 1326 1975 
Q 1069 1734 1069 1313 
Q 1069 891 1326 650 
Q 1584 409 2034 409 
Q 2484 409 2743 651 
Q 3003 894 3003 1313 
Q 3003 1734 2745 1975 
Q 2488 2216 2034 2216 
z
M 1403 2484 
Q 997 2584 770 2862 
Q 544 3141 544 3541 
Q 544 4100 942 4425 
Q 1341 4750 2034 4750 
Q 2731 4750 3128 4425 
Q 3525 4100 3525 3541 
Q 3525 3141 3298 2862 
Q 3072 2584 2669 2484 
Q 3125 2378 3379 2068 
Q 3634 1759 3634 1313 
Q 3634 634 3220 271 
Q 2806 -91 2034 -91 
Q 1263 -91 848 271 
Q 434 634 434 1313 
Q 434 1759 690 2068 
Q 947 2378 1403 2484 
z
M 1172 3481 
Q 1172 3119 1398 2916 
Q 1625 2713 2034 2713 
Q 2441 2713 2670 2916 
Q 2900 3119 2900 3481 
Q 2900 3844 2670 4047 
Q 2441 4250 2034 4250 
Q 1625 4250 1398 4047 
Q 1172 3844 1172 3481 
z
" id="DejaVuSans-38" transform="scale(0.015625)"/>
       </defs>
       <use xlink:href="#DejaVuSans-38"/>
      </g>
     </g>
    </g>
    <g id="text_14">
     <!-- Cumulative Reward -->
     <g transform="translate(33.0925 252.52425)rotate(-90)scale(0.16 -0.16)">
      <defs>
       <path d="M 4122 4306 
L 4122 3641 
Q 3803 3938 3442 4084 
Q 3081 4231 2675 4231 
Q 1875 4231 1450 3742 
Q 1025 3253 1025 2328 
Q 1025 1406 1450 917 
Q 1875 428 2675 428 
Q 3081 428 3442 575 
Q 3803 722 4122 1019 
L 4122 359 
Q 3791 134 3420 21 
Q 3050 -91 2638 -91 
Q 1578 -91 968 557 
Q 359 1206 359 2328 
Q 359 3453 968 4101 
Q 1578 4750 2638 4750 
Q 3056 4750 3426 4639 
Q 3797 4528 4122 4306 
z
" id="DejaVuSans-43" transform="scale(0.015625)"/>
       <path d="M 544 1381 
L 544 3500 
L 1119 3500 
L 1119 1403 
Q 1119 906 1312 657 
Q 1506 409 1894 409 
Q 2359 409 2629 706 
Q 2900 1003 2900 1516 
L 2900 3500 
L 3475 3500 
L 3475 0 
L 2900 0 
L 2900 538 
Q 2691 219 2414 64 
Q 2138 -91 1772 -91 
Q 1169 -91 856 284 
Q 544 659 544 1381 
z
M 1991 3584 
L 1991 3584 
z
" id="DejaVuSans-75" transform="scale(0.015625)"/>
       <path d="M 3328 2828 
Q 3544 3216 3844 3400 
Q 4144 3584 4550 3584 
Q 5097 3584 5394 3201 
Q 5691 2819 5691 2113 
L 5691 0 
L 5113 0 
L 5113 2094 
Q 5113 2597 4934 2840 
Q 4756 3084 4391 3084 
Q 3944 3084 3684 2787 
Q 3425 2491 3425 1978 
L 3425 0 
L 2847 0 
L 2847 2094 
Q 2847 2600 2669 2842 
Q 2491 3084 2119 3084 
Q 1678 3084 1418 2786 
Q 1159 2488 1159 1978 
L 1159 0 
L 581 0 
L 581 3500 
L 1159 3500 
L 1159 2956 
Q 1356 3278 1631 3431 
Q 1906 3584 2284 3584 
Q 2666 3584 2933 3390 
Q 3200 3197 3328 2828 
z
" id="DejaVuSans-6d" transform="scale(0.015625)"/>
       <path d="M 603 4863 
L 1178 4863 
L 1178 0 
L 603 0 
L 603 4863 
z
" id="DejaVuSans-6c" transform="scale(0.015625)"/>
       <path d="M 2194 1759 
Q 1497 1759 1228 1600 
Q 959 1441 959 1056 
Q 959 750 1161 570 
Q 1363 391 1709 391 
Q 2188 391 2477 730 
Q 2766 1069 2766 1631 
L 2766 1759 
L 2194 1759 
z
M 3341 1997 
L 3341 0 
L 2766 0 
L 2766 531 
Q 2569 213 2275 61 
Q 1981 -91 1556 -91 
Q 1019 -91 701 211 
Q 384 513 384 1019 
Q 384 1609 779 1909 
Q 1175 2209 1959 2209 
L 2766 2209 
L 2766 2266 
Q 2766 2663 2505 2880 
Q 2244 3097 1772 3097 
Q 1472 3097 1187 3025 
Q 903 2953 641 2809 
L 641 3341 
Q 956 3463 1253 3523 
Q 1550 3584 1831 3584 
Q 2591 3584 2966 3190 
Q 3341 2797 3341 1997 
z
" id="DejaVuSans-61" transform="scale(0.015625)"/>
       <path d="M 1172 4494 
L 1172 3500 
L 2356 3500 
L 2356 3053 
L 1172 3053 
L 1172 1153 
Q 1172 725 1289 603 
Q 1406 481 1766 481 
L 2356 481 
L 2356 0 
L 1766 0 
Q 1100 0 847 248 
Q 594 497 594 1153 
L 594 3053 
L 172 3053 
L 172 3500 
L 594 3500 
L 594 4494 
L 1172 4494 
z
" id="DejaVuSans-74" transform="scale(0.015625)"/>
       <path d="M 191 3500 
L 800 3500 
L 1894 563 
L 2988 3500 
L 3597 3500 
L 2284 0 
L 1503 0 
L 191 3500 
z
" id="DejaVuSans-76" transform="scale(0.015625)"/>
       <path id="DejaVuSans-20" transform="scale(0.015625)"/>
       <path d="M 2841 2188 
Q 3044 2119 3236 1894 
Q 3428 1669 3622 1275 
L 4263 0 
L 3584 0 
L 2988 1197 
Q 2756 1666 2539 1819 
Q 2322 1972 1947 1972 
L 1259 1972 
L 1259 0 
L 628 0 
L 628 4666 
L 2053 4666 
Q 2853 4666 3247 4331 
Q 3641 3997 3641 3322 
Q 3641 2881 3436 2590 
Q 3231 2300 2841 2188 
z
M 1259 4147 
L 1259 2491 
L 2053 2491 
Q 2509 2491 2742 2702 
Q 2975 2913 2975 3322 
Q 2975 3731 2742 3939 
Q 2509 4147 2053 4147 
L 1259 4147 
z
" id="DejaVuSans-52" transform="scale(0.015625)"/>
       <path d="M 269 3500 
L 844 3500 
L 1563 769 
L 2278 3500 
L 2956 3500 
L 3675 769 
L 4391 3500 
L 4966 3500 
L 4050 0 
L 3372 0 
L 2619 2869 
L 1863 0 
L 1184 0 
L 269 3500 
z
" id="DejaVuSans-77" transform="scale(0.015625)"/>
       <path d="M 2631 2963 
Q 2534 3019 2420 3045 
Q 2306 3072 2169 3072 
Q 1681 3072 1420 2755 
Q 1159 2438 1159 1844 
L 1159 0 
L 581 0 
L 581 3500 
L 1159 3500 
L 1159 2956 
Q 1341 3275 1631 3429 
Q 1922 3584 2338 3584 
Q 2397 3584 2469 3576 
Q 2541 3569 2628 3553 
L 2631 2963 
z
" id="DejaVuSans-72" transform="scale(0.015625)"/>
      </defs>
      <use xlink:href="#DejaVuSans-43"/>
      <use x="69.824219" xlink:href="#DejaVuSans-75"/>
      <use x="133.203125" xlink:href="#DejaVuSans-6d"/>
      <use x="230.615234" xlink:href="#DejaVuSans-75"/>
      <use x="293.994141" xlink:href="#DejaVuSans-6c"/>
      <use x="321.777344" xlink:href="#DejaVuSans-61"/>
      <use x="383.056641" xlink:href="#DejaVuSans-74"/>
      <use x="422.265625" xlink:href="#DejaVuSans-69"/>
      <use x="450.048828" xlink:href="#DejaVuSans-76"/>
      <use x="509.228516" xlink:href="#DejaVuSans-65"/>
      <use x="570.751953" xlink:href="#DejaVuSans-20"/>
      <use x="602.539062" xlink:href="#DejaVuSans-52"/>
      <use x="667.521484" xlink:href="#DejaVuSans-65"/>
      <use x="729.044922" xlink:href="#DejaVuSans-77"/>
      <use x="810.832031" xlink:href="#DejaVuSans-61"/>
      <use x="872.111328" xlink:href="#DejaVuSans-72"/>
      <use x="911.474609" xlink:href="#DejaVuSans-64"/>
     </g>
    </g>
   </g>
   <g id="line2d_25">
    <path clip-path="url(#p64f0a1c3bd)" d="M 57.6 202.534145 
L 57.83808 246.17265 
L 57.95712 187.182417 
L 58.07616 202.534145 
L 58.31424 246.17265 
L 58.43328 187.182417 
L 58.55232 202.534145 
L 58.7904 246.17265 
L 58.90944 187.182417 
L 59.02848 202.534145 
L 59.26656 246.17265 
L 59.3856 187.182417 
L 59.50464 202.534145 
L 59.74272 246.17265 
L 59.86176 187.182417 
L 59.9808 202.534145 
L 60.21888 246.17265 
L 60.33792 187.182417 
L 60.45696 202.534145 
L 60.69504 246.17265 
L 60.81408 187.182417 
L 60.93312 202.534145 
L 61.1712 246.17265 
L 61.29024 187.182417 
L 61.40928 202.534145 
L 61.64736 246.17265 
L 61.7664 187.182417 
L 61.88544 202.534145 
L 62.12352 246.17265 
L 62.24256 187.182417 
L 62.3616 202.534145 
L 62.59968 246.17265 
L 62.71872 187.182417 
L 62.83776 202.534145 
L 63.07584 246.17265 
L 63.19488 187.182417 
L 63.31392 202.534145 
L 63.552 246.17265 
L 63.67104 187.182417 
L 63.79008 202.534145 
L 64.02816 246.17265 
L 64.1472 187.182417 
L 64.26624 202.534145 
L 64.50432 246.17265 
L 64.62336 187.182417 
L 64.7424 202.534145 
L 64.98048 246.17265 
L 65.09952 187.182417 
L 65.21856 202.534145 
L 65.45664 246.17265 
L 65.57568 187.182417 
L 65.69472 202.534145 
L 65.9328 246.17265 
L 66.05184 187.182417 
L 66.17088 202.534145 
L 66.40896 246.17265 
L 66.528 187.182417 
L 66.64704 202.534145 
L 66.88512 246.17265 
L 67.00416 187.182417 
L 67.1232 202.534145 
L 67.36128 246.17265 
L 67.48032 187.182417 
L 67.59936 202.534145 
L 67.83744 246.17265 
L 67.95648 187.182417 
L 68.07552 202.534145 
L 68.3136 246.17265 
L 68.43264 187.182417 
L 68.55168 202.534145 
L 68.78976 246.17265 
L 68.9088 187.182417 
L 69.02784 202.534145 
L 69.26592 246.17265 
L 69.38496 187.182417 
L 69.504 252.148462 
L 69.62304 248.244146 
L 69.74208 223.703561 
L 69.86112 262.901097 
L 69.98016 219.795629 
L 70.0992 244.649359 
L 70.33728 213.577047 
L 70.57536 252.225016 
L 70.6944 215.20792 
L 70.81344 285.408 
L 70.93248 216.807652 
L 71.05152 216.818439 
L 71.17056 239.331839 
L 71.2896 152.479524 
L 71.40864 240.75119 
L 71.52768 243.929453 
L 71.64672 235.10815 
L 71.76576 267.381201 
L 72.12288 163.595792 
L 72.24192 237.533076 
L 72.36096 212.156734 
L 72.48 252.215145 
L 72.71808 221.910222 
L 72.83712 221.47057 
L 72.95616 240.8095 
L 73.0752 229.88218 
L 73.31328 174.782744 
L 73.43232 231.767952 
L 73.55136 190.084222 
L 73.78944 255.000517 
L 73.90848 235.365951 
L 74.02752 250.254307 
L 74.14656 248.523361 
L 74.2656 237.248778 
L 74.38464 238.866276 
L 74.50368 225.225271 
L 74.74176 164.838176 
L 74.8608 263.724911 
L 74.97984 201.819261 
L 75.09888 228.202307 
L 75.21792 218.620497 
L 75.33696 257.395715 
L 75.456 192.75244 
L 75.57504 241.494432 
L 75.69408 237.839948 
L 75.93216 201.404236 
L 76.17024 243.712516 
L 76.28928 239.877815 
L 76.40832 256.725947 
L 76.52736 235.111654 
L 76.6464 235.766007 
L 76.88448 214.187087 
L 77.00352 253.148026 
L 77.12256 254.60248 
L 77.2416 191.326333 
L 77.47968 243.623084 
L 77.59872 202.724428 
L 77.71776 251.444285 
L 77.8368 146.024451 
L 77.95584 270.220218 
L 78.19392 96.084961 
L 78.31296 227.760945 
L 78.432 194.02681 
L 78.55104 209.092759 
L 78.67008 252.564909 
L 78.78912 203.460481 
L 78.90816 235.75963 
L 79.0272 227.97341 
L 79.14624 252.318041 
L 79.38432 212.709685 
L 79.50336 250.736701 
L 79.74144 236.900611 
L 79.86048 207.292795 
L 79.97952 244.859081 
L 80.09856 241.781029 
L 80.2176 182.379779 
L 80.45568 211.491451 
L 80.69376 216.467369 
L 80.8128 255.555756 
L 80.93184 224.104162 
L 81.16992 239.112479 
L 81.28896 172.604405 
L 81.408 261.398732 
L 81.52704 201.204957 
L 81.64608 231.57651 
L 81.76512 228.244691 
L 81.88416 261.825326 
L 82.0032 168.041246 
L 82.24128 265.028755 
L 82.36032 213.424243 
L 82.47936 224.404832 
L 82.5984 247.311369 
L 82.71744 172.30337 
L 82.83648 171.504971 
L 82.95552 225.691465 
L 83.07456 221.568339 
L 83.1936 253.444338 
L 83.43168 216.2732 
L 83.55072 252.830955 
L 83.66976 244.168932 
L 83.7888 227.354163 
L 83.90784 233.318509 
L 84.02688 256.12942 
L 84.14592 209.230964 
L 84.26496 266.454609 
L 84.384 165.171062 
L 84.50304 177.235974 
L 84.62208 208.064426 
L 84.74112 189.944546 
L 84.86016 259.734635 
L 84.9792 159.31498 
L 85.21728 243.676821 
L 85.33632 241.040049 
L 85.45536 233.528515 
L 85.69344 163.842992 
L 85.81248 242.768955 
L 85.93152 229.24279 
L 86.05056 272.746162 
L 86.1696 240.755401 
L 86.40768 246.282921 
L 86.52672 254.921862 
L 86.64576 197.94966 
L 86.7648 254.379841 
L 87.12192 188.035337 
L 87.24096 258.956885 
L 87.36 243.994813 
L 87.47904 244.806017 
L 87.59808 190.238168 
L 87.71712 263.630526 
L 87.83616 169.75768 
L 88.07424 240.02233 
L 88.19328 268.073654 
L 88.31232 152.277393 
L 88.5504 247.835482 
L 88.66944 216.937465 
L 88.78848 218.556234 
L 88.90752 240.321376 
L 89.02656 208.260091 
L 89.1456 214.182537 
L 89.26464 206.319005 
L 89.38368 243.691828 
L 89.50272 198.135824 
L 89.62176 197.791107 
L 89.7408 250.278196 
L 89.85984 232.812381 
L 89.97888 235.101446 
L 90.09792 275.426368 
L 90.21696 237.871284 
L 90.336 238.828199 
L 90.45504 219.948965 
L 90.57408 232.205706 
L 90.81216 205.367989 
L 91.16928 263.534228 
L 91.28832 249.178452 
L 91.40736 213.873999 
L 91.5264 219.910121 
L 91.64544 249.45444 
L 91.76448 249.168519 
L 91.88352 258.294536 
L 92.1216 219.919052 
L 92.24064 248.450298 
L 92.35968 246.018989 
L 92.47872 228.334439 
L 92.7168 261.615728 
L 92.83584 228.530693 
L 92.95488 256.202727 
L 93.07392 196.015569 
L 93.19296 224.603114 
L 93.312 197.290012 
L 93.55008 258.008318 
L 93.78816 169.55868 
L 93.9072 239.698508 
L 94.02624 235.682949 
L 94.14528 184.301794 
L 94.26432 213.503766 
L 94.38336 161.154683 
L 94.62144 241.304531 
L 94.74048 151.695493 
L 94.85952 243.764225 
L 94.97856 181.728238 
L 95.0976 242.02472 
L 95.21664 224.385061 
L 95.33568 242.610493 
L 95.45472 208.161477 
L 95.57376 208.472189 
L 95.6928 204.437731 
L 95.81184 252.576139 
L 95.93088 248.394194 
L 96.16896 256.369912 
L 96.288 180.86268 
L 96.40704 241.380433 
L 96.52608 234.586867 
L 96.64512 157.822566 
L 96.76416 231.390743 
L 97.00224 223.549886 
L 97.12128 207.595292 
L 97.24032 282.698683 
L 97.35936 190.780722 
L 97.4784 233.648242 
L 97.59744 232.087131 
L 97.71648 241.555509 
L 97.83552 165.546416 
L 98.0736 264.083543 
L 98.31168 193.169308 
L 98.43072 185.132939 
L 98.54976 243.538918 
L 98.6688 220.554622 
L 98.78784 246.957066 
L 98.90688 192.32871 
L 99.02592 266.294634 
L 99.14496 268.059295 
L 99.264 204.429827 
L 99.38304 219.782331 
L 99.62112 171.920705 
L 99.74016 247.01616 
L 99.8592 198.219045 
L 99.97824 206.387746 
L 100.09728 271.116934 
L 100.21632 242.945598 
L 100.33536 285.408 
L 100.57344 223.118686 
L 100.69248 208.041526 
L 100.81152 210.732667 
L 100.93056 256.852891 
L 101.0496 192.289373 
L 101.16864 230.154894 
L 101.28768 210.475582 
L 101.52576 217.600322 
L 101.6448 220.531657 
L 101.76384 105.618408 
L 101.88288 266.901068 
L 102.00192 214.592589 
L 102.12096 264.505382 
L 102.35904 207.438363 
L 102.47808 269.36425 
L 102.8352 187.002292 
L 102.95424 241.45625 
L 103.19232 197.177959 
L 103.4304 259.304177 
L 103.78752 194.50165 
L 103.90656 252.026499 
L 104.0256 181.145626 
L 104.14464 256.927072 
L 104.38272 169.717715 
L 104.50176 246.017655 
L 104.6208 232.230079 
L 104.85888 254.123104 
L 104.97792 236.222782 
L 105.09696 158.400701 
L 105.216 267.457492 
L 105.33504 187.770985 
L 105.45408 242.601552 
L 105.8112 190.613321 
L 105.93024 249.666464 
L 106.04928 211.765845 
L 106.16832 232.763821 
L 106.28736 174.872754 
L 106.4064 219.575836 
L 106.52544 200.477738 
L 106.64448 216.643181 
L 106.76352 209.322799 
L 106.88256 157.365532 
L 107.0016 178.215561 
L 107.12064 219.679608 
L 107.23968 170.158607 
L 107.47776 258.714195 
L 107.5968 222.751676 
L 107.71584 225.897211 
L 107.83488 241.925478 
L 107.95392 215.223488 
L 108.07296 259.186731 
L 108.31104 221.284128 
L 108.54912 255.882665 
L 108.66816 236.440771 
L 108.7872 182.130747 
L 109.02528 254.009643 
L 109.26336 194.934253 
L 109.3824 204.571361 
L 109.50144 237.239381 
L 109.62048 226.99943 
L 109.73952 256.045124 
L 109.9776 218.824695 
L 110.09664 157.606824 
L 110.21568 235.536937 
L 110.5728 151.276028 
L 110.69184 179.232878 
L 110.81088 251.841916 
L 111.04896 183.206211 
L 111.168 244.12637 
L 111.28704 218.326973 
L 111.40608 258.854687 
L 111.52512 230.16393 
L 111.64416 249.797237 
L 111.7632 244.310412 
L 111.88224 207.49913 
L 112.12032 243.081328 
L 112.23936 214.415517 
L 112.3584 143.218402 
L 112.47744 225.03881 
L 112.59648 186.028042 
L 112.71552 242.501697 
L 112.83456 200.687401 
L 112.9536 209.100698 
L 113.07264 236.521456 
L 113.19168 221.482006 
L 113.31072 281.397761 
L 113.5488 197.32267 
L 113.66784 227.658628 
L 113.78688 228.949531 
L 113.90592 268.376889 
L 114.02496 196.753207 
L 114.144 243.314544 
L 114.26304 225.970149 
L 114.38208 242.571842 
L 114.50112 236.412083 
L 114.62016 173.903492 
L 114.85824 249.931549 
L 114.97728 238.773197 
L 115.09632 240.408898 
L 115.21536 259.148962 
L 115.45344 241.501907 
L 115.57248 143.530017 
L 115.69152 264.855815 
L 115.9296 193.887671 
L 116.04864 256.432101 
L 116.16768 186.503184 
L 116.28672 256.755972 
L 116.40576 240.573872 
L 116.5248 241.258906 
L 116.76288 221.374574 
L 116.88192 245.815172 
L 117.00096 240.042928 
L 117.12 195.939778 
L 117.23904 219.384597 
L 117.59616 171.5769 
L 117.7152 263.812986 
L 117.83424 225.311633 
L 117.95328 131.408815 
L 118.07232 228.760801 
L 118.19136 162.233271 
L 118.42944 230.861512 
L 118.54848 195.177873 
L 118.66752 199.464578 
L 118.78656 221.10337 
L 118.9056 271.075199 
L 119.02464 231.524669 
L 119.14368 258.738427 
L 119.26272 228.859857 
L 119.38176 239.385616 
L 119.5008 190.779336 
L 119.61984 223.743389 
L 119.73888 219.75989 
L 119.85792 271.1847 
L 120.096 211.115163 
L 120.33408 263.997381 
L 120.57216 228.398575 
L 120.6912 257.985866 
L 120.81024 200.154743 
L 120.92928 268.713057 
L 121.16736 170.430666 
L 121.2864 226.216003 
L 121.40544 139.167522 
L 121.64352 243.75715 
L 121.76256 220.634938 
L 121.8816 158.824207 
L 122.00064 238.225125 
L 122.11968 179.471573 
L 122.23872 257.5014 
L 122.4768 197.413405 
L 122.71488 214.026917 
L 122.83392 244.094262 
L 122.95296 211.17215 
L 123.072 268.017718 
L 123.19104 265.385367 
L 123.31008 239.352426 
L 123.42912 258.459134 
L 123.54816 222.97355 
L 123.6672 110.722314 
L 123.90528 254.050028 
L 124.14336 215.908165 
L 124.2624 256.667913 
L 124.50048 225.875126 
L 124.61952 196.323624 
L 124.97664 284.290746 
L 125.4528 159.559512 
L 125.57184 223.230136 
L 125.69088 193.445931 
L 125.80992 254.988303 
L 125.92896 230.738632 
L 126.048 278.790594 
L 126.40512 210.954683 
L 126.52416 204.097653 
L 126.76224 258.457226 
L 126.88128 262.423681 
L 127.11936 234.833336 
L 127.2384 253.975411 
L 127.35744 199.306503 
L 127.59552 235.744753 
L 127.71456 216.161072 
L 127.8336 268.10312 
L 127.95264 223.17545 
L 128.07168 249.19413 
L 128.19072 249.974794 
L 128.30976 172.922708 
L 128.4288 234.170029 
L 128.54784 169.199619 
L 128.78592 242.38542 
L 128.90496 239.683642 
L 129.024 235.199174 
L 129.14304 187.218848 
L 129.26208 199.606442 
L 129.38112 195.620463 
L 129.50016 208.309964 
L 129.6192 249.865627 
L 129.73824 234.074453 
L 129.85728 249.842026 
L 129.97632 235.078756 
L 130.2144 282.474875 
L 130.33344 202.279038 
L 130.57152 228.723999 
L 130.69056 140.275631 
L 130.8096 228.606589 
L 131.04768 178.727063 
L 131.16672 190.388892 
L 131.28576 243.13422 
L 131.4048 228.096321 
L 131.52384 230.273049 
L 131.64288 242.664645 
L 131.76192 274.436924 
L 132.23808 197.245287 
L 132.35712 256.133416 
L 132.47616 181.142037 
L 132.5952 262.822646 
L 132.71424 199.272155 
L 132.83328 253.724706 
L 133.07136 143.110138 
L 133.30944 244.855539 
L 133.42848 227.999755 
L 133.54752 247.876576 
L 133.7856 185.775094 
L 133.90464 252.847431 
L 134.02368 239.505085 
L 134.14272 161.735175 
L 134.26176 227.687371 
L 134.3808 189.0444 
L 134.49984 225.44473 
L 134.61888 198.358001 
L 134.73792 245.520869 
L 134.976 200.893901 
L 135.09504 270.571169 
L 135.21408 116.43842 
L 135.45216 258.761095 
L 135.5712 218.324782 
L 135.80928 273.239846 
L 135.92832 212.026112 
L 136.04736 213.132189 
L 136.1664 190.883993 
L 136.28544 285.408 
L 136.52352 218.734197 
L 136.64256 220.005929 
L 136.7616 269.052483 
L 136.88064 217.468704 
L 137.11872 264.973025 
L 137.3568 210.183259 
L 137.47584 121.406373 
L 137.71392 255.915869 
L 137.83296 242.472883 
L 138.07104 166.903747 
L 138.30912 221.833303 
L 138.42816 216.781587 
L 138.66624 239.838319 
L 138.78528 234.049931 
L 138.90432 212.323534 
L 139.02336 254.893747 
L 139.1424 198.558456 
L 139.26144 221.744315 
L 139.38048 129.294325 
L 139.61856 255.928377 
L 139.85664 222.061669 
L 139.97568 236.562438 
L 140.09472 210.415757 
L 140.21376 145.510819 
L 140.3328 213.906066 
L 140.45184 192.700514 
L 140.57088 223.733017 
L 140.68992 197.677518 
L 140.80896 213.604618 
L 140.928 247.900504 
L 141.04704 162.590777 
L 141.16608 180.688817 
L 141.28512 245.625927 
L 141.40416 188.315189 
L 141.5232 246.08847 
L 141.64224 194.405147 
L 141.76128 231.451015 
L 141.88032 221.080018 
L 141.99936 227.087119 
L 142.1184 244.453641 
L 142.35648 203.596773 
L 142.47552 216.785186 
L 142.59456 273.753945 
L 142.7136 203.096086 
L 142.83264 270.961695 
L 142.95168 144.258881 
L 143.07072 225.195834 
L 143.18976 215.581638 
L 143.3088 190.569973 
L 143.54688 279.810018 
L 143.66592 251.406692 
L 143.78496 253.640817 
L 144.02304 222.859242 
L 144.14208 212.707835 
L 144.26112 230.483151 
L 144.38016 177.428398 
L 144.4992 237.494446 
L 144.61824 202.110283 
L 144.85632 273.004971 
L 145.0944 231.591072 
L 145.21344 116.136822 
L 145.45152 233.192718 
L 145.57056 158.747821 
L 145.80864 244.042377 
L 145.92768 164.200995 
L 146.16576 262.968612 
L 146.40384 119.076514 
L 146.52288 231.554804 
L 146.64192 206.103693 
L 146.76096 213.739109 
L 146.88 200.38184 
L 147.11808 254.003224 
L 147.23712 225.978713 
L 147.35616 263.286275 
L 147.4752 250.579932 
L 147.59424 191.604763 
L 147.71328 240.676104 
L 147.83232 181.989599 
L 147.95136 243.446928 
L 148.0704 228.127629 
L 148.42752 266.521545 
L 148.54656 254.166406 
L 148.6656 260.834434 
L 148.78464 193.055053 
L 148.90368 197.525385 
L 149.02272 234.884605 
L 149.14176 231.393031 
L 149.2608 221.602361 
L 149.37984 222.362822 
L 149.49888 210.972478 
L 149.61792 236.356107 
L 149.73696 141.301124 
L 150.09408 207.060022 
L 150.33216 221.477233 
L 150.4512 255.06332 
L 150.57024 141.352979 
L 150.68928 273.935782 
L 150.80832 216.077719 
L 151.0464 242.967439 
L 151.16544 248.905152 
L 151.28448 241.26917 
L 151.40352 158.104536 
L 151.52256 254.086157 
L 151.6416 218.707429 
L 151.87968 238.779653 
L 151.99872 229.327962 
L 152.2368 196.428094 
L 152.35584 216.910121 
L 152.47488 179.325564 
L 152.59392 239.91546 
L 152.71296 211.033163 
L 152.832 251.539044 
L 152.95104 243.082127 
L 153.18912 260.255289 
L 153.4272 177.161881 
L 153.54624 167.969944 
L 153.78432 251.535781 
L 153.90336 173.117776 
L 154.14144 221.84394 
L 154.37952 235.981978 
L 154.49856 219.533284 
L 154.6176 239.189652 
L 154.73664 224.762768 
L 154.85568 229.015357 
L 154.97472 208.070342 
L 155.09376 283.978996 
L 155.2128 233.670958 
L 155.33184 232.086846 
L 155.45088 192.79709 
L 155.56992 263.691614 
L 155.68896 172.167965 
L 155.92704 265.94154 
L 156.16512 188.059645 
L 156.28416 251.87593 
L 156.4032 208.019797 
L 156.52224 209.477821 
L 156.64128 229.0888 
L 156.76032 182.934941 
L 156.87936 186.409081 
L 156.9984 251.46858 
L 157.11744 251.160382 
L 157.35552 241.484466 
L 157.47456 264.344072 
L 157.5936 199.605588 
L 157.71264 236.714584 
L 157.83168 189.311545 
L 158.06976 262.409088 
L 158.30784 159.128842 
L 158.42688 222.487782 
L 158.54592 119.008159 
L 158.784 245.953103 
L 158.90304 259.161726 
L 159.02208 163.443318 
L 159.14112 246.352073 
L 159.26016 187.824907 
L 159.49824 248.095106 
L 159.61728 255.656855 
L 159.73632 219.806699 
L 159.85536 238.439337 
L 159.9744 237.243487 
L 160.09344 241.274666 
L 160.21248 235.32478 
L 160.33152 195.56791 
L 160.68864 250.90856 
L 160.80768 101.32624 
L 160.92672 211.453245 
L 161.04576 211.703676 
L 161.1648 270.331459 
L 161.28384 250.919872 
L 161.40288 179.486738 
L 161.52192 184.563051 
L 161.64096 244.628837 
L 161.87904 191.300843 
L 162.11712 254.788401 
L 162.23616 244.886627 
L 162.3552 189.049042 
L 162.47424 251.224649 
L 162.59328 249.634645 
L 162.83136 236.834158 
L 162.9504 261.088188 
L 163.18848 237.493193 
L 163.30752 244.819161 
L 163.42656 273.00471 
L 163.5456 246.655118 
L 163.66464 188.660883 
L 163.78368 215.777218 
L 163.90272 155.761051 
L 164.1408 263.881783 
L 164.25984 228.214403 
L 164.37888 248.019001 
L 164.61696 192.013371 
L 164.736 211.728854 
L 164.85504 281.616685 
L 164.97408 244.935838 
L 165.09312 245.005074 
L 165.21216 212.413338 
L 165.3312 218.428313 
L 165.45024 239.168419 
L 165.56928 227.313641 
L 165.68832 263.347396 
L 165.9264 210.442161 
L 166.04544 245.355653 
L 166.28352 227.364716 
L 166.40256 234.405003 
L 166.5216 212.991469 
L 166.64064 221.223992 
L 166.75968 171.287989 
L 166.87872 245.586299 
L 166.99776 159.475983 
L 167.1168 259.108791 
L 167.35488 197.256886 
L 167.47392 215.461005 
L 167.59296 115.439433 
L 167.712 242.313351 
L 167.83104 203.024921 
L 167.95008 255.173926 
L 168.06912 208.063767 
L 168.18816 261.856633 
L 168.3072 206.314385 
L 168.42624 261.420571 
L 168.66432 207.193166 
L 168.78336 216.706894 
L 168.9024 194.976271 
L 169.02144 242.96206 
L 169.25952 217.209077 
L 169.4976 235.946806 
L 169.73568 176.839881 
L 169.97376 234.034551 
L 170.0928 233.231131 
L 170.21184 241.608462 
L 170.33088 168.22552 
L 170.56896 268.400126 
L 170.80704 219.261469 
L 170.92608 197.026941 
L 171.04512 269.894427 
L 171.16416 257.074355 
L 171.2832 197.948758 
L 171.40224 215.712147 
L 171.52128 256.834381 
L 171.64032 230.224258 
L 171.75936 173.563385 
L 171.8784 262.975072 
L 171.99744 259.958351 
L 172.11648 234.67189 
L 172.23552 235.406084 
L 172.35456 269.92613 
L 172.4736 145.268711 
L 172.71168 266.47928 
L 172.83072 272.96447 
L 173.0688 198.315059 
L 173.18784 200.409273 
L 173.30688 244.712843 
L 173.42592 222.945379 
L 173.664 246.582687 
L 173.78304 212.003323 
L 174.02112 241.029859 
L 174.14016 240.040647 
L 174.2592 259.238207 
L 174.37824 233.889437 
L 174.49728 120.151838 
L 174.73536 243.99236 
L 174.97344 220.767075 
L 175.21152 254.699526 
L 175.33056 255.919496 
L 175.4496 245.729345 
L 175.56864 217.375654 
L 175.68768 243.765867 
L 175.92576 171.176672 
L 176.16384 262.172672 
L 176.28288 239.055103 
L 176.40192 245.606332 
L 176.75904 229.333282 
L 176.87808 242.84575 
L 176.99712 240.316207 
L 177.11616 273.814583 
L 177.2352 270.53252 
L 177.59232 163.770994 
L 177.71136 258.694832 
L 177.8304 213.028868 
L 177.94944 250.768374 
L 178.06848 227.606274 
L 178.18752 158.962611 
L 178.30656 155.697821 
L 178.54464 212.436683 
L 178.66368 161.596314 
L 178.78272 204.983658 
L 178.90176 181.103187 
L 179.13984 258.94447 
L 179.25888 192.896741 
L 179.37792 201.293835 
L 179.616 244.194865 
L 179.73504 255.366423 
L 179.85408 254.453229 
L 179.97312 240.109837 
L 180.2112 151.347185 
L 180.33024 245.693192 
L 180.44928 245.78077 
L 180.56832 236.149803 
L 180.68736 244.113189 
L 180.8064 149.923183 
L 180.92544 190.327871 
L 181.04448 146.349255 
L 181.16352 249.649504 
L 181.28256 250.216802 
L 181.52064 204.187902 
L 181.9968 265.427333 
L 182.11584 206.028353 
L 182.23488 239.100373 
L 182.35392 198.437992 
L 182.47296 195.985679 
L 182.592 250.666714 
L 182.94912 188.475023 
L 183.06816 218.710421 
L 183.1872 278.332535 
L 183.30624 257.612659 
L 183.42528 148.497387 
L 183.66336 249.932059 
L 183.90144 206.150979 
L 184.02048 233.201471 
L 184.13952 232.728963 
L 184.3776 186.825146 
L 184.49664 244.287818 
L 184.61568 234.108775 
L 184.85376 273.236404 
L 184.9728 234.482957 
L 185.09184 258.751429 
L 185.21088 252.382178 
L 185.32992 226.466301 
L 185.568 254.931001 
L 185.68704 262.614349 
L 185.80608 251.266934 
L 185.92512 226.673023 
L 186.04416 261.59907 
L 186.28224 220.021839 
L 186.40128 158.426323 
L 186.52032 238.37815 
L 186.63936 239.111496 
L 186.7584 191.140149 
L 186.99648 235.49468 
L 187.11552 224.174236 
L 187.23456 254.865087 
L 187.3536 161.222142 
L 187.47264 245.926105 
L 187.71072 198.895531 
L 187.82976 225.192575 
L 187.9488 210.480774 
L 188.06784 213.286004 
L 188.30592 253.195262 
L 188.42496 226.066559 
L 188.544 232.768211 
L 188.66304 189.175036 
L 188.78208 263.48292 
L 188.90112 220.221444 
L 189.02016 249.05309 
L 189.1392 249.636582 
L 189.25824 245.599575 
L 189.37728 247.926097 
L 189.49632 209.42755 
L 189.61536 214.776356 
L 189.7344 235.896083 
L 189.97248 210.88675 
L 190.09152 168.38199 
L 190.21056 254.87292 
L 190.3296 199.757681 
L 190.44864 258.411815 
L 190.56768 184.843684 
L 190.80576 225.817655 
L 190.9248 239.750967 
L 191.04384 197.985325 
L 191.16288 204.47865 
L 191.40096 257.866075 
L 191.52 168.48994 
L 191.75808 255.661591 
L 191.87712 213.348219 
L 191.99616 211.788813 
L 192.23424 273.103771 
L 192.35328 199.579132 
L 192.47232 260.449184 
L 192.7104 208.718019 
L 192.82944 208.942808 
L 192.94848 246.867415 
L 193.06752 206.231497 
L 193.18656 86.297107 
L 193.3056 236.703829 
L 193.42464 243.798135 
L 193.54368 205.974309 
L 193.78176 270.172486 
L 193.9008 154.079316 
L 194.01984 210.181547 
L 194.13888 194.501216 
L 194.25792 194.328839 
L 194.37696 169.057857 
L 194.496 250.321402 
L 194.61504 251.354501 
L 194.73408 168.750163 
L 194.85312 220.625323 
L 194.97216 223.772852 
L 195.0912 265.756798 
L 195.32928 212.640032 
L 195.56736 267.632356 
L 195.92448 135.987303 
L 196.16256 270.473832 
L 196.2816 216.724474 
L 196.40064 215.992367 
L 196.51968 181.124466 
L 196.63872 249.778543 
L 196.75776 229.057879 
L 196.8768 258.206036 
L 196.99584 185.342622 
L 197.11488 249.369067 
L 197.23392 188.32205 
L 197.472 249.997469 
L 197.59104 242.199009 
L 197.71008 261.829554 
L 197.82912 257.746737 
L 197.94816 258.31089 
L 198.0672 123.473234 
L 198.30528 248.027472 
L 198.42432 246.707807 
L 198.54336 277.767174 
L 198.6624 246.112523 
L 198.78144 271.615542 
L 198.90048 221.629395 
L 199.13856 269.350327 
L 199.37664 214.442241 
L 199.49568 264.52203 
L 199.61472 178.595588 
L 199.73376 175.039161 
L 200.09088 268.720662 
L 200.20992 233.090883 
L 200.32896 249.650618 
L 200.56704 240.770139 
L 200.80512 162.250017 
L 200.92416 249.367538 
L 201.16224 159.5126 
L 201.28128 191.579976 
L 201.40032 261.859711 
L 201.51936 251.458464 
L 201.6384 262.070582 
L 201.75744 231.9692 
L 201.87648 250.380054 
L 202.2336 146.655507 
L 202.35264 238.194418 
L 202.47168 183.754616 
L 202.70976 243.70297 
L 202.94784 261.022661 
L 203.06688 236.227472 
L 203.18592 241.098121 
L 203.30496 182.512503 
L 203.424 236.022304 
L 203.54304 193.391052 
L 203.66208 208.154567 
L 203.78112 157.272383 
L 203.90016 256.840502 
L 204.0192 172.226579 
L 204.25728 243.014411 
L 204.6144 263.365001 
L 204.73344 196.022249 
L 204.97152 266.039131 
L 205.09056 222.229904 
L 205.32864 268.511144 
L 205.44768 165.039521 
L 205.68576 233.651631 
L 205.8048 245.730923 
L 205.92384 179.64405 
L 206.04288 264.554768 
L 206.16192 173.374832 
L 206.28096 244.760608 
L 206.4 169.094044 
L 206.51904 229.583089 
L 206.75712 152.890712 
L 206.9952 261.79782 
L 207.11424 221.381846 
L 207.23328 262.095826 
L 207.35232 180.540207 
L 207.5904 261.079677 
L 207.70944 247.986271 
L 207.82848 256.395163 
L 207.94752 176.030656 
L 208.06656 179.980163 
L 208.42368 269.340257 
L 208.54272 165.990448 
L 208.7808 266.345695 
L 209.01888 205.611361 
L 209.13792 258.915575 
L 209.25696 211.106851 
L 209.49504 276.322086 
L 209.61408 162.114779 
L 209.85216 248.125004 
L 209.9712 241.470346 
L 210.09024 215.388294 
L 210.20928 255.053724 
L 210.32832 134.913683 
L 210.5664 269.219179 
L 210.68544 222.649809 
L 210.80448 250.445207 
L 210.92352 232.987286 
L 211.04256 156.926817 
L 211.1616 174.899699 
L 211.28064 240.99086 
L 211.39968 205.558369 
L 211.63776 239.469881 
L 211.87584 184.092918 
L 211.99488 244.184793 
L 212.11392 237.802304 
L 212.352 266.75928 
L 212.47104 164.11258 
L 212.59008 227.757853 
L 212.70912 230.660158 
L 212.82816 215.258684 
L 213.06624 258.088326 
L 213.18528 223.377146 
L 213.30432 236.169096 
L 213.42336 225.161557 
L 213.66144 264.336583 
L 213.78048 272.5435 
L 213.89952 228.500073 
L 214.01856 241.538925 
L 214.1376 241.706352 
L 214.25664 142.686599 
L 214.61376 267.127966 
L 214.7328 225.903158 
L 214.85184 237.257484 
L 214.97088 232.504033 
L 215.20896 259.632945 
L 215.328 197.031502 
L 215.44704 225.217653 
L 215.56608 210.125378 
L 215.68512 265.414279 
L 215.80416 249.21824 
L 215.9232 133.537045 
L 216.04224 209.631115 
L 216.16128 147.654567 
L 216.28032 213.183498 
L 216.39936 153.392857 
L 216.75648 253.706528 
L 216.99456 187.92355 
L 217.1136 223.801714 
L 217.23264 128.638771 
L 217.47072 232.431005 
L 217.7088 226.742145 
L 217.94688 238.247876 
L 218.06592 265.235839 
L 218.18496 201.453163 
L 218.304 251.424904 
L 218.42304 236.134778 
L 218.54208 204.212768 
L 218.78016 245.336449 
L 218.8992 237.634695 
L 219.01824 263.532911 
L 219.13728 255.942753 
L 219.25632 212.913493 
L 219.37536 218.024139 
L 219.4944 171.447199 
L 219.61344 252.183324 
L 219.85152 182.451535 
L 219.97056 234.631839 
L 220.0896 220.558486 
L 220.20864 221.301349 
L 220.44672 259.030583 
L 220.56576 261.992037 
L 220.6848 217.34656 
L 220.80384 279.535529 
L 221.04192 172.807529 
L 221.16096 256.085574 
L 221.28 236.55899 
L 221.39904 267.250487 
L 221.51808 179.37545 
L 221.63712 242.68307 
L 221.8752 203.225249 
L 221.99424 234.190224 
L 222.11328 183.582977 
L 222.35136 242.93143 
L 222.4704 221.015102 
L 222.58944 176.519581 
L 222.70848 233.868456 
L 222.82752 191.723643 
L 223.0656 258.841814 
L 223.18464 239.350038 
L 223.30368 240.991941 
L 223.42272 232.329291 
L 223.54176 123.528059 
L 223.77984 239.247982 
L 223.89888 256.646342 
L 224.13696 228.400265 
L 224.37504 184.671338 
L 224.61312 245.955743 
L 224.73216 171.392833 
L 224.8512 216.505208 
L 224.97024 190.495761 
L 225.08928 272.247162 
L 225.4464 205.897481 
L 225.56544 207.115315 
L 225.68448 281.712816 
L 225.80352 255.797069 
L 225.92256 109.448182 
L 226.0416 223.890366 
L 226.39872 191.407837 
L 226.51776 267.396567 
L 226.87488 188.08424 
L 226.99392 203.943347 
L 227.232 235.903471 
L 227.35104 270.364258 
L 227.47008 221.028931 
L 227.58912 254.654494 
L 227.70816 203.585844 
L 228.06528 282.814021 
L 228.30336 218.05225 
L 228.4224 236.086157 
L 228.54144 220.205787 
L 228.66048 244.455919 
L 228.77952 205.334754 
L 228.89856 206.516459 
L 229.13664 239.790159 
L 229.25568 201.31686 
L 229.37472 205.843937 
L 229.49376 196.32596 
L 229.6128 130.539457 
L 229.85088 253.880237 
L 229.96992 189.358552 
L 230.08896 247.369926 
L 230.32704 205.154531 
L 230.44608 247.804164 
L 230.56512 237.424565 
L 230.68416 178.960372 
L 230.92224 271.809661 
L 231.04128 216.491067 
L 231.16032 242.445682 
L 231.27936 202.57217 
L 231.3984 237.567708 
L 231.51744 156.075659 
L 231.75552 236.23364 
L 231.87456 244.062022 
L 231.9936 210.788621 
L 232.11264 265.281914 
L 232.35072 219.479316 
L 232.46976 248.966262 
L 232.5888 215.105721 
L 232.70784 257.492547 
L 232.82688 145.410138 
L 232.94592 243.284463 
L 233.06496 228.306615 
L 233.184 238.296738 
L 233.30304 234.919539 
L 233.42208 189.611298 
L 233.54112 189.49742 
L 233.66016 262.055784 
L 233.7792 258.068951 
L 233.89824 219.092734 
L 234.13632 244.673961 
L 234.25536 215.536165 
L 234.3744 233.089052 
L 234.49344 232.529281 
L 234.61248 247.07986 
L 234.73152 229.50717 
L 234.85056 258.899185 
L 234.9696 198.249037 
L 235.08864 251.711605 
L 235.32672 236.59645 
L 235.44576 237.780781 
L 235.68384 155.026963 
L 235.80288 210.248729 
L 235.92192 210.129919 
L 236.04096 258.099889 
L 236.16 183.008114 
L 236.27904 197.92305 
L 236.39808 230.714837 
L 236.51712 106.68075 
L 236.7552 249.270485 
L 236.87424 155.312242 
L 236.99328 278.761093 
L 237.23136 244.089925 
L 237.3504 221.235558 
L 237.46944 237.593354 
L 237.58848 280.210134 
L 237.82656 197.765466 
L 238.18368 244.462595 
L 238.30272 236.026789 
L 238.42176 216.226286 
L 238.5408 242.15433 
L 238.65984 237.787572 
L 238.77888 194.960495 
L 238.89792 192.60361 
L 239.136 266.916785 
L 239.25504 258.32018 
L 239.37408 162.845727 
L 239.7312 253.211292 
L 239.85024 202.242514 
L 239.96928 235.894011 
L 240.20736 219.017791 
L 240.3264 228.47251 
L 240.44544 256.299699 
L 240.56448 195.493734 
L 240.68352 262.433739 
L 240.9216 210.331778 
L 241.04064 259.117163 
L 241.27872 174.055821 
L 241.39776 176.773774 
L 241.63584 238.588729 
L 241.75488 212.932425 
L 241.87392 233.68222 
L 242.112 180.104905 
L 242.35008 237.858946 
L 242.46912 140.053655 
L 242.58816 250.040309 
L 242.82624 217.45638 
L 242.94528 263.947391 
L 243.3024 149.66244 
L 243.42144 243.933348 
L 243.65952 187.590613 
L 243.77856 244.368428 
L 243.8976 209.441694 
L 244.01664 222.257402 
L 244.13568 204.765415 
L 244.37376 246.755749 
L 244.4928 265.832811 
L 244.73088 167.602606 
L 244.96896 268.871818 
L 245.088 246.719977 
L 245.20704 268.798439 
L 245.32608 202.332762 
L 245.56416 277.666357 
L 245.6832 248.835236 
L 245.80224 258.216264 
L 245.92128 197.162914 
L 246.04032 213.686721 
L 246.15936 247.56103 
L 246.2784 183.987308 
L 246.39744 247.23659 
L 246.51648 213.894508 
L 246.63552 220.782668 
L 246.75456 240.143156 
L 246.8736 217.623015 
L 246.99264 218.12915 
L 247.11168 180.514627 
L 247.23072 225.615369 
L 247.34976 223.331141 
L 247.4688 242.749337 
L 247.58784 241.064639 
L 247.70688 201.497195 
L 247.82592 269.636748 
L 247.94496 231.576574 
L 248.064 269.640632 
L 248.30208 174.230817 
L 248.54016 253.036639 
L 248.6592 229.23589 
L 248.77824 252.417467 
L 248.89728 179.6117 
L 249.13536 243.814799 
L 249.2544 211.323092 
L 249.37344 240.545308 
L 249.49248 207.354854 
L 249.61152 207.565705 
L 249.8496 251.251889 
L 249.96864 172.655553 
L 250.08768 247.176486 
L 250.32576 176.576299 
L 250.4448 209.199954 
L 250.56384 194.239246 
L 250.68288 195.473103 
L 250.80192 170.223126 
L 251.04 242.721882 
L 251.15904 163.623446 
L 251.27808 248.904114 
L 251.39712 182.093801 
L 251.51616 225.532873 
L 251.75424 150.66352 
L 251.87328 226.963635 
L 251.99232 224.729797 
L 252.2304 240.977066 
L 252.34944 210.983858 
L 252.46848 260.098167 
L 252.58752 251.033049 
L 252.70656 214.795077 
L 252.8256 261.416917 
L 252.94464 229.472177 
L 253.06368 244.874957 
L 253.30176 188.048504 
L 253.4208 246.502766 
L 253.53984 223.931106 
L 253.77792 259.569987 
L 254.016 228.59111 
L 254.13504 238.929671 
L 254.25408 229.525208 
L 254.37312 238.941419 
L 254.49216 171.870112 
L 254.6112 250.568468 
L 254.96832 183.841471 
L 255.08736 187.379188 
L 255.2064 244.06124 
L 255.44448 211.766287 
L 255.56352 263.720325 
L 255.68256 226.004995 
L 255.8016 230.789171 
L 255.92064 245.88465 
L 256.03968 167.28011 
L 256.27776 241.738542 
L 256.3968 210.749088 
L 256.63488 256.676351 
L 256.75392 254.978535 
L 256.87296 248.529223 
L 256.992 214.589607 
L 257.23008 277.474309 
L 257.5872 182.437986 
L 257.82528 255.514636 
L 257.94432 250.390367 
L 258.06336 260.887743 
L 258.30144 180.78443 
L 258.53952 242.709353 
L 258.65856 159.403041 
L 258.7776 249.643388 
L 258.89664 217.553361 
L 259.01568 232.833885 
L 259.13472 272.215968 
L 259.25376 266.976848 
L 259.3728 234.020373 
L 259.61088 257.897474 
L 259.84896 202.643619 
L 259.968 231.294106 
L 260.08704 232.49972 
L 260.20608 210.650159 
L 260.32512 235.142668 
L 260.44416 161.733779 
L 260.68224 248.942479 
L 260.80128 229.434281 
L 260.92032 263.949451 
L 261.03936 250.490958 
L 261.1584 206.369176 
L 261.27744 257.364115 
L 261.51552 243.780234 
L 261.63456 201.522628 
L 261.7536 240.772136 
L 261.87264 242.25785 
L 261.99168 193.526685 
L 262.11072 204.870455 
L 262.22976 205.478732 
L 262.3488 190.253599 
L 262.46784 103.996936 
L 262.58688 248.803089 
L 262.70592 165.164119 
L 262.944 254.349303 
L 263.06304 237.434733 
L 263.18208 263.519826 
L 263.42016 152.427288 
L 263.65824 217.692764 
L 264.01536 252.115224 
L 264.1344 177.28442 
L 264.37248 206.501151 
L 264.49152 203.553321 
L 264.7296 171.597246 
L 264.84864 226.680617 
L 264.96768 216.32614 
L 265.08672 156.84688 
L 265.20576 252.732023 
L 265.3248 222.383194 
L 265.44384 245.520807 
L 265.56288 245.924722 
L 265.68192 224.5443 
L 265.80096 255.201915 
L 265.92 233.751662 
L 266.03904 236.784321 
L 266.15808 209.525003 
L 266.27712 218.430936 
L 266.39616 235.721094 
L 266.63424 219.37936 
L 266.75328 191.147695 
L 266.87232 273.351849 
L 267.1104 246.115484 
L 267.22944 269.231687 
L 267.34848 266.327197 
L 267.46752 214.235458 
L 267.58656 239.361576 
L 267.7056 210.560834 
L 267.82464 237.319293 
L 267.94368 238.217328 
L 268.06272 253.965911 
L 268.18176 171.737951 
L 268.3008 258.482859 
L 268.41984 183.291364 
L 268.53888 194.888471 
L 268.65792 261.837169 
L 268.77696 236.821258 
L 268.896 182.671772 
L 269.01504 180.790637 
L 269.13408 183.120425 
L 269.25312 244.165956 
L 269.37216 200.216949 
L 269.4912 234.832591 
L 269.72928 192.715382 
L 270.0864 259.408065 
L 270.20544 248.610625 
L 270.32448 255.317299 
L 270.44352 180.116446 
L 270.6816 263.525244 
L 270.80064 246.170481 
L 270.91968 179.359657 
L 271.15776 250.215605 
L 271.2768 233.96938 
L 271.39584 237.321522 
L 271.51488 177.979018 
L 271.63392 242.683593 
L 271.75296 209.237178 
L 271.872 251.159577 
L 271.99104 238.43066 
L 272.11008 255.677307 
L 272.34816 211.56197 
L 272.4672 255.282998 
L 272.58624 253.499333 
L 272.70528 231.069297 
L 272.82432 148.233292 
L 273.0624 231.205008 
L 273.18144 214.07453 
L 273.53856 273.843841 
L 273.77664 222.649794 
L 273.89568 228.41772 
L 274.01472 215.088219 
L 274.13376 226.037486 
L 274.2528 259.526628 
L 274.60992 206.698055 
L 274.72896 161.471689 
L 274.848 264.165666 
L 274.96704 238.067934 
L 275.08608 256.558558 
L 275.20512 196.516169 
L 275.4432 243.253584 
L 275.56224 184.506337 
L 275.68128 227.498512 
L 275.80032 217.5729 
L 275.91936 252.552267 
L 276.0384 218.838939 
L 276.15744 240.167138 
L 276.39552 237.628703 
L 276.51456 231.14785 
L 276.6336 240.975283 
L 276.75264 238.14996 
L 276.87168 145.041163 
L 277.10976 254.220079 
L 277.2288 251.679961 
L 277.34784 256.419807 
L 277.46688 190.497744 
L 277.58592 250.82743 
L 277.70496 242.58441 
L 277.824 271.996423 
L 277.94304 180.829056 
L 278.06208 260.536103 
L 278.18112 257.59423 
L 278.4192 227.386839 
L 278.53824 153.169499 
L 278.77632 239.817862 
L 278.89536 254.618391 
L 279.0144 246.136819 
L 279.13344 248.316084 
L 279.25248 194.787638 
L 279.37152 255.067451 
L 279.49056 181.676516 
L 279.6096 250.473428 
L 279.72864 192.660566 
L 279.84768 252.668626 
L 279.96672 208.458846 
L 280.08576 250.257659 
L 280.2048 197.631806 
L 280.32384 255.120785 
L 280.44288 226.882737 
L 280.56192 229.291664 
L 280.68096 254.462215 
L 280.8 192.752233 
L 281.03808 257.967075 
L 281.51424 179.404843 
L 281.75232 243.022596 
L 281.9904 214.790405 
L 282.22848 241.468826 
L 282.34752 234.35354 
L 282.46656 203.432573 
L 282.5856 235.869695 
L 282.70464 237.274574 
L 282.82368 195.171045 
L 282.94272 235.337181 
L 283.06176 168.537563 
L 283.1808 250.878516 
L 283.29984 217.324071 
L 283.41888 234.444799 
L 283.53792 232.123331 
L 283.776 238.665812 
L 283.89504 255.88771 
L 284.13312 201.731591 
L 284.25216 248.797934 
L 284.3712 243.964615 
L 284.60928 167.159425 
L 284.84736 254.724604 
L 284.9664 252.177459 
L 285.08544 244.656546 
L 285.32352 208.934819 
L 285.44256 266.149116 
L 285.5616 210.805407 
L 285.68064 255.883109 
L 285.79968 204.816424 
L 286.03776 262.076 
L 286.1568 220.602042 
L 286.27584 218.854612 
L 286.51392 258.998495 
L 286.63296 214.811757 
L 286.752 281.524835 
L 286.99008 236.164325 
L 287.10912 285.408 
L 287.3472 225.715312 
L 287.46624 211.221274 
L 287.58528 242.719035 
L 287.70432 236.288995 
L 287.82336 256.953847 
L 287.9424 182.919713 
L 288.06144 240.15572 
L 288.18048 180.24487 
L 288.29952 186.457051 
L 288.41856 199.114952 
L 288.5376 192.961934 
L 288.65664 137.110224 
L 288.77568 179.24734 
L 288.89472 271.045285 
L 289.01376 258.111219 
L 289.1328 264.038342 
L 289.48992 63.648 
L 289.60896 254.022042 
L 289.728 230.735665 
L 289.84704 274.994543 
L 289.96608 214.4401 
L 290.08512 236.227726 
L 290.20416 215.494328 
L 290.3232 172.369167 
L 290.56128 255.384535 
L 290.68032 257.746845 
L 290.79936 123.799611 
L 291.03744 257.788897 
L 291.15648 202.601657 
L 291.27552 239.391914 
L 291.39456 238.650113 
L 291.5136 235.175727 
L 291.63264 237.060982 
L 291.75168 265.454946 
L 291.98976 193.384239 
L 292.1088 245.236813 
L 292.22784 237.903736 
L 292.34688 223.196644 
L 292.46592 223.198124 
L 292.704 188.122829 
L 292.94208 256.220068 
L 293.18016 219.113855 
L 293.2992 156.406324 
L 293.41824 242.842011 
L 293.65632 192.665241 
L 293.77536 206.750201 
L 293.8944 247.095084 
L 294.01344 223.351771 
L 294.13248 235.20995 
L 294.37056 199.580595 
L 294.60864 252.686912 
L 294.84672 227.297463 
L 294.96576 222.215209 
L 295.0848 179.770029 
L 295.20384 243.009897 
L 295.32288 221.783486 
L 295.44192 263.305781 
L 295.56096 259.417154 
L 295.91808 183.273048 
L 296.03712 260.11945 
L 296.15616 252.35263 
L 296.2752 259.966774 
L 296.39424 206.778624 
L 296.51328 220.551073 
L 296.63232 249.592382 
L 296.75136 210.962938 
L 296.8704 236.373937 
L 297.10848 191.993403 
L 297.22752 152.098775 
L 297.34656 279.847773 
L 297.4656 219.002165 
L 297.58464 272.747408 
L 297.82272 192.735433 
L 297.94176 203.967871 
L 298.0608 220.553846 
L 298.17984 174.788212 
L 298.29888 274.893347 
L 298.53696 193.722954 
L 298.656 249.177933 
L 298.77504 246.492082 
L 298.89408 182.600107 
L 299.01312 247.019996 
L 299.13216 247.010455 
L 299.2512 263.387421 
L 299.37024 244.104878 
L 299.48928 248.351136 
L 299.60832 245.961228 
L 299.8464 160.285876 
L 299.96544 257.188054 
L 300.08448 262.652938 
L 300.32256 212.0978 
L 300.4416 245.963831 
L 300.56064 239.565824 
L 300.67968 264.676692 
L 300.79872 251.611332 
L 300.91776 193.115063 
L 301.0368 230.357501 
L 301.15584 174.136144 
L 301.27488 274.466828 
L 301.39392 197.304253 
L 301.51296 212.149989 
L 301.632 186.764139 
L 301.75104 267.907837 
L 301.98912 131.297157 
L 302.10816 233.003714 
L 302.2272 232.162511 
L 302.34624 271.696389 
L 302.46528 135.149453 
L 302.58432 250.30946 
L 302.70336 252.904902 
L 302.8224 246.835991 
L 302.94144 263.380482 
L 303.17952 202.316652 
L 303.29856 180.526782 
L 303.4176 276.069097 
L 303.65568 212.398182 
L 303.77472 256.213219 
L 303.89376 234.75607 
L 304.0128 249.1145 
L 304.13184 173.723935 
L 304.25088 238.943528 
L 304.36992 196.396747 
L 304.48896 220.115574 
L 304.608 193.985494 
L 304.72704 251.956615 
L 304.96512 208.070841 
L 305.2032 247.937347 
L 305.32224 188.198584 
L 305.44128 253.091679 
L 305.56032 239.800981 
L 305.67936 250.193929 
L 305.91744 204.483135 
L 306.03648 243.015558 
L 306.15552 209.623713 
L 306.27456 265.127937 
L 306.51264 203.825542 
L 306.63168 204.400369 
L 306.86976 243.163213 
L 307.10784 264.068152 
L 307.22688 176.0276 
L 307.34592 230.928204 
L 307.584 195.8193 
L 307.70304 220.775778 
L 307.82208 269.93902 
L 307.94112 224.344078 
L 308.06016 242.383101 
L 308.1792 200.599112 
L 308.29824 232.837858 
L 308.41728 234.29809 
L 308.53632 260.868265 
L 308.65536 240.559637 
L 308.89344 254.474351 
L 309.01248 248.628879 
L 309.13152 208.317094 
L 309.25056 262.196685 
L 309.48864 239.05265 
L 309.60768 278.317924 
L 309.84576 154.255229 
L 309.9648 168.899724 
L 310.32192 272.885454 
L 310.56 184.219219 
L 310.67904 154.29635 
L 310.79808 223.94834 
L 310.91712 227.43581 
L 311.03616 252.484716 
L 311.1552 238.574765 
L 311.27424 255.284093 
L 311.39328 250.512266 
L 311.51232 272.04688 
L 311.63136 216.753971 
L 311.7504 227.432023 
L 311.98848 196.626191 
L 312.10752 265.544916 
L 312.22656 166.883373 
L 312.3456 250.92972 
L 312.46464 226.678532 
L 312.58368 236.315612 
L 312.70272 209.992537 
L 312.82176 259.727871 
L 312.9408 202.580126 
L 313.29792 235.787264 
L 313.41696 221.976313 
L 313.536 256.278556 
L 313.77408 224.63242 
L 313.89312 252.944084 
L 314.01216 244.901634 
L 314.1312 245.399365 
L 314.25024 216.031322 
L 314.36928 220.190347 
L 314.48832 247.078448 
L 314.60736 243.797536 
L 314.7264 268.842129 
L 314.84544 247.251494 
L 314.96448 267.367209 
L 315.20256 243.822757 
L 315.44064 165.229844 
L 315.67872 254.906277 
L 315.79776 227.938718 
L 315.9168 230.972523 
L 316.15488 213.628697 
L 316.27392 139.887627 
L 316.512 234.482042 
L 316.63104 201.550556 
L 316.86912 209.683672 
L 316.98816 261.842125 
L 317.1072 199.053764 
L 317.22624 262.432229 
L 317.34528 173.321347 
L 317.46432 211.43105 
L 317.58336 213.667149 
L 317.82144 235.565721 
L 317.94048 237.54792 
L 318.05952 235.184129 
L 318.17856 257.718743 
L 318.41664 182.771869 
L 318.53568 281.364365 
L 318.77376 239.067043 
L 318.8928 241.663018 
L 319.01184 229.570482 
L 319.13088 250.002526 
L 319.36896 234.913303 
L 319.488 206.014771 
L 319.72608 246.358619 
L 319.84512 238.517235 
L 319.96416 262.916187 
L 320.0832 214.551736 
L 320.32128 258.963878 
L 320.55936 157.783558 
L 320.6784 241.892549 
L 320.79744 242.309883 
L 320.91648 163.944271 
L 321.15456 258.699347 
L 321.2736 186.429505 
L 321.39264 217.376898 
L 321.51168 169.891993 
L 321.63072 198.754687 
L 321.74976 257.376066 
L 321.8688 228.580291 
L 321.98784 241.140453 
L 322.10688 235.533481 
L 322.22592 195.954479 
L 322.34496 231.943675 
L 322.464 215.397649 
L 322.58304 244.606421 
L 322.82112 216.600091 
L 322.94016 223.392347 
L 323.0592 213.970821 
L 323.17824 164.034293 
L 323.29728 242.965829 
L 323.41632 246.045474 
L 323.53536 173.984508 
L 323.6544 176.105873 
L 323.77344 204.33685 
L 323.89248 178.08497 
L 324.01152 240.885362 
L 324.13056 198.090574 
L 324.36864 249.429602 
L 324.48768 225.493162 
L 324.60672 251.930267 
L 324.72576 241.495263 
L 324.8448 195.340553 
L 324.96384 242.305114 
L 325.08288 244.704581 
L 325.20192 253.99299 
L 325.32096 189.404713 
L 325.55904 262.285946 
L 325.67808 242.851666 
L 325.79712 127.137846 
L 325.91616 280.836485 
L 326.15424 206.761158 
L 326.27328 208.424585 
L 326.39232 260.711148 
L 326.51136 236.629081 
L 326.6304 184.082962 
L 326.74944 272.721553 
L 326.98752 244.692513 
L 327.10656 257.189799 
L 327.2256 223.241011 
L 327.34464 233.821442 
L 327.46368 231.021222 
L 327.58272 168.724992 
L 327.70176 253.436589 
L 327.8208 226.259997 
L 327.93984 237.088038 
L 328.05888 285.408 
L 328.29696 228.959804 
L 328.416 260.598858 
L 328.53504 197.86714 
L 328.65408 215.554469 
L 328.77312 255.580538 
L 328.89216 252.478613 
L 329.0112 220.651068 
L 329.13024 246.826694 
L 329.24928 173.809297 
L 329.36832 227.668213 
L 329.48736 228.740515 
L 329.6064 177.624548 
L 329.72544 253.787462 
L 330.08256 181.577404 
L 330.2016 138.642632 
L 330.32064 259.313849 
L 330.67776 233.68276 
L 330.7968 242.777551 
L 330.91584 221.31657 
L 331.15392 252.616825 
L 331.27296 233.285526 
L 331.392 235.885822 
L 331.51104 249.395045 
L 331.63008 218.316686 
L 331.74912 147.192866 
L 331.86816 153.387607 
L 331.9872 262.178181 
L 332.22528 191.666603 
L 332.34432 256.399068 
L 332.46336 225.7499 
L 332.5824 156.265032 
L 332.82048 267.744712 
L 332.93952 260.091799 
L 333.05856 233.123492 
L 333.29664 267.883461 
L 333.41568 212.237866 
L 333.53472 238.759684 
L 333.7728 218.438801 
L 333.89184 253.208866 
L 334.01088 229.141664 
L 334.12992 154.590618 
L 334.24896 227.591661 
L 334.368 201.863293 
L 334.48704 111.289405 
L 334.72512 263.050773 
L 335.08224 207.714133 
L 335.20128 267.565836 
L 335.32032 204.603092 
L 335.43936 238.662522 
L 335.5584 235.329766 
L 335.67744 221.770385 
L 335.79648 223.949239 
L 335.91552 229.44637 
L 336.03456 218.342565 
L 336.1536 224.098776 
L 336.27264 214.763314 
L 336.39168 194.515979 
L 336.62976 254.110299 
L 336.7488 265.385436 
L 336.98688 176.050641 
L 337.10592 218.790996 
L 337.22496 213.417537 
L 337.46304 248.576415 
L 337.58208 255.809413 
L 337.70112 235.913974 
L 337.82016 246.264865 
L 338.05824 186.280491 
L 338.17728 193.521444 
L 338.29632 229.31661 
L 338.41536 202.492 
L 338.5344 214.504062 
L 338.65344 242.12138 
L 338.77248 213.405631 
L 338.89152 273.079238 
L 339.1296 176.223347 
L 339.24864 241.400183 
L 339.36768 188.743658 
L 339.48672 214.951826 
L 339.60576 195.158492 
L 339.7248 270.858729 
L 339.96288 175.71595 
L 340.08192 226.856335 
L 340.32 183.239875 
L 340.43904 201.251407 
L 340.55808 166.761524 
L 340.79616 236.048929 
L 340.9152 235.567551 
L 341.03424 245.430826 
L 341.15328 187.212285 
L 341.27232 250.094112 
L 341.39136 130.184168 
L 341.5104 252.737493 
L 341.74848 206.300366 
L 341.98656 245.93217 
L 342.1056 235.010003 
L 342.22464 174.692735 
L 342.34368 252.998715 
L 342.46272 198.082562 
L 342.7008 230.09326 
L 342.81984 216.370113 
L 342.93888 216.909861 
L 343.05792 176.020376 
L 343.17696 231.063775 
L 343.296 231.125375 
L 343.41504 224.537747 
L 343.65312 236.368733 
L 344.01024 184.868599 
L 344.12928 247.431695 
L 344.24832 227.831379 
L 344.36736 257.670213 
L 344.4864 197.685825 
L 344.60544 220.399507 
L 344.72448 201.276103 
L 344.96256 254.727761 
L 345.0816 231.698016 
L 345.20064 266.073153 
L 345.43872 231.429451 
L 345.55776 180.168575 
L 345.6768 187.428343 
L 345.79584 169.968323 
L 346.03392 267.489661 
L 346.15296 162.561363 
L 346.39104 236.763894 
L 346.51008 254.265906 
L 346.62912 143.934933 
L 346.74816 233.626085 
L 346.8672 223.835933 
L 346.98624 190.952564 
L 347.10528 204.935601 
L 347.22432 146.297121 
L 347.34336 245.536985 
L 347.4624 219.288746 
L 347.58144 238.938183 
L 347.70048 194.750271 
L 347.81952 265.91285 
L 347.93856 238.916524 
L 348.0576 283.723708 
L 348.41472 204.641528 
L 348.53376 240.131647 
L 348.77184 95.944172 
L 348.89088 241.342451 
L 349.00992 213.241817 
L 349.248 261.150106 
L 349.36704 239.352396 
L 349.48608 259.637463 
L 349.60512 211.364366 
L 349.72416 219.318919 
L 349.8432 211.667908 
L 350.08128 281.58205 
L 350.20032 216.777369 
L 350.31936 220.754344 
L 350.55744 261.386437 
L 350.67648 232.982235 
L 350.79552 280.108533 
L 350.91456 201.105853 
L 351.0336 207.905359 
L 351.27168 232.560405 
L 351.39072 157.560301 
L 351.50976 228.707564 
L 351.6288 193.454572 
L 351.74784 258.980576 
L 351.86688 255.999403 
L 352.10496 228.036053 
L 352.224 167.936221 
L 352.34304 243.976909 
L 352.46208 220.644626 
L 352.70016 246.768088 
L 352.93824 194.411382 
L 353.05728 239.072134 
L 353.29536 181.51546 
L 353.53344 223.577979 
L 353.65248 195.170596 
L 353.89056 261.970246 
L 354.12864 177.548924 
L 354.24768 188.651568 
L 354.36672 229.357229 
L 354.48576 214.251096 
L 354.72384 249.660959 
L 354.84288 239.377372 
L 354.96192 239.721809 
L 355.08096 237.795518 
L 355.2 160.975499 
L 355.31904 239.711905 
L 355.43808 156.15609 
L 355.55712 247.858896 
L 355.67616 168.215539 
L 355.7952 260.554001 
L 356.03328 244.20811 
L 356.27136 161.014919 
L 356.3904 228.339121 
L 356.50944 199.666426 
L 356.62848 249.576018 
L 356.74752 154.874487 
L 356.86656 250.758767 
L 356.9856 250.444618 
L 357.10464 240.348894 
L 357.22368 266.520755 
L 357.46176 200.71437 
L 357.69984 219.399775 
L 357.81888 198.33266 
L 358.05696 256.129518 
L 358.176 244.974381 
L 358.29504 141.226866 
L 358.41408 217.926331 
L 358.53312 209.1034 
L 358.65216 185.221455 
L 358.7712 226.135174 
L 359.00928 220.505582 
L 359.12832 198.779334 
L 359.24736 221.956271 
L 359.3664 193.278497 
L 359.60448 245.164211 
L 359.84256 165.595685 
L 359.9616 242.519458 
L 360.08064 233.18671 
L 360.19968 215.045689 
L 360.31872 248.190142 
L 360.43776 230.148349 
L 360.5568 171.787188 
L 360.67584 201.770174 
L 360.79488 197.151686 
L 360.91392 254.115984 
L 361.03296 249.788791 
L 361.152 232.066632 
L 361.27104 250.977449 
L 361.39008 235.575835 
L 361.50912 177.796116 
L 361.62816 239.109053 
L 361.7472 182.13835 
L 361.98528 255.326154 
L 362.10432 241.590228 
L 362.22336 180.817816 
L 362.46144 280.512021 
L 362.58048 228.797682 
L 362.69952 255.067247 
L 362.81856 227.493617 
L 362.9376 244.436214 
L 363.05664 176.081628 
L 363.17568 253.523438 
L 363.29472 253.768701 
L 363.41376 189.033667 
L 363.77088 270.32621 
L 363.88992 100.23437 
L 364.00896 267.401498 
L 364.128 205.844982 
L 364.24704 231.13112 
L 364.36608 161.304582 
L 364.48512 255.164999 
L 364.7232 184.77726 
L 364.84224 259.512944 
L 364.96128 173.409077 
L 365.08032 228.698434 
L 365.19936 223.824967 
L 365.3184 263.561337 
L 365.43744 203.975536 
L 365.55648 210.719999 
L 365.79456 205.280759 
L 365.9136 259.479307 
L 366.03264 219.372128 
L 366.15168 285.408 
L 366.27072 171.854703 
L 366.38976 257.030229 
L 366.5088 189.627365 
L 366.62784 266.869735 
L 366.86592 255.675489 
L 367.104 236.626648 
L 367.22304 252.747408 
L 367.34208 243.068212 
L 367.46112 274.360812 
L 367.58016 246.230118 
L 367.6992 260.72827 
L 367.81824 255.304736 
L 368.05632 194.638596 
L 368.17536 254.03879 
L 368.2944 244.002605 
L 368.41344 243.931593 
L 368.53248 194.963179 
L 368.65152 246.679437 
L 368.77056 215.581725 
L 368.8896 269.3893 
L 369.00864 216.941646 
L 369.12768 251.289077 
L 369.24672 238.270683 
L 369.4848 109.812991 
L 369.60384 223.94372 
L 369.72288 224.387583 
L 369.84192 224.24688 
L 369.96096 240.061014 
L 370.08 127.776965 
L 370.19904 269.681369 
L 370.31808 211.161282 
L 370.43712 215.951126 
L 370.55616 234.483161 
L 370.6752 230.904469 
L 370.79424 205.450713 
L 370.91328 239.322268 
L 371.03232 200.898763 
L 371.15136 224.460537 
L 371.38944 178.942195 
L 371.50848 226.697003 
L 371.62752 192.364326 
L 371.8656 262.650309 
L 371.98464 184.789816 
L 372.22272 250.247689 
L 372.34176 230.854786 
L 372.4608 281.831984 
L 372.69888 206.581909 
L 372.81792 234.670205 
L 372.93696 214.241221 
L 373.056 282.553074 
L 373.17504 158.539606 
L 373.41312 253.706931 
L 373.53216 231.672938 
L 373.6512 181.833338 
L 373.88928 241.868464 
L 374.00832 229.828327 
L 374.12736 172.840635 
L 374.2464 178.230243 
L 374.36544 146.636797 
L 374.48448 229.462519 
L 374.8416 242.795123 
L 374.96064 167.36701 
L 375.07968 191.274206 
L 375.19872 273.205387 
L 375.4368 222.877998 
L 375.55584 237.02877 
L 375.67488 184.945939 
L 375.79392 229.124233 
L 376.032 224.426271 
L 376.27008 236.959933 
L 376.50816 209.445664 
L 376.6272 236.100298 
L 376.74624 222.625722 
L 376.86528 230.817834 
L 376.98432 248.633994 
L 377.10336 242.409044 
L 377.2224 205.868829 
L 377.46048 219.379611 
L 377.57952 222.658825 
L 377.69856 250.896552 
L 377.8176 162.126455 
L 378.05568 233.996802 
L 378.17472 110.346298 
L 378.29376 235.950765 
L 378.4128 156.875281 
L 378.53184 248.435399 
L 378.65088 233.2008 
L 378.88896 199.167797 
L 379.008 211.446161 
L 379.12704 195.244514 
L 379.24608 266.306779 
L 379.48416 217.161226 
L 379.72224 244.794456 
L 379.96032 196.616927 
L 380.07936 189.414936 
L 380.1984 240.343351 
L 380.43648 189.789709 
L 380.55552 245.001827 
L 380.7936 159.496116 
L 381.03168 220.634323 
L 381.15072 234.011959 
L 381.26976 145.72933 
L 381.3888 237.0167 
L 381.50784 222.797632 
L 381.62688 246.113931 
L 381.74592 173.237603 
L 381.86496 257.665582 
L 381.984 230.550032 
L 382.10304 267.764015 
L 382.22208 153.737772 
L 382.46016 228.285628 
L 382.5792 220.203266 
L 382.69824 254.088038 
L 382.81728 255.151071 
L 382.93632 175.482041 
L 383.05536 223.66566 
L 383.1744 187.609048 
L 383.41248 245.210159 
L 383.53152 240.534617 
L 383.7696 226.056482 
L 383.88864 248.53499 
L 384.00768 216.482668 
L 384.12672 216.328086 
L 384.24576 216.977998 
L 384.3648 182.478864 
L 384.60288 230.5296 
L 384.72192 209.337409 
L 384.84096 218.665555 
L 384.96 244.496985 
L 385.07904 170.819638 
L 385.19808 261.882663 
L 385.43616 218.707477 
L 385.5552 262.002628 
L 385.67424 216.675812 
L 385.79328 263.448675 
L 385.91232 263.651489 
L 386.1504 165.832777 
L 386.26944 248.438857 
L 386.50752 204.393814 
L 386.62656 274.11911 
L 386.86464 189.300982 
L 386.98368 254.374582 
L 387.10272 253.964659 
L 387.22176 176.634978 
L 387.45984 255.71134 
L 387.57888 238.738813 
L 387.81696 221.831233 
L 387.936 144.317901 
L 388.17408 237.595433 
L 388.29312 213.82138 
L 388.41216 220.8683 
L 388.5312 259.784105 
L 388.76928 224.206943 
L 388.88832 242.583861 
L 389.1264 193.820352 
L 389.24544 268.201779 
L 389.48352 213.234963 
L 389.60256 249.408788 
L 389.7216 239.349022 
L 389.84064 217.459439 
L 389.95968 235.182827 
L 390.07872 213.485278 
L 390.19776 240.143109 
L 390.3168 192.602716 
L 390.43584 220.799813 
L 390.55488 166.912662 
L 390.79296 248.731214 
L 390.912 247.393584 
L 391.03104 263.276068 
L 391.15008 243.91626 
L 391.26912 242.770082 
L 391.38816 246.572056 
L 391.5072 171.782577 
L 391.62624 236.091366 
L 391.86432 190.911493 
L 391.98336 241.867105 
L 392.1024 197.493004 
L 392.22144 248.820473 
L 392.34048 231.259445 
L 392.45952 265.461856 
L 392.57856 199.92574 
L 392.6976 256.106258 
L 392.81664 219.497062 
L 392.93568 262.285108 
L 393.05472 260.257671 
L 393.17376 235.510095 
L 393.2928 265.345604 
L 393.64992 230.141655 
L 393.76896 257.93581 
L 393.888 201.25731 
L 394.00704 204.835885 
L 394.36416 270.685784 
L 394.60224 170.12026 
L 394.72128 265.129716 
L 394.84032 200.306038 
L 394.95936 214.052109 
L 395.0784 165.897974 
L 395.31648 238.771227 
L 395.43552 237.844803 
L 395.55456 241.669869 
L 395.6736 220.084316 
L 395.79264 169.564615 
L 395.91168 265.280381 
L 396.03072 239.097299 
L 396.14976 276.140901 
L 396.2688 136.685823 
L 396.38784 235.234601 
L 396.50688 209.335312 
L 396.62592 208.635291 
L 396.74496 255.87451 
L 397.10208 196.530475 
L 397.22112 230.016151 
L 397.34016 221.473397 
L 397.4592 249.508549 
L 397.57824 157.111071 
L 397.69728 264.308195 
L 397.93536 211.49796 
L 398.0544 242.902605 
L 398.17344 227.610275 
L 398.29248 248.16199 
L 398.41152 239.819642 
L 398.53056 218.685515 
L 398.6496 126.871625 
L 398.88768 231.000864 
L 399.00672 208.37808 
L 399.12576 230.898883 
L 399.2448 204.197318 
L 399.48288 256.031391 
L 399.60192 217.109113 
L 399.84 260.875977 
L 399.95904 185.693346 
L 400.07808 257.501122 
L 400.19712 152.428365 
L 400.4352 248.834451 
L 400.55424 239.448249 
L 400.67328 258.217877 
L 400.79232 125.515597 
L 401.0304 259.557357 
L 401.14944 261.529023 
L 401.26848 221.018655 
L 401.38752 228.830865 
L 401.50656 268.005709 
L 401.6256 207.675174 
L 401.74464 237.996862 
L 401.86368 229.180605 
L 401.98272 178.753542 
L 402.2208 226.429185 
L 402.45888 199.607166 
L 402.57792 212.708411 
L 402.69696 257.493449 
L 402.816 144.586545 
L 402.93504 253.905144 
L 403.05408 115.327745 
L 403.17312 225.110089 
L 403.29216 186.93553 
L 403.4112 267.656901 
L 403.53024 256.447516 
L 403.76832 211.523775 
L 403.88736 251.054964 
L 404.12544 160.125424 
L 404.36352 244.552191 
L 404.48256 200.213746 
L 404.6016 244.868081 
L 404.83968 198.48077 
L 405.07776 238.602093 
L 405.31584 186.89782 
L 405.55392 277.230101 
L 405.792 195.629828 
L 405.91104 239.830173 
L 406.03008 227.33316 
L 406.14912 196.109121 
L 406.26816 238.777682 
L 406.3872 199.437597 
L 406.62528 244.931394 
L 406.74432 238.455417 
L 406.86336 187.568254 
L 407.10144 235.998105 
L 407.22048 164.403051 
L 407.45856 247.790629 
L 407.5776 250.036222 
L 407.81568 171.110531 
L 407.93472 204.323634 
L 408.05376 184.080795 
L 408.29184 262.536994 
L 408.41088 252.589033 
L 408.52992 277.382398 
L 408.64896 233.831782 
L 408.88704 259.671127 
L 409.12512 212.166475 
L 409.48224 259.040801 
L 409.72032 201.956195 
L 409.83936 244.717707 
L 410.07744 161.449353 
L 410.19648 236.510711 
L 410.31552 219.605577 
L 410.43456 234.146481 
L 410.5536 198.147804 
L 410.67264 241.39169 
L 410.79168 217.235921 
L 410.91072 246.858476 
L 411.02976 207.672105 
L 411.26784 242.711045 
L 411.38688 144.128986 
L 411.50592 270.725461 
L 411.62496 233.093739 
L 411.86304 112.384492 
L 412.10112 266.716891 
L 412.22016 158.163777 
L 412.45824 230.954552 
L 412.57728 146.007413 
L 412.69632 264.510431 
L 412.81536 227.438565 
L 412.9344 242.968083 
L 413.17248 163.030501 
L 413.41056 238.508455 
L 413.5296 247.804541 
L 413.64864 248.039707 
L 413.76768 171.7932 
L 413.88672 267.396156 
L 414.1248 214.05347 
L 414.24384 227.89502 
L 414.36288 217.464563 
L 414.48192 262.103342 
L 414.60096 260.934992 
L 414.60096 260.934992 
" style="fill:none;stroke:#0000ff;stroke-linecap:square;stroke-width:1.5;"/>
   </g>
   <g id="patch_3">
    <path d="M 57.6 307.584 
L 57.6 41.472 
" style="fill:none;stroke:#000000;stroke-linecap:square;stroke-linejoin:miter;stroke-width:0.8;"/>
   </g>
   <g id="patch_4">
    <path d="M 414.72 307.584 
L 414.72 41.472 
" style="fill:none;stroke:#000000;stroke-linecap:square;stroke-linejoin:miter;stroke-width:0.8;"/>
   </g>
   <g id="patch_5">
    <path d="M 57.6 307.584 
L 414.72 307.584 
" style="fill:none;stroke:#000000;stroke-linecap:square;stroke-linejoin:miter;stroke-width:0.8;"/>
   </g>
   <g id="patch_6">
    <path d="M 57.6 41.472 
L 414.72 41.472 
" style="fill:none;stroke:#000000;stroke-linecap:square;stroke-linejoin:miter;stroke-width:0.8;"/>
   </g>
   <g id="legend_1">
    <g id="patch_7">
     <path d="M 68.8 77.757 
L 269.4375 77.757 
Q 272.6375 77.757 272.6375 74.557 
L 272.6375 52.672 
Q 272.6375 49.472 269.4375 49.472 
L 68.8 49.472 
Q 65.6 49.472 65.6 52.672 
L 65.6 74.557 
Q 65.6 77.757 68.8 77.757 
z
" style="fill:#ffffff;opacity:0.8;stroke:#cccccc;stroke-linejoin:miter;"/>
    </g>
    <g id="line2d_26">
     <path d="M 72 62.4295 
L 104 62.4295 
" style="fill:none;stroke:#0000ff;stroke-linecap:square;stroke-width:1.5;"/>
    </g>
    <g id="line2d_27"/>
    <g id="text_15">
     <!-- cumulative reward -->
     <g transform="translate(116.8 68.0295)scale(0.16 -0.16)">
      <defs>
       <path d="M 3122 3366 
L 3122 2828 
Q 2878 2963 2633 3030 
Q 2388 3097 2138 3097 
Q 1578 3097 1268 2742 
Q 959 2388 959 1747 
Q 959 1106 1268 751 
Q 1578 397 2138 397 
Q 2388 397 2633 464 
Q 2878 531 3122 666 
L 3122 134 
Q 2881 22 2623 -34 
Q 2366 -91 2075 -91 
Q 1284 -91 818 406 
Q 353 903 353 1747 
Q 353 2603 823 3093 
Q 1294 3584 2113 3584 
Q 2378 3584 2631 3529 
Q 2884 3475 3122 3366 
z
" id="DejaVuSans-63" transform="scale(0.015625)"/>
      </defs>
      <use xlink:href="#DejaVuSans-63"/>
      <use x="54.980469" xlink:href="#DejaVuSans-75"/>
      <use x="118.359375" xlink:href="#DejaVuSans-6d"/>
      <use x="215.771484" xlink:href="#DejaVuSans-75"/>
      <use x="279.150391" xlink:href="#DejaVuSans-6c"/>
      <use x="306.933594" xlink:href="#DejaVuSans-61"/>
      <use x="368.212891" xlink:href="#DejaVuSans-74"/>
      <use x="407.421875" xlink:href="#DejaVuSans-69"/>
      <use x="435.205078" xlink:href="#DejaVuSans-76"/>
      <use x="494.384766" xlink:href="#DejaVuSans-65"/>
      <use x="555.908203" xlink:href="#DejaVuSans-20"/>
      <use x="587.695312" xlink:href="#DejaVuSans-72"/>
      <use x="626.558594" xlink:href="#DejaVuSans-65"/>
      <use x="688.082031" xlink:href="#DejaVuSans-77"/>
      <use x="769.869141" xlink:href="#DejaVuSans-61"/>
      <use x="831.148438" xlink:href="#DejaVuSans-72"/>
      <use x="870.511719" xlink:href="#DejaVuSans-64"/>
     </g>
    </g>
   </g>
  </g>
 </g>
 <defs>
  <clipPath id="p64f0a1c3bd">
   <rect height="266.112" width="357.12" x="57.6" y="41.472"/>
  </clipPath>
 </defs>
</svg>
