<?xml version="1.0" encoding="utf-8" standalone="no"?>
<!DOCTYPE svg PUBLIC "-//W3C//DTD SVG 1.1//EN"
  "http://www.w3.org/Graphics/SVG/1.1/DTD/svg11.dtd">
<svg height="345.6pt" version="1.1" viewBox="0 0 460.8 345.6" width="460.8pt" xmlns="http://www.w3.org/2000/svg" xmlns:xlink="http://www.w3.org/1999/xlink">
 <metadata>
  <rdf:RDF xmlns:cc="http://creativecommons.org/ns#" xmlns:dc="http://purl.org/dc/elements/1.1/" xmlns:rdf="http://www.w3.org/1999/02/22-rdf-syntax-ns#">
   <cc:Work>
    <dc:type rdf:resource="http://purl.org/dc/dcmitype/StillImage"/>
    <dc:date>2021-10-27T12:50:58.972949</dc:date>
    <dc:description>{"agent.algorithm": "RayProximalPolicyOptimization", "agent.algorithm.render_env": false, "agent.algorithm.num_workers": 0, "agent.algorithm.batch_mode": "complete_episodes", "agent.algorithm.train_batch_size": 200, "agent.algorithm.optimizer": "Adam", "agent.algorithm.vf_clip_param": 10000.0, "agent.algorithm.model": {"fcnet_activation": "tanh", "fcnet_hiddens": [50, 50]}, "env.env_class": "SchedulerPolicyRayEnvironment", "env.env_config": {"solver_driver": "CMAdriver", "solver_driver_args": [10, 10, 8, 1.66], "maximize": false, "steps": 50, "state_metrics_names": ["DifferenceOfBest", "SolverStateHistory", "SolverState"], "state_metrics_config": [[40, false, 1, true], [{"step_size": {"max": 3, "min": 0}}, 40], [{"ps": {"max": 10, "min": -10}}]], "reward_metric": "Best", "reward_metric_config": [false, false], "memes_no": 1, "action_space_config": {"step_size": {"max": 3, "min": 1e-10}}}}</dc:description>
    <dc:format>image/svg+xml</dc:format>
    <dc:creator>
     <cc:Agent>
      <dc:title>Matplotlib v3.4.3, https://matplotlib.org/</dc:title>
     </cc:Agent>
    </dc:creator>
   </cc:Work>
  </rdf:RDF>
 </metadata>
 <defs>
  <style type="text/css">*{stroke-linecap:butt;stroke-linejoin:round;}</style>
 </defs>
 <g id="figure_1">
  <g id="patch_1">
   <path d="M 0 345.6 
L 460.8 345.6 
L 460.8 0 
L 0 0 
z
" style="fill:#ffffff;"/>
  </g>
  <g id="axes_1">
   <g id="patch_2">
    <path d="M 57.6 307.584 
L 414.72 307.584 
L 414.72 41.472 
L 57.6 41.472 
z
" style="fill:#ffffff;"/>
   </g>
   <g id="matplotlib.axis_1">
    <g id="xtick_1">
     <g id="line2d_1">
      <path clip-path="url(#pdd1b34f381)" d="M 57.6 307.584 
L 57.6 41.472 
" style="fill:none;stroke:#b0b0b0;stroke-linecap:square;stroke-width:0.8;"/>
     </g>
     <g id="line2d_2">
      <defs>
       <path d="M 0 0 
L 0 3.5 
" id="mda0ece8b5d" style="stroke:#000000;stroke-width:0.8;"/>
      </defs>
      <g>
       <use style="stroke:#000000;stroke-width:0.8;" x="57.6" xlink:href="#mda0ece8b5d" y="307.584"/>
      </g>
     </g>
     <g id="text_1">
      <!-- 0 -->
      <g transform="translate(54.41875 322.182437)scale(0.1 -0.1)">
       <defs>
        <path d="M 2034 4250 
Q 1547 4250 1301 3770 
Q 1056 3291 1056 2328 
Q 1056 1369 1301 889 
Q 1547 409 2034 409 
Q 2525 409 2770 889 
Q 3016 1369 3016 2328 
Q 3016 3291 2770 3770 
Q 2525 4250 2034 4250 
z
M 2034 4750 
Q 2819 4750 3233 4129 
Q 3647 3509 3647 2328 
Q 3647 1150 3233 529 
Q 2819 -91 2034 -91 
Q 1250 -91 836 529 
Q 422 1150 422 2328 
Q 422 3509 836 4129 
Q 1250 4750 2034 4750 
z
" id="DejaVuSans-30" transform="scale(0.015625)"/>
       </defs>
       <use xlink:href="#DejaVuSans-30"/>
      </g>
     </g>
    </g>
    <g id="xtick_2">
     <g id="line2d_3">
      <path clip-path="url(#pdd1b34f381)" d="M 117.12 307.584 
L 117.12 41.472 
" style="fill:none;stroke:#b0b0b0;stroke-linecap:square;stroke-width:0.8;"/>
     </g>
     <g id="line2d_4">
      <g>
       <use style="stroke:#000000;stroke-width:0.8;" x="117.12" xlink:href="#mda0ece8b5d" y="307.584"/>
      </g>
     </g>
     <g id="text_2">
      <!-- 500 -->
      <g transform="translate(107.57625 322.182437)scale(0.1 -0.1)">
       <defs>
        <path d="M 691 4666 
L 3169 4666 
L 3169 4134 
L 1269 4134 
L 1269 2991 
Q 1406 3038 1543 3061 
Q 1681 3084 1819 3084 
Q 2600 3084 3056 2656 
Q 3513 2228 3513 1497 
Q 3513 744 3044 326 
Q 2575 -91 1722 -91 
Q 1428 -91 1123 -41 
Q 819 9 494 109 
L 494 744 
Q 775 591 1075 516 
Q 1375 441 1709 441 
Q 2250 441 2565 725 
Q 2881 1009 2881 1497 
Q 2881 1984 2565 2268 
Q 2250 2553 1709 2553 
Q 1456 2553 1204 2497 
Q 953 2441 691 2322 
L 691 4666 
z
" id="DejaVuSans-35" transform="scale(0.015625)"/>
       </defs>
       <use xlink:href="#DejaVuSans-35"/>
       <use x="63.623047" xlink:href="#DejaVuSans-30"/>
       <use x="127.246094" xlink:href="#DejaVuSans-30"/>
      </g>
     </g>
    </g>
    <g id="xtick_3">
     <g id="line2d_5">
      <path clip-path="url(#pdd1b34f381)" d="M 176.64 307.584 
L 176.64 41.472 
" style="fill:none;stroke:#b0b0b0;stroke-linecap:square;stroke-width:0.8;"/>
     </g>
     <g id="line2d_6">
      <g>
       <use style="stroke:#000000;stroke-width:0.8;" x="176.64" xlink:href="#mda0ece8b5d" y="307.584"/>
      </g>
     </g>
     <g id="text_3">
      <!-- 1000 -->
      <g transform="translate(163.915 322.182437)scale(0.1 -0.1)">
       <defs>
        <path d="M 794 531 
L 1825 531 
L 1825 4091 
L 703 3866 
L 703 4441 
L 1819 4666 
L 2450 4666 
L 2450 531 
L 3481 531 
L 3481 0 
L 794 0 
L 794 531 
z
" id="DejaVuSans-31" transform="scale(0.015625)"/>
       </defs>
       <use xlink:href="#DejaVuSans-31"/>
       <use x="63.623047" xlink:href="#DejaVuSans-30"/>
       <use x="127.246094" xlink:href="#DejaVuSans-30"/>
       <use x="190.869141" xlink:href="#DejaVuSans-30"/>
      </g>
     </g>
    </g>
    <g id="xtick_4">
     <g id="line2d_7">
      <path clip-path="url(#pdd1b34f381)" d="M 236.16 307.584 
L 236.16 41.472 
" style="fill:none;stroke:#b0b0b0;stroke-linecap:square;stroke-width:0.8;"/>
     </g>
     <g id="line2d_8">
      <g>
       <use style="stroke:#000000;stroke-width:0.8;" x="236.16" xlink:href="#mda0ece8b5d" y="307.584"/>
      </g>
     </g>
     <g id="text_4">
      <!-- 1500 -->
      <g transform="translate(223.435 322.182437)scale(0.1 -0.1)">
       <use xlink:href="#DejaVuSans-31"/>
       <use x="63.623047" xlink:href="#DejaVuSans-35"/>
       <use x="127.246094" xlink:href="#DejaVuSans-30"/>
       <use x="190.869141" xlink:href="#DejaVuSans-30"/>
      </g>
     </g>
    </g>
    <g id="xtick_5">
     <g id="line2d_9">
      <path clip-path="url(#pdd1b34f381)" d="M 295.68 307.584 
L 295.68 41.472 
" style="fill:none;stroke:#b0b0b0;stroke-linecap:square;stroke-width:0.8;"/>
     </g>
     <g id="line2d_10">
      <g>
       <use style="stroke:#000000;stroke-width:0.8;" x="295.68" xlink:href="#mda0ece8b5d" y="307.584"/>
      </g>
     </g>
     <g id="text_5">
      <!-- 2000 -->
      <g transform="translate(282.955 322.182437)scale(0.1 -0.1)">
       <defs>
        <path d="M 1228 531 
L 3431 531 
L 3431 0 
L 469 0 
L 469 531 
Q 828 903 1448 1529 
Q 2069 2156 2228 2338 
Q 2531 2678 2651 2914 
Q 2772 3150 2772 3378 
Q 2772 3750 2511 3984 
Q 2250 4219 1831 4219 
Q 1534 4219 1204 4116 
Q 875 4013 500 3803 
L 500 4441 
Q 881 4594 1212 4672 
Q 1544 4750 1819 4750 
Q 2544 4750 2975 4387 
Q 3406 4025 3406 3419 
Q 3406 3131 3298 2873 
Q 3191 2616 2906 2266 
Q 2828 2175 2409 1742 
Q 1991 1309 1228 531 
z
" id="DejaVuSans-32" transform="scale(0.015625)"/>
       </defs>
       <use xlink:href="#DejaVuSans-32"/>
       <use x="63.623047" xlink:href="#DejaVuSans-30"/>
       <use x="127.246094" xlink:href="#DejaVuSans-30"/>
       <use x="190.869141" xlink:href="#DejaVuSans-30"/>
      </g>
     </g>
    </g>
    <g id="xtick_6">
     <g id="line2d_11">
      <path clip-path="url(#pdd1b34f381)" d="M 355.2 307.584 
L 355.2 41.472 
" style="fill:none;stroke:#b0b0b0;stroke-linecap:square;stroke-width:0.8;"/>
     </g>
     <g id="line2d_12">
      <g>
       <use style="stroke:#000000;stroke-width:0.8;" x="355.2" xlink:href="#mda0ece8b5d" y="307.584"/>
      </g>
     </g>
     <g id="text_6">
      <!-- 2500 -->
      <g transform="translate(342.475 322.182437)scale(0.1 -0.1)">
       <use xlink:href="#DejaVuSans-32"/>
       <use x="63.623047" xlink:href="#DejaVuSans-35"/>
       <use x="127.246094" xlink:href="#DejaVuSans-30"/>
       <use x="190.869141" xlink:href="#DejaVuSans-30"/>
      </g>
     </g>
    </g>
    <g id="xtick_7">
     <g id="line2d_13">
      <path clip-path="url(#pdd1b34f381)" d="M 414.72 307.584 
L 414.72 41.472 
" style="fill:none;stroke:#b0b0b0;stroke-linecap:square;stroke-width:0.8;"/>
     </g>
     <g id="line2d_14">
      <g>
       <use style="stroke:#000000;stroke-width:0.8;" x="414.72" xlink:href="#mda0ece8b5d" y="307.584"/>
      </g>
     </g>
     <g id="text_7">
      <!-- 3000 -->
      <g transform="translate(401.995 322.182437)scale(0.1 -0.1)">
       <defs>
        <path d="M 2597 2516 
Q 3050 2419 3304 2112 
Q 3559 1806 3559 1356 
Q 3559 666 3084 287 
Q 2609 -91 1734 -91 
Q 1441 -91 1130 -33 
Q 819 25 488 141 
L 488 750 
Q 750 597 1062 519 
Q 1375 441 1716 441 
Q 2309 441 2620 675 
Q 2931 909 2931 1356 
Q 2931 1769 2642 2001 
Q 2353 2234 1838 2234 
L 1294 2234 
L 1294 2753 
L 1863 2753 
Q 2328 2753 2575 2939 
Q 2822 3125 2822 3475 
Q 2822 3834 2567 4026 
Q 2313 4219 1838 4219 
Q 1578 4219 1281 4162 
Q 984 4106 628 3988 
L 628 4550 
Q 988 4650 1302 4700 
Q 1616 4750 1894 4750 
Q 2613 4750 3031 4423 
Q 3450 4097 3450 3541 
Q 3450 3153 3228 2886 
Q 3006 2619 2597 2516 
z
" id="DejaVuSans-33" transform="scale(0.015625)"/>
       </defs>
       <use xlink:href="#DejaVuSans-33"/>
       <use x="63.623047" xlink:href="#DejaVuSans-30"/>
       <use x="127.246094" xlink:href="#DejaVuSans-30"/>
       <use x="190.869141" xlink:href="#DejaVuSans-30"/>
      </g>
     </g>
    </g>
    <g id="text_8">
     <!-- Episodes -->
     <g transform="translate(213.917812 335.860562)scale(0.1 -0.1)">
      <defs>
       <path d="M 628 4666 
L 3578 4666 
L 3578 4134 
L 1259 4134 
L 1259 2753 
L 3481 2753 
L 3481 2222 
L 1259 2222 
L 1259 531 
L 3634 531 
L 3634 0 
L 628 0 
L 628 4666 
z
" id="DejaVuSans-45" transform="scale(0.015625)"/>
       <path d="M 1159 525 
L 1159 -1331 
L 581 -1331 
L 581 3500 
L 1159 3500 
L 1159 2969 
Q 1341 3281 1617 3432 
Q 1894 3584 2278 3584 
Q 2916 3584 3314 3078 
Q 3713 2572 3713 1747 
Q 3713 922 3314 415 
Q 2916 -91 2278 -91 
Q 1894 -91 1617 61 
Q 1341 213 1159 525 
z
M 3116 1747 
Q 3116 2381 2855 2742 
Q 2594 3103 2138 3103 
Q 1681 3103 1420 2742 
Q 1159 2381 1159 1747 
Q 1159 1113 1420 752 
Q 1681 391 2138 391 
Q 2594 391 2855 752 
Q 3116 1113 3116 1747 
z
" id="DejaVuSans-70" transform="scale(0.015625)"/>
       <path d="M 603 3500 
L 1178 3500 
L 1178 0 
L 603 0 
L 603 3500 
z
M 603 4863 
L 1178 4863 
L 1178 4134 
L 603 4134 
L 603 4863 
z
" id="DejaVuSans-69" transform="scale(0.015625)"/>
       <path d="M 2834 3397 
L 2834 2853 
Q 2591 2978 2328 3040 
Q 2066 3103 1784 3103 
Q 1356 3103 1142 2972 
Q 928 2841 928 2578 
Q 928 2378 1081 2264 
Q 1234 2150 1697 2047 
L 1894 2003 
Q 2506 1872 2764 1633 
Q 3022 1394 3022 966 
Q 3022 478 2636 193 
Q 2250 -91 1575 -91 
Q 1294 -91 989 -36 
Q 684 19 347 128 
L 347 722 
Q 666 556 975 473 
Q 1284 391 1588 391 
Q 1994 391 2212 530 
Q 2431 669 2431 922 
Q 2431 1156 2273 1281 
Q 2116 1406 1581 1522 
L 1381 1569 
Q 847 1681 609 1914 
Q 372 2147 372 2553 
Q 372 3047 722 3315 
Q 1072 3584 1716 3584 
Q 2034 3584 2315 3537 
Q 2597 3491 2834 3397 
z
" id="DejaVuSans-73" transform="scale(0.015625)"/>
       <path d="M 1959 3097 
Q 1497 3097 1228 2736 
Q 959 2375 959 1747 
Q 959 1119 1226 758 
Q 1494 397 1959 397 
Q 2419 397 2687 759 
Q 2956 1122 2956 1747 
Q 2956 2369 2687 2733 
Q 2419 3097 1959 3097 
z
M 1959 3584 
Q 2709 3584 3137 3096 
Q 3566 2609 3566 1747 
Q 3566 888 3137 398 
Q 2709 -91 1959 -91 
Q 1206 -91 779 398 
Q 353 888 353 1747 
Q 353 2609 779 3096 
Q 1206 3584 1959 3584 
z
" id="DejaVuSans-6f" transform="scale(0.015625)"/>
       <path d="M 2906 2969 
L 2906 4863 
L 3481 4863 
L 3481 0 
L 2906 0 
L 2906 525 
Q 2725 213 2448 61 
Q 2172 -91 1784 -91 
Q 1150 -91 751 415 
Q 353 922 353 1747 
Q 353 2572 751 3078 
Q 1150 3584 1784 3584 
Q 2172 3584 2448 3432 
Q 2725 3281 2906 2969 
z
M 947 1747 
Q 947 1113 1208 752 
Q 1469 391 1925 391 
Q 2381 391 2643 752 
Q 2906 1113 2906 1747 
Q 2906 2381 2643 2742 
Q 2381 3103 1925 3103 
Q 1469 3103 1208 2742 
Q 947 2381 947 1747 
z
" id="DejaVuSans-64" transform="scale(0.015625)"/>
       <path d="M 3597 1894 
L 3597 1613 
L 953 1613 
Q 991 1019 1311 708 
Q 1631 397 2203 397 
Q 2534 397 2845 478 
Q 3156 559 3463 722 
L 3463 178 
Q 3153 47 2828 -22 
Q 2503 -91 2169 -91 
Q 1331 -91 842 396 
Q 353 884 353 1716 
Q 353 2575 817 3079 
Q 1281 3584 2069 3584 
Q 2775 3584 3186 3129 
Q 3597 2675 3597 1894 
z
M 3022 2063 
Q 3016 2534 2758 2815 
Q 2500 3097 2075 3097 
Q 1594 3097 1305 2825 
Q 1016 2553 972 2059 
L 3022 2063 
z
" id="DejaVuSans-65" transform="scale(0.015625)"/>
      </defs>
      <use xlink:href="#DejaVuSans-45"/>
      <use x="63.183594" xlink:href="#DejaVuSans-70"/>
      <use x="126.660156" xlink:href="#DejaVuSans-69"/>
      <use x="154.443359" xlink:href="#DejaVuSans-73"/>
      <use x="206.542969" xlink:href="#DejaVuSans-6f"/>
      <use x="267.724609" xlink:href="#DejaVuSans-64"/>
      <use x="331.201172" xlink:href="#DejaVuSans-65"/>
      <use x="392.724609" xlink:href="#DejaVuSans-73"/>
     </g>
    </g>
   </g>
   <g id="matplotlib.axis_2">
    <g id="ytick_1">
     <g id="line2d_15">
      <path clip-path="url(#pdd1b34f381)" d="M 57.6 290.252601 
L 414.72 290.252601 
" style="fill:none;stroke:#b0b0b0;stroke-linecap:square;stroke-width:0.8;"/>
     </g>
     <g id="line2d_16">
      <defs>
       <path d="M 0 0 
L -3.5 0 
" id="m48c49c94ad" style="stroke:#000000;stroke-width:0.8;"/>
      </defs>
      <g>
       <use style="stroke:#000000;stroke-width:0.8;" x="57.6" xlink:href="#m48c49c94ad" y="290.252601"/>
      </g>
     </g>
     <g id="text_9">
      <!-- −1.2 -->
      <g transform="translate(26.317187 294.05182)scale(0.1 -0.1)">
       <defs>
        <path d="M 678 2272 
L 4684 2272 
L 4684 1741 
L 678 1741 
L 678 2272 
z
" id="DejaVuSans-2212" transform="scale(0.015625)"/>
        <path d="M 684 794 
L 1344 794 
L 1344 0 
L 684 0 
L 684 794 
z
" id="DejaVuSans-2e" transform="scale(0.015625)"/>
       </defs>
       <use xlink:href="#DejaVuSans-2212"/>
       <use x="83.789062" xlink:href="#DejaVuSans-31"/>
       <use x="147.412109" xlink:href="#DejaVuSans-2e"/>
       <use x="179.199219" xlink:href="#DejaVuSans-32"/>
      </g>
     </g>
    </g>
    <g id="ytick_2">
     <g id="line2d_17">
      <path clip-path="url(#pdd1b34f381)" d="M 57.6 252.372078 
L 414.72 252.372078 
" style="fill:none;stroke:#b0b0b0;stroke-linecap:square;stroke-width:0.8;"/>
     </g>
     <g id="line2d_18">
      <g>
       <use style="stroke:#000000;stroke-width:0.8;" x="57.6" xlink:href="#m48c49c94ad" y="252.372078"/>
      </g>
     </g>
     <g id="text_10">
      <!-- −1.0 -->
      <g transform="translate(26.317187 256.171297)scale(0.1 -0.1)">
       <use xlink:href="#DejaVuSans-2212"/>
       <use x="83.789062" xlink:href="#DejaVuSans-31"/>
       <use x="147.412109" xlink:href="#DejaVuSans-2e"/>
       <use x="179.199219" xlink:href="#DejaVuSans-30"/>
      </g>
     </g>
    </g>
    <g id="ytick_3">
     <g id="line2d_19">
      <path clip-path="url(#pdd1b34f381)" d="M 57.6 214.491556 
L 414.72 214.491556 
" style="fill:none;stroke:#b0b0b0;stroke-linecap:square;stroke-width:0.8;"/>
     </g>
     <g id="line2d_20">
      <g>
       <use style="stroke:#000000;stroke-width:0.8;" x="57.6" xlink:href="#m48c49c94ad" y="214.491556"/>
      </g>
     </g>
     <g id="text_11">
      <!-- −0.8 -->
      <g transform="translate(26.317187 218.290775)scale(0.1 -0.1)">
       <defs>
        <path d="M 2034 2216 
Q 1584 2216 1326 1975 
Q 1069 1734 1069 1313 
Q 1069 891 1326 650 
Q 1584 409 2034 409 
Q 2484 409 2743 651 
Q 3003 894 3003 1313 
Q 3003 1734 2745 1975 
Q 2488 2216 2034 2216 
z
M 1403 2484 
Q 997 2584 770 2862 
Q 544 3141 544 3541 
Q 544 4100 942 4425 
Q 1341 4750 2034 4750 
Q 2731 4750 3128 4425 
Q 3525 4100 3525 3541 
Q 3525 3141 3298 2862 
Q 3072 2584 2669 2484 
Q 3125 2378 3379 2068 
Q 3634 1759 3634 1313 
Q 3634 634 3220 271 
Q 2806 -91 2034 -91 
Q 1263 -91 848 271 
Q 434 634 434 1313 
Q 434 1759 690 2068 
Q 947 2378 1403 2484 
z
M 1172 3481 
Q 1172 3119 1398 2916 
Q 1625 2713 2034 2713 
Q 2441 2713 2670 2916 
Q 2900 3119 2900 3481 
Q 2900 3844 2670 4047 
Q 2441 4250 2034 4250 
Q 1625 4250 1398 4047 
Q 1172 3844 1172 3481 
z
" id="DejaVuSans-38" transform="scale(0.015625)"/>
       </defs>
       <use xlink:href="#DejaVuSans-2212"/>
       <use x="83.789062" xlink:href="#DejaVuSans-30"/>
       <use x="147.412109" xlink:href="#DejaVuSans-2e"/>
       <use x="179.199219" xlink:href="#DejaVuSans-38"/>
      </g>
     </g>
    </g>
    <g id="ytick_4">
     <g id="line2d_21">
      <path clip-path="url(#pdd1b34f381)" d="M 57.6 176.611033 
L 414.72 176.611033 
" style="fill:none;stroke:#b0b0b0;stroke-linecap:square;stroke-width:0.8;"/>
     </g>
     <g id="line2d_22">
      <g>
       <use style="stroke:#000000;stroke-width:0.8;" x="57.6" xlink:href="#m48c49c94ad" y="176.611033"/>
      </g>
     </g>
     <g id="text_12">
      <!-- −0.6 -->
      <g transform="translate(26.317187 180.410252)scale(0.1 -0.1)">
       <defs>
        <path d="M 2113 2584 
Q 1688 2584 1439 2293 
Q 1191 2003 1191 1497 
Q 1191 994 1439 701 
Q 1688 409 2113 409 
Q 2538 409 2786 701 
Q 3034 994 3034 1497 
Q 3034 2003 2786 2293 
Q 2538 2584 2113 2584 
z
M 3366 4563 
L 3366 3988 
Q 3128 4100 2886 4159 
Q 2644 4219 2406 4219 
Q 1781 4219 1451 3797 
Q 1122 3375 1075 2522 
Q 1259 2794 1537 2939 
Q 1816 3084 2150 3084 
Q 2853 3084 3261 2657 
Q 3669 2231 3669 1497 
Q 3669 778 3244 343 
Q 2819 -91 2113 -91 
Q 1303 -91 875 529 
Q 447 1150 447 2328 
Q 447 3434 972 4092 
Q 1497 4750 2381 4750 
Q 2619 4750 2861 4703 
Q 3103 4656 3366 4563 
z
" id="DejaVuSans-36" transform="scale(0.015625)"/>
       </defs>
       <use xlink:href="#DejaVuSans-2212"/>
       <use x="83.789062" xlink:href="#DejaVuSans-30"/>
       <use x="147.412109" xlink:href="#DejaVuSans-2e"/>
       <use x="179.199219" xlink:href="#DejaVuSans-36"/>
      </g>
     </g>
    </g>
    <g id="ytick_5">
     <g id="line2d_23">
      <path clip-path="url(#pdd1b34f381)" d="M 57.6 138.730511 
L 414.72 138.730511 
" style="fill:none;stroke:#b0b0b0;stroke-linecap:square;stroke-width:0.8;"/>
     </g>
     <g id="line2d_24">
      <g>
       <use style="stroke:#000000;stroke-width:0.8;" x="57.6" xlink:href="#m48c49c94ad" y="138.730511"/>
      </g>
     </g>
     <g id="text_13">
      <!-- −0.4 -->
      <g transform="translate(26.317187 142.529729)scale(0.1 -0.1)">
       <defs>
        <path d="M 2419 4116 
L 825 1625 
L 2419 1625 
L 2419 4116 
z
M 2253 4666 
L 3047 4666 
L 3047 1625 
L 3713 1625 
L 3713 1100 
L 3047 1100 
L 3047 0 
L 2419 0 
L 2419 1100 
L 313 1100 
L 313 1709 
L 2253 4666 
z
" id="DejaVuSans-34" transform="scale(0.015625)"/>
       </defs>
       <use xlink:href="#DejaVuSans-2212"/>
       <use x="83.789062" xlink:href="#DejaVuSans-30"/>
       <use x="147.412109" xlink:href="#DejaVuSans-2e"/>
       <use x="179.199219" xlink:href="#DejaVuSans-34"/>
      </g>
     </g>
    </g>
    <g id="ytick_6">
     <g id="line2d_25">
      <path clip-path="url(#pdd1b34f381)" d="M 57.6 100.849988 
L 414.72 100.849988 
" style="fill:none;stroke:#b0b0b0;stroke-linecap:square;stroke-width:0.8;"/>
     </g>
     <g id="line2d_26">
      <g>
       <use style="stroke:#000000;stroke-width:0.8;" x="57.6" xlink:href="#m48c49c94ad" y="100.849988"/>
      </g>
     </g>
     <g id="text_14">
      <!-- −0.2 -->
      <g transform="translate(26.317187 104.649207)scale(0.1 -0.1)">
       <use xlink:href="#DejaVuSans-2212"/>
       <use x="83.789062" xlink:href="#DejaVuSans-30"/>
       <use x="147.412109" xlink:href="#DejaVuSans-2e"/>
       <use x="179.199219" xlink:href="#DejaVuSans-32"/>
      </g>
     </g>
    </g>
    <g id="ytick_7">
     <g id="line2d_27">
      <path clip-path="url(#pdd1b34f381)" d="M 57.6 62.969466 
L 414.72 62.969466 
" style="fill:none;stroke:#b0b0b0;stroke-linecap:square;stroke-width:0.8;"/>
     </g>
     <g id="line2d_28">
      <g>
       <use style="stroke:#000000;stroke-width:0.8;" x="57.6" xlink:href="#m48c49c94ad" y="62.969466"/>
      </g>
     </g>
     <g id="text_15">
      <!-- 0.0 -->
      <g transform="translate(34.696875 66.768684)scale(0.1 -0.1)">
       <use xlink:href="#DejaVuSans-30"/>
       <use x="63.623047" xlink:href="#DejaVuSans-2e"/>
       <use x="95.410156" xlink:href="#DejaVuSans-30"/>
      </g>
     </g>
    </g>
    <g id="text_16">
     <!-- Cumulative Reward -->
     <g transform="translate(20.2375 223.275656)rotate(-90)scale(0.1 -0.1)">
      <defs>
       <path d="M 4122 4306 
L 4122 3641 
Q 3803 3938 3442 4084 
Q 3081 4231 2675 4231 
Q 1875 4231 1450 3742 
Q 1025 3253 1025 2328 
Q 1025 1406 1450 917 
Q 1875 428 2675 428 
Q 3081 428 3442 575 
Q 3803 722 4122 1019 
L 4122 359 
Q 3791 134 3420 21 
Q 3050 -91 2638 -91 
Q 1578 -91 968 557 
Q 359 1206 359 2328 
Q 359 3453 968 4101 
Q 1578 4750 2638 4750 
Q 3056 4750 3426 4639 
Q 3797 4528 4122 4306 
z
" id="DejaVuSans-43" transform="scale(0.015625)"/>
       <path d="M 544 1381 
L 544 3500 
L 1119 3500 
L 1119 1403 
Q 1119 906 1312 657 
Q 1506 409 1894 409 
Q 2359 409 2629 706 
Q 2900 1003 2900 1516 
L 2900 3500 
L 3475 3500 
L 3475 0 
L 2900 0 
L 2900 538 
Q 2691 219 2414 64 
Q 2138 -91 1772 -91 
Q 1169 -91 856 284 
Q 544 659 544 1381 
z
M 1991 3584 
L 1991 3584 
z
" id="DejaVuSans-75" transform="scale(0.015625)"/>
       <path d="M 3328 2828 
Q 3544 3216 3844 3400 
Q 4144 3584 4550 3584 
Q 5097 3584 5394 3201 
Q 5691 2819 5691 2113 
L 5691 0 
L 5113 0 
L 5113 2094 
Q 5113 2597 4934 2840 
Q 4756 3084 4391 3084 
Q 3944 3084 3684 2787 
Q 3425 2491 3425 1978 
L 3425 0 
L 2847 0 
L 2847 2094 
Q 2847 2600 2669 2842 
Q 2491 3084 2119 3084 
Q 1678 3084 1418 2786 
Q 1159 2488 1159 1978 
L 1159 0 
L 581 0 
L 581 3500 
L 1159 3500 
L 1159 2956 
Q 1356 3278 1631 3431 
Q 1906 3584 2284 3584 
Q 2666 3584 2933 3390 
Q 3200 3197 3328 2828 
z
" id="DejaVuSans-6d" transform="scale(0.015625)"/>
       <path d="M 603 4863 
L 1178 4863 
L 1178 0 
L 603 0 
L 603 4863 
z
" id="DejaVuSans-6c" transform="scale(0.015625)"/>
       <path d="M 2194 1759 
Q 1497 1759 1228 1600 
Q 959 1441 959 1056 
Q 959 750 1161 570 
Q 1363 391 1709 391 
Q 2188 391 2477 730 
Q 2766 1069 2766 1631 
L 2766 1759 
L 2194 1759 
z
M 3341 1997 
L 3341 0 
L 2766 0 
L 2766 531 
Q 2569 213 2275 61 
Q 1981 -91 1556 -91 
Q 1019 -91 701 211 
Q 384 513 384 1019 
Q 384 1609 779 1909 
Q 1175 2209 1959 2209 
L 2766 2209 
L 2766 2266 
Q 2766 2663 2505 2880 
Q 2244 3097 1772 3097 
Q 1472 3097 1187 3025 
Q 903 2953 641 2809 
L 641 3341 
Q 956 3463 1253 3523 
Q 1550 3584 1831 3584 
Q 2591 3584 2966 3190 
Q 3341 2797 3341 1997 
z
" id="DejaVuSans-61" transform="scale(0.015625)"/>
       <path d="M 1172 4494 
L 1172 3500 
L 2356 3500 
L 2356 3053 
L 1172 3053 
L 1172 1153 
Q 1172 725 1289 603 
Q 1406 481 1766 481 
L 2356 481 
L 2356 0 
L 1766 0 
Q 1100 0 847 248 
Q 594 497 594 1153 
L 594 3053 
L 172 3053 
L 172 3500 
L 594 3500 
L 594 4494 
L 1172 4494 
z
" id="DejaVuSans-74" transform="scale(0.015625)"/>
       <path d="M 191 3500 
L 800 3500 
L 1894 563 
L 2988 3500 
L 3597 3500 
L 2284 0 
L 1503 0 
L 191 3500 
z
" id="DejaVuSans-76" transform="scale(0.015625)"/>
       <path id="DejaVuSans-20" transform="scale(0.015625)"/>
       <path d="M 2841 2188 
Q 3044 2119 3236 1894 
Q 3428 1669 3622 1275 
L 4263 0 
L 3584 0 
L 2988 1197 
Q 2756 1666 2539 1819 
Q 2322 1972 1947 1972 
L 1259 1972 
L 1259 0 
L 628 0 
L 628 4666 
L 2053 4666 
Q 2853 4666 3247 4331 
Q 3641 3997 3641 3322 
Q 3641 2881 3436 2590 
Q 3231 2300 2841 2188 
z
M 1259 4147 
L 1259 2491 
L 2053 2491 
Q 2509 2491 2742 2702 
Q 2975 2913 2975 3322 
Q 2975 3731 2742 3939 
Q 2509 4147 2053 4147 
L 1259 4147 
z
" id="DejaVuSans-52" transform="scale(0.015625)"/>
       <path d="M 269 3500 
L 844 3500 
L 1563 769 
L 2278 3500 
L 2956 3500 
L 3675 769 
L 4391 3500 
L 4966 3500 
L 4050 0 
L 3372 0 
L 2619 2869 
L 1863 0 
L 1184 0 
L 269 3500 
z
" id="DejaVuSans-77" transform="scale(0.015625)"/>
       <path d="M 2631 2963 
Q 2534 3019 2420 3045 
Q 2306 3072 2169 3072 
Q 1681 3072 1420 2755 
Q 1159 2438 1159 1844 
L 1159 0 
L 581 0 
L 581 3500 
L 1159 3500 
L 1159 2956 
Q 1341 3275 1631 3429 
Q 1922 3584 2338 3584 
Q 2397 3584 2469 3576 
Q 2541 3569 2628 3553 
L 2631 2963 
z
" id="DejaVuSans-72" transform="scale(0.015625)"/>
      </defs>
      <use xlink:href="#DejaVuSans-43"/>
      <use x="69.824219" xlink:href="#DejaVuSans-75"/>
      <use x="133.203125" xlink:href="#DejaVuSans-6d"/>
      <use x="230.615234" xlink:href="#DejaVuSans-75"/>
      <use x="293.994141" xlink:href="#DejaVuSans-6c"/>
      <use x="321.777344" xlink:href="#DejaVuSans-61"/>
      <use x="383.056641" xlink:href="#DejaVuSans-74"/>
      <use x="422.265625" xlink:href="#DejaVuSans-69"/>
      <use x="450.048828" xlink:href="#DejaVuSans-76"/>
      <use x="509.228516" xlink:href="#DejaVuSans-65"/>
      <use x="570.751953" xlink:href="#DejaVuSans-20"/>
      <use x="602.539062" xlink:href="#DejaVuSans-52"/>
      <use x="667.521484" xlink:href="#DejaVuSans-65"/>
      <use x="729.044922" xlink:href="#DejaVuSans-77"/>
      <use x="810.832031" xlink:href="#DejaVuSans-61"/>
      <use x="872.111328" xlink:href="#DejaVuSans-72"/>
      <use x="911.474609" xlink:href="#DejaVuSans-64"/>
     </g>
    </g>
    <g id="text_17">
     <!-- 1e6 -->
     <g transform="translate(57.6 38.472)scale(0.1 -0.1)">
      <use xlink:href="#DejaVuSans-31"/>
      <use x="63.623047" xlink:href="#DejaVuSans-65"/>
      <use x="125.146484" xlink:href="#DejaVuSans-36"/>
     </g>
    </g>
   </g>
   <g id="line2d_29">
    <path clip-path="url(#pdd1b34f381)" d="M 57.6 140.074006 
L 57.71904 154.041006 
L 57.83808 225.995532 
L 58.07616 140.074006 
L 58.1952 154.041006 
L 58.31424 225.995532 
L 58.55232 140.074006 
L 58.67136 154.041006 
L 58.7904 225.995532 
L 59.02848 140.074006 
L 59.14752 154.041006 
L 59.26656 225.995532 
L 59.50464 140.074006 
L 59.62368 154.041006 
L 59.74272 225.995532 
L 59.9808 140.074006 
L 60.09984 154.041006 
L 60.21888 225.995532 
L 60.45696 140.074006 
L 60.576 154.041006 
L 60.69504 225.995532 
L 60.93312 140.074006 
L 61.05216 154.041006 
L 61.1712 225.995532 
L 61.40928 140.074006 
L 61.52832 154.041006 
L 61.64736 225.995532 
L 61.88544 140.074006 
L 62.00448 154.041006 
L 62.12352 225.995532 
L 62.3616 140.074006 
L 62.48064 154.041006 
L 62.59968 225.995532 
L 62.83776 140.074006 
L 62.9568 154.041006 
L 63.07584 225.995532 
L 63.31392 140.074006 
L 63.43296 154.041006 
L 63.552 225.995532 
L 63.79008 140.074006 
L 63.90912 154.041006 
L 64.02816 225.995532 
L 64.26624 140.074006 
L 64.38528 154.041006 
L 64.50432 225.995532 
L 64.7424 140.074006 
L 64.86144 154.041006 
L 64.98048 225.995532 
L 65.21856 140.074006 
L 65.3376 154.041006 
L 65.45664 225.995532 
L 65.69472 140.074006 
L 65.81376 154.041006 
L 65.9328 225.995532 
L 66.17088 140.074006 
L 66.28992 154.041006 
L 66.40896 225.995532 
L 66.64704 140.074006 
L 66.76608 154.041006 
L 66.88512 225.995532 
L 67.1232 140.074006 
L 67.24224 154.041006 
L 67.36128 225.995532 
L 67.59936 140.074006 
L 67.7184 154.041006 
L 67.83744 225.995532 
L 68.07552 140.074006 
L 68.19456 154.041006 
L 68.3136 225.995532 
L 68.55168 140.074006 
L 68.67072 154.041006 
L 68.78976 225.995532 
L 69.02784 140.074006 
L 69.14688 154.041006 
L 69.26592 225.995532 
L 69.504 156.0114 
L 69.86112 236.409366 
L 69.98016 149.922501 
L 70.0992 149.88354 
L 70.21824 214.206833 
L 70.33728 142.703081 
L 70.45632 192.068032 
L 70.57536 193.141636 
L 70.6944 176.194132 
L 70.81344 187.862938 
L 70.93248 176.80967 
L 71.05152 215.353426 
L 71.40864 120.984085 
L 71.52768 212.949808 
L 71.64672 196.410918 
L 71.76576 156.42281 
L 72.00384 217.074831 
L 72.12288 147.813241 
L 72.24192 156.60756 
L 72.36096 134.010596 
L 72.48 151.104947 
L 72.59904 84.742141 
L 72.71808 157.930247 
L 72.83712 138.643155 
L 72.95616 147.979162 
L 73.19424 111.670228 
L 73.31328 112.174814 
L 73.43232 141.93064 
L 73.55136 117.682081 
L 73.6704 157.387217 
L 73.78944 155.79342 
L 73.90848 128.432378 
L 74.02752 129.182934 
L 74.14656 141.855786 
L 74.2656 181.342386 
L 74.38464 116.466302 
L 74.50368 172.04275 
L 74.62272 153.342139 
L 74.74176 90.175671 
L 74.97984 112.601333 
L 75.09888 285.408 
L 75.33696 132.634876 
L 75.456 105.436627 
L 75.57504 108.512975 
L 75.69408 125.387244 
L 75.81312 113.699659 
L 75.93216 171.464824 
L 76.17024 89.080059 
L 76.28928 117.497418 
L 76.40832 112.517691 
L 76.52736 133.577938 
L 76.6464 111.164157 
L 76.76544 122.448461 
L 76.88448 97.461575 
L 77.00352 136.060864 
L 77.12256 118.025196 
L 77.2416 120.291191 
L 77.36064 95.624855 
L 77.47968 105.798609 
L 77.59872 130.694678 
L 77.71776 79.727807 
L 77.8368 199.169434 
L 78.07488 100.098831 
L 78.432 134.466379 
L 78.67008 83.912229 
L 78.78912 96.09674 
L 78.90816 96.055583 
L 79.0272 108.531909 
L 79.14624 81.966587 
L 79.26528 84.687216 
L 79.38432 126.131978 
L 79.50336 82.31658 
L 79.6224 151.706093 
L 79.74144 99.053325 
L 79.86048 103.863317 
L 80.09856 76.175681 
L 80.2176 106.703857 
L 80.45568 81.659918 
L 80.57472 71.67895 
L 80.69376 93.822588 
L 80.8128 79.903398 
L 81.16992 102.078111 
L 81.408 79.230015 
L 81.52704 107.221347 
L 81.88416 70.710202 
L 82.0032 83.806844 
L 82.12224 84.305789 
L 82.24128 80.021136 
L 82.47936 91.877404 
L 82.5984 84.506899 
L 82.71744 97.966411 
L 82.83648 94.949064 
L 82.95552 74.594027 
L 83.07456 88.354773 
L 83.1936 88.476824 
L 83.31264 74.997529 
L 83.55072 82.619591 
L 83.66976 74.644018 
L 83.7888 99.906358 
L 84.02688 71.023547 
L 84.14592 73.649043 
L 84.26496 95.216196 
L 84.384 78.831599 
L 84.50304 80.183396 
L 84.62208 92.579346 
L 84.86016 76.722667 
L 84.9792 78.835667 
L 85.09824 86.903442 
L 85.21728 151.729594 
L 85.33632 85.593134 
L 85.45536 120.572246 
L 85.69344 74.066299 
L 85.81248 94.041832 
L 86.05056 77.574305 
L 86.1696 70.413564 
L 86.28864 79.369576 
L 86.40768 73.64523 
L 86.52672 105.116825 
L 86.64576 66.329358 
L 86.88384 81.956782 
L 87.00288 72.807507 
L 87.12192 90.833042 
L 87.24096 85.713938 
L 87.36 71.65293 
L 87.47904 94.378048 
L 87.83616 69.19776 
L 87.9552 75.49124 
L 88.07424 71.469351 
L 88.19328 80.710182 
L 88.31232 110.991442 
L 88.43136 80.659618 
L 88.5504 80.65762 
L 88.66944 78.456985 
L 88.78848 70.038401 
L 88.90752 69.621468 
L 89.02656 90.593404 
L 89.1456 69.160241 
L 89.26464 76.251278 
L 89.38368 73.202175 
L 89.62176 86.3098 
L 89.85984 75.923566 
L 89.97888 75.18303 
L 90.21696 101.680284 
L 90.336 81.090282 
L 90.45504 103.457492 
L 90.57408 73.881377 
L 90.69312 99.471266 
L 90.81216 78.083487 
L 90.9312 101.14814 
L 91.05024 94.929823 
L 91.28832 76.244921 
L 91.40736 66.883765 
L 91.5264 90.57083 
L 91.64544 85.350182 
L 91.76448 69.635563 
L 92.00256 101.072167 
L 92.1216 77.590713 
L 92.24064 77.970514 
L 92.35968 71.081917 
L 92.47872 75.276012 
L 92.59776 89.739432 
L 92.7168 70.651113 
L 92.83584 80.851368 
L 92.95488 67.45792 
L 93.19296 88.010963 
L 93.312 74.297144 
L 93.43104 74.536932 
L 93.66912 90.941735 
L 93.78816 66.977447 
L 93.9072 80.925925 
L 94.02624 108.876917 
L 94.14528 83.12294 
L 94.26432 107.631346 
L 94.5024 72.932908 
L 94.62144 72.731617 
L 94.74048 74.803298 
L 94.85952 67.091457 
L 95.0976 71.469419 
L 95.21664 69.832942 
L 95.45472 103.567782 
L 95.57376 100.15075 
L 95.81184 71.262834 
L 95.93088 94.032262 
L 96.16896 72.244677 
L 96.288 82.36941 
L 96.40704 68.419395 
L 96.64512 86.543159 
L 96.76416 85.019298 
L 96.8832 72.996248 
L 97.12128 78.484241 
L 97.24032 70.99325 
L 97.35936 78.684432 
L 97.71648 66.626624 
L 97.83552 108.770326 
L 98.0736 72.018197 
L 98.19264 82.297429 
L 98.31168 78.937738 
L 98.43072 106.650351 
L 98.6688 67.9767 
L 98.78784 74.881896 
L 98.90688 67.276527 
L 99.02592 66.937879 
L 99.14496 78.923766 
L 99.38304 77.589095 
L 99.50208 97.120027 
L 99.62112 70.635458 
L 99.74016 111.815258 
L 99.97824 69.672056 
L 100.09728 85.688726 
L 100.21632 67.7027 
L 100.33536 75.245776 
L 100.4544 71.254684 
L 100.57344 89.894624 
L 100.81152 72.139129 
L 100.93056 77.64269 
L 101.0496 67.020702 
L 101.16864 104.212461 
L 101.28768 71.436212 
L 101.52576 69.218452 
L 101.6448 74.45219 
L 101.76384 85.905304 
L 101.88288 77.834117 
L 102.00192 80.733195 
L 102.12096 70.550656 
L 102.24 88.28718 
L 102.47808 65.207525 
L 102.71616 82.33413 
L 102.8352 67.204818 
L 102.95424 86.237563 
L 103.07328 70.394074 
L 103.19232 80.722104 
L 103.4304 68.632249 
L 103.66848 79.689957 
L 103.78752 67.593894 
L 103.90656 97.975108 
L 104.0256 81.102264 
L 104.14464 87.466957 
L 104.26368 67.058934 
L 104.38272 95.714901 
L 104.6208 67.12545 
L 104.73984 74.99937 
L 104.85888 66.491897 
L 104.97792 71.425514 
L 105.09696 70.695752 
L 105.216 65.583072 
L 105.33504 65.724402 
L 105.45408 75.411553 
L 105.69216 70.37989 
L 105.8112 69.841806 
L 105.93024 86.533494 
L 106.16832 67.380697 
L 106.4064 86.16242 
L 106.52544 68.583023 
L 106.64448 72.959701 
L 106.76352 84.097152 
L 107.0016 64.425521 
L 107.12064 74.878495 
L 107.35872 66.719726 
L 107.47776 79.961897 
L 107.5968 75.874212 
L 107.71584 79.103664 
L 107.83488 96.483931 
L 107.95392 71.017879 
L 108.31104 77.688012 
L 108.43008 74.34469 
L 108.66816 110.089033 
L 108.90624 65.569393 
L 109.02528 65.261991 
L 109.26336 73.137316 
L 109.3824 66.602267 
L 109.50144 71.512543 
L 109.62048 68.38795 
L 109.85856 75.534563 
L 109.9776 67.212726 
L 110.09664 126.331285 
L 110.21568 67.917486 
L 110.33472 74.829622 
L 110.5728 66.606893 
L 110.69184 77.399844 
L 110.81088 65.958539 
L 110.92992 66.266976 
L 111.04896 64.399941 
L 111.168 72.093478 
L 111.28704 70.515521 
L 111.40608 72.075831 
L 111.64416 64.07073 
L 111.88224 71.476979 
L 112.00128 64.213372 
L 112.12032 74.575621 
L 112.23936 65.288629 
L 112.59648 82.957229 
L 112.83456 67.358999 
L 112.9536 78.893776 
L 113.19168 67.628295 
L 113.31072 67.593763 
L 113.42976 95.418508 
L 113.5488 66.765921 
L 113.78688 65.003219 
L 113.90592 71.070203 
L 114.02496 71.191965 
L 114.144 75.186301 
L 114.26304 71.978514 
L 114.38208 65.463838 
L 114.50112 73.794617 
L 114.62016 64.480295 
L 114.7392 84.947245 
L 114.85824 69.312696 
L 114.97728 72.524278 
L 115.09632 66.062594 
L 115.3344 76.994592 
L 115.45344 67.251417 
L 115.57248 68.789741 
L 115.69152 76.979845 
L 115.81056 68.925022 
L 115.9296 70.122458 
L 116.04864 73.473476 
L 116.16768 115.957107 
L 116.28672 66.741525 
L 116.40576 78.530736 
L 116.5248 67.692554 
L 116.64384 74.329316 
L 116.76288 66.809364 
L 116.88192 78.723516 
L 117.00096 63.903834 
L 117.12 88.294133 
L 117.23904 65.749331 
L 117.35808 65.226563 
L 117.47712 66.601874 
L 117.7152 72.515932 
L 117.95328 65.132725 
L 118.07232 76.030358 
L 118.19136 68.049902 
L 118.3104 73.936467 
L 118.42944 70.588015 
L 118.54848 70.579924 
L 118.66752 75.128025 
L 118.78656 66.032467 
L 118.9056 71.699742 
L 119.02464 65.136526 
L 119.14368 70.622285 
L 119.26272 68.214694 
L 119.5008 73.557248 
L 119.61984 99.347075 
L 119.85792 69.719545 
L 119.97696 69.823557 
L 120.33408 77.920548 
L 120.45312 95.726656 
L 120.57216 69.392435 
L 120.6912 80.213187 
L 120.81024 66.66 
L 120.92928 74.089955 
L 121.04832 68.183322 
L 121.16736 69.178333 
L 121.2864 73.874851 
L 121.40544 88.629969 
L 121.52448 75.667255 
L 121.64352 76.392178 
L 121.76256 73.898737 
L 121.8816 74.475184 
L 122.00064 104.50446 
L 122.11968 80.793692 
L 122.23872 82.817783 
L 122.35776 101.226123 
L 122.4768 76.076044 
L 122.59584 81.884192 
L 122.83392 73.751468 
L 122.95296 70.721514 
L 123.072 70.805947 
L 123.19104 82.715449 
L 123.42912 66.298744 
L 123.54816 68.118087 
L 123.6672 67.396451 
L 123.78624 70.328369 
L 123.90528 78.181075 
L 124.02432 66.817161 
L 124.14336 70.306882 
L 124.38144 65.792266 
L 124.50048 68.498399 
L 124.61952 67.144939 
L 124.73856 93.815579 
L 124.97664 70.055991 
L 125.09568 71.378246 
L 125.21472 107.517764 
L 125.33376 76.348125 
L 125.4528 80.325321 
L 125.57184 75.432262 
L 125.69088 99.144458 
L 125.80992 70.788023 
L 125.92896 82.7757 
L 126.048 68.146469 
L 126.16704 68.661697 
L 126.28608 71.070098 
L 126.40512 137.598899 
L 126.52416 73.768073 
L 126.6432 70.125393 
L 126.76224 74.441541 
L 127.00032 97.109201 
L 127.11936 69.63312 
L 127.2384 72.503606 
L 127.35744 70.500373 
L 127.47648 76.814579 
L 127.59552 65.758627 
L 127.71456 111.913077 
L 127.8336 66.686353 
L 128.07168 73.895521 
L 128.30976 68.73928 
L 128.4288 76.131404 
L 128.54784 74.663938 
L 128.66688 65.955854 
L 128.78592 76.708395 
L 128.90496 71.259583 
L 129.024 75.552424 
L 129.14304 68.262449 
L 129.26208 84.675485 
L 129.6192 68.027166 
L 129.73824 83.985531 
L 129.97632 69.601377 
L 130.09536 72.169796 
L 130.2144 66.117335 
L 130.33344 88.431129 
L 130.57152 77.860434 
L 130.69056 89.471684 
L 130.8096 67.95559 
L 130.92864 84.392732 
L 131.04768 72.98061 
L 131.28576 79.879476 
L 131.52384 65.971616 
L 131.88096 80.479448 
L 132 67.358933 
L 132.11904 79.298749 
L 132.23808 67.688072 
L 132.35712 69.622228 
L 132.5952 65.709679 
L 132.83328 73.384486 
L 132.95232 68.718667 
L 133.1904 89.45418 
L 133.30944 73.392571 
L 133.42848 75.335952 
L 133.54752 69.114496 
L 133.66656 68.837003 
L 133.90464 85.647556 
L 134.3808 65.82441 
L 134.49984 75.658627 
L 134.61888 68.398284 
L 134.73792 73.352232 
L 134.85696 70.565236 
L 134.976 70.825491 
L 135.33312 67.284974 
L 135.45216 68.192824 
L 135.5712 65.773379 
L 135.69024 70.606383 
L 135.80928 69.542168 
L 135.92832 80.374029 
L 136.1664 67.167489 
L 136.28544 73.337722 
L 136.40448 66.629932 
L 136.52352 69.260613 
L 136.64256 67.017306 
L 136.7616 93.090407 
L 136.88064 66.670266 
L 136.99968 68.501695 
L 137.23776 67.53848 
L 137.3568 73.734298 
L 137.47584 73.40934 
L 137.71392 68.126304 
L 137.83296 75.465772 
L 137.952 71.213242 
L 138.07104 72.665587 
L 138.19008 80.310914 
L 138.30912 68.027645 
L 138.42816 72.61772 
L 138.5472 70.835511 
L 138.78528 72.371198 
L 139.02336 69.30351 
L 139.1424 74.893964 
L 139.26144 88.148269 
L 139.38048 65.102964 
L 139.49952 78.947363 
L 139.61856 64.058373 
L 139.7376 78.963658 
L 139.85664 71.513898 
L 139.97568 88.702041 
L 140.09472 67.232396 
L 140.21376 67.293865 
L 140.3328 68.109974 
L 140.45184 67.45222 
L 140.57088 65.958267 
L 140.68992 93.260998 
L 141.04704 69.881663 
L 141.16608 76.441013 
L 141.28512 65.763903 
L 141.40416 67.578348 
L 141.64224 80.327517 
L 141.76128 75.064147 
L 141.88032 64.885089 
L 141.99936 68.361972 
L 142.1184 80.973954 
L 142.23744 81.215603 
L 142.35648 65.483389 
L 142.47552 72.409068 
L 142.59456 66.059377 
L 142.7136 70.014704 
L 142.83264 78.434675 
L 142.95168 66.73261 
L 143.18976 91.525876 
L 143.42784 70.637301 
L 143.54688 68.623936 
L 143.66592 72.515253 
L 143.904 67.237257 
L 144.02304 68.877752 
L 144.14208 72.558835 
L 144.4992 65.433019 
L 144.61824 115.836562 
L 144.73728 66.611091 
L 144.85632 74.749922 
L 144.97536 106.393937 
L 145.0944 71.489371 
L 145.21344 85.696254 
L 145.33248 68.02115 
L 145.45152 71.616382 
L 145.57056 66.337323 
L 145.80864 84.717547 
L 145.92768 73.681859 
L 146.04672 75.013331 
L 146.2848 67.206383 
L 146.40384 73.882235 
L 146.64192 64.918947 
L 146.76096 73.912636 
L 146.88 70.493389 
L 146.99904 70.729224 
L 147.23712 65.354011 
L 147.35616 78.30468 
L 147.4752 67.975933 
L 147.59424 72.951995 
L 147.71328 67.429465 
L 147.95136 67.390233 
L 148.0704 65.836641 
L 148.18944 70.849172 
L 148.30848 154.186373 
L 148.42752 70.384286 
L 148.54656 69.289312 
L 148.6656 84.711276 
L 148.78464 71.332209 
L 148.90368 74.151202 
L 149.02272 68.517453 
L 149.14176 89.969203 
L 149.2608 73.651717 
L 149.37984 73.669916 
L 149.49888 68.138631 
L 149.61792 76.579346 
L 149.73696 73.427476 
L 149.856 77.765093 
L 150.21312 67.776263 
L 150.33216 69.045606 
L 150.4512 66.497496 
L 150.68928 76.425358 
L 150.80832 65.202737 
L 150.92736 74.790253 
L 151.0464 67.984135 
L 151.16544 74.659606 
L 151.28448 69.040597 
L 151.40352 78.032469 
L 151.76064 65.492535 
L 151.87968 73.845933 
L 152.11776 65.551149 
L 152.2368 64.724644 
L 152.35584 69.961444 
L 152.47488 64.563316 
L 152.95104 77.64612 
L 153.07008 70.968629 
L 153.18912 70.851534 
L 153.30816 69.209202 
L 153.4272 69.700464 
L 153.54624 83.493048 
L 153.66528 66.419221 
L 153.78432 65.718999 
L 154.0224 72.141552 
L 154.14144 95.61157 
L 154.26048 69.210215 
L 154.37952 73.300765 
L 154.49856 69.715768 
L 154.6176 70.781595 
L 154.73664 74.596213 
L 154.85568 66.074505 
L 154.97472 68.457209 
L 155.09376 65.572047 
L 155.2128 71.799584 
L 155.33184 66.632389 
L 155.56992 77.823962 
L 155.808 70.624856 
L 155.92704 71.983672 
L 156.04608 66.18542 
L 156.16512 68.015444 
L 156.28416 74.972725 
L 156.52224 66.882974 
L 156.64128 72.222668 
L 156.87936 66.703996 
L 156.9984 77.077877 
L 157.11744 65.948342 
L 157.35552 84.428932 
L 157.5936 69.92421 
L 157.71264 73.463169 
L 157.83168 72.820784 
L 157.95072 91.08593 
L 158.1888 68.818345 
L 158.30784 69.469896 
L 158.54592 79.632161 
L 158.66496 73.022741 
L 158.784 78.990128 
L 158.90304 93.363365 
L 159.02208 69.037147 
L 159.26016 76.306087 
L 159.49824 70.602649 
L 159.61728 71.41784 
L 159.73632 65.872809 
L 159.9744 85.780246 
L 160.09344 67.983898 
L 160.21248 70.461905 
L 160.33152 68.906478 
L 160.45056 64.495956 
L 160.5696 76.865474 
L 160.68864 67.176536 
L 160.80768 70.901437 
L 160.92672 66.073861 
L 161.04576 68.282028 
L 161.1648 68.370111 
L 161.40288 76.653472 
L 161.52192 73.795752 
L 161.64096 67.609725 
L 161.76 70.553045 
L 161.87904 68.668129 
L 161.99808 84.881925 
L 162.11712 65.425537 
L 162.3552 67.80461 
L 162.47424 73.408475 
L 162.59328 67.641602 
L 162.71232 78.95259 
L 162.83136 78.789724 
L 162.9504 67.459564 
L 163.06944 70.368301 
L 163.18848 99.049127 
L 163.30752 67.455617 
L 163.42656 80.069151 
L 163.5456 65.149788 
L 163.66464 64.999686 
L 163.78368 75.441588 
L 164.02176 66.533513 
L 164.25984 79.882791 
L 164.49792 71.623807 
L 164.61696 83.282773 
L 164.736 66.781786 
L 164.85504 66.524783 
L 165.09312 74.314866 
L 165.21216 68.592606 
L 165.3312 82.948397 
L 165.45024 77.854004 
L 165.56928 67.353689 
L 165.68832 68.138865 
L 165.80736 67.892962 
L 165.9264 92.814446 
L 166.04544 66.873083 
L 166.16448 84.980664 
L 166.28352 73.995537 
L 166.5216 78.101084 
L 166.64064 65.519672 
L 166.75968 69.272862 
L 166.99776 89.189605 
L 167.1168 65.930319 
L 167.23584 78.734619 
L 167.35488 70.435827 
L 167.47392 76.351804 
L 167.712 72.405094 
L 167.83104 70.470996 
L 167.95008 71.540035 
L 168.06912 82.24236 
L 168.18816 69.040538 
L 168.3072 89.690443 
L 168.54528 66.330336 
L 168.66432 72.208846 
L 168.78336 68.431962 
L 168.9024 70.457722 
L 169.02144 74.908532 
L 169.14048 91.706664 
L 169.25952 71.307597 
L 169.37856 80.675737 
L 169.4976 67.003678 
L 169.61664 92.412619 
L 169.85472 72.805714 
L 169.97376 74.714756 
L 170.21184 68.60746 
L 170.33088 74.231698 
L 170.44992 69.282133 
L 170.56896 111.138271 
L 170.688 67.216217 
L 170.80704 84.710533 
L 171.04512 68.498675 
L 171.16416 81.499975 
L 171.2832 75.116546 
L 171.40224 78.249544 
L 171.64032 72.224985 
L 171.75936 70.960586 
L 171.8784 74.079538 
L 171.99744 87.243829 
L 172.11648 73.64646 
L 172.35456 82.845793 
L 172.4736 81.333157 
L 172.59264 100.398159 
L 172.83072 79.292076 
L 173.0688 66.757288 
L 173.18784 71.196425 
L 173.30688 65.594526 
L 173.42592 66.445659 
L 173.54496 95.828819 
L 173.664 66.333718 
L 173.78304 69.140819 
L 173.90208 79.742542 
L 174.14016 72.958767 
L 174.2592 112.778573 
L 174.49728 68.351357 
L 174.61632 76.995633 
L 174.73536 67.864774 
L 174.97344 77.474867 
L 175.09248 67.443045 
L 175.21152 68.897739 
L 175.4496 80.732448 
L 175.56864 67.934938 
L 175.68768 70.005264 
L 175.80672 67.230964 
L 175.92576 76.628351 
L 176.0448 133.195055 
L 176.16384 115.272209 
L 176.28288 70.908963 
L 176.40192 68.028643 
L 176.52096 70.155021 
L 176.64 81.26352 
L 176.75904 65.709548 
L 177.11616 83.756613 
L 177.2352 69.144799 
L 177.35424 70.594267 
L 177.47328 69.321859 
L 177.59232 73.959197 
L 177.71136 66.750402 
L 177.94944 69.787341 
L 178.06848 99.938595 
L 178.30656 78.103452 
L 178.4256 77.643799 
L 178.54464 67.681001 
L 178.66368 69.807545 
L 178.78272 106.415687 
L 178.90176 72.833504 
L 179.0208 78.870406 
L 179.13984 65.72071 
L 179.25888 71.070432 
L 179.37792 138.282006 
L 179.49696 118.846297 
L 179.73504 71.288559 
L 179.85408 74.647066 
L 179.97312 68.819497 
L 180.09216 80.811219 
L 180.33024 68.220703 
L 180.44928 108.849 
L 180.56832 70.807341 
L 180.8064 68.934164 
L 180.92544 76.116323 
L 181.04448 73.06674 
L 181.16352 66.834413 
L 181.28256 75.50861 
L 181.4016 65.917443 
L 181.52064 69.039208 
L 181.75872 65.540119 
L 181.87776 70.379461 
L 181.9968 111.588568 
L 182.23488 73.972418 
L 182.35392 73.941964 
L 182.47296 69.758275 
L 182.71104 75.577785 
L 182.83008 116.565692 
L 182.94912 68.647138 
L 183.30624 73.486187 
L 183.66336 68.552966 
L 183.90144 73.425292 
L 184.02048 67.642641 
L 184.13952 74.790145 
L 184.25856 117.950965 
L 184.3776 73.728101 
L 184.49664 71.798246 
L 184.61568 75.334336 
L 184.73472 72.338068 
L 184.85376 72.86588 
L 184.9728 98.967261 
L 185.09184 73.418923 
L 185.21088 83.974655 
L 185.44896 67.22142 
L 185.568 71.87155 
L 185.68704 69.491508 
L 185.80608 89.9634 
L 186.04416 71.390067 
L 186.1632 71.72378 
L 186.40128 87.481625 
L 186.52032 87.785958 
L 186.63936 67.761751 
L 186.7584 71.773891 
L 186.87744 71.511981 
L 186.99648 102.884555 
L 187.11552 68.217884 
L 187.23456 74.559307 
L 187.3536 70.869075 
L 187.47264 82.540292 
L 187.59168 72.955854 
L 187.82976 77.953798 
L 187.9488 68.869214 
L 188.06784 72.142306 
L 188.18688 87.932741 
L 188.30592 75.505962 
L 188.42496 124.904433 
L 188.544 72.803653 
L 188.66304 72.167816 
L 188.78208 76.32164 
L 188.90112 67.771255 
L 189.02016 69.404511 
L 189.1392 74.374849 
L 189.49632 68.749271 
L 189.61536 69.507784 
L 189.7344 74.741186 
L 189.85344 66.763685 
L 189.97248 71.132411 
L 190.09152 68.471517 
L 190.21056 69.100472 
L 190.3296 73.858511 
L 190.56768 65.597076 
L 190.68672 68.007873 
L 190.80576 72.955594 
L 190.9248 73.173997 
L 191.04384 69.225727 
L 191.16288 77.405237 
L 191.40096 67.329045 
L 191.52 75.120865 
L 191.63904 72.751698 
L 191.75808 76.026269 
L 191.87712 72.015615 
L 191.99616 74.381493 
L 192.1152 70.809311 
L 192.23424 129.542526 
L 192.35328 70.593887 
L 192.47232 75.835568 
L 192.59136 74.205527 
L 192.7104 69.591061 
L 192.82944 89.27674 
L 192.94848 65.006889 
L 193.18656 84.628969 
L 193.3056 68.170171 
L 193.42464 68.612748 
L 193.54368 73.30908 
L 193.78176 66.493638 
L 193.9008 70.112974 
L 194.01984 87.827499 
L 194.25792 74.12882 
L 194.37696 82.989532 
L 194.496 69.1338 
L 194.73408 67.090964 
L 194.85312 77.600851 
L 195.0912 67.248126 
L 195.21024 78.016967 
L 195.32928 68.755775 
L 195.44832 68.386273 
L 195.80544 76.647157 
L 195.92448 71.493222 
L 196.04352 71.528073 
L 196.16256 78.26724 
L 196.2816 74.079485 
L 196.40064 93.813587 
L 196.51968 68.937445 
L 196.75776 89.842465 
L 196.8768 73.516152 
L 196.99584 72.817739 
L 197.11488 68.830483 
L 197.23392 69.690442 
L 197.35296 89.79206 
L 197.472 69.775262 
L 197.59104 70.141823 
L 197.71008 66.294813 
L 197.82912 67.755984 
L 197.94816 151.968891 
L 198.0672 70.612566 
L 198.18624 70.295277 
L 198.30528 78.893334 
L 198.42432 66.464385 
L 198.54336 68.975255 
L 198.78144 66.652006 
L 198.90048 82.317359 
L 199.01952 75.703293 
L 199.13856 75.320804 
L 199.2576 79.993313 
L 199.37664 64.898829 
L 199.49568 72.337956 
L 199.61472 69.549719 
L 199.8528 90.268983 
L 199.97184 72.791551 
L 200.09088 72.316625 
L 200.20992 77.97284 
L 200.32896 66.72208 
L 200.448 69.055774 
L 200.56704 75.257008 
L 200.80512 67.817129 
L 200.92416 73.917951 
L 201.0432 72.760672 
L 201.16224 66.588307 
L 201.40032 71.59032 
L 201.51936 86.751327 
L 201.6384 73.941901 
L 201.75744 84.65133 
L 201.87648 69.349809 
L 201.99552 75.198366 
L 202.11456 96.393362 
L 202.35264 69.373244 
L 202.47168 69.94153 
L 202.59072 66.679587 
L 202.70976 69.504601 
L 202.8288 90.279828 
L 202.94784 64.959687 
L 203.06688 79.220769 
L 203.18592 70.931224 
L 203.30496 84.226088 
L 203.54304 71.141161 
L 203.66208 74.974853 
L 203.90016 66.723101 
L 204.0192 68.347138 
L 204.13824 82.442552 
L 204.6144 68.454939 
L 204.73344 98.553423 
L 204.85248 65.597622 
L 204.97152 69.86884 
L 205.09056 68.733181 
L 205.32864 76.143224 
L 205.44768 74.848302 
L 205.56672 75.816226 
L 205.68576 78.605685 
L 205.8048 74.1937 
L 205.92384 77.476114 
L 206.16192 65.21489 
L 206.28096 103.478825 
L 206.4 68.748959 
L 206.51904 66.568353 
L 206.63808 66.80594 
L 206.87616 73.009707 
L 206.9952 68.49096 
L 207.23328 88.167185 
L 207.47136 72.388681 
L 207.5904 70.322693 
L 207.82848 75.291513 
L 207.94752 71.313449 
L 208.06656 77.40452 
L 208.30464 66.108546 
L 208.54272 72.132311 
L 208.66176 69.964966 
L 208.7808 69.9369 
L 208.89984 74.999744 
L 209.01888 72.386597 
L 209.13792 79.718579 
L 209.25696 68.227932 
L 209.376 76.160103 
L 209.49504 95.816285 
L 209.61408 93.392253 
L 209.85216 67.492291 
L 209.9712 85.247421 
L 210.09024 85.014059 
L 210.32832 70.42286 
L 210.44736 75.428378 
L 210.5664 70.475192 
L 210.80448 112.173066 
L 211.04256 67.776757 
L 211.28064 83.683033 
L 211.39968 65.660775 
L 211.63776 75.634716 
L 211.87584 67.166057 
L 211.99488 81.702272 
L 212.11392 69.844176 
L 212.23296 69.339446 
L 212.352 70.902342 
L 212.47104 75.470583 
L 212.59008 69.383895 
L 212.70912 74.43992 
L 212.82816 70.582705 
L 213.06624 89.800087 
L 213.18528 72.174623 
L 213.30432 71.563754 
L 213.42336 72.338124 
L 213.5424 75.38732 
L 213.66144 73.375842 
L 213.78048 79.369992 
L 213.89952 75.466891 
L 214.01856 79.028418 
L 214.1376 69.204031 
L 214.37568 82.529221 
L 214.49472 74.998807 
L 214.61376 104.86775 
L 214.7328 65.741944 
L 214.85184 80.444969 
L 214.97088 69.785668 
L 215.08992 81.690639 
L 215.20896 69.249774 
L 215.328 68.853228 
L 215.44704 71.514932 
L 215.56608 67.556804 
L 215.68512 79.100974 
L 215.80416 71.324063 
L 216.04224 82.740597 
L 216.16128 69.232875 
L 216.28032 71.174674 
L 216.39936 68.719746 
L 216.63744 76.091197 
L 216.75648 98.181712 
L 216.87552 69.493688 
L 216.99456 78.034002 
L 217.23264 68.450987 
L 217.35168 99.218035 
L 217.47072 73.087611 
L 217.58976 73.578361 
L 217.7088 67.273927 
L 218.06592 89.155955 
L 218.304 68.720551 
L 218.42304 89.874202 
L 218.54208 66.759318 
L 218.66112 70.155545 
L 218.78016 66.571345 
L 218.8992 79.71232 
L 219.01824 68.887398 
L 219.25632 76.887919 
L 219.37536 69.996338 
L 219.4944 91.787719 
L 219.61344 90.480696 
L 219.73248 71.567578 
L 219.85152 75.655702 
L 219.97056 68.116211 
L 220.0896 78.203151 
L 220.20864 75.69021 
L 220.32768 64.847774 
L 220.44672 65.182168 
L 220.56576 74.396602 
L 220.6848 93.749812 
L 220.92288 67.363 
L 221.16096 69.754412 
L 221.39904 73.183292 
L 221.51808 70.615789 
L 221.63712 75.42089 
L 221.75616 73.731922 
L 221.8752 66.656169 
L 222.11328 86.845917 
L 222.23232 68.75565 
L 222.35136 75.967554 
L 222.4704 68.146572 
L 222.58944 77.7938 
L 222.70848 69.476554 
L 222.82752 74.39829 
L 222.94656 93.055512 
L 223.18464 66.61747 
L 223.30368 67.699915 
L 223.54176 85.046503 
L 223.77984 68.367127 
L 223.89888 70.78705 
L 224.01792 70.702098 
L 224.13696 68.451226 
L 224.256 74.050163 
L 224.37504 70.449981 
L 224.49408 73.167662 
L 224.61312 126.03613 
L 224.8512 77.706157 
L 224.97024 65.396086 
L 225.08928 72.655642 
L 225.20832 69.228922 
L 225.32736 79.961536 
L 225.56544 68.933353 
L 225.80352 78.674453 
L 225.92256 69.137244 
L 226.16064 70.666729 
L 226.27968 73.015919 
L 226.39872 82.285832 
L 226.51776 64.757259 
L 226.6368 68.998333 
L 226.75584 66.380379 
L 226.87488 81.539877 
L 226.99392 68.042048 
L 227.11296 72.166802 
L 227.232 92.974692 
L 227.58912 67.01208 
L 227.70816 78.232821 
L 227.8272 77.287007 
L 227.94624 79.341311 
L 228.06528 69.63697 
L 228.18432 78.845385 
L 228.30336 71.968907 
L 228.4224 74.479505 
L 228.54144 79.742798 
L 228.66048 78.861006 
L 228.77952 85.045052 
L 228.89856 70.468285 
L 229.0176 72.503138 
L 229.25568 68.726955 
L 229.37472 69.418997 
L 229.49376 68.193028 
L 229.6128 74.649006 
L 229.73184 67.674751 
L 229.96992 73.00594 
L 230.08896 71.492214 
L 230.208 72.259088 
L 230.44608 66.937796 
L 230.56512 75.819777 
L 230.8032 72.867649 
L 231.04128 67.651873 
L 231.16032 69.058261 
L 231.27936 72.220452 
L 231.3984 68.540268 
L 231.51744 87.793214 
L 231.63648 128.668569 
L 231.75552 70.832708 
L 231.9936 72.145948 
L 232.23168 74.261429 
L 232.46976 69.444313 
L 232.5888 73.265831 
L 232.70784 82.311829 
L 232.94592 68.102817 
L 233.184 70.730115 
L 233.30304 66.945766 
L 233.54112 73.933647 
L 233.66016 72.100103 
L 233.7792 73.815842 
L 233.89824 67.473075 
L 234.01728 78.762139 
L 234.13632 68.581517 
L 234.25536 84.946064 
L 234.49344 70.17116 
L 234.61248 71.190748 
L 234.73152 73.490329 
L 234.85056 73.013667 
L 235.08864 67.248474 
L 235.20768 78.487243 
L 235.44576 70.520135 
L 235.5648 67.805327 
L 235.68384 82.524352 
L 235.80288 70.395042 
L 235.92192 71.61313 
L 236.04096 71.681442 
L 236.27904 66.011653 
L 236.39808 80.603839 
L 236.51712 74.969256 
L 236.63616 75.612951 
L 236.7552 67.958538 
L 236.87424 68.254398 
L 236.99328 75.872223 
L 237.11232 66.21838 
L 237.23136 68.699792 
L 237.3504 73.928868 
L 237.46944 102.187065 
L 237.58848 68.59973 
L 237.70752 77.951438 
L 237.82656 71.317778 
L 237.9456 74.951796 
L 238.06464 70.876701 
L 238.30272 83.908525 
L 238.5408 65.959919 
L 238.65984 75.807166 
L 238.77888 71.287949 
L 238.89792 75.078787 
L 239.01696 72.905559 
L 239.136 73.069125 
L 239.37408 71.488463 
L 239.61216 90.068369 
L 239.85024 74.508676 
L 239.96928 76.035432 
L 240.08832 70.42443 
L 240.20736 70.831449 
L 240.3264 71.712549 
L 240.44544 78.578702 
L 240.56448 98.023085 
L 240.68352 75.975275 
L 240.80256 76.103031 
L 241.04064 67.431712 
L 241.15968 65.868263 
L 241.27872 69.700672 
L 241.39776 77.958522 
L 241.5168 68.028044 
L 241.87392 70.173908 
L 241.99296 70.106867 
L 242.112 89.209543 
L 242.35008 74.802775 
L 242.46912 74.764823 
L 242.58816 77.978185 
L 242.7072 66.039556 
L 242.82624 65.832624 
L 243.18336 73.723365 
L 243.3024 69.170827 
L 243.54048 71.867785 
L 243.65952 67.227991 
L 243.77856 68.82078 
L 243.8976 77.131283 
L 244.25472 68.31655 
L 244.37376 111.494118 
L 244.4928 69.567912 
L 244.61184 71.07147 
L 244.73088 76.06734 
L 244.84992 73.595324 
L 244.96896 67.403892 
L 245.088 72.443218 
L 245.20704 70.519867 
L 245.32608 81.982531 
L 245.44512 72.318455 
L 245.56416 72.853301 
L 245.6832 77.609178 
L 245.92128 72.454705 
L 246.04032 87.145221 
L 246.15936 70.357936 
L 246.2784 72.062878 
L 246.39744 67.760174 
L 246.63552 74.578495 
L 246.8736 69.468854 
L 246.99264 152.602769 
L 247.23072 70.545238 
L 247.34976 81.93834 
L 247.4688 70.55372 
L 247.58784 70.602719 
L 247.70688 67.098219 
L 247.82592 72.700921 
L 247.94496 65.027865 
L 248.064 76.308255 
L 248.18304 71.342484 
L 248.30208 72.813824 
L 248.42112 78.924047 
L 248.54016 69.504403 
L 248.6592 73.617126 
L 248.77824 67.441781 
L 248.89728 67.303777 
L 249.01632 102.25536 
L 249.2544 68.634229 
L 249.37344 74.838611 
L 249.49248 127.202094 
L 249.61152 76.542445 
L 249.73056 73.977001 
L 249.8496 86.148043 
L 249.96864 67.996767 
L 250.08768 70.890042 
L 250.20672 81.413524 
L 250.68288 66.35081 
L 250.92096 70.71001 
L 251.15904 67.581801 
L 251.27808 105.933975 
L 251.39712 67.328824 
L 251.51616 78.367432 
L 251.75424 73.314774 
L 251.87328 81.158814 
L 252.11136 68.384906 
L 252.2304 75.445768 
L 252.34944 74.126361 
L 252.46848 66.700892 
L 252.70656 73.756189 
L 252.8256 68.856071 
L 252.94464 71.423724 
L 253.06368 70.410793 
L 253.18272 65.979985 
L 253.30176 73.285212 
L 253.4208 94.318561 
L 253.65888 68.239857 
L 253.77792 74.540262 
L 253.89696 66.723216 
L 254.13504 74.267192 
L 254.25408 69.074645 
L 254.37312 70.405229 
L 254.49216 75.349007 
L 254.6112 67.8917 
L 254.73024 69.129113 
L 254.84928 66.854592 
L 254.96832 89.599866 
L 255.2064 67.860395 
L 255.32544 78.084918 
L 255.44448 67.130084 
L 255.68256 69.000109 
L 255.8016 67.972432 
L 255.92064 99.791276 
L 256.15872 69.605054 
L 256.27776 76.395524 
L 256.51584 72.262998 
L 256.75392 86.165748 
L 256.87296 70.883604 
L 256.992 86.556279 
L 257.11104 70.064217 
L 257.23008 71.785203 
L 257.34912 70.756222 
L 257.46816 76.430995 
L 257.5872 67.516629 
L 257.70624 83.532263 
L 257.82528 68.505684 
L 257.94432 70.118922 
L 258.06336 84.862331 
L 258.30144 67.852485 
L 258.53952 68.869327 
L 258.65856 75.214159 
L 258.89664 66.362821 
L 259.01568 66.636847 
L 259.13472 81.682993 
L 259.25376 80.681982 
L 259.3728 70.218172 
L 259.49184 76.023467 
L 259.61088 67.840367 
L 259.72992 68.46687 
L 259.84896 66.735751 
L 259.968 70.696176 
L 260.08704 66.831119 
L 260.32512 73.458105 
L 260.44416 116.260905 
L 260.5632 117.730462 
L 260.80128 77.247385 
L 260.92032 67.172134 
L 261.03936 67.84502 
L 261.39648 77.868895 
L 261.51552 122.302369 
L 261.63456 65.718528 
L 261.7536 71.299966 
L 261.99168 65.29944 
L 262.11072 74.535076 
L 262.22976 67.427868 
L 262.70592 74.20358 
L 262.944 67.471248 
L 263.06304 79.759215 
L 263.18208 67.211789 
L 263.30112 69.504725 
L 263.42016 69.293359 
L 263.5392 85.723743 
L 263.77728 69.403058 
L 263.89632 70.968633 
L 264.01536 66.615228 
L 264.25344 78.310287 
L 264.37248 69.411399 
L 264.49152 70.788884 
L 264.7296 70.259814 
L 264.84864 67.065814 
L 264.96768 67.943416 
L 265.08672 70.322521 
L 265.20576 69.893099 
L 265.3248 66.913089 
L 265.44384 76.389063 
L 265.68192 68.825758 
L 265.80096 68.897263 
L 265.92 78.144724 
L 266.03904 68.318457 
L 266.15808 76.915061 
L 266.27712 68.560426 
L 266.5152 82.97697 
L 266.75328 67.714556 
L 266.87232 73.640723 
L 266.99136 88.171186 
L 267.1104 70.048774 
L 267.22944 70.974197 
L 267.46752 67.525359 
L 267.7056 74.202838 
L 267.82464 66.741725 
L 267.94368 78.871979 
L 268.06272 67.869916 
L 268.18176 72.64283 
L 268.41984 90.739067 
L 268.65792 68.296828 
L 268.896 77.85899 
L 269.01504 72.624242 
L 269.13408 109.995383 
L 269.25312 69.068943 
L 269.37216 67.844025 
L 269.61024 79.938408 
L 269.84832 66.664007 
L 269.96736 67.672564 
L 270.0864 76.55129 
L 270.32448 68.271679 
L 270.44352 74.800994 
L 270.6816 69.316215 
L 270.91968 83.683278 
L 271.15776 69.176308 
L 271.2768 100.982588 
L 271.51488 78.957398 
L 271.63392 66.132857 
L 271.75296 67.77644 
L 271.872 74.333516 
L 272.11008 68.221017 
L 272.22912 76.279328 
L 272.34816 72.232039 
L 272.4672 72.414723 
L 272.58624 79.343111 
L 272.70528 71.025632 
L 272.82432 73.312451 
L 272.94336 67.344099 
L 273.0624 68.322007 
L 273.41952 80.063696 
L 273.53856 75.63946 
L 273.6576 66.441808 
L 273.77664 71.634369 
L 273.89568 69.388044 
L 274.01472 69.784018 
L 274.13376 77.67851 
L 274.2528 70.156962 
L 274.37184 71.75098 
L 274.49088 65.900748 
L 274.72896 82.982701 
L 274.96704 67.510695 
L 275.08608 85.324661 
L 275.20512 67.024863 
L 275.32416 75.245561 
L 275.4432 71.376871 
L 275.56224 74.881513 
L 275.68128 97.056908 
L 275.91936 72.291658 
L 276.0384 90.979624 
L 276.15744 66.075498 
L 276.27648 77.783671 
L 276.39552 73.648978 
L 276.51456 76.10849 
L 276.6336 76.173909 
L 276.75264 69.83589 
L 276.87168 78.889967 
L 276.99072 77.764478 
L 277.10976 70.099572 
L 277.2288 72.779988 
L 277.34784 78.55794 
L 277.58592 67.371375 
L 277.70496 96.636731 
L 277.94304 74.08727 
L 278.06208 68.322589 
L 278.18112 77.998564 
L 278.30016 64.694713 
L 278.4192 72.65511 
L 278.65728 68.005874 
L 278.89536 75.911254 
L 279.0144 67.161865 
L 279.13344 69.966813 
L 279.25248 79.119723 
L 279.37152 68.477834 
L 279.49056 78.318368 
L 279.6096 75.337596 
L 279.72864 67.560827 
L 279.96672 81.214319 
L 280.08576 75.579682 
L 280.2048 98.048198 
L 280.32384 69.219761 
L 280.44288 72.042541 
L 280.56192 78.404642 
L 280.8 67.947297 
L 280.91904 87.29529 
L 281.03808 71.529761 
L 281.27616 79.257145 
L 281.51424 66.416868 
L 281.63328 83.519995 
L 281.75232 82.512751 
L 281.9904 65.659654 
L 282.22848 71.008579 
L 282.34752 79.98126 
L 282.5856 67.058792 
L 282.70464 90.144211 
L 282.94272 71.688679 
L 283.06176 74.117562 
L 283.29984 67.885623 
L 283.41888 77.7704 
L 283.53792 66.08367 
L 283.65696 74.578444 
L 283.89504 67.018806 
L 284.01408 70.77318 
L 284.13312 70.611841 
L 284.25216 66.696193 
L 284.3712 78.351636 
L 284.49024 105.207314 
L 284.60928 68.597457 
L 284.84736 77.361309 
L 285.08544 67.505956 
L 285.20448 80.165093 
L 285.32352 79.847534 
L 285.5616 76.390843 
L 285.68064 67.556953 
L 285.79968 67.523525 
L 285.91872 81.837541 
L 286.1568 73.697318 
L 286.27584 81.017086 
L 286.39488 67.943054 
L 286.51392 85.795441 
L 286.63296 81.074006 
L 286.752 66.20057 
L 286.99008 83.133244 
L 287.10912 71.385155 
L 287.22816 71.551396 
L 287.3472 68.722134 
L 287.46624 86.743254 
L 287.58528 66.56406 
L 287.70432 84.261597 
L 287.82336 68.884685 
L 287.9424 81.204448 
L 288.06144 110.233535 
L 288.41856 74.948335 
L 288.5376 76.921991 
L 288.65664 67.191285 
L 288.77568 74.83532 
L 289.01376 73.389606 
L 289.25184 85.735892 
L 289.37088 72.446341 
L 289.60896 80.376282 
L 289.728 68.833161 
L 289.84704 73.371672 
L 289.96608 65.106182 
L 290.08512 75.112897 
L 290.20416 71.625363 
L 290.3232 81.037964 
L 290.44224 68.579118 
L 290.56128 68.336881 
L 290.68032 69.577362 
L 290.9184 65.456522 
L 291.15648 73.083686 
L 291.39456 68.552824 
L 291.5136 66.544054 
L 291.63264 77.771702 
L 291.75168 74.110021 
L 291.98976 65.849052 
L 292.1088 85.611988 
L 292.34688 73.169453 
L 292.46592 78.648533 
L 292.58496 67.533007 
L 292.704 83.34896 
L 292.82304 67.236613 
L 292.94208 69.786908 
L 293.18016 100.025898 
L 293.2992 70.624185 
L 293.53728 68.50008 
L 293.65632 71.230091 
L 293.77536 68.837432 
L 293.8944 89.456324 
L 294.01344 71.565035 
L 294.13248 71.889311 
L 294.25152 121.876989 
L 294.37056 66.684893 
L 294.60864 76.38809 
L 294.72768 90.562218 
L 294.96576 68.184724 
L 295.0848 71.414338 
L 295.32288 92.333814 
L 295.44192 67.529007 
L 295.56096 68.645136 
L 295.68 103.361007 
L 295.79904 72.997524 
L 295.91808 76.814677 
L 296.03712 65.522865 
L 296.2752 67.90453 
L 296.39424 65.713426 
L 296.63232 75.055992 
L 296.75136 67.453595 
L 296.8704 76.483747 
L 296.98944 68.745389 
L 297.22752 71.783606 
L 297.4656 68.607289 
L 297.58464 69.692728 
L 297.70368 90.399382 
L 297.94176 69.422053 
L 298.0608 73.594453 
L 298.17984 73.414943 
L 298.29888 66.334036 
L 298.41792 70.599462 
L 298.53696 81.599378 
L 298.77504 68.935348 
L 298.89408 74.274789 
L 299.01312 71.018794 
L 299.13216 71.399784 
L 299.2512 67.805503 
L 299.37024 72.514471 
L 299.48928 71.584671 
L 299.60832 69.682469 
L 299.8464 74.898502 
L 300.08448 71.889856 
L 300.32256 80.510909 
L 300.56064 67.213165 
L 300.79872 73.685873 
L 301.0368 71.330419 
L 301.15584 66.052763 
L 301.27488 96.168792 
L 301.51296 66.341853 
L 301.632 83.849678 
L 301.75104 69.951055 
L 301.87008 72.069616 
L 301.98912 67.789268 
L 302.10816 77.113032 
L 302.2272 65.085999 
L 302.34624 101.017289 
L 302.58432 66.442321 
L 302.8224 72.421504 
L 302.94144 72.199349 
L 303.06048 70.125411 
L 303.17952 71.116641 
L 303.29856 93.35942 
L 303.53664 74.308862 
L 303.65568 80.883823 
L 303.77472 68.689776 
L 303.89376 70.870763 
L 304.0128 67.206396 
L 304.25088 74.647293 
L 304.36992 72.250344 
L 304.48896 66.606622 
L 304.84608 77.891338 
L 304.96512 88.966102 
L 305.2032 69.476763 
L 305.32224 69.552072 
L 305.44128 99.957762 
L 305.56032 68.971253 
L 305.67936 76.483433 
L 305.91744 68.613237 
L 306.03648 67.133183 
L 306.15552 71.191058 
L 306.27456 69.869262 
L 306.51264 64.488958 
L 306.63168 75.600861 
L 306.75072 68.834676 
L 306.9888 70.338891 
L 307.10784 75.103602 
L 307.22688 67.471375 
L 307.34592 83.362672 
L 307.584 66.442653 
L 307.70304 101.794754 
L 307.94112 71.416591 
L 308.29824 78.910144 
L 308.53632 69.958658 
L 308.7744 82.772611 
L 308.89344 69.201892 
L 309.13152 81.905396 
L 309.3696 71.868478 
L 309.48864 67.160204 
L 309.72672 76.259401 
L 309.9648 67.521462 
L 310.08384 65.211428 
L 310.20288 72.763649 
L 310.32192 72.292468 
L 310.44096 69.590906 
L 310.56 71.364749 
L 310.67904 75.544166 
L 310.91712 70.867986 
L 311.03616 78.847652 
L 311.1552 68.920652 
L 311.27424 87.109513 
L 311.51232 68.091891 
L 311.63136 67.683862 
L 311.7504 73.164985 
L 311.86944 73.309547 
L 311.98848 66.848616 
L 312.10752 72.770222 
L 312.22656 68.177078 
L 312.3456 78.157627 
L 312.46464 66.755754 
L 312.82176 76.100622 
L 312.9408 67.883075 
L 313.05984 85.752807 
L 313.17888 80.816349 
L 313.29792 67.131867 
L 313.41696 72.333094 
L 313.536 85.520883 
L 313.65504 82.930521 
L 313.77408 106.847754 
L 313.89312 71.67917 
L 314.01216 83.206322 
L 314.1312 66.437474 
L 314.25024 70.068466 
L 314.36928 68.375122 
L 314.48832 79.902669 
L 314.60736 68.972504 
L 314.7264 70.40379 
L 314.84544 99.935104 
L 315.08352 71.089972 
L 315.20256 76.65301 
L 315.3216 70.627584 
L 315.44064 101.12966 
L 315.55968 91.367846 
L 315.67872 70.212065 
L 315.79776 69.317891 
L 315.9168 65.933749 
L 316.03584 66.26106 
L 316.15488 68.294859 
L 316.39296 79.136776 
L 316.512 77.354173 
L 316.63104 69.142485 
L 316.75008 74.058739 
L 316.86912 68.439998 
L 316.98816 71.526026 
L 317.1072 81.042262 
L 317.22624 69.145776 
L 317.34528 112.42881 
L 317.58336 71.635863 
L 317.7024 77.747198 
L 317.82144 67.648536 
L 318.05952 78.728088 
L 318.17856 81.356921 
L 318.2976 66.640072 
L 318.41664 71.22015 
L 318.53568 66.506949 
L 318.65472 67.534422 
L 318.77376 77.59956 
L 318.8928 67.028534 
L 319.01184 70.067877 
L 319.13088 76.096239 
L 319.24992 69.825567 
L 319.36896 71.723624 
L 319.488 75.885811 
L 319.60704 67.208478 
L 319.84512 77.884611 
L 320.0832 71.563129 
L 320.32128 82.923418 
L 320.55936 70.113896 
L 320.6784 83.103982 
L 320.79744 72.785669 
L 321.03552 91.944017 
L 321.15456 70.042052 
L 321.2736 73.941516 
L 321.39264 68.985062 
L 321.51168 73.569144 
L 321.63072 66.099628 
L 321.74976 74.942225 
L 321.8688 73.017524 
L 321.98784 75.812071 
L 322.10688 72.9445 
L 322.22592 78.016592 
L 322.34496 69.715726 
L 322.464 70.149593 
L 322.58304 77.423055 
L 322.82112 66.306875 
L 322.94016 66.115764 
L 323.0592 68.185098 
L 323.17824 67.709584 
L 323.29728 70.245326 
L 323.41632 96.204798 
L 323.6544 67.14542 
L 323.77344 81.691658 
L 323.89248 65.334192 
L 324.13056 70.631031 
L 324.36864 94.305951 
L 324.60672 67.987425 
L 324.72576 67.969198 
L 325.08288 82.271462 
L 325.20192 77.065519 
L 325.32096 81.892687 
L 325.55904 74.619968 
L 325.79712 69.281173 
L 325.91616 68.128723 
L 326.15424 84.086074 
L 326.27328 71.833659 
L 326.51136 79.382015 
L 326.6304 72.091329 
L 326.74944 89.489307 
L 326.98752 71.565674 
L 327.10656 74.893235 
L 327.2256 92.184832 
L 327.46368 66.655223 
L 327.58272 71.79623 
L 327.70176 67.648425 
L 327.93984 79.23125 
L 328.05888 65.472483 
L 328.17792 65.951717 
L 328.29696 69.213731 
L 328.416 66.848199 
L 328.65408 78.997955 
L 328.77312 90.209193 
L 329.0112 72.452059 
L 329.13024 76.552516 
L 329.24928 66.978121 
L 329.36832 72.9579 
L 329.6064 66.107716 
L 329.72544 68.355346 
L 329.84448 80.813748 
L 330.08256 67.377108 
L 330.2016 76.207049 
L 330.32064 69.898136 
L 330.43968 79.910969 
L 330.55872 76.332771 
L 330.67776 69.240356 
L 330.7968 81.83701 
L 330.91584 67.748036 
L 331.03488 71.408407 
L 331.15392 70.532373 
L 331.27296 66.985497 
L 331.51104 69.052126 
L 331.74912 112.519482 
L 331.86816 74.105795 
L 331.9872 73.016122 
L 332.10624 77.821049 
L 332.22528 87.196018 
L 332.34432 70.225671 
L 332.46336 71.415971 
L 332.5824 76.19724 
L 332.70144 70.380872 
L 332.82048 89.868551 
L 332.93952 74.484594 
L 333.05856 80.170955 
L 333.1776 79.531639 
L 333.29664 89.536826 
L 333.41568 69.390325 
L 333.53472 68.748639 
L 333.65376 78.319705 
L 333.7728 68.065546 
L 333.89184 67.483328 
L 334.01088 70.191846 
L 334.12992 80.667394 
L 334.24896 67.697917 
L 334.48704 71.912715 
L 334.60608 92.705733 
L 334.72512 74.665772 
L 334.84416 75.882778 
L 334.9632 73.981153 
L 335.08224 78.080781 
L 335.20128 77.215901 
L 335.32032 119.042496 
L 335.43936 71.116064 
L 335.67744 72.731108 
L 335.79648 71.781237 
L 335.91552 76.574341 
L 336.03456 74.613245 
L 336.27264 66.155028 
L 336.51072 74.543866 
L 336.62976 94.095763 
L 336.7488 64.959133 
L 336.86784 77.473858 
L 336.98688 69.894507 
L 337.10592 70.701237 
L 337.22496 70.122106 
L 337.344 68.193565 
L 337.46304 72.929618 
L 337.58208 72.436231 
L 337.70112 73.954116 
L 337.9392 67.047353 
L 338.05824 68.04692 
L 338.17728 71.798678 
L 338.29632 69.989101 
L 338.41536 93.89318 
L 338.5344 68.43025 
L 338.65344 79.418876 
L 338.77248 75.154153 
L 338.89152 100.366082 
L 339.1296 82.329509 
L 339.36768 70.781565 
L 339.7248 65.287736 
L 339.96288 87.877764 
L 340.08192 70.244067 
L 340.20096 79.535665 
L 340.32 68.135554 
L 340.43904 70.516482 
L 340.55808 79.238628 
L 340.67712 70.424899 
L 340.79616 71.154509 
L 340.9152 93.063521 
L 341.15328 70.458152 
L 341.27232 67.080454 
L 341.39136 80.907905 
L 341.62944 66.578918 
L 341.74848 106.650149 
L 341.86752 72.94707 
L 341.98656 72.673795 
L 342.1056 84.965924 
L 342.34368 70.603792 
L 342.46272 69.688424 
L 342.58176 79.156502 
L 342.81984 71.319911 
L 342.93888 81.229751 
L 343.05792 68.409953 
L 343.17696 93.743257 
L 343.296 70.406878 
L 343.41504 69.011087 
L 343.53408 75.416557 
L 343.65312 69.528055 
L 343.77216 69.59411 
L 343.8912 67.19246 
L 344.01024 72.997266 
L 344.12928 72.503358 
L 344.24832 66.463019 
L 344.36736 77.219227 
L 344.72448 66.004674 
L 344.84352 71.024486 
L 344.96256 67.722865 
L 345.0816 69.126943 
L 345.20064 75.823026 
L 345.43872 72.64447 
L 345.6768 79.382482 
L 345.79584 71.086232 
L 345.91488 70.57649 
L 346.03392 73.512468 
L 346.15296 69.039274 
L 346.272 84.380826 
L 346.51008 67.612656 
L 346.62912 77.087605 
L 346.74816 69.991613 
L 346.98624 90.998194 
L 347.22432 67.152271 
L 347.34336 81.449061 
L 347.4624 69.126034 
L 347.58144 77.702442 
L 347.81952 67.40697 
L 347.93856 71.927754 
L 348.0576 69.515871 
L 348.17664 82.063023 
L 348.41472 69.272217 
L 348.53376 69.361031 
L 348.6528 77.333878 
L 348.77184 76.247526 
L 348.89088 90.443673 
L 349.00992 76.345263 
L 349.12896 104.622345 
L 349.248 70.508535 
L 349.36704 70.581133 
L 349.60512 83.940937 
L 349.8432 72.324511 
L 349.96224 71.165429 
L 350.08128 74.439831 
L 350.20032 66.865396 
L 350.31936 70.156179 
L 350.4384 64.468785 
L 350.67648 80.636992 
L 350.91456 67.478998 
L 351.15264 71.358789 
L 351.27168 68.225363 
L 351.39072 77.375324 
L 351.50976 70.19556 
L 351.6288 70.591838 
L 351.74784 87.957544 
L 351.86688 66.207021 
L 352.10496 74.436013 
L 352.224 71.971945 
L 352.34304 77.072791 
L 352.46208 65.537249 
L 352.58112 82.205326 
L 352.8192 65.86 
L 353.05728 70.424832 
L 353.17632 71.065327 
L 353.29536 71.097139 
L 353.4144 67.804146 
L 353.65248 70.838773 
L 353.77152 70.600242 
L 353.89056 75.387347 
L 354.12864 66.792354 
L 354.24768 75.934072 
L 354.36672 69.030668 
L 354.48576 74.101193 
L 354.6048 70.411058 
L 354.72384 70.553304 
L 354.84288 70.409383 
L 354.96192 71.391915 
L 355.08096 107.116384 
L 355.31904 79.996909 
L 355.55712 66.784683 
L 355.67616 79.948743 
L 355.91424 67.162956 
L 356.03328 67.139936 
L 356.27136 75.257845 
L 356.3904 66.409536 
L 356.50944 68.149344 
L 356.62848 64.644947 
L 356.74752 71.689118 
L 356.86656 114.622752 
L 357.10464 67.635596 
L 357.22368 75.955618 
L 357.34272 69.71472 
L 357.46176 73.692708 
L 357.5808 68.918472 
L 357.69984 70.377883 
L 357.81888 69.514483 
L 357.93792 66.074926 
L 358.05696 73.052329 
L 358.176 70.2364 
L 358.29504 81.849779 
L 358.41408 75.878406 
L 358.53312 83.26089 
L 358.7712 67.668605 
L 358.89024 110.401994 
L 359.00928 73.67754 
L 359.12832 73.2161 
L 359.24736 74.055425 
L 359.3664 66.934581 
L 359.48544 76.419497 
L 359.60448 72.125394 
L 359.72352 78.075684 
L 359.84256 69.66303 
L 359.9616 70.208462 
L 360.08064 72.264622 
L 360.19968 66.26837 
L 360.5568 89.966041 
L 360.79488 72.292171 
L 360.91392 75.562276 
L 361.152 66.678826 
L 361.27104 79.653418 
L 361.39008 68.201032 
L 361.50912 69.780065 
L 361.62816 68.045898 
L 361.7472 71.17364 
L 361.86624 66.438192 
L 362.10432 80.437053 
L 362.3424 68.276407 
L 362.46144 82.893674 
L 362.58048 80.43298 
L 362.69952 68.176093 
L 362.81856 69.990724 
L 362.9376 88.596064 
L 363.05664 72.736661 
L 363.17568 74.137502 
L 363.29472 67.034192 
L 363.41376 71.863616 
L 363.5328 70.404586 
L 363.65184 74.657315 
L 363.77088 73.298081 
L 363.88992 77.97869 
L 364.00896 75.95479 
L 364.128 69.034112 
L 364.24704 72.779616 
L 364.36608 105.128516 
L 364.48512 70.81358 
L 364.60416 74.218189 
L 364.7232 68.802957 
L 364.96128 95.731271 
L 365.08032 68.944889 
L 365.19936 79.437873 
L 365.3184 74.52123 
L 365.43744 85.294694 
L 365.55648 83.700539 
L 365.67552 66.751734 
L 365.79456 68.073511 
L 366.03264 82.211738 
L 366.27072 71.909234 
L 366.38976 74.524298 
L 366.5088 73.770819 
L 366.62784 65.412614 
L 366.74688 67.839799 
L 366.86592 74.071027 
L 366.98496 68.481808 
L 367.22304 84.232933 
L 367.58016 72.124717 
L 367.6992 70.912156 
L 367.81824 71.430259 
L 367.93728 70.705303 
L 368.05632 76.595909 
L 368.17536 74.870028 
L 368.2944 70.750556 
L 368.41344 84.479635 
L 368.53248 68.811976 
L 368.65152 73.345126 
L 368.77056 71.28612 
L 368.8896 86.327585 
L 369.12768 67.976111 
L 369.24672 89.655902 
L 369.36576 66.321594 
L 369.4848 77.41388 
L 369.60384 74.544421 
L 369.72288 88.001083 
L 369.84192 66.189675 
L 369.96096 83.163016 
L 370.19904 65.135065 
L 370.31808 84.614608 
L 370.43712 70.620383 
L 370.55616 83.362162 
L 370.6752 68.262696 
L 370.79424 68.37855 
L 371.03232 71.485719 
L 371.15136 72.204073 
L 371.2704 92.092389 
L 371.38944 68.829825 
L 371.62752 65.983016 
L 371.74656 116.141514 
L 371.98464 68.584307 
L 372.10368 85.144969 
L 372.22272 66.756599 
L 372.34176 69.788552 
L 372.4608 65.496062 
L 372.57984 68.706545 
L 372.69888 68.658067 
L 372.81792 73.643853 
L 372.93696 85.43628 
L 373.17504 64.315385 
L 373.29408 76.512325 
L 373.41312 66.134776 
L 373.53216 88.346406 
L 373.77024 72.951871 
L 373.88928 137.459956 
L 374.00832 70.967875 
L 374.12736 69.420852 
L 374.2464 74.65644 
L 374.36544 72.881919 
L 374.48448 74.230083 
L 374.72256 72.075354 
L 374.8416 65.543958 
L 374.96064 65.124383 
L 375.07968 70.38374 
L 375.19872 68.681139 
L 375.31776 72.986466 
L 375.4368 71.810179 
L 375.55584 71.868456 
L 375.67488 69.546507 
L 375.79392 79.664034 
L 375.91296 69.528018 
L 376.27008 71.481913 
L 376.38912 77.36995 
L 376.50816 93.917524 
L 376.6272 66.128882 
L 376.74624 69.677491 
L 376.86528 81.978149 
L 377.10336 70.204549 
L 377.2224 67.245001 
L 377.46048 75.657672 
L 377.57952 100.504421 
L 377.8176 74.966834 
L 377.93664 68.458786 
L 378.17472 90.751529 
L 378.4128 66.064812 
L 378.65088 68.325655 
L 378.76992 74.032824 
L 378.88896 100.421778 
L 379.12704 80.600871 
L 379.24608 81.494195 
L 379.48416 71.482518 
L 379.6032 74.169091 
L 379.72224 74.157076 
L 379.84128 70.338565 
L 379.96032 72.872202 
L 380.1984 69.843309 
L 380.31744 88.979731 
L 380.43648 67.324057 
L 380.55552 66.757278 
L 380.67456 69.331378 
L 380.7936 65.415249 
L 381.03168 82.845172 
L 381.15072 67.883302 
L 381.3888 72.672892 
L 381.62688 68.555806 
L 381.74592 71.660301 
L 381.86496 69.755415 
L 382.22208 74.789672 
L 382.34112 73.672338 
L 382.46016 75.684205 
L 382.69824 73.119823 
L 382.93632 96.887936 
L 383.1744 73.662346 
L 383.29344 105.686939 
L 383.53152 71.475669 
L 383.65056 74.462548 
L 383.7696 74.465574 
L 384.00768 66.779212 
L 384.24576 70.409902 
L 384.3648 69.044542 
L 384.48384 96.282505 
L 384.60288 81.241968 
L 384.84096 79.619286 
L 384.96 69.092339 
L 385.07904 78.323518 
L 385.19808 70.37249 
L 385.31712 100.933824 
L 385.5552 66.51384 
L 385.67424 67.376341 
L 385.79328 85.253563 
L 385.91232 66.166313 
L 386.03136 81.96767 
L 386.1504 68.917342 
L 386.38848 76.931579 
L 386.50752 68.667397 
L 386.7456 79.07286 
L 386.98368 70.430176 
L 387.10272 69.247746 
L 387.22176 89.051793 
L 387.45984 70.867725 
L 387.57888 66.664234 
L 387.69792 69.934425 
L 387.936 65.327132 
L 388.05504 69.407407 
L 388.17408 83.569816 
L 388.41216 69.064438 
L 388.5312 75.786183 
L 388.65024 71.623369 
L 388.76928 72.122478 
L 388.88832 68.819567 
L 389.00736 75.533716 
L 389.1264 73.257366 
L 389.24544 74.366504 
L 389.36448 70.427062 
L 389.48352 72.304962 
L 389.60256 94.540259 
L 389.84064 69.914047 
L 390.07872 80.125592 
L 390.19776 69.770431 
L 390.43584 77.706176 
L 390.67392 67.682007 
L 390.912 70.672625 
L 391.03104 85.275943 
L 391.15008 71.190604 
L 391.26912 70.344002 
L 391.38816 70.596807 
L 391.5072 103.131079 
L 391.62624 70.933006 
L 391.74528 78.615795 
L 391.86432 69.331103 
L 391.98336 69.070571 
L 392.1024 74.722805 
L 392.34048 65.256721 
L 392.57856 76.379429 
L 392.6976 64.999302 
L 392.81664 80.077255 
L 392.93568 65.721544 
L 393.05472 68.402764 
L 393.17376 66.087911 
L 393.41184 74.289279 
L 393.53088 68.189438 
L 393.64992 73.264539 
L 393.76896 68.549305 
L 393.888 75.013397 
L 394.00704 69.525853 
L 394.12608 71.092392 
L 394.24512 74.785394 
L 394.36416 70.177755 
L 394.4832 69.96708 
L 394.60224 71.217218 
L 394.72128 67.872735 
L 394.95936 91.251259 
L 395.0784 72.665976 
L 395.19744 79.272998 
L 395.31648 66.534683 
L 395.43552 79.641877 
L 395.55456 67.225456 
L 395.6736 67.085225 
L 395.79264 67.527413 
L 395.91168 74.820147 
L 396.03072 73.724675 
L 396.14976 81.16004 
L 396.2688 66.700825 
L 396.38784 81.61442 
L 396.62592 69.80726 
L 396.864 70.626356 
L 396.98304 94.941121 
L 397.22112 68.060354 
L 397.34016 74.581521 
L 397.4592 67.874396 
L 397.69728 96.389627 
L 397.93536 67.019455 
L 398.0544 67.832492 
L 398.17344 73.489551 
L 398.41152 69.051993 
L 398.53056 68.261075 
L 398.6496 69.858136 
L 398.76864 80.382343 
L 399.00672 70.351039 
L 399.12576 98.235698 
L 399.2448 68.860599 
L 399.36384 72.440706 
L 399.48288 70.483919 
L 399.72096 87.234183 
L 399.84 65.821978 
L 399.95904 66.472401 
L 400.19712 74.48225 
L 400.31616 69.882703 
L 400.4352 75.347674 
L 400.55424 66.660864 
L 400.67328 73.810145 
L 401.0304 65.056631 
L 401.14944 104.457217 
L 401.38752 73.216131 
L 401.50656 69.047149 
L 401.74464 108.596337 
L 401.98272 69.568174 
L 402.10176 72.639257 
L 402.2208 67.328798 
L 402.33984 71.389555 
L 402.57792 66.867771 
L 402.816 83.807947 
L 403.05408 68.557207 
L 403.17312 69.067987 
L 403.4112 75.639338 
L 403.53024 71.443124 
L 403.64928 78.802458 
L 403.76832 68.273753 
L 403.88736 70.555641 
L 404.12544 66.336373 
L 404.36352 70.757425 
L 404.48256 65.879869 
L 404.6016 75.185764 
L 404.72064 66.95812 
L 404.83968 80.565133 
L 405.07776 66.75032 
L 405.1968 98.860601 
L 405.31584 68.153968 
L 405.55392 72.573093 
L 405.792 67.014618 
L 405.91104 69.692392 
L 406.03008 68.376764 
L 406.14912 68.42133 
L 406.3872 79.119235 
L 406.50624 66.849769 
L 406.62528 87.187013 
L 406.74432 70.343684 
L 406.86336 69.264807 
L 406.9824 74.394671 
L 407.10144 70.165187 
L 407.22048 74.645746 
L 407.33952 70.789879 
L 407.45856 77.325683 
L 407.5776 69.414206 
L 407.69664 79.712921 
L 407.81568 68.281488 
L 407.93472 70.145517 
L 408.05376 92.905854 
L 408.1728 63.648 
L 408.29184 73.679471 
L 408.41088 67.341931 
L 408.52992 74.259946 
L 408.64896 69.915314 
L 408.768 69.735143 
L 409.00608 79.780941 
L 409.12512 76.793053 
L 409.24416 81.273127 
L 409.3632 72.041925 
L 409.48224 73.400717 
L 409.60128 79.970144 
L 409.83936 68.024189 
L 409.9584 76.555716 
L 410.07744 65.843277 
L 410.31552 72.038889 
L 410.43456 69.096677 
L 410.67264 75.604624 
L 410.79168 70.230882 
L 410.91072 74.044503 
L 411.02976 71.786857 
L 411.1488 81.056484 
L 411.26784 77.568276 
L 411.38688 66.962146 
L 411.50592 66.295192 
L 411.62496 67.545933 
L 411.744 82.772736 
L 411.86304 67.787746 
L 411.98208 69.163233 
L 412.10112 75.251819 
L 412.3392 67.349366 
L 412.57728 72.347756 
L 412.69632 70.500487 
L 412.81536 70.613998 
L 412.9344 119.729171 
L 413.05344 71.844928 
L 413.17248 70.78682 
L 413.29152 70.724213 
L 413.41056 72.925721 
L 413.5296 81.480548 
L 413.64864 79.445162 
L 413.88672 69.485531 
L 414.00576 69.891287 
L 414.1248 83.713215 
L 414.24384 73.558605 
L 414.36288 83.220089 
L 414.60096 67.856569 
L 414.60096 67.856569 
" style="fill:none;stroke:#0000ff;stroke-linecap:square;stroke-width:1.5;"/>
   </g>
   <g id="patch_3">
    <path d="M 57.6 307.584 
L 57.6 41.472 
" style="fill:none;stroke:#000000;stroke-linecap:square;stroke-linejoin:miter;stroke-width:0.8;"/>
   </g>
   <g id="patch_4">
    <path d="M 414.72 307.584 
L 414.72 41.472 
" style="fill:none;stroke:#000000;stroke-linecap:square;stroke-linejoin:miter;stroke-width:0.8;"/>
   </g>
   <g id="patch_5">
    <path d="M 57.6 307.584 
L 414.72 307.584 
" style="fill:none;stroke:#000000;stroke-linecap:square;stroke-linejoin:miter;stroke-width:0.8;"/>
   </g>
   <g id="patch_6">
    <path d="M 57.6 41.472 
L 414.72 41.472 
" style="fill:none;stroke:#000000;stroke-linecap:square;stroke-linejoin:miter;stroke-width:0.8;"/>
   </g>
   <g id="legend_1">
    <g id="patch_7">
     <path d="M 282.321563 302.584 
L 407.72 302.584 
Q 409.72 302.584 409.72 300.584 
L 409.72 286.905875 
Q 409.72 284.905875 407.72 284.905875 
L 282.321563 284.905875 
Q 280.321563 284.905875 280.321563 286.905875 
L 280.321563 300.584 
Q 280.321563 302.584 282.321563 302.584 
z
" style="fill:#ffffff;opacity:0.8;stroke:#cccccc;stroke-linejoin:miter;"/>
    </g>
    <g id="line2d_30">
     <path d="M 284.321563 293.004312 
L 304.321563 293.004312 
" style="fill:none;stroke:#0000ff;stroke-linecap:square;stroke-width:1.5;"/>
    </g>
    <g id="line2d_31"/>
    <g id="text_18">
     <!-- cumulative reward -->
     <g transform="translate(312.321563 296.504312)scale(0.1 -0.1)">
      <defs>
       <path d="M 3122 3366 
L 3122 2828 
Q 2878 2963 2633 3030 
Q 2388 3097 2138 3097 
Q 1578 3097 1268 2742 
Q 959 2388 959 1747 
Q 959 1106 1268 751 
Q 1578 397 2138 397 
Q 2388 397 2633 464 
Q 2878 531 3122 666 
L 3122 134 
Q 2881 22 2623 -34 
Q 2366 -91 2075 -91 
Q 1284 -91 818 406 
Q 353 903 353 1747 
Q 353 2603 823 3093 
Q 1294 3584 2113 3584 
Q 2378 3584 2631 3529 
Q 2884 3475 3122 3366 
z
" id="DejaVuSans-63" transform="scale(0.015625)"/>
      </defs>
      <use xlink:href="#DejaVuSans-63"/>
      <use x="54.980469" xlink:href="#DejaVuSans-75"/>
      <use x="118.359375" xlink:href="#DejaVuSans-6d"/>
      <use x="215.771484" xlink:href="#DejaVuSans-75"/>
      <use x="279.150391" xlink:href="#DejaVuSans-6c"/>
      <use x="306.933594" xlink:href="#DejaVuSans-61"/>
      <use x="368.212891" xlink:href="#DejaVuSans-74"/>
      <use x="407.421875" xlink:href="#DejaVuSans-69"/>
      <use x="435.205078" xlink:href="#DejaVuSans-76"/>
      <use x="494.384766" xlink:href="#DejaVuSans-65"/>
      <use x="555.908203" xlink:href="#DejaVuSans-20"/>
      <use x="587.695312" xlink:href="#DejaVuSans-72"/>
      <use x="626.558594" xlink:href="#DejaVuSans-65"/>
      <use x="688.082031" xlink:href="#DejaVuSans-77"/>
      <use x="769.869141" xlink:href="#DejaVuSans-61"/>
      <use x="831.148438" xlink:href="#DejaVuSans-72"/>
      <use x="870.511719" xlink:href="#DejaVuSans-64"/>
     </g>
    </g>
   </g>
  </g>
 </g>
 <defs>
  <clipPath id="pdd1b34f381">
   <rect height="266.112" width="357.12" x="57.6" y="41.472"/>
  </clipPath>
 </defs>
</svg>
