<?xml version="1.0" encoding="utf-8" standalone="no"?>
<!DOCTYPE svg PUBLIC "-//W3C//DTD SVG 1.1//EN"
  "http://www.w3.org/Graphics/SVG/1.1/DTD/svg11.dtd">
<svg height="345.6pt" version="1.1" viewBox="0 0 460.8 345.6" width="460.8pt" xmlns="http://www.w3.org/2000/svg" xmlns:xlink="http://www.w3.org/1999/xlink">
 <metadata>
  <rdf:RDF xmlns:cc="http://creativecommons.org/ns#" xmlns:dc="http://purl.org/dc/elements/1.1/" xmlns:rdf="http://www.w3.org/1999/02/22-rdf-syntax-ns#">
   <cc:Work>
    <dc:type rdf:resource="http://purl.org/dc/dcmitype/StillImage"/>
    <dc:date>2021-10-19T11:37:43.336972</dc:date>
    <dc:description>{"agent.algorithm": "RayProximalPolicyOptimization", "agent.algorithm.render_env": false, "agent.algorithm.batch_mode": "complete_episodes", "agent.algorithm.train_batch_size": 200, "agent.algorithm.optimizer": "Adam", "agent.algorithm.vf_clip_param": 5000, "agent.algorithm.model": {"fcnet_activation": "tanh", "fcnet_hiddens": [30, 30]}, "env.env_class": "SchedulerPolicyRayEnvironment", "env.env_config": {"solver_driver": "CMAdriver", "solver_driver_args": [10, 10, "schwefel"], "maximize": false, "steps": 50, "state_metrics_names": ["DifferenceOfBest", "SolverState"], "state_metrics_config": [[40, false, 1, true, true], [{"step_size": {"max": 5, "min": 1e-10}}]], "reward_metric": "Best", "reward_metric_config": [false, false], "memes_no": 1, "parameter_tune_config": {"step_size": {"max": 3, "min": 1e-10}}}}</dc:description>
    <dc:format>image/svg+xml</dc:format>
    <dc:creator>
     <cc:Agent>
      <dc:title>Matplotlib v3.4.2, https://matplotlib.org/</dc:title>
     </cc:Agent>
    </dc:creator>
   </cc:Work>
  </rdf:RDF>
 </metadata>
 <defs>
  <style type="text/css">*{stroke-linecap:butt;stroke-linejoin:round;}</style>
 </defs>
 <g id="figure_1">
  <g id="patch_1">
   <path d="M 0 345.6 
L 460.8 345.6 
L 460.8 0 
L 0 0 
z
" style="fill:#ffffff;"/>
  </g>
  <g id="axes_1">
   <g id="patch_2">
    <path d="M 57.6 307.584 
L 414.72 307.584 
L 414.72 41.472 
L 57.6 41.472 
z
" style="fill:#ffffff;"/>
   </g>
   <g id="matplotlib.axis_1">
    <g id="xtick_1">
     <g id="line2d_1">
      <path clip-path="url(#pde83c6fc2e)" d="M 57.6 307.584 
L 57.6 41.472 
" style="fill:none;stroke:#b0b0b0;stroke-linecap:square;stroke-width:0.8;"/>
     </g>
     <g id="line2d_2">
      <defs>
       <path d="M 0 0 
L 0 3.5 
" id="m1e6c2eb7cf" style="stroke:#000000;stroke-width:0.8;"/>
      </defs>
      <g>
       <use style="stroke:#000000;stroke-width:0.8;" x="57.6" xlink:href="#m1e6c2eb7cf" y="307.584"/>
      </g>
     </g>
     <g id="text_1">
      <!-- 0 -->
      <g transform="translate(54.41875 322.182437)scale(0.1 -0.1)">
       <defs>
        <path d="M 2034 4250 
Q 1547 4250 1301 3770 
Q 1056 3291 1056 2328 
Q 1056 1369 1301 889 
Q 1547 409 2034 409 
Q 2525 409 2770 889 
Q 3016 1369 3016 2328 
Q 3016 3291 2770 3770 
Q 2525 4250 2034 4250 
z
M 2034 4750 
Q 2819 4750 3233 4129 
Q 3647 3509 3647 2328 
Q 3647 1150 3233 529 
Q 2819 -91 2034 -91 
Q 1250 -91 836 529 
Q 422 1150 422 2328 
Q 422 3509 836 4129 
Q 1250 4750 2034 4750 
z
" id="DejaVuSans-30" transform="scale(0.015625)"/>
       </defs>
       <use xlink:href="#DejaVuSans-30"/>
      </g>
     </g>
    </g>
    <g id="xtick_2">
     <g id="line2d_3">
      <path clip-path="url(#pde83c6fc2e)" d="M 117.12 307.584 
L 117.12 41.472 
" style="fill:none;stroke:#b0b0b0;stroke-linecap:square;stroke-width:0.8;"/>
     </g>
     <g id="line2d_4">
      <g>
       <use style="stroke:#000000;stroke-width:0.8;" x="117.12" xlink:href="#m1e6c2eb7cf" y="307.584"/>
      </g>
     </g>
     <g id="text_2">
      <!-- 500 -->
      <g transform="translate(107.57625 322.182437)scale(0.1 -0.1)">
       <defs>
        <path d="M 691 4666 
L 3169 4666 
L 3169 4134 
L 1269 4134 
L 1269 2991 
Q 1406 3038 1543 3061 
Q 1681 3084 1819 3084 
Q 2600 3084 3056 2656 
Q 3513 2228 3513 1497 
Q 3513 744 3044 326 
Q 2575 -91 1722 -91 
Q 1428 -91 1123 -41 
Q 819 9 494 109 
L 494 744 
Q 775 591 1075 516 
Q 1375 441 1709 441 
Q 2250 441 2565 725 
Q 2881 1009 2881 1497 
Q 2881 1984 2565 2268 
Q 2250 2553 1709 2553 
Q 1456 2553 1204 2497 
Q 953 2441 691 2322 
L 691 4666 
z
" id="DejaVuSans-35" transform="scale(0.015625)"/>
       </defs>
       <use xlink:href="#DejaVuSans-35"/>
       <use x="63.623047" xlink:href="#DejaVuSans-30"/>
       <use x="127.246094" xlink:href="#DejaVuSans-30"/>
      </g>
     </g>
    </g>
    <g id="xtick_3">
     <g id="line2d_5">
      <path clip-path="url(#pde83c6fc2e)" d="M 176.64 307.584 
L 176.64 41.472 
" style="fill:none;stroke:#b0b0b0;stroke-linecap:square;stroke-width:0.8;"/>
     </g>
     <g id="line2d_6">
      <g>
       <use style="stroke:#000000;stroke-width:0.8;" x="176.64" xlink:href="#m1e6c2eb7cf" y="307.584"/>
      </g>
     </g>
     <g id="text_3">
      <!-- 1000 -->
      <g transform="translate(163.915 322.182437)scale(0.1 -0.1)">
       <defs>
        <path d="M 794 531 
L 1825 531 
L 1825 4091 
L 703 3866 
L 703 4441 
L 1819 4666 
L 2450 4666 
L 2450 531 
L 3481 531 
L 3481 0 
L 794 0 
L 794 531 
z
" id="DejaVuSans-31" transform="scale(0.015625)"/>
       </defs>
       <use xlink:href="#DejaVuSans-31"/>
       <use x="63.623047" xlink:href="#DejaVuSans-30"/>
       <use x="127.246094" xlink:href="#DejaVuSans-30"/>
       <use x="190.869141" xlink:href="#DejaVuSans-30"/>
      </g>
     </g>
    </g>
    <g id="xtick_4">
     <g id="line2d_7">
      <path clip-path="url(#pde83c6fc2e)" d="M 236.16 307.584 
L 236.16 41.472 
" style="fill:none;stroke:#b0b0b0;stroke-linecap:square;stroke-width:0.8;"/>
     </g>
     <g id="line2d_8">
      <g>
       <use style="stroke:#000000;stroke-width:0.8;" x="236.16" xlink:href="#m1e6c2eb7cf" y="307.584"/>
      </g>
     </g>
     <g id="text_4">
      <!-- 1500 -->
      <g transform="translate(223.435 322.182437)scale(0.1 -0.1)">
       <use xlink:href="#DejaVuSans-31"/>
       <use x="63.623047" xlink:href="#DejaVuSans-35"/>
       <use x="127.246094" xlink:href="#DejaVuSans-30"/>
       <use x="190.869141" xlink:href="#DejaVuSans-30"/>
      </g>
     </g>
    </g>
    <g id="xtick_5">
     <g id="line2d_9">
      <path clip-path="url(#pde83c6fc2e)" d="M 295.68 307.584 
L 295.68 41.472 
" style="fill:none;stroke:#b0b0b0;stroke-linecap:square;stroke-width:0.8;"/>
     </g>
     <g id="line2d_10">
      <g>
       <use style="stroke:#000000;stroke-width:0.8;" x="295.68" xlink:href="#m1e6c2eb7cf" y="307.584"/>
      </g>
     </g>
     <g id="text_5">
      <!-- 2000 -->
      <g transform="translate(282.955 322.182437)scale(0.1 -0.1)">
       <defs>
        <path d="M 1228 531 
L 3431 531 
L 3431 0 
L 469 0 
L 469 531 
Q 828 903 1448 1529 
Q 2069 2156 2228 2338 
Q 2531 2678 2651 2914 
Q 2772 3150 2772 3378 
Q 2772 3750 2511 3984 
Q 2250 4219 1831 4219 
Q 1534 4219 1204 4116 
Q 875 4013 500 3803 
L 500 4441 
Q 881 4594 1212 4672 
Q 1544 4750 1819 4750 
Q 2544 4750 2975 4387 
Q 3406 4025 3406 3419 
Q 3406 3131 3298 2873 
Q 3191 2616 2906 2266 
Q 2828 2175 2409 1742 
Q 1991 1309 1228 531 
z
" id="DejaVuSans-32" transform="scale(0.015625)"/>
       </defs>
       <use xlink:href="#DejaVuSans-32"/>
       <use x="63.623047" xlink:href="#DejaVuSans-30"/>
       <use x="127.246094" xlink:href="#DejaVuSans-30"/>
       <use x="190.869141" xlink:href="#DejaVuSans-30"/>
      </g>
     </g>
    </g>
    <g id="xtick_6">
     <g id="line2d_11">
      <path clip-path="url(#pde83c6fc2e)" d="M 355.2 307.584 
L 355.2 41.472 
" style="fill:none;stroke:#b0b0b0;stroke-linecap:square;stroke-width:0.8;"/>
     </g>
     <g id="line2d_12">
      <g>
       <use style="stroke:#000000;stroke-width:0.8;" x="355.2" xlink:href="#m1e6c2eb7cf" y="307.584"/>
      </g>
     </g>
     <g id="text_6">
      <!-- 2500 -->
      <g transform="translate(342.475 322.182437)scale(0.1 -0.1)">
       <use xlink:href="#DejaVuSans-32"/>
       <use x="63.623047" xlink:href="#DejaVuSans-35"/>
       <use x="127.246094" xlink:href="#DejaVuSans-30"/>
       <use x="190.869141" xlink:href="#DejaVuSans-30"/>
      </g>
     </g>
    </g>
    <g id="xtick_7">
     <g id="line2d_13">
      <path clip-path="url(#pde83c6fc2e)" d="M 414.72 307.584 
L 414.72 41.472 
" style="fill:none;stroke:#b0b0b0;stroke-linecap:square;stroke-width:0.8;"/>
     </g>
     <g id="line2d_14">
      <g>
       <use style="stroke:#000000;stroke-width:0.8;" x="414.72" xlink:href="#m1e6c2eb7cf" y="307.584"/>
      </g>
     </g>
     <g id="text_7">
      <!-- 3000 -->
      <g transform="translate(401.995 322.182437)scale(0.1 -0.1)">
       <defs>
        <path d="M 2597 2516 
Q 3050 2419 3304 2112 
Q 3559 1806 3559 1356 
Q 3559 666 3084 287 
Q 2609 -91 1734 -91 
Q 1441 -91 1130 -33 
Q 819 25 488 141 
L 488 750 
Q 750 597 1062 519 
Q 1375 441 1716 441 
Q 2309 441 2620 675 
Q 2931 909 2931 1356 
Q 2931 1769 2642 2001 
Q 2353 2234 1838 2234 
L 1294 2234 
L 1294 2753 
L 1863 2753 
Q 2328 2753 2575 2939 
Q 2822 3125 2822 3475 
Q 2822 3834 2567 4026 
Q 2313 4219 1838 4219 
Q 1578 4219 1281 4162 
Q 984 4106 628 3988 
L 628 4550 
Q 988 4650 1302 4700 
Q 1616 4750 1894 4750 
Q 2613 4750 3031 4423 
Q 3450 4097 3450 3541 
Q 3450 3153 3228 2886 
Q 3006 2619 2597 2516 
z
" id="DejaVuSans-33" transform="scale(0.015625)"/>
       </defs>
       <use xlink:href="#DejaVuSans-33"/>
       <use x="63.623047" xlink:href="#DejaVuSans-30"/>
       <use x="127.246094" xlink:href="#DejaVuSans-30"/>
       <use x="190.869141" xlink:href="#DejaVuSans-30"/>
      </g>
     </g>
    </g>
    <g id="text_8">
     <!-- Episodes -->
     <g transform="translate(213.917812 335.860562)scale(0.1 -0.1)">
      <defs>
       <path d="M 628 4666 
L 3578 4666 
L 3578 4134 
L 1259 4134 
L 1259 2753 
L 3481 2753 
L 3481 2222 
L 1259 2222 
L 1259 531 
L 3634 531 
L 3634 0 
L 628 0 
L 628 4666 
z
" id="DejaVuSans-45" transform="scale(0.015625)"/>
       <path d="M 1159 525 
L 1159 -1331 
L 581 -1331 
L 581 3500 
L 1159 3500 
L 1159 2969 
Q 1341 3281 1617 3432 
Q 1894 3584 2278 3584 
Q 2916 3584 3314 3078 
Q 3713 2572 3713 1747 
Q 3713 922 3314 415 
Q 2916 -91 2278 -91 
Q 1894 -91 1617 61 
Q 1341 213 1159 525 
z
M 3116 1747 
Q 3116 2381 2855 2742 
Q 2594 3103 2138 3103 
Q 1681 3103 1420 2742 
Q 1159 2381 1159 1747 
Q 1159 1113 1420 752 
Q 1681 391 2138 391 
Q 2594 391 2855 752 
Q 3116 1113 3116 1747 
z
" id="DejaVuSans-70" transform="scale(0.015625)"/>
       <path d="M 603 3500 
L 1178 3500 
L 1178 0 
L 603 0 
L 603 3500 
z
M 603 4863 
L 1178 4863 
L 1178 4134 
L 603 4134 
L 603 4863 
z
" id="DejaVuSans-69" transform="scale(0.015625)"/>
       <path d="M 2834 3397 
L 2834 2853 
Q 2591 2978 2328 3040 
Q 2066 3103 1784 3103 
Q 1356 3103 1142 2972 
Q 928 2841 928 2578 
Q 928 2378 1081 2264 
Q 1234 2150 1697 2047 
L 1894 2003 
Q 2506 1872 2764 1633 
Q 3022 1394 3022 966 
Q 3022 478 2636 193 
Q 2250 -91 1575 -91 
Q 1294 -91 989 -36 
Q 684 19 347 128 
L 347 722 
Q 666 556 975 473 
Q 1284 391 1588 391 
Q 1994 391 2212 530 
Q 2431 669 2431 922 
Q 2431 1156 2273 1281 
Q 2116 1406 1581 1522 
L 1381 1569 
Q 847 1681 609 1914 
Q 372 2147 372 2553 
Q 372 3047 722 3315 
Q 1072 3584 1716 3584 
Q 2034 3584 2315 3537 
Q 2597 3491 2834 3397 
z
" id="DejaVuSans-73" transform="scale(0.015625)"/>
       <path d="M 1959 3097 
Q 1497 3097 1228 2736 
Q 959 2375 959 1747 
Q 959 1119 1226 758 
Q 1494 397 1959 397 
Q 2419 397 2687 759 
Q 2956 1122 2956 1747 
Q 2956 2369 2687 2733 
Q 2419 3097 1959 3097 
z
M 1959 3584 
Q 2709 3584 3137 3096 
Q 3566 2609 3566 1747 
Q 3566 888 3137 398 
Q 2709 -91 1959 -91 
Q 1206 -91 779 398 
Q 353 888 353 1747 
Q 353 2609 779 3096 
Q 1206 3584 1959 3584 
z
" id="DejaVuSans-6f" transform="scale(0.015625)"/>
       <path d="M 2906 2969 
L 2906 4863 
L 3481 4863 
L 3481 0 
L 2906 0 
L 2906 525 
Q 2725 213 2448 61 
Q 2172 -91 1784 -91 
Q 1150 -91 751 415 
Q 353 922 353 1747 
Q 353 2572 751 3078 
Q 1150 3584 1784 3584 
Q 2172 3584 2448 3432 
Q 2725 3281 2906 2969 
z
M 947 1747 
Q 947 1113 1208 752 
Q 1469 391 1925 391 
Q 2381 391 2643 752 
Q 2906 1113 2906 1747 
Q 2906 2381 2643 2742 
Q 2381 3103 1925 3103 
Q 1469 3103 1208 2742 
Q 947 2381 947 1747 
z
" id="DejaVuSans-64" transform="scale(0.015625)"/>
       <path d="M 3597 1894 
L 3597 1613 
L 953 1613 
Q 991 1019 1311 708 
Q 1631 397 2203 397 
Q 2534 397 2845 478 
Q 3156 559 3463 722 
L 3463 178 
Q 3153 47 2828 -22 
Q 2503 -91 2169 -91 
Q 1331 -91 842 396 
Q 353 884 353 1716 
Q 353 2575 817 3079 
Q 1281 3584 2069 3584 
Q 2775 3584 3186 3129 
Q 3597 2675 3597 1894 
z
M 3022 2063 
Q 3016 2534 2758 2815 
Q 2500 3097 2075 3097 
Q 1594 3097 1305 2825 
Q 1016 2553 972 2059 
L 3022 2063 
z
" id="DejaVuSans-65" transform="scale(0.015625)"/>
      </defs>
      <use xlink:href="#DejaVuSans-45"/>
      <use x="63.183594" xlink:href="#DejaVuSans-70"/>
      <use x="126.660156" xlink:href="#DejaVuSans-69"/>
      <use x="154.443359" xlink:href="#DejaVuSans-73"/>
      <use x="206.542969" xlink:href="#DejaVuSans-6f"/>
      <use x="267.724609" xlink:href="#DejaVuSans-64"/>
      <use x="331.201172" xlink:href="#DejaVuSans-65"/>
      <use x="392.724609" xlink:href="#DejaVuSans-73"/>
     </g>
    </g>
   </g>
   <g id="matplotlib.axis_2">
    <g id="ytick_1">
     <g id="line2d_15">
      <path clip-path="url(#pde83c6fc2e)" d="M 57.6 284.491229 
L 414.72 284.491229 
" style="fill:none;stroke:#b0b0b0;stroke-linecap:square;stroke-width:0.8;"/>
     </g>
     <g id="line2d_16">
      <defs>
       <path d="M 0 0 
L -3.5 0 
" id="mf30c1cdb1f" style="stroke:#000000;stroke-width:0.8;"/>
      </defs>
      <g>
       <use style="stroke:#000000;stroke-width:0.8;" x="57.6" xlink:href="#mf30c1cdb1f" y="284.491229"/>
      </g>
     </g>
     <g id="text_9">
      <!-- −208400 -->
      <g transform="translate(4.045313 288.290448)scale(0.1 -0.1)">
       <defs>
        <path d="M 678 2272 
L 4684 2272 
L 4684 1741 
L 678 1741 
L 678 2272 
z
" id="DejaVuSans-2212" transform="scale(0.015625)"/>
        <path d="M 2034 2216 
Q 1584 2216 1326 1975 
Q 1069 1734 1069 1313 
Q 1069 891 1326 650 
Q 1584 409 2034 409 
Q 2484 409 2743 651 
Q 3003 894 3003 1313 
Q 3003 1734 2745 1975 
Q 2488 2216 2034 2216 
z
M 1403 2484 
Q 997 2584 770 2862 
Q 544 3141 544 3541 
Q 544 4100 942 4425 
Q 1341 4750 2034 4750 
Q 2731 4750 3128 4425 
Q 3525 4100 3525 3541 
Q 3525 3141 3298 2862 
Q 3072 2584 2669 2484 
Q 3125 2378 3379 2068 
Q 3634 1759 3634 1313 
Q 3634 634 3220 271 
Q 2806 -91 2034 -91 
Q 1263 -91 848 271 
Q 434 634 434 1313 
Q 434 1759 690 2068 
Q 947 2378 1403 2484 
z
M 1172 3481 
Q 1172 3119 1398 2916 
Q 1625 2713 2034 2713 
Q 2441 2713 2670 2916 
Q 2900 3119 2900 3481 
Q 2900 3844 2670 4047 
Q 2441 4250 2034 4250 
Q 1625 4250 1398 4047 
Q 1172 3844 1172 3481 
z
" id="DejaVuSans-38" transform="scale(0.015625)"/>
        <path d="M 2419 4116 
L 825 1625 
L 2419 1625 
L 2419 4116 
z
M 2253 4666 
L 3047 4666 
L 3047 1625 
L 3713 1625 
L 3713 1100 
L 3047 1100 
L 3047 0 
L 2419 0 
L 2419 1100 
L 313 1100 
L 313 1709 
L 2253 4666 
z
" id="DejaVuSans-34" transform="scale(0.015625)"/>
       </defs>
       <use xlink:href="#DejaVuSans-2212"/>
       <use x="83.789062" xlink:href="#DejaVuSans-32"/>
       <use x="147.412109" xlink:href="#DejaVuSans-30"/>
       <use x="211.035156" xlink:href="#DejaVuSans-38"/>
       <use x="274.658203" xlink:href="#DejaVuSans-34"/>
       <use x="338.28125" xlink:href="#DejaVuSans-30"/>
       <use x="401.904297" xlink:href="#DejaVuSans-30"/>
      </g>
     </g>
    </g>
    <g id="ytick_2">
     <g id="line2d_17">
      <path clip-path="url(#pde83c6fc2e)" d="M 57.6 230.635953 
L 414.72 230.635953 
" style="fill:none;stroke:#b0b0b0;stroke-linecap:square;stroke-width:0.8;"/>
     </g>
     <g id="line2d_18">
      <g>
       <use style="stroke:#000000;stroke-width:0.8;" x="57.6" xlink:href="#mf30c1cdb1f" y="230.635953"/>
      </g>
     </g>
     <g id="text_10">
      <!-- −208200 -->
      <g transform="translate(4.045313 234.435172)scale(0.1 -0.1)">
       <use xlink:href="#DejaVuSans-2212"/>
       <use x="83.789062" xlink:href="#DejaVuSans-32"/>
       <use x="147.412109" xlink:href="#DejaVuSans-30"/>
       <use x="211.035156" xlink:href="#DejaVuSans-38"/>
       <use x="274.658203" xlink:href="#DejaVuSans-32"/>
       <use x="338.28125" xlink:href="#DejaVuSans-30"/>
       <use x="401.904297" xlink:href="#DejaVuSans-30"/>
      </g>
     </g>
    </g>
    <g id="ytick_3">
     <g id="line2d_19">
      <path clip-path="url(#pde83c6fc2e)" d="M 57.6 176.780677 
L 414.72 176.780677 
" style="fill:none;stroke:#b0b0b0;stroke-linecap:square;stroke-width:0.8;"/>
     </g>
     <g id="line2d_20">
      <g>
       <use style="stroke:#000000;stroke-width:0.8;" x="57.6" xlink:href="#mf30c1cdb1f" y="176.780677"/>
      </g>
     </g>
     <g id="text_11">
      <!-- −208000 -->
      <g transform="translate(4.045313 180.579896)scale(0.1 -0.1)">
       <use xlink:href="#DejaVuSans-2212"/>
       <use x="83.789062" xlink:href="#DejaVuSans-32"/>
       <use x="147.412109" xlink:href="#DejaVuSans-30"/>
       <use x="211.035156" xlink:href="#DejaVuSans-38"/>
       <use x="274.658203" xlink:href="#DejaVuSans-30"/>
       <use x="338.28125" xlink:href="#DejaVuSans-30"/>
       <use x="401.904297" xlink:href="#DejaVuSans-30"/>
      </g>
     </g>
    </g>
    <g id="ytick_4">
     <g id="line2d_21">
      <path clip-path="url(#pde83c6fc2e)" d="M 57.6 122.925401 
L 414.72 122.925401 
" style="fill:none;stroke:#b0b0b0;stroke-linecap:square;stroke-width:0.8;"/>
     </g>
     <g id="line2d_22">
      <g>
       <use style="stroke:#000000;stroke-width:0.8;" x="57.6" xlink:href="#mf30c1cdb1f" y="122.925401"/>
      </g>
     </g>
     <g id="text_12">
      <!-- −207800 -->
      <g transform="translate(4.045313 126.72462)scale(0.1 -0.1)">
       <defs>
        <path d="M 525 4666 
L 3525 4666 
L 3525 4397 
L 1831 0 
L 1172 0 
L 2766 4134 
L 525 4134 
L 525 4666 
z
" id="DejaVuSans-37" transform="scale(0.015625)"/>
       </defs>
       <use xlink:href="#DejaVuSans-2212"/>
       <use x="83.789062" xlink:href="#DejaVuSans-32"/>
       <use x="147.412109" xlink:href="#DejaVuSans-30"/>
       <use x="211.035156" xlink:href="#DejaVuSans-37"/>
       <use x="274.658203" xlink:href="#DejaVuSans-38"/>
       <use x="338.28125" xlink:href="#DejaVuSans-30"/>
       <use x="401.904297" xlink:href="#DejaVuSans-30"/>
      </g>
     </g>
    </g>
    <g id="ytick_5">
     <g id="line2d_23">
      <path clip-path="url(#pde83c6fc2e)" d="M 57.6 69.070125 
L 414.72 69.070125 
" style="fill:none;stroke:#b0b0b0;stroke-linecap:square;stroke-width:0.8;"/>
     </g>
     <g id="line2d_24">
      <g>
       <use style="stroke:#000000;stroke-width:0.8;" x="57.6" xlink:href="#mf30c1cdb1f" y="69.070125"/>
      </g>
     </g>
     <g id="text_13">
      <!-- −207600 -->
      <g transform="translate(4.045313 72.869344)scale(0.1 -0.1)">
       <defs>
        <path d="M 2113 2584 
Q 1688 2584 1439 2293 
Q 1191 2003 1191 1497 
Q 1191 994 1439 701 
Q 1688 409 2113 409 
Q 2538 409 2786 701 
Q 3034 994 3034 1497 
Q 3034 2003 2786 2293 
Q 2538 2584 2113 2584 
z
M 3366 4563 
L 3366 3988 
Q 3128 4100 2886 4159 
Q 2644 4219 2406 4219 
Q 1781 4219 1451 3797 
Q 1122 3375 1075 2522 
Q 1259 2794 1537 2939 
Q 1816 3084 2150 3084 
Q 2853 3084 3261 2657 
Q 3669 2231 3669 1497 
Q 3669 778 3244 343 
Q 2819 -91 2113 -91 
Q 1303 -91 875 529 
Q 447 1150 447 2328 
Q 447 3434 972 4092 
Q 1497 4750 2381 4750 
Q 2619 4750 2861 4703 
Q 3103 4656 3366 4563 
z
" id="DejaVuSans-36" transform="scale(0.015625)"/>
       </defs>
       <use xlink:href="#DejaVuSans-2212"/>
       <use x="83.789062" xlink:href="#DejaVuSans-32"/>
       <use x="147.412109" xlink:href="#DejaVuSans-30"/>
       <use x="211.035156" xlink:href="#DejaVuSans-37"/>
       <use x="274.658203" xlink:href="#DejaVuSans-36"/>
       <use x="338.28125" xlink:href="#DejaVuSans-30"/>
       <use x="401.904297" xlink:href="#DejaVuSans-30"/>
      </g>
     </g>
    </g>
    <g id="text_14">
     <!-- Cumulative Reward -->
     <g transform="translate(-2.034375 223.275656)rotate(-90)scale(0.1 -0.1)">
      <defs>
       <path d="M 4122 4306 
L 4122 3641 
Q 3803 3938 3442 4084 
Q 3081 4231 2675 4231 
Q 1875 4231 1450 3742 
Q 1025 3253 1025 2328 
Q 1025 1406 1450 917 
Q 1875 428 2675 428 
Q 3081 428 3442 575 
Q 3803 722 4122 1019 
L 4122 359 
Q 3791 134 3420 21 
Q 3050 -91 2638 -91 
Q 1578 -91 968 557 
Q 359 1206 359 2328 
Q 359 3453 968 4101 
Q 1578 4750 2638 4750 
Q 3056 4750 3426 4639 
Q 3797 4528 4122 4306 
z
" id="DejaVuSans-43" transform="scale(0.015625)"/>
       <path d="M 544 1381 
L 544 3500 
L 1119 3500 
L 1119 1403 
Q 1119 906 1312 657 
Q 1506 409 1894 409 
Q 2359 409 2629 706 
Q 2900 1003 2900 1516 
L 2900 3500 
L 3475 3500 
L 3475 0 
L 2900 0 
L 2900 538 
Q 2691 219 2414 64 
Q 2138 -91 1772 -91 
Q 1169 -91 856 284 
Q 544 659 544 1381 
z
M 1991 3584 
L 1991 3584 
z
" id="DejaVuSans-75" transform="scale(0.015625)"/>
       <path d="M 3328 2828 
Q 3544 3216 3844 3400 
Q 4144 3584 4550 3584 
Q 5097 3584 5394 3201 
Q 5691 2819 5691 2113 
L 5691 0 
L 5113 0 
L 5113 2094 
Q 5113 2597 4934 2840 
Q 4756 3084 4391 3084 
Q 3944 3084 3684 2787 
Q 3425 2491 3425 1978 
L 3425 0 
L 2847 0 
L 2847 2094 
Q 2847 2600 2669 2842 
Q 2491 3084 2119 3084 
Q 1678 3084 1418 2786 
Q 1159 2488 1159 1978 
L 1159 0 
L 581 0 
L 581 3500 
L 1159 3500 
L 1159 2956 
Q 1356 3278 1631 3431 
Q 1906 3584 2284 3584 
Q 2666 3584 2933 3390 
Q 3200 3197 3328 2828 
z
" id="DejaVuSans-6d" transform="scale(0.015625)"/>
       <path d="M 603 4863 
L 1178 4863 
L 1178 0 
L 603 0 
L 603 4863 
z
" id="DejaVuSans-6c" transform="scale(0.015625)"/>
       <path d="M 2194 1759 
Q 1497 1759 1228 1600 
Q 959 1441 959 1056 
Q 959 750 1161 570 
Q 1363 391 1709 391 
Q 2188 391 2477 730 
Q 2766 1069 2766 1631 
L 2766 1759 
L 2194 1759 
z
M 3341 1997 
L 3341 0 
L 2766 0 
L 2766 531 
Q 2569 213 2275 61 
Q 1981 -91 1556 -91 
Q 1019 -91 701 211 
Q 384 513 384 1019 
Q 384 1609 779 1909 
Q 1175 2209 1959 2209 
L 2766 2209 
L 2766 2266 
Q 2766 2663 2505 2880 
Q 2244 3097 1772 3097 
Q 1472 3097 1187 3025 
Q 903 2953 641 2809 
L 641 3341 
Q 956 3463 1253 3523 
Q 1550 3584 1831 3584 
Q 2591 3584 2966 3190 
Q 3341 2797 3341 1997 
z
" id="DejaVuSans-61" transform="scale(0.015625)"/>
       <path d="M 1172 4494 
L 1172 3500 
L 2356 3500 
L 2356 3053 
L 1172 3053 
L 1172 1153 
Q 1172 725 1289 603 
Q 1406 481 1766 481 
L 2356 481 
L 2356 0 
L 1766 0 
Q 1100 0 847 248 
Q 594 497 594 1153 
L 594 3053 
L 172 3053 
L 172 3500 
L 594 3500 
L 594 4494 
L 1172 4494 
z
" id="DejaVuSans-74" transform="scale(0.015625)"/>
       <path d="M 191 3500 
L 800 3500 
L 1894 563 
L 2988 3500 
L 3597 3500 
L 2284 0 
L 1503 0 
L 191 3500 
z
" id="DejaVuSans-76" transform="scale(0.015625)"/>
       <path id="DejaVuSans-20" transform="scale(0.015625)"/>
       <path d="M 2841 2188 
Q 3044 2119 3236 1894 
Q 3428 1669 3622 1275 
L 4263 0 
L 3584 0 
L 2988 1197 
Q 2756 1666 2539 1819 
Q 2322 1972 1947 1972 
L 1259 1972 
L 1259 0 
L 628 0 
L 628 4666 
L 2053 4666 
Q 2853 4666 3247 4331 
Q 3641 3997 3641 3322 
Q 3641 2881 3436 2590 
Q 3231 2300 2841 2188 
z
M 1259 4147 
L 1259 2491 
L 2053 2491 
Q 2509 2491 2742 2702 
Q 2975 2913 2975 3322 
Q 2975 3731 2742 3939 
Q 2509 4147 2053 4147 
L 1259 4147 
z
" id="DejaVuSans-52" transform="scale(0.015625)"/>
       <path d="M 269 3500 
L 844 3500 
L 1563 769 
L 2278 3500 
L 2956 3500 
L 3675 769 
L 4391 3500 
L 4966 3500 
L 4050 0 
L 3372 0 
L 2619 2869 
L 1863 0 
L 1184 0 
L 269 3500 
z
" id="DejaVuSans-77" transform="scale(0.015625)"/>
       <path d="M 2631 2963 
Q 2534 3019 2420 3045 
Q 2306 3072 2169 3072 
Q 1681 3072 1420 2755 
Q 1159 2438 1159 1844 
L 1159 0 
L 581 0 
L 581 3500 
L 1159 3500 
L 1159 2956 
Q 1341 3275 1631 3429 
Q 1922 3584 2338 3584 
Q 2397 3584 2469 3576 
Q 2541 3569 2628 3553 
L 2631 2963 
z
" id="DejaVuSans-72" transform="scale(0.015625)"/>
      </defs>
      <use xlink:href="#DejaVuSans-43"/>
      <use x="69.824219" xlink:href="#DejaVuSans-75"/>
      <use x="133.203125" xlink:href="#DejaVuSans-6d"/>
      <use x="230.615234" xlink:href="#DejaVuSans-75"/>
      <use x="293.994141" xlink:href="#DejaVuSans-6c"/>
      <use x="321.777344" xlink:href="#DejaVuSans-61"/>
      <use x="383.056641" xlink:href="#DejaVuSans-74"/>
      <use x="422.265625" xlink:href="#DejaVuSans-69"/>
      <use x="450.048828" xlink:href="#DejaVuSans-76"/>
      <use x="509.228516" xlink:href="#DejaVuSans-65"/>
      <use x="570.751953" xlink:href="#DejaVuSans-20"/>
      <use x="602.539062" xlink:href="#DejaVuSans-52"/>
      <use x="667.521484" xlink:href="#DejaVuSans-65"/>
      <use x="729.044922" xlink:href="#DejaVuSans-77"/>
      <use x="810.832031" xlink:href="#DejaVuSans-61"/>
      <use x="872.111328" xlink:href="#DejaVuSans-72"/>
      <use x="911.474609" xlink:href="#DejaVuSans-64"/>
     </g>
    </g>
   </g>
   <g id="line2d_25">
    <path clip-path="url(#pde83c6fc2e)" d="M 57.6 176.688602 
L 57.71904 222.091922 
L 57.83808 151.637177 
L 57.95712 195.411056 
L 58.07616 176.688602 
L 58.1952 222.091922 
L 58.31424 151.637177 
L 58.43328 195.411056 
L 58.55232 176.688602 
L 58.67136 222.091922 
L 58.7904 151.637177 
L 58.90944 195.411056 
L 59.02848 176.688602 
L 59.14752 222.091922 
L 59.26656 151.637177 
L 59.3856 195.411056 
L 59.50464 176.688602 
L 59.62368 222.091922 
L 59.74272 151.637177 
L 59.86176 195.411056 
L 59.9808 176.688602 
L 60.09984 222.091922 
L 60.21888 151.637177 
L 60.33792 195.411056 
L 60.45696 176.688602 
L 60.576 222.091922 
L 60.69504 151.637177 
L 60.81408 195.411056 
L 60.93312 176.688602 
L 61.05216 222.091922 
L 61.1712 151.637177 
L 61.29024 195.411056 
L 61.40928 176.688602 
L 61.52832 222.091922 
L 61.64736 151.637177 
L 61.7664 195.411056 
L 61.88544 176.688602 
L 62.00448 222.091922 
L 62.12352 151.637177 
L 62.24256 195.411056 
L 62.3616 176.688602 
L 62.48064 222.091922 
L 62.59968 151.637177 
L 62.71872 195.411056 
L 62.83776 176.688602 
L 62.9568 222.091922 
L 63.07584 151.637177 
L 63.19488 195.411056 
L 63.31392 176.688602 
L 63.43296 222.091922 
L 63.552 151.637177 
L 63.67104 195.411056 
L 63.79008 176.688602 
L 63.90912 222.091922 
L 64.02816 151.637177 
L 64.1472 195.411056 
L 64.26624 176.688602 
L 64.38528 222.091922 
L 64.50432 151.637177 
L 64.62336 195.411056 
L 64.7424 176.688602 
L 64.86144 222.091922 
L 64.98048 151.637177 
L 65.09952 195.411056 
L 65.21856 176.688602 
L 65.3376 222.091922 
L 65.45664 151.637177 
L 65.57568 195.411056 
L 65.69472 176.688602 
L 65.81376 222.091922 
L 65.9328 151.637177 
L 66.05184 195.411056 
L 66.17088 176.688602 
L 66.28992 222.091922 
L 66.40896 151.637177 
L 66.528 195.411056 
L 66.64704 176.688602 
L 66.76608 222.091922 
L 66.88512 151.637177 
L 67.00416 195.411056 
L 67.1232 176.688602 
L 67.24224 222.091922 
L 67.36128 151.637177 
L 67.48032 195.411056 
L 67.59936 176.688602 
L 67.7184 222.091922 
L 67.83744 151.637177 
L 67.95648 195.411056 
L 68.07552 176.688602 
L 68.19456 222.091922 
L 68.3136 151.637177 
L 68.43264 195.411056 
L 68.55168 176.688602 
L 68.67072 222.091922 
L 68.78976 151.637177 
L 68.9088 195.411056 
L 69.02784 176.688602 
L 69.14688 222.091922 
L 69.26592 151.637177 
L 69.38496 195.411056 
L 69.62304 87.1521 
L 69.74208 139.847452 
L 69.86112 108.86775 
L 69.98016 144.859895 
L 70.0992 145.745147 
L 70.33728 155.05078 
L 70.45632 138.116241 
L 70.57536 138.023255 
L 70.6944 138.546178 
L 70.93248 150.218791 
L 71.05152 144.039995 
L 71.17056 150.395719 
L 71.2896 134.062648 
L 71.40864 170.5905 
L 71.52768 137.797512 
L 71.64672 175.203367 
L 71.8848 126.08075 
L 72.00384 163.087812 
L 72.12288 134.170666 
L 72.24192 152.46856 
L 72.36096 133.370819 
L 72.48 155.490166 
L 72.59904 148.033368 
L 72.71808 176.305459 
L 72.83712 94.933642 
L 72.95616 150.163899 
L 73.0752 92.86345 
L 73.31328 203.526412 
L 73.43232 127.287132 
L 73.55136 212.284099 
L 73.78944 119.87189 
L 73.90848 138.389535 
L 74.02752 118.776891 
L 74.14656 136.196899 
L 74.2656 193.708701 
L 74.38464 113.82076 
L 74.50368 171.493526 
L 74.62272 114.267909 
L 74.74176 191.654818 
L 74.97984 145.999729 
L 75.21792 131.999754 
L 75.33696 108.286965 
L 75.456 139.50917 
L 75.57504 108.046372 
L 75.69408 230.652524 
L 75.81312 101.057452 
L 75.93216 184.675626 
L 76.0512 101.626585 
L 76.28928 140.7994 
L 76.40832 120.027004 
L 76.6464 153.038557 
L 76.76544 147.32766 
L 76.88448 170.885363 
L 77.12256 118.48773 
L 77.2416 166.748029 
L 77.36064 122.270329 
L 77.59872 197.760129 
L 77.71776 89.757556 
L 77.8368 182.292418 
L 77.95584 84.790475 
L 78.07488 112.329831 
L 78.19392 111.029937 
L 78.432 97.733125 
L 78.55104 105.115056 
L 78.67008 134.476434 
L 78.78912 94.389291 
L 79.0272 174.32903 
L 79.14624 163.25569 
L 79.26528 175.110024 
L 79.38432 165.977441 
L 79.50336 227.686332 
L 79.6224 179.083992 
L 79.74144 231.02746 
L 79.97952 172.144118 
L 80.09856 163.48856 
L 80.2176 172.612507 
L 80.33664 172.373833 
L 80.45568 161.335375 
L 80.57472 112.216448 
L 80.8128 128.856317 
L 80.93184 139.65082 
L 81.05088 112.241407 
L 81.28896 121.104321 
L 81.408 187.104178 
L 81.52704 144.434683 
L 81.64608 163.667278 
L 81.76512 135.784659 
L 81.88416 171.093208 
L 82.0032 141.472626 
L 82.12224 150.390177 
L 82.24128 141.411282 
L 82.36032 160.194982 
L 82.47936 124.018672 
L 82.5984 160.170129 
L 82.71744 128.18633 
L 83.07456 163.043651 
L 83.1936 145.821851 
L 83.31264 189.822195 
L 83.55072 117.498457 
L 83.66976 134.049365 
L 83.90784 197.075375 
L 84.02688 204.029929 
L 84.14592 202.039771 
L 84.26496 176.499137 
L 84.384 208.498793 
L 84.50304 183.813721 
L 84.62208 211.164076 
L 84.86016 126.99392 
L 84.9792 191.481647 
L 85.09824 104.36664 
L 85.33632 200.817307 
L 85.45536 144.036992 
L 85.5744 179.621668 
L 85.69344 129.375053 
L 85.81248 144.928373 
L 85.93152 116.723534 
L 86.05056 166.02721 
L 86.28864 126.688362 
L 86.40768 157.043763 
L 86.52672 115.103308 
L 86.88384 186.786161 
L 87.24096 117.703153 
L 87.36 138.599364 
L 87.47904 119.512148 
L 87.71712 164.76947 
L 87.83616 116.293999 
L 87.9552 154.81801 
L 88.07424 149.122921 
L 88.19328 125.000357 
L 88.31232 144.858733 
L 88.43136 115.840172 
L 88.5504 148.670057 
L 88.66944 143.401118 
L 88.90752 183.562442 
L 89.02656 135.529499 
L 89.1456 179.9211 
L 89.26464 153.567197 
L 89.50272 211.323767 
L 89.62176 212.033167 
L 89.7408 227.320128 
L 89.85984 205.467946 
L 90.09792 96.197022 
L 90.21696 166.409173 
L 90.336 88.18113 
L 90.45504 102.875836 
L 90.57408 161.668841 
L 90.69312 85.096301 
L 90.81216 191.605265 
L 91.05024 119.280753 
L 91.16928 116.18924 
L 91.28832 118.340997 
L 91.5264 190.499518 
L 91.64544 185.218184 
L 91.76448 157.891038 
L 91.88352 177.842517 
L 92.00256 173.220138 
L 92.24064 158.389604 
L 92.35968 152.747185 
L 92.47872 124.898055 
L 92.59776 127.210438 
L 92.7168 125.542749 
L 92.83584 184.584378 
L 92.95488 182.660717 
L 93.07392 245.472252 
L 93.312 140.84507 
L 93.43104 151.562605 
L 93.66912 138.700992 
L 93.9072 183.062594 
L 94.14528 217.647387 
L 94.26432 132.893229 
L 94.38336 152.257541 
L 94.5024 137.377866 
L 94.62144 160.655586 
L 94.74048 147.25827 
L 94.85952 118.126261 
L 94.97856 166.512431 
L 95.0976 113.914102 
L 95.21664 174.013447 
L 95.33568 144.371603 
L 95.45472 199.305046 
L 95.57376 165.473499 
L 95.6928 257.499688 
L 95.81184 106.130626 
L 95.93088 263.208477 
L 96.04992 108.296033 
L 96.16896 167.838854 
L 96.288 153.627441 
L 96.40704 155.204703 
L 96.64512 193.200033 
L 96.76416 124.369657 
L 96.8832 232.869689 
L 97.12128 104.074624 
L 97.24032 131.606741 
L 97.35936 107.933746 
L 97.71648 140.76764 
L 97.83552 117.280404 
L 97.95456 146.902448 
L 98.0736 239.435344 
L 98.19264 124.790245 
L 98.31168 225.715989 
L 98.43072 144.10573 
L 98.78784 221.405337 
L 98.90688 207.044494 
L 99.02592 254.644617 
L 99.14496 139.739578 
L 99.264 186.165646 
L 99.38304 137.493579 
L 99.50208 159.127162 
L 99.62112 149.277994 
L 99.8592 165.988919 
L 99.97824 212.155677 
L 100.09728 151.056239 
L 100.21632 182.126514 
L 100.4544 119.423109 
L 100.57344 144.813071 
L 100.69248 123.298902 
L 101.16864 200.093884 
L 101.52576 134.124153 
L 101.6448 149.458744 
L 101.76384 122.686761 
L 101.88288 127.342088 
L 102.00192 150.531911 
L 102.12096 124.415064 
L 102.35904 158.905334 
L 102.47808 154.656714 
L 102.59712 154.460006 
L 102.71616 198.042594 
L 102.8352 137.482327 
L 102.95424 138.829256 
L 103.07328 145.111727 
L 103.19232 141.946702 
L 103.31136 129.373911 
L 103.4304 145.763232 
L 103.54944 126.949242 
L 103.66848 167.822767 
L 103.78752 130.911639 
L 103.90656 192.430959 
L 104.0256 136.263485 
L 104.14464 199.892009 
L 104.26368 102.153046 
L 104.38272 111.741472 
L 104.50176 99.156301 
L 104.73984 161.105884 
L 104.85888 79.607959 
L 104.97792 169.975332 
L 105.09696 80.495344 
L 105.216 157.369954 
L 105.33504 128.233425 
L 105.45408 167.980241 
L 105.57312 145.819156 
L 105.69216 149.255662 
L 105.8112 205.32005 
L 105.93024 199.114921 
L 106.16832 126.030361 
L 106.28736 127.377135 
L 106.4064 139.66693 
L 106.52544 137.221964 
L 106.64448 192.977948 
L 106.76352 115.267262 
L 106.88256 207.01381 
L 107.0016 92.963908 
L 107.23968 194.933553 
L 107.35872 132.197816 
L 107.47776 176.38419 
L 107.5968 153.78737 
L 107.71584 78.814731 
L 107.83488 159.19933 
L 107.95392 73.488632 
L 108.192 165.310225 
L 108.31104 114.052543 
L 108.43008 172.357963 
L 108.54912 113.44047 
L 108.66816 163.547603 
L 108.7872 117.037818 
L 109.02528 180.702997 
L 109.26336 203.599447 
L 109.50144 146.084147 
L 109.62048 213.463083 
L 109.73952 147.557755 
L 109.85856 171.856642 
L 110.09664 118.621917 
L 110.21568 147.563644 
L 110.33472 140.766816 
L 110.45376 206.329914 
L 110.5728 163.912382 
L 110.69184 169.672282 
L 110.81088 184.711796 
L 110.92992 224.626315 
L 111.04896 140.661177 
L 111.168 237.708368 
L 111.28704 144.53082 
L 111.40608 216.262921 
L 111.52512 92.813977 
L 111.64416 205.474087 
L 111.7632 86.79461 
L 111.88224 184.461755 
L 112.00128 156.90558 
L 112.12032 181.098626 
L 112.3584 154.650521 
L 112.47744 183.144501 
L 112.71552 149.879584 
L 112.83456 147.856592 
L 112.9536 120.827497 
L 113.07264 160.874514 
L 113.19168 133.966581 
L 113.42976 178.415125 
L 113.5488 157.478796 
L 113.66784 185.711084 
L 113.90592 107.388243 
L 114.02496 149.527554 
L 114.144 141.216786 
L 114.26304 141.805739 
L 114.38208 164.302001 
L 114.50112 120.056243 
L 114.62016 158.917603 
L 114.7392 122.478706 
L 114.85824 128.134424 
L 114.97728 113.56734 
L 115.21536 167.860264 
L 115.3344 164.473471 
L 115.45344 135.014287 
L 115.57248 157.259274 
L 115.69152 136.778345 
L 115.81056 220.2288 
L 115.9296 109.149226 
L 116.04864 242.238994 
L 116.16768 103.263694 
L 116.28672 154.85144 
L 116.40576 111.625146 
L 116.5248 154.538991 
L 116.64384 129.91384 
L 116.76288 155.193165 
L 116.88192 129.411888 
L 117.35808 189.623501 
L 117.59616 168.231817 
L 117.7152 130.538461 
L 117.95328 145.655481 
L 118.07232 102.547686 
L 118.19136 120.527292 
L 118.3104 115.634834 
L 118.42944 136.435241 
L 118.54848 134.483889 
L 118.66752 114.03788 
L 118.78656 136.8448 
L 118.9056 113.425757 
L 119.02464 153.276312 
L 119.14368 72.18416 
L 119.26272 181.443081 
L 119.38176 85.327306 
L 119.5008 155.87725 
L 119.61984 159.298966 
L 119.73888 159.480618 
L 119.85792 172.868271 
L 119.97696 127.942912 
L 120.096 147.535283 
L 120.21504 144.605991 
L 120.33408 147.524953 
L 120.45312 154.509655 
L 120.6912 123.294854 
L 120.81024 119.068394 
L 120.92928 200.175165 
L 121.04832 146.09553 
L 121.16736 168.33842 
L 121.2864 164.854851 
L 121.40544 93.193983 
L 121.52448 135.618837 
L 121.64352 93.115779 
L 121.76256 149.926303 
L 121.8816 141.143737 
L 122.00064 196.314898 
L 122.11968 145.361894 
L 122.23872 177.776129 
L 122.35776 105.885785 
L 122.4768 148.296129 
L 122.59584 105.84918 
L 122.71488 174.111032 
L 122.95296 123.338161 
L 123.072 118.256113 
L 123.19104 160.214668 
L 123.31008 160.331349 
L 123.42912 155.862635 
L 123.54816 175.395635 
L 123.6672 176.539092 
L 123.78624 104.140672 
L 123.90528 180.181313 
L 124.02432 85.567128 
L 124.14336 181.882365 
L 124.38144 105.218272 
L 124.50048 158.252398 
L 124.61952 122.183394 
L 124.73856 138.534104 
L 124.8576 122.670937 
L 125.09568 133.534637 
L 125.21472 114.690584 
L 125.33376 153.701944 
L 125.4528 133.355452 
L 125.57184 179.984418 
L 125.80992 156.757349 
L 125.92896 158.043005 
L 126.048 133.468181 
L 126.16704 189.94095 
L 126.28608 104.091696 
L 126.40512 136.721788 
L 126.52416 107.017899 
L 126.6432 109.280886 
L 126.76224 154.620866 
L 126.88128 125.441788 
L 127.00032 172.415409 
L 127.11936 154.491666 
L 127.2384 188.81972 
L 127.35744 139.105954 
L 127.47648 211.218572 
L 127.59552 183.315264 
L 127.71456 273.366809 
L 127.8336 150.729674 
L 127.95264 230.414853 
L 128.19072 148.499559 
L 128.30976 172.618924 
L 128.4288 127.264497 
L 128.54784 196.704702 
L 128.66688 138.02851 
L 128.78592 188.309296 
L 128.90496 137.007082 
L 129.024 147.485159 
L 129.14304 236.499759 
L 129.26208 166.818681 
L 129.38112 192.460914 
L 129.50016 178.606806 
L 129.73824 114.398353 
L 129.85728 128.704999 
L 130.09536 199.776613 
L 130.2144 196.834768 
L 130.33344 183.259594 
L 130.57152 123.414961 
L 130.92864 165.778307 
L 131.04768 193.825324 
L 131.16672 155.166008 
L 131.28576 213.317204 
L 131.52384 111.382582 
L 131.64288 151.965327 
L 131.76192 116.455733 
L 132.11904 176.556648 
L 132.23808 169.986572 
L 132.35712 119.814033 
L 132.47616 172.744297 
L 132.5952 121.287971 
L 132.83328 237.927166 
L 132.95232 122.339639 
L 133.07136 208.153335 
L 133.1904 132.024633 
L 133.30944 179.071761 
L 133.42848 133.685248 
L 133.54752 217.453079 
L 133.66656 208.450969 
L 133.7856 181.705627 
L 133.90464 189.688801 
L 134.02368 181.015303 
L 134.14272 133.7306 
L 134.3808 174.083896 
L 134.49984 135.872482 
L 134.61888 161.225333 
L 134.73792 233.939917 
L 134.85696 100.25876 
L 134.976 197.79036 
L 135.09504 128.844164 
L 135.21408 161.034904 
L 135.33312 124.494814 
L 135.45216 167.901187 
L 135.5712 133.94049 
L 135.69024 197.000947 
L 135.80928 95.057187 
L 135.92832 170.881646 
L 136.04736 109.731975 
L 136.28544 148.599341 
L 136.40448 147.779081 
L 136.52352 189.651343 
L 136.64256 184.68695 
L 136.7616 159.48873 
L 136.88064 179.75918 
L 136.99968 158.581973 
L 137.11872 211.59234 
L 137.23776 183.168537 
L 137.3568 194.105855 
L 137.47584 216.653633 
L 137.59488 160.285527 
L 137.71392 188.610918 
L 137.83296 177.450928 
L 137.952 197.00068 
L 138.07104 124.138457 
L 138.19008 189.193216 
L 138.30912 142.055383 
L 138.5472 135.385751 
L 138.66624 162.864701 
L 138.78528 125.751618 
L 138.90432 153.021019 
L 139.02336 135.192455 
L 139.1424 183.809977 
L 139.26144 137.354735 
L 139.38048 200.5423 
L 139.49952 180.187727 
L 139.61856 108.816544 
L 139.7376 180.409832 
L 139.85664 129.60441 
L 139.97568 245.320453 
L 140.09472 190.927503 
L 140.21376 240.190989 
L 140.57088 128.201222 
L 140.68992 166.438727 
L 140.80896 142.669261 
L 140.928 90.720687 
L 141.04704 128.421758 
L 141.16608 106.410566 
L 141.40416 153.360258 
L 141.5232 132.529256 
L 141.64224 168.722761 
L 141.76128 133.097617 
L 141.88032 156.953109 
L 141.99936 138.78414 
L 142.1184 158.933715 
L 142.23744 135.846482 
L 142.35648 186.129122 
L 142.47552 116.843931 
L 142.59456 180.158876 
L 142.7136 102.67481 
L 142.83264 129.206084 
L 142.95168 100.616477 
L 143.07072 139.976582 
L 143.18976 93.481575 
L 143.3088 155.015746 
L 143.42784 143.248553 
L 143.54688 154.719999 
L 143.66592 107.122376 
L 143.904 117.86201 
L 144.02304 109.475773 
L 144.14208 111.446837 
L 144.26112 152.332362 
L 144.38016 69.735956 
L 144.4992 183.889347 
L 144.61824 69.69768 
L 144.85632 155.731722 
L 144.97536 135.648609 
L 145.0944 139.480592 
L 145.21344 105.970478 
L 145.33248 153.256104 
L 145.45152 130.386787 
L 145.57056 130.9986 
L 145.6896 204.364211 
L 145.80864 187.909597 
L 145.92768 236.192197 
L 146.16576 131.914147 
L 146.2848 155.125059 
L 146.40384 115.738248 
L 146.52288 145.782793 
L 146.64192 145.540166 
L 146.76096 142.860434 
L 146.88 194.410484 
L 146.99904 97.626765 
L 147.23712 154.468299 
L 147.35616 128.673932 
L 147.4752 132.420508 
L 147.59424 99.398158 
L 147.71328 124.880023 
L 147.83232 117.717588 
L 147.95136 144.251312 
L 148.0704 205.529625 
L 148.18944 131.381856 
L 148.30848 217.686754 
L 148.42752 128.992802 
L 148.54656 190.339159 
L 148.6656 153.776021 
L 148.78464 152.368451 
L 148.90368 173.651268 
L 149.14176 123.066848 
L 149.2608 199.197257 
L 149.37984 122.893221 
L 149.49888 133.086858 
L 149.61792 128.872016 
L 149.73696 171.099325 
L 149.856 121.311151 
L 149.97504 137.083154 
L 150.09408 173.517975 
L 150.21312 135.10877 
L 150.33216 155.571714 
L 150.4512 153.271089 
L 150.57024 189.568008 
L 150.68928 128.139378 
L 150.80832 218.328028 
L 150.92736 75.764448 
L 151.0464 209.529564 
L 151.16544 76.849664 
L 151.28448 193.285049 
L 151.40352 172.492869 
L 151.52256 178.636717 
L 151.6416 204.149948 
L 151.76064 139.209845 
L 151.87968 154.56941 
L 151.99872 153.117808 
L 152.11776 169.427518 
L 152.2368 119.862524 
L 152.35584 152.744187 
L 152.71296 101.863259 
L 152.832 108.24841 
L 152.95104 159.449389 
L 153.07008 110.463935 
L 153.30816 175.779912 
L 153.4272 183.627073 
L 153.54624 168.20243 
L 153.66528 227.571411 
L 153.78432 192.480916 
L 153.90336 195.223918 
L 154.0224 173.02423 
L 154.14144 193.573787 
L 154.37952 117.954399 
L 154.49856 147.723213 
L 154.6176 112.021779 
L 154.73664 142.519974 
L 154.85568 143.655446 
L 154.97472 141.448055 
L 155.09376 186.8598 
L 155.33184 146.43564 
L 155.45088 146.97436 
L 155.56992 194.738386 
L 155.808 150.413452 
L 155.92704 173.435919 
L 156.16512 148.711107 
L 156.28416 82.931474 
L 156.4032 189.403555 
L 156.52224 102.748981 
L 156.64128 130.486802 
L 156.76032 200.045441 
L 156.87936 157.725088 
L 156.9984 183.530787 
L 157.11744 141.212132 
L 157.23648 160.963832 
L 157.35552 140.161937 
L 157.5936 176.891801 
L 157.71264 132.25809 
L 157.83168 183.228427 
L 157.95072 127.733113 
L 158.1888 147.834146 
L 158.30784 126.023231 
L 158.42688 135.450644 
L 158.54592 158.537029 
L 158.66496 141.741795 
L 159.02208 186.679389 
L 159.14112 157.599486 
L 159.26016 165.621048 
L 159.3792 143.185314 
L 159.49824 72.060077 
L 159.61728 138.242719 
L 159.73632 71.053987 
L 159.9744 145.914157 
L 160.09344 166.954094 
L 160.21248 161.77866 
L 160.33152 171.19115 
L 160.45056 196.81316 
L 160.5696 171.037357 
L 160.68864 210.937422 
L 160.92672 130.950491 
L 161.04576 165.030281 
L 161.1648 116.85866 
L 161.28384 177.639915 
L 161.40288 172.723696 
L 161.52192 183.404983 
L 161.76 164.232831 
L 161.87904 63.648 
L 161.99808 133.362738 
L 162.11712 68.894166 
L 162.23616 142.85317 
L 162.3552 140.971786 
L 162.47424 113.733535 
L 162.59328 113.014457 
L 162.71232 115.186061 
L 162.83136 93.789188 
L 162.9504 181.884109 
L 163.06944 106.104919 
L 163.30752 188.280347 
L 163.42656 183.046974 
L 163.5456 196.724137 
L 163.66464 238.846474 
L 163.78368 151.678987 
L 163.90272 159.462336 
L 164.02176 157.23123 
L 164.1408 181.133609 
L 164.25984 165.664837 
L 164.37888 182.777718 
L 164.49792 161.022539 
L 164.61696 161.49791 
L 164.85504 133.198847 
L 164.97408 157.349235 
L 165.3312 116.075875 
L 165.45024 125.79939 
L 165.56928 112.941695 
L 165.68832 159.333839 
L 165.80736 144.226437 
L 165.9264 186.676629 
L 166.16448 98.888593 
L 166.28352 98.788701 
L 166.40256 98.294199 
L 166.5216 102.787436 
L 166.64064 164.472954 
L 166.75968 106.830405 
L 166.87872 178.193958 
L 166.99776 113.803041 
L 167.1168 157.366925 
L 167.23584 112.831703 
L 167.35488 171.422031 
L 167.47392 142.748953 
L 167.59296 177.906487 
L 167.712 103.989706 
L 167.83104 168.636142 
L 167.95008 109.457822 
L 168.18816 135.197611 
L 168.3072 133.396894 
L 168.42624 139.743905 
L 168.54528 167.768925 
L 168.66432 167.700269 
L 168.78336 174.472116 
L 168.9024 165.296065 
L 169.02144 122.78968 
L 169.25952 161.596973 
L 169.37856 142.59388 
L 169.4976 160.784806 
L 169.61664 147.985876 
L 169.73568 158.002194 
L 169.85472 142.092574 
L 169.97376 165.425192 
L 170.21184 130.875441 
L 170.33088 131.970973 
L 170.56896 180.42924 
L 170.688 164.368796 
L 170.80704 196.614003 
L 170.92608 127.432623 
L 171.04512 137.032047 
L 171.16416 119.788709 
L 171.40224 167.040619 
L 171.52128 116.029267 
L 171.64032 233.855397 
L 171.75936 109.980127 
L 171.8784 121.249026 
L 171.99744 67.252579 
L 172.11648 152.080224 
L 172.23552 72.569909 
L 172.4736 195.279009 
L 172.59264 138.114987 
L 172.71168 178.685988 
L 172.83072 93.981681 
L 172.94976 136.332717 
L 173.0688 116.732465 
L 173.18784 178.558035 
L 173.30688 171.093563 
L 173.42592 149.408331 
L 173.54496 182.133903 
L 173.664 140.347131 
L 173.78304 163.046199 
L 173.90208 131.224493 
L 174.02112 178.855898 
L 174.14016 141.848586 
L 174.2592 140.473797 
L 174.37824 179.454879 
L 174.49728 122.757153 
L 174.61632 159.416053 
L 174.73536 150.957548 
L 174.8544 101.230604 
L 174.97344 137.497125 
L 175.09248 116.39724 
L 175.21152 141.588861 
L 175.33056 119.998593 
L 175.4496 155.963789 
L 175.68768 107.105712 
L 175.80672 143.837324 
L 176.28288 94.321164 
L 176.40192 141.091385 
L 176.52096 118.420785 
L 176.64 162.722643 
L 176.75904 132.011435 
L 176.87808 131.004189 
L 176.99712 102.571024 
L 177.11616 173.051457 
L 177.2352 130.358492 
L 177.35424 161.829919 
L 177.47328 115.980222 
L 177.59232 153.196899 
L 177.71136 119.894331 
L 177.8304 186.800744 
L 177.94944 126.425747 
L 178.06848 199.373412 
L 178.18752 149.512979 
L 178.30656 205.844208 
L 178.54464 157.022207 
L 178.66368 165.532865 
L 178.78272 160.739167 
L 178.90176 146.444084 
L 179.0208 93.769641 
L 179.13984 136.653201 
L 179.25888 106.40896 
L 179.49696 147.262219 
L 179.616 129.895571 
L 179.73504 136.869574 
L 179.85408 126.081092 
L 179.97312 127.071402 
L 180.09216 150.03454 
L 180.33024 128.482395 
L 180.44928 146.261483 
L 180.56832 144.053306 
L 180.8064 167.147564 
L 181.04448 130.173405 
L 181.16352 167.986823 
L 181.28256 138.245244 
L 181.4016 162.660035 
L 181.63968 137.570951 
L 181.75872 134.101971 
L 181.87776 175.029455 
L 181.9968 149.601922 
L 182.11584 208.056536 
L 182.23488 127.131737 
L 182.35392 176.615238 
L 182.592 163.022628 
L 182.71104 141.848543 
L 182.83008 96.377763 
L 182.94912 124.513046 
L 183.06816 93.391621 
L 183.1872 106.431606 
L 183.54432 208.816288 
L 183.66336 148.584807 
L 183.7824 171.603575 
L 183.90144 157.349898 
L 184.02048 164.347582 
L 184.13952 208.582614 
L 184.73472 127.969418 
L 184.85376 275.619595 
L 184.9728 102.095026 
L 185.21088 274.686168 
L 185.32992 114.810081 
L 185.44896 169.531317 
L 185.68704 108.85318 
L 185.80608 141.21786 
L 185.92512 102.415173 
L 186.04416 116.164977 
L 186.28224 190.801694 
L 186.40128 147.121473 
L 186.52032 192.317337 
L 186.63936 125.964367 
L 186.7584 175.516361 
L 186.87744 150.91976 
L 186.99648 155.301436 
L 187.11552 148.383032 
L 187.23456 165.597034 
L 187.3536 128.223019 
L 187.59168 164.24331 
L 187.71072 175.566301 
L 187.82976 133.218453 
L 187.9488 158.818861 
L 188.06784 139.919184 
L 188.18688 141.837937 
L 188.30592 146.263395 
L 188.42496 133.465439 
L 188.66304 211.985358 
L 189.02016 161.875772 
L 189.1392 228.886237 
L 189.25824 174.84862 
L 189.37728 210.678068 
L 189.61536 131.865516 
L 189.7344 181.051847 
L 189.85344 117.69759 
L 190.09152 197.659461 
L 190.21056 185.612439 
L 190.3296 201.64674 
L 190.44864 180.424777 
L 190.56768 89.719825 
L 190.68672 184.265623 
L 190.80576 99.261421 
L 190.9248 126.953406 
L 191.04384 107.288506 
L 191.16288 181.496669 
L 191.28192 119.864887 
L 191.40096 121.438731 
L 191.52 136.031308 
L 191.75808 100.204194 
L 191.99616 194.492711 
L 192.1152 169.628461 
L 192.23424 214.255495 
L 192.35328 151.898456 
L 192.47232 149.690879 
L 192.59136 162.675059 
L 192.7104 138.10428 
L 192.82944 199.241874 
L 192.94848 199.201901 
L 193.06752 155.939147 
L 193.18656 207.93671 
L 193.3056 102.78778 
L 193.42464 112.410263 
L 193.54368 144.761249 
L 193.66272 110.94631 
L 193.78176 111.978071 
L 193.9008 99.210668 
L 194.01984 135.357435 
L 194.13888 104.979145 
L 194.25792 108.018063 
L 194.37696 153.267546 
L 194.496 115.619946 
L 194.73408 235.829661 
L 194.85312 82.88008 
L 194.97216 175.023804 
L 195.0912 80.061715 
L 195.32928 155.417079 
L 195.44832 159.342206 
L 195.56736 168.614047 
L 195.6864 112.456188 
L 195.80544 108.766963 
L 195.92448 100.441397 
L 196.2816 160.433535 
L 196.40064 132.551793 
L 196.51968 153.901831 
L 196.63872 205.15541 
L 196.75776 151.942975 
L 196.8768 180.171972 
L 196.99584 124.440161 
L 197.23392 119.420926 
L 197.35296 107.966594 
L 197.472 145.035426 
L 197.59104 141.846279 
L 197.71008 208.54474 
L 197.82912 125.216946 
L 197.94816 137.177323 
L 198.0672 182.747626 
L 198.18624 122.525426 
L 198.30528 186.543666 
L 198.42432 124.982537 
L 198.54336 195.558052 
L 198.6624 105.353804 
L 198.78144 167.053475 
L 198.90048 119.364755 
L 199.01952 178.630194 
L 199.13856 155.560867 
L 199.2576 210.650355 
L 199.37664 160.612172 
L 199.49568 164.979335 
L 199.61472 161.025868 
L 199.8528 205.620177 
L 199.97184 191.683862 
L 200.09088 127.529957 
L 200.20992 191.427167 
L 200.32896 130.347827 
L 200.448 192.346915 
L 200.56704 88.942845 
L 200.68608 194.23078 
L 200.80512 83.168759 
L 201.0432 173.596459 
L 201.16224 153.530495 
L 201.28128 157.665919 
L 201.40032 193.84741 
L 201.51936 100.946647 
L 201.6384 205.556759 
L 201.75744 108.010461 
L 201.87648 116.184941 
L 201.99552 144.13599 
L 202.11456 100.450752 
L 202.2336 139.572276 
L 202.35264 92.625069 
L 202.47168 169.600448 
L 202.59072 103.913152 
L 202.70976 158.276939 
L 202.8288 120.551782 
L 202.94784 134.395381 
L 203.06688 99.168534 
L 203.30496 208.766828 
L 203.424 112.757426 
L 203.54304 176.29694 
L 203.66208 104.212732 
L 203.78112 106.253429 
L 203.90016 114.912388 
L 204.0192 98.008568 
L 204.13824 113.313377 
L 204.25728 163.949819 
L 204.37632 139.51647 
L 204.49536 144.596017 
L 204.6144 173.191329 
L 204.73344 169.240119 
L 204.85248 185.957721 
L 204.97152 169.739965 
L 205.09056 196.818384 
L 205.2096 131.525146 
L 205.32864 128.844952 
L 205.44768 143.002916 
L 205.56672 118.227029 
L 205.68576 151.258241 
L 205.8048 149.089298 
L 205.92384 171.249494 
L 206.04288 145.18813 
L 206.16192 181.366464 
L 206.28096 151.042408 
L 206.4 151.499698 
L 206.51904 175.282736 
L 206.75712 132.814639 
L 206.87616 145.438678 
L 206.9952 112.37302 
L 207.11424 170.637189 
L 207.23328 107.084956 
L 207.35232 157.206564 
L 207.47136 120.794046 
L 207.70944 186.676929 
L 207.82848 143.818561 
L 207.94752 179.262208 
L 208.06656 142.380941 
L 208.30464 138.054996 
L 208.54272 184.595874 
L 208.66176 154.90499 
L 208.7808 200.925561 
L 208.89984 173.288664 
L 209.01888 175.587227 
L 209.13792 101.540464 
L 209.25696 180.35703 
L 209.376 91.031375 
L 209.61408 158.62254 
L 209.73312 177.810928 
L 209.85216 157.749634 
L 209.9712 162.302097 
L 210.09024 196.579012 
L 210.20928 156.296057 
L 210.32832 197.82241 
L 210.5664 140.971342 
L 210.68544 181.089175 
L 210.80448 156.565636 
L 210.92352 190.558657 
L 211.04256 130.134296 
L 211.1616 194.075271 
L 211.28064 137.632634 
L 211.39968 143.47249 
L 211.51872 111.752104 
L 211.63776 155.536337 
L 211.87584 96.522587 
L 211.99488 134.823085 
L 212.11392 111.28117 
L 212.23296 127.88476 
L 212.352 206.276805 
L 212.47104 110.309838 
L 212.59008 148.949526 
L 212.70912 113.703661 
L 212.82816 228.248588 
L 212.9472 212.978667 
L 213.06624 255.427266 
L 213.30432 82.857532 
L 213.42336 123.512913 
L 213.5424 85.348514 
L 213.78048 128.872326 
L 213.89952 120.262273 
L 214.1376 135.419293 
L 214.25664 113.525607 
L 214.37568 175.542566 
L 214.49472 100.232251 
L 214.61376 189.045709 
L 214.85184 153.252534 
L 214.97088 177.416191 
L 215.08992 141.024846 
L 215.20896 171.798634 
L 215.328 112.501924 
L 215.44704 239.972311 
L 215.56608 119.70677 
L 215.68512 179.96559 
L 215.80416 98.728787 
L 215.9232 184.705842 
L 216.04224 122.386652 
L 216.16128 260.274374 
L 216.28032 156.207143 
L 216.39936 206.883531 
L 216.5184 131.638253 
L 216.63744 174.753099 
L 216.75648 163.822643 
L 216.87552 197.737739 
L 216.99456 183.01146 
L 217.1136 136.441933 
L 217.23264 144.560339 
L 217.35168 170.372417 
L 217.58976 119.700015 
L 217.82784 129.739551 
L 218.06592 103.06331 
L 218.304 116.971892 
L 218.42304 105.04996 
L 218.66112 186.974328 
L 219.01824 142.062178 
L 219.13728 234.272759 
L 219.25632 143.748682 
L 219.37536 177.998637 
L 219.4944 128.190174 
L 219.61344 127.386091 
L 219.73248 155.233323 
L 219.85152 135.022163 
L 219.97056 95.930985 
L 220.0896 148.155623 
L 220.20864 93.625641 
L 220.32768 174.420861 
L 220.44672 152.520246 
L 220.56576 163.576194 
L 220.6848 147.250342 
L 220.80384 177.624466 
L 220.92288 102.335273 
L 221.04192 172.206755 
L 221.16096 104.40176 
L 221.28 175.427965 
L 221.39904 151.641407 
L 221.51808 204.87912 
L 221.63712 162.296335 
L 221.75616 226.547389 
L 221.99424 142.769328 
L 222.11328 182.967359 
L 222.35136 136.800706 
L 222.4704 183.073596 
L 222.58944 108.937548 
L 222.94656 231.023405 
L 223.0656 130.545501 
L 223.18464 254.012887 
L 223.42272 124.59287 
L 223.54176 148.342027 
L 223.77984 118.242509 
L 223.89888 170.282741 
L 224.01792 108.585896 
L 224.13696 194.4216 
L 224.37504 109.820101 
L 224.49408 131.405686 
L 224.61312 118.314858 
L 224.73216 118.507812 
L 224.8512 142.096169 
L 224.97024 135.784863 
L 225.08928 139.803421 
L 225.20832 151.345262 
L 225.32736 174.254656 
L 225.4464 165.184532 
L 225.56544 172.499079 
L 225.68448 104.364431 
L 225.80352 204.377602 
L 225.92256 105.013891 
L 226.0416 197.479082 
L 226.16064 161.756456 
L 226.27968 197.029555 
L 226.39872 126.732049 
L 226.51776 214.417615 
L 226.6368 131.920097 
L 226.75584 142.135175 
L 226.87488 133.041346 
L 226.99392 144.497759 
L 227.11296 120.985965 
L 227.232 140.022401 
L 227.35104 127.197716 
L 227.70816 206.871902 
L 227.8272 201.430457 
L 227.94624 191.902166 
L 228.06528 127.497737 
L 228.18432 129.880332 
L 228.30336 115.443151 
L 228.54144 145.333227 
L 228.66048 238.865465 
L 228.77952 171.723235 
L 228.89856 221.210446 
L 229.0176 216.645454 
L 229.13664 161.218772 
L 229.25568 236.357547 
L 229.6128 135.528695 
L 229.73184 144.09117 
L 229.85088 139.598626 
L 229.96992 191.470297 
L 230.08896 92.993688 
L 230.208 200.338566 
L 230.32704 109.342082 
L 230.44608 115.836564 
L 230.56512 145.345995 
L 230.68416 117.399171 
L 230.8032 159.228213 
L 230.92224 134.828063 
L 231.04128 87.053933 
L 231.16032 134.527773 
L 231.27936 95.124604 
L 231.3984 146.640283 
L 231.51744 107.123592 
L 231.63648 140.69229 
L 231.75552 124.981479 
L 231.87456 165.018047 
L 232.11264 137.128909 
L 232.23168 170.607234 
L 232.46976 145.383058 
L 232.5888 196.467905 
L 232.70784 170.458172 
L 232.82688 111.119333 
L 232.94592 173.615123 
L 233.06496 100.264732 
L 233.184 180.29797 
L 233.54112 99.155826 
L 233.7792 180.82343 
L 233.89824 145.07193 
L 234.01728 160.317729 
L 234.13632 136.862256 
L 234.3744 195.283844 
L 234.49344 165.653232 
L 234.61248 192.042122 
L 234.73152 187.581737 
L 234.9696 151.757032 
L 235.08864 164.075113 
L 235.20768 164.4862 
L 235.32672 98.240412 
L 235.44576 166.228809 
L 235.5648 97.448882 
L 235.68384 93.799344 
L 235.80288 155.252931 
L 235.92192 106.224306 
L 236.16 146.276833 
L 236.27904 154.721526 
L 236.39808 136.192536 
L 236.51712 171.598077 
L 236.7552 107.62352 
L 236.99328 123.50059 
L 237.11232 113.410422 
L 237.23136 161.431499 
L 237.3504 133.09857 
L 237.46944 182.981386 
L 237.70752 133.820958 
L 237.82656 175.79269 
L 237.9456 133.326185 
L 238.06464 242.647916 
L 238.18368 90.871313 
L 238.30272 190.323714 
L 238.42176 100.695688 
L 238.65984 154.66873 
L 238.77888 124.156713 
L 239.01696 225.557807 
L 239.136 166.792162 
L 239.25504 215.753668 
L 239.37408 153.85983 
L 239.49312 206.592627 
L 239.61216 145.055368 
L 239.7312 206.370613 
L 239.85024 158.901315 
L 239.96928 164.940012 
L 240.08832 192.654062 
L 240.20736 175.20271 
L 240.44544 195.452765 
L 240.56448 133.69062 
L 240.68352 145.902353 
L 240.80256 116.286196 
L 241.04064 142.742782 
L 241.15968 159.195227 
L 241.27872 157.62526 
L 241.39776 147.00592 
L 241.63584 184.566372 
L 241.75488 200.061479 
L 241.87392 177.801865 
L 241.99296 191.136499 
L 242.112 160.752275 
L 242.23104 175.038555 
L 242.46912 100.011723 
L 242.58816 130.048111 
L 242.7072 109.786469 
L 242.82624 157.396574 
L 242.94528 149.453 
L 243.06432 160.661598 
L 243.18336 150.230207 
L 243.3024 130.032556 
L 243.42144 133.527302 
L 243.54048 164.03432 
L 243.65952 150.333668 
L 243.77856 96.026548 
L 243.8976 133.317443 
L 244.01664 89.617998 
L 244.13568 132.425553 
L 244.25472 132.562007 
L 244.37376 197.023007 
L 244.4928 134.605332 
L 244.61184 196.009443 
L 244.73088 148.024537 
L 244.84992 147.45177 
L 244.96896 143.07514 
L 245.088 169.976832 
L 245.20704 169.625081 
L 245.32608 144.394895 
L 245.44512 198.112575 
L 245.6832 100.665347 
L 245.80224 171.444199 
L 245.92128 124.713552 
L 246.15936 169.996397 
L 246.2784 162.450907 
L 246.39744 193.954232 
L 246.63552 104.897583 
L 246.75456 156.651559 
L 246.8736 114.167053 
L 246.99264 213.897218 
L 247.11168 170.504634 
L 247.23072 172.360359 
L 247.34976 188.957014 
L 247.4688 182.786298 
L 247.70688 121.337255 
L 247.82592 132.892793 
L 248.064 90.568226 
L 248.18304 95.300559 
L 248.30208 88.948618 
L 248.42112 99.501107 
L 248.77824 218.115251 
L 248.89728 164.27872 
L 249.01632 177.714074 
L 249.13536 140.406996 
L 249.2544 144.502498 
L 249.37344 142.900945 
L 249.49248 104.119915 
L 249.61152 160.786802 
L 249.73056 115.060355 
L 249.8496 161.699285 
L 249.96864 115.244173 
L 250.08768 151.602903 
L 250.20672 136.028601 
L 250.56384 160.926689 
L 250.68288 158.485092 
L 250.92096 186.359154 
L 251.04 166.98267 
L 251.15904 228.32472 
L 251.51616 131.236179 
L 251.75424 153.382057 
L 251.87328 137.052095 
L 251.99232 213.603255 
L 252.11136 136.096444 
L 252.2304 170.231154 
L 252.34944 147.801696 
L 252.46848 191.633866 
L 252.58752 130.768268 
L 252.70656 180.796068 
L 252.8256 139.954503 
L 252.94464 173.78296 
L 253.18272 137.874651 
L 253.30176 188.337447 
L 253.4208 164.672291 
L 253.53984 187.641288 
L 253.77792 140.100738 
L 253.89696 125.751325 
L 254.016 141.010185 
L 254.13504 116.007296 
L 254.25408 231.018994 
L 254.37312 150.884989 
L 254.49216 204.079978 
L 254.73024 138.751281 
L 254.84928 126.090062 
L 254.96832 138.882308 
L 255.08736 102.43785 
L 255.2064 105.42842 
L 255.32544 164.174268 
L 255.44448 105.943504 
L 255.56352 160.711716 
L 255.8016 101.012114 
L 255.92064 119.992093 
L 256.03968 110.1104 
L 256.15872 172.960577 
L 256.27776 127.539048 
L 256.3968 177.85011 
L 256.51584 145.099882 
L 256.63488 156.703444 
L 256.75392 123.148136 
L 256.87296 192.071802 
L 256.992 127.232013 
L 257.11104 131.82796 
L 257.23008 158.539869 
L 257.34912 160.136787 
L 257.46816 142.783727 
L 257.5872 153.135591 
L 257.70624 78.126262 
L 257.82528 183.206918 
L 257.94432 84.514617 
L 258.06336 161.917739 
L 258.1824 99.887361 
L 258.30144 148.324949 
L 258.42048 103.885697 
L 258.53952 125.317635 
L 258.65856 205.340585 
L 258.7776 164.683834 
L 258.89664 193.168111 
L 259.01568 138.692587 
L 259.13472 212.946518 
L 259.25376 128.755252 
L 259.3728 213.82923 
L 259.49184 110.246744 
L 259.61088 192.357887 
L 259.72992 97.15445 
L 259.84896 193.178498 
L 259.968 130.106693 
L 260.08704 183.047761 
L 260.20608 113.037344 
L 260.44416 180.436306 
L 260.5632 154.326506 
L 260.68224 192.080675 
L 260.80128 141.894539 
L 260.92032 151.199776 
L 261.03936 142.496773 
L 261.1584 145.79418 
L 261.27744 167.404966 
L 261.39648 103.642934 
L 261.51552 145.755937 
L 261.63456 102.694427 
L 261.87264 168.154781 
L 261.99168 103.513599 
L 262.11072 190.486211 
L 262.22976 112.555772 
L 262.3488 120.379678 
L 262.46784 154.444342 
L 262.58688 104.53757 
L 262.70592 182.150604 
L 262.82496 99.378752 
L 262.944 185.24786 
L 263.06304 93.06312 
L 263.30112 189.339549 
L 263.42016 196.291985 
L 263.5392 163.637957 
L 263.77728 199.590958 
L 263.89632 114.432272 
L 264.01536 166.681071 
L 264.1344 106.400429 
L 264.37248 187.445105 
L 264.49152 171.16093 
L 264.61056 191.315219 
L 264.7296 112.006335 
L 264.84864 114.429737 
L 264.96768 93.693354 
L 265.08672 149.85102 
L 265.20576 151.011891 
L 265.3248 218.736748 
L 265.44384 137.119373 
L 265.56288 224.346438 
L 265.68192 136.182512 
L 265.80096 167.54812 
L 265.92 165.473503 
L 266.15808 215.59469 
L 266.39616 187.65623 
L 266.5152 192.841972 
L 266.63424 111.723235 
L 266.75328 158.009084 
L 266.99136 130.618297 
L 267.1104 220.738161 
L 267.34848 170.729307 
L 267.46752 169.847934 
L 267.58656 140.744073 
L 267.7056 162.395992 
L 267.82464 157.882556 
L 268.06272 110.028925 
L 268.18176 115.417041 
L 268.3008 139.248337 
L 268.53888 110.708105 
L 268.65792 134.90557 
L 268.77696 127.896116 
L 268.896 130.518998 
L 269.13408 188.875072 
L 269.25312 171.359833 
L 269.37216 175.230545 
L 269.4912 118.214686 
L 269.61024 189.38316 
L 269.72928 140.65552 
L 269.96736 207.01457 
L 270.0864 139.775009 
L 270.20544 222.214393 
L 270.32448 126.050157 
L 270.44352 121.683855 
L 270.56256 104.506907 
L 270.6816 126.618527 
L 270.80064 116.054014 
L 270.91968 159.120656 
L 271.03872 147.936573 
L 271.15776 191.178518 
L 271.39584 112.1047 
L 271.51488 100.721252 
L 271.63392 123.666561 
L 271.75296 124.46196 
L 271.872 105.289612 
L 271.99104 121.083903 
L 272.11008 121.370304 
L 272.34816 153.529058 
L 272.4672 139.738115 
L 272.58624 149.904022 
L 272.70528 124.721794 
L 272.82432 134.62028 
L 272.94336 114.073539 
L 273.0624 161.921307 
L 273.30048 93.907054 
L 273.41952 142.587835 
L 273.53856 135.938111 
L 273.6576 145.913476 
L 273.77664 125.603837 
L 273.89568 125.098609 
L 274.01472 139.133949 
L 274.2528 101.434848 
L 274.37184 253.303689 
L 274.49088 116.955805 
L 274.60992 238.963493 
L 274.72896 110.205473 
L 274.848 148.903743 
L 274.96704 150.812625 
L 275.08608 123.514736 
L 275.20512 156.791691 
L 275.32416 158.226099 
L 275.56224 150.082982 
L 275.68128 182.863745 
L 275.91936 154.961395 
L 276.0384 204.160031 
L 276.15744 118.758173 
L 276.27648 138.506126 
L 276.39552 121.149192 
L 276.51456 143.759282 
L 276.6336 113.545475 
L 276.75264 140.882988 
L 276.87168 111.802006 
L 277.2288 187.065629 
L 277.46688 173.517752 
L 277.58592 128.692237 
L 277.70496 172.0871 
L 277.824 152.549695 
L 277.94304 166.145244 
L 278.06208 111.767763 
L 278.18112 127.167937 
L 278.30016 105.410815 
L 278.65728 205.425639 
L 278.77632 137.134419 
L 278.89536 207.478789 
L 279.0144 180.80658 
L 279.13344 129.182701 
L 279.25248 192.765969 
L 279.49056 109.432519 
L 279.6096 104.813453 
L 279.72864 118.379244 
L 279.84768 113.878928 
L 279.96672 185.107142 
L 280.08576 160.690324 
L 280.2048 185.598438 
L 280.32384 178.634955 
L 280.44288 98.462973 
L 280.56192 161.87264 
L 280.68096 94.68209 
L 280.8 145.151774 
L 280.91904 148.191344 
L 281.03808 170.288457 
L 281.15712 134.826435 
L 281.3952 179.791957 
L 281.51424 173.403959 
L 281.63328 178.12319 
L 281.75232 134.500251 
L 281.87136 162.962949 
L 281.9904 118.384054 
L 282.22848 135.074071 
L 282.34752 98.152683 
L 282.46656 136.348553 
L 282.5856 114.189284 
L 282.70464 135.389418 
L 282.82368 129.721949 
L 282.94272 90.647086 
L 283.06176 131.24883 
L 283.1808 94.039554 
L 283.41888 181.912316 
L 283.53792 138.464513 
L 283.65696 245.45906 
L 283.89504 146.846015 
L 284.01408 212.294867 
L 284.3712 112.324918 
L 284.49024 157.101908 
L 284.72832 121.975679 
L 285.20448 166.762771 
L 285.44256 135.08524 
L 285.68064 146.330152 
L 285.91872 170.179204 
L 286.03776 143.224028 
L 286.27584 245.897906 
L 286.39488 159.03722 
L 286.51392 257.464437 
L 286.63296 137.826225 
L 286.752 235.58934 
L 286.87104 122.508585 
L 286.99008 137.940577 
L 287.10912 112.02983 
L 287.22816 141.372945 
L 287.3472 111.198061 
L 287.46624 179.351457 
L 287.58528 144.29101 
L 287.70432 192.412532 
L 287.82336 143.672683 
L 288.06144 217.245447 
L 288.18048 137.249019 
L 288.29952 214.029644 
L 288.5376 126.25402 
L 288.65664 121.523465 
L 288.77568 98.84114 
L 288.89472 130.177587 
L 289.01376 121.515766 
L 289.1328 168.850526 
L 289.25184 133.80554 
L 289.37088 166.078926 
L 289.48992 121.028064 
L 289.60896 213.674888 
L 289.728 155.176943 
L 289.84704 152.822593 
L 289.96608 113.171555 
L 290.08512 120.473286 
L 290.20416 117.862215 
L 290.3232 129.576606 
L 290.44224 125.530251 
L 290.56128 192.620621 
L 290.68032 146.208384 
L 290.79936 235.621552 
L 290.9184 146.290143 
L 291.03744 164.638946 
L 291.15648 123.049851 
L 291.39456 166.879882 
L 291.5136 178.921628 
L 291.63264 144.361829 
L 291.75168 216.986963 
L 291.98976 178.95602 
L 292.1088 242.695085 
L 292.34688 134.609323 
L 292.46592 138.852613 
L 292.58496 123.334402 
L 292.82304 127.055651 
L 293.18016 113.964792 
L 293.2992 113.83791 
L 293.41824 138.462684 
L 293.53728 117.875811 
L 293.77536 142.33947 
L 293.8944 183.562698 
L 294.01344 143.14371 
L 294.13248 214.082912 
L 294.4896 136.685231 
L 294.60864 151.064479 
L 294.72768 116.217359 
L 294.84672 167.757721 
L 294.96576 115.824145 
L 295.0848 198.166822 
L 295.20384 133.740804 
L 295.32288 201.987241 
L 295.44192 154.020856 
L 295.56096 200.75134 
L 295.79904 111.203896 
L 295.91808 184.310734 
L 296.03712 101.138411 
L 296.2752 145.996755 
L 296.39424 118.351286 
L 296.51328 209.811181 
L 296.63232 98.508797 
L 296.75136 124.212415 
L 296.8704 115.642727 
L 296.98944 120.909144 
L 297.22752 149.086232 
L 297.34656 129.515371 
L 297.4656 179.540775 
L 297.58464 95.941994 
L 297.70368 123.610982 
L 297.82272 124.00895 
L 298.17984 193.956382 
L 298.41792 168.843084 
L 298.53696 207.421321 
L 298.656 177.427274 
L 298.77504 189.379497 
L 299.01312 158.106723 
L 299.13216 127.882342 
L 299.48928 185.257328 
L 299.60832 120.427115 
L 299.72736 223.015207 
L 299.8464 112.895066 
L 299.96544 180.755432 
L 300.20352 154.856477 
L 300.4416 136.598485 
L 300.56064 134.89759 
L 300.67968 166.92797 
L 300.79872 152.748589 
L 301.0368 186.43723 
L 301.15584 164.374889 
L 301.27488 183.946861 
L 301.39392 138.227225 
L 301.51296 166.246016 
L 301.632 154.009757 
L 301.75104 162.622031 
L 301.87008 154.565689 
L 301.98912 134.287648 
L 302.10816 135.901153 
L 302.2272 180.749194 
L 302.46528 158.263512 
L 302.58432 168.358338 
L 302.70336 123.417966 
L 302.94144 171.813784 
L 303.06048 138.441106 
L 303.17952 138.68882 
L 303.29856 157.842295 
L 303.4176 148.54253 
L 303.53664 155.81218 
L 303.77472 184.111084 
L 303.89376 122.131872 
L 304.0128 147.15528 
L 304.13184 111.476049 
L 304.25088 165.899949 
L 304.36992 137.777523 
L 304.48896 196.416087 
L 304.608 130.333023 
L 304.72704 155.215511 
L 304.84608 126.726025 
L 304.96512 144.837964 
L 305.08416 133.134423 
L 305.2032 168.093279 
L 305.32224 164.784938 
L 305.44128 198.496749 
L 305.67936 108.068055 
L 305.7984 162.251361 
L 305.91744 98.480179 
L 306.15552 183.418826 
L 306.27456 133.947938 
L 306.3936 163.207906 
L 306.51264 142.637724 
L 306.63168 201.272438 
L 306.86976 168.890751 
L 306.9888 214.497276 
L 307.22688 132.962683 
L 307.584 161.28766 
L 307.70304 152.145919 
L 307.94112 156.782978 
L 308.06016 223.827075 
L 308.1792 142.912728 
L 308.29824 208.061849 
L 308.41728 135.506902 
L 308.65536 175.286319 
L 308.89344 126.309968 
L 309.01248 181.812725 
L 309.48864 110.157568 
L 309.60768 142.842637 
L 309.72672 120.673558 
L 309.9648 180.568137 
L 310.08384 138.966871 
L 310.20288 186.701033 
L 310.32192 186.624373 
L 310.44096 231.667764 
L 310.56 157.797497 
L 310.67904 205.779118 
L 310.79808 159.004587 
L 310.91712 207.191339 
L 311.03616 140.833285 
L 311.1552 186.271626 
L 311.39328 121.306925 
L 311.51232 128.132885 
L 311.63136 160.078546 
L 311.7504 137.472012 
L 311.86944 160.321541 
L 312.10752 130.759494 
L 312.3456 144.868126 
L 312.46464 183.788145 
L 312.58368 142.104969 
L 312.70272 161.660943 
L 312.9408 126.578225 
L 313.17888 144.43473 
L 313.29792 131.529371 
L 313.41696 198.343794 
L 313.536 110.477356 
L 313.77408 212.599683 
L 314.01216 155.198497 
L 314.1312 201.24852 
L 314.25024 132.869025 
L 314.36928 142.717259 
L 314.48832 188.162883 
L 314.7264 119.170228 
L 314.84544 179.442839 
L 314.96448 105.565325 
L 315.08352 173.739132 
L 315.20256 116.367278 
L 315.3216 151.578837 
L 315.44064 141.964212 
L 315.55968 203.852516 
L 315.79776 144.990578 
L 315.9168 188.022628 
L 316.03584 183.238352 
L 316.15488 124.732748 
L 316.27392 201.311031 
L 316.39296 125.870037 
L 316.512 146.286593 
L 316.63104 122.810088 
L 316.75008 178.305578 
L 316.86912 106.116029 
L 317.1072 228.962578 
L 317.22624 140.382351 
L 317.34528 191.698849 
L 317.46432 123.82758 
L 317.58336 144.907541 
L 317.7024 104.987333 
L 317.82144 145.254095 
L 317.94048 98.038851 
L 318.05952 142.669058 
L 318.2976 114.796804 
L 318.41664 131.224806 
L 318.53568 118.57863 
L 318.65472 90.457133 
L 318.77376 135.309141 
L 318.8928 98.147117 
L 319.13088 258.005687 
L 319.24992 161.778642 
L 319.36896 197.989933 
L 319.60704 161.635017 
L 319.72608 216.111717 
L 319.84512 191.422115 
L 319.96416 139.479589 
L 320.0832 149.18394 
L 320.20224 122.981732 
L 320.44032 158.48953 
L 320.55936 197.666135 
L 320.6784 143.359373 
L 320.79744 182.644551 
L 321.03552 129.704074 
L 321.15456 161.954026 
L 321.2736 155.000767 
L 321.39264 183.090884 
L 321.51168 109.873633 
L 321.63072 179.289655 
L 321.74976 166.520116 
L 321.8688 169.781587 
L 321.98784 179.837104 
L 322.22592 153.980367 
L 322.34496 178.565042 
L 322.464 164.079148 
L 322.70208 186.986852 
L 322.94016 138.475632 
L 323.0592 142.58476 
L 323.17824 132.469987 
L 323.29728 111.299363 
L 323.41632 185.893888 
L 323.53536 106.749708 
L 323.6544 188.135926 
L 323.77344 166.843937 
L 323.89248 214.27652 
L 324.01152 140.576707 
L 324.13056 188.247211 
L 324.2496 176.896071 
L 324.48768 128.122849 
L 324.60672 135.667408 
L 324.72576 152.196966 
L 324.8448 150.747022 
L 324.96384 153.809361 
L 325.08288 203.778083 
L 325.32096 100.406583 
L 325.44 174.342099 
L 325.55904 94.385367 
L 325.67808 137.329351 
L 325.79712 245.674494 
L 325.91616 171.741385 
L 326.0352 211.520392 
L 326.27328 115.019884 
L 326.39232 135.400558 
L 326.6304 102.503829 
L 326.74944 185.186157 
L 326.86848 87.48884 
L 326.98752 212.455748 
L 327.10656 155.403393 
L 327.2256 182.926499 
L 327.34464 170.014148 
L 327.46368 169.779844 
L 327.58272 167.452094 
L 327.70176 153.662936 
L 327.8208 162.213473 
L 328.05888 125.162711 
L 328.29696 162.209081 
L 328.416 132.429231 
L 328.53504 216.178674 
L 328.65408 100.323727 
L 328.77312 229.487968 
L 328.89216 124.494259 
L 329.0112 143.151119 
L 329.24928 122.98741 
L 329.36832 130.467719 
L 329.48736 174.573131 
L 329.6064 132.749933 
L 329.72544 202.406526 
L 329.84448 151.82938 
L 329.96352 177.649246 
L 330.08256 115.752759 
L 330.2016 179.15723 
L 330.32064 115.675805 
L 330.43968 139.478298 
L 330.55872 101.32367 
L 330.67776 149.970047 
L 330.7968 105.291267 
L 331.03488 165.343455 
L 331.15392 153.092235 
L 331.27296 163.743304 
L 331.392 148.825345 
L 331.51104 101.604015 
L 331.63008 147.771389 
L 331.86816 85.587541 
L 331.9872 161.429332 
L 332.10624 100.155042 
L 332.34432 164.637589 
L 332.46336 149.455039 
L 332.5824 163.86311 
L 332.70144 154.282214 
L 333.05856 189.639988 
L 333.1776 155.715819 
L 333.29664 166.723605 
L 333.41568 129.299907 
L 333.65376 177.010791 
L 333.7728 172.332378 
L 333.89184 152.056053 
L 334.01088 183.882905 
L 334.24896 145.382337 
L 334.368 162.153978 
L 334.48704 155.810272 
L 334.60608 163.069213 
L 334.72512 192.950874 
L 334.84416 143.768877 
L 334.9632 183.64332 
L 335.20128 132.268128 
L 335.32032 109.265016 
L 335.43936 165.706913 
L 335.5584 115.46185 
L 335.79648 160.617817 
L 335.91552 178.524183 
L 336.1536 154.522725 
L 336.27264 157.060523 
L 336.39168 129.148112 
L 336.62976 177.341799 
L 336.7488 110.100951 
L 336.86784 159.890536 
L 337.10592 104.259552 
L 337.22496 191.636311 
L 337.344 98.318627 
L 337.70112 254.520084 
L 337.82016 138.202686 
L 337.9392 191.487485 
L 338.17728 133.261851 
L 338.29632 150.004333 
L 338.41536 119.061991 
L 338.65344 174.420865 
L 338.77248 154.909339 
L 338.89152 161.076534 
L 339.01056 76.550821 
L 339.1296 116.417507 
L 339.24864 83.299001 
L 339.36768 134.346167 
L 339.48672 109.552477 
L 339.60576 200.917735 
L 339.7248 114.171375 
L 339.84384 193.454034 
L 339.96288 134.373596 
L 340.08192 213.141156 
L 340.20096 131.291702 
L 340.32 185.762219 
L 340.55808 152.805021 
L 340.67712 174.02658 
L 340.79616 152.640766 
L 340.9152 174.950955 
L 341.03424 168.094681 
L 341.15328 186.21315 
L 341.27232 158.187193 
L 341.39136 219.681086 
L 341.5104 179.711752 
L 341.62944 195.530536 
L 341.74848 182.242185 
L 341.86752 66.650671 
L 341.98656 144.925101 
L 342.1056 72.662327 
L 342.22464 158.412419 
L 342.34368 147.829726 
L 342.46272 158.863387 
L 342.58176 153.044449 
L 342.7008 127.404352 
L 342.81984 152.653717 
L 342.93888 94.859143 
L 343.05792 152.323025 
L 343.17696 102.004611 
L 343.41504 164.037664 
L 343.53408 170.400519 
L 343.77216 124.590262 
L 343.8912 142.499672 
L 344.01024 118.360047 
L 344.12928 179.356892 
L 344.24832 134.649884 
L 344.36736 156.141911 
L 344.4864 154.097896 
L 344.72448 188.121903 
L 344.84352 110.391528 
L 344.96256 165.375713 
L 345.0816 144.207712 
L 345.20064 189.251872 
L 345.6768 145.137508 
L 345.79584 106.156443 
L 345.91488 137.427211 
L 346.03392 95.126562 
L 346.15296 196.241828 
L 346.272 107.073834 
L 346.39104 217.75868 
L 346.51008 124.525343 
L 346.74816 214.824505 
L 346.8672 166.692146 
L 346.98624 217.571284 
L 347.22432 155.098458 
L 347.34336 163.716645 
L 347.4624 156.11774 
L 347.70048 88.11534 
L 347.81952 103.839868 
L 347.93856 83.27014 
L 348.0576 121.041242 
L 348.17664 118.367355 
L 348.41472 137.50939 
L 348.53376 193.709543 
L 348.6528 113.294327 
L 348.77184 203.724673 
L 348.89088 102.544958 
L 349.12896 185.719301 
L 349.248 124.916882 
L 349.36704 162.104214 
L 349.48608 147.194966 
L 349.60512 116.104677 
L 349.72416 150.199833 
L 349.8432 118.076056 
L 349.96224 161.26237 
L 350.08128 104.148192 
L 350.20032 164.199266 
L 350.31936 126.658705 
L 350.4384 166.202507 
L 350.55744 93.762756 
L 350.67648 168.536783 
L 350.91456 90.675816 
L 351.0336 218.275071 
L 351.15264 117.981352 
L 351.27168 158.466208 
L 351.39072 151.977239 
L 351.50976 152.496674 
L 351.6288 144.296093 
L 351.74784 146.105306 
L 351.86688 100.739393 
L 351.98592 136.121226 
L 352.10496 121.969082 
L 352.224 122.046226 
L 352.34304 126.592375 
L 352.46208 144.167669 
L 352.58112 129.632324 
L 352.70016 140.664668 
L 352.8192 190.052701 
L 352.93824 144.175091 
L 353.05728 172.424967 
L 353.29536 115.550088 
L 353.4144 115.882704 
L 353.53344 131.162884 
L 353.65248 98.426147 
L 353.89056 181.989813 
L 354.0096 151.318018 
L 354.12864 174.616679 
L 354.24768 127.519343 
L 354.36672 138.175532 
L 354.48576 111.951536 
L 354.6048 172.653193 
L 354.72384 128.940828 
L 354.84288 147.319072 
L 354.96192 127.683116 
L 355.08096 148.317267 
L 355.2 219.749234 
L 355.31904 137.938658 
L 355.43808 194.346631 
L 355.55712 152.826959 
L 355.67616 200.083897 
L 355.7952 121.993683 
L 355.91424 223.622362 
L 356.03328 114.995315 
L 356.15232 108.998474 
L 356.27136 212.869668 
L 356.3904 119.954151 
L 356.50944 191.240874 
L 356.62848 125.783308 
L 356.74752 183.584099 
L 356.86656 138.249422 
L 356.9856 189.842719 
L 357.10464 160.264322 
L 357.22368 226.55488 
L 357.34272 135.960543 
L 357.46176 208.173736 
L 357.5808 119.127078 
L 357.69984 143.331062 
L 357.81888 119.512922 
L 358.176 175.998482 
L 358.29504 156.28718 
L 358.41408 165.107242 
L 358.65216 99.371063 
L 358.7712 150.268618 
L 358.89024 116.557091 
L 359.12832 158.760551 
L 359.24736 140.329056 
L 359.3664 141.619839 
L 359.48544 267.962584 
L 359.60448 104.756001 
L 359.72352 237.513853 
L 359.84256 121.675368 
L 360.08064 231.070813 
L 360.19968 186.140705 
L 360.31872 190.227487 
L 360.43776 91.152082 
L 360.5568 124.790944 
L 360.67584 102.047869 
L 360.79488 134.710589 
L 361.03296 259.245854 
L 361.27104 185.57433 
L 361.50912 135.182079 
L 361.62816 158.504619 
L 361.7472 148.912446 
L 361.86624 191.641919 
L 361.98528 128.229238 
L 362.10432 183.862499 
L 362.22336 121.925974 
L 362.3424 217.916186 
L 362.46144 166.291647 
L 362.58048 174.394221 
L 362.69952 132.614726 
L 362.81856 184.9695 
L 362.9376 176.182612 
L 363.05664 177.823224 
L 363.17568 183.033473 
L 363.5328 134.171977 
L 363.65184 128.160261 
L 363.77088 141.144323 
L 363.88992 141.192278 
L 364.00896 204.459679 
L 364.128 109.402604 
L 364.36608 135.589257 
L 364.48512 137.182445 
L 364.60416 152.095563 
L 364.7232 145.545334 
L 364.84224 154.697322 
L 365.08032 187.607135 
L 365.19936 106.177342 
L 365.3184 192.438811 
L 365.43744 126.086503 
L 365.55648 206.50902 
L 365.67552 136.75264 
L 365.79456 140.204667 
L 365.9136 148.301264 
L 366.03264 145.831193 
L 366.15168 251.784721 
L 366.27072 136.414472 
L 366.5088 176.314938 
L 366.74688 109.393967 
L 366.86592 174.469058 
L 366.98496 110.002255 
L 367.104 147.62297 
L 367.22304 104.986424 
L 367.34208 139.753858 
L 367.46112 109.6216 
L 367.81824 175.429669 
L 368.05632 136.552763 
L 368.17536 188.141522 
L 368.2944 133.847758 
L 368.41344 225.305324 
L 368.53248 160.50017 
L 368.8896 212.361964 
L 369.12768 148.425844 
L 369.24672 186.695319 
L 369.4848 116.011521 
L 369.60384 110.192074 
L 369.72288 142.017225 
L 369.84192 106.104158 
L 369.96096 167.761829 
L 370.19904 152.509412 
L 370.31808 204.069064 
L 370.43712 140.785614 
L 370.55616 171.00899 
L 370.6752 147.374165 
L 370.79424 158.160557 
L 370.91328 138.399516 
L 371.03232 156.460497 
L 371.15136 142.89479 
L 371.2704 190.303895 
L 371.38944 95.941071 
L 371.50848 132.936347 
L 371.62752 85.695764 
L 371.98464 209.304824 
L 372.10368 134.027809 
L 372.34176 268.964779 
L 372.4608 149.941476 
L 372.57984 221.660467 
L 372.81792 119.918811 
L 372.93696 149.115957 
L 373.056 141.355545 
L 373.17504 146.843614 
L 373.29408 141.324762 
L 373.41312 195.725991 
L 373.53216 122.763674 
L 373.6512 173.651539 
L 373.77024 140.62253 
L 373.88928 143.598634 
L 374.00832 128.336247 
L 374.12736 133.1256 
L 374.2464 132.169099 
L 374.36544 119.421625 
L 374.48448 148.41539 
L 374.60352 113.268572 
L 374.72256 130.333436 
L 374.8416 202.976649 
L 374.96064 129.244817 
L 375.19872 188.385472 
L 375.4368 174.780343 
L 375.55584 176.950528 
L 375.67488 87.046162 
L 375.79392 198.527211 
L 375.91296 82.690132 
L 376.15104 222.899294 
L 376.27008 110.546856 
L 376.38912 196.792741 
L 376.6272 113.381099 
L 376.74624 149.600838 
L 376.86528 114.896543 
L 377.10336 135.727943 
L 377.2224 110.338983 
L 377.34144 201.876128 
L 377.46048 117.390842 
L 377.57952 163.112532 
L 377.69856 140.087615 
L 377.8176 202.664395 
L 378.05568 75.729856 
L 378.17472 143.78808 
L 378.29376 104.989897 
L 378.53184 165.763449 
L 378.65088 96.6252 
L 378.76992 172.542024 
L 378.88896 93.546415 
L 379.008 149.747931 
L 379.24608 152.2432 
L 379.36512 171.040865 
L 379.6032 116.978517 
L 379.72224 149.942934 
L 379.84128 102.714602 
L 380.07936 151.802941 
L 380.1984 169.032819 
L 380.31744 147.178905 
L 380.43648 92.485171 
L 380.55552 168.759083 
L 380.67456 95.311584 
L 380.7936 207.876396 
L 380.91264 210.25821 
L 381.03168 127.305622 
L 381.15072 216.831212 
L 381.26976 144.083208 
L 381.50784 162.313668 
L 381.62688 160.595733 
L 381.74592 206.820231 
L 381.984 95.69494 
L 382.10304 120.186443 
L 382.22208 91.533281 
L 382.46016 194.86166 
L 382.69824 150.724633 
L 382.81728 134.699256 
L 382.93632 214.440626 
L 383.05536 156.80447 
L 383.1744 230.885589 
L 383.29344 162.399315 
L 383.41248 159.447518 
L 383.53152 185.491289 
L 383.65056 135.355605 
L 383.7696 196.837753 
L 383.88864 186.274628 
L 384.00768 190.675695 
L 384.12672 213.862615 
L 384.24576 105.580013 
L 384.3648 161.087497 
L 384.48384 123.155149 
L 384.60288 140.551881 
L 384.72192 113.030903 
L 384.84096 127.710192 
L 384.96 165.240001 
L 385.07904 133.295374 
L 385.31712 253.535345 
L 385.43616 233.314354 
L 385.67424 148.731002 
L 385.79328 144.539095 
L 385.91232 158.35531 
L 386.03136 133.565586 
L 386.1504 134.924633 
L 386.26944 151.793909 
L 386.38848 107.247712 
L 386.50752 164.81374 
L 386.62656 149.694182 
L 386.7456 100.899178 
L 386.86464 132.458443 
L 386.98368 91.622737 
L 387.10272 204.699033 
L 387.22176 155.628232 
L 387.3408 200.16903 
L 387.45984 152.502603 
L 387.57888 193.674466 
L 387.69792 161.25591 
L 387.81696 208.910662 
L 387.936 159.347636 
L 388.05504 216.004729 
L 388.17408 150.207236 
L 388.29312 172.314897 
L 388.41216 145.81331 
L 388.5312 161.650832 
L 388.65024 118.905321 
L 388.76928 175.985756 
L 388.88832 133.829688 
L 389.1264 194.403924 
L 389.24544 160.297982 
L 389.36448 188.556345 
L 389.48352 112.321523 
L 389.60256 138.911153 
L 389.7216 112.06714 
L 389.84064 137.839602 
L 389.95968 126.955241 
L 390.07872 214.516394 
L 390.19776 133.524601 
L 390.3168 187.394214 
L 390.43584 108.559744 
L 390.55488 147.536596 
L 390.67392 110.41937 
L 390.912 151.077692 
L 391.03104 129.011827 
L 391.15008 133.431019 
L 391.26912 150.863643 
L 391.38816 145.247711 
L 391.5072 132.378366 
L 391.62624 140.591273 
L 391.74528 139.502667 
L 391.86432 118.499571 
L 391.98336 145.218629 
L 392.1024 136.948549 
L 392.34048 181.949421 
L 392.45952 125.293755 
L 392.57856 174.797166 
L 392.6976 119.098183 
L 392.81664 148.674367 
L 392.93568 133.740274 
L 393.05472 142.819866 
L 393.17376 135.549244 
L 393.2928 200.060287 
L 393.41184 182.573055 
L 393.53088 228.547454 
L 393.64992 181.668278 
L 393.76896 189.155294 
L 393.888 219.86825 
L 394.00704 182.175224 
L 394.24512 184.592236 
L 394.36416 128.624185 
L 394.4832 193.940852 
L 394.72128 174.084583 
L 394.84032 189.577562 
L 395.0784 174.837193 
L 395.19744 150.465621 
L 395.31648 153.502038 
L 395.43552 118.407397 
L 395.55456 175.39286 
L 395.79264 126.748355 
L 395.91168 162.678129 
L 396.03072 115.401436 
L 396.14976 190.294215 
L 396.2688 104.494042 
L 396.38784 181.851094 
L 396.50688 113.33157 
L 396.62592 161.821381 
L 396.74496 152.451909 
L 396.864 186.122427 
L 397.10208 106.115982 
L 397.22112 134.535163 
L 397.34016 115.422865 
L 397.4592 177.310136 
L 397.57824 146.81784 
L 397.69728 181.270216 
L 397.81632 154.885856 
L 398.17344 188.23059 
L 398.29248 163.335316 
L 398.41152 169.620021 
L 398.6496 124.605211 
L 398.76864 137.70767 
L 398.88768 126.424949 
L 399.00672 274.009056 
L 399.12576 167.618595 
L 399.2448 223.892377 
L 399.48288 101.845837 
L 399.60192 155.22901 
L 399.72096 106.080954 
L 399.95904 173.025037 
L 400.07808 180.126127 
L 400.31616 155.991968 
L 400.4352 161.284275 
L 400.55424 112.721295 
L 400.67328 146.018793 
L 400.79232 108.909136 
L 400.91136 230.901106 
L 401.0304 125.360196 
L 401.14944 197.444296 
L 401.26848 118.730664 
L 401.38752 174.537018 
L 401.50656 113.059 
L 401.6256 195.171199 
L 401.74464 127.374663 
L 401.86368 187.323112 
L 401.98272 169.872742 
L 402.10176 192.211091 
L 402.2208 143.479075 
L 402.33984 161.768569 
L 402.45888 101.808806 
L 402.57792 182.749168 
L 402.69696 104.595562 
L 402.816 142.743849 
L 402.93504 112.601465 
L 403.05408 167.909163 
L 403.17312 126.293594 
L 403.29216 144.323068 
L 403.53024 136.504734 
L 403.76832 168.1564 
L 403.88736 112.639554 
L 404.0064 207.475458 
L 404.12544 122.843444 
L 404.24448 127.080391 
L 404.72064 170.989009 
L 404.83968 89.689713 
L 404.95872 156.745228 
L 405.07776 85.993287 
L 405.1968 141.152965 
L 405.31584 136.904516 
L 405.43488 128.445116 
L 405.55392 155.845401 
L 405.792 133.558246 
L 405.91104 139.629532 
L 406.03008 128.70625 
L 406.14912 163.091801 
L 406.26816 147.653979 
L 406.3872 194.392602 
L 406.50624 129.65953 
L 406.62528 135.467071 
L 406.74432 112.419783 
L 406.86336 149.773285 
L 406.9824 112.708511 
L 407.10144 125.20963 
L 407.33952 116.106958 
L 407.45856 140.077686 
L 407.5776 126.364307 
L 407.69664 77.78159 
L 407.81568 128.393695 
L 407.93472 88.159204 
L 408.1728 220.265202 
L 408.29184 198.010571 
L 408.41088 204.543473 
L 408.52992 128.740378 
L 408.64896 173.131029 
L 408.768 135.119601 
L 408.88704 161.861395 
L 409.00608 105.18449 
L 409.12512 177.566135 
L 409.24416 107.609972 
L 409.3632 176.786455 
L 409.48224 137.560242 
L 409.60128 164.317111 
L 409.72032 117.676202 
L 409.9584 171.842616 
L 410.07744 197.822618 
L 410.19648 179.194048 
L 410.31552 217.671994 
L 410.43456 199.152282 
L 410.5536 211.212975 
L 410.67264 190.953312 
L 410.79168 214.065466 
L 410.91072 146.276614 
L 411.02976 152.655606 
L 411.1488 128.933025 
L 411.38688 175.412298 
L 411.50592 245.246231 
L 411.62496 206.618754 
L 411.744 285.408 
L 411.86304 92.894057 
L 411.98208 129.384955 
L 412.10112 112.427483 
L 412.3392 156.406414 
L 412.45824 137.253883 
L 412.57728 175.066651 
L 412.69632 112.681425 
L 412.81536 110.487942 
L 412.9344 110.497847 
L 413.05344 111.476233 
L 413.17248 123.037544 
L 413.29152 113.250119 
L 413.41056 158.164076 
L 413.76768 120.765187 
L 413.88672 136.023306 
L 414.1248 113.534123 
L 414.24384 165.184176 
L 414.36288 134.479603 
L 414.48192 167.44585 
L 414.60096 111.394351 
L 414.60096 111.394351 
" style="fill:none;stroke:#0000ff;stroke-linecap:square;stroke-width:1.5;"/>
   </g>
   <g id="patch_3">
    <path d="M 57.6 307.584 
L 57.6 41.472 
" style="fill:none;stroke:#000000;stroke-linecap:square;stroke-linejoin:miter;stroke-width:0.8;"/>
   </g>
   <g id="patch_4">
    <path d="M 414.72 307.584 
L 414.72 41.472 
" style="fill:none;stroke:#000000;stroke-linecap:square;stroke-linejoin:miter;stroke-width:0.8;"/>
   </g>
   <g id="patch_5">
    <path d="M 57.6 307.584 
L 414.72 307.584 
" style="fill:none;stroke:#000000;stroke-linecap:square;stroke-linejoin:miter;stroke-width:0.8;"/>
   </g>
   <g id="patch_6">
    <path d="M 57.6 41.472 
L 414.72 41.472 
" style="fill:none;stroke:#000000;stroke-linecap:square;stroke-linejoin:miter;stroke-width:0.8;"/>
   </g>
   <g id="legend_1">
    <g id="patch_7">
     <path d="M 282.321563 64.150125 
L 407.72 64.150125 
Q 409.72 64.150125 409.72 62.150125 
L 409.72 48.472 
Q 409.72 46.472 407.72 46.472 
L 282.321563 46.472 
Q 280.321563 46.472 280.321563 48.472 
L 280.321563 62.150125 
Q 280.321563 64.150125 282.321563 64.150125 
z
" style="fill:#ffffff;opacity:0.8;stroke:#cccccc;stroke-linejoin:miter;"/>
    </g>
    <g id="line2d_26">
     <path d="M 284.321563 54.570438 
L 304.321563 54.570438 
" style="fill:none;stroke:#0000ff;stroke-linecap:square;stroke-width:1.5;"/>
    </g>
    <g id="line2d_27"/>
    <g id="text_15">
     <!-- cumulative reward -->
     <g transform="translate(312.321563 58.070438)scale(0.1 -0.1)">
      <defs>
       <path d="M 3122 3366 
L 3122 2828 
Q 2878 2963 2633 3030 
Q 2388 3097 2138 3097 
Q 1578 3097 1268 2742 
Q 959 2388 959 1747 
Q 959 1106 1268 751 
Q 1578 397 2138 397 
Q 2388 397 2633 464 
Q 2878 531 3122 666 
L 3122 134 
Q 2881 22 2623 -34 
Q 2366 -91 2075 -91 
Q 1284 -91 818 406 
Q 353 903 353 1747 
Q 353 2603 823 3093 
Q 1294 3584 2113 3584 
Q 2378 3584 2631 3529 
Q 2884 3475 3122 3366 
z
" id="DejaVuSans-63" transform="scale(0.015625)"/>
      </defs>
      <use xlink:href="#DejaVuSans-63"/>
      <use x="54.980469" xlink:href="#DejaVuSans-75"/>
      <use x="118.359375" xlink:href="#DejaVuSans-6d"/>
      <use x="215.771484" xlink:href="#DejaVuSans-75"/>
      <use x="279.150391" xlink:href="#DejaVuSans-6c"/>
      <use x="306.933594" xlink:href="#DejaVuSans-61"/>
      <use x="368.212891" xlink:href="#DejaVuSans-74"/>
      <use x="407.421875" xlink:href="#DejaVuSans-69"/>
      <use x="435.205078" xlink:href="#DejaVuSans-76"/>
      <use x="494.384766" xlink:href="#DejaVuSans-65"/>
      <use x="555.908203" xlink:href="#DejaVuSans-20"/>
      <use x="587.695312" xlink:href="#DejaVuSans-72"/>
      <use x="626.558594" xlink:href="#DejaVuSans-65"/>
      <use x="688.082031" xlink:href="#DejaVuSans-77"/>
      <use x="769.869141" xlink:href="#DejaVuSans-61"/>
      <use x="831.148438" xlink:href="#DejaVuSans-72"/>
      <use x="870.511719" xlink:href="#DejaVuSans-64"/>
     </g>
    </g>
   </g>
  </g>
 </g>
 <defs>
  <clipPath id="pde83c6fc2e">
   <rect height="266.112" width="357.12" x="57.6" y="41.472"/>
  </clipPath>
 </defs>
</svg>
