<?xml version="1.0" encoding="utf-8" standalone="no"?>
<!DOCTYPE svg PUBLIC "-//W3C//DTD SVG 1.1//EN"
  "http://www.w3.org/Graphics/SVG/1.1/DTD/svg11.dtd">
<svg height="345.6pt" version="1.1" viewBox="0 0 460.8 345.6" width="460.8pt" xmlns="http://www.w3.org/2000/svg" xmlns:xlink="http://www.w3.org/1999/xlink">
 <metadata>
  <rdf:RDF xmlns:cc="http://creativecommons.org/ns#" xmlns:dc="http://purl.org/dc/elements/1.1/" xmlns:rdf="http://www.w3.org/1999/02/22-rdf-syntax-ns#">
   <cc:Work>
    <dc:type rdf:resource="http://purl.org/dc/dcmitype/StillImage"/>
    <dc:date>2021-11-04T11:00:17.071626</dc:date>
    <dc:description>{"agent.algorithm": "RayProximalPolicyOptimization", "agent.algorithm.render_env": false, "agent.algorithm.num_workers": 0, "agent.algorithm.batch_mode": "complete_episodes", "agent.algorithm.lr": 1e-05, "agent.algorithm.train_batch_size": 200, "agent.algorithm.optimizer": "Adam", "agent.algorithm.vf_clip_param": 100, "agent.algorithm.model": {"fcnet_activation": "tanh", "fcnet_hiddens": [30, 30]}, "env.env_class": "SchedulerPolicyRayEnvironment", "env.env_config": {"solver_driver": "CMAdriver", "solver_driver_args": [5, 10, 24, 0.5], "maximize": false, "steps": 50, "state_metrics_names": ["DifferenceOfBest", "SolverStateHistory"], "state_metrics_config": [[40, false, 1, true, false], [{"step_size": {"max": 3, "min": 0}}, 40]], "reward_metric": "Best", "reward_metric_config": [false, false], "memes_no": 1, "action_space_config": {"step_size": {"max": 3, "min": 1e-10}}}}</dc:description>
    <dc:format>image/svg+xml</dc:format>
    <dc:creator>
     <cc:Agent>
      <dc:title>Matplotlib v3.4.3, https://matplotlib.org/</dc:title>
     </cc:Agent>
    </dc:creator>
   </cc:Work>
  </rdf:RDF>
 </metadata>
 <defs>
  <style type="text/css">*{stroke-linecap:butt;stroke-linejoin:round;}</style>
 </defs>
 <g id="figure_1">
  <g id="patch_1">
   <path d="M 0 345.6 
L 460.8 345.6 
L 460.8 0 
L 0 0 
z
" style="fill:#ffffff;"/>
  </g>
  <g id="axes_1">
   <g id="patch_2">
    <path d="M 57.6 307.584 
L 414.72 307.584 
L 414.72 41.472 
L 57.6 41.472 
z
" style="fill:#ffffff;"/>
   </g>
   <g id="matplotlib.axis_1">
    <g id="xtick_1">
     <g id="line2d_1">
      <path clip-path="url(#p91d6d2b449)" d="M 57.6 307.584 
L 57.6 41.472 
" style="fill:none;stroke:#b0b0b0;stroke-linecap:square;stroke-width:0.8;"/>
     </g>
     <g id="line2d_2">
      <defs>
       <path d="M 0 0 
L 0 3.5 
" id="maaacac07e7" style="stroke:#000000;stroke-width:0.8;"/>
      </defs>
      <g>
       <use style="stroke:#000000;stroke-width:0.8;" x="57.6" xlink:href="#maaacac07e7" y="307.584"/>
      </g>
     </g>
     <g id="text_1">
      <!-- 0 -->
      <g transform="translate(52.51 326.7415)scale(0.16 -0.16)">
       <defs>
        <path d="M 2034 4250 
Q 1547 4250 1301 3770 
Q 1056 3291 1056 2328 
Q 1056 1369 1301 889 
Q 1547 409 2034 409 
Q 2525 409 2770 889 
Q 3016 1369 3016 2328 
Q 3016 3291 2770 3770 
Q 2525 4250 2034 4250 
z
M 2034 4750 
Q 2819 4750 3233 4129 
Q 3647 3509 3647 2328 
Q 3647 1150 3233 529 
Q 2819 -91 2034 -91 
Q 1250 -91 836 529 
Q 422 1150 422 2328 
Q 422 3509 836 4129 
Q 1250 4750 2034 4750 
z
" id="DejaVuSans-30" transform="scale(0.015625)"/>
       </defs>
       <use xlink:href="#DejaVuSans-30"/>
      </g>
     </g>
    </g>
    <g id="xtick_2">
     <g id="line2d_3">
      <path clip-path="url(#p91d6d2b449)" d="M 146.88 307.584 
L 146.88 41.472 
" style="fill:none;stroke:#b0b0b0;stroke-linecap:square;stroke-width:0.8;"/>
     </g>
     <g id="line2d_4">
      <g>
       <use style="stroke:#000000;stroke-width:0.8;" x="146.88" xlink:href="#maaacac07e7" y="307.584"/>
      </g>
     </g>
     <g id="text_2">
      <!-- 1000 -->
      <g transform="translate(126.52 326.7415)scale(0.16 -0.16)">
       <defs>
        <path d="M 794 531 
L 1825 531 
L 1825 4091 
L 703 3866 
L 703 4441 
L 1819 4666 
L 2450 4666 
L 2450 531 
L 3481 531 
L 3481 0 
L 794 0 
L 794 531 
z
" id="DejaVuSans-31" transform="scale(0.015625)"/>
       </defs>
       <use xlink:href="#DejaVuSans-31"/>
       <use x="63.623047" xlink:href="#DejaVuSans-30"/>
       <use x="127.246094" xlink:href="#DejaVuSans-30"/>
       <use x="190.869141" xlink:href="#DejaVuSans-30"/>
      </g>
     </g>
    </g>
    <g id="xtick_3">
     <g id="line2d_5">
      <path clip-path="url(#p91d6d2b449)" d="M 236.16 307.584 
L 236.16 41.472 
" style="fill:none;stroke:#b0b0b0;stroke-linecap:square;stroke-width:0.8;"/>
     </g>
     <g id="line2d_6">
      <g>
       <use style="stroke:#000000;stroke-width:0.8;" x="236.16" xlink:href="#maaacac07e7" y="307.584"/>
      </g>
     </g>
     <g id="text_3">
      <!-- 2000 -->
      <g transform="translate(215.8 326.7415)scale(0.16 -0.16)">
       <defs>
        <path d="M 1228 531 
L 3431 531 
L 3431 0 
L 469 0 
L 469 531 
Q 828 903 1448 1529 
Q 2069 2156 2228 2338 
Q 2531 2678 2651 2914 
Q 2772 3150 2772 3378 
Q 2772 3750 2511 3984 
Q 2250 4219 1831 4219 
Q 1534 4219 1204 4116 
Q 875 4013 500 3803 
L 500 4441 
Q 881 4594 1212 4672 
Q 1544 4750 1819 4750 
Q 2544 4750 2975 4387 
Q 3406 4025 3406 3419 
Q 3406 3131 3298 2873 
Q 3191 2616 2906 2266 
Q 2828 2175 2409 1742 
Q 1991 1309 1228 531 
z
" id="DejaVuSans-32" transform="scale(0.015625)"/>
       </defs>
       <use xlink:href="#DejaVuSans-32"/>
       <use x="63.623047" xlink:href="#DejaVuSans-30"/>
       <use x="127.246094" xlink:href="#DejaVuSans-30"/>
       <use x="190.869141" xlink:href="#DejaVuSans-30"/>
      </g>
     </g>
    </g>
    <g id="xtick_4">
     <g id="line2d_7">
      <path clip-path="url(#p91d6d2b449)" d="M 325.44 307.584 
L 325.44 41.472 
" style="fill:none;stroke:#b0b0b0;stroke-linecap:square;stroke-width:0.8;"/>
     </g>
     <g id="line2d_8">
      <g>
       <use style="stroke:#000000;stroke-width:0.8;" x="325.44" xlink:href="#maaacac07e7" y="307.584"/>
      </g>
     </g>
     <g id="text_4">
      <!-- 3000 -->
      <g transform="translate(305.08 326.7415)scale(0.16 -0.16)">
       <defs>
        <path d="M 2597 2516 
Q 3050 2419 3304 2112 
Q 3559 1806 3559 1356 
Q 3559 666 3084 287 
Q 2609 -91 1734 -91 
Q 1441 -91 1130 -33 
Q 819 25 488 141 
L 488 750 
Q 750 597 1062 519 
Q 1375 441 1716 441 
Q 2309 441 2620 675 
Q 2931 909 2931 1356 
Q 2931 1769 2642 2001 
Q 2353 2234 1838 2234 
L 1294 2234 
L 1294 2753 
L 1863 2753 
Q 2328 2753 2575 2939 
Q 2822 3125 2822 3475 
Q 2822 3834 2567 4026 
Q 2313 4219 1838 4219 
Q 1578 4219 1281 4162 
Q 984 4106 628 3988 
L 628 4550 
Q 988 4650 1302 4700 
Q 1616 4750 1894 4750 
Q 2613 4750 3031 4423 
Q 3450 4097 3450 3541 
Q 3450 3153 3228 2886 
Q 3006 2619 2597 2516 
z
" id="DejaVuSans-33" transform="scale(0.015625)"/>
       </defs>
       <use xlink:href="#DejaVuSans-33"/>
       <use x="63.623047" xlink:href="#DejaVuSans-30"/>
       <use x="127.246094" xlink:href="#DejaVuSans-30"/>
       <use x="190.869141" xlink:href="#DejaVuSans-30"/>
      </g>
     </g>
    </g>
    <g id="xtick_5">
     <g id="line2d_9">
      <path clip-path="url(#p91d6d2b449)" d="M 414.72 307.584 
L 414.72 41.472 
" style="fill:none;stroke:#b0b0b0;stroke-linecap:square;stroke-width:0.8;"/>
     </g>
     <g id="line2d_10">
      <g>
       <use style="stroke:#000000;stroke-width:0.8;" x="414.72" xlink:href="#maaacac07e7" y="307.584"/>
      </g>
     </g>
     <g id="text_5">
      <!-- 4000 -->
      <g transform="translate(394.36 326.7415)scale(0.16 -0.16)">
       <defs>
        <path d="M 2419 4116 
L 825 1625 
L 2419 1625 
L 2419 4116 
z
M 2253 4666 
L 3047 4666 
L 3047 1625 
L 3713 1625 
L 3713 1100 
L 3047 1100 
L 3047 0 
L 2419 0 
L 2419 1100 
L 313 1100 
L 313 1709 
L 2253 4666 
z
" id="DejaVuSans-34" transform="scale(0.015625)"/>
       </defs>
       <use xlink:href="#DejaVuSans-34"/>
       <use x="63.623047" xlink:href="#DejaVuSans-30"/>
       <use x="127.246094" xlink:href="#DejaVuSans-30"/>
       <use x="190.869141" xlink:href="#DejaVuSans-30"/>
      </g>
     </g>
    </g>
    <g id="text_6">
     <!-- Episodes -->
     <g transform="translate(200.5725 346.2265)scale(0.16 -0.16)">
      <defs>
       <path d="M 628 4666 
L 3578 4666 
L 3578 4134 
L 1259 4134 
L 1259 2753 
L 3481 2753 
L 3481 2222 
L 1259 2222 
L 1259 531 
L 3634 531 
L 3634 0 
L 628 0 
L 628 4666 
z
" id="DejaVuSans-45" transform="scale(0.015625)"/>
       <path d="M 1159 525 
L 1159 -1331 
L 581 -1331 
L 581 3500 
L 1159 3500 
L 1159 2969 
Q 1341 3281 1617 3432 
Q 1894 3584 2278 3584 
Q 2916 3584 3314 3078 
Q 3713 2572 3713 1747 
Q 3713 922 3314 415 
Q 2916 -91 2278 -91 
Q 1894 -91 1617 61 
Q 1341 213 1159 525 
z
M 3116 1747 
Q 3116 2381 2855 2742 
Q 2594 3103 2138 3103 
Q 1681 3103 1420 2742 
Q 1159 2381 1159 1747 
Q 1159 1113 1420 752 
Q 1681 391 2138 391 
Q 2594 391 2855 752 
Q 3116 1113 3116 1747 
z
" id="DejaVuSans-70" transform="scale(0.015625)"/>
       <path d="M 603 3500 
L 1178 3500 
L 1178 0 
L 603 0 
L 603 3500 
z
M 603 4863 
L 1178 4863 
L 1178 4134 
L 603 4134 
L 603 4863 
z
" id="DejaVuSans-69" transform="scale(0.015625)"/>
       <path d="M 2834 3397 
L 2834 2853 
Q 2591 2978 2328 3040 
Q 2066 3103 1784 3103 
Q 1356 3103 1142 2972 
Q 928 2841 928 2578 
Q 928 2378 1081 2264 
Q 1234 2150 1697 2047 
L 1894 2003 
Q 2506 1872 2764 1633 
Q 3022 1394 3022 966 
Q 3022 478 2636 193 
Q 2250 -91 1575 -91 
Q 1294 -91 989 -36 
Q 684 19 347 128 
L 347 722 
Q 666 556 975 473 
Q 1284 391 1588 391 
Q 1994 391 2212 530 
Q 2431 669 2431 922 
Q 2431 1156 2273 1281 
Q 2116 1406 1581 1522 
L 1381 1569 
Q 847 1681 609 1914 
Q 372 2147 372 2553 
Q 372 3047 722 3315 
Q 1072 3584 1716 3584 
Q 2034 3584 2315 3537 
Q 2597 3491 2834 3397 
z
" id="DejaVuSans-73" transform="scale(0.015625)"/>
       <path d="M 1959 3097 
Q 1497 3097 1228 2736 
Q 959 2375 959 1747 
Q 959 1119 1226 758 
Q 1494 397 1959 397 
Q 2419 397 2687 759 
Q 2956 1122 2956 1747 
Q 2956 2369 2687 2733 
Q 2419 3097 1959 3097 
z
M 1959 3584 
Q 2709 3584 3137 3096 
Q 3566 2609 3566 1747 
Q 3566 888 3137 398 
Q 2709 -91 1959 -91 
Q 1206 -91 779 398 
Q 353 888 353 1747 
Q 353 2609 779 3096 
Q 1206 3584 1959 3584 
z
" id="DejaVuSans-6f" transform="scale(0.015625)"/>
       <path d="M 2906 2969 
L 2906 4863 
L 3481 4863 
L 3481 0 
L 2906 0 
L 2906 525 
Q 2725 213 2448 61 
Q 2172 -91 1784 -91 
Q 1150 -91 751 415 
Q 353 922 353 1747 
Q 353 2572 751 3078 
Q 1150 3584 1784 3584 
Q 2172 3584 2448 3432 
Q 2725 3281 2906 2969 
z
M 947 1747 
Q 947 1113 1208 752 
Q 1469 391 1925 391 
Q 2381 391 2643 752 
Q 2906 1113 2906 1747 
Q 2906 2381 2643 2742 
Q 2381 3103 1925 3103 
Q 1469 3103 1208 2742 
Q 947 2381 947 1747 
z
" id="DejaVuSans-64" transform="scale(0.015625)"/>
       <path d="M 3597 1894 
L 3597 1613 
L 953 1613 
Q 991 1019 1311 708 
Q 1631 397 2203 397 
Q 2534 397 2845 478 
Q 3156 559 3463 722 
L 3463 178 
Q 3153 47 2828 -22 
Q 2503 -91 2169 -91 
Q 1331 -91 842 396 
Q 353 884 353 1716 
Q 353 2575 817 3079 
Q 1281 3584 2069 3584 
Q 2775 3584 3186 3129 
Q 3597 2675 3597 1894 
z
M 3022 2063 
Q 3016 2534 2758 2815 
Q 2500 3097 2075 3097 
Q 1594 3097 1305 2825 
Q 1016 2553 972 2059 
L 3022 2063 
z
" id="DejaVuSans-65" transform="scale(0.015625)"/>
      </defs>
      <use xlink:href="#DejaVuSans-45"/>
      <use x="63.183594" xlink:href="#DejaVuSans-70"/>
      <use x="126.660156" xlink:href="#DejaVuSans-69"/>
      <use x="154.443359" xlink:href="#DejaVuSans-73"/>
      <use x="206.542969" xlink:href="#DejaVuSans-6f"/>
      <use x="267.724609" xlink:href="#DejaVuSans-64"/>
      <use x="331.201172" xlink:href="#DejaVuSans-65"/>
      <use x="392.724609" xlink:href="#DejaVuSans-73"/>
     </g>
    </g>
   </g>
   <g id="matplotlib.axis_2">
    <g id="ytick_1">
     <g id="line2d_11">
      <path clip-path="url(#p91d6d2b449)" d="M 57.6 296.129488 
L 414.72 296.129488 
" style="fill:none;stroke:#b0b0b0;stroke-linecap:square;stroke-width:0.8;"/>
     </g>
     <g id="line2d_12">
      <defs>
       <path d="M 0 0 
L -3.5 0 
" id="m52cc3f6b55" style="stroke:#000000;stroke-width:0.8;"/>
      </defs>
      <g>
       <use style="stroke:#000000;stroke-width:0.8;" x="57.6" xlink:href="#m52cc3f6b55" y="296.129488"/>
      </g>
     </g>
     <g id="text_7">
      <!-- −7500 -->
      <g transform="translate(-3.5275 302.208238)scale(0.16 -0.16)">
       <defs>
        <path d="M 678 2272 
L 4684 2272 
L 4684 1741 
L 678 1741 
L 678 2272 
z
" id="DejaVuSans-2212" transform="scale(0.015625)"/>
        <path d="M 525 4666 
L 3525 4666 
L 3525 4397 
L 1831 0 
L 1172 0 
L 2766 4134 
L 525 4134 
L 525 4666 
z
" id="DejaVuSans-37" transform="scale(0.015625)"/>
        <path d="M 691 4666 
L 3169 4666 
L 3169 4134 
L 1269 4134 
L 1269 2991 
Q 1406 3038 1543 3061 
Q 1681 3084 1819 3084 
Q 2600 3084 3056 2656 
Q 3513 2228 3513 1497 
Q 3513 744 3044 326 
Q 2575 -91 1722 -91 
Q 1428 -91 1123 -41 
Q 819 9 494 109 
L 494 744 
Q 775 591 1075 516 
Q 1375 441 1709 441 
Q 2250 441 2565 725 
Q 2881 1009 2881 1497 
Q 2881 1984 2565 2268 
Q 2250 2553 1709 2553 
Q 1456 2553 1204 2497 
Q 953 2441 691 2322 
L 691 4666 
z
" id="DejaVuSans-35" transform="scale(0.015625)"/>
       </defs>
       <use xlink:href="#DejaVuSans-2212"/>
       <use x="83.789062" xlink:href="#DejaVuSans-37"/>
       <use x="147.412109" xlink:href="#DejaVuSans-35"/>
       <use x="211.035156" xlink:href="#DejaVuSans-30"/>
       <use x="274.658203" xlink:href="#DejaVuSans-30"/>
      </g>
     </g>
    </g>
    <g id="ytick_2">
     <g id="line2d_13">
      <path clip-path="url(#p91d6d2b449)" d="M 57.6 259.304417 
L 414.72 259.304417 
" style="fill:none;stroke:#b0b0b0;stroke-linecap:square;stroke-width:0.8;"/>
     </g>
     <g id="line2d_14">
      <g>
       <use style="stroke:#000000;stroke-width:0.8;" x="57.6" xlink:href="#m52cc3f6b55" y="259.304417"/>
      </g>
     </g>
     <g id="text_8">
      <!-- −7000 -->
      <g transform="translate(-3.5275 265.383167)scale(0.16 -0.16)">
       <use xlink:href="#DejaVuSans-2212"/>
       <use x="83.789062" xlink:href="#DejaVuSans-37"/>
       <use x="147.412109" xlink:href="#DejaVuSans-30"/>
       <use x="211.035156" xlink:href="#DejaVuSans-30"/>
       <use x="274.658203" xlink:href="#DejaVuSans-30"/>
      </g>
     </g>
    </g>
    <g id="ytick_3">
     <g id="line2d_15">
      <path clip-path="url(#p91d6d2b449)" d="M 57.6 222.479347 
L 414.72 222.479347 
" style="fill:none;stroke:#b0b0b0;stroke-linecap:square;stroke-width:0.8;"/>
     </g>
     <g id="line2d_16">
      <g>
       <use style="stroke:#000000;stroke-width:0.8;" x="57.6" xlink:href="#m52cc3f6b55" y="222.479347"/>
      </g>
     </g>
     <g id="text_9">
      <!-- −6500 -->
      <g transform="translate(-3.5275 228.558097)scale(0.16 -0.16)">
       <defs>
        <path d="M 2113 2584 
Q 1688 2584 1439 2293 
Q 1191 2003 1191 1497 
Q 1191 994 1439 701 
Q 1688 409 2113 409 
Q 2538 409 2786 701 
Q 3034 994 3034 1497 
Q 3034 2003 2786 2293 
Q 2538 2584 2113 2584 
z
M 3366 4563 
L 3366 3988 
Q 3128 4100 2886 4159 
Q 2644 4219 2406 4219 
Q 1781 4219 1451 3797 
Q 1122 3375 1075 2522 
Q 1259 2794 1537 2939 
Q 1816 3084 2150 3084 
Q 2853 3084 3261 2657 
Q 3669 2231 3669 1497 
Q 3669 778 3244 343 
Q 2819 -91 2113 -91 
Q 1303 -91 875 529 
Q 447 1150 447 2328 
Q 447 3434 972 4092 
Q 1497 4750 2381 4750 
Q 2619 4750 2861 4703 
Q 3103 4656 3366 4563 
z
" id="DejaVuSans-36" transform="scale(0.015625)"/>
       </defs>
       <use xlink:href="#DejaVuSans-2212"/>
       <use x="83.789062" xlink:href="#DejaVuSans-36"/>
       <use x="147.412109" xlink:href="#DejaVuSans-35"/>
       <use x="211.035156" xlink:href="#DejaVuSans-30"/>
       <use x="274.658203" xlink:href="#DejaVuSans-30"/>
      </g>
     </g>
    </g>
    <g id="ytick_4">
     <g id="line2d_17">
      <path clip-path="url(#p91d6d2b449)" d="M 57.6 185.654276 
L 414.72 185.654276 
" style="fill:none;stroke:#b0b0b0;stroke-linecap:square;stroke-width:0.8;"/>
     </g>
     <g id="line2d_18">
      <g>
       <use style="stroke:#000000;stroke-width:0.8;" x="57.6" xlink:href="#m52cc3f6b55" y="185.654276"/>
      </g>
     </g>
     <g id="text_10">
      <!-- −6000 -->
      <g transform="translate(-3.5275 191.733026)scale(0.16 -0.16)">
       <use xlink:href="#DejaVuSans-2212"/>
       <use x="83.789062" xlink:href="#DejaVuSans-36"/>
       <use x="147.412109" xlink:href="#DejaVuSans-30"/>
       <use x="211.035156" xlink:href="#DejaVuSans-30"/>
       <use x="274.658203" xlink:href="#DejaVuSans-30"/>
      </g>
     </g>
    </g>
    <g id="ytick_5">
     <g id="line2d_19">
      <path clip-path="url(#p91d6d2b449)" d="M 57.6 148.829205 
L 414.72 148.829205 
" style="fill:none;stroke:#b0b0b0;stroke-linecap:square;stroke-width:0.8;"/>
     </g>
     <g id="line2d_20">
      <g>
       <use style="stroke:#000000;stroke-width:0.8;" x="57.6" xlink:href="#m52cc3f6b55" y="148.829205"/>
      </g>
     </g>
     <g id="text_11">
      <!-- −5500 -->
      <g transform="translate(-3.5275 154.907955)scale(0.16 -0.16)">
       <use xlink:href="#DejaVuSans-2212"/>
       <use x="83.789062" xlink:href="#DejaVuSans-35"/>
       <use x="147.412109" xlink:href="#DejaVuSans-35"/>
       <use x="211.035156" xlink:href="#DejaVuSans-30"/>
       <use x="274.658203" xlink:href="#DejaVuSans-30"/>
      </g>
     </g>
    </g>
    <g id="ytick_6">
     <g id="line2d_21">
      <path clip-path="url(#p91d6d2b449)" d="M 57.6 112.004135 
L 414.72 112.004135 
" style="fill:none;stroke:#b0b0b0;stroke-linecap:square;stroke-width:0.8;"/>
     </g>
     <g id="line2d_22">
      <g>
       <use style="stroke:#000000;stroke-width:0.8;" x="57.6" xlink:href="#m52cc3f6b55" y="112.004135"/>
      </g>
     </g>
     <g id="text_12">
      <!-- −5000 -->
      <g transform="translate(-3.5275 118.082885)scale(0.16 -0.16)">
       <use xlink:href="#DejaVuSans-2212"/>
       <use x="83.789062" xlink:href="#DejaVuSans-35"/>
       <use x="147.412109" xlink:href="#DejaVuSans-30"/>
       <use x="211.035156" xlink:href="#DejaVuSans-30"/>
       <use x="274.658203" xlink:href="#DejaVuSans-30"/>
      </g>
     </g>
    </g>
    <g id="ytick_7">
     <g id="line2d_23">
      <path clip-path="url(#p91d6d2b449)" d="M 57.6 75.179064 
L 414.72 75.179064 
" style="fill:none;stroke:#b0b0b0;stroke-linecap:square;stroke-width:0.8;"/>
     </g>
     <g id="line2d_24">
      <g>
       <use style="stroke:#000000;stroke-width:0.8;" x="57.6" xlink:href="#m52cc3f6b55" y="75.179064"/>
      </g>
     </g>
     <g id="text_13">
      <!-- −4500 -->
      <g transform="translate(-3.5275 81.257814)scale(0.16 -0.16)">
       <use xlink:href="#DejaVuSans-2212"/>
       <use x="83.789062" xlink:href="#DejaVuSans-34"/>
       <use x="147.412109" xlink:href="#DejaVuSans-35"/>
       <use x="211.035156" xlink:href="#DejaVuSans-30"/>
       <use x="274.658203" xlink:href="#DejaVuSans-30"/>
      </g>
     </g>
    </g>
    <g id="text_14">
     <!-- Cumulative Reward -->
     <g transform="translate(-10.855 252.52425)rotate(-90)scale(0.16 -0.16)">
      <defs>
       <path d="M 4122 4306 
L 4122 3641 
Q 3803 3938 3442 4084 
Q 3081 4231 2675 4231 
Q 1875 4231 1450 3742 
Q 1025 3253 1025 2328 
Q 1025 1406 1450 917 
Q 1875 428 2675 428 
Q 3081 428 3442 575 
Q 3803 722 4122 1019 
L 4122 359 
Q 3791 134 3420 21 
Q 3050 -91 2638 -91 
Q 1578 -91 968 557 
Q 359 1206 359 2328 
Q 359 3453 968 4101 
Q 1578 4750 2638 4750 
Q 3056 4750 3426 4639 
Q 3797 4528 4122 4306 
z
" id="DejaVuSans-43" transform="scale(0.015625)"/>
       <path d="M 544 1381 
L 544 3500 
L 1119 3500 
L 1119 1403 
Q 1119 906 1312 657 
Q 1506 409 1894 409 
Q 2359 409 2629 706 
Q 2900 1003 2900 1516 
L 2900 3500 
L 3475 3500 
L 3475 0 
L 2900 0 
L 2900 538 
Q 2691 219 2414 64 
Q 2138 -91 1772 -91 
Q 1169 -91 856 284 
Q 544 659 544 1381 
z
M 1991 3584 
L 1991 3584 
z
" id="DejaVuSans-75" transform="scale(0.015625)"/>
       <path d="M 3328 2828 
Q 3544 3216 3844 3400 
Q 4144 3584 4550 3584 
Q 5097 3584 5394 3201 
Q 5691 2819 5691 2113 
L 5691 0 
L 5113 0 
L 5113 2094 
Q 5113 2597 4934 2840 
Q 4756 3084 4391 3084 
Q 3944 3084 3684 2787 
Q 3425 2491 3425 1978 
L 3425 0 
L 2847 0 
L 2847 2094 
Q 2847 2600 2669 2842 
Q 2491 3084 2119 3084 
Q 1678 3084 1418 2786 
Q 1159 2488 1159 1978 
L 1159 0 
L 581 0 
L 581 3500 
L 1159 3500 
L 1159 2956 
Q 1356 3278 1631 3431 
Q 1906 3584 2284 3584 
Q 2666 3584 2933 3390 
Q 3200 3197 3328 2828 
z
" id="DejaVuSans-6d" transform="scale(0.015625)"/>
       <path d="M 603 4863 
L 1178 4863 
L 1178 0 
L 603 0 
L 603 4863 
z
" id="DejaVuSans-6c" transform="scale(0.015625)"/>
       <path d="M 2194 1759 
Q 1497 1759 1228 1600 
Q 959 1441 959 1056 
Q 959 750 1161 570 
Q 1363 391 1709 391 
Q 2188 391 2477 730 
Q 2766 1069 2766 1631 
L 2766 1759 
L 2194 1759 
z
M 3341 1997 
L 3341 0 
L 2766 0 
L 2766 531 
Q 2569 213 2275 61 
Q 1981 -91 1556 -91 
Q 1019 -91 701 211 
Q 384 513 384 1019 
Q 384 1609 779 1909 
Q 1175 2209 1959 2209 
L 2766 2209 
L 2766 2266 
Q 2766 2663 2505 2880 
Q 2244 3097 1772 3097 
Q 1472 3097 1187 3025 
Q 903 2953 641 2809 
L 641 3341 
Q 956 3463 1253 3523 
Q 1550 3584 1831 3584 
Q 2591 3584 2966 3190 
Q 3341 2797 3341 1997 
z
" id="DejaVuSans-61" transform="scale(0.015625)"/>
       <path d="M 1172 4494 
L 1172 3500 
L 2356 3500 
L 2356 3053 
L 1172 3053 
L 1172 1153 
Q 1172 725 1289 603 
Q 1406 481 1766 481 
L 2356 481 
L 2356 0 
L 1766 0 
Q 1100 0 847 248 
Q 594 497 594 1153 
L 594 3053 
L 172 3053 
L 172 3500 
L 594 3500 
L 594 4494 
L 1172 4494 
z
" id="DejaVuSans-74" transform="scale(0.015625)"/>
       <path d="M 191 3500 
L 800 3500 
L 1894 563 
L 2988 3500 
L 3597 3500 
L 2284 0 
L 1503 0 
L 191 3500 
z
" id="DejaVuSans-76" transform="scale(0.015625)"/>
       <path id="DejaVuSans-20" transform="scale(0.015625)"/>
       <path d="M 2841 2188 
Q 3044 2119 3236 1894 
Q 3428 1669 3622 1275 
L 4263 0 
L 3584 0 
L 2988 1197 
Q 2756 1666 2539 1819 
Q 2322 1972 1947 1972 
L 1259 1972 
L 1259 0 
L 628 0 
L 628 4666 
L 2053 4666 
Q 2853 4666 3247 4331 
Q 3641 3997 3641 3322 
Q 3641 2881 3436 2590 
Q 3231 2300 2841 2188 
z
M 1259 4147 
L 1259 2491 
L 2053 2491 
Q 2509 2491 2742 2702 
Q 2975 2913 2975 3322 
Q 2975 3731 2742 3939 
Q 2509 4147 2053 4147 
L 1259 4147 
z
" id="DejaVuSans-52" transform="scale(0.015625)"/>
       <path d="M 269 3500 
L 844 3500 
L 1563 769 
L 2278 3500 
L 2956 3500 
L 3675 769 
L 4391 3500 
L 4966 3500 
L 4050 0 
L 3372 0 
L 2619 2869 
L 1863 0 
L 1184 0 
L 269 3500 
z
" id="DejaVuSans-77" transform="scale(0.015625)"/>
       <path d="M 2631 2963 
Q 2534 3019 2420 3045 
Q 2306 3072 2169 3072 
Q 1681 3072 1420 2755 
Q 1159 2438 1159 1844 
L 1159 0 
L 581 0 
L 581 3500 
L 1159 3500 
L 1159 2956 
Q 1341 3275 1631 3429 
Q 1922 3584 2338 3584 
Q 2397 3584 2469 3576 
Q 2541 3569 2628 3553 
L 2631 2963 
z
" id="DejaVuSans-72" transform="scale(0.015625)"/>
      </defs>
      <use xlink:href="#DejaVuSans-43"/>
      <use x="69.824219" xlink:href="#DejaVuSans-75"/>
      <use x="133.203125" xlink:href="#DejaVuSans-6d"/>
      <use x="230.615234" xlink:href="#DejaVuSans-75"/>
      <use x="293.994141" xlink:href="#DejaVuSans-6c"/>
      <use x="321.777344" xlink:href="#DejaVuSans-61"/>
      <use x="383.056641" xlink:href="#DejaVuSans-74"/>
      <use x="422.265625" xlink:href="#DejaVuSans-69"/>
      <use x="450.048828" xlink:href="#DejaVuSans-76"/>
      <use x="509.228516" xlink:href="#DejaVuSans-65"/>
      <use x="570.751953" xlink:href="#DejaVuSans-20"/>
      <use x="602.539062" xlink:href="#DejaVuSans-52"/>
      <use x="667.521484" xlink:href="#DejaVuSans-65"/>
      <use x="729.044922" xlink:href="#DejaVuSans-77"/>
      <use x="810.832031" xlink:href="#DejaVuSans-61"/>
      <use x="872.111328" xlink:href="#DejaVuSans-72"/>
      <use x="911.474609" xlink:href="#DejaVuSans-64"/>
     </g>
    </g>
   </g>
   <g id="line2d_25">
    <path clip-path="url(#p91d6d2b449)" d="M 57.6 92.621513 
L 57.68928 123.821199 
L 57.77856 87.638738 
L 57.86784 123.578027 
L 57.95712 92.621513 
L 58.0464 123.821199 
L 58.13568 87.638738 
L 58.22496 123.578027 
L 58.31424 92.621513 
L 58.40352 123.821199 
L 58.4928 87.638738 
L 58.58208 123.578027 
L 58.67136 92.621513 
L 58.76064 123.821199 
L 58.84992 87.638738 
L 58.9392 123.578027 
L 59.02848 92.621513 
L 59.11776 123.821199 
L 59.20704 87.638738 
L 59.29632 123.578027 
L 59.3856 92.621513 
L 59.47488 123.821199 
L 59.56416 87.638738 
L 59.65344 123.578027 
L 59.74272 92.621513 
L 59.832 123.821199 
L 59.92128 87.638738 
L 60.01056 123.578027 
L 60.09984 92.621513 
L 60.18912 123.821199 
L 60.2784 87.638738 
L 60.36768 123.578027 
L 60.45696 92.621513 
L 60.54624 123.821199 
L 60.63552 87.638738 
L 60.7248 123.578027 
L 60.81408 92.621513 
L 60.90336 123.821199 
L 60.99264 87.638738 
L 61.08192 123.578027 
L 61.1712 92.621513 
L 61.26048 123.821199 
L 61.34976 87.638738 
L 61.43904 123.578027 
L 61.52832 92.621513 
L 61.6176 123.821199 
L 61.70688 87.638738 
L 61.79616 123.578027 
L 61.88544 92.621513 
L 61.97472 123.821199 
L 62.064 87.638738 
L 62.15328 123.578027 
L 62.24256 92.621513 
L 62.33184 123.821199 
L 62.42112 87.638738 
L 62.5104 123.578027 
L 62.59968 92.621513 
L 62.68896 123.821199 
L 62.77824 87.638738 
L 62.86752 123.578027 
L 62.9568 92.621513 
L 63.04608 123.821199 
L 63.13536 87.638738 
L 63.22464 123.578027 
L 63.31392 92.621513 
L 63.4032 123.821199 
L 63.49248 87.638738 
L 63.58176 123.578027 
L 63.67104 92.621513 
L 63.76032 123.821199 
L 63.8496 87.638738 
L 63.93888 123.578027 
L 64.02816 92.621513 
L 64.11744 123.821199 
L 64.20672 87.638738 
L 64.296 123.578027 
L 64.38528 92.621513 
L 64.47456 123.821199 
L 64.56384 87.638738 
L 64.65312 123.578027 
L 64.7424 92.621513 
L 64.83168 123.821199 
L 64.92096 87.638738 
L 65.01024 123.578027 
L 65.09952 92.621513 
L 65.1888 123.821199 
L 65.27808 87.638738 
L 65.36736 123.578027 
L 65.45664 92.621513 
L 65.54592 123.821199 
L 65.6352 87.638738 
L 65.72448 123.578027 
L 65.81376 92.621513 
L 65.90304 123.821199 
L 65.99232 87.638738 
L 66.0816 123.578027 
L 66.17088 92.621513 
L 66.26016 123.821199 
L 66.34944 87.638738 
L 66.43872 123.578027 
L 66.528 117.509458 
L 66.61728 93.420384 
L 66.70656 131.966613 
L 66.88512 84.094175 
L 67.06368 106.48865 
L 67.15296 120.6536 
L 67.24224 119.154145 
L 67.33152 85.018005 
L 67.51008 120.563673 
L 67.59936 93.277445 
L 67.77792 147.007012 
L 67.8672 134.852701 
L 67.95648 140.350141 
L 68.04576 92.912932 
L 68.13504 103.236916 
L 68.22432 102.174819 
L 68.3136 112.677109 
L 68.40288 104.617972 
L 68.49216 118.758756 
L 68.67072 101.846614 
L 68.76 122.459718 
L 68.93856 89.903455 
L 69.2064 115.635081 
L 69.29568 110.673942 
L 69.38496 97.341926 
L 69.47424 102.21918 
L 69.56352 90.940216 
L 69.6528 93.102834 
L 69.74208 131.400601 
L 69.83136 103.764732 
L 69.92064 126.220766 
L 70.0992 111.211605 
L 70.18848 130.672175 
L 70.27776 101.73206 
L 70.45632 122.114135 
L 70.63488 100.193458 
L 70.72416 96.210262 
L 70.81344 131.164563 
L 70.992 103.269101 
L 71.08128 92.756574 
L 71.17056 132.4934 
L 71.25984 88.033107 
L 71.34912 97.117973 
L 71.52768 122.948168 
L 71.61696 137.169282 
L 71.8848 91.909042 
L 72.06336 130.857527 
L 72.24192 111.646285 
L 72.3312 106.667229 
L 72.50976 110.013574 
L 72.59904 90.169058 
L 72.7776 114.686015 
L 72.95616 96.768263 
L 73.04544 118.69085 
L 73.224 97.122088 
L 73.31328 97.63923 
L 73.40256 94.984048 
L 73.58112 166.395879 
L 73.6704 96.093462 
L 73.75968 110.608162 
L 73.84896 109.804681 
L 73.93824 142.061612 
L 74.1168 100.956163 
L 74.20608 104.106542 
L 74.29536 100.099042 
L 74.38464 105.876867 
L 74.47392 98.966982 
L 74.5632 133.863085 
L 74.92032 89.306502 
L 75.18816 128.530648 
L 75.36672 83.133109 
L 75.456 116.352934 
L 75.63456 96.561871 
L 75.72384 97.224687 
L 75.81312 118.031224 
L 75.9024 117.670834 
L 75.99168 114.185112 
L 76.08096 104.869715 
L 76.17024 121.026024 
L 76.3488 87.788637 
L 76.61664 137.335124 
L 76.70592 96.392139 
L 76.7952 99.108194 
L 76.88448 113.328428 
L 76.97376 110.260467 
L 77.06304 111.562454 
L 77.15232 101.935527 
L 77.2416 124.944947 
L 77.59872 93.957823 
L 77.688 137.57511 
L 77.86656 102.3948 
L 77.95584 103.341776 
L 78.04512 88.265568 
L 78.22368 114.926703 
L 78.40224 92.699521 
L 78.49152 123.80902 
L 78.67008 112.686022 
L 78.75936 108.259887 
L 78.84864 119.63071 
L 78.93792 103.896074 
L 79.0272 110.807155 
L 79.11648 99.674325 
L 79.20576 125.100598 
L 79.29504 92.150509 
L 79.38432 97.811094 
L 79.56288 116.306855 
L 79.65216 156.234229 
L 79.83072 97.215866 
L 79.92 116.051138 
L 80.00928 97.180354 
L 80.09856 117.64654 
L 80.27712 105.285416 
L 80.3664 120.492152 
L 80.45568 87.814187 
L 80.54496 116.516052 
L 80.72352 99.886567 
L 80.8128 114.945332 
L 80.90208 85.531449 
L 81.08064 127.206142 
L 81.16992 99.733622 
L 81.2592 101.888148 
L 81.34848 121.882282 
L 81.43776 105.120142 
L 81.61632 113.903254 
L 81.7056 99.643189 
L 81.88416 123.763697 
L 81.97344 103.102648 
L 82.152 166.07627 
L 82.33056 97.344504 
L 82.41984 97.156749 
L 82.5984 115.344691 
L 82.77696 96.815387 
L 82.95552 127.798868 
L 83.0448 92.115639 
L 83.13408 94.726771 
L 83.22336 111.133394 
L 83.31264 109.407877 
L 83.40192 107.933002 
L 83.4912 114.55473 
L 83.58048 110.682034 
L 83.66976 80.328255 
L 83.75904 123.518274 
L 83.9376 95.339791 
L 84.02688 99.962543 
L 84.11616 120.592647 
L 84.20544 108.295746 
L 84.29472 116.852564 
L 84.384 138.284132 
L 84.47328 114.29028 
L 84.56256 117.002679 
L 84.65184 98.299144 
L 84.74112 98.873929 
L 84.8304 89.003396 
L 84.91968 113.337215 
L 85.18752 93.048227 
L 85.2768 131.492287 
L 85.36608 89.209045 
L 85.45536 108.817588 
L 85.54464 95.516046 
L 85.63392 106.068287 
L 85.7232 105.944585 
L 85.81248 105.967243 
L 85.90176 103.980427 
L 85.99104 94.35654 
L 86.08032 98.809072 
L 86.25888 125.951599 
L 86.34816 128.199067 
L 86.43744 134.004016 
L 86.52672 120.340594 
L 86.616 128.000645 
L 86.79456 111.821087 
L 86.88384 89.334847 
L 86.97312 98.778344 
L 87.0624 89.008406 
L 87.15168 106.53254 
L 87.24096 96.24424 
L 87.33024 128.317962 
L 87.5088 107.751336 
L 87.59808 111.651222 
L 87.68736 142.553715 
L 87.86592 94.519481 
L 88.04448 121.909217 
L 88.22304 115.38076 
L 88.4016 96.45226 
L 88.49088 135.538044 
L 88.58016 100.23504 
L 88.66944 109.788844 
L 88.75872 99.222514 
L 88.848 103.238253 
L 88.93728 102.383084 
L 89.02656 91.4536 
L 89.11584 98.102737 
L 89.20512 118.973882 
L 89.38368 95.178551 
L 89.47296 120.386695 
L 89.56224 91.848763 
L 89.65152 124.344518 
L 89.7408 121.946826 
L 89.83008 115.637259 
L 89.91936 96.397626 
L 90.1872 119.973747 
L 90.27648 106.221789 
L 90.36576 126.214863 
L 90.45504 103.330204 
L 90.54432 103.571249 
L 90.6336 104.273541 
L 90.81216 85.183885 
L 90.99072 127.256635 
L 91.16928 125.301455 
L 91.25856 96.959315 
L 91.43712 143.146394 
L 91.5264 105.060155 
L 91.61568 107.80261 
L 91.79424 123.949715 
L 91.88352 93.683151 
L 91.9728 132.094304 
L 92.06208 117.251862 
L 92.15136 173.034049 
L 92.32992 93.589283 
L 92.59776 129.169217 
L 92.68704 121.773042 
L 92.77632 96.475296 
L 92.8656 122.856371 
L 92.95488 107.73331 
L 93.13344 125.680861 
L 93.22272 89.114018 
L 93.40128 122.588857 
L 93.49056 103.003398 
L 93.66912 115.563715 
L 93.7584 107.398416 
L 93.84768 124.403078 
L 94.02624 87.130896 
L 94.2048 113.718273 
L 94.38336 123.845552 
L 94.56192 99.606639 
L 94.6512 94.054647 
L 94.82976 136.673589 
L 94.91904 96.141155 
L 95.0976 117.303211 
L 95.18688 115.547924 
L 95.27616 86.982954 
L 95.36544 93.702834 
L 95.544 148.666125 
L 95.9904 90.675059 
L 96.07968 120.979317 
L 96.16896 120.9016 
L 96.25824 97.612505 
L 96.34752 123.792289 
L 96.52608 107.073514 
L 96.70464 115.907042 
L 96.79392 96.050376 
L 96.8832 139.04744 
L 97.06176 112.975227 
L 97.15104 121.415359 
L 97.24032 109.890768 
L 97.3296 127.926801 
L 97.50816 95.537888 
L 97.59744 126.056858 
L 97.68672 116.025468 
L 97.776 122.275031 
L 97.86528 109.239646 
L 98.04384 125.309424 
L 98.13312 93.783233 
L 98.31168 114.379802 
L 98.49024 96.869464 
L 98.6688 120.250749 
L 98.75808 88.387976 
L 98.84736 125.929211 
L 99.02592 102.41196 
L 99.1152 87.857597 
L 99.20448 123.559657 
L 99.29376 86.015921 
L 99.38304 116.542428 
L 99.47232 102.218707 
L 99.5616 102.827666 
L 99.65088 111.479915 
L 99.82944 102.894593 
L 99.91872 94.69081 
L 100.008 101.241293 
L 100.09728 125.313973 
L 100.18656 98.654281 
L 100.27584 106.675339 
L 100.36512 125.238219 
L 100.54368 102.023207 
L 100.63296 129.596458 
L 100.81152 110.480341 
L 100.9008 123.544823 
L 100.99008 112.730997 
L 101.07936 132.889575 
L 101.25792 104.68341 
L 101.43648 125.829168 
L 101.52576 82.695144 
L 101.61504 104.911265 
L 101.70432 103.315888 
L 101.7936 111.148101 
L 102.06144 88.359506 
L 102.15072 98.216876 
L 102.24 123.04676 
L 102.32928 91.624016 
L 102.50784 122.515303 
L 102.59712 96.903923 
L 102.86496 130.758473 
L 102.95424 96.31263 
L 103.1328 116.400461 
L 103.22208 87.987259 
L 103.31136 94.581185 
L 103.40064 93.3694 
L 103.5792 115.409763 
L 103.75776 99.852881 
L 103.84704 121.734109 
L 103.93632 95.465724 
L 104.0256 97.078655 
L 104.20416 106.696965 
L 104.29344 105.002214 
L 104.38272 84.132446 
L 104.472 110.416446 
L 104.56128 108.132564 
L 104.73984 119.563029 
L 104.9184 96.902262 
L 105.00768 149.147871 
L 105.09696 97.798247 
L 105.18624 104.875188 
L 105.3648 131.900368 
L 105.45408 99.918684 
L 105.63264 132.18256 
L 105.72192 102.535852 
L 105.8112 108.874926 
L 105.90048 132.997941 
L 105.98976 102.401543 
L 106.16832 132.712143 
L 106.34688 88.998576 
L 106.61472 125.797834 
L 106.88256 110.699649 
L 106.97184 87.549118 
L 107.06112 105.57909 
L 107.1504 86.977875 
L 107.32896 115.150117 
L 107.41824 115.972599 
L 107.50752 108.739358 
L 107.5968 119.470342 
L 107.77536 95.114206 
L 107.86464 95.777727 
L 107.95392 126.519704 
L 108.0432 115.01588 
L 108.13248 128.540407 
L 108.31104 95.140989 
L 108.40032 98.849209 
L 108.4896 91.001834 
L 108.66816 112.291312 
L 108.75744 99.300173 
L 108.84672 106.936494 
L 108.936 106.48678 
L 109.02528 110.398424 
L 109.11456 84.362139 
L 109.29312 107.924465 
L 109.3824 103.802389 
L 109.47168 128.85215 
L 109.8288 95.792591 
L 109.91808 99.522201 
L 110.00736 109.786705 
L 110.18592 84.962621 
L 110.2752 99.476061 
L 110.36448 83.435207 
L 110.54304 104.470334 
L 110.63232 94.559082 
L 110.81088 112.44308 
L 110.90016 80.014622 
L 110.98944 115.316051 
L 111.168 92.725093 
L 111.25728 114.559152 
L 111.34656 109.728841 
L 111.43584 96.163718 
L 111.6144 127.64352 
L 111.70368 111.190147 
L 111.79296 129.462063 
L 111.97152 90.986677 
L 112.23936 130.568396 
L 112.32864 111.612694 
L 112.41792 115.232872 
L 112.5072 117.041982 
L 112.59648 99.536658 
L 112.68576 121.748212 
L 112.77504 117.099776 
L 112.86432 89.188631 
L 113.04288 129.548356 
L 113.13216 96.730732 
L 113.22144 98.766178 
L 113.31072 92.296231 
L 113.4 124.086594 
L 113.48928 112.970171 
L 113.57856 118.128866 
L 113.66784 85.792611 
L 113.75712 107.366447 
L 113.8464 103.294624 
L 113.93568 88.983325 
L 114.02496 120.916096 
L 114.11424 86.128095 
L 114.2928 113.499154 
L 114.38208 108.289066 
L 114.56064 127.194621 
L 114.7392 106.881967 
L 114.91776 119.190724 
L 115.1856 91.266833 
L 115.27488 98.792753 
L 115.45344 130.988996 
L 115.632 114.605392 
L 115.72128 113.523142 
L 115.81056 100.4178 
L 115.89984 105.053981 
L 115.98912 91.413676 
L 116.0784 112.995213 
L 116.16768 107.705374 
L 116.34624 111.416747 
L 116.61408 132.091741 
L 116.70336 116.249166 
L 116.79264 125.936939 
L 116.9712 90.943678 
L 117.06048 101.289903 
L 117.14976 90.143642 
L 117.4176 132.682823 
L 117.50688 92.272371 
L 117.59616 112.823855 
L 117.68544 106.086672 
L 117.77472 112.790227 
L 117.864 99.171992 
L 118.13184 115.487395 
L 118.22112 151.557358 
L 118.3104 89.182865 
L 118.39968 110.360438 
L 118.48896 94.440121 
L 118.7568 118.809744 
L 118.84608 118.091278 
L 119.11392 85.427156 
L 119.2032 104.299581 
L 119.38176 84.938071 
L 119.56032 100.6633 
L 119.6496 104.704966 
L 119.73888 138.364115 
L 119.82816 115.756519 
L 119.91744 134.328344 
L 120.00672 90.329103 
L 120.18528 130.630759 
L 120.27456 100.039457 
L 120.36384 101.080994 
L 120.5424 113.704979 
L 120.63168 95.440087 
L 120.72096 120.134674 
L 120.81024 115.015919 
L 120.89952 125.966902 
L 120.9888 120.852172 
L 121.16736 93.598131 
L 121.25664 94.013723 
L 121.34592 130.187349 
L 121.52448 102.874033 
L 121.61376 105.934078 
L 121.70304 139.626107 
L 121.79232 129.712772 
L 121.8816 101.428556 
L 122.06016 114.677107 
L 122.23872 106.174534 
L 122.328 138.654563 
L 122.41728 130.999348 
L 122.50656 89.860075 
L 122.7744 116.223392 
L 123.04224 85.579326 
L 123.13152 120.731579 
L 123.31008 83.195438 
L 123.39936 116.294653 
L 123.57792 103.417461 
L 123.6672 124.907368 
L 123.84576 102.78657 
L 123.93504 116.629637 
L 124.02432 104.933247 
L 124.1136 118.012433 
L 124.20288 113.070891 
L 124.29216 95.954952 
L 124.47072 131.196232 
L 124.56 95.24581 
L 124.64928 118.554735 
L 124.73856 89.787097 
L 124.91712 113.310407 
L 125.18496 103.772583 
L 125.27424 106.969862 
L 125.36352 90.677118 
L 125.4528 111.249933 
L 125.54208 102.120903 
L 125.63136 125.570051 
L 125.80992 86.563775 
L 125.8992 109.865529 
L 125.98848 99.455817 
L 126.07776 119.259794 
L 126.16704 90.737056 
L 126.43488 120.460426 
L 126.52416 117.18498 
L 126.61344 101.846792 
L 126.70272 141.976574 
L 126.88128 94.43915 
L 126.97056 120.888849 
L 127.14912 87.685869 
L 127.32768 118.248268 
L 127.41696 118.050342 
L 127.50624 103.257053 
L 127.59552 109.151087 
L 127.6848 105.359825 
L 127.77408 120.097869 
L 127.86336 102.849347 
L 127.95264 128.47702 
L 128.1312 99.077248 
L 128.22048 118.74939 
L 128.30976 108.357021 
L 128.39904 116.183998 
L 128.5776 105.962437 
L 128.66688 106.671842 
L 128.75616 120.118022 
L 128.84544 99.470269 
L 128.93472 132.755305 
L 129.11328 89.071296 
L 129.20256 130.387863 
L 129.38112 95.463637 
L 129.55968 133.505308 
L 129.64896 106.637671 
L 129.73824 118.397223 
L 129.82752 90.503626 
L 130.00608 109.731243 
L 130.09536 104.633127 
L 130.18464 123.616738 
L 130.27392 100.17739 
L 130.3632 102.150877 
L 130.45248 103.808115 
L 130.54176 100.504356 
L 130.63104 112.798656 
L 130.8096 81.599852 
L 130.89888 115.348197 
L 130.98816 108.719204 
L 131.07744 95.476077 
L 131.16672 123.820556 
L 131.256 95.705769 
L 131.34528 137.565049 
L 131.52384 99.209698 
L 131.7024 114.847435 
L 131.79168 76.607826 
L 131.88096 105.646262 
L 131.97024 85.92286 
L 132.1488 101.509512 
L 132.23808 94.26073 
L 132.32736 101.437505 
L 132.41664 93.610781 
L 132.50592 109.533861 
L 132.5952 83.276653 
L 132.68448 92.215727 
L 132.77376 113.728451 
L 132.86304 106.003622 
L 132.95232 110.376677 
L 133.0416 126.322947 
L 133.13088 100.271682 
L 133.30944 115.626382 
L 133.39872 149.702689 
L 133.488 92.258733 
L 133.57728 106.383233 
L 133.66656 96.63038 
L 133.75584 99.780078 
L 133.9344 92.799499 
L 134.02368 102.013387 
L 134.11296 101.287374 
L 134.20224 99.49397 
L 134.3808 107.731126 
L 134.47008 122.449408 
L 134.55936 98.423719 
L 134.64864 113.050845 
L 134.73792 108.550532 
L 134.8272 111.258357 
L 134.91648 102.898524 
L 135.00576 109.25228 
L 135.09504 153.578961 
L 135.18432 102.21925 
L 135.2736 111.858442 
L 135.36288 108.119116 
L 135.45216 81.688218 
L 135.54144 117.980768 
L 135.72 94.9028 
L 135.80928 131.66562 
L 135.98784 107.883821 
L 136.07712 108.420263 
L 136.25568 125.538719 
L 136.34496 107.950662 
L 136.43424 108.18169 
L 136.52352 113.836616 
L 136.6128 92.620234 
L 136.70208 97.155068 
L 136.79136 96.015567 
L 136.88064 109.244791 
L 136.96992 107.869761 
L 137.0592 106.937003 
L 137.14848 107.437008 
L 137.32704 90.664639 
L 137.59488 105.343393 
L 137.68416 103.160137 
L 137.86272 112.355124 
L 138.04128 100.706359 
L 138.13056 121.088263 
L 138.21984 86.60819 
L 138.3984 128.740934 
L 138.66624 91.641393 
L 138.75552 96.567573 
L 138.8448 90.109246 
L 138.93408 109.523535 
L 139.02336 88.226144 
L 139.20192 109.765104 
L 139.2912 95.838982 
L 139.38048 103.23806 
L 139.46976 92.191778 
L 139.64832 113.600462 
L 139.7376 108.062962 
L 139.91616 137.089194 
L 140.184 96.104304 
L 140.27328 98.282865 
L 140.36256 116.446563 
L 140.54112 94.240602 
L 140.6304 108.595461 
L 140.71968 100.969641 
L 140.80896 118.492204 
L 140.89824 185.45265 
L 140.98752 92.321315 
L 141.0768 108.037629 
L 141.25536 86.315663 
L 141.43392 130.76077 
L 141.61248 90.945037 
L 141.70176 107.858246 
L 141.79104 106.353897 
L 141.88032 103.571174 
L 141.9696 81.960069 
L 142.05888 104.605544 
L 142.14816 82.939421 
L 142.32672 124.272198 
L 142.416 101.467655 
L 142.50528 118.278195 
L 142.59456 95.725112 
L 142.68384 105.939942 
L 142.77312 83.347456 
L 142.8624 106.091863 
L 142.95168 87.234377 
L 143.04096 91.116225 
L 143.13024 109.739714 
L 143.21952 103.951685 
L 143.3088 89.902484 
L 143.39808 91.995068 
L 143.66592 106.32004 
L 143.7552 112.32813 
L 143.84448 127.307973 
L 144.11232 87.236808 
L 144.2016 127.574662 
L 144.38016 85.314226 
L 144.55872 126.200771 
L 144.648 94.63913 
L 144.73728 97.577032 
L 144.91584 112.465843 
L 145.00512 106.733509 
L 145.0944 117.875558 
L 145.18368 87.448959 
L 145.27296 90.931663 
L 145.36224 81.43159 
L 145.45152 108.820425 
L 145.5408 105.618935 
L 145.63008 92.924909 
L 145.71936 134.136683 
L 145.80864 95.286227 
L 145.89792 123.409989 
L 146.16576 84.139911 
L 146.34432 108.40211 
L 146.52288 82.660493 
L 146.61216 88.271859 
L 146.70144 110.613282 
L 146.79072 92.807211 
L 146.96928 111.025252 
L 147.14784 95.898604 
L 147.3264 123.148231 
L 147.41568 96.294671 
L 147.50496 101.048867 
L 147.59424 120.416183 
L 147.68352 85.08733 
L 147.7728 110.290108 
L 147.86208 104.984353 
L 147.95136 125.433347 
L 148.04064 102.616103 
L 148.12992 110.540218 
L 148.2192 87.238324 
L 148.30848 119.598763 
L 148.39776 98.335313 
L 148.48704 98.567933 
L 148.57632 120.932982 
L 148.75488 92.119556 
L 148.84416 114.702958 
L 148.93344 95.308866 
L 149.02272 97.581519 
L 149.112 95.378681 
L 149.20128 102.587487 
L 149.29056 129.911221 
L 149.46912 97.220841 
L 149.5584 116.07656 
L 149.64768 102.099978 
L 149.73696 113.817272 
L 149.82624 92.11599 
L 149.91552 108.893458 
L 150.0048 106.050002 
L 150.09408 92.309907 
L 150.18336 95.288279 
L 150.36192 112.494704 
L 150.54048 85.495155 
L 150.71904 115.583896 
L 150.80832 94.200719 
L 150.8976 115.624782 
L 150.98688 101.759413 
L 151.07616 106.789791 
L 151.16544 103.9993 
L 151.25472 96.602781 
L 151.344 113.080387 
L 151.52256 100.532371 
L 151.61184 102.450859 
L 151.70112 119.872802 
L 151.7904 85.005872 
L 151.96896 121.014187 
L 152.05824 99.894645 
L 152.14752 108.161759 
L 152.2368 105.283114 
L 152.32608 82.051244 
L 152.41536 99.967597 
L 152.50464 97.584891 
L 152.59392 97.580167 
L 152.77248 121.00734 
L 152.86176 83.495044 
L 153.04032 120.143618 
L 153.21888 97.115882 
L 153.30816 112.020814 
L 153.48672 91.211865 
L 153.576 119.947147 
L 153.66528 114.969222 
L 153.75456 103.562949 
L 153.84384 112.493823 
L 154.0224 81.390732 
L 154.20096 124.09962 
L 154.29024 118.739453 
L 154.37952 98.218767 
L 154.55808 109.673335 
L 154.64736 103.354542 
L 154.73664 83.4733 
L 154.9152 107.769452 
L 155.00448 96.965324 
L 155.18304 115.80759 
L 155.3616 95.475084 
L 155.45088 98.443273 
L 155.54016 93.988304 
L 155.62944 94.844825 
L 155.808 103.87881 
L 155.89728 103.655432 
L 155.98656 126.708564 
L 156.07584 92.407228 
L 156.16512 105.196758 
L 156.2544 92.858742 
L 156.34368 106.694964 
L 156.43296 105.348356 
L 156.61152 96.445294 
L 156.7008 99.041961 
L 156.79008 106.376838 
L 156.87936 145.772899 
L 156.96864 83.839781 
L 157.1472 122.354439 
L 157.23648 109.014021 
L 157.32576 116.460565 
L 157.50432 94.119061 
L 157.5936 101.423964 
L 157.68288 121.699071 
L 157.77216 93.922738 
L 157.86144 99.225607 
L 157.95072 95.216586 
L 158.04 99.372341 
L 158.12928 98.228785 
L 158.21856 109.731659 
L 158.30784 96.060955 
L 158.39712 112.875823 
L 158.57568 94.309649 
L 158.66496 89.793102 
L 158.84352 116.923989 
L 158.9328 112.88924 
L 159.11136 99.040553 
L 159.28992 121.046873 
L 159.46848 99.326019 
L 159.55776 104.233298 
L 159.64704 109.060512 
L 159.73632 103.467318 
L 159.8256 85.319535 
L 160.00416 107.559442 
L 160.09344 91.651513 
L 160.18272 94.577764 
L 160.272 114.721022 
L 160.36128 98.046856 
L 160.45056 109.663671 
L 160.53984 88.817141 
L 160.62912 120.348883 
L 160.7184 107.745318 
L 160.80768 111.312161 
L 160.89696 110.198797 
L 160.98624 96.305046 
L 161.07552 118.377215 
L 161.1648 94.952096 
L 161.34336 111.170007 
L 161.43264 96.412272 
L 161.6112 105.199425 
L 161.70048 118.873026 
L 161.78976 111.115541 
L 161.87904 115.572735 
L 161.96832 106.638335 
L 162.14688 129.494126 
L 162.23616 107.612122 
L 162.41472 139.881733 
L 162.68256 93.455923 
L 162.77184 96.794324 
L 162.86112 119.824857 
L 162.9504 116.413813 
L 163.03968 101.271988 
L 163.12896 103.565844 
L 163.30752 111.877951 
L 163.3968 92.997018 
L 163.48608 117.762884 
L 163.75392 93.669718 
L 163.93248 123.042729 
L 164.02176 119.998536 
L 164.11104 119.290726 
L 164.20032 81.829704 
L 164.2896 89.699852 
L 164.37888 97.394334 
L 164.46816 129.412251 
L 164.55744 91.418363 
L 164.64672 117.510928 
L 164.82528 99.593975 
L 164.91456 111.317824 
L 165.00384 102.541879 
L 165.09312 114.122593 
L 165.1824 104.829328 
L 165.27168 115.902144 
L 165.36096 84.715829 
L 165.6288 110.365595 
L 165.71808 97.223751 
L 165.80736 101.253246 
L 165.89664 80.456376 
L 166.0752 133.827648 
L 166.25376 133.406599 
L 166.34304 93.603872 
L 166.43232 121.305938 
L 166.5216 103.450163 
L 166.61088 131.488031 
L 166.70016 87.329448 
L 166.968 142.798913 
L 167.05728 124.054898 
L 167.14656 81.5265 
L 167.32512 124.405953 
L 167.50368 91.470335 
L 167.59296 102.351539 
L 167.68224 83.498138 
L 167.95008 145.698291 
L 168.03936 88.681616 
L 168.3072 117.520397 
L 168.39648 86.052385 
L 168.48576 109.008742 
L 168.57504 168.744648 
L 168.66432 88.291308 
L 168.7536 106.389799 
L 168.84288 98.311557 
L 168.93216 113.284062 
L 169.02144 102.674403 
L 169.11072 108.56516 
L 169.2 85.091836 
L 169.28928 132.354056 
L 169.37856 85.408197 
L 169.46784 107.940952 
L 169.55712 95.199129 
L 169.73568 168.119734 
L 169.82496 86.828825 
L 169.91424 121.642994 
L 170.00352 95.071617 
L 170.18208 121.685862 
L 170.27136 78.628005 
L 170.44992 121.474343 
L 170.5392 95.331707 
L 170.62848 108.80485 
L 170.71776 87.999698 
L 170.89632 103.998451 
L 170.9856 96.909251 
L 171.07488 120.54179 
L 171.25344 108.508118 
L 171.34272 106.89558 
L 171.432 91.773016 
L 171.52128 93.888478 
L 171.61056 100.160348 
L 171.69984 123.535139 
L 171.78912 92.041884 
L 171.8784 96.104446 
L 171.96768 136.772123 
L 172.05696 110.722274 
L 172.14624 113.339909 
L 172.23552 107.057648 
L 172.3248 117.168571 
L 172.50336 92.136164 
L 172.59264 106.253894 
L 172.68192 97.9895 
L 172.94976 113.403547 
L 173.12832 79.240085 
L 173.39616 133.080372 
L 173.48544 105.998618 
L 173.57472 106.124092 
L 173.664 102.91834 
L 173.84256 115.297759 
L 174.02112 100.559784 
L 174.1104 111.904415 
L 174.19968 100.427999 
L 174.28896 101.511309 
L 174.37824 102.295024 
L 174.46752 96.965784 
L 174.64608 132.541716 
L 174.73536 95.442709 
L 174.82464 99.124493 
L 175.0032 110.025294 
L 175.18176 98.751992 
L 175.27104 108.536302 
L 175.36032 79.459997 
L 175.4496 85.485342 
L 175.53888 120.411435 
L 175.62816 80.694815 
L 175.71744 117.870544 
L 175.80672 82.935787 
L 175.98528 105.894337 
L 176.16384 78.564807 
L 176.3424 122.786729 
L 176.43168 97.500682 
L 176.52096 101.942333 
L 176.61024 109.519199 
L 176.69952 95.887246 
L 176.7888 110.541585 
L 176.87808 96.331338 
L 176.96736 96.385622 
L 177.05664 107.562168 
L 177.14592 105.079007 
L 177.2352 99.193728 
L 177.32448 99.60522 
L 177.41376 102.27908 
L 177.50304 90.944581 
L 177.59232 91.553717 
L 177.6816 87.476171 
L 177.86016 117.424075 
L 177.94944 94.590159 
L 178.03872 94.754289 
L 178.30656 111.212172 
L 178.39584 115.729651 
L 178.5744 103.321513 
L 178.66368 89.691731 
L 178.75296 132.140463 
L 178.84224 88.881204 
L 178.93152 90.558701 
L 179.0208 114.992845 
L 179.11008 105.956882 
L 179.19936 106.05777 
L 179.28864 125.520341 
L 179.55648 84.113889 
L 179.64576 84.422197 
L 179.73504 89.155195 
L 179.82432 85.790434 
L 180.00288 142.741325 
L 180.18144 96.399793 
L 180.27072 123.104167 
L 180.36 84.50409 
L 180.53856 112.998301 
L 180.62784 86.826648 
L 180.71712 90.1755 
L 180.8064 114.677354 
L 180.89568 80.904447 
L 180.98496 85.571414 
L 181.07424 122.54388 
L 181.2528 90.889026 
L 181.34208 103.491903 
L 181.43136 83.18836 
L 181.52064 124.951355 
L 181.60992 96.279432 
L 181.6992 131.855264 
L 181.78848 102.251184 
L 181.87776 125.557394 
L 182.05632 91.274555 
L 182.23488 109.550251 
L 182.32416 101.378662 
L 182.41344 107.76105 
L 182.592 125.631632 
L 182.68128 101.53966 
L 182.77056 109.386572 
L 182.85984 106.204453 
L 182.94912 108.353353 
L 183.0384 121.342449 
L 183.21696 101.325933 
L 183.30624 102.294981 
L 183.39552 98.384875 
L 183.4848 98.692377 
L 183.57408 105.713328 
L 183.75264 90.66231 
L 183.84192 93.343698 
L 183.9312 89.268444 
L 184.10976 123.817474 
L 184.19904 93.880886 
L 184.3776 120.03195 
L 184.46688 97.888665 
L 184.55616 105.880254 
L 184.64544 96.630523 
L 184.73472 119.395141 
L 184.824 81.107844 
L 184.91328 118.3291 
L 185.00256 94.133829 
L 185.09184 103.201397 
L 185.18112 92.760621 
L 185.2704 137.841955 
L 185.53824 80.612165 
L 185.80608 114.645438 
L 185.98464 88.960293 
L 186.07392 114.399274 
L 186.1632 110.25636 
L 186.25248 124.493016 
L 186.34176 89.493716 
L 186.43104 98.157109 
L 186.52032 82.261159 
L 186.6096 103.332897 
L 186.78816 90.884066 
L 186.87744 111.902051 
L 187.14528 94.827572 
L 187.23456 95.538031 
L 187.41312 124.142109 
L 187.59168 85.175243 
L 187.77024 81.257028 
L 187.9488 105.034091 
L 188.03808 103.912744 
L 188.12736 103.453288 
L 188.21664 114.720329 
L 188.3952 95.369081 
L 188.48448 132.985321 
L 188.57376 106.678694 
L 188.66304 111.174629 
L 188.75232 96.70798 
L 188.8416 105.956815 
L 188.93088 100.942797 
L 189.02016 88.165454 
L 189.10944 100.112378 
L 189.19872 128.152381 
L 189.288 102.327016 
L 189.37728 104.877575 
L 189.46656 105.513142 
L 189.55584 97.553211 
L 189.64512 107.868401 
L 189.82368 104.116505 
L 189.91296 107.308607 
L 190.00224 95.216529 
L 190.1808 131.118408 
L 190.35936 97.279067 
L 190.44864 109.589131 
L 190.53792 100.201577 
L 190.6272 100.707645 
L 190.71648 103.441519 
L 190.80576 73.904339 
L 190.98432 102.961658 
L 191.0736 98.022829 
L 191.16288 124.330154 
L 191.25216 100.687315 
L 191.34144 118.538774 
L 191.52 92.235728 
L 191.60928 102.904502 
L 191.69856 98.913111 
L 191.78784 109.202395 
L 191.87712 100.260757 
L 191.9664 121.593181 
L 192.05568 105.950094 
L 192.14496 115.360115 
L 192.32352 91.944672 
L 192.59136 104.963011 
L 192.68064 97.598622 
L 192.8592 128.762981 
L 193.03776 104.525002 
L 193.12704 102.670304 
L 193.21632 79.236353 
L 193.48416 109.145881 
L 193.57344 112.383399 
L 193.66272 107.296976 
L 193.752 109.022526 
L 193.93056 144.485764 
L 194.10912 99.59987 
L 194.1984 117.309992 
L 194.28768 107.515167 
L 194.37696 120.161367 
L 194.55552 84.388552 
L 194.73408 104.834776 
L 194.82336 103.06513 
L 194.91264 130.294575 
L 195.0912 87.93 
L 195.18048 89.280467 
L 195.35904 131.561187 
L 195.44832 103.997775 
L 195.5376 124.565356 
L 195.71616 84.288098 
L 195.89472 104.943391 
L 195.984 106.934926 
L 196.07328 112.014747 
L 196.16256 89.644544 
L 196.25184 96.525543 
L 196.34112 122.683457 
L 196.4304 91.701775 
L 196.51968 103.392425 
L 196.60896 95.449938 
L 196.69824 122.517557 
L 196.96608 107.146067 
L 197.05536 109.179838 
L 197.23392 121.31868 
L 197.3232 113.55713 
L 197.41248 123.526029 
L 197.68032 87.815744 
L 197.85888 116.432193 
L 197.94816 106.515424 
L 198.12672 117.513137 
L 198.216 101.507396 
L 198.30528 127.549769 
L 198.39456 125.26125 
L 198.48384 96.038998 
L 198.57312 110.84927 
L 198.75168 100.222199 
L 198.84096 112.537856 
L 198.93024 99.956234 
L 199.01952 125.128228 
L 199.19808 93.010244 
L 199.37664 123.043569 
L 199.46592 92.241266 
L 199.64448 111.956107 
L 199.73376 108.925719 
L 199.82304 113.467758 
L 199.91232 98.05891 
L 200.0016 133.270918 
L 200.09088 97.725214 
L 200.18016 131.438709 
L 200.35872 91.681127 
L 200.448 103.893226 
L 200.53728 84.004438 
L 200.62656 93.093613 
L 200.71584 115.282726 
L 200.80512 94.983433 
L 200.8944 106.872478 
L 201.07296 83.134998 
L 201.16224 94.983393 
L 201.25152 86.928294 
L 201.3408 89.829602 
L 201.43008 103.035635 
L 201.69792 74.171627 
L 201.96576 122.839632 
L 202.05504 99.345815 
L 202.2336 123.938711 
L 202.68 92.288324 
L 202.76928 110.288784 
L 202.85856 90.855949 
L 202.94784 91.664193 
L 203.03712 104.666779 
L 203.21568 85.099766 
L 203.30496 111.223457 
L 203.39424 96.275731 
L 203.5728 122.441604 
L 203.75136 105.027572 
L 203.84064 103.53841 
L 204.0192 97.135508 
L 204.19776 107.290231 
L 204.28704 91.031761 
L 204.37632 105.16049 
L 204.4656 94.610813 
L 204.55488 105.167517 
L 204.73344 98.748817 
L 204.82272 80.719749 
L 204.912 99.496669 
L 205.00128 96.645134 
L 205.09056 102.212601 
L 205.26912 94.674342 
L 205.3584 95.216411 
L 205.53696 116.849669 
L 205.62624 116.849226 
L 205.71552 105.392267 
L 205.8048 119.767917 
L 205.98336 88.299446 
L 206.07264 91.684447 
L 206.16192 119.035101 
L 206.2512 91.169292 
L 206.34048 110.393868 
L 206.42976 94.817296 
L 206.51904 107.111772 
L 206.60832 106.682335 
L 206.6976 111.273661 
L 207.05472 98.724604 
L 207.144 103.68826 
L 207.23328 82.014072 
L 207.41184 107.268366 
L 207.50112 103.159732 
L 207.5904 102.123572 
L 207.67968 121.631371 
L 207.85824 100.340233 
L 207.94752 99.480547 
L 208.0368 139.635341 
L 208.12608 82.483785 
L 208.21536 85.743483 
L 208.30464 121.280842 
L 208.39392 116.563866 
L 208.4832 88.922182 
L 208.57248 100.000768 
L 208.66176 93.184435 
L 208.84032 112.216381 
L 208.9296 107.56313 
L 209.01888 124.189825 
L 209.19744 99.859241 
L 209.28672 106.516724 
L 209.46528 91.619364 
L 209.55456 97.145119 
L 209.64384 94.875584 
L 209.73312 95.380521 
L 209.91168 117.866485 
L 210.09024 95.65215 
L 210.17952 111.67418 
L 210.2688 99.278407 
L 210.35808 114.000446 
L 210.7152 94.211723 
L 210.80448 101.160966 
L 210.89376 91.498197 
L 210.98304 110.198808 
L 211.1616 89.247653 
L 211.25088 85.911004 
L 211.42944 103.299125 
L 211.51872 88.500564 
L 211.608 115.869356 
L 211.69728 87.050038 
L 211.78656 112.853971 
L 211.96512 90.693016 
L 212.0544 96.676235 
L 212.14368 95.171152 
L 212.23296 89.11464 
L 212.32224 89.418401 
L 212.41152 119.37565 
L 212.5008 89.653605 
L 212.59008 100.801825 
L 212.67936 95.088524 
L 212.76864 110.419835 
L 212.85792 90.911885 
L 212.9472 115.594112 
L 213.03648 83.167569 
L 213.30432 109.273284 
L 213.48288 85.746573 
L 213.66144 104.428054 
L 213.75072 96.753273 
L 213.84 75.908591 
L 214.01856 92.508539 
L 214.10784 91.83635 
L 214.19712 87.829782 
L 214.2864 98.619577 
L 214.37568 86.666724 
L 214.46496 97.917289 
L 214.55424 90.66233 
L 214.64352 145.964342 
L 214.82208 104.239951 
L 214.91136 107.603445 
L 215.00064 95.568278 
L 215.08992 110.88733 
L 215.26848 84.713862 
L 215.35776 90.920985 
L 215.53632 123.733711 
L 215.6256 99.423083 
L 215.71488 115.95548 
L 215.98272 89.958911 
L 216.16128 114.469384 
L 216.33984 97.310272 
L 216.42912 98.033871 
L 216.60768 95.753408 
L 216.69696 96.974292 
L 216.78624 103.339866 
L 216.87552 124.054508 
L 216.9648 121.323456 
L 217.05408 91.359823 
L 217.14336 118.745742 
L 217.4112 88.494508 
L 217.50048 100.196402 
L 217.58976 145.269134 
L 217.67904 91.049368 
L 217.76832 96.088075 
L 217.8576 111.252091 
L 217.94688 89.417573 
L 218.03616 119.836515 
L 218.12544 101.102242 
L 218.21472 102.713112 
L 218.304 90.806062 
L 218.57184 110.460238 
L 218.66112 85.894016 
L 218.7504 89.046182 
L 218.83968 89.164715 
L 218.92896 68.521045 
L 219.1968 101.65206 
L 219.46464 85.599364 
L 219.55392 110.980857 
L 219.6432 85.141995 
L 219.73248 109.085225 
L 219.91104 91.515827 
L 220.00032 97.267 
L 220.0896 121.054848 
L 220.17888 86.518697 
L 220.26816 115.508587 
L 220.35744 107.66659 
L 220.44672 108.708501 
L 220.71456 97.071681 
L 220.80384 109.645841 
L 220.9824 90.721875 
L 221.07168 97.496757 
L 221.16096 89.101191 
L 221.33952 132.021652 
L 221.51808 91.612402 
L 221.60736 86.392167 
L 221.69664 115.822238 
L 221.8752 96.082392 
L 221.96448 114.730784 
L 222.05376 95.394489 
L 222.14304 106.806727 
L 222.23232 102.342467 
L 222.3216 131.030369 
L 222.58944 89.383326 
L 222.67872 107.598592 
L 222.768 102.448592 
L 222.85728 86.860357 
L 223.03584 112.338587 
L 223.12512 93.778013 
L 223.2144 94.67424 
L 223.30368 115.673187 
L 223.48224 97.966621 
L 223.6608 100.848334 
L 223.75008 89.280873 
L 224.01792 100.48763 
L 224.1072 87.413603 
L 224.19648 91.121899 
L 224.28576 105.867013 
L 224.37504 104.34154 
L 224.46432 88.77532 
L 224.64288 131.189303 
L 224.82144 84.016883 
L 224.91072 108.240483 
L 225 105.498574 
L 225.08928 76.713718 
L 225.35712 103.826832 
L 225.4464 96.58847 
L 225.62496 105.376724 
L 225.71424 94.782786 
L 225.80352 117.815303 
L 226.16064 88.4717 
L 226.24992 105.277484 
L 226.3392 93.919687 
L 226.42848 100.555773 
L 226.51776 95.935281 
L 226.60704 85.028864 
L 226.69632 88.431938 
L 226.87488 125.572904 
L 226.96416 93.17026 
L 227.05344 101.619484 
L 227.14272 95.136515 
L 227.232 110.401316 
L 227.32128 106.263199 
L 227.41056 96.171278 
L 227.49984 107.016047 
L 227.58912 96.714796 
L 227.6784 124.615685 
L 227.85696 83.095378 
L 227.94624 102.726823 
L 228.03552 92.448597 
L 228.1248 99.855117 
L 228.21408 97.918537 
L 228.30336 120.278814 
L 228.39264 110.627075 
L 228.48192 84.004567 
L 228.5712 97.034219 
L 228.66048 95.828945 
L 228.74976 98.905962 
L 228.83904 107.284461 
L 228.92832 97.693952 
L 229.0176 105.880677 
L 229.19616 98.423888 
L 229.28544 99.248895 
L 229.37472 87.012195 
L 229.55328 113.463285 
L 229.64256 84.915185 
L 229.73184 89.449284 
L 229.82112 87.289554 
L 229.99968 109.676806 
L 230.17824 85.097053 
L 230.26752 123.708842 
L 230.44608 95.494268 
L 230.53536 101.717222 
L 230.62464 127.162441 
L 230.71392 95.96357 
L 230.89248 127.443347 
L 230.98176 101.421625 
L 231.07104 113.758574 
L 231.16032 108.891806 
L 231.2496 110.49297 
L 231.33888 103.972129 
L 231.42816 113.108649 
L 231.51744 108.131422 
L 231.60672 111.585237 
L 231.696 93.808324 
L 231.78528 96.968552 
L 231.87456 92.260878 
L 231.96384 113.41465 
L 232.05312 86.947227 
L 232.1424 113.514097 
L 232.23168 111.285874 
L 232.32096 111.107757 
L 232.41024 100.038884 
L 232.49952 113.60462 
L 232.5888 73.488681 
L 232.85664 102.158512 
L 232.94592 103.889646 
L 233.0352 109.856797 
L 233.21376 96.7467 
L 233.30304 100.692683 
L 233.39232 91.134673 
L 233.4816 92.642614 
L 233.57088 102.426273 
L 233.66016 97.416282 
L 233.74944 99.134157 
L 233.83872 111.214822 
L 233.928 86.941499 
L 234.01728 96.988185 
L 234.10656 92.021569 
L 234.19584 129.904173 
L 234.3744 96.429569 
L 234.46368 92.936455 
L 234.64224 109.511901 
L 234.8208 87.405026 
L 234.91008 117.510452 
L 235.08864 89.920066 
L 235.17792 86.493275 
L 235.35648 113.529696 
L 235.53504 80.227307 
L 235.7136 105.810688 
L 235.80288 107.332956 
L 235.98144 126.752665 
L 236.07072 95.16175 
L 236.16 96.148451 
L 236.24928 108.714643 
L 236.33856 89.913097 
L 236.42784 126.061925 
L 236.6064 95.958738 
L 236.69568 97.160608 
L 236.78496 100.520117 
L 236.87424 116.486584 
L 237.0528 94.6878 
L 237.23136 111.500315 
L 237.32064 103.080665 
L 237.40992 109.08808 
L 237.4992 78.677507 
L 237.58848 96.159052 
L 237.67776 94.053308 
L 237.76704 88.256974 
L 237.85632 119.08605 
L 237.9456 112.234336 
L 238.12416 80.495251 
L 238.48128 112.752804 
L 238.65984 94.972628 
L 238.74912 114.019883 
L 238.8384 94.530451 
L 238.92768 98.598423 
L 239.01696 96.312365 
L 239.19552 111.980244 
L 239.2848 95.769879 
L 239.37408 98.280869 
L 239.46336 101.066084 
L 239.55264 111.565366 
L 239.7312 97.760683 
L 239.82048 105.087323 
L 239.90976 87.069011 
L 239.99904 128.778271 
L 240.08832 96.66516 
L 240.35616 121.54074 
L 240.44544 117.198934 
L 240.71328 90.287134 
L 240.80256 98.637085 
L 240.89184 95.143018 
L 240.98112 100.017545 
L 241.0704 89.383409 
L 241.15968 112.922202 
L 241.33824 91.72469 
L 241.42752 85.441728 
L 241.60608 105.850424 
L 241.69536 95.634619 
L 241.78464 105.637295 
L 241.87392 83.709374 
L 241.9632 106.782447 
L 242.14176 85.769986 
L 242.23104 93.27209 
L 242.32032 118.890219 
L 242.4096 97.316327 
L 242.49888 102.801274 
L 242.58816 92.61552 
L 242.67744 112.046408 
L 242.76672 95.454067 
L 242.94528 122.325439 
L 243.21312 86.503615 
L 243.39168 119.679643 
L 243.7488 87.88426 
L 243.83808 103.900085 
L 243.92736 99.617918 
L 244.01664 115.679847 
L 244.10592 101.870986 
L 244.1952 104.577838 
L 244.37376 101.809967 
L 244.55232 84.92628 
L 244.6416 113.598329 
L 244.82016 96.766167 
L 244.99872 105.966548 
L 245.088 107.042735 
L 245.17728 104.146087 
L 245.26656 75.753737 
L 245.35584 105.933395 
L 245.44512 100.549449 
L 245.5344 88.882103 
L 245.80224 117.766278 
L 245.89152 113.842971 
L 245.9808 116.810758 
L 246.07008 110.348913 
L 246.15936 132.366846 
L 246.24864 87.790546 
L 246.4272 121.929177 
L 246.51648 95.183592 
L 246.69504 121.359263 
L 246.78432 119.049608 
L 246.96288 91.550588 
L 247.05216 85.82445 
L 247.14144 119.515226 
L 247.23072 90.265607 
L 247.32 95.68103 
L 247.40928 82.23405 
L 247.58784 102.339001 
L 247.7664 93.648195 
L 247.94496 100.767179 
L 248.03424 113.338391 
L 248.12352 89.56076 
L 248.30208 106.370598 
L 248.39136 95.75066 
L 248.48064 101.881511 
L 248.56992 93.432544 
L 248.6592 95.338929 
L 248.74848 99.82076 
L 248.83776 90.073366 
L 249.01632 120.513398 
L 249.19488 97.438567 
L 249.28416 118.401274 
L 249.37344 92.312493 
L 249.552 120.721243 
L 249.73056 84.10555 
L 249.81984 86.954785 
L 249.9984 113.0341 
L 250.08768 96.254173 
L 250.17696 97.235985 
L 250.35552 109.294403 
L 250.4448 99.130122 
L 250.53408 110.663802 
L 250.62336 89.672229 
L 250.71264 95.147902 
L 250.80192 109.944643 
L 250.98048 95.221012 
L 251.15904 134.490523 
L 251.24832 105.495348 
L 251.3376 126.158323 
L 251.42688 100.221461 
L 251.51616 114.31204 
L 251.69472 92.926785 
L 251.784 99.874882 
L 251.87328 124.164489 
L 252.05184 95.758977 
L 252.2304 108.703145 
L 252.31968 111.838333 
L 252.40896 120.629235 
L 252.6768 92.785902 
L 252.85536 105.574481 
L 253.03392 92.520375 
L 253.1232 112.674597 
L 253.21248 85.911258 
L 253.30176 90.706589 
L 253.39104 87.365105 
L 253.5696 115.544713 
L 253.65888 94.146112 
L 253.74816 99.03765 
L 253.83744 94.625426 
L 253.92672 105.099271 
L 254.016 87.22802 
L 254.10528 87.543372 
L 254.19456 100.817863 
L 254.28384 91.354971 
L 254.37312 117.268402 
L 254.4624 89.537254 
L 254.64096 109.82911 
L 254.81952 96.126797 
L 254.99808 92.281012 
L 255.17664 100.149352 
L 255.26592 100.191872 
L 255.3552 75.964359 
L 255.53376 112.177696 
L 255.62304 92.426639 
L 255.71232 102.769258 
L 255.8016 101.769557 
L 255.98016 86.305735 
L 256.06944 85.362798 
L 256.15872 83.018183 
L 256.248 89.169475 
L 256.33728 109.84622 
L 256.42656 97.653077 
L 256.51584 98.027922 
L 256.60512 100.00641 
L 256.6944 105.443929 
L 256.78368 90.036163 
L 256.87296 91.918447 
L 256.96224 118.439762 
L 257.05152 88.611609 
L 257.1408 98.424621 
L 257.23008 82.923546 
L 257.31936 103.811766 
L 257.40864 96.70258 
L 257.49792 106.403425 
L 257.5872 105.955296 
L 257.67648 105.642939 
L 257.76576 93.896834 
L 257.85504 111.964492 
L 258.0336 94.472006 
L 258.12288 90.688052 
L 258.21216 104.077117 
L 258.30144 81.586521 
L 258.39072 109.786154 
L 258.48 107.543137 
L 258.56928 86.909415 
L 258.65856 89.283515 
L 258.74784 133.553048 
L 258.83712 84.457603 
L 258.9264 106.945777 
L 259.10496 87.126351 
L 259.19424 113.478486 
L 259.3728 87.320275 
L 259.46208 94.808402 
L 259.55136 86.786488 
L 259.64064 127.082526 
L 259.90848 93.398023 
L 260.08704 112.339457 
L 260.17632 97.011988 
L 260.2656 111.274731 
L 260.35488 96.860109 
L 260.44416 99.954808 
L 260.62272 106.83864 
L 260.712 91.273851 
L 260.80128 92.355841 
L 260.89056 79.830377 
L 260.97984 106.598176 
L 261.06912 65.607385 
L 261.24768 97.94611 
L 261.33696 110.14779 
L 261.51552 94.563933 
L 261.6048 115.834156 
L 261.69408 95.539375 
L 261.78336 102.56639 
L 261.87264 91.803438 
L 261.96192 104.729914 
L 262.0512 93.819209 
L 262.14048 113.803496 
L 262.22976 110.414213 
L 262.31904 105.396923 
L 262.40832 89.516092 
L 262.4976 101.763053 
L 262.58688 94.293817 
L 262.67616 122.796996 
L 262.76544 99.321728 
L 262.85472 108.974796 
L 262.944 83.375336 
L 263.21184 110.612621 
L 263.30112 89.006088 
L 263.3904 91.880059 
L 263.47968 101.223379 
L 263.56896 91.359948 
L 263.65824 109.685961 
L 263.74752 97.144884 
L 263.8368 126.466988 
L 263.92608 87.942894 
L 264.01536 131.494748 
L 264.2832 85.079562 
L 264.46176 107.011387 
L 264.55104 105.571565 
L 264.64032 105.43331 
L 264.7296 111.565922 
L 264.99744 99.514496 
L 265.08672 98.405615 
L 265.26528 118.24237 
L 265.44384 89.109762 
L 265.6224 109.993816 
L 265.71168 109.103569 
L 265.80096 104.390727 
L 265.89024 109.684677 
L 265.97952 101.162966 
L 266.0688 106.37423 
L 266.24736 88.440067 
L 266.33664 97.678214 
L 266.42592 94.427489 
L 266.5152 100.18392 
L 266.60448 123.160755 
L 266.78304 93.722053 
L 266.87232 95.966125 
L 266.9616 88.804444 
L 267.05088 108.801219 
L 267.14016 93.178317 
L 267.22944 127.210737 
L 267.49728 88.451755 
L 267.76512 106.223488 
L 267.8544 96.378191 
L 268.03296 105.380664 
L 268.12224 108.695335 
L 268.3008 89.59777 
L 268.39008 117.484479 
L 268.56864 90.819029 
L 268.7472 120.213999 
L 268.83648 86.826259 
L 268.92576 95.142875 
L 269.01504 84.651077 
L 269.1936 109.224273 
L 269.28288 101.167684 
L 269.37216 109.882357 
L 269.46144 98.913826 
L 269.55072 118.585046 
L 269.72928 77.296708 
L 269.90784 105.160006 
L 270.0864 82.882465 
L 270.26496 100.121416 
L 270.35424 97.451746 
L 270.44352 95.293338 
L 270.5328 97.108331 
L 270.62208 101.515428 
L 270.71136 95.24333 
L 270.88992 107.920087 
L 270.9792 100.212159 
L 271.06848 78.8153 
L 271.15776 91.853182 
L 271.24704 82.194111 
L 271.33632 104.888101 
L 271.60416 88.075749 
L 271.78272 91.740349 
L 271.872 101.683659 
L 271.96128 98.511867 
L 272.05056 126.820299 
L 272.13984 91.430889 
L 272.22912 99.256947 
L 272.3184 108.501734 
L 272.49696 81.164158 
L 272.67552 102.184232 
L 272.7648 84.522519 
L 272.94336 111.138358 
L 273.03264 92.38275 
L 273.12192 96.813538 
L 273.2112 101.264816 
L 273.30048 125.434325 
L 273.38976 116.970997 
L 273.47904 81.162471 
L 273.56832 92.757831 
L 273.74688 77.181208 
L 273.92544 104.340141 
L 274.01472 85.093521 
L 274.104 98.779971 
L 274.28256 86.258697 
L 274.37184 87.55578 
L 274.46112 98.497413 
L 274.5504 84.641791 
L 274.63968 91.95395 
L 274.72896 109.595384 
L 274.81824 84.252464 
L 274.90752 103.384785 
L 274.9968 88.297527 
L 275.08608 108.427206 
L 275.17536 107.055299 
L 275.26464 84.546155 
L 275.35392 116.268472 
L 275.53248 98.004381 
L 275.62176 102.874699 
L 275.71104 93.477768 
L 275.80032 100.224135 
L 275.8896 84.834574 
L 275.97888 103.669234 
L 276.06816 101.809284 
L 276.15744 93.969085 
L 276.24672 105.416544 
L 276.336 96.112538 
L 276.42528 111.89714 
L 276.51456 98.28948 
L 276.60384 116.448946 
L 276.96096 81.8338 
L 277.05024 96.34556 
L 277.13952 95.562705 
L 277.2288 85.11276 
L 277.31808 108.503834 
L 277.40736 88.069067 
L 277.49664 111.60219 
L 277.58592 95.912109 
L 277.6752 104.620957 
L 277.76448 86.822601 
L 277.94304 95.496661 
L 278.03232 87.067074 
L 278.1216 105.554114 
L 278.21088 86.25253 
L 278.30016 109.318717 
L 278.38944 106.727493 
L 278.568 95.28138 
L 278.65728 106.62687 
L 278.74656 84.518681 
L 278.83584 105.742383 
L 278.92512 74.398565 
L 279.10368 112.76034 
L 279.19296 94.593067 
L 279.28224 105.127074 
L 279.37152 95.768799 
L 279.4608 101.054306 
L 279.55008 82.628374 
L 279.63936 122.660362 
L 279.72864 96.913566 
L 279.81792 123.312878 
L 279.99648 86.499059 
L 280.08576 106.13032 
L 280.26432 80.342382 
L 280.44288 95.266557 
L 280.53216 78.557812 
L 280.71072 109.636364 
L 280.8 110.625974 
L 280.88928 80.204923 
L 281.06784 120.601968 
L 281.15712 85.19708 
L 281.33568 125.381644 
L 281.42496 118.647196 
L 281.51424 86.700509 
L 281.60352 110.992144 
L 281.6928 81.226053 
L 281.78208 109.433906 
L 281.87136 103.749679 
L 281.96064 81.436044 
L 282.1392 103.53257 
L 282.22848 98.946731 
L 282.31776 105.004991 
L 282.40704 86.955459 
L 282.49632 88.859637 
L 282.5856 111.10113 
L 282.67488 96.037881 
L 282.76416 121.136444 
L 282.85344 89.177257 
L 283.12128 124.997361 
L 283.29984 89.518218 
L 283.38912 96.07652 
L 283.4784 100.192421 
L 283.56768 96.418431 
L 283.65696 83.09329 
L 283.74624 83.994569 
L 283.83552 98.123104 
L 283.9248 91.616198 
L 284.01408 96.674296 
L 284.10336 86.054812 
L 284.28192 104.743445 
L 284.3712 88.805831 
L 284.46048 92.254532 
L 284.54976 91.707039 
L 284.63904 84.616105 
L 284.8176 100.998894 
L 284.90688 101.218074 
L 284.99616 114.167922 
L 285.08544 113.633853 
L 285.264 87.691727 
L 285.35328 105.044753 
L 285.53184 89.102214 
L 285.62112 120.217843 
L 285.7104 113.522351 
L 285.88896 84.6601 
L 285.97824 84.642264 
L 286.06752 139.301382 
L 286.24608 91.576061 
L 286.33536 87.819642 
L 286.6032 114.360466 
L 286.69248 95.137894 
L 286.78176 107.017651 
L 286.87104 87.349743 
L 286.96032 116.312506 
L 287.0496 89.643939 
L 287.13888 98.9602 
L 287.22816 96.803226 
L 287.31744 84.891038 
L 287.40672 108.441982 
L 287.496 86.769162 
L 287.58528 95.000886 
L 287.67456 85.377914 
L 287.76384 109.473995 
L 287.9424 94.214981 
L 288.03168 106.046719 
L 288.12096 105.952812 
L 288.21024 97.612978 
L 288.47808 114.017931 
L 288.56736 95.970649 
L 288.74592 113.261842 
L 288.8352 83.977122 
L 288.92448 99.235112 
L 289.01376 91.778701 
L 289.10304 100.80205 
L 289.19232 87.163573 
L 289.2816 88.851616 
L 289.37088 85.313693 
L 289.46016 104.64365 
L 289.54944 96.456509 
L 289.63872 106.832846 
L 289.728 103.10158 
L 289.99584 133.76413 
L 290.08512 87.409244 
L 290.1744 97.828996 
L 290.26368 109.599355 
L 290.35296 98.457022 
L 290.44224 104.160396 
L 290.6208 85.647063 
L 290.79936 105.472742 
L 290.97792 71.917638 
L 291.0672 124.129303 
L 291.15648 116.208593 
L 291.24576 87.152274 
L 291.33504 89.65883 
L 291.42432 102.32052 
L 291.5136 99.468282 
L 291.60288 89.444142 
L 291.69216 95.310441 
L 291.78144 77.76346 
L 291.96 111.998555 
L 292.04928 88.920755 
L 292.13856 96.89267 
L 292.22784 80.57998 
L 292.49568 107.123775 
L 292.58496 89.668654 
L 292.67424 92.553526 
L 292.76352 110.467922 
L 292.94208 83.910589 
L 293.03136 104.67332 
L 293.12064 89.974543 
L 293.2992 106.127864 
L 293.38848 98.3603 
L 293.47776 105.310351 
L 293.56704 88.527674 
L 293.7456 108.196454 
L 293.83488 87.402973 
L 293.92416 108.304149 
L 294.01344 84.924692 
L 294.192 99.256598 
L 294.28128 98.41675 
L 294.37056 81.311451 
L 294.45984 110.452521 
L 294.54912 95.386002 
L 294.6384 98.980218 
L 294.72768 86.297233 
L 294.81696 86.72043 
L 294.90624 103.782005 
L 295.0848 92.589178 
L 295.17408 102.862148 
L 295.26336 95.659951 
L 295.35264 96.489077 
L 295.44192 98.220742 
L 295.5312 89.69343 
L 295.62048 108.22638 
L 295.70976 81.453017 
L 295.79904 95.938431 
L 295.88832 90.320023 
L 295.9776 96.754118 
L 296.06688 112.097052 
L 296.24544 94.96458 
L 296.33472 100.279396 
L 296.424 88.703886 
L 296.51328 89.12211 
L 296.60256 95.283402 
L 296.69184 120.98783 
L 296.8704 89.500281 
L 296.95968 107.254013 
L 297.22752 86.553283 
L 297.3168 122.135951 
L 297.49536 78.136996 
L 297.58464 112.482543 
L 297.85248 80.176073 
L 298.2096 108.733535 
L 298.29888 103.297227 
L 298.47744 88.398389 
L 298.56672 85.530419 
L 298.656 101.699185 
L 298.74528 98.26287 
L 298.83456 90.757691 
L 298.92384 109.339625 
L 299.01312 88.376848 
L 299.1024 111.027366 
L 299.19168 84.652716 
L 299.28096 90.169951 
L 299.45952 100.35405 
L 299.5488 102.902558 
L 299.63808 79.253451 
L 299.81664 108.938093 
L 299.90592 110.486651 
L 299.9952 95.238484 
L 300.08448 110.91701 
L 300.17376 93.78226 
L 300.26304 97.80875 
L 300.4416 85.953286 
L 300.53088 87.556197 
L 300.70944 100.352666 
L 300.79872 99.211325 
L 300.97728 85.378662 
L 301.06656 125.331978 
L 301.15584 83.670722 
L 301.24512 95.118701 
L 301.3344 77.265817 
L 301.42368 106.677088 
L 301.51296 78.240406 
L 301.60224 123.132673 
L 301.69152 100.754046 
L 301.7808 120.804418 
L 301.87008 83.826576 
L 301.95936 88.785245 
L 302.04864 81.872677 
L 302.13792 98.517038 
L 302.2272 92.617901 
L 302.49504 107.73739 
L 302.58432 81.781062 
L 302.76288 104.070599 
L 302.85216 101.796228 
L 302.94144 101.87875 
L 303.03072 94.901027 
L 303.12 124.795698 
L 303.38784 90.971331 
L 303.47712 105.101896 
L 303.5664 84.623683 
L 303.65568 102.842534 
L 303.83424 86.626786 
L 303.92352 87.648576 
L 304.10208 102.093843 
L 304.19136 106.174444 
L 304.36992 96.00424 
L 304.63776 107.248086 
L 304.72704 84.310475 
L 304.81632 104.925504 
L 304.9056 95.39397 
L 305.08416 115.713822 
L 305.17344 112.810012 
L 305.44128 90.158453 
L 305.53056 94.016462 
L 305.61984 86.747759 
L 305.70912 90.590472 
L 305.7984 102.640214 
L 305.88768 98.830895 
L 305.97696 88.187416 
L 306.06624 110.960459 
L 306.2448 80.813895 
L 306.33408 90.246841 
L 306.42336 81.797283 
L 306.60192 120.636166 
L 306.6912 87.356453 
L 306.78048 104.159388 
L 306.86976 99.645412 
L 306.95904 85.925234 
L 307.04832 117.107046 
L 307.22688 90.800171 
L 307.31616 100.261043 
L 307.40544 94.299361 
L 307.49472 98.706444 
L 307.584 74.026073 
L 307.76256 111.881949 
L 307.94112 93.709738 
L 308.0304 102.238957 
L 308.11968 101.511783 
L 308.29824 87.107577 
L 308.38752 103.065354 
L 308.4768 101.905702 
L 308.56608 95.644792 
L 308.65536 76.072237 
L 308.83392 117.43748 
L 308.9232 96.114204 
L 309.01248 100.030713 
L 309.10176 98.098326 
L 309.19104 87.704801 
L 309.28032 110.049024 
L 309.45888 88.488235 
L 309.54816 96.733133 
L 309.63744 115.649322 
L 309.72672 96.427701 
L 309.90528 112.196953 
L 309.99456 76.980553 
L 310.17312 90.779716 
L 310.2624 93.830213 
L 310.35168 113.681857 
L 310.7088 86.116382 
L 310.79808 92.362173 
L 310.88736 137.315042 
L 310.97664 85.313817 
L 311.06592 112.580241 
L 311.24448 93.611394 
L 311.33376 115.257274 
L 311.42304 83.513054 
L 311.6016 111.293152 
L 311.69088 79.355866 
L 311.78016 92.183178 
L 311.86944 77.387796 
L 312.048 106.32696 
L 312.13728 96.888013 
L 312.22656 97.725298 
L 312.31584 102.454134 
L 312.4944 87.543727 
L 312.58368 91.104702 
L 312.67296 76.092253 
L 312.76224 104.909984 
L 312.85152 93.966683 
L 312.9408 125.50489 
L 313.20864 73.3557 
L 313.29792 100.811695 
L 313.3872 81.856057 
L 313.47648 114.055948 
L 313.56576 108.850547 
L 313.65504 82.380011 
L 313.74432 86.321677 
L 313.8336 89.472097 
L 313.92288 78.735664 
L 314.01216 99.275868 
L 314.10144 94.883243 
L 314.19072 104.360633 
L 314.28 102.650326 
L 314.36928 97.592537 
L 314.45856 106.692408 
L 314.54784 101.714393 
L 314.63712 87.271532 
L 314.7264 106.653716 
L 314.90496 81.960674 
L 314.99424 100.226655 
L 315.1728 78.278925 
L 315.44064 102.400226 
L 315.6192 77.565948 
L 315.70848 92.939994 
L 315.79776 87.641409 
L 315.88704 94.382895 
L 315.97632 77.874246 
L 316.0656 103.202177 
L 316.15488 103.040514 
L 316.33344 113.996224 
L 316.512 97.37605 
L 316.60128 97.768511 
L 316.69056 97.427354 
L 316.77984 75.49234 
L 316.9584 101.443877 
L 317.04768 100.74678 
L 317.13696 76.895623 
L 317.22624 119.862815 
L 317.31552 82.885641 
L 317.4048 108.569455 
L 317.58336 92.685458 
L 317.67264 96.705541 
L 317.76192 118.348207 
L 317.8512 80.591249 
L 318.02976 122.2668 
L 318.11904 88.224795 
L 318.20832 94.726417 
L 318.2976 103.222841 
L 318.38688 78.676281 
L 318.47616 102.296411 
L 318.56544 80.721737 
L 318.83328 97.963984 
L 319.01184 78.576301 
L 319.1904 100.322009 
L 319.27968 90.561287 
L 319.45824 119.049349 
L 319.54752 92.989846 
L 319.72608 105.807145 
L 319.81536 90.678284 
L 319.90464 96.666752 
L 319.99392 89.655461 
L 320.0832 97.073018 
L 320.26176 86.902326 
L 320.35104 89.311649 
L 320.44032 114.149458 
L 320.61888 92.621914 
L 320.70816 101.445627 
L 320.88672 81.478476 
L 320.976 111.386408 
L 321.06528 103.97897 
L 321.15456 113.587587 
L 321.24384 106.499915 
L 321.4224 78.658863 
L 321.69024 93.098959 
L 321.77952 91.962907 
L 321.8688 93.991113 
L 321.95808 117.055422 
L 322.04736 86.176345 
L 322.13664 105.153656 
L 322.22592 99.660683 
L 322.3152 82.320885 
L 322.40448 111.369814 
L 322.49376 102.979363 
L 322.58304 106.476048 
L 322.7616 86.379516 
L 322.85088 103.414551 
L 322.94016 97.167542 
L 323.02944 81.373495 
L 323.11872 110.711005 
L 323.29728 88.306393 
L 323.38656 111.726191 
L 323.56512 85.042972 
L 323.6544 86.368788 
L 323.74368 104.928392 
L 323.83296 89.745596 
L 323.92224 90.205933 
L 324.01152 111.015768 
L 324.1008 85.71946 
L 324.19008 96.376375 
L 324.27936 88.456441 
L 324.36864 102.380883 
L 324.45792 89.735518 
L 324.5472 89.941636 
L 324.63648 95.766813 
L 324.72576 115.019848 
L 324.81504 84.373827 
L 324.90432 102.010195 
L 324.9936 71.406188 
L 325.17216 105.121391 
L 325.26144 88.88497 
L 325.44 114.532985 
L 325.61856 96.47739 
L 325.70784 97.474608 
L 325.79712 86.447668 
L 325.97568 107.582136 
L 326.15424 87.779147 
L 326.24352 93.361487 
L 326.42208 75.284111 
L 326.51136 102.959349 
L 326.60064 79.020425 
L 326.68992 99.345997 
L 326.7792 83.803509 
L 326.86848 113.127387 
L 326.95776 90.497185 
L 327.04704 92.877357 
L 327.2256 104.078603 
L 327.31488 102.22174 
L 327.40416 78.66023 
L 327.672 116.419835 
L 327.76128 88.037908 
L 327.85056 117.068435 
L 327.93984 88.6374 
L 328.02912 112.685902 
L 328.1184 86.54575 
L 328.20768 135.235594 
L 328.29696 73.330966 
L 328.38624 101.744861 
L 328.47552 91.270739 
L 328.5648 96.359752 
L 328.65408 110.587349 
L 328.92192 75.213288 
L 329.10048 96.236637 
L 329.18976 89.093055 
L 329.36832 111.214849 
L 329.4576 94.173507 
L 329.54688 107.004641 
L 329.63616 76.66619 
L 329.72544 106.991393 
L 329.81472 96.274434 
L 329.99328 102.257636 
L 330.08256 112.988187 
L 330.17184 91.258264 
L 330.26112 113.697943 
L 330.3504 93.002351 
L 330.43968 93.357168 
L 330.61824 85.457211 
L 330.70752 105.919192 
L 330.7968 90.984982 
L 330.88608 106.686555 
L 330.97536 75.158228 
L 331.06464 92.841034 
L 331.15392 74.337746 
L 331.33248 105.0365 
L 331.42176 101.506782 
L 331.51104 89.382898 
L 331.60032 98.680822 
L 331.6896 85.486952 
L 331.86816 111.872975 
L 331.95744 92.583841 
L 332.136 126.613459 
L 332.31456 82.761208 
L 332.40384 108.33261 
L 332.49312 99.937475 
L 332.5824 77.451788 
L 332.67168 101.636734 
L 332.85024 86.878213 
L 333.0288 121.895611 
L 333.11808 89.273583 
L 333.20736 94.966511 
L 333.29664 80.556302 
L 333.38592 93.898 
L 333.4752 76.017368 
L 333.56448 84.080715 
L 333.65376 63.648 
L 333.74304 100.068948 
L 333.83232 93.269983 
L 333.9216 94.496591 
L 334.01088 90.466624 
L 334.10016 102.496978 
L 334.18944 101.591527 
L 334.27872 81.163658 
L 334.368 96.043121 
L 334.45728 76.966741 
L 334.54656 80.161586 
L 334.63584 89.340889 
L 334.72512 83.99118 
L 334.8144 107.018862 
L 334.90368 77.793254 
L 334.99296 79.020291 
L 335.2608 149.334085 
L 335.35008 87.062951 
L 335.43936 90.670021 
L 335.52864 81.456322 
L 335.61792 103.987653 
L 335.7072 89.069672 
L 335.79648 99.64337 
L 335.88576 97.207162 
L 335.97504 80.222643 
L 336.1536 98.702167 
L 336.24288 96.510499 
L 336.33216 77.927376 
L 336.42144 111.151504 
L 336.51072 90.116247 
L 336.6 99.397412 
L 336.68928 90.906542 
L 336.77856 91.591498 
L 336.86784 117.915165 
L 337.13568 83.344586 
L 337.22496 74.461469 
L 337.40352 102.37323 
L 337.4928 98.495242 
L 337.67136 76.663145 
L 337.84992 106.505047 
L 337.9392 118.471405 
L 338.11776 81.151129 
L 338.20704 83.070981 
L 338.3856 98.063529 
L 338.47488 93.003446 
L 338.56416 100.831665 
L 338.65344 99.706007 
L 338.74272 103.10438 
L 339.01056 80.158825 
L 339.09984 99.534737 
L 339.18912 91.457772 
L 339.2784 111.027432 
L 339.36768 96.671018 
L 339.45696 108.14888 
L 339.7248 80.19477 
L 339.81408 100.722338 
L 339.90336 87.77083 
L 339.99264 114.990378 
L 340.26048 86.733332 
L 340.34976 95.501222 
L 340.43904 91.149436 
L 340.6176 104.65713 
L 340.70688 82.001125 
L 340.79616 84.795071 
L 340.88544 92.647635 
L 340.97472 92.618291 
L 341.064 92.819727 
L 341.15328 82.467178 
L 341.24256 112.095782 
L 341.42112 90.122067 
L 341.5104 94.26887 
L 341.59968 73.931741 
L 341.68896 107.061985 
L 341.77824 85.991378 
L 341.9568 100.303198 
L 342.04608 128.906506 
L 342.13536 117.512126 
L 342.22464 85.291329 
L 342.31392 107.039201 
L 342.4032 104.485414 
L 342.49248 85.703993 
L 342.58176 116.875505 
L 342.67104 91.202445 
L 342.76032 95.068264 
L 342.8496 98.72105 
L 343.11744 82.631134 
L 343.20672 120.158751 
L 343.296 95.711823 
L 343.38528 108.579177 
L 343.47456 91.384683 
L 343.56384 111.550568 
L 343.65312 102.472316 
L 343.7424 72.90397 
L 343.83168 74.384004 
L 344.01024 103.032222 
L 344.1888 72.442493 
L 344.45664 99.592429 
L 344.54592 89.200562 
L 344.6352 90.94394 
L 344.72448 110.083937 
L 344.81376 90.655528 
L 344.99232 102.638406 
L 345.0816 95.053726 
L 345.17088 114.427508 
L 345.43872 79.589349 
L 345.528 285.408 
L 345.61728 96.673221 
L 345.70656 103.930257 
L 345.79584 82.776861 
L 345.88512 87.665636 
L 345.9744 83.313687 
L 346.15296 96.515796 
L 346.24224 96.49311 
L 346.33152 126.74361 
L 346.51008 83.731481 
L 346.59936 95.26109 
L 346.68864 82.729891 
L 346.77792 85.765751 
L 346.8672 116.460326 
L 347.04576 88.79079 
L 347.13504 98.152992 
L 347.22432 81.528361 
L 347.40288 97.773235 
L 347.49216 73.459591 
L 347.58144 99.863941 
L 347.67072 93.649535 
L 347.76 89.420201 
L 347.93856 96.901527 
L 348.02784 83.277388 
L 348.2064 94.935773 
L 348.29568 93.365598 
L 348.56352 107.893727 
L 348.6528 86.05314 
L 348.74208 100.66823 
L 348.83136 94.37216 
L 348.92064 109.358639 
L 349.00992 85.424302 
L 349.18848 97.024769 
L 349.27776 98.453103 
L 349.36704 92.209313 
L 349.5456 108.557673 
L 349.72416 90.351009 
L 349.81344 93.406984 
L 349.90272 97.995101 
L 349.992 126.181134 
L 350.08128 87.765347 
L 350.17056 101.642025 
L 350.25984 91.210392 
L 350.34912 109.796883 
L 350.4384 95.146875 
L 350.52768 110.453354 
L 350.61696 90.818633 
L 350.70624 103.241914 
L 350.79552 101.805566 
L 350.97408 79.42341 
L 351.06336 107.531476 
L 351.15264 86.616096 
L 351.24192 90.486315 
L 351.3312 78.116771 
L 351.42048 95.176604 
L 351.59904 76.774757 
L 351.7776 92.330025 
L 351.86688 88.51166 
L 351.95616 107.492924 
L 352.04544 97.152129 
L 352.13472 71.597036 
L 352.224 93.796418 
L 352.31328 81.839963 
L 352.40256 91.536203 
L 352.49184 82.590306 
L 352.6704 91.912815 
L 352.75968 122.207347 
L 352.93824 95.757163 
L 353.02752 93.546155 
L 353.1168 84.694187 
L 353.29536 101.708298 
L 353.38464 91.550424 
L 353.47392 111.159119 
L 353.5632 85.186354 
L 353.74176 124.144777 
L 353.92032 77.590385 
L 354.0096 89.118927 
L 354.09888 88.724315 
L 354.18816 79.806629 
L 354.27744 93.362881 
L 354.36672 80.921377 
L 354.456 82.071949 
L 354.54528 98.063677 
L 354.63456 88.15267 
L 354.72384 96.462982 
L 354.81312 93.099857 
L 354.99168 109.345705 
L 355.08096 79.889658 
L 355.17024 97.645769 
L 355.3488 85.982193 
L 355.52736 97.679332 
L 355.61664 112.971251 
L 355.70592 91.826651 
L 355.7952 102.230663 
L 355.88448 101.530768 
L 355.97376 102.346937 
L 356.06304 82.006127 
L 356.15232 104.652361 
L 356.2416 73.615574 
L 356.33088 93.176285 
L 356.42016 76.471676 
L 356.59872 116.481648 
L 356.688 98.924508 
L 356.77728 105.818323 
L 356.86656 87.003845 
L 356.95584 93.066562 
L 357.04512 87.642523 
L 357.1344 99.194258 
L 357.22368 79.251678 
L 357.49152 119.017014 
L 357.67008 91.353958 
L 357.75936 84.110459 
L 357.84864 85.208252 
L 357.93792 97.39645 
L 358.0272 91.015642 
L 358.11648 91.368173 
L 358.20576 102.951622 
L 358.29504 99.955821 
L 358.38432 85.481312 
L 358.4736 90.257935 
L 358.56288 101.751547 
L 358.74144 89.457622 
L 358.83072 90.992399 
L 358.92 103.476373 
L 359.18784 82.216638 
L 359.27712 85.974489 
L 359.3664 72.800958 
L 359.45568 95.103545 
L 359.54496 78.343221 
L 359.63424 109.288289 
L 359.8128 79.057186 
L 359.90208 95.256814 
L 359.99136 85.832943 
L 360.08064 113.496918 
L 360.2592 82.753751 
L 360.34848 91.777097 
L 360.43776 95.910197 
L 360.52704 71.938788 
L 360.61632 108.225148 
L 360.79488 71.312296 
L 360.97344 105.170912 
L 361.152 75.2899 
L 361.24128 107.22954 
L 361.33056 81.801869 
L 361.41984 84.9277 
L 361.50912 89.925936 
L 361.68768 111.583181 
L 361.77696 78.647681 
L 361.86624 86.530609 
L 361.95552 87.274076 
L 362.13408 102.475206 
L 362.22336 106.036922 
L 362.31264 81.951539 
L 362.40192 86.283858 
L 362.4912 85.641444 
L 362.66976 89.050951 
L 362.75904 101.267527 
L 362.84832 86.703862 
L 362.9376 91.320429 
L 363.02688 86.776246 
L 363.11616 103.515175 
L 363.20544 82.538181 
L 363.29472 103.761689 
L 363.384 96.307302 
L 363.47328 105.429651 
L 363.56256 83.82377 
L 363.74112 99.846682 
L 363.8304 90.164965 
L 363.91968 100.667514 
L 364.09824 91.653833 
L 364.18752 98.049439 
L 364.2768 93.197583 
L 364.36608 72.967298 
L 364.54464 99.83151 
L 364.63392 96.540886 
L 364.7232 87.426787 
L 364.81248 116.52994 
L 364.90176 77.85564 
L 364.99104 109.077147 
L 365.08032 85.477854 
L 365.25888 116.556835 
L 365.34816 111.041791 
L 365.43744 82.492351 
L 365.52672 85.23927 
L 365.616 102.130424 
L 365.70528 83.436645 
L 365.88384 91.042781 
L 365.97312 85.141524 
L 366.0624 87.194981 
L 366.24096 107.797973 
L 366.5088 84.882609 
L 366.68736 103.138381 
L 366.77664 103.27163 
L 366.86592 77.123179 
L 366.9552 116.876786 
L 367.04448 73.758659 
L 367.22304 106.027314 
L 367.31232 86.363971 
L 367.4016 115.885037 
L 367.58016 77.779533 
L 367.66944 102.31522 
L 367.848 70.288078 
L 368.02656 108.664292 
L 368.11584 115.728618 
L 368.2944 84.664119 
L 368.47296 100.096196 
L 368.56224 85.897944 
L 368.7408 113.179046 
L 368.83008 84.56484 
L 368.91936 112.871847 
L 369.00864 89.903496 
L 369.09792 93.046572 
L 369.1872 92.024174 
L 369.27648 112.059627 
L 369.36576 91.080115 
L 369.45504 95.263339 
L 369.54432 86.192522 
L 369.6336 100.517783 
L 369.72288 91.087467 
L 369.81216 92.637263 
L 369.99072 95.861248 
L 370.08 115.391243 
L 370.16928 92.776843 
L 370.25856 108.034573 
L 370.34784 94.919633 
L 370.43712 112.567664 
L 370.61568 75.327816 
L 370.70496 106.104507 
L 370.88352 88.959648 
L 370.9728 97.409985 
L 371.06208 73.86458 
L 371.32992 119.762057 
L 371.4192 81.36898 
L 371.50848 83.843945 
L 371.59776 77.737302 
L 371.77632 103.445726 
L 371.8656 85.888031 
L 371.95488 94.645887 
L 372.04416 94.594682 
L 372.13344 94.592153 
L 372.40128 82.42785 
L 372.57984 105.114916 
L 372.66912 104.546734 
L 372.7584 95.156369 
L 372.84768 98.94706 
L 373.02624 79.302024 
L 373.11552 103.607344 
L 373.2048 82.187175 
L 373.29408 94.653027 
L 373.38336 77.546813 
L 373.47264 77.721003 
L 373.56192 100.117366 
L 373.6512 88.451836 
L 373.74048 106.193249 
L 373.82976 91.378299 
L 373.91904 97.049768 
L 374.00832 84.625839 
L 374.0976 99.608968 
L 374.18688 78.182556 
L 374.27616 97.420119 
L 374.36544 72.664892 
L 374.45472 88.885155 
L 374.544 87.946418 
L 374.72256 79.032668 
L 374.90112 103.705252 
L 374.9904 88.342625 
L 375.07968 108.533567 
L 375.16896 90.467136 
L 375.25824 96.380463 
L 375.34752 82.492378 
L 375.52608 111.42128 
L 375.70464 87.46175 
L 375.79392 94.466426 
L 375.8832 81.02484 
L 375.97248 95.644047 
L 376.06176 71.983693 
L 376.15104 113.314157 
L 376.24032 84.85802 
L 376.41888 100.391851 
L 376.50816 103.458709 
L 376.68672 85.09851 
L 376.86528 114.338309 
L 376.95456 85.02449 
L 377.04384 126.700529 
L 377.31168 85.768317 
L 377.40096 115.391567 
L 377.49024 74.944166 
L 377.57952 80.343066 
L 377.84736 101.917426 
L 378.02592 84.062355 
L 378.1152 101.434347 
L 378.20448 86.255275 
L 378.38304 99.368708 
L 378.47232 86.202523 
L 378.5616 86.927136 
L 378.65088 93.334992 
L 378.74016 80.006169 
L 378.82944 103.353191 
L 378.91872 99.152408 
L 379.008 108.4483 
L 379.27584 73.797735 
L 379.36512 102.427453 
L 379.4544 87.584996 
L 379.54368 90.432382 
L 379.63296 90.808071 
L 379.72224 95.128015 
L 379.81152 94.545928 
L 379.9008 81.454425 
L 379.99008 89.274788 
L 380.07936 87.682284 
L 380.16864 86.671403 
L 380.25792 102.482175 
L 380.43648 89.085554 
L 380.52576 91.314361 
L 380.61504 95.068116 
L 380.70432 75.57279 
L 380.88288 100.654811 
L 380.97216 98.084346 
L 381.06144 80.545396 
L 381.15072 103.644276 
L 381.24 88.48425 
L 381.32928 89.459761 
L 381.41856 89.069399 
L 381.50784 109.696695 
L 381.6864 88.422266 
L 381.86496 110.066878 
L 382.1328 76.967779 
L 382.22208 86.365062 
L 382.40064 127.727124 
L 382.5792 101.951523 
L 382.66848 106.969166 
L 382.75776 104.45149 
L 382.84704 82.258694 
L 382.93632 91.956067 
L 383.0256 89.374394 
L 383.11488 92.942259 
L 383.20416 79.347797 
L 383.38272 93.902142 
L 383.472 94.869445 
L 383.56128 85.660745 
L 383.73984 108.789021 
L 383.9184 90.913686 
L 384.00768 103.019362 
L 384.09696 102.275149 
L 384.18624 96.970906 
L 384.27552 80.207106 
L 384.45408 96.981419 
L 384.54336 93.869144 
L 384.63264 83.659201 
L 384.72192 103.265452 
L 384.8112 100.138272 
L 384.90048 102.287111 
L 384.98976 80.304892 
L 385.07904 114.326067 
L 385.16832 80.662597 
L 385.2576 84.855962 
L 385.34688 101.414061 
L 385.43616 87.389657 
L 385.52544 101.189419 
L 385.79328 81.876048 
L 385.97184 86.826657 
L 386.06112 86.694907 
L 386.23968 111.744822 
L 386.32896 76.668532 
L 386.41824 98.224964 
L 386.68608 87.603308 
L 386.77536 115.828362 
L 386.86464 88.716513 
L 386.95392 95.150967 
L 387.0432 101.400554 
L 387.22176 87.627973 
L 387.31104 89.304165 
L 387.40032 98.398694 
L 387.4896 95.450095 
L 387.57888 79.20396 
L 387.84672 99.561658 
L 387.936 95.795958 
L 388.11456 83.96816 
L 388.20384 88.947938 
L 388.29312 110.95975 
L 388.3824 82.591273 
L 388.56096 96.637062 
L 388.65024 81.590783 
L 388.8288 103.500473 
L 388.91808 80.592368 
L 389.00736 90.580381 
L 389.09664 89.022045 
L 389.2752 79.893548 
L 389.45376 109.63951 
L 389.63232 97.555999 
L 389.7216 104.536565 
L 389.81088 90.522133 
L 389.90016 97.578339 
L 389.98944 96.098202 
L 390.07872 93.46991 
L 390.25728 106.161949 
L 390.34656 94.132038 
L 390.43584 115.45089 
L 390.52512 84.760207 
L 390.6144 90.827411 
L 390.79296 82.735559 
L 390.97152 118.775594 
L 391.0608 95.344296 
L 391.15008 113.327602 
L 391.32864 95.679241 
L 391.41792 106.12951 
L 391.5072 99.637414 
L 391.68576 110.187806 
L 391.77504 92.828964 
L 391.86432 100.977801 
L 392.22144 75.511218 
L 392.31072 95.561173 
L 392.4 83.419615 
L 392.48928 99.52078 
L 392.66784 77.007193 
L 392.75712 79.45222 
L 392.8464 76.928329 
L 393.02496 95.414088 
L 393.11424 86.980381 
L 393.2928 109.700845 
L 393.47136 83.074557 
L 393.56064 99.91229 
L 393.64992 83.316513 
L 393.82848 101.961683 
L 394.00704 83.991868 
L 394.09632 105.803771 
L 394.1856 92.824643 
L 394.27488 100.338823 
L 394.45344 80.884375 
L 394.632 93.178439 
L 394.72128 88.561408 
L 394.81056 73.786587 
L 394.89984 100.944058 
L 394.98912 100.60914 
L 395.0784 102.525577 
L 395.16768 114.190277 
L 395.34624 95.150024 
L 395.43552 86.289693 
L 395.61408 106.797306 
L 395.70336 101.27096 
L 395.79264 76.735172 
L 395.9712 101.176915 
L 396.06048 87.076394 
L 396.14976 104.586771 
L 396.32832 81.241507 
L 396.4176 93.345922 
L 396.50688 76.077595 
L 396.68544 90.282674 
L 396.77472 83.200698 
L 396.95328 101.50357 
L 397.04256 97.381203 
L 397.13184 110.623132 
L 397.22112 79.352805 
L 397.3104 80.58614 
L 397.39968 89.461552 
L 397.48896 85.045833 
L 397.57824 87.650376 
L 397.66752 106.867508 
L 397.7568 99.243689 
L 397.84608 103.078633 
L 397.93536 88.36081 
L 398.02464 103.133721 
L 398.29248 83.022472 
L 398.38176 90.164318 
L 398.47104 84.661698 
L 398.56032 91.352797 
L 398.6496 78.841451 
L 398.82816 98.194393 
L 398.91744 90.583503 
L 399.00672 101.892882 
L 399.096 96.428817 
L 399.18528 79.190879 
L 399.27456 99.728296 
L 399.36384 93.090655 
L 399.45312 74.449773 
L 399.5424 95.426699 
L 399.72096 83.468456 
L 399.81024 92.268023 
L 399.89952 77.143356 
L 399.9888 119.303471 
L 400.07808 110.733858 
L 400.25664 79.353708 
L 400.4352 97.494405 
L 400.52448 96.646648 
L 400.61376 93.021608 
L 400.70304 95.911764 
L 400.79232 91.333603 
L 400.8816 92.760129 
L 400.97088 82.833293 
L 401.06016 112.138745 
L 401.328 91.38465 
L 401.41728 99.742003 
L 401.50656 92.250252 
L 401.68512 98.536933 
L 401.7744 76.077942 
L 401.86368 95.797336 
L 401.95296 92.468082 
L 402.04224 104.84746 
L 402.2208 80.807552 
L 402.31008 84.261862 
L 402.39936 81.495711 
L 402.48864 97.964954 
L 402.6672 78.525794 
L 402.84576 92.485162 
L 402.93504 85.731581 
L 403.02432 98.868133 
L 403.1136 73.640239 
L 403.29216 93.05178 
L 403.38144 81.990401 
L 403.47072 103.032848 
L 403.56 96.254915 
L 403.64928 73.183674 
L 403.73856 106.901163 
L 403.82784 93.600493 
L 403.91712 104.194611 
L 404.0064 85.94652 
L 404.09568 131.299366 
L 404.18496 87.451194 
L 404.27424 92.571742 
L 404.36352 85.577834 
L 404.4528 108.497733 
L 404.63136 82.253335 
L 404.80992 85.930363 
L 404.8992 96.124074 
L 404.98848 84.486239 
L 405.07776 91.482341 
L 405.16704 83.791736 
L 405.25632 103.02853 
L 405.43488 91.462172 
L 405.61344 99.662518 
L 405.70272 94.052124 
L 405.792 94.346047 
L 405.88128 101.084038 
L 406.05984 78.168057 
L 406.32768 109.753892 
L 406.41696 73.903256 
L 406.50624 108.217978 
L 406.6848 81.50069 
L 406.77408 78.33168 
L 406.95264 98.421367 
L 407.04192 88.406294 
L 407.1312 94.029749 
L 407.22048 92.304357 
L 407.30976 75.35677 
L 407.39904 92.383697 
L 407.48832 82.26498 
L 407.5776 97.286681 
L 407.66688 93.878463 
L 407.84544 83.390535 
L 407.93472 81.931687 
L 408.024 92.752585 
L 408.11328 79.561689 
L 408.20256 87.463228 
L 408.29184 78.523135 
L 408.55968 117.285665 
L 408.73824 88.422398 
L 408.9168 118.455654 
L 409.00608 82.336075 
L 409.09536 101.612227 
L 409.18464 95.711211 
L 409.27392 109.126528 
L 409.45248 81.390136 
L 409.54176 102.441216 
L 409.72032 87.716552 
L 409.8096 80.46983 
L 409.98816 105.438657 
L 410.07744 104.412004 
L 410.16672 75.005169 
L 410.256 81.05914 
L 410.34528 81.91583 
L 410.52384 97.688722 
L 410.61312 87.865568 
L 410.79168 108.253542 
L 410.88096 88.498861 
L 411.05952 96.477412 
L 411.23808 88.681351 
L 411.32736 95.813904 
L 411.41664 82.744691 
L 411.50592 105.015636 
L 411.5952 79.527588 
L 411.68448 83.808308 
L 411.77376 85.090938 
L 411.95232 103.994323 
L 412.0416 84.682785 
L 412.13088 97.691933 
L 412.22016 93.124218 
L 412.30944 102.71667 
L 412.39872 78.897518 
L 412.488 108.722186 
L 412.57728 96.986189 
L 412.66656 111.896233 
L 412.84512 92.941442 
L 412.9344 101.071226 
L 413.02368 96.860187 
L 413.11296 106.833105 
L 413.20224 86.179432 
L 413.29152 98.180961 
L 413.3808 85.275763 
L 413.47008 85.442525 
L 413.55936 100.223458 
L 413.64864 95.80378 
L 413.8272 79.35081 
L 414.00576 100.382057 
L 414.18432 85.466739 
L 414.2736 83.867042 
L 414.45216 91.425693 
L 414.54144 105.45145 
L 414.63072 78.758768 
L 414.63072 78.758768 
" style="fill:none;stroke:#0000ff;stroke-linecap:square;stroke-width:1.5;"/>
   </g>
   <g id="patch_3">
    <path d="M 57.6 307.584 
L 57.6 41.472 
" style="fill:none;stroke:#000000;stroke-linecap:square;stroke-linejoin:miter;stroke-width:0.8;"/>
   </g>
   <g id="patch_4">
    <path d="M 414.72 307.584 
L 414.72 41.472 
" style="fill:none;stroke:#000000;stroke-linecap:square;stroke-linejoin:miter;stroke-width:0.8;"/>
   </g>
   <g id="patch_5">
    <path d="M 57.6 307.584 
L 414.72 307.584 
" style="fill:none;stroke:#000000;stroke-linecap:square;stroke-linejoin:miter;stroke-width:0.8;"/>
   </g>
   <g id="patch_6">
    <path d="M 57.6 41.472 
L 414.72 41.472 
" style="fill:none;stroke:#000000;stroke-linecap:square;stroke-linejoin:miter;stroke-width:0.8;"/>
   </g>
   <g id="legend_1">
    <g id="patch_7">
     <path d="M 68.8 299.584 
L 269.4375 299.584 
Q 272.6375 299.584 272.6375 296.384 
L 272.6375 274.499 
Q 272.6375 271.299 269.4375 271.299 
L 68.8 271.299 
Q 65.6 271.299 65.6 274.499 
L 65.6 296.384 
Q 65.6 299.584 68.8 299.584 
z
" style="fill:#ffffff;opacity:0.8;stroke:#cccccc;stroke-linejoin:miter;"/>
    </g>
    <g id="line2d_26">
     <path d="M 72 284.2565 
L 104 284.2565 
" style="fill:none;stroke:#0000ff;stroke-linecap:square;stroke-width:1.5;"/>
    </g>
    <g id="line2d_27"/>
    <g id="text_15">
     <!-- cumulative reward -->
     <g transform="translate(116.8 289.8565)scale(0.16 -0.16)">
      <defs>
       <path d="M 3122 3366 
L 3122 2828 
Q 2878 2963 2633 3030 
Q 2388 3097 2138 3097 
Q 1578 3097 1268 2742 
Q 959 2388 959 1747 
Q 959 1106 1268 751 
Q 1578 397 2138 397 
Q 2388 397 2633 464 
Q 2878 531 3122 666 
L 3122 134 
Q 2881 22 2623 -34 
Q 2366 -91 2075 -91 
Q 1284 -91 818 406 
Q 353 903 353 1747 
Q 353 2603 823 3093 
Q 1294 3584 2113 3584 
Q 2378 3584 2631 3529 
Q 2884 3475 3122 3366 
z
" id="DejaVuSans-63" transform="scale(0.015625)"/>
      </defs>
      <use xlink:href="#DejaVuSans-63"/>
      <use x="54.980469" xlink:href="#DejaVuSans-75"/>
      <use x="118.359375" xlink:href="#DejaVuSans-6d"/>
      <use x="215.771484" xlink:href="#DejaVuSans-75"/>
      <use x="279.150391" xlink:href="#DejaVuSans-6c"/>
      <use x="306.933594" xlink:href="#DejaVuSans-61"/>
      <use x="368.212891" xlink:href="#DejaVuSans-74"/>
      <use x="407.421875" xlink:href="#DejaVuSans-69"/>
      <use x="435.205078" xlink:href="#DejaVuSans-76"/>
      <use x="494.384766" xlink:href="#DejaVuSans-65"/>
      <use x="555.908203" xlink:href="#DejaVuSans-20"/>
      <use x="587.695312" xlink:href="#DejaVuSans-72"/>
      <use x="626.558594" xlink:href="#DejaVuSans-65"/>
      <use x="688.082031" xlink:href="#DejaVuSans-77"/>
      <use x="769.869141" xlink:href="#DejaVuSans-61"/>
      <use x="831.148438" xlink:href="#DejaVuSans-72"/>
      <use x="870.511719" xlink:href="#DejaVuSans-64"/>
     </g>
    </g>
   </g>
  </g>
 </g>
 <defs>
  <clipPath id="p91d6d2b449">
   <rect height="266.112" width="357.12" x="57.6" y="41.472"/>
  </clipPath>
 </defs>
</svg>
