<?xml version="1.0" encoding="utf-8" standalone="no"?>
<!DOCTYPE svg PUBLIC "-//W3C//DTD SVG 1.1//EN"
  "http://www.w3.org/Graphics/SVG/1.1/DTD/svg11.dtd">
<svg height="345.6pt" version="1.1" viewBox="0 0 460.8 345.6" width="460.8pt" xmlns="http://www.w3.org/2000/svg" xmlns:xlink="http://www.w3.org/1999/xlink">
 <metadata>
  <rdf:RDF xmlns:cc="http://creativecommons.org/ns#" xmlns:dc="http://purl.org/dc/elements/1.1/" xmlns:rdf="http://www.w3.org/1999/02/22-rdf-syntax-ns#">
   <cc:Work>
    <dc:type rdf:resource="http://purl.org/dc/dcmitype/StillImage"/>
    <dc:date>2021-10-27T13:33:49.060996</dc:date>
    <dc:description>{"agent.algorithm": "RayProximalPolicyOptimization", "agent.algorithm.render_env": false, "agent.algorithm.num_workers": 0, "agent.algorithm.batch_mode": "complete_episodes", "agent.algorithm.train_batch_size": 200, "agent.algorithm.optimizer": "Adam", "agent.algorithm.vf_clip_param": 50, "agent.algorithm.model": {"fcnet_activation": "tanh", "fcnet_hiddens": [50, 50]}, "env.env_class": "SchedulerPolicyRayEnvironment", "env.env_config": {"solver_driver": "CMAdriver", "solver_driver_args": [10, 10, 1, 1.63], "maximize": false, "steps": 50, "state_metrics_names": ["DifferenceOfBest", "SolverStateHistory", "SolverState"], "state_metrics_config": [[40, false, 1, true], [{"step_size": {"max": 3, "min": 0}}, 40], [{"ps": {"max": 10, "min": -10}}]], "reward_metric": "Best", "reward_metric_config": [false, false], "memes_no": 1, "action_space_config": {"step_size": {"max": 3, "min": 1e-10}}}}</dc:description>
    <dc:format>image/svg+xml</dc:format>
    <dc:creator>
     <cc:Agent>
      <dc:title>Matplotlib v3.4.3, https://matplotlib.org/</dc:title>
     </cc:Agent>
    </dc:creator>
   </cc:Work>
  </rdf:RDF>
 </metadata>
 <defs>
  <style type="text/css">*{stroke-linecap:butt;stroke-linejoin:round;}</style>
 </defs>
 <g id="figure_1">
  <g id="patch_1">
   <path d="M 0 345.6 
L 460.8 345.6 
L 460.8 0 
L 0 0 
z
" style="fill:#ffffff;"/>
  </g>
  <g id="axes_1">
   <g id="patch_2">
    <path d="M 57.6 307.584 
L 414.72 307.584 
L 414.72 41.472 
L 57.6 41.472 
z
" style="fill:#ffffff;"/>
   </g>
   <g id="matplotlib.axis_1">
    <g id="xtick_1">
     <g id="line2d_1">
      <path clip-path="url(#p3b7b91df6a)" d="M 57.6 307.584 
L 57.6 41.472 
" style="fill:none;stroke:#b0b0b0;stroke-linecap:square;stroke-width:0.8;"/>
     </g>
     <g id="line2d_2">
      <defs>
       <path d="M 0 0 
L 0 3.5 
" id="m27f7474930" style="stroke:#000000;stroke-width:0.8;"/>
      </defs>
      <g>
       <use style="stroke:#000000;stroke-width:0.8;" x="57.6" xlink:href="#m27f7474930" y="307.584"/>
      </g>
     </g>
     <g id="text_1">
      <!-- 0 -->
      <g transform="translate(54.41875 322.182437)scale(0.1 -0.1)">
       <defs>
        <path d="M 2034 4250 
Q 1547 4250 1301 3770 
Q 1056 3291 1056 2328 
Q 1056 1369 1301 889 
Q 1547 409 2034 409 
Q 2525 409 2770 889 
Q 3016 1369 3016 2328 
Q 3016 3291 2770 3770 
Q 2525 4250 2034 4250 
z
M 2034 4750 
Q 2819 4750 3233 4129 
Q 3647 3509 3647 2328 
Q 3647 1150 3233 529 
Q 2819 -91 2034 -91 
Q 1250 -91 836 529 
Q 422 1150 422 2328 
Q 422 3509 836 4129 
Q 1250 4750 2034 4750 
z
" id="DejaVuSans-30" transform="scale(0.015625)"/>
       </defs>
       <use xlink:href="#DejaVuSans-30"/>
      </g>
     </g>
    </g>
    <g id="xtick_2">
     <g id="line2d_3">
      <path clip-path="url(#p3b7b91df6a)" d="M 129.024 307.584 
L 129.024 41.472 
" style="fill:none;stroke:#b0b0b0;stroke-linecap:square;stroke-width:0.8;"/>
     </g>
     <g id="line2d_4">
      <g>
       <use style="stroke:#000000;stroke-width:0.8;" x="129.024" xlink:href="#m27f7474930" y="307.584"/>
      </g>
     </g>
     <g id="text_2">
      <!-- 200 -->
      <g transform="translate(119.48025 322.182437)scale(0.1 -0.1)">
       <defs>
        <path d="M 1228 531 
L 3431 531 
L 3431 0 
L 469 0 
L 469 531 
Q 828 903 1448 1529 
Q 2069 2156 2228 2338 
Q 2531 2678 2651 2914 
Q 2772 3150 2772 3378 
Q 2772 3750 2511 3984 
Q 2250 4219 1831 4219 
Q 1534 4219 1204 4116 
Q 875 4013 500 3803 
L 500 4441 
Q 881 4594 1212 4672 
Q 1544 4750 1819 4750 
Q 2544 4750 2975 4387 
Q 3406 4025 3406 3419 
Q 3406 3131 3298 2873 
Q 3191 2616 2906 2266 
Q 2828 2175 2409 1742 
Q 1991 1309 1228 531 
z
" id="DejaVuSans-32" transform="scale(0.015625)"/>
       </defs>
       <use xlink:href="#DejaVuSans-32"/>
       <use x="63.623047" xlink:href="#DejaVuSans-30"/>
       <use x="127.246094" xlink:href="#DejaVuSans-30"/>
      </g>
     </g>
    </g>
    <g id="xtick_3">
     <g id="line2d_5">
      <path clip-path="url(#p3b7b91df6a)" d="M 200.448 307.584 
L 200.448 41.472 
" style="fill:none;stroke:#b0b0b0;stroke-linecap:square;stroke-width:0.8;"/>
     </g>
     <g id="line2d_6">
      <g>
       <use style="stroke:#000000;stroke-width:0.8;" x="200.448" xlink:href="#m27f7474930" y="307.584"/>
      </g>
     </g>
     <g id="text_3">
      <!-- 400 -->
      <g transform="translate(190.90425 322.182437)scale(0.1 -0.1)">
       <defs>
        <path d="M 2419 4116 
L 825 1625 
L 2419 1625 
L 2419 4116 
z
M 2253 4666 
L 3047 4666 
L 3047 1625 
L 3713 1625 
L 3713 1100 
L 3047 1100 
L 3047 0 
L 2419 0 
L 2419 1100 
L 313 1100 
L 313 1709 
L 2253 4666 
z
" id="DejaVuSans-34" transform="scale(0.015625)"/>
       </defs>
       <use xlink:href="#DejaVuSans-34"/>
       <use x="63.623047" xlink:href="#DejaVuSans-30"/>
       <use x="127.246094" xlink:href="#DejaVuSans-30"/>
      </g>
     </g>
    </g>
    <g id="xtick_4">
     <g id="line2d_7">
      <path clip-path="url(#p3b7b91df6a)" d="M 271.872 307.584 
L 271.872 41.472 
" style="fill:none;stroke:#b0b0b0;stroke-linecap:square;stroke-width:0.8;"/>
     </g>
     <g id="line2d_8">
      <g>
       <use style="stroke:#000000;stroke-width:0.8;" x="271.872" xlink:href="#m27f7474930" y="307.584"/>
      </g>
     </g>
     <g id="text_4">
      <!-- 600 -->
      <g transform="translate(262.32825 322.182437)scale(0.1 -0.1)">
       <defs>
        <path d="M 2113 2584 
Q 1688 2584 1439 2293 
Q 1191 2003 1191 1497 
Q 1191 994 1439 701 
Q 1688 409 2113 409 
Q 2538 409 2786 701 
Q 3034 994 3034 1497 
Q 3034 2003 2786 2293 
Q 2538 2584 2113 2584 
z
M 3366 4563 
L 3366 3988 
Q 3128 4100 2886 4159 
Q 2644 4219 2406 4219 
Q 1781 4219 1451 3797 
Q 1122 3375 1075 2522 
Q 1259 2794 1537 2939 
Q 1816 3084 2150 3084 
Q 2853 3084 3261 2657 
Q 3669 2231 3669 1497 
Q 3669 778 3244 343 
Q 2819 -91 2113 -91 
Q 1303 -91 875 529 
Q 447 1150 447 2328 
Q 447 3434 972 4092 
Q 1497 4750 2381 4750 
Q 2619 4750 2861 4703 
Q 3103 4656 3366 4563 
z
" id="DejaVuSans-36" transform="scale(0.015625)"/>
       </defs>
       <use xlink:href="#DejaVuSans-36"/>
       <use x="63.623047" xlink:href="#DejaVuSans-30"/>
       <use x="127.246094" xlink:href="#DejaVuSans-30"/>
      </g>
     </g>
    </g>
    <g id="xtick_5">
     <g id="line2d_9">
      <path clip-path="url(#p3b7b91df6a)" d="M 343.296 307.584 
L 343.296 41.472 
" style="fill:none;stroke:#b0b0b0;stroke-linecap:square;stroke-width:0.8;"/>
     </g>
     <g id="line2d_10">
      <g>
       <use style="stroke:#000000;stroke-width:0.8;" x="343.296" xlink:href="#m27f7474930" y="307.584"/>
      </g>
     </g>
     <g id="text_5">
      <!-- 800 -->
      <g transform="translate(333.75225 322.182437)scale(0.1 -0.1)">
       <defs>
        <path d="M 2034 2216 
Q 1584 2216 1326 1975 
Q 1069 1734 1069 1313 
Q 1069 891 1326 650 
Q 1584 409 2034 409 
Q 2484 409 2743 651 
Q 3003 894 3003 1313 
Q 3003 1734 2745 1975 
Q 2488 2216 2034 2216 
z
M 1403 2484 
Q 997 2584 770 2862 
Q 544 3141 544 3541 
Q 544 4100 942 4425 
Q 1341 4750 2034 4750 
Q 2731 4750 3128 4425 
Q 3525 4100 3525 3541 
Q 3525 3141 3298 2862 
Q 3072 2584 2669 2484 
Q 3125 2378 3379 2068 
Q 3634 1759 3634 1313 
Q 3634 634 3220 271 
Q 2806 -91 2034 -91 
Q 1263 -91 848 271 
Q 434 634 434 1313 
Q 434 1759 690 2068 
Q 947 2378 1403 2484 
z
M 1172 3481 
Q 1172 3119 1398 2916 
Q 1625 2713 2034 2713 
Q 2441 2713 2670 2916 
Q 2900 3119 2900 3481 
Q 2900 3844 2670 4047 
Q 2441 4250 2034 4250 
Q 1625 4250 1398 4047 
Q 1172 3844 1172 3481 
z
" id="DejaVuSans-38" transform="scale(0.015625)"/>
       </defs>
       <use xlink:href="#DejaVuSans-38"/>
       <use x="63.623047" xlink:href="#DejaVuSans-30"/>
       <use x="127.246094" xlink:href="#DejaVuSans-30"/>
      </g>
     </g>
    </g>
    <g id="xtick_6">
     <g id="line2d_11">
      <path clip-path="url(#p3b7b91df6a)" d="M 414.72 307.584 
L 414.72 41.472 
" style="fill:none;stroke:#b0b0b0;stroke-linecap:square;stroke-width:0.8;"/>
     </g>
     <g id="line2d_12">
      <g>
       <use style="stroke:#000000;stroke-width:0.8;" x="414.72" xlink:href="#m27f7474930" y="307.584"/>
      </g>
     </g>
     <g id="text_6">
      <!-- 1000 -->
      <g transform="translate(401.995 322.182437)scale(0.1 -0.1)">
       <defs>
        <path d="M 794 531 
L 1825 531 
L 1825 4091 
L 703 3866 
L 703 4441 
L 1819 4666 
L 2450 4666 
L 2450 531 
L 3481 531 
L 3481 0 
L 794 0 
L 794 531 
z
" id="DejaVuSans-31" transform="scale(0.015625)"/>
       </defs>
       <use xlink:href="#DejaVuSans-31"/>
       <use x="63.623047" xlink:href="#DejaVuSans-30"/>
       <use x="127.246094" xlink:href="#DejaVuSans-30"/>
       <use x="190.869141" xlink:href="#DejaVuSans-30"/>
      </g>
     </g>
    </g>
    <g id="text_7">
     <!-- Episodes -->
     <g transform="translate(213.917812 335.860562)scale(0.1 -0.1)">
      <defs>
       <path d="M 628 4666 
L 3578 4666 
L 3578 4134 
L 1259 4134 
L 1259 2753 
L 3481 2753 
L 3481 2222 
L 1259 2222 
L 1259 531 
L 3634 531 
L 3634 0 
L 628 0 
L 628 4666 
z
" id="DejaVuSans-45" transform="scale(0.015625)"/>
       <path d="M 1159 525 
L 1159 -1331 
L 581 -1331 
L 581 3500 
L 1159 3500 
L 1159 2969 
Q 1341 3281 1617 3432 
Q 1894 3584 2278 3584 
Q 2916 3584 3314 3078 
Q 3713 2572 3713 1747 
Q 3713 922 3314 415 
Q 2916 -91 2278 -91 
Q 1894 -91 1617 61 
Q 1341 213 1159 525 
z
M 3116 1747 
Q 3116 2381 2855 2742 
Q 2594 3103 2138 3103 
Q 1681 3103 1420 2742 
Q 1159 2381 1159 1747 
Q 1159 1113 1420 752 
Q 1681 391 2138 391 
Q 2594 391 2855 752 
Q 3116 1113 3116 1747 
z
" id="DejaVuSans-70" transform="scale(0.015625)"/>
       <path d="M 603 3500 
L 1178 3500 
L 1178 0 
L 603 0 
L 603 3500 
z
M 603 4863 
L 1178 4863 
L 1178 4134 
L 603 4134 
L 603 4863 
z
" id="DejaVuSans-69" transform="scale(0.015625)"/>
       <path d="M 2834 3397 
L 2834 2853 
Q 2591 2978 2328 3040 
Q 2066 3103 1784 3103 
Q 1356 3103 1142 2972 
Q 928 2841 928 2578 
Q 928 2378 1081 2264 
Q 1234 2150 1697 2047 
L 1894 2003 
Q 2506 1872 2764 1633 
Q 3022 1394 3022 966 
Q 3022 478 2636 193 
Q 2250 -91 1575 -91 
Q 1294 -91 989 -36 
Q 684 19 347 128 
L 347 722 
Q 666 556 975 473 
Q 1284 391 1588 391 
Q 1994 391 2212 530 
Q 2431 669 2431 922 
Q 2431 1156 2273 1281 
Q 2116 1406 1581 1522 
L 1381 1569 
Q 847 1681 609 1914 
Q 372 2147 372 2553 
Q 372 3047 722 3315 
Q 1072 3584 1716 3584 
Q 2034 3584 2315 3537 
Q 2597 3491 2834 3397 
z
" id="DejaVuSans-73" transform="scale(0.015625)"/>
       <path d="M 1959 3097 
Q 1497 3097 1228 2736 
Q 959 2375 959 1747 
Q 959 1119 1226 758 
Q 1494 397 1959 397 
Q 2419 397 2687 759 
Q 2956 1122 2956 1747 
Q 2956 2369 2687 2733 
Q 2419 3097 1959 3097 
z
M 1959 3584 
Q 2709 3584 3137 3096 
Q 3566 2609 3566 1747 
Q 3566 888 3137 398 
Q 2709 -91 1959 -91 
Q 1206 -91 779 398 
Q 353 888 353 1747 
Q 353 2609 779 3096 
Q 1206 3584 1959 3584 
z
" id="DejaVuSans-6f" transform="scale(0.015625)"/>
       <path d="M 2906 2969 
L 2906 4863 
L 3481 4863 
L 3481 0 
L 2906 0 
L 2906 525 
Q 2725 213 2448 61 
Q 2172 -91 1784 -91 
Q 1150 -91 751 415 
Q 353 922 353 1747 
Q 353 2572 751 3078 
Q 1150 3584 1784 3584 
Q 2172 3584 2448 3432 
Q 2725 3281 2906 2969 
z
M 947 1747 
Q 947 1113 1208 752 
Q 1469 391 1925 391 
Q 2381 391 2643 752 
Q 2906 1113 2906 1747 
Q 2906 2381 2643 2742 
Q 2381 3103 1925 3103 
Q 1469 3103 1208 2742 
Q 947 2381 947 1747 
z
" id="DejaVuSans-64" transform="scale(0.015625)"/>
       <path d="M 3597 1894 
L 3597 1613 
L 953 1613 
Q 991 1019 1311 708 
Q 1631 397 2203 397 
Q 2534 397 2845 478 
Q 3156 559 3463 722 
L 3463 178 
Q 3153 47 2828 -22 
Q 2503 -91 2169 -91 
Q 1331 -91 842 396 
Q 353 884 353 1716 
Q 353 2575 817 3079 
Q 1281 3584 2069 3584 
Q 2775 3584 3186 3129 
Q 3597 2675 3597 1894 
z
M 3022 2063 
Q 3016 2534 2758 2815 
Q 2500 3097 2075 3097 
Q 1594 3097 1305 2825 
Q 1016 2553 972 2059 
L 3022 2063 
z
" id="DejaVuSans-65" transform="scale(0.015625)"/>
      </defs>
      <use xlink:href="#DejaVuSans-45"/>
      <use x="63.183594" xlink:href="#DejaVuSans-70"/>
      <use x="126.660156" xlink:href="#DejaVuSans-69"/>
      <use x="154.443359" xlink:href="#DejaVuSans-73"/>
      <use x="206.542969" xlink:href="#DejaVuSans-6f"/>
      <use x="267.724609" xlink:href="#DejaVuSans-64"/>
      <use x="331.201172" xlink:href="#DejaVuSans-65"/>
      <use x="392.724609" xlink:href="#DejaVuSans-73"/>
     </g>
    </g>
   </g>
   <g id="matplotlib.axis_2">
    <g id="ytick_1">
     <g id="line2d_13">
      <path clip-path="url(#p3b7b91df6a)" d="M 57.6 277.655191 
L 414.72 277.655191 
" style="fill:none;stroke:#b0b0b0;stroke-linecap:square;stroke-width:0.8;"/>
     </g>
     <g id="line2d_14">
      <defs>
       <path d="M 0 0 
L -3.5 0 
" id="md14a74fe69" style="stroke:#000000;stroke-width:0.8;"/>
      </defs>
      <g>
       <use style="stroke:#000000;stroke-width:0.8;" x="57.6" xlink:href="#md14a74fe69" y="277.655191"/>
      </g>
     </g>
     <g id="text_8">
      <!-- 3000 -->
      <g transform="translate(25.15 281.45441)scale(0.1 -0.1)">
       <defs>
        <path d="M 2597 2516 
Q 3050 2419 3304 2112 
Q 3559 1806 3559 1356 
Q 3559 666 3084 287 
Q 2609 -91 1734 -91 
Q 1441 -91 1130 -33 
Q 819 25 488 141 
L 488 750 
Q 750 597 1062 519 
Q 1375 441 1716 441 
Q 2309 441 2620 675 
Q 2931 909 2931 1356 
Q 2931 1769 2642 2001 
Q 2353 2234 1838 2234 
L 1294 2234 
L 1294 2753 
L 1863 2753 
Q 2328 2753 2575 2939 
Q 2822 3125 2822 3475 
Q 2822 3834 2567 4026 
Q 2313 4219 1838 4219 
Q 1578 4219 1281 4162 
Q 984 4106 628 3988 
L 628 4550 
Q 988 4650 1302 4700 
Q 1616 4750 1894 4750 
Q 2613 4750 3031 4423 
Q 3450 4097 3450 3541 
Q 3450 3153 3228 2886 
Q 3006 2619 2597 2516 
z
" id="DejaVuSans-33" transform="scale(0.015625)"/>
       </defs>
       <use xlink:href="#DejaVuSans-33"/>
       <use x="63.623047" xlink:href="#DejaVuSans-30"/>
       <use x="127.246094" xlink:href="#DejaVuSans-30"/>
       <use x="190.869141" xlink:href="#DejaVuSans-30"/>
      </g>
     </g>
    </g>
    <g id="ytick_2">
     <g id="line2d_15">
      <path clip-path="url(#p3b7b91df6a)" d="M 57.6 235.347417 
L 414.72 235.347417 
" style="fill:none;stroke:#b0b0b0;stroke-linecap:square;stroke-width:0.8;"/>
     </g>
     <g id="line2d_16">
      <g>
       <use style="stroke:#000000;stroke-width:0.8;" x="57.6" xlink:href="#md14a74fe69" y="235.347417"/>
      </g>
     </g>
     <g id="text_9">
      <!-- 3200 -->
      <g transform="translate(25.15 239.146636)scale(0.1 -0.1)">
       <use xlink:href="#DejaVuSans-33"/>
       <use x="63.623047" xlink:href="#DejaVuSans-32"/>
       <use x="127.246094" xlink:href="#DejaVuSans-30"/>
       <use x="190.869141" xlink:href="#DejaVuSans-30"/>
      </g>
     </g>
    </g>
    <g id="ytick_3">
     <g id="line2d_17">
      <path clip-path="url(#p3b7b91df6a)" d="M 57.6 193.039643 
L 414.72 193.039643 
" style="fill:none;stroke:#b0b0b0;stroke-linecap:square;stroke-width:0.8;"/>
     </g>
     <g id="line2d_18">
      <g>
       <use style="stroke:#000000;stroke-width:0.8;" x="57.6" xlink:href="#md14a74fe69" y="193.039643"/>
      </g>
     </g>
     <g id="text_10">
      <!-- 3400 -->
      <g transform="translate(25.15 196.838862)scale(0.1 -0.1)">
       <use xlink:href="#DejaVuSans-33"/>
       <use x="63.623047" xlink:href="#DejaVuSans-34"/>
       <use x="127.246094" xlink:href="#DejaVuSans-30"/>
       <use x="190.869141" xlink:href="#DejaVuSans-30"/>
      </g>
     </g>
    </g>
    <g id="ytick_4">
     <g id="line2d_19">
      <path clip-path="url(#p3b7b91df6a)" d="M 57.6 150.731869 
L 414.72 150.731869 
" style="fill:none;stroke:#b0b0b0;stroke-linecap:square;stroke-width:0.8;"/>
     </g>
     <g id="line2d_20">
      <g>
       <use style="stroke:#000000;stroke-width:0.8;" x="57.6" xlink:href="#md14a74fe69" y="150.731869"/>
      </g>
     </g>
     <g id="text_11">
      <!-- 3600 -->
      <g transform="translate(25.15 154.531088)scale(0.1 -0.1)">
       <use xlink:href="#DejaVuSans-33"/>
       <use x="63.623047" xlink:href="#DejaVuSans-36"/>
       <use x="127.246094" xlink:href="#DejaVuSans-30"/>
       <use x="190.869141" xlink:href="#DejaVuSans-30"/>
      </g>
     </g>
    </g>
    <g id="ytick_5">
     <g id="line2d_21">
      <path clip-path="url(#p3b7b91df6a)" d="M 57.6 108.424096 
L 414.72 108.424096 
" style="fill:none;stroke:#b0b0b0;stroke-linecap:square;stroke-width:0.8;"/>
     </g>
     <g id="line2d_22">
      <g>
       <use style="stroke:#000000;stroke-width:0.8;" x="57.6" xlink:href="#md14a74fe69" y="108.424096"/>
      </g>
     </g>
     <g id="text_12">
      <!-- 3800 -->
      <g transform="translate(25.15 112.223314)scale(0.1 -0.1)">
       <use xlink:href="#DejaVuSans-33"/>
       <use x="63.623047" xlink:href="#DejaVuSans-38"/>
       <use x="127.246094" xlink:href="#DejaVuSans-30"/>
       <use x="190.869141" xlink:href="#DejaVuSans-30"/>
      </g>
     </g>
    </g>
    <g id="ytick_6">
     <g id="line2d_23">
      <path clip-path="url(#p3b7b91df6a)" d="M 57.6 66.116322 
L 414.72 66.116322 
" style="fill:none;stroke:#b0b0b0;stroke-linecap:square;stroke-width:0.8;"/>
     </g>
     <g id="line2d_24">
      <g>
       <use style="stroke:#000000;stroke-width:0.8;" x="57.6" xlink:href="#md14a74fe69" y="66.116322"/>
      </g>
     </g>
     <g id="text_13">
      <!-- 4000 -->
      <g transform="translate(25.15 69.91554)scale(0.1 -0.1)">
       <use xlink:href="#DejaVuSans-34"/>
       <use x="63.623047" xlink:href="#DejaVuSans-30"/>
       <use x="127.246094" xlink:href="#DejaVuSans-30"/>
       <use x="190.869141" xlink:href="#DejaVuSans-30"/>
      </g>
     </g>
    </g>
    <g id="text_14">
     <!-- Cumulative Reward -->
     <g transform="translate(19.070312 223.275656)rotate(-90)scale(0.1 -0.1)">
      <defs>
       <path d="M 4122 4306 
L 4122 3641 
Q 3803 3938 3442 4084 
Q 3081 4231 2675 4231 
Q 1875 4231 1450 3742 
Q 1025 3253 1025 2328 
Q 1025 1406 1450 917 
Q 1875 428 2675 428 
Q 3081 428 3442 575 
Q 3803 722 4122 1019 
L 4122 359 
Q 3791 134 3420 21 
Q 3050 -91 2638 -91 
Q 1578 -91 968 557 
Q 359 1206 359 2328 
Q 359 3453 968 4101 
Q 1578 4750 2638 4750 
Q 3056 4750 3426 4639 
Q 3797 4528 4122 4306 
z
" id="DejaVuSans-43" transform="scale(0.015625)"/>
       <path d="M 544 1381 
L 544 3500 
L 1119 3500 
L 1119 1403 
Q 1119 906 1312 657 
Q 1506 409 1894 409 
Q 2359 409 2629 706 
Q 2900 1003 2900 1516 
L 2900 3500 
L 3475 3500 
L 3475 0 
L 2900 0 
L 2900 538 
Q 2691 219 2414 64 
Q 2138 -91 1772 -91 
Q 1169 -91 856 284 
Q 544 659 544 1381 
z
M 1991 3584 
L 1991 3584 
z
" id="DejaVuSans-75" transform="scale(0.015625)"/>
       <path d="M 3328 2828 
Q 3544 3216 3844 3400 
Q 4144 3584 4550 3584 
Q 5097 3584 5394 3201 
Q 5691 2819 5691 2113 
L 5691 0 
L 5113 0 
L 5113 2094 
Q 5113 2597 4934 2840 
Q 4756 3084 4391 3084 
Q 3944 3084 3684 2787 
Q 3425 2491 3425 1978 
L 3425 0 
L 2847 0 
L 2847 2094 
Q 2847 2600 2669 2842 
Q 2491 3084 2119 3084 
Q 1678 3084 1418 2786 
Q 1159 2488 1159 1978 
L 1159 0 
L 581 0 
L 581 3500 
L 1159 3500 
L 1159 2956 
Q 1356 3278 1631 3431 
Q 1906 3584 2284 3584 
Q 2666 3584 2933 3390 
Q 3200 3197 3328 2828 
z
" id="DejaVuSans-6d" transform="scale(0.015625)"/>
       <path d="M 603 4863 
L 1178 4863 
L 1178 0 
L 603 0 
L 603 4863 
z
" id="DejaVuSans-6c" transform="scale(0.015625)"/>
       <path d="M 2194 1759 
Q 1497 1759 1228 1600 
Q 959 1441 959 1056 
Q 959 750 1161 570 
Q 1363 391 1709 391 
Q 2188 391 2477 730 
Q 2766 1069 2766 1631 
L 2766 1759 
L 2194 1759 
z
M 3341 1997 
L 3341 0 
L 2766 0 
L 2766 531 
Q 2569 213 2275 61 
Q 1981 -91 1556 -91 
Q 1019 -91 701 211 
Q 384 513 384 1019 
Q 384 1609 779 1909 
Q 1175 2209 1959 2209 
L 2766 2209 
L 2766 2266 
Q 2766 2663 2505 2880 
Q 2244 3097 1772 3097 
Q 1472 3097 1187 3025 
Q 903 2953 641 2809 
L 641 3341 
Q 956 3463 1253 3523 
Q 1550 3584 1831 3584 
Q 2591 3584 2966 3190 
Q 3341 2797 3341 1997 
z
" id="DejaVuSans-61" transform="scale(0.015625)"/>
       <path d="M 1172 4494 
L 1172 3500 
L 2356 3500 
L 2356 3053 
L 1172 3053 
L 1172 1153 
Q 1172 725 1289 603 
Q 1406 481 1766 481 
L 2356 481 
L 2356 0 
L 1766 0 
Q 1100 0 847 248 
Q 594 497 594 1153 
L 594 3053 
L 172 3053 
L 172 3500 
L 594 3500 
L 594 4494 
L 1172 4494 
z
" id="DejaVuSans-74" transform="scale(0.015625)"/>
       <path d="M 191 3500 
L 800 3500 
L 1894 563 
L 2988 3500 
L 3597 3500 
L 2284 0 
L 1503 0 
L 191 3500 
z
" id="DejaVuSans-76" transform="scale(0.015625)"/>
       <path id="DejaVuSans-20" transform="scale(0.015625)"/>
       <path d="M 2841 2188 
Q 3044 2119 3236 1894 
Q 3428 1669 3622 1275 
L 4263 0 
L 3584 0 
L 2988 1197 
Q 2756 1666 2539 1819 
Q 2322 1972 1947 1972 
L 1259 1972 
L 1259 0 
L 628 0 
L 628 4666 
L 2053 4666 
Q 2853 4666 3247 4331 
Q 3641 3997 3641 3322 
Q 3641 2881 3436 2590 
Q 3231 2300 2841 2188 
z
M 1259 4147 
L 1259 2491 
L 2053 2491 
Q 2509 2491 2742 2702 
Q 2975 2913 2975 3322 
Q 2975 3731 2742 3939 
Q 2509 4147 2053 4147 
L 1259 4147 
z
" id="DejaVuSans-52" transform="scale(0.015625)"/>
       <path d="M 269 3500 
L 844 3500 
L 1563 769 
L 2278 3500 
L 2956 3500 
L 3675 769 
L 4391 3500 
L 4966 3500 
L 4050 0 
L 3372 0 
L 2619 2869 
L 1863 0 
L 1184 0 
L 269 3500 
z
" id="DejaVuSans-77" transform="scale(0.015625)"/>
       <path d="M 2631 2963 
Q 2534 3019 2420 3045 
Q 2306 3072 2169 3072 
Q 1681 3072 1420 2755 
Q 1159 2438 1159 1844 
L 1159 0 
L 581 0 
L 581 3500 
L 1159 3500 
L 1159 2956 
Q 1341 3275 1631 3429 
Q 1922 3584 2338 3584 
Q 2397 3584 2469 3576 
Q 2541 3569 2628 3553 
L 2631 2963 
z
" id="DejaVuSans-72" transform="scale(0.015625)"/>
      </defs>
      <use xlink:href="#DejaVuSans-43"/>
      <use x="69.824219" xlink:href="#DejaVuSans-75"/>
      <use x="133.203125" xlink:href="#DejaVuSans-6d"/>
      <use x="230.615234" xlink:href="#DejaVuSans-75"/>
      <use x="293.994141" xlink:href="#DejaVuSans-6c"/>
      <use x="321.777344" xlink:href="#DejaVuSans-61"/>
      <use x="383.056641" xlink:href="#DejaVuSans-74"/>
      <use x="422.265625" xlink:href="#DejaVuSans-69"/>
      <use x="450.048828" xlink:href="#DejaVuSans-76"/>
      <use x="509.228516" xlink:href="#DejaVuSans-65"/>
      <use x="570.751953" xlink:href="#DejaVuSans-20"/>
      <use x="602.539062" xlink:href="#DejaVuSans-52"/>
      <use x="667.521484" xlink:href="#DejaVuSans-65"/>
      <use x="729.044922" xlink:href="#DejaVuSans-77"/>
      <use x="810.832031" xlink:href="#DejaVuSans-61"/>
      <use x="872.111328" xlink:href="#DejaVuSans-72"/>
      <use x="911.474609" xlink:href="#DejaVuSans-64"/>
     </g>
    </g>
   </g>
   <g id="line2d_25">
    <path clip-path="url(#p3b7b91df6a)" d="M 57.6 132.376934 
L 57.95712 140.452281 
L 58.31424 178.013463 
L 58.67136 102.224063 
L 59.02848 132.376934 
L 59.3856 140.452281 
L 59.74272 178.013463 
L 60.09984 102.224063 
L 60.45696 132.376934 
L 60.81408 140.452281 
L 61.1712 178.013463 
L 61.52832 102.224063 
L 61.88544 132.376934 
L 62.24256 140.452281 
L 62.59968 178.013463 
L 62.9568 102.224063 
L 63.31392 132.376934 
L 63.67104 140.452281 
L 64.02816 178.013463 
L 64.38528 102.224063 
L 64.7424 132.376934 
L 65.09952 140.452281 
L 65.45664 178.013463 
L 65.81376 102.224063 
L 66.17088 132.376934 
L 66.528 140.452281 
L 66.88512 178.013463 
L 67.24224 102.224063 
L 67.59936 132.376934 
L 67.95648 140.452281 
L 68.3136 178.013463 
L 68.67072 102.224063 
L 69.02784 132.376934 
L 69.38496 140.452281 
L 69.74208 178.013463 
L 70.0992 102.224063 
L 70.45632 132.376934 
L 70.81344 140.452281 
L 71.17056 178.013463 
L 71.52768 102.224063 
L 71.8848 132.376934 
L 72.24192 140.452281 
L 72.59904 178.013463 
L 72.95616 102.224063 
L 73.31328 132.376934 
L 73.6704 140.452281 
L 74.02752 178.013463 
L 74.38464 102.224063 
L 74.74176 132.376934 
L 75.09888 140.452281 
L 75.456 178.013463 
L 75.81312 102.224063 
L 76.17024 132.376934 
L 76.52736 140.452281 
L 76.88448 178.013463 
L 77.2416 102.224063 
L 77.59872 132.376934 
L 77.95584 140.452281 
L 78.31296 178.013463 
L 78.67008 102.224063 
L 79.0272 132.376934 
L 79.38432 140.452281 
L 79.74144 178.013463 
L 80.09856 102.224063 
L 80.45568 132.376934 
L 80.8128 140.452281 
L 81.16992 178.013463 
L 81.52704 102.224063 
L 81.88416 132.376934 
L 82.24128 140.452281 
L 82.5984 178.013463 
L 82.95552 102.224063 
L 83.31264 132.376934 
L 83.66976 140.452281 
L 84.02688 178.013463 
L 84.384 102.224063 
L 84.74112 132.376934 
L 85.09824 140.452281 
L 85.45536 178.013463 
L 85.81248 102.224063 
L 86.1696 132.376934 
L 86.52672 140.452281 
L 86.88384 178.013463 
L 87.24096 102.224063 
L 87.59808 132.376934 
L 87.9552 140.452281 
L 88.31232 178.013463 
L 88.66944 102.224063 
L 89.02656 132.376934 
L 89.38368 140.452281 
L 89.7408 178.013463 
L 90.09792 102.224063 
L 90.45504 132.376934 
L 90.81216 140.452281 
L 91.16928 178.013463 
L 91.5264 102.224063 
L 91.88352 132.376934 
L 92.24064 140.452281 
L 92.59776 178.013463 
L 92.95488 102.224063 
L 93.312 136.13372 
L 93.66912 115.022861 
L 94.02624 116.148647 
L 94.38336 172.334562 
L 94.74048 194.726734 
L 95.0976 125.245654 
L 95.45472 233.319451 
L 95.81184 197.422141 
L 96.16896 130.556838 
L 96.52608 155.973299 
L 96.8832 126.790162 
L 97.59744 112.390233 
L 97.95456 174.127998 
L 98.31168 136.555458 
L 98.6688 184.518072 
L 99.02592 126.754687 
L 99.38304 144.528479 
L 99.74016 117.403189 
L 100.09728 171.423726 
L 100.4544 141.627607 
L 100.81152 201.129905 
L 101.16864 162.745961 
L 101.52576 186.803697 
L 102.24 110.538399 
L 102.59712 111.591118 
L 102.95424 138.053253 
L 103.31136 150.051265 
L 103.66848 133.667934 
L 104.0256 77.580557 
L 104.38272 139.424378 
L 104.73984 144.576339 
L 105.09696 143.505205 
L 105.45408 151.911232 
L 105.8112 82.307376 
L 106.16832 139.025068 
L 106.88256 113.239866 
L 107.23968 158.421276 
L 107.5968 232.634763 
L 107.95392 141.254744 
L 108.31104 101.925039 
L 108.66816 136.29853 
L 109.02528 153.278251 
L 109.3824 123.64014 
L 109.73952 119.014254 
L 110.09664 160.204866 
L 110.45376 152.281242 
L 110.81088 130.970042 
L 111.168 181.024916 
L 111.52512 92.254062 
L 111.88224 83.627893 
L 112.23936 157.554348 
L 112.59648 123.885882 
L 112.9536 134.557057 
L 113.66784 114.32735 
L 114.02496 166.434961 
L 114.38208 110.7822 
L 114.7392 81.705094 
L 115.09632 131.377018 
L 115.45344 115.715563 
L 115.81056 172.852701 
L 116.16768 168.434065 
L 116.5248 156.507605 
L 116.88192 177.87928 
L 117.23904 153.612416 
L 117.59616 97.548058 
L 117.95328 108.453655 
L 118.66752 102.463951 
L 119.02464 142.780286 
L 119.38176 132.331754 
L 119.73888 140.899203 
L 120.096 108.509455 
L 120.45312 63.648 
L 120.81024 106.815107 
L 121.16736 117.932288 
L 121.52448 158.948364 
L 121.8816 99.431675 
L 122.23872 135.111048 
L 122.59584 112.243546 
L 122.95296 105.878807 
L 123.31008 145.573038 
L 123.6672 84.869786 
L 124.02432 131.2941 
L 124.38144 163.244544 
L 124.73856 113.708764 
L 125.09568 134.912021 
L 125.4528 130.390494 
L 125.80992 149.499831 
L 126.16704 151.382372 
L 126.52416 121.250426 
L 126.88128 139.945192 
L 127.2384 122.547263 
L 127.59552 154.980048 
L 127.95264 110.21294 
L 128.30976 212.033121 
L 128.66688 118.230154 
L 129.024 268.553612 
L 129.38112 166.596052 
L 129.73824 107.38065 
L 130.09536 80.247841 
L 130.45248 110.500227 
L 130.8096 112.90793 
L 131.16672 139.447819 
L 131.52384 114.501802 
L 131.88096 102.842639 
L 132.23808 143.076314 
L 132.5952 154.834843 
L 132.95232 149.62798 
L 133.30944 102.390889 
L 133.66656 143.942588 
L 134.02368 164.245122 
L 134.3808 123.540426 
L 134.73792 133.388432 
L 135.09504 224.380202 
L 135.45216 183.748498 
L 135.80928 128.968059 
L 136.1664 145.817191 
L 136.52352 178.333233 
L 136.88064 129.413211 
L 137.59488 186.113823 
L 137.952 186.268545 
L 138.30912 101.865245 
L 138.66624 175.647152 
L 139.02336 115.665797 
L 139.38048 154.240909 
L 139.7376 171.600154 
L 140.09472 169.651398 
L 140.45184 241.676101 
L 140.80896 125.035871 
L 141.16608 207.715913 
L 141.5232 212.560335 
L 141.88032 193.736154 
L 142.23744 154.742031 
L 142.59456 139.55897 
L 142.95168 144.483325 
L 143.3088 176.162384 
L 143.66592 196.687674 
L 144.02304 125.704872 
L 144.38016 236.355114 
L 144.73728 181.697092 
L 145.0944 194.069852 
L 145.45152 133.966403 
L 146.16576 203.89956 
L 146.52288 185.388534 
L 146.88 159.13812 
L 147.23712 285.408 
L 147.59424 182.549682 
L 147.95136 168.493272 
L 148.30848 257.357864 
L 148.6656 119.259061 
L 149.02272 187.593906 
L 149.37984 144.843754 
L 149.73696 124.838662 
L 150.09408 162.170522 
L 150.4512 254.407399 
L 150.80832 129.195641 
L 151.52256 225.321098 
L 151.87968 154.402613 
L 152.2368 249.490638 
L 152.59392 192.531148 
L 152.95104 184.676696 
L 153.30816 185.912608 
L 153.66528 227.837249 
L 154.0224 172.626421 
L 154.37952 171.303153 
L 154.73664 114.198033 
L 155.09376 197.239667 
L 155.45088 159.90759 
L 155.808 135.531452 
L 156.16512 203.238733 
L 156.52224 110.243751 
L 156.87936 219.819422 
L 157.23648 185.705703 
L 157.5936 259.568422 
L 158.30784 148.779685 
L 158.66496 181.992374 
L 159.02208 178.175526 
L 159.3792 141.773706 
L 159.73632 139.67095 
L 160.09344 187.819185 
L 160.45056 208.141612 
L 160.80768 176.139791 
L 161.1648 224.915122 
L 161.52192 146.725189 
L 161.87904 169.017104 
L 162.23616 179.713148 
L 162.59328 115.77764 
L 162.9504 200.44443 
L 163.30752 102.114855 
L 163.66464 182.459215 
L 164.02176 186.477906 
L 164.37888 127.90272 
L 164.736 159.36958 
L 165.09312 145.655812 
L 165.45024 189.299957 
L 165.80736 178.861674 
L 166.16448 134.004007 
L 166.5216 173.718329 
L 166.87872 147.862665 
L 167.23584 141.609523 
L 167.59296 159.998222 
L 167.95008 123.537485 
L 168.66432 157.507584 
L 169.02144 217.360297 
L 169.37856 172.002425 
L 169.73568 158.495766 
L 170.0928 155.596071 
L 170.44992 150.915543 
L 170.80704 256.788772 
L 171.16416 141.901128 
L 171.52128 195.81652 
L 172.23552 129.541606 
L 172.59264 223.604364 
L 172.94976 152.08053 
L 173.30688 114.857832 
L 174.02112 148.956744 
L 174.37824 83.52936 
L 174.73536 193.369371 
L 175.4496 130.518637 
L 175.80672 172.224054 
L 176.16384 140.039145 
L 176.52096 140.863733 
L 176.87808 100.754092 
L 177.59232 182.636618 
L 177.94944 138.936559 
L 178.30656 168.021804 
L 178.66368 126.481805 
L 179.0208 144.323325 
L 179.37792 141.621256 
L 179.73504 166.262033 
L 180.09216 157.726714 
L 180.44928 142.6083 
L 180.8064 203.629534 
L 181.52064 135.425525 
L 181.87776 100.253271 
L 182.23488 160.795734 
L 182.592 75.825148 
L 182.94912 128.151304 
L 183.30624 122.57053 
L 183.66336 89.281373 
L 184.02048 162.343657 
L 184.3776 160.31007 
L 184.73472 127.292769 
L 185.09184 195.223874 
L 185.44896 130.34839 
L 185.80608 144.278379 
L 186.1632 162.599624 
L 186.52032 142.121967 
L 186.87744 199.778126 
L 187.23456 172.840309 
L 187.59168 198.360547 
L 187.9488 187.449196 
L 188.30592 144.066737 
L 188.66304 172.571068 
L 189.7344 138.612102 
L 190.44864 164.198166 
L 190.80576 108.447787 
L 191.16288 105.418773 
L 191.52 135.196723 
L 191.87712 143.667206 
L 192.23424 205.168235 
L 192.59136 143.885498 
L 192.94848 141.900735 
L 193.3056 93.917367 
L 193.66272 144.906986 
L 194.01984 157.912902 
L 194.37696 162.341739 
L 194.73408 124.772985 
L 195.0912 199.081996 
L 195.44832 145.926283 
L 195.80544 162.940504 
L 196.16256 146.470116 
L 196.51968 168.556474 
L 196.8768 105.070181 
L 197.23392 145.715934 
L 197.59104 156.320344 
L 197.94816 133.984852 
L 198.6624 178.273845 
L 199.01952 158.116308 
L 199.37664 118.768902 
L 199.73376 168.300342 
L 200.09088 157.159658 
L 200.448 111.877992 
L 200.80512 121.239867 
L 201.16224 174.954068 
L 201.51936 121.999509 
L 201.87648 117.295888 
L 202.2336 141.363885 
L 202.59072 153.488449 
L 202.94784 112.197322 
L 203.30496 142.396618 
L 203.66208 138.853759 
L 204.0192 130.854858 
L 204.37632 150.232911 
L 204.73344 130.498152 
L 205.09056 178.35815 
L 205.44768 143.425894 
L 205.8048 167.305278 
L 206.16192 128.078458 
L 206.51904 127.077251 
L 206.87616 173.463205 
L 207.23328 118.379056 
L 207.5904 140.63371 
L 207.94752 107.123994 
L 208.30464 113.439337 
L 208.66176 199.662873 
L 209.01888 72.152274 
L 209.376 151.586124 
L 209.73312 115.890081 
L 210.09024 123.852057 
L 210.44736 119.199898 
L 210.80448 151.237019 
L 211.1616 154.646743 
L 211.51872 82.922414 
L 211.87584 97.446543 
L 212.23296 164.249176 
L 212.59008 132.821155 
L 212.9472 118.341687 
L 213.30432 136.136936 
L 213.66144 118.800406 
L 214.37568 145.41789 
L 214.7328 89.631494 
L 215.08992 139.261052 
L 215.44704 100.412041 
L 215.80416 133.239911 
L 216.16128 149.929722 
L 216.5184 143.722716 
L 216.87552 131.11098 
L 217.23264 103.919474 
L 217.58976 126.11366 
L 217.94688 129.360687 
L 218.304 150.886425 
L 219.01824 94.600592 
L 219.37536 176.981975 
L 219.73248 98.833962 
L 220.0896 178.530939 
L 220.44672 96.279356 
L 220.80384 117.488391 
L 221.16096 161.274679 
L 221.51808 121.950613 
L 221.8752 172.019664 
L 222.23232 148.262617 
L 222.58944 154.841404 
L 222.94656 143.844938 
L 223.30368 115.97009 
L 223.6608 119.31249 
L 224.01792 137.983526 
L 224.37504 110.567956 
L 224.73216 162.379288 
L 225.08928 141.044516 
L 225.4464 127.270485 
L 225.80352 162.831556 
L 226.16064 117.447588 
L 226.87488 100.322513 
L 227.232 140.255239 
L 227.58912 154.739362 
L 227.94624 113.954615 
L 228.30336 89.262522 
L 228.66048 125.888139 
L 229.0176 100.567703 
L 229.37472 119.0576 
L 229.73184 152.033512 
L 230.08896 153.01069 
L 230.44608 110.531699 
L 230.8032 174.942244 
L 231.16032 114.30886 
L 231.51744 195.948697 
L 231.87456 96.046705 
L 232.23168 136.276396 
L 232.5888 157.071468 
L 232.94592 128.767649 
L 233.30304 139.508135 
L 233.66016 105.370041 
L 234.01728 116.927981 
L 234.73152 161.908563 
L 235.08864 149.482126 
L 235.44576 168.09701 
L 235.80288 131.535157 
L 236.16 121.512614 
L 236.51712 106.529607 
L 236.87424 118.013282 
L 237.23136 102.511588 
L 237.58848 152.753923 
L 237.9456 115.521414 
L 238.30272 166.163572 
L 238.65984 151.934303 
L 239.01696 143.145813 
L 239.37408 172.86678 
L 239.7312 140.197527 
L 240.08832 138.645254 
L 240.44544 186.535771 
L 240.80256 164.577569 
L 241.15968 127.565911 
L 241.5168 165.779864 
L 241.87392 121.355199 
L 242.23104 112.534328 
L 242.58816 108.2468 
L 242.94528 108.138378 
L 243.3024 104.874199 
L 243.65952 103.137677 
L 244.01664 140.43078 
L 244.37376 109.275448 
L 244.73088 96.594459 
L 245.088 151.867405 
L 245.44512 141.586523 
L 245.80224 165.709118 
L 246.15936 150.413738 
L 246.51648 117.822145 
L 246.8736 152.70591 
L 247.23072 127.376862 
L 247.58784 170.388684 
L 247.94496 114.115261 
L 248.30208 129.336059 
L 248.6592 170.629815 
L 249.01632 123.035616 
L 249.37344 141.015914 
L 249.73056 139.091987 
L 250.08768 177.558042 
L 250.80192 142.52699 
L 251.15904 156.044166 
L 251.51616 138.63657 
L 251.87328 177.86335 
L 252.2304 179.643921 
L 252.58752 175.864091 
L 252.94464 115.335592 
L 253.30176 161.701165 
L 253.65888 97.989544 
L 254.016 158.903939 
L 254.37312 174.699509 
L 254.73024 199.48183 
L 255.08736 114.346106 
L 255.44448 81.238135 
L 255.8016 154.577208 
L 256.15872 124.537092 
L 256.51584 154.701681 
L 256.87296 133.148265 
L 257.23008 143.094661 
L 257.5872 149.185551 
L 257.94432 135.438769 
L 258.30144 146.55035 
L 258.65856 140.310845 
L 259.01568 182.136044 
L 259.3728 117.535224 
L 259.72992 118.505164 
L 260.08704 149.406903 
L 260.44416 145.751918 
L 260.80128 166.076697 
L 261.1584 105.491493 
L 261.51552 177.481585 
L 261.87264 194.398784 
L 262.22976 141.945381 
L 262.58688 110.91693 
L 262.944 195.716244 
L 263.30112 102.392828 
L 263.65824 138.805187 
L 264.01536 125.004252 
L 264.37248 136.716816 
L 264.7296 208.259616 
L 265.08672 136.858822 
L 265.44384 148.125747 
L 265.80096 146.161972 
L 266.15808 142.457753 
L 266.5152 113.400935 
L 266.87232 136.739781 
L 267.22944 135.753138 
L 267.94368 180.773244 
L 268.3008 179.139883 
L 268.65792 181.937652 
L 269.37216 112.072252 
L 269.72928 216.980167 
L 270.0864 136.344041 
L 270.44352 136.566076 
L 270.80064 158.386394 
L 271.15776 144.585323 
L 271.51488 143.149581 
L 271.872 157.642738 
L 272.22912 122.376672 
L 272.58624 149.812691 
L 273.30048 102.303606 
L 273.6576 152.76189 
L 274.01472 177.538272 
L 274.37184 138.613482 
L 274.72896 145.132579 
L 275.08608 155.856791 
L 275.4432 119.529848 
L 275.80032 153.597949 
L 276.15744 201.589973 
L 276.51456 156.309665 
L 276.87168 145.251618 
L 277.2288 148.838042 
L 277.58592 172.096631 
L 277.94304 120.646238 
L 278.30016 170.606756 
L 278.65728 163.71223 
L 279.0144 145.045036 
L 279.37152 138.775463 
L 279.72864 149.721355 
L 280.08576 167.559208 
L 280.44288 168.720838 
L 280.8 106.877673 
L 281.15712 144.321449 
L 281.51424 166.249477 
L 281.87136 160.417072 
L 282.5856 117.509323 
L 282.94272 165.514917 
L 283.29984 167.555015 
L 283.65696 174.495386 
L 284.01408 134.633023 
L 284.3712 122.577605 
L 284.72832 174.583533 
L 285.08544 202.112475 
L 285.79968 131.74038 
L 286.1568 130.991839 
L 286.51392 117.907321 
L 286.87104 137.963918 
L 287.22816 124.164546 
L 287.58528 179.734275 
L 287.9424 133.550704 
L 288.29952 173.16626 
L 288.65664 150.667703 
L 289.01376 168.708783 
L 289.37088 157.289406 
L 289.728 115.810425 
L 290.08512 168.336215 
L 290.44224 197.432824 
L 290.79936 159.395981 
L 291.15648 179.56627 
L 291.5136 157.291614 
L 291.87072 188.039038 
L 292.22784 145.787822 
L 292.58496 168.351256 
L 292.94208 152.002412 
L 293.2992 147.01778 
L 293.65632 232.827249 
L 294.01344 180.724708 
L 294.37056 167.066347 
L 294.72768 138.430345 
L 295.0848 154.654588 
L 295.44192 155.196928 
L 295.79904 218.335313 
L 296.51328 100.770849 
L 296.8704 179.721166 
L 297.22752 170.031033 
L 297.58464 139.45617 
L 297.94176 153.057787 
L 298.29888 142.732243 
L 298.656 128.52669 
L 299.01312 157.385463 
L 299.37024 151.351816 
L 299.72736 164.850622 
L 300.08448 171.445945 
L 300.4416 131.272215 
L 300.79872 165.07625 
L 301.15584 168.093343 
L 301.87008 153.004362 
L 302.2272 136.553445 
L 302.58432 188.29254 
L 302.94144 141.89663 
L 303.29856 136.325176 
L 303.65568 122.135676 
L 304.0128 120.114676 
L 304.36992 167.346334 
L 304.72704 149.400295 
L 305.08416 137.402307 
L 305.44128 188.690942 
L 305.7984 140.314731 
L 306.15552 195.227603 
L 306.51264 151.274304 
L 306.86976 175.228914 
L 307.22688 159.73559 
L 307.584 134.947616 
L 307.94112 118.92994 
L 308.29824 156.663712 
L 308.65536 152.79549 
L 309.01248 161.64502 
L 309.3696 139.178457 
L 309.72672 141.796535 
L 310.08384 151.009851 
L 310.79808 177.66032 
L 311.1552 160.759968 
L 311.51232 177.412618 
L 311.86944 163.111842 
L 312.22656 212.2585 
L 312.58368 129.67111 
L 313.29792 189.58527 
L 313.65504 143.710869 
L 314.01216 168.103961 
L 314.36928 116.001397 
L 314.7264 165.291386 
L 315.08352 163.022747 
L 315.44064 153.218429 
L 315.79776 170.185949 
L 316.15488 141.69464 
L 316.512 166.700811 
L 316.86912 109.475306 
L 317.22624 152.65935 
L 317.58336 151.245134 
L 318.65472 108.393593 
L 319.01184 146.086248 
L 319.36896 169.105276 
L 319.72608 212.811718 
L 320.44032 115.179641 
L 320.79744 158.952559 
L 321.15456 160.611093 
L 321.51168 141.345364 
L 321.8688 135.053871 
L 322.22592 177.725701 
L 322.58304 147.928716 
L 322.94016 137.405693 
L 323.29728 184.27946 
L 323.6544 198.616732 
L 324.01152 164.443536 
L 324.36864 196.378576 
L 324.72576 149.474194 
L 325.44 191.842503 
L 325.79712 126.729816 
L 326.15424 132.321194 
L 326.51136 171.461005 
L 326.86848 169.408225 
L 327.58272 130.313087 
L 327.93984 167.693572 
L 328.65408 137.38119 
L 329.0112 153.720924 
L 329.36832 142.516014 
L 329.72544 194.468051 
L 330.08256 136.208722 
L 330.43968 159.345998 
L 330.7968 157.316033 
L 331.15392 128.117279 
L 331.51104 139.513832 
L 331.86816 170.527711 
L 332.22528 170.674185 
L 332.5824 119.653085 
L 332.93952 118.955095 
L 333.29664 193.449819 
L 333.65376 172.05224 
L 334.01088 164.518493 
L 334.368 123.206542 
L 334.72512 146.442879 
L 335.08224 157.565558 
L 335.43936 154.268972 
L 336.1536 117.260583 
L 336.51072 147.168534 
L 336.86784 139.406963 
L 337.22496 137.463012 
L 337.58208 155.131375 
L 337.9392 123.401267 
L 338.29632 162.895818 
L 338.65344 103.147456 
L 339.01056 150.580247 
L 339.36768 126.658475 
L 339.7248 155.00564 
L 340.08192 166.108149 
L 340.43904 167.668448 
L 340.79616 110.244607 
L 341.15328 204.306909 
L 341.5104 127.405053 
L 341.86752 125.442997 
L 342.22464 182.771671 
L 342.58176 197.417888 
L 342.93888 183.415382 
L 343.296 117.54166 
L 343.65312 142.598061 
L 344.01024 143.819725 
L 344.36736 153.961677 
L 344.72448 140.677273 
L 345.0816 146.166414 
L 345.43872 149.40988 
L 345.79584 143.688638 
L 346.51008 167.062643 
L 346.8672 147.003961 
L 347.22432 134.44129 
L 347.58144 157.885072 
L 347.93856 166.926373 
L 348.29568 164.200035 
L 348.6528 157.408192 
L 349.00992 222.152905 
L 349.72416 149.963406 
L 350.08128 211.503354 
L 350.4384 141.314117 
L 350.79552 164.757719 
L 351.15264 156.446639 
L 351.50976 172.748882 
L 351.86688 177.32522 
L 352.224 126.485335 
L 352.58112 216.886413 
L 353.29536 110.934878 
L 353.65248 160.190137 
L 354.0096 158.121666 
L 354.36672 140.792365 
L 354.72384 184.029734 
L 355.08096 116.131989 
L 355.43808 163.937119 
L 355.7952 111.048533 
L 356.15232 134.724816 
L 356.50944 148.906366 
L 356.86656 149.79914 
L 357.22368 210.539479 
L 357.93792 154.854198 
L 358.29504 101.465495 
L 358.65216 192.273681 
L 359.00928 111.277895 
L 359.3664 151.483139 
L 359.72352 167.276316 
L 360.08064 206.493047 
L 360.43776 154.709622 
L 360.79488 168.052659 
L 361.152 174.468228 
L 361.50912 161.183168 
L 361.86624 113.064622 
L 362.22336 163.763288 
L 362.58048 97.465086 
L 362.9376 156.948819 
L 363.29472 138.56193 
L 363.65184 142.528157 
L 364.00896 163.844657 
L 364.36608 157.134751 
L 364.7232 161.965226 
L 365.08032 164.050658 
L 365.79456 156.053423 
L 366.15168 144.384349 
L 366.5088 136.622281 
L 366.86592 135.738047 
L 367.22304 177.02616 
L 367.58016 159.825901 
L 367.93728 122.477737 
L 368.2944 178.899244 
L 368.65152 210.229846 
L 369.00864 135.692892 
L 369.36576 122.592538 
L 369.72288 164.902497 
L 370.08 152.2356 
L 370.43712 102.495743 
L 370.79424 123.097443 
L 371.15136 176.708886 
L 371.50848 144.319647 
L 372.22272 177.337544 
L 372.57984 134.623777 
L 372.93696 184.384448 
L 373.29408 188.228209 
L 373.6512 102.270714 
L 374.00832 206.01444 
L 374.36544 92.605427 
L 374.72256 173.958298 
L 375.07968 133.133864 
L 375.4368 193.540677 
L 375.79392 217.739813 
L 376.15104 142.626493 
L 376.50816 163.102364 
L 376.86528 158.560636 
L 377.2224 120.69195 
L 377.57952 152.544568 
L 377.93664 171.877187 
L 378.29376 97.973417 
L 378.65088 101.127087 
L 379.008 195.591627 
L 379.36512 122.534318 
L 379.72224 176.135933 
L 380.07936 155.364098 
L 380.43648 168.164157 
L 380.7936 156.306812 
L 381.15072 177.251929 
L 381.50784 121.608803 
L 381.86496 122.688539 
L 382.22208 141.935775 
L 382.5792 146.374161 
L 382.93632 128.188305 
L 383.29344 250.356581 
L 383.65056 128.296272 
L 384.00768 219.992042 
L 384.3648 197.216731 
L 384.72192 129.592006 
L 385.07904 178.843583 
L 385.43616 151.587728 
L 385.79328 154.916438 
L 386.1504 144.00233 
L 386.50752 141.317018 
L 386.86464 152.180148 
L 387.22176 133.296295 
L 387.57888 182.361863 
L 387.936 153.918196 
L 388.29312 154.475283 
L 388.65024 115.07152 
L 389.00736 205.051434 
L 389.36448 164.037558 
L 390.07872 138.354837 
L 390.43584 188.425206 
L 390.79296 128.544094 
L 391.5072 180.528648 
L 391.86432 157.395007 
L 392.22144 156.538201 
L 392.57856 148.905358 
L 392.93568 174.166546 
L 393.64992 144.052001 
L 394.00704 135.915498 
L 394.36416 111.908867 
L 394.72128 147.074391 
L 395.0784 162.083883 
L 395.43552 149.600223 
L 395.79264 197.380925 
L 396.14976 123.01634 
L 396.50688 178.085742 
L 396.864 156.450469 
L 397.22112 194.381546 
L 397.57824 126.643134 
L 397.93536 150.277159 
L 398.29248 164.024419 
L 398.6496 220.634003 
L 399.00672 168.407608 
L 399.36384 141.712302 
L 399.72096 127.402394 
L 400.07808 175.202814 
L 400.4352 174.965414 
L 400.79232 170.089852 
L 401.14944 145.676765 
L 401.50656 188.424973 
L 401.86368 183.824644 
L 402.2208 144.603811 
L 402.57792 162.281572 
L 402.93504 153.45845 
L 403.29216 182.359303 
L 403.64928 110.011015 
L 404.0064 200.329166 
L 404.36352 156.392999 
L 404.72064 154.827398 
L 405.07776 145.262235 
L 405.43488 149.26778 
L 405.792 135.820505 
L 406.50624 182.66256 
L 406.86336 146.298826 
L 407.22048 166.457398 
L 407.5776 166.929797 
L 408.29184 149.065299 
L 408.64896 133.693475 
L 409.00608 182.956566 
L 409.3632 166.687772 
L 409.72032 128.586296 
L 410.07744 149.149471 
L 410.43456 186.29867 
L 410.79168 122.01691 
L 411.1488 139.382438 
L 411.50592 165.680272 
L 411.86304 167.941027 
L 412.22016 143.048319 
L 412.57728 145.969715 
L 412.9344 163.678117 
L 413.29152 154.157609 
L 413.64864 150.440712 
L 414.00576 112.976801 
L 414.36288 150.334165 
L 414.36288 150.334165 
" style="fill:none;stroke:#0000ff;stroke-linecap:square;stroke-width:1.5;"/>
   </g>
   <g id="patch_3">
    <path d="M 57.6 307.584 
L 57.6 41.472 
" style="fill:none;stroke:#000000;stroke-linecap:square;stroke-linejoin:miter;stroke-width:0.8;"/>
   </g>
   <g id="patch_4">
    <path d="M 414.72 307.584 
L 414.72 41.472 
" style="fill:none;stroke:#000000;stroke-linecap:square;stroke-linejoin:miter;stroke-width:0.8;"/>
   </g>
   <g id="patch_5">
    <path d="M 57.6 307.584 
L 414.72 307.584 
" style="fill:none;stroke:#000000;stroke-linecap:square;stroke-linejoin:miter;stroke-width:0.8;"/>
   </g>
   <g id="patch_6">
    <path d="M 57.6 41.472 
L 414.72 41.472 
" style="fill:none;stroke:#000000;stroke-linecap:square;stroke-linejoin:miter;stroke-width:0.8;"/>
   </g>
   <g id="legend_1">
    <g id="patch_7">
     <path d="M 282.321563 64.150125 
L 407.72 64.150125 
Q 409.72 64.150125 409.72 62.150125 
L 409.72 48.472 
Q 409.72 46.472 407.72 46.472 
L 282.321563 46.472 
Q 280.321563 46.472 280.321563 48.472 
L 280.321563 62.150125 
Q 280.321563 64.150125 282.321563 64.150125 
z
" style="fill:#ffffff;opacity:0.8;stroke:#cccccc;stroke-linejoin:miter;"/>
    </g>
    <g id="line2d_26">
     <path d="M 284.321563 54.570438 
L 304.321563 54.570438 
" style="fill:none;stroke:#0000ff;stroke-linecap:square;stroke-width:1.5;"/>
    </g>
    <g id="line2d_27"/>
    <g id="text_15">
     <!-- cumulative reward -->
     <g transform="translate(312.321563 58.070438)scale(0.1 -0.1)">
      <defs>
       <path d="M 3122 3366 
L 3122 2828 
Q 2878 2963 2633 3030 
Q 2388 3097 2138 3097 
Q 1578 3097 1268 2742 
Q 959 2388 959 1747 
Q 959 1106 1268 751 
Q 1578 397 2138 397 
Q 2388 397 2633 464 
Q 2878 531 3122 666 
L 3122 134 
Q 2881 22 2623 -34 
Q 2366 -91 2075 -91 
Q 1284 -91 818 406 
Q 353 903 353 1747 
Q 353 2603 823 3093 
Q 1294 3584 2113 3584 
Q 2378 3584 2631 3529 
Q 2884 3475 3122 3366 
z
" id="DejaVuSans-63" transform="scale(0.015625)"/>
      </defs>
      <use xlink:href="#DejaVuSans-63"/>
      <use x="54.980469" xlink:href="#DejaVuSans-75"/>
      <use x="118.359375" xlink:href="#DejaVuSans-6d"/>
      <use x="215.771484" xlink:href="#DejaVuSans-75"/>
      <use x="279.150391" xlink:href="#DejaVuSans-6c"/>
      <use x="306.933594" xlink:href="#DejaVuSans-61"/>
      <use x="368.212891" xlink:href="#DejaVuSans-74"/>
      <use x="407.421875" xlink:href="#DejaVuSans-69"/>
      <use x="435.205078" xlink:href="#DejaVuSans-76"/>
      <use x="494.384766" xlink:href="#DejaVuSans-65"/>
      <use x="555.908203" xlink:href="#DejaVuSans-20"/>
      <use x="587.695312" xlink:href="#DejaVuSans-72"/>
      <use x="626.558594" xlink:href="#DejaVuSans-65"/>
      <use x="688.082031" xlink:href="#DejaVuSans-77"/>
      <use x="769.869141" xlink:href="#DejaVuSans-61"/>
      <use x="831.148438" xlink:href="#DejaVuSans-72"/>
      <use x="870.511719" xlink:href="#DejaVuSans-64"/>
     </g>
    </g>
   </g>
  </g>
 </g>
 <defs>
  <clipPath id="p3b7b91df6a">
   <rect height="266.112" width="357.12" x="57.6" y="41.472"/>
  </clipPath>
 </defs>
</svg>
