<?xml version="1.0" encoding="utf-8" standalone="no"?>
<!DOCTYPE svg PUBLIC "-//W3C//DTD SVG 1.1//EN"
  "http://www.w3.org/Graphics/SVG/1.1/DTD/svg11.dtd">
<svg height="345.6pt" version="1.1" viewBox="0 0 460.8 345.6" width="460.8pt" xmlns="http://www.w3.org/2000/svg" xmlns:xlink="http://www.w3.org/1999/xlink">
 <metadata>
  <rdf:RDF xmlns:cc="http://creativecommons.org/ns#" xmlns:dc="http://purl.org/dc/elements/1.1/" xmlns:rdf="http://www.w3.org/1999/02/22-rdf-syntax-ns#">
   <cc:Work>
    <dc:type rdf:resource="http://purl.org/dc/dcmitype/StillImage"/>
    <dc:date>2021-10-27T13:37:11.673738</dc:date>
    <dc:description>{"agent.algorithm": "RayProximalPolicyOptimization", "agent.algorithm.render_env": false, "agent.algorithm.num_workers": 0, "agent.algorithm.batch_mode": "complete_episodes", "agent.algorithm.train_batch_size": 200, "agent.algorithm.optimizer": "Adam", "agent.algorithm.vf_clip_param": 50, "agent.algorithm.model": {"fcnet_activation": "tanh", "fcnet_hiddens": [50, 50]}, "env.env_class": "SchedulerPolicyRayEnvironment", "env.env_config": {"solver_driver": "CMAdriver", "solver_driver_args": [10, 10, 1, 1.63], "maximize": false, "steps": 50, "state_metrics_names": ["DifferenceOfBest", "SolverStateHistory", "SolverState"], "state_metrics_config": [[40, false, 1, true], [{"step_size": {"max": 3, "min": 0}}, 40], [{"ps": {"max": 10, "min": -10}}]], "reward_metric": "Best", "reward_metric_config": [false, false], "memes_no": 1, "action_space_config": {"step_size": {"max": 3, "min": 1e-10}}}}</dc:description>
    <dc:format>image/svg+xml</dc:format>
    <dc:creator>
     <cc:Agent>
      <dc:title>Matplotlib v3.4.3, https://matplotlib.org/</dc:title>
     </cc:Agent>
    </dc:creator>
   </cc:Work>
  </rdf:RDF>
 </metadata>
 <defs>
  <style type="text/css">*{stroke-linecap:butt;stroke-linejoin:round;}</style>
 </defs>
 <g id="figure_1">
  <g id="patch_1">
   <path d="M 0 345.6 
L 460.8 345.6 
L 460.8 0 
L 0 0 
z
" style="fill:#ffffff;"/>
  </g>
  <g id="axes_1">
   <g id="patch_2">
    <path d="M 57.6 307.584 
L 414.72 307.584 
L 414.72 41.472 
L 57.6 41.472 
z
" style="fill:#ffffff;"/>
   </g>
   <g id="matplotlib.axis_1">
    <g id="xtick_1">
     <g id="line2d_1">
      <path clip-path="url(#pfbf039acd1)" d="M 57.6 307.584 
L 57.6 41.472 
" style="fill:none;stroke:#b0b0b0;stroke-linecap:square;stroke-width:0.8;"/>
     </g>
     <g id="line2d_2">
      <defs>
       <path d="M 0 0 
L 0 3.5 
" id="m974a324474" style="stroke:#000000;stroke-width:0.8;"/>
      </defs>
      <g>
       <use style="stroke:#000000;stroke-width:0.8;" x="57.6" xlink:href="#m974a324474" y="307.584"/>
      </g>
     </g>
     <g id="text_1">
      <!-- 0 -->
      <g transform="translate(54.41875 322.182437)scale(0.1 -0.1)">
       <defs>
        <path d="M 2034 4250 
Q 1547 4250 1301 3770 
Q 1056 3291 1056 2328 
Q 1056 1369 1301 889 
Q 1547 409 2034 409 
Q 2525 409 2770 889 
Q 3016 1369 3016 2328 
Q 3016 3291 2770 3770 
Q 2525 4250 2034 4250 
z
M 2034 4750 
Q 2819 4750 3233 4129 
Q 3647 3509 3647 2328 
Q 3647 1150 3233 529 
Q 2819 -91 2034 -91 
Q 1250 -91 836 529 
Q 422 1150 422 2328 
Q 422 3509 836 4129 
Q 1250 4750 2034 4750 
z
" id="DejaVuSans-30" transform="scale(0.015625)"/>
       </defs>
       <use xlink:href="#DejaVuSans-30"/>
      </g>
     </g>
    </g>
    <g id="xtick_2">
     <g id="line2d_3">
      <path clip-path="url(#pfbf039acd1)" d="M 102.24 307.584 
L 102.24 41.472 
" style="fill:none;stroke:#b0b0b0;stroke-linecap:square;stroke-width:0.8;"/>
     </g>
     <g id="line2d_4">
      <g>
       <use style="stroke:#000000;stroke-width:0.8;" x="102.24" xlink:href="#m974a324474" y="307.584"/>
      </g>
     </g>
     <g id="text_2">
      <!-- 250 -->
      <g transform="translate(92.69625 322.182437)scale(0.1 -0.1)">
       <defs>
        <path d="M 1228 531 
L 3431 531 
L 3431 0 
L 469 0 
L 469 531 
Q 828 903 1448 1529 
Q 2069 2156 2228 2338 
Q 2531 2678 2651 2914 
Q 2772 3150 2772 3378 
Q 2772 3750 2511 3984 
Q 2250 4219 1831 4219 
Q 1534 4219 1204 4116 
Q 875 4013 500 3803 
L 500 4441 
Q 881 4594 1212 4672 
Q 1544 4750 1819 4750 
Q 2544 4750 2975 4387 
Q 3406 4025 3406 3419 
Q 3406 3131 3298 2873 
Q 3191 2616 2906 2266 
Q 2828 2175 2409 1742 
Q 1991 1309 1228 531 
z
" id="DejaVuSans-32" transform="scale(0.015625)"/>
        <path d="M 691 4666 
L 3169 4666 
L 3169 4134 
L 1269 4134 
L 1269 2991 
Q 1406 3038 1543 3061 
Q 1681 3084 1819 3084 
Q 2600 3084 3056 2656 
Q 3513 2228 3513 1497 
Q 3513 744 3044 326 
Q 2575 -91 1722 -91 
Q 1428 -91 1123 -41 
Q 819 9 494 109 
L 494 744 
Q 775 591 1075 516 
Q 1375 441 1709 441 
Q 2250 441 2565 725 
Q 2881 1009 2881 1497 
Q 2881 1984 2565 2268 
Q 2250 2553 1709 2553 
Q 1456 2553 1204 2497 
Q 953 2441 691 2322 
L 691 4666 
z
" id="DejaVuSans-35" transform="scale(0.015625)"/>
       </defs>
       <use xlink:href="#DejaVuSans-32"/>
       <use x="63.623047" xlink:href="#DejaVuSans-35"/>
       <use x="127.246094" xlink:href="#DejaVuSans-30"/>
      </g>
     </g>
    </g>
    <g id="xtick_3">
     <g id="line2d_5">
      <path clip-path="url(#pfbf039acd1)" d="M 146.88 307.584 
L 146.88 41.472 
" style="fill:none;stroke:#b0b0b0;stroke-linecap:square;stroke-width:0.8;"/>
     </g>
     <g id="line2d_6">
      <g>
       <use style="stroke:#000000;stroke-width:0.8;" x="146.88" xlink:href="#m974a324474" y="307.584"/>
      </g>
     </g>
     <g id="text_3">
      <!-- 500 -->
      <g transform="translate(137.33625 322.182437)scale(0.1 -0.1)">
       <use xlink:href="#DejaVuSans-35"/>
       <use x="63.623047" xlink:href="#DejaVuSans-30"/>
       <use x="127.246094" xlink:href="#DejaVuSans-30"/>
      </g>
     </g>
    </g>
    <g id="xtick_4">
     <g id="line2d_7">
      <path clip-path="url(#pfbf039acd1)" d="M 191.52 307.584 
L 191.52 41.472 
" style="fill:none;stroke:#b0b0b0;stroke-linecap:square;stroke-width:0.8;"/>
     </g>
     <g id="line2d_8">
      <g>
       <use style="stroke:#000000;stroke-width:0.8;" x="191.52" xlink:href="#m974a324474" y="307.584"/>
      </g>
     </g>
     <g id="text_4">
      <!-- 750 -->
      <g transform="translate(181.97625 322.182437)scale(0.1 -0.1)">
       <defs>
        <path d="M 525 4666 
L 3525 4666 
L 3525 4397 
L 1831 0 
L 1172 0 
L 2766 4134 
L 525 4134 
L 525 4666 
z
" id="DejaVuSans-37" transform="scale(0.015625)"/>
       </defs>
       <use xlink:href="#DejaVuSans-37"/>
       <use x="63.623047" xlink:href="#DejaVuSans-35"/>
       <use x="127.246094" xlink:href="#DejaVuSans-30"/>
      </g>
     </g>
    </g>
    <g id="xtick_5">
     <g id="line2d_9">
      <path clip-path="url(#pfbf039acd1)" d="M 236.16 307.584 
L 236.16 41.472 
" style="fill:none;stroke:#b0b0b0;stroke-linecap:square;stroke-width:0.8;"/>
     </g>
     <g id="line2d_10">
      <g>
       <use style="stroke:#000000;stroke-width:0.8;" x="236.16" xlink:href="#m974a324474" y="307.584"/>
      </g>
     </g>
     <g id="text_5">
      <!-- 1000 -->
      <g transform="translate(223.435 322.182437)scale(0.1 -0.1)">
       <defs>
        <path d="M 794 531 
L 1825 531 
L 1825 4091 
L 703 3866 
L 703 4441 
L 1819 4666 
L 2450 4666 
L 2450 531 
L 3481 531 
L 3481 0 
L 794 0 
L 794 531 
z
" id="DejaVuSans-31" transform="scale(0.015625)"/>
       </defs>
       <use xlink:href="#DejaVuSans-31"/>
       <use x="63.623047" xlink:href="#DejaVuSans-30"/>
       <use x="127.246094" xlink:href="#DejaVuSans-30"/>
       <use x="190.869141" xlink:href="#DejaVuSans-30"/>
      </g>
     </g>
    </g>
    <g id="xtick_6">
     <g id="line2d_11">
      <path clip-path="url(#pfbf039acd1)" d="M 280.8 307.584 
L 280.8 41.472 
" style="fill:none;stroke:#b0b0b0;stroke-linecap:square;stroke-width:0.8;"/>
     </g>
     <g id="line2d_12">
      <g>
       <use style="stroke:#000000;stroke-width:0.8;" x="280.8" xlink:href="#m974a324474" y="307.584"/>
      </g>
     </g>
     <g id="text_6">
      <!-- 1250 -->
      <g transform="translate(268.075 322.182437)scale(0.1 -0.1)">
       <use xlink:href="#DejaVuSans-31"/>
       <use x="63.623047" xlink:href="#DejaVuSans-32"/>
       <use x="127.246094" xlink:href="#DejaVuSans-35"/>
       <use x="190.869141" xlink:href="#DejaVuSans-30"/>
      </g>
     </g>
    </g>
    <g id="xtick_7">
     <g id="line2d_13">
      <path clip-path="url(#pfbf039acd1)" d="M 325.44 307.584 
L 325.44 41.472 
" style="fill:none;stroke:#b0b0b0;stroke-linecap:square;stroke-width:0.8;"/>
     </g>
     <g id="line2d_14">
      <g>
       <use style="stroke:#000000;stroke-width:0.8;" x="325.44" xlink:href="#m974a324474" y="307.584"/>
      </g>
     </g>
     <g id="text_7">
      <!-- 1500 -->
      <g transform="translate(312.715 322.182437)scale(0.1 -0.1)">
       <use xlink:href="#DejaVuSans-31"/>
       <use x="63.623047" xlink:href="#DejaVuSans-35"/>
       <use x="127.246094" xlink:href="#DejaVuSans-30"/>
       <use x="190.869141" xlink:href="#DejaVuSans-30"/>
      </g>
     </g>
    </g>
    <g id="xtick_8">
     <g id="line2d_15">
      <path clip-path="url(#pfbf039acd1)" d="M 370.08 307.584 
L 370.08 41.472 
" style="fill:none;stroke:#b0b0b0;stroke-linecap:square;stroke-width:0.8;"/>
     </g>
     <g id="line2d_16">
      <g>
       <use style="stroke:#000000;stroke-width:0.8;" x="370.08" xlink:href="#m974a324474" y="307.584"/>
      </g>
     </g>
     <g id="text_8">
      <!-- 1750 -->
      <g transform="translate(357.355 322.182437)scale(0.1 -0.1)">
       <use xlink:href="#DejaVuSans-31"/>
       <use x="63.623047" xlink:href="#DejaVuSans-37"/>
       <use x="127.246094" xlink:href="#DejaVuSans-35"/>
       <use x="190.869141" xlink:href="#DejaVuSans-30"/>
      </g>
     </g>
    </g>
    <g id="xtick_9">
     <g id="line2d_17">
      <path clip-path="url(#pfbf039acd1)" d="M 414.72 307.584 
L 414.72 41.472 
" style="fill:none;stroke:#b0b0b0;stroke-linecap:square;stroke-width:0.8;"/>
     </g>
     <g id="line2d_18">
      <g>
       <use style="stroke:#000000;stroke-width:0.8;" x="414.72" xlink:href="#m974a324474" y="307.584"/>
      </g>
     </g>
     <g id="text_9">
      <!-- 2000 -->
      <g transform="translate(401.995 322.182437)scale(0.1 -0.1)">
       <use xlink:href="#DejaVuSans-32"/>
       <use x="63.623047" xlink:href="#DejaVuSans-30"/>
       <use x="127.246094" xlink:href="#DejaVuSans-30"/>
       <use x="190.869141" xlink:href="#DejaVuSans-30"/>
      </g>
     </g>
    </g>
    <g id="text_10">
     <!-- Episodes -->
     <g transform="translate(213.917812 335.860562)scale(0.1 -0.1)">
      <defs>
       <path d="M 628 4666 
L 3578 4666 
L 3578 4134 
L 1259 4134 
L 1259 2753 
L 3481 2753 
L 3481 2222 
L 1259 2222 
L 1259 531 
L 3634 531 
L 3634 0 
L 628 0 
L 628 4666 
z
" id="DejaVuSans-45" transform="scale(0.015625)"/>
       <path d="M 1159 525 
L 1159 -1331 
L 581 -1331 
L 581 3500 
L 1159 3500 
L 1159 2969 
Q 1341 3281 1617 3432 
Q 1894 3584 2278 3584 
Q 2916 3584 3314 3078 
Q 3713 2572 3713 1747 
Q 3713 922 3314 415 
Q 2916 -91 2278 -91 
Q 1894 -91 1617 61 
Q 1341 213 1159 525 
z
M 3116 1747 
Q 3116 2381 2855 2742 
Q 2594 3103 2138 3103 
Q 1681 3103 1420 2742 
Q 1159 2381 1159 1747 
Q 1159 1113 1420 752 
Q 1681 391 2138 391 
Q 2594 391 2855 752 
Q 3116 1113 3116 1747 
z
" id="DejaVuSans-70" transform="scale(0.015625)"/>
       <path d="M 603 3500 
L 1178 3500 
L 1178 0 
L 603 0 
L 603 3500 
z
M 603 4863 
L 1178 4863 
L 1178 4134 
L 603 4134 
L 603 4863 
z
" id="DejaVuSans-69" transform="scale(0.015625)"/>
       <path d="M 2834 3397 
L 2834 2853 
Q 2591 2978 2328 3040 
Q 2066 3103 1784 3103 
Q 1356 3103 1142 2972 
Q 928 2841 928 2578 
Q 928 2378 1081 2264 
Q 1234 2150 1697 2047 
L 1894 2003 
Q 2506 1872 2764 1633 
Q 3022 1394 3022 966 
Q 3022 478 2636 193 
Q 2250 -91 1575 -91 
Q 1294 -91 989 -36 
Q 684 19 347 128 
L 347 722 
Q 666 556 975 473 
Q 1284 391 1588 391 
Q 1994 391 2212 530 
Q 2431 669 2431 922 
Q 2431 1156 2273 1281 
Q 2116 1406 1581 1522 
L 1381 1569 
Q 847 1681 609 1914 
Q 372 2147 372 2553 
Q 372 3047 722 3315 
Q 1072 3584 1716 3584 
Q 2034 3584 2315 3537 
Q 2597 3491 2834 3397 
z
" id="DejaVuSans-73" transform="scale(0.015625)"/>
       <path d="M 1959 3097 
Q 1497 3097 1228 2736 
Q 959 2375 959 1747 
Q 959 1119 1226 758 
Q 1494 397 1959 397 
Q 2419 397 2687 759 
Q 2956 1122 2956 1747 
Q 2956 2369 2687 2733 
Q 2419 3097 1959 3097 
z
M 1959 3584 
Q 2709 3584 3137 3096 
Q 3566 2609 3566 1747 
Q 3566 888 3137 398 
Q 2709 -91 1959 -91 
Q 1206 -91 779 398 
Q 353 888 353 1747 
Q 353 2609 779 3096 
Q 1206 3584 1959 3584 
z
" id="DejaVuSans-6f" transform="scale(0.015625)"/>
       <path d="M 2906 2969 
L 2906 4863 
L 3481 4863 
L 3481 0 
L 2906 0 
L 2906 525 
Q 2725 213 2448 61 
Q 2172 -91 1784 -91 
Q 1150 -91 751 415 
Q 353 922 353 1747 
Q 353 2572 751 3078 
Q 1150 3584 1784 3584 
Q 2172 3584 2448 3432 
Q 2725 3281 2906 2969 
z
M 947 1747 
Q 947 1113 1208 752 
Q 1469 391 1925 391 
Q 2381 391 2643 752 
Q 2906 1113 2906 1747 
Q 2906 2381 2643 2742 
Q 2381 3103 1925 3103 
Q 1469 3103 1208 2742 
Q 947 2381 947 1747 
z
" id="DejaVuSans-64" transform="scale(0.015625)"/>
       <path d="M 3597 1894 
L 3597 1613 
L 953 1613 
Q 991 1019 1311 708 
Q 1631 397 2203 397 
Q 2534 397 2845 478 
Q 3156 559 3463 722 
L 3463 178 
Q 3153 47 2828 -22 
Q 2503 -91 2169 -91 
Q 1331 -91 842 396 
Q 353 884 353 1716 
Q 353 2575 817 3079 
Q 1281 3584 2069 3584 
Q 2775 3584 3186 3129 
Q 3597 2675 3597 1894 
z
M 3022 2063 
Q 3016 2534 2758 2815 
Q 2500 3097 2075 3097 
Q 1594 3097 1305 2825 
Q 1016 2553 972 2059 
L 3022 2063 
z
" id="DejaVuSans-65" transform="scale(0.015625)"/>
      </defs>
      <use xlink:href="#DejaVuSans-45"/>
      <use x="63.183594" xlink:href="#DejaVuSans-70"/>
      <use x="126.660156" xlink:href="#DejaVuSans-69"/>
      <use x="154.443359" xlink:href="#DejaVuSans-73"/>
      <use x="206.542969" xlink:href="#DejaVuSans-6f"/>
      <use x="267.724609" xlink:href="#DejaVuSans-64"/>
      <use x="331.201172" xlink:href="#DejaVuSans-65"/>
      <use x="392.724609" xlink:href="#DejaVuSans-73"/>
     </g>
    </g>
   </g>
   <g id="matplotlib.axis_2">
    <g id="ytick_1">
     <g id="line2d_19">
      <path clip-path="url(#pfbf039acd1)" d="M 57.6 277.655191 
L 414.72 277.655191 
" style="fill:none;stroke:#b0b0b0;stroke-linecap:square;stroke-width:0.8;"/>
     </g>
     <g id="line2d_20">
      <defs>
       <path d="M 0 0 
L -3.5 0 
" id="ma2acb000a4" style="stroke:#000000;stroke-width:0.8;"/>
      </defs>
      <g>
       <use style="stroke:#000000;stroke-width:0.8;" x="57.6" xlink:href="#ma2acb000a4" y="277.655191"/>
      </g>
     </g>
     <g id="text_11">
      <!-- 3000 -->
      <g transform="translate(25.15 281.45441)scale(0.1 -0.1)">
       <defs>
        <path d="M 2597 2516 
Q 3050 2419 3304 2112 
Q 3559 1806 3559 1356 
Q 3559 666 3084 287 
Q 2609 -91 1734 -91 
Q 1441 -91 1130 -33 
Q 819 25 488 141 
L 488 750 
Q 750 597 1062 519 
Q 1375 441 1716 441 
Q 2309 441 2620 675 
Q 2931 909 2931 1356 
Q 2931 1769 2642 2001 
Q 2353 2234 1838 2234 
L 1294 2234 
L 1294 2753 
L 1863 2753 
Q 2328 2753 2575 2939 
Q 2822 3125 2822 3475 
Q 2822 3834 2567 4026 
Q 2313 4219 1838 4219 
Q 1578 4219 1281 4162 
Q 984 4106 628 3988 
L 628 4550 
Q 988 4650 1302 4700 
Q 1616 4750 1894 4750 
Q 2613 4750 3031 4423 
Q 3450 4097 3450 3541 
Q 3450 3153 3228 2886 
Q 3006 2619 2597 2516 
z
" id="DejaVuSans-33" transform="scale(0.015625)"/>
       </defs>
       <use xlink:href="#DejaVuSans-33"/>
       <use x="63.623047" xlink:href="#DejaVuSans-30"/>
       <use x="127.246094" xlink:href="#DejaVuSans-30"/>
       <use x="190.869141" xlink:href="#DejaVuSans-30"/>
      </g>
     </g>
    </g>
    <g id="ytick_2">
     <g id="line2d_21">
      <path clip-path="url(#pfbf039acd1)" d="M 57.6 235.347417 
L 414.72 235.347417 
" style="fill:none;stroke:#b0b0b0;stroke-linecap:square;stroke-width:0.8;"/>
     </g>
     <g id="line2d_22">
      <g>
       <use style="stroke:#000000;stroke-width:0.8;" x="57.6" xlink:href="#ma2acb000a4" y="235.347417"/>
      </g>
     </g>
     <g id="text_12">
      <!-- 3200 -->
      <g transform="translate(25.15 239.146636)scale(0.1 -0.1)">
       <use xlink:href="#DejaVuSans-33"/>
       <use x="63.623047" xlink:href="#DejaVuSans-32"/>
       <use x="127.246094" xlink:href="#DejaVuSans-30"/>
       <use x="190.869141" xlink:href="#DejaVuSans-30"/>
      </g>
     </g>
    </g>
    <g id="ytick_3">
     <g id="line2d_23">
      <path clip-path="url(#pfbf039acd1)" d="M 57.6 193.039643 
L 414.72 193.039643 
" style="fill:none;stroke:#b0b0b0;stroke-linecap:square;stroke-width:0.8;"/>
     </g>
     <g id="line2d_24">
      <g>
       <use style="stroke:#000000;stroke-width:0.8;" x="57.6" xlink:href="#ma2acb000a4" y="193.039643"/>
      </g>
     </g>
     <g id="text_13">
      <!-- 3400 -->
      <g transform="translate(25.15 196.838862)scale(0.1 -0.1)">
       <defs>
        <path d="M 2419 4116 
L 825 1625 
L 2419 1625 
L 2419 4116 
z
M 2253 4666 
L 3047 4666 
L 3047 1625 
L 3713 1625 
L 3713 1100 
L 3047 1100 
L 3047 0 
L 2419 0 
L 2419 1100 
L 313 1100 
L 313 1709 
L 2253 4666 
z
" id="DejaVuSans-34" transform="scale(0.015625)"/>
       </defs>
       <use xlink:href="#DejaVuSans-33"/>
       <use x="63.623047" xlink:href="#DejaVuSans-34"/>
       <use x="127.246094" xlink:href="#DejaVuSans-30"/>
       <use x="190.869141" xlink:href="#DejaVuSans-30"/>
      </g>
     </g>
    </g>
    <g id="ytick_4">
     <g id="line2d_25">
      <path clip-path="url(#pfbf039acd1)" d="M 57.6 150.731869 
L 414.72 150.731869 
" style="fill:none;stroke:#b0b0b0;stroke-linecap:square;stroke-width:0.8;"/>
     </g>
     <g id="line2d_26">
      <g>
       <use style="stroke:#000000;stroke-width:0.8;" x="57.6" xlink:href="#ma2acb000a4" y="150.731869"/>
      </g>
     </g>
     <g id="text_14">
      <!-- 3600 -->
      <g transform="translate(25.15 154.531088)scale(0.1 -0.1)">
       <defs>
        <path d="M 2113 2584 
Q 1688 2584 1439 2293 
Q 1191 2003 1191 1497 
Q 1191 994 1439 701 
Q 1688 409 2113 409 
Q 2538 409 2786 701 
Q 3034 994 3034 1497 
Q 3034 2003 2786 2293 
Q 2538 2584 2113 2584 
z
M 3366 4563 
L 3366 3988 
Q 3128 4100 2886 4159 
Q 2644 4219 2406 4219 
Q 1781 4219 1451 3797 
Q 1122 3375 1075 2522 
Q 1259 2794 1537 2939 
Q 1816 3084 2150 3084 
Q 2853 3084 3261 2657 
Q 3669 2231 3669 1497 
Q 3669 778 3244 343 
Q 2819 -91 2113 -91 
Q 1303 -91 875 529 
Q 447 1150 447 2328 
Q 447 3434 972 4092 
Q 1497 4750 2381 4750 
Q 2619 4750 2861 4703 
Q 3103 4656 3366 4563 
z
" id="DejaVuSans-36" transform="scale(0.015625)"/>
       </defs>
       <use xlink:href="#DejaVuSans-33"/>
       <use x="63.623047" xlink:href="#DejaVuSans-36"/>
       <use x="127.246094" xlink:href="#DejaVuSans-30"/>
       <use x="190.869141" xlink:href="#DejaVuSans-30"/>
      </g>
     </g>
    </g>
    <g id="ytick_5">
     <g id="line2d_27">
      <path clip-path="url(#pfbf039acd1)" d="M 57.6 108.424096 
L 414.72 108.424096 
" style="fill:none;stroke:#b0b0b0;stroke-linecap:square;stroke-width:0.8;"/>
     </g>
     <g id="line2d_28">
      <g>
       <use style="stroke:#000000;stroke-width:0.8;" x="57.6" xlink:href="#ma2acb000a4" y="108.424096"/>
      </g>
     </g>
     <g id="text_15">
      <!-- 3800 -->
      <g transform="translate(25.15 112.223314)scale(0.1 -0.1)">
       <defs>
        <path d="M 2034 2216 
Q 1584 2216 1326 1975 
Q 1069 1734 1069 1313 
Q 1069 891 1326 650 
Q 1584 409 2034 409 
Q 2484 409 2743 651 
Q 3003 894 3003 1313 
Q 3003 1734 2745 1975 
Q 2488 2216 2034 2216 
z
M 1403 2484 
Q 997 2584 770 2862 
Q 544 3141 544 3541 
Q 544 4100 942 4425 
Q 1341 4750 2034 4750 
Q 2731 4750 3128 4425 
Q 3525 4100 3525 3541 
Q 3525 3141 3298 2862 
Q 3072 2584 2669 2484 
Q 3125 2378 3379 2068 
Q 3634 1759 3634 1313 
Q 3634 634 3220 271 
Q 2806 -91 2034 -91 
Q 1263 -91 848 271 
Q 434 634 434 1313 
Q 434 1759 690 2068 
Q 947 2378 1403 2484 
z
M 1172 3481 
Q 1172 3119 1398 2916 
Q 1625 2713 2034 2713 
Q 2441 2713 2670 2916 
Q 2900 3119 2900 3481 
Q 2900 3844 2670 4047 
Q 2441 4250 2034 4250 
Q 1625 4250 1398 4047 
Q 1172 3844 1172 3481 
z
" id="DejaVuSans-38" transform="scale(0.015625)"/>
       </defs>
       <use xlink:href="#DejaVuSans-33"/>
       <use x="63.623047" xlink:href="#DejaVuSans-38"/>
       <use x="127.246094" xlink:href="#DejaVuSans-30"/>
       <use x="190.869141" xlink:href="#DejaVuSans-30"/>
      </g>
     </g>
    </g>
    <g id="ytick_6">
     <g id="line2d_29">
      <path clip-path="url(#pfbf039acd1)" d="M 57.6 66.116322 
L 414.72 66.116322 
" style="fill:none;stroke:#b0b0b0;stroke-linecap:square;stroke-width:0.8;"/>
     </g>
     <g id="line2d_30">
      <g>
       <use style="stroke:#000000;stroke-width:0.8;" x="57.6" xlink:href="#ma2acb000a4" y="66.116322"/>
      </g>
     </g>
     <g id="text_16">
      <!-- 4000 -->
      <g transform="translate(25.15 69.91554)scale(0.1 -0.1)">
       <use xlink:href="#DejaVuSans-34"/>
       <use x="63.623047" xlink:href="#DejaVuSans-30"/>
       <use x="127.246094" xlink:href="#DejaVuSans-30"/>
       <use x="190.869141" xlink:href="#DejaVuSans-30"/>
      </g>
     </g>
    </g>
    <g id="text_17">
     <!-- Cumulative Reward -->
     <g transform="translate(19.070312 223.275656)rotate(-90)scale(0.1 -0.1)">
      <defs>
       <path d="M 4122 4306 
L 4122 3641 
Q 3803 3938 3442 4084 
Q 3081 4231 2675 4231 
Q 1875 4231 1450 3742 
Q 1025 3253 1025 2328 
Q 1025 1406 1450 917 
Q 1875 428 2675 428 
Q 3081 428 3442 575 
Q 3803 722 4122 1019 
L 4122 359 
Q 3791 134 3420 21 
Q 3050 -91 2638 -91 
Q 1578 -91 968 557 
Q 359 1206 359 2328 
Q 359 3453 968 4101 
Q 1578 4750 2638 4750 
Q 3056 4750 3426 4639 
Q 3797 4528 4122 4306 
z
" id="DejaVuSans-43" transform="scale(0.015625)"/>
       <path d="M 544 1381 
L 544 3500 
L 1119 3500 
L 1119 1403 
Q 1119 906 1312 657 
Q 1506 409 1894 409 
Q 2359 409 2629 706 
Q 2900 1003 2900 1516 
L 2900 3500 
L 3475 3500 
L 3475 0 
L 2900 0 
L 2900 538 
Q 2691 219 2414 64 
Q 2138 -91 1772 -91 
Q 1169 -91 856 284 
Q 544 659 544 1381 
z
M 1991 3584 
L 1991 3584 
z
" id="DejaVuSans-75" transform="scale(0.015625)"/>
       <path d="M 3328 2828 
Q 3544 3216 3844 3400 
Q 4144 3584 4550 3584 
Q 5097 3584 5394 3201 
Q 5691 2819 5691 2113 
L 5691 0 
L 5113 0 
L 5113 2094 
Q 5113 2597 4934 2840 
Q 4756 3084 4391 3084 
Q 3944 3084 3684 2787 
Q 3425 2491 3425 1978 
L 3425 0 
L 2847 0 
L 2847 2094 
Q 2847 2600 2669 2842 
Q 2491 3084 2119 3084 
Q 1678 3084 1418 2786 
Q 1159 2488 1159 1978 
L 1159 0 
L 581 0 
L 581 3500 
L 1159 3500 
L 1159 2956 
Q 1356 3278 1631 3431 
Q 1906 3584 2284 3584 
Q 2666 3584 2933 3390 
Q 3200 3197 3328 2828 
z
" id="DejaVuSans-6d" transform="scale(0.015625)"/>
       <path d="M 603 4863 
L 1178 4863 
L 1178 0 
L 603 0 
L 603 4863 
z
" id="DejaVuSans-6c" transform="scale(0.015625)"/>
       <path d="M 2194 1759 
Q 1497 1759 1228 1600 
Q 959 1441 959 1056 
Q 959 750 1161 570 
Q 1363 391 1709 391 
Q 2188 391 2477 730 
Q 2766 1069 2766 1631 
L 2766 1759 
L 2194 1759 
z
M 3341 1997 
L 3341 0 
L 2766 0 
L 2766 531 
Q 2569 213 2275 61 
Q 1981 -91 1556 -91 
Q 1019 -91 701 211 
Q 384 513 384 1019 
Q 384 1609 779 1909 
Q 1175 2209 1959 2209 
L 2766 2209 
L 2766 2266 
Q 2766 2663 2505 2880 
Q 2244 3097 1772 3097 
Q 1472 3097 1187 3025 
Q 903 2953 641 2809 
L 641 3341 
Q 956 3463 1253 3523 
Q 1550 3584 1831 3584 
Q 2591 3584 2966 3190 
Q 3341 2797 3341 1997 
z
" id="DejaVuSans-61" transform="scale(0.015625)"/>
       <path d="M 1172 4494 
L 1172 3500 
L 2356 3500 
L 2356 3053 
L 1172 3053 
L 1172 1153 
Q 1172 725 1289 603 
Q 1406 481 1766 481 
L 2356 481 
L 2356 0 
L 1766 0 
Q 1100 0 847 248 
Q 594 497 594 1153 
L 594 3053 
L 172 3053 
L 172 3500 
L 594 3500 
L 594 4494 
L 1172 4494 
z
" id="DejaVuSans-74" transform="scale(0.015625)"/>
       <path d="M 191 3500 
L 800 3500 
L 1894 563 
L 2988 3500 
L 3597 3500 
L 2284 0 
L 1503 0 
L 191 3500 
z
" id="DejaVuSans-76" transform="scale(0.015625)"/>
       <path id="DejaVuSans-20" transform="scale(0.015625)"/>
       <path d="M 2841 2188 
Q 3044 2119 3236 1894 
Q 3428 1669 3622 1275 
L 4263 0 
L 3584 0 
L 2988 1197 
Q 2756 1666 2539 1819 
Q 2322 1972 1947 1972 
L 1259 1972 
L 1259 0 
L 628 0 
L 628 4666 
L 2053 4666 
Q 2853 4666 3247 4331 
Q 3641 3997 3641 3322 
Q 3641 2881 3436 2590 
Q 3231 2300 2841 2188 
z
M 1259 4147 
L 1259 2491 
L 2053 2491 
Q 2509 2491 2742 2702 
Q 2975 2913 2975 3322 
Q 2975 3731 2742 3939 
Q 2509 4147 2053 4147 
L 1259 4147 
z
" id="DejaVuSans-52" transform="scale(0.015625)"/>
       <path d="M 269 3500 
L 844 3500 
L 1563 769 
L 2278 3500 
L 2956 3500 
L 3675 769 
L 4391 3500 
L 4966 3500 
L 4050 0 
L 3372 0 
L 2619 2869 
L 1863 0 
L 1184 0 
L 269 3500 
z
" id="DejaVuSans-77" transform="scale(0.015625)"/>
       <path d="M 2631 2963 
Q 2534 3019 2420 3045 
Q 2306 3072 2169 3072 
Q 1681 3072 1420 2755 
Q 1159 2438 1159 1844 
L 1159 0 
L 581 0 
L 581 3500 
L 1159 3500 
L 1159 2956 
Q 1341 3275 1631 3429 
Q 1922 3584 2338 3584 
Q 2397 3584 2469 3576 
Q 2541 3569 2628 3553 
L 2631 2963 
z
" id="DejaVuSans-72" transform="scale(0.015625)"/>
      </defs>
      <use xlink:href="#DejaVuSans-43"/>
      <use x="69.824219" xlink:href="#DejaVuSans-75"/>
      <use x="133.203125" xlink:href="#DejaVuSans-6d"/>
      <use x="230.615234" xlink:href="#DejaVuSans-75"/>
      <use x="293.994141" xlink:href="#DejaVuSans-6c"/>
      <use x="321.777344" xlink:href="#DejaVuSans-61"/>
      <use x="383.056641" xlink:href="#DejaVuSans-74"/>
      <use x="422.265625" xlink:href="#DejaVuSans-69"/>
      <use x="450.048828" xlink:href="#DejaVuSans-76"/>
      <use x="509.228516" xlink:href="#DejaVuSans-65"/>
      <use x="570.751953" xlink:href="#DejaVuSans-20"/>
      <use x="602.539062" xlink:href="#DejaVuSans-52"/>
      <use x="667.521484" xlink:href="#DejaVuSans-65"/>
      <use x="729.044922" xlink:href="#DejaVuSans-77"/>
      <use x="810.832031" xlink:href="#DejaVuSans-61"/>
      <use x="872.111328" xlink:href="#DejaVuSans-72"/>
      <use x="911.474609" xlink:href="#DejaVuSans-64"/>
     </g>
    </g>
   </g>
   <g id="line2d_31">
    <path clip-path="url(#pfbf039acd1)" d="M 57.6 132.376934 
L 57.77856 140.452281 
L 57.95712 178.013463 
L 58.13568 102.224063 
L 58.31424 132.376934 
L 58.4928 140.452281 
L 58.67136 178.013463 
L 58.84992 102.224063 
L 59.02848 132.376934 
L 59.20704 140.452281 
L 59.3856 178.013463 
L 59.56416 102.224063 
L 59.74272 132.376934 
L 59.92128 140.452281 
L 60.09984 178.013463 
L 60.2784 102.224063 
L 60.45696 132.376934 
L 60.63552 140.452281 
L 60.81408 178.013463 
L 60.99264 102.224063 
L 61.1712 132.376934 
L 61.34976 140.452281 
L 61.52832 178.013463 
L 61.70688 102.224063 
L 61.88544 132.376934 
L 62.064 140.452281 
L 62.24256 178.013463 
L 62.42112 102.224063 
L 62.59968 132.376934 
L 62.77824 140.452281 
L 62.9568 178.013463 
L 63.13536 102.224063 
L 63.31392 132.376934 
L 63.49248 140.452281 
L 63.67104 178.013463 
L 63.8496 102.224063 
L 64.02816 132.376934 
L 64.20672 140.452281 
L 64.38528 178.013463 
L 64.56384 102.224063 
L 64.7424 132.376934 
L 64.92096 140.452281 
L 65.09952 178.013463 
L 65.27808 102.224063 
L 65.45664 132.376934 
L 65.6352 140.452281 
L 65.81376 178.013463 
L 65.99232 102.224063 
L 66.17088 132.376934 
L 66.34944 140.452281 
L 66.528 178.013463 
L 66.70656 102.224063 
L 66.88512 132.376934 
L 67.06368 140.452281 
L 67.24224 178.013463 
L 67.4208 102.224063 
L 67.59936 132.376934 
L 67.77792 140.452281 
L 67.95648 178.013463 
L 68.13504 102.224063 
L 68.3136 132.376934 
L 68.49216 140.452281 
L 68.67072 178.013463 
L 68.84928 102.224063 
L 69.02784 132.376934 
L 69.2064 140.452281 
L 69.38496 178.013463 
L 69.56352 102.224063 
L 69.74208 132.376934 
L 69.92064 140.452281 
L 70.0992 178.013463 
L 70.27776 102.224063 
L 70.45632 132.376934 
L 70.63488 140.452281 
L 70.81344 178.013463 
L 70.992 102.224063 
L 71.17056 132.376934 
L 71.34912 140.452281 
L 71.52768 178.013463 
L 71.70624 102.224063 
L 71.8848 132.376934 
L 72.06336 140.452281 
L 72.24192 178.013463 
L 72.42048 102.224063 
L 72.59904 132.376934 
L 72.7776 140.452281 
L 72.95616 178.013463 
L 73.13472 102.224063 
L 73.31328 132.376934 
L 73.49184 140.452281 
L 73.6704 178.013463 
L 73.84896 102.224063 
L 74.02752 132.376934 
L 74.20608 140.452281 
L 74.38464 178.013463 
L 74.5632 102.224063 
L 74.74176 132.376934 
L 74.92032 140.452281 
L 75.09888 178.013463 
L 75.27744 102.224063 
L 75.456 136.13372 
L 75.63456 115.022861 
L 75.81312 116.148647 
L 76.17024 194.726734 
L 76.3488 125.245654 
L 76.52736 233.319451 
L 76.70592 197.422141 
L 76.88448 130.556838 
L 77.06304 155.973299 
L 77.2416 126.790162 
L 77.59872 112.390233 
L 77.77728 174.127998 
L 77.95584 136.555458 
L 78.1344 184.518072 
L 78.31296 126.754687 
L 78.49152 144.528479 
L 78.67008 117.403189 
L 78.84864 171.423726 
L 79.0272 141.627607 
L 79.20576 201.129905 
L 79.38432 162.745961 
L 79.56288 186.803697 
L 79.92 110.538399 
L 80.09856 111.591118 
L 80.45568 150.051265 
L 80.63424 133.667934 
L 80.8128 77.580557 
L 80.99136 139.424378 
L 81.16992 144.576339 
L 81.34848 143.505205 
L 81.52704 151.911232 
L 81.7056 82.307376 
L 81.88416 139.025068 
L 82.24128 113.239866 
L 82.41984 158.421276 
L 82.5984 232.634763 
L 82.95552 101.925039 
L 83.31264 153.278251 
L 83.4912 123.64014 
L 83.66976 119.014254 
L 83.84832 160.204866 
L 84.02688 152.281242 
L 84.20544 130.970042 
L 84.384 181.024916 
L 84.56256 92.254062 
L 84.74112 83.627893 
L 84.91968 157.554348 
L 85.09824 123.885882 
L 85.2768 134.557057 
L 85.63392 114.32735 
L 85.81248 166.434961 
L 86.1696 81.705094 
L 86.34816 131.377018 
L 86.52672 115.715563 
L 86.70528 172.852701 
L 86.88384 168.434065 
L 87.0624 156.507605 
L 87.24096 177.87928 
L 87.41952 153.612416 
L 87.59808 97.548058 
L 87.77664 108.453655 
L 88.13376 102.463951 
L 88.31232 142.780286 
L 88.49088 132.331754 
L 88.66944 140.899203 
L 89.02656 63.648 
L 89.20512 106.815107 
L 89.38368 117.932288 
L 89.56224 158.948364 
L 89.7408 99.431675 
L 89.91936 135.111048 
L 90.09792 112.243546 
L 90.27648 105.878807 
L 90.45504 145.573038 
L 90.6336 84.869786 
L 90.99072 163.244544 
L 91.16928 113.708764 
L 91.34784 134.912021 
L 91.5264 130.390494 
L 91.70496 149.499831 
L 91.88352 151.382372 
L 92.06208 121.250426 
L 92.24064 139.945192 
L 92.4192 122.547263 
L 92.59776 154.980048 
L 92.77632 110.21294 
L 92.95488 212.033121 
L 93.13344 118.230154 
L 93.312 268.553612 
L 93.66912 107.38065 
L 93.84768 80.247841 
L 94.02624 110.500227 
L 94.2048 112.90793 
L 94.38336 139.447819 
L 94.74048 102.842639 
L 94.91904 143.076314 
L 95.0976 154.834843 
L 95.27616 149.62798 
L 95.45472 102.390889 
L 95.81184 164.245122 
L 95.9904 123.540426 
L 96.16896 133.388432 
L 96.34752 224.380202 
L 96.70464 128.968059 
L 96.8832 145.817191 
L 97.06176 178.333233 
L 97.24032 129.413211 
L 97.59744 186.113823 
L 97.776 186.268545 
L 97.95456 101.865245 
L 98.13312 175.647152 
L 98.31168 115.665797 
L 98.6688 171.600154 
L 98.84736 169.651398 
L 99.02592 241.676101 
L 99.20448 125.035871 
L 99.38304 207.715913 
L 99.5616 212.560335 
L 99.74016 193.736154 
L 100.09728 139.55897 
L 100.27584 144.483325 
L 100.63296 196.687674 
L 100.81152 125.704872 
L 100.99008 236.355114 
L 101.16864 181.697092 
L 101.3472 194.069852 
L 101.52576 133.966403 
L 101.88288 203.89956 
L 102.24 159.13812 
L 102.41856 285.408 
L 102.59712 182.549682 
L 102.77568 168.493272 
L 102.95424 257.357864 
L 103.1328 119.259061 
L 103.31136 187.593906 
L 103.66848 124.838662 
L 103.84704 162.170522 
L 104.0256 254.407399 
L 104.20416 129.195641 
L 104.56128 225.321098 
L 104.73984 154.402613 
L 104.9184 249.490638 
L 105.09696 192.531148 
L 105.27552 184.676696 
L 105.45408 185.912608 
L 105.63264 227.837249 
L 105.8112 172.626421 
L 105.98976 171.303153 
L 106.16832 114.198033 
L 106.34688 197.239667 
L 106.704 135.531452 
L 106.88256 203.238733 
L 107.06112 110.243751 
L 107.23968 219.819422 
L 107.41824 185.705703 
L 107.5968 259.568422 
L 107.95392 148.779685 
L 108.13248 181.992374 
L 108.31104 178.175526 
L 108.4896 141.773706 
L 108.66816 139.67095 
L 109.02528 208.141612 
L 109.20384 176.139791 
L 109.3824 224.915122 
L 109.56096 146.725189 
L 109.91808 179.713148 
L 110.09664 115.77764 
L 110.2752 200.44443 
L 110.45376 102.114855 
L 110.63232 182.459215 
L 110.81088 186.477906 
L 110.98944 127.90272 
L 111.168 159.36958 
L 111.34656 145.655812 
L 111.52512 189.299957 
L 111.70368 178.861674 
L 111.88224 134.004007 
L 112.0608 173.718329 
L 112.23936 147.862665 
L 112.41792 141.609523 
L 112.59648 159.998222 
L 112.77504 123.537485 
L 113.13216 157.507584 
L 113.31072 217.360297 
L 113.48928 172.002425 
L 113.66784 158.495766 
L 114.02496 150.915543 
L 114.20352 256.788772 
L 114.38208 141.901128 
L 114.56064 195.81652 
L 114.91776 129.541606 
L 115.09632 223.604364 
L 115.45344 114.857832 
L 115.81056 148.956744 
L 115.98912 83.52936 
L 116.16768 193.369371 
L 116.5248 130.518637 
L 116.70336 172.224054 
L 116.88192 140.039145 
L 117.06048 140.863733 
L 117.23904 100.754092 
L 117.59616 182.636618 
L 117.77472 138.936559 
L 117.95328 168.021804 
L 118.13184 126.481805 
L 118.3104 144.323325 
L 118.48896 141.621256 
L 118.66752 166.262033 
L 118.84608 157.726714 
L 119.02464 142.6083 
L 119.2032 203.629534 
L 119.73888 100.253271 
L 119.91744 160.795734 
L 120.096 75.825148 
L 120.27456 128.151304 
L 120.45312 122.57053 
L 120.63168 89.281373 
L 120.81024 162.343657 
L 120.9888 160.31007 
L 121.16736 127.292769 
L 121.34592 195.223874 
L 121.52448 130.34839 
L 121.8816 162.599624 
L 122.06016 142.121967 
L 122.23872 199.778126 
L 122.41728 172.840309 
L 122.59584 198.360547 
L 122.7744 187.449196 
L 122.95296 144.066737 
L 123.13152 172.571068 
L 123.6672 138.612102 
L 124.02432 164.198166 
L 124.20288 108.447787 
L 124.38144 105.418773 
L 124.56 135.196723 
L 124.73856 143.667206 
L 124.91712 205.168235 
L 125.09568 143.885498 
L 125.27424 141.900735 
L 125.4528 93.917367 
L 125.63136 144.906986 
L 125.80992 157.912902 
L 125.98848 162.341739 
L 126.16704 124.772985 
L 126.3456 199.081996 
L 126.52416 145.926283 
L 126.70272 162.940504 
L 126.88128 146.470116 
L 127.05984 168.556474 
L 127.2384 105.070181 
L 127.41696 145.715934 
L 127.59552 156.320344 
L 127.77408 133.984852 
L 128.1312 178.273845 
L 128.30976 158.116308 
L 128.48832 118.768902 
L 128.66688 168.300342 
L 128.84544 157.159658 
L 129.024 111.877992 
L 129.20256 121.239867 
L 129.38112 174.954068 
L 129.55968 121.999509 
L 129.73824 117.295888 
L 130.09536 153.488449 
L 130.27392 112.197322 
L 130.45248 142.396618 
L 130.63104 138.853759 
L 130.8096 130.854858 
L 130.98816 150.232911 
L 131.16672 130.498152 
L 131.34528 178.35815 
L 131.52384 143.425894 
L 131.7024 167.305278 
L 131.88096 128.078458 
L 132.05952 127.077251 
L 132.23808 173.463205 
L 132.41664 118.379056 
L 132.5952 140.63371 
L 132.77376 107.123994 
L 132.95232 113.439337 
L 133.13088 199.662873 
L 133.30944 72.152274 
L 133.488 151.586124 
L 133.66656 115.890081 
L 133.84512 123.852057 
L 134.02368 119.199898 
L 134.20224 151.237019 
L 134.3808 154.646743 
L 134.55936 82.922414 
L 134.73792 97.446543 
L 134.91648 164.249176 
L 135.2736 118.341687 
L 135.45216 136.136936 
L 135.63072 118.800406 
L 135.98784 145.41789 
L 136.1664 89.631494 
L 136.34496 139.261052 
L 136.52352 100.412041 
L 136.88064 149.929722 
L 137.0592 143.722716 
L 137.23776 131.11098 
L 137.41632 103.919474 
L 137.59488 126.11366 
L 137.77344 129.360687 
L 137.952 150.886425 
L 138.30912 94.600592 
L 138.48768 176.981975 
L 138.66624 98.833962 
L 138.8448 178.530939 
L 139.02336 96.279356 
L 139.20192 117.488391 
L 139.38048 161.274679 
L 139.55904 121.950613 
L 139.7376 172.019664 
L 139.91616 148.262617 
L 140.09472 154.841404 
L 140.27328 143.844938 
L 140.45184 115.97009 
L 140.6304 119.31249 
L 140.80896 137.983526 
L 140.98752 110.567956 
L 141.16608 162.379288 
L 141.5232 127.270485 
L 141.70176 162.831556 
L 141.88032 117.447588 
L 142.23744 100.322513 
L 142.416 140.255239 
L 142.59456 154.739362 
L 142.95168 89.262522 
L 143.13024 125.888139 
L 143.3088 100.567703 
L 143.48736 119.0576 
L 143.66592 152.033512 
L 143.84448 153.01069 
L 144.02304 110.531699 
L 144.2016 174.942244 
L 144.38016 114.30886 
L 144.55872 195.948697 
L 144.73728 96.046705 
L 145.0944 157.071468 
L 145.27296 128.767649 
L 145.45152 139.508135 
L 145.63008 105.370041 
L 145.80864 116.927981 
L 146.16576 161.908563 
L 146.34432 149.482126 
L 146.52288 168.09701 
L 146.70144 131.535157 
L 147.05856 106.529607 
L 147.23712 118.013282 
L 147.41568 102.511588 
L 147.59424 152.753923 
L 147.7728 115.521414 
L 147.95136 166.163572 
L 148.30848 143.145813 
L 148.48704 172.86678 
L 148.6656 140.197527 
L 148.84416 138.645254 
L 149.02272 186.535771 
L 149.20128 164.577569 
L 149.37984 127.565911 
L 149.5584 165.779864 
L 149.73696 121.355199 
L 150.09408 108.2468 
L 150.27264 108.138378 
L 150.62976 103.137677 
L 150.80832 140.43078 
L 151.16544 96.594459 
L 151.344 151.867405 
L 151.52256 141.586523 
L 151.70112 165.709118 
L 151.87968 150.413738 
L 152.05824 117.822145 
L 152.2368 152.70591 
L 152.41536 127.376862 
L 152.59392 170.388684 
L 152.77248 114.115261 
L 152.95104 129.336059 
L 153.1296 170.629815 
L 153.30816 123.035616 
L 153.48672 141.015914 
L 153.66528 139.091987 
L 153.84384 177.558042 
L 154.20096 142.52699 
L 154.37952 156.044166 
L 154.55808 138.63657 
L 154.73664 177.86335 
L 154.9152 179.643921 
L 155.09376 175.864091 
L 155.27232 115.335592 
L 155.45088 161.701165 
L 155.62944 97.989544 
L 155.808 158.903939 
L 156.16512 199.48183 
L 156.52224 81.238135 
L 156.7008 154.577208 
L 156.87936 124.537092 
L 157.05792 154.701681 
L 157.23648 133.148265 
L 157.5936 149.185551 
L 157.77216 135.438769 
L 157.95072 146.55035 
L 158.12928 140.310845 
L 158.30784 182.136044 
L 158.4864 117.535224 
L 158.66496 118.505164 
L 158.84352 149.406903 
L 159.02208 145.751918 
L 159.20064 166.076697 
L 159.3792 105.491493 
L 159.55776 177.481585 
L 159.73632 194.398784 
L 160.09344 110.91693 
L 160.272 195.716244 
L 160.45056 102.392828 
L 160.62912 138.805187 
L 160.80768 125.004252 
L 160.98624 136.716816 
L 161.1648 208.259616 
L 161.34336 136.858822 
L 161.52192 148.125747 
L 161.70048 146.161972 
L 161.87904 142.457753 
L 162.0576 113.400935 
L 162.23616 136.739781 
L 162.41472 135.753138 
L 162.77184 180.773244 
L 162.9504 179.139883 
L 163.12896 181.937652 
L 163.48608 112.072252 
L 163.66464 216.980167 
L 163.8432 136.344041 
L 164.02176 136.566076 
L 164.20032 158.386394 
L 164.37888 144.585323 
L 164.55744 143.149581 
L 164.736 157.642738 
L 164.91456 122.376672 
L 165.09312 149.812691 
L 165.45024 102.303606 
L 165.80736 177.538272 
L 165.98592 138.613482 
L 166.16448 145.132579 
L 166.34304 155.856791 
L 166.5216 119.529848 
L 166.87872 201.589973 
L 167.05728 156.309665 
L 167.23584 145.251618 
L 167.4144 148.838042 
L 167.59296 172.096631 
L 167.77152 120.646238 
L 167.95008 170.606756 
L 168.12864 163.71223 
L 168.3072 145.045036 
L 168.48576 138.775463 
L 168.66432 149.721355 
L 168.84288 167.559208 
L 169.02144 168.720838 
L 169.2 106.877673 
L 169.55712 166.249477 
L 169.73568 160.417072 
L 170.0928 117.509323 
L 170.27136 165.514917 
L 170.44992 167.555015 
L 170.62848 174.495386 
L 170.80704 134.633023 
L 170.9856 122.577605 
L 171.34272 202.112475 
L 171.69984 131.74038 
L 171.8784 130.991839 
L 172.05696 117.907321 
L 172.23552 137.963918 
L 172.41408 124.164546 
L 172.59264 179.734275 
L 172.7712 133.550704 
L 172.94976 173.16626 
L 173.12832 150.667703 
L 173.30688 168.708783 
L 173.48544 157.289406 
L 173.664 115.810425 
L 174.02112 197.432824 
L 174.19968 159.395981 
L 174.37824 179.56627 
L 174.5568 157.291614 
L 174.73536 188.039038 
L 174.91392 145.787822 
L 175.09248 168.351256 
L 175.27104 152.002412 
L 175.4496 147.01778 
L 175.62816 232.827249 
L 175.80672 180.724708 
L 175.98528 167.066347 
L 176.16384 138.430345 
L 176.3424 154.654588 
L 176.52096 155.196928 
L 176.69952 218.335313 
L 177.05664 100.770849 
L 177.2352 179.721166 
L 177.41376 170.031033 
L 177.59232 139.45617 
L 177.77088 153.057787 
L 178.128 128.52669 
L 178.30656 157.385463 
L 178.48512 151.351816 
L 178.84224 171.445945 
L 179.0208 131.272215 
L 179.19936 165.07625 
L 179.37792 168.093343 
L 179.73504 153.004362 
L 179.9136 136.553445 
L 180.09216 188.29254 
L 180.27072 141.89663 
L 180.44928 136.325176 
L 180.62784 122.135676 
L 180.8064 120.114676 
L 180.98496 167.346334 
L 181.34208 137.402307 
L 181.52064 188.690942 
L 181.6992 140.314731 
L 181.87776 195.227603 
L 182.05632 151.274304 
L 182.23488 175.228914 
L 182.592 134.947616 
L 182.77056 118.92994 
L 182.94912 156.663712 
L 183.12768 152.79549 
L 183.30624 161.64502 
L 183.4848 139.178457 
L 183.66336 141.796535 
L 184.02048 163.658579 
L 184.19904 177.66032 
L 184.3776 160.759968 
L 184.55616 177.412618 
L 184.73472 163.111842 
L 184.91328 212.2585 
L 185.09184 129.67111 
L 185.44896 189.58527 
L 185.62752 143.710869 
L 185.80608 168.103961 
L 185.98464 116.001397 
L 186.1632 165.291386 
L 186.34176 163.022747 
L 186.52032 153.218429 
L 186.69888 170.185949 
L 186.87744 141.69464 
L 187.056 166.700811 
L 187.23456 109.475306 
L 187.41312 152.65935 
L 187.59168 151.245134 
L 188.12736 108.393593 
L 188.66304 212.811718 
L 189.02016 115.179641 
L 189.19872 158.952559 
L 189.37728 160.611093 
L 189.55584 141.345364 
L 189.7344 135.053871 
L 189.91296 177.725701 
L 190.09152 147.928716 
L 190.27008 137.405693 
L 190.44864 184.27946 
L 190.6272 198.616732 
L 190.80576 164.443536 
L 190.98432 196.378576 
L 191.16288 149.474194 
L 191.52 191.842503 
L 191.69856 126.729816 
L 191.87712 132.321194 
L 192.05568 171.461005 
L 192.23424 169.408225 
L 192.59136 130.313087 
L 192.76992 167.693572 
L 193.12704 137.38119 
L 193.3056 153.720924 
L 193.48416 142.516014 
L 193.66272 194.468051 
L 193.84128 136.208722 
L 194.01984 159.345998 
L 194.1984 157.316033 
L 194.37696 128.117279 
L 194.55552 139.513832 
L 194.73408 170.527711 
L 194.91264 170.674185 
L 195.0912 119.653085 
L 195.26976 118.955095 
L 195.44832 193.449819 
L 195.62688 172.05224 
L 195.80544 164.518493 
L 195.984 123.206542 
L 196.34112 157.565558 
L 196.51968 154.268972 
L 196.8768 117.260583 
L 197.05536 147.168534 
L 197.23392 139.406963 
L 197.41248 137.463012 
L 197.59104 155.131375 
L 197.7696 123.401267 
L 197.94816 162.895818 
L 198.12672 103.147456 
L 198.30528 150.580247 
L 198.48384 126.658475 
L 198.84096 166.108149 
L 199.01952 167.668448 
L 199.19808 110.244607 
L 199.37664 204.306909 
L 199.5552 127.405053 
L 199.73376 125.442997 
L 199.91232 182.771671 
L 200.09088 197.417888 
L 200.26944 183.415382 
L 200.448 117.54166 
L 200.62656 142.598061 
L 200.80512 143.819725 
L 200.98368 153.961677 
L 201.16224 140.677273 
L 201.51936 149.40988 
L 201.69792 143.688638 
L 202.05504 167.062643 
L 202.41216 134.44129 
L 202.76928 166.926373 
L 202.94784 164.200035 
L 203.1264 157.408192 
L 203.30496 222.152905 
L 203.66208 149.963406 
L 203.84064 211.503354 
L 204.0192 141.314117 
L 204.19776 164.757719 
L 204.37632 156.446639 
L 204.55488 172.748882 
L 204.73344 177.32522 
L 204.912 126.485335 
L 205.09056 216.886413 
L 205.44768 110.934878 
L 205.62624 160.190137 
L 205.8048 158.121666 
L 205.98336 140.792365 
L 206.16192 184.029734 
L 206.34048 116.131989 
L 206.51904 163.937119 
L 206.6976 111.048533 
L 207.05472 148.906366 
L 207.23328 149.79914 
L 207.41184 210.539479 
L 207.94752 101.465495 
L 208.12608 192.273681 
L 208.30464 111.277895 
L 208.66176 167.276316 
L 208.84032 206.493047 
L 209.01888 154.709622 
L 209.376 174.468228 
L 209.55456 161.183168 
L 209.73312 113.064622 
L 209.91168 163.763288 
L 210.09024 97.465086 
L 210.2688 156.948819 
L 210.44736 138.56193 
L 210.62592 142.528157 
L 210.80448 163.844657 
L 210.98304 157.134751 
L 211.34016 164.050658 
L 211.69728 156.053423 
L 212.0544 136.622281 
L 212.23296 135.738047 
L 212.41152 177.02616 
L 212.59008 159.825901 
L 212.76864 122.477737 
L 213.12576 210.229846 
L 213.30432 135.692892 
L 213.48288 122.592538 
L 213.66144 164.902497 
L 213.84 152.2356 
L 214.01856 102.495743 
L 214.19712 123.097443 
L 214.37568 176.708886 
L 214.55424 144.319647 
L 214.91136 177.337544 
L 215.08992 134.623777 
L 215.26848 184.384448 
L 215.44704 188.228209 
L 215.6256 102.270714 
L 215.80416 206.01444 
L 215.98272 92.605427 
L 216.16128 173.958298 
L 216.33984 133.133864 
L 216.69696 217.739813 
L 216.87552 142.626493 
L 217.05408 163.102364 
L 217.23264 158.560636 
L 217.4112 120.69195 
L 217.76832 171.877187 
L 217.94688 97.973417 
L 218.12544 101.127087 
L 218.304 195.591627 
L 218.48256 122.534318 
L 218.66112 176.135933 
L 218.83968 155.364098 
L 219.01824 168.164157 
L 219.1968 156.306812 
L 219.37536 177.251929 
L 219.55392 121.608803 
L 219.73248 122.688539 
L 219.91104 141.935775 
L 220.0896 146.374161 
L 220.26816 128.188305 
L 220.44672 250.356581 
L 220.62528 128.296272 
L 220.80384 219.992042 
L 220.9824 197.216731 
L 221.16096 129.592006 
L 221.33952 178.843583 
L 221.51808 151.587728 
L 221.69664 154.916438 
L 221.8752 144.00233 
L 222.05376 141.317018 
L 222.23232 152.180148 
L 222.41088 133.296295 
L 222.58944 182.361863 
L 222.768 153.918196 
L 222.94656 154.475283 
L 223.12512 115.07152 
L 223.30368 205.051434 
L 223.48224 164.037558 
L 223.83936 138.354837 
L 224.01792 188.425206 
L 224.19648 128.544094 
L 224.5536 180.528648 
L 224.73216 157.395007 
L 224.91072 156.538201 
L 225.08928 148.905358 
L 225.26784 174.166546 
L 225.98208 111.908867 
L 226.3392 162.083883 
L 226.51776 149.600223 
L 226.69632 197.380925 
L 226.87488 123.01634 
L 227.05344 178.085742 
L 227.232 156.450469 
L 227.41056 194.381546 
L 227.58912 126.643134 
L 227.94624 164.024419 
L 228.1248 220.634003 
L 228.48192 141.712302 
L 228.66048 127.402394 
L 228.83904 175.202814 
L 229.0176 174.965414 
L 229.19616 170.089852 
L 229.37472 145.676765 
L 229.55328 188.424973 
L 229.73184 183.824644 
L 229.9104 144.603811 
L 230.08896 162.281572 
L 230.26752 153.45845 
L 230.44608 182.359303 
L 230.62464 110.011015 
L 230.8032 200.329166 
L 230.98176 156.392999 
L 231.16032 154.827398 
L 231.33888 145.262235 
L 231.51744 149.26778 
L 231.696 135.820505 
L 232.05312 182.66256 
L 232.23168 146.298826 
L 232.41024 166.457398 
L 232.5888 166.929797 
L 233.12448 133.693475 
L 233.30304 182.956566 
L 233.4816 166.687772 
L 233.66016 128.586296 
L 233.83872 149.149471 
L 234.01728 186.29867 
L 234.19584 122.01691 
L 234.73152 167.941027 
L 234.91008 143.048319 
L 235.08864 145.969715 
L 235.2672 163.678117 
L 235.62432 150.440712 
L 235.80288 112.976801 
L 236.16 175.633572 
L 236.33856 151.707495 
L 236.51712 193.700084 
L 236.69568 167.508965 
L 236.87424 196.021228 
L 237.0528 159.595726 
L 237.23136 146.673672 
L 237.40992 209.834751 
L 237.58848 123.801396 
L 237.76704 148.389504 
L 237.9456 145.148173 
L 238.12416 129.37573 
L 238.30272 154.21851 
L 238.48128 127.209034 
L 238.65984 141.681337 
L 239.01696 130.010554 
L 239.19552 186.11822 
L 239.37408 171.937716 
L 239.7312 100.425181 
L 239.90976 172.000775 
L 240.08832 125.922215 
L 240.44544 224.731304 
L 240.624 136.164093 
L 240.80256 156.798344 
L 240.98112 147.311206 
L 241.15968 184.876693 
L 241.69536 127.140873 
L 241.87392 110.428576 
L 242.23104 166.404198 
L 242.4096 165.31904 
L 242.58816 163.998321 
L 242.76672 164.493347 
L 242.94528 142.907239 
L 243.12384 182.003561 
L 243.3024 122.401833 
L 243.48096 154.374282 
L 243.65952 165.237141 
L 243.83808 143.600114 
L 244.01664 148.492279 
L 244.1952 160.089746 
L 244.37376 194.071932 
L 244.55232 117.855624 
L 244.73088 158.141007 
L 244.90944 117.36812 
L 245.088 192.66337 
L 245.26656 104.784826 
L 245.62368 145.097167 
L 245.80224 253.640842 
L 245.9808 127.900725 
L 246.15936 152.472493 
L 246.33792 144.772149 
L 246.69504 148.274403 
L 246.8736 155.750191 
L 247.05216 146.883477 
L 247.23072 209.251529 
L 247.40928 190.522425 
L 247.7664 118.419627 
L 247.94496 134.900049 
L 248.12352 133.842937 
L 248.30208 140.112956 
L 248.48064 140.961355 
L 248.6592 183.576467 
L 248.83776 188.01432 
L 249.01632 148.532672 
L 249.19488 188.56778 
L 249.37344 125.755963 
L 249.552 186.427189 
L 249.73056 119.507452 
L 249.90912 131.061123 
L 250.08768 171.166794 
L 250.26624 126.53375 
L 250.4448 120.832559 
L 250.62336 153.162183 
L 251.15904 178.397785 
L 251.51616 139.857215 
L 251.87328 186.209779 
L 252.05184 150.538658 
L 252.2304 189.180807 
L 252.40896 176.733643 
L 252.58752 132.069897 
L 253.1232 173.121964 
L 253.30176 134.70294 
L 253.48032 156.600529 
L 253.65888 122.289547 
L 253.83744 146.031705 
L 254.016 152.000037 
L 254.37312 121.022197 
L 254.73024 172.843914 
L 255.08736 142.706644 
L 255.26592 139.753198 
L 255.62304 113.090855 
L 255.8016 154.33489 
L 255.98016 102.757663 
L 256.15872 138.401135 
L 256.33728 148.241691 
L 256.51584 170.531705 
L 256.6944 165.948444 
L 256.87296 213.997833 
L 257.05152 151.048586 
L 257.23008 169.46749 
L 257.40864 146.00655 
L 257.5872 148.575594 
L 257.76576 169.448129 
L 257.94432 172.052566 
L 258.12288 149.208281 
L 258.30144 107.426501 
L 258.48 172.783539 
L 258.65856 175.697105 
L 258.83712 156.302021 
L 259.01568 187.050417 
L 259.19424 132.18964 
L 259.3728 137.392005 
L 259.55136 174.719509 
L 259.90848 134.900868 
L 260.08704 135.778278 
L 260.2656 101.503775 
L 260.44416 181.470736 
L 260.62272 142.847666 
L 260.80128 177.190525 
L 260.97984 121.591933 
L 261.1584 163.313654 
L 261.33696 161.158423 
L 261.69408 135.687198 
L 261.87264 171.890583 
L 262.0512 125.404727 
L 262.22976 123.589392 
L 262.40832 116.743051 
L 262.58688 162.355838 
L 262.76544 148.428627 
L 262.944 96.645286 
L 263.12256 154.831855 
L 263.30112 175.511412 
L 263.47968 144.112443 
L 263.65824 215.012823 
L 263.8368 136.052098 
L 264.01536 138.809318 
L 264.19392 205.968799 
L 264.37248 141.917272 
L 264.55104 126.966055 
L 264.7296 163.700449 
L 264.90816 138.46723 
L 265.08672 139.540401 
L 265.26528 132.519337 
L 265.44384 164.018963 
L 265.6224 223.855346 
L 265.80096 136.967738 
L 266.15808 192.688288 
L 266.69376 144.877655 
L 266.87232 196.420045 
L 267.05088 134.994507 
L 267.408 155.27596 
L 267.58656 149.090378 
L 267.76512 197.070618 
L 267.94368 134.613872 
L 268.12224 142.851675 
L 268.3008 140.602641 
L 268.47936 147.99543 
L 268.83648 109.202941 
L 269.01504 140.966055 
L 269.1936 212.314246 
L 269.55072 145.890279 
L 269.72928 140.408549 
L 269.90784 183.191862 
L 270.0864 121.853259 
L 270.44352 118.17023 
L 270.62208 134.60509 
L 270.80064 107.54789 
L 270.9792 182.40727 
L 271.15776 117.408804 
L 271.33632 137.845288 
L 271.51488 143.785481 
L 271.69344 100.712685 
L 271.872 140.381602 
L 272.05056 141.622631 
L 272.22912 180.672033 
L 272.40768 113.780856 
L 272.58624 134.491484 
L 272.94336 218.91206 
L 273.12192 151.737769 
L 273.30048 135.272062 
L 273.47904 148.870798 
L 273.6576 149.131254 
L 273.83616 145.185723 
L 274.01472 109.949475 
L 274.19328 143.367999 
L 274.37184 128.970566 
L 274.5504 145.716149 
L 274.72896 116.552729 
L 275.26464 153.386578 
L 275.4432 114.262095 
L 275.80032 184.076765 
L 275.97888 132.471196 
L 276.15744 205.058357 
L 276.51456 105.668096 
L 276.87168 155.088312 
L 277.05024 128.577314 
L 277.2288 170.217637 
L 277.58592 145.274913 
L 277.76448 157.766613 
L 277.94304 154.938148 
L 278.1216 180.738429 
L 278.30016 136.525495 
L 278.47872 121.724456 
L 278.65728 138.938185 
L 278.83584 119.632847 
L 279.0144 181.518059 
L 279.37152 157.303871 
L 279.55008 224.112677 
L 279.72864 139.030238 
L 279.9072 153.788239 
L 280.08576 140.585236 
L 280.26432 188.3533 
L 280.44288 176.962935 
L 280.62144 155.796747 
L 280.8 157.09349 
L 280.97856 150.306709 
L 281.15712 121.33573 
L 281.33568 138.346109 
L 281.6928 131.985325 
L 281.87136 132.574145 
L 282.04992 147.31356 
L 282.22848 181.740405 
L 282.40704 173.203692 
L 282.5856 174.726757 
L 282.76416 138.063958 
L 282.94272 158.582538 
L 283.12128 109.538364 
L 283.29984 155.731769 
L 283.4784 154.301735 
L 283.83552 172.079026 
L 284.01408 176.455591 
L 284.19264 101.194659 
L 284.54976 225.570256 
L 284.72832 105.910183 
L 284.90688 196.38304 
L 285.08544 154.284524 
L 285.264 185.9598 
L 285.44256 147.691617 
L 285.62112 151.28176 
L 285.79968 165.899498 
L 285.97824 133.758656 
L 286.1568 175.502656 
L 286.33536 171.767707 
L 286.51392 224.775797 
L 286.87104 114.346898 
L 287.0496 135.971241 
L 287.22816 196.416352 
L 287.40672 147.866845 
L 287.58528 161.072142 
L 287.76384 154.777121 
L 287.9424 133.768081 
L 288.12096 179.319031 
L 288.29952 158.035216 
L 288.47808 163.333018 
L 288.65664 132.168205 
L 288.8352 219.5569 
L 289.01376 219.819795 
L 289.19232 141.93752 
L 289.37088 195.41927 
L 289.54944 142.713893 
L 289.728 140.910161 
L 289.90656 149.251873 
L 290.08512 146.252026 
L 290.26368 138.011369 
L 290.44224 145.406737 
L 290.6208 124.265059 
L 290.79936 142.363707 
L 290.97792 138.050774 
L 291.15648 174.923747 
L 291.33504 163.917835 
L 291.5136 144.645345 
L 291.69216 107.553653 
L 291.87072 129.923404 
L 292.04928 133.910702 
L 292.22784 212.221421 
L 292.4064 153.48471 
L 292.58496 165.19392 
L 292.76352 166.140911 
L 292.94208 200.063907 
L 293.12064 140.749702 
L 293.2992 135.385599 
L 293.65632 180.601948 
L 294.192 129.193391 
L 294.72768 150.403636 
L 294.90624 180.287911 
L 295.0848 180.29466 
L 295.26336 112.904583 
L 295.44192 133.366994 
L 295.62048 136.476068 
L 295.79904 153.471376 
L 295.9776 145.81208 
L 296.15616 228.434499 
L 296.33472 139.420432 
L 296.51328 166.531797 
L 296.69184 152.750274 
L 296.8704 197.203936 
L 297.22752 142.011511 
L 297.40608 172.557041 
L 297.58464 179.829671 
L 297.7632 203.881449 
L 297.94176 165.393532 
L 298.12032 161.453578 
L 298.29888 153.798344 
L 298.47744 116.388122 
L 298.656 177.565857 
L 298.83456 179.219844 
L 299.01312 140.083345 
L 299.19168 162.825171 
L 299.37024 142.282981 
L 299.5488 187.461798 
L 299.72736 187.91845 
L 299.90592 138.507184 
L 300.08448 154.395435 
L 300.26304 214.420711 
L 300.4416 141.844005 
L 300.62016 117.781554 
L 300.79872 151.961775 
L 301.15584 139.692756 
L 301.3344 149.523927 
L 301.51296 130.368492 
L 301.69152 155.448428 
L 301.87008 132.901512 
L 302.04864 129.723118 
L 302.40576 132.327983 
L 302.58432 130.710132 
L 302.76288 125.248884 
L 302.94144 178.887489 
L 303.12 135.443753 
L 303.29856 206.669868 
L 303.47712 121.122594 
L 303.65568 177.201046 
L 303.83424 175.095464 
L 304.0128 163.408643 
L 304.19136 164.201578 
L 304.36992 186.631129 
L 304.72704 111.246896 
L 304.9056 194.961122 
L 305.08416 131.569809 
L 305.26272 154.603 
L 305.44128 135.301075 
L 305.61984 164.930141 
L 305.97696 97.431681 
L 306.51264 146.699902 
L 306.6912 127.331889 
L 307.04832 174.658464 
L 307.22688 141.71786 
L 307.40544 137.35776 
L 307.584 137.077613 
L 307.76256 152.913963 
L 307.94112 228.008479 
L 308.11968 144.359758 
L 308.29824 151.983577 
L 308.4768 127.072238 
L 308.65536 176.756356 
L 309.01248 140.828439 
L 309.19104 133.892058 
L 309.3696 162.606447 
L 309.54816 162.650129 
L 309.72672 165.596212 
L 309.90528 170.829129 
L 310.08384 130.00769 
L 310.2624 182.821403 
L 310.44096 166.964855 
L 310.61952 175.682835 
L 310.79808 156.688737 
L 310.97664 155.006344 
L 311.1552 139.325282 
L 311.33376 144.066517 
L 311.51232 182.469118 
L 311.69088 161.964492 
L 311.86944 179.306214 
L 312.048 179.315485 
L 312.22656 128.307673 
L 312.40512 199.72387 
L 312.58368 176.171241 
L 312.76224 214.759376 
L 313.29792 121.577996 
L 313.47648 169.109783 
L 313.65504 111.345618 
L 313.8336 124.013762 
L 314.01216 178.622183 
L 314.19072 142.467797 
L 314.36928 133.743847 
L 314.54784 173.450359 
L 314.7264 136.294031 
L 314.90496 169.082516 
L 315.08352 160.062682 
L 315.26208 118.740706 
L 315.44064 171.130197 
L 315.6192 159.241979 
L 315.79776 203.045807 
L 315.97632 147.937066 
L 316.15488 141.670593 
L 316.33344 125.05622 
L 316.512 156.528626 
L 316.69056 160.709581 
L 316.86912 162.259892 
L 317.04768 157.420637 
L 317.22624 155.713044 
L 317.4048 243.646696 
L 317.58336 161.537216 
L 317.76192 160.254329 
L 318.11904 149.230213 
L 318.2976 117.801906 
L 318.47616 158.440617 
L 318.65472 117.435373 
L 318.83328 172.182184 
L 319.01184 144.819028 
L 319.1904 184.592356 
L 319.54752 130.026456 
L 319.72608 141.125186 
L 319.90464 142.672848 
L 320.0832 149.122369 
L 320.26176 236.237469 
L 320.44032 157.635151 
L 320.61888 129.569195 
L 320.79744 130.875308 
L 320.976 139.943831 
L 321.15456 121.153564 
L 321.33312 182.634518 
L 321.51168 186.216811 
L 321.69024 77.594541 
L 321.8688 193.301064 
L 322.04736 162.727094 
L 322.22592 172.574108 
L 322.40448 174.228786 
L 322.58304 127.939432 
L 322.7616 157.393921 
L 322.94016 112.695698 
L 323.11872 103.183694 
L 323.29728 155.449175 
L 323.47584 142.651489 
L 323.6544 171.721811 
L 323.83296 105.745619 
L 324.01152 175.843137 
L 324.19008 140.402382 
L 324.36864 176.753118 
L 324.5472 107.512398 
L 324.72576 187.449483 
L 324.90432 184.594358 
L 325.08288 192.95556 
L 325.26144 157.068203 
L 325.44 182.587753 
L 325.61856 141.74573 
L 325.79712 147.78139 
L 325.97568 169.432726 
L 326.15424 149.606258 
L 326.3328 200.480986 
L 326.51136 180.217337 
L 326.68992 183.014421 
L 327.04704 133.61835 
L 327.2256 159.571658 
L 327.40416 143.696234 
L 327.58272 169.52327 
L 327.76128 88.985219 
L 327.93984 211.761019 
L 328.1184 129.318414 
L 328.29696 130.218504 
L 328.47552 176.929243 
L 328.65408 147.896956 
L 328.83264 87.098437 
L 329.0112 160.701111 
L 329.18976 161.526644 
L 329.36832 147.832918 
L 329.54688 161.269149 
L 329.72544 136.869106 
L 329.904 161.378143 
L 330.08256 134.484562 
L 330.26112 144.59446 
L 330.43968 191.80881 
L 330.61824 124.457172 
L 330.7968 132.782431 
L 331.15392 165.371627 
L 331.33248 130.792479 
L 331.51104 159.040653 
L 331.6896 164.687272 
L 331.86816 227.113369 
L 332.22528 134.502998 
L 332.40384 118.335515 
L 332.5824 191.00179 
L 332.76096 143.587398 
L 332.93952 193.574717 
L 333.11808 121.80559 
L 333.29664 146.890795 
L 333.4752 140.965172 
L 333.65376 146.704597 
L 333.83232 170.479432 
L 334.01088 174.171126 
L 334.18944 195.206525 
L 334.368 125.751387 
L 334.54656 142.995199 
L 334.72512 172.156959 
L 334.90368 125.130005 
L 335.08224 132.428182 
L 335.61792 114.434792 
L 335.79648 124.31453 
L 335.97504 160.47845 
L 336.1536 158.900985 
L 336.51072 184.124296 
L 336.68928 120.022751 
L 336.86784 146.374574 
L 337.0464 115.464568 
L 337.22496 133.924014 
L 337.40352 115.913502 
L 337.58208 155.444414 
L 337.76064 161.502221 
L 338.11776 115.385427 
L 338.29632 157.026751 
L 338.47488 149.977151 
L 338.65344 128.364438 
L 338.832 142.813677 
L 339.01056 94.944033 
L 339.18912 176.333607 
L 339.36768 171.504536 
L 339.54624 125.128367 
L 339.7248 172.815015 
L 340.08192 129.034121 
L 340.26048 191.756122 
L 340.43904 114.257615 
L 340.79616 179.520568 
L 340.97472 103.637117 
L 341.15328 155.980399 
L 341.5104 141.712747 
L 341.68896 156.741228 
L 341.86752 157.27121 
L 342.04608 130.51863 
L 342.4032 150.470394 
L 342.58176 119.326124 
L 342.93888 179.102564 
L 343.11744 125.288111 
L 343.296 131.857419 
L 343.47456 181.431048 
L 343.65312 140.97741 
L 343.83168 173.565838 
L 344.01024 171.140791 
L 344.1888 211.421625 
L 344.36736 130.313532 
L 344.54592 138.902633 
L 344.72448 133.868896 
L 344.90304 121.34344 
L 345.26016 207.169971 
L 345.61728 165.282044 
L 345.79584 179.480837 
L 345.9744 164.693643 
L 346.15296 168.011222 
L 346.33152 169.254491 
L 346.51008 144.920386 
L 346.68864 158.484417 
L 347.04576 192.141298 
L 347.40288 141.582276 
L 347.58144 150.998577 
L 347.76 106.465653 
L 347.93856 127.239977 
L 348.11712 173.393342 
L 348.29568 160.305227 
L 348.6528 154.951248 
L 348.83136 103.319517 
L 349.00992 157.972208 
L 349.36704 145.741497 
L 349.5456 131.957055 
L 349.72416 166.805284 
L 349.90272 176.170831 
L 350.08128 168.962355 
L 350.25984 203.916025 
L 350.4384 154.843879 
L 350.97408 192.393566 
L 351.15264 148.2091 
L 351.3312 142.29912 
L 351.50976 187.205858 
L 351.86688 132.231828 
L 352.04544 151.405818 
L 352.224 190.116587 
L 352.40256 136.859642 
L 352.58112 135.979101 
L 352.93824 165.126873 
L 353.29536 95.115776 
L 353.47392 152.704147 
L 353.83104 125.711932 
L 354.18816 176.268666 
L 354.36672 135.834873 
L 354.54528 141.875903 
L 354.72384 122.793013 
L 355.08096 152.181725 
L 355.25952 153.223244 
L 355.43808 146.931199 
L 355.61664 175.266609 
L 355.7952 167.620809 
L 356.15232 127.975314 
L 356.33088 134.626546 
L 356.50944 135.185425 
L 356.86656 185.250288 
L 357.04512 136.280584 
L 357.22368 126.63503 
L 357.5808 203.811314 
L 357.75936 159.45695 
L 357.93792 158.911276 
L 358.11648 132.385466 
L 358.29504 162.822457 
L 358.4736 129.142267 
L 358.83072 168.830947 
L 359.18784 106.484576 
L 359.3664 187.08646 
L 359.54496 185.870486 
L 359.90208 125.547891 
L 360.08064 139.31418 
L 360.2592 127.372337 
L 360.43776 171.041699 
L 360.61632 147.877157 
L 360.97344 174.07305 
L 361.152 175.209986 
L 361.33056 146.936184 
L 361.50912 144.582114 
L 361.68768 111.891204 
L 361.86624 150.806843 
L 362.0448 128.607033 
L 362.22336 156.66762 
L 362.40192 107.761845 
L 362.75904 165.971649 
L 362.9376 151.425561 
L 363.11616 152.147079 
L 363.29472 190.907108 
L 363.47328 160.19883 
L 363.65184 166.391711 
L 363.8304 141.870454 
L 364.00896 153.408246 
L 364.18752 147.284778 
L 364.36608 159.620574 
L 364.54464 157.348157 
L 364.7232 173.601603 
L 364.90176 114.120883 
L 365.08032 112.141012 
L 365.43744 191.610103 
L 365.616 143.0778 
L 365.79456 141.810838 
L 365.97312 169.862255 
L 366.15168 125.577707 
L 366.33024 138.931683 
L 366.68736 193.84642 
L 366.86592 181.456128 
L 367.04448 222.575401 
L 367.22304 149.154197 
L 367.4016 152.12411 
L 367.58016 117.44477 
L 367.93728 170.568906 
L 368.11584 171.894926 
L 368.47296 125.959275 
L 368.83008 158.143008 
L 369.00864 126.717831 
L 369.1872 142.296811 
L 369.36576 105.657542 
L 369.54432 125.289958 
L 369.72288 213.364841 
L 370.08 147.508922 
L 370.25856 127.001266 
L 370.43712 173.171324 
L 370.61568 162.070812 
L 370.9728 112.023441 
L 371.32992 178.433141 
L 371.68704 103.675441 
L 372.04416 123.868362 
L 372.40128 186.231021 
L 372.7584 159.209482 
L 372.93696 169.58445 
L 373.29408 136.286957 
L 373.47264 147.272728 
L 373.6512 135.2111 
L 373.82976 189.343466 
L 374.00832 136.463813 
L 374.18688 172.411671 
L 374.36544 113.954943 
L 374.544 168.604878 
L 374.72256 164.197593 
L 374.90112 123.320897 
L 375.07968 189.796908 
L 375.25824 124.228962 
L 375.4368 202.169287 
L 375.79392 140.667731 
L 375.97248 154.178711 
L 376.15104 110.240837 
L 376.68672 220.571985 
L 376.86528 205.246362 
L 377.04384 209.304543 
L 377.2224 183.266088 
L 377.40096 127.008751 
L 377.57952 153.937468 
L 377.75808 122.868317 
L 377.93664 123.473255 
L 378.29376 164.381526 
L 378.47232 100.026549 
L 378.65088 126.689425 
L 378.82944 98.30675 
L 379.36512 161.052346 
L 379.54368 156.229768 
L 379.72224 183.680659 
L 380.07936 157.796294 
L 380.25792 91.434621 
L 380.43648 167.675975 
L 380.61504 171.919385 
L 380.97216 170.415093 
L 381.32928 114.486432 
L 381.50784 183.840931 
L 381.86496 147.549185 
L 382.04352 162.241185 
L 382.22208 121.781893 
L 382.40064 164.494387 
L 382.5792 109.132626 
L 382.75776 134.405583 
L 382.93632 128.85099 
L 383.11488 135.746016 
L 383.29344 153.779181 
L 383.472 157.95025 
L 383.65056 128.562401 
L 383.82912 184.733007 
L 384.00768 150.022258 
L 384.18624 162.017359 
L 384.3648 151.592077 
L 384.54336 156.670928 
L 384.72192 178.647897 
L 384.90048 177.82881 
L 385.07904 166.069042 
L 385.2576 200.356696 
L 385.43616 113.31197 
L 385.61472 186.56558 
L 385.79328 178.942198 
L 385.97184 125.350638 
L 386.1504 150.736981 
L 386.32896 114.376577 
L 386.50752 183.09502 
L 386.68608 141.810857 
L 386.86464 134.319146 
L 387.0432 151.188113 
L 387.22176 197.836109 
L 387.57888 149.885346 
L 387.936 109.983884 
L 388.11456 151.863574 
L 388.29312 150.386515 
L 388.47168 184.987284 
L 388.65024 136.895396 
L 388.8288 152.118447 
L 389.00736 146.712741 
L 389.18592 146.951148 
L 389.36448 129.638671 
L 389.54304 129.10696 
L 389.90016 125.636964 
L 390.07872 177.859453 
L 390.25728 141.781368 
L 390.43584 191.277172 
L 390.6144 195.759004 
L 390.97152 141.041744 
L 391.15008 139.864064 
L 391.32864 192.777192 
L 391.5072 196.674039 
L 391.68576 96.689706 
L 391.86432 163.207847 
L 392.04288 123.769827 
L 392.22144 118.301753 
L 392.4 177.582457 
L 392.57856 174.546378 
L 392.75712 117.482405 
L 392.93568 159.779488 
L 393.11424 104.680621 
L 393.2928 152.664351 
L 393.47136 166.939903 
L 393.64992 151.611842 
L 393.82848 149.350095 
L 394.00704 156.632252 
L 394.1856 129.362135 
L 394.54272 177.842478 
L 394.72128 131.338751 
L 394.89984 153.846022 
L 395.0784 147.484525 
L 395.25696 156.691598 
L 395.43552 122.724017 
L 395.79264 167.330181 
L 396.14976 116.176048 
L 396.50688 181.900963 
L 396.68544 186.26894 
L 396.864 140.394066 
L 397.04256 143.472228 
L 397.22112 160.939139 
L 397.39968 134.663368 
L 397.57824 227.384301 
L 397.7568 138.896969 
L 397.93536 173.79435 
L 398.11392 116.789068 
L 398.29248 123.981401 
L 398.47104 139.06566 
L 398.6496 133.20443 
L 398.82816 108.088302 
L 399.00672 185.004174 
L 399.18528 124.860839 
L 399.36384 161.057121 
L 399.5424 160.85724 
L 399.72096 86.5808 
L 400.07808 197.235372 
L 400.25664 123.054968 
L 400.4352 188.311927 
L 400.61376 126.878928 
L 400.79232 121.489456 
L 400.97088 134.630438 
L 401.14944 187.185973 
L 401.328 143.20814 
L 401.50656 172.651119 
L 401.68512 105.871005 
L 401.86368 125.416548 
L 402.04224 181.907912 
L 402.2208 140.191571 
L 402.39936 139.430739 
L 402.57792 140.484309 
L 402.75648 130.222713 
L 402.93504 134.12181 
L 403.1136 241.661953 
L 403.29216 151.028013 
L 403.47072 118.573027 
L 403.64928 153.147877 
L 403.82784 144.442145 
L 404.0064 192.883206 
L 404.18496 138.133155 
L 404.36352 166.514776 
L 404.54208 176.586306 
L 404.72064 100.260666 
L 405.07776 158.845062 
L 405.25632 161.227624 
L 405.43488 131.413828 
L 405.792 147.744088 
L 405.97056 170.893553 
L 406.32768 128.75773 
L 406.50624 103.411024 
L 406.86336 189.980712 
L 407.04192 139.605139 
L 407.22048 137.864885 
L 407.39904 163.939791 
L 407.5776 162.542635 
L 407.93472 117.981645 
L 408.11328 187.33705 
L 408.4704 133.714781 
L 408.64896 110.055897 
L 408.82752 121.144854 
L 409.00608 197.908728 
L 409.18464 186.957141 
L 409.3632 120.381166 
L 409.54176 127.203151 
L 409.72032 139.123125 
L 409.89888 136.181081 
L 410.07744 225.857158 
L 410.256 149.099603 
L 410.43456 146.480153 
L 410.61312 119.958058 
L 410.79168 189.397544 
L 410.97024 136.118073 
L 411.1488 186.43361 
L 411.32736 126.029999 
L 411.68448 108.131348 
L 411.86304 201.208642 
L 412.0416 159.973985 
L 412.22016 148.221179 
L 412.39872 166.202611 
L 412.57728 119.503131 
L 412.75584 163.991503 
L 412.9344 147.972781 
L 413.11296 169.289595 
L 413.29152 136.895259 
L 413.47008 140.574803 
L 413.64864 127.610779 
L 413.8272 169.679471 
L 414.00576 164.70935 
L 414.18432 154.874515 
L 414.36288 174.379619 
L 414.54144 143.725843 
L 414.54144 143.725843 
" style="fill:none;stroke:#0000ff;stroke-linecap:square;stroke-width:1.5;"/>
   </g>
   <g id="patch_3">
    <path d="M 57.6 307.584 
L 57.6 41.472 
" style="fill:none;stroke:#000000;stroke-linecap:square;stroke-linejoin:miter;stroke-width:0.8;"/>
   </g>
   <g id="patch_4">
    <path d="M 414.72 307.584 
L 414.72 41.472 
" style="fill:none;stroke:#000000;stroke-linecap:square;stroke-linejoin:miter;stroke-width:0.8;"/>
   </g>
   <g id="patch_5">
    <path d="M 57.6 307.584 
L 414.72 307.584 
" style="fill:none;stroke:#000000;stroke-linecap:square;stroke-linejoin:miter;stroke-width:0.8;"/>
   </g>
   <g id="patch_6">
    <path d="M 57.6 41.472 
L 414.72 41.472 
" style="fill:none;stroke:#000000;stroke-linecap:square;stroke-linejoin:miter;stroke-width:0.8;"/>
   </g>
   <g id="legend_1">
    <g id="patch_7">
     <path d="M 282.321563 64.150125 
L 407.72 64.150125 
Q 409.72 64.150125 409.72 62.150125 
L 409.72 48.472 
Q 409.72 46.472 407.72 46.472 
L 282.321563 46.472 
Q 280.321563 46.472 280.321563 48.472 
L 280.321563 62.150125 
Q 280.321563 64.150125 282.321563 64.150125 
z
" style="fill:#ffffff;opacity:0.8;stroke:#cccccc;stroke-linejoin:miter;"/>
    </g>
    <g id="line2d_32">
     <path d="M 284.321563 54.570438 
L 304.321563 54.570438 
" style="fill:none;stroke:#0000ff;stroke-linecap:square;stroke-width:1.5;"/>
    </g>
    <g id="line2d_33"/>
    <g id="text_18">
     <!-- cumulative reward -->
     <g transform="translate(312.321563 58.070438)scale(0.1 -0.1)">
      <defs>
       <path d="M 3122 3366 
L 3122 2828 
Q 2878 2963 2633 3030 
Q 2388 3097 2138 3097 
Q 1578 3097 1268 2742 
Q 959 2388 959 1747 
Q 959 1106 1268 751 
Q 1578 397 2138 397 
Q 2388 397 2633 464 
Q 2878 531 3122 666 
L 3122 134 
Q 2881 22 2623 -34 
Q 2366 -91 2075 -91 
Q 1284 -91 818 406 
Q 353 903 353 1747 
Q 353 2603 823 3093 
Q 1294 3584 2113 3584 
Q 2378 3584 2631 3529 
Q 2884 3475 3122 3366 
z
" id="DejaVuSans-63" transform="scale(0.015625)"/>
      </defs>
      <use xlink:href="#DejaVuSans-63"/>
      <use x="54.980469" xlink:href="#DejaVuSans-75"/>
      <use x="118.359375" xlink:href="#DejaVuSans-6d"/>
      <use x="215.771484" xlink:href="#DejaVuSans-75"/>
      <use x="279.150391" xlink:href="#DejaVuSans-6c"/>
      <use x="306.933594" xlink:href="#DejaVuSans-61"/>
      <use x="368.212891" xlink:href="#DejaVuSans-74"/>
      <use x="407.421875" xlink:href="#DejaVuSans-69"/>
      <use x="435.205078" xlink:href="#DejaVuSans-76"/>
      <use x="494.384766" xlink:href="#DejaVuSans-65"/>
      <use x="555.908203" xlink:href="#DejaVuSans-20"/>
      <use x="587.695312" xlink:href="#DejaVuSans-72"/>
      <use x="626.558594" xlink:href="#DejaVuSans-65"/>
      <use x="688.082031" xlink:href="#DejaVuSans-77"/>
      <use x="769.869141" xlink:href="#DejaVuSans-61"/>
      <use x="831.148438" xlink:href="#DejaVuSans-72"/>
      <use x="870.511719" xlink:href="#DejaVuSans-64"/>
     </g>
    </g>
   </g>
  </g>
 </g>
 <defs>
  <clipPath id="pfbf039acd1">
   <rect height="266.112" width="357.12" x="57.6" y="41.472"/>
  </clipPath>
 </defs>
</svg>
