<?xml version="1.0" encoding="utf-8" standalone="no"?>
<!DOCTYPE svg PUBLIC "-//W3C//DTD SVG 1.1//EN"
  "http://www.w3.org/Graphics/SVG/1.1/DTD/svg11.dtd">
<svg height="345.6pt" version="1.1" viewBox="0 0 460.8 345.6" width="460.8pt" xmlns="http://www.w3.org/2000/svg" xmlns:xlink="http://www.w3.org/1999/xlink">
 <metadata>
  <rdf:RDF xmlns:cc="http://creativecommons.org/ns#" xmlns:dc="http://purl.org/dc/elements/1.1/" xmlns:rdf="http://www.w3.org/1999/02/22-rdf-syntax-ns#">
   <cc:Work>
    <dc:type rdf:resource="http://purl.org/dc/dcmitype/StillImage"/>
    <dc:date>2021-10-27T11:35:04.009049</dc:date>
    <dc:description>{"agent.algorithm": "RayProximalPolicyOptimization", "agent.algorithm.render_env": false, "agent.algorithm.num_workers": 0, "agent.algorithm.batch_mode": "complete_episodes", "agent.algorithm.train_batch_size": 200, "agent.algorithm.optimizer": "Adam", "agent.algorithm.vf_clip_param": 10000, "agent.algorithm.model": {"fcnet_activation": "tanh", "fcnet_hiddens": [50, 50]}, "env.env_class": "SchedulerPolicyRayEnvironment", "env.env_config": {"solver_driver": "CMAdriver", "solver_driver_args": [10, 10, 11, 0.38], "maximize": false, "steps": 50, "state_metrics_names": ["DifferenceOfBest", "SolverStateHistory", "SolverState"], "state_metrics_config": [[40, false, 1, true], [{"step_size": {"max": 3, "min": 0}}, 40], [{"ps": {"max": 10, "min": -10}}]], "reward_metric": "Best", "reward_metric_config": [false, false], "memes_no": 1, "action_space_config": {"step_size": {"max": 3, "min": 1e-10}}}}</dc:description>
    <dc:format>image/svg+xml</dc:format>
    <dc:creator>
     <cc:Agent>
      <dc:title>Matplotlib v3.4.3, https://matplotlib.org/</dc:title>
     </cc:Agent>
    </dc:creator>
   </cc:Work>
  </rdf:RDF>
 </metadata>
 <defs>
  <style type="text/css">*{stroke-linecap:butt;stroke-linejoin:round;}</style>
 </defs>
 <g id="figure_1">
  <g id="patch_1">
   <path d="M 0 345.6 
L 460.8 345.6 
L 460.8 0 
L 0 0 
z
" style="fill:#ffffff;"/>
  </g>
  <g id="axes_1">
   <g id="patch_2">
    <path d="M 57.6 307.584 
L 414.72 307.584 
L 414.72 41.472 
L 57.6 41.472 
z
" style="fill:#ffffff;"/>
   </g>
   <g id="matplotlib.axis_1">
    <g id="xtick_1">
     <g id="line2d_1">
      <path clip-path="url(#p57f69f0ab0)" d="M 57.6 307.584 
L 57.6 41.472 
" style="fill:none;stroke:#b0b0b0;stroke-linecap:square;stroke-width:0.8;"/>
     </g>
     <g id="line2d_2">
      <defs>
       <path d="M 0 0 
L 0 3.5 
" id="meeba4a2992" style="stroke:#000000;stroke-width:0.8;"/>
      </defs>
      <g>
       <use style="stroke:#000000;stroke-width:0.8;" x="57.6" xlink:href="#meeba4a2992" y="307.584"/>
      </g>
     </g>
     <g id="text_1">
      <!-- 0 -->
      <g transform="translate(54.41875 322.182437)scale(0.1 -0.1)">
       <defs>
        <path d="M 2034 4250 
Q 1547 4250 1301 3770 
Q 1056 3291 1056 2328 
Q 1056 1369 1301 889 
Q 1547 409 2034 409 
Q 2525 409 2770 889 
Q 3016 1369 3016 2328 
Q 3016 3291 2770 3770 
Q 2525 4250 2034 4250 
z
M 2034 4750 
Q 2819 4750 3233 4129 
Q 3647 3509 3647 2328 
Q 3647 1150 3233 529 
Q 2819 -91 2034 -91 
Q 1250 -91 836 529 
Q 422 1150 422 2328 
Q 422 3509 836 4129 
Q 1250 4750 2034 4750 
z
" id="DejaVuSans-30" transform="scale(0.015625)"/>
       </defs>
       <use xlink:href="#DejaVuSans-30"/>
      </g>
     </g>
    </g>
    <g id="xtick_2">
     <g id="line2d_3">
      <path clip-path="url(#p57f69f0ab0)" d="M 102.24 307.584 
L 102.24 41.472 
" style="fill:none;stroke:#b0b0b0;stroke-linecap:square;stroke-width:0.8;"/>
     </g>
     <g id="line2d_4">
      <g>
       <use style="stroke:#000000;stroke-width:0.8;" x="102.24" xlink:href="#meeba4a2992" y="307.584"/>
      </g>
     </g>
     <g id="text_2">
      <!-- 250 -->
      <g transform="translate(92.69625 322.182437)scale(0.1 -0.1)">
       <defs>
        <path d="M 1228 531 
L 3431 531 
L 3431 0 
L 469 0 
L 469 531 
Q 828 903 1448 1529 
Q 2069 2156 2228 2338 
Q 2531 2678 2651 2914 
Q 2772 3150 2772 3378 
Q 2772 3750 2511 3984 
Q 2250 4219 1831 4219 
Q 1534 4219 1204 4116 
Q 875 4013 500 3803 
L 500 4441 
Q 881 4594 1212 4672 
Q 1544 4750 1819 4750 
Q 2544 4750 2975 4387 
Q 3406 4025 3406 3419 
Q 3406 3131 3298 2873 
Q 3191 2616 2906 2266 
Q 2828 2175 2409 1742 
Q 1991 1309 1228 531 
z
" id="DejaVuSans-32" transform="scale(0.015625)"/>
        <path d="M 691 4666 
L 3169 4666 
L 3169 4134 
L 1269 4134 
L 1269 2991 
Q 1406 3038 1543 3061 
Q 1681 3084 1819 3084 
Q 2600 3084 3056 2656 
Q 3513 2228 3513 1497 
Q 3513 744 3044 326 
Q 2575 -91 1722 -91 
Q 1428 -91 1123 -41 
Q 819 9 494 109 
L 494 744 
Q 775 591 1075 516 
Q 1375 441 1709 441 
Q 2250 441 2565 725 
Q 2881 1009 2881 1497 
Q 2881 1984 2565 2268 
Q 2250 2553 1709 2553 
Q 1456 2553 1204 2497 
Q 953 2441 691 2322 
L 691 4666 
z
" id="DejaVuSans-35" transform="scale(0.015625)"/>
       </defs>
       <use xlink:href="#DejaVuSans-32"/>
       <use x="63.623047" xlink:href="#DejaVuSans-35"/>
       <use x="127.246094" xlink:href="#DejaVuSans-30"/>
      </g>
     </g>
    </g>
    <g id="xtick_3">
     <g id="line2d_5">
      <path clip-path="url(#p57f69f0ab0)" d="M 146.88 307.584 
L 146.88 41.472 
" style="fill:none;stroke:#b0b0b0;stroke-linecap:square;stroke-width:0.8;"/>
     </g>
     <g id="line2d_6">
      <g>
       <use style="stroke:#000000;stroke-width:0.8;" x="146.88" xlink:href="#meeba4a2992" y="307.584"/>
      </g>
     </g>
     <g id="text_3">
      <!-- 500 -->
      <g transform="translate(137.33625 322.182437)scale(0.1 -0.1)">
       <use xlink:href="#DejaVuSans-35"/>
       <use x="63.623047" xlink:href="#DejaVuSans-30"/>
       <use x="127.246094" xlink:href="#DejaVuSans-30"/>
      </g>
     </g>
    </g>
    <g id="xtick_4">
     <g id="line2d_7">
      <path clip-path="url(#p57f69f0ab0)" d="M 191.52 307.584 
L 191.52 41.472 
" style="fill:none;stroke:#b0b0b0;stroke-linecap:square;stroke-width:0.8;"/>
     </g>
     <g id="line2d_8">
      <g>
       <use style="stroke:#000000;stroke-width:0.8;" x="191.52" xlink:href="#meeba4a2992" y="307.584"/>
      </g>
     </g>
     <g id="text_4">
      <!-- 750 -->
      <g transform="translate(181.97625 322.182437)scale(0.1 -0.1)">
       <defs>
        <path d="M 525 4666 
L 3525 4666 
L 3525 4397 
L 1831 0 
L 1172 0 
L 2766 4134 
L 525 4134 
L 525 4666 
z
" id="DejaVuSans-37" transform="scale(0.015625)"/>
       </defs>
       <use xlink:href="#DejaVuSans-37"/>
       <use x="63.623047" xlink:href="#DejaVuSans-35"/>
       <use x="127.246094" xlink:href="#DejaVuSans-30"/>
      </g>
     </g>
    </g>
    <g id="xtick_5">
     <g id="line2d_9">
      <path clip-path="url(#p57f69f0ab0)" d="M 236.16 307.584 
L 236.16 41.472 
" style="fill:none;stroke:#b0b0b0;stroke-linecap:square;stroke-width:0.8;"/>
     </g>
     <g id="line2d_10">
      <g>
       <use style="stroke:#000000;stroke-width:0.8;" x="236.16" xlink:href="#meeba4a2992" y="307.584"/>
      </g>
     </g>
     <g id="text_5">
      <!-- 1000 -->
      <g transform="translate(223.435 322.182437)scale(0.1 -0.1)">
       <defs>
        <path d="M 794 531 
L 1825 531 
L 1825 4091 
L 703 3866 
L 703 4441 
L 1819 4666 
L 2450 4666 
L 2450 531 
L 3481 531 
L 3481 0 
L 794 0 
L 794 531 
z
" id="DejaVuSans-31" transform="scale(0.015625)"/>
       </defs>
       <use xlink:href="#DejaVuSans-31"/>
       <use x="63.623047" xlink:href="#DejaVuSans-30"/>
       <use x="127.246094" xlink:href="#DejaVuSans-30"/>
       <use x="190.869141" xlink:href="#DejaVuSans-30"/>
      </g>
     </g>
    </g>
    <g id="xtick_6">
     <g id="line2d_11">
      <path clip-path="url(#p57f69f0ab0)" d="M 280.8 307.584 
L 280.8 41.472 
" style="fill:none;stroke:#b0b0b0;stroke-linecap:square;stroke-width:0.8;"/>
     </g>
     <g id="line2d_12">
      <g>
       <use style="stroke:#000000;stroke-width:0.8;" x="280.8" xlink:href="#meeba4a2992" y="307.584"/>
      </g>
     </g>
     <g id="text_6">
      <!-- 1250 -->
      <g transform="translate(268.075 322.182437)scale(0.1 -0.1)">
       <use xlink:href="#DejaVuSans-31"/>
       <use x="63.623047" xlink:href="#DejaVuSans-32"/>
       <use x="127.246094" xlink:href="#DejaVuSans-35"/>
       <use x="190.869141" xlink:href="#DejaVuSans-30"/>
      </g>
     </g>
    </g>
    <g id="xtick_7">
     <g id="line2d_13">
      <path clip-path="url(#p57f69f0ab0)" d="M 325.44 307.584 
L 325.44 41.472 
" style="fill:none;stroke:#b0b0b0;stroke-linecap:square;stroke-width:0.8;"/>
     </g>
     <g id="line2d_14">
      <g>
       <use style="stroke:#000000;stroke-width:0.8;" x="325.44" xlink:href="#meeba4a2992" y="307.584"/>
      </g>
     </g>
     <g id="text_7">
      <!-- 1500 -->
      <g transform="translate(312.715 322.182437)scale(0.1 -0.1)">
       <use xlink:href="#DejaVuSans-31"/>
       <use x="63.623047" xlink:href="#DejaVuSans-35"/>
       <use x="127.246094" xlink:href="#DejaVuSans-30"/>
       <use x="190.869141" xlink:href="#DejaVuSans-30"/>
      </g>
     </g>
    </g>
    <g id="xtick_8">
     <g id="line2d_15">
      <path clip-path="url(#p57f69f0ab0)" d="M 370.08 307.584 
L 370.08 41.472 
" style="fill:none;stroke:#b0b0b0;stroke-linecap:square;stroke-width:0.8;"/>
     </g>
     <g id="line2d_16">
      <g>
       <use style="stroke:#000000;stroke-width:0.8;" x="370.08" xlink:href="#meeba4a2992" y="307.584"/>
      </g>
     </g>
     <g id="text_8">
      <!-- 1750 -->
      <g transform="translate(357.355 322.182437)scale(0.1 -0.1)">
       <use xlink:href="#DejaVuSans-31"/>
       <use x="63.623047" xlink:href="#DejaVuSans-37"/>
       <use x="127.246094" xlink:href="#DejaVuSans-35"/>
       <use x="190.869141" xlink:href="#DejaVuSans-30"/>
      </g>
     </g>
    </g>
    <g id="xtick_9">
     <g id="line2d_17">
      <path clip-path="url(#p57f69f0ab0)" d="M 414.72 307.584 
L 414.72 41.472 
" style="fill:none;stroke:#b0b0b0;stroke-linecap:square;stroke-width:0.8;"/>
     </g>
     <g id="line2d_18">
      <g>
       <use style="stroke:#000000;stroke-width:0.8;" x="414.72" xlink:href="#meeba4a2992" y="307.584"/>
      </g>
     </g>
     <g id="text_9">
      <!-- 2000 -->
      <g transform="translate(401.995 322.182437)scale(0.1 -0.1)">
       <use xlink:href="#DejaVuSans-32"/>
       <use x="63.623047" xlink:href="#DejaVuSans-30"/>
       <use x="127.246094" xlink:href="#DejaVuSans-30"/>
       <use x="190.869141" xlink:href="#DejaVuSans-30"/>
      </g>
     </g>
    </g>
    <g id="text_10">
     <!-- Episodes -->
     <g transform="translate(213.917812 335.860562)scale(0.1 -0.1)">
      <defs>
       <path d="M 628 4666 
L 3578 4666 
L 3578 4134 
L 1259 4134 
L 1259 2753 
L 3481 2753 
L 3481 2222 
L 1259 2222 
L 1259 531 
L 3634 531 
L 3634 0 
L 628 0 
L 628 4666 
z
" id="DejaVuSans-45" transform="scale(0.015625)"/>
       <path d="M 1159 525 
L 1159 -1331 
L 581 -1331 
L 581 3500 
L 1159 3500 
L 1159 2969 
Q 1341 3281 1617 3432 
Q 1894 3584 2278 3584 
Q 2916 3584 3314 3078 
Q 3713 2572 3713 1747 
Q 3713 922 3314 415 
Q 2916 -91 2278 -91 
Q 1894 -91 1617 61 
Q 1341 213 1159 525 
z
M 3116 1747 
Q 3116 2381 2855 2742 
Q 2594 3103 2138 3103 
Q 1681 3103 1420 2742 
Q 1159 2381 1159 1747 
Q 1159 1113 1420 752 
Q 1681 391 2138 391 
Q 2594 391 2855 752 
Q 3116 1113 3116 1747 
z
" id="DejaVuSans-70" transform="scale(0.015625)"/>
       <path d="M 603 3500 
L 1178 3500 
L 1178 0 
L 603 0 
L 603 3500 
z
M 603 4863 
L 1178 4863 
L 1178 4134 
L 603 4134 
L 603 4863 
z
" id="DejaVuSans-69" transform="scale(0.015625)"/>
       <path d="M 2834 3397 
L 2834 2853 
Q 2591 2978 2328 3040 
Q 2066 3103 1784 3103 
Q 1356 3103 1142 2972 
Q 928 2841 928 2578 
Q 928 2378 1081 2264 
Q 1234 2150 1697 2047 
L 1894 2003 
Q 2506 1872 2764 1633 
Q 3022 1394 3022 966 
Q 3022 478 2636 193 
Q 2250 -91 1575 -91 
Q 1294 -91 989 -36 
Q 684 19 347 128 
L 347 722 
Q 666 556 975 473 
Q 1284 391 1588 391 
Q 1994 391 2212 530 
Q 2431 669 2431 922 
Q 2431 1156 2273 1281 
Q 2116 1406 1581 1522 
L 1381 1569 
Q 847 1681 609 1914 
Q 372 2147 372 2553 
Q 372 3047 722 3315 
Q 1072 3584 1716 3584 
Q 2034 3584 2315 3537 
Q 2597 3491 2834 3397 
z
" id="DejaVuSans-73" transform="scale(0.015625)"/>
       <path d="M 1959 3097 
Q 1497 3097 1228 2736 
Q 959 2375 959 1747 
Q 959 1119 1226 758 
Q 1494 397 1959 397 
Q 2419 397 2687 759 
Q 2956 1122 2956 1747 
Q 2956 2369 2687 2733 
Q 2419 3097 1959 3097 
z
M 1959 3584 
Q 2709 3584 3137 3096 
Q 3566 2609 3566 1747 
Q 3566 888 3137 398 
Q 2709 -91 1959 -91 
Q 1206 -91 779 398 
Q 353 888 353 1747 
Q 353 2609 779 3096 
Q 1206 3584 1959 3584 
z
" id="DejaVuSans-6f" transform="scale(0.015625)"/>
       <path d="M 2906 2969 
L 2906 4863 
L 3481 4863 
L 3481 0 
L 2906 0 
L 2906 525 
Q 2725 213 2448 61 
Q 2172 -91 1784 -91 
Q 1150 -91 751 415 
Q 353 922 353 1747 
Q 353 2572 751 3078 
Q 1150 3584 1784 3584 
Q 2172 3584 2448 3432 
Q 2725 3281 2906 2969 
z
M 947 1747 
Q 947 1113 1208 752 
Q 1469 391 1925 391 
Q 2381 391 2643 752 
Q 2906 1113 2906 1747 
Q 2906 2381 2643 2742 
Q 2381 3103 1925 3103 
Q 1469 3103 1208 2742 
Q 947 2381 947 1747 
z
" id="DejaVuSans-64" transform="scale(0.015625)"/>
       <path d="M 3597 1894 
L 3597 1613 
L 953 1613 
Q 991 1019 1311 708 
Q 1631 397 2203 397 
Q 2534 397 2845 478 
Q 3156 559 3463 722 
L 3463 178 
Q 3153 47 2828 -22 
Q 2503 -91 2169 -91 
Q 1331 -91 842 396 
Q 353 884 353 1716 
Q 353 2575 817 3079 
Q 1281 3584 2069 3584 
Q 2775 3584 3186 3129 
Q 3597 2675 3597 1894 
z
M 3022 2063 
Q 3016 2534 2758 2815 
Q 2500 3097 2075 3097 
Q 1594 3097 1305 2825 
Q 1016 2553 972 2059 
L 3022 2063 
z
" id="DejaVuSans-65" transform="scale(0.015625)"/>
      </defs>
      <use xlink:href="#DejaVuSans-45"/>
      <use x="63.183594" xlink:href="#DejaVuSans-70"/>
      <use x="126.660156" xlink:href="#DejaVuSans-69"/>
      <use x="154.443359" xlink:href="#DejaVuSans-73"/>
      <use x="206.542969" xlink:href="#DejaVuSans-6f"/>
      <use x="267.724609" xlink:href="#DejaVuSans-64"/>
      <use x="331.201172" xlink:href="#DejaVuSans-65"/>
      <use x="392.724609" xlink:href="#DejaVuSans-73"/>
     </g>
    </g>
   </g>
   <g id="matplotlib.axis_2">
    <g id="ytick_1">
     <g id="line2d_19">
      <path clip-path="url(#p57f69f0ab0)" d="M 57.6 284.95239 
L 414.72 284.95239 
" style="fill:none;stroke:#b0b0b0;stroke-linecap:square;stroke-width:0.8;"/>
     </g>
     <g id="line2d_20">
      <defs>
       <path d="M 0 0 
L -3.5 0 
" id="mf41e5e249e" style="stroke:#000000;stroke-width:0.8;"/>
      </defs>
      <g>
       <use style="stroke:#000000;stroke-width:0.8;" x="57.6" xlink:href="#mf41e5e249e" y="284.95239"/>
      </g>
     </g>
     <g id="text_11">
      <!-- −1.0 -->
      <g transform="translate(26.317187 288.751608)scale(0.1 -0.1)">
       <defs>
        <path d="M 678 2272 
L 4684 2272 
L 4684 1741 
L 678 1741 
L 678 2272 
z
" id="DejaVuSans-2212" transform="scale(0.015625)"/>
        <path d="M 684 794 
L 1344 794 
L 1344 0 
L 684 0 
L 684 794 
z
" id="DejaVuSans-2e" transform="scale(0.015625)"/>
       </defs>
       <use xlink:href="#DejaVuSans-2212"/>
       <use x="83.789062" xlink:href="#DejaVuSans-31"/>
       <use x="147.412109" xlink:href="#DejaVuSans-2e"/>
       <use x="179.199219" xlink:href="#DejaVuSans-30"/>
      </g>
     </g>
    </g>
    <g id="ytick_2">
     <g id="line2d_21">
      <path clip-path="url(#p57f69f0ab0)" d="M 57.6 240.366927 
L 414.72 240.366927 
" style="fill:none;stroke:#b0b0b0;stroke-linecap:square;stroke-width:0.8;"/>
     </g>
     <g id="line2d_22">
      <g>
       <use style="stroke:#000000;stroke-width:0.8;" x="57.6" xlink:href="#mf41e5e249e" y="240.366927"/>
      </g>
     </g>
     <g id="text_12">
      <!-- −0.8 -->
      <g transform="translate(26.317187 244.166145)scale(0.1 -0.1)">
       <defs>
        <path d="M 2034 2216 
Q 1584 2216 1326 1975 
Q 1069 1734 1069 1313 
Q 1069 891 1326 650 
Q 1584 409 2034 409 
Q 2484 409 2743 651 
Q 3003 894 3003 1313 
Q 3003 1734 2745 1975 
Q 2488 2216 2034 2216 
z
M 1403 2484 
Q 997 2584 770 2862 
Q 544 3141 544 3541 
Q 544 4100 942 4425 
Q 1341 4750 2034 4750 
Q 2731 4750 3128 4425 
Q 3525 4100 3525 3541 
Q 3525 3141 3298 2862 
Q 3072 2584 2669 2484 
Q 3125 2378 3379 2068 
Q 3634 1759 3634 1313 
Q 3634 634 3220 271 
Q 2806 -91 2034 -91 
Q 1263 -91 848 271 
Q 434 634 434 1313 
Q 434 1759 690 2068 
Q 947 2378 1403 2484 
z
M 1172 3481 
Q 1172 3119 1398 2916 
Q 1625 2713 2034 2713 
Q 2441 2713 2670 2916 
Q 2900 3119 2900 3481 
Q 2900 3844 2670 4047 
Q 2441 4250 2034 4250 
Q 1625 4250 1398 4047 
Q 1172 3844 1172 3481 
z
" id="DejaVuSans-38" transform="scale(0.015625)"/>
       </defs>
       <use xlink:href="#DejaVuSans-2212"/>
       <use x="83.789062" xlink:href="#DejaVuSans-30"/>
       <use x="147.412109" xlink:href="#DejaVuSans-2e"/>
       <use x="179.199219" xlink:href="#DejaVuSans-38"/>
      </g>
     </g>
    </g>
    <g id="ytick_3">
     <g id="line2d_23">
      <path clip-path="url(#p57f69f0ab0)" d="M 57.6 195.781464 
L 414.72 195.781464 
" style="fill:none;stroke:#b0b0b0;stroke-linecap:square;stroke-width:0.8;"/>
     </g>
     <g id="line2d_24">
      <g>
       <use style="stroke:#000000;stroke-width:0.8;" x="57.6" xlink:href="#mf41e5e249e" y="195.781464"/>
      </g>
     </g>
     <g id="text_13">
      <!-- −0.6 -->
      <g transform="translate(26.317187 199.580683)scale(0.1 -0.1)">
       <defs>
        <path d="M 2113 2584 
Q 1688 2584 1439 2293 
Q 1191 2003 1191 1497 
Q 1191 994 1439 701 
Q 1688 409 2113 409 
Q 2538 409 2786 701 
Q 3034 994 3034 1497 
Q 3034 2003 2786 2293 
Q 2538 2584 2113 2584 
z
M 3366 4563 
L 3366 3988 
Q 3128 4100 2886 4159 
Q 2644 4219 2406 4219 
Q 1781 4219 1451 3797 
Q 1122 3375 1075 2522 
Q 1259 2794 1537 2939 
Q 1816 3084 2150 3084 
Q 2853 3084 3261 2657 
Q 3669 2231 3669 1497 
Q 3669 778 3244 343 
Q 2819 -91 2113 -91 
Q 1303 -91 875 529 
Q 447 1150 447 2328 
Q 447 3434 972 4092 
Q 1497 4750 2381 4750 
Q 2619 4750 2861 4703 
Q 3103 4656 3366 4563 
z
" id="DejaVuSans-36" transform="scale(0.015625)"/>
       </defs>
       <use xlink:href="#DejaVuSans-2212"/>
       <use x="83.789062" xlink:href="#DejaVuSans-30"/>
       <use x="147.412109" xlink:href="#DejaVuSans-2e"/>
       <use x="179.199219" xlink:href="#DejaVuSans-36"/>
      </g>
     </g>
    </g>
    <g id="ytick_4">
     <g id="line2d_25">
      <path clip-path="url(#p57f69f0ab0)" d="M 57.6 151.196001 
L 414.72 151.196001 
" style="fill:none;stroke:#b0b0b0;stroke-linecap:square;stroke-width:0.8;"/>
     </g>
     <g id="line2d_26">
      <g>
       <use style="stroke:#000000;stroke-width:0.8;" x="57.6" xlink:href="#mf41e5e249e" y="151.196001"/>
      </g>
     </g>
     <g id="text_14">
      <!-- −0.4 -->
      <g transform="translate(26.317187 154.99522)scale(0.1 -0.1)">
       <defs>
        <path d="M 2419 4116 
L 825 1625 
L 2419 1625 
L 2419 4116 
z
M 2253 4666 
L 3047 4666 
L 3047 1625 
L 3713 1625 
L 3713 1100 
L 3047 1100 
L 3047 0 
L 2419 0 
L 2419 1100 
L 313 1100 
L 313 1709 
L 2253 4666 
z
" id="DejaVuSans-34" transform="scale(0.015625)"/>
       </defs>
       <use xlink:href="#DejaVuSans-2212"/>
       <use x="83.789062" xlink:href="#DejaVuSans-30"/>
       <use x="147.412109" xlink:href="#DejaVuSans-2e"/>
       <use x="179.199219" xlink:href="#DejaVuSans-34"/>
      </g>
     </g>
    </g>
    <g id="ytick_5">
     <g id="line2d_27">
      <path clip-path="url(#p57f69f0ab0)" d="M 57.6 106.610538 
L 414.72 106.610538 
" style="fill:none;stroke:#b0b0b0;stroke-linecap:square;stroke-width:0.8;"/>
     </g>
     <g id="line2d_28">
      <g>
       <use style="stroke:#000000;stroke-width:0.8;" x="57.6" xlink:href="#mf41e5e249e" y="106.610538"/>
      </g>
     </g>
     <g id="text_15">
      <!-- −0.2 -->
      <g transform="translate(26.317187 110.409757)scale(0.1 -0.1)">
       <use xlink:href="#DejaVuSans-2212"/>
       <use x="83.789062" xlink:href="#DejaVuSans-30"/>
       <use x="147.412109" xlink:href="#DejaVuSans-2e"/>
       <use x="179.199219" xlink:href="#DejaVuSans-32"/>
      </g>
     </g>
    </g>
    <g id="ytick_6">
     <g id="line2d_29">
      <path clip-path="url(#p57f69f0ab0)" d="M 57.6 62.025075 
L 414.72 62.025075 
" style="fill:none;stroke:#b0b0b0;stroke-linecap:square;stroke-width:0.8;"/>
     </g>
     <g id="line2d_30">
      <g>
       <use style="stroke:#000000;stroke-width:0.8;" x="57.6" xlink:href="#mf41e5e249e" y="62.025075"/>
      </g>
     </g>
     <g id="text_16">
      <!-- 0.0 -->
      <g transform="translate(34.696875 65.824294)scale(0.1 -0.1)">
       <use xlink:href="#DejaVuSans-30"/>
       <use x="63.623047" xlink:href="#DejaVuSans-2e"/>
       <use x="95.410156" xlink:href="#DejaVuSans-30"/>
      </g>
     </g>
    </g>
    <g id="text_17">
     <!-- Cumulative Reward -->
     <g transform="translate(20.2375 223.275656)rotate(-90)scale(0.1 -0.1)">
      <defs>
       <path d="M 4122 4306 
L 4122 3641 
Q 3803 3938 3442 4084 
Q 3081 4231 2675 4231 
Q 1875 4231 1450 3742 
Q 1025 3253 1025 2328 
Q 1025 1406 1450 917 
Q 1875 428 2675 428 
Q 3081 428 3442 575 
Q 3803 722 4122 1019 
L 4122 359 
Q 3791 134 3420 21 
Q 3050 -91 2638 -91 
Q 1578 -91 968 557 
Q 359 1206 359 2328 
Q 359 3453 968 4101 
Q 1578 4750 2638 4750 
Q 3056 4750 3426 4639 
Q 3797 4528 4122 4306 
z
" id="DejaVuSans-43" transform="scale(0.015625)"/>
       <path d="M 544 1381 
L 544 3500 
L 1119 3500 
L 1119 1403 
Q 1119 906 1312 657 
Q 1506 409 1894 409 
Q 2359 409 2629 706 
Q 2900 1003 2900 1516 
L 2900 3500 
L 3475 3500 
L 3475 0 
L 2900 0 
L 2900 538 
Q 2691 219 2414 64 
Q 2138 -91 1772 -91 
Q 1169 -91 856 284 
Q 544 659 544 1381 
z
M 1991 3584 
L 1991 3584 
z
" id="DejaVuSans-75" transform="scale(0.015625)"/>
       <path d="M 3328 2828 
Q 3544 3216 3844 3400 
Q 4144 3584 4550 3584 
Q 5097 3584 5394 3201 
Q 5691 2819 5691 2113 
L 5691 0 
L 5113 0 
L 5113 2094 
Q 5113 2597 4934 2840 
Q 4756 3084 4391 3084 
Q 3944 3084 3684 2787 
Q 3425 2491 3425 1978 
L 3425 0 
L 2847 0 
L 2847 2094 
Q 2847 2600 2669 2842 
Q 2491 3084 2119 3084 
Q 1678 3084 1418 2786 
Q 1159 2488 1159 1978 
L 1159 0 
L 581 0 
L 581 3500 
L 1159 3500 
L 1159 2956 
Q 1356 3278 1631 3431 
Q 1906 3584 2284 3584 
Q 2666 3584 2933 3390 
Q 3200 3197 3328 2828 
z
" id="DejaVuSans-6d" transform="scale(0.015625)"/>
       <path d="M 603 4863 
L 1178 4863 
L 1178 0 
L 603 0 
L 603 4863 
z
" id="DejaVuSans-6c" transform="scale(0.015625)"/>
       <path d="M 2194 1759 
Q 1497 1759 1228 1600 
Q 959 1441 959 1056 
Q 959 750 1161 570 
Q 1363 391 1709 391 
Q 2188 391 2477 730 
Q 2766 1069 2766 1631 
L 2766 1759 
L 2194 1759 
z
M 3341 1997 
L 3341 0 
L 2766 0 
L 2766 531 
Q 2569 213 2275 61 
Q 1981 -91 1556 -91 
Q 1019 -91 701 211 
Q 384 513 384 1019 
Q 384 1609 779 1909 
Q 1175 2209 1959 2209 
L 2766 2209 
L 2766 2266 
Q 2766 2663 2505 2880 
Q 2244 3097 1772 3097 
Q 1472 3097 1187 3025 
Q 903 2953 641 2809 
L 641 3341 
Q 956 3463 1253 3523 
Q 1550 3584 1831 3584 
Q 2591 3584 2966 3190 
Q 3341 2797 3341 1997 
z
" id="DejaVuSans-61" transform="scale(0.015625)"/>
       <path d="M 1172 4494 
L 1172 3500 
L 2356 3500 
L 2356 3053 
L 1172 3053 
L 1172 1153 
Q 1172 725 1289 603 
Q 1406 481 1766 481 
L 2356 481 
L 2356 0 
L 1766 0 
Q 1100 0 847 248 
Q 594 497 594 1153 
L 594 3053 
L 172 3053 
L 172 3500 
L 594 3500 
L 594 4494 
L 1172 4494 
z
" id="DejaVuSans-74" transform="scale(0.015625)"/>
       <path d="M 191 3500 
L 800 3500 
L 1894 563 
L 2988 3500 
L 3597 3500 
L 2284 0 
L 1503 0 
L 191 3500 
z
" id="DejaVuSans-76" transform="scale(0.015625)"/>
       <path id="DejaVuSans-20" transform="scale(0.015625)"/>
       <path d="M 2841 2188 
Q 3044 2119 3236 1894 
Q 3428 1669 3622 1275 
L 4263 0 
L 3584 0 
L 2988 1197 
Q 2756 1666 2539 1819 
Q 2322 1972 1947 1972 
L 1259 1972 
L 1259 0 
L 628 0 
L 628 4666 
L 2053 4666 
Q 2853 4666 3247 4331 
Q 3641 3997 3641 3322 
Q 3641 2881 3436 2590 
Q 3231 2300 2841 2188 
z
M 1259 4147 
L 1259 2491 
L 2053 2491 
Q 2509 2491 2742 2702 
Q 2975 2913 2975 3322 
Q 2975 3731 2742 3939 
Q 2509 4147 2053 4147 
L 1259 4147 
z
" id="DejaVuSans-52" transform="scale(0.015625)"/>
       <path d="M 269 3500 
L 844 3500 
L 1563 769 
L 2278 3500 
L 2956 3500 
L 3675 769 
L 4391 3500 
L 4966 3500 
L 4050 0 
L 3372 0 
L 2619 2869 
L 1863 0 
L 1184 0 
L 269 3500 
z
" id="DejaVuSans-77" transform="scale(0.015625)"/>
       <path d="M 2631 2963 
Q 2534 3019 2420 3045 
Q 2306 3072 2169 3072 
Q 1681 3072 1420 2755 
Q 1159 2438 1159 1844 
L 1159 0 
L 581 0 
L 581 3500 
L 1159 3500 
L 1159 2956 
Q 1341 3275 1631 3429 
Q 1922 3584 2338 3584 
Q 2397 3584 2469 3576 
Q 2541 3569 2628 3553 
L 2631 2963 
z
" id="DejaVuSans-72" transform="scale(0.015625)"/>
      </defs>
      <use xlink:href="#DejaVuSans-43"/>
      <use x="69.824219" xlink:href="#DejaVuSans-75"/>
      <use x="133.203125" xlink:href="#DejaVuSans-6d"/>
      <use x="230.615234" xlink:href="#DejaVuSans-75"/>
      <use x="293.994141" xlink:href="#DejaVuSans-6c"/>
      <use x="321.777344" xlink:href="#DejaVuSans-61"/>
      <use x="383.056641" xlink:href="#DejaVuSans-74"/>
      <use x="422.265625" xlink:href="#DejaVuSans-69"/>
      <use x="450.048828" xlink:href="#DejaVuSans-76"/>
      <use x="509.228516" xlink:href="#DejaVuSans-65"/>
      <use x="570.751953" xlink:href="#DejaVuSans-20"/>
      <use x="602.539062" xlink:href="#DejaVuSans-52"/>
      <use x="667.521484" xlink:href="#DejaVuSans-65"/>
      <use x="729.044922" xlink:href="#DejaVuSans-77"/>
      <use x="810.832031" xlink:href="#DejaVuSans-61"/>
      <use x="872.111328" xlink:href="#DejaVuSans-72"/>
      <use x="911.474609" xlink:href="#DejaVuSans-64"/>
     </g>
    </g>
    <g id="text_18">
     <!-- 1e7 -->
     <g transform="translate(57.6 38.472)scale(0.1 -0.1)">
      <use xlink:href="#DejaVuSans-31"/>
      <use x="63.623047" xlink:href="#DejaVuSans-65"/>
      <use x="125.146484" xlink:href="#DejaVuSans-37"/>
     </g>
    </g>
   </g>
   <g id="line2d_31">
    <path clip-path="url(#p57f69f0ab0)" d="M 57.6 128.041712 
L 57.77856 107.507507 
L 57.95712 113.959672 
L 58.13568 129.192812 
L 58.31424 128.041712 
L 58.4928 107.507507 
L 58.67136 113.959672 
L 58.84992 129.192812 
L 59.02848 128.041712 
L 59.20704 107.507507 
L 59.3856 113.959672 
L 59.56416 129.192812 
L 59.74272 128.041712 
L 59.92128 107.507507 
L 60.09984 113.959672 
L 60.2784 129.192812 
L 60.45696 128.041712 
L 60.63552 107.507507 
L 60.81408 113.959672 
L 60.99264 129.192812 
L 61.1712 128.041712 
L 61.34976 107.507507 
L 61.52832 113.959672 
L 61.70688 129.192812 
L 61.88544 128.041712 
L 62.064 107.507507 
L 62.24256 113.959672 
L 62.42112 129.192812 
L 62.59968 128.041712 
L 62.77824 107.507507 
L 62.9568 113.959672 
L 63.13536 129.192812 
L 63.31392 128.041712 
L 63.49248 107.507507 
L 63.67104 113.959672 
L 63.8496 129.192812 
L 64.02816 128.041712 
L 64.20672 107.507507 
L 64.38528 113.959672 
L 64.56384 129.192812 
L 64.7424 128.041712 
L 64.92096 107.507507 
L 65.09952 113.959672 
L 65.27808 129.192812 
L 65.45664 128.041712 
L 65.6352 107.507507 
L 65.81376 113.959672 
L 65.99232 129.192812 
L 66.17088 128.041712 
L 66.34944 107.507507 
L 66.528 113.959672 
L 66.70656 129.192812 
L 66.88512 128.041712 
L 67.06368 107.507507 
L 67.24224 113.959672 
L 67.4208 129.192812 
L 67.59936 128.041712 
L 67.77792 107.507507 
L 67.95648 113.959672 
L 68.13504 129.192812 
L 68.3136 128.041712 
L 68.49216 107.507507 
L 68.67072 113.959672 
L 68.84928 129.192812 
L 69.02784 128.041712 
L 69.2064 107.507507 
L 69.38496 113.959672 
L 69.56352 129.192812 
L 69.74208 128.041712 
L 69.92064 107.507507 
L 70.0992 113.959672 
L 70.27776 129.192812 
L 70.45632 128.041712 
L 70.63488 107.507507 
L 70.81344 113.959672 
L 70.992 129.192812 
L 71.17056 128.041712 
L 71.34912 107.507507 
L 71.52768 113.959672 
L 71.70624 129.192812 
L 71.8848 128.041712 
L 72.06336 107.507507 
L 72.24192 113.959672 
L 72.42048 129.192812 
L 72.59904 128.041712 
L 72.7776 107.507507 
L 72.95616 113.959672 
L 73.13472 129.192812 
L 73.31328 128.041712 
L 73.49184 107.507507 
L 73.6704 113.959672 
L 73.84896 129.192812 
L 74.02752 128.041712 
L 74.20608 107.507507 
L 74.38464 113.959672 
L 74.5632 129.192812 
L 74.74176 128.041712 
L 74.92032 107.507507 
L 75.09888 113.959672 
L 75.27744 129.192812 
L 75.456 128.797183 
L 75.63456 79.765657 
L 75.81312 98.077334 
L 75.99168 97.125447 
L 76.17024 132.606393 
L 76.3488 85.633834 
L 76.52736 95.51853 
L 76.70592 75.258347 
L 76.88448 135.141815 
L 77.06304 242.118583 
L 77.2416 103.295403 
L 77.42016 107.953455 
L 77.59872 99.778721 
L 77.77728 86.489931 
L 77.95584 137.695914 
L 78.31296 91.78766 
L 78.84864 117.095682 
L 79.20576 70.113581 
L 79.38432 120.458338 
L 79.56288 91.199479 
L 79.74144 89.788994 
L 79.92 83.288722 
L 80.09856 96.84101 
L 80.27712 92.660886 
L 80.45568 198.258803 
L 80.63424 93.379931 
L 80.8128 84.838261 
L 80.99136 136.82906 
L 81.34848 84.157954 
L 81.52704 89.579719 
L 81.88416 85.257 
L 82.41984 104.36328 
L 82.5984 81.611631 
L 82.77696 95.150784 
L 82.95552 94.108624 
L 83.13408 95.115755 
L 83.31264 91.082409 
L 83.4912 118.525449 
L 83.66976 111.416484 
L 83.84832 115.712612 
L 84.02688 77.728497 
L 84.20544 113.2254 
L 84.384 103.927048 
L 84.56256 111.407442 
L 84.74112 113.983846 
L 85.09824 102.373165 
L 85.2768 95.545874 
L 85.45536 95.723784 
L 85.63392 82.41819 
L 85.81248 110.277934 
L 85.99104 114.24116 
L 86.1696 111.445285 
L 86.34816 98.853423 
L 86.52672 101.29201 
L 86.70528 82.966843 
L 86.88384 93.569578 
L 87.24096 87.739292 
L 87.41952 109.148206 
L 87.59808 108.531149 
L 87.77664 133.536618 
L 87.9552 86.118394 
L 88.13376 91.610773 
L 88.31232 124.595751 
L 88.49088 95.038846 
L 88.66944 122.89675 
L 88.848 126.647695 
L 89.02656 113.66655 
L 89.20512 76.765185 
L 89.38368 114.971024 
L 89.56224 91.629859 
L 89.7408 106.125178 
L 89.91936 90.038368 
L 90.27648 126.326411 
L 90.45504 113.152554 
L 90.6336 123.800125 
L 90.81216 94.185331 
L 90.99072 95.808407 
L 91.16928 125.261286 
L 91.34784 182.753782 
L 91.5264 92.154551 
L 91.70496 90.074071 
L 91.88352 94.88102 
L 92.06208 96.664779 
L 92.24064 90.176755 
L 92.4192 95.705382 
L 92.59776 97.369623 
L 92.77632 103.197408 
L 92.95488 100.35934 
L 93.13344 163.641268 
L 93.312 91.010185 
L 93.49056 123.755582 
L 93.66912 106.676531 
L 93.84768 102.331881 
L 94.02624 83.637525 
L 94.2048 90.910078 
L 94.38336 92.823805 
L 94.56192 144.652365 
L 94.74048 104.405926 
L 94.91904 95.930751 
L 95.0976 109.539209 
L 95.27616 111.072417 
L 95.45472 169.011812 
L 95.63328 103.073735 
L 95.81184 119.648023 
L 95.9904 94.204005 
L 96.16896 186.978706 
L 96.34752 88.58283 
L 96.52608 83.424381 
L 96.70464 180.503345 
L 96.8832 90.80468 
L 97.06176 84.349985 
L 97.24032 95.916886 
L 97.41888 88.742321 
L 97.776 121.009215 
L 97.95456 84.560035 
L 98.31168 138.013445 
L 98.49024 91.495732 
L 99.02592 128.105529 
L 99.38304 84.244717 
L 99.5616 110.247541 
L 99.74016 94.602649 
L 99.91872 107.451738 
L 100.27584 79.561242 
L 100.4544 136.859684 
L 100.63296 86.031029 
L 100.81152 93.29891 
L 100.99008 149.921122 
L 101.16864 89.806815 
L 101.3472 115.110551 
L 101.52576 71.665912 
L 101.70432 78.203288 
L 101.88288 109.533125 
L 102.06144 92.597853 
L 102.24 129.532216 
L 102.41856 100.760645 
L 102.59712 118.389473 
L 102.77568 124.715922 
L 102.95424 95.836418 
L 103.1328 106.190579 
L 103.31136 153.610984 
L 103.66848 87.54954 
L 103.84704 184.080557 
L 104.38272 92.790539 
L 104.56128 115.894953 
L 104.73984 74.905664 
L 104.9184 79.223055 
L 105.09696 150.786027 
L 105.27552 91.007249 
L 105.45408 99.107913 
L 105.63264 100.938378 
L 105.98976 90.161373 
L 106.16832 146.025322 
L 106.52544 112.62266 
L 106.704 129.289483 
L 106.88256 81.426106 
L 107.06112 91.206618 
L 107.23968 111.943648 
L 107.5968 80.095129 
L 107.77536 84.883572 
L 107.95392 78.575423 
L 108.13248 76.248235 
L 108.31104 92.140873 
L 108.4896 90.626968 
L 108.66816 96.402772 
L 108.84672 71.155181 
L 109.02528 190.064969 
L 109.20384 91.878931 
L 109.3824 106.729257 
L 109.56096 187.468738 
L 109.73952 100.276071 
L 110.09664 88.61367 
L 110.2752 112.736176 
L 110.45376 76.811797 
L 110.63232 104.778074 
L 110.81088 78.011556 
L 110.98944 87.679 
L 111.168 91.327282 
L 111.34656 86.169091 
L 111.52512 91.008 
L 111.70368 99.149939 
L 111.88224 99.283817 
L 112.23936 80.230297 
L 112.77504 112.998614 
L 113.13216 79.457815 
L 113.31072 90.096724 
L 113.48928 85.53266 
L 113.66784 99.927437 
L 113.8464 138.687219 
L 114.02496 83.57786 
L 114.20352 82.89607 
L 114.38208 118.521784 
L 114.56064 77.578893 
L 114.7392 95.183314 
L 114.91776 147.202064 
L 115.09632 81.40016 
L 115.27488 107.449816 
L 115.45344 90.253134 
L 115.632 99.258353 
L 115.81056 118.794447 
L 115.98912 88.018118 
L 116.16768 109.104097 
L 116.34624 100.189907 
L 116.5248 100.550367 
L 116.70336 92.239456 
L 116.88192 99.861163 
L 117.06048 97.253393 
L 117.23904 78.221043 
L 117.4176 85.819194 
L 117.59616 108.666246 
L 117.77472 80.204071 
L 117.95328 113.103401 
L 118.3104 68.721785 
L 118.48896 90.744167 
L 118.66752 91.454093 
L 118.84608 89.155496 
L 119.02464 78.103144 
L 119.2032 122.65778 
L 119.38176 86.039905 
L 119.56032 83.477793 
L 119.73888 107.285687 
L 119.91744 75.335581 
L 120.27456 105.348081 
L 120.63168 78.760351 
L 120.9888 93.714216 
L 121.16736 93.628377 
L 121.34592 115.726763 
L 121.52448 80.299908 
L 121.70304 91.573849 
L 121.8816 93.355183 
L 122.06016 99.815056 
L 122.23872 77.279758 
L 122.41728 79.320936 
L 122.59584 96.564968 
L 122.95296 75.218998 
L 123.13152 78.976546 
L 123.31008 131.572137 
L 123.48864 117.256828 
L 123.6672 87.436202 
L 123.84576 82.838833 
L 124.56 93.260162 
L 124.73856 127.067916 
L 124.91712 87.661525 
L 125.09568 104.764448 
L 125.27424 82.849312 
L 125.4528 97.530488 
L 125.63136 79.137404 
L 125.98848 113.140951 
L 126.16704 109.606612 
L 126.3456 80.902335 
L 126.52416 105.702787 
L 126.70272 92.385503 
L 126.88128 98.683461 
L 127.05984 146.605057 
L 127.2384 79.180983 
L 127.41696 86.18003 
L 127.59552 83.951429 
L 127.77408 78.040288 
L 127.95264 84.104357 
L 128.1312 83.13909 
L 128.30976 80.816669 
L 128.48832 80.883657 
L 128.66688 90.269224 
L 129.024 81.234799 
L 129.20256 79.815016 
L 129.38112 199.122442 
L 129.55968 113.053313 
L 129.73824 97.715967 
L 129.9168 98.270033 
L 130.09536 82.377897 
L 130.27392 85.010902 
L 130.45248 77.890782 
L 130.63104 144.779352 
L 130.8096 89.108355 
L 130.98816 102.399263 
L 131.16672 87.137362 
L 131.34528 85.472519 
L 131.52384 78.447793 
L 131.7024 78.399332 
L 131.88096 83.46894 
L 132.05952 94.239462 
L 132.23808 71.134479 
L 132.41664 81.594317 
L 132.5952 76.578974 
L 132.77376 78.620047 
L 133.13088 91.705884 
L 133.30944 120.1005 
L 133.488 86.011061 
L 133.66656 113.198374 
L 133.84512 84.644774 
L 134.02368 75.764786 
L 134.20224 79.321945 
L 134.3808 95.702395 
L 134.55936 73.136992 
L 134.73792 95.373162 
L 134.91648 73.389893 
L 135.09504 100.1335 
L 135.2736 86.504284 
L 135.45216 152.236224 
L 135.63072 87.367869 
L 135.80928 100.196393 
L 135.98784 71.890916 
L 136.34496 97.055667 
L 136.52352 94.657366 
L 136.70208 100.311259 
L 136.88064 92.293919 
L 137.0592 141.980238 
L 137.23776 84.294346 
L 137.41632 129.909214 
L 137.59488 80.563321 
L 137.77344 94.975026 
L 137.952 83.452204 
L 138.13056 85.914041 
L 138.30912 107.795902 
L 138.66624 82.748187 
L 138.8448 83.233808 
L 139.02336 87.061384 
L 139.20192 81.65481 
L 139.38048 104.154844 
L 139.55904 86.750642 
L 139.7376 90.787231 
L 139.91616 76.31565 
L 140.09472 79.338266 
L 140.27328 88.175586 
L 140.45184 84.561833 
L 140.6304 108.313348 
L 140.80896 81.492976 
L 140.98752 98.297869 
L 141.16608 88.090931 
L 141.34464 115.079977 
L 141.5232 78.280618 
L 141.70176 73.162157 
L 141.88032 78.39364 
L 142.05888 77.907083 
L 142.23744 86.637782 
L 142.416 157.823466 
L 142.59456 102.023662 
L 142.95168 83.656149 
L 143.13024 80.67151 
L 143.3088 71.699716 
L 143.48736 86.795333 
L 143.66592 79.592991 
L 143.84448 119.174712 
L 144.02304 93.50388 
L 144.38016 99.420278 
L 144.55872 74.332289 
L 144.91584 122.843154 
L 145.0944 79.969403 
L 145.27296 129.880663 
L 145.45152 84.37664 
L 145.63008 87.225045 
L 145.80864 101.42889 
L 145.9872 91.894558 
L 146.16576 92.397924 
L 146.34432 90.76094 
L 146.52288 83.274772 
L 146.70144 103.972703 
L 147.05856 95.072565 
L 147.23712 105.498939 
L 147.41568 78.050262 
L 147.59424 82.570202 
L 147.7728 102.809959 
L 148.12992 72.893766 
L 148.84416 103.270379 
L 149.20128 79.346491 
L 149.37984 84.955744 
L 149.5584 75.799225 
L 149.73696 75.642561 
L 149.91552 78.923269 
L 150.27264 138.132082 
L 150.4512 115.624888 
L 150.62976 122.579981 
L 150.80832 78.339169 
L 150.98688 71.847769 
L 151.16544 72.174978 
L 151.344 83.563636 
L 151.52256 70.742879 
L 151.70112 67.061979 
L 151.87968 81.957008 
L 152.05824 121.668932 
L 152.2368 72.630047 
L 152.41536 85.357329 
L 152.59392 107.172743 
L 152.77248 75.500513 
L 152.95104 81.906964 
L 153.1296 81.572307 
L 153.30816 86.569527 
L 153.48672 121.197264 
L 153.66528 70.236925 
L 154.0224 75.446656 
L 154.20096 88.001737 
L 154.37952 116.11966 
L 154.73664 68.561773 
L 154.9152 68.4349 
L 155.09376 119.315776 
L 155.27232 70.187155 
L 155.45088 70.906654 
L 155.62944 85.446291 
L 155.808 76.069767 
L 155.98656 89.622932 
L 156.34368 69.671061 
L 156.52224 74.591169 
L 156.7008 115.460887 
L 156.87936 83.405398 
L 157.05792 103.19343 
L 157.23648 71.044213 
L 157.41504 80.232147 
L 157.5936 107.096244 
L 157.77216 99.072629 
L 157.95072 71.97598 
L 158.12928 84.546701 
L 158.30784 134.439983 
L 158.4864 92.601714 
L 158.66496 78.454346 
L 158.84352 113.862074 
L 159.02208 72.968942 
L 159.3792 77.041358 
L 159.55776 101.200359 
L 159.73632 87.171309 
L 160.09344 100.433669 
L 160.272 76.077554 
L 160.45056 78.890601 
L 160.62912 72.508983 
L 160.80768 93.634322 
L 161.1648 81.580566 
L 161.34336 89.565282 
L 161.52192 80.107992 
L 161.70048 90.199668 
L 161.87904 73.554241 
L 162.0576 96.971459 
L 162.23616 79.451351 
L 162.41472 81.802996 
L 162.59328 79.719998 
L 162.77184 81.209319 
L 162.9504 102.736558 
L 163.12896 91.701071 
L 163.30752 93.754902 
L 163.48608 85.035121 
L 163.66464 90.597141 
L 163.8432 77.451881 
L 164.02176 82.507905 
L 164.37888 73.043112 
L 164.55744 72.852356 
L 164.736 88.285683 
L 164.91456 118.505733 
L 165.09312 104.400501 
L 165.27168 133.116976 
L 165.45024 67.585527 
L 165.80736 93.474282 
L 165.98592 88.086755 
L 166.16448 113.91386 
L 166.34304 80.909185 
L 166.5216 97.114166 
L 166.70016 132.173408 
L 166.87872 72.956848 
L 167.05728 82.894751 
L 167.23584 110.706616 
L 167.4144 76.635801 
L 167.59296 67.862752 
L 167.77152 94.311026 
L 167.95008 83.417538 
L 168.12864 87.697939 
L 168.3072 99.538018 
L 168.48576 67.95723 
L 168.66432 85.051489 
L 168.84288 67.704236 
L 169.02144 82.534122 
L 169.2 86.135299 
L 169.37856 102.451213 
L 169.55712 86.292198 
L 169.73568 93.656426 
L 169.91424 80.186476 
L 170.0928 91.326487 
L 170.27136 77.924512 
L 170.44992 98.562823 
L 170.62848 67.321095 
L 170.80704 120.262701 
L 170.9856 82.682114 
L 171.16416 69.668608 
L 171.34272 96.633315 
L 171.52128 82.609143 
L 171.69984 87.755848 
L 171.8784 82.941833 
L 172.05696 81.717314 
L 172.23552 89.554222 
L 172.59264 66.908997 
L 172.7712 69.760073 
L 172.94976 76.750798 
L 173.12832 77.110024 
L 173.30688 81.338527 
L 173.48544 92.255102 
L 173.664 110.479329 
L 173.84256 76.49298 
L 174.02112 95.170505 
L 174.19968 91.804688 
L 174.37824 66.626255 
L 174.5568 99.201866 
L 174.73536 75.477838 
L 174.91392 97.407699 
L 175.09248 67.90163 
L 175.27104 89.850541 
L 175.4496 68.542249 
L 175.62816 171.269645 
L 175.80672 76.477629 
L 175.98528 90.67896 
L 176.16384 76.117336 
L 176.3424 72.785327 
L 176.52096 96.320227 
L 176.87808 68.713868 
L 177.05664 120.600076 
L 177.59232 67.473138 
L 177.77088 114.633677 
L 178.128 65.078557 
L 178.30656 73.611928 
L 178.48512 75.777535 
L 178.66368 69.307041 
L 178.84224 69.031354 
L 179.0208 104.112114 
L 179.19936 71.063719 
L 179.37792 67.934551 
L 179.55648 77.053021 
L 179.73504 147.361645 
L 179.9136 82.870805 
L 180.09216 79.249591 
L 180.27072 106.149801 
L 180.8064 67.374917 
L 180.98496 69.010256 
L 181.34208 74.482384 
L 181.52064 66.082759 
L 181.87776 89.268934 
L 182.05632 81.687102 
L 182.23488 79.570524 
L 182.41344 69.187143 
L 182.592 72.357281 
L 182.77056 68.659455 
L 183.12768 92.733835 
L 183.30624 64.14016 
L 183.4848 87.509181 
L 183.66336 77.815301 
L 183.84192 85.049146 
L 184.02048 67.063 
L 184.19904 80.891729 
L 184.3776 75.254832 
L 184.55616 75.092012 
L 184.73472 73.680482 
L 184.91328 74.993908 
L 185.09184 122.808574 
L 185.2704 72.522334 
L 185.44896 76.258099 
L 185.62752 64.812618 
L 185.80608 69.287562 
L 186.1632 100.914852 
L 186.34176 117.111205 
L 186.52032 72.964999 
L 186.87744 79.086216 
L 187.056 102.793935 
L 187.23456 84.281598 
L 187.59168 75.18467 
L 187.77024 67.528009 
L 187.9488 73.636753 
L 188.12736 68.270512 
L 188.30592 67.858862 
L 188.48448 93.480044 
L 188.66304 88.916328 
L 188.8416 90.581626 
L 189.02016 67.095676 
L 189.19872 69.638639 
L 189.37728 65.718249 
L 189.55584 68.120555 
L 189.7344 67.121495 
L 190.09152 86.273806 
L 190.27008 76.864485 
L 190.44864 89.358335 
L 190.6272 69.894595 
L 190.80576 76.100483 
L 190.98432 77.616449 
L 191.16288 67.69481 
L 191.34144 70.278466 
L 191.52 130.207333 
L 191.69856 73.30475 
L 191.87712 90.686726 
L 192.05568 73.992166 
L 192.23424 89.055676 
L 192.4128 93.878031 
L 192.59136 85.632134 
L 192.76992 92.106385 
L 192.94848 67.177259 
L 193.12704 97.618453 
L 193.3056 69.238856 
L 193.48416 69.897756 
L 193.66272 73.443943 
L 193.84128 86.858591 
L 194.01984 77.402424 
L 194.1984 77.435184 
L 194.37696 102.746596 
L 194.55552 100.217211 
L 194.73408 75.997127 
L 194.91264 74.379927 
L 195.0912 64.452819 
L 195.62688 71.557581 
L 195.80544 99.283984 
L 195.984 66.636628 
L 196.16256 65.857746 
L 196.34112 87.015276 
L 196.51968 86.217739 
L 196.69824 67.39361 
L 196.8768 64.433473 
L 197.05536 69.871219 
L 197.23392 66.570466 
L 197.41248 66.824415 
L 197.59104 81.323043 
L 197.7696 76.32598 
L 197.94816 64.841303 
L 198.12672 113.547398 
L 198.30528 67.033761 
L 198.48384 73.985873 
L 198.84096 70.676588 
L 199.19808 78.917299 
L 199.37664 122.627235 
L 199.5552 68.99642 
L 199.73376 79.210653 
L 199.91232 67.553065 
L 200.09088 68.83309 
L 200.448 80.636412 
L 200.62656 78.651382 
L 200.80512 66.25938 
L 200.98368 82.515798 
L 201.3408 64.15644 
L 201.69792 67.147425 
L 201.87648 107.005381 
L 202.05504 108.864581 
L 202.2336 99.628139 
L 202.41216 67.671449 
L 202.59072 63.912251 
L 202.94784 79.751371 
L 203.1264 68.323962 
L 203.30496 68.265873 
L 203.48352 75.968642 
L 203.66208 76.78413 
L 203.84064 68.341374 
L 204.19776 75.597351 
L 204.37632 91.7085 
L 204.55488 73.079735 
L 204.73344 66.686839 
L 204.912 65.312409 
L 205.09056 77.034439 
L 205.26912 67.244051 
L 205.44768 71.441479 
L 205.62624 69.151393 
L 205.8048 79.120462 
L 205.98336 64.908272 
L 206.16192 72.270892 
L 206.34048 130.171014 
L 206.51904 75.061675 
L 206.6976 117.450257 
L 206.87616 73.562126 
L 207.05472 74.192372 
L 207.23328 75.918673 
L 207.41184 64.05634 
L 207.5904 74.229218 
L 207.76896 74.945755 
L 207.94752 65.843075 
L 208.12608 78.693093 
L 208.4832 66.853873 
L 208.66176 74.621276 
L 208.84032 69.635917 
L 209.01888 81.462039 
L 209.19744 68.64135 
L 209.376 71.479847 
L 209.55456 71.210552 
L 209.73312 74.067841 
L 209.91168 74.332716 
L 210.09024 66.868927 
L 210.44736 95.340595 
L 210.62592 97.313747 
L 210.98304 69.102371 
L 211.1616 105.974793 
L 211.51872 78.964877 
L 211.69728 72.89493 
L 211.87584 81.900717 
L 212.0544 78.741149 
L 212.23296 65.189289 
L 212.41152 89.657894 
L 212.59008 87.716992 
L 212.76864 68.879182 
L 212.9472 67.961866 
L 213.12576 69.734551 
L 213.30432 76.132965 
L 213.48288 107.737395 
L 213.84 82.077852 
L 214.01856 83.7003 
L 214.19712 78.344365 
L 214.37568 98.311744 
L 214.55424 75.12684 
L 214.7328 69.478279 
L 214.91136 111.069686 
L 215.08992 69.21609 
L 215.26848 68.799919 
L 215.44704 91.135781 
L 215.6256 80.561504 
L 215.80416 98.842851 
L 215.98272 75.099623 
L 216.16128 77.275156 
L 216.5184 69.46848 
L 216.69696 82.436025 
L 216.87552 70.455365 
L 217.05408 80.939059 
L 217.23264 70.930128 
L 217.4112 101.485543 
L 217.58976 81.608855 
L 217.76832 79.684645 
L 217.94688 70.590419 
L 218.12544 68.223401 
L 218.304 106.817486 
L 218.66112 69.530857 
L 218.83968 76.100958 
L 219.01824 72.18131 
L 219.1968 84.578776 
L 219.37536 112.209688 
L 219.55392 76.637776 
L 219.73248 151.649296 
L 219.91104 76.415799 
L 220.0896 70.604743 
L 220.44672 68.52224 
L 220.62528 74.097403 
L 220.80384 97.096119 
L 220.9824 72.054168 
L 221.16096 65.973857 
L 221.51808 69.66187 
L 221.8752 78.061924 
L 222.05376 91.861431 
L 222.23232 76.569474 
L 222.41088 182.998559 
L 222.58944 111.912789 
L 223.12512 72.951835 
L 223.30368 70.325413 
L 223.48224 75.856369 
L 223.6608 74.17567 
L 223.83936 103.395989 
L 224.19648 70.573102 
L 224.37504 65.906718 
L 224.5536 79.386677 
L 224.73216 69.499863 
L 224.91072 122.367133 
L 225.4464 71.121596 
L 225.62496 68.138152 
L 225.80352 232.833401 
L 225.98208 84.005444 
L 226.16064 65.041362 
L 226.3392 83.815302 
L 226.51776 69.890121 
L 226.69632 76.200731 
L 226.87488 68.239892 
L 227.05344 75.998442 
L 227.232 72.50205 
L 227.41056 71.477258 
L 227.58912 67.929203 
L 227.76768 68.013593 
L 227.94624 70.464285 
L 228.1248 82.700379 
L 228.30336 68.194682 
L 228.48192 76.699964 
L 228.66048 98.734546 
L 228.83904 64.894419 
L 229.37472 81.841334 
L 229.55328 74.670116 
L 229.73184 74.873937 
L 229.9104 84.831203 
L 230.08896 69.938208 
L 230.26752 79.771672 
L 230.44608 66.043818 
L 230.62464 81.378896 
L 230.8032 67.645581 
L 230.98176 74.398183 
L 231.16032 71.514187 
L 231.33888 107.250324 
L 231.51744 76.45194 
L 231.696 69.236194 
L 231.87456 74.043039 
L 232.05312 71.39462 
L 232.23168 85.164109 
L 232.41024 68.410024 
L 232.5888 87.161779 
L 232.94592 84.723029 
L 233.12448 73.119086 
L 233.30304 91.771146 
L 233.4816 76.889664 
L 233.66016 76.32305 
L 233.83872 72.967612 
L 234.01728 82.285912 
L 234.19584 71.641957 
L 234.3744 69.765429 
L 234.55296 70.386862 
L 234.73152 67.601881 
L 234.91008 97.199412 
L 235.2672 69.211643 
L 235.44576 66.080725 
L 235.62432 76.265798 
L 235.80288 64.369933 
L 235.98144 83.695591 
L 236.16 70.8918 
L 236.33856 120.686606 
L 236.51712 70.220647 
L 236.69568 149.122982 
L 236.87424 80.623349 
L 237.0528 97.597143 
L 237.23136 70.043169 
L 237.40992 68.244378 
L 237.58848 119.755281 
L 237.76704 74.177022 
L 237.9456 69.997327 
L 238.30272 96.368035 
L 238.48128 143.215903 
L 238.65984 69.181441 
L 238.8384 71.647495 
L 239.01696 79.58564 
L 239.19552 76.890775 
L 239.37408 84.643406 
L 239.55264 84.506464 
L 239.7312 71.700556 
L 239.90976 110.049595 
L 240.08832 114.32384 
L 240.26688 67.681488 
L 240.44544 68.813105 
L 240.80256 76.796874 
L 240.98112 66.023685 
L 241.33824 81.427883 
L 241.5168 70.167968 
L 241.87392 94.376694 
L 242.23104 72.84403 
L 242.4096 68.627687 
L 242.58816 71.415992 
L 242.76672 67.563295 
L 242.94528 77.395268 
L 243.12384 71.253108 
L 243.3024 86.692152 
L 243.65952 77.390397 
L 243.83808 98.05212 
L 244.01664 74.949736 
L 244.1952 77.14094 
L 244.37376 65.208098 
L 244.55232 74.729125 
L 244.73088 98.150176 
L 244.90944 68.171365 
L 245.088 67.351487 
L 245.26656 88.572344 
L 245.44512 73.923011 
L 245.80224 94.124974 
L 245.9808 74.871559 
L 246.15936 82.896404 
L 246.33792 65.536457 
L 246.51648 85.362534 
L 246.69504 69.294711 
L 246.8736 84.224698 
L 247.40928 67.557373 
L 247.58784 66.356342 
L 247.7664 70.068359 
L 247.94496 70.302174 
L 248.12352 64.775235 
L 248.48064 69.569707 
L 248.83776 74.367182 
L 249.01632 81.215148 
L 249.37344 68.936588 
L 249.552 91.000884 
L 249.73056 67.456528 
L 250.08768 92.866303 
L 250.26624 73.834408 
L 250.4448 84.183402 
L 250.62336 85.253945 
L 250.80192 74.430365 
L 250.98048 87.090344 
L 251.3376 68.302097 
L 251.51616 72.491097 
L 251.69472 103.772885 
L 251.87328 105.201564 
L 252.05184 66.975138 
L 252.2304 70.212074 
L 252.58752 79.940792 
L 253.1232 70.989226 
L 253.30176 73.31303 
L 253.48032 65.696293 
L 253.65888 65.026397 
L 253.83744 86.092928 
L 254.016 82.920606 
L 254.19456 72.137953 
L 254.37312 154.973828 
L 254.55168 73.598425 
L 254.73024 70.991142 
L 254.9088 74.280825 
L 255.08736 92.998886 
L 255.26592 66.055558 
L 255.44448 81.205813 
L 255.62304 82.74977 
L 255.8016 77.948218 
L 256.15872 76.073546 
L 256.33728 70.86654 
L 256.6944 78.805341 
L 256.87296 92.676437 
L 257.05152 68.875993 
L 257.40864 82.276827 
L 257.5872 79.766758 
L 257.76576 98.348476 
L 257.94432 76.8361 
L 258.12288 104.60564 
L 258.30144 72.44334 
L 258.48 76.663401 
L 258.65856 77.05231 
L 258.83712 67.582139 
L 259.01568 73.707846 
L 259.19424 65.684042 
L 259.3728 93.300178 
L 259.72992 72.419688 
L 259.90848 79.958002 
L 260.08704 98.924021 
L 260.2656 74.913554 
L 260.44416 76.769465 
L 260.62272 72.049401 
L 260.80128 72.49176 
L 260.97984 93.099928 
L 261.1584 66.287659 
L 261.33696 82.25823 
L 261.51552 80.692866 
L 261.69408 193.84838 
L 261.87264 86.277546 
L 262.0512 141.103287 
L 262.22976 80.470742 
L 262.40832 122.378416 
L 262.58688 67.596936 
L 262.76544 70.359915 
L 262.944 79.812146 
L 263.12256 112.668641 
L 263.30112 73.979871 
L 263.47968 75.385135 
L 263.65824 93.413469 
L 264.01536 70.150884 
L 264.19392 67.720099 
L 264.37248 96.575041 
L 264.7296 66.470875 
L 264.90816 75.394673 
L 265.08672 69.357067 
L 265.26528 82.038953 
L 265.44384 73.233851 
L 265.6224 77.718746 
L 265.80096 74.982892 
L 265.97952 75.080664 
L 266.15808 90.379243 
L 266.33664 67.410891 
L 266.5152 68.292883 
L 266.87232 83.727471 
L 267.05088 81.665051 
L 267.22944 72.442424 
L 267.408 75.389054 
L 267.58656 69.691163 
L 267.76512 71.768709 
L 267.94368 72.352688 
L 268.12224 122.123447 
L 268.47936 68.887991 
L 268.65792 75.850206 
L 268.83648 68.781412 
L 269.01504 89.013629 
L 269.1936 89.49907 
L 269.37216 90.335324 
L 269.55072 87.265274 
L 269.72928 68.74638 
L 269.90784 68.224301 
L 270.26496 84.739048 
L 270.44352 69.842164 
L 270.62208 75.529309 
L 270.80064 86.031104 
L 270.9792 223.411271 
L 271.15776 89.944747 
L 271.33632 76.394401 
L 271.51488 81.904867 
L 271.69344 77.978999 
L 271.872 88.744124 
L 272.05056 70.311938 
L 272.22912 97.585594 
L 272.40768 66.834967 
L 272.58624 72.181421 
L 272.7648 82.424116 
L 272.94336 72.780817 
L 273.12192 156.955677 
L 273.30048 68.943954 
L 273.47904 78.607795 
L 273.6576 79.506128 
L 273.83616 117.51674 
L 274.01472 77.188762 
L 274.19328 74.15223 
L 274.37184 98.751729 
L 274.72896 70.672017 
L 274.90752 76.008084 
L 275.08608 95.91251 
L 275.26464 77.386261 
L 275.62176 66.26659 
L 275.80032 74.857858 
L 275.97888 96.669143 
L 276.15744 73.322103 
L 276.336 73.515297 
L 276.51456 65.821262 
L 276.69312 94.430641 
L 276.87168 87.054047 
L 277.05024 90.17885 
L 277.2288 68.782907 
L 277.40736 73.528658 
L 277.58592 72.879062 
L 277.76448 93.777486 
L 277.94304 79.59559 
L 278.1216 145.071932 
L 278.30016 80.462797 
L 278.47872 71.398417 
L 278.65728 77.434883 
L 278.83584 89.90688 
L 279.0144 65.441193 
L 279.19296 67.003951 
L 279.37152 76.086101 
L 279.55008 76.519916 
L 279.9072 99.972568 
L 280.26432 70.424561 
L 280.44288 70.42862 
L 280.62144 106.094314 
L 280.8 73.000898 
L 280.97856 88.594593 
L 281.15712 77.087469 
L 281.33568 86.739675 
L 281.51424 65.6109 
L 281.6928 74.387092 
L 281.87136 65.807245 
L 282.04992 73.987493 
L 282.22848 65.265682 
L 282.40704 88.55074 
L 282.5856 77.359726 
L 282.76416 82.6713 
L 282.94272 94.948709 
L 283.12128 78.643576 
L 283.29984 74.386635 
L 283.65696 95.6674 
L 283.83552 77.722771 
L 284.01408 79.95467 
L 284.19264 70.360824 
L 284.3712 73.117251 
L 284.54976 64.24675 
L 284.90688 101.048037 
L 285.08544 70.662862 
L 285.264 66.815309 
L 285.44256 77.551984 
L 285.62112 69.813164 
L 285.79968 80.819144 
L 285.97824 80.441918 
L 286.1568 74.971363 
L 286.51392 103.078889 
L 286.69248 85.628721 
L 287.0496 80.482432 
L 287.22816 64.680044 
L 287.76384 106.498276 
L 287.9424 71.92644 
L 288.12096 87.428305 
L 288.47808 80.061406 
L 288.65664 81.445695 
L 288.8352 94.323437 
L 289.19232 71.061582 
L 289.37088 65.055782 
L 289.728 93.263795 
L 289.90656 76.204159 
L 290.08512 77.320442 
L 290.26368 83.848107 
L 290.44224 74.701289 
L 290.6208 120.183044 
L 290.79936 76.790507 
L 290.97792 143.682655 
L 291.15648 77.812867 
L 291.33504 67.507223 
L 291.87072 83.750664 
L 292.04928 73.958913 
L 292.22784 72.170195 
L 292.4064 78.084622 
L 292.58496 77.828259 
L 292.76352 73.864041 
L 292.94208 73.168742 
L 293.12064 79.78954 
L 293.47776 69.255075 
L 293.83488 127.863564 
L 294.01344 87.605364 
L 294.192 108.802557 
L 294.54912 74.293144 
L 294.72768 134.656796 
L 294.90624 79.83516 
L 295.0848 64.178273 
L 295.26336 66.566484 
L 295.44192 83.932259 
L 295.62048 65.38132 
L 295.79904 87.852213 
L 295.9776 65.740341 
L 296.15616 111.667882 
L 296.33472 83.98551 
L 296.51328 128.957872 
L 296.69184 73.742974 
L 296.8704 69.222462 
L 297.22752 76.956697 
L 297.40608 72.884263 
L 297.58464 84.600174 
L 297.7632 73.083046 
L 297.94176 95.4127 
L 298.29888 73.98022 
L 298.47744 82.666985 
L 298.656 83.029831 
L 298.83456 64.820519 
L 299.01312 79.802546 
L 299.19168 71.818486 
L 299.37024 100.617078 
L 299.5488 72.922321 
L 299.72736 129.941202 
L 299.90592 68.21776 
L 300.08448 75.786122 
L 300.4416 74.830847 
L 300.62016 89.673198 
L 300.79872 65.552902 
L 300.97728 73.953427 
L 301.3344 109.636535 
L 301.69152 72.640093 
L 301.87008 74.371524 
L 302.04864 68.422251 
L 302.2272 101.359365 
L 302.40576 92.600822 
L 302.58432 73.897777 
L 302.76288 109.057018 
L 302.94144 105.080761 
L 303.12 77.017046 
L 303.29856 91.001233 
L 303.47712 73.544218 
L 303.65568 100.867554 
L 303.83424 70.264551 
L 304.0128 119.982623 
L 304.19136 65.278458 
L 304.36992 71.503312 
L 304.54848 113.023988 
L 304.72704 71.633329 
L 304.9056 87.922164 
L 305.08416 64.086921 
L 305.26272 69.273852 
L 305.44128 92.967396 
L 305.61984 77.607716 
L 305.7984 83.876567 
L 305.97696 80.368928 
L 306.15552 87.410522 
L 306.33408 74.740638 
L 306.51264 128.964239 
L 306.6912 80.172421 
L 306.86976 72.991898 
L 307.04832 103.541579 
L 307.40544 70.975763 
L 307.584 94.434482 
L 307.76256 68.378813 
L 307.94112 72.517317 
L 308.11968 66.443301 
L 308.29824 76.598179 
L 308.4768 102.92185 
L 308.65536 69.455873 
L 308.83392 68.911656 
L 309.01248 72.028945 
L 309.19104 284.409436 
L 309.3696 74.597706 
L 309.54816 85.81283 
L 309.72672 72.203002 
L 309.90528 78.31976 
L 310.08384 69.785798 
L 310.2624 69.862262 
L 310.44096 69.505142 
L 310.61952 128.326007 
L 310.79808 107.475848 
L 310.97664 125.361411 
L 311.33376 66.242217 
L 311.51232 120.501583 
L 311.69088 66.102957 
L 311.86944 79.196039 
L 312.048 113.194614 
L 312.22656 78.654172 
L 312.40512 119.84248 
L 312.58368 68.198434 
L 312.76224 71.881599 
L 312.9408 82.451717 
L 313.11936 116.743274 
L 313.65504 67.671756 
L 313.8336 154.412864 
L 314.01216 119.894797 
L 314.19072 136.18832 
L 314.36928 138.899763 
L 314.54784 86.785266 
L 314.7264 68.083805 
L 315.08352 91.520938 
L 315.6192 69.948529 
L 315.79776 71.499236 
L 315.97632 90.594657 
L 316.15488 72.095725 
L 316.33344 70.03256 
L 316.512 64.89332 
L 316.69056 85.915977 
L 316.86912 86.851244 
L 317.04768 89.20177 
L 317.22624 144.709248 
L 317.4048 76.844486 
L 317.58336 72.464773 
L 317.76192 92.526091 
L 317.94048 67.301585 
L 318.11904 80.414049 
L 318.2976 115.658154 
L 318.47616 120.674382 
L 318.65472 87.475602 
L 318.83328 86.552745 
L 319.01184 66.881734 
L 319.1904 95.770141 
L 319.36896 72.572886 
L 319.54752 100.418939 
L 319.72608 285.408 
L 319.90464 96.111241 
L 320.0832 73.814936 
L 320.26176 73.854412 
L 320.44032 136.831965 
L 320.61888 76.003707 
L 320.79744 171.215947 
L 320.976 65.875336 
L 321.15456 97.666262 
L 321.51168 71.161042 
L 321.69024 85.501523 
L 321.8688 69.956068 
L 322.04736 72.243609 
L 322.40448 96.907685 
L 322.58304 71.851285 
L 322.7616 67.751052 
L 322.94016 105.94407 
L 323.11872 69.389076 
L 323.29728 90.408251 
L 323.6544 78.218607 
L 323.83296 76.372068 
L 324.01152 120.226172 
L 324.36864 73.429943 
L 324.5472 72.951798 
L 324.72576 76.185456 
L 324.90432 121.757452 
L 325.08288 85.910593 
L 325.44 64.435046 
L 325.61856 86.175189 
L 325.79712 76.536135 
L 325.97568 89.026099 
L 326.15424 76.964103 
L 326.3328 76.83032 
L 326.51136 84.079556 
L 326.68992 83.871243 
L 326.86848 69.394921 
L 327.04704 71.718421 
L 327.2256 91.535973 
L 327.40416 79.781353 
L 327.58272 78.06914 
L 327.76128 94.032656 
L 327.93984 77.385255 
L 328.1184 72.536392 
L 328.29696 92.726883 
L 328.47552 71.523342 
L 328.65408 89.237297 
L 329.0112 78.570958 
L 329.18976 124.164894 
L 329.36832 69.26547 
L 329.72544 76.468485 
L 329.904 107.278527 
L 330.26112 67.223004 
L 330.43968 67.549118 
L 330.61824 100.666114 
L 330.7968 102.610478 
L 331.33248 68.449421 
L 331.51104 91.297409 
L 331.6896 72.411451 
L 331.86816 69.350401 
L 332.04672 99.14962 
L 332.40384 71.399918 
L 332.5824 68.657929 
L 332.76096 86.047997 
L 332.93952 72.854352 
L 333.11808 69.275819 
L 333.29664 106.318181 
L 333.4752 265.930039 
L 333.65376 72.884842 
L 333.83232 136.016587 
L 334.18944 69.584546 
L 334.368 72.484963 
L 334.54656 67.123963 
L 334.72512 96.034529 
L 335.08224 72.140217 
L 335.2608 97.182844 
L 335.43936 84.662555 
L 335.61792 97.372246 
L 335.79648 148.944126 
L 336.1536 75.73121 
L 336.33216 70.00132 
L 336.51072 81.764489 
L 336.68928 67.162971 
L 336.86784 86.448304 
L 337.22496 70.652792 
L 337.40352 99.180923 
L 337.58208 82.358077 
L 337.76064 101.102941 
L 337.9392 157.400604 
L 338.11776 71.463249 
L 338.29632 118.025081 
L 338.47488 67.713794 
L 338.65344 74.82091 
L 338.832 69.723764 
L 339.01056 74.398496 
L 339.36768 100.564823 
L 339.54624 95.897003 
L 339.90336 68.71563 
L 340.08192 75.233465 
L 340.26048 111.775099 
L 340.43904 79.815617 
L 340.6176 82.081401 
L 340.79616 90.946226 
L 340.97472 73.733582 
L 341.15328 106.900298 
L 341.33184 73.075155 
L 341.5104 84.538324 
L 341.68896 75.473223 
L 342.04608 98.80879 
L 342.22464 70.048741 
L 342.4032 112.944003 
L 342.58176 91.245409 
L 342.76032 86.289089 
L 342.93888 68.694958 
L 343.11744 76.314361 
L 343.296 64.907799 
L 343.47456 134.792047 
L 343.65312 90.555277 
L 343.83168 75.265171 
L 344.1888 84.480491 
L 344.36736 164.971428 
L 344.54592 75.478674 
L 344.72448 77.267582 
L 344.90304 221.659626 
L 345.0816 76.348166 
L 345.26016 79.099239 
L 345.43872 88.528734 
L 345.61728 78.327899 
L 345.79584 86.667147 
L 345.9744 86.28201 
L 346.15296 71.317897 
L 346.33152 81.046885 
L 346.51008 162.341592 
L 346.68864 92.088601 
L 346.8672 79.006702 
L 347.04576 95.601023 
L 347.22432 78.331921 
L 347.40288 75.797695 
L 347.76 101.231085 
L 347.93856 67.946451 
L 348.11712 70.391035 
L 348.47424 93.090476 
L 348.6528 100.537399 
L 349.00992 64.893213 
L 349.18848 77.817345 
L 349.36704 117.705689 
L 349.5456 78.061959 
L 349.72416 124.740353 
L 349.90272 72.834931 
L 350.08128 105.366851 
L 350.25984 97.715947 
L 350.4384 119.008371 
L 350.61696 65.059534 
L 351.3312 79.899067 
L 351.50976 77.104387 
L 351.68832 66.63677 
L 351.86688 108.059692 
L 352.04544 73.673579 
L 352.224 78.867134 
L 352.40256 121.407177 
L 352.75968 73.601592 
L 352.93824 76.783315 
L 353.1168 114.534502 
L 353.47392 75.528496 
L 353.65248 86.267551 
L 353.83104 161.768684 
L 354.0096 75.94155 
L 354.18816 90.996406 
L 354.36672 75.923458 
L 354.72384 108.934699 
L 354.9024 96.453234 
L 355.08096 110.31245 
L 355.25952 85.346178 
L 355.43808 140.08195 
L 355.61664 75.474494 
L 355.7952 74.270985 
L 356.50944 112.451771 
L 356.688 68.66946 
L 356.86656 68.679586 
L 357.04512 66.488238 
L 357.22368 89.868661 
L 357.40224 90.728526 
L 357.5808 139.103122 
L 357.75936 65.58468 
L 357.93792 66.694062 
L 358.29504 93.563321 
L 358.4736 88.879794 
L 358.65216 68.278119 
L 359.18784 78.307792 
L 359.3664 149.441848 
L 359.54496 80.490377 
L 359.72352 195.33037 
L 360.08064 76.572013 
L 360.2592 88.881619 
L 360.43776 144.109229 
L 360.61632 66.864184 
L 360.79488 91.376949 
L 360.97344 72.647575 
L 361.152 78.469186 
L 361.33056 73.240459 
L 361.50912 111.277195 
L 361.68768 73.446215 
L 362.0448 81.989857 
L 362.22336 69.90672 
L 362.40192 76.855617 
L 362.58048 68.65397 
L 362.75904 151.88859 
L 362.9376 69.470225 
L 363.11616 71.855015 
L 363.29472 68.120051 
L 363.47328 81.008631 
L 363.65184 75.227052 
L 363.8304 111.600421 
L 364.00896 108.509939 
L 364.18752 81.456559 
L 364.54464 71.075395 
L 364.7232 76.74683 
L 364.90176 92.971775 
L 365.08032 67.280569 
L 365.43744 88.111775 
L 365.616 71.803047 
L 365.97312 77.54088 
L 366.15168 70.558178 
L 366.33024 91.56539 
L 366.5088 164.989669 
L 366.68736 72.270887 
L 366.86592 80.413003 
L 367.04448 75.507588 
L 367.22304 81.417975 
L 367.4016 129.074958 
L 367.58016 76.296139 
L 367.75872 115.690637 
L 367.93728 87.138435 
L 368.11584 86.884169 
L 368.47296 78.57305 
L 368.65152 81.114144 
L 368.83008 68.402817 
L 369.1872 98.088346 
L 369.36576 126.597958 
L 369.54432 82.940697 
L 369.72288 93.732881 
L 370.08 71.343125 
L 370.25856 98.989559 
L 370.43712 84.679188 
L 370.61568 92.494562 
L 370.79424 69.068464 
L 370.9728 110.243416 
L 371.32992 67.855368 
L 371.50848 94.093535 
L 371.68704 100.227016 
L 371.8656 73.492876 
L 372.04416 71.09972 
L 372.40128 88.134037 
L 372.7584 70.79579 
L 372.93696 125.376083 
L 373.11552 118.543675 
L 373.29408 75.767506 
L 373.47264 116.898 
L 373.6512 72.236092 
L 373.82976 86.583715 
L 374.00832 82.790719 
L 374.18688 100.386006 
L 374.36544 71.751225 
L 374.544 64.410555 
L 374.72256 79.841347 
L 374.90112 130.478233 
L 375.07968 79.568942 
L 375.25824 77.764765 
L 375.61536 70.098177 
L 375.79392 83.214961 
L 375.97248 73.61811 
L 376.15104 78.258138 
L 376.3296 123.697528 
L 376.50816 77.320956 
L 376.68672 71.879847 
L 376.86528 71.032428 
L 377.04384 69.55093 
L 377.2224 76.141 
L 377.40096 108.575538 
L 377.57952 77.746295 
L 377.75808 120.210172 
L 377.93664 88.739657 
L 378.1152 126.424654 
L 378.29376 74.382811 
L 378.47232 82.141389 
L 378.65088 72.920033 
L 378.82944 84.413428 
L 379.008 77.859414 
L 379.18656 76.680878 
L 379.36512 82.828852 
L 379.54368 76.398134 
L 379.72224 76.605471 
L 379.9008 64.892759 
L 380.07936 85.199164 
L 380.43648 69.403488 
L 380.61504 70.598201 
L 380.7936 98.436966 
L 380.97216 103.583646 
L 381.15072 77.809798 
L 381.32928 86.286976 
L 381.50784 80.837642 
L 381.6864 82.785239 
L 381.86496 86.803934 
L 382.04352 70.547214 
L 382.22208 79.18062 
L 382.40064 69.938266 
L 382.5792 79.649159 
L 382.75776 79.903918 
L 382.93632 65.983531 
L 383.11488 65.636623 
L 383.29344 120.647432 
L 383.472 73.057916 
L 383.65056 118.033432 
L 383.82912 81.19561 
L 384.00768 85.316483 
L 384.18624 73.529306 
L 384.3648 81.809992 
L 384.72192 67.387185 
L 384.90048 86.013737 
L 385.07904 83.830522 
L 385.2576 69.935821 
L 385.43616 99.152489 
L 385.61472 82.808896 
L 385.79328 96.248094 
L 385.97184 79.941256 
L 386.1504 111.893431 
L 386.32896 80.936814 
L 386.50752 87.448189 
L 386.68608 73.875912 
L 386.86464 145.653108 
L 387.0432 83.595442 
L 387.22176 81.890632 
L 387.40032 67.489306 
L 387.57888 94.106002 
L 387.75744 72.790351 
L 387.936 94.44884 
L 388.11456 79.950355 
L 388.29312 111.434479 
L 388.47168 67.358438 
L 388.65024 79.785639 
L 388.8288 75.07431 
L 389.00736 73.895151 
L 389.36448 87.19948 
L 389.54304 82.378729 
L 389.7216 90.241239 
L 389.90016 75.689592 
L 390.07872 82.627822 
L 390.25728 82.511903 
L 390.43584 82.262185 
L 390.6144 115.604429 
L 390.79296 72.956331 
L 390.97152 87.033795 
L 391.15008 126.942878 
L 391.32864 80.009492 
L 391.5072 84.107112 
L 391.68576 150.311388 
L 391.86432 78.816672 
L 392.04288 85.522193 
L 392.22144 100.372215 
L 392.4 75.834789 
L 392.57856 146.377592 
L 392.75712 71.676479 
L 392.93568 123.305615 
L 393.11424 73.280688 
L 393.2928 73.915519 
L 393.47136 132.360247 
L 393.64992 79.374173 
L 393.82848 80.766142 
L 394.00704 73.642843 
L 394.1856 90.786206 
L 394.36416 124.376391 
L 394.54272 87.003994 
L 394.72128 89.439465 
L 394.89984 100.737639 
L 395.0784 81.62802 
L 395.25696 87.30441 
L 395.61408 66.738072 
L 396.14976 111.409767 
L 396.32832 101.239832 
L 396.50688 118.296461 
L 396.68544 70.643376 
L 396.864 83.601469 
L 397.04256 85.484442 
L 397.22112 74.543608 
L 397.39968 92.667219 
L 397.57824 82.973566 
L 397.93536 78.197245 
L 398.11392 99.646962 
L 398.29248 90.996371 
L 398.47104 108.115873 
L 398.6496 94.921608 
L 398.82816 121.942569 
L 399.00672 71.680397 
L 399.18528 68.15858 
L 399.36384 81.68991 
L 399.5424 82.298917 
L 399.72096 76.008696 
L 399.89952 88.713563 
L 400.07808 72.669294 
L 400.25664 67.632444 
L 400.4352 78.14933 
L 400.61376 74.070759 
L 400.79232 79.840346 
L 400.97088 78.072874 
L 401.14944 84.458363 
L 401.328 83.677042 
L 401.68512 66.231214 
L 402.04224 84.94085 
L 402.39936 77.223169 
L 402.57792 77.614774 
L 402.75648 84.593763 
L 402.93504 74.762479 
L 403.1136 83.549959 
L 403.29216 70.48796 
L 403.47072 73.979918 
L 403.64928 71.725788 
L 403.82784 73.645409 
L 404.0064 67.230726 
L 404.18496 98.424431 
L 404.54208 72.289816 
L 404.72064 69.174765 
L 404.8992 165.288031 
L 405.07776 81.876432 
L 405.25632 75.310637 
L 405.43488 85.070131 
L 405.61344 69.578705 
L 406.14912 97.933547 
L 406.32768 68.139114 
L 406.50624 69.846771 
L 406.6848 100.097461 
L 407.04192 64.047161 
L 407.22048 72.455424 
L 407.39904 96.573371 
L 407.5776 136.063926 
L 407.75616 79.35564 
L 407.93472 96.939167 
L 408.11328 64.007489 
L 408.29184 68.580098 
L 408.4704 89.131552 
L 408.64896 83.759942 
L 408.82752 72.937392 
L 409.00608 72.954451 
L 409.18464 66.236927 
L 409.3632 66.821762 
L 409.54176 71.123013 
L 409.89888 94.350999 
L 410.07744 97.618605 
L 410.256 93.323105 
L 410.43456 79.475768 
L 410.61312 87.256125 
L 410.79168 78.676738 
L 410.97024 77.447406 
L 411.1488 102.197734 
L 411.32736 78.938339 
L 411.50592 88.920863 
L 411.68448 113.627085 
L 411.86304 71.795202 
L 412.0416 74.0174 
L 412.22016 72.947356 
L 412.39872 78.885213 
L 412.57728 66.250081 
L 412.75584 71.360251 
L 412.9344 68.121475 
L 413.11296 94.557011 
L 413.29152 63.648 
L 413.47008 72.993554 
L 413.64864 90.695611 
L 413.8272 67.29593 
L 414.00576 70.895746 
L 414.18432 112.044619 
L 414.36288 73.736331 
L 414.54144 98.793326 
L 414.54144 98.793326 
" style="fill:none;stroke:#0000ff;stroke-linecap:square;stroke-width:1.5;"/>
   </g>
   <g id="patch_3">
    <path d="M 57.6 307.584 
L 57.6 41.472 
" style="fill:none;stroke:#000000;stroke-linecap:square;stroke-linejoin:miter;stroke-width:0.8;"/>
   </g>
   <g id="patch_4">
    <path d="M 414.72 307.584 
L 414.72 41.472 
" style="fill:none;stroke:#000000;stroke-linecap:square;stroke-linejoin:miter;stroke-width:0.8;"/>
   </g>
   <g id="patch_5">
    <path d="M 57.6 307.584 
L 414.72 307.584 
" style="fill:none;stroke:#000000;stroke-linecap:square;stroke-linejoin:miter;stroke-width:0.8;"/>
   </g>
   <g id="patch_6">
    <path d="M 57.6 41.472 
L 414.72 41.472 
" style="fill:none;stroke:#000000;stroke-linecap:square;stroke-linejoin:miter;stroke-width:0.8;"/>
   </g>
   <g id="legend_1">
    <g id="patch_7">
     <path d="M 64.6 302.584 
L 189.998437 302.584 
Q 191.998437 302.584 191.998437 300.584 
L 191.998437 286.905875 
Q 191.998437 284.905875 189.998437 284.905875 
L 64.6 284.905875 
Q 62.6 284.905875 62.6 286.905875 
L 62.6 300.584 
Q 62.6 302.584 64.6 302.584 
z
" style="fill:#ffffff;opacity:0.8;stroke:#cccccc;stroke-linejoin:miter;"/>
    </g>
    <g id="line2d_32">
     <path d="M 66.6 293.004312 
L 86.6 293.004312 
" style="fill:none;stroke:#0000ff;stroke-linecap:square;stroke-width:1.5;"/>
    </g>
    <g id="line2d_33"/>
    <g id="text_19">
     <!-- cumulative reward -->
     <g transform="translate(94.6 296.504312)scale(0.1 -0.1)">
      <defs>
       <path d="M 3122 3366 
L 3122 2828 
Q 2878 2963 2633 3030 
Q 2388 3097 2138 3097 
Q 1578 3097 1268 2742 
Q 959 2388 959 1747 
Q 959 1106 1268 751 
Q 1578 397 2138 397 
Q 2388 397 2633 464 
Q 2878 531 3122 666 
L 3122 134 
Q 2881 22 2623 -34 
Q 2366 -91 2075 -91 
Q 1284 -91 818 406 
Q 353 903 353 1747 
Q 353 2603 823 3093 
Q 1294 3584 2113 3584 
Q 2378 3584 2631 3529 
Q 2884 3475 3122 3366 
z
" id="DejaVuSans-63" transform="scale(0.015625)"/>
      </defs>
      <use xlink:href="#DejaVuSans-63"/>
      <use x="54.980469" xlink:href="#DejaVuSans-75"/>
      <use x="118.359375" xlink:href="#DejaVuSans-6d"/>
      <use x="215.771484" xlink:href="#DejaVuSans-75"/>
      <use x="279.150391" xlink:href="#DejaVuSans-6c"/>
      <use x="306.933594" xlink:href="#DejaVuSans-61"/>
      <use x="368.212891" xlink:href="#DejaVuSans-74"/>
      <use x="407.421875" xlink:href="#DejaVuSans-69"/>
      <use x="435.205078" xlink:href="#DejaVuSans-76"/>
      <use x="494.384766" xlink:href="#DejaVuSans-65"/>
      <use x="555.908203" xlink:href="#DejaVuSans-20"/>
      <use x="587.695312" xlink:href="#DejaVuSans-72"/>
      <use x="626.558594" xlink:href="#DejaVuSans-65"/>
      <use x="688.082031" xlink:href="#DejaVuSans-77"/>
      <use x="769.869141" xlink:href="#DejaVuSans-61"/>
      <use x="831.148438" xlink:href="#DejaVuSans-72"/>
      <use x="870.511719" xlink:href="#DejaVuSans-64"/>
     </g>
    </g>
   </g>
  </g>
 </g>
 <defs>
  <clipPath id="p57f69f0ab0">
   <rect height="266.112" width="357.12" x="57.6" y="41.472"/>
  </clipPath>
 </defs>
</svg>
