<?xml version="1.0" encoding="utf-8" standalone="no"?>
<!DOCTYPE svg PUBLIC "-//W3C//DTD SVG 1.1//EN"
  "http://www.w3.org/Graphics/SVG/1.1/DTD/svg11.dtd">
<svg height="345.6pt" version="1.1" viewBox="0 0 460.8 345.6" width="460.8pt" xmlns="http://www.w3.org/2000/svg" xmlns:xlink="http://www.w3.org/1999/xlink">
 <metadata>
  <rdf:RDF xmlns:cc="http://creativecommons.org/ns#" xmlns:dc="http://purl.org/dc/elements/1.1/" xmlns:rdf="http://www.w3.org/1999/02/22-rdf-syntax-ns#">
   <cc:Work>
    <dc:type rdf:resource="http://purl.org/dc/dcmitype/StillImage"/>
    <dc:date>2021-10-27T11:31:33.361204</dc:date>
    <dc:description>{"agent.algorithm": "RayProximalPolicyOptimization", "agent.algorithm.render_env": false, "agent.algorithm.num_workers": 0, "agent.algorithm.batch_mode": "complete_episodes", "agent.algorithm.train_batch_size": 200, "agent.algorithm.optimizer": "Adam", "agent.algorithm.vf_clip_param": 10000, "agent.algorithm.model": {"fcnet_activation": "tanh", "fcnet_hiddens": [50, 50]}, "env.env_class": "SchedulerPolicyRayEnvironment", "env.env_config": {"solver_driver": "CMAdriver", "solver_driver_args": [10, 10, 11, 0.38], "maximize": false, "steps": 50, "state_metrics_names": ["DifferenceOfBest", "SolverStateHistory", "SolverState"], "state_metrics_config": [[40, false, 1, true], [{"step_size": {"max": 3, "min": 0}}, 40], [{"ps": {"max": 10, "min": -10}}]], "reward_metric": "Best", "reward_metric_config": [false, false], "memes_no": 1, "action_space_config": {"step_size": {"max": 3, "min": 1e-10}}}}</dc:description>
    <dc:format>image/svg+xml</dc:format>
    <dc:creator>
     <cc:Agent>
      <dc:title>Matplotlib v3.4.3, https://matplotlib.org/</dc:title>
     </cc:Agent>
    </dc:creator>
   </cc:Work>
  </rdf:RDF>
 </metadata>
 <defs>
  <style type="text/css">*{stroke-linecap:butt;stroke-linejoin:round;}</style>
 </defs>
 <g id="figure_1">
  <g id="patch_1">
   <path d="M 0 345.6 
L 460.8 345.6 
L 460.8 0 
L 0 0 
z
" style="fill:#ffffff;"/>
  </g>
  <g id="axes_1">
   <g id="patch_2">
    <path d="M 57.6 307.584 
L 414.72 307.584 
L 414.72 41.472 
L 57.6 41.472 
z
" style="fill:#ffffff;"/>
   </g>
   <g id="matplotlib.axis_1">
    <g id="xtick_1">
     <g id="line2d_1">
      <path clip-path="url(#p8ba3fca090)" d="M 57.6 307.584 
L 57.6 41.472 
" style="fill:none;stroke:#b0b0b0;stroke-linecap:square;stroke-width:0.8;"/>
     </g>
     <g id="line2d_2">
      <defs>
       <path d="M 0 0 
L 0 3.5 
" id="m1463ebc2a7" style="stroke:#000000;stroke-width:0.8;"/>
      </defs>
      <g>
       <use style="stroke:#000000;stroke-width:0.8;" x="57.6" xlink:href="#m1463ebc2a7" y="307.584"/>
      </g>
     </g>
     <g id="text_1">
      <!-- 0 -->
      <g transform="translate(54.41875 322.182437)scale(0.1 -0.1)">
       <defs>
        <path d="M 2034 4250 
Q 1547 4250 1301 3770 
Q 1056 3291 1056 2328 
Q 1056 1369 1301 889 
Q 1547 409 2034 409 
Q 2525 409 2770 889 
Q 3016 1369 3016 2328 
Q 3016 3291 2770 3770 
Q 2525 4250 2034 4250 
z
M 2034 4750 
Q 2819 4750 3233 4129 
Q 3647 3509 3647 2328 
Q 3647 1150 3233 529 
Q 2819 -91 2034 -91 
Q 1250 -91 836 529 
Q 422 1150 422 2328 
Q 422 3509 836 4129 
Q 1250 4750 2034 4750 
z
" id="DejaVuSans-30" transform="scale(0.015625)"/>
       </defs>
       <use xlink:href="#DejaVuSans-30"/>
      </g>
     </g>
    </g>
    <g id="xtick_2">
     <g id="line2d_3">
      <path clip-path="url(#p8ba3fca090)" d="M 129.024 307.584 
L 129.024 41.472 
" style="fill:none;stroke:#b0b0b0;stroke-linecap:square;stroke-width:0.8;"/>
     </g>
     <g id="line2d_4">
      <g>
       <use style="stroke:#000000;stroke-width:0.8;" x="129.024" xlink:href="#m1463ebc2a7" y="307.584"/>
      </g>
     </g>
     <g id="text_2">
      <!-- 200 -->
      <g transform="translate(119.48025 322.182437)scale(0.1 -0.1)">
       <defs>
        <path d="M 1228 531 
L 3431 531 
L 3431 0 
L 469 0 
L 469 531 
Q 828 903 1448 1529 
Q 2069 2156 2228 2338 
Q 2531 2678 2651 2914 
Q 2772 3150 2772 3378 
Q 2772 3750 2511 3984 
Q 2250 4219 1831 4219 
Q 1534 4219 1204 4116 
Q 875 4013 500 3803 
L 500 4441 
Q 881 4594 1212 4672 
Q 1544 4750 1819 4750 
Q 2544 4750 2975 4387 
Q 3406 4025 3406 3419 
Q 3406 3131 3298 2873 
Q 3191 2616 2906 2266 
Q 2828 2175 2409 1742 
Q 1991 1309 1228 531 
z
" id="DejaVuSans-32" transform="scale(0.015625)"/>
       </defs>
       <use xlink:href="#DejaVuSans-32"/>
       <use x="63.623047" xlink:href="#DejaVuSans-30"/>
       <use x="127.246094" xlink:href="#DejaVuSans-30"/>
      </g>
     </g>
    </g>
    <g id="xtick_3">
     <g id="line2d_5">
      <path clip-path="url(#p8ba3fca090)" d="M 200.448 307.584 
L 200.448 41.472 
" style="fill:none;stroke:#b0b0b0;stroke-linecap:square;stroke-width:0.8;"/>
     </g>
     <g id="line2d_6">
      <g>
       <use style="stroke:#000000;stroke-width:0.8;" x="200.448" xlink:href="#m1463ebc2a7" y="307.584"/>
      </g>
     </g>
     <g id="text_3">
      <!-- 400 -->
      <g transform="translate(190.90425 322.182437)scale(0.1 -0.1)">
       <defs>
        <path d="M 2419 4116 
L 825 1625 
L 2419 1625 
L 2419 4116 
z
M 2253 4666 
L 3047 4666 
L 3047 1625 
L 3713 1625 
L 3713 1100 
L 3047 1100 
L 3047 0 
L 2419 0 
L 2419 1100 
L 313 1100 
L 313 1709 
L 2253 4666 
z
" id="DejaVuSans-34" transform="scale(0.015625)"/>
       </defs>
       <use xlink:href="#DejaVuSans-34"/>
       <use x="63.623047" xlink:href="#DejaVuSans-30"/>
       <use x="127.246094" xlink:href="#DejaVuSans-30"/>
      </g>
     </g>
    </g>
    <g id="xtick_4">
     <g id="line2d_7">
      <path clip-path="url(#p8ba3fca090)" d="M 271.872 307.584 
L 271.872 41.472 
" style="fill:none;stroke:#b0b0b0;stroke-linecap:square;stroke-width:0.8;"/>
     </g>
     <g id="line2d_8">
      <g>
       <use style="stroke:#000000;stroke-width:0.8;" x="271.872" xlink:href="#m1463ebc2a7" y="307.584"/>
      </g>
     </g>
     <g id="text_4">
      <!-- 600 -->
      <g transform="translate(262.32825 322.182437)scale(0.1 -0.1)">
       <defs>
        <path d="M 2113 2584 
Q 1688 2584 1439 2293 
Q 1191 2003 1191 1497 
Q 1191 994 1439 701 
Q 1688 409 2113 409 
Q 2538 409 2786 701 
Q 3034 994 3034 1497 
Q 3034 2003 2786 2293 
Q 2538 2584 2113 2584 
z
M 3366 4563 
L 3366 3988 
Q 3128 4100 2886 4159 
Q 2644 4219 2406 4219 
Q 1781 4219 1451 3797 
Q 1122 3375 1075 2522 
Q 1259 2794 1537 2939 
Q 1816 3084 2150 3084 
Q 2853 3084 3261 2657 
Q 3669 2231 3669 1497 
Q 3669 778 3244 343 
Q 2819 -91 2113 -91 
Q 1303 -91 875 529 
Q 447 1150 447 2328 
Q 447 3434 972 4092 
Q 1497 4750 2381 4750 
Q 2619 4750 2861 4703 
Q 3103 4656 3366 4563 
z
" id="DejaVuSans-36" transform="scale(0.015625)"/>
       </defs>
       <use xlink:href="#DejaVuSans-36"/>
       <use x="63.623047" xlink:href="#DejaVuSans-30"/>
       <use x="127.246094" xlink:href="#DejaVuSans-30"/>
      </g>
     </g>
    </g>
    <g id="xtick_5">
     <g id="line2d_9">
      <path clip-path="url(#p8ba3fca090)" d="M 343.296 307.584 
L 343.296 41.472 
" style="fill:none;stroke:#b0b0b0;stroke-linecap:square;stroke-width:0.8;"/>
     </g>
     <g id="line2d_10">
      <g>
       <use style="stroke:#000000;stroke-width:0.8;" x="343.296" xlink:href="#m1463ebc2a7" y="307.584"/>
      </g>
     </g>
     <g id="text_5">
      <!-- 800 -->
      <g transform="translate(333.75225 322.182437)scale(0.1 -0.1)">
       <defs>
        <path d="M 2034 2216 
Q 1584 2216 1326 1975 
Q 1069 1734 1069 1313 
Q 1069 891 1326 650 
Q 1584 409 2034 409 
Q 2484 409 2743 651 
Q 3003 894 3003 1313 
Q 3003 1734 2745 1975 
Q 2488 2216 2034 2216 
z
M 1403 2484 
Q 997 2584 770 2862 
Q 544 3141 544 3541 
Q 544 4100 942 4425 
Q 1341 4750 2034 4750 
Q 2731 4750 3128 4425 
Q 3525 4100 3525 3541 
Q 3525 3141 3298 2862 
Q 3072 2584 2669 2484 
Q 3125 2378 3379 2068 
Q 3634 1759 3634 1313 
Q 3634 634 3220 271 
Q 2806 -91 2034 -91 
Q 1263 -91 848 271 
Q 434 634 434 1313 
Q 434 1759 690 2068 
Q 947 2378 1403 2484 
z
M 1172 3481 
Q 1172 3119 1398 2916 
Q 1625 2713 2034 2713 
Q 2441 2713 2670 2916 
Q 2900 3119 2900 3481 
Q 2900 3844 2670 4047 
Q 2441 4250 2034 4250 
Q 1625 4250 1398 4047 
Q 1172 3844 1172 3481 
z
" id="DejaVuSans-38" transform="scale(0.015625)"/>
       </defs>
       <use xlink:href="#DejaVuSans-38"/>
       <use x="63.623047" xlink:href="#DejaVuSans-30"/>
       <use x="127.246094" xlink:href="#DejaVuSans-30"/>
      </g>
     </g>
    </g>
    <g id="xtick_6">
     <g id="line2d_11">
      <path clip-path="url(#p8ba3fca090)" d="M 414.72 307.584 
L 414.72 41.472 
" style="fill:none;stroke:#b0b0b0;stroke-linecap:square;stroke-width:0.8;"/>
     </g>
     <g id="line2d_12">
      <g>
       <use style="stroke:#000000;stroke-width:0.8;" x="414.72" xlink:href="#m1463ebc2a7" y="307.584"/>
      </g>
     </g>
     <g id="text_6">
      <!-- 1000 -->
      <g transform="translate(401.995 322.182437)scale(0.1 -0.1)">
       <defs>
        <path d="M 794 531 
L 1825 531 
L 1825 4091 
L 703 3866 
L 703 4441 
L 1819 4666 
L 2450 4666 
L 2450 531 
L 3481 531 
L 3481 0 
L 794 0 
L 794 531 
z
" id="DejaVuSans-31" transform="scale(0.015625)"/>
       </defs>
       <use xlink:href="#DejaVuSans-31"/>
       <use x="63.623047" xlink:href="#DejaVuSans-30"/>
       <use x="127.246094" xlink:href="#DejaVuSans-30"/>
       <use x="190.869141" xlink:href="#DejaVuSans-30"/>
      </g>
     </g>
    </g>
    <g id="text_7">
     <!-- Episodes -->
     <g transform="translate(213.917812 335.860562)scale(0.1 -0.1)">
      <defs>
       <path d="M 628 4666 
L 3578 4666 
L 3578 4134 
L 1259 4134 
L 1259 2753 
L 3481 2753 
L 3481 2222 
L 1259 2222 
L 1259 531 
L 3634 531 
L 3634 0 
L 628 0 
L 628 4666 
z
" id="DejaVuSans-45" transform="scale(0.015625)"/>
       <path d="M 1159 525 
L 1159 -1331 
L 581 -1331 
L 581 3500 
L 1159 3500 
L 1159 2969 
Q 1341 3281 1617 3432 
Q 1894 3584 2278 3584 
Q 2916 3584 3314 3078 
Q 3713 2572 3713 1747 
Q 3713 922 3314 415 
Q 2916 -91 2278 -91 
Q 1894 -91 1617 61 
Q 1341 213 1159 525 
z
M 3116 1747 
Q 3116 2381 2855 2742 
Q 2594 3103 2138 3103 
Q 1681 3103 1420 2742 
Q 1159 2381 1159 1747 
Q 1159 1113 1420 752 
Q 1681 391 2138 391 
Q 2594 391 2855 752 
Q 3116 1113 3116 1747 
z
" id="DejaVuSans-70" transform="scale(0.015625)"/>
       <path d="M 603 3500 
L 1178 3500 
L 1178 0 
L 603 0 
L 603 3500 
z
M 603 4863 
L 1178 4863 
L 1178 4134 
L 603 4134 
L 603 4863 
z
" id="DejaVuSans-69" transform="scale(0.015625)"/>
       <path d="M 2834 3397 
L 2834 2853 
Q 2591 2978 2328 3040 
Q 2066 3103 1784 3103 
Q 1356 3103 1142 2972 
Q 928 2841 928 2578 
Q 928 2378 1081 2264 
Q 1234 2150 1697 2047 
L 1894 2003 
Q 2506 1872 2764 1633 
Q 3022 1394 3022 966 
Q 3022 478 2636 193 
Q 2250 -91 1575 -91 
Q 1294 -91 989 -36 
Q 684 19 347 128 
L 347 722 
Q 666 556 975 473 
Q 1284 391 1588 391 
Q 1994 391 2212 530 
Q 2431 669 2431 922 
Q 2431 1156 2273 1281 
Q 2116 1406 1581 1522 
L 1381 1569 
Q 847 1681 609 1914 
Q 372 2147 372 2553 
Q 372 3047 722 3315 
Q 1072 3584 1716 3584 
Q 2034 3584 2315 3537 
Q 2597 3491 2834 3397 
z
" id="DejaVuSans-73" transform="scale(0.015625)"/>
       <path d="M 1959 3097 
Q 1497 3097 1228 2736 
Q 959 2375 959 1747 
Q 959 1119 1226 758 
Q 1494 397 1959 397 
Q 2419 397 2687 759 
Q 2956 1122 2956 1747 
Q 2956 2369 2687 2733 
Q 2419 3097 1959 3097 
z
M 1959 3584 
Q 2709 3584 3137 3096 
Q 3566 2609 3566 1747 
Q 3566 888 3137 398 
Q 2709 -91 1959 -91 
Q 1206 -91 779 398 
Q 353 888 353 1747 
Q 353 2609 779 3096 
Q 1206 3584 1959 3584 
z
" id="DejaVuSans-6f" transform="scale(0.015625)"/>
       <path d="M 2906 2969 
L 2906 4863 
L 3481 4863 
L 3481 0 
L 2906 0 
L 2906 525 
Q 2725 213 2448 61 
Q 2172 -91 1784 -91 
Q 1150 -91 751 415 
Q 353 922 353 1747 
Q 353 2572 751 3078 
Q 1150 3584 1784 3584 
Q 2172 3584 2448 3432 
Q 2725 3281 2906 2969 
z
M 947 1747 
Q 947 1113 1208 752 
Q 1469 391 1925 391 
Q 2381 391 2643 752 
Q 2906 1113 2906 1747 
Q 2906 2381 2643 2742 
Q 2381 3103 1925 3103 
Q 1469 3103 1208 2742 
Q 947 2381 947 1747 
z
" id="DejaVuSans-64" transform="scale(0.015625)"/>
       <path d="M 3597 1894 
L 3597 1613 
L 953 1613 
Q 991 1019 1311 708 
Q 1631 397 2203 397 
Q 2534 397 2845 478 
Q 3156 559 3463 722 
L 3463 178 
Q 3153 47 2828 -22 
Q 2503 -91 2169 -91 
Q 1331 -91 842 396 
Q 353 884 353 1716 
Q 353 2575 817 3079 
Q 1281 3584 2069 3584 
Q 2775 3584 3186 3129 
Q 3597 2675 3597 1894 
z
M 3022 2063 
Q 3016 2534 2758 2815 
Q 2500 3097 2075 3097 
Q 1594 3097 1305 2825 
Q 1016 2553 972 2059 
L 3022 2063 
z
" id="DejaVuSans-65" transform="scale(0.015625)"/>
      </defs>
      <use xlink:href="#DejaVuSans-45"/>
      <use x="63.183594" xlink:href="#DejaVuSans-70"/>
      <use x="126.660156" xlink:href="#DejaVuSans-69"/>
      <use x="154.443359" xlink:href="#DejaVuSans-73"/>
      <use x="206.542969" xlink:href="#DejaVuSans-6f"/>
      <use x="267.724609" xlink:href="#DejaVuSans-64"/>
      <use x="331.201172" xlink:href="#DejaVuSans-65"/>
      <use x="392.724609" xlink:href="#DejaVuSans-73"/>
     </g>
    </g>
   </g>
   <g id="matplotlib.axis_2">
    <g id="ytick_1">
     <g id="line2d_13">
      <path clip-path="url(#p8ba3fca090)" d="M 57.6 283.228238 
L 414.72 283.228238 
" style="fill:none;stroke:#b0b0b0;stroke-linecap:square;stroke-width:0.8;"/>
     </g>
     <g id="line2d_14">
      <defs>
       <path d="M 0 0 
L -3.5 0 
" id="m5e6757fc7d" style="stroke:#000000;stroke-width:0.8;"/>
      </defs>
      <g>
       <use style="stroke:#000000;stroke-width:0.8;" x="57.6" xlink:href="#m5e6757fc7d" y="283.228238"/>
      </g>
     </g>
     <g id="text_8">
      <!-- −8 -->
      <g transform="translate(35.857813 287.027457)scale(0.1 -0.1)">
       <defs>
        <path d="M 678 2272 
L 4684 2272 
L 4684 1741 
L 678 1741 
L 678 2272 
z
" id="DejaVuSans-2212" transform="scale(0.015625)"/>
       </defs>
       <use xlink:href="#DejaVuSans-2212"/>
       <use x="83.789062" xlink:href="#DejaVuSans-38"/>
      </g>
     </g>
    </g>
    <g id="ytick_2">
     <g id="line2d_15">
      <path clip-path="url(#p8ba3fca090)" d="M 57.6 227.746078 
L 414.72 227.746078 
" style="fill:none;stroke:#b0b0b0;stroke-linecap:square;stroke-width:0.8;"/>
     </g>
     <g id="line2d_16">
      <g>
       <use style="stroke:#000000;stroke-width:0.8;" x="57.6" xlink:href="#m5e6757fc7d" y="227.746078"/>
      </g>
     </g>
     <g id="text_9">
      <!-- −6 -->
      <g transform="translate(35.857813 231.545297)scale(0.1 -0.1)">
       <use xlink:href="#DejaVuSans-2212"/>
       <use x="83.789062" xlink:href="#DejaVuSans-36"/>
      </g>
     </g>
    </g>
    <g id="ytick_3">
     <g id="line2d_17">
      <path clip-path="url(#p8ba3fca090)" d="M 57.6 172.263918 
L 414.72 172.263918 
" style="fill:none;stroke:#b0b0b0;stroke-linecap:square;stroke-width:0.8;"/>
     </g>
     <g id="line2d_18">
      <g>
       <use style="stroke:#000000;stroke-width:0.8;" x="57.6" xlink:href="#m5e6757fc7d" y="172.263918"/>
      </g>
     </g>
     <g id="text_10">
      <!-- −4 -->
      <g transform="translate(35.857813 176.063137)scale(0.1 -0.1)">
       <use xlink:href="#DejaVuSans-2212"/>
       <use x="83.789062" xlink:href="#DejaVuSans-34"/>
      </g>
     </g>
    </g>
    <g id="ytick_4">
     <g id="line2d_19">
      <path clip-path="url(#p8ba3fca090)" d="M 57.6 116.781758 
L 414.72 116.781758 
" style="fill:none;stroke:#b0b0b0;stroke-linecap:square;stroke-width:0.8;"/>
     </g>
     <g id="line2d_20">
      <g>
       <use style="stroke:#000000;stroke-width:0.8;" x="57.6" xlink:href="#m5e6757fc7d" y="116.781758"/>
      </g>
     </g>
     <g id="text_11">
      <!-- −2 -->
      <g transform="translate(35.857813 120.580977)scale(0.1 -0.1)">
       <use xlink:href="#DejaVuSans-2212"/>
       <use x="83.789062" xlink:href="#DejaVuSans-32"/>
      </g>
     </g>
    </g>
    <g id="ytick_5">
     <g id="line2d_21">
      <path clip-path="url(#p8ba3fca090)" d="M 57.6 61.299598 
L 414.72 61.299598 
" style="fill:none;stroke:#b0b0b0;stroke-linecap:square;stroke-width:0.8;"/>
     </g>
     <g id="line2d_22">
      <g>
       <use style="stroke:#000000;stroke-width:0.8;" x="57.6" xlink:href="#m5e6757fc7d" y="61.299598"/>
      </g>
     </g>
     <g id="text_12">
      <!-- 0 -->
      <g transform="translate(44.2375 65.098817)scale(0.1 -0.1)">
       <use xlink:href="#DejaVuSans-30"/>
      </g>
     </g>
    </g>
    <g id="text_13">
     <!-- Cumulative Reward -->
     <g transform="translate(29.778125 223.275656)rotate(-90)scale(0.1 -0.1)">
      <defs>
       <path d="M 4122 4306 
L 4122 3641 
Q 3803 3938 3442 4084 
Q 3081 4231 2675 4231 
Q 1875 4231 1450 3742 
Q 1025 3253 1025 2328 
Q 1025 1406 1450 917 
Q 1875 428 2675 428 
Q 3081 428 3442 575 
Q 3803 722 4122 1019 
L 4122 359 
Q 3791 134 3420 21 
Q 3050 -91 2638 -91 
Q 1578 -91 968 557 
Q 359 1206 359 2328 
Q 359 3453 968 4101 
Q 1578 4750 2638 4750 
Q 3056 4750 3426 4639 
Q 3797 4528 4122 4306 
z
" id="DejaVuSans-43" transform="scale(0.015625)"/>
       <path d="M 544 1381 
L 544 3500 
L 1119 3500 
L 1119 1403 
Q 1119 906 1312 657 
Q 1506 409 1894 409 
Q 2359 409 2629 706 
Q 2900 1003 2900 1516 
L 2900 3500 
L 3475 3500 
L 3475 0 
L 2900 0 
L 2900 538 
Q 2691 219 2414 64 
Q 2138 -91 1772 -91 
Q 1169 -91 856 284 
Q 544 659 544 1381 
z
M 1991 3584 
L 1991 3584 
z
" id="DejaVuSans-75" transform="scale(0.015625)"/>
       <path d="M 3328 2828 
Q 3544 3216 3844 3400 
Q 4144 3584 4550 3584 
Q 5097 3584 5394 3201 
Q 5691 2819 5691 2113 
L 5691 0 
L 5113 0 
L 5113 2094 
Q 5113 2597 4934 2840 
Q 4756 3084 4391 3084 
Q 3944 3084 3684 2787 
Q 3425 2491 3425 1978 
L 3425 0 
L 2847 0 
L 2847 2094 
Q 2847 2600 2669 2842 
Q 2491 3084 2119 3084 
Q 1678 3084 1418 2786 
Q 1159 2488 1159 1978 
L 1159 0 
L 581 0 
L 581 3500 
L 1159 3500 
L 1159 2956 
Q 1356 3278 1631 3431 
Q 1906 3584 2284 3584 
Q 2666 3584 2933 3390 
Q 3200 3197 3328 2828 
z
" id="DejaVuSans-6d" transform="scale(0.015625)"/>
       <path d="M 603 4863 
L 1178 4863 
L 1178 0 
L 603 0 
L 603 4863 
z
" id="DejaVuSans-6c" transform="scale(0.015625)"/>
       <path d="M 2194 1759 
Q 1497 1759 1228 1600 
Q 959 1441 959 1056 
Q 959 750 1161 570 
Q 1363 391 1709 391 
Q 2188 391 2477 730 
Q 2766 1069 2766 1631 
L 2766 1759 
L 2194 1759 
z
M 3341 1997 
L 3341 0 
L 2766 0 
L 2766 531 
Q 2569 213 2275 61 
Q 1981 -91 1556 -91 
Q 1019 -91 701 211 
Q 384 513 384 1019 
Q 384 1609 779 1909 
Q 1175 2209 1959 2209 
L 2766 2209 
L 2766 2266 
Q 2766 2663 2505 2880 
Q 2244 3097 1772 3097 
Q 1472 3097 1187 3025 
Q 903 2953 641 2809 
L 641 3341 
Q 956 3463 1253 3523 
Q 1550 3584 1831 3584 
Q 2591 3584 2966 3190 
Q 3341 2797 3341 1997 
z
" id="DejaVuSans-61" transform="scale(0.015625)"/>
       <path d="M 1172 4494 
L 1172 3500 
L 2356 3500 
L 2356 3053 
L 1172 3053 
L 1172 1153 
Q 1172 725 1289 603 
Q 1406 481 1766 481 
L 2356 481 
L 2356 0 
L 1766 0 
Q 1100 0 847 248 
Q 594 497 594 1153 
L 594 3053 
L 172 3053 
L 172 3500 
L 594 3500 
L 594 4494 
L 1172 4494 
z
" id="DejaVuSans-74" transform="scale(0.015625)"/>
       <path d="M 191 3500 
L 800 3500 
L 1894 563 
L 2988 3500 
L 3597 3500 
L 2284 0 
L 1503 0 
L 191 3500 
z
" id="DejaVuSans-76" transform="scale(0.015625)"/>
       <path id="DejaVuSans-20" transform="scale(0.015625)"/>
       <path d="M 2841 2188 
Q 3044 2119 3236 1894 
Q 3428 1669 3622 1275 
L 4263 0 
L 3584 0 
L 2988 1197 
Q 2756 1666 2539 1819 
Q 2322 1972 1947 1972 
L 1259 1972 
L 1259 0 
L 628 0 
L 628 4666 
L 2053 4666 
Q 2853 4666 3247 4331 
Q 3641 3997 3641 3322 
Q 3641 2881 3436 2590 
Q 3231 2300 2841 2188 
z
M 1259 4147 
L 1259 2491 
L 2053 2491 
Q 2509 2491 2742 2702 
Q 2975 2913 2975 3322 
Q 2975 3731 2742 3939 
Q 2509 4147 2053 4147 
L 1259 4147 
z
" id="DejaVuSans-52" transform="scale(0.015625)"/>
       <path d="M 269 3500 
L 844 3500 
L 1563 769 
L 2278 3500 
L 2956 3500 
L 3675 769 
L 4391 3500 
L 4966 3500 
L 4050 0 
L 3372 0 
L 2619 2869 
L 1863 0 
L 1184 0 
L 269 3500 
z
" id="DejaVuSans-77" transform="scale(0.015625)"/>
       <path d="M 2631 2963 
Q 2534 3019 2420 3045 
Q 2306 3072 2169 3072 
Q 1681 3072 1420 2755 
Q 1159 2438 1159 1844 
L 1159 0 
L 581 0 
L 581 3500 
L 1159 3500 
L 1159 2956 
Q 1341 3275 1631 3429 
Q 1922 3584 2338 3584 
Q 2397 3584 2469 3576 
Q 2541 3569 2628 3553 
L 2631 2963 
z
" id="DejaVuSans-72" transform="scale(0.015625)"/>
      </defs>
      <use xlink:href="#DejaVuSans-43"/>
      <use x="69.824219" xlink:href="#DejaVuSans-75"/>
      <use x="133.203125" xlink:href="#DejaVuSans-6d"/>
      <use x="230.615234" xlink:href="#DejaVuSans-75"/>
      <use x="293.994141" xlink:href="#DejaVuSans-6c"/>
      <use x="321.777344" xlink:href="#DejaVuSans-61"/>
      <use x="383.056641" xlink:href="#DejaVuSans-74"/>
      <use x="422.265625" xlink:href="#DejaVuSans-69"/>
      <use x="450.048828" xlink:href="#DejaVuSans-76"/>
      <use x="509.228516" xlink:href="#DejaVuSans-65"/>
      <use x="570.751953" xlink:href="#DejaVuSans-20"/>
      <use x="602.539062" xlink:href="#DejaVuSans-52"/>
      <use x="667.521484" xlink:href="#DejaVuSans-65"/>
      <use x="729.044922" xlink:href="#DejaVuSans-77"/>
      <use x="810.832031" xlink:href="#DejaVuSans-61"/>
      <use x="872.111328" xlink:href="#DejaVuSans-72"/>
      <use x="911.474609" xlink:href="#DejaVuSans-64"/>
     </g>
    </g>
    <g id="text_14">
     <!-- 1e6 -->
     <g transform="translate(57.6 38.472)scale(0.1 -0.1)">
      <use xlink:href="#DejaVuSans-31"/>
      <use x="63.623047" xlink:href="#DejaVuSans-65"/>
      <use x="125.146484" xlink:href="#DejaVuSans-36"/>
     </g>
    </g>
   </g>
   <g id="line2d_23">
    <path clip-path="url(#p8ba3fca090)" d="M 57.6 143.450715 
L 57.95712 117.897946 
L 58.31424 125.927022 
L 58.67136 144.883145 
L 59.02848 143.450715 
L 59.3856 117.897946 
L 59.74272 125.927022 
L 60.09984 144.883145 
L 60.45696 143.450715 
L 60.81408 117.897946 
L 61.1712 125.927022 
L 61.52832 144.883145 
L 61.88544 143.450715 
L 62.24256 117.897946 
L 62.59968 125.927022 
L 62.9568 144.883145 
L 63.31392 143.450715 
L 63.67104 117.897946 
L 64.02816 125.927022 
L 64.38528 144.883145 
L 64.7424 143.450715 
L 65.09952 117.897946 
L 65.45664 125.927022 
L 65.81376 144.883145 
L 66.17088 143.450715 
L 66.528 117.897946 
L 66.88512 125.927022 
L 67.24224 144.883145 
L 67.59936 143.450715 
L 67.95648 117.897946 
L 68.3136 125.927022 
L 68.67072 144.883145 
L 69.02784 143.450715 
L 69.38496 117.897946 
L 69.74208 125.927022 
L 70.0992 144.883145 
L 70.45632 143.450715 
L 70.81344 117.897946 
L 71.17056 125.927022 
L 71.52768 144.883145 
L 71.8848 143.450715 
L 72.24192 117.897946 
L 72.59904 125.927022 
L 72.95616 144.883145 
L 73.31328 143.450715 
L 73.6704 117.897946 
L 74.02752 125.927022 
L 74.38464 144.883145 
L 74.74176 143.450715 
L 75.09888 117.897946 
L 75.456 125.927022 
L 75.81312 144.883145 
L 76.17024 143.450715 
L 76.52736 117.897946 
L 76.88448 125.927022 
L 77.2416 144.883145 
L 77.59872 143.450715 
L 77.95584 117.897946 
L 78.31296 125.927022 
L 78.67008 144.883145 
L 79.0272 143.450715 
L 79.38432 117.897946 
L 79.74144 125.927022 
L 80.09856 144.883145 
L 80.45568 143.450715 
L 80.8128 117.897946 
L 81.16992 125.927022 
L 81.52704 144.883145 
L 81.88416 143.450715 
L 82.24128 117.897946 
L 82.5984 125.927022 
L 82.95552 144.883145 
L 83.31264 143.450715 
L 83.66976 117.897946 
L 84.02688 125.927022 
L 84.384 144.883145 
L 84.74112 143.450715 
L 85.09824 117.897946 
L 85.45536 125.927022 
L 85.81248 144.883145 
L 86.1696 143.450715 
L 86.52672 117.897946 
L 86.88384 125.927022 
L 87.24096 144.883145 
L 87.59808 143.450715 
L 87.9552 117.897946 
L 88.31232 125.927022 
L 88.66944 144.883145 
L 89.02656 143.450715 
L 89.38368 117.897946 
L 89.7408 125.927022 
L 90.09792 144.883145 
L 90.45504 143.450715 
L 90.81216 117.897946 
L 91.16928 125.927022 
L 91.5264 144.883145 
L 91.88352 143.450715 
L 92.24064 117.897946 
L 92.59776 125.927022 
L 92.95488 144.883145 
L 93.312 144.390824 
L 93.66912 83.375982 
L 94.02624 106.163037 
L 94.38336 104.978509 
L 94.74048 149.131005 
L 95.0976 90.678342 
L 95.45472 102.97886 
L 95.81184 77.767084 
L 96.16896 152.286086 
L 96.52608 285.408 
L 96.8832 112.656404 
L 97.24032 118.452884 
L 97.59744 108.280244 
L 97.95456 91.74367 
L 98.31168 155.464407 
L 99.02592 98.336165 
L 99.38304 109.647244 
L 99.74016 115.957913 
L 100.09728 129.829473 
L 100.4544 88.890443 
L 100.81152 71.364937 
L 101.16864 134.013963 
L 101.52576 97.604233 
L 101.88288 95.849025 
L 102.24 87.760085 
L 102.59712 104.624555 
L 102.95424 99.422808 
L 103.31136 230.828879 
L 103.66848 100.317587 
L 104.0256 89.688332 
L 104.38272 154.385694 
L 105.09696 88.841757 
L 105.45408 95.588603 
L 105.8112 92.078131 
L 106.16832 90.20941 
L 106.52544 96.961574 
L 106.88256 100.354839 
L 107.23968 113.985269 
L 107.5968 85.673112 
L 107.95392 102.521238 
L 108.31104 101.224373 
L 108.66816 102.477647 
L 109.02528 97.45855 
L 109.3824 131.608675 
L 109.73952 122.762278 
L 110.09664 128.108381 
L 110.45376 80.84094 
L 110.81088 125.013294 
L 111.168 113.442422 
L 111.52512 122.751026 
L 111.88224 125.957104 
L 112.23936 116.184032 
L 112.59648 111.50877 
L 112.9536 103.012887 
L 113.31072 103.234279 
L 113.66784 86.676794 
L 114.02496 121.345467 
L 114.38208 126.277305 
L 114.7392 122.798118 
L 115.09632 107.128802 
L 115.45344 110.16338 
L 115.81056 87.359538 
L 116.16768 100.553584 
L 116.88192 93.298374 
L 117.23904 119.939633 
L 117.59616 119.171766 
L 117.95328 150.288577 
L 118.3104 91.281329 
L 118.66752 98.116047 
L 119.02464 139.162561 
L 119.38176 102.381942 
L 119.73888 137.048324 
L 120.096 141.716 
L 120.45312 125.562261 
L 120.81024 79.642193 
L 121.16736 127.185549 
L 121.52448 98.139798 
L 121.8816 116.177775 
L 122.23872 96.159346 
L 122.59584 115.497937 
L 122.95296 141.316195 
L 123.31008 124.922644 
L 123.6672 138.172484 
L 124.02432 101.319828 
L 124.38144 103.339583 
L 124.73856 139.990753 
L 125.09568 211.534428 
L 125.4528 98.792724 
L 125.80992 96.203775 
L 126.16704 102.185543 
L 126.52416 104.405253 
L 126.88128 96.331554 
L 127.2384 103.211379 
L 127.59552 105.282361 
L 127.95264 112.534458 
L 128.30976 109.002766 
L 128.66688 187.750811 
L 129.024 97.368675 
L 129.38112 138.117055 
L 129.73824 116.863879 
L 130.09536 111.457396 
L 130.45248 88.194135 
L 130.8096 97.244102 
L 131.16672 99.625544 
L 131.52384 164.121016 
L 131.88096 114.038338 
L 132.23808 103.491829 
L 132.5952 120.426197 
L 132.95232 122.334121 
L 133.30944 194.433917 
L 133.66656 112.38056 
L 134.02368 133.005607 
L 134.3808 101.343065 
L 134.73792 216.791924 
L 135.09504 94.348074 
L 135.45216 87.928899 
L 135.80928 208.733984 
L 136.1664 97.112944 
L 136.52352 89.080721 
L 136.88064 103.474575 
L 137.23776 94.546545 
L 137.952 134.699475 
L 138.30912 89.342107 
L 139.02336 155.859543 
L 139.38048 97.97289 
L 139.7376 111.318139 
L 140.09472 130.734794 
L 140.45184 143.53013 
L 141.16608 88.949726 
L 141.5232 121.307645 
L 141.88032 101.839138 
L 142.23744 117.828547 
L 142.59456 94.494231 
L 142.95168 83.121607 
L 143.3088 154.423802 
L 143.66592 91.172612 
L 144.02304 100.216765 
L 144.38016 170.677459 
L 144.73728 95.871201 
L 145.0944 127.359176 
L 145.45152 73.296657 
L 145.80864 81.43177 
L 146.16576 120.418626 
L 146.52288 99.344369 
L 146.88 145.305499 
L 147.23712 109.50215 
L 147.59424 131.439467 
L 147.95136 139.312101 
L 148.30848 103.374441 
L 148.6656 116.259161 
L 149.02272 175.269124 
L 149.37984 139.974185 
L 149.73696 93.062248 
L 150.09408 213.185467 
L 150.80832 110.608271 
L 151.16544 99.584147 
L 151.52256 128.335285 
L 151.87968 77.328205 
L 152.2368 82.700768 
L 152.59392 171.753747 
L 152.95104 97.365021 
L 153.30816 107.44549 
L 153.66528 109.723321 
L 154.37952 96.312413 
L 154.73664 165.829524 
L 155.09376 149.464629 
L 155.45088 124.263244 
L 155.808 145.003442 
L 156.16512 85.442244 
L 156.52224 97.613117 
L 156.87936 123.418281 
L 157.5936 83.785977 
L 157.95072 89.744717 
L 158.30784 81.894854 
L 158.66496 78.998901 
L 159.02208 98.775704 
L 159.3792 96.891799 
L 159.73632 104.079211 
L 160.09344 72.661104 
L 160.45056 220.632471 
L 160.80768 98.449743 
L 161.1648 116.929492 
L 161.52192 217.40172 
L 161.87904 108.899145 
L 162.23616 99.915906 
L 162.59328 94.386451 
L 162.9504 124.404503 
L 163.30752 79.700198 
L 163.66464 114.501439 
L 164.02176 81.193178 
L 164.37888 93.223348 
L 164.736 97.763271 
L 165.09312 91.344417 
L 165.45024 97.365956 
L 165.80736 107.497787 
L 166.16448 107.664384 
L 166.87872 83.95418 
L 167.23584 98.146301 
L 167.59296 104.996099 
L 167.95008 124.731081 
L 168.3072 108.595097 
L 168.66432 82.992903 
L 169.02144 96.231964 
L 169.37856 90.552442 
L 169.73568 108.465305 
L 170.0928 156.697986 
L 170.44992 88.119888 
L 170.80704 87.271468 
L 171.16416 131.604115 
L 171.52128 80.654772 
L 171.8784 102.561718 
L 172.23552 167.293862 
L 172.59264 85.409958 
L 172.94976 117.826156 
L 173.30688 96.4266 
L 173.664 107.632697 
L 174.02112 131.943417 
L 174.37824 93.645346 
L 174.73536 119.884743 
L 175.09248 108.791923 
L 175.4496 109.24048 
L 175.80672 98.89838 
L 176.16384 108.382835 
L 176.52096 105.137724 
L 176.87808 81.453864 
L 177.2352 90.909005 
L 177.59232 119.339881 
L 177.94944 83.921544 
L 178.30656 124.861478 
L 178.66368 101.787001 
L 179.0208 69.632984 
L 179.37792 97.037642 
L 179.73504 97.921075 
L 180.09216 95.0607 
L 180.44928 81.30715 
L 180.8064 136.75095 
L 181.16352 91.183657 
L 181.52064 87.995365 
L 181.87776 117.621913 
L 182.23488 77.863194 
L 182.592 102.441413 
L 182.94912 115.210755 
L 183.66336 82.124979 
L 184.3776 100.733572 
L 184.73472 100.626753 
L 185.09184 128.125991 
L 185.44896 84.040804 
L 185.80608 98.070099 
L 186.1632 100.286791 
L 186.52032 108.325459 
L 186.87744 80.282528 
L 187.23456 82.822571 
L 187.59168 104.281049 
L 187.9488 87.190757 
L 188.30592 77.718118 
L 188.66304 82.394012 
L 189.02016 147.843977 
L 189.37728 130.030004 
L 189.7344 92.921209 
L 190.09152 87.200243 
L 190.44864 90.057747 
L 190.80576 94.367515 
L 191.16288 95.469358 
L 191.52 100.168547 
L 191.87712 142.238923 
L 192.23424 93.201601 
L 192.59136 114.484483 
L 192.94848 87.213283 
L 193.3056 105.482541 
L 193.66272 82.594183 
L 194.37696 124.908205 
L 194.73408 120.510073 
L 195.0912 84.790465 
L 195.44832 115.652152 
L 195.80544 99.080121 
L 196.16256 106.917301 
L 196.51968 166.550947 
L 196.8768 82.648414 
L 197.23392 91.35803 
L 197.59104 88.584757 
L 197.94816 81.228933 
L 198.30528 88.775061 
L 198.6624 87.573882 
L 199.01952 84.683861 
L 199.37664 84.767222 
L 199.73376 96.446623 
L 200.448 85.204182 
L 200.80512 83.437404 
L 201.16224 231.903592 
L 201.51936 124.799148 
L 201.87648 105.713351 
L 202.2336 106.402831 
L 202.59072 86.626654 
L 202.94784 89.903166 
L 203.30496 81.042886 
L 203.66208 164.279039 
L 204.0192 95.002037 
L 204.37632 111.541246 
L 204.73344 92.549333 
L 205.09056 90.477602 
L 205.44768 81.736031 
L 205.8048 81.675726 
L 206.16192 87.984348 
L 206.51904 101.387188 
L 206.87616 72.635342 
L 207.23328 85.651567 
L 207.5904 79.410472 
L 207.94752 81.950384 
L 208.66176 98.234402 
L 209.01888 133.568669 
L 209.376 91.147763 
L 209.73312 124.979662 
L 210.09024 89.447556 
L 210.44736 78.397298 
L 210.80448 82.823827 
L 211.1616 103.207662 
L 211.51872 75.12727 
L 211.87584 102.797965 
L 212.23296 75.441979 
L 212.59008 108.72173 
L 212.9472 91.76153 
L 213.30432 173.558372 
L 213.66144 92.836176 
L 214.01856 108.799994 
L 214.37568 73.576652 
L 214.7328 92.962114 
L 215.08992 104.891674 
L 215.44704 101.907228 
L 215.80416 108.942933 
L 216.16128 98.966153 
L 216.5184 160.795821 
L 216.87552 89.011483 
L 217.23264 145.774636 
L 217.58976 84.368595 
L 217.94688 102.302524 
L 218.304 87.963521 
L 218.66112 91.027032 
L 219.01824 118.256825 
L 219.37536 96.325267 
L 219.73248 87.087443 
L 220.0896 87.691749 
L 220.44672 92.454786 
L 220.80384 85.726844 
L 221.16096 113.725891 
L 221.51808 92.068098 
L 221.8752 97.091231 
L 222.23232 79.082792 
L 222.58944 82.844136 
L 222.94656 93.841299 
L 223.30368 89.344344 
L 223.6608 118.900735 
L 224.01792 85.525458 
L 224.37504 106.437471 
L 224.73216 93.735955 
L 225.08928 127.32113 
L 225.4464 81.527999 
L 225.80352 75.158584 
L 226.16064 81.668643 
L 226.51776 81.063172 
L 226.87488 91.927656 
L 227.232 180.511137 
L 227.58912 111.073848 
L 228.30336 88.21731 
L 228.66048 84.503226 
L 229.0176 73.338722 
L 229.37472 92.123712 
L 229.73184 83.161116 
L 230.08896 132.416618 
L 230.44608 100.471829 
L 231.16032 107.834197 
L 231.51744 76.614698 
L 232.23168 136.981629 
L 232.5888 83.629524 
L 232.94592 145.739106 
L 233.30304 89.113889 
L 233.66016 92.658446 
L 234.01728 110.333713 
L 234.3744 98.469189 
L 234.73152 99.095577 
L 235.08864 97.058515 
L 235.44576 87.742725 
L 235.80288 113.499235 
L 236.16 109.136598 
L 236.51712 102.423902 
L 236.87424 115.398483 
L 237.23136 81.241344 
L 237.58848 86.865958 
L 237.9456 112.052317 
L 238.65984 74.8246 
L 239.01696 83.864693 
L 239.37408 97.098752 
L 240.08832 112.625263 
L 240.44544 99.881925 
L 240.80256 82.854372 
L 241.15968 89.834527 
L 241.5168 78.440153 
L 241.87392 78.2452 
L 242.23104 82.327714 
L 242.58816 134.280567 
L 242.94528 156.007175 
L 243.3024 127.999217 
L 243.65952 136.654136 
L 244.01664 81.60086 
L 244.37376 73.52296 
L 244.73088 73.930139 
L 245.088 88.102187 
L 245.44512 72.148035 
L 245.80224 67.567522 
L 246.15936 86.102899 
L 246.51648 135.520426 
L 246.8736 74.496427 
L 247.23072 90.33426 
L 247.58784 117.481366 
L 247.94496 78.068435 
L 248.30208 86.040625 
L 248.6592 85.624177 
L 249.01632 91.84272 
L 249.37344 134.933483 
L 249.73056 71.518426 
L 250.4448 78.001416 
L 250.80192 93.624961 
L 251.15904 128.614911 
L 251.51616 90.831408 
L 251.87328 69.433866 
L 252.2304 69.275985 
L 252.58752 132.592158 
L 252.94464 71.456491 
L 253.30176 72.351837 
L 253.65888 90.444964 
L 254.016 78.776815 
L 254.37312 95.642377 
L 254.73024 85.119021 
L 255.08736 70.814264 
L 255.44448 76.936848 
L 255.8016 127.795134 
L 256.15872 87.905277 
L 256.51584 112.529508 
L 256.87296 72.523015 
L 257.23008 83.956482 
L 257.5872 117.38617 
L 257.94432 107.401582 
L 258.30144 73.682507 
L 258.65856 89.325514 
L 259.01568 151.412726 
L 259.3728 99.349175 
L 259.72992 81.744187 
L 260.08704 125.805571 
L 260.44416 74.918148 
L 260.80128 76.888035 
L 261.1584 79.985864 
L 261.51552 110.049329 
L 261.87264 92.591577 
L 262.22976 99.26983 
L 262.58688 109.095261 
L 262.944 78.786505 
L 263.30112 82.287062 
L 263.65824 74.345775 
L 264.01536 100.634152 
L 264.7296 85.634454 
L 265.08672 95.570638 
L 265.44384 83.801984 
L 265.80096 96.360067 
L 266.15808 75.646495 
L 266.5152 104.786886 
L 266.87232 82.984859 
L 267.22944 85.911247 
L 267.58656 83.319163 
L 267.94368 85.172476 
L 268.3008 111.960977 
L 268.65792 98.228414 
L 269.01504 100.784202 
L 269.37216 89.933304 
L 269.72928 96.854683 
L 270.0864 80.496718 
L 270.44352 86.788436 
L 270.80064 78.717241 
L 271.15776 75.010445 
L 271.51488 74.773069 
L 271.872 93.978305 
L 272.22912 131.584142 
L 272.58624 114.031588 
L 272.94336 149.766375 
L 273.30048 68.219026 
L 273.6576 90.285086 
L 274.01472 100.434998 
L 274.37184 93.730758 
L 274.72896 125.870014 
L 275.08608 84.798989 
L 275.4432 104.96447 
L 275.80032 148.592199 
L 276.15744 74.903098 
L 276.51456 87.269827 
L 276.87168 121.878919 
L 277.2288 79.481188 
L 277.58592 68.564004 
L 277.94304 101.476243 
L 278.30016 87.920383 
L 278.65728 93.246915 
L 279.0144 107.980712 
L 279.37152 68.681572 
L 279.72864 89.953672 
L 280.08576 68.366747 
L 280.44288 86.82106 
L 280.8 91.302366 
L 281.15712 111.605893 
L 281.51424 91.49761 
L 281.87136 100.661657 
L 282.22848 83.899649 
L 282.5856 97.762282 
L 282.94272 81.08486 
L 283.29984 106.767179 
L 283.65696 67.889966 
L 284.01408 133.770513 
L 284.3712 87.005221 
L 284.72832 70.811212 
L 285.08544 104.366099 
L 285.44256 86.914417 
L 285.79968 93.318977 
L 286.1568 87.328415 
L 286.51392 85.804624 
L 286.87104 95.556874 
L 287.58528 67.377151 
L 287.9424 70.925031 
L 288.29952 79.62429 
L 288.65664 80.071311 
L 289.01376 85.333261 
L 289.37088 98.91785 
L 289.728 121.596082 
L 290.08512 79.303462 
L 290.44224 102.545778 
L 290.79936 98.357354 
L 291.15648 67.025306 
L 291.5136 107.562405 
L 291.87072 78.040219 
L 292.22784 105.329742 
L 292.58496 68.612384 
L 292.94208 95.925614 
L 293.2992 69.409571 
L 293.65632 197.243565 
L 294.01344 79.284358 
L 294.37056 96.956499 
L 294.72768 78.836011 
L 295.0848 74.689658 
L 295.44192 103.976492 
L 295.79904 79.122608 
L 296.15616 69.623133 
L 296.51328 134.190342 
L 296.8704 109.209444 
L 297.22752 69.416239 
L 297.58464 68.079168 
L 297.94176 126.765754 
L 298.29888 85.852937 
L 298.656 65.099352 
L 299.01312 75.71828 
L 299.37024 78.413161 
L 299.72736 70.361277 
L 300.08448 70.018213 
L 300.4416 113.672718 
L 300.79872 72.547288 
L 301.15584 68.653351 
L 301.51296 80.000377 
L 301.87008 167.492444 
L 302.2272 87.240028 
L 302.58432 82.733789 
L 302.94144 116.208417 
L 303.65568 82.719895 
L 304.0128 67.956942 
L 304.36992 69.991958 
L 305.08416 76.801476 
L 305.44128 66.34898 
L 306.15552 95.201862 
L 306.51264 85.767028 
L 306.86976 83.133158 
L 307.22688 70.212077 
L 307.584 74.156997 
L 307.94112 69.555421 
L 308.65536 99.513585 
L 309.01248 63.93161 
L 309.3696 93.012025 
L 309.72672 80.948958 
L 310.08384 89.950757 
L 310.44096 67.568793 
L 310.79808 84.777266 
L 311.1552 77.76271 
L 311.51232 77.560097 
L 311.86944 75.803588 
L 312.22656 77.438016 
L 312.58368 136.938598 
L 312.9408 74.362389 
L 313.29792 79.011176 
L 313.65504 64.768417 
L 314.01216 70.337038 
L 314.36928 98.309308 
L 314.7264 109.694045 
L 315.08352 129.84879 
L 315.44064 74.913241 
L 315.79776 79.953089 
L 316.15488 82.530486 
L 316.512 112.032376 
L 316.86912 88.99562 
L 317.58336 77.6754 
L 317.94048 68.14745 
L 318.2976 75.749172 
L 318.65472 69.07142 
L 319.01184 68.559163 
L 319.36896 100.442168 
L 319.72608 94.763079 
L 320.0832 96.835376 
L 320.44032 67.609454 
L 320.79744 70.773918 
L 321.15456 65.895384 
L 321.51168 68.884814 
L 321.8688 67.641584 
L 322.22592 83.229966 
L 322.58304 91.474724 
L 322.94016 79.765763 
L 323.29728 95.313112 
L 323.6544 71.09243 
L 324.01152 78.815038 
L 324.36864 80.701507 
L 324.72576 68.355017 
L 325.08288 71.57012 
L 325.44 146.145614 
L 325.79712 75.336028 
L 326.15424 96.966162 
L 326.51136 76.191448 
L 326.86848 94.936484 
L 327.2256 100.937423 
L 327.58272 90.676227 
L 327.93984 98.732786 
L 328.29696 67.710976 
L 328.65408 105.592005 
L 329.0112 70.276428 
L 329.36832 71.096364 
L 329.72544 75.50924 
L 330.08256 92.202431 
L 330.43968 80.435174 
L 330.7968 80.47594 
L 331.15392 111.973468 
L 331.51104 108.825901 
L 331.86816 78.686422 
L 332.22528 76.673978 
L 332.5824 64.320683 
L 333.65376 73.16185 
L 334.01088 107.664592 
L 334.368 67.038215 
L 334.72512 66.068974 
L 335.08224 92.397409 
L 335.43936 91.404954 
L 335.79648 67.980204 
L 336.1536 64.296609 
L 336.51072 71.063341 
L 336.86784 66.955883 
L 337.22496 67.271897 
L 337.58208 85.313993 
L 337.9392 79.095647 
L 338.29632 64.804113 
L 338.65344 125.413988 
L 339.01056 67.532407 
L 339.36768 76.183617 
L 339.7248 74.424427 
L 340.08192 72.065543 
L 340.43904 78.421261 
L 340.79616 82.320285 
L 341.15328 136.712939 
L 341.5104 69.974741 
L 341.86752 82.685335 
L 342.22464 68.178629 
L 342.58176 69.771493 
L 343.296 84.459549 
L 343.65312 81.989378 
L 344.01024 66.568768 
L 344.36736 86.798258 
L 344.72448 72.106141 
L 345.0816 63.951868 
L 345.43872 66.302427 
L 345.79584 67.673851 
L 346.15296 117.2731 
L 346.51008 119.586689 
L 346.8672 108.092859 
L 347.22432 68.325947 
L 347.58144 63.648 
L 347.93856 71.794335 
L 348.29568 83.358205 
L 348.6528 69.137934 
L 349.00992 69.065647 
L 349.36704 78.650976 
L 349.72416 79.665769 
L 350.08128 69.159602 
L 350.4384 75.395456 
L 350.79552 78.188941 
L 351.15264 98.237659 
L 351.50976 75.056018 
L 351.86688 67.100697 
L 352.224 65.390356 
L 352.58112 79.977253 
L 352.93824 67.794093 
L 353.29536 73.017373 
L 353.65248 70.16759 
L 354.0096 82.573101 
L 354.36672 64.887448 
L 354.72384 74.049494 
L 355.08096 146.100419 
L 355.43808 77.522345 
L 355.7952 130.270707 
L 356.15232 75.656307 
L 356.50944 76.440584 
L 356.86656 78.588794 
L 357.22368 63.827305 
L 357.5808 76.486435 
L 357.93792 77.378095 
L 358.29504 66.050718 
L 358.65216 82.041283 
L 359.00928 73.02211 
L 359.3664 67.308554 
L 359.72352 76.974313 
L 360.08064 70.770531 
L 360.43776 85.48696 
L 360.79488 69.532891 
L 361.152 73.065118 
L 361.50912 72.730007 
L 361.86624 76.285619 
L 362.22336 76.615229 
L 362.58048 67.327287 
L 362.9376 91.533412 
L 363.29472 102.757438 
L 363.65184 105.21283 
L 364.36608 70.106586 
L 364.7232 115.990637 
L 365.08032 94.467455 
L 365.43744 82.379492 
L 365.79456 74.826048 
L 366.15168 86.03285 
L 366.5088 82.101084 
L 366.86592 65.237146 
L 367.22304 95.685884 
L 367.58016 93.270625 
L 367.93728 69.82885 
L 368.2944 68.687342 
L 368.65152 70.893271 
L 369.00864 78.85546 
L 369.36576 118.184019 
L 369.72288 98.035877 
L 370.08 86.253277 
L 370.43712 88.272252 
L 370.79424 81.607325 
L 371.15136 106.454736 
L 371.50848 77.603437 
L 371.8656 70.574366 
L 372.22272 122.330722 
L 372.57984 70.248098 
L 372.93696 69.730214 
L 373.29408 97.524966 
L 373.6512 84.366334 
L 374.00832 107.115646 
L 374.36544 77.569568 
L 374.72256 80.276801 
L 375.4368 70.562172 
L 375.79392 86.698989 
L 376.15104 71.790253 
L 376.50816 84.836163 
L 376.86528 72.381048 
L 377.2224 110.404213 
L 377.57952 85.669658 
L 377.93664 83.275171 
L 378.29376 71.958313 
L 378.65088 69.012795 
L 379.008 117.039284 
L 379.36512 97.889631 
L 379.72224 70.639795 
L 380.07936 78.81563 
L 380.43648 73.938019 
L 380.7936 89.365428 
L 381.15072 123.749341 
L 381.50784 79.483646 
L 381.86496 172.827998 
L 382.22208 79.207417 
L 382.5792 71.976138 
L 382.93632 70.926518 
L 383.29344 69.384672 
L 383.65056 76.322406 
L 384.00768 104.942012 
L 384.3648 73.779803 
L 384.72192 66.213463 
L 385.07904 68.183439 
L 385.43616 70.802827 
L 385.79328 78.221166 
L 386.1504 81.255856 
L 386.50752 98.427966 
L 386.86464 79.398651 
L 387.22176 211.839029 
L 387.57888 123.37988 
L 388.29312 87.197005 
L 388.65024 74.89686 
L 389.00736 71.62854 
L 389.36448 78.511262 
L 389.7216 76.419801 
L 390.07872 112.781572 
L 390.43584 88.05489 
L 390.79296 71.936764 
L 391.15008 66.129915 
L 391.5072 82.904379 
L 391.86432 70.601226 
L 392.22144 136.389269 
L 392.57856 112.45255 
L 392.93568 96.084144 
L 393.2928 72.61931 
L 393.64992 68.906712 
L 394.00704 273.853518 
L 394.36416 88.651974 
L 394.72128 65.053066 
L 395.0784 88.415362 
L 395.43552 71.086862 
L 395.79264 78.939787 
L 396.14976 69.033317 
L 396.50688 78.688058 
L 396.864 74.337148 
L 397.22112 73.061896 
L 397.57824 68.646695 
L 397.93536 68.75171 
L 398.29248 71.801352 
L 398.6496 87.027951 
L 399.00672 68.977058 
L 399.36384 79.561033 
L 399.72096 106.980872 
L 400.07808 64.870209 
L 400.4352 73.562134 
L 400.79232 78.110172 
L 401.14944 85.958954 
L 401.50656 77.03509 
L 401.86368 77.288724 
L 402.2208 89.679549 
L 402.57792 71.146702 
L 402.93504 83.383467 
L 403.29216 66.300523 
L 403.64928 85.383496 
L 404.0064 68.293757 
L 404.36352 76.696696 
L 404.72064 73.107851 
L 405.07776 117.577908 
L 405.43488 79.252391 
L 405.792 70.273115 
L 406.14912 76.254755 
L 406.50624 72.959062 
L 406.86336 90.093817 
L 407.22048 69.245029 
L 407.5776 92.579718 
L 408.29184 89.544936 
L 408.64896 75.104987 
L 409.00608 98.315615 
L 409.3632 79.797096 
L 409.72032 79.092001 
L 410.07744 74.916493 
L 410.43456 86.512187 
L 410.79168 73.266847 
L 411.1488 70.931695 
L 411.50592 71.705007 
L 411.86304 68.239376 
L 412.22016 105.07055 
L 412.57728 81.212256 
L 412.9344 70.242564 
L 413.29152 66.34645 
L 413.64864 79.020757 
L 414.00576 64.217539 
L 414.36288 88.266393 
L 414.36288 88.266393 
" style="fill:none;stroke:#0000ff;stroke-linecap:square;stroke-width:1.5;"/>
   </g>
   <g id="patch_3">
    <path d="M 57.6 307.584 
L 57.6 41.472 
" style="fill:none;stroke:#000000;stroke-linecap:square;stroke-linejoin:miter;stroke-width:0.8;"/>
   </g>
   <g id="patch_4">
    <path d="M 414.72 307.584 
L 414.72 41.472 
" style="fill:none;stroke:#000000;stroke-linecap:square;stroke-linejoin:miter;stroke-width:0.8;"/>
   </g>
   <g id="patch_5">
    <path d="M 57.6 307.584 
L 414.72 307.584 
" style="fill:none;stroke:#000000;stroke-linecap:square;stroke-linejoin:miter;stroke-width:0.8;"/>
   </g>
   <g id="patch_6">
    <path d="M 57.6 41.472 
L 414.72 41.472 
" style="fill:none;stroke:#000000;stroke-linecap:square;stroke-linejoin:miter;stroke-width:0.8;"/>
   </g>
   <g id="legend_1">
    <g id="patch_7">
     <path d="M 64.6 64.150125 
L 189.998437 64.150125 
Q 191.998437 64.150125 191.998437 62.150125 
L 191.998437 48.472 
Q 191.998437 46.472 189.998437 46.472 
L 64.6 46.472 
Q 62.6 46.472 62.6 48.472 
L 62.6 62.150125 
Q 62.6 64.150125 64.6 64.150125 
z
" style="fill:#ffffff;opacity:0.8;stroke:#cccccc;stroke-linejoin:miter;"/>
    </g>
    <g id="line2d_24">
     <path d="M 66.6 54.570438 
L 86.6 54.570438 
" style="fill:none;stroke:#0000ff;stroke-linecap:square;stroke-width:1.5;"/>
    </g>
    <g id="line2d_25"/>
    <g id="text_15">
     <!-- cumulative reward -->
     <g transform="translate(94.6 58.070438)scale(0.1 -0.1)">
      <defs>
       <path d="M 3122 3366 
L 3122 2828 
Q 2878 2963 2633 3030 
Q 2388 3097 2138 3097 
Q 1578 3097 1268 2742 
Q 959 2388 959 1747 
Q 959 1106 1268 751 
Q 1578 397 2138 397 
Q 2388 397 2633 464 
Q 2878 531 3122 666 
L 3122 134 
Q 2881 22 2623 -34 
Q 2366 -91 2075 -91 
Q 1284 -91 818 406 
Q 353 903 353 1747 
Q 353 2603 823 3093 
Q 1294 3584 2113 3584 
Q 2378 3584 2631 3529 
Q 2884 3475 3122 3366 
z
" id="DejaVuSans-63" transform="scale(0.015625)"/>
      </defs>
      <use xlink:href="#DejaVuSans-63"/>
      <use x="54.980469" xlink:href="#DejaVuSans-75"/>
      <use x="118.359375" xlink:href="#DejaVuSans-6d"/>
      <use x="215.771484" xlink:href="#DejaVuSans-75"/>
      <use x="279.150391" xlink:href="#DejaVuSans-6c"/>
      <use x="306.933594" xlink:href="#DejaVuSans-61"/>
      <use x="368.212891" xlink:href="#DejaVuSans-74"/>
      <use x="407.421875" xlink:href="#DejaVuSans-69"/>
      <use x="435.205078" xlink:href="#DejaVuSans-76"/>
      <use x="494.384766" xlink:href="#DejaVuSans-65"/>
      <use x="555.908203" xlink:href="#DejaVuSans-20"/>
      <use x="587.695312" xlink:href="#DejaVuSans-72"/>
      <use x="626.558594" xlink:href="#DejaVuSans-65"/>
      <use x="688.082031" xlink:href="#DejaVuSans-77"/>
      <use x="769.869141" xlink:href="#DejaVuSans-61"/>
      <use x="831.148438" xlink:href="#DejaVuSans-72"/>
      <use x="870.511719" xlink:href="#DejaVuSans-64"/>
     </g>
    </g>
   </g>
  </g>
 </g>
 <defs>
  <clipPath id="p8ba3fca090">
   <rect height="266.112" width="357.12" x="57.6" y="41.472"/>
  </clipPath>
 </defs>
</svg>
