<?xml version="1.0" encoding="utf-8" standalone="no"?>
<!DOCTYPE svg PUBLIC "-//W3C//DTD SVG 1.1//EN"
  "http://www.w3.org/Graphics/SVG/1.1/DTD/svg11.dtd">
<svg height="345.6pt" version="1.1" viewBox="0 0 460.8 345.6" width="460.8pt" xmlns="http://www.w3.org/2000/svg" xmlns:xlink="http://www.w3.org/1999/xlink">
 <metadata>
  <rdf:RDF xmlns:cc="http://creativecommons.org/ns#" xmlns:dc="http://purl.org/dc/elements/1.1/" xmlns:rdf="http://www.w3.org/1999/02/22-rdf-syntax-ns#">
   <cc:Work>
    <dc:type rdf:resource="http://purl.org/dc/dcmitype/StillImage"/>
    <dc:date>2021-10-27T13:59:40.717244</dc:date>
    <dc:description>{"agent.algorithm": "RayProximalPolicyOptimization", "agent.algorithm.render_env": false, "agent.algorithm.num_workers": 0, "agent.algorithm.batch_mode": "complete_episodes", "agent.algorithm.train_batch_size": 200, "agent.algorithm.optimizer": "Adam", "agent.algorithm.vf_clip_param": 100, "agent.algorithm.model": {"fcnet_activation": "tanh", "fcnet_hiddens": [50, 50]}, "env.env_class": "SchedulerPolicyRayEnvironment", "env.env_config": {"solver_driver": "CMAdriver", "solver_driver_args": [10, 10, 16, 0.1], "maximize": false, "steps": 50, "state_metrics_names": ["DifferenceOfBest", "SolverStateHistory", "SolverState"], "state_metrics_config": [[40, false, 1, true], [{"step_size": {"max": 3, "min": 0}}, 40], [{"ps": {"max": 10, "min": -10}}]], "reward_metric": "Best", "reward_metric_config": [false, false], "memes_no": 1, "action_space_config": {"step_size": {"max": 3, "min": 1e-10}}}}</dc:description>
    <dc:format>image/svg+xml</dc:format>
    <dc:creator>
     <cc:Agent>
      <dc:title>Matplotlib v3.4.3, https://matplotlib.org/</dc:title>
     </cc:Agent>
    </dc:creator>
   </cc:Work>
  </rdf:RDF>
 </metadata>
 <defs>
  <style type="text/css">*{stroke-linecap:butt;stroke-linejoin:round;}</style>
 </defs>
 <g id="figure_1">
  <g id="patch_1">
   <path d="M 0 345.6 
L 460.8 345.6 
L 460.8 0 
L 0 0 
z
" style="fill:#ffffff;"/>
  </g>
  <g id="axes_1">
   <g id="patch_2">
    <path d="M 57.6 307.584 
L 414.72 307.584 
L 414.72 41.472 
L 57.6 41.472 
z
" style="fill:#ffffff;"/>
   </g>
   <g id="matplotlib.axis_1">
    <g id="xtick_1">
     <g id="line2d_1">
      <path clip-path="url(#p4fecbbb267)" d="M 57.6 307.584 
L 57.6 41.472 
" style="fill:none;stroke:#b0b0b0;stroke-linecap:square;stroke-width:0.8;"/>
     </g>
     <g id="line2d_2">
      <defs>
       <path d="M 0 0 
L 0 3.5 
" id="m3ff016e4ff" style="stroke:#000000;stroke-width:0.8;"/>
      </defs>
      <g>
       <use style="stroke:#000000;stroke-width:0.8;" x="57.6" xlink:href="#m3ff016e4ff" y="307.584"/>
      </g>
     </g>
     <g id="text_1">
      <!-- 0 -->
      <g transform="translate(54.41875 322.182437)scale(0.1 -0.1)">
       <defs>
        <path d="M 2034 4250 
Q 1547 4250 1301 3770 
Q 1056 3291 1056 2328 
Q 1056 1369 1301 889 
Q 1547 409 2034 409 
Q 2525 409 2770 889 
Q 3016 1369 3016 2328 
Q 3016 3291 2770 3770 
Q 2525 4250 2034 4250 
z
M 2034 4750 
Q 2819 4750 3233 4129 
Q 3647 3509 3647 2328 
Q 3647 1150 3233 529 
Q 2819 -91 2034 -91 
Q 1250 -91 836 529 
Q 422 1150 422 2328 
Q 422 3509 836 4129 
Q 1250 4750 2034 4750 
z
" id="DejaVuSans-30" transform="scale(0.015625)"/>
       </defs>
       <use xlink:href="#DejaVuSans-30"/>
      </g>
     </g>
    </g>
    <g id="xtick_2">
     <g id="line2d_3">
      <path clip-path="url(#p4fecbbb267)" d="M 117.12 307.584 
L 117.12 41.472 
" style="fill:none;stroke:#b0b0b0;stroke-linecap:square;stroke-width:0.8;"/>
     </g>
     <g id="line2d_4">
      <g>
       <use style="stroke:#000000;stroke-width:0.8;" x="117.12" xlink:href="#m3ff016e4ff" y="307.584"/>
      </g>
     </g>
     <g id="text_2">
      <!-- 500 -->
      <g transform="translate(107.57625 322.182437)scale(0.1 -0.1)">
       <defs>
        <path d="M 691 4666 
L 3169 4666 
L 3169 4134 
L 1269 4134 
L 1269 2991 
Q 1406 3038 1543 3061 
Q 1681 3084 1819 3084 
Q 2600 3084 3056 2656 
Q 3513 2228 3513 1497 
Q 3513 744 3044 326 
Q 2575 -91 1722 -91 
Q 1428 -91 1123 -41 
Q 819 9 494 109 
L 494 744 
Q 775 591 1075 516 
Q 1375 441 1709 441 
Q 2250 441 2565 725 
Q 2881 1009 2881 1497 
Q 2881 1984 2565 2268 
Q 2250 2553 1709 2553 
Q 1456 2553 1204 2497 
Q 953 2441 691 2322 
L 691 4666 
z
" id="DejaVuSans-35" transform="scale(0.015625)"/>
       </defs>
       <use xlink:href="#DejaVuSans-35"/>
       <use x="63.623047" xlink:href="#DejaVuSans-30"/>
       <use x="127.246094" xlink:href="#DejaVuSans-30"/>
      </g>
     </g>
    </g>
    <g id="xtick_3">
     <g id="line2d_5">
      <path clip-path="url(#p4fecbbb267)" d="M 176.64 307.584 
L 176.64 41.472 
" style="fill:none;stroke:#b0b0b0;stroke-linecap:square;stroke-width:0.8;"/>
     </g>
     <g id="line2d_6">
      <g>
       <use style="stroke:#000000;stroke-width:0.8;" x="176.64" xlink:href="#m3ff016e4ff" y="307.584"/>
      </g>
     </g>
     <g id="text_3">
      <!-- 1000 -->
      <g transform="translate(163.915 322.182437)scale(0.1 -0.1)">
       <defs>
        <path d="M 794 531 
L 1825 531 
L 1825 4091 
L 703 3866 
L 703 4441 
L 1819 4666 
L 2450 4666 
L 2450 531 
L 3481 531 
L 3481 0 
L 794 0 
L 794 531 
z
" id="DejaVuSans-31" transform="scale(0.015625)"/>
       </defs>
       <use xlink:href="#DejaVuSans-31"/>
       <use x="63.623047" xlink:href="#DejaVuSans-30"/>
       <use x="127.246094" xlink:href="#DejaVuSans-30"/>
       <use x="190.869141" xlink:href="#DejaVuSans-30"/>
      </g>
     </g>
    </g>
    <g id="xtick_4">
     <g id="line2d_7">
      <path clip-path="url(#p4fecbbb267)" d="M 236.16 307.584 
L 236.16 41.472 
" style="fill:none;stroke:#b0b0b0;stroke-linecap:square;stroke-width:0.8;"/>
     </g>
     <g id="line2d_8">
      <g>
       <use style="stroke:#000000;stroke-width:0.8;" x="236.16" xlink:href="#m3ff016e4ff" y="307.584"/>
      </g>
     </g>
     <g id="text_4">
      <!-- 1500 -->
      <g transform="translate(223.435 322.182437)scale(0.1 -0.1)">
       <use xlink:href="#DejaVuSans-31"/>
       <use x="63.623047" xlink:href="#DejaVuSans-35"/>
       <use x="127.246094" xlink:href="#DejaVuSans-30"/>
       <use x="190.869141" xlink:href="#DejaVuSans-30"/>
      </g>
     </g>
    </g>
    <g id="xtick_5">
     <g id="line2d_9">
      <path clip-path="url(#p4fecbbb267)" d="M 295.68 307.584 
L 295.68 41.472 
" style="fill:none;stroke:#b0b0b0;stroke-linecap:square;stroke-width:0.8;"/>
     </g>
     <g id="line2d_10">
      <g>
       <use style="stroke:#000000;stroke-width:0.8;" x="295.68" xlink:href="#m3ff016e4ff" y="307.584"/>
      </g>
     </g>
     <g id="text_5">
      <!-- 2000 -->
      <g transform="translate(282.955 322.182437)scale(0.1 -0.1)">
       <defs>
        <path d="M 1228 531 
L 3431 531 
L 3431 0 
L 469 0 
L 469 531 
Q 828 903 1448 1529 
Q 2069 2156 2228 2338 
Q 2531 2678 2651 2914 
Q 2772 3150 2772 3378 
Q 2772 3750 2511 3984 
Q 2250 4219 1831 4219 
Q 1534 4219 1204 4116 
Q 875 4013 500 3803 
L 500 4441 
Q 881 4594 1212 4672 
Q 1544 4750 1819 4750 
Q 2544 4750 2975 4387 
Q 3406 4025 3406 3419 
Q 3406 3131 3298 2873 
Q 3191 2616 2906 2266 
Q 2828 2175 2409 1742 
Q 1991 1309 1228 531 
z
" id="DejaVuSans-32" transform="scale(0.015625)"/>
       </defs>
       <use xlink:href="#DejaVuSans-32"/>
       <use x="63.623047" xlink:href="#DejaVuSans-30"/>
       <use x="127.246094" xlink:href="#DejaVuSans-30"/>
       <use x="190.869141" xlink:href="#DejaVuSans-30"/>
      </g>
     </g>
    </g>
    <g id="xtick_6">
     <g id="line2d_11">
      <path clip-path="url(#p4fecbbb267)" d="M 355.2 307.584 
L 355.2 41.472 
" style="fill:none;stroke:#b0b0b0;stroke-linecap:square;stroke-width:0.8;"/>
     </g>
     <g id="line2d_12">
      <g>
       <use style="stroke:#000000;stroke-width:0.8;" x="355.2" xlink:href="#m3ff016e4ff" y="307.584"/>
      </g>
     </g>
     <g id="text_6">
      <!-- 2500 -->
      <g transform="translate(342.475 322.182437)scale(0.1 -0.1)">
       <use xlink:href="#DejaVuSans-32"/>
       <use x="63.623047" xlink:href="#DejaVuSans-35"/>
       <use x="127.246094" xlink:href="#DejaVuSans-30"/>
       <use x="190.869141" xlink:href="#DejaVuSans-30"/>
      </g>
     </g>
    </g>
    <g id="xtick_7">
     <g id="line2d_13">
      <path clip-path="url(#p4fecbbb267)" d="M 414.72 307.584 
L 414.72 41.472 
" style="fill:none;stroke:#b0b0b0;stroke-linecap:square;stroke-width:0.8;"/>
     </g>
     <g id="line2d_14">
      <g>
       <use style="stroke:#000000;stroke-width:0.8;" x="414.72" xlink:href="#m3ff016e4ff" y="307.584"/>
      </g>
     </g>
     <g id="text_7">
      <!-- 3000 -->
      <g transform="translate(401.995 322.182437)scale(0.1 -0.1)">
       <defs>
        <path d="M 2597 2516 
Q 3050 2419 3304 2112 
Q 3559 1806 3559 1356 
Q 3559 666 3084 287 
Q 2609 -91 1734 -91 
Q 1441 -91 1130 -33 
Q 819 25 488 141 
L 488 750 
Q 750 597 1062 519 
Q 1375 441 1716 441 
Q 2309 441 2620 675 
Q 2931 909 2931 1356 
Q 2931 1769 2642 2001 
Q 2353 2234 1838 2234 
L 1294 2234 
L 1294 2753 
L 1863 2753 
Q 2328 2753 2575 2939 
Q 2822 3125 2822 3475 
Q 2822 3834 2567 4026 
Q 2313 4219 1838 4219 
Q 1578 4219 1281 4162 
Q 984 4106 628 3988 
L 628 4550 
Q 988 4650 1302 4700 
Q 1616 4750 1894 4750 
Q 2613 4750 3031 4423 
Q 3450 4097 3450 3541 
Q 3450 3153 3228 2886 
Q 3006 2619 2597 2516 
z
" id="DejaVuSans-33" transform="scale(0.015625)"/>
       </defs>
       <use xlink:href="#DejaVuSans-33"/>
       <use x="63.623047" xlink:href="#DejaVuSans-30"/>
       <use x="127.246094" xlink:href="#DejaVuSans-30"/>
       <use x="190.869141" xlink:href="#DejaVuSans-30"/>
      </g>
     </g>
    </g>
    <g id="text_8">
     <!-- Episodes -->
     <g transform="translate(213.917812 335.860562)scale(0.1 -0.1)">
      <defs>
       <path d="M 628 4666 
L 3578 4666 
L 3578 4134 
L 1259 4134 
L 1259 2753 
L 3481 2753 
L 3481 2222 
L 1259 2222 
L 1259 531 
L 3634 531 
L 3634 0 
L 628 0 
L 628 4666 
z
" id="DejaVuSans-45" transform="scale(0.015625)"/>
       <path d="M 1159 525 
L 1159 -1331 
L 581 -1331 
L 581 3500 
L 1159 3500 
L 1159 2969 
Q 1341 3281 1617 3432 
Q 1894 3584 2278 3584 
Q 2916 3584 3314 3078 
Q 3713 2572 3713 1747 
Q 3713 922 3314 415 
Q 2916 -91 2278 -91 
Q 1894 -91 1617 61 
Q 1341 213 1159 525 
z
M 3116 1747 
Q 3116 2381 2855 2742 
Q 2594 3103 2138 3103 
Q 1681 3103 1420 2742 
Q 1159 2381 1159 1747 
Q 1159 1113 1420 752 
Q 1681 391 2138 391 
Q 2594 391 2855 752 
Q 3116 1113 3116 1747 
z
" id="DejaVuSans-70" transform="scale(0.015625)"/>
       <path d="M 603 3500 
L 1178 3500 
L 1178 0 
L 603 0 
L 603 3500 
z
M 603 4863 
L 1178 4863 
L 1178 4134 
L 603 4134 
L 603 4863 
z
" id="DejaVuSans-69" transform="scale(0.015625)"/>
       <path d="M 2834 3397 
L 2834 2853 
Q 2591 2978 2328 3040 
Q 2066 3103 1784 3103 
Q 1356 3103 1142 2972 
Q 928 2841 928 2578 
Q 928 2378 1081 2264 
Q 1234 2150 1697 2047 
L 1894 2003 
Q 2506 1872 2764 1633 
Q 3022 1394 3022 966 
Q 3022 478 2636 193 
Q 2250 -91 1575 -91 
Q 1294 -91 989 -36 
Q 684 19 347 128 
L 347 722 
Q 666 556 975 473 
Q 1284 391 1588 391 
Q 1994 391 2212 530 
Q 2431 669 2431 922 
Q 2431 1156 2273 1281 
Q 2116 1406 1581 1522 
L 1381 1569 
Q 847 1681 609 1914 
Q 372 2147 372 2553 
Q 372 3047 722 3315 
Q 1072 3584 1716 3584 
Q 2034 3584 2315 3537 
Q 2597 3491 2834 3397 
z
" id="DejaVuSans-73" transform="scale(0.015625)"/>
       <path d="M 1959 3097 
Q 1497 3097 1228 2736 
Q 959 2375 959 1747 
Q 959 1119 1226 758 
Q 1494 397 1959 397 
Q 2419 397 2687 759 
Q 2956 1122 2956 1747 
Q 2956 2369 2687 2733 
Q 2419 3097 1959 3097 
z
M 1959 3584 
Q 2709 3584 3137 3096 
Q 3566 2609 3566 1747 
Q 3566 888 3137 398 
Q 2709 -91 1959 -91 
Q 1206 -91 779 398 
Q 353 888 353 1747 
Q 353 2609 779 3096 
Q 1206 3584 1959 3584 
z
" id="DejaVuSans-6f" transform="scale(0.015625)"/>
       <path d="M 2906 2969 
L 2906 4863 
L 3481 4863 
L 3481 0 
L 2906 0 
L 2906 525 
Q 2725 213 2448 61 
Q 2172 -91 1784 -91 
Q 1150 -91 751 415 
Q 353 922 353 1747 
Q 353 2572 751 3078 
Q 1150 3584 1784 3584 
Q 2172 3584 2448 3432 
Q 2725 3281 2906 2969 
z
M 947 1747 
Q 947 1113 1208 752 
Q 1469 391 1925 391 
Q 2381 391 2643 752 
Q 2906 1113 2906 1747 
Q 2906 2381 2643 2742 
Q 2381 3103 1925 3103 
Q 1469 3103 1208 2742 
Q 947 2381 947 1747 
z
" id="DejaVuSans-64" transform="scale(0.015625)"/>
       <path d="M 3597 1894 
L 3597 1613 
L 953 1613 
Q 991 1019 1311 708 
Q 1631 397 2203 397 
Q 2534 397 2845 478 
Q 3156 559 3463 722 
L 3463 178 
Q 3153 47 2828 -22 
Q 2503 -91 2169 -91 
Q 1331 -91 842 396 
Q 353 884 353 1716 
Q 353 2575 817 3079 
Q 1281 3584 2069 3584 
Q 2775 3584 3186 3129 
Q 3597 2675 3597 1894 
z
M 3022 2063 
Q 3016 2534 2758 2815 
Q 2500 3097 2075 3097 
Q 1594 3097 1305 2825 
Q 1016 2553 972 2059 
L 3022 2063 
z
" id="DejaVuSans-65" transform="scale(0.015625)"/>
      </defs>
      <use xlink:href="#DejaVuSans-45"/>
      <use x="63.183594" xlink:href="#DejaVuSans-70"/>
      <use x="126.660156" xlink:href="#DejaVuSans-69"/>
      <use x="154.443359" xlink:href="#DejaVuSans-73"/>
      <use x="206.542969" xlink:href="#DejaVuSans-6f"/>
      <use x="267.724609" xlink:href="#DejaVuSans-64"/>
      <use x="331.201172" xlink:href="#DejaVuSans-65"/>
      <use x="392.724609" xlink:href="#DejaVuSans-73"/>
     </g>
    </g>
   </g>
   <g id="matplotlib.axis_2">
    <g id="ytick_1">
     <g id="line2d_15">
      <path clip-path="url(#p4fecbbb267)" d="M 57.6 286.34941 
L 414.72 286.34941 
" style="fill:none;stroke:#b0b0b0;stroke-linecap:square;stroke-width:0.8;"/>
     </g>
     <g id="line2d_16">
      <defs>
       <path d="M 0 0 
L -3.5 0 
" id="mbbd9045374" style="stroke:#000000;stroke-width:0.8;"/>
      </defs>
      <g>
       <use style="stroke:#000000;stroke-width:0.8;" x="57.6" xlink:href="#mbbd9045374" y="286.34941"/>
      </g>
     </g>
     <g id="text_9">
      <!-- 8500 -->
      <g transform="translate(25.15 290.148629)scale(0.1 -0.1)">
       <defs>
        <path d="M 2034 2216 
Q 1584 2216 1326 1975 
Q 1069 1734 1069 1313 
Q 1069 891 1326 650 
Q 1584 409 2034 409 
Q 2484 409 2743 651 
Q 3003 894 3003 1313 
Q 3003 1734 2745 1975 
Q 2488 2216 2034 2216 
z
M 1403 2484 
Q 997 2584 770 2862 
Q 544 3141 544 3541 
Q 544 4100 942 4425 
Q 1341 4750 2034 4750 
Q 2731 4750 3128 4425 
Q 3525 4100 3525 3541 
Q 3525 3141 3298 2862 
Q 3072 2584 2669 2484 
Q 3125 2378 3379 2068 
Q 3634 1759 3634 1313 
Q 3634 634 3220 271 
Q 2806 -91 2034 -91 
Q 1263 -91 848 271 
Q 434 634 434 1313 
Q 434 1759 690 2068 
Q 947 2378 1403 2484 
z
M 1172 3481 
Q 1172 3119 1398 2916 
Q 1625 2713 2034 2713 
Q 2441 2713 2670 2916 
Q 2900 3119 2900 3481 
Q 2900 3844 2670 4047 
Q 2441 4250 2034 4250 
Q 1625 4250 1398 4047 
Q 1172 3844 1172 3481 
z
" id="DejaVuSans-38" transform="scale(0.015625)"/>
       </defs>
       <use xlink:href="#DejaVuSans-38"/>
       <use x="63.623047" xlink:href="#DejaVuSans-35"/>
       <use x="127.246094" xlink:href="#DejaVuSans-30"/>
       <use x="190.869141" xlink:href="#DejaVuSans-30"/>
      </g>
     </g>
    </g>
    <g id="ytick_2">
     <g id="line2d_17">
      <path clip-path="url(#p4fecbbb267)" d="M 57.6 243.457919 
L 414.72 243.457919 
" style="fill:none;stroke:#b0b0b0;stroke-linecap:square;stroke-width:0.8;"/>
     </g>
     <g id="line2d_18">
      <g>
       <use style="stroke:#000000;stroke-width:0.8;" x="57.6" xlink:href="#mbbd9045374" y="243.457919"/>
      </g>
     </g>
     <g id="text_10">
      <!-- 9000 -->
      <g transform="translate(25.15 247.257138)scale(0.1 -0.1)">
       <defs>
        <path d="M 703 97 
L 703 672 
Q 941 559 1184 500 
Q 1428 441 1663 441 
Q 2288 441 2617 861 
Q 2947 1281 2994 2138 
Q 2813 1869 2534 1725 
Q 2256 1581 1919 1581 
Q 1219 1581 811 2004 
Q 403 2428 403 3163 
Q 403 3881 828 4315 
Q 1253 4750 1959 4750 
Q 2769 4750 3195 4129 
Q 3622 3509 3622 2328 
Q 3622 1225 3098 567 
Q 2575 -91 1691 -91 
Q 1453 -91 1209 -44 
Q 966 3 703 97 
z
M 1959 2075 
Q 2384 2075 2632 2365 
Q 2881 2656 2881 3163 
Q 2881 3666 2632 3958 
Q 2384 4250 1959 4250 
Q 1534 4250 1286 3958 
Q 1038 3666 1038 3163 
Q 1038 2656 1286 2365 
Q 1534 2075 1959 2075 
z
" id="DejaVuSans-39" transform="scale(0.015625)"/>
       </defs>
       <use xlink:href="#DejaVuSans-39"/>
       <use x="63.623047" xlink:href="#DejaVuSans-30"/>
       <use x="127.246094" xlink:href="#DejaVuSans-30"/>
       <use x="190.869141" xlink:href="#DejaVuSans-30"/>
      </g>
     </g>
    </g>
    <g id="ytick_3">
     <g id="line2d_19">
      <path clip-path="url(#p4fecbbb267)" d="M 57.6 200.566427 
L 414.72 200.566427 
" style="fill:none;stroke:#b0b0b0;stroke-linecap:square;stroke-width:0.8;"/>
     </g>
     <g id="line2d_20">
      <g>
       <use style="stroke:#000000;stroke-width:0.8;" x="57.6" xlink:href="#mbbd9045374" y="200.566427"/>
      </g>
     </g>
     <g id="text_11">
      <!-- 9500 -->
      <g transform="translate(25.15 204.365646)scale(0.1 -0.1)">
       <use xlink:href="#DejaVuSans-39"/>
       <use x="63.623047" xlink:href="#DejaVuSans-35"/>
       <use x="127.246094" xlink:href="#DejaVuSans-30"/>
       <use x="190.869141" xlink:href="#DejaVuSans-30"/>
      </g>
     </g>
    </g>
    <g id="ytick_4">
     <g id="line2d_21">
      <path clip-path="url(#p4fecbbb267)" d="M 57.6 157.674936 
L 414.72 157.674936 
" style="fill:none;stroke:#b0b0b0;stroke-linecap:square;stroke-width:0.8;"/>
     </g>
     <g id="line2d_22">
      <g>
       <use style="stroke:#000000;stroke-width:0.8;" x="57.6" xlink:href="#mbbd9045374" y="157.674936"/>
      </g>
     </g>
     <g id="text_12">
      <!-- 10000 -->
      <g transform="translate(18.7875 161.474154)scale(0.1 -0.1)">
       <use xlink:href="#DejaVuSans-31"/>
       <use x="63.623047" xlink:href="#DejaVuSans-30"/>
       <use x="127.246094" xlink:href="#DejaVuSans-30"/>
       <use x="190.869141" xlink:href="#DejaVuSans-30"/>
       <use x="254.492188" xlink:href="#DejaVuSans-30"/>
      </g>
     </g>
    </g>
    <g id="ytick_5">
     <g id="line2d_23">
      <path clip-path="url(#p4fecbbb267)" d="M 57.6 114.783444 
L 414.72 114.783444 
" style="fill:none;stroke:#b0b0b0;stroke-linecap:square;stroke-width:0.8;"/>
     </g>
     <g id="line2d_24">
      <g>
       <use style="stroke:#000000;stroke-width:0.8;" x="57.6" xlink:href="#mbbd9045374" y="114.783444"/>
      </g>
     </g>
     <g id="text_13">
      <!-- 10500 -->
      <g transform="translate(18.7875 118.582663)scale(0.1 -0.1)">
       <use xlink:href="#DejaVuSans-31"/>
       <use x="63.623047" xlink:href="#DejaVuSans-30"/>
       <use x="127.246094" xlink:href="#DejaVuSans-35"/>
       <use x="190.869141" xlink:href="#DejaVuSans-30"/>
       <use x="254.492188" xlink:href="#DejaVuSans-30"/>
      </g>
     </g>
    </g>
    <g id="ytick_6">
     <g id="line2d_25">
      <path clip-path="url(#p4fecbbb267)" d="M 57.6 71.891952 
L 414.72 71.891952 
" style="fill:none;stroke:#b0b0b0;stroke-linecap:square;stroke-width:0.8;"/>
     </g>
     <g id="line2d_26">
      <g>
       <use style="stroke:#000000;stroke-width:0.8;" x="57.6" xlink:href="#mbbd9045374" y="71.891952"/>
      </g>
     </g>
     <g id="text_14">
      <!-- 11000 -->
      <g transform="translate(18.7875 75.691171)scale(0.1 -0.1)">
       <use xlink:href="#DejaVuSans-31"/>
       <use x="63.623047" xlink:href="#DejaVuSans-31"/>
       <use x="127.246094" xlink:href="#DejaVuSans-30"/>
       <use x="190.869141" xlink:href="#DejaVuSans-30"/>
       <use x="254.492188" xlink:href="#DejaVuSans-30"/>
      </g>
     </g>
    </g>
    <g id="text_15">
     <!-- Cumulative Reward -->
     <g transform="translate(12.707812 223.275656)rotate(-90)scale(0.1 -0.1)">
      <defs>
       <path d="M 4122 4306 
L 4122 3641 
Q 3803 3938 3442 4084 
Q 3081 4231 2675 4231 
Q 1875 4231 1450 3742 
Q 1025 3253 1025 2328 
Q 1025 1406 1450 917 
Q 1875 428 2675 428 
Q 3081 428 3442 575 
Q 3803 722 4122 1019 
L 4122 359 
Q 3791 134 3420 21 
Q 3050 -91 2638 -91 
Q 1578 -91 968 557 
Q 359 1206 359 2328 
Q 359 3453 968 4101 
Q 1578 4750 2638 4750 
Q 3056 4750 3426 4639 
Q 3797 4528 4122 4306 
z
" id="DejaVuSans-43" transform="scale(0.015625)"/>
       <path d="M 544 1381 
L 544 3500 
L 1119 3500 
L 1119 1403 
Q 1119 906 1312 657 
Q 1506 409 1894 409 
Q 2359 409 2629 706 
Q 2900 1003 2900 1516 
L 2900 3500 
L 3475 3500 
L 3475 0 
L 2900 0 
L 2900 538 
Q 2691 219 2414 64 
Q 2138 -91 1772 -91 
Q 1169 -91 856 284 
Q 544 659 544 1381 
z
M 1991 3584 
L 1991 3584 
z
" id="DejaVuSans-75" transform="scale(0.015625)"/>
       <path d="M 3328 2828 
Q 3544 3216 3844 3400 
Q 4144 3584 4550 3584 
Q 5097 3584 5394 3201 
Q 5691 2819 5691 2113 
L 5691 0 
L 5113 0 
L 5113 2094 
Q 5113 2597 4934 2840 
Q 4756 3084 4391 3084 
Q 3944 3084 3684 2787 
Q 3425 2491 3425 1978 
L 3425 0 
L 2847 0 
L 2847 2094 
Q 2847 2600 2669 2842 
Q 2491 3084 2119 3084 
Q 1678 3084 1418 2786 
Q 1159 2488 1159 1978 
L 1159 0 
L 581 0 
L 581 3500 
L 1159 3500 
L 1159 2956 
Q 1356 3278 1631 3431 
Q 1906 3584 2284 3584 
Q 2666 3584 2933 3390 
Q 3200 3197 3328 2828 
z
" id="DejaVuSans-6d" transform="scale(0.015625)"/>
       <path d="M 603 4863 
L 1178 4863 
L 1178 0 
L 603 0 
L 603 4863 
z
" id="DejaVuSans-6c" transform="scale(0.015625)"/>
       <path d="M 2194 1759 
Q 1497 1759 1228 1600 
Q 959 1441 959 1056 
Q 959 750 1161 570 
Q 1363 391 1709 391 
Q 2188 391 2477 730 
Q 2766 1069 2766 1631 
L 2766 1759 
L 2194 1759 
z
M 3341 1997 
L 3341 0 
L 2766 0 
L 2766 531 
Q 2569 213 2275 61 
Q 1981 -91 1556 -91 
Q 1019 -91 701 211 
Q 384 513 384 1019 
Q 384 1609 779 1909 
Q 1175 2209 1959 2209 
L 2766 2209 
L 2766 2266 
Q 2766 2663 2505 2880 
Q 2244 3097 1772 3097 
Q 1472 3097 1187 3025 
Q 903 2953 641 2809 
L 641 3341 
Q 956 3463 1253 3523 
Q 1550 3584 1831 3584 
Q 2591 3584 2966 3190 
Q 3341 2797 3341 1997 
z
" id="DejaVuSans-61" transform="scale(0.015625)"/>
       <path d="M 1172 4494 
L 1172 3500 
L 2356 3500 
L 2356 3053 
L 1172 3053 
L 1172 1153 
Q 1172 725 1289 603 
Q 1406 481 1766 481 
L 2356 481 
L 2356 0 
L 1766 0 
Q 1100 0 847 248 
Q 594 497 594 1153 
L 594 3053 
L 172 3053 
L 172 3500 
L 594 3500 
L 594 4494 
L 1172 4494 
z
" id="DejaVuSans-74" transform="scale(0.015625)"/>
       <path d="M 191 3500 
L 800 3500 
L 1894 563 
L 2988 3500 
L 3597 3500 
L 2284 0 
L 1503 0 
L 191 3500 
z
" id="DejaVuSans-76" transform="scale(0.015625)"/>
       <path id="DejaVuSans-20" transform="scale(0.015625)"/>
       <path d="M 2841 2188 
Q 3044 2119 3236 1894 
Q 3428 1669 3622 1275 
L 4263 0 
L 3584 0 
L 2988 1197 
Q 2756 1666 2539 1819 
Q 2322 1972 1947 1972 
L 1259 1972 
L 1259 0 
L 628 0 
L 628 4666 
L 2053 4666 
Q 2853 4666 3247 4331 
Q 3641 3997 3641 3322 
Q 3641 2881 3436 2590 
Q 3231 2300 2841 2188 
z
M 1259 4147 
L 1259 2491 
L 2053 2491 
Q 2509 2491 2742 2702 
Q 2975 2913 2975 3322 
Q 2975 3731 2742 3939 
Q 2509 4147 2053 4147 
L 1259 4147 
z
" id="DejaVuSans-52" transform="scale(0.015625)"/>
       <path d="M 269 3500 
L 844 3500 
L 1563 769 
L 2278 3500 
L 2956 3500 
L 3675 769 
L 4391 3500 
L 4966 3500 
L 4050 0 
L 3372 0 
L 2619 2869 
L 1863 0 
L 1184 0 
L 269 3500 
z
" id="DejaVuSans-77" transform="scale(0.015625)"/>
       <path d="M 2631 2963 
Q 2534 3019 2420 3045 
Q 2306 3072 2169 3072 
Q 1681 3072 1420 2755 
Q 1159 2438 1159 1844 
L 1159 0 
L 581 0 
L 581 3500 
L 1159 3500 
L 1159 2956 
Q 1341 3275 1631 3429 
Q 1922 3584 2338 3584 
Q 2397 3584 2469 3576 
Q 2541 3569 2628 3553 
L 2631 2963 
z
" id="DejaVuSans-72" transform="scale(0.015625)"/>
      </defs>
      <use xlink:href="#DejaVuSans-43"/>
      <use x="69.824219" xlink:href="#DejaVuSans-75"/>
      <use x="133.203125" xlink:href="#DejaVuSans-6d"/>
      <use x="230.615234" xlink:href="#DejaVuSans-75"/>
      <use x="293.994141" xlink:href="#DejaVuSans-6c"/>
      <use x="321.777344" xlink:href="#DejaVuSans-61"/>
      <use x="383.056641" xlink:href="#DejaVuSans-74"/>
      <use x="422.265625" xlink:href="#DejaVuSans-69"/>
      <use x="450.048828" xlink:href="#DejaVuSans-76"/>
      <use x="509.228516" xlink:href="#DejaVuSans-65"/>
      <use x="570.751953" xlink:href="#DejaVuSans-20"/>
      <use x="602.539062" xlink:href="#DejaVuSans-52"/>
      <use x="667.521484" xlink:href="#DejaVuSans-65"/>
      <use x="729.044922" xlink:href="#DejaVuSans-77"/>
      <use x="810.832031" xlink:href="#DejaVuSans-61"/>
      <use x="872.111328" xlink:href="#DejaVuSans-72"/>
      <use x="911.474609" xlink:href="#DejaVuSans-64"/>
     </g>
    </g>
   </g>
   <g id="line2d_27">
    <path clip-path="url(#p4fecbbb267)" d="M 57.6 133.024583 
L 57.71904 121.522125 
L 57.83808 146.779471 
L 58.1952 121.522125 
L 58.31424 146.779471 
L 58.67136 121.522125 
L 58.7904 146.779471 
L 59.14752 121.522125 
L 59.26656 146.779471 
L 59.62368 121.522125 
L 59.74272 146.779471 
L 60.09984 121.522125 
L 60.21888 146.779471 
L 60.576 121.522125 
L 60.69504 146.779471 
L 61.05216 121.522125 
L 61.1712 146.779471 
L 61.52832 121.522125 
L 61.64736 146.779471 
L 62.00448 121.522125 
L 62.12352 146.779471 
L 62.48064 121.522125 
L 62.59968 146.779471 
L 62.9568 121.522125 
L 63.07584 146.779471 
L 63.43296 121.522125 
L 63.552 146.779471 
L 63.90912 121.522125 
L 64.02816 146.779471 
L 64.38528 121.522125 
L 64.50432 146.779471 
L 64.86144 121.522125 
L 64.98048 146.779471 
L 65.3376 121.522125 
L 65.45664 146.779471 
L 65.81376 121.522125 
L 65.9328 146.779471 
L 66.28992 121.522125 
L 66.40896 146.779471 
L 66.76608 121.522125 
L 66.88512 146.779471 
L 67.24224 121.522125 
L 67.36128 146.779471 
L 67.7184 121.522125 
L 67.83744 146.779471 
L 68.19456 121.522125 
L 68.3136 146.779471 
L 68.67072 121.522125 
L 68.78976 146.779471 
L 69.14688 121.522125 
L 69.26592 146.779471 
L 69.62304 116.388745 
L 69.74208 119.996027 
L 69.86112 109.350387 
L 69.98016 133.461149 
L 70.0992 129.146475 
L 70.21824 151.722864 
L 70.33728 99.067721 
L 70.45632 133.524539 
L 70.57536 109.359007 
L 70.6944 119.985101 
L 70.81344 119.474348 
L 70.93248 127.479436 
L 71.05152 120.160244 
L 71.17056 126.965672 
L 71.2896 125.441484 
L 71.52768 191.187134 
L 71.64672 108.693715 
L 71.76576 135.205846 
L 71.8848 100.612774 
L 72.00384 108.578534 
L 72.12288 125.789334 
L 72.24192 108.840561 
L 72.36096 119.987767 
L 72.48 148.655725 
L 72.71808 116.495603 
L 72.83712 135.911795 
L 72.95616 118.643511 
L 73.0752 128.556923 
L 73.19424 117.411074 
L 73.31328 160.684762 
L 73.55136 123.542949 
L 73.6704 135.053865 
L 73.78944 98.656106 
L 73.90848 109.003928 
L 74.02752 154.755619 
L 74.14656 118.100738 
L 74.2656 135.572578 
L 74.38464 125.594006 
L 74.50368 126.787879 
L 74.74176 96.918697 
L 74.8608 139.694196 
L 74.97984 130.633336 
L 75.09888 131.849674 
L 75.21792 139.739407 
L 75.33696 135.55819 
L 75.456 110.822778 
L 75.69408 115.107028 
L 75.81312 125.892341 
L 76.0512 111.990414 
L 76.28928 130.283943 
L 76.40832 122.55178 
L 76.52736 134.987492 
L 76.6464 128.509995 
L 76.76544 106.650953 
L 77.12256 157.091504 
L 77.36064 111.470565 
L 77.47968 170.655804 
L 77.59872 110.586125 
L 77.8368 142.196602 
L 77.95584 112.793161 
L 78.31296 139.466455 
L 78.67008 126.413151 
L 78.78912 137.783599 
L 78.90816 126.110213 
L 79.0272 148.273 
L 79.26528 123.02789 
L 79.38432 159.033265 
L 79.50336 148.712667 
L 79.74144 110.197796 
L 79.97952 130.304491 
L 80.09856 138.032958 
L 80.33664 127.227806 
L 80.45568 136.810126 
L 80.57472 126.538909 
L 80.8128 137.294208 
L 80.93184 102.012156 
L 81.05088 139.677485 
L 81.28896 115.78226 
L 81.408 153.561268 
L 81.64608 117.328276 
L 81.76512 132.100831 
L 82.0032 119.548923 
L 82.12224 124.038542 
L 82.24128 123.957796 
L 82.36032 107.602423 
L 82.5984 122.990017 
L 82.71744 100.014245 
L 82.95552 145.143829 
L 83.1936 91.105828 
L 83.31264 100.233573 
L 83.43168 123.555127 
L 83.66976 100.561363 
L 83.7888 119.987402 
L 83.90784 107.576106 
L 84.14592 137.975814 
L 84.26496 105.349201 
L 84.384 110.4244 
L 84.62208 90.42647 
L 84.86016 125.150526 
L 85.09824 108.272779 
L 85.21728 80.373991 
L 85.33632 123.511786 
L 85.45536 105.996904 
L 85.69344 109.847613 
L 85.81248 120.459001 
L 85.93152 77.964636 
L 86.05056 125.09479 
L 86.1696 111.729014 
L 86.40768 132.355331 
L 86.52672 135.740734 
L 86.7648 101.315019 
L 87.00288 126.541949 
L 87.24096 99.476585 
L 87.36 134.262087 
L 87.47904 114.340829 
L 87.59808 159.449616 
L 87.71712 116.975831 
L 87.83616 127.505054 
L 87.9552 120.881873 
L 88.07424 138.150595 
L 88.31232 92.813308 
L 88.43136 122.004441 
L 88.5504 98.143304 
L 88.66944 141.935504 
L 88.78848 118.703111 
L 88.90752 155.48245 
L 89.02656 93.388819 
L 89.38368 122.790657 
L 89.62176 113.850478 
L 89.7408 115.222181 
L 89.85984 144.018555 
L 89.97888 126.459064 
L 90.09792 138.352078 
L 90.21696 128.62337 
L 90.336 103.198637 
L 90.45504 106.285977 
L 90.69312 126.046422 
L 90.9312 106.854443 
L 91.16928 128.089406 
L 91.28832 130.770527 
L 91.5264 97.984857 
L 91.64544 111.34011 
L 91.76448 106.049953 
L 92.00256 135.052749 
L 92.1216 121.144428 
L 92.24064 121.479169 
L 92.35968 126.702335 
L 92.59776 110.876448 
L 92.83584 124.362441 
L 92.95488 112.237007 
L 93.07392 132.319829 
L 93.19296 120.063354 
L 93.312 129.507223 
L 93.43104 106.948802 
L 93.55008 111.340307 
L 93.66912 101.219651 
L 93.78816 121.373406 
L 93.9072 115.807946 
L 94.02624 135.892819 
L 94.26432 129.390437 
L 94.38336 140.361485 
L 94.62144 118.677385 
L 94.74048 126.674097 
L 94.85952 122.339415 
L 94.97856 125.41332 
L 95.0976 138.077087 
L 95.33568 103.828649 
L 95.45472 123.718508 
L 95.57376 101.787783 
L 95.93088 140.379434 
L 96.04992 137.056396 
L 96.288 121.868454 
L 96.40704 110.801724 
L 96.52608 149.405936 
L 96.64512 116.436336 
L 96.76416 123.31486 
L 96.8832 139.907738 
L 97.00224 127.99198 
L 97.12128 101.574381 
L 97.24032 123.827371 
L 97.35936 111.391192 
L 97.4784 121.292663 
L 97.71648 98.448791 
L 97.95456 139.343003 
L 98.0736 136.528166 
L 98.19264 122.69807 
L 98.31168 135.76986 
L 98.43072 118.057931 
L 98.54976 119.947022 
L 98.6688 143.572439 
L 98.78784 114.403682 
L 98.90688 144.310089 
L 99.02592 124.649702 
L 99.14496 146.298544 
L 99.264 134.828428 
L 99.38304 135.086897 
L 99.62112 122.400027 
L 99.74016 139.726881 
L 99.8592 133.636995 
L 99.97824 116.75503 
L 100.09728 149.398516 
L 100.21632 112.997991 
L 100.33536 128.956959 
L 100.4544 129.213871 
L 100.69248 124.828881 
L 101.0496 159.604201 
L 101.16864 113.754155 
L 101.28768 140.025668 
L 101.52576 107.850265 
L 101.6448 153.820907 
L 101.76384 147.691333 
L 101.88288 117.010673 
L 102.00192 138.589711 
L 102.24 126.473406 
L 102.35904 141.424123 
L 102.47808 123.722203 
L 102.59712 137.125678 
L 102.71616 124.578604 
L 102.8352 156.79188 
L 102.95424 113.146937 
L 103.07328 120.622066 
L 103.19232 156.794716 
L 103.31136 146.03554 
L 103.4304 157.482666 
L 103.54944 129.556533 
L 103.78752 137.85323 
L 103.90656 124.650773 
L 104.0256 153.920801 
L 104.14464 131.848795 
L 104.26368 141.839206 
L 104.38272 126.39083 
L 104.50176 141.980791 
L 104.6208 135.864283 
L 104.73984 145.091528 
L 104.85888 121.319183 
L 104.97792 148.934985 
L 105.09696 121.623464 
L 105.216 160.29573 
L 105.45408 119.46574 
L 105.57312 135.386345 
L 105.69216 119.08576 
L 105.8112 127.347614 
L 105.93024 162.601326 
L 106.16832 144.454087 
L 106.28736 164.375502 
L 106.4064 159.205865 
L 106.52544 168.784508 
L 106.76352 115.766907 
L 107.0016 170.179409 
L 107.23968 124.122146 
L 107.35872 138.440831 
L 107.47776 124.955478 
L 107.5968 136.788797 
L 107.71584 124.352382 
L 107.83488 178.969726 
L 108.07296 120.141802 
L 108.31104 156.692664 
L 108.54912 137.203708 
L 109.02528 123.359609 
L 109.14432 152.493849 
L 109.26336 97.99513 
L 109.3824 158.971035 
L 109.62048 118.996437 
L 109.85856 141.805409 
L 109.9776 124.610199 
L 110.09664 146.32663 
L 110.33472 124.479832 
L 110.45376 139.457926 
L 110.5728 123.81513 
L 110.69184 148.446805 
L 110.81088 114.631123 
L 110.92992 145.47503 
L 111.04896 109.328634 
L 111.40608 166.128053 
L 111.64416 131.034351 
L 111.7632 152.719451 
L 112.00128 138.991553 
L 112.12032 139.168591 
L 112.23936 140.548724 
L 112.3584 159.094968 
L 112.47744 154.360313 
L 112.59648 137.058338 
L 112.71552 142.257108 
L 112.83456 169.784165 
L 113.19168 137.878289 
L 113.31072 115.32813 
L 113.42976 178.940999 
L 113.66784 115.258696 
L 113.90592 146.008507 
L 114.02496 153.726975 
L 114.144 137.774011 
L 114.38208 161.388915 
L 114.50112 105.732656 
L 114.7392 126.703535 
L 114.85824 134.32826 
L 114.97728 114.344607 
L 115.09632 170.242654 
L 115.21536 105.88229 
L 115.3344 133.511583 
L 115.45344 129.996302 
L 115.57248 149.203429 
L 115.81056 124.282092 
L 115.9296 127.210603 
L 116.16768 142.198782 
L 116.28672 181.586564 
L 116.5248 129.882162 
L 116.76288 145.080585 
L 116.88192 134.328446 
L 117.00096 150.763028 
L 117.12 145.947377 
L 117.23904 102.314975 
L 117.47712 156.287845 
L 117.59616 142.618164 
L 117.7152 153.303611 
L 117.83424 140.819306 
L 117.95328 158.799198 
L 118.07232 146.704363 
L 118.19136 149.929889 
L 118.54848 98.798746 
L 118.78656 141.155638 
L 118.9056 111.936624 
L 119.14368 144.872396 
L 119.26272 147.434675 
L 119.38176 153.610576 
L 119.5008 124.269678 
L 119.73888 160.401688 
L 119.97696 131.813098 
L 120.096 140.022294 
L 120.33408 110.79503 
L 120.45312 155.195546 
L 120.57216 158.072074 
L 120.6912 140.891811 
L 120.81024 160.189172 
L 120.92928 159.906298 
L 121.16736 142.783369 
L 121.2864 146.387276 
L 121.40544 118.850903 
L 121.52448 137.512089 
L 121.64352 179.887637 
L 121.76256 129.725707 
L 121.8816 128.930745 
L 122.11968 151.413138 
L 122.35776 134.674099 
L 122.4768 161.842521 
L 122.59584 122.566352 
L 122.71488 140.62599 
L 122.83392 126.531927 
L 122.95296 138.988683 
L 123.072 131.235011 
L 123.19104 152.687974 
L 123.31008 142.916306 
L 123.42912 118.602399 
L 123.54816 127.651696 
L 123.6672 108.224793 
L 123.90528 147.702456 
L 124.02432 124.585272 
L 124.14336 155.015114 
L 124.2624 122.817467 
L 124.38144 145.489073 
L 124.50048 143.734628 
L 124.61952 129.88646 
L 124.8576 164.988157 
L 124.97664 142.60511 
L 125.09568 146.377405 
L 125.21472 139.473193 
L 125.33376 151.377867 
L 125.4528 136.98467 
L 125.57184 147.658701 
L 125.69088 132.171959 
L 125.80992 147.36316 
L 125.92896 135.327159 
L 126.048 150.499388 
L 126.16704 107.76779 
L 126.40512 154.077257 
L 126.6432 117.578249 
L 126.76224 136.442088 
L 126.88128 112.116304 
L 127.00032 117.758258 
L 127.11936 108.375007 
L 127.2384 145.393159 
L 127.35744 142.274278 
L 127.47648 117.970525 
L 127.71456 161.63723 
L 127.8336 128.102539 
L 127.95264 142.222485 
L 128.07168 119.815468 
L 128.19072 123.621064 
L 128.30976 162.921222 
L 128.4288 149.204412 
L 128.54784 170.65799 
L 128.78592 122.286852 
L 128.90496 128.383209 
L 129.024 141.048596 
L 129.14304 121.773394 
L 129.26208 127.186096 
L 129.38112 117.667695 
L 129.50016 125.798672 
L 129.6192 145.851711 
L 129.73824 142.360026 
L 129.97632 106.507187 
L 130.09536 127.755524 
L 130.2144 119.799148 
L 130.33344 121.9335 
L 130.45248 115.837864 
L 130.57152 154.874475 
L 130.8096 123.397979 
L 130.92864 120.88758 
L 131.04768 142.157892 
L 131.4048 120.774045 
L 131.52384 107.044614 
L 131.64288 144.064569 
L 131.76192 116.854881 
L 131.88096 128.952371 
L 132 113.41152 
L 132.11904 128.923336 
L 132.23808 121.300075 
L 132.35712 95.671409 
L 132.47616 169.047154 
L 132.5952 129.363558 
L 132.71424 160.114686 
L 132.83328 111.794576 
L 132.95232 110.562653 
L 133.07136 101.257231 
L 133.30944 126.404116 
L 133.42848 120.093868 
L 133.54752 125.455611 
L 133.66656 108.058884 
L 133.90464 139.49891 
L 134.02368 125.240377 
L 134.14272 129.181944 
L 134.26176 113.966238 
L 134.49984 156.758191 
L 134.73792 141.313344 
L 134.85696 109.570662 
L 134.976 139.64176 
L 135.09504 112.377879 
L 135.21408 114.393797 
L 135.33312 109.259227 
L 135.45216 130.864151 
L 135.5712 127.568117 
L 135.69024 129.620539 
L 135.80928 110.130682 
L 135.92832 137.342224 
L 136.1664 112.994557 
L 136.40448 120.692492 
L 136.52352 100.626268 
L 136.64256 110.681425 
L 136.7616 145.332438 
L 136.88064 110.466238 
L 136.99968 111.746388 
L 137.11872 159.449666 
L 137.23776 130.197513 
L 137.3568 161.559738 
L 137.47584 131.731709 
L 137.59488 138.54132 
L 137.71392 131.979395 
L 137.83296 104.51966 
L 138.07104 128.405592 
L 138.19008 131.445319 
L 138.5472 120.340578 
L 138.78528 152.247427 
L 139.02336 112.205704 
L 139.1424 114.25049 
L 139.26144 117.770557 
L 139.38048 106.30124 
L 139.49952 111.072913 
L 139.61856 145.056483 
L 139.85664 115.92657 
L 139.97568 119.223423 
L 140.09472 142.344686 
L 140.21376 106.758629 
L 140.3328 156.903421 
L 140.57088 124.09002 
L 140.68992 130.897356 
L 140.80896 89.267358 
L 141.04704 146.895387 
L 141.16608 108.431505 
L 141.28512 151.416793 
L 141.40416 142.698764 
L 141.5232 109.313484 
L 141.64224 131.991469 
L 141.76128 117.509547 
L 141.88032 142.760601 
L 141.99936 127.877342 
L 142.1184 131.427893 
L 142.23744 130.856151 
L 142.35648 127.987571 
L 142.59456 147.673113 
L 142.83264 121.256969 
L 142.95168 113.745665 
L 143.07072 151.385838 
L 143.18976 105.921573 
L 143.3088 157.529933 
L 143.54688 107.604289 
L 143.78496 141.432372 
L 143.904 109.232469 
L 144.02304 139.983952 
L 144.14208 130.563121 
L 144.26112 134.954444 
L 144.38016 165.000837 
L 144.61824 122.021613 
L 144.85632 137.427926 
L 144.97536 129.941186 
L 145.0944 135.719281 
L 145.33248 115.223752 
L 145.45152 152.115747 
L 145.80864 103.894907 
L 145.92768 111.390203 
L 146.16576 133.650449 
L 146.2848 117.646075 
L 146.40384 118.718216 
L 146.64192 164.972436 
L 146.76096 135.017241 
L 146.88 137.640739 
L 146.99904 113.030289 
L 147.23712 170.449937 
L 147.35616 114.080236 
L 147.4752 196.746814 
L 147.71328 127.769671 
L 147.83232 138.525605 
L 147.95136 120.59551 
L 148.0704 121.347114 
L 148.18944 133.871035 
L 148.30848 163.920195 
L 148.54656 98.758875 
L 148.6656 146.928063 
L 148.78464 112.566314 
L 148.90368 145.882636 
L 149.02272 101.40332 
L 149.2608 108.040718 
L 149.37984 104.598502 
L 149.49888 125.651959 
L 149.61792 119.114024 
L 149.73696 160.53301 
L 149.97504 106.160962 
L 150.09408 106.488004 
L 150.4512 148.501093 
L 150.68928 94.376418 
L 150.92736 138.896491 
L 151.0464 120.961944 
L 151.16544 122.821695 
L 151.28448 126.469514 
L 151.40352 154.772337 
L 151.52256 111.030664 
L 151.6416 122.744226 
L 151.87968 112.237427 
L 151.99872 125.058614 
L 152.11776 119.234148 
L 152.2368 103.014078 
L 152.47488 151.409816 
L 152.71296 120.170273 
L 152.832 118.277297 
L 153.18912 141.20877 
L 153.30816 145.929454 
L 153.4272 131.694969 
L 153.66528 164.1484 
L 153.78432 129.85504 
L 153.90336 152.616264 
L 154.0224 130.052821 
L 154.14144 157.399891 
L 154.26048 122.559319 
L 154.37952 146.699344 
L 154.49856 116.389109 
L 154.73664 130.506549 
L 154.85568 131.129763 
L 154.97472 108.526483 
L 155.09376 144.373768 
L 155.33184 132.159638 
L 155.56992 142.784656 
L 155.68896 116.265218 
L 155.808 154.297918 
L 155.92704 137.297649 
L 156.16512 149.786643 
L 156.28416 116.353642 
L 156.4032 121.310973 
L 156.52224 163.495236 
L 156.64128 159.317086 
L 156.76032 120.921559 
L 156.87936 153.849957 
L 156.9984 126.574548 
L 157.23648 171.037311 
L 157.35552 139.083668 
L 157.47456 137.519448 
L 157.71264 152.560487 
L 157.83168 130.663748 
L 157.95072 135.230152 
L 158.06976 146.034374 
L 158.30784 181.429951 
L 158.54592 116.931762 
L 158.66496 185.057153 
L 158.90304 120.954773 
L 159.14112 158.08497 
L 159.26016 132.798038 
L 159.3792 160.255024 
L 159.49824 119.216124 
L 159.73632 156.002978 
L 159.85536 104.994267 
L 159.9744 114.362248 
L 160.09344 112.888154 
L 160.21248 154.525685 
L 160.33152 143.063255 
L 160.45056 113.037593 
L 160.68864 170.566791 
L 160.80768 128.602558 
L 160.92672 141.583462 
L 161.04576 170.540826 
L 161.1648 123.054016 
L 161.40288 176.74778 
L 161.52192 112.263075 
L 161.64096 189.89579 
L 161.76 120.72257 
L 161.87904 144.359354 
L 161.99808 136.655919 
L 162.11712 146.808551 
L 162.23616 138.326769 
L 162.3552 143.966825 
L 162.47424 137.320731 
L 162.59328 120.361269 
L 162.9504 181.596562 
L 163.06944 100.95313 
L 163.30752 137.614078 
L 163.42656 125.098083 
L 163.5456 184.563969 
L 163.78368 147.716174 
L 163.90272 149.510457 
L 164.02176 152.994072 
L 164.1408 123.975468 
L 164.25984 139.224432 
L 164.37888 106.22765 
L 164.49792 118.328563 
L 164.61696 118.3028 
L 164.736 204.866795 
L 164.85504 138.661357 
L 164.97408 198.423882 
L 165.09312 128.078344 
L 165.21216 156.019631 
L 165.3312 122.836254 
L 165.45024 123.653697 
L 165.56928 180.387703 
L 165.68832 120.473715 
L 165.80736 169.953103 
L 166.04544 123.998495 
L 166.16448 171.316009 
L 166.28352 161.056499 
L 166.5216 108.606815 
L 166.75968 143.364255 
L 166.87872 137.301229 
L 166.99776 165.812001 
L 167.1168 161.064864 
L 167.23584 134.3264 
L 167.35488 155.103239 
L 167.47392 118.989973 
L 167.59296 141.457507 
L 167.712 132.108041 
L 167.83104 141.386167 
L 168.06912 125.463021 
L 168.18816 140.098389 
L 168.3072 106.113635 
L 168.42624 197.043137 
L 168.66432 111.420461 
L 168.78336 114.184107 
L 169.02144 170.273529 
L 169.14048 190.969553 
L 169.37856 89.361043 
L 169.4976 154.872207 
L 169.85472 119.761756 
L 169.97376 153.974159 
L 170.0928 124.947217 
L 170.21184 152.03998 
L 170.33088 141.950191 
L 170.44992 105.272071 
L 170.56896 111.685104 
L 170.688 195.409439 
L 170.80704 156.884865 
L 170.92608 165.342196 
L 171.04512 142.675941 
L 171.16416 152.478391 
L 171.2832 147.279621 
L 171.40224 128.290135 
L 171.52128 176.63782 
L 171.64032 134.90613 
L 171.75936 189.433236 
L 171.8784 147.453387 
L 171.99744 149.839099 
L 172.23552 134.321763 
L 172.35456 152.968407 
L 172.4736 110.462884 
L 172.59264 170.882807 
L 172.71168 134.570998 
L 172.83072 133.667428 
L 172.94976 155.328971 
L 173.0688 133.307812 
L 173.18784 182.384223 
L 173.30688 164.765262 
L 173.42592 119.315034 
L 173.54496 139.51273 
L 173.664 136.453022 
L 173.78304 141.063363 
L 173.90208 102.390455 
L 174.02112 161.694315 
L 174.14016 138.749356 
L 174.2592 161.886647 
L 174.49728 142.891316 
L 174.61632 132.002607 
L 174.73536 169.670266 
L 174.8544 126.853466 
L 174.97344 151.914368 
L 175.09248 150.111947 
L 175.33056 117.235674 
L 175.4496 154.875372 
L 175.56864 142.74067 
L 175.68768 161.947695 
L 175.80672 143.641447 
L 175.92576 177.911227 
L 176.0448 63.648 
L 176.16384 167.774847 
L 176.40192 133.377989 
L 176.52096 178.343944 
L 176.64 161.8396 
L 176.75904 120.590138 
L 176.87808 136.102639 
L 176.99712 94.086579 
L 177.11616 130.775705 
L 177.2352 123.10874 
L 177.35424 138.397417 
L 177.47328 104.740655 
L 177.59232 134.246482 
L 177.71136 225.185759 
L 177.94944 109.538821 
L 178.06848 146.414971 
L 178.18752 143.093192 
L 178.30656 126.12748 
L 178.4256 187.787938 
L 178.66368 87.019315 
L 178.78272 135.168633 
L 178.90176 122.780546 
L 179.0208 178.822183 
L 179.13984 107.977679 
L 179.25888 138.469801 
L 179.37792 124.932093 
L 179.49696 124.212829 
L 179.616 154.229914 
L 179.73504 153.143217 
L 179.85408 143.8379 
L 179.97312 121.9775 
L 180.2112 134.380473 
L 180.33024 110.638879 
L 180.56832 174.075033 
L 180.8064 129.543276 
L 180.92544 127.203881 
L 181.16352 116.860106 
L 181.28256 131.013544 
L 181.4016 163.018309 
L 181.52064 141.843119 
L 181.63968 146.365052 
L 181.75872 145.083283 
L 181.87776 134.322515 
L 181.9968 140.255849 
L 182.11584 173.326071 
L 182.23488 148.075159 
L 182.35392 161.834207 
L 182.47296 285.408 
L 182.71104 114.765789 
L 182.83008 112.763653 
L 182.94912 142.141685 
L 183.06816 141.730152 
L 183.1872 134.412665 
L 183.30624 140.888519 
L 183.42528 138.819811 
L 183.54432 142.546162 
L 183.66336 156.058809 
L 183.7824 114.752491 
L 183.90144 189.077479 
L 184.02048 124.484048 
L 184.13952 137.400875 
L 184.25856 134.025285 
L 184.3776 105.370052 
L 184.49664 113.065447 
L 184.61568 148.623213 
L 184.73472 138.762171 
L 184.85376 190.179349 
L 184.9728 128.844675 
L 185.09184 168.966549 
L 185.21088 157.527285 
L 185.32992 121.926388 
L 185.44896 169.474471 
L 185.568 106.052788 
L 185.68704 120.095722 
L 185.80608 119.902553 
L 185.92512 132.998457 
L 186.04416 113.562486 
L 186.1632 174.108215 
L 186.28224 109.899772 
L 186.40128 137.555788 
L 186.52032 123.820994 
L 186.63936 130.179804 
L 186.7584 192.329983 
L 186.99648 131.870375 
L 187.23456 114.98831 
L 187.3536 123.790556 
L 187.47264 117.987248 
L 187.59168 153.689186 
L 187.71072 133.836041 
L 187.82976 149.688838 
L 187.9488 123.76701 
L 188.06784 122.640242 
L 188.18688 101.404693 
L 188.30592 138.447513 
L 188.42496 97.79133 
L 188.544 99.17996 
L 188.66304 140.37123 
L 188.78208 128.576098 
L 188.90112 149.698841 
L 189.02016 125.435521 
L 189.25824 173.159529 
L 189.37728 173.326791 
L 189.61536 144.677017 
L 189.7344 152.726572 
L 189.85344 129.482049 
L 189.97248 128.676236 
L 190.09152 129.042592 
L 190.21056 116.07551 
L 190.3296 127.767054 
L 190.56768 110.568152 
L 190.68672 117.031902 
L 190.80576 155.013697 
L 190.9248 145.503153 
L 191.04384 115.392597 
L 191.16288 116.747306 
L 191.28192 124.631714 
L 191.40096 104.265731 
L 191.75808 137.725003 
L 191.87712 125.115966 
L 191.99616 171.754482 
L 192.1152 123.958995 
L 192.23424 150.34204 
L 192.35328 102.295865 
L 192.59136 152.663039 
L 192.7104 149.974336 
L 192.82944 89.341817 
L 193.06752 152.261738 
L 193.18656 143.007455 
L 193.42464 109.738473 
L 193.54368 123.606076 
L 193.66272 153.04754 
L 193.78176 150.270367 
L 193.9008 98.772076 
L 194.25792 158.784907 
L 194.37696 146.44192 
L 194.496 147.110054 
L 194.61504 109.487573 
L 194.73408 128.577427 
L 194.85312 125.101103 
L 194.97216 114.747403 
L 195.0912 189.808879 
L 195.21024 118.531232 
L 195.32928 130.444001 
L 195.44832 158.701905 
L 195.56736 94.435647 
L 195.6864 101.41556 
L 195.92448 130.688356 
L 196.04352 145.920115 
L 196.16256 140.145435 
L 196.2816 103.437481 
L 196.40064 111.58474 
L 196.51968 177.193 
L 196.63872 90.98479 
L 196.75776 105.245791 
L 196.8768 138.959997 
L 196.99584 103.475897 
L 197.11488 109.817713 
L 197.23392 97.015272 
L 197.59104 167.125005 
L 197.71008 141.042943 
L 197.82912 145.852962 
L 197.94816 156.155214 
L 198.0672 151.01137 
L 198.18624 125.720032 
L 198.30528 159.576422 
L 198.42432 126.338491 
L 198.54336 176.599048 
L 198.6624 136.833652 
L 198.78144 140.349306 
L 198.90048 152.675801 
L 199.01952 151.968663 
L 199.13856 178.942231 
L 199.2576 102.496661 
L 199.37664 119.090742 
L 199.49568 198.193408 
L 199.73376 145.022827 
L 199.8528 127.590977 
L 199.97184 153.294841 
L 200.09088 97.969994 
L 200.32896 231.814216 
L 200.448 124.865715 
L 200.56704 150.99771 
L 200.68608 203.525414 
L 200.80512 147.684472 
L 200.92416 158.808072 
L 201.16224 96.974061 
L 201.28128 125.901765 
L 201.40032 186.624963 
L 201.51936 168.798764 
L 201.75744 103.94526 
L 201.87648 103.845809 
L 202.11456 212.698368 
L 202.35264 106.711743 
L 202.47168 95.589581 
L 202.59072 150.81356 
L 202.94784 128.420295 
L 203.06688 139.263895 
L 203.18592 133.628503 
L 203.424 116.3108 
L 203.54304 143.671681 
L 203.78112 112.043312 
L 203.90016 136.572933 
L 204.13824 120.390645 
L 204.25728 120.371734 
L 204.37632 135.508829 
L 204.49536 134.03469 
L 204.6144 146.145996 
L 204.85248 114.302007 
L 205.09056 171.379013 
L 205.44768 123.015755 
L 205.56672 133.01899 
L 205.68576 124.201541 
L 205.8048 133.226941 
L 206.04288 65.962187 
L 206.16192 179.915262 
L 206.4 110.817163 
L 206.51904 103.769206 
L 206.63808 150.719353 
L 206.75712 110.858346 
L 206.87616 131.261405 
L 206.9952 103.025048 
L 207.11424 111.229914 
L 207.23328 130.172802 
L 207.35232 169.814896 
L 207.47136 162.972089 
L 207.5904 122.59292 
L 207.70944 133.327369 
L 207.82848 97.461628 
L 207.94752 99.325516 
L 208.06656 118.921377 
L 208.1856 101.349867 
L 208.30464 109.85684 
L 208.42368 136.561606 
L 208.54272 102.489093 
L 208.7808 126.981412 
L 208.89984 107.14727 
L 209.01888 134.235397 
L 209.13792 114.085936 
L 209.25696 130.04835 
L 209.376 112.843611 
L 209.49504 168.154687 
L 209.61408 100.183226 
L 209.9712 152.13915 
L 210.20928 116.681804 
L 210.32832 163.47896 
L 210.44736 153.734372 
L 210.5664 169.842837 
L 210.80448 105.21058 
L 211.04256 172.814343 
L 211.1616 121.499919 
L 211.28064 118.540751 
L 211.39968 120.177973 
L 211.51872 112.501189 
L 211.63776 123.353249 
L 211.87584 89.367493 
L 212.11392 150.559804 
L 212.352 95.613254 
L 212.47104 88.422226 
L 212.59008 150.749988 
L 212.82816 112.06804 
L 213.06624 96.682835 
L 213.18528 152.849119 
L 213.42336 118.201607 
L 213.66144 170.340594 
L 213.89952 120.776437 
L 214.01856 94.699093 
L 214.1376 133.751615 
L 214.25664 98.151944 
L 214.37568 102.020716 
L 214.61376 136.378133 
L 214.85184 101.906882 
L 214.97088 153.436604 
L 215.20896 107.630561 
L 215.328 99.401051 
L 215.44704 117.507392 
L 215.56608 115.887834 
L 215.68512 111.914484 
L 215.80416 135.971568 
L 215.9232 113.612268 
L 216.04224 118.281898 
L 216.28032 106.321834 
L 216.39936 137.480013 
L 216.5184 95.455487 
L 216.63744 96.852107 
L 216.87552 108.10065 
L 216.99456 94.442807 
L 217.1136 96.372885 
L 217.23264 126.955784 
L 217.35168 120.326541 
L 217.47072 128.77929 
L 217.58976 110.51855 
L 217.7088 112.855658 
L 217.82784 106.396896 
L 218.06592 144.223976 
L 218.18496 97.254824 
L 218.42304 151.214952 
L 218.54208 112.206823 
L 218.78016 135.685125 
L 219.01824 110.660484 
L 219.13728 116.726429 
L 219.25632 137.767488 
L 219.4944 109.830602 
L 219.73248 105.389949 
L 219.85152 90.060176 
L 219.97056 108.921503 
L 220.0896 99.446038 
L 220.32768 109.237722 
L 220.44672 93.514898 
L 220.56576 100.05671 
L 220.6848 87.149759 
L 220.80384 97.453118 
L 220.92288 78.17874 
L 221.04192 116.575708 
L 221.16096 113.051204 
L 221.39904 103.154837 
L 221.51808 104.056131 
L 221.63712 139.312779 
L 221.75616 88.936676 
L 221.8752 97.130348 
L 221.99424 83.974951 
L 222.11328 180.652445 
L 222.4704 111.353976 
L 222.58944 122.596663 
L 222.70848 119.898555 
L 222.82752 125.38839 
L 222.94656 136.230692 
L 223.0656 95.589076 
L 223.30368 146.784858 
L 223.54176 117.898869 
L 223.6608 113.937321 
L 223.89888 95.044595 
L 224.01792 128.374917 
L 224.13696 127.970931 
L 224.256 103.771021 
L 224.37504 104.178482 
L 224.73216 146.716582 
L 224.8512 129.007789 
L 225.08928 81.592246 
L 225.32736 101.253527 
L 225.68448 123.08445 
L 225.80352 91.153751 
L 225.92256 131.726688 
L 226.0416 64.343715 
L 226.27968 138.518426 
L 226.51776 76.006069 
L 226.75584 138.475572 
L 226.87488 102.528904 
L 226.99392 119.368572 
L 227.232 92.942678 
L 227.35104 112.160734 
L 227.47008 107.6796 
L 227.58912 93.653218 
L 227.70816 147.494933 
L 227.8272 99.257459 
L 227.94624 135.580351 
L 228.06528 95.703919 
L 228.18432 138.246691 
L 228.30336 86.63341 
L 228.4224 159.20688 
L 228.66048 111.300229 
L 228.77952 134.747252 
L 228.89856 107.52425 
L 229.0176 141.535693 
L 229.13664 125.618549 
L 229.25568 91.066668 
L 229.37472 187.168082 
L 229.49376 112.927303 
L 229.6128 120.413054 
L 229.73184 144.917977 
L 229.96992 100.03789 
L 230.44608 138.67558 
L 230.68416 77.089372 
L 230.8032 161.229331 
L 230.92224 142.779873 
L 231.04128 150.429601 
L 231.27936 109.374108 
L 231.3984 150.786274 
L 231.51744 99.764726 
L 231.63648 129.552028 
L 231.87456 85.494996 
L 231.9936 185.470421 
L 232.11264 125.826126 
L 232.23168 128.894331 
L 232.35072 135.883029 
L 232.5888 106.794135 
L 232.70784 103.728935 
L 232.94592 120.14056 
L 233.06496 98.432531 
L 233.184 158.965459 
L 233.42208 83.740342 
L 233.66016 148.371003 
L 233.89824 95.408599 
L 234.01728 134.339862 
L 234.13632 102.683158 
L 234.3744 129.887615 
L 234.49344 109.31232 
L 234.61248 122.826727 
L 234.73152 120.684898 
L 234.85056 96.679602 
L 235.08864 173.424579 
L 235.44576 86.302265 
L 235.5648 108.655913 
L 235.68384 97.48686 
L 235.80288 111.189975 
L 235.92192 109.087272 
L 236.04096 130.259709 
L 236.16 129.641558 
L 236.27904 125.481917 
L 236.39808 81.147819 
L 236.63616 112.367608 
L 236.7552 135.730095 
L 236.87424 135.575349 
L 237.11232 107.014974 
L 237.23136 76.313492 
L 237.3504 114.708613 
L 237.46944 85.594478 
L 237.58848 133.43803 
L 237.82656 115.5779 
L 237.9456 113.857608 
L 238.06464 137.774368 
L 238.18368 100.037383 
L 238.30272 109.242982 
L 238.42176 79.799004 
L 238.65984 124.144094 
L 238.77888 129.532612 
L 238.89792 102.960874 
L 239.01696 110.876154 
L 239.136 166.963922 
L 239.37408 119.502037 
L 239.49312 137.646941 
L 239.61216 93.138959 
L 239.7312 114.635738 
L 239.85024 103.399439 
L 239.96928 129.103592 
L 240.20736 94.585869 
L 240.3264 129.761774 
L 240.44544 119.952383 
L 240.68352 89.650864 
L 240.80256 141.501511 
L 240.9216 92.166321 
L 241.04064 125.16825 
L 241.15968 108.765633 
L 241.27872 114.849597 
L 241.39776 103.801037 
L 241.5168 132.107152 
L 241.63584 131.64943 
L 241.75488 97.926955 
L 241.87392 164.725939 
L 241.99296 101.379143 
L 242.112 137.956705 
L 242.35008 100.938356 
L 242.46912 110.954707 
L 242.58816 90.617848 
L 242.7072 122.00224 
L 243.06432 113.718172 
L 243.18336 92.496805 
L 243.3024 138.240325 
L 243.54048 106.782532 
L 243.65952 131.128133 
L 243.77856 179.882766 
L 244.13568 101.044592 
L 244.25472 112.587363 
L 244.4928 105.431974 
L 244.61184 163.056869 
L 244.73088 105.25246 
L 244.84992 173.91609 
L 244.96896 107.945034 
L 245.20704 111.937306 
L 245.32608 134.399109 
L 245.44512 120.313437 
L 245.56416 122.195377 
L 245.6832 117.321795 
L 245.80224 132.877485 
L 245.92128 127.350563 
L 246.04032 105.588343 
L 246.15936 146.083955 
L 246.2784 116.424104 
L 246.39744 137.508813 
L 246.51648 135.933943 
L 246.63552 116.557244 
L 246.75456 115.761456 
L 246.8736 122.513541 
L 246.99264 100.378199 
L 247.23072 122.708783 
L 247.34976 101.840549 
L 247.58784 133.124035 
L 247.70688 104.185974 
L 247.82592 112.160975 
L 247.94496 95.061576 
L 248.064 111.233664 
L 248.18304 108.770745 
L 248.30208 148.808821 
L 248.42112 102.492788 
L 248.6592 135.031304 
L 248.77824 105.852681 
L 248.89728 105.638373 
L 249.01632 113.302634 
L 249.2544 145.642295 
L 249.49248 105.849952 
L 249.61152 105.952895 
L 249.73056 107.311969 
L 249.8496 123.19641 
L 249.96864 116.337928 
L 250.20672 144.341647 
L 250.4448 106.529423 
L 250.68288 131.473011 
L 250.80192 140.471394 
L 250.92096 107.684573 
L 251.04 121.249403 
L 251.15904 110.769987 
L 251.39712 125.86908 
L 251.51616 119.541674 
L 251.75424 121.257102 
L 251.87328 109.032985 
L 251.99232 133.965643 
L 252.11136 126.576452 
L 252.2304 97.062942 
L 252.34944 111.529335 
L 252.46848 146.083376 
L 252.70656 116.09975 
L 252.94464 93.654386 
L 253.06368 98.846889 
L 253.18272 175.387738 
L 253.4208 99.985739 
L 253.53984 162.325727 
L 253.77792 101.26062 
L 253.89696 106.210714 
L 254.016 143.138343 
L 254.37312 128.972301 
L 254.6112 100.789449 
L 254.73024 84.037057 
L 254.84928 107.341152 
L 254.96832 106.213421 
L 255.08736 122.957978 
L 255.32544 95.462342 
L 255.44448 147.03318 
L 255.56352 110.962284 
L 255.8016 130.065042 
L 255.92064 124.026868 
L 256.03968 125.619544 
L 256.15872 130.228325 
L 256.3968 88.293458 
L 256.51584 111.628215 
L 256.63488 92.574346 
L 256.75392 137.365041 
L 256.87296 132.440942 
L 256.992 98.198101 
L 257.11104 135.652056 
L 257.23008 136.426445 
L 257.34912 110.417467 
L 257.5872 142.914888 
L 257.82528 106.41171 
L 258.06336 157.658519 
L 258.1824 81.319992 
L 258.30144 103.297974 
L 258.42048 94.408292 
L 258.65856 140.83546 
L 258.89664 101.266749 
L 259.13472 124.535658 
L 259.25376 125.576719 
L 259.3728 103.494421 
L 259.49184 136.857087 
L 259.61088 99.852437 
L 259.84896 151.247193 
L 260.08704 85.827489 
L 260.44416 125.355472 
L 260.5632 115.381517 
L 260.68224 117.217872 
L 260.80128 134.078245 
L 260.92032 108.215162 
L 261.03936 147.954226 
L 261.1584 96.60288 
L 261.39648 148.839019 
L 261.51552 132.487059 
L 261.63456 88.829657 
L 261.7536 97.504246 
L 261.99168 162.605167 
L 262.46784 96.659215 
L 262.70592 128.57237 
L 262.82496 95.865911 
L 262.944 119.057853 
L 263.06304 110.273103 
L 263.30112 146.138635 
L 263.65824 98.302136 
L 263.89632 133.816301 
L 264.01536 94.657943 
L 264.1344 113.49081 
L 264.25344 161.937697 
L 264.37248 122.118917 
L 264.61056 178.666045 
L 264.96768 87.147694 
L 265.20576 160.457361 
L 265.3248 115.477176 
L 265.44384 131.66975 
L 265.68192 103.172046 
L 265.80096 143.599655 
L 265.92 137.115011 
L 266.03904 99.517183 
L 266.15808 151.968803 
L 266.27712 87.343614 
L 266.5152 142.168157 
L 266.75328 108.883258 
L 266.87232 117.723387 
L 266.99136 113.751517 
L 267.1104 103.667742 
L 267.22944 110.239639 
L 267.34848 124.333795 
L 267.58656 71.821832 
L 267.7056 148.755734 
L 267.82464 97.643046 
L 267.94368 112.628234 
L 268.06272 89.809057 
L 268.3008 144.24267 
L 268.41984 145.789177 
L 268.53888 91.04479 
L 268.77696 131.822965 
L 268.896 130.721401 
L 269.01504 103.087283 
L 269.25312 133.403021 
L 269.37216 118.183639 
L 269.61024 151.903623 
L 269.72928 94.458394 
L 269.84832 118.234558 
L 269.96736 111.111426 
L 270.0864 117.631053 
L 270.20544 98.534662 
L 270.32448 148.052388 
L 270.44352 117.829882 
L 270.56256 126.505292 
L 270.80064 109.363773 
L 271.03872 122.545945 
L 271.15776 101.886259 
L 271.2768 100.64889 
L 271.51488 153.80528 
L 271.63392 105.026683 
L 271.75296 139.26947 
L 271.872 95.055364 
L 272.11008 131.208546 
L 272.22912 111.671112 
L 272.34816 128.15857 
L 272.4672 176.304444 
L 272.58624 107.237707 
L 272.70528 135.129492 
L 272.82432 119.092305 
L 272.94336 82.649675 
L 273.0624 163.512333 
L 273.18144 167.463863 
L 273.30048 104.142732 
L 273.41952 107.352114 
L 273.53856 89.49837 
L 273.77664 108.359389 
L 273.89568 87.609279 
L 274.13376 138.475585 
L 274.2528 94.251919 
L 274.37184 133.86326 
L 274.49088 101.766173 
L 274.60992 111.440485 
L 274.848 91.864886 
L 274.96704 148.167593 
L 275.08608 114.04314 
L 275.20512 157.375605 
L 275.32416 129.675143 
L 275.4432 150.113673 
L 275.68128 76.554282 
L 275.80032 114.622873 
L 275.91936 72.51495 
L 276.27648 155.134517 
L 276.39552 105.18884 
L 276.51456 169.924071 
L 276.99072 94.099926 
L 277.2288 171.307577 
L 277.34784 97.97215 
L 277.46688 158.690429 
L 277.58592 96.361951 
L 277.70496 155.354932 
L 277.94304 99.428736 
L 278.06208 160.110514 
L 278.18112 85.73509 
L 278.30016 129.024514 
L 278.53824 84.330852 
L 278.65728 125.08031 
L 278.77632 118.608857 
L 279.0144 121.072747 
L 279.13344 106.660554 
L 279.37152 120.334401 
L 279.6096 103.842003 
L 279.72864 140.188154 
L 279.84768 122.313215 
L 279.96672 127.820557 
L 280.08576 122.014118 
L 280.2048 160.334988 
L 280.44288 117.696796 
L 280.56192 98.042667 
L 280.68096 129.994401 
L 280.8 119.532634 
L 280.91904 94.518216 
L 281.15712 137.620776 
L 281.27616 103.823164 
L 281.3952 139.777368 
L 281.63328 94.879158 
L 281.75232 125.10508 
L 281.87136 104.129826 
L 281.9904 132.42334 
L 282.10944 77.278377 
L 282.22848 110.684455 
L 282.34752 108.999513 
L 282.46656 99.217182 
L 282.5856 121.629156 
L 282.70464 117.213758 
L 282.82368 95.67311 
L 283.06176 121.864878 
L 283.1808 97.3614 
L 283.53792 142.807699 
L 283.776 100.633344 
L 283.89504 89.400098 
L 284.13312 113.445126 
L 284.25216 92.701456 
L 284.49024 117.348547 
L 284.60928 155.52818 
L 284.84736 98.534047 
L 285.08544 159.708045 
L 285.20448 125.08615 
L 285.32352 123.009462 
L 285.44256 85.734344 
L 285.5616 86.732456 
L 285.68064 136.662578 
L 285.91872 97.323541 
L 286.03776 101.795771 
L 286.1568 94.754468 
L 286.39488 154.394079 
L 286.63296 90.235693 
L 286.87104 154.20687 
L 286.99008 115.742465 
L 287.22816 137.041718 
L 287.46624 77.382536 
L 287.82336 129.141908 
L 287.9424 97.843799 
L 288.06144 135.966679 
L 288.18048 98.457496 
L 288.29952 134.572791 
L 288.41856 88.513628 
L 288.77568 164.362242 
L 288.89472 131.680782 
L 289.01376 164.673759 
L 289.1328 117.837575 
L 289.25184 125.088229 
L 289.37088 117.17857 
L 289.48992 122.924194 
L 289.728 92.806377 
L 289.84704 187.437981 
L 289.96608 108.594675 
L 290.08512 118.709375 
L 290.20416 96.925734 
L 290.3232 120.347673 
L 290.56128 108.612464 
L 290.79936 115.168418 
L 290.9184 161.187265 
L 291.15648 116.951986 
L 291.27552 94.768149 
L 291.39456 134.433933 
L 291.5136 99.644233 
L 291.75168 148.409244 
L 291.87072 151.270704 
L 292.1088 106.094509 
L 292.22784 103.872429 
L 292.34688 146.693998 
L 292.46592 100.752849 
L 292.58496 112.628432 
L 292.704 95.084329 
L 292.94208 127.933652 
L 293.06112 132.34133 
L 293.18016 145.654717 
L 293.2992 106.516854 
L 293.41824 146.199997 
L 293.77536 94.42854 
L 294.01344 147.520887 
L 294.13248 110.602296 
L 294.25152 110.902407 
L 294.37056 112.693163 
L 294.4896 112.167379 
L 294.60864 100.816153 
L 294.84672 118.360221 
L 294.96576 77.558367 
L 295.20384 121.794093 
L 295.32288 146.105051 
L 295.44192 137.538719 
L 295.56096 146.515543 
L 295.68 135.524134 
L 295.79904 175.179314 
L 295.91808 102.049149 
L 296.03712 112.133792 
L 296.15616 147.146268 
L 296.2752 115.662616 
L 296.39424 119.477309 
L 296.51328 132.824222 
L 296.63232 113.549641 
L 296.75136 121.64783 
L 296.8704 121.245658 
L 296.98944 123.592317 
L 297.10848 162.122978 
L 297.34656 116.012206 
L 297.4656 134.542415 
L 297.58464 114.903789 
L 297.70368 120.491017 
L 297.94176 174.977499 
L 298.17984 108.879191 
L 298.29888 136.474319 
L 298.41792 108.764993 
L 298.53696 110.372236 
L 298.656 146.316298 
L 298.89408 102.604344 
L 299.01312 109.147048 
L 299.13216 152.511418 
L 299.37024 116.179129 
L 299.48928 92.636357 
L 299.60832 161.574208 
L 299.8464 125.167946 
L 300.08448 136.535661 
L 300.20352 139.692874 
L 300.32256 137.718167 
L 300.4416 74.021693 
L 300.56064 85.193367 
L 300.67968 153.604622 
L 300.91776 93.699318 
L 301.0368 133.414302 
L 301.15584 125.104242 
L 301.27488 126.382441 
L 301.39392 119.308901 
L 301.51296 158.973659 
L 301.632 92.285475 
L 301.87008 119.775029 
L 301.98912 191.878353 
L 302.2272 102.707216 
L 302.34624 98.339971 
L 302.58432 157.351837 
L 302.8224 102.558581 
L 302.94144 161.734151 
L 303.17952 77.053236 
L 303.4176 104.806697 
L 303.53664 102.901252 
L 303.65568 142.393828 
L 303.77472 108.43185 
L 303.89376 113.928447 
L 304.0128 135.057084 
L 304.13184 94.904607 
L 304.36992 122.820666 
L 304.48896 86.527838 
L 304.608 119.281397 
L 304.72704 90.185198 
L 304.84608 99.513176 
L 304.96512 118.626022 
L 305.08416 116.019489 
L 305.2032 87.208179 
L 305.44128 156.584305 
L 305.56032 90.058013 
L 305.67936 93.559118 
L 305.7984 93.550102 
L 305.91744 115.213308 
L 306.03648 105.93882 
L 306.15552 110.208545 
L 306.27456 173.038616 
L 306.3936 97.047434 
L 306.51264 133.142049 
L 306.63168 101.415999 
L 306.75072 144.022826 
L 306.86976 133.222253 
L 306.9888 143.983981 
L 307.10784 98.995369 
L 307.22688 122.706739 
L 307.584 102.102475 
L 307.70304 115.780088 
L 307.94112 171.338015 
L 308.1792 102.883299 
L 308.29824 84.736939 
L 308.53632 120.542502 
L 308.65536 114.41723 
L 309.01248 139.430644 
L 309.3696 78.518716 
L 309.48864 96.53227 
L 309.60768 95.024 
L 309.72672 131.568353 
L 309.84576 107.491078 
L 310.08384 112.767558 
L 310.20288 127.432685 
L 310.32192 93.661661 
L 310.56 131.745735 
L 310.67904 108.198612 
L 310.91712 106.717412 
L 311.1552 125.18611 
L 311.27424 123.867364 
L 311.39328 143.76422 
L 311.51232 100.301767 
L 311.63136 117.309291 
L 311.7504 95.627498 
L 311.86944 110.643584 
L 311.98848 110.130087 
L 312.10752 110.773315 
L 312.22656 153.630427 
L 312.3456 130.418041 
L 312.58368 138.27158 
L 312.82176 111.625541 
L 312.9408 107.259573 
L 313.05984 122.196655 
L 313.17888 118.65069 
L 313.29792 126.298353 
L 313.41696 170.227728 
L 313.536 161.587932 
L 313.77408 111.360005 
L 313.89312 130.881574 
L 314.01216 109.912616 
L 314.1312 121.322723 
L 314.25024 102.676874 
L 314.36928 110.356831 
L 314.48832 105.59014 
L 314.60736 131.514806 
L 314.7264 132.606962 
L 314.96448 89.013178 
L 315.08352 173.260025 
L 315.20256 152.277084 
L 315.3216 89.172388 
L 315.55968 130.910917 
L 315.67872 118.545874 
L 315.9168 140.958188 
L 316.27392 84.946269 
L 316.39296 152.645504 
L 316.512 135.992434 
L 316.63104 159.872456 
L 316.86912 103.925174 
L 316.98816 126.594765 
L 317.1072 117.017055 
L 317.22624 142.457721 
L 317.34528 105.620094 
L 317.58336 154.174699 
L 317.7024 117.833402 
L 317.94048 124.452566 
L 318.05952 125.074679 
L 318.17856 95.858363 
L 318.2976 117.828257 
L 318.41664 109.551724 
L 318.53568 131.181467 
L 318.65472 113.28886 
L 318.77376 124.529341 
L 318.8928 80.954972 
L 319.01184 124.153755 
L 319.13088 112.445352 
L 319.24992 142.663365 
L 319.488 101.349625 
L 319.60704 125.074607 
L 319.72608 88.703197 
L 320.0832 153.487592 
L 320.32128 161.338497 
L 320.44032 117.187699 
L 320.55936 165.659907 
L 320.6784 138.710451 
L 320.79744 175.524018 
L 321.03552 121.719919 
L 321.15456 160.247344 
L 321.2736 108.444802 
L 321.39264 137.186814 
L 321.51168 138.651667 
L 321.63072 144.288336 
L 321.74976 112.809356 
L 321.8688 146.370301 
L 321.98784 133.172888 
L 322.22592 95.216424 
L 322.34496 112.937644 
L 322.464 101.094601 
L 322.70208 142.236514 
L 322.82112 107.950334 
L 322.94016 111.061098 
L 323.17824 142.754155 
L 323.53536 105.224451 
L 323.6544 115.325045 
L 323.77344 142.147435 
L 324.01152 95.036462 
L 324.2496 120.057816 
L 324.36864 88.43153 
L 324.48768 99.276872 
L 324.60672 136.983905 
L 324.72576 103.000465 
L 324.8448 132.579697 
L 325.32096 108.364792 
L 325.44 144.198741 
L 325.55904 131.178036 
L 325.79712 142.971142 
L 325.91616 87.335944 
L 326.15424 132.395041 
L 326.27328 121.095887 
L 326.39232 121.330985 
L 326.6304 108.926432 
L 326.74944 145.03002 
L 326.98752 103.151703 
L 327.34464 152.110312 
L 327.46368 150.258044 
L 327.70176 76.759568 
L 327.93984 156.881325 
L 328.05888 114.419191 
L 328.17792 114.692952 
L 328.29696 139.13635 
L 328.416 127.171923 
L 328.53504 96.330726 
L 328.65408 110.340781 
L 328.77312 104.825797 
L 328.89216 149.184309 
L 329.0112 123.613421 
L 329.13024 142.130877 
L 329.24928 132.958866 
L 329.36832 85.172383 
L 329.6064 122.572771 
L 329.72544 90.592971 
L 329.84448 143.749517 
L 330.08256 88.981899 
L 330.2016 98.314151 
L 330.32064 145.927835 
L 330.43968 95.708778 
L 330.55872 108.778724 
L 330.67776 193.953559 
L 330.91584 131.316132 
L 331.03488 131.209943 
L 331.15392 97.254943 
L 331.392 148.52033 
L 331.51104 131.153654 
L 331.63008 203.492074 
L 331.74912 104.554166 
L 331.86816 108.707602 
L 331.9872 119.447374 
L 332.10624 140.758568 
L 332.22528 108.487662 
L 332.34432 156.766121 
L 332.46336 146.375914 
L 332.5824 114.27792 
L 332.70144 140.42147 
L 332.82048 96.24954 
L 333.05856 150.032558 
L 333.29664 91.327965 
L 333.41568 86.049767 
L 333.53472 186.788182 
L 333.65376 117.29021 
L 333.7728 123.008907 
L 333.89184 114.437571 
L 334.01088 155.286315 
L 334.24896 121.838438 
L 334.48704 141.052724 
L 334.60608 108.494209 
L 334.72512 144.230715 
L 334.9632 112.99549 
L 335.08224 120.989359 
L 335.32032 103.065043 
L 335.43936 99.603225 
L 335.5584 127.386404 
L 335.67744 107.703539 
L 335.79648 137.872401 
L 335.91552 121.969267 
L 336.03456 132.059165 
L 336.27264 105.686118 
L 336.51072 138.339755 
L 336.62976 139.781386 
L 336.7488 114.824542 
L 336.86784 121.527382 
L 336.98688 118.705464 
L 337.10592 109.54814 
L 337.22496 110.873704 
L 337.58208 148.266479 
L 337.70112 120.055398 
L 337.82016 164.31884 
L 338.05824 131.498615 
L 338.17728 140.803541 
L 338.29632 112.325273 
L 338.41536 125.870903 
L 338.5344 86.844973 
L 338.65344 108.928773 
L 338.77248 101.067044 
L 338.89152 106.93351 
L 339.01056 152.481023 
L 339.1296 107.447132 
L 339.36768 121.968545 
L 339.48672 152.898288 
L 339.60576 151.518924 
L 339.84384 104.158075 
L 339.96288 104.506022 
L 340.32 149.003922 
L 340.43904 107.191664 
L 340.55808 105.245844 
L 340.79616 149.48419 
L 340.9152 122.918894 
L 341.03424 133.568602 
L 341.15328 99.22697 
L 341.39136 149.85847 
L 341.5104 111.354919 
L 341.62944 147.493093 
L 341.86752 108.395974 
L 341.98656 111.781242 
L 342.1056 105.549744 
L 342.22464 110.268895 
L 342.34368 126.98263 
L 342.46272 106.659667 
L 342.81984 146.112507 
L 343.17696 129.975075 
L 343.296 95.827199 
L 343.53408 133.275984 
L 343.65312 116.214524 
L 343.77216 132.89823 
L 343.8912 109.301952 
L 344.01024 156.444875 
L 344.12928 95.600176 
L 344.36736 147.278745 
L 344.4864 111.651061 
L 344.60544 130.41169 
L 344.72448 127.977451 
L 344.84352 155.686901 
L 344.96256 108.581721 
L 345.0816 131.73579 
L 345.31968 101.680722 
L 345.43872 113.948133 
L 345.55776 101.690409 
L 345.6768 119.649461 
L 345.79584 112.66948 
L 345.91488 135.89346 
L 346.03392 86.977955 
L 346.15296 85.120321 
L 346.39104 131.886392 
L 346.62912 117.118266 
L 346.74816 157.370015 
L 346.8672 143.577879 
L 346.98624 110.624794 
L 347.10528 134.275798 
L 347.22432 123.002639 
L 347.34336 138.61537 
L 347.58144 130.002071 
L 347.70048 166.633393 
L 347.81952 126.138117 
L 347.93856 134.553483 
L 348.17664 110.275047 
L 348.29568 138.522123 
L 348.53376 121.348317 
L 348.6528 121.351192 
L 348.77184 136.997672 
L 348.89088 92.332271 
L 349.248 162.341225 
L 349.48608 135.116764 
L 349.60512 134.087462 
L 349.72416 118.855936 
L 349.8432 122.307678 
L 349.96224 152.531958 
L 350.08128 112.259102 
L 350.20032 130.032948 
L 350.31936 183.366148 
L 350.4384 105.584628 
L 350.55744 159.80384 
L 350.67648 149.601605 
L 350.79552 160.536886 
L 351.0336 95.964103 
L 351.15264 93.31301 
L 351.27168 109.074954 
L 351.39072 149.642262 
L 351.6288 107.963058 
L 351.74784 166.31525 
L 351.86688 101.962897 
L 351.98592 127.926974 
L 352.224 97.385548 
L 352.46208 167.549861 
L 352.58112 100.282274 
L 352.93824 130.802104 
L 353.05728 100.842974 
L 353.29536 145.85584 
L 353.4144 78.117544 
L 353.53344 94.063625 
L 353.65248 132.994569 
L 353.77152 114.932041 
L 353.89056 138.281916 
L 354.12864 118.844287 
L 354.24768 133.485884 
L 354.36672 133.684878 
L 354.48576 132.178379 
L 354.6048 128.922925 
L 354.72384 150.727292 
L 354.84288 115.465408 
L 354.96192 113.738024 
L 355.08096 100.488848 
L 355.2 121.158319 
L 355.31904 108.302642 
L 355.43808 143.082054 
L 355.55712 115.937652 
L 355.67616 135.034421 
L 355.91424 99.593531 
L 356.03328 125.504648 
L 356.15232 114.035596 
L 356.27136 127.124095 
L 356.3904 103.513317 
L 356.50944 106.539243 
L 356.62848 86.270781 
L 356.86656 137.439371 
L 356.9856 120.72304 
L 357.10464 163.533301 
L 357.34272 110.873431 
L 357.46176 124.394265 
L 357.5808 152.159287 
L 357.69984 108.570238 
L 357.81888 151.808121 
L 357.93792 109.389419 
L 358.05696 124.713234 
L 358.176 169.635975 
L 358.41408 101.780726 
L 358.53312 122.057248 
L 358.65216 117.669305 
L 358.89024 133.856601 
L 359.12832 121.267453 
L 359.24736 128.694197 
L 359.3664 126.135262 
L 359.48544 174.965467 
L 359.60448 165.378753 
L 359.72352 141.544503 
L 359.84256 161.253413 
L 359.9616 107.789121 
L 360.08064 121.156665 
L 360.19968 96.485259 
L 360.31872 117.448268 
L 360.43776 108.739705 
L 360.5568 151.588406 
L 360.79488 107.430624 
L 360.91392 146.979003 
L 361.03296 137.778178 
L 361.27104 101.643659 
L 361.50912 133.647638 
L 361.62816 107.289001 
L 361.7472 118.643414 
L 361.86624 143.878779 
L 361.98528 125.766234 
L 362.10432 146.861481 
L 362.22336 103.00191 
L 362.3424 101.438238 
L 362.46144 122.661803 
L 362.58048 114.631455 
L 362.81856 134.424615 
L 362.9376 110.45993 
L 363.05664 116.34591 
L 363.29472 151.887165 
L 363.65184 84.135209 
L 363.77088 123.935361 
L 363.88992 101.624578 
L 364.00896 103.713419 
L 364.128 114.349362 
L 364.24704 114.94033 
L 364.36608 93.84797 
L 364.48512 124.189453 
L 364.60416 105.362452 
L 364.84224 123.363034 
L 364.96128 105.956282 
L 365.08032 117.217325 
L 365.19936 146.115337 
L 365.3184 138.990541 
L 365.55648 91.506707 
L 365.79456 115.344221 
L 365.9136 106.671821 
L 366.03264 130.985536 
L 366.27072 102.425341 
L 366.38976 104.456028 
L 366.5088 155.229843 
L 366.74688 129.513812 
L 366.86592 126.684632 
L 366.98496 103.302026 
L 367.104 110.207928 
L 367.34208 129.976775 
L 367.46112 140.741418 
L 367.58016 132.184643 
L 367.6992 81.881177 
L 367.93728 157.320195 
L 368.05632 104.163319 
L 368.2944 133.3639 
L 368.53248 97.871497 
L 368.65152 139.618779 
L 368.8896 96.257694 
L 369.00864 172.798597 
L 369.12768 127.134639 
L 369.24672 156.940296 
L 369.36576 153.312537 
L 369.4848 154.0598 
L 369.60384 105.345494 
L 369.84192 156.082092 
L 369.96096 101.962329 
L 370.08 137.425363 
L 370.19904 118.572078 
L 370.31808 134.615011 
L 370.43712 113.741964 
L 370.55616 129.434696 
L 370.6752 164.802243 
L 370.79424 166.12033 
L 371.03232 155.879037 
L 371.15136 139.085977 
L 371.2704 140.088632 
L 371.38944 174.373624 
L 371.50848 100.606002 
L 371.74656 146.826625 
L 371.8656 140.681847 
L 371.98464 104.270689 
L 372.10368 122.464568 
L 372.22272 98.591517 
L 372.4608 108.590098 
L 372.57984 106.725164 
L 372.69888 117.826381 
L 372.81792 110.838511 
L 372.93696 110.609748 
L 373.056 117.128859 
L 373.17504 143.574636 
L 373.29408 108.446047 
L 373.41312 159.574598 
L 373.6512 79.381876 
L 373.77024 103.300457 
L 374.00832 177.425214 
L 374.12736 103.330041 
L 374.2464 137.778933 
L 374.48448 98.091968 
L 374.72256 147.100621 
L 374.8416 87.498927 
L 374.96064 118.964972 
L 375.07968 93.364294 
L 375.19872 93.742598 
L 375.31776 150.573552 
L 375.55584 130.473597 
L 375.79392 160.761241 
L 376.032 97.817778 
L 376.15104 106.176434 
L 376.27008 133.293565 
L 376.38912 122.131873 
L 376.50816 126.25546 
L 376.6272 94.076022 
L 376.74624 123.824735 
L 376.86528 121.776049 
L 376.98432 175.66462 
L 377.2224 135.132653 
L 377.34144 132.601297 
L 377.46048 118.450063 
L 377.57952 124.299146 
L 377.69856 147.79631 
L 377.93664 99.624931 
L 378.05568 115.851882 
L 378.17472 111.469974 
L 378.29376 136.782716 
L 378.4128 89.63042 
L 378.53184 130.528721 
L 378.65088 125.419942 
L 378.76992 127.703566 
L 378.88896 139.633731 
L 379.008 84.161106 
L 379.24608 123.667017 
L 379.48416 99.605741 
L 379.6032 107.006989 
L 379.84128 136.427409 
L 380.07936 92.369044 
L 380.1984 143.857524 
L 380.31744 112.307454 
L 380.55552 148.096543 
L 380.7936 119.236278 
L 380.91264 120.720311 
L 381.03168 75.352461 
L 381.15072 211.736594 
L 381.3888 118.484004 
L 381.50784 149.442486 
L 381.74592 128.387257 
L 381.86496 176.841375 
L 382.10304 131.403829 
L 382.22208 112.053922 
L 382.46016 154.305798 
L 382.69824 122.473818 
L 382.81728 144.723483 
L 382.93632 142.351809 
L 383.05536 166.185842 
L 383.29344 115.903993 
L 383.41248 140.407455 
L 383.53152 97.29137 
L 383.65056 109.947718 
L 383.7696 84.198821 
L 383.88864 115.624491 
L 384.00768 117.656311 
L 384.12672 117.262854 
L 384.24576 138.544361 
L 384.3648 132.938888 
L 384.48384 155.255299 
L 384.60288 81.881876 
L 384.84096 156.51472 
L 384.96 125.00765 
L 385.07904 148.327414 
L 385.31712 140.072219 
L 385.43616 115.475902 
L 385.5552 137.584073 
L 385.67424 100.403356 
L 385.91232 123.829157 
L 386.03136 151.061653 
L 386.1504 112.289057 
L 386.26944 132.97023 
L 386.38848 115.182272 
L 386.50752 120.627242 
L 386.86464 79.75282 
L 387.10272 149.426494 
L 387.3408 86.795462 
L 387.936 138.102144 
L 388.05504 99.307575 
L 388.17408 122.700852 
L 388.29312 95.11566 
L 388.41216 178.263103 
L 388.65024 114.339394 
L 388.76928 138.961217 
L 388.88832 110.478369 
L 389.00736 110.539505 
L 389.1264 107.224158 
L 389.24544 119.604634 
L 389.36448 117.38542 
L 389.48352 118.623429 
L 389.7216 131.315406 
L 389.84064 130.890269 
L 390.07872 81.312822 
L 390.19776 90.513167 
L 390.3168 131.427626 
L 390.43584 125.735535 
L 390.55488 125.37457 
L 390.67392 117.131355 
L 390.79296 86.045662 
L 390.912 113.544543 
L 391.03104 107.310697 
L 391.38816 124.315885 
L 391.5072 117.920994 
L 391.62624 99.929897 
L 391.74528 156.353621 
L 391.86432 99.41785 
L 391.98336 150.719229 
L 392.1024 145.418287 
L 392.22144 134.010487 
L 392.34048 86.971254 
L 392.45952 130.126246 
L 392.6976 100.36967 
L 392.93568 148.942971 
L 393.05472 157.506569 
L 393.41184 90.327767 
L 393.64992 106.472369 
L 393.76896 76.619501 
L 394.12608 179.243112 
L 394.24512 89.29051 
L 394.36416 133.2765 
L 394.72128 101.954986 
L 394.95936 131.377895 
L 395.0784 134.670044 
L 395.19744 120.976736 
L 395.31648 146.158367 
L 395.43552 101.312813 
L 395.79264 114.549197 
L 396.03072 190.033134 
L 396.2688 83.65697 
L 396.38784 159.076539 
L 396.50688 127.693632 
L 396.62592 170.067324 
L 396.98304 90.950617 
L 397.10208 184.006704 
L 397.22112 117.298506 
L 397.34016 123.810365 
L 397.57824 163.766695 
L 397.69728 122.42962 
L 397.81632 180.903126 
L 397.93536 96.942928 
L 398.0544 145.478857 
L 398.17344 144.855543 
L 398.29248 81.905375 
L 398.41152 132.289694 
L 398.76864 100.555012 
L 398.88768 143.579654 
L 399.12576 82.598267 
L 399.2448 116.523399 
L 399.36384 110.271828 
L 399.48288 118.963647 
L 399.60192 159.794256 
L 399.72096 108.487566 
L 399.84 173.701417 
L 399.95904 114.321089 
L 400.07808 144.318596 
L 400.4352 116.748439 
L 400.55424 84.461504 
L 400.67328 130.081207 
L 400.79232 132.940519 
L 400.91136 149.138067 
L 401.0304 86.034789 
L 401.14944 127.675019 
L 401.26848 83.721308 
L 401.38752 97.298373 
L 401.50656 128.101715 
L 401.6256 123.870538 
L 401.74464 101.795661 
L 401.86368 107.871651 
L 402.10176 140.380688 
L 402.2208 98.780096 
L 402.33984 102.75937 
L 402.45888 146.226372 
L 402.57792 144.217561 
L 402.816 105.606184 
L 402.93504 139.02982 
L 403.05408 131.515612 
L 403.17312 93.952712 
L 403.29216 104.275917 
L 403.53024 160.840728 
L 403.64928 158.253304 
L 403.76832 113.402491 
L 404.0064 136.097112 
L 404.12544 112.75221 
L 404.24448 119.460244 
L 404.36352 107.740246 
L 404.48256 127.385734 
L 404.6016 185.281914 
L 404.72064 100.61871 
L 404.83968 127.154614 
L 405.1968 84.612198 
L 405.31584 134.388081 
L 405.55392 113.897992 
L 405.67296 108.563824 
L 405.792 93.365688 
L 405.91104 101.794238 
L 406.03008 91.404484 
L 406.26816 115.847933 
L 406.3872 113.095786 
L 406.50624 127.694908 
L 406.62528 122.483838 
L 406.74432 131.812901 
L 406.9824 115.921188 
L 407.22048 140.109263 
L 407.33952 70.291649 
L 407.69664 141.322654 
L 407.93472 109.654155 
L 408.05376 122.969066 
L 408.1728 120.371427 
L 408.29184 99.526035 
L 408.41088 167.695806 
L 408.52992 121.224598 
L 408.64896 126.479363 
L 408.768 158.234947 
L 408.88704 101.161591 
L 409.00608 148.961613 
L 409.12512 120.320151 
L 409.48224 162.355419 
L 409.60128 155.946421 
L 409.83936 116.319029 
L 409.9584 106.797076 
L 410.07744 117.075686 
L 410.19648 108.53434 
L 410.31552 130.443343 
L 410.43456 118.286533 
L 410.5536 120.631298 
L 410.67264 110.688371 
L 410.79168 144.973273 
L 410.91072 132.8115 
L 411.02976 100.854652 
L 411.26784 121.516421 
L 411.38688 126.337025 
L 411.50592 121.521964 
L 411.62496 148.493213 
L 411.744 119.363119 
L 411.86304 118.241981 
L 411.98208 153.097831 
L 412.10112 139.593528 
L 412.22016 215.553389 
L 412.3392 108.414875 
L 412.45824 121.801905 
L 412.57728 152.349396 
L 412.69632 97.694347 
L 412.9344 146.625306 
L 413.05344 127.033426 
L 413.17248 145.835616 
L 413.29152 114.775513 
L 413.41056 140.304852 
L 413.5296 105.848004 
L 413.64864 112.423592 
L 413.76768 144.472922 
L 413.88672 127.088878 
L 414.00576 139.240789 
L 414.1248 111.133469 
L 414.24384 145.483304 
L 414.36288 104.19184 
L 414.48192 119.130396 
L 414.60096 117.551139 
L 414.60096 117.551139 
" style="fill:none;stroke:#0000ff;stroke-linecap:square;stroke-width:1.5;"/>
   </g>
   <g id="patch_3">
    <path d="M 57.6 307.584 
L 57.6 41.472 
" style="fill:none;stroke:#000000;stroke-linecap:square;stroke-linejoin:miter;stroke-width:0.8;"/>
   </g>
   <g id="patch_4">
    <path d="M 414.72 307.584 
L 414.72 41.472 
" style="fill:none;stroke:#000000;stroke-linecap:square;stroke-linejoin:miter;stroke-width:0.8;"/>
   </g>
   <g id="patch_5">
    <path d="M 57.6 307.584 
L 414.72 307.584 
" style="fill:none;stroke:#000000;stroke-linecap:square;stroke-linejoin:miter;stroke-width:0.8;"/>
   </g>
   <g id="patch_6">
    <path d="M 57.6 41.472 
L 414.72 41.472 
" style="fill:none;stroke:#000000;stroke-linecap:square;stroke-linejoin:miter;stroke-width:0.8;"/>
   </g>
   <g id="legend_1">
    <g id="patch_7">
     <path d="M 282.321563 64.150125 
L 407.72 64.150125 
Q 409.72 64.150125 409.72 62.150125 
L 409.72 48.472 
Q 409.72 46.472 407.72 46.472 
L 282.321563 46.472 
Q 280.321563 46.472 280.321563 48.472 
L 280.321563 62.150125 
Q 280.321563 64.150125 282.321563 64.150125 
z
" style="fill:#ffffff;opacity:0.8;stroke:#cccccc;stroke-linejoin:miter;"/>
    </g>
    <g id="line2d_28">
     <path d="M 284.321563 54.570438 
L 304.321563 54.570438 
" style="fill:none;stroke:#0000ff;stroke-linecap:square;stroke-width:1.5;"/>
    </g>
    <g id="line2d_29"/>
    <g id="text_16">
     <!-- cumulative reward -->
     <g transform="translate(312.321563 58.070438)scale(0.1 -0.1)">
      <defs>
       <path d="M 3122 3366 
L 3122 2828 
Q 2878 2963 2633 3030 
Q 2388 3097 2138 3097 
Q 1578 3097 1268 2742 
Q 959 2388 959 1747 
Q 959 1106 1268 751 
Q 1578 397 2138 397 
Q 2388 397 2633 464 
Q 2878 531 3122 666 
L 3122 134 
Q 2881 22 2623 -34 
Q 2366 -91 2075 -91 
Q 1284 -91 818 406 
Q 353 903 353 1747 
Q 353 2603 823 3093 
Q 1294 3584 2113 3584 
Q 2378 3584 2631 3529 
Q 2884 3475 3122 3366 
z
" id="DejaVuSans-63" transform="scale(0.015625)"/>
      </defs>
      <use xlink:href="#DejaVuSans-63"/>
      <use x="54.980469" xlink:href="#DejaVuSans-75"/>
      <use x="118.359375" xlink:href="#DejaVuSans-6d"/>
      <use x="215.771484" xlink:href="#DejaVuSans-75"/>
      <use x="279.150391" xlink:href="#DejaVuSans-6c"/>
      <use x="306.933594" xlink:href="#DejaVuSans-61"/>
      <use x="368.212891" xlink:href="#DejaVuSans-74"/>
      <use x="407.421875" xlink:href="#DejaVuSans-69"/>
      <use x="435.205078" xlink:href="#DejaVuSans-76"/>
      <use x="494.384766" xlink:href="#DejaVuSans-65"/>
      <use x="555.908203" xlink:href="#DejaVuSans-20"/>
      <use x="587.695312" xlink:href="#DejaVuSans-72"/>
      <use x="626.558594" xlink:href="#DejaVuSans-65"/>
      <use x="688.082031" xlink:href="#DejaVuSans-77"/>
      <use x="769.869141" xlink:href="#DejaVuSans-61"/>
      <use x="831.148438" xlink:href="#DejaVuSans-72"/>
      <use x="870.511719" xlink:href="#DejaVuSans-64"/>
     </g>
    </g>
   </g>
  </g>
 </g>
 <defs>
  <clipPath id="p4fecbbb267">
   <rect height="266.112" width="357.12" x="57.6" y="41.472"/>
  </clipPath>
 </defs>
</svg>
